<?xml version="1.0" encoding="UTF-8" standalone="no"?>
<svg
   viewBox="0 0 22.892621 38.265741"
   width="22.892622mm"
   height="38.265739mm"
   version="1.1"
   id="svg18"
   sodipodi:docname="SGR-BOOM_S01_N_ZIJ-D.dxf"
   xmlns:inkscape="http://www.inkscape.org/namespaces/inkscape"
   xmlns:sodipodi="http://sodipodi.sourceforge.net/DTD/sodipodi-0.dtd"
   xmlns="http://www.w3.org/2000/svg"
   xmlns:svg="http://www.w3.org/2000/svg">
  <sodipodi:namedview
     id="namedview18"
     pagecolor="#ffffff"
     bordercolor="#000000"
     borderopacity="0.25"
     inkscape:showpageshadow="2"
     inkscape:pageopacity="0.0"
     inkscape:pagecheckerboard="0"
     inkscape:deskcolor="#d1d1d1" />
  <desc
     id="desc1">SGR-BOOM_S01_N_ZIJ-D.dxf - scale = 1.000000, origin = (0.000000, 0.000000), method = manual</desc>
  <defs
     id="defs4">
    <marker
       id="DistanceX"
       orient="auto"
       refX="0"
       refY="0"
       style="overflow:visible">
      <path
         d="M 3,-3 -3,3 M 0,-5 V 5"
         style="stroke:#000000;stroke-width:0.5"
         id="path1" />
    </marker>
    <pattern
       id="Hatch"
       patternUnits="userSpaceOnUse"
       width="8"
       height="8"
       x="0"
       y="0">
      <path
         d="M8 4 l-4,4"
         stroke="#000000"
         stroke-width="0.25"
         linecap="square"
         id="path2" />
      <path
         d="M6 2 l-4,4"
         stroke="#000000"
         stroke-width="0.25"
         linecap="square"
         id="path3" />
      <path
         d="M4 0 l-4,4"
         stroke="#000000"
         stroke-width="0.25"
         linecap="square"
         id="path4" />
    </pattern>
    <symbol
       id="*Model_Space" />
    <symbol
       id="*Paper_Space" />
  </defs>
  <g
     inkscape:groupmode="layer"
     inkscape:label="0"
     id="g18"
     transform="translate(11.139196,-1084.7543)">
    <path
       d="m -9.743908,1104.0748 1.971088,4.2717 2.082271,1.0643 2.499938,2.1286 3.194139,0.3361"
       style="fill:none;stroke:#000000"
       id="path5" />
    <path
       d="m 0.173147,1106.0088 0.720587,2.105 -1.793199,1.0643 -1.681129,-1.2883 -0.672449,-2.0726 2.070039,0.7941 z"
       style="fill:none;stroke:#000000"
       id="path6" />
    <path
       d="m 7.776023,1088.5879 -5.120658,-2.7499 -4.46035,-0.5664 -5.691961,3.3049 -1.728425,3.7749"
       style="fill:none;stroke:#000000"
       id="path7" />
    <path
       d="m -7.779274,1090.3352 -2.004506,5.3259 0.500216,3.4328 -1.297958,3.5454 2.431273,3.5786"
       style="fill:none;stroke:#000000"
       id="path8" />
    <path
       d="m 7.355441,1109.1307 2.241501,-3.7531 -0.042629,-2.8766 1.682723,-2.4935 -0.431508,-4.0811"
       style="fill:none;stroke:#000000"
       id="path9" />
    <path
       d="m 4.546409,1104.7268 -0.827155,1.2084 0.543616,1.3584 1.681129,-1.2884 0.672449,-2.0726 z"
       style="fill:none;stroke:#000000"
       id="path10" />
    <path
       d="m 0,1122.5197 a 90.774419,90.774419 0 0 0 0.216464,-11.1136"
       style="fill:none;stroke:#000000"
       id="path11" />
    <path
       d="m 1.473299,1111.4632 a 41.238814,41.238814 0 0 0 -0.026148,8.52"
       style="fill:none;stroke:#000000"
       id="path12" />
    <path
       d="m 1.628615,1111.6515 4.877038,-1.0083 2.258309,-2.8998"
       style="fill:none;stroke:#000000"
       id="path13" />
    <path
       d="m 0.341966,1110.4353 a 32.679385,32.679385 0 0 0 0.530492,2.0869"
       style="fill:none;stroke:#000000"
       id="path14" />
    <path
       d="m 1.513458,1110.2685 a 5.869281,5.869281 0 0 0 -0.641,2.2537"
       style="fill:none;stroke:#000000"
       id="path15" />
    <path
       d="m 10.514248,1098.4308 -0.873842,-4.8341 -0.815648,-3.9604 -3.810174,-1.8705"
       style="fill:none;stroke:#000000"
       id="path16" />
    <path
       style="fill:none;stroke:#000000"
       d="m 1.44715,1119.98 0.4761,2.54"
       id="path17" />
    <path
       style="fill:none;stroke:#000000"
       d="M 1.92325,1122.52 H 0"
       id="path18" />
  </g>
</svg>
