<?xml version="1.0" encoding="UTF-8" standalone="no"?>
<svg
   viewBox="0 0 751.23723 3727.7186"
   width="751.23724mm"
   height="3727.7185mm"
   version="1.1"
   id="svg20"
   sodipodi:docname="SBV-LEUNING_3REG1100-DMM.dxf"
   xmlns:inkscape="http://www.inkscape.org/namespaces/inkscape"
   xmlns:sodipodi="http://sodipodi.sourceforge.net/DTD/sodipodi-0.dtd"
   xmlns="http://www.w3.org/2000/svg"
   xmlns:svg="http://www.w3.org/2000/svg">
  <sodipodi:namedview
     id="namedview20"
     pagecolor="#ffffff"
     bordercolor="#000000"
     borderopacity="0.25"
     inkscape:showpageshadow="2"
     inkscape:pageopacity="0.0"
     inkscape:pagecheckerboard="0"
     inkscape:deskcolor="#d1d1d1" />
  <desc
     id="desc1">SBV-LEUNING_3REG1100-DMM.dxf - scale = 1.000000, origin = (0.000000, 0.000000), method = manual</desc>
  <defs
     id="defs4">
    <marker
       id="DistanceX"
       orient="auto"
       refX="0"
       refY="0"
       style="overflow:visible">
      <path
         d="M 3,-3 -3,3 M 0,-5 V 5"
         style="stroke:#000000;stroke-width:0.5"
         id="path1" />
    </marker>
    <pattern
       id="Hatch"
       patternUnits="userSpaceOnUse"
       width="8"
       height="8"
       x="0"
       y="0">
      <path
         d="M8 4 l-4,4"
         stroke="#000000"
         stroke-width="0.25"
         linecap="square"
         id="path2" />
      <path
         d="M6 2 l-4,4"
         stroke="#000000"
         stroke-width="0.25"
         linecap="square"
         id="path3" />
      <path
         d="M4 0 l-4,4"
         stroke="#000000"
         stroke-width="0.25"
         linecap="square"
         id="path4" />
    </pattern>
    <symbol
       id="*Model_Space" />
    <symbol
       id="*Paper_Space" />
  </defs>
  <g
     inkscape:groupmode="layer"
     inkscape:label="0"
     id="g20"
     transform="translate(-377.45276,3035.4606)">
    <path
       style="fill:none;stroke:#000000"
       d="M 1128.19,459.213 V 383.622"
       id="path5" />
    <path
       style="fill:none;stroke:#000000"
       d="M 542.362,668.393 V 319.707"
       id="path6" />
    <path
       style="fill:none;stroke:#000000"
       d="M 1014.8,692.258 V 303.797"
       id="path7" />
    <path
       d="M 863.62205,383.62205 V -372.28346 L 758.03098,-2821.9962 a 188.97638,188.97638 0 0 0 -188.80107,-180.8384 h -6.82132"
       style="fill:none;stroke:#000000"
       id="path8" />
    <path
       style="fill:none;stroke:#000000"
       d="M 485.669,-1806.61 V -2819.53"
       id="path9" />
    <path
       style="fill:none;stroke:#000000"
       d="M 485.669,-578.268 V -1591.18"
       id="path10" />
    <path
       style="fill:none;stroke:#000000"
       d="M 428.976,459.213 V 383.622"
       id="path11" />
    <path
       style="fill:none;stroke:#000000"
       d="M 485.669,383.622 V -362.835"
       id="path12" />
    <path
       style="fill:none;stroke:#000000"
       d="M 428.976,459.213 H 1128.19"
       id="path13" />
    <path
       style="fill:none;stroke:#000000"
       d="M 428.976,383.622 H 1128.19"
       id="path14" />
    <path
       d="m 593.38583,-2927.2441 a 107.71654,107.71654 0 0 0 -215.43307,0 107.71654,107.71654 0 0 0 215.43307,0 z"
       style="fill:none;stroke:#000000"
       id="path15" />
    <path
       d="m 593.38583,-470.55118 a 107.71654,107.71654 0 0 0 -215.43307,0 107.71654,107.71654 0 0 0 215.43307,0 z"
       style="fill:none;stroke:#000000"
       id="path16" />
    <path
       d="m 582.04724,-470.55118 a 96.377953,96.377953 0 0 0 -192.7559,0 96.377953,96.377953 0 0 0 192.7559,0 z"
       style="fill:none;stroke:#000000"
       id="path17" />
    <path
       d="m 582.04724,-2927.2441 a 96.377953,96.377953 0 0 0 -192.7559,0 96.377953,96.377953 0 0 0 192.7559,0 z"
       style="fill:none;stroke:#000000"
       id="path18" />
    <path
       d="m 582.04724,-1698.8976 a 96.377953,96.377953 0 0 0 -192.7559,0 96.377953,96.377953 0 0 0 192.7559,0 z"
       style="fill:none;stroke:#000000"
       id="path19" />
    <path
       d="m 593.38583,-1698.8976 a 107.71654,107.71654 0 0 0 -215.43307,0 107.71654,107.71654 0 0 0 215.43307,0 z"
       style="fill:none;stroke:#000000"
       id="path20" />
  </g>
</svg>
