<?xml version="1.0" encoding="UTF-8" standalone="no"?>
<svg
   viewBox="0 0 10.790005 21.690001"
   width="10.790006mm"
   height="21.690001mm"
   version="1.1"
   id="svg257"
   sodipodi:docname="SAL-AANKLEDING_TRAM_AVENIO_VOORAANZICHT-D.dxf"
   xmlns:inkscape="http://www.inkscape.org/namespaces/inkscape"
   xmlns:sodipodi="http://sodipodi.sourceforge.net/DTD/sodipodi-0.dtd"
   xmlns:xlink="http://www.w3.org/1999/xlink"
   xmlns="http://www.w3.org/2000/svg"
   xmlns:svg="http://www.w3.org/2000/svg">
  <sodipodi:namedview
     id="namedview257"
     pagecolor="#ffffff"
     bordercolor="#000000"
     borderopacity="0.25"
     inkscape:showpageshadow="2"
     inkscape:pageopacity="0.0"
     inkscape:pagecheckerboard="0"
     inkscape:deskcolor="#d1d1d1" />
  <desc
     id="desc1">SAL-AANKLEDING_TRAM_AVENIO_VOORAANZICHT-D.dxf - scale = 1.000000, origin = (0.000000, 0.000000), method = manual</desc>
  <defs
     id="defs23">
    <marker
       id="DistanceX"
       orient="auto"
       refX="0"
       refY="0"
       style="overflow:visible">
      <path
         d="M 3,-3 -3,3 M 0,-5 V 5"
         style="stroke:#000000;stroke-width:0.5"
         id="path1" />
    </marker>
    <pattern
       id="Hatch"
       patternUnits="userSpaceOnUse"
       width="8"
       height="8"
       x="0"
       y="0">
      <path
         d="M8 4 l-4,4"
         stroke="#000000"
         stroke-width="0.25"
         linecap="square"
         id="path2" />
      <path
         d="M6 2 l-4,4"
         stroke="#000000"
         stroke-width="0.25"
         linecap="square"
         id="path3" />
      <path
         d="M4 0 l-4,4"
         stroke="#000000"
         stroke-width="0.25"
         linecap="square"
         id="path4" />
    </pattern>
    <symbol
       id="*Model_Space" />
    <symbol
       id="*Paper_Space" />
    <symbol
       id="TerminatorOpen_0.5">
      <path
         style="fill:none;stroke:#000000;stroke-linecap:round"
         d="M 0,1122.52 H -3.77953"
         id="path5" />
      <path
         style="fill:none;stroke:#000000;stroke-linecap:round"
         d="m 0,1122.52 -3.77953,-0.95"
         id="path6" />
      <path
         style="fill:none;stroke:#000000;stroke-linecap:round"
         d="m 0,1122.52 -3.77953,0.94"
         id="path7" />
    </symbol>
    <symbol
       id="*U1">
      <path
         d="m -0.003497,1122.5042 a 0.042918,0.01708 -180 0 0 0,0.031"
         style="fill:none;stroke:#000000"
         id="path8" />
      <path
         d="m 0.020711,1122.5333 a 0.015118,0.015118 0 0 0 0,-0.027"
         style="fill:none;stroke:#000000"
         id="path9" />
      <path
         d="m -0.003497,1122.5354 c 0.003274,4e-4 0.006549,8e-4 0.0099,9e-4 0.003834,10e-5 0.007768,-10e-5 0.011268,-0 0.001039,-4e-4 0.002039,-9e-4 0.00304,-0"
         style="fill:none;stroke:#000000"
         id="path10" />
      <path
         d="m -0.003497,1122.5042 c 0.003275,-5e-4 0.006549,-9e-4 0.009901,-10e-4 0.003834,-1e-4 0.007768,10e-5 0.011268,0 0.001038,4e-4 0.002039,9e-4 0.003039,0"
         style="fill:none;stroke:#000000"
         id="path11" />
    </symbol>
    <symbol
       id="*U2">
      <path
         d="m -0.003497,1122.5042 a 0.042918,0.01708 -180 0 0 0,0.031"
         style="fill:none;stroke:#000000"
         id="path12" />
      <path
         d="m 0.020711,1122.5333 a 0.015118,0.015118 0 0 0 0,-0.027"
         style="fill:none;stroke:#000000"
         id="path13" />
      <path
         d="m -0.003497,1122.5354 c 0.003274,4e-4 0.006549,8e-4 0.0099,9e-4 0.003834,10e-5 0.007768,-10e-5 0.011268,-0 0.001039,-4e-4 0.002039,-9e-4 0.00304,-0"
         style="fill:none;stroke:#000000"
         id="path14" />
      <path
         d="m -0.003497,1122.5042 c 0.003275,-5e-4 0.006549,-9e-4 0.009901,-10e-4 0.003834,-1e-4 0.007768,10e-5 0.011268,0 0.001038,4e-4 0.002039,9e-4 0.003039,0"
         style="fill:none;stroke:#000000"
         id="path15" />
    </symbol>
    <symbol
       id="*U3">
      <path
         style="fill:none;stroke:#000000"
         d="m -0.048601,1122.52 h 0.042066"
         id="path16" />
      <path
         d="m -0.006535,1122.5189 a 0.032126,0.032126 0 0 0 0.032126,-0.032"
         style="fill:none;stroke:#000000"
         id="path17" />
      <path
         d="m -0.048601,1122.5189 a 0.00378,0.00378 0 0 0 -0.003779,0"
         style="fill:none;stroke:#000000"
         id="path18" />
      <path
         style="fill:none;stroke:#000000"
         d="m -0.05238,1122.52 v 0.03"
         id="path19" />
      <path
         d="m -0.05238,1122.5489 a 0.00378,0.00378 0 0 0 0.003779,0"
         style="fill:none;stroke:#000000"
         id="path20" />
      <path
         style="fill:none;stroke:#000000"
         d="M -0.048601,1122.55 H 0.033422"
         id="path21" />
      <path
         d="m 0.033422,1122.5527 a 0.018898,0.018898 0 0 0 0.018897,-0.019"
         style="fill:none;stroke:#000000"
         id="path22" />
      <path
         style="fill:none;stroke:#000000"
         d="m 0.052319,1122.49 v 0.04"
         id="path23" />
    </symbol>
  </defs>
  <g
     inkscape:groupmode="layer"
     inkscape:label="0"
     id="g257"
     transform="translate(5.3950027,-1101.42)">
    <path
       d="m 4.091068,1109.8712 a 19.916454,19.916454 0 0 0 -8.182174,0"
       style="fill:none;stroke:#000000"
       id="path24" />
    <path
       style="fill:none;stroke:#000000"
       d="M 4.24718,1110.98 H 4.5801"
       id="path25" />
    <path
       style="fill:none;stroke:#000000"
       d="m 4.61604,1119.97 -0.81928,-2.38"
       id="path26" />
    <path
       d="m 3.796763,1117.5923 a 0.755906,0.755906 0 0 0 -0.644797,-0.5066"
       style="fill:none;stroke:#000000"
       id="path27" />
    <path
       style="fill:none;stroke:#000000"
       d="m -2.38083,1111.13 h 4.7622"
       id="path28" />
    <path
       style="fill:none;stroke:#000000"
       d="m -2.38085,1111.89 h 4.7622"
       id="path29" />
    <path
       style="fill:none;stroke:#000000"
       d="m 2.38135,1111.89 2e-5,-0.76"
       id="path30" />
    <path
       style="fill:none;stroke:#000000"
       d="m -2.38085,1111.89 2e-5,-0.76"
       id="path31" />
    <text
       x="-2.2884569"
       y="1111.6945"
       style="font-size:0.378px;line-height:125%;font-family:Arial;text-anchor:start;fill:#000000"
       transform="rotate(-0.109091,-2.288457,1111.6945)"
       id="text31"><tspan
         sodipodi:role="line"
         dx="0"
         dy="0"
         id="tspan31"
         x="-2.2884569"
         y="1111.6945">Sorry, geen dienst</tspan></text>
    <path
       style="fill:none;stroke:#000000"
       d="m 3.515,1121.43 3e-5,-1.06"
       id="path32" />
    <path
       style="fill:none;stroke:#000000"
       d="M 3.56372,1114.97 H 4.41014"
       id="path33" />
    <path
       style="fill:none;stroke:#000000"
       d="M 3.25837,1121.66 3.515,1121.43"
       id="path34" />
    <path
       d="m 2.795731,1117.4377 a 0.134279,0.134279 0 0 0 -0.268558,0 0.134279,0.134279 0 0 0 0.268558,0 z"
       style="fill:none;stroke:#000000"
       id="path35" />
    <path
       d="m 3.075749,1118.0355 a 0.130261,0.130261 0 0 0 -0.260522,0 0.130261,0.130261 0 0 0 0.260522,0 z"
       style="fill:none;stroke:#000000"
       id="path36" />
    <path
       d="m 3.032356,1118.8903 a 0.172951,0.172951 0 0 0 -0.345902,0 0.172951,0.172951 0 0 0 0.345902,0 z"
       style="fill:none;stroke:#000000"
       id="path37" />
    <path
       d="m 3.077653,1118.4443 a 0.174521,0.174521 0 0 0 -0.349042,0 0.174521,0.174521 0 0 0 0.349042,0 z"
       style="fill:none;stroke:#000000"
       id="path38" />
    <path
       style="fill:none;stroke:#000000"
       d="M 3.45293,1116.4 H 4.36005"
       id="path39" />
    <path
       style="fill:none;stroke:#000000"
       d="M 3.55663,1115.04 H 4.41156"
       id="path40" />
    <path
       style="fill:none;stroke:#000000"
       d="M 3.45537,1116.33 H 4.36616"
       id="path41" />
    <path
       d="m -2.74816,1122.5387 a 0.540086,0.540086 0 0 0 -0.087527,-0.01"
       style="fill:none;stroke:#000000"
       id="path42" />
    <path
       d="m -2.714144,1122.5543 a 0.073858,0.073858 0 0 0 -0.034016,-0.016"
       style="fill:none;stroke:#000000"
       id="path43" />
    <path
       style="fill:none;stroke:#000000"
       d="m -2.83569,1122.53 -0.17264,-0.01"
       id="path44" />
    <path
       style="fill:none;stroke:#000000"
       d="m -3.00833,1122.52 -0.01134,-0.01"
       id="path45" />
    <path
       style="fill:none;stroke:#000000"
       d="m -3.01967,1122.32 v 0.19"
       id="path46" />
    <path
       style="fill:none;stroke:#000000"
       d="m -2.62282,1122.57 v -0.25"
       id="path47" />
    <path
       style="fill:none;stroke:#000000"
       d="m -2.62855,1122.6 0.00573,-0.03"
       id="path48" />
    <path
       d="m -2.639671,1122.609 a 0.011339,0.011339 0 0 0 0.011119,-0.01"
       style="fill:none;stroke:#000000"
       id="path49" />
    <path
       style="fill:none;stroke:#000000"
       d="m -2.68145,1122.61 h 0.04178"
       id="path50" />
    <path
       d="m -2.690001,1122.6021 a 0.011339,0.011339 0 0 0 0.010438,0.01"
       style="fill:none;stroke:#000000"
       id="path51" />
    <path
       style="fill:none;stroke:#000000"
       d="M -2.69996,1122.57 -2.69,1122.6"
       id="path52" />
    <path
       d="m -2.699959,1122.5748 a 0.049134,0.049134 0 0 0 -0.014185,-0.021"
       style="fill:none;stroke:#000000"
       id="path53" />
    <path
       d="m 2.835718,1122.5286 a 0.540086,0.540086 0 0 0 -0.087527,0.01"
       style="fill:none;stroke:#000000"
       id="path54" />
    <path
       d="m 2.748191,1122.5387 a 0.073858,0.073858 0 0 0 -0.034016,0.016"
       style="fill:none;stroke:#000000"
       id="path55" />
    <path
       style="fill:none;stroke:#000000"
       d="m 2.83572,1122.53 0.17264,-0.01"
       id="path56" />
    <path
       style="fill:none;stroke:#000000"
       d="m 3.00836,1122.52 0.01134,-0.01"
       id="path57" />
    <path
       style="fill:none;stroke:#000000"
       d="m 3.0197,1122.32 v 0.19"
       id="path58" />
    <path
       style="fill:none;stroke:#000000"
       d="m 2.62285,1122.57 v -0.25"
       id="path59" />
    <path
       style="fill:none;stroke:#000000"
       d="m 2.62858,1122.6 -0.00573,-0.03"
       id="path60" />
    <path
       d="m 2.628583,1122.5999 a 0.011339,0.011339 0 0 0 0.011119,0.01"
       style="fill:none;stroke:#000000"
       id="path61" />
    <path
       style="fill:none;stroke:#000000"
       d="M 2.68148,1122.61 H 2.6397"
       id="path62" />
    <path
       d="m 2.679594,1122.609 a 0.011339,0.011339 0 0 0 0.010438,-0.01"
       style="fill:none;stroke:#000000"
       id="path63" />
    <path
       style="fill:none;stroke:#000000"
       d="m 2.69999,1122.57 -0.00996,0.03"
       id="path64" />
    <path
       d="m 2.714175,1122.5543 a 0.049134,0.049134 0 0 0 -0.014185,0.021"
       style="fill:none;stroke:#000000"
       id="path65" />
    <path
       d="m -4.432303,1109.8086 a 0.056693,0.056693 0 0 0 -0.056263,0.05"
       style="fill:none;stroke:#000000"
       id="path66" />
    <path
       d="m 4.524206,1110.1765 a 13.483076,13.483076 0 0 0 -0.03564,-0.3182"
       style="fill:none;stroke:#000000"
       id="path67" />
    <path
       style="fill:none;stroke:#000000"
       d="M 4.4323,1109.81 H 4.21604"
       id="path68" />
    <path
       d="m 4.488566,1109.8583 a 0.056693,0.056693 0 0 0 -0.056263,-0.05"
       style="fill:none;stroke:#000000"
       id="path69" />
    <path
       style="fill:none;stroke:#000000"
       d="m 4.68276,1114.9 -0.01607,-0.7"
       id="path70" />
    <path
       style="fill:none;stroke:#000000"
       d="m 4.79158,1114.85 -0.01375,-0.6"
       id="path71" />
    <path
       style="fill:none;stroke:#000000"
       d="M 4.68276,1114.9 H 4.67014"
       id="path72" />
    <path
       style="fill:none;stroke:#000000"
       d="M 4.66669,1114.2 H 4.65407"
       id="path73" />
    <path
       d="m 4.682553,1114.8913 a 0.327602,0.327602 0 0 0 0.10295,-0.034"
       style="fill:none;stroke:#000000"
       id="path74" />
    <path
       d="m 4.785503,1114.8576 a 0.011339,0.011339 0 0 0 0.00608,-0.01"
       style="fill:none;stroke:#000000"
       id="path75" />
    <path
       d="m 4.771286,1114.2387 a 0.327602,0.327602 0 0 0 -0.104389,-0.029"
       style="fill:none;stroke:#000000"
       id="path76" />
    <path
       d="m 4.777829,1114.2487 a 0.011339,0.011339 0 0 0 -0.00654,-0.01"
       style="fill:none;stroke:#000000"
       id="path77" />
    <path
       style="fill:none;stroke:#000000"
       d="m -4.68276,1114.9 0.01607,-0.7"
       id="path78" />
    <path
       style="fill:none;stroke:#000000"
       d="m -4.79158,1114.85 0.01375,-0.6"
       id="path79" />
    <path
       style="fill:none;stroke:#000000"
       d="m -4.68276,1114.9 h 0.01262"
       id="path80" />
    <path
       style="fill:none;stroke:#000000"
       d="m -4.66669,1114.2 h 0.01262"
       id="path81" />
    <path
       d="m -4.785504,1114.8576 a 0.327602,0.327602 0 0 0 0.10295,0.034"
       style="fill:none;stroke:#000000"
       id="path82" />
    <path
       d="m -4.79158,1114.8473 a 0.011339,0.011339 0 0 0 0.00608,0.01"
       style="fill:none;stroke:#000000"
       id="path83" />
    <path
       d="m -4.666898,1114.2098 a 0.327602,0.327602 0 0 0 -0.104388,0.029"
       style="fill:none;stroke:#000000"
       id="path84" />
    <path
       d="m -4.771286,1114.2387 a 0.011339,0.011339 0 0 0 -0.00654,0.01"
       style="fill:none;stroke:#000000"
       id="path85" />
    <path
       d="m 0,1120.3371 h 3.515025 v 0.035"
       style="fill:none;stroke:#000000"
       id="path86" />
    <path
       d="m 0,1117.9259 a 32.053673,32.053673 0 0 0 2.209333,-0.049"
       style="fill:none;stroke:#000000"
       id="path87" />
    <path
       d="m 2.742588,1117.7381 a 0.829282,0.829282 0 0 0 0.472941,-0.6531"
       style="fill:none;stroke:#000000"
       id="path88" />
    <path
       d="m 2.209333,1117.8765 a 2.585999,2.585999 0 0 0 0.533255,-0.1384"
       style="fill:none;stroke:#000000"
       id="path89" />
    <path
       d="m 3.215529,1117.085 a 14.499641,14.499641 0 0 0 0.148751,-1.2538"
       style="fill:none;stroke:#000000"
       id="path90" />
    <path
       d="m 4.039775,1110.1267 a 84.610039,84.610039 0 0 0 -0.675495,5.7045"
       style="fill:none;stroke:#000000"
       id="path91" />
    <path
       d="m 4.134251,1109.8557 a 0.763865,0.763865 0 0 0 -0.094476,0.271"
       style="fill:none;stroke:#000000"
       id="path92" />
    <path
       d="m 4.216038,1109.8086 a 0.094488,0.094488 0 0 0 -0.081787,0.047"
       style="fill:none;stroke:#000000"
       id="path93" />
    <path
       d="m 4.616043,1119.9682 a 0.194583,0.194583 0 0 0 0.173314,0.1223"
       style="fill:none;stroke:#000000"
       id="path94" />
    <path
       d="m 3.214382,1117.0941 a 6.258596,6.258596 0 0 0 -0.697772,-0.089"
       style="fill:none;stroke:#000000"
       id="path95" />
    <path
       d="M 2.51661,1117.0049 A 51.804772,51.804772 0 0 0 0,1116.9446"
       style="fill:none;stroke:#000000"
       id="path96" />
    <path
       d="m 3.47136,1116.0336 a 8.452077,8.452077 0 0 0 -0.0038,1.1546"
       style="fill:none;stroke:#000000"
       id="path97" />
    <path
       d="m 4.008802,1111.2874 a 70.433015,70.433015 0 0 0 -0.537442,4.7462"
       style="fill:none;stroke:#000000"
       id="path98" />
    <path
       d="m 4.084984,1111.0734 a 0.580431,0.580431 0 0 0 -0.076182,0.214"
       style="fill:none;stroke:#000000"
       id="path99" />
    <path
       d="m 4.247178,1110.9814 a 0.188976,0.188976 0 0 0 -0.162194,0.092"
       style="fill:none;stroke:#000000"
       id="path100" />
    <path
       d="m 3.348016,1117.1308 a 55.767513,55.767513 0 0 0 -0.14583,3.2063"
       style="fill:none;stroke:#000000"
       id="path101" />
    <path
       style="fill:none;stroke:#000000"
       d="M 0,1119.19 H 3.94976"
       id="path102" />
    <path
       style="fill:none;stroke:#000000"
       d="m 3.94976,1119.19 0.40704,-1.96"
       id="path103" />
    <path
       d="m 3.665426,1120.1566 a 7.228143,7.228143 0 0 0 0.284338,-0.9675"
       style="fill:none;stroke:#000000"
       id="path104" />
    <path
       d="m 3.515025,1120.3371 a 0.38683,0.38683 0 0 0 0.150401,-0.1805"
       style="fill:none;stroke:#000000"
       id="path105" />
    <path
       style="fill:none;stroke:#000000"
       d="M 3.80996,1112.74 H 4.31627"
       id="path106" />
    <path
       style="fill:none;stroke:#000000"
       d="m 4.44266,1113.02 0.05102,1.99"
       id="path107" />
    <path
       d="m 4.356805,1117.2342 a 11.417659,11.417659 0 0 0 0.136875,-2.2239"
       style="fill:none;stroke:#000000"
       id="path108" />
    <path
       d="m 4.442659,1113.0243 a 0.701584,0.701584 0 0 0 -0.057057,-0.2414"
       style="fill:none;stroke:#000000"
       id="path109" />
    <path
       d="m 4.385602,1112.7829 a 0.075591,0.075591 0 0 0 -0.069332,-0.045"
       style="fill:none;stroke:#000000"
       id="path110" />
    <path
       style="fill:none;stroke:#000000"
       d="m 3.90191,1115.04 v 1.29"
       id="path111" />
    <path
       style="fill:none;stroke:#000000"
       d="m 3.93945,1116.33 v -1.29"
       id="path112" />
    <path
       style="fill:none;stroke:#000000"
       d="M 3.46174,1117.09 H 4.13371"
       id="path113" />
    <path
       style="fill:none;stroke:#000000"
       d="m 4.36027,1113.03 0.05102,1.98"
       id="path114" />
    <path
       d="m 4.335069,1116.6741 a 15.010252,15.010252 0 0 0 0.076223,-1.6617"
       style="fill:none;stroke:#000000"
       id="path115" />
    <path
       d="m 4.212143,1117.0404 a 0.969037,0.969037 0 0 0 0.122926,-0.3663"
       style="fill:none;stroke:#000000"
       id="path116" />
    <path
       d="m 4.133706,1117.0901 a 0.095223,0.095223 0 0 0 0.078437,-0.05"
       style="fill:none;stroke:#000000"
       id="path117" />
    <path
       style="fill:none;stroke:#000000"
       d="M 3.79094,1112.89 H 4.28732"
       id="path118" />
    <path
       d="m 4.36027,1113.0264 a 0.249526,0.249526 0 0 0 -0.03106,-0.1162"
       style="fill:none;stroke:#000000"
       id="path119" />
    <path
       d="m 4.32921,1112.9102 a 0.05231,0.05231 0 0 0 -0.041888,-0.021"
       style="fill:none;stroke:#000000"
       id="path120" />
    <path
       d="m 2.80673,1120.5771 a 0.114002,0.114002 0 0 0 -0.228004,0 0.114002,0.114002 0 0 0 0.228004,0 z"
       style="fill:none;stroke:#000000"
       id="path121" />
    <use
       xlink:href="#*U1"
       style="stroke-width:0.05px"
       transform="matrix(10,0,0,10,2.55334,-10104.6)"
       id="use121" />
    <path
       d="m 2.616856,1117.2839 c 0.035279,0 0.070559,0 0.102816,0.01 0.027371,0.01 0.052565,0.027 0.071264,0.051 0.016144,0.02 0.027446,0.043 0.03264,0.068 0.00454,0.022 0.00441,0.044 -6.36e-4,0.066 -0.00597,0.025 -0.018808,0.049 -0.035812,0.069 -0.014888,0.018 -0.032967,0.033 -0.053312,0.042 -0.027802,0.013 -0.059837,0.017 -0.091392,0.018 -0.044861,0 -0.088754,0 -0.132193,-0.01 -0.033547,0 -0.066822,-0.012 -0.099008,-0.026 -0.024696,-0.011 -0.048751,-0.025 -0.06256,-0.047 -0.012158,-0.019 -0.016372,-0.044 -0.014688,-0.067 0.00169,-0.024 0.00933,-0.046 0.02176,-0.066 0.019037,-0.03 0.049312,-0.052 0.0816,-0.068 0.031846,-0.016 0.06565,-0.026 0.100097,-0.031 0.026226,0 0.052825,-0.01 0.079424,-0.01 z"
       style="fill:none;stroke:#000000"
       id="path122" />
    <path
       d="m 2.749399,1119.1082 c 0.05467,5e-4 0.109341,9e-4 0.160402,-0.016 0.035477,-0.012 0.069212,-0.032 0.095123,-0.059 0.029308,-0.031 0.048605,-0.071 0.055876,-0.1137 0.00533,-0.031 0.0042,-0.063 -0.00497,-0.093 -0.010474,-0.034 -0.031434,-0.065 -0.055586,-0.09 -0.017801,-0.019 -0.037337,-0.035 -0.061239,-0.049 -0.00379,0 -0.00768,0 -0.00964,-0.01 -0.00225,0 -0.00191,-0.01 0,-0.014 0.00313,-0.01 0.0105,-0.011 0.017852,-0.015 0.025858,-0.013 0.051536,-0.022 0.073751,-0.037 0.031871,-0.021 0.056611,-0.056 0.072152,-0.093 0.016256,-0.039 0.022446,-0.082 0.013659,-0.1226 -0.00909,-0.042 -0.034217,-0.08 -0.066029,-0.1094 -0.021871,-0.02 -0.046904,-0.036 -0.075616,-0.045 -0.00403,0 -0.00814,0 -0.011213,-0.01 -0.00486,0 -0.00715,-0.014 -0.00426,-0.019 0.00222,0 0.00747,-0.01 0.012612,-0.01 0.027358,-0.01 0.051412,-0.017 0.073562,-0.03 0.028224,-0.017 0.053357,-0.043 0.069599,-0.074 0.016634,-0.032 0.023944,-0.068 0.018603,-0.102 -0.00591,-0.038 -0.027308,-0.074 -0.056032,-0.1002 -0.022564,-0.021 -0.049648,-0.036 -0.078336,-0.045 -0.038515,-0.011 -0.079922,-0.011 -0.120769,-0.01 -0.062901,0 -0.124476,0.014 -0.183804,0.031 -0.053314,0.015 -0.104814,0.036 -0.15232,0.07 -0.023727,0.017 -0.046457,0.037 -0.055488,0.063 -0.00752,0.021 -0.00554,0.046 0,0.07 0.00597,0.025 0.016068,0.048 0.030464,0.069 0.012029,0.017 0.027059,0.033 0.04896,0.039 0.00727,0 0.0153,0 0.019584,0.01 0.00616,0.01 0.00457,0.02 0,0.03 -0.00355,0.01 -0.00889,0.013 -0.014688,0.018 -0.02115,0.018 -0.048366,0.028 -0.072514,0.044 -0.030588,0.02 -0.056254,0.048 -0.07072,0.081 -0.012681,0.029 -0.016754,0.06 -0.01632,0.092 3.94e-4,0.029 0.00451,0.059 0.018657,0.083 0.018355,0.031 0.053594,0.053 0.087041,0.069 0.015246,0.01 0.030119,0.013 0.046784,0.019 0.00613,0 0.012495,0 0.015776,0.01 0.00385,0.01 0.00345,0.015 0,0.022 -0.00299,0.01 -0.00826,0.01 -0.0136,0.013 -0.021614,0.014 -0.044457,0.025 -0.066368,0.037 -0.024345,0.014 -0.047539,0.032 -0.065825,0.053 -0.020016,0.024 -0.034151,0.053 -0.041616,0.083 -0.00762,0.031 -0.00829,0.064 0,0.095 0.008,0.03 0.024339,0.058 0.046479,0.079 0.029056,0.027 0.068104,0.043 0.107168,0.054 0.037349,0.011 0.074712,0.018 0.112608,0.022 0.033142,0 0.066692,0 0.100243,0 z"
       style="fill:none;stroke:#000000"
       id="path123" />
    <path
       style="fill:none;stroke:#000000"
       d="m -4.61604,1119.97 0.81928,-2.38"
       id="path124" />
    <path
       style="fill:none;stroke:#000000"
       d="m -3.515,1121.43 -3e-5,-1.06"
       id="path125" />
    <path
       d="m -2.686455,1118.8903 a 0.172951,0.172951 0 0 0 -0.345902,0 0.172951,0.172951 0 0 0 0.345902,0 z"
       style="fill:none;stroke:#000000"
       id="path126" />
    <path
       d="m -2.728612,1118.4443 a 0.174521,0.174521 0 0 0 -0.349041,0 0.174521,0.174521 0 0 0 0.349041,0 z"
       style="fill:none;stroke:#000000"
       id="path127" />
    <path
       style="fill:none;stroke:#000000"
       d="M 0,1120.37 H -3.51503"
       id="path128" />
    <path
       d="m 0,1120.3371 h -3.515025 v 0.035"
       style="fill:none;stroke:#000000"
       id="path129" />
    <path
       d="m -4.789358,1120.0905 a 0.194583,0.194583 0 0 0 0.173314,-0.1223"
       style="fill:none;stroke:#000000"
       id="path130" />
    <path
       d="m -3.202186,1120.3371 a 55.767513,55.767513 0 0 0 -0.145831,-3.2063"
       style="fill:none;stroke:#000000"
       id="path131" />
    <path
       style="fill:none;stroke:#000000"
       d="M 0,1119.19 H -3.94977"
       id="path132" />
    <path
       style="fill:none;stroke:#000000"
       d="m -3.94977,1119.19 -0.40703,-1.96"
       id="path133" />
    <path
       d="m -3.949765,1119.1891 a 7.228143,7.228143 0 0 0 0.284338,0.9675"
       style="fill:none;stroke:#000000"
       id="path134" />
    <path
       d="m -3.665427,1120.1566 a 0.38683,0.38683 0 0 0 0.150402,0.1805"
       style="fill:none;stroke:#000000"
       id="path135" />
    <path
       d="m -2.578726,1120.5771 a 0.1140025,0.1140025 0 0 0 -0.228005,0 0.1140025,0.1140025 0 0 0 0.228005,0 z"
       style="fill:none;stroke:#000000"
       id="path136" />
    <use
       xlink:href="#*U2"
       style="stroke-width:0.05px"
       transform="matrix(10,0,0,10,-2.55334,-10104.6)"
       id="use136" />
    <path
       d="m -2.749399,1119.1082 c -0.054671,5e-4 -0.109341,9e-4 -0.160403,-0.016 -0.035477,-0.012 -0.069212,-0.032 -0.095122,-0.059 -0.029308,-0.031 -0.048605,-0.071 -0.055877,-0.1137 -0.00533,-0.031 -0.0042,-0.063 0.00497,-0.093 0.010474,-0.034 0.031434,-0.065 0.055585,-0.09 0.017802,-0.019 0.037338,-0.035 0.061239,-0.049 0.00379,0 0.00769,0 0.00964,-0.01 0.00225,0 0.00191,-0.01 0,-0.014 -0.00313,-0.01 -0.0105,-0.011 -0.017852,-0.015 -0.025858,-0.013 -0.051537,-0.022 -0.073751,-0.037 -0.031871,-0.021 -0.056612,-0.056 -0.072153,-0.093 -0.016256,-0.039 -0.022446,-0.082 -0.013658,-0.1226 0.00909,-0.042 0.034216,-0.08 0.066028,-0.1094 0.021872,-0.02 0.046905,-0.036 0.075616,-0.045 0.00403,0 0.00814,0 0.011213,-0.01 0.00486,0 0.00715,-0.014 0.00426,-0.019 -0.00222,0 -0.00747,-0.01 -0.012612,-0.01 -0.027359,-0.01 -0.051413,-0.017 -0.073563,-0.03 -0.028224,-0.017 -0.053356,-0.043 -0.069598,-0.074 -0.016635,-0.032 -0.023944,-0.068 -0.018603,-0.102 0.00591,-0.038 0.027308,-0.074 0.056032,-0.1002 0.022563,-0.021 0.049647,-0.036 0.078336,-0.045 0.038514,-0.011 0.079921,-0.011 0.120768,-0.01 0.062902,0 0.124476,0.014 0.183805,0.031 0.053314,0.015 0.104814,0.036 0.15232,0.07 0.023726,0.017 0.046456,0.037 0.055488,0.063 0.00752,0.021 0.00554,0.046 0,0.07 -0.00597,0.025 -0.016068,0.048 -0.030464,0.069 -0.01203,0.017 -0.027059,0.033 -0.04896,0.039 -0.00727,0 -0.0153,0 -0.019584,0.01 -0.00616,0.01 -0.00458,0.02 0,0.03 0.00355,0.01 0.00889,0.013 0.014688,0.018 0.02115,0.018 0.048365,0.028 0.072513,0.044 0.030589,0.02 0.056255,0.048 0.070721,0.081 0.01268,0.029 0.016754,0.06 0.01632,0.092 -3.95e-4,0.029 -0.00451,0.059 -0.018658,0.083 -0.018355,0.031 -0.053593,0.053 -0.08704,0.069 -0.015246,0.01 -0.030119,0.013 -0.046784,0.019 -0.00613,0 -0.012496,0 -0.015776,0.01 -0.00385,0.01 -0.00345,0.015 0,0.022 0.00299,0.01 0.00826,0.01 0.0136,0.013 0.021614,0.014 0.044457,0.025 0.066368,0.037 0.024344,0.014 0.047538,0.032 0.065824,0.053 0.020016,0.024 0.034151,0.053 0.041616,0.083 0.00762,0.031 0.00829,0.064 0,0.095 -0.008,0.03 -0.024338,0.058 -0.046478,0.079 -0.029056,0.027 -0.068105,0.043 -0.107168,0.054 -0.037349,0.011 -0.074712,0.018 -0.112608,0.022 -0.033143,0 -0.066693,0 -0.100243,0 z"
       style="fill:none;stroke:#000000"
       id="path137" />
    <path
       style="fill:none;stroke:#000000"
       d="M -3.25837,1121.66 -3.515,1121.43"
       id="path138" />
    <path
       d="m -2.815228,1118.0355 a 0.130261,0.130261 0 0 0 -0.260521,0 0.130261,0.130261 0 0 0 0.260521,0 z"
       style="fill:none;stroke:#000000"
       id="path139" />
    <path
       d="m -3.151966,1117.0857 a 0.755906,0.755906 0 0 0 -0.644798,0.5066"
       style="fill:none;stroke:#000000"
       id="path140" />
    <path
       d="m -2.527173,1117.4377 a 0.134279,0.134279 0 0 0 -0.268558,0 0.134279,0.134279 0 0 0 0.268558,0 z"
       style="fill:none;stroke:#000000"
       id="path141" />
    <path
       d="m -3.21553,1117.085 a 0.829282,0.829282 0 0 0 0.472941,0.6531"
       style="fill:none;stroke:#000000"
       id="path142" />
    <path
       d="m -3.364281,1115.8312 a 14.499641,14.499641 0 0 0 0.148751,1.2538"
       style="fill:none;stroke:#000000"
       id="path143" />
    <path
       d="m -2.51661,1117.0049 a 6.258596,6.258596 0 0 0 -0.697773,0.089"
       style="fill:none;stroke:#000000"
       id="path144" />
    <path
       d="m 0,1116.9446 a 51.804772,51.804772 0 0 0 -2.51661,0.06"
       style="fill:none;stroke:#000000"
       id="path145" />
    <path
       d="m -2.616856,1117.2839 c -0.03528,0 -0.070559,0 -0.102816,0.01 -0.027371,0.01 -0.052566,0.027 -0.071264,0.051 -0.016144,0.02 -0.027446,0.043 -0.032641,0.068 -0.00454,0.022 -0.00441,0.044 6.37e-4,0.066 0.00597,0.025 0.018807,0.049 0.035812,0.069 0.014888,0.018 0.032967,0.033 0.053312,0.042 0.027802,0.013 0.059836,0.017 0.091392,0.018 0.04486,0 0.088754,0 0.132192,-0.01 0.033547,0 0.066823,-0.012 0.099008,-0.026 0.024697,-0.011 0.048752,-0.025 0.06256,-0.047 0.012158,-0.019 0.016373,-0.044 0.014689,-0.067 -0.00169,-0.024 -0.00933,-0.046 -0.021761,-0.066 -0.019037,-0.03 -0.049311,-0.052 -0.0816,-0.068 -0.031845,-0.016 -0.06565,-0.026 -0.100096,-0.031 -0.026226,0 -0.052825,-0.01 -0.079424,-0.01 z"
       style="fill:none;stroke:#000000"
       id="path146" />
    <path
       d="M -2.209334,1117.8765 A 32.053673,32.053673 0 0 0 0,1117.9259"
       style="fill:none;stroke:#000000"
       id="path147" />
    <path
       d="m -2.742589,1117.7381 a 2.585999,2.585999 0 0 0 0.533255,0.1384"
       style="fill:none;stroke:#000000"
       id="path148" />
    <path
       d="m -3.467557,1117.1882 a 8.452077,8.452077 0 0 0 -0.0038,-1.1546"
       style="fill:none;stroke:#000000"
       id="path149" />
    <path
       style="fill:none;stroke:#000000"
       d="M -3.46174,1117.09 H -4.13371"
       id="path150" />
    <path
       d="m -4.335069,1116.6741 a 0.969037,0.969037 0 0 0 0.122926,0.3663"
       style="fill:none;stroke:#000000"
       id="path151" />
    <path
       d="m -4.212143,1117.0404 a 0.095223,0.095223 0 0 0 0.078437,0.05"
       style="fill:none;stroke:#000000"
       id="path152" />
    <path
       d="m -3.364281,1115.8312 a 84.610039,84.610039 0 0 0 -0.675494,-5.7045"
       style="fill:none;stroke:#000000"
       id="path153" />
    <path
       d="m -3.47136,1116.0336 a 70.433015,70.433015 0 0 0 -0.537443,-4.7462"
       style="fill:none;stroke:#000000"
       id="path154" />
    <path
       d="m -4.493681,1115.0103 a 11.417659,11.417659 0 0 0 0.136876,2.2239"
       style="fill:none;stroke:#000000"
       id="path155" />
    <path
       d="m -4.411292,1115.0124 a 15.010252,15.010252 0 0 0 0.076223,1.6617"
       style="fill:none;stroke:#000000"
       id="path156" />
    <path
       style="fill:none;stroke:#000000"
       d="m -4.44266,1113.02 -0.05102,1.99"
       id="path157" />
    <path
       style="fill:none;stroke:#000000"
       d="m -4.36027,1113.03 -0.05102,1.98"
       id="path158" />
    <path
       style="fill:none;stroke:#000000"
       d="M -3.80996,1112.74 H -4.31627"
       id="path159" />
    <path
       d="m -4.385602,1112.7829 a 0.701584,0.701584 0 0 0 -0.057057,0.2414"
       style="fill:none;stroke:#000000"
       id="path160" />
    <path
       d="m -4.316271,1112.7374 a 0.075591,0.075591 0 0 0 -0.069331,0.045"
       style="fill:none;stroke:#000000"
       id="path161" />
    <path
       style="fill:none;stroke:#000000"
       d="M -3.79094,1112.89 H -4.28732"
       id="path162" />
    <path
       d="m -4.32921,1112.9102 a 0.249526,0.249526 0 0 0 -0.031061,0.1162"
       style="fill:none;stroke:#000000"
       id="path163" />
    <path
       d="m -4.287322,1112.889 a 0.05231,0.05231 0 0 0 -0.041888,0.021"
       style="fill:none;stroke:#000000"
       id="path164" />
    <path
       style="fill:none;stroke:#000000"
       d="M -4.24718,1110.98 H -4.5801"
       id="path165" />
    <path
       d="m -4.008803,1111.2874 a 0.580431,0.580431 0 0 0 -0.076181,-0.214"
       style="fill:none;stroke:#000000"
       id="path166" />
    <path
       d="m -4.084984,1111.0734 a 0.188976,0.188976 0 0 0 -0.162195,-0.092"
       style="fill:none;stroke:#000000"
       id="path167" />
    <path
       d="m -4.039775,1110.1267 a 0.763865,0.763865 0 0 0 -0.094477,-0.271"
       style="fill:none;stroke:#000000"
       id="path168" />
    <path
       d="m -4.134252,1109.8557 a 0.094488,0.094488 0 0 0 -0.081787,-0.047"
       style="fill:none;stroke:#000000"
       id="path169" />
    <path
       style="fill:none;stroke:#000000"
       d="m -4.4323,1109.81 h 0.21626"
       id="path170" />
    <path
       d="m 0.172951,1110.2121 a 0.172951,0.172951 0 0 0 -0.345902,0 0.172951,0.172951 0 0 0 0.345902,0 z"
       style="fill:none;stroke:#000000"
       id="path171" />
    <path
       d="m 0.120803,1110.2121 a 0.120804,0.120804 0 0 0 -0.241607,0 0.120804,0.120804 0 0 0 0.241607,0 z"
       style="fill:none;stroke:#000000"
       id="path172" />
    <path
       d="m 3.089205,1117.0722 a 9.867562,9.867562 0 0 0 0.112737,-0.9718"
       style="fill:none;stroke:#000000"
       id="path173" />
    <path
       d="m 3.878288,1110.7332 a 42.522426,42.522426 0 0 0 -0.676346,5.3672"
       style="fill:none;stroke:#000000"
       id="path174" />
    <path
       d="m 3.042127,1117.0647 a 9.867562,9.867562 0 0 0 0.112738,-0.9718"
       style="fill:none;stroke:#000000"
       id="path175" />
    <path
       d="m 3.543034,1112.4162 a 42.522426,42.522426 0 0 0 -0.388169,3.6767"
       style="fill:none;stroke:#000000"
       id="path176" />
    <path
       d="m -3.201943,1116.1004 a 42.522426,42.522426 0 0 0 -0.676345,-5.3672"
       style="fill:none;stroke:#000000"
       id="path177" />
    <path
       d="m -3.154865,1116.0929 a 42.522426,42.522426 0 0 0 -0.388169,-3.6767"
       style="fill:none;stroke:#000000"
       id="path178" />
    <path
       d="m -3.201943,1116.1004 a 9.867562,9.867562 0 0 0 0.112738,0.9718"
       style="fill:none;stroke:#000000"
       id="path179" />
    <path
       d="m -3.154865,1116.0929 a 9.867562,9.867562 0 0 0 0.112737,0.9718"
       style="fill:none;stroke:#000000"
       id="path180" />
    <path
       d="m 3.878288,1110.7332 a 28.541065,28.541065 0 0 0 -7.756576,0"
       style="fill:none;stroke:#000000"
       id="path181" />
    <path
       d="m 3.997853,1110.0936 a 15.555153,15.555153 0 0 0 -0.119565,0.6396"
       style="fill:none;stroke:#000000"
       id="path182" />
    <path
       d="m 4.108286,1109.8492 a 0.50856,0.50856 0 0 0 -0.110433,0.2444"
       style="fill:none;stroke:#000000"
       id="path183" />
    <path
       d="m 4.216038,1109.8086 a 0.145235,0.145235 0 0 0 -0.107752,0.041"
       style="fill:none;stroke:#000000"
       id="path184" />
    <path
       d="m -3.997854,1110.0936 a 0.50856,0.50856 0 0 0 -0.110432,-0.2444"
       style="fill:none;stroke:#000000"
       id="path185" />
    <path
       d="m -4.108286,1109.8492 a 0.145235,0.145235 0 0 0 -0.107753,-0.041"
       style="fill:none;stroke:#000000"
       id="path186" />
    <path
       d="m -3.878288,1110.7332 a 15.555153,15.555153 0 0 0 -0.119566,-0.6396"
       style="fill:none;stroke:#000000"
       id="path187" />
    <path
       d="m 3.950645,1110.3289 a 17.923055,17.923055 0 0 0 -7.90129,0"
       style="fill:none;stroke:#000000"
       id="path188" />
    <path
       style="fill:none;stroke:#000000"
       d="M 4.66777,1110.18 H 4.40479"
       id="path189" />
    <path
       d="m 4.686431,1110.6321 a 0.228238,0.228238 0 0 0 -0.020794,-0.4556"
       style="fill:none;stroke:#000000"
       id="path190" />
    <path
       d="m 4.441219,1110.6392 a 1.717197,1.717197 0 0 0 0.245212,-0.01"
       style="fill:none;stroke:#000000"
       id="path191" />
    <path
       d="m 4.404785,1110.1765 a 0.088098,0.088098 0 0 0 -0.04797,0.015"
       style="fill:none;stroke:#000000"
       id="path192" />
    <path
       d="m 4.356815,1110.1913 a 0.199291,0.199291 0 0 0 -0.063427,0.1524"
       style="fill:none;stroke:#000000"
       id="path193" />
    <path
       d="m 4.293388,1110.3437 a 0.46248,0.46248 0 0 0 0.109174,0.2752"
       style="fill:none;stroke:#000000"
       id="path194" />
    <path
       d="m 4.402562,1110.6189 a 0.059379,0.059379 0 0 0 0.038657,0.02"
       style="fill:none;stroke:#000000"
       id="path195" />
    <path
       d="m 4.579686,1110.9632 a 13.483076,13.483076 0 0 0 -0.01719,-0.3231"
       style="fill:none;stroke:#000000"
       id="path196" />
    <path
       d="m -4.488567,1109.8583 a 13.483076,13.483076 0 0 0 -0.035639,0.3182"
       style="fill:none;stroke:#000000"
       id="path197" />
    <path
       style="fill:none;stroke:#000000"
       d="m -4.66777,1110.18 h 0.26298"
       id="path198" />
    <path
       d="m -4.665637,1110.1765 a 0.228238,0.228238 0 0 0 -0.020794,0.4556"
       style="fill:none;stroke:#000000"
       id="path199" />
    <path
       d="m -4.686431,1110.6321 a 1.717197,1.717197 0 0 0 0.245212,0.01"
       style="fill:none;stroke:#000000"
       id="path200" />
    <path
       d="m -4.356816,1110.1913 a 0.088098,0.088098 0 0 0 -0.04797,-0.015"
       style="fill:none;stroke:#000000"
       id="path201" />
    <path
       d="m -4.293388,1110.3437 a 0.199291,0.199291 0 0 0 -0.063428,-0.1524"
       style="fill:none;stroke:#000000"
       id="path202" />
    <path
       d="m -4.402562,1110.6189 a 0.46248,0.46248 0 0 0 0.109174,-0.2752"
       style="fill:none;stroke:#000000"
       id="path203" />
    <path
       d="m -4.441219,1110.6392 a 0.059379,0.059379 0 0 0 0.038657,-0.02"
       style="fill:none;stroke:#000000"
       id="path204" />
    <path
       d="m -4.562497,1110.6401 a 13.483076,13.483076 0 0 0 -0.01719,0.3231"
       style="fill:none;stroke:#000000"
       id="path205" />
    <path
       d="m 3.543034,1112.4162 a 64.850126,64.850126 0 0 0 -7.086068,0"
       style="fill:none;stroke:#000000"
       id="path206" />
    <path
       style="fill:none;stroke:#000000"
       d="m -2.96188,1113.41 0.37086,3.49"
       id="path207" />
    <path
       style="fill:none;stroke:#000000"
       d="m -2.94056,1115.01 0.27703,-0.03"
       id="path208" />
    <path
       style="fill:none;stroke:#000000"
       d="m -2.94056,1115.01 2.132542,1.94"
       id="path209" />
    <path
       style="fill:none;stroke:#000000"
       d="m -0.546376,1116.95 -2.117154,-1.97"
       id="path210" />
    <path
       d="m -3.804276,1109.8132 v -0.2139 h -0.026209 l -0.089488,-0.077 0.035224,-0.2468 h 0.021325 l 0.00724,0.2008 h 0.047527 v -0.2508 H 0"
       style="fill:none;stroke:#000000"
       id="path211" />
    <path
       d="m 3.804276,1109.8132 v -0.2139 h 0.026208 l 0.089489,-0.077 -0.035225,-0.2468 H 3.863423 l -0.00724,0.2008 H 3.808656 v -0.2508 H 0"
       style="fill:none;stroke:#000000"
       id="path212" />
    <path
       style="fill:none;stroke:#000000"
       d="m -4.8183,1121.35 0.23861,-10.39"
       id="path213" />
    <path
       style="fill:none;stroke:#000000"
       d="M -4.52858,1121.66 -4.788,1121.42"
       id="path214" />
    <path
       style="fill:none;stroke:#000000"
       d="M -4.52858,1121.66 H 0"
       id="path215" />
    <path
       d="m -4.818296,1121.3502 a 0.094488,0.094488 0 0 0 0.030295,0.072"
       style="fill:none;stroke:#000000"
       id="path216" />
    <path
       style="fill:none;stroke:#000000"
       d="m -4.85291,1121.28 h 0.03615"
       id="path217" />
    <path
       d="m -4.852913,1121.2832 a 0.037795,0.037795 0 0 0 -0.037796,0.038"
       style="fill:none;stroke:#000000"
       id="path218" />
    <path
       style="fill:none;stroke:#000000"
       d="m -4.89071,1121.44 v -0.12"
       id="path219" />
    <path
       d="m -4.890709,1121.4444 a 0.037795,0.037795 0 0 0 0.020539,0.034"
       style="fill:none;stroke:#000000"
       id="path220" />
    <path
       d="m -4.87017,1121.478 a 0.47124,0.47124 0 0 0 0.198936,0.052"
       style="fill:none;stroke:#000000"
       id="path221" />
    <path
       style="fill:none;stroke:#000000"
       d="m -2.09575,1122.09 h 4.1915"
       id="path222" />
    <path
       style="fill:none;stroke:#000000"
       d="m 2.09575,1121.66 v 0.47"
       id="path223" />
    <path
       d="m 2.095752,1122.1314 a 0.188976,0.188976 0 0 0 0.188976,0.1889"
       style="fill:none;stroke:#000000"
       id="path224" />
    <path
       style="fill:none;stroke:#000000"
       d="M 3.10495,1122.32 H 2.28473"
       id="path225" />
    <path
       d="m 3.104952,1122.3203 a 0.037795,0.037795 0 0 0 0.037795,-0.038"
       style="fill:none;stroke:#000000"
       id="path226" />
    <path
       style="fill:none;stroke:#000000"
       d="m 3.14275,1122.02 v 0.26"
       id="path227" />
    <path
       d="m 3.142747,1122.0198 a 0.037795,0.037795 0 0 0 -0.037795,-0.038"
       style="fill:none;stroke:#000000"
       id="path228" />
    <path
       style="fill:none;stroke:#000000"
       d="M 3.10495,1121.98 H 2.68429"
       id="path229" />
    <path
       d="m 2.363034,1121.6617 a 0.32126,0.32126 0 0 0 0.321258,0.3203"
       style="fill:none;stroke:#000000"
       id="path230" />
    <path
       style="fill:none;stroke:#000000"
       d="M 4.52858,1121.66 H 0"
       id="path231" />
    <path
       style="fill:none;stroke:#000000"
       d="M 4.52858,1121.66 4.788,1121.42"
       id="path232" />
    <path
       d="m 4.671234,1121.5298 a 0.47124,0.47124 0 0 0 0.198936,-0.052"
       style="fill:none;stroke:#000000"
       id="path233" />
    <path
       style="fill:none;stroke:#000000"
       d="m 4.89071,1121.44 v -0.12"
       id="path234" />
    <path
       d="m 4.87017,1121.478 a 0.037795,0.037795 0 0 0 0.020539,-0.034"
       style="fill:none;stroke:#000000"
       id="path235" />
    <path
       d="m 4.788001,1121.4217 a 0.094488,0.094488 0 0 0 0.030295,-0.072"
       style="fill:none;stroke:#000000"
       id="path236" />
    <path
       style="fill:none;stroke:#000000"
       d="M 4.8183,1121.35 4.57969,1110.96"
       id="path237" />
    <path
       d="m 4.890709,1121.321 a 0.037795,0.037795 0 0 0 -0.037796,-0.038"
       style="fill:none;stroke:#000000"
       id="path238" />
    <path
       style="fill:none;stroke:#000000"
       d="M 4.85291,1121.28 H 4.81676"
       id="path239" />
    <path
       style="fill:none;stroke:#000000"
       d="M 0,1120.37 H 3.51503"
       id="path240" />
    <use
       xlink:href="#*U3"
       style="stroke-width:0.05px"
       transform="matrix(10,0,0,10,-2.61895,-10103.2)"
       id="use240" />
    <path
       style="fill:none;stroke:#000000"
       d="M -3.14275,1122.09 H -4.0548"
       id="path241" />
    <path
       d="m -4.232497,1121.6617 v 0.28 h 0.014383 v 0.059 h 0.163313 v 0.092"
       style="fill:none;stroke:#000000"
       id="path242" />
    <path
       style="fill:none;stroke:#000000"
       d="M 3.14275,1122.09 H 4.0548"
       id="path243" />
    <path
       d="m 4.232497,1121.6617 v 0.28 H 4.218114 v 0.059 H 4.054801 v 0.092"
       style="fill:none;stroke:#000000"
       id="path244" />
    <path
       style="fill:none;stroke:#000000"
       d="m -1.70079,1101.92 2.421545,2.37"
       id="path245" />
    <path
       style="fill:none;stroke:#000000"
       d="m -2.26772,1101.92 h 0.56693"
       id="path246" />
    <path
       style="fill:none;stroke:#000000"
       d="m 0.094488,1105.83 v 3.4"
       id="path247" />
    <path
       style="fill:none;stroke:#000000"
       d="m -0.720945,1104.29 2.421735,-2.37"
       id="path248" />
    <path
       style="fill:none;stroke:#000000"
       d="m -0.720945,1104.29 h 1.4417"
       id="path249" />
    <path
       style="fill:none;stroke:#000000"
       d="m -2.26772,1101.92 -0.80183,0.8"
       id="path250" />
    <path
       style="fill:none;stroke:#000000"
       d="m 2.26772,1101.92 0.80163,0.8"
       id="path251" />
    <path
       style="fill:none;stroke:#000000"
       d="m -0.094488,1105.83 v 3.4"
       id="path252" />
    <path
       style="fill:none;stroke:#000000"
       d="m 0.094488,1105.83 1.606302,-3.91"
       id="path253" />
    <path
       style="fill:none;stroke:#000000"
       d="m -0.094488,1105.83 -1.606302,-3.91"
       id="path254" />
    <path
       style="fill:none;stroke:#000000"
       d="M -0.094488,1105.83 H 0.094488"
       id="path255" />
    <path
       style="fill:none;stroke:#000000"
       d="M -1.70079,1101.92 H 1.70079"
       id="path256" />
    <path
       style="fill:none;stroke:#000000"
       d="M 1.70079,1101.92 H 2.26772"
       id="path257" />
  </g>
</svg>
