<svg xmlns="http://www.w3.org/2000/svg" width="40mm" height="40mm" viewBox="0 0 60 60">
  <defs><clipPath id="c"><rect x="0" y="0" width="60" height="60"/></clipPath></defs>
  <rect x="0" y="0" width="60" height="60" fill="#fff" stroke="#bbb" stroke-width="0.5"/>
  <g clip-path="url(#c)" stroke="#111" stroke-width="0.5" fill="none">
    <line x1="51.213" y1="-160.919" x2="220.919" y2="8.787"/>
    <line x1="33.536" y1="-143.241" x2="203.241" y2="26.464"/>
    <line x1="15.858" y1="-125.563" x2="185.563" y2="44.142"/>
    <line x1="-1.820" y1="-107.886" x2="167.886" y2="61.820"/>
    <line x1="-19.497" y1="-90.208" x2="150.208" y2="79.497"/>
    <line x1="-37.175" y1="-72.530" x2="132.530" y2="97.175"/>
    <line x1="-54.853" y1="-54.853" x2="114.853" y2="114.853"/>
    <line x1="-72.530" y1="-37.175" x2="97.175" y2="132.530"/>
    <line x1="-90.208" y1="-19.497" x2="79.497" y2="150.208"/>
    <line x1="-107.886" y1="-1.820" x2="61.820" y2="167.886"/>
    <line x1="-125.563" y1="15.858" x2="44.142" y2="185.563"/>
    <line x1="-143.241" y1="33.536" x2="26.464" y2="203.241"/>
    <line x1="-160.919" y1="51.213" x2="8.787" y2="220.919"/>
    <line x1="-160.919" y1="8.787" x2="8.787" y2="-160.919"/>
    <line x1="-143.241" y1="26.464" x2="26.464" y2="-143.241"/>
    <line x1="-125.563" y1="44.142" x2="44.142" y2="-125.563"/>
    <line x1="-107.886" y1="61.820" x2="61.820" y2="-107.886"/>
    <line x1="-90.208" y1="79.497" x2="79.497" y2="-90.208"/>
    <line x1="-72.530" y1="97.175" x2="97.175" y2="-72.530"/>
    <line x1="-54.853" y1="114.853" x2="114.853" y2="-54.853"/>
    <line x1="-37.175" y1="132.530" x2="132.530" y2="-37.175"/>
    <line x1="-19.497" y1="150.208" x2="150.208" y2="-19.497"/>
    <line x1="-1.820" y1="167.886" x2="167.886" y2="-1.820"/>
    <line x1="15.858" y1="185.563" x2="185.563" y2="15.858"/>
    <line x1="33.536" y1="203.241" x2="203.241" y2="33.536"/>
    <line x1="51.213" y1="220.919" x2="220.919" y2="51.213"/>
    <line x1="-90.000" y1="-105.000" x2="150.000" y2="-105.000" stroke-dasharray="0.4 7.5"/>
    <line x1="-90.000" y1="-97.500" x2="150.000" y2="-97.500" stroke-dasharray="0.4 7.5"/>
    <line x1="-90.000" y1="-90.000" x2="150.000" y2="-90.000" stroke-dasharray="0.4 7.5"/>
    <line x1="-90.000" y1="-82.500" x2="150.000" y2="-82.500" stroke-dasharray="0.4 7.5"/>
    <line x1="-90.000" y1="-75.000" x2="150.000" y2="-75.000" stroke-dasharray="0.4 7.5"/>
    <line x1="-90.000" y1="-67.500" x2="150.000" y2="-67.500" stroke-dasharray="0.4 7.5"/>
    <line x1="-90.000" y1="-60.000" x2="150.000" y2="-60.000" stroke-dasharray="0.4 7.5"/>
    <line x1="-90.000" y1="-52.500" x2="150.000" y2="-52.500" stroke-dasharray="0.4 7.5"/>
    <line x1="-90.000" y1="-45.000" x2="150.000" y2="-45.000" stroke-dasharray="0.4 7.5"/>
    <line x1="-90.000" y1="-37.500" x2="150.000" y2="-37.500" stroke-dasharray="0.4 7.5"/>
    <line x1="-90.000" y1="-30.000" x2="150.000" y2="-30.000" stroke-dasharray="0.4 7.5"/>
    <line x1="-90.000" y1="-22.500" x2="150.000" y2="-22.500" stroke-dasharray="0.4 7.5"/>
    <line x1="-90.000" y1="-15.000" x2="150.000" y2="-15.000" stroke-dasharray="0.4 7.5"/>
    <line x1="-90.000" y1="-7.500" x2="150.000" y2="-7.500" stroke-dasharray="0.4 7.5"/>
    <line x1="-90.000" y1="0.000" x2="150.000" y2="0.000" stroke-dasharray="0.4 7.5"/>
    <line x1="-90.000" y1="7.500" x2="150.000" y2="7.500" stroke-dasharray="0.4 7.5"/>
    <line x1="-90.000" y1="15.000" x2="150.000" y2="15.000" stroke-dasharray="0.4 7.5"/>
    <line x1="-90.000" y1="22.500" x2="150.000" y2="22.500" stroke-dasharray="0.4 7.5"/>
    <line x1="-90.000" y1="30.000" x2="150.000" y2="30.000" stroke-dasharray="0.4 7.5"/>
    <line x1="-90.000" y1="37.500" x2="150.000" y2="37.500" stroke-dasharray="0.4 7.5"/>
    <line x1="-90.000" y1="45.000" x2="150.000" y2="45.000" stroke-dasharray="0.4 7.5"/>
    <line x1="-90.000" y1="52.500" x2="150.000" y2="52.500" stroke-dasharray="0.4 7.5"/>
    <line x1="-90.000" y1="60.000" x2="150.000" y2="60.000" stroke-dasharray="0.4 7.5"/>
    <line x1="-90.000" y1="67.500" x2="150.000" y2="67.500" stroke-dasharray="0.4 7.5"/>
    <line x1="-90.000" y1="75.000" x2="150.000" y2="75.000" stroke-dasharray="0.4 7.5"/>
    <line x1="-90.000" y1="82.500" x2="150.000" y2="82.500" stroke-dasharray="0.4 7.5"/>
    <line x1="-90.000" y1="90.000" x2="150.000" y2="90.000" stroke-dasharray="0.4 7.5"/>
    <line x1="-90.000" y1="97.500" x2="150.000" y2="97.500" stroke-dasharray="0.4 7.5"/>
    <line x1="-90.000" y1="105.000" x2="150.000" y2="105.000" stroke-dasharray="0.4 7.5"/>
    <line x1="-90.000" y1="112.500" x2="150.000" y2="112.500" stroke-dasharray="0.4 7.5"/>
    <line x1="-90.000" y1="120.000" x2="150.000" y2="120.000" stroke-dasharray="0.4 7.5"/>
    <line x1="-90.000" y1="127.500" x2="150.000" y2="127.500" stroke-dasharray="0.4 7.5"/>
    <line x1="-90.000" y1="135.000" x2="150.000" y2="135.000" stroke-dasharray="0.4 7.5"/>
    <line x1="-90.000" y1="142.500" x2="150.000" y2="142.500" stroke-dasharray="0.4 7.5"/>
    <line x1="-90.000" y1="150.000" x2="150.000" y2="150.000" stroke-dasharray="0.4 7.5"/>
    <line x1="-90.000" y1="157.500" x2="150.000" y2="157.500" stroke-dasharray="0.4 7.5"/>
    <line x1="-90.000" y1="165.000" x2="150.000" y2="165.000" stroke-dasharray="0.4 7.5"/>
  </g>
</svg>
