<?xml version="1.0" encoding="UTF-8" standalone="no"?>
<!DOCTYPE svg PUBLIC "-//W3C//DTD SVG 1.1//EN" "http://www.w3.org/Graphics/SVG/1.1/DTD/svg11-flat.dtd"
[

]>
<svg xmlns="http://www.w3.org/2000/svg"  viewBox="-0.09375 -0.09375 7.6875 7.6875"><g fill="none" stroke="black" stroke-width="0.0125" transform="translate(0,7.5) scale(1, -1)">
<g id="Output" >
<path fill="rgb(0,91,140)" stroke="rgb(0,91,140)" d="M 2.4,3.84835 l 0.59873,0 0.364864,0.363652 -0.236254,0 -0.0463167,0.125006 -0.681024,0 0,-0.101867 0.505047,0 -0.00109729,-0.0184758 -0.00270674,-0.0183093 -0.00429551,-0.018003 -0.00585145,-0.017559 -0.00736267,-0.0169809 -0.00881762,-0.0162729 -0.0102052,-0.0154406 -0.0115147,-0.0144903 -0.0127363,-0.0134293 -0.0138605,-0.0122656 -0.0148788,-0.0110081 -0.0157834,-0.00966658 -0.0165673,-0.00825115 -0.0172247,-0.00677265 -0.0177504,-0.00524239 -0.0181404,-0.00367206 -0.0183918,-0.00207367 -0.0185026,-0.000459437 -0.0184721,0.00115831 -0.0183003,0.00276721 -0.0179887,0.00435496 -0.0175396,0.00590942 -0.0169564,0.00741872 -0.0162437,0.00887132 -0.0154068,0.0102561 -0.0144522,0.0115625 -0.0133871,0.0127806 -0.0122197,0.013901 -0.0109589,0.0149151 -0.0096144,0.0158152 -0.00819638,0.0165945 -0.00671571,0.017247 -0.0929071,0 0,-0.321971 z "/>
<path fill="rgb(0,91,140)" stroke="rgb(0,91,140)" d="M 2.4,3.84835 l 0,-0.318208 0.279461,0 0.319269,0.318208 -0.59873,0 z "/>
<path fill="rgb(0,91,140)" stroke="rgb(0,91,140)" d="M 1.4,6.13611 l 0,-0.28776 0.750409,0 -0.176162,0.114114 0.425753,0.283035 0,0.568922 -0.0345383,-0.0139164 -0.25716,-0.130342 -0.245,-0.15197 -0.231026,-0.172473 -0.215341,-0.191698 -0.0169336,-0.0179118 z "/>
<path fill="rgb(0,91,140)" stroke="rgb(0,91,140)" d="M 2.4,5.68667 l -0.249591,0.16168 -0.750409,0 0,-0.362846 1,0 0,0.201166 z "/>
<path fill="rgb(0,91,140)" stroke="rgb(0,91,140)" d="M 2.4,4.23514 l 0,0.101867 -0.745297,0 -0.0509333,-0.125006 -0.203769,0 0,-0.363652 1,0 0,0.321971 -0.189591,0 -0.00671412,-0.0172489 -0.00819508,-0.0165965 -0.0096134,-0.0158173 -0.0109582,-0.0149171 -0.0122193,-0.013903 -0.013387,-0.0127825 -0.0144523,-0.0115644 -0.0154072,-0.0102578 -0.0162443,-0.00887284 -0.0169572,-0.00742005 -0.0175405,-0.00591055 -0.0179897,-0.00435586 -0.0183014,-0.00276788 -0.0184733,-0.00115874 -0.0185039,0.000459256 -0.018393,0.00207374 -0.0181416,0.00367238 -0.0177515,0.00524294 -0.0172257,0.00677342 -0.0165682,0.00825213 -0.0157841,0.00966776 -0.0148793,0.0110095 -0.0138608,0.0122671 -0.0127364,0.0134309 -0.0115146,0.014492 -0.0102047,0.0154424 -0.0088169,0.0162747 -0.00736167,0.0169826 -0.00585016,0.0175607 -0.00429394,0.0180046 -0.0027049,0.0183109 -0.00109518,0.0184771 0.601731,0 z "/>
<path fill="rgb(0,91,140)" stroke="rgb(0,91,140)" d="M 1.4,2.98308 l 0.109041,0.265893 -0.0656021,0.210965 -0.000138984,0.0056666 0.000349577,0.00565752 0.000835541,0.00560639 0.0013153,0.00551359 0.00178527,0.00537982 0.00224199,0.00520607 0.00268204,0.00499363 0.00310216,0.00474408 0.00349922,0.00445928 0.00387028,0.00414133 0.00421258,0.00379261 0.00452357,0.0034157 0.00480094,0.00301341 0.00504264,0.00258872 0.00524686,0.0021448 0.00541209,0.00168494 0.0055371,0.00121255 0.00562095,0.000731153 0.00566304,0.000244323 0.890959,0 0,0.318208 -1,0 0,-0.865263 z "/>
<path fill="rgb(0,91,140)" stroke="rgb(0,91,140)" d="M 1.14274,5.84835 l 0.257262,0 0,0.28776 -0.181128,-0.191592 -0.0761338,-0.096168 z "/>
<path fill="rgb(0,91,140)" stroke="rgb(0,91,140)" d="M 1.21477,4.84835 l 0,0.0119727 0.180613,0.532548 0,0.0926334 0.00461805,0 0,0.362846 -0.257262,0 -0.109463,-0.138267 -0.163953,-0.250051 -0.141004,-0.263674 -0.116931,-0.275196 -0.0235246,-0.0728119 0.626907,0 z "/>
<path fill="rgb(0,91,140)" stroke="rgb(0,91,140)" d="M 1.34475,2.84835 l 0.0552545,0.134737 0,0.865263 -0.995607,0 -0.00439337,-0.098346 0.0124489,-0.288536 0.0372542,-0.286391 0.0617827,-0.282118 0.0138886,-0.044609 0.819371,0 z "/>
<path fill="rgb(0,91,140)" stroke="rgb(0,91,140)" d="M 0.992064,1.84835 l 0.320143,0.319079 0,0.327015 -0.070294,0.103151 0.0901664,0.219868 0.0126666,0.0308872 -0.819371,0 0.0719633,-0.231139 0.109283,-0.267329 0.131902,-0.256923 0.153541,-0.244608 z "/>
<path fill="rgb(0,91,140)" stroke="rgb(0,91,140)" d="M 2.78927,5.55496 l 0.620546,0.407504 -0.620546,0.402906 -0.620546,-0.402906 0.620546,-0.407504 z "/>
<path fill="rgb(0,91,140)" stroke="rgb(0,91,140)" d="M 1.76122,5.35582 l -0.277863,0 -0.166706,-0.500138 0.444569,0 0,0.500138 z "/>
<path fill="rgb(0,91,140)" stroke="rgb(0,91,140)" d="M 2.51143,5.35582 l -0.639069,0 0,-0.500138 0.639069,0 0,0.500138 z "/>
<path fill="rgb(0,91,140)" stroke="rgb(0,91,140)" d="M 3.25237,5.35582 l -0.639069,0 0,-0.500138 0.639069,0 0,0.500138 z "/>
<path fill="rgb(0,91,140)" stroke="rgb(0,91,140)" d="M 3.35425,5.35582 l 0,-0.500138 0.639069,0 0,0.500138 -0.639069,0 z "/>
<path fill="rgb(0,91,140)" stroke="rgb(0,91,140)" d="M 4.81761,2.81746 l 0,-0.229308 9.27532e-05,-0.00204335 0.000270289,-0.00202751 0.000445773,-0.00199629 0.000617872,-0.0019499 0.000785279,-0.00188871 0.000946723,-0.00181317 0.00110098,-0.00172387 0.00124687,-0.00162147 0.0013833,-0.00150677 0.00150922,-0.00138062 0.00162369,-0.00124399 0.00172582,-0.00109791 0.00181485,-0.000943499 0.0018901,-0.00078192 0.00195099,-0.000614405 0.00199708,-0.000442224 0.00202799,-0.000266685 0.00204351,-8.91204e-05 0.617629,0 0.00202984,0.000455175 0.00198254,0.000630044 0.00192021,0.000800136 0.00184332,0.00096416 0.00175244,0.00112087 0.00164828,0.00126908 0.00153162,0.00140767 0.00140335,0.00153559 0.00126443,0.00165185 0.00111593,0.0017556 0.000958961,0.00184603 0.000794721,0.00192246 0.000624454,0.00198431 0.000449452,0.00203111 0.000271042,0.00206251 9.05763e-05,0.00207827 0,0.229224 0,0.520564 -0.000543838,0.00242523 -0.00075277,0.00236872 -0.000955994,0.00229425 -0.00115197,0.00220237 -0.00133921,0.0020938 -0.00151629,0.00196935 -0.00168187,0.00182997 -0.0018347,0.00167671 -0.00197362,0.00151073 -0.00209757,0.0013333 -0.00220561,0.00114576 -0.00229693,0.000949524 -0.00237083,0.000746091 -0.00242675,0.000537001 -0.00246427,0.000323838 -0.0024831,0.00010822 -0.613195,0 -0.00186719,-0.0002556 -0.00183777,-0.000417545 -0.00179433,-0.000576306 -0.0017372,-0.00073067 -0.00166682,-0.000879462 -0.00158373,-0.00102154 -0.00148855,-0.00115583 -0.00138202,-0.00128131 -0.00126495,-0.00139701 -0.00113823,-0.00150205 -0.00100283,-0.00159564 -0.000859782,-0.00167706 -0.000710173,-0.00174568 -0.000555146,-0.00180099 -0.000395885,-0.00184256 -0.000233605,-0.00187007 -6.95422e-05,-0.00188332 9.50508e-05,-0.00188221 0,-0.520564 z "/>
<path fill="rgb(0,91,140)" stroke="rgb(0,91,140)" d="M 5.96886,2.81746 l -0.0791215,0.527623 -0.000668197,0.00186432 -0.000823335,0.0018012 -0.000972583,0.00172519 -0.00111488,0.00163684 -0.00124919,0.00153678 -0.00137458,0.00142574 -0.00149013,0.00130449 -0.00159503,0.00117392 -0.00168851,0.00103495 -0.00176992,0.000888576 -0.00183867,0.000735848 -0.00189427,0.000577856 -0.00193633,0.000415732 -0.00196453,0.000250635 -0.00197868,8.37446e-05 -0.262618,0 -0.00182642,-0.000292467 -0.00179391,-0.000450833 -0.00174769,-0.000605755 -0.00168812,-0.000756049 -0.00161565,-0.000900568 -0.00153085,-0.00103821 -0.00143434,-0.00116791 -0.00132688,-0.0012887 -0.00120928,-0.00139964 -0.00108245,-0.00149989 -0.000947345,-0.00158868 -0.000805003,-0.00166533 -0.000656512,-0.00172926 -0.000503005,-0.00177999 -0.000345655,-0.00181711 -0.000185666,-0.00184035 -2.42573e-05,-0.00184953 0.000137336,-0.00184459 0,-0.520564 0,-0.229363 9.49267e-05,-0.00203928 0.000271967,-0.00202329 0.000446945,-0.00199196 0.000618535,-0.00194553 0.000785435,-0.00188435 0.000946379,-0.00180888 0.00110015,-0.00171969 0.00124558,-0.00161747 0.00138156,-0.00150298 0.00150707,-0.0013771 0.00162115,-0.00124078 0.00172295,-0.00109505 0.00181167,-0.000941013 0.00188667,-0.000779845 0.00194735,-0.000612764 0.00199328,-0.000441038 0.00202409,-0.000265967 0.00203955,-8.88804e-05 0.376134,0 0.00177711,0.000336778 0.00174085,0.000490898 0.00169125,0.000641257 0.00162869,0.000786702 0.00155365,0.00092612 0.00146671,0.00105844 0.00136853,0.00118265 0.00125986,0.0012978 0.00114154,0.001403 0.00101447,0.00149746 0.000879629,0.00158044 0.000738047,0.00165131 0.000590811,0.00170952 0.000439047,0.00175464 0.000283919,0.00178632 0.000126615,0.0018043 -3.16588e-05,0.00180846 -0.00018969,0.00179876 -0.0343741,0.229224 z "/>
<path fill="rgb(0,91,140)" stroke="rgb(0,91,140)" d="M 3.94601,3.09824 l 0,-0.28078 0,-0.229321 9.27575e-05,-0.0020434 0.000270302,-0.00202756 0.000445794,-0.00199633 0.000617901,-0.00194994 0.000785315,-0.00188874 0.000946766,-0.0018132 0.00110103,-0.00172389 0.00124693,-0.00162149 0.00138336,-0.00150678 0.00150929,-0.00138062 0.00162375,-0.00124398 0.00172589,-0.0010979 0.00181492,-0.000943474 0.00189016,-0.000781886 0.00195106,-0.000614361 0.00199714,-0.00044217 0.00202805,-0.000266622 0.00204356,-8.9049e-05 0.715949,2.64771e-05 0.0020297,0.000455296 0.00198239,0.000630144 0.00192006,0.000800213 0.00184316,0.000964215 0.00175229,0.00112091 0.00164814,0.0012691 0.00153148,0.00140767 0.00140322,0.00153556 0.00126431,0.00165181 0.00111582,0.00175554 0.000958863,0.00184595 0.000794639,0.00192237 0.000624389,0.00198421 0.000449405,0.00203101 0.000271013,0.0020624 9.05667e-05,0.00207816 0,0.229211 0,0.520577 -0.000543856,0.00242529 -0.000752799,0.00236878 -0.000956033,0.0022943 -0.00115202,0.00220242 -0.00133926,0.00209384 -0.00151635,0.00196939 -0.00168194,0.00182999 -0.00183478,0.00167672 -0.0019737,0.00151073 -0.00209765,0.00133329 -0.0022057,0.00114573 -0.00229702,0.000949488 -0.00237091,0.000746043 -0.00242683,0.000536939 -0.00246434,0.000323764 -0.00248317,0.000108134 -0.466834,-1.72644e-05 -0.264172,-0.263295 z "/>
<path fill="rgb(0,91,140)" stroke="rgb(0,91,140)" d="M 2.5103,3.36154 l -0.281103,-1.03957e-05 -0.00186709,-0.000255722 -0.00183766,-0.00041765 -0.00179421,-0.000576393 -0.00173707,-0.00073074 -0.00166669,-0.000879513 -0.0015836,-0.00102158 -0.00148843,-0.00115585 -0.0013819,-0.00128131 -0.00126484,-0.00139699 -0.00113813,-0.00150202 -0.00100274,-0.0015956 -0.000859697,-0.001677 -0.0007101,-0.00174561 -0.000555087,-0.00180091 -0.00039584,-0.00184248 -0.000233575,-0.00186999 -6.95273e-05,-0.00188324 9.50502e-05,-0.00188212 0,-0.27607 0.300594,0.299596 z "/>
<path fill="rgb(0,91,140)" stroke="rgb(0,91,140)" d="M 3.41071,2.56472 l 0.40772,1.50782e-05 0.0020297,0.000455296 0.00198239,0.000630144 0.00192006,0.000800213 0.00184316,0.000964215 0.00175229,0.00112091 0.00164814,0.0012691 0.00153148,0.00140767 0.00140322,0.00153556 0.00126431,0.00165181 0.00111582,0.00175554 0.000958863,0.00184595 0.000794639,0.00192237 0.000624389,0.00198421 0.000449405,0.00203101 0.000271013,0.0020624 9.05667e-05,0.00207816 0,0.229211 0,0.173239 -0.4274,-0.42598 z "/>
<path fill="rgb(0,91,140)" stroke="rgb(0,91,140)" d="M 1.64031,2.49444 l 0.42174,0.420339 0,0.352993 -9.03085e-05,0.00204135 -0.000267814,0.00202572 -0.000443282,0.00199469 -0.000615379,0.00194848 -0.000782796,0.00188746 -0.000944261,0.00181208 -0.00109854,0.00172293 -0.00124447,0.00162067 -0.00138094,0.00150608 -0.0015069,0.00138004 -0.0016214,0.00124351 -0.00172358,0.00109752 -0.00181264,0.000943184 -0.00188792,0.000781675 -0.00194885,0.000614222 -0.00199495,0.000442097 -0.00202588,0.00026661 -0.0020414,8.90959e-05 -0.366625,0 -0.00209583,-0.000142563 -0.0020745,-0.000330606 -0.00203632,-0.000515965 -0.00198162,-0.000697136 -0.00191084,-0.00087265 -0.00182455,-0.00104108 -0.00172345,-0.00120106 -0.00160836,-0.0013513 -0.00148022,-0.00149056 -0.00134007,-0.00161773 -0.00118904,-0.00173177 -0.00102836,-0.00183175 -0.000859329,-0.00191687 -0.000683327,-0.00198643 -0.000501779,-0.00203987 -0.182632,-0.454962 -0.0845101,-0.210527 0.0656161,-0.112493 0.192181,0 z "/>
<path fill="rgb(0,91,140)" stroke="rgb(0,91,140)" d="M 4.83918,3.98844 l 0,-0.458303 1,0 0,0.68186 -0.039809,0 -0.0509521,0.125006 -0.559514,0 -0.102206,-0.101867 0.504303,0 -0.00109729,-0.0184758 -0.00270674,-0.0183093 -0.00429551,-0.018003 -0.00585145,-0.017559 -0.00736267,-0.0169809 -0.00881762,-0.0162729 -0.0102052,-0.0154406 -0.0115147,-0.0144903 -0.0127363,-0.0134293 -0.0138605,-0.0122656 -0.0148788,-0.0110081 -0.0157834,-0.00966658 -0.0165673,-0.00825115 -0.0172247,-0.00677265 -0.0177504,-0.00524239 -0.0181404,-0.00367206 -0.0183918,-0.00207367 -0.0185026,-0.000459437 -0.0184721,0.00115831 -0.0183003,0.00276721 -0.0179887,0.00435496 -0.0175396,0.00590942 -0.0169564,0.00741872 -0.0162437,0.00887132 -0.0154068,0.0102561 -0.0144522,0.0115625 -0.0133871,0.0127806 -0.0122197,0.013901 -0.0109589,0.0149151 -0.0096144,0.0158152 -0.00819638,0.0165945 -0.00671571,0.017247 -0.157201,0 -0.182482,-0.181876 z "/>
<path fill="rgb(0,91,140)" stroke="rgb(0,91,140)" d="M 5.96114,5.10667 l -0.251824,-0.250987 0.340145,0 -0.0883213,0.250987 z "/>
<path fill="rgb(0,91,140)" stroke="rgb(0,91,140)" d="M 4.09519,5.35582 l 0,-0.414661 0.416044,0.414661 -0.416044,0 z "/>
<path fill="rgb(0,91,140)" stroke="rgb(0,91,140)" d="M 6.83918,4.4 l 0.19446,0 -0.0365399,0.173923 -0.0793025,0.265832 -0.0786173,0.198724 0,-0.638479 z "/>
<path fill="rgb(0,91,140)" stroke="rgb(0,91,140)" d="M 7.07961,3.4 l 0.00763957,0.0580283 0.0127478,0.291972 -0.0114859,0.277171 -0.034379,0.27527 -0.0204964,0.0975588 -0.19446,0 0,-1 0.240434,0 z "/>
<path fill="rgb(0,91,140)" stroke="rgb(0,91,140)" d="M 6.83918,3.4 l 0,-0.937702 0.0587913,0.141935 0.0878812,0.278724 0.0632545,0.285322 0.0305067,0.231721 -0.240434,0 z "/>
<path fill="rgb(0,91,140)" stroke="rgb(0,91,140)" d="M 6.6651,5.4 l -0.157169,0.251654 -0.252493,-0.251654 0.409661,0 z "/>
<path fill="rgb(0,91,140)" stroke="rgb(0,91,140)" d="M 6.6651,5.4 l -0.409661,0 -0.216706,-0.215986 0.112587,-0.323695 0,-0.460319 0.687855,0 0,0.638479 -0.0332138,0.0839557 -0.136996,0.271378 -0.00386433,0.00618747 z "/>
<path fill="rgb(0,91,140)" stroke="rgb(0,91,140)" d="M 5.83918,4.212 l 0,-0.68186 0.229684,0 0.00643264,-0.00171443 0.0062611,-0.00226202 0.00604304,-0.00279281 0.00578008,-0.00330285 0.00547418,-0.00378834 0.0051276,-0.00424569 0.00474292,-0.0046715 0.004323,-0.00506259 0.00387096,-0.00541607 0.00339016,-0.00572931 0.00288418,-0.00599998 0.00235676,-0.00622606 0.00181183,-0.00640589 0.00125344,-0.00653812 0.000685733,-0.00662178 0.000112934,-0.00665623 -0.000460705,-0.00664123 -0.00103092,-0.00657688 -0.00159347,-0.00646367 -0.00214419,-0.00630243 -0.00267898,-0.00609436 -0.00319385,-0.00584102 -0.00893258,-0.0147844 0.7298,0 0,1 -0.687855,0 0,-0.188002 -0.312145,0 z "/>
<path fill="rgb(0,91,140)" stroke="rgb(0,91,140)" d="M 6.81337,2.4 l 0.0258046,0.0622977 0,0.937702 -0.7298,0 -0.0686112,-0.113559 0.0721061,-0.468982 0.0309193,-0.201101 0,-0.216358 0.669581,0 z "/>
<path fill="rgb(0,91,140)" stroke="rgb(0,91,140)" d="M 6.13604,1.4 l 0.180207,0.196662 0.17791,0.231857 0.157026,0.246481 0.134946,0.259229 0.0272433,0.0657712 -0.669581,0 0,-0.350728 0.0750694,-0.0468905 0,-0.117115 -0.379684,-0.0615836 0,-0.423683 0.296863,0 z "/>
<path fill="rgb(0,91,140)" stroke="rgb(0,91,140)" d="M 5.83918,1.4 l 0,-0.26548 0.0641595,0.0492313 0.215469,0.197441 0.0172341,0.0188077 -0.296863,0 z "/>
<path fill="rgb(0,91,140)" stroke="rgb(0,91,140)" d="M 0.404393,3.84835 l 0.995607,0 0,0.363652 -0.185231,0 0,0.636348 -0.626907,0 -0.0684022,-0.211715 -0.0661902,-0.29159 -0.0399262,-0.296331 -0.0089508,-0.200364 z "/>
<path fill="rgb(0,91,140)" stroke="rgb(0,91,140)" d="M 4.86552,1.4 l -0.0241386,0.00317791 -0.00219814,0.000487316 0,-0.00366523 0.0263368,0 z M 4.83918,2.18974 l 0,-0.099373 0.00219814,0.000487316 0.0301983,0.00397569 0.0304299,0.0013286 0.0304299,-0.0013286 0.0301983,-0.00397569 0.0297369,-0.00659252 0.0290492,-0.00915917 0.0281404,-0.0116561 0.0270174,-0.0140644 0.0256888,-0.0163656 0.0241647,-0.0185422 0.0224567,-0.0205777 0.0205777,-0.0224567 0.0185422,-0.0241647 0.0163656,-0.0256888 0.0140644,-0.0270174 0.0116561,-0.0281404 0.00915917,-0.0290492 0.00659252,-0.0297369 0.00397569,-0.0301983 0.0013286,-0.0304299 -0.0013286,-0.0304299 -0.00397569,-0.0301983 -0.00659252,-0.0297369 -0.00915917,-0.0290492 -0.0116561,-0.0281404 -0.0140644,-0.0270174 -0.0163656,-0.0256888 -0.0185422,-0.0241647 -0.0205777,-0.0224567 -0.0224567,-0.0205777 -0.0241647,-0.0185422 -0.0256888,-0.0163656 -0.0270174,-0.0140644 -0.0281404,-0.0116561 -0.0290492,-0.00915917 -0.0297369,-0.00659252 -0.0241386,-0.00317791 0.900684,0 0,0.423683 -0.487261,-0.0790323 -0.00171086,0.0392123 -0.00512199,0.0389139 -0.00849414,0.0383194 -0.0118016,0.0374333 -0.0150193,0.0362622 -0.0181227,0.0348152 -0.0210881,0.0331032 -0.0238931,0.0311392 -0.0265162,0.0289383 -0.0289374,0.0265171 -0.0311385,0.023894 -0.0331025,0.0210892 -0.0348146,0.0181238 -0.0362618,0.0150204 -0.0374329,0.0118028 -0.0383192,0.00849533 -0.0389138,0.0051232 -0.0392122,0.00171208 -0.0392122,-0.00171208 -0.0236255,-0.00311042 z "/>
<path fill="rgb(0,91,140)" stroke="rgb(0,91,140)" d="M 4.93849,1.4 l -0.00605969,-0.000797774 -0.0304299,-0.0013286 -0.0304299,0.0013286 -0.00605969,0.000797774 -0.0263368,0 0,-0.815813 0.0565885,0.0178423 0.270004,0.111839 0.259229,0.134946 0.246481,0.157026 0.167698,0.128679 0,0.26548 -0.900684,0 z "/>
<path fill="rgb(0,91,140)" stroke="rgb(0,91,140)" d="M 4.83918,3.53014 l 0,0.458303 -0.459831,-0.458303 0.459831,0 z "/>
<path fill="rgb(0,91,140)" stroke="rgb(0,91,140)" d="M 4.83918,1.40367 l -0.0275388,0.0061052 -0.0290492,0.00915917 -0.0281404,0.0116561 -0.0270174,0.0140644 -0.0256888,0.0163656 -0.0241647,0.0185422 -0.0224567,0.0205777 -0.0205777,0.0224567 -0.0185422,0.0241647 -0.0163656,0.0256888 -0.0140644,0.0270174 -0.0116561,0.0281404 -0.00915917,0.0290492 -0.00659252,0.0297369 -0.00397569,0.0301983 -0.0013286,0.0304299 0.0013286,0.0304299 0.00397569,0.0301983 0.00659252,0.0297369 0.00915917,0.0290492 0.0116561,0.0281404 0.0140644,0.0270174 0.0163656,0.0256888 0.0185422,0.0241647 0.0205777,0.0224567 0.0224567,0.0205777 0.0241647,0.0185422 0.0256888,0.0163656 0.0270174,0.0140644 0.0281404,0.0116561 0.0290492,0.00915917 0.0275388,0.0061052 0,0.099373 -0.0152883,-0.00201278 -0.0383192,-0.00849533 -0.0374329,-0.0118028 -0.0362618,-0.0150204 -0.0348146,-0.0181238 -0.0331025,-0.0210892 -0.0311385,-0.023894 -0.0289374,-0.0265171 -0.0265162,-0.0289383 -0.0238931,-0.0311392 -0.0210881,-0.0331032 -0.0181227,-0.0348152 -0.0150193,-0.0362622 -0.0118016,-0.0374333 -0.00849414,-0.0383194 -0.00512199,-0.0389139 -0.00171086,-0.0392123 -0.612937,0 0,-0.344651 1,0 0,0.00366523 z "/>
<path fill="rgb(0,91,140)" stroke="rgb(0,91,140)" d="M 3.83918,0.403894 l 0.202793,0.00885412 0.28975,0.0381463 0.285322,0.0632545 0.222135,0.0700389 0,0.815813 -1,0 0,-0.996106 z "/>
<path fill="rgb(0,91,140)" stroke="rgb(0,91,140)" d="M 2.83918,1.4 l 1,0 0,0.344651 -0.994525,0 -0.00182959,0.0428555 -0.00364569,0.0261458 0,-0.413652 z "/>
<path fill="rgb(0,91,140)" stroke="rgb(0,91,140)" d="M 3.75,0.4 l 0.089179,0.00389364 0,0.996106 -1,0 0,-0.871894 0.0491583,-0.0153948 0.283598,-0.0624601 0.287942,-0.0376648 0.290122,-0.0125865 z "/>
<path fill="rgb(0,91,140)" stroke="rgb(0,91,140)" d="M 2.43057,1.4 l 0.408609,0 0,0.413652 -0.00227808,0.0163377 -0.00996354,0.0417214 -0.0139118,0.0405759 -0.0177322,0.0390578 -0.075548,-0.075297 0.0107406,-0.0312332 0.00774128,-0.0321084 0.00467266,-0.0326962 0.00156221,-0.0329914 -0.00137435,-0.0309484 -0.00411222,-0.0307047 -0.00681772,-0.0302194 -0.00946955,-0.0294961 -0.0120468,-0.0285406 -0.0145293,-0.0273604 -0.0168973,-0.0259648 -0.0191323,-0.0243648 -0.0212167,-0.022573 -0.0231341,-0.0206035 -0.0248694,-0.0184718 -0.0264088,-0.0161946 -0.0277404,-0.01379 -0.0288535,-0.0112768 -0.0297395,-0.00867478 -0.0303914,-0.0060045 -0.0171586,-0.00183091 z M 2.35792,1.4 l -0.00286861,0.000204624 -0.0305834,0.00493454 -0.0300256,0.00762604 -0.0292314,0.0102575 -0.0230995,-0.0230227 0.115808,0 z "/>
<path fill="rgb(0,91,140)" stroke="rgb(0,91,140)" d="M 2.83918,0.528106 l 0,0.871894 -0.408609,0 -0.0136454,-0.00145604 -0.0309741,-0.000543522 -0.0280318,0.00199956 -0.115808,0 -0.402931,-0.401593 0.245477,-0.155146 0.257991,-0.133304 0.268566,-0.11046 0.227965,-0.0713913 z "/>
<path fill="rgb(0,91,140)" stroke="rgb(0,91,140)" d="M 5.4,6.66458 l 0,-0.422946 0.260821,0.259955 -0.243663,0.154106 -0.0171582,0.008886 z "/>
<path fill="rgb(0,91,140)" stroke="rgb(0,91,140)" d="M 5.01576,6.84835 l -0.121074,0.0500181 -0.274941,0.0867626 -0.219744,0.0490445 0,-0.185825 0.615759,0 z "/>
<path fill="rgb(0,91,140)" stroke="rgb(0,91,140)" d="M 5.0054,5.84835 l 0.394603,0.393292 0,0.422946 -0.238853,0.123698 -0.145389,0.0600631 -0.615759,0 0,-1 0.605397,0 z "/>
<path fill="rgb(0,91,140)" stroke="rgb(0,91,140)" d="M 4.4,5.84835 l 0,-0.360576 0.243983,0.000362627 0.361414,0.360213 -0.605397,0 z "/>
<path fill="rgb(0,91,140)" stroke="rgb(0,91,140)" d="M 3.4,7.07922 l 0,-0.230875 1,0 0,0.185825 -0.0616382,0.013757 -0.28574,0.0383752 -0.287982,0.0136646 -0.28809,-0.0111471 -0.07655,-0.00960037 z "/>
<path fill="rgb(0,91,140)" stroke="rgb(0,91,140)" d="M 3.4,6.09829 l 0.20432,-0.135826 -0.175058,-0.114114 0.970738,0 0,1 -1,0 0,-0.75006 z "/>
<path fill="rgb(0,91,140)" stroke="rgb(0,91,140)" d="M 3.42926,5.84835 l -0.0292619,-0.0190749 0,-0.342987 1,0.00148628 0,0.360576 -0.970738,0 z "/>
<path fill="rgb(0,91,140)" stroke="rgb(0,91,140)" d="M 2.48421,6.84835 l 0.915793,0 0,0.230875 -0.209515,-0.0262759 -0.281921,-0.0603397 -0.275688,-0.0843563 -0.148669,-0.0599026 z "/>
<path fill="rgb(0,91,140)" stroke="rgb(0,91,140)" d="M 2.4,6.81442 l 0,-0.568922 0.389274,0.258784 0.610726,-0.405993 0,0.75006 -0.915793,0 -0.0842068,-0.0339291 z "/>
<path fill="rgb(0,91,140)" stroke="rgb(0,91,140)" d="M 3.4,5.82927 l -0.527364,-0.343771 0.527364,0.000783811 0,0.342987 z M 2.4,5.68667 l 0,-0.201166 0.310547,0 -0.310547,0.201166 z "/>
<path fill="rgb(0,91,140)" stroke="rgb(0,91,140)" d="M 1.06776,6.07553 l -0.151112,0.131016 -0.207757,-0.262428 -0.18353,-0.279907 -0.15784,-0.295157 -0.130893,-0.308056 -0.102903,-0.3185 -0.0740935,-0.326407 -0.0446935,-0.331713 -0.0149375,-0.334377 0.0142699,-0.326834 0.042701,-0.324347 0.0708072,-0.319391 0.0983745,-0.312004 0.125193,-0.302243 0.151059,-0.290182 0.175775,-0.275912 0.199154,-0.259542 0.221016,-0.241197 0.241197,-0.221016 0.259542,-0.199154 0.275912,-0.175775 0.290182,-0.151059 0.302243,-0.125193 0.312004,-0.0983745 0.319391,-0.0708072 0.324347,-0.042701 0.326834,-0.0142699 0,0.2 -0.309403,0.0135088 -0.307048,0.0404237 -0.302357,0.0670308 -0.295364,0.0931279 -0.286123,0.118516 -0.274705,0.143002 -0.261196,0.1664 -0.2457,0.188532 -0.228333,0.209229 -0.209229,0.228333 -0.188532,0.2457 -0.1664,0.261196 -0.143002,0.274705 -0.118516,0.286123 -0.0931279,0.295364 -0.0670308,0.302357 -0.0404237,0.307048 -0.0135088,0.309403 0.0141408,0.316544 0.0423099,0.314022 0.0701418,0.308999 0.097415,0.301513 0.123912,0.291626 0.149422,0.279416 0.173742,0.264979 0.196677,0.248431 z "/>
<path fill="rgb(0,91,140)" stroke="rgb(0,91,140)" d="M 7.5,3.75 l -0.0128574,0.310266 -0.0384839,0.308138 -0.0638466,0.303898 -0.0887715,0.297573 -0.189122,-0.06506 0.084037,-0.281703 0.0604415,-0.28769 0.0364315,-0.291704 0.0121716,-0.293718 -0.0135088,-0.309403 -0.0404237,-0.307048 -0.0670308,-0.302357 -0.0931279,-0.295364 -0.118516,-0.286123 -0.143002,-0.274705 -0.1664,-0.261196 -0.188532,-0.2457 -0.209229,-0.228333 -0.228333,-0.209229 -0.2457,-0.188532 -0.261196,-0.1664 -0.274705,-0.143002 -0.286123,-0.118516 -0.295364,-0.0931279 -0.302357,-0.0670308 -0.307048,-0.0404237 -0.309403,-0.0135088 0,-0.2 0.326834,0.0142699 0.324347,0.042701 0.319391,0.0708072 0.312004,0.0983745 0.302243,0.125193 0.290182,0.151059 0.275912,0.175775 0.259542,0.199154 0.241197,0.221016 0.221016,0.241197 0.199154,0.259542 0.175775,0.275912 0.151059,0.290182 0.125193,0.302243 0.0983745,0.312004 0.0708072,0.319391 0.042701,0.324347 0.0142699,0.326834 z "/>
<path fill="rgb(0,91,140)" stroke="rgb(0,91,140)" d="M 1.06776,6.07553 l 0.213058,0.225086 0.231878,0.205645 0.248931,0.184636 0.264087,0.162221 0.27723,0.138568 0.288259,0.11386 0.297092,0.0882837 0.30366,0.0620345 0.307913,0.0353125 0.30982,0.00832127 0.309365,-0.0187333 0.306552,-0.0456452 0.301402,-0.0722091 0.293955,-0.0982226 0.284268,-0.123487 0.272414,-0.147811 0.258483,-0.171008 0.242583,-0.192902 0.224833,-0.213325 0.20537,-0.232122 0.184341,-0.24915 0.161907,-0.264279 0.138239,-0.277394 0.113518,-0.288394 0.189122,0.06506 -0.119913,0.304642 -0.146028,0.293022 -0.171029,0.279168 -0.194726,0.263187 -0.21694,0.245199 -0.2375,0.225343 -0.256249,0.203769 -0.273046,0.180642 -0.287761,0.156138 -0.300283,0.130445 -0.310516,0.103756 -0.318383,0.0762772 -0.323822,0.0482167 -0.326794,0.0197887 -0.327274,-0.00879008 -0.32526,-0.0373019 -0.320767,-0.0655294 -0.313829,-0.0932574 -0.304499,-0.120275 -0.292848,-0.146375 -0.278965,-0.17136 -0.262956,-0.195039 -0.244942,-0.217231 -0.225061,-0.237767 0.151112,-0.131016 z "/>
<path fill="rgb(241,240,234)" stroke="rgb(241,240,234)" d="M 2.90505,4.23514 l -1.10678,0 0.00109518,-0.0184771 0.0027049,-0.0183109 0.00429394,-0.0180046 0.00585016,-0.0175607 0.00736167,-0.0169826 0.0088169,-0.0162747 0.0102047,-0.0154424 0.0115146,-0.014492 0.0127364,-0.0134309 0.0138608,-0.0122671 0.0148793,-0.0110095 0.0157841,-0.00966776 0.0165682,-0.00825213 0.0172257,-0.00677342 0.0177515,-0.00524294 0.0181416,-0.00367238 0.018393,-0.00207374 0.0185039,-0.000459256 0.0184733,0.00115874 0.0183014,0.00276788 0.0179897,0.00435586 0.0175405,0.00591055 0.0169572,0.00742005 0.0162443,0.00887284 0.0154072,0.0102578 0.0144523,0.0115644 0.013387,0.0127825 0.0122193,0.013903 0.0109582,0.0149171 0.0096134,0.0158173 0.00819508,0.0165965 0.00671412,0.0172489 0.282498,0 0.00671571,-0.017247 0.00819638,-0.0165945 0.0096144,-0.0158152 0.0109589,-0.0149151 0.0122197,-0.013901 0.0133871,-0.0127806 0.0144522,-0.0115625 0.0154068,-0.0102561 0.0162437,-0.00887132 0.0169564,-0.00741872 0.0175396,-0.00590942 0.0179887,-0.00435496 0.0183003,-0.00276721 0.0184721,-0.00115831 0.0185026,0.000459437 0.0183918,0.00207367 0.0181404,0.00367206 0.0177504,0.00524239 0.0172247,0.00677265 0.0165673,0.00825115 0.0157834,0.00966658 0.0148788,0.0110081 0.0138605,0.0122656 0.0127363,0.0134293 0.0115147,0.0144903 0.0102052,0.0154406 0.00881762,0.0162729 0.00736267,0.0169809 0.00585145,0.017559 0.00429551,0.018003 0.00270674,0.0183093 0.00109729,0.0184758 z "/>
<path fill="rgb(241,240,234)" stroke="rgb(241,240,234)" d="M 5.591,4.23514 l -0.504303,0 -0.0650368,-0.0648208 0.157201,0 0.00671571,-0.017247 0.00819638,-0.0165945 0.0096144,-0.0158152 0.0109589,-0.0149151 0.0122197,-0.013901 0.0133871,-0.0127806 0.0144522,-0.0115625 0.0154068,-0.0102561 0.0162437,-0.00887132 0.0169564,-0.00741872 0.0175396,-0.00590942 0.0179887,-0.00435496 0.0183003,-0.00276721 0.0184721,-0.00115831 0.0185026,0.000459437 0.0183918,0.00207367 0.0181404,0.00367206 0.0177504,0.00524239 0.0172247,0.00677265 0.0165673,0.00825115 0.0157834,0.00966658 0.0148788,0.0110081 0.0138605,0.0122656 0.0127363,0.0134293 0.0115147,0.0144903 0.0102052,0.0154406 0.00881762,0.0162729 0.00736267,0.0169809 0.00585145,0.017559 0.00429551,0.018003 0.00270674,0.0183093 0.00109729,0.0184758 z "/>
<path fill="rgb(241,240,234)" stroke="rgb(241,240,234)" d="M 2.51143,5.212 l 0.101867,0 0,0.143823 0.601473,0 0,0.130188 -0.342133,-0.000508506 0.342133,0.223025 0,0.125848 -0.425496,-0.279417 -0.574504,0.377269 0,-0.125571 0.495777,-0.321155 -0.495777,0 0,-0.129679 0.296661,0 0,-0.143823 z M 2.21477,5.99235 l 0.338289,0.219644 -0.203447,0 -0.134842,-0.0896412 0,-0.130002 z M 3.21477,6.0891 l 0,0.122896 -0.189281,0 0.189281,-0.122896 z "/>
<path fill="rgb(241,240,234)" stroke="rgb(241,240,234)" d="M 2.34961,6.212 l 0.203447,0 0.236215,0.153369 0.236215,-0.153369 0.189281,0 0,0.00942427 -0.425496,0.282857 -0.439662,-0.292281 z "/>
<path fill="rgb(241,240,234)" stroke="rgb(241,240,234)" d="M 4.21477,5.48749 l 0,-0.131674 0.29646,0 0.132753,0.132312 -0.429213,-0.000637932 z "/>
<path fill="rgb(241,240,234)" stroke="rgb(241,240,234)" d="M 3.21477,6.212 l 0.0141767,0 -0.0141767,0.00942427 0,-0.00942427 z "/>
<path fill="rgb(241,240,234)" stroke="rgb(241,240,234)" d="M 3.35425,5.212 l -0.101885,0 0,-0.356315 -0.037596,0 0,-0.643685 0.148825,0 0.731592,0.729162 0,0.270838 -0.101867,0 0,-0.356315 -0.639069,0 0,0.356315 z "/>
<path fill="rgb(241,240,234)" stroke="rgb(241,240,234)" d="M 3.35425,5.212 l 0,0.143823 0.639069,0 0,-0.143823 0.101867,0 0,0.143823 0.119583,0 0,0.131674 -1,-0.00148628 0,-0.130188 0.037596,0 0,-0.143823 0.101885,0 z M 3.21477,6.212 l 0,-0.122896 0.19505,-0.126642 -0.19505,-0.128087 0,-0.125848 0.38955,0.253935 -0.375374,0.249537 -0.0141767,0 z "/>
<path fill="rgb(241,240,234)" stroke="rgb(241,240,234)" d="M 2.6133,5.212 l -0.101867,0 0,-0.356315 -0.296661,0 0,-0.518679 0.866254,0 0.0463167,-0.125006 0.0874289,0 0,0.643685 -0.601473,0 0,0.356315 z "/>
<path fill="rgb(241,240,234)" stroke="rgb(241,240,234)" d="M 1.43542,5.212 l -0.101381,0 -0.119271,-0.351679 0,-0.648321 0.389,0 0.0509333,0.125006 0.560067,0 0,0.518679 -0.342408,0 0,0.356315 -0.111137,0 0,-0.356315 -0.444569,0 0.118767,0.356315 z "/>
<path fill="rgb(241,240,234)" stroke="rgb(241,240,234)" d="M 1.33404,5.212 l 0.101381,0 0.0479392,0.143823 0.277863,0 0,-0.143823 0.111137,0 0,0.143823 0.342408,0 0,0.129679 -0.819387,0 0,-0.0926334 -0.0613413,-0.180869 z M 2.21477,5.93223 l -0.0460416,0.0302349 0.0460416,0.0298938 0,0.130002 -0.240523,-0.159896 0.240523,-0.155806 0,0.125571 z "/>
<path fill="rgb(241,240,234)" stroke="rgb(241,240,234)" d="M 6.03874,5.18401 l -0.0776012,-0.0773434 0.0883213,-0.250987 -0.340145,0 -0.520408,-0.518679 0.559514,0 0.0509521,-0.125006 0.351954,0 0,0.648321 -0.112587,0.323695 z "/>
<path fill="rgb(241,240,234)" stroke="rgb(241,240,234)" d="M 2.74446,1.74702 l -0.00156221,0.0329914 -0.00467266,0.0326962 -0.00774128,0.0321084 -0.0107406,0.0312332 -0.454535,-0.453025 0.0292314,-0.0102575 0.0300256,-0.00762604 0.0305834,-0.00493454 0.0309004,-0.00220418 0.0309741,0.000543522 0.030804,0.00328695 0.0303914,0.0060045 0.0297395,0.00867478 0.0288535,0.0112768 0.0277404,0.01379 0.0264088,0.0161946 0.0248694,0.0184718 0.0231341,0.0206035 0.0212167,0.022573 0.0191323,0.0243648 0.0168973,0.0259648 0.0145293,0.0273604 0.0120468,0.0285406 0.00946955,0.0294961 0.00681772,0.0302194 0.00411222,0.0307047 0.00137435,0.0309484 z "/>
<path fill="rgb(241,240,234)" stroke="rgb(241,240,234)" d="M 5.25115,1.74702 l -0.0013286,0.0304299 -0.00397569,0.0301983 -0.00659252,0.0297369 -0.00915917,0.0290492 -0.0116561,0.0281404 -0.0140644,0.0270174 -0.0163656,0.0256888 -0.0185422,0.0241647 -0.0205777,0.0224567 -0.0224567,0.0205777 -0.0241647,0.0185422 -0.0256888,0.0163656 -0.0270174,0.0140644 -0.0281404,0.0116561 -0.0290492,0.00915917 -0.0297369,0.00659252 -0.0301983,0.00397569 -0.0304299,0.0013286 -0.0304299,-0.0013286 -0.0301983,-0.00397569 -0.0297369,-0.00659252 -0.0290492,-0.00915917 -0.0281404,-0.0116561 -0.0270174,-0.0140644 -0.0256888,-0.0163656 -0.0241647,-0.0185422 -0.0224567,-0.0205777 -0.0205777,-0.0224567 -0.0185422,-0.0241647 -0.0163656,-0.0256888 -0.0140644,-0.0270174 -0.0116561,-0.0281404 -0.00915917,-0.0290492 -0.00659252,-0.0297369 -0.00397569,-0.0301983 -0.0013286,-0.0304299 0.0013286,-0.0304299 0.00397569,-0.0301983 0.00659252,-0.0297369 0.00915917,-0.0290492 0.0116561,-0.0281404 0.0140644,-0.0270174 0.0163656,-0.0256888 0.0185422,-0.0241647 0.0205777,-0.0224567 0.0224567,-0.0205777 0.0241647,-0.0185422 0.0256888,-0.0163656 0.0270174,-0.0140644 0.0281404,-0.0116561 0.0290492,-0.00915917 0.0297369,-0.00659252 0.0301983,-0.00397569 0.0304299,-0.0013286 0.0304299,0.0013286 0.0301983,0.00397569 0.0297369,0.00659252 0.0290492,0.00915917 0.0281404,0.0116561 0.0270174,0.0140644 0.0256888,0.0163656 0.0241647,0.0185422 0.0224567,0.0205777 0.0205777,0.0224567 0.0185422,0.0241647 0.0163656,0.0256888 0.0140644,0.0270174 0.0116561,0.0281404 0.00915917,0.0290492 0.00659252,0.0297369 0.00397569,0.0301983 0.0013286,0.0304299 z "/>
<path fill="rgb(241,240,234)" stroke="rgb(241,240,234)" d="M 6.06886,3.53014 l -1.68952,0 -0.169166,-0.168604 0.466834,1.72644e-05 0.00248317,-0.000108134 0.00246434,-0.000323764 0.00242683,-0.000536939 0.00237091,-0.000746043 0.00229702,-0.000949488 0.0022057,-0.00114573 0.00209765,-0.00133329 0.0019737,-0.00151073 0.00183478,-0.00167672 0.00168194,-0.00182999 0.00151635,-0.00196939 0.00133926,-0.00209384 0.00115202,-0.00220242 0.000956033,-0.0022943 0.000752799,-0.00236878 0.000543856,-0.00242529 0,-0.520577 0.112493,0 0,0.520564 -9.50508e-05,0.00188221 6.95422e-05,0.00188332 0.000233605,0.00187007 0.000395885,0.00184256 0.000555146,0.00180099 0.000710173,0.00174568 0.000859782,0.00167706 0.00100283,0.00159564 0.00113823,0.00150205 0.00126495,0.00139701 0.00138202,0.00128131 0.00148855,0.00115583 0.00158373,0.00102154 0.00166682,0.000879462 0.0017372,0.00073067 0.00179433,0.000576306 0.00183777,0.000417545 0.00186719,0.0002556 0.613195,0 0.0024831,-0.00010822 0.00246427,-0.000323838 0.00242675,-0.000537001 0.00237083,-0.000746091 0.00229693,-0.000949524 0.00220561,-0.00114576 0.00209757,-0.0013333 0.00197362,-0.00151073 0.0018347,-0.00167671 0.00168187,-0.00182997 0.00151629,-0.00196935 0.00133921,-0.0020938 0.00115197,-0.00220237 0.000955994,-0.00229425 0.00075277,-0.00236872 0.000543838,-0.00242523 0,-0.520564 0.107787,0 0,0.520564 -0.000137336,0.00184459 2.42573e-05,0.00184953 0.000185666,0.00184035 0.000345655,0.00181711 0.000503005,0.00177999 0.000656512,0.00172926 0.000805003,0.00166533 0.000947345,0.00158868 0.00108245,0.00149989 0.00120928,0.00139964 0.00132688,0.0012887 0.00143434,0.00116791 0.00153085,0.00103821 0.00161565,0.000900568 0.00168812,0.000756049 0.00174769,0.000605755 0.00179391,0.000450833 0.00182642,0.000292467 0.262618,0 0.00197868,-8.37446e-05 0.00196453,-0.000250635 0.00193633,-0.000415732 0.00189427,-0.000577856 0.00183867,-0.000735848 0.00176992,-0.000888576 0.00168851,-0.00103495 0.00159503,-0.00117392 0.00149013,-0.00130449 0.00137458,-0.00142574 0.00124919,-0.00153678 0.00111488,-0.00163684 0.000972583,-0.00172519 0.000823335,-0.0018012 0.000668197,-0.00186432 0.0791215,-0.527623 0.144015,0 -0.0721061,0.468982 0.0775438,0.128344 0.00319385,0.00584102 0.00267898,0.00609436 0.00214419,0.00630243 0.00159347,0.00646367 0.00103092,0.00657688 0.000460705,0.00664123 -0.000112934,0.00665623 -0.000685733,0.00662178 -0.00125344,0.00653812 -0.00181183,0.00640589 -0.00235676,0.00622606 -0.00288418,0.00599998 -0.00339016,0.00572931 -0.00387096,0.00541607 -0.004323,0.00506259 -0.00474292,0.0046715 -0.0051276,0.00424569 -0.00547418,0.00378834 -0.00578008,0.00330285 -0.00604304,0.00279281 -0.0062611,0.00226202 -0.00643264,0.00171443 z "/>
<path fill="rgb(241,240,234)" stroke="rgb(241,240,234)" d="M 3.83811,2.9907 l 0,-0.173239 0.1079,0 0,0.28078 -0.1079,-0.107541 z "/>
<path fill="rgb(241,240,234)" stroke="rgb(241,240,234)" d="M 2.67946,3.53014 l -1.17042,0 -0.00566304,-0.000244323 -0.00562095,-0.000731153 -0.0055371,-0.00121255 -0.00541209,-0.00168494 -0.00524686,-0.0021448 -0.00504264,-0.00258872 -0.00480094,-0.00301341 -0.00452357,-0.0034157 -0.00421258,-0.00379261 -0.00387028,-0.00414133 -0.00349922,-0.00445928 -0.00310216,-0.00474408 -0.00268204,-0.00499363 -0.00224199,-0.00520607 -0.00178527,-0.00537982 -0.0013153,-0.00551359 -0.000835541,-0.00560639 -0.000349577,-0.00565752 0.000138984,-0.0056666 0.0656021,-0.210965 -0.176962,-0.431517 0.134946,0 0.182632,0.454962 0.000501779,0.00203987 0.000683327,0.00198643 0.000859329,0.00191687 0.00102836,0.00183175 0.00118904,0.00173177 0.00134007,0.00161773 0.00148022,0.00149056 0.00160836,0.0013513 0.00172345,0.00120106 0.00182455,0.00104108 0.00191084,0.00087265 0.00198162,0.000697136 0.00203632,0.000515965 0.0020745,0.000330606 0.00209583,0.000142563 0.366625,0 0.0020414,-8.90959e-05 0.00202588,-0.00026661 0.00199495,-0.000442097 0.00194885,-0.000614222 0.00188792,-0.000781675 0.00181264,-0.000943184 0.00172358,-0.00109752 0.0016214,-0.00124351 0.0015069,-0.00138004 0.00138094,-0.00150608 0.00124447,-0.00162067 0.00109854,-0.00172293 0.000944261,-0.00181208 0.000782796,-0.00188746 0.000615379,-0.00194848 0.000443282,-0.00199469 0.000267814,-0.00202572 9.03085e-05,-0.00204135 0,-0.352993 0.147652,0.147161 0,0.27607 -9.50502e-05,0.00188212 6.95273e-05,0.00188324 0.000233575,0.00186999 0.00039584,0.00184248 0.000555087,0.00180091 0.0007101,0.00174561 0.000859697,0.001677 0.00100274,0.0015956 0.00113813,0.00150202 0.00126484,0.00139699 0.0013819,0.00128131 0.00148843,0.00115585 0.0015836,0.00102158 0.00166669,0.000879513 0.00173707,0.00073074 0.00179421,0.000576393 0.00183766,0.00041765 0.00186709,0.000255722 0.281103,1.03957e-05 0.169165,0.168603 z "/>
<path fill="rgb(241,240,234)" stroke="rgb(241,240,234)" d="M 1.31221,2.16743 l 0.328105,0.327015 -0.192181,0 -0.0656161,0.112493 0.0845101,0.210527 -0.134946,0 -0.0901664,-0.219868 0.070294,-0.103151 0,-0.327015 z "/>
<path fill="rgb(241,240,234)" stroke="rgb(241,240,234)" d="M 6.14379,2.61636 l -0.0309193,0.201101 -0.144015,0 0.0343741,-0.229224 0.00018969,-0.00179876 3.16588e-05,-0.00180846 -0.000126615,-0.0018043 -0.000283919,-0.00178632 -0.000439047,-0.00175464 -0.000590811,-0.00170952 -0.000738047,-0.00165131 -0.000879629,-0.00158044 -0.00101447,-0.00149746 -0.00114154,-0.001403 -0.00125986,-0.0012978 -0.00136853,-0.00118265 -0.00146671,-0.00105844 -0.00155365,-0.00092612 -0.00162869,-0.000786702 -0.00169125,-0.000641257 -0.00174085,-0.000490898 -0.00177711,-0.000336778 -0.376134,0 -0.00203955,8.88804e-05 -0.00202409,0.000265967 -0.00199328,0.000441038 -0.00194735,0.000612764 -0.00188667,0.000779845 -0.00181167,0.000941013 -0.00172295,0.00109505 -0.00162115,0.00124078 -0.00150707,0.0013771 -0.00138156,0.00150298 -0.00124558,0.00161747 -0.00110015,0.00171969 -0.000946379,0.00180888 -0.000785435,0.00188435 -0.000618535,0.00194553 -0.000446945,0.00199196 -0.000271967,0.00202329 -9.49267e-05,0.00203928 0,0.229363 -0.107787,0 0,-0.229224 -9.05763e-05,-0.00207827 -0.000271042,-0.00206251 -0.000449452,-0.00203111 -0.000624454,-0.00198431 -0.000794721,-0.00192246 -0.000958961,-0.00184603 -0.00111593,-0.0017556 -0.00126443,-0.00165185 -0.00140335,-0.00153559 -0.00153162,-0.00140767 -0.00164828,-0.00126908 -0.00175244,-0.00112087 -0.00184332,-0.00096416 -0.00192021,-0.000800136 -0.00198254,-0.000630044 -0.00202984,-0.000455175 -0.617629,0 -0.00204351,8.91204e-05 -0.00202799,0.000266685 -0.00199708,0.000442224 -0.00195099,0.000614405 -0.0018901,0.00078192 -0.00181485,0.000943499 -0.00172582,0.00109791 -0.00162369,0.00124399 -0.00150922,0.00138062 -0.0013833,0.00150677 -0.00124687,0.00162147 -0.00110098,0.00172387 -0.000946723,0.00181317 -0.000785279,0.00188871 -0.000617872,0.0019499 -0.000445773,0.00199629 -0.000270289,0.00202751 -9.27532e-05,0.00204335 0,0.229308 -0.112493,0 0,-0.229211 -9.05667e-05,-0.00207816 -0.000271013,-0.0020624 -0.000449405,-0.00203101 -0.000624389,-0.00198421 -0.000794639,-0.00192237 -0.000958863,-0.00184595 -0.00111582,-0.00175554 -0.00126431,-0.00165181 -0.00140322,-0.00153556 -0.00153148,-0.00140767 -0.00164814,-0.0012691 -0.00175229,-0.00112091 -0.00184316,-0.000964215 -0.00192006,-0.000800213 -0.00198239,-0.000630144 -0.0020297,-0.000455296 -0.715949,-2.64771e-05 -0.00204356,8.9049e-05 -0.00202805,0.000266622 -0.00199714,0.00044217 -0.00195106,0.000614361 -0.00189016,0.000781886 -0.00181492,0.000943474 -0.00172589,0.0010979 -0.00162375,0.00124398 -0.00150929,0.00138062 -0.00138336,0.00150678 -0.00124693,0.00162149 -0.00110103,0.00172389 -0.000946766,0.0018132 -0.000785315,0.00188874 -0.000617901,0.00194994 -0.000445794,0.00199633 -0.000270302,0.00202756 -9.27575e-05,0.0020434 0,0.229321 -0.1079,0 0,-0.229211 -9.05667e-05,-0.00207816 -0.000271013,-0.0020624 -0.000449405,-0.00203101 -0.000624389,-0.00198421 -0.000794639,-0.00192237 -0.000958863,-0.00184595 -0.00111582,-0.00175554 -0.00126431,-0.00165181 -0.00140322,-0.00153556 -0.00153148,-0.00140767 -0.00164814,-0.0012691 -0.00175229,-0.00112091 -0.00184316,-0.000964215 -0.00192006,-0.000800213 -0.00198239,-0.000630144 -0.0020297,-0.000455296 -0.40772,-1.50782e-05 -0.615417,-0.613373 0.0177322,-0.0390578 0.0139118,-0.0405759 0.00996354,-0.0417214 0.00592377,-0.0424836 0.00182959,-0.0428555 1.60746,0 0.00171086,0.0392123 0.00512199,0.0389139 0.00849414,0.0383194 0.0118016,0.0374333 0.0150193,0.0362622 0.0181227,0.0348152 0.0210881,0.0331032 0.0238931,0.0311392 0.0265162,0.0289383 0.0289374,0.0265171 0.0311385,0.023894 0.0331025,0.0210892 0.0348146,0.0181238 0.0362618,0.0150204 0.0374329,0.0118028 0.0383192,0.00849533 0.0389138,0.0051232 0.0392122,0.00171208 0.0392122,-0.00171208 0.0389138,-0.0051232 0.0383192,-0.00849533 0.0374329,-0.0118028 0.0362618,-0.0150204 0.0348146,-0.0181238 0.0331025,-0.0210892 0.0311385,-0.023894 0.0289374,-0.0265171 0.0265162,-0.0289383 0.0238931,-0.0311392 0.0210881,-0.0331032 0.0181227,-0.0348152 0.0150193,-0.0362622 0.0118016,-0.0374333 0.00849414,-0.0383194 0.00512199,-0.0389139 0.00171086,-0.0392123 0.866945,0.140616 0,0.117115 -0.0750694,0.0468905 0,0.567085 z "/>
<path fill="rgb(241,240,234)" stroke="rgb(241,240,234)" d="M 2.79529,1.95135 l 0.615417,0.613373 -0.283325,-1.04779e-05 -0.461425,-0.459892 0.0312218,-0.0257494 0.0287682,-0.0284644 0.0260793,-0.0309467 0.0231773,-0.033176 0.0200857,-0.035134 z "/>
<path fill="rgb(241,240,234)" stroke="rgb(241,240,234)" d="M 5.426,4.85568 l 0.0538283,0 0,0.0536495 -0.0538283,-0.0536495 z "/>
<path fill="rgb(241,240,234)" stroke="rgb(241,240,234)" d="M 5.96114,5.10667 l -0.0735647,0.209053 -0.305841,-0.304825 0,-0.155215 0.127582,0 0.251824,0.250987 z "/>
<path fill="rgb(241,240,234)" stroke="rgb(241,240,234)" d="M 5.1889,4.337 l -0.283314,0 -0.102206,-0.101867 0.283314,0 0.102206,0.101867 z "/>
<path fill="rgb(241,240,234)" stroke="rgb(241,240,234)" d="M 5.1889,4.337 l 0.520408,0.518679 -0.127582,0 0,0.155215 -0.101904,-0.101566 0,-0.0536495 -0.0538283,0 -0.520408,-0.518679 0.283314,0 z "/>
<path fill="rgb(241,240,234)" stroke="rgb(241,240,234)" d="M 2.71975,1.87605 l 0.075548,0.075297 -0.0200857,0.035134 -0.0231773,0.033176 -0.0260793,0.0309467 -0.0287682,0.0284644 -0.0312218,0.0257494 -0.0713538,-0.0711168 0.0232268,-0.0176294 0.0216747,-0.019506 0.0199715,-0.0212466 0.0181289,-0.0228391 0.0161599,-0.0242722 0.0140781,-0.025536 0.0118982,-0.0266216 z "/>
<path fill="rgb(241,240,234)" stroke="rgb(241,240,234)" d="M 5.02166,4.17032 l -0.125297,0 -0.006671,-0.0171509 -0.00813522,-0.0165068 -0.00953798,-0.015738 -0.0108687,-0.0148502 -0.0121172,-0.0138502 -0.0132743,-0.0127456 -0.014331,-0.0115447 -0.0152794,-0.0102565 -0.0161124,-0.0088909 -0.0168236,-0.00745807 -0.0174077,-0.00596889 -0.0178603,-0.00443461 -0.018178,-0.00286682 -0.0183582,-0.00127737 -0.0183998,0.000321731 -0.0183024,0.0019184 -0.0180666,0.00350058 -0.0176944,0.0050563 -0.0171884,0.00657382 -0.515723,-0.51401 0.283314,0 0.642313,0.640179 z "/>
<path fill="rgb(241,240,234)" stroke="rgb(241,240,234)" d="M 1.83918,0.998407 l 0.426031,0.424616 -0.0265819,0.0119867 -0.025489,0.014163 -0.0242182,0.0162406 -0.0227786,0.0182048 -0.0211801,0.0200421 -0.0194338,0.0217395 -0.017552,0.0232853 -0.431375,-0.429942 0.0533816,-0.0412 0.0542,-0.0401172 0.0549965,-0.0390181 z "/>
<path fill="rgb(241,240,234)" stroke="rgb(241,240,234)" d="M 3.83811,2.9907 l 0.1079,0.107541 0,0.239771 -9.50502e-05,0.00188212 6.95273e-05,0.00188324 0.000233575,0.00186999 0.00039584,0.00184248 0.000555087,0.00180091 0.0007101,0.00174561 0.000859697,0.001677 0.00100274,0.0015956 0.00113813,0.00150202 0.00126484,0.00139699 0.0013819,0.00128131 0.00148843,0.00115585 0.0015836,0.00102158 0.00166669,0.000879513 0.00173707,0.00073074 0.00179421,0.000576393 0.00183766,0.00041765 0.00186709,0.000255722 0.244681,9.04875e-06 0.169166,0.168604 -0.283314,0 -0.257924,-0.257067 0,-0.282373 z "/>
<path fill="rgb(241,240,234)" stroke="rgb(241,240,234)" d="M 2.26521,1.42302 l 0.454535,0.453025 -0.0118982,0.0266216 -0.0140781,0.025536 -0.0161599,0.0242722 -0.0181289,0.0228391 -0.0199715,0.0212466 -0.0216747,0.019506 -0.0232268,0.0176294 -0.486631,-0.485014 0.017552,-0.0232853 0.0194338,-0.0217395 0.0211801,-0.0200421 0.0227786,-0.0182048 0.0242182,-0.0162406 0.025489,-0.014163 0.0265819,-0.0119867 z "/>
<path fill="rgb(241,240,234)" stroke="rgb(241,240,234)" d="M 3.41071,2.56472 l 0.4274,0.42598 0,0.282373 -0.710725,-0.708364 0.283325,1.04779e-05 z "/>
<path fill="rgb(241,240,234)" stroke="rgb(241,240,234)" d="M 6.50794,5.65165 l -0.0388349,0.055126 -0.0399366,0.0543332 -0.0410221,0.0535184 -0.422048,-0.420645 0,-0.00111957 0.0726425,-0.208853 0.469199,0.46764 z "/>
<path fill="rgb(241,240,234)" stroke="rgb(241,240,234)" d="M 5.0867,4.23514 l -0.283314,0 -0.191626,-0.19099 0.0171884,-0.00657382 0.0176944,-0.0050563 0.0180666,-0.00350058 0.0183024,-0.0019184 0.0183998,-0.000321731 0.0183582,0.00127737 0.018178,0.00286682 0.0178603,0.00443461 0.0174077,0.00596889 0.0168236,0.00745807 0.0161124,0.0088909 0.0152794,0.0102565 0.014331,0.0115447 0.0132743,0.0127456 0.0121172,0.0138502 0.0108687,0.0148502 0.00953798,0.015738 0.00813522,0.0165068 0.006671,0.0171509 0.125297,0 0.0650368,0.0648208 z "/>
<path fill="rgb(241,240,234)" stroke="rgb(241,240,234)" d="M 3.94601,3.09824 l 0.264172,0.263295 -0.244681,-9.04875e-06 -0.00186709,-0.000255722 -0.00183766,-0.00041765 -0.00179421,-0.000576393 -0.00173707,-0.00073074 -0.00166669,-0.000879513 -0.0015836,-0.00102158 -0.00148843,-0.00115585 -0.0013819,-0.00128131 -0.00126484,-0.00139699 -0.00113813,-0.00150202 -0.00100274,-0.0015956 -0.000859697,-0.001677 -0.0007101,-0.00174561 -0.000555087,-0.00180091 -0.00039584,-0.00184248 -0.000233575,-0.00186999 -6.95273e-05,-0.00188324 9.50502e-05,-0.00188212 0,-0.239771 z "/>
<path fill="rgb(241,240,234)" stroke="rgb(241,240,234)" d="M 6.03874,5.18401 l -0.0726425,0.208853 0,0.00111957 -0.0785234,-0.0782626 0.0735647,-0.209053 0.0776012,0.0773434 z "/>
<path fill="rgb(241,240,234)" stroke="rgb(241,240,234)" d="M 2.67946,3.53014 l -0.169165,-0.168603 0.283325,1.04779e-05 0.169154,0.168592 -0.283314,0 z "/>
<path fill="rgb(241,240,234)" stroke="rgb(241,240,234)" d="M 1.31221,2.16743 l 0,-0.282158 -0.070294,0 0,-0.0702756 0.681713,0.679448 -0.283314,0 -0.328105,-0.327015 z "/>
<path fill="rgb(241,240,234)" stroke="rgb(241,240,234)" d="M 4.64398,5.48813 l -0.132753,-0.132312 0.22768,0 0,-0.0554501 0.188811,0.188184 -0.283738,-0.000421714 z "/>
<path fill="rgb(241,240,234)" stroke="rgb(241,240,234)" d="M 1.11186,1.68537 l 0.130055,0.129623 0,0.0702756 0.070294,0 0,0.282158 -0.320143,-0.319079 0.0388349,-0.055126 0.0399366,-0.0543332 0.0410221,-0.0535184 z "/>
<path fill="rgb(241,240,234)" stroke="rgb(241,240,234)" d="M 3.36359,4.212 l 0.283314,0 0.645831,0.643685 -0.197553,0 0,0.0854762 -0.731592,-0.729162 z "/>
<path fill="rgb(241,240,234)" stroke="rgb(241,240,234)" d="M 5.8234,6.38126 l -0.0533816,0.0412 -0.0542,0.0401172 -0.0549965,0.0390181 -1.01684,-1.01346 0.283738,0.000421714 0.895679,0.892703 z "/>
<path fill="rgb(241,240,234)" stroke="rgb(241,240,234)" d="M 3.36359,4.212 l -0.684133,-0.68186 0.283314,0 0.684133,0.68186 -0.283314,0 z "/>
<path fill="rgb(241,240,234)" stroke="rgb(241,240,234)" d="M 4.51123,5.35582 l -0.416044,-0.414661 0,-0.0854762 0.197553,0 0.44617,0.444687 0,0.0554501 -0.22768,0 z "/>
<path fill="rgb(241,240,234)" stroke="rgb(241,240,234)" d="M 2.06205,2.6324 l 0.147652,0.147161 0,0.0378925 -0.147652,0 0,-0.185054 z "/>
<path fill="rgb(241,240,234)" stroke="rgb(241,240,234)" d="M 2.06205,2.91478 l 0,-0.0973194 0.147652,0 0,0.244481 -0.147652,-0.147161 z "/>
<path fill="rgb(241,240,234)" stroke="rgb(241,240,234)" d="M 2.5103,3.36154 l -0.300594,-0.299596 0,-0.244481 0,-0.0378925 0.583919,0.581979 -0.283325,-1.04779e-05 z "/>
<path fill="rgb(241,240,234)" stroke="rgb(241,240,234)" d="M 1.64031,2.49444 l 0.283314,0 0.138425,0.137965 0,0.185054 0,0.0973194 -0.42174,-0.420339 z "/>
<path fill="rgb(241,240,234)" stroke="rgb(241,240,234)" d="M 7.1,3.75 l -0.0127478,-0.291972 -0.0381463,-0.28975 -0.0632545,-0.285322 -0.0878812,-0.278724 -0.111839,-0.270004 -0.134946,-0.259229 -0.157026,-0.246481 -0.17791,-0.231857 -0.197441,-0.215469 -0.215469,-0.197441 -0.231857,-0.17791 -0.246481,-0.157026 -0.259229,-0.134946 -0.270004,-0.111839 -0.278724,-0.0878812 -0.285322,-0.0632545 -0.28975,-0.0381463 -0.291972,-0.0127478 0,-0.2 0.309403,0.0135088 0.307048,0.0404237 0.302357,0.0670308 0.295364,0.0931279 0.286123,0.118516 0.274705,0.143002 0.261196,0.1664 0.2457,0.188532 0.228333,0.209229 0.209229,0.228333 0.188532,0.2457 0.1664,0.261196 0.143002,0.274705 0.118516,0.286123 0.0931279,0.295364 0.0670308,0.302357 0.0404237,0.307048 0.0135088,0.309403 -0.0121716,0.293718 -0.0364315,0.291704 -0.0604415,0.28769 -0.084037,0.281703 -0.189122,-0.06506 0.0793025,-0.265832 0.0570363,-0.271482 0.034379,-0.27527 0.0114859,-0.277171 z "/>
<path fill="rgb(241,240,234)" stroke="rgb(241,240,234)" d="M 1.06776,6.07553 l -0.196677,-0.248431 -0.173742,-0.264979 -0.149422,-0.279416 -0.123912,-0.291626 -0.097415,-0.301513 -0.0701418,-0.308999 -0.0423099,-0.314022 -0.0141408,-0.316544 0.0135088,-0.309403 0.0404237,-0.307048 0.0670308,-0.302357 0.0931279,-0.295364 0.118516,-0.286123 0.143002,-0.274705 0.1664,-0.261196 0.188532,-0.2457 0.209229,-0.228333 0.228333,-0.209229 0.2457,-0.188532 0.261196,-0.1664 0.274705,-0.143002 0.286123,-0.118516 0.295364,-0.0931279 0.302357,-0.0670308 0.307048,-0.0404237 0.309403,-0.0135088 0,0.2 -0.290122,0.0125865 -0.287942,0.0376648 -0.283598,0.0624601 -0.277124,0.0867861 -0.268566,0.11046 -0.257991,0.133304 -0.245477,0.155146 -0.0549965,0.0390181 -0.0542,0.0401172 -0.0533816,0.0412 -0.203135,0.173638 -0.188648,0.189277 -0.172961,0.203711 -0.0410221,0.0535184 -0.0399366,0.0543332 -0.0388349,0.055126 -0.153541,0.244608 -0.131902,0.256923 -0.109283,0.267329 -0.0858519,0.275748 -0.0617827,0.282118 -0.0372542,0.286391 -0.0124489,0.288536 0.0133442,0.29871 0.0399262,0.296331 0.0661902,0.29159 0.0919268,0.284527 0.116931,0.275196 0.141004,0.263674 0.163953,0.250051 0.185597,0.234435 -0.151112,0.131016 z "/>
<path fill="rgb(241,240,234)" stroke="rgb(241,240,234)" d="M 5.8234,6.38126 l 0.203135,-0.173638 0.188648,-0.189277 0.172961,-0.203711 0.0410221,-0.0535184 0.0399366,-0.0543332 0.0388349,-0.055126 0.161033,-0.257841 0.136996,-0.271378 0.111831,-0.282679 0.189122,0.06506 -0.113518,0.288394 -0.138239,0.277394 -0.161907,0.264279 -0.184341,0.24915 -0.20537,0.232122 -0.224833,0.213325 -0.242583,0.192902 -0.258483,0.171008 -0.272414,0.147811 -0.284268,0.123487 -0.293955,0.0982226 -0.301402,0.0722091 -0.306552,0.0456452 -0.309365,0.0187333 -0.30982,-0.00832127 -0.307913,-0.0353125 -0.30366,-0.0620345 -0.297092,-0.0882837 -0.288259,-0.11386 -0.27723,-0.138568 -0.264087,-0.162221 -0.248931,-0.184636 -0.231878,-0.205645 -0.213058,-0.225086 0.151112,-0.131016 0.198061,0.209504 0.215341,0.191698 0.231026,0.172473 0.245,0.15197 0.25716,0.130342 0.267414,0.107748 0.275688,0.0843563 0.281921,0.0603397 0.286065,0.0358763 0.28809,0.0111471 0.287982,-0.0136646 0.28574,-0.0383752 0.281382,-0.0628015 0.274941,-0.0867626 0.266462,-0.110081 0.256011,-0.132584 0.243663,-0.154106 0.0549965,-0.0390181 0.0542,-0.0401172 0.0533816,-0.0412 z "/>
<path fill="rgb(187,30,16)" stroke="rgb(187,30,16)" d="M 5.8234,6.38126 l -0.895679,-0.892703 1.03837,0.00154332 -8.88178e-16,-0.0961116 0.422048,0.420645 -0.172961,0.203711 -0.188648,0.189277 -0.203135,0.173638 z "/>
<path fill="rgb(187,30,16)" stroke="rgb(187,30,16)" d="M 1.11186,1.68537 l 0.172961,-0.203711 0.188648,-0.189277 0.203135,-0.173638 0.431375,0.429942 -0.0160267,0.0255068 -0.0137684,0.0267934 -0.0114076,0.0278805 -0.00896187,0.0287601 -0.00644942,0.0294255 -0.00388896,0.0298719 -0.00129954,0.030096 0.00132447,0.0303827 0.00396337,0.0301522 0.00657219,0.0296929 0.00913116,0.0290084 0.0116208,0.0281037 0.0140224,0.0269859 0.0163175,0.0256633 0.0184888,0.024146 0.0205199,0.0224454 0.0223953,0.0205747 0.0241007,0.0185478 0.0256233,0.0163801 0.0269515,0.0140882 0.0280753,0.0116895 0.028986,0.009202 0.0296768,0.00664472 0.0301424,0.00403702 0.0303794,0.0013987 0.0303859,-0.00125024 0.0301618,-0.00388969 0.0297089,-0.00649963 0.0290306,-0.00906026 0.028132,-0.0115521 0.02702,-0.0139564 0.0257031,-0.0162547 0.0713538,0.0711168 -0.032798,0.0224383 -0.034659,0.0194406 -0.0362468,0.0162896 -0.0375489,0.0130102 -0.0385549,0.00962826 -0.039257,0.00617039 -0.0396495,0.00266389 -0.0397296,-0.000863625 -0.0394963,-0.00438433 -0.0389518,-0.00787046 -0.0381001,-0.0112946 -0.036948,-0.0146296 -0.0355047,-0.0178493 -0.0337815,-0.0209283 -0.0317919,-0.0238423 -0.0295517,-0.0265683 -0.0270786,-0.0290849 -0.0243919,-0.0313722 -0.021513,-0.0334122 -0.0184645,-0.0351887 -0.0152704,-0.0366879 -0.0119559,-0.0378978 -0.00854711,-0.0388089 -0.00507098,-0.0394141 -0.00155487,-0.0397085 -0.707632,0 0,0.0703403 -0.130055,-0.129623 z "/>
<path fill="rgb(187,30,16)" stroke="rgb(187,30,16)" d="M 2.79362,3.36155 l -0.583919,-0.581979 0,-0.191428 9.27575e-05,-0.0020434 0.000270302,-0.00202756 0.000445794,-0.00199633 0.000617901,-0.00194994 0.000785315,-0.00188874 0.000946766,-0.0018132 0.00110103,-0.00172389 0.00124693,-0.00162149 0.00138336,-0.00150678 0.00150929,-0.00138062 0.00162375,-0.00124398 0.00172589,-0.0010979 0.00181492,-0.000943474 0.00189016,-0.000781886 0.00195106,-0.000614361 0.00199714,-0.00044217 0.00202805,-0.000266622 0.00204356,-8.9049e-05 0.715949,2.64771e-05 0.0020297,0.000455296 0.00198239,0.000630144 0.00192006,0.000800213 0.00184316,0.000964215 0.00175229,0.00112091 0.00164814,0.0012691 0.00153148,0.00140767 0.00140322,0.00153556 0.00126431,0.00165181 0.00111582,0.00175554 0.000958863,0.00184595 0.000794639,0.00192237 0.000624389,0.00198421 0.000449405,0.00203101 0.000271013,0.0020624 9.05667e-05,0.00207816 0,0.229211 0,0.520577 -0.000543856,0.00242529 -0.000752799,0.00236878 -0.000956033,0.0022943 -0.00115202,0.00220242 -0.00133926,0.00209384 -0.00151635,0.00196939 -0.00168194,0.00182999 -0.00183478,0.00167672 -0.0019737,0.00151073 -0.00209765,0.00133329 -0.0022057,0.00114573 -0.00229702,0.000949488 -0.00237091,0.000746043 -0.00242683,0.000536939 -0.00246434,0.000323764 -0.00248317,0.000108134 -0.147087,-5.43955e-06 z "/>
<path fill="rgb(187,30,16)" stroke="rgb(187,30,16)" d="M 5.58173,5.35582 l 0,-0.344922 0.305841,0.304825 -0.01411,0.0400972 -0.291731,0 z "/>
<path fill="rgb(187,30,16)" stroke="rgb(187,30,16)" d="M 3.64691,4.212 l -0.684133,-0.68186 1.13326,0 0.515723,0.51401 -0.0167843,0.00816714 -0.0159996,0.00961379 -0.0150907,0.0109857 -0.0140644,0.0122722 -0.0129287,0.0134633 -0.0116926,0.0145498 -0.0103656,0.0155232 -0.00895796,0.0163758 -0.00748072,0.0171012 -0.00594533,0.0176937 -0.00436373,0.0181486 -0.0027482,0.0184624 -0.00111131,0.0186327 0.319159,0 0.102206,0.101867 -0.597361,0 -0.0416813,-0.125006 -0.619638,0 z "/>
<path fill="rgb(187,30,16)" stroke="rgb(187,30,16)" d="M 2.10798,1.54868 l 0.486631,0.485014 -0.0257031,0.0162547 -0.02702,0.0139564 -0.028132,0.0115521 -0.0290306,0.00906026 -0.0297089,0.00649963 -0.0301618,0.00388969 -0.0303859,0.00125024 -0.0303794,-0.0013987 -0.0301424,-0.00403702 -0.0296768,-0.00664472 -0.028986,-0.009202 -0.0280753,-0.0116895 -0.0269515,-0.0140882 -0.0256233,-0.0163801 -0.0241007,-0.0185478 -0.0223953,-0.0205747 -0.0205199,-0.0224454 -0.0184888,-0.024146 -0.0163175,-0.0256633 -0.0140224,-0.0269859 -0.0116208,-0.0281037 -0.00913116,-0.0290084 -0.00657219,-0.0296929 -0.00396337,-0.0301522 -0.00132447,-0.0303827 0.00129954,-0.030096 0.00388896,-0.0298719 0.00644942,-0.0294255 0.00896187,-0.0287601 0.0114076,-0.0278805 0.0137684,-0.0267934 0.0160267,-0.0255068 z "/>
<path fill="rgb(187,30,16)" stroke="rgb(187,30,16)" d="M 1.92363,2.49444 l 0.114994,0 0.00204256,9.03622e-05 0.00202693,0.000267973 0.00199587,0.000443545 0.00194964,0.000615745 0.00188858,0.000783262 0.00181316,0.000944822 0.00172395,0.0010992 0.00162163,0.00124521 0.00150698,0.00138176 0.00138086,0.0015078 0.00124425,0.00162237 0.00109817,0.0017246 0.000943745,0.00181372 0.00078214,0.00188905 0.000614587,0.00195 0.00044236,0.00199613 0.000266769,0.00202708 8.91489e-05,0.00204262 0,0.11452 -0.138425,-0.137965 z "/>
<path fill="rgb(187,30,16)" stroke="rgb(187,30,16)" d="M 5.58173,5.35582 l 0.291731,0 0.01411,-0.0400972 0.0785234,0.0782626 8.88178e-16,0.0961116 -1.03837,-0.00154332 -0.188811,-0.188184 0,-0.444687 -0.44617,0 -0.645831,-0.643685 0.619638,0 0.0416813,0.125006 0.597361,0 0.520408,0.518679 -0.585222,0 0,0.500138 0.63905,0 0,-0.446488 0.101904,0.101566 0,0.344922 z "/>
<path fill="rgb(187,30,16)" stroke="rgb(187,30,16)" d="M 4.80338,4.23514 l -0.319159,0 0.00111131,-0.0186327 0.0027482,-0.0184624 0.00436373,-0.0181486 0.00594533,-0.0176937 0.00748072,-0.0171012 0.00895796,-0.0163758 0.0103656,-0.0155232 0.0116926,-0.0145498 0.0129287,-0.0134633 0.0140644,-0.0122722 0.0150907,-0.0109857 0.0159996,-0.00961379 0.0167843,-0.00816714 0.191626,0.19099 z "/>
<path fill="rgb(187,30,16)" stroke="rgb(187,30,16)" d="M 1.24191,1.81499 l 0,-0.0703403 0.707632,0 0.00155487,0.0397085 0.00507098,0.0394141 0.00854711,0.0388089 0.0119559,0.0378978 0.0152704,0.0366879 0.0184645,0.0351887 0.021513,0.0334122 0.0243919,0.0313722 0.0270786,0.0290849 0.0295517,0.0265683 0.0317919,0.0238423 0.0337815,0.0209283 0.0355047,0.0178493 0.036948,0.0146296 0.0381001,0.0112946 0.0389518,0.00787046 0.0394963,0.00438433 0.0397296,0.000863625 0.0396495,-0.00266389 0.039257,-0.00617039 0.0385549,-0.00962826 0.0375489,-0.0130102 0.0362468,-0.0162896 0.034659,-0.0194406 0.032798,-0.0224383 0.461425,0.459892 -0.0249039,-9.20993e-07 -0.00204356,8.9049e-05 -0.00202805,0.000266622 -0.00199714,0.00044217 -0.00195106,0.000614361 -0.00189016,0.000781886 -0.00181492,0.000943474 -0.00172589,0.0010979 -0.00162375,0.00124398 -0.00150929,0.00138062 -0.00138336,0.00150678 -0.00124693,0.00162149 -0.00110103,0.00172389 -0.000946766,0.0018132 -0.000785315,0.00188874 -0.000617901,0.00194994 -0.000445794,0.00199633 -0.000270302,0.00202756 -9.27575e-05,0.0020434 0,0.229321 -0.110203,0 0,-0.229211 -9.05667e-05,-0.00207816 -0.000271013,-0.0020624 -0.000449405,-0.00203101 -0.000624389,-0.00198421 -0.000794639,-0.00192237 -0.000958863,-0.00184595 -0.00111582,-0.00175554 -0.00126431,-0.00165181 -0.00140322,-0.00153556 -0.00153148,-0.00140767 -0.00164814,-0.0012691 -0.00175229,-0.00112091 -0.00184316,-0.000964215 -0.00192006,-0.000800213 -0.00198239,-0.000630144 -0.0020297,-0.000455296 -0.715949,-2.64771e-05 -0.00204356,8.9049e-05 -0.00202805,0.000266622 -0.00199714,0.00044217 -0.00195106,0.000614361 -0.00189016,0.000781886 -0.00181492,0.000943474 -0.00172589,0.0010979 -0.00162375,0.00124398 -0.00150929,0.00138062 -0.00138336,0.00150678 -0.00124693,0.00162149 -0.00110103,0.00172389 -0.000946766,0.0018132 -0.000785315,0.00188874 -0.000617901,0.00194994 -0.000445794,0.00199633 -0.000270302,0.00202756 -9.27575e-05,0.0020434 0,0.191428 -0.147652,-0.147161 0,-0.11452 -8.91489e-05,-0.00204262 -0.000266769,-0.00202708 -0.00044236,-0.00199613 -0.000614587,-0.00195 -0.00078214,-0.00188905 -0.000943745,-0.00181372 -0.00109817,-0.0017246 -0.00124425,-0.00162237 -0.00138086,-0.0015078 -0.00150698,-0.00138176 -0.00162163,-0.00124521 -0.00172395,-0.0010992 -0.00181316,-0.000944822 -0.00188858,-0.000783262 -0.00194964,-0.000615745 -0.00199587,-0.000443545 -0.00202693,-0.000267973 -0.00204256,-9.03622e-05 -0.114994,0 -0.681713,-0.679448 z "/>
<path fill="rgb(187,30,16)" stroke="rgb(187,30,16)" d="M 3.12739,2.56471 l 0.710725,0.708364 0,0.0649651 -0.000543856,0.00242529 -0.000752799,0.00236878 -0.000956033,0.0022943 -0.00115202,0.00220242 -0.00133926,0.00209384 -0.00151635,0.00196939 -0.00168194,0.00182999 -0.00183478,0.00167672 -0.0019737,0.00151073 -0.00209765,0.00133329 -0.0022057,0.00114573 -0.00229702,0.000949488 -0.00237091,0.000746043 -0.00242683,0.000536939 -0.00246434,0.000323764 -0.00248317,0.000108134 -0.711515,-2.63131e-05 -0.00186709,-0.000255722 -0.00183766,-0.00041765 -0.00179421,-0.000576393 -0.00173707,-0.00073074 -0.00166669,-0.000879513 -0.0015836,-0.00102158 -0.00148843,-0.00115585 -0.0013819,-0.00128131 -0.00126484,-0.00139699 -0.00113813,-0.00150202 -0.00100274,-0.0015956 -0.000859697,-0.001677 -0.0007101,-0.00174561 -0.000555087,-0.00180091 -0.00039584,-0.00184248 -0.000233575,-0.00186999 -6.95273e-05,-0.00188324 9.50502e-05,-0.00188212 0,-0.520551 0,-0.229321 9.27575e-05,-0.0020434 0.000270302,-0.00202756 0.000445794,-0.00199633 0.000617901,-0.00194994 0.000785315,-0.00188874 0.000946766,-0.0018132 0.00110103,-0.00172389 0.00124693,-0.00162149 0.00138336,-0.00150678 0.00150929,-0.00138062 0.00162375,-0.00124398 0.00172589,-0.0010979 0.00181492,-0.000943474 0.00189016,-0.000781886 0.00195106,-0.000614361 0.00199714,-0.00044217 0.00202805,-0.000266622 0.00204356,-8.9049e-05 0.0249039,9.20993e-07 z "/>
<path fill="rgb(187,30,16)" stroke="rgb(187,30,16)" d="M 4.73891,5.30037 l -0.44617,-0.444687 0.44617,0 0,0.444687 z "/>
<path fill="rgb(187,30,16)" stroke="rgb(187,30,16)" d="M 4.84078,5.35582 l 0,-0.500138 0.585222,0 0.0538283,0.0536495 0,0.446488 -0.63905,0 z "/>
<path fill="rgb(187,30,16)" stroke="rgb(187,30,16)" d="M 2.96278,3.53014 l -0.169154,-0.168592 0.147087,5.43955e-06 0.00248317,-0.000108134 0.00246434,-0.000323764 0.00242683,-0.000536939 0.00237091,-0.000746043 0.00229702,-0.000949488 0.0022057,-0.00114573 0.00209765,-0.00133329 0.0019737,-0.00151073 0.00183478,-0.00167672 0.00168194,-0.00182999 0.00151635,-0.00196939 0.00133926,-0.00209384 0.00115202,-0.00220242 0.000956033,-0.0022943 0.000752799,-0.00236878 0.000543856,-0.00242529 0,-0.520577 0.110203,0 0,0.520551 -9.50502e-05,0.00188212 6.95273e-05,0.00188324 0.000233575,0.00186999 0.00039584,0.00184248 0.000555087,0.00180091 0.0007101,0.00174561 0.000859697,0.001677 0.00100274,0.0015956 0.00113813,0.00150202 0.00126484,0.00139699 0.0013819,0.00128131 0.00148843,0.00115585 0.0015836,0.00102158 0.00166669,0.000879513 0.00173707,0.00073074 0.00179421,0.000576393 0.00183766,0.00041765 0.00186709,0.000255722 0.711515,2.63131e-05 0.00248317,-0.000108134 0.00246434,-0.000323764 0.00242683,-0.000536939 0.00237091,-0.000746043 0.00229702,-0.000949488 0.0022057,-0.00114573 0.00209765,-0.00133329 0.0019737,-0.00151073 0.00183478,-0.00167672 0.00168194,-0.00182999 0.00151635,-0.00196939 0.00133926,-0.00209384 0.00115202,-0.00220242 0.000956033,-0.0022943 0.000752799,-0.00236878 0.000543856,-0.00242529 0,-0.0649651 0.257924,0.257067 -1.13326,0 z "/>
</g></g></svg>
