<?xml version="1.0" encoding="UTF-8" standalone="no"?>
<!DOCTYPE svg PUBLIC "-//W3C//DTD SVG 1.1//EN" "http://www.w3.org/Graphics/SVG/1.1/DTD/svg11-flat.dtd"
[

]>
<svg xmlns="http://www.w3.org/2000/svg"  viewBox="-0.09375 -0.09375 7.6875 7.6875"><g fill="none" stroke="black" stroke-width="0.0125" transform="translate(0,7.5) scale(1, -1)">
<g id="Output" >
<path fill="rgb(0,91,140)" stroke="rgb(0,91,140)" d="M 7.1,3.75 l -0.0114859,0.277171 -0.034379,0.27527 -0.0570363,0.271482 -0.0793025,0.265832 -0.111831,0.282679 -0.136996,0.271378 -0.161033,0.257841 -1.41072,-1.40603 0.0872867,0.0248566 0.0890871,0.0173293 0.0902396,0.00967601 0.0907359,0.00195235 0.0905723,-0.00578551 0.08975,-0.0134813 0.0882751,-0.021079 0.0861581,-0.0285235 0.0834146,-0.0357605 0.0800645,-0.0427375 0.0761321,-0.0494036 0.071646,-0.0557105 0.0666389,-0.0616122 0.0611472,-0.0670658 1.57208e-13,-1.8785e-13 0.0568022,-0.0743832 0.0499755,-0.0791316 0.0427541,-0.0832553 0.0351953,-0.0867217 0.0273586,-0.0895034 0.0193059,-0.0915786 0.0111008,-0.0929308 0.00280804,-0.0935493 -0.00550687,-0.0934293 -0.0137783,-0.0925717 -0.021941,-0.0909832 -0.0299304,-0.0886765 -0.0376836,-0.0856697 -0.0451392,-0.0819866 -0.0522385,-0.0776562 -0.0589254,-0.0727128 -0.0651471,-0.0671953 -0.0708545,-0.0611473 -0.0760025,-0.0546166 -0.0805505,-0.0476547 -3.37508e-14,-1.77636e-14 -0.0852645,-0.0407184 -0.0885303,-0.0330214 -0.0911029,-0.0250658 -0.0929621,-0.016914 -0.0940933,-0.00862964 -0.0944878,-0.000277762 -0.0941424,0.00807629 -0.0930599,0.0163671 -0.0912487,0.0245298 -0.0887229,0.0325003 -0.0855024,0.0402164 -0.0816124,0.0476176 -0.0770834,0.0546459 -0.0719507,0.0612464 -0.0662547,0.0673672 -0.0600399,0.0729605 -0.0533549,0.0779826 -0.0462522,0.082394 -0.0387872,0.0861602 -0.0310186,0.0892517 -0.0230071,0.0916444 -0.0148154,0.0933195 -0.390207,0 -2.14329,-2.13617 0.245477,-0.155146 0.257991,-0.133304 0.268566,-0.11046 0.277124,-0.0867861 0.283598,-0.0624601 0.287942,-0.0376648 0.290122,-0.0125865 0.291972,0.0127478 0.28975,0.0381463 0.285322,0.0632545 0.278724,0.0878812 0.270004,0.111839 0.259229,0.134946 0.246481,0.157026 0.231857,0.17791 0.215469,0.197441 0.197441,0.215469 0.17791,0.231857 0.157026,0.246481 0.134946,0.259229 0.111839,0.270004 0.0878812,0.278724 0.0632545,0.285322 0.0381463,0.28975 0.0127478,0.291972 z "/>
<path fill="rgb(0,91,140)" stroke="rgb(0,91,140)" d="M 0.4,3.75 l 0.0124489,-0.288536 0.0372542,-0.286391 0.0617827,-0.282118 0.0858519,-0.275748 0.109283,-0.267329 0.131902,-0.256923 0.153541,-0.244608 0.495192,0.493547 -0.0406119,0.0264489 -0.0393574,0.028282 -0.0380202,0.0300556 -9.76996e-14,8.08242e-14 -0.0682969,0.0617571 -0.0626987,0.0674335 -0.0566305,0.0726043 -0.0501378,0.0772309 -0.0432692,0.0812784 -0.0360762,0.0847167 -0.0286127,0.0875198 -0.0209348,0.0896668 -0.0130999,0.0911416 -0.00516679,0.0919332 0.00280504,0.0920355 0.0107558,0.0914479 0.018626,0.0901747 0.0263565,0.0882255 0.0338895,0.0856149 0.0411684,0.0823624 0.0481386,0.0784925 0.054748,0.0740342 0.0609469,0.0690208 0.066689,0.06349 0.0719311,0.0574833 0.0766339,0.0510456 0.0807622,0.0442252 0.0842851,0.0370733 0.0871761,0.0296435 0.0894136,0.0219914 0.0909807,0.0141744 0.0918658,0.00625123 0.0920622,-0.00171884 0.0915684,-0.00967602 0.0903882,-0.0175607 0.379082,1.08197 0.0100808,0.0302046 0.0126392,0.0292266 0.0151041,0.0280323 0.0174572,0.0266306 0.0196812,0.0250318 0.0217595,0.0232479 0.0236769,0.0212919 0.0254191,0.0191784 0.0269732,0.016923 0.0283277,0.0145424 0.0294727,0.0120542 0.0303995,0.00947679 0.0311015,0.00682928 0.0315733,0.00413123 0.0318115,0.00140263 0.315854,0.000328944 0,-0.221099 -0.276438,0 -0.0145561,0.00110563 -0.0145968,-0.000189542 -0.0145224,-0.00148322 -0.0143337,-0.0027652 -0.014032,-0.0040254 -0.0136198,-0.00525388 -0.0131002,-0.00644097 -0.0124774,-0.0075773 -0.0117563,-0.00865393 -0.0109426,-0.00966237 -0.0100426,-0.0105947 -0.00906353,-0.0114435 -0.00801302,-0.0122022 -0.00689938,-0.0128647 -0.00573138,-0.0134258 -0.126436,-0.33685 1.3516,0 0.228886,0.228126 -0.00886012,0.00374866 -0.00850077,0.00450457 -0.00807707,0.00522638 -0.00759225,0.00590863 -0.00704996,0.00654617 -0.0064543,0.00713415 -0.0058098,0.00766814 -0.00512132,0.00814409 -0.00439408,0.0085584 -0.00363359,0.00890793 -0.00284559,0.00919004 -0.00203605,0.00940259 -0.0012111,0.00954397 -0.000376987,0.00961312 0.000459981,0.0096095 0.00129347,0.00953316 0.00211716,0.00938466 0.00292484,0.00916512 0.00371037,0.00887622 0.00446782,0.00852014 0.00519146,0.00809956 0.0058758,0.00761769 0.00651567,0.00707815 0.00710622,0.00648505 0.00764299,0.00584285 0.0081219,0.00515644 0.00853935,0.00443099 0.00889216,0.00367201 0.00917767,0.00288524 0.00939371,0.00207663 0.00953865,0.0012523 0.0096114,0.000418488 0.176297,0 1.09604,1.0924 -0.243663,0.154106 -0.256011,0.132584 -0.266462,0.110081 -0.274941,0.0867626 -0.281382,0.0628015 -0.28574,0.0383752 -0.287982,0.0136646 -0.28809,-0.0111471 -0.286065,-0.0358763 -0.281921,-0.0603397 -0.275688,-0.0843563 -0.267414,-0.107748 -0.25716,-0.130342 -0.245,-0.15197 -0.231026,-0.172473 -0.215341,-0.191698 -0.198061,-0.209504 -0.185597,-0.234435 -0.163953,-0.250051 -0.141004,-0.263674 -0.116931,-0.275196 -0.0919268,-0.284527 -0.0661902,-0.29159 -0.0399262,-0.296331 -0.0133442,-0.29871 z "/>
<path fill="rgb(0,91,140)" stroke="rgb(0,91,140)" d="M 3.11641,3.96563 l -0.504971,0.558977 -0.110582,-0.323807 0.0768804,-0.0410433 0.0732591,-0.0472043 0.0691453,-0.0530479 0.0645664,-0.0585348 0.0595534,-0.0636281 0.05414,-0.0682935 0.0483625,-0.0724998 0.169646,0.169082 z "/>
<path fill="rgb(0,91,140)" stroke="rgb(0,91,140)" d="M 4.96502,3.93227 l 0.30009,-0.576529 -0.663426,0 0.0125258,0.0691008 0.0183549,0.0677858 0.024051,0.06598 0.0295731,0.0636965 0.034881,0.0609519 0.0399364,0.0577659 0.0447026,0.0541617 0.0491451,0.0501654 0.0532319,0.0458059 0.0569332,0.0411147 z "/>
<path fill="rgb(0,91,140)" stroke="rgb(0,91,140)" d="M 4.20437,3.35574 l 0.211851,0.211147 -0.0193843,-0.0693193 -0.0145381,-0.0704951 -0.00962209,-0.0713325 -0.168306,0 z "/>
<path fill="rgb(0,91,140)" stroke="rgb(0,91,140)" d="M 2.70621,4.75368 l 1.20087,0 -0.633431,-0.631327 -0.567442,0.631327 z "/>
<path fill="rgb(0,91,140)" stroke="rgb(0,91,140)" d="M 2.4219,3.98754 l 0.0640205,-0.0358916 0.0606156,-0.0413833 0.0567409,-0.0465543 0.0524264,-0.0513644 0.0477056,-0.0557764 0.042615,-0.0597561 0.0371941,-0.0632727 -1.13152,-1.12776 -0.0651321,0.0383272 -0.061415,0.0440381 -0.0571987,0.049391 -0.0525174,0.0543423 -0.0474091,0.0588518 -0.0419154,0.0628829 -0.0360809,0.0664028 -0.0299531,0.0693828 -0.0235818,0.0717987 -0.0170188,0.073631 -0.0103174,0.0748646 -0.00353213,0.0754896 -8.88178e-16,1.33227e-14 8.88178e-16,3.64153e-14 0.0029011,0.0707954 0.00891694,0.0702915 0.014868,0.0692773 0.0207112,0.0677602 0.026404,0.0657513 0.0319052,0.063265 0.0371747,0.0603195 0.0421744,0.0569361 0.046868,0.0531394 0.0512213,0.048957 0.0552028,0.0444191 0.0587835,0.0395588 0.0619375,0.0344114 0.064642,0.0290141 0.0668771,0.0234063 0.0686268,0.0176285 0.0698783,0.0117227 0.0706226,0.00573187 0.0708542,-0.000300585 0.0705714,-0.00633086 0.0697763,-0.0123152 -0.276438,-0.781881 -0.00283013,-0.00927021 -0.0020133,-0.0094812 -0.00118123,-0.00962035 -0.0003402,-0.00968663 0.000503403,-0.00967952 0.00134319,-0.00959908 0.00217281,-0.00944592 0.00298596,-0.0092212 0.00377649,-0.00892662 0.00453842,-0.00856442 0.00526596,-0.00813733 0.0059536,-0.0076486 0.00659615,-0.00710193 0.00718872,-0.00650145 0.00772683,-0.00585171 0.00820641,-0.00515765 0.00862381,-0.00442451 0.00897589,-0.00365786 0.00925996,-0.00286349 0.00947389,-0.00204743 0.00961604,-0.00121586 0.00968534,-0.000375078 0.00968127,0.000468545 0.00960385,0.00130862 0.00945368,0.00213878 0.00923189,0.00295274 0.00894016,0.00374432 0.00858071,0.00450755 0.00815624,0.00523662 0.00766999,0.00592602 0.00712563,0.00657053 0.00652729,0.00716526 0.0058795,0.00770571 0.00518717,0.00818778 0.00445554,0.00860783 0.00369016,0.00896266 0.00289682,0.00924959 4.72085e-05,0.000178072 4.69138e-05,0.00017815 4.6619e-05,0.000178228 0.000173923,0.000675843 0.000169685,0.000676919 0.000165439,0.000677969 0.268532,0.773975 z "/>
<path fill="rgb(0,91,140)" stroke="rgb(0,91,140)" d="M 4.60168,3.13458 l 0.845061,0 0.00921311,0.000395761 0.00914523,0.00118437 0.00900998,0.00196425 0.00880835,0.00272966 0.00854182,0.00347495 0.00821236,0.00419465 0.0078224,0.00488344 0.00737481,0.00553626 0.00687289,0.00614829 0.00632033,0.00671502 0.0057212,0.00723228 0.00507993,0.00769625 0.00440123,0.00810353 0.0036901,0.0084511 0.00295179,0.00873641 0.00219173,0.00895736 0.00141553,0.00911232 0.000628893,0.00920014 -0.000162375,0.00922018 -0.000952447,0.00917229 -0.0017355,0.00905682 -0.00250577,0.00887463 -0.00325758,0.00862706 -0.00398539,0.00831593 -7.10543e-15,1.33227e-14 -0.379082,0.742417 0.0685219,0.0202673 0.0700041,0.0143333 0.0709734,0.0082943 0.0714227,0.00219453 0.0713487,-0.00392132 0.070752,-0.0100084 0.0696369,-0.0160222 0.0680117,-0.0219186 0.0658881,-0.0276545 0.0632818,-0.0331877 0.0602119,-0.0384777 0.0567009,-0.0434859 0.0527744,-0.0481754 0.0484613,-0.052512 0.0437931,-0.0564639 0.0388041,-0.0600021 0.0335308,-0.0631007 0.0280118,-0.065737 0.0222876,-0.0678916 0.0164001,-0.0695489 0.0103925,-0.0706966 0.00430869,-0.0713263 -0.00180667,-0.0714335 -0.00790879,-0.0710173 -0.0146419,-0.0729322 -0.0210533,-0.071346 -0.0272988,-0.0691973 -0.0333291,-0.0665031 -0.0390966,-0.0632847 -0.0445559,-0.0595673 -0.0496639,-0.0553804 -0.0543805,-0.0507568 -0.0586683,-0.0457332 -0.0624936,-0.040349 -0.0658263,-0.0346467 -0.06864,-0.0286713 -0.0709126,-0.0224698 -0.0726262,-0.0160913 -0.0737672,-0.00958583 -0.0743267,-0.00300482 -0.0743003,0.00359987 -0.0743103,0.0102998 -0.073087,0.0169232 -0.0712746,0.0234103 -0.0688876,0.0297086 -0.0659454,0.0357675 -0.0624716,0.0415381 -0.0584942,0.0469738 -0.0540453,0.0520309 -0.0491608,0.0566686 -0.0438799,0.0608495 -0.0382454,0.0645399 -0.0323026,0.06771 -0.0260994,0.0703344 -0.0196859,0.0723918 -0.0131136,0.0738657 z "/>
<path fill="rgb(0,91,140)" stroke="rgb(0,91,140)" d="M 1.06776,6.07553 l -0.151112,0.131016 -0.207757,-0.262428 -0.18353,-0.279907 -0.15784,-0.295157 -0.130893,-0.308056 -0.102903,-0.3185 -0.0740935,-0.326407 -0.0446935,-0.331713 -0.0149375,-0.334377 0.0142699,-0.326834 0.042701,-0.324347 0.0708072,-0.319391 0.0983745,-0.312004 0.125193,-0.302243 0.151059,-0.290182 0.175775,-0.275912 0.199154,-0.259542 0.221016,-0.241197 0.241197,-0.221016 0.259542,-0.199154 0.275912,-0.175775 0.290182,-0.151059 0.302243,-0.125193 0.312004,-0.0983745 0.319391,-0.0708072 0.324347,-0.042701 0.326834,-0.0142699 0,0.2 -0.309403,0.0135088 -0.307048,0.0404237 -0.302357,0.0670308 -0.295364,0.0931279 -0.286123,0.118516 -0.274705,0.143002 -0.261196,0.1664 -0.2457,0.188532 -0.228333,0.209229 -0.209229,0.228333 -0.188532,0.2457 -0.1664,0.261196 -0.143002,0.274705 -0.118516,0.286123 -0.0931279,0.295364 -0.0670308,0.302357 -0.0404237,0.307048 -0.0135088,0.309403 0.0141408,0.316544 0.0423099,0.314022 0.0701418,0.308999 0.097415,0.301513 0.123912,0.291626 0.149422,0.279416 0.173742,0.264979 0.196677,0.248431 z "/>
<path fill="rgb(0,91,140)" stroke="rgb(0,91,140)" d="M 7.5,3.75 l -0.0128574,0.310266 -0.0384839,0.308138 -0.0638466,0.303898 -0.0887715,0.297573 -0.189122,-0.06506 0.084037,-0.281703 0.0604415,-0.28769 0.0364315,-0.291704 0.0121716,-0.293718 -0.0135088,-0.309403 -0.0404237,-0.307048 -0.0670308,-0.302357 -0.0931279,-0.295364 -0.118516,-0.286123 -0.143002,-0.274705 -0.1664,-0.261196 -0.188532,-0.2457 -0.209229,-0.228333 -0.228333,-0.209229 -0.2457,-0.188532 -0.261196,-0.1664 -0.274705,-0.143002 -0.286123,-0.118516 -0.295364,-0.0931279 -0.302357,-0.0670308 -0.307048,-0.0404237 -0.309403,-0.0135088 0,-0.2 0.326834,0.0142699 0.324347,0.042701 0.319391,0.0708072 0.312004,0.0983745 0.302243,0.125193 0.290182,0.151059 0.275912,0.175775 0.259542,0.199154 0.241197,0.221016 0.221016,0.241197 0.199154,0.259542 0.175775,0.275912 0.151059,0.290182 0.125193,0.302243 0.0983745,0.312004 0.0708072,0.319391 0.042701,0.324347 0.0142699,0.326834 z "/>
<path fill="rgb(0,91,140)" stroke="rgb(0,91,140)" d="M 1.06776,6.07553 l 0.213058,0.225086 0.231878,0.205645 0.248931,0.184636 0.264087,0.162221 0.27723,0.138568 0.288259,0.11386 0.297092,0.0882837 0.30366,0.0620345 0.307913,0.0353125 0.30982,0.00832127 0.309365,-0.0187333 0.306552,-0.0456452 0.301402,-0.0722091 0.293955,-0.0982226 0.284268,-0.123487 0.272414,-0.147811 0.258483,-0.171008 0.242583,-0.192902 0.224833,-0.213325 0.20537,-0.232122 0.184341,-0.24915 0.161907,-0.264279 0.138239,-0.277394 0.113518,-0.288394 0.189122,0.06506 -0.119913,0.304642 -0.146028,0.293022 -0.171029,0.279168 -0.194726,0.263187 -0.21694,0.245199 -0.2375,0.225343 -0.256249,0.203769 -0.273046,0.180642 -0.287761,0.156138 -0.300283,0.130445 -0.310516,0.103756 -0.318383,0.0762772 -0.323822,0.0482167 -0.326794,0.0197887 -0.327274,-0.00879008 -0.32526,-0.0373019 -0.320767,-0.0655294 -0.313829,-0.0932574 -0.304499,-0.120275 -0.292848,-0.146375 -0.278965,-0.17136 -0.262956,-0.195039 -0.244942,-0.217231 -0.225061,-0.237767 0.151112,-0.131016 z "/>
<path fill="rgb(241,240,234)" stroke="rgb(241,240,234)" d="M 6.26605,3.18739 l 0.22527,0 0.00234815,0.0398385 -0.00280804,0.0935493 -0.0111008,0.0929308 -0.0193059,0.0915786 -0.0273586,0.0895034 -0.0351953,0.0867217 -0.0427541,0.0832553 -0.0499755,0.0791316 -0.0568022,0.0743832 -1.57208e-13,1.8785e-13 -0.0611472,0.0670658 -0.0666389,0.0616122 -0.071646,0.0557105 -0.0664655,0.0431308 0,-0.272506 0.0395212,-0.0360772 0.0484613,-0.052512 0.0437931,-0.0564639 0.0388041,-0.0600021 0.0335308,-0.0631007 0.0280118,-0.065737 0.0222876,-0.0678916 0.0164001,-0.0695489 0.0103925,-0.0706966 0.00430869,-0.0713263 -0.00180667,-0.0714335 -0.000124306,-0.00111621 z "/>
<path fill="rgb(241,240,234)" stroke="rgb(241,240,234)" d="M 4.56478,5.4092 l -0.176297,0 -0.0096114,-0.000418488 -0.00953865,-0.0012523 -0.00939371,-0.00207663 -0.00917767,-0.00288524 -0.00889216,-0.00367201 -0.00853935,-0.00443099 -0.0081219,-0.00515644 -0.00764299,-0.00584285 -0.00710622,-0.00648505 -0.00651567,-0.00707815 -0.0058758,-0.00761769 -0.00519146,-0.00809956 -0.00446782,-0.00852014 -0.00371037,-0.00887622 -0.00292484,-0.00916512 -0.00211716,-0.00938466 -0.00129347,-0.00953316 -0.000459981,-0.0096095 0.000376987,-0.00961312 0.0012111,-0.00954397 0.00203605,-0.00940259 0.00284559,-0.00919004 0.00363359,-0.00890793 0.00439408,-0.0085584 0.00512132,-0.00814409 0.0058098,-0.00766814 0.0064543,-0.00713415 0.00704996,-0.00654617 0.00759225,-0.00590863 0.00807707,-0.00522638 0.00850077,-0.00450457 0.00886012,-0.00374866 0.214915,0.214201 z "/>
<path fill="rgb(241,240,234)" stroke="rgb(241,240,234)" d="M 6.26605,3.18739 l -0.00778448,-0.0699011 -0.0146419,-0.0729322 -0.0210533,-0.071346 -0.0272988,-0.0691973 -0.0333291,-0.0665031 -0.0390966,-0.0632847 -0.0445559,-0.0595673 -0.0496639,-0.0553804 -0.0461565,-0.0430809 0,-0.275759 0.0340508,0.0201449 0.0760025,0.0546166 0.0708545,0.0611473 0.0651471,0.0671953 0.0589254,0.0727128 0.0522385,0.0776562 0.0451392,0.0819866 0.0376836,0.0856697 0.0299304,0.0886765 0.021941,0.0909832 0.0137783,0.0925717 0.00315872,0.0535907 -0.22527,0 z "/>
<path fill="rgb(241,240,234)" stroke="rgb(241,240,234)" d="M 2.4219,3.98754 l 0.0640205,-0.0358916 0.0606156,-0.0413833 0.0567409,-0.0465543 0.0524264,-0.0513644 0.0477056,-0.0557764 0.042615,-0.0597561 0.0371941,-0.0632727 0.163548,0.163005 -0.0483625,0.0724998 -0.05414,0.0682935 -0.0595534,0.0636281 -0.0645664,0.0585348 -0.0691453,0.0530479 -0.0732591,0.0472043 -0.0768804,0.0410433 0.110582,0.323807 0.504971,-0.558977 0.157241,0.156719 -0.567442,0.631327 1.20087,0 0.213904,0.213193 -1.3516,0 0.126436,0.33685 0.00573138,0.0134258 0.00689938,0.0128647 0.00801302,0.0122022 0.00906353,0.0114435 0.0100426,0.0105947 0.0109426,0.00966237 0.0117563,0.00865393 0.0124774,0.0075773 0.0131002,0.00644097 0.0136198,0.00525388 0.014032,0.0040254 0.0143337,0.0027652 0.0145224,0.00148322 0.0145968,0.000189542 0.0145561,-0.00110563 0.276438,0 0,0.221099 -0.315854,-0.000328944 -0.0318115,-0.00140263 -0.0315733,-0.00413123 -0.0311015,-0.00682928 -0.0303995,-0.00947679 -0.0294727,-0.0120542 -0.0283277,-0.0145424 -0.0269732,-0.016923 -0.0254191,-0.0191784 -0.0236769,-0.0212919 -0.0217595,-0.0232479 -0.0196812,-0.0250318 -0.0174572,-0.0266306 -0.0151041,-0.0280323 -0.0126392,-0.0292266 -0.0100808,-0.0302046 -0.379082,-1.08197 -0.0903882,0.0175607 -0.0915684,0.00967602 -0.0920622,0.00171884 -0.0918658,-0.00625123 -0.0909807,-0.0141744 -0.0894136,-0.0219914 -0.0871761,-0.0296435 -0.0842851,-0.0370733 -0.0807622,-0.0442252 -0.0766339,-0.0510456 -0.0719311,-0.0574833 -0.066689,-0.06349 -0.0609469,-0.0690208 -0.054748,-0.0740342 -0.0481386,-0.0784925 -0.0411684,-0.0823624 -0.0338895,-0.0856149 -0.0263565,-0.0882255 -0.018626,-0.0901747 -0.0107558,-0.0914479 -0.00280504,-0.0920355 0.00516679,-0.0919332 0.0130999,-0.0911416 0.0209348,-0.0896668 0.0286127,-0.0875198 0.0360762,-0.0847167 0.0432692,-0.0812784 0.0501378,-0.0772309 0.0566305,-0.0726043 0.0626987,-0.0674335 0.0682969,-0.0617571 9.76996e-14,-8.08242e-14 0.0380202,-0.0300556 0.0393574,-0.028282 0.0406119,-0.0264489 0.164441,0.163895 -0.0651321,0.0383272 -0.061415,0.0440381 -0.0571987,0.049391 -0.0525174,0.0543423 -0.0474091,0.0588518 -0.0419154,0.0628829 -0.0360809,0.0664028 -0.0299531,0.0693828 -0.0235818,0.0717987 -0.0170188,0.073631 -0.0103174,0.0748646 -0.00353213,0.0754896 -8.88178e-16,1.33227e-14 8.88178e-16,3.64153e-14 0.0029011,0.0707954 0.00891694,0.0702915 0.014868,0.0692773 0.0207112,0.0677602 0.026404,0.0657513 0.0319052,0.063265 0.0371747,0.0603195 0.0421744,0.0569361 0.046868,0.0531394 0.0512213,0.048957 0.0552028,0.0444191 0.0587835,0.0395588 0.0619375,0.0344114 0.064642,0.0290141 0.0668771,0.0234063 0.0686268,0.0176285 0.0698783,0.0117227 0.0706226,0.00573187 0.0708542,-0.000300585 0.0705714,-0.00633086 0.0697763,-0.0123152 -0.276438,-0.781881 -0.00283013,-0.00927021 -0.0020133,-0.0094812 -0.00118123,-0.00962035 -0.0003402,-0.00968663 0.000503403,-0.00967952 0.00134319,-0.00959908 0.00217281,-0.00944592 0.00298596,-0.0092212 0.00377649,-0.00892662 0.00453842,-0.00856442 0.00526596,-0.00813733 0.0059536,-0.0076486 0.00659615,-0.00710193 0.00718872,-0.00650145 0.00772683,-0.00585171 0.00820641,-0.00515765 0.00862381,-0.00442451 0.00897589,-0.00365786 0.00925996,-0.00286349 0.00947389,-0.00204743 0.00961604,-0.00121586 0.00968534,-0.000375078 0.00968127,0.000468545 0.00960385,0.00130862 0.00945368,0.00213878 0.00923189,0.00295274 0.00894016,0.00374432 0.00858071,0.00450755 0.00815624,0.00523662 0.00766999,0.00592602 0.00712563,0.00657053 0.00652729,0.00716526 0.0058795,0.00770571 0.00518717,0.00818778 0.00445554,0.00860783 0.00369016,0.00896266 0.00289682,0.00924959 4.72085e-05,0.000178072 4.69138e-05,0.00017815 4.6619e-05,0.000178228 0.000173923,0.000675843 0.000169685,0.000676919 0.000165439,0.000677969 0.268532,0.773975 z "/>
<path fill="rgb(241,240,234)" stroke="rgb(241,240,234)" d="M 4.98247,3.89874 l 0,0.232518 -0.566249,-0.564368 -0.0193843,-0.0693193 -0.0145381,-0.0704951 -0.00962209,-0.0713325 -0.168306,0 -0.168916,-0.168355 0.947015,0 0,0.168355 -0.380789,0 0.0125258,0.0691008 0.0183549,0.0677858 0.024051,0.06598 0.0295731,0.0636965 0.034881,0.0609519 0.0399364,0.0577659 0.0447026,0.0541617 0.0491451,0.0501654 0.0532319,0.0458059 0.0569332,0.0411147 0.0174537,-0.0335318 z "/>
<path fill="rgb(241,240,234)" stroke="rgb(241,240,234)" d="M 4.98247,3.13458 l 0,0.0528087 -0.947015,0 -0.0529847,-0.0528087 0.390207,0 0.0148154,-0.0933195 0.0230071,-0.0916444 0.0310186,-0.0892517 0.0387872,-0.0861602 0.0462522,-0.082394 0.0533549,-0.0779826 0.0600399,-0.0729605 0.0662547,-0.0673672 0.0719507,-0.0612464 0.0770834,-0.0546459 0.0816124,-0.0476176 0.0456169,-0.0214561 0,0.250254 -0.0457617,0.0304275 -0.0584942,0.0469738 -0.0540453,0.0520309 -0.0491608,0.0566686 -0.0438799,0.0608495 -0.0382454,0.0645399 -0.0323026,0.06771 -0.0260994,0.0703344 -0.0196859,0.0723918 -0.0131136,0.0738657 0.380789,0 z "/>
<path fill="rgb(241,240,234)" stroke="rgb(241,240,234)" d="M 1.94011,3.27675 l -0.00283013,-0.00927021 -0.0020133,-0.0094812 -0.00118123,-0.00962035 -0.0003402,-0.00968663 0.000503403,-0.00967952 0.00134319,-0.00959908 0.00217281,-0.00944592 0.00298596,-0.0092212 0.00377649,-0.00892662 0.00453842,-0.00856442 0.00526596,-0.00813733 0.0059536,-0.0076486 0.00659615,-0.00710193 0.00718872,-0.00650145 0.00772683,-0.00585171 0.00820641,-0.00515765 0.00862381,-0.00442451 0.00897589,-0.00365786 0.00925996,-0.00286349 0.00947389,-0.00204743 0.00961604,-0.00121586 0.00968534,-0.000375078 0.00968127,0.000468545 0.00960385,0.00130862 0.00945368,0.00213878 0.00923189,0.00295274 0.00894016,0.00374432 0.00858071,0.00450755 0.00815624,0.00523662 0.00766999,0.00592602 0.00712563,0.00657053 0.00652729,0.00716526 0.0058795,0.00770571 0.00518717,0.00818778 0.00445554,0.00860783 0.00369016,0.00896266 0.00289682,0.00924959 -0.00289682,-0.00924959 -0.00369016,-0.00896266 -0.00445554,-0.00860783 -0.00518717,-0.00818778 -0.0058795,-0.00770571 -0.00652729,-0.00716526 -0.00712563,-0.00657053 -0.00766999,-0.00592602 -0.00815624,-0.00523662 -0.00858071,-0.00450755 -0.00894016,-0.00374432 -0.00923189,-0.00295274 -0.00945368,-0.00213878 -0.00960385,-0.00130862 -0.00968127,-0.000468545 -0.00968534,0.000375078 -0.00961604,0.00121586 -0.00947389,0.00204743 -0.00925996,0.00286349 -0.00897589,0.00365786 -0.00862381,0.00442451 -0.00820641,0.00515765 -0.00772683,0.00585171 -0.00718872,0.00650145 -0.00659615,0.00710193 -0.0059536,0.0076486 -0.00526596,0.00813733 -0.00453842,0.00856442 -0.00377649,0.00892662 -0.00298596,0.0092212 -0.00217281,0.00944592 -0.00134319,0.00959908 -0.000503403,0.00967952 0.0003402,0.00968663 0.00118123,0.00962035 0.0020133,0.0094812 0.00283013,0.00927021 z "/>
<path fill="rgb(241,240,234)" stroke="rgb(241,240,234)" d="M 5.90664,4.18739 l -0.867855,0 -0.056318,-0.0561309 0,-0.232518 0.282637,-0.542997 -0.282637,0 0,-0.168355 0.55675,0 0.00404629,0.00745001 0.0036901,0.0084511 0.00295179,0.00873641 0.00219173,0.00895736 0.00141553,0.00911232 0.000628893,0.00920014 -0.000162375,0.00922018 -0.000952447,0.00917229 -0.0017355,0.00905682 -0.00250577,0.00887463 -0.00325758,0.00862706 -0.00398539,0.00831593 -7.10543e-15,1.33227e-14 -0.379082,0.742417 0.0685219,0.0202673 0.0700041,0.0143333 0.0709734,0.0082943 0.0714227,0.00219453 0.0713487,-0.00392132 0.070752,-0.0100084 0.0696369,-0.0160222 0.0680117,-0.0219186 0.0658881,-0.0276545 0.0632818,-0.0331877 0.0602119,-0.0384777 0.0567009,-0.0434859 0.0132532,-0.0120982 0,0.272506 -0.00966656,0.00627282 -0.0661602,0.0353155 z "/>
<path fill="rgb(241,240,234)" stroke="rgb(241,240,234)" d="M 5.90664,4.18739 l -0.0139043,0.00742194 -0.0834146,0.0357605 -0.0861581,0.0285235 -0.0882751,0.021079 -0.08975,0.0134813 -0.0905723,0.00578551 -0.0907359,-0.00195235 -0.0902396,-0.00967601 -0.0890871,-0.0173293 -0.0872867,-0.0248566 -0.0584317,-0.0582376 0.867855,0 z "/>
<path fill="rgb(241,240,234)" stroke="rgb(241,240,234)" d="M 5.53922,3.18739 l -0.55675,0 0,-0.0528087 0.464272,0 0.00921311,0.000395761 0.00914523,0.00118437 0.00900998,0.00196425 0.00880835,0.00272966 0.00854182,0.00347495 0.00821236,0.00419465 0.0078224,0.00488344 0.00737481,0.00553626 0.00687289,0.00614829 0.00632033,0.00671502 0.0057212,0.00723228 0.00507993,0.00769625 0.000354941,0.000653517 z M 5.98247,2.61619 l -0.00822396,-0.00767596 -0.0586683,-0.0457332 -0.0624936,-0.040349 -0.0658263,-0.0346467 -0.06864,-0.0286713 -0.0709126,-0.0224698 -0.0726262,-0.0160913 -0.0737672,-0.00958583 -0.0743267,-0.00300482 -0.0743003,0.00359987 -0.0743103,0.0102998 -0.073087,0.0169232 -0.0712746,0.0234103 -0.0688876,0.0297086 -0.0659454,0.0357675 -0.0167099,0.0111106 0,-0.250254 0.0398855,-0.0187603 0.0887229,-0.0325003 0.0912487,-0.0245298 0.0930599,-0.0163671 0.0941424,-0.00807629 0.0944878,0.000277762 0.0940933,0.00862964 0.0929621,0.016914 0.0911029,0.0250658 0.0885303,0.0330214 0.0852645,0.0407184 3.37508e-14,1.77636e-14 0.0464997,0.0275098 0,0.275759 z "/>
<path fill="rgb(241,240,234)" stroke="rgb(241,240,234)" d="M 4.10414,3.35574 l 0.15313,0.335101 0.551583,0.549751 0.0534513,-0.102971 -0.0765296,-0.0518847 -0.0716136,-0.0584833 -0.0661304,-0.0646187 -0.0601234,-0.0702423 -0.0536402,-0.0753095 -0.0467322,-0.0797803 -0.0394541,-0.0836192 -0.0318634,-0.0867959 -0.211851,-0.211147 -0.100226,0 z "/>
<path fill="rgb(241,240,234)" stroke="rgb(241,240,234)" d="M 3.86717,3.13458 l -0.0796035,0.088117 -2.11096,-2.10395 0.0533816,-0.0412 0.0542,-0.0401172 0.0549965,-0.0390181 2.14329,2.13617 -0.1153,0 z "/>
<path fill="rgb(241,240,234)" stroke="rgb(241,240,234)" d="M 3.86717,3.13458 l 0.1153,0 0.2219,0.221163 -0.100226,0 0.15313,0.335101 -0.469708,-0.468147 0.0796035,-0.088117 z "/>
<path fill="rgb(241,240,234)" stroke="rgb(241,240,234)" d="M 6.50794,5.65165 l -0.0388349,0.055126 -0.0399366,0.0543332 -0.0410221,0.0535184 -1.41614,-1.41143 0.0877511,-0.170773 0.0124333,0.00455518 0.012489,0.00440014 0.0125428,0.00424441 1.41072,1.40603 z "/>
<path fill="rgb(241,240,234)" stroke="rgb(241,240,234)" d="M 4.86231,4.13762 l -0.0765296,-0.0518847 -0.0716136,-0.0584833 -0.0661304,-0.0646187 -0.0601234,-0.0702423 -0.0536402,-0.0753095 -0.0467322,-0.0797803 -0.0394541,-0.0836192 -0.0318634,-0.0867959 0.680999,0.678736 -0.0125428,-0.00424441 -0.012489,-0.00440014 -0.0124333,-0.00455518 -0.0877511,0.170773 -0.163147,-0.162605 0.0534513,-0.102971 z "/>
<path fill="rgb(241,240,234)" stroke="rgb(241,240,234)" d="M 4.56478,5.4092 l -0.214915,-0.214201 0.00938257,-0.00302774 0.00961495,-0.00218003 0.0097709,-0.00131499 0.00984919,-0.000439493 0.237711,0 0.2219,0.221163 -0.283314,0 z "/>
<path fill="rgb(241,240,234)" stroke="rgb(241,240,234)" d="M 1.6517,2.50579 l 1.13152,1.12776 0.0315207,-0.0663835 0.0255523,-0.0689014 0.0193853,-0.070884 -1.00147,-0.998145 -0.0709898,0.0194319 -0.0690114,0.0255849 -0.0665008,0.0315405 z "/>
<path fill="rgb(241,240,234)" stroke="rgb(241,240,234)" d="M 3.03843,3.60554 l -0.0262911,0.0656593 -0.0306001,0.0637652 -0.0347735,0.0615887 -0.163548,-0.163005 0.0315207,-0.0663835 0.0255523,-0.0689014 0.0193853,-0.070884 0.178755,0.178161 z "/>
<path fill="rgb(241,240,234)" stroke="rgb(241,240,234)" d="M 5.8234,6.38126 l -0.0533816,0.0412 -0.0542,0.0401172 -0.0549965,0.0390181 -1.09604,-1.0924 0.283314,0 0.9753,0.97206 z "/>
<path fill="rgb(241,240,234)" stroke="rgb(241,240,234)" d="M 3.25064,3.81704 l 0.156883,0.156361 -0.133873,0.148945 -0.157241,-0.156719 0.134232,-0.148588 z "/>
<path fill="rgb(241,240,234)" stroke="rgb(241,240,234)" d="M 4.34987,5.195 l -0.228886,-0.228126 0.283314,0 0.2219,0.221163 -0.237711,0 -0.00984919,0.000439493 -0.0097709,0.00131499 -0.00961495,0.00218003 -0.00938257,0.00302774 z "/>
<path fill="rgb(241,240,234)" stroke="rgb(241,240,234)" d="M 1.48726,2.34189 l 0.0612749,-0.0351596 0.0634857,-0.0309899 0.0654132,-0.0266818 0.18077,0.180169 -0.0709898,0.0194319 -0.0690114,0.0255849 -0.0665008,0.0315405 -0.164441,-0.163895 z "/>
<path fill="rgb(241,240,234)" stroke="rgb(241,240,234)" d="M 3.25064,3.81704 l -0.134232,0.148588 -0.169646,-0.169082 0.0347735,-0.0615887 0.0306001,-0.0637652 0.0262911,-0.0656593 0.212213,0.211508 z "/>
<path fill="rgb(241,240,234)" stroke="rgb(241,240,234)" d="M 4.12098,4.96687 l -0.213904,-0.213193 0.283314,0 0.213904,0.213193 -0.283314,0 z "/>
<path fill="rgb(241,240,234)" stroke="rgb(241,240,234)" d="M 1.11186,1.68537 l 0.565573,0.563694 -0.0654132,0.0266818 -0.0634857,0.0309899 -0.0612749,0.0351596 -0.495192,-0.493547 0.0388349,-0.055126 0.0399366,-0.0543332 0.0410221,-0.0535184 z "/>
<path fill="rgb(241,240,234)" stroke="rgb(241,240,234)" d="M 3.40752,3.97341 l -0.133873,0.148945 0.633431,0.631327 0.283314,0 -0.782873,-0.780272 z "/>
<path fill="rgb(241,240,234)" stroke="rgb(241,240,234)" d="M 7.1,3.75 l -0.0127478,-0.291972 -0.0381463,-0.28975 -0.0632545,-0.285322 -0.0878812,-0.278724 -0.111839,-0.270004 -0.134946,-0.259229 -0.157026,-0.246481 -0.17791,-0.231857 -0.197441,-0.215469 -0.215469,-0.197441 -0.231857,-0.17791 -0.246481,-0.157026 -0.259229,-0.134946 -0.270004,-0.111839 -0.278724,-0.0878812 -0.285322,-0.0632545 -0.28975,-0.0381463 -0.291972,-0.0127478 0,-0.2 0.309403,0.0135088 0.307048,0.0404237 0.302357,0.0670308 0.295364,0.0931279 0.286123,0.118516 0.274705,0.143002 0.261196,0.1664 0.2457,0.188532 0.228333,0.209229 0.209229,0.228333 0.188532,0.2457 0.1664,0.261196 0.143002,0.274705 0.118516,0.286123 0.0931279,0.295364 0.0670308,0.302357 0.0404237,0.307048 0.0135088,0.309403 -0.0121716,0.293718 -0.0364315,0.291704 -0.0604415,0.28769 -0.084037,0.281703 -0.189122,-0.06506 0.0793025,-0.265832 0.0570363,-0.271482 0.034379,-0.27527 0.0114859,-0.277171 z "/>
<path fill="rgb(241,240,234)" stroke="rgb(241,240,234)" d="M 1.06776,6.07553 l -0.196677,-0.248431 -0.173742,-0.264979 -0.149422,-0.279416 -0.123912,-0.291626 -0.097415,-0.301513 -0.0701418,-0.308999 -0.0423099,-0.314022 -0.0141408,-0.316544 0.0135088,-0.309403 0.0404237,-0.307048 0.0670308,-0.302357 0.0931279,-0.295364 0.118516,-0.286123 0.143002,-0.274705 0.1664,-0.261196 0.188532,-0.2457 0.209229,-0.228333 0.228333,-0.209229 0.2457,-0.188532 0.261196,-0.1664 0.274705,-0.143002 0.286123,-0.118516 0.295364,-0.0931279 0.302357,-0.0670308 0.307048,-0.0404237 0.309403,-0.0135088 0,0.2 -0.290122,0.0125865 -0.287942,0.0376648 -0.283598,0.0624601 -0.277124,0.0867861 -0.268566,0.11046 -0.257991,0.133304 -0.245477,0.155146 -0.0549965,0.0390181 -0.0542,0.0401172 -0.0533816,0.0412 -0.203135,0.173638 -0.188648,0.189277 -0.172961,0.203711 -0.0410221,0.0535184 -0.0399366,0.0543332 -0.0388349,0.055126 -0.153541,0.244608 -0.131902,0.256923 -0.109283,0.267329 -0.0858519,0.275748 -0.0617827,0.282118 -0.0372542,0.286391 -0.0124489,0.288536 0.0133442,0.29871 0.0399262,0.296331 0.0661902,0.29159 0.0919268,0.284527 0.116931,0.275196 0.141004,0.263674 0.163953,0.250051 0.185597,0.234435 -0.151112,0.131016 z "/>
<path fill="rgb(241,240,234)" stroke="rgb(241,240,234)" d="M 5.8234,6.38126 l 0.203135,-0.173638 0.188648,-0.189277 0.172961,-0.203711 0.0410221,-0.0535184 0.0399366,-0.0543332 0.0388349,-0.055126 0.161033,-0.257841 0.136996,-0.271378 0.111831,-0.282679 0.189122,0.06506 -0.113518,0.288394 -0.138239,0.277394 -0.161907,0.264279 -0.184341,0.24915 -0.20537,0.232122 -0.224833,0.213325 -0.242583,0.192902 -0.258483,0.171008 -0.272414,0.147811 -0.284268,0.123487 -0.293955,0.0982226 -0.301402,0.0722091 -0.306552,0.0456452 -0.309365,0.0187333 -0.30982,-0.00832127 -0.307913,-0.0353125 -0.30366,-0.0620345 -0.297092,-0.0882837 -0.288259,-0.11386 -0.27723,-0.138568 -0.264087,-0.162221 -0.248931,-0.184636 -0.231878,-0.205645 -0.213058,-0.225086 0.151112,-0.131016 0.198061,0.209504 0.215341,0.191698 0.231026,0.172473 0.245,0.15197 0.25716,0.130342 0.267414,0.107748 0.275688,0.0843563 0.281921,0.0603397 0.286065,0.0358763 0.28809,0.0111471 0.287982,-0.0136646 0.28574,-0.0383752 0.281382,-0.0628015 0.274941,-0.0867626 0.266462,-0.110081 0.256011,-0.132584 0.243663,-0.154106 0.0549965,-0.0390181 0.0542,-0.0401172 0.0533816,-0.0412 z "/>
<path fill="rgb(187,30,16)" stroke="rgb(187,30,16)" d="M 4.64911,4.54833 l 0.159742,-0.307734 -0.551583,-0.549751 0.391841,0.857484 z "/>
<path fill="rgb(187,30,16)" stroke="rgb(187,30,16)" d="M 4.6262,5.18803 l -0.2219,-0.221163 0.197382,0 0.102708,0.221163 -0.0781902,0 z "/>
<path fill="rgb(187,30,16)" stroke="rgb(187,30,16)" d="M 2.57545,2.59864 l -1.56319e-13,-1.29674e-13 -0.0611097,-0.0456541 -0.0650073,-0.0399092 -0.0683664,-0.0338337 -0.0711593,-0.027478 -0.0733628,-0.0208947 -0.0749586,-0.0141383 -0.0759336,-0.00726483 -0.0762796,-0.000331181 -0.0759938,0.00660522 -0.0750786,0.0134869 1.00147,0.998145 0.0127212,-0.0697872 0.00674232,-0.070616 0.000714619,-0.0709335 -0.00531825,-0.0707375 -0.0113126,-0.0700293 -0.0172251,-0.0688141 -0.0230128,-0.0671006 -0.028634,-0.0649013 -0.0340478,-0.0622321 -0.039215,-0.0591123 -0.0440984,-0.0555645 -0.0486625,-0.0516144 -0.0528742,-0.0472906 z "/>
<path fill="rgb(187,30,16)" stroke="rgb(187,30,16)" d="M 4.76757,4.80105 l 0.17373,0.386988 0.260627,0 0,0.221163 -0.353827,0 -0.2219,-0.221163 0.0781902,0 -0.102708,-0.221163 -0.197382,0 -0.213904,-0.213193 0.308643,0 -0.600245,-1.32685 -0.49127,0.546579 -0.156883,-0.156361 0.536927,-0.59435 0.469708,0.468147 0.391841,0.857484 0.159742,-0.307734 0.163147,0.162605 -0.204434,0.39785 z "/>
<path fill="rgb(187,30,16)" stroke="rgb(187,30,16)" d="M 5.8234,6.38126 l -0.9753,-0.97206 0.353827,0 0,-0.221163 -0.260627,0 -0.17373,-0.386988 0.204434,-0.39785 1.41614,1.41143 -0.172961,0.203711 -0.188648,0.189277 -0.203135,0.173638 z "/>
<path fill="rgb(187,30,16)" stroke="rgb(187,30,16)" d="M 3.89879,3.42683 l -0.49127,0.546579 0.782873,0.780272 0.308643,0 -0.600245,-1.32685 z "/>
<path fill="rgb(187,30,16)" stroke="rgb(187,30,16)" d="M 1.11186,1.68537 l 0.172961,-0.203711 0.188648,-0.189277 0.203135,-0.173638 2.11096,2.10395 -0.536927,0.59435 -0.212213,-0.211508 0.0269054,-0.0853172 0.019635,-0.0872776 0.0122254,-0.0886197 0.00472923,-0.0893339 -0.00280048,-0.0894152 -0.0103103,-0.0888629 -0.0177471,-0.087681 -0.0250582,-0.0858779 -0.0321917,-0.0834662 -0.0390972,-0.0804632 -5.86198e-14,-1.09246e-13 -0.0485115,-0.0810947 -0.0555574,-0.0764402 -0.0621596,-0.0711752 -0.0682655,-0.0653418 -0.0738262,-0.0589866 -0.0787973,-0.0521604 -0.0831392,-0.0449176 -0.0868172,-0.0373161 -0.0898019,-0.0294167 -0.0920695,-0.0212823 -0.0936018,-0.012978 -0.0943866,-0.00457005 -0.0944178,0.00387441 -0.0936949,0.0122879 -0.0922238,0.0206033 -0.0900162,0.0287542 -0.565573,-0.563694 z "/>
<path fill="rgb(187,30,16)" stroke="rgb(187,30,16)" d="M 2.57545,2.59864 l -1.56319e-13,-1.29674e-13 -0.0611097,-0.0456541 -0.0650073,-0.0399092 -0.0683664,-0.0338337 -0.0711593,-0.027478 -0.0733628,-0.0208947 -0.0749586,-0.0141383 -0.0759336,-0.00726483 -0.0762796,-0.000331181 -0.0759938,0.00660522 -0.0750786,0.0134869 -0.18077,-0.180169 0.0900162,-0.0287542 0.0922238,-0.0206033 0.0936949,-0.0122879 0.0944178,-0.00387441 0.0943866,0.00457005 0.0936018,0.012978 0.0920695,0.0212823 0.0898019,0.0294167 0.0868172,0.0373161 0.0831392,0.0449176 0.0787973,0.0521604 0.0738262,0.0589866 0.0682655,0.0653418 0.0621596,0.0711752 0.0555574,0.0764402 0.0485115,0.0810947 5.86198e-14,1.09246e-13 0.0390972,0.0804632 0.0321917,0.0834662 0.0250582,0.0858779 0.0177471,0.087681 0.0103103,0.0888629 0.00280048,0.0894152 -0.00472923,0.0893339 -0.0122254,0.0886197 -0.019635,0.0872776 -0.0269054,0.0853172 -0.178755,-0.178161 0.0127212,-0.0697872 0.00674232,-0.070616 0.000714619,-0.0709335 -0.00531825,-0.0707375 -0.0113126,-0.0700293 -0.0172251,-0.0688141 -0.0230128,-0.0671006 -0.028634,-0.0649013 -0.0340478,-0.0622321 -0.039215,-0.0591123 -0.0440984,-0.0555645 -0.0486625,-0.0516144 -0.0528742,-0.0472906 z "/>
</g></g></svg>
