<?xml version="1.0" encoding="UTF-8" standalone="no"?>
<!DOCTYPE svg PUBLIC "-//W3C//DTD SVG 1.1//EN" "http://www.w3.org/Graphics/SVG/1.1/DTD/svg11-flat.dtd"
[

]>
<svg xmlns="http://www.w3.org/2000/svg"  viewBox="-0.09375 -0.09375 7.6875 7.6875"><g fill="none" stroke="black" stroke-width="0.0125" transform="translate(0,7.5) scale(1, -1)">
<g id="Output" >
<path fill="rgb(142,146,145)" stroke="rgb(142,146,145)" d="M 6.09002,3.77397 l -8.88178e-16,0.273726 -0.104965,0.12487 -0.211741,0.508543 -0.198106,0.0327118 -0.19947,0.0229812 -0.200355,0.0131957 -0.0773852,-0.136566 0.191827,-0.0109781 0.190855,-0.0221947 0.189227,-0.0333352 0.0219742,-0.056296 0.0838545,-0.208364 -0.00252287,0 -0.751244,0 0,-0.432503 0.27158,0 0,-0.07579 0.614321,0 -0.000497048,0.207053 0.0774857,0.000186011 5.64122e-06,-0.00234994 0.000686744,0 0,-0.204889 0.104469,0 z "/>
<path fill="rgb(142,146,145)" stroke="rgb(142,146,145)" d="M 5.02197,3.42695 l 0.646381,0 -8.88178e-16,-0.334807 0.000123969,-0.00283935 0.000370962,-0.00281774 0.000615133,-0.00277468 0.000854622,-0.00271051 0.00108761,-0.00262571 0.00131231,-0.00252093 0.00152703,-0.00239696 0.00173013,-0.00225475 0.00192006,-0.00209538 0.00209538,-0.00192006 0.00225475,-0.00173013 0.00239696,-0.00152703 0.00252093,-0.00131231 0.00262571,-0.00108761 0.00271051,-0.000854622 0.00277468,-0.000615133 0.00281774,-0.000370962 0.00283935,-0.000123969 0.215364,0 0.00283935,0.000123969 0.00281774,0.000370962 0.00277468,0.000615133 0.00271051,0.000854622 0.00262571,0.00108761 0.00252093,0.00131231 0.00239696,0.00152703 0.00225475,0.00173013 0.00209538,0.00192006 0.00192006,0.00209538 0.00173013,0.00225475 0.00152703,0.00239696 0.00131231,0.00252093 0.00108761,0.00262571 0.000854622,0.00271051 0.000615133,0.00277468 0.000370962,0.00281774 0.000123969,0.00283935 0,0.334807 0.0560981,0 0.0850529,0.135731 0,0.211289 -0.104469,0 0,-0.0823601 -0.0774859,0 0,0.00216476 -2.59833e-06,-6.23751e-09 -0.000192515,0.0801953 -0.614321,0 0,-0.0823601 -0.27158,0 0,-0.26466 z "/>
<path fill="rgb(142,146,145)" stroke="rgb(142,146,145)" d="M 5.02197,3.42695 l 0,0.26466 -0.302919,0 0,0.0823601 -0.0967325,0 -0.196639,-0.34702 0.59629,0 z "/>
<path fill="rgb(142,146,145)" stroke="rgb(142,146,145)" d="M 4.2175,3.05956 l 0.0935439,0 0.00283911,0.000123976 0.0028175,0.000370985 0.00277444,0.000615169 0.00271025,0.00085467 0.00262544,0.00108767 0.00252063,0.00131238 0.00239664,0.0015271 0.0022544,0.0017302 0.002095,0.00192013 0.00191965,0.00209544 0.00172969,0.00225479 0.00152656,0.00239699 0.00131181,0.00252093 0.00108707,0.00262568 0.000854058,0.00271045 0.000614542,0.00277458 0.000370348,0.00281758 0.000123334,0.00283914 0,0.189984 -0.126114,-0.222561 z "/>
<path fill="rgb(142,146,145)" stroke="rgb(142,146,145)" d="M 4.06311,3.39328 l 0.215714,0.380683 -0.174095,0 -0.000192515,-0.0801953 -2.59833e-06,6.23751e-09 0,-0.00216476 -0.0774859,0 0,0.0823601 -0.0917185,0 -0.0133857,-0.0236226 0,-0.187667 0.0850603,-0.135731 0.0561055,0 0,-0.0336629 z "/>
<path fill="rgb(142,146,145)" stroke="rgb(142,146,145)" d="M 4.27882,3.77397 l 0.288024,0.508293 -0.327461,0 -0.00252287,0 0.0331118,0.0822774 -0.217248,-0.383391 0.0524984,-0.000126027 -0.000497048,-0.207053 0.174095,0 z "/>
<path fill="rgb(142,146,145)" stroke="rgb(142,146,145)" d="M 3.93533,3.77397 l 0.0917185,0 0,0.161861 -0.0917185,-0.161861 z "/>
<path fill="rgb(142,146,145)" stroke="rgb(142,146,145)" d="M 4.83177,4.74979 l -0.120719,-0.00691312 -0.120462,-0.0104672 -0.120102,-0.0140121 -0.0932335,-0.164535 0.123415,0.0216704 0.124153,0.0169394 0.124709,0.0121837 0.0822398,0.145133 z "/>
<path fill="rgb(142,146,145)" stroke="rgb(142,146,145)" d="M 5.02197,4.28226 l -0.111627,0 -0.288024,-0.508293 0.0967325,0 0,0.07579 0.302919,0 0,0.432503 z "/>
<path fill="rgb(142,146,145)" stroke="rgb(142,146,145)" d="M 2.50937,3.69161 l -0.302919,0 0,0.0823601 -0.614517,0 0,-0.0823601 -0.0774859,0 0,0.0823601 -0.104469,0 0,-0.211289 0.0850529,-0.135731 0.0560981,0 0,-0.334807 0.000123969,-0.00283935 0.000370962,-0.00281774 0.000615133,-0.00277468 0.000854622,-0.00271051 0.00108761,-0.00262571 0.00131231,-0.00252093 0.00152703,-0.00239696 0.00173013,-0.00225475 0.00192006,-0.00209538 0.00209538,-0.00192006 0.00225475,-0.00173013 0.00239696,-0.00152703 0.00252093,-0.00131231 0.00262571,-0.00108761 0.00271051,-0.000854622 0.00277468,-0.000615133 0.00281774,-0.000370962 0.00283935,-0.000123969 0.215364,0 0.00283935,0.000123969 0.00281774,0.000370962 0.00277468,0.000615133 0.00271051,0.000854622 0.00262571,0.00108761 0.00252093,0.00131231 0.00239696,0.00152703 0.00225475,0.00173013 0.00209538,0.00192006 0.00192006,0.00209538 0.00173013,0.00225475 0.00152703,0.00239696 0.00131231,0.00252093 0.00108761,0.00262571 0.000854622,0.00271051 0.000615133,0.00277468 0.000370962,0.00281774 0.000123969,0.00283935 0,0.334807 0.677719,4.44089e-16 0,0.26466 z "/>
<path fill="rgb(142,146,145)" stroke="rgb(142,146,145)" d="M 2.50937,3.69161 l 0,-0.26466 0.198835,-4.44089e-16 0.196639,0.34702 -0.123894,0 0,-0.0823601 -0.27158,0 z "/>
<path fill="rgb(142,146,145)" stroke="rgb(142,146,145)" d="M 3.57806,3.77397 l -0.105299,0 0.000192069,-0.0800093 -0.0774857,-0.000186011 -0.000192515,0.0801953 -0.146933,0 -0.196639,-0.34702 0.104686,0 0,-0.334821 0.00012938,-0.00289285 0.000385809,-0.00286993 0.000639189,-0.00282432 0.000887516,-0.00275638 0.00112883,-0.00266666 0.00136122,-0.00255586 0.00158285,-0.00242486 0.00179197,-0.00227469 0.00198692,-0.00210654 0.00216617,-0.00192173 0.00232829,-0.00172174 0.00247201,-0.00150814 0.0025962,-0.00128262 0.00269986,-0.00104696 0.00278218,-0.00080302 0.0028425,-0.000552736 0.00288036,-0.000298083 0.39101,0.690038 0,0.0243108 z "/>
<path fill="rgb(142,146,145)" stroke="rgb(142,146,145)" d="M 3.39478,3.98102 l 0.0774857,0.000186011 0.000497495,-0.207239 0.105299,0 0,0.273726 -0.104302,0.12408 -0.225417,-0.397807 0.146933,0 -0.000497048,0.207053 z "/>
<path fill="rgb(142,146,145)" stroke="rgb(142,146,145)" d="M 3.15731,4.54692 l 0.0756738,-0.19387 0.0950898,0.16781 -0.0667208,0.160245 -0.249019,0.039519 -0.250976,0.0241498 -0.251986,0.00868946 0,-0.138799 0.21732,-0.00822771 0.216297,-0.0226148 0.214322,-0.0369025 z "/>
<path fill="rgb(142,146,145)" stroke="rgb(142,146,145)" d="M 2.50937,4.28226 l 0,-0.432503 0.27158,0 0,-0.07579 0.123894,0 0.288024,0.508293 -0.683498,0 z "/>
<path fill="rgb(142,146,145)" stroke="rgb(142,146,145)" d="M 1.59194,3.97886 l 0,-0.204889 0.614517,0 0,0.07579 0.302919,0 0,0.432503 -0.785105,0 0.10651,0.26466 0.224447,0.0382858 0.226562,0.022618 0.227586,0.00684121 0,0.138799 -0.26226,-0.00740683 -0.261251,-0.0241524 -0.259173,-0.0407991 -0.211741,-0.508543 -0.104965,-0.12487 0,-0.273726 0.104469,0 0,0.204889 0.0774859,0 z "/>
<path fill="rgb(241,240,234)" stroke="rgb(241,240,234)" d="M 7.1,3.75 l -0.0131516,-0.296552 -0.0393517,-0.294223 -0.0652427,-0.289585 -0.0906215,-0.282673 -0.115289,-0.273541 -0.139051,-0.262261 -0.161721,-0.248922 -0.183121,-0.233629 -0.203084,-0.216501 -0.221452,-0.197674 -0.238081,-0.177294 -0.252841,-0.155523 -0.265616,-0.13253 -0.276305,-0.108496 -0.284825,-0.083611 -0.291108,-0.0580692 -0.295106,-0.0320715 -0.296786,-0.00582191 -0.296137,0.0204734 -0.293162,0.0466079 -0.287885,0.0723764 -0.100999,-0.178239 0.306185,-0.0810807 0.312194,-0.0534666 0.315717,-0.0254269 0.316727,0.00281527 0.315215,0.031035 0.311194,0.0590076 0.304696,0.0865106 0.295772,0.113325 0.284494,0.139237 0.270951,0.164041 0.255251,0.187538 0.237519,0.209543 0.217896,0.22988 0.196539,0.248387 0.173617,0.264917 0.149313,0.279337 0.12382,0.291534 0.0973421,0.30141 0.0700889,0.308887 0.0422778,0.313905 0.0141301,0.316424 -0.2,0 z "/>
<path fill="rgb(241,240,234)" stroke="rgb(241,240,234)" d="M 2.40387,0.465122 l 0.099444,0.175495 -0.0922937,0.0386142 -0.0910995,0.0413529 -0.089824,0.0440548 -0.098693,-0.174169 0.0896329,-0.0443357 0.0908461,-0.0417935 0.0919872,-0.0392182 z "/>
<path fill="rgb(241,240,234)" stroke="rgb(241,240,234)" d="M 0.2,3.75 l 0.012613,-0.298987 0.0377495,-0.296863 0.0626177,-0.292629 0.087041,-0.286315 0.110846,-0.277967 0.133863,-0.267644 0.155929,-0.255419 0.176887,-0.241379 0.196587,-0.225624 0.214891,-0.208265 0.100999,0.178239 -0.19731,0.195961 -0.180377,0.21165 -0.162202,0.225882 -0.142909,0.238556 -0.122631,0.249587 -0.101507,0.258898 -0.0796849,0.266425 -0.0573133,0.272116 -0.0345467,0.275932 -0.0115421,0.277847 -0.2,0 z "/>
<path fill="rgb(241,240,234)" stroke="rgb(241,240,234)" d="M 1.62384,0.907122 l 0.0809155,-0.0587571 0.0825383,-0.0564547 0.0840957,-0.0541076 0.098693,0.174169 -0.083953,0.0544158 -0.0822906,0.0568985 -0.0805549,0.0593304 -0.099444,-0.175495 z "/>
<path fill="rgb(241,240,234)" stroke="rgb(241,240,234)" d="M 5.87616,6.59288 l -0.0809155,0.0587571 -0.0825383,0.0564547 -0.0840957,0.0541076 -0.098693,-0.174169 0.083953,-0.0544158 0.0822906,-0.0568985 0.0805549,-0.0593304 0.099444,0.175495 z "/>
<path fill="rgb(241,240,234)" stroke="rgb(241,240,234)" d="M 7.1,3.75 l 0.2,0 -0.012613,0.298987 -0.0377495,0.296863 -0.0626177,0.292629 -0.087041,0.286315 -0.110846,0.277967 -0.133863,0.267644 -0.155929,0.255419 -0.176887,0.241379 -0.196587,0.225624 -0.214891,0.208265 -0.100999,-0.178239 0.19731,-0.195961 0.180377,-0.21165 0.162202,-0.225882 0.142909,-0.238556 0.122631,-0.249587 0.101507,-0.258898 0.0796849,-0.266425 0.0573133,-0.272116 0.0345467,-0.275932 0.0115421,-0.277847 z "/>
<path fill="rgb(241,240,234)" stroke="rgb(241,240,234)" d="M 5.3686,6.90953 l -0.0896329,0.0443357 -0.0908461,0.0417935 -0.0919872,0.0392182 -0.099444,-0.175495 0.0922937,-0.0386142 0.0910995,-0.0413529 0.089824,-0.0440548 0.098693,0.174169 z "/>
<path fill="rgb(241,240,234)" stroke="rgb(241,240,234)" d="M 0.2,3.75 l 0.2,0 0.0131516,0.296552 0.0393517,0.294223 0.0652427,0.289585 0.0906215,0.282673 0.115289,0.273541 0.139051,0.262261 0.161721,0.248922 0.183121,0.233629 0.203084,0.216501 0.221452,0.197674 0.238081,0.177294 0.252841,0.155523 0.265616,0.13253 0.276305,0.108496 0.284825,0.083611 0.291108,0.0580692 0.295106,0.0320715 0.296786,0.00582191 0.296137,-0.0204734 0.293162,-0.0466079 0.287885,-0.0723764 0.100999,0.178239 -0.306185,0.0810807 -0.312194,0.0534666 -0.315717,0.0254269 -0.316727,-0.00281527 -0.315215,-0.031035 -0.311194,-0.0590076 -0.304696,-0.0865106 -0.295772,-0.113325 -0.284494,-0.139237 -0.270951,-0.164041 -0.255251,-0.187538 -0.237519,-0.209543 -0.217896,-0.22988 -0.196539,-0.248387 -0.173617,-0.264917 -0.149313,-0.279337 -0.12382,-0.291534 -0.0973421,-0.30141 -0.0700889,-0.308887 -0.0422778,-0.313905 -0.0141301,-0.316424 z "/>
<path fill="rgb(241,240,234)" stroke="rgb(241,240,234)" d="M 0.2,3.75 l -0.2,0 0.0142699,-0.326834 0.042701,-0.324347 0.0708072,-0.319391 0.0983745,-0.312004 0.125193,-0.302243 0.151059,-0.290182 0.175775,-0.275912 0.199154,-0.259542 0.221016,-0.241197 0.241197,-0.221016 0.259542,-0.199154 0.275912,-0.175775 0.290182,-0.151059 0.302243,-0.125193 0.312004,-0.0983745 0.319391,-0.0708072 0.324347,-0.042701 0.326834,-0.0142699 0.326834,0.0142699 0.324347,0.042701 0.319391,0.0708072 0.312004,0.0983745 0.302243,0.125193 0.290182,0.151059 0.275912,0.175775 0.259542,0.199154 0.241197,0.221016 0.221016,0.241197 0.199154,0.259542 0.175775,0.275912 0.151059,0.290182 0.125193,0.302243 0.0983745,0.312004 0.0708072,0.319391 0.042701,0.324347 0.0142699,0.326834 -0.2,0 -0.0141301,-0.316424 -0.0422778,-0.313905 -0.0700889,-0.308887 -0.0973421,-0.30141 -0.12382,-0.291534 -0.149313,-0.279337 -0.173617,-0.264917 -0.196539,-0.248387 -0.217896,-0.22988 -0.237519,-0.209543 -0.255251,-0.187538 -0.270951,-0.164041 -0.284494,-0.139237 -0.295772,-0.113325 -0.304696,-0.0865106 -0.311194,-0.0590076 -0.315215,-0.031035 -0.316727,-0.00281527 -0.315717,0.0254269 -0.312194,0.0534666 -0.306185,0.0810807 -0.0960294,0.0315816 -0.0950913,0.034303 -0.094076,0.0369966 -0.0919872,0.0392182 -0.0908461,0.0417935 -0.0896329,0.0443357 -0.0880366,0.0466716 -0.086692,0.049124 -0.0852792,0.0515377 -0.0840957,0.0541076 -0.0825383,0.0564547 -0.0809155,0.0587571 -0.0800831,0.0616906 -0.0782942,0.0639458 -0.0764417,0.0661491 -0.214891,0.208265 -0.196587,0.225624 -0.176887,0.241379 -0.155929,0.255419 -0.133863,0.267644 -0.110846,0.277967 -0.087041,0.286315 -0.0626177,0.292629 -0.0377495,0.296863 -0.012613,0.298987 z "/>
<path fill="rgb(241,240,234)" stroke="rgb(241,240,234)" d="M 0.2,3.75 l 0.0141301,0.316424 0.0422778,0.313905 0.0700889,0.308887 0.0973421,0.30141 0.12382,0.291534 0.149313,0.279337 0.173617,0.264917 0.196539,0.248387 0.217896,0.22988 0.237519,0.209543 0.255251,0.187538 0.270951,0.164041 0.284494,0.139237 0.295772,0.113325 0.304696,0.0865106 0.311194,0.0590076 0.315215,0.031035 0.316727,0.00281527 0.315717,-0.0254269 0.312194,-0.0534666 0.306185,-0.0810807 0.0960294,-0.0315816 0.0950913,-0.034303 0.094076,-0.0369966 0.0919872,-0.0392182 0.0908461,-0.0417935 0.0896329,-0.0443357 0.0880366,-0.0466716 0.086692,-0.049124 0.0852792,-0.0515377 0.0840957,-0.0541076 0.0825383,-0.0564547 0.0809155,-0.0587571 0.0800831,-0.0616906 0.0782942,-0.0639458 0.0764417,-0.0661491 0.214891,-0.208265 0.196587,-0.225624 0.176887,-0.241379 0.155929,-0.255419 0.133863,-0.267644 0.110846,-0.277967 0.087041,-0.286315 0.0626177,-0.292629 0.0377495,-0.296863 0.012613,-0.298987 0.2,0 -0.0142699,0.326834 -0.042701,0.324347 -0.0708072,0.319391 -0.0983745,0.312004 -0.125193,0.302243 -0.151059,0.290182 -0.175775,0.275912 -0.199154,0.259542 -0.221016,0.241197 -0.241197,0.221016 -0.259542,0.199154 -0.275912,0.175775 -0.290182,0.151059 -0.302243,0.125193 -0.312004,0.0983745 -0.319391,0.0708072 -0.324347,0.042701 -0.326834,0.0142699 -0.326834,-0.0142699 -0.324347,-0.042701 -0.319391,-0.0708072 -0.312004,-0.0983745 -0.302243,-0.125193 -0.290182,-0.151059 -0.275912,-0.175775 -0.259542,-0.199154 -0.241197,-0.221016 -0.221016,-0.241197 -0.199154,-0.259542 -0.175775,-0.275912 -0.151059,-0.290182 -0.125193,-0.302243 -0.0983745,-0.312004 -0.0708072,-0.319391 -0.042701,-0.324347 -0.0142699,-0.326834 0.2,0 z "/>
<path fill="rgb(241,240,234)" stroke="rgb(241,240,234)" d="M 6.4,3.75 l -0.0105308,-0.236013 -0.0315086,-0.234137 -0.052236,-0.230401 -0.0725482,-0.224833 -0.0922838,-0.217478 -0.111286,-0.208395 -0.129404,-0.197655 -0.146493,-0.185345 -0.162418,-0.171562 -0.177052,-0.156415 -0.190279,-0.140025 -0.201994,-0.122522 -0.217245,-0.106283 -0.22603,-0.0860338 -0.232933,-0.0650685 -0.237895,-0.0435612 -0.240876,-0.0216911 -0.24185,0.000359682 -0.24081,0.0224075 -0.237764,0.0442686 -0.356502,-0.629139 0.287885,-0.0723764 0.293162,-0.0466079 0.296137,-0.0204734 0.296786,0.00582191 0.295106,0.0320715 0.291108,0.0580692 0.284825,0.083611 0.276305,0.108496 0.265616,0.13253 0.252841,0.155523 0.238081,0.177294 0.221452,0.197674 0.203084,0.216501 0.183121,0.233629 0.161721,0.248922 0.139051,0.262261 0.115289,0.273541 0.0906215,0.282673 0.0652427,0.289585 0.0393517,0.294223 0.0131516,0.296552 -0.7,0 z "/>
<path fill="rgb(241,240,234)" stroke="rgb(241,240,234)" d="M 1.72329,1.08262 l 0.0805549,-0.0593304 0.0822906,-0.0568985 0.083953,-0.0544158 0.345536,0.609787 -0.0832993,0.0558797 -0.0811249,0.0589921 -0.0788343,0.06202 -0.349076,-0.616034 z "/>
<path fill="rgb(241,240,234)" stroke="rgb(241,240,234)" d="M 2.50331,0.640617 l 0.349076,0.616034 -0.0937168,0.035756 -0.0922965,0.039277 -0.0907439,0.0427418 -0.345536,-0.609787 0.089824,-0.0440548 0.0910995,-0.0413529 0.0922937,-0.0386142 z "/>
<path fill="rgb(241,240,234)" stroke="rgb(241,240,234)" d="M 0.4,3.75 l 0.0115421,-0.277847 0.0345467,-0.275932 0.0573133,-0.272116 0.0796849,-0.266425 0.101507,-0.258898 0.122631,-0.249587 0.142909,-0.238556 0.162202,-0.225882 0.180377,-0.21165 0.19731,-0.195961 0.356502,0.629139 -0.150483,0.169273 -0.135479,0.181504 -0.119486,0.19241 -0.102619,0.20191 -0.0850034,0.209935 -0.0667664,0.216427 -0.0480418,0.221338 -0.0289662,0.224632 -0.00967895,0.226285 -0.7,0 z "/>
<path fill="rgb(241,240,234)" stroke="rgb(241,240,234)" d="M 6.4,3.75 l 0.7,0 -0.0115421,0.277847 -0.0345467,0.275932 -0.0573133,0.272116 -0.0796849,0.266425 -0.101507,0.258898 -0.122631,0.249587 -0.142909,0.238556 -0.162202,0.225882 -0.180377,0.21165 -0.19731,0.195961 -0.356502,-0.629139 0.1488,-0.167209 0.134158,-0.17917 0.11856,-0.189852 0.102115,-0.19918 0.0849422,-0.207087 0.0671633,-0.213517 0.0489052,-0.218423 0.0302982,-0.221771 0.011475,-0.223537 6.0211e-05,-0.00798878 3.61268e-05,-0.00798893 1.20423e-05,-0.007989 z "/>
<path fill="rgb(241,240,234)" stroke="rgb(241,240,234)" d="M 4.99669,6.85938 l -0.349076,-0.616034 0.0937168,-0.035756 0.0922965,-0.039277 0.0907439,-0.0427418 0.345536,0.609787 -0.089824,0.0440548 -0.0910995,0.0413529 -0.0922937,0.0386142 z "/>
<path fill="rgb(241,240,234)" stroke="rgb(241,240,234)" d="M 2.50937,6.09165 l 0.21455,0.101636 0.222785,0.0820265 0.229232,0.0617587 0.23384,0.0409952 0.23657,0.0199027 0.237402,-0.00134951 0.236329,-0.0225909 0.233358,-0.043651 0.356502,0.629139 -0.287885,0.0723764 -0.293162,0.0466079 -0.296137,0.0204734 -0.296786,-0.00582191 -0.295106,-0.0320715 -0.291108,-0.0580692 -0.284825,-0.083611 -0.276305,-0.108496 -0.265616,-0.13253 -0.252841,-0.155523 -0.238081,-0.177294 -0.221452,-0.197674 -0.203084,-0.216501 -0.183121,-0.233629 -0.161721,-0.248922 -0.139051,-0.262261 -0.115289,-0.273541 -0.0906215,-0.282673 -0.0652427,-0.289585 -0.0393517,-0.294223 -0.0131516,-0.296552 0.7,0 1.20423e-05,0.007989 3.61268e-05,0.00798893 6.0211e-05,0.00798878 0.01276,0.236872 0.0338913,0.234782 0.0547511,0.230811 0.0751721,0.22499 0.0949907,0.217366 0.114048,0.208001 0.132192,0.196968 0.149276,0.184358 0.165164,0.17027 0.179729,0.154818 0.192854,0.138125 0.204433,0.120326 z "/>
<path fill="rgb(241,240,234)" stroke="rgb(241,240,234)" d="M 5.77671,6.41738 l -0.0805549,0.0593304 -0.0822906,0.0568985 -0.083953,0.0544158 -0.345536,-0.609787 0.0832993,-0.0558797 0.0811249,-0.0589921 0.0788343,-0.06202 0.349076,0.616034 z "/>
<path fill="rgb(241,240,234)" stroke="rgb(241,240,234)" d="M 5.29355,3.84976 l -0.27158,0 -0.302919,0 0,-0.07579 0,-0.0823601 0.302919,0 0.27158,0 0,0.0823601 0,0.07579 z "/>
<path fill="rgb(241,240,234)" stroke="rgb(241,240,234)" d="M 4.02705,3.93583 l 0,-0.161861 0.00019489,0 0.000391043,0.162895 -0.000585933,-0.00103403 z "/>
<path fill="rgb(241,240,234)" stroke="rgb(241,240,234)" d="M 4.02705,3.77397 l 0,-0.0823601 0.0774859,0 0,0.00216476 -0.0774831,0.000186004 0.000192069,0.0800093 -0.00019489,0 z "/>
<path fill="rgb(241,240,234)" stroke="rgb(241,240,234)" d="M 4.10453,3.97886 l -0.0531039,0 -0.0237961,-0.0419944 -0.000391043,-0.162895 -0.000192069,-0.0800093 0.0774831,-0.000186004 0,0.285085 z "/>
<path fill="rgb(241,240,234)" stroke="rgb(241,240,234)" d="M 5.90806,3.69377 l 0,0.0801953 -0.000195114,0 0.000192515,-0.0801953 2.59833e-06,6.23751e-09 z "/>
<path fill="rgb(241,240,234)" stroke="rgb(241,240,234)" d="M 5.98486,3.98121 l -0.0774857,-0.000186011 0.000497048,-0.207053 0.000195114,0 8.88178e-16,0.204889 0.0767992,0 -5.64122e-06,0.00234994 z "/>
<path fill="rgb(241,240,234)" stroke="rgb(241,240,234)" d="M 5.90806,3.69377 l 0.0774831,0.000186004 -0.000683922,0.284899 -0.0767992,0 -8.88178e-16,-0.204889 0,-0.0801953 z "/>
<path fill="rgb(241,240,234)" stroke="rgb(241,240,234)" d="M 5.66991,4.54692 l -0.189227,0.0333352 -0.190855,0.0221947 -0.191827,0.0109781 -1.06363e-05,-1.87705e-05 0.191602,-0.010998 0.19063,-0.0221884 0.189006,-0.0333028 0.0226558,-0.056296 -0.0219742,0.056296 z "/>
<path fill="rgb(241,240,234)" stroke="rgb(241,240,234)" d="M 4.56685,4.28226 l 0.182656,0.322344 -0.124728,-0.0122134 -0.12417,-0.0169707 -0.123431,-0.0217032 -0.102292,-0.18052 -0.0354954,-0.090936 0.327461,0 z "/>
<path fill="rgb(241,240,234)" stroke="rgb(241,240,234)" d="M 5.02197,4.28226 l 0.751244,0 -0.0813316,0.208364 -0.0226558,0.056296 -0.189006,0.0333028 -0.19063,0.0221884 -0.191602,0.010998 -0.187646,-0.33115 0.111627,0 z "/>
<path fill="rgb(241,240,234)" stroke="rgb(241,240,234)" d="M 4.23939,4.28226 l 0.0354954,0.090936 -0.00490642,-0.00865864 -0.0331118,-0.0822774 0.00252287,0 z "/>
<path fill="rgb(241,240,234)" stroke="rgb(241,240,234)" d="M 2.50937,3.69161 l 0.27158,0 0,0.0823601 0,0.07579 -0.27158,0 -0.302919,0 0,-0.07579 0,-0.0823601 0.302919,0 z "/>
<path fill="rgb(241,240,234)" stroke="rgb(241,240,234)" d="M 1.59194,3.97886 l -0.0774859,0 0,-0.204889 0,-0.0823601 0.0774859,0 0,0.0823601 0,0.204889 z "/>
<path fill="rgb(241,240,234)" stroke="rgb(241,240,234)" d="M 3.39478,3.98102 l 0.000497048,-0.207053 0.000192515,-0.0801953 0.0774857,0.000186011 -0.000192069,0.0800093 -0.000497495,0.207239 -0.0774857,-0.000186011 z "/>
<path fill="rgb(241,240,234)" stroke="rgb(241,240,234)" d="M 3.15731,4.54692 l -0.214322,0.0369025 -0.216297,0.0226148 -0.21732,0.00822771 -0.227586,-0.00684121 -0.226562,-0.022618 -0.224447,-0.0382858 -0.10651,-0.26466 0.785105,0 0.683498,0 0.0401136,0.0707908 -0.0756738,0.19387 z "/>
<path fill="rgb(241,240,234)" stroke="rgb(241,240,234)" d="M 2.50937,3.42695 l 0,-0.350896 0.198835,0.350896 -0.198835,4.44089e-16 z "/>
<path fill="rgb(241,240,234)" stroke="rgb(241,240,234)" d="M 2.50937,2.46987 l 0,-0.606184 0.677677,1.19594 -0.00288036,0.000298083 -0.0028425,0.000552736 -0.00278218,0.00080302 -0.00269986,0.00104696 -0.0025962,0.00128262 -0.00247201,0.00150814 -0.00232829,0.00172174 -0.00216617,0.00192173 -0.00198692,0.00210654 -0.00179197,0.00227469 -0.00158285,0.00242486 -0.00136122,0.00255586 -0.00112883,0.00266666 -0.000887516,0.00275638 -0.000639189,0.00282432 -0.000385809,0.00286993 -0.00012938,0.00289285 0,0.334821 -0.104686,0 -0.54233,-0.957081 z "/>
<path fill="rgb(241,240,234)" stroke="rgb(241,240,234)" d="M 3.57806,3.77397 l 0,-0.0243108 0.0137757,0.0243108 -0.0137757,0 z "/>
<path fill="rgb(241,240,234)" stroke="rgb(241,240,234)" d="M 2.85239,1.25665 l 1.21072,2.13663 0,0.0336629 -0.0561055,0 -0.0850603,0.135731 0,0.187667 -1.34631,-2.37592 0.0907439,-0.0427418 0.0922965,-0.039277 0.0937168,-0.035756 z "/>
<path fill="rgb(241,240,234)" stroke="rgb(241,240,234)" d="M 5.02197,3.42695 l -0.59629,0 -0.082064,-0.144823 0,-0.189984 -0.000123334,-0.00283914 -0.000370348,-0.00281758 -0.000614542,-0.00277458 -0.000854058,-0.00271045 -0.00108707,-0.00262568 -0.00131181,-0.00252093 -0.00152656,-0.00239699 -0.00172969,-0.00225479 -0.00191965,-0.00209544 -0.002095,-0.00192013 -0.0022544,-0.0017302 -0.00239664,-0.0015271 -0.00252063,-0.00131238 -0.00262544,-0.00108767 -0.00271025,-0.00085467 -0.00277444,-0.000615169 -0.0028175,-0.000370985 -0.00283911,-0.000123976 -0.0935439,0 -1.07094,-1.88994 0.237764,-0.0442686 0.24081,-0.0224075 0.24185,-0.000359682 0.240876,0.0216911 0.237895,0.0435612 0.232933,0.0650685 0.22603,0.0860338 0.217245,0.106283 0,2.00173 z "/>
<path fill="rgb(241,240,234)" stroke="rgb(241,240,234)" d="M 6.4,3.75 l -1.20423e-05,0.007989 -3.61268e-05,0.00798893 -6.0211e-05,0.00798878 -0.309873,0 0,-0.211289 -0.0850529,-0.135731 -0.0560981,0 0,-0.334807 -0.000123969,-0.00283935 -0.000370962,-0.00281774 -0.000615133,-0.00277468 -0.000854622,-0.00271051 -0.00108761,-0.00262571 -0.00131231,-0.00252093 -0.00152703,-0.00239696 -0.00173013,-0.00225475 -0.00192006,-0.00209538 -0.00209538,-0.00192006 -0.00225475,-0.00173013 -0.00239696,-0.00152703 -0.00252093,-0.00131231 -0.00262571,-0.00108761 -0.00271051,-0.000854622 -0.00277468,-0.000615133 -0.00281774,-0.000370962 -0.00283935,-0.000123969 -0.215364,0 -0.00283935,0.000123969 -0.00281774,0.000370962 -0.00277468,0.000615133 -0.00271051,0.000854622 -0.00262571,0.00108761 -0.00252093,0.00131231 -0.00239696,0.00152703 -0.00225475,0.00173013 -0.00209538,0.00192006 -0.00192006,0.00209538 -0.00173013,0.00225475 -0.00152703,0.00239696 -0.00131231,0.00252093 -0.00108761,0.00262571 -0.000854622,0.00271051 -0.000615133,0.00277468 -0.000370962,0.00281774 -0.000123969,0.00283935 8.88178e-16,0.334807 -0.646381,0 0,-2.00173 0.201994,0.122522 0.190279,0.140025 0.177052,0.156415 0.162418,0.171562 0.146493,0.185345 0.129404,0.197655 0.111286,0.208395 0.0922838,0.217478 0.0725482,0.224833 0.052236,0.230401 0.0315086,0.234137 0.0105308,0.236013 z "/>
<path fill="rgb(241,240,234)" stroke="rgb(241,240,234)" d="M 5.42764,5.80135 l -0.0788343,0.06202 -0.0811249,0.0589921 -0.0832993,0.0558797 -0.162412,-0.286618 0,-0.606184 0.40567,0.71591 z "/>
<path fill="rgb(241,240,234)" stroke="rgb(241,240,234)" d="M 6.09002,3.77397 l 0.309873,0 -0.011475,0.223537 -0.0302982,0.221771 -0.0489052,0.218423 -0.0671633,0.213517 -0.0849422,0.207087 -0.102115,0.19918 -0.11856,0.189852 -0.134158,0.17917 -0.1488,0.167209 -0.478094,-0.84372 0.200355,-0.0131957 0.19947,-0.0229812 0.198106,-0.0327118 0.211741,-0.508543 0.104965,-0.12487 8.88178e-16,-0.273726 z "/>
<path fill="rgb(241,240,234)" stroke="rgb(241,240,234)" d="M 2.50937,6.09165 l -0.204433,-0.120326 -0.192854,-0.138125 -0.179729,-0.154818 -0.165164,-0.17027 -0.149276,-0.184358 -0.132192,-0.196968 -0.114048,-0.208001 -0.0949907,-0.217366 -0.0751721,-0.22499 -0.0547511,-0.230811 -0.0338913,-0.234782 -0.01276,-0.236872 0.309873,0 0,0.273726 0.104965,0.12487 0.211741,0.508543 0.259173,0.0407991 0.261251,0.0241524 0.26226,0.00740683 0,1.33819 z "/>
<path fill="rgb(241,240,234)" stroke="rgb(241,240,234)" d="M 2.07236,1.69865 l 0.0788343,-0.06202 0.0811249,-0.0589921 0.0832993,-0.0558797 0.19375,0.341922 0,0.606184 -0.437008,-0.771214 z "/>
<path fill="rgb(241,240,234)" stroke="rgb(241,240,234)" d="M 2.50937,3.42695 l -0.677719,-4.44089e-16 0,-0.334807 -0.000123969,-0.00283935 -0.000370962,-0.00281774 -0.000615133,-0.00277468 -0.000854622,-0.00271051 -0.00108761,-0.00262571 -0.00131231,-0.00252093 -0.00152703,-0.00239696 -0.00173013,-0.00225475 -0.00192006,-0.00209538 -0.00209538,-0.00192006 -0.00225475,-0.00173013 -0.00239696,-0.00152703 -0.00252093,-0.00131231 -0.00262571,-0.00108761 -0.00271051,-0.000854622 -0.00277468,-0.000615133 -0.00281774,-0.000370962 -0.00283935,-0.000123969 -0.215364,0 -0.00283935,0.000123969 -0.00281774,0.000370962 -0.00277468,0.000615133 -0.00271051,0.000854622 -0.00262571,0.00108761 -0.00252093,0.00131231 -0.00239696,0.00152703 -0.00225475,0.00173013 -0.00209538,0.00192006 -0.00192006,0.00209538 -0.00173013,0.00225475 -0.00152703,0.00239696 -0.00131231,0.00252093 -0.00108761,0.00262571 -0.000854622,0.00271051 -0.000615133,0.00277468 -0.000370962,0.00281774 -0.000123969,0.00283935 0,0.334807 -0.0560981,0 -0.0850529,0.135731 0,0.211289 -0.309873,0 -6.0211e-05,-0.00798878 -3.61268e-05,-0.00798893 -1.20423e-05,-0.007989 0.00967895,-0.226285 0.0289662,-0.224632 0.0480418,-0.221338 0.0667664,-0.216427 0.0850034,-0.209935 0.102619,-0.20191 0.119486,-0.19241 0.135479,-0.181504 0.150483,-0.169273 0.662846,1.16976 0,0.350896 z "/>
<path fill="rgb(241,240,234)" stroke="rgb(241,240,234)" d="M 2.50937,6.09165 l 0,-1.33819 0.251986,-0.00868946 0.250976,-0.0241498 0.249019,-0.039519 0.0667208,-0.160245 1.02536,1.80952 -0.233358,0.043651 -0.236329,0.0225909 -0.237402,0.00134951 -0.23657,-0.0199027 -0.23384,-0.0409952 -0.229232,-0.0617587 -0.222785,-0.0820265 -0.21455,-0.101636 z "/>
<path fill="rgb(241,240,234)" stroke="rgb(241,240,234)" d="M 5.02197,5.08544 l 0,0.606184 -0.551476,-0.973223 0.120102,0.0140121 0.120462,0.0104672 0.120719,0.00691312 0.190194,0.335646 z "/>
<path fill="rgb(241,240,234)" stroke="rgb(241,240,234)" d="M 3.57806,3.77397 l 0.0137757,0 1.33254,2.35161 -0.0907439,0.0427418 -0.0922965,0.039277 -0.0937168,0.035756 -1.17386,-2.07158 0.104302,-0.12408 0,-0.273726 z "/>
<path fill="rgb(42,41,42)" stroke="rgb(42,41,42)" d="M 4.34361,3.28212 l 0.082064,0.144823 -0.082064,0 0,-0.144823 z "/>
<path fill="rgb(42,41,42)" stroke="rgb(42,41,42)" d="M 6.11098,6.40109 l -0.0764417,0.0661491 -0.0782942,0.0639458 -0.0800831,0.0616906 -0.099444,-0.175495 0.0797035,-0.0624824 0.0777783,-0.0648631 0.0757821,-0.0671845 0.100999,0.178239 z "/>
<path fill="rgb(42,41,42)" stroke="rgb(42,41,42)" d="M 5.02197,4.75346 l 0,0.331977 -0.190194,-0.335646 0.0633765,0.00220268 0.063403,0.00122297 0.0634143,0.000242966 z "/>
<path fill="rgb(42,41,42)" stroke="rgb(42,41,42)" d="M 2.68906,0.362241 l 0.100999,0.178239 -0.0965786,0.0304836 -0.0956131,0.0333891 -0.0945601,0.036264 -0.099444,-0.175495 0.094076,-0.0369966 0.0950913,-0.034303 0.0960294,-0.0315816 z "/>
<path fill="rgb(42,41,42)" stroke="rgb(42,41,42)" d="M 2.79006,0.54048 l 0.356502,0.629139 -0.0991553,0.0252163 -0.098108,0.029025 -0.0969145,0.0327904 -0.349076,-0.616034 0.0945601,-0.036264 0.0956131,-0.0333891 0.0965786,-0.0304836 z "/>
<path fill="rgb(42,41,42)" stroke="rgb(42,41,42)" d="M 5.098,4.61343 l -0.0253397,0.000608256 -0.0253436,0.000412365 -0.0253461,0.000216449 0,-3.2572e-06 0.0253426,-0.000221675 0.0253401,-0.000417536 0.0253361,-0.000613373 1.06363e-05,1.87705e-05 z "/>
<path fill="rgb(42,41,42)" stroke="rgb(42,41,42)" d="M 4.27882,3.77397 l 0.343494,0 0.288024,0.508293 -0.343494,0 -0.288024,-0.508293 z "/>
<path fill="rgb(42,41,42)" stroke="rgb(42,41,42)" d="M 5.09799,4.61341 l -0.0253361,0.000613373 -0.0253401,0.000417536 -0.0253426,0.000221675 -0.00522298,2.13414e-05 -0.00522301,1.3022e-05 -0.00522302,4.70258e-06 -0.085677,-0.0011284 -0.0856183,-0.00336663 -0.0855011,-0.00560255 -0.182656,-0.322344 0.343494,0 0.187646,0.33115 z "/>
<path fill="rgb(42,41,42)" stroke="rgb(42,41,42)" d="M 5.02197,4.61466 l -0.00522298,2.02556e-05 -0.00522301,1.19363e-05 -0.00522302,3.61685e-06 0.00522302,-4.70258e-06 0.00522301,-1.3022e-05 0.00522298,-2.13414e-05 0,3.2572e-06 z "/>
<path fill="rgb(42,41,42)" stroke="rgb(42,41,42)" d="M 5.0063,4.6147 l -0.0856659,-0.0011103 -0.0856077,-0.00334794 -0.085491,-0.0055833 -3.1753e-05,-5.60364e-05 0.0855011,0.00560255 0.0856183,0.00336663 0.085677,0.0011284 z "/>
<path fill="rgb(42,41,42)" stroke="rgb(42,41,42)" d="M 4.2175,3.05956 l 0.126114,0.222561 0,0.144823 0.082064,0 0.196639,0.34702 -0.343494,0 -0.215714,-0.380683 0,-0.301144 0.000124004,-0.00283975 0.000371069,-0.00281814 0.000615308,-0.00277506 0.000854864,-0.00271087 0.00108791,-0.00262603 0.00131268,-0.0025212 0.00152745,-0.00239718 0.00173059,-0.00225491 0.00192056,-0.00209548 0.00209591,-0.00192009 0.0022553,-0.00173008 0.00239753,-0.00152691 0.0025215,-0.00131211 0.00262628,-0.00108732 0.00271106,-0.000854251 0.0027752,-0.000614681 0.00281822,-0.000370432 0.00283978,-0.000123362 8.32223e-13,0 0.121806,0 z "/>
<path fill="rgb(42,41,42)" stroke="rgb(42,41,42)" d="M 5.02197,4.75346 l -0.0634143,-0.000242966 -0.063403,-0.00122297 -0.0633765,-0.00220268 -0.0822398,-0.145133 0.085491,0.0055833 0.0856077,0.00334794 0.0856659,0.0011103 0.00522302,-3.61685e-06 0.00522301,-1.19363e-05 0.00522298,-2.02556e-05 0,0.138796 z "/>
<path fill="rgb(42,41,42)" stroke="rgb(42,41,42)" d="M 5.02197,4.75346 l 0,-0.138796 0.0253461,-0.000216449 0.0253436,-0.000412365 0.0253397,-0.000608256 0.0773852,0.136566 -0.0511225,0.00179326 -0.0511409,0.0011558 -0.0511513,0.000518159 z "/>
<path fill="rgb(42,41,42)" stroke="rgb(42,41,42)" d="M 5.02197,4.75346 l 0.0511513,-0.000518159 0.0511409,-0.0011558 0.0511225,-0.00179326 0.478094,0.84372 -0.0725876,0.0721017 -0.0753167,0.0692461 -0.0779336,0.0662872 -0.40567,-0.71591 0,-0.331977 z "/>
<path fill="rgb(42,41,42)" stroke="rgb(42,41,42)" d="M 3.14656,1.16962 l 1.07094,1.88994 -0.121806,0 -8.32223e-13,0 -0.00283978,0.000123362 -0.00281822,0.000370432 -0.0027752,0.000614681 -0.00271106,0.000854251 -0.00262628,0.00108732 -0.0025215,0.00131211 -0.00239753,0.00152691 -0.0022553,0.00173008 -0.00209591,0.00192009 -0.00192056,0.00209548 -0.00173059,0.00225491 -0.00152745,0.00239718 -0.00131268,0.0025212 -0.00108791,0.00262603 -0.000854864,0.00271087 -0.000615308,0.00277506 -0.000371069,0.00281814 -0.000124004,0.00283975 0,0.301144 -1.21072,-2.13663 0.0969145,-0.0327904 0.098108,-0.029025 0.0991553,-0.0252163 z "/>
<path fill="rgb(42,41,42)" stroke="rgb(42,41,42)" d="M 6.00998,6.22285 l -0.0757821,0.0671845 -0.0777783,0.0648631 -0.0797035,0.0624824 -0.349076,-0.616034 0.0779336,-0.0662872 0.0753167,-0.0692461 0.0725876,-0.0721017 0.356502,0.629139 z "/>
<path fill="rgb(42,41,42)" stroke="rgb(42,41,42)" d="M 4.05273,3.98115 l -0.0249873,5.9984e-05 -5.64122e-06,-0.00234994 0.0236953,0 0.0012976,0.00228996 z "/>
<path fill="rgb(42,41,42)" stroke="rgb(42,41,42)" d="M 5.02197,6.07478 l 0.0548972,-0.0308895 0.0541475,-0.0321856 0.0533672,-0.0334635 0.345536,0.609787 -0.0851954,0.0516823 -0.0866948,0.0491256 -0.0881176,0.0465254 -0.345536,-0.609787 0.0327653,-0.0164808 0.0325341,-0.0169326 0.0322966,-0.0173813 z "/>
<path fill="rgb(42,41,42)" stroke="rgb(42,41,42)" d="M 3.57806,3.74966 l -0.39101,-0.690038 0.000636013,-3.11114e-05 0.000636499,-1.86716e-05 0.000636743,-6.22466e-06 0.215364,0 8.64198e-13,0 0.00283891,0.000124575 0.00281726,0.000371493 0.00277417,0.000615584 0.00270997,0.000854992 0.00262515,0.0010879 0.00252036,0.00131252 0.0023964,0.00152716 0.0022542,0.00173018 0.00209485,0.00192004 0.00191956,0.00209528 0.00172967,0.00225459 0.00152662,0.00239674 0.00131195,0.00252066 0.0010873,0.0026254 0.00085438,0.00271016 0.000614957,0.0027743 0.000370856,0.00281734 0.000123933,0.00283894 0,0.334807 0.0561055,0 0.0850603,0.135731 0,0.186978 z "/>
<path fill="rgb(42,41,42)" stroke="rgb(42,41,42)" d="M 5.3686,6.90953 l -0.098693,-0.174169 0.0881176,-0.0465254 0.0866948,-0.0491256 0.0851954,-0.0516823 0.098693,0.174169 -0.0852792,0.0515377 -0.086692,0.049124 -0.0880366,0.0466716 z "/>
<path fill="rgb(42,41,42)" stroke="rgb(42,41,42)" d="M 4.27488,4.3732 l 0.102292,0.18052 -0.0112745,-0.00222584 -0.0112666,-0.00226534 -0.0112586,-0.00230482 -0.0226558,-0.056296 -0.0458362,-0.117428 z "/>
<path fill="rgb(42,41,42)" stroke="rgb(42,41,42)" d="M 5.02197,6.07478 l -0.0322966,0.0173813 -0.0325341,0.0169326 -0.0327653,0.0164808 -1.33254,-2.35161 0.330109,0 4.44089e-16,0.273726 0.104965,0.12487 0.211741,0.508543 0.0770389,0.0139054 0.0772902,0.0124332 0.0775133,0.0109564 0.551476,0.973223 0,0.383156 z "/>
<path fill="rgb(42,41,42)" stroke="rgb(42,41,42)" d="M 1.87139,0.737803 l 0.0852792,-0.0515377 0.086692,-0.049124 0.0880366,-0.0466716 0.098693,0.174169 -0.0881176,0.0465254 -0.0866948,0.0491256 -0.0851954,0.0516823 -0.098693,-0.174169 z "/>
<path fill="rgb(42,41,42)" stroke="rgb(42,41,42)" d="M 4.02705,3.93583 l 0.000585933,0.00103403 0.000100811,0.0419944 -0.000686744,0 0,-0.0430285 z "/>
<path fill="rgb(42,41,42)" stroke="rgb(42,41,42)" d="M 3.92194,3.77397 l 0.0133857,0 0.0917185,0.161861 0,0.0430285 0.000686744,0 5.64122e-06,0.00234994 0.0249873,-5.9984e-05 0.217248,0.383391 0.0507426,0.126087 0.0219742,0.056296 0.0115138,0.00235657 0.0115221,0.00231529 0.0115304,0.00227398 0.0932335,0.164535 -0.0775133,-0.0109564 -0.0772902,-0.0124332 -0.0770389,-0.0139054 -0.211741,-0.508543 -0.104965,-0.12487 -4.44089e-16,-0.273726 z "/>
<path fill="rgb(42,41,42)" stroke="rgb(42,41,42)" d="M 3.92194,3.75034 l 0.0133857,0.0236226 -0.0133857,0 4.44089e-16,-0.0236226 z "/>
<path fill="rgb(42,41,42)" stroke="rgb(42,41,42)" d="M 2.31562,1.52176 l 0.0635067,-0.0396237 0.0646004,-0.0378142 0.0656427,-0.0359745 0,0.455334 -0.19375,-0.341922 z "/>
<path fill="rgb(42,41,42)" stroke="rgb(42,41,42)" d="M 2.57563,1.37443 l 1.34631,2.37592 -4.44089e-16,0.0236226 -0.330109,0 -0.0137757,-0.0243108 0,-0.186978 -0.0850603,-0.135731 -0.0561055,0 0,-0.334807 -0.000123933,-0.00283894 -0.000370856,-0.00281734 -0.000614957,-0.0027743 -0.00085438,-0.00271016 -0.0010873,-0.0026254 -0.00131195,-0.00252066 -0.00152662,-0.00239674 -0.00172967,-0.00225459 -0.00191956,-0.00209528 -0.00209485,-0.00192004 -0.0022542,-0.00173018 -0.0023964,-0.00152716 -0.00252036,-0.00131252 -0.00262515,-0.0010879 -0.00270997,-0.000854992 -0.00277417,-0.000615584 -0.00281726,-0.000371493 -0.00283891,-0.000124575 -8.64198e-13,0 -0.215364,0 -0.000636743,6.22466e-06 -0.000636499,1.86716e-05 -0.000636013,3.11114e-05 -0.677677,-1.19594 0,-0.455334 0.0219798,-0.0115136 0.0220867,-0.0113073 0.0221916,-0.0111 z "/>
<path fill="rgb(42,41,42)" stroke="rgb(42,41,42)" d="M 4.02773,3.97886 l -0.000100811,-0.0419944 0.0237961,0.0419944 -0.0236953,0 z "/>
<path fill="rgb(42,41,42)" stroke="rgb(42,41,42)" d="M 4.26997,4.36454 l 0.00490642,0.00865864 0.0458362,0.117428 -0.0507426,-0.126087 z "/>
<path fill="rgb(42,41,42)" stroke="rgb(42,41,42)" d="M 4.37726,4.55387 l -0.0115304,-0.00227398 -0.0115221,-0.00231529 -0.0115138,-0.00235657 -0.0219742,-0.056296 0.0226558,0.056296 0.0112586,0.00230482 0.0112666,0.00226534 0.0112745,0.00222584 8.49081e-05,0.000149842 z "/>
<path fill="rgb(42,41,42)" stroke="rgb(42,41,42)" d="M 1.97009,0.911972 l 0.0851954,-0.0516823 0.0866948,-0.0491256 0.0881176,-0.0465254 0.345536,0.609787 -0.0221916,0.0111 -0.0220867,0.0113073 -0.0219798,0.0115136 -0.0656427,0.0359745 -0.0646004,0.0378142 -0.0635067,0.0396237 -0.345536,-0.609787 z "/>
<path fill="rgb(42,41,42)" stroke="rgb(42,41,42)" d="M 5.02197,6.07478 l 0,-0.383156 0.162412,0.286618 -0.0533672,0.0334635 -0.0541475,0.0321856 -0.0548972,0.0308895 z "/>
<path fill="rgb(42,41,42)" stroke="rgb(42,41,42)" d="M 4.70994,6.95952 l -0.356502,-0.629139 0.0991553,-0.0252163 0.098108,-0.029025 0.0969145,-0.0327904 0.349076,0.616034 -0.0945601,0.036264 -0.0956131,0.0333891 -0.0965786,0.0304836 z "/>
<path fill="rgb(42,41,42)" stroke="rgb(42,41,42)" d="M 1.62384,0.907122 l 0.099444,0.175495 -0.0797035,0.0624824 -0.0777783,0.0648631 -0.0757821,0.0671845 -0.100999,-0.178239 0.0764417,-0.0661491 0.0782942,-0.0639458 0.0800831,-0.0616906 z "/>
<path fill="rgb(42,41,42)" stroke="rgb(42,41,42)" d="M 4.81094,7.13776 l -0.100999,-0.178239 0.0965786,-0.0304836 0.0956131,-0.0333891 0.0945601,-0.036264 0.099444,0.175495 -0.094076,0.0369966 -0.0950913,0.034303 -0.0960294,0.0315816 z "/>
<path fill="rgb(42,41,42)" stroke="rgb(42,41,42)" d="M 3.23298,4.35305 l -0.0401136,-0.0707908 0.0677456,0 -0.027632,0.0707908 z "/>
<path fill="rgb(42,41,42)" stroke="rgb(42,41,42)" d="M 2.50937,3.07605 l 0,-0.606184 0.54233,0.957081 -0.343494,-4.44089e-16 -0.198835,-0.350896 z "/>
<path fill="rgb(42,41,42)" stroke="rgb(42,41,42)" d="M 2.70821,3.42695 l 0.343494,4.44089e-16 0.196639,0.34702 -0.343494,0 -0.196639,-0.34702 z "/>
<path fill="rgb(42,41,42)" stroke="rgb(42,41,42)" d="M 4.35344,6.33038 l -1.02536,-1.80952 0.145021,-0.348298 0.000663352,-0.000789144 1.17386,2.07158 -0.0969145,0.0327904 -0.098108,0.029025 -0.0991553,0.0252163 z "/>
<path fill="rgb(42,41,42)" stroke="rgb(42,41,42)" d="M 3.32807,4.52086 l -0.0950898,-0.16781 0.027632,-0.0707908 -0.0677456,0 -0.288024,-0.508293 0.343494,0 0.225417,0.397807 -0.000663352,0.000789144 -0.145021,0.348298 z "/>
<path fill="rgb(42,41,42)" stroke="rgb(42,41,42)" d="M 1.49002,1.27715 l 0.0757821,-0.0671845 0.0777783,-0.0648631 0.0797035,-0.0624824 0.349076,0.616034 -0.0779336,0.0662872 -0.0753167,0.0692461 -0.0725876,0.0721017 -0.356502,-0.629139 z "/>
<path fill="rgb(42,41,42)" stroke="rgb(42,41,42)" d="M 1.84652,1.90629 l 0.0725876,-0.0721017 0.0753167,-0.0692461 0.0779336,-0.0662872 0.437008,0.771214 0,0.606184 -0.662846,-1.16976 z "/>
</g></g></svg>
