<?xml version="1.0" encoding="UTF-8" standalone="no"?>
<!DOCTYPE svg PUBLIC "-//W3C//DTD SVG 1.1//EN" "http://www.w3.org/Graphics/SVG/1.1/DTD/svg11-flat.dtd"
[

]>
<svg xmlns="http://www.w3.org/2000/svg"  viewBox="-0.108333 -0.108333 15.7167 6.71667"><g fill="none" stroke="black" stroke-width="0.0125" transform="translate(0,6.5) scale(1, -1)">
<g id="Output" >
<path fill="rgb(241,240,234)" stroke="rgb(241,240,234)" d="M 0.7,6.3 l 7.05,0 -1.77636e-15,-0.2 -7.05,8.88178e-16 -0.0261467,-0.00114159 -0.0259477,-0.00341608 -0.0255513,-0.00566458 -0.0249603,-0.00786996 -0.0241794,-0.0100155 -0.0232145,-0.0120847 -0.0220729,-0.014062 -0.0207634,-0.0159323 -0.0192958,-0.0176813 -0.0176813,-0.0192958 -0.0159323,-0.0207634 -0.014062,-0.0220729 -0.0120847,-0.0232145 -0.0100155,-0.0241794 -0.00786996,-0.0249603 -0.00566458,-0.0255513 -0.00341608,-0.0259477 -0.00114159,-0.0261467 -2.66454e-15,-5.1 0.00114159,-0.0261467 0.00341608,-0.0259477 0.00566458,-0.0255513 0.00786996,-0.0249603 0.0100155,-0.0241794 0.0120847,-0.0232145 0.014062,-0.0220729 0.0159323,-0.0207634 0.0176813,-0.0192958 0.0192958,-0.0176813 0.0207634,-0.0159323 0.0220729,-0.014062 0.0232145,-0.0120847 0.0241794,-0.0100155 0.0249603,-0.00786996 0.0255513,-0.00566458 0.0259477,-0.00341608 0.0261467,-0.00114159 7.05,1.33227e-15 0,-0.2 -7.05,0 -0.0435779,0.00190265 -0.0432462,0.00569347 -0.0425854,0.00944096 -0.0416005,0.0131166 -0.0402991,0.0166924 -0.0386909,0.0201412 -0.0367882,0.0234367 -0.0346056,0.0265538 -0.0321596,0.0294688 -0.0294688,0.0321596 -0.0265538,0.0346056 -0.0234367,0.0367882 -0.0201412,0.0386909 -0.0166924,0.0402991 -0.0131166,0.0416005 -0.00944096,0.0425854 -0.00569347,0.0432462 -0.00190265,0.0435779 -1.77636e-15,5.1 0.00190265,0.0435779 0.00569347,0.0432462 0.00944096,0.0425854 0.0131166,0.0416005 0.0166924,0.0402991 0.0201412,0.0386909 0.0234367,0.0367882 0.0265538,0.0346056 0.0294688,0.0321596 0.0321596,0.0294688 0.0346056,0.0265538 0.0367882,0.0234367 0.0386909,0.0201412 0.0402991,0.0166924 0.0416005,0.0131166 0.0425854,0.00944096 0.0432462,0.00569347 0.0435779,0.00190265 z "/>
<path fill="rgb(0,91,140)" stroke="rgb(0,91,140)" d="M 0.7,6.3 l -0.0435779,-0.00190265 -0.0432462,-0.00569347 -0.0425854,-0.00944096 -0.0416005,-0.0131166 -0.0402991,-0.0166924 -0.0386909,-0.0201412 -0.0367882,-0.0234367 -0.0346056,-0.0265538 -0.0321596,-0.0294688 -0.0294688,-0.0321596 -0.0265538,-0.0346056 -0.0234367,-0.0367882 -0.0201412,-0.0386909 -0.0166924,-0.0402991 -0.0131166,-0.0416005 -0.00944096,-0.0425854 -0.00569347,-0.0432462 -0.00190265,-0.0435779 1.77636e-15,-5.1 0.00190265,-0.0435779 0.00569347,-0.0432462 0.00944096,-0.0425854 0.0131166,-0.0416005 0.0166924,-0.0402991 0.0201412,-0.0386909 0.0234367,-0.0367882 0.0265538,-0.0346056 0.0294688,-0.0321596 0.0321596,-0.0294688 0.0346056,-0.0265538 0.0367882,-0.0234367 0.0386909,-0.0201412 0.0402991,-0.0166924 0.0416005,-0.0131166 0.0425854,-0.00944096 0.0432462,-0.00569347 0.0435779,-0.00190265 7.05,0 -8.88178e-16,-0.2 -7.05,-3.55271e-15 -0.061009,0.00266371 -0.0605447,0.00797086 -0.0596196,0.0132173 -0.0582408,0.0183632 -0.0564187,0.0233694 -0.0541672,0.0281977 -0.0515035,0.0328114 -0.0484478,0.0371753 -0.0450234,0.0412564 -0.0412564,0.0450234 -0.0371753,0.0484478 -0.0328114,0.0515035 -0.0281977,0.0541672 -0.0233694,0.0564187 -0.0183632,0.0582408 -0.0132173,0.0596196 -0.00797086,0.0605447 -0.00266371,0.061009 8.88178e-16,5.1 0.00266371,0.061009 0.00797086,0.0605447 0.0132173,0.0596196 0.0183632,0.0582408 0.0233694,0.0564187 0.0281977,0.0541672 0.0328114,0.0515035 0.0371753,0.0484478 0.0412564,0.0450234 0.0450234,0.0412564 0.0484478,0.0371753 0.0515035,0.0328114 0.0541672,0.0281977 0.0564187,0.0233694 0.0582408,0.0183632 0.0596196,0.0132173 0.0605447,0.00797086 0.061009,0.00266371 7.05,-8.88178e-16 0,-0.2 -7.05,0 z "/>
<path fill="rgb(0,91,140)" stroke="rgb(0,91,140)" d="M 0.4,5.8 l 0.00114159,0.0261467 0.00341608,0.0259477 0.00566458,0.0255513 0.00786996,0.0249603 0.0100155,0.0241794 0.0120847,0.0232145 0.014062,0.0220729 0.0159323,0.0207634 0.0176813,0.0192958 0.0192958,0.0176813 0.0207634,0.0159323 0.0220729,0.014062 0.0232145,0.0120847 0.0241794,0.0100155 0.0249603,0.00786996 0.0255513,0.00566458 0.0259477,0.00341608 0.0261467,0.00114159 7.05,-8.88178e-16 2.66454e-15,-5.7 -7.05,-1.33227e-15 -0.0261467,0.00114159 -0.0259477,0.00341608 -0.0255513,0.00566458 -0.0249603,0.00786996 -0.0241794,0.0100155 -0.0232145,0.0120847 -0.0220729,0.014062 -0.0207634,0.0159323 -0.0192958,0.0176813 -0.0176813,0.0192958 -0.0159323,0.0207634 -0.014062,0.0220729 -0.0120847,0.0232145 -0.0100155,0.0241794 -0.00786996,0.0249603 -0.00566458,0.0255513 -0.00341608,0.0259477 -0.00114159,0.0261467 2.66454e-15,5.1 z "/>
<path fill="rgb(241,240,234)" stroke="rgb(241,240,234)" d="M 15.1,5.8 l 5.32907e-15,-5.1 -0.00114159,-0.0261467 -0.00341608,-0.0259477 -0.00566458,-0.0255513 -0.00786996,-0.0249603 -0.0100155,-0.0241794 -0.0120847,-0.0232145 -0.014062,-0.0220729 -0.0159323,-0.0207634 -0.0176813,-0.0192958 -0.0192958,-0.0176813 -0.0207634,-0.0159323 -0.0220729,-0.014062 -0.0232145,-0.0120847 -0.0241794,-0.0100155 -0.0249603,-0.00786996 -0.0255513,-0.00566458 -0.0259477,-0.00341608 -0.0261467,-0.00114159 -7.05,1.33227e-15 0,-0.2 7.05,0 0.0435779,0.00190265 0.0432462,0.00569347 0.0425854,0.00944096 0.0416005,0.0131166 0.0402991,0.0166924 0.0386909,0.0201412 0.0367882,0.0234367 0.0346056,0.0265538 0.0321596,0.0294688 0.0294688,0.0321596 0.0265538,0.0346056 0.0234367,0.0367882 0.0201412,0.0386909 0.0166924,0.0402991 0.0131166,0.0416005 0.00944096,0.0425854 0.00569347,0.0432462 0.00190265,0.0435779 1.77636e-15,5.1 -0.00190265,0.0435779 -0.00569347,0.0432462 -0.00944096,0.0425854 -0.0131166,0.0416005 -0.0166924,0.0402991 -0.0201412,0.0386909 -0.0234367,0.0367882 -0.0265538,0.0346056 -0.0294688,0.0321596 -0.0321596,0.0294688 -0.0346056,0.0265538 -0.0367882,0.0234367 -0.0386909,0.0201412 -0.0402991,0.0166924 -0.0416005,0.0131166 -0.0425854,0.00944096 -0.0432462,0.00569347 -0.0435779,0.00190265 -7.05,0 -1.77636e-15,-0.2 7.05,8.88178e-16 0.0261467,-0.00114159 0.0259477,-0.00341608 0.0255513,-0.00566458 0.0249603,-0.00786996 0.0241794,-0.0100155 0.0232145,-0.0120847 0.0220729,-0.014062 0.0207634,-0.0159323 0.0192958,-0.0176813 0.0176813,-0.0192958 0.0159323,-0.0207634 0.014062,-0.0220729 0.0120847,-0.0232145 0.0100155,-0.0241794 0.00786996,-0.0249603 0.00566458,-0.0255513 0.00341608,-0.0259477 0.00114159,-0.0261467 z "/>
<path fill="rgb(0,91,140)" stroke="rgb(0,91,140)" d="M 14.8,6.5 l -7.05,-8.88178e-16 0,-0.2 7.05,0 0.0435779,-0.00190265 0.0432462,-0.00569347 0.0425854,-0.00944096 0.0416005,-0.0131166 0.0402991,-0.0166924 0.0386909,-0.0201412 0.0367882,-0.0234367 0.0346056,-0.0265538 0.0321596,-0.0294688 0.0294688,-0.0321596 0.0265538,-0.0346056 0.0234367,-0.0367882 0.0201412,-0.0386909 0.0166924,-0.0402991 0.0131166,-0.0416005 0.00944096,-0.0425854 0.00569347,-0.0432462 0.00190265,-0.0435779 -1.77636e-15,-5.1 -0.00190265,-0.0435779 -0.00569347,-0.0432462 -0.00944096,-0.0425854 -0.0131166,-0.0416005 -0.0166924,-0.0402991 -0.0201412,-0.0386909 -0.0234367,-0.0367882 -0.0265538,-0.0346056 -0.0294688,-0.0321596 -0.0321596,-0.0294688 -0.0346056,-0.0265538 -0.0367882,-0.0234367 -0.0386909,-0.0201412 -0.0402991,-0.0166924 -0.0416005,-0.0131166 -0.0425854,-0.00944096 -0.0432462,-0.00569347 -0.0435779,-0.00190265 -7.05,0 -8.88178e-16,-0.2 7.05,-3.55271e-15 0.061009,0.00266371 0.0605447,0.00797086 0.0596196,0.0132173 0.0582408,0.0183632 0.0564187,0.0233694 0.0541672,0.0281977 0.0515035,0.0328114 0.0484478,0.0371753 0.0450234,0.0412564 0.0412564,0.0450234 0.0371753,0.0484478 0.0328114,0.0515035 0.0281977,0.0541672 0.0233694,0.0564187 0.0183632,0.0582408 0.0132173,0.0596196 0.00797086,0.0605447 0.00266371,0.061009 -1.77636e-15,5.1 -0.00266371,0.061009 -0.00797086,0.0605447 -0.0132173,0.0596196 -0.0183632,0.0582408 -0.0233694,0.0564187 -0.0281977,0.0541672 -0.0328114,0.0515035 -0.0371753,0.0484478 -0.0412564,0.0450234 -0.0450234,0.0412564 -0.0484478,0.0371753 -0.0515035,0.0328114 -0.0541672,0.0281977 -0.0564187,0.0233694 -0.0582408,0.0183632 -0.0596196,0.0132173 -0.0605447,0.00797086 -0.061009,0.00266371 z "/>
<path fill="rgb(0,91,140)" stroke="rgb(0,91,140)" d="M 15.1,5.8 l -0.00114159,0.0261467 -0.00341608,0.0259477 -0.00566458,0.0255513 -0.00786996,0.0249603 -0.0100155,0.0241794 -0.0120847,0.0232145 -0.014062,0.0220729 -0.0159323,0.0207634 -0.0176813,0.0192958 -0.0192958,0.0176813 -0.0207634,0.0159323 -0.0220729,0.014062 -0.0232145,0.0120847 -0.0241794,0.0100155 -0.0249603,0.00786996 -0.0255513,0.00566458 -0.0259477,0.00341608 -0.0261467,0.00114159 -7.05,-8.88178e-16 2.66454e-15,-5.7 7.05,-1.33227e-15 0.0261467,0.00114159 0.0259477,0.00341608 0.0255513,0.00566458 0.0249603,0.00786996 0.0241794,0.0100155 0.0232145,0.0120847 0.0220729,0.014062 0.0207634,0.0159323 0.0192958,0.0176813 0.0176813,0.0192958 0.0159323,0.0207634 0.014062,0.0220729 0.0120847,0.0232145 0.0100155,0.0241794 0.00786996,0.0249603 0.00566458,0.0255513 0.00341608,0.0259477 0.00114159,0.0261467 -5.32907e-15,5.1 z "/>
<path fill="rgb(241,240,234)" stroke="rgb(241,240,234)" d="M 11.9074,1.99864 l -0.0303613,-0.00164115 -0.0402082,-0.00902634 -0.0385671,-0.0147704 -0.0361054,-0.0229761 -0.0336436,-0.0287202 0.365157,-0.00738519 -0.0311819,0.0303613 -0.0344642,0.0237967 -0.0369259,0.0164115 -0.0402082,0.0106675 -0.0434906,0.00328231 z "/>
<path fill="rgb(241,240,234)" stroke="rgb(241,240,234)" d="M 12.3185,1.99864 l -0.0262584,-0.00164115 -0.0393877,-0.00574404 -0.0385671,-0.0123086 -0.0393877,-0.0172321 -0.0393877,-0.0221556 -0.0385671,-0.0287202 0.439829,-0.0147704 -0.0295408,0.0328231 -0.027079,0.0221556 -0.0352848,0.0205144 -0.0385671,0.0147704 -0.04267,0.00902634 -0.0451317,0.00328231 z "/>
<path fill="rgb(241,240,234)" stroke="rgb(241,240,234)" d="M 11.7285,1.98059 l -0.179706,0 0,-0.729492 0.179706,0 0,0.438188 0.000820576,0.0172321 0.00984692,0.0410288 0.0221556,0.0352848 0.00820576,0.00820576 0.0352848,0.021335 0.04267,0.00656461 0.72621,0.00328231 -0.0147704,0.0385671 -0.0221556,0.0352848 -0.439829,0.0147704 -0.00328231,0.00328231 -0.365157,0.00738519 0,0.0590815 z "/>
<path fill="rgb(241,240,234)" stroke="rgb(241,240,234)" d="M 12.5737,1.82222 l -0.72621,-0.00328231 0.431623,0 0.0188733,-0.000820576 0.0410288,-0.0114881 0.0311819,-0.0237967 0.0123086,-0.015591 0.0164115,-0.0377465 0.00492346,-0.0443111 0,-0.434085 0.179706,0 0,0.501372 -0.00164115,0.0287202 -0.00820576,0.0410288 z "/>
<path fill="rgb(241,240,234)" stroke="rgb(241,240,234)" d="M 11.8475,1.81894 l 0.0196938,-0.000820576 0.0393877,-0.0123086 0.0361054,-0.0246173 0.0131292,-0.015591 0.0180527,-0.0361054 0.00656461,-0.0443111 0,-0.434085 0.1715,0 0,0.44147 0.000820576,0.0139498 0.0114881,0.0402082 0.0254379,0.0344642 0.0114881,0.00984692 0.0361054,0.021335 0.0418494,0.00656461 -0.431623,0 z "/>
<path fill="rgb(241,240,234)" stroke="rgb(241,240,234)" d="M 11.0918,1.99864 l -0.0188733,-0.000820576 -0.0402082,-0.00328231 -0.0410288,-0.00656461 -0.0410288,-0.0106675 -0.0418494,-0.0139498 -0.0418494,-0.0180527 -0.0418494,-0.021335 0.0746725,-0.154268 0.0180527,0.0114881 0.0393877,0.0188733 0.0402082,0.0139498 0.0418494,0.00820576 0.0418494,0.00246173 0.280637,0.0114881 -0.0147704,0.0336436 -0.0188733,0.0303613 -0.0221556,0.0262584 -0.0262584,0.0221556 -0.0295408,0.0180527 -0.0344642,0.0139498 -0.0369259,0.00984692 -0.0418494,0.00574404 -0.0451317,0.00246173 z "/>
<path fill="rgb(241,240,234)" stroke="rgb(241,240,234)" d="M 11.3618,1.83617 l -0.280637,-0.0114881 0.00164115,0 0.04267,-0.00492346 0.0352848,-0.0139498 0.0262584,-0.0237967 0.0172321,-0.0336436 0.00984692,-0.04267 -0.324948,-0.00656461 -0.0336436,-0.0196938 -0.00246173,-0.00246173 -0.0303613,-0.027079 -0.0229761,-0.0320025 0.260123,-0.0344642 0.0262584,-0.00164115 0.0410288,-0.00574404 0.04267,-0.0106675 0.0443111,-0.015591 0,-0.112419 -0.0385671,-0.015591 -0.0434906,-0.0139498 -0.0402082,-0.00820576 -0.0361054,-0.00328231 -0.27079,-0.00246173 0.015591,-0.0377465 0.0229761,-0.0320025 0.0278996,-0.0278996 0.362695,-0.0131292 0,-0.0320025 0.169039,0 0,0.44147 0,0.0172321 -0.00328231,0.0459523 -0.00738519,0.0418494 -0.0106675,0.0385671 z "/>
<path fill="rgb(241,240,234)" stroke="rgb(241,240,234)" d="M 11.0508,1.73196 l -0.0377465,-0.00164115 -0.0459523,-0.00574404 -0.0410288,-0.0106675 -0.0369259,-0.0147704 0.324948,0.00656461 -0.0336436,0.00984692 -0.04267,0.00902634 -0.04267,0.00574404 -0.0443111,0.00164115 z "/>
<path fill="rgb(241,240,234)" stroke="rgb(241,240,234)" d="M 10.7997,1.6179 l -0.0164115,-0.0369259 -0.00984692,-0.0418494 -0.00328231,-0.0467729 0,-0.0106675 0.00410288,-0.0459523 0.0106675,-0.0418494 0.27079,0.00246173 -0.015591,0.000820576 -0.04267,0.00902634 -0.0336436,0.0196938 -0.0237967,0.0278996 -0.00984692,0.0385671 0.00656461,0.0320025 0.0278996,0.0328231 0.0106675,0.00656461 0.0377465,0.0147704 0.0467729,0.00492346 -0.260123,0.0344642 z "/>
<path fill="rgb(241,240,234)" stroke="rgb(241,240,234)" d="M 10.8514,1.29623 l 0.0180527,-0.0139498 0.0352848,-0.0196938 0.0393877,-0.0139498 0.04267,-0.00820576 0.0467729,-0.00246173 0.0164115,0 0.0434906,0.00410288 0.0418494,0.00902634 0.0402082,0.0131292 0.0385671,0.0188733 -0.362695,0.0131292 z "/>
<path fill="rgb(241,240,234)" stroke="rgb(241,240,234)" d="M 10.3533,1.99864 l -0.0188733,-0.000820576 -0.0410288,-0.00328231 -0.0402082,-0.00656461 -0.0410288,-0.0106675 -0.0418494,-0.0139498 -0.0418494,-0.0180527 -0.0418494,-0.021335 0.0746725,-0.154268 0.0180527,0.0114881 0.0393877,0.0188733 0.0402082,0.0139498 0.0418494,0.00820576 0.0418494,0.00246173 0.280637,0.0114881 -0.0147704,0.0336436 -0.0188733,0.0303613 -0.0221556,0.0262584 -0.0262584,0.0221556 -0.0295408,0.0180527 -0.0344642,0.0139498 -0.0369259,0.00984692 -0.0418494,0.00574404 -0.0451317,0.00246173 z "/>
<path fill="rgb(241,240,234)" stroke="rgb(241,240,234)" d="M 10.6232,1.83617 l -0.280637,-0.0114881 0.00164115,0 0.04267,-0.00492346 0.0352848,-0.0139498 0.0262584,-0.0237967 0.0172321,-0.0336436 0.00984692,-0.04267 -0.324948,-0.00656461 -0.0336436,-0.0196938 -0.00246173,-0.00246173 -0.0303613,-0.027079 -0.0229761,-0.0320025 0.260123,-0.0344642 0.0262584,-0.00164115 0.0410288,-0.00574404 0.04267,-0.0106675 0.0443111,-0.015591 0,-0.112419 -0.0385671,-0.015591 -0.0434906,-0.0139498 -0.0402082,-0.00820576 -0.0361054,-0.00328231 -0.27079,-0.00246173 0.015591,-0.0377465 0.0229761,-0.0320025 0.0278996,-0.0278996 0.362695,-0.0131292 0,-0.0320025 0.169039,0 0,0.44147 0,0.0172321 -0.00328231,0.0459523 -0.00738519,0.0418494 -0.0106675,0.0385671 z "/>
<path fill="rgb(241,240,234)" stroke="rgb(241,240,234)" d="M 10.3122,1.73196 l -0.0377465,-0.00164115 -0.0459523,-0.00574404 -0.0410288,-0.0106675 -0.0369259,-0.0147704 0.324948,0.00656461 -0.0336436,0.00984692 -0.04267,0.00902634 -0.04267,0.00574404 -0.0443111,0.00164115 z "/>
<path fill="rgb(241,240,234)" stroke="rgb(241,240,234)" d="M 10.0611,1.6179 l -0.0164115,-0.0369259 -0.00984692,-0.0418494 -0.00328231,-0.0467729 0,-0.0106675 0.00410288,-0.0459523 0.0106675,-0.0418494 0.27079,0.00246173 -0.015591,0.000820576 -0.04267,0.00902634 -0.0336436,0.0196938 -0.0237967,0.0278996 -0.00984692,0.0385671 0.00656461,0.0320025 0.0278996,0.0328231 0.0106675,0.00656461 0.0377465,0.0147704 0.0467729,0.00492346 -0.260123,0.0344642 z "/>
<path fill="rgb(241,240,234)" stroke="rgb(241,240,234)" d="M 10.1128,1.29623 l 0.0180527,-0.0139498 0.0352848,-0.0196938 0.0393877,-0.0139498 0.04267,-0.00820576 0.0467729,-0.00246173 0.0164115,0 0.0434906,0.00410288 0.0418494,0.00902634 0.0402082,0.0131292 0.0385671,0.0188733 -0.362695,0.0131292 z "/>
<path fill="rgb(241,240,234)" stroke="rgb(241,240,234)" d="M 9.63526,1.99372 l -0.0254379,-0.000820576 -0.0434906,-0.00738519 -0.0385671,-0.0139498 -0.0344642,-0.0221556 -0.0303613,-0.0278996 0.393877,-0.0237967 -0.0295408,0.0311819 -0.0278996,0.0205144 -0.0352848,0.0196938 -0.0393877,0.0139498 -0.04267,0.00820576 -0.0467729,0.00246173 z "/>
<path fill="rgb(241,240,234)" stroke="rgb(241,240,234)" d="M 9.46294,1.98059 l -0.178886,0 0,-0.729492 0.178886,0 0,0.438188 0.00164115,0.0188733 0.0114881,0.0393877 0.0246173,0.0369259 0.0139498,0.0131292 0.0361054,0.0205144 0.0418494,0.00656461 0.286381,0.0377465 -0.0221556,0.0352848 -0.393877,0.0237967 0,0.0590815 z "/>
<path fill="rgb(241,240,234)" stroke="rgb(241,240,234)" d="M 9.87897,1.86243 l -0.286381,-0.0377465 0.0229761,-0.000820576 0.0402082,-0.0114881 0.0328231,-0.0237967 0.0147704,-0.0180527 0.0180527,-0.0369259 0.00574404,-0.0443111 0,-0.438188 0.174783,0 0,0.507937 -0.00164115,0.0229761 -0.00738519,0.04267 -0.0139498,0.0377465 z "/>
<path fill="rgb(241,240,234)" stroke="rgb(241,240,234)" d="M 8.84668,1.99126 l -0.00902634,0 -0.0607227,-0.00820576 -0.0557992,-0.021335 -0.0500552,-0.0336436 -0.0451317,-0.0459523 -0.0221556,-0.0295408 -0.0303613,-0.0533375 -0.021335,-0.0566198 -0.0123086,-0.0615432 -0.00492346,-0.0656461 0.00246173,-0.0451317 0.00984692,-0.064005 0.0180527,-0.0582609 0.027079,-0.054158 0.261764,0.00410288 -0.0328231,0.00492346 -0.0525169,0.0328231 -0.0287202,0.0385671 -0.0229761,0.0607227 -0.00656461,0.0246173 0.445573,0 0,0.0525169 -0.000820576,0.0196938 -0.00738519,0.0623638 -0.42752,0.00574404 0.00902634,0.0311819 0.0295408,0.0549786 0.0418494,0.0320025 0.0533375,0.0114881 0.245352,0.00164115 -0.0311819,0.0475934 -0.00738519,0.00984692 -0.0459523,0.0451317 -0.0508757,0.0320025 -0.0557992,0.0188733 -0.0615432,0.00656461 z "/>
<path fill="rgb(241,240,234)" stroke="rgb(241,240,234)" d="M 9.09942,1.83125 l -0.245352,-0.00164115 0.0229761,-0.00164115 0.0533375,-0.0246173 0.0237967,-0.0352848 0.0254379,-0.0681078 -0.259302,0 0.42752,-0.00574404 -0.0164115,0.0623638 -0.00492346,0.0123086 -0.027079,0.0623638 z "/>
<path fill="rgb(241,240,234)" stroke="rgb(241,240,234)" d="M 8.96895,1.45788 l -0.00738519,-0.00820576 -0.0525169,-0.0385671 -0.0549786,-0.0131292 -0.261764,-0.00410288 0.0344642,-0.0500552 0.0106675,-0.0123086 0.0467729,-0.04267 0.0516963,-0.0311819 0.0566198,-0.0180527 0.0615432,-0.00656461 0.0180527,0.000820576 0.0599021,0.00902634 0.0549786,0.0221556 0.0508757,0.0344642 0.0451317,0.0459523 0.00574404,0.00738519 -0.119804,0.105034 z "/>
<path fill="rgb(241,240,234)" stroke="rgb(241,240,234)" d="M 8.3051,2.26697 l -0.182168,-0.0656461 0,-0.224838 -0.118984,0 0,-0.167398 0.118984,0 0,-0.351207 0,-0.00410288 0.00328231,-0.0475934 0.259302,0.00656461 -0.0328231,0.00574404 -0.0262584,0.0196938 -0.0164115,0.0336436 -0.00492346,0.048414 0,0.288843 0.150165,0 0,0.167398 -0.150165,0 0,0.290484 z "/>
<path fill="rgb(241,240,234)" stroke="rgb(241,240,234)" d="M 8.46676,1.4505 l -0.00574404,-0.00492346 -0.0385671,-0.0246173 -0.0369259,-0.00820576 -0.259302,-0.00656461 0.00902634,-0.04267 0.0147704,-0.0377465 0.021335,-0.0328231 0.0164115,-0.0188733 0.0328231,-0.0221556 0.0393877,-0.0139498 0.0451317,-0.00492346 0.00902634,0 0.0393877,0.00574404 0.0418494,0.0123086 0.04267,0.0196938 0.0287202,0.179706 z "/>
<path fill="rgb(241,240,234)" stroke="rgb(241,240,234)" d="M 7.647,1.99372 l -0.0262584,-0.000820576 -0.04267,-0.00738519 -0.0385671,-0.0139498 -0.0344642,-0.0221556 -0.0303613,-0.0278996 0.393877,-0.0237967 -0.0295408,0.0311819 -0.0278996,0.0205144 -0.0352848,0.0196938 -0.0393877,0.0139498 -0.0434906,0.00820576 -0.0459523,0.00246173 z "/>
<path fill="rgb(241,240,234)" stroke="rgb(241,240,234)" d="M 7.47468,1.98059 l -0.178886,0 0,-0.729492 0.178886,0 0,0.438188 0.00164115,0.0188733 0.0114881,0.0393877 0.0246173,0.0369259 0.0139498,0.0131292 0.0361054,0.0205144 0.0418494,0.00656461 0.286381,0.0377465 -0.0221556,0.0352848 -0.393877,0.0237967 0,0.0590815 z "/>
<path fill="rgb(241,240,234)" stroke="rgb(241,240,234)" d="M 7.89071,1.86243 l -0.286381,-0.0377465 0.0221556,-0.000820576 0.0410288,-0.0114881 0.0328231,-0.0237967 0.0147704,-0.0180527 0.0172321,-0.0369259 0.00574404,-0.0443111 0,-0.438188 0.174783,0 0,0.507937 -0.000820576,0.0229761 -0.00738519,0.04267 -0.0139498,0.0377465 z "/>
<path fill="rgb(241,240,234)" stroke="rgb(241,240,234)" d="M 6.85843,1.99126 l -0.00902634,0 -0.0607227,-0.00820576 -0.0557992,-0.021335 -0.0500552,-0.0336436 -0.0459523,-0.0459523 -0.021335,-0.0295408 -0.0303613,-0.0533375 -0.021335,-0.0566198 -0.0123086,-0.0615432 -0.00492346,-0.0656461 0.00246173,-0.0451317 0.00984692,-0.064005 0.0180527,-0.0582609 0.027079,-0.054158 0.261764,0.00410288 -0.0328231,0.00492346 -0.0533375,0.0328231 -0.0287202,0.0385671 -0.0221556,0.0607227 -0.00738519,0.0246173 0.446394,0 0,0.0525169 -0.000820576,0.0196938 -0.00738519,0.0623638 -0.42752,0.00574404 0.00902634,0.0311819 0.0295408,0.0549786 0.0418494,0.0320025 0.0533375,0.0114881 0.245352,0.00164115 -0.0311819,0.0475934 -0.00738519,0.00984692 -0.0459523,0.0451317 -0.0508757,0.0320025 -0.0557992,0.0188733 -0.0615432,0.00656461 z "/>
<path fill="rgb(241,240,234)" stroke="rgb(241,240,234)" d="M 7.11116,1.83125 l -0.245352,-0.00164115 0.0229761,-0.00164115 0.0525169,-0.0246173 0.0246173,-0.0352848 0.0254379,-0.0681078 -0.259302,0 0.42752,-0.00574404 -0.0172321,0.0623638 -0.00410288,0.0123086 -0.027079,0.0623638 z "/>
<path fill="rgb(241,240,234)" stroke="rgb(241,240,234)" d="M 6.98069,1.45788 l -0.00738519,-0.00820576 -0.0525169,-0.0385671 -0.0549786,-0.0131292 -0.261764,-0.00410288 0.0344642,-0.0500552 0.0106675,-0.0123086 0.0467729,-0.04267 0.0516963,-0.0311819 0.0566198,-0.0180527 0.0615432,-0.00656461 0.0180527,0.000820576 0.0599021,0.00902634 0.0549786,0.0221556 0.0508757,0.0344642 0.0451317,0.0459523 0.00574404,0.00738519 -0.119804,0.105034 z "/>
<path fill="rgb(241,240,234)" stroke="rgb(241,240,234)" d="M 6.14042,1.99126 l -0.00902634,0 -0.0607227,-0.00820576 -0.0557992,-0.021335 -0.0500552,-0.0336436 -0.0459523,-0.0459523 -0.021335,-0.0295408 -0.0303613,-0.0533375 -0.021335,-0.0566198 -0.0131292,-0.0615432 -0.00410288,-0.0656461 0.00246173,-0.0451317 0.00984692,-0.064005 0.0180527,-0.0582609 0.0262584,-0.054158 0.262584,0.00410288 -0.0328231,0.00492346 -0.0533375,0.0328231 -0.0287202,0.0385671 -0.0221556,0.0607227 -0.00738519,0.0246173 0.445573,0 0,0.0525169 0,0.0196938 -0.00738519,0.0623638 -0.42752,0.00574404 0.00902634,0.0311819 0.0295408,0.0549786 0.0410288,0.0320025 0.054158,0.0114881 0.245352,0.00164115 -0.0311819,0.0475934 -0.00820576,0.00984692 -0.0451317,0.0451317 -0.0508757,0.0320025 -0.0557992,0.0188733 -0.0615432,0.00656461 z "/>
<path fill="rgb(241,240,234)" stroke="rgb(241,240,234)" d="M 6.39316,1.83125 l -0.245352,-0.00164115 0.0229761,-0.00164115 0.0525169,-0.0246173 0.0246173,-0.0352848 0.0254379,-0.0681078 -0.259302,0 0.42752,-0.00574404 -0.0172321,0.0623638 -0.00410288,0.0123086 -0.027079,0.0623638 z "/>
<path fill="rgb(241,240,234)" stroke="rgb(241,240,234)" d="M 6.26269,1.45788 l -0.00738519,-0.00820576 -0.0533375,-0.0385671 -0.054158,-0.0131292 -0.262584,-0.00410288 0.0352848,-0.0500552 0.0106675,-0.0123086 0.0467729,-0.04267 0.0516963,-0.0311819 0.0566198,-0.0180527 0.0615432,-0.00656461 0.0172321,0.000820576 0.0607227,0.00902634 0.0549786,0.0221556 0.0500552,0.0344642 0.0459523,0.0459523 0.00574404,0.00738519 -0.119804,0.105034 z "/>
<path fill="rgb(241,240,234)" stroke="rgb(241,240,234)" d="M 5.01295,1.99864 l -0.0303613,-0.00164115 -0.0402082,-0.00902634 -0.0385671,-0.0147704 -0.0361054,-0.0229761 -0.0336436,-0.0287202 0.365157,-0.00738519 -0.0311819,0.0303613 -0.0344642,0.0237967 -0.0369259,0.0164115 -0.0402082,0.0106675 -0.0434906,0.00328231 z "/>
<path fill="rgb(241,240,234)" stroke="rgb(241,240,234)" d="M 5.42406,1.99864 l -0.0262584,-0.00164115 -0.0385671,-0.00574404 -0.0393877,-0.0123086 -0.0393877,-0.0172321 -0.0385671,-0.0221556 -0.0393877,-0.0287202 0.439829,-0.0147704 -0.0287202,0.0328231 -0.0278996,0.0221556 -0.0352848,0.0205144 -0.0385671,0.0147704 -0.04267,0.00902634 -0.0451317,0.00328231 z "/>
<path fill="rgb(241,240,234)" stroke="rgb(241,240,234)" d="M 4.83406,1.98059 l -0.179706,0 0,-0.729492 0.179706,0 0,0.438188 0.000820576,0.0172321 0.0106675,0.0410288 0.0221556,0.0352848 0.00820576,0.00820576 0.0344642,0.021335 0.04267,0.00656461 0.72621,0.00328231 -0.0147704,0.0385671 -0.0221556,0.0352848 -0.439829,0.0147704 -0.00328231,0.00328231 -0.365157,0.00738519 0,0.0590815 z "/>
<path fill="rgb(241,240,234)" stroke="rgb(241,240,234)" d="M 5.67926,1.82222 l -0.72621,-0.00328231 0.431623,0 0.0188733,-0.000820576 0.0410288,-0.0114881 0.0320025,-0.0237967 0.0114881,-0.015591 0.0164115,-0.0377465 0.00492346,-0.0443111 0,-0.434085 0.179706,0 0,0.501372 -0.00164115,0.0287202 -0.00820576,0.0410288 z "/>
<path fill="rgb(241,240,234)" stroke="rgb(241,240,234)" d="M 4.95305,1.81894 l 0.0196938,-0.000820576 0.0402082,-0.0123086 0.0352848,-0.0246173 0.0131292,-0.015591 0.0188733,-0.0361054 0.00574404,-0.0443111 0,-0.434085 0.1715,0 0,0.44147 0.000820576,0.0139498 0.0114881,0.0402082 0.0262584,0.0344642 0.0106675,0.00984692 0.0369259,0.021335 0.0410288,0.00656461 -0.431623,0 z "/>
<path fill="rgb(241,240,234)" stroke="rgb(241,240,234)" d="M 4.21781,1.99126 l -0.00984692,0 -0.0599021,-0.00820576 -0.0557992,-0.021335 -0.0508757,-0.0336436 -0.0451317,-0.0459523 -0.0221556,-0.0295408 -0.0295408,-0.0533375 -0.021335,-0.0566198 -0.0131292,-0.0615432 -0.00410288,-0.0656461 0.00164115,-0.0451317 0.00984692,-0.064005 0.0188733,-0.0582609 0.0262584,-0.054158 0.262584,0.00410288 -0.0328231,0.00492346 -0.0533375,0.0328231 -0.0287202,0.0385671 -0.0221556,0.0607227 -0.00738519,0.0246173 0.445573,0 0,0.0525169 0,0.0196938 -0.00738519,0.0623638 -0.428341,0.00574404 0.00984692,0.0311819 0.0287202,0.0549786 0.0418494,0.0320025 0.054158,0.0114881 0.245352,0.00164115 -0.0311819,0.0475934 -0.00820576,0.00984692 -0.0451317,0.0451317 -0.0508757,0.0320025 -0.0557992,0.0188733 -0.0615432,0.00656461 z "/>
<path fill="rgb(241,240,234)" stroke="rgb(241,240,234)" d="M 4.47055,1.83125 l -0.245352,-0.00164115 0.0229761,-0.00164115 0.0525169,-0.0246173 0.0237967,-0.0352848 0.0254379,-0.0681078 -0.259302,0 0.428341,-0.00574404 -0.0172321,0.0623638 -0.00410288,0.0123086 -0.027079,0.0623638 z "/>
<path fill="rgb(241,240,234)" stroke="rgb(241,240,234)" d="M 4.34008,1.45788 l -0.00820576,-0.00820576 -0.0525169,-0.0385671 -0.054158,-0.0131292 -0.262584,-0.00410288 0.0352848,-0.0500552 0.0106675,-0.0123086 0.0467729,-0.04267 0.0516963,-0.0311819 0.0566198,-0.0180527 0.0615432,-0.00656461 0.0172321,0.000820576 0.0607227,0.00902634 0.0549786,0.0221556 0.0500552,0.0344642 0.0459523,0.0459523 0.00574404,0.00738519 -0.119804,0.105034 z "/>
<path fill="rgb(241,240,234)" stroke="rgb(241,240,234)" d="M 3.3521,2.26697 l -0.0377465,-0.00164115 -0.0615432,-0.00984692 -0.0574404,-0.0188733 -0.0525169,-0.0278996 -0.0475934,-0.0369259 -0.04267,-0.0467729 -0.0123086,-0.015591 0.311819,-0.0205144 0.00656461,0 0.0574404,-0.00984692 0.0500552,-0.0254379 0.0418494,-0.0410288 0.0336436,-0.0574404 0.182168,0.064005 -0.027079,0.0516963 -0.0352848,0.0516963 -0.0393877,0.0443111 -0.0451317,0.0361054 -0.0492346,0.0278996 -0.0533375,0.0196938 -0.0590815,0.0123086 -0.0631844,0.00410288 z "/>
<path fill="rgb(241,240,234)" stroke="rgb(241,240,234)" d="M 3.04028,2.10942 l -0.0303613,-0.0475934 -0.0254379,-0.0525169 -0.0188733,-0.0574404 -0.0139498,-0.0623638 -0.00820576,-0.0664667 -0.00328231,-0.0705696 0.00246173,-0.0689284 0.00820576,-0.0664667 0.0131292,-0.0623638 0.0180527,-0.0582609 0.0237967,-0.0525169 0.0295408,-0.0492346 0.316743,0.0180527 -0.048414,0.00410288 -0.0557992,0.0196938 -0.0459523,0.0352848 -0.0361054,0.0500552 -0.0172321,0.0377465 -0.0172321,0.0566198 -0.00984692,0.064005 -0.00328231,0.0722107 0,0.00328231 0.00410288,0.069749 0.0123086,0.0631844 0.0205144,0.0557992 0.0287202,0.0492346 0.0114881,0.0164115 0.0459523,0.0434906 0.0516963,0.0262584 0.0590815,0.00902634 -0.311819,0.0205144 z "/>
<path fill="rgb(241,240,234)" stroke="rgb(241,240,234)" d="M 3.75008,1.74919 l -0.351207,0 0,-0.178886 0.164936,0 -0.00492346,-0.015591 -0.0278996,-0.054158 -0.0459523,-0.0443111 -0.0139498,-0.00984692 -0.0557992,-0.0254379 -0.0631844,-0.00820576 -0.316743,-0.0180527 0.00246173,-0.00328231 0.0393877,-0.048414 0.0451317,-0.0393877 0.0500552,-0.0311819 0.0549786,-0.021335 0.0599021,-0.0131292 0.0648255,-0.00492346 0.064005,0.00492346 0.0599021,0.0131292 0.0566198,0.0221556 0.0525169,0.0320025 0.048414,0.0402082 0.0402082,0.0443111 0.0336436,0.0516963 0.0237967,0.0549786 0.0139498,0.0599021 0.00492346,0.0631844 0,0.129651 z "/>
<path fill="rgb(241,240,234)" stroke="rgb(241,240,234)" d="M 13.08,4.6967 l -0.054158,-0.00328231 -0.0730313,-0.015591 -0.0689284,-0.027079 -0.0656461,-0.0402082 -0.0607227,-0.0533375 0.658102,-0.0123086 -0.0566198,0.0549786 -0.0615432,0.0418494 -0.0672873,0.0303613 -0.0722107,0.0180527 -0.0779548,0.00656461 z "/>
<path fill="rgb(241,240,234)" stroke="rgb(241,240,234)" d="M 13.8194,4.6967 l -0.0467729,-0.00246173 -0.069749,-0.0114881 -0.0705696,-0.021335 -0.0705696,-0.0303613 -0.0705696,-0.0410288 -0.069749,-0.0508757 0.791036,-0.0262584 -0.0516963,0.0574404 -0.0500552,0.0410288 -0.0631844,0.0369259 -0.069749,0.027079 -0.0763136,0.015591 -0.0820576,0.00574404 z "/>
<path fill="rgb(241,240,234)" stroke="rgb(241,240,234)" d="M 12.7576,4.6647 l -0.322487,0 0,-1.31374 0.322487,0 0,0.789395 0.00164115,0.0303613 0.0188733,0.0746725 0.0402082,0.0631844 0.0139498,0.0147704 0.0631844,0.0377465 0.0771342,0.0131292 1.30718,0.00574404 -0.027079,0.0689284 -0.0402082,0.064005 -0.791036,0.0262584 -0.00574404,0.00574404 -0.658102,0.0123086 0,0.107496 z "/>
<path fill="rgb(241,240,234)" stroke="rgb(241,240,234)" d="M 14.2797,4.37996 l -1.30718,-0.00574404 0.776265,0 0.0352848,-0.00246173 0.0730313,-0.0205144 0.0566198,-0.04267 0.021335,-0.0278996 0.0295408,-0.0672873 0.00984692,-0.0812371 0,-0.781189 0.322487,0 0,0.901814 -0.00328231,0.0525169 -0.0139498,0.0746725 z "/>
<path fill="rgb(241,240,234)" stroke="rgb(241,240,234)" d="M 12.9725,4.37421 l 0.0352848,-0.00246173 0.0713901,-0.0221556 0.064005,-0.0443111 0.0246173,-0.0278996 0.0328231,-0.0656461 0.0106675,-0.0795959 0,-0.781189 0.309357,0 0,0.794318 0.00164115,0.0262584 0.0205144,0.0713901 0.0459523,0.0623638 0.0196938,0.0188733 0.0656461,0.0369259 0.0746725,0.0131292 -0.776265,0 z "/>
<path fill="rgb(241,240,234)" stroke="rgb(241,240,234)" d="M 11.612,4.6967 l -0.0344642,-0.000820576 -0.0722107,-0.00656461 -0.0738519,-0.0123086 -0.0738519,-0.0188733 -0.0746725,-0.0254379 -0.075493,-0.0320025 -0.075493,-0.0377465 0.133754,-0.278175 0.0336436,0.0205144 0.0705696,0.0344642 0.0730313,0.0246173 0.0738519,0.0147704 0.0763136,0.00492346 0.504655,0.0196938 -0.0262584,0.0615432 -0.0336436,0.054158 -0.0402082,0.0467729 -0.0467729,0.0402082 -0.054158,0.0320025 -0.0607227,0.0254379 -0.0681078,0.0180527 -0.0746725,0.0106675 -0.0812371,0.00410288 z "/>
<path fill="rgb(241,240,234)" stroke="rgb(241,240,234)" d="M 12.0978,4.40375 l -0.504655,-0.0196938 0.00246173,0 0.0771342,-0.00902634 0.0631844,-0.0254379 0.0467729,-0.0434906 0.0320025,-0.0599021 0.0172321,-0.0771342 -0.585071,-0.0114881 -0.0599021,-0.0352848 -0.00492346,-0.00410288 -0.054158,-0.0492346 -0.0418494,-0.0582609 0.467729,-0.0615432 0.0475934,-0.00246173 0.0738519,-0.0106675 0.0771342,-0.0188733 0.0795959,-0.0287202 0,-0.201862 -0.0689284,-0.0278996 -0.0787753,-0.0254379 -0.0722107,-0.015591 -0.0656461,-0.00492346 -0.487422,-0.00492346 0.0295408,-0.0664667 0.0402082,-0.0590815 0.0508757,-0.0500552 0.652358,-0.0237967 0,-0.0574404 0.304434,0 0,0.794318 -0.000820576,0.0311819 -0.00574404,0.0828782 -0.0123086,0.0763136 -0.0196938,0.0681078 z "/>
<path fill="rgb(241,240,234)" stroke="rgb(241,240,234)" d="M 11.5382,4.21666 l -0.0681078,-0.00246173 -0.0820576,-0.0106675 -0.0746725,-0.0188733 -0.0664667,-0.027079 0.585071,0.0114881 -0.0607227,0.0180527 -0.0763136,0.0164115 -0.0779548,0.00984692 -0.0787753,0.00328231 z "/>
<path fill="rgb(241,240,234)" stroke="rgb(241,240,234)" d="M 11.086,4.0107 l -0.0295408,-0.0664667 -0.0180527,-0.0746725 -0.00574404,-0.0836988 0,-0.0188733 0.00738519,-0.0836988 0.0188733,-0.075493 0.487422,0.00492346 -0.027079,0.000820576 -0.0771342,0.0164115 -0.0607227,0.0352848 -0.04267,0.0508757 -0.0180527,0.069749 0.0123086,0.0566198 0.0508757,0.0590815 0.0188733,0.0123086 0.0672873,0.0262584 0.0836988,0.00902634 -0.467729,0.0615432 z "/>
<path fill="rgb(241,240,234)" stroke="rgb(241,240,234)" d="M 11.1796,3.43219 l 0.0320025,-0.0246173 0.064005,-0.0352848 0.0705696,-0.0254379 0.0771342,-0.0147704 0.0836988,-0.00492346 0.0295408,0 0.0787753,0.00738519 0.075493,0.0164115 0.0722107,0.0246173 0.0689284,0.0328231 -0.652358,0.0237967 z "/>
<path fill="rgb(241,240,234)" stroke="rgb(241,240,234)" d="M 10.2827,4.6967 l -0.0344642,-0.000820576 -0.0730313,-0.00656461 -0.0730313,-0.0123086 -0.0738519,-0.0188733 -0.0746725,-0.0254379 -0.075493,-0.0320025 -0.075493,-0.0377465 0.133754,-0.278175 0.0336436,0.0205144 0.0705696,0.0344642 0.0730313,0.0246173 0.0738519,0.0147704 0.0763136,0.00492346 0.504655,0.0196938 -0.0262584,0.0615432 -0.0336436,0.054158 -0.0402082,0.0467729 -0.0467729,0.0402082 -0.054158,0.0320025 -0.0607227,0.0254379 -0.0681078,0.0180527 -0.0746725,0.0106675 -0.0812371,0.00410288 z "/>
<path fill="rgb(241,240,234)" stroke="rgb(241,240,234)" d="M 10.7685,4.40375 l -0.504655,-0.0196938 0.00246173,0 0.0771342,-0.00902634 0.0631844,-0.0254379 0.0467729,-0.0434906 0.0320025,-0.0599021 0.0172321,-0.0771342 -0.585071,-0.0114881 -0.0599021,-0.0352848 -0.00492346,-0.00410288 -0.054158,-0.0492346 -0.0418494,-0.0582609 0.467729,-0.0615432 0.0475934,-0.00246173 0.0738519,-0.0106675 0.0771342,-0.0188733 0.0795959,-0.0287202 0,-0.201862 -0.0689284,-0.0278996 -0.0787753,-0.0254379 -0.0722107,-0.015591 -0.0656461,-0.00492346 -0.487422,-0.00492346 0.0295408,-0.0664667 0.0402082,-0.0590815 0.0508757,-0.0500552 0.652358,-0.0237967 0,-0.0574404 0.304434,0 0,0.794318 -0.000820576,0.0311819 -0.00574404,0.0828782 -0.0123086,0.0763136 -0.0196938,0.0681078 z "/>
<path fill="rgb(241,240,234)" stroke="rgb(241,240,234)" d="M 10.2088,4.21666 l -0.0681078,-0.00246173 -0.0820576,-0.0106675 -0.0746725,-0.0188733 -0.0664667,-0.027079 0.585071,0.0114881 -0.0607227,0.0180527 -0.0763136,0.0164115 -0.0779548,0.00984692 -0.0787753,0.00328231 z "/>
<path fill="rgb(241,240,234)" stroke="rgb(241,240,234)" d="M 9.7567,4.0107 l -0.0295408,-0.0664667 -0.0180527,-0.0746725 -0.00574404,-0.0836988 0,-0.0188733 0.00738519,-0.0836988 0.0188733,-0.075493 0.487422,0.00492346 -0.027079,0.000820576 -0.0771342,0.0164115 -0.0607227,0.0352848 -0.04267,0.0508757 -0.0180527,0.069749 0.0123086,0.0566198 0.0508757,0.0590815 0.0188733,0.0123086 0.0672873,0.0262584 0.0836988,0.00902634 -0.467729,0.0615432 z "/>
<path fill="rgb(241,240,234)" stroke="rgb(241,240,234)" d="M 9.85025,3.43219 l 0.0320025,-0.0246173 0.064005,-0.0352848 0.069749,-0.0254379 0.0779548,-0.0147704 0.0836988,-0.00492346 0.0295408,0 0.0787753,0.00738519 0.075493,0.0164115 0.0722107,0.0246173 0.0689284,0.0328231 -0.652358,0.0237967 z "/>
<path fill="rgb(241,240,234)" stroke="rgb(241,240,234)" d="M 8.99028,4.68849 l -0.0467729,-0.00164115 -0.0771342,-0.0131292 -0.069749,-0.0262584 -0.0615432,-0.0385671 -0.0549786,-0.0516963 0.708978,-0.04267 -0.0533375,0.0557992 -0.0500552,0.0385671 -0.064005,0.0352848 -0.0705696,0.0246173 -0.0771342,0.0147704 -0.0836988,0.00492346 z "/>
<path fill="rgb(241,240,234)" stroke="rgb(241,240,234)" d="M 8.68011,4.6647 l -0.322487,0 0,-1.31374 0.322487,0 0,0.789395 0.00246173,0.0336436 0.0221556,0.0713901 0.0443111,0.0656461 0.0246173,0.0246173 0.0648255,0.0361054 0.075493,0.0123086 0.514501,0.0681078 -0.0393877,0.0623638 -0.708978,0.04267 0,0.107496 z "/>
<path fill="rgb(241,240,234)" stroke="rgb(241,240,234)" d="M 9.42847,4.45217 l -0.514501,-0.0681078 0.0402082,-0.00246173 0.0730313,-0.0205144 0.0599021,-0.04267 0.0262584,-0.0320025 0.0311819,-0.0664667 0.0106675,-0.0795959 0,-0.789395 0.314281,0 0,0.914943 -0.00164115,0.0410288 -0.0131292,0.0763136 -0.0262584,0.0689284 z "/>
<path fill="rgb(241,240,234)" stroke="rgb(241,240,234)" d="M 7.58464,4.68849 l -0.00246173,0 -0.0886223,-0.00410288 -0.0812371,-0.0114881 -0.0738519,-0.0196938 -0.0656461,-0.027079 -0.0582609,-0.0344642 -0.00984692,-0.00738519 -0.0566198,-0.0533375 -0.0402082,-0.0607227 -0.0237967,-0.0689284 0.507937,-0.0221556 0.0164115,0 0.0763136,-0.00574404 0.0746725,-0.0139498 0.0738519,-0.021335 0.0730313,-0.0295408 0.0713901,-0.0369259 0.118163,0.285561 -0.0623638,0.0311819 -0.0730313,0.0303613 -0.0746725,0.0254379 -0.0738519,0.0196938 -0.075493,0.0139498 -0.075493,0.00820576 -0.0763136,0.00246173 z "/>
<path fill="rgb(241,240,234)" stroke="rgb(241,240,234)" d="M 7.08409,4.40129 l -0.00820576,-0.0771342 0.00164115,-0.0352848 0.0139498,-0.0738519 0.0278996,-0.0672873 0.0434906,-0.0607227 0.0574404,-0.054158 0.0123086,-0.00984692 0.0500552,-0.0311819 0.0615432,-0.0295408 0.0738519,-0.0303613 0.0853399,-0.0287202 0.096828,-0.0278996 0.10011,-0.0287202 0.0418494,-0.0131292 0.0607227,-0.04267 0.0229761,-0.0623638 -0.0106675,-0.0352848 -0.04267,-0.0311819 -0.0738519,-0.0188733 -0.106675,-0.00656461 0.54076,-0.00164115 0.00738519,0.0804165 0,0.0205144 -0.00820576,0.0631844 -0.0172321,0.0590815 -0.0278996,0.054158 -0.0369259,0.0500552 -0.0467729,0.0451317 -0.0557992,0.0402082 -0.0664667,0.0361054 -0.0763136,0.0311819 -0.0853399,0.027079 -0.0951869,0.0221556 -0.0475934,0.00984692 -0.0836988,0.0221556 -0.0525169,0.0205144 -0.0139498,0.00902634 -0.0303613,0.064005 0.00164115,0.0172321 0.0295408,0.0402082 0.0648255,0.0237967 0.10011,0.00820576 -0.507937,0.0221556 z "/>
<path fill="rgb(241,240,234)" stroke="rgb(241,240,234)" d="M 7.16204,3.72842 l -0.117342,-0.283099 0.0278996,-0.0131292 0.0664667,-0.0278996 0.0705696,-0.0237967 0.0730313,-0.0188733 0.0763136,-0.015591 0.0787753,-0.0106675 0.0820576,-0.00656461 0.0853399,-0.00164115 0.0352848,0 0.0878017,0.00656461 0.0804165,0.0131292 0.0713901,0.0205144 0.0648255,0.027079 0.0566198,0.0344642 0.0229761,0.0180527 0.0508757,0.0533375 0.0361054,0.0631844 0.021335,0.0713901 -0.54076,0.00164115 -0.0164115,0 -0.0681078,0.00656461 -0.0787753,0.0139498 -0.0878017,0.021335 -0.0303613,0.00820576 -0.0787753,0.021335 -0.069749,0.0205144 z "/>
<path fill="rgb(241,240,234)" stroke="rgb(241,240,234)" d="M 6.66641,5.1792 l -0.32741,-0.118163 0,-0.403724 -0.214991,0 0,-0.301972 0.214991,0 0,-0.631844 0,-0.00738519 0.00574404,-0.0861605 0.466087,0.0114881 -0.0582609,0.0106675 -0.0475934,0.0361054 -0.0287202,0.0607227 -0.00984692,0.0869811 0,0.519425 0.27079,0 0,0.301972 -0.27079,0 0,0.521887 z "/>
<path fill="rgb(241,240,234)" stroke="rgb(241,240,234)" d="M 6.95772,3.71037 l -0.0106675,-0.00984692 -0.0689284,-0.0443111 -0.0672873,-0.0147704 -0.466087,-0.0114881 0.0164115,-0.0771342 0.027079,-0.0672873 0.0377465,-0.0590815 0.0303613,-0.0328231 0.0590815,-0.0418494 0.069749,-0.0246173 0.0812371,-0.00820576 0.0164115,0.000820576 0.0713901,0.00902634 0.0746725,0.0229761 0.0763136,0.0352848 0.0525169,0.323307 z "/>
<path fill="rgb(241,240,234)" stroke="rgb(241,240,234)" d="M 5.44539,4.6967 l -0.0344642,-0.000820576 -0.0730313,-0.00656461 -0.0730313,-0.0123086 -0.0738519,-0.0188733 -0.0746725,-0.0254379 -0.075493,-0.0320025 -0.075493,-0.0377465 0.133754,-0.278175 0.0336436,0.0205144 0.0705696,0.0344642 0.0722107,0.0246173 0.0746725,0.0147704 0.0763136,0.00492346 0.504655,0.0196938 -0.027079,0.0615432 -0.0328231,0.054158 -0.0402082,0.0467729 -0.0475934,0.0402082 -0.054158,0.0320025 -0.0607227,0.0254379 -0.0672873,0.0180527 -0.0746725,0.0106675 -0.0812371,0.00410288 z "/>
<path fill="rgb(241,240,234)" stroke="rgb(241,240,234)" d="M 5.93118,4.40375 l -0.504655,-0.0196938 0.00246173,0 0.0771342,-0.00902634 0.0623638,-0.0254379 0.0475934,-0.0434906 0.0320025,-0.0599021 0.0172321,-0.0771342 -0.585071,-0.0114881 -0.0599021,-0.0352848 -0.00492346,-0.00410288 -0.054158,-0.0492346 -0.0418494,-0.0582609 0.467729,-0.0615432 0.0475934,-0.00246173 0.0738519,-0.0106675 0.0763136,-0.0188733 0.0804165,-0.0287202 0,-0.201862 -0.0689284,-0.0278996 -0.0795959,-0.0254379 -0.0722107,-0.015591 -0.0648255,-0.00492346 -0.487422,-0.00492346 0.0287202,-0.0664667 0.0402082,-0.0590815 0.0508757,-0.0500552 0.653179,-0.0237967 0,-0.0574404 0.304434,0 0,0.794318 -0.000820576,0.0311819 -0.00574404,0.0828782 -0.0131292,0.0763136 -0.0188733,0.0681078 z "/>
<path fill="rgb(241,240,234)" stroke="rgb(241,240,234)" d="M 5.37154,4.21666 l -0.0689284,-0.00246173 -0.0812371,-0.0106675 -0.0746725,-0.0188733 -0.0664667,-0.027079 0.585071,0.0114881 -0.0615432,0.0180527 -0.075493,0.0164115 -0.0779548,0.00984692 -0.0787753,0.00328231 z "/>
<path fill="rgb(241,240,234)" stroke="rgb(241,240,234)" d="M 4.9194,4.0107 l -0.0295408,-0.0664667 -0.0180527,-0.0746725 -0.00656461,-0.0836988 0.000820576,-0.0188733 0.00738519,-0.0836988 0.0188733,-0.075493 0.487422,0.00492346 -0.027079,0.000820576 -0.0779548,0.0164115 -0.0607227,0.0352848 -0.0418494,0.0508757 -0.0180527,0.069749 0.0123086,0.0566198 0.0508757,0.0590815 0.0180527,0.0123086 0.0681078,0.0262584 0.0836988,0.00902634 -0.467729,0.0615432 z "/>
<path fill="rgb(241,240,234)" stroke="rgb(241,240,234)" d="M 5.01213,3.43219 l 0.0328231,-0.0246173 0.0631844,-0.0352848 0.0705696,-0.0254379 0.0771342,-0.0147704 0.0845194,-0.00492346 0.0287202,0 0.0787753,0.00738519 0.0763136,0.0164115 0.0722107,0.0246173 0.0689284,0.0328231 -0.653179,0.0237967 z "/>
<path fill="rgb(241,240,234)" stroke="rgb(241,240,234)" d="M 4.11524,4.6967 l -0.0336436,-0.000820576 -0.0730313,-0.00656461 -0.0730313,-0.0123086 -0.0738519,-0.0188733 -0.0746725,-0.0254379 -0.075493,-0.0320025 -0.075493,-0.0377465 0.133754,-0.278175 0.0336436,0.0205144 0.0705696,0.0344642 0.0722107,0.0246173 0.0746725,0.0147704 0.0763136,0.00492346 0.504655,0.0196938 -0.027079,0.0615432 -0.0328231,0.054158 -0.0402082,0.0467729 -0.0475934,0.0402082 -0.054158,0.0320025 -0.0607227,0.0254379 -0.0672873,0.0180527 -0.0746725,0.0106675 -0.0820576,0.00410288 z "/>
<path fill="rgb(241,240,234)" stroke="rgb(241,240,234)" d="M 4.60184,4.40375 l -0.504655,-0.0196938 0.00246173,0 0.0771342,-0.00902634 0.0623638,-0.0254379 0.0475934,-0.0434906 0.0320025,-0.0599021 0.0172321,-0.0771342 -0.585071,-0.0114881 -0.0599021,-0.0352848 -0.00492346,-0.00410288 -0.054158,-0.0492346 -0.0418494,-0.0582609 0.467729,-0.0615432 0.0475934,-0.00246173 0.0738519,-0.0106675 0.0763136,-0.0188733 0.0804165,-0.0287202 0,-0.201862 -0.0689284,-0.0278996 -0.0795959,-0.0254379 -0.0722107,-0.015591 -0.0648255,-0.00492346 -0.487422,-0.00492346 0.0287202,-0.0664667 0.0402082,-0.0590815 0.0508757,-0.0500552 0.653179,-0.0237967 0,-0.0574404 0.304434,0 0,0.794318 -0.000820576,0.0311819 -0.00574404,0.0828782 -0.0131292,0.0763136 -0.0188733,0.0681078 z "/>
<path fill="rgb(241,240,234)" stroke="rgb(241,240,234)" d="M 4.04221,4.21666 l -0.0689284,-0.00246173 -0.0812371,-0.0106675 -0.0746725,-0.0188733 -0.0664667,-0.027079 0.585071,0.0114881 -0.0615432,0.0180527 -0.075493,0.0164115 -0.0779548,0.00984692 -0.0787753,0.00328231 z "/>
<path fill="rgb(241,240,234)" stroke="rgb(241,240,234)" d="M 3.59007,4.0107 l -0.0295408,-0.0664667 -0.0180527,-0.0746725 -0.00656461,-0.0836988 0.000820576,-0.0188733 0.00738519,-0.0836988 0.0188733,-0.075493 0.487422,0.00492346 -0.027079,0.000820576 -0.0779548,0.0164115 -0.0607227,0.0352848 -0.0418494,0.0508757 -0.0180527,0.069749 0.0123086,0.0566198 0.0508757,0.0590815 0.0180527,0.0123086 0.0681078,0.0262584 0.0836988,0.00902634 -0.467729,0.0615432 z "/>
<path fill="rgb(241,240,234)" stroke="rgb(241,240,234)" d="M 3.6828,3.43219 l 0.0328231,-0.0246173 0.0631844,-0.0352848 0.0705696,-0.0254379 0.0771342,-0.0147704 0.0845194,-0.00492346 0.0287202,0 0.0787753,0.00738519 0.0763136,0.0164115 0.0722107,0.0246173 0.0689284,0.0328231 -0.653179,0.0237967 z "/>
<path fill="rgb(241,240,234)" stroke="rgb(241,240,234)" d="M 3.28974,3.35095 l -0.322487,0 0,1.69695 0.322487,0.131292 0,-1.82824 z "/>
<path fill="rgb(241,240,234)" stroke="rgb(241,240,234)" d="M 2.13601,5.15048 l -0.838629,0 0,-1.79952 0.32741,0 0,0.705696 0.511219,0 0.027079,0 0.0853399,0.00656461 0.0779548,0.0131292 0.069749,0.021335 0.0623638,0.0295408 0.0467729,0.0295408 0.0599021,0.0492346 0.0516963,0.0566198 0.0434906,0.064005 0.0254379,0.0492346 -1.06101,0.00328231 0,0.448855 0.524348,0 0.521066,0.0418494 -0.0393877,0.0590815 -0.0492346,0.0533375 -0.0582609,0.0492346 -0.0672873,0.04267 -0.0180527,0.00984692 -0.0672873,0.0287202 -0.0730313,0.021335 -0.0787753,0.0123086 -0.0828782,0.00410288 z "/>
<path fill="rgb(241,240,234)" stroke="rgb(241,240,234)" d="M 2.6702,4.86984 l -0.521066,-0.0418494 0.0582609,-0.00410288 0.0746725,-0.0196938 0.0582609,-0.0369259 0.0262584,-0.0262584 0.0352848,-0.0648255 0.0123086,-0.0763136 -0.00246173,-0.0336436 -0.0229761,-0.0713901 -0.048414,-0.0557992 -0.0393877,-0.0254379 -0.0705696,-0.0262584 -0.0812371,-0.00820576 -0.524348,0 1.06101,-0.00328231 0.0287202,0.0730313 0.0164115,0.0746725 0.00574404,0.0763136 -0.00328231,0.0607227 -0.0114881,0.0746725 -0.0205144,0.069749 -0.0311819,0.0648255 z "/>
</g></g></svg>
