<?xml version="1.0" encoding="UTF-8" standalone="no"?>
<!DOCTYPE svg PUBLIC "-//W3C//DTD SVG 1.1//EN" "http://www.w3.org/Graphics/SVG/1.1/DTD/svg11-flat.dtd"
[

]>
<svg xmlns="http://www.w3.org/2000/svg"  viewBox="-0.09375 -0.09375 7.6875 7.6875"><g fill="none" stroke="black" stroke-width="0.0125" transform="translate(0,7.5) scale(1, -1)">
<g id="Output" >
<path fill="rgb(241,240,234)" stroke="rgb(241,240,234)" d="M 2.1,1.67902 l 0,0.420983 -0.420983,0 0.0409654,-0.0533872 0.156185,-0.170446 0.170446,-0.156185 0.0533872,-0.0409654 z "/>
<path fill="rgb(241,240,234)" stroke="rgb(241,240,234)" d="M 4.04606,2.1 l -0.00518331,0.00397731 -0.0169904,0.0155689 -0.0155689,0.0169905 -0.0140288,0.0182828 -0.012382,0.0194359 -0.0106409,0.0204411 -0.00881888,0.0212907 -0.00692972,0.0219783 -0.00498782,0.0224986 -0.00300796,0.0228477 -0.0010052,0.023023 0.00091222,0.0219342 0.00273036,0.0217827 0.00452964,0.0214808 -0.0731352,0.0186269 -0.781554,0 0,-0.29016 0.946061,0 z "/>
<path fill="rgb(241,240,234)" stroke="rgb(241,240,234)" d="M 6.1,3.1 l 0.217656,0 0.0420848,0.189832 0.0301754,0.229205 0.0100841,0.230963 -0.3,0 0,-0.65 z "/>
<path fill="rgb(241,240,234)" stroke="rgb(241,240,234)" d="M 6.1,3.1 l 0,-0.569283 0.0517156,0.0993448 0.0884698,0.213585 0.069518,0.220483 0.00795229,0.0358705 -0.217656,0 z "/>
<path fill="rgb(241,240,234)" stroke="rgb(241,240,234)" d="M 5.1,3.75 l 0,-0.1 0.386831,0 0,-0.55 0.613169,0 0,0.65 -1,0 z "/>
<path fill="rgb(241,240,234)" stroke="rgb(241,240,234)" d="M 5.82098,2.1 l 0.0997697,0.130022 0.124214,0.194978 0.0550327,0.105717 0,0.569283 -0.613169,0 0,-0.70984 -0.355596,0 -0.0312347,-0.00798344 0,-0.282176 0.720983,0 z "/>
<path fill="rgb(241,240,234)" stroke="rgb(241,240,234)" d="M 5.1,2.1 l 0,-0.629041 0.169978,0.108288 0.18341,0.140735 0.170446,0.156185 0.156185,0.170446 0.0409654,0.0533872 -0.720983,0 z "/>
<path fill="rgb(241,240,234)" stroke="rgb(241,240,234)" d="M 4.1,3.75 l 0,-0.1 1,0 0,0.1 -1,0 z "/>
<path fill="rgb(241,240,234)" stroke="rgb(241,240,234)" d="M 4.63864,2.1 l -0.00517742,0.00397277 -0.0169905,0.0155689 -0.0155689,0.0169905 -0.0140289,0.0182828 -0.012382,0.0194359 -0.010641,0.0204411 -0.00881892,0.0212908 -0.00692975,0.0219784 -0.00498784,0.0224987 -0.00300797,0.0228478 -0.00100521,0.023023 7.37188e-13,6.24276e-07 2.21245e-12,6.24276e-07 3.68772e-12,6.24276e-07 -0.0642641,4.55617e-07 -0.00100537,-0.023023 -0.00300812,-0.0228477 -0.00498798,-0.0224986 -0.00692987,-0.0219783 -0.00881903,-0.0212907 -0.0106411,-0.020441 -0.0123821,-0.0194358 -0.0140289,-0.0182827 -0.015569,-0.0169904 -0.0169906,-0.0155688 -0.00518181,-0.0039761 0.263346,0 z M 4.96788,2.1 l 0.13212,0 0,0.282176 -0.0408089,-0.0104305 0.00456028,-0.0215506 0.00274891,-0.0218556 0.000918433,-0.0220087 -0.00100521,-0.023023 -0.00300797,-0.0228478 -0.00498784,-0.0224987 -0.00692975,-0.0219784 -0.00881892,-0.0212908 -0.010641,-0.0204411 -0.012382,-0.0194359 -0.0140289,-0.0182828 -0.0155689,-0.0169905 -0.0169905,-0.0155689 -0.00517742,-0.00397277 z "/>
<path fill="rgb(241,240,234)" stroke="rgb(241,240,234)" d="M 4.96788,2.1 l -0.0131054,-0.0100561 -0.0194359,-0.012382 -0.0204411,-0.010641 -0.0212908,-0.00881892 -0.0219784,-0.00692975 -0.0224987,-0.00498784 -0.0228478,-0.00300797 -0.023023,-0.00100521 -0.023023,0.00100521 -0.0228478,0.00300797 -0.0224987,0.00498784 -0.0219784,0.00692975 -0.0212908,0.00881892 -0.0204411,0.010641 -0.0194359,0.012382 -0.0131054,0.0100561 -0.263346,0 -0.013101,-0.0100526 -0.0194359,-0.0123819 -0.0204411,-0.0106409 -0.0212907,-0.00881881 -0.0219783,-0.00692964 -0.0224987,-0.00498774 -0.0228478,-0.00300787 -0.023023,-0.00100512 -0.023023,0.00100528 -0.0228477,0.00300804 -0.0224986,0.0049879 -0.0219783,0.0069298 -0.0203278,0.00842012 0,-0.940771 0.110168,0.0145038 0.225703,0.0500371 0.220483,0.069518 0.213585,0.0884698 0.205062,0.106748 0.025,0.0159268 0,0.629041 -0.13212,0 z "/>
<path fill="rgb(241,240,234)" stroke="rgb(241,240,234)" d="M 3.1,3.75 l 0,-0.1 1,0 0,0.1 -1,0 z "/>
<path fill="rgb(241,240,234)" stroke="rgb(241,240,234)" d="M 4.1,2.06653 l -0.000962878,0.00039884 -0.020441,0.010641 -0.0194358,0.0123821 -0.0130994,0.0100516 -0.946061,0 0,-0.917656 0.189832,-0.0420848 0.229205,-0.0301754 0.230963,-0.0100841 0.230963,0.0100841 0.119037,0.0156716 0,0.940771 z "/>
<path fill="rgb(241,240,234)" stroke="rgb(241,240,234)" d="M 2.1,3.75 l 0,-0.351808 0.00441435,0.00329956 0.00512539,0.00318695 0.00537905,0.00273717 0.00559333,0.00226736 0.00576667,0.00178095 0.0058978,0.0012815 0.00598575,0.000772671 0.00602989,0.000258187 0.513085,0 0.00335691,-0.0005104 0.00330176,-0.000792299 0.00322299,-0.00106853 0.00312114,-0.00133711 0.00299696,-0.00159612 0.00285133,-0.00184371 0.0026853,-0.00207811 0.00250005,-0.00229764 0.00229691,-0.00250072 0.00207733,-0.0026859 0.00184289,-0.00285187 0.00159525,-0.00299742 0.0013362,-0.00312153 0.00106759,-0.0032233 0.000791339,-0.00330199 0.000509424,-0.00335706 0.0302454,-0.278213 0.0942225,0 0,0.55 0.282702,0 0,0.1 -1,0 z "/>
<path fill="rgb(241,240,234)" stroke="rgb(241,240,234)" d="M 2.74831,2.39528 l 0.00341654,-0.010836 -0.0028714,0.00947814 -0.000545138,0.00135785 z M 2.7396,2.41665 l 0.00434586,-0.010492 -0.00370468,0.00922777 -0.000641188,0.00126419 z M 2.72905,2.43719 l 0.00524106,-0.0100681 -0.00451588,0.00890366 -0.000725186,0.00116444 z M 2.71674,2.45672 l 0.00609526,-0.00956775 -0.00529843,0.00850776 -0.00079683,0.00105999 z M 2.70278,2.47511 l 0.00690187,-0.00899481 -0.0060459,0.0080426 -0.000855968,0.000952209 z M 2.68727,2.4922 l 0.0076547,-0.00835375 -0.00675211,0.00751128 -0.00090259,0.000842472 z M 2.67032,2.50788 l 0.00834793,-0.00764959 -0.0074111,0.00691748 -0.00093683,0.000732118 z M 2.65207,2.52202 l 0.00897624,-0.00688783 -0.00801728,0.00626538 -0.000958955,0.00062245 z M 2.63265,2.53451 l 0.00953475,-0.00607443 -0.00856538,0.00555972 -0.000969369,0.000514716 z M 2.61222,2.54525 l 0.0100192,-0.00521577 -0.00905056,0.00480567 -0.000968593,0.000410099 z M 2.59093,2.55417 l 0.0104257,-0.0043186 -0.00946842,0.0040089 -0.000957266,0.000309702 z M 2.56893,2.5612 l 0.0107512,-0.00338998 -0.00981506,0.00317544 -0.000936132,0.00021454 z M 2.54641,2.56628 l 0.0109931,-0.00243727 -0.0100871,0.00231173 -0.000906028,0.000125531 z M 2.52353,2.56937 l 0.0111496,-0.00146802 -0.0102817,0.00142454 -0.000867874,4.3484e-05 z M 2.50047,2.57045 l 0.0112193,-0.000490008 -0.0103966,0.000520913 -0.000822661,-3.09056e-05 z M 2.4774,2.56952 l 0.0112017,0.000488903 -0.0104302,-0.000391841 -0.000771436,-9.70623e-05 z M 2.4545,2.56657 l 0.0110968,0.00146074 -0.0103815,-0.0013062 -0.000715291,-0.000154535 z M 2.43195,2.56164 l 0.0109054,0.00241747 -0.01025,-0.00221447 -0.000655347,-0.000203001 z M 2.40991,2.55475 l 0.0106289,0.00335106 -0.0100361,-0.0031088 -0.000592743,-0.000242265 z M 2.38856,2.54597 l 0.0102693,0.00425346 -0.00974067,-0.00398119 -0.000528617,-0.000272262 z M 2.36805,2.53536 l 0.00982932,0.00511658 -0.00936522,-0.00482352 -0.0004641,-0.000293056 z M 2.34856,2.52299 l 0.00931227,0.0059323 -0.00891197,-0.00562747 -0.000400294,-0.000304834 z M 2.33021,2.50897 l 0.00872202,0.00669234 -0.00838375,-0.00638444 -0.000338265,-0.000307905 z M 2.31316,2.4934 l 0.00806302,0.00738807 -0.00778399,-0.00708538 -0.000279028,-0.000302695 z M 2.29754,2.4764 l 0.00734025,0.00801012 -0.00711672,-0.00772038 -0.000223534,-0.000289737 z M 2.28345,2.45811 l 0.00655919,0.00854768 -0.00638652,-0.00827801 -0.000172661,-0.000269666 z M 2.27102,2.43865 l 0.00572572,0.0089871 -0.00559852,-0.00874389 -0.000127205,-0.00024321 z M 2.26034,2.41818 l 0.00484619,0.00930886 -0.00475832,-0.00909769 -8.78647e-05,-0.000211176 z M 2.25149,2.39685 l 0.00392724,0.00948049 -0.003872,-0.00930605 -5.52406e-05,-0.000174446 z M 2.24453,2.37484 l 0.00297585,0.00943732 -0.00294603,-0.00930336 -2.9824e-05,-0.00013396 z M 2.23952,2.3523 l 0.00199925,0.00901685 -0.00198726,-0.00892615 -1.19922e-05,-9.07053e-05 z M 2.23649,2.32941 l 0.00100483,0.00763077 -0.00100283,-0.00758507 -2.00477e-06,-4.57041e-05 z M 2.33502,2.1 l -0.0051769,0.00397238 -0.0169905,0.0155689 -0.0155689,0.0169905 -0.0140289,0.0182828 -0.012382,0.0194359 -0.010641,0.0204411 -0.00881892,0.0212908 -0.00692975,0.0219784 -0.00498784,0.0224987 -0.00300797,0.0228478 -0.00100521,0.023023 1.30753e-11,2.6283e-06 3.9226e-11,2.6283e-06 6.5377e-11,2.6283e-06 -0.0760449,2.26986e-06 -0.0594368,0 0,-0.20634 0.23502,0 z M 3.1,2.39016 l -0.272542,0 -0.0718927,-0.0183844 -0.000437485,0.00144408 0.00465967,-0.0210186 0.00300791,-0.0228476 0.00100519,-0.0230228 -0.00100521,-0.023023 -0.00300797,-0.0228478 -0.00498784,-0.0224987 -0.00692975,-0.0219784 -0.00881892,-0.0212908 -0.010641,-0.0204411 -0.012382,-0.0194359 -0.0140289,-0.0182828 -0.0155689,-0.0169905 -0.0169905,-0.0155689 -0.0051769,-0.00397238 0.435737,0 0,0.29016 z M 2.8173,3.1 l -0.0942225,0 0.0205629,-0.189149 0,-0.195564 0.0736596,0 0,0.384713 z "/>
<path fill="rgb(241,240,234)" stroke="rgb(241,240,234)" d="M 2.33502,2.1 l -0.23502,0 0,-0.420983 0.130022,-0.0997697 0.194978,-0.124214 0.205062,-0.106748 0.213585,-0.0884698 0.220483,-0.069518 0.0358705,-0.00795229 0,0.917656 -0.435737,0 -0.0131059,-0.0100565 -0.0194359,-0.012382 -0.0204411,-0.010641 -0.0212908,-0.00881892 -0.0219784,-0.00692975 -0.0224987,-0.00498784 -0.0228478,-0.00300797 -0.023023,-0.00100521 -0.023023,0.00100521 -0.0228478,0.00300797 -0.0224987,0.00498784 -0.0219784,0.00692975 -0.0212908,0.00881892 -0.0204411,0.010641 -0.0194359,0.012382 -0.0131059,0.0100565 z "/>
<path fill="rgb(241,240,234)" stroke="rgb(241,240,234)" d="M 1.1,3.75 l 0.0100841,-0.230963 0.0301754,-0.229205 0.0420848,-0.189832 0.806007,0 0.0881848,0.263206 0.0019548,0.00571008 0.00243574,0.00552209 0.00289885,0.00529367 0.00334074,0.00502651 0.00375817,0.00472255 0.00414809,0.00438402 0.00450765,0.0040134 0.000419869,0.000313836 0,0.351808 -1,0 z "/>
<path fill="rgb(241,240,234)" stroke="rgb(241,240,234)" d="M 2.1,2.30634 l -0.21234,0 0,0.11683 0.0533404,0.0330316 -0.0304891,0.411468 0.0726782,0.216923 0.00516166,0.0154061 -0.806007,0 0.00795229,-0.0358705 0.069518,-0.220483 0.0884698,-0.213585 0.106748,-0.205062 0.124214,-0.194978 0.0997697,-0.130022 0.420983,0 0,0.20634 z "/>
<path fill="rgb(241,240,234)" stroke="rgb(241,240,234)" d="M 3.40051,5.19542 l -0.000147716,0.00338324 -0.000442023,0.00335749 -0.000732966,0.00330619 -0.00101833,0.00322973 -0.00129594,0.00312869 -0.0015637,0.00300383 -0.00181955,0.00285612 -0.00206155,0.00268666 -0.00228786,0.00249677 -0.00249677,0.00228786 -0.00268666,0.00206155 -0.00285612,0.00181955 -0.00300383,0.0015637 -0.00312869,0.00129594 -0.00322973,0.00101833 -0.00330619,0.000732966 -0.00335749,0.000442023 -0.00338324,0.000147716 -1.15463e-14,0 -0.210938,0 -2.39808e-14,0 -0.00633786,-0.000288033 -0.00628561,-0.000861724 -0.00618154,-0.00142831 -0.0060265,-0.00198312 -0.00582178,-0.00252158 -0.00556906,-0.00303926 -0.00527042,-0.00353187 -0.00492834,-0.00399537 -0.00454562,-0.00442592 -1.77636e-14,-1.86517e-14 -0.32093,-0.342207 -0.00396336,-0.00461304 -0.0035472,-0.00494021 -0.00310417,-0.00522996 -0.00263762,-0.00548008 -0.00215109,-0.00568868 -0.00164827,-0.00585419 -0.00113295,-0.00597534 -0.000609057,-0.00605123 -8.05451e-05,-0.00608127 0.000448577,-0.00606524 0.0009743,-0.00600325 0.00149264,-0.00589579 0.00199968,-0.00574366 0.00249156,-0.00554801 0.00296457,-0.00531034 0.00341511,-0.00503243 0.00383979,-0.00471639 0.00423537,-0.00436462 0.00459887,-0.00397979 0.00492752,-0.0035648 0.00521885,-0.00312281 0.00547063,-0.00265716 0.00568097,-0.00217138 0.00584827,-0.00166914 0.00597126,-0.00115427 0.00604902,-0.000630643 0.00608094,-0.000102242 0.0060668,0.000426933 0.500814,0.0572351 1.33227e-14,8.88178e-16 0.00591342,0.000933951 0.00581177,0.00143672 0.00566745,0.00192894 0.00548153,0.002407 0.00525537,0.00286739 0.00499063,0.00330674 0.00468925,0.0037218 0.00435344,0.00410955 0.00398568,0.00446712 0.00358866,0.00479191 0.00316529,0.00508151 0.00271869,0.00533381 0.00225213,0.00554696 0.00176904,0.00571939 0.00127296,0.00584982 0.000767531,0.00593732 0.000256471,0.00598123 0,1.68754e-14 0,0.316027 0,1.15463e-14 z "/>
<path fill="rgb(241,240,234)" stroke="rgb(241,240,234)" d="M 2.01385,5.75 l 0.0861458,0 0,0.0709832 -0.0533872,-0.0409654 -0.0327587,-0.0300178 z "/>
<path fill="rgb(241,240,234)" stroke="rgb(241,240,234)" d="M 2.26204,4.75 l 5.378e-05,5.65359e-05 0.00469416,0.00412469 0.00504389,0.00368881 0.00535329,0.00322342 0.00561987,0.00273226 0.0058415,0.00221924 8.88178e-15,3.55271e-15 0.397473,0.130985 0.00543864,0.0020467 0.00524976,0.00249153 0.00502458,0.00291914 0.00476464,0.00332655 0.00447175,0.00371096 0.00414793,0.00406969 0.384784,0.410295 0,0.42411 -1,0 0,-1 0.162038,0 z "/>
<path fill="rgb(241,240,234)" stroke="rgb(241,240,234)" d="M 5.48615,5.75 l -0.0327587,0.0300178 -0.18341,0.140735 -0.169978,0.108288 0,-0.279041 0.386146,0 z "/>
<path fill="rgb(241,240,234)" stroke="rgb(241,240,234)" d="M 2.58252,4.21824 l -0.00130226,0.00720027 -0.00104044,0.00724274 -0.000777257,0.00727569 -0.00043677,0.005925 -0.000262214,0.00593528 -8.74298e-05,0.00594043 8.74298e-05,0.00594043 0.000262214,0.00593528 0.00043677,0.005925 0.00231552,0.0174507 0.00382713,0.0171826 0.00530964,0.0167838 0.00675176,0.0162574 0.00814253,0.0156073 0.00947138,0.0148385 0.0107282,0.0139569 0.0119034,0.0129691 0.0129881,0.0118827 0.013974,0.0107059 0.0148536,0.0094477 0.0156203,0.00811763 0.0162681,0.00672582 0.0167923,0.00528286 0.0171887,0.00379973 0.0174544,0.00228769 0.0175873,0.000758252 0.0175865,-0.000776951 0.0174519,-0.00230624 0.0171846,-0.003818 0.0167867,-0.00530071 0.016261,-0.00674312 0.0156116,-0.00813423 0.0148436,-0.00946349 0.0139626,-0.0107208 0.0129754,-0.0118965 0.0118896,-0.0129818 0.0107133,-0.0139683 0.00945559,-0.0148486 0.00812593,-0.015616 0.00673447,-0.0162646 0.00529179,-0.0167895 0.00380886,-0.0171867 0.00229697,-0.0174532 0.000767602,-0.0175869 -0.000756512,-0.0174597 -0.00226387,-0.0173288 -0.00375425,-0.017068 -0.0052165,-0.0166793 -0.00663964,-0.0161656 -0.00801302,-0.0155307 -0.00932633,-0.0147794 -0.0105697,-0.0139174 -0.0117339,-0.012951 -0.0128101,-0.0118875 -0.0137904,-0.0107349 -0.0146672,-0.00950187 -0.0154341,-0.00819761 -0.0160853,-0.0068319 -0.016616,-0.00541498 -0.0170221,-0.00395748 -0.0173006,-0.00247031 -0.0174494,-0.000964619 -0.0174674,0.000548298 -0.0173546,0.00205711 -0.0171116,0.00355049 -0.0167404,0.00501727 -0.0162436,0.00644644 -0.0156252,0.00782728 -0.0148896,0.00914946 -0.0140424,0.0104031 -0.0130899,0.0115787 -0.0120394,0.0126675 -0.0108986,0.0136614 -0.00967606,0.0145529 -0.00838104,0.0153353 -0.00702319,0.0160027 -0.0056127,0.0165502 -0.00416014,0.0169737 z M 2.26204,4.75 l -0.162038,0 0,-1 1,0 0,0.5 -0.040147,0 -0.000372358,0.0241404 -0.00245434,0.0240182 -0.00451801,0.0237168 -0.00654796,0.0232384 -0.00852905,0.0225866 -0.0104465,0.0217662 -0.012286,0.0207835 -0.0140338,0.0196456 -0.0156769,0.0183612 -0.017203,0.0169397 -0.0186008,0.0153919 -0.0198597,0.0137292 -0.0209705,0.011964 -0.0219248,0.0101096 -0.0227154,0.00817969 -0.0233366,0.00618878 -0.0237837,0.00415169 -0.0240532,0.00208362 -0.0241433,0 -0.0240532,-0.00208362 -0.0237837,-0.00415169 -0.0233366,-0.00618878 -0.0227154,-0.00817969 -0.0219248,-0.0101096 -0.0209705,-0.011964 -0.0198597,-0.0137292 -0.0186008,-0.0153919 -0.017203,-0.0169397 -0.0156769,-0.0183612 -0.0140338,-0.0196456 -0.012286,-0.0207835 -0.0104465,-0.0217662 -0.00852905,-0.0225866 -0.00654796,-0.0232384 -0.00451801,-0.0237168 -0.00245434,-0.0240182 -0.000372358,-0.0241404 -0.19057,0 -0.00608984,0.000265888 -0.00604349,0.000795641 -0.00595115,0.00131934 -0.00581351,0.00183299 -0.00563164,0.0023327 -0.0054069,0.00281465 -0.00514101,0.00327518 -0.004836,0.00371079 -0.00449418,0.00411815 -0.00411815,0.00449418 -0.00371079,0.004836 -0.00327518,0.00514101 -0.00281465,0.0054069 -0.0023327,0.00563164 -0.00183299,0.00581351 -0.00131934,0.00595115 -0.000795641,0.00604349 -0.000265888,0.00608984 0,0.379809 0,7.99361e-15 0.000279422,0.0062426 0.000836032,0.00619267 0.00138595,0.00609322 0.00192479,0.00594503 0.00244824,0.00574929 0.0029521,0.00550757 0.00343235,0.00522179 0.00388515,0.00489426 0.0042531,0.00447104 z "/>
<path fill="rgb(241,240,234)" stroke="rgb(241,240,234)" d="M 2.1,5.75 l 1,0 0,0.567656 -0.0358705,-0.00795229 -0.220483,-0.069518 -0.213585,-0.0884698 -0.205062,-0.106748 -0.194978,-0.124214 -0.130022,-0.0997697 0,-0.0709832 z "/>
<path fill="rgb(241,240,234)" stroke="rgb(241,240,234)" d="M 4.1,3.75 l 0,0.5 -1,0 0,-0.5 1,0 z "/>
<path fill="rgb(241,240,234)" stroke="rgb(241,240,234)" d="M 3.1,5.32589 l 0.135256,0.144223 2.08722e-14,2.30926e-14 0.00454562,0.00442592 0.00492834,0.00399537 0.00527042,0.00353187 0.00556906,0.00303926 0.00582178,0.00252158 0.0060265,0.00198312 0.00618154,0.00142831 0.00628561,0.000861724 0.00633786,0.000288033 2.93099e-14,0 0.813778,0 0,0.257812 -1,0 0,-0.42411 z "/>
<path fill="rgb(241,240,234)" stroke="rgb(241,240,234)" d="M 3.1,5.75 l 1,0 0,0.624244 -0.119037,0.0156716 -0.230963,0.0100841 -0.230963,-0.0100841 -0.229205,-0.0301754 -0.189832,-0.0420848 0,-0.567656 z "/>
<path fill="rgb(241,240,234)" stroke="rgb(241,240,234)" d="M 4.31768,4.25776 l 8.74298e-05,0.00594043 0.000262214,0.00593528 0.00043677,0.005925 0.00231552,0.0174507 0.00382713,0.0171826 0.00530964,0.0167838 0.00675176,0.0162574 0.00814253,0.0156073 0.00947138,0.0148385 0.0107282,0.0139569 0.0119034,0.0129691 0.0129881,0.0118827 0.013974,0.0107059 0.0148536,0.0094477 0.0156203,0.00811763 0.0162681,0.00672582 0.0167923,0.00528286 0.0171887,0.00379973 0.0174544,0.00228769 0.0175873,0.000758252 0.0175865,-0.000776951 0.0174519,-0.00230624 0.0171846,-0.003818 0.0167867,-0.00530071 0.016261,-0.00674312 0.0156116,-0.00813423 0.0148436,-0.00946349 0.0139626,-0.0107208 0.0129754,-0.0118965 0.0118896,-0.0129818 0.0107133,-0.0139683 0.00945559,-0.0148486 0.00812593,-0.015616 0.00673447,-0.0162646 0.00529179,-0.0167895 0.00380886,-0.0171867 0.00229697,-0.0174532 0.000767602,-0.0175869 -0.000767602,-0.0175869 -0.00229697,-0.0174532 -0.00380886,-0.0171867 -0.00529179,-0.0167895 -0.00673447,-0.0162646 -0.00812593,-0.015616 -0.00945559,-0.0148486 -0.0107133,-0.0139683 -0.0118896,-0.0129818 -0.0129754,-0.0118965 -0.0139626,-0.0107208 -0.0148436,-0.00946349 -0.0156116,-0.00813423 -0.016261,-0.00674312 -0.0167867,-0.00530071 -0.0171846,-0.003818 -0.0174519,-0.00230624 -0.0175865,-0.000776951 -0.0175873,0.000758252 -0.0174544,0.00228769 -0.0171887,0.00379973 -0.0167923,0.00528286 -0.0162681,0.00672582 -0.0156203,0.00811763 -0.0148536,0.0094477 -0.013974,0.0107059 -0.0129881,0.0118827 -0.0119034,0.0129691 -0.0107282,0.0139569 -0.00947138,0.0148385 -0.00814253,0.0156073 -0.00675176,0.0162574 -0.00530964,0.0167838 -0.00382713,0.0171826 -0.00231552,0.0174507 -0.00043677,0.005925 -0.000262214,0.00593528 -8.74298e-05,0.00594043 z M 5.1,3.75 l 0,0.5 -0.301084,0 -0.000372358,0.0241404 -0.00245434,0.0240182 -0.00451801,0.0237168 -0.00654796,0.0232384 -0.00852905,0.0225866 -0.0104465,0.0217662 -0.012286,0.0207835 -0.0140338,0.0196456 -0.0156769,0.0183612 -0.017203,0.0169397 -0.0186008,0.0153919 -0.0198597,0.0137292 -0.0209705,0.011964 -0.0219248,0.0101096 -0.0227154,0.00817969 -0.0233366,0.00618878 -0.0237837,0.00415169 -0.0240532,0.00208362 -0.0241433,0 -0.0240532,-0.00208362 -0.0237837,-0.00415169 -0.0233366,-0.00618878 -0.0227154,-0.00817969 -0.0219248,-0.0101096 -0.0209705,-0.011964 -0.0198597,-0.0137292 -0.0186008,-0.0153919 -0.017203,-0.0169397 -0.0156769,-0.0183612 -0.0140338,-0.0196456 -0.012286,-0.0207835 -0.0104465,-0.0217662 -0.00852905,-0.0225866 -0.00654796,-0.0232384 -0.00451801,-0.0237168 -0.00245434,-0.0240182 -0.000372358,-0.0241404 -0.140147,0 0,-0.5 1,0 z "/>
<path fill="rgb(241,240,234)" stroke="rgb(241,240,234)" d="M 4.1,5.49219 l 1,0 0,0.257812 -1,0 0,-0.257812 z "/>
<path fill="rgb(241,240,234)" stroke="rgb(241,240,234)" d="M 4.1,6.37424 l 0,-0.624244 1,0 0,0.279041 -0.025,0.0159268 -0.205062,0.106748 -0.213585,0.0884698 -0.220483,0.069518 -0.225703,0.0500371 -0.110168,0.0145038 z "/>
<path fill="rgb(241,240,234)" stroke="rgb(241,240,234)" d="M 6.1,3.75 l 0,1 -0.744672,0 0,-0.430127 0,-1.06581e-14 -0.000265888,-0.00608984 -0.000795641,-0.00604349 -0.00131934,-0.00595115 -0.00183299,-0.00581351 -0.0023327,-0.00563164 -0.00281465,-0.0054069 -0.00327518,-0.00514101 -0.00371079,-0.004836 -0.00411815,-0.00449418 -0.00449418,-0.00411815 -0.004836,-0.00371079 -0.00514101,-0.00327518 -0.0054069,-0.00281465 -0.00563164,-0.0023327 -0.00581351,-0.00183299 -0.00595115,-0.00131934 -0.00604349,-0.000795641 -0.00608984,-0.000265888 -1.06581e-14,0 -0.185455,0 0,-0.5 1,0 z "/>
<path fill="rgb(241,240,234)" stroke="rgb(241,240,234)" d="M 5.48615,5.75 l -0.386146,0 0,-0.257812 0.100055,0 1.06581e-14,0 0.013533,-0.000590862 0.01343,-0.00176809 0.0132248,-0.00293186 0.0129189,-0.00407332 0.0125147,-0.00518378 0.0120153,-0.00625478 0.0114245,-0.00727819 0.0107467,-0.0082462 0.00998706,-0.00915145 0.00915145,-0.00998706 0.0082462,-0.0107467 0.00727819,-0.0114245 0.00625478,-0.0120153 0.00518378,-0.0125147 0.00407332,-0.0129189 0.00293186,-0.0132248 0.00176809,-0.01343 0.000590862,-0.013533 0,-1.06581e-14 0,-0.586914 0.744672,0 0,0.219283 -0.0550327,0.105717 -0.124214,0.194978 -0.140735,0.18341 -0.156185,0.170446 -0.137687,0.126167 z "/>
<path fill="rgb(241,240,234)" stroke="rgb(241,240,234)" d="M 6.4,3.75 l -0.0100841,0.230963 -0.0301754,0.229205 -0.0500371,0.225703 -0.069518,0.220483 -0.0387897,0.0936466 -0.101396,0 0,-1 0.3,0 z "/>
<path fill="rgb(241,240,234)" stroke="rgb(241,240,234)" d="M 6.1,4.75 l 0.101396,0 -0.0496801,0.119938 -0.0517156,0.0993448 0,-0.219283 z "/>
<path fill="rgb(241,240,234)" stroke="rgb(241,240,234)" d="M 2.1,3.75 l 0,1 -0.801396,0 -0.0387897,-0.0936466 -0.069518,-0.220483 -0.0500371,-0.225703 -0.0301754,-0.229205 -0.0100841,-0.230963 1,0 z "/>
<path fill="rgb(241,240,234)" stroke="rgb(241,240,234)" d="M 1.2986,4.75 l 0.801396,0 0,1 -0.0861458,0 -0.137687,-0.126167 -0.156185,-0.170446 -0.140735,-0.18341 -0.124214,-0.194978 -0.106748,-0.205062 -0.0496801,-0.119938 z "/>
<path fill="rgb(241,240,234)" stroke="rgb(241,240,234)" d="M 2.53028,2.95403 l -0.161189,4.44089e-16 -0.275694,-4.44089e-16 0.0386445,0.130562 0.0544198,0.183859 0.000947237,0.00318459 0.00122466,0.00308854 0.00149253,0.00296837 0.00174874,0.00282503 0.0019913,0.00265962 0.00221831,0.00247345 0.002428,0.00226797 0.00261873,0.00204478 0.00278901,0.00180562 0.00293752,0.00155237 0.00306309,0.00128699 0.00316474,0.00101157 0.00324169,0.000728242 0.00329332,0.000439232 0.00331924,0.000146793 0.30734,0 0.00286385,8.74832e-05 0.00286069,-0.000160426 0.00283611,-0.000407133 0.00279029,-0.000650792 0.00272359,-0.000889578 0.00263649,-0.0011217 0.00252964,-0.00134543 0.00240386,-0.00155908 0.00226008,-0.00176106 0.00209937,-0.00194985 0.00192294,-0.00212404 0.00173212,-0.00228233 0.00152833,-0.00242353 0.00131309,-0.00254658 0.00108802,-0.00265056 0.000854805,-0.0027347 0.000615188,-0.00279836 0.000370965,-0.00284107 0.000123964,-0.0028625 0,-0.274319 0,-1.08358e-13 8.34325e-10,-3.44459e-06 5.00595e-10,-3.44459e-06 1.66865e-10,-3.44459e-06 -0.000135291,-0.00309868 -0.000404844,-0.0030751 -0.000671316,-0.00302811 -0.000932679,-0.00295808 -0.00118694,-0.00286554 -0.00143218,-0.00275118 -0.00166651,-0.00261589 -0.00188816,-0.00246069 -0.00209543,-0.00228676 -0.00228676,-0.00209543 -0.00246069,-0.00188816 -0.00261589,-0.00166651 -0.00275118,-0.00143218 -0.00286554,-0.00118694 -0.00295808,-0.000932679 -0.00302811,-0.000671316 -0.0030751,-0.000404844 -0.00309868,-0.000135291 z "/>
<path fill="rgb(241,240,234)" stroke="rgb(241,240,234)" d="M 2.82746,2.39016 l -0.008892,0.0288465 -0.0114193,0.0279426 -0.0138563,0.0268178 -0.0161837,0.0254809 -0.0183832,0.0239426 -0.0204373,0.022215 -0.0223299,0.0203117 -0.0240459,0.0182478 -0.0255718,0.0160397 -0.0268955,0.0137048 -0.0280066,0.0112615 -0.0288962,0.00872915 -0.0295574,0.0061278 -0.0299849,0.00347801 -0.0301753,0.000800711 -0.0301271,-0.00188291 -0.0298408,-0.00455165 -0.0282369,-0.00686974 -0.027546,-0.00925952 -0.0266531,-0.0115814 -0.025565,-0.0138185 -0.0242895,-0.0159543 -0.022836,-0.0179732 -0.0212152,-0.0198604 -0.0194389,-0.021602 -0.0175202,-0.0231854 -0.0154731,-0.0245988 -0.0133126,-0.025832 -0.0110545,-0.0268759 -0.00871549,-0.0277229 -0.00631257,-0.0283667 -0.00386339,-0.0288027 -0.00138591,-0.0290275 0.0760449,-2.26986e-06 0.00101388,0.023114 0.00303247,0.0229366 0.0050278,0.0225833 0.00698457,0.0220568 0.00888775,0.021361 0.0107228,0.0205014 0.0124755,0.0194845 0.0141326,0.0183182 0.0156812,0.0170113 0.0171096,0.015574 0.0184067,0.0140171 0.0195626,0.0123528 0.0205684,0.0105937 0.0214165,0.0087533 0.0221002,0.00684578 0.0226145,0.00488575 0.0229552,0.00288823 0.0231199,0.000868565 0.0231072,-0.00115777 0.0229173,-0.00317522 0.0225516,-0.00516831 0.0220129,-0.00712176 0.0213053,-0.00902058 0.0204342,-0.0108502 0.0194065,-0.0125966 0.0182298,-0.0142463 0.0169134,-0.0157868 0.0154671,-0.0172062 0.0139023,-0.0184936 0.0122307,-0.0196391 0.0104654,-0.020634 0.00861979,-0.0214705 0.00670805,-0.0221424 0.0718927,0.0183844 z "/>
<path fill="rgb(241,240,234)" stroke="rgb(241,240,234)" d="M 4.47484,2.30633 l -7.38076e-13,-6.24276e-07 -2.21245e-12,-6.24276e-07 -3.6886e-12,-6.24276e-07 0.0642641,-4.55617e-07 0.00101345,0.0231151 0.00303224,0.0229378 0.00502777,0.0225845 0.00698473,0.0220579 0.0088881,0.0213621 0.0107233,0.0205024 0.0124762,0.0194854 0.0141334,0.0183189 0.0156822,0.0170119 0.0171107,0.0155744 0.0184079,0.0140174 0.0195638,0.0123529 0.0205697,0.0105936 0.0214178,0.00875299 0.0221016,0.00684526 0.0226158,0.00488501 0.0229565,0.00288729 0.0231211,0.000867418 0.0231083,-0.00115911 0.0229182,-0.00317674 0.0225523,-0.00517001 0.0220134,-0.00712361 0.0213056,-0.00902256 0.0204344,-0.0108523 0.0194064,-0.0125988 0.0182295,-0.0142486 0.0169128,-0.0157891 0.0154663,-0.0172085 0.0139011,-0.0184958 0.0122293,-0.0196413 0.0104637,-0.0206361 0.00861783,-0.0214725 0.00670583,-0.0221443 0.0720436,0.018414 -0.00867071,0.0284461 -0.0111352,0.0275748 -0.0135136,0.0264905 -0.0157876,0.0252015 -0.0179396,0.0237178 -0.019953,0.0220508 -0.0218123,0.0202135 -0.0235031,0.01822 -0.0250122,0.0160858 -0.0263281,0.0138272 -0.0274406,0.0114619 -0.0283411,0.00900793 -0.0290227,0.00648441 -0.02948,0.0039108 -0.0297095,0.00130696 -0.596569,0 -1.06581e-14,0 -0.0295812,-0.00139838 -0.0293441,-0.00399047 -0.0288804,-0.00655173 -0.0281935,-0.00906238 -0.0272888,-0.011503 -0.0261734,-0.0138548 -0.0248557,-0.0160995 -0.023346,-0.0182199 -0.021656,-0.0201995 -0.0197986,-0.0220231 -0.0177883,-0.0236765 -0.0156406,-0.025147 -0.013372,-0.0264233 -0.0110002,-0.0274954 -0.00854336,-0.0283551 0.0731352,-0.0186269 0.0066893,0.0221564 0.00860299,0.0214859 0.0104506,0.0206504 0.0122181,0.0196564 0.0138917,0.0185115 0.0154587,0.0172245 0.016907,0.0158053 0.0182256,0.0142647 0.0194042,0.0126147 0.0204339,0.0108678 0.0213067,0.0090375 0.022016,0.00713783 0.0225563,0.00518336 0.0229234,0.00318911 0.0231146,0.00117037 0.0231283,-0.000857347 0.0229645,-0.00287849 0.0226244,-0.00487753 0.0221106,-0.00683913 0.0214271,-0.00874823 0.0205792,-0.0105902 0.0195732,-0.0123508 0.018417,-0.0140167 0.0171194,-0.0155749 0.0156905,-0.0170136 0.014141,-0.0183217 0.012483,-0.0194892 0.0107292,-0.020507 0.00889307,-0.0213674 0.00698864,-0.0220638 0.00503056,-0.0225909 0.00303387,-0.0229445 0.00101388,-0.023122 z "/>
<path fill="rgb(241,240,234)" stroke="rgb(241,240,234)" d="M 5.05919,2.37175 l -0.00670583,0.0221443 -0.00861783,0.0214725 -0.0104637,0.0206361 -0.0122293,0.0196413 -0.0139011,0.0184958 -0.0154663,0.0172085 -0.0169128,0.0157891 -0.0182295,0.0142486 -0.0194064,0.0125988 -0.0204344,0.0108523 -0.0213056,0.00902256 -0.0220134,0.00712361 -0.0225523,0.00517001 -0.0229182,0.00317674 -0.0231083,0.00115911 -0.0231211,-0.000867418 -0.0229565,-0.00288729 -0.0226158,-0.00488501 -0.0221016,-0.00684526 -0.0214178,-0.00875299 -0.0205697,-0.0105936 -0.0195638,-0.0123529 -0.0184079,-0.0140174 -0.0171107,-0.0155744 -0.0156822,-0.0170119 -0.0141334,-0.0183189 -0.0124762,-0.0194854 -0.0107233,-0.0205024 -0.0088881,-0.0213621 -0.00698473,-0.0220579 -0.00502777,-0.0225845 -0.00303224,-0.0229378 -0.00101345,-0.0231151 0.00101345,0.0231151 0.00303224,0.0229378 0.00502777,0.0225845 0.00698473,0.0220579 0.0088881,0.0213621 0.0107233,0.0205024 0.0124762,0.0194854 0.0141334,0.0183189 0.0156822,0.0170119 0.0171107,0.0155744 0.0184079,0.0140174 0.0195638,0.0123529 0.0205697,0.0105936 0.0214178,0.00875299 0.0221016,0.00684526 0.0226158,0.00488501 0.0229565,0.00288729 0.0231211,0.000867418 0.0231083,-0.00115911 0.0229182,-0.00317674 0.0225523,-0.00517001 0.0220134,-0.00712361 0.0213056,-0.00902256 0.0204344,-0.0108523 0.0194064,-0.0125988 0.0182295,-0.0142486 0.0169128,-0.0157891 0.0154663,-0.0172085 0.0139011,-0.0184958 0.0122293,-0.0196413 0.0104637,-0.0206361 0.00861783,-0.0214725 0.00670583,-0.0221443 5.3797e-11,1.37503e-11 z "/>
<path fill="rgb(241,240,234)" stroke="rgb(241,240,234)" d="M 0.2,3.75 l 0.0135088,-0.309403 0.0404237,-0.307048 0.0670308,-0.302357 0.0931279,-0.295364 0.118516,-0.286123 0.143002,-0.274705 0.1664,-0.261196 0.188532,-0.2457 0.209229,-0.228333 0.228333,-0.209229 0.2457,-0.188532 0.261196,-0.1664 0.274705,-0.143002 0.286123,-0.118516 0.295364,-0.0931279 0.302357,-0.0670308 0.307048,-0.0404237 0.309403,-0.0135088 0.309403,0.0135088 0.307048,0.0404237 0.302357,0.0670308 0.295364,0.0931279 0.286123,0.118516 0.274705,0.143002 0.261196,0.1664 0.2457,0.188532 0.228333,0.209229 0.209229,0.228333 0.188532,0.2457 0.1664,0.261196 0.143002,0.274705 0.118516,0.286123 0.0931279,0.295364 0.0670308,0.302357 0.0404237,0.307048 0.0135088,0.309403 -0.2,0 -0.0127478,-0.291972 -0.0381463,-0.28975 -0.0632545,-0.285322 -0.0878812,-0.278724 -0.111839,-0.270004 -0.134946,-0.259229 -0.157026,-0.246481 -0.17791,-0.231857 -0.197441,-0.215469 -0.215469,-0.197441 -0.231857,-0.17791 -0.246481,-0.157026 -0.259229,-0.134946 -0.270004,-0.111839 -0.278724,-0.0878812 -0.285322,-0.0632545 -0.28975,-0.0381463 -0.291972,-0.0127478 -0.291972,0.0127478 -0.28975,0.0381463 -0.285322,0.0632545 -0.278724,0.0878812 -0.270004,0.111839 -0.259229,0.134946 -0.246481,0.157026 -0.231857,0.17791 -0.215469,0.197441 -0.197441,0.215469 -0.17791,0.231857 -0.157026,0.246481 -0.134946,0.259229 -0.111839,0.270004 -0.0878812,0.278724 -0.0632545,0.285322 -0.0381463,0.28975 -0.0127478,0.291972 -0.2,0 z "/>
<path fill="rgb(241,240,234)" stroke="rgb(241,240,234)" d="M 0.2,3.75 l 0.2,0 0.0127478,0.291972 0.0381463,0.28975 0.0632545,0.285322 0.0878812,0.278724 0.111839,0.270004 0.134946,0.259229 0.157026,0.246481 0.17791,0.231857 0.197441,0.215469 0.215469,0.197441 0.231857,0.17791 0.246481,0.157026 0.259229,0.134946 0.270004,0.111839 0.278724,0.0878812 0.285322,0.0632545 0.28975,0.0381463 0.291972,0.0127478 0.291972,-0.0127478 0.28975,-0.0381463 0.285322,-0.0632545 0.278724,-0.0878812 0.270004,-0.111839 0.259229,-0.134946 0.246481,-0.157026 0.231857,-0.17791 0.215469,-0.197441 0.197441,-0.215469 0.17791,-0.231857 0.157026,-0.246481 0.134946,-0.259229 0.111839,-0.270004 0.0878812,-0.278724 0.0632545,-0.285322 0.0381463,-0.28975 0.0127478,-0.291972 0.2,0 -0.0135088,0.309403 -0.0404237,0.307048 -0.0670308,0.302357 -0.0931279,0.295364 -0.118516,0.286123 -0.143002,0.274705 -0.1664,0.261196 -0.188532,0.2457 -0.209229,0.228333 -0.228333,0.209229 -0.2457,0.188532 -0.261196,0.1664 -0.274705,0.143002 -0.286123,0.118516 -0.295364,0.0931279 -0.302357,0.0670308 -0.307048,0.0404237 -0.309403,0.0135088 -0.309403,-0.0135088 -0.307048,-0.0404237 -0.302357,-0.0670308 -0.295364,-0.0931279 -0.286123,-0.118516 -0.274705,-0.143002 -0.261196,-0.1664 -0.2457,-0.188532 -0.228333,-0.209229 -0.209229,-0.228333 -0.188532,-0.2457 -0.1664,-0.261196 -0.143002,-0.274705 -0.118516,-0.286123 -0.0931279,-0.295364 -0.0670308,-0.302357 -0.0404237,-0.307048 -0.0135088,-0.309403 z "/>
<path fill="rgb(42,41,42)" stroke="rgb(42,41,42)" d="M 4.31768,4.25776 l 8.74298e-05,-0.00594043 0.000262214,-0.00593528 0.00043677,-0.005925 0.00231552,-0.0174507 0.00382713,-0.0171826 0.00530964,-0.0167838 0.00675176,-0.0162574 0.00814253,-0.0156073 0.00947138,-0.0148385 0.0107282,-0.0139569 0.0119034,-0.0129691 0.0129881,-0.0118827 0.013974,-0.0107059 0.0148536,-0.0094477 0.0156203,-0.00811763 0.0162681,-0.00672582 0.0167923,-0.00528286 0.0171887,-0.00379973 0.0174544,-0.00228769 0.0175873,-0.000758252 0.0175865,0.000776951 0.0174519,0.00230624 0.0171846,0.003818 0.0167867,0.00530071 0.016261,0.00674312 0.0156116,0.00813423 0.0148436,0.00946349 0.0139626,0.0107208 0.0129754,0.0118965 0.0118896,0.0129818 0.0107133,0.0139683 0.00945559,0.0148486 0.00812593,0.015616 0.00673447,0.0162646 0.00529179,0.0167895 0.00380886,0.0171867 0.00229697,0.0174532 0.000767602,0.0175869 -0.000767602,0.0175869 -0.00229697,0.0174532 -0.00380886,0.0171867 -0.00529179,0.0167895 -0.00673447,0.0162646 -0.00812593,0.015616 -0.00945559,0.0148486 -0.0107133,0.0139683 -0.0118896,0.0129818 -0.0129754,0.0118965 -0.0139626,0.0107208 -0.0148436,0.00946349 -0.0156116,0.00813423 -0.016261,0.00674312 -0.0167867,0.00530071 -0.0171846,0.003818 -0.0174519,0.00230624 -0.0175865,0.000776951 -0.0175873,-0.000758252 -0.0174544,-0.00228769 -0.0171887,-0.00379973 -0.0167923,-0.00528286 -0.0162681,-0.00672582 -0.0156203,-0.00811763 -0.0148536,-0.0094477 -0.013974,-0.0107059 -0.0129881,-0.0118827 -0.0119034,-0.0129691 -0.0107282,-0.0139569 -0.00947138,-0.0148385 -0.00814253,-0.0156073 -0.00675176,-0.0162574 -0.00530964,-0.0167838 -0.00382713,-0.0171826 -0.00231552,-0.0174507 -0.00043677,-0.005925 -0.000262214,-0.00593528 -8.74298e-05,-0.00594043 z "/>
<path fill="rgb(42,41,42)" stroke="rgb(42,41,42)" d="M 2.98232,4.25776 l -0.000767602,0.0175869 -0.00229697,0.0174532 -0.00380886,0.0171867 -0.00529179,0.0167895 -0.00673447,0.0162646 -0.00812593,0.015616 -0.00945559,0.0148486 -0.0107133,0.0139683 -0.0118896,0.0129818 -0.0129754,0.0118965 -0.0139626,0.0107208 -0.0148436,0.00946349 -0.0156116,0.00813423 -0.016261,0.00674312 -0.0167867,0.00530071 -0.0171846,0.003818 -0.0174519,0.00230624 -0.0175865,0.000776951 -0.0175873,-0.000758252 -0.0174544,-0.00228769 -0.0171887,-0.00379973 -0.0167923,-0.00528286 -0.0162681,-0.00672582 -0.0156203,-0.00811763 -0.0148536,-0.0094477 -0.013974,-0.0107059 -0.0129881,-0.0118827 -0.0119034,-0.0129691 -0.0107282,-0.0139569 -0.00947138,-0.0148385 -0.00814253,-0.0156073 -0.00675176,-0.0162574 -0.00530964,-0.0167838 -0.00382713,-0.0171826 -0.00231552,-0.0174507 -0.00043677,-0.005925 -0.000262214,-0.00593528 -8.74298e-05,-0.00594043 8.74298e-05,-0.00594043 0.000262214,-0.00593528 0.00043677,-0.005925 0.000777257,-0.00727569 0.00104044,-0.00724274 0.00130226,-0.00720027 0.00416014,-0.0169737 0.0056127,-0.0165502 0.00702319,-0.0160027 0.00838104,-0.0153353 0.00967606,-0.0145529 0.0108986,-0.0136614 0.0120394,-0.0126675 0.0130899,-0.0115787 0.0140424,-0.0104031 0.0148896,-0.00914946 0.0156252,-0.00782728 0.0162436,-0.00644644 0.0167404,-0.00501727 0.0171116,-0.00355049 0.0173546,-0.00205711 0.0174674,-0.000548298 0.0174494,0.000964619 0.0173006,0.00247031 0.0170221,0.00395748 0.016616,0.00541498 0.0160853,0.0068319 0.0154341,0.00819761 0.0146672,0.00950187 0.0137904,0.0107349 0.0128101,0.0118875 0.0117339,0.012951 0.0105697,0.0139174 0.00932633,0.0147794 0.00801302,0.0155307 0.00663964,0.0161656 0.0052165,0.0166793 0.00375425,0.017068 0.00226387,0.0173288 0.000756512,0.0174597 z "/>
<path fill="rgb(42,41,42)" stroke="rgb(42,41,42)" d="M 3.24064,5.47522 l 0,-0.225219 1,0 0,0.242188 -0.954419,0 -2.93099e-14,0 -0.00633786,-0.000288033 -0.00628561,-0.000861724 -0.00618154,-0.00142831 -0.0060265,-0.00198312 -0.00582178,-0.00252158 -0.00556906,-0.00303926 -0.00527042,-0.00353187 -0.00408836,-0.00331441 z "/>
<path fill="rgb(42,41,42)" stroke="rgb(42,41,42)" d="M 3.24064,5.25 l 0,-0.0157567 0.121049,0 1.15463e-14,0 0.00338324,-0.000147716 0.00335749,-0.000442023 0.00330619,-0.000732966 0.00322973,-0.00101833 0.00312869,-0.00129594 0.00300383,-0.0015637 0.00285612,-0.00181955 0.00268666,-0.00206155 0.00249677,-0.00228786 0.00228786,-0.00249677 0.00206155,-0.00268666 0.00181955,-0.00285612 0.0015637,-0.00300383 0.00129594,-0.00312869 0.00101833,-0.00322973 0.000732966,-0.00330619 0.000442023,-0.00335749 0.000147716,-0.00338324 0,-1.15463e-14 0,-0.316027 0,-1.68754e-14 -0.000256471,-0.00598123 -0.000767531,-0.00593732 -0.00127296,-0.00584982 -0.00176904,-0.00571939 -0.00225213,-0.00554696 -0.00271869,-0.00533381 -0.00316529,-0.00508151 -0.00358866,-0.00479191 -0.00398568,-0.00446712 -0.00435344,-0.00410955 -0.00468925,-0.0037218 -0.00499063,-0.00330674 -0.00525537,-0.00286739 -0.00548153,-0.002407 -0.00566745,-0.00192894 -0.00581177,-0.00143672 -0.00591342,-0.000933951 -1.33227e-14,-8.88178e-16 -0.0979282,-0.0111916 0,-0.548785 0.999506,0 0.000372358,0.0241404 0.000121983,0.00119372 0,0.974666 -1,0 z "/>
<path fill="rgb(42,41,42)" stroke="rgb(42,41,42)" d="M 3.02883,5.25 l 0.211812,0 0,0.225219 -0.000839975,-0.000680962 -0.00454562,-0.00442592 -2.08722e-14,-2.30926e-14 -0.206427,-0.220112 z "/>
<path fill="rgb(42,41,42)" stroke="rgb(42,41,42)" d="M 3.24064,5.23424 l 0,0.0157567 -0.211812,0 -0.313613,-0.334405 -0.00414793,-0.00406969 -0.00447175,-0.00371096 -0.00476464,-0.00332655 -0.00502458,-0.00291914 -0.00524976,-0.00249153 -0.00543864,-0.0020467 -0.397473,-0.130985 -8.88178e-15,-3.55271e-15 -0.0058415,-0.00221924 -0.00561987,-0.00273226 -0.00535329,-0.00322342 -0.00504389,-0.00368881 -0.00469416,-0.00412469 -0.00430688,-0.00452758 -0.00388515,-0.00489426 -0.00343235,-0.00522179 -0.0029521,-0.00550757 -0.00244824,-0.00574929 -0.00192479,-0.00594503 -0.00138595,-0.00609322 -0.000836032,-0.00619267 -0.000279422,-0.0062426 0,-7.99361e-15 0,-0.379809 0.000265888,-0.00608984 0.000795641,-0.00604349 0.00131934,-0.00595115 0.00183299,-0.00581351 0.0023327,-0.00563164 0.00281465,-0.0054069 0.00327518,-0.00514101 0.00371079,-0.004836 0.00411815,-0.00449418 0.00449418,-0.00411815 0.004836,-0.00371079 0.00514101,-0.00327518 0.0054069,-0.00281465 0.00563164,-0.0023327 0.00581351,-0.00183299 0.00595115,-0.00131934 0.00604349,-0.000795641 0.00608984,-0.000265888 0.19057,0 0.000372358,0.0241404 0.00245434,0.0240182 0.00451801,0.0237168 0.00654796,0.0232384 0.00852905,0.0225866 0.0104465,0.0217662 0.012286,0.0207835 0.0140338,0.0196456 0.0156769,0.0183612 0.017203,0.0169397 0.0186008,0.0153919 0.0198597,0.0137292 0.0209705,0.011964 0.0219248,0.0101096 0.0227154,0.00817969 0.0233366,0.00618878 0.0237837,0.00415169 0.0240532,0.00208362 0.0241433,0 0.0240532,-0.00208362 0.0237837,-0.00415169 0.0233366,-0.00618878 0.0227154,-0.00817969 0.0219248,-0.0101096 0.0209705,-0.011964 0.0198597,-0.0137292 0.0186008,-0.0153919 0.017203,-0.0169397 0.0156769,-0.0183612 0.0140338,-0.0196456 0.012286,-0.0207835 0.0104465,-0.0217662 0.00852905,-0.0225866 0.00654796,-0.0232384 0.00451801,-0.0237168 0.00245434,-0.0240182 0.000372358,-0.0241404 0.180788,0 0,0.548785 -0.402886,-0.0460434 -0.0060668,-0.000426933 -0.00608094,0.000102242 -0.00604902,0.000630643 -0.00597126,0.00115427 -0.00584827,0.00166914 -0.00568097,0.00217138 -0.00547063,0.00265716 -0.00521885,0.00312281 -0.00492752,0.0035648 -0.00459887,0.00397979 -0.00423537,0.00436462 -0.00383979,0.00471639 -0.00341511,0.00503243 -0.00296457,0.00531034 -0.00249156,0.00554801 -0.00199968,0.00574366 -0.00149264,0.00589579 -0.0009743,0.00600325 -0.000448577,0.00606524 8.05451e-05,0.00608127 0.000609057,0.00605123 0.00113295,0.00597534 0.00164827,0.00585419 0.00215109,0.00568868 0.00263762,0.00548008 0.00310417,0.00522996 0.0035472,0.00494021 0.00396336,0.00461304 0.32093,0.342207 1.77636e-14,1.86517e-14 0.00454562,0.00442592 0.00492834,0.00399537 0.00527042,0.00353187 0.00556906,0.00303926 0.00582178,0.00252158 0.0060265,0.00198312 0.00618154,0.00142831 0.00628561,0.000861724 0.00633786,0.000288033 2.39808e-14,0 0.089889,0 z "/>
<path fill="rgb(42,41,42)" stroke="rgb(42,41,42)" d="M 5.24064,5.25 l 0.114687,0 0,0.0869142 0,1.06581e-14 -0.000590862,0.013533 -0.00176809,0.01343 -0.00293186,0.0132248 -0.00407332,0.0129189 -0.00518378,0.0125147 -0.00625478,0.0120153 -0.00727819,0.0114245 -0.0082462,0.0107467 -0.00915145,0.00998706 -0.00998706,0.00915145 -0.0107467,0.0082462 -0.0114245,0.00727819 -0.0120153,0.00625478 -0.0125147,0.00518378 -0.0125202,0.00394762 0,-0.236771 z "/>
<path fill="rgb(42,41,42)" stroke="rgb(42,41,42)" d="M 5.24064,5.25 l 0,-1 0.044814,0 1.06581e-14,0 0.00608984,0.000265888 0.00604349,0.000795641 0.00595115,0.00131934 0.00581351,0.00183299 0.00563164,0.0023327 0.0054069,0.00281465 0.00514101,0.00327518 0.004836,0.00371079 0.00449418,0.00411815 0.00411815,0.00449418 0.00371079,0.004836 0.00327518,0.00514101 0.00281465,0.0054069 0.0023327,0.00563164 0.00183299,0.00581351 0.00131934,0.00595115 0.000795641,0.00604349 0.000265888,0.00608984 0,1.06581e-14 0,0.930127 -0.114687,0 z "/>
<path fill="rgb(42,41,42)" stroke="rgb(42,41,42)" d="M 4.24064,5.49219 l 0,-0.242188 1,0 0,0.236771 -0.000398684,0.000125705 -0.0132248,0.00293186 -0.01343,0.00176809 -0.013533,0.000590862 -1.06581e-14,0 -0.959414,0 z "/>
<path fill="rgb(42,41,42)" stroke="rgb(42,41,42)" d="M 5.24064,4.25 l 0,1 -1,0 0,-0.974666 0.00233236,0.0228245 0.00451801,0.0237168 0.00654796,0.0232384 0.00852905,0.0225866 0.0104465,0.0217662 0.012286,0.0207835 0.0140338,0.0196456 0.0156769,0.0183612 0.017203,0.0169397 0.0186008,0.0153919 0.0198597,0.0137292 0.0209705,0.011964 0.0219248,0.0101096 0.0227154,0.00817969 0.0233366,0.00618878 0.0237837,0.00415169 0.0240532,0.00208362 0.0241433,0 0.0240532,-0.00208362 0.0237837,-0.00415169 0.0233366,-0.00618878 0.0227154,-0.00817969 0.0219248,-0.0101096 0.0209705,-0.011964 0.0198597,-0.0137292 0.0186008,-0.0153919 0.017203,-0.0169397 0.0156769,-0.0183612 0.0140338,-0.0196456 0.012286,-0.0207835 0.0104465,-0.0217662 0.00852905,-0.0225866 0.00654796,-0.0232384 0.00451801,-0.0237168 0.00245434,-0.0240182 0.000372358,-0.0241404 0.441726,0 z "/>
<path fill="rgb(42,41,42)" stroke="rgb(42,41,42)" d="M 2.56583,3.26392 l 1.50179e-09,-0.27433 -1.66865e-10,3.44459e-06 -5.00595e-10,3.44459e-06 -8.34325e-10,3.44459e-06 0,1.08358e-13 0,0.274319 z "/>
<path fill="rgb(42,41,42)" stroke="rgb(42,41,42)" d="M 4.80359,2.64416 l -0.595466,1.80843e-06 -0.000367973,-2.00937e-07 -0.000367972,-6.02812e-07 -0.000367972,-1.00469e-06 0.596569,0 z "/>
<path fill="rgb(42,41,42)" stroke="rgb(42,41,42)" d="M 2.74364,2.91085 l -0.0508083,0.467362 -0.000509424,0.00335706 -0.000791339,0.00330199 -0.00106759,0.0032233 -0.0013362,0.00312153 -0.00159525,0.00299742 -0.00184289,0.00285187 -0.00207733,0.0026859 -0.00229691,0.00250072 -0.00250005,0.00229764 -0.0026853,0.00207811 -0.00285133,0.00184371 -0.00299696,0.00159612 -0.00312114,0.00133711 -0.00322299,0.00106853 -0.00330176,0.000792299 -0.00335691,0.0005104 -0.513085,0 -0.00602989,-0.000258187 -0.00598575,-0.000772671 -0.0058978,-0.0012815 -0.00576667,-0.00178095 -0.00559333,-0.00226736 -0.00537905,-0.00273717 -0.00512539,-0.00318695 -0.00483421,-0.0036134 -0.00450765,-0.0040134 -0.00414809,-0.00438402 -0.00375817,-0.00472255 -0.00334074,-0.00502651 -0.00289885,-0.00529367 -0.00243574,-0.00552209 -0.0019548,-0.00571008 -0.0933465,-0.278612 0.148849,0 0.0544198,0.183859 0.000947237,0.00318459 0.00122466,0.00308854 0.00149253,0.00296837 0.00174874,0.00282503 0.0019913,0.00265962 0.00221831,0.00247345 0.002428,0.00226797 0.00261873,0.00204478 0.00278901,0.00180562 0.00293752,0.00155237 0.00306309,0.00128699 0.00316474,0.00101157 0.00324169,0.000728242 0.00329332,0.000439232 0.00331924,0.000146793 0.30734,0 0.00286385,8.74832e-05 0.00286069,-0.000160426 0.00283611,-0.000407133 0.00279029,-0.000650792 0.00272359,-0.000889578 0.00263649,-0.0011217 0.00252964,-0.00134543 0.00240386,-0.00155908 0.00226008,-0.00176106 0.00209937,-0.00194985 0.00192294,-0.00212404 0.00173212,-0.00228233 0.00152833,-0.00242353 0.00131309,-0.00254658 0.00108802,-0.00265056 0.000854805,-0.0027347 0.000615188,-0.00279836 0.000370965,-0.00284107 0.000123964,-0.0028625 1.50179e-09,-0.27433 -0.000135291,-0.00309868 -0.000404844,-0.0030751 -0.000671316,-0.00302811 -0.000932679,-0.00295808 -0.00118694,-0.00286554 -0.00143218,-0.00275118 -0.00166651,-0.00261589 -0.00188816,-0.00246069 -0.00209543,-0.00228676 -0.00228676,-0.00209543 -0.00246069,-0.00188816 -0.00261589,-0.00166651 -0.00275118,-0.00143218 -0.00286554,-0.00118694 -0.00295808,-0.000932679 -0.00302811,-0.000671316 -0.0030751,-0.000404844 -0.00309868,-0.000135291 -0.161189,4.44089e-16 0.0637665,-0.316361 0.0298408,0.00455165 0.0301271,0.00188291 0.0301753,-0.000800711 0.0299849,-0.00347801 0.0295574,-0.0061278 0.0288962,-0.00872915 0.0280066,-0.0112615 0.0268955,-0.0137048 0.0255718,-0.0160397 0.0240459,-0.0182478 0.0223299,-0.0203117 0.0204373,-0.022215 0.0183832,-0.0239426 0.0161837,-0.0254809 0.0138563,-0.0268178 0.0114193,-0.0279426 0.008892,-0.0288465 1.0541,0 0.00854336,0.0283551 0.0110002,0.0274954 0.013372,0.0264233 0.0156406,0.025147 0.0177883,0.0236765 0.0197986,0.0220231 0.021656,0.0201995 0.023346,0.0182199 0.0248557,0.0160995 0.0261734,0.0138548 0.0272888,0.011503 0.0281935,0.00906238 0.0288804,0.00655173 0.0293441,0.00399047 0.0295812,0.00139838 1.06581e-14,0 0.000367972,1.00469e-06 0.000367972,6.02812e-07 0.000367973,2.00937e-07 0.595466,-1.80843e-06 0.0297095,-0.00130696 0.02948,-0.0039108 0.0290227,-0.00648441 0.0283411,-0.00900793 0.0274406,-0.0114619 0.0263281,-0.0138272 0.0250122,-0.0160858 0.0235031,-0.01822 0.0218123,-0.0202135 0.019953,-0.0220508 0.0179396,-0.0237178 0.0157876,-0.0252015 0.0135136,-0.0264905 0.0111352,-0.0275748 0.00867071,-0.0284461 0.355596,0 0,1.25984 -2.66953,0 0,-0.934713 -0.0736596,0 0,0.195564 z "/>
<path fill="rgb(42,41,42)" stroke="rgb(42,41,42)" d="M 2.15944,2.30634 l 0.00138591,0.0290275 0.00386339,0.0288027 0.00631257,0.0283667 0.00871549,0.0277229 0.0110545,0.0268759 0.0133126,0.025832 0.0154731,0.0245988 0.0175202,0.0231854 0.0194389,0.021602 0.0212152,0.0198604 0.022836,0.0179732 0.0242895,0.0159543 0.025565,0.0138185 0.0266531,0.0115814 0.027546,0.00925952 0.0282369,0.00686974 -0.0637665,0.316361 -0.275694,-4.44089e-16 0.0386445,0.130562 -0.148849,0 -0.0726782,-0.216923 0.0304891,-0.411468 -0.0533404,-0.0330316 0,-0.11683 0.271777,0 z "/>
<path fill="rgb(42,41,42)" stroke="rgb(42,41,42)" d="M 3.94652,2.30633 l 0.0010052,-0.023023 0.00300796,-0.0228477 0.00498782,-0.0224986 0.00692972,-0.0219783 0.00881888,-0.0212907 0.0106409,-0.0204411 0.012382,-0.0194359 0.0140288,-0.0182828 0.0155689,-0.0169905 0.0169904,-0.0155689 0.0182827,-0.0140289 0.0194358,-0.0123821 0.020441,-0.010641 0.0212907,-0.00881896 0.0219783,-0.0069298 0.0224986,-0.0049879 0.0228477,-0.00300804 0.023023,-0.00100528 0.023023,0.00100512 0.0228478,0.00300787 0.0224987,0.00498774 0.0219783,0.00692964 0.0212907,0.00881881 0.0204411,0.0106409 0.0194359,0.0123819 0.0182828,0.0140288 0.0169906,0.0155688 0.015569,0.0169904 0.0140289,0.0182827 0.0123821,0.0194358 0.0106411,0.020441 0.00881903,0.0212907 0.00692987,0.0219783 0.00498798,0.0224986 0.00300812,0.0228477 0.00100537,0.023023 3.6886e-12,6.24276e-07 2.21245e-12,6.24276e-07 7.38076e-13,6.24276e-07 -0.00101388,0.023122 -0.00303387,0.0229445 -0.00503056,0.0225909 -0.00698864,0.0220638 -0.00889307,0.0213674 -0.0107292,0.020507 -0.012483,0.0194892 -0.014141,0.0183217 -0.0156905,0.0170136 -0.0171194,0.0155749 -0.018417,0.0140167 -0.0195732,0.0123508 -0.0205792,0.0105902 -0.0214271,0.00874823 -0.0221106,0.00683913 -0.0226244,0.00487753 -0.0229645,0.00287849 -0.0231283,0.000857347 -0.0231146,-0.00117037 -0.0229234,-0.00318911 -0.0225563,-0.00518336 -0.022016,-0.00713783 -0.0213067,-0.0090375 -0.0204339,-0.0108678 -0.0194042,-0.0126147 -0.0182256,-0.0142647 -0.016907,-0.0158053 -0.0154587,-0.0172245 -0.0138917,-0.0185115 -0.0122181,-0.0196564 -0.0104506,-0.0206504 -0.00860299,-0.0214859 -0.0066893,-0.0221564 -0.00452964,-0.0214808 -0.00273036,-0.0217827 -0.00091222,-0.0219342 z "/>
<path fill="rgb(42,41,42)" stroke="rgb(42,41,42)" d="M 3.94652,2.30633 l 0.0010052,-0.023023 0.00300796,-0.0228477 0.00498782,-0.0224986 0.00692972,-0.0219783 0.00881888,-0.0212907 0.0106409,-0.0204411 0.012382,-0.0194359 0.0140288,-0.0182828 0.0155689,-0.0169905 0.0169904,-0.0155689 0.0182827,-0.0140289 0.0194358,-0.0123821 0.020441,-0.010641 0.0212907,-0.00881896 0.0219783,-0.0069298 0.0224986,-0.0049879 0.0228477,-0.00300804 0.023023,-0.00100528 0.023023,0.00100512 0.0228478,0.00300787 0.0224987,0.00498774 0.0219783,0.00692964 0.0212907,0.00881881 0.0204411,0.0106409 0.0194359,0.0123819 0.0182828,0.0140288 0.0169906,0.0155688 0.015569,0.0169904 0.0140289,0.0182827 0.0123821,0.0194358 0.0106411,0.020441 0.00881903,0.0212907 0.00692987,0.0219783 0.00498798,0.0224986 0.00300812,0.0228477 0.00100537,0.023023 -0.00100537,-0.023023 -0.00300812,-0.0228477 -0.00498798,-0.0224986 -0.00692987,-0.0219783 -0.00881903,-0.0212907 -0.0106411,-0.020441 -0.0123821,-0.0194358 -0.0140289,-0.0182827 -0.015569,-0.0169904 -0.0169906,-0.0155688 -0.0182828,-0.0140288 -0.0194359,-0.0123819 -0.0204411,-0.0106409 -0.0212907,-0.00881881 -0.0219783,-0.00692964 -0.0224987,-0.00498774 -0.0228478,-0.00300787 -0.023023,-0.00100512 -0.023023,0.00100528 -0.0228477,0.00300804 -0.0224986,0.0049879 -0.0219783,0.0069298 -0.0212907,0.00881896 -0.020441,0.010641 -0.0194358,0.0123821 -0.0182827,0.0140289 -0.0169904,0.0155689 -0.0155689,0.0169905 -0.0140288,0.0182828 -0.012382,0.0194359 -0.0106409,0.0204411 -0.00881888,0.0212907 -0.00692972,0.0219783 -0.00498782,0.0224986 -0.00300796,0.0228477 -0.0010052,0.023023 z "/>
<path fill="rgb(42,41,42)" stroke="rgb(42,41,42)" d="M 4.5391,2.30633 l 0.00100521,-0.023023 0.00300797,-0.0228478 0.00498784,-0.0224987 0.00692975,-0.0219784 0.00881892,-0.0212908 0.010641,-0.0204411 0.012382,-0.0194359 0.0140289,-0.0182828 0.0155689,-0.0169905 0.0169905,-0.0155689 0.0182828,-0.0140289 0.0194359,-0.012382 0.0204411,-0.010641 0.0212908,-0.00881892 0.0219784,-0.00692975 0.0224987,-0.00498784 0.0228478,-0.00300797 0.023023,-0.00100521 0.023023,0.00100521 0.0228478,0.00300797 0.0224987,0.00498784 0.0219784,0.00692975 0.0212908,0.00881892 0.0204411,0.010641 0.0194359,0.012382 0.0182828,0.0140289 0.0169905,0.0155689 0.0155689,0.0169905 0.0140289,0.0182828 0.012382,0.0194359 0.010641,0.0204411 0.00881892,0.0212908 0.00692975,0.0219784 0.00498784,0.0224987 0.00300797,0.0228478 0.00100521,0.023023 -0.000918433,0.0220087 -0.00274891,0.0218556 -0.00456028,0.0215506 -5.3797e-11,-1.37503e-11 -0.00670583,0.0221443 -0.00861783,0.0214725 -0.0104637,0.0206361 -0.0122293,0.0196413 -0.0139011,0.0184958 -0.0154663,0.0172085 -0.0169128,0.0157891 -0.0182295,0.0142486 -0.0194064,0.0125988 -0.0204344,0.0108523 -0.0213056,0.00902256 -0.0220134,0.00712361 -0.0225523,0.00517001 -0.0229182,0.00317674 -0.0231083,0.00115911 -0.0231211,-0.000867418 -0.0229565,-0.00288729 -0.0226158,-0.00488501 -0.0221016,-0.00684526 -0.0214178,-0.00875299 -0.0205697,-0.0105936 -0.0195638,-0.0123529 -0.0184079,-0.0140174 -0.0171107,-0.0155744 -0.0156822,-0.0170119 -0.0141334,-0.0183189 -0.0124762,-0.0194854 -0.0107233,-0.0205024 -0.0088881,-0.0213621 -0.00698473,-0.0220579 -0.00502777,-0.0225845 -0.00303224,-0.0229378 -0.00101345,-0.0231151 -3.68772e-12,-6.24276e-07 -2.21245e-12,-6.24276e-07 -7.37188e-13,-6.24276e-07 z "/>
<path fill="rgb(42,41,42)" stroke="rgb(42,41,42)" d="M 2.7638,2.30633 l -0.00100519,0.0230228 -0.00300791,0.0228476 -0.00498775,0.0224985 -0.00692962,0.0219782 -0.00881876,0.0212906 -0.0106408,0.020441 -0.0123818,0.0194358 -0.0140286,0.0182827 -0.0155687,0.0169905 -0.0169902,0.0155689 -0.0182825,0.0140289 -0.0194356,0.0123821 -0.0204408,0.0106411 -0.0212905,0.00881907 -0.0219781,0.00692995 -0.0224984,0.00498808 -0.0228475,0.00300825 -0.0230228,0.00100553 -0.0230228,-0.00100484 -0.0228476,-0.00300757 -0.0224986,-0.00498741 -0.0219783,-0.00692929 -0.0212907,-0.00881844 -0.0204411,-0.0106405 -0.019436,-0.0123815 -0.0182829,-0.0140284 -0.0169907,-0.0155684 -0.0155692,-0.01699 -0.0140292,-0.0182823 -0.0123824,-0.0194354 -0.0106414,-0.0204407 -0.00881939,-0.0212903 -0.00693028,-0.021978 -0.00498842,-0.0224983 -0.00300859,-0.0228475 -0.00100587,-0.0230228 -6.5377e-11,-2.6283e-06 -3.9226e-11,-2.6283e-06 -1.30753e-11,-2.6283e-06 0.00100521,-0.023023 0.00300797,-0.0228478 0.00498784,-0.0224987 0.00692975,-0.0219784 0.00881892,-0.0212908 0.010641,-0.0204411 0.012382,-0.0194359 0.0140289,-0.0182828 0.0155689,-0.0169905 0.0169905,-0.0155689 0.0182828,-0.0140289 0.0194359,-0.012382 0.0204411,-0.010641 0.0212908,-0.00881892 0.0219784,-0.00692975 0.0224987,-0.00498784 0.0228478,-0.00300797 0.023023,-0.00100521 0.023023,0.00100521 0.0228478,0.00300797 0.0224987,0.00498784 0.0219784,0.00692975 0.0212908,0.00881892 0.0204411,0.010641 0.0194359,0.012382 0.0182828,0.0140289 0.0169905,0.0155689 0.0155689,0.0169905 0.0140289,0.0182828 0.012382,0.0194359 0.010641,0.0204411 0.00881892,0.0212908 0.00692975,0.0219784 0.00498784,0.0224987 0.00300797,0.0228478 0.00100521,0.023023 z "/>
<path fill="rgb(187,30,16)" stroke="rgb(187,30,16)" d="M 0.2,3.75 l -0.2,0 0.0142699,-0.326834 0.042701,-0.324347 0.0708072,-0.319391 0.0983745,-0.312004 0.125193,-0.302243 0.151059,-0.290182 0.175775,-0.275912 0.199154,-0.259542 0.221016,-0.241197 0.241197,-0.221016 0.259542,-0.199154 0.275912,-0.175775 0.290182,-0.151059 0.302243,-0.125193 0.312004,-0.0983745 0.319391,-0.0708072 0.324347,-0.042701 0.326834,-0.0142699 0.326834,0.0142699 0.324347,0.042701 0.319391,0.0708072 0.312004,0.0983745 0.302243,0.125193 0.290182,0.151059 0.275912,0.175775 0.259542,0.199154 0.241197,0.221016 0.221016,0.241197 0.199154,0.259542 0.175775,0.275912 0.151059,0.290182 0.125193,0.302243 0.0983745,0.312004 0.0708072,0.319391 0.042701,0.324347 0.0142699,0.326834 -0.2,0 -0.0135088,-0.309403 -0.0404237,-0.307048 -0.0670308,-0.302357 -0.0931279,-0.295364 -0.118516,-0.286123 -0.143002,-0.274705 -0.1664,-0.261196 -0.188532,-0.2457 -0.209229,-0.228333 -0.228333,-0.209229 -0.2457,-0.188532 -0.261196,-0.1664 -0.274705,-0.143002 -0.286123,-0.118516 -0.295364,-0.0931279 -0.302357,-0.0670308 -0.307048,-0.0404237 -0.309403,-0.0135088 -0.309403,0.0135088 -0.307048,0.0404237 -0.302357,0.0670308 -0.295364,0.0931279 -0.286123,0.118516 -0.274705,0.143002 -0.261196,0.1664 -0.2457,0.188532 -0.228333,0.209229 -0.209229,0.228333 -0.188532,0.2457 -0.1664,0.261196 -0.143002,0.274705 -0.118516,0.286123 -0.0931279,0.295364 -0.0670308,0.302357 -0.0404237,0.307048 -0.0135088,0.309403 z "/>
<path fill="rgb(187,30,16)" stroke="rgb(187,30,16)" d="M 0.2,3.75 l 0.0135088,0.309403 0.0404237,0.307048 0.0670308,0.302357 0.0931279,0.295364 0.118516,0.286123 0.143002,0.274705 0.1664,0.261196 0.188532,0.2457 0.209229,0.228333 0.228333,0.209229 0.2457,0.188532 0.261196,0.1664 0.274705,0.143002 0.286123,0.118516 0.295364,0.0931279 0.302357,0.0670308 0.307048,0.0404237 0.309403,0.0135088 0.309403,-0.0135088 0.307048,-0.0404237 0.302357,-0.0670308 0.295364,-0.0931279 0.286123,-0.118516 0.274705,-0.143002 0.261196,-0.1664 0.2457,-0.188532 0.228333,-0.209229 0.209229,-0.228333 0.188532,-0.2457 0.1664,-0.261196 0.143002,-0.274705 0.118516,-0.286123 0.0931279,-0.295364 0.0670308,-0.302357 0.0404237,-0.307048 0.0135088,-0.309403 0.2,0 -0.0142699,0.326834 -0.042701,0.324347 -0.0708072,0.319391 -0.0983745,0.312004 -0.125193,0.302243 -0.151059,0.290182 -0.175775,0.275912 -0.199154,0.259542 -0.221016,0.241197 -0.241197,0.221016 -0.259542,0.199154 -0.275912,0.175775 -0.290182,0.151059 -0.302243,0.125193 -0.312004,0.0983745 -0.319391,0.0708072 -0.324347,0.042701 -0.326834,0.0142699 -0.326834,-0.0142699 -0.324347,-0.042701 -0.319391,-0.0708072 -0.312004,-0.0983745 -0.302243,-0.125193 -0.290182,-0.151059 -0.275912,-0.175775 -0.259542,-0.199154 -0.241197,-0.221016 -0.221016,-0.241197 -0.199154,-0.259542 -0.175775,-0.275912 -0.151059,-0.290182 -0.125193,-0.302243 -0.0983745,-0.312004 -0.0708072,-0.319391 -0.042701,-0.324347 -0.0142699,-0.326834 0.2,0 z "/>
<path fill="rgb(187,30,16)" stroke="rgb(187,30,16)" d="M 6.4,3.75 l -0.0100841,-0.230963 -0.0301754,-0.229205 -0.0500371,-0.225703 -0.069518,-0.220483 -0.0884698,-0.213585 -0.106748,-0.205062 -0.124214,-0.194978 -0.140735,-0.18341 -0.156185,-0.170446 -0.170446,-0.156185 -0.18341,-0.140735 -0.194978,-0.124214 -0.205062,-0.106748 -0.213585,-0.0884698 -0.220483,-0.069518 -0.225703,-0.0500371 -0.229205,-0.0301754 -0.230963,-0.0100841 -0.230963,0.0100841 -0.229205,0.0301754 -0.225703,0.0500371 -0.220483,0.069518 -0.213585,0.0884698 -0.205062,0.106748 -0.194978,0.124214 -0.18341,0.140735 -0.170446,0.156185 -0.156185,0.170446 -0.140735,0.18341 -0.124214,0.194978 -0.106748,0.205062 -0.0884698,0.213585 -0.069518,0.220483 -0.0500371,0.225703 -0.0301754,0.229205 -0.0100841,0.230963 -0.7,0 0.0127478,-0.291972 0.0381463,-0.28975 0.0632545,-0.285322 0.0878812,-0.278724 0.111839,-0.270004 0.134946,-0.259229 0.157026,-0.246481 0.17791,-0.231857 0.197441,-0.215469 0.215469,-0.197441 0.231857,-0.17791 0.246481,-0.157026 0.259229,-0.134946 0.270004,-0.111839 0.278724,-0.0878812 0.285322,-0.0632545 0.28975,-0.0381463 0.291972,-0.0127478 0.291972,0.0127478 0.28975,0.0381463 0.285322,0.0632545 0.278724,0.0878812 0.270004,0.111839 0.259229,0.134946 0.246481,0.157026 0.231857,0.17791 0.215469,0.197441 0.197441,0.215469 0.17791,0.231857 0.157026,0.246481 0.134946,0.259229 0.111839,0.270004 0.0878812,0.278724 0.0632545,0.285322 0.0381463,0.28975 0.0127478,0.291972 -0.7,0 z "/>
<path fill="rgb(187,30,16)" stroke="rgb(187,30,16)" d="M 6.4,3.75 l 0.7,0 -0.0127478,0.291972 -0.0381463,0.28975 -0.0632545,0.285322 -0.0878812,0.278724 -0.111839,0.270004 -0.134946,0.259229 -0.157026,0.246481 -0.17791,0.231857 -0.197441,0.215469 -0.215469,0.197441 -0.231857,0.17791 -0.246481,0.157026 -0.259229,0.134946 -0.270004,0.111839 -0.278724,0.0878812 -0.285322,0.0632545 -0.28975,0.0381463 -0.291972,0.0127478 -0.291972,-0.0127478 -0.28975,-0.0381463 -0.285322,-0.0632545 -0.278724,-0.0878812 -0.270004,-0.111839 -0.259229,-0.134946 -0.246481,-0.157026 -0.231857,-0.17791 -0.215469,-0.197441 -0.197441,-0.215469 -0.17791,-0.231857 -0.157026,-0.246481 -0.134946,-0.259229 -0.111839,-0.270004 -0.0878812,-0.278724 -0.0632545,-0.285322 -0.0381463,-0.28975 -0.0127478,-0.291972 0.7,0 0.0100841,0.230963 0.0301754,0.229205 0.0500371,0.225703 0.069518,0.220483 0.0884698,0.213585 0.106748,0.205062 0.124214,0.194978 0.140735,0.18341 0.156185,0.170446 0.170446,0.156185 0.18341,0.140735 0.194978,0.124214 0.205062,0.106748 0.213585,0.0884698 0.220483,0.069518 0.225703,0.0500371 0.229205,0.0301754 0.230963,0.0100841 0.230963,-0.0100841 0.229205,-0.0301754 0.225703,-0.0500371 0.220483,-0.069518 0.213585,-0.0884698 0.205062,-0.106748 0.194978,-0.124214 0.18341,-0.140735 0.170446,-0.156185 0.156185,-0.170446 0.140735,-0.18341 0.124214,-0.194978 0.106748,-0.205062 0.0884698,-0.213585 0.069518,-0.220483 0.0500371,-0.225703 0.0301754,-0.229205 0.0100841,-0.230963 z "/>
</g></g></svg>
