<?xml version="1.0" encoding="UTF-8" standalone="no"?>
<!DOCTYPE svg PUBLIC "-//W3C//DTD SVG 1.1//EN" "http://www.w3.org/Graphics/SVG/1.1/DTD/svg11-flat.dtd"
[

]>
<svg xmlns="http://www.w3.org/2000/svg"  viewBox="-0.09375 -0.09375 7.6875 7.6875"><g fill="none" stroke="black" stroke-width="0.0125" transform="translate(0,7.5) scale(1, -1)">
<g id="Output" >
<path fill="rgb(241,240,234)" stroke="rgb(241,240,234)" d="M 6.4,3.75 l -5.3,0 0.0100841,-0.230963 0.0301754,-0.229205 0.0500371,-0.225703 0.069518,-0.220483 0.0884698,-0.213585 0.106748,-0.205062 0.124214,-0.194978 0.140735,-0.18341 0.156185,-0.170446 0.170446,-0.156185 0.18341,-0.140735 0.194978,-0.124214 0.205062,-0.106748 0.213585,-0.0884698 0.220483,-0.069518 0.225703,-0.0500371 0.229205,-0.0301754 0.230963,-0.0100841 0.230963,0.0100841 0.229205,0.0301754 0.225703,0.0500371 0.220483,0.069518 0.213585,0.0884698 0.205062,0.106748 0.194978,0.124214 0.18341,0.140735 0.170446,0.156185 0.156185,0.170446 0.140735,0.18341 0.124214,0.194978 0.106748,0.205062 0.0884698,0.213585 0.069518,0.220483 0.0500371,0.225703 0.0301754,0.229205 0.0100841,0.230963 z "/>
<path fill="rgb(241,240,234)" stroke="rgb(241,240,234)" d="M 6.4,3.75 l -0.0100841,0.230963 -0.0301754,0.229205 -0.0500371,0.225703 -0.069518,0.220483 -0.0884698,0.213585 -0.106748,0.205062 -0.124214,0.194978 -0.140735,0.18341 -0.156185,0.170446 -0.170446,0.156185 -0.18341,0.140735 -0.194978,0.124214 -0.205062,0.106748 -0.213585,0.0884698 -0.220483,0.069518 -0.225703,0.0500371 -0.229205,0.0301754 -0.230963,0.0100841 -0.230963,-0.0100841 -0.229205,-0.0301754 -0.225703,-0.0500371 -0.220483,-0.069518 -0.213585,-0.0884698 -0.205062,-0.106748 -0.194978,-0.124214 -0.18341,-0.140735 -0.170446,-0.156185 -0.156185,-0.170446 -0.140735,-0.18341 -0.124214,-0.194978 -0.106748,-0.205062 -0.0884698,-0.213585 -0.069518,-0.220483 -0.0500371,-0.225703 -0.0301754,-0.229205 -0.0100841,-0.230963 5.3,0 z "/>
<path fill="rgb(241,240,234)" stroke="rgb(241,240,234)" d="M 0.2,3.75 l 0.0135088,-0.309403 0.0404237,-0.307048 0.0670308,-0.302357 0.0931279,-0.295364 0.118516,-0.286123 0.143002,-0.274705 0.1664,-0.261196 0.188532,-0.2457 0.209229,-0.228333 0.228333,-0.209229 0.2457,-0.188532 0.261196,-0.1664 0.274705,-0.143002 0.286123,-0.118516 0.295364,-0.0931279 0.302357,-0.0670308 0.307048,-0.0404237 0.309403,-0.0135088 0.309403,0.0135088 0.307048,0.0404237 0.302357,0.0670308 0.295364,0.0931279 0.286123,0.118516 0.274705,0.143002 0.261196,0.1664 0.2457,0.188532 0.228333,0.209229 0.209229,0.228333 0.188532,0.2457 0.1664,0.261196 0.143002,0.274705 0.118516,0.286123 0.0931279,0.295364 0.0670308,0.302357 0.0404237,0.307048 0.0135088,0.309403 -0.2,0 -0.0127478,-0.291972 -0.0381463,-0.28975 -0.0632545,-0.285322 -0.0878812,-0.278724 -0.111839,-0.270004 -0.134946,-0.259229 -0.157026,-0.246481 -0.17791,-0.231857 -0.197441,-0.215469 -0.215469,-0.197441 -0.231857,-0.17791 -0.246481,-0.157026 -0.259229,-0.134946 -0.270004,-0.111839 -0.278724,-0.0878812 -0.285322,-0.0632545 -0.28975,-0.0381463 -0.291972,-0.0127478 -0.291972,0.0127478 -0.28975,0.0381463 -0.285322,0.0632545 -0.278724,0.0878812 -0.270004,0.111839 -0.259229,0.134946 -0.246481,0.157026 -0.231857,0.17791 -0.215469,0.197441 -0.197441,0.215469 -0.17791,0.231857 -0.157026,0.246481 -0.134946,0.259229 -0.111839,0.270004 -0.0878812,0.278724 -0.0632545,0.285322 -0.0381463,0.28975 -0.0127478,0.291972 -0.2,0 z "/>
<path fill="rgb(241,240,234)" stroke="rgb(241,240,234)" d="M 0.2,3.75 l 0.2,0 0.0127478,0.291972 0.0381463,0.28975 0.0632545,0.285322 0.0878812,0.278724 0.111839,0.270004 0.134946,0.259229 0.157026,0.246481 0.17791,0.231857 0.197441,0.215469 0.215469,0.197441 0.231857,0.17791 0.246481,0.157026 0.259229,0.134946 0.270004,0.111839 0.278724,0.0878812 0.285322,0.0632545 0.28975,0.0381463 0.291972,0.0127478 0.291972,-0.0127478 0.28975,-0.0381463 0.285322,-0.0632545 0.278724,-0.0878812 0.270004,-0.111839 0.259229,-0.134946 0.246481,-0.157026 0.231857,-0.17791 0.215469,-0.197441 0.197441,-0.215469 0.17791,-0.231857 0.157026,-0.246481 0.134946,-0.259229 0.111839,-0.270004 0.0878812,-0.278724 0.0632545,-0.285322 0.0381463,-0.28975 0.0127478,-0.291972 0.2,0 -0.0135088,0.309403 -0.0404237,0.307048 -0.0670308,0.302357 -0.0931279,0.295364 -0.118516,0.286123 -0.143002,0.274705 -0.1664,0.261196 -0.188532,0.2457 -0.209229,0.228333 -0.228333,0.209229 -0.2457,0.188532 -0.261196,0.1664 -0.274705,0.143002 -0.286123,0.118516 -0.295364,0.0931279 -0.302357,0.0670308 -0.307048,0.0404237 -0.309403,0.0135088 -0.309403,-0.0135088 -0.307048,-0.0404237 -0.302357,-0.0670308 -0.295364,-0.0931279 -0.286123,-0.118516 -0.274705,-0.143002 -0.261196,-0.1664 -0.2457,-0.188532 -0.228333,-0.209229 -0.209229,-0.228333 -0.188532,-0.2457 -0.1664,-0.261196 -0.143002,-0.274705 -0.118516,-0.286123 -0.0931279,-0.295364 -0.0670308,-0.302357 -0.0404237,-0.307048 -0.0135088,-0.309403 z "/>
<path fill="rgb(42,41,42)" stroke="rgb(42,41,42)" d="M 4.92136,5.04093 l -0.012301,0 -0.089892,-0.00473116 -0.0851609,-0.0132472 -0.0804297,-0.0198709 -0.077591,-0.0274407 -0.0728599,-0.0359568 -0.0690749,-0.0435267 -0.0643438,-0.0501503 -0.0605588,-0.0586664 -0.0567739,-0.0662362 -0.0520428,-0.0738061 -0.0028387,-0.00378493 -0.0425804,-0.0719136 -0.0378493,-0.0756986 -0.0331181,-0.0785372 -0.0293332,-0.0832684 -0.024602,-0.0870533 -0.0198709,-0.0908383 -0.0160859,-0.0946232 -0.0113548,-0.0984081 -0.00662362,-0.103139 -0.00189246,-0.105978 0,-0.00662362 0.00189246,-0.105978 0.00756986,-0.102193 0.0113548,-0.0984081 0.0151397,-0.0946232 0.0198709,-0.0908383 0.024602,-0.0870533 0.0293332,-0.0832684 0.0331181,-0.0794835 0.0378493,-0.0756986 0.0416342,-0.0719136 0.012301,-0.0179784 0.0520428,-0.0728599 0.0567739,-0.06529 0.0605588,-0.0577201 0.06529,-0.0492041 0.0690749,-0.0425804 0.0728599,-0.0340643 0.077591,-0.0264945 0.0823222,-0.0198709 0.0851609,-0.0113548 0.0908383,-0.00378493 0.0293332,0.000946232 0.0889458,0.00567739 0.0842146,0.0141935 0.0794835,0.0217633 0.0766448,0.0302794 0.0709674,0.036903 0.0671825,0.0454191 0.0633975,0.0520428 0.0586664,0.0605588 0.0548815,0.0681287 0.0501503,0.0756986 -0.723867,0.036903 -0.0586664,0.0028387 -0.0832684,0.0160859 -0.0756986,0.0302794 -0.0681287,0.0435267 -0.0605588,0.0577201 -0.0539352,0.0719136 -0.0028387,0.00473116 -0.0378493,0.0681287 -0.0312257,0.0756986 -0.0264945,0.0823222 -0.0198709,0.089892 -0.0141935,0.0974619 -0.00851609,0.104086 -0.0028387,0.111655 0,0.0179784 0.00378493,0.103139 0.0104086,0.0984081 0.0170322,0.0927307 0.0236558,0.0879996 0.0302794,0.0813759 0.0359568,0.0756986 0.0141935,0.0255483 0.0520428,0.0766448 0.0586664,0.0633975 0.0643438,0.0492041 0.0719136,0.0340643 0.077591,0.0217633 0.0842146,0.00662362 0.721029,0.0435267 -0.0104086,0.0160859 -0.0520428,0.0738061 -0.0558277,0.06529 -0.0605588,0.0577201 -0.0643438,0.0492041 -0.0690749,0.0425804 -0.0738061,0.0350106 -0.077591,0.0264945 -0.0813759,0.0189246 -0.0861071,0.012301 -0.089892,0.00378493 z "/>
<path fill="rgb(42,41,42)" stroke="rgb(42,41,42)" d="M 5.64239,4.63973 l -0.721029,-0.0435267 0.0539352,-0.0028387 0.0832684,-0.0160859 0.0756986,-0.0293332 0.0681287,-0.0435267 0.0615051,-0.0586664 0.0539352,-0.0719136 0.0350106,-0.0615051 0.0321719,-0.0747523 0.0264945,-0.0823222 0.0208171,-0.0889458 0.0141935,-0.0965157 0.00946232,-0.104086 0.0028387,-0.10787 -0.0028387,-0.0993543 -0.00851609,-0.102193 -0.0151397,-0.0955694 -0.0208171,-0.089892 -0.0264945,-0.0832684 -0.0321719,-0.077591 -0.0387955,-0.0719136 -0.0340643,-0.0510965 -0.0577201,-0.06529 -0.06529,-0.0510965 -0.0719136,-0.0359568 -0.0785372,-0.0217633 -0.0851609,-0.00756986 0.723867,-0.036903 0.040688,0.0728599 0.036903,0.0756986 0.0331181,0.0804297 0.0274407,0.0832684 0.024602,0.0879996 0.0189246,0.0908383 0.0151397,0.0946232 0.0113548,0.0993543 0.00567739,0.102193 0.0028387,0.105978 -0.00189246,0.0908383 -0.00662362,0.102193 -0.0104086,0.0984081 -0.0151397,0.0955694 -0.0198709,0.0908383 -0.0236558,0.0870533 -0.0293332,0.0842146 -0.0331181,0.0794835 -0.0378493,0.0766448 -0.0416342,0.0728599 z "/>
<path fill="rgb(42,41,42)" stroke="rgb(42,41,42)" d="M 2.57092,5.04093 l -0.0804297,-0.0028387 -0.0908383,-0.00946232 -0.0861071,-0.0160859 -0.0813759,-0.0227096 -0.0766448,-0.0302794 -0.0728599,-0.0359568 -0.0681287,-0.0435267 -0.0624513,-0.0510965 -0.0577201,-0.0558277 -0.0558277,-0.0690749 -0.0454191,-0.0738061 0.794835,-0.0340643 0.0104086,0 0.0946232,-0.00662362 0.0861071,-0.0160859 0.0756986,-0.0274407 0.0671825,-0.0378493 0.00946232,-0.00662362 0.0671825,-0.0643438 0.040688,-0.0738061 0.0132472,-0.0842146 0,-0.00662362 -0.0151397,-0.0842146 -0.0425804,-0.0728599 -0.0700212,-0.0624513 -0.00473116,-0.00378493 -0.0700212,-0.0378493 -0.0785372,-0.0274407 -0.0851609,-0.0160859 -0.0927307,-0.00567739 -0.807136,-0.0104086 0.0444729,-0.0756986 0.0548815,-0.0719136 0.0662362,-0.0681287 0.0425804,-0.036903 0.0662362,-0.0473116 0.0709674,-0.0397417 0.931092,-0.00756986 -0.0378493,-0.0851609 -0.0435267,-0.0861071 -0.0482578,-0.0785372 -0.0520428,-0.0728599 -0.0567739,-0.0662362 -0.0605588,-0.0605588 -0.06529,-0.052989 -0.0681287,-0.0473116 -0.0539352,-0.0312257 -0.0719136,-0.0340643 -0.0766448,-0.0274407 -0.0813759,-0.0217633 -0.0861071,-0.0151397 -0.089892,-0.00946232 -0.0946232,-0.0028387 -0.0425804,0 0,-0.456084 0.024602,0 0.0927307,0.00378493 0.089892,0.00756986 0.0879996,0.012301 0.0851609,0.0170322 0.0823222,0.0208171 0.0794835,0.0255483 0.077591,0.0293332 0.0738061,0.0350106 0.0719136,0.0387955 0.0690749,0.0425804 0.0671825,0.0482578 0.028387,0.0227096 0.0681287,0.0577201 0.0633975,0.0605588 0.0596126,0.0643438 0.0548815,0.0662362 0.0501503,0.0690749 0.0454191,0.0719136 0.0416342,0.0738061 0.0378493,0.077591 0.0331181,0.0804297 0.028387,0.0832684 0.0236558,0.0851609 0.0198709,0.0879996 0.0151397,0.0917845 0.0113548,0.093677 0.00662362,0.0965157 0.00189246,0.0993543 0,0.0170322 -0.00378493,0.106924 -0.0113548,0.100301 -0.0170322,0.0946232 -0.0227096,0.0889458 -0.0302794,0.0832684 -0.0359568,0.0766448 -0.0425804,0.0709674 -0.0492041,0.0643438 -0.0558277,0.0586664 -0.0510965,0.0454191 -0.0662362,0.0501503 -0.0700212,0.0435267 -0.0738061,0.036903 -0.077591,0.0293332 -0.0813759,0.0236558 -0.0842146,0.0170322 -0.0889458,0.00946232 -0.0917845,0.00378493 z "/>
<path fill="rgb(42,41,42)" stroke="rgb(42,41,42)" d="M 1.79312,4.63027 l -0.0350106,-0.0804297 -0.0255483,-0.0842146 -0.0151397,-0.0908383 -0.00473116,-0.0955694 0.0028387,-0.0728599 0.0132472,-0.0889458 0.0236558,-0.0851609 0.0340643,-0.0804297 0.807136,0.0104086 -0.0255483,0 -0.0917845,0.00756986 -0.0842146,0.0179784 -0.0766448,0.0274407 -0.0690749,0.0378493 -0.00756986,0.00567739 -0.0681287,0.0624513 -0.0416342,0.0738061 -0.0132472,0.0842146 0,0.0132472 0.0170322,0.0851609 0.0425804,0.0728599 0.0681287,0.0615051 0.012301,0.00851609 0.06529,0.0331181 0.077591,0.0236558 0.0889458,0.0141935 0.100301,0.00473116 -0.794835,0.0340643 z "/>
<path fill="rgb(42,41,42)" stroke="rgb(42,41,42)" d="M 2.13187,3.61212 l 0.0747523,-0.0331181 0.0804297,-0.0255483 0.0842146,-0.0179784 0.089892,-0.0104086 0.093677,-0.00378493 0.0028387,0 0.0879996,0.00189246 0.0870533,0.00756986 0.0851609,0.0113548 0.0832684,0.0160859 0.0813759,0.0208171 0.0804297,0.0255483 -0.931092,0.00756986 z "/>
<path fill="rgb(187,30,16)" stroke="rgb(187,30,16)" d="M 0.2,3.75 l -0.2,0 0.0142699,-0.326834 0.042701,-0.324347 0.0708072,-0.319391 0.0983745,-0.312004 0.125193,-0.302243 0.151059,-0.290182 0.175775,-0.275912 0.199154,-0.259542 0.221016,-0.241197 0.241197,-0.221016 0.259542,-0.199154 0.275912,-0.175775 0.290182,-0.151059 0.302243,-0.125193 0.312004,-0.0983745 0.319391,-0.0708072 0.324347,-0.042701 0.326834,-0.0142699 0.326834,0.0142699 0.324347,0.042701 0.319391,0.0708072 0.312004,0.0983745 0.302243,0.125193 0.290182,0.151059 0.275912,0.175775 0.259542,0.199154 0.241197,0.221016 0.221016,0.241197 0.199154,0.259542 0.175775,0.275912 0.151059,0.290182 0.125193,0.302243 0.0983745,0.312004 0.0708072,0.319391 0.042701,0.324347 0.0142699,0.326834 -0.2,0 -0.0135088,-0.309403 -0.0404237,-0.307048 -0.0670308,-0.302357 -0.0931279,-0.295364 -0.118516,-0.286123 -0.143002,-0.274705 -0.1664,-0.261196 -0.188532,-0.2457 -0.209229,-0.228333 -0.228333,-0.209229 -0.2457,-0.188532 -0.261196,-0.1664 -0.274705,-0.143002 -0.286123,-0.118516 -0.295364,-0.0931279 -0.302357,-0.0670308 -0.307048,-0.0404237 -0.309403,-0.0135088 -0.309403,0.0135088 -0.307048,0.0404237 -0.302357,0.0670308 -0.295364,0.0931279 -0.286123,0.118516 -0.274705,0.143002 -0.261196,0.1664 -0.2457,0.188532 -0.228333,0.209229 -0.209229,0.228333 -0.188532,0.2457 -0.1664,0.261196 -0.143002,0.274705 -0.118516,0.286123 -0.0931279,0.295364 -0.0670308,0.302357 -0.0404237,0.307048 -0.0135088,0.309403 z "/>
<path fill="rgb(187,30,16)" stroke="rgb(187,30,16)" d="M 0.2,3.75 l 0.0135088,0.309403 0.0404237,0.307048 0.0670308,0.302357 0.0931279,0.295364 0.118516,0.286123 0.143002,0.274705 0.1664,0.261196 0.188532,0.2457 0.209229,0.228333 0.228333,0.209229 0.2457,0.188532 0.261196,0.1664 0.274705,0.143002 0.286123,0.118516 0.295364,0.0931279 0.302357,0.0670308 0.307048,0.0404237 0.309403,0.0135088 0.309403,-0.0135088 0.307048,-0.0404237 0.302357,-0.0670308 0.295364,-0.0931279 0.286123,-0.118516 0.274705,-0.143002 0.261196,-0.1664 0.2457,-0.188532 0.228333,-0.209229 0.209229,-0.228333 0.188532,-0.2457 0.1664,-0.261196 0.143002,-0.274705 0.118516,-0.286123 0.0931279,-0.295364 0.0670308,-0.302357 0.0404237,-0.307048 0.0135088,-0.309403 0.2,0 -0.0142699,0.326834 -0.042701,0.324347 -0.0708072,0.319391 -0.0983745,0.312004 -0.125193,0.302243 -0.151059,0.290182 -0.175775,0.275912 -0.199154,0.259542 -0.221016,0.241197 -0.241197,0.221016 -0.259542,0.199154 -0.275912,0.175775 -0.290182,0.151059 -0.302243,0.125193 -0.312004,0.0983745 -0.319391,0.0708072 -0.324347,0.042701 -0.326834,0.0142699 -0.326834,-0.0142699 -0.324347,-0.042701 -0.319391,-0.0708072 -0.312004,-0.0983745 -0.302243,-0.125193 -0.290182,-0.151059 -0.275912,-0.175775 -0.259542,-0.199154 -0.241197,-0.221016 -0.221016,-0.241197 -0.199154,-0.259542 -0.175775,-0.275912 -0.151059,-0.290182 -0.125193,-0.302243 -0.0983745,-0.312004 -0.0708072,-0.319391 -0.042701,-0.324347 -0.0142699,-0.326834 0.2,0 z "/>
<path fill="rgb(187,30,16)" stroke="rgb(187,30,16)" d="M 6.4,3.75 l -0.0100841,-0.230963 -0.0301754,-0.229205 -0.0500371,-0.225703 -0.069518,-0.220483 -0.0884698,-0.213585 -0.106748,-0.205062 -0.124214,-0.194978 -0.140735,-0.18341 -0.156185,-0.170446 -0.170446,-0.156185 -0.18341,-0.140735 -0.194978,-0.124214 -0.205062,-0.106748 -0.213585,-0.0884698 -0.220483,-0.069518 -0.225703,-0.0500371 -0.229205,-0.0301754 -0.230963,-0.0100841 -0.230963,0.0100841 -0.229205,0.0301754 -0.225703,0.0500371 -0.220483,0.069518 -0.213585,0.0884698 -0.205062,0.106748 -0.194978,0.124214 -0.18341,0.140735 -0.170446,0.156185 -0.156185,0.170446 -0.140735,0.18341 -0.124214,0.194978 -0.106748,0.205062 -0.0884698,0.213585 -0.069518,0.220483 -0.0500371,0.225703 -0.0301754,0.229205 -0.0100841,0.230963 -0.7,0 0.0127478,-0.291972 0.0381463,-0.28975 0.0632545,-0.285322 0.0878812,-0.278724 0.111839,-0.270004 0.134946,-0.259229 0.157026,-0.246481 0.17791,-0.231857 0.197441,-0.215469 0.215469,-0.197441 0.231857,-0.17791 0.246481,-0.157026 0.259229,-0.134946 0.270004,-0.111839 0.278724,-0.0878812 0.285322,-0.0632545 0.28975,-0.0381463 0.291972,-0.0127478 0.291972,0.0127478 0.28975,0.0381463 0.285322,0.0632545 0.278724,0.0878812 0.270004,0.111839 0.259229,0.134946 0.246481,0.157026 0.231857,0.17791 0.215469,0.197441 0.197441,0.215469 0.17791,0.231857 0.157026,0.246481 0.134946,0.259229 0.111839,0.270004 0.0878812,0.278724 0.0632545,0.285322 0.0381463,0.28975 0.0127478,0.291972 -0.7,0 z "/>
<path fill="rgb(187,30,16)" stroke="rgb(187,30,16)" d="M 6.4,3.75 l 0.7,0 -0.0127478,0.291972 -0.0381463,0.28975 -0.0632545,0.285322 -0.0878812,0.278724 -0.111839,0.270004 -0.134946,0.259229 -0.157026,0.246481 -0.17791,0.231857 -0.197441,0.215469 -0.215469,0.197441 -0.231857,0.17791 -0.246481,0.157026 -0.259229,0.134946 -0.270004,0.111839 -0.278724,0.0878812 -0.285322,0.0632545 -0.28975,0.0381463 -0.291972,0.0127478 -0.291972,-0.0127478 -0.28975,-0.0381463 -0.285322,-0.0632545 -0.278724,-0.0878812 -0.270004,-0.111839 -0.259229,-0.134946 -0.246481,-0.157026 -0.231857,-0.17791 -0.215469,-0.197441 -0.197441,-0.215469 -0.17791,-0.231857 -0.157026,-0.246481 -0.134946,-0.259229 -0.111839,-0.270004 -0.0878812,-0.278724 -0.0632545,-0.285322 -0.0381463,-0.28975 -0.0127478,-0.291972 0.7,0 0.0100841,0.230963 0.0301754,0.229205 0.0500371,0.225703 0.069518,0.220483 0.0884698,0.213585 0.106748,0.205062 0.124214,0.194978 0.140735,0.18341 0.156185,0.170446 0.170446,0.156185 0.18341,0.140735 0.194978,0.124214 0.205062,0.106748 0.213585,0.0884698 0.220483,0.069518 0.225703,0.0500371 0.229205,0.0301754 0.230963,0.0100841 0.230963,-0.0100841 0.229205,-0.0301754 0.225703,-0.0500371 0.220483,-0.069518 0.213585,-0.0884698 0.205062,-0.106748 0.194978,-0.124214 0.18341,-0.140735 0.170446,-0.156185 0.156185,-0.170446 0.140735,-0.18341 0.124214,-0.194978 0.106748,-0.205062 0.0884698,-0.213585 0.069518,-0.220483 0.0500371,-0.225703 0.0301754,-0.229205 0.0100841,-0.230963 z "/>
</g></g></svg>
