<?xml version="1.0" encoding="UTF-8" standalone="no"?>
<!DOCTYPE svg PUBLIC "-//W3C//DTD SVG 1.1//EN" "http://www.w3.org/Graphics/SVG/1.1/DTD/svg11-flat.dtd"
[

]>
<svg xmlns="http://www.w3.org/2000/svg"  viewBox="-0.05625 -0.05625 4.6125 7.6125"><g fill="none" stroke="black" stroke-width="0.0125" transform="translate(0,7.5) scale(1, -1)">
<g id="Output" >
<path fill="rgb(0,91,140)" stroke="rgb(0,91,140)" d="M 3.8,7.1 l -1.55,0 -0.000503413,8.88178e-16 2.17248e-12,-0.363647 1.28164,2.57425e-05 0.0194943,-0.000850749 0.019346,-0.00254655 0.0190504,-0.00422298 0.0186099,-0.00586727 0.0180277,-0.0074669 0.0173083,-0.0090097 0.0164572,-0.0104839 0.0154809,-0.0118784 0.0143867,-0.0131824 0.013183,-0.0143861 0.011879,-0.0154804 0.0104846,-0.0164568 0.0090104,-0.017308 0.00746762,-0.0180274 0.00586801,-0.0186097 0.00422374,-0.0190503 0.00254733,-0.0193459 0.000851532,-0.0194943 5.1667e-05,-2.57234 0,-1.72209e-11 -0.000849899,-0.0194949 -0.00254581,-0.0193467 -0.00422235,-0.0190512 -0.00586675,-0.0186107 -0.00746649,-0.0180285 -0.00900941,-0.0173091 -0.0104838,-0.016458 -0.0118783,-0.0154816 -0.0131825,-0.0143874 -0.0143863,-0.0131837 -0.0154806,-0.0118797 -0.0164571,-0.0104852 -0.0173083,-0.00901091 -0.0180279,-0.00746805 -0.0186101,-0.00586835 -0.0190508,-0.00422399 -0.0193465,-0.00254748 -0.0194949,-0.000851582 -1.2817,-2.57437e-05 1.98082e-11,-3.31666 0.000503413,-1.77636e-15 1.55,-4.44089e-16 0.0261467,0.00114159 0.0259477,0.00341608 0.0255513,0.00566458 0.0249603,0.00786996 0.0241794,0.0100155 0.0232145,0.0120847 0.0220729,0.014062 0.0207634,0.0159323 0.0192958,0.0176813 0.0176813,0.0192958 0.0159323,0.0207634 0.014062,0.0220729 0.0120847,0.0232145 0.0100155,0.0241794 0.00786996,0.0249603 0.00566458,0.0255513 0.00341608,0.0259477 0.00114159,0.0261467 0,6.1 -0.00114159,0.0261467 -0.00341608,0.0259477 -0.00566458,0.0255513 -0.00786996,0.0249603 -0.0100155,0.0241794 -0.0120847,0.0232145 -0.014062,0.0220729 -0.0159323,0.0207634 -0.0176813,0.0192958 -0.0192958,0.0176813 -0.0207634,0.0159323 -0.0220729,0.014062 -0.0232145,0.0120847 -0.0241794,0.0100155 -0.0249603,0.00786996 -0.0255513,0.00566458 -0.0259477,0.00341608 -0.0261467,0.00114159 z "/>
<path fill="rgb(0,91,140)" stroke="rgb(0,91,140)" d="M 0.7,0.4 l 1.5495,1.33227e-15 -1.98082e-11,3.31666 -1.29062,-2.59229e-05 -2.69096e-12,4.44089e-16 -0.0194958,0.000849938 -0.0193476,0.00254593 -0.019052,0.00422254 -0.0186115,0.00586702 -0.0180293,0.00746684 -0.0173099,0.00900983 -0.0164588,0.0104842 -0.0154823,0.0118789 -0.0143881,0.0131831 -0.0131843,0.0143869 -0.0118802,0.0154813 -0.0104857,0.0164579 -0.00901132,0.0173091 -0.00746839,0.0180287 -0.00586862,0.018611 -0.00422419,0.0190517 -0.0025476,0.0193474 -0.000851621,0.0194958 -5.1667e-05,2.57234 0.000850749,0.0194943 0.00254655,0.019346 0.00422298,0.0190504 0.00586727,0.0186099 0.0074669,0.0180277 0.0090097,0.0173083 0.0104839,0.0164572 0.0118784,0.0154809 0.0131824,0.0143867 0.0143861,0.013183 0.0154804,0.011879 0.0164568,0.0104846 0.017308,0.0090104 0.0180274,0.00746762 0.0186097,0.00586801 0.0190503,0.00422374 0.0193459,0.00254733 0.0194943,0.000851532 1.2907,2.59245e-05 -2.17248e-12,0.363647 -1.5495,-8.88178e-16 -0.0261467,-0.00114159 -0.0259477,-0.00341608 -0.0255513,-0.00566458 -0.0249603,-0.00786996 -0.0241794,-0.0100155 -0.0232145,-0.0120847 -0.0220729,-0.014062 -0.0207634,-0.0159323 -0.0192958,-0.0176813 -0.0176813,-0.0192958 -0.0159323,-0.0207634 -0.014062,-0.0220729 -0.0120847,-0.0232145 -0.0100155,-0.0241794 -0.00786996,-0.0249603 -0.00566458,-0.0255513 -0.00341608,-0.0259477 -0.00114159,-0.0261467 -4.44089e-16,-6.1 0.00114159,-0.0261467 0.00341608,-0.0259477 0.00566458,-0.0255513 0.00786996,-0.0249603 0.0100155,-0.0241794 0.0120847,-0.0232145 0.014062,-0.0220729 0.0159323,-0.0207634 0.0176813,-0.0192958 0.0192958,-0.0176813 0.0207634,-0.0159323 0.0220729,-0.014062 0.0232145,-0.0120847 0.0241794,-0.0100155 0.0249603,-0.00786996 0.0255513,-0.00566458 0.0259477,-0.00341608 0.0261467,-0.00114159 z "/>
<path fill="rgb(241,240,234)" stroke="rgb(241,240,234)" d="M 3.2495,4.74089 l -0.268587,0.402867 -0.100653,0.00222737 8.62321e-06,-0.429323 0.369232,0 0,0.024228 z M 3.2495,5.17774 l -0.022298,-0.00923428 -0.0310815,-0.00979745 0.0533795,-0.0804006 0,0.0994323 z M 2.2495,4.71666 l 0.431692,0 -2.00856e-05,1 -0.431672,0 1.16396e-12,-0.194893 0.0290533,5.83553e-07 4.13343e-06,-0.205791 0.205785,4.13333e-06 3.81894e-06,-0.190133 -0.205785,-4.13333e-06 4.13343e-06,-0.205791 -0.0290654,-5.83796e-07 1.21458e-12,-0.203393 z "/>
<path fill="rgb(241,240,234)" stroke="rgb(241,240,234)" d="M 2.2495,3.71666 l 1,2.00856e-05 0,0.29525 -1,-2.00856e-05 1.76303e-12,-0.29525 z M 2.68119,4.71666 l -0.431692,0 2.43228e-12,-0.407255 1,2.00856e-05 0,0.407235 -0.369232,0 1.93473e-06,-0.0963242 -0.199077,-3.99858e-06 -1.93481e-06,0.0963282 z "/>
<path fill="rgb(241,240,234)" stroke="rgb(241,240,234)" d="M 3.4896,4.71666 l 0.0639425,-0.0963106 -0.223683,-4.4928e-06 -0.0642123,0.0963151 -0.0161526,0 0,-0.407235 0.306293,6.15209e-06 -0.00103172,-0.0252074 -0.00316485,-0.0250292 -0.00527519,-0.0246708 -0.00734755,-0.0241348 -0.00936702,-0.0234251 -0.0113191,-0.0225467 -0.0131896,-0.0215061 -0.0149652,-0.0203106 -0.0166331,-0.0189689 -0.0181812,-0.0174906 -0.0195984,-0.0158864 -0.0208746,-0.0141679 -0.0220005,-0.0123473 -0.022968,-0.0104379 -0.0237701,-0.00845331 -0.0244011,-0.00640788 -0.0248565,-0.00431632 -0.0251329,-0.00219369 -0.0222167,-4.46236e-07 0,-0.29525 0.281699,5.6581e-06 0.0194949,0.000851582 0.0193465,0.00254748 0.0190508,0.00422399 0.0186101,0.00586835 0.0180279,0.00746805 0.0173083,0.00901091 0.0164571,0.0104852 0.0154806,0.0118797 0.0143863,0.0131837 0.0131825,0.0143874 0.0118783,0.0154816 0.0104838,0.016458 0.00900941,0.0173091 0.00746649,0.0180285 0.00586675,0.0186107 0.00422235,0.0190512 0.00254581,0.0193467 0.000849899,0.0194949 0,1.72209e-11 -1.55922e-05,0.776287 -0.265247,0 z "/>
<path fill="rgb(241,240,234)" stroke="rgb(241,240,234)" d="M 3.2495,6.71666 l 0.373185,0 -0.0150454,0.00623166 -0.0186099,0.00586727 -0.0190504,0.00422298 -0.019346,0.00254655 -0.0194943,0.000850749 -0.281639,-5.65688e-06 0,-0.0197135 z "/>
<path fill="rgb(241,240,234)" stroke="rgb(241,240,234)" d="M 3.75483,5.71666 l -1.59892e-05,0.796051 -0.000851532,0.0194943 -0.00254733,0.0193459 -0.00422374,0.0190503 -0.00586801,0.0186097 -0.00746762,0.0180274 -0.0090104,0.017308 -0.0104846,0.0164568 -0.011879,0.0154804 -0.013183,0.0143861 -0.0143867,0.0131824 -0.0154809,0.0118784 -0.0164572,0.0104839 -0.0173083,0.0090097 -0.00298231,0.00123524 -0.373185,0 0,-0.275437 0.0221679,4.45256e-07 0.025133,-0.00219269 0.0248567,-0.00431533 0.0244014,-0.0064069 0.0237704,-0.00845235 0.0229684,-0.010437 0.022001,-0.0123464 0.0208752,-0.014167 0.0195991,-0.0158856 0.0181819,-0.0174899 0.0166338,-0.0189682 0.014966,-0.02031 0.0131905,-0.0215055 0.01132,-0.0225463 0.00936796,-0.0234247 0.00734852,-0.0241345 0.00527618,-0.0246706 0.00316585,-0.0250291 0.00103274,-0.0252073 -0.306256,-6.15135e-06 0,-0.282395 0.00783282,-0.00324439 0.028907,-0.0150479 0.0274854,-0.0175101 0.0258547,-0.019839 0.0240271,-0.022017 0.0220167,-0.0240274 0.0198387,-0.0258549 0.0109145,-0.0171328 0.338454,0 z "/>
<path fill="rgb(241,240,234)" stroke="rgb(241,240,234)" d="M 3.26565,4.71666 l -0.0161526,0.024228 0,-0.024228 0.0161526,0 z M 3.75485,4.71666 l -2.00856e-05,1 -0.338454,0 0.00659531,-0.0103529 0.0150475,-0.0289071 0.0124707,-0.0301086 0.00979906,-0.031081 0.00705279,-0.0318168 0.00425285,-0.0323104 0.00142053,-0.0325581 -0.0014226,-0.032558 -0.0042549,-0.0323102 -0.00705481,-0.0318163 -0.00980104,-0.0310804 -0.0124727,-0.0301079 -0.0150494,-0.0289062 -0.0175115,-0.0274845 -0.0198404,-0.0258536 -0.0220182,-0.024026 -0.0240285,-0.0220155 -0.0258559,-0.0198374 -0.0274865,-0.0175083 -0.0289079,-0.015046 -0.00781131,-0.00323491 0,-0.0994323 0.240105,-0.361648 0.265247,0 z "/>
<path fill="rgb(241,240,234)" stroke="rgb(241,240,234)" d="M 2.2495,6.73635 l 1.17684e-13,-0.0196935 1,0 0,0.0197135 -1,-2.00856e-05 z "/>
<path fill="rgb(241,240,234)" stroke="rgb(241,240,234)" d="M 3.2495,6.14373 l -1,-2.00856e-05 2.5504e-12,-0.427048 0.431672,0 -3.54347e-06,0.176418 0.41829,8.40161e-06 0.0325581,-0.00142091 0.0323104,-0.00425322 0.0318167,-0.00705316 0.0310809,-0.00979942 0.0222757,-0.00922671 0,0.282395 z M 3.2495,6.44122 l 0,0.275437 -1,0 1.64535e-12,-0.275457 1,2.00856e-05 z "/>
<path fill="rgb(241,240,234)" stroke="rgb(241,240,234)" d="M 1.73513,4.71663 l 0,-0.407239 0.514368,1.03314e-05 -2.43228e-12,0.407229 -0.514368,0 z M 1.73513,4.0119 l 0,-0.29525 0.514368,1.03314e-05 -1.76303e-12,0.29525 -0.514368,-1.03314e-05 z "/>
<path fill="rgb(241,240,234)" stroke="rgb(241,240,234)" d="M 2.2495,4.71663 l -1.21458e-12,0.203419 -0.163308,-3.28013e-06 -4.13343e-06,0.205791 -0.205791,-4.13343e-06 -3.81894e-06,0.190133 0.205791,4.13343e-06 -4.13343e-06,0.205791 0.16332,3.28038e-06 -1.16351e-12,0.194867 -0.514368,0 0,-0.0430471 0.0108988,-0.0263106 0.00980004,-0.0310796 0.00705398,-0.0318154 0.00425424,-0.0323092 0.00142212,-0.032557 -0.00142082,-0.032557 -0.00425294,-0.0323093 -0.0070527,-0.0318157 -0.00979879,-0.03108 -0.0109039,-0.0263259 0,-0.648793 0.514368,0 z "/>
<path fill="rgb(241,240,234)" stroke="rgb(241,240,234)" d="M 0.976734,4.71663 l -0.241569,0 1.55929e-05,-0.776322 0.000851621,-0.0194958 0.0025476,-0.0193474 0.00422419,-0.0190517 0.00586862,-0.018611 0.00746839,-0.0180287 0.00901132,-0.0173091 0.0104857,-0.0164579 0.0118802,-0.0154813 0.0131843,-0.0143869 0.0143881,-0.0131831 0.0154823,-0.0118789 0.0164588,-0.0104842 0.0173099,-0.00900983 0.0180293,-0.00746684 0.0186115,-0.00586702 0.019052,-0.00422254 0.0193476,-0.00254593 0.0194958,-0.000849938 2.69096e-12,-4.44089e-16 0.776251,1.55915e-05 0,0.29525 -0.474303,-9.52667e-06 -0.0265874,0.00241629 -0.026264,0.00478845 -0.0257294,0.0071221 -0.0249879,0.00939848 -0.0240455,0.0115993 -0.0229096,0.0137068 -0.0215896,0.0157041 -0.0200959,0.0175751 -0.0184406,0.0193047 -0.016637,0.0208791 -0.0146996,0.0222856 -0.012644,0.0235129 -0.0104867,0.0245511 -0.00824512,0.0253918 -0.00593719,0.0260284 -0.00358152,0.0264556 -0.00119705,0.0266701 1.84385e-09,3.31336e-05 5.53156e-09,3.31336e-05 9.21927e-09,3.31336e-05 0.758381,1.52326e-05 0,0.407239 -0.559318,0 1.93479e-06,-0.0963273 -0.199077,-3.99858e-06 -1.93487e-06,0.0963313 z "/>
<path fill="rgb(241,240,234)" stroke="rgb(241,240,234)" d="M 1.73513,6.71663 l 0.514368,0 -1.17684e-13,0.0197194 -0.514368,-1.03314e-05 0,-0.0197091 z "/>
<path fill="rgb(241,240,234)" stroke="rgb(241,240,234)" d="M 1.73513,6.71663 l 0,-0.275441 0.514368,1.03314e-05 -1.64535e-12,0.275431 -0.514368,0 z M 1.73513,5.71663 l 0.514368,0 -2.55085e-12,0.427074 -0.514368,-1.03314e-05 0,-0.427064 z "/>
<path fill="rgb(241,240,234)" stroke="rgb(241,240,234)" d="M 0.867322,6.71663 l 0.867807,0 0,0.0197091 -0.776332,-1.55931e-05 -0.0194943,-0.000851532 -0.0193459,-0.00254733 -0.0190503,-0.00422374 -0.0186097,-0.00586801 -0.0149741,-0.00620284 z "/>
<path fill="rgb(241,240,234)" stroke="rgb(241,240,234)" d="M 1.73513,6.44119 l 0,0.275441 -0.867807,0 -0.00305328,-0.00126478 -0.017308,-0.0090104 -0.0164568,-0.0104846 -0.0154804,-0.011879 -0.0143861,-0.013183 -0.0131824,-0.0143867 -0.0118784,-0.0154809 -0.0104839,-0.0164572 -0.0090097,-0.0173083 -0.0074669,-0.0180277 -0.00586727,-0.0186099 -0.00422298,-0.0190504 -0.00254655,-0.019346 -0.000850749,-0.0194943 1.59885e-05,-0.796017 0.241569,0 -3.54341e-06,0.176415 0.41829,8.40161e-06 0.032557,-0.00142082 0.0323093,-0.00425294 0.0318157,-0.0070527 0.03108,-0.00979879 0.0301077,-0.0124703 0.0289062,-0.0150469 0.0274848,-0.017509 0.0258542,-0.0198378 0.0240269,-0.0220157 0.0220166,-0.024026 0.0198389,-0.0258534 0.0109194,-0.0171393 0.0232114,0 0,0.427064 -0.758418,-1.52333e-05 0.0011876,0.0266764 0.00357319,0.0264627 0.00593003,0.026036 0.00823917,0.0253999 0.010482,0.0245595 0.0126405,0.0235214 0.0146973,0.0222941 0.0166359,0.0208875 0.0184406,0.0193128 0.020097,0.0175827 0.0215917,0.0157111 0.0229126,0.0137132 0.0240492,0.0116049 0.0249924,0.00940325 0.0257344,0.00712596 0.0262694,0.00479133 0.0265931,0.00241815 0.474352,9.52765e-06 z "/>
<path fill="rgb(241,240,234)" stroke="rgb(241,240,234)" d="M 1.73513,5.36543 l -0.00156635,-0.00378173 -0.0150469,-0.0289062 -0.017509,-0.0274848 -0.0198378,-0.0258542 -0.0220157,-0.0240269 -0.024026,-0.0220166 -0.0258534,-0.0198389 -0.0274841,-0.0175101 -0.0289056,-0.0150481 -0.0301072,-0.0124715 -0.0310796,-0.00980004 -0.0318154,-0.00705398 -0.0323092,-0.00425424 -0.032557,-0.00142212 -0.219213,-4.40304e-06 8.62314e-06,-0.429319 0.559318,0 0,0.648793 z M 1.71192,5.71663 l 0.00659067,-0.0103448 0.0150481,-0.0289056 0.0015727,-0.00379661 0,0.0430471 -0.0232114,0 z M 0.735165,4.71663 l 0.241569,0 -2.00856e-05,1 -0.241569,0 2.00856e-05,-1 z "/>
<path fill="rgb(241,240,234)" stroke="rgb(241,240,234)" d="M 1.38382,5.3361 l -0.20802,-4.17821e-06 -7.36797e-06,0.366828 0.20802,4.17821e-06 0.0159856,-0.000697625 0.015864,-0.00208821 0.0156216,-0.0034629 0.0152604,-0.00481123 0.014783,-0.00612295 0.014193,-0.00738807 0.0134951,-0.00859696 0.0126945,-0.00974043 0.0117973,-0.0108098 0.0108102,-0.0117968 0.00974094,-0.0126941 0.00859751,-0.0134948 0.00738864,-0.0141928 0.00612355,-0.0147827 0.00481185,-0.0152602 0.00346353,-0.0156215 0.00208884,-0.0158639 0.000698267,-0.0159856 -0.000697625,-0.0159856 -0.00208821,-0.015864 -0.0034629,-0.0156216 -0.00481123,-0.0152604 -0.00612295,-0.014783 -0.00738807,-0.014193 -0.00859696,-0.0134951 -0.00974043,-0.0126945 -0.0108098,-0.0117973 -0.0117968,-0.0108102 -0.0126941,-0.00974094 -0.0134948,-0.00859751 -0.0141928,-0.00738864 -0.0147827,-0.00612355 -0.0152602,-0.00481185 -0.0156215,-0.00346353 -0.0158639,-0.00208885 -0.0159856,-0.000698267 z "/>
<path fill="rgb(241,240,234)" stroke="rgb(241,240,234)" d="M 1.38382,5.3361 l 0.0159856,0.000698267 0.0158639,0.00208884 0.0156215,0.00346353 0.0152602,0.00481185 0.0147827,0.00612355 0.0141928,0.00738864 0.0134948,0.00859751 0.0126941,0.00974094 0.0117968,0.0108102 0.0108098,0.0117973 0.00974043,0.0126945 0.00859696,0.0134951 0.00738807,0.0141931 0.00612295,0.014783 0.00481123,0.0152604 0.0034629,0.0156216 0.00208821,0.015864 0.000697625,0.0159856 -0.000698267,0.0159856 -0.00208884,0.0158639 -0.00346353,0.0156215 -0.00481185,0.0152602 -0.00612355,0.0147827 -0.00738864,0.0141928 -0.00859751,0.0134948 -0.00974094,0.0126941 -0.0108102,0.0117968 -0.0117973,0.0108098 -0.0126945,0.00974043 -0.0134951,0.00859696 -0.0141931,0.00738807 -0.014783,0.00612295 -0.0152604,0.00481123 -0.0156216,0.0034629 -0.015864,0.00208821 -0.0159856,0.000697625 0.0159856,-0.000697625 0.015864,-0.00208821 0.0156216,-0.0034629 0.0152604,-0.00481123 0.014783,-0.00612295 0.014193,-0.00738807 0.0134951,-0.00859696 0.0126945,-0.00974043 0.0117973,-0.0108098 0.0108102,-0.0117968 0.00974094,-0.0126941 0.00859751,-0.0134948 0.00738864,-0.0141928 0.00612355,-0.0147827 0.00481185,-0.0152602 0.00346353,-0.0156215 0.00208884,-0.0158639 0.000698267,-0.0159856 -0.000697625,-0.0159856 -0.00208821,-0.015864 -0.0034629,-0.0156216 -0.00481123,-0.0152604 -0.00612295,-0.014783 -0.00738807,-0.014193 -0.00859696,-0.0134951 -0.00974043,-0.0126945 -0.0108098,-0.0117973 -0.0117968,-0.0108102 -0.0126941,-0.00974094 -0.0134948,-0.00859751 -0.0141928,-0.00738864 -0.0147827,-0.00612355 -0.0152602,-0.00481185 -0.0156215,-0.00346353 -0.0158639,-0.00208885 -0.0159856,-0.000698267 z "/>
<path fill="rgb(241,240,234)" stroke="rgb(241,240,234)" d="M 3.08827,5.70295 l 0.0159856,-0.000697625 0.015864,-0.00208821 0.0156216,-0.0034629 0.0152604,-0.00481123 0.014783,-0.00612295 0.014193,-0.00738807 0.0134951,-0.00859696 0.0126945,-0.00974043 0.0117973,-0.0108098 0.0108102,-0.0117968 0.00974094,-0.0126941 0.00859751,-0.0134948 0.00738864,-0.0141928 0.00612355,-0.0147827 0.00481185,-0.0152602 0.00346353,-0.0156215 0.00208884,-0.0158639 0.000698267,-0.0159856 -0.000697625,-0.0159856 -0.00208821,-0.015864 -0.0034629,-0.0156216 -0.00481123,-0.0152604 -0.00612295,-0.014783 -0.00738807,-0.014193 -0.00859696,-0.0134951 -0.00974043,-0.0126945 -0.0108098,-0.0117973 -0.0117968,-0.0108102 -0.0126941,-0.00974094 -0.0134948,-0.00859751 -0.0141928,-0.00738864 -0.0147827,-0.00612355 -0.0152602,-0.00481185 -0.0156215,-0.00346353 -0.0158639,-0.00208885 -0.0159856,-0.000698267 0.0159856,0.000698267 0.0158639,0.00208884 0.0156215,0.00346353 0.0152602,0.00481185 0.0147827,0.00612355 0.0141928,0.00738864 0.0134948,0.00859751 0.0126941,0.00974094 0.0117968,0.0108102 0.0108098,0.0117973 0.00974043,0.0126945 0.00859696,0.0134951 0.00738807,0.0141931 0.00612295,0.014783 0.00481123,0.0152604 0.0034629,0.0156216 0.00208821,0.015864 0.000697625,0.0159856 -0.000698267,0.0159856 -0.00208884,0.0158639 -0.00346353,0.0156215 -0.00481185,0.0152602 -0.00612355,0.0147827 -0.00738864,0.0141928 -0.00859751,0.0134948 -0.00974094,0.0126941 -0.0108102,0.0117968 -0.0117973,0.0108098 -0.0126945,0.00974043 -0.0134951,0.00859696 -0.0141931,0.00738807 -0.014783,0.00612295 -0.0152604,0.00481123 -0.0156216,0.0034629 -0.015864,0.00208821 -0.0159856,0.000697625 z "/>
<path fill="rgb(241,240,234)" stroke="rgb(241,240,234)" d="M 2.88025,5.33612 l -7.36797e-06,0.366828 0.20802,4.17821e-06 0.0159856,-0.000697625 0.015864,-0.00208821 0.0156216,-0.0034629 0.0152604,-0.00481123 0.014783,-0.00612295 0.014193,-0.00738807 0.0134951,-0.00859696 0.0126945,-0.00974043 0.0117973,-0.0108098 0.0108102,-0.0117968 0.00974094,-0.0126941 0.00859751,-0.0134948 0.00738864,-0.0141928 0.00612355,-0.0147827 0.00481185,-0.0152602 0.00346353,-0.0156215 0.00208884,-0.0158639 0.000698267,-0.0159856 -0.000697625,-0.0159856 -0.00208821,-0.015864 -0.0034629,-0.0156216 -0.00481123,-0.0152604 -0.00612295,-0.014783 -0.00738807,-0.014193 -0.00859696,-0.0134951 -0.00974043,-0.0126945 -0.0108098,-0.0117973 -0.0117968,-0.0108102 -0.0126941,-0.00974094 -0.0134948,-0.00859751 -0.0141928,-0.00738864 -0.0147827,-0.00612355 -0.0152602,-0.00481185 -0.0156215,-0.00346353 -0.0158639,-0.00208885 -0.0159856,-0.000698267 -0.20802,-4.17821e-06 z "/>
<path fill="rgb(0,91,140)" stroke="rgb(0,91,140)" d="M 3.8,7.5 l -1.55,0 -4.44089e-16,-0.2 1.55,0 0.0435779,-0.00190265 0.0432462,-0.00569347 0.0425854,-0.00944096 0.0416005,-0.0131166 0.0402991,-0.0166924 0.0386909,-0.0201412 0.0367882,-0.0234367 0.0346056,-0.0265538 0.0321596,-0.0294688 0.0294688,-0.0321596 0.0265538,-0.0346056 0.0234367,-0.0367882 0.0201412,-0.0386909 0.0166924,-0.0402991 0.0131166,-0.0416005 0.00944096,-0.0425854 0.00569347,-0.0432462 0.00190265,-0.0435779 0,-6.1 -0.00190265,-0.0435779 -0.00569347,-0.0432462 -0.00944096,-0.0425854 -0.0131166,-0.0416005 -0.0166924,-0.0402991 -0.0201412,-0.0386909 -0.0234367,-0.0367882 -0.0265538,-0.0346056 -0.0294688,-0.0321596 -0.0321596,-0.0294688 -0.0346056,-0.0265538 -0.0367882,-0.0234367 -0.0386909,-0.0201412 -0.0402991,-0.0166924 -0.0416005,-0.0131166 -0.0425854,-0.00944096 -0.0432462,-0.00569347 -0.0435779,-0.00190265 -1.55,4.44089e-16 0,-0.2 1.55,-4.44089e-16 0.061009,0.00266371 0.0605447,0.00797086 0.0596196,0.0132173 0.0582408,0.0183632 0.0564187,0.0233694 0.0541672,0.0281977 0.0515035,0.0328114 0.0484478,0.0371753 0.0450234,0.0412564 0.0412564,0.0450234 0.0371753,0.0484478 0.0328114,0.0515035 0.0281977,0.0541672 0.0233694,0.0564187 0.0183632,0.0582408 0.0132173,0.0596196 0.00797086,0.0605447 0.00266371,0.061009 8.88178e-16,6.1 -0.00266371,0.061009 -0.00797086,0.0605447 -0.0132173,0.0596196 -0.0183632,0.0582408 -0.0233694,0.0564187 -0.0281977,0.0541672 -0.0328114,0.0515035 -0.0371753,0.0484478 -0.0412564,0.0450234 -0.0450234,0.0412564 -0.0484478,0.0371753 -0.0515035,0.0328114 -0.0541672,0.0281977 -0.0564187,0.0233694 -0.0582408,0.0183632 -0.0596196,0.0132173 -0.0605447,0.00797086 -0.061009,0.00266371 z "/>
<path fill="rgb(0,91,140)" stroke="rgb(0,91,140)" d="M 0,6.8 l 0,-6.1 0.00266371,-0.061009 0.00797086,-0.0605447 0.0132173,-0.0596196 0.0183632,-0.0582408 0.0233694,-0.0564187 0.0281977,-0.0541672 0.0328114,-0.0515035 0.0371753,-0.0484478 0.0412564,-0.0450234 0.0450234,-0.0412564 0.0484478,-0.0371753 0.0515035,-0.0328114 0.0541672,-0.0281977 0.0564187,-0.0233694 0.0582408,-0.0183632 0.0596196,-0.0132173 0.0605447,-0.00797086 0.061009,-0.00266371 1.55,-8.88178e-16 0,0.2 -1.55,4.44089e-16 -0.0435779,0.00190265 -0.0432462,0.00569347 -0.0425854,0.00944096 -0.0416005,0.0131166 -0.0402991,0.0166924 -0.0386909,0.0201412 -0.0367882,0.0234367 -0.0346056,0.0265538 -0.0321596,0.0294688 -0.0294688,0.0321596 -0.0265538,0.0346056 -0.0234367,0.0367882 -0.0201412,0.0386909 -0.0166924,0.0402991 -0.0131166,0.0416005 -0.00944096,0.0425854 -0.00569347,0.0432462 -0.00190265,0.0435779 0,6.1 0.00190265,0.0435779 0.00569347,0.0432462 0.00944096,0.0425854 0.0131166,0.0416005 0.0166924,0.0402991 0.0201412,0.0386909 0.0234367,0.0367882 0.0265538,0.0346056 0.0294688,0.0321596 0.0321596,0.0294688 0.0346056,0.0265538 0.0367882,0.0234367 0.0386909,0.0201412 0.0402991,0.0166924 0.0416005,0.0131166 0.0425854,0.00944096 0.0432462,0.00569347 0.0435779,0.00190265 1.55,0 4.44089e-16,0.2 -1.55,0 -0.061009,-0.00266371 -0.0605447,-0.00797086 -0.0596196,-0.0132173 -0.0582408,-0.0183632 -0.0564187,-0.0233694 -0.0541672,-0.0281977 -0.0515035,-0.0328114 -0.0484478,-0.0371753 -0.0450234,-0.0412564 -0.0412564,-0.0450234 -0.0371753,-0.0484478 -0.0328114,-0.0515035 -0.0281977,-0.0541672 -0.0233694,-0.0564187 -0.0183632,-0.0582408 -0.0132173,-0.0596196 -0.00797086,-0.0605447 -0.00266371,-0.061009 z "/>
<path fill="rgb(241,240,234)" stroke="rgb(241,240,234)" d="M 3.8,7.1 l 0.0261467,-0.00114159 0.0259477,-0.00341608 0.0255513,-0.00566458 0.0249603,-0.00786996 0.0241794,-0.0100155 0.0232145,-0.0120847 0.0220729,-0.014062 0.0207634,-0.0159323 0.0192958,-0.0176813 0.0176813,-0.0192958 0.0159323,-0.0207634 0.014062,-0.0220729 0.0120847,-0.0232145 0.0100155,-0.0241794 0.00786996,-0.0249603 0.00566458,-0.0255513 0.00341608,-0.0259477 0.00114159,-0.0261467 0,-6.1 -0.00114159,-0.0261467 -0.00341608,-0.0259477 -0.00566458,-0.0255513 -0.00786996,-0.0249603 -0.0100155,-0.0241794 -0.0120847,-0.0232145 -0.014062,-0.0220729 -0.0159323,-0.0207634 -0.0176813,-0.0192958 -0.0192958,-0.0176813 -0.0207634,-0.0159323 -0.0220729,-0.014062 -0.0232145,-0.0120847 -0.0241794,-0.0100155 -0.0249603,-0.00786996 -0.0255513,-0.00566458 -0.0259477,-0.00341608 -0.0261467,-0.00114159 -1.55,4.44089e-16 0,-0.2 1.55,-4.44089e-16 0.0435779,0.00190265 0.0432462,0.00569347 0.0425854,0.00944096 0.0416005,0.0131166 0.0402991,0.0166924 0.0386909,0.0201412 0.0367882,0.0234367 0.0346056,0.0265538 0.0321596,0.0294688 0.0294688,0.0321596 0.0265538,0.0346056 0.0234367,0.0367882 0.0201412,0.0386909 0.0166924,0.0402991 0.0131166,0.0416005 0.00944096,0.0425854 0.00569347,0.0432462 0.00190265,0.0435779 0,6.1 -0.00190265,0.0435779 -0.00569347,0.0432462 -0.00944096,0.0425854 -0.0131166,0.0416005 -0.0166924,0.0402991 -0.0201412,0.0386909 -0.0234367,0.0367882 -0.0265538,0.0346056 -0.0294688,0.0321596 -0.0321596,0.0294688 -0.0346056,0.0265538 -0.0367882,0.0234367 -0.0386909,0.0201412 -0.0402991,0.0166924 -0.0416005,0.0131166 -0.0425854,0.00944096 -0.0432462,0.00569347 -0.0435779,0.00190265 -1.55,0 0,-0.2 1.55,0 z "/>
<path fill="rgb(241,240,234)" stroke="rgb(241,240,234)" d="M 0.7,0.4 l -0.0261467,0.00114159 -0.0259477,0.00341608 -0.0255513,0.00566458 -0.0249603,0.00786996 -0.0241794,0.0100155 -0.0232145,0.0120847 -0.0220729,0.014062 -0.0207634,0.0159323 -0.0192958,0.0176813 -0.0176813,0.0192958 -0.0159323,0.0207634 -0.014062,0.0220729 -0.0120847,0.0232145 -0.0100155,0.0241794 -0.00786996,0.0249603 -0.00566458,0.0255513 -0.00341608,0.0259477 -0.00114159,0.0261467 4.44089e-16,6.1 0.00114159,0.0261467 0.00341608,0.0259477 0.00566458,0.0255513 0.00786996,0.0249603 0.0100155,0.0241794 0.0120847,0.0232145 0.014062,0.0220729 0.0159323,0.0207634 0.0176813,0.0192958 0.0192958,0.0176813 0.0207634,0.0159323 0.0220729,0.014062 0.0232145,0.0120847 0.0241794,0.0100155 0.0249603,0.00786996 0.0255513,0.00566458 0.0259477,0.00341608 0.0261467,0.00114159 1.5495,8.88178e-16 0.000503413,-8.88178e-16 0,0.2 -1.55,0 -0.0435779,-0.00190265 -0.0432462,-0.00569347 -0.0425854,-0.00944096 -0.0416005,-0.0131166 -0.0402991,-0.0166924 -0.0386909,-0.0201412 -0.0367882,-0.0234367 -0.0346056,-0.0265538 -0.0321596,-0.0294688 -0.0294688,-0.0321596 -0.0265538,-0.0346056 -0.0234367,-0.0367882 -0.0201412,-0.0386909 -0.0166924,-0.0402991 -0.0131166,-0.0416005 -0.00944096,-0.0425854 -0.00569347,-0.0432462 -0.00190265,-0.0435779 0,-6.1 0.00190265,-0.0435779 0.00569347,-0.0432462 0.00944096,-0.0425854 0.0131166,-0.0416005 0.0166924,-0.0402991 0.0201412,-0.0386909 0.0234367,-0.0367882 0.0265538,-0.0346056 0.0294688,-0.0321596 0.0321596,-0.0294688 0.0346056,-0.0265538 0.0367882,-0.0234367 0.0386909,-0.0201412 0.0402991,-0.0166924 0.0416005,-0.0131166 0.0425854,-0.00944096 0.0432462,-0.00569347 0.0435779,-0.00190265 1.55,-4.44089e-16 0,0.2 -0.000503413,1.77636e-15 -1.5495,-1.33227e-15 z "/>
<path fill="rgb(42,41,42)" stroke="rgb(42,41,42)" d="M 2.88025,5.62033 l -0.199077,0 2.00856e-05,-1 0.199077,3.99858e-06 -1.05579e-05,0.525647 0.100653,-0.00222737 0.348952,-0.52341 0.223683,4.4928e-06 -0.357427,0.538359 0.0310815,0.00979745 0.0301093,0.0124692 0.0289079,0.015046 0.0274865,0.0175083 0.0258559,0.0198374 0.0240285,0.0220155 0.0220182,0.024026 0.0198404,0.0258536 0.0175115,0.0274845 0.0150494,0.0289062 0.0124727,0.0301079 0.00980104,0.0310804 0.00705481,0.0318163 0.0042549,0.0323102 0.0014226,0.032558 -0.00142053,0.0325581 -0.00425285,0.0323104 -0.00705279,0.0318168 -0.0012994,0.00412147 -0.217665,0 0.00578636,-0.00908237 0.00738864,-0.0141928 0.00612355,-0.0147827 0.00481185,-0.0152602 0.00346353,-0.0156215 0.00208884,-0.0158639 0.000698267,-0.0159856 -0.000697625,-0.0159856 -0.00208821,-0.015864 -0.0034629,-0.0156216 -0.00481123,-0.0152604 -0.00612295,-0.014783 -0.00738807,-0.0141931 -0.00859696,-0.0134951 -0.00974043,-0.0126945 -0.0108098,-0.0117973 -0.0117968,-0.0108102 -0.0126941,-0.00974094 -0.0134948,-0.00859751 -0.0141928,-0.00738864 -0.0147827,-0.00612355 -0.0152602,-0.00481185 -0.0156215,-0.00346353 -0.0158639,-0.00208884 -0.0159856,-0.000698267 -0.20802,-4.17821e-06 -5.70855e-06,0.284211 z "/>
<path fill="rgb(42,41,42)" stroke="rgb(42,41,42)" d="M 2.68117,5.62033 l 0.199077,0 -1.65942e-06,0.0826173 0.20802,4.17821e-06 0.0159856,-0.000697625 0.015864,-0.00208821 0.0156216,-0.0034629 0.0152604,-0.00481123 0.014783,-0.00612295 0.0141931,-0.00738807 0.0134951,-0.00859696 0.0126945,-0.00974043 0.0117973,-0.0108098 0.0108102,-0.0117968 0.00974094,-0.0126941 0.00281114,-0.00441241 0.217665,0 -0.00849966,0.0269595 -0.0124707,0.0301086 -0.0150475,0.0289071 -0.0175098,0.0274856 -0.0198387,0.0258549 -0.0220167,0.0240274 -0.0240271,0.022017 -0.0258547,0.019839 -0.0274854,0.0175101 -0.028907,0.0150479 -0.0301085,0.0124711 -0.0310809,0.00979942 -0.0318167,0.00705316 -0.0323104,0.00425322 -0.0325581,0.00142091 -0.41829,-8.40161e-06 5.47828e-06,-0.272747 z "/>
<path fill="rgb(42,41,42)" stroke="rgb(42,41,42)" d="M 0.976716,5.6203 l 0.199077,0 -1.65942e-06,0.0826173 0.20802,4.17821e-06 0.0159856,-0.000697625 0.015864,-0.00208821 0.0156216,-0.0034629 0.0152604,-0.00481123 0.014783,-0.00612295 0.0141931,-0.00738807 0.0134951,-0.00859696 0.0126945,-0.00974043 0.0117973,-0.0108098 0.0108102,-0.0117968 0.00974094,-0.0126941 0.00281114,-0.00441241 0.217665,0 -0.00850536,0.0269737 -0.0124715,0.0301072 -0.0150481,0.0289056 -0.0175101,0.0274841 -0.0198389,0.0258534 -0.0220166,0.024026 -0.0240269,0.0220157 -0.0258542,0.0198378 -0.0274848,0.017509 -0.0289062,0.0150469 -0.0301077,0.0124703 -0.03108,0.00979879 -0.0318157,0.0070527 -0.0323093,0.00425294 -0.032557,0.00142082 -0.41829,-8.40161e-06 5.47828e-06,-0.272747 z "/>
<path fill="rgb(42,41,42)" stroke="rgb(42,41,42)" d="M 1.17579,5.6203 l -0.199077,0 2.00856e-05,-1 0.199077,3.99858e-06 -1.05579e-05,0.525647 0.219213,4.40304e-06 0.032557,0.00142212 0.0323092,0.00425424 0.0318154,0.00705398 0.0310796,0.00980004 0.0301072,0.0124715 0.0289056,0.0150481 0.0274841,0.0175101 0.0258534,0.0198389 0.024026,0.0220166 0.0220157,0.0240269 0.0198378,0.0258542 0.017509,0.0274848 0.0150469,0.0289062 0.0124703,0.0301077 0.00979879,0.03108 0.0070527,0.0318157 0.00425294,0.0323093 0.00142082,0.032557 -0.00142212,0.032557 -0.00425424,0.0323092 -0.00705398,0.0318154 -0.00129467,0.00410589 -0.217665,0 0.00578636,-0.00908237 0.00738864,-0.0141928 0.00612355,-0.0147827 0.00481185,-0.0152602 0.00346353,-0.0156215 0.00208884,-0.0158639 0.000698267,-0.0159856 -0.000697625,-0.0159856 -0.00208821,-0.015864 -0.0034629,-0.0156216 -0.00481123,-0.0152604 -0.00612295,-0.014783 -0.00738807,-0.0141931 -0.00859696,-0.0134951 -0.00974043,-0.0126945 -0.0108098,-0.0117973 -0.0117968,-0.0108102 -0.0126941,-0.00974094 -0.0134948,-0.00859751 -0.0141928,-0.00738864 -0.0147827,-0.00612355 -0.0152602,-0.00481185 -0.0156215,-0.00346353 -0.0158639,-0.00208884 -0.0159856,-0.000698267 -0.20802,-4.17821e-06 -5.70855e-06,0.284211 z "/>
<path fill="rgb(42,41,42)" stroke="rgb(42,41,42)" d="M 2.48434,5.31598 l -0.205785,-4.13333e-06 -4.13343e-06,0.205791 -0.0290533,-5.83553e-07 -0.16332,-3.28038e-06 4.13343e-06,-0.205791 -0.205791,-4.13343e-06 3.81894e-06,-0.190133 0.205791,4.13343e-06 4.13343e-06,-0.205791 0.163308,3.28013e-06 0.0290654,5.83796e-07 -4.13343e-06,0.205791 0.205785,4.13333e-06 -3.81894e-06,0.190133 z "/>
<path fill="rgb(42,41,42)" stroke="rgb(42,41,42)" d="M 3.55579,4.30943 l -1.30629,-2.62377e-05 -1.27275,-2.55639e-05 -9.21927e-09,-3.31336e-05 -5.53156e-09,-3.31336e-05 -1.84385e-09,-3.31336e-05 0.00119705,-0.0266701 0.00358152,-0.0264556 0.00593719,-0.0260284 0.00824512,-0.0253918 0.0104867,-0.0245511 0.012644,-0.0235129 0.0146996,-0.0222856 0.016637,-0.0208791 0.0184406,-0.0193047 0.0200959,-0.0175751 0.0215896,-0.0157041 0.0229096,-0.0137068 0.0240455,-0.0115993 0.0249879,-0.00939848 0.0257294,-0.0071221 0.026264,-0.00478845 0.0265874,-0.00241629 0.988671,1.98581e-05 1.02222,2.05318e-05 0.0251329,0.00219369 0.0248565,0.00431632 0.0244011,0.00640788 0.0237701,0.00845331 0.022968,0.0104379 0.0220005,0.0123473 0.0208746,0.0141679 0.0195984,0.0158864 0.0181812,0.0174906 0.0166331,0.0189689 0.0149652,0.0203106 0.0131896,0.0215061 0.0113191,0.0225467 0.00936702,0.0234251 0.00734755,0.0241348 0.00527519,0.0246708 0.00316485,0.0250292 0.00103172,0.0252074 z "/>
<path fill="rgb(42,41,42)" stroke="rgb(42,41,42)" d="M 3.27166,6.44122 l -1.02217,-2.05309e-05 -0.98872,-1.9859e-05 -0.0265931,-0.00241815 -0.0262694,-0.00479133 -0.0257344,-0.00712596 -0.0249924,-0.00940325 -0.0240492,-0.0116049 -0.0229126,-0.0137132 -0.0215917,-0.0157111 -0.020097,-0.0175827 -0.0184406,-0.0193128 -0.0166359,-0.0208875 -0.0146973,-0.0222941 -0.0126405,-0.0235214 -0.010482,-0.0245595 -0.00823917,-0.0253999 -0.00593003,-0.026036 -0.00357319,-0.0264627 -0.0011876,-0.0266764 1.27279,2.55647e-05 1.30626,2.6237e-05 -0.00103274,0.0252073 -0.00316585,0.0250291 -0.00527618,0.0246706 -0.00734852,0.0241345 -0.00936796,0.0234247 -0.01132,0.0225463 -0.0131905,0.0215055 -0.014966,0.02031 -0.0166338,0.0189682 -0.0181819,0.0174899 -0.0195991,0.0158856 -0.0208752,0.014167 -0.022001,0.0123464 -0.0229684,0.010437 -0.0237704,0.00845235 -0.0244014,0.0064069 -0.0248567,0.00431533 -0.025133,0.00219269 z "/>
</g></g></svg>
