<?xml version="1.0" encoding="UTF-8" standalone="no"?>
<!DOCTYPE svg PUBLIC "-//W3C//DTD SVG 1.1//EN" "http://www.w3.org/Graphics/SVG/1.1/DTD/svg11-flat.dtd"
[

]>
<svg xmlns="http://www.w3.org/2000/svg"  viewBox="-0.09375 -0.09375 7.6875 7.6875"><g fill="none" stroke="black" stroke-width="0.0125" transform="translate(0,7.5) scale(1, -1)">
<g id="Output" >
<path fill="rgb(0,91,140)" stroke="rgb(0,91,140)" d="M 5.93894,3.98456 l 0.0139812,0.000861964 0.0140033,-0.000354762 0.0139196,-0.00156881 0.0137309,-0.00277102 0.0134386,-0.00395232 0.0130449,-0.00510378 0.0125527,-0.00621673 0.0119657,-0.00728275 0.0112885,-0.00829382 0.010526,-0.00924228 0.00968416,-0.010121 0.00876918,-0.0109233 0.00778802,-0.0116432 0.00674808,-0.0122752 0.00565721,-0.0128146 0.00452365,-0.0132572 0.00335594,-0.0135998 0.00216291,-0.0138398 0.000953546,-0.0139753 0,-0.321407 -0.000677635,-0.0155204 -0.00202775,-0.0154023 -0.00336243,-0.0151669 -0.00467152,-0.0148162 -0.00594506,-0.0143526 -0.00717335,-0.0137799 -0.00834705,-0.0131022 -0.00945722,-0.0123249 -0.0104954,-0.0114537 -0.0114537,-0.0104954 -0.0123249,-0.00945722 -0.0131022,-0.00834705 -0.0137799,-0.00717335 -0.0143526,-0.00594506 -0.0148162,-0.00467152 -0.0151669,-0.00336243 -0.0154023,-0.00202775 -0.0155204,-0.000677635 -5.89082e-06,9.74349e-11 -5.89082e-06,2.92305e-10 -5.89082e-06,4.87175e-10 -0.760095,0 -1.73348e-10,0 -0.0131833,0.00057945 -0.0130816,0.00173388 -0.012879,0.00287494 -0.0125771,0.00399382 -0.0121782,0.00508191 -0.0116854,0.00613079 -0.0111024,0.00713239 -0.0104338,0.00807898 -0.00968475,0.00896326 -0.00886098,0.00977841 -0.00796888,0.0105181 -0.00701532,0.0111768 -0.00600764,0.0117492 -0.00495364,0.0122309 -0.00386142,0.0126184 -0.00273943,0.0129085 -0.0015963,0.0130991 -0.000440865,0.0131886 0.000717971,0.0131765 0.00187127,0.0130626 0.0521187,0.321407 0.00318331,0.0154589 0.00447888,0.0151345 0.00574239,0.0147016 0.00696477,0.0141635 0.00813728,0.0135239 0.00925153,0.0127876 0.0102995,0.0119596 0.0112738,0.011046 0.0121673,0.0100533 0.0129737,0.00898865 0.0136872,0.00785961 0.0143027,0.00667429 0.0148157,0.00544118 0.0152227,0.00416911 0.0155207,0.00286718 0.0157075,0.00154472 0.681908,0 z "/>
<path fill="rgb(0,91,140)" stroke="rgb(0,91,140)" d="M 1.80851,4.39283 l 0.611957,0.0554296 0.613484,0.0346639 0.614306,0.0138584 0.90925,0.90925 -0.601068,0.0394956 -0.602319,-0.00737882 -0.59992,-0.0542085 -0.593886,-0.10071 -0.351806,-0.890401 z "/>
<path fill="rgb(0,91,140)" stroke="rgb(0,91,140)" d="M 5.56402,4.71549 l -0.283156,-0.283156 0.136984,-0.0121293 0.136888,-0.0131678 0.136784,-0.0142055 -0.127498,0.322659 z "/>
<path fill="rgb(0,91,140)" stroke="rgb(0,91,140)" d="M 2.41658,3.82819 l -0.00318331,0.0154589 -0.00447888,0.0151345 -0.00574239,0.0147016 -0.00696477,0.0141635 -0.00813728,0.0135239 -0.00925153,0.0127876 -0.0102995,0.0119596 -0.0112738,0.011046 -0.0121673,0.0100533 -0.0129737,0.00898865 -0.0136872,0.00785961 -0.0143027,0.00667429 -0.0148157,0.00544118 -0.0152227,0.00416911 -0.0155207,0.00286718 -0.0157075,0.00154472 -0.681908,0 -0.0139812,0.000861964 -0.0140033,-0.000354762 -0.0139196,-0.00156881 -0.0137309,-0.00277102 -0.0134386,-0.00395232 -0.0130449,-0.00510378 -0.0125527,-0.00621673 -0.0119657,-0.00728275 -0.0112885,-0.00829382 -0.010526,-0.00924228 -0.00968416,-0.010121 -0.00876918,-0.0109233 -0.00778802,-0.0116432 -0.00674808,-0.0122752 -0.00565721,-0.0128146 -0.00452365,-0.0132572 -0.00335594,-0.0135998 -0.00216291,-0.0138398 -0.000953546,-0.0139753 0,-0.321407 0.000677635,-0.0155204 0.00202775,-0.0154023 0.00336243,-0.0151669 0.00467152,-0.0148162 0.00594506,-0.0143526 0.00717335,-0.0137799 0.00834705,-0.0131022 0.00945722,-0.0123249 0.0104954,-0.0114537 0.0114537,-0.0104954 0.0123249,-0.00945722 0.0131022,-0.00834705 0.0137799,-0.00717335 0.0143526,-0.00594506 0.0148162,-0.00467152 0.0151669,-0.00336243 0.0154023,-0.00202775 0.0155204,-0.000677635 5.89082e-06,9.74349e-11 5.89082e-06,2.92305e-10 5.89082e-06,4.87175e-10 0.760095,0 0.0131833,0.00057945 0.0130816,0.00173388 0.012879,0.00287494 0.0125771,0.00399382 0.0121782,0.00508191 0.0116854,0.00613079 0.0111024,0.00713239 0.0104338,0.00807898 0.00968475,0.00896326 0.00886098,0.00977841 0.00796888,0.0105181 0.00701532,0.0111768 0.00600764,0.0117492 0.00495364,0.0122309 0.00386142,0.0126184 0.00273943,0.0129085 0.0015963,0.0130991 0.000440865,0.0131886 -0.000717971,0.0131765 -0.00187127,0.0130626 -0.0521187,0.321407 z "/>
<path fill="rgb(0,91,140)" stroke="rgb(0,91,140)" d="M 0.4,3.75 l 1.33227e-15,-2.50147 1.0871,1.0871 0,0.263377 -0.134653,8.88178e-16 -0.204145,0.325755 0,0.825239 -0.748303,0 z "/>
<path fill="rgb(0,91,140)" stroke="rgb(0,91,140)" d="M 6.35169,2.92476 l -0.204127,-0.325755 -0.134636,0 0,-0.803536 -0.000297525,-0.00681443 -0.000890309,-0.00676257 -0.00147632,-0.00665924 -0.00205109,-0.00650523 -0.00261026,-0.00630171 -0.00314955,-0.00605023 -0.00366488,-0.00575271 -0.00415232,-0.0054114 -0.00460815,-0.00502891 -0.00502891,-0.00460815 -0.0054114,-0.00415232 -0.00575271,-0.00366488 -0.00605023,-0.00314955 -0.00630171,-0.00261026 -0.00650523,-0.00205109 -0.00665924,-0.00147632 -0.00676257,-0.000890309 -0.00681443,-0.000297525 -0.516874,0 -0.00681443,0.000297525 -0.00676257,0.000890309 -0.00665924,0.00147632 -0.00650523,0.00205109 -0.00630171,0.00261026 -0.00605023,0.00314955 -0.00575271,0.00366488 -0.0054114,0.00415232 -0.00502891,0.00460815 -0.00460815,0.00502891 -0.00415232,0.0054114 -0.00366488,0.00575271 -0.00314955,0.00605023 -0.00261026,0.00630171 -0.00205109,0.00650523 -0.00147632,0.00665924 -0.000890309,0.00676257 -0.000297525,0.00681443 0,0.803536 -1.89214,4.44089e-16 -2.19901,-2.19901 5.55147,0 0.0261467,0.00114159 0.0259477,0.00341608 0.0255513,0.00566458 0.0249603,0.00786996 0.0241794,0.0100155 0.0232145,0.0120847 0.0220729,0.014062 0.0207634,0.0159323 0.0192958,0.0176813 0.0176813,0.0192958 0.0159323,0.0207634 0.014062,0.0220729 0.0120847,0.0232145 0.0100155,0.0241794 0.00786996,0.0249603 0.00566458,0.0255513 0.00341608,0.0259477 0.00114159,0.0261467 0,3.05 -0.748312,0 -1.77636e-15,-0.825239 z "/>
<path fill="rgb(0,91,140)" stroke="rgb(0,91,140)" d="M 7.1,6.25147 l -1.25385,-1.25385 0.253625,-0.609135 0.251916,-0.299687 0,-0.338798 0.748312,0 -8.88178e-16,2.50147 z "/>
<path fill="rgb(0,91,140)" stroke="rgb(0,91,140)" d="M 0.4,3.75 l 0.748303,0 0,0.338798 0.251916,0.299687 0.508179,1.2205 0.981922,0.136134 0.990634,0.0367245 0.989307,-0.0630568 1.38121,1.38121 -5.55147,-2.66454e-15 -0.0261467,-0.00114159 -0.0259477,-0.00341608 -0.0255513,-0.00566458 -0.0249603,-0.00786996 -0.0241794,-0.0100155 -0.0232145,-0.0120847 -0.0220729,-0.014062 -0.0207634,-0.0159323 -0.0192958,-0.0176813 -0.0176813,-0.0192958 -0.0159323,-0.0207634 -0.014062,-0.0220729 -0.0120847,-0.0232145 -0.0100155,-0.0241794 -0.00786996,-0.0249603 -0.00566458,-0.0255513 -0.00341608,-0.0259477 -0.00114159,-0.0261467 4.44089e-16,-3.05 z "/>
<path fill="rgb(0,91,140)" stroke="rgb(0,91,140)" d="M 0.2,3.75 l -0.2,0 4.44089e-16,-3.05 0.00266371,-0.061009 0.00797086,-0.0605447 0.0132173,-0.0596196 0.0183632,-0.0582408 0.0233694,-0.0564187 0.0281977,-0.0541672 0.0328114,-0.0515035 0.0371753,-0.0484478 0.0412564,-0.0450234 0.0450234,-0.0412564 0.0484478,-0.0371753 0.0515035,-0.0328114 0.0541672,-0.0281977 0.0564187,-0.0233694 0.0582408,-0.0183632 0.0596196,-0.0132173 0.0605447,-0.00797086 0.061009,-0.00266371 6.1,-8.88178e-16 0.061009,0.00266371 0.0605447,0.00797086 0.0596196,0.0132173 0.0582408,0.0183632 0.0564187,0.0233694 0.0541672,0.0281977 0.0515035,0.0328114 0.0484478,0.0371753 0.0450234,0.0412564 0.0412564,0.0450234 0.0371753,0.0484478 0.0328114,0.0515035 0.0281977,0.0541672 0.0233694,0.0564187 0.0183632,0.0582408 0.0132173,0.0596196 0.00797086,0.0605447 0.00266371,0.061009 -1.77636e-15,3.05 -0.2,-8.88178e-16 0,-3.05 -0.00190265,-0.0435779 -0.00569347,-0.0432462 -0.00944096,-0.0425854 -0.0131166,-0.0416005 -0.0166924,-0.0402991 -0.0201412,-0.0386909 -0.0234367,-0.0367882 -0.0265538,-0.0346056 -0.0294688,-0.0321596 -0.0321596,-0.0294688 -0.0346056,-0.0265538 -0.0367882,-0.0234367 -0.0386909,-0.0201412 -0.0402991,-0.0166924 -0.0416005,-0.0131166 -0.0425854,-0.00944096 -0.0432462,-0.00569347 -0.0435779,-0.00190265 -6.1,0 -0.0435779,0.00190265 -0.0432462,0.00569347 -0.0425854,0.00944096 -0.0416005,0.0131166 -0.0402991,0.0166924 -0.0386909,0.0201412 -0.0367882,0.0234367 -0.0346056,0.0265538 -0.0321596,0.0294688 -0.0294688,0.0321596 -0.0265538,0.0346056 -0.0234367,0.0367882 -0.0201412,0.0386909 -0.0166924,0.0402991 -0.0131166,0.0416005 -0.00944096,0.0425854 -0.00569347,0.0432462 -0.00190265,0.0435779 -4.44089e-16,3.05 z "/>
<path fill="rgb(0,91,140)" stroke="rgb(0,91,140)" d="M 6.8,7.3 l 0.0435779,-0.00190265 0.0432462,-0.00569347 0.0425854,-0.00944096 0.0416005,-0.0131166 0.0402991,-0.0166924 0.0386909,-0.0201412 0.0367882,-0.0234367 0.0346056,-0.0265538 0.0321596,-0.0294688 0.0294688,-0.0321596 0.0265538,-0.0346056 0.0234367,-0.0367882 0.0201412,-0.0386909 0.0166924,-0.0402991 0.0131166,-0.0416005 0.00944096,-0.0425854 0.00569347,-0.0432462 0.00190265,-0.0435779 8.88178e-16,-3.05 0.2,8.88178e-16 1.77636e-15,3.05 -0.00266371,0.061009 -0.00797086,0.0605447 -0.0132173,0.0596196 -0.0183632,0.0582408 -0.0233694,0.0564187 -0.0281977,0.0541672 -0.0328114,0.0515035 -0.0371753,0.0484478 -0.0412564,0.0450234 -0.0450234,0.0412564 -0.0484478,0.0371753 -0.0515035,0.0328114 -0.0541672,0.0281977 -0.0564187,0.0233694 -0.0582408,0.0183632 -0.0596196,0.0132173 -0.0605447,0.00797086 -0.061009,0.00266371 -6.1,-8.88178e-16 -0.061009,-0.00266371 -0.0605447,-0.00797086 -0.0596196,-0.0132173 -0.0582408,-0.0183632 -0.0564187,-0.0233694 -0.0541672,-0.0281977 -0.0515035,-0.0328114 -0.0484478,-0.0371753 -0.0450234,-0.0412564 -0.0412564,-0.0450234 -0.0371753,-0.0484478 -0.0328114,-0.0515035 -0.0281977,-0.0541672 -0.0233694,-0.0564187 -0.0183632,-0.0582408 -0.0132173,-0.0596196 -0.00797086,-0.0605447 -0.00266371,-0.061009 4.44089e-16,-3.05 0.2,0 -4.44089e-16,3.05 0.00190265,0.0435779 0.00569347,0.0432462 0.00944096,0.0425854 0.0131166,0.0416005 0.0166924,0.0402991 0.0201412,0.0386909 0.0234367,0.0367882 0.0265538,0.0346056 0.0294688,0.0321596 0.0321596,0.0294688 0.0346056,0.0265538 0.0367882,0.0234367 0.0386909,0.0201412 0.0402991,0.0166924 0.0416005,0.0131166 0.0425854,0.00944096 0.0432462,0.00569347 0.0435779,0.00190265 6.1,8.88178e-16 z "/>
<path fill="rgb(241,240,234)" stroke="rgb(241,240,234)" d="M 5.06532,3.71728 l -0.499508,0 -0.118277,-0.118277 0,-0.881723 1,0 0,0.61142 -0.268689,3.09977e-10 -1.73348e-10,0 -0.0131833,0.00057945 -0.0130816,0.00173388 -0.012879,0.00287494 -0.0125771,0.00399382 -0.0121782,0.00508191 -0.0116854,0.00613079 -0.0111024,0.00713239 -0.0104338,0.00807898 -0.00968475,0.00896326 -0.00886098,0.00977841 -0.00796888,0.0105181 -0.00701532,0.0111768 -0.00600764,0.0117492 -0.00495364,0.0122309 -0.00386142,0.0126184 -0.00273943,0.0129085 -0.0015963,0.0130991 -0.000440865,0.0131886 0.000717971,0.0131765 0.00187127,0.0130626 0.0341348,0.210504 z "/>
<path fill="rgb(241,240,234)" stroke="rgb(241,240,234)" d="M 5.56581,4.71728 l 0.39706,0 -0.116723,0.280336 -0.280336,-0.280336 z "/>
<path fill="rgb(241,240,234)" stroke="rgb(241,240,234)" d="M 5.28086,4.43233 l 0.136984,-0.0121293 0.136888,-0.0131678 0.136784,-0.0142055 -8.88178e-16,7.99361e-15 -0.136784,0.0142055 -0.136888,0.0131678 -0.136984,0.0121293 -7.10543e-15,-1.06581e-14 z "/>
<path fill="rgb(241,240,234)" stroke="rgb(241,240,234)" d="M 4.44753,2.59901 l 0,0.118277 -0.881723,0 -0.118277,-0.118277 1,-4.44089e-16 z "/>
<path fill="rgb(241,240,234)" stroke="rgb(241,240,234)" d="M 6.22168,2.71728 l 0.130011,0.207478 1.77636e-15,0.792522 -0.234654,0 0,-0.210504 -0.000677635,-0.0155204 -0.00202775,-0.0154023 -0.00336243,-0.0151669 -0.00467152,-0.0148162 -0.00594506,-0.0143526 -0.00717335,-0.0137799 -0.00834705,-0.0131022 -0.00945722,-0.0123249 -0.0104954,-0.0114537 -0.0114537,-0.0104954 -0.0123249,-0.00945722 -0.0131022,-0.00834705 -0.0137799,-0.00717335 -0.0143526,-0.00594506 -0.0148162,-0.00467152 -0.0151669,-0.00336243 -0.0154023,-0.00202775 -0.0155204,-0.000677635 -0.491423,5.66938e-10 0,-0.61142 0.774142,0 z "/>
<path fill="rgb(241,240,234)" stroke="rgb(241,240,234)" d="M 6.35169,3.71728 l 0,0.0327169 0,0.338798 -0.251916,0.299687 -0.136901,0.328798 -0.39706,0 -0.00179168,-0.00179168 0.127498,-0.322659 8.88178e-16,-7.99361e-15 -0.136784,0.0142055 -0.1072,0.010312 0,-0.432789 0.491406,0 0.0139812,0.000861964 0.0140033,-0.000354762 0.0139196,-0.00156881 0.0137309,-0.00277102 0.0134386,-0.00395232 0.0130449,-0.00510378 0.0125527,-0.00621673 0.0119657,-0.00728275 0.0112885,-0.00829382 0.010526,-0.00924228 0.00968416,-0.010121 0.00876918,-0.0109233 0.00778802,-0.0116432 0.00674808,-0.0122752 0.00565721,-0.0128146 0.00452365,-0.0132572 0.00335594,-0.0135998 0.00216291,-0.0138398 0.000953546,-0.0139753 0,-0.110904 0.234654,0 z "/>
<path fill="rgb(241,240,234)" stroke="rgb(241,240,234)" d="M 3.56581,2.71728 l 0.881723,0 0,0.881723 -0.881723,-0.881723 z "/>
<path fill="rgb(241,240,234)" stroke="rgb(241,240,234)" d="M 4.56581,3.71728 l 0.499508,0 0.0179839,0.110904 0.00318331,0.0154589 0.00447888,0.0151345 0.00574239,0.0147016 0.00696477,0.0141635 0.00813728,0.0135239 0.00925153,0.0127876 0.0102995,0.0119596 0.0112738,0.011046 0.0121673,0.0100533 0.0129737,0.00898865 0.0136872,0.00785961 0.0143027,0.00667429 0.0148157,0.00544118 0.0152227,0.00416911 0.0155207,0.00286718 0.0157075,0.00154472 0.190503,0 0,0.432789 -0.0296876,0.00285577 -0.136984,0.0121293 -0.715052,-0.715052 z "/>
<path fill="rgb(241,240,234)" stroke="rgb(241,240,234)" d="M 5.44753,1.71728 l 0,1 -1,0 0,-0.118277 0.892143,0 0,-0.803536 0.000297525,-0.00681443 0.000890309,-0.00676257 0.00147632,-0.00665924 0.00205109,-0.00650523 0.00261026,-0.00630171 0.00314955,-0.00605023 0.00366488,-0.00575271 0.00415232,-0.0054114 0.00460815,-0.00502891 0.00502891,-0.00460815 0.0054114,-0.00415232 0.00575271,-0.00366488 0.00605023,-0.00314955 0.00630171,-0.00261026 0.00650523,-0.00205109 0.00665924,-0.00147632 0.00676257,-0.000890309 0.00681443,-0.000297525 0.0296702,0 z "/>
<path fill="rgb(241,240,234)" stroke="rgb(241,240,234)" d="M 5.93474,1.71728 l 0.00681443,0.000297525 0.00676257,0.000890309 0.00665924,0.00147632 0.00650523,0.00205109 0.00630171,0.00261026 0.00605023,0.00314955 0.00575271,0.00366488 0.0054114,0.00415232 0.00502891,0.00460815 0.00460815,0.00502891 0.00415232,0.0054114 0.00366488,0.00575271 0.00314955,0.00605023 0.00261026,0.00630171 0.00205109,0.00650523 0.00147632,0.00665924 0.000890309,0.00676257 0.000297525,0.00681443 0,0.803536 0.134636,0 0.0741157,0.118277 -0.774142,0 0,-1 0.487204,0 z "/>
<path fill="rgb(241,240,234)" stroke="rgb(241,240,234)" d="M 3.1483,4.33563 l 0.338798,0 0.161155,0.161155 -0.499953,-0.0112786 0,-0.149876 z "/>
<path fill="rgb(241,240,234)" stroke="rgb(241,240,234)" d="M 4.1483,5.76481 l -0.267349,0.0170404 -0.732651,-0.0271606 0,-0.335132 0.205816,0.0185975 0.602319,0.00737882 0.191865,-0.0126072 0,0.331883 z "/>
<path fill="rgb(241,240,234)" stroke="rgb(241,240,234)" d="M 4.1483,5.76481 l 0,-0.331883 0.409203,-0.0268883 0.312755,0.312755 -0.721958,0.0460165 z "/>
<path fill="rgb(241,240,234)" stroke="rgb(241,240,234)" d="M 1.1483,4.0888 l 0,-0.338798 0,-0.414371 0.363807,0 -0.0120932,0.00381297 -0.0143526,0.00594506 -0.0137799,0.00717335 -0.0131022,0.00834705 -0.0123249,0.00945722 -0.0114537,0.0104954 -0.0104954,0.0114537 -0.00945722,0.0123249 -0.00834705,0.0131022 -0.00717335,0.0137799 -0.00594506,0.0143526 -0.00467152,0.0148162 -0.00336243,0.0151669 -0.00202775,0.0154023 -0.000677635,0.0155204 0,0.321407 0.000953546,0.0139753 0.00216291,0.0138398 0.00335594,0.0135998 0.00452365,0.0132572 0.00565721,0.0128146 0.00674808,0.0122752 0.00778802,0.0116432 0.00876918,0.0109233 0.00968416,0.010121 0.010526,0.00924228 0.0112885,0.00829382 0.0119657,0.00728275 0.0125527,0.00621673 0.0130449,0.00510378 0.0134386,0.00395232 0.0137309,0.00277102 0.0139196,0.00156881 0.0140033,0.000354762 0.0139812,-0.000861964 0.587363,0 0,0.351069 -0.792514,0 -0.207486,-0.246831 z "/>
<path fill="rgb(241,240,234)" stroke="rgb(241,240,234)" d="M 1.51211,3.33563 l -0.363807,0 0,-0.410868 0.204145,-0.325755 0.134653,-8.88178e-16 0,-0.263377 0.661202,0.661202 0,0.331872 -0.587381,-6.7764e-10 -0.0155204,0.000677635 -0.0154023,0.00202775 -0.0151669,0.00336243 -0.00272297,0.00085855 z "/>
<path fill="rgb(241,240,234)" stroke="rgb(241,240,234)" d="M 2.1483,5.25283 l 0,0.082795 -0.353723,0 -0.394361,-0.947145 -0.0444301,-0.0528555 0.792514,0 0,0.0879809 -0.339795,-0.0307778 0.339795,0.860002 z "/>
<path fill="rgb(241,240,234)" stroke="rgb(241,240,234)" d="M 1.79458,5.33563 l 0.353723,0 0,0.306619 -0.239905,-0.0332604 -0.113818,-0.273359 z "/>
<path fill="rgb(241,240,234)" stroke="rgb(241,240,234)" d="M 2.36565,3.33563 l -0.00547349,-0.00173809 -0.012879,-0.00287494 -0.0130816,-0.00173388 -0.0131833,-0.00057945 -0.172732,-1.99275e-10 0,-0.331872 0.338798,0.338798 -0.121448,0 z "/>
<path fill="rgb(241,240,234)" stroke="rgb(241,240,234)" d="M 2.4871,3.33563 l 0.661202,0.661202 0,0.338798 -1,0 0,-0.351069 0.0945453,0 0.0157075,-0.00154472 0.0155207,-0.00286718 0.0152227,-0.00416911 0.0148157,-0.00544118 0.0143027,-0.00667429 0.0136872,-0.00785961 0.0129737,-0.00898865 0.0121673,-0.0100533 0.0112738,-0.011046 0.0102995,-0.0119596 0.00925153,-0.0127876 0.00813728,-0.0135239 0.00696477,-0.0141635 0.00574239,-0.0147016 0.00447888,-0.0151345 0.00318331,-0.0154589 0.0521187,-0.321407 0.00187127,-0.0130626 0.000717971,-0.0131765 -0.000440865,-0.0131886 -0.0015963,-0.0130991 -0.00273943,-0.0129085 -0.00386142,-0.0126184 -0.00495364,-0.0122309 -0.00600764,-0.0117492 -0.00701532,-0.0111768 -0.00796888,-0.0105181 -0.00886098,-0.00977841 -0.00968475,-0.00896326 -0.0104338,-0.00807898 -0.0111024,-0.00713239 -0.0116854,-0.00613079 -0.0121782,-0.00508191 -0.00710362,-0.00225573 0.121448,0 z "/>
<path fill="rgb(241,240,234)" stroke="rgb(241,240,234)" d="M 2.1483,5.33563 l 0,-0.082795 0.0120108,0.0303986 0.308982,0.0523964 -0.320992,0 z M 2.1483,4.42361 l 0,-0.0879809 1,0 0,0.149876 -0.114353,-0.00257974 -0.613484,-0.0346639 -0.272163,-0.0246518 z "/>
<path fill="rgb(241,240,234)" stroke="rgb(241,240,234)" d="M 2.4693,5.33563 l 0.284904,0.0483133 0.394104,0.035611 0,0.335132 -0.257983,-0.00956385 -0.742017,-0.102873 0,-0.306619 0.320992,0 z "/>
<path fill="rgb(241,240,234)" stroke="rgb(241,240,234)" d="M 3.1483,4.33563 l 0,-0.338798 0.338798,0.338798 -0.338798,0 z "/>
<path fill="rgb(241,240,234)" stroke="rgb(241,240,234)" d="M 1.24853,0.4 l 2.19901,2.19901 -0.282843,0 -2.19901,-2.19901 0.282843,0 z "/>
<path fill="rgb(241,240,234)" stroke="rgb(241,240,234)" d="M 5.28086,4.43233 l 7.10543e-15,1.06581e-14 0.283156,0.283156 -0.0801097,0.202733 -0.465566,-0.465566 0.0875389,-0.0063509 0.0875071,-0.00677454 0.0874733,-0.00719801 z "/>
<path fill="rgb(241,240,234)" stroke="rgb(241,240,234)" d="M 7.1,6.25147 l 0,0.282843 -1.337,-1.337 0.083147,-0.199696 1.25385,1.25385 z "/>
<path fill="rgb(241,240,234)" stroke="rgb(241,240,234)" d="M 3.44753,2.59901 l 1.83333,1.83333 -0.0874733,0.00719801 -0.0875071,0.00677454 -0.0875389,0.0063509 -1.85365,-1.85365 0.282843,0 z "/>
<path fill="rgb(241,240,234)" stroke="rgb(241,240,234)" d="M 5.84615,4.99762 l -0.083147,0.199696 -0.279091,-0.279091 0.0801097,-0.202733 0.282128,0.282128 z "/>
<path fill="rgb(241,240,234)" stroke="rgb(241,240,234)" d="M 4.87026,5.71879 l -0.312755,-0.312755 0.0841727,-0.00929815 0.0840659,-0.0102188 0.083949,-0.0111382 0.311419,0.311419 -0.0835249,0.0113794 -0.0836192,0.010664 -0.0837074,0.00994784 z "/>
<path fill="rgb(241,240,234)" stroke="rgb(241,240,234)" d="M 6.53431,7.1 l -0.282843,1.77636e-15 -1.38121,-1.38121 0.0837074,-0.00994784 0.0836192,-0.010664 0.0835249,-0.0113794 1.4132,1.4132 z "/>
<path fill="rgb(241,240,234)" stroke="rgb(241,240,234)" d="M 0.4,0.965685 l 1.0871,1.0871 0,0.282843 -1.0871,-1.0871 -4.44089e-16,-0.282843 z "/>
<path fill="rgb(241,240,234)" stroke="rgb(241,240,234)" d="M 1.4871,2.33563 l 0,-0.282843 2.44339,2.44339 -0.0940752,0.000692286 -0.0940775,0.000204201 -0.0940773,-0.000283889 -2.16115,-2.16115 z "/>
<path fill="rgb(241,240,234)" stroke="rgb(241,240,234)" d="M 4.55751,5.40603 l -0.90925,-0.90925 0.0940773,0.000283889 0.0940775,-0.000204201 0.0940752,-0.000692286 0.879208,0.879208 -0.083949,0.0111382 -0.0840659,0.0102188 -0.0841727,0.00929815 z "/>
<path fill="rgb(241,240,234)" stroke="rgb(241,240,234)" d="M 0.4,3.75 l -0.2,-4.44089e-16 4.44089e-16,-3.05 0.00190265,-0.0435779 0.00569347,-0.0432462 0.00944096,-0.0425854 0.0131166,-0.0416005 0.0166924,-0.0402991 0.0201412,-0.0386909 0.0234367,-0.0367882 0.0265538,-0.0346056 0.0294688,-0.0321596 0.0321596,-0.0294688 0.0346056,-0.0265538 0.0367882,-0.0234367 0.0386909,-0.0201412 0.0402991,-0.0166924 0.0416005,-0.0131166 0.0425854,-0.00944096 0.0432462,-0.00569347 0.0435779,-0.00190265 6.1,0 0.0435779,0.00190265 0.0432462,0.00569347 0.0425854,0.00944096 0.0416005,0.0131166 0.0402991,0.0166924 0.0386909,0.0201412 0.0367882,0.0234367 0.0346056,0.0265538 0.0321596,0.0294688 0.0294688,0.0321596 0.0265538,0.0346056 0.0234367,0.0367882 0.0201412,0.0386909 0.0166924,0.0402991 0.0131166,0.0416005 0.00944096,0.0425854 0.00569347,0.0432462 0.00190265,0.0435779 0,3.05 -0.2,4.44089e-16 0,-3.05 -0.00114159,-0.0261467 -0.00341608,-0.0259477 -0.00566458,-0.0255513 -0.00786996,-0.0249603 -0.0100155,-0.0241794 -0.0120847,-0.0232145 -0.014062,-0.0220729 -0.0159323,-0.0207634 -0.0176813,-0.0192958 -0.0192958,-0.0176813 -0.0207634,-0.0159323 -0.0220729,-0.014062 -0.0232145,-0.0120847 -0.0241794,-0.0100155 -0.0249603,-0.00786996 -0.0255513,-0.00566458 -0.0259477,-0.00341608 -0.0261467,-0.00114159 -5.55147,0 -0.282843,0 -0.265685,0 -0.0261467,0.00114159 -0.0259477,0.00341608 -0.0255513,0.00566458 -0.0249603,0.00786996 -0.0241794,0.0100155 -0.0232145,0.0120847 -0.0220729,0.014062 -0.0207634,0.0159323 -0.0192958,0.0176813 -0.0176813,0.0192958 -0.0159323,0.0207634 -0.014062,0.0220729 -0.0120847,0.0232145 -0.0100155,0.0241794 -0.00786996,0.0249603 -0.00566458,0.0255513 -0.00341608,0.0259477 -0.00114159,0.0261467 4.44089e-16,0.265685 4.44089e-16,0.282843 -1.33227e-15,2.50147 z "/>
<path fill="rgb(241,240,234)" stroke="rgb(241,240,234)" d="M 7.1,6.25147 l 8.88178e-16,-2.50147 0.2,-4.44089e-16 -8.88178e-16,3.05 -0.00190265,0.0435779 -0.00569347,0.0432462 -0.00944096,0.0425854 -0.0131166,0.0416005 -0.0166924,0.0402991 -0.0201412,0.0386909 -0.0234367,0.0367882 -0.0265538,0.0346056 -0.0294688,0.0321596 -0.0321596,0.0294688 -0.0346056,0.0265538 -0.0367882,0.0234367 -0.0386909,0.0201412 -0.0402991,0.0166924 -0.0416005,0.0131166 -0.0425854,0.00944096 -0.0432462,0.00569347 -0.0435779,0.00190265 -6.1,-8.88178e-16 -0.0435779,-0.00190265 -0.0432462,-0.00569347 -0.0425854,-0.00944096 -0.0416005,-0.0131166 -0.0402991,-0.0166924 -0.0386909,-0.0201412 -0.0367882,-0.0234367 -0.0346056,-0.0265538 -0.0321596,-0.0294688 -0.0294688,-0.0321596 -0.0265538,-0.0346056 -0.0234367,-0.0367882 -0.0201412,-0.0386909 -0.0166924,-0.0402991 -0.0131166,-0.0416005 -0.00944096,-0.0425854 -0.00569347,-0.0432462 -0.00190265,-0.0435779 4.44089e-16,-3.05 0.2,4.44089e-16 -4.44089e-16,3.05 0.00114159,0.0261467 0.00341608,0.0259477 0.00566458,0.0255513 0.00786996,0.0249603 0.0100155,0.0241794 0.0120847,0.0232145 0.014062,0.0220729 0.0159323,0.0207634 0.0176813,0.0192958 0.0192958,0.0176813 0.0207634,0.0159323 0.0220729,0.014062 0.0232145,0.0120847 0.0241794,0.0100155 0.0249603,0.00786996 0.0255513,0.00566458 0.0259477,0.00341608 0.0261467,0.00114159 5.55147,2.66454e-15 0.282843,-1.77636e-15 0.265685,0 0.0261467,-0.00114159 0.0259477,-0.00341608 0.0255513,-0.00566458 0.0249603,-0.00786996 0.0241794,-0.0100155 0.0232145,-0.0120847 0.0220729,-0.014062 0.0207634,-0.0159323 0.0192958,-0.0176813 0.0176813,-0.0192958 0.0159323,-0.0207634 0.014062,-0.0220729 0.0120847,-0.0232145 0.0100155,-0.0241794 0.00786996,-0.0249603 0.00566458,-0.0255513 0.00341608,-0.0259477 0.00114159,-0.0261467 0,-0.265685 0,-0.282843 z "/>
<path fill="rgb(187,30,16)" stroke="rgb(187,30,16)" d="M 7.1,6.8 l -0.00114159,0.0261467 -0.00341608,0.0259477 -0.00566458,0.0255513 -0.00786996,0.0249603 -0.0100155,0.0241794 -0.0120847,0.0232145 -0.014062,0.0220729 -0.0159323,0.0207634 -0.0176813,0.0192958 -0.0192958,0.0176813 -0.0207634,0.0159323 -0.0220729,0.014062 -0.0232145,0.0120847 -0.0241794,0.0100155 -0.0249603,0.00786996 -0.0255513,0.00566458 -0.0259477,0.00341608 -0.0261467,0.00114159 -0.265685,0 -1.4132,-1.4132 0.157239,-0.0234038 0.15684,-0.0259389 0.156401,-0.0284673 0.171408,-0.411673 1.337,1.337 0,0.265685 z "/>
<path fill="rgb(187,30,16)" stroke="rgb(187,30,16)" d="M 5.12111,5.6868 l -0.311419,-0.311419 0.177357,-0.0266178 0.176693,-0.0307209 0.175933,-0.0348076 0.144233,-0.365008 0.279091,0.279091 -0.171408,0.411673 -0.156401,0.0284673 -0.15684,0.0259389 -0.157239,0.0234038 z "/>
<path fill="rgb(187,30,16)" stroke="rgb(187,30,16)" d="M 0.4,0.965685 l -4.44089e-16,-0.265685 0.00114159,-0.0261467 0.00341608,-0.0259477 0.00566458,-0.0255513 0.00786996,-0.0249603 0.0100155,-0.0241794 0.0120847,-0.0232145 0.014062,-0.0220729 0.0159323,-0.0207634 0.0176813,-0.0192958 0.0192958,-0.0176813 0.0207634,-0.0159323 0.0220729,-0.014062 0.0232145,-0.0120847 0.0241794,-0.0100155 0.0249603,-0.00786996 0.0255513,-0.00566458 0.0259477,-0.00341608 0.0261467,-0.00114159 0.265685,0 2.19901,2.19901 -1.00438,0 1.99744e-09,-0.803554 -0.000297457,-0.00681289 -0.000890108,-0.00676104 -0.00147598,-0.00665774 -0.00205063,-0.00650376 -0.00260967,-0.00630029 -0.00314884,-0.00604887 -0.00366405,-0.00575141 -0.00415138,-0.00541018 -0.00460711,-0.00502778 -0.00502778,-0.00460711 -0.00541018,-0.00415138 -0.00575141,-0.00366405 -0.00604887,-0.00314884 -0.00630029,-0.00260967 -0.00650376,-0.00205063 -0.00665774,-0.00147598 -0.00676104,-0.000890108 -0.00681289,-0.000297457 -0.516857,-1.99789e-09 -0.00681443,0.000297525 -0.00676257,0.000890309 -0.00665924,0.00147632 -0.00650523,0.00205109 -0.00630171,0.00261026 -0.00605023,0.00314955 -0.00575271,0.00366488 -0.0054114,0.00415232 -0.00502891,0.00460815 -0.00460815,0.00502891 -0.00415232,0.0054114 -0.00366488,0.00575271 -0.00314955,0.00605023 -0.00261026,0.00630171 -0.00205109,0.00650523 -0.00147632,0.00665924 -0.000890309,0.00676257 -0.000297525,0.00681443 0,0.257317 -1.0871,-1.0871 z "/>
<path fill="rgb(187,30,16)" stroke="rgb(187,30,16)" d="M 1.4871,2.05279 l 0,-0.257317 0.000297525,-0.00681443 0.000890309,-0.00676257 0.00147632,-0.00665924 0.00205109,-0.00650523 0.00261026,-0.00630171 0.00314955,-0.00605023 0.00366488,-0.00575271 0.00415232,-0.0054114 0.00460815,-0.00502891 0.00502891,-0.00460815 0.0054114,-0.00415232 0.00575271,-0.00366488 0.00605023,-0.00314955 0.00630171,-0.00261026 0.00650523,-0.00205109 0.00665924,-0.00147632 0.00676257,-0.000890309 0.00681443,-0.000297525 0.516857,1.99789e-09 0.00681289,0.000297457 0.00676104,0.000890108 0.00665774,0.00147598 0.00650376,0.00205063 0.00630029,0.00260967 0.00604887,0.00314884 0.00575141,0.00366405 0.00541018,0.00415138 0.00502778,0.00460711 0.00460711,0.00502778 0.00415138,0.00541018 0.00366405,0.00575141 0.00314884,0.00604887 0.00260967,0.00630029 0.00205063,0.00650376 0.00147598,0.00665774 0.000890108,0.00676104 0.000297457,0.00681289 -1.99744e-09,0.803554 1.00438,0 1.85365,1.85365 -0.362305,0.0217623 -0.362668,0.0145063 -0.362885,0.00724455 -2.44339,-2.44339 z "/>
<path fill="rgb(187,30,16)" stroke="rgb(187,30,16)" d="M 4.80969,5.37538 l -0.879208,-0.879208 0.362885,-0.00724455 0.362668,-0.0145063 0.362305,-0.0217623 0.465566,0.465566 -0.144233,0.365008 -0.175933,0.0348076 -0.176693,0.0307209 -0.177357,0.0266178 z "/>
</g></g></svg>
