<?xml version="1.0" encoding="UTF-8" standalone="no"?>
<!DOCTYPE svg PUBLIC "-//W3C//DTD SVG 1.1//EN" "http://www.w3.org/Graphics/SVG/1.1/DTD/svg11-flat.dtd"
[

]>
<svg xmlns="http://www.w3.org/2000/svg"  viewBox="-0.09375 -0.09375 7.6875 7.6875"><g fill="none" stroke="black" stroke-width="0.0125" transform="translate(0,7.5) scale(1, -1)">
<g id="Output" >
<path fill="rgb(0,91,140)" stroke="rgb(0,91,140)" d="M 6.56117,1.92796 l -0.697393,0.516121 -0.0630446,-0.077835 -0.069595,-0.0720378 -0.0756146,-0.0656912 -0.0810576,-0.0588437 -0.0858823,-0.0515473 -0.0900522,-0.0438579 -0.0935352,-0.035834 -0.0963049,-0.0275368 -0.0983401,-0.0190296 -0.0996254,-0.0103772 -0.100151,-0.00164574 -0.0999126,0.00709829 -0.0989123,0.0157882 -0.0971576,0.0243577 -0.0946621,0.0327414 -0.0914445,0.0408754 -0.0875296,0.0486977 -0.0829472,0.0561486 -0.0777321,0.0631713 -0.0719243,0.0697123 -0.0655679,0.0757215 -0.0587115,0.0811533 -0.0514073,0.0859662 -0.0437111,0.0901235 -0.0356815,0.0935935 -0.0273798,0.0963496 -0.0188693,0.098371 -1.96784,-1.9613 0.245477,-0.155146 0.257991,-0.133304 0.268566,-0.11046 0.277124,-0.0867861 0.283598,-0.0624601 0.287942,-0.0376648 0.290122,-0.0125865 0.30283,0.0137155 0.30035,0.0410343 0.295411,0.0680171 0.288053,0.0944429 0.278337,0.120095 0.266341,0.144764 0.252164,0.168248 0.235922,0.190354 0.217749,0.210902 0.197793,0.229722 0.176217,0.246661 z "/>
<path fill="rgb(0,91,140)" stroke="rgb(0,91,140)" d="M 0.916197,1.96337 l 0.0247625,-0.0386858 0.0252906,-0.0383426 0.025814,-0.0379923 0.39584,0.394525 -0.471707,-0.279504 z "/>
<path fill="rgb(0,91,140)" stroke="rgb(0,91,140)" d="M 3.65595,5.718 l 0,0.214312 1.43369,0 0.571183,0.569285 -0.243663,0.154106 -0.256011,0.132584 -0.266462,0.110081 -0.274941,0.0867626 -0.281382,0.0628015 -0.28574,0.0383752 -0.287982,0.0136646 -0.28809,-0.0111471 -0.286065,-0.0358763 -0.281921,-0.0603397 -0.275688,-0.0843563 -0.267414,-0.107748 -0.25716,-0.130342 -0.245,-0.15197 -0.231026,-0.172473 -0.215341,-0.191698 -0.198061,-0.209504 -0.185597,-0.234435 -0.163953,-0.250051 -0.141004,-0.263674 -0.116931,-0.275196 -0.0919268,-0.284527 -0.0661902,-0.29159 -0.0399262,-0.296331 -0.0133442,-0.29871 0.0147122,-0.313616 0.0440073,-0.310862 0.0729159,-0.305377 0.101184,-0.297209 0.128563,-0.286432 0.154814,-0.273138 0.471707,0.279504 0.0537937,0.053615 -0.0227913,0.0457855 -0.0188706,0.0475359 -0.0148169,0.0489512 -0.0106587,0.0500215 -0.00642541,0.0507392 -0.00214685,0.0510994 0.00228206,0.0526811 0.00682909,0.0522864 0.011325,0.0515 0.015736,0.0503278 0.0200291,0.0487785 0.0241722,0.0468637 0.0281341,0.0445979 0.0318853,0.041998 0.0353977,0.0390834 0.0386448,0.035876 0.0416024,0.0323998 0.0442483,0.0286809 0.0465627,0.0247471 0.0485283,0.0206279 0.0501303,0.0163541 0.0513567,0.0119579 0.0521984,0.00747204 0.052649,0.00293021 0.0527052,-0.00163357 0.0523665,-0.00618511 0.0516355,-0.0106903 0.0505176,-0.0151154 0.0490213,-0.0194273 0.0471577,-0.0235936 0.0881353,0.0878425 -0.0545819,0.0307208 -0.0570119,0.0259344 -0.0590231,0.0209576 -0.0606008,0.0158269 -0.0617334,0.0105799 -0.0624126,0.00525519 -0.0626334,-0.000108115 -0.0623941,-0.00547062 -0.0616965,-0.0107929 -0.0605458,-0.016036 -0.0589504,-0.0211613 -0.056922,-0.0261311 -0.0544755,-0.030909 -0.0516289,-0.0354599 -0.0484031,-0.0397503 -0.0448218,-0.0437488 -0.170661,0 0,1.03576 0.000694336,0.0237586 0.00278184,0.0236054 0.00484777,0.0232691 0.00687611,0.0227524 0.00885112,0.0220593 0.0107575,0.021195 0.0125805,0.0201664 0.0143058,0.0189815 0.0159203,0.0176493 0.0174113,0.0161803 0.0187673,0.0145857 0.0199777,0.0128781 0.0210332,0.0110706 0.0219256,0.00917725 0.022648,0.00721273 0.0231947,0.00519228 0.0235616,0.00313156 0.0237457,0.00104656 1.73434,0 0.380984,1.31764 z "/>
<path fill="rgb(0,91,140)" stroke="rgb(0,91,140)" d="M 6.56117,1.92796 l 0.140037,0.236831 0.12013,0.247524 0.0994129,0.256547 0.0780252,0.263839 0.0561113,0.269352 0.0338189,0.273048 0.0112984,0.274903 -0.0114859,0.277171 -0.034379,0.27527 -0.0570363,0.271482 -0.0793025,0.265832 -0.111831,0.282679 -0.136996,0.271378 -0.161033,0.257841 -0.990635,-0.987344 0,-0.148857 0.424651,-0.353208 -0.126995,-0.127011 -0.0870895,0.0761936 -0.0936993,0.0679006 -0.099522,0.0590373 -0.104509,0.0496782 -0.108618,0.0399019 -0.111815,0.0297904 -0.0974307,-0.0971071 0.0999743,-0.0195996 0.0978408,-0.0283935 0.0949353,-0.0369634 0.0912809,-0.0452417 0.0869063,-0.053163 0.081846,-0.060665 0.0761401,-0.0676883 0.0698334,-0.0741776 0.0629758,-0.0800816 0.0556213,-0.0853539 0.047828,-0.0899527 0.0396574,-0.0938419 0.0311738,-0.0969907 0.0224444,-0.0993743 0.0135379,-0.100974 0.00452452,-0.101777 -0.00474751,-0.10425 -0.0142032,-0.103387 -0.0235414,-0.101668 -0.0326846,-0.0991073 -0.0415573,-0.0957264 -0.050086,-0.091553 -0.0582,-0.0866216 0.697393,-0.516121 z "/>
<path fill="rgb(0,91,140)" stroke="rgb(0,91,140)" d="M 1.70929,2.59062 l 0.000143276,-0.00872788 0.000429674,-0.00871847 0.000715609,-0.00869967 0.291645,0.290677 -0.0233618,0.00135178 -0.0233902,-0.00070739 -0.0232374,-0.00276108 -0.0229047,-0.00479338 -0.0223945,-0.00678856 -0.021711,-0.00873117 -0.0208593,-0.0106062 -0.019846,-0.012399 -0.0186791,-0.0140958 -0.0173675,-0.0156835 -0.0159213,-0.0171497 -0.0143519,-0.018483 -0.0126713,-0.0196733 -0.0108926,-0.0207111 -0.00902956,-0.0215886 -0.00709656,-0.0222989 -0.00510859,-0.0228364 -0.00308107,-0.0231971 -0.00102968,-0.0233782 z "/>
<path fill="rgb(0,91,140)" stroke="rgb(0,91,140)" d="M 5.39824,3.12639 l -0.0017368,-0.0397793 -0.00519718,-0.0394765 -0.00861801,-0.0388733 -0.0119733,-0.0379743 -0.0152374,-0.0367863 -0.0183855,-0.0353183 -0.0213937,-0.0335815 -0.0242392,-0.0315891 -0.0269001,-0.0293563 -0.0293563,-0.0269001 -0.0315891,-0.0242392 -0.0335815,-0.0213937 -0.0353183,-0.0183855 -0.0367863,-0.0152374 -0.0379743,-0.0119733 -0.0388733,-0.00861801 -0.0394765,-0.00519718 -0.0397793,-0.0017368 -0.0397793,0.0017368 -0.0394765,0.00519718 -0.0388733,0.00861801 -0.0379743,0.0119733 -0.0367863,0.0152374 -0.0353183,0.0183855 -0.0335815,0.0213937 -0.0315891,0.0242392 -0.0293563,0.0269001 -0.0269001,0.0293563 -0.0242392,0.0315891 -0.0213937,0.0335815 -0.0183855,0.0353183 -0.0152374,0.0367863 -0.0119733,0.0379743 -0.00861801,0.0388733 -0.00519718,0.0394765 -0.0017368,0.0397793 0.00166362,0.0389337 0.00497872,0.0386499 0.00825753,0.0380843 0.0114761,0.0372411 0.0146111,0.0361264 0.0176395,0.0347484 0.0205394,0.033117 0.0232895,0.0312442 0.0258698,0.0291437 0.0282616,0.0268307 0.0304473,0.0243221 0.0324111,0.0216362 0.0341386,0.0187925 -0.093468,0.188413 -0.0498701,-0.0274524 -0.0473466,-0.0316064 -0.0444779,-0.03553 -0.0412849,-0.0391946 -0.037791,-0.0425735 -0.0340216,-0.045642 -0.0300042,-0.0483778 -0.0257681,-0.0507609 -0.0213441,-0.052774 -0.0167645,-0.0544023 -0.0120627,-0.0556341 -0.00727298,-0.0564603 -0.00243023,-0.0568749 0.00253714,-0.0581101 0.00759212,-0.0576679 0.0125893,-0.0567867 0.0174907,-0.0554734 0.022259,-0.0537379 0.0268578,-0.0515934 0.0312523,-0.0490563 0.0354089,-0.0461458 0.039296,-0.0428841 0.0428841,-0.039296 0.0461458,-0.0354089 0.0490563,-0.0312523 0.0515934,-0.0268578 0.0537379,-0.022259 0.0554734,-0.0174907 0.0567867,-0.0125893 0.0576679,-0.00759212 0.0581101,-0.00253714 0.0581101,0.00253714 0.0576679,0.00759212 0.0567867,0.0125893 0.0554734,0.0174907 0.0537379,0.022259 0.0515934,0.0268578 0.0490563,0.0312523 0.0461458,0.0354089 0.0428841,0.039296 0.039296,0.0428841 0.0354089,0.0461458 0.0312523,0.0490563 0.0268578,0.0515934 0.022259,0.0537379 0.0174907,0.0554734 0.0125893,0.0567867 0.00759212,0.0576679 0.00253714,0.0581101 -0.210323,0 z "/>
<path fill="rgb(0,91,140)" stroke="rgb(0,91,140)" d="M 5.39824,3.12639 l 0.210323,0 -0.00259859,0.0588082 -0.0077755,0.0583498 -0.0128918,0.0574366 -0.0179076,0.0560756 -0.0227839,0.0542776 -0.0274825,0.0520564 -0.0319669,0.0494295 -0.0362021,0.0464173 -0.0401552,0.0430432 -0.0437952,0.0393337 -0.0470938,0.0353175 -0.0500254,0.0310261 -0.052567,0.0264928 -0.0546989,0.021753 -0.0564044,0.0168436 -0.0576702,0.0118029 -0.0584865,0.00667026 -0.0588468,0.0014856 -0.0587485,-0.00371064 -0.0581923,-0.00887796 -0.0571824,-0.0139761 -0.0557268,-0.0189653 -0.0538368,-0.0238066 0.093468,-0.188413 0.036854,0.0162968 0.0381478,0.0129827 0.0391442,0.00956732 0.0398355,0.00607741 0.0402163,0.00254012 0.0402836,-0.00101697 0.0400369,-0.00456613 0.0394781,-0.00807969 0.0386116,-0.0115303 0.0374441,-0.014891 0.0359847,-0.0181356 0.0342449,-0.0212389 0.0322381,-0.0241766 0.02998,-0.0269259 0.0274882,-0.0294652 0.0247822,-0.0317749 0.0218829,-0.0338369 0.0188131,-0.0356352 0.0155967,-0.0371557 0.0122587,-0.0383865 0.00882509,-0.0393182 0.00532272,-0.0399433 0.00177886,-0.0402571 z "/>
<path fill="rgb(0,91,140)" stroke="rgb(0,91,140)" d="M 3.50912,4.40036 l 0.0434614,0 1.30211,1.29779 -1.00429,0 -0.341291,-1.29779 z "/>
<path fill="rgb(0,91,140)" stroke="rgb(0,91,140)" d="M 1.06776,6.07553 l -0.151112,0.131016 -0.207757,-0.262428 -0.18353,-0.279907 -0.15784,-0.295157 -0.130893,-0.308056 -0.102903,-0.3185 -0.0740935,-0.326407 -0.0446935,-0.331713 -0.0149375,-0.334377 0.0142699,-0.326834 0.042701,-0.324347 0.0708072,-0.319391 0.0983745,-0.312004 0.125193,-0.302243 0.151059,-0.290182 0.175775,-0.275912 0.199154,-0.259542 0.221016,-0.241197 0.241197,-0.221016 0.259542,-0.199154 0.275912,-0.175775 0.290182,-0.151059 0.302243,-0.125193 0.312004,-0.0983745 0.319391,-0.0708072 0.324347,-0.042701 0.326834,-0.0142699 0,0.2 -0.309403,0.0135088 -0.307048,0.0404237 -0.302357,0.0670308 -0.295364,0.0931279 -0.286123,0.118516 -0.274705,0.143002 -0.261196,0.1664 -0.2457,0.188532 -0.228333,0.209229 -0.209229,0.228333 -0.188532,0.2457 -0.1664,0.261196 -0.143002,0.274705 -0.118516,0.286123 -0.0931279,0.295364 -0.0670308,0.302357 -0.0404237,0.307048 -0.0135088,0.309403 0.0141408,0.316544 0.0423099,0.314022 0.0701418,0.308999 0.097415,0.301513 0.123912,0.291626 0.149422,0.279416 0.173742,0.264979 0.196677,0.248431 z "/>
<path fill="rgb(0,91,140)" stroke="rgb(0,91,140)" d="M 7.5,3.75 l -0.0128574,0.310266 -0.0384839,0.308138 -0.0638466,0.303898 -0.0887715,0.297573 -0.189122,-0.06506 0.084037,-0.281703 0.0604415,-0.28769 0.0364315,-0.291704 0.0121716,-0.293718 -0.0135088,-0.309403 -0.0404237,-0.307048 -0.0670308,-0.302357 -0.0931279,-0.295364 -0.118516,-0.286123 -0.143002,-0.274705 -0.1664,-0.261196 -0.188532,-0.2457 -0.209229,-0.228333 -0.228333,-0.209229 -0.2457,-0.188532 -0.261196,-0.1664 -0.274705,-0.143002 -0.286123,-0.118516 -0.295364,-0.0931279 -0.302357,-0.0670308 -0.307048,-0.0404237 -0.309403,-0.0135088 0,-0.2 0.326834,0.0142699 0.324347,0.042701 0.319391,0.0708072 0.312004,0.0983745 0.302243,0.125193 0.290182,0.151059 0.275912,0.175775 0.259542,0.199154 0.241197,0.221016 0.221016,0.241197 0.199154,0.259542 0.175775,0.275912 0.151059,0.290182 0.125193,0.302243 0.0983745,0.312004 0.0708072,0.319391 0.042701,0.324347 0.0142699,0.326834 z "/>
<path fill="rgb(0,91,140)" stroke="rgb(0,91,140)" d="M 1.06776,6.07553 l 0.213058,0.225086 0.231878,0.205645 0.248931,0.184636 0.264087,0.162221 0.27723,0.138568 0.288259,0.11386 0.297092,0.0882837 0.30366,0.0620345 0.307913,0.0353125 0.30982,0.00832127 0.309365,-0.0187333 0.306552,-0.0456452 0.301402,-0.0722091 0.293955,-0.0982226 0.284268,-0.123487 0.272414,-0.147811 0.258483,-0.171008 0.242583,-0.192902 0.224833,-0.213325 0.20537,-0.232122 0.184341,-0.24915 0.161907,-0.264279 0.138239,-0.277394 0.113518,-0.288394 0.189122,0.06506 -0.119913,0.304642 -0.146028,0.293022 -0.171029,0.279168 -0.194726,0.263187 -0.21694,0.245199 -0.2375,0.225343 -0.256249,0.203769 -0.273046,0.180642 -0.287761,0.156138 -0.300283,0.130445 -0.310516,0.103756 -0.318383,0.0762772 -0.323822,0.0482167 -0.326794,0.0197887 -0.327274,-0.00879008 -0.32526,-0.0373019 -0.320767,-0.0655294 -0.313829,-0.0932574 -0.304499,-0.120275 -0.292848,-0.146375 -0.278965,-0.17136 -0.262956,-0.195039 -0.244942,-0.217231 -0.225061,-0.237767 0.151112,-0.131016 z "/>
<path fill="rgb(241,240,234)" stroke="rgb(241,240,234)" d="M 5.39824,3.12639 l -0.0017368,-0.0397793 -0.00519718,-0.0394765 -0.00861801,-0.0388733 -0.0119733,-0.0379743 -0.0152374,-0.0367863 -0.0183855,-0.0353183 -0.0213937,-0.0335815 -0.0242392,-0.0315891 -0.0269001,-0.0293563 -0.0293563,-0.0269001 -0.0315891,-0.0242392 -0.0335815,-0.0213937 -0.0353183,-0.0183855 -0.0367863,-0.0152374 -0.0379743,-0.0119733 -0.0388733,-0.00861801 -0.0394765,-0.00519718 -0.0397793,-0.0017368 -0.0397793,0.0017368 -0.0394765,0.00519718 -0.0388733,0.00861801 -0.0379743,0.0119733 -0.0367863,0.0152374 -0.0353183,0.0183855 -0.0335815,0.0213937 -0.0315891,0.0242392 -0.0293563,0.0269001 -0.0269001,0.0293563 -0.0242392,0.0315891 -0.0213937,0.0335815 -0.0183855,0.0353183 -0.0152374,0.0367863 -0.0119733,0.0379743 -0.00861801,0.0388733 -0.00519718,0.0394765 -0.0017368,0.0397793 0.0017368,-0.0397793 0.00519718,-0.0394765 0.00861801,-0.0388733 0.0119733,-0.0379743 0.0152374,-0.0367863 0.0183855,-0.0353183 0.0213937,-0.0335815 0.0242392,-0.0315891 0.0269001,-0.0293563 0.0293563,-0.0269001 0.0315891,-0.0242392 0.0335815,-0.0213937 0.0353183,-0.0183855 0.0367863,-0.0152374 0.0379743,-0.0119733 0.0388733,-0.00861801 0.0394765,-0.00519718 0.0397793,-0.0017368 0.0397793,0.0017368 0.0394765,0.00519718 0.0388733,0.00861801 0.0379743,0.0119733 0.0367863,0.0152374 0.0353183,0.0183855 0.0335815,0.0213937 0.0315891,0.0242392 0.0293563,0.0269001 0.0269001,0.0293563 0.0242392,0.0315891 0.0213937,0.0335815 0.0183855,0.0353183 0.0152374,0.0367863 0.0119733,0.0379743 0.00861801,0.0388733 0.00519718,0.0394765 0.0017368,0.0397793 z "/>
<path fill="rgb(241,240,234)" stroke="rgb(241,240,234)" d="M 5.39824,3.12639 l -0.00177886,0.0402571 -0.00532272,0.0399433 -0.00882509,0.0393182 -0.0122587,0.0383865 -0.0155967,0.0371557 -0.0188131,0.0356352 -0.0218829,0.0338369 -0.0247822,0.0317749 -0.0274882,0.0294652 -0.02998,0.0269259 -0.0322381,0.0241766 -0.0342449,0.0212389 -0.0359847,0.0181356 -0.0374441,0.014891 -0.0386116,0.0115303 -0.0394781,0.00807969 -0.0400369,0.00456613 -0.0402836,0.00101697 -0.0402163,-0.00254012 -0.0398355,-0.00607741 -0.0391442,-0.00956732 -0.0381478,-0.0129827 -0.036854,-0.0162968 -0.0341386,-0.0187925 -0.0324111,-0.0216362 -0.0304473,-0.0243221 -0.0282616,-0.0268307 -0.0258698,-0.0291437 -0.0232895,-0.0312442 -0.0205394,-0.033117 -0.0176395,-0.0347484 -0.0146111,-0.0361264 -0.0114761,-0.0372411 -0.00825753,-0.0380843 -0.00497872,-0.0386499 -0.00166362,-0.0389337 0.0017368,-0.0397793 0.00519718,-0.0394765 0.00861801,-0.0388733 0.0119733,-0.0379743 0.0152374,-0.0367863 0.0183855,-0.0353183 0.0213937,-0.0335815 0.0242392,-0.0315891 0.0269001,-0.0293563 0.0293563,-0.0269001 0.0315891,-0.0242392 0.0335815,-0.0213937 0.0353183,-0.0183855 0.0367863,-0.0152374 0.0379743,-0.0119733 0.0388733,-0.00861801 0.0394765,-0.00519718 0.0397793,-0.0017368 0.0397793,0.0017368 0.0394765,0.00519718 0.0388733,0.00861801 0.0379743,0.0119733 0.0367863,0.0152374 0.0353183,0.0183855 0.0335815,0.0213937 0.0315891,0.0242392 0.0293563,0.0269001 0.0269001,0.0293563 0.0242392,0.0315891 0.0213937,0.0335815 0.0183855,0.0353183 0.0152374,0.0367863 0.0119733,0.0379743 0.00861801,0.0388733 0.00519718,0.0394765 0.0017368,0.0397793 z "/>
<path fill="rgb(241,240,234)" stroke="rgb(241,240,234)" d="M 5.5173,4.66431 l -0.307596,-0.306575 0.111815,-0.0297904 0.108618,-0.0399019 0.104509,-0.0496782 0.099522,-0.0590373 0.0936993,-0.0679006 0.0870895,-0.0761936 0.126995,0.127011 -0.424651,0.353208 0,0.148857 z "/>
<path fill="rgb(241,240,234)" stroke="rgb(241,240,234)" d="M 3.65595,5.718 l -0.380984,-1.31764 -1.73434,0 -0.0237457,-0.00104656 -0.0235616,-0.00313156 -0.0231947,-0.00519228 -0.022648,-0.00721273 -0.0219256,-0.00917725 -0.0210332,-0.0110706 -0.0199777,-0.0128781 -0.0187673,-0.0145857 -0.0174113,-0.0161803 -0.0159203,-0.0176493 -0.0143058,-0.0189815 -0.0125805,-0.0201664 -0.0107575,-0.021195 -0.00885112,-0.0220593 -0.00687611,-0.0227524 -0.00484777,-0.0232691 -0.00278184,-0.0236054 -0.000694336,-0.0237586 0,-1.03576 0.170661,0 0.0448218,0.0437488 0.0484031,0.0397503 0.0516289,0.0354599 0.0544755,0.030909 0.056922,0.0261311 0.0589504,0.0211613 0.0605458,0.016036 0.0616965,0.0107929 0.0623941,0.00547062 0.0626334,0.000108115 0.0624126,-0.00525519 0.0617334,-0.0105799 0.0606008,-0.0158269 0.0590231,-0.0209576 0.0570119,-0.0259344 0.0545819,-0.0307208 0.91335,0.910316 0.236534,0.279066 0.341291,1.29779 1.00429,0 0.234939,0.234159 -1.43369,0 0,-0.214312 z "/>
<path fill="rgb(241,240,234)" stroke="rgb(241,240,234)" d="M 3.50912,4.40036 l -0.236534,-0.279066 0.279996,0.279066 -0.0434614,0 z "/>
<path fill="rgb(241,240,234)" stroke="rgb(241,240,234)" d="M 1.70929,2.59062 l 0.00102968,0.0233782 0.00308107,0.0231971 0.00510859,0.0228364 0.00709656,0.0222989 0.00902956,0.0215886 0.0108926,0.0207111 0.0126713,0.0196733 0.0143519,0.018483 0.0159213,0.0171497 0.0173675,0.0156835 0.0186791,0.0140958 0.019846,0.012399 0.0208593,0.0106062 0.021711,0.00873117 0.0223945,0.00678856 0.0229047,0.00479338 0.0232374,0.00276108 0.0233902,0.00070739 0.0233618,-0.00135178 0.26888,0.267987 -0.0471577,0.0235936 -0.0490213,0.0194273 -0.0505176,0.0151154 -0.0516355,0.0106903 -0.0523665,0.00618511 -0.0527052,0.00163357 -0.052649,-0.00293021 -0.0521984,-0.00747204 -0.0513567,-0.0119579 -0.0501303,-0.0163541 -0.0485283,-0.0206279 -0.0465627,-0.0247471 -0.0442483,-0.0286809 -0.0416024,-0.0323998 -0.0386448,-0.035876 -0.0353977,-0.0390834 -0.0318853,-0.041998 -0.0281341,-0.0445979 -0.0241722,-0.0468637 -0.0200291,-0.0487785 -0.015736,-0.0503278 -0.011325,-0.0515 -0.00682909,-0.0522864 -0.00228206,-0.0526811 0.343301,0 z "/>
<path fill="rgb(241,240,234)" stroke="rgb(241,240,234)" d="M 1.70929,2.59062 l -0.343301,0 0.00214685,-0.0510994 0.00642541,-0.0507392 0.0106587,-0.0500215 0.0148169,-0.0489512 0.0188706,-0.0475359 0.0227913,-0.0457855 0.26888,0.267987 -0.000715609,0.00869967 -0.000429674,0.00871847 -0.000143276,0.00872788 z "/>
<path fill="rgb(241,240,234)" stroke="rgb(241,240,234)" d="M 4.64552,3.72367 l -0.0238179,0.0480122 -0.814681,-0.811975 0.0188693,-0.098371 0.0273798,-0.0963496 0.0356815,-0.0935935 0.0437111,-0.0901235 0.0514073,-0.0859662 0.0587115,-0.0811533 0.0655679,-0.0757215 0.0719243,-0.0697123 0.0777321,-0.0631713 0.0829472,-0.0561486 0.0875296,-0.0486977 0.0914445,-0.0408754 0.0946621,-0.0327414 0.0971576,-0.0243577 0.0989123,-0.0157882 0.0999126,-0.00709829 0.100151,0.00164574 0.0996254,0.0103772 0.0983401,0.0190296 0.0963049,0.0275368 0.0935352,0.035834 0.0900522,0.0438579 0.0858823,0.0515473 0.0810576,0.0588437 0.0756146,0.0656912 0.069595,0.0720378 0.0630446,0.077835 0.0582,0.0866216 0.050086,0.091553 0.0415573,0.0957264 0.0326846,0.0991073 0.0235414,0.101668 0.0142032,0.103387 0.00474751,0.10425 -0.480236,0 -0.00253714,-0.0581101 -0.00759212,-0.0576679 -0.0125893,-0.0567867 -0.0174907,-0.0554734 -0.022259,-0.0537379 -0.0268578,-0.0515934 -0.0312523,-0.0490563 -0.0354089,-0.0461458 -0.039296,-0.0428841 -0.0428841,-0.039296 -0.0461458,-0.0354089 -0.0490563,-0.0312523 -0.0515934,-0.0268578 -0.0537379,-0.022259 -0.0554734,-0.0174907 -0.0567867,-0.0125893 -0.0576679,-0.00759212 -0.0581101,-0.00253714 -0.0581101,0.00253714 -0.0576679,0.00759212 -0.0567867,0.0125893 -0.0554734,0.0174907 -0.0537379,0.022259 -0.0515934,0.0268578 -0.0490563,0.0312523 -0.0461458,0.0354089 -0.0428841,0.039296 -0.039296,0.0428841 -0.0354089,0.0461458 -0.0312523,0.0490563 -0.0268578,0.0515934 -0.022259,0.0537379 -0.0174907,0.0554734 -0.0125893,0.0567867 -0.00759212,0.0576679 -0.00253714,0.0581101 0.00243023,0.0568749 0.00727298,0.0564603 0.0120627,0.0556341 0.0167645,0.0544023 0.0213441,0.052774 0.0257681,0.0507609 0.0300042,0.0483778 0.0340216,0.045642 0.037791,0.0425735 0.0412849,0.0391946 0.0444779,0.03553 0.0473466,0.0316064 0.0498701,0.0274524 z "/>
<path fill="rgb(241,240,234)" stroke="rgb(241,240,234)" d="M 6.08879,3.12639 l -0.00452452,0.101777 -0.0135379,0.100974 -0.0224444,0.0993743 -0.0311738,0.0969907 -0.0396574,0.0938419 -0.047828,0.0899527 -0.0556213,0.0853539 -0.0629758,0.0800816 -0.0698334,0.0741776 -0.0761401,0.0676883 -0.081846,0.060665 -0.0869063,0.053163 -0.0912809,0.0452417 -0.0949353,0.0369634 -0.0978408,0.0283935 -0.0999743,0.0195996 -0.490572,-0.488943 0.0238179,-0.0480122 0.0538368,0.0238066 0.0557268,0.0189653 0.0571824,0.0139761 0.0581923,0.00887796 0.0587485,0.00371064 0.0588468,-0.0014856 0.0584865,-0.00667026 0.0576702,-0.0118029 0.0564044,-0.0168436 0.0546989,-0.021753 0.052567,-0.0264928 0.0500254,-0.0310261 0.0470938,-0.0353175 0.0437952,-0.0393337 0.0401552,-0.0430432 0.0362021,-0.0464173 0.0319669,-0.0494295 0.0274825,-0.0520564 0.0227839,-0.0542776 0.0179076,-0.0560756 0.0128918,-0.0574366 0.0077755,-0.0583498 0.00259859,-0.0588082 0.480236,0 z "/>
<path fill="rgb(241,240,234)" stroke="rgb(241,240,234)" d="M 1.83918,0.998407 l 1.96784,1.9613 -0.00675888,0.0553404 -0.00406173,0.0556035 -0.00135498,0.0557352 0.000574036,0.0362833 0.00172153,0.036247 0.00286731,0.0361744 -0.121712,-0.121308 0.00325701,-0.0809538 0.00844216,-0.0805782 0.0135926,-0.0798709 -0.267499,0 -1.75949,-1.75364 0.0533816,-0.0412 0.0542,-0.0401172 0.0549965,-0.0390181 z "/>
<path fill="rgb(241,240,234)" stroke="rgb(241,240,234)" d="M 6.50794,5.65165 l -0.0388349,0.055126 -0.0399366,0.0543332 -0.0410221,0.0535184 -0.870841,-0.867948 0,-0.282373 0.990635,0.987344 z "/>
<path fill="rgb(241,240,234)" stroke="rgb(241,240,234)" d="M 3.43609,2.87238 l 0.267499,0 -0.0135926,0.0798709 -0.00844216,0.0805782 -0.00325701,0.0809538 -0.242208,-0.241403 z "/>
<path fill="rgb(241,240,234)" stroke="rgb(241,240,234)" d="M 5.30301,4.64642 l -0.0869681,0 -0.260687,-0.259821 0.0853719,-0.00386984 0.0849146,-0.00963592 0.0840682,-0.0153579 0.307596,0.306575 0,0.282373 -0.214296,-0.213584 0,-0.0866792 z "/>
<path fill="rgb(241,240,234)" stroke="rgb(241,240,234)" d="M 3.80702,2.95971 l 0.814681,0.811975 -0.0937344,0.18895 -0.727959,-0.725541 -0.00286731,-0.0361744 -0.00172153,-0.036247 -0.000574036,-0.0362833 0.00135498,-0.0557352 0.00406173,-0.0556035 0.00675888,-0.0553404 z "/>
<path fill="rgb(241,240,234)" stroke="rgb(241,240,234)" d="M 4.6217,3.77169 l 0.490572,0.488943 -0.0914753,0.0100141 -0.0919837,0.0026487 -0.0919,-0.00473374 -0.308948,-0.307921 0.0937344,-0.18895 z "/>
<path fill="rgb(241,240,234)" stroke="rgb(241,240,234)" d="M 5.30301,4.64642 l 0,0.0866792 -0.0869681,-0.0866792 0.0869681,0 z "/>
<path fill="rgb(241,240,234)" stroke="rgb(241,240,234)" d="M 5.11227,4.26063 l 0.0974307,0.0971071 -0.0840682,0.0153579 -0.0849146,0.00963592 -0.0853719,0.00386984 -0.118435,-0.118042 0.0919,0.00473374 0.0919837,-0.0026487 0.0914753,-0.0100141 z "/>
<path fill="rgb(241,240,234)" stroke="rgb(241,240,234)" d="M 4.8547,5.69815 l -1.30211,-1.29779 0.283314,0 1.30211,1.29779 -0.283314,0 z "/>
<path fill="rgb(241,240,234)" stroke="rgb(241,240,234)" d="M 2.35924,3.21098 l 0.0139095,-0.0088527 0.0137062,-0.00916423 0.013496,-0.0094711 0.0158337,-0.011707 0.0155125,-0.0121294 0.0151801,-0.0125429 0.825712,0.974183 -0.91335,-0.910316 z "/>
<path fill="rgb(241,240,234)" stroke="rgb(241,240,234)" d="M 5.08964,5.93231 l -0.234939,-0.234159 0.283314,0 0.234939,0.234159 -0.283314,0 z "/>
<path fill="rgb(241,240,234)" stroke="rgb(241,240,234)" d="M 1.81059,2.38178 l 0.373986,0.372744 -0.011593,0.0138171 -0.012503,0.0129994 -0.0133555,0.0121219 -0.0180364,0.0140024 -0.0191712,0.0124034 -0.0201646,0.0107129 -0.0210094,0.00894348 -0.0216992,0.00710808 -0.022229,0.00522026 -0.0225949,0.00329395 -0.291645,-0.290677 0.00339226,-0.0235271 0.00547976,-0.0231301 0.00752348,-0.0225483 0.00950708,-0.0217864 0.0114147,-0.0208503 0.0132311,-0.0197476 0.0149418,-0.0184871 0.0165331,-0.0170789 0.0179922,-0.0155342 z "/>
<path fill="rgb(241,240,234)" stroke="rgb(241,240,234)" d="M 2.3691,3.05535 l -0.221972,-0.261885 0.0133555,-0.0121219 0.012503,-0.0129994 0.011593,-0.0138171 0.243913,0.243103 -0.0189179,0.0201317 -0.0198111,0.0192534 -0.0206636,0.0183354 z "/>
<path fill="rgb(241,240,234)" stroke="rgb(241,240,234)" d="M 2.35924,3.21098 l -0.0881353,-0.0878425 0.0201411,-0.0117014 0.0196791,-0.0124628 0.0191882,-0.013206 0.0702387,0.0977246 -0.013496,0.0094711 -0.0137062,0.00916423 -0.0139095,0.0088527 z "/>
<path fill="rgb(241,240,234)" stroke="rgb(241,240,234)" d="M 1.11186,1.68537 l 0.454822,0.453311 -0.0432483,0.0432299 -0.0386967,0.0473477 -0.0337552,0.0509885 -0.0630754,-0.0373746 -0.39584,-0.394525 0.0388349,-0.055126 0.0399366,-0.0543332 0.0410221,-0.0535184 z "/>
<path fill="rgb(241,240,234)" stroke="rgb(241,240,234)" d="M 5.8234,6.38126 l -0.0533816,0.0412 -0.0542,0.0401172 -0.0549965,0.0390181 -0.571183,-0.569285 0.283314,0 0.450446,0.44895 z "/>
<path fill="rgb(241,240,234)" stroke="rgb(241,240,234)" d="M 1.3879,2.24287 l 0.0630754,0.0373746 -0.00314926,0.00538171 -0.00309401,0.00541366 -0.00303844,0.00544504 -0.0537937,-0.053615 z "/>
<path fill="rgb(241,240,234)" stroke="rgb(241,240,234)" d="M 2.3691,3.05535 l -0.0127202,0.0104891 -0.0129994,0.0101411 -0.0132691,0.0097856 -0.0191882,0.013206 -0.0196791,0.0124628 -0.0201411,0.0117014 -0.26888,-0.267987 0.0225949,-0.00329395 0.022229,-0.00522026 0.0216992,-0.00710808 0.0210094,-0.00894348 0.0201646,-0.0107129 0.0191712,-0.0124034 0.0180364,-0.0140024 0.221972,0.261885 z "/>
<path fill="rgb(241,240,234)" stroke="rgb(241,240,234)" d="M 1.56668,2.13868 l 0.243913,0.243103 -0.0179922,0.0155342 -0.0165331,0.0170789 -0.0149418,0.0184871 -0.0132311,0.0197476 -0.0114147,0.0208503 -0.00950708,0.0217864 -0.00752348,0.0225483 -0.00547976,0.0231301 -0.00339226,0.0235271 -0.26888,-0.267987 0.00303844,-0.00544504 0.00309401,-0.00541366 0.00314926,-0.00538171 0.0337552,-0.0509885 0.0386967,-0.0473477 0.0432483,-0.0432299 z "/>
<path fill="rgb(241,240,234)" stroke="rgb(241,240,234)" d="M 2.51373,3.08259 l 1.32216,1.31777 -0.283314,0 -0.279996,-0.279066 -0.825712,-0.974183 0.0231914,-0.0205562 0.0222991,-0.0215209 0.0213667,-0.0224469 z "/>
<path fill="rgb(241,240,234)" stroke="rgb(241,240,234)" d="M 2.3691,3.05535 l 0.0206636,-0.0183354 0.0198111,-0.0192534 0.0189179,-0.0201317 0.0852409,0.0849577 -0.0213667,0.0224469 -0.0222991,0.0215209 -0.0231914,0.0205562 -0.0151801,0.0125429 -0.0155125,0.0121294 -0.0158337,0.011707 -0.0702387,-0.0977246 0.0132691,-0.0097856 0.0129994,-0.0101411 0.0127202,-0.0104891 z "/>
<path fill="rgb(241,240,234)" stroke="rgb(241,240,234)" d="M 6.56117,1.92796 l -0.176217,-0.246661 -0.197793,-0.229722 -0.217749,-0.210902 -0.235922,-0.190354 -0.252164,-0.168248 -0.266341,-0.144764 -0.278337,-0.120095 -0.288053,-0.0944429 -0.295411,-0.0680171 -0.30035,-0.0410343 -0.30283,-0.0137155 0,-0.2 0.309403,0.0135088 0.307048,0.0404237 0.302357,0.0670308 0.295364,0.0931279 0.286123,0.118516 0.274705,0.143002 0.261196,0.1664 0.2457,0.188532 0.228333,0.209229 0.209229,0.228333 0.188532,0.2457 0.1664,0.261196 0.143002,0.274705 0.118516,0.286123 0.0931279,0.295364 0.0670308,0.302357 0.0404237,0.307048 0.0135088,0.309403 -0.0121716,0.293718 -0.0364315,0.291704 -0.0604415,0.28769 -0.084037,0.281703 -0.189122,-0.06506 0.0793025,-0.265832 0.0570363,-0.271482 0.034379,-0.27527 0.0114859,-0.277171 -0.0112984,-0.274903 -0.0338189,-0.273048 -0.0561113,-0.269352 -0.0780252,-0.263839 -0.0994129,-0.256547 -0.12013,-0.247524 -0.140037,-0.236831 z "/>
<path fill="rgb(241,240,234)" stroke="rgb(241,240,234)" d="M 1.06776,6.07553 l -0.196677,-0.248431 -0.173742,-0.264979 -0.149422,-0.279416 -0.123912,-0.291626 -0.097415,-0.301513 -0.0701418,-0.308999 -0.0423099,-0.314022 -0.0141408,-0.316544 0.0135088,-0.309403 0.0404237,-0.307048 0.0670308,-0.302357 0.0931279,-0.295364 0.118516,-0.286123 0.143002,-0.274705 0.1664,-0.261196 0.188532,-0.2457 0.209229,-0.228333 0.228333,-0.209229 0.2457,-0.188532 0.261196,-0.1664 0.274705,-0.143002 0.286123,-0.118516 0.295364,-0.0931279 0.302357,-0.0670308 0.307048,-0.0404237 0.309403,-0.0135088 0,0.2 -0.290122,0.0125865 -0.287942,0.0376648 -0.283598,0.0624601 -0.277124,0.0867861 -0.268566,0.11046 -0.257991,0.133304 -0.245477,0.155146 -0.0549965,0.0390181 -0.0542,0.0401172 -0.0533816,0.0412 -0.203135,0.173638 -0.188648,0.189277 -0.172961,0.203711 -0.0410221,0.0535184 -0.0399366,0.0543332 -0.0388349,0.055126 -0.025814,0.0379923 -0.0252906,0.0383426 -0.0247625,0.0386858 -0.154814,0.273138 -0.128563,0.286432 -0.101184,0.297209 -0.0729159,0.305377 -0.0440073,0.310862 -0.0147122,0.313616 0.0133442,0.29871 0.0399262,0.296331 0.0661902,0.29159 0.0919268,0.284527 0.116931,0.275196 0.141004,0.263674 0.163953,0.250051 0.185597,0.234435 -0.151112,0.131016 z "/>
<path fill="rgb(241,240,234)" stroke="rgb(241,240,234)" d="M 5.8234,6.38126 l 0.203135,-0.173638 0.188648,-0.189277 0.172961,-0.203711 0.0410221,-0.0535184 0.0399366,-0.0543332 0.0388349,-0.055126 0.161033,-0.257841 0.136996,-0.271378 0.111831,-0.282679 0.189122,0.06506 -0.113518,0.288394 -0.138239,0.277394 -0.161907,0.264279 -0.184341,0.24915 -0.20537,0.232122 -0.224833,0.213325 -0.242583,0.192902 -0.258483,0.171008 -0.272414,0.147811 -0.284268,0.123487 -0.293955,0.0982226 -0.301402,0.0722091 -0.306552,0.0456452 -0.309365,0.0187333 -0.30982,-0.00832127 -0.307913,-0.0353125 -0.30366,-0.0620345 -0.297092,-0.0882837 -0.288259,-0.11386 -0.27723,-0.138568 -0.264087,-0.162221 -0.248931,-0.184636 -0.231878,-0.205645 -0.213058,-0.225086 0.151112,-0.131016 0.198061,0.209504 0.215341,0.191698 0.231026,0.172473 0.245,0.15197 0.25716,0.130342 0.267414,0.107748 0.275688,0.0843563 0.281921,0.0603397 0.286065,0.0358763 0.28809,0.0111471 0.287982,-0.0136646 0.28574,-0.0383752 0.281382,-0.0628015 0.274941,-0.0867626 0.266462,-0.110081 0.256011,-0.132584 0.243663,-0.154106 0.0549965,-0.0390181 0.0542,-0.0401172 0.0533816,-0.0412 z "/>
<path fill="rgb(187,30,16)" stroke="rgb(187,30,16)" d="M 3.80001,3.2351 l 0.0150174,0.105504 0.0247445,0.103655 0.034258,0.100911 0.0434757,0.0972955 0.0523182,0.0928405 0.060709,0.087584 -0.0913475,0.0698165 -0.0601601,-0.0855111 -0.0528792,-0.0901952 -0.0452357,-0.0942609 -0.037282,-0.0976803 -0.0290726,-0.10043 -0.0206639,-0.102491 -0.0121136,-0.103849 -0.00348015,-0.104495 0.121712,0.121308 z "/>
<path fill="rgb(187,30,16)" stroke="rgb(187,30,16)" d="M 4.4321,4.15388 l -0.0917916,-0.0508967 -0.0867547,-0.0590745 -0.0809913,-0.0667577 -0.0745497,-0.0738818 -0.0674838,-0.0803872 -0.060709,-0.087584 -0.0523182,-0.0928405 -0.0434757,-0.0972955 -0.034258,-0.100911 -0.0247445,-0.103655 -0.0150174,-0.105504 0.727959,0.725541 -0.0958653,0.193246 z "/>
<path fill="rgb(187,30,16)" stroke="rgb(187,30,16)" d="M 4.38145,4.25598 l -0.193689,0.390439 -0.277793,-0.246061 -0.0740717,0 -1.32216,-1.31777 0.0401884,-0.048036 0.035928,-0.0513005 0.0314038,-0.0541882 0.0266489,-0.056678 0.788186,0 0.242208,0.241403 0.00348015,0.104495 0.0121136,0.103849 0.0206639,0.102491 0.0290726,0.10043 0.037282,0.0976803 0.0452357,0.0942609 0.0528792,0.0901952 0.0601601,0.0855111 0.0743839,0.0882693 0.0821342,0.0811073 0.0891981,0.0732674 0.0955166,0.0648152 0.101037,0.0558213 z "/>
<path fill="rgb(187,30,16)" stroke="rgb(187,30,16)" d="M 5.8234,6.38126 l -0.450446,-0.44895 0.144348,0 0,-0.985624 0.870841,0.867948 -0.172961,0.203711 -0.188648,0.189277 -0.203135,0.173638 z "/>
<path fill="rgb(187,30,16)" stroke="rgb(187,30,16)" d="M 4.4321,4.15388 l 0.0958653,-0.193246 0.308948,0.307921 -0.104746,-0.0145159 -0.102964,-0.0241011 -0.100307,-0.0334815 -0.0967967,-0.0425773 z "/>
<path fill="rgb(187,30,16)" stroke="rgb(187,30,16)" d="M 5.13801,5.69815 l -1.30211,-1.29779 0.0740717,0 0.277793,0.246061 1.02827,0 0.0869681,0.0866792 0,0.965049 -0.164992,0 z "/>
<path fill="rgb(187,30,16)" stroke="rgb(187,30,16)" d="M 4.38145,4.25598 l -0.101037,-0.0558213 -0.0955166,-0.0648152 -0.0891981,-0.0732674 -0.0821342,-0.0811073 -0.0743839,-0.0882693 0.0913475,-0.0698165 0.0674838,0.0803872 0.0745497,0.0738818 0.0809913,0.0667577 0.0867547,0.0590745 0.0917916,0.0508967 0.0967967,0.0425773 0.100307,0.0334815 0.102964,0.0241011 0.104746,0.0145159 0.118435,0.118042 -0.118688,-0.00422676 -0.117766,-0.0153595 -0.115802,-0.0263564 -0.112814,-0.0371201 -0.108827,-0.0475554 z "/>
<path fill="rgb(187,30,16)" stroke="rgb(187,30,16)" d="M 1.56668,2.13868 l 0.0416325,-0.0344052 0.044516,-0.0305828 0.0470497,-0.0265199 0.0492136,-0.0222486 0.0509907,-0.0178025 0.0523671,-0.0132164 0.0533318,-0.00852643 0.0538774,-0.00376946 0.0539995,0.00101713 0.0536972,0.00579573 0.0529729,0.0105288 0.0518322,0.0151791 0.0502842,0.0197101 0.0483409,0.0240861 0.0460177,0.0282729 0.0433328,0.0322375 0.0403073,0.0359487 0.036965,0.0393773 0.0333322,0.0424964 0.0294374,0.0452816 0.0253113,0.0477108 0.0209862,0.0497651 0.0164961,0.0514282 0.0118764,0.0526871 0.00716341,0.0535319 0.00239408,0.053956 -0.002546,0.0556382 -0.00761673,0.0551732 -0.0126238,0.054247 -0.0175253,0.0528673 -0.0222804,0.0510458 -0.0268492,0.0487977 -0.0311937,0.0461416 -0.0352773,0.0430999 -0.243913,-0.243103 0.0128711,-0.0179279 0.0113401,-0.0189335 0.00973091,-0.0198087 0.00805473,-0.0205474 0.00632307,-0.0211446 0.00454785,-0.0215961 0.0027413,-0.0218988 0.000915871,-0.0220507 -0.000984739,-0.0228633 -0.00294692,-0.0226939 -0.00488728,-0.0223565 -0.00679144,-0.0218535 -0.0086453,-0.0211886 -0.0104351,-0.0203668 -0.0121477,-0.0193942 -0.0137702,-0.0182779 -0.0152908,-0.0170262 -0.0166981,-0.0156484 -0.0179818,-0.0141547 -0.0191322,-0.0125562 -0.020141,-0.0108646 -0.0210005,-0.00909265 -0.0217046,-0.0072533 -0.0222479,-0.00536024 -0.0226263,-0.00342747 -0.0228373,-0.00146932 -0.022879,0.000499719 -0.0227513,0.00246505 -0.0224551,0.00441213 -0.0219926,0.00632653 -0.0213672,0.00819407 -0.0205835,0.0100009 -0.0196474,0.0117337 -0.0185657,0.0133796 -0.243913,-0.243103 z "/>
<path fill="rgb(187,30,16)" stroke="rgb(187,30,16)" d="M 1.81059,2.38178 l 0.0185657,-0.0133796 0.0196474,-0.0117337 0.0205835,-0.0100009 0.0213672,-0.00819407 0.0219926,-0.00632653 0.0224551,-0.00441213 0.0227513,-0.00246505 0.022879,-0.000499719 0.0228373,0.00146932 0.0226263,0.00342747 0.0222479,0.00536024 0.0217046,0.0072533 0.0210005,0.00909265 0.020141,0.0108646 0.0191322,0.0125562 0.0179818,0.0141547 0.0166981,0.0156484 0.0152908,0.0170262 0.0137702,0.0182779 0.0121477,0.0193942 0.0104351,0.0203668 0.0086453,0.0211886 0.00679144,0.0218535 0.00488728,0.0223565 0.00294692,0.0226939 0.000984739,0.0228633 -0.000915871,0.0220507 -0.0027413,0.0218988 -0.00454785,0.0215961 -0.00632307,0.0211446 -0.00805473,0.0205474 -0.00973091,0.0198087 -0.0113401,0.0189335 -0.0128711,0.0179279 -0.373986,-0.372744 z "/>
<path fill="rgb(187,30,16)" stroke="rgb(187,30,16)" d="M 4.38145,4.25598 l 0.108827,0.0475554 0.112814,0.0371201 0.115802,0.0263564 0.117766,0.0153595 0.118688,0.00422676 0.260687,0.259821 -1.02827,0 0.193689,-0.390439 z "/>
<path fill="rgb(187,30,16)" stroke="rgb(187,30,16)" d="M 5.37295,5.93231 l -0.234939,-0.234159 0.164992,0 0,-0.965049 0.214296,0.213584 0,0.985624 -0.144348,0 z "/>
<path fill="rgb(187,30,16)" stroke="rgb(187,30,16)" d="M 1.11186,1.68537 l 0.172961,-0.203711 0.188648,-0.189277 0.203135,-0.173638 1.75949,1.75364 -0.788186,0 -0.0266489,0.056678 -0.0314038,0.0541882 -0.035928,0.0513005 -0.0401884,0.048036 -0.0852409,-0.0849577 0.0352773,-0.0430999 0.0311937,-0.0461416 0.0268492,-0.0487977 0.0222804,-0.0510458 0.0175253,-0.0528673 0.0126238,-0.054247 0.00761673,-0.0551732 0.002546,-0.0556382 -0.00239408,-0.053956 -0.00716341,-0.0535319 -0.0118764,-0.0526871 -0.0164961,-0.0514282 -0.0209862,-0.0497651 -0.0253113,-0.0477108 -0.0294374,-0.0452816 -0.0333322,-0.0424964 -0.036965,-0.0393773 -0.0403073,-0.0359487 -0.0433328,-0.0322375 -0.0460177,-0.0282729 -0.0483409,-0.0240861 -0.0502842,-0.0197101 -0.0518322,-0.0151791 -0.0529729,-0.0105288 -0.0536972,-0.00579573 -0.0539995,-0.00101713 -0.0538774,0.00376946 -0.0533318,0.00852643 -0.0523671,0.0132164 -0.0509907,0.0178025 -0.0492136,0.0222486 -0.0470497,0.0265199 -0.044516,0.0305828 -0.0416325,0.0344052 -0.454822,-0.453311 z "/>
</g></g></svg>
