<?xml version="1.0" encoding="UTF-8" standalone="no"?>
<!DOCTYPE svg PUBLIC "-//W3C//DTD SVG 1.1//EN" "http://www.w3.org/Graphics/SVG/1.1/DTD/svg11-flat.dtd"
[

]>
<svg xmlns="http://www.w3.org/2000/svg"  viewBox="-0.09375 -0.09375 7.6875 7.6875"><g fill="none" stroke="black" stroke-width="0.0125" transform="translate(0,7.5) scale(1, -1)">
<g id="Output" >
<path fill="rgb(241,240,234)" stroke="rgb(241,240,234)" d="M 6.4,3.75 l -5.3,0 0.0100841,-0.230963 0.0301754,-0.229205 0.0500371,-0.225703 0.069518,-0.220483 0.0884698,-0.213585 0.106748,-0.205062 0.124214,-0.194978 0.140735,-0.18341 0.156185,-0.170446 0.170446,-0.156185 0.18341,-0.140735 0.194978,-0.124214 0.205062,-0.106748 0.213585,-0.0884698 0.220483,-0.069518 0.225703,-0.0500371 0.229205,-0.0301754 0.230963,-0.0100841 0.230963,0.0100841 0.229205,0.0301754 0.225703,0.0500371 0.220483,0.069518 0.213585,0.0884698 0.205062,0.106748 0.194978,0.124214 0.18341,0.140735 0.170446,0.156185 0.156185,0.170446 0.140735,0.18341 0.124214,0.194978 0.106748,0.205062 0.0884698,0.213585 0.069518,0.220483 0.0500371,0.225703 0.0301754,0.229205 0.0100841,0.230963 z "/>
<path fill="rgb(241,240,234)" stroke="rgb(241,240,234)" d="M 6.4,3.75 l -0.0100841,0.230963 -0.0301754,0.229205 -0.0500371,0.225703 -0.069518,0.220483 -0.0884698,0.213585 -0.106748,0.205062 -0.124214,0.194978 -0.140735,0.18341 -0.156185,0.170446 -0.170446,0.156185 -0.18341,0.140735 -0.194978,0.124214 -0.205062,0.106748 -0.213585,0.0884698 -0.220483,0.069518 -0.225703,0.0500371 -0.229205,0.0301754 -0.230963,0.0100841 -0.230963,-0.0100841 -0.229205,-0.0301754 -0.225703,-0.0500371 -0.220483,-0.069518 -0.213585,-0.0884698 -0.205062,-0.106748 -0.194978,-0.124214 -0.18341,-0.140735 -0.170446,-0.156185 -0.156185,-0.170446 -0.140735,-0.18341 -0.124214,-0.194978 -0.106748,-0.205062 -0.0884698,-0.213585 -0.069518,-0.220483 -0.0500371,-0.225703 -0.0301754,-0.229205 -0.0100841,-0.230963 5.3,0 z "/>
<path fill="rgb(241,240,234)" stroke="rgb(241,240,234)" d="M 0.2,3.75 l 0.0135088,-0.309403 0.0404237,-0.307048 0.0670308,-0.302357 0.0931279,-0.295364 0.118516,-0.286123 0.143002,-0.274705 0.1664,-0.261196 0.188532,-0.2457 0.209229,-0.228333 0.228333,-0.209229 0.2457,-0.188532 0.261196,-0.1664 0.274705,-0.143002 0.286123,-0.118516 0.295364,-0.0931279 0.302357,-0.0670308 0.307048,-0.0404237 0.309403,-0.0135088 0.309403,0.0135088 0.307048,0.0404237 0.302357,0.0670308 0.295364,0.0931279 0.286123,0.118516 0.274705,0.143002 0.261196,0.1664 0.2457,0.188532 0.228333,0.209229 0.209229,0.228333 0.188532,0.2457 0.1664,0.261196 0.143002,0.274705 0.118516,0.286123 0.0931279,0.295364 0.0670308,0.302357 0.0404237,0.307048 0.0135088,0.309403 -0.2,0 -0.0127478,-0.291972 -0.0381463,-0.28975 -0.0632545,-0.285322 -0.0878812,-0.278724 -0.111839,-0.270004 -0.134946,-0.259229 -0.157026,-0.246481 -0.17791,-0.231857 -0.197441,-0.215469 -0.215469,-0.197441 -0.231857,-0.17791 -0.246481,-0.157026 -0.259229,-0.134946 -0.270004,-0.111839 -0.278724,-0.0878812 -0.285322,-0.0632545 -0.28975,-0.0381463 -0.291972,-0.0127478 -0.291972,0.0127478 -0.28975,0.0381463 -0.285322,0.0632545 -0.278724,0.0878812 -0.270004,0.111839 -0.259229,0.134946 -0.246481,0.157026 -0.231857,0.17791 -0.215469,0.197441 -0.197441,0.215469 -0.17791,0.231857 -0.157026,0.246481 -0.134946,0.259229 -0.111839,0.270004 -0.0878812,0.278724 -0.0632545,0.285322 -0.0381463,0.28975 -0.0127478,0.291972 -0.2,0 z "/>
<path fill="rgb(241,240,234)" stroke="rgb(241,240,234)" d="M 0.2,3.75 l 0.2,0 0.0127478,0.291972 0.0381463,0.28975 0.0632545,0.285322 0.0878812,0.278724 0.111839,0.270004 0.134946,0.259229 0.157026,0.246481 0.17791,0.231857 0.197441,0.215469 0.215469,0.197441 0.231857,0.17791 0.246481,0.157026 0.259229,0.134946 0.270004,0.111839 0.278724,0.0878812 0.285322,0.0632545 0.28975,0.0381463 0.291972,0.0127478 0.291972,-0.0127478 0.28975,-0.0381463 0.285322,-0.0632545 0.278724,-0.0878812 0.270004,-0.111839 0.259229,-0.134946 0.246481,-0.157026 0.231857,-0.17791 0.215469,-0.197441 0.197441,-0.215469 0.17791,-0.231857 0.157026,-0.246481 0.134946,-0.259229 0.111839,-0.270004 0.0878812,-0.278724 0.0632545,-0.285322 0.0381463,-0.28975 0.0127478,-0.291972 0.2,0 -0.0135088,0.309403 -0.0404237,0.307048 -0.0670308,0.302357 -0.0931279,0.295364 -0.118516,0.286123 -0.143002,0.274705 -0.1664,0.261196 -0.188532,0.2457 -0.209229,0.228333 -0.228333,0.209229 -0.2457,0.188532 -0.261196,0.1664 -0.274705,0.143002 -0.286123,0.118516 -0.295364,0.0931279 -0.302357,0.0670308 -0.307048,0.0404237 -0.309403,0.0135088 -0.309403,-0.0135088 -0.307048,-0.0404237 -0.302357,-0.0670308 -0.295364,-0.0931279 -0.286123,-0.118516 -0.274705,-0.143002 -0.261196,-0.1664 -0.2457,-0.188532 -0.228333,-0.209229 -0.209229,-0.228333 -0.188532,-0.2457 -0.1664,-0.261196 -0.143002,-0.274705 -0.118516,-0.286123 -0.0931279,-0.295364 -0.0670308,-0.302357 -0.0404237,-0.307048 -0.0135088,-0.309403 z "/>
<path fill="rgb(42,41,42)" stroke="rgb(42,41,42)" d="M 5.28283,4.86006 l -0.00582416,0 -0.0647128,-0.00323564 -0.0621243,-0.00711841 -0.0595358,-0.0116483 -0.0575944,-0.0168253 -0.0550059,-0.0213552 -0.0524174,-0.0258851 -0.0498289,-0.030415 -0.0478875,-0.0349449 -0.0446519,-0.040122 -0.0427105,-0.0446519 -0.040122,-0.0485346 -0.0375334,-0.0537117 -0.030415,-0.0511231 -0.0284737,-0.0530645 -0.0258851,-0.0563002 -0.0232966,-0.0582416 -0.020061,-0.0608301 -0.0174725,-0.0627715 -0.014884,-0.0647128 -0.0122954,-0.0679485 -0.00970693,-0.0698899 -0.00647128,-0.0718313 -0.0045299,-0.0744198 -0.00129426,-0.0770083 0.00129426,-0.0770083 0.0045299,-0.0744198 0.00647128,-0.0718313 0.0090598,-0.0698899 0.0122954,-0.0679485 0.0142368,-0.06536 0.0174725,-0.0627715 0.020061,-0.0608301 0.0226495,-0.0588887 0.025238,-0.0563002 0.0278265,-0.0537117 0.0310622,-0.0517703 0.00711841,-0.0116483 0.0375334,-0.0530645 0.0394748,-0.0485346 0.0427105,-0.0440047 0.0446519,-0.0394748 0.0478875,-0.0349449 0.0498289,-0.0297679 0.0524174,-0.0258851 0.0550059,-0.0207081 0.0575944,-0.0161782 0.0601829,-0.0116483 0.0627715,-0.00647128 0.06536,-0.00258851 0.0207081,0 0.0640657,0.00388277 0.0621243,0.00841267 0.0588887,0.0135897 0.0569473,0.0174725 0.0537117,0.0226495 0.0517703,0.0271794 0.0485346,0.0317093 0.0465932,0.0368863 0.0440047,0.0407691 0.0407691,0.0459461 0.0388277,0.050476 0.0362392,0.0550059 -0.623185,0.0317093 -0.0478875,0.00194139 -0.0601829,0.0103541 -0.0563002,0.0194139 -0.0511231,0.0271794 -0.0472404,0.0355921 -0.0427105,0.0440047 -0.0381806,0.0524174 -0.0129426,0.0207081 -0.0258851,0.050476 -0.0226495,0.0543588 -0.0194139,0.0588887 -0.0155311,0.0634186 -0.0122954,0.0679485 -0.00841267,0.0718313 -0.00517703,0.0770083 -0.00194139,0.0808911 0,0.0265323 0.00388277,0.0750669 0.00711841,0.0711841 0.0110012,0.0679485 0.014884,0.0647128 0.0181196,0.0614772 0.0226495,0.0575944 0.0265323,0.0550059 0.0181196,0.0310622 0.0375334,0.0550059 0.0414162,0.0465932 0.0459461,0.0375334 0.0491818,0.0297679 0.0530645,0.0213552 0.0575944,0.0122954 0.0608301,0.0045299 0.619949,0.0375334 -0.00582416,0.00970693 -0.0368863,0.0537117 -0.0394748,0.0485346 -0.0420633,0.0440047 -0.0446519,0.040122 -0.0478875,0.0342978 -0.0498289,0.030415 -0.0524174,0.0258851 -0.0550059,0.0207081 -0.0575944,0.0161782 -0.0601829,0.0116483 -0.0627715,0.00711841 -0.06536,0.00258851 z "/>
<path fill="rgb(42,41,42)" stroke="rgb(42,41,42)" d="M 5.90278,4.51514 l -0.619949,-0.0375334 0.0446519,-0.00194139 0.0601829,-0.0103541 0.0563002,-0.0187667 0.0517703,-0.0271794 0.0472404,-0.0355921 0.0427105,-0.0446519 0.0381806,-0.0530645 0.00711841,-0.0110012 0.0265323,-0.0498289 0.0232966,-0.0543588 0.0194139,-0.0582416 0.0161782,-0.0627715 0.0129426,-0.0673014 0.00841267,-0.0718313 0.00582416,-0.0763612 0.00129426,-0.0795968 0,-0.0181196 -0.00258851,-0.0770083 -0.00647128,-0.0731255 -0.0103541,-0.0698899 -0.0135897,-0.0660071 -0.0174725,-0.0621243 -0.0207081,-0.0588887 -0.0245909,-0.0543588 -0.0278265,-0.0511231 -0.0284737,-0.0420633 -0.0407691,-0.0485346 -0.045299,-0.0394748 -0.0498289,-0.0310622 -0.0537117,-0.0220024 -0.0582416,-0.0129426 -0.0621243,-0.0045299 0.623185,-0.0317093 0.0271794,0.0478875 0.0278265,0.0543588 0.0245909,0.0563002 0.0226495,0.0588887 0.0194139,0.0608301 0.0168253,0.0634186 0.014884,0.06536 0.0116483,0.0673014 0.0090598,0.070537 0.00647128,0.0718313 0.00388277,0.0744198 0.00129426,0.0770083 -0.000647128,0.0582416 -0.00323564,0.0744198 -0.00647128,0.0718313 -0.0090598,0.070537 -0.0116483,0.0673014 -0.0142368,0.0660071 -0.0168253,0.0634186 -0.020061,0.0608301 -0.0226495,0.0588887 -0.025238,0.0569473 -0.0278265,0.0543588 -0.0310622,0.0524174 z "/>
<path fill="rgb(42,41,42)" stroke="rgb(42,41,42)" d="M 3.32397,4.86006 l -0.00388277,0 -0.0634186,-0.00258851 -0.0614772,-0.00582416 -0.0595358,-0.00970693 -0.0588887,-0.0142368 -0.0569473,-0.0174725 -0.0550059,-0.0213552 -0.0543588,-0.025238 -0.0517703,-0.0291208 -0.0511231,-0.0330035 -0.0491818,-0.0368863 -0.0478875,-0.0407691 -0.0465932,-0.0446519 -0.0446519,-0.0485346 0.256263,-0.263381 0.00129426,0.00129426 0.045299,0.0491818 0.0478875,0.0420633 0.0498289,0.0362392 0.0524174,0.0291208 0.0543588,0.0226495 0.0569473,0.0168253 0.0595358,0.00970693 0.0608301,0.00323564 0.649717,0.00582416 -0.0265323,0.0569473 -0.0336507,0.0530645 -0.0407691,0.050476 -0.0465932,0.0465932 -0.0226495,0.0194139 -0.0472404,0.0349449 -0.050476,0.030415 -0.0530645,0.0258851 -0.055653,0.0213552 -0.0588887,0.0161782 -0.0621243,0.0116483 -0.0647128,0.00711841 -0.0673014,0.00258851 z "/>
<path fill="rgb(42,41,42)" stroke="rgb(42,41,42)" d="M 3.95363,4.48343 l -0.649717,-0.00582416 0.0122954,0 0.0685956,-0.00517703 0.0614772,-0.0116483 0.0550059,-0.0194139 0.0478875,-0.0265323 0.00517703,-0.00323564 0.0491818,-0.045299 0.0291208,-0.0530645 0.00970693,-0.0614772 -0.0045299,-0.0427105 -0.0239438,-0.0575944 -0.0446519,-0.0498289 -0.0122954,-0.00970693 -0.050476,-0.0297679 -0.0575944,-0.0174725 -0.0660071,-0.00582416 -0.0789497,0 0,-0.385689 0.0931865,0 0.0174725,0 0.0679485,-0.00647128 0.0575944,-0.0142368 0.0485346,-0.0232966 0.0245909,-0.0155311 0.045299,-0.0433576 0.0375334,-0.0569473 0.0155311,-0.0330035 0.020061,-0.0640657 0.00647128,-0.0660071 -0.00647128,-0.0621243 -0.020061,-0.0588887 -0.0349449,-0.0524174 -0.0485346,-0.0459461 -0.045299,-0.0291208 -0.0517703,-0.0226495 -0.0582416,-0.0161782 -0.0640657,-0.0103541 -0.070537,-0.00323564 -0.751316,-0.0317093 0.0427105,-0.0491818 0.0433576,-0.0472404 0.0291208,-0.0291208 0.0465932,-0.0407691 0.0478875,-0.0368863 0.050476,-0.0323564 0.0517703,-0.0291208 0.0543588,-0.025238 0.055653,-0.0213552 0.0582416,-0.0174725 0.0601829,-0.0135897 0.0614772,-0.00970693 0.0640657,-0.00582416 0.06536,-0.00194139 0.045299,0.00129426 0.0647128,0.00517703 0.0627715,0.0090598 0.0601829,0.0142368 0.0575944,0.0181196 0.055653,0.0220024 0.0530645,0.0271794 0.050476,0.0310622 0.0485346,0.0355921 0.0459461,0.040122 0.0342978,0.0342978 0.0433576,0.050476 0.0375334,0.0524174 0.0323564,0.055653 0.0258851,0.0575944 0.020061,0.0595358 0.014884,0.0627715 0.00841267,0.0647128 0.00323564,0.0673014 -0.00323564,0.0692427 -0.0090598,0.0685956 -0.0161782,0.0634186 -0.0226495,0.0582416 -0.0181196,0.0355921 -0.0310622,0.0478875 -0.0388277,0.0511231 -0.0478875,0.0550059 -0.055653,0.0582416 0.0278265,0.0414162 0.0388277,0.06536 0.0317093,0.0627715 0.0245909,0.0614772 0.0181196,0.0595358 0.0103541,0.0582416 0.00388277,0.055653 -0.00129426,0.0342978 -0.00647128,0.0666542 -0.0135897,0.0640657 -0.020061,0.0601829 z "/>
<path fill="rgb(42,41,42)" stroke="rgb(42,41,42)" d="M 2.7998,3.30825 l -0.276324,-0.231672 0.0213552,-0.0271794 0.0420633,-0.0517703 0.751316,0.0317093 -0.0220024,0.000647128 -0.0640657,0.0045299 -0.0614772,0.0090598 -0.0588887,0.014884 -0.055653,0.020061 -0.0530645,0.025238 -0.050476,0.030415 -0.0472404,0.0355921 -0.0446519,0.0414162 -0.0420633,0.0459461 -0.0388277,0.0511231 z "/>
<path fill="rgb(42,41,42)" stroke="rgb(42,41,42)" d="M 2.13714,4.82511 l -0.276324,0 -0.0103541,-0.0174725 -0.0362392,-0.0524174 -0.0414162,-0.0459461 -0.0465932,-0.0394748 -0.0511231,-0.0330035 -0.0569473,-0.0265323 -0.0614772,-0.020061 0.00582416,-0.306739 0.245262,0 -0.00841267,-1.60811 0.337801,0 0,2.14976 z "/>
<path fill="rgb(187,30,16)" stroke="rgb(187,30,16)" d="M 0.2,3.75 l -0.2,0 0.0142699,-0.326834 0.042701,-0.324347 0.0708072,-0.319391 0.0983745,-0.312004 0.125193,-0.302243 0.151059,-0.290182 0.175775,-0.275912 0.199154,-0.259542 0.221016,-0.241197 0.241197,-0.221016 0.259542,-0.199154 0.275912,-0.175775 0.290182,-0.151059 0.302243,-0.125193 0.312004,-0.0983745 0.319391,-0.0708072 0.324347,-0.042701 0.326834,-0.0142699 0.326834,0.0142699 0.324347,0.042701 0.319391,0.0708072 0.312004,0.0983745 0.302243,0.125193 0.290182,0.151059 0.275912,0.175775 0.259542,0.199154 0.241197,0.221016 0.221016,0.241197 0.199154,0.259542 0.175775,0.275912 0.151059,0.290182 0.125193,0.302243 0.0983745,0.312004 0.0708072,0.319391 0.042701,0.324347 0.0142699,0.326834 -0.2,0 -0.0135088,-0.309403 -0.0404237,-0.307048 -0.0670308,-0.302357 -0.0931279,-0.295364 -0.118516,-0.286123 -0.143002,-0.274705 -0.1664,-0.261196 -0.188532,-0.2457 -0.209229,-0.228333 -0.228333,-0.209229 -0.2457,-0.188532 -0.261196,-0.1664 -0.274705,-0.143002 -0.286123,-0.118516 -0.295364,-0.0931279 -0.302357,-0.0670308 -0.307048,-0.0404237 -0.309403,-0.0135088 -0.309403,0.0135088 -0.307048,0.0404237 -0.302357,0.0670308 -0.295364,0.0931279 -0.286123,0.118516 -0.274705,0.143002 -0.261196,0.1664 -0.2457,0.188532 -0.228333,0.209229 -0.209229,0.228333 -0.188532,0.2457 -0.1664,0.261196 -0.143002,0.274705 -0.118516,0.286123 -0.0931279,0.295364 -0.0670308,0.302357 -0.0404237,0.307048 -0.0135088,0.309403 z "/>
<path fill="rgb(187,30,16)" stroke="rgb(187,30,16)" d="M 0.2,3.75 l 0.0135088,0.309403 0.0404237,0.307048 0.0670308,0.302357 0.0931279,0.295364 0.118516,0.286123 0.143002,0.274705 0.1664,0.261196 0.188532,0.2457 0.209229,0.228333 0.228333,0.209229 0.2457,0.188532 0.261196,0.1664 0.274705,0.143002 0.286123,0.118516 0.295364,0.0931279 0.302357,0.0670308 0.307048,0.0404237 0.309403,0.0135088 0.309403,-0.0135088 0.307048,-0.0404237 0.302357,-0.0670308 0.295364,-0.0931279 0.286123,-0.118516 0.274705,-0.143002 0.261196,-0.1664 0.2457,-0.188532 0.228333,-0.209229 0.209229,-0.228333 0.188532,-0.2457 0.1664,-0.261196 0.143002,-0.274705 0.118516,-0.286123 0.0931279,-0.295364 0.0670308,-0.302357 0.0404237,-0.307048 0.0135088,-0.309403 0.2,0 -0.0142699,0.326834 -0.042701,0.324347 -0.0708072,0.319391 -0.0983745,0.312004 -0.125193,0.302243 -0.151059,0.290182 -0.175775,0.275912 -0.199154,0.259542 -0.221016,0.241197 -0.241197,0.221016 -0.259542,0.199154 -0.275912,0.175775 -0.290182,0.151059 -0.302243,0.125193 -0.312004,0.0983745 -0.319391,0.0708072 -0.324347,0.042701 -0.326834,0.0142699 -0.326834,-0.0142699 -0.324347,-0.042701 -0.319391,-0.0708072 -0.312004,-0.0983745 -0.302243,-0.125193 -0.290182,-0.151059 -0.275912,-0.175775 -0.259542,-0.199154 -0.241197,-0.221016 -0.221016,-0.241197 -0.199154,-0.259542 -0.175775,-0.275912 -0.151059,-0.290182 -0.125193,-0.302243 -0.0983745,-0.312004 -0.0708072,-0.319391 -0.042701,-0.324347 -0.0142699,-0.326834 0.2,0 z "/>
<path fill="rgb(187,30,16)" stroke="rgb(187,30,16)" d="M 6.4,3.75 l -0.0100841,-0.230963 -0.0301754,-0.229205 -0.0500371,-0.225703 -0.069518,-0.220483 -0.0884698,-0.213585 -0.106748,-0.205062 -0.124214,-0.194978 -0.140735,-0.18341 -0.156185,-0.170446 -0.170446,-0.156185 -0.18341,-0.140735 -0.194978,-0.124214 -0.205062,-0.106748 -0.213585,-0.0884698 -0.220483,-0.069518 -0.225703,-0.0500371 -0.229205,-0.0301754 -0.230963,-0.0100841 -0.230963,0.0100841 -0.229205,0.0301754 -0.225703,0.0500371 -0.220483,0.069518 -0.213585,0.0884698 -0.205062,0.106748 -0.194978,0.124214 -0.18341,0.140735 -0.170446,0.156185 -0.156185,0.170446 -0.140735,0.18341 -0.124214,0.194978 -0.106748,0.205062 -0.0884698,0.213585 -0.069518,0.220483 -0.0500371,0.225703 -0.0301754,0.229205 -0.0100841,0.230963 -0.7,0 0.0127478,-0.291972 0.0381463,-0.28975 0.0632545,-0.285322 0.0878812,-0.278724 0.111839,-0.270004 0.134946,-0.259229 0.157026,-0.246481 0.17791,-0.231857 0.197441,-0.215469 0.215469,-0.197441 0.231857,-0.17791 0.246481,-0.157026 0.259229,-0.134946 0.270004,-0.111839 0.278724,-0.0878812 0.285322,-0.0632545 0.28975,-0.0381463 0.291972,-0.0127478 0.291972,0.0127478 0.28975,0.0381463 0.285322,0.0632545 0.278724,0.0878812 0.270004,0.111839 0.259229,0.134946 0.246481,0.157026 0.231857,0.17791 0.215469,0.197441 0.197441,0.215469 0.17791,0.231857 0.157026,0.246481 0.134946,0.259229 0.111839,0.270004 0.0878812,0.278724 0.0632545,0.285322 0.0381463,0.28975 0.0127478,0.291972 -0.7,0 z "/>
<path fill="rgb(187,30,16)" stroke="rgb(187,30,16)" d="M 6.4,3.75 l 0.7,0 -0.0127478,0.291972 -0.0381463,0.28975 -0.0632545,0.285322 -0.0878812,0.278724 -0.111839,0.270004 -0.134946,0.259229 -0.157026,0.246481 -0.17791,0.231857 -0.197441,0.215469 -0.215469,0.197441 -0.231857,0.17791 -0.246481,0.157026 -0.259229,0.134946 -0.270004,0.111839 -0.278724,0.0878812 -0.285322,0.0632545 -0.28975,0.0381463 -0.291972,0.0127478 -0.291972,-0.0127478 -0.28975,-0.0381463 -0.285322,-0.0632545 -0.278724,-0.0878812 -0.270004,-0.111839 -0.259229,-0.134946 -0.246481,-0.157026 -0.231857,-0.17791 -0.215469,-0.197441 -0.197441,-0.215469 -0.17791,-0.231857 -0.157026,-0.246481 -0.134946,-0.259229 -0.111839,-0.270004 -0.0878812,-0.278724 -0.0632545,-0.285322 -0.0381463,-0.28975 -0.0127478,-0.291972 0.7,0 0.0100841,0.230963 0.0301754,0.229205 0.0500371,0.225703 0.069518,0.220483 0.0884698,0.213585 0.106748,0.205062 0.124214,0.194978 0.140735,0.18341 0.156185,0.170446 0.170446,0.156185 0.18341,0.140735 0.194978,0.124214 0.205062,0.106748 0.213585,0.0884698 0.220483,0.069518 0.225703,0.0500371 0.229205,0.0301754 0.230963,0.0100841 0.230963,-0.0100841 0.229205,-0.0301754 0.225703,-0.0500371 0.220483,-0.069518 0.213585,-0.0884698 0.205062,-0.106748 0.194978,-0.124214 0.18341,-0.140735 0.170446,-0.156185 0.156185,-0.170446 0.140735,-0.18341 0.124214,-0.194978 0.106748,-0.205062 0.0884698,-0.213585 0.069518,-0.220483 0.0500371,-0.225703 0.0301754,-0.229205 0.0100841,-0.230963 z "/>
</g></g></svg>
