<?xml version="1.0" encoding="UTF-8" standalone="no"?>
<!DOCTYPE svg PUBLIC "-//W3C//DTD SVG 1.1//EN" "http://www.w3.org/Graphics/SVG/1.1/DTD/svg11-flat.dtd"
[

]>
<svg xmlns="http://www.w3.org/2000/svg"  viewBox="-0.09375 -0.09375 7.6875 7.6875"><g fill="none" stroke="black" stroke-width="0.0125" transform="translate(0,7.5) scale(1, -1)">
<g id="Output" >
<path fill="rgb(241,240,234)" stroke="rgb(241,240,234)" d="M 5.28249,2.98237 l 0.0112339,0.0232723 0.00918947,0.0241527 0.0070768,0.024854 0.00491162,0.0253708 0.00271,0.0256993 0.000488276,0.0258372 -0.00173707,0.0257834 -0.00394954,0.0255382 -0.00613269,0.0251036 -0.00827035,0.0244827 -0.0103466,0.0236801 -0.0123461,0.0227018 -0.0142541,0.0215551 -0.0160562,0.0202484 -0.0177392,0.0187915 -0.0192906,0.0171952 -0.0206988,0.0154713 -0.0219535,0.0136325 -0.0230452,0.0116926 -0.023966,0.009666 -0.0247089,0.00756764 -0.0252685,0.00541313 -0.0256406,0.00321845 -0.0258225,0.000999883 -0.0258127,-0.0012261 -0.0256115,-0.00344298 -0.0252201,-0.00563432 -0.0246417,-0.00778385 -0.0238804,-0.00987562 -0.0229419,-0.0118941 0.0229419,0.0118941 0.0238804,0.00987562 0.0246417,0.00778385 0.0252201,0.00563432 0.0256115,0.00344298 0.0258127,0.0012261 0.0258225,-0.000999883 0.0256406,-0.00321845 0.0252685,-0.00541313 0.0247089,-0.00756764 0.023966,-0.009666 0.0230452,-0.0116926 0.0219535,-0.0136325 0.0206988,-0.0154713 0.0192906,-0.0171952 0.0177392,-0.0187915 0.0160562,-0.0202484 0.0142541,-0.0215551 0.0123461,-0.0227018 0.0103466,-0.0236801 0.00827035,-0.0244827 0.00613269,-0.0251036 0.00394954,-0.0255382 0.00173707,-0.0257834 -0.000488276,-0.0258372 -0.00271,-0.0256993 -0.00491162,-0.0253708 -0.0070768,-0.024854 -0.00918947,-0.0241527 -0.0112339,-0.0232723 z "/>
<path fill="rgb(241,240,234)" stroke="rgb(241,240,234)" d="M 4.74395,3.00266 l 0.0118811,-0.0238649 0.0139528,-0.0227159 0.0159143,-0.0213876 0.0177502,-0.0198903 0.0194458,-0.018236 0.020988,-0.0164377 0.0223644,-0.0145096 0.0235642,-0.0124669 0.0245779,-0.0103258 0.0253975,-0.00810314 0.0144365,0.0213738 0.0125472,0.0225348 0.0105652,0.0235292 0.00850511,0.0243498 0.00638215,0.0249903 0.00421201,0.0254462 0.00201074,0.0257139 -0.254495,0 z "/>
<path fill="rgb(241,240,234)" stroke="rgb(241,240,234)" d="M 4.93979,2.83473 l 0.0261,-0.00583126 0.0265156,-0.00348372 0.0267205,-0.0011085 0.026713,0.00127554 0.0264933,0.00364943 0.026063,0.00599433 0.0254256,0.00829158 0.0245862,0.010523 0.0235514,0.0126707 0.0223294,0.0147177 0.0209299,0.0166478 0.0193642,0.0184456 0.0176445,0.0200968 0.0157847,0.0215884 0.0137994,0.0229083 0.00022721,0.000419105 0.000226544,0.000419465 0.000225877,0.000419825 0.0112339,0.0232723 0.00918947,0.0241527 0.0070768,0.024854 0.00491162,0.0253708 0.00271,0.0256993 0.000488276,0.0258372 -0.00173707,0.0257834 -0.00394954,0.0255382 -0.00613269,0.0251036 -0.00827035,0.0244827 -0.0103466,0.0236801 -0.0123461,0.0227018 -0.0142541,0.0215551 -0.0160562,0.0202484 -0.0177392,0.0187915 -0.0192906,0.0171952 -0.0206988,0.0154713 -0.0219535,0.0136325 -0.0230452,0.0116926 -0.023966,0.009666 -0.0247089,0.00756764 -0.0252685,0.00541313 -0.0256406,0.00321845 -0.0258225,0.000999883 -0.0258127,-0.0012261 -0.0256115,-0.00344298 -0.0252201,-0.00563432 -0.0246417,-0.00778385 -0.0238804,-0.00987562 -0.0229419,-0.0118941 -0.000223839,-0.0001287 -0.000223728,-0.000128892 -0.000223617,-0.000129085 -1.61455e-05,-9.33007e-06 -1.6145e-05,-9.33107e-06 -1.61444e-05,-9.33208e-06 -0.0207496,-0.0131571 -0.0196034,-0.0148109 -0.0183257,-0.0163653 -0.0169251,-0.01781 -0.0154109,-0.0191353 0.0238447,-0.00753538 0.0231343,-0.00949509 0.0222631,-0.0113888 0.0212372,-0.0132034 0.199547,0 0.0112632,-0.000491762 0.0111775,-0.00147154 0.0110067,-0.00244012 0.0107521,-0.00339013 0.0104157,-0.00431434 0.0100001,-0.00520572 0.00950833,-0.00605747 0.0089442,-0.00686313 0.00831201,-0.00761655 0.00761655,-0.00831201 0.00686313,-0.0089442 0.00605747,-0.00950833 0.00520572,-0.0100001 0.00431434,-0.0104157 0.00339013,-0.0107521 0.00244012,-0.0110067 0.00147154,-0.0111775 0.000491762,-0.0112632 -0.000491762,-0.0112632 -0.00147154,-0.0111775 -0.00244012,-0.0110067 -0.00339013,-0.0107521 -0.00431434,-0.0104157 -0.00520572,-0.0100001 -0.00605747,-0.00950833 -0.00686313,-0.0089442 -0.00761655,-0.00831201 -0.00831201,-0.00761655 -0.0089442,-0.00686313 -0.00950833,-0.00605747 -0.0100001,-0.00520572 -0.0104157,-0.00431434 -0.0107521,-0.00339013 -0.0110067,-0.00244012 -0.0111775,-0.00147154 -0.0112632,-0.000491762 -0.0686087,0 -0.00201074,-0.0257139 -0.00421201,-0.0254462 -0.00638215,-0.0249903 -0.00850511,-0.0243498 -0.0105652,-0.0235292 -0.0125472,-0.0225348 -0.0144365,-0.0213738 z "/>
<path fill="rgb(241,240,234)" stroke="rgb(241,240,234)" d="M 4.7512,3.26112 l 0.116304,0 -0.0212372,0.0132034 -0.0222631,0.0113888 -0.0231343,0.00949509 -0.0238447,0.00753538 -0.00936025,-0.0133981 -0.0086167,-0.013888 -0.00784758,-0.0143366 z "/>
<path fill="rgb(241,240,234)" stroke="rgb(241,240,234)" d="M 2.56445,3.41852 l -0.000105447,2.09912e-05 -0.000105455,2.09534e-05 -0.000105462,2.09156e-05 -8.88778e-05,1.7596e-05 -8.88832e-05,1.75691e-05 -8.88885e-05,1.75423e-05 -0.0255558,0.00390412 -0.0257971,0.00168941 -0.0258467,-0.000537844 -0.0257045,-0.0027611 -0.0253713,-0.00496386 -0.0248497,-0.00712976 -0.0241436,-0.00924271 -0.0232582,-0.011287 -0.0222001,-0.0132475 -0.0209772,-0.0151096 -0.0195984,-0.0168595 -0.0180741,-0.0184843 -0.0164156,-0.0199717 -0.0146352,-0.0213108 -0.0127462,-0.0224917 -0.0107624,-0.0235056 -0.00869876,-0.0243449 -0.0065705,-0.0250034 -0.00439345,-0.0254763 -0.00218377,-0.0257599 4.21213e-05,-0.0258523 0.0022677,-0.0257527 0.00447644,-0.0254618 0.00665194,-0.0249819 0.00877804,-0.0243164 0.010839,-0.0234704 0.0128194,-0.0224501 0.0147046,-0.021263 0.0164806,-0.0199181 0.0181343,-0.0184253 0.0196533,-0.0167956 0.0210263,-0.0150412 0.0222432,-0.0131751 0.0232949,-0.0112112 0.0241736,-0.00916398 0.0248728,-0.00704874 0.0253873,-0.00488116 0.0257133,-0.00267733 0.0258483,-0.000453617 -0.015197,0.0204945 -0.0134006,0.0217117 -0.0115073,0.0227718 -0.00953071,0.0236673 -0.00748522,0.0243915 -0.0053856,0.0249393 -0.00324702,0.0253067 -0.00108496,0.0254911 0.00100686,0.0245581 0.00301382,0.0243933 0.00500055,0.0240647 0.00695372,0.0235746 -0.00397562,0.00163429 -0.00382056,0.00196971 -0.00363727,0.00229057 -0.00342709,0.00259451 -0.00319159,0.00287927 -0.0029325,0.00314276 -0.00265173,0.00338301 -0.00235137,0.00359827 -0.00203363,0.00378693 -0.00170086,0.0039476 -0.00135552,0.0040791 -0.00100016,0.00418045 -0.000637409,0.0042509 -0.000269947,0.00428994 9.9509e-05,0.00429727 0.00046823,0.00427285 0.00083349,0.00421684 0.00119259,0.00412967 0.00154288,0.00401198 0.00188176,0.00386464 0.128789,0.237933 z "/>
<path fill="rgb(241,240,234)" stroke="rgb(241,240,234)" d="M 2.56445,3.41852 l -0.128789,-0.237933 0.128789,0.237933 -1.86517e-14,7.99361e-15 z "/>
<path fill="rgb(241,240,234)" stroke="rgb(241,240,234)" d="M 2.65864,3.38246 l -0.0580502,-0.107246 0.0215422,0.0108954 0.0223485,0.00912807 0.0230101,0.0073016 0.0235227,0.00542786 0.0238829,0.00351896 0.0240885,0.00158729 -0.0176878,0.0199627 -0.0193909,0.0183128 -0.0209408,0.0165182 -0.0223251,0.014593 z "/>
<path fill="rgb(241,240,234)" stroke="rgb(241,240,234)" d="M 2.51349,2.8244 l 0.0256148,0.0017537 0.0253711,0.00393745 0.0249415,0.00609236 0.0243292,0.00820265 0.0235388,0.0102529 0.0225759,0.012228 0.0214477,0.0141135 0.0201624,0.0158957 0.0187294,0.0175615 0.0171592,0.0190986 0.0154634,0.0204958 0.0136542,0.0217429 0.0117451,0.0228308 0.00974998,0.0237515 0.00768343,0.0244981 0.0055606,0.0250654 0.00339704,0.025449 0.0012086,0.0256463 -0.000988698,0.0256557 -0.00317875,0.0254772 -0.00534552,0.0251121 -0.00747313,0.0245631 -0.00954601,0.0238342 -0.011549,0.0229307 -0.0134673,0.0218592 -0.0152871,0.0206276 -0.0240885,-0.00158729 -0.0238829,-0.00351896 -0.0235227,-0.00542786 -0.0230101,-0.0073016 -0.0223485,-0.00912807 -0.0215422,-0.0108954 -0.0769884,-0.142234 -3.55271e-15,-7.10543e-15 -0.00228555,-0.0038081 -0.00261446,-0.00359026 -0.00292274,-0.00334409 -0.00320796,-0.00307154 -0.00346787,-0.00277475 -0.00370042,-0.00245607 -0.00390377,-0.00211801 -0.00407632,-0.00176324 -0.00421671,-0.00139455 -0.00432382,-0.00101486 -0.00439682,-0.00062717 -0.00443513,-0.000234526 -0.00443845,0.000159968 -0.00440674,0.0005532 -0.00434027,0.000942067 -0.00423955,0.0013235 -0.00695372,-0.0235746 -0.00500055,-0.0240647 -0.00301382,-0.0243933 -0.00100686,-0.0245581 0.00108496,-0.0254911 0.00324702,-0.0253067 0.0053856,-0.0249393 0.00748522,-0.0243915 0.00953071,-0.0236673 0.0115073,-0.0227718 0.0134006,-0.0217117 0.015197,-0.0204945 z "/>
<path fill="rgb(241,240,234)" stroke="rgb(241,240,234)" d="M 4.96928,6.1 l -0.869283,0 0,-1 1,0 0,0.929041 -0.025,0.0159268 -0.105717,0.0550327 z "/>
<path fill="rgb(241,240,234)" stroke="rgb(241,240,234)" d="M 5.1,4.16994 l -0.149117,-0.0699361 0.149117,0 0,0.0699361 z M 4.1,4.24108 l 0.0213025,0.014401 0.025609,0.014242 0.0267486,0.0119652 2.57572e-14,0 0.113375,0 0.000871557,-3.8053e-05 0.000864924,-0.000113869 0.000851709,-0.000188819 0.000832011,-0.000262332 0.000805981,-0.000333848 0.000773817,-0.000402824 0.000735764,-0.000468734 0.000692112,-0.000531076 0.000643192,-0.000589377 0.000589377,-0.000643192 0.000531076,-0.000692112 0.000468734,-0.000735764 0.000402824,-0.000773817 0.000333848,-0.000805981 0.000262332,-0.000832011 0.000188819,-0.000851709 0.000113869,-0.000864924 3.8053e-05,-0.000871557 0,-0.0353762 3.8053e-05,-0.000871557 0.000113869,-0.000864924 0.000188819,-0.000851709 0.000262332,-0.000832011 0.000333848,-0.000805981 0.000402824,-0.000773817 0.000468734,-0.000735764 0.000531076,-0.000692112 0.000589377,-0.000643192 0.000643192,-0.000589377 0.000692112,-0.000531076 0.000735764,-0.000468734 0.000773817,-0.000402824 0.000805981,-0.000333848 0.000832011,-0.000262332 0.000851709,-0.000188819 0.000864924,-0.000113869 0.000871557,-3.8053e-05 8.88178e-15,0 0.792965,0 0,0.873687 -1,0 0,-0.858919 z "/>
<path fill="rgb(241,240,234)" stroke="rgb(241,240,234)" d="M 5.1,3.77447 l -0.0543262,0.00467155 -0.0574305,-0.000107566 -0.0572006,-0.00513465 -0.0565315,-0.0101223 -0.0554284,-0.0150322 -0.0538997,-0.0198268 -0.0519571,-0.0244691 -0.0496156,-0.0289235 -0.0468931,-0.0331558 -0.0438106,-0.0371336 -0.0403918,-0.0408262 -0.0366627,-0.0442054 -0.0326522,-0.0472452 -0.028391,-0.0499222 -0.0239118,-0.0522159 -0.019249,-0.0541087 -0.0144384,-0.055586 0.152543,0 0.0232247,0.014317 0.0244293,0.0121479 0.0254319,0.00987826 0.0166593,0.0355146 0.0196889,0.0339288 0.022569,0.0320852 0.0252775,0.0299977 0.027794,0.0276823 0.0300992,0.0251566 0.0321758,0.0224396 0.0340078,0.0195522 0.0355814,0.0165162 0.0368846,0.0133546 0.0379075,0.0100916 0.0386423,0.00675192 0.0390835,0.00336091 0.0392277,-5.56374e-05 0.0390738,-0.00347177 0.0224897,-0.00399537 0,0.208091 z M 4.1,3.69542 l 0,-0.255745 0.214573,0.151085 0.512781,0.295619 0.272646,0.125846 0,0.0877715 -0.149117,0 -0.107493,-0.0504144 -0.326724,-0.175887 -0.316503,-0.193677 -0.000138917,-9.03812e-05 -0.000138915,-9.03847e-05 -0.000138912,-9.03881e-05 -0.000358937,-0.000233577 -0.000358922,-0.0002336 -0.000358907,-0.000233623 -0.000300543,-0.000195657 -0.000300533,-0.000195673 -0.000300522,-0.000195689 -0.00906328,-0.00591244 -0.00905373,-0.00592705 -0.00904416,-0.00594164 -0.000780861,-0.000464484 -0.000819796,-0.000391694 -0.000851964,-0.00031567 -0.000877099,-0.000237041 -0.000894993,-0.000156455 -0.000905499,-7.4577e-05 -0.00090853,7.9163e-06 -0.000904062,9.03443e-05 -0.000892131,0.000172027 -0.000872835,0.000252289 -0.000846334,0.000330468 -0.0262417,0.0130395 -0.0250107,0.0152682 -0.00980144,0.00722166 z "/>
<path fill="rgb(241,240,234)" stroke="rgb(241,240,234)" d="M 3.9876,4.1 l -0.598247,0 -0.00131154,-0.0139406 -0.00940184,-0.0510853 -0.0138652,-0.0500585 -0.0182208,-0.0486426 -0.0224348,-0.0468485 -0.0264743,-0.0446902 -0.030308,-0.0421844 -0.0339061,-0.0393507 0.0144871,-0.0676407 0.0203675,-0.0661083 0.0260907,-0.0640657 0.0316126,-0.0615288 0.0368905,-0.058517 0.0418837,-0.0550536 0.0465537,-0.0511654 0.0508645,-0.0468823 0.0547827,-0.0422374 0.273655,0 0.269385,0.189679 0,0.255745 -0.0137895,0.01016 -0.021993,0.0193639 -0.0202291,0.0212 -0.0183125,0.0228759 -0.0162576,0.0243792 -0.0140799,0.0256984 -0.011796,0.0268237 -0.00942301,0.0277464 -0.00697888,0.0284596 -0.00448207,0.028958 -0.00195142,0.0292378 0.000593964,0.0292968 0.00313486,0.0291346 0.00565209,0.0287525 0.00812665,0.0281534 0.00938109,0.0243357 z "/>
<path fill="rgb(241,240,234)" stroke="rgb(241,240,234)" d="M 4.96928,6.1 l -0.0993448,0.0517156 -0.213585,0.0884698 -0.220483,0.069518 -0.225703,0.0500371 -0.110168,0.0145038 0,-0.274244 0.869283,0 z "/>
<path fill="rgb(241,240,234)" stroke="rgb(241,240,234)" d="M 6.1,4.1 l 0.274244,0 -0.0145038,0.110168 -0.0500371,0.225703 -0.069518,0.220483 -0.0884698,0.213585 -0.0517156,0.0993448 0,-0.869283 z "/>
<path fill="rgb(241,240,234)" stroke="rgb(241,240,234)" d="M 6.31766,3.1 l 0.0420848,0.189832 0.0301754,0.229205 0.0100841,0.230963 -0.0100841,0.230963 -0.0156716,0.119037 -0.274244,0 0,-1 0.217656,0 z "/>
<path fill="rgb(241,240,234)" stroke="rgb(241,240,234)" d="M 6.1,3.1 l 0,-0.569283 0.0517156,0.0993448 0.0884698,0.213585 0.069518,0.220483 0.00795229,0.0358705 -0.217656,0 z "/>
<path fill="rgb(241,240,234)" stroke="rgb(241,240,234)" d="M 6.02904,5.1 l -0.108288,0.169978 -0.140735,0.18341 -0.156185,0.170446 -0.170446,0.156185 -0.18341,0.140735 -0.169978,0.108288 0,-0.929041 0.929041,0 z "/>
<path fill="rgb(241,240,234)" stroke="rgb(241,240,234)" d="M 6.02904,5.1 l -0.929041,0 0,-0.873687 0.0753423,0 0.000879732,-3.87716e-05 0.00087291,-0.000116014 0.00085932,-0.000192357 0.000839066,-0.000267208 0.000812305,-0.000339988 0.000779246,-0.00041013 0.000740144,-0.000477093 0.000695303,-0.000540356 0.000645071,-0.000599429 0.000589836,-0.000653854 0.000530027,-0.000703209 0.000466109,-0.00074711 0.000398576,-0.000785219 0.000327952,-0.000817238 0.000254786,-0.000842921 0.000179644,-0.000862067 0.000103108,-0.000874529 2.57734e-05,-0.000880209 -5.17613e-05,-0.000879063 -0.000128895,-0.000871101 -0.000205028,-0.000856385 -0.000279572,-0.000835027 -0.000351948,-0.000807195 -0.000421595,-0.000773103 -0.000487973,-0.000733017 -0.000550567,-0.000687246 -0.000608892,-0.000636147 -0.000662495,-0.000580114 -0.000710961,-0.000519583 -0.000753914,-0.000455023 -0.00079102,-0.000386935 -0.0793366,-0.0372091 0,-0.0699361 0.190157,0 0.0746033,0.034435 0.00630687,0.00224888 0.00648231,0.00167742 0.00660608,0.00109259 0.0066772,0.000499045 0.0066951,-9.84745e-05 0.00665963,-0.000695209 0.00657109,-0.0012864 0.00643017,-0.00186734 0.006238,-0.0024334 0.00599611,-0.00298006 0.00570642,-0.00350297 0.00537126,-0.00399796 7.98347e-05,-6.52487e-05 7.97449e-05,-6.53584e-05 7.9655e-05,-6.5468e-05 0.00496629,-0.00447321 0.00454832,-0.00489759 0.00409423,-0.00528308 0.00360762,-0.0056266 0.00136446,-0.00261452 0.640679,0 0,0.869283 -0.0550327,0.105717 -0.0159268,0.025 z "/>
<path fill="rgb(241,240,234)" stroke="rgb(241,240,234)" d="M 5.45932,4.1 l 0.0017279,-0.00331092 0.00255255,-0.00617723 0.00199246,-0.00637995 0.00141654,-0.006532 0.000829378,-0.00663217 0.000235627,-0.00667968 -0.000359995,-0.00667413 -0.000952758,-0.00661558 -0.00153795,-0.00650448 -0.00211094,-0.00634173 -0.00266715,-0.00612861 -0.00320219,-0.00586682 -0.00371179,-0.00555844 -0.00419192,-0.00520591 -0.234394,-0.265908 -0.0554843,0.0148245 -0.056569,0.00991047 -0.00289328,0.000248796 0,-0.208091 0.0161333,-0.00286614 0.0378787,-0.0101991 0.0368465,-0.0134592 0.0355344,-0.016617 0.0339522,-0.0196486 0.032112,-0.0225308 0.0300278,-0.0252418 0.0277153,-0.0277611 0.0251923,-0.0300693 0.0226943,-0.0324895 0.0197477,-0.0343602 0.016648,-0.0359645 0.0134192,-0.0372897 0.0100863,-0.0383258 0.00667517,-0.0390646 0.00321227,-0.0395004 -0.000275554,-0.0396298 -0.000129652,-0.00135993 0.63253,0 0,1 -0.640679,0 z M 5.1,4.01223 l 0.190157,0.0877715 -0.190157,0 0,-0.0877715 z "/>
<path fill="rgb(241,240,234)" stroke="rgb(241,240,234)" d="M 5.82098,2.1 l 0.0997697,0.130022 0.124214,0.194978 0.0550327,0.105717 0,0.569283 -0.63253,0 -0.00363158,-0.038092 -0.00721775,-0.038968 -0.0106183,-0.0381818 -0.0139364,-0.0370995 -0.0171465,-0.0357295 -0.0202236,-0.0340823 -0.0231439,-0.0321708 -0.0258846,-0.0300098 -0.0284246,-0.027616 -0.0307441,-0.025008 -0.0328251,-0.0222061 -0.0346516,-0.0192319 -0.0362093,-0.0161086 -0.0374861,-0.0128603 -0.0384723,-0.00951231 -0.00685453,-0.00106608 0,-0.582057 0.720983,0 z "/>
<path fill="rgb(241,240,234)" stroke="rgb(241,240,234)" d="M 5.1,2.1 l 0,-0.629041 0.169978,0.108288 0.18341,0.140735 0.170446,0.156185 0.156185,0.170446 0.0409654,0.0533872 -0.720983,0 z "/>
<path fill="rgb(241,240,234)" stroke="rgb(241,240,234)" d="M 4.1,2.9488 l 0,-0.848803 1,0 0,0.582057 -0.0323055,-0.00502444 -0.039544,-0.00262148 -0.0396213,0.000867882 -0.0393913,0.00435052 -0.0388557,0.00779941 -0.0380188,0.0111878 -0.0368871,0.0144894 -0.0354692,0.0176787 -0.0244731,-0.00761405 -0.0250336,-0.00549734 -0.0254115,-0.00334051 -0.0256039,-0.0011593 -0.0256094,0.00103037 -0.025428,0.00321253 -0.025061,0.00537123 -0.0245111,0.00749073 -0.0237823,0.00955556 -0.0228798,0.0115506 -0.0218104,0.0134614 -0.0205818,0.0152739 -0.019203,0.016975 -0.017684,0.0185521 -0.0160359,0.0199938 -0.0142708,0.0212896 -0.0124015,0.02243 -0.0104417,0.0234067 -0.00840574,0.0242126 -0.00630838,0.0248417 -0.00416497,0.0252895 -0.00199117,0.0255527 -0.036045,0 0,-0.0438611 -3.8053e-05,-0.000871557 -0.000113869,-0.000864924 -0.000188819,-0.000851709 -0.000262332,-0.000832011 -0.000333848,-0.000805981 -0.000402824,-0.000773817 -0.000468734,-0.000735764 -0.000531076,-0.000692112 -0.000589377,-0.000643192 -0.000643192,-0.000589377 -0.000692112,-0.000531076 -0.000735764,-0.000468734 -0.000773817,-0.000402824 -0.000805981,-0.000333848 -0.000832011,-0.000262332 -0.000851709,-0.000188819 -0.000864924,-0.000113869 -0.000871557,-3.8053e-05 -8.88178e-15,0 -0.252769,0 z "/>
<path fill="rgb(241,240,234)" stroke="rgb(241,240,234)" d="M 4.1,2.1 l 0,-0.974244 0.110168,0.0145038 0.225703,0.0500371 0.220483,0.069518 0.213585,0.0884698 0.205062,0.106748 0.025,0.0159268 0,0.629041 -1,0 z "/>
<path fill="rgb(241,240,234)" stroke="rgb(241,240,234)" d="M 3.1,6.31766 l 0,-0.217656 1,0 0,0.274244 -0.119037,0.0156716 -0.230963,0.0100841 -0.230963,-0.0100841 -0.229205,-0.0301754 -0.189832,-0.0420848 z "/>
<path fill="rgb(241,240,234)" stroke="rgb(241,240,234)" d="M 3.1,5.1 l 1,0 0,1 -1,0 0,-1 z "/>
<path fill="rgb(241,240,234)" stroke="rgb(241,240,234)" d="M 3.74142,4.73412 l 0,-0.0991097 -3.8053e-05,-0.000871557 -0.000113869,-0.000864924 -0.000188819,-0.000851709 -0.000262332,-0.000832011 -0.000333848,-0.000805981 -0.000402824,-0.000773817 -0.000468734,-0.000735764 -0.000531076,-0.000692112 -0.000589377,-0.000643192 -0.000643192,-0.000589377 -0.000692112,-0.000531076 -0.000735764,-0.000468734 -0.000773817,-0.000402824 -0.000805981,-0.000333848 -0.000832011,-0.000262332 -0.000851709,-0.000188819 -0.000864924,-0.000113869 -0.000871557,-3.8053e-05 -0.330244,0 -8.88178e-15,0 -0.000871557,-3.8053e-05 -0.000864924,-0.000113869 -0.000851709,-0.000188819 -0.000832011,-0.000262332 -0.000805981,-0.000333848 -0.000773817,-0.000402824 -0.000735764,-0.000468734 -0.000692112,-0.000531076 -0.000643192,-0.000589377 -0.000589377,-0.000643192 -0.000531076,-0.000692112 -0.000468734,-0.000735764 -0.000402824,-0.000773817 -0.000333848,-0.000805981 -0.000262332,-0.000832011 -0.000188819,-0.000851709 -0.000113869,-0.000864924 -3.8053e-05,-0.000871557 0,-0.0968631 -4.93011e-05,-0.00112918 -0.000147528,-0.00112059 -0.000244632,-0.00110346 -0.000339874,-0.00107794 -0.00043253,-0.00104422 -0.000521894,-0.00100255 -0.000607286,-0.000953248 -0.000688056,-0.000896692 -0.00076359,-0.000833312 -0.000833312,-0.00076359 -0.000896692,-0.000688056 -0.000953248,-0.000607286 -0.00100255,-0.000521894 -0.00104422,-0.00043253 -0.00107794,-0.000339874 -0.00110346,-0.000244632 -0.00112059,-0.000147528 -0.00112918,-4.93011e-05 -0.00112918,4.93011e-05 -0.00112059,0.000147528 -0.00110346,0.000244632 -0.00107794,0.000339874 -0.00104422,0.00043253 -0.00100255,0.000521894 -0.000953248,0.000607286 -0.000896692,0.000688056 -0.000833312,0.00076359 -0.00076359,0.000833312 -0.000688056,0.000896692 -0.000607286,0.000953248 -0.000521894,0.00100255 -0.00043253,0.00104422 -0.000339874,0.00107794 -0.000244632,0.00110346 -0.000147528,0.00112059 -4.93011e-05,0.00112918 0,0.046559 -0.0868228,0.0491469 -0.00233646,0.0131624 -0.00120625,0.0133137 -6.72696e-05,0.013368 0.0010722,0.0133251 0.00220387,0.0131853 0.00331951,0.0129495 0.00441099,0.0126195 0.00547038,0.0121977 0.00648997,0.0116871 0.00746234,0.0110915 0.00838042,0.0104153 0.00923752,0.00966318 0.0100274,0.0088408 0.0107443,0.00795411 0.0113831,0.00700953 0.0119391,0.00601396 0.0124081,0.00497464 0.0127869,0.00389912 0.0130727,0.00279523 0.0132634,0.001671 0.0133575,0.000534616 0.0133545,-0.000605658 0,-0.0497988 3.8053e-05,-0.000871557 0.000113869,-0.000864924 0.000188819,-0.000851709 0.000262332,-0.000832011 0.000333848,-0.000805981 0.000402824,-0.000773817 0.000468734,-0.000735764 0.000531076,-0.000692112 0.000589377,-0.000643192 0.000643192,-0.000589377 0.000692112,-0.000531076 0.000735764,-0.000468734 0.000773817,-0.000402824 0.000805981,-0.000333848 0.000832011,-0.000262332 0.000851709,-0.000188819 0.000864924,-0.000113869 0.000871557,-3.8053e-05 8.88178e-15,0 0.276204,0 0.000871557,-3.8053e-05 0.000864924,-0.000113869 0.000851709,-0.000188819 0.000832011,-0.000262332 0.000805981,-0.000333848 0.000773817,-0.000402824 0.000735764,-0.000468734 0.000692112,-0.000531076 0.000643192,-0.000589377 0.000589377,-0.000643192 0.000531076,-0.000692112 0.000468734,-0.000735764 0.000402824,-0.000773817 0.000333848,-0.000805981 0.000262332,-0.000832011 0.000188819,-0.000851709 0.000113869,-0.000864924 3.8053e-05,-0.000871557 z M 3.38935,4.1 l 0.598247,0 0.00115877,0.00300599 0.0128735,0.0263235 0.0151099,0.0251067 0.0172323,0.0237002 0.0192246,0.0221149 0.0210717,0.0203626 0.0227598,0.0184566 0.00297356,0.0020102 0,0.858919 -1,0 0,-0.525243 0.00198181,0.00172994 0.00713148,0.00519307 0.00756141,0.00454434 0.00793249,0.00386024 0.00824184,0.00314611 0.00848705,0.00240749 0.0086662,0.00165013 0.00877791,0.000879927 0.0088213,0.000102878 0.00879604,-0.000674971 0.00870233,-0.00144757 0.00854088,-0.0022089 0.00831297,-0.00295304 0.00802036,-0.00367419 0.00766534,-0.00436676 0.00725065,-0.00502533 0.00677954,-0.0056448 0.00625566,-0.00622034 0.033463,-0.0397282 0.0298334,-0.0425214 0.0259718,-0.044984 0.0219084,-0.047097 0.0176746,-0.0488437 0.0133034,-0.0502107 0.00882877,-0.0511874 0.00428552,-0.0517661 -0.000291051,-0.0519424 -0.00355382,-0.0377742 z "/>
<path fill="rgb(241,240,234)" stroke="rgb(241,240,234)" d="M 3.1,2.1 l 1,0 0,0.848803 -0.952769,0 -4.52971e-14,0 -0.00435779,0.000190265 -0.00432462,0.000569347 -0.00425854,0.000944096 -0.00416005,0.00131166 -0.00402991,0.00166924 -0.00386909,0.00201412 -0.00367882,0.00234367 -0.00346056,0.00265538 -0.00321596,0.00294688 -0.00294688,0.00321596 -0.00265538,0.00346056 -0.00234367,0.00367882 -0.00201412,0.00386909 -0.00166924,0.00402991 -0.000246447,0.000781631 0,-0.882483 z "/>
<path fill="rgb(241,240,234)" stroke="rgb(241,240,234)" d="M 3.75,1.1 l 0.230963,0.0100841 0.119037,0.0156716 0,0.974244 -1,0 0,-0.917656 0.189832,-0.0420848 0.229205,-0.0301754 0.230963,-0.0100841 z "/>
<path fill="rgb(241,240,234)" stroke="rgb(241,240,234)" d="M 2.53072,6.1 l 0.569283,0 0,0.217656 -0.0358705,-0.00795229 -0.220483,-0.069518 -0.213585,-0.0884698 -0.0993448,-0.0517156 z "/>
<path fill="rgb(241,240,234)" stroke="rgb(241,240,234)" d="M 2.1,5.1 l 1,0 0,1 -0.569283,0 -0.105717,-0.0550327 -0.194978,-0.124214 -0.130022,-0.0997697 0,-0.720983 z "/>
<path fill="rgb(241,240,234)" stroke="rgb(241,240,234)" d="M 2.60186,4.1 l 0.493474,0.470686 0.00466423,0.00407144 0,0.525243 -1,0 0,-1 0.501861,0 z "/>
<path fill="rgb(241,240,234)" stroke="rgb(241,240,234)" d="M 2.1,3.31795 l 0.00442055,0.00976003 0.0193104,0.0342983 0.0222337,0.0324797 0.0249868,0.0304126 0.0275488,0.0281128 0.0299001,0.0255979 0.0320226,0.0228872 0.0339001,0.0200013 0.0355182,0.0169625 0.0368646,0.0137938 0.0379289,0.0105197 0.0387031,0.00716503 0.0391811,0.00375557 0.0393594,0.000317374 0.0392366,-0.00312325 0.0388136,-0.00653998 0.0380936,-0.00990667 0.054043,0.0998427 0.00188429,0.00387045 0.00154439,0.00401818 0.00119304,0.00413613 0.000832845,0.00422342 0.000466479,0.00427941 9.66562e-05,0.00430367 -0.000273883,0.00429603 -0.000642393,0.00425655 -0.00100614,0.00418552 -0.00136243,0.00408347 -0.00170862,0.00395114 -0.00204215,0.00378953 -0.00236054,0.00359983 -0.00266143,0.00338345 -0.00294259,0.00314198 -0.00320195,0.00287723 -0.00343756,0.00259115 -0.0036477,0.00228586 -0.0038308,0.00196363 -0.00398551,0.00162685 -0.00411067,0.00127801 -0.00420536,0.000919688 -0.00426889,0.000554554 -0.00430076,0.000185309 -1.68754e-14,0 -0.311287,0 -1.73195e-14,0 -0.00441987,0.000195736 -0.00438527,0.000585675 -0.00431633,0.000971028 -0.00421359,0.00134878 -0.00407787,0.00171597 -0.00391022,0.00206973 -0.00371195,0.00240728 -0.00348462,0.00272598 -0.00323001,0.00302334 -0.00293248,0.00327548 -0.00263341,0.00352042 -0.00231399,0.00373814 -0.00197668,0.00392695 -0.00162408,0.00408541 -0.00125893,0.00421228 -0.000884046,0.00430658 -0.000502327,0.00436759 -0.000116724,0.00439484 0.000269781,0.0043881 0.000654201,0.00434744 0.00103356,0.00427317 0.00140493,0.00416586 0.00176544,0.00402634 0.0021123,0.00385569 0.00244283,0.00365524 0.00275448,0.00342652 0.00304482,0.00317132 0.299565,0.285731 -0.501861,0 0,-0.78205 z M 3.09723,3.1 l 8.61533e-14,0.31472 -0.000231014,0.00480084 -0.000690908,0.00475648 -0.00114442,0.00466816 -0.0103574,0.0300155 -0.0129425,0.0289948 -0.0154284,0.027752 -0.0177962,0.0262965 -0.0200275,0.0246395 -0.0221055,0.0227938 -0.024014,0.0207734 -0.0257386,0.0185939 -0.027266,0.0162719 -0.0285845,0.0138252 -0.029684,0.0112726 -0.00419001,0.0011849 -0.00427721,0.00081586 -0.00433197,0.000440633 -0.00435388,6.20635e-05 -0.00434277,-0.000316977 -0.00429873,-0.000693613 -0.00422208,-0.00106499 -0.00411341,-0.00142829 -0.00397355,-0.00178075 -0.00380354,-0.00211972 -0.0036047,-0.0024426 -0.00337851,-0.00274696 -0.00312671,-0.00303049 -0.00285118,-0.00329103 -0.00255404,-0.00352662 -0.00223753,-0.00373545 -0.0714815,-0.13206 0.0330603,-0.0209674 0.0311128,-0.0237615 0.0289298,-0.0263757 0.0265279,-0.0287904 0.0239252,-0.0309871 0.0211415,-0.0329493 0.0181977,-0.0346621 0.0151162,-0.0361125 0.0119203,-0.0372897 0.0192071,-0.0176768 0.0175978,-0.0192795 0.0158552,-0.0207363 0.0139926,-0.022036 0.0120241,-0.023169 0.00996453,-0.0241265 0.00488026,-0.0155214 0.0636991,0 z "/>
<path fill="rgb(241,240,234)" stroke="rgb(241,240,234)" d="M 2.1,2.1 l 1,0 0,0.882483 -0.00106521,0.00337842 -0.000944096,0.00425854 -0.000569347,0.00432462 -0.000190265,0.00435779 2.75335e-14,0.101197 -0.0636991,0 0.00294927,-0.00938001 0.00563525,-0.0254877 0.00339831,-0.0258811 0.00113563,-0.0260786 -0.00112818,-0.025993 -0.00337606,-0.0257975 -0.00559855,-0.025408 -0.00777893,-0.0248274 -0.00990081,-0.02406 -0.0119482,-0.0231117 -0.0139058,-0.0219895 -0.0157587,-0.020702 -0.0174931,-0.0192588 -0.019096,-0.0176707 -0.0205552,-0.0159497 -0.0218599,-0.0141087 -0.0230001,-0.0121616 -0.0239673,-0.0101231 -0.0247543,-0.00800843 -0.0253551,-0.00583351 -0.0257652,-0.00361473 -0.0259815,-0.00136875 -0.0260024,0.000887518 -0.0258277,0.00313711 -0.0367096,-0.0153488 -0.037922,-0.0120461 -0.0388378,-0.00864921 -0.03945,-0.0051847 -0.0397538,-0.00167965 -0.0397468,0.00183853 -0.039429,0.00534234 -0.0388029,0.00880438 -0.0378735,0.0121976 -0.036648,0.0154954 -0.035136,0.0186721 -0.0333492,0.0217028 -0.0313018,0.0245639 -0.0290096,0.0272329 -0.0264906,0.0296889 -0.0237645,0.0319129 -0.0208526,0.0338874 -0.0125199,0.0250691 0,-0.83071 z "/>
<path fill="rgb(241,240,234)" stroke="rgb(241,240,234)" d="M 3.1,1.18234 l 0,0.917656 -1,0 0,-0.420983 0.130022,-0.0997697 0.194978,-0.124214 0.205062,-0.106748 0.213585,-0.0884698 0.220483,-0.069518 0.0358705,-0.00795229 z "/>
<path fill="rgb(241,240,234)" stroke="rgb(241,240,234)" d="M 1.47096,5.1 l 0.629041,0 0,0.720983 -0.0533872,-0.0409654 -0.170446,-0.156185 -0.156185,-0.170446 -0.140735,-0.18341 -0.108288,-0.169978 z "/>
<path fill="rgb(241,240,234)" stroke="rgb(241,240,234)" d="M 1.12576,4.1 l 0.974244,0 0,1 -0.629041,0 -0.0159268,-0.025 -0.106748,-0.205062 -0.0884698,-0.213585 -0.069518,-0.220483 -0.0500371,-0.225703 -0.0145038,-0.110168 z "/>
<path fill="rgb(241,240,234)" stroke="rgb(241,240,234)" d="M 1.18234,3.1 l 0.87433,0 -0.000728192,0.0347807 0.00268436,0.0396986 0.00618061,0.0393063 0.00962853,0.0386067 0.0130012,0.0376052 0.000246014,0.000619842 0.000246933,0.000619477 0.00024785,0.00061911 0.0118188,0.0260945 0,0.78205 -0.974244,0 -0.0156716,-0.119037 -0.0100841,-0.230963 0.0100841,-0.230963 0.0301754,-0.229205 0.0420848,-0.189832 z "/>
<path fill="rgb(241,240,234)" stroke="rgb(241,240,234)" d="M 2.05667,3.1 l -0.87433,0 0.00795229,-0.0358705 0.069518,-0.220483 0.0884698,-0.213585 0.106748,-0.205062 0.124214,-0.194978 0.0997697,-0.130022 0.420983,0 0,0.83071 -0.00525776,0.0105278 -0.0145638,0.0370281 -0.011236,0.0381698 -0.00782036,0.0390132 -0.00434359,0.0395515 -0.000104679,0.00499982 z "/>
<path fill="rgb(241,240,234)" stroke="rgb(241,240,234)" d="M 2.1,1.67902 l 0,0.420983 -0.420983,0 0.0409654,-0.0533872 0.156185,-0.170446 0.170446,-0.156185 0.0533872,-0.0409654 z "/>
<path fill="rgb(0,0,0)" stroke="rgb(0,0,0)" d="M 3.74142,4.73412 l -3.8053e-05,0.000871557 -0.000113869,0.000864924 -0.000188819,0.000851709 -0.000262332,0.000832011 -0.000333848,0.000805981 -0.000402824,0.000773817 -0.000468734,0.000735764 -0.000531076,0.000692112 -0.000589377,0.000643192 -0.000643192,0.000589377 -0.000692112,0.000531076 -0.000735764,0.000468734 -0.000773817,0.000402824 -0.000805981,0.000333848 -0.000832011,0.000262332 -0.000851709,0.000188819 -0.000864924,0.000113869 -0.000871557,3.8053e-05 -0.276204,0 -8.88178e-15,0 -0.000871557,3.8053e-05 -0.000864924,0.000113869 -0.000851709,0.000188819 -0.000832011,0.000262332 -0.000805981,0.000333848 -0.000773817,0.000402824 -0.000735764,0.000468734 -0.000692112,0.000531076 -0.000643192,0.000589377 -0.000589377,0.000643192 -0.000531076,0.000692112 -0.000468734,0.000735764 -0.000402824,0.000773817 -0.000333848,0.000805981 -0.000262332,0.000832011 -0.000188819,0.000851709 -0.000113869,0.000864924 -3.8053e-05,0.000871557 0,0.0497988 -0.0133545,0.000605658 -0.0133575,-0.000534616 -0.0132634,-0.001671 -0.0130727,-0.00279523 -0.0127869,-0.00389912 -0.0124081,-0.00497464 -0.0119391,-0.00601396 -0.0113831,-0.00700953 -0.0107443,-0.00795411 -0.0100274,-0.0088408 -0.00923752,-0.00966318 -0.00838042,-0.0104153 -0.00746234,-0.0110915 -0.00648997,-0.0116871 -0.00547038,-0.0121977 -0.00441099,-0.0126195 -0.00331951,-0.0129495 -0.00220387,-0.0131853 -0.0010722,-0.0133251 6.72696e-05,-0.013368 0.00120625,-0.0133137 0.00233646,-0.0131624 0.0868228,-0.0491469 0,-0.046559 4.93011e-05,-0.00112918 0.000147528,-0.00112059 0.000244632,-0.00110346 0.000339874,-0.00107794 0.00043253,-0.00104422 0.000521894,-0.00100255 0.000607286,-0.000953248 0.000688056,-0.000896692 0.00076359,-0.000833312 0.000833312,-0.00076359 0.000896692,-0.000688056 0.000953248,-0.000607286 0.00100255,-0.000521894 0.00104422,-0.00043253 0.00107794,-0.000339874 0.00110346,-0.000244632 0.00112059,-0.000147528 0.00112918,-4.93011e-05 0.00112918,4.93011e-05 0.00112059,0.000147528 0.00110346,0.000244632 0.00107794,0.000339874 0.00104422,0.00043253 0.00100255,0.000521894 0.000953248,0.000607286 0.000896692,0.000688056 0.000833312,0.00076359 0.00076359,0.000833312 0.000688056,0.000896692 0.000607286,0.000953248 0.000521894,0.00100255 0.00043253,0.00104422 0.000339874,0.00107794 0.000244632,0.00110346 0.000147528,0.00112059 4.93011e-05,0.00112918 0,0.0968631 3.8053e-05,0.000871557 0.000113869,0.000864924 0.000188819,0.000851709 0.000262332,0.000832011 0.000333848,0.000805981 0.000402824,0.000773817 0.000468734,0.000735764 0.000531076,0.000692112 0.000589377,0.000643192 0.000643192,0.000589377 0.000692112,0.000531076 0.000735764,0.000468734 0.000773817,0.000402824 0.000805981,0.000333848 0.000832011,0.000262332 0.000851709,0.000188819 0.000864924,0.000113869 0.000871557,3.8053e-05 8.88178e-15,0 0.330244,0 0.000871557,3.8053e-05 0.000864924,0.000113869 0.000851709,0.000188819 0.000832011,0.000262332 0.000805981,0.000333848 0.000773817,0.000402824 0.000735764,0.000468734 0.000692112,0.000531076 0.000643192,0.000589377 0.000589377,0.000643192 0.000531076,0.000692112 0.000468734,0.000735764 0.000402824,0.000773817 0.000333848,0.000805981 0.000262332,0.000832011 0.000188819,0.000851709 0.000113869,0.000864924 3.8053e-05,0.000871557 0,0.0991097 z "/>
<path fill="rgb(0,0,0)" stroke="rgb(0,0,0)" d="M 5.17934,4.20715 l 0.00079102,0.000386935 0.000753914,0.000455023 0.000710961,0.000519583 0.000662495,0.000580114 0.000608892,0.000636147 0.000550567,0.000687246 0.000487973,0.000733017 0.000421595,0.000773103 0.000351948,0.000807195 0.000279572,0.000835027 0.000205028,0.000856385 0.000128895,0.000871101 5.17613e-05,0.000879063 -2.57734e-05,0.000880209 -0.000103108,0.000874529 -0.000179644,0.000862067 -0.000254786,0.000842921 -0.000327952,0.000817238 -0.000398576,0.000785219 -0.000466109,0.00074711 -0.000530027,0.000703209 -0.000589836,0.000653854 -0.000645071,0.000599429 -0.000695303,0.000540356 -0.000740144,0.000477093 -0.000779246,0.00041013 -0.000812305,0.000339988 -0.000839066,0.000267208 -0.00085932,0.000192357 -0.00087291,0.000116014 -0.000879732,3.87716e-05 -0.868308,0 -8.88178e-15,0 -0.000871557,3.8053e-05 -0.000864924,0.000113869 -0.000851709,0.000188819 -0.000832011,0.000262332 -0.000805981,0.000333848 -0.000773817,0.000402824 -0.000735764,0.000468734 -0.000692112,0.000531076 -0.000643192,0.000589377 -0.000589377,0.000643192 -0.000531076,0.000692112 -0.000468734,0.000735764 -0.000402824,0.000773817 -0.000333848,0.000805981 -0.000262332,0.000832011 -0.000188819,0.000851709 -0.000113869,0.000864924 -3.8053e-05,0.000871557 0,0.0353762 -3.8053e-05,0.000871557 -0.000113869,0.000864924 -0.000188819,0.000851709 -0.000262332,0.000832011 -0.000333848,0.000805981 -0.000402824,0.000773817 -0.000468734,0.000735764 -0.000531076,0.000692112 -0.000589377,0.000643192 -0.000643192,0.000589377 -0.000692112,0.000531076 -0.000735764,0.000468734 -0.000773817,0.000402824 -0.000805981,0.000333848 -0.000832011,0.000262332 -0.000851709,0.000188819 -0.000864924,0.000113869 -0.000871557,3.8053e-05 -0.113375,0 -0.0267486,-0.0119652 -0.025609,-0.014242 -0.024276,-0.0164112 -0.0227598,-0.0184566 -0.0210717,-0.0203626 -0.0192246,-0.0221149 -0.0172323,-0.0237002 -0.0151099,-0.0251067 -0.0128735,-0.0263235 -0.0105399,-0.0273416 -0.00812665,-0.0281534 -0.00565209,-0.0287525 -0.00313486,-0.0291346 -0.000593964,-0.0292968 0.00195142,-0.0292378 0.00448207,-0.028958 0.00697888,-0.0284596 0.00942301,-0.0277464 0.011796,-0.0268237 0.0140799,-0.0256984 0.0162576,-0.0243792 0.0183125,-0.0228759 0.0202291,-0.0212 0.021993,-0.0193639 0.0235909,-0.0173817 0.0250107,-0.0152682 0.0262417,-0.0130395 0.000846334,-0.000330468 0.000872835,-0.000252289 0.000892131,-0.000172027 0.000904062,-9.03443e-05 0.00090853,-7.9163e-06 0.000905499,7.4577e-05 0.000894993,0.000156455 0.000877099,0.000237041 0.000851964,0.00031567 0.000819796,0.000391694 0.000780861,0.000464484 0.00904416,0.00594164 0.00905373,0.00592705 0.00906328,0.00591244 0.000300522,0.000195689 0.000300533,0.000195673 0.000300543,0.000195657 0.000358907,0.000233623 0.000358922,0.0002336 0.000358937,0.000233577 0.000138912,9.03881e-05 0.000138915,9.03847e-05 0.000138917,9.03812e-05 0.316503,0.193677 0.326724,0.175887 0.335946,0.15756 z "/>
<path fill="rgb(0,0,0)" stroke="rgb(0,0,0)" d="M 4.17366,4.28169 l -2.57572e-14,0 -0.0267486,-0.0119652 -0.025609,-0.014242 -0.024276,-0.0164112 -0.0227598,-0.0184566 -0.0210717,-0.0203626 -0.0192246,-0.0221149 -0.0172323,-0.0237002 -0.0151099,-0.0251067 -0.0128735,-0.0263235 -0.0105399,-0.0273416 -0.00812665,-0.0281534 -0.00565209,-0.0287525 -0.00313486,-0.0291346 -0.000593964,-0.0292968 0.00195142,-0.0292378 0.00448207,-0.028958 0.00697888,-0.0284596 0.00942301,-0.0277464 0.011796,-0.0268237 0.0140799,-0.0256984 0.0162576,-0.0243792 0.0183125,-0.0228759 0.0202291,-0.0212 0.021993,-0.0193639 0.0235909,-0.0173817 0.0250107,-0.0152682 0.0262417,-0.0130395 0.000846334,-0.000330468 0.000872835,-0.000252289 0.000892131,-0.000172027 0.000904062,-9.03443e-05 0.00090853,-7.9163e-06 0.000905499,7.4577e-05 0.000894993,0.000156455 0.000877099,0.000237041 0.000851964,0.00031567 0.000819796,0.000391694 0.000780861,0.000464484 0.00904416,0.00594164 0.00905373,0.00592705 0.00906328,0.00591244 -0.00906328,-0.00591244 -0.00905373,-0.00592705 -0.00904416,-0.00594164 -0.000780861,-0.000464484 -0.000819796,-0.000391694 -0.000851964,-0.00031567 -0.000877099,-0.000237041 -0.000894993,-0.000156455 -0.000905499,-7.4577e-05 -0.00090853,7.9163e-06 -0.000904062,9.03443e-05 -0.000892131,0.000172027 -0.000872835,0.000252289 -0.000846334,0.000330468 -0.0262417,0.0130395 -0.0250107,0.0152682 -0.0235909,0.0173817 -0.021993,0.0193639 -0.0202291,0.0212 -0.0183125,0.0228759 -0.0162576,0.0243792 -0.0140799,0.0256984 -0.011796,0.0268237 -0.00942301,0.0277464 -0.00697888,0.0284596 -0.00448207,0.028958 -0.00195142,0.0292378 0.000593964,0.0292968 0.00313486,0.0291346 0.00565209,0.0287525 0.00812665,0.0281534 0.0105399,0.0273416 0.0128735,0.0263235 0.0151099,0.0251067 0.0172323,0.0237002 0.0192246,0.0221149 0.0210717,0.0203626 0.0227598,0.0184566 0.024276,0.0164112 0.025609,0.014242 0.0267486,0.0119652 z "/>
<path fill="rgb(0,0,0)" stroke="rgb(0,0,0)" d="M 2.08744,3.29 l -0.0130012,-0.0376052 -0.00962853,-0.0386067 -0.00618061,-0.0393063 -0.00268436,-0.0396986 0.000832871,-0.0397805 0.00434359,-0.0395515 0.00782036,-0.0390132 0.011236,-0.0381698 0.0145638,-0.0370281 0.0177777,-0.0355969 0.0208526,-0.0338874 0.0237645,-0.0319129 0.0264906,-0.0296889 0.0290096,-0.0272329 0.0313018,-0.0245639 0.0333492,-0.0217028 0.035136,-0.0186721 0.036648,-0.0154954 0.0378735,-0.0121976 0.0388029,-0.00880438 0.039429,-0.00534234 0.0397468,-0.00183853 0.0397538,0.00167965 0.03945,0.0051847 0.0388378,0.00864921 0.037922,0.0120461 0.0367096,0.0153488 -3.30402e-13,5.50671e-14 -0.0367096,-0.0153488 -0.037922,-0.0120461 -0.0388378,-0.00864921 -0.03945,-0.0051847 -0.0397538,-0.00167965 -0.0397468,0.00183853 -0.039429,0.00534234 -0.0388029,0.00880438 -0.0378735,0.0121976 -0.036648,0.0154954 -0.035136,0.0186721 -0.0333492,0.0217028 -0.0313018,0.0245639 -0.0290096,0.0272329 -0.0264906,0.0296889 -0.0237645,0.0319129 -0.0208526,0.0338874 -0.0177777,0.0355969 -0.0145638,0.0370281 -0.011236,0.0381698 -0.00782036,0.0390132 -0.00434359,0.0395515 -0.000832871,0.0397805 0.00268436,0.0396986 0.00618061,0.0393063 0.00962853,0.0386067 0.0130012,0.0376052 z "/>
<path fill="rgb(0,0,0)" stroke="rgb(0,0,0)" d="M 2.65864,3.38246 l 0.0223251,-0.014593 0.0209408,-0.0165182 0.0193909,-0.0183128 0.0176878,-0.0199627 0.027209,-0.000539345 0.0270482,-0.00300284 0.0266648,-0.00544163 0.0260619,-0.00783563 0.0252446,-0.0101652 0.0242196,-0.012411 0.0229952,-0.0145548 0.0215816,-0.0165787 -0.0119203,0.0372897 -0.0151162,0.0361125 -0.0181977,0.0346621 -0.0211415,0.0329493 -0.0239252,0.0309871 -0.0265279,0.0287904 -0.0289298,0.0263757 -0.0311128,0.0237615 -0.0330603,0.0209674 0.0714815,0.13206 0.00223753,0.00373545 0.00255404,0.00352662 0.00285118,0.00329103 0.00312671,0.00303049 0.00337851,0.00274696 0.0036047,0.0024426 0.00380354,0.00211972 0.00397355,0.00178075 0.00411341,0.00142829 0.00422208,0.00106499 0.00429873,0.000693613 0.00434277,0.000316977 0.00435388,-6.20635e-05 0.00433197,-0.000440633 0.00427721,-0.00081586 0.00419001,-0.0011849 0.029684,-0.0112726 0.0285845,-0.0138252 0.027266,-0.0162719 0.0257386,-0.0185939 0.024014,-0.0207734 0.0221055,-0.0227938 0.0200275,-0.0246395 0.0177962,-0.0262965 0.0154284,-0.027752 0.0129425,-0.0289948 0.0103574,-0.0300155 0.00114442,-0.00466816 0.000690908,-0.00475648 0.000231014,-0.00480084 -1.13687e-13,-0.415918 0.000190265,-0.00435779 0.000569347,-0.00432462 0.000944096,-0.00425854 0.00131166,-0.00416005 0.00166924,-0.00402991 0.00201412,-0.00386909 0.00234367,-0.00367882 0.00265538,-0.00346056 0.00294688,-0.00321596 0.00321596,-0.00294688 0.00346056,-0.00265538 0.00367882,-0.00234367 0.00386909,-0.00201412 0.00402991,-0.00166924 0.00416005,-0.00131166 0.00425854,-0.000944096 0.00432462,-0.000569347 0.00435779,-0.000190265 4.52971e-14,0 1.20554,0 8.88178e-15,0 0.000871557,3.8053e-05 0.000864924,0.000113869 0.000851709,0.000188819 0.000832011,0.000262332 0.000805981,0.000333848 0.000773817,0.000402824 0.000735764,0.000468734 0.000692112,0.000531076 0.000643192,0.000589377 0.000589377,0.000643192 0.000531076,0.000692112 0.000468734,0.000735764 0.000402824,0.000773817 0.000333848,0.000805981 0.000262332,0.000832011 0.000188819,0.000851709 0.000113869,0.000864924 3.8053e-05,0.000871557 0,0.0438611 0.036045,0 -0.000102284,0.00350218 -6.13759e-05,0.00350314 -2.04596e-05,0.00350362 0.00117257,0.0264984 0.00350853,0.0262913 0.00581707,0.0258786 0.00808014,0.0252636 0.01028,0.0244512 0.0123996,0.0234476 0.0144222,0.0222607 0.0163321,0.0208998 0.0181143,0.0193756 0.0197549,0.0176998 0.0212411,0.0158857 -0.152543,0 0.0144384,0.055586 0.019249,0.0541087 0.0239118,0.0522159 0.028391,0.0499222 0.0326522,0.0472452 0.0366627,0.0442054 0.0403918,0.0408262 0.0438106,0.0371336 0.0468931,0.0331558 0.0496156,0.0289235 0.0519571,0.0244691 0.0538997,0.0198268 0.0554284,0.0150322 0.0565315,0.0101223 0.0572006,0.00513465 0.0574305,0.000107566 0.0572194,-0.00492034 0.056569,-0.00991047 0.0554843,-0.0148245 0.234394,0.265908 0.00419192,0.00520591 0.00371179,0.00555844 0.00320219,0.00586682 0.00266715,0.00612861 0.00211094,0.00634173 0.00153795,0.00650448 0.000952758,0.00661558 0.000359995,0.00667413 -0.000235627,0.00667968 -0.000829378,0.00663217 -0.00141654,0.006532 -0.00199246,0.00637995 -0.00255255,0.00617723 -0.00309236,0.00592544 -0.00360762,0.0056266 -0.00409423,0.00528308 -0.00454832,0.00489759 -0.00496629,0.00447321 -7.9655e-05,6.5468e-05 -7.97449e-05,6.53584e-05 -7.98347e-05,6.52487e-05 -0.00537126,0.00399796 -0.00570642,0.00350297 -0.00599611,0.00298006 -0.006238,0.0024334 -0.00643017,0.00186734 -0.00657109,0.0012864 -0.00665963,0.000695209 -0.0066951,9.84745e-05 -0.0066772,-0.000499045 -0.00660608,-0.00109259 -0.00648231,-0.00167742 -0.00630687,-0.00224888 -0.537406,-0.248053 -0.512781,-0.295619 -0.483958,-0.340764 -0.273655,0 -0.0547827,0.0422374 -0.0508645,0.0468823 -0.0465537,0.0511654 -0.0418837,0.0550536 -0.0368905,0.058517 -0.0316126,0.0615288 -0.0260907,0.0640657 -0.0203675,0.0661083 -0.0144871,0.0676407 0.0339061,0.0393507 0.030308,0.0421844 0.0264743,0.0446902 0.0224348,0.0468485 0.0182208,0.0486426 0.0138652,0.0500585 0.00940184,0.0510853 0.00486536,0.0517149 0.000291051,0.0519424 -0.00428552,0.0517661 -0.00882877,0.0511874 -0.0133034,0.0502107 -0.0176746,0.0488437 -0.0219084,0.047097 -0.0259718,0.044984 -0.0298334,0.0425214 -0.033463,0.0397282 -0.00625566,0.00622034 -0.00677954,0.0056448 -0.00725065,0.00502533 -0.00766534,0.00436676 -0.00802036,0.00367419 -0.00831297,0.00295304 -0.00854088,0.0022089 -0.00870233,0.00144757 -0.00879604,0.000674971 -0.0088213,-0.000102878 -0.00877791,-0.000879927 -0.0086662,-0.00165013 -0.00848705,-0.00240749 -0.00824184,-0.00314611 -0.00793249,-0.00386024 -0.00756141,-0.00454434 -0.00713148,-0.00519307 -0.00664605,-0.00580138 -0.793039,-0.756417 -0.00304482,-0.00317132 -0.00275448,-0.00342652 -0.00244283,-0.00365524 -0.0021123,-0.00385569 -0.00176544,-0.00402634 -0.00140493,-0.00416586 -0.00103356,-0.00427317 -0.000654201,-0.00434744 -0.000269781,-0.0043881 0.000116724,-0.00439484 0.000502327,-0.00436759 0.000884046,-0.00430658 0.00125893,-0.00421228 0.00162408,-0.00408541 0.00197668,-0.00392695 0.00231399,-0.00373814 0.00263341,-0.00352042 0.00293248,-0.00327548 0.00323001,-0.00302334 0.00348462,-0.00272598 0.00371195,-0.00240728 0.00391022,-0.00206973 0.00407787,-0.00171597 0.00421359,-0.00134878 0.00431633,-0.000971028 0.00438527,-0.000585675 0.00441987,-0.000195736 1.73195e-14,0 0.311287,0 1.68754e-14,0 0.00430076,-0.000185309 0.00426889,-0.000554554 0.00420536,-0.000919688 0.00411067,-0.00127801 0.00398551,-0.00162685 0.0038308,-0.00196363 0.0036477,-0.00228586 0.00343756,-0.00259115 0.00320195,-0.00287723 0.00294259,-0.00314198 0.00266143,-0.00338345 0.00236054,-0.00359983 0.00204215,-0.00378953 0.00170862,-0.00395114 0.00136243,-0.00408347 0.00100614,-0.00418552 0.000642393,-0.00425655 0.000273883,-0.00429603 -9.66562e-05,-0.00430367 -0.000466479,-0.00427941 -0.000832845,-0.00422342 -0.00119304,-0.00413613 -0.00154439,-0.00401818 -0.00188429,-0.00387045 -0.054043,-0.0998427 -0.0380936,0.00990667 -0.0388136,0.00653998 -0.0392366,0.00312325 -0.0393594,-0.000317374 -0.0391811,-0.00375557 -0.0387031,-0.00716503 -0.0379289,-0.0105197 -0.0368646,-0.0137938 -0.0355182,-0.0169625 -0.0339001,-0.0200013 -0.0320226,-0.0228872 -0.0299001,-0.0255979 -0.0275488,-0.0281128 -0.0249868,-0.0304126 -0.0222337,-0.0324797 -0.0193104,-0.0342983 -0.0162394,-0.0358546 -0.00024785,-0.00061911 -0.000246933,-0.000619477 -0.000246014,-0.000619842 -0.0130012,-0.0376052 -0.00962853,-0.0386067 -0.00618061,-0.0393063 -0.00268436,-0.0396986 0.000832871,-0.0397805 0.00434359,-0.0395515 0.00782036,-0.0390132 0.011236,-0.0381698 0.0145638,-0.0370281 0.0177777,-0.0355969 0.0208526,-0.0338874 0.0237645,-0.0319129 0.0264906,-0.0296889 0.0290096,-0.0272329 0.0313018,-0.0245639 0.0333492,-0.0217028 0.035136,-0.0186721 0.036648,-0.0154954 0.0378735,-0.0121976 0.0388029,-0.00880438 0.039429,-0.00534234 0.0397468,-0.00183853 0.0397538,0.00167965 0.03945,0.0051847 0.0388378,0.00864921 0.037922,0.0120461 0.0367096,0.0153488 -0.0266187,0.00566299 -0.0259959,0.00805191 -0.0251593,0.0103746 -0.0241156,0.0126118 -0.0228735,0.0147453 -0.0214431,0.0167575 -0.0198363,0.0186317 -0.0180663,0.0203527 -0.0258483,0.000453617 -0.0257133,0.00267733 -0.0253873,0.00488116 -0.0248728,0.00704874 -0.0241736,0.00916398 -0.0232949,0.0112112 -0.0222432,0.0131751 -0.0210263,0.0150412 -0.0196533,0.0167956 -0.0181343,0.0184253 -0.0164806,0.0199181 -0.0147046,0.021263 -0.0128194,0.0224501 -0.010839,0.0234704 -0.00877804,0.0243164 -0.00665194,0.0249819 -0.00447644,0.0254618 -0.0022677,0.0257527 -4.21213e-05,0.0258523 0.00218377,0.0257599 0.00439345,0.0254763 0.0065705,0.0250034 0.00869876,0.0243449 0.0107624,0.0235056 0.0127462,0.0224917 0.0146352,0.0213108 0.0164156,0.0199717 0.0180741,0.0184843 0.0195984,0.0168595 0.0209772,0.0151096 0.0222001,0.0132475 0.0232582,0.011287 0.0241436,0.00924271 0.0248497,0.00712976 0.0253713,0.00496386 0.0257045,0.0027611 0.0258467,0.000537844 0.0257971,-0.00168941 0.0255558,-0.00390412 8.88885e-05,-1.75423e-05 8.88832e-05,-1.75691e-05 8.88778e-05,-1.7596e-05 0.000105462,-2.09156e-05 0.000105455,-2.09534e-05 0.000105447,-2.09912e-05 1.86517e-14,-7.99361e-15 -0.128789,-0.237933 -0.00188176,-0.00386464 -0.00154288,-0.00401198 -0.00119259,-0.00412967 -0.00083349,-0.00421684 -0.00046823,-0.00427285 -9.9509e-05,-0.00429727 0.000269947,-0.00428994 0.000637409,-0.0042509 0.00100016,-0.00418045 0.00135552,-0.0040791 0.00170086,-0.0039476 0.00203363,-0.00378693 0.00235137,-0.00359827 0.00265173,-0.00338301 0.0029325,-0.00314276 0.00319159,-0.00287927 0.00342709,-0.00259451 0.00363727,-0.00229057 0.00382056,-0.00196971 0.00397562,-0.00163429 0.0100519,0.0256332 0.0123596,0.0246037 0.0145633,0.0233669 0.0166443,0.0219333 0.0185851,0.0203149 0.0203693,0.0185254 0.021982,0.0165799 0.0234095,0.0144947 0.0580502,0.107246 z "/>
<path fill="rgb(0,0,0)" stroke="rgb(0,0,0)" d="M 4.99863,3.01317 l -2.04596e-05,-0.00350362 -6.13759e-05,-0.00350314 -0.000102284,-0.00350218 0.0686087,0 0.0112632,0.000491762 0.0111775,0.00147154 0.0110067,0.00244012 0.0107521,0.00339013 0.0104157,0.00431434 0.0100001,0.00520572 0.00950833,0.00605747 0.0089442,0.00686313 0.00831201,0.00761655 0.00761655,0.00831201 0.00686313,0.0089442 0.00605747,0.00950833 0.00520572,0.0100001 0.00431434,0.0104157 0.00339013,0.0107521 0.00244012,0.0110067 0.00147154,0.0111775 0.000491762,0.0112632 -0.000491762,0.0112632 -0.00147154,0.0111775 -0.00244012,0.0110067 -0.00339013,0.0107521 -0.00431434,0.0104157 -0.00520572,0.0100001 -0.00605747,0.00950833 -0.00686313,0.0089442 -0.00761655,0.00831201 -0.00831201,0.00761655 -0.0089442,0.00686313 -0.00950833,0.00605747 -0.0100001,0.00520572 -0.0104157,0.00431434 -0.0107521,0.00339013 -0.0110067,0.00244012 -0.0111775,0.00147154 -0.0112632,0.000491762 -0.199547,0 0.0212411,-0.0158857 0.0197549,-0.0176998 0.0181143,-0.0193756 0.0163321,-0.0208998 0.0144222,-0.0222607 0.0123996,-0.0234476 0.01028,-0.0244512 0.00808014,-0.0252636 0.00581707,-0.0258786 0.00350853,-0.0262913 0.00117257,-0.0264984 z "/>
<path fill="rgb(0,0,0)" stroke="rgb(0,0,0)" d="M 4.79991,2.73078 l 0.0354692,-0.0176787 0.0368871,-0.0144894 0.0380188,-0.0111878 0.0388557,-0.00779941 0.0393913,-0.00435052 0.0396213,-0.000867882 0.039544,0.00262148 0.03916,0.00609051 0.0384723,0.00951231 0.0374861,0.0128603 0.0362093,0.0161086 0.0346516,0.0192319 0.0328251,0.0222061 0.0307441,0.025008 0.0284246,0.027616 0.0258846,0.0300098 0.0231439,0.0321708 0.0202236,0.0340823 0.0171465,0.0357295 0.0139364,0.0370995 0.0106183,0.0381818 0.00721775,0.038968 0.00376124,0.0394519 0.000275554,0.0396298 -0.00321227,0.0395004 -0.00667517,0.0390646 -0.0100863,0.0383258 -0.0134192,0.0372897 -0.016648,0.0359645 -0.0197477,0.0343602 -0.0226943,0.0324895 -0.0251923,0.0300693 -0.0277153,0.0277611 -0.0300278,0.0252418 -0.032112,0.0225308 -0.0339522,0.0196486 -0.0355344,0.016617 -0.0368465,0.0134592 -0.0378787,0.0101991 -0.038623,0.00686151 -0.0390738,0.00347177 -0.0392277,5.56374e-05 -0.0390835,-0.00336091 -0.0386423,-0.00675192 -0.0379075,-0.0100916 -0.0368846,-0.0133546 -0.0355814,-0.0165162 -0.0340078,-0.0195522 -0.0321758,-0.0224396 -0.0300992,-0.0251566 -0.027794,-0.0276823 -0.0252775,-0.0299977 -0.022569,-0.0320852 -0.0196889,-0.0339288 -0.0166593,-0.0355146 0.0242485,0.00704889 0.0247554,0.00498462 0.0250869,0.00288504 0.0252407,0.000765019 0.0252156,-0.00136042 0.0250119,-0.00347623 0.0246309,-0.0055674 0.0154109,0.0191353 0.0169251,0.01781 0.0183257,0.0163653 0.0196034,0.0148109 0.0207496,0.0131571 1.61444e-05,9.33208e-06 1.6145e-05,9.33107e-06 1.61455e-05,9.33007e-06 0.000223617,0.000129085 0.000223728,0.000128892 0.000223839,0.0001287 0.0229419,0.0118941 0.0238804,0.00987562 0.0246417,0.00778385 0.0252201,0.00563432 0.0256115,0.00344298 0.0258127,0.0012261 0.0258225,-0.000999883 0.0256406,-0.00321845 0.0252685,-0.00541313 0.0247089,-0.00756764 0.023966,-0.009666 0.0230452,-0.0116926 0.0219535,-0.0136325 0.0206988,-0.0154713 0.0192906,-0.0171952 0.0177392,-0.0187915 0.0160562,-0.0202484 0.0142541,-0.0215551 0.0123461,-0.0227018 0.0103466,-0.0236801 0.00827035,-0.0244827 0.00613269,-0.0251036 0.00394954,-0.0255382 0.00173707,-0.0257834 -0.000488276,-0.0258372 -0.00271,-0.0256993 -0.00491162,-0.0253708 -0.0070768,-0.024854 -0.00918947,-0.0241527 -0.0112339,-0.0232723 -0.000225877,-0.000419825 -0.000226544,-0.000419465 -0.00022721,-0.000419105 -0.0137994,-0.0229083 -0.0157847,-0.0215884 -0.0176445,-0.0200968 -0.0193642,-0.0184456 -0.0209299,-0.0166478 -0.0223294,-0.0147177 -0.0235514,-0.0126707 -0.0245862,-0.010523 -0.0254256,-0.00829158 -0.026063,-0.00599433 -0.0264933,-0.00364943 -0.026713,-0.00127554 -0.0267205,0.0011085 -0.0265156,0.00348372 -0.0261,0.00583126 -0.0158617,-0.019649 -0.017458,-0.0182455 -0.0189305,-0.0167126 -0.020269,-0.0150614 -0.0214639,-0.0133034 -0.0225066,-0.0114512 -0.0233899,-0.0095178 z "/>
<path fill="rgb(0,0,0)" stroke="rgb(0,0,0)" d="M 4.79991,2.73078 l 0.0354692,-0.0176787 0.0368871,-0.0144894 0.0380188,-0.0111878 0.0388557,-0.00779941 0.0393913,-0.00435052 0.0396213,-0.000867882 0.039544,0.00262148 0.03916,0.00609051 0.0384723,0.00951231 0.0374861,0.0128603 0.0362093,0.0161086 0.0346516,0.0192319 0.0328251,0.0222061 0.0307441,0.025008 0.0284246,0.027616 0.0258846,0.0300098 0.0231439,0.0321708 0.0202236,0.0340823 0.0171465,0.0357295 0.0139364,0.0370995 0.0106183,0.0381818 0.00721775,0.038968 0.00376124,0.0394519 0.000275554,0.0396298 -0.00321227,0.0395004 -0.00667517,0.0390646 -0.0100863,0.0383258 -0.0134192,0.0372897 -0.016648,0.0359645 -0.0197477,0.0343602 -0.0226943,0.0324895 0.0226943,-0.0324895 0.0197477,-0.0343602 0.016648,-0.0359645 0.0134192,-0.0372897 0.0100863,-0.0383258 0.00667517,-0.0390646 0.00321227,-0.0395004 -0.000275554,-0.0396298 -0.00376124,-0.0394519 -0.00721775,-0.038968 -0.0106183,-0.0381818 -0.0139364,-0.0370995 -0.0171465,-0.0357295 -0.0202236,-0.0340823 -0.0231439,-0.0321708 -0.0258846,-0.0300098 -0.0284246,-0.027616 -0.0307441,-0.025008 -0.0328251,-0.0222061 -0.0346516,-0.0192319 -0.0362093,-0.0161086 -0.0374861,-0.0128603 -0.0384723,-0.00951231 -0.03916,-0.00609051 -0.039544,-0.00262148 -0.0396213,0.000867882 -0.0393913,0.00435052 -0.0388557,0.00779941 -0.0380188,0.0111878 -0.0368871,0.0144894 -0.0354692,0.0176787 -7.99361e-14,-2.88658e-14 z "/>
<path fill="rgb(0,0,0)" stroke="rgb(0,0,0)" d="M 2.94001,3.24255 l 1.28342e-13,-1.07914e-13 -0.0119203,0.0372897 -0.0151162,0.0361125 -0.0181977,0.0346621 -0.0211415,0.0329493 -0.0239252,0.0309871 -0.0265279,0.0287904 -0.0289298,0.0263757 -0.0311128,0.0237615 -0.0330603,0.0209674 0.0714815,0.13206 0.00223753,0.00373545 0.00255404,0.00352662 0.00285118,0.00329103 0.00312671,0.00303049 0.00337851,0.00274696 0.0036047,0.0024426 0.00380354,0.00211972 0.00397355,0.00178075 0.00411341,0.00142829 0.00422208,0.00106499 0.00429873,0.000693613 0.00434277,0.000316977 0.00435388,-6.20635e-05 0.00433197,-0.000440633 0.00427721,-0.00081586 0.00419001,-0.0011849 -0.00419001,0.0011849 -0.00427721,0.00081586 -0.00433197,0.000440633 -0.00435388,6.20635e-05 -0.00434277,-0.000316977 -0.00429873,-0.000693613 -0.00422208,-0.00106499 -0.00411341,-0.00142829 -0.00397355,-0.00178075 -0.00380354,-0.00211972 -0.0036047,-0.0024426 -0.00337851,-0.00274696 -0.00312671,-0.00303049 -0.00285118,-0.00329103 -0.00255404,-0.00352662 -0.00223753,-0.00373545 -0.0714815,-0.13206 0.0330603,-0.0209674 0.0311128,-0.0237615 0.0289298,-0.0263757 0.0265279,-0.0287904 0.0239252,-0.0309871 0.0211415,-0.0329493 0.0181977,-0.0346621 0.0151162,-0.0361125 0.0119203,-0.0372897 z "/>
<path fill="rgb(0,0,0)" stroke="rgb(0,0,0)" d="M 3.23343,3.7632 l 0.0339061,0.0393507 0.030308,0.0421844 0.0264743,0.0446902 0.0224348,0.0468485 0.0182208,0.0486426 0.0138652,0.0500585 0.00940184,0.0510853 0.00486536,0.0517149 0.000291051,0.0519424 -0.00428552,0.0517661 -0.00882877,0.0511874 -0.0133034,0.0502107 -0.0176746,0.0488437 -0.0219084,0.047097 -0.0259718,0.044984 -0.0298334,0.0425214 -0.033463,0.0397282 -0.00625566,0.00622034 -0.00677954,0.0056448 -0.00725065,0.00502533 -0.00766534,0.00436676 -0.00802036,0.00367419 -0.00831297,0.00295304 -0.00854088,0.0022089 -0.00870233,0.00144757 -0.00879604,0.000674971 -0.0088213,-0.000102878 -0.00877791,-0.000879927 -0.0086662,-0.00165013 -0.00848705,-0.00240749 -0.00824184,-0.00314611 -0.00793249,-0.00386024 -0.00756141,-0.00454434 -0.00713148,-0.00519307 -0.00664605,-0.00580138 -0.793039,-0.756417 -0.00304482,-0.00317132 -0.00275448,-0.00342652 -0.00244283,-0.00365524 -0.0021123,-0.00385569 -0.00176544,-0.00402634 -0.00140493,-0.00416586 -0.00103356,-0.00427317 -0.000654201,-0.00434744 -0.000269781,-0.0043881 0.000116724,-0.00439484 0.000502327,-0.00436759 0.000884046,-0.00430658 0.00125893,-0.00421228 0.00162408,-0.00408541 0.00197668,-0.00392695 0.00231399,-0.00373814 0.00263341,-0.00352042 0.00293248,-0.00327548 -0.00293248,0.00327548 -0.00263341,0.00352042 -0.00231399,0.00373814 -0.00197668,0.00392695 -0.00162408,0.00408541 -0.00125893,0.00421228 -0.000884046,0.00430658 -0.000502327,0.00436759 -0.000116724,0.00439484 0.000269781,0.0043881 0.000654201,0.00434744 0.00103356,0.00427317 0.00140493,0.00416586 0.00176544,0.00402634 0.0021123,0.00385569 0.00244283,0.00365524 0.00275448,0.00342652 0.00304482,0.00317132 0.793039,0.756417 0.00664605,0.00580138 0.00713148,0.00519307 0.00756141,0.00454434 0.00793249,0.00386024 0.00824184,0.00314611 0.00848705,0.00240749 0.0086662,0.00165013 0.00877791,0.000879927 0.0088213,0.000102878 0.00879604,-0.000674971 0.00870233,-0.00144757 0.00854088,-0.0022089 0.00831297,-0.00295304 0.00802036,-0.00367419 0.00766534,-0.00436676 0.00725065,-0.00502533 0.00677954,-0.0056448 0.00625566,-0.00622034 0.033463,-0.0397282 0.0298334,-0.0425214 0.0259718,-0.044984 0.0219084,-0.047097 0.0176746,-0.0488437 0.0133034,-0.0502107 0.00882877,-0.0511874 0.00428552,-0.0517661 -0.000291051,-0.0519424 -0.00486536,-0.0517149 -0.00940184,-0.0510853 -0.0138652,-0.0500585 -0.0182208,-0.0486426 -0.0224348,-0.0468485 -0.0264743,-0.0446902 -0.030308,-0.0421844 -0.0339061,-0.0393507 z "/>
<path fill="rgb(0,0,0)" stroke="rgb(0,0,0)" d="M 3.09723,2.9988 l 0.000190265,-0.00435779 0.000569347,-0.00432462 0.000944096,-0.00425854 0.00131166,-0.00416005 0.00166924,-0.00402991 0.00201412,-0.00386909 0.00234367,-0.00367882 0.00265538,-0.00346056 0.00294688,-0.00321596 0.00321596,-0.00294688 0.00346056,-0.00265538 0.00367882,-0.00234367 0.00386909,-0.00201412 0.00402991,-0.00166924 0.00416005,-0.00131166 0.00425854,-0.000944096 0.00432462,-0.000569347 0.00435779,-0.000190265 -0.00435779,0.000190265 -0.00432462,0.000569347 -0.00425854,0.000944096 -0.00416005,0.00131166 -0.00402991,0.00166924 -0.00386909,0.00201412 -0.00367882,0.00234367 -0.00346056,0.00265538 -0.00321596,0.00294688 -0.00294688,0.00321596 -0.00265538,0.00346056 -0.00234367,0.00367882 -0.00201412,0.00386909 -0.00166924,0.00402991 -0.00131166,0.00416005 -0.000944096,0.00425854 -0.000569347,0.00432462 -0.000190265,0.00435779 z "/>
<path fill="rgb(0,0,0)" stroke="rgb(0,0,0)" d="M 5.44074,4.1229 l 0.00496629,-0.00447321 0.00454832,-0.00489759 0.00409423,-0.00528308 0.00360762,-0.0056266 0.00309236,-0.00592544 0.00255255,-0.00617723 0.00199246,-0.00637995 0.00141654,-0.006532 0.000829378,-0.00663217 0.000235627,-0.00667968 -0.000359995,-0.00667413 -0.000952758,-0.00661558 -0.00153795,-0.00650448 -0.00211094,-0.00634173 -0.00266715,-0.00612861 -0.00320219,-0.00586682 -0.00371179,-0.00555844 -0.00419192,-0.00520591 -0.234394,-0.265908 0.234394,0.265908 0.00419192,0.00520591 0.00371179,0.00555844 0.00320219,0.00586682 0.00266715,0.00612861 0.00211094,0.00634173 0.00153795,0.00650448 0.000952758,0.00661558 0.000359995,0.00667413 -0.000235627,0.00667968 -0.000829378,0.00663217 -0.00141654,0.006532 -0.00199246,0.00637995 -0.00255255,0.00617723 -0.00309236,0.00592544 -0.00360762,0.0056266 -0.00409423,0.00528308 -0.00454832,0.00489759 -0.00496629,0.00447321 z "/>
<path fill="rgb(241,240,234)" stroke="rgb(241,240,234)" d="M 0.2,3.75 l 0.0135088,-0.309403 0.0404237,-0.307048 0.0670308,-0.302357 0.0931279,-0.295364 0.118516,-0.286123 0.143002,-0.274705 0.1664,-0.261196 0.188532,-0.2457 0.209229,-0.228333 0.228333,-0.209229 0.2457,-0.188532 0.261196,-0.1664 0.274705,-0.143002 0.286123,-0.118516 0.295364,-0.0931279 0.302357,-0.0670308 0.307048,-0.0404237 0.309403,-0.0135088 0.309403,0.0135088 0.307048,0.0404237 0.302357,0.0670308 0.295364,0.0931279 0.286123,0.118516 0.274705,0.143002 0.261196,0.1664 0.2457,0.188532 0.228333,0.209229 0.209229,0.228333 0.188532,0.2457 0.1664,0.261196 0.143002,0.274705 0.118516,0.286123 0.0931279,0.295364 0.0670308,0.302357 0.0404237,0.307048 0.0135088,0.309403 -0.2,0 -0.0127478,-0.291972 -0.0381463,-0.28975 -0.0632545,-0.285322 -0.0878812,-0.278724 -0.111839,-0.270004 -0.134946,-0.259229 -0.157026,-0.246481 -0.17791,-0.231857 -0.197441,-0.215469 -0.215469,-0.197441 -0.231857,-0.17791 -0.246481,-0.157026 -0.259229,-0.134946 -0.270004,-0.111839 -0.278724,-0.0878812 -0.285322,-0.0632545 -0.28975,-0.0381463 -0.291972,-0.0127478 -0.291972,0.0127478 -0.28975,0.0381463 -0.285322,0.0632545 -0.278724,0.0878812 -0.270004,0.111839 -0.259229,0.134946 -0.246481,0.157026 -0.231857,0.17791 -0.215469,0.197441 -0.197441,0.215469 -0.17791,0.231857 -0.157026,0.246481 -0.134946,0.259229 -0.111839,0.270004 -0.0878812,0.278724 -0.0632545,0.285322 -0.0381463,0.28975 -0.0127478,0.291972 -0.2,0 z "/>
<path fill="rgb(241,240,234)" stroke="rgb(241,240,234)" d="M 0.2,3.75 l 0.2,0 0.0127478,0.291972 0.0381463,0.28975 0.0632545,0.285322 0.0878812,0.278724 0.111839,0.270004 0.134946,0.259229 0.157026,0.246481 0.17791,0.231857 0.197441,0.215469 0.215469,0.197441 0.231857,0.17791 0.246481,0.157026 0.259229,0.134946 0.270004,0.111839 0.278724,0.0878812 0.285322,0.0632545 0.28975,0.0381463 0.291972,0.0127478 0.291972,-0.0127478 0.28975,-0.0381463 0.285322,-0.0632545 0.278724,-0.0878812 0.270004,-0.111839 0.259229,-0.134946 0.246481,-0.157026 0.231857,-0.17791 0.215469,-0.197441 0.197441,-0.215469 0.17791,-0.231857 0.157026,-0.246481 0.134946,-0.259229 0.111839,-0.270004 0.0878812,-0.278724 0.0632545,-0.285322 0.0381463,-0.28975 0.0127478,-0.291972 0.2,0 -0.0135088,0.309403 -0.0404237,0.307048 -0.0670308,0.302357 -0.0931279,0.295364 -0.118516,0.286123 -0.143002,0.274705 -0.1664,0.261196 -0.188532,0.2457 -0.209229,0.228333 -0.228333,0.209229 -0.2457,0.188532 -0.261196,0.1664 -0.274705,0.143002 -0.286123,0.118516 -0.295364,0.0931279 -0.302357,0.0670308 -0.307048,0.0404237 -0.309403,0.0135088 -0.309403,-0.0135088 -0.307048,-0.0404237 -0.302357,-0.0670308 -0.295364,-0.0931279 -0.286123,-0.118516 -0.274705,-0.143002 -0.261196,-0.1664 -0.2457,-0.188532 -0.228333,-0.209229 -0.209229,-0.228333 -0.188532,-0.2457 -0.1664,-0.261196 -0.143002,-0.274705 -0.118516,-0.286123 -0.0931279,-0.295364 -0.0670308,-0.302357 -0.0404237,-0.307048 -0.0135088,-0.309403 z "/>
<path fill="rgb(42,41,42)" stroke="rgb(42,41,42)" d="M 4.52975,3.26112 l 0.0597381,0 0.00410107,0.0122404 0.00445048,0.0121177 0.00479624,0.0119851 -0.0254319,-0.00987826 -0.0244293,-0.0121479 -0.0232247,-0.014317 z "/>
<path fill="rgb(42,41,42)" stroke="rgb(42,41,42)" d="M 4.58494,3.00266 l 0.0123429,-0.037543 0.0155892,-0.0363153 0.0187153,-0.0348075 0.0216971,-0.0330313 0.0245115,-0.0310002 0.0271368,-0.0287301 0.0295529,-0.0262384 0.031741,-0.0235443 0.0336843,-0.0206687 7.99361e-14,2.88658e-14 -0.0336843,0.0206687 -0.031741,0.0235443 -0.0295529,0.0262384 -0.0271368,0.0287301 -0.0245115,0.0310002 -0.0216971,0.0330313 -0.0187153,0.0348075 -0.0155892,0.0363153 -0.0123429,0.037543 -1.24345e-14,0 z "/>
<path fill="rgb(42,41,42)" stroke="rgb(42,41,42)" d="M 4.74395,3.00266 l -3.37508e-14,0 0.0118811,-0.0238649 0.0139528,-0.0227159 0.0159143,-0.0213876 0.0177502,-0.0198903 0.0194458,-0.018236 0.020988,-0.0164377 0.0223644,-0.0145096 0.0235642,-0.0124669 0.0245779,-0.0103258 0.0253975,-0.00810314 1.86517e-14,2.4869e-14 -0.0253975,0.00810314 -0.0245779,0.0103258 -0.0235642,0.0124669 -0.0223644,0.0145096 -0.020988,0.0164377 -0.0194458,0.018236 -0.0177502,0.0198903 -0.0159143,0.0213876 -0.0139528,0.0227159 -0.0118811,0.0238649 z "/>
<path fill="rgb(42,41,42)" stroke="rgb(42,41,42)" d="M 4.7512,3.26112 l 0.00784758,0.0143366 0.0086167,0.013888 0.00936025,0.0133981 -1.06581e-14,3.10862e-15 -0.00936025,-0.0133981 -0.0086167,-0.013888 -0.00784758,-0.0143366 1.59872e-14,0 z "/>
<path fill="rgb(42,41,42)" stroke="rgb(42,41,42)" d="M 4.60284,3.29747 l -0.00479624,-0.0119851 -0.00445048,-0.0121177 -0.00410107,-0.0122404 2.66454e-14,0 0.00410107,0.0122404 0.00445048,0.0121177 0.00479624,0.0119851 -3.73035e-14,-1.24345e-14 z "/>
<path fill="rgb(42,41,42)" stroke="rgb(42,41,42)" d="M 4.39881,3.00266 l 0.00199117,-0.0255527 0.00416497,-0.0252895 0.00630838,-0.0248417 0.00840574,-0.0242126 0.0104417,-0.0234067 0.0124015,-0.02243 0.0142708,-0.0212896 0.0160359,-0.0199938 0.017684,-0.0185521 0.019203,-0.016975 0.0205818,-0.0152739 0.0218104,-0.0134614 0.0228798,-0.0115506 0.0237823,-0.00955556 0.0245111,-0.00749073 0.025061,-0.00537123 0.025428,-0.00321253 0.0256094,-0.00103037 0.0256039,0.0011593 0.0254115,0.00334051 0.0250336,0.00549734 0.0244731,0.00761405 -0.0336843,0.0206687 -0.031741,0.0235443 -0.0295529,0.0262384 -0.0271368,0.0287301 -0.0245115,0.0310002 -0.0216971,0.0330313 -0.0187153,0.0348075 -0.0155892,0.0363153 -0.0123429,0.037543 -0.186122,0 z "/>
<path fill="rgb(42,41,42)" stroke="rgb(42,41,42)" d="M 4.7512,3.26112 l 0.00784758,0.0143366 0.0086167,0.013888 0.00936025,0.0133981 -0.0246309,0.0055674 -0.0250119,0.00347623 -0.0252156,0.00136042 -0.0252407,-0.000765019 -0.0250869,-0.00288504 -0.0247554,-0.00498462 -0.0242485,-0.00704889 -0.00479624,-0.0119851 -0.00445048,-0.0121177 -0.00410107,-0.0122404 -2.66454e-14,0 -0.0597381,0 -0.0212411,-0.0158857 -0.0197549,-0.0176998 -0.0181143,-0.0193756 -0.0163321,-0.0208998 -0.0144222,-0.0222607 -0.0123996,-0.0234476 -0.01028,-0.0244512 -0.00808014,-0.0252636 -0.00581707,-0.0258786 -0.00350853,-0.0262913 -0.00117257,-0.0264984 2.04596e-05,-0.00350362 6.13759e-05,-0.00350314 0.000102284,-0.00350218 0.186122,0 1.24345e-14,0 0.0123429,-0.037543 0.0155892,-0.0363153 0.0187153,-0.0348075 0.0216971,-0.0330313 0.0245115,-0.0310002 0.0271368,-0.0287301 0.0295529,-0.0262384 0.031741,-0.0235443 0.0336843,-0.0206687 0.0233899,0.0095178 0.0225066,0.0114512 0.0214639,0.0133034 0.020269,0.0150614 0.0189305,0.0167126 0.017458,0.0182455 0.0158617,0.019649 -0.0253975,0.00810314 -0.0245779,0.0103258 -0.0235642,0.0124669 -0.0223644,0.0145096 -0.020988,0.0164377 -0.0194458,0.018236 -0.0177502,0.0198903 -0.0159143,0.0213876 -0.0139528,0.0227159 -0.0118811,0.0238649 3.37508e-14,0 0.254495,0 0.000102284,0.00350218 6.13759e-05,0.00350314 2.04596e-05,0.00350362 -0.00117257,0.0264984 -0.00350853,0.0262913 -0.00581707,0.0258786 -0.00808014,0.0252636 -0.01028,0.0244512 -0.0123996,0.0234476 -0.0144222,0.0222607 -0.0163321,0.0208998 -0.0181143,0.0193756 -0.0197549,0.0176998 -0.0212411,0.0158857 -0.116304,0 -1.59872e-14,0 z "/>
<path fill="rgb(42,41,42)" stroke="rgb(42,41,42)" d="M 3.04665,3.01317 l -0.00113563,0.0260786 -0.00339831,0.0258811 -0.00563525,0.0254877 -0.00782953,0.0249014 -0.00996453,0.0241265 -0.0120241,0.023169 -0.0139926,0.022036 -0.0158552,0.0207363 -0.0175978,0.0192795 -0.0192071,0.0176768 0.00865437,-0.0382966 0.00528324,-0.0389052 0.0018719,-0.0392176 -0.00155368,-0.0392315 -0.00496745,-0.0389468 -0.00834339,-0.0383656 -0.0116558,-0.0374923 -0.0148795,-0.0363336 -0.01799,-0.0348983 -0.0209635,-0.0331973 -0.0237774,-0.0312436 -0.0264102,-0.0290521 -0.0288421,-0.0266395 -0.0310544,-0.024024 -0.0330303,-0.0212257 -0.0347547,-0.0182657 0.0258277,-0.00313711 0.0260024,-0.000887518 0.0259815,0.00136875 0.0257652,0.00361473 0.0253551,0.00583351 0.0247543,0.00800843 0.0239673,0.0101231 0.0230001,0.0121616 0.0218599,0.0141087 0.0205552,0.0159497 0.019096,0.0176707 0.0174931,0.0192588 0.0157587,0.020702 0.0139058,0.0219895 0.0119482,0.0231117 0.00990081,0.02406 0.00777893,0.0248274 0.00559855,0.025408 0.00337606,0.0257975 0.00112818,0.025993 z "/>
<path fill="rgb(42,41,42)" stroke="rgb(42,41,42)" d="M 2.51349,2.8244 l 0.0256148,0.0017537 0.0253711,0.00393745 0.0249415,0.00609236 0.0243292,0.00820265 0.0235388,0.0102529 0.0225759,0.012228 0.0214477,0.0141135 0.0201624,0.0158957 0.0187294,0.0175615 0.0171592,0.0190986 0.0154634,0.0204958 0.0136542,0.0217429 0.0117451,0.0228308 0.00974998,0.0237515 0.00768343,0.0244981 0.0055606,0.0250654 0.00339704,0.025449 0.0012086,0.0256463 -0.000988698,0.0256557 -0.00317875,0.0254772 -0.00534552,0.0251121 -0.00747313,0.0245631 -0.00954601,0.0238342 -0.011549,0.0229307 -0.0134673,0.0218592 -0.0152871,0.0206276 0.0152871,-0.0206276 0.0134673,-0.0218592 0.011549,-0.0229307 0.00954601,-0.0238342 0.00747313,-0.0245631 0.00534552,-0.0251121 0.00317875,-0.0254772 0.000988698,-0.0256557 -0.0012086,-0.0256463 -0.00339704,-0.025449 -0.0055606,-0.0250654 -0.00768343,-0.0244981 -0.00974998,-0.0237515 -0.0117451,-0.0228308 -0.0136542,-0.0217429 -0.0154634,-0.0204958 -0.0171592,-0.0190986 -0.0187294,-0.0175615 -0.0201624,-0.0158957 -0.0214477,-0.0141135 -0.0225759,-0.012228 -0.0235388,-0.0102529 -0.0243292,-0.00820265 -0.0249415,-0.00609236 -0.0253711,-0.00393745 -0.0256148,-0.0017537 1.2701e-13,-1.56763e-13 z "/>
<path fill="rgb(42,41,42)" stroke="rgb(42,41,42)" d="M 2.6976,2.71721 l 0.0347547,0.0182657 0.0330303,0.0212257 0.0310544,0.024024 0.0288421,0.0266395 0.0264102,0.0290521 0.0237774,0.0312436 0.0209635,0.0331973 0.01799,0.0348983 0.0148795,0.0363336 0.0116558,0.0374923 0.00834339,0.0383656 0.00496745,0.0389468 0.00155368,0.0392315 -0.0018719,0.0392176 -0.00528324,0.0389052 -0.00865437,0.0382966 -0.0215816,0.0165787 -0.0229952,0.0145548 -0.0242196,0.012411 -0.0252446,0.0101652 -0.0260619,0.00783563 -0.0266648,0.00544163 -0.0270482,0.00300284 -0.027209,0.000539345 0.0152871,-0.0206276 0.0134673,-0.0218592 0.011549,-0.0229307 0.00954601,-0.0238342 0.00747313,-0.0245631 0.00534552,-0.0251121 0.00317875,-0.0254772 0.000988698,-0.0256557 -0.0012086,-0.0256463 -0.00339704,-0.025449 -0.0055606,-0.0250654 -0.00768343,-0.0244981 -0.00974998,-0.0237515 -0.0117451,-0.0228308 -0.0136542,-0.0217429 -0.0154634,-0.0204958 -0.0171592,-0.0190986 -0.0187294,-0.0175615 -0.0201624,-0.0158957 -0.0214477,-0.0141135 -0.0225759,-0.012228 -0.0235388,-0.0102529 -0.0243292,-0.00820265 -0.0249415,-0.00609236 -0.0253711,-0.00393745 -0.0256148,-0.0017537 0.0180663,-0.0203527 0.0198363,-0.0186317 0.0214431,-0.0167575 0.0228735,-0.0147453 0.0241156,-0.0126118 0.0251593,-0.0103746 0.0259959,-0.00805191 0.0266187,-0.00566299 z "/>
<path fill="rgb(42,41,42)" stroke="rgb(42,41,42)" d="M 2.46263,3.10976 l 0.00423955,-0.0013235 0.00434027,-0.000942067 0.00440674,-0.0005532 0.00443845,-0.000159968 0.00443513,0.000234526 0.00439682,0.00062717 0.00432382,0.00101486 0.00421671,0.00139455 0.00407632,0.00176324 0.00390377,0.00211801 0.00370042,0.00245607 0.00346787,0.00277475 0.00320796,0.00307154 0.00292274,0.00334409 0.00261446,0.00359026 0.00228555,0.0038081 3.55271e-15,7.10543e-15 0.0769884,0.142234 -0.0234095,-0.0144947 -0.021982,-0.0165799 -0.0203693,-0.0185254 -0.0185851,-0.0203149 -0.0166443,-0.0219333 -0.0145633,-0.0233669 -0.0123596,-0.0246037 -0.0100519,-0.0256332 z "/>
<path fill="rgb(42,41,42)" stroke="rgb(42,41,42)" d="M 2.6976,2.71721 l 3.30402e-13,-5.50671e-14 0.0347547,0.0182657 0.0330303,0.0212257 0.0310544,0.024024 0.0288421,0.0266395 0.0264102,0.0290521 0.0237774,0.0312436 0.0209635,0.0331973 0.01799,0.0348983 0.0148795,0.0363336 0.0116558,0.0374923 0.00834339,0.0383656 0.00496745,0.0389468 0.00155368,0.0392315 -0.0018719,0.0392176 -0.00528324,0.0389052 -0.00865437,0.0382966 -1.28342e-13,1.07914e-13 0.00865437,-0.0382966 0.00528324,-0.0389052 0.0018719,-0.0392176 -0.00155368,-0.0392315 -0.00496745,-0.0389468 -0.00834339,-0.0383656 -0.0116558,-0.0374923 -0.0148795,-0.0363336 -0.01799,-0.0348983 -0.0209635,-0.0331973 -0.0237774,-0.0312436 -0.0264102,-0.0290521 -0.0288421,-0.0266395 -0.0310544,-0.024024 -0.0330303,-0.0212257 -0.0347547,-0.0182657 z "/>
<path fill="rgb(187,30,16)" stroke="rgb(187,30,16)" d="M 0.2,3.75 l -0.2,0 0.0142699,-0.326834 0.042701,-0.324347 0.0708072,-0.319391 0.0983745,-0.312004 0.125193,-0.302243 0.151059,-0.290182 0.175775,-0.275912 0.199154,-0.259542 0.221016,-0.241197 0.241197,-0.221016 0.259542,-0.199154 0.275912,-0.175775 0.290182,-0.151059 0.302243,-0.125193 0.312004,-0.0983745 0.319391,-0.0708072 0.324347,-0.042701 0.326834,-0.0142699 0.326834,0.0142699 0.324347,0.042701 0.319391,0.0708072 0.312004,0.0983745 0.302243,0.125193 0.290182,0.151059 0.275912,0.175775 0.259542,0.199154 0.241197,0.221016 0.221016,0.241197 0.199154,0.259542 0.175775,0.275912 0.151059,0.290182 0.125193,0.302243 0.0983745,0.312004 0.0708072,0.319391 0.042701,0.324347 0.0142699,0.326834 -0.2,0 -0.0135088,-0.309403 -0.0404237,-0.307048 -0.0670308,-0.302357 -0.0931279,-0.295364 -0.118516,-0.286123 -0.143002,-0.274705 -0.1664,-0.261196 -0.188532,-0.2457 -0.209229,-0.228333 -0.228333,-0.209229 -0.2457,-0.188532 -0.261196,-0.1664 -0.274705,-0.143002 -0.286123,-0.118516 -0.295364,-0.0931279 -0.302357,-0.0670308 -0.307048,-0.0404237 -0.309403,-0.0135088 -0.309403,0.0135088 -0.307048,0.0404237 -0.302357,0.0670308 -0.295364,0.0931279 -0.286123,0.118516 -0.274705,0.143002 -0.261196,0.1664 -0.2457,0.188532 -0.228333,0.209229 -0.209229,0.228333 -0.188532,0.2457 -0.1664,0.261196 -0.143002,0.274705 -0.118516,0.286123 -0.0931279,0.295364 -0.0670308,0.302357 -0.0404237,0.307048 -0.0135088,0.309403 z "/>
<path fill="rgb(187,30,16)" stroke="rgb(187,30,16)" d="M 0.2,3.75 l 0.0135088,0.309403 0.0404237,0.307048 0.0670308,0.302357 0.0931279,0.295364 0.118516,0.286123 0.143002,0.274705 0.1664,0.261196 0.188532,0.2457 0.209229,0.228333 0.228333,0.209229 0.2457,0.188532 0.261196,0.1664 0.274705,0.143002 0.286123,0.118516 0.295364,0.0931279 0.302357,0.0670308 0.307048,0.0404237 0.309403,0.0135088 0.309403,-0.0135088 0.307048,-0.0404237 0.302357,-0.0670308 0.295364,-0.0931279 0.286123,-0.118516 0.274705,-0.143002 0.261196,-0.1664 0.2457,-0.188532 0.228333,-0.209229 0.209229,-0.228333 0.188532,-0.2457 0.1664,-0.261196 0.143002,-0.274705 0.118516,-0.286123 0.0931279,-0.295364 0.0670308,-0.302357 0.0404237,-0.307048 0.0135088,-0.309403 0.2,0 -0.0142699,0.326834 -0.042701,0.324347 -0.0708072,0.319391 -0.0983745,0.312004 -0.125193,0.302243 -0.151059,0.290182 -0.175775,0.275912 -0.199154,0.259542 -0.221016,0.241197 -0.241197,0.221016 -0.259542,0.199154 -0.275912,0.175775 -0.290182,0.151059 -0.302243,0.125193 -0.312004,0.0983745 -0.319391,0.0708072 -0.324347,0.042701 -0.326834,0.0142699 -0.326834,-0.0142699 -0.324347,-0.042701 -0.319391,-0.0708072 -0.312004,-0.0983745 -0.302243,-0.125193 -0.290182,-0.151059 -0.275912,-0.175775 -0.259542,-0.199154 -0.241197,-0.221016 -0.221016,-0.241197 -0.199154,-0.259542 -0.175775,-0.275912 -0.151059,-0.290182 -0.125193,-0.302243 -0.0983745,-0.312004 -0.0708072,-0.319391 -0.042701,-0.324347 -0.0142699,-0.326834 0.2,0 z "/>
<path fill="rgb(187,30,16)" stroke="rgb(187,30,16)" d="M 7.1,3.75 l -0.7,0 -0.0100841,-0.230963 -0.0301754,-0.229205 -0.0500371,-0.225703 -0.069518,-0.220483 -0.0884698,-0.213585 -0.106748,-0.205062 -0.124214,-0.194978 -0.140735,-0.18341 -0.156185,-0.170446 -0.170446,-0.156185 -0.18341,-0.140735 -0.194978,-0.124214 -0.205062,-0.106748 -0.213585,-0.0884698 -0.220483,-0.069518 -0.225703,-0.0500371 -0.229205,-0.0301754 -0.230963,-0.0100841 -0.230963,0.0100841 -0.229205,0.0301754 -0.225703,0.0500371 -0.220483,0.069518 -0.213585,0.0884698 -0.205062,0.106748 -0.194978,0.124214 -0.18341,0.140735 -0.170446,0.156185 -0.156185,0.170446 -0.140735,0.18341 -0.124214,0.194978 -0.106748,0.205062 -0.0884698,0.213585 -0.069518,0.220483 -0.0500371,0.225703 -0.0301754,0.229205 -0.0100841,0.230963 -0.7,0 0.0127478,-0.291972 0.0381463,-0.28975 0.0632545,-0.285322 0.0878812,-0.278724 0.111839,-0.270004 0.134946,-0.259229 0.157026,-0.246481 0.17791,-0.231857 0.197441,-0.215469 0.215469,-0.197441 0.231857,-0.17791 0.246481,-0.157026 0.259229,-0.134946 0.270004,-0.111839 0.278724,-0.0878812 0.285322,-0.0632545 0.28975,-0.0381463 0.291972,-0.0127478 0.291972,0.0127478 0.28975,0.0381463 0.285322,0.0632545 0.278724,0.0878812 0.270004,0.111839 0.259229,0.134946 0.246481,0.157026 0.231857,0.17791 0.215469,0.197441 0.197441,0.215469 0.17791,0.231857 0.157026,0.246481 0.134946,0.259229 0.111839,0.270004 0.0878812,0.278724 0.0632545,0.285322 0.0381463,0.28975 0.0127478,0.291972 z "/>
<path fill="rgb(187,30,16)" stroke="rgb(187,30,16)" d="M 7.1,3.75 l -0.0127478,0.291972 -0.0381463,0.28975 -0.0632545,0.285322 -0.0878812,0.278724 -0.111839,0.270004 -0.134946,0.259229 -0.157026,0.246481 -0.17791,0.231857 -0.197441,0.215469 -0.215469,0.197441 -0.231857,0.17791 -0.246481,0.157026 -0.259229,0.134946 -0.270004,0.111839 -0.278724,0.0878812 -0.285322,0.0632545 -0.28975,0.0381463 -0.291972,0.0127478 -0.291972,-0.0127478 -0.28975,-0.0381463 -0.285322,-0.0632545 -0.278724,-0.0878812 -0.270004,-0.111839 -0.259229,-0.134946 -0.246481,-0.157026 -0.231857,-0.17791 -0.215469,-0.197441 -0.197441,-0.215469 -0.17791,-0.231857 -0.157026,-0.246481 -0.134946,-0.259229 -0.111839,-0.270004 -0.0878812,-0.278724 -0.0632545,-0.285322 -0.0381463,-0.28975 -0.0127478,-0.291972 0.7,0 0.0100841,0.230963 0.0301754,0.229205 0.0500371,0.225703 0.069518,0.220483 0.0884698,0.213585 0.106748,0.205062 0.124214,0.194978 0.140735,0.18341 0.156185,0.170446 0.170446,0.156185 0.18341,0.140735 0.194978,0.124214 0.205062,0.106748 0.213585,0.0884698 0.220483,0.069518 0.225703,0.0500371 0.229205,0.0301754 0.230963,0.0100841 0.230963,-0.0100841 0.229205,-0.0301754 0.225703,-0.0500371 0.220483,-0.069518 0.213585,-0.0884698 0.205062,-0.106748 0.194978,-0.124214 0.18341,-0.140735 0.170446,-0.156185 0.156185,-0.170446 0.140735,-0.18341 0.124214,-0.194978 0.106748,-0.205062 0.0884698,-0.213585 0.069518,-0.220483 0.0500371,-0.225703 0.0301754,-0.229205 0.0100841,-0.230963 0.7,0 z "/>
</g></g></svg>
