<?xml version="1.0" encoding="UTF-8" standalone="no"?>
<!DOCTYPE svg PUBLIC "-//W3C//DTD SVG 1.1//EN" "http://www.w3.org/Graphics/SVG/1.1/DTD/svg11-flat.dtd"
[

]>
<svg xmlns="http://www.w3.org/2000/svg"  viewBox="-0.0583333 -0.0583333 5.61667 3.61667"><g fill="none" stroke="black" stroke-width="0.0125" transform="translate(0,3.5) scale(1, -1)">
<g id="Output" >
<path fill="rgb(125,50,125)" stroke="rgb(125,50,125)" d="M 1.5,0.625394 l -0.00171239,0.0392201 -0.00512413,0.0389216 -0.00849687,0.0383269 -0.0118049,0.0374405 -0.0150232,0.0362692 -0.0181271,0.0348218 -0.021093,0.0331094 -0.0238984,0.031145 -0.0265219,0.0289436 -0.0289436,0.0265219 -0.031145,0.0238984 -0.0331094,0.021093 -0.0348218,0.0181271 -0.0362692,0.0150232 -0.0374405,0.0118049 -0.0383269,0.00849687 -0.0389216,0.00512413 -0.0392201,0.00171239 -0.0392201,-0.00171239 -0.0389216,-0.00512413 -0.0383269,-0.00849687 -0.0374405,-0.0118049 -0.0362692,-0.0150232 -0.0348218,-0.0181271 -0.0331094,-0.021093 -0.031145,-0.0238984 -0.0289436,-0.0265219 -0.0265219,-0.0289436 -0.0238984,-0.031145 -0.021093,-0.0331094 -0.0181271,-0.0348218 -0.0150232,-0.0362692 -0.0118049,-0.0374405 -0.00849687,-0.0383269 -0.00512413,-0.0389216 -0.00171239,-0.0392201 0.00171239,-0.0392201 0.00512413,-0.0389216 0.00849687,-0.0383269 0.0118049,-0.0374405 0.0150232,-0.0362692 0.0181271,-0.0348218 0.021093,-0.0331094 0.0238984,-0.031145 0.0265219,-0.0289436 0.0289436,-0.0265219 0.031145,-0.0238984 0.0331094,-0.021093 0.0348218,-0.0181271 0.0362692,-0.0150232 0.0374405,-0.0118049 0.0383269,-0.00849687 0.0389216,-0.00512413 0.0392201,-0.00171239 0.0392201,0.00171239 0.0389216,0.00512413 0.0383269,0.00849687 0.0374405,0.0118049 0.0362692,0.0150232 0.0348218,0.0181271 0.0331094,0.021093 0.031145,0.0238984 0.0289436,0.0265219 0.0265219,0.0289436 0.0238984,0.031145 0.021093,0.0331094 0.0181271,0.0348218 0.0150232,0.0362692 0.0118049,0.0374405 0.00849687,0.0383269 0.00512413,0.0389216 0.00171239,0.0392201 z "/>
<path fill="rgb(241,240,234)" stroke="rgb(241,240,234)" d="M 5,1 l 0,-0.96326 0.022331,0.00704094 0.0585112,0.0242362 0.0561763,0.0292435 0.0534138,0.0340283 0.0502447,0.0385542 0.0466933,0.0427866 0.0427866,0.0466933 0.0385542,0.0502447 0.0340283,0.0534138 0.0292435,0.0561763 0.0242362,0.0585112 0.0190443,0.0604009 0.0137076,0.0618309 0.0082665,0.0627903 0.00276251,0.0632718 0,0.274037 -0.5,0 z "/>
<path fill="rgb(241,240,234)" stroke="rgb(241,240,234)" d="M 4,3.5 l 0,-0.5 1,0 0,0.46326 -0.0380699,0.0120034 -0.0618309,0.0137076 -0.0627903,0.0082665 -0.0632718,0.00276251 -0.774037,0 z "/>
<path fill="rgb(241,240,234)" stroke="rgb(241,240,234)" d="M 4,2.29006 l 0.128925,0 0,-0.290063 0.871075,0 0,1 -1,0 0,-0.709937 z "/>
<path fill="rgb(241,240,234)" stroke="rgb(241,240,234)" d="M 1.88786,2 l -0.887865,0 0,-0.927737 0.0107799,0.0014192 0.0392201,0.00171239 0.0392201,-0.00171239 0.0389216,-0.00512413 0.0383269,-0.00849687 0.0374405,-0.0118049 0.0362692,-0.0150232 0.0348218,-0.0181271 0.0237115,-0.0151059 0.701288,0 0,0.518199 -0.00321481,-0.0062381 -0.0071509,-0.0173854 -0.00563783,-0.0179332 -0.00408344,-0.0183497 -0.00249913,-0.0186317 -0.00089651,-0.0187772 -0.175806,0 0,0.0755745 0.0345046,0.0213673 -0.0197226,0.266169 0.0470137,0.140322 0.0253572,0.075684 z "/>
<path fill="rgb(241,240,234)" stroke="rgb(241,240,234)" d="M 3,3.5 l 0,-0.5 1,0 0,0.5 -1,-4.44089e-16 z "/>
<path fill="rgb(241,240,234)" stroke="rgb(241,240,234)" d="M 0.03674,3 l 0.96326,0 0,0.5 -0.274037,0 -0.0632718,-0.00276251 -0.0627903,-0.0082665 -0.0618309,-0.0137076 -0.0604009,-0.0190443 -0.0585112,-0.0242362 -0.0561763,-0.0292435 -0.0534138,-0.0340283 -0.0502447,-0.0385542 -0.0466933,-0.0427866 -0.0427866,-0.0466933 -0.0385542,-0.0502447 -0.0340283,-0.0534138 -0.0292435,-0.0561763 -0.0242362,-0.0585112 -0.00704094,-0.022331 z "/>
<path fill="rgb(241,240,234)" stroke="rgb(241,240,234)" d="M 0,2 l 1,0 0,1 -0.96326,0 -0.0120034,-0.0380699 -0.0137076,-0.0618309 -0.0082665,-0.0627903 -0.00276251,-0.0632718 0,-0.774037 z "/>
<path fill="rgb(241,240,234)" stroke="rgb(241,240,234)" d="M 0.801288,1 l -0.801288,0 8.88178e-16,-0.274037 0.00276251,-0.0632718 0.0082665,-0.0627903 0.0137076,-0.0618309 0.0190443,-0.0604009 0.0242362,-0.0585112 0.0292435,-0.0561763 0.0340283,-0.0534138 0.0385542,-0.0502447 0.0427866,-0.0466933 0.0466933,-0.0427866 0.0502447,-0.0385542 0.0534138,-0.0340283 0.0561763,-0.0292435 0.0585112,-0.0242362 0.0604009,-0.0190443 0.0618309,-0.0137076 0.0627903,-0.0082665 0.0632718,-0.00276251 0.274037,0 0,0.178526 -0.0281417,0.00370492 -0.0383269,0.00849687 -0.0374405,0.0118049 -0.0362692,0.0150232 -0.0348218,0.0181271 -0.0331094,0.021093 -0.031145,0.0238984 -0.0289436,0.0265219 -0.0265219,0.0289436 -0.0238984,0.031145 -0.021093,0.0331094 -0.0181271,0.0348218 -0.0150232,0.0362692 -0.0118049,0.0374405 -0.00849687,0.0383269 -0.00512413,0.0389216 -0.00171239,0.0392201 0.00171239,0.0392201 0.00512413,0.0389216 0.00849687,0.0383269 0.0118049,0.0374405 0.0150232,0.0362692 0.0181271,0.0348218 0.021093,0.0331094 0.0238984,0.031145 0.0265219,0.0289436 0.0289436,0.0265219 0.031145,0.0238984 0.00939786,0.0059871 z "/>
<path fill="rgb(241,240,234)" stroke="rgb(241,240,234)" d="M 4,1.4751 l 0,-0.475104 1,0 0,1 -0.871075,0 0,-0.524896 -0.128925,0 z "/>
<path fill="rgb(241,240,234)" stroke="rgb(241,240,234)" d="M 4,1 l 0,-1 0.774037,8.88178e-16 0.0632718,0.00276251 0.0627903,0.0082665 0.0618309,0.0137076 0.0380699,0.0120034 0,0.96326 -1,0 z "/>
<path fill="rgb(241,240,234)" stroke="rgb(241,240,234)" d="M 5.5,2 l 0,0.774037 -0.00276251,0.0632718 -0.0082665,0.0627903 -0.0137076,0.0618309 -0.0120034,0.0380699 -0.46326,0 0,-1 0.5,0 z "/>
<path fill="rgb(241,240,234)" stroke="rgb(241,240,234)" d="M 5,3 l 0.46326,0 -0.00704094,0.022331 -0.0242362,0.0585112 -0.0292435,0.0561763 -0.0340283,0.0534138 -0.0385542,0.0502447 -0.0427866,0.0466933 -0.0466933,0.0427866 -0.0502447,0.0385542 -0.0534138,0.0340283 -0.0561763,0.0292435 -0.0585112,0.0242362 -0.022331,0.00704094 0,-0.46326 z "/>
<path fill="rgb(241,240,234)" stroke="rgb(241,240,234)" d="M 5.5,1 l 0,1 -0.5,0 0,-1 0.5,0 z "/>
<path fill="rgb(241,240,234)" stroke="rgb(241,240,234)" d="M 2,0 l 0,1 -0.701288,0 0.00939786,-0.0059871 0.031145,-0.0238984 0.0289436,-0.0265219 0.0265219,-0.0289436 0.0238984,-0.031145 0.021093,-0.0331094 0.0181271,-0.0348218 0.0150232,-0.0362692 0.0118049,-0.0374405 0.00849687,-0.0383269 0.00512413,-0.0389216 0.00171239,-0.0392201 -0.00171239,-0.0392201 -0.00512413,-0.0389216 -0.00849687,-0.0383269 -0.0118049,-0.0374405 -0.0150232,-0.0362692 -0.0181271,-0.0348218 -0.021093,-0.0331094 -0.0238984,-0.031145 -0.0265219,-0.0289436 -0.0289436,-0.0265219 -0.031145,-0.0238984 -0.0331094,-0.021093 -0.0348218,-0.0181271 -0.0362692,-0.0150232 -0.0374405,-0.0118049 -0.0383269,-0.00849687 -0.0389216,-0.00512413 -0.0392201,-0.00171239 -0.0392201,0.00171239 -0.0107799,0.0014192 0,-0.178526 1,0 z "/>
<path fill="rgb(241,240,234)" stroke="rgb(241,240,234)" d="M 1.88786,2 l 0.0350263,0.104543 0.00126451,0.00369371 0.00157562,0.0035721 0.00187519,0.00342434 0.00216104,0.00325152 0.00243107,0.0030549 0.0026833,0.00283591 0.00291589,0.00259617 0.00312713,0.00233742 0.00331549,0.00206156 0.00347957,0.00177061 0.00361819,0.0014667 0.00373032,0.00115205 0.00381514,0.00082897 0.00387204,0.000499822 0.00390059,0.000167015 0.033344,0 0,0.862744 -1,0 0,-1 0.887865,0 z "/>
<path fill="rgb(241,240,234)" stroke="rgb(241,240,234)" d="M 2.11214,1.83986 l 0.104269,0 0.00200483,8.7549e-05 0.00198957,0.00026198 0.00195916,0.000434417 0.00191383,0.000603547 0.00185393,0.000768081 0.00177992,0.000926768 0.00169235,0.0010784 0.00159191,0.00122182 0.00147934,0.00135594 0.00135551,0.00147973 0.00122136,0.00159226 0.00107791,0.00169267 0.00092625,0.00178019 0.000767542,0.00185415 0.00060299,0.001914 0.000433848,0.00195928 0.000261402,0.00198964 8.69663e-05,0.00200486 0,0.17745 -8.01895e-05,0.00185168 -0.000239968,0.00183781 -0.00039795,0.00181019 -0.000552952,0.00176901 -0.000703813,0.00171458 -0.000849405,0.00164732 -0.000988637,0.00156772 -0.00112047,0.00147638 -0.0012439,0.00137399 -0.00135803,0.00126131 -0.00146199,0.00113919 -0.001555,0.00100853 -0.00163636,0.000870325 -0.00170548,0.000725602 -0.00176182,0.000575446 -0.00180497,0.000420981 -0.00183461,0.000263364 -0.00185051,0.000103775 -0.00185255,-5.65907e-05 -0.198811,0 -0.00214713,-9.49566e-05 -0.00213037,-0.000284128 -0.00209697,-0.000471082 -0.00204719,-0.000654357 -0.00198144,-0.000832522 -0.00190021,-0.00100419 -0.00180414,-0.00116801 -0.00169399,-0.00132272 -0.00157061,-0.00146709 -0.00143497,-0.00160002 -0.00128812,-0.00172044 -0.00113122,-0.00182744 -0.000965481,-0.00192016 -0.000792205,-0.0019979 -0.000612744,-0.00206003 -0.0352028,-0.118934 -0.0249982,-0.0844572 0.17834,0 z "/>
<path fill="rgb(241,240,234)" stroke="rgb(241,240,234)" d="M 1,3 l 1,0 0,0.5 -1,0 0,-0.5 z "/>
<path fill="rgb(241,240,234)" stroke="rgb(241,240,234)" d="M 3,0 l 1,0 0,1 -1,0 0,-1 z "/>
<path fill="rgb(241,240,234)" stroke="rgb(241,240,234)" d="M 2,0 l 1,0 0,1 -1,0 0,-1 z "/>
<path fill="rgb(241,240,234)" stroke="rgb(241,240,234)" d="M 2.36747,1.42088 l -0.000650243,-0.014893 -0.00194578,-0.0147797 -0.00322651,-0.0145538 -0.00448268,-0.0142172 -0.00570474,-0.0137725 -0.00688338,-0.0132228 -0.00800963,-0.0125726 -0.00907493,-0.0118267 -0.0100712,-0.0109907 -0.0109907,-0.0100712 -0.0118267,-0.00907493 -0.0125726,-0.00800963 -0.0132228,-0.00688338 -0.0137725,-0.00570474 -0.0142172,-0.00448268 -0.0145538,-0.00322651 -0.0147797,-0.00194578 -0.014893,-0.000650243 -0.014893,0.000650243 -0.0147797,0.00194578 -0.0145538,0.00322651 -0.0142172,0.00448268 -0.0137725,0.00570474 -0.0132228,0.00688338 -0.0125726,0.00800963 -0.0118267,0.00907493 -0.0109907,0.0100712 -0.0100712,0.0109907 -0.00907493,0.0118267 -0.00800963,0.0125726 -0.00688338,0.0132228 -0.00570474,0.0137725 -0.00448268,0.0142172 -0.00322651,0.0145538 -0.00194578,0.0147797 -0.000650243,0.014893 0.000650243,0.014893 0.00194578,0.0147797 0.00322651,0.0145538 0.00448268,0.0142172 0.00570474,0.0137725 0.00688338,0.0132228 0.00800963,0.0125726 0.00907493,0.0118267 0.0100712,0.0109907 0.0109907,0.0100712 0.0118267,0.00907493 0.0125726,0.00800963 0.0132228,0.00688338 0.0137725,0.00570474 0.0142172,0.00448268 0.0145538,0.00322651 0.0147797,0.00194578 0.014893,0.000650243 0.014893,-0.000650243 0.0147797,-0.00194578 0.0145538,-0.00322651 0.0142172,-0.00448268 0.0137725,-0.00570474 0.0132228,-0.00688338 0.0125726,-0.00800963 0.0118267,-0.00907493 0.0109907,-0.0100712 0.0100712,-0.0109907 0.00907493,-0.0118267 0.00800963,-0.0125726 0.00688338,-0.0132228 0.00570474,-0.0137725 0.00448268,-0.0142172 0.00322651,-0.0145538 0.00194578,-0.0147797 0.000650243,-0.014893 z M 2,1 l 1,0 0,0.475104 -0.591356,0 -0.00575201,0.0186601 -0.00738684,0.0180754 -0.00896327,0.0173477 -0.0104688,0.016483 -0.0118916,0.0154879 -0.0132204,0.0143703 -0.0144446,0.0131391 -0.0155547,0.0118041 -0.0165417,0.0103757 -0.017398,0.00886528 -0.0181167,0.00728477 -0.0186922,0.00564667 -0.0191199,0.00396392 -0.0193965,0.00224984 -0.0195196,0.00051796 -0.0194885,-0.00121801 -0.0193032,-0.00294435 -0.0182658,-0.00444387 -0.0178188,-0.00598975 -0.0172412,-0.00749175 -0.0165373,-0.00893885 -0.0157123,-0.0103204 -0.014772,-0.0116264 -0.0137236,-0.0128472 -0.0125745,-0.0139738 -0.0113334,-0.014998 -0.0100091,-0.0159124 -0.00539676,-0.010472 0,-0.518199 z M 2.40207,2 l -0.0680946,0 0.0204461,-0.188074 0,-0.126506 0.0476485,0 0,0.314579 z "/>
<path fill="rgb(241,240,234)" stroke="rgb(241,240,234)" d="M 3,2.29006 l 1,0 0,0.709937 -1,0 0,-0.709937 z "/>
<path fill="rgb(241,240,234)" stroke="rgb(241,240,234)" d="M 3.47429,1.42088 l -0.000650243,-0.014893 -0.00194578,-0.0147797 -0.00322651,-0.0145538 -0.00448268,-0.0142172 -0.00570474,-0.0137725 -0.00688338,-0.0132228 -0.00800963,-0.0125726 -0.00907493,-0.0118267 -0.0100712,-0.0109907 -0.0109907,-0.0100712 -0.0118267,-0.00907493 -0.0125726,-0.00800963 -0.0132228,-0.00688338 -0.0137725,-0.00570474 -0.0142172,-0.00448268 -0.0145538,-0.00322651 -0.0147797,-0.00194578 -0.014893,-0.000650243 -0.014893,0.000650243 -0.0147797,0.00194578 -0.0145538,0.00322651 -0.0142172,0.00448268 -0.0137725,0.00570474 -0.0132228,0.00688338 -0.0125726,0.00800963 -0.0118267,0.00907493 -0.0109907,0.0100712 -0.0100712,0.0109907 -0.00907493,0.0118267 -0.00800963,0.0125726 -0.00688338,0.0132228 -0.00570474,0.0137725 -0.00448268,0.0142172 -0.00322651,0.0145538 -0.00194578,0.0147797 -0.000650243,0.014893 0.000650243,0.014893 0.00194578,0.0147797 0.00322651,0.0145538 0.00448268,0.0142172 0.00570474,0.0137725 0.00688338,0.0132228 0.00800963,0.0125726 0.00907493,0.0118267 0.0100712,0.0109907 0.0109907,0.0100712 0.0118267,0.00907493 0.0125726,0.00800963 0.0132228,0.00688338 0.0137725,0.00570474 0.0142172,0.00448268 0.0145538,0.00322651 0.0147797,0.00194578 0.014893,0.000650243 0.014893,-0.000650243 0.0147797,-0.00194578 0.0145538,-0.00322651 0.0142172,-0.00448268 0.0137725,-0.00570474 0.0132228,-0.00688338 0.0125726,-0.00800963 0.0118267,-0.00907493 0.0109907,-0.0100712 0.0100712,-0.0109907 0.00907493,-0.0118267 0.00800963,-0.0125726 0.00688338,-0.0132228 0.00570474,-0.0137725 0.00448268,-0.0142172 0.00322651,-0.0145538 0.00194578,-0.0147797 0.000650243,-0.014893 z M 3.51586,1.42088 l 0.000650243,0.014893 0.00194578,0.0147797 0.00322651,0.0145538 0.00448268,0.0142172 0.00570474,0.0137725 0.00688338,0.0132228 0.00800963,0.0125726 0.00907493,0.0118267 0.0100712,0.0109907 0.0109907,0.0100712 0.0118267,0.00907493 0.0125726,0.00800963 0.0132228,0.00688338 0.0137725,0.00570474 0.0142172,0.00448268 0.0145538,0.00322651 0.0147797,0.00194578 0.014893,0.000650243 0.014893,-0.000650243 0.0147797,-0.00194578 0.0145538,-0.00322651 0.0142172,-0.00448268 0.0137725,-0.00570474 0.0132228,-0.00688338 0.0125726,-0.00800963 0.0118267,-0.00907493 0.0109907,-0.0100712 0.0100712,-0.0109907 0.00907493,-0.0118267 0.00800963,-0.0125726 0.00688338,-0.0132228 0.00570474,-0.0137725 0.00448268,-0.0142172 0.00322651,-0.0145538 0.00194578,-0.0147797 0.000650243,-0.014893 -0.000650243,-0.014893 -0.00194578,-0.0147797 -0.00322651,-0.0145538 -0.00448268,-0.0142172 -0.00570474,-0.0137725 -0.00688338,-0.0132228 -0.00800963,-0.0125726 -0.00907493,-0.0118267 -0.0100712,-0.0109907 -0.0109907,-0.0100712 -0.0118267,-0.00907493 -0.0125726,-0.00800963 -0.0132228,-0.00688338 -0.0137725,-0.00570474 -0.0142172,-0.00448268 -0.0145538,-0.00322651 -0.0147797,-0.00194578 -0.014893,-0.000650243 -0.014893,0.000650243 -0.0147797,0.00194578 -0.0145538,0.00322651 -0.0142172,0.00448268 -0.0137725,0.00570474 -0.0132228,0.00688338 -0.0125726,0.00800963 -0.0118267,0.00907493 -0.0109907,0.0100712 -0.0100712,0.0109907 -0.00907493,0.0118267 -0.00800963,0.0125726 -0.00688338,0.0132228 -0.00570474,0.0137725 -0.00448268,0.0142172 -0.00322651,0.0145538 -0.00194578,0.0147797 -0.000650243,0.014893 z M 3,1 l 1,0 0,0.475104 -0.101101,0 -0.00560887,0.0184011 -0.00720305,0.0178375 -0.00874159,0.017136 -0.0102126,0.0163022 -0.0116047,0.0153424 -0.0129071,0.0142641 -0.0141098,0.0130756 -0.0152035,0.0117861 -0.0161798,0.0104055 -0.017031,0.00894448 -0.0177507,0.00741439 -0.0183332,0.00582701 -0.018774,0.00419461 -0.0190699,0.0025298 -0.0192183,0.000845443 -0.385906,0 -0.0191353,-0.000904577 -0.018982,-0.00258133 -0.018682,-0.00423815 -0.0182377,-0.00586223 -0.0176525,-0.00744101 -0.0169309,-0.00896232 -0.0160785,-0.0104144 -0.0151019,-0.011786 -0.0140087,-0.0130666 -0.0128072,-0.0142462 -0.0115068,-0.0153157 -0.0101175,-0.016267 -0.00865004,-0.0170925 -0.00711575,-0.0177861 -0.00552649,-0.0183422 -0.0905119,0 0,-0.475104 z "/>
<path fill="rgb(241,240,234)" stroke="rgb(241,240,234)" d="M 2.33398,2 l 0.0680946,0 0,0.290063 0.597928,0 0,0.709937 -1,0 0,-0.862744 0.298558,0 0.0021715,-0.000330165 0.00213583,-0.000512518 0.00208487,-0.000691204 0.00201899,-0.000864943 0.00193866,-0.00103249 0.00184446,-0.00119265 0.00173705,-0.00134428 0.00161722,-0.00148628 0.00148581,-0.00161765 0.00134377,-0.00173744 0.00119212,-0.0018448 0.00103193,-0.00193896 0.000864356,-0.00201924 0.000690598,-0.00208507 0.000511898,-0.00213598 0.000329534,-0.0021716 0.0124205,-0.114251 z "/>
<path fill="rgb(241,240,234)" stroke="rgb(241,240,234)" d="M 2,3 l 1,0 0,0.5 -1,-4.44089e-16 0,-0.5 z "/>
<path fill="rgb(241,240,234)" stroke="rgb(241,240,234)" d="M 0.801288,1 l 0.0237115,0.0151059 0.0348218,0.0181271 0.0362692,0.0150232 0.0374405,0.0118049 0.0383269,0.00849687 0.0281417,0.00370492 0,0.927737 -1,0 0,-1 0.801288,0 z "/>
<path fill="rgb(241,240,234)" stroke="rgb(241,240,234)" d="M 1.18377,0.883537 l -0.0180949,-0.00044134 -0.0353072,-0.00264804 -0.0335419,-0.00529608 -0.0317765,-0.00794412 -0.0295698,-0.0101508 -0.0278044,-0.0132402 -0.0255977,-0.0158882 -0.00926814,-0.0066201 -0.0255977,-0.0211843 -0.0225083,-0.0225083 -0.019419,-0.0242737 -0.0167709,-0.0255977 -0.0132402,-0.0273631 -0.0105922,-0.0291285 -0.00750278,-0.0308938 -0.0044134,-0.0326592 -0.00176536,-0.0339832 0.00044134,-0.00970948 0.00308938,-0.0357486 0.00750278,-0.0322178 0.0119162,-0.0286871 0.0163296,-0.0251564 0.169916,0.0154469 -0.0154469,0.00044134 -0.0335419,0.00573742 -0.0269218,0.0114748 -0.019419,0.0172123 -0.0088268,0.0286871 0.00529608,0.022067 0.0238324,0.0225083 0.00926814,0.00485474 0.0300111,0.0088268 0.0357486,0.00308938 0.16462,0.0229497 -0.0242737,0.023391 -0.00970948,0.00750278 -0.0269218,0.0158882 -0.209195,0.00353072 0.00794412,0.0163296 0.0176536,0.0282458 0.020743,0.0251564 0.023391,0.0216257 0.0269218,0.0180949 0.0251564,0.0123575 0.0300111,0.00926814 0.0331005,0.00573742 0.0361899,0.00176536 0.00794412,0 0,0.0891507 z "/>
<path fill="rgb(241,240,234)" stroke="rgb(241,240,234)" d="M 1.06681,0.672135 l -0.0136815,-0.00044134 -0.0322178,-0.00264804 -0.0326592,-0.00485474 -0.0335419,-0.00838546 0.209195,-0.00353072 -0.0295698,0.0110335 -0.0322178,0.0066201 -0.0353072,0.0022067 z "/>
<path fill="rgb(241,240,234)" stroke="rgb(241,240,234)" d="M 1.22481,0.605493 l -0.16462,-0.0229497 0.0150056,-0.00044134 0.0335419,-0.00573742 0.0273631,-0.0114748 0.0198603,-0.0172123 0.00926814,-0.0278044 -0.00573742,-0.0225083 -0.023391,-0.0229497 -0.0101508,-0.00485474 -0.0295698,-0.0088268 -0.0361899,-0.00308938 -0.169916,-0.0154469 0.020743,-0.0216257 0.00176536,-0.00176536 0.0255977,-0.0185363 0.0278044,-0.0150056 0.0300111,-0.0101508 0.0322178,-0.00617876 0.0344245,-0.0022067 0.019419,0.00044134 0.0339832,0.0044134 0.0313352,0.0088268 0.0282458,0.0127989 0.0247151,0.0172123 0.0229497,0.0225083 0.0167709,0.0264804 0.0101508,0.0295698 0.00353072,0.0322178 -0.00264804,0.0282458 -0.00970948,0.0295698 -0.0167709,0.0264804 z "/>
<path fill="rgb(42,41,42)" stroke="rgb(42,41,42)" d="M 5.00489,0.797917 l -0.0247151,-0.00264804 -0.0313352,-0.0123575 -0.0291285,-0.0225083 0.0781172,-0.0657597 0.0300111,-0.00529608 0.0264804,-0.020743 0.0344245,0.104156 -0.0154469,0.00926814 -0.0322178,0.0119162 -0.0361899,0.00397206 z "/>
<path fill="rgb(42,41,42)" stroke="rgb(42,41,42)" d="M 4.91971,0.791738 l -0.107246,0 0,-0.437809 0.107246,0 0,0.25686 0.00573742,0.0361899 0.0180949,0.0251564 0.020743,0.0150056 0.0335419,0.00750278 -0.0781172,0.0657597 0,0.0313352 z "/>
<path fill="rgb(42,41,42)" stroke="rgb(42,41,42)" d="M 4.55031,0.797917 l -0.0150056,-0.00044134 -0.0335419,-0.00617876 -0.0308938,-0.0127989 -0.0282458,-0.0198603 -0.0251564,-0.0260391 -0.0180949,-0.0255977 -0.0158882,-0.0300111 -0.0114748,-0.0326592 -0.0066201,-0.0348659 -0.0022067,-0.0370726 0.0022067,-0.0370726 0.0066201,-0.0348659 0.0110335,-0.0326592 0.0154469,-0.0300111 0.156234,0.0044134 -0.022067,0.00353072 -0.0295698,0.0189776 -0.0185363,0.0251564 -0.0119162,0.0344245 -0.0044134,0.0150056 0.267452,0 0,0.0313352 -0.00088268,0.0163296 -0.0044134,0.0348659 -0.256419,0.00132402 0.00838546,0.0260391 0.0176536,0.0286871 0.0242737,0.0172123 0.0304525,0.00573742 0.146084,0.00353072 -0.0176536,0.0264804 -0.0114748,0.0132402 -0.0260391,0.023391 -0.0291285,0.0172123 -0.0317765,0.0101508 -0.0344245,0.00308938 z "/>
<path fill="rgb(42,41,42)" stroke="rgb(42,41,42)" d="M 4.70081,0.704353 l -0.146084,-0.00353072 0.0158882,-0.00132402 0.0295698,-0.0141229 0.0154469,-0.023391 0.0141229,-0.0388379 -0.155793,0 0.256419,-0.00132402 -0.00970948,0.0353072 -0.0044134,0.0127989 -0.0154469,0.0344245 z "/>
<path fill="rgb(42,41,42)" stroke="rgb(42,41,42)" d="M 4.62357,0.477945 l -0.00838546,-0.0088268 -0.0300111,-0.0203016 -0.0304525,-0.0066201 -0.156234,-0.0044134 0.0198603,-0.0282458 0.0127989,-0.0141229 0.0273631,-0.0229497 0.0291285,-0.0163296 0.0322178,-0.00970948 0.0348659,-0.00308938 0.0198603,0.00088268 0.0331005,0.00706144 0.0304525,0.0132402 0.0282458,0.0198603 0.0255977,0.0260391 0.00308938,0.0044134 -0.0714971,0.0631116 z "/>
<path fill="rgb(42,41,42)" stroke="rgb(42,41,42)" d="M 4.06748,0.802772 l -0.0317765,-0.00308938 -0.0295698,-0.0119162 -0.0273631,-0.020743 -0.0255977,-0.0291285 0.21405,0.0225083 -0.019419,0.0150056 -0.0242737,0.0154469 -0.00970948,0.00397206 -0.0383966,0.00750278 -0.00794412,0.00044134 z "/>
<path fill="rgb(42,41,42)" stroke="rgb(42,41,42)" d="M 4.27315,0.791738 l -0.105922,0 0,-0.0313352 -0.21405,-0.0225083 -0.00088268,-0.00132402 -0.0185363,-0.0300111 0.158441,-0.0119162 0.0198603,-0.00264804 0.0286871,-0.0150056 0.0264804,-0.0286871 0,-0.155352 -0.0176536,-0.020743 -0.0278044,-0.0198603 -0.0295698,-0.0066201 -0.159324,-0.00706144 0.0185363,-0.0291285 0.00529608,-0.00617876 0.210519,-0.0136815 0,-0.0463407 0,-0.00706144 -0.0066201,-0.0251564 -0.0145642,-0.0247151 -0.0229497,-0.0238324 -0.0313352,-0.023391 -0.0397206,-0.0229497 0.0419273,-0.0935641 0.0105922,0.00353072 0.0335419,0.0145642 0.0317765,0.0163296 0.0255977,0.0172123 0.00353072,0.00308938 0.0242737,0.023391 0.022067,0.0313352 0.00926814,0.0176536 0.0101508,0.0304525 0.00617876,0.0361899 0.0022067,0.0419273 0,0.433396 z "/>
<path fill="rgb(42,41,42)" stroke="rgb(42,41,42)" d="M 3.93376,0.70656 l -0.0145642,-0.0313352 -0.0101508,-0.0331005 -0.00617876,-0.0348659 -0.0022067,-0.0366312 0.00176536,-0.0326592 0.00573742,-0.0353072 0.0101508,-0.0331005 0.0145642,-0.0308938 0.159324,0.00706144 -0.00529608,0 -0.0308938,0.0101508 -0.0251564,0.0255977 -0.00926814,0.0176536 -0.0101508,0.0326592 -0.00308938,0.0388379 0.00132402,0.0255977 0.00750278,0.0348659 0.0136815,0.0286871 0.00308938,0.0044134 0.0260391,0.0229497 0.0322178,0.00750278 -0.158441,0.0119162 z "/>
<path fill="rgb(42,41,42)" stroke="rgb(42,41,42)" d="M 3.95671,0.403359 l 0.0255977,-0.0269218 0.0282458,-0.0189776 0.0304525,-0.0110335 0.0326592,-0.00308938 0.00308938,0 0.0326592,0.00617876 0.0300111,0.0154469 0.0278044,0.0247151 -0.210519,0.0136815 z "/>
<path fill="rgb(42,41,42)" stroke="rgb(42,41,42)" d="M 3.63762,0.80233 l -0.0189776,-0.00088268 -0.0331005,-0.0066201 -0.0304525,-0.0136815 -0.0282458,-0.0198603 -0.0255977,-0.0260391 -0.019419,-0.0278044 -0.0154469,-0.0300111 -0.0110335,-0.0326592 -0.0066201,-0.0348659 -0.0022067,-0.0375139 0.00176536,-0.0353072 0.0066201,-0.0348659 0.0110335,-0.0326592 0.0154469,-0.0308938 0.156234,0.0105922 -0.0044134,0 -0.0313352,0.00970948 -0.0251564,0.0251564 -0.00970948,0.0172123 -0.00970948,0.0326592 -0.00353072,0.0383966 0.00132402,0.023391 0.00750278,0.0348659 0.0141229,0.0291285 0.00308938,0.0044134 0.0260391,0.0229497 0.0317765,0.00750278 0.155793,0.0127989 -0.0203016,0.0278044 -0.0127989,0.0141229 -0.0273631,0.0229497 -0.0295698,0.0167709 -0.0317765,0.0101508 -0.0339832,0.00308938 z "/>
<path fill="rgb(42,41,42)" stroke="rgb(42,41,42)" d="M 3.79341,0.707442 l -0.155793,-0.0127989 0.00308938,0 0.0313352,-0.0088268 0.0251564,-0.0251564 0.0088268,-0.0167709 0.00970948,-0.0326592 0.00308938,-0.0388379 -0.00088268,-0.0238324 -0.00706144,-0.0348659 -0.0136815,-0.0295698 -0.0022067,-0.00353072 -0.0251564,-0.0238324 -0.0322178,-0.00750278 -0.156234,-0.0105922 0.0198603,-0.0282458 0.0136815,-0.0150056 0.0269218,-0.0229497 0.0295698,-0.0163296 0.0317765,-0.00970948 0.0344245,-0.00308938 0.0176536,0.00088268 0.0326592,0.0066201 0.0304525,0.0132402 0.0286871,0.0198603 0.0260391,0.0264804 0.0198603,0.0273631 0.0158882,0.0300111 0.0114748,0.0326592 0.0066201,0.0348659 0.0022067,0.0370726 -0.0022067,0.0370726 -0.0066201,0.0353072 -0.0114748,0.0322178 -0.0154469,0.0304525 z "/>
<path fill="rgb(42,41,42)" stroke="rgb(42,41,42)" d="M 3.10183,0.963419 l -0.107246,-0.0392793 0,-0.570212 0.107246,0 0,0.25686 0.00044134,0.0044134 0.00573742,0.0348659 0.0150056,0.0247151 0.0247151,0.0150056 0.0339832,0.00485474 0.173447,0.0088268 -0.0150056,0.0304525 -0.238324,0.0264804 0,0.203016 z "/>
<path fill="rgb(42,41,42)" stroke="rgb(42,41,42)" d="M 3.20334,0.80233 l -0.0119162,-0.00044134 -0.0366312,-0.00573742 -0.0295698,-0.0141229 -0.023391,-0.0216257 0.238324,-0.0264804 -0.022067,0.0264804 -0.0150056,0.0123575 -0.0291285,0.0163296 -0.0335419,0.0101508 -0.0370726,0.00308938 z "/>
<path fill="rgb(42,41,42)" stroke="rgb(42,41,42)" d="M 3.35516,0.70347 l -0.173447,-0.0088268 0.0286871,-0.00485474 0.0286871,-0.0185363 0.0163296,-0.0229497 0.00750278,-0.0339832 0,-0.260391 0.0997429,0 0,0.300553 -0.00088268,0.0145642 -0.0066201,0.0344245 z "/>
<path fill="rgb(42,41,42)" stroke="rgb(42,41,42)" d="M 2.49631,0.799682 l -0.0123575,-0.00044134 -0.0348659,-0.00617876 -0.0304525,-0.0145642 -0.0255977,-0.0225083 0.241854,-0.0216257 -0.023391,0.0260391 -0.0141229,0.0114748 -0.0295698,0.0154469 -0.0335419,0.00926814 -0.0379553,0.00308938 z "/>
<path fill="rgb(42,41,42)" stroke="rgb(42,41,42)" d="M 2.39304,0.791738 l -0.107246,0 0,-0.437809 0.107246,0 0,0.263039 0.0044134,0.0264804 0.0185363,0.0304525 0.0211843,0.0167709 0.0339832,0.00750278 0.178301,0.00573742 -0.0145642,0.0304525 -0.241854,0.0216257 0,0.0357486 z "/>
<path fill="rgb(42,41,42)" stroke="rgb(42,41,42)" d="M 2.64946,0.703911 l -0.178301,-0.00573742 0.0291285,-0.0044134 0.0282458,-0.0172123 0.0163296,-0.0242737 0.0066201,-0.0353072 0,-0.263039 0.104598,0 0,0.304966 0,0.0105922 -0.0066201,0.0344245 z "/>
<path fill="rgb(42,41,42)" stroke="rgb(42,41,42)" d="M 2.02364,0.797917 l -0.0150056,-0.00044134 -0.0335419,-0.00617876 -0.0308938,-0.0127989 -0.0282458,-0.0198603 -0.0251564,-0.0260391 -0.0180949,-0.0255977 -0.0158882,-0.0300111 -0.0114748,-0.0326592 -0.0066201,-0.0348659 -0.0022067,-0.0370726 0.0022067,-0.0370726 0.0066201,-0.0348659 0.0110335,-0.0326592 0.0154469,-0.0300111 0.156234,0.0044134 -0.022067,0.00353072 -0.0295698,0.0189776 -0.0185363,0.0251564 -0.0123575,0.0344245 -0.00397206,0.0150056 0.267452,0 0,0.0313352 -0.00088268,0.0163296 -0.0044134,0.0348659 -0.256419,0.00132402 0.00838546,0.0260391 0.0176536,0.0286871 0.0238324,0.0172123 0.0308938,0.00573742 0.146084,0.00353072 -0.0176536,0.0264804 -0.0114748,0.0132402 -0.0260391,0.023391 -0.0291285,0.0172123 -0.0317765,0.0101508 -0.0344245,0.00308938 z "/>
<path fill="rgb(42,41,42)" stroke="rgb(42,41,42)" d="M 2.17413,0.704353 l -0.146084,-0.00353072 0.0158882,-0.00132402 0.0295698,-0.0141229 0.0150056,-0.023391 0.0145642,-0.0388379 -0.155793,0 0.256419,-0.00132402 -0.00970948,0.0353072 -0.0044134,0.0127989 -0.0154469,0.0344245 z "/>
<path fill="rgb(42,41,42)" stroke="rgb(42,41,42)" d="M 2.0969,0.477945 l -0.0088268,-0.0088268 -0.0295698,-0.0203016 -0.0304525,-0.0066201 -0.156234,-0.0044134 0.0198603,-0.0282458 0.0127989,-0.0141229 0.0269218,-0.0229497 0.0295698,-0.0163296 0.0322178,-0.00970948 0.0348659,-0.00308938 0.0198603,0.00088268 0.0331005,0.00706144 0.0304525,0.0132402 0.0282458,0.0198603 0.0251564,0.0260391 0.00353072,0.0044134 -0.0714971,0.0631116 z "/>
<path fill="rgb(42,41,42)" stroke="rgb(42,41,42)" d="M 4.60503,3.0461 l -0.0123575,0 -0.0348659,-0.0066201 -0.0304525,-0.0145642 -0.0255977,-0.0225083 0.241413,-0.0216257 -0.0229497,0.0260391 -0.0145642,0.0114748 -0.0291285,0.0154469 -0.0339832,0.00926814 -0.0375139,0.00308938 z "/>
<path fill="rgb(42,41,42)" stroke="rgb(42,41,42)" d="M 4.50176,3.0386 l -0.107246,0 0,-0.438251 0.107246,0 0,0.263039 0.0044134,0.0264804 0.0185363,0.0304525 0.0211843,0.0167709 0.0335419,0.00794412 0.178743,0.00573742 -0.0150056,0.0300111 -0.241413,0.0216257 0,0.0361899 z "/>
<path fill="rgb(42,41,42)" stroke="rgb(42,41,42)" d="M 4.75818,2.95077 l -0.178743,-0.00573742 0.0295698,-0.0044134 0.0282458,-0.0176536 0.0163296,-0.0242737 0.0066201,-0.0353072 0,-0.263039 0.104598,0 0,0.304966 -0.00044134,0.0110335 -0.00617876,0.0344245 z "/>
<path fill="rgb(42,41,42)" stroke="rgb(42,41,42)" d="M 4.12,3.04875 l -0.0242737,-0.00088268 -0.0331005,-0.00485474 -0.0339832,-0.0088268 -0.0339832,-0.0127989 -0.0348659,-0.0172123 0.0445754,-0.0926814 0.0088268,0.00529608 0.0322178,0.0154469 0.0335419,0.00970948 0.0348659,0.00308938 0.161531,0.0225083 -0.0154469,0.0247151 -0.019419,0.0203016 -0.023391,0.0158882 -0.0282458,0.0114748 -0.0322178,0.0066201 -0.0366312,0.0022067 z "/>
<path fill="rgb(42,41,42)" stroke="rgb(42,41,42)" d="M 4.27535,2.96755 l -0.161531,-0.0225083 0.0238324,-0.00264804 0.0282458,-0.0123575 0.0185363,-0.0229497 0.0088268,-0.0339832 -0.187128,-0.00044134 -0.0278044,-0.0154469 -0.0180949,-0.0154469 -0.0185363,-0.0269218 0.158882,-0.0150056 0.022067,-0.00132402 0.0344245,-0.0066201 0.0361899,-0.0123575 0,-0.067525 -0.0300111,-0.0114748 -0.0348659,-0.00970948 -0.0304525,-0.00308938 -0.160206,-0.00794412 0.0154469,-0.0286871 0.0225083,-0.0238324 0.0088268,-0.0066201 0.208754,-0.00132402 0,-0.0189776 0.101508,0 0,0.264804 0,0.00088268 -0.0022067,0.0383966 -0.0066201,0.0339832 -0.0105922,0.0291285 z "/>
<path fill="rgb(42,41,42)" stroke="rgb(42,41,42)" d="M 4.09529,2.88899 l -0.0198603,-0.00088268 -0.0366312,-0.00485474 -0.0326592,-0.0105922 0.187128,0.00044134 -0.0269218,0.00750278 -0.0348659,0.00617876 -0.0361899,0.0022067 z "/>
<path fill="rgb(42,41,42)" stroke="rgb(42,41,42)" d="M 3.9417,2.81484 l -0.0110335,-0.0322178 -0.00397206,-0.0370726 0.0022067,-0.0313352 0.0088268,-0.0344245 0.160206,0.00794412 -0.0255977,0.00264804 -0.0291285,0.0150056 -0.0088268,0.0088268 -0.0114748,0.0313352 0.00132402,0.0105922 0.019419,0.0278044 0.0198603,0.0101508 0.0370726,0.00573742 -0.158882,0.0150056 z "/>
<path fill="rgb(42,41,42)" stroke="rgb(42,41,42)" d="M 3.98451,2.62065 l 0.0291285,-0.0154469 0.0335419,-0.00970948 0.0379553,-0.00308938 0.0066201,0 0.0357486,0.00353072 0.0339832,0.00926814 0.0317765,0.0141229 -0.208754,0.00132402 z "/>
<path fill="rgb(42,41,42)" stroke="rgb(42,41,42)" d="M 3.6769,3.04875 l -0.0242737,-0.00088268 -0.0331005,-0.00485474 -0.0339832,-0.0088268 -0.0339832,-0.0127989 -0.0348659,-0.0172123 0.0445754,-0.0926814 0.0088268,0.00529608 0.0322178,0.0154469 0.0335419,0.00970948 0.0348659,0.00308938 0.161531,0.0225083 -0.0154469,0.0247151 -0.019419,0.0203016 -0.023391,0.0158882 -0.0282458,0.0114748 -0.0322178,0.0066201 -0.0366312,0.0022067 z "/>
<path fill="rgb(42,41,42)" stroke="rgb(42,41,42)" d="M 3.83225,2.96755 l -0.161531,-0.0225083 0.0238324,-0.00264804 0.0282458,-0.0123575 0.0185363,-0.0229497 0.0088268,-0.0339832 -0.187128,-0.00044134 -0.0278044,-0.0154469 -0.0180949,-0.0154469 -0.0185363,-0.0269218 0.158882,-0.0150056 0.022067,-0.00132402 0.0344245,-0.0066201 0.0361899,-0.0123575 0,-0.067525 -0.0300111,-0.0114748 -0.0348659,-0.00970948 -0.0304525,-0.00308938 -0.160206,-0.00794412 0.0154469,-0.0286871 0.0225083,-0.0238324 0.0088268,-0.0066201 0.208754,-0.00132402 0,-0.0189776 0.101508,0 0,0.264804 0,0.00088268 -0.0022067,0.0383966 -0.0066201,0.0339832 -0.0105922,0.0291285 z "/>
<path fill="rgb(42,41,42)" stroke="rgb(42,41,42)" d="M 3.65218,2.88899 l -0.0198603,-0.00088268 -0.0366312,-0.00485474 -0.0326592,-0.0105922 0.187128,0.00044134 -0.0269218,0.00750278 -0.0348659,0.00617876 -0.0361899,0.0022067 z "/>
<path fill="rgb(42,41,42)" stroke="rgb(42,41,42)" d="M 3.49859,2.81484 l -0.0110335,-0.0322178 -0.00397206,-0.0370726 0.0022067,-0.0313352 0.0088268,-0.0344245 0.160206,0.00794412 -0.0255977,0.00264804 -0.0291285,0.0150056 -0.0088268,0.0088268 -0.0114748,0.0313352 0.00132402,0.0105922 0.019419,0.0278044 0.0198603,0.0101508 0.0370726,0.00573742 -0.158882,0.0150056 z "/>
<path fill="rgb(42,41,42)" stroke="rgb(42,41,42)" d="M 3.5414,2.62065 l 0.0291285,-0.0154469 0.0335419,-0.00970948 0.0379553,-0.00308938 0.0066201,0 0.0357486,0.00353072 0.0339832,0.00926814 0.0317765,0.0141229 -0.208754,0.00132402 z "/>
<path fill="rgb(42,41,42)" stroke="rgb(42,41,42)" d="M 3.35163,3.20984 l -0.109011,-0.0392793 0,-0.134609 -0.0719385,0 0,-0.100626 0.0719385,0 0,-0.210961 0.00308938,-0.0379553 0.154028,0.0110335 -0.0242737,0.00573742 -0.0176536,0.0211843 -0.00617876,0.0375139 0,0.173447 0.0900334,0 0,0.100626 -0.0900334,0 0,0.173888 z "/>
<path fill="rgb(42,41,42)" stroke="rgb(42,41,42)" d="M 3.44872,2.71995 l -0.0180949,-0.0132402 -0.0308938,-0.00926814 -0.154028,-0.0110335 0.00926814,-0.0331005 0.0163296,-0.0278044 0.0150056,-0.0150056 0.0291285,-0.0154469 0.0361899,-0.00529608 0.0114748,0.00044134 0.0331005,0.00706144 0.0348659,0.0154469 0.0176536,0.107246 z "/>
<path fill="rgb(42,41,42)" stroke="rgb(42,41,42)" d="M 2.96104,3.0461 l -0.0273631,-0.00088268 -0.0366312,-0.00573742 -0.0322178,-0.0101508 -0.0269218,-0.0154469 -0.00132402,-0.00044134 -0.0251564,-0.0247151 -0.0150056,-0.0295698 0.167268,-0.0158882 0.0278044,-0.00176536 0.0339832,-0.0066201 0.0335419,-0.0114748 0.0331005,-0.0163296 0.0392793,0.0953295 -0.0335419,0.0158882 -0.0335419,0.0123575 -0.0339832,0.0088268 -0.0344245,0.00485474 -0.0348659,0.00176536 z "/>
<path fill="rgb(42,41,42)" stroke="rgb(42,41,42)" d="M 2.79642,2.95916 l -0.00485474,-0.0344245 0,-0.0088268 0.00706144,-0.0335419 0.0158882,-0.0295698 0.0251564,-0.0251564 0.0185363,-0.0123575 0.0286871,-0.0136815 0.0361899,-0.0136815 0.0432513,-0.0127989 0.0216257,-0.00617876 0.0255977,-0.00794412 0.0136815,-0.00794412 0.0141229,-0.0269218 -0.00617876,-0.0150056 -0.0255977,-0.0114748 -0.0458994,-0.00397206 0.17786,-0.00970948 0.00485474,0.0357486 -0.00088268,0.0158882 -0.00617876,0.0278044 -0.0123575,0.0247151 -0.0185363,0.022067 -0.0242737,0.0189776 -0.0308938,0.0163296 -0.0366312,0.0132402 -0.0423687,0.0105922 -0.0348659,0.00838546 -0.0264804,0.00926814 -0.0150056,0.0242737 0.0022067,0.00970948 0.020743,0.0150056 0.04281,0.00529608 -0.167268,0.0158882 z "/>
<path fill="rgb(42,41,42)" stroke="rgb(42,41,42)" d="M 2.82026,2.72613 l -0.0392793,-0.0944468 0.0123575,-0.00573742 0.0313352,-0.0123575 0.0331005,-0.00926814 0.0348659,-0.0066201 0.0366312,-0.00397206 0.0388379,-0.00132402 0.0375139,0.00176536 0.0366312,0.0066201 0.0313352,0.0105922 0.0264804,0.0150056 0.00529608,0.0044134 0.0229497,0.0247151 0.0132402,0.0304525 -0.17786,0.00970948 -0.0110335,0.00044134 -0.0335419,0.0044134 -0.0392793,0.00926814 -0.0269218,0.00706144 -0.0326592,0.00926814 z "/>
<path fill="rgb(42,41,42)" stroke="rgb(42,41,42)" d="M 2.54927,3.04434 l -0.0150056,-0.00044134 -0.0335419,-0.00617876 -0.0308938,-0.0127989 -0.0278044,-0.0198603 -0.0255977,-0.0260391 -0.0180949,-0.0255977 -0.0158882,-0.0300111 -0.0110335,-0.0326592 -0.00706144,-0.0348659 -0.0022067,-0.0370726 0.0022067,-0.0366312 0.0066201,-0.0353072 0.0110335,-0.0326592 0.0154469,-0.0300111 0.156234,0.0044134 -0.022067,0.00353072 -0.0295698,0.0189776 -0.0180949,0.0251564 -0.0123575,0.0344245 -0.0044134,0.0150056 0.267452,0 0,0.0313352 -0.00044134,0.0163296 -0.00485474,0.0353072 -0.255977,0.00088268 0.00838546,0.0260391 0.0172123,0.0286871 0.0242737,0.0172123 0.0304525,0.00617876 0.146084,0.00308938 -0.0176536,0.0264804 -0.0110335,0.0132402 -0.0264804,0.0238324 -0.0286871,0.0167709 -0.0317765,0.0101508 -0.0348659,0.00308938 z "/>
<path fill="rgb(42,41,42)" stroke="rgb(42,41,42)" d="M 2.69977,2.95077 l -0.146084,-0.00308938 0.0163296,-0.00176536 0.0291285,-0.0141229 0.0154469,-0.023391 0.0141229,-0.0388379 -0.155352,0 0.255977,-0.00088268 -0.00970948,0.0348659 -0.0044134,0.0127989 -0.0154469,0.0344245 z "/>
<path fill="rgb(42,41,42)" stroke="rgb(42,41,42)" d="M 2.62298,2.72437 l -0.0088268,-0.00838546 -0.0295698,-0.020743 -0.0308938,-0.0066201 -0.156234,-0.0044134 0.0198603,-0.0278044 0.0132402,-0.0145642 0.0269218,-0.0229497 0.0295698,-0.0163296 0.0322178,-0.00970948 0.0344245,-0.00308938 0.0198603,0.00088268 0.0331005,0.00706144 0.0308938,0.0132402 0.0278044,0.0198603 0.0255977,0.0264804 0.00353072,0.0044134 -0.0714971,0.0626703 z "/>
<path fill="rgb(42,41,42)" stroke="rgb(42,41,42)" d="M 2.06645,3.04963 l -0.0317765,-0.00353072 -0.0295698,-0.0119162 -0.0273631,-0.020743 -0.0251564,-0.0291285 0.21405,0.0225083 -0.019419,0.0150056 -0.0242737,0.0158882 -0.00970948,0.00353072 -0.0383966,0.00750278 -0.00838546,0.00088268 z "/>
<path fill="rgb(42,41,42)" stroke="rgb(42,41,42)" d="M 2.27211,3.0386 l -0.10548,0 0,-0.0317765 -0.21405,-0.0225083 -0.00088268,-0.00132402 -0.0185363,-0.0295698 0.158,-0.0119162 0.0198603,-0.00308938 0.0286871,-0.0150056 0.0269218,-0.0282458 0,-0.155793 -0.0176536,-0.020743 -0.0282458,-0.0198603 -0.0295698,-0.0066201 -0.159324,-0.00706144 0.0189776,-0.0286871 0.00485474,-0.0066201 0.210961,-0.0136815 0,-0.0463407 -0.00044134,-0.0066201 -0.00617876,-0.0255977 -0.0150056,-0.0247151 -0.0229497,-0.0238324 -0.0313352,-0.023391 -0.0397206,-0.0225083 0.0419273,-0.0935641 0.0105922,0.00353072 0.0335419,0.0141229 0.0317765,0.0163296 0.0255977,0.0176536 0.00397206,0.00264804 0.0238324,0.0238324 0.022067,0.0308938 0.00970948,0.0176536 0.0101508,0.0304525 0.00617876,0.0361899 0.00176536,0.0419273 0,0.433837 z "/>
<path fill="rgb(42,41,42)" stroke="rgb(42,41,42)" d="M 1.93316,2.95342 l -0.0145642,-0.0317765 -0.0105922,-0.0331005 -0.00617876,-0.0348659 -0.00176536,-0.0366312 0.00132402,-0.0326592 0.00617876,-0.0353072 0.0101508,-0.0331005 0.0141229,-0.0308938 0.159324,0.00706144 -0.00529608,0 -0.0308938,0.0101508 -0.0247151,0.0255977 -0.00970948,0.0176536 -0.00970948,0.0326592 -0.00353072,0.0388379 0.00132402,0.0255977 0.00750278,0.0348659 0.0141229,0.0286871 0.00308938,0.0044134 0.0260391,0.0229497 0.0317765,0.00794412 -0.158,0.0119162 z "/>
<path fill="rgb(42,41,42)" stroke="rgb(42,41,42)" d="M 1.95567,2.64978 l 0.0255977,-0.0269218 0.0282458,-0.0189776 0.0304525,-0.0110335 0.0331005,-0.00308938 0.00264804,0 0.0326592,0.00617876 0.0304525,0.0154469 0.0278044,0.0247151 -0.210961,0.0136815 z "/>
<path fill="rgb(42,41,42)" stroke="rgb(42,41,42)" d="M 1.656,3.04434 l -0.0150056,-0.00044134 -0.0335419,-0.00617876 -0.0304525,-0.0127989 -0.0282458,-0.0198603 -0.0255977,-0.0260391 -0.0180949,-0.0255977 -0.0154469,-0.0300111 -0.0114748,-0.0326592 -0.0066201,-0.0348659 -0.0022067,-0.0370726 0.00176536,-0.0366312 0.0066201,-0.0353072 0.0110335,-0.0326592 0.0154469,-0.0300111 0.156234,0.0044134 -0.0216257,0.00353072 -0.0300111,0.0189776 -0.0180949,0.0251564 -0.0123575,0.0344245 -0.0044134,0.0150056 0.267452,0 0,0.0313352 -0.00044134,0.0163296 -0.00485474,0.0353072 -0.255977,0.00088268 0.00838546,0.0260391 0.0176536,0.0286871 0.0238324,0.0172123 0.0304525,0.00617876 0.146084,0.00308938 -0.0176536,0.0264804 -0.0110335,0.0132402 -0.0260391,0.0238324 -0.0291285,0.0167709 -0.0317765,0.0101508 -0.0348659,0.00308938 z "/>
<path fill="rgb(42,41,42)" stroke="rgb(42,41,42)" d="M 1.8065,2.95077 l -0.146084,-0.00308938 0.0163296,-0.00176536 0.0291285,-0.0141229 0.0154469,-0.023391 0.0145642,-0.0388379 -0.155793,0 0.255977,-0.00088268 -0.00970948,0.0348659 -0.0044134,0.0127989 -0.0154469,0.0344245 z "/>
<path fill="rgb(42,41,42)" stroke="rgb(42,41,42)" d="M 1.7297,2.72437 l -0.0088268,-0.00838546 -0.0295698,-0.020743 -0.0308938,-0.0066201 -0.156234,-0.0044134 0.0198603,-0.0278044 0.0132402,-0.0145642 0.0269218,-0.0229497 0.0295698,-0.0163296 0.0322178,-0.00970948 0.0344245,-0.00308938 0.0198603,0.00088268 0.0335419,0.00706144 0.0304525,0.0132402 0.0278044,0.0198603 0.0255977,0.0264804 0.00353072,0.0044134 -0.0714971,0.0626703 z "/>
<path fill="rgb(42,41,42)" stroke="rgb(42,41,42)" d="M 1.20583,3.04875 l -0.0189776,-0.00088268 -0.0331005,-0.0066201 -0.0304525,-0.0132402 -0.0282458,-0.0198603 -0.0251564,-0.0264804 -0.0198603,-0.0273631 -0.0154469,-0.0304525 -0.0110335,-0.0326592 -0.0066201,-0.0348659 -0.0022067,-0.0375139 0.00176536,-0.0353072 0.0066201,-0.0348659 0.0110335,-0.0326592 0.0154469,-0.0304525 0.156234,0.0101508 -0.0044134,0 -0.0313352,0.00970948 -0.0251564,0.0251564 -0.00970948,0.0172123 -0.00970948,0.0326592 -0.00353072,0.0383966 0.00132402,0.023391 0.00750278,0.0348659 0.0141229,0.0291285 0.00308938,0.0044134 0.0260391,0.0229497 0.0317765,0.00794412 0.155793,0.0123575 -0.0203016,0.0278044 -0.0127989,0.0141229 -0.0273631,0.023391 -0.0295698,0.0163296 -0.0317765,0.0101508 -0.0339832,0.00308938 z "/>
<path fill="rgb(42,41,42)" stroke="rgb(42,41,42)" d="M 1.36163,2.95386 l -0.155793,-0.0123575 0.00308938,0 0.0313352,-0.00926814 0.0251564,-0.0251564 0.0088268,-0.0163296 0.00970948,-0.0326592 0.00353072,-0.0392793 -0.00132402,-0.023391 -0.00706144,-0.0353072 -0.0136815,-0.0295698 -0.0022067,-0.00353072 -0.0251564,-0.023391 -0.0322178,-0.00794412 -0.156234,-0.0101508 0.0203016,-0.0282458 0.0132402,-0.0150056 0.0269218,-0.0229497 0.0295698,-0.0163296 0.0317765,-0.0101508 0.0344245,-0.00308938 0.0176536,0.00088268 0.0326592,0.0066201 0.0304525,0.0132402 0.0286871,0.0198603 0.0260391,0.0269218 0.0198603,0.0269218 0.0158882,0.0300111 0.0114748,0.0326592 0.0066201,0.0348659 0.0022067,0.0370726 -0.0022067,0.0375139 -0.0066201,0.0348659 -0.0110335,0.0326592 -0.0158882,0.0300111 z "/>
<path fill="rgb(42,41,42)" stroke="rgb(42,41,42)" d="M 0.876593,3.20984 l -0.109452,-0.0392793 0,-0.134609 -0.0714971,0 0,-0.100626 0.0714971,0 0,-0.210961 0.00308938,-0.0379553 0.154469,0.0110335 -0.0242737,0.00573742 -0.0180949,0.0211843 -0.00573742,0.0375139 0,0.173447 0.0900334,0 0,0.100626 -0.0900334,0 0,0.173888 z "/>
<path fill="rgb(42,41,42)" stroke="rgb(42,41,42)" d="M 0.973688,2.71995 l -0.0185363,-0.0132402 -0.0304525,-0.00926814 -0.154469,-0.0110335 0.00970948,-0.0331005 0.0163296,-0.0278044 0.0150056,-0.0150056 0.0291285,-0.0154469 0.0361899,-0.00529608 0.0114748,0.00044134 0.0331005,0.00706144 0.0348659,0.0154469 0.0176536,0.107246 z "/>
<path fill="rgb(42,41,42)" stroke="rgb(42,41,42)" d="M 2.11214,1.83986 l 0.0412489,-0.204646 0.0193032,0.00294435 0.0194885,0.00121801 0.0195196,-0.00051796 0.0193965,-0.00224984 0.0191199,-0.00396392 0.0186922,-0.00564667 0.0181167,-0.00728477 0.017398,-0.00886528 0.0165417,-0.0103757 0.0155547,-0.0118041 0.0144446,-0.0131391 0.0132204,-0.0143703 0.0118916,-0.0154879 0.0104688,-0.016483 0.00896327,-0.0173477 0.00738684,-0.0180754 0.00575201,-0.0186601 0.681868,0 0.00552649,0.0183422 0.00711575,0.0177861 0.00865004,0.0170925 0.0101175,0.016267 0.0115068,0.0153157 0.0128072,0.0142462 0.0140087,0.0130666 0.0151019,0.011786 0.0160785,0.0104144 0.0169309,0.00896232 0.0176525,0.00744101 0.0182377,0.00586223 0.018682,0.00423815 0.018982,0.00258133 0.0191353,0.000904577 0.385906,0 0.0192183,-0.000845443 0.0190699,-0.0025298 0.018774,-0.00419461 0.0183332,-0.00582701 0.0177507,-0.00741439 0.017031,-0.00894448 0.0161798,-0.0104055 0.0152035,-0.0117861 0.0141098,-0.0130756 0.0129071,-0.0142641 0.0116047,-0.0153424 0.0102126,-0.0163022 0.00874159,-0.017136 0.00720305,-0.0178375 0.00560887,-0.0184011 0.230026,0 0,0.814959 -1.72685,0 0,-0.604642 -0.0476485,0 0,0.126506 -0.0328666,0.302325 -0.000329534,0.0021716 -0.000511898,0.00213598 -0.000690598,0.00208507 -0.000864356,0.00201924 -0.00103193,0.00193896 -0.00119212,0.0018448 -0.00134377,0.00173744 -0.00148581,0.00161765 -0.00161722,0.00148628 -0.00173705,0.00134428 -0.00184446,0.00119265 -0.00193866,0.00103249 -0.00201899,0.000864943 -0.00208487,0.000691204 -0.00213583,0.000512518 -0.0021715,0.000330165 -0.331902,0 -0.00390059,-0.000167015 -0.00387204,-0.000499822 -0.00381514,-0.00082897 -0.00373032,-0.00115205 -0.00361819,-0.0014667 -0.00347957,-0.00177061 -0.00331549,-0.00206156 -0.00312713,-0.00233742 -0.00291589,-0.00259617 -0.0026833,-0.00283591 -0.00243107,-0.0030549 -0.00216104,-0.00325152 -0.00187519,-0.00342434 -0.00157562,-0.0035721 -0.00126451,-0.00369371 -0.0603835,-0.180227 0.0962868,0 0.0352028,0.118934 0.000612744,0.00206003 0.000792205,0.0019979 0.000965481,0.00192016 0.00113122,0.00182744 0.00128812,0.00172044 0.00143497,0.00160002 0.00157061,0.00146709 0.00169399,0.00132272 0.00180414,0.00116801 0.00190021,0.00100419 0.00198144,0.000832522 0.00204719,0.000654357 0.00209697,0.000471082 0.00213037,0.000284128 0.00214713,9.49566e-05 0.198811,0 0.00185255,5.65907e-05 0.00185051,-0.000103775 0.00183461,-0.000263364 0.00180497,-0.000420981 0.00176182,-0.000575446 0.00170548,-0.000725602 0.00163636,-0.000870325 0.001555,-0.00100853 0.00146199,-0.00113919 0.00135803,-0.00126131 0.0012439,-0.00137399 0.00112047,-0.00147638 0.000988637,-0.00156772 0.000849405,-0.00164732 0.000703813,-0.00171458 0.000552952,-0.00176901 0.00039795,-0.00181019 0.000239968,-0.00183781 8.01895e-05,-0.00185168 0,-0.17745 -8.69663e-05,-0.00200486 -0.000261402,-0.00198964 -0.000433848,-0.00195928 -0.00060299,-0.001914 -0.000767542,-0.00185415 -0.00092625,-0.00178019 -0.00107791,-0.00169267 -0.00122136,-0.00159226 -0.00135551,-0.00147973 -0.00147934,-0.00135594 -0.00159191,-0.00122182 -0.00169235,-0.0010784 -0.00177992,-0.000926768 -0.00185393,-0.000768081 -0.00191383,-0.000603547 -0.00195916,-0.000434417 -0.00198957,-0.00026198 -0.00200483,-8.7549e-05 -0.104269,0 z "/>
<path fill="rgb(42,41,42)" stroke="rgb(42,41,42)" d="M 2.11214,1.83986 l -0.17834,0 0.0249982,0.0844572 -0.0962868,0 -0.0470137,-0.140322 0.0197226,-0.266169 -0.0345046,-0.0213673 0,-0.0755745 0.175806,0 0.00089651,0.0187772 0.00249913,0.0186317 0.00408344,0.0183497 0.00563783,0.0179332 0.0071509,0.0173854 0.00861158,0.0167101 0.0100091,0.0159124 0.0113334,0.014998 0.0125745,0.0139738 0.0137236,0.0128472 0.014772,0.0116264 0.0157123,0.0103204 0.0165373,0.00893885 0.0172412,0.00749175 0.0178188,0.00598975 0.0182658,0.00444387 -0.0412489,0.204646 z "/>
<path fill="rgb(42,41,42)" stroke="rgb(42,41,42)" d="M 3.47429,1.42088 l -0.000650243,0.014893 -0.00194578,0.0147797 -0.00322651,0.0145538 -0.00448268,0.0142172 -0.00570474,0.0137725 -0.00688338,0.0132228 -0.00800963,0.0125726 -0.00907493,0.0118267 -0.0100712,0.0109907 -0.0109907,0.0100712 -0.0118267,0.00907493 -0.0125726,0.00800963 -0.0132228,0.00688338 -0.0137725,0.00570474 -0.0142172,0.00448268 -0.0145538,0.00322651 -0.0147797,0.00194578 -0.014893,0.000650243 -0.014893,-0.000650243 -0.0147797,-0.00194578 -0.0145538,-0.00322651 -0.0142172,-0.00448268 -0.0137725,-0.00570474 -0.0132228,-0.00688338 -0.0125726,-0.00800963 -0.0118267,-0.00907493 -0.0109907,-0.0100712 -0.0100712,-0.0109907 -0.00907493,-0.0118267 -0.00800963,-0.0125726 -0.00688338,-0.0132228 -0.00570474,-0.0137725 -0.00448268,-0.0142172 -0.00322651,-0.0145538 -0.00194578,-0.0147797 -0.000650243,-0.014893 0.000650243,-0.014893 0.00194578,-0.0147797 0.00322651,-0.0145538 0.00448268,-0.0142172 0.00570474,-0.0137725 0.00688338,-0.0132228 0.00800963,-0.0125726 0.00907493,-0.0118267 0.0100712,-0.0109907 0.0109907,-0.0100712 0.0118267,-0.00907493 0.0125726,-0.00800963 0.0132228,-0.00688338 0.0137725,-0.00570474 0.0142172,-0.00448268 0.0145538,-0.00322651 0.0147797,-0.00194578 0.014893,-0.000650243 0.014893,0.000650243 0.0147797,0.00194578 0.0145538,0.00322651 0.0142172,0.00448268 0.0137725,0.00570474 0.0132228,0.00688338 0.0125726,0.00800963 0.0118267,0.00907493 0.0109907,0.0100712 0.0100712,0.0109907 0.00907493,0.0118267 0.00800963,0.0125726 0.00688338,0.0132228 0.00570474,0.0137725 0.00448268,0.0142172 0.00322651,0.0145538 0.00194578,0.0147797 0.000650243,0.014893 z "/>
<path fill="rgb(42,41,42)" stroke="rgb(42,41,42)" d="M 3.51586,1.42088 l 0.000650243,-0.014893 0.00194578,-0.0147797 0.00322651,-0.0145538 0.00448268,-0.0142172 0.00570474,-0.0137725 0.00688338,-0.0132228 0.00800963,-0.0125726 0.00907493,-0.0118267 0.0100712,-0.0109907 0.0109907,-0.0100712 0.0118267,-0.00907493 0.0125726,-0.00800963 0.0132228,-0.00688338 0.0137725,-0.00570474 0.0142172,-0.00448268 0.0145538,-0.00322651 0.0147797,-0.00194578 0.014893,-0.000650243 0.014893,0.000650243 0.0147797,0.00194578 0.0145538,0.00322651 0.0142172,0.00448268 0.0137725,0.00570474 0.0132228,0.00688338 0.0125726,0.00800963 0.0118267,0.00907493 0.0109907,0.0100712 0.0100712,0.0109907 0.00907493,0.0118267 0.00800963,0.0125726 0.00688338,0.0132228 0.00570474,0.0137725 0.00448268,0.0142172 0.00322651,0.0145538 0.00194578,0.0147797 0.000650243,0.014893 -0.000650243,0.014893 -0.00194578,0.0147797 -0.00322651,0.0145538 -0.00448268,0.0142172 -0.00570474,0.0137725 -0.00688338,0.0132228 -0.00800963,0.0125726 -0.00907493,0.0118267 -0.0100712,0.0109907 -0.0109907,0.0100712 -0.0118267,0.00907493 -0.0125726,0.00800963 -0.0132228,0.00688338 -0.0137725,0.00570474 -0.0142172,0.00448268 -0.0145538,0.00322651 -0.0147797,0.00194578 -0.014893,0.000650243 -0.014893,-0.000650243 -0.0147797,-0.00194578 -0.0145538,-0.00322651 -0.0142172,-0.00448268 -0.0137725,-0.00570474 -0.0132228,-0.00688338 -0.0125726,-0.00800963 -0.0118267,-0.00907493 -0.0109907,-0.0100712 -0.0100712,-0.0109907 -0.00907493,-0.0118267 -0.00800963,-0.0125726 -0.00688338,-0.0132228 -0.00570474,-0.0137725 -0.00448268,-0.0142172 -0.00322651,-0.0145538 -0.00194578,-0.0147797 -0.000650243,-0.014893 z "/>
<path fill="rgb(42,41,42)" stroke="rgb(42,41,42)" d="M 2.36747,1.42088 l -0.000650243,0.014893 -0.00194578,0.0147797 -0.00322651,0.0145538 -0.00448268,0.0142172 -0.00570474,0.0137725 -0.00688338,0.0132228 -0.00800963,0.0125726 -0.00907493,0.0118267 -0.0100712,0.0109907 -0.0109907,0.0100712 -0.0118267,0.00907493 -0.0125726,0.00800963 -0.0132228,0.00688338 -0.0137725,0.00570474 -0.0142172,0.00448268 -0.0145538,0.00322651 -0.0147797,0.00194578 -0.014893,0.000650243 -0.014893,-0.000650243 -0.0147797,-0.00194578 -0.0145538,-0.00322651 -0.0142172,-0.00448268 -0.0137725,-0.00570474 -0.0132228,-0.00688338 -0.0125726,-0.00800963 -0.0118267,-0.00907493 -0.0109907,-0.0100712 -0.0100712,-0.0109907 -0.00907493,-0.0118267 -0.00800963,-0.0125726 -0.00688338,-0.0132228 -0.00570474,-0.0137725 -0.00448268,-0.0142172 -0.00322651,-0.0145538 -0.00194578,-0.0147797 -0.000650243,-0.014893 0.000650243,-0.014893 0.00194578,-0.0147797 0.00322651,-0.0145538 0.00448268,-0.0142172 0.00570474,-0.0137725 0.00688338,-0.0132228 0.00800963,-0.0125726 0.00907493,-0.0118267 0.0100712,-0.0109907 0.0109907,-0.0100712 0.0118267,-0.00907493 0.0125726,-0.00800963 0.0132228,-0.00688338 0.0137725,-0.00570474 0.0142172,-0.00448268 0.0145538,-0.00322651 0.0147797,-0.00194578 0.014893,-0.000650243 0.014893,0.000650243 0.0147797,0.00194578 0.0145538,0.00322651 0.0142172,0.00448268 0.0137725,0.00570474 0.0132228,0.00688338 0.0125726,0.00800963 0.0118267,0.00907493 0.0109907,0.0100712 0.0100712,0.0109907 0.00907493,0.0118267 0.00800963,0.0125726 0.00688338,0.0132228 0.00570474,0.0137725 0.00448268,0.0142172 0.00322651,0.0145538 0.00194578,0.0147797 0.000650243,0.014893 z "/>
</g></g></svg>
