<?xml version="1.0" encoding="UTF-8" standalone="no"?>
<!DOCTYPE svg PUBLIC "-//W3C//DTD SVG 1.1//EN" "http://www.w3.org/Graphics/SVG/1.1/DTD/svg11-flat.dtd"
[

]>
<svg xmlns="http://www.w3.org/2000/svg"  viewBox="-0.125044 -0.125044 10.2536 14.7519"><g fill="none" stroke="black" stroke-width="0.0125" transform="translate(0,14.5018) scale(1, -1)">
<g id="Output" >
<path fill="rgb(241,240,234)" stroke="rgb(241,240,234)" d="M 7.05177,9.61095 l 0,0.478224 -0.2,-0.301661 -8.88178e-16,-0.478224 0.2,0.301661 z "/>
<path fill="rgb(241,240,234)" stroke="rgb(241,240,234)" d="M 7.02008,11.4761 l -0.0169125,0.0398642 -0.0202983,0.0382514 -0.0235319,0.0363516 -0.026589,0.0341791 -0.0294467,0.0317503 -0.0320835,0.0290833 -0.0344796,0.0261982 -0.0366171,0.0231166 -0.03848,0.0198616 -0.0400542,0.0164576 -0.041328,0.0129301 -0.0422918,0.00930573 -0.0429383,0.0056115 -0.0432628,0.00187519 -1.55,0 0,-0.2 1.55,0 0.0261467,-0.00114159 0.0259477,-0.00341608 0.0255513,-0.00566458 0.0249603,-0.00786996 0.0241794,-0.0100155 0.0232145,-0.0120847 0.0220729,-0.014062 0.0207634,-0.0159323 0.0192958,-0.0176813 0.0176813,-0.0192958 0.0159323,-0.0207634 0.014062,-0.0220729 0.0120847,-0.0232145 0.0100155,-0.0241794 0.00786996,-0.0249603 0.00566458,-0.0255513 0.00341608,-0.0259477 0.00114159,-0.0261467 0,-0.0787049 0.168314,0.253868 z "/>
<path fill="rgb(241,240,234)" stroke="rgb(241,240,234)" d="M 5.00177,4.90089 l 0,-0.2 1.55,-8.88178e-16 0.0435779,0.00190265 0.0432462,0.00569347 0.0425854,0.00944096 0.0416005,0.0131166 0.0402991,0.0166924 0.0386909,0.0201412 0.0367882,0.0234367 0.0346056,0.0265538 0.0321596,0.0294688 0.0294688,0.0321596 0.0265538,0.0346056 0.0234367,0.0367882 0.0201412,0.0386909 0.0166924,0.0402991 0.0131166,0.0416005 0.00944096,0.0425854 0.00569347,0.0432462 0.00190265,0.0435779 0,3.93183 -0.2,-0.301661 -8.88178e-16,-3.63017 -0.00114159,-0.0261467 -0.00341608,-0.0259477 -0.00566458,-0.0255513 -0.00786996,-0.0249603 -0.0100155,-0.0241794 -0.0120847,-0.0232145 -0.014062,-0.0220729 -0.0159323,-0.0207634 -0.0176813,-0.0192958 -0.0192958,-0.0176813 -0.0207634,-0.0159323 -0.0220729,-0.014062 -0.0232145,-0.0120847 -0.0241794,-0.0100155 -0.0249603,-0.00786996 -0.0255513,-0.00566458 -0.0259477,-0.00341608 -0.0261467,-0.00114159 -1.55,0 z "/>
<path fill="rgb(241,240,234)" stroke="rgb(241,240,234)" d="M 7.05177,11.0456 l -0.2,-0.301661 0,-0.478224 0.2,0.301661 0,0.478224 z "/>
<path fill="rgb(241,240,234)" stroke="rgb(241,240,234)" d="M 2.95177,5.3398 l 0.2,0.301661 0,5.65943 0.00114159,0.0261467 0.00341608,0.0259477 0.00566458,0.0255513 0.00786996,0.0249603 0.0100155,0.0241794 0.0120847,0.0232145 0.014062,0.0220729 0.0159323,0.0207634 0.0176813,0.0192958 0.0192958,0.0176813 0.0207634,0.0159323 0.0220729,0.014062 0.0232145,0.0120847 0.0241794,0.0100155 0.0249603,0.00786996 0.0255513,0.00566458 0.0259477,0.00341608 0.0261467,0.00114159 1.55,0 0,0.2 -1.55,0 -0.0435779,-0.00190265 -0.0432462,-0.00569347 -0.0425854,-0.00944096 -0.0416005,-0.0131166 -0.0402991,-0.0166924 -0.0386909,-0.0201412 -0.0367882,-0.0234367 -0.0346056,-0.0265538 -0.0321596,-0.0294688 -0.0294688,-0.0321596 -0.0265538,-0.0346056 -0.0234367,-0.0367882 -0.0201412,-0.0386909 -0.0166924,-0.0402991 -0.0131166,-0.0416005 -0.00944096,-0.0425854 -0.00569347,-0.0432462 -0.00190265,-0.0435779 0,-5.96109 z "/>
<path fill="rgb(241,240,234)" stroke="rgb(241,240,234)" d="M 3.79642,4.70089 l 0.132599,0.2 -0.317061,0 -0.132599,-0.2 0.317061,0 z "/>
<path fill="rgb(241,240,234)" stroke="rgb(241,240,234)" d="M 3.01517,4.9572 l 0.023969,-0.0386929 0.0273883,-0.0363529 0.0305806,-0.0337117 0.0335195,-0.0307911 0.0361807,-0.0276154 0.038542,-0.0242109 0.110971,0.167378 -0.0234338,0.0132089 -0.0221563,0.0152549 -0.0207008,0.0171783 -0.0190788,0.0189636 -0.0173034,0.0205963 -0.0153889,0.0220635 -0.0133506,0.0233533 -0.011205,0.0244553 -0.00896936,0.0253607 -0.00666157,0.0260622 -0.00430022,0.0265542 -0.138602,-0.209055 z "/>
<path fill="rgb(241,240,234)" stroke="rgb(241,240,234)" d="M 5.00177,4.90089 l -0.755689,0 -0.132599,-0.2 0.888288,-8.88178e-16 0,0.2 z "/>
<path fill="rgb(241,240,234)" stroke="rgb(241,240,234)" d="M 7.25177,6.49754 l 0.07491,0 0,1 -0.07491,0 0,-1 z "/>
<path fill="rgb(241,240,234)" stroke="rgb(241,240,234)" d="M 7.25177,7.49754 l 0.07491,0 0,0.753348 -0.07491,0 0,-0.753348 z "/>
<path fill="rgb(241,240,234)" stroke="rgb(241,240,234)" d="M 7.32668,0.497542 l 1,0 0,1 -1,0 0,-1 z "/>
<path fill="rgb(241,240,234)" stroke="rgb(241,240,234)" d="M 7.32668,1.49754 l 1,0 0,1 -1,0 0,-1 z "/>
<path fill="rgb(241,240,234)" stroke="rgb(241,240,234)" d="M 7.32668,2.49754 l 1,0 0,1 -1,0 0,-1 z "/>
<path fill="rgb(241,240,234)" stroke="rgb(241,240,234)" d="M 7.32668,3.49754 l 1,0 0,1 -1,0 0,-1 z "/>
<path fill="rgb(241,240,234)" stroke="rgb(241,240,234)" d="M 7.32668,4.49754 l 1,0 0,1 -1,0 0,-1 z "/>
<path fill="rgb(241,240,234)" stroke="rgb(241,240,234)" d="M 7.32668,5.49754 l 1,0 0,1 -1,0 0,-1 z "/>
<path fill="rgb(241,240,234)" stroke="rgb(241,240,234)" d="M 7.32668,6.49754 l 1,0 0,1 -1,0 0,-1 z "/>
<path fill="rgb(241,240,234)" stroke="rgb(241,240,234)" d="M 8.32668,1.49754 l 0,-1 0.922115,7.10543e-15 0.0228784,0.000998892 0.0227043,0.00298907 0.0223574,0.00495651 0.00994488,0.00313561 0,0.98792 -1,0 z "/>
<path fill="rgb(241,240,234)" stroke="rgb(241,240,234)" d="M 8.32668,1.49754 l 1,0 0,1 -1,0 0,-1 z "/>
<path fill="rgb(241,240,234)" stroke="rgb(241,240,234)" d="M 8.32668,2.49754 l 1,0 0,1 -1,0 0,-1 z "/>
<path fill="rgb(241,240,234)" stroke="rgb(241,240,234)" d="M 8.32668,3.49754 l 1,0 0,1 -1,0 0,-1 z "/>
<path fill="rgb(241,240,234)" stroke="rgb(241,240,234)" d="M 8.32668,4.49754 l 1,0 0,1 -1,0 0,-1 z "/>
<path fill="rgb(241,240,234)" stroke="rgb(241,240,234)" d="M 9.32668,7.49754 l 0.184615,0 0,0.753348 -0.184615,0 0,-0.753348 z "/>
<path fill="rgb(241,240,234)" stroke="rgb(241,240,234)" d="M 8.32668,5.49754 l 1,0 0,1 -1,0 0,-1 z "/>
<path fill="rgb(241,240,234)" stroke="rgb(241,240,234)" d="M 9.00979,13.9989 l -1.75943,-2.65375 0.000778666,-0.0147485 0.000467338,-0.0147616 0.000155803,-0.0147682 0,-0.431832 2.06851,3.11994 -0.0234893,0.00549566 -0.0238946,0.00331607 -0.0240982,0.00110848 -0.239002,-1.77636e-15 z "/>
<path fill="rgb(241,240,234)" stroke="rgb(241,240,234)" d="M 9.50568,13.7904 l -2.25391,-3.39958 0,-0.478224 2.25953,3.40805 -1.77636e-15,0.415756 -0.000625809,0.0181151 -0.00187444,0.0180288 -0.00311414,0.0178564 z "/>
<path fill="rgb(241,240,234)" stroke="rgb(241,240,234)" d="M 1.00962,0.497542 l 2.6542,4.00335 -0.212052,0 -0.0335113,0.00080261 -0.0334345,0.00240599 -0.033281,0.00400385 -2.65241,-4.00064 0.0234893,-0.00549566 0.0238946,-0.00331607 0.0240982,-0.00110848 0.239002,2.66454e-15 z "/>
<path fill="rgb(241,240,234)" stroke="rgb(241,240,234)" d="M 0.508116,1.1758 l -1.77636e-15,-0.415756 0.000625809,-0.0181151 0.00187444,-0.0180288 0.00311414,-0.0178564 2.58091,3.8928 -0.0560191,0.0369712 -0.0522206,0.0421665 -0.0479421,0.0469741 -0.0432228,0.0513498 -2.38712,-3.60051 z "/>
<path fill="rgb(241,240,234)" stroke="rgb(241,240,234)" d="M 9.51129,8.25089 l 0,4.59155 -2.25953,-3.40805 0,-1.18349 2.25953,0 z "/>
<path fill="rgb(241,240,234)" stroke="rgb(241,240,234)" d="M 0.508116,8.25089 l 2.24365,0 0,3.05 0.00266371,0.061009 0.00797086,0.0605447 0.0132173,0.0596196 0.0183632,0.0582408 0.0233694,0.0564187 0.0281977,0.0541672 0.0328114,0.0515035 0.0371753,0.0484478 0.0412564,0.0450234 0.0450234,0.0412564 0.0484478,0.0371753 0.0515035,0.0328114 0.0541672,0.0281977 0.0564187,0.0233694 0.0582408,0.0183632 0.0596196,0.0132173 0.0605447,0.00797086 0.061009,0.00266371 1.55,0 1.55,0 0.0593215,-0.00251813 0.0588947,-0.00753626 0.0580441,-0.0125002 0.056776,-0.0173742 0.0550994,-0.0221231 0.0530264,-0.0267129 0.0505718,-0.0311106 0.0477534,-0.0352844 0.0445915,-0.0392043 0.0411087,-0.0428422 0.0373302,-0.0461718 0.0332831,-0.0491693 1.54516,2.33058 -7.92212,-5.32907e-15 -0.0228784,-0.000998892 -0.0227043,-0.00298907 -0.0223574,-0.00495651 -0.0218403,-0.00688622 -0.021157,-0.00876352 -0.0203127,-0.0105741 -0.0193138,-0.0123043 -0.0181679,-0.0139407 -0.0168838,-0.0154711 -0.0154711,-0.0168838 -0.0139407,-0.0181679 -0.0123043,-0.0193138 -0.0105741,-0.0203127 -0.00876352,-0.021157 -0.00688622,-0.0218403 -0.00495651,-0.0223574 -0.00298907,-0.0227043 -0.000998892,-0.0228784 0,-5.48553 z "/>
<path fill="rgb(241,240,234)" stroke="rgb(241,240,234)" d="M 0.508116,8.25089 l 1.77636e-15,-6.59687 2.25802,3.40578 -0.00796874,0.046669 -0.00479587,0.0471009 -0.00160107,0.0473173 -8.88178e-16,3.05 -2.24365,0 z "/>
<path fill="rgb(241,240,234)" stroke="rgb(241,240,234)" d="M 8.32668,6.49754 l 1,0 0,1 -1,0 0,-1 z "/>
<path fill="rgb(241,240,234)" stroke="rgb(241,240,234)" d="M 8.32668,8.25089 l 0,-0.753348 1,0 0,0.753348 -1,0 z "/>
<path fill="rgb(241,240,234)" stroke="rgb(241,240,234)" d="M 9.32668,1.49754 l 0,-0.98792 0.0118954,0.00375061 0.021157,0.00876352 0.0203127,0.0105741 0.0193138,0.0123043 0.0181679,0.0139407 0.0168838,0.0154711 0.0154711,0.0168838 0.0139407,0.0181679 0.0123043,0.0193138 0.0105741,0.0203127 0.00876352,0.021157 0.00688622,0.0218403 0.00495651,0.0223574 0.00298907,0.0227043 0.000998892,0.0228784 0,0.7375 -0.184615,0 z "/>
<path fill="rgb(241,240,234)" stroke="rgb(241,240,234)" d="M 9.51129,1.49754 l 0,1 -0.184615,0 0,-1 0.184615,0 z "/>
<path fill="rgb(241,240,234)" stroke="rgb(241,240,234)" d="M 9.51129,2.49754 l 0,1 -0.184615,0 0,-1 0.184615,0 z "/>
<path fill="rgb(241,240,234)" stroke="rgb(241,240,234)" d="M 9.51129,3.49754 l 0,1 -0.184615,0 0,-1 0.184615,0 z "/>
<path fill="rgb(241,240,234)" stroke="rgb(241,240,234)" d="M 4.27156,2.49754 l 0.0551185,0.0547546 0,0.945245 -1,0 0,-1 0.944881,0 z "/>
<path fill="rgb(241,240,234)" stroke="rgb(241,240,234)" d="M 9.51129,4.49754 l 0,1 -0.184615,0 0,-1 0.184615,0 z "/>
<path fill="rgb(241,240,234)" stroke="rgb(241,240,234)" d="M 9.51129,5.49754 l 0,1 -0.184615,0 0,-1 0.184615,0 z "/>
<path fill="rgb(241,240,234)" stroke="rgb(241,240,234)" d="M 9.51129,6.49754 l 1.77636e-15,1 -0.184615,0 0,-1 0.184615,0 z "/>
<path fill="rgb(241,240,234)" stroke="rgb(241,240,234)" d="M 7.32668,8.25089 l 0,-0.753348 1,0 0,0.753348 -1,0 z "/>
<path fill="rgb(241,240,234)" stroke="rgb(241,240,234)" d="M 2.32668,0.497542 l 0,1 -0.337004,0 -0.662996,-1 1,0 z "/>
<path fill="rgb(241,240,234)" stroke="rgb(241,240,234)" d="M 1.98967,1.49754 l 0.337004,0 0,0.508305 -0.337004,-0.508305 z "/>
<path fill="rgb(241,240,234)" stroke="rgb(241,240,234)" d="M 2.63388,1.49754 l -0.307202,0 0,-1 1,0 0,0.40117 -0.243898,0 -0.00561795,0.000243178 -0.00557592,0.000727715 -0.00549219,0.00120681 -0.00536736,0.00167687 -0.00520239,0.0021344 -0.0049985,0.00257595 -0.00475721,0.00299824 -0.00448034,0.00339809 -0.00416995,0.00377253 -0.00382837,0.00411874 -0.00345815,0.00443415 -0.00306206,0.00471638 -0.00264307,0.00496333 -0.0022043,0.00517316 -0.00174904,0.00534428 -0.0012807,0.00547543 -0.000802781,0.00556561 -0.000318854,0.00561416 0.000167458,0.00562072 0.000652517,0.00558522 0.0011327,0.00550795 0.0016044,0.00538947 0.0020641,0.00523068 0.00250837,0.00503275 0.00293386,0.00479718 0.00333741,0.00452572 0.168999,0.228579 -0.00201417,0.0175677 -0.00121018,0.0176414 -0.000403675,0.0176782 0.00150349,0.0340929 0.00449879,0.0338282 0.00745916,0.0333009 0.0103616,0.032515 0.0131836,0.0314766 0.0159033,0.0301939 0.0104037,0.0161271 -0.125779,0 -0.00776728,-0.0159787 -0.0155923,-0.0408972 -0.0119283,-0.042112 -0.0081715,-0.0429992 -0.00435114,-0.0435519 -0.453386,0.077916 0,0.107623 z "/>
<path fill="rgb(241,240,234)" stroke="rgb(241,240,234)" d="M 3.13508,1.49754 l 0.125779,0 0.00809581,0.0125496 0.020952,0.026937 0.0232419,0.024988 0.0135324,0.0121946 0,0.135308 -0.00112685,-0.000616734 -0.0363937,-0.0243147 -0.0341098,-0.0274267 -0.0315607,-0.0303254 -0.028766,-0.0329882 -0.0257476,-0.0353944 -0.0225289,-0.0375253 -0.0113678,-0.0233856 z M 2.32668,1.49754 l 0.307202,0 0,0.437876 0.692798,0.116105 0,0.446019 -0.674008,0 -0.325992,-0.491695 0,-0.508305 z "/>
<path fill="rgb(241,240,234)" stroke="rgb(241,240,234)" d="M 2.65267,2.49754 l 0.674008,0 0,1 -0.0110122,0 -0.662996,-1 z "/>
<path fill="rgb(241,240,234)" stroke="rgb(241,240,234)" d="M 3.31567,3.49754 l 0.0110122,0 0,0.0166098 -0.0110122,-0.0166098 z "/>
<path fill="rgb(241,240,234)" stroke="rgb(241,240,234)" d="M 4.32668,0.497542 l 0,0.786125 -0.247618,0 -0.0018575,0.0437293 -0.00570318,0.0433956 -0.0095045,0.0427243 -0.0132319,0.0417207 -0.0168564,0.0403926 -0.00100419,0.0019122 -0.12206,0 0.0111761,-0.0174939 0.0156684,-0.0300198 0.0129862,-0.0312737 0.0102048,-0.0322885 0.00734539,-0.0330565 0.00442982,-0.0335718 0.00148038,-0.0338304 -0.00155888,-0.034714 -0.00466409,-0.0344346 -0.00773176,-0.0338779 -0.0107372,-0.0330486 -0.0136562,-0.0319531 -0.0164652,-0.0306005 -0.0191417,-0.0290015 -0.0216642,-0.0271691 0.0272166,0 -8.88178e-16,-0.132496 -0.318893,0 -0.25816,0 0,-0.40117 1,0 z "/>
<path fill="rgb(241,240,234)" stroke="rgb(241,240,234)" d="M 3.32668,2.05152 l 0.596535,0.0999727 0.348346,0.346046 -0.944881,0 0,-0.446019 z M 4.0309,1.49754 l -0.0193455,0.0368382 -0.0236848,0.0368067 -0.0268357,0.0345767 -0.0297778,0.0320778 -0.0324883,0.0293294 -0.0349461,0.0263528 -0.0371321,0.0231713 -0.0390293,0.0198096 -0.0406229,0.0162937 -0.0419005,0.0126512 -0.0428522,0.00891019 -0.0434706,0.00509992 -0.0437509,0.00124997 -0.0436909,-0.0026097 -0.043291,-0.00644907 -0.0425544,-0.0102383 -0.0414869,-0.0139478 -0.0400966,-0.0175489 -0.0372676,-0.0203968 0,-0.135308 0.0118189,0.0106505 0.0272639,0.0205248 0.0289648,0.0180451 0.0304409,0.0154253 0.0316806,0.0126858 0.0326743,0.00984776 0.0334143,0.00693327 0.0237757,0.0321578 0.036764,-0.0271813 0.0338354,-0.00136138 0.0335871,-0.00431171 0.0330821,-0.00722908 0.0323242,-0.0100912 0.0313192,-0.0128762 0.0300747,-0.0155627 0.0286004,-0.0181302 0.0269074,-0.0205592 0.0250087,-0.022831 0.0229188,-0.0249282 0.0206537,-0.0268349 0.0070546,-0.0110425 0.12206,0 z "/>
<path fill="rgb(241,240,234)" stroke="rgb(241,240,234)" d="M 3.32668,3.49754 l 1,0 0,1 -0.348016,0 -0.651984,-0.98339 0,-0.0166098 z "/>
<path fill="rgb(241,240,234)" stroke="rgb(241,240,234)" d="M 3.97866,4.49754 l 0.348016,0 0,0.00334751 -0.345797,0 -0.00221938,-0.00334751 z "/>
<path fill="rgb(241,240,234)" stroke="rgb(241,240,234)" d="M 5.32668,0.497542 l 0,0.786125 -1,0 0,-0.786125 1,0 z "/>
<path fill="rgb(241,240,234)" stroke="rgb(241,240,234)" d="M 4.32668,2.5523 l 0.131383,0.130515 0.0138954,0.0126679 0.0149291,0.0114316 0.0158531,0.0101112 0.0166606,0.00871667 0.0173458,0.00725807 0.0179036,0.00574615 0.0183299,0.00419203 0.0186215,0.00260711 0.0187763,0.00100305 0.716302,0 0,0.750996 -1,0 0,-0.945245 z "/>
<path fill="rgb(241,240,234)" stroke="rgb(241,240,234)" d="M 4.32668,3.49754 l 1,0 0,1 -1,0 0,-1 z "/>
<path fill="rgb(241,240,234)" stroke="rgb(241,240,234)" d="M 4.32668,4.49754 l 1,0 0,0.00334751 -0.32491,0 -0.67509,0 0,-0.00334751 z "/>
<path fill="rgb(241,240,234)" stroke="rgb(241,240,234)" d="M 6.11205,1.49754 l -0.127638,0 -0.00283916,-0.00546751 -0.0164545,-0.0397557 -0.0129573,-0.0410289 -0.00936308,-0.0419952 -0.00569884,-0.0426472 -0.00199195,-0.0429802 -0.608429,0 0,-0.786125 1,0 0,0.41444 -0.0245698,0.00774682 -0.0312153,0.0129298 -0.0299696,0.0156012 -0.0284958,0.0181538 -0.0268052,0.0205683 -0.0249105,0.0228263 -0.0228263,0.0249105 -0.0205683,0.0268052 -0.0181538,0.0284958 -0.0156012,0.0299696 -0.0129298,0.0312153 -0.01016,0.0322234 -0.00731288,0.0329863 -0.00441011,0.0334981 -0.00147378,0.033755 0.00147378,0.033755 0.00441011,0.0334981 0.00731288,0.0329863 0.01016,0.0322234 0.0129298,0.0312153 0.0156012,0.0299696 0.0128861,0.0202271 z "/>
<path fill="rgb(241,240,234)" stroke="rgb(241,240,234)" d="M 6.32668,1.76773 l -0.0267576,-0.00616836 -0.0409346,-0.0132524 -0.0396362,-0.0167403 -0.0380412,-0.0201031 -0.0361616,-0.0233154 -0.0340114,-0.0263532 -0.0316067,-0.0291939 -0.0289655,-0.0318161 -0.0261076,-0.0342002 -0.0230544,-0.0363285 -0.0169895,-0.0327174 0.127638,0 0.00526774,0.00826869 0.0205683,0.0268052 0.0228263,0.0249105 0.0249105,0.0228263 0.0268052,0.0205683 0.0284958,0.0181538 0.0299696,0.0156012 0.0312153,0.0129298 0.0245698,0.00774682 0,0.112378 z M 6.32668,2.46311 l 0,0.0344283 -0.0327177,0 0.0327177,-0.0344283 z "/>
<path fill="rgb(241,240,234)" stroke="rgb(241,240,234)" d="M 5.32668,2.74655 l 0.682828,0 0.00991551,-0.000442027 0.00983684,-0.00132257 0.00968014,-0.00219263 0.00944663,-0.00304529 0.00913819,-0.00387379 0.00875724,-0.00467155 0.00830682,-0.00543226 0.0077905,-0.00614986 0.00721237,-0.00681868 0.20437,-0.215055 0.0327177,0 0,1 -1,0 0,-0.750996 z "/>
<path fill="rgb(241,240,234)" stroke="rgb(241,240,234)" d="M 5.32668,3.49754 l 1,0 0,1 -1,0 0,-1 z "/>
<path fill="rgb(241,240,234)" stroke="rgb(241,240,234)" d="M 5.32668,4.50089 l 0,-0.00334751 1,0 0,0.00334751 -1,0 z "/>
<path fill="rgb(241,240,234)" stroke="rgb(241,240,234)" d="M 7.32668,0.497542 l 0,1 -0.0136708,0 0,-0.0792873 -0.386092,-0.0814616 -0.00657182,0.0425215 -0.0102219,0.0417945 -0.0137956,0.0407547 -0.015631,0.0356782 -0.123602,0 0.0128861,-0.0202271 0.0156012,-0.0299696 0.0129298,-0.0312153 0.01016,-0.0322234 0.00731288,-0.0329863 0.00441011,-0.0334981 0.00147378,-0.033755 -0.00147378,-0.033755 -0.00441011,-0.0334981 -0.00731288,-0.0329863 -0.01016,-0.0322234 -0.0129298,-0.0312153 -0.0156012,-0.0299696 -0.0181538,-0.0284958 -0.0205683,-0.0268052 -0.0228263,-0.0249105 -0.0249105,-0.0228263 -0.0268052,-0.0205683 -0.0284958,-0.0181538 -0.0299696,-0.0156012 -0.0312153,-0.0129298 -0.0322234,-0.01016 -0.0329863,-0.00731288 -0.0334981,-0.00441011 -0.033755,-0.00147378 -0.033755,0.00147378 -0.0334981,0.00441011 -0.0329863,0.00731288 -0.00765363,0.00241318 0,-0.41444 1,0 z "/>
<path fill="rgb(241,240,234)" stroke="rgb(241,240,234)" d="M 6.8807,1.49754 l -0.00163494,0.0037318 -0.0206072,0.0377705 -0.0237942,0.0358483 -0.0268032,0.0336579 -0.0296116,0.0312157 -0.0321985,0.0285399 -0.0345444,0.0256505 -0.0366319,0.0225692 -0.0384453,0.0193191 -0.039971,0.0159244 -0.0411976,0.0124105 -0.042116,0.00880379 -0.0427193,0.0051312 -0.0430029,0.00142022 -0.0429647,-0.00230139 -0.0426051,-0.00600578 -0.0151691,-0.00349688 0,-0.112378 0.00765363,0.00241318 0.0329863,0.00731288 0.0334981,0.00441011 0.033755,0.00147378 0.033755,-0.00147378 0.0334981,-0.00441011 0.0329863,-0.00731288 0.0322234,-0.01016 0.0312153,-0.0129298 0.0299696,-0.0156012 0.0284958,-0.0181538 0.0268052,-0.0205683 0.0249105,-0.0228263 0.0228263,-0.0249105 0.0205683,-0.0268052 0.00526774,-0.00826869 0.123602,0 z M 6.32668,2.46311 l 0.306243,-0.322255 0.680086,-0.0991894 0,-0.544127 0.0136708,0 0,1 -1,0 0,-0.0344283 z "/>
<path fill="rgb(241,240,234)" stroke="rgb(241,240,234)" d="M 6.32668,2.49754 l 1,0 0,1 -1,0 0,-1 z "/>
<path fill="rgb(241,240,234)" stroke="rgb(241,240,234)" d="M 6.32668,3.49754 l 1,0 0,1 -1,0 0,-1 z "/>
<path fill="rgb(241,240,234)" stroke="rgb(241,240,234)" d="M 6.32668,4.50089 l 0,-0.00334751 1,0 0,1 -0.07491,0 0,-0.296652 -0.00266371,-0.061009 -0.00797086,-0.0605447 -0.0132173,-0.0596196 -0.0183632,-0.0582408 -0.0233694,-0.0564187 -0.0281977,-0.0541672 -0.0328114,-0.0515035 -0.0371753,-0.0484478 -0.0412564,-0.0450234 -0.0450234,-0.0412564 -0.0484478,-0.0371753 -0.0515035,-0.0328114 -0.0541672,-0.0281977 -0.0564187,-0.0233694 -0.0582408,-0.0183632 -0.0596196,-0.0132173 -0.0605447,-0.00797086 -0.061009,-0.00266371 -0.22509,0 z "/>
<path fill="rgb(241,240,234)" stroke="rgb(241,240,234)" d="M 7.25177,5.49754 l 0.07491,0 0,1 -0.07491,0 0,-1 z "/>
<path fill="rgb(241,240,234)" stroke="rgb(241,240,234)" d="M 5.48174,2.11607 l 0.995325,0.0247902 -0.435673,0.460463 -0.00622395,0.00604227 -0.00671408,0.00549251 -0.00715581,0.00490315 -0.00754596,0.00427844 -0.0078817,0.00362289 -0.00816062,0.00294122 -0.00838071,0.00223835 -0.00854039,0.00151934 -0.00863849,0.000789378 -0.00867431,5.37237e-05 -0.481736,0 -1.77636e-15,-0.517134 z "/>
<path fill="rgb(241,240,234)" stroke="rgb(241,240,234)" d="M 5.36839,2.6332 l -0.758017,0 -0.00923016,-0.000415551 -0.00915548,-0.00124329 -0.00900672,-0.00206097 -0.00878508,-0.00286197 -0.00849237,-0.00363982 -0.00813094,-0.00438822 -0.00770372,-0.00510111 -0.00721417,-0.00577273 -0.00666625,-0.00639764 -0.527771,-0.52068 1.36017,0.0318813 0,0.52068 z "/>
<path fill="rgb(241,240,234)" stroke="rgb(241,240,234)" d="M 10.0035,8.25089 l -0.229744,0 0,-7.49085 -0.00199778,-0.0457568 -0.00597815,-0.0454085 -0.00991301,-0.0447147 -0.0137724,-0.0436806 -0.017527,-0.042314 -0.0211483,-0.0406254 -0.0246085,-0.0386276 -0.0278815,-0.0363359 -0.0309423,-0.0337676 -0.0337676,-0.0309423 -0.0363359,-0.0278815 -0.0386276,-0.0246085 -0.0406254,-0.0211483 -0.042314,-0.017527 -0.0436806,-0.0137724 -0.0447147,-0.00991301 -0.0454085,-0.00597815 -0.0457568,-0.00199778 -8.47818,-7.10543e-15 -0.0457568,0.00199778 -0.0454085,0.00597815 -0.0447147,0.00991301 -0.0436806,0.0137724 -0.042314,0.017527 -0.0406254,0.0211483 -0.0386276,0.0246085 -0.0363359,0.0278815 -0.0337676,0.0309423 -0.0309423,0.0337676 -0.0278815,0.0363359 -0.0246085,0.0386276 -0.0211483,0.0406254 -0.017527,0.042314 -0.0137724,0.0436806 -0.00991301,0.0447147 -0.00597815,0.0454085 -0.00199778,0.0457568 0,7.49085 -0.245616,0 0,-8.25089 10.0035,3.55271e-15 -1.77636e-15,8.25089 z "/>
<path fill="rgb(241,240,234)" stroke="rgb(241,240,234)" d="M 10.0035,8.25089 l -1.77636e-15,6.25089 -10.0035,0 0,-6.25089 0.245616,0 0,5.48553 0.00199778,0.0457568 0.00597815,0.0454085 0.00991301,0.0447147 0.0137724,0.0436806 0.017527,0.042314 0.0211483,0.0406254 0.0246085,0.0386276 0.0278815,0.0363359 0.0309423,0.0337676 0.0337676,0.0309423 0.0363359,0.0278815 0.0386276,0.0246085 0.0406254,0.0211483 0.042314,0.017527 0.0436806,0.0137724 0.0447147,0.00991301 0.0454085,0.00597815 0.0457568,0.00199778 8.47818,1.06581e-14 0.0457568,-0.00199778 0.0454085,-0.00597815 0.0447147,-0.00991301 0.0436806,-0.0137724 0.042314,-0.017527 0.0406254,-0.0211483 0.0386276,-0.0246085 0.0363359,-0.0278815 0.0337676,-0.0309423 0.0309423,-0.0337676 0.0278815,-0.0363359 0.0246085,-0.0386276 0.0211483,-0.0406254 0.017527,-0.042314 0.0137724,-0.0436806 0.00991301,-0.0447147 0.00597815,-0.0454085 0.00199778,-0.0457568 1.77636e-15,-5.48553 0.229744,0 z "/>
<path fill="rgb(142,146,145)" stroke="rgb(142,146,145)" d="M 5.00177,4.90089 l 1.55,0 0.0261467,0.00114159 0.0259477,0.00341608 0.0255513,0.00566458 0.0249603,0.00786996 0.0241794,0.0100155 0.0232145,0.0120847 0.0220729,0.014062 0.0207634,0.0159323 0.0192958,0.0176813 0.0176813,0.0192958 0.0159323,0.0207634 0.014062,0.0220729 0.0120847,0.0232145 0.0100155,0.0241794 0.00786996,0.0249603 0.00566458,0.0255513 0.00341608,0.0259477 0.00114159,0.0261467 8.88178e-16,3.63017 -2.60569,-3.93017 0.755689,0 z "/>
<path fill="rgb(142,146,145)" stroke="rgb(142,146,145)" d="M 3.15177,5.64146 l 3.7,5.58073 0,0.0787049 -0.00114159,0.0261467 -0.00341608,0.0259477 -0.00566458,0.0255513 -0.00786996,0.0249603 -0.0100155,0.0241794 -0.0120847,0.0232145 -0.014062,0.0220729 -0.0159323,0.0207634 -0.0176813,0.0192958 -0.0192958,0.0176813 -0.0207634,0.0159323 -0.0220729,0.014062 -0.0232145,0.0120847 -0.0241794,0.0100155 -0.0249603,0.00786996 -0.0255513,0.00566458 -0.0259477,0.00341608 -0.0261467,0.00114159 -1.55,0 -1.55,0 -0.0261467,-0.00114159 -0.0259477,-0.00341608 -0.0255513,-0.00566458 -0.0249603,-0.00786996 -0.0241794,-0.0100155 -0.0232145,-0.0120847 -0.0220729,-0.014062 -0.0207634,-0.0159323 -0.0192958,-0.0176813 -0.0176813,-0.0192958 -0.0159323,-0.0207634 -0.014062,-0.0220729 -0.0120847,-0.0232145 -0.0100155,-0.0241794 -0.00786996,-0.0249603 -0.00566458,-0.0255513 -0.00341608,-0.0259477 -0.00114159,-0.0261467 0,-5.65943 z "/>
<path fill="rgb(142,146,145)" stroke="rgb(142,146,145)" d="M 3.15377,5.16626 l 0.00430022,-0.0265542 0.00666157,-0.0260622 0.00896936,-0.0253607 0.011205,-0.0244553 0.0133506,-0.0233533 0.0153889,-0.0220635 0.0173034,-0.0205963 0.0190788,-0.0189636 0.0207008,-0.0171783 0.0221563,-0.0152549 0.0234338,-0.0132089 3.53545,5.33253 0,0.478224 -3.69799,-5.5777 z "/>
<path fill="rgb(142,146,145)" stroke="rgb(142,146,145)" d="M 3.92902,4.90089 l 2.92275,4.4084 8.88178e-16,0.478224 -3.23981,-4.88662 0.317061,0 z "/>
<path fill="rgb(142,146,145)" stroke="rgb(142,146,145)" d="M 6.55177,12.0009 l -1.55,0 -1.77636e-15,-0.2 1.55,0 0.0432628,-0.00187519 0.0429383,-0.0056115 0.0422918,-0.00930573 0.041328,-0.0129301 0.0400542,-0.0164576 0.03848,-0.0198616 0.0366171,-0.0231166 0.0344796,-0.0261982 0.0320835,-0.0290833 0.0294467,-0.0317503 0.026589,-0.0341791 0.0235319,-0.0363516 0.0202983,-0.0382514 0.0169125,-0.0398642 0.127487,0.192289 -0.0332831,0.0491693 -0.0373302,0.0461718 -0.0411087,0.0428422 -0.0445915,0.0392043 -0.0477534,0.0352844 -0.0505718,0.0311106 -0.0530264,0.0267129 -0.0550994,0.0221231 -0.056776,0.0173742 -0.0580441,0.0125002 -0.0588947,0.00753626 -0.0593215,0.00251813 z "/>
<path fill="rgb(142,146,145)" stroke="rgb(142,146,145)" d="M 7.25037,11.3452 l -0.198598,-0.299547 0,-0.478224 0.2,0.301661 0,0.431832 -0.000155803,0.0147682 -0.000467338,0.0147616 -0.000778666,0.0147485 z "/>
<path fill="rgb(142,146,145)" stroke="rgb(142,146,145)" d="M 7.25177,9.91261 l 0,0.478224 -0.2,-0.301661 0,-0.478224 0.2,0.301661 z "/>
<path fill="rgb(142,146,145)" stroke="rgb(142,146,145)" d="M 7.25177,8.25089 l 0,1.18349 -0.2,-0.301661 0,-3.93183 -0.00190265,-0.0435779 -0.00569347,-0.0432462 -0.00944096,-0.0425854 -0.0131166,-0.0416005 -0.0166924,-0.0402991 -0.0201412,-0.0386909 -0.0234367,-0.0367882 -0.0265538,-0.0346056 -0.0294688,-0.0321596 -0.0321596,-0.0294688 -0.0346056,-0.0265538 -0.0367882,-0.0234367 -0.0386909,-0.0201412 -0.0402991,-0.0166924 -0.0416005,-0.0131166 -0.0425854,-0.00944096 -0.0432462,-0.00569347 -0.0435779,-0.00190265 -1.55,8.88178e-16 0,-0.2 1.55,0 0.061009,0.00266371 0.0605447,0.00797086 0.0596196,0.0132173 0.0582408,0.0183632 0.0564187,0.0233694 0.0541672,0.0281977 0.0515035,0.0328114 0.0484478,0.0371753 0.0450234,0.0412564 0.0412564,0.0450234 0.0371753,0.0484478 0.0328114,0.0515035 0.0281977,0.0541672 0.0233694,0.0564187 0.0183632,0.0582408 0.0132173,0.0596196 0.00797086,0.0605447 0.00266371,0.061009 0,3.05 z "/>
<path fill="rgb(142,146,145)" stroke="rgb(142,146,145)" d="M 3.66382,4.50089 l 0.132599,0.2 -0.317061,0 -0.127817,-0.192788 0.033281,-0.00400385 0.0334345,-0.00240599 0.0335113,-0.00080261 0.212052,0 z "/>
<path fill="rgb(142,146,145)" stroke="rgb(142,146,145)" d="M 2.89524,4.7763 l 0.0432228,-0.0513498 0.0479421,-0.0469741 0.0522206,-0.0421665 0.0560191,-0.0369712 0.11071,0.166985 -0.038542,0.0242109 -0.0361807,0.0276154 -0.0335195,0.0307911 -0.0305806,0.0337117 -0.0273883,0.0363529 -0.023969,0.0386929 -0.119935,-0.180898 z "/>
<path fill="rgb(142,146,145)" stroke="rgb(142,146,145)" d="M 3.98088,4.50089 l 1.02089,0 0,0.2 -0.888288,8.88178e-16 -0.132599,-0.2 z "/>
<path fill="rgb(142,146,145)" stroke="rgb(142,146,145)" d="M 2.75177,11.3009 l 0,-3.05 8.88178e-16,-3.05 0.00160107,-0.0473173 0.00479587,-0.0471009 0.00796874,-0.046669 0.185634,0.279993 0,5.96109 0.00190265,0.0435779 0.00569347,0.0432462 0.00944096,0.0425854 0.0131166,0.0416005 0.0166924,0.0402991 0.0201412,0.0386909 0.0234367,0.0367882 0.0265538,0.0346056 0.0294688,0.0321596 0.0321596,0.0294688 0.0346056,0.0265538 0.0367882,0.0234367 0.0386909,0.0201412 0.0402991,0.0166924 0.0416005,0.0131166 0.0425854,0.00944096 0.0432462,0.00569347 0.0435779,0.00190265 1.55,0 1.77636e-15,0.2 -1.55,0 -0.061009,-0.00266371 -0.0605447,-0.00797086 -0.0596196,-0.0132173 -0.0582408,-0.0183632 -0.0564187,-0.0233694 -0.0541672,-0.0281977 -0.0515035,-0.0328114 -0.0484478,-0.0371753 -0.0450234,-0.0412564 -0.0412564,-0.0450234 -0.0371753,-0.0484478 -0.0328114,-0.0515035 -0.0281977,-0.0541672 -0.0233694,-0.0564187 -0.0183632,-0.0582408 -0.0132173,-0.0596196 -0.00797086,-0.0605447 -0.00266371,-0.061009 z "/>
<path fill="rgb(241,240,234)" stroke="rgb(241,240,234)" d="M 6.5156,6.0526 l -0.0493344,-0.0054816 -0.0438528,-0.0219264 -0.0200992,-0.0219264 0.115114,-0.036544 0.0493344,-0.00730881 0.0475072,-0.0219264 0.0292352,0.0785697 -0.0292352,0.0146176 -0.0493344,0.0164448 -0.0493344,0.0054816 z "/>
<path fill="rgb(241,240,234)" stroke="rgb(241,240,234)" d="M 6.40231,6.00327 l -0.0146176,-0.0511616 0.00730881,-0.0383712 0.0292352,-0.0438528 0.0383712,-0.0219264 0.0566432,-0.0219264 0.036544,-0.0109632 0.0200992,-0.0292352 -0.0054816,-0.0127904 -0.0529888,-0.0127904 0.12425,-0.0310624 0.0127904,0.0529888 -0.00730881,0.0401984 -0.0237536,0.0383712 -0.0401984,0.027408 -0.0584704,0.018272 -0.04568,0.0146176 -0.0109632,0.0200992 0.0018272,0.0109632 0.0475072,0.0146176 -0.115114,0.036544 z "/>
<path fill="rgb(241,240,234)" stroke="rgb(241,240,234)" d="M 6.40962,5.78583 l -0.0292352,-0.0785697 0.036544,-0.0164448 0.0493344,-0.0127904 0.054816,-0.0036544 0.0018272,0 0.054816,0.00730881 0.0420256,0.0219264 0.0219264,0.0255808 -0.12425,0.0310624 -0.00913601,0 -0.0529888,0.0127904 -0.04568,0.0127904 z "/>
<path fill="rgb(241,240,234)" stroke="rgb(241,240,234)" d="M 6.29085,6.05078 l -0.0200992,-0.0018272 -0.0438528,-0.0292352 0.0584704,-0.054816 0.0420256,-0.0219264 0.0255808,0.0877057 -0.0127904,0.00913601 -0.0493344,0.0109632 z "/>
<path fill="rgb(241,240,234)" stroke="rgb(241,240,234)" d="M 6.2269,6.04529 l -0.0803969,0 0,-0.363613 0.0803969,0 0,0.213783 0,0.0018272 0.018272,0.0493344 0.0401984,0.018272 -0.0584704,0.054816 0,0.0255808 z "/>
<path fill="rgb(241,240,234)" stroke="rgb(241,240,234)" d="M 5.94917,6.05078 l -0.0146176,0 -0.04568,-0.0164448 -0.0383712,-0.0383712 -0.0164448,-0.0237536 0.118768,-0.0018272 0.0347168,-0.0127904 0.0219264,-0.0511616 -0.116941,0 0.195511,-0.0292352 -0.0109632,0.0566432 -0.0036544,0.0127904 -0.0237536,0.0493344 -0.0109632,0.0127904 -0.0401984,0.0328896 -0.0493344,0.00913601 z "/>
<path fill="rgb(241,240,234)" stroke="rgb(241,240,234)" d="M 5.83405,5.97221 l -0.018272,-0.0511616 -0.0054816,-0.0584704 0.0018272,-0.0347168 0.0127904,-0.0529888 0.0255808,-0.0475072 0.0127904,-0.0146176 0.0420256,-0.0310624 0.0475072,-0.00913601 0.018272,0.0018272 0.0475072,0.0164448 0.0383712,0.0383712 0.0018272,0.0036544 -0.105978,0.0219264 -0.0383712,0.018272 -0.0219264,0.0493344 -0.0036544,0.0127904 0.200992,0 0,0.027408 -0.0018272,0.0146176 -0.195511,0.0292352 0.0200992,0.04568 0.0401984,0.018272 -0.118768,0.0018272 z "/>
<path fill="rgb(241,240,234)" stroke="rgb(241,240,234)" d="M 6.00581,5.784 l -0.00913601,-0.00913601 -0.0438528,-0.0200992 0.105978,-0.0219264 -0.0529888,0.0511616 z "/>
<path fill="rgb(241,240,234)" stroke="rgb(241,240,234)" d="M 5.74452,6.18964 l -0.0822241,-0.0328896 0,-0.133386 -0.157139,-0.027408 -0.0146176,-0.0237536 0.120595,-0.00730881 0.0127904,-0.0018272 0.0383712,-0.036544 0,-0.126077 -0.0109632,-0.0164448 -0.0401984,-0.0237536 -0.105978,-0.0292352 0.0054816,-0.00730881 0.151658,-0.0164448 0,-0.0255808 0.0822241,0 0,0.507962 z "/>
<path fill="rgb(241,240,234)" stroke="rgb(241,240,234)" d="M 5.59652,6.05443 l -0.00913601,0 -0.0438528,-0.0164448 -0.0383712,-0.0420256 0.157139,0.027408 -0.0310624,0.0237536 -0.0347168,0.00730881 z "/>
<path fill="rgb(241,240,234)" stroke="rgb(241,240,234)" d="M 5.49054,5.97221 l -0.018272,-0.0529888 -0.0054816,-0.0566432 0.0018272,-0.0292352 0.0109632,-0.054816 0.0255808,-0.0475072 0.105978,0.0292352 -0.00730881,0 -0.0401984,0.0292352 -0.00913601,0.018272 -0.00913601,0.054816 0.0018272,0.0219264 0.0164448,0.0511616 0.0054816,0.00730881 0.0420256,0.0219264 -0.120595,0.00730881 z "/>
<path fill="rgb(241,240,234)" stroke="rgb(241,240,234)" d="M 5.51064,5.72371 l 0.0401984,-0.036544 0.04568,-0.0109632 0.0347168,0.0054816 0.0310624,0.0255808 -0.151658,0.0164448 z "/>
<path fill="rgb(241,240,234)" stroke="rgb(241,240,234)" d="M 5.20367,6.04347 l -0.0803969,0 0,-0.250327 0.0054816,-0.0401984 0.133386,0.00730881 -0.0438528,0.018272 -0.0146176,0.0475072 0,0.217437 z "/>
<path fill="rgb(241,240,234)" stroke="rgb(241,240,234)" d="M 5.39918,6.04347 l -0.0767425,0 0,-0.217437 -0.018272,-0.04568 -0.0420256,-0.0200992 -0.133386,-0.00730881 0.193683,-0.0438528 0,-0.027408 0.0767425,0 0,0.361786 z "/>
<path fill="rgb(241,240,234)" stroke="rgb(241,240,234)" d="M 5.12875,5.75294 l 0.027408,-0.0438528 0.0347168,-0.0237536 0.0529888,-0.00913601 0.0347168,0.0054816 0.0438528,0.027408 -0.193683,0.0438528 z "/>
<path fill="rgb(241,240,234)" stroke="rgb(241,240,234)" d="M 4.9168,6.05443 l -0.018272,0 -0.04568,-0.018272 -0.0383712,-0.036544 -0.0164448,-0.027408 0.118768,-0.00730881 0.0036544,0 0.0401984,-0.027408 0.00730881,-0.0164448 0.00913601,-0.0584704 0,-0.0219264 -0.0164448,-0.0511616 -0.0018272,-0.0036544 -0.0420256,-0.0255808 0.118768,-0.0054816 0.018272,0.0511616 0.0054816,0.0566432 -0.0018272,0.036544 -0.0127904,0.0529888 -0.027408,0.0475072 -0.0127904,0.0146176 -0.0401984,0.0310624 -0.0475072,0.00913601 z "/>
<path fill="rgb(241,240,234)" stroke="rgb(241,240,234)" d="M 4.79803,5.97221 l -0.018272,-0.0511616 -0.00730881,-0.0584704 0.0018272,-0.0328896 0.0146176,-0.054816 0.0255808,-0.04568 0.0127904,-0.0164448 0.0401984,-0.0310624 0.0493344,-0.00913601 0.0164448,0.0018272 0.04568,0.0164448 0.0383712,0.0383712 0.018272,0.0255808 -0.118768,0.0054816 -0.0054816,0 -0.0401984,0.0292352 -0.00913601,0.0164448 -0.00913601,0.0566432 0.0018272,0.0219264 0.0164448,0.0511616 0.0036544,0.0054816 0.0420256,0.0237536 -0.118768,0.00730881 z "/>
<path fill="rgb(241,240,234)" stroke="rgb(241,240,234)" d="M 4.51481,6.18964 l -0.0803969,-0.0328896 0,-0.475072 0.0803969,0 0,0.213783 0,0.00913601 0.0164448,0.04568 0.0420256,0.0146176 0.129731,0.00913601 -0.188202,0.04568 0,0.16993 z "/>
<path fill="rgb(241,240,234)" stroke="rgb(241,240,234)" d="M 4.58973,6.05443 l -0.036544,-0.0054816 -0.0383712,-0.0292352 0.188202,-0.04568 -0.027408,0.04568 -0.0347168,0.0255808 -0.0511616,0.00913601 z "/>
<path fill="rgb(241,240,234)" stroke="rgb(241,240,234)" d="M 4.70301,5.97403 l -0.129731,-0.00913601 0.0438528,-0.0200992 0.018272,-0.04568 0,-0.217437 0.0749153,0 0,0.250327 -0.00730881,0.0420256 z "/>
<path fill="rgb(241,240,234)" stroke="rgb(241,240,234)" d="M 6.65447,6.77617 l -0.157139,0 0,0.0895329 0.157139,0 0,-0.0895329 z "/>
<path fill="rgb(241,240,234)" stroke="rgb(241,240,234)" d="M 6.28537,6.94976 l -0.04568,-0.0146176 -0.036544,-0.0401984 0.158967,0.018272 -0.0310624,0.0255808 -0.036544,0.0109632 -0.00913601,0 z "/>
<path fill="rgb(241,240,234)" stroke="rgb(241,240,234)" d="M 6.44251,6.94062 l -0.0803969,0 0,-0.027408 -0.158967,-0.018272 -0.0164448,-0.0292352 0.120595,-0.0054816 0.0164448,-0.0036544 0.0383712,-0.036544 0,-0.129731 -0.0146176,-0.018272 -0.0401984,-0.0200992 -0.105978,-0.0310624 0.0054816,-0.00730881 0.155312,-0.00913601 0,-0.0383712 -0.0054816,-0.0292352 -0.0292352,-0.0383712 -0.0511616,-0.0383712 0.0310624,-0.0767425 0.00913601,0.0018272 0.0255808,0.0127904 0.0420256,0.027408 0.0036544,0.0036544 0.0328896,0.04568 0.0164448,0.0420256 0.0054816,0.0621248 0,0.361786 z "/>
<path fill="rgb(241,240,234)" stroke="rgb(241,240,234)" d="M 6.1867,6.86571 l -0.018272,-0.0529888 -0.0054816,-0.0566432 0.0018272,-0.0310624 0.0127904,-0.054816 0.0237536,-0.0493344 0.105978,0.0310624 -0.00730881,0 -0.0383712,0.0292352 -0.00913601,0.0164448 -0.00913601,0.0584704 0.0018272,0.0237536 0.0164448,0.0511616 0.0018272,0.0054816 0.0438528,0.0237536 -0.120595,0.0054816 z "/>
<path fill="rgb(241,240,234)" stroke="rgb(241,240,234)" d="M 6.2068,6.61355 l 0.0401984,-0.036544 0.04568,-0.0109632 0.0292352,0.0054816 0.0401984,0.0328896 -0.155312,0.00913601 z "/>
<path fill="rgb(241,240,234)" stroke="rgb(241,240,234)" d="M 5.98023,6.9461 l -0.036544,-0.0054816 -0.0401984,-0.0310624 0.191856,-0.0401984 -0.0292352,0.0438528 -0.0347168,0.0237536 -0.0511616,0.00913601 z "/>
<path fill="rgb(241,240,234)" stroke="rgb(241,240,234)" d="M 5.90349,6.94062 l -0.0803969,0 0,-0.36544 0.0803969,0 0,0.219264 0.0164448,0.0475072 0.0420256,0.0200992 0.133386,0.00730881 -0.191856,0.0401984 0,0.0310624 z "/>
<path fill="rgb(241,240,234)" stroke="rgb(241,240,234)" d="M 6.09534,6.86936 l -0.133386,-0.00730881 0.0420256,-0.018272 0.018272,-0.0493344 0,-0.219264 0.0785697,0 0,0.253981 -0.0054816,0.0401984 z "/>
<path fill="rgb(241,240,234)" stroke="rgb(241,240,234)" d="M 5.70067,7.08314 l -0.0292352,-0.0127904 -0.0127904,-0.0310624 0.0127904,-0.0328896 0.0292352,-0.0127904 0.0292352,0.0146176 0.0109632,0.0310624 -0.0109632,0.0310624 -0.0292352,0.0127904 z "/>
<path fill="rgb(241,240,234)" stroke="rgb(241,240,234)" d="M 5.74086,6.94062 l -0.0803969,0 0,-0.36544 0.0803969,0 0,0.36544 z "/>
<path fill="rgb(241,240,234)" stroke="rgb(241,240,234)" d="M 5.46313,6.9461 l -0.0383712,-0.0054816 -0.0401984,-0.0310624 0.191856,-0.0401984 -0.027408,0.0438528 -0.0347168,0.0237536 -0.0511616,0.00913601 z "/>
<path fill="rgb(241,240,234)" stroke="rgb(241,240,234)" d="M 5.38456,6.94062 l -0.0803969,0 0,-0.36544 0.0803969,0 0,0.219264 0.018272,0.0475072 0.0401984,0.0200992 0.133386,0.00730881 -0.191856,0.0401984 0,0.0310624 z "/>
<path fill="rgb(241,240,234)" stroke="rgb(241,240,234)" d="M 5.57642,6.86936 l -0.133386,-0.00730881 0.0438528,-0.018272 0.0164448,-0.0493344 0,-0.219264 0.0785697,0 0,0.253981 -0.0054816,0.0401984 z "/>
<path fill="rgb(241,240,234)" stroke="rgb(241,240,234)" d="M 5.10683,6.9461 l -0.036544,-0.0054816 -0.0401984,-0.0310624 0.191856,-0.0401984 -0.027408,0.0438528 -0.0347168,0.0237536 -0.0529888,0.00913601 z "/>
<path fill="rgb(241,240,234)" stroke="rgb(241,240,234)" d="M 5.03008,6.94062 l -0.0803969,0 0,-0.36544 0.0803969,0 0,0.219264 0.0164448,0.0475072 0.0420256,0.0200992 0.133386,0.00730881 -0.191856,0.0401984 0,0.0310624 z "/>
<path fill="rgb(241,240,234)" stroke="rgb(241,240,234)" d="M 5.22194,6.86936 l -0.133386,-0.00730881 0.0438528,-0.018272 0.0164448,-0.0493344 0,-0.219264 0.0785697,0 0,0.253981 -0.0054816,0.0401984 z "/>
<path fill="rgb(241,240,234)" stroke="rgb(241,240,234)" d="M 4.67378,6.9388 l -0.0803969,0 0,-0.252154 0.0054816,-0.0383712 0.133386,0.0054816 -0.0438528,0.018272 -0.0146176,0.0493344 0,0.217437 z "/>
<path fill="rgb(241,240,234)" stroke="rgb(241,240,234)" d="M 4.86929,6.9388 l -0.0767425,0 0,-0.219264 -0.018272,-0.04568 -0.0420256,-0.0200992 -0.133386,-0.0054816 0.193683,-0.0438528 0,-0.0292352 0.0767425,0 0,0.363613 z "/>
<path fill="rgb(241,240,234)" stroke="rgb(241,240,234)" d="M 4.59886,6.64827 l 0.027408,-0.04568 0.0347168,-0.0237536 0.0529888,-0.00913601 0.0347168,0.0054816 0.0438528,0.0292352 -0.193683,0.0438528 z "/>
<path fill="rgb(241,240,234)" stroke="rgb(241,240,234)" d="M 4.35767,6.94976 l -0.0438528,-0.0146176 -0.0383712,-0.0401984 0.160794,0.018272 -0.0328896,0.0255808 -0.036544,0.0109632 -0.00913601,0 z "/>
<path fill="rgb(241,240,234)" stroke="rgb(241,240,234)" d="M 4.51664,6.94062 l -0.0803969,0 0,-0.027408 -0.160794,-0.018272 -0.0164448,-0.0292352 0.120595,-0.0054816 0.0164448,-0.0036544 0.0401984,-0.036544 0,-0.129731 -0.0146176,-0.018272 -0.0420256,-0.0200992 -0.10415,-0.0310624 0.0054816,-0.00730881 0.155312,-0.00913601 0,-0.0383712 -0.0054816,-0.0292352 -0.0292352,-0.0383712 -0.0511616,-0.0383712 0.0310624,-0.0767425 0.00730881,0.0018272 0.027408,0.0127904 0.0420256,0.027408 0.0036544,0.0036544 0.0328896,0.04568 0.0146176,0.0420256 0.00730881,0.0621248 0,0.361786 z "/>
<path fill="rgb(241,240,234)" stroke="rgb(241,240,234)" d="M 4.259,6.86571 l -0.0164448,-0.0529888 -0.0054816,-0.0566432 0.0018272,-0.0310624 0.0109632,-0.054816 0.0255808,-0.0493344 0.10415,0.0310624 -0.0054816,0 -0.0401984,0.0292352 -0.00730881,0.0164448 -0.00913601,0.0584704 0.0018272,0.0237536 0.0146176,0.0511616 0.0036544,0.0054816 0.0420256,0.0237536 -0.120595,0.0054816 z "/>
<path fill="rgb(241,240,234)" stroke="rgb(241,240,234)" d="M 4.28093,6.61355 l 0.0401984,-0.036544 0.04568,-0.0109632 0.027408,0.0054816 0.0420256,0.0328896 -0.155312,0.00913601 z "/>
<path fill="rgb(241,240,234)" stroke="rgb(241,240,234)" d="M 4.13841,6.9461 l -0.0200992,-0.0036544 -0.0438528,-0.0292352 0.0584704,-0.0529888 0.0420256,-0.0219264 0.0255808,0.0858785 -0.0127904,0.00913601 -0.0493344,0.0127904 z "/>
<path fill="rgb(241,240,234)" stroke="rgb(241,240,234)" d="M 4.07446,6.94062 l -0.0803969,0 0,-0.36544 0.0803969,0 0,0.213783 0,0.0018272 0.0164448,0.0493344 0.0420256,0.0200992 -0.0584704,0.0529888 0,0.027408 z "/>
<path fill="rgb(241,240,234)" stroke="rgb(241,240,234)" d="M 3.79672,6.9461 l -0.0146176,-0.0018272 -0.04568,-0.0164448 -0.0401984,-0.036544 -0.0146176,-0.0255808 0.118768,-0.0018272 0.0328896,-0.0127904 0.0018272,0 0.0219264,-0.0511616 -0.116941,0 0.195511,-0.0292352 -0.0109632,0.0566432 -0.0036544,0.0127904 -0.0237536,0.0493344 -0.0127904,0.0146176 -0.0401984,0.0310624 -0.0475072,0.0109632 z "/>
<path fill="rgb(241,240,234)" stroke="rgb(241,240,234)" d="M 3.68161,6.86571 l -0.018272,-0.0511616 -0.00730881,-0.0566432 0.0018272,-0.0347168 0.0146176,-0.054816 0.0255808,-0.0475072 0.0127904,-0.0146176 0.0401984,-0.0292352 0.0493344,-0.0109632 0.018272,0.0018272 0.04568,0.0164448 0.0383712,0.0383712 0.0036544,0.0036544 -0.105978,0.0219264 -0.0383712,0.0200992 -0.0237536,0.0493344 -0.0036544,0.0127904 0.200992,0 0,0.0255808 0,0.0146176 -0.195511,0.0292352 0.0200992,0.0475072 0.0401984,0.0164448 -0.118768,0.0018272 z "/>
<path fill="rgb(241,240,234)" stroke="rgb(241,240,234)" d="M 3.85154,6.67933 l -0.00730881,-0.00913601 -0.0438528,-0.0219264 0.105978,-0.0219264 -0.054816,0.0529888 z "/>
<path fill="rgb(241,240,234)" stroke="rgb(241,240,234)" d="M 3.38195,6.94062 l -0.0803969,0 0.116941,-0.36544 0.0420256,0.116941 -0.0785697,0.248499 z "/>
<path fill="rgb(241,240,234)" stroke="rgb(241,240,234)" d="M 3.62131,6.94062 l -0.0822241,0 -0.0785697,-0.248499 -0.0420256,-0.116941 0.0858785,0 0.116941,0.36544 z "/>
<path fill="rgb(241,240,234)" stroke="rgb(241,240,234)" d="M 5.31147,11.2693 l -1.46724,0 0,-3.49909 0.573741,0 0,1.37223 0.893501,0 0.153485,0.00730881 0.153485,0.0255808 0.13704,0.0420256 0.120595,0.0621248 0.0475072,0.0328896 0.118768,0.100496 0.102323,0.116941 0.0858785,0.13704 0.0255808,0.054816 -1.83816,0.0475072 0,0.873402 0.917255,0 0.935527,0.0328896 -0.0694337,0.129731 -0.0913601,0.116941 -0.109632,0.105978 -0.127904,0.0931873 -0.115114,0.0602976 -0.13704,0.0493344 -0.148003,0.0292352 -0.160794,0.00913601 z "/>
<path fill="rgb(241,240,234)" stroke="rgb(241,240,234)" d="M 6.27075,10.6754 l -0.935527,-0.0328896 0.0730881,-0.0036544 0.148003,-0.0383712 0.113286,-0.0767425 0.027408,-0.0292352 0.0767425,-0.135213 0.0255808,-0.160794 -0.0018272,-0.0347168 -0.036544,-0.157139 -0.0913601,-0.120595 -0.0475072,-0.036544 -0.131558,-0.0602976 -0.155312,-0.0200992 -0.917255,0 1.83816,-0.0475072 0.0602976,0.155312 0.0347168,0.158967 0.0109632,0.162621 0,0.0109632 -0.0109632,0.166275 -0.0292352,0.155312 -0.0511616,0.144349 z "/>
<path fill="rgb(42,41,42)" stroke="rgb(42,41,42)" d="M 6.92672,13.4656 l -0.729053,0 0,-0.999479 0.745498,0 0,0.179066 -0.564605,0 0,0.272253 0.299661,0 0,0.18272 -0.299661,0 0,0.186375 0.54816,0 0,0.179066 z "/>
<path fill="rgb(42,41,42)" stroke="rgb(42,41,42)" d="M 5.9382,13.4656 l -0.171757,0 0,-0.65962 0.018272,-0.339859 0.153485,0 0,0.999479 z "/>
<path fill="rgb(42,41,42)" stroke="rgb(42,41,42)" d="M 5.30599,13.4656 l 0,-0.312451 0.478727,-0.687028 -0.018272,0.339859 -0.460455,0.65962 z "/>
<path fill="rgb(42,41,42)" stroke="rgb(42,41,42)" d="M 5.30599,13.4656 l -0.173584,0 0,-0.999479 0.173584,0 0,0.687028 0,0.312451 z "/>
<path fill="rgb(42,41,42)" stroke="rgb(42,41,42)" d="M 4.4874,13.482 l -0.0858785,-0.00730881 -0.0858785,-0.0255808 -0.0749153,-0.0438528 -0.063952,-0.0602976 -0.018272,-0.0255808 0.328896,-0.0164448 0.0255808,0 0.0840513,-0.027408 0.063952,-0.0602976 0.0310624,-0.0584704 0.0237536,-0.0858785 0.00730881,-0.10415 -0.0018272,-0.0584704 -0.0164448,-0.0931873 -0.0310624,-0.0767425 -0.0292352,-0.04568 -0.0676064,-0.0493344 -0.0895329,-0.0164448 0.31976,-0.00913601 0.0401984,0.0730881 0.0292352,0.0840513 0.018272,0.0931873 0.0054816,0.102323 0,0.0328896 -0.0109632,0.0986689 -0.0219264,0.0895329 -0.0347168,0.0803969 -0.04568,0.0694337 -0.0511616,0.0529888 -0.0730881,0.0475072 -0.0822241,0.0292352 -0.0931873,0.0109632 z "/>
<path fill="rgb(42,41,42)" stroke="rgb(42,41,42)" d="M 4.15851,13.3194 l -0.0420256,-0.0712609 -0.0292352,-0.0822241 -0.0164448,-0.0950145 -0.00730881,-0.10415 0,-0.0054816 0.00730881,-0.100496 0.0200992,-0.0895329 0.0310624,-0.0840513 0.0420256,-0.0749153 0.0127904,-0.0146176 0.0621248,-0.0657792 0.0712609,-0.04568 0.0840513,-0.0292352 0.0931873,-0.00913601 0.0785697,0.00730881 0.0840513,0.0255808 0.0749153,0.04568 0.063952,0.0657792 0.018272,0.0255808 -0.31976,0.00913601 -0.0292352,0.0018272 -0.0822241,0.027408 -0.0657792,0.0621248 -0.0328896,0.0584704 -0.0237536,0.0877057 -0.00730881,0.102323 0.0054816,0.0858785 0.0219264,0.0895329 0.036544,0.0730881 0.0164448,0.0200992 0.0712609,0.0511616 0.0895329,0.0164448 -0.328896,0.0164448 z "/>
<path fill="rgb(42,41,42)" stroke="rgb(42,41,42)" d="M 3.89722,13.4656 l -0.752807,0 0,-0.177239 0.53537,0 -0.56826,-0.619421 0,-0.202819 0.785697,0 0,0.179066 -0.564605,0 0.564605,0.615767 0,0.204647 z "/>
<path fill="rgb(247,181,0)" stroke="rgb(247,181,0)" d="M 3.58484,0.898712 l 0.318893,0 8.88178e-16,0.132496 -0.0272166,0 -0.0227623,-0.0239174 -0.0247167,-0.0218917 -0.0264915,-0.0197069 -0.0280738,-0.0173789 -0.029452,-0.0149246 -0.0306162,-0.0123618 -0.0315578,-0.00970917 -0.0322701,-0.00698597 -0.0327479,-0.004212 -0.0329876,-0.00140741 z "/>
<path fill="rgb(247,181,0)" stroke="rgb(247,181,0)" d="M 3.52294,1.66832 l 0.0200838,0.00271467 0.0201983,0.00166036 0.0202575,0.000601506 -0.036764,0.0271813 -0.0237757,-0.0321578 z "/>
<path fill="rgb(247,181,0)" stroke="rgb(247,181,0)" d="M 3.58484,0.898712 l -0.0346604,0.00155406 -0.0343822,0.00464969 -0.0338281,0.00770802 -0.0330026,0.0107045 -0.0319122,0.013615 -0.0305657,0.0164163 -0.0289739,0.0190859 -0.0271495,0.0216023 -0.0251073,0.0239453 -0.0228637,0.0260962 -0.0204365,0.0280376 -0.0178453,0.029754 -0.0151109,0.0312317 -0.0122552,0.0324587 -0.00930122,0.0334252 -0.00627257,0.0341235 -0.168999,-0.228579 -0.00333741,-0.00452572 -0.00293386,-0.00479718 -0.00250837,-0.00503275 -0.0020641,-0.00523068 -0.0016044,-0.00538947 -0.0011327,-0.00550795 -0.000652517,-0.00558522 -0.000167458,-0.00562072 0.000318854,-0.00561416 0.000802781,-0.00556561 0.0012807,-0.00547543 0.00174904,-0.00534428 0.0022043,-0.00517316 0.00264307,-0.00496333 0.00306206,-0.00471638 0.00345815,-0.00443415 0.00382837,-0.00411874 0.00416995,-0.00377253 0.00448034,-0.00339809 0.00475721,-0.00299824 0.0049985,-0.00257595 0.00520239,-0.0021344 0.00536736,-0.00167687 0.00549219,-0.00120681 0.00557592,-0.000727715 0.00561795,-0.000243178 0.502058,0 z "/>
<path fill="rgb(42,41,42)" stroke="rgb(42,41,42)" d="M 3.15177,5.64146 l 0,-0.440567 0.000223076,-0.011567 0.000668897,-0.0115498 0.00111372,-0.0115154 3.69799,5.5777 0,0.478224 -3.7,-5.58073 z "/>
<path fill="rgb(42,41,42)" stroke="rgb(42,41,42)" d="M 7.05177,9.13272 l 0,0.478224 -0.2,-0.301661 0,-0.478224 0.2,0.301661 z "/>
<path fill="rgb(42,41,42)" stroke="rgb(42,41,42)" d="M 9.50568,13.7904 l -0.00594321,0.0230332 -0.00800392,0.0224006 -0.0099989,0.0215841 -0.0119118,0.0205903 -0.0137268,0.0194274 -0.0154292,0.018105 -0.0170048,0.0166339 -0.0184408,0.0150262 -0.0197253,0.0132952 -0.0208479,0.0114549 -0.0217993,0.0095206 -0.0225716,0.0075081 -2.06851,-3.11994 0,-0.478224 2.25391,3.39958 z "/>
<path fill="rgb(42,41,42)" stroke="rgb(42,41,42)" d="M 1.32668,0.497542 l 2.6542,4.00335 -0.317061,0 -2.6542,-4.00335 0.317061,-8.88178e-16 z "/>
<path fill="rgb(42,41,42)" stroke="rgb(42,41,42)" d="M 7.02008,11.4761 l -0.168314,-0.253868 0,-0.478224 0.2,0.301661 0,0.255268 -0.00200034,0.0446804 -0.005985,0.0443228 -0.00992178,0.0436107 -0.0137792,0.0425496 z "/>
<path fill="rgb(42,41,42)" stroke="rgb(42,41,42)" d="M 7.25177,9.43438 l 0,0.478224 -0.2,-0.301661 0,-0.478224 0.2,0.301661 z "/>
<path fill="rgb(42,41,42)" stroke="rgb(42,41,42)" d="M 3.09464,4.59884 l 0.0605755,-0.032033 0.0634172,-0.0259569 0.0656513,-0.019632 0.0672562,-0.0131189 0.127817,0.192788 -0.0275905,0 -0.0428925,0.00184316 -0.0425762,0.00551589 -0.0419461,0.00914796 -0.0410067,0.0127126 -0.039765,0.0161835 -0.0382301,0.0195351 -0.11071,-0.166985 z "/>
<path fill="rgb(42,41,42)" stroke="rgb(42,41,42)" d="M 7.05177,10.0892 l 0,0.478224 -0.2,-0.301661 0,-0.478224 0.2,0.301661 z "/>
<path fill="rgb(42,41,42)" stroke="rgb(42,41,42)" d="M 2.76613,5.0598 l 0.015406,-0.0608881 0.0208016,-0.0592621 0.0260298,-0.057159 0.0310484,-0.0545958 0.035817,-0.0515931 0.119935,0.180898 -0.0190806,0.0378759 -0.0158022,0.0393567 -0.0124101,0.0405543 -0.00892868,0.0414601 -0.00538303,0.0420676 -0.00179866,0.0423724 0,0.138906 -0.185634,-0.279993 z "/>
<path fill="rgb(42,41,42)" stroke="rgb(42,41,42)" d="M 0.508116,1.65402 l 0,-0.478224 2.38712,3.60051 -0.035817,0.0515931 -0.0310484,0.0545958 -0.0260298,0.057159 -0.0208016,0.0592621 -0.015406,0.0608881 -2.25802,-3.40578 z "/>
<path fill="rgb(42,41,42)" stroke="rgb(42,41,42)" d="M 4.24608,4.90089 l 2.60569,3.93017 0,0.478224 -2.92275,-4.4084 0.317061,0 z "/>
<path fill="rgb(42,41,42)" stroke="rgb(42,41,42)" d="M 7.25177,10.3908 l 0,0.478224 -0.2,-0.301661 0,-0.478224 0.2,0.301661 z "/>
<path fill="rgb(42,41,42)" stroke="rgb(42,41,42)" d="M 7.14757,11.6683 l -0.127487,-0.192289 0.0137792,-0.0425496 0.00992178,-0.0436107 0.005985,-0.0443228 0.00200034,-0.0446804 0,-0.255268 0.198598,0.299547 -0.00592924,0.0567649 -0.0105339,0.0560932 -0.0150686,0.0550486 -0.0195031,0.053638 -0.023808,0.0518709 -0.0279546,0.0497589 z "/>
<path fill="rgb(42,41,42)" stroke="rgb(42,41,42)" d="M 0.513731,0.706042 l 0.00594321,-0.0230332 0.00800392,-0.0224006 0.0099989,-0.0215841 0.0119118,-0.0205903 0.0137268,-0.0194274 0.0154292,-0.018105 0.0170048,-0.0166339 0.0184408,-0.0150262 0.0197253,-0.0132952 0.0208479,-0.0114549 0.0217993,-0.0095206 0.0225716,-0.0075081 2.65241,4.00064 -0.0672562,0.0131189 -0.0656513,0.019632 -0.0634172,0.0259569 -0.0605755,0.032033 -2.58091,-3.8928 z "/>
<path fill="rgb(42,41,42)" stroke="rgb(42,41,42)" d="M 9.00979,13.9989 l -0.317061,-1.77636e-15 -1.54516,-2.33058 0.0279546,-0.0497589 0.023808,-0.0518709 0.0195031,-0.053638 0.0150686,-0.0550486 0.0105339,-0.0560932 0.00592924,-0.0567649 1.75943,2.65375 z "/>
<path fill="rgb(42,41,42)" stroke="rgb(42,41,42)" d="M 9.51129,12.8424 l 0,0.478224 -2.25953,-3.40805 0,-0.478224 2.25953,3.40805 z "/>
<path fill="rgb(42,41,42)" stroke="rgb(42,41,42)" d="M 4.11348,4.70089 l 0.132599,0.2 -0.317061,0 -0.132599,-0.2 0.317061,0 z "/>
<path fill="rgb(42,41,42)" stroke="rgb(42,41,42)" d="M 3.45177,4.90089 l -0.0280646,0.00131559 -0.0278185,0.00393524 -0.0273284,0.00652037 -0.0265986,0.00904831 -0.0256355,0.0114969 -0.110971,-0.167378 0.0382301,-0.0195351 0.039765,-0.0161835 0.0410067,-0.0127126 0.0419461,-0.00914796 0.0425762,-0.00551589 0.0428925,-0.00184316 0.0275905,0 0.132599,0.2 -0.16019,0 z "/>
<path fill="rgb(42,41,42)" stroke="rgb(42,41,42)" d="M 3.45177,4.90089 l 0.16019,0 3.23981,4.88662 0,0.478224 -3.53545,-5.33253 0.0256355,-0.0114969 0.0265986,-0.00904831 0.0273284,-0.00652037 0.0278185,-0.00393524 0.0280646,-0.00131559 z "/>
<path fill="rgb(42,41,42)" stroke="rgb(42,41,42)" d="M 2.95177,5.3398 l 0,-0.138906 0.00179866,-0.0423724 0.00538303,-0.0420676 0.00892868,-0.0414601 0.0124101,-0.0405543 0.0158022,-0.0393567 0.0190806,-0.0378759 0.138602,0.209055 -0.00111372,0.0115154 -0.000668897,0.0115498 -0.000223076,0.011567 0,0.440567 -0.2,-0.301661 z "/>
<path fill="rgb(42,41,42)" stroke="rgb(42,41,42)" d="M 3.98088,4.50089 l 0.132599,0.2 -0.317061,0 -0.132599,-0.2 0.317061,0 z "/>
<path fill="rgb(42,41,42)" stroke="rgb(42,41,42)" d="M 3.69425,1.03121 l 0.182269,0 0.0216642,0.0271691 0.0191417,0.0290015 0.0164652,0.0306005 0.0136562,0.0319531 0.0107372,0.0330486 0.00773176,0.0338779 0.00466409,0.0344346 0.00155888,0.034714 -0.00148038,0.0338304 -0.00442982,0.0335718 -0.00734539,0.0330565 -0.0102048,0.0322885 -0.0129862,0.0312737 -0.0156684,0.0300198 -0.0182307,0.0285364 -0.0206537,0.0268349 -0.0229188,0.0249282 -0.0250087,0.022831 -0.0269074,0.0205592 -0.0286004,0.0181302 -0.0300747,0.0155627 -0.0313192,0.0128762 -0.0323242,0.0100912 -0.0330821,0.00722908 -0.0335871,0.00431171 -0.0338354,0.00136138 0.0567216,-0.0419368 -0.0503538,-0.068106 0.0242579,-0.00150326 0.024033,-0.00362159 0.0236236,-0.00571211 0.0230327,-0.00775874 0.0222648,-0.00974577 0.0213259,-0.0116579 0.0202232,-0.0134805 0.0189651,-0.0151996 0.0175614,-0.0168019 0.0160227,-0.0182751 0.0143609,-0.0196079 0.0125888,-0.02079 0.01072,-0.0218125 0.00876881,-0.0226674 0.00675028,-0.0233482 0.0046799,-0.0238496 0.00257356,-0.0241677 0.000447456,-0.0243003 -0.00168209,-0.0242461 -0.00379871,-0.0240057 -0.00588615,-0.0235809 -0.00792837,-0.0229749 -0.00990968,-0.0221924 -0.0118149,-0.0212394 -0.0136293,-0.0201233 -0.015339,-0.0188525 -0.0169309,-0.017437 -0.0183927,-0.0158875 -0.0197132,-0.0142159 -0.0208823,-0.0124351 -0.021891,-0.0105588 z "/>
<path fill="rgb(42,41,42)" stroke="rgb(42,41,42)" d="M 3.19754,1.28601 l 0.000403675,-0.0176782 0.00121018,-0.0176414 0.00201417,-0.0175677 0.321765,0.435204 -0.0334143,-0.00693327 -0.0326743,-0.00984776 -0.0316806,-0.0126858 -0.0304409,-0.0154253 -0.0289648,-0.0180451 -0.0272639,-0.0205248 -0.0253513,-0.0228451 -0.0232419,-0.024988 -0.020952,-0.026937 -0.0184995,-0.0286768 -0.0159033,-0.0301939 -0.0131836,-0.0314766 -0.0103616,-0.032515 -0.00745916,-0.0333009 -0.00449879,-0.0338282 -0.00150349,-0.0340929 z "/>
<path fill="rgb(247,181,0)" stroke="rgb(247,181,0)" d="M 3.69425,1.03121 l 0.021891,0.0105588 0.0208823,0.0124351 0.0197132,0.0142159 0.0183927,0.0158875 0.0169309,0.017437 0.015339,0.0188525 0.0136293,0.0201233 0.0118149,0.0212394 0.00990968,0.0221924 0.00792837,0.0229749 0.00588615,0.0235809 0.00379871,0.0240057 0.00168209,0.0242461 -0.000447456,0.0243003 -0.00257356,0.0241677 -0.0046799,0.0238496 -0.00675028,0.0233482 -0.00876881,0.0226674 -0.01072,0.0218125 -0.0125888,0.02079 -0.0143609,0.0196079 -0.0160227,0.0182751 -0.0175614,0.0168019 -0.0189651,0.0151996 -0.0202232,0.0134805 -0.0213259,0.0116579 -0.0222648,0.00974577 -0.0230327,0.00775874 -0.0236236,0.00571211 -0.024033,0.00362159 -0.0242579,0.00150326 0.0503538,0.068106 -0.0567216,0.0419368 -0.0202575,-0.000601506 -0.0201983,-0.00166036 -0.0200838,-0.00271467 -0.321765,-0.435204 0.00627257,-0.0341235 0.00930122,-0.0334252 0.0122552,-0.0324587 0.0151109,-0.0312317 0.0178453,-0.029754 0.0204365,-0.0280376 0.0228637,-0.0260962 0.0251073,-0.0239453 0.0271495,-0.0216023 0.0289739,-0.0190859 0.0305657,-0.0164163 0.0319122,-0.013615 0.0330026,-0.0107045 0.0338281,-0.00770802 0.0343822,-0.00464969 0.0346604,-0.00155406 0.0329876,0.00140741 0.0327479,0.004212 0.0322701,0.00698597 0.0315578,0.00970917 0.0306162,0.0123618 0.029452,0.0149246 0.0280738,0.0173789 0.0264915,0.0197069 0.0247167,0.0218917 0.0227623,0.0239174 -0.182269,0 z "/>
<path fill="rgb(42,41,42)" stroke="rgb(42,41,42)" d="M 6.04728,1.28367 l 0.00147378,-0.033755 0.00441011,-0.0334981 0.00731288,-0.0329863 0.01016,-0.0322234 0.0129298,-0.0312153 0.0156012,-0.0299696 0.0181538,-0.0284958 0.0205683,-0.0268052 0.0228263,-0.0249105 0.0249105,-0.0228263 0.0268052,-0.0205683 0.0284958,-0.0181538 0.0299696,-0.0156012 0.0312153,-0.0129298 0.0322234,-0.01016 0.0329863,-0.00731288 0.0334981,-0.00441011 0.033755,-0.00147378 0.033755,0.00147378 0.0334981,0.00441011 0.0329863,0.00731288 0.0322234,0.01016 0.0312153,0.0129298 0.0299696,0.0156012 0.0284958,0.0181538 0.0268052,0.0205683 0.0249105,0.0228263 0.0228263,0.0249105 0.0205683,0.0268052 0.0181538,0.0284958 0.0156012,0.0299696 0.0129298,0.0312153 0.01016,0.0322234 0.00731288,0.0329863 0.00441011,0.0334981 0.00147378,0.033755 -0.00147378,0.033755 -0.00441011,0.0334981 -0.00731288,0.0329863 -0.01016,0.0322234 -0.0129298,0.0312153 -0.0156012,0.0299696 -0.0181538,0.0284958 -0.0205683,0.0268052 -0.0228263,0.0249105 -0.0249105,0.0228263 -0.0268052,0.0205683 -0.0284958,0.0181538 -0.0299696,0.0156012 -0.0312153,0.0129298 -0.0322234,0.01016 -0.0329863,0.00731288 -0.0334981,0.00441011 -0.033755,0.00147378 -0.033755,-0.00147378 -0.0334981,-0.00441011 -0.0329863,-0.00731288 -0.0322234,-0.01016 -0.0312153,-0.0129298 -0.0299696,-0.0156012 -0.0284958,-0.0181538 -0.0268052,-0.0205683 -0.0249105,-0.0228263 -0.0228263,-0.0249105 -0.0205683,-0.0268052 -0.0181538,-0.0284958 -0.0156012,-0.0299696 -0.0129298,-0.0312153 -0.01016,-0.0322234 -0.00731288,-0.0329863 -0.00441011,-0.0334981 -0.00147378,-0.033755 z "/>
<path fill="rgb(42,41,42)" stroke="rgb(42,41,42)" d="M 6.49721,2.28367 l -0.407618,0.42893 -0.00721237,0.00681868 -0.0077905,0.00614986 -0.00830682,0.00543226 -0.00875724,0.00467155 -0.00913819,0.00387379 -0.00944663,0.00304529 -0.00968014,0.00219263 -0.00983684,0.00132257 -0.00991551,0.000442027 -0.375626,0 0,-0.113343 0.329591,0 0.00867431,-5.37237e-05 0.00863849,-0.000789378 0.00854039,-0.00151934 0.00838071,-0.00223835 0.00816062,-0.00294122 0.0078817,-0.00362289 0.00754596,-0.00427844 0.00715581,-0.00490315 0.00671408,-0.00549251 0.00622395,-0.00604227 0.300553,-0.317654 0.155268,0 z "/>
<path fill="rgb(42,41,42)" stroke="rgb(42,41,42)" d="M 5.48174,2.28367 l -0.113343,0 0,-0.171144 -0.734512,-0.0172164 0,-0.81164 1,0 0,0.836191 -0.152145,-0.00378941 8.88178e-16,0.167599 z "/>
<path fill="rgb(42,41,42)" stroke="rgb(42,41,42)" d="M 6.63388,2.14072 l 0,-0.403861 0.00254345,-0.00101331 0.0384453,-0.0193191 0.0366319,-0.0225692 0.0345444,-0.0256505 0.0321985,-0.0285399 0.0296116,-0.0312157 0.0268032,-0.0336579 0.0237942,-0.0358483 0.0206072,-0.0377705 0.017266,-0.03941 0.0137956,-0.0407547 0.0102219,-0.0417945 0.00657182,-0.0425215 0.386092,0.0814616 0,0.623415 -0.679127,0.0990496 z "/>
<path fill="rgb(42,41,42)" stroke="rgb(42,41,42)" d="M 3.63388,1.77769 l 0,0.325314 -1,-0.167589 0,-0.545499 0.453386,-0.077916 0.00435114,0.0435519 0.0081715,0.0429992 0.0119283,0.042112 0.0155923,0.0408972 0.019135,0.0393644 0.0225289,0.0375253 0.0257476,0.0353944 0.028766,0.0329882 0.0315607,0.0303254 0.0341098,0.0274267 0.0363937,0.0243147 0.0383945,0.0210135 0.0400966,0.0175489 0.0414869,0.0139478 0.0425544,0.0102383 0.043291,0.00644907 0.0436909,0.0026097 0.0437509,-0.00124997 0.0150639,-0.00176728 z "/>
<path fill="rgb(42,41,42)" stroke="rgb(42,41,42)" d="M 4.21401,2.28367 l -0.157747,0 -0.13305,-0.132172 -0.289333,-0.048489 0,-0.325314 0.0284067,-0.00333264 0.0428522,-0.00891019 0.0419005,-0.0126512 0.0406229,-0.0162937 0.0390293,-0.0198096 0.0371321,-0.0231713 0.0349461,-0.0263528 0.0324883,-0.0293294 0.0297778,-0.0320778 0.0268357,-0.0345767 0.0236848,-0.0368067 0.0203497,-0.0387504 0.0168564,-0.0403926 0.0132319,-0.0417207 0.0095045,-0.0427243 0.00570318,-0.0433956 0.0018575,-0.0437293 0.554821,0 0,0.81164 -0.62566,-0.0146649 0.20579,0.203025 z "/>
<path fill="rgb(42,41,42)" stroke="rgb(42,41,42)" d="M 4.05626,2.28367 l 0.157747,0 0.32198,0.317654 0.00666625,0.00639764 0.00721417,0.00577273 0.00770372,0.00510111 0.00813094,0.00438822 0.00849237,0.00363982 0.00878508,0.00286197 0.00900672,0.00206097 0.00915548,0.00124329 0.00923016,0.000415551 0.0235041,0 0,0.113343 -0.0235041,0 -0.0187763,-0.00100305 -0.0186215,-0.00260711 -0.0183299,-0.00419203 -0.0179036,-0.00574615 -0.0173458,-0.00725807 -0.0166606,-0.00871667 -0.0158531,-0.0101112 -0.0149291,-0.0114316 -0.0138954,-0.0126679 -0.401797,-0.399145 z "/>
<path fill="rgb(42,41,42)" stroke="rgb(42,41,42)" d="M 4.63388,2.74655 l 0,-0.113343 0.734512,0 0,-0.349536 0.113343,0 8.88178e-16,0.349536 0.152145,0 0,0.113343 -1,0 z "/>
<path fill="rgb(42,41,42)" stroke="rgb(42,41,42)" d="M 5.93511,1.28367 l 0.00199195,0.0429802 0.00569884,0.0426472 0.00936308,0.0419952 0.0129573,0.0410289 0.0164545,0.0397557 0.0198286,0.038185 0.0230544,0.0363285 0.0261076,0.0342002 0.0289655,0.0318161 0.0316067,0.0291939 0.0340114,0.0263532 0.0361616,0.0233154 0.0380412,0.0201031 0.0396362,0.0167403 0.0409346,0.0132524 0.0419267,0.00966523 0.0426051,0.00600578 0.0429647,0.00230139 0.0430029,-0.00142022 0.0427193,-0.0051312 0.042116,-0.00880379 0.0411976,-0.0124105 0.0374275,-0.0149111 0,0.403861 -0.000959093,0.000139882 -0.135713,0.142808 -0.155268,0 0.13512,-0.142808 -0.84318,-0.0210007 0,-0.836191 0.301227,0 z "/>
<path fill="rgb(42,41,42)" stroke="rgb(42,41,42)" d="M 0.508116,13.7364 l 0.000998892,0.0228784 0.00298907,0.0227043 0.00495651,0.0223574 0.00688622,0.0218403 0.00876352,0.021157 0.0105741,0.0203127 0.0123043,0.0193138 0.0139407,0.0181679 0.0154711,0.0168838 0.0168838,0.0154711 0.0181679,0.0139407 0.0193138,0.0123043 0.0203127,0.0105741 0.021157,0.00876352 0.0218403,0.00688622 0.0223574,0.00495651 0.0227043,0.00298907 0.0228784,0.000998892 7.92212,5.32907e-15 0.317061,1.77636e-15 0.239002,1.77636e-15 0.0240982,-0.00110848 0.0238946,-0.00331607 0.0234893,-0.00549566 0.0225716,-0.0075081 0.0217993,-0.0095206 0.0208479,-0.0114549 0.0197253,-0.0132952 0.0184408,-0.0150262 0.0170048,-0.0166339 0.0154292,-0.018105 0.0137268,-0.0194274 0.0119118,-0.0205903 0.0099989,-0.0215841 0.00800392,-0.0224006 0.00594321,-0.0230332 0.00311414,-0.0178564 0.00187444,-0.0180288 0.000625809,-0.0181151 1.77636e-15,-0.415756 0,-0.478224 0,-4.59155 0.2625,0 -1.77636e-15,5.48553 -0.00199778,0.0457568 -0.00597815,0.0454085 -0.00991301,0.0447147 -0.0137724,0.0436806 -0.017527,0.042314 -0.0211483,0.0406254 -0.0246085,0.0386276 -0.0278815,0.0363359 -0.0309423,0.0337676 -0.0337676,0.0309423 -0.0363359,0.0278815 -0.0386276,0.0246085 -0.0406254,0.0211483 -0.042314,0.017527 -0.0436806,0.0137724 -0.0447147,0.00991301 -0.0454085,0.00597815 -0.0457568,0.00199778 -8.47818,-1.06581e-14 -0.0457568,-0.00199778 -0.0454085,-0.00597815 -0.0447147,-0.00991301 -0.0436806,-0.0137724 -0.042314,-0.017527 -0.0406254,-0.0211483 -0.0386276,-0.0246085 -0.0363359,-0.0278815 -0.0337676,-0.0309423 -0.0309423,-0.0337676 -0.0278815,-0.0363359 -0.0246085,-0.0386276 -0.0211483,-0.0406254 -0.017527,-0.042314 -0.0137724,-0.0436806 -0.00991301,-0.0447147 -0.00597815,-0.0454085 -0.00199778,-0.0457568 0,-5.48553 0.2625,0 0,5.48553 z "/>
<path fill="rgb(42,41,42)" stroke="rgb(42,41,42)" d="M 9.51129,8.25089 l -1.77636e-15,-7.49085 -0.000998892,-0.0228784 -0.00298907,-0.0227043 -0.00495651,-0.0223574 -0.00688622,-0.0218403 -0.00876352,-0.021157 -0.0105741,-0.0203127 -0.0123043,-0.0193138 -0.0139407,-0.0181679 -0.0154711,-0.0168838 -0.0168838,-0.0154711 -0.0181679,-0.0139407 -0.0193138,-0.0123043 -0.0203127,-0.0105741 -0.021157,-0.00876352 -0.0218403,-0.00688622 -0.0223574,-0.00495651 -0.0227043,-0.00298907 -0.0228784,-0.000998892 -7.92212,-7.10543e-15 -0.317061,8.88178e-16 -0.239002,-2.66454e-15 -0.0240982,0.00110848 -0.0238946,0.00331607 -0.0234893,0.00549566 -0.0225716,0.0075081 -0.0217993,0.0095206 -0.0208479,0.0114549 -0.0197253,0.0132952 -0.0184408,0.0150262 -0.0170048,0.0166339 -0.0154292,0.018105 -0.0137268,0.0194274 -0.0119118,0.0205903 -0.0099989,0.0215841 -0.00800392,0.0224006 -0.00594321,0.0230332 -0.00311414,0.0178564 -0.00187444,0.0180288 -0.000625809,0.0181151 1.77636e-15,0.415756 0,0.478224 -1.77636e-15,6.59687 -0.2625,0 0,-7.49085 0.00199778,-0.0457568 0.00597815,-0.0454085 0.00991301,-0.0447147 0.0137724,-0.0436806 0.017527,-0.042314 0.0211483,-0.0406254 0.0246085,-0.0386276 0.0278815,-0.0363359 0.0309423,-0.0337676 0.0337676,-0.0309423 0.0363359,-0.0278815 0.0386276,-0.0246085 0.0406254,-0.0211483 0.042314,-0.017527 0.0436806,-0.0137724 0.0447147,-0.00991301 0.0454085,-0.00597815 0.0457568,-0.00199778 8.47818,7.10543e-15 0.0457568,0.00199778 0.0454085,0.00597815 0.0447147,0.00991301 0.0436806,0.0137724 0.042314,0.017527 0.0406254,0.0211483 0.0386276,0.0246085 0.0363359,0.0278815 0.0337676,0.0309423 0.0309423,0.0337676 0.0278815,0.0363359 0.0246085,0.0386276 0.0211483,0.0406254 0.017527,0.042314 0.0137724,0.0436806 0.00991301,0.0447147 0.00597815,0.0454085 0.00199778,0.0457568 0,7.49085 -0.2625,0 z "/>
</g></g></svg>
