<?xml version="1.0" encoding="UTF-8" standalone="no"?>
<!DOCTYPE svg PUBLIC "-//W3C//DTD SVG 1.1//EN" "http://www.w3.org/Graphics/SVG/1.1/DTD/svg11-flat.dtd"
[

]>
<svg xmlns="http://www.w3.org/2000/svg"  viewBox="-0.112544 -0.112544 9.22863 9.22687"><g fill="none" stroke="black" stroke-width="0.0125" transform="translate(0,9.00178) scale(1, -1)">
<g id="Output" >
<path fill="rgb(200,225,100)" stroke="rgb(200,225,100)" d="M 8.90354,8.75178 l -0.000570795,0.0130734 -0.00170804,0.0129739 -0.00283229,0.0127756 -0.00393498,0.0124802 -0.00500773,0.0120897 -0.00604236,0.0116073 -0.007031,0.0110365 -0.00796614,0.0103817 -0.00884065,0.00964788 -0.00964788,0.00884065 -0.0103817,0.00796614 -0.0110365,0.007031 -0.0116073,0.00604236 -0.0120897,0.00500773 -0.0124802,0.00393498 -0.0127756,0.00283229 -0.0129739,0.00170804 -0.0130734,0.000570795 -8.50354,0 -0.0130734,-0.000570795 -0.0129739,-0.00170804 -0.0127756,-0.00283229 -0.0124802,-0.00393498 -0.0120897,-0.00500773 -0.0116073,-0.00604236 -0.0110365,-0.007031 -0.0103817,-0.00796614 -0.00964788,-0.00884065 -0.00884065,-0.00964788 -0.00796614,-0.0103817 -0.007031,-0.0110365 -0.00604236,-0.0116073 -0.00500773,-0.0120897 -0.00393498,-0.0124802 -0.00283229,-0.0127756 -0.00170804,-0.0129739 -0.000570795,-0.0130734 0,-4.25089 0.651769,0 -4.44089e-16,3.05 0.00266371,0.061009 0.00797086,0.0605447 0.0132173,0.0596196 0.0183632,0.0582408 0.0233694,0.0564187 0.0281977,0.0541672 0.0328114,0.0515035 0.0371753,0.0484478 0.0412564,0.0450234 0.0450234,0.0412564 0.0484478,0.0371753 0.0515035,0.0328114 0.0541672,0.0281977 0.0564187,0.0233694 0.0582408,0.0183632 0.0596196,0.0132173 0.0605447,0.00797086 0.061009,0.00266371 6.1,0 0.061009,-0.00266371 0.0605447,-0.00797086 0.0596196,-0.0132173 0.0582408,-0.0183632 0.0564187,-0.0233694 0.0541672,-0.0281977 0.0515035,-0.0328114 0.0484478,-0.0371753 0.0450234,-0.0412564 0.0412564,-0.0450234 0.0371753,-0.0484478 0.0328114,-0.0515035 0.0281977,-0.0541672 0.0233694,-0.0564187 0.0183632,-0.0582408 0.0132173,-0.0596196 0.00797086,-0.0605447 0.00266371,-0.061009 0,-3.05 0.651769,0 0,4.25089 z "/>
<path fill="rgb(200,225,100)" stroke="rgb(200,225,100)" d="M 0.751769,4.50089 l -0.651769,0 0,-4.25089 0.000570795,-0.0130734 0.00170804,-0.0129739 0.00283229,-0.0127756 0.00393498,-0.0124802 0.00500773,-0.0120897 0.00604236,-0.0116073 0.007031,-0.0110365 0.00796614,-0.0103817 0.00884065,-0.00964788 0.00964788,-0.00884065 0.0103817,-0.00796614 0.0110365,-0.007031 0.0116073,-0.00604236 0.0120897,-0.00500773 0.0124802,-0.00393498 0.0127756,-0.00283229 0.0129739,-0.00170804 0.0130734,-0.000570795 8.50354,0 0.0130734,0.000570795 0.0129739,0.00170804 0.0127756,0.00283229 0.0124802,0.00393498 0.0120897,0.00500773 0.0116073,0.00604236 0.0110365,0.007031 0.0103817,0.00796614 0.00964788,0.00884065 0.00884065,0.00964788 0.00796614,0.0103817 0.007031,0.0110365 0.00604236,0.0116073 0.00500773,0.0120897 0.00393498,0.0124802 0.00283229,0.0127756 0.00170804,0.0129739 0.000570795,0.0130734 0,4.25089 -0.651769,0 0,-3.05 -0.00266371,-0.061009 -0.00797086,-0.0605447 -0.0132173,-0.0596196 -0.0183632,-0.0582408 -0.0233694,-0.0564187 -0.0281977,-0.0541672 -0.0328114,-0.0515035 -0.0371753,-0.0484478 -0.0412564,-0.0450234 -0.0450234,-0.0412564 -0.0484478,-0.0371753 -0.0515035,-0.0328114 -0.0541672,-0.0281977 -0.0564187,-0.0233694 -0.0582408,-0.0183632 -0.0596196,-0.0132173 -0.0605447,-0.00797086 -0.061009,-0.00266371 -6.1,8.88178e-16 -0.061009,0.00266371 -0.0605447,0.00797086 -0.0596196,0.0132173 -0.0582408,0.0183632 -0.0564187,0.0233694 -0.0541672,0.0281977 -0.0515035,0.0328114 -0.0484478,0.0371753 -0.0450234,0.0412564 -0.0412564,0.0450234 -0.0371753,0.0484478 -0.0328114,0.0515035 -0.0281977,0.0541672 -0.0233694,0.0564187 -0.0183632,0.0582408 -0.0132173,0.0596196 -0.00797086,0.0605447 -0.00266371,0.061009 -4.44089e-16,3.05 z "/>
<path fill="rgb(241,240,234)" stroke="rgb(241,240,234)" d="M 1.15177,4.50089 l -0.2,0 4.44089e-16,-3.05 0.00190265,-0.0435779 0.00569347,-0.0432462 0.00944096,-0.0425854 0.0131166,-0.0416005 0.0166924,-0.0402991 0.0201412,-0.0386909 0.0234367,-0.0367882 0.0265538,-0.0346056 0.0294688,-0.0321596 0.0321596,-0.0294688 0.0346056,-0.0265538 0.0367882,-0.0234367 0.0386909,-0.0201412 0.0402991,-0.0166924 0.0416005,-0.0131166 0.0425854,-0.00944096 0.0432462,-0.00569347 0.0435779,-0.00190265 6.1,0 0.0435779,0.00190265 0.0432462,0.00569347 0.0425854,0.00944096 0.0416005,0.0131166 0.0402991,0.0166924 0.0386909,0.0201412 0.0367882,0.0234367 0.0346056,0.0265538 0.0321596,0.0294688 0.0294688,0.0321596 0.0265538,0.0346056 0.0234367,0.0367882 0.0201412,0.0386909 0.0166924,0.0402991 0.0131166,0.0416005 0.00944096,0.0425854 0.00569347,0.0432462 0.00190265,0.0435779 0,3.05 -0.2,0 0,-3.05 -0.00114159,-0.0261467 -0.00341608,-0.0259477 -0.00566458,-0.0255513 -0.00786996,-0.0249603 -0.0100155,-0.0241794 -0.0120847,-0.0232145 -0.014062,-0.0220729 -0.0159323,-0.0207634 -0.0176813,-0.0192958 -0.0192958,-0.0176813 -0.0207634,-0.0159323 -0.0220729,-0.014062 -0.0232145,-0.0120847 -0.0241794,-0.0100155 -0.0249603,-0.00786996 -0.0255513,-0.00566458 -0.0259477,-0.00341608 -0.0261467,-0.00114159 -6.1,0 -0.0261467,0.00114159 -0.0259477,0.00341608 -0.0255513,0.00566458 -0.0249603,0.00786996 -0.0241794,0.0100155 -0.0232145,0.0120847 -0.0220729,0.014062 -0.0207634,0.0159323 -0.0192958,0.0176813 -0.0176813,0.0192958 -0.0159323,0.0207634 -0.014062,0.0220729 -0.0120847,0.0232145 -0.0100155,0.0241794 -0.00786996,0.0249603 -0.00566458,0.0255513 -0.00341608,0.0259477 -0.00114159,0.0261467 -4.44089e-16,3.05 z "/>
<path fill="rgb(241,240,234)" stroke="rgb(241,240,234)" d="M 1.15177,4.50089 l -4.44089e-16,3.05 0.00114159,0.0261467 0.00341608,0.0259477 0.00566458,0.0255513 0.00786996,0.0249603 0.0100155,0.0241794 0.0120847,0.0232145 0.014062,0.0220729 0.0159323,0.0207634 0.0176813,0.0192958 0.0192958,0.0176813 0.0207634,0.0159323 0.0220729,0.014062 0.0232145,0.0120847 0.0241794,0.0100155 0.0249603,0.00786996 0.0255513,0.00566458 0.0259477,0.00341608 0.0261467,0.00114159 6.1,8.88178e-16 0.0261467,-0.00114159 0.0259477,-0.00341608 0.0255513,-0.00566458 0.0249603,-0.00786996 0.0241794,-0.0100155 0.0232145,-0.0120847 0.0220729,-0.014062 0.0207634,-0.0159323 0.0192958,-0.0176813 0.0176813,-0.0192958 0.0159323,-0.0207634 0.014062,-0.0220729 0.0120847,-0.0232145 0.0100155,-0.0241794 0.00786996,-0.0249603 0.00566458,-0.0255513 0.00341608,-0.0259477 0.00114159,-0.0261467 1.77636e-15,-3.05 0.2,0 0,3.05 -0.00190265,0.0435779 -0.00569347,0.0432462 -0.00944096,0.0425854 -0.0131166,0.0416005 -0.0166924,0.0402991 -0.0201412,0.0386909 -0.0234367,0.0367882 -0.0265538,0.0346056 -0.0294688,0.0321596 -0.0321596,0.0294688 -0.0346056,0.0265538 -0.0367882,0.0234367 -0.0386909,0.0201412 -0.0402991,0.0166924 -0.0416005,0.0131166 -0.0425854,0.00944096 -0.0432462,0.00569347 -0.0435779,0.00190265 -6.1,0 -0.0435779,-0.00190265 -0.0432462,-0.00569347 -0.0425854,-0.00944096 -0.0416005,-0.0131166 -0.0402991,-0.0166924 -0.0386909,-0.0201412 -0.0367882,-0.0234367 -0.0346056,-0.0265538 -0.0321596,-0.0294688 -0.0294688,-0.0321596 -0.0265538,-0.0346056 -0.0234367,-0.0367882 -0.0201412,-0.0386909 -0.0166924,-0.0402991 -0.0131166,-0.0416005 -0.00944096,-0.0425854 -0.00569347,-0.0432462 -0.00190265,-0.0435779 4.44089e-16,-3.05 0.2,0 z "/>
<path fill="rgb(0,91,140)" stroke="rgb(0,91,140)" d="M 1.15177,4.50089 l 6.7,0 -1.77636e-15,3.05 -0.00114159,0.0261467 -0.00341608,0.0259477 -0.00566458,0.0255513 -0.00786996,0.0249603 -0.0100155,0.0241794 -0.0120847,0.0232145 -0.014062,0.0220729 -0.0159323,0.0207634 -0.0176813,0.0192958 -0.0192958,0.0176813 -0.0207634,0.0159323 -0.0220729,0.014062 -0.0232145,0.0120847 -0.0241794,0.0100155 -0.0249603,0.00786996 -0.0255513,0.00566458 -0.0259477,0.00341608 -0.0261467,0.00114159 -6.1,-8.88178e-16 -0.0261467,-0.00114159 -0.0259477,-0.00341608 -0.0255513,-0.00566458 -0.0249603,-0.00786996 -0.0241794,-0.0100155 -0.0232145,-0.0120847 -0.0220729,-0.014062 -0.0207634,-0.0159323 -0.0192958,-0.0176813 -0.0176813,-0.0192958 -0.0159323,-0.0207634 -0.014062,-0.0220729 -0.0120847,-0.0232145 -0.0100155,-0.0241794 -0.00786996,-0.0249603 -0.00566458,-0.0255513 -0.00341608,-0.0259477 -0.00114159,-0.0261467 4.44089e-16,-3.05 z "/>
<path fill="rgb(0,91,140)" stroke="rgb(0,91,140)" d="M 1.15177,4.50089 l 4.44089e-16,-3.05 0.00114159,-0.0261467 0.00341608,-0.0259477 0.00566458,-0.0255513 0.00786996,-0.0249603 0.0100155,-0.0241794 0.0120847,-0.0232145 0.014062,-0.0220729 0.0159323,-0.0207634 0.0176813,-0.0192958 0.0192958,-0.0176813 0.0207634,-0.0159323 0.0220729,-0.014062 0.0232145,-0.0120847 0.0241794,-0.0100155 0.0249603,-0.00786996 0.0255513,-0.00566458 0.0259477,-0.00341608 0.0261467,-0.00114159 6.1,0 0.0261467,0.00114159 0.0259477,0.00341608 0.0255513,0.00566458 0.0249603,0.00786996 0.0241794,0.0100155 0.0232145,0.0120847 0.0220729,0.014062 0.0207634,0.0159323 0.0192958,0.0176813 0.0176813,0.0192958 0.0159323,0.0207634 0.014062,0.0220729 0.0120847,0.0232145 0.0100155,0.0241794 0.00786996,0.0249603 0.00566458,0.0255513 0.00341608,0.0259477 0.00114159,0.0261467 0,3.05 -6.7,0 z "/>
<path fill="rgb(0,91,140)" stroke="rgb(0,91,140)" d="M 0.751769,4.50089 l 4.44089e-16,-3.05 0.00266371,-0.061009 0.00797086,-0.0605447 0.0132173,-0.0596196 0.0183632,-0.0582408 0.0233694,-0.0564187 0.0281977,-0.0541672 0.0328114,-0.0515035 0.0371753,-0.0484478 0.0412564,-0.0450234 0.0450234,-0.0412564 0.0484478,-0.0371753 0.0515035,-0.0328114 0.0541672,-0.0281977 0.0564187,-0.0233694 0.0582408,-0.0183632 0.0596196,-0.0132173 0.0605447,-0.00797086 0.061009,-0.00266371 6.1,-8.88178e-16 0.061009,0.00266371 0.0605447,0.00797086 0.0596196,0.0132173 0.0582408,0.0183632 0.0564187,0.0233694 0.0541672,0.0281977 0.0515035,0.0328114 0.0484478,0.0371753 0.0450234,0.0412564 0.0412564,0.0450234 0.0371753,0.0484478 0.0328114,0.0515035 0.0281977,0.0541672 0.0233694,0.0564187 0.0183632,0.0582408 0.0132173,0.0596196 0.00797086,0.0605447 0.00266371,0.061009 0,3.05 -0.2,0 0,-3.05 -0.00190265,-0.0435779 -0.00569347,-0.0432462 -0.00944096,-0.0425854 -0.0131166,-0.0416005 -0.0166924,-0.0402991 -0.0201412,-0.0386909 -0.0234367,-0.0367882 -0.0265538,-0.0346056 -0.0294688,-0.0321596 -0.0321596,-0.0294688 -0.0346056,-0.0265538 -0.0367882,-0.0234367 -0.0386909,-0.0201412 -0.0402991,-0.0166924 -0.0416005,-0.0131166 -0.0425854,-0.00944096 -0.0432462,-0.00569347 -0.0435779,-0.00190265 -6.1,0 -0.0435779,0.00190265 -0.0432462,0.00569347 -0.0425854,0.00944096 -0.0416005,0.0131166 -0.0402991,0.0166924 -0.0386909,0.0201412 -0.0367882,0.0234367 -0.0346056,0.0265538 -0.0321596,0.0294688 -0.0294688,0.0321596 -0.0265538,0.0346056 -0.0234367,0.0367882 -0.0201412,0.0386909 -0.0166924,0.0402991 -0.0131166,0.0416005 -0.00944096,0.0425854 -0.00569347,0.0432462 -0.00190265,0.0435779 -4.44089e-16,3.05 -0.2,0 z "/>
<path fill="rgb(0,91,140)" stroke="rgb(0,91,140)" d="M 0.751769,4.50089 l 0.2,0 -4.44089e-16,3.05 0.00190265,0.0435779 0.00569347,0.0432462 0.00944096,0.0425854 0.0131166,0.0416005 0.0166924,0.0402991 0.0201412,0.0386909 0.0234367,0.0367882 0.0265538,0.0346056 0.0294688,0.0321596 0.0321596,0.0294688 0.0346056,0.0265538 0.0367882,0.0234367 0.0386909,0.0201412 0.0402991,0.0166924 0.0416005,0.0131166 0.0425854,0.00944096 0.0432462,0.00569347 0.0435779,0.00190265 6.1,0 0.0435779,-0.00190265 0.0432462,-0.00569347 0.0425854,-0.00944096 0.0416005,-0.0131166 0.0402991,-0.0166924 0.0386909,-0.0201412 0.0367882,-0.0234367 0.0346056,-0.0265538 0.0321596,-0.0294688 0.0294688,-0.0321596 0.0265538,-0.0346056 0.0234367,-0.0367882 0.0201412,-0.0386909 0.0166924,-0.0402991 0.0131166,-0.0416005 0.00944096,-0.0425854 0.00569347,-0.0432462 0.00190265,-0.0435779 0,-3.05 0.2,0 0,3.05 -0.00266371,0.061009 -0.00797086,0.0605447 -0.0132173,0.0596196 -0.0183632,0.0582408 -0.0233694,0.0564187 -0.0281977,0.0541672 -0.0328114,0.0515035 -0.0371753,0.0484478 -0.0412564,0.0450234 -0.0450234,0.0412564 -0.0484478,0.0371753 -0.0515035,0.0328114 -0.0541672,0.0281977 -0.0564187,0.0233694 -0.0582408,0.0183632 -0.0596196,0.0132173 -0.0605447,0.00797086 -0.061009,0.00266371 -6.1,0 -0.061009,-0.00266371 -0.0605447,-0.00797086 -0.0596196,-0.0132173 -0.0582408,-0.0183632 -0.0564187,-0.0233694 -0.0541672,-0.0281977 -0.0515035,-0.0328114 -0.0484478,-0.0371753 -0.0450234,-0.0412564 -0.0412564,-0.0450234 -0.0371753,-0.0484478 -0.0328114,-0.0515035 -0.0281977,-0.0541672 -0.0233694,-0.0564187 -0.0183632,-0.0582408 -0.0132173,-0.0596196 -0.00797086,-0.0605447 -0.00266371,-0.061009 4.44089e-16,-3.05 z "/>
<path fill="rgb(241,240,234)" stroke="rgb(241,240,234)" d="M 6.05065,7.27716 l -0.0646165,-0.00113362 -0.117897,-0.00906898 -0.113362,-0.018138 -0.107694,-0.0272069 -0.102026,-0.0362759 -0.0974916,-0.0453449 -0.0918235,-0.0532803 -0.0861553,-0.0634829 -0.0816208,-0.0714182 -0.0759527,-0.0804872 -0.0702846,-0.0906898 -0.0260733,-0.0374096 1.035,-0.0260733 0.0986252,-0.00566811 0.111095,-0.0226725 0.0997588,-0.0385432 0.0918235,-0.0544139 0.0816208,-0.0714182 0.0725519,-0.087289 0.00906898,-0.0147371 0.0498794,-0.0838881 0.0430777,-0.0918235 0.0340087,-0.100892 0.0272069,-0.109961 0.018138,-0.117897 0.0124699,-0.126966 0.00340087,-0.132634 0,-0.0226725 -0.00566811,-0.129233 -0.0136035,-0.122431 -0.0215388,-0.11563 -0.0283406,-0.107694 -0.0362759,-0.100892 -0.0442113,-0.0929571 -0.0521467,-0.0861553 -0.0623493,-0.0816208 -0.0793536,-0.0770864 -0.0895562,-0.0589484 -0.0974916,-0.0430777 -0.106561,-0.0249397 -0.11563,-0.00906898 1.03613,-0.0124699 0.0532803,0.0895562 0.0476122,0.0940907 0.041944,0.0986252 0.0362759,0.102026 0.0317414,0.107694 0.0249397,0.111095 0.0192716,0.11563 0.0147371,0.120164 0.00793536,0.124699 0.00340087,0.128099 0,0.0317414 -0.00453449,0.126966 -0.0102026,0.122431 -0.0158707,0.117897 -0.0226725,0.114496 -0.0272069,0.109961 -0.0340087,0.105427 -0.0396768,0.100892 -0.0453449,0.0963579 -0.051013,0.0929571 -0.0566811,0.087289 -0.0408104,0.0566811 -0.0725519,0.0850217 -0.0770864,0.0759527 -0.0827545,0.0680174 -0.0884226,0.0578148 -0.0940907,0.0498794 -0.0997588,0.0408104 -0.105427,0.0306078 -0.111095,0.0226725 -0.11563,0.0136035 -0.122431,0.00453449 z "/>
<path fill="rgb(241,240,234)" stroke="rgb(241,240,234)" d="M 5.01565,6.74322 l -0.0555475,-0.0884226 -0.0498794,-0.0929571 -0.0430777,-0.0974916 -0.0374096,-0.102026 -0.0328751,-0.106561 -0.0260733,-0.111095 -0.0204052,-0.11563 -0.0136035,-0.120164 -0.00906898,-0.123565 -0.00340087,-0.129233 0.00113362,-0.0589484 0.00566811,-0.126966 0.0113362,-0.122431 0.0158707,-0.117897 0.0226725,-0.113362 0.0283406,-0.108828 0.0340087,-0.105427 0.0396768,-0.0997588 0.0453449,-0.0963579 0.051013,-0.0918235 0.0578148,-0.087289 0.0430777,-0.0589484 0.0725519,-0.0838881 0.0770864,-0.0759527 0.0838881,-0.0680174 0.0895562,-0.0578148 0.0940907,-0.0487458 0.0997588,-0.0408104 0.105427,-0.0306078 0.109961,-0.0226725 0.116763,-0.0136035 0.121298,-0.00453449 0.0884226,0.00226725 0.117897,0.0113362 0.111095,0.0204052 0.106561,0.0283406 0.100892,0.0385432 0.0952243,0.0476122 0.0895562,0.0555475 0.0850217,0.0657501 0.07822,0.0736855 0.0736855,0.0838881 0.0680174,0.0918235 0.0215388,0.0328751 -1.03613,0.0124699 -0.104293,0.00680174 -0.109961,0.0215388 -0.100892,0.0385432 -0.0906898,0.0555475 -0.0816208,0.0702846 -0.0725519,0.087289 -0.018138,0.0283406 -0.0487458,0.0850217 -0.0408104,0.0929571 -0.0340087,0.102026 -0.0260733,0.109961 -0.0192716,0.117897 -0.0113362,0.128099 -0.00340087,0.134901 0.00113362,0.0521467 0.00680174,0.124699 0.0158707,0.117897 0.0238061,0.112229 0.0328751,0.105427 0.0408104,0.0986252 0.0487458,0.0918235 0.0351423,0.0555475 0.0725519,0.0895562 0.0793536,0.0736855 0.0884226,0.0566811 0.0974916,0.0408104 0.105427,0.0249397 0.113362,0.00793536 -1.035,0.0260733 z "/>
<path fill="rgb(241,240,234)" stroke="rgb(241,240,234)" d="M 2.86177,7.27716 l -0.0453449,-0.00113362 -0.11563,-0.00566811 -0.113362,-0.0147371 -0.109961,-0.0215388 -0.106561,-0.0283406 -0.104293,-0.0362759 -0.0997588,-0.0442113 -0.0974916,-0.051013 -0.0929571,-0.0589484 -0.0906898,-0.0657501 -0.087289,-0.0736855 -0.0838881,-0.0804872 0.417173,-0.386565 0.0850217,0.0816208 0.0895562,0.069151 0.0952243,0.0566811 0.0997588,0.0442113 0.104293,0.0317414 0.109961,0.018138 0.114496,0.00680174 1.03386,0.0555475 -0.0578148,0.0918235 -0.0725519,0.0850217 -0.087289,0.0793536 -0.0340087,0.0260733 -0.0884226,0.0589484 -0.0952243,0.0498794 -0.100892,0.0408104 -0.106561,0.0317414 -0.113362,0.0226725 -0.120164,0.0136035 -0.125832,0.00453449 z "/>
<path fill="rgb(241,240,234)" stroke="rgb(241,240,234)" d="M 3.86389,6.7727 l -1.03386,-0.0555475 0.0827545,-0.00340087 0.120164,-0.0158707 0.105427,-0.0294742 0.0906898,-0.0430777 0.0668838,-0.051013 0.0634829,-0.0861553 0.0204052,-0.102026 -0.00226725,-0.0351423 -0.0362759,-0.0997588 -0.0804872,-0.0850217 -0.0759527,-0.0464785 -0.105427,-0.0340087 -0.121298,-0.0113362 -0.128099,0 0,-0.564544 0.150772,0 0.107694,-0.00566811 0.112229,-0.0215388 0.0918235,-0.0374096 0.0158707,-0.00906898 0.087289,-0.0680174 0.0714182,-0.0929571 0.0124699,-0.0215388 0.041944,-0.106561 0.0147371,-0.111095 -0.00340087,-0.0498794 -0.0283406,-0.10316 -0.0589484,-0.0895562 -0.0884226,-0.07822 -0.0283406,-0.018138 -0.0918235,-0.0442113 -0.104293,-0.0317414 -0.116763,-0.0192716 -0.1315,-0.00566811 -1.24245,-0.0249397 0.0793536,-0.0838881 0.0804872,-0.0804872 0.0124699,-0.0113362 0.0850217,-0.0714182 0.0895562,-0.0634829 0.0929571,-0.0555475 0.0974916,-0.0487458 0.102026,-0.0408104 0.105427,-0.0340087 0.111095,-0.0260733 0.113362,-0.0192716 0.11903,-0.0102026 0.122431,-0.00453449 0.0544139,0.00113362 0.121298,0.00793536 0.116763,0.0158707 0.111095,0.0249397 0.106561,0.0328751 0.100892,0.0408104 0.0963579,0.0498794 0.0918235,0.0589484 0.0861553,0.0657501 0.0532803,0.0476122 0.0804872,0.0850217 0.069151,0.0895562 0.0555475,0.0940907 0.0430777,0.0997588 0.0317414,0.10316 0.018138,0.107694 0.00680174,0.113362 -0.00113362,0.0544139 -0.0136035,0.11903 -0.0272069,0.108828 -0.0408104,0.0986252 -0.00680174,0.0124699 -0.0498794,0.0770864 -0.0668838,0.0838881 -0.0850217,0.0918235 -0.10316,0.0974916 0.0623493,0.0850217 0.0680174,0.108828 0.0532803,0.105427 0.0385432,0.100892 0.0226725,0.0974916 0.00680174,0.0940907 -0.00113362,0.0623493 -0.0158707,0.111095 -0.0283406,0.105427 -0.0442113,0.0986252 z "/>
<path fill="rgb(241,240,234)" stroke="rgb(241,240,234)" d="M 2.00815,5.00425 l -0.448915,-0.340087 0.00453449,-0.00566811 0.07822,-0.087289 1.24245,0.0249397 -0.121298,0.00453449 -0.114496,0.0147371 -0.109961,0.0260733 -0.10316,0.0351423 -0.0974916,0.0453449 -0.0918235,0.0555475 -0.0850217,0.0657501 -0.0793536,0.0748191 -0.0736855,0.0861553 z "/>
<path fill="rgb(241,240,234)" stroke="rgb(241,240,234)" d="M 6.54604,3.22559 l -0.268669,-0.0986252 0,-1.42496 0.268669,0 0,0.642764 0,0.00453449 0.0124699,0.0895562 0.0385432,0.0646165 0.0612156,0.0385432 0.0861553,0.0124699 0.434178,0.018138 -0.0362759,0.07822 -0.596286,0.0680174 0,0.506729 z "/>
<path fill="rgb(241,240,234)" stroke="rgb(241,240,234)" d="M 6.79884,2.82316 l -0.0238061,0 -0.0940907,-0.0147371 -0.0759527,-0.0351423 -0.0589484,-0.0544139 0.596286,-0.0680174 -0.0566811,0.0680174 -0.0340087,0.0283406 -0.0736855,0.041944 -0.0838881,0.0260733 -0.0952243,0.00793536 z "/>
<path fill="rgb(241,240,234)" stroke="rgb(241,240,234)" d="M 7.1786,2.57263 l -0.434178,-0.018138 0.0714182,-0.0113362 0.0725519,-0.0476122 0.0408104,-0.0566811 0.018138,-0.0850217 0,-0.651833 0.249397,0 0,0.751592 -0.00113362,0.0317414 -0.0170043,0.087289 z "/>
<path fill="rgb(241,240,234)" stroke="rgb(241,240,234)" d="M 5.96903,3.20179 l -0.959045,-1.80586 -0.268669,0 0.959045,1.80586 0.268669,0 z "/>
<path fill="rgb(241,240,234)" stroke="rgb(241,240,234)" d="M 3.43198,2.82316 l -0.0340087,-0.00113362 -0.0850217,-0.018138 -0.07822,-0.0374096 -0.0714182,-0.0589484 0.553208,-0.0147371 -0.0430777,0.0430777 -0.0725519,0.0487458 -0.0793536,0.0294742 -0.0895562,0.00906898 z "/>
<path fill="rgb(241,240,234)" stroke="rgb(241,240,234)" d="M 4.04867,2.82316 l -0.00566811,0 -0.0816208,-0.00906898 -0.0816208,-0.0249397 -0.0816208,-0.0396768 -0.0816208,-0.0566811 0.673372,-0.0430777 -0.0578148,0.069151 -0.0317414,0.0272069 -0.0736855,0.0430777 -0.0838881,0.0260733 -0.0940907,0.00793536 z "/>
<path fill="rgb(241,240,234)" stroke="rgb(241,240,234)" d="M 3.16331,2.79708 l -0.268669,0 0,-1.09508 0.268669,0 0,0.657501 0.00906898,0.0646165 0.0408104,0.0759527 0.0430777,0.0340087 0.0861553,0.0204052 1.08488,0.018138 -0.0374096,0.0770864 -0.673372,0.0430777 -0.553208,0.0147371 0,0.0895562 z "/>
<path fill="rgb(241,240,234)" stroke="rgb(241,240,234)" d="M 4.4273,2.57263 l -1.08488,-0.018138 0.647299,0 0.0680174,-0.00906898 0.069151,-0.0453449 0.0340087,-0.0555475 0.0158707,-0.0906898 0,-0.651833 0.268669,0 0,0.751592 -0.00113362,0.0328751 -0.0170043,0.0861553 z "/>
<path fill="rgb(241,240,234)" stroke="rgb(241,240,234)" d="M 3.34242,2.55449 l 0.0668838,-0.0102026 0.0748191,-0.0464785 0.0396768,-0.0555475 0.018138,-0.0884226 0,-0.651833 0.257332,0 0,0.662036 0.00906898,0.0589484 0.0476122,0.0748191 0.0487458,0.0362759 0.0850217,0.0204052 -0.647299,0 z "/>
<path fill="rgb(241,240,234)" stroke="rgb(241,240,234)" d="M 2.09657,3.22559 l -0.268669,-0.0986252 0,-1.42496 0.268669,0 0,0.318548 0.149638,0.204052 -0.149638,0.194983 0,0.806006 z "/>
<path fill="rgb(241,240,234)" stroke="rgb(241,240,234)" d="M 2.7178,2.79028 l -0.332152,0 -0.289074,-0.370695 0.149638,-0.194983 0.213121,-0.5226 0.269802,0 -0.30041,0.741389 0.289074,0.346889 z "/>
<path fill="rgb(42,41,42)" stroke="rgb(42,41,42)" d="M 8.90354,4.50089 l 0.1,0 0,-4.25089 -0.000951325,-0.0217889 -0.00284674,-0.0216231 -0.00472048,-0.0212927 -0.0065583,-0.0208003 -0.00834621,-0.0201495 -0.0100706,-0.0193454 -0.0117183,-0.0183941 -0.0132769,-0.0173028 -0.0147344,-0.0160798 -0.0160798,-0.0147344 -0.0173028,-0.0132769 -0.0183941,-0.0117183 -0.0193454,-0.0100706 -0.0201495,-0.00834621 -0.0208003,-0.0065583 -0.0212927,-0.00472048 -0.0216231,-0.00284674 -0.0217889,-0.000951325 -8.50354,0 -0.0217889,0.000951325 -0.0216231,0.00284674 -0.0212927,0.00472048 -0.0208003,0.0065583 -0.0201495,0.00834621 -0.0193454,0.0100706 -0.0183941,0.0117183 -0.0173028,0.0132769 -0.0160798,0.0147344 -0.0147344,0.0160798 -0.0132769,0.0173028 -0.0117183,0.0183941 -0.0100706,0.0193454 -0.00834621,0.0201495 -0.0065583,0.0208003 -0.00472048,0.0212927 -0.00284674,0.0216231 -0.000951325,0.0217889 0,4.25089 0.1,0 0,-4.25089 0.000570795,-0.0130734 0.00170804,-0.0129739 0.00283229,-0.0127756 0.00393498,-0.0124802 0.00500773,-0.0120897 0.00604236,-0.0116073 0.007031,-0.0110365 0.00796614,-0.0103817 0.00884065,-0.00964788 0.00964788,-0.00884065 0.0103817,-0.00796614 0.0110365,-0.007031 0.0116073,-0.00604236 0.0120897,-0.00500773 0.0124802,-0.00393498 0.0127756,-0.00283229 0.0129739,-0.00170804 0.0130734,-0.000570795 8.50354,0 0.0130734,0.000570795 0.0129739,0.00170804 0.0127756,0.00283229 0.0124802,0.00393498 0.0120897,0.00500773 0.0116073,0.00604236 0.0110365,0.007031 0.0103817,0.00796614 0.00964788,0.00884065 0.00884065,0.00964788 0.00796614,0.0103817 0.007031,0.0110365 0.00604236,0.0116073 0.00500773,0.0120897 0.00393498,0.0124802 0.00283229,0.0127756 0.00170804,0.0129739 0.000570795,0.0130734 0,4.25089 z "/>
<path fill="rgb(42,41,42)" stroke="rgb(42,41,42)" d="M 8.90354,8.75178 l 0,-4.25089 0.1,0 0,4.25089 -0.000951325,0.0217889 -0.00284674,0.0216231 -0.00472048,0.0212927 -0.0065583,0.0208003 -0.00834621,0.0201495 -0.0100706,0.0193454 -0.0117183,0.0183941 -0.0132769,0.0173028 -0.0147344,0.0160798 -0.0160798,0.0147344 -0.0173028,0.0132769 -0.0183941,0.0117183 -0.0193454,0.0100706 -0.0201495,0.00834621 -0.0208003,0.0065583 -0.0212927,0.00472048 -0.0216231,0.00284674 -0.0217889,0.000951325 -8.50354,0 -0.0217889,-0.000951325 -0.0216231,-0.00284674 -0.0212927,-0.00472048 -0.0208003,-0.0065583 -0.0201495,-0.00834621 -0.0193454,-0.0100706 -0.0183941,-0.0117183 -0.0173028,-0.0132769 -0.0160798,-0.0147344 -0.0147344,-0.0160798 -0.0132769,-0.0173028 -0.0117183,-0.0183941 -0.0100706,-0.0193454 -0.00834621,-0.0201495 -0.0065583,-0.0208003 -0.00472048,-0.0212927 -0.00284674,-0.0216231 -0.000951325,-0.0217889 0,-4.25089 0.1,0 0,4.25089 0.000570795,0.0130734 0.00170804,0.0129739 0.00283229,0.0127756 0.00393498,0.0124802 0.00500773,0.0120897 0.00604236,0.0116073 0.007031,0.0110365 0.00796614,0.0103817 0.00884065,0.00964788 0.00964788,0.00884065 0.0103817,0.00796614 0.0110365,0.007031 0.0116073,0.00604236 0.0120897,0.00500773 0.0124802,0.00393498 0.0127756,0.00283229 0.0129739,0.00170804 0.0130734,0.000570795 8.50354,0 0.0130734,-0.000570795 0.0129739,-0.00170804 0.0127756,-0.00283229 0.0124802,-0.00393498 0.0120897,-0.00500773 0.0116073,-0.00604236 0.0110365,-0.007031 0.0103817,-0.00796614 0.00964788,-0.00884065 0.00884065,-0.00964788 0.00796614,-0.0103817 0.007031,-0.0110365 0.00604236,-0.0116073 0.00500773,-0.0120897 0.00393498,-0.0124802 0.00283229,-0.0127756 0.00170804,-0.0129739 0.000570795,-0.0130734 z "/>
</g></g></svg>
