<?xml version="1.0" encoding="UTF-8" standalone="no"?>
<!DOCTYPE svg PUBLIC "-//W3C//DTD SVG 1.1//EN" "http://www.w3.org/Graphics/SVG/1.1/DTD/svg11-flat.dtd"
[

]>
<svg xmlns="http://www.w3.org/2000/svg"  viewBox="-0.09375 -0.09375 7.6875 7.6875"><g fill="none" stroke="black" stroke-width="0.0125" transform="translate(0,7.5) scale(1, -1)">
<g id="Output" >
<path fill="rgb(241,240,234)" stroke="rgb(241,240,234)" d="M 5.00014,4.46287 l -0.0918573,-0.0100157 -0.090576,-0.0182775 -0.0885532,-0.0263897 -0.0858054,-0.0342859 -0.0823551,-0.0419014 -0.0782305,-0.0491738 -8.88178e-15,-6.21725e-15 -0.00593771,-0.00452916 -0.00630525,-0.00400169 -0.00662606,-0.00344456 -0.00689777,-0.0028619 -0.00711835,-0.00225803 -0.00728618,-0.00163743 -0.00740002,-0.00100469 -0.00745901,-0.000364504 -0.00746272,0.000278381 -0.00741112,0.000919203 -0.0073046,0.00155321 -0.00714394,0.00217571 -0.00693034,0.00278209 -0.00666538,0.00336784 -0.00635102,0.00392864 -0.00598959,0.00446032 -0.00558377,0.00495894 -0.00513657,0.00542082 -0.0046513,0.00584252 -0.00413156,0.00622092 -0.00358121,0.00655321 -0.155481,0.332088 -0.00198428,0.00376889 -0.00180604,0.00385747 -0.00162386,0.00393763 -0.559424,-0.255161 0.00465435,-0.00837614 0.00389196,-0.00875644 0.0030988,-0.00906753 0.00228115,-0.00930694 0.00144546,-0.00947277 0.00059834,-0.00956372 -0.000253506,-0.00957906 -0.00110335,-0.00951868 -0.00194447,-0.00938306 -0.00277022,-0.00917325 -0.00357406,-0.00889094 -0.195853,-0.423327 0.113737,-0.176931 0.00867898,-0.0122397 0.00975478,-0.0114008 0.0107499,-0.0104677 0.0116562,-0.00944805 0.0124662,-0.00835032 0.0131731,-0.00718355 0.0137711,-0.00595741 0.0142553,-0.00468201 0.0146216,-0.00336792 0.0148671,-0.00202598 0.0149896,-0.000667299 1.82077e-14,0 0.593934,0 0.0141469,0.0675314 0.0200901,0.0660077 0.0258745,0.063962 0.0314543,0.0614105 0.0367854,0.0583735 0.0418255,0.0548749 0.046535,0.0509423 0.0508765,0.046607 0.0548157,0.0419031 0.0583214,0.0368678 0.061366,0.0315411 0.0639253,0.0259649 0.0659792,0.0201834 0.0675113,0.0142424 0.0685096,0.00818866 0.0689662,0.00207021 0.0688775,-0.0040646 0.0682441,-0.0101673 0.067071,-0.0161896 0.0653677,-0.0220838 0.0631474,-0.0278035 0.0604278,-0.0333032 0.163057,0.303272 -0.619231,0 z "/>
<path fill="rgb(241,240,234)" stroke="rgb(241,240,234)" d="M 6.4,3.75 l -0.00922455,0.220919 -0.0276094,0.219381 -0.0458021,0.216315 -0.0636759,0.211744 -0.634315,-0.15549 -0.163057,-0.303272 0.0549797,-0.0368802 0.0516357,-0.0414328 0.0479158,-0.0456836 0.0438471,-0.0496019 0.0394592,-0.0531591 0.034784,-0.0563293 0.0298556,-0.0590895 0.0247098,-0.0614194 0.0193842,-0.0633022 0.0139174,-0.0647242 0.00834936,-0.065675 0.0027205,-0.0661477 -0.00313325,-0.0685344 -0.00916017,-0.0679917 -0.0151158,-0.0669201 -0.0209539,-0.0653278 -0.0266289,-0.0632272 -0.0320968,-0.0606348 -0.0373149,-0.0575706 -0.0422428,-0.0540586 -0.046842,-0.0501259 -0.0510768,-0.0458033 -0.0549142,-0.0411244 -0.0583243,-0.0361255 -0.0612808,-0.0308456 -0.0637604,-0.0253256 -0.0657441,-0.0196087 -0.0672162,-0.0137392 -0.0681654,-0.0077628 -0.0685843,-0.00172601 -0.0684696,0.0043242 -0.0678222,0.0103408 -0.0666472,0.0162769 -0.0649536,0.0220864 -0.0627547,0.027724 -0.0600677,0.033146 -0.0569132,0.0383101 -0.053316,0.0431762 -0.0493041,0.0477063 -0.0449085,0.0518653 -0.0401635,0.0556208 -0.0351061,0.0589435 -0.0297756,0.0618077 -0.0242134,0.0641911 -0.0184628,0.066075 -0.0125686,0.0674449 -0.701347,0 -0.0169577,0.000717102 -0.0168366,0.00214618 -0.0165953,0.00355994 -0.0162355,0.00494828 -0.0157598,0.00630129 -0.0151716,0.00760931 -0.014475,0.00886299 -0.0136751,0.0100534 -0.0127775,0.011172 -0.0117887,0.0122109 -0.0107157,0.0131625 -0.00956621,0.0140202 -4.88498e-15,8.43769e-15 -0.638153,1.04251 -0.157957,-0.366459 0.0549808,-0.0393239 0.0513678,-0.0439387 0.0473687,-0.0482231 0.0430134,-0.052145 0.0383348,-0.0556749 0.0333681,-0.0587863 0.0281505,-0.0614557 0.0227212,-0.0636632 0.0171212,-0.0653921 0.0113924,-0.0666293 0.00557802,-0.0673657 -0.000278304,-0.0675957 -0.00613254,-0.0673175 -0.0119407,-0.0665333 -0.017659,-0.0652489 -0.0232447,-0.063474 -0.0286555,-0.0612219 -0.033851,-0.0585095 -0.038792,-0.0553574 -0.0434413,-0.0517891 -0.0477641,-0.0478314 -0.0517279,-0.0435142 -0.0553027,-0.0388699 -0.0584618,-0.0339333 -0.0611815,-0.0287417 -0.0634412,-0.023334 -0.0652239,-0.0177509 -0.0665164,-0.0120343 -0.0673088,-0.0062273 -0.0675952,-0.000373459 -0.0673735,0.00548319 -0.0666453,0.0112986 -0.0654161,0.0170291 -0.0636951,0.0226316 -0.0614953,0.0280639 -0.0598931,0.0315609 -0.0568317,0.036789 -0.0533153,0.0417224 -0.0493718,0.0463217 -0.045033,0.0505501 -0.0403335,0.0543736 -0.035311,0.0577617 -0.0300058,0.0606872 -0.276828,-0.108089 0.0680541,-0.221573 0.0871557,-0.214779 0.10559,-0.206341 0.123217,-0.196325 0.139902,-0.184807 0.155516,-0.171875 0.16994,-0.157628 0.183064,-0.142175 0.194787,-0.125634 0.20502,-0.108132 0.213685,-0.0898031 0.220715,-0.070787 0.226056,-0.0512293 0.229668,-0.0312797 0.231523,-0.0110908 0.231607,0.00918301 0.229918,0.0293865 0.226471,0.0493652 0.221291,0.0689663 0.214418,0.0880397 0.205904,0.10644 0.195816,0.124025 0.184229,0.140662 0.171233,0.156222 0.156926,0.170588 0.141419,0.183648 0.124831,0.195303 0.107287,0.205464 0.0889221,0.214053 0.0698772,0.221005 0.0502977,0.226266 0.0303334,0.229795 0.010137,0.231567 z "/>
<path fill="rgb(241,240,234)" stroke="rgb(241,240,234)" d="M 1.1,3.75 l 0.00951101,-0.224316 0.0284647,-0.222706 0.0472142,-0.219498 0.276828,0.108089 -0.0237855,0.061133 -0.0184003,0.0629637 -0.0128767,0.064321 -0.00725626,0.0651946 -0.00158128,0.0655781 0.00410559,0.0654686 0.00976159,0.0648668 0.0153442,0.0637773 0.0208114,0.0622083 0.0261222,0.0601716 0.0312366,0.0576825 0.0361161,0.0547597 0.040724,0.0514252 0.0450258,0.047704 0.0489891,0.0436241 0.052584,0.0392163 0.0557835,0.0345136 0.0585637,0.0295514 0.0609035,0.0243671 -0.0821151,0.176931 0.0814608,0.0295063 0.0836744,0.022474 0.0852821,0.0152789 0.0862723,0.00797319 0.0866378,0.000609758 0,-0.18958 0.145308,-0.0252464 0.442275,0.991963 0.0102354,0.020462 0.0120103,0.0194733 0.0136905,0.0183311 0.0152628,0.0170443 0.0167146,0.0156231 0.0180347,0.0140786 0.0192126,0.0124232 0.0202389,0.0106698 0.0211057,0.00883226 0.021806,0.00692507 0.0223344,0.00496328 0.0226866,0.00296234 0.02286,0.000938045 0.0228531,-0.00109365 0.309616,0 0,-0.240098 -0.246423,0 -0.0141339,-0.000622621 -0.0140244,-0.00186304 -0.0138062,-0.00308902 -0.0134811,-0.00429108 -0.0130516,-0.00545989 -0.0125209,-0.0065864 -0.0118933,-0.00766188 -0.0111735,-0.00867801 -0.0103671,-0.00962691 -0.00948041,-0.0105012 -0.00852029,-0.0112942 -0.00749415,-0.0119996 -0.00640996,-0.0126121 -0.00527611,-0.0131269 -0.113737,-0.26537 0.4486,0 0.00931731,-0.000423749 0.00924038,-0.00126775 0.00908716,-0.00210128 0.00885891,-0.00291746 0.00855751,-0.00370956 0.00818546,-0.00447102 0.00774583,-0.00519557 0.00724224,-0.00587723 0.00667886,-0.00651036 0.00606033,-0.00708973 0.00539176,-0.00761057 0.204251,-0.331908 0.559424,0.255161 -0.00255405,0.00761212 -0.00187425,0.00780735 -0.00117991,0.00794199 -0.000476408,0.00801502 0.000230787,0.00802585 0.000936191,0.0079744 0.00163433,0.00786107 0.00231979,0.00768674 0.00298724,0.00745277 0.00363152,0.00716097 0.00424762,0.0068136 0.00483076,0.00641336 0.00537641,0.00596336 0.00588035,0.00546708 0.00633865,0.00492838 0.00674777,0.00435144 0.00710453,0.00374073 0.00740616,0.003101 0.00765033,0.0024372 0.00783513,0.00175449 0.00795913,0.00105817 0.00802137,0.000353639 1.34582,0 0,-0.315889 0.634315,0.15549 -0.0857251,0.216056 -0.104328,0.207713 -0.122129,0.197772 -0.138989,0.186309 -0.154781,0.173413 -0.169382,0.159182 -0.182679,0.143727 -0.194571,0.127166 -0.204966,0.109627 -0.213784,0.091244 -0.220957,0.0721592 -0.226431,0.0525193 -0.230162,0.0324753 -0.232122,0.0121814 -0.232297,-0.00820622 -0.230684,-0.0285307 -0.227296,-0.0486356 -0.22216,-0.0683664 -0.215315,-0.0875712 -0.206813,-0.106102 -0.196719,-0.123817 -0.185113,-0.140579 -0.172082,-0.15626 -0.157727,-0.170738 -0.142158,-0.183903 -0.125496,-0.195652 -0.107868,-0.205897 -0.0894109,-0.214557 -0.0702654,-0.221567 -0.0505793,-0.226872 -0.0305041,-0.230431 -0.0101942,-0.232218 z "/>
<path fill="rgb(241,240,234)" stroke="rgb(241,240,234)" d="M 1.98371,3.00971 l 0.0438958,-0.0152662 0.0450486,-0.0114247 0.0458659,-0.007498 0.0463415,-0.00351549 0.0464721,0.000493198 0.0462565,0.00449821 0.0456964,0.00846973 0.044796,0.0123782 0.0435619,0.0161944 0.0420034,0.01989 0.040132,0.0234375 0.0379618,0.0268104 0.0355088,0.0299837 0.0327913,0.0329336 0.0298297,0.0356383 0.0266458,0.0380775 0.0232635,0.0402331 0.019708,0.0420891 0.0160056,0.0436316 0.0121841,0.0448491 0.00827179,0.0457326 0.00429789,0.0462755 0.000291976,0.0464738 -0.00371611,0.0463259 -0.00769652,0.045833 -0.0116196,0.0449987 -0.0154562,0.0438293 -0.0191776,0.0423334 -0.0227562,0.0405222 -0.0261653,0.0384093 -0.0293795,0.0360103 -0.032375,0.033343 -0.0351292,0.0304275 -0.23522,-0.510806 -0.00466561,-0.00906836 -0.00543821,-0.00862721 -0.00616943,-0.00812041 -0.00685369,-0.00755181 -0.0074858,-0.00692573 -0.00806093,-0.00624695 -0.00857471,-0.00552062 -0.00902324,-0.00475228 -0.00940309,-0.00394777 -0.00971138,-0.00311321 -0.00994576,-0.00225496 -0.0101044,-0.00137955 -0.0101862,-0.000493643 -0.0101905,0.000396024 -0.0101172,0.00128268 -0.00996691,0.00215957 -0.00974076,0.00302002 -0.00944048,0.00385749 -0.00906836,0.00466561 -0.00862721,0.00543821 -0.00812041,0.00616943 -0.00755181,0.00685369 -0.00692573,0.0074858 -0.00624695,0.00806093 -0.00552062,0.00857471 -0.00475228,0.00902324 -0.00394777,0.00940309 -0.00311321,0.00971138 -0.00225496,0.00994576 -0.00137955,0.0101044 -0.000493643,0.0101862 0.000396024,0.0101905 0.00128268,0.0101172 0.00215957,0.00996691 0.00302002,0.00974076 0.00385749,0.00944048 0.23522,0.510806 -0.046395,0.00881414 -0.0469906,0.00469768 -0.0472217,0.000544768 -0.0470864,-0.00361237 -0.046586,-0.00774148 -0.0457241,-0.0118105 -0.0445075,-0.015788 -0.0429457,-0.0196429 -0.0410508,-0.0233455 -0.0388374,-0.026867 -0.0363227,-0.0301801 -0.0335263,-0.0332591 -0.0304698,-0.0360801 -0.027177,-0.0386212 -0.0236733,-0.0408627 -0.019986,-0.0427872 -0.0161436,-0.0443798 -0.012176,-0.0456281 -0.00811401,-0.0465225 -0.00398903,-0.047056 0.000166884,-0.0472245 0.00432151,-0.0470267 0.00844261,-0.046464 0.0124982,-0.0455409 0.0164569,-0.0442646 0.0202879,-0.0426449 0.0239615,-0.0406943 0.0274492,-0.0384281 0.0307241,-0.0358638 0.0337605,-0.0330213 0.0365351,-0.0299227 0.0390263,-0.0265919 0.0412148,-0.0230548 0.0430835,-0.0193389 z "/>
<path fill="rgb(241,240,234)" stroke="rgb(241,240,234)" d="M 2.06949,3.51911 l -0.00385749,-0.00944048 -0.00302002,-0.00974076 -0.00215957,-0.00996691 -0.00128268,-0.0101172 -0.000396024,-0.0101905 0.000493643,-0.0101862 0.00137955,-0.0101044 0.00225496,-0.00994576 0.00311321,-0.00971138 0.00394777,-0.00940309 0.00475228,-0.00902324 0.00552062,-0.00857471 0.00624695,-0.00806093 0.00692573,-0.0074858 0.00755181,-0.00685369 0.00812041,-0.00616943 0.00862721,-0.00543821 0.00906836,-0.00466561 0.00944048,-0.00385749 0.00974076,-0.00302002 0.00996691,-0.00215957 0.0101172,-0.00128268 0.0101905,-0.000396024 0.0101862,0.000493643 0.0101044,0.00137955 0.00994576,0.00225496 0.00971138,0.00311321 0.00940309,0.00394777 0.00902324,0.00475228 0.00857471,0.00552062 0.00806093,0.00624695 0.0074858,0.00692573 0.00685369,0.00755181 0.00616943,0.00812041 0.00543821,0.00862721 0.00466561,0.00906836 -0.00466561,-0.00906835 -0.00543821,-0.00862721 -0.00616943,-0.00812041 -0.00685369,-0.00755181 -0.0074858,-0.00692573 -0.00806093,-0.00624695 -0.00857471,-0.00552062 -0.00902324,-0.00475228 -0.00940309,-0.00394777 -0.00971138,-0.00311321 -0.00994576,-0.00225496 -0.0101044,-0.00137955 -0.0101862,-0.000493643 -0.0101905,0.000396024 -0.0101172,0.00128268 -0.00996691,0.00215957 -0.00974076,0.00302002 -0.00944048,0.00385749 -0.00906835,0.00466561 -0.00862721,0.00543821 -0.00812041,0.00616943 -0.00755181,0.00685369 -0.00692573,0.0074858 -0.00624695,0.00806093 -0.00552062,0.00857471 -0.00475228,0.00902324 -0.00394777,0.00940309 -0.00311321,0.00971138 -0.00225496,0.00994576 -0.00137955,0.0101044 -0.000493643,0.0101862 0.000396024,0.0101905 0.00128268,0.0101172 0.00215957,0.00996691 0.00302002,0.00974076 0.00385749,0.00944048 z "/>
<path fill="rgb(241,240,234)" stroke="rgb(241,240,234)" d="M 4.52627,3.62254 l 0.562363,0 0.0101885,-0.000444839 0.0101109,-0.00133113 0.00995645,-0.00220729 0.00972618,-0.00306665 0.00942189,-0.00390268 0.0090459,-0.004709 0.00860106,-0.00547948 0.00809076,-0.00620826 0.00751889,-0.00688979 0.00688979,-0.00751889 0.00620826,-0.00809076 0.00547948,-0.00860106 0.004709,-0.0090459 0.00390268,-0.00942189 0.00306665,-0.00972618 0.00220729,-0.00995645 0.00133113,-0.0101109 0.000444839,-0.0101885 -0.000444839,-0.0101885 -0.00133113,-0.0101109 -0.00220729,-0.00995645 -0.00306665,-0.00972618 -0.00390268,-0.00942189 -0.004709,-0.0090459 -0.00547948,-0.00860106 -0.00620826,-0.00809076 -0.00688979,-0.00751889 -0.00751889,-0.00688979 -0.00809076,-0.00620826 -0.00860106,-0.00547948 -0.0090459,-0.004709 -0.00942189,-0.00390268 -0.00972618,-0.00306665 -0.00995645,-0.00220729 -0.0101109,-0.00133113 -0.0101885,-0.000444839 -0.562363,0 0.0113996,-0.0458283 0.0153878,-0.0446475 0.0192567,-0.0431203 0.0229761,-0.0412587 0.0265173,-0.039077 0.0298529,-0.0365922 0.0329568,-0.0338235 0.0358051,-0.0307925 0.0383757,-0.0275226 0.0406485,-0.0240391 0.042606,-0.0203692 0.0442331,-0.0165413 0.045517,-0.0125851 0.0464478,-0.00853129 0.0470183,-0.00441128 0.0472241,-0.000257036 0.0470635,0.0038992 0.0465379,0.00802518 0.0456513,0.0120889 0.0444105,0.0160589 0.0428253,0.0199043 0.0409078,0.0235952 0.038673,0.0271032 0.0361382,0.0304009 0.033323,0.0334628 0.0302494,0.0362651 0.0269411,0.038786 0.0234239,0.0410061 0.0197249,0.0429082 0.0158729,0.0444773 0.0118978,0.0457015 0.0078304,0.0465711 0.00370225,0.0470795 -0.00045462,0.0472226 -0.0044937,0.0462569 -0.00846527,0.0456972 -0.0123738,0.0447972 -0.0161902,0.0435635 -0.0198859,0.0420053 -0.0234336,0.0401343 -0.0268067,0.0379644 -0.0299802,0.0355117 -0.0329304,0.0327946 -0.0356354,0.0298331 -0.0380749,0.0266495 -0.0402309,0.0232675 -0.0420872,0.0197121 -0.04363,0.0160099 -0.0448479,0.0121885 -0.0457318,0.00827625 -0.0462751,0.00430241 -0.0464737,0.000296513 -0.0463262,-0.00371159 -0.0458337,-0.00769205 -0.0449998,-0.0116152 -0.0438308,-0.0154519 -0.0423353,-0.0191734 -0.0405245,-0.0227522 -0.0384118,-0.0261615 -0.0360131,-0.029376 -0.0333462,-0.0323717 -0.0304309,-0.0351263 -0.027289,-0.0376192 -0.0239438,-0.039832 -0.0204203,-0.0417481 -0.0167447,-0.0433533 -0.0129444,-0.0446356 z "/>
<path fill="rgb(241,240,234)" stroke="rgb(241,240,234)" d="M 0.2,3.75 l 0.0135088,-0.309403 0.0404237,-0.307048 0.0670308,-0.302357 0.0931279,-0.295364 0.118516,-0.286123 0.143002,-0.274705 0.1664,-0.261196 0.188532,-0.2457 0.209229,-0.228333 0.228333,-0.209229 0.2457,-0.188532 0.261196,-0.1664 0.274705,-0.143002 0.286123,-0.118516 0.295364,-0.0931279 0.302357,-0.0670308 0.307048,-0.0404237 0.309403,-0.0135088 0.309403,0.0135088 0.307048,0.0404237 0.302357,0.0670308 0.295364,0.0931279 0.286123,0.118516 0.274705,0.143002 0.261196,0.1664 0.2457,0.188532 0.228333,0.209229 0.209229,0.228333 0.188532,0.2457 0.1664,0.261196 0.143002,0.274705 0.118516,0.286123 0.0931279,0.295364 0.0670308,0.302357 0.0404237,0.307048 0.0135088,0.309403 -0.2,0 -0.0127478,-0.291972 -0.0381463,-0.28975 -0.0632545,-0.285322 -0.0878812,-0.278724 -0.111839,-0.270004 -0.134946,-0.259229 -0.157026,-0.246481 -0.17791,-0.231857 -0.197441,-0.215469 -0.215469,-0.197441 -0.231857,-0.17791 -0.246481,-0.157026 -0.259229,-0.134946 -0.270004,-0.111839 -0.278724,-0.0878812 -0.285322,-0.0632545 -0.28975,-0.0381463 -0.291972,-0.0127478 -0.291972,0.0127478 -0.28975,0.0381463 -0.285322,0.0632545 -0.278724,0.0878812 -0.270004,0.111839 -0.259229,0.134946 -0.246481,0.157026 -0.231857,0.17791 -0.215469,0.197441 -0.197441,0.215469 -0.17791,0.231857 -0.157026,0.246481 -0.134946,0.259229 -0.111839,0.270004 -0.0878812,0.278724 -0.0632545,0.285322 -0.0381463,0.28975 -0.0127478,0.291972 -0.2,0 z "/>
<path fill="rgb(241,240,234)" stroke="rgb(241,240,234)" d="M 0.2,3.75 l 0.2,0 0.0127478,0.291972 0.0381463,0.28975 0.0632545,0.285322 0.0878812,0.278724 0.111839,0.270004 0.134946,0.259229 0.157026,0.246481 0.17791,0.231857 0.197441,0.215469 0.215469,0.197441 0.231857,0.17791 0.246481,0.157026 0.259229,0.134946 0.270004,0.111839 0.278724,0.0878812 0.285322,0.0632545 0.28975,0.0381463 0.291972,0.0127478 0.291972,-0.0127478 0.28975,-0.0381463 0.285322,-0.0632545 0.278724,-0.0878812 0.270004,-0.111839 0.259229,-0.134946 0.246481,-0.157026 0.231857,-0.17791 0.215469,-0.197441 0.197441,-0.215469 0.17791,-0.231857 0.157026,-0.246481 0.134946,-0.259229 0.111839,-0.270004 0.0878812,-0.278724 0.0632545,-0.285322 0.0381463,-0.28975 0.0127478,-0.291972 0.2,0 -0.0135088,0.309403 -0.0404237,0.307048 -0.0670308,0.302357 -0.0931279,0.295364 -0.118516,0.286123 -0.143002,0.274705 -0.1664,0.261196 -0.188532,0.2457 -0.209229,0.228333 -0.228333,0.209229 -0.2457,0.188532 -0.261196,0.1664 -0.274705,0.143002 -0.286123,0.118516 -0.295364,0.0931279 -0.302357,0.0670308 -0.307048,0.0404237 -0.309403,0.0135088 -0.309403,-0.0135088 -0.307048,-0.0404237 -0.302357,-0.0670308 -0.295364,-0.0931279 -0.286123,-0.118516 -0.274705,-0.143002 -0.261196,-0.1664 -0.2457,-0.188532 -0.228333,-0.209229 -0.209229,-0.228333 -0.188532,-0.2457 -0.1664,-0.261196 -0.143002,-0.274705 -0.118516,-0.286123 -0.0931279,-0.295364 -0.0670308,-0.302357 -0.0404237,-0.307048 -0.0135088,-0.309403 z "/>
<path fill="rgb(42,41,42)" stroke="rgb(42,41,42)" d="M 4.39798,3.07367 l 0,0.64589 -0.0886582,0 -0.00897568,-0.0294903 -0.0141469,-0.0675314 -0.593934,0 -1.82077e-14,0 -0.0149896,0.000667299 -0.0148671,0.00202598 -0.0146216,0.00336792 -0.0142553,0.00468201 -0.0137711,0.00595741 -0.0131731,0.00718355 -0.0124662,0.00835032 -0.0116562,0.00944805 -0.0107499,0.0104677 -0.00975478,0.0114008 -0.00867898,0.0122397 -0.0136481,0.021231 -0.141654,0 0,-0.219731 0.00999338,-0.0163255 4.88498e-15,-8.43769e-15 0.00956621,-0.0140202 0.0107157,-0.0131625 0.0117887,-0.0122109 0.0127775,-0.011172 0.0136751,-0.0100534 0.014475,-0.00886299 0.0151716,-0.00760931 0.0157598,-0.00630129 0.0162355,-0.00494828 0.0165953,-0.00355994 0.0168366,-0.00214618 0.0169577,-0.000717102 0.701347,0 0.0125686,-0.0674449 0.0184628,-0.066075 0.0242134,-0.0641911 0.0297756,-0.0618077 0.0330849,-0.0555499 z "/>
<path fill="rgb(42,41,42)" stroke="rgb(42,41,42)" d="M 2.60094,4.71956 l 0.797038,0 0,0.040096 -0.00627752,0.00421069 -0.00818546,0.00447102 -0.00855751,0.00370956 -0.00885891,0.00291746 -0.00908716,0.00210128 -0.00924038,0.00126775 -0.00931731,0.000423749 -0.4486,0 0.113737,0.26537 0.00527611,0.0131269 0.00640996,0.0126121 0.00749415,0.0119996 0.00852029,0.0112942 0.00948041,0.0105012 0.0103671,0.00962691 0.0111735,0.00867801 0.0118933,0.00766188 0.0125209,0.0065864 0.0130516,0.00545989 0.0134811,0.00429108 0.0138062,0.00308902 0.0140244,0.00186304 0.0141339,0.000622621 0.242754,0 0,0.240098 -0.305947,0 -0.0228531,0.00109365 -0.02286,-0.000938045 -0.0226866,-0.00296234 -0.0223344,-0.00496328 -0.021806,-0.00692507 -0.0211057,-0.00883226 -0.0202389,-0.0106698 -0.0192126,-0.0124232 -0.0180347,-0.0140786 -0.0167146,-0.0156231 -0.0152628,-0.0170443 -0.0136905,-0.0183311 -0.0120103,-0.0194733 -0.0102354,-0.020462 -0.232045,-0.520446 z "/>
<path fill="rgb(42,41,42)" stroke="rgb(42,41,42)" d="M 2.39798,3.71956 l 0.0212077,0 0.0978852,0.212568 0.0351292,-0.0304275 0.032375,-0.033343 0.0293795,-0.0360103 0.0261653,-0.0384093 0.0227562,-0.0405222 0.0153372,-0.033856 0.257346,0 -0.00439364,0.0167809 -0.0227212,0.0636632 -0.0281505,0.0614557 -0.0333681,0.0587863 -0.0383348,0.0556749 -0.0430134,0.052145 -0.0473687,0.0482231 -0.0513678,0.0439387 -0.0549808,0.0393239 0.157957,0.366459 0.493655,-0.806451 0.134505,0 0,1 -0.797038,0 -0.202962,-0.455217 0,-0.544783 z "/>
<path fill="rgb(42,41,42)" stroke="rgb(42,41,42)" d="M 5.53842,3.71956 l 0.0072657,-0.0153474 0.0161902,-0.0435635 0.0123738,-0.0447972 0.00846527,-0.0456972 0.0044937,-0.0462569 0.00045462,-0.0472226 -0.00370225,-0.0470795 -0.0078304,-0.0465711 -0.0118978,-0.0457015 -0.0158729,-0.0444773 -0.0197249,-0.0429082 -0.0234239,-0.0410061 -0.0269411,-0.038786 -0.0302494,-0.0362651 -0.033323,-0.0334628 -0.0167218,-0.0140671 0,-0.283797 0.0320926,0.0161537 0.0583243,0.0361255 0.0549142,0.0411244 0.0510768,0.0458033 0.046842,0.0501259 0.0422428,0.0540586 0.0373149,0.0575706 0.0320968,0.0606348 0.0266289,0.0632272 0.0209539,0.0653278 0.0151158,0.0669201 0.00916017,0.0679917 0.00313325,0.0685344 -0.0027205,0.0661477 -0.00834936,0.065675 -0.0139174,0.0647242 -0.0082253,0.0268611 -0.256239,0 z "/>
<path fill="rgb(42,41,42)" stroke="rgb(42,41,42)" d="M 2.39798,2.75677 l 0.0254053,0.00691412 0.0634412,0.023334 0.0611815,0.0287417 0.0584618,0.0339333 0.0553027,0.0388699 0.0517279,0.0435142 0.0477641,0.0478314 0.0434413,0.0517891 0.038792,0.0553574 0.033851,0.0585095 0.0286555,0.0612219 0.0232447,0.063474 0.017659,0.0652489 0.0119407,0.0665333 0.00613254,0.0673175 0.000278304,0.0675957 -0.00557802,0.0673657 -0.0113924,0.0666293 -0.0127275,0.0486111 -0.257346,0 0.00384038,-0.00847741 0.0154562,-0.0438293 0.0116196,-0.0449987 0.00769652,-0.045833 0.00371611,-0.0463259 -0.000291976,-0.0464738 -0.00429789,-0.0462755 -0.00827179,-0.0457326 -0.0121841,-0.0448491 -0.0160056,-0.0436316 -0.019708,-0.0420891 -0.0232635,-0.0402331 -0.0266458,-0.0380775 -0.0298297,-0.0356383 -0.0327913,-0.0329336 -0.0355088,-0.0299837 -0.0379618,-0.0268104 -0.040132,-0.0234375 -0.0356718,-0.0168918 0,-0.26027 z M 3.39798,3.49983 l 0,0.219731 -0.134505,0 0.134505,-0.219731 z M 2.39798,3.67351 l 0.0212077,0.0460548 -0.0212077,0 0,-0.0460548 z "/>
<path fill="rgb(42,41,42)" stroke="rgb(42,41,42)" d="M 1.43224,3.71956 l 0.25685,0 0.0170985,0.0366055 0.0236733,0.0408627 0.027177,0.0386212 0.0304698,0.0360801 0.0335263,0.0332591 0.0363227,0.0301801 0.0388374,0.026867 0.0410508,0.0233455 0.0429457,0.0196429 0.0445075,0.015788 0.0457241,0.0118105 0.046586,0.00774148 0.0470864,0.00361237 0.0472217,-0.000544768 0.0469906,-0.00469768 0.046395,-0.00881414 -0.142917,-0.31036 0.236189,0 0,0.544783 -0.00726771,-0.0163005 -0.145308,0.0252464 0,0.18958 -0.0866378,-0.000609758 -0.0862723,-0.00797319 -0.0852821,-0.0152789 -0.0836744,-0.022474 -0.0814608,-0.0295063 0.0821151,-0.176931 -0.0609035,-0.0243671 -0.0585637,-0.0295514 -0.0557835,-0.0345136 -0.052584,-0.0392163 -0.0489891,-0.0436241 -0.0450258,-0.047704 -0.040724,-0.0514252 -0.0361161,-0.0547597 -0.0312366,-0.0576825 -0.0261222,-0.0601716 -0.0158977,-0.0475206 z "/>
<path fill="rgb(42,41,42)" stroke="rgb(42,41,42)" d="M 1.68909,3.71956 l -0.25685,0 -0.00491371,-0.0146878 -0.0153442,-0.0637773 -0.00976159,-0.0648668 -0.00410559,-0.0654686 0.00158128,-0.0655781 0.00725626,-0.0651946 0.0128767,-0.064321 0.0184003,-0.0629637 0.0237855,-0.061133 0.0300058,-0.0606872 0.035311,-0.0577617 0.0403335,-0.0543736 0.045033,-0.0505501 0.0493718,-0.0463217 0.0533153,-0.0417224 0.0568317,-0.036789 0.0598931,-0.0315609 0.0614953,-0.0280639 0.0636951,-0.0226316 0.0654161,-0.0170291 0.0666453,-0.0112986 0.0673735,-0.00548319 0.0675952,0.000373459 0.0673088,0.0062273 0.0665164,0.0120343 0.0398186,0.0108368 0,0.26027 -0.00633156,-0.00299821 -0.0435619,-0.0161944 -0.044796,-0.0123782 -0.0456964,-0.00846973 -0.0462565,-0.00449821 -0.0464721,-0.000493198 -0.0463415,0.00351549 -0.0458659,0.007498 -0.0450486,0.0114247 -0.0438958,0.0152662 -0.0430835,0.0193389 -0.0412148,0.0230548 -0.0390263,0.0265919 -0.0365351,0.0299227 -0.0337605,0.0330213 -0.0307241,0.0358638 -0.0274492,0.0384281 -0.0239615,0.0406943 -0.0202879,0.0426449 -0.0164569,0.0442646 -0.0124982,0.0455409 -0.00844261,0.046464 -0.00432151,0.0470267 -0.000166884,0.0472245 0.00398903,0.047056 0.00811401,0.0465225 0.012176,0.0456281 0.0161436,0.0443798 0.00288746,0.00618164 z M 2.39798,3.67351 l 0,0.0460548 -0.236189,0 -0.0923033,-0.200446 -0.00385749,-0.00944048 -0.00302002,-0.00974076 -0.00215957,-0.00996691 -0.00128268,-0.0101172 -0.000396024,-0.0101905 0.000493643,-0.0101862 0.00137955,-0.0101044 0.00225496,-0.00994576 0.00311321,-0.00971138 0.00394777,-0.00940309 0.00475228,-0.00902324 0.00552062,-0.00857471 0.00624695,-0.00806093 0.00692573,-0.0074858 0.00755181,-0.00685369 0.00812041,-0.00616943 0.00862721,-0.00543821 0.00906835,-0.00466561 0.00944048,-0.00385749 0.00974076,-0.00302002 0.00996691,-0.00215957 0.0101172,-0.00128268 0.0101905,-0.000396024 0.0101862,0.000493643 0.0101044,0.00137955 0.00994576,0.00225496 0.00971138,0.00311321 0.00940309,0.00394777 0.00902324,0.00475228 0.00857471,0.00552062 0.00806093,0.00624695 0.0074858,0.00692573 0.00685369,0.00755181 0.00616943,0.00812041 0.00543821,0.00862721 0.00466561,0.00906835 0.116127,0.252183 z "/>
<path fill="rgb(42,41,42)" stroke="rgb(42,41,42)" d="M 5.53842,3.71956 l 0.256239,0 -0.0111589,0.0364412 -0.0247098,0.0614194 -0.0298556,0.0590895 -0.034784,0.0563293 -0.0394592,0.0531591 -0.0438471,0.0496019 -0.0479158,0.0456836 -0.0516357,0.0414328 -0.0549797,0.0368802 -0.0583377,0.0321513 0,-0.286842 0.0146731,-0.012284 0.0329304,-0.0327946 0.0299802,-0.0355117 0.0268067,-0.0379644 0.0234336,-0.0401343 0.0126202,-0.0266579 z "/>
<path fill="rgb(42,41,42)" stroke="rgb(42,41,42)" d="M 4.56038,3.71956 l -0.162399,0 0,-0.64589 0.0020212,-0.00339361 0.0401635,-0.0556208 0.0449085,-0.0518653 0.0493041,-0.0477063 0.053316,-0.0431762 0.0569132,-0.0383101 0.0600677,-0.033146 0.0627547,-0.027724 0.0649536,-0.0220864 0.0666472,-0.0162769 0.0678222,-0.0103408 0.0684696,-0.0043242 0.0685843,0.00172601 0.0681654,0.0077628 0.0672162,0.0137392 0.0657441,0.0196087 0.0637604,0.0253256 0.0291882,0.0146918 0,0.283797 -0.0194164,-0.0163338 -0.038673,-0.0271032 -0.0409078,-0.0235952 -0.0428253,-0.0199043 -0.0444105,-0.0160589 -0.0456513,-0.0120889 -0.0465379,-0.00802518 -0.0470635,-0.0038992 -0.0472241,0.000257036 -0.0470183,0.00441128 -0.0464478,0.00853129 -0.045517,0.0125851 -0.0442331,0.0165413 -0.042606,0.0203692 -0.0406485,0.0240391 -0.0383757,0.0275226 -0.0358051,0.0307925 -0.0329568,0.0338235 -0.0298529,0.0365922 -0.0265173,0.039077 -0.0229761,0.0412587 -0.0192567,0.0431203 -0.0153878,0.0446475 -0.0113996,0.0458283 0.562363,0 0.0101885,0.000444839 0.0101109,0.00133113 0.00995645,0.00220729 0.00972618,0.00306665 0.00942189,0.00390268 0.0090459,0.004709 0.00860106,0.00547948 0.00809076,0.00620826 0.00751889,0.00688979 0.00688979,0.00751889 0.00620826,0.00809076 0.00547948,0.00860106 0.004709,0.0090459 0.00390268,0.00942189 0.00306665,0.00972618 0.00220729,0.00995645 0.00133113,0.0101109 0.000444839,0.0101885 -0.000444839,0.0101885 -0.00133113,0.0101109 -0.00220729,0.00995645 -0.00306665,0.00972618 -0.00390268,0.00942189 -0.004709,0.0090459 -0.00547948,0.00860106 -0.00620826,0.00809076 -0.00688979,0.00751889 -0.00751889,0.00688979 -0.00809076,0.00620826 -0.00860106,0.00547948 -0.0090459,0.004709 -0.00942189,0.00390268 -0.00972618,0.00306665 -0.00995645,0.00220729 -0.0101109,0.00133113 -0.0101885,0.000444839 -0.562363,0 0.0129444,0.0446356 0.0167447,0.0433533 0.00441818,0.00903273 z "/>
<path fill="rgb(42,41,42)" stroke="rgb(42,41,42)" d="M 4.39798,3.91353 l 0,-0.193968 0.162399,0 0.0160021,0.0327154 0.0239438,0.039832 0.027289,0.0376192 0.0304309,0.0351263 0.0333462,0.0323717 0.0360131,0.029376 0.0384118,0.0261615 0.0405245,0.0227522 0.0423353,0.0191734 0.0438308,0.0154519 0.0449998,0.0116152 0.0458337,0.00769205 0.0463262,0.00371159 0.0464737,-0.000296513 0.0462751,-0.00430241 0.0457318,-0.00827625 0.0448479,-0.0121885 0.04363,-0.0160099 0.0420872,-0.0197121 0.0402309,-0.0232675 0.0380749,-0.0266495 0.0209623,-0.0175492 0,0.286842 -0.00209014,0.00115193 -0.0631474,0.0278035 -0.0653677,0.0220838 -0.067071,0.0161896 -0.0682441,0.0101673 -0.0688775,0.0040646 -0.0689662,-0.00207021 -0.0685096,-0.00818866 -0.0675113,-0.0142424 -0.0659792,-0.0201834 -0.0639253,-0.0259649 -0.061366,-0.0315411 -0.0583214,-0.0368678 -0.0548157,-0.0419031 -0.0508765,-0.046607 -0.046535,-0.0509423 -0.0418255,-0.0548749 -0.0165704,-0.026295 z "/>
<path fill="rgb(42,41,42)" stroke="rgb(42,41,42)" d="M 3.39798,4.71956 l 0.0342404,0 -0.00739894,0.0120233 -0.00539176,0.00761057 -0.00606033,0.00708973 -0.00667886,0.00651036 -0.00724224,0.00587723 -0.00146831,0.000984882 0,-0.040096 z M 3.39798,5.15154 l 0.00366892,0 0,0.240098 -0.00366892,0 0,-0.240098 z "/>
<path fill="rgb(42,41,42)" stroke="rgb(42,41,42)" d="M 4.30932,3.71956 l 0.0886582,0 0,0.193968 -0.020215,-0.0320785 -0.0314543,-0.0614105 -0.0258745,-0.063962 -0.0111145,-0.0365174 z M 3.53963,3.71956 l -0.100089,0.1557 0.195853,0.423327 0.00357406,0.00889094 0.00277022,0.00917325 0.00194447,0.00938306 0.00110335,0.00951868 0.000253506,0.00957906 -0.00059834,0.00956372 -0.00144546,0.00947277 -0.00228115,0.00930694 -0.0030988,0.00906753 -0.00389196,0.00875644 -0.00465435,0.00837614 -0.196852,0.319884 -0.0342404,0 0,-1 0.141654,0 z "/>
<path fill="rgb(42,41,42)" stroke="rgb(42,41,42)" d="M 4.18849,4.65484 l 0.00162386,-0.00393763 0.00180604,-0.00385747 0.00198428,-0.00376889 -0.00541418,0.011564 z "/>
<path fill="rgb(42,41,42)" stroke="rgb(42,41,42)" d="M 5.00014,4.46287 l 0.619231,0 0,0.315889 -1.34582,0 -0.00802137,-0.000353639 -0.00795913,-0.00105817 -0.00783513,-0.00175449 -0.00765033,-0.0024372 -0.00740616,-0.003101 -0.00710453,-0.00374073 -0.00674777,-0.00435144 -0.00633865,-0.00492838 -0.00588035,-0.00546708 -0.00537641,-0.00596336 -0.00483076,-0.00641336 -0.00424762,-0.0068136 -0.00363152,-0.00716097 -0.00298724,-0.00745277 -0.00231979,-0.00768674 -0.00163433,-0.00786107 -0.000936191,-0.0079744 -0.000230787,-0.00802585 0.000476408,-0.00801502 0.00117991,-0.00794199 0.00187425,-0.00780735 0.00255405,-0.00761212 0.00541418,-0.011564 0.155481,-0.332088 0.00358121,-0.00655321 0.00413156,-0.00622092 0.0046513,-0.00584252 0.00513657,-0.00542082 0.00558377,-0.00495894 0.00598959,-0.00446032 0.00635102,-0.00392864 0.00666538,-0.00336784 0.00693034,-0.00278209 0.00714394,-0.00217571 0.0073046,-0.00155321 0.00741112,-0.000919203 0.00746272,-0.000278381 0.00745901,0.000364504 0.00740002,0.00100469 0.00728618,0.00163743 0.00711835,0.00225803 0.00689777,0.0028619 0.00662606,0.00344456 0.00630525,0.00400169 0.00593771,0.00452916 8.88178e-15,6.21725e-15 0.0782305,0.0491738 0.0823551,0.0419014 0.0858054,0.0342859 0.0885532,0.0263897 0.090576,0.0182775 0.0918573,0.0100157 z "/>
<path fill="rgb(187,30,16)" stroke="rgb(187,30,16)" d="M 0.2,3.75 l -0.2,0 0.0142699,-0.326834 0.042701,-0.324347 0.0708072,-0.319391 0.0983745,-0.312004 0.125193,-0.302243 0.151059,-0.290182 0.175775,-0.275912 0.199154,-0.259542 0.221016,-0.241197 0.241197,-0.221016 0.259542,-0.199154 0.275912,-0.175775 0.290182,-0.151059 0.302243,-0.125193 0.312004,-0.0983745 0.319391,-0.0708072 0.324347,-0.042701 0.326834,-0.0142699 0.326834,0.0142699 0.324347,0.042701 0.319391,0.0708072 0.312004,0.0983745 0.302243,0.125193 0.290182,0.151059 0.275912,0.175775 0.259542,0.199154 0.241197,0.221016 0.221016,0.241197 0.199154,0.259542 0.175775,0.275912 0.151059,0.290182 0.125193,0.302243 0.0983745,0.312004 0.0708072,0.319391 0.042701,0.324347 0.0142699,0.326834 -0.2,0 -0.0135088,-0.309403 -0.0404237,-0.307048 -0.0670308,-0.302357 -0.0931279,-0.295364 -0.118516,-0.286123 -0.143002,-0.274705 -0.1664,-0.261196 -0.188532,-0.2457 -0.209229,-0.228333 -0.228333,-0.209229 -0.2457,-0.188532 -0.261196,-0.1664 -0.274705,-0.143002 -0.286123,-0.118516 -0.295364,-0.0931279 -0.302357,-0.0670308 -0.307048,-0.0404237 -0.309403,-0.0135088 -0.309403,0.0135088 -0.307048,0.0404237 -0.302357,0.0670308 -0.295364,0.0931279 -0.286123,0.118516 -0.274705,0.143002 -0.261196,0.1664 -0.2457,0.188532 -0.228333,0.209229 -0.209229,0.228333 -0.188532,0.2457 -0.1664,0.261196 -0.143002,0.274705 -0.118516,0.286123 -0.0931279,0.295364 -0.0670308,0.302357 -0.0404237,0.307048 -0.0135088,0.309403 z "/>
<path fill="rgb(187,30,16)" stroke="rgb(187,30,16)" d="M 0.2,3.75 l 0.0135088,0.309403 0.0404237,0.307048 0.0670308,0.302357 0.0931279,0.295364 0.118516,0.286123 0.143002,0.274705 0.1664,0.261196 0.188532,0.2457 0.209229,0.228333 0.228333,0.209229 0.2457,0.188532 0.261196,0.1664 0.274705,0.143002 0.286123,0.118516 0.295364,0.0931279 0.302357,0.0670308 0.307048,0.0404237 0.309403,0.0135088 0.309403,-0.0135088 0.307048,-0.0404237 0.302357,-0.0670308 0.295364,-0.0931279 0.286123,-0.118516 0.274705,-0.143002 0.261196,-0.1664 0.2457,-0.188532 0.228333,-0.209229 0.209229,-0.228333 0.188532,-0.2457 0.1664,-0.261196 0.143002,-0.274705 0.118516,-0.286123 0.0931279,-0.295364 0.0670308,-0.302357 0.0404237,-0.307048 0.0135088,-0.309403 0.2,0 -0.0142699,0.326834 -0.042701,0.324347 -0.0708072,0.319391 -0.0983745,0.312004 -0.125193,0.302243 -0.151059,0.290182 -0.175775,0.275912 -0.199154,0.259542 -0.221016,0.241197 -0.241197,0.221016 -0.259542,0.199154 -0.275912,0.175775 -0.290182,0.151059 -0.302243,0.125193 -0.312004,0.0983745 -0.319391,0.0708072 -0.324347,0.042701 -0.326834,0.0142699 -0.326834,-0.0142699 -0.324347,-0.042701 -0.319391,-0.0708072 -0.312004,-0.0983745 -0.302243,-0.125193 -0.290182,-0.151059 -0.275912,-0.175775 -0.259542,-0.199154 -0.241197,-0.221016 -0.221016,-0.241197 -0.199154,-0.259542 -0.175775,-0.275912 -0.151059,-0.290182 -0.125193,-0.302243 -0.0983745,-0.312004 -0.0708072,-0.319391 -0.042701,-0.324347 -0.0142699,-0.326834 0.2,0 z "/>
<path fill="rgb(187,30,16)" stroke="rgb(187,30,16)" d="M 6.4,3.75 l -0.010137,-0.231567 -0.0303334,-0.229795 -0.0502977,-0.226266 -0.0698772,-0.221005 -0.0889221,-0.214053 -0.107287,-0.205464 -0.124831,-0.195303 -0.141419,-0.183648 -0.156926,-0.170588 -0.171233,-0.156222 -0.184229,-0.140662 -0.195816,-0.124025 -0.205904,-0.10644 -0.214418,-0.0880397 -0.221291,-0.0689663 -0.226471,-0.0493652 -0.229918,-0.0293865 -0.231607,-0.00918301 -0.231523,0.0110908 -0.229668,0.0312797 -0.226056,0.0512293 -0.220715,0.070787 -0.213685,0.0898031 -0.20502,0.108132 -0.194787,0.125634 -0.183064,0.142175 -0.16994,0.157628 -0.155516,0.171875 -0.139902,0.184807 -0.123217,0.196325 -0.10559,0.206341 -0.0871557,0.214779 -0.0680541,0.221573 -0.0472142,0.219498 -0.0284647,0.222706 -0.00951101,0.224316 -0.7,0 0.0127478,-0.291972 0.0381463,-0.28975 0.0632545,-0.285322 0.0878812,-0.278724 0.111839,-0.270004 0.134946,-0.259229 0.157026,-0.246481 0.17791,-0.231857 0.197441,-0.215469 0.215469,-0.197441 0.231857,-0.17791 0.246481,-0.157026 0.259229,-0.134946 0.270004,-0.111839 0.278724,-0.0878812 0.285322,-0.0632545 0.28975,-0.0381463 0.291972,-0.0127478 0.291972,0.0127478 0.28975,0.0381463 0.285322,0.0632545 0.278724,0.0878812 0.270004,0.111839 0.259229,0.134946 0.246481,0.157026 0.231857,0.17791 0.215469,0.197441 0.197441,0.215469 0.17791,0.231857 0.157026,0.246481 0.134946,0.259229 0.111839,0.270004 0.0878812,0.278724 0.0632545,0.285322 0.0381463,0.28975 0.0127478,0.291972 -0.7,0 z "/>
<path fill="rgb(187,30,16)" stroke="rgb(187,30,16)" d="M 6.4,3.75 l 0.7,0 -0.0127478,0.291972 -0.0381463,0.28975 -0.0632545,0.285322 -0.0878812,0.278724 -0.111839,0.270004 -0.134946,0.259229 -0.157026,0.246481 -0.17791,0.231857 -0.197441,0.215469 -0.215469,0.197441 -0.231857,0.17791 -0.246481,0.157026 -0.259229,0.134946 -0.270004,0.111839 -0.278724,0.0878812 -0.285322,0.0632545 -0.28975,0.0381463 -0.291972,0.0127478 -0.291972,-0.0127478 -0.28975,-0.0381463 -0.285322,-0.0632545 -0.278724,-0.0878812 -0.270004,-0.111839 -0.259229,-0.134946 -0.246481,-0.157026 -0.231857,-0.17791 -0.215469,-0.197441 -0.197441,-0.215469 -0.17791,-0.231857 -0.157026,-0.246481 -0.134946,-0.259229 -0.111839,-0.270004 -0.0878812,-0.278724 -0.0632545,-0.285322 -0.0381463,-0.28975 -0.0127478,-0.291972 0.7,0 0.0101942,0.232218 0.0305041,0.230431 0.0505793,0.226872 0.0702654,0.221567 0.0894109,0.214557 0.107868,0.205897 0.125496,0.195652 0.142158,0.183903 0.157727,0.170738 0.172082,0.15626 0.185113,0.140579 0.196719,0.123817 0.206813,0.106102 0.215315,0.0875712 0.22216,0.0683664 0.227296,0.0486356 0.230684,0.0285307 0.232297,0.00820622 0.232122,-0.0121814 0.230162,-0.0324753 0.226431,-0.0525193 0.220957,-0.0721592 0.213784,-0.091244 0.204966,-0.109627 0.194571,-0.127166 0.182679,-0.143727 0.169382,-0.159182 0.154781,-0.173413 0.138989,-0.186309 0.122129,-0.197772 0.104328,-0.207713 0.0857251,-0.216056 0.0636759,-0.211744 0.0458021,-0.216315 0.0276094,-0.219381 0.00922455,-0.220919 z "/>
</g></g></svg>
