<?xml version="1.0" encoding="UTF-8" standalone="no"?>
<!DOCTYPE svg PUBLIC "-//W3C//DTD SVG 1.1//EN" "http://www.w3.org/Graphics/SVG/1.1/DTD/svg11-flat.dtd"
[

]>
<svg xmlns="http://www.w3.org/2000/svg"  viewBox="-0.05625 -0.05625 4.6125 7.6125"><g fill="none" stroke="black" stroke-width="0.0125" transform="translate(0,7.5) scale(1, -1)">
<g id="Output" >
<path fill="rgb(0,91,140)" stroke="rgb(0,91,140)" d="M 1.4,6.4 l 1,0 0,0.7 -0.15,0 -0.85,0 0,-0.7 z "/>
<path fill="rgb(0,91,140)" stroke="rgb(0,91,140)" d="M 2.4,2.54846 l 1,0 0,0.851538 -1,0 0,-0.851538 z "/>
<path fill="rgb(0,91,140)" stroke="rgb(0,91,140)" d="M 2.4,3.4 l 1,0 0,1 -1,0 0,-1 z "/>
<path fill="rgb(0,91,140)" stroke="rgb(0,91,140)" d="M 0.670903,1.4 l -0.270903,0 0,-0.7 0.00114159,-0.0261467 0.00341608,-0.0259477 0.00566458,-0.0255513 0.00786996,-0.0249603 0.0100155,-0.0241794 0.0120847,-0.0232145 0.014062,-0.0220729 0.0159323,-0.0207634 0.0176813,-0.0192958 0.0192958,-0.0176813 0.0207634,-0.0159323 0.0220729,-0.014062 0.0232145,-0.0120847 0.0241794,-0.0100155 0.0249603,-0.00786996 0.0255513,-0.00566458 0.0259477,-0.00341608 0.0261467,-0.00114159 0.7,-8.88178e-16 0,0.870591 -0.000516192,-0.000991595 -0.0107301,-0.0168429 -0.0121572,-0.0158436 -0.0134918,-0.0147237 -0.0147237,-0.0134918 -0.0158436,-0.0121572 -0.0168429,-0.0107301 -0.017714,-0.00922131 -0.0184503,-0.00764234 -0.0190461,-0.00600522 -0.019497,-0.00432239 -0.0197996,-0.00260666 -0.0199514,-0.000871097 -0.0199514,0.000871097 -0.0197996,0.00260666 -0.019497,0.00432239 -0.0190461,0.00600522 -0.0184503,0.00764234 -0.017714,0.00922131 -0.0168429,0.0107301 -0.0158436,0.0121572 -0.0147237,0.0134918 -0.0134918,0.0147237 -0.0121572,0.0158436 -0.0107301,0.0168429 -0.00922131,0.017714 -0.00764234,0.0184503 -0.00600522,0.0190461 -0.00432239,0.019497 -0.00260666,0.0197996 -0.000871097,0.0199514 0.000696046,0.0159421 -0.065821,0 -0.000774377,-0.0159333 -0.235518,0 0,0.0159333 z "/>
<path fill="rgb(0,91,140)" stroke="rgb(0,91,140)" d="M 0.907195,1.4 l 0.065821,0 0.000175051,0.00400932 0.00260666,0.0197996 0.00432239,0.019497 0.00600522,0.0190461 0.00764234,0.0184503 0.00922131,0.017714 0.0107301,0.0168429 0.0121572,0.0158436 0.0134918,0.0147237 0.0147237,0.0134918 0.0158436,0.0121572 0.0168429,0.0107301 0.017714,0.00922131 0.0184503,0.00764234 0.0190461,0.00600522 0.019497,0.00432239 0.0197996,0.00260666 0.0199514,0.000871097 0.0199514,-0.000871097 0.0197996,-0.00260666 0.019497,-0.00432239 0.0190461,-0.00600522 0.0184503,-0.00764234 0.017714,-0.00922131 0.0168429,-0.0107301 0.0158436,-0.0121572 0.0147237,-0.0134918 0.0134918,-0.0147237 0.0121572,-0.0158436 0.0107301,-0.0168429 0.000516192,-0.000991595 0,0.101032 -0.00877289,0.00814924 -0.0202724,0.0157732 -0.0215709,0.0139448 -0.0227051,0.0120101 -0.0236662,0.0099838 -0.0244468,0.00788141 -0.0250411,0.00571894 -0.0254445,0.00351288 -0.0256539,0.00128004 -0.0256678,-0.000962564 -0.025486,-0.00319783 -0.0251099,-0.00540871 -0.0245424,-0.00757837 -0.0237879,-0.00969025 -0.0228519,-0.0117283 -0.0217418,-0.0136769 -0.0204659,-0.0155212 -0.0190341,-0.0172472 -0.0174571,-0.0188418 -0.015747,-0.0202927 -0.0139169,-0.0215889 -0.0119807,-0.0227206 -0.00995322,-0.023679 -0.00784982,-0.024457 -0.00568659,-0.0250485 -0.00348,-0.025449 -0.000472515,-0.00972229 z M 0.670903,1.4 l 0,0.0853099 0.046224,0.0286247 -0.0264214,0.356572 0.143875,0.429424 0.001694,0.00494827 0.00211078,0.00478536 0.0025121,0.00458742 0.00289503,0.0043559 0.00325677,0.00409249 0.00359468,0.00379912 0.00390626,0.00347795 0.00418926,0.00313132 0.00444159,0.00276176 0.0046614,0.00237199 0.0048471,0.00196486 0.00499731,0.00154334 0.00511095,0.00111053 0.00518717,0.000669585 0.00522542,0.000223741 0.183576,0 0.253517,0 0.00302859,0.000196945 0.00303423,-6.78129e-05 0.00301677,-0.000332054 0.00297634,-0.000593768 0.00291325,-0.000850961 0.00282798,-0.00110167 0.00272118,-0.001344 0.00259366,-0.0015761 0.0024464,-0.00179619 0.00228051,-0.00200261 0.00209726,-0.00219378 0.00189804,-0.00236825 0.00168437,-0.00252469 0.00145787,-0.00266191 0.00122028,-0.00277886 0.000973396,-0.00287466 0.000719101,-0.00294857 0.000459331,-0.00300003 0.0313487,-0.288362 0,0.375427 -1,0 0,-1 0.270903,0 z "/>
<path fill="rgb(0,91,140)" stroke="rgb(0,91,140)" d="M 2.4,5.4 l 1,0 0,1 -1,0 0,-1 z "/>
<path fill="rgb(0,91,140)" stroke="rgb(0,91,140)" d="M 0.4,3.4 l 1,0 0,1 -1,0 0,-1 z "/>
<path fill="rgb(0,91,140)" stroke="rgb(0,91,140)" d="M 0.4,4.4 l 1,0 0,1 -1,0 0,-1 z "/>
<path fill="rgb(0,91,140)" stroke="rgb(0,91,140)" d="M 0.4,5.4 l 1,0 0,1 -1,0 0,-1 z "/>
<path fill="rgb(0,91,140)" stroke="rgb(0,91,140)" d="M 0.4,6.4 l 1,0 0,0.7 -0.7,0 -0.0261467,-0.00114159 -0.0259477,-0.00341608 -0.0255513,-0.00566458 -0.0249603,-0.00786996 -0.0241794,-0.0100155 -0.0232145,-0.0120847 -0.0220729,-0.014062 -0.0207634,-0.0159323 -0.0192958,-0.0176813 -0.0176813,-0.0192958 -0.0159323,-0.0207634 -0.014062,-0.0220729 -0.0120847,-0.0232145 -0.0100155,-0.0241794 -0.00786996,-0.0249603 -0.00566458,-0.0255513 -0.00341608,-0.0259477 -0.00114159,-0.0261467 -4.44089e-16,-0.4 z "/>
<path fill="rgb(0,91,140)" stroke="rgb(0,91,140)" d="M 4.1,1.4 l 0,1 -0.31011,0 0,-0.332074 0,-0.611222 -0.308154,0 -0.00751391,0.024651 -0.00964956,0.0238959 -0.0117107,0.0229563 -0.0136813,0.0218392 -0.0155462,0.0205535 -0.017291,0.0191089 -0.00634334,0.00587838 0,-0.105205 0.00498628,-0.00957856 0.00764234,-0.0184503 0.00600522,-0.0190461 0.00432239,-0.019497 0.00260666,-0.0197996 0.000175066,-0.00400967 0.674262,0 z "/>
<path fill="rgb(0,91,140)" stroke="rgb(0,91,140)" d="M 1.08534,2.2425 l -0.123892,0 -0.0028764,-0.000127208 -0.00285394,-0.000380632 -0.0028092,-0.000631084 -0.00274252,-0.000876608 -0.00265443,-0.00111529 -0.00254561,-0.00134526 -0.00241692,-0.00156473 -0.00226935,-0.00177198 -0.00210407,-0.00196539 -0.00192236,-0.00214346 -0.00172563,-0.00230479 -0.00151543,-0.00244813 -0.00129341,-0.00257235 -0.00106128,-0.00267648 -0.000820861,-0.00275972 -0.0806482,-0.272473 0.26126,0 0.117336,0 0.00268577,0.000117285 0.00266532,0.000350962 0.00262458,0.000581966 0.00256386,0.00080854 0.00248362,0.00102896 0.00238446,0.00124154 0.00226716,0.00144467 0.00213259,0.00163681 0.00198179,0.00181648 0.0018159,0.00198232 0.00163619,0.00213307 0.00144402,0.00226758 0.00124085,0.00238483 0.00102824,0.00248391 0.000807795,0.00256409 0.000581203,0.00262475 0.000350187,0.00266542 0.000116504,0.0026858 0,0.237721 -0.000107426,0.0024806 -0.000321473,0.00246203 -0.000533113,0.00242502 -0.000740761,0.00236985 -0.000942862,0.00229694 -0.0011379,0.00220683 -0.00132443,0.00210019 -0.00150103,0.00197783 -0.0016664,0.00184066 -0.00181928,0.00168971 -0.00195855,0.00152611 -0.00208315,0.00135108 -0.00219215,0.00116593 -0.00228474,0.000972051 -0.00236022,0.000770895 -0.00241803,0.000563967 -0.00245773,0.000352815 -0.00247903,0.000139022 -0.00248177,-7.58116e-05 -0.142444,0 z "/>
<path fill="rgb(0,91,140)" stroke="rgb(0,91,140)" d="M 1.4,5.4 l 1,0 0,1 -1,0 0,-1 z "/>
<path fill="rgb(0,91,140)" stroke="rgb(0,91,140)" d="M 2.4,7.1 l 0,-0.7 1,0 0,0.7 -1,0 z "/>
<path fill="rgb(0,91,140)" stroke="rgb(0,91,140)" d="M 3.8,0.4 l 0.0261467,0.00114159 0.0259477,0.00341608 0.0255513,0.00566458 0.0249603,0.00786996 0.0241794,0.0100155 0.0232145,0.0120847 0.0220729,0.014062 0.0207634,0.0159323 0.0192958,0.0176813 0.0176813,0.0192958 0.0159323,0.0207634 0.014062,0.0220729 0.0120847,0.0232145 0.0100155,0.0241794 0.00786996,0.0249603 0.00566458,0.0255513 0.00341608,0.0259477 0.00114159,0.0261467 0,0.7 -0.674262,0 0.000696031,-0.0159417 -0.000871097,-0.0199514 -0.00260666,-0.0197996 -0.00432239,-0.019497 -0.00600522,-0.0190461 -0.00764234,-0.0184503 -0.00498628,-0.00957856 0,-0.877735 0.4,0 z "/>
<path fill="rgb(0,91,140)" stroke="rgb(0,91,140)" d="M 4.1,2.4 l 0,1 -0.7,0 0,-0.851538 0.38989,0 0,-0.148462 0.31011,0 z "/>
<path fill="rgb(0,91,140)" stroke="rgb(0,91,140)" d="M 4.1,5.4 l 0,1 -0.7,0 0,-1 0.7,0 z "/>
<path fill="rgb(0,91,140)" stroke="rgb(0,91,140)" d="M 4.1,3.4 l 0,1 -0.7,0 0,-1 0.7,0 z "/>
<path fill="rgb(0,91,140)" stroke="rgb(0,91,140)" d="M 0.4,2.4 l 1,0 0,1 -1,0 0,-1 z "/>
<path fill="rgb(0,91,140)" stroke="rgb(0,91,140)" d="M 3.4,6.4 l 0.7,0 0,0.4 -0.00114159,0.0261467 -0.00341608,0.0259477 -0.00566458,0.0255513 -0.00786996,0.0249603 -0.0100155,0.0241794 -0.0120847,0.0232145 -0.014062,0.0220729 -0.0159323,0.0207634 -0.0176813,0.0192958 -0.0192958,0.0176813 -0.0207634,0.0159323 -0.0220729,0.014062 -0.0232145,0.0120847 -0.0241794,0.0100155 -0.0249603,0.00786996 -0.0255513,0.00566458 -0.0259477,0.00341608 -0.0261467,0.00114159 -0.4,0 0,-0.7 z "/>
<path fill="rgb(0,91,140)" stroke="rgb(0,91,140)" d="M 2.4,0.4 l 0,1 -0.970543,0 0.000696046,-0.0159421 -0.000871097,-0.0199514 -0.00260666,-0.0197996 -0.00432239,-0.019497 -0.00600522,-0.0190461 -0.00764234,-0.0184503 -0.00870512,-0.0167224 0,-0.870591 0.85,4.44089e-16 0.15,-4.44089e-16 z "/>
<path fill="rgb(0,91,140)" stroke="rgb(0,91,140)" d="M 1.42946,1.4 l 0.970543,0 0,0.0607484 -0.00121883,-0.00404524 -0.913464,0 -0.00754665,0.0245522 -0.00965951,0.0238004 -0.0116987,0.0228671 -0.0136488,0.0217595 -0.0154948,0.020486 -0.0172226,0.0190563 -0.0100463,0.00933217 0,-0.101032 0.00870512,-0.0167224 0.00764234,-0.0184503 0.00600522,-0.0190461 0.00432239,-0.019497 0.00260666,-0.0197996 0.000175051,-0.00400932 z M 1.47651,2.4 l -0.0765133,0 0,-0.375427 0.012681,-0.116646 0,-0.169473 0.0638323,0 0,0.661546 z "/>
<path fill="rgb(0,91,140)" stroke="rgb(0,91,140)" d="M 2.4,4.4 l 1,0 0,1 -1,0 0,-1 z "/>
<path fill="rgb(0,91,140)" stroke="rgb(0,91,140)" d="M 1.4,4.4 l 1,0 0,1 -1,0 0,-1 z "/>
<path fill="rgb(0,91,140)" stroke="rgb(0,91,140)" d="M 1.47651,2.4 l 0,0.148462 0.923487,0 0,0.851538 -1,0 0,-1 0.0765133,0 z "/>
<path fill="rgb(0,91,140)" stroke="rgb(0,91,140)" d="M 1.4,3.4 l 1,0 0,1 -1,0 0,-1 z "/>
<path fill="rgb(0,91,140)" stroke="rgb(0,91,140)" d="M 2.4,1.46075 l 0,-0.0607484 0.055773,0 0.000175225,0.00401331 0.00260666,0.0197996 0.00432239,0.019497 0.00600522,0.0190461 0.00764234,0.0184503 0.00922131,0.017714 0.0107301,0.0168429 0.0121572,0.0158436 0.0134918,0.0147237 0.0147237,0.0134918 0.0158436,0.0121572 0.0168429,0.0107301 0.017714,0.00922131 0.0184503,0.00764234 0.0190461,0.00600522 0.019497,0.00432239 0.0197996,0.00260666 0.0199514,0.000871097 0.0199514,-0.000871097 0.0197996,-0.00260666 0.019497,-0.00432239 0.0190461,-0.00600522 0.0184503,-0.00764234 0.017714,-0.00922131 0.0168429,-0.0107301 0.0158436,-0.0121572 0.0147237,-0.0134918 0.0134918,-0.0147237 0.0121572,-0.0158436 0.0107301,-0.0168429 0.00922131,-0.017714 0.00764234,-0.0184503 0.00600522,-0.0190461 0.00432239,-0.019497 0.00260666,-0.0197996 0.000175225,-0.00401331 0.0570822,0 0.000175066,0.00400967 0.00260666,0.0197996 0.00432239,0.019497 0.00600522,0.0190461 0.00764234,0.0184503 0.00922131,0.017714 0.0107301,0.0168429 0.0121572,0.0158436 0.0134918,0.0147237 0.0147237,0.0134918 0.0158436,0.0121572 0.0168429,0.0107301 0.017714,0.00922131 0.0184503,0.00764234 0.0190461,0.00600522 0.019497,0.00432239 0.0197996,0.00260666 0.0199514,0.000871097 0.0199514,-0.000871097 0.0197996,-0.00260666 0.019497,-0.00432239 0.0190461,-0.00600522 0.0184503,-0.00764234 0.017714,-0.00922131 0.0168429,-0.0107301 0.0158436,-0.0121572 0.0147237,-0.0134918 0.0134918,-0.0147237 0.0121572,-0.0158436 0.0107301,-0.0168429 0.00423503,-0.00813541 0,0.105205 -0.0125589,0.0116383 -0.0203674,0.0157892 -0.0216752,0.0139397 -0.0228156,0.0119825 -0.0237796,0.00993267 -0.02456,0.00780614 -0.0251506,0.0056193 -0.0255469,0.00338904 -0.0257458,0.0011326 -0.516978,0 -0.0256346,-0.00121182 -0.0254292,-0.00345808 -0.0250273,-0.00567763 -0.0244321,-0.00785332 -0.0236481,-0.00996834 -0.0226815,-0.0120064 -0.0215396,-0.0139516 -0.0202313,-0.0157891 -0.0187667,-0.0175046 -0.0171572,-0.0190849 -0.0154151,-0.0205177 -0.0135539,-0.021792 -0.011588,-0.022898 -0.0095326,-0.0238271 -0.00618472,-0.0205269 z "/>
<path fill="rgb(0,91,140)" stroke="rgb(0,91,140)" d="M 4.1,4.4 l 0,1 -0.7,0 0,-1 0.7,0 z "/>
<path fill="rgb(0,91,140)" stroke="rgb(0,91,140)" d="M 2.45577,1.4 l -0.055773,0 0,-1 1,0 0,0.877735 -0.00423503,-0.00813541 -0.0107301,-0.0168429 -0.0121572,-0.0158436 -0.0134918,-0.0147237 -0.0147237,-0.0134918 -0.0158436,-0.0121572 -0.0168429,-0.0107301 -0.017714,-0.00922131 -0.0184503,-0.00764234 -0.0190461,-0.00600522 -0.019497,-0.00432239 -0.0197996,-0.00260666 -0.0199514,-0.000871097 -0.0199514,0.000871097 -0.0197996,0.00260666 -0.019497,0.00432239 -0.0190461,0.00600522 -0.0184503,0.00764234 -0.017714,0.00922131 -0.0168429,0.0107301 -0.0158436,0.0121572 -0.0147237,0.0134918 -0.0134918,0.0147237 -0.0121572,0.0158436 -0.0107301,0.0168429 -0.00922131,0.017714 -0.00764234,0.0184503 -0.00600522,0.0190461 -0.00432239,0.019497 -0.00260666,0.0197996 -0.000871097,0.0199514 0.000696031,0.0159417 -0.0570822,0 0.000695872,-0.0159381 -0.000871097,-0.0199514 -0.00260666,-0.0197996 -0.00432239,-0.019497 -0.00600522,-0.0190461 -0.00764234,-0.0184503 -0.00922131,-0.017714 -0.0107301,-0.0168429 -0.0121572,-0.0158436 -0.0134918,-0.0147237 -0.0147237,-0.0134918 -0.0158436,-0.0121572 -0.0168429,-0.0107301 -0.017714,-0.00922131 -0.0184503,-0.00764234 -0.0190461,-0.00600522 -0.019497,-0.00432239 -0.0197996,-0.00260666 -0.0199514,-0.000871097 -0.0199514,0.000871097 -0.0197996,0.00260666 -0.019497,0.00432239 -0.0190461,0.00600522 -0.0184503,0.00764234 -0.017714,0.00922131 -0.0168429,0.0107301 -0.0158436,0.0121572 -0.0147237,0.0134918 -0.0134918,0.0147237 -0.0121572,0.0158436 -0.0107301,0.0168429 -0.00922131,0.017714 -0.00764234,0.0184503 -0.00600522,0.0190461 -0.00432239,0.019497 -0.00260666,0.0197996 -0.000871097,0.0199514 0.000695872,0.0159381 z "/>
<path fill="rgb(241,240,234)" stroke="rgb(241,240,234)" d="M 2.91291,1.38406 l -0.000871097,0.0199514 -0.00260666,0.0197996 -0.00432239,0.019497 -0.00600522,0.0190461 -0.00764234,0.0184503 -0.00922131,0.017714 -0.0107301,0.0168429 -0.0121572,0.0158436 -0.0134918,0.0147237 -0.0147237,0.0134918 -0.0158436,0.0121572 -0.0168429,0.0107301 -0.017714,0.00922131 -0.0184503,0.00764234 -0.0190461,0.00600522 -0.019497,0.00432239 -0.0197996,0.00260666 -0.0199514,0.000871097 -0.0199514,-0.000871097 -0.0197996,-0.00260666 -0.019497,-0.00432239 -0.0190461,-0.00600522 -0.0184503,-0.00764234 -0.017714,-0.00922131 -0.0168429,-0.0107301 -0.0158436,-0.0121572 -0.0147237,-0.0134918 -0.0134918,-0.0147237 -0.0121572,-0.0158436 -0.0107301,-0.0168429 -0.00922131,-0.017714 -0.00764234,-0.0184503 -0.00600522,-0.0190461 -0.00432239,-0.019497 -0.00260666,-0.0197996 -0.000871097,-0.0199514 0.000871097,-0.0199514 0.00260666,-0.0197996 0.00432239,-0.019497 0.00600522,-0.0190461 0.00764234,-0.0184503 0.00922131,-0.017714 0.0107301,-0.0168429 0.0121572,-0.0158436 0.0134918,-0.0147237 0.0147237,-0.0134918 0.0158436,-0.0121572 0.0168429,-0.0107301 0.017714,-0.00922131 0.0184503,-0.00764234 0.0190461,-0.00600522 0.019497,-0.00432239 0.0197996,-0.00260666 0.0199514,-0.000871097 0.0199514,0.000871097 0.0197996,0.00260666 0.019497,0.00432239 0.0190461,0.00600522 0.0184503,0.00764234 0.017714,0.00922131 0.0168429,0.0107301 0.0158436,0.0121572 0.0147237,0.0134918 0.0134918,0.0147237 0.0121572,0.0158436 0.0107301,0.0168429 0.00922131,0.017714 0.00764234,0.0184503 0.00600522,0.0190461 0.00432239,0.019497 0.00260666,0.0197996 0.000871097,0.0199514 z "/>
<path fill="rgb(241,240,234)" stroke="rgb(241,240,234)" d="M 3.42643,1.38406 l -0.000871097,0.0199514 -0.00260666,0.0197996 -0.00432239,0.019497 -0.00600522,0.0190461 -0.00764234,0.0184503 -0.00922131,0.017714 -0.0107301,0.0168429 -0.0121572,0.0158436 -0.0134918,0.0147237 -0.0147237,0.0134918 -0.0158436,0.0121572 -0.0168429,0.0107301 -0.017714,0.00922131 -0.0184503,0.00764234 -0.0190461,0.00600522 -0.019497,0.00432239 -0.0197996,0.00260666 -0.0199514,0.000871097 -0.0199514,-0.000871097 -0.0197996,-0.00260666 -0.019497,-0.00432239 -0.0190461,-0.00600522 -0.0184503,-0.00764234 -0.017714,-0.00922131 -0.0168429,-0.0107301 -0.0158436,-0.0121572 -0.0147237,-0.0134918 -0.0134918,-0.0147237 -0.0121572,-0.0158436 -0.0107301,-0.0168429 -0.00922131,-0.017714 -0.00764234,-0.0184503 -0.00600522,-0.0190461 -0.00432239,-0.019497 -0.00260666,-0.0197996 -0.000871097,-0.0199514 0.000871097,-0.0199514 0.00260666,-0.0197996 0.00432239,-0.019497 0.00600522,-0.0190461 0.00764234,-0.0184503 0.00922131,-0.017714 0.0107301,-0.0168429 0.0121572,-0.0158436 0.0134918,-0.0147237 0.0147237,-0.0134918 0.0158436,-0.0121572 0.0168429,-0.0107301 0.017714,-0.00922131 0.0184503,-0.00764234 0.0190461,-0.00600522 0.019497,-0.00432239 0.0197996,-0.00260666 0.0199514,-0.000871097 0.0199514,0.000871097 0.0197996,0.00260666 0.019497,0.00432239 0.0190461,0.00600522 0.0184503,0.00764234 0.017714,0.00922131 0.0168429,0.0107301 0.0158436,0.0121572 0.0147237,0.0134918 0.0134918,0.0147237 0.0121572,0.0158436 0.0107301,0.0168429 0.00922131,0.017714 0.00764234,0.0184503 0.00600522,0.0190461 0.00432239,0.019497 0.00260666,0.0197996 0.000871097,0.0199514 z "/>
<path fill="rgb(241,240,234)" stroke="rgb(241,240,234)" d="M 1.43015,1.38406 l -0.000871097,0.0199514 -0.00260666,0.0197996 -0.00432239,0.019497 -0.00600522,0.0190461 -0.00764234,0.0184503 -0.00922131,0.017714 -0.0107301,0.0168429 -0.0121572,0.0158436 -0.0134918,0.0147237 -0.0147237,0.0134918 -0.0158436,0.0121572 -0.0168429,0.0107301 -0.017714,0.00922131 -0.0184503,0.00764234 -0.0190461,0.00600522 -0.019497,0.00432239 -0.0197996,0.00260666 -0.0199514,0.000871097 -0.0199514,-0.000871097 -0.0197996,-0.00260666 -0.019497,-0.00432239 -0.0190461,-0.00600522 -0.0184503,-0.00764234 -0.017714,-0.00922131 -0.0168429,-0.0107301 -0.0158436,-0.0121572 -0.0147237,-0.0134918 -0.0134918,-0.0147237 -0.0121572,-0.0158436 -0.0107301,-0.0168429 -0.00922131,-0.017714 -0.00764234,-0.0184503 -0.00600522,-0.0190461 -0.00432239,-0.019497 -0.00260666,-0.0197996 -0.000871097,-0.0199514 0.000871097,-0.0199514 0.00260666,-0.0197996 0.00432239,-0.019497 0.00600522,-0.0190461 0.00764234,-0.0184503 0.00922131,-0.017714 0.0107301,-0.0168429 0.0121572,-0.0158436 0.0134918,-0.0147237 0.0147237,-0.0134918 0.0158436,-0.0121572 0.0168429,-0.0107301 0.017714,-0.00922131 0.0184503,-0.00764234 0.0190461,-0.00600522 0.019497,-0.00432239 0.0197996,-0.00260666 0.0199514,-0.000871097 0.0199514,0.000871097 0.0197996,0.00260666 0.019497,0.00432239 0.0190461,0.00600522 0.0184503,0.00764234 0.017714,0.00922131 0.0168429,0.0107301 0.0158436,0.0121572 0.0147237,0.0134918 0.0134918,0.0147237 0.0121572,0.0158436 0.0107301,0.0168429 0.00922131,0.017714 0.00764234,0.0184503 0.00600522,0.0190461 0.00432239,0.019497 0.00260666,0.0197996 0.000871097,0.0199514 z "/>
<path fill="rgb(241,240,234)" stroke="rgb(241,240,234)" d="M 1.41268,1.90793 l -0.0440297,0.405009 -0.000459331,0.00300003 -0.000719101,0.00294857 -0.000973396,0.00287466 -0.00122028,0.00277886 -0.00145787,0.00266191 -0.00168437,0.00252469 -0.00189804,0.00236825 -0.00209726,0.00219378 -0.00228051,0.00200261 -0.0024464,0.00179619 -0.00259366,0.0015761 -0.00272118,0.001344 -0.00282798,0.00110167 -0.00291325,0.000850961 -0.00297634,0.000593768 -0.00301677,0.000332054 -0.00303423,6.78129e-05 -0.00302859,-0.000196945 -0.253517,0 0.0085553,-0.101252 0.142444,0 0.00248177,7.58116e-05 0.00247903,-0.000139022 0.00245773,-0.000352815 0.00241803,-0.000563967 0.00236022,-0.000770895 0.00228474,-0.000972051 0.00219215,-0.00116593 0.00208315,-0.00135108 0.00195855,-0.00152611 0.00181928,-0.00168971 0.0016664,-0.00184066 0.00150103,-0.00197783 0.00132443,-0.00210019 0.0011379,-0.00220683 0.000942862,-0.00229694 0.000740761,-0.00236985 0.000533113,-0.00242502 0.000321473,-0.00246203 0.000107426,-0.0024806 0,-0.237721 -0.000116504,-0.0026858 -0.000350187,-0.00266542 -0.000581203,-0.00262475 -0.000807795,-0.00256409 -0.00102824,-0.00248391 -0.00124085,-0.00238483 -0.00144402,-0.00226758 -0.00163619,-0.00213307 -0.0018159,-0.00198232 -0.00198179,-0.00181648 -0.00213259,-0.00163681 -0.00226716,-0.00144467 -0.00238446,-0.00124154 -0.00248362,-0.00102896 -0.00256386,-0.00080854 -0.00262458,-0.000581966 -0.00266532,-0.000350962 -0.00268577,-0.000117285 -0.117336,0 0.00856749,-0.101396 0.293665,-0.105496 0,0.169473 z "/>
<path fill="rgb(241,240,234)" stroke="rgb(241,240,234)" d="M 3.78989,2.06793 l -1.81282,-0.0689782 -0.500553,-0.260494 -0.0638323,0 -0.293665,0.105496 -0.00856749,0.101396 -0.26126,0 0.0806482,0.272473 0.000820861,0.00275972 0.00106128,0.00267648 0.00129341,0.00257235 0.00151543,0.00244813 0.00172563,0.00230479 0.00192236,0.00214346 0.00210407,0.00196539 0.00226935,0.00177198 0.00241692,0.00156473 0.00254561,0.00134526 0.00265443,0.00111529 0.00274252,0.000876608 0.0028092,0.000631084 0.00285394,0.000380632 0.0028764,0.000127208 0.123892,0 -0.0085553,0.101252 -0.183576,0 -0.00522542,-0.000223741 -0.00518717,-0.000669585 -0.00511095,-0.00111053 -0.00499731,-0.00154334 -0.0048471,-0.00196486 -0.0046614,-0.00237199 -0.00444159,-0.00276176 -0.00418926,-0.00313132 -0.00390626,-0.00347795 -0.00359468,-0.00379912 -0.00325677,-0.00409249 -0.00289503,-0.0043559 -0.0025121,-0.00458742 -0.00211078,-0.00478536 -0.001694,-0.00494827 -0.143875,-0.429424 0.0264214,-0.356572 -0.046224,-0.0286247 0,-0.101243 0.235518,0 0.00124689,0.0256556 0.00348,0.025449 0.00568659,0.0250485 0.00784982,0.024457 0.00995322,0.023679 0.0119807,0.0227206 0.0139169,0.0215889 0.015747,0.0202927 0.0174571,0.0188418 0.0190341,0.0172472 0.0204659,0.0155212 0.0217418,0.0136769 0.0228519,0.0117283 0.0237879,0.00969025 0.0245424,0.00757837 0.0251099,0.00540871 0.025486,0.00319783 0.0256678,0.000962564 0.0256539,-0.00128004 0.0254445,-0.00351288 0.0250411,-0.00571894 0.0244468,-0.00788141 0.0236662,-0.0099838 0.0227051,-0.0120101 0.0215709,-0.0139448 0.0202724,-0.0157732 0.0188192,-0.0174814 0.0172226,-0.0190563 0.0154948,-0.020486 0.0136488,-0.0217595 0.0116987,-0.0228671 0.00965951,-0.0238004 0.00754665,-0.0245522 0.913464,0 0.00740355,0.0245721 0.0095326,0.0238271 0.011588,0.022898 0.0135539,0.021792 0.0154151,0.0205177 0.0171572,0.0190849 0.0187667,0.0175046 0.0202313,0.0157891 0.0215396,0.0139516 0.0226815,0.0120064 0.0236481,0.00996834 0.0244321,0.00785332 0.0250273,0.00567763 0.0254292,0.00345808 0.0256346,0.00121182 0.516978,0 0.0257458,-0.0011326 0.0255469,-0.00338904 0.0251506,-0.0056193 0.02456,-0.00780614 0.0237796,-0.00993267 0.0228156,-0.0119825 0.0216752,-0.0139397 0.0203674,-0.0157892 0.0189022,-0.0175167 0.017291,-0.0191089 0.0155462,-0.0205535 0.0136813,-0.0218392 0.0117107,-0.0229563 0.00964956,-0.0238959 0.00751391,-0.024651 0.308154,0 0,0.611222 z "/>
<path fill="rgb(241,240,234)" stroke="rgb(241,240,234)" d="M 3.78989,2.06793 l 0,0.480536 -2.31338,0 0,-0.810008 0.500553,0.260494 1.81282,0.0689782 z "/>
<path fill="rgb(0,91,140)" stroke="rgb(0,91,140)" d="M 3.8,7.5 l -1.55,0 -4.44089e-16,-0.2 1.55,0 0.0435779,-0.00190265 0.0432462,-0.00569347 0.0425854,-0.00944096 0.0416005,-0.0131166 0.0402991,-0.0166924 0.0386909,-0.0201412 0.0367882,-0.0234367 0.0346056,-0.0265538 0.0321596,-0.0294688 0.0294688,-0.0321596 0.0265538,-0.0346056 0.0234367,-0.0367882 0.0201412,-0.0386909 0.0166924,-0.0402991 0.0131166,-0.0416005 0.00944096,-0.0425854 0.00569347,-0.0432462 0.00190265,-0.0435779 0,-6.1 -0.00190265,-0.0435779 -0.00569347,-0.0432462 -0.00944096,-0.0425854 -0.0131166,-0.0416005 -0.0166924,-0.0402991 -0.0201412,-0.0386909 -0.0234367,-0.0367882 -0.0265538,-0.0346056 -0.0294688,-0.0321596 -0.0321596,-0.0294688 -0.0346056,-0.0265538 -0.0367882,-0.0234367 -0.0386909,-0.0201412 -0.0402991,-0.0166924 -0.0416005,-0.0131166 -0.0425854,-0.00944096 -0.0432462,-0.00569347 -0.0435779,-0.00190265 -1.55,4.44089e-16 0,-0.2 1.55,-4.44089e-16 0.061009,0.00266371 0.0605447,0.00797086 0.0596196,0.0132173 0.0582408,0.0183632 0.0564187,0.0233694 0.0541672,0.0281977 0.0515035,0.0328114 0.0484478,0.0371753 0.0450234,0.0412564 0.0412564,0.0450234 0.0371753,0.0484478 0.0328114,0.0515035 0.0281977,0.0541672 0.0233694,0.0564187 0.0183632,0.0582408 0.0132173,0.0596196 0.00797086,0.0605447 0.00266371,0.061009 8.88178e-16,6.1 -0.00266371,0.061009 -0.00797086,0.0605447 -0.0132173,0.0596196 -0.0183632,0.0582408 -0.0233694,0.0564187 -0.0281977,0.0541672 -0.0328114,0.0515035 -0.0371753,0.0484478 -0.0412564,0.0450234 -0.0450234,0.0412564 -0.0484478,0.0371753 -0.0515035,0.0328114 -0.0541672,0.0281977 -0.0564187,0.0233694 -0.0582408,0.0183632 -0.0596196,0.0132173 -0.0605447,0.00797086 -0.061009,0.00266371 z "/>
<path fill="rgb(0,91,140)" stroke="rgb(0,91,140)" d="M 0,6.8 l 0,-6.1 0.00266371,-0.061009 0.00797086,-0.0605447 0.0132173,-0.0596196 0.0183632,-0.0582408 0.0233694,-0.0564187 0.0281977,-0.0541672 0.0328114,-0.0515035 0.0371753,-0.0484478 0.0412564,-0.0450234 0.0450234,-0.0412564 0.0484478,-0.0371753 0.0515035,-0.0328114 0.0541672,-0.0281977 0.0564187,-0.0233694 0.0582408,-0.0183632 0.0596196,-0.0132173 0.0605447,-0.00797086 0.061009,-0.00266371 1.55,-8.88178e-16 0,0.2 -1.55,4.44089e-16 -0.0435779,0.00190265 -0.0432462,0.00569347 -0.0425854,0.00944096 -0.0416005,0.0131166 -0.0402991,0.0166924 -0.0386909,0.0201412 -0.0367882,0.0234367 -0.0346056,0.0265538 -0.0321596,0.0294688 -0.0294688,0.0321596 -0.0265538,0.0346056 -0.0234367,0.0367882 -0.0201412,0.0386909 -0.0166924,0.0402991 -0.0131166,0.0416005 -0.00944096,0.0425854 -0.00569347,0.0432462 -0.00190265,0.0435779 0,6.1 0.00190265,0.0435779 0.00569347,0.0432462 0.00944096,0.0425854 0.0131166,0.0416005 0.0166924,0.0402991 0.0201412,0.0386909 0.0234367,0.0367882 0.0265538,0.0346056 0.0294688,0.0321596 0.0321596,0.0294688 0.0346056,0.0265538 0.0367882,0.0234367 0.0386909,0.0201412 0.0402991,0.0166924 0.0416005,0.0131166 0.0425854,0.00944096 0.0432462,0.00569347 0.0435779,0.00190265 1.55,0 4.44089e-16,0.2 -1.55,0 -0.061009,-0.00266371 -0.0605447,-0.00797086 -0.0596196,-0.0132173 -0.0582408,-0.0183632 -0.0564187,-0.0233694 -0.0541672,-0.0281977 -0.0515035,-0.0328114 -0.0484478,-0.0371753 -0.0450234,-0.0412564 -0.0412564,-0.0450234 -0.0371753,-0.0484478 -0.0328114,-0.0515035 -0.0281977,-0.0541672 -0.0233694,-0.0564187 -0.0183632,-0.0582408 -0.0132173,-0.0596196 -0.00797086,-0.0605447 -0.00266371,-0.061009 z "/>
<path fill="rgb(241,240,234)" stroke="rgb(241,240,234)" d="M 2.25,0.4 l 0,-0.2 1.55,-4.44089e-16 0.0435779,0.00190265 0.0432462,0.00569347 0.0425854,0.00944096 0.0416005,0.0131166 0.0402991,0.0166924 0.0386909,0.0201412 0.0367882,0.0234367 0.0346056,0.0265538 0.0321596,0.0294688 0.0294688,0.0321596 0.0265538,0.0346056 0.0234367,0.0367882 0.0201412,0.0386909 0.0166924,0.0402991 0.0131166,0.0416005 0.00944096,0.0425854 0.00569347,0.0432462 0.00190265,0.0435779 0,6.1 -0.00190265,0.0435779 -0.00569347,0.0432462 -0.00944096,0.0425854 -0.0131166,0.0416005 -0.0166924,0.0402991 -0.0201412,0.0386909 -0.0234367,0.0367882 -0.0265538,0.0346056 -0.0294688,0.0321596 -0.0321596,0.0294688 -0.0346056,0.0265538 -0.0367882,0.0234367 -0.0386909,0.0201412 -0.0402991,0.0166924 -0.0416005,0.0131166 -0.0425854,0.00944096 -0.0432462,0.00569347 -0.0435779,0.00190265 -1.55,0 0,-0.2 1.55,0 0.0261467,-0.00114159 0.0259477,-0.00341608 0.0255513,-0.00566458 0.0249603,-0.00786996 0.0241794,-0.0100155 0.0232145,-0.0120847 0.0220729,-0.014062 0.0207634,-0.0159323 0.0192958,-0.0176813 0.0176813,-0.0192958 0.0159323,-0.0207634 0.014062,-0.0220729 0.0120847,-0.0232145 0.0100155,-0.0241794 0.00786996,-0.0249603 0.00566458,-0.0255513 0.00341608,-0.0259477 0.00114159,-0.0261467 0,-6.1 -0.00114159,-0.0261467 -0.00341608,-0.0259477 -0.00566458,-0.0255513 -0.00786996,-0.0249603 -0.0100155,-0.0241794 -0.0120847,-0.0232145 -0.014062,-0.0220729 -0.0159323,-0.0207634 -0.0176813,-0.0192958 -0.0192958,-0.0176813 -0.0207634,-0.0159323 -0.0220729,-0.014062 -0.0232145,-0.0120847 -0.0241794,-0.0100155 -0.0249603,-0.00786996 -0.0255513,-0.00566458 -0.0259477,-0.00341608 -0.0261467,-0.00114159 -1.55,4.44089e-16 z "/>
<path fill="rgb(241,240,234)" stroke="rgb(241,240,234)" d="M 0.7,0.4 l -0.0261467,0.00114159 -0.0259477,0.00341608 -0.0255513,0.00566458 -0.0249603,0.00786996 -0.0241794,0.0100155 -0.0232145,0.0120847 -0.0220729,0.014062 -0.0207634,0.0159323 -0.0192958,0.0176813 -0.0176813,0.0192958 -0.0159323,0.0207634 -0.014062,0.0220729 -0.0120847,0.0232145 -0.0100155,0.0241794 -0.00786996,0.0249603 -0.00566458,0.0255513 -0.00341608,0.0259477 -0.00114159,0.0261467 4.44089e-16,6.1 0.00114159,0.0261467 0.00341608,0.0259477 0.00566458,0.0255513 0.00786996,0.0249603 0.0100155,0.0241794 0.0120847,0.0232145 0.014062,0.0220729 0.0159323,0.0207634 0.0176813,0.0192958 0.0192958,0.0176813 0.0207634,0.0159323 0.0220729,0.014062 0.0232145,0.0120847 0.0241794,0.0100155 0.0249603,0.00786996 0.0255513,0.00566458 0.0259477,0.00341608 0.0261467,0.00114159 1.55,0 0,0.2 -1.55,0 -0.0435779,-0.00190265 -0.0432462,-0.00569347 -0.0425854,-0.00944096 -0.0416005,-0.0131166 -0.0402991,-0.0166924 -0.0386909,-0.0201412 -0.0367882,-0.0234367 -0.0346056,-0.0265538 -0.0321596,-0.0294688 -0.0294688,-0.0321596 -0.0265538,-0.0346056 -0.0234367,-0.0367882 -0.0201412,-0.0386909 -0.0166924,-0.0402991 -0.0131166,-0.0416005 -0.00944096,-0.0425854 -0.00569347,-0.0432462 -0.00190265,-0.0435779 0,-6.1 0.00190265,-0.0435779 0.00569347,-0.0432462 0.00944096,-0.0425854 0.0131166,-0.0416005 0.0166924,-0.0402991 0.0201412,-0.0386909 0.0234367,-0.0367882 0.0265538,-0.0346056 0.0294688,-0.0321596 0.0321596,-0.0294688 0.0346056,-0.0265538 0.0367882,-0.0234367 0.0386909,-0.0201412 0.0402991,-0.0166924 0.0416005,-0.0131166 0.0425854,-0.00944096 0.0432462,-0.00569347 0.0435779,-0.00190265 1.55,-4.44089e-16 0,0.2 -1.55,4.44089e-16 z "/>
<path fill="rgb(241,240,234)" stroke="rgb(241,240,234)" d="M 2.55779,6.76785 l -1.46818,0 0,-3.49981 0.574179,0 0,1.37266 0.894002,0 0.0912247,0.00214646 0.10947,0.0107323 0.101957,0.0182449 0.0944444,0.027904 0.088005,0.0354166 0.0794191,0.0429293 0.0847853,0.060101 0.0783459,0.0697601 0.0719065,0.0772727 0.0633207,0.0858585 0.0547348,0.0944444 0.0472222,0.0998105 -1.85884,0.00214646 0,0.872537 0.917613,0 0.939078,0.0257576 -0.0450757,0.0901515 -0.0536616,0.0837121 -0.0622474,0.0783459 -0.0719065,0.0729797 -0.0804924,0.0676136 -0.0890782,0.0611742 -0.0643939,0.0364899 -0.0890782,0.0397096 -0.0944444,0.0321969 -0.0987373,0.0214646 -0.104103,0.013952 -0.10947,0.00429293 z "/>
<path fill="rgb(241,240,234)" stroke="rgb(241,240,234)" d="M 3.52048,6.16576 l -0.939078,-0.0257576 0.0686868,-0.00321969 0.10303,-0.0193182 0.0890782,-0.0386363 0.074053,-0.055808 0.0246843,-0.0268308 0.0579545,-0.0869318 0.0343434,-0.0998105 0.0118055,-0.112689 -0.00107323,-0.0289773 -0.0182449,-0.110543 -0.0429293,-0.0944444 -0.0665404,-0.0772727 -0.0440025,-0.0343434 -0.0869318,-0.046149 -0.0965908,-0.027904 -0.107323,-0.00965908 -0.917613,0 1.85884,-0.00214646 0.0375631,0.105177 0.0268308,0.107323 0.0160985,0.108396 0.00536616,0.110543 0,0.0515151 -0.00858585,0.112689 -0.0182449,0.107323 -0.0257576,0.101957 -0.0354166,0.0955176 z "/>
</g></g></svg>
