<?xml version="1.0" encoding="UTF-8" standalone="no"?>
<!DOCTYPE svg PUBLIC "-//W3C//DTD SVG 1.1//EN" "http://www.w3.org/Graphics/SVG/1.1/DTD/svg11-flat.dtd"
[

]>
<svg xmlns="http://www.w3.org/2000/svg"  viewBox="-0.112544 -0.112544 9.22863 9.22687"><g fill="none" stroke="black" stroke-width="0.0125" transform="translate(0,9.00178) scale(1, -1)">
<g id="Output" >
<path fill="rgb(200,225,100)" stroke="rgb(200,225,100)" d="M 8.90354,8.75178 l -0.000570795,0.0130734 -0.00170804,0.0129739 -0.00283229,0.0127756 -0.00393498,0.0124802 -0.00500773,0.0120897 -0.00604236,0.0116073 -0.007031,0.0110365 -0.00796614,0.0103817 -0.00884065,0.00964788 -0.00964788,0.00884065 -0.0103817,0.00796614 -0.0110365,0.007031 -0.0116073,0.00604236 -0.0120897,0.00500773 -0.0124802,0.00393498 -0.0127756,0.00283229 -0.0129739,0.00170804 -0.0130734,0.000570795 -8.50354,0 -0.0130734,-0.000570795 -0.0129739,-0.00170804 -0.0127756,-0.00283229 -0.0124802,-0.00393498 -0.0120897,-0.00500773 -0.0116073,-0.00604236 -0.0110365,-0.007031 -0.0103817,-0.00796614 -0.00964788,-0.00884065 -0.00884065,-0.00964788 -0.00796614,-0.0103817 -0.007031,-0.0110365 -0.00604236,-0.0116073 -0.00500773,-0.0120897 -0.00393498,-0.0124802 -0.00283229,-0.0127756 -0.00170804,-0.0129739 -0.000570795,-0.0130734 0,-4.25089 0.651769,0 -4.44089e-16,3.05 0.00266371,0.061009 0.00797086,0.0605447 0.0132173,0.0596196 0.0183632,0.0582408 0.0233694,0.0564187 0.0281977,0.0541672 0.0328114,0.0515035 0.0371753,0.0484478 0.0412564,0.0450234 0.0450234,0.0412564 0.0484478,0.0371753 0.0515035,0.0328114 0.0541672,0.0281977 0.0564187,0.0233694 0.0582408,0.0183632 0.0596196,0.0132173 0.0605447,0.00797086 0.061009,0.00266371 6.1,0 0.061009,-0.00266371 0.0605447,-0.00797086 0.0596196,-0.0132173 0.0582408,-0.0183632 0.0564187,-0.0233694 0.0541672,-0.0281977 0.0515035,-0.0328114 0.0484478,-0.0371753 0.0450234,-0.0412564 0.0412564,-0.0450234 0.0371753,-0.0484478 0.0328114,-0.0515035 0.0281977,-0.0541672 0.0233694,-0.0564187 0.0183632,-0.0582408 0.0132173,-0.0596196 0.00797086,-0.0605447 0.00266371,-0.061009 0,-3.05 0.651769,0 0,4.25089 z "/>
<path fill="rgb(200,225,100)" stroke="rgb(200,225,100)" d="M 0.751769,4.50089 l -0.651769,0 0,-4.25089 0.000570795,-0.0130734 0.00170804,-0.0129739 0.00283229,-0.0127756 0.00393498,-0.0124802 0.00500773,-0.0120897 0.00604236,-0.0116073 0.007031,-0.0110365 0.00796614,-0.0103817 0.00884065,-0.00964788 0.00964788,-0.00884065 0.0103817,-0.00796614 0.0110365,-0.007031 0.0116073,-0.00604236 0.0120897,-0.00500773 0.0124802,-0.00393498 0.0127756,-0.00283229 0.0129739,-0.00170804 0.0130734,-0.000570795 8.50354,0 0.0130734,0.000570795 0.0129739,0.00170804 0.0127756,0.00283229 0.0124802,0.00393498 0.0120897,0.00500773 0.0116073,0.00604236 0.0110365,0.007031 0.0103817,0.00796614 0.00964788,0.00884065 0.00884065,0.00964788 0.00796614,0.0103817 0.007031,0.0110365 0.00604236,0.0116073 0.00500773,0.0120897 0.00393498,0.0124802 0.00283229,0.0127756 0.00170804,0.0129739 0.000570795,0.0130734 0,4.25089 -0.651769,0 0,-3.05 -0.00266371,-0.061009 -0.00797086,-0.0605447 -0.0132173,-0.0596196 -0.0183632,-0.0582408 -0.0233694,-0.0564187 -0.0281977,-0.0541672 -0.0328114,-0.0515035 -0.0371753,-0.0484478 -0.0412564,-0.0450234 -0.0450234,-0.0412564 -0.0484478,-0.0371753 -0.0515035,-0.0328114 -0.0541672,-0.0281977 -0.0564187,-0.0233694 -0.0582408,-0.0183632 -0.0596196,-0.0132173 -0.0605447,-0.00797086 -0.061009,-0.00266371 -6.1,8.88178e-16 -0.061009,0.00266371 -0.0605447,0.00797086 -0.0596196,0.0132173 -0.0582408,0.0183632 -0.0564187,0.0233694 -0.0541672,0.0281977 -0.0515035,0.0328114 -0.0484478,0.0371753 -0.0450234,0.0412564 -0.0412564,0.0450234 -0.0371753,0.0484478 -0.0328114,0.0515035 -0.0281977,0.0541672 -0.0233694,0.0564187 -0.0183632,0.0582408 -0.0132173,0.0596196 -0.00797086,0.0605447 -0.00266371,0.061009 -4.44089e-16,3.05 z "/>
<path fill="rgb(241,240,234)" stroke="rgb(241,240,234)" d="M 1.15177,4.50089 l -0.2,0 4.44089e-16,-3.05 0.00190265,-0.0435779 0.00569347,-0.0432462 0.00944096,-0.0425854 0.0131166,-0.0416005 0.0166924,-0.0402991 0.0201412,-0.0386909 0.0234367,-0.0367882 0.0265538,-0.0346056 0.0294688,-0.0321596 0.0321596,-0.0294688 0.0346056,-0.0265538 0.0367882,-0.0234367 0.0386909,-0.0201412 0.0402991,-0.0166924 0.0416005,-0.0131166 0.0425854,-0.00944096 0.0432462,-0.00569347 0.0435779,-0.00190265 6.1,0 0.0435779,0.00190265 0.0432462,0.00569347 0.0425854,0.00944096 0.0416005,0.0131166 0.0402991,0.0166924 0.0386909,0.0201412 0.0367882,0.0234367 0.0346056,0.0265538 0.0321596,0.0294688 0.0294688,0.0321596 0.0265538,0.0346056 0.0234367,0.0367882 0.0201412,0.0386909 0.0166924,0.0402991 0.0131166,0.0416005 0.00944096,0.0425854 0.00569347,0.0432462 0.00190265,0.0435779 0,3.05 -0.2,0 0,-3.05 -0.00114159,-0.0261467 -0.00341608,-0.0259477 -0.00566458,-0.0255513 -0.00786996,-0.0249603 -0.0100155,-0.0241794 -0.0120847,-0.0232145 -0.014062,-0.0220729 -0.0159323,-0.0207634 -0.0176813,-0.0192958 -0.0192958,-0.0176813 -0.0207634,-0.0159323 -0.0220729,-0.014062 -0.0232145,-0.0120847 -0.0241794,-0.0100155 -0.0249603,-0.00786996 -0.0255513,-0.00566458 -0.0259477,-0.00341608 -0.0261467,-0.00114159 -6.1,0 -0.0261467,0.00114159 -0.0259477,0.00341608 -0.0255513,0.00566458 -0.0249603,0.00786996 -0.0241794,0.0100155 -0.0232145,0.0120847 -0.0220729,0.014062 -0.0207634,0.0159323 -0.0192958,0.0176813 -0.0176813,0.0192958 -0.0159323,0.0207634 -0.014062,0.0220729 -0.0120847,0.0232145 -0.0100155,0.0241794 -0.00786996,0.0249603 -0.00566458,0.0255513 -0.00341608,0.0259477 -0.00114159,0.0261467 -4.44089e-16,3.05 z "/>
<path fill="rgb(241,240,234)" stroke="rgb(241,240,234)" d="M 1.15177,4.50089 l -4.44089e-16,3.05 0.00114159,0.0261467 0.00341608,0.0259477 0.00566458,0.0255513 0.00786996,0.0249603 0.0100155,0.0241794 0.0120847,0.0232145 0.014062,0.0220729 0.0159323,0.0207634 0.0176813,0.0192958 0.0192958,0.0176813 0.0207634,0.0159323 0.0220729,0.014062 0.0232145,0.0120847 0.0241794,0.0100155 0.0249603,0.00786996 0.0255513,0.00566458 0.0259477,0.00341608 0.0261467,0.00114159 6.1,8.88178e-16 0.0261467,-0.00114159 0.0259477,-0.00341608 0.0255513,-0.00566458 0.0249603,-0.00786996 0.0241794,-0.0100155 0.0232145,-0.0120847 0.0220729,-0.014062 0.0207634,-0.0159323 0.0192958,-0.0176813 0.0176813,-0.0192958 0.0159323,-0.0207634 0.014062,-0.0220729 0.0120847,-0.0232145 0.0100155,-0.0241794 0.00786996,-0.0249603 0.00566458,-0.0255513 0.00341608,-0.0259477 0.00114159,-0.0261467 1.77636e-15,-3.05 0.2,0 0,3.05 -0.00190265,0.0435779 -0.00569347,0.0432462 -0.00944096,0.0425854 -0.0131166,0.0416005 -0.0166924,0.0402991 -0.0201412,0.0386909 -0.0234367,0.0367882 -0.0265538,0.0346056 -0.0294688,0.0321596 -0.0321596,0.0294688 -0.0346056,0.0265538 -0.0367882,0.0234367 -0.0386909,0.0201412 -0.0402991,0.0166924 -0.0416005,0.0131166 -0.0425854,0.00944096 -0.0432462,0.00569347 -0.0435779,0.00190265 -6.1,0 -0.0435779,-0.00190265 -0.0432462,-0.00569347 -0.0425854,-0.00944096 -0.0416005,-0.0131166 -0.0402991,-0.0166924 -0.0386909,-0.0201412 -0.0367882,-0.0234367 -0.0346056,-0.0265538 -0.0321596,-0.0294688 -0.0294688,-0.0321596 -0.0265538,-0.0346056 -0.0234367,-0.0367882 -0.0201412,-0.0386909 -0.0166924,-0.0402991 -0.0131166,-0.0416005 -0.00944096,-0.0425854 -0.00569347,-0.0432462 -0.00190265,-0.0435779 4.44089e-16,-3.05 0.2,0 z "/>
<path fill="rgb(0,91,140)" stroke="rgb(0,91,140)" d="M 1.15177,4.50089 l 6.7,0 -1.77636e-15,3.05 -0.00114159,0.0261467 -0.00341608,0.0259477 -0.00566458,0.0255513 -0.00786996,0.0249603 -0.0100155,0.0241794 -0.0120847,0.0232145 -0.014062,0.0220729 -0.0159323,0.0207634 -0.0176813,0.0192958 -0.0192958,0.0176813 -0.0207634,0.0159323 -0.0220729,0.014062 -0.0232145,0.0120847 -0.0241794,0.0100155 -0.0249603,0.00786996 -0.0255513,0.00566458 -0.0259477,0.00341608 -0.0261467,0.00114159 -6.1,-8.88178e-16 -0.0261467,-0.00114159 -0.0259477,-0.00341608 -0.0255513,-0.00566458 -0.0249603,-0.00786996 -0.0241794,-0.0100155 -0.0232145,-0.0120847 -0.0220729,-0.014062 -0.0207634,-0.0159323 -0.0192958,-0.0176813 -0.0176813,-0.0192958 -0.0159323,-0.0207634 -0.014062,-0.0220729 -0.0120847,-0.0232145 -0.0100155,-0.0241794 -0.00786996,-0.0249603 -0.00566458,-0.0255513 -0.00341608,-0.0259477 -0.00114159,-0.0261467 4.44089e-16,-3.05 z "/>
<path fill="rgb(0,91,140)" stroke="rgb(0,91,140)" d="M 1.15177,4.50089 l 4.44089e-16,-3.05 0.00114159,-0.0261467 0.00341608,-0.0259477 0.00566458,-0.0255513 0.00786996,-0.0249603 0.0100155,-0.0241794 0.0120847,-0.0232145 0.014062,-0.0220729 0.0159323,-0.0207634 0.0176813,-0.0192958 0.0192958,-0.0176813 0.0207634,-0.0159323 0.0220729,-0.014062 0.0232145,-0.0120847 0.0241794,-0.0100155 0.0249603,-0.00786996 0.0255513,-0.00566458 0.0259477,-0.00341608 0.0261467,-0.00114159 6.1,0 0.0261467,0.00114159 0.0259477,0.00341608 0.0255513,0.00566458 0.0249603,0.00786996 0.0241794,0.0100155 0.0232145,0.0120847 0.0220729,0.014062 0.0207634,0.0159323 0.0192958,0.0176813 0.0176813,0.0192958 0.0159323,0.0207634 0.014062,0.0220729 0.0120847,0.0232145 0.0100155,0.0241794 0.00786996,0.0249603 0.00566458,0.0255513 0.00341608,0.0259477 0.00114159,0.0261467 0,3.05 -6.7,0 z "/>
<path fill="rgb(0,91,140)" stroke="rgb(0,91,140)" d="M 0.751769,4.50089 l 4.44089e-16,-3.05 0.00266371,-0.061009 0.00797086,-0.0605447 0.0132173,-0.0596196 0.0183632,-0.0582408 0.0233694,-0.0564187 0.0281977,-0.0541672 0.0328114,-0.0515035 0.0371753,-0.0484478 0.0412564,-0.0450234 0.0450234,-0.0412564 0.0484478,-0.0371753 0.0515035,-0.0328114 0.0541672,-0.0281977 0.0564187,-0.0233694 0.0582408,-0.0183632 0.0596196,-0.0132173 0.0605447,-0.00797086 0.061009,-0.00266371 6.1,-8.88178e-16 0.061009,0.00266371 0.0605447,0.00797086 0.0596196,0.0132173 0.0582408,0.0183632 0.0564187,0.0233694 0.0541672,0.0281977 0.0515035,0.0328114 0.0484478,0.0371753 0.0450234,0.0412564 0.0412564,0.0450234 0.0371753,0.0484478 0.0328114,0.0515035 0.0281977,0.0541672 0.0233694,0.0564187 0.0183632,0.0582408 0.0132173,0.0596196 0.00797086,0.0605447 0.00266371,0.061009 0,3.05 -0.2,0 0,-3.05 -0.00190265,-0.0435779 -0.00569347,-0.0432462 -0.00944096,-0.0425854 -0.0131166,-0.0416005 -0.0166924,-0.0402991 -0.0201412,-0.0386909 -0.0234367,-0.0367882 -0.0265538,-0.0346056 -0.0294688,-0.0321596 -0.0321596,-0.0294688 -0.0346056,-0.0265538 -0.0367882,-0.0234367 -0.0386909,-0.0201412 -0.0402991,-0.0166924 -0.0416005,-0.0131166 -0.0425854,-0.00944096 -0.0432462,-0.00569347 -0.0435779,-0.00190265 -6.1,0 -0.0435779,0.00190265 -0.0432462,0.00569347 -0.0425854,0.00944096 -0.0416005,0.0131166 -0.0402991,0.0166924 -0.0386909,0.0201412 -0.0367882,0.0234367 -0.0346056,0.0265538 -0.0321596,0.0294688 -0.0294688,0.0321596 -0.0265538,0.0346056 -0.0234367,0.0367882 -0.0201412,0.0386909 -0.0166924,0.0402991 -0.0131166,0.0416005 -0.00944096,0.0425854 -0.00569347,0.0432462 -0.00190265,0.0435779 -4.44089e-16,3.05 -0.2,0 z "/>
<path fill="rgb(0,91,140)" stroke="rgb(0,91,140)" d="M 0.751769,4.50089 l 0.2,0 -4.44089e-16,3.05 0.00190265,0.0435779 0.00569347,0.0432462 0.00944096,0.0425854 0.0131166,0.0416005 0.0166924,0.0402991 0.0201412,0.0386909 0.0234367,0.0367882 0.0265538,0.0346056 0.0294688,0.0321596 0.0321596,0.0294688 0.0346056,0.0265538 0.0367882,0.0234367 0.0386909,0.0201412 0.0402991,0.0166924 0.0416005,0.0131166 0.0425854,0.00944096 0.0432462,0.00569347 0.0435779,0.00190265 6.1,0 0.0435779,-0.00190265 0.0432462,-0.00569347 0.0425854,-0.00944096 0.0416005,-0.0131166 0.0402991,-0.0166924 0.0386909,-0.0201412 0.0367882,-0.0234367 0.0346056,-0.0265538 0.0321596,-0.0294688 0.0294688,-0.0321596 0.0265538,-0.0346056 0.0234367,-0.0367882 0.0201412,-0.0386909 0.0166924,-0.0402991 0.0131166,-0.0416005 0.00944096,-0.0425854 0.00569347,-0.0432462 0.00190265,-0.0435779 0,-3.05 0.2,0 0,3.05 -0.00266371,0.061009 -0.00797086,0.0605447 -0.0132173,0.0596196 -0.0183632,0.0582408 -0.0233694,0.0564187 -0.0281977,0.0541672 -0.0328114,0.0515035 -0.0371753,0.0484478 -0.0412564,0.0450234 -0.0450234,0.0412564 -0.0484478,0.0371753 -0.0515035,0.0328114 -0.0541672,0.0281977 -0.0564187,0.0233694 -0.0582408,0.0183632 -0.0596196,0.0132173 -0.0605447,0.00797086 -0.061009,0.00266371 -6.1,0 -0.061009,-0.00266371 -0.0605447,-0.00797086 -0.0596196,-0.0132173 -0.0582408,-0.0183632 -0.0564187,-0.0233694 -0.0541672,-0.0281977 -0.0515035,-0.0328114 -0.0484478,-0.0371753 -0.0450234,-0.0412564 -0.0412564,-0.0450234 -0.0371753,-0.0484478 -0.0328114,-0.0515035 -0.0281977,-0.0541672 -0.0233694,-0.0564187 -0.0183632,-0.0582408 -0.0132173,-0.0596196 -0.00797086,-0.0605447 -0.00266371,-0.061009 4.44089e-16,-3.05 z "/>
<path fill="rgb(241,240,234)" stroke="rgb(241,240,234)" d="M 6.05054,7.27708 l -0.0646201,-0.00113369 -0.117903,-0.00906949 -0.113369,-0.018139 -0.1077,-0.0272085 -0.102032,-0.036278 -0.097497,-0.0453474 -0.0918286,-0.0532832 -0.0861601,-0.0634864 -0.0816254,-0.0714222 -0.075957,-0.0804917 -0.0702885,-0.0895612 -0.0260748,-0.0385453 1.03506,-0.0260748 0.0986307,-0.00566843 0.111101,-0.0226737 0.0997644,-0.0374116 0.0918286,-0.0555506 0.0816254,-0.0714222 0.0725559,-0.0872938 0.0102032,-0.0147379 0.0487485,-0.0838928 0.0430801,-0.0918286 0.0340106,-0.100898 0.0272085,-0.109968 0.018139,-0.117903 0.0124705,-0.126973 0.00340106,-0.132641 0,-0.02154 -0.00566843,-0.130374 -0.0136042,-0.122438 -0.0204063,-0.114502 -0.0294758,-0.108834 -0.036278,-0.100898 -0.0442138,-0.0929622 -0.0521496,-0.0861601 -0.0623527,-0.0816254 -0.079358,-0.075957 -0.0895612,-0.0600854 -0.097497,-0.0419464 -0.106566,-0.0260748 -0.115636,-0.0079358 1.03619,-0.0136042 0.0532832,0.0895612 0.0476148,0.0940959 0.0419464,0.0986307 0.0374116,0.102032 0.0306095,0.1077 0.0249411,0.111101 0.0192727,0.115636 0.0147379,0.120171 0.0079358,0.124705 0.00340106,0.128107 0,0.0317432 -0.00453474,0.126973 -0.0102032,0.122438 -0.0158716,0.119037 -0.0226737,0.113369 -0.0272085,0.109968 -0.0340106,0.105433 -0.039679,0.100898 -0.0453474,0.0963633 -0.0510159,0.0929622 -0.0566843,0.0872938 -0.0408127,0.0566843 -0.0725559,0.0850264 -0.0770906,0.075957 -0.0827591,0.0680212 -0.0884275,0.057818 -0.0940959,0.0498822 -0.0997644,0.0408127 -0.105433,0.0306095 -0.111101,0.0226737 -0.115636,0.0136042 -0.122438,0.00453474 z "/>
<path fill="rgb(241,240,234)" stroke="rgb(241,240,234)" d="M 5.01548,6.74311 l -0.0555506,-0.0884275 -0.0498822,-0.0929622 -0.0430801,-0.097497 -0.0374116,-0.102032 -0.0317432,-0.106566 -0.0260748,-0.111101 -0.0204063,-0.115636 -0.0147379,-0.119037 -0.00906949,-0.124705 -0.00226737,-0.12924 0,-0.0589517 0.00566843,-0.126973 0.0113369,-0.122438 0.0170053,-0.117903 0.02154,-0.113369 0.0283421,-0.108834 0.0340106,-0.105433 0.039679,-0.0997644 0.0464811,-0.0963633 0.0510159,-0.0918286 0.0566843,-0.0872938 0.0430801,-0.057818 0.0725559,-0.0850264 0.0782243,-0.075957 0.0827591,-0.0668875 0.0895612,-0.0589517 0.0940959,-0.0487485 0.0997644,-0.039679 0.105433,-0.0317432 0.109968,-0.0226737 0.11677,-0.0136042 0.121304,-0.00453474 0.0884275,0.00340106 0.117903,0.0102032 0.111101,0.0204063 0.106566,0.0294758 0.100898,0.0374116 0.0952296,0.0476148 0.0895612,0.0555506 0.0850264,0.0657538 0.0782243,0.0736896 0.0736896,0.0838928 0.0680212,0.0918286 0.02154,0.0328769 -1.03619,0.0136042 -0.103165,0.00566843 -0.111101,0.0226737 -0.100898,0.0385453 -0.0906949,0.0544169 -0.0816254,0.0714222 -0.0725559,0.0872938 -0.018139,0.0272085 -0.0487485,0.0850264 -0.0408127,0.0929622 -0.0340106,0.102032 -0.0260748,0.109968 -0.018139,0.119037 -0.0113369,0.126973 -0.00453474,0.134909 0.00113369,0.0521496 0.0079358,0.124705 0.0147379,0.117903 0.0249411,0.112235 0.0317432,0.105433 0.0408127,0.0986307 0.0487485,0.0918286 0.0351443,0.0555506 0.0725559,0.0895612 0.079358,0.0736896 0.0895612,0.0566843 0.0963633,0.0408127 0.105433,0.0249411 0.113369,0.0079358 -1.03506,0.0260748 z "/>
<path fill="rgb(241,240,234)" stroke="rgb(241,240,234)" d="M 2.82973,7.27708 l -0.114502,-0.00340106 -0.124705,-0.0102032 -0.119037,-0.018139 -0.111101,-0.0249411 -0.105433,-0.0328769 -0.097497,-0.0408127 -0.0918286,-0.0476148 -0.0850264,-0.0566843 -0.0532832,-0.0408127 -0.0816254,-0.079358 -0.0668875,-0.0861601 -0.0521496,-0.0940959 1.10308,-0.0249411 0.0113369,0 0.157582,-0.00680212 0.133775,-0.018139 0.108834,-0.0283421 0.0850264,-0.0408127 0.0600854,-0.0521496 0.036278,-0.0634864 0.0124705,-0.0748233 0,-0.0158716 -0.0158716,-0.0770906 -0.039679,-0.0634864 -0.0634864,-0.0532832 -0.0861601,-0.0408127 -0.109968,-0.0294758 -0.133775,-0.0170053 -0.156449,-0.00680212 1.09968,-0.0079358 0.039679,0.102032 0.0226737,0.0986307 0.0079358,0.097497 -0.00226737,0.0634864 -0.0158716,0.111101 -0.0306095,0.103165 -0.0453474,0.0963633 -0.061219,0.0906949 -0.0748233,0.0827591 -0.0906949,0.075957 -0.0736896,0.0498822 -0.0895612,0.0487485 -0.097497,0.0419464 -0.103165,0.0340106 -0.111101,0.0260748 -0.117903,0.0192727 -0.124705,0.0113369 -0.131508,0.00340106 z "/>
<path fill="rgb(241,240,234)" stroke="rgb(241,240,234)" d="M 1.72666,6.74198 l -0.0374116,-0.0997644 -0.0226737,-0.108834 -0.00680212,-0.114502 0.00340106,-0.0657538 0.018139,-0.0997644 0.0340106,-0.100898 0.0498822,-0.102032 0.0657538,-0.102032 0.0804917,-0.104299 -0.0623527,-0.0600854 -0.0770906,-0.0872938 -0.0657538,-0.0918286 -0.0532832,-0.0963633 -0.0408127,-0.0997644 -0.0294758,-0.104299 -0.018139,-0.108834 -0.00566843,-0.113369 0.00340106,-0.097497 0.0147379,-0.115636 0.0260748,-0.108834 0.0374116,-0.102032 0.0487485,-0.0963633 1.14049,0.0340106 -0.0453474,0 -0.139443,0.0079358 -0.117903,0.0170053 -0.097497,0.0260748 -0.0770906,0.036278 -0.036278,0.0238074 -0.0838928,0.0770906 -0.061219,0.0884275 -0.036278,0.0997644 -0.0113369,0.109968 0.00113369,0.036278 0.0136042,0.0940959 0.0294758,0.0838928 0.0464811,0.0725559 0.0623527,0.061219 0.0782243,0.0498822 0.0940959,0.0385453 0.111101,0.0283421 0.126973,0.0158716 0.142844,0.00566843 1.14049,0.0102032 -0.0589517,0.0929622 -0.0714222,0.0884275 -0.0827591,0.0838928 0.0487485,0.0646201 0.0691548,0.1077 0.0544169,0.104299 -1.09968,0.0079358 -0.0317432,0.00113369 -0.153048,0.0079358 -0.128107,0.0192727 -0.105433,0.0317432 -0.0816254,0.0430801 -0.0589517,0.0555506 -0.0351443,0.0668875 -0.0113369,0.0782243 0,0.00453474 0.0136042,0.0748233 0.0374116,0.0623527 0.0623527,0.0510159 0.0872938,0.0408127 0.109968,0.0283421 0.134909,0.0170053 0.15985,0.00566843 -1.10308,0.0249411 z "/>
<path fill="rgb(241,240,234)" stroke="rgb(241,240,234)" d="M 3.97022,5.57882 l -1.14049,-0.0102032 0.0521496,0 0.137176,-0.0102032 0.121304,-0.0204063 0.105433,-0.0317432 0.0884275,-0.0430801 0.0725559,-0.0532832 0.0566843,-0.0657538 0.0408127,-0.075957 0.0238074,-0.0872938 0.0079358,-0.0986307 -0.00453474,-0.0702885 -0.0294758,-0.105433 -0.0544169,-0.0940959 -0.0816254,-0.0838928 -0.0646201,-0.0476148 -0.0872938,-0.0374116 -0.106566,-0.0272085 -0.128107,-0.0158716 -0.149647,-0.00453474 -1.14049,-0.0340106 0.0600854,-0.0895612 0.0714222,-0.0838928 0.0816254,-0.0770906 0.061219,-0.0476148 0.0861601,-0.0566843 0.0929622,-0.0498822 0.0986307,-0.0408127 0.105433,-0.0340106 0.111101,-0.0272085 0.117903,-0.018139 0.123572,-0.0113369 0.130374,-0.00453474 0.018139,0.00113369 0.126973,0.00453474 0.121304,0.0124705 0.11677,0.0192727 0.109968,0.0272085 0.104299,0.0351443 0.0986307,0.0419464 0.0929622,0.0498822 0.0872938,0.0566843 0.039679,0.0294758 0.0816254,0.0736896 0.0714222,0.079358 0.0600854,0.0872938 0.0498822,0.0952296 0.0385453,0.100898 0.0272085,0.108834 0.0158716,0.115636 0.00566843,0.122438 -0.00226737,0.075957 -0.0136042,0.112235 -0.0249411,0.1077 -0.036278,0.102032 -0.0487485,0.0986307 z "/>
<path fill="rgb(241,240,234)" stroke="rgb(241,240,234)" d="M 6.54596,3.22529 l -0.268684,-0.097497 0,-1.42618 0.268684,0 0,0.6428 0,0.00453474 0.0136042,0.0906949 0.0374116,0.0634864 0.061219,0.0385453 0.0861601,0.0124705 0.434202,0.0192727 -0.036278,0.0770906 -0.596319,0.0680212 0,0.506758 z "/>
<path fill="rgb(241,240,234)" stroke="rgb(241,240,234)" d="M 6.79877,2.82396 l -0.0238074,-0.00113369 -0.0940959,-0.0147379 -0.075957,-0.0351443 -0.0589517,-0.0544169 0.596319,-0.0680212 -0.0566843,0.0680212 -0.0340106,0.0283421 -0.0736896,0.0430801 -0.0838928,0.0249411 -0.0952296,0.00906949 z "/>
<path fill="rgb(241,240,234)" stroke="rgb(241,240,234)" d="M 7.17855,2.57342 l -0.434202,-0.0192727 0.0714222,-0.0113369 0.0725559,-0.0476148 0.0408127,-0.0555506 0.018139,-0.0861601 0,-0.651869 0.249411,0 0,0.752767 -0.00113369,0.0306095 -0.0170053,0.0884275 z "/>
<path fill="rgb(241,240,234)" stroke="rgb(241,240,234)" d="M 5.96891,3.20148 l -0.959098,-1.80596 -0.268684,0 0.959098,1.80596 0.268684,0 z "/>
<path fill="rgb(241,240,234)" stroke="rgb(241,240,234)" d="M 3.43172,2.82396 l -0.0340106,-0.00226737 -0.0850264,-0.018139 -0.0782243,-0.0374116 -0.0714222,-0.0589517 0.553239,-0.0147379 -0.0430801,0.0430801 -0.0714222,0.0487485 -0.0804917,0.0294758 -0.0895612,0.0102032 z "/>
<path fill="rgb(241,240,234)" stroke="rgb(241,240,234)" d="M 4.04845,2.82396 l -0.00566843,0 -0.0816254,-0.00906949 -0.0816254,-0.0249411 -0.0816254,-0.0408127 -0.0816254,-0.0566843 0.673409,-0.0419464 -0.057818,0.0680212 -0.0317432,0.0272085 -0.0736896,0.0430801 -0.0838928,0.0260748 -0.0940959,0.00906949 z "/>
<path fill="rgb(241,240,234)" stroke="rgb(241,240,234)" d="M 3.16304,2.79675 l -0.268684,0 0,-1.09514 0.268684,0 0,0.658672 0.00906949,0.0634864 0.0419464,0.075957 0.0419464,0.0340106 0.0861601,0.0204063 1.08494,0.018139 -0.0374116,0.0782243 -0.673409,0.0419464 -0.553239,0.0147379 0,0.0895612 z "/>
<path fill="rgb(241,240,234)" stroke="rgb(241,240,234)" d="M 4.4271,2.57228 l -1.08494,-0.018139 0.647335,0 0.0680212,-0.00906949 0.0691548,-0.0453474 0.0351443,-0.0555506 0.0158716,-0.0906949 0,-0.651869 0.268684,0 0,0.752767 -0.00113369,0.0317432 -0.018139,0.0861601 z "/>
<path fill="rgb(241,240,234)" stroke="rgb(241,240,234)" d="M 3.34216,2.55414 l 0.0668875,-0.0102032 0.075957,-0.0464811 0.0385453,-0.0555506 0.018139,-0.0884275 0,-0.651869 0.257347,0 0,0.663206 0.00906949,0.057818 0.0476148,0.0748233 0.0498822,0.0374116 0.0838928,0.0192727 -0.647335,0 z "/>
<path fill="rgb(241,240,234)" stroke="rgb(241,240,234)" d="M 2.09737,3.22529 l -0.268684,-0.097497 0,-1.42618 0.268684,0 0,0.319699 0.148513,0.20293 -0.148513,0.194994 0,0.806051 z "/>
<path fill="rgb(241,240,234)" stroke="rgb(241,240,234)" d="M 2.7175,2.79109 l -0.33217,0 -0.287956,-0.371849 0.148513,-0.194994 0.214267,-0.522629 0.268684,0 -0.299293,0.741431 0.287956,0.348042 z "/>
<path fill="rgb(42,41,42)" stroke="rgb(42,41,42)" d="M 8.90354,4.50089 l 0.1,0 0,-4.25089 -0.000951325,-0.0217889 -0.00284674,-0.0216231 -0.00472048,-0.0212927 -0.0065583,-0.0208003 -0.00834621,-0.0201495 -0.0100706,-0.0193454 -0.0117183,-0.0183941 -0.0132769,-0.0173028 -0.0147344,-0.0160798 -0.0160798,-0.0147344 -0.0173028,-0.0132769 -0.0183941,-0.0117183 -0.0193454,-0.0100706 -0.0201495,-0.00834621 -0.0208003,-0.0065583 -0.0212927,-0.00472048 -0.0216231,-0.00284674 -0.0217889,-0.000951325 -8.50354,0 -0.0217889,0.000951325 -0.0216231,0.00284674 -0.0212927,0.00472048 -0.0208003,0.0065583 -0.0201495,0.00834621 -0.0193454,0.0100706 -0.0183941,0.0117183 -0.0173028,0.0132769 -0.0160798,0.0147344 -0.0147344,0.0160798 -0.0132769,0.0173028 -0.0117183,0.0183941 -0.0100706,0.0193454 -0.00834621,0.0201495 -0.0065583,0.0208003 -0.00472048,0.0212927 -0.00284674,0.0216231 -0.000951325,0.0217889 0,4.25089 0.1,0 0,-4.25089 0.000570795,-0.0130734 0.00170804,-0.0129739 0.00283229,-0.0127756 0.00393498,-0.0124802 0.00500773,-0.0120897 0.00604236,-0.0116073 0.007031,-0.0110365 0.00796614,-0.0103817 0.00884065,-0.00964788 0.00964788,-0.00884065 0.0103817,-0.00796614 0.0110365,-0.007031 0.0116073,-0.00604236 0.0120897,-0.00500773 0.0124802,-0.00393498 0.0127756,-0.00283229 0.0129739,-0.00170804 0.0130734,-0.000570795 8.50354,0 0.0130734,0.000570795 0.0129739,0.00170804 0.0127756,0.00283229 0.0124802,0.00393498 0.0120897,0.00500773 0.0116073,0.00604236 0.0110365,0.007031 0.0103817,0.00796614 0.00964788,0.00884065 0.00884065,0.00964788 0.00796614,0.0103817 0.007031,0.0110365 0.00604236,0.0116073 0.00500773,0.0120897 0.00393498,0.0124802 0.00283229,0.0127756 0.00170804,0.0129739 0.000570795,0.0130734 0,4.25089 z "/>
<path fill="rgb(42,41,42)" stroke="rgb(42,41,42)" d="M 8.90354,8.75178 l 0,-4.25089 0.1,0 0,4.25089 -0.000951325,0.0217889 -0.00284674,0.0216231 -0.00472048,0.0212927 -0.0065583,0.0208003 -0.00834621,0.0201495 -0.0100706,0.0193454 -0.0117183,0.0183941 -0.0132769,0.0173028 -0.0147344,0.0160798 -0.0160798,0.0147344 -0.0173028,0.0132769 -0.0183941,0.0117183 -0.0193454,0.0100706 -0.0201495,0.00834621 -0.0208003,0.0065583 -0.0212927,0.00472048 -0.0216231,0.00284674 -0.0217889,0.000951325 -8.50354,0 -0.0217889,-0.000951325 -0.0216231,-0.00284674 -0.0212927,-0.00472048 -0.0208003,-0.0065583 -0.0201495,-0.00834621 -0.0193454,-0.0100706 -0.0183941,-0.0117183 -0.0173028,-0.0132769 -0.0160798,-0.0147344 -0.0147344,-0.0160798 -0.0132769,-0.0173028 -0.0117183,-0.0183941 -0.0100706,-0.0193454 -0.00834621,-0.0201495 -0.0065583,-0.0208003 -0.00472048,-0.0212927 -0.00284674,-0.0216231 -0.000951325,-0.0217889 0,-4.25089 0.1,0 0,4.25089 0.000570795,0.0130734 0.00170804,0.0129739 0.00283229,0.0127756 0.00393498,0.0124802 0.00500773,0.0120897 0.00604236,0.0116073 0.007031,0.0110365 0.00796614,0.0103817 0.00884065,0.00964788 0.00964788,0.00884065 0.0103817,0.00796614 0.0110365,0.007031 0.0116073,0.00604236 0.0120897,0.00500773 0.0124802,0.00393498 0.0127756,0.00283229 0.0129739,0.00170804 0.0130734,0.000570795 8.50354,0 0.0130734,-0.000570795 0.0129739,-0.00170804 0.0127756,-0.00283229 0.0124802,-0.00393498 0.0120897,-0.00500773 0.0116073,-0.00604236 0.0110365,-0.007031 0.0103817,-0.00796614 0.00964788,-0.00884065 0.00884065,-0.00964788 0.00796614,-0.0103817 0.007031,-0.0110365 0.00604236,-0.0116073 0.00500773,-0.0120897 0.00393498,-0.0124802 0.00283229,-0.0127756 0.00170804,-0.0129739 0.000570795,-0.0130734 z "/>
</g></g></svg>
