<?xml version="1.0" encoding="UTF-8" standalone="no"?>
<!DOCTYPE svg PUBLIC "-//W3C//DTD SVG 1.1//EN" "http://www.w3.org/Graphics/SVG/1.1/DTD/svg11-flat.dtd"
[

]>
<svg xmlns="http://www.w3.org/2000/svg"  viewBox="-0.09375 -0.09375 7.6875 7.6875"><g fill="none" stroke="black" stroke-width="0.0125" transform="translate(0,7.5) scale(1, -1)">
<g id="Output" >
<path fill="rgb(241,240,234)" stroke="rgb(241,240,234)" d="M 0.2,3.75 l 0.0135088,-0.309403 0.0404237,-0.307048 0.0670308,-0.302357 0.0931279,-0.295364 0.118516,-0.286123 0.143002,-0.274705 0.1664,-0.261196 0.188532,-0.2457 0.209229,-0.228333 0.228333,-0.209229 0.2457,-0.188532 0.261196,-0.1664 0.274705,-0.143002 0.286123,-0.118516 0.295364,-0.0931279 0.302357,-0.0670308 0.307048,-0.0404237 0.309403,-0.0135088 0.309403,0.0135088 0.307048,0.0404237 0.302357,0.0670308 0.295364,0.0931279 0.286123,0.118516 0.274705,0.143002 0.261196,0.1664 0.2457,0.188532 0.228333,0.209229 0.209229,0.228333 0.188532,0.2457 0.1664,0.261196 0.143002,0.274705 0.118516,0.286123 0.0931279,0.295364 0.0670308,0.302357 0.0404237,0.307048 0.0135088,0.309403 -0.2,0 -0.0127478,-0.291972 -0.0381463,-0.28975 -0.0632545,-0.285322 -0.0878812,-0.278724 -0.111839,-0.270004 -0.134946,-0.259229 -0.157026,-0.246481 -0.17791,-0.231857 -0.197441,-0.215469 -0.215469,-0.197441 -0.231857,-0.17791 -0.246481,-0.157026 -0.259229,-0.134946 -0.270004,-0.111839 -0.278724,-0.0878812 -0.285322,-0.0632545 -0.28975,-0.0381463 -0.291972,-0.0127478 -0.291972,0.0127478 -0.28975,0.0381463 -0.285322,0.0632545 -0.278724,0.0878812 -0.270004,0.111839 -0.259229,0.134946 -0.246481,0.157026 -0.231857,0.17791 -0.215469,0.197441 -0.197441,0.215469 -0.17791,0.231857 -0.157026,0.246481 -0.134946,0.259229 -0.111839,0.270004 -0.0878812,0.278724 -0.0632545,0.285322 -0.0381463,0.28975 -0.0127478,0.291972 -0.2,0 z "/>
<path fill="rgb(241,240,234)" stroke="rgb(241,240,234)" d="M 0.2,3.75 l 0.2,0 0.0127478,0.291972 0.0381463,0.28975 0.0632545,0.285322 0.0878812,0.278724 0.111839,0.270004 0.134946,0.259229 0.157026,0.246481 0.17791,0.231857 0.197441,0.215469 0.215469,0.197441 0.231857,0.17791 0.246481,0.157026 0.259229,0.134946 0.270004,0.111839 0.278724,0.0878812 0.285322,0.0632545 0.28975,0.0381463 0.291972,0.0127478 0.291972,-0.0127478 0.28975,-0.0381463 0.285322,-0.0632545 0.278724,-0.0878812 0.270004,-0.111839 0.259229,-0.134946 0.246481,-0.157026 0.231857,-0.17791 0.215469,-0.197441 0.197441,-0.215469 0.17791,-0.231857 0.157026,-0.246481 0.134946,-0.259229 0.111839,-0.270004 0.0878812,-0.278724 0.0632545,-0.285322 0.0381463,-0.28975 0.0127478,-0.291972 0.2,0 -0.0135088,0.309403 -0.0404237,0.307048 -0.0670308,0.302357 -0.0931279,0.295364 -0.118516,0.286123 -0.143002,0.274705 -0.1664,0.261196 -0.188532,0.2457 -0.209229,0.228333 -0.228333,0.209229 -0.2457,0.188532 -0.261196,0.1664 -0.274705,0.143002 -0.286123,0.118516 -0.295364,0.0931279 -0.302357,0.0670308 -0.307048,0.0404237 -0.309403,0.0135088 -0.309403,-0.0135088 -0.307048,-0.0404237 -0.302357,-0.0670308 -0.295364,-0.0931279 -0.286123,-0.118516 -0.274705,-0.143002 -0.261196,-0.1664 -0.2457,-0.188532 -0.228333,-0.209229 -0.209229,-0.228333 -0.188532,-0.2457 -0.1664,-0.261196 -0.143002,-0.274705 -0.118516,-0.286123 -0.0931279,-0.295364 -0.0670308,-0.302357 -0.0404237,-0.307048 -0.0135088,-0.309403 z "/>
<path fill="rgb(241,240,234)" stroke="rgb(241,240,234)" d="M 6.4,3.75 l -5.3,0 0.0100841,-0.230963 0.0301754,-0.229205 0.0500371,-0.225703 0.069518,-0.220483 0.0884698,-0.213585 0.106748,-0.205062 0.124214,-0.194978 0.140735,-0.18341 0.156185,-0.170446 0.170446,-0.156185 0.18341,-0.140735 0.194978,-0.124214 0.205062,-0.106748 0.213585,-0.0884698 0.220483,-0.069518 0.225703,-0.0500371 0.229205,-0.0301754 0.230963,-0.0100841 0.230963,0.0100841 0.229205,0.0301754 0.225703,0.0500371 0.220483,0.069518 0.213585,0.0884698 0.205062,0.106748 0.194978,0.124214 0.18341,0.140735 0.170446,0.156185 0.156185,0.170446 0.140735,0.18341 0.124214,0.194978 0.106748,0.205062 0.0884698,0.213585 0.069518,0.220483 0.0500371,0.225703 0.0301754,0.229205 0.0100841,0.230963 z "/>
<path fill="rgb(241,240,234)" stroke="rgb(241,240,234)" d="M 6.4,3.75 l -0.0100841,0.230963 -0.0301754,0.229205 -0.0500371,0.225703 -0.069518,0.220483 -0.0884698,0.213585 -0.106748,0.205062 -0.124214,0.194978 -0.140735,0.18341 -0.156185,0.170446 -0.170446,0.156185 -0.18341,0.140735 -0.194978,0.124214 -0.205062,0.106748 -0.213585,0.0884698 -0.220483,0.069518 -0.225703,0.0500371 -0.229205,0.0301754 -0.230963,0.0100841 -0.230963,-0.0100841 -0.229205,-0.0301754 -0.225703,-0.0500371 -0.220483,-0.069518 -0.213585,-0.0884698 -0.205062,-0.106748 -0.194978,-0.124214 -0.18341,-0.140735 -0.170446,-0.156185 -0.156185,-0.170446 -0.140735,-0.18341 -0.124214,-0.194978 -0.106748,-0.205062 -0.0884698,-0.213585 -0.069518,-0.220483 -0.0500371,-0.225703 -0.0301754,-0.229205 -0.0100841,-0.230963 5.3,0 z "/>
<path fill="rgb(42,41,42)" stroke="rgb(42,41,42)" d="M 5.20552,3.07924 l -0.0264895,0 -0.0709539,-0.0122987 -0.0652776,-0.0274355 -0.0596013,-0.0406803 -0.053925,-0.0558171 -0.03595,-0.0482487 -0.0340579,-0.0643316 -0.0236513,-0.0690618 -0.0151368,-0.072846 -0.00473026,-0.0785224 0.00378421,-0.0719 0.0132447,-0.0747381 0.0236513,-0.0690618 0.0321658,-0.0643316 0.326388,0.00851447 -0.0444645,0.00662237 -0.0633855,0.0406803 -0.0378421,0.0501408 -0.0255434,0.0737921 -0.00946052,0.0302737 0.557225,0 0,0.0662237 -0.000946052,0.0312197 -0.00946052,0.0737921 -0.533574,0.00378421 0.0151368,0.0510868 0.036896,0.0614934 0.0501408,0.0378421 0.0652776,0.0122987 0.304629,0.00567631 -0.036896,0.0558171 -0.0198671,0.0236513 -0.0558171,0.0510868 -0.0605474,0.036896 -0.0671697,0.0217592 -0.0737921,0.00662237 z "/>
<path fill="rgb(42,41,42)" stroke="rgb(42,41,42)" d="M 5.51961,2.88341 l -0.304629,-0.00567631 0.0321658,-0.00283816 0.0624395,-0.0302737 0.0312197,-0.0473026 0.0302737,-0.0823066 -0.32355,0 0.533574,-0.00378421 -0.0208132,0.0747381 -0.00851447,0.0245974 -0.0321658,0.072846 z "/>
<path fill="rgb(42,41,42)" stroke="rgb(42,41,42)" d="M 5.35878,2.41322 l -0.0160829,-0.0160829 -0.0633855,-0.0444645 -0.0643316,-0.0141908 -0.326388,-0.00851447 0.0416263,-0.0596013 0.0236513,-0.0264895 0.0567631,-0.0482487 0.0624395,-0.0350039 0.0681158,-0.0217592 0.0737921,-0.00662237 0.03595,0.0018921 0.0709539,0.0132447 0.0652776,0.0274355 0.0596013,0.0416263 0.053925,0.0558171 0.00756842,0.00946052 -0.149476,0.131501 z "/>
<path fill="rgb(42,41,42)" stroke="rgb(42,41,42)" d="M 4.30772,3.08303 l -0.0217592,0 -0.0747381,-0.0132447 -0.0643316,-0.0302737 -0.053925,-0.0473026 0.504246,-0.0463566 -0.0491947,0.0558171 -0.0274355,0.0208132 -0.0614934,0.0340579 -0.0709539,0.0198671 -0.0804145,0.00662237 z "/>
<path fill="rgb(42,41,42)" stroke="rgb(42,41,42)" d="M 4.09296,3.06694 l -0.224214,0 0,-0.912941 0.224214,0 0,0.54871 0.00851447,0.053925 0.0387881,0.0643316 0.0435184,0.0340579 0.0709539,0.0170289 0.372745,0.00946052 -0.0302737,0.0643316 -0.504246,0.0463566 0,0.0747381 z "/>
<path fill="rgb(42,41,42)" stroke="rgb(42,41,42)" d="M 4.62748,2.88152 l -0.372745,-0.00946052 0.0605474,-0.00851447 0.0596013,-0.036896 0.0340579,-0.0491947 0.0132447,-0.0747381 0,-0.54871 0.218538,0 0,0.635747 0,0.018921 -0.0132447,0.072846 z "/>
<path fill="rgb(42,41,42)" stroke="rgb(42,41,42)" d="M 3.28314,3.0887 l -0.0350039,-0.0018921 -0.0700079,-0.0132447 -0.0652776,-0.0274355 -0.0596013,-0.0416263 -0.054871,-0.0558171 -0.0378421,-0.0529789 -0.0331118,-0.0643316 -0.0245974,-0.0681158 -0.0141908,-0.0747381 -0.00473026,-0.0785224 0.00378421,-0.0690618 0.0132447,-0.0747381 0.0227053,-0.0690618 0.0331118,-0.0643316 0.326388,0.0198671 -0.00756842,0 -0.0671697,0.0198671 -0.0529789,0.0529789 -0.018921,0.0340579 -0.0217592,0.0681158 -0.00662237,0.0823066 0.0018921,0.0454105 0.0151368,0.0747381 0.0302737,0.0614934 0.00473026,0.00662237 0.054871,0.0501408 0.0681158,0.0160829 0.324496,0.0245974 -0.0425724,0.0596013 -0.0236513,0.0255434 -0.0577092,0.0501408 -0.0624395,0.03595 -0.0671697,0.0217592 -0.0709539,0.00662237 z "/>
<path fill="rgb(42,41,42)" stroke="rgb(42,41,42)" d="M 3.60764,2.88909 l -0.324496,-0.0245974 0.00283816,0 0.0671697,-0.017975 0.053925,-0.0529789 0.0170289,-0.0321658 0.0208132,-0.0690618 0.00756842,-0.0823066 -0.00283816,-0.0473026 -0.0141908,-0.0747381 -0.0283816,-0.0624395 -0.00378421,-0.00473026 -0.0520329,-0.0510868 -0.0681158,-0.0170289 -0.326388,-0.0198671 0.0416263,-0.0605474 0.0245974,-0.0274355 0.0567631,-0.0491947 0.0624395,-0.0350039 0.0671697,-0.0217592 0.0737921,-0.00662237 0.0312197,0.000946052 0.0690618,0.0132447 0.0652776,0.0283816 0.0605474,0.0416263 0.0558171,0.0558171 0.0387881,0.0529789 0.0340579,0.0633855 0.0245974,0.0681158 0.0141908,0.0737921 0.00473026,0.0794684 -0.00378421,0.0719 -0.0141908,0.0747381 -0.0227053,0.0690618 -0.0331118,0.0633855 z "/>
<path fill="rgb(42,41,42)" stroke="rgb(42,41,42)" d="M 2.77511,3.06694 l -0.770087,0 0,-0.22043 0.43613,0 -0.458835,-0.493839 0,-0.198671 0.792792,0 0,0.214754 -0.486271,0 0.486271,0.515599 0,0.182588 z "/>
<path fill="rgb(42,41,42)" stroke="rgb(42,41,42)" d="M 5.49691,4.66104 l -0.224214,0 0,-0.626287 0.000946052,-0.018921 0.0132447,-0.072846 0.371799,0.00946052 -0.0586553,0.00851447 -0.0596013,0.036896 -0.0293276,0.0463566 -0.0141908,0.0737921 0,0.543034 z "/>
<path fill="rgb(42,41,42)" stroke="rgb(42,41,42)" d="M 6.03994,4.66104 l -0.211916,0 0,-0.545872 -0.00851447,-0.0510868 -0.0425724,-0.0624395 -0.0473026,-0.0331118 -0.0709539,-0.0160829 -0.371799,-0.00946052 0.0302737,-0.0643316 0.510868,-0.053925 0,-0.0709539 0.211916,0 0,0.907264 z "/>
<path fill="rgb(42,41,42)" stroke="rgb(42,41,42)" d="M 5.31716,3.87866 l 0.0482487,-0.0558171 0.0293276,-0.0217592 0.0614934,-0.0331118 0.0709539,-0.0198671 0.0804145,-0.00662237 0.0321658,0.000946052 0.0681158,0.0113526 0.0435184,0.0227053 0.0766302,0.0482487 -0.510868,0.053925 z "/>
<path fill="rgb(42,41,42)" stroke="rgb(42,41,42)" d="M 4.73912,4.67996 l -0.0255434,-0.000946052 -0.0719,-0.0122987 -0.0652776,-0.0274355 -0.0596013,-0.0406803 -0.053925,-0.0558171 -0.0350039,-0.0482487 -0.0340579,-0.0643316 -0.0245974,-0.0690618 -0.0141908,-0.072846 -0.00567631,-0.0785224 0.00473026,-0.0719 0.0132447,-0.0747381 0.0227053,-0.0690618 0.0321658,-0.0643316 0.326388,0.00851447 -0.0444645,0.00662237 -0.0633855,0.0406803 -0.036896,0.0510868 -0.0264895,0.072846 -0.00946052,0.0302737 0.557225,0 0,0.0662237 -0.000946052,0.0312197 -0.00946052,0.0737921 -0.533574,0.00378421 0.0151368,0.0510868 0.036896,0.0614934 0.0510868,0.0378421 0.0643316,0.0122987 0.304629,0.00567631 -0.036896,0.0558171 -0.0198671,0.0236513 -0.054871,0.0510868 -0.0614934,0.036896 -0.0671697,0.0217592 -0.0737921,0.00756842 z "/>
<path fill="rgb(42,41,42)" stroke="rgb(42,41,42)" d="M 5.05321,4.48318 l -0.304629,-0.00567631 0.0321658,-0.00283816 0.0624395,-0.0302737 0.0312197,-0.0473026 0.0312197,-0.0823066 -0.324496,0 0.533574,-0.00378421 -0.0198671,0.0747381 -0.00851447,0.0245974 -0.0331118,0.072846 z "/>
<path fill="rgb(42,41,42)" stroke="rgb(42,41,42)" d="M 4.89238,4.013 l -0.0160829,-0.0160829 -0.0624395,-0.0444645 -0.0652776,-0.0141908 -0.326388,-0.00851447 0.0425724,-0.0596013 0.0236513,-0.0255434 0.0567631,-0.0491947 0.0624395,-0.0350039 0.0671697,-0.0217592 0.0737921,-0.00662237 0.03595,0.0018921 0.0709539,0.0132447 0.0652776,0.0283816 0.0596013,0.0416263 0.053925,0.054871 0.00756842,0.00946052 -0.149476,0.131501 z "/>
<path fill="rgb(42,41,42)" stroke="rgb(42,41,42)" d="M 4.04945,5.02433 l -0.0160829,-0.000946052 -0.0662237,-0.0302737 -0.00851447,-0.00851447 -0.0236513,-0.0681158 0.000946052,-0.017975 0.0312197,-0.0643316 0.0132447,-0.0104066 0.0690618,-0.0217592 0.0151368,0.000946052 0.0652776,0.0331118 0.00946052,0.0113526 0.0227053,0.0690618 0,0.0113526 -0.0321658,0.0652776 -0.0104066,0.00946052 -0.0700079,0.0217592 z "/>
<path fill="rgb(42,41,42)" stroke="rgb(42,41,42)" d="M 4.16203,4.66672 l -0.222322,0 0,-0.912941 0.222322,0 0,0.912941 z "/>
<path fill="rgb(42,41,42)" stroke="rgb(42,41,42)" d="M 3.71265,3.75378 l -0.224214,0 0,1.17878 0.224214,0.0917671 0,-1.27055 z "/>
<path fill="rgb(42,41,42)" stroke="rgb(42,41,42)" d="M 3.14975,5.02433 l -0.0160829,-0.000946052 -0.0652776,-0.0302737 -0.00946052,-0.00851447 -0.0236513,-0.0681158 0.000946052,-0.017975 0.0321658,-0.0643316 0.0122987,-0.0104066 0.0690618,-0.0217592 0.0160829,0.000946052 0.0643316,0.0331118 0.00946052,0.0113526 0.0227053,0.0690618 0,0.0113526 -0.0321658,0.0652776 -0.0104066,0.00946052 -0.0700079,0.0217592 z "/>
<path fill="rgb(42,41,42)" stroke="rgb(42,41,42)" d="M 3.26233,4.66672 l -0.221376,0 0,-0.912941 0.221376,0 0,0.912941 z "/>
<path fill="rgb(42,41,42)" stroke="rgb(42,41,42)" d="M 2.75998,5.00351 l -0.218538,-0.486271 0,-0.763464 0.218538,0 0,1.24974 z "/>
<path fill="rgb(42,41,42)" stroke="rgb(42,41,42)" d="M 2.75998,5.00351 l -0.218538,0 -0.367068,-0.739813 0,-0.509922 0.367068,0.763464 0.218538,0.486271 z "/>
<path fill="rgb(42,41,42)" stroke="rgb(42,41,42)" d="M 1.81014,5.00351 l 0,-0.486271 0.36423,-0.763464 0,0.509922 -0.36423,0.739813 z "/>
<path fill="rgb(42,41,42)" stroke="rgb(42,41,42)" d="M 1.81014,5.00351 l -0.218538,0 0,-1.24974 0.218538,0 0,0.763464 0,0.486271 z "/>
<path fill="rgb(187,30,16)" stroke="rgb(187,30,16)" d="M 0.2,3.75 l -0.2,0 0.0142699,-0.326834 0.042701,-0.324347 0.0708072,-0.319391 0.0983745,-0.312004 0.125193,-0.302243 0.151059,-0.290182 0.175775,-0.275912 0.199154,-0.259542 0.221016,-0.241197 0.241197,-0.221016 0.259542,-0.199154 0.275912,-0.175775 0.290182,-0.151059 0.302243,-0.125193 0.312004,-0.0983745 0.319391,-0.0708072 0.324347,-0.042701 0.326834,-0.0142699 0.326834,0.0142699 0.324347,0.042701 0.319391,0.0708072 0.312004,0.0983745 0.302243,0.125193 0.290182,0.151059 0.275912,0.175775 0.259542,0.199154 0.241197,0.221016 0.221016,0.241197 0.199154,0.259542 0.175775,0.275912 0.151059,0.290182 0.125193,0.302243 0.0983745,0.312004 0.0708072,0.319391 0.042701,0.324347 0.0142699,0.326834 -0.2,0 -0.0135088,-0.309403 -0.0404237,-0.307048 -0.0670308,-0.302357 -0.0931279,-0.295364 -0.118516,-0.286123 -0.143002,-0.274705 -0.1664,-0.261196 -0.188532,-0.2457 -0.209229,-0.228333 -0.228333,-0.209229 -0.2457,-0.188532 -0.261196,-0.1664 -0.274705,-0.143002 -0.286123,-0.118516 -0.295364,-0.0931279 -0.302357,-0.0670308 -0.307048,-0.0404237 -0.309403,-0.0135088 -0.309403,0.0135088 -0.307048,0.0404237 -0.302357,0.0670308 -0.295364,0.0931279 -0.286123,0.118516 -0.274705,0.143002 -0.261196,0.1664 -0.2457,0.188532 -0.228333,0.209229 -0.209229,0.228333 -0.188532,0.2457 -0.1664,0.261196 -0.143002,0.274705 -0.118516,0.286123 -0.0931279,0.295364 -0.0670308,0.302357 -0.0404237,0.307048 -0.0135088,0.309403 z "/>
<path fill="rgb(187,30,16)" stroke="rgb(187,30,16)" d="M 0.2,3.75 l 0.0135088,0.309403 0.0404237,0.307048 0.0670308,0.302357 0.0931279,0.295364 0.118516,0.286123 0.143002,0.274705 0.1664,0.261196 0.188532,0.2457 0.209229,0.228333 0.228333,0.209229 0.2457,0.188532 0.261196,0.1664 0.274705,0.143002 0.286123,0.118516 0.295364,0.0931279 0.302357,0.0670308 0.307048,0.0404237 0.309403,0.0135088 0.309403,-0.0135088 0.307048,-0.0404237 0.302357,-0.0670308 0.295364,-0.0931279 0.286123,-0.118516 0.274705,-0.143002 0.261196,-0.1664 0.2457,-0.188532 0.228333,-0.209229 0.209229,-0.228333 0.188532,-0.2457 0.1664,-0.261196 0.143002,-0.274705 0.118516,-0.286123 0.0931279,-0.295364 0.0670308,-0.302357 0.0404237,-0.307048 0.0135088,-0.309403 0.2,0 -0.0142699,0.326834 -0.042701,0.324347 -0.0708072,0.319391 -0.0983745,0.312004 -0.125193,0.302243 -0.151059,0.290182 -0.175775,0.275912 -0.199154,0.259542 -0.221016,0.241197 -0.241197,0.221016 -0.259542,0.199154 -0.275912,0.175775 -0.290182,0.151059 -0.302243,0.125193 -0.312004,0.0983745 -0.319391,0.0708072 -0.324347,0.042701 -0.326834,0.0142699 -0.326834,-0.0142699 -0.324347,-0.042701 -0.319391,-0.0708072 -0.312004,-0.0983745 -0.302243,-0.125193 -0.290182,-0.151059 -0.275912,-0.175775 -0.259542,-0.199154 -0.241197,-0.221016 -0.221016,-0.241197 -0.199154,-0.259542 -0.175775,-0.275912 -0.151059,-0.290182 -0.125193,-0.302243 -0.0983745,-0.312004 -0.0708072,-0.319391 -0.042701,-0.324347 -0.0142699,-0.326834 0.2,0 z "/>
<path fill="rgb(187,30,16)" stroke="rgb(187,30,16)" d="M 6.4,3.75 l -0.0100841,-0.230963 -0.0301754,-0.229205 -0.0500371,-0.225703 -0.069518,-0.220483 -0.0884698,-0.213585 -0.106748,-0.205062 -0.124214,-0.194978 -0.140735,-0.18341 -0.156185,-0.170446 -0.170446,-0.156185 -0.18341,-0.140735 -0.194978,-0.124214 -0.205062,-0.106748 -0.213585,-0.0884698 -0.220483,-0.069518 -0.225703,-0.0500371 -0.229205,-0.0301754 -0.230963,-0.0100841 -0.230963,0.0100841 -0.229205,0.0301754 -0.225703,0.0500371 -0.220483,0.069518 -0.213585,0.0884698 -0.205062,0.106748 -0.194978,0.124214 -0.18341,0.140735 -0.170446,0.156185 -0.156185,0.170446 -0.140735,0.18341 -0.124214,0.194978 -0.106748,0.205062 -0.0884698,0.213585 -0.069518,0.220483 -0.0500371,0.225703 -0.0301754,0.229205 -0.0100841,0.230963 -0.7,0 0.0127478,-0.291972 0.0381463,-0.28975 0.0632545,-0.285322 0.0878812,-0.278724 0.111839,-0.270004 0.134946,-0.259229 0.157026,-0.246481 0.17791,-0.231857 0.197441,-0.215469 0.215469,-0.197441 0.231857,-0.17791 0.246481,-0.157026 0.259229,-0.134946 0.270004,-0.111839 0.278724,-0.0878812 0.285322,-0.0632545 0.28975,-0.0381463 0.291972,-0.0127478 0.291972,0.0127478 0.28975,0.0381463 0.285322,0.0632545 0.278724,0.0878812 0.270004,0.111839 0.259229,0.134946 0.246481,0.157026 0.231857,0.17791 0.215469,0.197441 0.197441,0.215469 0.17791,0.231857 0.157026,0.246481 0.134946,0.259229 0.111839,0.270004 0.0878812,0.278724 0.0632545,0.285322 0.0381463,0.28975 0.0127478,0.291972 -0.7,0 z "/>
<path fill="rgb(187,30,16)" stroke="rgb(187,30,16)" d="M 6.4,3.75 l 0.7,0 -0.0127478,0.291972 -0.0381463,0.28975 -0.0632545,0.285322 -0.0878812,0.278724 -0.111839,0.270004 -0.134946,0.259229 -0.157026,0.246481 -0.17791,0.231857 -0.197441,0.215469 -0.215469,0.197441 -0.231857,0.17791 -0.246481,0.157026 -0.259229,0.134946 -0.270004,0.111839 -0.278724,0.0878812 -0.285322,0.0632545 -0.28975,0.0381463 -0.291972,0.0127478 -0.291972,-0.0127478 -0.28975,-0.0381463 -0.285322,-0.0632545 -0.278724,-0.0878812 -0.270004,-0.111839 -0.259229,-0.134946 -0.246481,-0.157026 -0.231857,-0.17791 -0.215469,-0.197441 -0.197441,-0.215469 -0.17791,-0.231857 -0.157026,-0.246481 -0.134946,-0.259229 -0.111839,-0.270004 -0.0878812,-0.278724 -0.0632545,-0.285322 -0.0381463,-0.28975 -0.0127478,-0.291972 0.7,0 0.0100841,0.230963 0.0301754,0.229205 0.0500371,0.225703 0.069518,0.220483 0.0884698,0.213585 0.106748,0.205062 0.124214,0.194978 0.140735,0.18341 0.156185,0.170446 0.170446,0.156185 0.18341,0.140735 0.194978,0.124214 0.205062,0.106748 0.213585,0.0884698 0.220483,0.069518 0.225703,0.0500371 0.229205,0.0301754 0.230963,0.0100841 0.230963,-0.0100841 0.229205,-0.0301754 0.225703,-0.0500371 0.220483,-0.069518 0.213585,-0.0884698 0.205062,-0.106748 0.194978,-0.124214 0.18341,-0.140735 0.170446,-0.156185 0.156185,-0.170446 0.140735,-0.18341 0.124214,-0.194978 0.106748,-0.205062 0.0884698,-0.213585 0.069518,-0.220483 0.0500371,-0.225703 0.0301754,-0.229205 0.0100841,-0.230963 z "/>
</g></g></svg>
