<?xml version="1.0" encoding="UTF-8" standalone="no"?>
<!DOCTYPE svg PUBLIC "-//W3C//DTD SVG 1.1//EN" "http://www.w3.org/Graphics/SVG/1.1/DTD/svg11-flat.dtd"
[

]>
<svg xmlns="http://www.w3.org/2000/svg"  viewBox="-0.09375 -0.09375 7.6875 7.6875"><g fill="none" stroke="black" stroke-width="0.0125" transform="translate(0,7.5) scale(1, -1)">
<g id="Output" >
<path fill="rgb(0,91,140)" stroke="rgb(0,91,140)" d="M 7.1,6.25147 l -5.85147,-5.85147 5.55147,0 0.0261467,0.00114159 0.0259477,0.00341608 0.0255513,0.00566458 0.0249603,0.00786996 0.0241794,0.0100155 0.0232145,0.0120847 0.0220729,0.014062 0.0207634,0.0159323 0.0192958,0.0176813 0.0176813,0.0192958 0.0159323,0.0207634 0.014062,0.0220729 0.0120847,0.0232145 0.0100155,0.0241794 0.00786996,0.0249603 0.00566458,0.0255513 0.00341608,0.0259477 0.00114159,0.0261467 0,3.05 -8.88178e-16,2.50147 z "/>
<path fill="rgb(0,91,140)" stroke="rgb(0,91,140)" d="M 0.4,3.75 l 1.33227e-15,-2.50147 5.85147,5.85147 -5.55147,-2.66454e-15 -0.0261467,-0.00114159 -0.0259477,-0.00341608 -0.0255513,-0.00566458 -0.0249603,-0.00786996 -0.0241794,-0.0100155 -0.0232145,-0.0120847 -0.0220729,-0.014062 -0.0207634,-0.0159323 -0.0192958,-0.0176813 -0.0176813,-0.0192958 -0.0159323,-0.0207634 -0.014062,-0.0220729 -0.0120847,-0.0232145 -0.0100155,-0.0241794 -0.00786996,-0.0249603 -0.00566458,-0.0255513 -0.00341608,-0.0259477 -0.00114159,-0.0261467 4.44089e-16,-3.05 z "/>
<path fill="rgb(241,240,234)" stroke="rgb(241,240,234)" d="M 7.1,6.25147 l 0,0.282843 -6.13431,-6.13431 0.282843,0 5.85147,5.85147 z "/>
<path fill="rgb(241,240,234)" stroke="rgb(241,240,234)" d="M 0.4,0.965685 l 6.13431,6.13431 -0.282843,1.77636e-15 -5.85147,-5.85147 -4.44089e-16,-0.282843 z "/>
<path fill="rgb(241,240,234)" stroke="rgb(241,240,234)" d="M 0.4,3.75 l -0.2,-4.44089e-16 4.44089e-16,-3.05 0.00190265,-0.0435779 0.00569347,-0.0432462 0.00944096,-0.0425854 0.0131166,-0.0416005 0.0166924,-0.0402991 0.0201412,-0.0386909 0.0234367,-0.0367882 0.0265538,-0.0346056 0.0294688,-0.0321596 0.0321596,-0.0294688 0.0346056,-0.0265538 0.0367882,-0.0234367 0.0386909,-0.0201412 0.0402991,-0.0166924 0.0416005,-0.0131166 0.0425854,-0.00944096 0.0432462,-0.00569347 0.0435779,-0.00190265 6.1,0 0.0435779,0.00190265 0.0432462,0.00569347 0.0425854,0.00944096 0.0416005,0.0131166 0.0402991,0.0166924 0.0386909,0.0201412 0.0367882,0.0234367 0.0346056,0.0265538 0.0321596,0.0294688 0.0294688,0.0321596 0.0265538,0.0346056 0.0234367,0.0367882 0.0201412,0.0386909 0.0166924,0.0402991 0.0131166,0.0416005 0.00944096,0.0425854 0.00569347,0.0432462 0.00190265,0.0435779 0,3.05 -0.2,4.44089e-16 0,-3.05 -0.00114159,-0.0261467 -0.00341608,-0.0259477 -0.00566458,-0.0255513 -0.00786996,-0.0249603 -0.0100155,-0.0241794 -0.0120847,-0.0232145 -0.014062,-0.0220729 -0.0159323,-0.0207634 -0.0176813,-0.0192958 -0.0192958,-0.0176813 -0.0207634,-0.0159323 -0.0220729,-0.014062 -0.0232145,-0.0120847 -0.0241794,-0.0100155 -0.0249603,-0.00786996 -0.0255513,-0.00566458 -0.0259477,-0.00341608 -0.0261467,-0.00114159 -5.55147,0 -0.282843,0 -0.265685,0 -0.0261467,0.00114159 -0.0259477,0.00341608 -0.0255513,0.00566458 -0.0249603,0.00786996 -0.0241794,0.0100155 -0.0232145,0.0120847 -0.0220729,0.014062 -0.0207634,0.0159323 -0.0192958,0.0176813 -0.0176813,0.0192958 -0.0159323,0.0207634 -0.014062,0.0220729 -0.0120847,0.0232145 -0.0100155,0.0241794 -0.00786996,0.0249603 -0.00566458,0.0255513 -0.00341608,0.0259477 -0.00114159,0.0261467 4.44089e-16,0.265685 4.44089e-16,0.282843 -1.33227e-15,2.50147 z "/>
<path fill="rgb(241,240,234)" stroke="rgb(241,240,234)" d="M 0.2,3.75 l 0.2,4.44089e-16 -4.44089e-16,3.05 0.00114159,0.0261467 0.00341608,0.0259477 0.00566458,0.0255513 0.00786996,0.0249603 0.0100155,0.0241794 0.0120847,0.0232145 0.014062,0.0220729 0.0159323,0.0207634 0.0176813,0.0192958 0.0192958,0.0176813 0.0207634,0.0159323 0.0220729,0.014062 0.0232145,0.0120847 0.0241794,0.0100155 0.0249603,0.00786996 0.0255513,0.00566458 0.0259477,0.00341608 0.0261467,0.00114159 5.55147,2.66454e-15 0.282843,-1.77636e-15 0.265685,0 0.0261467,-0.00114159 0.0259477,-0.00341608 0.0255513,-0.00566458 0.0249603,-0.00786996 0.0241794,-0.0100155 0.0232145,-0.0120847 0.0220729,-0.014062 0.0207634,-0.0159323 0.0192958,-0.0176813 0.0176813,-0.0192958 0.0159323,-0.0207634 0.014062,-0.0220729 0.0120847,-0.0232145 0.0100155,-0.0241794 0.00786996,-0.0249603 0.00566458,-0.0255513 0.00341608,-0.0259477 0.00114159,-0.0261467 0,-0.265685 0,-0.282843 8.88178e-16,-2.50147 0.2,-4.44089e-16 -8.88178e-16,3.05 -0.00190265,0.0435779 -0.00569347,0.0432462 -0.00944096,0.0425854 -0.0131166,0.0416005 -0.0166924,0.0402991 -0.0201412,0.0386909 -0.0234367,0.0367882 -0.0265538,0.0346056 -0.0294688,0.0321596 -0.0321596,0.0294688 -0.0346056,0.0265538 -0.0367882,0.0234367 -0.0386909,0.0201412 -0.0402991,0.0166924 -0.0416005,0.0131166 -0.0425854,0.00944096 -0.0432462,0.00569347 -0.0435779,0.00190265 -6.1,-8.88178e-16 -0.0435779,-0.00190265 -0.0432462,-0.00569347 -0.0425854,-0.00944096 -0.0416005,-0.0131166 -0.0402991,-0.0166924 -0.0386909,-0.0201412 -0.0367882,-0.0234367 -0.0346056,-0.0265538 -0.0321596,-0.0294688 -0.0294688,-0.0321596 -0.0265538,-0.0346056 -0.0234367,-0.0367882 -0.0201412,-0.0386909 -0.0166924,-0.0402991 -0.0131166,-0.0416005 -0.00944096,-0.0425854 -0.00569347,-0.0432462 -0.00190265,-0.0435779 4.44089e-16,-3.05 z "/>
<path fill="rgb(0,91,140)" stroke="rgb(0,91,140)" d="M 0.2,3.75 l -0.2,0 4.44089e-16,-3.05 0.00266371,-0.061009 0.00797086,-0.0605447 0.0132173,-0.0596196 0.0183632,-0.0582408 0.0233694,-0.0564187 0.0281977,-0.0541672 0.0328114,-0.0515035 0.0371753,-0.0484478 0.0412564,-0.0450234 0.0450234,-0.0412564 0.0484478,-0.0371753 0.0515035,-0.0328114 0.0541672,-0.0281977 0.0564187,-0.0233694 0.0582408,-0.0183632 0.0596196,-0.0132173 0.0605447,-0.00797086 0.061009,-0.00266371 6.1,-8.88178e-16 0.061009,0.00266371 0.0605447,0.00797086 0.0596196,0.0132173 0.0582408,0.0183632 0.0564187,0.0233694 0.0541672,0.0281977 0.0515035,0.0328114 0.0484478,0.0371753 0.0450234,0.0412564 0.0412564,0.0450234 0.0371753,0.0484478 0.0328114,0.0515035 0.0281977,0.0541672 0.0233694,0.0564187 0.0183632,0.0582408 0.0132173,0.0596196 0.00797086,0.0605447 0.00266371,0.061009 -1.77636e-15,3.05 -0.2,-8.88178e-16 0,-3.05 -0.00190265,-0.0435779 -0.00569347,-0.0432462 -0.00944096,-0.0425854 -0.0131166,-0.0416005 -0.0166924,-0.0402991 -0.0201412,-0.0386909 -0.0234367,-0.0367882 -0.0265538,-0.0346056 -0.0294688,-0.0321596 -0.0321596,-0.0294688 -0.0346056,-0.0265538 -0.0367882,-0.0234367 -0.0386909,-0.0201412 -0.0402991,-0.0166924 -0.0416005,-0.0131166 -0.0425854,-0.00944096 -0.0432462,-0.00569347 -0.0435779,-0.00190265 -6.1,0 -0.0435779,0.00190265 -0.0432462,0.00569347 -0.0425854,0.00944096 -0.0416005,0.0131166 -0.0402991,0.0166924 -0.0386909,0.0201412 -0.0367882,0.0234367 -0.0346056,0.0265538 -0.0321596,0.0294688 -0.0294688,0.0321596 -0.0265538,0.0346056 -0.0234367,0.0367882 -0.0201412,0.0386909 -0.0166924,0.0402991 -0.0131166,0.0416005 -0.00944096,0.0425854 -0.00569347,0.0432462 -0.00190265,0.0435779 -4.44089e-16,3.05 z "/>
<path fill="rgb(0,91,140)" stroke="rgb(0,91,140)" d="M 6.8,7.3 l 0.0435779,-0.00190265 0.0432462,-0.00569347 0.0425854,-0.00944096 0.0416005,-0.0131166 0.0402991,-0.0166924 0.0386909,-0.0201412 0.0367882,-0.0234367 0.0346056,-0.0265538 0.0321596,-0.0294688 0.0294688,-0.0321596 0.0265538,-0.0346056 0.0234367,-0.0367882 0.0201412,-0.0386909 0.0166924,-0.0402991 0.0131166,-0.0416005 0.00944096,-0.0425854 0.00569347,-0.0432462 0.00190265,-0.0435779 8.88178e-16,-3.05 0.2,8.88178e-16 1.77636e-15,3.05 -0.00266371,0.061009 -0.00797086,0.0605447 -0.0132173,0.0596196 -0.0183632,0.0582408 -0.0233694,0.0564187 -0.0281977,0.0541672 -0.0328114,0.0515035 -0.0371753,0.0484478 -0.0412564,0.0450234 -0.0450234,0.0412564 -0.0484478,0.0371753 -0.0515035,0.0328114 -0.0541672,0.0281977 -0.0564187,0.0233694 -0.0582408,0.0183632 -0.0596196,0.0132173 -0.0605447,0.00797086 -0.061009,0.00266371 -6.1,-8.88178e-16 -0.061009,-0.00266371 -0.0605447,-0.00797086 -0.0596196,-0.0132173 -0.0582408,-0.0183632 -0.0564187,-0.0233694 -0.0541672,-0.0281977 -0.0515035,-0.0328114 -0.0484478,-0.0371753 -0.0450234,-0.0412564 -0.0412564,-0.0450234 -0.0371753,-0.0484478 -0.0328114,-0.0515035 -0.0281977,-0.0541672 -0.0233694,-0.0564187 -0.0183632,-0.0582408 -0.0132173,-0.0596196 -0.00797086,-0.0605447 -0.00266371,-0.061009 4.44089e-16,-3.05 0.2,0 -4.44089e-16,3.05 0.00190265,0.0435779 0.00569347,0.0432462 0.00944096,0.0425854 0.0131166,0.0416005 0.0166924,0.0402991 0.0201412,0.0386909 0.0234367,0.0367882 0.0265538,0.0346056 0.0294688,0.0321596 0.0321596,0.0294688 0.0346056,0.0265538 0.0367882,0.0234367 0.0386909,0.0201412 0.0402991,0.0166924 0.0416005,0.0131166 0.0425854,0.00944096 0.0432462,0.00569347 0.0435779,0.00190265 6.1,8.88178e-16 z "/>
<path fill="rgb(241,240,234)" stroke="rgb(241,240,234)" d="M 5.48729,6.52658 l -0.0517836,-0.00101536 -0.109659,-0.00710755 -0.104583,-0.0152305 -0.100521,-0.022338 -0.0964596,-0.0294456 -0.0913828,-0.0375685 -0.0873213,-0.0456914 -0.0822445,-0.0517836 -0.0781831,-0.0609219 -0.0741216,-0.0670141 -0.0690448,-0.075137 -0.0649833,-0.0832599 -0.0192919,-0.0284302 1.02958,-0.0355378 0.0375685,-0.00101536 0.106613,-0.0121844 0.0984904,-0.0253841 0.0893521,-0.0395992 0.0822445,-0.0538143 0.0741216,-0.0670141 0.0659987,-0.0812292 0.0395992,-0.0609219 0.0416299,-0.0812292 0.0355378,-0.0883367 0.0294456,-0.0954443 0.022338,-0.102552 0.0162458,-0.110675 0.00913828,-0.116767 0.00406146,-0.120828 -0.00304609,-0.0984904 -0.00812292,-0.115752 -0.0162458,-0.109659 -0.0213227,-0.103567 -0.0284302,-0.0964596 -0.0355378,-0.0913828 -0.0416299,-0.0852906 -0.0477221,-0.0791984 -0.0253841,-0.0355378 -0.0680294,-0.0791984 -0.0761523,-0.063968 -0.0842752,-0.0507682 -0.0913828,-0.0355378 -0.0984904,-0.0213227 -0.106613,-0.00710755 1.02958,-0.0233534 0.0497529,0.0822445 0.044676,0.0852906 0.0406146,0.0893521 0.0355378,0.0923982 0.0304609,0.0964596 0.0263995,0.100521 0.0213227,0.103567 0.0162458,0.107629 0.0121844,0.110675 0.00710755,0.115752 0.00203073,0.117782 0,0.0182766 -0.00304609,0.116767 -0.00812292,0.113721 -0.0131997,0.109659 -0.0172612,0.106613 -0.0233534,0.102552 -0.0284302,0.0984904 -0.0324917,0.0954443 -0.0375685,0.0913828 -0.0426453,0.0883367 -0.0477221,0.0842752 -0.052799,0.0812292 -0.033507,0.0456914 -0.0649833,0.0802138 -0.0700601,0.0720909 -0.075137,0.063968 -0.0791984,0.0568604 -0.0842752,0.0497529 -0.0883367,0.0416299 -0.0934135,0.0345224 -0.0984904,0.0263995 -0.102552,0.0192919 -0.107629,0.011169 -0.11169,0.00406146 z "/>
<path fill="rgb(241,240,234)" stroke="rgb(241,240,234)" d="M 4.45771,6.00164 l -0.0517836,-0.0802138 -0.0467068,-0.0852906 -0.0416299,-0.0883367 -0.0365531,-0.0913828 -0.0324917,-0.0964596 -0.0263995,-0.0995057 -0.022338,-0.103567 -0.0172612,-0.107629 -0.0121844,-0.110675 -0.00710755,-0.114736 -0.00203073,-0.118798 0,-0.044676 0.00406146,-0.116767 0.00913828,-0.113721 0.0142151,-0.109659 0.0182766,-0.105598 0.0233534,-0.102552 0.0284302,-0.0984904 0.033507,-0.0954443 0.0375685,-0.0913828 0.0426453,-0.0873213 0.0477221,-0.0832599 0.052799,-0.0802138 0.0355378,-0.0487375 0.0659987,-0.0791984 0.0700601,-0.0720909 0.075137,-0.063968 0.0802138,-0.055845 0.0842752,-0.0497529 0.0893521,-0.0416299 0.0934135,-0.033507 0.097475,-0.0263995 0.103567,-0.0192919 0.106613,-0.011169 0.112705,-0.00406146 0.075137,0.00203073 0.108644,0.00913828 0.103567,0.0162458 0.0995057,0.0243687 0.0944289,0.0314763 0.0903674,0.0395992 0.0852906,0.0467068 0.0802138,0.0548297 0.0761523,0.0619372 0.0710755,0.0700601 0.0670141,0.0781831 0.0619372,0.0842752 0.0162458,0.0233534 -1.02958,0.0233534 -0.0436607,0.00101536 -0.106613,0.0121844 -0.0984904,0.0253841 -0.0893521,0.0395992 -0.0822445,0.0538143 -0.0741216,0.0670141 -0.0659987,0.0802138 -0.0467068,0.075137 -0.0416299,0.0822445 -0.0345224,0.0883367 -0.0284302,0.0964596 -0.022338,0.103567 -0.0152305,0.110675 -0.0101536,0.117782 -0.00304609,0.12489 0.00406146,0.113721 0.0101536,0.11169 0.0172612,0.106613 0.0243687,0.100521 0.0304609,0.0954443 0.0385838,0.0903674 0.0456914,0.0842752 0.00609219,0.011169 0.0629526,0.0903674 0.0690448,0.075137 0.0771677,0.0619372 0.0832599,0.0487375 0.0903674,0.0345224 0.097475,0.0203073 0.105598,0.00710755 -1.02958,0.0355378 z "/>
<path fill="rgb(241,240,234)" stroke="rgb(241,240,234)" d="M 2.90318,6.52658 l -0.0934135,-0.00203073 -0.115752,-0.00507682 -0.112705,-0.0101536 -0.109659,-0.0142151 -0.105598,-0.0182766 -0.102552,-0.022338 -0.100521,-0.0263995 -0.0964596,-0.0314763 -0.0923982,-0.0355378 -0.0903674,-0.0395992 -0.0873213,-0.0436607 -0.0832599,-0.0487375 -0.0802138,-0.0517836 -0.0375685,-0.0263995 -0.0852906,-0.0649833 -0.0802138,-0.0670141 -0.075137,-0.0700601 -0.0710755,-0.0731062 -0.0649833,-0.075137 -0.0609219,-0.0781831 -0.0568604,-0.0812292 -0.0507682,-0.0832599 -0.0467068,-0.086306 -0.0406146,-0.0893521 -0.0365531,-0.0913828 -0.0324917,-0.0944289 -0.0263995,-0.0964596 -0.022338,-0.0995057 -0.0162458,-0.102552 -0.0121844,-0.105598 -0.00710755,-0.107629 1.31388,-0.0548297 0.0873213,-0.00304609 0.112705,-0.0121844 0.102552,-0.0213227 0.0923982,-0.0324917 0.0822445,-0.0416299 0.0487375,-0.0324917 0.075137,-0.0731062 0.044676,-0.0842752 0.0152305,-0.0944289 -0.00406146,-0.0487375 -0.0294456,-0.0893521 -0.0599065,-0.0781831 -0.0903674,-0.0680294 -0.0568604,-0.0294456 -0.0883367,-0.033507 -0.100521,-0.0243687 -0.109659,-0.0142151 -0.121844,-0.00406146 -1.12705,-0.0172612 0.0548297,-0.0781831 0.0629526,-0.0720909 0.0690448,-0.0670141 0.00101536,-0.00101536 0.0791984,-0.063968 0.0822445,-0.0578758 0.086306,-0.0507682 0.0903674,-0.044676 0.0934135,-0.0365531 0.097475,-0.0304609 0.101536,-0.0243687 0.105598,-0.0162458 0.108644,-0.0101536 0.112705,-0.00406146 0.107629,0.00304609 0.112705,0.0101536 0.106613,0.0162458 0.102552,0.0243687 0.097475,0.0304609 0.0923982,0.0375685 0.0873213,0.044676 0.0832599,0.0507682 0.0771677,0.0588911 0.0649833,0.0578758 0.0720909,0.0771677 0.0609219,0.0812292 0.0487375,0.086306 0.0385838,0.0913828 0.0274148,0.0964596 0.0172612,0.101536 0.00507682,0.105598 -0.00203073,0.0680294 -0.0131997,0.101536 -0.0243687,0.0964596 -0.0365531,0.0923982 -0.0477221,0.0873213 -0.0588911,0.0822445 -0.0700601,0.0781831 -0.0822445,0.0731062 -0.0538143,0.0416299 -0.0822445,0.0538143 -0.0873213,0.0467068 -1.32708,0.0284302 0.0456914,0.0913828 0.052799,0.0934135 0.0578758,0.0873213 0.063968,0.0832599 0.0680294,0.0771677 0.0731062,0.0720909 0.0781831,0.0659987 0.0822445,0.0619372 0.0883367,0.055845 0.0629526,0.0345224 0.0873213,0.0395992 0.0923982,0.033507 0.097475,0.0274148 0.103567,0.0213227 0.107629,0.0152305 0.113721,0.00913828 0.119813,0.00304609 0.0497529,0 0,0.560481 z "/>
<path fill="rgb(241,240,234)" stroke="rgb(241,240,234)" d="M 2.16501,5.19442 l -0.0771677,-0.00101536 -0.101536,-0.00609219 -0.103567,-0.00913828 -0.104583,-0.0152305 -0.105598,-0.0182766 -0.106613,-0.0233534 -0.107629,-0.0274148 1.32708,-0.0284302 -0.0913828,0.0395992 -0.0964596,0.0314763 -0.101536,0.0253841 -0.105598,0.0182766 -0.110675,0.011169 -0.114736,0.00304609 z "/>
<path fill="rgb(241,240,234)" stroke="rgb(241,240,234)" d="M 0.809502,4.68471 l -0.00304609,-0.109659 0.00101536,-0.044676 0.00609219,-0.116767 0.0121844,-0.11169 0.0203073,-0.106613 0.0274148,-0.100521 0.033507,-0.0944289 0.0416299,-0.0893521 0.0477221,-0.0832599 1.12705,0.0172612 -0.0893521,0.00203073 -0.112705,0.0121844 -0.102552,0.022338 -0.0913828,0.0314763 -0.0812292,0.0416299 -0.0477221,0.033507 -0.0731062,0.0741216 -0.0436607,0.0852906 -0.0142151,0.0964596 0.00304609,0.0467068 0.0294456,0.0893521 0.0609219,0.0771677 0.0903674,0.0670141 0.0538143,0.0274148 0.0903674,0.0345224 0.0995057,0.0243687 0.109659,0.0142151 0.118798,0.00507682 -1.31388,0.0548297 z "/>
<path fill="rgb(241,240,234)" stroke="rgb(241,240,234)" d="M 5.79393,2.47528 l -0.269072,-0.0984904 0,-1.42557 0.269072,0 0,0.642726 0.00101536,0.0304609 0.0172612,0.0781831 0.0385838,0.055845 0.0599065,0.033507 0.0822445,0.0121844 0.430515,0.0284302 -0.0365531,0.0720909 -0.592973,0.0629526 0,0.507682 z "/>
<path fill="rgb(241,240,234)" stroke="rgb(241,240,234)" d="M 6.04675,2.07218 l -0.0436607,-0.00101536 -0.0852906,-0.0172612 -0.0700601,-0.0345224 -0.0538143,-0.0517836 0.592973,-0.0629526 -0.0538143,0.0629526 -0.0477221,0.0375685 -0.0700601,0.0375685 -0.0791984,0.022338 -0.0893521,0.00710755 z "/>
<path fill="rgb(241,240,234)" stroke="rgb(241,240,234)" d="M 6.42345,1.83255 l -0.430515,-0.0284302 0.075137,-0.0142151 0.0690448,-0.0456914 0.0426453,-0.0609219 0.0162458,-0.0812292 0,-0.650849 0.248764,0 0,0.75137 -0.00304609,0.0497529 -0.0182766,0.0802138 z "/>
<path fill="rgb(241,240,234)" stroke="rgb(241,240,234)" d="M 5.2172,2.45091 l -0.959519,-1.80633 -0.269072,0 0.959519,1.80633 0.269072,0 z "/>
<path fill="rgb(241,240,234)" stroke="rgb(241,240,234)" d="M 2.6798,2.07218 l -0.0507682,-0.00304609 -0.0781831,-0.0192919 -0.0731062,-0.0375685 -0.0659987,-0.055845 0.552358,-0.0152305 -0.055845,0.0538143 -0.0690448,0.0436607 -0.0761523,0.0253841 -0.0832599,0.00812292 z "/>
<path fill="rgb(241,240,234)" stroke="rgb(241,240,234)" d="M 3.29613,2.07218 l -0.0263995,0 -0.0761523,-0.0121844 -0.0771677,-0.0253841 -0.0761523,-0.0395992 -0.0761523,-0.0538143 0.671156,-0.0375685 -0.0548297,0.063968 -0.0467068,0.0375685 -0.0700601,0.0375685 -0.0791984,0.022338 -0.0883367,0.00710755 z "/>
<path fill="rgb(241,240,234)" stroke="rgb(241,240,234)" d="M 2.41175,2.04679 l -0.269072,0 0,-1.09558 0.269072,0 0,0.657956 0.0101536,0.0700601 0.0395992,0.0700601 0.0477221,0.0365531 0.0812292,0.0182766 0.646787,0 0.434576,0.0284302 -0.0365531,0.0710755 -0.671156,0.0375685 -0.552358,0.0152305 0,0.0903674 z "/>
<path fill="rgb(241,240,234)" stroke="rgb(241,240,234)" d="M 3.67181,1.83255 l -0.434576,-0.0284302 0.0731062,-0.0121844 0.0649833,-0.0426453 0.0355378,-0.0619372 0.0142151,-0.0852906 0,-0.650849 0.269072,0 0,0.75137 -0.00304609,0.0497529 -0.0192919,0.0802138 z "/>
<path fill="rgb(241,240,234)" stroke="rgb(241,240,234)" d="M 3.23724,1.80412 l -0.646787,0 0.0710755,-0.0131997 0.0710755,-0.0436607 0.0416299,-0.0609219 0.0152305,-0.0842752 0,-0.650849 0.257903,0 0,0.662018 0.011169,0.063968 0.0456914,0.0700601 0.0538143,0.0385838 0.0791984,0.0182766 z "/>
<path fill="rgb(241,240,234)" stroke="rgb(241,240,234)" d="M 1.3446,2.47528 l -0.268056,-0.0984904 0,-1.42557 0.268056,0 0,0.318824 0.149259,0.203073 -0.149259,0.19495 0,0.807215 z "/>
<path fill="rgb(241,240,234)" stroke="rgb(241,240,234)" d="M 1.966,2.03969 l -0.33304,0 -0.288364,-0.371623 0.149259,-0.19495 0.214242,-0.521897 0.268056,0 -0.298517,0.741216 0.288364,0.347255 z "/>
<path fill="rgb(187,30,16)" stroke="rgb(187,30,16)" d="M 0.4,0.965685 l -4.44089e-16,-0.265685 0.00114159,-0.0261467 0.00341608,-0.0259477 0.00566458,-0.0255513 0.00786996,-0.0249603 0.0100155,-0.0241794 0.0120847,-0.0232145 0.014062,-0.0220729 0.0159323,-0.0207634 0.0176813,-0.0192958 0.0192958,-0.0176813 0.0207634,-0.0159323 0.0220729,-0.014062 0.0232145,-0.0120847 0.0241794,-0.0100155 0.0249603,-0.00786996 0.0255513,-0.00566458 0.0259477,-0.00341608 0.0261467,-0.00114159 0.265685,0 6.13431,6.13431 0,0.265685 -0.00114159,0.0261467 -0.00341608,0.0259477 -0.00566458,0.0255513 -0.00786996,0.0249603 -0.0100155,0.0241794 -0.0120847,0.0232145 -0.014062,0.0220729 -0.0159323,0.0207634 -0.0176813,0.0192958 -0.0192958,0.0176813 -0.0207634,0.0159323 -0.0220729,0.014062 -0.0232145,0.0120847 -0.0241794,0.0100155 -0.0249603,0.00786996 -0.0255513,0.00566458 -0.0259477,0.00341608 -0.0261467,0.00114159 -0.265685,0 -6.13431,-6.13431 z "/>
</g></g></svg>
