<?xml version="1.0" encoding="UTF-8" standalone="no"?>
<!DOCTYPE svg PUBLIC "-//W3C//DTD SVG 1.1//EN" "http://www.w3.org/Graphics/SVG/1.1/DTD/svg11-flat.dtd"
[

]>
<svg xmlns="http://www.w3.org/2000/svg"  viewBox="-0.0855148 -0.0855148 7.67103 5.30192"><g fill="none" stroke="black" stroke-width="0.0125" transform="translate(0,5.13089) scale(1, -1)">
<g id="Output" >
<path fill="rgb(241,240,234)" stroke="rgb(241,240,234)" d="M 4.04043,2.84564 l -0.580855,-0.25302 0,-0.744825 0.580855,0.28669 0,0.458135 0,0.25302 z "/>
<path fill="rgb(241,240,234)" stroke="rgb(241,240,234)" d="M 4.04043,0.290433 l -0.580855,-0.28669 0,-0.00374263 0.580855,1.33227e-15 0,0.290433 z "/>
<path fill="rgb(241,240,234)" stroke="rgb(241,240,234)" d="M 5.72491,2.49243 l -1.24767,0.543486 -0.436813,-0.190275 0,-0.25302 1.45252,-0.632716 0.231968,0.532526 z "/>
<path fill="rgb(241,240,234)" stroke="rgb(241,240,234)" d="M 5.72491,3.5794 l -0.231968,0.532526 -1.45252,-0.632716 -0.580855,-0.25302 -0.436813,-0.190275 -1.24767,-0.543486 0.231968,-0.532526 1.45252,0.632716 0.580855,0.25302 0.436813,0.190275 1.24767,0.543486 z "/>
<path fill="rgb(241,240,234)" stroke="rgb(241,240,234)" d="M 2.00705,4.11192 l -0.231968,-0.532526 1.24767,-0.543486 0.436813,0.190275 0,0.25302 -1.45252,0.632716 z "/>
<path fill="rgb(241,240,234)" stroke="rgb(241,240,234)" d="M 4.04043,3.97853 l -0.580855,-0.28669 0,-0.212632 0,-0.25302 0.580855,0.25302 0,0.499322 z "/>
<path fill="rgb(187,30,16)" stroke="rgb(187,30,16)" d="M 2.00705,4.11192 l -1.77509,0.773227 -0.204738,-0.227602 -0.0272297,-0.304924 1.77509,-0.773227 0.231968,0.532526 z "/>
<path fill="rgb(187,30,16)" stroke="rgb(187,30,16)" d="M 4.04043,5.13089 l -0.580855,-1.77636e-15 -4.44089e-16,-1.43905 0.580855,0.28669 0,1.15236 z "/>
<path fill="rgb(187,30,16)" stroke="rgb(187,30,16)" d="M 7.5,4.35262 l -0.0272297,0.304924 -0.204738,0.227602 -1.77509,-0.773227 0.231968,-0.532526 1.77509,0.773227 z "/>
<path fill="rgb(187,30,16)" stroke="rgb(187,30,16)" d="M 5.72491,2.49243 l -0.231968,-0.532526 1.77509,-0.773227 0.204738,0.227602 0.0272297,0.304924 -1.77509,0.773227 z "/>
<path fill="rgb(187,30,16)" stroke="rgb(187,30,16)" d="M 4.04043,2.13448 l -0.580855,-0.28669 0,-1.84405 0.580855,0.28669 0,1.84405 z "/>
<path fill="rgb(187,30,16)" stroke="rgb(187,30,16)" d="M 1.77509,2.49243 l -1.77509,-0.773227 0.0272297,-0.304924 0.204738,-0.227602 1.77509,0.773227 -0.231968,0.532526 z "/>
</g></g></svg>
