<?xml version="1.0" encoding="UTF-8" standalone="no"?>
<!DOCTYPE svg PUBLIC "-//W3C//DTD SVG 1.1//EN" "http://www.w3.org/Graphics/SVG/1.1/DTD/svg11-flat.dtd"
[

]>
<svg xmlns="http://www.w3.org/2000/svg"  viewBox="-0.09375 -0.09375 7.6875 7.6875"><g fill="none" stroke="black" stroke-width="0.0125" transform="translate(0,7.5) scale(1, -1)">
<g id="Output" >
<path fill="rgb(241,240,234)" stroke="rgb(241,240,234)" d="M 3.58656,6.28288 l -1.78623,-2.53288 -0.415875,-0.589712 -0.00932612,-0.0145158 -0.00804034,-0.0152656 -0.00669473,-0.0159017 -0.00529928,-0.0164196 -0.00386441,-0.0168152 -0.00240077,-0.0170857 -0.000919262,-0.017229 0.000569084,-0.0172442 0.0020532,-0.0171309 0.00352203,-0.0168902 0.00496465,-0.0165238 0.00637032,-0.0160345 0.00772858,-0.0154257 0.00902933,-0.0147022 0.0102629,-0.0138693 0.01142,-0.0129332 0.0124922,-0.0119008 0.0134714,-0.0107798 0.0143504,-0.00957865 0.0151226,-0.00830618 0.0157822,-0.0069719 0.0163243,-0.00558573 0.016745,-0.004158 0.0170411,-0.00269931 0.0172103,-0.00122054 0.0172515,0.000267312 0.0171642,0.00175318 0.0169493,0.00322599 1.58276,0.372647 0,-2.09061 1.14701,0 0,2.09061 1.58276,-0.372647 0.0169493,-0.00322599 0.0171642,-0.00175318 0.0172515,-0.000267312 0.0172103,0.00122054 0.0170411,0.00269931 0.016745,0.004158 0.0163243,0.00558573 0.0157822,0.0069719 0.0151226,0.00830618 0.0143504,0.00957865 0.0134714,0.0107798 0.0124922,0.0119008 0.01142,0.0129332 0.0102629,0.0138693 0.00902933,0.0147022 0.00772858,0.0154257 0.00637032,0.0160345 0.00496465,0.0165238 0.00352203,0.0168902 0.0020532,0.0171309 0.000569084,0.0172442 -0.000919262,0.017229 -0.00240077,0.0170857 -0.00386441,0.0168152 -0.00529928,0.0164196 -0.00669473,0.0159017 -0.00804034,0.0152656 -0.00932612,0.0145158 -0.415875,0.589712 -1.78623,2.53288 -0.0106285,0.01376 -0.0117835,0.0127848 -0.0128493,0.0117131 -0.0138181,0.0105529 -0.0146824,0.00931286 -0.0154358,0.00800248 -0.0160725,0.00663161 -0.0165877,0.00521063 -0.0169776,0.00375026 -0.0172391,0.00226155 -0.0173704,0.000755755 -0.0173704,-0.000755755 -0.0172391,-0.00226155 -0.0169776,-0.00375026 -0.0165877,-0.00521063 -0.0160725,-0.00663161 -0.0154358,-0.00800248 -0.0146824,-0.00931286 -0.0138181,-0.0105529 -0.0128493,-0.0117131 -0.0117835,-0.0127848 -0.0106285,-0.01376 z "/>
<path fill="rgb(241,240,234)" stroke="rgb(241,240,234)" d="M 0.4,3.75 l -0.2,4.44089e-16 0,-3.05 0.00190265,-0.0435779 0.00569347,-0.0432462 0.00944096,-0.0425854 0.0131166,-0.0416005 0.0166924,-0.0402991 0.0201412,-0.0386909 0.0234367,-0.0367882 0.0265538,-0.0346056 0.0294688,-0.0321596 0.0321596,-0.0294688 0.0346056,-0.0265538 0.0367882,-0.0234367 0.0386909,-0.0201412 0.0402991,-0.0166924 0.0416005,-0.0131166 0.0425854,-0.00944096 0.0432462,-0.00569347 0.0435779,-0.00190265 6.1,0 0.0435779,0.00190265 0.0432462,0.00569347 0.0425854,0.00944096 0.0416005,0.0131166 0.0402991,0.0166924 0.0386909,0.0201412 0.0367882,0.0234367 0.0346056,0.0265538 0.0321596,0.0294688 0.0294688,0.0321596 0.0265538,0.0346056 0.0234367,0.0367882 0.0201412,0.0386909 0.0166924,0.0402991 0.0131166,0.0416005 0.00944096,0.0425854 0.00569347,0.0432462 0.00190265,0.0435779 0,3.05 -0.2,0 8.88178e-16,-3.05 -0.00114159,-0.0261467 -0.00341608,-0.0259477 -0.00566458,-0.0255513 -0.00786996,-0.0249603 -0.0100155,-0.0241794 -0.0120847,-0.0232145 -0.014062,-0.0220729 -0.0159323,-0.0207634 -0.0176813,-0.0192958 -0.0192958,-0.0176813 -0.0207634,-0.0159323 -0.0220729,-0.014062 -0.0232145,-0.0120847 -0.0241794,-0.0100155 -0.0249603,-0.00786996 -0.0255513,-0.00566458 -0.0259477,-0.00341608 -0.0261467,-0.00114159 -6.1,0 -0.0261467,0.00114159 -0.0259477,0.00341608 -0.0255513,0.00566458 -0.0249603,0.00786996 -0.0241794,0.0100155 -0.0232145,0.0120847 -0.0220729,0.014062 -0.0207634,0.0159323 -0.0192958,0.0176813 -0.0176813,0.0192958 -0.0159323,0.0207634 -0.014062,0.0220729 -0.0120847,0.0232145 -0.0100155,0.0241794 -0.00786996,0.0249603 -0.00566458,0.0255513 -0.00341608,0.0259477 -0.00114159,0.0261467 -4.44089e-16,3.05 z "/>
<path fill="rgb(241,240,234)" stroke="rgb(241,240,234)" d="M 0.4,3.75 l -4.44089e-16,3.05 0.00114159,0.0261467 0.00341608,0.0259477 0.00566458,0.0255513 0.00786996,0.0249603 0.0100155,0.0241794 0.0120847,0.0232145 0.014062,0.0220729 0.0159323,0.0207634 0.0176813,0.0192958 0.0192958,0.0176813 0.0207634,0.0159323 0.0220729,0.014062 0.0232145,0.0120847 0.0241794,0.0100155 0.0249603,0.00786996 0.0255513,0.00566458 0.0259477,0.00341608 0.0261467,0.00114159 6.1,8.88178e-16 0.0261467,-0.00114159 0.0259477,-0.00341608 0.0255513,-0.00566458 0.0249603,-0.00786996 0.0241794,-0.0100155 0.0232145,-0.0120847 0.0220729,-0.014062 0.0207634,-0.0159323 0.0192958,-0.0176813 0.0176813,-0.0192958 0.0159323,-0.0207634 0.014062,-0.0220729 0.0120847,-0.0232145 0.0100155,-0.0241794 0.00786996,-0.0249603 0.00566458,-0.0255513 0.00341608,-0.0259477 0.00114159,-0.0261467 8.88178e-16,-3.05 0.2,0 -8.88178e-16,3.05 -0.00190265,0.0435779 -0.00569347,0.0432462 -0.00944096,0.0425854 -0.0131166,0.0416005 -0.0166924,0.0402991 -0.0201412,0.0386909 -0.0234367,0.0367882 -0.0265538,0.0346056 -0.0294688,0.0321596 -0.0321596,0.0294688 -0.0346056,0.0265538 -0.0367882,0.0234367 -0.0386909,0.0201412 -0.0402991,0.0166924 -0.0416005,0.0131166 -0.0425854,0.00944096 -0.0432462,0.00569347 -0.0435779,0.00190265 -6.1,-8.88178e-16 -0.0435779,-0.00190265 -0.0432462,-0.00569347 -0.0425854,-0.00944096 -0.0416005,-0.0131166 -0.0402991,-0.0166924 -0.0386909,-0.0201412 -0.0367882,-0.0234367 -0.0346056,-0.0265538 -0.0321596,-0.0294688 -0.0294688,-0.0321596 -0.0265538,-0.0346056 -0.0234367,-0.0367882 -0.0201412,-0.0386909 -0.0166924,-0.0402991 -0.0131166,-0.0416005 -0.00944096,-0.0425854 -0.00569347,-0.0432462 -0.00190265,-0.0435779 8.88178e-16,-3.05 0.2,-4.44089e-16 z "/>
<path fill="rgb(0,91,140)" stroke="rgb(0,91,140)" d="M 0.4,3.75 l 1.40033,4.44089e-16 1.78623,2.53288 0.0106285,0.01376 0.0117835,0.0127848 0.0128493,0.0117131 0.0138181,0.0105529 0.0146824,0.00931286 0.0154358,0.00800248 0.0160725,0.00663161 0.0165877,0.00521063 0.0169776,0.00375026 0.0172391,0.00226155 0.0173704,0.000755755 0.0173704,-0.000755755 0.0172391,-0.00226155 0.0169776,-0.00375026 0.0165877,-0.00521063 0.0160725,-0.00663161 0.0154358,-0.00800248 0.0146824,-0.00931286 0.0138181,-0.0105529 0.0128493,-0.0117131 0.0117835,-0.0127848 0.0106285,-0.01376 1.78623,-2.53288 1.40033,4.44089e-16 -8.88178e-16,3.05 -0.00114159,0.0261467 -0.00341608,0.0259477 -0.00566458,0.0255513 -0.00786996,0.0249603 -0.0100155,0.0241794 -0.0120847,0.0232145 -0.014062,0.0220729 -0.0159323,0.0207634 -0.0176813,0.0192958 -0.0192958,0.0176813 -0.0207634,0.0159323 -0.0220729,0.014062 -0.0232145,0.0120847 -0.0241794,0.0100155 -0.0249603,0.00786996 -0.0255513,0.00566458 -0.0259477,0.00341608 -0.0261467,0.00114159 -6.1,-8.88178e-16 -0.0261467,-0.00114159 -0.0259477,-0.00341608 -0.0255513,-0.00566458 -0.0249603,-0.00786996 -0.0241794,-0.0100155 -0.0232145,-0.0120847 -0.0220729,-0.014062 -0.0207634,-0.0159323 -0.0192958,-0.0176813 -0.0176813,-0.0192958 -0.0159323,-0.0207634 -0.014062,-0.0220729 -0.0120847,-0.0232145 -0.0100155,-0.0241794 -0.00786996,-0.0249603 -0.00566458,-0.0255513 -0.00341608,-0.0259477 -0.00114159,-0.0261467 4.44089e-16,-3.05 z "/>
<path fill="rgb(0,91,140)" stroke="rgb(0,91,140)" d="M 0.4,3.75 l 4.44089e-16,-3.05 0.00114159,-0.0261467 0.00341608,-0.0259477 0.00566458,-0.0255513 0.00786996,-0.0249603 0.0100155,-0.0241794 0.0120847,-0.0232145 0.014062,-0.0220729 0.0159323,-0.0207634 0.0176813,-0.0192958 0.0192958,-0.0176813 0.0207634,-0.0159323 0.0220729,-0.014062 0.0232145,-0.0120847 0.0241794,-0.0100155 0.0249603,-0.00786996 0.0255513,-0.00566458 0.0259477,-0.00341608 0.0261467,-0.00114159 6.1,0 0.0261467,0.00114159 0.0259477,0.00341608 0.0255513,0.00566458 0.0249603,0.00786996 0.0241794,0.0100155 0.0232145,0.0120847 0.0220729,0.014062 0.0207634,0.0159323 0.0192958,0.0176813 0.0176813,0.0192958 0.0159323,0.0207634 0.014062,0.0220729 0.0120847,0.0232145 0.0100155,0.0241794 0.00786996,0.0249603 0.00566458,0.0255513 0.00341608,0.0259477 0.00114159,0.0261467 -8.88178e-16,3.05 -1.40033,-4.44089e-16 0.415875,-0.589712 0.00932612,-0.0145158 0.00804034,-0.0152656 0.00669473,-0.0159017 0.00529928,-0.0164196 0.00386441,-0.0168152 0.00240077,-0.0170857 0.000919262,-0.017229 -0.000569084,-0.0172442 -0.0020532,-0.0171309 -0.00352203,-0.0168902 -0.00496465,-0.0165238 -0.00637032,-0.0160345 -0.00772858,-0.0154257 -0.00902933,-0.0147022 -0.0102629,-0.0138693 -0.01142,-0.0129332 -0.0124922,-0.0119008 -0.0134714,-0.0107798 -0.0143504,-0.00957865 -0.0151226,-0.00830618 -0.0157822,-0.0069719 -0.0163243,-0.00558573 -0.016745,-0.004158 -0.0170411,-0.00269931 -0.0172103,-0.00122054 -0.0172515,0.000267312 -0.0171642,0.00175318 -0.0169493,0.00322599 -1.58276,0.372647 0,-2.09061 -1.14701,0 0,2.09061 -1.58276,-0.372647 -0.0169493,-0.00322599 -0.0171642,-0.00175318 -0.0172515,-0.000267312 -0.0172103,0.00122054 -0.0170411,0.00269931 -0.016745,0.004158 -0.0163243,0.00558573 -0.0157822,0.0069719 -0.0151226,0.00830618 -0.0143504,0.00957865 -0.0134714,0.0107798 -0.0124922,0.0119008 -0.01142,0.0129332 -0.0102629,0.0138693 -0.00902933,0.0147022 -0.00772858,0.0154257 -0.00637032,0.0160345 -0.00496465,0.0165238 -0.00352203,0.0168902 -0.0020532,0.0171309 -0.000569084,0.0172442 0.000919262,0.017229 0.00240077,0.0170857 0.00386441,0.0168152 0.00529928,0.0164196 0.00669473,0.0159017 0.00804034,0.0152656 0.00932612,0.0145158 0.415875,0.589712 -1.40033,-4.44089e-16 z "/>
<path fill="rgb(0,91,140)" stroke="rgb(0,91,140)" d="M 0.2,3.75 l -0.2,0 4.44089e-16,-3.05 0.00266371,-0.061009 0.00797086,-0.0605447 0.0132173,-0.0596196 0.0183632,-0.0582408 0.0233694,-0.0564187 0.0281977,-0.0541672 0.0328114,-0.0515035 0.0371753,-0.0484478 0.0412564,-0.0450234 0.0450234,-0.0412564 0.0484478,-0.0371753 0.0515035,-0.0328114 0.0541672,-0.0281977 0.0564187,-0.0233694 0.0582408,-0.0183632 0.0596196,-0.0132173 0.0605447,-0.00797086 0.061009,-0.00266371 6.1,-8.88178e-16 0.061009,0.00266371 0.0605447,0.00797086 0.0596196,0.0132173 0.0582408,0.0183632 0.0564187,0.0233694 0.0541672,0.0281977 0.0515035,0.0328114 0.0484478,0.0371753 0.0450234,0.0412564 0.0412564,0.0450234 0.0371753,0.0484478 0.0328114,0.0515035 0.0281977,0.0541672 0.0233694,0.0564187 0.0183632,0.0582408 0.0132173,0.0596196 0.00797086,0.0605447 0.00266371,0.061009 -8.88178e-16,3.05 -0.2,0 0,-3.05 -0.00190265,-0.0435779 -0.00569347,-0.0432462 -0.00944096,-0.0425854 -0.0131166,-0.0416005 -0.0166924,-0.0402991 -0.0201412,-0.0386909 -0.0234367,-0.0367882 -0.0265538,-0.0346056 -0.0294688,-0.0321596 -0.0321596,-0.0294688 -0.0346056,-0.0265538 -0.0367882,-0.0234367 -0.0386909,-0.0201412 -0.0402991,-0.0166924 -0.0416005,-0.0131166 -0.0425854,-0.00944096 -0.0432462,-0.00569347 -0.0435779,-0.00190265 -6.1,0 -0.0435779,0.00190265 -0.0432462,0.00569347 -0.0425854,0.00944096 -0.0416005,0.0131166 -0.0402991,0.0166924 -0.0386909,0.0201412 -0.0367882,0.0234367 -0.0346056,0.0265538 -0.0321596,0.0294688 -0.0294688,0.0321596 -0.0265538,0.0346056 -0.0234367,0.0367882 -0.0201412,0.0386909 -0.0166924,0.0402991 -0.0131166,0.0416005 -0.00944096,0.0425854 -0.00569347,0.0432462 -0.00190265,0.0435779 0,3.05 z "/>
<path fill="rgb(0,91,140)" stroke="rgb(0,91,140)" d="M 0.2,3.75 l -8.88178e-16,3.05 0.00190265,0.0435779 0.00569347,0.0432462 0.00944096,0.0425854 0.0131166,0.0416005 0.0166924,0.0402991 0.0201412,0.0386909 0.0234367,0.0367882 0.0265538,0.0346056 0.0294688,0.0321596 0.0321596,0.0294688 0.0346056,0.0265538 0.0367882,0.0234367 0.0386909,0.0201412 0.0402991,0.0166924 0.0416005,0.0131166 0.0425854,0.00944096 0.0432462,0.00569347 0.0435779,0.00190265 6.1,8.88178e-16 0.0435779,-0.00190265 0.0432462,-0.00569347 0.0425854,-0.00944096 0.0416005,-0.0131166 0.0402991,-0.0166924 0.0386909,-0.0201412 0.0367882,-0.0234367 0.0346056,-0.0265538 0.0321596,-0.0294688 0.0294688,-0.0321596 0.0265538,-0.0346056 0.0234367,-0.0367882 0.0201412,-0.0386909 0.0166924,-0.0402991 0.0131166,-0.0416005 0.00944096,-0.0425854 0.00569347,-0.0432462 0.00190265,-0.0435779 8.88178e-16,-3.05 0.2,0 8.88178e-16,3.05 -0.00266371,0.061009 -0.00797086,0.0605447 -0.0132173,0.0596196 -0.0183632,0.0582408 -0.0233694,0.0564187 -0.0281977,0.0541672 -0.0328114,0.0515035 -0.0371753,0.0484478 -0.0412564,0.0450234 -0.0450234,0.0412564 -0.0484478,0.0371753 -0.0515035,0.0328114 -0.0541672,0.0281977 -0.0564187,0.0233694 -0.0582408,0.0183632 -0.0596196,0.0132173 -0.0605447,0.00797086 -0.061009,0.00266371 -6.1,-8.88178e-16 -0.061009,-0.00266371 -0.0605447,-0.00797086 -0.0596196,-0.0132173 -0.0582408,-0.0183632 -0.0564187,-0.0233694 -0.0541672,-0.0281977 -0.0515035,-0.0328114 -0.0484478,-0.0371753 -0.0450234,-0.0412564 -0.0412564,-0.0450234 -0.0371753,-0.0484478 -0.0328114,-0.0515035 -0.0281977,-0.0541672 -0.0233694,-0.0564187 -0.0183632,-0.0582408 -0.0132173,-0.0596196 -0.00797086,-0.0605447 -0.00266371,-0.061009 4.44089e-16,-3.05 0.2,0 z "/>
</g></g></svg>
