<?xml version="1.0" encoding="UTF-8" standalone="no"?>
<!DOCTYPE svg PUBLIC "-//W3C//DTD SVG 1.1//EN" "http://www.w3.org/Graphics/SVG/1.1/DTD/svg11-flat.dtd"
[

]>
<svg xmlns="http://www.w3.org/2000/svg"  viewBox="-0.09375 -0.09375 7.6875 7.6875"><g fill="none" stroke="black" stroke-width="0.0125" transform="translate(0,7.5) scale(1, -1)">
<g id="Output" >
<path fill="rgb(0,91,140)" stroke="rgb(0,91,140)" d="M 7.1,6.25147 l -5.85147,-5.85147 5.55147,0 0.0261467,0.00114159 0.0259477,0.00341608 0.0255513,0.00566458 0.0249603,0.00786996 0.0241794,0.0100155 0.0232145,0.0120847 0.0220729,0.014062 0.0207634,0.0159323 0.0192958,0.0176813 0.0176813,0.0192958 0.0159323,0.0207634 0.014062,0.0220729 0.0120847,0.0232145 0.0100155,0.0241794 0.00786996,0.0249603 0.00566458,0.0255513 0.00341608,0.0259477 0.00114159,0.0261467 0,3.05 -8.88178e-16,2.50147 z "/>
<path fill="rgb(0,91,140)" stroke="rgb(0,91,140)" d="M 0.4,3.75 l 1.33227e-15,-2.50147 5.85147,5.85147 -5.55147,-2.66454e-15 -0.0261467,-0.00114159 -0.0259477,-0.00341608 -0.0255513,-0.00566458 -0.0249603,-0.00786996 -0.0241794,-0.0100155 -0.0232145,-0.0120847 -0.0220729,-0.014062 -0.0207634,-0.0159323 -0.0192958,-0.0176813 -0.0176813,-0.0192958 -0.0159323,-0.0207634 -0.014062,-0.0220729 -0.0120847,-0.0232145 -0.0100155,-0.0241794 -0.00786996,-0.0249603 -0.00566458,-0.0255513 -0.00341608,-0.0259477 -0.00114159,-0.0261467 4.44089e-16,-3.05 z "/>
<path fill="rgb(241,240,234)" stroke="rgb(241,240,234)" d="M 7.1,6.25147 l 0,0.282843 -6.13431,-6.13431 0.282843,0 5.85147,5.85147 z "/>
<path fill="rgb(241,240,234)" stroke="rgb(241,240,234)" d="M 0.4,0.965685 l 6.13431,6.13431 -0.282843,1.77636e-15 -5.85147,-5.85147 -4.44089e-16,-0.282843 z "/>
<path fill="rgb(241,240,234)" stroke="rgb(241,240,234)" d="M 0.4,3.75 l -0.2,-4.44089e-16 4.44089e-16,-3.05 0.00190265,-0.0435779 0.00569347,-0.0432462 0.00944096,-0.0425854 0.0131166,-0.0416005 0.0166924,-0.0402991 0.0201412,-0.0386909 0.0234367,-0.0367882 0.0265538,-0.0346056 0.0294688,-0.0321596 0.0321596,-0.0294688 0.0346056,-0.0265538 0.0367882,-0.0234367 0.0386909,-0.0201412 0.0402991,-0.0166924 0.0416005,-0.0131166 0.0425854,-0.00944096 0.0432462,-0.00569347 0.0435779,-0.00190265 6.1,0 0.0435779,0.00190265 0.0432462,0.00569347 0.0425854,0.00944096 0.0416005,0.0131166 0.0402991,0.0166924 0.0386909,0.0201412 0.0367882,0.0234367 0.0346056,0.0265538 0.0321596,0.0294688 0.0294688,0.0321596 0.0265538,0.0346056 0.0234367,0.0367882 0.0201412,0.0386909 0.0166924,0.0402991 0.0131166,0.0416005 0.00944096,0.0425854 0.00569347,0.0432462 0.00190265,0.0435779 0,3.05 -0.2,4.44089e-16 0,-3.05 -0.00114159,-0.0261467 -0.00341608,-0.0259477 -0.00566458,-0.0255513 -0.00786996,-0.0249603 -0.0100155,-0.0241794 -0.0120847,-0.0232145 -0.014062,-0.0220729 -0.0159323,-0.0207634 -0.0176813,-0.0192958 -0.0192958,-0.0176813 -0.0207634,-0.0159323 -0.0220729,-0.014062 -0.0232145,-0.0120847 -0.0241794,-0.0100155 -0.0249603,-0.00786996 -0.0255513,-0.00566458 -0.0259477,-0.00341608 -0.0261467,-0.00114159 -5.55147,0 -0.282843,0 -0.265685,0 -0.0261467,0.00114159 -0.0259477,0.00341608 -0.0255513,0.00566458 -0.0249603,0.00786996 -0.0241794,0.0100155 -0.0232145,0.0120847 -0.0220729,0.014062 -0.0207634,0.0159323 -0.0192958,0.0176813 -0.0176813,0.0192958 -0.0159323,0.0207634 -0.014062,0.0220729 -0.0120847,0.0232145 -0.0100155,0.0241794 -0.00786996,0.0249603 -0.00566458,0.0255513 -0.00341608,0.0259477 -0.00114159,0.0261467 4.44089e-16,0.265685 4.44089e-16,0.282843 -1.33227e-15,2.50147 z "/>
<path fill="rgb(241,240,234)" stroke="rgb(241,240,234)" d="M 0.2,3.75 l 0.2,4.44089e-16 -4.44089e-16,3.05 0.00114159,0.0261467 0.00341608,0.0259477 0.00566458,0.0255513 0.00786996,0.0249603 0.0100155,0.0241794 0.0120847,0.0232145 0.014062,0.0220729 0.0159323,0.0207634 0.0176813,0.0192958 0.0192958,0.0176813 0.0207634,0.0159323 0.0220729,0.014062 0.0232145,0.0120847 0.0241794,0.0100155 0.0249603,0.00786996 0.0255513,0.00566458 0.0259477,0.00341608 0.0261467,0.00114159 5.55147,2.66454e-15 0.282843,-1.77636e-15 0.265685,0 0.0261467,-0.00114159 0.0259477,-0.00341608 0.0255513,-0.00566458 0.0249603,-0.00786996 0.0241794,-0.0100155 0.0232145,-0.0120847 0.0220729,-0.014062 0.0207634,-0.0159323 0.0192958,-0.0176813 0.0176813,-0.0192958 0.0159323,-0.0207634 0.014062,-0.0220729 0.0120847,-0.0232145 0.0100155,-0.0241794 0.00786996,-0.0249603 0.00566458,-0.0255513 0.00341608,-0.0259477 0.00114159,-0.0261467 0,-0.265685 0,-0.282843 8.88178e-16,-2.50147 0.2,-4.44089e-16 -8.88178e-16,3.05 -0.00190265,0.0435779 -0.00569347,0.0432462 -0.00944096,0.0425854 -0.0131166,0.0416005 -0.0166924,0.0402991 -0.0201412,0.0386909 -0.0234367,0.0367882 -0.0265538,0.0346056 -0.0294688,0.0321596 -0.0321596,0.0294688 -0.0346056,0.0265538 -0.0367882,0.0234367 -0.0386909,0.0201412 -0.0402991,0.0166924 -0.0416005,0.0131166 -0.0425854,0.00944096 -0.0432462,0.00569347 -0.0435779,0.00190265 -6.1,-8.88178e-16 -0.0435779,-0.00190265 -0.0432462,-0.00569347 -0.0425854,-0.00944096 -0.0416005,-0.0131166 -0.0402991,-0.0166924 -0.0386909,-0.0201412 -0.0367882,-0.0234367 -0.0346056,-0.0265538 -0.0321596,-0.0294688 -0.0294688,-0.0321596 -0.0265538,-0.0346056 -0.0234367,-0.0367882 -0.0201412,-0.0386909 -0.0166924,-0.0402991 -0.0131166,-0.0416005 -0.00944096,-0.0425854 -0.00569347,-0.0432462 -0.00190265,-0.0435779 4.44089e-16,-3.05 z "/>
<path fill="rgb(0,91,140)" stroke="rgb(0,91,140)" d="M 0.2,3.75 l -0.2,0 4.44089e-16,-3.05 0.00266371,-0.061009 0.00797086,-0.0605447 0.0132173,-0.0596196 0.0183632,-0.0582408 0.0233694,-0.0564187 0.0281977,-0.0541672 0.0328114,-0.0515035 0.0371753,-0.0484478 0.0412564,-0.0450234 0.0450234,-0.0412564 0.0484478,-0.0371753 0.0515035,-0.0328114 0.0541672,-0.0281977 0.0564187,-0.0233694 0.0582408,-0.0183632 0.0596196,-0.0132173 0.0605447,-0.00797086 0.061009,-0.00266371 6.1,-8.88178e-16 0.061009,0.00266371 0.0605447,0.00797086 0.0596196,0.0132173 0.0582408,0.0183632 0.0564187,0.0233694 0.0541672,0.0281977 0.0515035,0.0328114 0.0484478,0.0371753 0.0450234,0.0412564 0.0412564,0.0450234 0.0371753,0.0484478 0.0328114,0.0515035 0.0281977,0.0541672 0.0233694,0.0564187 0.0183632,0.0582408 0.0132173,0.0596196 0.00797086,0.0605447 0.00266371,0.061009 -1.77636e-15,3.05 -0.2,-8.88178e-16 0,-3.05 -0.00190265,-0.0435779 -0.00569347,-0.0432462 -0.00944096,-0.0425854 -0.0131166,-0.0416005 -0.0166924,-0.0402991 -0.0201412,-0.0386909 -0.0234367,-0.0367882 -0.0265538,-0.0346056 -0.0294688,-0.0321596 -0.0321596,-0.0294688 -0.0346056,-0.0265538 -0.0367882,-0.0234367 -0.0386909,-0.0201412 -0.0402991,-0.0166924 -0.0416005,-0.0131166 -0.0425854,-0.00944096 -0.0432462,-0.00569347 -0.0435779,-0.00190265 -6.1,0 -0.0435779,0.00190265 -0.0432462,0.00569347 -0.0425854,0.00944096 -0.0416005,0.0131166 -0.0402991,0.0166924 -0.0386909,0.0201412 -0.0367882,0.0234367 -0.0346056,0.0265538 -0.0321596,0.0294688 -0.0294688,0.0321596 -0.0265538,0.0346056 -0.0234367,0.0367882 -0.0201412,0.0386909 -0.0166924,0.0402991 -0.0131166,0.0416005 -0.00944096,0.0425854 -0.00569347,0.0432462 -0.00190265,0.0435779 -4.44089e-16,3.05 z "/>
<path fill="rgb(0,91,140)" stroke="rgb(0,91,140)" d="M 6.8,7.3 l 0.0435779,-0.00190265 0.0432462,-0.00569347 0.0425854,-0.00944096 0.0416005,-0.0131166 0.0402991,-0.0166924 0.0386909,-0.0201412 0.0367882,-0.0234367 0.0346056,-0.0265538 0.0321596,-0.0294688 0.0294688,-0.0321596 0.0265538,-0.0346056 0.0234367,-0.0367882 0.0201412,-0.0386909 0.0166924,-0.0402991 0.0131166,-0.0416005 0.00944096,-0.0425854 0.00569347,-0.0432462 0.00190265,-0.0435779 8.88178e-16,-3.05 0.2,8.88178e-16 1.77636e-15,3.05 -0.00266371,0.061009 -0.00797086,0.0605447 -0.0132173,0.0596196 -0.0183632,0.0582408 -0.0233694,0.0564187 -0.0281977,0.0541672 -0.0328114,0.0515035 -0.0371753,0.0484478 -0.0412564,0.0450234 -0.0450234,0.0412564 -0.0484478,0.0371753 -0.0515035,0.0328114 -0.0541672,0.0281977 -0.0564187,0.0233694 -0.0582408,0.0183632 -0.0596196,0.0132173 -0.0605447,0.00797086 -0.061009,0.00266371 -6.1,-8.88178e-16 -0.061009,-0.00266371 -0.0605447,-0.00797086 -0.0596196,-0.0132173 -0.0582408,-0.0183632 -0.0564187,-0.0233694 -0.0541672,-0.0281977 -0.0515035,-0.0328114 -0.0484478,-0.0371753 -0.0450234,-0.0412564 -0.0412564,-0.0450234 -0.0371753,-0.0484478 -0.0328114,-0.0515035 -0.0281977,-0.0541672 -0.0233694,-0.0564187 -0.0183632,-0.0582408 -0.0132173,-0.0596196 -0.00797086,-0.0605447 -0.00266371,-0.061009 4.44089e-16,-3.05 0.2,0 -4.44089e-16,3.05 0.00190265,0.0435779 0.00569347,0.0432462 0.00944096,0.0425854 0.0131166,0.0416005 0.0166924,0.0402991 0.0201412,0.0386909 0.0234367,0.0367882 0.0265538,0.0346056 0.0294688,0.0321596 0.0321596,0.0294688 0.0346056,0.0265538 0.0367882,0.0234367 0.0386909,0.0201412 0.0402991,0.0166924 0.0416005,0.0131166 0.0425854,0.00944096 0.0432462,0.00569347 0.0435779,0.00190265 6.1,8.88178e-16 z "/>
<path fill="rgb(241,240,234)" stroke="rgb(241,240,234)" d="M 5.2988,6.52607 l -0.0507883,-0.00101577 -0.109703,-0.00711036 -0.104624,-0.0142207 -0.100561,-0.0223468 -0.0964977,-0.030473 -0.0914189,-0.0375833 -0.0873558,-0.0446937 -0.082277,-0.0528198 -0.0782139,-0.0599302 -0.0741509,-0.0680563 -0.0690721,-0.0751667 -0.065009,-0.082277 -0.0192995,-0.0284414 1.02897,-0.0355518 0.0385991,-0.00101577 0.10564,-0.0121892 0.0985293,-0.0253941 0.0893874,-0.0396149 0.082277,-0.0538356 0.0741509,-0.0670405 0.0660248,-0.0812612 0.0396149,-0.0609459 0.0416464,-0.0812612 0.0355518,-0.0883716 0.0294572,-0.095482 0.0223468,-0.102592 0.0162522,-0.110718 0.0101577,-0.116813 0.0030473,-0.11986 -0.0030473,-0.0985293 -0.00812612,-0.115797 -0.0162522,-0.109703 -0.0213311,-0.103608 -0.0284414,-0.0975135 -0.0355518,-0.0914189 -0.0416464,-0.0853243 -0.047741,-0.0792297 -0.0253941,-0.034536 -0.0680563,-0.0792297 -0.0761824,-0.065009 -0.0843085,-0.0497725 -0.0914189,-0.0365676 -0.0985293,-0.0213311 -0.106655,-0.00711036 1.02897,-0.0223468 0.0497725,0.0812612 0.0457095,0.0853243 0.0406306,0.0893874 0.0355518,0.0924347 0.030473,0.0964977 0.0264099,0.100561 0.0213311,0.103608 0.0162522,0.107671 0.0121892,0.111734 0.00711036,0.114782 0.00203153,0.117829 0,0.017268 -0.0030473,0.117829 -0.00812612,0.11275 -0.013205,0.110718 -0.0182838,0.10564 -0.0223468,0.102592 -0.0284414,0.099545 -0.0325045,0.095482 -0.0375833,0.0914189 -0.0426622,0.0883716 -0.047741,0.0843085 -0.0528198,0.0812612 -0.0335203,0.0457095 -0.065009,0.0792297 -0.0700878,0.0721194 -0.0751667,0.065009 -0.0792297,0.0568829 -0.0843085,0.0487567 -0.0883716,0.0426622 -0.0934504,0.0335203 -0.0985293,0.0264099 -0.102592,0.0192995 -0.107671,0.0111734 -0.111734,0.00406306 z "/>
<path fill="rgb(241,240,234)" stroke="rgb(241,240,234)" d="M 4.26983,6.00194 l -0.051804,-0.0802455 -0.0467252,-0.0853243 -0.0416464,-0.0883716 -0.0365676,-0.0914189 -0.0325045,-0.0964977 -0.0264099,-0.099545 -0.0223468,-0.103608 -0.017268,-0.107671 -0.0121892,-0.110718 -0.00711036,-0.114782 -0.0030473,-0.118845 0.00101577,-0.0446937 0.00406306,-0.116813 0.00914189,-0.11275 0.013205,-0.109703 0.0192995,-0.106655 0.0233626,-0.102592 0.0284414,-0.0985293 0.0325045,-0.0944662 0.0385991,-0.0914189 0.0426622,-0.0873558 0.047741,-0.0843085 0.0528198,-0.0802455 0.034536,-0.047741 0.0660248,-0.0792297 0.0711036,-0.0721194 0.0751667,-0.0639932 0.0792297,-0.0568829 0.0843085,-0.0487567 0.0893874,-0.0416464 0.0934504,-0.0335203 0.0985293,-0.0264099 0.102592,-0.0192995 0.107671,-0.0111734 0.111734,-0.00406306 0.0751667,0.00203153 0.108687,0.00914189 0.103608,0.0162522 0.099545,0.0243784 0.0944662,0.0314887 0.0904031,0.0396149 0.0853243,0.0467252 0.0802455,0.0548513 0.0761824,0.0619617 0.0711036,0.0700878 0.0670405,0.0771982 0.0619617,0.0853243 0.0152365,0.0233626 -1.02897,0.0223468 -0.0436779,0.00101577 -0.10564,0.0121892 -0.0985293,0.0264099 -0.0904031,0.0396149 -0.082277,0.0528198 -0.0731351,0.0670405 -0.0660248,0.0812612 -0.047741,0.0741509 -0.0406306,0.082277 -0.034536,0.0893874 -0.0284414,0.095482 -0.0223468,0.103608 -0.0162522,0.110718 -0.00914189,0.117829 -0.0030473,0.124939 0.0030473,0.113766 0.0101577,0.111734 0.017268,0.106655 0.0243784,0.100561 0.0314887,0.095482 0.0385991,0.0904031 0.0446937,0.0843085 0.00711036,0.0111734 0.0619617,0.0893874 0.0700878,0.0761824 0.0761824,0.0619617 0.0832928,0.047741 0.0904031,0.034536 0.0985293,0.0213311 0.104624,0.00711036 -1.02897,0.0355518 z "/>
<path fill="rgb(241,240,234)" stroke="rgb(241,240,234)" d="M 2.10929,6.52607 l -0.0406306,0 -0.107671,-0.00609459 -0.104624,-0.0111734 -0.101577,-0.0182838 -0.099545,-0.0243784 -0.095482,-0.0314887 -0.0934504,-0.0365676 -0.0914189,-0.0436779 -0.0873558,-0.0487567 -0.0853243,-0.0558671 -0.0832928,-0.0629775 -0.0792297,-0.0680563 -0.0771982,-0.0751667 1.11531,-0.0771982 0.113766,-0.00609459 0.107671,-0.0162522 0.0944662,-0.0294572 0.0832928,-0.0406306 0.0802455,-0.0629775 0.0528198,-0.0812612 0.0182838,-0.0944662 -0.00507883,-0.0528198 -0.0385991,-0.0893874 -0.0761824,-0.0782139 -0.00609459,-0.00507883 -0.0853243,-0.047741 -0.0985293,-0.0294572 -0.11275,-0.00914189 -0.127986,0 0,-0.564766 0.151349,0 0.00812612,0 0.118845,-0.00812612 0.101577,-0.0213311 0.0832928,-0.0355518 0.030473,-0.017268 0.0782139,-0.065009 0.0660248,-0.0873558 0.0203153,-0.0375833 0.0365676,-0.099545 0.0111734,-0.101577 -0.00711036,-0.0761824 -0.0314887,-0.0924347 -0.0568829,-0.0812612 -0.0832928,-0.0711036 -0.0558671,-0.034536 -0.0873558,-0.0365676 -0.0985293,-0.0274257 -0.109703,-0.0162522 -0.120876,-0.00507883 1.07976,-0.0162522 0.047741,0.0883716 0.0365676,0.0924347 0.0264099,0.095482 0.0152365,0.100561 0.00609459,0.103608 -0.00406306,0.0843085 -0.0142207,0.107671 -0.0264099,0.0985293 -0.0385991,0.0904031 -0.0203153,0.0375833 -0.0507883,0.0721194 -0.065009,0.0782139 -0.0802455,0.0843085 -0.095482,0.0904031 0.0213311,0.0284414 0.0711036,0.101577 0.0568829,0.0985293 0.0457095,0.095482 0.0314887,0.0924347 0.0192995,0.0893874 0.00609459,0.0863401 0,0.0111734 -0.00711036,0.10564 -0.0192995,0.099545 -0.0314887,0.0944662 -0.0446937,0.0893874 -0.0558671,0.0832928 -0.0680563,0.0782139 -0.0802455,0.0721194 -0.00406306,0.0030473 -0.0792297,0.0578986 -0.0843085,0.0487567 -0.0904031,0.0426622 -0.0944662,0.034536 -0.100561,0.0264099 -0.10564,0.0192995 -0.109703,0.0111734 -0.116813,0.00406306 z "/>
<path fill="rgb(241,240,234)" stroke="rgb(241,240,234)" d="M 0.962493,6.04358 l 0.41748,-0.384975 0.0467252,0.0467252 0.0802455,0.0690721 0.0853243,0.0578986 0.0883716,0.0487567 0.0934504,0.0365676 0.0964977,0.0274257 0.101577,0.0152365 0.10564,0.00609459 -1.11531,0.0771982 z "/>
<path fill="rgb(241,240,234)" stroke="rgb(241,240,234)" d="M 1.25605,4.25279 l -0.449984,-0.339266 0.0243784,-0.0274257 0.0721194,-0.0802455 0.0731351,-0.0761824 0.0741509,-0.0731351 0.00406306,-0.0030473 0.0771982,-0.0670405 0.0812612,-0.0599302 0.0843085,-0.0538356 0.0883716,-0.0467252 0.0914189,-0.0416464 0.095482,-0.034536 0.0985293,-0.0284414 0.101577,-0.0223468 0.106655,-0.0152365 0.108687,-0.0101577 0.11275,-0.0030473 0.0203153,0 0.11275,0.00507883 0.109703,0.0121892 0.104624,0.0182838 0.100561,0.0264099 0.095482,0.0335203 0.0924347,0.0396149 0.0873558,0.047741 0.0832928,0.0538356 0.0792297,0.0619617 0.0213311,0.0182838 0.0792297,0.0761824 0.0680563,0.0812612 0.0578986,0.0832928 -1.07976,0.0162522 -0.0883716,0.0030473 -0.107671,0.0111734 -0.102592,0.0192995 -0.0985293,0.0274257 -0.0924347,0.0365676 -0.0873558,0.0457095 -0.082277,0.0538356 -0.0771982,0.0619617 -0.0731351,0.0700878 -0.0670405,0.0792297 z "/>
<path fill="rgb(241,240,234)" stroke="rgb(241,240,234)" d="M 5.79347,2.4752 l -0.268162,-0.0985293 0,-1.42613 0.268162,0 0,0.64298 0.00101577,0.030473 0.0182838,0.0782139 0.0385991,0.0568829 0.0599302,0.0335203 0.0812612,0.0111734 0.430685,0.0284414 -0.0365676,0.0721194 -0.593207,0.0629775 0,0.507883 z "/>
<path fill="rgb(241,240,234)" stroke="rgb(241,240,234)" d="M 6.04742,2.07296 l -0.0446937,-0.00203153 -0.0853243,-0.017268 -0.0690721,-0.034536 -0.0548513,-0.051804 0.593207,-0.0629775 -0.0538356,0.0629775 -0.0467252,0.0385991 -0.0711036,0.0365676 -0.0792297,0.0223468 -0.0883716,0.00812612 z "/>
<path fill="rgb(241,240,234)" stroke="rgb(241,240,234)" d="M 6.42325,1.83222 l -0.430685,-0.0284414 0.0761824,-0.0142207 0.0680563,-0.0446937 0.0426622,-0.0619617 0.0162522,-0.0802455 0,-0.652121 0.248863,0 0,0.752682 -0.0030473,0.0487567 -0.0182838,0.0802455 z "/>
<path fill="rgb(241,240,234)" stroke="rgb(241,240,234)" d="M 5.21652,2.45082 l -0.958883,-1.80603 -0.269178,0 0.959898,1.80603 0.268162,0 z "/>
<path fill="rgb(241,240,234)" stroke="rgb(241,240,234)" d="M 2.68015,2.07296 l -0.051804,-0.00406306 -0.0782139,-0.0192995 -0.0721194,-0.0375833 -0.0670405,-0.0548513 0.553592,-0.0162522 -0.0568829,0.0548513 -0.0680563,0.0426622 -0.0761824,0.0253941 -0.0832928,0.00914189 z "/>
<path fill="rgb(241,240,234)" stroke="rgb(241,240,234)" d="M 3.29571,2.07296 l -0.0264099,-0.00101577 -0.0761824,-0.0121892 -0.0761824,-0.0253941 -0.0761824,-0.0396149 -0.0761824,-0.0538356 0.670405,-0.0375833 -0.0548513,0.0639932 -0.0457095,0.0375833 -0.0711036,0.0375833 -0.0792297,0.0223468 -0.0883716,0.00812612 z "/>
<path fill="rgb(241,240,234)" stroke="rgb(241,240,234)" d="M 2.41097,2.04655 l -0.268162,0 0,-1.09601 0.268162,0 0,0.658216 0.0101577,0.0700878 0.0406306,0.0700878 0.0467252,0.0365676 0.082277,0.0182838 0.646027,0 0.434748,0.0284414 -0.0365676,0.0711036 -0.670405,0.0375833 -0.553592,0.0162522 0,0.0893874 z "/>
<path fill="rgb(241,240,234)" stroke="rgb(241,240,234)" d="M 3.67154,1.83222 l -0.434748,-0.0284414 0.0741509,-0.0111734 0.0639932,-0.0436779 0.0365676,-0.0609459 0.013205,-0.0853243 0,-0.652121 0.269178,0 0,0.752682 -0.0030473,0.0497725 -0.0192995,0.0792297 z "/>
<path fill="rgb(241,240,234)" stroke="rgb(241,240,234)" d="M 3.23679,1.80378 l -0.646027,0 0.0711036,-0.0121892 0.0711036,-0.0446937 0.0406306,-0.0609459 0.0152365,-0.0832928 0,-0.652121 0.258004,0 0,0.663295 0.0111734,0.0629775 0.0457095,0.0700878 0.0538356,0.0385991 0.0792297,0.0182838 z "/>
<path fill="rgb(241,240,234)" stroke="rgb(241,240,234)" d="M 1.34544,2.4752 l -0.269178,-0.0985293 0,-1.42613 0.269178,0 0,0.319966 0.148302,0.203153 -0.148302,0.194011 0,0.807534 z "/>
<path fill="rgb(241,240,234)" stroke="rgb(241,240,234)" d="M 1.96505,2.03944 l -0.33114,0 -0.288477,-0.37177 0.148302,-0.194011 0.214327,-0.523119 0.268162,0 -0.298635,0.741509 0.287462,0.347392 z "/>
<path fill="rgb(187,30,16)" stroke="rgb(187,30,16)" d="M 0.4,0.965685 l -4.44089e-16,-0.265685 0.00114159,-0.0261467 0.00341608,-0.0259477 0.00566458,-0.0255513 0.00786996,-0.0249603 0.0100155,-0.0241794 0.0120847,-0.0232145 0.014062,-0.0220729 0.0159323,-0.0207634 0.0176813,-0.0192958 0.0192958,-0.0176813 0.0207634,-0.0159323 0.0220729,-0.014062 0.0232145,-0.0120847 0.0241794,-0.0100155 0.0249603,-0.00786996 0.0255513,-0.00566458 0.0259477,-0.00341608 0.0261467,-0.00114159 0.265685,0 6.13431,6.13431 0,0.265685 -0.00114159,0.0261467 -0.00341608,0.0259477 -0.00566458,0.0255513 -0.00786996,0.0249603 -0.0100155,0.0241794 -0.0120847,0.0232145 -0.014062,0.0220729 -0.0159323,0.0207634 -0.0176813,0.0192958 -0.0192958,0.0176813 -0.0207634,0.0159323 -0.0220729,0.014062 -0.0232145,0.0120847 -0.0241794,0.0100155 -0.0249603,0.00786996 -0.0255513,0.00566458 -0.0259477,0.00341608 -0.0261467,0.00114159 -0.265685,0 -6.13431,-6.13431 z "/>
</g></g></svg>
