<?xml version="1.0" encoding="UTF-8" standalone="no"?>
<!DOCTYPE svg PUBLIC "-//W3C//DTD SVG 1.1//EN" "http://www.w3.org/Graphics/SVG/1.1/DTD/svg11-flat.dtd"
[

]>
<svg xmlns="http://www.w3.org/2000/svg"  viewBox="-0.05625 -0.05625 4.6125 7.6125"><g fill="none" stroke="black" stroke-width="0.0125" transform="translate(0,7.5) scale(1, -1)">
<g id="Output" >
<path fill="rgb(0,91,140)" stroke="rgb(0,91,140)" d="M 0.7,0.4 l 1.55,-4.44089e-16 1.55,-4.44089e-16 0.0261467,0.00114159 0.0259477,0.00341608 0.0255513,0.00566458 0.0249603,0.00786996 0.0241794,0.0100155 0.0232145,0.0120847 0.0220729,0.014062 0.0207634,0.0159323 0.0192958,0.0176813 0.0176813,0.0192958 0.0159323,0.0207634 0.014062,0.0220729 0.0120847,0.0232145 0.0100155,0.0241794 0.00786996,0.0249603 0.00566458,0.0255513 0.00341608,0.0259477 0.00114159,0.0261467 0,6.1 -0.00114159,0.0261467 -0.00341608,0.0259477 -0.00566458,0.0255513 -0.00786996,0.0249603 -0.0100155,0.0241794 -0.0120847,0.0232145 -0.014062,0.0220729 -0.0159323,0.0207634 -0.0176813,0.0192958 -0.0192958,0.0176813 -0.0207634,0.0159323 -0.0220729,0.014062 -0.0232145,0.0120847 -0.0241794,0.0100155 -0.0249603,0.00786996 -0.0255513,0.00566458 -0.0259477,0.00341608 -0.0261467,0.00114159 -1.55,0 -1.55,0 -0.0261467,-0.00114159 -0.0259477,-0.00341608 -0.0255513,-0.00566458 -0.0249603,-0.00786996 -0.0241794,-0.0100155 -0.0232145,-0.0120847 -0.0220729,-0.014062 -0.0207634,-0.0159323 -0.0192958,-0.0176813 -0.0176813,-0.0192958 -0.0159323,-0.0207634 -0.014062,-0.0220729 -0.0120847,-0.0232145 -0.0100155,-0.0241794 -0.00786996,-0.0249603 -0.00566458,-0.0255513 -0.00341608,-0.0259477 -0.00114159,-0.0261467 -4.44089e-16,-6.1 0.00114159,-0.0261467 0.00341608,-0.0259477 0.00566458,-0.0255513 0.00786996,-0.0249603 0.0100155,-0.0241794 0.0120847,-0.0232145 0.014062,-0.0220729 0.0159323,-0.0207634 0.0176813,-0.0192958 0.0192958,-0.0176813 0.0207634,-0.0159323 0.0220729,-0.014062 0.0232145,-0.0120847 0.0241794,-0.0100155 0.0249603,-0.00786996 0.0255513,-0.00566458 0.0259477,-0.00341608 0.0261467,-0.00114159 z "/>
<path fill="rgb(0,91,140)" stroke="rgb(0,91,140)" d="M 3.8,7.5 l -1.55,0 -4.44089e-16,-0.2 1.55,0 0.0435779,-0.00190265 0.0432462,-0.00569347 0.0425854,-0.00944096 0.0416005,-0.0131166 0.0402991,-0.0166924 0.0386909,-0.0201412 0.0367882,-0.0234367 0.0346056,-0.0265538 0.0321596,-0.0294688 0.0294688,-0.0321596 0.0265538,-0.0346056 0.0234367,-0.0367882 0.0201412,-0.0386909 0.0166924,-0.0402991 0.0131166,-0.0416005 0.00944096,-0.0425854 0.00569347,-0.0432462 0.00190265,-0.0435779 0,-6.1 -0.00190265,-0.0435779 -0.00569347,-0.0432462 -0.00944096,-0.0425854 -0.0131166,-0.0416005 -0.0166924,-0.0402991 -0.0201412,-0.0386909 -0.0234367,-0.0367882 -0.0265538,-0.0346056 -0.0294688,-0.0321596 -0.0321596,-0.0294688 -0.0346056,-0.0265538 -0.0367882,-0.0234367 -0.0386909,-0.0201412 -0.0402991,-0.0166924 -0.0416005,-0.0131166 -0.0425854,-0.00944096 -0.0432462,-0.00569347 -0.0435779,-0.00190265 -1.55,4.44089e-16 0,-0.2 1.55,-4.44089e-16 0.061009,0.00266371 0.0605447,0.00797086 0.0596196,0.0132173 0.0582408,0.0183632 0.0564187,0.0233694 0.0541672,0.0281977 0.0515035,0.0328114 0.0484478,0.0371753 0.0450234,0.0412564 0.0412564,0.0450234 0.0371753,0.0484478 0.0328114,0.0515035 0.0281977,0.0541672 0.0233694,0.0564187 0.0183632,0.0582408 0.0132173,0.0596196 0.00797086,0.0605447 0.00266371,0.061009 8.88178e-16,6.1 -0.00266371,0.061009 -0.00797086,0.0605447 -0.0132173,0.0596196 -0.0183632,0.0582408 -0.0233694,0.0564187 -0.0281977,0.0541672 -0.0328114,0.0515035 -0.0371753,0.0484478 -0.0412564,0.0450234 -0.0450234,0.0412564 -0.0484478,0.0371753 -0.0515035,0.0328114 -0.0541672,0.0281977 -0.0564187,0.0233694 -0.0582408,0.0183632 -0.0596196,0.0132173 -0.0605447,0.00797086 -0.061009,0.00266371 z "/>
<path fill="rgb(0,91,140)" stroke="rgb(0,91,140)" d="M 0,6.8 l 0,-6.1 0.00266371,-0.061009 0.00797086,-0.0605447 0.0132173,-0.0596196 0.0183632,-0.0582408 0.0233694,-0.0564187 0.0281977,-0.0541672 0.0328114,-0.0515035 0.0371753,-0.0484478 0.0412564,-0.0450234 0.0450234,-0.0412564 0.0484478,-0.0371753 0.0515035,-0.0328114 0.0541672,-0.0281977 0.0564187,-0.0233694 0.0582408,-0.0183632 0.0596196,-0.0132173 0.0605447,-0.00797086 0.061009,-0.00266371 1.55,-8.88178e-16 0,0.2 -1.55,4.44089e-16 -0.0435779,0.00190265 -0.0432462,0.00569347 -0.0425854,0.00944096 -0.0416005,0.0131166 -0.0402991,0.0166924 -0.0386909,0.0201412 -0.0367882,0.0234367 -0.0346056,0.0265538 -0.0321596,0.0294688 -0.0294688,0.0321596 -0.0265538,0.0346056 -0.0234367,0.0367882 -0.0201412,0.0386909 -0.0166924,0.0402991 -0.0131166,0.0416005 -0.00944096,0.0425854 -0.00569347,0.0432462 -0.00190265,0.0435779 0,6.1 0.00190265,0.0435779 0.00569347,0.0432462 0.00944096,0.0425854 0.0131166,0.0416005 0.0166924,0.0402991 0.0201412,0.0386909 0.0234367,0.0367882 0.0265538,0.0346056 0.0294688,0.0321596 0.0321596,0.0294688 0.0346056,0.0265538 0.0367882,0.0234367 0.0386909,0.0201412 0.0402991,0.0166924 0.0416005,0.0131166 0.0425854,0.00944096 0.0432462,0.00569347 0.0435779,0.00190265 1.55,0 4.44089e-16,0.2 -1.55,0 -0.061009,-0.00266371 -0.0605447,-0.00797086 -0.0596196,-0.0132173 -0.0582408,-0.0183632 -0.0564187,-0.0233694 -0.0541672,-0.0281977 -0.0515035,-0.0328114 -0.0484478,-0.0371753 -0.0450234,-0.0412564 -0.0412564,-0.0450234 -0.0371753,-0.0484478 -0.0328114,-0.0515035 -0.0281977,-0.0541672 -0.0233694,-0.0564187 -0.0183632,-0.0582408 -0.0132173,-0.0596196 -0.00797086,-0.0605447 -0.00266371,-0.061009 z "/>
<path fill="rgb(241,240,234)" stroke="rgb(241,240,234)" d="M 2.25,0.4 l 0,-0.2 1.55,-4.44089e-16 0.0435779,0.00190265 0.0432462,0.00569347 0.0425854,0.00944096 0.0416005,0.0131166 0.0402991,0.0166924 0.0386909,0.0201412 0.0367882,0.0234367 0.0346056,0.0265538 0.0321596,0.0294688 0.0294688,0.0321596 0.0265538,0.0346056 0.0234367,0.0367882 0.0201412,0.0386909 0.0166924,0.0402991 0.0131166,0.0416005 0.00944096,0.0425854 0.00569347,0.0432462 0.00190265,0.0435779 0,6.1 -0.00190265,0.0435779 -0.00569347,0.0432462 -0.00944096,0.0425854 -0.0131166,0.0416005 -0.0166924,0.0402991 -0.0201412,0.0386909 -0.0234367,0.0367882 -0.0265538,0.0346056 -0.0294688,0.0321596 -0.0321596,0.0294688 -0.0346056,0.0265538 -0.0367882,0.0234367 -0.0386909,0.0201412 -0.0402991,0.0166924 -0.0416005,0.0131166 -0.0425854,0.00944096 -0.0432462,0.00569347 -0.0435779,0.00190265 -1.55,0 0,-0.2 1.55,0 0.0261467,-0.00114159 0.0259477,-0.00341608 0.0255513,-0.00566458 0.0249603,-0.00786996 0.0241794,-0.0100155 0.0232145,-0.0120847 0.0220729,-0.014062 0.0207634,-0.0159323 0.0192958,-0.0176813 0.0176813,-0.0192958 0.0159323,-0.0207634 0.014062,-0.0220729 0.0120847,-0.0232145 0.0100155,-0.0241794 0.00786996,-0.0249603 0.00566458,-0.0255513 0.00341608,-0.0259477 0.00114159,-0.0261467 0,-6.1 -0.00114159,-0.0261467 -0.00341608,-0.0259477 -0.00566458,-0.0255513 -0.00786996,-0.0249603 -0.0100155,-0.0241794 -0.0120847,-0.0232145 -0.014062,-0.0220729 -0.0159323,-0.0207634 -0.0176813,-0.0192958 -0.0192958,-0.0176813 -0.0207634,-0.0159323 -0.0220729,-0.014062 -0.0232145,-0.0120847 -0.0241794,-0.0100155 -0.0249603,-0.00786996 -0.0255513,-0.00566458 -0.0259477,-0.00341608 -0.0261467,-0.00114159 -1.55,4.44089e-16 z "/>
<path fill="rgb(241,240,234)" stroke="rgb(241,240,234)" d="M 0.7,0.4 l -0.0261467,0.00114159 -0.0259477,0.00341608 -0.0255513,0.00566458 -0.0249603,0.00786996 -0.0241794,0.0100155 -0.0232145,0.0120847 -0.0220729,0.014062 -0.0207634,0.0159323 -0.0192958,0.0176813 -0.0176813,0.0192958 -0.0159323,0.0207634 -0.014062,0.0220729 -0.0120847,0.0232145 -0.0100155,0.0241794 -0.00786996,0.0249603 -0.00566458,0.0255513 -0.00341608,0.0259477 -0.00114159,0.0261467 4.44089e-16,6.1 0.00114159,0.0261467 0.00341608,0.0259477 0.00566458,0.0255513 0.00786996,0.0249603 0.0100155,0.0241794 0.0120847,0.0232145 0.014062,0.0220729 0.0159323,0.0207634 0.0176813,0.0192958 0.0192958,0.0176813 0.0207634,0.0159323 0.0220729,0.014062 0.0232145,0.0120847 0.0241794,0.0100155 0.0249603,0.00786996 0.0255513,0.00566458 0.0259477,0.00341608 0.0261467,0.00114159 1.55,0 0,0.2 -1.55,0 -0.0435779,-0.00190265 -0.0432462,-0.00569347 -0.0425854,-0.00944096 -0.0416005,-0.0131166 -0.0402991,-0.0166924 -0.0386909,-0.0201412 -0.0367882,-0.0234367 -0.0346056,-0.0265538 -0.0321596,-0.0294688 -0.0294688,-0.0321596 -0.0265538,-0.0346056 -0.0234367,-0.0367882 -0.0201412,-0.0386909 -0.0166924,-0.0402991 -0.0131166,-0.0416005 -0.00944096,-0.0425854 -0.00569347,-0.0432462 -0.00190265,-0.0435779 0,-6.1 0.00190265,-0.0435779 0.00569347,-0.0432462 0.00944096,-0.0425854 0.0131166,-0.0416005 0.0166924,-0.0402991 0.0201412,-0.0386909 0.0234367,-0.0367882 0.0265538,-0.0346056 0.0294688,-0.0321596 0.0321596,-0.0294688 0.0346056,-0.0265538 0.0367882,-0.0234367 0.0386909,-0.0201412 0.0402991,-0.0166924 0.0416005,-0.0131166 0.0425854,-0.00944096 0.0432462,-0.00569347 0.0435779,-0.00190265 1.55,-4.44089e-16 0,0.2 -1.55,4.44089e-16 z "/>
<path fill="rgb(241,240,234)" stroke="rgb(241,240,234)" d="M 3.52125,2.46442 l -0.019321,-0.00107339 -0.0686968,-0.0354218 -0.0107339,-0.0128806 -0.0246879,-0.0794307 0.00107339,-0.0236145 0.0343484,-0.0751371 0.0150274,-0.013954 0.0729903,-0.0246879 0.019321,0.00107339 0.0676234,0.0397153 0.0118073,0.0161008 0.0236145,0.080504 -0.00107339,0.0171742 -0.0343484,0.0751371 -0.013954,0.0118073 -0.0729903,0.0246879 z "/>
<path fill="rgb(241,240,234)" stroke="rgb(241,240,234)" d="M 3.64361,2.03614 l -0.240439,0 0,-1.09486 0.240439,0 0,1.09486 z "/>
<path fill="rgb(241,240,234)" stroke="rgb(241,240,234)" d="M 2.64644,2.03614 l -0.273714,0 0.279081,-0.478731 0.132027,0.236145 -0.137394,0.242586 z "/>
<path fill="rgb(241,240,234)" stroke="rgb(241,240,234)" d="M 3.19708,2.03614 l -0.26942,0 -0.143834,-0.242586 -0.132027,-0.236145 0.132027,-0.238292 0.224338,-0.377832 0.26942,0 -0.354218,0.616124 0.273714,0.478731 z "/>
<path fill="rgb(241,240,234)" stroke="rgb(241,240,234)" d="M 2.6518,1.55741 l -0.359585,-0.616124 0.273714,0 0.217898,0.377832 -0.132027,0.238292 z "/>
<path fill="rgb(241,240,234)" stroke="rgb(241,240,234)" d="M 1.79739,2.0619 l -0.0590363,-0.00214677 -0.0740637,-0.0128806 -0.0751371,-0.0225411 -0.0751371,-0.0322016 -0.0772839,-0.0407887 0.100898,-0.231852 0.0225411,0.0150274 0.0719169,0.0375686 0.0740637,0.0225411 0.0772839,0.00751371 0.359585,0.0633298 -0.0343484,0.0601097 -0.0429355,0.0493758 -0.0536694,0.0386419 -0.0622565,0.0268347 -0.0719169,0.0161008 -0.080504,0.00536694 z "/>
<path fill="rgb(241,240,234)" stroke="rgb(241,240,234)" d="M 2.14302,1.86547 l -0.359585,-0.0633298 0.0568895,-0.00644032 0.0611831,-0.0322016 0.0407887,-0.0568895 0.019321,-0.0837242 -0.421841,-0.00107339 -0.0611831,-0.0386419 -0.0429355,-0.0418621 -0.0407887,-0.06655 0.358511,-0.0354218 0.052596,-0.00322016 0.0762105,-0.0171742 0.0794307,-0.0300548 0,-0.168522 -0.0697702,-0.0300548 -0.0772839,-0.0236145 -0.06655,-0.00751371 -0.359585,-0.0214677 0.0343484,-0.0708436 0.0493758,-0.0579629 0.0225411,-0.019321 0.466923,-0.00107339 0,-0.047229 0.228631,0 0,0.66228 0,0.0161008 -0.00644032,0.0933847 -0.0161008,0.0815774 -0.0246879,0.0708436 z "/>
<path fill="rgb(241,240,234)" stroke="rgb(241,240,234)" d="M 1.74157,1.6626 l -0.0483024,-0.00214677 -0.0815774,-0.0128806 -0.0719169,-0.0257613 0.421841,0.00107339 -0.0622565,0.019321 -0.0783573,0.0150274 -0.0794307,0.00536694 z "/>
<path fill="rgb(241,240,234)" stroke="rgb(241,240,234)" d="M 1.39487,1.47476 l -0.0246879,-0.0794307 -0.00751371,-0.0912379 0.00536694,-0.0837242 0.0203944,-0.0826508 0.359585,0.0214677 -0.0601097,0.00751371 -0.0644032,0.0364952 -0.0203944,0.0236145 -0.0246879,0.0772839 0.00322016,0.0268347 0.0440089,0.0686968 0.0461557,0.0268347 0.0815774,0.0128806 -0.358511,0.0354218 z "/>
<path fill="rgb(241,240,234)" stroke="rgb(241,240,234)" d="M 1.49469,0.989588 l 0.0654766,-0.0375686 0.0740637,-0.0236145 0.0837242,-0.00751371 0.019321,0.00107339 0.0794307,0.0085871 0.0751371,0.0225411 0.0697702,0.0354218 -0.466923,0.00107339 z "/>
<path fill="rgb(241,240,234)" stroke="rgb(241,240,234)" d="M 1.06534,2.46442 l -0.245806,-0.0976782 0,-0.337044 -0.161008,0 0,-0.251173 0.161008,0 0,-0.527033 0,-0.00322016 0.00751371,-0.0955315 0.346704,0.0311282 -0.0568895,0.0150274 -0.0386419,0.0536694 -0.0128806,0.0923113 0,0.433648 0.20287,0 0,0.251173 -0.20287,0 0,0.434722 z "/>
<path fill="rgb(241,240,234)" stroke="rgb(241,240,234)" d="M 1.28324,1.24076 l -0.0418621,-0.0354218 -0.0676234,-0.0214677 -0.346704,-0.0311282 0.0214677,-0.080504 0.0354218,-0.0676234 0.0364952,-0.0397153 0.0644032,-0.0375686 0.080504,-0.0128806 0.0279081,0.00107339 0.0740637,0.0182476 0.0772839,0.0375686 0.0386419,0.26942 z "/>
<path fill="rgb(241,240,234)" stroke="rgb(241,240,234)" d="M 2.55842,6.76763 l -1.46839,0 0,-3.49924 0.573189,0 0,1.37179 0.895205,0 0.0901645,0.00322016 0.109486,0.00966049 0.101972,0.019321 0.0955315,0.0268347 0.0869444,0.0354218 0.080504,0.0440089 0.0837242,0.0590363 0.0794307,0.0697702 0.0708436,0.0783573 0.0633298,0.085871 0.0558161,0.0944581 0.0461557,0.099825 -1.85911,0.00214677 0,0.872664 0.917746,0 0.939214,0.0246879 -0.0440089,0.0901645 -0.0536694,0.0837242 -0.0633298,0.0794307 -0.0708436,0.0729903 -0.080504,0.06655 -0.0901645,0.0611831 -0.0633298,0.0364952 -0.0890911,0.0407887 -0.0944581,0.0311282 -0.0987516,0.0225411 -0.105192,0.0128806 -0.108412,0.00429355 z "/>
<path fill="rgb(241,240,234)" stroke="rgb(241,240,234)" d="M 3.52017,6.16546 l -0.939214,-0.0246879 0.0686968,-0.00322016 0.104119,-0.0203944 0.0880178,-0.0375686 0.0740637,-0.0568895 0.0246879,-0.0257613 0.0579629,-0.0880178 0.0343484,-0.099825 0.0118073,-0.112706 -0.00107339,-0.0289815 -0.0182476,-0.110559 -0.0418621,-0.0944581 -0.0676234,-0.0772839 -0.0440089,-0.0343484 -0.085871,-0.0461557 -0.0966049,-0.0279081 -0.108412,-0.0085871 -0.917746,0 1.85911,-0.00214677 0.0375686,0.105192 0.0279081,0.106265 0.0161008,0.108412 0.00536694,0.110559 -0.00107339,0.0515226 -0.0085871,0.112706 -0.0171742,0.107339 -0.0268347,0.101972 -0.0354218,0.0955315 z "/>
</g></g></svg>
