<?xml version="1.0" encoding="UTF-8" standalone="no"?>
<!DOCTYPE svg PUBLIC "-//W3C//DTD SVG 1.1//EN" "http://www.w3.org/Graphics/SVG/1.1/DTD/svg11-flat.dtd"
[

]>
<svg xmlns="http://www.w3.org/2000/svg"  viewBox="-0.09375 -0.09375 7.6875 7.6875"><g fill="none" stroke="black" stroke-width="0.0125" transform="translate(0,7.5) scale(1, -1)">
<g id="Output" >
<path fill="rgb(241,240,234)" stroke="rgb(241,240,234)" d="M 4.02742,0.782873 l 0,2.63292 0.00210985,0.0483822 0.00631353,0.0480148 0.0104693,0.047283 0.0145455,0.0461921 0.0185114,0.0447506 0.0223366,0.0429693 0.0259923,0.0408618 0.0294507,0.038444 0.0326855,0.0357344 0.0356721,0.0327534 0.0383879,0.0295238 0.0408122,0.0260701 0.0429267,0.0224184 0.0447153,0.0185965 0.0461644,0.0146334 8.01137e-13,2.15827e-13 0.687267,0.185154 0.0219631,-0.715499 0.000746072,-0.00996051 0.00162009,-0.00985614 0.00248153,-0.00967524 0.0033237,-0.0094192 0.00414005,-0.00909001 0.00492426,-0.00869022 0.00567022,-0.00822295 0.00637215,-0.00769182 0.00702459,-0.00710095 0.00762247,-0.00645493 0.00816117,-0.00575879 0.00863648,-0.00501792 0.00904472,-0.00423809 0.00938272,-0.00342534 0.00964785,-0.00258599 0.00983805,-0.00172656 0.00995186,-0.000853715 0.00998837,2.57566e-05 0.00994732,0.000905028 0.00982902,0.00177727 0.00963438,0.00263571 0.00936492,0.00347368 0.00902274,0.00428468 0.00861048,0.0050624 0.00813136,0.0058008 0.00758908,0.00649416 0.00698787,0.00713708 0.00400803,0.00472561 1.13516,1.3384 0.00603912,0.00778541 0.00533691,0.00828257 0.00459401,0.00871657 0.00381608,0.00908411 0.00300905,0.00938239 0.00217908,0.00960912 0.0013325,0.00976258 0.000475747,0.00984161 -0.000384628,0.00984559 -0.00124207,0.0097745 -0.00209004,0.00962888 -0.00292208,0.00940984 -0.00373183,0.00911905 -0.00451313,0.00875872 -0.00526002,0.00833161 -0.0059668,0.00784098 -0.00662808,0.00729055 -0.00723882,0.00668454 -0.00779437,0.00602755 -0.00829048,0.00532461 -0.00872339,0.00458106 -0.00908977,0.00380259 -0.00163968,0.00058892 -1.65844,0.595658 -0.00936167,0.00290278 -0.00958118,0.00206592 -0.00972604,0.00121297 -0.00979511,0.000350564 -0.00978786,-0.000514571 -0.00970436,-0.0013757 -0.00954524,-0.0022261 -0.00931174,-0.00305916 -0.0090057,-0.00386839 -0.00862949,-0.00464748 -0.00818604,-0.00539035 -0.0076788,-0.00609123 -0.00711174,-0.00674464 -0.00648927,-0.00734551 -0.00581623,-0.00788914 -0.00509788,-0.0083713 -0.00433981,-0.00878824 -0.00354792,-0.0091367 -0.00272839,-0.00941398 -0.0018876,-0.0096179 -0.00103211,-0.00974689 -0.00016857,-0.00979993 0.000696281,-0.00977662 0.00155571,-0.00967713 0.00240301,-0.00950224 0.00323159,-0.00925332 0.004035,-0.00893229 0.00480696,-0.00854167 0.33578,-0.630775 -0.687267,-0.182013 -8.58815e-05,-2.27445e-05 -0.0887663,-0.0276239 -0.086082,-0.0351059 -0.0827684,-0.0423312 -0.0788496,-0.0492471 -0.0743544,-0.0558029 -0.0693155,-0.0619507 -0.0637699,-0.0676456 -0.0637197,0.067693 -0.0692695,0.0620022 -0.0743129,0.0558581 -0.078813,0.0493056 -0.0827369,0.0423927 -0.0860559,0.0351698 -0.0887458,0.0276898 -8.58646e-05,2.28083e-05 -0.687131,0.182523 0.336249,0.630526 0.0048133,0.0085381 0.00404163,0.00892929 0.00323846,0.00925091 0.00241007,0.00950045 0.00156289,0.00967597 0.000703542,0.0097761 -0.000161291,0.00980005 -0.00102487,0.00974765 -0.00188046,0.0096193 -0.0027214,0.009416 -0.00354113,0.00913933 -0.00433328,0.00879146 -0.00509166,0.00837508 -0.00581037,0.00789346 -0.00648381,0.00735032 -0.00710673,0.00674992 -0.00767428,0.00609693 -0.00818203,0.00539643 -0.00862603,0.00465388 -0.00900282,0.00387508 -0.00930947,0.00306608 -0.00954358,0.00223319 -0.00970333,0.0013829 -0.00978748,0.00052184 -0.00979537,-0.000343289 -0.00972693,-0.00120574 -0.00958271,-0.0020588 -0.00936383,-0.00289582 -1.65888,-0.594427 -0.00164012,-0.000587702 -0.00909259,-0.00379583 -0.00872679,-0.00457458 -0.00829444,-0.00531845 -0.00779884,-0.00602176 -0.00724379,-0.00667916 -0.00663349,-0.00728563 -0.00597262,-0.00783654 -0.0052662,-0.00832771 -0.00451964,-0.00875537 -0.0037386,-0.00911627 -0.00292907,-0.00940766 -0.00209719,-0.00962732 -0.00124933,-0.00977357 -0.00039194,-0.0098453 0.000468438,-0.00984196 0.00132524,-0.00976357 0.00217195,-0.00961074 0.00300209,-0.00938462 0.00380933,-0.00908694 0.00458754,-0.00871998 0.00533076,-0.00828653 0.00603334,-0.00778989 1.13417,-1.33924 0.00400452,-0.00472858 0.00698257,-0.00714227 0.00758426,-0.00649979 0.00812705,-0.00580684 0.00860672,-0.00506879 0.00901955,-0.00429138 0.00936234,-0.00348064 0.00963242,-0.00264287 0.0098277,-0.00178457 0.00994665,-0.000912416 0.00998835,-3.31753e-05 0.00995249,0.000846323 0.00983933,0.00171925 0.00964977,0.00257882 0.00938526,0.00341837 0.00904786,0.00423137 0.0086402,0.00501151 0.00816544,0.00575273 0.00762727,0.00644927 0.00702986,0.00709573 0.00637786,0.00768708 0.00567633,0.00821874 0.00493071,0.00868656 0.0041468,0.00908693 0.00333069,0.00941673 0.00248872,0.0096734 0.00162741,0.00985494 0.000753469,0.00995995 0.0224945,0.715483 0.687129,-0.185665 7.99361e-13,-2.15827e-13 0.0332777,-0.0101274 0.032579,-0.0121893 0.0317527,-0.0142034 0.0421097,-0.0227307 0.0399983,-0.0262687 0.0375905,-0.0296119 0.034904,-0.0327356 0.0319587,-0.0356167 0.0287766,-0.0382337 0.0253811,-0.0405673 0.0217975,-0.0426002 0.0180523,-0.0443173 0.0141733,-0.0457059 0.0101892,-0.0467556 0.00612958,-0.0474588 0.00202452,-0.0478102 -0.00195554,-2.63292 0.278519,-0.000103432 0.278519,-0.000103432 z "/>
<path fill="rgb(241,240,234)" stroke="rgb(241,240,234)" d="M 4.29406,4.49216 l 8.58815e-05,2.27445e-05 -2.86274e-05,-7.58072e-06 -2.86272e-05,-7.5815e-06 -2.8627e-05,-7.58228e-06 z "/>
<path fill="rgb(241,240,234)" stroke="rgb(241,240,234)" d="M 3.2065,4.49257 l -2.86213e-05,7.60354e-06 -2.86215e-05,7.60276e-06 -2.86217e-05,7.60198e-06 8.58646e-05,-2.28083e-05 z "/>
<path fill="rgb(0,91,140)" stroke="rgb(0,91,140)" d="M 0.4,3.75 l 1.02667e-07,0.00082938 3.08002e-07,0.00082938 5.13337e-07,0.00082938 0.0135381,0.298391 0.0400634,0.295999 0.0662701,0.291253 0.09195,0.284193 0.116899,0.274873 0.140918,0.263367 0.163818,0.249768 0.185415,0.234183 0.1971,0.208571 0.214227,0.190937 0.229782,0.171902 0.243651,0.151606 0.255732,0.130197 0.265937,0.107833 0.27419,0.0846777 0.280431,0.0609009 0.284614,0.0366773 0.286708,0.0121846 -0.00109461,-2.94754 -0.0637197,0.067693 -0.0692695,0.0620022 -0.0743129,0.0558581 -0.078813,0.0493056 -0.0827369,0.0423927 -0.0860559,0.0351698 -0.0887458,0.0276898 -2.86213e-05,7.60354e-06 -2.86215e-05,7.60276e-06 -2.86217e-05,7.60198e-06 -0.687131,0.182523 0.336249,0.630526 0.0048133,0.0085381 0.00404163,0.00892929 0.00323846,0.00925091 0.00241007,0.00950045 0.00156289,0.00967597 0.000703542,0.0097761 -0.000161291,0.00980005 -0.00102487,0.00974765 -0.00188046,0.0096193 -0.0027214,0.009416 -0.00354113,0.00913933 -0.00433328,0.00879146 -0.00509166,0.00837508 -0.00581037,0.00789346 -0.00648381,0.00735032 -0.00710673,0.00674992 -0.00767428,0.00609693 -0.00818203,0.00539643 -0.00862603,0.00465388 -0.00900282,0.00387508 -0.00930947,0.00306608 -0.00954358,0.00223319 -0.00970333,0.0013829 -0.00978748,0.00052184 -0.00979537,-0.000343289 -0.00972693,-0.00120574 -0.00958271,-0.0020588 -0.00936383,-0.00289582 -1.65888,-0.594427 -0.000547711,-0.000193086 -0.00054671,-0.000195902 -0.000545694,-0.000198714 -0.00909259,-0.00379583 -0.00872679,-0.00457458 -0.00829444,-0.00531845 -0.00779884,-0.00602176 -0.00724379,-0.00667916 -0.00663349,-0.00728563 -0.00597262,-0.00783654 -0.0052662,-0.00832771 -0.00451964,-0.00875537 -0.0037386,-0.00911627 -0.00292907,-0.00940766 -0.00209719,-0.00962732 -0.00124933,-0.00977357 -0.00039194,-0.0098453 0.000468438,-0.00984196 0.00132524,-0.00976357 0.00217195,-0.00961074 0.00300209,-0.00938462 0.00380933,-0.00908694 0.00458754,-0.00871998 0.00533076,-0.00828653 0.00603334,-0.00778989 1.13417,-1.33924 0.00130604,-0.00160044 0.00133499,-0.00157637 0.0013635,-0.00155178 0.00698257,-0.00714227 0.00758426,-0.00649979 0.00812705,-0.00580684 0.00860672,-0.00506879 0.00901955,-0.00429138 0.00936234,-0.00348064 0.00963242,-0.00264287 0.0098277,-0.00178457 0.00994665,-0.000912416 0.00998835,-3.31753e-05 0.00995249,0.000846323 0.00983933,0.00171925 0.00964977,0.00257882 0.00938526,0.00341837 0.00904786,0.00423137 0.0086402,0.00501151 0.00816544,0.00575273 0.00762727,0.00644927 0.00702986,0.00709573 0.00637786,0.00768708 0.00567633,0.00821874 0.00493071,0.00868656 0.0041468,0.00908693 0.00333069,0.00941673 0.00248872,0.0096734 0.00162741,0.00985494 0.000753469,0.00995995 0.0224945,0.715483 0.687129,-0.185665 7.99361e-13,-2.15827e-13 0.0332777,-0.0101274 0.032579,-0.0121893 0.0317527,-0.0142034 0.0421097,-0.0227307 0.0399983,-0.0262687 0.0375905,-0.0296119 0.034904,-0.0327356 0.0319587,-0.0356167 0.0287766,-0.0382337 0.0253811,-0.0405673 0.0217975,-0.0426002 0.0180523,-0.0443173 0.0141733,-0.0457059 0.0101892,-0.0467556 0.00612958,-0.0474588 0.00202452,-0.0478102 -0.00195554,-2.63292 0.278519,-0.000103432 -0.000142224,-0.382976 -0.291898,0.0128501 -0.289668,0.0382359 -0.285235,0.0633307 -0.278632,0.0879438 -0.269909,0.111888 -0.259133,0.134981 -0.246386,0.157047 -0.231764,0.177919 -0.21538,0.197437 -0.197357,0.215453 -0.177833,0.23183 -0.156956,0.246444 -0.134885,0.259183 -0.111788,0.26995 -0.0878404,0.278664 -0.0632248,0.285258 -0.0381283,0.289682 -0.0127417,0.291903 z "/>
<path fill="rgb(0,91,140)" stroke="rgb(0,91,140)" d="M 7.1,3.75 l -0.0114859,0.277171 -0.034379,0.27527 -0.0570363,0.271482 -0.0793025,0.265832 -0.108724,0.27574 -0.132672,0.265051 -0.155581,0.252286 -0.177272,0.237547 -0.197575,0.220948 -0.216331,0.202619 -0.233394,0.182704 -0.24863,0.161359 -0.26192,0.138751 -0.273159,0.115056 -0.28226,0.0904608 -0.289151,0.0651574 -0.293778,0.0393439 -0.296106,0.0132225 -0.00109461,-2.94754 0.0637699,0.0676456 0.0693155,0.0619507 0.0743544,0.0558029 0.0788496,0.0492471 0.0827684,0.0423312 0.086082,0.0351059 0.0887663,0.0276239 2.8627e-05,7.58228e-06 2.86272e-05,7.5815e-06 2.86274e-05,7.58072e-06 0.687267,0.182013 -0.33578,0.630775 -0.00480696,0.00854167 -0.004035,0.00893229 -0.00323159,0.00925332 -0.00240301,0.00950224 -0.00155571,0.00967713 -0.000696281,0.00977662 0.00016857,0.00979993 0.00103211,0.00974689 0.0018876,0.0096179 0.00272839,0.00941398 0.00354792,0.0091367 0.00433981,0.00878824 0.00509788,0.0083713 0.00581623,0.00788914 0.00648927,0.00734551 0.00711174,0.00674464 0.0076788,0.00609123 0.00818604,0.00539035 0.00862949,0.00464748 0.0090057,0.00386839 0.00931174,0.00305916 0.00954524,0.0022261 0.00970436,0.0013757 0.00978786,0.000514571 0.00979511,-0.000350564 0.00972604,-0.00121297 0.00958118,-0.00206592 0.00936167,-0.00290278 1.65844,-0.595658 0.000547567,-0.000193493 0.000546564,-0.000196308 0.000545547,-0.000199119 0.00908977,-0.00380259 0.00872339,-0.00458106 0.00829048,-0.00532461 0.00779437,-0.00602755 0.00723882,-0.00668454 0.00662808,-0.00729055 0.0059668,-0.00784098 0.00526002,-0.00833161 0.00451313,-0.00875872 0.00373183,-0.00911905 0.00292208,-0.00940984 0.00209004,-0.00962888 0.00124207,-0.0097745 0.000384628,-0.00984559 -0.000475747,-0.00984161 -0.0013325,-0.00976258 -0.00217908,-0.00960912 -0.00300905,-0.00938239 -0.00381608,-0.00908411 -0.00459401,-0.00871657 -0.00533691,-0.00828257 -0.00603912,-0.00778541 -1.13516,-1.3384 -0.00130723,-0.00159947 -0.00133616,-0.00157538 -0.00136465,-0.00155077 -0.00698787,-0.00713708 -0.00758908,-0.00649416 -0.00813136,-0.0058008 -0.00861048,-0.0050624 -0.00902274,-0.00428468 -0.00936492,-0.00347368 -0.00963438,-0.00263571 -0.00982902,-0.00177727 -0.00994732,-0.000905028 -0.00998837,-2.57566e-05 -0.00995186,0.000853715 -0.00983805,0.00172656 -0.00964785,0.00258599 -0.00938272,0.00342534 -0.00904472,0.00423809 -0.00863648,0.00501792 -0.00816117,0.00575879 -0.00762247,0.00645493 -0.00702459,0.00710095 -0.00637215,0.00769182 -0.00567022,0.00822295 -0.00492426,0.00869022 -0.00414005,0.00909001 -0.0033237,0.0094192 -0.00248153,0.00967524 -0.00162009,0.00985614 -0.000746072,0.00996051 -0.0219631,0.715499 -0.687267,-0.185154 -8.01137e-13,-2.15827e-13 -0.0461644,-0.0146334 -0.0447153,-0.0185965 -0.0429267,-0.0224184 -0.0408122,-0.0260701 -0.0383879,-0.0295238 -0.0356721,-0.0327534 -0.0326855,-0.0357344 -0.0294507,-0.038444 -0.0259923,-0.0408618 -0.0223366,-0.0429693 -0.0185114,-0.0447506 -0.0145455,-0.0461921 -0.0104693,-0.047283 -0.00631353,-0.0480148 -0.00210985,-0.0483822 0,-2.63292 -0.278519,0.000103432 -0.000142224,-0.382976 0.00041469,-1.28334e-07 0.00041469,-7.70006e-08 0.00041469,-2.56669e-08 0.291972,0.0127478 0.28975,0.0381463 0.285322,0.0632545 0.278724,0.0878812 0.270004,0.111839 0.259229,0.134946 0.246481,0.157026 0.231857,0.17791 0.215469,0.197441 0.197441,0.215469 0.17791,0.231857 0.157026,0.246481 0.134946,0.259229 0.111839,0.270004 0.0878812,0.278724 0.0632545,0.285322 0.0381463,0.28975 0.0127478,0.291972 z "/>
<path fill="rgb(0,91,140)" stroke="rgb(0,91,140)" d="M 1.06776,6.07553 l -0.151112,0.131016 -0.207757,-0.262428 -0.18353,-0.279907 -0.15784,-0.295157 -0.130893,-0.308056 -0.102903,-0.3185 -0.0740935,-0.326407 -0.0446935,-0.331713 -0.0149375,-0.334377 0.0142699,-0.326834 0.042701,-0.324347 0.0708072,-0.319391 0.0983745,-0.312004 0.125193,-0.302243 0.151059,-0.290182 0.175775,-0.275912 0.199154,-0.259542 0.221016,-0.241197 0.241197,-0.221016 0.259542,-0.199154 0.275912,-0.175775 0.290182,-0.151059 0.302243,-0.125193 0.312004,-0.0983745 0.319391,-0.0708072 0.324347,-0.042701 0.326834,-0.0142699 0,0.2 -0.309403,0.0135088 -0.307048,0.0404237 -0.302357,0.0670308 -0.295364,0.0931279 -0.286123,0.118516 -0.274705,0.143002 -0.261196,0.1664 -0.2457,0.188532 -0.228333,0.209229 -0.209229,0.228333 -0.188532,0.2457 -0.1664,0.261196 -0.143002,0.274705 -0.118516,0.286123 -0.0931279,0.295364 -0.0670308,0.302357 -0.0404237,0.307048 -0.0135088,0.309403 0.0141408,0.316544 0.0423099,0.314022 0.0701418,0.308999 0.097415,0.301513 0.123912,0.291626 0.149422,0.279416 0.173742,0.264979 0.196677,0.248431 z "/>
<path fill="rgb(0,91,140)" stroke="rgb(0,91,140)" d="M 7.5,3.75 l -0.0128574,0.310266 -0.0384839,0.308138 -0.0638466,0.303898 -0.0887715,0.297573 -0.189122,-0.06506 0.084037,-0.281703 0.0604415,-0.28769 0.0364315,-0.291704 0.0121716,-0.293718 -0.0135088,-0.309403 -0.0404237,-0.307048 -0.0670308,-0.302357 -0.0931279,-0.295364 -0.118516,-0.286123 -0.143002,-0.274705 -0.1664,-0.261196 -0.188532,-0.2457 -0.209229,-0.228333 -0.228333,-0.209229 -0.2457,-0.188532 -0.261196,-0.1664 -0.274705,-0.143002 -0.286123,-0.118516 -0.295364,-0.0931279 -0.302357,-0.0670308 -0.307048,-0.0404237 -0.309403,-0.0135088 0,-0.2 0.326834,0.0142699 0.324347,0.042701 0.319391,0.0708072 0.312004,0.0983745 0.302243,0.125193 0.290182,0.151059 0.275912,0.175775 0.259542,0.199154 0.241197,0.221016 0.221016,0.241197 0.199154,0.259542 0.175775,0.275912 0.151059,0.290182 0.125193,0.302243 0.0983745,0.312004 0.0708072,0.319391 0.042701,0.324347 0.0142699,0.326834 z "/>
<path fill="rgb(0,91,140)" stroke="rgb(0,91,140)" d="M 1.06776,6.07553 l 0.213058,0.225086 0.231878,0.205645 0.248931,0.184636 0.264087,0.162221 0.27723,0.138568 0.288259,0.11386 0.297092,0.0882837 0.30366,0.0620345 0.307913,0.0353125 0.30982,0.00832127 0.309365,-0.0187333 0.306552,-0.0456452 0.301402,-0.0722091 0.293955,-0.0982226 0.284268,-0.123487 0.272414,-0.147811 0.258483,-0.171008 0.242583,-0.192902 0.224833,-0.213325 0.20537,-0.232122 0.184341,-0.24915 0.161907,-0.264279 0.138239,-0.277394 0.113518,-0.288394 0.189122,0.06506 -0.119913,0.304642 -0.146028,0.293022 -0.171029,0.279168 -0.194726,0.263187 -0.21694,0.245199 -0.2375,0.225343 -0.256249,0.203769 -0.273046,0.180642 -0.287761,0.156138 -0.300283,0.130445 -0.310516,0.103756 -0.318383,0.0762772 -0.323822,0.0482167 -0.326794,0.0197887 -0.327274,-0.00879008 -0.32526,-0.0373019 -0.320767,-0.0655294 -0.313829,-0.0932574 -0.304499,-0.120275 -0.292848,-0.146375 -0.278965,-0.17136 -0.262956,-0.195039 -0.244942,-0.217231 -0.225061,-0.237767 0.151112,-0.131016 z "/>
<path fill="rgb(241,240,234)" stroke="rgb(241,240,234)" d="M 7.1,3.75 l -0.0127478,-0.291972 -0.0381463,-0.28975 -0.0632545,-0.285322 -0.0878812,-0.278724 -0.111839,-0.270004 -0.134946,-0.259229 -0.157026,-0.246481 -0.17791,-0.231857 -0.197441,-0.215469 -0.215469,-0.197441 -0.231857,-0.17791 -0.246481,-0.157026 -0.259229,-0.134946 -0.270004,-0.111839 -0.278724,-0.0878812 -0.285322,-0.0632545 -0.28975,-0.0381463 -0.291972,-0.0127478 0,-0.2 0.309403,0.0135088 0.307048,0.0404237 0.302357,0.0670308 0.295364,0.0931279 0.286123,0.118516 0.274705,0.143002 0.261196,0.1664 0.2457,0.188532 0.228333,0.209229 0.209229,0.228333 0.188532,0.2457 0.1664,0.261196 0.143002,0.274705 0.118516,0.286123 0.0931279,0.295364 0.0670308,0.302357 0.0404237,0.307048 0.0135088,0.309403 -0.0121716,0.293718 -0.0364315,0.291704 -0.0604415,0.28769 -0.084037,0.281703 -0.189122,-0.06506 0.0793025,-0.265832 0.0570363,-0.271482 0.034379,-0.27527 0.0114859,-0.277171 z "/>
<path fill="rgb(241,240,234)" stroke="rgb(241,240,234)" d="M 1.06776,6.07553 l -0.196677,-0.248431 -0.173742,-0.264979 -0.149422,-0.279416 -0.123912,-0.291626 -0.097415,-0.301513 -0.0701418,-0.308999 -0.0423099,-0.314022 -0.0141408,-0.316544 0.0135088,-0.309403 0.0404237,-0.307048 0.0670308,-0.302357 0.0931279,-0.295364 0.118516,-0.286123 0.143002,-0.274705 0.1664,-0.261196 0.188532,-0.2457 0.209229,-0.228333 0.228333,-0.209229 0.2457,-0.188532 0.261196,-0.1664 0.274705,-0.143002 0.286123,-0.118516 0.295364,-0.0931279 0.302357,-0.0670308 0.307048,-0.0404237 0.309403,-0.0135088 0,0.2 -0.00041469,2.56669e-08 -0.00041469,7.70006e-08 -0.00041469,1.28334e-07 -0.291898,0.0128501 -0.289668,0.0382359 -0.285235,0.0633307 -0.278632,0.0879438 -0.269909,0.111888 -0.259133,0.134981 -0.246386,0.157047 -0.231764,0.177919 -0.21538,0.197437 -0.197357,0.215453 -0.177833,0.23183 -0.156956,0.246444 -0.134885,0.259183 -0.111788,0.26995 -0.0878404,0.278664 -0.0632248,0.285258 -0.0381283,0.289682 -0.0127417,0.291903 1.02667e-07,0.00082938 3.08002e-07,0.00082938 5.13337e-07,0.00082938 0.0135381,0.298391 0.0400634,0.295999 0.0662701,0.291253 0.09195,0.284193 0.116899,0.274873 0.140918,0.263367 0.163818,0.249768 0.185415,0.234183 -0.151112,0.131016 z "/>
<path fill="rgb(241,240,234)" stroke="rgb(241,240,234)" d="M 1.06776,6.07553 l 0.151112,-0.131016 0.1971,0.208571 0.214227,0.190937 0.229782,0.171902 0.243651,0.151606 0.255732,0.130197 0.265937,0.107833 0.27419,0.0846777 0.280431,0.0609009 0.284614,0.0366773 0.286708,0.0121846 0.296106,-0.0132225 0.293778,-0.0393439 0.289151,-0.0651574 0.28226,-0.0904608 0.273159,-0.115056 0.26192,-0.138751 0.24863,-0.161359 0.233394,-0.182704 0.216331,-0.202619 0.197575,-0.220948 0.177272,-0.237547 0.155581,-0.252286 0.132672,-0.265051 0.108724,-0.27574 0.189122,0.06506 -0.113518,0.288394 -0.138239,0.277394 -0.161907,0.264279 -0.184341,0.24915 -0.20537,0.232122 -0.224833,0.213325 -0.242583,0.192902 -0.258483,0.171008 -0.272414,0.147811 -0.284268,0.123487 -0.293955,0.0982226 -0.301402,0.0722091 -0.306552,0.0456452 -0.309365,0.0187333 -0.30982,-0.00832127 -0.307913,-0.0353125 -0.30366,-0.0620345 -0.297092,-0.0882837 -0.288259,-0.11386 -0.27723,-0.138568 -0.264087,-0.162221 -0.248931,-0.184636 -0.231878,-0.205645 -0.213058,-0.225086 z "/>
</g></g></svg>
