<?xml version="1.0" encoding="UTF-8" standalone="no"?>
<!DOCTYPE svg PUBLIC "-//W3C//DTD SVG 1.1//EN" "http://www.w3.org/Graphics/SVG/1.1/DTD/svg11-flat.dtd"
[

]>
<svg xmlns="http://www.w3.org/2000/svg"  viewBox="-0.0891147 -0.0891147 7.30741 7.30741"><g fill="none" stroke="black" stroke-width="0.0125" transform="translate(0,7.12918) scale(1, -1)">
<g id="Output" >
<path fill="rgb(241,240,234)" stroke="rgb(241,240,234)" d="M 2.84746,3.1 l -0.253032,0 0,-1 0.820534,0 0,0.00276973 0.0653419,0.0809019 0.114124,0.273366 0,0.115055 -0.0256304,-0.00390938 -0.11567,-0.276606 -0.173501,0 0,-0.170973 -5.74682e-05,-0.00131624 -0.000171967,-0.00130622 -0.000285157,-0.00128626 -0.000396177,-0.00125651 -0.000504182,-0.0012172 -0.00060835,-0.00116863 -0.000707888,-0.00111116 -0.000802038,-0.00104524 -0.000890084,-0.000971357 -0.000971357,-0.000890084 -0.00104524,-0.000802038 -0.00111116,-0.000707888 -0.00116863,-0.00060835 -0.0012172,-0.000504182 -0.00125651,-0.000396177 -0.00128626,-0.000285157 -0.00130622,-0.000171967 -0.00131624,-5.74682e-05 -0.110626,3.46841e-09 -0.00157677,6.99078e-05 -0.0015644,0.000209175 -0.00153975,0.000346801 -0.00150301,0.000481705 -0.00145449,0.000612829 -0.00139455,0.000739144 -0.00132366,0.000859658 -0.00124239,0.000973427 -0.00115137,0.00107956 -0.00105131,0.00117722 -0.000943005,0.00126564 -0.000827298,0.00134412 -0.0007051,0.00141206 -0.000577368,0.00146892 -0.000445105,0.00151426 -0.00030935,0.00154771 0,0.170973 -0.0276565,0 -0.0427484,0.0704152 0,0.246423 0.0528063,0.0653812 0.10813,0.259008 0.129442,0.0209239 0.130516,0.0125888 0.107649,0.00345158 0,0.0480185 -0.0814256,0.000760349 -0.160449,-0.011413 -0.159015,-0.0242544 -0.0924462,-0.22107 -0.138665,0 0,-0.136645 -4.59298e-05,-0.00105196 -0.00013744,-0.00104396 -0.000227904,-0.00102801 -0.000316633,-0.00100423 -0.000402953,-0.000972814 -0.000486206,-0.000933993 -0.000565759,-0.000888063 -0.000641005,-0.000835375 -0.000711374,-0.000776328 -0.000776328,-0.000711374 -0.000835375,-0.000641005 -0.000888063,-0.000565759 -0.000933993,-0.000486206 -0.000972814,-0.000402953 -0.00100423,-0.000316633 -0.00102801,-0.000227904 -0.00104396,-0.00013744 -0.00105196,-4.59298e-05 -0.0884147,2.77202e-09 -0.00126019,5.58718e-05 -0.0012503,0.000167177 -0.0012306,0.00027717 -0.00120124,0.000384988 -0.00116246,0.000489786 -0.00111455,0.000590739 -0.0010579,0.000687057 -0.000992943,0.000777983 -0.000920197,0.000862804 -0.00084023,0.000940855 -0.000753669,0.00101152 -0.000661194,0.00107425 -0.00056353,0.00112855 -0.000461445,0.00117399 -0.000355738,0.00121023 -0.000247239,0.00123696 0,0.136645 -0.0221037,0 -0.0341654,0.0562773 0,0.196946 0.0422039,0.052254 0.0136568,0.0327126 z "/>
<path fill="rgb(241,240,234)" stroke="rgb(241,240,234)" d="M 3.61784,2.9001 l -0.113459,-0.00392336 -0.112917,-0.0117513 -0.111836,-0.0195232 -0.0528063,-0.135776 0.391013,4.44089e-16 0.391013,-4.44089e-16 -0.0527961,0.135776 -0.111836,0.0195232 -0.112917,0.0117513 -0.113459,0.00392336 z "/>
<path fill="rgb(241,240,234)" stroke="rgb(241,240,234)" d="M 3.59443,4.1 l 0.440325,0 -0.440325,0.88065 0,-0.88065 z "/>
<path fill="rgb(241,240,234)" stroke="rgb(241,240,234)" d="M 4.53475,3.1 l -0.5,1 -0.440325,0 0,-0.940863 0.025263,-0.059137 0.915062,0 z "/>
<path fill="rgb(241,240,234)" stroke="rgb(241,240,234)" d="M 4.11948,1.8792 l 0.183569,0 0,0.100579 -0.183569,0 -0.183569,0 0,-0.100579 0.183569,0 z "/>
<path fill="rgb(241,240,234)" stroke="rgb(241,240,234)" d="M 3.23273,3.24816 l -0.0906789,-0.00313563 -0.0902457,-0.00939191 -0.0893814,-0.0156033 -0.0422039,-0.108515 0.312506,0 0.312506,-4.44089e-16 -0.0421957,0.108515 -0.0893814,0.0156033 -0.0902457,0.00939191 -0.0906789,0.00313563 z "/>
<path fill="rgb(241,240,234)" stroke="rgb(241,240,234)" d="M 4.09794,2.25214 l 0.483835,0 -0.0653292,0.168008 -0.138262,0.0251073 -0.139768,0.0145458 -0.140469,0.00390035 -0.140393,-0.00485472 -0.139722,-0.014541 -0.138384,-0.0241577 -0.0653419,-0.168008 0.483835,0 z "/>
<path fill="rgb(241,240,234)" stroke="rgb(241,240,234)" d="M 4.53475,3.1 l -0.915062,0 0.0139747,-0.0327126 0.0401841,-0.0502423 -0.0794217,0.000741637 0,-0.0480185 0.0234054,0.000750453 0.131055,-0.00420203 0.130516,-0.0125888 0.129442,-0.0209239 0.110647,-0.259008 0.050279,-0.0628641 -0.201255,0.00187931 -0.200757,-0.0142802 -0.173332,-0.0264382 0,-0.115055 0.0196743,0.0471267 0.160172,0.0258913 0.161502,0.0155773 0.162168,0.00519928 -1.77636e-15,7.91456e-12 0.165647,-0.00475972 0.164982,-0.0155782 0.16361,-0.02633 0.00224472,-0.00568698 0,0.482173 -0.0596748,0.11935 z "/>
<path fill="rgb(241,240,234)" stroke="rgb(241,240,234)" d="M 3.53009,1.87875 l 0,0.18358 -0.0466674,0 0,-0.18358 0.0466674,0 z "/>
<path fill="rgb(241,240,234)" stroke="rgb(241,240,234)" d="M 4.68024,1.8792 l 0.0477825,0 0,0.183558 -0.0477825,0 0,-0.183558 z "/>
<path fill="rgb(241,240,234)" stroke="rgb(241,240,234)" d="M 3.15892,2.42737 l 0,0.148361 -0.0377144,0 0,-0.148361 0.0377144,0 z "/>
<path fill="rgb(241,240,234)" stroke="rgb(241,240,234)" d="M 4.7959,2.1 l 0.238857,0 -0.440325,0.88065 0,-0.482173 0.124258,-0.314806 0.0772111,-0.0781698 0,-0.00550185 z "/>
<path fill="rgb(241,240,234)" stroke="rgb(241,240,234)" d="M 2.86596,2.87034 l 0,0.118573 -0.0301421,0 0,-0.118573 0.0301421,4.44089e-16 z "/>
<path fill="rgb(241,240,234)" stroke="rgb(241,240,234)" d="M 4.7959,2.1 l 0,-0.303785 -0.0553131,-0.0854969 -0.0351974,0 0,-0.213742 -0.00600976,-0.00814377 -0.00672372,-0.00756504 -0.00738223,-0.00692393 -0.0908425,-4.44089e-16 0,-0.374343 0.940325,4.44089e-16 -0.5,1 -0.238857,0 z "/>
<path fill="rgb(241,240,234)" stroke="rgb(241,240,234)" d="M 3.41496,2.1 l -0.820534,0 0,-1 0.970163,0 0.0298374,0 0,0.380471 -0.0705586,2.21219e-09 -0.00195108,8.65032e-05 -0.00193577,0.000258831 -0.00190527,0.000429127 -0.00185981,0.000596056 -0.00179977,0.000758307 -0.0017256,0.000914608 -0.00163788,0.00106373 -0.00153732,0.00120451 -0.00142469,0.00133583 -0.00130088,0.00145667 -0.00116686,0.00156608 -0.00102369,0.0016632 -0.000872483,0.00174727 -0.000714429,0.00181763 -0.000550768,0.00187372 -0.000382786,0.00191511 0,0.21156 -0.0342219,0 -0.0528964,0.087131 0,0.302151 z "/>
<path fill="rgb(241,240,234)" stroke="rgb(241,240,234)" d="M 2.09443,2.1 l 0.5,0 0,1 -0.5,-1 z "/>
<path fill="rgb(241,240,234)" stroke="rgb(241,240,234)" d="M 4.59443,1.1 l 0,0.374343 -0.0474709,0 -0.0025333,0.00114302 -0.00242754,0.00135319 -0.00230439,0.00155367 -0.00216472,0.00174301 -0.00200954,0.00191985 -0.00183996,0.00208294 -0.00165719,0.0022311 -0.00146254,0.00236327 -0.00125742,0.00247851 -0.00104328,0.00257598 -0.000821663,0.00265499 -0.000594159,0.00271497 0,0.21156 -0.423699,0 -0.423699,0 0,-0.21156 -7.11105e-05,-0.0016287 -0.00021279,-0.0016163 -0.00035285,-0.00159161 -0.000490225,-0.0015548 -0.000623869,-0.00150615 -0.000752765,-0.00144605 -0.000875932,-0.00137494 -0.000992433,-0.00129336 -0.00110138,-0.00120195 -0.00120195,-0.00110138 -0.00129336,-0.000992433 -0.00137494,-0.000875932 -0.00144605,-0.000752765 -0.00150615,-0.000623869 -0.0015548,-0.000490225 -0.00159161,-0.00035285 -0.0016163,-0.00021279 -0.0016287,-7.11105e-05 -0.066329,2.07958e-09 0,-0.380471 1,0 z "/>
<path fill="rgb(241,240,234)" stroke="rgb(241,240,234)" d="M 3.09443,4.1 l 0.5,0 0,0.88065 -0.0298374,0.0596748 -0.470163,-0.940325 z "/>
<path fill="rgb(241,240,234)" stroke="rgb(241,240,234)" d="M 2.59443,3.1 l 0.253032,0 0.0727627,0.174292 0.103453,0.0167228 0.104311,0.0100613 0.104742,0.00335835 0.104742,-0.00335835 0.104311,-0.0100613 0.103453,-0.0167228 0.0491934,-0.115155 0,0.940863 -0.5,0 -0.5,-1 z "/>
<path fill="rgb(241,240,234)" stroke="rgb(241,240,234)" d="M 2.59443,1.1 l 0,1 -0.5,0 -0.5,-1 1,-4.44089e-16 z "/>
<path fill="rgb(241,240,234)" stroke="rgb(241,240,234)" d="M 3.56459,0.2 l 3.26459,0 0.00883388,0.000390951 0.00876481,0.0011698 0.0086272,0.0019395 0.00842214,0.00269403 0.00815123,0.0034275 0.00781658,0.00413417 0.00742081,0.00480851 0.00696702,0.00544526 0.00645876,0.00603943 0.00589999,0.00658638 0.00529509,0.00708183 0.00464879,0.0075219 0.00396614,0.00790316 0.00325248,0.00822263 0.00251339,0.0084778 0.00175464,0.00866669 0.000982177,0.00878781 0.000202033,0.00884022 -0.000579691,0.0088235 -0.00135688,0.0087378 -0.00212346,0.00858377 -0.00287344,0.00836263 -0.00360095,0.0080761 -3.26459,6.52918 -0.00412828,0.00744612 -0.0047467,0.00706797 -0.00533072,0.00663859 -0.00587609,0.00616109 -0.00637887,0.00563892 -0.00683541,0.00507588 -0.0072424,0.00447605 -0.0075969,0.00384377 -0.00789632,0.00318363 -0.00813851,0.00250041 -0.00832171,0.00179907 -0.00844458,0.00108468 -0.00850624,0.000362437 0,-0.323607 3.10279,-6.20557 -3.10279,2.66454e-15 0,-0.2 z "/>
<path fill="rgb(241,240,234)" stroke="rgb(241,240,234)" d="M 3.56459,0.2 l 0,0.2 -3.10279,0 3.10279,6.20557 0,0.323607 -0.00850624,-0.000362437 -0.00844458,-0.00108468 -0.00832171,-0.00179907 -0.00813851,-0.00250041 -0.00789632,-0.00318363 -0.0075969,-0.00384377 -0.0072424,-0.00447605 -0.00683541,-0.00507588 -0.00637887,-0.00563892 -0.00587609,-0.00616109 -0.00533072,-0.00663859 -0.0047467,-0.00706797 -0.00412828,-0.00744612 -3.26459,-6.52918 -0.00360095,-0.0080761 -0.00287344,-0.00836263 -0.00212346,-0.00858377 -0.00135688,-0.0087378 -0.000579691,-0.0088235 0.000202033,-0.00884022 0.000982177,-0.00878781 0.00175464,-0.00866669 0.00251339,-0.0084778 0.00325248,-0.00822263 0.00396614,-0.00790316 0.00464879,-0.0075219 0.00529509,-0.00708183 0.00589999,-0.00658638 0.00645876,-0.00603943 0.00696702,-0.00544526 0.00742081,-0.00480851 0.00781658,-0.00413417 0.00815123,-0.0034275 0.00842214,-0.00269403 0.0086272,-0.0019395 0.00876481,-0.0011698 0.00883388,-0.000390951 3.26459,-8.88178e-16 z "/>
<path fill="rgb(42,41,42)" stroke="rgb(42,41,42)" d="M 4.60395,2.47434 l -0.0117708,0.0298214 -0.16361,0.02633 -0.164982,0.0155782 -0.165647,0.00475972 1.77636e-15,-7.91456e-12 0,-0.0764892 0.50601,0 z "/>
<path fill="rgb(42,41,42)" stroke="rgb(42,41,42)" d="M 4.68024,1.8792 l 0,0.183558 0.0477825,0 0,-0.183558 -0.0477825,0 z M 4.54696,1.47434 l 0.138313,4.44089e-16 0.00738223,0.00692393 0.00672372,0.00756504 0.00600976,0.00814377 0,0.213742 0.0351974,0 0.0553131,0.0854969 0,0.309287 -0.0772111,0.0781698 -0.114731,0.290672 -0.50601,0 0,-0.0106417 0.140469,-0.00390035 0.139768,-0.0145458 0.138262,-0.0251073 0.0653292,-0.168008 -0.483835,0 0.0215455,-0.272367 0.183569,0 0,-0.100579 -0.183569,0 -0.0163402,-0.168477 0.423699,0 0,-0.21156 0.000594159,-0.00271497 0.000821663,-0.00265499 0.00104328,-0.00257598 0.00125742,-0.00247851 0.00146254,-0.00236327 0.00165719,-0.0022311 0.00183996,-0.00208294 0.00200954,-0.00191985 0.00216472,-0.00174301 0.00230439,-0.00155367 0.00242754,-0.00135319 0.0025333,-0.00114302 z "/>
<path fill="rgb(42,41,42)" stroke="rgb(42,41,42)" d="M 3.15892,2.42737 l -0.0377144,0 0,0.148361 0.0377144,0 0,-0.148361 z M 3.5688,2.56818 l 0.0490359,0.160946 -0.391013,-4.44089e-16 0.0528063,0.135776 0.111836,0.0195232 0.112917,0.0117513 0.113459,0.00392336 -5.1159e-06,0.0704151 -0.131055,-0.00420203 -0.130516,-0.0125888 -0.129442,-0.0209239 -0.10813,-0.259008 -0.0528063,-0.0653812 0,-0.246423 0.0427484,-0.0704152 0.0276565,0 0,-0.170973 0.00030935,-0.00154771 0.000445105,-0.00151426 0.000577368,-0.00146892 0.0007051,-0.00141206 0.000827298,-0.00134412 0.000943005,-0.00126564 0.00105131,-0.00117722 0.00115137,-0.00107956 0.00124239,-0.000973427 0.00132366,-0.000859658 0.00139455,-0.000739144 0.00145449,-0.000612829 0.00150301,-0.000481705 0.00153975,-0.000346801 0.0015644,-0.000209175 0.00157677,-6.99078e-05 0.110626,-3.46841e-09 0.00131624,5.74682e-05 0.00130622,0.000171967 0.00128626,0.000285157 0.00125651,0.000396177 0.0012172,0.000504182 0.00116863,0.00060835 0.00111116,0.000707888 0.00104524,0.000802038 0.000971357,0.000890084 0.000890084,0.000971357 0.000802038,0.00104524 0.000707888,0.00111116 0.00060835,0.00116863 0.000504182,0.0012172 0.000396177,0.00125651 0.000285157,0.00128626 0.000171967,0.00130622 5.74682e-05,0.00131624 0,0.170973 0.173501,0 0.11567,0.276606 z "/>
<path fill="rgb(42,41,42)" stroke="rgb(42,41,42)" d="M 2.86596,2.87034 l -0.0301421,-4.44089e-16 0,0.118573 0.0301421,0 0,-0.118573 z M 3.19354,2.98288 l 0.0391905,0.128631 -0.312506,0 0.0422039,0.108515 0.0893814,0.0156033 0.0902457,0.00939191 0.0906789,0.00313563 -4.08873e-06,0.0562772 -0.104742,-0.00335835 -0.104311,-0.0100613 -0.103453,-0.0167228 -0.0864194,-0.207004 -0.0422039,-0.052254 0,-0.196946 0.0341654,-0.0562773 0.0221037,0 0,-0.136645 0.000247239,-0.00123696 0.000355738,-0.00121023 0.000461445,-0.00117399 0.00056353,-0.00112855 0.000661194,-0.00107425 0.000753669,-0.00101152 0.00084023,-0.000940855 0.000920197,-0.000862804 0.000992943,-0.000777983 0.0010579,-0.000687057 0.00111455,-0.000590739 0.00116246,-0.000489786 0.00120124,-0.000384988 0.0012306,-0.00027717 0.0012503,-0.000167177 0.00126019,-5.58718e-05 0.0884147,-2.77202e-09 0.00105196,4.59298e-05 0.00104396,0.00013744 0.00102801,0.000227904 0.00100423,0.000316633 0.000972814,0.000402953 0.000933993,0.000486206 0.000888063,0.000565759 0.000835375,0.000641005 0.000776328,0.000711374 0.000711374,0.000776328 0.000641005,0.000835375 0.000565759,0.000888063 0.000486206,0.000933993 0.000402953,0.000972814 0.000316633,0.00100423 0.000227904,0.00102801 0.00013744,0.00104396 4.59298e-05,0.00105196 0,0.136645 0.138665,0 0.0924462,0.22107 z "/>
<path fill="rgb(42,41,42)" stroke="rgb(42,41,42)" d="M 3.54523,3.27429 l -0.103453,0.0167228 -0.104311,0.0100613 -0.104742,0.00335835 4.08873e-06,-0.0562772 0.0906789,-0.00313563 0.0902457,-0.00939191 0.0893814,-0.0156033 0.0421957,-0.108515 -0.312506,4.44089e-16 -0.0391905,-0.128631 0.159015,0.0242544 0.160449,0.011413 0.160847,-0.00150199 -0.0401841,0.0502423 -0.0884311,0.207004 z "/>
<path fill="rgb(42,41,42)" stroke="rgb(42,41,42)" d="M 4.00885,2.9328 l -0.129442,0.0209239 -0.130516,0.0125888 -0.131055,0.00420203 5.1159e-06,-0.0704151 0.113459,-0.00392336 0.112917,-0.0117513 0.111836,-0.0195232 0.0527961,-0.135776 -0.391013,4.44089e-16 -0.0490359,-0.160946 0.198963,0.0303476 0.200757,0.0142802 0.201255,-0.00187931 -0.050279,0.0628641 -0.110647,0.259008 z "/>
<path fill="rgb(42,41,42)" stroke="rgb(42,41,42)" d="M 4.09794,2.48047 l 0,0.0703619 -0.162168,-0.00519928 -0.161502,-0.0155773 -0.160172,-0.0258913 -0.00989171,-0.0236941 0.493733,0 z "/>
<path fill="rgb(42,41,42)" stroke="rgb(42,41,42)" d="M 3.53009,1.87875 l -0.0466674,0 0,0.18358 0.0466674,0 0,-0.18358 z M 3.66076,1.48047 l 0.0016287,7.11105e-05 0.0016163,0.00021279 0.00159161,0.00035285 0.0015548,0.000490225 0.00150615,0.000623869 0.00144605,0.000752765 0.00137494,0.000875932 0.00129336,0.000992433 0.00120195,0.00110138 0.00110138,0.00120195 0.000992433,0.00129336 0.000875932,0.00137494 0.000752765,0.00144605 0.000623869,0.00150615 0.000490225,0.0015548 0.00035285,0.00159161 0.00021279,0.0016163 7.11105e-05,0.0016287 0,0.21156 0.423699,0 0.0163402,0.168477 -0.183569,0 0,0.100579 0.183569,0 -0.0215455,0.272367 -0.483835,0 0.0653419,0.168008 0.138384,0.0241577 0.139722,0.014541 0.140393,0.00485472 0,0.016769 -0.493733,0 -0.123907,-0.296799 -0.0653419,-0.0809019 0,-0.30492 0.0528964,-0.087131 0.0342219,0 0,-0.21156 0.000382786,-0.00191511 0.000550768,-0.00187372 0.000714429,-0.00181763 0.000872483,-0.00174727 0.00102369,-0.0016632 0.00116686,-0.00156608 0.00130088,-0.00145667 0.00142469,-0.00133583 0.00153732,-0.00120451 0.00163788,-0.00106373 0.0017256,-0.000914608 0.00179977,-0.000758307 0.00185981,-0.000596056 0.00190527,-0.000429127 0.00193577,-0.000258831 0.00195108,-8.65032e-05 0.136888,-4.29176e-09 z "/>
<path fill="rgb(187,30,16)" stroke="rgb(187,30,16)" d="M 5.53475,1.1 l -1.97016,-4.44089e-16 0,-0.7 3.10279,-2.66454e-15 -3.10279,6.20557 0,-1.56525 1.97016,-3.94033 z "/>
<path fill="rgb(187,30,16)" stroke="rgb(187,30,16)" d="M 3.56459,0.2 l 0,-0.2 3.26459,-1.77636e-15 0.0265016,0.00117285 0.0262944,0.00350939 0.0258816,0.00581849 0.0252664,0.00808209 0.0244537,0.0102825 0.0234497,0.0124025 0.0222624,0.0144255 0.0209011,0.0163358 0.0193763,0.0181183 0.0177,0.0197591 0.0158853,0.0212455 0.0139464,0.0225657 0.0118984,0.0237095 0.00975744,0.0246679 0.00754016,0.0254334 0.00526392,0.0260001 0.00294653,0.0263634 0.000606098,0.0265207 -0.00173907,0.0264705 -0.00407065,0.0262134 -0.00637039,0.0257513 -0.00862033,0.0250879 -0.0108029,0.0242283 -3.26459,6.52918 -0.0123848,0.0223384 -0.0142401,0.0212039 -0.0159921,0.0199158 -0.0176283,0.0184833 -0.0191366,0.0169168 -0.0205062,0.0152277 -0.0217272,0.0134282 -0.0227907,0.0115313 -0.023689,0.00955089 -0.0244155,0.00750124 -0.0249651,0.00539721 -0.0253337,0.00325405 -0.0255187,0.00108731 0,-0.2 0.00850624,-0.000362437 0.00844458,-0.00108468 0.00832171,-0.00179907 0.00813851,-0.00250041 0.00789632,-0.00318363 0.0075969,-0.00384377 0.0072424,-0.00447605 0.00683541,-0.00507588 0.00637887,-0.00563892 0.00587609,-0.00616109 0.00533072,-0.00663859 0.0047467,-0.00706797 0.00412828,-0.00744612 3.26459,-6.52918 0.00360095,-0.0080761 0.00287344,-0.00836263 0.00212346,-0.00858377 0.00135688,-0.0087378 0.000579691,-0.0088235 -0.000202033,-0.00884022 -0.000982177,-0.00878781 -0.00175464,-0.00866669 -0.00251339,-0.0084778 -0.00325248,-0.00822263 -0.00396614,-0.00790316 -0.00464879,-0.0075219 -0.00529509,-0.00708183 -0.00589999,-0.00658638 -0.00645876,-0.00603943 -0.00696702,-0.00544526 -0.00742081,-0.00480851 -0.00781658,-0.00413417 -0.00815123,-0.0034275 -0.00842214,-0.00269403 -0.0086272,-0.0019395 -0.00876481,-0.0011698 -0.00883388,-0.000390951 -3.26459,0 z "/>
<path fill="rgb(187,30,16)" stroke="rgb(187,30,16)" d="M 3.56459,0.2 l -3.26459,8.88178e-16 -0.00883388,0.000390951 -0.00876481,0.0011698 -0.0086272,0.0019395 -0.00842214,0.00269403 -0.00815123,0.0034275 -0.00781658,0.00413417 -0.00742081,0.00480851 -0.00696702,0.00544526 -0.00645876,0.00603943 -0.00589999,0.00658638 -0.00529509,0.00708183 -0.00464879,0.0075219 -0.00396614,0.00790316 -0.00325248,0.00822263 -0.00251339,0.0084778 -0.00175464,0.00866669 -0.000982177,0.00878781 -0.000202033,0.00884022 0.000579691,0.0088235 0.00135688,0.0087378 0.00212346,0.00858377 0.00287344,0.00836263 0.00360095,0.0080761 3.26459,6.52918 0.00412828,0.00744612 0.0047467,0.00706797 0.00533072,0.00663859 0.00587609,0.00616109 0.00637887,0.00563892 0.00683541,0.00507588 0.0072424,0.00447605 0.0075969,0.00384377 0.00789632,0.00318363 0.00813851,0.00250041 0.00832171,0.00179907 0.00844458,0.00108468 0.00850624,0.000362437 0,0.2 -0.0255187,-0.00108731 -0.0253337,-0.00325405 -0.0249651,-0.00539721 -0.0244155,-0.00750124 -0.023689,-0.00955089 -0.0227907,-0.0115313 -0.0217272,-0.0134282 -0.0205062,-0.0152277 -0.0191366,-0.0169168 -0.0176283,-0.0184833 -0.0159921,-0.0199158 -0.0142401,-0.0212039 -0.0123848,-0.0223384 -3.26459,-6.52918 -0.0108029,-0.0242283 -0.00862033,-0.0250879 -0.00637039,-0.0257513 -0.00407065,-0.0262134 -0.00173907,-0.0264705 0.000606098,-0.0265207 0.00294653,-0.0263634 0.00526392,-0.0260001 0.00754016,-0.0254334 0.00975744,-0.0246679 0.0118984,-0.0237095 0.0139464,-0.0225657 0.0158853,-0.0212455 0.0177,-0.0197591 0.0193763,-0.0181183 0.0209011,-0.0163358 0.0222624,-0.0144255 0.0234497,-0.0124025 0.0244537,-0.0102825 0.0252664,-0.00808209 0.0258816,-0.00581849 0.0262944,-0.00350939 0.0265016,-0.00117285 3.26459,0 0,0.2 z "/>
<path fill="rgb(187,30,16)" stroke="rgb(187,30,16)" d="M 3.56459,6.60557 l -3.10279,-6.20557 3.10279,0 0,0.7 -1.97016,4.44089e-16 1.97016,3.94033 0,1.56525 z "/>
</g></g></svg>
