<?xml version="1.0" encoding="UTF-8" standalone="no"?>
<!DOCTYPE svg PUBLIC "-//W3C//DTD SVG 1.1//EN" "http://www.w3.org/Graphics/SVG/1.1/DTD/svg11-flat.dtd"
[

]>
<svg xmlns="http://www.w3.org/2000/svg"  viewBox="-0.09375 -0.09375 7.6875 7.6875"><g fill="none" stroke="black" stroke-width="0.0125" transform="translate(0,7.5) scale(1, -1)">
<g id="Output" >
<path fill="rgb(241,240,234)" stroke="rgb(241,240,234)" d="M 0.4,3.75 l -0.2,-8.88178e-16 4.44089e-16,-3.05 0.00190265,-0.0435779 0.00569347,-0.0432462 0.00944096,-0.0425854 0.0131166,-0.0416005 0.0166924,-0.0402991 0.0201412,-0.0386909 0.0234367,-0.0367882 0.0265538,-0.0346056 0.0294688,-0.0321596 0.0321596,-0.0294688 0.0346056,-0.0265538 0.0367882,-0.0234367 0.0386909,-0.0201412 0.0402991,-0.0166924 0.0416005,-0.0131166 0.0425854,-0.00944096 0.0432462,-0.00569347 0.0435779,-0.00190265 6.1,0 0.0435779,0.00190265 0.0432462,0.00569347 0.0425854,0.00944096 0.0416005,0.0131166 0.0402991,0.0166924 0.0386909,0.0201412 0.0367882,0.0234367 0.0346056,0.0265538 0.0321596,0.0294688 0.0294688,0.0321596 0.0265538,0.0346056 0.0234367,0.0367882 0.0201412,0.0386909 0.0166924,0.0402991 0.0131166,0.0416005 0.00944096,0.0425854 0.00569347,0.0432462 0.00190265,0.0435779 0,3.05 -0.2,4.44089e-16 0,-3.05 -0.00114159,-0.0261467 -0.00341608,-0.0259477 -0.00566458,-0.0255513 -0.00786996,-0.0249603 -0.0100155,-0.0241794 -0.0120847,-0.0232145 -0.014062,-0.0220729 -0.0159323,-0.0207634 -0.0176813,-0.0192958 -0.0192958,-0.0176813 -0.0207634,-0.0159323 -0.0220729,-0.014062 -0.0232145,-0.0120847 -0.0241794,-0.0100155 -0.0249603,-0.00786996 -0.0255513,-0.00566458 -0.0259477,-0.00341608 -0.0261467,-0.00114159 -6.1,0 -0.0261467,0.00114159 -0.0259477,0.00341608 -0.0255513,0.00566458 -0.0249603,0.00786996 -0.0241794,0.0100155 -0.0232145,0.0120847 -0.0220729,0.014062 -0.0207634,0.0159323 -0.0192958,0.0176813 -0.0176813,0.0192958 -0.0159323,0.0207634 -0.014062,0.0220729 -0.0120847,0.0232145 -0.0100155,0.0241794 -0.00786996,0.0249603 -0.00566458,0.0255513 -0.00341608,0.0259477 -0.00114159,0.0261467 -4.44089e-16,3.05 z "/>
<path fill="rgb(241,240,234)" stroke="rgb(241,240,234)" d="M 0.2,3.75 l 0.2,8.88178e-16 -4.44089e-16,3.05 0.00114159,0.0261467 0.00341608,0.0259477 0.00566458,0.0255513 0.00786996,0.0249603 0.0100155,0.0241794 0.0120847,0.0232145 0.014062,0.0220729 0.0159323,0.0207634 0.0176813,0.0192958 0.0192958,0.0176813 0.0207634,0.0159323 0.0220729,0.014062 0.0232145,0.0120847 0.0241794,0.0100155 0.0249603,0.00786996 0.0255513,0.00566458 0.0259477,0.00341608 0.0261467,0.00114159 6.1,8.88178e-16 0.0261467,-0.00114159 0.0259477,-0.00341608 0.0255513,-0.00566458 0.0249603,-0.00786996 0.0241794,-0.0100155 0.0232145,-0.0120847 0.0220729,-0.014062 0.0207634,-0.0159323 0.0192958,-0.0176813 0.0176813,-0.0192958 0.0159323,-0.0207634 0.014062,-0.0220729 0.0120847,-0.0232145 0.0100155,-0.0241794 0.00786996,-0.0249603 0.00566458,-0.0255513 0.00341608,-0.0259477 0.00114159,-0.0261467 1.77636e-15,-3.05 0.2,-4.44089e-16 -8.88178e-16,3.05 -0.00190265,0.0435779 -0.00569347,0.0432462 -0.00944096,0.0425854 -0.0131166,0.0416005 -0.0166924,0.0402991 -0.0201412,0.0386909 -0.0234367,0.0367882 -0.0265538,0.0346056 -0.0294688,0.0321596 -0.0321596,0.0294688 -0.0346056,0.0265538 -0.0367882,0.0234367 -0.0386909,0.0201412 -0.0402991,0.0166924 -0.0416005,0.0131166 -0.0425854,0.00944096 -0.0432462,0.00569347 -0.0435779,0.00190265 -6.1,-8.88178e-16 -0.0435779,-0.00190265 -0.0432462,-0.00569347 -0.0425854,-0.00944096 -0.0416005,-0.0131166 -0.0402991,-0.0166924 -0.0386909,-0.0201412 -0.0367882,-0.0234367 -0.0346056,-0.0265538 -0.0321596,-0.0294688 -0.0294688,-0.0321596 -0.0265538,-0.0346056 -0.0234367,-0.0367882 -0.0201412,-0.0386909 -0.0166924,-0.0402991 -0.0131166,-0.0416005 -0.00944096,-0.0425854 -0.00569347,-0.0432462 -0.00190265,-0.0435779 4.44089e-16,-3.05 z "/>
<path fill="rgb(0,91,140)" stroke="rgb(0,91,140)" d="M 0.4,3.75 l 6.7,-4.44089e-16 -1.77636e-15,3.05 -0.00114159,0.0261467 -0.00341608,0.0259477 -0.00566458,0.0255513 -0.00786996,0.0249603 -0.0100155,0.0241794 -0.0120847,0.0232145 -0.014062,0.0220729 -0.0159323,0.0207634 -0.0176813,0.0192958 -0.0192958,0.0176813 -0.0207634,0.0159323 -0.0220729,0.014062 -0.0232145,0.0120847 -0.0241794,0.0100155 -0.0249603,0.00786996 -0.0255513,0.00566458 -0.0259477,0.00341608 -0.0261467,0.00114159 -6.1,-8.88178e-16 -0.0261467,-0.00114159 -0.0259477,-0.00341608 -0.0255513,-0.00566458 -0.0249603,-0.00786996 -0.0241794,-0.0100155 -0.0232145,-0.0120847 -0.0220729,-0.014062 -0.0207634,-0.0159323 -0.0192958,-0.0176813 -0.0176813,-0.0192958 -0.0159323,-0.0207634 -0.014062,-0.0220729 -0.0120847,-0.0232145 -0.0100155,-0.0241794 -0.00786996,-0.0249603 -0.00566458,-0.0255513 -0.00341608,-0.0259477 -0.00114159,-0.0261467 4.44089e-16,-3.05 z "/>
<path fill="rgb(0,91,140)" stroke="rgb(0,91,140)" d="M 0.4,3.75 l 4.44089e-16,-3.05 0.00114159,-0.0261467 0.00341608,-0.0259477 0.00566458,-0.0255513 0.00786996,-0.0249603 0.0100155,-0.0241794 0.0120847,-0.0232145 0.014062,-0.0220729 0.0159323,-0.0207634 0.0176813,-0.0192958 0.0192958,-0.0176813 0.0207634,-0.0159323 0.0220729,-0.014062 0.0232145,-0.0120847 0.0241794,-0.0100155 0.0249603,-0.00786996 0.0255513,-0.00566458 0.0259477,-0.00341608 0.0261467,-0.00114159 6.1,0 0.0261467,0.00114159 0.0259477,0.00341608 0.0255513,0.00566458 0.0249603,0.00786996 0.0241794,0.0100155 0.0232145,0.0120847 0.0220729,0.014062 0.0207634,0.0159323 0.0192958,0.0176813 0.0176813,0.0192958 0.0159323,0.0207634 0.014062,0.0220729 0.0120847,0.0232145 0.0100155,0.0241794 0.00786996,0.0249603 0.00566458,0.0255513 0.00341608,0.0259477 0.00114159,0.0261467 0,3.05 -6.7,4.44089e-16 z "/>
<path fill="rgb(0,91,140)" stroke="rgb(0,91,140)" d="M 0.2,3.75 l -0.2,0 4.44089e-16,-3.05 0.00266371,-0.061009 0.00797086,-0.0605447 0.0132173,-0.0596196 0.0183632,-0.0582408 0.0233694,-0.0564187 0.0281977,-0.0541672 0.0328114,-0.0515035 0.0371753,-0.0484478 0.0412564,-0.0450234 0.0450234,-0.0412564 0.0484478,-0.0371753 0.0515035,-0.0328114 0.0541672,-0.0281977 0.0564187,-0.0233694 0.0582408,-0.0183632 0.0596196,-0.0132173 0.0605447,-0.00797086 0.061009,-0.00266371 6.1,-8.88178e-16 0.061009,0.00266371 0.0605447,0.00797086 0.0596196,0.0132173 0.0582408,0.0183632 0.0564187,0.0233694 0.0541672,0.0281977 0.0515035,0.0328114 0.0484478,0.0371753 0.0450234,0.0412564 0.0412564,0.0450234 0.0371753,0.0484478 0.0328114,0.0515035 0.0281977,0.0541672 0.0233694,0.0564187 0.0183632,0.0582408 0.0132173,0.0596196 0.00797086,0.0605447 0.00266371,0.061009 -1.77636e-15,3.05 -0.2,-8.88178e-16 0,-3.05 -0.00190265,-0.0435779 -0.00569347,-0.0432462 -0.00944096,-0.0425854 -0.0131166,-0.0416005 -0.0166924,-0.0402991 -0.0201412,-0.0386909 -0.0234367,-0.0367882 -0.0265538,-0.0346056 -0.0294688,-0.0321596 -0.0321596,-0.0294688 -0.0346056,-0.0265538 -0.0367882,-0.0234367 -0.0386909,-0.0201412 -0.0402991,-0.0166924 -0.0416005,-0.0131166 -0.0425854,-0.00944096 -0.0432462,-0.00569347 -0.0435779,-0.00190265 -6.1,0 -0.0435779,0.00190265 -0.0432462,0.00569347 -0.0425854,0.00944096 -0.0416005,0.0131166 -0.0402991,0.0166924 -0.0386909,0.0201412 -0.0367882,0.0234367 -0.0346056,0.0265538 -0.0321596,0.0294688 -0.0294688,0.0321596 -0.0265538,0.0346056 -0.0234367,0.0367882 -0.0201412,0.0386909 -0.0166924,0.0402991 -0.0131166,0.0416005 -0.00944096,0.0425854 -0.00569347,0.0432462 -0.00190265,0.0435779 -4.44089e-16,3.05 z "/>
<path fill="rgb(0,91,140)" stroke="rgb(0,91,140)" d="M 6.8,7.5 l -6.1,-8.88178e-16 -0.061009,-0.00266371 -0.0605447,-0.00797086 -0.0596196,-0.0132173 -0.0582408,-0.0183632 -0.0564187,-0.0233694 -0.0541672,-0.0281977 -0.0515035,-0.0328114 -0.0484478,-0.0371753 -0.0450234,-0.0412564 -0.0412564,-0.0450234 -0.0371753,-0.0484478 -0.0328114,-0.0515035 -0.0281977,-0.0541672 -0.0233694,-0.0564187 -0.0183632,-0.0582408 -0.0132173,-0.0596196 -0.00797086,-0.0605447 -0.00266371,-0.061009 4.44089e-16,-3.05 0.2,0 -4.44089e-16,3.05 0.00190265,0.0435779 0.00569347,0.0432462 0.00944096,0.0425854 0.0131166,0.0416005 0.0166924,0.0402991 0.0201412,0.0386909 0.0234367,0.0367882 0.0265538,0.0346056 0.0294688,0.0321596 0.0321596,0.0294688 0.0346056,0.0265538 0.0367882,0.0234367 0.0386909,0.0201412 0.0402991,0.0166924 0.0416005,0.0131166 0.0425854,0.00944096 0.0432462,0.00569347 0.0435779,0.00190265 6.1,8.88178e-16 0.0435779,-0.00190265 0.0432462,-0.00569347 0.0425854,-0.00944096 0.0416005,-0.0131166 0.0402991,-0.0166924 0.0386909,-0.0201412 0.0367882,-0.0234367 0.0346056,-0.0265538 0.0321596,-0.0294688 0.0294688,-0.0321596 0.0265538,-0.0346056 0.0234367,-0.0367882 0.0201412,-0.0386909 0.0166924,-0.0402991 0.0131166,-0.0416005 0.00944096,-0.0425854 0.00569347,-0.0432462 0.00190265,-0.0435779 8.88178e-16,-3.05 0.2,8.88178e-16 1.77636e-15,3.05 -0.00266371,0.061009 -0.00797086,0.0605447 -0.0132173,0.0596196 -0.0183632,0.0582408 -0.0233694,0.0564187 -0.0281977,0.0541672 -0.0328114,0.0515035 -0.0371753,0.0484478 -0.0412564,0.0450234 -0.0450234,0.0412564 -0.0484478,0.0371753 -0.0515035,0.0328114 -0.0541672,0.0281977 -0.0564187,0.0233694 -0.0582408,0.0183632 -0.0596196,0.0132173 -0.0605447,0.00797086 -0.061009,0.00266371 z "/>
<path fill="rgb(241,240,234)" stroke="rgb(241,240,234)" d="M 5.48641,6.52581 l -0.0497828,0 -0.109725,-0.00812781 -0.105662,-0.0142237 -0.100582,-0.0223515 -0.0955017,-0.0294633 -0.0924538,-0.0375911 -0.086358,-0.0457189 -0.08331,-0.0518148 -0.0782302,-0.0609586 -0.0731503,-0.0670544 -0.0690864,-0.0751822 -0.0650225,-0.08331 -0.0193035,-0.0274314 1.02817,-0.0365751 0.0386071,-0.00101598 0.105662,-0.0111757 0.0985497,-0.0264154 0.0904219,-0.0396231 0.0822941,-0.0528308 0.0741663,-0.0680704 0.0660384,-0.0812781 0.0386071,-0.0599426 0.041655,-0.0812781 0.0355592,-0.0883899 0.0294633,-0.0955017 0.0223515,-0.10363 0.0162556,-0.109725 0.0101598,-0.116837 0.00304793,-0.120901 -0.00203195,-0.0985497 -0.00914378,-0.115821 -0.0152396,-0.109725 -0.0223515,-0.102614 -0.0284473,-0.0975337 -0.0345432,-0.0914378 -0.041655,-0.085342 -0.0487669,-0.0792461 -0.0243834,-0.0345432 -0.0690864,-0.0792461 -0.0761982,-0.0650225 -0.08331,-0.0497828 -0.0914378,-0.0365751 -0.0995657,-0.0213355 -0.106677,-0.00711183 1.02918,-0.0233674 0.0507988,0.0822941 0.0447029,0.085342 0.040639,0.0894059 0.0355592,0.0924538 0.0304793,0.0965177 0.0264154,0.100582 0.0213355,0.10363 0.0162556,0.107693 0.0121917,0.110741 0.00711183,0.114805 0.00304793,0.118869 -0.00101598,0.0172716 -0.00304793,0.116837 -0.00812781,0.113789 -0.0132077,0.109725 -0.0172716,0.106677 -0.0233674,0.102614 -0.0274314,0.0985497 -0.0335272,0.0955017 -0.0375911,0.0914378 -0.042671,0.0883899 -0.0477509,0.085342 -0.0528308,0.0802621 -0.0325112,0.0457189 -0.0660384,0.0802621 -0.0701023,0.0721343 -0.0741663,0.0640065 -0.0792461,0.0568947 -0.084326,0.0497828 -0.0883899,0.041655 -0.0934698,0.0335272 -0.0985497,0.0274314 -0.102614,0.0182876 -0.107693,0.0121917 -0.112773,0.00304793 z "/>
<path fill="rgb(241,240,234)" stroke="rgb(241,240,234)" d="M 4.45824,6.00258 l -0.0518148,-0.0812781 -0.0467349,-0.084326 -0.041655,-0.0883899 -0.0365751,-0.0924538 -0.0325112,-0.0955017 -0.0264154,-0.0995657 -0.0223515,-0.10363 -0.0172716,-0.107693 -0.0121917,-0.110741 -0.00711183,-0.114805 -0.00304793,-0.118869 0,-0.0447029 0.00507988,-0.116837 0.00914378,-0.113789 0.0132077,-0.109725 0.0193035,-0.105662 0.0233674,-0.102614 0.0284473,-0.0985497 0.0325112,-0.0944858 0.0386071,-0.0914378 0.042671,-0.0873739 0.0477509,-0.084326 0.0518148,-0.0802621 0.0355592,-0.0477509 0.0660384,-0.0792461 0.0701023,-0.0721343 0.0751822,-0.0640065 0.0802621,-0.0568947 0.084326,-0.0487669 0.0883899,-0.041655 0.0944858,-0.0335272 0.0975337,-0.0264154 0.102614,-0.0193035 0.107693,-0.0111757 0.111757,-0.0040639 0.0751822,0.00203195 0.108709,0.00812781 0.10363,0.0172716 0.0995657,0.0233674 0.0944858,0.0325112 0.0904219,0.0396231 0.085342,0.0467349 0.0802621,0.0548627 0.0761982,0.0619745 0.0721343,0.0701023 0.0660384,0.0772142 0.0619745,0.085342 0.0152396,0.0223515 -1.02918,0.0233674 -0.042671,0.00101598 -0.106677,0.0121917 -0.0975337,0.0253994 -0.0904219,0.0396231 -0.0822941,0.0538467 -0.0741663,0.0670544 -0.0660384,0.0812781 -0.0467349,0.0741663 -0.040639,0.0822941 -0.0355592,0.0883899 -0.0284473,0.0965177 -0.0213355,0.10363 -0.0162556,0.110741 -0.00914378,0.117853 -0.00304793,0.124965 0.00304793,0.112773 0.0101598,0.111757 0.0172716,0.106677 0.0243834,0.101598 0.0314953,0.0955017 0.0375911,0.0894059 0.0457189,0.084326 0.00609586,0.0111757 0.0629905,0.0904219 0.0690864,0.0751822 0.0761982,0.0619745 0.084326,0.0487669 0.0904219,0.0345432 0.0975337,0.0203195 0.104646,0.00711183 -1.02817,0.0365751 z "/>
<path fill="rgb(241,240,234)" stroke="rgb(241,240,234)" d="M 2.9038,6.52581 l -0.0934698,-0.00101598 -0.115821,-0.00507988 -0.112773,-0.0101598 -0.109725,-0.0142237 -0.105662,-0.0182876 -0.102614,-0.0223515 -0.0995657,-0.0264154 -0.0975337,-0.0314953 -0.0924538,-0.0355592 -0.0904219,-0.0396231 -0.0873739,-0.043687 -0.08331,-0.0487669 -0.0802621,-0.0518148 -0.0365751,-0.0253994 -0.085342,-0.0650225 -0.0802621,-0.0680704 -0.0751822,-0.0701023 -0.0711183,-0.0721343 -0.0660384,-0.0761982 -0.0609586,-0.0782302 -0.0558787,-0.0802621 -0.0507988,-0.084326 -0.0467349,-0.085342 -0.041655,-0.0894059 -0.0365751,-0.0914378 -0.0314953,-0.0944858 -0.0264154,-0.0965177 -0.0223515,-0.100582 -0.0172716,-0.101598 -0.0121917,-0.105662 -0.00711183,-0.107693 1.31467,-0.0548627 0.0873739,-0.00304793 0.111757,-0.0121917 0.102614,-0.0213355 0.0924538,-0.0325112 0.08331,-0.041655 0.0477509,-0.0325112 0.0751822,-0.0731503 0.0457189,-0.084326 0.0142237,-0.0944858 -0.00304793,-0.0487669 -0.0304793,-0.0883899 -0.0599426,-0.0792461 -0.0894059,-0.0680704 -0.0568947,-0.0294633 -0.0894059,-0.0335272 -0.0995657,-0.0233674 -0.110741,-0.0142237 -0.120901,-0.00507988 -1.12672,-0.0172716 0.0548627,-0.0782302 0.0619745,-0.0721343 0.0690864,-0.0670544 0.00101598,0 0.0792461,-0.0650225 0.0822941,-0.0568947 0.086358,-0.0507988 0.0904219,-0.0447029 0.0934698,-0.0375911 0.0975337,-0.0304793 0.101598,-0.0233674 0.105662,-0.0172716 0.108709,-0.0101598 0.112773,-0.00304793 0.106677,0.00304793 0.112773,0.0101598 0.107693,0.0162556 0.102614,0.0233674 0.0975337,0.0304793 0.0924538,0.0375911 0.0873739,0.0447029 0.0822941,0.0518148 0.0782302,0.0579106 0.0640065,0.0579106 0.0721343,0.0772142 0.0609586,0.0812781 0.0487669,0.0873739 0.0386071,0.0914378 0.0284473,0.0955017 0.0162556,0.101598 0.00507988,0.105662 -0.00203195,0.0670544 -0.0132077,0.101598 -0.0243834,0.0975337 -0.0365751,0.0924538 -0.0467349,0.0873739 -0.0589266,0.0822941 -0.0711183,0.0782302 -0.0812781,0.0731503 -0.0538467,0.040639 -0.0822941,0.0538467 -0.0873739,0.0467349 -1.32788,0.0284473 0.0457189,0.0914378 0.0528308,0.0934698 0.0579106,0.0883899 0.0640065,0.0822941 0.0680704,0.0772142 0.0731503,0.0721343 0.0772142,0.0660384 0.08331,0.0619745 0.0883899,0.0558787 0.0629905,0.0345432 0.086358,0.0396231 0.0924538,0.0335272 0.0985497,0.0274314 0.102614,0.0213355 0.108709,0.0152396 0.113789,0.00914378 0.118869,0.00304793 0.0507988,0 0,0.559803 z "/>
<path fill="rgb(241,240,234)" stroke="rgb(241,240,234)" d="M 2.16519,5.19488 l -0.0772142,-0.00203195 -0.101598,-0.00507988 -0.10363,-0.0101598 -0.10363,-0.0142237 -0.105662,-0.0193035 -0.107693,-0.0223515 -0.107693,-0.0284473 1.32788,-0.0284473 -0.0924538,0.0396231 -0.0965177,0.0325112 -0.100582,0.0253994 -0.105662,0.0182876 -0.110741,0.0101598 -0.114805,0.0040639 z "/>
<path fill="rgb(241,240,234)" stroke="rgb(241,240,234)" d="M 0.808858,4.68486 l -0.00203195,-0.109725 0,-0.043687 0.00609586,-0.117853 0.0132077,-0.111757 0.0203195,-0.105662 0.0264154,-0.100582 0.0345432,-0.0955017 0.040639,-0.0894059 0.0487669,-0.08331 1.12672,0.0172716 -0.0883899,0.00304793 -0.113789,0.0111757 -0.102614,0.0223515 -0.0914378,0.0314953 -0.0812781,0.041655 -0.0477509,0.0335272 -0.0731503,0.0741663 -0.043687,0.085342 -0.0142237,0.0965177 0.00304793,0.0467349 0.0304793,0.0894059 0.0599426,0.0772142 0.0904219,0.0670544 0.0538467,0.0274314 0.0904219,0.0345432 0.0995657,0.0243834 0.109725,0.0142237 0.118869,0.00507988 -1.31467,0.0548627 z "/>
<path fill="rgb(241,240,234)" stroke="rgb(241,240,234)" d="M 5.79324,2.47511 l -0.268218,-0.0985497 0,-1.42541 0.268218,0 0,0.642097 0.00101598,0.0304793 0.0182876,0.0792461 0.0386071,0.0558787 0.0599426,0.0335272 0.0812781,0.0111757 0.430774,0.0294633 -0.0365751,0.0711183 -0.59333,0.0640065 0,0.506972 z "/>
<path fill="rgb(241,240,234)" stroke="rgb(241,240,234)" d="M 6.04723,2.07278 l -0.0447029,-0.00203195 -0.084326,-0.0172716 -0.0701023,-0.0335272 -0.0548627,-0.0518148 0.59333,-0.0640065 -0.0528308,0.0640065 -0.0477509,0.0375911 -0.0711183,0.0365751 -0.0792461,0.0223515 -0.0883899,0.00812781 z "/>
<path fill="rgb(241,240,234)" stroke="rgb(241,240,234)" d="M 6.42314,1.83301 l -0.430774,-0.0294633 0.0761982,-0.0132077 0.0680704,-0.0457189 0.042671,-0.0609586 0.0162556,-0.0812781 0,-0.651241 0.248914,0 0,0.751822 -0.00203195,0.0497828 -0.0193035,0.0802621 z "/>
<path fill="rgb(241,240,234)" stroke="rgb(241,240,234)" d="M 5.21718,2.45073 l -0.959081,-1.80641 -0.269234,0 0.959081,1.80641 0.269234,0 z "/>
<path fill="rgb(241,240,234)" stroke="rgb(241,240,234)" d="M 2.68029,2.07278 l -0.0518148,-0.0040639 -0.0782302,-0.0193035 -0.0721343,-0.0375911 -0.0670544,-0.0548627 0.552691,-0.0152396 -0.0558787,0.0538467 -0.0680704,0.042671 -0.0761982,0.0253994 -0.08331,0.00914378 z "/>
<path fill="rgb(241,240,234)" stroke="rgb(241,240,234)" d="M 3.29597,2.07278 l -0.0264154,-0.00101598 -0.0761982,-0.0121917 -0.0761982,-0.0253994 -0.0761982,-0.0396231 -0.0772142,-0.0528308 0.67156,-0.0375911 -0.0548627,0.0640065 -0.0457189,0.0365751 -0.0711183,0.0375911 -0.0792461,0.0223515 -0.0883899,0.00812781 z "/>
<path fill="rgb(241,240,234)" stroke="rgb(241,240,234)" d="M 2.41105,2.04637 l -0.268218,0 0,-1.09522 0.268218,0 0,0.658352 0.0101598,0.0690864 0.040639,0.0701023 0.0467349,0.0365751 0.0822941,0.0182876 0.646161,0 0.434838,0.0284473 -0.0365751,0.0721343 -0.67156,0.0375911 -0.552691,0.0152396 0,0.0894059 z "/>
<path fill="rgb(241,240,234)" stroke="rgb(241,240,234)" d="M 3.67188,1.832 l -0.434838,-0.0284473 0.0741663,-0.0111757 0.0640065,-0.043687 0.0355592,-0.0609586 0.0142237,-0.085342 0,-0.651241 0.269234,0 0,0.751822 -0.00304793,0.0497828 -0.0193035,0.0792461 z "/>
<path fill="rgb(241,240,234)" stroke="rgb(241,240,234)" d="M 3.23704,1.80355 l -0.646161,0 0.0711183,-0.0121917 0.0701023,-0.0447029 0.041655,-0.0599426 0.0152396,-0.084326 0,-0.651241 0.258058,0 0,0.662416 0.0111757,0.0640065 0.0457189,0.0690864 0.0538467,0.0396231 0.0792461,0.0172716 z "/>
<path fill="rgb(241,240,234)" stroke="rgb(241,240,234)" d="M 1.34529,2.47511 l -0.269234,-0.0985497 0,-1.42541 0.269234,0 0,0.319016 0.148333,0.203195 -0.148333,0.195067 0,0.806685 z "/>
<path fill="rgb(241,240,234)" stroke="rgb(241,240,234)" d="M 1.96605,2.04027 l -0.332224,0 -0.288537,-0.371847 0.148333,-0.195067 0.214371,-0.522212 0.268218,0 -0.298697,0.740647 0.288537,0.34848 z "/>
</g></g></svg>
