<?xml version="1.0" encoding="UTF-8" standalone="no"?>
<!DOCTYPE svg PUBLIC "-//W3C//DTD SVG 1.1//EN" "http://www.w3.org/Graphics/SVG/1.1/DTD/svg11-flat.dtd"
[

]>
<svg xmlns="http://www.w3.org/2000/svg"  viewBox="-0.0583333 -0.0583333 5.61667 3.61667"><g fill="none" stroke="black" stroke-width="0.0125" transform="translate(0,3.5) scale(1, -1)">
<g id="Output" >
<path fill="rgb(247,181,0)" stroke="rgb(247,181,0)" d="M 1.5,0.625394 l -0.00171239,0.0392201 -0.00512413,0.0389216 -0.00849687,0.0383269 -0.0118049,0.0374405 -0.0150232,0.0362692 -0.0181271,0.0348218 -0.021093,0.0331094 -0.0238984,0.031145 -0.0265219,0.0289436 -0.0289436,0.0265219 -0.031145,0.0238984 -0.0331094,0.021093 -0.0348218,0.0181271 -0.0362692,0.0150232 -0.0374405,0.0118049 -0.0383269,0.00849687 -0.0389216,0.00512413 -0.0392201,0.00171239 -0.0392201,-0.00171239 -0.0389216,-0.00512413 -0.0383269,-0.00849687 -0.0374405,-0.0118049 -0.0362692,-0.0150232 -0.0348218,-0.0181271 -0.0331094,-0.021093 -0.031145,-0.0238984 -0.0289436,-0.0265219 -0.0265219,-0.0289436 -0.0238984,-0.031145 -0.021093,-0.0331094 -0.0181271,-0.0348218 -0.0150232,-0.0362692 -0.0118049,-0.0374405 -0.00849687,-0.0383269 -0.00512413,-0.0389216 -0.00171239,-0.0392201 0.00171239,-0.0392201 0.00512413,-0.0389216 0.00849687,-0.0383269 0.0118049,-0.0374405 0.0150232,-0.0362692 0.0181271,-0.0348218 0.021093,-0.0331094 0.0238984,-0.031145 0.0265219,-0.0289436 0.0289436,-0.0265219 0.031145,-0.0238984 0.0331094,-0.021093 0.0348218,-0.0181271 0.0362692,-0.0150232 0.0374405,-0.0118049 0.0383269,-0.00849687 0.0389216,-0.00512413 0.0392201,-0.00171239 0.0392201,0.00171239 0.0389216,0.00512413 0.0383269,0.00849687 0.0374405,0.0118049 0.0362692,0.0150232 0.0348218,0.0181271 0.0331094,0.021093 0.031145,0.0238984 0.0289436,0.0265219 0.0265219,0.0289436 0.0238984,0.031145 0.021093,0.0331094 0.0181271,0.0348218 0.0150232,0.0362692 0.0118049,0.0374405 0.00849687,0.0383269 0.00512413,0.0389216 0.00171239,0.0392201 z "/>
<path fill="rgb(241,240,234)" stroke="rgb(241,240,234)" d="M 5.5,1 l 0,1 -0.5,0 0,-1 0.5,0 z "/>
<path fill="rgb(241,240,234)" stroke="rgb(241,240,234)" d="M 5,1 l 0,-0.96326 0.022331,0.00704094 0.0585112,0.0242362 0.0561763,0.0292435 0.0534138,0.0340283 0.0502447,0.0385542 0.0466933,0.0427866 0.0427866,0.0466933 0.0385542,0.0502447 0.0340283,0.0534138 0.0292435,0.0561763 0.0242362,0.0585112 0.0190443,0.0604009 0.0137076,0.0618309 0.0082665,0.0627903 0.00276251,0.0632718 0,0.274037 -0.5,0 z "/>
<path fill="rgb(241,240,234)" stroke="rgb(241,240,234)" d="M 4,3.5 l 0,-0.5 1,0 0,0.46326 -0.0380699,0.0120034 -0.0618309,0.0137076 -0.0627903,0.0082665 -0.0632718,0.00276251 -0.774037,0 z "/>
<path fill="rgb(241,240,234)" stroke="rgb(241,240,234)" d="M 4,2.17909 l 0.559595,0 0.00875414,-0.000382214 0.00868752,-0.00114373 0.00855478,-0.00189655 0.00835693,-0.00263493 0.00809548,-0.00335326 0.00777242,-0.00404606 0.0073902,-0.00470808 0.00695174,-0.00533426 0.00646038,-0.00591985 0.00591985,-0.00646038 0.00533426,-0.00695174 0.00470808,-0.0073902 0.00404606,-0.00777242 0.00335326,-0.00809548 0.00263493,-0.00835693 0.00189655,-0.00855478 0.00114373,-0.00868752 0.000382214,-0.00875414 0,-0.0786508 0.339963,0 0,1 -1,0 0,-0.820907 z "/>
<path fill="rgb(241,240,234)" stroke="rgb(241,240,234)" d="M 2.00558,1.38058 l 0.000496878,0.0113804 0.00148685,0.0112938 0.00246551,0.0111212 0.00342541,0.010864 0.00435923,0.0105241 0.00525988,0.0101041 0.0061205,0.00960726 0.00693454,0.00903727 0.0076958,0.00839849 0.00839849,0.0076958 0.00903727,0.00693454 0.00960726,0.0061205 0.0101041,0.00525988 0.0105241,0.00435923 0.010864,0.00342541 0.0111212,0.00246551 0.0112938,0.00148685 0.0113804,0.000496878 0.0113804,-0.000496878 0.0112938,-0.00148685 0.0111212,-0.00246551 0.010864,-0.00342541 0.0105241,-0.00435923 0.0101041,-0.00525988 0.00960726,-0.0061205 0.00903727,-0.00693454 0.00839849,-0.0076958 0.0076958,-0.00839849 0.00693454,-0.00903727 0.0061205,-0.00960726 0.00525988,-0.0101041 0.00435923,-0.0105241 0.00342541,-0.010864 0.00246551,-0.0111212 0.00148685,-0.0112938 0.000496878,-0.0113804 -0.000496878,-0.0113804 -0.00148685,-0.0112938 -0.00246551,-0.0111212 -0.00342541,-0.010864 -0.00435923,-0.0105241 -0.00525988,-0.0101041 -0.0061205,-0.00960726 -0.00693454,-0.00903727 -0.0076958,-0.00839849 -0.00839849,-0.0076958 -0.00903727,-0.00693454 -0.00960726,-0.0061205 -0.0101041,-0.00525988 -0.0105241,-0.00435923 -0.010864,-0.00342541 -0.0111212,-0.00246551 -0.0112938,-0.00148685 -0.0113804,-0.000496878 -0.0113804,0.000496878 -0.0112938,0.00148685 -0.0111212,0.00246551 -0.010864,0.00342541 -0.0105241,0.00435923 -0.0101041,0.00525988 -0.00960726,0.0061205 -0.00903727,0.00693454 -0.00839849,0.0076958 -0.0076958,0.00839849 -0.00693454,0.00903727 -0.0061205,0.00960726 -0.00525988,0.0101041 -0.00435923,0.0105241 -0.00342541,0.010864 -0.00246551,0.0111212 -0.00148685,0.0112938 -0.000496878,0.0113804 z M 3,1.85706 l 0,0.142936 -1,0 0,-0.126928 0.00276452,-0.000626186 0.0031849,-0.00102671 0.00308091,-0.00130603 0.00295247,-0.001575 0.00280062,-0.00183147 0.00262654,-0.00207341 0.00243162,-0.00229889 0.183182,-0.19276 0.229289,-0.0334414 0,-0.210182 -0.13017,-0.0274645 -0.00221567,0.014336 -0.00344629,0.0140909 -0.00465112,0.0137403 -0.00582116,0.013287 -0.00694763,0.0127342 -0.00802213,0.0120861 -0.00903659,0.0113476 -0.00998345,0.0105243 -0.0108556,0.00962211 -0.0116465,0.00864798 -0.0123503,0.00760914 -0.0129617,0.00651336 -0.0134761,0.00536884 -0.0138896,0.00418416 -0.0141993,0.00296817 -0.0144027,0.00172997 -0.0144983,0.000478822 -0.0144854,-0.000775906 -0.0143642,-0.00202483 -0.0141354,-0.0032586 -0.0138009,-0.00446799 -0.0133632,-0.00564395 -0.0128255,-0.00677768 -0.0121917,-0.00786069 -0.0114668,-0.00888489 -0.0106561,-0.00984261 -0.00976562,-0.0107267 -0.00668367,-0.00875542 0,-0.478736 1,0 0,0.250243 -0.00557527,-0.000243422 -0.0113804,0.000496878 -0.0112938,0.00148685 -0.0111212,0.00246551 -0.010864,0.00342541 -0.0105241,0.00435923 -0.0101041,0.00525988 -0.00960726,0.0061205 -0.00903727,0.00693454 -0.00839849,0.0076958 -0.0076958,0.00839849 -0.00693454,0.00903727 -0.0061205,0.00960726 -0.00525988,0.0101041 -0.00435923,0.0105241 -0.00342541,0.010864 -0.00246551,0.0111212 -0.00148685,0.0112938 -0.000496878,0.0113804 0.000496878,0.0113804 0.00148685,0.0112938 0.00246551,0.0111212 0.00342541,0.010864 0.00435923,0.0105241 0.00525988,0.0101041 0.0061205,0.00960726 0.00693454,0.00903727 0.0076958,0.00839849 0.00839849,0.0076958 0.00903727,0.00693454 0.00960726,0.0061205 0.0101041,0.00525988 0.0105241,0.00435923 0.010864,0.00342541 0.0111212,0.00246551 0.0112938,0.00148685 0.0113804,0.000496878 0.00557527,-0.000243422 0,0.050296 -0.0133841,-2.22045e-16 -0.0155594,-0.00134784 -0.0153851,-0.00268562 -0.0150959,-0.00400337 -0.0146941,-0.00529124 -0.0141826,-0.00653962 -0.0135653,-0.00773921 -0.0128468,-0.00888105 -0.0120324,-0.00995662 -0.0111282,-0.0109579 -0.010141,-0.0118774 -0.00907813,-0.0127083 -0.0079475,-0.0134443 -0.00675758,-0.01408 -0.00551723,-0.0146107 -0.00423571,-0.0150323 -0.00292258,-0.0153418 -0.00158765,-0.0155368 -0.000240869,-0.0156158 -0.123275,0 -0.00393936,0.000171996 -0.00390938,0.00051468 -0.00384965,0.000853447 -0.00376062,0.00118572 -0.00364297,0.00150897 -0.00349759,0.00182073 -0.00332559,0.00211864 -0.00312828,0.00240042 -0.00290717,0.00266393 -0.00266393,0.00290717 -0.00240042,0.00312828 -0.00211864,0.00332559 -0.00182073,0.00349759 -0.00150897,0.00364297 -0.00118572,0.00376062 -0.000853447,0.00384965 -0.00051468,0.00390938 -0.000171996,0.00393936 0,0.245689 0.000180751,0.00403818 0.000540808,0.00400589 0.00089654,0.00394155 0.0012451,0.00384569 0.0015837,0.00371907 0.00190964,0.00356271 0.0022203,0.00337785 0.00251321,0.00316597 0.00278601,0.00292878 0.00303653,0.00266816 0.00326277,0.0023862 0.00346291,0.00208515 0.00363535,0.00176743 0.00377872,0.00143557 0.257116,0.0847312 0.00351812,0.00132396 0.00339594,0.00161171 0.00325027,0.00188832 0.00308213,0.00215186 0.00289266,0.00240052 0.00268319,0.00263258 0.0477859,0.0509539 z "/>
<path fill="rgb(241,240,234)" stroke="rgb(241,240,234)" d="M 2,2 l 1,0 0,1 -1,0 0,-1 z "/>
<path fill="rgb(241,240,234)" stroke="rgb(241,240,234)" d="M 2,3 l 1,0 0,0.5 -1,-4.44089e-16 0,-0.5 z "/>
<path fill="rgb(241,240,234)" stroke="rgb(241,240,234)" d="M 1,2 l 1,0 0,1 -1,0 0,-1 z "/>
<path fill="rgb(241,240,234)" stroke="rgb(241,240,234)" d="M 4,1.43325 l 0,0.0829901 -0.00178938,-0.00148068 -0.0111282,-0.0109579 -0.010141,-0.0118774 -0.00907813,-0.0127083 -0.0079475,-0.0134443 -0.00675758,-0.01408 -0.00551723,-0.0146107 -0.00423571,-0.0150323 -0.00292258,-0.0153418 -0.00158765,-0.0155368 -0.000240869,-0.0156158 -0.763503,0 -0.000240869,0.0156158 -0.00158765,0.0155368 -0.00292258,0.0153418 -0.00423571,0.0150323 -0.00551723,0.0146107 -0.00675758,0.01408 -0.0079475,0.0134443 -0.00907813,0.0127083 -0.010141,0.0118774 -0.0111282,0.0109579 -0.0120324,0.00995662 -0.0128468,0.00888105 -0.0135653,0.00773921 -0.0141826,0.00653962 -0.0146941,0.00529124 -0.0150959,0.00400337 -0.0153851,0.00268562 -0.0155594,0.00134784 -0.00223358,0 0,-0.050296 0.00580511,-0.000253457 0.0112938,-0.00148685 0.0111212,-0.00246551 0.010864,-0.00342541 0.0105241,-0.00435923 0.0101041,-0.00525988 0.00960726,-0.0061205 0.00903727,-0.00693454 0.00839849,-0.0076958 0.0076958,-0.00839849 0.00693454,-0.00903727 0.0061205,-0.00960726 0.00525988,-0.0101041 0.00435923,-0.0105241 0.00342541,-0.010864 0.00246551,-0.0111212 0.00148685,-0.0112938 0.000496878,-0.0113804 -0.000496878,-0.0113804 -0.00148685,-0.0112938 -0.00246551,-0.0111212 -0.00342541,-0.010864 -0.00435923,-0.0105241 -0.00525988,-0.0101041 -0.0061205,-0.00960726 -0.00693454,-0.00903727 -0.0076958,-0.00839849 -0.00839849,-0.0076958 -0.00903727,-0.00693454 -0.00960726,-0.0061205 -0.0101041,-0.00525988 -0.0105241,-0.00435923 -0.010864,-0.00342541 -0.0111212,-0.00246551 -0.0112938,-0.00148685 -0.00580511,-0.000253457 0,-0.250243 1,0 0,0.327901 -0.0033197,0.00801447 -0.00342541,0.010864 -0.00246551,0.0111212 -0.00148685,0.0112938 -0.000496878,0.0113804 0.000496878,0.0113804 0.00148685,0.0112938 0.00246551,0.0111212 0.00342541,0.010864 0.0033197,0.00801447 z M 3,1.85706 l 0.134049,0.142936 -0.134049,0 0,-0.142936 z "/>
<path fill="rgb(241,240,234)" stroke="rgb(241,240,234)" d="M 3.13405,2 l 0.154566,0.164813 0.00294045,0.00286302 0.00318802,0.0025845 0.00340931,0.00228468 0.00360248,0.00196602 0.00376596,0.00163115 0.00389839,0.00128283 0.00399868,0.000923939 0.00406601,0.000557428 0.00409981,0.000186321 0.678416,0 0,0.820907 -1,0 0,-1 0.134049,0 z "/>
<path fill="rgb(241,240,234)" stroke="rgb(241,240,234)" d="M 3,3.5 l 0,-0.5 1,0 0,0.5 -1,-4.44089e-16 z "/>
<path fill="rgb(241,240,234)" stroke="rgb(241,240,234)" d="M 4,1 l 0,-1 0.774037,8.88178e-16 0.0632718,0.00276251 0.0627903,0.0082665 0.0618309,0.0137076 0.0380699,0.0120034 0,0.96326 -1,0 z "/>
<path fill="rgb(241,240,234)" stroke="rgb(241,240,234)" d="M 2,0 l 0,1 -0.701288,0 0.00939786,-0.0059871 0.031145,-0.0238984 0.0289436,-0.0265219 0.0265219,-0.0289436 0.0238984,-0.031145 0.021093,-0.0331094 0.0181271,-0.0348218 0.0150232,-0.0362692 0.0118049,-0.0374405 0.00849687,-0.0383269 0.00512413,-0.0389216 0.00171239,-0.0392201 -0.00171239,-0.0392201 -0.00512413,-0.0389216 -0.00849687,-0.0383269 -0.0118049,-0.0374405 -0.0150232,-0.0362692 -0.0181271,-0.0348218 -0.021093,-0.0331094 -0.0238984,-0.031145 -0.0265219,-0.0289436 -0.0289436,-0.0265219 -0.031145,-0.0238984 -0.0331094,-0.021093 -0.0348218,-0.0181271 -0.0362692,-0.0150232 -0.0374405,-0.0118049 -0.0383269,-0.00849687 -0.0389216,-0.00512413 -0.0392201,-0.00171239 -0.0392201,0.00171239 -0.0107799,0.0014192 0,-0.178526 1,0 z "/>
<path fill="rgb(241,240,234)" stroke="rgb(241,240,234)" d="M 0.03674,3 l 0.96326,0 0,0.5 -0.274037,0 -0.0632718,-0.00276251 -0.0627903,-0.0082665 -0.0618309,-0.0137076 -0.0604009,-0.0190443 -0.0585112,-0.0242362 -0.0561763,-0.0292435 -0.0534138,-0.0340283 -0.0502447,-0.0385542 -0.0466933,-0.0427866 -0.0427866,-0.0466933 -0.0385542,-0.0502447 -0.0340283,-0.0534138 -0.0292435,-0.0561763 -0.0242362,-0.0585112 -0.00704094,-0.022331 z "/>
<path fill="rgb(241,240,234)" stroke="rgb(241,240,234)" d="M 0,2 l 1,0 0,1 -0.96326,0 -0.0120034,-0.0380699 -0.0137076,-0.0618309 -0.0082665,-0.0627903 -0.00276251,-0.0632718 0,-0.774037 z "/>
<path fill="rgb(241,240,234)" stroke="rgb(241,240,234)" d="M 4,1.51624 l 0,-0.0829901 0.00103953,0.00250965 0.00525988,0.0101041 0.0061205,0.00960726 0.00693454,0.00903727 0.0076958,0.00839849 0.00839849,0.0076958 0.00903727,0.00693454 0.00960726,0.0061205 0.0101041,0.00525988 0.0105241,0.00435923 0.010864,0.00342541 0.0111212,0.00246551 0.0112938,0.00148685 0.0113804,0.000496878 0.0113804,-0.000496878 0.0112938,-0.00148685 0.0111212,-0.00246551 0.010864,-0.00342541 0.0105241,-0.00435923 0.0101041,-0.00525988 0.00960726,-0.0061205 0.00903727,-0.00693454 0.00839849,-0.0076958 0.0076958,-0.00839849 0.00693454,-0.00903727 0.0061205,-0.00960726 0.00525988,-0.0101041 0.00435923,-0.0105241 0.00342541,-0.010864 0.00246551,-0.0111212 0.00148685,-0.0112938 0.000496878,-0.0113804 -0.000496878,-0.0113804 -0.00148685,-0.0112938 -0.00246551,-0.0111212 -0.00342541,-0.010864 -0.00435923,-0.0105241 -0.00525988,-0.0101041 -0.0061205,-0.00960726 -0.00693454,-0.00903727 -0.0076958,-0.00839849 -0.00839849,-0.0076958 -0.00903727,-0.00693454 -0.00960726,-0.0061205 -0.0101041,-0.00525988 -0.0105241,-0.00435923 -0.010864,-0.00342541 -0.0111212,-0.00246551 -0.0112938,-0.00148685 -0.0113804,-0.000496878 -0.0113804,0.000496878 -0.0112938,0.00148685 -0.0111212,0.00246551 -0.010864,0.00342541 -0.0105241,0.00435923 -0.0101041,0.00525988 -0.00960726,0.0061205 -0.00903727,0.00693454 -0.00839849,0.0076958 -0.0076958,0.00839849 -0.00693454,0.00903727 -0.0061205,0.00960726 -0.00525988,0.0101041 -0.00103953,0.00250965 0,-0.327901 1,0 0,1 -0.339963,0 0,-0.579248 -0.000171996,-0.00393936 -0.00051468,-0.00390938 -0.000853447,-0.00384965 -0.00118572,-0.00376062 -0.00150897,-0.00364297 -0.00182073,-0.00349759 -0.00211864,-0.00332559 -0.00240042,-0.00312828 -0.00266393,-0.00290717 -0.00290717,-0.00266393 -0.00312828,-0.00240042 -0.00332559,-0.00211864 -0.00349759,-0.00182073 -0.00364297,-0.00150897 -0.00376062,-0.00118572 -0.00384965,-0.000853447 -0.00390938,-0.00051468 -0.00393936,-0.000171996 -0.31473,0 -0.000240869,0.0156158 -0.00158765,0.0155368 -0.00292258,0.0153418 -0.00423571,0.0150323 -0.00551723,0.0146107 -0.00675758,0.01408 -0.0079475,0.0134443 -0.00907813,0.0127083 -0.010141,0.0118774 -0.0111282,0.0109579 -0.0120324,0.00995662 -0.0128468,0.00888105 -0.0135653,0.00773921 -0.0141826,0.00653962 -0.0146941,0.00529124 -0.0150959,0.00400337 -0.0153851,0.00268562 -0.0155594,0.00134784 -0.0156177,-2.22045e-16 -0.0155594,-0.00134784 -0.0153851,-0.00268562 -0.0150959,-0.00400337 -0.0146941,-0.00529124 -0.0141826,-0.00653962 -0.0135653,-0.00773921 -0.0128468,-0.00888105 -0.010243,-0.00847593 z "/>
<path fill="rgb(241,240,234)" stroke="rgb(241,240,234)" d="M 1,1.62465 l 0,0.375349 -1,0 0,-1 0.801288,0 0.0237115,0.0151059 0.0348218,0.0181271 0.0362692,0.0150232 0.0374405,0.0118049 0.0383269,0.00849687 0.0281417,0.00370492 0,0.319175 -0.145239,0.0249599 0,0.183913 0.145239,0.0243405 z "/>
<path fill="rgb(241,240,234)" stroke="rgb(241,240,234)" d="M 1.0448,1.38136 l 0.000496878,0.0113804 0.00148685,0.0112938 0.00246551,0.0111212 0.00342541,0.010864 0.00435923,0.0105241 0.00525988,0.0101041 0.0061205,0.00960726 0.00693454,0.00903727 0.0076958,0.00839849 0.00839849,0.0076958 0.00903727,0.00693454 0.00960726,0.0061205 0.0101041,0.00525988 0.0105241,0.00435923 0.010864,0.00342541 0.0111212,0.00246551 0.0112938,0.00148685 0.0113804,0.000496878 0.0113804,-0.000496878 0.0112938,-0.00148685 0.0111212,-0.00246551 0.010864,-0.00342541 0.0105241,-0.00435923 0.0101041,-0.00525988 0.00960726,-0.0061205 0.00903727,-0.00693454 0.00839849,-0.0076958 0.0076958,-0.00839849 0.00693454,-0.00903727 0.0061205,-0.00960726 0.00525988,-0.0101041 0.00435923,-0.0105241 0.00342541,-0.010864 0.00246551,-0.0111212 0.00148685,-0.0112938 0.000496878,-0.0113804 -0.000496878,-0.0113804 -0.00148685,-0.0112938 -0.00246551,-0.0111212 -0.00342541,-0.010864 -0.00435923,-0.0105241 -0.00525988,-0.0101041 -0.0061205,-0.00960726 -0.00693454,-0.00903727 -0.0076958,-0.00839849 -0.00839849,-0.0076958 -0.00903727,-0.00693454 -0.00960726,-0.0061205 -0.0101041,-0.00525988 -0.0105241,-0.00435923 -0.010864,-0.00342541 -0.0111212,-0.00246551 -0.0112938,-0.00148685 -0.0113804,-0.000496878 -0.0113804,0.000496878 -0.0112938,0.00148685 -0.0111212,0.00246551 -0.010864,0.00342541 -0.0105241,0.00435923 -0.0101041,0.00525988 -0.00960726,0.0061205 -0.00903727,0.00693454 -0.00839849,0.0076958 -0.0076958,0.00839849 -0.00693454,0.00903727 -0.0061205,0.00960726 -0.00525988,0.0101041 -0.00435923,0.0105241 -0.00342541,0.010864 -0.00246551,0.0111212 -0.00148685,0.0112938 -0.000496878,0.0113804 z M 1.29871,1 l 0.701288,0 0,0.478736 -0.00211843,-0.00277508 -0.0077727,-0.012248 -0.00668515,-0.0128739 -0.00554758,-0.0134035 -0.0043685,-0.0138328 -0.00315673,-0.0141585 -0.00192134,-0.0143784 -0.00067158,-0.0144906 -0.62576,0 -0.00062625,0.0147432 -0.00192281,0.0146307 -0.00320441,0.0144044 -0.00446109,0.014066 -0.00568307,0.0136182 -0.00686084,0.0130646 -0.00798525,0.0124092 -0.00904755,0.0116574 -0.0100395,0.0108149 -0.0109533,0.0098883 -0.011782,0.00888477 -0.012519,0.00781213 -0.0131586,0.00667873 -0.0136959,0.00549338 -0.0141266,0.0042653 -0.0144475,0.00300404 -0.014656,0.00171942 -0.0147505,0.000421423 -0.0147302,-0.00087985 -0.0145954,-0.00217428 -0.0143471,-0.0034518 -0.0139872,-0.00470247 -0.0135184,-0.00591656 -0.0129446,-0.00708463 -0.01227,-0.0081976 -0.0115,-0.00924681 -0.0106406,-0.0102241 -0.00969836,-0.0111218 -0.00868072,-0.0119331 -0.00759556,-0.0126515 -0.00645131,-0.0132716 -0.00525689,-0.0137884 -0.00402158,-0.0141979 -0.00275499,-0.014497 -0.00146697,-0.0146834 -0.00761825,0.00130922 0,-0.319175 0.0107799,0.0014192 0.0392201,0.00171239 0.0392201,-0.00171239 0.0389216,-0.00512413 0.0383269,-0.00849687 0.0374405,-0.0118049 0.0362692,-0.0150232 0.0348218,-0.0181271 0.0237115,-0.0151059 z M 1,1.62465 l 0.289455,0.0485094 0.180322,0.179131 0.00468478,0.00427093 0.00503328,0.00385411 0.00534481,0.00340897 0.00561708,0.0029388 0.00584809,0.00244703 0.00603614,0.00193729 0.00617985,0.00141333 0.00627817,0.000878978 0.00633038,0.000338173 0.471712,0 0.00334298,-0.000149028 0.00331646,-0.000445901 0.000499102,-0.000113051 0,0.126928 -1,0 0,-0.375349 z "/>
<path fill="rgb(241,240,234)" stroke="rgb(241,240,234)" d="M 0.801288,1 l -0.801288,0 8.88178e-16,-0.274037 0.00276251,-0.0632718 0.0082665,-0.0627903 0.0137076,-0.0618309 0.0190443,-0.0604009 0.0242362,-0.0585112 0.0292435,-0.0561763 0.0340283,-0.0534138 0.0385542,-0.0502447 0.0427866,-0.0466933 0.0466933,-0.0427866 0.0502447,-0.0385542 0.0534138,-0.0340283 0.0561763,-0.0292435 0.0585112,-0.0242362 0.0604009,-0.0190443 0.0618309,-0.0137076 0.0627903,-0.0082665 0.0632718,-0.00276251 0.274037,0 0,0.178526 -0.0281417,0.00370492 -0.0383269,0.00849687 -0.0374405,0.0118049 -0.0362692,0.0150232 -0.0348218,0.0181271 -0.0331094,0.021093 -0.031145,0.0238984 -0.0289436,0.0265219 -0.0265219,0.0289436 -0.0238984,0.031145 -0.021093,0.0331094 -0.0181271,0.0348218 -0.0150232,0.0362692 -0.0118049,0.0374405 -0.00849687,0.0383269 -0.00512413,0.0389216 -0.00171239,0.0392201 0.00171239,0.0392201 0.00512413,0.0389216 0.00849687,0.0383269 0.0118049,0.0374405 0.0150232,0.0362692 0.0181271,0.0348218 0.021093,0.0331094 0.0238984,0.031145 0.0265219,0.0289436 0.0289436,0.0265219 0.031145,0.0238984 0.00939786,0.0059871 z "/>
<path fill="rgb(241,240,234)" stroke="rgb(241,240,234)" d="M 3.39551,1.7827 l 0,0.20443 -9.55535e-05,0.00218854 -0.000285933,0.00217188 -0.000474137,0.00213869 -0.000658732,0.00208923 -0.000838314,0.00202387 -0.00101152,0.0019431 -0.00117702,0.00184755 -0.00133357,0.00173794 -0.00147996,0.00161509 -0.00161509,0.00147996 -0.00173794,0.00133357 -0.00184755,0.00117702 -0.0019431,0.00101152 -0.00202387,0.000838314 -0.00208923,0.000658732 -0.00213869,0.000474137 -0.00217188,0.000285933 -0.00218854,9.55535e-05 -0.136451,0 -0.00409981,-0.000186321 -0.00406601,-0.000557428 -0.00399868,-0.000923939 -0.00389839,-0.00128283 -0.00376596,-0.00163115 -0.00360248,-0.00196602 -0.00340931,-0.00228468 -0.00318802,-0.0025845 -0.00294045,-0.00286302 -0.207602,-0.221365 -0.0025638,-0.00298406 -0.0022946,-0.0031957 -0.00200801,-0.00338313 -0.00170621,-0.00354493 -0.00139149,-0.00367987 -0.00106622,-0.00378693 -0.00073288,-0.0038653 -0.000393984,-0.00391439 -5.21026e-05,-0.00393382 0.000290173,-0.00392345 0.00063025,-0.00388336 0.000965553,-0.00381384 0.00129354,-0.00371543 0.00161173,-0.00358887 0.0019177,-0.00343512 0.00220915,-0.00325535 0.00248386,-0.00305092 0.00273976,-0.00282337 0.00297489,-0.00257443 0.00318749,-0.00230598 0.00337594,-0.00202007 0.00353882,-0.00171885 0.00367488,-0.00140461 0.0037831,-0.00107973 0.00386266,-0.000746666 0.00391296,-0.000407947 0.00393361,-6.61379e-05 0.00392446,0.000276173 0.323964,0.0370239 0.00382525,0.00060415 0.00375949,0.000929378 0.00366613,0.00124778 0.00354587,0.00155703 0.00339957,0.00185485 0.00322831,0.00213905 0.00303336,0.00240754 0.00281613,0.00265836 0.00257824,0.00288967 0.00232141,0.00309977 0.00204755,0.0032871 0.00175865,0.00345031 0.00145685,0.00358819 0.00114435,0.00369973 0.000823444,0.0037841 0.000496497,0.0038407 0.000165905,0.00386911 z "/>
<path fill="rgb(241,240,234)" stroke="rgb(241,240,234)" d="M 1.81491,1.66122 l 0.33557,0.00835791 -0.146885,0.155243 -0.00209838,0.00203713 -0.00226363,0.00185178 -0.00241256,0.00165308 -0.00254409,0.00144246 -0.00265729,0.00122145 -0.00275133,0.000991624 -0.00282553,0.000754652 -0.00287936,0.000512241 -0.00291244,0.000266136 -0.00292451,1.81128e-05 -0.162416,0 0,-0.17435 z "/>
<path fill="rgb(241,240,234)" stroke="rgb(241,240,234)" d="M 5,3 l 0.46326,0 -0.00704094,0.022331 -0.0242362,0.0585112 -0.0292435,0.0561763 -0.0340283,0.0534138 -0.0385542,0.0502447 -0.0427866,0.0466933 -0.0466933,0.0427866 -0.0502447,0.0385542 -0.0534138,0.0340283 -0.0561763,0.0292435 -0.0585112,0.0242362 -0.022331,0.00704094 0,-0.46326 z "/>
<path fill="rgb(241,240,234)" stroke="rgb(241,240,234)" d="M 1,3 l 1,0 0,0.5 -1,0 0,-0.5 z "/>
<path fill="rgb(241,240,234)" stroke="rgb(241,240,234)" d="M 2,0 l 1,0 0,1 -1,0 0,-1 z "/>
<path fill="rgb(241,240,234)" stroke="rgb(241,240,234)" d="M 5.5,2 l 0,0.774037 -0.00276251,0.0632718 -0.0082665,0.0627903 -0.0137076,0.0618309 -0.0120034,0.0380699 -0.46326,0 0,-1 0.5,0 z "/>
<path fill="rgb(241,240,234)" stroke="rgb(241,240,234)" d="M 1.31811,1.64927 l 0.458577,0.0107487 0,0.175545 -0.255563,0 -0.00311192,-0.000140101 -0.00308674,-0.000419171 -0.00303658,-0.000694849 -0.00296186,-0.000964904 -0.00286317,-0.00122715 -0.00274132,-0.00147947 -0.00259728,-0.00171982 -0.00243223,-0.00194625 -0.0022475,-0.00215694 -0.177936,-0.175545 z "/>
<path fill="rgb(241,240,234)" stroke="rgb(241,240,234)" d="M 3,0 l 1,0 0,1 -1,0 0,-1 z "/>
<path fill="rgb(241,240,234)" stroke="rgb(241,240,234)" d="M 1.05796,0.883321 l -0.00971374,0 -0.0326735,-0.00309074 -0.0313489,-0.00706454 -0.0295828,-0.0105968 -0.0282582,-0.0145706 -0.0260505,-0.0185444 -0.0242843,-0.0225182 0.176613,-0.0123629 0.000441534,0 0.0353227,-0.0039738 0.0278166,-0.0105968 0.013246,-0.0105968 0.0105968,-0.0273751 -0.000883067,-0.00883067 -0.0176613,-0.0260505 -0.0154537,-0.00883067 -0.0326735,-0.00573994 -0.0207521,0 0,-0.0896313 0.0242843,0 0.0207521,-0.0013246 0.0286997,-0.00883067 0.0052984,-0.00309074 0.0225182,-0.0242843 0.00353227,-0.00618147 0.00706454,-0.0313489 -0.00618147,-0.0273751 -0.0220767,-0.0238428 -0.00971374,-0.00573994 -0.0291412,-0.00971374 -0.0362058,-0.00353227 -0.194716,-0.00618147 0.0229597,-0.0234013 0.0145706,-0.0128045 0.0260505,-0.0176613 0.0282582,-0.013246 0.0304658,-0.0101553 0.0326735,-0.00573994 0.0348812,-0.00176613 0.0229597,0.000883067 0.0335566,0.00485687 0.0304658,0.00971374 0.0278166,0.0136875 0.025609,0.0181029 0.00485687,0.00441534 0.0229597,0.0247259 0.0158952,0.0269336 0.00971374,0.0295828 0.00353227,0.0317904 -0.00309074,0.0309074 -0.0101553,0.0295828 -0.00353227,0.006623 -0.0185444,0.0238428 -0.0273751,0.0269336 0.00441534,0.00618147 0.019869,0.0309074 0.0119214,0.0295828 0.0039738,0.0273751 -0.00176613,0.019869 -0.00794761,0.0304658 -0.0158952,0.0269336 -0.0234013,0.0234013 -0.00220767,0.00176613 -0.025609,0.0163367 -0.0291412,0.0119214 -0.032232,0.00706454 -0.0353227,0.00220767 z "/>
<path fill="rgb(241,240,234)" stroke="rgb(241,240,234)" d="M 0.87605,0.806936 l 0.06623,-0.0613732 0.0211936,0.0194275 0.0273751,0.0163367 0.0295828,0.00971374 0.032232,0.00353227 -0.176613,0.0123629 z "/>
<path fill="rgb(241,240,234)" stroke="rgb(241,240,234)" d="M 0.922411,0.522588 l -0.0710869,-0.0538671 0.0154537,-0.0172198 0.194716,0.00618147 -0.033115,0.0026492 -0.0309074,0.00750607 -0.0282582,0.013246 -0.0247259,0.0181029 -0.0220767,0.0234013 z "/>
<path fill="rgb(42,41,42)" stroke="rgb(42,41,42)" d="M 5.00483,0.798105 l -0.0247259,-0.0026492 -0.0313489,-0.0123629 -0.0286997,-0.0225182 0.0777099,-0.0657885 0.0300243,-0.00573994 0.026492,-0.0203105 0.0344396,0.10376 -0.0154537,0.00971374 -0.032232,0.0119214 -0.0362058,0.0039738 z "/>
<path fill="rgb(42,41,42)" stroke="rgb(42,41,42)" d="M 4.92006,0.791924 l -0.107734,0 0,-0.438001 0.107734,0 0,0.256973 0.0052984,0.0362058 0.0181029,0.0251674 0.0207521,0.0150121 0.0335566,0.00750607 -0.0777099,0.0657885 0,0.0313489 z "/>
<path fill="rgb(42,41,42)" stroke="rgb(42,41,42)" d="M 4.55005,0.798105 l -0.0150121,-0.000883067 -0.033115,-0.00618147 -0.0309074,-0.0128045 -0.0282582,-0.0194275 -0.025609,-0.026492 -0.0176613,-0.0251674 -0.0158952,-0.0304658 -0.0114799,-0.032232 -0.006623,-0.0348812 -0.00220767,-0.0370888 0.00220767,-0.0370888 0.00618147,-0.0348812 0.0110383,-0.0326735 0.0154537,-0.0300243 0.156303,0.00441534 -0.0216351,0.00353227 -0.0300243,0.0189859 -0.0181029,0.0251674 -0.0123629,0.0344396 -0.00441534,0.0150121 0.267569,0 0,0.0313489 -0.000441534,0.0163367 -0.00485687,0.0348812 -0.25609,0.0013246 0.00838914,0.0260505 0.0176613,0.0286997 0.0238428,0.0172198 0.0304658,0.00573994 0.146148,0.00309074 -0.0176613,0.026492 -0.0110383,0.013246 -0.0260505,0.0238428 -0.0291412,0.0167783 -0.0317904,0.0101553 -0.0348812,0.00353227 z "/>
<path fill="rgb(42,41,42)" stroke="rgb(42,41,42)" d="M 4.70061,0.704058 l -0.146148,-0.00309074 0.0163367,-0.0013246 0.0291412,-0.0145706 0.0154537,-0.0229597 0.0141291,-0.038855 -0.15542,0 0.25609,-0.0013246 -0.00971374,0.0353227 -0.00441534,0.0128045 -0.0154537,0.0339981 z "/>
<path fill="rgb(42,41,42)" stroke="rgb(42,41,42)" d="M 4.62379,0.477993 l -0.00883067,-0.00883067 -0.0295828,-0.0203105 -0.0309074,-0.006623 -0.156303,-0.00441534 0.019869,-0.0282582 0.013246,-0.0141291 0.0269336,-0.0229597 0.0295828,-0.0163367 0.032232,-0.00971374 0.0344396,-0.00309074 0.019869,0.000883067 0.033115,0.00706454 0.0309074,0.013246 0.0278166,0.019869 0.025609,0.0260505 0.00353227,0.00441534 -0.0715284,0.0631393 z "/>
<path fill="rgb(42,41,42)" stroke="rgb(42,41,42)" d="M 4.06746,0.802962 l -0.0317904,-0.00309074 -0.0295828,-0.0119214 -0.0273751,-0.0207521 -0.025609,-0.0295828 0.214144,0.0229597 -0.0194275,0.0150121 -0.0242843,0.0154537 -0.00971374,0.00353227 -0.0379719,0.00794761 -0.00838914,0.000441534 z "/>
<path fill="rgb(42,41,42)" stroke="rgb(42,41,42)" d="M 4.27321,0.791924 l -0.105968,0 0,-0.0313489 -0.214144,-0.0229597 -0.000883067,-0.0013246 -0.0185444,-0.0295828 0.158511,-0.0119214 0.019869,-0.0026492 0.0286997,-0.0154537 0.026492,-0.0282582 0,-0.15542 -0.0176613,-0.0207521 -0.0278166,-0.019869 -0.0295828,-0.006623 -0.159394,-0.00706454 0.0185444,-0.0291412 0.0052984,-0.00618147 0.210612,-0.0136875 0,-0.046361 0,-0.00706454 -0.006623,-0.0251674 -0.0145706,-0.0247259 -0.0229597,-0.0238428 -0.0313489,-0.0234013 -0.039738,-0.0225182 0.0419457,-0.0936051 0.0105968,0.00353227 0.0335566,0.0141291 0.0317904,0.0163367 0.025609,0.0176613 0.00353227,0.0026492 0.0242843,0.0238428 0.0220767,0.0309074 0.00927221,0.0176613 0.0101553,0.0304658 0.00618147,0.0362058 0.00220767,0.0419457 0,0.433586 z "/>
<path fill="rgb(42,41,42)" stroke="rgb(42,41,42)" d="M 3.93367,0.706708 l -0.0141291,-0.0313489 -0.0105968,-0.033115 -0.00618147,-0.0348812 -0.00176613,-0.0366473 0.0013246,-0.0326735 0.00618147,-0.0353227 0.00971374,-0.033115 0.0145706,-0.0309074 0.159394,0.00706454 -0.0052984,0 -0.0309074,0.0101553 -0.0247259,0.025609 -0.00971374,0.0176613 -0.0101553,0.0326735 -0.00309074,0.038855 0.0013246,0.0251674 0.00750607,0.0353227 0.0141291,0.0286997 0.00309074,0.00441534 0.025609,0.0229597 0.032232,0.00750607 -0.158511,0.0119214 z "/>
<path fill="rgb(42,41,42)" stroke="rgb(42,41,42)" d="M 3.95663,0.403374 l 0.025609,-0.0269336 0.0282582,-0.0189859 0.0304658,-0.0110383 0.033115,-0.00309074 0.0026492,0 0.0326735,0.00618147 0.0300243,0.0154537 0.0278166,0.0247259 -0.210612,0.0136875 z "/>
<path fill="rgb(42,41,42)" stroke="rgb(42,41,42)" d="M 3.63784,0.80252 l -0.0189859,-0.000883067 -0.033115,-0.00706454 -0.0309074,-0.013246 -0.0278166,-0.019869 -0.025609,-0.026492 -0.0194275,-0.0273751 -0.0158952,-0.0300243 -0.0110383,-0.0326735 -0.006623,-0.0348812 -0.00220767,-0.0375304 0.00220767,-0.0353227 0.006623,-0.0353227 0.0110383,-0.0326735 0.0154537,-0.0304658 0.156303,0.0105968 -0.00485687,0 -0.0313489,0.00971374 -0.0251674,0.0251674 -0.00927221,0.0172198 -0.0101553,0.0326735 -0.00309074,0.0384134 0.000883067,0.0234013 0.00750607,0.0348812 0.0141291,0.0291412 0.00309074,0.00441534 0.0260505,0.0229597 0.032232,0.00750607 0.15542,0.0123629 -0.019869,0.0278166 -0.013246,0.0141291 -0.0273751,0.0234013 -0.0295828,0.0167783 -0.0317904,0.00971374 -0.0335566,0.00353227 z "/>
<path fill="rgb(42,41,42)" stroke="rgb(42,41,42)" d="M 3.79326,0.707149 l -0.15542,-0.0123629 0.0026492,0 0.0317904,-0.00927221 0.0247259,-0.0247259 0.00927221,-0.0167783 0.00971374,-0.0326735 0.00309074,-0.038855 -0.0013246,-0.0238428 -0.00706454,-0.0348812 -0.0136875,-0.0295828 -0.00220767,-0.00353227 -0.0247259,-0.0238428 -0.032232,-0.00750607 -0.156303,-0.0105968 0.019869,-0.0282582 0.013246,-0.0150121 0.0269336,-0.0229597 0.0295828,-0.0163367 0.032232,-0.00971374 0.0344396,-0.00309074 0.0172198,0.000883067 0.0326735,0.006623 0.0309074,0.013246 0.0282582,0.019869 0.026492,0.026492 0.0194275,0.0273751 0.0158952,0.0300243 0.0114799,0.0326735 0.006623,0.0348812 0.00220767,0.0370888 -0.00220767,0.0370888 -0.006623,0.0348812 -0.0110383,0.0326735 -0.0158952,0.0300243 z "/>
<path fill="rgb(42,41,42)" stroke="rgb(42,41,42)" d="M 3.10182,0.963239 l -0.107293,-0.0392965 0,-0.57002 0.107293,0 0,0.256973 0.000441534,0.00441534 0.00573994,0.0348812 0.0150121,0.0247259 0.0247259,0.0150121 0.0339981,0.00485687 0.173081,0.00838914 -0.0145706,0.0304658 -0.238428,0.0269336 0,0.202664 z "/>
<path fill="rgb(42,41,42)" stroke="rgb(42,41,42)" d="M 3.20337,0.80252 l -0.0119214,-0.000441534 -0.0366473,-0.00618147 -0.0295828,-0.0136875 -0.0234013,-0.0216351 0.238428,-0.0269336 -0.0225182,0.0269336 -0.0145706,0.0123629 -0.0295828,0.0163367 -0.033115,0.00971374 -0.0370888,0.00353227 z "/>
<path fill="rgb(42,41,42)" stroke="rgb(42,41,42)" d="M 3.35482,0.703175 l -0.173081,-0.00838914 0.0286997,-0.00485687 0.0286997,-0.0185444 0.0163367,-0.0234013 0.00750607,-0.0335566 0,-0.260505 0.0993451,0 0,0.300684 -0.000441534,0.0145706 -0.00706454,0.0339981 z "/>
<path fill="rgb(42,41,42)" stroke="rgb(42,41,42)" d="M 2.49648,0.799871 l -0.0123629,-0.000441534 -0.0353227,-0.006623 -0.0300243,-0.0145706 -0.025609,-0.0220767 0.241519,-0.0216351 -0.0229597,0.0260505 -0.0145706,0.0110383 -0.0295828,0.0158952 -0.0335566,0.00927221 -0.0375304,0.00309074 z "/>
<path fill="rgb(42,41,42)" stroke="rgb(42,41,42)" d="M 2.39316,0.791924 l -0.107293,0 0,-0.438001 0.107293,0 0,0.263154 0.00441534,0.026492 0.0185444,0.0304658 0.0211936,0.0167783 0.0335566,0.00750607 0.17838,0.00573994 -0.0145706,0.0304658 -0.241519,0.0216351 0,0.0357642 z "/>
<path fill="rgb(42,41,42)" stroke="rgb(42,41,42)" d="M 2.64925,0.704058 l -0.17838,-0.00573994 0.0295828,-0.00441534 0.0282582,-0.0172198 0.0163367,-0.0242843 0.00618147,-0.0353227 0,-0.263154 0.105085,0 0,0.3051 -0.000441534,0.0105968 -0.006623,0.0344396 z "/>
<path fill="rgb(42,41,42)" stroke="rgb(42,41,42)" d="M 2.0236,0.798105 l -0.0150121,-0.000883067 -0.0335566,-0.00618147 -0.0309074,-0.0128045 -0.0278166,-0.0194275 -0.025609,-0.026492 -0.0181029,-0.0251674 -0.0158952,-0.0304658 -0.0110383,-0.032232 -0.00706454,-0.0348812 -0.00220767,-0.0370888 0.00220767,-0.0370888 0.006623,-0.0348812 0.0110383,-0.0326735 0.0154537,-0.0300243 0.156303,0.00441534 -0.0220767,0.00353227 -0.0295828,0.0189859 -0.0185444,0.0251674 -0.0119214,0.0344396 -0.00441534,0.0150121 0.267128,0 0,0.0313489 -0.000441534,0.0163367 -0.00441534,0.0348812 -0.25609,0.0013246 0.00794761,0.0260505 0.0176613,0.0286997 0.0242843,0.0172198 0.0304658,0.00573994 0.146148,0.00309074 -0.0176613,0.026492 -0.0114799,0.013246 -0.0260505,0.0238428 -0.0291412,0.0167783 -0.0317904,0.0101553 -0.0344396,0.00353227 z "/>
<path fill="rgb(42,41,42)" stroke="rgb(42,41,42)" d="M 2.17416,0.704058 l -0.146148,-0.00309074 0.0158952,-0.0013246 0.0295828,-0.0145706 0.0150121,-0.0229597 0.0145706,-0.038855 -0.15542,0 0.25609,-0.0013246 -0.00971374,0.0353227 -0.00441534,0.0128045 -0.0154537,0.0339981 z "/>
<path fill="rgb(42,41,42)" stroke="rgb(42,41,42)" d="M 2.09689,0.477993 l -0.00838914,-0.00883067 -0.0300243,-0.0203105 -0.0304658,-0.006623 -0.156303,-0.00441534 0.019869,-0.0282582 0.0128045,-0.0141291 0.0273751,-0.0229597 0.0291412,-0.0163367 0.032232,-0.00971374 0.0348812,-0.00309074 0.019869,0.000883067 0.033115,0.00706454 0.0304658,0.013246 0.0282582,0.019869 0.0251674,0.0260505 0.00353227,0.00441534 -0.0715284,0.0631393 z "/>
<path fill="rgb(42,41,42)" stroke="rgb(42,41,42)" d="M 4.6048,3.04639 l -0.0123629,-0.000441534 -0.0348812,-0.006623 -0.0300243,-0.0145706 -0.025609,-0.0220767 0.241519,-0.0216351 -0.0229597,0.0260505 -0.0145706,0.0110383 -0.0295828,0.0158952 -0.0335566,0.00927221 -0.0379719,0.00309074 z "/>
<path fill="rgb(42,41,42)" stroke="rgb(42,41,42)" d="M 4.50192,3.03845 l -0.107734,0 0,-0.438001 0.107734,0 0,0.263154 0.00441534,0.026492 0.0181029,0.0304658 0.0216351,0.0167783 0.0335566,0.00750607 0.17838,0.00573994 -0.0145706,0.0304658 -0.241519,0.0216351 0,0.0357642 z "/>
<path fill="rgb(42,41,42)" stroke="rgb(42,41,42)" d="M 4.75801,2.95058 l -0.17838,-0.00573994 0.0291412,-0.00441534 0.0286997,-0.0172198 0.0158952,-0.0242843 0.006623,-0.0353227 0,-0.263154 0.105085,0 0,0.3051 -0.000441534,0.0105968 -0.006623,0.0344396 z "/>
<path fill="rgb(42,41,42)" stroke="rgb(42,41,42)" d="M 4.12,3.04904 l -0.0238428,-0.0013246 -0.0335566,-0.00485687 -0.0339981,-0.00883067 -0.0339981,-0.0128045 -0.0344396,-0.0167783 0.0445949,-0.0927221 0.00838914,0.0052984 0.032232,0.0154537 0.0335566,0.00927221 0.0348812,0.00309074 0.16116,0.0225182 -0.0150121,0.0251674 -0.0194275,0.0203105 -0.0238428,0.0158952 -0.0278166,0.0110383 -0.032232,0.00706454 -0.0366473,0.00220767 z "/>
<path fill="rgb(42,41,42)" stroke="rgb(42,41,42)" d="M 4.27498,2.96736 l -0.16116,-0.0225182 0.0238428,-0.00220767 0.0282582,-0.0128045 0.0185444,-0.0229597 0.00883067,-0.0335566 -0.18721,-0.000441534 -0.0278166,-0.0154537 -0.0176613,-0.0158952 -0.0189859,-0.026492 0.158952,-0.0154537 0.0220767,-0.0013246 0.0344396,-0.006623 0.0362058,-0.0119214 0,-0.0675546 -0.0300243,-0.0119214 -0.0348812,-0.00927221 -0.0304658,-0.00309074 -0.160277,-0.00794761 0.0158952,-0.0286997 0.0220767,-0.0238428 0.00883067,-0.006623 0.208845,-0.0013246 0,-0.0189859 0.101553,0 0,0.26492 0,0.000441534 -0.00220767,0.0384134 -0.006623,0.0339981 -0.0110383,0.0291412 z "/>
<path fill="rgb(42,41,42)" stroke="rgb(42,41,42)" d="M 4.09527,2.88877 l -0.0194275,-0.000441534 -0.0370888,-0.0052984 -0.0326735,-0.0101553 0.18721,0.000441534 -0.0269336,0.00750607 -0.0348812,0.00618147 -0.0362058,0.00176613 z "/>
<path fill="rgb(42,41,42)" stroke="rgb(42,41,42)" d="M 3.94162,2.81503 l -0.0110383,-0.032232 -0.0039738,-0.0375304 0.00220767,-0.0313489 0.00883067,-0.0339981 0.160277,0.00794761 -0.025609,0.0026492 -0.0291412,0.0145706 -0.00883067,0.00927221 -0.0114799,0.0309074 0.0013246,0.0105968 0.019869,0.0282582 0.0194275,0.0101553 0.0370888,0.0052984 -0.158952,0.0154537 z "/>
<path fill="rgb(42,41,42)" stroke="rgb(42,41,42)" d="M 3.98445,2.62076 l 0.0291412,-0.0158952 0.0335566,-0.00927221 0.0379719,-0.00309074 0.006623,0 0.0357642,0.00353227 0.0339981,0.00927221 0.0317904,0.0141291 -0.208845,0.0013246 z "/>
<path fill="rgb(42,41,42)" stroke="rgb(42,41,42)" d="M 3.6767,3.04904 l -0.0238428,-0.0013246 -0.0335566,-0.00485687 -0.0335566,-0.00883067 -0.0344396,-0.0128045 -0.0344396,-0.0167783 0.0445949,-0.0927221 0.00838914,0.0052984 0.0326735,0.0154537 0.0335566,0.00927221 0.0344396,0.00309074 0.161601,0.0225182 -0.0150121,0.0251674 -0.0194275,0.0203105 -0.0238428,0.0158952 -0.0282582,0.0110383 -0.032232,0.00706454 -0.0366473,0.00220767 z "/>
<path fill="rgb(42,41,42)" stroke="rgb(42,41,42)" d="M 3.83212,2.96736 l -0.161601,-0.0225182 0.0242843,-0.00220767 0.0278166,-0.0128045 0.0185444,-0.0229597 0.00883067,-0.0335566 -0.186769,-0.000441534 -0.0278166,-0.0154537 -0.0181029,-0.0158952 -0.0185444,-0.026492 0.158952,-0.0154537 0.0220767,-0.0013246 0.0339981,-0.006623 0.0362058,-0.0119214 0,-0.0675546 -0.0300243,-0.0119214 -0.0344396,-0.00927221 -0.0304658,-0.00309074 -0.160277,-0.00794761 0.0154537,-0.0286997 0.0225182,-0.0238428 0.00838914,-0.006623 0.208845,-0.0013246 0,-0.0189859 0.101553,0 0,0.26492 0,0.000441534 -0.00220767,0.0384134 -0.006623,0.0339981 -0.0105968,0.0291412 z "/>
<path fill="rgb(42,41,42)" stroke="rgb(42,41,42)" d="M 3.65241,2.88877 l -0.019869,-0.000441534 -0.0370888,-0.0052984 -0.032232,-0.0101553 0.186769,0.000441534 -0.0269336,0.00750607 -0.0348812,0.00618147 -0.0357642,0.00176613 z "/>
<path fill="rgb(42,41,42)" stroke="rgb(42,41,42)" d="M 3.49876,2.81503 l -0.0114799,-0.032232 -0.00353227,-0.0375304 0.00220767,-0.0313489 0.00883067,-0.0339981 0.160277,0.00794761 -0.0260505,0.0026492 -0.0291412,0.0145706 -0.00883067,0.00927221 -0.0114799,0.0309074 0.0013246,0.0105968 0.019869,0.0282582 0.019869,0.0101553 0.0370888,0.0052984 -0.158952,0.0154537 z "/>
<path fill="rgb(42,41,42)" stroke="rgb(42,41,42)" d="M 3.54115,2.62076 l 0.0291412,-0.0158952 0.0335566,-0.00927221 0.0379719,-0.00309074 0.006623,0 0.0362058,0.00353227 0.0335566,0.00927221 0.0317904,0.0141291 -0.208845,0.0013246 z "/>
<path fill="rgb(42,41,42)" stroke="rgb(42,41,42)" d="M 3.35173,3.20976 l -0.1095,-0.0392965 0,-0.134668 -0.0715284,0 0,-0.10067 0.0715284,0 0,-0.210612 0.00309074,-0.0379719 0.154537,0.0105968 -0.0242843,0.00573994 -0.0181029,0.0216351 -0.00573994,0.0375304 0,0.173081 0.0900729,0 0,0.10067 -0.0900729,0 0,0.173964 z "/>
<path fill="rgb(42,41,42)" stroke="rgb(42,41,42)" d="M 3.44887,2.7201 l -0.0185444,-0.0136875 -0.0304658,-0.00927221 -0.154537,-0.0105968 0.00971374,-0.0335566 0.0163367,-0.0273751 0.0150121,-0.0150121 0.0291412,-0.0154537 0.0362058,-0.0052984 0.0114799,0.000441534 0.033115,0.00706454 0.0348812,0.0150121 0.0176613,0.107734 z "/>
<path fill="rgb(42,41,42)" stroke="rgb(42,41,42)" d="M 2.96097,3.04639 l -0.0269336,-0.0013246 -0.0370888,-0.0052984 -0.0317904,-0.0105968 -0.0273751,-0.0150121 -0.000883067,-0.000883067 -0.0251674,-0.0247259 -0.0154537,-0.0295828 0.167341,-0.0158952 0.0278166,-0.00176613 0.0339981,-0.00618147 0.0335566,-0.0114799 0.033115,-0.0163367 0.0392965,0.0953713 -0.0335566,0.0154537 -0.0335566,0.0123629 -0.0339981,0.00883067 -0.0344396,0.0052984 -0.0348812,0.00176613 z "/>
<path fill="rgb(42,41,42)" stroke="rgb(42,41,42)" d="M 2.79628,2.95897 l -0.00485687,-0.0344396 0.000441534,-0.00838914 0.006623,-0.0339981 0.0158952,-0.0291412 0.0251674,-0.0251674 0.0189859,-0.0123629 0.0282582,-0.0141291 0.0362058,-0.013246 0.0432703,-0.0128045 0.0216351,-0.00618147 0.025609,-0.00794761 0.0136875,-0.00794761 0.0141291,-0.0269336 -0.00618147,-0.0150121 -0.025609,-0.0119214 -0.0459195,-0.00353227 0.177938,-0.0101553 0.00485687,0.0362058 -0.000883067,0.0154537 -0.00618147,0.0278166 -0.0123629,0.0251674 -0.0185444,0.0216351 -0.0242843,0.0194275 -0.0304658,0.0163367 -0.0366473,0.013246 -0.0428288,0.0105968 -0.0348812,0.00794761 -0.026492,0.00927221 -0.0145706,0.0247259 0.00176613,0.00971374 0.0207521,0.0150121 0.0428288,0.00485687 -0.167341,0.0158952 z "/>
<path fill="rgb(42,41,42)" stroke="rgb(42,41,42)" d="M 2.82012,2.72628 l -0.0392965,-0.0944882 0.0128045,-0.00573994 0.0309074,-0.0123629 0.033115,-0.00927221 0.0348812,-0.006623 0.0366473,-0.0039738 0.038855,-0.0013246 0.0379719,0.00176613 0.0362058,0.00618147 0.0313489,0.0110383 0.026492,0.0150121 0.0052984,0.00441534 0.0229597,0.0247259 0.013246,0.0300243 -0.177938,0.0101553 -0.0110383,0 -0.0335566,0.00441534 -0.0392965,0.00927221 -0.0269336,0.00706454 -0.0326735,0.00971374 z "/>
<path fill="rgb(42,41,42)" stroke="rgb(42,41,42)" d="M 2.54946,3.04463 l -0.0150121,-0.000883067 -0.0335566,-0.00618147 -0.0309074,-0.0128045 -0.0282582,-0.0194275 -0.0251674,-0.026492 -0.0181029,-0.0251674 -0.0158952,-0.0304658 -0.0110383,-0.032232 -0.00706454,-0.0348812 -0.00220767,-0.0370888 0.00220767,-0.0370888 0.006623,-0.0348812 0.0110383,-0.0326735 0.0154537,-0.0304658 0.156303,0.00485687 -0.0220767,0.00353227 -0.0295828,0.0189859 -0.0185444,0.0251674 -0.0119214,0.0344396 -0.00441534,0.0150121 0.267128,0 0,0.0313489 -0.000441534,0.0163367 -0.00485687,0.0348812 -0.255648,0.0013246 0.00794761,0.0260505 0.0176613,0.0286997 0.0242843,0.0172198 0.0304658,0.00573994 0.146148,0.00309074 -0.0176613,0.026492 -0.0114799,0.013246 -0.0260505,0.0238428 -0.0291412,0.0167783 -0.0317904,0.0101553 -0.0344396,0.00353227 z "/>
<path fill="rgb(42,41,42)" stroke="rgb(42,41,42)" d="M 2.70003,2.95058 l -0.146148,-0.00309074 0.0158952,-0.0013246 0.0295828,-0.0145706 0.0150121,-0.0229597 0.0145706,-0.038855 -0.15542,0 0.255648,-0.0013246 -0.00927221,0.0353227 -0.00441534,0.0128045 -0.0154537,0.0339981 z "/>
<path fill="rgb(42,41,42)" stroke="rgb(42,41,42)" d="M 2.62276,2.72452 l -0.00838914,-0.00883067 -0.0300243,-0.0203105 -0.0304658,-0.006623 -0.156303,-0.00485687 0.019869,-0.0278166 0.0128045,-0.0141291 0.0273751,-0.0229597 0.0291412,-0.0163367 0.032232,-0.00971374 0.0348812,-0.00309074 0.019869,0.000883067 0.033115,0.00706454 0.0304658,0.013246 0.0282582,0.019869 0.0251674,0.0260505 0.00353227,0.00441534 -0.0715284,0.0631393 z "/>
<path fill="rgb(42,41,42)" stroke="rgb(42,41,42)" d="M 2.06642,3.04949 l -0.0317904,-0.00309074 -0.0295828,-0.0119214 -0.0273751,-0.0207521 -0.0251674,-0.0295828 0.214144,0.0229597 -0.0194275,0.0150121 -0.0242843,0.0154537 -0.00971374,0.00353227 -0.0384134,0.00794761 -0.00838914,0.000441534 z "/>
<path fill="rgb(42,41,42)" stroke="rgb(42,41,42)" d="M 2.27218,3.03845 l -0.105527,0 0,-0.0313489 -0.214144,-0.0229597 -0.000883067,-0.0013246 -0.0185444,-0.0295828 0.158511,-0.0119214 0.0194275,-0.0026492 0.0286997,-0.0154537 0.0269336,-0.0282582 0,-0.15542 -0.0176613,-0.0207521 -0.0282582,-0.019869 -0.0291412,-0.006623 -0.159394,-0.00706454 0.0185444,-0.0291412 0.00485687,-0.00618147 0.211053,-0.0136875 0,-0.046361 -0.000441534,-0.00706454 -0.00618147,-0.0251674 -0.0150121,-0.0247259 -0.0229597,-0.0238428 -0.0313489,-0.0234013 -0.039738,-0.0225182 0.0419457,-0.0936051 0.0105968,0.00353227 0.0335566,0.0141291 0.0317904,0.0163367 0.025609,0.0176613 0.0039738,0.0026492 0.0238428,0.0238428 0.0220767,0.0309074 0.00927221,0.0176613 0.0105968,0.0304658 0.00618147,0.0362058 0.00176613,0.0419457 0,0.433586 z "/>
<path fill="rgb(42,41,42)" stroke="rgb(42,41,42)" d="M 1.93308,2.95323 l -0.0145706,-0.0313489 -0.0101553,-0.033115 -0.00618147,-0.0348812 -0.00220767,-0.0366473 0.00176613,-0.0326735 0.00573994,-0.0353227 0.0101553,-0.033115 0.0145706,-0.0309074 0.159394,0.00706454 -0.00573994,0 -0.0309074,0.0101553 -0.0247259,0.025609 -0.00971374,0.0176613 -0.00971374,0.0326735 -0.00353227,0.038855 0.00176613,0.0251674 0.00706454,0.0353227 0.0141291,0.0286997 0.00309074,0.00441534 0.0260505,0.0229597 0.032232,0.00750607 -0.158511,0.0119214 z "/>
<path fill="rgb(42,41,42)" stroke="rgb(42,41,42)" d="M 1.9556,2.6499 l 0.025609,-0.0269336 0.0282582,-0.0189859 0.0304658,-0.0110383 0.033115,-0.00309074 0.0026492,0 0.0326735,0.00618147 0.0304658,0.0154537 0.0278166,0.0247259 -0.211053,0.0136875 z "/>
<path fill="rgb(42,41,42)" stroke="rgb(42,41,42)" d="M 1.65624,3.04463 l -0.0150121,-0.000883067 -0.0335566,-0.00618147 -0.0309074,-0.0128045 -0.0278166,-0.0194275 -0.025609,-0.026492 -0.0181029,-0.0251674 -0.0158952,-0.0304658 -0.0110383,-0.032232 -0.00706454,-0.0348812 -0.00220767,-0.0370888 0.00220767,-0.0370888 0.006623,-0.0348812 0.0110383,-0.0326735 0.0154537,-0.0304658 0.156303,0.00485687 -0.0220767,0.00353227 -0.0295828,0.0189859 -0.0185444,0.0251674 -0.0119214,0.0344396 -0.00441534,0.0150121 0.267128,0 0,0.0313489 -0.000441534,0.0163367 -0.00485687,0.0348812 -0.255648,0.0013246 0.00794761,0.0260505 0.0176613,0.0286997 0.0242843,0.0172198 0.0304658,0.00573994 0.146148,0.00309074 -0.0176613,0.026492 -0.0114799,0.013246 -0.0260505,0.0238428 -0.0291412,0.0167783 -0.0317904,0.0101553 -0.0344396,0.00353227 z "/>
<path fill="rgb(42,41,42)" stroke="rgb(42,41,42)" d="M 1.8068,2.95058 l -0.146148,-0.00309074 0.0158952,-0.0013246 0.0295828,-0.0145706 0.0150121,-0.0229597 0.0145706,-0.038855 -0.15542,0 0.255648,-0.0013246 -0.00927221,0.0353227 -0.00441534,0.0128045 -0.0154537,0.0339981 z "/>
<path fill="rgb(42,41,42)" stroke="rgb(42,41,42)" d="M 1.72953,2.72452 l -0.00838914,-0.00883067 -0.0300243,-0.0203105 -0.0304658,-0.006623 -0.156303,-0.00485687 0.019869,-0.0278166 0.0128045,-0.0141291 0.0273751,-0.0229597 0.0291412,-0.0163367 0.032232,-0.00971374 0.0348812,-0.00309074 0.019869,0.000883067 0.033115,0.00706454 0.0304658,0.013246 0.0282582,0.019869 0.0251674,0.0260505 0.00353227,0.00441534 -0.0715284,0.0631393 z "/>
<path fill="rgb(42,41,42)" stroke="rgb(42,41,42)" d="M 1.20588,3.04904 l -0.0185444,-0.000883067 -0.0335566,-0.00706454 -0.0304658,-0.013246 -0.0282582,-0.019869 -0.0251674,-0.026492 -0.019869,-0.0273751 -0.0154537,-0.0300243 -0.0110383,-0.0326735 -0.006623,-0.0348812 -0.00220767,-0.0375304 0.00176613,-0.0353227 0.006623,-0.0353227 0.0110383,-0.0326735 0.0154537,-0.0304658 0.156303,0.0105968 -0.00441534,0 -0.0313489,0.00971374 -0.0251674,0.0251674 -0.00971374,0.0172198 -0.00971374,0.0326735 -0.00353227,0.0384134 0.0013246,0.0234013 0.00750607,0.0348812 0.0141291,0.0291412 0.00309074,0.00441534 0.0260505,0.0229597 0.0317904,0.00750607 0.155861,0.0123629 -0.0203105,0.0278166 -0.0128045,0.0141291 -0.0273751,0.0234013 -0.0295828,0.0167783 -0.0317904,0.00971374 -0.0339981,0.00353227 z "/>
<path fill="rgb(42,41,42)" stroke="rgb(42,41,42)" d="M 1.36174,2.95367 l -0.155861,-0.0123629 0.00309074,0 0.0313489,-0.00927221 0.0251674,-0.0247259 0.00883067,-0.0167783 0.00971374,-0.0326735 0.00309074,-0.038855 -0.000883067,-0.0238428 -0.00706454,-0.0348812 -0.0136875,-0.0295828 -0.00220767,-0.00353227 -0.0251674,-0.0238428 -0.032232,-0.00750607 -0.156303,-0.0105968 0.0203105,-0.0282582 0.013246,-0.0150121 0.0269336,-0.0229597 0.0295828,-0.0163367 0.0317904,-0.00971374 0.0344396,-0.00309074 0.0176613,0.000883067 0.0326735,0.006623 0.0304658,0.013246 0.0286997,0.019869 0.0260505,0.026492 0.019869,0.0273751 0.0158952,0.0300243 0.0110383,0.0326735 0.00706454,0.0348812 0.00220767,0.0370888 -0.00220767,0.0370888 -0.006623,0.0348812 -0.0114799,0.0326735 -0.0154537,0.0300243 z "/>
<path fill="rgb(42,41,42)" stroke="rgb(42,41,42)" d="M 0.876492,3.20976 l -0.109059,-0.0392965 0,-0.134668 -0.07197,0 0,-0.10067 0.07197,0 0,-0.210612 0.00309074,-0.0379719 0.154095,0.0105968 -0.0242843,0.00573994 -0.0176613,0.0216351 -0.00618147,0.0375304 0,0.173081 0.0900729,0 0,0.10067 -0.0900729,0 0,0.173964 z "/>
<path fill="rgb(42,41,42)" stroke="rgb(42,41,42)" d="M 0.973629,2.7201 l -0.0181029,-0.0136875 -0.0309074,-0.00927221 -0.154095,-0.0105968 0.00927221,-0.0335566 0.0163367,-0.0273751 0.0150121,-0.0150121 0.0291412,-0.0154537 0.0362058,-0.0052984 0.0114799,0.000441534 0.033115,0.00706454 0.0348812,0.0150121 0.0176613,0.107734 z "/>
<path fill="rgb(42,41,42)" stroke="rgb(42,41,42)" d="M 1.0448,1.38136 l 0.000496878,-0.0113804 0.00148685,-0.0112938 0.00246551,-0.0111212 0.00342541,-0.010864 0.00435923,-0.0105241 0.00525988,-0.0101041 0.0061205,-0.00960726 0.00693454,-0.00903727 0.0076958,-0.00839849 0.00839849,-0.0076958 0.00903727,-0.00693454 0.00960726,-0.0061205 0.0101041,-0.00525988 0.0105241,-0.00435923 0.010864,-0.00342541 0.0111212,-0.00246551 0.0112938,-0.00148685 0.0113804,-0.000496878 0.0113804,0.000496878 0.0112938,0.00148685 0.0111212,0.00246551 0.010864,0.00342541 0.0105241,0.00435923 0.0101041,0.00525988 0.00960726,0.0061205 0.00903727,0.00693454 0.00839849,0.0076958 0.0076958,0.00839849 0.00693454,0.00903727 0.0061205,0.00960726 0.00525988,0.0101041 0.00435923,0.0105241 0.00342541,0.010864 0.00246551,0.0111212 0.00148685,0.0112938 0.000496878,0.0113804 -0.000496878,0.0113804 -0.00148685,0.0112938 -0.00246551,0.0111212 -0.00342541,0.010864 -0.00435923,0.0105241 -0.00525988,0.0101041 -0.0061205,0.00960726 -0.00693454,0.00903727 -0.0076958,0.00839849 -0.00839849,0.0076958 -0.00903727,0.00693454 -0.00960726,0.0061205 -0.0101041,0.00525988 -0.0105241,0.00435923 -0.010864,0.00342541 -0.0111212,0.00246551 -0.0112938,0.00148685 -0.0113804,0.000496878 -0.0113804,-0.000496878 -0.0112938,-0.00148685 -0.0111212,-0.00246551 -0.010864,-0.00342541 -0.0105241,-0.00435923 -0.0101041,-0.00525988 -0.00960726,-0.0061205 -0.00903727,-0.00693454 -0.00839849,-0.0076958 -0.0076958,-0.00839849 -0.00693454,-0.00903727 -0.0061205,-0.00960726 -0.00525988,-0.0101041 -0.00435923,-0.0105241 -0.00342541,-0.010864 -0.00246551,-0.0111212 -0.00148685,-0.0112938 -0.000496878,-0.0113804 z "/>
<path fill="rgb(42,41,42)" stroke="rgb(42,41,42)" d="M 2.00558,1.38058 l 0.000496878,-0.0113804 0.00148685,-0.0112938 0.00246551,-0.0111212 0.00342541,-0.010864 0.00435923,-0.0105241 0.00525988,-0.0101041 0.0061205,-0.00960726 0.00693454,-0.00903727 0.0076958,-0.00839849 0.00839849,-0.0076958 0.00903727,-0.00693454 0.00960726,-0.0061205 0.0101041,-0.00525988 0.0105241,-0.00435923 0.010864,-0.00342541 0.0111212,-0.00246551 0.0112938,-0.00148685 0.0113804,-0.000496878 0.0113804,0.000496878 0.0112938,0.00148685 0.0111212,0.00246551 0.010864,0.00342541 0.0105241,0.00435923 0.0101041,0.00525988 0.00960726,0.0061205 0.00903727,0.00693454 0.00839849,0.0076958 0.0076958,0.00839849 0.00693454,0.00903727 0.0061205,0.00960726 0.00525988,0.0101041 0.00435923,0.0105241 0.00342541,0.010864 0.00246551,0.0111212 0.00148685,0.0112938 0.000496878,0.0113804 -0.000496878,0.0113804 -0.00148685,0.0112938 -0.00246551,0.0111212 -0.00342541,0.010864 -0.00435923,0.0105241 -0.00525988,0.0101041 -0.0061205,0.00960726 -0.00693454,0.00903727 -0.0076958,0.00839849 -0.00839849,0.0076958 -0.00903727,0.00693454 -0.00960726,0.0061205 -0.0101041,0.00525988 -0.0105241,0.00435923 -0.010864,0.00342541 -0.0111212,0.00246551 -0.0112938,0.00148685 -0.0113804,0.000496878 -0.0113804,-0.000496878 -0.0112938,-0.00148685 -0.0111212,-0.00246551 -0.010864,-0.00342541 -0.0105241,-0.00435923 -0.0101041,-0.00525988 -0.00960726,-0.0061205 -0.00903727,-0.00693454 -0.00839849,-0.0076958 -0.0076958,-0.00839849 -0.00693454,-0.00903727 -0.0061205,-0.00960726 -0.00525988,-0.0101041 -0.00435923,-0.0105241 -0.00342541,-0.010864 -0.00246551,-0.0111212 -0.00148685,-0.0112938 -0.000496878,-0.0113804 z "/>
<path fill="rgb(42,41,42)" stroke="rgb(42,41,42)" d="M 1.85476,1.38058 l 0.112997,0 0.00067158,0.0144906 0.00192134,0.0143784 0.00315673,0.0141585 0.0043685,0.0138328 0.00554758,0.0134035 0.00668515,0.0128739 0.0077727,0.012248 0.00880209,0.0115305 0.00976562,0.0107267 0.0106561,0.00984261 0.0114668,0.00888489 0.0121917,0.00786069 0.0128255,0.00677768 0.0133632,0.00564395 0.0138009,0.00446799 0.0141354,0.0032586 0.0143642,0.00202483 0.0144854,0.000775906 0.0144983,-0.000478822 0.0144027,-0.00172997 0.0141993,-0.00296817 0.0138896,-0.00418416 0.0134761,-0.00536884 0.0129617,-0.00651336 0.0123503,-0.00760914 0.0116465,-0.00864798 0.0108556,-0.00962211 0.00998345,-0.0105243 0.00903659,-0.0113476 0.00802213,-0.0120861 0.00694763,-0.0127342 0.00582116,-0.013287 0.00465112,-0.0137403 0.00344629,-0.0140909 0.00221567,-0.014336 0.13017,0.0274645 0,0.210182 -0.229289,0.0334414 -0.183182,0.19276 -0.00243162,0.00229889 -0.00262654,0.00207341 -0.00280062,0.00183147 -0.00295247,0.001575 -0.00308091,0.00130603 -0.0031849,0.00102671 -0.00326362,0.000739237 -0.00331646,0.000445901 -0.00334298,0.000149028 -0.138081,0 0,-0.0382132 0.12256,0 0.00292451,-1.81128e-05 0.00291244,-0.000266136 0.00287936,-0.000512241 0.00282553,-0.000754652 0.00275133,-0.000991624 0.00265729,-0.00122145 0.00254409,-0.00144246 0.00241256,-0.00165308 0.00226363,-0.00185178 0.00209838,-0.00203713 0.146885,-0.155243 -0.295715,-0.00736525 0,-0.281634 z "/>
<path fill="rgb(42,41,42)" stroke="rgb(42,41,42)" d="M 1.31811,1.64927 l 0.177936,0.175545 0.0022475,0.00215694 0.00243223,0.00194625 0.00259728,0.00171982 0.00274132,0.00147947 0.00286317,0.00122715 0.00296186,0.000964904 0.00303658,0.000694849 0.00308674,0.000419171 0.00311192,0.000140101 0.255563,0 0,-0.175545 -0.458577,-0.0107487 z M 1.85476,1.83557 l 0,0.0382132 -0.333631,0 -0.00633038,-0.000338173 -0.00627817,-0.000878978 -0.00617985,-0.00141333 -0.00603614,-0.00193729 -0.00584809,-0.00244703 -0.00561708,-0.0029388 -0.00534481,-0.00340897 -0.00503328,-0.00385411 -0.00468478,-0.00427093 -0.180322,-0.179131 -0.434694,-0.0728499 0,-0.183913 0.152858,-0.0262691 0.00146697,0.0146834 0.00275499,0.014497 0.00402158,0.0141979 0.00525689,0.0137884 0.00645131,0.0132716 0.00759556,0.0126515 0.00868072,0.0119331 0.00969836,0.0111218 0.0106406,0.0102241 0.0115,0.00924681 0.01227,0.0081976 0.0129446,0.00708463 0.0135184,0.00591656 0.0139872,0.00470247 0.0143471,0.0034518 0.0145954,0.00217428 0.0147302,0.00087985 0.0147505,-0.000421423 0.014656,-0.00171942 0.0144475,-0.00300404 0.0141266,-0.0042653 0.0136959,-0.00549338 0.0131586,-0.00667873 0.012519,-0.00781213 0.011782,-0.00888477 0.0109533,-0.0098883 0.0100395,-0.0108149 0.00904755,-0.0116574 0.00798525,-0.0124092 0.00686084,-0.0130646 0.00568307,-0.0136182 0.00446109,-0.014066 0.00320441,-0.0144044 0.00192281,-0.0146307 0.00062625,-0.0147432 0.512763,0 0,0.281634 -0.0398554,-0.000992662 0,0.17435 0.0398554,0 z "/>
<path fill="rgb(42,41,42)" stroke="rgb(42,41,42)" d="M 3.98881,1.38058 l 0.000496878,-0.0113804 0.00148685,-0.0112938 0.00246551,-0.0111212 0.00342541,-0.010864 0.00435923,-0.0105241 0.00525988,-0.0101041 0.0061205,-0.00960726 0.00693454,-0.00903727 0.0076958,-0.00839849 0.00839849,-0.0076958 0.00903727,-0.00693454 0.00960726,-0.0061205 0.0101041,-0.00525988 0.0105241,-0.00435923 0.010864,-0.00342541 0.0111212,-0.00246551 0.0112938,-0.00148685 0.0113804,-0.000496878 0.0113804,0.000496878 0.0112938,0.00148685 0.0111212,0.00246551 0.010864,0.00342541 0.0105241,0.00435923 0.0101041,0.00525988 0.00960726,0.0061205 0.00903727,0.00693454 0.00839849,0.0076958 0.0076958,0.00839849 0.00693454,0.00903727 0.0061205,0.00960726 0.00525988,0.0101041 0.00435923,0.0105241 0.00342541,0.010864 0.00246551,0.0111212 0.00148685,0.0112938 0.000496878,0.0113804 -0.000496878,0.0113804 -0.00148685,0.0112938 -0.00246551,0.0111212 -0.00342541,0.010864 -0.00435923,0.0105241 -0.00525988,0.0101041 -0.0061205,0.00960726 -0.00693454,0.00903727 -0.0076958,0.00839849 -0.00839849,0.0076958 -0.00903727,0.00693454 -0.00960726,0.0061205 -0.0101041,0.00525988 -0.0105241,0.00435923 -0.010864,0.00342541 -0.0111212,0.00246551 -0.0112938,0.00148685 -0.0113804,0.000496878 -0.0113804,-0.000496878 -0.0112938,-0.00148685 -0.0111212,-0.00246551 -0.010864,-0.00342541 -0.0105241,-0.00435923 -0.0101041,-0.00525988 -0.00960726,-0.0061205 -0.00903727,-0.00693454 -0.00839849,-0.0076958 -0.0076958,-0.00839849 -0.00693454,-0.00903727 -0.0061205,-0.00960726 -0.00525988,-0.0101041 -0.00435923,-0.0105241 -0.00342541,-0.010864 -0.00246551,-0.0111212 -0.00148685,-0.0112938 -0.000496878,-0.0113804 z "/>
<path fill="rgb(42,41,42)" stroke="rgb(42,41,42)" d="M 3.125,1.38058 l -0.000496878,0.0113804 -0.00148685,0.0112938 -0.00246551,0.0111212 -0.00342541,0.010864 -0.00435923,0.0105241 -0.00525988,0.0101041 -0.0061205,0.00960726 -0.00693454,0.00903727 -0.0076958,0.00839849 -0.00839849,0.0076958 -0.00903727,0.00693454 -0.00960726,0.0061205 -0.0101041,0.00525988 -0.0105241,0.00435923 -0.010864,0.00342541 -0.0111212,0.00246551 -0.0112938,0.00148685 -0.0113804,0.000496878 -0.0113804,-0.000496878 -0.0112938,-0.00148685 -0.0111212,-0.00246551 -0.010864,-0.00342541 -0.0105241,-0.00435923 -0.0101041,-0.00525988 -0.00960726,-0.0061205 -0.00903727,-0.00693454 -0.00839849,-0.0076958 -0.0076958,-0.00839849 -0.00693454,-0.00903727 -0.0061205,-0.00960726 -0.00525988,-0.0101041 -0.00435923,-0.0105241 -0.00342541,-0.010864 -0.00246551,-0.0111212 -0.00148685,-0.0112938 -0.000496878,-0.0113804 0.000496878,-0.0113804 0.00148685,-0.0112938 0.00246551,-0.0111212 0.00342541,-0.010864 0.00435923,-0.0105241 0.00525988,-0.0101041 0.0061205,-0.00960726 0.00693454,-0.00903727 0.0076958,-0.00839849 0.00839849,-0.0076958 0.00903727,-0.00693454 0.00960726,-0.0061205 0.0101041,-0.00525988 0.0105241,-0.00435923 0.010864,-0.00342541 0.0111212,-0.00246551 0.0112938,-0.00148685 0.0113804,-0.000496878 0.0113804,0.000496878 0.0112938,0.00148685 0.0111212,0.00246551 0.010864,0.00342541 0.0105241,0.00435923 0.0101041,0.00525988 0.00960726,0.0061205 0.00903727,0.00693454 0.00839849,0.0076958 0.0076958,0.00839849 0.00693454,0.00903727 0.0061205,0.00960726 0.00525988,0.0101041 0.00435923,0.0105241 0.00342541,0.010864 0.00246551,0.0111212 0.00148685,0.0112938 0.000496878,0.0113804 z "/>
<path fill="rgb(42,41,42)" stroke="rgb(42,41,42)" d="M 3.39551,1.7827 l -0.000165905,-0.00386911 -0.000496497,-0.0038407 -0.000823444,-0.0037841 -0.00114435,-0.00369973 -0.00145685,-0.00358819 -0.00175865,-0.00345031 -0.00204755,-0.0032871 -0.00232141,-0.00309977 -0.00257824,-0.00288967 -0.00281613,-0.00265836 -0.00303336,-0.00240754 -0.00322831,-0.00213905 -0.00339957,-0.00185485 -0.00354587,-0.00155703 -0.00366613,-0.00124778 -0.00375949,-0.000929378 -0.00382525,-0.00060415 -0.323964,-0.0370239 -0.00392446,-0.000276173 -0.00393361,6.61379e-05 -0.00391296,0.000407947 -0.00386266,0.000746666 -0.0037831,0.00107973 -0.00367488,0.00140461 -0.00353882,0.00171885 -0.00337594,0.00202007 -0.00318749,0.00230598 -0.00297489,0.00257443 -0.00273976,0.00282337 -0.00248386,0.00305092 -0.00220915,0.00325535 -0.0019177,0.00343512 -0.00161173,0.00358887 -0.00129354,0.00371543 -0.000965553,0.00381384 -0.00063025,0.00388336 -0.000290173,0.00392345 5.21026e-05,0.00393382 0.000393984,0.00391439 0.00073288,0.0038653 0.00106622,0.00378693 0.00139149,0.00367987 0.00170621,0.00354493 0.00200801,0.00338313 0.0022946,0.0031957 0.0025638,0.00298406 0.207602,0.221365 0.00294045,0.00286302 0.00318802,0.0025845 0.00340931,0.00228468 0.00360248,0.00196602 0.00376596,0.00163115 0.00389839,0.00128283 0.00399868,0.000923939 0.00406601,0.000557428 0.00409981,0.000186321 0.136451,0 0.00218854,-9.55535e-05 0.00217188,-0.000285933 0.00213869,-0.000474137 0.00208923,-0.000658732 0.00202387,-0.000838314 0.0019431,-0.00101152 0.00184755,-0.00117702 0.00173794,-0.00133357 0.00161509,-0.00147996 0.00147996,-0.00161509 0.00133357,-0.00173794 0.00117702,-0.00184755 0.00101152,-0.0019431 0.000838314,-0.00202387 0.000658732,-0.00208923 0.000474137,-0.00213869 0.000285933,-0.00217188 9.55535e-05,-0.00218854 0,-0.20443 z M 3.64522,1.37555 l 0,0.80354 -0.32364,0 -0.00409981,-0.000186321 -0.00406601,-0.000557428 -0.00399868,-0.000923939 -0.00389839,-0.00128283 -0.00376596,-0.00163115 -0.00360248,-0.00196602 -0.00340931,-0.00228468 -0.00318802,-0.0025845 -0.00294045,-0.00286302 -0.336401,-0.358703 -0.00268319,-0.00263258 -0.00289266,-0.00240052 -0.00308213,-0.00215186 -0.00325027,-0.00188832 -0.00339594,-0.00161171 -0.00351812,-0.00132396 -0.257116,-0.0847312 -0.00377872,-0.00143557 -0.00363535,-0.00176743 -0.00346291,-0.00208515 -0.00326277,-0.0023862 -0.00303653,-0.00266816 -0.00278601,-0.00292878 -0.00251321,-0.00316597 -0.0022203,-0.00337785 -0.00190964,-0.00356271 -0.0015837,-0.00371907 -0.0012451,-0.00384569 -0.00089654,-0.00394155 -0.000540808,-0.00400589 -0.000180751,-0.00403818 0,-0.245689 0.000171996,-0.00393936 0.00051468,-0.00390938 0.000853447,-0.00384965 0.00118572,-0.00376062 0.00150897,-0.00364297 0.00182073,-0.00349759 0.00211864,-0.00332559 0.00240042,-0.00312828 0.00266393,-0.00290717 0.00290717,-0.00266393 0.00312828,-0.00240042 0.00332559,-0.00211864 0.00349759,-0.00182073 0.00364297,-0.00150897 0.00376062,-0.00118572 0.00384965,-0.000853447 0.00390938,-0.00051468 0.00393936,-0.000171996 0.123275,0 0.000240869,0.0156158 0.00158765,0.0155368 0.00292258,0.0153418 0.00423571,0.0150323 0.00551723,0.0146107 0.00675758,0.01408 0.0079475,0.0134443 0.00907813,0.0127083 0.010141,0.0118774 0.0111282,0.0109579 0.0120324,0.00995662 0.0128468,0.00888105 0.0135653,0.00773921 0.0141826,0.00653962 0.0146941,0.00529124 0.0150959,0.00400337 0.0153851,0.00268562 0.0155594,0.00134784 0.0156177,2.22045e-16 0.0155594,-0.00134784 0.0153851,-0.00268562 0.0150959,-0.00400337 0.0146941,-0.00529124 0.0141826,-0.00653962 0.0135653,-0.00773921 0.0128468,-0.00888105 0.0120324,-0.00995662 0.0111282,-0.0109579 0.010141,-0.0118774 0.00907813,-0.0127083 0.0079475,-0.0134443 0.00675758,-0.01408 0.00551723,-0.0146107 0.00423571,-0.0150323 0.00292258,-0.0153418 0.00158765,-0.0155368 0.000240869,-0.0156158 0.470072,-4.44089e-16 z "/>
<path fill="rgb(42,41,42)" stroke="rgb(42,41,42)" d="M 4.64522,2.131 l -0.00335164,0.00526102 -0.00533426,0.00695174 -0.00591985,0.00646038 -0.00646038,0.00591985 -0.00695174,0.00533426 -0.0073902,0.00470808 -0.00777242,0.00404606 -0.00809548,0.00335326 -0.00835693,0.00263493 -0.00855478,0.00189655 -0.00868752,0.00114373 -0.00875414,0.000382214 -0.914371,0 0,-0.80354 0.29343,4.44089e-16 0.000240869,0.0156158 0.00158765,0.0155368 0.00292258,0.0153418 0.00423571,0.0150323 0.00551723,0.0146107 0.00675758,0.01408 0.0079475,0.0134443 0.00907813,0.0127083 0.010141,0.0118774 0.0111282,0.0109579 0.0120324,0.00995662 0.0128468,0.00888105 0.0135653,0.00773921 0.0141826,0.00653962 0.0146941,0.00529124 0.0150959,0.00400337 0.0153851,0.00268562 0.0155594,0.00134784 0.0156177,2.22045e-16 0.0155594,-0.00134784 0.0153851,-0.00268562 0.0150959,-0.00400337 0.0146941,-0.00529124 0.0141826,-0.00653962 0.0135653,-0.00773921 0.0128468,-0.00888105 0.0120324,-0.00995662 0.0111282,-0.0109579 0.010141,-0.0118774 0.00907813,-0.0127083 0.0079475,-0.0134443 0.00675758,-0.01408 0.00551723,-0.0146107 0.00423571,-0.0150323 0.00292258,-0.0153418 0.00158765,-0.0155368 0.000240869,-0.0156158 0.31473,0 0.00393936,0.000171996 0.00390938,0.00051468 0.00384965,0.000853447 0.00376062,0.00118572 0.00364297,0.00150897 0.00349759,0.00182073 0.00332559,0.00211864 0.00312828,0.00240042 0.00133251,0.00122102 0,0.743652 z "/>
<path fill="rgb(42,41,42)" stroke="rgb(42,41,42)" d="M 4.64522,2.131 l 0,-0.743652 0.00157466,0.00144291 0.00266393,0.00290717 0.00240042,0.00312828 0.00211864,0.00332559 0.00182073,0.00349759 0.00150897,0.00364297 0.00118572,0.00376062 0.000853447,0.00384965 0.00051468,0.00390938 0.000171996,0.00393936 0,0.657898 -0.000382214,0.00875414 -0.00114373,0.00868752 -0.00189655,0.00855478 -0.00263493,0.00835693 -0.00335326,0.00809548 -0.00404606,0.00777242 -0.00135644,0.00212918 z "/>
</g></g></svg>
