<?xml version="1.0" encoding="UTF-8" standalone="no"?>
<!DOCTYPE svg PUBLIC "-//W3C//DTD SVG 1.1//EN" "http://www.w3.org/Graphics/SVG/1.1/DTD/svg11-flat.dtd"
[

]>
<svg xmlns="http://www.w3.org/2000/svg"  viewBox="-0.05625 -0.05625 4.6125 7.6125"><g fill="none" stroke="black" stroke-width="0.0125" transform="translate(0,7.5) scale(1, -1)">
<g id="Output" >
<path fill="rgb(0,91,140)" stroke="rgb(0,91,140)" d="M 4.1,3.75 l 0,3.05 -0.00114159,0.0261467 -0.00341608,0.0259477 -0.00566458,0.0255513 -0.00786996,0.0249603 -0.0100155,0.0241794 -0.0120847,0.0232145 -0.014062,0.0220729 -0.0159323,0.0207634 -0.0176813,0.0192958 -0.0192958,0.0176813 -0.0207634,0.0159323 -0.0220729,0.014062 -0.0232145,0.0120847 -0.0241794,0.0100155 -0.0249603,0.00786996 -0.0255513,0.00566458 -0.0259477,0.00341608 -0.0261467,0.00114159 -1.55,0 -1.55,0 -0.0261467,-0.00114159 -0.0259477,-0.00341608 -0.0255513,-0.00566458 -0.0249603,-0.00786996 -0.0241794,-0.0100155 -0.0232145,-0.0120847 -0.0220729,-0.014062 -0.0207634,-0.0159323 -0.0192958,-0.0176813 -0.0176813,-0.0192958 -0.0159323,-0.0207634 -0.014062,-0.0220729 -0.0120847,-0.0232145 -0.0100155,-0.0241794 -0.00786996,-0.0249603 -0.00566458,-0.0255513 -0.00341608,-0.0259477 -0.00114159,-0.0261467 -4.44089e-16,-3.05 3.7,-8.88178e-16 z "/>
<path fill="rgb(0,91,140)" stroke="rgb(0,91,140)" d="M 3.02934,1.13865 l 0,-0.021191 0.145035,0.0450487 -0.00041087,0.00325458 -0.000246937,0.0032711 -8.23816e-05,0.00327938 0.000240003,0.00559399 0.000718245,0.00555288 0.00119121,0.00547096 0.00165542,0.00534883 0.00210746,0.00518739 0.00254401,0.00498782 0.00296187,0.0047516 0.00335796,0.00448045 0.00372937,0.00417638 0.00407337,0.00384162 0.00438744,0.00347862 0.00466926,0.00309005 0.00491676,0.00267878 0.00512813,0.00224781 0.00530181,0.00180033 -0.00487148,0.0715757 -0.101275,-0.0931757 -0.150633,0.167798 0.166334,0.151788 -0.095605,0.0956752 0,-0.0255841 -0.319607,0 4.44089e-16,0.169628 -0.0624092,0.00129209 0,-0.376223 -0.116255,0 -0.00784853,0.0204371 -0.00959048,0.0196799 -0.0112602,0.0187745 -0.0128452,0.0177278 -0.0143335,0.0165477 -0.0157139,0.015243 -0.0169761,0.0138235 -0.0181104,0.0123 -0.0191084,0.0106839 -0.0199625,0.00898739 -0.0206664,0.00722321 -0.0212148,0.00540466 -0.0216034,0.00354543 -0.0218294,0.0016595 -0.0218911,-0.000238914 0.00416477,-0.0766129 0.015014,0.000173297 0.0149739,-0.00110994 0.0148243,-0.00238507 0.0145664,-0.00364276 0.014202,-0.00487381 0.0137337,-0.00606923 0.013165,-0.00722028 0.0125001,-0.00831854 0.0117437,-0.00935598 0.0109015,-0.010325 0.00997965,-0.0112186 0.00898479,-0.0120301 0.00792425,-0.0127537 0.00680576,-0.013384 0.00563752,-0.0139165 0.00442807,-0.0143472 0.00318623,-0.014673 0.00192111,-0.0148916 0.000641933,-0.0150012 -0.000338213,-0.0108935 -0.00101334,-0.0108515 -0.00168456,-0.0107677 0.0749399,-0.0141192 0.00605996,0.0207585 0.0813766,0 0.0995565,-0.153094 0.297804,0 z "/>
<path fill="rgb(0,91,140)" stroke="rgb(0,91,140)" d="M 0.7,0.4 l 1.55,-4.44089e-16 0.157873,0 -0.0897803,0.743287 -0.0155787,-0.00118166 -0.0156221,0.000207697 -0.0155418,0.00159541 -0.0153385,0.00297048 -0.0150137,0.00432205 -0.0145701,0.0056394 -0.0140112,0.00691212 -0.0133414,0.00813012 -0.012566,0.00928376 -0.0116911,0.0103639 -0.0107236,0.011362 -0.0096713,0.0122702 -0.00854242,0.0130812 -0.00734591,0.0137887 -0.00609126,0.0143871 -0.00478838,0.0148716 -0.00344761,0.0152383 -0.00207954,0.0154844 -0.000695015,0.015608 -0.90874,0 -0.000668219,-0.0153047 -0.00199957,-0.0151882 -0.0033157,-0.0149562 -0.0046066,-0.0146103 -0.00586244,-0.0141532 -0.00707367,-0.0135884 -0.00823106,-0.0129202 -0.0093258,-0.0121536 -0.0103496,-0.0112946 -0.0112946,-0.0103496 -0.0121536,-0.0093258 -0.0129202,-0.00823106 -0.0135884,-0.00707367 -0.0141532,-0.00586244 -0.0146103,-0.0046066 -0.0149562,-0.0033157 -0.0151882,-0.00199957 -0.0153047,-0.000668219 -0.0153047,0.000668219 -0.0151882,0.00199957 -0.0149562,0.0033157 -0.0146103,0.0046066 -0.0141532,0.00586244 -0.0135884,0.00707367 -0.0129202,0.00823106 -0.0121536,0.0093258 -0.0112946,0.0103496 -0.0103496,0.0112946 -0.0093258,0.0121536 -0.00823106,0.0129202 -0.00707367,0.0135884 -0.00586244,0.0141532 -0.0046066,0.0146103 -0.0033157,0.0149562 -0.00199957,0.0151882 -0.000668219,0.0153047 0.000634058,0.0149091 0.00189759,0.0148014 0.00314743,0.0145869 0.00437453,0.014267 0.00557004,0.0138441 0.00672533,0.0133212 0.00783205,0.0127021 0.00888221,0.0119912 0.00986823,0.0111938 0.010783,0.0103156 0.0116199,0.0093628 0.0123728,0.00834244 0.0130365,0.00726183 0.0136059,0.00612877 0.0140772,0.00495146 0.0144467,0.00373839 0.014712,0.00249832 0.014871,0.00124021 -0.00312213,0.0766625 -0.0218447,-0.00184274 -0.0216023,-0.00373186 -0.0211969,-0.00559282 -0.0206314,-0.00741156 -0.0199102,-0.00917435 -0.0190388,-0.0108679 -0.0180236,-0.0124794 -0.0168724,-0.0139967 -0.0155938,-0.0154084 -0.0141976,-0.0167038 -0.0126941,-0.017873 -0.0110949,-0.0189074 -0.00941188,-0.0197991 -0.00765783,-0.0205413 -0.00584599,-0.0211284 -0.00399002,-0.0215561 -0.00210393,-0.0218211 -0.207474,0 0,0.0779375 0.0275241,0.00343745 -0.0109975,0.257219 -0.194165,-0.0112351 0,-0.958264 0.00114159,-0.0261467 0.00341608,-0.0259477 0.00566458,-0.0255513 0.00786996,-0.0249603 0.0100155,-0.0241794 0.0120847,-0.0232145 0.014062,-0.0220729 0.0159323,-0.0207634 0.0176813,-0.0192958 0.0192958,-0.0176813 0.0207634,-0.0159323 0.0220729,-0.014062 0.0232145,-0.0120847 0.0241794,-0.0100155 0.0249603,-0.00786996 0.0255513,-0.00566458 0.0259477,-0.00341608 0.0261467,-0.00114159 z "/>
<path fill="rgb(0,91,140)" stroke="rgb(0,91,140)" d="M 2.2875,1.49297 l -0.00416477,0.0766129 -0.0213985,-0.00208051 -0.0211437,-0.00389454 -0.0207354,-0.00568029 -0.0201766,-0.00742481 -0.0194713,-0.00911542 -0.0186247,-0.0107399 -0.0176428,-0.0122863 -0.0165329,-0.0137436 -0.0153029,-0.0151011 -0.0139619,-0.016349 -0.0125194,-0.0174782 -0.0109861,-0.0184805 -0.00937308,-0.0193486 -0.00769198,-0.0200762 -0.781429,0 -0.00775739,0.0202272 -0.00946381,0.0194873 -0.0111005,0.0186037 -0.0126553,0.017583 -0.0141169,0.0164326 -0.0154744,0.0151612 -0.0167178,0.013778 -0.017838,0.0122932 -0.0188268,0.0107178 -0.0196767,0.0090634 -0.0203816,0.0073422 -0.0209363,0.00556688 -0.0213366,0.00375053 -0.0215797,0.00190653 -0.0216637,4.84778e-05 0.00312213,-0.0766625 0.0157159,-6.38175e-05 0.0156472,-0.00146869 0.0154532,-0.0028618 0.0151355,-0.00423198 0.0146965,-0.00556827 0.0141398,-0.00685996 0.0134698,-0.0080967 0.012692,-0.00926859 0.0118125,-0.0103662 0.0108383,-0.0113808 0.00977737,-0.0123043 0.00863811,-0.0131292 0.00742965,-0.0138489 0.00616169,-0.0144577 0.00484437,-0.0149507 0.00348825,-0.015324 0.00210419,-0.0155745 0.000703274,-0.0157003 0.90874,0 0.000698219,0.0156438 0.00208911,0.0155194 0.00346338,0.0152716 0.00481011,0.0149024 0.00611859,0.0144146 0.00737841,0.0138122 0.00857956,0.0130999 0.00971248,0.0122835 0.0107682,0.0113694 0.0117382,0.0103649 0.0126149,0.00927799 0.0133913,0.00811728 0.0140612,0.00689201 0.0146193,0.00561194 0.0150611,0.00428723 0.0153832,0.00292844 0.0155829,0.00154635 z "/>
<path fill="rgb(0,91,140)" stroke="rgb(0,91,140)" d="M 2.4,0.465181 l 0,0.710403 -0.00794345,-0.00563406 -0.0137057,-0.00796808 -0.0143684,-0.0066995 -0.0149141,-0.00537632 -0.0153382,-0.00400932 -0.0156373,-0.00260964 0.0819072,-0.678106 z "/>
<path fill="rgb(0,91,140)" stroke="rgb(0,91,140)" d="M 0.4,1.65826 l 0.194165,0.0112351 -0.00693503,0.162203 0.159387,0.361081 0.373885,0 -4.44089e-16,0.206253 0.279498,0 0,0.000964065 -1,0 0,-0.741736 z "/>
<path fill="rgb(0,91,140)" stroke="rgb(0,91,140)" d="M 2.4,2.4 l 1,0 0,1 -1,0 0,-1 z "/>
<path fill="rgb(0,91,140)" stroke="rgb(0,91,140)" d="M 0.4,3.4 l 1,0 0,0.35 -1,0 0,-0.35 z "/>
<path fill="rgb(0,91,140)" stroke="rgb(0,91,140)" d="M 3.4,3.4 l 0.7,0 0,0.35 -0.7,4.44089e-16 0,-0.35 z "/>
<path fill="rgb(0,91,140)" stroke="rgb(0,91,140)" d="M 4.1,2.4 l 0,1 -0.7,0 0,-1 0.7,0 z "/>
<path fill="rgb(0,91,140)" stroke="rgb(0,91,140)" d="M 3.4,1.4 l 0.156618,0 0.0894109,0.16609 -0.0571523,0.096218 -0.0294341,-0.14531 -0.116871,-0.00172988 -0.0425722,-0.0391675 0,-0.076101 z M 3.66322,1.4 l 0.108247,0 -0.0449242,0.0770014 -0.0633224,-0.0770014 z M 3.45027,1.93197 l 0.000248534,0.00569236 0.00074371,0.00564903 0.00123323,0.00556272 0.00171336,0.00543407 0.00218045,0.00526406 0.00263094,0.00505399 0.00306141,0.00480546 0.00346859,0.00452035 0.00384936,0.00420084 0.00420084,0.00384936 0.00452035,0.00346859 0.00480546,0.00306141 0.00505399,0.00263094 0.00526406,0.00218045 0.00543407,0.00171336 0.00556272,0.00123323 0.00564903,0.00074371 0.00569236,0.000248534 0.00569236,-0.000248534 0.00564903,-0.00074371 0.00556272,-0.00123323 0.00543407,-0.00171336 0.00526406,-0.00218045 0.00505399,-0.00263094 0.00480546,-0.00306141 0.00452035,-0.00346859 0.00420084,-0.00384936 0.00384936,-0.00420084 0.00346859,-0.00452035 0.00306141,-0.00480546 0.00263094,-0.00505399 0.00218045,-0.00526406 0.00171336,-0.00543407 0.00123323,-0.00556272 0.00074371,-0.00564903 0.000248534,-0.00569236 -0.000248534,-0.00569236 -0.00074371,-0.00564903 -0.00123323,-0.00556272 -0.00171336,-0.00543407 -0.00218045,-0.00526406 -0.00263094,-0.00505399 -0.00306141,-0.00480546 -0.00346859,-0.00452035 -0.00384936,-0.00420084 -0.00420084,-0.00384936 -0.00452035,-0.00346859 -0.00480546,-0.00306141 -0.00505399,-0.00263094 -0.00526406,-0.00218045 -0.00543407,-0.00171336 -0.00556272,-0.00123323 -0.00564903,-0.00074371 -0.00569236,-0.000248534 -0.00569236,0.000248534 -0.00564903,0.00074371 -0.00556272,0.00123323 -0.00543407,0.00171336 -0.00526406,0.00218045 -0.00505399,0.00263094 -0.00480546,0.00306141 -0.00452035,0.00346859 -0.00420084,0.00384936 -0.00384936,0.00420084 -0.00346859,0.00452035 -0.00306141,0.00480546 -0.00263094,0.00505399 -0.00218045,0.00526406 -0.00171336,0.00543407 -0.00123323,0.00556272 -0.00074371,0.00564903 -0.000248534,0.00569236 z M 4.1,1.4 l 0,1 -0.7,0 0,-0.795511 0.0546921,-0.0606778 0.0770481,0.00605457 0.00263551,0.264091 0.000192744,0.00356233 0.000505604,0.00353153 0.000814537,0.00347331 0.00111715,0.00338812 0.00141108,0.00327661 0.00169406,0.00313967 0.00196388,0.00297834 0.00221845,0.00279389 0.00245579,0.00258774 0.00267407,0.0023615 0.00287158,0.00211692 0.00304679,0.0018559 0.00319835,0.00158048 0.00332507,0.00129277 0.00342597,0.000995035 0.00350026,0.000689568 0.00354738,0.000378747 0.00356695,6.49851e-05 0.00355882,-0.000249282 0.00352306,-0.000561613 0.00345994,-0.000869583 0.00336995,-0.0011708 0.0032538,-0.00146293 0.00311237,-0.00174369 0.00294679,-0.00201092 0.00275831,-0.00226253 0.00254842,-0.00249657 0.00231874,-0.00271123 0.00207106,-0.00290483 0.0900337,-0.109847 0.104751,-0.169528 0.0311655,-0.140985 0.00716594,-0.0152203 0.258057,0 z "/>
<path fill="rgb(0,91,140)" stroke="rgb(0,91,140)" d="M 3.8,0.4 l 0.0261467,0.00114159 0.0259477,0.00341608 0.0255513,0.00566458 0.0249603,0.00786996 0.0241794,0.0100155 0.0232145,0.0120847 0.0220729,0.014062 0.0207634,0.0159323 0.0192958,0.0176813 0.0176813,0.0192958 0.0159323,0.0207634 0.014062,0.0220729 0.0120847,0.0232145 0.0100155,0.0241794 0.00786996,0.0249603 0.00566458,0.0255513 0.00341608,0.0259477 0.00114159,0.0261467 0,0.7 -0.258057,0 0.120936,-0.256865 -0.041554,0 -0.14986,0.256865 -0.108247,0 -0.0682654,-0.0830123 0.0277027,-0.193746 -0.0337626,0.00864939 -0.0597339,0.2171 0.0274598,0.0510095 -0.156618,0 0,-1 0.4,0 z "/>
<path fill="rgb(0,91,140)" stroke="rgb(0,91,140)" d="M 2.4,3.4 l 1,0 0,0.35 -1,0 0,-0.35 z "/>
<path fill="rgb(0,91,140)" stroke="rgb(0,91,140)" d="M 0.4,2.4 l 1,0 0,1 -1,0 0,-1 z "/>
<path fill="rgb(0,91,140)" stroke="rgb(0,91,140)" d="M 3.31728,1.4 l 0.0827162,0 0,0.076101 -0.0827162,-0.076101 z M 3.4,1.60449 l 0,0.795511 -1,0 0,-0.000964065 0.252548,0 0,-0.625034 0.0624092,-0.00129209 4.44089e-16,0.626326 0.319607,0 0,-0.770369 0.095605,-0.0956752 0.183413,0.167374 0.0864184,-0.0958762 z "/>
<path fill="rgb(0,91,140)" stroke="rgb(0,91,140)" d="M 3.4,0.4 l 0,1 -0.0827162,0 -0.10154,-0.0934195 0.00487148,-0.0715757 0.00560249,0.00137282 0.00570177,0.000873146 0.00575657,0.000366666 0.00576647,-0.000142674 0.00573139,-0.000650902 0.00565161,-0.00115405 0.00552775,-0.0016482 0.00536076,-0.00212949 0.00515197,-0.00259418 0.00490299,-0.00303862 0.00461577,-0.00345937 0.00429254,-0.00385313 0.00393583,-0.00421684 0.00354842,-0.00454766 0.00313334,-0.00484301 0.00269381,-0.00510058 0.00223328,-0.00531837 0.00175532,-0.00549467 0.00126367,-0.00562811 0.000762168,-0.00571766 0.000254718,-0.00576261 -0.000252541,-0.00573797 -0.000755669,-0.0056936 -0.00125295,-0.0056052 -0.00174055,-0.00547344 -0.00221468,-0.00529937 -0.00267169,-0.00508431 -0.00310804,-0.00482993 -0.00352035,-0.0045382 -0.00390544,-0.00421137 -0.00426032,-0.00385198 -0.00458226,-0.0034628 -0.00486877,-0.00304684 -0.00511762,-0.00260732 -0.00532689,-0.00214763 -0.00549497,-0.00167134 -0.00562056,-0.00118212 -0.00570268,-0.000683757 -0.0057407,-0.000180109 -0.00573433,0.000324932 -0.00568361,0.00082746 -0.00558894,0.00132359 -0.00545104,0.00180948 -0.005271,0.00228138 -0.00505019,0.00273564 -0.00479032,0.00316874 -0.00449341,0.00357734 -0.00416175,0.00395827 -0.00379791,0.00430859 -0.0034047,0.0046256 -0.00298515,0.00490683 -0.00254253,0.00515011 -0.00208024,0.00535357 -0.00160186,0.00551563 -0.00111109,0.00563503 -0.145035,-0.0450487 0,-0.021191 -0.322044,0 -0.103019,0.153959 -0.0657939,0 0.00605996,0.0207585 -0.0749399,0.0141192 -0.00363556,-0.0154311 -0.00501246,-0.0150403 -0.0063485,-0.0145269 -0.0076328,-0.0138952 -0.00885489,-0.0131501 -0.0100048,-0.0122979 -0.0110732,-0.0113455 -0.0120513,-0.0103006 -0.00498772,-0.00353765 0,-0.710403 0.00787315,-0.0651815 0.992127,-4.44089e-16 z "/>
<path fill="rgb(0,91,140)" stroke="rgb(0,91,140)" d="M 1.4,3.4 l 1,0 0,0.35 -1,4.44089e-16 0,-0.35 z "/>
<path fill="rgb(0,91,140)" stroke="rgb(0,91,140)" d="M 1.4,2.4 l 1,0 0,1 -1,0 0,-1 z "/>
<path fill="rgb(0,91,140)" stroke="rgb(0,91,140)" d="M 1.4,2.39904 l 1,4.44089e-16 0,0.000964065 -1,0 0,-0.000964065 z "/>
<path fill="rgb(0,91,140)" stroke="rgb(0,91,140)" d="M 1.1205,2.14673 l -0.346157,0 -0.13456,-0.304837 0.480717,0 -2.22045e-16,0.304837 z "/>
<path fill="rgb(241,240,234)" stroke="rgb(241,240,234)" d="M 3.17363,1.17232 l 8.23816e-05,-0.00327938 0.000246937,-0.0032711 0.00041087,-0.00325458 0.00111109,-0.00563503 0.00160186,-0.00551563 0.00208024,-0.00535357 0.00254253,-0.00515011 0.00298515,-0.00490683 0.0034047,-0.0046256 0.00379791,-0.00430859 0.00416175,-0.00395827 0.00449341,-0.00357734 0.00479032,-0.00316874 0.00505019,-0.00273564 0.005271,-0.00228138 0.00545104,-0.00180948 0.00558894,-0.00132359 0.00568361,-0.00082746 0.00573433,-0.000324932 0.0057407,0.000180109 0.00570268,0.000683757 0.00562056,0.00118212 0.00549497,0.00167134 0.00532689,0.00214763 0.00511762,0.00260732 0.00486877,0.00304684 0.00458226,0.0034628 0.00426032,0.00385198 0.00390544,0.00421137 0.00352035,0.0045382 0.00310804,0.00482993 0.00267169,0.00508431 0.00221468,0.00529937 0.00174055,0.00547344 0.00125295,0.0056052 0.000755669,0.0056936 0.000252541,0.00573797 -0.000254718,0.00576261 -0.000762168,0.00571766 -0.00126367,0.00562811 -0.00175532,0.00549467 -0.00223328,0.00531837 -0.00269381,0.00510058 -0.00313334,0.00484301 -0.00354842,0.00454766 -0.00393583,0.00421684 -0.00429254,0.00385313 -0.00461577,0.00345937 -0.00490299,0.00303862 -0.00515197,0.00259418 -0.00536076,0.00212949 -0.00552775,0.0016482 -0.00565161,0.00115405 -0.00573139,0.000650902 -0.00576647,0.000142674 -0.00575657,-0.000366666 -0.00570177,-0.000873146 -0.00560249,-0.00137282 -0.00530181,-0.00180033 -0.00512813,-0.00224781 -0.00491676,-0.00267878 -0.00466926,-0.00309005 -0.00438744,-0.00347862 -0.00407337,-0.00384162 -0.00372937,-0.00417638 -0.00335796,-0.00448045 -0.00296187,-0.0047516 -0.00254401,-0.00498782 -0.00210746,-0.00518739 -0.00165542,-0.00534883 -0.00119121,-0.00547096 -0.000718245,-0.00555288 -0.000240003,-0.00559399 z "/>
<path fill="rgb(241,240,234)" stroke="rgb(241,240,234)" d="M 2.2875,1.49297 l -0.0155829,-0.00154635 -0.0153832,-0.00292844 -0.0150611,-0.00428723 -0.0146193,-0.00561194 -0.0140612,-0.00689201 -0.0133913,-0.00811728 -0.0126149,-0.00927799 -0.0117382,-0.0103649 -0.0107682,-0.0113694 -0.00971248,-0.0122835 -0.00857956,-0.0130999 -0.00737841,-0.0138122 -0.00611859,-0.0144146 -0.00481011,-0.0149024 -0.00346338,-0.0152716 -0.00208911,-0.0155194 -0.000698219,-0.0156438 0.000695015,-0.015608 0.00207954,-0.0154844 0.00344761,-0.0152383 0.00478838,-0.0148716 0.00609126,-0.0143871 0.00734591,-0.0137887 0.00854242,-0.0130812 0.0096713,-0.0122702 0.0107236,-0.011362 0.0116911,-0.0103639 0.012566,-0.00928376 0.0133414,-0.00813012 0.0140112,-0.00691212 0.0145701,-0.0056394 0.0150137,-0.00432205 0.0153385,-0.00297048 0.0155418,-0.00159541 0.0156221,-0.000207697 0.0155787,0.00118166 0.0156373,0.00260964 0.0153382,0.00400932 0.0149141,0.00537632 0.0143684,0.0066995 0.0137057,0.00796808 0.0129312,0.0091717 0.0120513,0.0103006 0.0110732,0.0113455 0.0100048,0.0122979 0.00885489,0.0131501 0.0076328,0.0138952 0.0063485,0.0145269 0.00501246,0.0150403 0.00363556,0.0154311 0.00168456,0.0107677 0.00101334,0.0108515 0.000338213,0.0108935 -0.000641933,0.0150012 -0.00192111,0.0148916 -0.00318623,0.014673 -0.00442807,0.0143472 -0.00563752,0.0139165 -0.00680576,0.013384 -0.00792425,0.0127537 -0.00898479,0.0120301 -0.00997965,0.0112186 -0.0109015,0.010325 -0.0117437,0.00935598 -0.0125001,0.00831854 -0.013165,0.00722028 -0.0137337,0.00606923 -0.014202,0.00487381 -0.0145664,0.00364276 -0.0148243,0.00238507 -0.0149739,0.00110994 -0.015014,-0.000173297 z "/>
<path fill="rgb(241,240,234)" stroke="rgb(241,240,234)" d="M 0.861489,1.31762 l 0.000668219,-0.0153047 0.00199957,-0.0151882 0.0033157,-0.0149562 0.0046066,-0.0146103 0.00586244,-0.0141532 0.00707367,-0.0135884 0.00823106,-0.0129202 0.0093258,-0.0121536 0.0103496,-0.0112946 0.0112946,-0.0103496 0.0121536,-0.0093258 0.0129202,-0.00823106 0.0135884,-0.00707367 0.0141532,-0.00586244 0.0146103,-0.0046066 0.0149562,-0.0033157 0.0151882,-0.00199957 0.0153047,-0.000668219 0.0153047,0.000668219 0.0151882,0.00199957 0.0149562,0.0033157 0.0146103,0.0046066 0.0141532,0.00586244 0.0135884,0.00707367 0.0129202,0.00823106 0.0121536,0.0093258 0.0112946,0.0103496 0.0103496,0.0112946 0.0093258,0.0121536 0.00823106,0.0129202 0.00707367,0.0135884 0.00586244,0.0141532 0.0046066,0.0146103 0.0033157,0.0149562 0.00199957,0.0151882 0.000668219,0.0153047 -0.000703274,0.0157003 -0.00210419,0.0155745 -0.00348825,0.015324 -0.00484437,0.0149507 -0.00616169,0.0144577 -0.00742965,0.0138489 -0.00863811,0.0131292 -0.00977737,0.0123043 -0.0108383,0.0113808 -0.0118125,0.0103662 -0.012692,0.00926859 -0.0134698,0.0080967 -0.0141398,0.00685996 -0.0146965,0.00556827 -0.0151355,0.00423198 -0.0154532,0.0028618 -0.0156472,0.00146869 -0.0157159,6.38175e-05 -0.014871,-0.00124021 -0.014712,-0.00249832 -0.0144467,-0.00373839 -0.0140772,-0.00495146 -0.0136059,-0.00612877 -0.0130365,-0.00726183 -0.0123728,-0.00834244 -0.0116199,-0.0093628 -0.010783,-0.0103156 -0.00986823,-0.0111938 -0.00888221,-0.0119912 -0.00783205,-0.0127021 -0.00672533,-0.0133212 -0.00557004,-0.0138441 -0.00437453,-0.014267 -0.00314743,-0.0145869 -0.00189759,-0.0148014 -0.000634058,-0.0149091 z "/>
<path fill="rgb(241,240,234)" stroke="rgb(241,240,234)" d="M 1.1205,2.14673 l 2.22045e-16,-0.304837 -0.480717,0 0.13456,0.304837 0.346157,0 z M 0.785113,1.33091 l 0.00210393,0.0218211 0.00399002,0.0215561 0.00584599,0.0211284 0.00765783,0.0205413 0.00941188,0.0197991 0.0110949,0.0189074 0.0126941,0.017873 0.0141976,0.0167038 0.0155938,0.0154084 0.0168724,0.0139967 0.0180236,0.0124794 0.0190388,0.0108679 0.0199102,0.00917435 0.0206314,0.00741156 0.0211969,0.00559282 0.0216023,0.00373186 0.0218447,0.00184274 0.0216637,-4.84778e-05 0.0215797,-0.00190653 0.0213366,-0.00375053 0.0209363,-0.00556688 0.0203816,-0.0073422 0.0196767,-0.0090634 0.0188268,-0.0107178 0.017838,-0.0122932 0.0167178,-0.013778 0.0154744,-0.0151612 0.0141169,-0.0164326 0.0126553,-0.017583 0.0111005,-0.0186037 0.00946381,-0.0194873 0.00775739,-0.0202272 0.30129,0 0,0.933126 -0.457137,0 2.22045e-16,-0.138122 -0.373885,0 -0.159387,-0.361081 0.00693503,-0.162203 0.0109975,-0.257219 -0.0275241,-0.00343745 0,-0.0779375 0.207474,0 z "/>
<path fill="rgb(241,240,234)" stroke="rgb(241,240,234)" d="M 1.1205,2.33091 l 0.457137,0 0,0.0681309 -0.457137,0 2.22045e-16,-0.0681309 z "/>
<path fill="rgb(241,240,234)" stroke="rgb(241,240,234)" d="M 1.57764,2.39904 l 0,-0.0681309 1,0 0,0.0681309 -1,-4.44089e-16 z "/>
<path fill="rgb(241,240,234)" stroke="rgb(241,240,234)" d="M 1.57764,2.33091 l 0,-0.933126 0.480139,0 0.00769198,0.0200762 0.00937308,0.0193486 0.0109861,0.0184805 0.0125194,0.0174782 0.0139619,0.016349 0.0153029,0.0151011 0.0165329,0.0137436 0.0176428,0.0122863 0.0186247,0.0107399 0.0194713,0.00911542 0.0201766,0.00742481 0.0207354,0.00568029 0.0211437,0.00389454 0.0213985,0.00208051 0.0218911,0.000238914 0.0218294,-0.0016595 0.0216034,-0.00354543 0.0212148,-0.00540466 0.0206664,-0.00722321 0.0199625,-0.00898739 0.0191084,-0.0106839 0.0181104,-0.0123 0.0169761,-0.0138235 0.0157139,-0.015243 0.0143335,-0.0165477 0.0128452,-0.0177278 0.0112602,-0.0187745 0.00959048,-0.0196799 0.00784853,-0.0204371 0.0413456,0 0,0.933126 -1,0 z "/>
<path fill="rgb(241,240,234)" stroke="rgb(241,240,234)" d="M 2.57764,2.33091 l 0,-0.933126 0.0749094,0 0,0.376223 0,0.556903 -0.0749094,0 z "/>
<path fill="rgb(241,240,234)" stroke="rgb(241,240,234)" d="M 2.57764,2.33091 l 0.0749094,0 0,0.0681309 -0.0749094,0 0,-0.0681309 z "/>
<path fill="rgb(241,240,234)" stroke="rgb(241,240,234)" d="M 3.02934,1.13865 l -0.297804,0 -0.0995565,0.153094 -0.0813766,0 -0.00605996,-0.0207585 -0.00605996,-0.0207585 0.0657939,0 0.103019,-0.153959 0.322044,0 0,0.021191 0,0.021191 z "/>
<path fill="rgb(241,240,234)" stroke="rgb(241,240,234)" d="M 3.45027,1.93197 l 0.000248534,-0.00569236 0.00074371,-0.00564903 0.00123323,-0.00556272 0.00171336,-0.00543407 0.00218045,-0.00526406 0.00263094,-0.00505399 0.00306141,-0.00480546 0.00346859,-0.00452035 0.00384936,-0.00420084 0.00420084,-0.00384936 0.00452035,-0.00346859 0.00480546,-0.00306141 0.00505399,-0.00263094 0.00526406,-0.00218045 0.00543407,-0.00171336 0.00556272,-0.00123323 0.00564903,-0.00074371 0.00569236,-0.000248534 0.00569236,0.000248534 0.00564903,0.00074371 0.00556272,0.00123323 0.00543407,0.00171336 0.00526406,0.00218045 0.00505399,0.00263094 0.00480546,0.00306141 0.00452035,0.00346859 0.00420084,0.00384936 0.00384936,0.00420084 0.00346859,0.00452035 0.00306141,0.00480546 0.00263094,0.00505399 0.00218045,0.00526406 0.00171336,0.00543407 0.00123323,0.00556272 0.00074371,0.00564903 0.000248534,0.00569236 -0.000248534,0.00569236 -0.00074371,0.00564903 -0.00123323,0.00556272 -0.00171336,0.00543407 -0.00218045,0.00526406 -0.00263094,0.00505399 -0.00306141,0.00480546 -0.00346859,0.00452035 -0.00384936,0.00420084 -0.00420084,0.00384936 -0.00452035,0.00346859 -0.00480546,0.00306141 -0.00505399,0.00263094 -0.00526406,0.00218045 -0.00543407,0.00171336 -0.00556272,0.00123323 -0.00564903,0.00074371 -0.00569236,0.000248534 -0.00569236,-0.000248534 -0.00564903,-0.00074371 -0.00556272,-0.00123323 -0.00543407,-0.00171336 -0.00526406,-0.00218045 -0.00505399,-0.00263094 -0.00480546,-0.00306141 -0.00452035,-0.00346859 -0.00420084,-0.00384936 -0.00384936,-0.00420084 -0.00346859,-0.00452035 -0.00306141,-0.00480546 -0.00263094,-0.00505399 -0.00218045,-0.00526406 -0.00171336,-0.00543407 -0.00123323,-0.00556272 -0.00074371,-0.00564903 -0.000248534,-0.00569236 z "/>
<path fill="rgb(241,240,234)" stroke="rgb(241,240,234)" d="M 3.03456,2.39904 l -0.319607,0 -4.44089e-16,-0.626326 -4.44089e-16,-0.169628 0.319607,0 0,0.0255841 0,0.770369 z "/>
<path fill="rgb(241,240,234)" stroke="rgb(241,240,234)" d="M 3.13017,1.53299 l -0.166334,-0.151788 0.150633,-0.167798 0.101275,0.0931757 0.226829,0.208688 0.116871,0.00172988 0.0294341,0.14531 0.0571523,-0.096218 -0.116871,-0.2171 0.0597339,-0.2171 0.0337626,-0.00864939 -0.0277027,0.193746 0.131588,0.160014 0.194784,-0.333866 0.041554,0 -0.128102,0.272085 -0.0311655,0.140985 -0.104751,0.169528 -0.0900337,0.109847 -0.00207106,0.00290483 -0.00231874,0.00271123 -0.00254842,0.00249657 -0.00275831,0.00226253 -0.00294679,0.00201092 -0.00311237,0.00174369 -0.0032538,0.00146293 -0.00336995,0.0011708 -0.00345994,0.000869583 -0.00352306,0.000561613 -0.00355882,0.000249282 -0.00356695,-6.49851e-05 -0.00354738,-0.000378747 -0.00350026,-0.000689568 -0.00342597,-0.000995035 -0.00332507,-0.00129277 -0.00319835,-0.00158048 -0.00304679,-0.0018559 -0.00287158,-0.00211692 -0.00267407,-0.0023615 -0.00245579,-0.00258774 -0.00221845,-0.00279389 -0.00196388,-0.00297834 -0.00169406,-0.00313967 -0.00141108,-0.00327661 -0.00111715,-0.00338812 -0.000814537,-0.00347331 -0.000505604,-0.00353153 -0.000192744,-0.00356233 -0.00263551,-0.264091 -0.0770481,-0.00605457 -0.141111,0.156554 -0.183413,-0.167374 z "/>
<path fill="rgb(0,91,140)" stroke="rgb(0,91,140)" d="M 3.8,7.5 l -1.55,0 -4.44089e-16,-0.2 1.55,0 0.0435779,-0.00190265 0.0432462,-0.00569347 0.0425854,-0.00944096 0.0416005,-0.0131166 0.0402991,-0.0166924 0.0386909,-0.0201412 0.0367882,-0.0234367 0.0346056,-0.0265538 0.0321596,-0.0294688 0.0294688,-0.0321596 0.0265538,-0.0346056 0.0234367,-0.0367882 0.0201412,-0.0386909 0.0166924,-0.0402991 0.0131166,-0.0416005 0.00944096,-0.0425854 0.00569347,-0.0432462 0.00190265,-0.0435779 0,-6.1 -0.00190265,-0.0435779 -0.00569347,-0.0432462 -0.00944096,-0.0425854 -0.0131166,-0.0416005 -0.0166924,-0.0402991 -0.0201412,-0.0386909 -0.0234367,-0.0367882 -0.0265538,-0.0346056 -0.0294688,-0.0321596 -0.0321596,-0.0294688 -0.0346056,-0.0265538 -0.0367882,-0.0234367 -0.0386909,-0.0201412 -0.0402991,-0.0166924 -0.0416005,-0.0131166 -0.0425854,-0.00944096 -0.0432462,-0.00569347 -0.0435779,-0.00190265 -1.55,4.44089e-16 0,-0.2 1.55,-4.44089e-16 0.061009,0.00266371 0.0605447,0.00797086 0.0596196,0.0132173 0.0582408,0.0183632 0.0564187,0.0233694 0.0541672,0.0281977 0.0515035,0.0328114 0.0484478,0.0371753 0.0450234,0.0412564 0.0412564,0.0450234 0.0371753,0.0484478 0.0328114,0.0515035 0.0281977,0.0541672 0.0233694,0.0564187 0.0183632,0.0582408 0.0132173,0.0596196 0.00797086,0.0605447 0.00266371,0.061009 8.88178e-16,6.1 -0.00266371,0.061009 -0.00797086,0.0605447 -0.0132173,0.0596196 -0.0183632,0.0582408 -0.0233694,0.0564187 -0.0281977,0.0541672 -0.0328114,0.0515035 -0.0371753,0.0484478 -0.0412564,0.0450234 -0.0450234,0.0412564 -0.0484478,0.0371753 -0.0515035,0.0328114 -0.0541672,0.0281977 -0.0564187,0.0233694 -0.0582408,0.0183632 -0.0596196,0.0132173 -0.0605447,0.00797086 -0.061009,0.00266371 z "/>
<path fill="rgb(0,91,140)" stroke="rgb(0,91,140)" d="M 0,6.8 l 0,-6.1 0.00266371,-0.061009 0.00797086,-0.0605447 0.0132173,-0.0596196 0.0183632,-0.0582408 0.0233694,-0.0564187 0.0281977,-0.0541672 0.0328114,-0.0515035 0.0371753,-0.0484478 0.0412564,-0.0450234 0.0450234,-0.0412564 0.0484478,-0.0371753 0.0515035,-0.0328114 0.0541672,-0.0281977 0.0564187,-0.0233694 0.0582408,-0.0183632 0.0596196,-0.0132173 0.0605447,-0.00797086 0.061009,-0.00266371 1.55,-8.88178e-16 0,0.2 -1.55,4.44089e-16 -0.0435779,0.00190265 -0.0432462,0.00569347 -0.0425854,0.00944096 -0.0416005,0.0131166 -0.0402991,0.0166924 -0.0386909,0.0201412 -0.0367882,0.0234367 -0.0346056,0.0265538 -0.0321596,0.0294688 -0.0294688,0.0321596 -0.0265538,0.0346056 -0.0234367,0.0367882 -0.0201412,0.0386909 -0.0166924,0.0402991 -0.0131166,0.0416005 -0.00944096,0.0425854 -0.00569347,0.0432462 -0.00190265,0.0435779 0,6.1 0.00190265,0.0435779 0.00569347,0.0432462 0.00944096,0.0425854 0.0131166,0.0416005 0.0166924,0.0402991 0.0201412,0.0386909 0.0234367,0.0367882 0.0265538,0.0346056 0.0294688,0.0321596 0.0321596,0.0294688 0.0346056,0.0265538 0.0367882,0.0234367 0.0386909,0.0201412 0.0402991,0.0166924 0.0416005,0.0131166 0.0425854,0.00944096 0.0432462,0.00569347 0.0435779,0.00190265 1.55,0 4.44089e-16,0.2 -1.55,0 -0.061009,-0.00266371 -0.0605447,-0.00797086 -0.0596196,-0.0132173 -0.0582408,-0.0183632 -0.0564187,-0.0233694 -0.0541672,-0.0281977 -0.0515035,-0.0328114 -0.0484478,-0.0371753 -0.0450234,-0.0412564 -0.0412564,-0.0450234 -0.0371753,-0.0484478 -0.0328114,-0.0515035 -0.0281977,-0.0541672 -0.0233694,-0.0564187 -0.0183632,-0.0582408 -0.0132173,-0.0596196 -0.00797086,-0.0605447 -0.00266371,-0.061009 z "/>
<path fill="rgb(241,240,234)" stroke="rgb(241,240,234)" d="M 4.1,3.75 l 0,-3.05 -0.00114159,-0.0261467 -0.00341608,-0.0259477 -0.00566458,-0.0255513 -0.00786996,-0.0249603 -0.0100155,-0.0241794 -0.0120847,-0.0232145 -0.014062,-0.0220729 -0.0159323,-0.0207634 -0.0176813,-0.0192958 -0.0192958,-0.0176813 -0.0207634,-0.0159323 -0.0220729,-0.014062 -0.0232145,-0.0120847 -0.0241794,-0.0100155 -0.0249603,-0.00786996 -0.0255513,-0.00566458 -0.0259477,-0.00341608 -0.0261467,-0.00114159 -1.39213,4.44089e-16 -0.157873,0 0,-0.2 1.55,-4.44089e-16 0.0435779,0.00190265 0.0432462,0.00569347 0.0425854,0.00944096 0.0416005,0.0131166 0.0402991,0.0166924 0.0386909,0.0201412 0.0367882,0.0234367 0.0346056,0.0265538 0.0321596,0.0294688 0.0294688,0.0321596 0.0265538,0.0346056 0.0234367,0.0367882 0.0201412,0.0386909 0.0166924,0.0402991 0.0131166,0.0416005 0.00944096,0.0425854 0.00569347,0.0432462 0.00190265,0.0435779 0,6.1 -0.00190265,0.0435779 -0.00569347,0.0432462 -0.00944096,0.0425854 -0.0131166,0.0416005 -0.0166924,0.0402991 -0.0201412,0.0386909 -0.0234367,0.0367882 -0.0265538,0.0346056 -0.0294688,0.0321596 -0.0321596,0.0294688 -0.0346056,0.0265538 -0.0367882,0.0234367 -0.0386909,0.0201412 -0.0402991,0.0166924 -0.0416005,0.0131166 -0.0425854,0.00944096 -0.0432462,0.00569347 -0.0435779,0.00190265 -1.55,0 0,-0.2 1.55,0 0.0261467,-0.00114159 0.0259477,-0.00341608 0.0255513,-0.00566458 0.0249603,-0.00786996 0.0241794,-0.0100155 0.0232145,-0.0120847 0.0220729,-0.014062 0.0207634,-0.0159323 0.0192958,-0.0176813 0.0176813,-0.0192958 0.0159323,-0.0207634 0.014062,-0.0220729 0.0120847,-0.0232145 0.0100155,-0.0241794 0.00786996,-0.0249603 0.00566458,-0.0255513 0.00341608,-0.0259477 0.00114159,-0.0261467 0,-3.05 z "/>
<path fill="rgb(241,240,234)" stroke="rgb(241,240,234)" d="M 0.7,0.4 l -0.0261467,0.00114159 -0.0259477,0.00341608 -0.0255513,0.00566458 -0.0249603,0.00786996 -0.0241794,0.0100155 -0.0232145,0.0120847 -0.0220729,0.014062 -0.0207634,0.0159323 -0.0192958,0.0176813 -0.0176813,0.0192958 -0.0159323,0.0207634 -0.014062,0.0220729 -0.0120847,0.0232145 -0.0100155,0.0241794 -0.00786996,0.0249603 -0.00566458,0.0255513 -0.00341608,0.0259477 -0.00114159,0.0261467 0,0.958264 0,2.09174 4.44089e-16,3.05 0.00114159,0.0261467 0.00341608,0.0259477 0.00566458,0.0255513 0.00786996,0.0249603 0.0100155,0.0241794 0.0120847,0.0232145 0.014062,0.0220729 0.0159323,0.0207634 0.0176813,0.0192958 0.0192958,0.0176813 0.0207634,0.0159323 0.0220729,0.014062 0.0232145,0.0120847 0.0241794,0.0100155 0.0249603,0.00786996 0.0255513,0.00566458 0.0259477,0.00341608 0.0261467,0.00114159 1.55,0 0,0.2 -1.55,0 -0.0435779,-0.00190265 -0.0432462,-0.00569347 -0.0425854,-0.00944096 -0.0416005,-0.0131166 -0.0402991,-0.0166924 -0.0386909,-0.0201412 -0.0367882,-0.0234367 -0.0346056,-0.0265538 -0.0321596,-0.0294688 -0.0294688,-0.0321596 -0.0265538,-0.0346056 -0.0234367,-0.0367882 -0.0201412,-0.0386909 -0.0166924,-0.0402991 -0.0131166,-0.0416005 -0.00944096,-0.0425854 -0.00569347,-0.0432462 -0.00190265,-0.0435779 0,-6.1 0.00190265,-0.0435779 0.00569347,-0.0432462 0.00944096,-0.0425854 0.0131166,-0.0416005 0.0166924,-0.0402991 0.0201412,-0.0386909 0.0234367,-0.0367882 0.0265538,-0.0346056 0.0294688,-0.0321596 0.0321596,-0.0294688 0.0346056,-0.0265538 0.0367882,-0.0234367 0.0386909,-0.0201412 0.0402991,-0.0166924 0.0416005,-0.0131166 0.0425854,-0.00944096 0.0432462,-0.00569347 0.0435779,-0.00190265 1.55,-4.44089e-16 0,0.2 -1.55,4.44089e-16 z "/>
<path fill="rgb(241,240,234)" stroke="rgb(241,240,234)" d="M 2.55786,6.76736 l -1.46759,0 0,-3.49881 0.573294,0 0,1.37204 0.894295,0 0.0912546,0.00214717 0.109506,0.0107358 0.10199,0.0193245 0.0944754,0.0268396 0.0880339,0.0354283 0.0794452,0.0429433 0.0837395,0.0601207 0.0794452,0.0697829 0.0708565,0.077298 0.0633414,0.0858867 0.0558264,0.0944754 0.0472377,0.0998433 -1.85945,0.00214717 0,0.872824 0.917914,0 0.938312,0.0246924 -0.0440169,0.090181 -0.0536792,0.0848131 -0.0622679,0.0783716 -0.0719301,0.0730037 -0.0805188,0.0665622 -0.0891074,0.0622679 -0.064415,0.0354283 -0.0891074,0.0407962 -0.0944754,0.0311339 -0.0987697,0.0225453 -0.104138,0.012883 -0.109506,0.00429433 z "/>
<path fill="rgb(241,240,234)" stroke="rgb(241,240,234)" d="M 3.51979,6.16508 l -0.938312,-0.0246924 0.0676358,-0.00322075 0.104138,-0.0193245 0.0891074,-0.038649 0.0740773,-0.0558264 0.0246924,-0.0268396 0.0568999,-0.0869603 0.0354283,-0.0998433 0.0107358,-0.112726 0,-0.0289868 -0.0182509,-0.110579 -0.0429433,-0.0944754 -0.0665622,-0.077298 -0.0450905,-0.0343547 -0.0858867,-0.0461641 -0.0966225,-0.0279132 -0.107358,-0.00966225 -0.917914,0 1.85945,-0.00214717 0.0375754,0.105211 0.0268396,0.107358 0.0161038,0.108432 0.00536792,0.110579 -0.00107358,0.051532 -0.00858867,0.112726 -0.0171773,0.107358 -0.0268396,0.100917 -0.0354283,0.0955489 z "/>
</g></g></svg>
