<?xml version="1.0" encoding="UTF-8" standalone="no"?>
<!DOCTYPE svg PUBLIC "-//W3C//DTD SVG 1.1//EN" "http://www.w3.org/Graphics/SVG/1.1/DTD/svg11-flat.dtd"
[

]>
<svg xmlns="http://www.w3.org/2000/svg"  viewBox="-0.09375 -0.09375 7.6875 7.6875"><g fill="none" stroke="black" stroke-width="0.0125" transform="translate(0,7.5) scale(1, -1)">
<g id="Output" >
<path fill="rgb(241,240,234)" stroke="rgb(241,240,234)" d="M 6.4,3.75 l -0.220675,0 -0.00584523,-0.153408 -0.0156492,-0.15272 -0.025389,-0.151406 -0.510478,0.457534 -0.000266392,0 -3.74338,0 -0.000137332,-0.000123121 -0.510556,-0.457725 -0.0254232,0.151508 -0.01567,0.152825 -0.00585243,0.153515 -0.220673,0 0.0100841,-0.230963 0.0301754,-0.229205 0.0500371,-0.225703 0.069518,-0.220483 0.0884698,-0.213585 0.106748,-0.205062 0.124214,-0.194978 0.140735,-0.18341 0.156185,-0.170446 0.170446,-0.156185 0.18341,-0.140735 0.194978,-0.124214 0.205062,-0.106748 0.213585,-0.0884698 0.220483,-0.069518 0.225703,-0.0500371 0.229205,-0.0301754 0.230963,-0.0100841 0.230963,0.0100841 0.229205,0.0301754 0.225703,0.0500371 0.220483,0.069518 0.213585,0.0884698 0.205062,0.106748 0.194978,0.124214 0.18341,0.140735 0.170446,0.156185 0.156185,0.170446 0.140735,0.18341 0.124214,0.194978 0.106748,0.205062 0.0884698,0.213585 0.069518,0.220483 0.0500371,0.225703 0.0301754,0.229205 0.0100841,0.230963 z "/>
<path fill="rgb(241,240,234)" stroke="rgb(241,240,234)" d="M 6.4,3.75 l -0.0100841,0.230963 -0.0301754,0.229205 -0.0500371,0.225703 -0.069518,0.220483 -0.0884698,0.213585 -0.106748,0.205062 -0.124214,0.194978 -0.140735,0.18341 -0.156185,0.170446 -0.170446,0.156185 -0.18341,0.140735 -0.194978,0.124214 -0.205062,0.106748 -0.213585,0.0884698 -0.220483,0.069518 -0.225703,0.0500371 -0.229205,0.0301754 -0.230963,0.0100841 -0.230963,-0.0100841 -0.229205,-0.0301754 -0.225703,-0.0500371 -0.220483,-0.069518 -0.213585,-0.0884698 -0.205062,-0.106748 -0.194978,-0.124214 -0.18341,-0.140735 -0.170446,-0.156185 -0.156185,-0.170446 -0.140735,-0.18341 -0.124214,-0.194978 -0.106748,-0.205062 -0.0884698,-0.213585 -0.069518,-0.220483 -0.0500371,-0.225703 -0.0301754,-0.229205 -0.0100841,-0.230963 0.220673,0 0.00457108,0.163257 0.0156728,0.162567 0.0267018,0.161124 0.510426,-0.486948 0.000266389,0 3.74338,0 0.000129024,0.000123121 0.510491,0.487138 0.0267368,-0.161226 0.0156936,-0.162672 0.00457741,-0.163363 0.220675,0 z "/>
<path fill="rgb(241,240,234)" stroke="rgb(241,240,234)" d="M 0.2,3.75 l 0.0135088,-0.309403 0.0404237,-0.307048 0.0670308,-0.302357 0.0931279,-0.295364 0.118516,-0.286123 0.143002,-0.274705 0.1664,-0.261196 0.188532,-0.2457 0.209229,-0.228333 0.228333,-0.209229 0.2457,-0.188532 0.261196,-0.1664 0.274705,-0.143002 0.286123,-0.118516 0.295364,-0.0931279 0.302357,-0.0670308 0.307048,-0.0404237 0.309403,-0.0135088 0.309403,0.0135088 0.307048,0.0404237 0.302357,0.0670308 0.295364,0.0931279 0.286123,0.118516 0.274705,0.143002 0.261196,0.1664 0.2457,0.188532 0.228333,0.209229 0.209229,0.228333 0.188532,0.2457 0.1664,0.261196 0.143002,0.274705 0.118516,0.286123 0.0931279,0.295364 0.0670308,0.302357 0.0404237,0.307048 0.0135088,0.309403 -0.2,0 -0.0127478,-0.291972 -0.0381463,-0.28975 -0.0632545,-0.285322 -0.0878812,-0.278724 -0.111839,-0.270004 -0.134946,-0.259229 -0.157026,-0.246481 -0.17791,-0.231857 -0.197441,-0.215469 -0.215469,-0.197441 -0.231857,-0.17791 -0.246481,-0.157026 -0.259229,-0.134946 -0.270004,-0.111839 -0.278724,-0.0878812 -0.285322,-0.0632545 -0.28975,-0.0381463 -0.291972,-0.0127478 -0.291972,0.0127478 -0.28975,0.0381463 -0.285322,0.0632545 -0.278724,0.0878812 -0.270004,0.111839 -0.259229,0.134946 -0.246481,0.157026 -0.231857,0.17791 -0.215469,0.197441 -0.197441,0.215469 -0.17791,0.231857 -0.157026,0.246481 -0.134946,0.259229 -0.111839,0.270004 -0.0878812,0.278724 -0.0632545,0.285322 -0.0381463,0.28975 -0.0127478,0.291972 -0.2,0 z "/>
<path fill="rgb(241,240,234)" stroke="rgb(241,240,234)" d="M 0.2,3.75 l 0.2,0 0.0127478,0.291972 0.0381463,0.28975 0.0632545,0.285322 0.0878812,0.278724 0.111839,0.270004 0.134946,0.259229 0.157026,0.246481 0.17791,0.231857 0.197441,0.215469 0.215469,0.197441 0.231857,0.17791 0.246481,0.157026 0.259229,0.134946 0.270004,0.111839 0.278724,0.0878812 0.285322,0.0632545 0.28975,0.0381463 0.291972,0.0127478 0.291972,-0.0127478 0.28975,-0.0381463 0.285322,-0.0632545 0.278724,-0.0878812 0.270004,-0.111839 0.259229,-0.134946 0.246481,-0.157026 0.231857,-0.17791 0.215469,-0.197441 0.197441,-0.215469 0.17791,-0.231857 0.157026,-0.246481 0.134946,-0.259229 0.111839,-0.270004 0.0878812,-0.278724 0.0632545,-0.285322 0.0381463,-0.28975 0.0127478,-0.291972 0.2,0 -0.0135088,0.309403 -0.0404237,0.307048 -0.0670308,0.302357 -0.0931279,0.295364 -0.118516,0.286123 -0.143002,0.274705 -0.1664,0.261196 -0.188532,0.2457 -0.209229,0.228333 -0.228333,0.209229 -0.2457,0.188532 -0.261196,0.1664 -0.274705,0.143002 -0.286123,0.118516 -0.295364,0.0931279 -0.302357,0.0670308 -0.307048,0.0404237 -0.309403,0.0135088 -0.309403,-0.0135088 -0.307048,-0.0404237 -0.302357,-0.0670308 -0.295364,-0.0931279 -0.286123,-0.118516 -0.274705,-0.143002 -0.261196,-0.1664 -0.2457,-0.188532 -0.228333,-0.209229 -0.209229,-0.228333 -0.188532,-0.2457 -0.1664,-0.261196 -0.143002,-0.274705 -0.118516,-0.286123 -0.0931279,-0.295364 -0.0670308,-0.302357 -0.0404237,-0.307048 -0.0135088,-0.309403 z "/>
<path fill="rgb(42,41,42)" stroke="rgb(42,41,42)" d="M 3.63976,2.95245 l -0.108438,-0.0523492 -0.00186961,-0.00373923 -0.0392619,-0.119655 0.0467404,-0.106568 0.115916,-0.0448707 0.0186961,0 -0.00934807,-0.024305 -0.0803934,-0.106568 0.102829,-0.0523492 0.0616973,0.0654365 0.057958,0.106568 0.0186961,0.127134 -0.00373923,0.0411315 -0.0467404,0.112177 -0.0168265,0.0168265 -0.115916,0.0411315 z "/>
<path fill="rgb(42,41,42)" stroke="rgb(42,41,42)" d="M 5.37476,3.4049 l -0.0186961,-0.00186961 -0.0860023,-0.0205658 -0.0747846,-0.0560884 0.368314,-0.00934807 -0.024305,0.024305 -0.0766542,0.0467404 -0.0878719,0.0168265 z "/>
<path fill="rgb(42,41,42)" stroke="rgb(42,41,42)" d="M 5.7842,3.4049 l -0.0523492,-0.00560884 -0.0841326,-0.0280442 -0.0841326,-0.0542188 0.463664,-0.0560884 -0.0523492,0.072915 -0.0186961,0.0149569 -0.0766542,0.0411315 -0.0953503,0.0149569 z "/>
<path fill="rgb(42,41,42)" stroke="rgb(42,41,42)" d="M 5.19527,3.3862 l -0.179483,0 0,-0.72915 0.179483,0 0,0.43749 0,0.0112177 0.0336531,0.082263 0.00186961,0.00373923 0.0841326,0.0336531 0.430011,0 0.282312,0.0355227 -0.463664,0.0560884 -0.368314,0.00934807 0,0.0598277 z "/>
<path fill="rgb(42,41,42)" stroke="rgb(42,41,42)" d="M 6.02725,3.26094 l -0.282312,-0.0355227 0.0130873,0 0.0785238,-0.0373923 0.00934807,-0.00934807 0.024305,-0.0878719 0,-0.433751 0.179483,0 0,0.501057 0,0.0149569 -0.0224354,0.0878719 z "/>
<path fill="rgb(42,41,42)" stroke="rgb(42,41,42)" d="M 5.74494,3.22541 l -0.430011,0 0.0112177,0 0.082263,-0.0373923 0.00934807,-0.0112177 0.0280442,-0.0860023 0,-0.433751 0.172005,0 0,0.441229 0.00186961,0.00747846 0.0373923,0.082263 0.00560884,0.00373923 0.082263,0.0336531 z "/>
<path fill="rgb(42,41,42)" stroke="rgb(42,41,42)" d="M 5.62183,3.75012 l 0.000137368,-0.000123121 0.510478,-0.457534 0.025389,0.151406 0.0156492,0.15272 0.00584523,0.153408 -0.00457741,0.163363 -0.0156936,0.162672 -0.0267368,0.161226 -0.510491,-0.487138 z "/>
<path fill="rgb(42,41,42)" stroke="rgb(42,41,42)" d="M 1.87817,3.74988 l -0.510556,-0.457725 -0.0254232,0.151508 -0.01567,0.152825 -0.00585243,0.153515 0.00457108,0.163257 0.0156728,0.162567 0.0267018,0.161124 0.510426,-0.486948 0.000129057,-0.000123121 z "/>
<path fill="rgb(187,30,16)" stroke="rgb(187,30,16)" d="M 0.2,3.75 l -0.2,0 0.0142699,-0.326834 0.042701,-0.324347 0.0708072,-0.319391 0.0983745,-0.312004 0.125193,-0.302243 0.151059,-0.290182 0.175775,-0.275912 0.199154,-0.259542 0.221016,-0.241197 0.241197,-0.221016 0.259542,-0.199154 0.275912,-0.175775 0.290182,-0.151059 0.302243,-0.125193 0.312004,-0.0983745 0.319391,-0.0708072 0.324347,-0.042701 0.326834,-0.0142699 0.326834,0.0142699 0.324347,0.042701 0.319391,0.0708072 0.312004,0.0983745 0.302243,0.125193 0.290182,0.151059 0.275912,0.175775 0.259542,0.199154 0.241197,0.221016 0.221016,0.241197 0.199154,0.259542 0.175775,0.275912 0.151059,0.290182 0.125193,0.302243 0.0983745,0.312004 0.0708072,0.319391 0.042701,0.324347 0.0142699,0.326834 -0.2,0 -0.0135088,-0.309403 -0.0404237,-0.307048 -0.0670308,-0.302357 -0.0931279,-0.295364 -0.118516,-0.286123 -0.143002,-0.274705 -0.1664,-0.261196 -0.188532,-0.2457 -0.209229,-0.228333 -0.228333,-0.209229 -0.2457,-0.188532 -0.261196,-0.1664 -0.274705,-0.143002 -0.286123,-0.118516 -0.295364,-0.0931279 -0.302357,-0.0670308 -0.307048,-0.0404237 -0.309403,-0.0135088 -0.309403,0.0135088 -0.307048,0.0404237 -0.302357,0.0670308 -0.295364,0.0931279 -0.286123,0.118516 -0.274705,0.143002 -0.261196,0.1664 -0.2457,0.188532 -0.228333,0.209229 -0.209229,0.228333 -0.188532,0.2457 -0.1664,0.261196 -0.143002,0.274705 -0.118516,0.286123 -0.0931279,0.295364 -0.0670308,0.302357 -0.0404237,0.307048 -0.0135088,0.309403 z "/>
<path fill="rgb(187,30,16)" stroke="rgb(187,30,16)" d="M 0.2,3.75 l 0.0135088,0.309403 0.0404237,0.307048 0.0670308,0.302357 0.0931279,0.295364 0.118516,0.286123 0.143002,0.274705 0.1664,0.261196 0.188532,0.2457 0.209229,0.228333 0.228333,0.209229 0.2457,0.188532 0.261196,0.1664 0.274705,0.143002 0.286123,0.118516 0.295364,0.0931279 0.302357,0.0670308 0.307048,0.0404237 0.309403,0.0135088 0.309403,-0.0135088 0.307048,-0.0404237 0.302357,-0.0670308 0.295364,-0.0931279 0.286123,-0.118516 0.274705,-0.143002 0.261196,-0.1664 0.2457,-0.188532 0.228333,-0.209229 0.209229,-0.228333 0.188532,-0.2457 0.1664,-0.261196 0.143002,-0.274705 0.118516,-0.286123 0.0931279,-0.295364 0.0670308,-0.302357 0.0404237,-0.307048 0.0135088,-0.309403 0.2,0 -0.0142699,0.326834 -0.042701,0.324347 -0.0708072,0.319391 -0.0983745,0.312004 -0.125193,0.302243 -0.151059,0.290182 -0.175775,0.275912 -0.199154,0.259542 -0.221016,0.241197 -0.241197,0.221016 -0.259542,0.199154 -0.275912,0.175775 -0.290182,0.151059 -0.302243,0.125193 -0.312004,0.0983745 -0.319391,0.0708072 -0.324347,0.042701 -0.326834,0.0142699 -0.326834,-0.0142699 -0.324347,-0.042701 -0.319391,-0.0708072 -0.312004,-0.0983745 -0.302243,-0.125193 -0.290182,-0.151059 -0.275912,-0.175775 -0.259542,-0.199154 -0.241197,-0.221016 -0.221016,-0.241197 -0.199154,-0.259542 -0.175775,-0.275912 -0.151059,-0.290182 -0.125193,-0.302243 -0.0983745,-0.312004 -0.0708072,-0.319391 -0.042701,-0.324347 -0.0142699,-0.326834 0.2,0 z "/>
<path fill="rgb(187,30,16)" stroke="rgb(187,30,16)" d="M 6.4,3.75 l -0.0100841,-0.230963 -0.0301754,-0.229205 -0.0500371,-0.225703 -0.069518,-0.220483 -0.0884698,-0.213585 -0.106748,-0.205062 -0.124214,-0.194978 -0.140735,-0.18341 -0.156185,-0.170446 -0.170446,-0.156185 -0.18341,-0.140735 -0.194978,-0.124214 -0.205062,-0.106748 -0.213585,-0.0884698 -0.220483,-0.069518 -0.225703,-0.0500371 -0.229205,-0.0301754 -0.230963,-0.0100841 -0.230963,0.0100841 -0.229205,0.0301754 -0.225703,0.0500371 -0.220483,0.069518 -0.213585,0.0884698 -0.205062,0.106748 -0.194978,0.124214 -0.18341,0.140735 -0.170446,0.156185 -0.156185,0.170446 -0.140735,0.18341 -0.124214,0.194978 -0.106748,0.205062 -0.0884698,0.213585 -0.069518,0.220483 -0.0500371,0.225703 -0.0301754,0.229205 -0.0100841,0.230963 -0.7,0 0.0127478,-0.291972 0.0381463,-0.28975 0.0632545,-0.285322 0.0878812,-0.278724 0.111839,-0.270004 0.134946,-0.259229 0.157026,-0.246481 0.17791,-0.231857 0.197441,-0.215469 0.215469,-0.197441 0.231857,-0.17791 0.246481,-0.157026 0.259229,-0.134946 0.270004,-0.111839 0.278724,-0.0878812 0.285322,-0.0632545 0.28975,-0.0381463 0.291972,-0.0127478 0.291972,0.0127478 0.28975,0.0381463 0.285322,0.0632545 0.278724,0.0878812 0.270004,0.111839 0.259229,0.134946 0.246481,0.157026 0.231857,0.17791 0.215469,0.197441 0.197441,0.215469 0.17791,0.231857 0.157026,0.246481 0.134946,0.259229 0.111839,0.270004 0.0878812,0.278724 0.0632545,0.285322 0.0381463,0.28975 0.0127478,0.291972 -0.7,0 z "/>
<path fill="rgb(187,30,16)" stroke="rgb(187,30,16)" d="M 6.4,3.75 l 0.7,0 -0.0127478,0.291972 -0.0381463,0.28975 -0.0632545,0.285322 -0.0878812,0.278724 -0.111839,0.270004 -0.134946,0.259229 -0.157026,0.246481 -0.17791,0.231857 -0.197441,0.215469 -0.215469,0.197441 -0.231857,0.17791 -0.246481,0.157026 -0.259229,0.134946 -0.270004,0.111839 -0.278724,0.0878812 -0.285322,0.0632545 -0.28975,0.0381463 -0.291972,0.0127478 -0.291972,-0.0127478 -0.28975,-0.0381463 -0.285322,-0.0632545 -0.278724,-0.0878812 -0.270004,-0.111839 -0.259229,-0.134946 -0.246481,-0.157026 -0.231857,-0.17791 -0.215469,-0.197441 -0.197441,-0.215469 -0.17791,-0.231857 -0.157026,-0.246481 -0.134946,-0.259229 -0.111839,-0.270004 -0.0878812,-0.278724 -0.0632545,-0.285322 -0.0381463,-0.28975 -0.0127478,-0.291972 0.7,0 0.0100841,0.230963 0.0301754,0.229205 0.0500371,0.225703 0.069518,0.220483 0.0884698,0.213585 0.106748,0.205062 0.124214,0.194978 0.140735,0.18341 0.156185,0.170446 0.170446,0.156185 0.18341,0.140735 0.194978,0.124214 0.205062,0.106748 0.213585,0.0884698 0.220483,0.069518 0.225703,0.0500371 0.229205,0.0301754 0.230963,0.0100841 0.230963,-0.0100841 0.229205,-0.0301754 0.225703,-0.0500371 0.220483,-0.069518 0.213585,-0.0884698 0.205062,-0.106748 0.194978,-0.124214 0.18341,-0.140735 0.170446,-0.156185 0.156185,-0.170446 0.140735,-0.18341 0.124214,-0.194978 0.106748,-0.205062 0.0884698,-0.213585 0.069518,-0.220483 0.0500371,-0.225703 0.0301754,-0.229205 0.0100841,-0.230963 z "/>
</g></g></svg>
