<?xml version="1.0" encoding="UTF-8" standalone="no"?>
<!DOCTYPE svg PUBLIC "-//W3C//DTD SVG 1.1//EN" "http://www.w3.org/Graphics/SVG/1.1/DTD/svg11-flat.dtd"
[

]>
<svg xmlns="http://www.w3.org/2000/svg"  viewBox="-0.09375 -0.09375 7.6875 7.6875"><g fill="none" stroke="black" stroke-width="0.0125" transform="translate(0,7.5) scale(1, -1)">
<g id="Output" >
<path fill="rgb(241,240,234)" stroke="rgb(241,240,234)" d="M 3.2,2.2 l 1,0 0,0.752553 -0.881004,0 -0.0370534,0.100005 -0.0819427,0 0,-0.852558 z "/>
<path fill="rgb(241,240,234)" stroke="rgb(241,240,234)" d="M 3.2,1.2 l 0.55,0 0.45,0 0,1 -1,0 0,-1 z "/>
<path fill="rgb(241,240,234)" stroke="rgb(241,240,234)" d="M 2.2,6.2 l 1,0 0,0.1 -1,0 0,-0.1 z "/>
<path fill="rgb(241,240,234)" stroke="rgb(241,240,234)" d="M 2.2,5.2 l 1,0 0,1 -1,0 0,-1 z "/>
<path fill="rgb(241,240,234)" stroke="rgb(241,240,234)" d="M 2.63259,4.2 l -0.236073,0.152923 0.652022,0.433455 0.151457,-0.100684 0,0.514306 -1,0 0,-1 0.432594,0 z "/>
<path fill="rgb(241,240,234)" stroke="rgb(241,240,234)" d="M 3.2,3.97148 l 0,0.0551311 -0.0847673,-0.055257 0.0847673,0.000125988 z M 2.2,3.97136 l 0.785561,0 -0.352967,0.228645 -0.432594,0 0,-0.228645 z "/>
<path fill="rgb(241,240,234)" stroke="rgb(241,240,234)" d="M 3.2,3.97148 l 1,0.00148628 0,0.227033 -0.734014,0 -0.265986,-0.173388 0,-0.0551311 z "/>
<path fill="rgb(241,240,234)" stroke="rgb(241,240,234)" d="M 3.46599,4.2 l 0.734014,0 0,1 -1,0 0,-0.514306 0.500579,-0.332771 -0.234593,-0.152923 z "/>
<path fill="rgb(241,240,234)" stroke="rgb(241,240,234)" d="M 3.2,5.2 l 1,0 0,1 -1,0 0,-1 z "/>
<path fill="rgb(241,240,234)" stroke="rgb(241,240,234)" d="M 3.2,6.2 l 1,0 0,0.1 -0.45,0 -0.55,0 0,-0.1 z "/>
<path fill="rgb(241,240,234)" stroke="rgb(241,240,234)" d="M 4.2,1.2 l 1,0 0,1 -1,0 0,-1 z "/>
<path fill="rgb(241,240,234)" stroke="rgb(241,240,234)" d="M 5.2,2.97106 l 0,0.0814933 -0.936294,0 -0.033345,-0.100005 -0.0303611,0 0,-0.752553 1,0 0,0.624231 -0.0106174,-0.00528786 -0.0137797,-0.00541812 -0.0142003,-0.00419391 -0.0145123,-0.00293765 -0.0147134,-0.00165894 -0.0148021,-0.00036755 -0.0147776,0.000926649 -0.0146402,0.00221377 -0.0143909,0.00348396 -0.0140317,0.00472754 -0.0135652,0.00593498 -0.012995,0.00709706 -0.0123255,0.0082049 -0.0115618,0.00925003 -0.0107097,0.0102245 -0.00977578,0.0111208 -0.00876715,0.0119321 -0.00769152,0.0126522 -0.0065571,0.0132756 -0.00537257,0.0137976 -0.225998,0 -0.0053713,-0.0137991 -0.00655607,-0.0132772 -0.00769072,-0.0126538 -0.00876659,-0.0119337 -0.00977545,-0.0111224 -0.0107096,-0.010226 -0.0115619,-0.00925148 -0.0123257,-0.00820624 -0.0129954,-0.00709827 -0.0135658,-0.00593604 -0.0140324,-0.00472844 -0.0143918,-0.00348469 -0.0146411,-0.0022143 -0.0147786,-0.000926992 -0.0148031,0.000367405 -0.0147144,0.00165899 -0.0145133,0.0029379 -0.0142012,0.00419435 -0.0137806,0.00541874 -0.0132546,0.00660171 -0.0126273,0.00773421 -0.0119035,0.0088076 -0.0110887,0.00981366 -0.0101891,0.0107447 -0.00921165,0.0115936 -0.00816379,0.0123539 -0.00705352,0.0130198 -0.00588933,0.0135861 -0.00468013,0.0140486 -0.00343515,0.0144037 -0.00216392,0.0146487 -0.000876141,0.0147817 0.795497,0 z "/>
<path fill="rgb(241,240,234)" stroke="rgb(241,240,234)" d="M 4.2,3.97297 l 1,0.00148628 0,0.225546 -1,0 0,-0.227033 z "/>
<path fill="rgb(241,240,234)" stroke="rgb(241,240,234)" d="M 4.2,4.2 l 1,0 0,1 -1,0 0,-1 z "/>
<path fill="rgb(241,240,234)" stroke="rgb(241,240,234)" d="M 4.2,5.2 l 1,0 0,1 -1,0 0,-1 z "/>
<path fill="rgb(241,240,234)" stroke="rgb(241,240,234)" d="M 4.2,6.3 l 0,-0.1 1,0 0,0.1 -1,0 z "/>
<path fill="rgb(241,240,234)" stroke="rgb(241,240,234)" d="M 5.2,1.2 l 1,0 0,1 -1,0 0,-1 z "/>
<path fill="rgb(241,240,234)" stroke="rgb(241,240,234)" d="M 5.2,3.05256 l 0,-0.0814933 0.0899247,0 -0.00087783,-0.0147806 -0.00216539,-0.0146475 -0.00343641,-0.0144024 -0.00468116,-0.0140472 -0.00589014,-0.0135847 -0.00705409,-0.0130183 -0.00816414,-0.0123525 -0.00921179,-0.0115923 -0.010189,-0.0107434 -0.0110884,-0.00981246 -0.0119031,-0.00880652 -0.0126267,-0.00773327 -0.00263646,-0.00131306 0,-0.624231 1,0 0,1 -0.461817,0 0,-0.247447 -0.281563,0 -0.0407617,0.100005 -0.215858,0 z "/>
<path fill="rgb(241,240,234)" stroke="rgb(241,240,234)" d="M 5.2,3.97445 l 0.39,0.00057965 -8.88178e-16,-0.0777849 0.148183,-0.426038 0,-0.27121 0.461817,0 0,1 -1,0 0,-0.225546 z "/>
<path fill="rgb(241,240,234)" stroke="rgb(241,240,234)" d="M 5.2,4.2 l 1,0 0,1 -1,0 0,-1 z "/>
<path fill="rgb(241,240,234)" stroke="rgb(241,240,234)" d="M 5.2,5.2 l 1,0 0,1 -1,0 0,-1 z "/>
<path fill="rgb(241,240,234)" stroke="rgb(241,240,234)" d="M 5.2,6.3 l 0,-0.1 1,0 0,0.1 -1,-8.88178e-16 z "/>
<path fill="rgb(241,240,234)" stroke="rgb(241,240,234)" d="M 6.2,2.2 l 0,-1 0.1,8.88178e-16 0,1 -0.1,0 z "/>
<path fill="rgb(241,240,234)" stroke="rgb(241,240,234)" d="M 6.3,2.2 l 0,1 -0.1,0 0,-1 0.1,0 z "/>
<path fill="rgb(241,240,234)" stroke="rgb(241,240,234)" d="M 6.3,3.2 l 0,1 -0.1,0 0,-1 0.1,0 z "/>
<path fill="rgb(241,240,234)" stroke="rgb(241,240,234)" d="M 3.04854,4.02692 l 0.496437,0.326003 -0.496437,0.322325 -0.496437,-0.322325 0.496437,-0.326003 z "/>
<path fill="rgb(241,240,234)" stroke="rgb(241,240,234)" d="M 2.2261,3.86761 l -0.22229,0 -0.133365,-0.40011 0.355655,0 0,0.40011 z "/>
<path fill="rgb(241,240,234)" stroke="rgb(241,240,234)" d="M 2.82627,3.86761 l -0.511255,0 0,-0.40011 0.511255,0 0,0.40011 z "/>
<path fill="rgb(241,240,234)" stroke="rgb(241,240,234)" d="M 3.41902,3.86761 l -0.511255,0 0,-0.40011 0.511255,0 0,0.40011 z "/>
<path fill="rgb(241,240,234)" stroke="rgb(241,240,234)" d="M 3.50052,3.86761 l 0,-0.40011 0.511255,0 0,0.40011 -0.511255,0 z "/>
<path fill="rgb(241,240,234)" stroke="rgb(241,240,234)" d="M 4.09327,3.86761 l 0,-0.40011 0.514978,0 0,0.40011 -0.514978,0 z "/>
<path fill="rgb(241,240,234)" stroke="rgb(241,240,234)" d="M 4.68974,3.86761 l 0,-0.40011 0.51124,0 0,0.40011 -0.51124,0 z "/>
<path fill="rgb(241,240,234)" stroke="rgb(241,240,234)" d="M 5.28251,3.86761 l 0,-0.40011 0.374182,0 -0.140797,0.40011 -0.233385,0 z "/>
<path fill="rgb(241,240,234)" stroke="rgb(241,240,234)" d="M 6.3,4.2 l 0,1 -0.1,0 0,-1 0.1,0 z "/>
<path fill="rgb(241,240,234)" stroke="rgb(241,240,234)" d="M 6.3,5.2 l 8.88178e-16,1 -0.1,0 0,-1 0.1,0 z "/>
<path fill="rgb(241,240,234)" stroke="rgb(241,240,234)" d="M 2.2,1.2 l 1,0 0,1 -1,0 0,-1 z "/>
<path fill="rgb(241,240,234)" stroke="rgb(241,240,234)" d="M 6.2,6.2 l 0.1,0 0,0.1 -0.1,0 0,-0.1 z "/>
<path fill="rgb(241,240,234)" stroke="rgb(241,240,234)" d="M 3.14116,2.97106 l -0.00087783,-0.0147806 -0.00216539,-0.0146475 -0.00343641,-0.0144024 -0.00468116,-0.0140472 -0.00589014,-0.0135847 -0.00705409,-0.0130183 -0.00816414,-0.0123525 -0.00921179,-0.0115923 -0.010189,-0.0107434 -0.0110884,-0.00981246 -0.0119031,-0.00880652 -0.0126267,-0.00773327 -0.0132539,-0.00660092 -0.0137797,-0.00541812 -0.0142003,-0.00419391 -0.0145123,-0.00293765 -0.0147134,-0.00165894 -0.0148021,-0.00036755 -0.0147776,0.000926649 -0.0146402,0.00221377 -0.0143909,0.00348396 -0.0140317,0.00472754 -0.0135652,0.00593498 -0.012995,0.00709706 -0.0123255,0.0082049 -0.0115618,0.00925003 -0.0107097,0.0102245 -0.00977578,0.0111208 -0.00876715,0.0119321 -0.00769152,0.0126522 -0.0065571,0.0132756 -0.00537257,0.0137976 -0.225998,0 -0.0053713,-0.0137991 -0.00655607,-0.0132772 -0.00769072,-0.0126538 -0.00876659,-0.0119337 -0.00977545,-0.0111224 -0.0107096,-0.010226 -0.0115619,-0.00925148 -0.0123257,-0.00820624 -0.0129954,-0.00709827 -0.0135658,-0.00593604 -0.0140324,-0.00472844 -0.0143918,-0.00348469 -0.0146411,-0.0022143 -0.0147786,-0.000926992 -0.0148031,0.000367405 -0.0147144,0.00165899 -0.0145133,0.0029379 -0.0142012,0.00419435 -0.0137806,0.00541874 -0.0132546,0.00660171 -0.0126273,0.00773421 -0.0119035,0.0088076 -0.0110887,0.00981366 -0.0101891,0.0107447 -0.00921165,0.0115936 -0.00816379,0.0123539 -0.00705352,0.0130198 -0.00588933,0.0135861 -0.00468013,0.0140486 -0.00343515,0.0144037 -0.00216392,0.0146487 -0.000876141,0.0147817 0.885422,0 z M 2.2,2.2 l 1,0 0,0.852558 -1,0 0,-0.852558 z "/>
<path fill="rgb(241,240,234)" stroke="rgb(241,240,234)" d="M 1.2,6.2 l 1,0 0,0.1 -1,0 0,-0.1 z "/>
<path fill="rgb(241,240,234)" stroke="rgb(241,240,234)" d="M 1.2,5.2 l 1,0 0,1 -1,0 0,-1 z "/>
<path fill="rgb(241,240,234)" stroke="rgb(241,240,234)" d="M 1.78894,3.2 l 0,0.27121 0.14449,0.426038 0,0.0741067 0.266571,0 0,0.228645 -1,0 0,-1 0.588939,0 z "/>
<path fill="rgb(241,240,234)" stroke="rgb(241,240,234)" d="M 1.78894,3.2 l -0.588939,0 0,-1 1,0 0,0.852558 -0.0591141,0 -0.0407466,-0.100005 -0.3112,0 0,0.247447 z "/>
<path fill="rgb(241,240,234)" stroke="rgb(241,240,234)" d="M 1.2,1.2 l 1,0 0,1 -1,0 8.88178e-16,-1 z "/>
<path fill="rgb(241,240,234)" stroke="rgb(241,240,234)" d="M 1.2,4.2 l 1,0 0,1 -1,0 0,-1 z "/>
<path fill="rgb(0,91,140)" stroke="rgb(0,91,140)" d="M 7.1,6.8 l -0.00114159,0.0261467 -0.00341608,0.0259477 -0.00566458,0.0255513 -0.00786996,0.0249603 -0.0100155,0.0241794 -0.0120847,0.0232145 -0.014062,0.0220729 -0.0159323,0.0207634 -0.0176813,0.0192958 -0.0192958,0.0176813 -0.0207634,0.0159323 -0.0220729,0.014062 -0.0232145,0.0120847 -0.0241794,0.0100155 -0.0249603,0.00786996 -0.0255513,0.00566458 -0.0259477,0.00341608 -0.0261467,0.00114159 -3.05,0 -4.44089e-16,-0.8 2.55,8.88178e-16 -8.88178e-16,-5.1 -2.55,-8.88178e-16 0,-0.8 3.05,-8.88178e-16 0.0261467,0.00114159 0.0259477,0.00341608 0.0255513,0.00566458 0.0249603,0.00786996 0.0241794,0.0100155 0.0232145,0.0120847 0.0220729,0.014062 0.0207634,0.0159323 0.0192958,0.0176813 0.0176813,0.0192958 0.0159323,0.0207634 0.014062,0.0220729 0.0120847,0.0232145 0.0100155,0.0241794 0.00786996,0.0249603 0.00566458,0.0255513 0.00341608,0.0259477 0.00114159,0.0261467 0,3.05 -8.88178e-16,3.05 z "/>
<path fill="rgb(0,91,140)" stroke="rgb(0,91,140)" d="M 0.4,3.75 l 4.44089e-16,-3.05 0.00114159,-0.0261467 0.00341608,-0.0259477 0.00566458,-0.0255513 0.00786996,-0.0249603 0.0100155,-0.0241794 0.0120847,-0.0232145 0.014062,-0.0220729 0.0159323,-0.0207634 0.0176813,-0.0192958 0.0192958,-0.0176813 0.0207634,-0.0159323 0.0220729,-0.014062 0.0232145,-0.0120847 0.0241794,-0.0100155 0.0249603,-0.00786996 0.0255513,-0.00566458 0.0259477,-0.00341608 0.0261467,-0.00114159 3.05,8.88178e-16 0,0.8 -2.55,0 -8.88178e-16,5.1 2.55,0 4.44089e-16,0.8 -3.05,-8.88178e-16 -0.0261467,-0.00114159 -0.0259477,-0.00341608 -0.0255513,-0.00566458 -0.0249603,-0.00786996 -0.0241794,-0.0100155 -0.0232145,-0.0120847 -0.0220729,-0.014062 -0.0207634,-0.0159323 -0.0192958,-0.0176813 -0.0176813,-0.0192958 -0.0159323,-0.0207634 -0.014062,-0.0220729 -0.0120847,-0.0232145 -0.0100155,-0.0241794 -0.00786996,-0.0249603 -0.00566458,-0.0255513 -0.00341608,-0.0259477 -0.00114159,-0.0261467 4.44089e-16,-3.05 z "/>
<path fill="rgb(241,240,234)" stroke="rgb(241,240,234)" d="M 0.4,3.75 l -0.2,-4.44089e-16 4.44089e-16,-3.05 0.00190265,-0.0435779 0.00569347,-0.0432462 0.00944096,-0.0425854 0.0131166,-0.0416005 0.0166924,-0.0402991 0.0201412,-0.0386909 0.0234367,-0.0367882 0.0265538,-0.0346056 0.0294688,-0.0321596 0.0321596,-0.0294688 0.0346056,-0.0265538 0.0367882,-0.0234367 0.0386909,-0.0201412 0.0402991,-0.0166924 0.0416005,-0.0131166 0.0425854,-0.00944096 0.0432462,-0.00569347 0.0435779,-0.00190265 6.1,0 0.0435779,0.00190265 0.0432462,0.00569347 0.0425854,0.00944096 0.0416005,0.0131166 0.0402991,0.0166924 0.0386909,0.0201412 0.0367882,0.0234367 0.0346056,0.0265538 0.0321596,0.0294688 0.0294688,0.0321596 0.0265538,0.0346056 0.0234367,0.0367882 0.0201412,0.0386909 0.0166924,0.0402991 0.0131166,0.0416005 0.00944096,0.0425854 0.00569347,0.0432462 0.00190265,0.0435779 0,3.05 -0.2,4.44089e-16 0,-3.05 -0.00114159,-0.0261467 -0.00341608,-0.0259477 -0.00566458,-0.0255513 -0.00786996,-0.0249603 -0.0100155,-0.0241794 -0.0120847,-0.0232145 -0.014062,-0.0220729 -0.0159323,-0.0207634 -0.0176813,-0.0192958 -0.0192958,-0.0176813 -0.0207634,-0.0159323 -0.0220729,-0.014062 -0.0232145,-0.0120847 -0.0241794,-0.0100155 -0.0249603,-0.00786996 -0.0255513,-0.00566458 -0.0259477,-0.00341608 -0.0261467,-0.00114159 -3.05,8.88178e-16 -3.05,-8.88178e-16 -0.0261467,0.00114159 -0.0259477,0.00341608 -0.0255513,0.00566458 -0.0249603,0.00786996 -0.0241794,0.0100155 -0.0232145,0.0120847 -0.0220729,0.014062 -0.0207634,0.0159323 -0.0192958,0.0176813 -0.0176813,0.0192958 -0.0159323,0.0207634 -0.014062,0.0220729 -0.0120847,0.0232145 -0.0100155,0.0241794 -0.00786996,0.0249603 -0.00566458,0.0255513 -0.00341608,0.0259477 -0.00114159,0.0261467 -4.44089e-16,3.05 z "/>
<path fill="rgb(241,240,234)" stroke="rgb(241,240,234)" d="M 7.1,6.8 l 8.88178e-16,-3.05 0.2,-4.44089e-16 -8.88178e-16,3.05 -0.00190265,0.0435779 -0.00569347,0.0432462 -0.00944096,0.0425854 -0.0131166,0.0416005 -0.0166924,0.0402991 -0.0201412,0.0386909 -0.0234367,0.0367882 -0.0265538,0.0346056 -0.0294688,0.0321596 -0.0321596,0.0294688 -0.0346056,0.0265538 -0.0367882,0.0234367 -0.0386909,0.0201412 -0.0402991,0.0166924 -0.0416005,0.0131166 -0.0425854,0.00944096 -0.0432462,0.00569347 -0.0435779,0.00190265 -6.1,-8.88178e-16 -0.0435779,-0.00190265 -0.0432462,-0.00569347 -0.0425854,-0.00944096 -0.0416005,-0.0131166 -0.0402991,-0.0166924 -0.0386909,-0.0201412 -0.0367882,-0.0234367 -0.0346056,-0.0265538 -0.0321596,-0.0294688 -0.0294688,-0.0321596 -0.0265538,-0.0346056 -0.0234367,-0.0367882 -0.0201412,-0.0386909 -0.0166924,-0.0402991 -0.0131166,-0.0416005 -0.00944096,-0.0425854 -0.00569347,-0.0432462 -0.00190265,-0.0435779 4.44089e-16,-3.05 0.2,4.44089e-16 -4.44089e-16,3.05 0.00114159,0.0261467 0.00341608,0.0259477 0.00566458,0.0255513 0.00786996,0.0249603 0.0100155,0.0241794 0.0120847,0.0232145 0.014062,0.0220729 0.0159323,0.0207634 0.0176813,0.0192958 0.0192958,0.0176813 0.0207634,0.0159323 0.0220729,0.014062 0.0232145,0.0120847 0.0241794,0.0100155 0.0249603,0.00786996 0.0255513,0.00566458 0.0259477,0.00341608 0.0261467,0.00114159 3.05,8.88178e-16 3.05,0 0.0261467,-0.00114159 0.0259477,-0.00341608 0.0255513,-0.00566458 0.0249603,-0.00786996 0.0241794,-0.0100155 0.0232145,-0.0120847 0.0220729,-0.014062 0.0207634,-0.0159323 0.0192958,-0.0176813 0.0176813,-0.0192958 0.0159323,-0.0207634 0.014062,-0.0220729 0.0120847,-0.0232145 0.0100155,-0.0241794 0.00786996,-0.0249603 0.00566458,-0.0255513 0.00341608,-0.0259477 0.00114159,-0.0261467 z "/>
<path fill="rgb(0,91,140)" stroke="rgb(0,91,140)" d="M 0.2,3.75 l -0.2,0 4.44089e-16,-3.05 0.00266371,-0.061009 0.00797086,-0.0605447 0.0132173,-0.0596196 0.0183632,-0.0582408 0.0233694,-0.0564187 0.0281977,-0.0541672 0.0328114,-0.0515035 0.0371753,-0.0484478 0.0412564,-0.0450234 0.0450234,-0.0412564 0.0484478,-0.0371753 0.0515035,-0.0328114 0.0541672,-0.0281977 0.0564187,-0.0233694 0.0582408,-0.0183632 0.0596196,-0.0132173 0.0605447,-0.00797086 0.061009,-0.00266371 6.1,-8.88178e-16 0.061009,0.00266371 0.0605447,0.00797086 0.0596196,0.0132173 0.0582408,0.0183632 0.0564187,0.0233694 0.0541672,0.0281977 0.0515035,0.0328114 0.0484478,0.0371753 0.0450234,0.0412564 0.0412564,0.0450234 0.0371753,0.0484478 0.0328114,0.0515035 0.0281977,0.0541672 0.0233694,0.0564187 0.0183632,0.0582408 0.0132173,0.0596196 0.00797086,0.0605447 0.00266371,0.061009 -1.77636e-15,3.05 -0.2,-8.88178e-16 0,-3.05 -0.00190265,-0.0435779 -0.00569347,-0.0432462 -0.00944096,-0.0425854 -0.0131166,-0.0416005 -0.0166924,-0.0402991 -0.0201412,-0.0386909 -0.0234367,-0.0367882 -0.0265538,-0.0346056 -0.0294688,-0.0321596 -0.0321596,-0.0294688 -0.0346056,-0.0265538 -0.0367882,-0.0234367 -0.0386909,-0.0201412 -0.0402991,-0.0166924 -0.0416005,-0.0131166 -0.0425854,-0.00944096 -0.0432462,-0.00569347 -0.0435779,-0.00190265 -6.1,0 -0.0435779,0.00190265 -0.0432462,0.00569347 -0.0425854,0.00944096 -0.0416005,0.0131166 -0.0402991,0.0166924 -0.0386909,0.0201412 -0.0367882,0.0234367 -0.0346056,0.0265538 -0.0321596,0.0294688 -0.0294688,0.0321596 -0.0265538,0.0346056 -0.0234367,0.0367882 -0.0201412,0.0386909 -0.0166924,0.0402991 -0.0131166,0.0416005 -0.00944096,0.0425854 -0.00569347,0.0432462 -0.00190265,0.0435779 -4.44089e-16,3.05 z "/>
<path fill="rgb(0,91,140)" stroke="rgb(0,91,140)" d="M 6.8,7.3 l 0.0435779,-0.00190265 0.0432462,-0.00569347 0.0425854,-0.00944096 0.0416005,-0.0131166 0.0402991,-0.0166924 0.0386909,-0.0201412 0.0367882,-0.0234367 0.0346056,-0.0265538 0.0321596,-0.0294688 0.0294688,-0.0321596 0.0265538,-0.0346056 0.0234367,-0.0367882 0.0201412,-0.0386909 0.0166924,-0.0402991 0.0131166,-0.0416005 0.00944096,-0.0425854 0.00569347,-0.0432462 0.00190265,-0.0435779 8.88178e-16,-3.05 0.2,8.88178e-16 1.77636e-15,3.05 -0.00266371,0.061009 -0.00797086,0.0605447 -0.0132173,0.0596196 -0.0183632,0.0582408 -0.0233694,0.0564187 -0.0281977,0.0541672 -0.0328114,0.0515035 -0.0371753,0.0484478 -0.0412564,0.0450234 -0.0450234,0.0412564 -0.0484478,0.0371753 -0.0515035,0.0328114 -0.0541672,0.0281977 -0.0564187,0.0233694 -0.0582408,0.0183632 -0.0596196,0.0132173 -0.0605447,0.00797086 -0.061009,0.00266371 -6.1,-8.88178e-16 -0.061009,-0.00266371 -0.0605447,-0.00797086 -0.0596196,-0.0132173 -0.0582408,-0.0183632 -0.0564187,-0.0233694 -0.0541672,-0.0281977 -0.0515035,-0.0328114 -0.0484478,-0.0371753 -0.0450234,-0.0412564 -0.0412564,-0.0450234 -0.0371753,-0.0484478 -0.0328114,-0.0515035 -0.0281977,-0.0541672 -0.0233694,-0.0564187 -0.0183632,-0.0582408 -0.0132173,-0.0596196 -0.00797086,-0.0605447 -0.00266371,-0.061009 4.44089e-16,-3.05 0.2,0 -4.44089e-16,3.05 0.00190265,0.0435779 0.00569347,0.0432462 0.00944096,0.0425854 0.0131166,0.0416005 0.0166924,0.0402991 0.0201412,0.0386909 0.0234367,0.0367882 0.0265538,0.0346056 0.0294688,0.0321596 0.0321596,0.0294688 0.0346056,0.0265538 0.0367882,0.0234367 0.0386909,0.0201412 0.0402991,0.0166924 0.0416005,0.0131166 0.0425854,0.00944096 0.0432462,0.00569347 0.0435779,0.00190265 6.1,8.88178e-16 z "/>
<path fill="rgb(42,41,42)" stroke="rgb(42,41,42)" d="M 3.14116,2.97106 l -0.885422,0 0.000876141,-0.0147817 0.00216392,-0.0146487 0.00343515,-0.0144037 0.00468013,-0.0140486 0.00588933,-0.0135861 0.00705352,-0.0130198 0.00816379,-0.0123539 0.00921165,-0.0115936 0.0101891,-0.0107447 0.0110887,-0.00981366 0.0119035,-0.0088076 0.0126273,-0.00773421 0.0132546,-0.00660171 0.0137806,-0.00541874 0.0142012,-0.00419435 0.0145133,-0.0029379 0.0147144,-0.00165899 0.0148031,-0.000367405 0.0147786,0.000926992 0.0146411,0.0022143 0.0143918,0.00348469 0.0140324,0.00472844 0.0135658,0.00593604 0.0129954,0.00709827 0.0123257,0.00820624 0.0115619,0.00925148 0.0107096,0.010226 0.00977545,0.0111224 0.00876659,0.0119337 0.00769072,0.0126538 0.00655607,0.0132772 0.0053713,0.0137991 0.225998,0 0.00537257,-0.0137976 0.0065571,-0.0132756 0.00769152,-0.0126522 0.00876715,-0.0119321 0.00977578,-0.0111208 0.0107097,-0.0102245 0.0115618,-0.00925003 0.0123255,-0.0082049 0.012995,-0.00709706 0.0135652,-0.00593498 0.0140317,-0.00472754 0.0143909,-0.00348396 0.0146402,-0.00221377 0.0147776,-0.000926649 0.0148021,0.00036755 0.0147134,0.00165894 0.0145123,0.00293765 0.0142003,0.00419391 0.0137797,0.00541812 0.0132539,0.00660092 0.0126267,0.00773327 0.0119031,0.00880652 0.0110884,0.00981246 0.010189,0.0107434 0.00921179,0.0115923 0.00816414,0.0123525 0.00705409,0.0130183 0.00589014,0.0135847 0.00468116,0.0140472 0.00343641,0.0144024 0.00216539,0.0146475 0.00087783,0.0147806 z "/>
<path fill="rgb(42,41,42)" stroke="rgb(42,41,42)" d="M 5.28992,2.97106 l -0.885422,0 0.000876141,-0.0147817 0.00216392,-0.0146487 0.00343515,-0.0144037 0.00468013,-0.0140486 0.00588933,-0.0135861 0.00705352,-0.0130198 0.00816379,-0.0123539 0.00921165,-0.0115936 0.0101891,-0.0107447 0.0110887,-0.00981366 0.0119035,-0.0088076 0.0126273,-0.00773421 0.0132546,-0.00660171 0.0137806,-0.00541874 0.0142012,-0.00419435 0.0145133,-0.0029379 0.0147144,-0.00165899 0.0148031,-0.000367405 0.0147786,0.000926992 0.0146411,0.0022143 0.0143918,0.00348469 0.0140324,0.00472844 0.0135658,0.00593604 0.0129954,0.00709827 0.0123257,0.00820624 0.0115619,0.00925148 0.0107096,0.010226 0.00977545,0.0111224 0.00876659,0.0119337 0.00769072,0.0126538 0.00655607,0.0132772 0.0053713,0.0137991 0.225998,0 0.00537257,-0.0137976 0.0065571,-0.0132756 0.00769152,-0.0126522 0.00876715,-0.0119321 0.00977578,-0.0111208 0.0107097,-0.0102245 0.0115618,-0.00925003 0.0123255,-0.0082049 0.012995,-0.00709706 0.0135652,-0.00593498 0.0140317,-0.00472754 0.0143909,-0.00348396 0.0146402,-0.00221377 0.0147776,-0.000926649 0.0148021,0.00036755 0.0147134,0.00165894 0.0145123,0.00293765 0.0142003,0.00419391 0.0137797,0.00541812 0.0132539,0.00660092 0.0126267,0.00773327 0.0119031,0.00880652 0.0110884,0.00981246 0.010189,0.0107434 0.00921179,0.0115923 0.00816414,0.0123525 0.00705409,0.0130183 0.00589014,0.0135847 0.00468116,0.0140472 0.00343641,0.0144024 0.00216539,0.0146475 0.00087783,0.0147806 z "/>
<path fill="rgb(42,41,42)" stroke="rgb(42,41,42)" d="M 5.28251,3.86761 l 0.233385,0 0.140797,-0.40011 -0.374182,0 0,0.40011 z M 5.73818,2.95255 l 0,0.518657 -0.148183,0.426038 8.88178e-16,0.0553049 -0.80106,0 0,-0.0849416 0.412045,0 0,-0.40011 -0.412045,0 0,-0.414943 0.626919,0 0.0407617,-0.100005 0.281563,0 z "/>
<path fill="rgb(42,41,42)" stroke="rgb(42,41,42)" d="M 5.59,3.95255 l 0,0.02248 -0.80106,-0.0011906 0,-0.0212894 0.80106,0 z "/>
<path fill="rgb(42,41,42)" stroke="rgb(42,41,42)" d="M 1.93343,3.95255 l 0.85551,0 0,0.0188018 -0.85551,0 0,-0.0188018 z M 2.78894,4.1974 l -0.236833,0.155525 0.236833,0.15377 0,0.107104 -0.392418,-0.260874 0.392418,-0.254201 0,0.0986754 z "/>
<path fill="rgb(42,41,42)" stroke="rgb(42,41,42)" d="M 2.78894,3.95255 l 1,0 0,0.0198031 -0.673707,-0.00100132 0.585347,0.381568 -0.652037,0.433455 -0.259603,-0.172581 0,-0.107104 0.259603,0.168555 0.496437,-0.322325 -0.496437,-0.326003 -0.259603,0.170478 0,-0.0986754 0.196622,-0.127368 -0.196622,0 0,-0.0188018 z "/>
<path fill="rgb(42,41,42)" stroke="rgb(42,41,42)" d="M 2.2261,3.86761 l 0,-0.40011 -0.355655,0 0.133365,0.40011 0.22229,0 z M 2.78894,3.86761 l 0,0.0849416 -0.85551,0 0,-0.0553049 -0.14449,-0.426038 0,-0.518657 0.3112,0 0.0407466,0.100005 0.648053,0 0,0.414943 -0.473927,0 0,0.40011 0.473927,0 z "/>
<path fill="rgb(42,41,42)" stroke="rgb(42,41,42)" d="M 3.41902,3.86761 l 0,-0.40011 -0.511255,0 0,0.40011 0.511255,0 z M 3.78894,3.86761 l 0,0.0849416 -1,0 0,-0.0849416 0.0373285,0 0,-0.40011 -0.0373285,0 0,-0.414943 0.493003,0 0.0370534,-0.100005 0.469943,0 0,0.514948 -0.288415,0 0,0.40011 0.288415,0 z "/>
<path fill="rgb(42,41,42)" stroke="rgb(42,41,42)" d="M 4.09327,3.86761 l 0.514978,0 0,-0.40011 -0.514978,0 0,0.40011 z M 4.78894,3.86761 l 0,0.0849416 -1,0 0,-0.0849416 0.22284,0 0,-0.40011 -0.22284,0 0,-0.514948 0.441422,0 0.033345,0.100005 0.525233,0 0,0.414943 -0.0991947,0 0,0.40011 0.0991947,0 z "/>
<path fill="rgb(42,41,42)" stroke="rgb(42,41,42)" d="M 3.78894,3.95255 l 1,0 0,0.0212894 -1,-0.00148628 0,-0.0198031 z "/>
</g></g></svg>
