<?xml version="1.0" encoding="UTF-8" standalone="no"?>
<!DOCTYPE svg PUBLIC "-//W3C//DTD SVG 1.1//EN" "http://www.w3.org/Graphics/SVG/1.1/DTD/svg11-flat.dtd"
[

]>
<svg xmlns="http://www.w3.org/2000/svg"  viewBox="-0.0891147 -0.0891147 7.30741 7.30741"><g fill="none" stroke="black" stroke-width="0.0125" transform="translate(0,7.12918) scale(1, -1)">
<g id="Output" >
<path fill="rgb(241,240,234)" stroke="rgb(241,240,234)" d="M 4.59443,2.1 l 0.440325,0 -0.440325,0.88065 0,-0.556878 0.0275469,0 0.0578301,-0.100579 -0.0578301,-0.100599 -0.0275469,0 0,-0.122595 z "/>
<path fill="rgb(241,240,234)" stroke="rgb(241,240,234)" d="M 3.66244,3.1 l -0.0538452,0.0932235 0.0578301,0.100589 0.115681,0 0.110647,-0.19112 0.110626,0.19112 0.115681,0 0.0578301,-0.100589 -0.0539736,-0.0932235 0.411835,0 -0.5,1 -0.440325,0 0,-1 0.0680147,0 z "/>
<path fill="rgb(241,240,234)" stroke="rgb(241,240,234)" d="M 4.59443,2.1 l 0,-1 0.940325,4.44089e-16 -0.5,1 -0.440325,0 z "/>
<path fill="rgb(241,240,234)" stroke="rgb(241,240,234)" d="M 3.59443,1.1 l 0,0.95974 -0.0233505,0.0402598 -0.0253915,0 -0.203627,-0.355169 0.168477,-0.291688 -0.0578403,-0.100579 -0.11567,0 -0.110636,0.193626 -0.110647,-0.193626 -0.11567,0 -0.0603471,0.100579 0.113153,0.193626 -0.221283,0 -0.0603471,0.0980615 0.0603471,0.100579 0.334436,0 0.147668,0.25459 -0.434727,0 -0.0976671,-0.169093 -0.11567,0 -0.0578301,0.100599 0.0396568,0.0684944 -0.0530341,0 0,-1 0.970163,0 0.0298374,0 z "/>
<path fill="rgb(241,240,234)" stroke="rgb(241,240,234)" d="M 2.64746,2.1 l 0.0709796,0.122595 -0.124014,0 0,-0.122595 0.0530341,0 z M 3.3137,2.1 l 0.0711078,0.122595 -0.435025,0 -0.0708097,-0.122595 0.434727,0 z M 3.57108,2.1 l -0.0127692,0.022016 -0.0126223,-0.022016 0.0253915,0 z M 3.45669,3.1 l -0.114632,-0.198465 0.216249,-0.377185 0.0361198,0.0622758 0,0.513374 -0.137737,0 z M 2.59443,2.42377 l 0.124014,0 -0.110636,0.191109 0.0578301,0.100579 0.11567,0 0.168477,-0.291688 0.435025,0 -0.218776,0.377185 -0.334436,4.44089e-16 -0.0578301,0.100579 0.0578301,0.100579 0.221283,0 -0.057957,0.097886 -0.400493,0 0,-0.676228 z "/>
<path fill="rgb(241,240,234)" stroke="rgb(241,240,234)" d="M 2.59443,3.1 l 0.400493,0 -0.0551964,0.0932235 0.0578301,0.100589 0.118187,0 0.110647,-0.19112 0.110636,0.19112 0.11567,0 0.0578403,-0.100589 -0.0538452,-0.0932235 0.137737,0 0,1 -0.5,0 -0.5,-1 z "/>
<path fill="rgb(241,240,234)" stroke="rgb(241,240,234)" d="M 4.24015,2.1 l -0.0708097,0.122595 -0.435015,0 0.0702897,-0.122595 0.435535,0 z M 3.59443,3.1 l 0,-0.513374 0.182646,0.314909 -0.114632,0.198465 -0.0680147,0 z M 4.59443,2.22259 l -0.193746,0 0.0709862,-0.122595 0.12276,0 0,0.122595 z M 4.53475,3.1 l -0.411835,0 -0.056673,-0.097886 0.221293,0 0.0578301,-0.100579 -0.0578301,-0.100579 -0.336953,0 -0.216259,-0.377185 0.435015,4.44089e-16 0.168477,0.291688 0.115681,0 0.0578301,-0.100579 -0.110647,-0.191109 0.193746,0 0,0.556878 -0.0596748,0.11935 z "/>
<path fill="rgb(241,240,234)" stroke="rgb(241,240,234)" d="M 3.09443,4.1 l 0.5,0 0,0.88065 -0.0298374,0.0596748 -0.470163,-0.940325 z "/>
<path fill="rgb(241,240,234)" stroke="rgb(241,240,234)" d="M 3.59443,4.1 l 0.440325,0 -0.440325,0.88065 0,-0.88065 z "/>
<path fill="rgb(241,240,234)" stroke="rgb(241,240,234)" d="M 2.59443,1.1 l 0,1 -0.5,0 -0.5,-1 1,-4.44089e-16 z "/>
<path fill="rgb(241,240,234)" stroke="rgb(241,240,234)" d="M 4.59443,1.1 l 0,1 -0.12276,0 0.0396605,-0.0684944 -0.0578301,-0.100599 -0.115681,0 -0.0976671,0.169093 -0.435535,0 0.14597,-0.25459 0.336953,0 0.0578301,-0.100579 -0.0578301,-0.0980615 -0.221293,0 0.110647,-0.193626 -0.0578301,-0.100579 -0.115681,0 -0.110626,0.193626 -0.110647,-0.193626 -0.115681,0 -0.0578301,0.100579 0.168477,0.291688 -0.182646,0.314909 0,-0.95974 1,0 z "/>
<path fill="rgb(241,240,234)" stroke="rgb(241,240,234)" d="M 2.59443,2.22259 l -0.0972694,0 -0.0578301,0.100599 0.0578301,0.100579 0.0972694,0 0,0.676228 -0.5,-1 0.5,0 0,0.122595 z "/>
<path fill="rgb(241,240,234)" stroke="rgb(241,240,234)" d="M 3.56459,0.2 l 3.26459,0 0.00883388,0.000390951 0.00876481,0.0011698 0.0086272,0.0019395 0.00842214,0.00269403 0.00815123,0.0034275 0.00781658,0.00413417 0.00742081,0.00480851 0.00696702,0.00544526 0.00645876,0.00603943 0.00589999,0.00658638 0.00529509,0.00708183 0.00464879,0.0075219 0.00396614,0.00790316 0.00325248,0.00822263 0.00251339,0.0084778 0.00175464,0.00866669 0.000982177,0.00878781 0.000202033,0.00884022 -0.000579691,0.0088235 -0.00135688,0.0087378 -0.00212346,0.00858377 -0.00287344,0.00836263 -0.00360095,0.0080761 -3.26459,6.52918 -0.00412828,0.00744612 -0.0047467,0.00706797 -0.00533072,0.00663859 -0.00587609,0.00616109 -0.00637887,0.00563892 -0.00683541,0.00507588 -0.0072424,0.00447605 -0.0075969,0.00384377 -0.00789632,0.00318363 -0.00813851,0.00250041 -0.00832171,0.00179907 -0.00844458,0.00108468 -0.00850624,0.000362437 0,-0.323607 3.10279,-6.20557 -3.10279,2.66454e-15 0,-0.2 z "/>
<path fill="rgb(241,240,234)" stroke="rgb(241,240,234)" d="M 3.56459,0.2 l 0,0.2 -3.10279,0 3.10279,6.20557 0,0.323607 -0.00850624,-0.000362437 -0.00844458,-0.00108468 -0.00832171,-0.00179907 -0.00813851,-0.00250041 -0.00789632,-0.00318363 -0.0075969,-0.00384377 -0.0072424,-0.00447605 -0.00683541,-0.00507588 -0.00637887,-0.00563892 -0.00587609,-0.00616109 -0.00533072,-0.00663859 -0.0047467,-0.00706797 -0.00412828,-0.00744612 -3.26459,-6.52918 -0.00360095,-0.0080761 -0.00287344,-0.00836263 -0.00212346,-0.00858377 -0.00135688,-0.0087378 -0.000579691,-0.0088235 0.000202033,-0.00884022 0.000982177,-0.00878781 0.00175464,-0.00866669 0.00251339,-0.0084778 0.00325248,-0.00822263 0.00396614,-0.00790316 0.00464879,-0.0075219 0.00529509,-0.00708183 0.00589999,-0.00658638 0.00645876,-0.00603943 0.00696702,-0.00544526 0.00742081,-0.00480851 0.00781658,-0.00413417 0.00815123,-0.0034275 0.00842214,-0.00269403 0.0086272,-0.0019395 0.00876481,-0.0011698 0.00883388,-0.000390951 3.26459,-8.88178e-16 z "/>
<path stroke="rgb(241,240,234)" d="M 4.6798,2.32319 l -0.0578301,0.100579 -0.221293,0 0.110647,0.191109 -0.0578301,0.100579 -0.115681,0 -0.168477,-0.291688 -0.435015,0 0.216259,0.377185 0.336953,0 0.0578301,0.100579 -0.0578301,0.100579 -0.221293,0 0.110647,0.191109 -0.0578301,0.100589 -0.115681,0 -0.110626,-0.19112 -0.110647,0.19112 -0.115681,0 -0.0578301,-0.100589 0.168477,-0.291688 -0.218766,-0.377185 -0.216249,0.377185 0.168477,0.291688 -0.0578403,0.100589 -0.11567,0 -0.110636,-0.19112 -0.110647,0.19112 -0.118187,0 -0.0578301,-0.100589 0.113153,-0.191109 -0.221283,0 -0.0578301,-0.100579 0.0578301,-0.100579 0.334436,0 0.218776,-0.377185 -0.435025,0 -0.168477,0.291688 -0.11567,0 -0.0578301,-0.100579 0.110636,-0.191109 -0.221283,0 -0.0578301,-0.100579 0.0578301,-0.100599 0.221283,0 -0.110636,-0.191089 0.0578301,-0.100599 0.11567,0 0.168477,0.291688 0.435025,0 -0.218776,-0.377185 -0.334436,0 -0.0603471,-0.100579 0.0603471,-0.0980615 0.221283,0 -0.113153,-0.193626 0.0603471,-0.100579 0.11567,0 0.110647,0.193626 0.110636,-0.193626 0.11567,0 0.0578403,0.100579 -0.168477,0.291688 0.216249,0.377185 0.218766,-0.377185 -0.168477,-0.291688 0.0578301,-0.100579 0.115681,0 0.110647,0.193626 0.110626,-0.193626 0.115681,0 0.0578301,0.100579 -0.110647,0.193626 0.221293,0 0.0578301,0.0980615 -0.0578301,0.100579 -0.336953,0 -0.216259,0.377185 0.435015,0 0.168477,-0.291688 0.115681,0 0.0578301,0.100599 -0.110647,0.191089 0.221293,0 0.0578301,0.100599 "/>
<path fill="rgb(42,41,42)" stroke="rgb(42,41,42)" d="M 4.62197,2.42377 l -0.221293,0 0.110647,0.191109 -0.0578301,0.100579 -0.115681,0 -0.168477,-0.291688 -0.435015,-4.44089e-16 0.216259,0.377185 0.336953,0 0.0578301,0.100579 -0.0578301,0.100579 -0.221293,0 0.110647,0.191109 -0.0578301,0.100589 -0.115681,0 -0.110626,-0.19112 -0.110647,0.19112 -0.115681,0 -0.0578301,-0.100589 0.168477,-0.291688 -0.218766,-0.377185 -0.216249,0.377185 0.168477,0.291688 -0.0578403,0.100589 -0.11567,0 -0.110636,-0.19112 -0.110647,0.19112 -0.118187,0 -0.0578301,-0.100589 0.113153,-0.191109 -0.221283,0 -0.0578301,-0.100579 0.0578301,-0.100579 0.334436,-4.44089e-16 0.218776,-0.377185 -0.435025,0 -0.168477,0.291688 -0.11567,0 -0.0578301,-0.100579 0.110636,-0.191109 -0.221283,0 -0.0578301,-0.100579 0.0578301,-0.100599 0.221283,0 -0.110636,-0.191089 0.0578301,-0.100599 0.11567,0 0.168477,0.291688 0.435025,0 -0.218776,-0.377185 -0.334436,0 -0.0603471,-0.100579 0.0603471,-0.0980615 0.221283,0 -0.113153,-0.193626 0.0603471,-0.100579 0.11567,0 0.110647,0.193626 0.110636,-0.193626 0.11567,0 0.0578403,0.100579 -0.168477,0.291688 0.216249,0.377185 0.218766,-0.377185 -0.168477,-0.291688 0.0578301,-0.100579 0.115681,0 0.110647,0.193626 0.110626,-0.193626 0.115681,0 0.0578301,0.100579 -0.110647,0.193626 0.221293,0 0.0578301,0.0980615 -0.0578301,0.100579 -0.336953,0 -0.216259,0.377185 0.435015,0 0.168477,-0.291688 0.115681,0 0.0578301,0.100599 -0.110647,0.191089 0.221293,0 0.0578301,0.100599 -0.0578301,0.100579 z "/>
<path fill="rgb(187,30,16)" stroke="rgb(187,30,16)" d="M 3.56459,5.04033 l 1.97016,-3.94033 -1.97016,-4.44089e-16 0,-0.7 3.10279,-2.66454e-15 -3.10279,6.20557 0,-1.56525 z "/>
<path fill="rgb(187,30,16)" stroke="rgb(187,30,16)" d="M 3.56459,0.2 l 0,-0.2 3.26459,-1.77636e-15 0.0265016,0.00117285 0.0262944,0.00350939 0.0258816,0.00581849 0.0252664,0.00808209 0.0244537,0.0102825 0.0234497,0.0124025 0.0222624,0.0144255 0.0209011,0.0163358 0.0193763,0.0181183 0.0177,0.0197591 0.0158853,0.0212455 0.0139464,0.0225657 0.0118984,0.0237095 0.00975744,0.0246679 0.00754016,0.0254334 0.00526392,0.0260001 0.00294653,0.0263634 0.000606098,0.0265207 -0.00173907,0.0264705 -0.00407065,0.0262134 -0.00637039,0.0257513 -0.00862033,0.0250879 -0.0108029,0.0242283 -3.26459,6.52918 -0.0123848,0.0223384 -0.0142401,0.0212039 -0.0159921,0.0199158 -0.0176283,0.0184833 -0.0191366,0.0169168 -0.0205062,0.0152277 -0.0217272,0.0134282 -0.0227907,0.0115313 -0.023689,0.00955089 -0.0244155,0.00750124 -0.0249651,0.00539721 -0.0253337,0.00325405 -0.0255187,0.00108731 0,-0.2 0.00850624,-0.000362437 0.00844458,-0.00108468 0.00832171,-0.00179907 0.00813851,-0.00250041 0.00789632,-0.00318363 0.0075969,-0.00384377 0.0072424,-0.00447605 0.00683541,-0.00507588 0.00637887,-0.00563892 0.00587609,-0.00616109 0.00533072,-0.00663859 0.0047467,-0.00706797 0.00412828,-0.00744612 3.26459,-6.52918 0.00360095,-0.0080761 0.00287344,-0.00836263 0.00212346,-0.00858377 0.00135688,-0.0087378 0.000579691,-0.0088235 -0.000202033,-0.00884022 -0.000982177,-0.00878781 -0.00175464,-0.00866669 -0.00251339,-0.0084778 -0.00325248,-0.00822263 -0.00396614,-0.00790316 -0.00464879,-0.0075219 -0.00529509,-0.00708183 -0.00589999,-0.00658638 -0.00645876,-0.00603943 -0.00696702,-0.00544526 -0.00742081,-0.00480851 -0.00781658,-0.00413417 -0.00815123,-0.0034275 -0.00842214,-0.00269403 -0.0086272,-0.0019395 -0.00876481,-0.0011698 -0.00883388,-0.000390951 -3.26459,0 z "/>
<path fill="rgb(187,30,16)" stroke="rgb(187,30,16)" d="M 3.56459,0.2 l -3.26459,8.88178e-16 -0.00883388,0.000390951 -0.00876481,0.0011698 -0.0086272,0.0019395 -0.00842214,0.00269403 -0.00815123,0.0034275 -0.00781658,0.00413417 -0.00742081,0.00480851 -0.00696702,0.00544526 -0.00645876,0.00603943 -0.00589999,0.00658638 -0.00529509,0.00708183 -0.00464879,0.0075219 -0.00396614,0.00790316 -0.00325248,0.00822263 -0.00251339,0.0084778 -0.00175464,0.00866669 -0.000982177,0.00878781 -0.000202033,0.00884022 0.000579691,0.0088235 0.00135688,0.0087378 0.00212346,0.00858377 0.00287344,0.00836263 0.00360095,0.0080761 3.26459,6.52918 0.00412828,0.00744612 0.0047467,0.00706797 0.00533072,0.00663859 0.00587609,0.00616109 0.00637887,0.00563892 0.00683541,0.00507588 0.0072424,0.00447605 0.0075969,0.00384377 0.00789632,0.00318363 0.00813851,0.00250041 0.00832171,0.00179907 0.00844458,0.00108468 0.00850624,0.000362437 0,0.2 -0.0255187,-0.00108731 -0.0253337,-0.00325405 -0.0249651,-0.00539721 -0.0244155,-0.00750124 -0.023689,-0.00955089 -0.0227907,-0.0115313 -0.0217272,-0.0134282 -0.0205062,-0.0152277 -0.0191366,-0.0169168 -0.0176283,-0.0184833 -0.0159921,-0.0199158 -0.0142401,-0.0212039 -0.0123848,-0.0223384 -3.26459,-6.52918 -0.0108029,-0.0242283 -0.00862033,-0.0250879 -0.00637039,-0.0257513 -0.00407065,-0.0262134 -0.00173907,-0.0264705 0.000606098,-0.0265207 0.00294653,-0.0263634 0.00526392,-0.0260001 0.00754016,-0.0254334 0.00975744,-0.0246679 0.0118984,-0.0237095 0.0139464,-0.0225657 0.0158853,-0.0212455 0.0177,-0.0197591 0.0193763,-0.0181183 0.0209011,-0.0163358 0.0222624,-0.0144255 0.0234497,-0.0124025 0.0244537,-0.0102825 0.0252664,-0.00808209 0.0258816,-0.00581849 0.0262944,-0.00350939 0.0265016,-0.00117285 3.26459,0 0,0.2 z "/>
<path fill="rgb(187,30,16)" stroke="rgb(187,30,16)" d="M 3.56459,5.04033 l 0,1.56525 -3.10279,-6.20557 3.10279,0 0,0.7 -1.97016,4.44089e-16 1.97016,3.94033 z "/>
</g></g></svg>
