<?xml version="1.0" encoding="UTF-8" standalone="no"?>
<!DOCTYPE svg PUBLIC "-//W3C//DTD SVG 1.1//EN" "http://www.w3.org/Graphics/SVG/1.1/DTD/svg11-flat.dtd"
[

]>
<svg xmlns="http://www.w3.org/2000/svg"  viewBox="-0.05625 -0.05625 4.6125 7.6125"><g fill="none" stroke="black" stroke-width="0.0125" transform="translate(0,7.5) scale(1, -1)">
<g id="Output" >
<path fill="rgb(241,240,234)" stroke="rgb(241,240,234)" d="M 0.710144,1.86092 l 0.175741,0 0.0134853,0.0128892 0.0331217,0.0266515 0.0352701,0.0237353 0.0371625,0.0206468 0.0387852,0.0174085 0.0401263,0.0140438 0.0411761,0.0105771 0.041927,0.00703363 0.0423735,0.00343912 0.0425125,-0.000180351 0.0423428,-0.00379852 0.0418658,-0.00738911 -0.0442145,-0.125057 0.138835,0 0.0285907,0.0824053 0.037709,-0.0210997 0.0357472,-0.0242755 0.0335187,-0.0272701 0.0100779,-0.00976006 0.0203636,0 0,0.157258 -0.0422538,0.0274978 -0.0477869,0.0256043 0.066349,0.194284 0.0236918,-0.0262256 0,0.487943 -0.213233,-0.608606 -0.0542329,0.0105364 -0.0549411,0.00580561 -0.0552373,0.0010313 -0.0551195,-0.00375074 -0.0545884,-0.00850466 -0.0536481,-0.0131948 -0.0523057,-0.0177861 -0.050571,-0.022244 -0.0484573,-0.0265351 -0.0459803,-0.0306274 -0.0431586,-0.03449 -0.0400134,-0.038094 -0.0365682,-0.0414125 -0.0284624,-0.0384889 z "/>
<path fill="rgb(241,240,234)" stroke="rgb(241,240,234)" d="M 0.885885,1.86092 l -0.175741,0 -0.00438642,-0.00593163 -0.0288832,-0.0470955 -0.024701,-0.0494175 -0.0203337,-0.0513689 -0.0158139,-0.0529353 -0.0111756,-0.0541048 -0.00645351,-0.0548687 -0.00168303,-0.0552213 0.00310007,-0.0551599 0.00785993,-0.054685 0.0125609,-0.0538001 0.0171676,-0.0525119 0.0216457,-0.05083 0.0259615,-0.0487671 0.0300827,-0.0463385 0.0339783,-0.0435626 0.0376192,-0.0404601 0.0409781,-0.0370543 0.0447218,-0.0338318 0.0475344,-0.0297509 0.0499757,-0.0254375 0.0520265,-0.0209255 0.053671,-0.0162499 0.0548962,-0.0114475 0.0556925,-0.00655561 0.0560539,-0.00161252 0.0559773,0.00334316 0.0554635,0.00827273 0.0545164,0.0131377 0.0531434,0.0179 0.0513554,0.0225225 0.0491661,0.026969 0.0347994,0.0233065 0,0.176308 -0.0130948,-0.0139434 -0.0321891,-0.0288275 -0.0348951,-0.0261856 -0.0370333,-0.0230627 -0.0388928,-0.0197661 -0.0404597,-0.0163208 -0.041722,-0.0127527 -0.0426703,-0.00908863 -0.0432974,-0.00535613 -0.0435987,-0.00158332 -0.0435719,0.0022014 -0.0432171,0.00596956 -0.0425371,0.00969279 -0.0415369,0.0133431 -0.0402242,0.0168929 -0.0386086,0.0203157 -0.0367026,0.0235855 -0.0345203,0.0266778 -0.0320782,0.0295693 -0.0293946,0.0322383 -0.0264899,0.0346647 -0.0233857,0.0368302 -0.0201056,0.0387184 -0.0166742,0.0403153 -0.0131172,0.0416088 -0.00946156,0.0425891 -0.00573469,0.0432489 -0.00196466,0.0435832 0.00174066,0.0424772 0.00535016,0.0421749 0.00892082,0.0415664 0.0124267,0.0406561 0.0158424,0.0394508 0.0191431,0.037959 0.0223048,0.0361917 0.0253047,0.0341617 0.0281208,0.0318836 0.0172475,0.016485 z M 1.59666,1.84119 l 0,0.0197214 -0.0203636,0 0.0203636,-0.0197214 z M 1.43065,1.86092 l -0.138835,0 -0.121648,-0.344072 -0.0017088,-0.00560368 -0.00121137,-0.00573182 -0.000704623,-0.0058159 -0.000192463,-0.00585527 0.000321176,-0.00584962 0.000832346,-0.005799 0.00133712,-0.0057038 0.00183161,-0.00556475 0.00231202,-0.00538292 0.00277466,-0.0051597 0.00321596,-0.00489682 0.00363254,-0.00459629 0.0040212,-0.00426042 0.00437894,-0.0038918 0.00470301,-0.00349327 0.00499093,-0.00306787 0.00524048,-0.00261889 0.00544974,-0.00214978 0.0056171,-0.00166414 0.00574128,-0.0011657 0.00582133,-0.000658309 0.00585662,-0.000145852 0.00584688,0.000367726 0.00579219,0.000878477 0.00569298,0.00138247 0.00554999,0.00187584 0.00536434,0.00235479 0.00513745,0.00281564 0.00487106,0.00325484 0.00456723,0.00366901 0.00422828,0.00405498 0.00385683,0.00440977 0.00345572,0.00473067 0.00302805,0.00501519 0.0025771,0.00526116 0.00210633,0.00546668 0.00161938,0.00563017 0.132529,0.38198 z "/>
<path fill="rgb(241,240,234)" stroke="rgb(241,240,234)" d="M 2.11706,1.86092 l -0.178544,0 0.38789,-0.429375 0.270252,0 0,0.132698 -0.128067,0 0.128067,0.280256 0,0.0164209 -0.136362,0 -0.114917,-0.254025 -0.22832,0.254025 z M 1.59666,1.86092 l 0,-0.0197214 0.000598647,-0.000579768 0.0283298,-0.032628 0.0254081,-0.0349513 0.0222968,-0.0370137 0.0190191,-0.0387999 0.0155995,-0.0402966 0.0120635,-0.0414926 0.00843739,-0.0423789 0.00474835,-0.042949 0.00102389,-0.0431986 -0.00270822,-0.0431257 -0.00642012,-0.0427311 -0.0100841,-0.0420175 -0.0136728,-0.0409904 -0.0171595,-0.0396575 -0.0205182,-0.0380285 -0.0237237,-0.0361158 -0.0267522,-0.0339335 -0.0164862,-0.0175546 0,-0.176308 0.0117934,0.00789845 0.0436555,0.035197 0.0403772,0.0389142 0.0367835,0.0423274 0.0329024,0.04541 0.0287644,0.0481378 0.0236731,0.0487725 0.0194447,0.0506071 0.0150758,0.0520758 0.0105979,0.0531682 0.00604333,0.0538762 0.00144513,0.0541949 -0.00316352,0.0541217 -0.0077493,0.0536574 -0.0122791,0.0528053 -0.0167201,0.0515714 -0.0210402,0.0499648 -0.0252083,0.047997 -0.0279757,0.0437756 -0.15642,0 z "/>
<path fill="rgb(241,240,234)" stroke="rgb(241,240,234)" d="M 2.59666,2.78087 l 0,-0.10182 0.00448265,-0.00343966 0.00488172,-0.00311 0.0051342,-0.0026727 0.0053476,-0.00221505 0.00552031,-0.00174055 0.005651,-0.0012528 0.00573869,-0.000755512 0.00578269,-0.000252478 0.189541,0 -0.0616249,-0.132698 -0.170455,0 0,-0.127916 0.108869,0 -0.108869,-0.240656 0,-0.30143 0.00750378,0 0.191411,0.418874 0.127916,-0.246423 -0.0432227,-0.0291342 -0.0406375,-0.0326434 -0.0377682,-0.0359245 -0.0346347,-0.0389543 -0.0268254,-0.0357954 0.181998,0 0.0285552,0.0245716 0.0341599,0.0246688 0.0256303,-0.0492405 0.149446,0 -0.0566084,0.110865 0.0411131,0.0121604 0.0420024,0.00859998 0.042584,0.00497658 0.0428536,0.00131672 0.0428092,-0.00235279 0.0424512,-0.00600506 0.0417822,-0.00961334 0.040807,-0.0131512 0.0395329,-0.0165927 0.0379691,-0.0199126 0.0361272,-0.0230866 0.0340205,-0.0260915 0.0090237,-0.00823734 0,0.163565 -0.0127555,0.00810915 -0.0498529,0.0258472 -0.051931,0.0213673 -0.0536074,0.0167222 -0.0548693,0.0119477 -0.0557068,0.0070809 -0.0561135,0.00215929 -0.0560862,-0.00277901 -0.0556252,-0.00769583 -0.0547339,-0.0125531 -0.0534194,-0.0173133 -0.175311,0.341174 0.104238,0.232193 0.156376,0 0,0.132698 -0.488063,0 -0.00578269,-0.000252478 -0.00573869,-0.000755512 -0.005651,-0.0012528 -0.00552031,-0.00174055 -0.0053476,-0.00221505 -0.0051342,-0.0026727 -0.00488172,-0.00311 -0.00448265,-0.00343966 z "/>
<path fill="rgb(241,240,234)" stroke="rgb(241,240,234)" d="M 2.9224,1.86092 l -0.181998,0 -0.00443377,-0.00591636 -0.027665,-0.0441775 -0.0238773,-0.0463344 -0.0199228,-0.0481672 -0.0158289,-0.0496633 -0.0116243,-0.0508122 -0.00733847,-0.0516057 -0.0330522,0 0,-0.132698 0.0330522,0 0.00888923,-0.0559917 0.0138042,-0.0549867 0.0186112,-0.053551 0.0232723,-0.0516961 0.0277513,-0.0494364 0.0320129,-0.0467895 0.0360239,-0.0437763 0.0397528,-0.0404203 0.0431704,-0.0367478 0.04625,-0.0327876 0.0489675,-0.0285706 0.0513015,-0.0241299 0.0532337,-0.0195002 0.0547492,-0.0147179 0.0558359,-0.00982026 0.0564855,-0.00484578 0.0566927,0.000166657 0.056456,0.00517779 0.0557772,0.0101484 0.0546617,0.0150395 0.0531182,0.0198128 0.0511587,0.0244311 0.0289716,0.01714 0,0.165822 -0.00600617,-0.00560595 -0.035201,-0.0274399 -0.0374962,-0.0242094 -0.0394958,-0.020788 -0.041184,-0.0172028 -0.0425476,-0.0134819 -0.0435757,-0.00965476 -0.0442603,-0.0057515 -0.044596,-0.00180289 -0.0445802,0.00215992 -0.0445862,0.00617986 -0.0438522,0.0101539 -0.0427648,0.0140462 -0.0413326,0.0178252 -0.0395672,0.0214605 -0.0374829,0.0249229 -0.0350965,0.0281843 -0.0324272,0.0312185 -0.0294965,0.0340012 -0.026328,0.0365097 -0.0229473,0.0387239 -0.0193816,0.040626 -0.0156597,0.0422006 -0.0118115,0.0434351 -0.00786817,0.0443194 0.507037,0 0.00552787,0.000237456 0.00548714,0.00071062 0.00540599,0.00117855 0.00528501,0.00163779 0.00512509,0.00208497 0.00492742,0.00251679 0.00469344,0.00293007 0.00442489,0.00332176 0.00412373,0.00368897 0.0037922,0.00402901 0.00343272,0.00433937 0.00304796,0.00461775 0.00264074,0.00486212 0.00221406,0.00507066 0.00177107,0.00524185 0.00131504,0.00537442 0.000849316,0.00546739 0.000377336,0.00552008 -9.74252e-05,0.00553211 -0.000571468,0.00550337 -0.0010413,0.00543409 -0.00150346,0.00532478 -0.00195455,0.00517624 -0.00239123,0.00498956 -0.170841,0.334585 -0.149446,0 0.154424,-0.296677 -0.398055,0 0.0075155,0.0414605 0.0110129,0.0406715 0.0144306,0.039588 0.0177438,0.0382179 0.0209286,0.0365711 0.0239618,0.0346595 0.0268215,0.032497 0.0294871,0.0300992 0.00338396,0.00291188 z M 2.59666,1.84449 l 0.00750378,0.0164209 -0.00750378,0 0,-0.0164209 z "/>
<path fill="rgb(241,240,234)" stroke="rgb(241,240,234)" d="M 2.01368,2.86092 l 0,0.068057 -0.189512,-0.000197366 -0.0190869,-0.000841575 -0.018944,-0.00247874 -0.0186609,-0.00409757 -0.0182397,-0.00568607 -0.0176836,-0.00723251 -0.0169966,-0.00872544 -0.0161839,-0.0101538 -0.0152514,-0.011507 -0.0142061,-0.0127751 -0.00408246,-0.0043617 0.348848,0 z "/>
<path fill="rgb(241,240,234)" stroke="rgb(241,240,234)" d="M 2.4603,1.86092 l 0.136362,0 0,0.30143 -0.136362,-0.30143 z M 1.93852,1.86092 l 0.178544,0 -0.487231,0.542086 0.96683,0 0,0.127916 -0.928921,0 0.0758613,0.20211 0.00343883,0.00805549 0.00413963,0.0077188 0.00480781,0.00732129 0.00543812,0.0068661 0.00602557,0.0063568 0.00656554,0.00579742 0.00705378,0.00519236 0.00748644,0.00454638 0.00786012,0.00386458 0.00817186,0.00315233 0.00841921,0.00241524 0.00860022,0.00165912 0.00871346,0.00088993 0.00875805,0.000113725 0.00873363,-0.000663375 0.165863,0 0,0.0646024 -0.348848,0 -0.00897326,-0.00958702 -0.0118087,-0.0150191 -0.0104743,-0.0159783 -0.00906244,-0.0168194 -0.0075835,-0.0175359 -0.00604845,-0.0181228 -0.0142164,-0.0405763 0,-0.487943 0.341858,-0.378419 z M 2.59666,2.67905 l 0,0.10182 -0.00010944,-8.3976e-05 -0.00426751,-0.00391045 -0.00391045,-0.00426751 -0.00352364,-0.00459209 -0.00311,-0.00488172 -0.0026727,-0.0051342 -0.00221505,-0.0053476 -0.00174055,-0.00552031 -0.0012528,-0.005651 -0.000755512,-0.00573869 -0.000252478,-0.00578269 0.000252478,-0.00578269 0.000755512,-0.00573869 0.0012528,-0.005651 0.00174055,-0.00552031 0.00221505,-0.0053476 0.0026727,-0.0051342 0.00311,-0.00488172 0.00352364,-0.00459209 0.00391045,-0.00426751 0.00426751,-0.00391045 0.00010944,-8.3976e-05 z M 1.59666,1.86092 l 0.15642,0 -0.00121851,0.00190669 -0.032969,0.0430374 -0.0365055,0.0400814 -0.0397782,0.0368357 -0.0427633,0.0333237 -0.00318553,0.00207307 0,-0.157258 z "/>
<path fill="rgb(241,240,234)" stroke="rgb(241,240,234)" d="M 3.61077,1.86092 l 0.175554,0 -0.0311918,0.040846 -0.0378896,0.0414459 -0.0413844,0.0379568 -0.0445591,0.0341741 -0.0346337,0.022018 0,-0.163565 0.0141051,-0.0128759 z "/>
<path fill="rgb(241,240,234)" stroke="rgb(241,240,234)" d="M 3.61077,1.86092 l 0.00853589,-0.00779203 0.0290768,-0.0315072 0.0262759,-0.0338783 0.0232825,-0.0360013 0.0201185,-0.0378604 0.0168071,-0.0394422 0.0133726,-0.040735 0.00984008,-0.0417293 0.00623549,-0.042418 0.00258522,-0.0427958 -0.001084,-0.0428601 -0.00474527,-0.0426104 -0.00878513,-0.0437593 -0.012632,-0.0428076 -0.0163793,-0.0415184 -0.0199974,-0.0399019 -0.0234579,-0.0379708 -0.0267335,-0.0357404 -0.0297984,-0.0332282 -0.0266221,-0.0248482 0,-0.165822 0.0193587,0.0114528 0.0456015,0.03277 0.0425127,0.0366884 0.0390883,0.0403172 0.0353552,0.0436277 0.0313431,0.0465937 0.0270835,0.049192 0.0226101,0.0514018 0.0179582,0.0532059 0.0131646,0.0545899 0.00826698,0.055543 0.00330412,0.0560576 -0.00168482,0.0561296 -0.00666047,0.0557585 -0.0115835,0.0549472 -0.0164151,0.0537021 -0.0211172,0.052033 -0.0256525,0.0499532 -0.0299853,0.047479 -0.00288956,0.00378391 -0.175554,0 z "/>
<path fill="rgb(0,91,140)" stroke="rgb(0,91,140)" d="M 0.604817,1.4 l -0.204817,0 0,-0.7 0.00114159,-0.0261467 0.00341608,-0.0259477 0.00566458,-0.0255513 0.00786996,-0.0249603 0.0100155,-0.0241794 0.0120847,-0.0232145 0.014062,-0.0220729 0.0159323,-0.0207634 0.0176813,-0.0192958 0.0192958,-0.0176813 0.0207634,-0.0159323 0.0220729,-0.014062 0.0232145,-0.0120847 0.0241794,-0.0100155 0.0249603,-0.00786996 0.0255513,-0.00566458 0.0259477,-0.00341608 0.0261467,-0.00114159 0.7,-8.88178e-16 0,0.483769 -0.0463197,-0.0111624 -0.0554635,-0.00827273 -0.0559773,-0.00334316 -0.0560539,0.00161252 -0.0556925,0.00655561 -0.0548962,0.0114475 -0.053671,0.0162499 -0.0520265,0.0209255 -0.0499757,0.0254375 -0.0475344,0.0297509 -0.0447218,0.0338318 -0.0409781,0.0370543 -0.0376192,0.0404601 -0.0339783,0.0435626 -0.0300827,0.0463385 -0.0259615,0.0487671 -0.0216457,0.05083 -0.0171676,0.0525119 -0.0125609,0.0538001 -0.00285638,0.0198731 z "/>
<path fill="rgb(0,91,140)" stroke="rgb(0,91,140)" d="M 0.604817,1.4 l -0.00500355,0.0348119 -0.00310007,0.0551599 0.00168303,0.0552213 0.00645351,0.0548687 0.0111756,0.0541048 0.0158139,0.0529353 0.0203337,0.0513689 0.024701,0.0494175 0.0288832,0.0470955 0.0328488,0.0444205 0.0365682,0.0414125 0.0400134,0.038094 0.0431586,0.03449 0.0459803,0.0306274 0.0484573,0.0265351 0.050571,0.022244 0.0523057,0.0177861 0.0536481,0.0131948 0.0545884,0.00850466 0.0551195,0.00375074 0.0552373,-0.0010313 0.0549411,-0.00580561 0.0542329,-0.0105364 0.0165718,0.0472989 0,0.234031 -1,0 0,-1 0.204817,0 z "/>
<path fill="rgb(0,91,140)" stroke="rgb(0,91,140)" d="M 3.4,6.4 l 0.7,0 0,0.4 -0.00114159,0.0261467 -0.00341608,0.0259477 -0.00566458,0.0255513 -0.00786996,0.0249603 -0.0100155,0.0241794 -0.0120847,0.0232145 -0.014062,0.0220729 -0.0159323,0.0207634 -0.0176813,0.0192958 -0.0192958,0.0176813 -0.0207634,0.0159323 -0.0220729,0.014062 -0.0232145,0.0120847 -0.0241794,0.0100155 -0.0249603,0.00786996 -0.0255513,0.00566458 -0.0259477,0.00341608 -0.0261467,0.00114159 -0.4,0 0,-0.7 z "/>
<path fill="rgb(0,91,140)" stroke="rgb(0,91,140)" d="M 0.4,3.4 l 1,0 0,1 -1,0 0,-1 z "/>
<path fill="rgb(0,91,140)" stroke="rgb(0,91,140)" d="M 0.4,4.4 l 1,0 0,1 -1,0 0,-1 z "/>
<path fill="rgb(0,91,140)" stroke="rgb(0,91,140)" d="M 0.4,5.4 l 1,0 0,1 -1,0 0,-1 z "/>
<path fill="rgb(0,91,140)" stroke="rgb(0,91,140)" d="M 1.45924,1.94332 l -0.161119,-0.464385 -0.00161938,-0.00563017 -0.00210633,-0.00546668 -0.0025771,-0.00526116 -0.00302805,-0.00501519 -0.00345572,-0.00473067 -0.00385683,-0.00440977 -0.00422828,-0.00405498 -0.00456723,-0.00366901 -0.00487106,-0.00325484 -0.00513745,-0.00281564 -0.00536434,-0.00235479 -0.00554999,-0.00187584 -0.00569298,-0.00138247 -0.00579219,-0.000878477 -0.00584688,-0.000367726 -0.00585662,0.000145852 -0.00582133,0.000658309 -0.00574128,0.0011657 -0.0056171,0.00166414 -0.00544974,0.00214978 -0.00524048,0.00261889 -0.00499093,0.00306787 -0.00470301,0.00349327 -0.00437894,0.0038918 -0.0040212,0.00426042 -0.00363254,0.00459629 -0.00321596,0.00489682 -0.00277466,0.0051597 -0.00231202,0.00538292 -0.00183161,0.00556475 -0.00133712,0.0057038 -0.000832346,0.005799 -0.000321176,0.00584962 0.000192463,0.00585527 0.000704623,0.0058159 0.00121137,0.00573182 0.0017088,0.00560368 0.165863,0.469128 -0.0418658,0.00738911 -0.0423428,0.00379852 -0.0425125,0.000180351 -0.0423735,-0.00343912 -0.041927,-0.00703363 -0.0411761,-0.0105771 -0.0401263,-0.0140438 -0.0387852,-0.0174085 -0.0371625,-0.0206468 -0.0352701,-0.0237353 -0.0331217,-0.0266515 -0.0307328,-0.0293742 -0.0281208,-0.0318836 -0.0253047,-0.0341617 -0.0223048,-0.0361917 -0.0191431,-0.037959 -0.0158424,-0.0394508 -0.0124267,-0.0406561 -0.00892082,-0.0415664 -0.00535016,-0.0421749 -0.00174066,-0.0424772 0.00196466,-0.0435832 0.00573469,-0.0432489 0.00946156,-0.0425891 0.0131172,-0.0416088 0.0166742,-0.0403153 0.0201056,-0.0387184 0.0233857,-0.0368302 0.0264899,-0.0346647 0.0293946,-0.0322383 0.0320782,-0.0295693 0.0345203,-0.0266778 0.0367026,-0.0235855 0.0386086,-0.0203157 0.0402242,-0.0168929 0.0415369,-0.0133431 0.0425371,-0.00969279 0.0432171,-0.00596956 0.0435719,-0.0022014 0.0435987,0.00158332 0.0432974,0.00535613 0.0426703,0.00908863 0.041722,0.0127527 0.0404597,0.0163208 0.0388928,0.0197661 0.0370333,0.0230627 0.0348951,0.0261856 0.0321891,0.0288275 0.029581,0.031498 0.0267522,0.0339335 0.0237237,0.0361158 0.0205182,0.0380285 0.0171595,0.0396575 0.0136728,0.0409904 0.0100841,0.0420175 0.00642012,0.0427311 0.00270822,0.0431257 -0.00102389,0.0431986 -0.00474835,0.042949 -0.00843739,0.0423789 -0.0120635,0.0414926 -0.0155995,0.0402966 -0.0190191,0.0387999 -0.0222968,0.0370137 -0.0254081,0.0349513 -0.0283298,0.032628 -0.0310401,0.0300612 -0.0335187,0.0272701 -0.0357472,0.0242755 -0.037709,0.0210997 z "/>
<path fill="rgb(0,91,140)" stroke="rgb(0,91,140)" d="M 2.76712,1.43154 l 0.00786817,-0.0443194 0.0118115,-0.0434351 0.0156597,-0.0422006 0.0193816,-0.040626 0.0229473,-0.0387239 0.026328,-0.0365097 0.0294965,-0.0340012 0.0324272,-0.0312185 0.0350965,-0.0281843 0.0374829,-0.0249229 0.0395672,-0.0214605 0.0413326,-0.0178252 0.0427648,-0.0140462 0.0438522,-0.0101539 0.0445862,-0.00617986 0.0445802,-0.00215992 0.044596,0.00180289 0.0442603,0.0057515 0.0435757,0.00965476 0.0425476,0.0134819 0.041184,0.0172028 0.0394958,0.020788 0.0374962,0.0242094 0.035201,0.0274399 0.0326283,0.0304541 0.0297984,0.0332282 0.0267335,0.0357404 0.0234579,0.0379708 0.0199974,0.0399019 0.0163793,0.0415184 0.012632,0.0428076 0.00878513,0.0437593 0.00474527,0.0426104 0.001084,0.0428601 -0.00258522,0.0427958 -0.00623549,0.042418 -0.00984008,0.0417293 -0.0133726,0.040735 -0.0168071,0.0394422 -0.0201185,0.0378604 -0.0232825,0.0360013 -0.0262759,0.0338783 -0.0290768,0.0315072 -0.0316647,0.0289053 -0.0340205,0.0260915 -0.0361272,0.0230866 -0.0379691,0.0199126 -0.0395329,0.0165927 -0.040807,0.0131512 -0.0417822,0.00961334 -0.0424512,0.00600506 -0.0428092,0.00235279 -0.0428536,-0.00131672 -0.042584,-0.00497658 -0.0420024,-0.00859998 -0.0411131,-0.0121604 0.227449,-0.44545 0.00239123,-0.00498956 0.00195455,-0.00517624 0.00150346,-0.00532478 0.0010413,-0.00543409 0.000571468,-0.00550337 9.74252e-05,-0.00553211 -0.000377336,-0.00552008 -0.000849316,-0.00546739 -0.00131504,-0.00537442 -0.00177107,-0.00524185 -0.00221406,-0.00507066 -0.00264074,-0.00486212 -0.00304796,-0.00461775 -0.00343272,-0.00433937 -0.0037922,-0.00402901 -0.00412373,-0.00368897 -0.00442489,-0.00332176 -0.00469344,-0.00293007 -0.00492742,-0.00251679 -0.00512509,-0.00208497 -0.00528501,-0.00163779 -0.00540599,-0.00117855 -0.00548714,-0.00071062 -0.00552787,-0.000237456 -0.507037,0 z "/>
<path fill="rgb(0,91,140)" stroke="rgb(0,91,140)" d="M 2.4,2.53092 l 0.367116,0 0.0616249,0.132698 -0.189541,0 -0.00578269,0.000252478 -0.00573869,0.000755512 -0.005651,0.0012528 -0.00552031,0.00174055 -0.0053476,0.00221505 -0.0051342,0.0026727 -0.00488172,0.00311 -0.00459209,0.00352364 -0.00426751,0.00391045 -0.00391045,0.00426751 -0.00352364,0.00459209 -0.00311,0.00488172 -0.0026727,0.0051342 -0.00221505,0.0053476 -0.00174055,0.00552031 -0.0012528,0.005651 -0.000755512,0.00573869 -0.000252478,0.00578269 0.000252478,0.00578269 0.000755512,0.00573869 0.0012528,0.005651 0.00174055,0.00552031 0.00221505,0.0053476 0.0026727,0.0051342 0.00311,0.00488172 0.00352364,0.00459209 0.00391045,0.00426751 0.00426751,0.00391045 0.00459209,0.00352364 0.00488172,0.00311 0.0051342,0.0026727 0.0053476,0.00221505 0.00552031,0.00174055 0.005651,0.0012528 0.00573869,0.000755512 0.00578269,0.000252478 0.488063,0 0,-0.132698 -0.156376,0 -0.104238,-0.232193 0.0161464,-0.0314226 0.517205,0 0,1 -1,0 0,-0.869083 z "/>
<path fill="rgb(0,91,140)" stroke="rgb(0,91,140)" d="M 2.4,5.4 l 1,0 0,1 -1,0 0,-1 z "/>
<path fill="rgb(0,91,140)" stroke="rgb(0,91,140)" d="M 2.4,7.1 l 0,-0.7 1,0 0,0.7 -1,0 z "/>
<path fill="rgb(0,91,140)" stroke="rgb(0,91,140)" d="M 1.4,7.1 l 0,-0.7 1,0 0,0.7 -0.15,0 -0.85,0 z "/>
<path fill="rgb(0,91,140)" stroke="rgb(0,91,140)" d="M 1.4,5.4 l 1,0 0,1 -1,0 0,-1 z "/>
<path fill="rgb(0,91,140)" stroke="rgb(0,91,140)" d="M 3.4,0.4 l 0,0.477674 -0.0470264,-0.00855621 -0.056456,-0.00517779 -0.0566927,-0.000166657 -0.0564855,0.00484578 -0.0558359,0.00982026 -0.0547492,0.0147179 -0.0532337,0.0195002 -0.0513015,0.0241299 -0.0489675,0.0285706 -0.04625,0.0327876 -0.0431704,0.0367478 -0.0397528,0.0404203 -0.0360239,0.0437763 -0.0320129,0.0467895 -0.0277513,0.0494364 -0.0232723,0.0516961 -0.0186112,0.053551 -0.0138042,0.0549867 -0.00388181,0.0244508 -0.234721,0 0,-1 1,0 z "/>
<path fill="rgb(0,91,140)" stroke="rgb(0,91,140)" d="M 1.4,4.4 l 1,0 0,1 -1,0 0,-1 z "/>
<path fill="rgb(0,91,140)" stroke="rgb(0,91,140)" d="M 2.4,3.4 l 1,0 0,1 -1,0 0,-1 z "/>
<path fill="rgb(0,91,140)" stroke="rgb(0,91,140)" d="M 4.1,5.4 l 0,1 -0.7,0 0,-1 0.7,0 z "/>
<path fill="rgb(0,91,140)" stroke="rgb(0,91,140)" d="M 4.1,2.4 l 0,1 -0.7,0 0,-1 0.7,0 z "/>
<path fill="rgb(0,91,140)" stroke="rgb(0,91,140)" d="M 2.4,4.4 l 1,0 0,1 -1,0 0,-1 z "/>
<path fill="rgb(0,91,140)" stroke="rgb(0,91,140)" d="M 0.4,2.4 l 1,0 0,1 -1,0 0,-1 z "/>
<path fill="rgb(0,91,140)" stroke="rgb(0,91,140)" d="M 3.8,0.4 l 0.0261467,0.00114159 0.0259477,0.00341608 0.0255513,0.00566458 0.0249603,0.00786996 0.0241794,0.0100155 0.0232145,0.0120847 0.0220729,0.014062 0.0207634,0.0159323 0.0192958,0.0176813 0.0176813,0.0192958 0.0159323,0.0207634 0.014062,0.0220729 0.0120847,0.0232145 0.0100155,0.0241794 0.00786996,0.0249603 0.00566458,0.0255513 0.00341608,0.0259477 0.00114159,0.0261467 0,0.7 -0.205621,0 -0.0036423,-0.0244713 -0.0131646,-0.0545899 -0.0179582,-0.0532059 -0.0226101,-0.0514018 -0.0270835,-0.049192 -0.0313431,-0.0465937 -0.0353552,-0.0436277 -0.0390883,-0.0403172 -0.0425127,-0.0366884 -0.0456015,-0.03277 -0.0483303,-0.0285928 -0.0511587,-0.0244311 -0.0531182,-0.0198128 -0.0546617,-0.0150395 -0.00875081,-0.00159216 0,-0.477674 0.4,0 z "/>
<path fill="rgb(0,91,140)" stroke="rgb(0,91,140)" d="M 4.1,1.4 l 0,1 -0.7,0 0,-0.284389 0.0285143,-0.00620897 0.0536074,-0.0167222 0.051931,-0.0213673 0.0498529,-0.0258472 0.0473892,-0.0301271 0.0445591,-0.0341741 0.0413844,-0.0379568 0.0378896,-0.0414459 0.0340813,-0.0446299 0.0299853,-0.047479 0.0256525,-0.0499532 0.0211172,-0.052033 0.0164151,-0.0537021 0.0115835,-0.0549472 0.00666047,-0.0557585 0.00168482,-0.0561296 -0.00330412,-0.0560576 -0.00462469,-0.0310717 0.205621,0 z "/>
<path fill="rgb(0,91,140)" stroke="rgb(0,91,140)" d="M 2.63472,1.4 l -0.00500742,0.0315409 -0.229713,0 0,-0.0315409 0.234721,0 z M 3.4,2.11561 l 0,0.284389 -0.517205,0 0.159165,-0.309751 0.0534194,0.0173133 0.0547339,0.0125531 0.0556252,0.00769583 0.0560862,0.00277901 0.0561135,-0.00215929 0.0557068,-0.0070809 0.026355,-0.00573878 z "/>
<path fill="rgb(0,91,140)" stroke="rgb(0,91,140)" d="M 1.4,3.4 l 1,0 0,1 -1,0 0,-1 z "/>
<path fill="rgb(0,91,140)" stroke="rgb(0,91,140)" d="M 4.1,4.4 l 0,1 -0.7,0 0,-1 0.7,0 z "/>
<path fill="rgb(0,91,140)" stroke="rgb(0,91,140)" d="M 4.1,3.4 l 0,1 -0.7,0 0,-1 0.7,0 z "/>
<path fill="rgb(0,91,140)" stroke="rgb(0,91,140)" d="M 1.482,2.4 l 0.128882,0.367853 0.00604845,0.0181228 0.0075835,0.0175359 0.00906244,0.0168194 0.0104743,0.0159783 0.0118087,0.0150191 0.0130557,0.0139487 0.0142061,0.0127751 0.0152514,0.011507 0.0161839,0.0101538 0.0169966,0.00872544 0.0176836,0.00723251 0.0182397,0.00568607 0.0186609,0.00409757 0.018944,0.00247874 0.0190869,0.000841575 0.189512,0.000197366 0,-0.132659 -0.165863,0 -0.00873363,0.000663375 -0.00875805,-0.000113725 -0.00871346,-0.00088993 -0.00860022,-0.00165912 -0.00841921,-0.00241524 -0.00817186,-0.00315233 -0.00786012,-0.00386458 -0.00748644,-0.00454638 -0.00705378,-0.00519236 -0.00656554,-0.00579742 -0.00602557,-0.0063568 -0.00543812,-0.0068661 -0.00480781,-0.00732129 -0.00413963,-0.0077188 -0.00343883,-0.00805549 -0.0758613,-0.20211 0.73226,0 0,0.869083 -1,0 0,-1 0.0819956,0 z "/>
<path fill="rgb(0,91,140)" stroke="rgb(0,91,140)" d="M 1.62983,2.403 l 0.715551,-0.796111 0.360147,0.796111 -1.0757,0 z "/>
<path fill="rgb(0,91,140)" stroke="rgb(0,91,140)" d="M 2.4,1.43154 l -0.0735909,0 -0.75344,0.834019 -0.066349,-0.194284 0.0477869,-0.0256043 0.0454394,-0.0295709 0.0427633,-0.0333237 0.0397782,-0.0368357 0.0365055,-0.0400814 0.032969,-0.0430374 0.0291942,-0.0456823 0.0252083,-0.047997 0.0210402,-0.0499648 0.0167201,-0.0515714 0.0122791,-0.0528053 0.0077493,-0.0536574 0.00316352,-0.0541217 -0.00144513,-0.0541949 -0.00592569,-0.0528274 0.540154,0 0,0.0315409 z M 1.4,2.16597 l 0.0819956,0.234031 -0.0819956,0 0,-0.234031 z "/>
<path fill="rgb(0,91,140)" stroke="rgb(0,91,140)" d="M 2.4,0.4 l 0,1 -0.540154,0 -0.000117648,-0.00104883 -0.0105979,-0.0531682 -0.0150758,-0.0520758 -0.0194447,-0.0506071 -0.0236731,-0.0487725 -0.0287644,-0.0481378 -0.0329024,-0.04541 -0.0367835,-0.0423274 -0.0403772,-0.0389142 -0.0436555,-0.035197 -0.0465928,-0.0312049 -0.0491661,-0.026969 -0.0513554,-0.0225225 -0.0531434,-0.0179 -0.00819671,-0.00197529 0,-0.483769 0.85,4.44089e-16 0.15,-4.44089e-16 z "/>
<path fill="rgb(0,91,140)" stroke="rgb(0,91,140)" d="M 0.4,6.8 l -4.44089e-16,-0.4 1,0 0,0.7 -0.7,0 -0.0261467,-0.00114159 -0.0259477,-0.00341608 -0.0255513,-0.00566458 -0.0249603,-0.00786996 -0.0241794,-0.0100155 -0.0232145,-0.0120847 -0.0220729,-0.014062 -0.0207634,-0.0159323 -0.0192958,-0.0176813 -0.0176813,-0.0192958 -0.0159323,-0.0207634 -0.014062,-0.0220729 -0.0120847,-0.0232145 -0.0100155,-0.0241794 -0.00786996,-0.0249603 -0.00566458,-0.0255513 -0.00341608,-0.0259477 -0.00114159,-0.0261467 z "/>
<path fill="rgb(0,91,140)" stroke="rgb(0,91,140)" d="M 2.79558,2.27979 l -0.326982,-0.715551 0.161119,0 0.00733847,0.0516057 0.0116243,0.0508122 0.0158289,0.0496633 0.0199228,0.0481672 0.0238773,0.0463344 0.027665,0.0441775 0.0312591,0.0417117 0.0346347,0.0389543 0.0377682,0.0359245 0.0406375,0.0326434 0.0432227,0.0291342 -0.127916,0.246423 z "/>
<path fill="rgb(0,91,140)" stroke="rgb(0,91,140)" d="M 2.98512,1.91016 l -0.0341599,-0.0246688 -0.0319391,-0.0274835 -0.0294871,-0.0300992 -0.0268215,-0.032497 -0.0239618,-0.0346595 -0.0209286,-0.0365711 -0.0177438,-0.0382179 -0.0144306,-0.039588 -0.0110129,-0.0406715 -0.0075155,-0.0414605 0.398055,0 -0.180054,0.345917 z "/>
<path fill="rgb(0,91,140)" stroke="rgb(0,91,140)" d="M 3.8,7.5 l -1.55,0 -4.44089e-16,-0.2 1.55,0 0.0435779,-0.00190265 0.0432462,-0.00569347 0.0425854,-0.00944096 0.0416005,-0.0131166 0.0402991,-0.0166924 0.0386909,-0.0201412 0.0367882,-0.0234367 0.0346056,-0.0265538 0.0321596,-0.0294688 0.0294688,-0.0321596 0.0265538,-0.0346056 0.0234367,-0.0367882 0.0201412,-0.0386909 0.0166924,-0.0402991 0.0131166,-0.0416005 0.00944096,-0.0425854 0.00569347,-0.0432462 0.00190265,-0.0435779 0,-6.1 -0.00190265,-0.0435779 -0.00569347,-0.0432462 -0.00944096,-0.0425854 -0.0131166,-0.0416005 -0.0166924,-0.0402991 -0.0201412,-0.0386909 -0.0234367,-0.0367882 -0.0265538,-0.0346056 -0.0294688,-0.0321596 -0.0321596,-0.0294688 -0.0346056,-0.0265538 -0.0367882,-0.0234367 -0.0386909,-0.0201412 -0.0402991,-0.0166924 -0.0416005,-0.0131166 -0.0425854,-0.00944096 -0.0432462,-0.00569347 -0.0435779,-0.00190265 -1.55,4.44089e-16 0,-0.2 1.55,-4.44089e-16 0.061009,0.00266371 0.0605447,0.00797086 0.0596196,0.0132173 0.0582408,0.0183632 0.0564187,0.0233694 0.0541672,0.0281977 0.0515035,0.0328114 0.0484478,0.0371753 0.0450234,0.0412564 0.0412564,0.0450234 0.0371753,0.0484478 0.0328114,0.0515035 0.0281977,0.0541672 0.0233694,0.0564187 0.0183632,0.0582408 0.0132173,0.0596196 0.00797086,0.0605447 0.00266371,0.061009 8.88178e-16,6.1 -0.00266371,0.061009 -0.00797086,0.0605447 -0.0132173,0.0596196 -0.0183632,0.0582408 -0.0233694,0.0564187 -0.0281977,0.0541672 -0.0328114,0.0515035 -0.0371753,0.0484478 -0.0412564,0.0450234 -0.0450234,0.0412564 -0.0484478,0.0371753 -0.0515035,0.0328114 -0.0541672,0.0281977 -0.0564187,0.0233694 -0.0582408,0.0183632 -0.0596196,0.0132173 -0.0605447,0.00797086 -0.061009,0.00266371 z "/>
<path fill="rgb(0,91,140)" stroke="rgb(0,91,140)" d="M 0,6.8 l 0,-6.1 0.00266371,-0.061009 0.00797086,-0.0605447 0.0132173,-0.0596196 0.0183632,-0.0582408 0.0233694,-0.0564187 0.0281977,-0.0541672 0.0328114,-0.0515035 0.0371753,-0.0484478 0.0412564,-0.0450234 0.0450234,-0.0412564 0.0484478,-0.0371753 0.0515035,-0.0328114 0.0541672,-0.0281977 0.0564187,-0.0233694 0.0582408,-0.0183632 0.0596196,-0.0132173 0.0605447,-0.00797086 0.061009,-0.00266371 1.55,-8.88178e-16 0,0.2 -1.55,4.44089e-16 -0.0435779,0.00190265 -0.0432462,0.00569347 -0.0425854,0.00944096 -0.0416005,0.0131166 -0.0402991,0.0166924 -0.0386909,0.0201412 -0.0367882,0.0234367 -0.0346056,0.0265538 -0.0321596,0.0294688 -0.0294688,0.0321596 -0.0265538,0.0346056 -0.0234367,0.0367882 -0.0201412,0.0386909 -0.0166924,0.0402991 -0.0131166,0.0416005 -0.00944096,0.0425854 -0.00569347,0.0432462 -0.00190265,0.0435779 0,6.1 0.00190265,0.0435779 0.00569347,0.0432462 0.00944096,0.0425854 0.0131166,0.0416005 0.0166924,0.0402991 0.0201412,0.0386909 0.0234367,0.0367882 0.0265538,0.0346056 0.0294688,0.0321596 0.0321596,0.0294688 0.0346056,0.0265538 0.0367882,0.0234367 0.0386909,0.0201412 0.0402991,0.0166924 0.0416005,0.0131166 0.0425854,0.00944096 0.0432462,0.00569347 0.0435779,0.00190265 1.55,0 4.44089e-16,0.2 -1.55,0 -0.061009,-0.00266371 -0.0605447,-0.00797086 -0.0596196,-0.0132173 -0.0582408,-0.0183632 -0.0564187,-0.0233694 -0.0541672,-0.0281977 -0.0515035,-0.0328114 -0.0484478,-0.0371753 -0.0450234,-0.0412564 -0.0412564,-0.0450234 -0.0371753,-0.0484478 -0.0328114,-0.0515035 -0.0281977,-0.0541672 -0.0233694,-0.0564187 -0.0183632,-0.0582408 -0.0132173,-0.0596196 -0.00797086,-0.0605447 -0.00266371,-0.061009 z "/>
<path fill="rgb(241,240,234)" stroke="rgb(241,240,234)" d="M 2.25,0.4 l 0,-0.2 1.55,-4.44089e-16 0.0435779,0.00190265 0.0432462,0.00569347 0.0425854,0.00944096 0.0416005,0.0131166 0.0402991,0.0166924 0.0386909,0.0201412 0.0367882,0.0234367 0.0346056,0.0265538 0.0321596,0.0294688 0.0294688,0.0321596 0.0265538,0.0346056 0.0234367,0.0367882 0.0201412,0.0386909 0.0166924,0.0402991 0.0131166,0.0416005 0.00944096,0.0425854 0.00569347,0.0432462 0.00190265,0.0435779 0,6.1 -0.00190265,0.0435779 -0.00569347,0.0432462 -0.00944096,0.0425854 -0.0131166,0.0416005 -0.0166924,0.0402991 -0.0201412,0.0386909 -0.0234367,0.0367882 -0.0265538,0.0346056 -0.0294688,0.0321596 -0.0321596,0.0294688 -0.0346056,0.0265538 -0.0367882,0.0234367 -0.0386909,0.0201412 -0.0402991,0.0166924 -0.0416005,0.0131166 -0.0425854,0.00944096 -0.0432462,0.00569347 -0.0435779,0.00190265 -1.55,0 0,-0.2 1.55,0 0.0261467,-0.00114159 0.0259477,-0.00341608 0.0255513,-0.00566458 0.0249603,-0.00786996 0.0241794,-0.0100155 0.0232145,-0.0120847 0.0220729,-0.014062 0.0207634,-0.0159323 0.0192958,-0.0176813 0.0176813,-0.0192958 0.0159323,-0.0207634 0.014062,-0.0220729 0.0120847,-0.0232145 0.0100155,-0.0241794 0.00786996,-0.0249603 0.00566458,-0.0255513 0.00341608,-0.0259477 0.00114159,-0.0261467 0,-6.1 -0.00114159,-0.0261467 -0.00341608,-0.0259477 -0.00566458,-0.0255513 -0.00786996,-0.0249603 -0.0100155,-0.0241794 -0.0120847,-0.0232145 -0.014062,-0.0220729 -0.0159323,-0.0207634 -0.0176813,-0.0192958 -0.0192958,-0.0176813 -0.0207634,-0.0159323 -0.0220729,-0.014062 -0.0232145,-0.0120847 -0.0241794,-0.0100155 -0.0249603,-0.00786996 -0.0255513,-0.00566458 -0.0259477,-0.00341608 -0.0261467,-0.00114159 -1.55,4.44089e-16 z "/>
<path fill="rgb(241,240,234)" stroke="rgb(241,240,234)" d="M 0.7,0.4 l -0.0261467,0.00114159 -0.0259477,0.00341608 -0.0255513,0.00566458 -0.0249603,0.00786996 -0.0241794,0.0100155 -0.0232145,0.0120847 -0.0220729,0.014062 -0.0207634,0.0159323 -0.0192958,0.0176813 -0.0176813,0.0192958 -0.0159323,0.0207634 -0.014062,0.0220729 -0.0120847,0.0232145 -0.0100155,0.0241794 -0.00786996,0.0249603 -0.00566458,0.0255513 -0.00341608,0.0259477 -0.00114159,0.0261467 4.44089e-16,6.1 0.00114159,0.0261467 0.00341608,0.0259477 0.00566458,0.0255513 0.00786996,0.0249603 0.0100155,0.0241794 0.0120847,0.0232145 0.014062,0.0220729 0.0159323,0.0207634 0.0176813,0.0192958 0.0192958,0.0176813 0.0207634,0.0159323 0.0220729,0.014062 0.0232145,0.0120847 0.0241794,0.0100155 0.0249603,0.00786996 0.0255513,0.00566458 0.0259477,0.00341608 0.0261467,0.00114159 1.55,0 0,0.2 -1.55,0 -0.0435779,-0.00190265 -0.0432462,-0.00569347 -0.0425854,-0.00944096 -0.0416005,-0.0131166 -0.0402991,-0.0166924 -0.0386909,-0.0201412 -0.0367882,-0.0234367 -0.0346056,-0.0265538 -0.0321596,-0.0294688 -0.0294688,-0.0321596 -0.0265538,-0.0346056 -0.0234367,-0.0367882 -0.0201412,-0.0386909 -0.0166924,-0.0402991 -0.0131166,-0.0416005 -0.00944096,-0.0425854 -0.00569347,-0.0432462 -0.00190265,-0.0435779 0,-6.1 0.00190265,-0.0435779 0.00569347,-0.0432462 0.00944096,-0.0425854 0.0131166,-0.0416005 0.0166924,-0.0402991 0.0201412,-0.0386909 0.0234367,-0.0367882 0.0265538,-0.0346056 0.0294688,-0.0321596 0.0321596,-0.0294688 0.0346056,-0.0265538 0.0367882,-0.0234367 0.0386909,-0.0201412 0.0402991,-0.0166924 0.0416005,-0.0131166 0.0425854,-0.00944096 0.0432462,-0.00569347 0.0435779,-0.00190265 1.55,-4.44089e-16 0,0.2 -1.55,4.44089e-16 z "/>
<path fill="rgb(241,240,234)" stroke="rgb(241,240,234)" d="M 2.55859,6.76827 l -1.46882,0 0,-3.50027 0.573357,0 0,1.37219 0.895467,0 0.090191,0.00322111 0.109518,0.00966332 0.102002,0.0193266 0.0944858,0.0268425 0.0880436,0.0354322 0.0794539,0.0440218 0.0848225,0.0590536 0.0783802,0.0697906 0.071938,0.0783802 0.0633484,0.0858962 0.0547588,0.0944858 0.0472429,0.0987806 -1.85965,0.00322111 0,0.871846 0.918015,0 0.939489,0.0246951 -0.0450955,0.090191 -0.0536851,0.0848225 -0.0622747,0.0783802 -0.071938,0.0730117 -0.0805276,0.0676432 -0.0891173,0.061201 -0.0644221,0.0365059 -0.0891173,0.039727 -0.0934121,0.0311374 -0.0998543,0.0225477 -0.104149,0.0128844 -0.108444,0.00536851 z "/>
<path fill="rgb(241,240,234)" stroke="rgb(241,240,234)" d="M 3.52063,6.16485 l -0.939489,-0.0246951 0.0687169,-0.00322111 0.103075,-0.0193266 0.0891173,-0.0386533 0.0740854,-0.0558325 0.0246951,-0.0268425 0.0579799,-0.0869699 0.0343585,-0.0998543 0.0118107,-0.112739 -0.0010737,-0.02899 -0.0182529,-0.110591 -0.0429481,-0.0944858 -0.0665695,-0.0773065 -0.0440218,-0.0343585 -0.0858962,-0.0461692 -0.0977069,-0.0279163 -0.10737,-0.00858962 -0.918015,0 1.85965,-0.00322111 0.0375796,0.105223 0.0268425,0.10737 0.0161055,0.108444 0.00536851,0.110591 -0.0010737,0.0515377 -0.00751591,0.112739 -0.0182529,0.10737 -0.0257688,0.100928 -0.0354322,0.0955595 z "/>
</g></g></svg>
