<?xml version="1.0" encoding="UTF-8" standalone="no"?>
<!DOCTYPE svg PUBLIC "-//W3C//DTD SVG 1.1//EN" "http://www.w3.org/Graphics/SVG/1.1/DTD/svg11-flat.dtd"
[

]>
<svg xmlns="http://www.w3.org/2000/svg"  viewBox="-0.125044 -0.125044 10.2536 12.7519"><g fill="none" stroke="black" stroke-width="0.0125" transform="translate(0,12.5018) scale(1, -1)">
<g id="Output" >
<path fill="rgb(241,240,234)" stroke="rgb(241,240,234)" d="M 0.508116,6.25089 l 0,-0.00265976 2.24365,0 0,3.05266 0.00266371,0.061009 0.00797086,0.0605447 0.0132173,0.0596196 0.0183632,0.0582408 0.0233694,0.0564187 0.0281977,0.0541672 0.0328114,0.0515035 0.0371753,0.0484478 0.0412564,0.0450234 0.0450234,0.0412564 0.0484478,0.0371753 0.0515035,0.0328114 0.0541672,0.0281977 0.0564187,0.0233694 0.0582408,0.0183632 0.0596196,0.0132173 0.0605447,0.00797086 0.061009,0.00266371 1.55,0 1.55,0 0.061009,-0.00266371 0.0605447,-0.00797086 0.0596196,-0.0132173 0.0582408,-0.0183632 0.0564187,-0.0233694 0.0541672,-0.0281977 0.0515035,-0.0328114 0.0484478,-0.0371753 0.0450234,-0.0412564 0.0412564,-0.0450234 0.0371753,-0.0484478 0.0328114,-0.0515035 0.0281977,-0.0541672 0.0233694,-0.0564187 0.0183632,-0.0582408 0.0132173,-0.0596196 0.00797086,-0.0605447 0.00266371,-0.061009 -8.88178e-16,-3.05266 2.25953,0 1.77636e-15,0.00265976 -1.77636e-15,5.48553 -0.000998892,0.0228784 -0.00298907,0.0227043 -0.00495651,0.0223574 -0.00688622,0.0218403 -0.00876352,0.021157 -0.0105741,0.0203127 -0.0123043,0.0193138 -0.0139407,0.0181679 -0.0154711,0.0168838 -0.0168838,0.0154711 -0.0181679,0.0139407 -0.0193138,0.0123043 -0.0203127,0.0105741 -0.021157,0.00876352 -0.0218403,0.00688622 -0.0223574,0.00495651 -0.0227043,0.00298907 -0.0228784,0.000998892 -8.47818,-8.88178e-15 -0.0228784,-0.000998892 -0.0227043,-0.00298907 -0.0223574,-0.00495651 -0.0218403,-0.00688622 -0.021157,-0.00876352 -0.0203127,-0.0105741 -0.0193138,-0.0123043 -0.0181679,-0.0139407 -0.0168838,-0.0154711 -0.0154711,-0.0168838 -0.0139407,-0.0181679 -0.0123043,-0.0193138 -0.0105741,-0.0203127 -0.00876352,-0.021157 -0.00688622,-0.0218403 -0.00495651,-0.0223574 -0.00298907,-0.0227043 -0.000998892,-0.0228784 0,-5.48553 z "/>
<path fill="rgb(241,240,234)" stroke="rgb(241,240,234)" d="M 2.75177,6.24823 l -2.24365,0 0,-5.48819 0.000998892,-0.0228784 0.00298907,-0.0227043 0.00495651,-0.0223574 0.00688622,-0.0218403 0.00876352,-0.021157 0.0105741,-0.0203127 0.0123043,-0.0193138 0.0139407,-0.0181679 0.0154711,-0.0168838 0.0168838,-0.0154711 0.0181679,-0.0139407 0.0193138,-0.0123043 0.0203127,-0.0105741 0.021157,-0.00876352 0.0218403,-0.00688622 0.0223574,-0.00495651 0.0227043,-0.00298907 0.0228784,-0.000998892 8.47818,8.88178e-15 0.0228784,0.000998892 0.0227043,0.00298907 0.0223574,0.00495651 0.0218403,0.00688622 0.021157,0.00876352 0.0203127,0.0105741 0.0193138,0.0123043 0.0181679,0.0139407 0.0168838,0.0154711 0.0154711,0.0168838 0.0139407,0.0181679 0.0123043,0.0193138 0.0105741,0.0203127 0.00876352,0.021157 0.00688622,0.0218403 0.00495651,0.0223574 0.00298907,0.0227043 0.000998892,0.0228784 0,5.48819 -2.25953,0 -8.88178e-16,-3.04734 -0.00266371,-0.061009 -0.00797086,-0.0605447 -0.0132173,-0.0596196 -0.0183632,-0.0582408 -0.0233694,-0.0564187 -0.0281977,-0.0541672 -0.0328114,-0.0515035 -0.0371753,-0.0484478 -0.0412564,-0.0450234 -0.0450234,-0.0412564 -0.0484478,-0.0371753 -0.0515035,-0.0328114 -0.0541672,-0.0281977 -0.0564187,-0.0233694 -0.0582408,-0.0183632 -0.0596196,-0.0132173 -0.0605447,-0.00797086 -0.061009,-0.00266371 -1.55,4.44089e-16 -1.55,8.88178e-16 -0.061009,0.00266371 -0.0605447,0.00797086 -0.0596196,0.0132173 -0.0582408,0.0183632 -0.0564187,0.0233694 -0.0541672,0.0281977 -0.0515035,0.0328114 -0.0484478,0.0371753 -0.0450234,0.0412564 -0.0412564,0.0450234 -0.0371753,0.0484478 -0.0328114,0.0515035 -0.0281977,0.0541672 -0.0233694,0.0564187 -0.0183632,0.0582408 -0.0132173,0.0596196 -0.00797086,0.0605447 -0.00266371,0.061009 0,3.04734 z "/>
<path fill="rgb(0,91,140)" stroke="rgb(0,91,140)" d="M 5.00177,2.90089 l 1.55,-4.44089e-16 0.0261467,0.00114159 0.0259477,0.00341608 0.0255513,0.00566458 0.0249603,0.00786996 0.0241794,0.0100155 0.0232145,0.0120847 0.0220729,0.014062 0.0207634,0.0159323 0.0192958,0.0176813 0.0176813,0.0192958 0.0159323,0.0207634 0.014062,0.0220729 0.0120847,0.0232145 0.0100155,0.0241794 0.00786996,0.0249603 0.00566458,0.0255513 0.00341608,0.0259477 0.00114159,0.0261467 1.77636e-15,6.1 -0.00114159,0.0261467 -0.00341608,0.0259477 -0.00566458,0.0255513 -0.00786996,0.0249603 -0.0100155,0.0241794 -0.0120847,0.0232145 -0.014062,0.0220729 -0.0159323,0.0207634 -0.0176813,0.0192958 -0.0192958,0.0176813 -0.0207634,0.0159323 -0.0220729,0.014062 -0.0232145,0.0120847 -0.0241794,0.0100155 -0.0249603,0.00786996 -0.0255513,0.00566458 -0.0259477,0.00341608 -0.0261467,0.00114159 -1.55,0 -1.55,0 -0.0261467,-0.00114159 -0.0259477,-0.00341608 -0.0255513,-0.00566458 -0.0249603,-0.00786996 -0.0241794,-0.0100155 -0.0232145,-0.0120847 -0.0220729,-0.014062 -0.0207634,-0.0159323 -0.0192958,-0.0176813 -0.0176813,-0.0192958 -0.0159323,-0.0207634 -0.014062,-0.0220729 -0.0120847,-0.0232145 -0.0100155,-0.0241794 -0.00786996,-0.0249603 -0.00566458,-0.0255513 -0.00341608,-0.0259477 -0.00114159,-0.0261467 -4.44089e-16,-6.1 0.00114159,-0.0261467 0.00341608,-0.0259477 0.00566458,-0.0255513 0.00786996,-0.0249603 0.0100155,-0.0241794 0.0120847,-0.0232145 0.014062,-0.0220729 0.0159323,-0.0207634 0.0176813,-0.0192958 0.0192958,-0.0176813 0.0207634,-0.0159323 0.0220729,-0.014062 0.0232145,-0.0120847 0.0241794,-0.0100155 0.0249603,-0.00786996 0.0255513,-0.00566458 0.0259477,-0.00341608 0.0261467,-0.00114159 1.55,-4.44089e-16 z "/>
<path fill="rgb(0,91,140)" stroke="rgb(0,91,140)" d="M 6.55177,10.0009 l -1.55,0 -8.88178e-16,-0.2 1.55,0 0.0435779,-0.00190265 0.0432462,-0.00569347 0.0425854,-0.00944096 0.0416005,-0.0131166 0.0402991,-0.0166924 0.0386909,-0.0201412 0.0367882,-0.0234367 0.0346056,-0.0265538 0.0321596,-0.0294688 0.0294688,-0.0321596 0.0265538,-0.0346056 0.0234367,-0.0367882 0.0201412,-0.0386909 0.0166924,-0.0402991 0.0131166,-0.0416005 0.00944096,-0.0425854 0.00569347,-0.0432462 0.00190265,-0.0435779 0,-6.1 -0.00190265,-0.0435779 -0.00569347,-0.0432462 -0.00944096,-0.0425854 -0.0131166,-0.0416005 -0.0166924,-0.0402991 -0.0201412,-0.0386909 -0.0234367,-0.0367882 -0.0265538,-0.0346056 -0.0294688,-0.0321596 -0.0321596,-0.0294688 -0.0346056,-0.0265538 -0.0367882,-0.0234367 -0.0386909,-0.0201412 -0.0402991,-0.0166924 -0.0416005,-0.0131166 -0.0425854,-0.00944096 -0.0432462,-0.00569347 -0.0435779,-0.00190265 -1.55,4.44089e-16 0,-0.2 1.55,-4.44089e-16 0.061009,0.00266371 0.0605447,0.00797086 0.0596196,0.0132173 0.0582408,0.0183632 0.0564187,0.0233694 0.0541672,0.0281977 0.0515035,0.0328114 0.0484478,0.0371753 0.0450234,0.0412564 0.0412564,0.0450234 0.0371753,0.0484478 0.0328114,0.0515035 0.0281977,0.0541672 0.0233694,0.0564187 0.0183632,0.0582408 0.0132173,0.0596196 0.00797086,0.0605447 0.00266371,0.061009 8.88178e-16,3.04734 8.88178e-16,3.05266 -0.00266371,0.061009 -0.00797086,0.0605447 -0.0132173,0.0596196 -0.0183632,0.0582408 -0.0233694,0.0564187 -0.0281977,0.0541672 -0.0328114,0.0515035 -0.0371753,0.0484478 -0.0412564,0.0450234 -0.0450234,0.0412564 -0.0484478,0.0371753 -0.0515035,0.0328114 -0.0541672,0.0281977 -0.0564187,0.0233694 -0.0582408,0.0183632 -0.0596196,0.0132173 -0.0605447,0.00797086 -0.061009,0.00266371 z "/>
<path fill="rgb(0,91,140)" stroke="rgb(0,91,140)" d="M 2.75177,9.30089 l 0,-3.05266 0,-3.04734 0.00266371,-0.061009 0.00797086,-0.0605447 0.0132173,-0.0596196 0.0183632,-0.0582408 0.0233694,-0.0564187 0.0281977,-0.0541672 0.0328114,-0.0515035 0.0371753,-0.0484478 0.0412564,-0.0450234 0.0450234,-0.0412564 0.0484478,-0.0371753 0.0515035,-0.0328114 0.0541672,-0.0281977 0.0564187,-0.0233694 0.0582408,-0.0183632 0.0596196,-0.0132173 0.0605447,-0.00797086 0.061009,-0.00266371 1.55,-8.88178e-16 0,0.2 -1.55,4.44089e-16 -0.0435779,0.00190265 -0.0432462,0.00569347 -0.0425854,0.00944096 -0.0416005,0.0131166 -0.0402991,0.0166924 -0.0386909,0.0201412 -0.0367882,0.0234367 -0.0346056,0.0265538 -0.0321596,0.0294688 -0.0294688,0.0321596 -0.0265538,0.0346056 -0.0234367,0.0367882 -0.0201412,0.0386909 -0.0166924,0.0402991 -0.0131166,0.0416005 -0.00944096,0.0425854 -0.00569347,0.0432462 -0.00190265,0.0435779 0,6.1 0.00190265,0.0435779 0.00569347,0.0432462 0.00944096,0.0425854 0.0131166,0.0416005 0.0166924,0.0402991 0.0201412,0.0386909 0.0234367,0.0367882 0.0265538,0.0346056 0.0294688,0.0321596 0.0321596,0.0294688 0.0346056,0.0265538 0.0367882,0.0234367 0.0386909,0.0201412 0.0402991,0.0166924 0.0416005,0.0131166 0.0425854,0.00944096 0.0432462,0.00569347 0.0435779,0.00190265 1.55,0 8.88178e-16,0.2 -1.55,0 -0.061009,-0.00266371 -0.0605447,-0.00797086 -0.0596196,-0.0132173 -0.0582408,-0.0183632 -0.0564187,-0.0233694 -0.0541672,-0.0281977 -0.0515035,-0.0328114 -0.0484478,-0.0371753 -0.0450234,-0.0412564 -0.0412564,-0.0450234 -0.0371753,-0.0484478 -0.0328114,-0.0515035 -0.0281977,-0.0541672 -0.0233694,-0.0564187 -0.0183632,-0.0582408 -0.0132173,-0.0596196 -0.00797086,-0.0605447 -0.00266371,-0.061009 z "/>
<path fill="rgb(241,240,234)" stroke="rgb(241,240,234)" d="M 5.00177,2.90089 l 0,-0.2 1.55,-4.44089e-16 0.0435779,0.00190265 0.0432462,0.00569347 0.0425854,0.00944096 0.0416005,0.0131166 0.0402991,0.0166924 0.0386909,0.0201412 0.0367882,0.0234367 0.0346056,0.0265538 0.0321596,0.0294688 0.0294688,0.0321596 0.0265538,0.0346056 0.0234367,0.0367882 0.0201412,0.0386909 0.0166924,0.0402991 0.0131166,0.0416005 0.00944096,0.0425854 0.00569347,0.0432462 0.00190265,0.0435779 0,6.1 -0.00190265,0.0435779 -0.00569347,0.0432462 -0.00944096,0.0425854 -0.0131166,0.0416005 -0.0166924,0.0402991 -0.0201412,0.0386909 -0.0234367,0.0367882 -0.0265538,0.0346056 -0.0294688,0.0321596 -0.0321596,0.0294688 -0.0346056,0.0265538 -0.0367882,0.0234367 -0.0386909,0.0201412 -0.0402991,0.0166924 -0.0416005,0.0131166 -0.0425854,0.00944096 -0.0432462,0.00569347 -0.0435779,0.00190265 -1.55,0 0,-0.2 1.55,0 0.0261467,-0.00114159 0.0259477,-0.00341608 0.0255513,-0.00566458 0.0249603,-0.00786996 0.0241794,-0.0100155 0.0232145,-0.0120847 0.0220729,-0.014062 0.0207634,-0.0159323 0.0192958,-0.0176813 0.0176813,-0.0192958 0.0159323,-0.0207634 0.014062,-0.0220729 0.0120847,-0.0232145 0.0100155,-0.0241794 0.00786996,-0.0249603 0.00566458,-0.0255513 0.00341608,-0.0259477 0.00114159,-0.0261467 -1.77636e-15,-6.1 -0.00114159,-0.0261467 -0.00341608,-0.0259477 -0.00566458,-0.0255513 -0.00786996,-0.0249603 -0.0100155,-0.0241794 -0.0120847,-0.0232145 -0.014062,-0.0220729 -0.0159323,-0.0207634 -0.0176813,-0.0192958 -0.0192958,-0.0176813 -0.0207634,-0.0159323 -0.0220729,-0.014062 -0.0232145,-0.0120847 -0.0241794,-0.0100155 -0.0249603,-0.00786996 -0.0255513,-0.00566458 -0.0259477,-0.00341608 -0.0261467,-0.00114159 -1.55,4.44089e-16 z "/>
<path fill="rgb(241,240,234)" stroke="rgb(241,240,234)" d="M 5.00177,2.90089 l -1.55,4.44089e-16 -0.0261467,0.00114159 -0.0259477,0.00341608 -0.0255513,0.00566458 -0.0249603,0.00786996 -0.0241794,0.0100155 -0.0232145,0.0120847 -0.0220729,0.014062 -0.0207634,0.0159323 -0.0192958,0.0176813 -0.0176813,0.0192958 -0.0159323,0.0207634 -0.014062,0.0220729 -0.0120847,0.0232145 -0.0100155,0.0241794 -0.00786996,0.0249603 -0.00566458,0.0255513 -0.00341608,0.0259477 -0.00114159,0.0261467 4.44089e-16,6.1 0.00114159,0.0261467 0.00341608,0.0259477 0.00566458,0.0255513 0.00786996,0.0249603 0.0100155,0.0241794 0.0120847,0.0232145 0.014062,0.0220729 0.0159323,0.0207634 0.0176813,0.0192958 0.0192958,0.0176813 0.0207634,0.0159323 0.0220729,0.014062 0.0232145,0.0120847 0.0241794,0.0100155 0.0249603,0.00786996 0.0255513,0.00566458 0.0259477,0.00341608 0.0261467,0.00114159 1.55,0 0,0.2 -1.55,0 -0.0435779,-0.00190265 -0.0432462,-0.00569347 -0.0425854,-0.00944096 -0.0416005,-0.0131166 -0.0402991,-0.0166924 -0.0386909,-0.0201412 -0.0367882,-0.0234367 -0.0346056,-0.0265538 -0.0321596,-0.0294688 -0.0294688,-0.0321596 -0.0265538,-0.0346056 -0.0234367,-0.0367882 -0.0201412,-0.0386909 -0.0166924,-0.0402991 -0.0131166,-0.0416005 -0.00944096,-0.0425854 -0.00569347,-0.0432462 -0.00190265,-0.0435779 0,-6.1 0.00190265,-0.0435779 0.00569347,-0.0432462 0.00944096,-0.0425854 0.0131166,-0.0416005 0.0166924,-0.0402991 0.0201412,-0.0386909 0.0234367,-0.0367882 0.0265538,-0.0346056 0.0294688,-0.0321596 0.0321596,-0.0294688 0.0346056,-0.0265538 0.0367882,-0.0234367 0.0386909,-0.0201412 0.0402991,-0.0166924 0.0416005,-0.0131166 0.0425854,-0.00944096 0.0432462,-0.00569347 0.0435779,-0.00190265 1.55,-4.44089e-16 0,0.2 z "/>
<path fill="rgb(241,240,234)" stroke="rgb(241,240,234)" d="M 10.0035,6.25089 l -0.229744,0 0,-5.49085 -0.00199778,-0.0457568 -0.00597815,-0.0454085 -0.00991301,-0.0447147 -0.0137724,-0.0436806 -0.017527,-0.042314 -0.0211483,-0.0406254 -0.0246085,-0.0386276 -0.0278815,-0.0363359 -0.0309423,-0.0337676 -0.0337676,-0.0309423 -0.0363359,-0.0278815 -0.0386276,-0.0246085 -0.0406254,-0.0211483 -0.042314,-0.017527 -0.0436806,-0.0137724 -0.0447147,-0.00991301 -0.0454085,-0.00597815 -0.0457568,-0.00199778 -8.47818,-7.99361e-15 -0.0457568,0.00199778 -0.0454085,0.00597815 -0.0447147,0.00991301 -0.0436806,0.0137724 -0.042314,0.017527 -0.0406254,0.0211483 -0.0386276,0.0246085 -0.0363359,0.0278815 -0.0337676,0.0309423 -0.0309423,0.0337676 -0.0278815,0.0363359 -0.0246085,0.0386276 -0.0211483,0.0406254 -0.017527,0.042314 -0.0137724,0.0436806 -0.00991301,0.0447147 -0.00597815,0.0454085 -0.00199778,0.0457568 0,5.49085 -0.245616,1.77636e-15 0,-6.25089 10.0035,1.77636e-15 -1.77636e-15,6.25089 z "/>
<path fill="rgb(241,240,234)" stroke="rgb(241,240,234)" d="M 10.0035,6.25089 l -1.77636e-15,6.25089 -10.0035,0 0,-6.25089 0.245616,-1.77636e-15 0,5.48553 0.00199778,0.0457568 0.00597815,0.0454085 0.00991301,0.0447147 0.0137724,0.0436806 0.017527,0.042314 0.0211483,0.0406254 0.0246085,0.0386276 0.0278815,0.0363359 0.0309423,0.0337676 0.0337676,0.0309423 0.0363359,0.0278815 0.0386276,0.0246085 0.0406254,0.0211483 0.042314,0.017527 0.0436806,0.0137724 0.0447147,0.00991301 0.0454085,0.00597815 0.0457568,0.00199778 8.47818,1.06581e-14 0.0457568,-0.00199778 0.0454085,-0.00597815 0.0447147,-0.00991301 0.0436806,-0.0137724 0.042314,-0.017527 0.0406254,-0.0211483 0.0386276,-0.0246085 0.0363359,-0.0278815 0.0337676,-0.0309423 0.0309423,-0.0337676 0.0278815,-0.0363359 0.0246085,-0.0386276 0.0211483,-0.0406254 0.017527,-0.042314 0.0137724,-0.0436806 0.00991301,-0.0447147 0.00597815,-0.0454085 0.00199778,-0.0457568 1.77636e-15,-5.48553 0.229744,0 z "/>
<path fill="rgb(42,41,42)" stroke="rgb(42,41,42)" d="M 6.92653,11.4658 l -0.730554,0 0,-0.999789 0.746299,0 0,0.177915 -0.56366,0 0,0.273958 0.297575,0 0,0.181064 -0.297575,0 0,0.187362 0.547916,0 0,0.17949 z "/>
<path fill="rgb(42,41,42)" stroke="rgb(42,41,42)" d="M 5.93619,11.4658 l -0.171617,0 0,-0.661278 0.0188936,-0.338511 0.152724,0 0,0.999789 z "/>
<path fill="rgb(42,41,42)" stroke="rgb(42,41,42)" d="M 5.3064,11.4658 l 0,-0.311745 0.477065,-0.688044 -0.0188936,0.338511 -0.458171,0.661278 z "/>
<path fill="rgb(42,41,42)" stroke="rgb(42,41,42)" d="M 5.3064,11.4658 l -0.174766,0 0,-0.999789 0.174766,0 0,0.688044 0,0.311745 z "/>
<path fill="rgb(42,41,42)" stroke="rgb(42,41,42)" d="M 4.4861,11.4816 l -0.0110213,0 -0.0897448,-0.0110213 -0.080298,-0.0251915 -0.0692767,-0.0425107 -0.0598299,-0.0582554 -0.0299149,-0.0409362 0.340086,0 0.0377873,-0.00314894 0.0771491,-0.0283405 0.0598299,-0.0582554 0.0330639,-0.0661278 0.0204681,-0.0834469 0.00787235,-0.0976172 -0.00314894,-0.0708512 -0.0157447,-0.0865959 -0.0299149,-0.0708512 -0.0362128,-0.053532 -0.0661278,-0.0425107 -0.0850214,-0.0157447 -0.321192,-0.0141702 0.0236171,-0.0314894 0.0598299,-0.0582554 0.0708512,-0.0409362 0.0787235,-0.0251915 0.0881703,-0.00944682 0.00629788,0 0.0881703,0.0110213 0.0771491,0.026766 0.0692767,0.0456596 0.0598299,0.0614043 0.0299149,0.0409362 0.0362128,0.0708512 0.0251915,0.080298 0.0157447,0.0881703 0.00629788,0.0976172 -0.00157447,0.0566809 -0.0125958,0.0913193 -0.0220426,0.0834469 -0.0330639,0.0740001 -0.0440852,0.0661278 -0.00314894,0.00157447 -0.0598299,0.0614043 -0.0692767,0.0425107 -0.080298,0.0251915 -0.0881703,0.00944682 z "/>
<path fill="rgb(42,41,42)" stroke="rgb(42,41,42)" d="M 4.14602,11.3037 l -0.0362128,-0.0692767 -0.0251915,-0.0787235 -0.0157447,-0.0897448 -0.00472341,-0.0991916 0,-0.0299149 0.00944682,-0.0913193 0.0188936,-0.0850214 0.0299149,-0.0771491 0.0425107,-0.0708512 0.321192,0.0141702 -0.0393618,0.00314894 -0.0755746,0.0283405 -0.0614043,0.0598299 -0.0362128,0.0677022 -0.0204681,0.0834469 -0.00787235,0.0976172 0.00787235,0.0976172 0.0204681,0.0818725 0.0362128,0.0677022 0.0236171,0.0299149 0.0677022,0.0440852 0.0850214,0.0157447 -0.340086,0 z "/>
<path fill="rgb(42,41,42)" stroke="rgb(42,41,42)" d="M 3.89567,11.4658 l -0.752597,0 0,-0.176341 0.53532,0 -0.566809,-0.621916 0,-0.201532 0.784086,0 0,0.177915 -0.56366,0 0.56366,0.617192 0,0.204681 z "/>
<path fill="rgb(241,240,234)" stroke="rgb(241,240,234)" d="M 6.51559,4.05323 l -0.0519575,-0.00787235 -0.0409362,-0.0204681 -0.0220426,-0.0236171 0.116511,-0.0346384 0.00157447,0 0.0488086,-0.00787235 0.0456596,-0.0220426 0.0299149,0.0787235 -0.0330639,0.0173192 -0.0472341,0.0141702 -0.0472341,0.00629788 z "/>
<path fill="rgb(241,240,234)" stroke="rgb(241,240,234)" d="M 6.40066,4.00127 l -0.0125958,-0.0503831 0.00629788,-0.0393618 0.0299149,-0.0409362 0.00157447,-0.00157447 0.0377873,-0.0220426 0.0551065,-0.0204681 0.0362128,-0.0110213 0.0204681,-0.0299149 -0.00629788,-0.0141702 -0.0519575,-0.0110213 0.124383,-0.0299149 0.0125958,0.0519575 0,0.00157447 -0.00944682,0.0440852 -0.0236171,0.0346384 -0.0409362,0.0251915 -0.0551065,0.0188936 -0.0456596,0.0141702 -0.0110213,0.0204681 0.00157447,0.0110213 0.0472341,0.0141702 -0.116511,0.0346384 z "/>
<path fill="rgb(241,240,234)" stroke="rgb(241,240,234)" d="M 6.4101,3.78557 l -0.0299149,-0.0787235 0.0393618,-0.0173192 0.0472341,-0.0110213 0.053532,-0.00472341 0.00629788,0 0.053532,0.00787235 0.0393618,0.0204681 0.0220426,0.0283405 -0.124383,0.0299149 -0.0125958,0 -0.0503831,0.0110213 -0.0440852,0.0141702 z "/>
<path fill="rgb(241,240,234)" stroke="rgb(241,240,234)" d="M 6.29044,4.05166 l -0.0220426,-0.00314894 -0.0425107,-0.0283405 0.0598299,-0.0551065 0.0425107,-0.0220426 0.0251915,0.0865959 -0.0141702,0.00944682 -0.0488086,0.0125958 z "/>
<path fill="rgb(241,240,234)" stroke="rgb(241,240,234)" d="M 6.22589,4.04536 l -0.080298,0 0,-0.363703 0.080298,0 0,0.214128 0,0.00314894 0.0188936,0.0472341 0.0409362,0.0188936 -0.0598299,0.0551065 0,0.0251915 z "/>
<path fill="rgb(241,240,234)" stroke="rgb(241,240,234)" d="M 5.94878,4.05166 l -0.0173192,-0.00157447 -0.0440852,-0.0173192 -0.0377873,-0.0362128 -0.0173192,-0.0283405 -0.0173192,-0.0488086 -0.00629788,-0.0566809 0.00314894,-0.0393618 0.0141702,-0.0503831 0.0236171,-0.0456596 0.0157447,-0.0173192 0.0409362,-0.0283405 0.0456596,-0.00944682 0.0220426,0.00157447 0.0440852,0.0188936 0.0377873,0.0362128 0.00157447,0.00314894 -0.10549,0.0220426 -0.0377873,0.0188936 -0.00157447,0.00157447 -0.0220426,0.0488086 -0.00314894,0.0125958 0.201532,0 0,0.0251915 -0.00157447,0.0188936 -0.195234,0.0251915 0.0220426,0.0488086 0.0377873,0.0157447 0.0976172,0.0251915 -0.0141702,0.0173192 -0.0393618,0.0299149 -0.0472341,0.00944682 z "/>
<path fill="rgb(241,240,234)" stroke="rgb(241,240,234)" d="M 6.04955,3.99497 l -0.0976172,-0.0251915 0.0346384,-0.0125958 0.00157447,-0.00157447 0.0204681,-0.0503831 -0.116511,0 0.195234,-0.0251915 -0.00944682,0.053532 -0.00629788,0.0157447 -0.0220426,0.0456596 z "/>
<path fill="rgb(241,240,234)" stroke="rgb(241,240,234)" d="M 6.00389,3.784 l -0.00944682,-0.00944682 -0.0425107,-0.0204681 0.10549,-0.0220426 -0.053532,0.0519575 z "/>
<path fill="rgb(241,240,234)" stroke="rgb(241,240,234)" d="M 5.7441,4.18863 l -0.0834469,-0.0330639 0,-0.132256 -0.155873,-0.026766 -0.0173192,-0.0283405 0.122809,-0.00314894 0.0141702,-0.00314894 0.0362128,-0.0346384 0,-0.127532 -0.0110213,-0.0188936 -0.0393618,-0.0204681 -0.10549,-0.0299149 0.00787235,-0.0110213 0.148,-0.0125958 0,-0.0251915 0.0834469,0 0,0.50698 z "/>
<path fill="rgb(241,240,234)" stroke="rgb(241,240,234)" d="M 5.5961,4.0548 l -0.0125958,-0.00157447 -0.0425107,-0.0173192 -0.0362128,-0.0393618 0.155873,0.026766 -0.0299149,0.0236171 -0.0346384,0.00787235 z "/>
<path fill="rgb(241,240,234)" stroke="rgb(241,240,234)" d="M 5.48746,3.96821 l -0.0157447,-0.0503831 -0.00629788,-0.0566809 0.00157447,-0.0314894 0.0125958,-0.0519575 0.0251915,-0.0472341 0.10549,0.0299149 -0.00787235,0 -0.0393618,0.0299149 -0.00944682,0.0188936 -0.00944682,0.053532 0.00157447,0.0236171 0.0173192,0.0503831 0.00629788,0.00787235 0.0409362,0.0204681 -0.122809,0.00314894 z "/>
<path fill="rgb(241,240,234)" stroke="rgb(241,240,234)" d="M 5.51266,3.71944 l 0.0393618,-0.0330639 0.0440852,-0.0110213 0.0346384,0.00629788 0.0299149,0.0251915 -0.148,0.0125958 z "/>
<path fill="rgb(241,240,234)" stroke="rgb(241,240,234)" d="M 5.20248,4.04378 l -0.080298,0 0,-0.250341 0.00629788,-0.0409362 0.132256,0.00787235 -0.0425107,0.0188936 -0.0157447,0.0472341 0,0.217277 z "/>
<path fill="rgb(241,240,234)" stroke="rgb(241,240,234)" d="M 5.39772,4.04378 l -0.0755746,0 0,-0.218851 -0.0188936,-0.0456596 -0.0425107,-0.0188936 -0.132256,-0.00787235 0.19366,-0.0425107 0,-0.0283405 0.0755746,0 0,0.362128 z "/>
<path fill="rgb(241,240,234)" stroke="rgb(241,240,234)" d="M 5.12848,3.75251 l 0.026766,-0.0440852 0.0377873,-0.0236171 0.0503831,-0.00944682 0.0346384,0.00629788 0.00157447,0 0.0425107,0.0283405 -0.19366,0.0425107 z "/>
<path fill="rgb(241,240,234)" stroke="rgb(241,240,234)" d="M 4.91593,4.0548 l -0.0220426,-0.00157447 -0.0440852,-0.0173192 -0.0362128,-0.0377873 -0.0188936,-0.0299149 0.121234,-0.00314894 0.00472341,0 0.0393618,-0.0283405 0.00787235,-0.0173192 0.00944682,-0.0566809 -0.00157447,-0.0236171 -0.0157447,-0.0488086 -0.00314894,-0.00787235 -0.0409362,-0.0220426 0.11966,-0.00314894 0.0173192,0.0503831 0.00629788,0.0551065 -0.00314894,0.0393618 -0.0141702,0.0519575 -0.0251915,0.0440852 -0.0141702,0.0188936 -0.0409362,0.0283405 -0.0456596,0.00944682 z "/>
<path fill="rgb(241,240,234)" stroke="rgb(241,240,234)" d="M 4.7947,3.96821 l -0.0173192,-0.0488086 -0.00472341,-0.0566809 0.00157447,-0.0377873 0.0141702,-0.0519575 0.0251915,-0.0440852 0.0157447,-0.0188936 0.0393618,-0.0283405 0.0472341,-0.00944682 0.0204681,0.00157447 0.0425107,0.0173192 0.0377873,0.0377873 0.0188936,0.0283405 -0.11966,0.00314894 -0.00787235,0 -0.0377873,0.0299149 -0.00944682,0.0173192 -0.00787235,0.0551065 0.00157447,0.0236171 0.0157447,0.0503831 0.00472341,0.00629788 0.0409362,0.0220426 -0.121234,0.00314894 z "/>
<path fill="rgb(241,240,234)" stroke="rgb(241,240,234)" d="M 4.51444,4.18863 l -0.0818725,-0.0330639 0,-0.473916 0.0818725,0 0,0.214128 0,0.0125958 0.0173192,0.0425107 0.0409362,0.0141702 0.129107,0.0110213 -0.187362,0.0440852 0,0.168468 z "/>
<path fill="rgb(241,240,234)" stroke="rgb(241,240,234)" d="M 4.59002,4.0548 l -0.0393618,-0.00629788 -0.0362128,-0.0283405 0.187362,-0.0440852 -0.026766,0.0440852 -0.0362128,0.0251915 -0.0488086,0.00944682 z "/>
<path fill="rgb(241,240,234)" stroke="rgb(241,240,234)" d="M 4.7018,3.97608 l -0.129107,-0.0110213 0.0440852,-0.0188936 0.0173192,-0.0488086 0,-0.215702 0.0755746,0 0,0.250341 -0.00787235,0.0440852 z "/>
<path fill="rgb(241,240,234)" stroke="rgb(241,240,234)" d="M 6.65415,4.77591 l -0.157447,0 0,0.0897448 0.157447,0 0,-0.0897448 z "/>
<path fill="rgb(241,240,234)" stroke="rgb(241,240,234)" d="M 6.281,4.9491 l -0.0425107,-0.0141702 -0.0362128,-0.0393618 0.160596,0.0188936 -0.0330639,0.0251915 -0.0362128,0.00944682 -0.0125958,0 z "/>
<path fill="rgb(241,240,234)" stroke="rgb(241,240,234)" d="M 6.44159,4.93966 l -0.0787235,0 0,-0.0251915 -0.160596,-0.0188936 -0.0188936,-0.0330639 0.122809,-0.00314894 0.0173192,-0.00314894 0.0393618,-0.0362128 0,-0.129107 -0.0173192,-0.0204681 -0.0393618,-0.0188936 -0.10549,-0.0299149 0.00944682,-0.0125958 0.152724,-0.00472341 0,-0.0377873 -0.00787235,-0.0330639 -0.0283405,-0.0377873 -0.0503831,-0.0346384 0.0314894,-0.0787235 0.00787235,0.00314894 0.0283405,0.0141702 0.0393618,0.0251915 0.00472341,0.00629788 0.0330639,0.0425107 0.0157447,0.0440852 0.00472341,0.0614043 0,0.360554 z "/>
<path fill="rgb(241,240,234)" stroke="rgb(241,240,234)" d="M 6.18338,4.86251 l -0.0157447,-0.0519575 -0.00472341,-0.0551065 0.00157447,-0.0362128 0.0125958,-0.0519575 0.0236171,-0.0456596 0.10549,0.0299149 -0.00787235,0 -0.0377873,0.0299149 -0.00944682,0.0188936 -0.00787235,0.0551065 0.00157447,0.0251915 0.0157447,0.0488086 0.00472341,0.00787235 0.0409362,0.0220426 -0.122809,0.00314894 z "/>
<path fill="rgb(241,240,234)" stroke="rgb(241,240,234)" d="M 6.21015,4.60902 l 0.0377873,-0.0330639 0.0440852,-0.00944682 0.0299149,0.00629788 0.0409362,0.0314894 -0.152724,0.00472341 z "/>
<path fill="rgb(241,240,234)" stroke="rgb(241,240,234)" d="M 5.9787,4.94595 l -0.0377873,-0.00629788 -0.0393618,-0.0299149 0.192085,-0.0393618 -0.0283405,0.0440852 -0.0362128,0.0236171 -0.0503831,0.00787235 z "/>
<path fill="rgb(241,240,234)" stroke="rgb(241,240,234)" d="M 5.90155,4.93966 l -0.080298,0 0,-0.365277 0.080298,0 0,0.220426 0.0173192,0.0472341 0.0409362,0.0204681 0.13383,0.00787235 -0.192085,0.0393618 0,0.0299149 z "/>
<path fill="rgb(241,240,234)" stroke="rgb(241,240,234)" d="M 6.09364,4.87038 l -0.13383,-0.00787235 0.0440852,-0.0188936 0.0173192,-0.0488086 0,-0.220426 0.0787235,0 0,0.255064 -0.00629788,0.0409362 z "/>
<path fill="rgb(241,240,234)" stroke="rgb(241,240,234)" d="M 5.70002,5.08293 l -0.0299149,-0.0125958 -0.0125958,-0.0299149 0.0125958,-0.0330639 0.0299149,-0.0125958 0.0283405,0.0125958 0.0125958,0.0330639 -0.0125958,0.0299149 -0.0283405,0.0125958 z "/>
<path fill="rgb(241,240,234)" stroke="rgb(241,240,234)" d="M 5.74095,4.93966 l -0.080298,0 0,-0.365277 0.080298,0 0,0.365277 z "/>
<path fill="rgb(241,240,234)" stroke="rgb(241,240,234)" d="M 5.46227,4.94595 l -0.0393618,-0.00629788 -0.0393618,-0.0299149 0.192085,-0.0393618 -0.026766,0.0440852 -0.0377873,0.0236171 -0.0488086,0.00787235 z "/>
<path fill="rgb(241,240,234)" stroke="rgb(241,240,234)" d="M 5.38355,4.93966 l -0.080298,0 0,-0.365277 0.080298,0 0,0.220426 0.0173192,0.0472341 0.0425107,0.0204681 0.132256,0.00787235 -0.192085,0.0393618 0,0.0299149 z "/>
<path fill="rgb(241,240,234)" stroke="rgb(241,240,234)" d="M 5.57563,4.87038 l -0.132256,-0.00787235 0.0425107,-0.0188936 0.0173192,-0.0488086 0,-0.220426 0.0787235,0 0,0.255064 -0.00629788,0.0409362 z "/>
<path fill="rgb(241,240,234)" stroke="rgb(241,240,234)" d="M 5.10644,4.94595 l -0.0377873,-0.00629788 -0.0393618,-0.0299149 0.192085,-0.0393618 -0.0283405,0.0440852 -0.0362128,0.0236171 -0.0503831,0.00787235 z "/>
<path fill="rgb(241,240,234)" stroke="rgb(241,240,234)" d="M 5.02929,4.93966 l -0.080298,0 0,-0.365277 0.080298,0 0,0.220426 0.0173192,0.0472341 0.0409362,0.0204681 0.13383,0.00787235 -0.192085,0.0393618 0,0.0299149 z "/>
<path fill="rgb(241,240,234)" stroke="rgb(241,240,234)" d="M 5.22138,4.87038 l -0.13383,-0.00787235 0.0440852,-0.0188936 0.0173192,-0.0488086 0,-0.220426 0.0787235,0 0,0.255064 -0.00629788,0.0409362 z "/>
<path fill="rgb(241,240,234)" stroke="rgb(241,240,234)" d="M 4.67189,4.93808 l -0.080298,0 0,-0.250341 0.00629788,-0.0425107 0.132256,0.00944682 -0.0425107,0.0173192 -0.0157447,0.0488086 0,0.217277 z "/>
<path fill="rgb(241,240,234)" stroke="rgb(241,240,234)" d="M 4.86712,4.93808 l -0.0755746,0 0,-0.218851 -0.0188936,-0.0456596 -0.0425107,-0.0188936 -0.132256,-0.00944682 0.19366,-0.0425107 0,-0.0283405 0.0755746,0 0,0.363703 z "/>
<path fill="rgb(241,240,234)" stroke="rgb(241,240,234)" d="M 4.59789,4.64523 l 0.026766,-0.0425107 0.0377873,-0.0236171 0.0503831,-0.00944682 0.0362128,0.00472341 0.0425107,0.0283405 -0.19366,0.0425107 z "/>
<path fill="rgb(241,240,234)" stroke="rgb(241,240,234)" d="M 4.35385,4.9491 l -0.0425107,-0.0141702 -0.0362128,-0.0393618 0.160596,0.0188936 -0.0330639,0.0251915 -0.0362128,0.00944682 -0.0125958,0 z "/>
<path fill="rgb(241,240,234)" stroke="rgb(241,240,234)" d="M 4.51444,4.93966 l -0.0787235,0 0,-0.0251915 -0.160596,-0.0188936 -0.0173192,-0.0330639 0.121234,-0.00314894 0.0188936,-0.00314894 0.0377873,-0.0362128 0,-0.129107 -0.0157447,-0.0204681 -0.0409362,-0.0188936 -0.10549,-0.0299149 0.00944682,-0.0125958 0.152724,-0.00472341 0,-0.0377873 -0.00787235,-0.0330639 -0.0283405,-0.0377873 -0.0503831,-0.0346384 0.0314894,-0.0787235 0.00787235,0.00314894 0.0283405,0.0141702 0.0393618,0.0251915 0.00629788,0.00629788 0.0314894,0.0425107 0.0157447,0.0440852 0.00472341,0.0614043 0,0.360554 z "/>
<path fill="rgb(241,240,234)" stroke="rgb(241,240,234)" d="M 4.2578,4.86251 l -0.0173192,-0.0519575 -0.00472341,-0.0551065 0.00157447,-0.0362128 0.0125958,-0.0519575 0.0236171,-0.0456596 0.10549,0.0299149 -0.00787235,0 -0.0377873,0.0299149 -0.00787235,0.0188936 -0.00944682,0.0551065 0.00157447,0.0251915 0.0157447,0.0488086 0.00472341,0.00787235 0.0409362,0.0220426 -0.121234,0.00314894 z "/>
<path fill="rgb(241,240,234)" stroke="rgb(241,240,234)" d="M 4.28299,4.60902 l 0.0377873,-0.0330639 0.0456596,-0.00944682 0.0283405,0.00629788 0.0409362,0.0314894 -0.152724,0.00472341 z "/>
<path fill="rgb(241,240,234)" stroke="rgb(241,240,234)" d="M 4.13657,4.94595 l -0.0220426,-0.00314894 -0.0409362,-0.0283405 0.0582554,-0.0551065 0.0425107,-0.0220426 0.0251915,0.0865959 -0.0141702,0.00944682 -0.0488086,0.0125958 z "/>
<path fill="rgb(241,240,234)" stroke="rgb(241,240,234)" d="M 4.07359,4.93966 l -0.080298,0 0,-0.365277 0.080298,0 0,0.214128 0,0.00472341 0.0173192,0.0472341 0.0409362,0.0188936 -0.0582554,0.0551065 0,0.0251915 z "/>
<path fill="rgb(241,240,234)" stroke="rgb(241,240,234)" d="M 3.79648,4.94595 l -0.0188936,-0.00157447 -0.0440852,-0.0173192 -0.0377873,-0.0362128 -0.0173192,-0.0283405 -0.0173192,-0.0488086 -0.00472341,-0.0566809 0.00157447,-0.0393618 0.0141702,-0.0519575 0.0251915,-0.0440852 0.0157447,-0.0173192 0.0393618,-0.0283405 0.0472341,-0.00944682 0.0220426,0.00157447 0.0440852,0.0173192 0.0362128,0.0362128 0.00314894,0.00472341 -0.10549,0.0220426 -0.0393618,0.0188936 0,0.00157447 -0.0220426,0.0488086 -0.00314894,0.0125958 0.199958,0 0,0.0251915 0,0.0173192 -0.196809,0.026766 0.0220426,0.0488086 0.0393618,0.0157447 0.0960427,0.0251915 -0.0141702,0.0173192 -0.0393618,0.0283405 -0.0456596,0.0110213 z "/>
<path fill="rgb(241,240,234)" stroke="rgb(241,240,234)" d="M 3.89567,4.88927 l -0.0960427,-0.0251915 0.0330639,-0.0125958 0.00157447,-0.00157447 0.0220426,-0.0503831 -0.118085,0 0.196809,-0.026766 -0.0110213,0.0551065 -0.00472341,0.0157447 -0.0236171,0.0456596 z "/>
<path fill="rgb(241,240,234)" stroke="rgb(241,240,234)" d="M 3.85159,4.67829 l -0.00944682,-0.00944682 -0.0425107,-0.0204681 0.10549,-0.0220426 -0.053532,0.0519575 z "/>
<path fill="rgb(241,240,234)" stroke="rgb(241,240,234)" d="M 3.38082,4.93966 l -0.080298,0 0.116511,-0.365277 0.0425107,0.118085 -0.0787235,0.247192 z "/>
<path fill="rgb(241,240,234)" stroke="rgb(241,240,234)" d="M 3.62014,4.93966 l -0.080298,0 -0.080298,-0.247192 -0.0425107,-0.118085 0.0865959,0 0.116511,0.365277 z "/>
<path fill="rgb(241,240,234)" stroke="rgb(241,240,234)" d="M 5.31112,9.26945 l -1.46741,0 0,-3.50005 0.573107,0 0,1.37294 0.894299,0 0.053532,0 0.146426,0.0125958 0.135404,0.026766 0.121234,0.0409362 0.108638,0.0566809 0.0834469,0.0598299 0.103915,0.0944682 0.0897448,0.110213 0.0755746,0.122809 0.0472341,0.100766 -1.85945,0.00157447 0,0.872257 0.917916,0 0.910044,0.0865959 -0.0692767,0.113362 -0.0850214,0.103915 -0.102341,0.0928938 -0.116511,0.0834469 -0.0362128,0.0204681 -0.118085,0.0551065 -0.125958,0.0409362 -0.135404,0.0236171 -0.144851,0.00787235 z "/>
<path fill="rgb(241,240,234)" stroke="rgb(241,240,234)" d="M 6.24478,8.72783 l -0.910044,-0.0865959 0.103915,-0.00787235 0.129107,-0.0377873 0.102341,-0.0708512 0.0456596,-0.0551065 0.0614043,-0.124383 0.0204681,-0.148 -0.00314894,-0.0677022 -0.0409362,-0.135404 -0.0834469,-0.107064 -0.0724256,-0.0519575 -0.122809,-0.0488086 -0.140128,-0.0173192 -0.917916,0 1.85945,-0.00157447 0.0472341,0.140128 0.0283405,0.143277 0.0110213,0.146426 -0.00629788,0.129107 -0.0220426,0.143277 -0.0362128,0.13383 -0.053532,0.124383 z "/>
<path fill="rgb(42,41,42)" stroke="rgb(42,41,42)" d="M 0.508116,6.25089 l 0,5.48553 0.000998892,0.0228784 0.00298907,0.0227043 0.00495651,0.0223574 0.00688622,0.0218403 0.00876352,0.021157 0.0105741,0.0203127 0.0123043,0.0193138 0.0139407,0.0181679 0.0154711,0.0168838 0.0168838,0.0154711 0.0181679,0.0139407 0.0193138,0.0123043 0.0203127,0.0105741 0.021157,0.00876352 0.0218403,0.00688622 0.0223574,0.00495651 0.0227043,0.00298907 0.0228784,0.000998892 8.47818,8.88178e-15 0.0228784,-0.000998892 0.0227043,-0.00298907 0.0223574,-0.00495651 0.0218403,-0.00688622 0.021157,-0.00876352 0.0203127,-0.0105741 0.0193138,-0.0123043 0.0181679,-0.0139407 0.0168838,-0.0154711 0.0154711,-0.0168838 0.0139407,-0.0181679 0.0123043,-0.0193138 0.0105741,-0.0203127 0.00876352,-0.021157 0.00688622,-0.0218403 0.00495651,-0.0223574 0.00298907,-0.0227043 0.000998892,-0.0228784 1.77636e-15,-5.48553 0.2625,-8.88178e-16 -1.77636e-15,5.48553 -0.00199778,0.0457568 -0.00597815,0.0454085 -0.00991301,0.0447147 -0.0137724,0.0436806 -0.017527,0.042314 -0.0211483,0.0406254 -0.0246085,0.0386276 -0.0278815,0.0363359 -0.0309423,0.0337676 -0.0337676,0.0309423 -0.0363359,0.0278815 -0.0386276,0.0246085 -0.0406254,0.0211483 -0.042314,0.017527 -0.0436806,0.0137724 -0.0447147,0.00991301 -0.0454085,0.00597815 -0.0457568,0.00199778 -8.47818,-1.06581e-14 -0.0457568,-0.00199778 -0.0454085,-0.00597815 -0.0447147,-0.00991301 -0.0436806,-0.0137724 -0.042314,-0.017527 -0.0406254,-0.0211483 -0.0386276,-0.0246085 -0.0363359,-0.0278815 -0.0337676,-0.0309423 -0.0309423,-0.0337676 -0.0278815,-0.0363359 -0.0246085,-0.0386276 -0.0211483,-0.0406254 -0.017527,-0.042314 -0.0137724,-0.0436806 -0.00991301,-0.0447147 -0.00597815,-0.0454085 -0.00199778,-0.0457568 0,-5.48553 0.2625,8.88178e-16 z "/>
<path fill="rgb(42,41,42)" stroke="rgb(42,41,42)" d="M 0.508116,6.25089 l -0.2625,-8.88178e-16 0,-5.49085 0.00199778,-0.0457568 0.00597815,-0.0454085 0.00991301,-0.0447147 0.0137724,-0.0436806 0.017527,-0.042314 0.0211483,-0.0406254 0.0246085,-0.0386276 0.0278815,-0.0363359 0.0309423,-0.0337676 0.0337676,-0.0309423 0.0363359,-0.0278815 0.0386276,-0.0246085 0.0406254,-0.0211483 0.042314,-0.017527 0.0436806,-0.0137724 0.0447147,-0.00991301 0.0454085,-0.00597815 0.0457568,-0.00199778 8.47818,7.99361e-15 0.0457568,0.00199778 0.0454085,0.00597815 0.0447147,0.00991301 0.0436806,0.0137724 0.042314,0.017527 0.0406254,0.0211483 0.0386276,0.0246085 0.0363359,0.0278815 0.0337676,0.0309423 0.0309423,0.0337676 0.0278815,0.0363359 0.0246085,0.0386276 0.0211483,0.0406254 0.017527,0.042314 0.0137724,0.0436806 0.00991301,0.0447147 0.00597815,0.0454085 0.00199778,0.0457568 0,5.49085 -0.2625,8.88178e-16 -1.77636e-15,-0.00265976 0,-5.48819 -0.000998892,-0.0228784 -0.00298907,-0.0227043 -0.00495651,-0.0223574 -0.00688622,-0.0218403 -0.00876352,-0.021157 -0.0105741,-0.0203127 -0.0123043,-0.0193138 -0.0139407,-0.0181679 -0.0154711,-0.0168838 -0.0168838,-0.0154711 -0.0181679,-0.0139407 -0.0193138,-0.0123043 -0.0203127,-0.0105741 -0.021157,-0.00876352 -0.0218403,-0.00688622 -0.0223574,-0.00495651 -0.0227043,-0.00298907 -0.0228784,-0.000998892 -8.47818,-8.88178e-15 -0.0228784,0.000998892 -0.0227043,0.00298907 -0.0223574,0.00495651 -0.0218403,0.00688622 -0.021157,0.00876352 -0.0203127,0.0105741 -0.0193138,0.0123043 -0.0181679,0.0139407 -0.0168838,0.0154711 -0.0154711,0.0168838 -0.0139407,0.0181679 -0.0123043,0.0193138 -0.0105741,0.0203127 -0.00876352,0.021157 -0.00688622,0.0218403 -0.00495651,0.0223574 -0.00298907,0.0227043 -0.000998892,0.0228784 0,5.48819 0,0.00265976 z "/>
</g></g></svg>
