<?xml version="1.0" encoding="UTF-8" standalone="no"?>
<!DOCTYPE svg PUBLIC "-//W3C//DTD SVG 1.1//EN" "http://www.w3.org/Graphics/SVG/1.1/DTD/svg11-flat.dtd"
[

]>
<svg xmlns="http://www.w3.org/2000/svg"  viewBox="-0.09375 -0.09375 7.6875 7.6875"><g fill="none" stroke="black" stroke-width="0.0125" transform="translate(0,7.5) scale(1, -1)">
<g id="Output" >
<path fill="rgb(241,240,234)" stroke="rgb(241,240,234)" d="M 1.62384,0.907122 l -0.0800831,0.0616906 -0.0782942,0.0639458 -0.0764417,0.0661491 1.50224,2.65109 -2.89126,-4.44089e-16 0.0142699,-0.326834 0.042701,-0.324347 0.0708072,-0.319391 0.0983745,-0.312004 0.125193,-0.302243 0.151059,-0.290182 0.175775,-0.275912 0.199154,-0.259542 0.221016,-0.241197 0.241197,-0.221016 0.259542,-0.199154 0.275912,-0.175775 0.290182,-0.151059 0.302243,-0.125193 0.312004,-0.0983745 0.319391,-0.0708072 0.324347,-0.042701 0.326834,-0.0142699 0.326834,0.0142699 0.324347,0.042701 0.319391,0.0708072 0.312004,0.0983745 0.302243,0.125193 0.290182,0.151059 0.275912,0.175775 0.259542,0.199154 0.241197,0.221016 0.221016,0.241197 0.199154,0.259542 0.175775,0.275912 0.151059,0.290182 0.125193,0.302243 0.0983745,0.312004 0.0708072,0.319391 0.042701,0.324347 0.0142699,0.326834 -2.89126,0 -1.91967,-3.38776 -0.0960294,0.0315816 -0.0950913,0.034303 -0.094076,0.0369966 1.86138,3.28488 -0.343494,0 -1.79035,-3.15953 -0.0880366,0.0466716 -0.086692,0.049124 -0.0852792,0.0515377 1.70686,3.0122 -0.343494,0 -1.61092,-2.84288 z "/>
<path fill="rgb(241,240,234)" stroke="rgb(241,240,234)" d="M 5.3686,6.90953 l 0.0880366,-0.0466716 0.086692,-0.049124 0.0852792,-0.0515377 -1.70686,-3.0122 0.343494,0 1.61092,2.84288 0.0800831,-0.0616906 0.0782942,-0.0639458 0.0764417,-0.0661491 -1.50224,-2.65109 2.89126,0 -0.0142699,0.326834 -0.042701,0.324347 -0.0708072,0.319391 -0.0983745,0.312004 -0.125193,0.302243 -0.151059,0.290182 -0.175775,0.275912 -0.199154,0.259542 -0.221016,0.241197 -0.241197,0.221016 -0.259542,0.199154 -0.275912,0.175775 -0.290182,0.151059 -0.302243,0.125193 -0.312004,0.0983745 -0.319391,0.0708072 -0.324347,0.042701 -0.326834,0.0142699 -0.326834,-0.0142699 -0.324347,-0.042701 -0.319391,-0.0708072 -0.312004,-0.0983745 -0.302243,-0.125193 -0.290182,-0.151059 -0.275912,-0.175775 -0.259542,-0.199154 -0.241197,-0.221016 -0.221016,-0.241197 -0.199154,-0.259542 -0.175775,-0.275912 -0.151059,-0.290182 -0.125193,-0.302243 -0.0983745,-0.312004 -0.0708072,-0.319391 -0.042701,-0.324347 -0.0142699,-0.326834 2.89126,4.44089e-16 1.91967,3.38776 0.0960294,-0.0315816 0.0950913,-0.034303 0.094076,-0.0369966 -1.86138,-3.28488 0.343494,0 1.79035,3.15953 z "/>
<path fill="rgb(142,146,145)" stroke="rgb(142,146,145)" d="M 4.99021,5.04064 l -0.0141953,0 -0.0993673,-0.00473178 -0.0946355,-0.0123026 -0.0899037,-0.0208198 -0.085172,-0.0274443 -0.0813865,-0.0359615 -0.0766548,-0.042586 -0.071923,-0.0511032 -0.0671912,-0.058674 -0.0624594,-0.0662449 -0.058674,-0.0738157 -0.00283907,-0.00378542 -0.0473178,-0.0709766 -0.0416396,-0.0757084 -0.0378542,-0.0794938 -0.0321761,-0.0832792 -0.0274443,-0.0870647 -0.0217662,-0.0908501 -0.0179807,-0.0946355 -0.0123026,-0.0984209 -0.00757084,-0.102206 -0.00283907,-0.105992 0,-0.00757084 0.00283907,-0.105045 0.00757084,-0.102206 0.013249,-0.0984209 0.0170344,-0.0946355 0.0227125,-0.0908501 0.0264979,-0.0870647 0.0321761,-0.0832792 0.0369078,-0.0794938 0.042586,-0.0757084 0.0463714,-0.071923 0.013249,-0.0189271 0.0577277,-0.0728693 0.0634058,-0.0643521 0.0671912,-0.0577277 0.071923,-0.0492105 0.0776011,-0.042586 0.0813865,-0.0340688 0.0861183,-0.0274443 0.0908501,-0.0189271 0.0955819,-0.0113563 0.100314,-0.00378542 0.0331224,0 0.0974746,0.00662449 0.0936891,0.0141953 0.0889574,0.0217662 0.0842256,0.029337 0.0804402,0.0378542 0.074762,0.0444787 0.0700303,0.0529959 0.0652985,0.0605667 0.0605667,0.0681376 0.0558349,0.0757084 -0.804402,0.0369078 -0.0652985,0.00283907 -0.0917964,0.016088 -0.0842256,0.029337 -0.0757084,0.0444787 -0.0681376,0.0577277 -0.0596204,0.0709766 -0.00378542,0.00567813 -0.0416396,0.0681376 -0.0350151,0.074762 -0.0283907,0.0823329 -0.0227125,0.0899037 -0.016088,0.0974746 -0.00946355,0.104099 -0.00283907,0.11167 0,0.0179807 0.00473178,0.104099 0.0113563,0.0984209 0.0189271,0.0927428 0.0264979,0.0870647 0.0331224,0.0813865 0.0397469,0.0766548 0.016088,0.0255516 0.0577277,0.0766548 0.0652985,0.0624594 0.071923,0.0492105 0.0785475,0.0350151 0.0870647,0.0208198 0.0936891,0.00662449 0.800616,0.0435323 -0.0113563,0.0170344 -0.0577277,0.0728693 -0.0624594,0.0652985 -0.0671912,0.0577277 -0.0709766,0.0501568 -0.0766548,0.0416396 -0.0813865,0.0350151 -0.0861183,0.0264979 -0.0908501,0.0198735 -0.0955819,0.0113563 -0.100314,0.00378542 z "/>
<path fill="rgb(142,146,145)" stroke="rgb(142,146,145)" d="M 5.79083,4.63938 l -0.800616,-0.0435323 0.0605667,-0.00283907 0.0917964,-0.0151417 0.0842256,-0.0302834 0.0757084,-0.0435323 0.0681376,-0.0577277 0.0596204,-0.0728693 0.0388006,-0.0615131 0.0359615,-0.074762 0.029337,-0.0813865 0.0227125,-0.0899037 0.0170344,-0.0965282 0.00946355,-0.104099 0.00378542,-0.106938 -0.00378542,-0.0993673 -0.00946355,-0.102206 -0.016088,-0.0965282 -0.0227125,-0.0889574 -0.029337,-0.0842256 -0.0359615,-0.0776011 -0.0435323,-0.0709766 -0.0378542,-0.0511032 -0.0643521,-0.0652985 -0.071923,-0.0511032 -0.0794938,-0.0369078 -0.088011,-0.0217662 -0.0946355,-0.00662449 0.804402,-0.0369078 0.045425,0.071923 0.0406933,0.0766548 0.0359615,0.0794938 0.0312297,0.0842256 0.0264979,0.0870647 0.0217662,0.0917964 0.0170344,0.0946355 0.0123026,0.0984209 0.00662449,0.102206 0.00283907,0.105992 -0.00189271,0.0917964 -0.00662449,0.102206 -0.0123026,0.0984209 -0.0170344,0.0946355 -0.0217662,0.0908501 -0.0264979,0.088011 -0.0321761,0.0832792 -0.0369078,0.0804402 -0.0416396,0.0766548 -0.0473178,0.071923 z "/>
<path fill="rgb(142,146,145)" stroke="rgb(142,146,145)" d="M 3.37289,5.00089 l -2.02425,0 0.00662449,-0.441001 1.41291,0 -0.0539422,-0.0794938 -0.0548886,-0.0804402 -0.0511032,-0.0785475 -0.0473178,-0.074762 -0.0350151,-0.0596204 -0.045425,-0.0832792 -0.0435323,-0.0842256 -0.0406933,-0.085172 -0.0378542,-0.0870647 -0.0359615,-0.0870647 -0.0331224,-0.0889574 -0.0312297,-0.0908501 -0.0283907,-0.0908501 -0.0255516,-0.0927428 -0.0113563,-0.0435323 -0.0189271,-0.085172 -0.0170344,-0.088011 -0.016088,-0.0908501 -0.013249,-0.0917964 -0.0113563,-0.0946355 -0.00946355,-0.0974746 -0.00662449,-0.0993673 -0.00567813,-0.10126 -0.00283907,-0.104099 0.443841,0 0.00283907,0.0690839 0.00567813,0.103153 0.00757084,0.100314 0.0113563,0.0974746 0.013249,0.0955819 0.0151417,0.0927428 0.0179807,0.0899037 0.0198735,0.088011 0.0227125,0.085172 0.0255516,0.0823329 0.000946355,0.00189271 0.0312297,0.0917964 0.0340688,0.0899037 0.0369078,0.088011 0.0378542,0.0870647 0.0416396,0.0861183 0.0435323,0.0832792 0.045425,0.0832792 0.0482641,0.0804402 0.0501568,0.0794938 0.0520495,0.0776011 0.0113563,0.0151417 0.0482641,0.0615131 0.0596204,0.0681376 0.0709766,0.0738157 0.0832792,0.0804402 0,0.448572 z "/>
<path fill="rgb(42,41,42)" stroke="rgb(42,41,42)" d="M 2.68906,0.362241 l 1.91967,3.38776 1.50224,2.65109 -0.0764417,0.0661491 -0.0782942,0.0639458 -0.0800831,0.0616906 -1.61092,-2.84288 -1.86138,-3.28488 0.094076,-0.0369966 0.0950913,-0.034303 0.0960294,-0.0315816 z "/>
<path fill="rgb(42,41,42)" stroke="rgb(42,41,42)" d="M 5.3686,6.90953 l -1.79035,-3.15953 -1.70686,-3.0122 0.0852792,-0.0515377 0.086692,-0.049124 0.0880366,-0.0466716 1.79035,3.15953 1.70686,3.0122 -0.0852792,0.0515377 -0.086692,0.049124 -0.0880366,0.0466716 z "/>
<path fill="rgb(42,41,42)" stroke="rgb(42,41,42)" d="M 2.89126,3.75 l -1.50224,-2.65109 0.0764417,-0.0661491 0.0782942,-0.0639458 0.0800831,-0.0616906 1.61092,2.84288 1.86138,3.28488 -0.094076,0.0369966 -0.0950913,0.034303 -0.0960294,0.0315816 -1.91967,-3.38776 z "/>
</g></g></svg>
