<?xml version="1.0" encoding="UTF-8" standalone="no"?>
<!DOCTYPE svg PUBLIC "-//W3C//DTD SVG 1.1//EN" "http://www.w3.org/Graphics/SVG/1.1/DTD/svg11-flat.dtd"
[

]>
<svg xmlns="http://www.w3.org/2000/svg"  viewBox="-0.125 -0.125 10.25 7.75"><g fill="none" stroke="black" stroke-width="0.0125" transform="translate(0,7.5) scale(1, -1)">
<g id="Output" >
<path fill="rgb(0,91,140)" stroke="rgb(0,91,140)" d="M 5,0.4 l 4.3,0 0.0261467,0.00114159 0.0259477,0.00341608 0.0255513,0.00566458 0.0249603,0.00786996 0.0241794,0.0100155 0.0232145,0.0120847 0.0220729,0.014062 0.0207634,0.0159323 0.0192958,0.0176813 0.0176813,0.0192958 0.0159323,0.0207634 0.014062,0.0220729 0.0120847,0.0232145 0.0100155,0.0241794 0.00786996,0.0249603 0.00566458,0.0255513 0.00341608,0.0259477 0.00114159,0.0261467 0,3.05 -1.85714,0 0,-2.60835 -0.348339,-8.88178e-16 8.88178e-16,2.60835 -1.45166,0 0,-2.60835 -0.348339,-4.44089e-16 0,2.60835 -1.45166,0 8.88178e-16,-2.60835 -0.348339,4.44089e-16 0,2.60835 -1.45166,0 0,-2.60835 -0.348339,4.44089e-16 0,2.60835 -1.59452,4.44089e-16 8.88178e-16,-3.05 0.00114159,-0.0261467 0.00341608,-0.0259477 0.00566458,-0.0255513 0.00786996,-0.0249603 0.0100155,-0.0241794 0.0120847,-0.0232145 0.014062,-0.0220729 0.0159323,-0.0207634 0.0176813,-0.0192958 0.0192958,-0.0176813 0.0207634,-0.0159323 0.0220729,-0.014062 0.0232145,-0.0120847 0.0241794,-0.0100155 0.0249603,-0.00786996 0.0255513,-0.00566458 0.0259477,-0.00341608 0.0261467,-0.00114159 4.3,0 z "/>
<path fill="rgb(0,91,140)" stroke="rgb(0,91,140)" d="M 5.71063,6.32793 l 0.00374511,0.00493413 0.00416319,0.00458687 0.00454922,0.0042043 0.00490023,0.00378936 0.00521352,0.00334525 0.00548668,0.00287539 0.0057176,0.00238339 0.00590451,0.00187305 0.00604596,0.00134829 0.00614087,0.000813147 0.00618851,0.000271746 0.00618851,-0.000271746 0.00614087,-0.000813147 0.00604596,-0.00134829 0.00590451,-0.00187305 0.0057176,-0.00238339 0.00548668,-0.00287539 0.00521352,-0.00334525 0.00490023,-0.00378936 0.00454922,-0.0042043 0.00416319,-0.00458687 0.00374511,-0.00493413 3.12444e-05,-4.51857e-05 3.12093e-05,-4.521e-05 3.11741e-05,-4.52343e-05 0.625976,-0.906794 0.00317954,-0.00506196 0.00272921,-0.0053183 0.00225838,-0.00553468 0.00177058,-0.00570947 0.00126947,-0.00584135 0.000758822,-0.00592935 0.000242473,-0.00597278 -0.000275698,-0.00597134 -0.000791797,-0.00592503 -0.00130195,-0.0058342 -0.00180231,-0.00569953 -0.00228914,-0.00552203 -0.00275876,-0.00530304 -0.00320765,-0.0050442 -0.00363244,-0.00474745 -0.00402994,-0.00441504 -0.00439715,-0.00404944 -0.00473133,-0.00365342 -0.00502995,-0.00322995 -0.00529077,-0.00278221 -0.00551184,-0.00231356 -0.00569149,-0.00182753 -0.00582838,-0.00132776 -0.00592147,-0.000818019 -0.00597006,-0.000302129 -0.0059738,0.00021603 -0.00593265,0.000732567 -0.00293881,0.000558812 -0.00291181,0.000685742 -0.00287933,0.000811381 -0.433063,0.101988 0,-1.66786 1.45166,0 -8.88178e-16,0.668793 0.718775,0.659718 -0.369037,0.251246 -0.00491078,0.0036644 -0.00457521,0.00407566 -0.00420532,0.00445633 -0.00380386,0.00480356 -0.00337386,0.00511475 -0.00291854,0.00538755 -0.00244132,0.00561992 -0.00194577,0.00581012 -0.00143563,0.00595672 -0.000914712,0.00605862 -0.000386931,0.00611505 0.000143754,0.00612559 0.00067336,0.00609017 0.00119791,0.00600904 0.00171348,0.00588282 0.00221618,0.00571245 0.00270226,0.00549922 0.00316805,0.00524471 0.00361007,0.00495085 0.00402501,0.00461984 0.00440973,0.00425416 0.00476137,0.00385655 0.00507727,0.00343 0.00535507,0.00297771 0.00559269,0.00250308 0.00578833,0.00200966 0.00594054,0.00150117 1.09256,0.150865 0.00616751,0.000577313 0.00619438,3.4485e-05 0.00617356,-0.000508609 0.00610522,-0.00104779 0.00598987,-0.0015789 0.00582842,-0.00209786 0.0056221,-0.00260067 0.00537251,-0.00308345 0.00508155,-0.00354251 0.00475148,-0.00397429 0.00438483,-0.00437548 0.00398442,-0.00474298 0.00355335,-0.00507398 0.00309492,-0.00536591 0.00261266,-0.00561654 0.00211029,-0.00582393 0.00159168,-0.00598649 0.00106082,-0.00610296 0.000521787,-0.00617246 -2.12611e-05,-0.00619444 -0.000564145,-0.00616873 -0.00110269,-0.00609554 -2.84217e-14,-1.26121e-13 -0.244814,-1.0745 -0.00157929,-0.00576531 -0.00207265,-0.00560688 -0.00255043,-0.00540631 -0.00300905,-0.00516513 -0.00344506,-0.00488513 -0.00385519,-0.00456842 -0.00423634,-0.00421739 -0.00458566,-0.00383466 -0.00490053,-0.00342313 -0.00517857,-0.00298587 -0.00541769,-0.00252617 -0.00561611,-0.00204749 -0.00577233,-0.00155343 -0.00588518,-0.00104769 -0.0059538,-0.000534081 -0.00597768,-1.64586e-05 -0.00595665,0.000501287 -0.00589086,0.00101527 -0.0057808,0.00152162 -0.0056273,0.00201653 -0.00543152,0.0024963 -0.00519493,0.0029573 -0.0049193,0.00339609 -0.00460671,0.00380936 -0.0042595,0.004194 -0.00388028,0.00454712 -0.00347191,0.00486608 -0.00157551,0.00254296 -0.00146374,0.00260889 -0.00134921,0.00266992 -0.217697,0.388012 -0.60598,-0.556191 0,-0.51569 1.85714,0 0,3.05 -0.00114159,0.0261467 -0.00341608,0.0259477 -0.00566458,0.0255513 -0.00786996,0.0249603 -0.0100155,0.0241794 -0.0120847,0.0232145 -0.014062,0.0220729 -0.0159323,0.0207634 -0.0176813,0.0192958 -0.0192958,0.0176813 -0.0207634,0.0159323 -0.0220729,0.014062 -0.0232145,0.0120847 -0.0241794,0.0100155 -0.0249603,0.00786996 -0.0255513,0.00566458 -0.0259477,0.00341608 -0.0261467,0.00114159 -4.3,0 -4.3,-8.88178e-16 -0.0261467,-0.00114159 -0.0259477,-0.00341608 -0.0255513,-0.00566458 -0.0249603,-0.00786996 -0.0241794,-0.0100155 -0.0232145,-0.0120847 -0.0220729,-0.014062 -0.0207634,-0.0159323 -0.0192958,-0.0176813 -0.0176813,-0.0192958 -0.0159323,-0.0207634 -0.014062,-0.0220729 -0.0120847,-0.0232145 -0.0100155,-0.0241794 -0.00786996,-0.0249603 -0.00566458,-0.0255513 -0.00341608,-0.0259477 -0.00114159,-0.0261467 0,-3.05 1.59452,-4.44089e-16 0,1.66786 -0.433063,-0.101988 -0.00589205,-0.00151851 -0.00600297,-0.000993227 -0.00606716,-0.000460209 -0.00608411,7.63917e-05 -0.00605369,0.000612398 -0.00597614,0.00114364 -0.00585207,0.00166597 -0.00568244,0.00217534 -0.00546856,0.00266777 -0.00521212,0.00313942 -0.0049151,0.00358664 -0.00457981,0.00400594 -0.00420886,0.00439405 -0.00380515,0.00474795 -0.00337181,0.00506488 -0.00291223,0.00534239 -0.00242997,0.0055783 -0.00192879,0.00577078 -0.0014126,0.00591834 -0.000885411,0.00601982 -0.000351328,0.00607443 0.00018549,0.00608176 0.000720865,0.00604173 0.00125063,0.00595467 0.00177065,0.00582125 0.00227689,0.00564251 0.00276541,0.00541984 0.00323239,0.00515498 0.625976,0.906794 0.00373835,0.00494864 0.00415822,0.00460147 0.004546,0.00421879 0.0048987,0.00380356 0.00521359,0.00335898 0.00548826,0.00288847 0.00572058,0.00239568 0.00590875,0.00188441 0.00605132,0.00135859 0.00614721,0.000822283 0.00619565,0.000279635 0.00619629,-0.000265171 0.00614911,-0.000807931 0.00605448,-0.00134446 0.00591313,-0.00187061 0.00572615,-0.00238232 0.00549499,-0.00287566 0.00522142,-0.0033468 0.00490756,-0.00379211 0.00455583,-0.00420817 0.00416895,-0.00459175 0.00374989,-0.0049399 0.622247,-0.899145 0.00191109,-0.00251385 0.00179699,-0.00259664 0.0016793,-0.00267426 0.00291101,-0.00539162 0.00243346,-0.00562333 0.00193765,-0.00581284 0.0014273,-0.00595872 0.000906245,-0.00605989 0.000378385,-0.00611559 -0.000152314,-0.00612539 -0.00068187,-0.00608922 -0.00120631,-0.00600736 -0.0017217,-0.00588042 -0.00222416,-0.00570935 -0.00270994,-0.00549543 -0.00317538,-0.00524028 -0.00361699,-0.0049458 -0.00403146,-0.00461421 -0.00441567,-0.00424799 -0.00476675,-0.00384989 -0.00508206,-0.0034229 -0.00535923,-0.00297023 -0.00559618,-0.00249526 -0.00579114,-0.00200157 -0.00594264,-0.00149286 -0.00604954,-0.000972951 -0.00611105,-0.000445737 -0.00612669,8.4822e-05 -0.00609636,0.000614745 -0.00602029,0.00114005 -0.43464,0.101988 0,-1.66786 1.45166,0 0,1.66786 -0.433063,-0.101988 -0.00589205,-0.00151851 -0.00600297,-0.000993227 -0.00606716,-0.000460209 -0.00608411,7.63917e-05 -0.00605369,0.000612398 -0.00597614,0.00114364 -0.00585207,0.00166597 -0.00568244,0.00217534 -0.00546856,0.00266777 -0.00521212,0.00313942 -0.0049151,0.00358664 -0.00457981,0.00400594 -0.00420886,0.00439405 -0.00380515,0.00474795 -0.00337181,0.00506488 -0.00291223,0.00534239 -0.00242997,0.0055783 -0.00192879,0.00577078 -0.0014126,0.00591834 -0.000885411,0.00601982 -0.000351328,0.00607443 0.00018549,0.00608176 0.000720865,0.00604173 0.00125063,0.00595467 0.00177065,0.00582125 0.00227689,0.00564251 0.00276541,0.00541984 0.00323239,0.00515498 0.625976,0.906794 1.64313e-14,2.22045e-14 0.00373835,0.00494864 0.00415822,0.00460147 0.004546,0.00421879 0.0048987,0.00380356 0.00521359,0.00335898 0.00548826,0.00288847 0.00572058,0.00239568 0.00590875,0.00188441 0.00605132,0.00135859 0.00614721,0.000822283 0.00619565,0.000279635 0.00619629,-0.000265171 0.00614911,-0.000807931 0.00605448,-0.00134446 0.00591313,-0.00187061 0.00572615,-0.00238232 0.00549499,-0.00287566 0.00522142,-0.0033468 0.00490756,-0.00379211 0.00455583,-0.00420817 0.00416895,-0.00459175 0.00374989,-0.0049399 0.622247,-0.899145 0.00191109,-0.00251385 0.00179699,-0.00259664 0.0016793,-0.00267426 0.00291101,-0.00539162 0.00243346,-0.00562333 0.00193765,-0.00581284 0.0014273,-0.00595872 0.000906245,-0.00605989 0.000378385,-0.00611559 -0.000152314,-0.00612539 -0.00068187,-0.00608922 -0.00120631,-0.00600736 -0.0017217,-0.00588042 -0.00222416,-0.00570935 -0.00270994,-0.00549543 -0.00317538,-0.00524028 -0.00361699,-0.0049458 -0.00403146,-0.00461421 -0.00441567,-0.00424799 -0.00476675,-0.00384989 -0.00508206,-0.0034229 -0.00535923,-0.00297023 -0.00559618,-0.00249526 -0.00579114,-0.00200157 -0.00594264,-0.00149286 -0.00604954,-0.000972951 -0.00611105,-0.000445737 -0.00612669,8.4822e-05 -0.00609636,0.000614745 -0.00602029,0.00114005 -0.43464,0.101988 0,-1.66786 1.45166,0 0,1.66786 -0.43464,-0.101988 -0.00602029,-0.00114005 -0.00609636,-0.000614745 -0.00612669,-8.4822e-05 -0.00611105,0.000445737 -0.00604954,0.000972951 -0.00594264,0.00149286 -0.00579114,0.00200157 -0.00559618,0.00249526 -0.00535923,0.00297023 -0.00508206,0.0034229 -0.00476675,0.00384989 -0.00441567,0.00424799 -0.00403146,0.00461421 -0.00361699,0.0049458 -0.00317538,0.00524028 -0.00270994,0.00549543 -0.00222416,0.00570935 -0.0017217,0.00588042 -0.00120631,0.00600736 -0.00068187,0.00608922 -0.000152314,0.00612539 0.000378385,0.00611559 0.000906245,0.00605989 0.0014273,0.00595872 0.00193765,0.00581284 0.00243346,0.00562333 0.00291101,0.00539162 0.627634,0.90693 z "/>
<path fill="rgb(241,240,234)" stroke="rgb(241,240,234)" d="M 1.99452,3.75 l 0,-2.60835 0.348339,-4.44089e-16 0,2.60835 0,1.66786 0.43464,-0.101988 0.00602029,-0.00114005 0.00609636,-0.000614745 0.00612669,-8.4822e-05 0.00611105,0.000445737 0.00604954,0.000972951 0.00594264,0.00149286 0.00579114,0.00200157 0.00559618,0.00249526 0.00535923,0.00297023 0.00508206,0.0034229 0.00476675,0.00384989 0.00441567,0.00424799 0.00403146,0.00461421 0.00361699,0.0049458 0.00317538,0.00524028 0.00270994,0.00549543 0.00222416,0.00570935 0.0017217,0.00588042 0.00120631,0.00600736 0.00068187,0.00608922 0.000152314,0.00612539 -0.000378385,0.00611559 -0.000906245,0.00605989 -0.0014273,0.00595872 -0.00193765,0.00581284 -0.00243346,0.00562333 -0.00291101,0.00539162 -0.00538738,0.00778475 -0.622247,0.899145 -0.00374989,0.0049399 -0.00416895,0.00459175 -0.00455583,0.00420817 -0.00490756,0.00379211 -0.00522142,0.0033468 -0.00549499,0.00287566 -0.00572615,0.00238232 -0.00591313,0.00187061 -0.00605448,0.00134446 -0.00614911,0.000807931 -0.00619629,0.000265171 -0.00619565,-0.000279635 -0.00614721,-0.000822283 -0.00605132,-0.00135859 -0.00590875,-0.00188441 -0.00572058,-0.00239568 -0.00548826,-0.00288847 -0.00521359,-0.00335898 -0.0048987,-0.00380356 -0.004546,-0.00421879 -0.00415822,-0.00460147 -0.00373835,-0.00494864 -0.625976,-0.906794 -0.00323239,-0.00515498 -0.00276541,-0.00541984 -0.00227689,-0.00564251 -0.00177065,-0.00582125 -0.00125063,-0.00595467 -0.000720865,-0.00604173 -0.00018549,-0.00608176 0.000351328,-0.00607443 0.000885411,-0.00601982 0.0014126,-0.00591834 0.00192879,-0.00577078 0.00242997,-0.0055783 0.00291223,-0.00534239 0.00337181,-0.00506488 0.00380515,-0.00474795 0.00420886,-0.00439405 0.00457981,-0.00400594 0.0049151,-0.00358664 0.00521212,-0.00313942 0.00546856,-0.00266777 0.00568244,-0.00217534 0.00585207,-0.00166597 0.00597614,-0.00114364 0.00605369,-0.000612398 0.00608411,-7.63917e-05 0.00606716,0.000460209 0.00600297,0.000993227 0.00589205,0.00151851 0.433063,0.101988 0,-1.66786 z "/>
<path fill="rgb(0,91,140)" stroke="rgb(0,91,140)" d="M 5,7.5 l 0,-0.2 4.3,8.88178e-16 0.0435779,-0.00190265 0.0432462,-0.00569347 0.0425854,-0.00944096 0.0416005,-0.0131166 0.0402991,-0.0166924 0.0386909,-0.0201412 0.0367882,-0.0234367 0.0346056,-0.0265538 0.0321596,-0.0294688 0.0294688,-0.0321596 0.0265538,-0.0346056 0.0234367,-0.0367882 0.0201412,-0.0386909 0.0166924,-0.0402991 0.0131166,-0.0416005 0.00944096,-0.0425854 0.00569347,-0.0432462 0.00190265,-0.0435779 0,-6.1 -0.00190265,-0.0435779 -0.00569347,-0.0432462 -0.00944096,-0.0425854 -0.0131166,-0.0416005 -0.0166924,-0.0402991 -0.0201412,-0.0386909 -0.0234367,-0.0367882 -0.0265538,-0.0346056 -0.0294688,-0.0321596 -0.0321596,-0.0294688 -0.0346056,-0.0265538 -0.0367882,-0.0234367 -0.0386909,-0.0201412 -0.0402991,-0.0166924 -0.0416005,-0.0131166 -0.0425854,-0.00944096 -0.0432462,-0.00569347 -0.0435779,-0.00190265 -4.3,0 0,-0.2 4.3,0 0.061009,0.00266371 0.0605447,0.00797086 0.0596196,0.0132173 0.0582408,0.0183632 0.0564187,0.0233694 0.0541672,0.0281977 0.0515035,0.0328114 0.0484478,0.0371753 0.0450234,0.0412564 0.0412564,0.0450234 0.0371753,0.0484478 0.0328114,0.0515035 0.0281977,0.0541672 0.0233694,0.0564187 0.0183632,0.0582408 0.0132173,0.0596196 0.00797086,0.0605447 0.00266371,0.061009 0,6.1 -0.00266371,0.061009 -0.00797086,0.0605447 -0.0132173,0.0596196 -0.0183632,0.0582408 -0.0233694,0.0564187 -0.0281977,0.0541672 -0.0328114,0.0515035 -0.0371753,0.0484478 -0.0412564,0.0450234 -0.0450234,0.0412564 -0.0484478,0.0371753 -0.0515035,0.0328114 -0.0541672,0.0281977 -0.0564187,0.0233694 -0.0582408,0.0183632 -0.0596196,0.0132173 -0.0605447,0.00797086 -0.061009,0.00266371 -4.3,0 z "/>
<path fill="rgb(0,91,140)" stroke="rgb(0,91,140)" d="M 5,7.5 l -4.3,-8.88178e-16 -0.061009,-0.00266371 -0.0605447,-0.00797086 -0.0596196,-0.0132173 -0.0582408,-0.0183632 -0.0564187,-0.0233694 -0.0541672,-0.0281977 -0.0515035,-0.0328114 -0.0484478,-0.0371753 -0.0450234,-0.0412564 -0.0412564,-0.0450234 -0.0371753,-0.0484478 -0.0328114,-0.0515035 -0.0281977,-0.0541672 -0.0233694,-0.0564187 -0.0183632,-0.0582408 -0.0132173,-0.0596196 -0.00797086,-0.0605447 -0.00266371,-0.061009 8.88178e-16,-6.1 0.00266371,-0.061009 0.00797086,-0.0605447 0.0132173,-0.0596196 0.0183632,-0.0582408 0.0233694,-0.0564187 0.0281977,-0.0541672 0.0328114,-0.0515035 0.0371753,-0.0484478 0.0412564,-0.0450234 0.0450234,-0.0412564 0.0484478,-0.0371753 0.0515035,-0.0328114 0.0541672,-0.0281977 0.0564187,-0.0233694 0.0582408,-0.0183632 0.0596196,-0.0132173 0.0605447,-0.00797086 0.061009,-0.00266371 4.3,-8.88178e-16 0,0.2 -4.3,0 -0.0435779,0.00190265 -0.0432462,0.00569347 -0.0425854,0.00944096 -0.0416005,0.0131166 -0.0402991,0.0166924 -0.0386909,0.0201412 -0.0367882,0.0234367 -0.0346056,0.0265538 -0.0321596,0.0294688 -0.0294688,0.0321596 -0.0265538,0.0346056 -0.0234367,0.0367882 -0.0201412,0.0386909 -0.0166924,0.0402991 -0.0131166,0.0416005 -0.00944096,0.0425854 -0.00569347,0.0432462 -0.00190265,0.0435779 -8.88178e-16,6.1 0.00190265,0.0435779 0.00569347,0.0432462 0.00944096,0.0425854 0.0131166,0.0416005 0.0166924,0.0402991 0.0201412,0.0386909 0.0234367,0.0367882 0.0265538,0.0346056 0.0294688,0.0321596 0.0321596,0.0294688 0.0346056,0.0265538 0.0367882,0.0234367 0.0386909,0.0201412 0.0402991,0.0166924 0.0416005,0.0131166 0.0425854,0.00944096 0.0432462,0.00569347 0.0435779,0.00190265 4.3,0 0,0.2 z "/>
<path fill="rgb(241,240,234)" stroke="rgb(241,240,234)" d="M 5,0.4 l -8.88178e-16,-0.2 4.3,0 0.0435779,0.00190265 0.0432462,0.00569347 0.0425854,0.00944096 0.0416005,0.0131166 0.0402991,0.0166924 0.0386909,0.0201412 0.0367882,0.0234367 0.0346056,0.0265538 0.0321596,0.0294688 0.0294688,0.0321596 0.0265538,0.0346056 0.0234367,0.0367882 0.0201412,0.0386909 0.0166924,0.0402991 0.0131166,0.0416005 0.00944096,0.0425854 0.00569347,0.0432462 0.00190265,0.0435779 0,6.1 -0.00190265,0.0435779 -0.00569347,0.0432462 -0.00944096,0.0425854 -0.0131166,0.0416005 -0.0166924,0.0402991 -0.0201412,0.0386909 -0.0234367,0.0367882 -0.0265538,0.0346056 -0.0294688,0.0321596 -0.0321596,0.0294688 -0.0346056,0.0265538 -0.0367882,0.0234367 -0.0386909,0.0201412 -0.0402991,0.0166924 -0.0416005,0.0131166 -0.0425854,0.00944096 -0.0432462,0.00569347 -0.0435779,0.00190265 -4.3,-8.88178e-16 0,-0.2 4.3,0 0.0261467,-0.00114159 0.0259477,-0.00341608 0.0255513,-0.00566458 0.0249603,-0.00786996 0.0241794,-0.0100155 0.0232145,-0.0120847 0.0220729,-0.014062 0.0207634,-0.0159323 0.0192958,-0.0176813 0.0176813,-0.0192958 0.0159323,-0.0207634 0.014062,-0.0220729 0.0120847,-0.0232145 0.0100155,-0.0241794 0.00786996,-0.0249603 0.00566458,-0.0255513 0.00341608,-0.0259477 0.00114159,-0.0261467 0,-3.05 0,-3.05 -0.00114159,-0.0261467 -0.00341608,-0.0259477 -0.00566458,-0.0255513 -0.00786996,-0.0249603 -0.0100155,-0.0241794 -0.0120847,-0.0232145 -0.014062,-0.0220729 -0.0159323,-0.0207634 -0.0176813,-0.0192958 -0.0192958,-0.0176813 -0.0207634,-0.0159323 -0.0220729,-0.014062 -0.0232145,-0.0120847 -0.0241794,-0.0100155 -0.0249603,-0.00786996 -0.0255513,-0.00566458 -0.0259477,-0.00341608 -0.0261467,-0.00114159 -4.3,0 z "/>
<path fill="rgb(241,240,234)" stroke="rgb(241,240,234)" d="M 5,0.4 l -4.3,0 -0.0261467,0.00114159 -0.0259477,0.00341608 -0.0255513,0.00566458 -0.0249603,0.00786996 -0.0241794,0.0100155 -0.0232145,0.0120847 -0.0220729,0.014062 -0.0207634,0.0159323 -0.0192958,0.0176813 -0.0176813,0.0192958 -0.0159323,0.0207634 -0.014062,0.0220729 -0.0120847,0.0232145 -0.0100155,0.0241794 -0.00786996,0.0249603 -0.00566458,0.0255513 -0.00341608,0.0259477 -0.00114159,0.0261467 -8.88178e-16,3.05 0,3.05 0.00114159,0.0261467 0.00341608,0.0259477 0.00566458,0.0255513 0.00786996,0.0249603 0.0100155,0.0241794 0.0120847,0.0232145 0.014062,0.0220729 0.0159323,0.0207634 0.0176813,0.0192958 0.0192958,0.0176813 0.0207634,0.0159323 0.0220729,0.014062 0.0232145,0.0120847 0.0241794,0.0100155 0.0249603,0.00786996 0.0255513,0.00566458 0.0259477,0.00341608 0.0261467,0.00114159 4.3,8.88178e-16 0,0.2 -4.3,0 -0.0435779,-0.00190265 -0.0432462,-0.00569347 -0.0425854,-0.00944096 -0.0416005,-0.0131166 -0.0402991,-0.0166924 -0.0386909,-0.0201412 -0.0367882,-0.0234367 -0.0346056,-0.0265538 -0.0321596,-0.0294688 -0.0294688,-0.0321596 -0.0265538,-0.0346056 -0.0234367,-0.0367882 -0.0201412,-0.0386909 -0.0166924,-0.0402991 -0.0131166,-0.0416005 -0.00944096,-0.0425854 -0.00569347,-0.0432462 -0.00190265,-0.0435779 8.88178e-16,-6.1 0.00190265,-0.0435779 0.00569347,-0.0432462 0.00944096,-0.0425854 0.0131166,-0.0416005 0.0166924,-0.0402991 0.0201412,-0.0386909 0.0234367,-0.0367882 0.0265538,-0.0346056 0.0294688,-0.0321596 0.0321596,-0.0294688 0.0346056,-0.0265538 0.0367882,-0.0234367 0.0386909,-0.0201412 0.0402991,-0.0166924 0.0416005,-0.0131166 0.0425854,-0.00944096 0.0432462,-0.00569347 0.0435779,-0.00190265 4.3,0 8.88178e-16,0.2 z "/>
<path fill="rgb(241,240,234)" stroke="rgb(241,240,234)" d="M 8.57093,4.42605 l -0.00438846,0.00782177 0.00134921,-0.00266992 0.00146374,-0.00260889 0.00157551,-0.00254296 z "/>
<path fill="rgb(241,240,234)" stroke="rgb(241,240,234)" d="M 7.74286,4.26569 l 0,-0.51569 0,-2.60835 -0.348339,-8.88178e-16 8.88178e-16,2.60835 -8.88178e-16,0.668793 0.718775,0.659718 -0.369037,0.251246 -0.00491078,0.0036644 -0.00457521,0.00407566 -0.00420532,0.00445633 -0.00380386,0.00480356 -0.00337386,0.00511475 -0.00291854,0.00538755 -0.00244132,0.00561992 -0.00194577,0.00581012 -0.00143563,0.00595672 -0.000914712,0.00605862 -0.000386931,0.00611505 0.000143754,0.00612559 0.00067336,0.00609017 0.00119791,0.00600904 0.00171348,0.00588282 0.00221618,0.00571245 0.00270226,0.00549922 0.00316805,0.00524471 0.00361007,0.00495085 0.00402501,0.00461984 0.00440973,0.00425416 0.00476137,0.00385655 0.00507727,0.00343 0.00535507,0.00297771 0.00559269,0.00250308 0.00578833,0.00200966 0.00594054,0.00150117 1.09256,0.150865 0.00616751,0.000577313 0.00619438,3.4485e-05 0.00617356,-0.000508609 0.00610522,-0.00104779 0.00598987,-0.0015789 0.00582842,-0.00209786 0.0056221,-0.00260067 0.00537251,-0.00308345 0.00508155,-0.00354251 0.00475148,-0.00397429 0.00438483,-0.00437548 0.00398442,-0.00474298 0.00355335,-0.00507398 0.00309492,-0.00536591 0.00261266,-0.00561654 0.00211029,-0.00582393 0.00159168,-0.00598649 0.00106082,-0.00610296 0.000521787,-0.00617246 -2.12611e-05,-0.00619444 -0.000564145,-0.00616873 -0.00110269,-0.00609554 -2.84217e-14,-1.26121e-13 -0.244814,-1.0745 -0.00157929,-0.00576531 -0.00207265,-0.00560688 -0.00255043,-0.00540631 -0.00300905,-0.00516513 -0.00344506,-0.00488513 -0.00385519,-0.00456842 -0.00423634,-0.00421739 -0.00458566,-0.00383466 -0.00490053,-0.00342313 -0.00517857,-0.00298587 -0.00541769,-0.00252617 -0.00561611,-0.00204749 -0.00577233,-0.00155343 -0.00588518,-0.00104769 -0.0059538,-0.000534081 -0.00597768,-1.64586e-05 -0.00595665,0.000501287 -0.00589086,0.00101527 -0.0057808,0.00152162 -0.0056273,0.00201653 -0.00543152,0.0024963 -0.00519493,0.0029573 -0.0049193,0.00339609 -0.00460671,0.00380936 -0.0042595,0.004194 -0.00388028,0.00454712 -0.00347191,0.00486608 -0.00438846,0.00782177 -0.217697,0.388012 -0.60598,-0.556191 z "/>
<path fill="rgb(241,240,234)" stroke="rgb(241,240,234)" d="M 4.02675,6.32793 l -0.00374989,0.0049399 -0.00416895,0.00459175 -0.00455583,0.00420817 -0.00490756,0.00379211 -0.00522142,0.0033468 -0.00549499,0.00287566 -0.00572615,0.00238232 -0.00591313,0.00187061 -0.00605448,0.00134446 -0.00614911,0.000807931 -0.00619629,0.000265171 -0.00619565,-0.000279635 -0.00614721,-0.000822283 -0.00605132,-0.00135859 -0.00590875,-0.00188441 -0.00572058,-0.00239568 -0.00548826,-0.00288847 -0.00521359,-0.00335898 -0.0048987,-0.00380356 -0.004546,-0.00421879 -0.00415822,-0.00460147 -0.00373835,-0.00494864 -1.64313e-14,-2.22045e-14 -0.625976,-0.906794 -0.00323239,-0.00515498 -0.00276541,-0.00541984 -0.00227689,-0.00564251 -0.00177065,-0.00582125 -0.00125063,-0.00595467 -0.000720865,-0.00604173 -0.00018549,-0.00608176 0.000351328,-0.00607443 0.000885411,-0.00601982 0.0014126,-0.00591834 0.00192879,-0.00577078 0.00242997,-0.0055783 0.00291223,-0.00534239 0.00337181,-0.00506488 0.00380515,-0.00474795 0.00420886,-0.00439405 0.00457981,-0.00400594 0.0049151,-0.00358664 0.00521212,-0.00313942 0.00546856,-0.00266777 0.00568244,-0.00217534 0.00585207,-0.00166597 0.00597614,-0.00114364 0.00605369,-0.000612398 0.00608411,-7.63917e-05 0.00606716,0.000460209 0.00600297,0.000993227 0.00589205,0.00151851 0.433063,0.101988 0,-1.66786 0,-2.60835 0.348339,-4.44089e-16 -8.88178e-16,2.60835 0,1.66786 0.43464,-0.101988 0.00602029,-0.00114005 0.00609636,-0.000614745 0.00612669,-8.4822e-05 0.00611105,0.000445737 0.00604954,0.000972951 0.00594264,0.00149286 0.00579114,0.00200157 0.00559618,0.00249526 0.00535923,0.00297023 0.00508206,0.0034229 0.00476675,0.00384989 0.00441567,0.00424799 0.00403146,0.00461421 0.00361699,0.0049458 0.00317538,0.00524028 0.00270994,0.00549543 0.00222416,0.00570935 0.0017217,0.00588042 0.00120631,0.00600736 0.00068187,0.00608922 0.000152314,0.00612539 -0.000378385,0.00611559 -0.000906245,0.00605989 -0.0014273,0.00595872 -0.00193765,0.00581284 -0.00243346,0.00562333 -0.00291101,0.00539162 -0.00538738,0.00778475 -0.622247,0.899145 z "/>
<path fill="rgb(241,240,234)" stroke="rgb(241,240,234)" d="M 5.82674,6.32793 l 9.36278e-05,-0.00013563 -3.11741e-05,4.52343e-05 -3.12093e-05,4.521e-05 -3.12444e-05,4.51857e-05 z "/>
<path fill="rgb(241,240,234)" stroke="rgb(241,240,234)" d="M 6.37592,5.31587 l 0.00287933,-0.000811381 0.00291181,-0.000685742 0.00293881,-0.000558812 -0.00872994,0.00205594 z "/>
<path fill="rgb(241,240,234)" stroke="rgb(241,240,234)" d="M 5.71063,6.32793 l 0.00374511,0.00493413 0.00416319,0.00458687 0.00454922,0.0042043 0.00490023,0.00378936 0.00521352,0.00334525 0.00548668,0.00287539 0.0057176,0.00238339 0.00590451,0.00187305 0.00604596,0.00134829 0.00614087,0.000813147 0.00618851,0.000271746 0.00618851,-0.000271746 0.00614087,-0.000813147 0.00604596,-0.00134829 0.00590451,-0.00187305 0.0057176,-0.00238339 0.00548668,-0.00287539 0.00521352,-0.00334525 0.00490023,-0.00378936 0.00454922,-0.0042043 0.00416319,-0.00458687 0.00374511,-0.00493413 9.36278e-05,-0.00013563 0.625976,-0.906794 0.00317954,-0.00506196 0.00272921,-0.0053183 0.00225838,-0.00553468 0.00177058,-0.00570947 0.00126947,-0.00584135 0.000758822,-0.00592935 0.000242473,-0.00597278 -0.000275698,-0.00597134 -0.000791797,-0.00592503 -0.00130195,-0.0058342 -0.00180231,-0.00569953 -0.00228914,-0.00552203 -0.00275876,-0.00530304 -0.00320765,-0.0050442 -0.00363244,-0.00474745 -0.00402994,-0.00441504 -0.00439715,-0.00404944 -0.00473133,-0.00365342 -0.00502995,-0.00322995 -0.00529077,-0.00278221 -0.00551184,-0.00231356 -0.00569149,-0.00182753 -0.00582838,-0.00132776 -0.00592147,-0.000818019 -0.00597006,-0.000302129 -0.0059738,0.00021603 -0.00593265,0.000732567 -0.00872994,0.00205594 -0.433063,0.101988 0,-1.66786 0,-2.60835 -0.348339,-4.44089e-16 0,2.60835 0,1.66786 -0.43464,-0.101988 -0.00602029,-0.00114005 -0.00609636,-0.000614745 -0.00612669,-8.4822e-05 -0.00611105,0.000445737 -0.00604954,0.000972951 -0.00594264,0.00149286 -0.00579114,0.00200157 -0.00559618,0.00249526 -0.00535923,0.00297023 -0.00508206,0.0034229 -0.00476675,0.00384989 -0.00441567,0.00424799 -0.00403146,0.00461421 -0.00361699,0.0049458 -0.00317538,0.00524028 -0.00270994,0.00549543 -0.00222416,0.00570935 -0.0017217,0.00588042 -0.00120631,0.00600736 -0.00068187,0.00608922 -0.000152314,0.00612539 0.000378385,0.00611559 0.000906245,0.00605989 0.0014273,0.00595872 0.00193765,0.00581284 0.00243346,0.00562333 0.00291101,0.00539162 0.627634,0.90693 z "/>
</g></g></svg>
