<?xml version="1.0" encoding="UTF-8" standalone="no"?>
<!DOCTYPE svg PUBLIC "-//W3C//DTD SVG 1.1//EN" "http://www.w3.org/Graphics/SVG/1.1/DTD/svg11-flat.dtd"
[

]>
<svg xmlns="http://www.w3.org/2000/svg"  viewBox="-0.05625 -0.05625 4.6125 7.6125"><g fill="none" stroke="black" stroke-width="0.0125" transform="translate(0,7.5) scale(1, -1)">
<g id="Output" >
<path fill="rgb(241,240,234)" stroke="rgb(241,240,234)" d="M 2.58113,1.41001 l 0.0767496,-0.147854 -0.0259336,-0.0174805 -0.0243825,-0.0195861 -0.0226609,-0.0215547 -0.0207808,-0.0233726 -0.0187555,-0.025027 -0.016599,-0.0265065 -0.0143264,-0.0278006 -0.0119537,-0.0289003 -0.00949733,-0.029798 -0.00697459,-0.0304873 -0.00440308,-0.0309634 -0.0966717,0 0.196189,0.429331 z M 2.69486,1.18823 l 0.108033,-0.20755 -0.238833,0 0.0045093,0.0248763 0.00660776,0.0244029 0.00865838,0.0237528 0.0106463,0.0229307 0.0125572,0.0219427 0.0143771,0.0207957 0.0160929,0.0194982 0.0176923,0.0180595 0.0191635,0.0164901 0.020496,0.0148013 z M 2.56406,0.901059 l 0.304222,0 0.00331672,0.000142474 0.00329228,0.000426372 0.00324359,0.000707129 0.00317101,0.000982676 0.00307506,0.00125098 0.00295645,0.00151007 0.00281606,0.00175804 0.00265493,0.00199305 0.00247424,0.00221338 0.00227532,0.00241741 0.00205963,0.00260362 0.00182877,0.00277065 0.00158444,0.00291727 0.00132844,0.0030424 0.00106264,0.00314511 0.000789024,0.00322465 0.00050959,0.00328043 0.000226401,0.00331205 -5.84551e-05,0.00331926 -0.000342881,0.00330202 -0.00062478,0.00326046 -0.000902077,0.00319487 -0.00117273,0.00310574 -0.00143474,0.00299374 -0.13647,0.26727 0.0246679,0.00729623 0.0252015,0.00515999 0.0255504,0.00298595 0.0257122,0.000790032 0.0256855,-0.00141167 0.0254707,-0.00360304 0.0250693,-0.005768 0.0244842,-0.00789071 0.0237197,-0.0099556 0.0227815,-0.0119476 0.0216763,-0.013852 0.0204123,-0.0156549 0.0189988,-0.0173432 0.0174461,-0.0189043 0.0157655,-0.020327 0.0139695,-0.0216008 0.0120711,-0.0227162 0.0100843,-0.0236653 0.00802355,-0.024441 0.00590405,-0.0250376 0.00374129,-0.0254508 0.00155113,-0.0256775 -0.0006504,-0.0257161 -0.00284716,-0.0255662 -0.00527108,-0.0262556 -0.0075792,-0.0256846 -0.00982757,-0.024911 -0.0119985,-0.0239411 -0.0140748,-0.0227825 -0.0160401,-0.0214442 -0.017879,-0.0199369 -0.019577,-0.0182725 -0.0211206,-0.0164639 -0.0224977,-0.0145256 -0.0236975,-0.0124728 -0.0247104,-0.0103217 -0.0255285,-0.00808914 -0.0261454,-0.00579285 -0.0265562,-0.0034509 -0.0267576,-0.00108174 -0.0267481,0.00129595 -0.0267517,0.00370791 -0.0263113,0.00609236 -0.0256589,0.0084277 -0.0247995,0.0106951 -0.0237403,0.0128763 -0.0224898,0.0149537 -0.0210579,0.0169106 -0.0194563,0.0187311 -0.0176979,0.0204007 -0.0157968,0.0219058 -0.0137684,0.0232344 -0.0116289,0.0243756 -0.0093958,0.0253204 -0.00708691,0.0260611 -0.0047209,0.0265917 z M 2.62378,1.50099 l 0.0259013,0.0576958 -0.387894,0 0,-0.0747487 0.265321,0 -0.216088,-0.477666 -0.0492329,0.0547757 0,-0.118089 0.0378488,-0.0418967 0.181982,0 0.00533354,-0.033595 0.00828254,-0.032992 0.0111667,-0.0321306 0.0139634,-0.0310177 0.0166508,-0.0296618 0.0192078,-0.0280737 0.0216144,-0.0262658 0.0238517,-0.0242522 0.0259023,-0.0220487 0.02775,-0.0196725 0.0293805,-0.0171423 0.0307809,-0.0144779 0.0319402,-0.0117001 0.0328495,-0.00883071 0.0335016,-0.00589216 0.0338913,-0.00290747 0.0340156,9.99945e-05 0.0338736,0.00310667 0.0334663,0.00608902 0.032797,0.00902369 0.0318709,0.0118877 0.0306952,0.0146586 0.0289982,0.0171557 0.0273609,0.019662 0.0255076,0.022013 0.023453,0.0241903 0.0212131,0.0261766 0.0188059,0.0279562 0.0162501,0.0295152 0.0135661,0.0308411 0.0107749,0.0319235 0.00789875,0.032754 0.00496019,0.0333258 0.00198247,0.0336345 -0.00101089,0.0336777 -0.00399628,0.0334551 -0.00695012,0.0329683 -0.00984909,0.0322212 -0.0126703,0.0312198 -0.0153915,0.0299719 -0.0179912,0.0284874 -0.0204488,0.026778 -0.0227338,0.0248676 -0.0248306,0.0227741 -0.0267355,0.0205045 -0.0284335,0.0180763 -0.0299117,0.0155083 -0.0311586,0.0128204 -0.0321644,0.0100333 -0.0329216,0.00716865 -0.0334241,0.00424854 -0.0336681,0.00129558 -0.0336517,-0.00166741 -0.0333751,-0.0046175 -0.0328404,-0.00753187 -0.0320516,-0.010388 -0.105187,0.204704 z "/>
<path fill="rgb(241,240,234)" stroke="rgb(241,240,234)" d="M 1.77933,1.20813 l 0.0226254,-0.0126598 0.0214483,-0.0145653 0.0201112,-0.0163621 0.0186241,-0.0180367 0.0169979,-0.0195768 0.0152449,-0.0209708 0.0133781,-0.0222082 0.0114115,-0.02328 0.0093597,-0.024178 0.00723807,-0.0248956 0.00506243,-0.0254274 0.00284901,-0.0257694 0.000614332,-0.0259191 -0.00162493,-0.0258754 -0.00385207,-0.0256386 -0.00605046,-0.0252105 -0.0082037,-0.0245943 -0.0102957,-0.0237945 -0.0123109,-0.0228171 -0.0142342,-0.0216695 -0.0160513,-0.0203601 -0.0177486,-0.0188988 -0.0193135,-0.0172965 -0.0209371,-0.0157114 -0.02222,-0.0138376 -0.0233357,-0.0118597 -0.0242758,-0.00979251 -0.0250332,-0.00765164 -0.0256022,-0.00545318 -0.0259784,-0.00321368 -0.0261592,-0.000949994 -0.0261431,0.00132084 -0.0259303,0.00358174 -0.0255223,0.00581568 -0.0249222,0.00800585 -0.0241345,0.0101358 -0.0231652,0.0121894 -0.0220215,0.0141513 -0.0207122,0.0160067 -0.0192469,0.0177416 -0.0176368,0.019343 -0.0158939,0.0207988 -0.0140314,0.0220981 -0.0120634,0.0232311 -0.0100045,0.0241892 -0.00787033,0.0249653 -0.00567693,0.0255535 -0.00344081,0.0259493 -0.00117879,0.0261499 0.0010444,0.0254863 0.0032101,0.0253049 0.00535249,0.0249398 0.00745604,0.0243937 0.00950545,0.0236705 0.0114859,0.0227754 0.0133829,0.021715 0.0151828,0.020497 0.0168725,0.0191302 0.0184397,0.0176245 0.019873,0.0159909 0.0211621,0.0142412 0.0222975,0.0123881 0.0232711,0.0104451 0.0240758,0.00842625 0.0247056,0.00634625 0.0251562,0.00422018 0.0254241,0.00206347 0.0255075,-0.000108211 0.0254057,-0.00227911 0.0251195,-0.00443346 -0.0995177,-0.281477 -0.00102528,-0.00336221 -0.00072682,-0.00343909 -0.000422774,-0.00348954 -0.000115478,-0.00351316 0.000192706,-0.00350977 0.000499408,-0.0034794 0.000802271,-0.00342228 0.00109897,-0.00333885 0.00138721,-0.00322975 0.00166479,-0.00309582 0.00192958,-0.00293809 0.00217952,-0.00275777 0.00241272,-0.00255625 0.00262736,-0.00233508 0.00282181,-0.00209596 0.00299456,-0.00184072 0.00314429,-0.00157134 0.00326984,-0.00128987 0.00337026,-0.000998483 0.00344477,-0.000699423 0.0034928,-0.000394985 0.00351397,-8.75113e-05 0.00350813,0.000220636 0.00347532,0.000527086 0.00341579,0.000829485 0.00333,0.00112551 0.00321861,0.00141288 0.00308247,0.00168938 0.00292264,0.0019529 0.00274034,0.00220141 0.00253697,0.00243299 0.0023141,0.00264586 0.00207343,0.0028384 0.00181683,0.00300911 0.00154626,0.00315669 0.0012638,0.00328001 0.000971626,0.0033781 0.0966717,0.278631 z M 2.26178,1.48394 l 0,0.0747487 -0.441979,0 -0.0859604,-0.245347 -0.0325398,0.00632184 -0.0329646,0.00348337 -0.0331424,0.000618783 -0.0330717,-0.00225044 -0.0327531,-0.0051028 -0.0321889,-0.00791689 -0.0313834,-0.0106716 -0.0303426,-0.0133464 -0.0290744,-0.0159211 -0.0275882,-0.0183764 -0.0258952,-0.020694 -0.024008,-0.0228564 -0.0219409,-0.0248475 -0.0197093,-0.0266523 -0.0173299,-0.0282573 -0.0148206,-0.0296505 -0.0122002,-0.0308214 -0.00948836,-0.0317612 -0.00670537,-0.0324629 -0.0038721,-0.0329212 -0.00100982,-0.0331328 0.00186004,-0.0330959 0.00471596,-0.032811 0.00753652,-0.0322801 0.0103006,-0.0315071 0.0129874,-0.030498 0.0155769,-0.0292602 0.0180496,-0.0278031 0.020387,-0.0261376 0.0225715,-0.0242761 0.0245869,-0.0222326 0.0268331,-0.0202991 0.0285207,-0.0178505 0.0299854,-0.0152625 0.0312159,-0.0125553 0.0322026,-0.00974996 0.0329377,-0.00686849 0.0334155,-0.00393337 0.0336323,-0.000967513 0.0335864,0.0020059 0.0332781,0.00496364 0.0327098,0.00788261 0.0318861,0.01074 0.0308132,0.0135135 0.0294997,0.0161814 0.0279557,0.018723 0.0261933,0.0211182 0.0242263,0.0233485 0.0220701,0.0253964 0.0197415,0.027246 0.0172586,0.0288827 0.0142039,0.0292635 0.0116668,0.0303642 0.00904546,0.0312455 0.00635871,0.0319009 0.003626,0.0323257 0.000867079,0.0325169 -0.00189811,0.032473 -0.00464958,0.0321945 -0.00736744,0.0316832 -0.010032,0.0309428 -0.0126241,0.0299789 -0.015125,0.0287982 -0.0175165,0.0274094 -0.0197814,0.0258224 -0.0219033,0.0240488 -0.0238669,0.0221014 -0.025658,0.0199942 -0.0272636,0.0177425 -0.0286722,0.0153626 0.0398094,0.116571 0.414215,-0.458515 0,0.118089 -0.380098,0.422891 0.380098,0 z "/>
<path fill="rgb(241,240,234)" stroke="rgb(241,240,234)" d="M 1.8198,1.55868 l 0.441979,0 0,0.00200097 -0.357353,0 0.0455168,0.121266 0.0020633,0.00483329 0.00248378,0.00463128 0.00288469,0.00439278 0.00326287,0.00411966 0.00361534,0.00381408 0.00393932,0.00347845 0.00423227,0.00311541 0.00449187,0.00272783 0.00471607,0.00231875 0.00490311,0.0018914 0.00505152,0.00144914 0.00516013,0.000995473 0.00522808,0.000533958 0.00525483,6.82352e-05 0.00524018,-0.000398025 0.0995177,0 0,0.0795956 -0.113707,-0.00011842 -0.0114521,-0.000504945 -0.0113664,-0.00148724 -0.0111965,-0.00245854 -0.0109438,-0.00341164 -0.0106102,-0.00433951 -0.010198,-0.00523526 -0.00971035,-0.00609228 -0.00915087,-0.00690422 -0.00852368,-0.00766508 -0.00783343,-0.00836923 -0.00708522,-0.00901145 -0.00628459,-0.009587 -0.00543746,-0.0100916 -0.0045501,-0.0105216 -0.00362907,-0.0108737 -0.0505091,-0.144162 z "/>
<path fill="rgb(241,240,234)" stroke="rgb(241,240,234)" d="M 2.64968,1.55868 l 0.0366415,0.0816198 0.0938257,0 0,0.0796188 -0.292838,0 -0.00346962,-0.000151487 -0.00344321,-0.000453307 -0.0033906,-0.000751678 -0.00331218,-0.00104433 -0.00320856,-0.00132903 -0.00308052,-0.00160362 -0.00292903,-0.001866 -0.00275525,-0.00211418 -0.00256051,-0.00234627 -0.00234627,-0.00256051 -0.00211418,-0.00275525 -0.001866,-0.00292903 -0.00160362,-0.00308052 -0.00132903,-0.00320856 -0.00104433,-0.00331218 -0.000751678,-0.0033906 -0.000453307,-0.00344321 -0.000151487,-0.00346962 0.000151487,-0.00346962 0.000453307,-0.00344321 0.000751678,-0.0033906 0.00104433,-0.00331218 0.00132903,-0.00320856 0.00160362,-0.00308052 0.001866,-0.00292903 0.00211418,-0.00275525 0.00234627,-0.00256051 0.00256051,-0.00234627 0.00275525,-0.00211418 0.00292903,-0.001866 0.00308052,-0.00160362 0.00320856,-0.00132903 0.00331218,-0.00104433 0.0033906,-0.000751678 0.00344321,-0.000453307 0.00346962,-0.000151487 0.113725,0 -0.036975,-0.0796188 -0.302273,0 0,-0.00200097 0.387894,0 z "/>
<path fill="rgb(241,240,234)" stroke="rgb(241,240,234)" d="M 1.85662,2.86505 l 0.116868,0 0.0197393,0.0460555 0.00237425,0.00590712 0.00288448,0.00567547 0.00337237,0.00539984 0.00383413,0.00508238 0.00426618,0.00472555 0.00466519,0.00433211 0.00502805,0.0039051 0.00535196,0.00344785 0.00563441,0.00296388 0.00587321,0.00245695 0.0060665,0.00193098 0.0062128,0.00139006 0.00631097,0.000838367 0.00636024,0.000280179 0.11089,0 0,0.108044 -0.139327,0 -0.0102839,0.000492141 -0.010287,-0.00042212 -0.010209,-0.00133305 -0.0100505,-0.00223347 -0.00981271,-0.00311628 -0.00949756,-0.00397452 -0.00910752,-0.00480141 -0.00864566,-0.00559044 -0.00811563,-0.00633539 -0.00752159,-0.00703037 -0.00686824,-0.00766992 -0.00616074,-0.00824899 -0.00540465,-0.00876301 -0.00460594,-0.00920792 -0.0598345,-0.134201 z "/>
<path fill="rgb(241,240,234)" stroke="rgb(241,240,234)" d="M 1.53428,1.99562 l -0.0193876,0.00870252 -0.0185466,0.0103747 -0.0175618,0.0119663 -0.0164408,0.0134652 -0.0151922,0.0148596 -0.0138258,0.0161387 -0.0123522,0.0172927 -0.0107827,0.0183124 -0.00912954,0.0191902 -0.00740559,0.0199191 -0.0056242,0.0204934 -0.00379917,0.0209088 -0.00194468,0.021162 -7.50977e-05,0.021251 0.00179507,0.0211752 0.0036513,0.0209351 0.00547922,0.0205327 0.00726463,0.0199709 0.00899369,0.0192542 0.010653,0.0183882 0.0122296,0.0173795 0.0137114,0.016236 0.0150868,0.0149666 0.0163452,0.0135811 0.0174768,0.0120902 0.0184729,0.0105055 0.0193256,0.00883933 0.0200284,0.00710459 0.0205758,0.00531474 0.0209637,0.00348366 0.0211889,0.00162556 0.0212497,-0.000245146 0.0211458,-0.00211395 0.0208777,-0.00396636 -0.105849,-0.229863 -0.00173587,-0.00424822 -0.00135901,-0.00438334 -0.000971806,-0.00448511 -0.000577205,-0.00455274 -0.000178211,-0.00458572 0.000222139,-0.0045838 0.000620799,-0.004547 0.00101473,-0.00447559 0.00140095,-0.00437012 0.0017765,-0.00423139 0.00213853,-0.00406046 0.00248428,-0.00385862 0.00281113,-0.00362742 0.00311658,-0.00336861 0.00339831,-0.00308416 0.00365419,-0.00277624 0.00388225,-0.0024472 0.00408076,-0.00209952 0.00424822,-0.00173587 0.00438334,-0.00135901 0.00448511,-0.000971806 0.00455274,-0.000577205 0.00458572,-0.000178211 0.0045838,0.000222139 0.004547,0.000620799 0.00447559,0.00101473 0.00437012,0.00140095 0.00423139,0.0017765 0.00406046,0.00213853 0.00385862,0.00248428 0.00362742,0.00281113 0.00336861,0.00311658 0.00308416,0.00339831 0.00277624,0.00365419 0.0024472,0.00388225 0.00209952,0.00408076 0.105849,0.229863 0.0158082,-0.0136924 0.0145687,-0.0150044 0.0132208,-0.0162046 0.0117744,-0.0172842 0.0102403,-0.018235 0.00862991,-0.01905 0.00695527,-0.0197232 0.00522882,-0.0202494 0.00346343,-0.0206248 0.00167225,-0.0208466 -0.000131389,-0.0209132 -0.00193405,-0.020824 -0.00372231,-0.0205797 -0.00548284,-0.0201821 -0.00720254,-0.0196342 -0.00886859,-0.0189401 -0.0104686,-0.0181049 -0.0119906,-0.0171349 -0.0134234,-0.0160372 -0.0147561,-0.0148201 -0.015979,-0.0134927 -0.0170828,-0.0120647 -0.0180594,-0.0105469 -0.0189015,-0.00895051 -0.0196028,-0.00728748 -0.0201582,-0.00557017 -0.0205634,-0.00381138 -0.0208154,-0.0020242 -0.0209124,-0.000221939 -0.0208537,0.00158197 -0.0206396,0.0033741 -0.0202719,0.0051411 -0.0197531,0.0068698 z M 2.2707,2.16618 l 0,0.112639 -0.000198576,8.59045e-05 -0.00592789,0.0032326 -0.00560979,0.00375764 -0.00524531,0.00425162 -0.00483748,0.00471046 -0.00438965,0.00513036 -0.00390554,0.00550785 -0.0511818,0.0796188 0.0812961,0.175718 0,0.0667553 -0.0879213,0.142872 -0.00242629,0.00342476 -0.00272715,0.00319038 -0.00300549,0.00292966 -0.00325901,0.00264475 -0.00348562,0.00233801 -0.00368346,0.00201196 -0.00385088,0.0016693 -0.00398651,0.00131286 -0.00408922,0.000945576 -0.00415817,0.000570487 -0.00419279,0.000190687 -0.20187,0 0.0314425,0.0733611 -0.116868,0 -0.139189,-0.312183 -0.0653887,0.0113609 0,0.0853108 -0.038987,-0.000274391 -0.0388225,-0.00358794 -0.038377,-0.0068755 -0.0376535,-0.0101133 -0.0366574,-0.0132778 0.0369518,-0.0796188 -0.0276623,-0.0110807 -0.0265873,-0.0134573 -0.0253087,-0.0157308 -0.023836,-0.0178838 -0.0221808,-0.0198997 -0.0203556,-0.0217632 -0.0183744,-0.0234599 -0.0162525,-0.0249769 -0.014006,-0.0263024 -0.0116522,-0.0274265 -0.00920914,-0.0283404 -0.0066955,-0.0290372 -0.00413057,-0.0295114 -0.00153398,-0.0297596 0.00107436,-0.0297797 0.00367446,-0.0295717 0.00624642,-0.0291371 0.00877051,-0.0284792 0.0112274,-0.0276031 0.0135983,-0.0265155 0.0158649,-0.0252248 0.0180101,-0.0237408 0.0200172,-0.0220749 0.0218709,-0.0202398 0.0235571,-0.0182497 0.0250628,-0.0161197 0.0263764,-0.0138662 0.0276729,-0.0126288 0.0286628,-0.0101842 0.0294372,-0.0076631 0.0299904,-0.00508438 0.0303181,-0.00246743 0.0304179,0.000168057 0.030289,0.00280228 0.0299324,0.00541545 0.0293508,0.0079879 0.0285485,0.0105003 0.0275317,0.0129338 0.0263078,0.01527 0.0248862,0.0174914 0.0232775,0.0195814 0.0214939,0.0215241 0.0195486,0.0233051 0.0174564,0.0249108 0.0152329,0.0263293 0.012895,0.0275498 0.0104601,0.0285633 0.00794657,0.029362 0.0053733,0.02994 0.00275964,0.0302929 0.000125237,0.0304181 -0.00251011,0.0303146 -0.00512659,0.0299832 -0.00770453,0.0294264 -0.0102245,0.0286484 -0.0126677,0.0276551 -0.0150156,0.0264538 -0.0172507,0.0250537 -0.019356,0.0234653 -0.0213159,0.0217004 -0.0231155,0.0197724 -0.0247413,0.0176958 0.0710808,0.164906 0.287169,-0.469128 0.0043048,-0.00630908 0.00482207,-0.00592313 0.00530491,-0.00549488 0.00574987,-0.0050274 0.00615378,-0.00452403 0.00651375,-0.00398835 0.00682721,-0.00342419 0.00709192,-0.00283558 0.00730599,-0.00222673 0.0074679,-0.00160197 0.00757648,-0.000965783 0.00763097,-0.000322696 0.0187533,0 z "/>
<path fill="rgb(241,240,234)" stroke="rgb(241,240,234)" d="M 2.2707,2.62759 l 0,-0.0667553 0.00683758,0.0147792 0.00160833,0.00400092 0.0012466,0.00412796 0.00087501,0.00422237 0.000496506,0.00428341 0.000114077,0.00431058 -0.000269253,0.00430367 -0.000650455,0.00426275 -0.00102652,0.00418812 -0.00139446,0.00408039 -0.00175138,0.0039404 -0.00209446,0.00376926 -0.00399157,0.00648631 z M 3.15585,2.227 l 0.000204579,-0.0212502 -0.00166601,-0.0211858 -0.00352368,-0.020957 -0.00535401,-0.0205657 -0.00714281,-0.0200148 -0.0088762,-0.0193087 -0.0105407,-0.0184528 -0.0121235,-0.0174537 -0.0136122,-0.0163193 -0.0149954,-0.0150582 -0.0162622,-0.0136804 -0.0174028,-0.0121964 -0.0184085,-0.0106179 -0.0192714,-0.00895691 -0.0199847,-0.00722649 -0.0205431,-0.00544001 -0.0209421,-0.00361133 -0.0211786,-0.00175464 -0.0212508,0.000115666 -0.0211582,0.00198507 -0.0209015,0.00383908 -0.0204826,0.00566331 -0.0199049,0.00744361 -0.0191727,0.00916616 -0.0182918,0.0108176 -0.017269,0.0123851 -0.0161123,0.0138566 -0.0148306,0.0152206 -0.0134338,0.0164665 -0.0119328,0.0175847 -0.0103392,0.0185664 -0.00866549,0.0194041 -0.00692452,0.0200914 -0.00512983,0.0206227 0.253063,0 0.00458481,0.000200177 0.00454992,0.000599009 0.0044804,0.000993281 0.00437678,0.00137999 0.00423985,0.0017562 0.00407065,0.00211905 0.00387048,0.00246577 0.00364084,0.00279372 0.0033835,0.00310041 0.00310041,0.0033835 0.00279372,0.00364084 0.00246577,0.00387048 0.00211905,0.00407065 0.0017562,0.00423985 0.00137999,0.00437678 0.000993281,0.0044804 0.000599009,0.00454992 0.000200177,0.00458481 -0.000200177,0.00458481 -0.000599009,0.00454992 -0.000993281,0.0044804 -0.00137999,0.00437678 -0.0017562,0.00423985 -0.00211905,0.00407065 -0.00246577,0.00387048 -0.00279372,0.00364084 -0.00310041,0.0033835 -0.0033835,0.00310041 -0.00364084,0.00279372 -0.00387048,0.00246577 -0.00407065,0.00211905 -0.00423985,0.0017562 -0.00437678,0.00137999 -0.0044804,0.000993281 -0.00454992,0.000599009 -0.00458481,0.000200177 -0.253063,0 0.00582498,0.020086 0.00753511,0.019509 0.00918913,0.0187867 0.0107747,0.0179244 0.01228,0.0169287 0.0136939,0.0158068 0.0150058,0.0145673 0.0162059,0.0132192 0.0172853,0.0117727 0.018236,0.0102385 0.0190509,0.00862805 0.0197238,0.00695334 0.0202499,0.00522685 0.0206252,0.00346142 0.0208468,0.00167021 0.0209132,-0.000133431 0.0208238,-0.00193608 0.0205793,-0.00372431 0.0201816,-0.00548481 0.0196335,-0.00720445 0.0189392,-0.00887044 0.0181039,-0.0104704 0.0171337,-0.0119923 0.0160359,-0.0134249 0.0148187,-0.0147576 0.0134911,-0.0159803 0.012063,-0.017084 0.0105451,-0.0180604 0.00894867,-0.0189024 0.00728557,-0.0196036 0.0055682,-0.0201587 0.00380937,-0.0205637 0.00202216,-0.0208156 z M 2.2707,2.27882 l 0,-0.112639 0.296853,0 0.00565587,-0.0303502 0.00830826,-0.0297338 0.010896,-0.028886 0.013399,-0.0278135 0.0157977,-0.0265246 0.0180736,-0.0250294 0.0202088,-0.0233394 0.0221868,-0.0214678 0.0239922,-0.0194293 0.025611,-0.0172396 0.0270304,-0.0149157 0.0282396,-0.0124758 0.0292291,-0.00993887 0.0299912,-0.0073246 0.03052,-0.00465335 0.0308113,-0.00194589 0.0308629,0.000776705 0.0306744,0.00349326 0.0302473,0.00618263 0.0295848,0.00882391 0.0286922,0.0113965 0.0275763,0.0138805 0.026246,0.0162565 0.0247114,0.018506 0.0229845,0.0206115 0.0210789,0.0225567 0.0190092,0.0243264 0.0167917,0.0259068 0.0144435,0.0272857 0.011983,0.0284523 0.00942924,0.0293975 0.00680212,0.030114 0.00412207,0.0305963 0.00140996,0.0308405 -0.0012933,0.0305778 -0.00396598,0.030347 -0.00660818,0.0298832 -0.00919961,0.0291897 -0.0117204,0.028272 -0.0141511,0.027137 -0.016473,0.0257936 -0.0186685,0.024252 -0.0207205,0.0225241 -0.0226133,0.0206231 -0.0243323,0.0185637 -0.0258644,0.0163616 -0.0271978,0.0140339 -0.0283223,0.0115983 -0.0292291,0.00907361 -0.0299114,0.00647921 -0.0303639,0.00383503 -0.0305831,0.00116139 -0.0305673,-0.00152118 -0.0303166,-0.00419206 -0.0298331,-0.00683073 -0.0291203,-0.00941692 -0.0281838,-0.0119308 -0.0270308,-0.0143529 -0.0256701,-0.0166648 -0.0241122,-0.0188487 -0.022369,-0.0208878 -0.020454,-0.0227663 -0.0183818,-0.02447 -0.0161684,-0.0259857 -0.0138308,-0.0273017 -0.0113869,-0.0284079 -0.00885549,-0.0292959 -0.00625608,-0.0299589 -0.26727,0 -0.00674533,0.000300284 -0.00669017,0.000911692 -0.00657972,0.00151556 -0.00641487,0.00210691 -0.00599842,0.00259493 z "/>
<path fill="rgb(241,240,234)" stroke="rgb(241,240,234)" d="M 2.89167,2.64954 l 0.278654,0 0,0.14215 -0.605621,0 -0.00354827,-0.000153764 -0.00352167,-0.000460139 -0.00346866,-0.000763065 -0.00338964,-0.00106027 -0.00328522,-0.00134952 -0.00315616,-0.00162866 -0.00300343,-0.00189559 -0.00282819,-0.0021483 -0.00263175,-0.00238491 -0.00241557,-0.00260363 -0.00218128,-0.00280283 -0.00193064,-0.00298102 -0.00166552,-0.00313686 -0.00138791,-0.00326918 -0.0010999,-0.00337699 -0.000803643,-0.00345948 -0.000501359,-0.00351603 -0.000195317,-0.00354623 0.00011219,-0.00354983 0.000418856,-0.00352681 0.000722382,-0.00347736 0.00102049,-0.00340183 0.00131095,-0.0033008 0.00159158,-0.00317502 0.0699666,-0.14944 0.00162164,-0.00296566 0.00187211,-0.00281426 0.00210855,-0.00264176 0.00232917,-0.00244946 0.00253234,-0.00223879 0.00271651,-0.00201133 0.00288032,-0.00176879 0.00302254,-0.001513 0.00314209,-0.00124586 0.00323809,-0.000969374 0.00330981,-0.000685624 0.00335671,-0.000396734 0.00337845,-0.00010487 0.00337485,0.000187781 0.00334596,0.000479024 0.00329198,0.000766676 0.00321331,0.00104858 0.00311056,0.00132262 0.00298448,0.00158675 0.0358081,0.0231455 0.0377991,0.0197272 0.0394647,0.016139 0.0407906,0.012412 0.0417654,0.00857806 0.0423806,0.00467032 z "/>
<path fill="rgb(0,91,140)" stroke="rgb(0,91,140)" d="M 1.4,5.4 l 1,0 0,1 -1,0 0,-1 z "/>
<path fill="rgb(0,91,140)" stroke="rgb(0,91,140)" d="M 1.4,6.4 l 1,0 0,0.7 -0.15,0 -0.85,0 0,-0.7 z "/>
<path fill="rgb(0,91,140)" stroke="rgb(0,91,140)" d="M 3.4,0.4 l 0,1 -0.724333,0 0.0532942,-0.103716 0.0320516,0.010388 0.0328404,0.00753187 0.0333751,0.0046175 0.0336517,0.00166741 0.0336681,-0.00129558 0.0334241,-0.00424854 0.0329216,-0.00716865 0.0321644,-0.0100333 0.0311586,-0.0128204 0.0299117,-0.0155083 0.0284335,-0.0180763 0.0267355,-0.0205045 0.0248306,-0.0227741 0.0227338,-0.0248676 0.0204488,-0.026778 0.0179912,-0.0284874 0.0153915,-0.0299719 0.0126703,-0.0312198 0.00984909,-0.0322212 0.00695012,-0.0329683 0.00399628,-0.0334551 0.00101089,-0.0336777 -0.00198247,-0.0336345 -0.00496019,-0.0333258 -0.00789875,-0.032754 -0.0107749,-0.0319235 -0.0135661,-0.0308411 -0.0162501,-0.0295152 -0.0188059,-0.0279562 -0.0212131,-0.0261766 -0.023453,-0.0241903 -0.0255076,-0.022013 -0.0273609,-0.019662 -0.0289982,-0.0171557 -0.0306952,-0.0146586 -0.0318709,-0.0118877 -0.032797,-0.00902369 -0.0334663,-0.00608902 -0.0338736,-0.00310667 -0.0340156,-9.99945e-05 -0.0338913,0.00290747 -0.0335016,0.00589216 -0.0328495,0.00883071 -0.0319402,0.0117001 -0.0307809,0.0144779 -0.0293805,0.0171423 -0.02775,0.0196725 -0.0259023,0.0220487 -0.0238517,0.0242522 -0.0216144,0.0262658 -0.0192078,0.0280737 -0.0166508,0.0296618 -0.0139634,0.0310177 -0.0111667,0.0321306 -0.00828254,0.032992 -0.00533354,0.033595 -0.0816135,0 0,-0.501059 1,0 z "/>
<path fill="rgb(0,91,140)" stroke="rgb(0,91,140)" d="M 2.67567,1.4 l 0.724333,0 0,1 -0.189224,0 0.00643549,-0.0100767 0.0141511,-0.027137 0.0117204,-0.028272 0.00919961,-0.0291897 0.00660818,-0.0298832 0.00396598,-0.030347 0.0012933,-0.0305778 -0.00140996,-0.0308405 -0.00412207,-0.0305963 -0.00680212,-0.030114 -0.00942924,-0.0293975 -0.011983,-0.0284523 -0.0144435,-0.0272857 -0.0167917,-0.0259068 -0.0190092,-0.0243264 -0.0210789,-0.0225567 -0.0229845,-0.0206115 -0.0247114,-0.018506 -0.026246,-0.0162565 -0.0275763,-0.0138805 -0.0286922,-0.0113965 -0.0295848,-0.00882391 -0.0302473,-0.00618263 -0.0306744,-0.00349326 -0.0308629,-0.000776705 -0.0308113,0.00194589 -0.03052,0.00465335 -0.0299912,0.0073246 -0.0292291,0.00993887 -0.0282396,0.0124758 -0.0270304,0.0149157 -0.025611,0.0172396 -0.0239922,0.0194293 -0.0221868,0.0214678 -0.0202088,0.0233394 -0.0180736,0.0250294 -0.0157977,0.0265246 -0.013399,0.0278135 -0.010896,0.028886 -0.00830826,0.0297338 -0.00565587,0.0303502 -0.167549,0 0,-0.605496 0.164055,0 0.036975,0.0796188 -0.113725,0 -0.00346962,0.000151487 -0.00344321,0.000453307 -0.0033906,0.000751678 -0.00331218,0.00104433 -0.00320856,0.00132903 -0.00308052,0.00160362 -0.00292903,0.001866 -0.00275525,0.00211418 -0.00256051,0.00234627 -0.00234627,0.00256051 -0.00211418,0.00275525 -0.001866,0.00292903 -0.00160362,0.00308052 -0.00132903,0.00320856 -0.00104433,0.00331218 -0.000751678,0.0033906 -0.000453307,0.00344321 -0.000151487,0.00346962 0.000151487,0.00346962 0.000453307,0.00344321 0.000751678,0.0033906 0.00104433,0.00331218 0.00132903,0.00320856 0.00160362,0.00308052 0.001866,0.00292903 0.00211418,0.00275525 0.00234627,0.00256051 0.00256051,0.00234627 0.00275525,0.00211418 0.00292903,0.001866 0.00308052,0.00160362 0.00320856,0.00132903 0.00331218,0.00104433 0.0033906,0.000751678 0.00344321,0.000453307 0.00346962,0.000151487 0.292838,0 0,-0.0796188 -0.0938257,0 -0.0625427,-0.139316 0.0518924,-0.100988 z M 2.4,2.27139 l 0.170395,0 0.00625608,0.0299589 0.00885549,0.0292959 0.0113869,0.0284079 0.0138308,0.0273017 0.00849007,0.0136452 -0.219214,0 0,-0.12861 z "/>
<path fill="rgb(0,91,140)" stroke="rgb(0,91,140)" d="M 2.89167,2.64954 l -0.0423806,-0.00467032 -0.0417654,-0.00857806 -0.0407906,-0.012412 -0.0394647,-0.016139 -0.0377991,-0.0197272 -0.0358081,-0.0231455 -0.00298448,-0.00158675 -0.00311056,-0.00132262 -0.00321331,-0.00104858 -0.00329198,-0.000766676 -0.00334596,-0.000479024 -0.00337485,-0.000187781 -0.00337845,0.00010487 -0.00335671,0.000396734 -0.00330981,0.000685624 -0.00323809,0.000969374 -0.00314209,0.00124586 -0.00302254,0.001513 -0.00288032,0.00176879 -0.00271651,0.00201133 -0.00253234,0.00223879 -0.00232917,0.00244946 -0.00210855,0.00264176 -0.00187211,0.00281426 -0.00162164,0.00296566 -0.0699666,0.14944 -0.00159158,0.00317502 -0.00131095,0.0033008 -0.00102049,0.00340183 -0.000722382,0.00347736 -0.000418856,0.00352681 -0.00011219,0.00354983 0.000195317,0.00354623 0.000501359,0.00351603 0.000803643,0.00345948 0.0010999,0.00337699 0.00138791,0.00326918 0.00166552,0.00313686 0.00193064,0.00298102 0.00218128,0.00280283 0.00241557,0.00260363 0.00263175,0.00238491 0.00282819,0.0021483 0.00300343,0.00189559 0.00315616,0.00162866 0.00328522,0.00134952 0.00338964,0.00106027 0.00346866,0.000763065 0.00352167,0.000460139 0.00354827,0.000153764 0.605621,0 0,-0.14215 -0.278654,0 z M 2.61921,2.4 l 0.00767832,0.0123405 0.0183818,0.02447 0.020454,0.0227663 0.022369,0.0208878 0.0241122,0.0188487 0.0256701,0.0166648 0.0270308,0.0143529 0.0281838,0.0119308 0.0291203,0.00941692 0.0298331,0.00683073 0.0303166,0.00419206 0.0305673,0.00152118 0.0305831,-0.00116139 0.0303639,-0.00383503 0.0299114,-0.00647921 0.0292291,-0.00907361 0.0283223,-0.0115983 0.0271978,-0.0140339 0.0258644,-0.0163616 0.0243323,-0.0185637 0.0226133,-0.0206231 0.0207205,-0.0225241 0.0186685,-0.024252 0.0100376,-0.0157169 0.189224,0 0,1 -1,0 0,-1 0.219214,0 z "/>
<path fill="rgb(0,91,140)" stroke="rgb(0,91,140)" d="M 2.4,3.4 l 1,0 0,1 -1,0 0,-1 z "/>
<path fill="rgb(0,91,140)" stroke="rgb(0,91,140)" d="M 2.4,4.4 l 1,0 0,1 -1,0 0,-1 z "/>
<path fill="rgb(0,91,140)" stroke="rgb(0,91,140)" d="M 2.4,5.4 l 1,0 0,1 -1,0 0,-1 z "/>
<path fill="rgb(0,91,140)" stroke="rgb(0,91,140)" d="M 2.4,7.1 l 0,-0.7 1,0 0,0.7 -1,0 z "/>
<path fill="rgb(0,91,140)" stroke="rgb(0,91,140)" d="M 3.8,0.4 l 0.0261467,0.00114159 0.0259477,0.00341608 0.0255513,0.00566458 0.0249603,0.00786996 0.0241794,0.0100155 0.0232145,0.0120847 0.0220729,0.014062 0.0207634,0.0159323 0.0192958,0.0176813 0.0176813,0.0192958 0.0159323,0.0207634 0.014062,0.0220729 0.0120847,0.0232145 0.0100155,0.0241794 0.00786996,0.0249603 0.00566458,0.0255513 0.00341608,0.0259477 0.00114159,0.0261467 0,0.7 -0.7,0 0,-1 0.4,0 z "/>
<path fill="rgb(0,91,140)" stroke="rgb(0,91,140)" d="M 4.1,1.4 l 0,1 -0.7,0 0,-1 0.7,0 z "/>
<path fill="rgb(0,91,140)" stroke="rgb(0,91,140)" d="M 4.1,2.4 l 0,1 -0.7,0 0,-1 0.7,0 z "/>
<path fill="rgb(0,91,140)" stroke="rgb(0,91,140)" d="M 4.1,3.4 l 0,1 -0.7,0 0,-1 0.7,0 z "/>
<path fill="rgb(0,91,140)" stroke="rgb(0,91,140)" d="M 4.1,4.4 l 0,1 -0.7,0 0,-1 0.7,0 z "/>
<path fill="rgb(0,91,140)" stroke="rgb(0,91,140)" d="M 4.1,5.4 l 0,1 -0.7,0 0,-1 0.7,0 z "/>
<path fill="rgb(0,91,140)" stroke="rgb(0,91,140)" d="M 3.4,6.4 l 0.7,0 0,0.4 -0.00114159,0.0261467 -0.00341608,0.0259477 -0.00566458,0.0255513 -0.00786996,0.0249603 -0.0100155,0.0241794 -0.0120847,0.0232145 -0.014062,0.0220729 -0.0159323,0.0207634 -0.0176813,0.0192958 -0.0192958,0.0176813 -0.0207634,0.0159323 -0.0220729,0.014062 -0.0232145,0.0120847 -0.0241794,0.0100155 -0.0249603,0.00786996 -0.0255513,0.00566458 -0.0259477,0.00341608 -0.0261467,0.00114159 -0.4,0 0,-0.7 z "/>
<path fill="rgb(0,91,140)" stroke="rgb(0,91,140)" d="M 0.4,5.4 l 1,0 0,1 -1,0 0,-1 z "/>
<path fill="rgb(0,91,140)" stroke="rgb(0,91,140)" d="M 1.53428,1.99562 l 0.0197531,-0.0068698 0.0202719,-0.0051411 0.0206396,-0.0033741 0.0208537,-0.00158197 0.0209124,0.000221939 0.0208154,0.0020242 0.0205634,0.00381138 0.0201582,0.00557017 0.0196028,0.00728748 0.0189015,0.00895051 0.0180594,0.0105469 0.0170828,0.0120647 0.015979,0.0134927 0.0147561,0.0148201 0.0134234,0.0160372 0.0119906,0.0171349 0.0104686,0.0181049 0.00886859,0.0189401 0.00720254,0.0196342 0.00548284,0.0201821 0.00372231,0.0205797 0.00193405,0.020824 0.000131389,0.0209132 -0.00167225,0.0208466 -0.00346343,0.0206248 -0.00522882,0.0202494 -0.00695527,0.0197232 -0.00862991,0.01905 -0.0102403,0.018235 -0.0117744,0.0172842 -0.0132208,0.0162046 -0.0145687,0.0150044 -0.0158082,0.0136924 -0.105849,-0.229863 -0.00209952,-0.00408076 -0.0024472,-0.00388225 -0.00277624,-0.00365419 -0.00308416,-0.00339831 -0.00336861,-0.00311658 -0.00362742,-0.00281113 -0.00385862,-0.00248428 -0.00406046,-0.00213853 -0.00423139,-0.0017765 -0.00437012,-0.00140095 -0.00447559,-0.00101473 -0.004547,-0.000620799 -0.0045838,-0.000222139 -0.00458572,0.000178211 -0.00455274,0.000577205 -0.00448511,0.000971806 -0.00438334,0.00135901 -0.00424822,0.00173587 -0.00408076,0.00209952 -0.00388225,0.0024472 -0.00365419,0.00277624 -0.00339831,0.00308416 -0.00311658,0.00336861 -0.00281113,0.00362742 -0.00248428,0.00385862 -0.00213853,0.00406046 -0.0017765,0.00423139 -0.00140095,0.00437012 -0.00101473,0.00447559 -0.000620799,0.004547 -0.000222139,0.0045838 0.000178211,0.00458572 0.000577205,0.00455274 0.000971806,0.00448511 0.00135901,0.00438334 0.00173587,0.00424822 0.105849,0.229863 -0.0208777,0.00396636 -0.0211458,0.00211395 -0.0212497,0.000245146 -0.0211889,-0.00162556 -0.0209637,-0.00348366 -0.0205758,-0.00531474 -0.0200284,-0.00710459 -0.0193256,-0.00883933 -0.0184729,-0.0105055 -0.0174768,-0.0120902 -0.0163452,-0.0135811 -0.0150868,-0.0149666 -0.0137114,-0.016236 -0.0122296,-0.0173795 -0.010653,-0.0183882 -0.00899369,-0.0192542 -0.00726463,-0.0199709 -0.00547922,-0.0205327 -0.0036513,-0.0209351 -0.00179507,-0.0211752 7.50977e-05,-0.021251 0.00194468,-0.021162 0.00379917,-0.0209088 0.0056242,-0.0204934 0.00740559,-0.0199191 0.00912954,-0.0191902 0.0107827,-0.0183124 0.0123522,-0.0172927 0.0138258,-0.0161387 0.0151922,-0.0148596 0.0164408,-0.0134652 0.0175618,-0.0119663 0.0185466,-0.0103747 0.0193876,-0.00870252 z "/>
<path fill="rgb(0,91,140)" stroke="rgb(0,91,140)" d="M 3.15585,2.227 l -0.00202216,0.0208156 -0.00380937,0.0205637 -0.0055682,0.0201587 -0.00728557,0.0196036 -0.00894867,0.0189024 -0.0105451,0.0180604 -0.012063,0.017084 -0.0134911,0.0159803 -0.0148187,0.0147576 -0.0160359,0.0134249 -0.0171337,0.0119923 -0.0181039,0.0104704 -0.0189392,0.00887044 -0.0196335,0.00720445 -0.0201816,0.00548481 -0.0205793,0.00372431 -0.0208238,0.00193608 -0.0209132,0.000133431 -0.0208468,-0.00167021 -0.0206252,-0.00346142 -0.0202499,-0.00522685 -0.0197238,-0.00695334 -0.0190509,-0.00862805 -0.018236,-0.0102385 -0.0172853,-0.0117727 -0.0162059,-0.0132192 -0.0150058,-0.0145673 -0.0136939,-0.0158068 -0.01228,-0.0169287 -0.0107747,-0.0179244 -0.00918913,-0.0187867 -0.00753511,-0.019509 -0.00582498,-0.020086 0.253063,0 0.00458481,-0.000200177 0.00454992,-0.000599009 0.0044804,-0.000993281 0.00437678,-0.00137999 0.00423985,-0.0017562 0.00407065,-0.00211905 0.00387048,-0.00246577 0.00364084,-0.00279372 0.0033835,-0.00310041 0.00310041,-0.0033835 0.00279372,-0.00364084 0.00246577,-0.00387048 0.00211905,-0.00407065 0.0017562,-0.00423985 0.00137999,-0.00437678 0.000993281,-0.0044804 0.000599009,-0.00454992 0.000200177,-0.00458481 -0.000200177,-0.00458481 -0.000599009,-0.00454992 -0.000993281,-0.0044804 -0.00137999,-0.00437678 -0.0017562,-0.00423985 -0.00211905,-0.00407065 -0.00246577,-0.00387048 -0.00279372,-0.00364084 -0.00310041,-0.0033835 -0.0033835,-0.00310041 -0.00364084,-0.00279372 -0.00387048,-0.00246577 -0.00407065,-0.00211905 -0.00423985,-0.0017562 -0.00437678,-0.00137999 -0.0044804,-0.000993281 -0.00454992,-0.000599009 -0.00458481,-0.000200177 -0.253063,0 0.00512983,-0.0206227 0.00692452,-0.0200914 0.00866549,-0.0194041 0.0103392,-0.0185664 0.0119328,-0.0175847 0.0134338,-0.0164665 0.0148306,-0.0152206 0.0161123,-0.0138566 0.017269,-0.0123851 0.0182918,-0.0108176 0.0191727,-0.00916616 0.0199049,-0.00744361 0.0204826,-0.00566331 0.0209015,-0.00383908 0.0211582,-0.00198507 0.0212508,-0.000115666 0.0211786,0.00175464 0.0209421,0.00361133 0.0205431,0.00544001 0.0199847,0.00722649 0.0192714,0.00895691 0.0184085,0.0106179 0.0174028,0.0121964 0.0162622,0.0136804 0.0149954,0.0150582 0.0136122,0.0163193 0.0121235,0.0174537 0.0105407,0.0184528 0.0088762,0.0193087 0.00714281,0.0200148 0.00535401,0.0205657 0.00352368,0.020957 0.00166601,0.0211858 -0.000204579,0.0212502 z "/>
<path fill="rgb(0,91,140)" stroke="rgb(0,91,140)" d="M 1.88168,1.48394 l 0.429331,-0.477666 0.216088,0.477666 -0.645419,0 z "/>
<path fill="rgb(0,91,140)" stroke="rgb(0,91,140)" d="M 2.58113,1.41001 l -0.196189,-0.429331 0.0966717,0 0.00440308,0.0309634 0.00697459,0.0304873 0.00949733,0.029798 0.0119537,0.0289003 0.0143264,0.0278006 0.016599,0.0265065 0.0187555,0.025027 0.0207808,0.0233726 0.0226609,0.0215547 0.0243825,0.0195861 0.0259336,0.0174805 -0.0767496,0.147854 z "/>
<path fill="rgb(0,91,140)" stroke="rgb(0,91,140)" d="M 2.69486,1.18823 l -0.020496,-0.0148013 -0.0191635,-0.0164901 -0.0176923,-0.0180595 -0.0160929,-0.0194982 -0.0143771,-0.0207957 -0.0125572,-0.0219427 -0.0106463,-0.0229307 -0.00865838,-0.0237528 -0.00660776,-0.0244029 -0.0045093,-0.0248763 0.238833,0 -0.108033,0.20755 z "/>
<path fill="rgb(0,91,140)" stroke="rgb(0,91,140)" d="M 1.77933,1.20813 l -0.0966717,-0.278631 -0.000971626,-0.0033781 -0.0012638,-0.00328001 -0.00154626,-0.00315669 -0.00181683,-0.00300911 -0.00207343,-0.0028384 -0.0023141,-0.00264586 -0.00253697,-0.00243299 -0.00274034,-0.00220141 -0.00292264,-0.0019529 -0.00308247,-0.00168938 -0.00321861,-0.00141288 -0.00333,-0.00112551 -0.00341579,-0.000829485 -0.00347532,-0.000527086 -0.00350813,-0.000220636 -0.00351397,8.75113e-05 -0.0034928,0.000394985 -0.00344477,0.000699423 -0.00337026,0.000998483 -0.00326984,0.00128987 -0.00314429,0.00157134 -0.00299456,0.00184072 -0.00282181,0.00209596 -0.00262736,0.00233508 -0.00241272,0.00255625 -0.00217952,0.00275777 -0.00192958,0.00293809 -0.00166479,0.00309582 -0.00138721,0.00322975 -0.00109897,0.00333885 -0.000802271,0.00342228 -0.000499408,0.0034794 -0.000192706,0.00350977 0.000115478,0.00351316 0.000422774,0.00348954 0.00072682,0.00343909 0.00102528,0.00336221 0.0995177,0.281477 -0.0251195,0.00443346 -0.0254057,0.00227911 -0.0255075,0.000108211 -0.0254241,-0.00206347 -0.0251562,-0.00422018 -0.0247056,-0.00634625 -0.0240758,-0.00842625 -0.0232711,-0.0104451 -0.0222975,-0.0123881 -0.0211621,-0.0142412 -0.019873,-0.0159909 -0.0184397,-0.0176245 -0.0168725,-0.0191302 -0.0151828,-0.020497 -0.0133829,-0.021715 -0.0114859,-0.0227754 -0.00950545,-0.0236705 -0.00745604,-0.0243937 -0.00535249,-0.0249398 -0.0032101,-0.0253049 -0.0010444,-0.0254863 0.00117879,-0.0261499 0.00344081,-0.0259493 0.00567693,-0.0255535 0.00787033,-0.0249653 0.0100045,-0.0241892 0.0120634,-0.0232311 0.0140314,-0.0220981 0.0158939,-0.0207988 0.0176368,-0.019343 0.0192469,-0.0177416 0.0207122,-0.0160067 0.0220215,-0.0141513 0.0231652,-0.0121894 0.0241345,-0.0101358 0.0249222,-0.00800585 0.0255223,-0.00581568 0.0259303,-0.00358174 0.0261431,-0.00132084 0.0261592,0.000949994 0.0259784,0.00321368 0.0256022,0.00545318 0.0250332,0.00765164 0.0242758,0.00979251 0.0233357,0.0118597 0.02222,0.0138376 0.0209371,0.0157114 0.0193135,0.0172965 0.0177486,0.0188988 0.0160513,0.0203601 0.0142342,0.0216695 0.0123109,0.0228171 0.0102957,0.0237945 0.0082037,0.0245943 0.00605046,0.0252105 0.00385207,0.0256386 0.00162493,0.0258754 -0.000614332,0.0259191 -0.00284901,0.0257694 -0.00506243,0.0254274 -0.00723807,0.0248956 -0.0093597,0.024178 -0.0114115,0.02328 -0.0133781,0.0222082 -0.0152449,0.0209708 -0.0169979,0.0195768 -0.0186241,0.0180367 -0.0201112,0.0163621 -0.0214483,0.0145653 -0.0226254,0.0126598 z "/>
<path fill="rgb(0,91,140)" stroke="rgb(0,91,140)" d="M 2.56406,0.901059 l 0.0047209,-0.0265917 0.00708691,-0.0260611 0.0093958,-0.0253204 0.0116289,-0.0243756 0.0137684,-0.0232344 0.0157968,-0.0219058 0.0176979,-0.0204007 0.0194563,-0.0187311 0.0210579,-0.0169106 0.0224898,-0.0149537 0.0237403,-0.0128763 0.0247995,-0.0106951 0.0256589,-0.0084277 0.0263113,-0.00609236 0.0267517,-0.00370791 0.0267481,-0.00129595 0.0267576,0.00108174 0.0265562,0.0034509 0.0261454,0.00579285 0.0255285,0.00808914 0.0247104,0.0103217 0.0236975,0.0124728 0.0224977,0.0145256 0.0211206,0.0164639 0.019577,0.0182725 0.017879,0.0199369 0.0160401,0.0214442 0.0140748,0.0227825 0.0119985,0.0239411 0.00982757,0.024911 0.0075792,0.0256846 0.00527108,0.0262556 0.00284716,0.0255662 0.0006504,0.0257161 -0.00155113,0.0256775 -0.00374129,0.0254508 -0.00590405,0.0250376 -0.00802355,0.024441 -0.0100843,0.0236653 -0.0120711,0.0227162 -0.0139695,0.0216008 -0.0157655,0.020327 -0.0174461,0.0189043 -0.0189988,0.0173432 -0.0204123,0.0156549 -0.0216763,0.013852 -0.0227815,0.0119476 -0.0237197,0.0099556 -0.0244842,0.00789071 -0.0250693,0.005768 -0.0254707,0.00360304 -0.0256855,0.00141167 -0.0257122,-0.000790032 -0.0255504,-0.00298595 -0.0252015,-0.00515999 -0.0246679,-0.00729623 0.13647,-0.26727 0.00143474,-0.00299374 0.00117273,-0.00310574 0.000902077,-0.00319487 0.00062478,-0.00326046 0.000342881,-0.00330202 5.84551e-05,-0.00331926 -0.000226401,-0.00331205 -0.00050959,-0.00328043 -0.000789024,-0.00322465 -0.00106264,-0.00314511 -0.00132844,-0.0030424 -0.00158444,-0.00291727 -0.00182877,-0.00277065 -0.00205963,-0.00260362 -0.00227532,-0.00241741 -0.00247424,-0.00221338 -0.00265493,-0.00199305 -0.00281606,-0.00175804 -0.00295645,-0.00151007 -0.00307506,-0.00125098 -0.00317101,-0.000982676 -0.00324359,-0.000707129 -0.00329228,-0.000426372 -0.00331672,-0.000142474 -0.304222,0 z "/>
<path fill="rgb(0,91,140)" stroke="rgb(0,91,140)" d="M 0.4,4.4 l 1,0 0,1 -1,0 0,-1 z "/>
<path fill="rgb(0,91,140)" stroke="rgb(0,91,140)" d="M 0.4,3.4 l 1,0 0,1 -1,0 0,-1 z "/>
<path fill="rgb(0,91,140)" stroke="rgb(0,91,140)" d="M 1.32604,2.4 l 0.00814412,0.0125159 0.0183744,0.0234599 0.0203556,0.0217632 0.0221808,0.0198997 0.00490269,0.00367841 0,0.918683 -1,0 0,-1 0.926042,0 z "/>
<path fill="rgb(0,91,140)" stroke="rgb(0,91,140)" d="M 1.32604,2.4 l -0.926042,0 0,-1 1,0 0,0.54787 -0.00893888,0.00692494 -0.0218709,0.0202398 -0.0200172,0.0220749 -0.0180101,0.0237408 -0.0158649,0.0252248 -0.0135983,0.0265155 -0.0112274,0.0276031 -0.00877051,0.0284792 -0.00624642,0.0291371 -0.00367446,0.0295717 -0.00107436,0.0297797 0.00153398,0.0297596 0.00413057,0.0295114 0.0066955,0.0290372 0.00920914,0.0283404 0.0116522,0.0274265 0.014006,0.0263024 0.00810836,0.012461 z "/>
<path fill="rgb(0,91,140)" stroke="rgb(0,91,140)" d="M 1.4,1.23516 l 0,0.164844 -1,0 0,-0.7 0.00114159,-0.0261467 0.00341608,-0.0259477 0.00566458,-0.0255513 0.00786996,-0.0249603 0.0100155,-0.0241794 0.0120847,-0.0232145 0.014062,-0.0220729 0.0159323,-0.0207634 0.0176813,-0.0192958 0.0192958,-0.0176813 0.0207634,-0.0159323 0.0220729,-0.014062 0.0232145,-0.0120847 0.0241794,-0.0100155 0.0249603,-0.00786996 0.0255513,-0.00566458 0.0259477,-0.00341608 0.0261467,-0.00114159 0.7,-8.88178e-16 0,0.246565 -0.0242007,0.0218834 -0.0225715,0.0242761 -0.020387,0.0261376 -0.0180496,0.0278031 -0.0155769,0.0292602 -0.0129874,0.030498 -0.0103006,0.0315071 -0.00753652,0.0322801 -0.00471596,0.032811 -0.00186004,0.0330959 0.00100982,0.0331328 0.0038721,0.0329212 0.00670537,0.0324629 0.00948836,0.0317612 0.0122002,0.0308214 0.0148206,0.0296505 0.0173299,0.0282573 0.0197093,0.0266523 0.0219409,0.0248475 0.024008,0.0228564 0.00710168,0.00567527 z "/>
<path fill="rgb(0,91,140)" stroke="rgb(0,91,140)" d="M 1.4,1.4 l 0.364206,0 0.106106,0.302846 0.00362907,0.0108737 0.0045501,0.0105216 0.00543746,0.0100916 0.00628459,0.009587 0.00708522,0.00901145 0.00783343,0.00836923 0.00852368,0.00766508 0.00915087,0.00690422 0.00971035,0.00609228 0.010198,0.00523526 0.0106102,0.00433951 0.0109438,0.00341164 0.0111965,0.00245854 0.0113664,0.00148724 0.0114521,0.000504945 0.113707,0.00011842 0,-0.0795956 -0.0995177,0 -0.00524018,0.000398025 -0.00525483,-6.82352e-05 -0.00522808,-0.000533958 -0.00516013,-0.000995473 -0.00505152,-0.00144914 -0.00490311,-0.0018914 -0.00471607,-0.00231875 -0.00449187,-0.00272783 -0.00423227,-0.00311541 -0.00393932,-0.00347845 -0.00361534,-0.00381408 -0.00326287,-0.00411966 -0.00288469,-0.00439278 -0.00248378,-0.00463128 -0.0020633,-0.00483329 -0.0455168,-0.121266 0.495571,0 0,0.605496 -0.148057,0 -0.00763097,0.000322696 -0.00757648,0.000965783 -0.0074679,0.00160197 -0.00730599,0.00222673 -0.00709192,0.00283558 -0.00682721,0.00342419 -0.00651375,0.00398835 -0.00615378,0.00452403 -0.00574987,0.0050274 -0.00530491,0.00549488 -0.00482207,0.00592313 -0.0043048,0.00630908 -0.117025,0.191175 -0.132404,0 0.0119738,-0.0210949 0.0126677,-0.0276551 0.0102245,-0.0286484 0.00770453,-0.0294264 0.00512659,-0.0299832 0.00251011,-0.0303146 -0.000125237,-0.0304181 -0.00275964,-0.0302929 -0.0053733,-0.02994 -0.00794657,-0.029362 -0.0104601,-0.0285633 -0.012895,-0.0275498 -0.0152329,-0.0263293 -0.0174564,-0.0249108 -0.0195486,-0.0233051 -0.0214939,-0.0215241 -0.0232775,-0.0195814 -0.0248862,-0.0174914 -0.0263078,-0.01527 -0.0275317,-0.0129338 -0.0285485,-0.0105003 -0.0293508,-0.0079879 -0.0299324,-0.00541545 -0.030289,-0.00280228 -0.0304179,-0.000168057 -0.0303181,0.00246743 -0.0299904,0.00508438 -0.0294372,0.0076631 -0.0286628,0.0101842 -0.0276729,0.0126288 -0.0263764,0.0138662 -0.0250628,0.0161197 -0.0146182,0.0113247 0,-0.54787 z M 2.4,2.27139 l 0,0.12861 -0.203713,0 -0.00688654,-0.014885 0.0511818,-0.0796188 0.00390554,-0.00550785 0.00438965,-0.00513036 0.00483748,-0.00471046 0.00524531,-0.00425162 0.00560979,-0.00375764 0.00592789,-0.0032326 0.00619699,-0.00268083 0.00641487,-0.00210691 0.00657972,-0.00151556 0.00669017,-0.000911692 0.00674533,-0.000300284 0.0968751,0 z M 1.84706,1.4 l 0.0018305,0 -0.00132835,0.00147041 -0.000502152,-0.00147041 z "/>
<path fill="rgb(0,91,140)" stroke="rgb(0,91,140)" d="M 2.4,0.4 l 0,0.501059 -0.100369,0 -0.450736,0.498941 -0.0018305,0 -0.0393072,-0.1151 0.0286722,-0.0153626 0.0272636,-0.0177425 0.025658,-0.0199942 0.0238669,-0.0221014 0.0219033,-0.0240488 0.0197814,-0.0258224 0.0175165,-0.0274094 0.015125,-0.0287982 0.0126241,-0.0299789 0.010032,-0.0309428 0.00736744,-0.0316832 0.00464958,-0.0321945 0.00189811,-0.032473 -0.000867079,-0.0325169 -0.003626,-0.0323257 -0.00635871,-0.0319009 -0.00904546,-0.0312455 -0.0116668,-0.0303642 -0.0142039,-0.0292635 -0.0172586,-0.0288827 -0.0197415,-0.027246 -0.0220701,-0.0253964 -0.0242263,-0.0233485 -0.0261933,-0.0211182 -0.0279557,-0.018723 -0.0294997,-0.0161814 -0.0308132,-0.0135135 -0.0318861,-0.01074 -0.0327098,-0.00788261 -0.0332781,-0.00496364 -0.0335864,-0.0020059 -0.0336323,0.000967513 -0.0334155,0.00393337 -0.0329377,0.00686849 -0.0322026,0.00974996 -0.0312159,0.0125553 -0.0299854,0.0152625 -0.0285207,0.0178505 -0.0268331,0.0202991 -0.000386121,0.000349149 0,-0.246565 0.85,4.44089e-16 0.15,-4.44089e-16 z M 1.4,1.23516 l 0.0187935,0.0150187 0.0275882,0.0183764 0.0290744,0.0159211 0.0303426,0.0133464 0.0313834,0.0106716 0.0321889,0.00791689 0.0327531,0.0051028 0.0330717,0.00225044 0.0331424,-0.000618783 0.0329646,-0.00348337 0.0325398,-0.00632184 0.0303635,0.0866633 -0.364206,0 0,-0.164844 z "/>
<path fill="rgb(0,91,140)" stroke="rgb(0,91,140)" d="M 0.4,6.4 l 1,0 0,0.7 -0.7,0 -0.0261467,-0.00114159 -0.0259477,-0.00341608 -0.0255513,-0.00566458 -0.0249603,-0.00786996 -0.0241794,-0.0100155 -0.0232145,-0.0120847 -0.0220729,-0.014062 -0.0207634,-0.0159323 -0.0192958,-0.0176813 -0.0176813,-0.0192958 -0.0159323,-0.0207634 -0.014062,-0.0220729 -0.0120847,-0.0232145 -0.0100155,-0.0241794 -0.00786996,-0.0249603 -0.00566458,-0.0255513 -0.00341608,-0.0259477 -0.00114159,-0.0261467 -4.44089e-16,-0.4 z "/>
<path fill="rgb(0,91,140)" stroke="rgb(0,91,140)" d="M 2.19629,2.4 l 0.203713,0 0,1 -1,0 0,-0.918683 0.0189333,0.0142054 0.0253087,0.0157308 0.0265873,0.0134573 0.0276623,0.0110807 -0.0369518,0.0796188 0.0366574,0.0132778 0.0376535,0.0101133 0.038377,0.0068755 0.0388225,0.00358794 0.038987,0.000274391 0,-0.0853108 0.0653887,-0.0113609 0.199024,0.446383 0.00460594,0.00920792 0.00540465,0.00876301 0.00616074,0.00824899 0.00686824,0.00766992 0.00752159,0.00703037 0.00811563,0.00633539 0.00864566,0.00559044 0.00910752,0.00480141 0.00949756,0.00397452 0.00981271,0.00311628 0.0100505,0.00223347 0.010209,0.00133305 0.010287,0.00042212 0.0102839,-0.000492141 0.139327,0 0,-0.108044 -0.11089,0 -0.00636024,-0.000280179 -0.00631097,-0.000838367 -0.0062128,-0.00139006 -0.0060665,-0.00193098 -0.00587321,-0.00245695 -0.00563441,-0.00296388 -0.00535196,-0.00344785 -0.00502805,-0.0039051 -0.00466519,-0.00433211 -0.00426618,-0.00472555 -0.00383413,-0.00508238 -0.00337237,-0.00539984 -0.00288448,-0.00567547 -0.00237425,-0.00590712 -0.0511818,-0.119417 0.20187,0 0.00419279,-0.000190687 0.00415817,-0.000570487 0.00408922,-0.000945576 0.00398651,-0.00131286 0.00385088,-0.0016693 0.00368346,-0.00201196 0.00348562,-0.00233801 0.00325901,-0.00264475 0.00300549,-0.00292966 0.00272715,-0.00319038 0.00242629,-0.00342476 0.0919129,-0.149358 0.00209446,-0.00376926 0.00175138,-0.0039404 0.00139446,-0.00408039 0.00102652,-0.00418812 0.000650455,-0.00426275 0.000269253,-0.00430367 -0.000114077,-0.00431058 -0.000496506,-0.00428341 -0.00087501,-0.00422237 -0.0012466,-0.00412796 -0.00160833,-0.00400092 -0.0812471,-0.175612 z M 2.05817,2.4 l -0.170144,0.277953 -0.0710808,-0.164906 0.0247413,-0.0176958 0.0231155,-0.0197724 0.0213159,-0.0217004 0.019356,-0.0234653 0.0172507,-0.0250537 0.00304184,-0.00535897 0.132404,0 z "/>
<path fill="rgb(0,91,140)" stroke="rgb(0,91,140)" d="M 1.4,3.4 l 1,0 0,1 -1,0 0,-1 z "/>
<path fill="rgb(0,91,140)" stroke="rgb(0,91,140)" d="M 1.4,4.4 l 1,0 0,1 -1,0 0,-1 z "/>
<path fill="rgb(0,91,140)" stroke="rgb(0,91,140)" d="M 3.8,7.5 l -1.55,0 -4.44089e-16,-0.2 1.55,0 0.0435779,-0.00190265 0.0432462,-0.00569347 0.0425854,-0.00944096 0.0416005,-0.0131166 0.0402991,-0.0166924 0.0386909,-0.0201412 0.0367882,-0.0234367 0.0346056,-0.0265538 0.0321596,-0.0294688 0.0294688,-0.0321596 0.0265538,-0.0346056 0.0234367,-0.0367882 0.0201412,-0.0386909 0.0166924,-0.0402991 0.0131166,-0.0416005 0.00944096,-0.0425854 0.00569347,-0.0432462 0.00190265,-0.0435779 0,-6.1 -0.00190265,-0.0435779 -0.00569347,-0.0432462 -0.00944096,-0.0425854 -0.0131166,-0.0416005 -0.0166924,-0.0402991 -0.0201412,-0.0386909 -0.0234367,-0.0367882 -0.0265538,-0.0346056 -0.0294688,-0.0321596 -0.0321596,-0.0294688 -0.0346056,-0.0265538 -0.0367882,-0.0234367 -0.0386909,-0.0201412 -0.0402991,-0.0166924 -0.0416005,-0.0131166 -0.0425854,-0.00944096 -0.0432462,-0.00569347 -0.0435779,-0.00190265 -1.55,4.44089e-16 0,-0.2 1.55,-4.44089e-16 0.061009,0.00266371 0.0605447,0.00797086 0.0596196,0.0132173 0.0582408,0.0183632 0.0564187,0.0233694 0.0541672,0.0281977 0.0515035,0.0328114 0.0484478,0.0371753 0.0450234,0.0412564 0.0412564,0.0450234 0.0371753,0.0484478 0.0328114,0.0515035 0.0281977,0.0541672 0.0233694,0.0564187 0.0183632,0.0582408 0.0132173,0.0596196 0.00797086,0.0605447 0.00266371,0.061009 8.88178e-16,6.1 -0.00266371,0.061009 -0.00797086,0.0605447 -0.0132173,0.0596196 -0.0183632,0.0582408 -0.0233694,0.0564187 -0.0281977,0.0541672 -0.0328114,0.0515035 -0.0371753,0.0484478 -0.0412564,0.0450234 -0.0450234,0.0412564 -0.0484478,0.0371753 -0.0515035,0.0328114 -0.0541672,0.0281977 -0.0564187,0.0233694 -0.0582408,0.0183632 -0.0596196,0.0132173 -0.0605447,0.00797086 -0.061009,0.00266371 z "/>
<path fill="rgb(0,91,140)" stroke="rgb(0,91,140)" d="M 0,6.8 l 0,-6.1 0.00266371,-0.061009 0.00797086,-0.0605447 0.0132173,-0.0596196 0.0183632,-0.0582408 0.0233694,-0.0564187 0.0281977,-0.0541672 0.0328114,-0.0515035 0.0371753,-0.0484478 0.0412564,-0.0450234 0.0450234,-0.0412564 0.0484478,-0.0371753 0.0515035,-0.0328114 0.0541672,-0.0281977 0.0564187,-0.0233694 0.0582408,-0.0183632 0.0596196,-0.0132173 0.0605447,-0.00797086 0.061009,-0.00266371 1.55,-8.88178e-16 0,0.2 -1.55,4.44089e-16 -0.0435779,0.00190265 -0.0432462,0.00569347 -0.0425854,0.00944096 -0.0416005,0.0131166 -0.0402991,0.0166924 -0.0386909,0.0201412 -0.0367882,0.0234367 -0.0346056,0.0265538 -0.0321596,0.0294688 -0.0294688,0.0321596 -0.0265538,0.0346056 -0.0234367,0.0367882 -0.0201412,0.0386909 -0.0166924,0.0402991 -0.0131166,0.0416005 -0.00944096,0.0425854 -0.00569347,0.0432462 -0.00190265,0.0435779 0,6.1 0.00190265,0.0435779 0.00569347,0.0432462 0.00944096,0.0425854 0.0131166,0.0416005 0.0166924,0.0402991 0.0201412,0.0386909 0.0234367,0.0367882 0.0265538,0.0346056 0.0294688,0.0321596 0.0321596,0.0294688 0.0346056,0.0265538 0.0367882,0.0234367 0.0386909,0.0201412 0.0402991,0.0166924 0.0416005,0.0131166 0.0425854,0.00944096 0.0432462,0.00569347 0.0435779,0.00190265 1.55,0 4.44089e-16,0.2 -1.55,0 -0.061009,-0.00266371 -0.0605447,-0.00797086 -0.0596196,-0.0132173 -0.0582408,-0.0183632 -0.0564187,-0.0233694 -0.0541672,-0.0281977 -0.0515035,-0.0328114 -0.0484478,-0.0371753 -0.0450234,-0.0412564 -0.0412564,-0.0450234 -0.0371753,-0.0484478 -0.0328114,-0.0515035 -0.0281977,-0.0541672 -0.0233694,-0.0564187 -0.0183632,-0.0582408 -0.0132173,-0.0596196 -0.00797086,-0.0605447 -0.00266371,-0.061009 z "/>
<path fill="rgb(241,240,234)" stroke="rgb(241,240,234)" d="M 2.25,0.4 l 0,-0.2 1.55,-4.44089e-16 0.0435779,0.00190265 0.0432462,0.00569347 0.0425854,0.00944096 0.0416005,0.0131166 0.0402991,0.0166924 0.0386909,0.0201412 0.0367882,0.0234367 0.0346056,0.0265538 0.0321596,0.0294688 0.0294688,0.0321596 0.0265538,0.0346056 0.0234367,0.0367882 0.0201412,0.0386909 0.0166924,0.0402991 0.0131166,0.0416005 0.00944096,0.0425854 0.00569347,0.0432462 0.00190265,0.0435779 0,6.1 -0.00190265,0.0435779 -0.00569347,0.0432462 -0.00944096,0.0425854 -0.0131166,0.0416005 -0.0166924,0.0402991 -0.0201412,0.0386909 -0.0234367,0.0367882 -0.0265538,0.0346056 -0.0294688,0.0321596 -0.0321596,0.0294688 -0.0346056,0.0265538 -0.0367882,0.0234367 -0.0386909,0.0201412 -0.0402991,0.0166924 -0.0416005,0.0131166 -0.0425854,0.00944096 -0.0432462,0.00569347 -0.0435779,0.00190265 -1.55,0 0,-0.2 1.55,0 0.0261467,-0.00114159 0.0259477,-0.00341608 0.0255513,-0.00566458 0.0249603,-0.00786996 0.0241794,-0.0100155 0.0232145,-0.0120847 0.0220729,-0.014062 0.0207634,-0.0159323 0.0192958,-0.0176813 0.0176813,-0.0192958 0.0159323,-0.0207634 0.014062,-0.0220729 0.0120847,-0.0232145 0.0100155,-0.0241794 0.00786996,-0.0249603 0.00566458,-0.0255513 0.00341608,-0.0259477 0.00114159,-0.0261467 0,-6.1 -0.00114159,-0.0261467 -0.00341608,-0.0259477 -0.00566458,-0.0255513 -0.00786996,-0.0249603 -0.0100155,-0.0241794 -0.0120847,-0.0232145 -0.014062,-0.0220729 -0.0159323,-0.0207634 -0.0176813,-0.0192958 -0.0192958,-0.0176813 -0.0207634,-0.0159323 -0.0220729,-0.014062 -0.0232145,-0.0120847 -0.0241794,-0.0100155 -0.0249603,-0.00786996 -0.0255513,-0.00566458 -0.0259477,-0.00341608 -0.0261467,-0.00114159 -1.55,4.44089e-16 z "/>
<path fill="rgb(241,240,234)" stroke="rgb(241,240,234)" d="M 0.7,0.4 l -0.0261467,0.00114159 -0.0259477,0.00341608 -0.0255513,0.00566458 -0.0249603,0.00786996 -0.0241794,0.0100155 -0.0232145,0.0120847 -0.0220729,0.014062 -0.0207634,0.0159323 -0.0192958,0.0176813 -0.0176813,0.0192958 -0.0159323,0.0207634 -0.014062,0.0220729 -0.0120847,0.0232145 -0.0100155,0.0241794 -0.00786996,0.0249603 -0.00566458,0.0255513 -0.00341608,0.0259477 -0.00114159,0.0261467 4.44089e-16,6.1 0.00114159,0.0261467 0.00341608,0.0259477 0.00566458,0.0255513 0.00786996,0.0249603 0.0100155,0.0241794 0.0120847,0.0232145 0.014062,0.0220729 0.0159323,0.0207634 0.0176813,0.0192958 0.0192958,0.0176813 0.0207634,0.0159323 0.0220729,0.014062 0.0232145,0.0120847 0.0241794,0.0100155 0.0249603,0.00786996 0.0255513,0.00566458 0.0259477,0.00341608 0.0261467,0.00114159 1.55,0 0,0.2 -1.55,0 -0.0435779,-0.00190265 -0.0432462,-0.00569347 -0.0425854,-0.00944096 -0.0416005,-0.0131166 -0.0402991,-0.0166924 -0.0386909,-0.0201412 -0.0367882,-0.0234367 -0.0346056,-0.0265538 -0.0321596,-0.0294688 -0.0294688,-0.0321596 -0.0265538,-0.0346056 -0.0234367,-0.0367882 -0.0201412,-0.0386909 -0.0166924,-0.0402991 -0.0131166,-0.0416005 -0.00944096,-0.0425854 -0.00569347,-0.0432462 -0.00190265,-0.0435779 0,-6.1 0.00190265,-0.0435779 0.00569347,-0.0432462 0.00944096,-0.0425854 0.0131166,-0.0416005 0.0166924,-0.0402991 0.0201412,-0.0386909 0.0234367,-0.0367882 0.0265538,-0.0346056 0.0294688,-0.0321596 0.0321596,-0.0294688 0.0346056,-0.0265538 0.0367882,-0.0234367 0.0386909,-0.0201412 0.0402991,-0.0166924 0.0416005,-0.0131166 0.0425854,-0.00944096 0.0432462,-0.00569347 0.0435779,-0.00190265 1.55,-4.44089e-16 0,0.2 -1.55,4.44089e-16 z "/>
<path fill="rgb(241,240,234)" stroke="rgb(241,240,234)" d="M 2.55786,6.76736 l -1.46759,0 0,-3.49881 0.573294,0 0,1.37204 0.894295,0 0.0912546,0.00214717 0.109506,0.0107358 0.10199,0.0193245 0.0944754,0.0268396 0.0880339,0.0354283 0.0794452,0.0429433 0.0837395,0.0601207 0.0794452,0.0697829 0.0708565,0.077298 0.0633414,0.0858867 0.0558264,0.0944754 0.0472377,0.0998433 -1.85945,0.00214717 0,0.872824 0.917914,0 0.938312,0.0246924 -0.0440169,0.090181 -0.0536792,0.0848131 -0.0622679,0.0783716 -0.0719301,0.0730037 -0.0805188,0.0665622 -0.0891074,0.0622679 -0.064415,0.0354283 -0.0891074,0.0407962 -0.0944754,0.0311339 -0.0987697,0.0225453 -0.104138,0.012883 -0.109506,0.00429433 z "/>
<path fill="rgb(241,240,234)" stroke="rgb(241,240,234)" d="M 3.51979,6.16508 l -0.938312,-0.0246924 0.0676358,-0.00322075 0.104138,-0.0193245 0.0891074,-0.038649 0.0740773,-0.0558264 0.0246924,-0.0268396 0.0568999,-0.0869603 0.0354283,-0.0998433 0.0107358,-0.112726 0,-0.0289868 -0.0182509,-0.110579 -0.0429433,-0.0944754 -0.0665622,-0.077298 -0.0450905,-0.0343547 -0.0858867,-0.0461641 -0.0966225,-0.0279132 -0.107358,-0.00966225 -0.917914,0 1.85945,-0.00214717 0.0375754,0.105211 0.0268396,0.107358 0.0161038,0.108432 0.00536792,0.110579 -0.00107358,0.051532 -0.00858867,0.112726 -0.0171773,0.107358 -0.0268396,0.100917 -0.0354283,0.0955489 z "/>
</g></g></svg>
