<?xml version="1.0" encoding="UTF-8" standalone="no"?>
<!DOCTYPE svg PUBLIC "-//W3C//DTD SVG 1.1//EN" "http://www.w3.org/Graphics/SVG/1.1/DTD/svg11-flat.dtd"
[

]>
<svg xmlns="http://www.w3.org/2000/svg"  viewBox="-0.125044 -0.125044 10.2536 12.7519"><g fill="none" stroke="black" stroke-width="0.0125" transform="translate(0,12.5018) scale(1, -1)">
<g id="Output" >
<path fill="rgb(241,240,234)" stroke="rgb(241,240,234)" d="M 5.38176,4.47986 l 1.94213e-05,0.00424177 5.82622e-05,0.00424142 9.70982e-05,0.00424071 -0.10571,0.0029047 -0.0656082,-0.109986 -0.559886,0.0517349 -0.00542595,-0.0397964 -0.00885286,-0.0391767 -0.0122132,-0.0382626 -0.0154818,-0.0370608 -0.0186339,-0.0355804 -0.021646,-0.0338325 -0.0244953,-0.0318303 -0.0271605,-0.0295888 -0.0296215,-0.0271248 -0.0318598,-0.0244569 -0.0338586,-0.0216052 -0.0356029,-0.018591 -0.0370795,-0.0154371 -0.0382773,-0.0121671 -0.0391874,-0.00880559 -0.0398029,-0.00537793 -0.0401191,-0.00190983 -0.0401337,0.00157262 -0.0398467,0.00504325 -0.03926,0.00847596 -0.157945,-0.19739 0.205128,-0.0822113 0.211264,-0.0648343 0.215932,-0.0470064 0.219098,-0.0288516 0.22074,-0.0104961 0.220847,0.00793227 0.219418,0.0263055 0.216463,0.0444959 0.212003,0.0623767 0.206069,0.0798238 0.198701,0.0967158 -0.139539,0.188769 -0.0339199,-0.02283 -0.0358009,-0.01975 -0.037403,-0.0165161 -0.0387137,-0.0131536 -0.0397228,-0.00968862 -0.0404224,-0.00614815 -0.0408071,-0.00255977 -0.0408738,0.00104855 -0.0406221,0.0046487 -0.040054,0.00821263 -0.0391738,0.0117126 -0.0379884,0.0151213 -0.036507,0.0184122 -0.0347412,0.0215596 -0.0327048,0.0245391 -0.0304135,0.0273274 -0.0278853,0.0299028 -0.0251399,0.0322452 -0.0221986,0.0343364 -0.0190843,0.0361601 -0.0158214,0.0377021 -0.0124352,0.0389504 -0.00895216,0.0398952 -0.00539935,0.0405292 -0.00180447,0.0408474 z "/>
<path fill="rgb(241,240,234)" stroke="rgb(241,240,234)" d="M 7.65177,6.25089 l -0.0112067,0.243455 -0.0335254,0.241395 -0.0555605,0.237295 -0.0771257,0.231187 -0.0980386,0.223124 -0.118122,0.213173 -0.137207,0.20142 -0.913957,-1.1422 0,-0.212216 -0.000154961,-0.00354918 -0.000463703,-0.00352217 -0.000768916,-0.00346836 -0.00106828,-0.00338814 -0.00135951,-0.00328214 -0.00164039,-0.00315116 -0.00190879,-0.0029962 -0.00216266,-0.00281844 -0.00240008,-0.00261923 -0.00261923,-0.00240008 -0.00281844,-0.00216266 -0.0029962,-0.00190879 -0.00315116,-0.00164039 -0.00328214,-0.00135951 -0.00338814,-0.00106828 -0.00346836,-0.000768916 -0.00352217,-0.000463703 -0.00354918,-0.000154961 -0.161671,0 -0.701043,-0.876118 0.238926,-0.33808 0.00863476,-0.0133761 0.00748235,-0.0140533 0.00627721,-0.0146314 0.00502783,-0.0151063 0.00374301,-0.0154748 0.00243181,-0.0157343 0.00110346,-0.0158828 -0.000232655,-0.0159194 -0.00156713,-0.0158438 -0.00289057,-0.0156565 -0.00419363,-0.0153588 -0.00546713,-0.014953 -0.0067021,-0.0144417 0.0753759,-0.145183 0.0374362,0.0173649 0.0388331,0.0139642 0.0399218,0.0104527 0.0406937,0.00685828 0.0411426,0.00320941 0.0412649,-0.000464939 0.0410598,-0.00413559 0.0405288,-0.00777343 0.0396762,-0.0113496 0.0385086,-0.0148356 0.0370355,-0.018204 0.0352684,-0.0214278 0.0332214,-0.0244816 0.0309108,-0.0273411 0.0283548,-0.0299836 0.0255738,-0.0323881 0.0225898,-0.0345356 0.0194266,-0.036409 0.0161092,-0.0379935 0.0126639,-0.0392764 0.00911813,-0.0402476 0.00549998,-0.0408994 0.00183819,-0.0412266 -0.00166969,-0.0392952 -0.00499702,-0.0390119 -0.00828834,-0.0384474 -0.0115199,-0.0376057 -0.0146684,-0.036493 -0.0177112,-0.0351171 -0.0206263,-0.0334881 -0.0233927,-0.0316177 -0.0259905,-0.0295194 -0.0284009,-0.0272083 -0.0306065,-0.024701 0.139539,-0.188769 0.203815,0.122042 0.192066,0.139805 0.178774,0.156443 0.164046,0.171825 0.147999,0.185826 0.130762,0.198333 0.112475,0.209247 0.0932841,0.218479 0.0733434,0.225955 0.0528133,0.231615 0.0318587,0.235414 0.0106481,0.237321 z "/>
<path fill="rgb(241,240,234)" stroke="rgb(241,240,234)" d="M 6.08932,8.66745 l -0.20803,0.0832343 -0.214318,0.065363 -0.219073,0.0470246 -0.222263,0.0283499 -0.223863,0.00947253 0,-0.33675 0.31462,-0.00802137 0.313536,-0.0273026 0.311271,-0.0464811 0.14812,0.185111 z "/>
<path fill="rgb(241,240,234)" stroke="rgb(241,240,234)" d="M 5.0156,5.85921 l 0.016331,-0.00181073 0.0161068,-0.00324824 0.0157563,-0.00466029 0.0152823,-0.0060358 0.0146885,-0.00736399 0.0139795,-0.00863444 0.0131609,-0.0098372 0.0122391,-0.0109628 0.0112214,-0.0120025 0.712009,0.889824 0,0.221549 -0.161166,0 -0.648902,-0.810955 0.00128208,-0.00692534 0.00106286,-0.00696235 0.000842571,-0.00699243 0.00119896,-0.0203112 -0.000638513,-0.0203366 -0.00247078,-0.020196 -0.00428289,-0.0198907 -0.00606006,-0.0194232 -0.0077878,-0.0187972 -0.00945202,-0.0180179 -0.0110391,-0.0170916 -0.0125362,-0.0160258 0.0191733,-0.044891 z "/>
<path fill="rgb(241,240,234)" stroke="rgb(241,240,234)" d="M 6.3293,8.54439 l -0.244115,-0.30508 0.115834,-0.278201 0.351182,0.438884 -0.0726775,0.0506069 -0.0743279,0.0481502 -0.0758953,0.0456396 z "/>
<path fill="rgb(241,240,234)" stroke="rgb(241,240,234)" d="M 6.38346,7.68196 l 0,-0.176457 0,-0.162303 0.564833,0.705892 -0.0611732,0.0640384 -0.0632789,0.0619586 -0.0653139,0.0598095 -0.409586,-0.511874 0.0345185,-0.0410643 z "/>
<path fill="rgb(241,240,234)" stroke="rgb(241,240,234)" d="M 5.00177,6.88534 l 0,-0.422964 0.354998,0.443654 -0.338443,0 -0.0165558,-0.0206904 z "/>
<path fill="rgb(241,240,234)" stroke="rgb(241,240,234)" d="M 4.35965,5.23453 l 0.505566,0.563449 -0.0551682,0.0018332 -0.689667,-0.861902 0.0372996,0.00408817 0.0375082,0.00105586 0.0374706,-0.00198339 0.0371871,-0.00500961 0.0366596,-0.00800297 0.0358916,-0.0109438 0.0867238,0.247945 -0.0694712,0.0694712 z "/>
<path fill="rgb(241,240,234)" stroke="rgb(241,240,234)" d="M 3.67424,3.95738 l 0.170483,0.213058 -0.0243262,0.0294622 -0.0218155,0.0313667 -0.0191564,0.0330578 -0.0163669,0.034524 -0.0134661,0.0357554 -0.0104737,0.0367435 -0.00741011,0.0374817 -0.00429605,0.0379648 -0.276072,-0.345018 0.0726775,-0.0506069 0.0743279,-0.0481502 0.0758953,-0.0456396 z "/>
<path fill="rgb(241,240,234)" stroke="rgb(241,240,234)" d="M 2.35177,6.25089 l 0.0112067,-0.243455 0.0335254,-0.241395 0.0555605,-0.237295 0.0771257,-0.231187 0.0980386,-0.223124 0.118122,-0.213173 0.137207,-0.20142 1.79733,2.24618 -0.479425,0 0,-0.418508 0,-1.40332e-13 -0.000154168,-0.00354893 -0.000462935,-0.00352198 -0.000768178,-0.00346822 -0.00106757,-0.00338806 -0.00135884,-0.0032821 -0.00163976,-0.00315116 -0.0019082,-0.00299623 -0.00216212,-0.00281849 -0.00239957,-0.0026193 -0.00261875,-0.00240016 -0.002818,-0.00216275 -0.0029958,-0.00190888 -0.00315079,-0.00164047 -0.0032818,-0.00135958 -0.00338782,-0.00106834 -0.00346805,-0.000768962 -0.00352187,-0.000463731 -0.00354889,-0.00015497 -0.269187,0 -3.79252e-13,0 -0.00354973,0.000154203 -0.00352278,0.00046304 -0.003469,0.000768351 -0.00338882,0.00106781 -0.00328285,0.00135915 -0.00315187,0.00164013 -0.00299691,0.00190863 -0.00281913,0.0021626 -0.00261989,0.00240011 -0.0024007,0.00261935 -0.00216324,0.00281864 -0.00190931,0.00299648 -0.00164085,0.0031515 -0.00135989,0.00328254 -0.00106858,0.00338858 -0.000769135,0.00346883 -0.000463836,0.00352267 -0.000155005,0.00354969 0,0.418508 -0.0701319,0 -0.106325,0.169664 0,0.429812 0,0.176457 0.131206,0.156087 0.264677,0.635679 0.308808,0.0490841 0.311225,0.0301756 0.312485,0.0111549 0,0.33675 -0.230963,-0.0100841 -0.229205,-0.0301754 -0.225703,-0.0500371 -0.220483,-0.069518 -0.213585,-0.0884698 -0.205062,-0.106748 -0.194978,-0.124214 -0.18341,-0.140735 -0.170446,-0.156185 -0.156185,-0.170446 -0.140735,-0.18341 -0.124214,-0.194978 -0.106748,-0.205062 -0.0884698,-0.213585 -0.069518,-0.220483 -0.0500371,-0.225703 -0.0301754,-0.229205 -0.0100841,-0.230963 z "/>
<path fill="rgb(241,240,234)" stroke="rgb(241,240,234)" d="M 3.05524,4.45269 l 0.0611732,-0.0640384 0.0632789,-0.0619586 0.0653139,-0.0598095 1.42894,1.7858 -0.0344966,0 -0.000244445,0.0184583 0.00141118,0.0184059 0.00305544,0.0182053 0.0046751,0.0178581 0.00625711,0.0173671 0.00778875,0.0167363 0.00925767,0.0159707 0.010652,0.0150766 0.0119607,0.014061 0.013173,0.0129322 0.0142792,0.0116993 0.0152705,0.0103722 0.0161388,0.00896153 0.0168771,0.00747874 2.22045e-14,8.88178e-15 0.0149869,0.0051685 0.0153532,0.0039497 0.0156206,0.00270545 0.0157872,0.00144377 0.0158522,0.00017278 0.154164,0.192664 0,0.422964 -1.94653,-2.43265 z "/>
<path fill="rgb(241,240,234)" stroke="rgb(241,240,234)" d="M 5.0156,5.85921 l -0.0191733,0.044891 -0.0202036,-0.00103358 -0.0200306,-0.00283357 -0.0196975,-0.00461092 -0.0192071,-0.00635142 -0.0185632,-0.00804118 -0.017771,-0.0096667 -0.0168368,-0.011215 -0.0157681,-0.0126736 -0.0382988,-0.0478634 0.0551682,-0.0018332 0.0117741,0.0119834 0.0128096,0.0108694 0.0137401,0.00966641 0.014558,0.00838415 0.0152566,0.00703318 0.0158302,0.00562456 0.016274,0.00416984 0.0165844,0.00268095 0.0167589,0.00117008 0.016796,-0.000350373 z "/>
<path fill="rgb(241,240,234)" stroke="rgb(241,240,234)" d="M 5.63154,4.89098 l -0.0753759,0.145183 -0.00788984,-0.0138286 -0.00902196,-0.0131181 -0.0100905,-0.0123151 -0.0110879,-0.0114253 -0.0120072,-0.010455 -0.0128418,-0.00941104 -0.013586,-0.00830072 -0.0142343,-0.00713189 -0.0147824,-0.00591279 -0.0152263,-0.00465203 -0.0155628,-0.00335847 -0.0157897,-0.00204124 -0.0159052,-0.000709631 -0.486259,0 0.374342,-0.438019 0.10571,-0.0029047 0.00294777,0.0409712 0.00656574,0.040549 0.0101321,0.0398079 0.0136188,0.0387538 0.0169984,0.037395 0.0202443,0.0357421 0.023331,0.0338082 0.0262343,0.0316084 0.0289313,0.0291601 0.0314008,0.0264825 0.0336234,0.0235966 0.0355815,0.0205252 z "/>
<path fill="rgb(241,240,234)" stroke="rgb(241,240,234)" d="M 5.07457,5.28446 l -0.0902102,-0.112739 0.156797,0.0377202 -0.0665871,0.0750187 z "/>
<path fill="rgb(241,240,234)" stroke="rgb(241,240,234)" d="M 4.65073,4.43724 l 0.559886,-0.0517349 -0.47507,0.475266 -0.13458,-0.16819 0.0183951,-0.0401738 0.0144838,-0.0417437 0.0104407,-0.0429338 0.00630268,-0.0437332 0.00210729,-0.0441347 -0.000218472,-0.0142253 -0.00065521,-0.0142118 -0.00109133,-0.014185 z "/>
<path fill="rgb(241,240,234)" stroke="rgb(241,240,234)" d="M 4.85171,5.53554 l -0.422582,-0.370487 -0.0867238,-0.247945 0.0250715,-0.0095933 0.0244737,-0.0110295 0.0237937,-0.0124286 0.480842,0.600926 -0.0448751,0.0505573 z "/>
<path fill="rgb(241,240,234)" stroke="rgb(241,240,234)" d="M 5.6957,7.37882 l -0.0006376,-0.00393197 -0.000622176,-0.00674033 -3.7395e-05,-0.00676889 0.000547666,-0.0067468 0.00112863,-0.00667423 0.00170115,-0.00655174 0.00226094,-0.00638023 0.23416,0.292639 -0.120873,0 -0.008181,-0.000804543 -0.00808369,-0.00149332 -0.0079285,-0.00217141 -0.00771653,-0.00283395 -0.0074493,-0.00347619 -0.00712874,-0.00409355 -0.00675713,-0.00468159 -0.00633713,-0.00523611 -0.00587176,-0.00575313 -0.00536434,-0.00622896 -0.0048185,-0.00666019 -0.00423817,-0.00704372 -0.00362748,-0.00737682 -0.00299083,-0.00765709 -0.00233275,-0.00788253 -0.00165797,-0.00805153 -0.00660344,-0.0407223 -0.0205417,-0.126677 z "/>
<path fill="rgb(241,240,234)" stroke="rgb(241,240,234)" d="M 6.26125,7.5055 l 0,0.0407223 -0.000489382,0.0072138 -0.00110808,0.00714497 -0.00171856,0.00702317 -0.00231631,0.00684931 -0.00289688,0.00662468 -0.00345599,0.00635095 -0.00398947,0.00603013 -0.24596,-0.307385 0.169196,0 1.03029e-13,0 0.008083,0.000353693 0.00802142,0.00105678 0.0078988,0.00175183 0.00771607,0.00243355 0.00747463,0.00309674 0.00717631,0.00373638 0.00682338,0.00434758 0.00641852,0.0049257 0.00596483,0.00546633 0.00546574,0.00596537 0.00492506,0.00641901 0.0043469,0.00682381 0.00373567,0.00717668 0.003096,0.00747494 0.00243278,0.00771631 0.00175105,0.00789897 0.00105599,0.00802152 0.00035289,0.00808303 0,0.126677 z "/>
<path fill="rgb(241,240,234)" stroke="rgb(241,240,234)" d="M 3.88828,7.62767 l -0.00728189,0.00044894 -0.00729337,-0.000184772 -0.00724981,-0.000817089 -0.00715154,-0.00144324 -0.00699928,-0.0020585 -0.00679421,-0.00265822 -0.00653785,-0.00323788 -0.00623216,-0.0037931 -0.00587942,-0.0043197 -0.00548232,-0.00481369 -0.00504383,-0.00527135 -0.00456728,-0.00568923 -0.00405626,-0.00606417 -0.00351463,-0.00639334 -0.00294647,-0.00667426 -0.00235607,-0.00690481 -0.00174789,-0.00708324 -0.00112651,-0.00720822 -0.000496638,-0.00727879 0,-0.0041438 0,-0.0365785 0,-0.126677 0.00035298,-0.00808405 0.00105625,-0.00802252 0.00175148,-0.00789992 0.00243339,-0.00771719 0.00309676,-0.00747573 0.00373657,-0.00717736 0.00434794,-0.00682436 0.00492621,-0.00641941 0.00546699,-0.00596561 0.00596615,-0.0054664 0.0064199,-0.00492557 0.00682479,-0.00434726 0.00717773,-0.00373586 0.00747603,-0.00309602 0.00771744,-0.00243262 0.00790009,-0.0017507 0.00802262,-0.00105546 0.00808408,-0.000352177 3.11307e-13,0 0.395883,0 0.00686629,0.000301797 0.00681333,0.000903063 0.00670782,0.00149736 0.00655058,0.00208012 0.00634281,0.00264683 0.00608613,0.00319312 0.0057825,0.00371479 0.00543428,0.0042078 0.00504414,0.00466837 0.0046151,0.00509292 0.00415046,0.0054782 0.00365381,0.00582122 0.00312898,0.00611935 0.00258002,0.00637028 0.00201116,0.00657208 0.00142678,0.00672319 0.000831407,0.00682244 0.000229617,0.00686908 -0.000373943,0.00686274 -0.00097462,0.00680346 -0.0205417,0.126677 -0.00660344,0.0407223 -0.00165797,0.00805153 -0.00233275,0.00788253 -0.00299083,0.00765709 -0.00362748,0.00737682 -0.00423817,0.00704372 -0.0048185,0.00666019 -0.00536434,0.00622896 -0.00587176,0.00575313 -0.00633713,0.00523611 -0.00675713,0.00468159 -0.00712874,0.00409355 -0.0074493,0.00347619 -0.00771653,0.00283395 -0.0079285,0.00217141 -0.00808369,0.00149332 -0.008181,0.000804543 -0.0108173,0 -0.344343,0 z "/>
<path fill="rgb(241,240,234)" stroke="rgb(241,240,234)" d="M 6.03963,7.84031 l -0.0904851,0.22899 -0.16408,-0.205057 0.084926,-0.00721162 0.0848575,-0.00797775 0.0847821,-0.00874322 z "/>
<path fill="rgb(241,240,234)" stroke="rgb(241,240,234)" d="M 4.01723,7.84031 l 0.48093,0.039392 0.482314,0.0147765 0.482439,-0.00987759 0.343731,0.429573 -0.319485,0.0496573 -0.322437,0.0238876 -0.323315,-0.00203587 -0.322111,-0.0279462 -0.318834,-0.0536767 -0.183232,-0.46375 z "/>
<path fill="rgb(241,240,234)" stroke="rgb(241,240,234)" d="M 4.48294,4.47986 l -0.000644938,0.0194459 -0.00193198,0.0193604 -0.00321053,0.0191898 -0.281185,-0.351407 0.0251881,0.00164467 0.0249536,0.00380295 0.0245345,0.00593309 0.023934,0.00801934 0.0231564,0.0100463 0.0222075,0.0119989 0.0210943,0.0138628 0.0198251,0.0156241 0.0184092,0.0172698 0.0168572,0.0187878 0.0151804,0.0201668 0.0133914,0.0213966 0.0115033,0.0224682 0.0095301,0.0233735 0.00748641,0.024106 0.00538735,0.0246601 0.00324843,0.0250318 0.00108549,0.0252184 z "/>
<path fill="rgb(241,240,234)" stroke="rgb(241,240,234)" d="M 3.89598,4.47986 l 0.00120486,-0.0265662 0.00360469,-0.0263481 0.00597493,-0.0259136 0.00829611,-0.0252664 0.0105492,-0.0244117 0.0127156,-0.0233565 0.0147776,-0.0221096 0.354261,0.442732 -0.0235955,0.00915909 -0.0242969,0.00709198 -0.0248176,0.00497212 -0.0251538,0.00281528 -0.0253028,0.000637498 -0.0252636,-0.00154502 -0.0250365,-0.00371606 -0.0246232,-0.00585945 -0.0240268,-0.00795926 -0.0232517,-0.00999987 -0.0223036,-0.0119661 -0.0211896,-0.0138433 -0.019918,-0.0156176 -0.0184983,-0.0172757 -0.016941,-0.0188053 -0.0152577,-0.0201951 -0.0134609,-0.0214346 -0.011564,-0.0225147 -0.00958102,-0.0234274 -0.00752683,-0.0241658 -0.00541666,-0.0247244 -0.00326619,-0.0250992 -0.00109144,-0.0252873 z "/>
<path fill="rgb(241,240,234)" stroke="rgb(241,240,234)" d="M 6.13847,4.47986 l -0.00111679,0.0255788 -0.00334188,0.0253841 -0.00554153,0.0249962 -0.00769901,0.0244181 -0.00979789,0.0236542 -0.0118222,0.0227103 -0.0137566,0.0215935 -0.0155862,0.0203123 -0.0172972,0.0188766 -0.0188766,0.0172972 -0.0203123,0.0155862 -0.0215935,0.0137566 -0.0227103,0.0118222 -0.0236542,0.00979789 -0.0244181,0.00769901 -0.0249962,0.00554153 -0.0253841,0.00334188 -0.0255788,0.00111679 -0.0255788,-0.00111679 -0.0253841,-0.00334188 -0.0249962,-0.00554153 -0.0244181,-0.00769901 -0.0236542,-0.00979789 -0.0227103,-0.0118222 -0.0215935,-0.0137566 -0.0203123,-0.0155862 -0.0188766,-0.0172972 -0.0172972,-0.0188766 -0.0155862,-0.0203123 -0.0137566,-0.0215935 -0.0118222,-0.0227103 -0.00979789,-0.0236542 -0.00769901,-0.0244181 -0.00554153,-0.0249962 -0.00334188,-0.0253841 -0.00111679,-0.0255788 0.00111679,-0.0255788 0.00334188,-0.0253841 0.00554153,-0.0249962 0.00769901,-0.0244181 0.00979789,-0.0236542 0.0118222,-0.0227103 0.0137566,-0.0215935 0.0155862,-0.0203123 0.0172972,-0.0188766 0.0188766,-0.0172972 0.0203123,-0.0155862 0.0215935,-0.0137566 0.0227103,-0.0118222 0.0236542,-0.00979789 0.0244181,-0.00769901 0.0249962,-0.00554153 0.0253841,-0.00334188 0.0255788,-0.00111679 0.0255788,0.00111679 0.0253841,0.00334188 0.0249962,0.00554153 0.0244181,0.00769901 0.0236542,0.00979789 0.0227103,0.0118222 0.0215935,0.0137566 0.0203123,0.0155862 0.0188766,0.0172972 0.0172972,0.0188766 0.0155862,0.0203123 0.0137566,0.0215935 0.0118222,0.0227103 0.00979789,0.0236542 0.00769901,0.0244181 0.00554153,0.0249962 0.00334188,0.0253841 0.00111679,0.0255788 z "/>
<path fill="rgb(241,240,234)" stroke="rgb(241,240,234)" d="M 3.10719,3.24871 l 0.125789,0.157203 -0.074436,0.0476517 -0.073153,0.0495987 -0.0718191,0.0515113 -0.125047,-0.156276 0.0716393,-0.0517054 0.0729038,-0.0499066 0.0741231,-0.0480769 z "/>
<path fill="rgb(241,240,234)" stroke="rgb(241,240,234)" d="M 2.48819,3.74402 l 0.0631625,-0.0617748 0.0646802,-0.0601839 0.0661579,-0.0585556 0.125047,0.156276 -0.066008,0.0587737 -0.0644345,0.0604945 -0.0628162,0.0621733 -0.125789,-0.157203 z "/>
<path fill="rgb(241,240,234)" stroke="rgb(241,240,234)" d="M 1.45177,6.25089 l 0.0139232,-0.314103 0.0416603,-0.311639 0.0690706,-0.306731 0.0959391,-0.299416 0.122055,-0.289753 0.147214,-0.277818 0.171218,-0.263702 0.193878,-0.247519 0.127313,0.159108 -0.177586,0.231744 -0.156734,0.246326 -0.134691,0.259037 -0.111625,0.269781 -0.087711,0.278476 -0.0631309,0.285055 -0.0380714,0.289469 -0.0127227,0.291685 -0.2,0 z "/>
<path fill="rgb(241,240,234)" stroke="rgb(241,240,234)" d="M 8.35177,6.25089 l -0.0132606,-0.297776 -0.0396769,-0.295418 -0.0657791,-0.290722 -0.0913605,-0.283724 -0.116219,-0.27448 -0.140157,-0.263063 -0.162985,-0.249564 -0.184523,-0.234088 -0.204601,-0.21676 -0.223058,-0.197715 -0.23975,-0.177105 -0.254543,-0.155093 -0.267322,-0.131854 -0.277984,-0.10757 -0.286445,-0.0824346 -0.292639,-0.0566467 -0.296516,-0.0304103 -0.298045,-0.00393315 -0.297215,0.0225751 -0.294032,0.0489047 -0.288521,0.074847 -0.280726,0.100197 -0.270708,0.124753 -0.127313,-0.159108 0.274772,-0.130963 0.284981,-0.106943 0.293094,-0.0821376 0.299053,-0.0567281 0.302813,-0.0309016 0.304347,-0.00484787 0.303644,0.0212415 0.300708,0.0471747 0.295562,0.0727611 0.288242,0.0978125 0.278804,0.122145 0.267315,0.145579 0.253862,0.167943 0.238542,0.189073 0.221469,0.208812 0.202767,0.227016 0.182574,0.243552 0.16104,0.258296 0.138321,0.271142 0.114586,0.281995 0.0900078,0.290774 0.0647681,0.297416 0.0390523,0.301871 0.0130494,0.304106 -0.2,0 z "/>
<path fill="rgb(241,240,234)" stroke="rgb(241,240,234)" d="M 7.51535,8.75776 l -0.0631625,0.0617748 -0.0646802,0.0601839 -0.0661579,0.0585556 -0.125047,-0.156276 0.066008,-0.0587737 0.0644345,-0.0604945 0.0628162,-0.0621733 0.125789,0.157203 z "/>
<path fill="rgb(241,240,234)" stroke="rgb(241,240,234)" d="M 6.89635,9.25306 l -0.125789,-0.157203 0.074436,-0.0476517 0.073153,-0.0495987 0.0718191,-0.0515113 0.125047,0.156276 -0.0716393,0.0517054 -0.0729038,0.0499066 -0.0741231,0.0480769 z "/>
<path fill="rgb(241,240,234)" stroke="rgb(241,240,234)" d="M 8.35177,6.25089 l 0.2,0 -0.0139232,0.314103 -0.0416603,0.311639 -0.0690706,0.306731 -0.0959391,0.299416 -0.122055,0.289753 -0.147214,0.277818 -0.171218,0.263702 -0.193878,0.247519 -0.127313,-0.159108 0.177586,-0.231744 0.156734,-0.246326 0.134691,-0.259037 0.111625,-0.269781 0.087711,-0.278476 0.0631309,-0.285055 0.0380714,-0.289469 0.0127227,-0.291685 z "/>
<path fill="rgb(241,240,234)" stroke="rgb(241,240,234)" d="M 1.45177,6.25089 l 0.2,0 0.0132606,0.297776 0.0396769,0.295418 0.0657791,0.290722 0.0913605,0.283724 0.116219,0.27448 0.140157,0.263063 0.162985,0.249564 0.184523,0.234088 0.204601,0.21676 0.223058,0.197715 0.23975,0.177105 0.254543,0.155093 0.267322,0.131854 0.277984,0.10757 0.286445,0.0824346 0.292639,0.0566467 0.296516,0.0304103 0.298045,0.00393315 0.297215,-0.0225751 0.294032,-0.0489047 0.288521,-0.074847 0.280726,-0.100197 0.270708,-0.124753 0.127313,0.159108 -0.274772,0.130963 -0.284981,0.106943 -0.293094,0.0821376 -0.299053,0.0567281 -0.302813,0.0309016 -0.304347,0.00484787 -0.303644,-0.0212415 -0.300708,-0.0471747 -0.295562,-0.0727611 -0.288242,-0.0978125 -0.278804,-0.122145 -0.267315,-0.145579 -0.253862,-0.167943 -0.238542,-0.189073 -0.221469,-0.208812 -0.202767,-0.227016 -0.182574,-0.243552 -0.16104,-0.258296 -0.138321,-0.271142 -0.114586,-0.281995 -0.0900078,-0.290774 -0.0647681,-0.297416 -0.0390523,-0.301871 -0.0130494,-0.304106 z "/>
<path fill="rgb(142,146,145)" stroke="rgb(142,146,145)" d="M 8.75177,6.25089 l -0.2,0 -0.0130494,-0.304106 -0.0390523,-0.301871 -0.0647681,-0.297416 -0.0900078,-0.290774 -0.114586,-0.281995 -0.138321,-0.271142 -0.16104,-0.258296 -0.182574,-0.243552 -0.202767,-0.227016 -0.221469,-0.208812 -0.238542,-0.189073 -0.253862,-0.167943 -0.267315,-0.145579 -0.278804,-0.122145 -0.288242,-0.0978125 -0.295562,-0.0727611 -0.300708,-0.0471747 -0.303644,-0.0212415 -0.304347,0.00484787 -0.302813,0.0309016 -0.299053,0.0567281 -0.293094,0.0821376 -0.284981,0.106943 -0.274772,0.130963 -0.127055,-0.158786 0.290286,-0.141894 0.301423,-0.116379 0.310323,-0.0899994 0.316918,-0.062952 0.321161,-0.0354371 0.323019,-0.00765917 0.32248,0.0201756 0.319546,0.0478606 0.31424,0.0751903 0.306601,0.101962 0.296685,0.127976 0.284567,0.153041 0.270337,0.176969 0.2541,0.199583 0.235976,0.220716 0.2161,0.24021 0.19462,0.257921 0.171695,0.273717 0.147495,0.287481 0.122201,0.299111 0.0959987,0.30852 0.0690841,0.315638 0.0416567,0.320414 0.01392,0.32281 z "/>
<path fill="rgb(142,146,145)" stroke="rgb(142,146,145)" d="M 1.45177,6.25089 l -0.2,0 0.0151291,-0.336511 0.0452652,-0.333795 0.0750361,-0.328387 0.104202,-0.320328 0.132526,-0.309685 0.159782,-0.296544 0.185748,-0.281009 0.210215,-0.263207 0.127055,0.158786 -0.193878,0.247519 -0.171218,0.263702 -0.147214,0.277818 -0.122055,0.289753 -0.0959391,0.299416 -0.0690706,0.306731 -0.0416603,0.311639 -0.0139232,0.314103 z "/>
<path fill="rgb(142,146,145)" stroke="rgb(142,146,145)" d="M 2.55715,3.40724 l 0.125037,0.156263 -0.0661579,0.0585556 -0.0646802,0.0601839 -0.0631625,0.0617748 -0.125699,-0.157091 0.0634707,-0.0614186 0.0648995,-0.0599067 0.0662924,-0.0583617 z "/>
<path fill="rgb(142,146,145)" stroke="rgb(142,146,145)" d="M 2.98149,3.09162 l 0.125699,0.157091 -0.0741231,0.0480769 -0.0729038,0.0499066 -0.0716393,0.0517054 -0.125037,-0.156263 0.0714795,-0.0518791 0.0726815,-0.0501813 0.0738431,-0.0484557 z "/>
<path fill="rgb(142,146,145)" stroke="rgb(142,146,145)" d="M 8.75177,6.25089 l -0.0151291,0.336511 -0.0452652,0.333795 -0.0750361,0.328387 -0.104202,0.320328 -0.132526,0.309685 -0.159782,0.296544 -0.185748,0.281009 -0.210215,0.263207 -0.127055,-0.158786 0.193878,-0.247519 0.171218,-0.263702 0.147214,-0.277818 0.122055,-0.289753 0.0959391,-0.299416 0.0690706,-0.306731 0.0416603,-0.311639 0.0139232,-0.314103 0.2,0 z "/>
<path fill="rgb(142,146,145)" stroke="rgb(142,146,145)" d="M 1.45177,6.25089 l 0.0130494,0.304106 0.0390523,0.301871 0.0647681,0.297416 0.0900078,0.290774 0.114586,0.281995 0.138321,0.271142 0.16104,0.258296 0.182574,0.243552 0.202767,0.227016 0.221469,0.208812 0.238542,0.189073 0.253862,0.167943 0.267315,0.145579 0.278804,0.122145 0.288242,0.0978125 0.295562,0.0727611 0.300708,0.0471747 0.303644,0.0212415 0.304347,-0.00484787 0.302813,-0.0309016 0.299053,-0.0567281 0.293094,-0.0821376 0.284981,-0.106943 0.274772,-0.130963 0.127055,0.158786 -0.290286,0.141894 -0.301423,0.116379 -0.310323,0.0899994 -0.316918,0.062952 -0.321161,0.0354371 -0.323019,0.00765917 -0.32248,-0.0201756 -0.319546,-0.0478606 -0.31424,-0.0751903 -0.306601,-0.101962 -0.296685,-0.127976 -0.284567,-0.153041 -0.270337,-0.176969 -0.2541,-0.199583 -0.235976,-0.220716 -0.2161,-0.24021 -0.19462,-0.257921 -0.171695,-0.273717 -0.147495,-0.287481 -0.122201,-0.299111 -0.0959987,-0.30852 -0.0690841,-0.315638 -0.0416567,-0.320414 -0.01392,-0.32281 0.2,0 z "/>
<path fill="rgb(142,146,145)" stroke="rgb(142,146,145)" d="M 7.02205,9.41015 l -0.125699,-0.157091 0.0741231,-0.0480769 0.0729038,-0.0499066 0.0716393,-0.0517054 0.125037,0.156263 -0.0714795,0.0518791 -0.0726815,0.0501813 -0.0738431,0.0484557 z "/>
<path fill="rgb(142,146,145)" stroke="rgb(142,146,145)" d="M 7.64105,8.91485 l -0.0634707,0.0614186 -0.0648995,0.0599067 -0.0662924,0.0583617 -0.125037,-0.156263 0.0661579,-0.0585556 0.0646802,-0.0601839 0.0631625,-0.0617748 0.125699,0.157091 z "/>
<path fill="rgb(142,146,145)" stroke="rgb(142,146,145)" d="M 1.65177,6.25089 l 0.0127227,-0.291685 0.0380714,-0.289469 0.0631309,-0.285055 0.087711,-0.278476 0.111625,-0.269781 0.134691,-0.259037 0.156734,-0.246326 0.177586,-0.231744 0.448515,0.560526 -0.137207,0.20142 -0.118122,0.213173 -0.0980386,0.223124 -0.0771257,0.231187 -0.0555605,0.237295 -0.0335254,0.241395 -0.0112067,0.243455 -0.7,0 z "/>
<path fill="rgb(142,146,145)" stroke="rgb(142,146,145)" d="M 2.61397,3.90122 l 0.0628162,-0.0621733 0.0644345,-0.0604945 0.066008,-0.0587737 0.437774,0.547101 -0.0653139,0.0598095 -0.0632789,0.0619586 -0.0611732,0.0640384 -0.441266,-0.551466 z "/>
<path fill="rgb(142,146,145)" stroke="rgb(142,146,145)" d="M 6.25988,3.91858 l -0.198701,-0.0967158 -0.206069,-0.0798238 -0.212003,-0.0623767 -0.216463,-0.0444959 -0.219418,-0.0263055 -0.220847,-0.00793227 -0.22074,0.0104961 -0.219098,0.0288516 -0.215932,0.0470064 -0.211264,0.0648343 -0.205128,0.0822113 -0.448515,-0.560526 0.270708,-0.124753 0.280726,-0.100197 0.288521,-0.074847 0.294032,-0.0489047 0.297215,-0.0225751 0.298045,0.00393315 0.296516,0.0304103 0.292639,0.0566467 0.286445,0.0824346 0.277984,0.10757 0.267322,0.131854 0.254543,0.155093 0.23975,0.177105 0.223058,0.197715 0.204601,0.21676 0.184523,0.234088 0.162985,0.249564 0.140157,0.263063 0.116219,0.27448 0.0913605,0.283724 0.0657791,0.290722 0.0396769,0.295418 0.0132606,0.297776 -0.7,0 -0.0106481,-0.237321 -0.0318587,-0.235414 -0.0528133,-0.231615 -0.0733434,-0.225955 -0.0932841,-0.218479 -0.112475,-0.209247 -0.130762,-0.198333 -0.147999,-0.185826 -0.164046,-0.171825 -0.178774,-0.156443 -0.192066,-0.139805 -0.203815,-0.122042 z "/>
<path fill="rgb(142,146,145)" stroke="rgb(142,146,145)" d="M 3.23297,3.40592 l 0.441266,0.551466 -0.0758953,0.0456396 -0.0743279,0.0481502 -0.0726775,0.0506069 -0.437774,-0.547101 0.0718191,-0.0515113 0.073153,-0.0495987 0.074436,-0.0476517 z "/>
<path fill="rgb(142,146,145)" stroke="rgb(142,146,145)" d="M 1.65177,6.25089 l 0.7,0 0.0100841,0.230963 0.0301754,0.229205 0.0500371,0.225703 0.069518,0.220483 0.0884698,0.213585 0.106748,0.205062 0.124214,0.194978 0.140735,0.18341 0.156185,0.170446 0.170446,0.156185 0.18341,0.140735 0.194978,0.124214 0.205062,0.106748 0.213585,0.0884698 0.220483,0.069518 0.225703,0.0500371 0.229205,0.0301754 0.230963,0.0100841 0.223863,-0.00947253 0.222263,-0.0283499 0.219073,-0.0470246 0.214318,-0.065363 0.20803,-0.0832343 0.448515,0.560526 -0.270708,0.124753 -0.280726,0.100197 -0.288521,0.074847 -0.294032,0.0489047 -0.297215,0.0225751 -0.298045,-0.00393315 -0.296516,-0.0304103 -0.292639,-0.0566467 -0.286445,-0.0824346 -0.277984,-0.10757 -0.267322,-0.131854 -0.254543,-0.155093 -0.23975,-0.177105 -0.223058,-0.197715 -0.204601,-0.21676 -0.184523,-0.234088 -0.162985,-0.249564 -0.140157,-0.263063 -0.116219,-0.27448 -0.0913605,-0.283724 -0.0657791,-0.290722 -0.0396769,-0.295418 -0.0132606,-0.297776 z "/>
<path fill="rgb(142,146,145)" stroke="rgb(142,146,145)" d="M 6.77056,9.09586 l -0.441266,-0.551466 0.0758953,-0.0456396 0.0743279,-0.0481502 0.0726775,-0.0506069 0.437774,0.547101 -0.0718191,0.0515113 -0.073153,0.0495987 -0.074436,0.0476517 z "/>
<path fill="rgb(142,146,145)" stroke="rgb(142,146,145)" d="M 7.65177,6.25089 l 0.7,0 -0.0127227,0.291685 -0.0380714,0.289469 -0.0631309,0.285055 -0.087711,0.278476 -0.111625,0.269781 -0.134691,0.259037 -0.156734,0.246326 -0.177586,0.231744 -0.448515,-0.560526 0.137207,-0.20142 0.118122,-0.213173 0.0980386,-0.223124 0.0771257,-0.231187 0.0555605,-0.237295 0.0335254,-0.241395 0.0112067,-0.243455 z "/>
<path fill="rgb(142,146,145)" stroke="rgb(142,146,145)" d="M 7.38956,8.60056 l -0.0628162,0.0621733 -0.0644345,0.0604945 -0.066008,0.0587737 -0.437774,-0.547101 0.0653139,-0.0598095 0.0632789,-0.0619586 0.0611732,-0.0640384 0.441266,0.551466 z "/>
<path fill="rgb(241,240,234)" stroke="rgb(241,240,234)" d="M 0.508116,6.25089 l 0,-4.55847 1.67156,2.089 -0.210215,0.263207 -0.185748,0.281009 -0.159782,0.296544 -0.132526,0.309685 -0.104202,0.320328 -0.0750361,0.328387 -0.0452652,0.333795 -0.0151291,0.336511 -0.743653,0 z "/>
<path fill="rgb(241,240,234)" stroke="rgb(241,240,234)" d="M 0.508116,1.26946 l 0,-0.422964 2.04903,2.56075 -0.0662924,0.0583617 -0.0648995,0.0599067 -0.0634707,0.0614186 -1.85437,-2.31747 z "/>
<path fill="rgb(241,240,234)" stroke="rgb(241,240,234)" d="M 0.905782,0.497542 l 2.0757,2.59408 -0.0738431,0.0484557 -0.0726815,0.0501813 -0.0714795,0.0518791 -2.15271,-2.69032 0.0175566,-0.0123701 0.0185091,-0.0108935 0.0193377,-0.00934393 0.0200368,-0.00773184 0.0206018,-0.00606799 0.0210289,-0.00436353 0.0213152,-0.00262986 0.0214588,-0.000878579 0.135165,1.77636e-15 z "/>
<path fill="rgb(241,240,234)" stroke="rgb(241,240,234)" d="M 9.51129,6.25089 l -0.759525,-8.88178e-16 -0.01392,-0.32281 -0.0416567,-0.320414 -0.0690841,-0.315638 -0.0959987,-0.30852 -0.122201,-0.299111 -0.147495,-0.287481 -0.171695,-0.273717 -0.19462,-0.257921 -0.2161,-0.24021 -0.235976,-0.220716 -0.2541,-0.199583 -0.270337,-0.176969 -0.284567,-0.153041 -0.296685,-0.127976 -0.306601,-0.101962 -0.31424,-0.0751903 -0.319546,-0.0478606 -0.32248,-0.0201756 -0.323019,0.00765917 -0.321161,0.0354371 -0.316918,0.062952 -0.310323,0.0899994 -0.301423,0.116379 -0.290286,0.141894 -1.96711,-2.45837 8.00457,9.76996e-15 0.0228784,0.000998892 0.0227043,0.00298907 0.0223574,0.00495651 0.0218403,0.00688622 0.021157,0.00876352 0.0203127,0.0105741 0.0193138,0.0123043 0.0181679,0.0139407 0.0168838,0.0154711 0.0154711,0.0168838 0.0139407,0.0181679 0.0123043,0.0193138 0.0105741,0.0203127 0.00876352,0.021157 0.00688622,0.0218403 0.00495651,0.0223574 0.00298907,0.0227043 0.000998892,0.0228784 1.77636e-15,5.49085 z "/>
<path fill="rgb(241,240,234)" stroke="rgb(241,240,234)" d="M 9.51129,10.8292 l -1.68743,-2.10884 0.210215,-0.263207 0.185748,-0.281009 0.159782,-0.296544 0.132526,-0.309685 0.104202,-0.320328 0.0750361,-0.328387 0.0452652,-0.333795 0.0151291,-0.336511 0.759525,8.88178e-16 -1.77636e-15,4.57831 z "/>
<path fill="rgb(241,240,234)" stroke="rgb(241,240,234)" d="M 0.508116,6.25089 l 0.743653,0 0.01392,0.32281 0.0416567,0.320414 0.0690841,0.315638 0.0959987,0.30852 0.122201,0.299111 0.147495,0.287481 0.171695,0.273717 0.19462,0.257921 0.2161,0.24021 0.235976,0.220716 0.2541,0.199583 0.270337,0.176969 0.284567,0.153041 0.296685,0.127976 0.306601,0.101962 0.31424,0.0751903 0.319546,0.0478606 0.32248,0.0201756 0.323019,-0.00765917 0.321161,-0.0354371 0.316918,-0.062952 0.310323,-0.0899994 0.301423,-0.116379 0.290286,-0.141894 1.96286,2.45305 -7.98444,-7.10543e-15 -0.0228784,-0.000998892 -0.0227043,-0.00298907 -0.0223574,-0.00495651 -0.0218403,-0.00688622 -0.021157,-0.00876352 -0.0203127,-0.0105741 -0.0193138,-0.0123043 -0.0181679,-0.0139407 -0.0168838,-0.0154711 -0.0154711,-0.0168838 -0.0139407,-0.0181679 -0.0123043,-0.0193138 -0.0105741,-0.0203127 -0.00876352,-0.021157 -0.00688622,-0.0218403 -0.00495651,-0.0223574 -0.00298907,-0.0227043 -0.000998892,-0.0228784 0,-5.48553 z "/>
<path fill="rgb(241,240,234)" stroke="rgb(241,240,234)" d="M 9.51129,11.2522 l 0,0.422964 -2.0649,-2.58059 0.0662924,-0.0583617 0.0648995,-0.0599067 0.0634707,-0.0614186 1.87024,2.33731 z "/>
<path fill="rgb(241,240,234)" stroke="rgb(241,240,234)" d="M 9.39587,11.9538 l -0.0189819,0.0116974 -0.0199061,0.0100443 -0.0206867,0.00831879 -0.021318,0.00653324 -0.0217955,0.00470057 -0.0221158,0.00283397 -0.0222765,0.000946935 -0.155294,-1.77636e-15 -2.07145,-2.58876 0.0738431,-0.0484557 0.0726815,-0.0501813 0.0714795,-0.0518791 2.15582,2.6942 z "/>
<path fill="rgb(241,240,234)" stroke="rgb(241,240,234)" d="M 10.0035,6.25089 l -0.229744,0 0,-5.49085 -0.00199778,-0.0457568 -0.00597815,-0.0454085 -0.00991301,-0.0447147 -0.0137724,-0.0436806 -0.017527,-0.042314 -0.0211483,-0.0406254 -0.0246085,-0.0386276 -0.0278815,-0.0363359 -0.0309423,-0.0337676 -0.0337676,-0.0309423 -0.0363359,-0.0278815 -0.0386276,-0.0246085 -0.0406254,-0.0211483 -0.042314,-0.017527 -0.0436806,-0.0137724 -0.0447147,-0.00991301 -0.0454085,-0.00597815 -0.0457568,-0.00199778 -8.47818,-7.99361e-15 -0.0457568,0.00199778 -0.0454085,0.00597815 -0.0447147,0.00991301 -0.0436806,0.0137724 -0.042314,0.017527 -0.0406254,0.0211483 -0.0386276,0.0246085 -0.0363359,0.0278815 -0.0337676,0.0309423 -0.0309423,0.0337676 -0.0278815,0.0363359 -0.0246085,0.0386276 -0.0211483,0.0406254 -0.017527,0.042314 -0.0137724,0.0436806 -0.00991301,0.0447147 -0.00597815,0.0454085 -0.00199778,0.0457568 0,5.49085 -0.245616,1.77636e-15 0,-6.25089 10.0035,1.77636e-15 -1.77636e-15,6.25089 z "/>
<path fill="rgb(241,240,234)" stroke="rgb(241,240,234)" d="M 10.0035,6.25089 l -1.77636e-15,6.25089 -10.0035,0 0,-6.25089 0.245616,-1.77636e-15 0,5.48553 0.00199778,0.0457568 0.00597815,0.0454085 0.00991301,0.0447147 0.0137724,0.0436806 0.017527,0.042314 0.0211483,0.0406254 0.0246085,0.0386276 0.0278815,0.0363359 0.0309423,0.0337676 0.0337676,0.0309423 0.0363359,0.0278815 0.0386276,0.0246085 0.0406254,0.0211483 0.042314,0.017527 0.0436806,0.0137724 0.0447147,0.00991301 0.0454085,0.00597815 0.0457568,0.00199778 8.47818,1.06581e-14 0.0457568,-0.00199778 0.0454085,-0.00597815 0.0447147,-0.00991301 0.0436806,-0.0137724 0.042314,-0.017527 0.0406254,-0.0211483 0.0386276,-0.0246085 0.0363359,-0.0278815 0.0337676,-0.0309423 0.0309423,-0.0337676 0.0278815,-0.0363359 0.0246085,-0.0386276 0.0211483,-0.0406254 0.017527,-0.042314 0.0137724,-0.0436806 0.00991301,-0.0447147 0.00597815,-0.0454085 0.00199778,-0.0457568 1.77636e-15,-5.48553 0.229744,0 z "/>
<path fill="rgb(42,41,42)" stroke="rgb(42,41,42)" d="M 6.92663,11.4646 l -0.730149,0 0,-0.999234 0.745885,0 0,0.17939 -0.564921,0 0,0.272232 0.298983,0 0,0.182537 -0.298983,0 0,0.185684 0.549185,0 0,0.17939 z "/>
<path fill="rgb(42,41,42)" stroke="rgb(42,41,42)" d="M 5.93683,11.4646 l -0.171522,0 0,-0.659337 0.0188832,-0.339897 0.152639,0 0,0.999234 z "/>
<path fill="rgb(42,41,42)" stroke="rgb(42,41,42)" d="M 5.30582,11.4646 l 0,-0.311572 0.478373,-0.687662 -0.0188832,0.339897 -0.45949,0.659337 z "/>
<path fill="rgb(42,41,42)" stroke="rgb(42,41,42)" d="M 5.30582,11.4646 l -0.174669,0 0,-0.999234 0.174669,0 0,0.687662 0,0.311572 z "/>
<path fill="rgb(42,41,42)" stroke="rgb(42,41,42)" d="M 4.48598,11.4819 l -0.0110152,0 -0.089695,-0.0110152 -0.0802534,-0.0251775 -0.0692382,-0.0424871 -0.0597967,-0.0582231 -0.0298983,-0.0409135 0.339897,0 0.0377663,-0.00314719 0.0771062,-0.0283247 0.0597967,-0.0582231 0.0346191,-0.066091 0.0204568,-0.0834006 0.00629438,-0.097563 -0.00314719,-0.0708118 -0.015736,-0.0865478 -0.0298983,-0.0723854 -0.0361927,-0.0519287 -0.066091,-0.0440607 -0.0849742,-0.0141624 -0.322587,-0.0141624 0.0251775,-0.0330455 0.0597967,-0.0582231 0.0708118,-0.0409135 0.0786798,-0.0251775 0.0881214,-0.00786798 0.00786798,0 0.0865478,0.00944158 0.0771062,0.0283247 0.0692382,0.0440607 0.0613703,0.0629438 0.0283247,0.0409135 0.0361927,0.0708118 0.0267511,0.0802534 0.015736,0.0881214 0.00472079,0.0959894 -0.0015736,0.0582231 -0.0125888,0.0912686 -0.0220303,0.0834006 -0.0330455,0.073959 -0.0440607,0.066091 -0.0015736,0.0015736 -0.0613703,0.0597967 -0.0692382,0.0440607 -0.0802534,0.0251775 -0.0881214,0.00944158 z "/>
<path fill="rgb(42,41,42)" stroke="rgb(42,41,42)" d="M 4.14608,11.3041 l -0.0361927,-0.0692382 -0.0251775,-0.0802534 -0.015736,-0.0881214 -0.00472079,-0.0991366 0,-0.0298983 0.00786798,-0.0928422 0.0204568,-0.0834006 0.0298983,-0.0786798 0.0409135,-0.0692382 0.322587,0.0141624 -0.0393399,0.00314719 -0.0755326,0.0283247 -0.0613703,0.0582231 0,0.0015736 -0.0361927,0.0676646 -0.0204568,0.081827 -0.00786798,0.0991366 0.00786798,0.097563 0.0204568,0.081827 0.0361927,0.0676646 0.0236039,0.0283247 0.0676646,0.0456343 0.0849742,0.015736 -0.339897,0 z "/>
<path fill="rgb(42,41,42)" stroke="rgb(42,41,42)" d="M 3.89588,11.4646 l -0.752179,0 0,-0.176243 0.535023,0 -0.568068,-0.619997 0,-0.202994 0.785225,0 0,0.17939 -0.563347,0 0.563347,0.61685 0,0.202994 z "/>
<path fill="rgb(42,41,42)" stroke="rgb(42,41,42)" d="M 6.20703,6.69973 l -0.202393,-0.252938 0.161671,0 0.00354918,0.000154961 0.00352217,0.000463703 0.00346836,0.000768916 0.00338814,0.00106828 0.00328214,0.00135951 0.00315116,0.00164039 0.0029962,0.00190879 0.00281844,0.00216266 0.00261923,0.00240008 0.00240008,0.00261923 0.00216266,0.00281844 0.00190879,0.0029962 0.00164039,0.00315116 0.00135951,0.00328214 0.00106828,0.00338814 0.000768916,0.00346836 0.000463703,0.00352217 0.000154961,0.00354918 0,0.212216 z "/>
<path fill="rgb(42,41,42)" stroke="rgb(42,41,42)" d="M 5.6957,7.37882 l 0.0205417,0.126677 -0.218237,0 -0.479682,-0.599476 0.338443,0 0.343276,0.429004 -0.00226094,0.00638023 -0.00170115,0.00655174 -0.00112863,0.00667423 -0.000547666,0.0067468 3.7395e-05,0.00676889 0.000622176,0.00674033 0.000190282,0.0013142 0.000212554,0.00131078 0.000234764,0.00130699 z "/>
<path fill="rgb(42,41,42)" stroke="rgb(42,41,42)" d="M 6.38346,7.3432 l 0,0.162303 -0.122216,0 0,-0.126677 -0.00035289,-0.00808303 -0.00105599,-0.00802152 -0.00175105,-0.00789897 -0.00243278,-0.00771631 -0.003096,-0.00747494 -0.00373567,-0.00717668 -0.0043469,-0.00682381 -0.00492506,-0.00641901 -0.00546574,-0.00596537 -0.00596483,-0.00546633 -0.00641852,-0.0049257 -0.00682338,-0.00434758 -0.00717631,-0.00373638 -0.00747463,-0.00309674 -0.00771607,-0.00243355 -0.0078988,-0.00175183 -0.00802142,-0.00105678 -0.008083,-0.000353693 -1.03029e-13,0 -0.169196,0 -0.304105,-0.38005 0.161166,0 0,-0.221549 0.527089,0.658722 z "/>
<path fill="rgb(42,41,42)" stroke="rgb(42,41,42)" d="M 4.67988,6.90603 l 0.479682,0.599476 -0.819033,0 0.0205417,-0.126677 0.00097462,-0.00680346 0.000373943,-0.00686274 -0.000229617,-0.00686908 -0.000831407,-0.00682244 -0.00142678,-0.00672319 -0.00201116,-0.00657208 -0.00258002,-0.00637028 -0.00312898,-0.00611935 -0.00365381,-0.00582122 -0.00415046,-0.0054782 -0.0046151,-0.00509292 -0.00504414,-0.00466837 -0.00543428,-0.0042078 -0.0057825,-0.00371479 -0.00608613,-0.00319312 -0.00634281,-0.00264683 -0.00655058,-0.00208012 -0.00670782,-0.00149736 -0.00681333,-0.000903063 -0.00686629,-0.000301797 -0.395883,0 -3.11307e-13,0 -0.00808408,0.000352177 -0.00802262,0.00105546 -0.00790009,0.0017507 -0.00771744,0.00243262 -0.00747603,0.00309602 -0.00717773,0.00373586 -0.00682479,0.00434726 -0.0064199,0.00492557 -0.00596615,0.0054664 -0.00546699,0.00596561 -0.00492621,0.00641941 -0.00434794,0.00682436 -0.00373657,0.00717736 -0.00309676,0.00747573 -0.00243339,0.00771719 -0.00175148,0.00789992 -0.00105625,0.00802252 -0.00035298,0.00808405 0,0.126677 -0.122158,0 0,-0.429812 0.106325,-0.169664 0.0701319,0 0,-0.418508 0.000155005,-0.00354969 0.000463836,-0.00352267 0.000769135,-0.00346883 0.00106858,-0.00338858 0.00135989,-0.00328254 0.00164085,-0.0031515 0.00190931,-0.00299648 0.00216324,-0.00281864 0.0024007,-0.00261935 0.00261989,-0.00240011 0.00281913,-0.0021626 0.00299691,-0.00190863 0.00315187,-0.00164013 0.00328285,-0.00135915 0.00338882,-0.00106781 0.003469,-0.000768351 0.00352278,-0.00046304 0.00354973,-0.000154203 3.79252e-13,0 0.269187,0 0.00354889,0.00015497 0.00352187,0.000463731 0.00346805,0.000768962 0.00338782,0.00106834 0.0032818,0.00135958 0.00315079,0.00164047 0.0029958,0.00190888 0.002818,0.00216275 0.00261875,0.00240016 0.00239957,0.0026193 0.00216212,0.00281849 0.0019082,0.00299623 0.00163976,0.00315116 0.00135884,0.0032821 0.00106757,0.00338806 0.000768178,0.00346822 0.000462935,0.00352198 0.000154168,0.00354893 0,1.40332e-13 0,0.418508 0.479425,0 z "/>
<path fill="rgb(42,41,42)" stroke="rgb(42,41,42)" d="M 3.79553,7.54208 l 0,0.0041438 -2.2722e-05,-0.00138121 0,-0.00138139 2.2722e-05,-0.00138121 z "/>
<path fill="rgb(42,41,42)" stroke="rgb(42,41,42)" d="M 6.03963,7.84031 l -0.0847821,0.00874322 -0.0848575,0.00797775 -0.084926,0.00721162 -0.287054,-0.358741 0.218237,0 0.00660344,0.0407223 0.00165797,0.00805153 0.00233275,0.00788253 0.00299083,0.00765709 0.00362748,0.00737682 0.00423817,0.00704372 0.0048185,0.00666019 0.00536434,0.00622896 0.00587176,0.00575313 0.00633713,0.00523611 0.00675713,0.00468159 0.00712874,0.00409355 0.0074493,0.00347619 0.00771653,0.00283395 0.0079285,0.00217141 0.00808369,0.00149332 0.008181,0.000804543 0.120873,0 0.266813,0.333446 -0.115834,0.278201 -0.136041,-0.170016 0.0904851,-0.22899 z "/>
<path fill="rgb(42,41,42)" stroke="rgb(42,41,42)" d="M 4.24344,7.62767 l -0.00360493,0.000133936 -0.00360741,0 -0.00360493,-0.000133936 0.0108173,0 z "/>
<path fill="rgb(42,41,42)" stroke="rgb(42,41,42)" d="M 4.01723,7.84031 l 0.183232,0.46375 0.318834,0.0536767 0.322111,0.0279462 0.323315,0.00203587 0.322437,-0.0238876 0.319485,-0.0496573 0.134556,0.16816 -0.311271,0.0464811 -0.313536,0.0273026 -0.31462,0.00802137 -0.312485,-0.0111549 -0.311225,-0.0301756 -0.308808,-0.0490841 -0.264677,-0.635679 -0.131206,-0.156087 0,-0.176457 0.122158,0 0,0.0365785 -2.2722e-05,0.00138121 0,0.00138139 2.2722e-05,0.00138121 0.000496638,0.00727879 0.00112651,0.00720822 0.00174789,0.00708324 0.00235607,0.00690481 0.00294647,0.00667426 0.00351463,0.00639334 0.00405626,0.00606417 0.00456728,0.00568923 0.00504383,0.00527135 0.00548232,0.00481369 0.00587942,0.0043197 0.00623216,0.0037931 0.00653785,0.00323788 0.00679421,0.00265822 0.00699928,0.0020585 0.00715154,0.00144324 0.00724981,0.000817089 0.00729337,0.000184772 0.00728189,-0.00044894 0.344343,0 0.00360493,0.000133936 0.00360741,0 0.00360493,-0.000133936 0.008181,-0.000804543 0.00808369,-0.00149332 0.0079285,-0.00217141 0.00771653,-0.00283395 0.0074493,-0.00347619 0.00712874,-0.00409355 0.00675713,-0.00468159 0.00633713,-0.00523611 0.00587176,-0.00575313 0.00536434,-0.00622896 0.0048185,-0.00666019 0.00423817,-0.00704372 0.00362748,-0.00737682 0.00299083,-0.00765709 0.00233275,-0.00788253 0.00165797,-0.00805153 0.00660344,-0.0407223 0.819033,0 0.303344,0.379099 -0.482439,0.00987759 -0.482314,-0.0147765 -0.48093,-0.039392 z "/>
<path fill="rgb(42,41,42)" stroke="rgb(42,41,42)" d="M 6.38346,7.68196 l -0.0345185,0.0410643 -0.103672,-0.129562 0.00398947,-0.00603013 0.00345599,-0.00635095 0.00289688,-0.00662468 0.00231631,-0.00684931 0.00171856,-0.00702317 0.00110808,-0.00714497 0.000489382,-0.0072138 0,-0.0407223 0.122216,0 0,0.176457 z "/>
<path fill="rgb(42,41,42)" stroke="rgb(42,41,42)" d="M 4.67395,6.05268 l 0.173655,0.217023 -0.0158522,-0.00017278 -0.0157872,-0.00144377 -0.0156206,-0.00270545 -0.0153532,-0.0039497 -0.0149869,-0.0051685 -2.22045e-14,-8.88178e-15 -0.0168771,-0.00747874 -0.0161388,-0.00896153 -0.0152705,-0.0103722 -0.0142792,-0.0116993 -0.013173,-0.0129322 -0.0119607,-0.014061 -0.010652,-0.0150766 -0.00925767,-0.0159707 -0.00778875,-0.0167363 -0.00625711,-0.0173671 -0.0046751,-0.0178581 -0.00305544,-0.0182053 -0.00141118,-0.0184059 0.000244445,-0.0184583 0.0344966,0 z "/>
<path fill="rgb(42,41,42)" stroke="rgb(42,41,42)" d="M 5.04631,6.09507 l -0.197959,-0.247396 0.0157681,0.0126736 0.0168368,0.011215 0.017771,0.0096667 0.0185632,0.00804118 0.0192071,0.00635142 0.0196975,0.00461092 0.0200306,0.00283357 0.0202036,0.00103358 0.0125362,0.0160258 0.0110391,0.0170916 0.00945202,0.0180179 0.0077878,0.0187972 0.00606006,0.0194232 0.00428289,0.0198907 0.00247078,0.020196 0.000638513,0.0203366 -0.00119896,0.0203112 -0.000842571,0.00699243 -0.00106286,0.00696235 -0.00128208,0.00692534 z "/>
<path fill="rgb(42,41,42)" stroke="rgb(42,41,42)" d="M 5.21061,4.3855 l -0.47507,0.475266 0.248817,0.310956 0.156797,0.0377202 -0.0665871,0.0750187 0.229021,0.286215 0.238926,-0.33808 0.00863476,-0.0133761 0.00748235,-0.0140533 0.00627721,-0.0146314 0.00502783,-0.0151063 0.00374301,-0.0154748 0.00243181,-0.0157343 0.00110346,-0.0158828 -0.000232655,-0.0159194 -0.00156713,-0.0158438 -0.00289057,-0.0156565 -0.00419363,-0.0153588 -0.00546713,-0.014953 -0.0067021,-0.0144417 -0.00788984,-0.0138286 -0.00902196,-0.0131181 -0.0100905,-0.0123151 -0.0110879,-0.0114253 -0.0120072,-0.010455 -0.0128418,-0.00941104 -0.013586,-0.00830072 -0.0142343,-0.00713189 -0.0147824,-0.00591279 -0.0152263,-0.00465203 -0.0155628,-0.00335847 -0.0157897,-0.00204124 -0.0159052,-0.000709631 -0.486259,0 0.374342,-0.438019 -0.0656082,-0.109986 z "/>
<path fill="rgb(42,41,42)" stroke="rgb(42,41,42)" d="M 4.85171,5.53554 l -0.422582,-0.370487 -0.0694712,0.0694712 0.505566,0.563449 0.0117741,0.0119834 0.0128096,0.0108694 0.0137401,0.00966641 0.014558,0.00838415 0.0152566,0.00703318 0.0158302,0.00562456 0.016274,0.00416984 0.0165844,0.00268095 0.0167589,0.00117008 0.016796,-0.000350373 0.016331,-0.00181073 0.0161068,-0.00324824 0.0157563,-0.00466029 0.0152823,-0.0060358 0.0146885,-0.00736399 0.0139795,-0.00863444 0.0131609,-0.0098372 0.0122391,-0.0109628 0.0112214,-0.0120025 -0.247785,-0.309666 -0.0448751,0.0505573 z "/>
<path fill="rgb(42,41,42)" stroke="rgb(42,41,42)" d="M 6.13847,4.47986 l -0.00111679,-0.0255788 -0.00334188,-0.0253841 -0.00554153,-0.0249962 -0.00769901,-0.0244181 -0.00979789,-0.0236542 -0.0118222,-0.0227103 -0.0137566,-0.0215935 -0.0155862,-0.0203123 -0.0172972,-0.0188766 -0.0188766,-0.0172972 -0.0203123,-0.0155862 -0.0215935,-0.0137566 -0.0227103,-0.0118222 -0.0236542,-0.00979789 -0.0244181,-0.00769901 -0.0249962,-0.00554153 -0.0253841,-0.00334188 -0.0255788,-0.00111679 -0.0255788,0.00111679 -0.0253841,0.00334188 -0.0249962,0.00554153 -0.0244181,0.00769901 -0.0236542,0.00979789 -0.0227103,0.0118222 -0.0215935,0.0137566 -0.0203123,0.0155862 -0.0188766,0.0172972 -0.0172972,0.0188766 -0.0155862,0.0203123 -0.0137566,0.0215935 -0.0118222,0.0227103 -0.00979789,0.0236542 -0.00769901,0.0244181 -0.00554153,0.0249962 -0.00334188,0.0253841 -0.00111679,0.0255788 0.00111679,0.0255788 0.00334188,0.0253841 0.00554153,0.0249962 0.00769901,0.0244181 0.00979789,0.0236542 0.0118222,0.0227103 0.0137566,0.0215935 0.0155862,0.0203123 0.0172972,0.0188766 0.0188766,0.0172972 0.0203123,0.0155862 0.0215935,0.0137566 0.0227103,0.0118222 0.0236542,0.00979789 0.0244181,0.00769901 0.0249962,0.00554153 0.0253841,0.00334188 0.0255788,0.00111679 0.0255788,-0.00111679 0.0253841,-0.00334188 0.0249962,-0.00554153 0.0244181,-0.00769901 0.0236542,-0.00979789 0.0227103,-0.0118222 0.0215935,-0.0137566 0.0203123,-0.0155862 0.0188766,-0.0172972 0.0172972,-0.0188766 0.0155862,-0.0203123 0.0137566,-0.0215935 0.0118222,-0.0227103 0.00979789,-0.0236542 0.00769901,-0.0244181 0.00554153,-0.0249962 0.00334188,-0.0253841 0.00111679,-0.0255788 z M 5.63154,4.89098 l -0.0355815,-0.0205252 -0.0336234,-0.0235966 -0.0314008,-0.0264825 -0.0289313,-0.0291601 -0.0262343,-0.0316084 -0.023331,-0.0338082 -0.0202443,-0.0357421 -0.0169984,-0.037395 -0.0136188,-0.0387538 -0.0101321,-0.0398079 -0.00656574,-0.040549 -0.00294777,-0.0409712 -9.70982e-05,-0.00424071 -5.82622e-05,-0.00424142 -1.94213e-05,-0.00424177 0.00180447,-0.0408474 0.00539935,-0.0405292 0.00895216,-0.0398952 0.0124352,-0.0389504 0.0158214,-0.0377021 0.0190843,-0.0361601 0.0221986,-0.0343364 0.0251399,-0.0322452 0.0278853,-0.0299028 0.0304135,-0.0273274 0.0327048,-0.0245391 0.0347412,-0.0215596 0.036507,-0.0184122 0.0379884,-0.0151213 0.0391738,-0.0117126 0.040054,-0.00821263 0.0406221,-0.0046487 0.0408738,-0.00104855 0.0408071,0.00255977 0.0404224,0.00614815 0.0397228,0.00968862 0.0387137,0.0131536 0.037403,0.0165161 0.0358009,0.01975 0.0339199,0.02283 0.0306065,0.024701 0.0284009,0.0272083 0.0259905,0.0295194 0.0233927,0.0316177 0.0206263,0.0334881 0.0177112,0.0351171 0.0146684,0.036493 0.0115199,0.0376057 0.00828834,0.0384474 0.00499702,0.0390119 0.00166969,0.0392952 -0.00183819,0.0412266 -0.00549998,0.0408994 -0.00911813,0.0402476 -0.0126639,0.0392764 -0.0161092,0.0379935 -0.0194266,0.036409 -0.0225898,0.0345356 -0.0255738,0.0323881 -0.0283548,0.0299836 -0.0309108,0.0273411 -0.0332214,0.0244816 -0.0352684,0.0214278 -0.0370355,0.018204 -0.0385086,0.0148356 -0.0396762,0.0113496 -0.0405288,0.00777343 -0.0410598,0.00413559 -0.0412649,0.000464939 -0.0411426,-0.00320941 -0.0406937,-0.00685828 -0.0399218,-0.0104527 -0.0388331,-0.0139642 -0.0374362,-0.0173649 z "/>
<path fill="rgb(42,41,42)" stroke="rgb(42,41,42)" d="M 3.89598,4.47986 l 0.00109144,0.0252873 0.00326619,0.0250992 0.00541666,0.0247244 0.00752683,0.0241658 0.00958102,0.0234274 0.011564,0.0225147 0.0134609,0.0214346 0.0152577,0.0201951 0.016941,0.0188053 0.0184983,0.0172757 0.019918,0.0156176 0.0211896,0.0138433 0.0223036,0.0119661 0.0232517,0.00999987 0.0240268,0.00795926 0.0246232,0.00585945 0.0250365,0.00371606 0.0252636,0.00154502 0.0253028,-0.000637498 0.0251538,-0.00281528 0.0248176,-0.00497212 0.0242969,-0.00709198 0.0235955,-0.00915909 0.108378,0.135443 -0.0237937,0.0124286 -0.0244737,0.0110295 -0.0250715,0.0095933 -0.0358916,0.0109438 -0.0366596,0.00800297 -0.0371871,0.00500961 -0.0374706,0.00198339 -0.0375082,-0.00105586 -0.0372996,-0.00408817 -0.392971,-0.49111 0.00429605,-0.0379648 0.00741011,-0.0374817 0.0104737,-0.0367435 0.0134661,-0.0357554 0.0163669,-0.034524 0.0191564,-0.0330578 0.0218155,-0.0313667 0.0243262,-0.0294622 0.108378,0.135443 -0.0147776,0.0221096 -0.0127156,0.0233565 -0.0105492,0.0244117 -0.00829611,0.0252664 -0.00597493,0.0259136 -0.00360469,0.0263481 -0.00120486,0.0265662 z "/>
<path fill="rgb(42,41,42)" stroke="rgb(42,41,42)" d="M 4.48294,4.47986 l -0.00108549,-0.0252184 -0.00324843,-0.0250318 -0.00538735,-0.0246601 -0.00748641,-0.024106 -0.0095301,-0.0233735 -0.0115033,-0.0224682 -0.0133914,-0.0213966 -0.0151804,-0.0201668 -0.0168572,-0.0187878 -0.0184092,-0.0172698 -0.0198251,-0.0156241 -0.0210943,-0.0138628 -0.0222075,-0.0119989 -0.0231564,-0.0100463 -0.023934,-0.00801934 -0.0245345,-0.00593309 -0.0249536,-0.00380295 -0.0251881,-0.00164467 -0.123805,-0.154723 0.03926,-0.00847596 0.0398467,-0.00504325 0.0401337,-0.00157262 0.0401191,0.00190983 0.0398029,0.00537793 0.0391874,0.00880559 0.0382773,0.0121671 0.0370795,0.0154371 0.0356029,0.018591 0.0338586,0.0216052 0.0318598,0.0244569 0.0296215,0.0271248 0.0271605,0.0295888 0.0244953,0.0318303 0.021646,0.0338325 0.0186339,0.0355804 0.0154818,0.0370608 0.0122132,0.0382626 0.00885286,0.0391767 0.00542595,0.0397964 0.00109133,0.014185 0.00065521,0.0142118 0.000218472,0.0142253 -0.00210729,0.0441347 -0.00630268,0.0437332 -0.0104407,0.0429338 -0.0144838,0.0417437 -0.0183951,0.0401738 -0.123805,-0.154723 0.00321053,-0.0191898 0.00193198,-0.0193604 0.000644938,-0.0194459 z "/>
<path fill="rgb(42,41,42)" stroke="rgb(42,41,42)" d="M 7.11502,9.10338 l -0.125047,-0.156276 0.0702175,-0.0532184 0.0687936,-0.0550466 0.0673222,-0.0568367 0.125047,0.156276 -0.0674047,0.0567354 -0.0687919,0.0550452 -0.0701367,0.0533211 z "/>
<path fill="rgb(42,41,42)" stroke="rgb(42,41,42)" d="M 2.55715,3.40724 l 0.0674784,-0.0566448 0.0687904,-0.055044 0.0700646,-0.0534128 -2.15271,-2.69032 -0.0183778,0.0154957 -0.0168832,0.0171119 -0.015247,0.0185847 -0.0134829,0.0199015 -0.0116058,0.0210515 -0.00963136,0.0220249 -0.00757613,0.0228137 -0.00545736,0.0234111 -0.00329283,0.0238121 -0.00110069,0.0240135 0,0.0864512 2.04903,2.56075 z "/>
<path fill="rgb(42,41,42)" stroke="rgb(42,41,42)" d="M 2.68219,3.56351 l 0.0674047,-0.0567354 0.0687919,-0.0550452 0.0701367,-0.0533211 0.125047,0.156276 -0.0702175,0.0532184 -0.0687936,0.0550466 -0.0673222,0.0568367 -0.125047,-0.156276 z "/>
<path fill="rgb(42,41,42)" stroke="rgb(42,41,42)" d="M 6.98997,8.9471 l -0.437774,-0.547101 0.0705955,-0.0527362 0.0688031,-0.0550542 0.0669347,-0.0573113 0.437774,0.547101 -0.0673222,0.0568367 -0.0687936,0.0550466 -0.0702175,0.0532184 z "/>
<path fill="rgb(42,41,42)" stroke="rgb(42,41,42)" d="M 2.80723,3.71978 l 0.0673222,-0.0568367 0.0687936,-0.0550466 0.0702175,-0.0532184 0.437774,0.547101 -0.0705955,0.0527362 -0.0688031,0.0550542 -0.0669347,0.0573113 -0.437774,-0.547101 z "/>
<path fill="rgb(42,41,42)" stroke="rgb(42,41,42)" d="M 4.63945,5.92726 l 0,-0.127361 0.167876,0 0.01217,0.0171754 0.0137131,0.0159704 0.0151376,0.0146272 0.197959,0.247396 -0.00475514,0.0191718 -0.00643218,0.018676 -0.0080588,0.0180339 -0.00962226,0.0172505 -0.0111103,0.0163318 -0.0125112,0.0152852 -0.0138141,0.0141187 -0.00908395,0.00804509 -0.0095079,0.00753932 -0.00990373,0.00701125 -1.24345e-14,8.88178e-15 -0.0157705,0.00950066 -0.0165867,0.00799067 -0.0172588,0.00641122 -0.0177809,0.00477605 -0.0181484,0.00309937 -0.0183582,0.00139575 -0.173655,-0.217023 0.127585,0 0,-0.125422 -0.162081,0 z "/>
<path fill="rgb(42,41,42)" stroke="rgb(42,41,42)" d="M 6.5522,8.4 l -0.351182,-0.438884 0.0512418,-0.123068 0.0966876,-0.115023 0.409586,0.511874 -0.0669347,0.0573113 -0.0688031,0.0550542 -0.0705955,0.0527362 z "/>
<path fill="rgb(42,41,42)" stroke="rgb(42,41,42)" d="M 4.63945,5.92726 l 0.162081,0 0,0.125422 -0.127585,0 -1.42894,-1.7858 0.0669347,-0.0573113 0.0688031,-0.0550542 0.0705955,-0.0527362 0.276072,0.345018 -0.00065609,0.0110094 -0.000393803,0.0110219 -0.000131292,0.0110281 0.001826,0.0410899 0.0054636,0.040766 0.00905813,0.0401206 0.0125812,0.039159 0.0160052,0.0378887 0.0193029,0.0363196 0.0224485,0.0344642 0.0254171,0.0323371 0.0281853,0.0299551 0.0307313,0.0273369 0.033035,0.0245031 0.0350783,0.0214762 0.036845,0.01828 0.0383213,0.0149397 0.0394954,0.0114816 0.0403582,0.00793299 0.689667,0.861902 -0.00272183,9.04446e-05 -0.167876,0 0,0.127361 z "/>
<path fill="rgb(42,41,42)" stroke="rgb(42,41,42)" d="M 7.24006,9.25964 l -0.125037,-0.156263 0.0701367,-0.0533211 0.0687919,-0.0550452 0.0674047,-0.0567354 0.125037,0.156263 -0.0674784,0.0566448 -0.0687904,0.055044 -0.0700646,0.0534128 z "/>
<path fill="rgb(42,41,42)" stroke="rgb(42,41,42)" d="M 6.20102,7.96111 l -0.266813,-0.333446 0.234288,0 0.00732003,0.000449622 0.00733134,-0.000190732 0.00728674,-0.000829633 0.00718658,-0.00146221 0.0070316,-0.00208363 0.006823,-0.00268916 0.00656237,-0.00327418 0.00625169,-0.00383424 0.00589333,-0.00436505 0.00549002,-0.00486257 0.00504485,-0.00532301 0.0045612,-0.00574285 0.103672,0.129562 -0.0966876,0.115023 -0.0512418,0.123068 z "/>
<path fill="rgb(42,41,42)" stroke="rgb(42,41,42)" d="M 5.00177,6.46237 l -0.154164,-0.192664 0.0183582,-0.00139575 0.0181484,-0.00309937 0.0177809,-0.00477605 0.0172588,-0.00641122 0.0165867,-0.00799067 0.0157705,-0.00950066 1.24345e-14,-8.88178e-15 0.00990373,-0.00701125 0.0095079,-0.00753932 0.00908395,-0.00804509 0.0217647,0.0369515 0,0.211482 z "/>
<path fill="rgb(42,41,42)" stroke="rgb(42,41,42)" d="M 5.00177,6.46237 l 0,-0.211482 -0.0217647,-0.0369515 0.0138141,-0.0141187 0.0125112,-0.0152852 0.0111103,-0.0163318 0.00962226,-0.0172505 0.0080588,-0.0180339 0.00643218,-0.018676 0.00475514,-0.0191718 0.648902,0.810955 -0.338443,0 -0.354998,-0.443654 z "/>
<path fill="rgb(42,41,42)" stroke="rgb(42,41,42)" d="M 3.72623,4.47986 l 0.000131292,-0.0110281 0.000393803,-0.0110219 0.00065609,-0.0110094 0.392971,0.49111 -0.0403582,-0.00793299 -0.0394954,-0.0114816 -0.0383213,-0.0149397 -0.036845,-0.01828 -0.0350783,-0.0214762 -0.033035,-0.0245031 -0.0307313,-0.0273369 -0.0281853,-0.0299551 -0.0254171,-0.0323371 -0.0224485,-0.0344642 -0.0193029,-0.0363196 -0.0160052,-0.0378887 -0.0125812,-0.039159 -0.00905813,-0.0401206 -0.0054636,-0.040766 -0.001826,-0.0410899 z "/>
<path fill="rgb(42,41,42)" stroke="rgb(42,41,42)" d="M 5.9342,7.62767 l -0.23416,-0.292639 0.00274232,-0.00603975 0.00324393,-0.00578583 0.00372223,-0.00549034 0.0041738,-0.00515542 0.00459538,-0.00478345 0.00498395,-0.00437712 0.00533671,-0.00393934 0.00565114,-0.00347327 0.00592496,-0.00298224 0.00615622,-0.00246979 0.00634326,-0.00193959 0.00648472,-0.00139546 0.0065796,-0.000841308 0.00662721,-0.000281109 0.226706,0 0.24596,0.307385 -0.0045612,0.00574285 -0.00504485,0.00532301 -0.00549002,0.00486257 -0.00589333,0.00436505 -0.00625169,0.00383424 -0.00656237,0.00327418 -0.006823,0.00268916 -0.0070316,0.00208363 -0.00718658,0.00146221 -0.00728674,0.000829633 -0.00733134,0.000190732 -0.00732003,-0.000449622 -0.234288,0 z "/>
<path fill="rgb(42,41,42)" stroke="rgb(42,41,42)" d="M 2.55715,3.40724 l 0.0674784,-0.0566448 0.0687904,-0.055044 0.0700646,-0.0534128 0.125037,0.156263 -0.0701367,0.0533211 -0.0687919,0.0550452 -0.0674047,0.0567354 -0.125037,-0.156263 z "/>
<path fill="rgb(42,41,42)" stroke="rgb(42,41,42)" d="M 9.39587,11.9538 l 0.0186884,-0.0138888 0.0173841,-0.0154902 0.0159431,-0.0169698 0.0143766,-0.0183158 0.012697,-0.0195177 0.0109175,-0.0205661 0.00905205,-0.0214526 0.00711543,-0.0221704 0.00512282,-0.0227137 0.0030899,-0.0230783 0.00103268,-0.0232613 0,-0.0612952 -2.0649,-2.58059 -0.0674784,0.0566448 -0.0687904,0.055044 -0.0700646,0.0534128 2.15582,2.6942 z "/>
<path fill="rgb(42,41,42)" stroke="rgb(42,41,42)" d="M 5.35677,6.90603 l 0.338443,0 0.304105,0.38005 -0.226706,0 -0.00662721,0.000281109 -0.0065796,0.000841308 -0.00648472,0.00139546 -0.00634326,0.00193959 -0.00615622,0.00246979 -0.00592496,0.00298224 -0.00565114,0.00347327 -0.00533671,0.00393934 -0.00498395,0.00437712 -0.00459538,0.00478345 -0.0041738,0.00515542 -0.00372223,0.00549034 -0.00324393,0.00578583 -0.00274232,0.00603975 -0.343276,-0.429004 z "/>
<path fill="rgb(42,41,42)" stroke="rgb(42,41,42)" d="M 4.80733,5.7999 l 0.00272183,-9.04446e-05 0.0382988,0.0478634 -0.0151376,-0.0146272 -0.0137131,-0.0159704 -0.01217,-0.0171754 z "/>
<path fill="rgb(42,41,42)" stroke="rgb(42,41,42)" d="M 0.905782,0.497542 l 2.0757,2.59408 0.0755365,-0.0470506 0.0766318,-0.0452449 0.0776838,-0.0434138 -1.96711,-2.45837 -0.338443,2.66454e-15 z "/>
<path fill="rgb(42,41,42)" stroke="rgb(42,41,42)" d="M 4.19597,4.18645 l 0.281185,0.351407 -0.00613847,0.0248163 -0.00827479,0.024188 -0.0103483,0.0233761 -0.0123433,0.0223869 -0.0142447,0.0212278 -0.016038,0.0199076 -0.0177096,0.0184364 -0.0192468,0.0168253 -0.020638,0.0150866 -0.0218726,0.0132333 -0.0229412,0.0112797 -0.354261,-0.442732 0.0160364,-0.0199089 0.0177081,-0.0184379 0.0192454,-0.0168269 0.0206367,-0.0150882 0.0218715,-0.0132351 0.0229403,-0.0112816 0.023835,-0.00924242 0.0245489,-0.00713315 0.0250765,-0.00496976 0.0254139,-0.00276865 0.0255584,-0.000546544 z "/>
<path fill="rgb(42,41,42)" stroke="rgb(42,41,42)" d="M 4.07217,4.03172 l 0.123805,0.154723 -0.0255584,0.000546544 -0.0254139,0.00276865 -0.0250765,0.00496976 -0.0245489,0.00713315 -0.023835,0.00924242 -0.0229403,0.0112816 -0.0218715,0.0132351 -0.0206367,0.0150882 -0.0192454,0.0168269 -0.0177081,0.0184379 -0.0160364,0.0199089 -0.108378,-0.135443 0.0247727,-0.0255538 0.0266614,-0.0235765 0.0283928,-0.02146 0.0299566,-0.0192168 0.0376629,-0.0198935 0.039331,-0.01635 0.0406665,-0.0126682 z "/>
<path fill="rgb(42,41,42)" stroke="rgb(42,41,42)" d="M 6.20703,6.69973 l 0,0.206293 0.0701227,0 0.106316,0.169664 0,0.267509 -0.527089,-0.658722 0,-0.196959 0.000154961,-0.00354918 0.000463703,-0.00352217 0.000768916,-0.00346836 0.00106828,-0.00338814 0.00135951,-0.00328214 0.00164039,-0.00315116 0.00190879,-0.0029962 0.00216266,-0.00281844 0.00240008,-0.00261923 0.00261923,-0.00240008 0.00281844,-0.00216266 0.0029962,-0.00190879 0.00315116,-0.00164039 0.00328214,-0.00135951 0.00338814,-0.00106828 0.00346836,-0.000768916 0.00352217,-0.000463703 0.00354918,-0.000154961 0.107535,0 0.202393,0.252938 z "/>
<path fill="rgb(42,41,42)" stroke="rgb(42,41,42)" d="M 4.47716,4.53785 l 0.123805,0.154723 -0.0191346,0.0335146 -0.0218579,0.0318056 -0.0244295,0.0298758 -0.0268316,0.0277386 -0.0290474,0.0254089 -0.0310616,0.0229029 -0.0328602,0.0202379 -0.108378,-0.135443 0.0229412,-0.0112797 0.0218726,-0.0132333 0.020638,-0.0150866 0.0192468,-0.0168253 0.0177096,-0.0184364 0.016038,-0.0199076 0.0142447,-0.0212278 0.0123433,-0.0223869 0.0103483,-0.0233761 0.00827479,-0.024188 0.00613847,-0.0248163 z "/>
<path fill="rgb(42,41,42)" stroke="rgb(42,41,42)" d="M 7.12098,7.84194 l -0.0552067,0.0709916 -0.0575838,0.0690775 -0.0598945,0.0670839 -0.564833,-0.705892 0,-0.267509 -0.106316,-0.169664 -0.0701227,0 0,-0.206293 0.913957,1.1422 z "/>
<path fill="rgb(42,41,42)" stroke="rgb(42,41,42)" d="M 3.91422,3.83433 l 0.157945,0.19739 -0.0406665,0.0126682 -0.039331,0.01635 -0.0376629,0.0198935 -0.122248,-0.207717 0.0271738,-0.0131726 0.0273222,-0.0128621 0.027467,-0.0125499 z "/>
<path fill="rgb(42,41,42)" stroke="rgb(42,41,42)" d="M 5.30359,5.57068 l -0.229021,-0.286215 -0.177988,0.200526 0.247785,0.309666 0.00426718,-0.00517643 0.00407729,-0.00532729 0.00388206,-0.00547119 0.146997,-0.208001 z "/>
<path fill="rgb(42,41,42)" stroke="rgb(42,41,42)" d="M 2.98149,3.09162 l 0.0755365,-0.0470506 0.0766318,-0.0452449 0.0776838,-0.0434138 0.127055,0.158786 -0.0781827,0.0427322 -0.0770856,0.0446809 -0.07594,0.0466014 -0.125699,-0.157091 z "/>
<path fill="rgb(42,41,42)" stroke="rgb(42,41,42)" d="M 7.82387,8.72036 l -0.0593938,0.0662715 -0.0609496,0.0648435 -0.0624712,0.0633789 -0.125699,-0.157091 0.0621213,-0.0638711 0.0604988,-0.06541 0.0588382,-0.0669077 0.127055,0.158786 z "/>
<path fill="rgb(42,41,42)" stroke="rgb(42,41,42)" d="M 7.5695,8.40246 l -0.058212,0.0676212 -0.0599922,0.0660469 -0.0617299,0.0644257 -0.441266,-0.551466 0.0598945,-0.0670839 0.0575838,-0.0690775 0.0552067,-0.0709916 0.448515,0.560526 z "/>
<path fill="rgb(42,41,42)" stroke="rgb(42,41,42)" d="M 4.60096,4.69258 l 0.13458,0.16819 -0.0719699,0.0719995 -0.00624936,0.00683207 -0.00562017,0.00735835 -0.00494688,0.00782688 -0.00423476,0.00823398 -0.00348941,0.00857646 -0.00271667,0.00885163 -0.0019226,0.00905733 -0.00111345,0.00919194 -0.000295566,0.00925442 0.000524642,0.00924426 0.00134073,0.00916155 0.0021463,0.00900694 0.00293502,0.00878164 0.00370071,0.00848742 0.00443736,0.00812659 0.00513918,0.00770198 0.00580066,0.00721692 0.00641662,0.00667522 0.00698222,0.00608113 0.00749303,0.00543932 0.00794502,0.00475481 0.00833466,0.00403299 0.00865889,0.00327952 0.00891516,0.00250031 0.00910146,0.00170147 0.00921633,0.000889286 0.252288,0.0606921 0.0902102,0.112739 -0.177988,0.200526 -0.480842,-0.600926 0.0328602,-0.0202379 0.0310616,-0.0229029 0.0290474,-0.0254089 0.0268316,-0.0277386 0.0244295,-0.0298758 0.0218579,-0.0318056 0.0191346,-0.0335146 z "/>
<path fill="rgb(42,41,42)" stroke="rgb(42,41,42)" d="M 7.69681,8.56157 l -0.0588382,0.0669077 -0.0604988,0.06541 -0.0621213,0.0638711 -0.125789,-0.157203 0.0617299,-0.0644257 0.0599922,-0.0660469 0.058212,-0.0676212 0.127313,0.159108 z "/>
<path fill="rgb(42,41,42)" stroke="rgb(42,41,42)" d="M 9.51129,11.2522 l 0,-0.422964 -1.68743,-2.10884 -0.0593938,0.0662715 -0.0609496,0.0648435 -0.0624712,0.0633789 1.87024,2.33731 z "/>
<path fill="rgb(42,41,42)" stroke="rgb(42,41,42)" d="M 3.46571,3.27381 l 0.448515,0.560526 -0.027467,0.0125499 -0.0273222,0.0128621 -0.0271738,0.0131726 -0.0533032,0.0269653 -0.0526818,0.0281599 -0.0520337,0.0293403 -0.441266,-0.551466 0.0763953,-0.0460978 0.0775959,-0.0440469 0.0787414,-0.0419647 z "/>
<path fill="rgb(42,41,42)" stroke="rgb(42,41,42)" d="M 3.33839,3.1147 l 0.127313,0.159108 -0.0787414,0.0419647 -0.0775959,0.0440469 -0.0763953,0.0460978 -0.125789,-0.157203 0.07594,-0.0466014 0.0770856,-0.0446809 0.0781827,-0.0427322 z "/>
<path fill="rgb(42,41,42)" stroke="rgb(42,41,42)" d="M 6.00463,6.44679 l -0.107535,0 -0.00354918,0.000154961 -0.00352217,0.000463703 -0.00346836,0.000768916 -0.00338814,0.00106828 -0.00328214,0.00135951 -0.00315116,0.00164039 -0.0029962,0.00190879 -0.00281844,0.00216266 -0.00261923,0.00240008 -0.00240008,0.00261923 -0.00216266,0.00281844 -0.00190879,0.0029962 -0.00164039,0.00315116 -0.00135951,0.00328214 -0.00106828,0.00338814 -0.000768916,0.00346836 -0.000463703,0.00352217 -0.000154961,0.00354918 0,0.196959 -0.712009,-0.889824 0.00426718,-0.00517643 0.00407729,-0.00532729 0.00388206,-0.00547119 0.146997,-0.208001 0.701043,0.876118 z "/>
<path fill="rgb(42,41,42)" stroke="rgb(42,41,42)" d="M 4.73554,4.86077 l -0.0719699,0.0719995 -0.00624936,0.00683207 -0.00562017,0.00735835 -0.00494688,0.00782688 -0.00423476,0.00823398 -0.00348941,0.00857646 -0.00271667,0.00885163 -0.0019226,0.00905733 -0.00111345,0.00919194 -0.000295566,0.00925442 0.000524642,0.00924426 0.00134073,0.00916155 0.0021463,0.00900694 0.00293502,0.00878164 0.00370071,0.00848742 0.00443736,0.00812659 0.00513918,0.00770198 0.00580066,0.00721692 0.00641662,0.00667522 0.00698222,0.00608113 0.00749303,0.00543932 0.00794502,0.00475481 0.00833466,0.00403299 0.00865889,0.00327952 0.00891516,0.00250031 0.00910146,0.00170147 0.00921633,0.000889286 0.252288,0.0606921 -0.248817,-0.310956 z "/>
<path fill="rgb(42,41,42)" stroke="rgb(42,41,42)" d="M 3.67424,3.95738 l 0.0520337,-0.0293403 0.0526818,-0.0281599 0.0533032,-0.0269653 0.122248,0.207717 -0.0299566,0.0192168 -0.0283928,0.02146 -0.0266614,0.0235765 -0.0247727,0.0255538 -0.170483,-0.213058 z "/>
<path fill="rgb(42,41,42)" stroke="rgb(42,41,42)" d="M 4.67988,6.90603 l 0.321887,0 0.0165558,0 0.479682,0.599476 -0.338443,0 -0.479682,-0.599476 z "/>
<path fill="rgb(42,41,42)" stroke="rgb(42,41,42)" d="M 0.508116,1.26946 l 1.85437,2.31747 -0.0624712,0.0633789 -0.0609496,0.0648435 -0.0593938,0.0662715 -1.67156,-2.089 0,-0.422964 z "/>
<path fill="rgb(42,41,42)" stroke="rgb(42,41,42)" d="M 6.08932,8.66745 l -0.14812,-0.185111 0.0154709,-0.00282242 0.0154621,-0.00286984 0.0154533,-0.00291724 0.0976005,-0.234409 0.244115,0.30508 -0.0785862,0.0437242 -0.0800246,0.0410325 -0.0813708,0.0382935 z "/>
<path fill="rgb(42,41,42)" stroke="rgb(42,41,42)" d="M 2.88256,4.65984 l 0.0552067,-0.0709916 0.0575838,-0.0690775 0.0598945,-0.0670839 1.94653,2.43265 0,0.0206904 -0.321887,0 -1.79733,-2.24618 z "/>
<path fill="rgb(42,41,42)" stroke="rgb(42,41,42)" d="M 8.75506,11.9989 l -1.96286,-2.45305 0.0776838,-0.0434138 0.0766318,-0.0452449 0.0755365,-0.0470506 2.07145,2.58876 -0.338443,0 z "/>
<path fill="rgb(42,41,42)" stroke="rgb(42,41,42)" d="M 2.43404,4.09932 l 0.058212,-0.0676212 0.0599922,-0.0660469 0.0617299,-0.0644257 0.441266,0.551466 -0.0598945,0.0670839 -0.0575838,0.0690775 -0.0552067,0.0709916 -0.448515,-0.560526 z "/>
<path fill="rgb(42,41,42)" stroke="rgb(42,41,42)" d="M 6.7922,9.54586 l -0.127055,-0.158786 0.0781827,-0.0427322 0.0770856,-0.0446809 0.07594,-0.0466014 0.125699,0.157091 -0.0755365,0.0470506 -0.0766318,0.0452449 -0.0776838,0.0434138 z "/>
<path fill="rgb(42,41,42)" stroke="rgb(42,41,42)" d="M 5.9412,8.48233 l -0.134556,-0.16816 0.0165929,-0.0033017 0.0165789,-0.00337132 0.0165646,-0.00344089 0.0927653,-0.23476 0.136041,0.170016 -0.0976005,0.234409 -0.0154533,0.00291724 -0.0154621,0.00286984 -0.0154709,0.00282242 z "/>
<path fill="rgb(42,41,42)" stroke="rgb(42,41,42)" d="M 5.15956,7.5055 l 0.338443,0 0.287054,0.358741 -0.107305,0.00800947 -0.107389,0.00678641 -0.107459,0.00556247 -0.303344,-0.379099 z "/>
<path fill="rgb(42,41,42)" stroke="rgb(42,41,42)" d="M 5.00177,6.90603 l 0,-0.0206904 0.0165558,0.0206904 -0.0165558,0 z "/>
<path fill="rgb(42,41,42)" stroke="rgb(42,41,42)" d="M 6.66514,9.38708 l -0.127313,-0.159108 0.0787414,-0.0419647 0.0775959,-0.0440469 0.0763953,-0.0460978 0.125789,0.157203 -0.07594,0.0466014 -0.0770856,0.0446809 -0.0781827,0.0427322 z "/>
<path fill="rgb(42,41,42)" stroke="rgb(42,41,42)" d="M 2.17967,3.78142 l 0.0593938,-0.0662715 0.0609496,-0.0648435 0.0624712,-0.0633789 0.125699,0.157091 -0.0621213,0.0638711 -0.0604988,0.06541 -0.0588382,0.0669077 -0.127055,-0.158786 z "/>
<path fill="rgb(42,41,42)" stroke="rgb(42,41,42)" d="M 2.30673,3.94021 l 0.0588382,-0.0669077 0.0604988,-0.06541 0.0621213,-0.0638711 0.125789,0.157203 -0.0617299,0.0644257 -0.0599922,0.0660469 -0.058212,0.0676212 -0.127313,-0.159108 z "/>
<path fill="rgb(42,41,42)" stroke="rgb(42,41,42)" d="M 5.80664,8.31417 l -0.343731,-0.429573 0.107459,-0.00556247 0.107389,-0.00678641 0.107305,-0.00800947 0.16408,0.205057 -0.0927653,0.23476 -0.0165646,0.00344089 -0.0165789,0.00337132 -0.0165929,0.0033017 z "/>
<path fill="rgb(42,41,42)" stroke="rgb(42,41,42)" d="M 6.53783,9.22797 l -0.448515,-0.560526 0.0813708,-0.0382935 0.0800246,-0.0410325 0.0785862,-0.0437242 0.441266,0.551466 -0.0763953,0.0460978 -0.0775959,0.0440469 -0.0787414,0.0419647 z "/>
<path fill="rgb(42,41,42)" stroke="rgb(42,41,42)" d="M 9.51129,11.2522 l 0,-0.422964 1.77636e-15,-4.57831 0.2625,-8.88178e-16 -1.77636e-15,5.48553 -0.00199778,0.0457568 -0.00597815,0.0454085 -0.00991301,0.0447147 -0.0137724,0.0436806 -0.017527,0.042314 -0.0211483,0.0406254 -0.0246085,0.0386276 -0.0278815,0.0363359 -0.0309423,0.0337676 -0.0337676,0.0309423 -0.0363359,0.0278815 -0.0386276,0.0246085 -0.0406254,0.0211483 -0.042314,0.017527 -0.0436806,0.0137724 -0.0447147,0.00991301 -0.0454085,0.00597815 -0.0457568,0.00199778 -8.47818,-1.06581e-14 -0.0457568,-0.00199778 -0.0454085,-0.00597815 -0.0447147,-0.00991301 -0.0436806,-0.0137724 -0.042314,-0.017527 -0.0406254,-0.0211483 -0.0386276,-0.0246085 -0.0363359,-0.0278815 -0.0337676,-0.0309423 -0.0309423,-0.0337676 -0.0278815,-0.0363359 -0.0246085,-0.0386276 -0.0211483,-0.0406254 -0.017527,-0.042314 -0.0137724,-0.0436806 -0.00991301,-0.0447147 -0.00597815,-0.0454085 -0.00199778,-0.0457568 0,-5.48553 0.2625,8.88178e-16 0,5.48553 0.000998892,0.0228784 0.00298907,0.0227043 0.00495651,0.0223574 0.00688622,0.0218403 0.00876352,0.021157 0.0105741,0.0203127 0.0123043,0.0193138 0.0139407,0.0181679 0.0154711,0.0168838 0.0168838,0.0154711 0.0181679,0.0139407 0.0193138,0.0123043 0.0203127,0.0105741 0.021157,0.00876352 0.0218403,0.00688622 0.0223574,0.00495651 0.0227043,0.00298907 0.0228784,0.000998892 7.98444,7.10543e-15 0.338443,0 0.155294,1.77636e-15 0.0222765,-0.000946935 0.0221158,-0.00283397 0.0217955,-0.00470057 0.021318,-0.00653324 0.0206867,-0.00831879 0.0199061,-0.0100443 0.0189819,-0.0116974 0.0186884,-0.0138888 0.0173841,-0.0154902 0.0159431,-0.0169698 0.0143766,-0.0183158 0.012697,-0.0195177 0.0109175,-0.0205661 0.00905205,-0.0214526 0.00711543,-0.0221704 0.00512282,-0.0227137 0.0030899,-0.0230783 0.00103268,-0.0232613 0,-0.0612952 0,-0.422964 z "/>
<path fill="rgb(42,41,42)" stroke="rgb(42,41,42)" d="M 0.508116,1.26946 l 0,0.422964 0,4.55847 -0.2625,-8.88178e-16 0,-5.49085 0.00199778,-0.0457568 0.00597815,-0.0454085 0.00991301,-0.0447147 0.0137724,-0.0436806 0.017527,-0.042314 0.0211483,-0.0406254 0.0246085,-0.0386276 0.0278815,-0.0363359 0.0309423,-0.0337676 0.0337676,-0.0309423 0.0363359,-0.0278815 0.0386276,-0.0246085 0.0406254,-0.0211483 0.042314,-0.017527 0.0436806,-0.0137724 0.0447147,-0.00991301 0.0454085,-0.00597815 0.0457568,-0.00199778 8.47818,7.99361e-15 0.0457568,0.00199778 0.0454085,0.00597815 0.0447147,0.00991301 0.0436806,0.0137724 0.042314,0.017527 0.0406254,0.0211483 0.0386276,0.0246085 0.0363359,0.0278815 0.0337676,0.0309423 0.0309423,0.0337676 0.0278815,0.0363359 0.0246085,0.0386276 0.0211483,0.0406254 0.017527,0.042314 0.0137724,0.0436806 0.00991301,0.0447147 0.00597815,0.0454085 0.00199778,0.0457568 0,5.49085 -0.2625,8.88178e-16 -1.77636e-15,-5.49085 -0.000998892,-0.0228784 -0.00298907,-0.0227043 -0.00495651,-0.0223574 -0.00688622,-0.0218403 -0.00876352,-0.021157 -0.0105741,-0.0203127 -0.0123043,-0.0193138 -0.0139407,-0.0181679 -0.0154711,-0.0168838 -0.0168838,-0.0154711 -0.0181679,-0.0139407 -0.0193138,-0.0123043 -0.0203127,-0.0105741 -0.021157,-0.00876352 -0.0218403,-0.00688622 -0.0223574,-0.00495651 -0.0227043,-0.00298907 -0.0228784,-0.000998892 -8.00457,-9.76996e-15 -0.338443,2.66454e-15 -0.135165,-1.77636e-15 -0.0214588,0.000878579 -0.0213152,0.00262986 -0.0210289,0.00436353 -0.0206018,0.00606799 -0.0200368,0.00773184 -0.0193377,0.00934393 -0.0185091,0.0108935 -0.0175566,0.0123701 -0.0183778,0.0154957 -0.0168832,0.0171119 -0.015247,0.0185847 -0.0134829,0.0199015 -0.0116058,0.0210515 -0.00963136,0.0220249 -0.00757613,0.0228137 -0.00545736,0.0234111 -0.00329283,0.0238121 -0.00110069,0.0240135 0,0.0864512 0,0.422964 z "/>
</g></g></svg>
