<?xml version="1.0" encoding="UTF-8" standalone="no"?>
<!DOCTYPE svg PUBLIC "-//W3C//DTD SVG 1.1//EN" "http://www.w3.org/Graphics/SVG/1.1/DTD/svg11-flat.dtd"
[

]>
<svg xmlns="http://www.w3.org/2000/svg"  viewBox="-0.125044 -0.125044 10.2536 12.7519"><g fill="none" stroke="black" stroke-width="0.0125" transform="translate(0,12.5018) scale(1, -1)">
<g id="Output" >
<path fill="rgb(79,82,80)" stroke="rgb(79,82,80)" d="M 4.8629,5.68265 l -0.0814372,0.0814372 -0.238834,-0.29848 0.0345461,0.00935334 0.0352498,0.00619422 0.0356652,0.00298444 0.035789,-0.000249737 0.0356201,-0.00348188 0.0351599,-0.00668554 0.0344122,-0.00983453 0.0738292,0.218762 z "/>
<path fill="rgb(79,82,80)" stroke="rgb(79,82,80)" d="M 4.48359,5.81479 l -0.00287041,0 -0.00366874,-0.00817221 0.00653915,0.00817221 z "/>
<path fill="rgb(79,82,80)" stroke="rgb(79,82,80)" d="M 2.95226,7.59329 l -0.10763,-0.180816 -0.0917171,-0.189384 -0.0751281,-0.196556 -0.0579849,-0.202277 -0.0404139,-0.206507 -0.0225449,-0.209213 -0.00450951,-0.210376 0.0135591,-0.209987 0.0315277,-0.208049 0.0492638,-0.204576 0.0666364,-0.199595 0.0835175,-0.19314 0.0997825,-0.185262 0.115311,-0.176016 0.0537687,0.0671967 -0.0164074,0.0301989 -0.0137235,0.0315094 -0.0109359,0.0325819 -0.00806582,0.0334084 -0.00513478,0.0339825 -0.00216496,0.0343 0.000821208,0.0343584 0.00380118,0.0341574 0.00675244,0.0336984 0.0096527,0.0329849 0.0124801,0.0320223 0.0152132,0.0308178 0.0178314,0.0293806 0.0203149,0.0277215 0.0226451,0.025853 0.0248042,0.0237893 0.0267759,0.0215459 0.0285455,0.0191398 0.0300994,0.0165892 0.0314261,0.0139132 0.0325154,0.0111322 0.0333591,0.00826712 0.0339509,0.0053396 0.0342863,0.00237175 0.0343628,-0.000614019 0.0341797,-0.00359515 0.0337385,-0.00654912 0.140971,0.402358 0.00374878,0.0112323 0.00470019,0.0108686 0.00561682,0.0104245 0.0064919,0.00990324 0.00731894,0.00930871 0.00809183,0.0086453 0.00880485,0.00791793 0.00945272,0.00713197 0.0100307,0.00629324 0.0105344,0.00540795 0.0109601,0.00448265 0.0113048,0.00352418 0.0115659,0.00253964 0.0117413,0.0015363 0.0118299,0.000521601 0.117458,0.000122326 0,-0.0635584 0.329997,0.41241 -1.26518,1.26518 z "/>
<path fill="rgb(79,82,80)" stroke="rgb(79,82,80)" d="M 4.40545,6.1401 l -0.326114,-0.407557 0.275087,0 0.0381946,0.0822451 -0.117476,0 -0.00358407,0.000156484 -0.00355679,0.00046826 -0.00350244,0.000776473 -0.00342144,0.00107878 -0.0033144,0.00137287 -0.00318213,0.00165651 -0.00302565,0.00192755 -0.00284614,0.00218392 -0.00264497,0.00242367 -0.00242367,0.00264497 -0.00218392,0.00284614 -0.00192755,0.00302565 -0.00165651,0.00318213 -0.00137287,0.0033144 -0.00107878,0.00342144 -0.000776473,0.00350244 -0.00046826,0.00355679 -0.000156484,0.00358407 0.000156484,0.00358407 0.00046826,0.00355679 0.000776473,0.00350244 0.00107878,0.00342144 0.00137287,0.0033144 0.00165651,0.00318213 0.00192755,0.00302565 0.00218392,0.00284614 0.00242367,0.00264497 0.00264497,0.00242367 0.00284614,0.00218392 0.00302565,0.00192755 0.00318213,0.00165651 0.0033144,0.00137287 0.00342144,0.00107878 0.00350244,0.000776473 0.00355679,0.00046826 0.00358407,0.000156484 0.274257,0 0.0440577,0.0550605 -0.188006,0.188006 z "/>
<path fill="rgb(79,82,80)" stroke="rgb(79,82,80)" d="M 3.87252,5.89703 l -0.087867,0 -0.00541303,0.000411154 -0.00542817,-7.0486e-05 -0.00540053,-0.000551571 -0.00533034,-0.00102831 -0.00521815,-0.00149695 -0.00506485,-0.00195379 -0.00487163,-0.00239523 -0.00464004,-0.00281781 -0.00437188,-0.00321818 -0.00406927,-0.00359319 -0.0037346,-0.00393989 -0.0033705,-0.00425555 -0.00297984,-0.00453768 -0.00256571,-0.00478405 -0.00213136,-0.00499272 -0.0470182,-0.125266 0.0678551,0 0.13162,0.16449 z "/>
<path fill="rgb(79,82,80)" stroke="rgb(79,82,80)" d="M 4.0159,5.65326 l 0.300354,0 -0.0495434,-0.109516 -0.244307,-0.30532 -0.179046,0.199204 0.172542,0.215632 z "/>
<path fill="rgb(79,82,80)" stroke="rgb(79,82,80)" d="M 4.48954,5.3478 l 0.111596,-0.214397 -0.246711,0 0.00465805,0.0256968 0.00682573,0.0252078 0.00894398,0.0245363 0.0109975,0.0236871 0.0129714,0.0226665 0.0148513,0.0214817 0.0166238,0.0201414 0.0182759,0.0186553 0.0197956,0.0170341 0.0211721,0.0152895 z "/>
<path fill="rgb(79,82,80)" stroke="rgb(79,82,80)" d="M 3.80074,4.11547 l 0.570111,0.712488 -0.0228315,0.0273181 -0.0202929,0.0292533 -0.0175911,0.0309533 -0.0147479,0.0324045 -0.0117862,0.0335953 -0.00872965,0.0345159 -0.00560298,0.0351591 -0.058263,0 -0.634539,-0.793005 0.0730199,-0.050256 0.0747901,-0.0475816 0.0764624,-0.0448449 z "/>
<path fill="rgb(79,82,80)" stroke="rgb(79,82,80)" d="M 4.0436,3.99602 l 0.20478,-0.0764239 0.210776,-0.0578686 0.215095,-0.0388527 0.217702,-0.0195276 0.218576,-4.69843e-05 0.21771,0.019434 0.215112,0.0387602 0.210801,0.057778 0.204813,0.0763359 0.197194,0.0942862 0.188006,0.111486 -1.18669,1.18669 -0.125357,-0.156664 0.0105897,-0.0316021 0.00786489,-0.0323879 0.00508316,-0.0329392 0.00226463,-0.0332521 -0.00057029,-0.0333243 -0.00340108,-0.0331551 -0.00620726,-0.032746 -0.00896849,-0.0320998 -0.0116648,-0.0312212 -0.0142766,-0.0301166 -0.0167851,-0.0287939 -0.0191721,-0.0272628 -0.0214203,-0.0255343 -0.0235134,-0.023621 -0.0254363,-0.0215366 -0.027175,-0.0192964 -0.028717,-0.0169164 -0.0321493,-0.0153292 -0.0333935,-0.0123868 -0.0343691,-0.00934471 -0.0350682,-0.00622747 -0.0354851,-0.00306012 -0.0356166,0.000131851 -0.0354615,0.00332276 -0.565469,-0.706687 z "/>
<path fill="rgb(79,82,80)" stroke="rgb(79,82,80)" d="M 3.18174,4.61077 l 0.0605222,-0.064766 0.0628255,-0.0625342 0.0650465,-0.0602206 0.313327,0.391576 -0.025226,-0.0234687 -0.0271834,-0.0211705 -0.0289322,-0.0187098 -0.0304589,-0.0161055 -0.0317517,-0.0133775 -0.0328008,-0.0105468 -0.0335981,-0.00763518 -0.0341375,-0.00466493 -0.0344148,-0.00165888 -0.0344279,0.00135992 -0.0341767,0.00436827 -0.0336632,0.00734309 -0.0328912,0.0102615 -0.0880593,-0.110051 z "/>
<path fill="rgb(79,82,80)" stroke="rgb(79,82,80)" d="M 4.8629,5.68265 l -0.0738292,-0.218762 0.0229105,-0.00847911 0.0223437,-0.00987646 0.0216918,-0.0112362 0.113452,0.141785 -0.106569,0.106569 z "/>
<path fill="rgb(79,82,80)" stroke="rgb(79,82,80)" d="M 3.64955,5.65326 l 0.0279118,0 -0.0131457,-0.0164286 -0.0147662,0.0164286 z "/>
<path fill="rgb(79,82,80)" stroke="rgb(79,82,80)" d="M 3.73388,4.87785 l 0.236712,0.295828 -0.179474,0.198669 -0.055574,-0.0694529 0.0173049,-0.0302412 0.0145742,-0.0316478 0.0117303,-0.0328084 0.00879517,-0.033714 0.00579169,-0.0343577 0.0027432,-0.0347342 -0.000326607,-0.0348409 -0.00339388,-0.0346767 -0.00643477,-0.034243 -0.00942566,-0.0335432 -0.0123433,-0.0325827 -0.015165,-0.031369 -0.00494422,-0.00889447 -0.00517272,-0.00876355 -0.00539775,-0.00862677 z "/>
<path fill="rgb(79,82,80)" stroke="rgb(79,82,80)" d="M 6.72898,7.98848 l -0.18073,-0.207353 0.185633,0 0.0879173,0.109873 -0.0303432,0.033058 -0.0309435,0.0324967 -0.0315335,0.0319245 z "/>
<path fill="rgb(79,82,80)" stroke="rgb(79,82,80)" d="M 6.9916,7.68025 l -0.166886,-0.208563 0.0188304,-0.0209025 0.0169552,-0.0224503 0.0149533,-0.0238305 0.0128398,-0.0250327 0.0106303,-0.0260479 0.00834147,-0.0268685 0.0059903,-0.0274884 0.00359439,-0.027903 0.00117163,-0.0281091 -0.00132111,-0.0288253 -0.00386248,-0.0285959 -0.00637364,-0.0281429 -0.00883496,-0.0274698 -0.0112272,-0.0265818 -0.0135316,-0.0254861 -0.0157303,-0.024191 -0.0178059,-0.0227067 -0.0197423,-0.0210449 -0.0215242,-0.0192185 -0.0231379,-0.0172418 -0.0245707,-0.0151303 -0.0258113,-0.0129005 -0.02685,-0.0105698 -0.0276788,-0.00815646 -0.0282912,-0.00567932 -0.0286823,-0.00315777 -0.0288491,-0.000611527 -0.0287903,0.0019395 -0.0285064,0.00447536 -0.0279996,0.00697622 -0.0272738,0.00942253 -0.0263347,0.0117952 -0.0251897,0.0140755 -0.634014,-0.79235 1.26518,-1.26518 0.10763,0.180816 0.0917171,0.189384 0.0751281,0.196556 0.0579849,0.202277 0.0404139,0.206507 0.0225449,0.209213 0.00450951,0.210376 -0.0135591,0.209987 -0.0315277,0.208049 -0.0492638,0.204576 -0.0666364,0.199595 -0.0835175,0.19314 -0.0997825,0.185262 -0.115311,0.176016 z "/>
<path fill="rgb(79,82,80)" stroke="rgb(79,82,80)" d="M 5.59808,6.36168 l 0.669188,0.836308 -0.292898,0 -0.00792047,0.000373061 -0.00785034,0.00111588 -0.0077107,0.00184882 -0.00750278,0.00256539 -0.00722844,0.00325924 -0.526083,-0.657464 0.188006,-0.188006 z "/>
<path fill="rgb(79,82,80)" stroke="rgb(79,82,80)" d="M 5.78119,7.43644 l -0.146088,0.238654 -0.0662665,-0.153737 0.0234647,-0.0168102 0.0218912,-0.0188135 0.0201472,-0.0206703 0.0182463,-0.0223662 0.0162033,-0.0238878 0.0140341,-0.0252234 0.0117556,-0.0263625 0.00938555,-0.0272963 0.0772266,0.0965129 z "/>
<path fill="rgb(79,82,80)" stroke="rgb(79,82,80)" d="M 5.28631,6.93723 l -0.0665572,-0.197215 0.0023232,-0.0023232 0.146657,0.183283 -0.0279064,0.00304984 -0.0275421,0.00543162 -0.0269749,0.00777339 z "/>
<path fill="rgb(79,82,80)" stroke="rgb(79,82,80)" d="M 6.57077,7.64861 l 0.00591084,-0.0639391 0.0511621,0.0639391 -0.0570729,0 z "/>
<path fill="rgb(79,82,80)" stroke="rgb(79,82,80)" d="M 6.57077,7.64861 l -0.0385361,-0.00420178 -0.0379986,-0.00766781 -0.03715,-0.0110711 -0.0359972,-0.0143837 -0.0345497,-0.0175785 -0.0328194,-0.0206295 -0.00155001,-0.00122187 -0.00161397,-0.00113605 -0.00167319,-0.00104688 -0.00278234,-0.00147928 -0.00289988,-0.00123304 -0.00299567,-0.000977559 -0.00306901,-0.000714749 -0.00311934,-0.00044658 -0.00314627,-0.000175063 -0.00314962,9.77668e-05 -0.00312936,0.000369863 -0.00308563,0.000639187 -0.00301877,0.000903718 -0.00292928,0.00116147 -0.00281782,0.00141052 -0.00268524,0.00164899 -0.00253252,0.0018751 -0.00236082,0.00208715 -0.00217142,0.00228356 -0.00196574,0.00246284 -0.00174532,0.00262365 -0.00151181,0.0027648 -0.0218837,0.0467408 -0.267488,-0.334289 0.00453088,-0.000753996 0.00457091,-0.000451908 0.00459081,-0.000147831 3.9968e-14,8.88178e-16 0.249168,-8.88178e-16 0.00584968,0.0279977 0.00828481,0.0273761 0.010656,0.0265431 0.0129449,0.0255052 0.0151338,0.0242705 0.0172059,0.0228483 0.0191452,0.0212497 0.0209366,0.019487 0.0225664,0.0175739 0.024022,0.0155252 0.0252921,0.0133565 0.0263669,0.0110847 0.0272382,0.00872738 0.0278992,0.00630265 0.0283447,0.00382925 0.0135392,0.0169204 -0.00591084,0.0639391 z "/>
<path fill="rgb(79,82,80)" stroke="rgb(79,82,80)" d="M 5.12925,7.04466 l -0.0951861,-0.118957 0.185683,-0.185683 0.0665572,0.197215 -0.0151653,0.00550426 -0.0148755,0.0062454 -0.0145494,0.00697134 -3.10862e-14,1.33227e-14 -0.0255448,0.0134859 -0.0242129,0.0157526 -0.0226803,0.0178889 -0.0209599,0.0198769 -0.0190658,0.0217003 z "/>
<path fill="rgb(79,82,80)" stroke="rgb(79,82,80)" d="M 6.72898,7.98848 l -0.03132,0.0305815 -0.0318614,0.0300171 -0.0323926,0.029443 -0.237966,-0.297394 0.152809,0 0.18073,0.207353 z "/>
<path fill="rgb(79,82,80)" stroke="rgb(79,82,80)" d="M 6.2028,8.38631 l -0.302633,-0.378211 0,-0.0705763 -0.056473,0 -0.125139,-0.156391 0.155101,0 0.00390881,-0.000177772 0.00387654,-0.000531848 0.00381226,-0.000881532 0.0037165,-0.00122394 0.00359006,-0.00155624 0.00343398,-0.00187569 0.00324954,-0.00217966 0.00303828,-0.00246562 0.00280192,-0.00273123 0.00254244,-0.00297429 0.00226196,-0.0031928 0.0570686,-0.0927364 0.460116,0.575023 -0.0730199,0.050256 -0.0747901,0.0475816 -0.0764624,0.0448449 z "/>
<path fill="rgb(79,82,80)" stroke="rgb(79,82,80)" d="M 3.65937,8.30039 l 1.18669,-1.18669 0.395523,0.494299 -0.00407866,0.00878815 0.00534095,0.00215391 0.0053695,0.00208171 0.00539708,0.00200913 0.706324,0.882718 -0.20478,0.0764239 -0.210776,0.0578686 -0.215095,0.0388527 -0.217702,0.0195276 -0.218576,4.69843e-05 -0.21771,-0.019434 -0.215112,-0.0387602 -0.210801,-0.057778 -0.204813,-0.0763359 -0.197194,-0.0942862 -0.188006,-0.111486 z "/>
<path fill="rgb(79,82,80)" stroke="rgb(79,82,80)" d="M 5.30532,7.03898 l 0.0185844,-0.0064552 0.0190755,-0.0048139 0.019422,-0.00313609 0.0196212,-0.0014345 0.0196716,0.00027797 0.0195728,0.00198833 0.0193256,0.00368361 0.0189319,0.00535096 0.153983,0.192438 0.00107608,0.0204631 -0.000782482,0.0204764 -0.00263461,0.0203213 -0.00446506,0.019999 -0.00625878,0.0195122 -0.008001,0.0188648 -0.00967741,0.0180623 -0.0112742,0.0171111 -0.0127782,0.0160192 -0.0141772,0.0147955 -0.0154594,0.01345 -0.09868,-0.214294 -0.00195732,-0.00380437 -0.00228145,-0.0036193 -0.00258821,-0.00340669 -0.00287527,-0.00316815 -0.00314045,-0.00290549 -0.00338173,-0.00262073 -0.00359728,-0.00231602 -0.00378544,-0.00199368 -0.0039448,-0.00165617 -0.00407413,-0.00130606 -0.00417246,-0.000946006 -0.00423903,-0.000578752 -0.00427334,-0.000207094 -0.00427513,0.000166141 -0.00424438,0.000538111 -0.00418133,0.000905985 -0.00408646,0.00126696 -0.00396048,0.0016183 -0.00380437,0.00195732 -0.0036193,0.00228145 -0.00340669,0.00258821 -0.00316815,0.00287527 -0.00290549,0.00314045 -0.00262073,0.00338173 -0.00231602,0.00359728 -0.00199368,0.00378544 -0.00165617,0.0039448 -0.00130606,0.00407413 -0.000946006,0.00417246 -0.000578752,0.00423903 -0.000207094,0.00427334 0.000166141,0.00427513 0.000538111,0.00424438 0.000905985,0.00418133 0.00126696,0.00408646 0.0016183,0.00396048 0.0618029,0.134212 -0.205962,-0.257398 0.0115803,-0.0169023 0.0130702,-0.0157785 0.0144517,-0.0145238 0.0157133,-0.0131486 0.0168445,-0.0116643 0.0178359,-0.0100832 0.0186794,-0.00841848 z "/>
<path fill="rgb(79,82,80)" stroke="rgb(79,82,80)" d="M 6.81706,7.25469 l -0.00180032,0.0187974 -0.00336383,0.0185814 -0.00490385,0.0182356 -0.00640961,0.0177624 -0.00787058,0.017165 -0.00927657,0.0164478 -0.0106177,0.0156156 -0.0118847,0.0146744 -0.105705,-0.132103 0.000939913,-0.00418108 0.000571318,-0.00424718 0.00019836,-0.00428084 -0.000176112,-0.00428181 -0.00054924,-0.00425009 -0.000918174,-0.00418591 -0.0012801,-0.00408978 -0.00163224,-0.00396241 -0.00197193,-0.00380479 -0.00229656,-0.00361811 -0.00260365,-0.00340381 -0.00289086,-0.00316352 -0.003156,-0.00289907 -0.00339703,-0.00261248 -0.00361213,-0.00230595 -0.00379965,-0.00198181 -0.00395815,-0.00164253 -0.00408644,-0.00129072 -0.00418351,-0.000929046 -0.00424865,-0.000560281 -0.00428134,-0.000187237 -0.00218105,0 -0.121899,-0.152342 0.0178728,-0.00884687 0.0185861,-0.00722912 0.0191534,-0.00555455 0.0195701,-0.00383632 0.0198329,-0.00208794 0.0199399,-0.000323146 0.0198902,0.00144419 0.0196841,0.00320017 0.0193233,0.004931 0.0188106,0.00662307 0.0181501,0.00826308 0.0173469,0.00983815 0.0164074,0.0113359 0.0153389,0.0127445 0.0141499,0.014053 0.0128496,0.015251 0.0114483,0.0163291 0.00995706,0.0172789 0.00838755,0.0180929 0.00675211,0.0187647 0.0050636,0.019289 0.00333529,0.0196617 0.00158077,0.0198798 -0.000186181,0.0199417 z "/>
<path fill="rgb(79,82,80)" stroke="rgb(79,82,80)" d="M 6.42619,7.3966 l -0.00752664,-0.00849409 -0.00709058,-0.00886135 -0.00663663,-0.00920625 0.0212538,0.0265617 z "/>
<path fill="rgb(79,82,80)" stroke="rgb(79,82,80)" d="M 3.12179,4.95882 l 0.343144,0.428839 0.00252136,0.00713146 -0.0259481,0.00457971 -0.0262437,0.00235429 -0.0263489,0.00011178 -0.0262628,-0.00213154 -0.025986,-0.00435939 -0.0255206,-0.00655559 -0.0248699,-0.0087042 -0.0240387,-0.0107896 -0.023033,-0.0127967 -0.0218601,-0.0147109 -0.0205285,-0.0165184 -0.0190479,-0.0182059 -0.017429,-0.0197612 -0.0156836,-0.0211731 -0.0138244,-0.0224313 -0.0118647,-0.0235267 -0.009819,-0.0244512 -0.00770198,-0.0251983 -0.00552905,-0.0257625 -0.00331599,-0.0261396 -0.00107885,-0.026327 -2.22045e-15,-5.86198e-14 0.00126664,-0.0275592 0.00369863,-0.0273393 0.00610164,-0.0269051 0.00845684,-0.0262602 0.0107458,-0.0254095 z "/>
<path fill="rgb(79,82,80)" stroke="rgb(79,82,80)" d="M 3.32585,4.79087 l 0.0264222,-0.00556239 0.0268045,-0.00325472 0.0269856,-0.000922624 0.0269642,0.0014164 0.0267404,0.00374479 0.026316,0.00604507 0.0256941,0.00829999 0.0248793,0.0104926 0.0238778,0.0126065 0.0226972,0.0146258 0.00600457,0.00435644 0.00589919,0.00449811 0.00579047,0.00463724 0.0196217,0.0175464 0.0180625,0.0191476 0.0163731,0.0206109 0.0145657,0.0219255 0.0126533,0.0230821 0.0106496,0.0240722 0.00856918,0.0248889 0.00642697,0.0255261 0.00423843,0.0259793 0.00201934,0.0262452 -0.000214315,0.0263219 -0.00244642,0.0262088 -0.00466089,0.0259068 -0.00684177,0.0254181 -0.00897331,0.024746 -0.0110402,0.0238956 -0.354079,-0.442505 z "/>
<path fill="rgb(79,82,80)" stroke="rgb(79,82,80)" d="M 4.80399,5.36927 l -0.0251167,0.0113536 -0.0260248,0.009081 -0.0267277,0.00673684 -0.0272199,0.00433957 -0.0274975,0.00190809 -0.0275584,-0.000538431 -0.027402,-0.00298071 -0.0270296,-0.00539948 -0.0264442,-0.0077757 0.0991015,-0.194086 0.141919,0.177362 z "/>
<path fill="rgb(79,82,80)" stroke="rgb(79,82,80)" d="M 4.35443,5.05116 l 0.00513095,-0.0285931 0.00777871,-0.027989 0.0103585,-0.0271403 0.0128477,-0.0260544 0.0152247,-0.0247407 0.0174686,-0.0232108 0.126209,0.157728 -0.195018,0 z "/>
<path fill="rgb(79,82,80)" stroke="rgb(79,82,80)" d="M 4.97047,5.0448 l 0.00296125,0.0267074 0.000640646,0.0268635 -0.00168476,0.0268182 -0.00399754,0.0265721 -0.296607,-0.370681 0.0269388,0.00196696 0.0266672,0.00429284 0.0261952,0.00658645 0.0255263,0.00883055 0.0246655,0.0110083 0.0236194,0.0131033 0.0223957,0.0150998 0.0210037,0.0169828 0.0194538,0.0187382 0.0177577,0.0203527 0.0159282,0.0218143 0.0139789,0.0231119 0.0119246,0.0242358 0.0097806,0.0251776 0.00756313,0.0259301 0.00528881,0.0264877 z "/>
<path fill="rgb(241,240,234)" stroke="rgb(241,240,234)" d="M 0.508116,6.25089 l 0,-4.55847 1.67156,2.089 -0.210215,0.263207 -0.185748,0.281009 -0.159782,0.296544 -0.132526,0.309685 -0.104202,0.320328 -0.0750361,0.328387 -0.0452652,0.333795 -0.0151291,0.336511 -0.743653,0 z "/>
<path fill="rgb(241,240,234)" stroke="rgb(241,240,234)" d="M 0.508116,1.26946 l 0,-0.422964 2.04903,2.56075 -0.0662924,0.0583617 -0.0648995,0.0599067 -0.0634707,0.0614186 -1.85437,-2.31747 z "/>
<path fill="rgb(241,240,234)" stroke="rgb(241,240,234)" d="M 0.905782,0.497542 l 2.0757,2.59408 -0.0738431,0.0484557 -0.0726815,0.0501813 -0.0714795,0.0518791 -2.15271,-2.69032 0.0175566,-0.0123701 0.0185091,-0.0108935 0.0193377,-0.00934393 0.0200368,-0.00773184 0.0206018,-0.00606799 0.0210289,-0.00436353 0.0213152,-0.00262986 0.0214588,-0.000878579 0.135165,1.77636e-15 z "/>
<path fill="rgb(241,240,234)" stroke="rgb(241,240,234)" d="M 9.51129,6.25089 l -0.759525,-8.88178e-16 -0.01392,-0.32281 -0.0416567,-0.320414 -0.0690841,-0.315638 -0.0959987,-0.30852 -0.122201,-0.299111 -0.147495,-0.287481 -0.171695,-0.273717 -0.19462,-0.257921 -0.2161,-0.24021 -0.235976,-0.220716 -0.2541,-0.199583 -0.270337,-0.176969 -0.284567,-0.153041 -0.296685,-0.127976 -0.306601,-0.101962 -0.31424,-0.0751903 -0.319546,-0.0478606 -0.32248,-0.0201756 -0.323019,0.00765917 -0.321161,0.0354371 -0.316918,0.062952 -0.310323,0.0899994 -0.301423,0.116379 -0.290286,0.141894 -1.96711,-2.45837 8.00457,9.76996e-15 0.0228784,0.000998892 0.0227043,0.00298907 0.0223574,0.00495651 0.0218403,0.00688622 0.021157,0.00876352 0.0203127,0.0105741 0.0193138,0.0123043 0.0181679,0.0139407 0.0168838,0.0154711 0.0154711,0.0168838 0.0139407,0.0181679 0.0123043,0.0193138 0.0105741,0.0203127 0.00876352,0.021157 0.00688622,0.0218403 0.00495651,0.0223574 0.00298907,0.0227043 0.000998892,0.0228784 1.77636e-15,5.49085 z "/>
<path fill="rgb(241,240,234)" stroke="rgb(241,240,234)" d="M 9.51129,10.8292 l -1.68743,-2.10884 0.210215,-0.263207 0.185748,-0.281009 0.159782,-0.296544 0.132526,-0.309685 0.104202,-0.320328 0.0750361,-0.328387 0.0452652,-0.333795 0.0151291,-0.336511 0.759525,8.88178e-16 -1.77636e-15,4.57831 z "/>
<path fill="rgb(241,240,234)" stroke="rgb(241,240,234)" d="M 0.508116,6.25089 l 0.743653,0 0.01392,0.32281 0.0416567,0.320414 0.0690841,0.315638 0.0959987,0.30852 0.122201,0.299111 0.147495,0.287481 0.171695,0.273717 0.19462,0.257921 0.2161,0.24021 0.235976,0.220716 0.2541,0.199583 0.270337,0.176969 0.284567,0.153041 0.296685,0.127976 0.306601,0.101962 0.31424,0.0751903 0.319546,0.0478606 0.32248,0.0201756 0.323019,-0.00765917 0.321161,-0.0354371 0.316918,-0.062952 0.310323,-0.0899994 0.301423,-0.116379 0.290286,-0.141894 1.96286,2.45305 -7.98444,-7.10543e-15 -0.0228784,-0.000998892 -0.0227043,-0.00298907 -0.0223574,-0.00495651 -0.0218403,-0.00688622 -0.021157,-0.00876352 -0.0203127,-0.0105741 -0.0193138,-0.0123043 -0.0181679,-0.0139407 -0.0168838,-0.0154711 -0.0154711,-0.0168838 -0.0139407,-0.0181679 -0.0123043,-0.0193138 -0.0105741,-0.0203127 -0.00876352,-0.021157 -0.00688622,-0.0218403 -0.00495651,-0.0223574 -0.00298907,-0.0227043 -0.000998892,-0.0228784 0,-5.48553 z "/>
<path fill="rgb(241,240,234)" stroke="rgb(241,240,234)" d="M 9.51129,11.2522 l 0,0.422964 -2.0649,-2.58059 0.0662924,-0.0583617 0.0648995,-0.0599067 0.0634707,-0.0614186 1.87024,2.33731 z "/>
<path fill="rgb(241,240,234)" stroke="rgb(241,240,234)" d="M 9.39587,11.9538 l -0.0189819,0.0116974 -0.0199061,0.0100443 -0.0206867,0.00831879 -0.021318,0.00653324 -0.0217955,0.00470057 -0.0221158,0.00283397 -0.0222765,0.000946935 -0.155294,-1.77636e-15 -2.07145,-2.58876 0.0738431,-0.0484557 0.0726815,-0.0501813 0.0714795,-0.0518791 2.15582,2.6942 z "/>
<path fill="rgb(241,240,234)" stroke="rgb(241,240,234)" d="M 3.9706,5.17368 l 0.0518082,0.0647465 -0.179046,0.199204 -0.0522364,-0.0652816 0.179474,-0.198669 z "/>
<path fill="rgb(241,240,234)" stroke="rgb(241,240,234)" d="M 4.07934,5.73254 l -0.0634385,-0.0792813 0.300354,0 -0.0495434,-0.109516 0.210341,0.262871 0.00366874,0.00817221 0.00287041,0 0.06581,0.0822451 -0.274257,0 -0.00358407,-0.000156484 -0.00355679,-0.00046826 -0.00350244,-0.000776473 -0.00342144,-0.00107878 -0.0033144,-0.00137287 -0.00318213,-0.00165651 -0.00302565,-0.00192755 -0.00284614,-0.00218392 -0.00264497,-0.00242367 -0.00242367,-0.00264497 -0.00218392,-0.00284614 -0.00192755,-0.00302565 -0.00165651,-0.00318213 -0.00137287,-0.0033144 -0.00107878,-0.00342144 -0.000776473,-0.00350244 -0.00046826,-0.00355679 -0.000156484,-0.00358407 0.000156484,-0.00358407 0.00046826,-0.00355679 0.000776473,-0.00350244 0.00107878,-0.00342144 0.00137287,-0.0033144 0.00165651,-0.00318213 0.00192755,-0.00302565 0.00218392,-0.00284614 0.00242367,-0.00264497 0.00264497,-0.00242367 0.00284614,-0.00218392 0.00302565,-0.00192755 0.00318213,-0.00165651 0.0033144,-0.00137287 0.00342144,-0.00107878 0.00350244,-0.000776473 0.00355679,-0.00046826 0.00358407,-0.000156484 0.117476,0 -0.0381946,-0.0822451 -0.275087,0 z "/>
<path fill="rgb(241,240,234)" stroke="rgb(241,240,234)" d="M 3.64955,5.65326 l 0.0279118,0 0.0634385,0.0792813 -0.0678551,0 0.0470182,0.125266 0.00213136,0.00499272 0.00256571,0.00478405 0.00297984,0.00453768 0.0033705,0.00425555 0.0037346,0.00393989 0.00406927,0.00359319 0.00437188,0.00321818 0.00464004,0.00281781 0.00487163,0.00239523 0.00506485,0.00195379 0.00521815,0.00149695 0.00533034,0.00102831 0.00540053,0.000551571 0.00542817,7.0486e-05 0.00541303,-0.000411154 0.087867,0 0.0149334,0.0186628 0,0.0635584 -0.117458,-0.000122326 -0.0118299,-0.000521601 -0.0117413,-0.0015363 -0.0115659,-0.00253964 -0.0113048,-0.00352418 -0.0109601,-0.00448265 -0.0105344,-0.00540795 -0.0100307,-0.00629324 -0.00945272,-0.00713197 -0.00880485,-0.00791793 -0.00809183,-0.0086453 -0.00731894,-0.00930871 -0.0064919,-0.00990324 -0.00561682,-0.0104245 -0.00470019,-0.0108686 -0.00374878,-0.0112323 -0.140971,-0.402358 -0.0337385,0.00654912 -0.0341797,0.00359515 -0.0343628,0.000614019 -0.0342863,-0.00237175 -0.0339509,-0.0053396 -0.0333591,-0.00826712 -0.0325154,-0.0111322 -0.0314261,-0.0139132 -0.0300994,-0.0165892 -0.0285455,-0.0191398 -0.0267759,-0.0215459 -0.0248042,-0.0237893 -0.0226451,-0.025853 -0.0203149,-0.0277215 -0.0178314,-0.0293806 -0.0152132,-0.0308178 -0.0124801,-0.0320223 -0.0096527,-0.0329849 -0.00675244,-0.0336984 -0.00380118,-0.0341574 -0.000821208,-0.0343584 0.00216496,-0.0343 0.00513478,-0.0339825 0.00806582,-0.0334084 0.0109359,-0.0325819 0.0137235,-0.0315094 0.0164074,-0.0301989 0.0560834,0.0700894 -0.0107458,0.0254095 -0.00845684,0.0262602 -0.00610164,0.0269051 -0.00369863,0.0273393 -0.00126664,0.0275592 2.22045e-15,5.86198e-14 0.00107885,0.026327 0.00331599,0.0261396 0.00552905,0.0257625 0.00770198,0.0251983 0.009819,0.0244512 0.0118647,0.0235267 0.0138244,0.0224313 0.0156836,0.0211731 0.017429,0.0197612 0.0190479,0.0182059 0.0205285,0.0165184 0.0218601,0.0147109 0.023033,0.0127967 0.0240387,0.0107896 0.0248699,0.0087042 0.0255206,0.00655559 0.025986,0.00435939 0.0262628,0.00213154 0.0263489,-0.00011178 0.0262437,-0.00235429 0.0259481,-0.00457971 -0.00252136,-0.00713146 0.199381,0.249174 -0.0147662,0.0164286 z "/>
<path fill="rgb(241,240,234)" stroke="rgb(241,240,234)" d="M 3.26979,4.72082 l 0.0328912,-0.0102615 0.0336632,-0.00734309 0.0341767,-0.00436827 0.0344279,-0.00135992 0.0344148,0.00165888 0.0341375,0.00466493 0.0335981,0.00763518 0.0328008,0.0105468 0.0317517,0.0133775 0.0304589,0.0161055 0.0289322,0.0187098 0.0271834,0.0211705 0.025226,0.0234687 0.0504265,0.0630198 0.00539775,0.00862677 0.00517272,0.00876355 0.00494422,0.00889447 0.015165,0.031369 0.0123433,0.0325827 0.00942566,0.0335432 0.00643477,0.034243 0.00339388,0.0346767 0.000326607,0.0348409 -0.0027432,0.0347342 -0.00579169,0.0343577 -0.00879517,0.033714 -0.0117303,0.0328084 -0.0145742,0.0316478 -0.0173049,0.0302412 -0.0556241,-0.0695154 0.0110402,-0.0238956 0.00897331,-0.024746 0.00684177,-0.0254181 0.00466089,-0.0259068 0.00244642,-0.0262088 0.000214315,-0.0263219 -0.00201934,-0.0262452 -0.00423843,-0.0259793 -0.00642697,-0.0255261 -0.00856918,-0.0248889 -0.0106496,-0.0240722 -0.0126533,-0.0230821 -0.0145657,-0.0219255 -0.0163731,-0.0206109 -0.0180625,-0.0191476 -0.0196217,-0.0175464 -0.00579047,-0.00463724 -0.00589919,-0.00449811 -0.00600457,-0.00435644 -0.0226972,-0.0146258 -0.0238778,-0.0126065 -0.0248793,-0.0104926 -0.0256941,-0.00829999 -0.026316,-0.00604507 -0.0267404,-0.00374479 -0.0269642,-0.0014164 -0.0269856,0.000922624 -0.0268045,0.00325472 -0.0264222,0.00556239 -0.0560506,-0.0700485 z "/>
<path fill="rgb(241,240,234)" stroke="rgb(241,240,234)" d="M 4.48954,5.3478 l 0.111596,-0.214397 -0.246711,0 0.00465805,0.0256968 0.00682573,0.0252078 0.00894398,0.0245363 0.0109975,0.0236871 0.0129714,0.0226665 0.0148513,0.0214817 0.0166238,0.0201414 0.0182759,0.0186553 0.0197956,0.0170341 0.0211721,0.0152895 z M 4.35443,5.05116 l 0.195018,0 0.112624,0.14075 -0.0991015,0.194086 0.0264442,0.0077757 0.0270296,0.00539948 0.027402,0.00298071 0.0275584,0.000538431 0.0274975,-0.00190809 0.0272199,-0.00433957 0.0267277,-0.00673684 0.0260248,-0.009081 0.0251167,-0.0113536 0.0520322,0.0650265 -0.0216918,0.0112362 -0.0223437,0.00987646 -0.0229105,0.00847911 -0.0344122,0.00983453 -0.0351599,0.00668554 -0.0356201,0.00348188 -0.035789,0.000249737 -0.0356652,-0.00298444 -0.0352498,-0.00619422 -0.0345461,-0.00935334 -0.33163,-0.414449 0.058263,0 0.00560298,-0.0351591 0.00872965,-0.0345159 0.0117862,-0.0335953 0.0147479,-0.0324045 0.0175911,-0.0309533 0.0202929,-0.0292533 0.0228315,-0.0273181 0.052388,0.0654711 -0.0174686,0.0232108 -0.0152247,0.0247407 -0.0128477,0.0260544 -0.0103585,0.0271403 -0.00777871,0.027989 -0.00513095,0.0285931 z "/>
<path fill="rgb(241,240,234)" stroke="rgb(241,240,234)" d="M 4.97047,5.0448 l -0.00528881,-0.0264877 -0.00756313,-0.0259301 -0.0097806,-0.0251776 -0.0119246,-0.0242358 -0.0139789,-0.0231119 -0.0159282,-0.0218143 -0.0177577,-0.0203527 -0.0194538,-0.0187382 -0.0210037,-0.0169828 -0.0223957,-0.0150998 -0.0236194,-0.0131033 -0.0246655,-0.0110083 -0.0255263,-0.00883055 -0.0261952,-0.00658645 -0.0266672,-0.00429284 -0.0269388,-0.00196696 -0.0627094,-0.0783702 0.0354615,-0.00332276 0.0356166,-0.000131851 0.0354851,0.00306012 0.0350682,0.00622747 0.0343691,0.00934471 0.0333935,0.0123868 0.0321493,0.0153292 0.028717,0.0169164 0.027175,0.0192964 0.0254363,0.0215366 0.0235134,0.023621 0.0214203,0.0255343 0.0191721,0.0272628 0.0167851,0.0287939 0.0142766,0.0301166 0.0116648,0.0312212 0.00896849,0.0320998 0.00620726,0.032746 0.00340108,0.0331551 0.00057029,0.0333243 -0.00226463,0.0332521 -0.00508316,0.0329392 -0.00786489,0.0323879 -0.0105897,0.0316021 -0.0637323,-0.0796485 0.00399754,-0.0265721 0.00168476,-0.0268182 -0.000640646,-0.0268635 -0.00296125,-0.0267074 z "/>
<path fill="rgb(241,240,234)" stroke="rgb(241,240,234)" d="M 5.52907,7.42595 l 0.0154594,-0.01345 0.0141772,-0.0147955 0.0127782,-0.0160192 0.0112742,-0.0171111 0.00967741,-0.0180623 0.008001,-0.0188648 0.00625878,-0.0195122 0.00446506,-0.019999 0.00263461,-0.0203213 0.000782482,-0.0204764 -0.00107608,-0.0204631 0.0904622,0.113054 -0.00938555,0.0272963 -0.0117556,0.0263625 -0.0140341,0.0252234 -0.0162033,0.0238878 -0.0182463,0.0223662 -0.0201472,0.0206703 -0.0218912,0.0188135 -0.0234647,0.0168102 0.0662665,0.153737 0.146088,-0.238654 0.185767,0.23216 -0.0570686,0.0927364 -0.00226196,0.0031928 -0.00254244,0.00297429 -0.00280192,0.00273123 -0.00303828,0.00246562 -0.00324954,0.00217966 -0.00343398,0.00187569 -0.00359006,0.00155624 -0.0037165,0.00122394 -0.00381226,0.000881532 -0.00387654,0.000531848 -0.00390881,0.000177772 -0.155101,0 -0.315456,-0.394236 -0.0618029,-0.134212 -0.0016183,-0.00396048 -0.00126696,-0.00408646 -0.000905985,-0.00418133 -0.000538111,-0.00424438 -0.000166141,-0.00427513 0.000207094,-0.00427334 0.000578752,-0.00423903 0.000946006,-0.00417246 0.00130606,-0.00407413 0.00165617,-0.0039448 0.00199368,-0.00378544 0.00231602,-0.00359728 0.00262073,-0.00338173 0.00290549,-0.00314045 0.00316815,-0.00287527 0.00340669,-0.00258821 0.0036193,-0.00228145 0.00380437,-0.00195732 0.00396048,-0.0016183 0.00408646,-0.00126696 0.00418133,-0.000905985 0.00424438,-0.000538111 0.00427513,-0.000166141 0.00427334,0.000207094 0.00423903,0.000578752 0.00417246,0.000946006 0.00407413,0.00130606 0.0039448,0.00165617 0.00378544,0.00199368 0.00359728,0.00231602 0.00338173,0.00262073 0.00314045,0.00290549 0.00287527,0.00316815 0.00258821,0.00340669 0.00228145,0.0036193 0.00195732,0.00380437 0.09868,0.214294 z "/>
<path fill="rgb(241,240,234)" stroke="rgb(241,240,234)" d="M 5.25361,7.62304 l -0.00539708,-0.00200913 -0.0053695,-0.00208171 -0.00534095,-0.00215391 0.00407866,-0.00878815 0.0120289,0.0150329 z "/>
<path fill="rgb(241,240,234)" stroke="rgb(241,240,234)" d="M 5.90017,8.0081 l -0.056473,-0.0705763 0.056473,0 0,0.0705763 z "/>
<path fill="rgb(241,240,234)" stroke="rgb(241,240,234)" d="M 6.26727,7.19799 l 0.137668,0.172049 0.00663663,0.00920625 0.00709058,0.00886135 0.00752664,0.00849409 0.13695,0.171151 -0.0283447,-0.00382925 -0.0278992,-0.00630265 -0.0272382,-0.00872738 -0.0263669,-0.0110847 -0.0252921,-0.0133565 -0.024022,-0.0155252 -0.0225664,-0.0175739 -0.0209366,-0.019487 -0.0191452,-0.0212497 -0.0172059,-0.0228483 -0.0151338,-0.0242705 -0.0129449,-0.0255052 -0.010656,-0.0265431 -0.00828481,-0.0273761 -0.00584968,-0.0279977 -0.249168,8.88178e-16 -3.9968e-14,-8.88178e-16 -0.00459081,0.000147831 -0.00457091,0.000451908 -0.00453088,0.000753996 -0.0722354,-0.0902752 0.00722844,-0.00325924 0.00750278,-0.00256539 0.0077107,-0.00184882 0.00785034,-0.00111588 0.00792047,-0.000373061 0.292898,0 z "/>
<path fill="rgb(241,240,234)" stroke="rgb(241,240,234)" d="M 6.81706,7.25469 l 0.000186181,-0.0199417 -0.00158077,-0.0198798 -0.00333529,-0.0196617 -0.0050636,-0.019289 -0.00675211,-0.0187647 -0.00838755,-0.0180929 -0.00995706,-0.0172789 -0.0114483,-0.0163291 -0.0128496,-0.015251 -0.0141499,-0.014053 -0.0153389,-0.0127445 -0.0164074,-0.0113359 -0.0173469,-0.00983815 -0.0181501,-0.00826308 -0.0188106,-0.00662307 -0.0193233,-0.004931 -0.0196841,-0.00320017 -0.0198902,-0.00144419 -0.0199399,0.000323146 -0.0198329,0.00208794 -0.0195701,0.00383632 -0.0191534,0.00555455 -0.0185861,0.00722912 -0.0178728,0.00884687 -0.0637112,-0.0796222 0.0251897,-0.0140755 0.0263347,-0.0117952 0.0272738,-0.00942253 0.0279996,-0.00697622 0.0285064,-0.00447536 0.0287903,-0.0019395 0.0288491,0.000611527 0.0286823,0.00315777 0.0282912,0.00567932 0.0276788,0.00815646 0.02685,0.0105698 0.0258113,0.0129005 0.0245707,0.0151303 0.0231379,0.0172418 0.0215242,0.0192185 0.0197423,0.0210449 0.0178059,0.0227067 0.0157303,0.024191 0.0135316,0.0254861 0.0112272,0.0265818 0.00883496,0.0274698 0.00637364,0.0281429 0.00386248,0.0285959 0.00132111,0.0288253 -0.00117163,0.0281091 -0.00359439,0.027903 -0.0059903,0.0274884 -0.00834147,0.0268685 -0.0106303,0.0260479 -0.0128398,0.0250327 -0.0149533,0.0238305 -0.0169552,0.0224503 -0.0188304,0.0209025 -0.063784,-0.0797131 0.0118847,-0.0146744 0.0106177,-0.0156156 0.00927657,-0.0164478 0.00787058,-0.017165 0.00640961,-0.0177624 0.00490385,-0.0182356 0.00336383,-0.0185814 0.00180032,-0.0187974 z "/>
<path fill="rgb(241,240,234)" stroke="rgb(241,240,234)" d="M 5.30532,7.03898 l -0.0186794,0.00841848 -0.0178359,0.0100832 -0.0168445,0.0116643 -0.0157133,0.0131486 -0.0144517,0.0145238 -0.0130702,0.0157785 -0.0115803,0.0169023 -0.0678873,-0.0848411 0.0190658,-0.0217003 0.0209599,-0.0198769 0.0226803,-0.0178889 0.0242129,-0.0157526 0.0255448,-0.0134859 3.10862e-14,-1.33227e-14 0.0145494,-0.00697134 0.0148755,-0.0062454 0.0151653,-0.00550426 0.0269749,-0.00777339 0.0275421,-0.00543162 0.0279064,-0.00304984 0.0907901,0.113464 -0.0189319,-0.00535096 -0.0193256,-0.00368361 -0.0195728,-0.00198833 -0.0196716,-0.00027797 -0.0196212,0.0014345 -0.019422,0.00313609 -0.0190755,0.0048139 -0.0185844,0.0064552 z "/>
<path fill="rgb(241,240,234)" stroke="rgb(241,240,234)" d="M 6.65523,7.25987 l -0.0495132,-0.0618784 0.00218105,0 0.00428134,0.000187237 0.00424865,0.000560281 0.00418351,0.000929046 0.00408644,0.00129072 0.00395815,0.00164253 0.00379965,0.00198181 0.00361213,0.00230595 0.00339703,0.00261248 0.003156,0.00289907 0.00289086,0.00316352 0.00260365,0.00340381 0.00229656,0.00361811 0.00197193,0.00380479 0.00163224,0.00396241 0.0012801,0.00408978 0.000918174,0.00418591 0.00054924,0.00425009 0.000176112,0.00428181 -0.00019836,0.00428084 -0.000571318,0.00424718 -0.000939913,0.00418108 z "/>
<path fill="rgb(241,240,234)" stroke="rgb(241,240,234)" d="M 6.57077,7.64861 l 0.0570729,0 0.10604,0.132522 -0.185633,0 -0.152809,0 -0.119558,-0.149416 0.0218837,-0.0467408 0.00151181,-0.0027648 0.00174532,-0.00262365 0.00196574,-0.00246284 0.00217142,-0.00228356 0.00236082,-0.00208715 0.00253252,-0.0018751 0.00268524,-0.00164899 0.00281782,-0.00141052 0.00292928,-0.00116147 0.00301877,-0.000903718 0.00308563,-0.000639187 0.00312936,-0.000369863 0.00314962,-9.77668e-05 0.00314627,0.000175063 0.00311934,0.00044658 0.00306901,0.000714749 0.00299567,0.000977559 0.00289988,0.00123304 0.00278234,0.00147928 0.00160716,0.00114235 0.0016124,0.00113494 0.00161761,0.00112751 0.0328194,0.0206295 0.0345497,0.0175785 0.0359972,0.0143837 0.03715,0.0110711 0.0379986,0.00766781 0.0385361,0.00420178 z "/>
<path fill="rgb(241,240,234)" stroke="rgb(241,240,234)" d="M 3.91422,3.83433 l 0.207132,-0.082918 0.213372,-0.0652005 0.218101,-0.0470208 0.221283,-0.0285079 0.222897,-0.00979281 0.222931,0.00899165 0.221384,0.0277124 0.218268,0.0462367 0.213605,0.0644332 0.207428,0.082173 0.199781,0.0993303 0.190717,0.115784 0.180302,0.131416 -0.142412,0.142412 -0.0538561,-0.0408437 -0.0549623,-0.0393425 -0.0560267,-0.0378113 -0.188006,-0.111486 -0.197194,-0.0942862 -0.204813,-0.0763359 -0.210801,-0.057778 -0.215112,-0.0387602 -0.21771,-0.019434 -0.218576,4.69843e-05 -0.217702,0.0195276 -0.215095,0.0388527 -0.210776,0.0578686 -0.20478,0.0764239 -0.12938,-0.161691 z "/>
<path fill="rgb(241,240,234)" stroke="rgb(241,240,234)" d="M 2.95226,7.59329 l 0.0378113,0.0560267 0.0393425,0.0549623 0.0408437,0.0538561 -0.142412,0.142412 -0.131086,-0.179806 -0.115539,-0.19017 -0.0991774,-0.199193 -0.0821166,-0.206811 -0.0644768,-0.212971 -0.0463823,-0.217629 -0.0279609,-0.220753 -0.00934224,-0.222321 0.0112067,-0.243455 0.0335254,-0.241395 0.0555605,-0.237295 0.0771257,-0.231187 0.0980386,-0.223124 0.118122,-0.213173 0.137207,-0.20142 0.12938,0.161691 -0.115311,0.176016 -0.0997825,0.185262 -0.0835175,0.19314 -0.0666364,0.199595 -0.0492638,0.204576 -0.0315277,0.208049 -0.0135591,0.209987 0.00450951,0.210376 0.0225449,0.209213 0.0404139,0.206507 0.0579849,0.202277 0.0751281,0.196556 0.0917171,0.189384 0.10763,0.180816 z "/>
<path fill="rgb(241,240,234)" stroke="rgb(241,240,234)" d="M 3.67424,3.95738 l 0.126495,0.158086 -0.0764624,0.0448449 -0.0747901,0.0475816 -0.0730199,0.050256 -0.125123,-0.156371 0.0726775,-0.0506069 0.0743279,-0.0481502 0.0758953,-0.0456396 z "/>
<path fill="rgb(241,240,234)" stroke="rgb(241,240,234)" d="M 3.05524,4.45269 l 0.0611732,-0.0640384 0.0632789,-0.0619586 0.0653139,-0.0598095 0.125123,0.156371 -0.0650465,0.0602206 -0.0628255,0.0625342 -0.0605222,0.064766 -0.126495,-0.158086 z "/>
<path fill="rgb(241,240,234)" stroke="rgb(241,240,234)" d="M 3.65937,8.30039 l -0.0560267,-0.0378113 -0.0549623,-0.0393425 -0.0538561,-0.0408437 1.22581,-1.22581 0.125723,0.15712 -1.18669,1.18669 z "/>
<path fill="rgb(241,240,234)" stroke="rgb(241,240,234)" d="M 5.47236,6.20456 l 0.125723,0.15712 -0.188006,0.188006 -0.125723,-0.15712 0.188006,-0.188006 z "/>
<path fill="rgb(241,240,234)" stroke="rgb(241,240,234)" d="M 5.03407,6.9257 l -0.125723,-0.15712 0.188006,-0.188006 0.125723,0.15712 -0.0023232,0.0023232 -0.185683,0.185683 z "/>
<path fill="rgb(241,240,234)" stroke="rgb(241,240,234)" d="M 6.93328,4.74365 l 0.0408437,0.0538561 0.0393425,0.0549623 0.0378113,0.0560267 -1.26518,1.26518 -0.125723,-0.15712 1.27291,-1.27291 z "/>
<path fill="rgb(241,240,234)" stroke="rgb(241,240,234)" d="M 6.3293,8.54439 l -0.126495,-0.158086 0.0764624,-0.0448449 0.0747901,-0.0475816 0.0730199,-0.050256 0.125123,0.156371 -0.0726775,0.0506069 -0.0743279,0.0481502 -0.0758953,0.0456396 z "/>
<path fill="rgb(241,240,234)" stroke="rgb(241,240,234)" d="M 3.65937,8.30039 l 0.188006,0.111486 0.197194,0.0942862 0.204813,0.0763359 0.210801,0.057778 0.215112,0.0387602 0.21771,0.019434 0.218576,-4.69843e-05 0.217702,-0.0195276 0.215095,-0.0388527 0.210776,-0.0578686 0.20478,-0.0764239 0.12938,0.161691 -0.207132,0.082918 -0.213372,0.0652005 -0.218101,0.0470208 -0.221283,0.0285079 -0.222897,0.00979281 -0.222931,-0.00899165 -0.221384,-0.0277124 -0.218268,-0.0462367 -0.213605,-0.0644332 -0.207428,-0.082173 -0.199781,-0.0993303 -0.190717,-0.115784 -0.180302,-0.131416 0.142412,-0.142412 0.0538561,0.0408437 0.0549623,0.0393425 0.0560267,0.0378113 z "/>
<path fill="rgb(241,240,234)" stroke="rgb(241,240,234)" d="M 6.72898,7.98848 l 0.0315335,-0.0319245 0.0309435,-0.0324967 0.0303432,-0.033058 0.126495,0.158086 -0.0611732,0.0640384 -0.0632789,0.0619586 -0.0653139,0.0598095 -0.125123,-0.156371 0.0323926,-0.029443 0.0318614,-0.0300171 0.03132,-0.0305815 z "/>
<path fill="rgb(241,240,234)" stroke="rgb(241,240,234)" d="M 6.93328,4.74365 l 0.142412,-0.142412 0.131086,0.179806 0.115539,0.19017 0.0991774,0.199193 0.0821166,0.206811 0.0644768,0.212971 0.0463823,0.217629 0.0279609,0.220753 0.00934224,0.222321 -0.0112067,0.243455 -0.0335254,0.241395 -0.0555605,0.237295 -0.0771257,0.231187 -0.0980386,0.223124 -0.118122,0.213173 -0.137207,0.20142 -0.12938,-0.161691 0.115311,-0.176016 0.0997825,-0.185262 0.0835175,-0.19314 0.0666364,-0.199595 0.0492638,-0.204576 0.0315277,-0.208049 0.0135591,-0.209987 -0.00450951,-0.210376 -0.0225449,-0.209213 -0.0404139,-0.206507 -0.0579849,-0.202277 -0.0751281,-0.196556 -0.0917171,-0.189384 -0.10763,-0.180816 -0.0378113,-0.0560267 -0.0393425,-0.0549623 -0.0408437,-0.0538561 z "/>
<path fill="rgb(241,240,234)" stroke="rgb(241,240,234)" d="M 4.53118,6.29722 l -0.125723,-0.15712 0.188006,-0.188006 0.125723,0.15712 -0.188006,0.188006 z "/>
<path fill="rgb(241,240,234)" stroke="rgb(241,240,234)" d="M 6.34417,4.20138 l 0.0560267,0.0378113 0.0549623,0.0393425 0.0538561,0.0408437 -1.22581,1.22581 -0.125723,-0.15712 1.18669,-1.18669 z "/>
<path fill="rgb(241,240,234)" stroke="rgb(241,240,234)" d="M 2.95226,7.59329 l 1.26518,-1.26518 0.125723,0.15712 -1.27291,1.27291 -0.0408437,-0.0538561 -0.0393425,-0.0549623 -0.0378113,-0.0560267 z "/>
<path fill="rgb(241,240,234)" stroke="rgb(241,240,234)" d="M 4.8629,5.68265 l 0.106569,-0.106569 0.125723,0.15712 -0.188006,0.188006 -0.125723,-0.15712 0.0814372,-0.0814372 z "/>
<path fill="rgb(241,240,234)" stroke="rgb(241,240,234)" d="M 3.10719,3.24871 l 0.125789,0.157203 -0.074436,0.0476517 -0.073153,0.0495987 -0.0718191,0.0515113 -0.125047,-0.156276 0.0716393,-0.0517054 0.0729038,-0.0499066 0.0741231,-0.0480769 z "/>
<path fill="rgb(241,240,234)" stroke="rgb(241,240,234)" d="M 1.45177,6.25089 l 0.0139232,-0.314103 0.0416603,-0.311639 0.0690706,-0.306731 0.0959391,-0.299416 0.122055,-0.289753 0.147214,-0.277818 0.171218,-0.263702 0.193878,-0.247519 0.127313,0.159108 -0.177586,0.231744 -0.156734,0.246326 -0.134691,0.259037 -0.111625,0.269781 -0.087711,0.278476 -0.0631309,0.285055 -0.0380714,0.289469 -0.0127227,0.291685 -0.2,0 z "/>
<path fill="rgb(241,240,234)" stroke="rgb(241,240,234)" d="M 8.35177,6.25089 l -0.0132606,-0.297776 -0.0396769,-0.295418 -0.0657791,-0.290722 -0.0913605,-0.283724 -0.116219,-0.27448 -0.140157,-0.263063 -0.162985,-0.249564 -0.184523,-0.234088 -0.204601,-0.21676 -0.223058,-0.197715 -0.23975,-0.177105 -0.254543,-0.155093 -0.267322,-0.131854 -0.277984,-0.10757 -0.286445,-0.0824346 -0.292639,-0.0566467 -0.296516,-0.0304103 -0.298045,-0.00393315 -0.297215,0.0225751 -0.294032,0.0489047 -0.288521,0.074847 -0.280726,0.100197 -0.270708,0.124753 -0.127313,-0.159108 0.274772,-0.130963 0.284981,-0.106943 0.293094,-0.0821376 0.299053,-0.0567281 0.302813,-0.0309016 0.304347,-0.00484787 0.303644,0.0212415 0.300708,0.0471747 0.295562,0.0727611 0.288242,0.0978125 0.278804,0.122145 0.267315,0.145579 0.253862,0.167943 0.238542,0.189073 0.221469,0.208812 0.202767,0.227016 0.182574,0.243552 0.16104,0.258296 0.138321,0.271142 0.114586,0.281995 0.0900078,0.290774 0.0647681,0.297416 0.0390523,0.301871 0.0130494,0.304106 -0.2,0 z "/>
<path fill="rgb(241,240,234)" stroke="rgb(241,240,234)" d="M 2.48819,3.74402 l 0.0631625,-0.0617748 0.0646802,-0.0601839 0.0661579,-0.0585556 0.125047,0.156276 -0.066008,0.0587737 -0.0644345,0.0604945 -0.0628162,0.0621733 -0.125789,-0.157203 z "/>
<path fill="rgb(241,240,234)" stroke="rgb(241,240,234)" d="M 7.51535,8.75776 l -0.0631625,0.0617748 -0.0646802,0.0601839 -0.0661579,0.0585556 -0.125047,-0.156276 0.066008,-0.0587737 0.0644345,-0.0604945 0.0628162,-0.0621733 0.125789,0.157203 z "/>
<path fill="rgb(241,240,234)" stroke="rgb(241,240,234)" d="M 6.89635,9.25306 l -0.125789,-0.157203 0.074436,-0.0476517 0.073153,-0.0495987 0.0718191,-0.0515113 0.125047,0.156276 -0.0716393,0.0517054 -0.0729038,0.0499066 -0.0741231,0.0480769 z "/>
<path fill="rgb(241,240,234)" stroke="rgb(241,240,234)" d="M 8.35177,6.25089 l 0.2,0 -0.0139232,0.314103 -0.0416603,0.311639 -0.0690706,0.306731 -0.0959391,0.299416 -0.122055,0.289753 -0.147214,0.277818 -0.171218,0.263702 -0.193878,0.247519 -0.127313,-0.159108 0.177586,-0.231744 0.156734,-0.246326 0.134691,-0.259037 0.111625,-0.269781 0.087711,-0.278476 0.0631309,-0.285055 0.0380714,-0.289469 0.0127227,-0.291685 z "/>
<path fill="rgb(241,240,234)" stroke="rgb(241,240,234)" d="M 1.45177,6.25089 l 0.2,0 0.0132606,0.297776 0.0396769,0.295418 0.0657791,0.290722 0.0913605,0.283724 0.116219,0.27448 0.140157,0.263063 0.162985,0.249564 0.184523,0.234088 0.204601,0.21676 0.223058,0.197715 0.23975,0.177105 0.254543,0.155093 0.267322,0.131854 0.277984,0.10757 0.286445,0.0824346 0.292639,0.0566467 0.296516,0.0304103 0.298045,0.00393315 0.297215,-0.0225751 0.294032,-0.0489047 0.288521,-0.074847 0.280726,-0.100197 0.270708,-0.124753 0.127313,0.159108 -0.274772,0.130963 -0.284981,0.106943 -0.293094,0.0821376 -0.299053,0.0567281 -0.302813,0.0309016 -0.304347,0.00484787 -0.303644,-0.0212415 -0.300708,-0.0471747 -0.295562,-0.0727611 -0.288242,-0.0978125 -0.278804,-0.122145 -0.267315,-0.145579 -0.253862,-0.167943 -0.238542,-0.189073 -0.221469,-0.208812 -0.202767,-0.227016 -0.182574,-0.243552 -0.16104,-0.258296 -0.138321,-0.271142 -0.114586,-0.281995 -0.0900078,-0.290774 -0.0647681,-0.297416 -0.0390523,-0.301871 -0.0130494,-0.304106 z "/>
<path fill="rgb(241,240,234)" stroke="rgb(241,240,234)" d="M 10.0035,6.25089 l -0.229744,0 0,-5.49085 -0.00199778,-0.0457568 -0.00597815,-0.0454085 -0.00991301,-0.0447147 -0.0137724,-0.0436806 -0.017527,-0.042314 -0.0211483,-0.0406254 -0.0246085,-0.0386276 -0.0278815,-0.0363359 -0.0309423,-0.0337676 -0.0337676,-0.0309423 -0.0363359,-0.0278815 -0.0386276,-0.0246085 -0.0406254,-0.0211483 -0.042314,-0.017527 -0.0436806,-0.0137724 -0.0447147,-0.00991301 -0.0454085,-0.00597815 -0.0457568,-0.00199778 -8.47818,-7.99361e-15 -0.0457568,0.00199778 -0.0454085,0.00597815 -0.0447147,0.00991301 -0.0436806,0.0137724 -0.042314,0.017527 -0.0406254,0.0211483 -0.0386276,0.0246085 -0.0363359,0.0278815 -0.0337676,0.0309423 -0.0309423,0.0337676 -0.0278815,0.0363359 -0.0246085,0.0386276 -0.0211483,0.0406254 -0.017527,0.042314 -0.0137724,0.0436806 -0.00991301,0.0447147 -0.00597815,0.0454085 -0.00199778,0.0457568 0,5.49085 -0.245616,1.77636e-15 0,-6.25089 10.0035,1.77636e-15 -1.77636e-15,6.25089 z "/>
<path fill="rgb(241,240,234)" stroke="rgb(241,240,234)" d="M 10.0035,6.25089 l -1.77636e-15,6.25089 -10.0035,0 0,-6.25089 0.245616,-1.77636e-15 0,5.48553 0.00199778,0.0457568 0.00597815,0.0454085 0.00991301,0.0447147 0.0137724,0.0436806 0.017527,0.042314 0.0211483,0.0406254 0.0246085,0.0386276 0.0278815,0.0363359 0.0309423,0.0337676 0.0337676,0.0309423 0.0363359,0.0278815 0.0386276,0.0246085 0.0406254,0.0211483 0.042314,0.017527 0.0436806,0.0137724 0.0447147,0.00991301 0.0454085,0.00597815 0.0457568,0.00199778 8.47818,1.06581e-14 0.0457568,-0.00199778 0.0454085,-0.00597815 0.0447147,-0.00991301 0.0436806,-0.0137724 0.042314,-0.017527 0.0406254,-0.0211483 0.0386276,-0.0246085 0.0363359,-0.0278815 0.0337676,-0.0309423 0.0309423,-0.0337676 0.0278815,-0.0363359 0.0246085,-0.0386276 0.0211483,-0.0406254 0.017527,-0.042314 0.0137724,-0.0436806 0.00991301,-0.0447147 0.00597815,-0.0454085 0.00199778,-0.0457568 1.77636e-15,-5.48553 0.229744,0 z "/>
<path fill="rgb(142,146,145)" stroke="rgb(142,146,145)" d="M 3.35211,8.32481 l -0.151993,-0.13058 -0.141691,-0.141691 -0.13058,-0.151993 0.142412,-0.142412 1.27291,-1.27291 0.377168,0.47136 -1.22581,1.22581 -0.142412,0.142412 z "/>
<path fill="rgb(142,146,145)" stroke="rgb(142,146,145)" d="M 4.53118,6.29722 l 0.188006,-0.188006 0.377168,0.47136 -0.188006,0.188006 -0.377168,-0.47136 z "/>
<path fill="rgb(142,146,145)" stroke="rgb(142,146,145)" d="M 5.47236,6.20456 l -0.188006,0.188006 -0.377168,-0.47136 0.188006,-0.188006 0.377168,0.47136 z "/>
<path fill="rgb(142,146,145)" stroke="rgb(142,146,145)" d="M 6.93328,4.74365 l -1.27291,1.27291 -0.377168,-0.47136 1.22581,-1.22581 0.142412,-0.142412 0.151993,0.13058 0.141691,0.141691 0.13058,0.151993 -0.142412,0.142412 z "/>
<path fill="rgb(142,146,145)" stroke="rgb(142,146,145)" d="M 1.45177,6.25089 l -0.2,0 0.0151291,-0.336511 0.0452652,-0.333795 0.0750361,-0.328387 0.104202,-0.320328 0.132526,-0.309685 0.159782,-0.296544 0.185748,-0.281009 0.210215,-0.263207 0.127055,0.158786 -0.193878,0.247519 -0.171218,0.263702 -0.147214,0.277818 -0.122055,0.289753 -0.0959391,0.299416 -0.0690706,0.306731 -0.0416603,0.311639 -0.0139232,0.314103 z "/>
<path fill="rgb(142,146,145)" stroke="rgb(142,146,145)" d="M 8.75177,6.25089 l -0.2,0 -0.0130494,-0.304106 -0.0390523,-0.301871 -0.0647681,-0.297416 -0.0900078,-0.290774 -0.114586,-0.281995 -0.138321,-0.271142 -0.16104,-0.258296 -0.182574,-0.243552 -0.202767,-0.227016 -0.221469,-0.208812 -0.238542,-0.189073 -0.253862,-0.167943 -0.267315,-0.145579 -0.278804,-0.122145 -0.288242,-0.0978125 -0.295562,-0.0727611 -0.300708,-0.0471747 -0.303644,-0.0212415 -0.304347,0.00484787 -0.302813,0.0309016 -0.299053,0.0567281 -0.293094,0.0821376 -0.284981,0.106943 -0.274772,0.130963 -0.127055,-0.158786 0.290286,-0.141894 0.301423,-0.116379 0.310323,-0.0899994 0.316918,-0.062952 0.321161,-0.0354371 0.323019,-0.00765917 0.32248,0.0201756 0.319546,0.0478606 0.31424,0.0751903 0.306601,0.101962 0.296685,0.127976 0.284567,0.153041 0.270337,0.176969 0.2541,0.199583 0.235976,0.220716 0.2161,0.24021 0.19462,0.257921 0.171695,0.273717 0.147495,0.287481 0.122201,0.299111 0.0959987,0.30852 0.0690841,0.315638 0.0416567,0.320414 0.01392,0.32281 z "/>
<path fill="rgb(142,146,145)" stroke="rgb(142,146,145)" d="M 2.55715,3.40724 l 0.125037,0.156263 -0.0661579,0.0585556 -0.0646802,0.0601839 -0.0631625,0.0617748 -0.125699,-0.157091 0.0634707,-0.0614186 0.0648995,-0.0599067 0.0662924,-0.0583617 z "/>
<path fill="rgb(142,146,145)" stroke="rgb(142,146,145)" d="M 2.98149,3.09162 l 0.125699,0.157091 -0.0741231,0.0480769 -0.0729038,0.0499066 -0.0716393,0.0517054 -0.125037,-0.156263 0.0714795,-0.0518791 0.0726815,-0.0501813 0.0738431,-0.0484557 z "/>
<path fill="rgb(142,146,145)" stroke="rgb(142,146,145)" d="M 7.64105,8.91485 l -0.0634707,0.0614186 -0.0648995,0.0599067 -0.0662924,0.0583617 -0.125037,-0.156263 0.0661579,-0.0585556 0.0646802,-0.0601839 0.0631625,-0.0617748 0.125699,0.157091 z "/>
<path fill="rgb(142,146,145)" stroke="rgb(142,146,145)" d="M 8.75177,6.25089 l -0.0151291,0.336511 -0.0452652,0.333795 -0.0750361,0.328387 -0.104202,0.320328 -0.132526,0.309685 -0.159782,0.296544 -0.185748,0.281009 -0.210215,0.263207 -0.127055,-0.158786 0.193878,-0.247519 0.171218,-0.263702 0.147214,-0.277818 0.122055,-0.289753 0.0959391,-0.299416 0.0690706,-0.306731 0.0416603,-0.311639 0.0139232,-0.314103 0.2,0 z "/>
<path fill="rgb(142,146,145)" stroke="rgb(142,146,145)" d="M 1.45177,6.25089 l 0.0130494,0.304106 0.0390523,0.301871 0.0647681,0.297416 0.0900078,0.290774 0.114586,0.281995 0.138321,0.271142 0.16104,0.258296 0.182574,0.243552 0.202767,0.227016 0.221469,0.208812 0.238542,0.189073 0.253862,0.167943 0.267315,0.145579 0.278804,0.122145 0.288242,0.0978125 0.295562,0.0727611 0.300708,0.0471747 0.303644,0.0212415 0.304347,-0.00484787 0.302813,-0.0309016 0.299053,-0.0567281 0.293094,-0.0821376 0.284981,-0.106943 0.274772,-0.130963 0.127055,0.158786 -0.290286,0.141894 -0.301423,0.116379 -0.310323,0.0899994 -0.316918,0.062952 -0.321161,0.0354371 -0.323019,0.00765917 -0.32248,-0.0201756 -0.319546,-0.0478606 -0.31424,-0.0751903 -0.306601,-0.101962 -0.296685,-0.127976 -0.284567,-0.153041 -0.270337,-0.176969 -0.2541,-0.199583 -0.235976,-0.220716 -0.2161,-0.24021 -0.19462,-0.257921 -0.171695,-0.273717 -0.147495,-0.287481 -0.122201,-0.299111 -0.0959987,-0.30852 -0.0690841,-0.315638 -0.0416567,-0.320414 -0.01392,-0.32281 0.2,0 z "/>
<path fill="rgb(142,146,145)" stroke="rgb(142,146,145)" d="M 7.02205,9.41015 l -0.125699,-0.157091 0.0741231,-0.0480769 0.0729038,-0.0499066 0.0716393,-0.0517054 0.125037,0.156263 -0.0714795,0.0518791 -0.0726815,0.0501813 -0.0738431,0.0484557 z "/>
<path fill="rgb(142,146,145)" stroke="rgb(142,146,145)" d="M 3.23297,3.40592 l 0.441266,0.551466 -0.0758953,0.0456396 -0.0743279,0.0481502 -0.0726775,0.0506069 -0.437774,-0.547101 0.0718191,-0.0515113 0.073153,-0.0495987 0.074436,-0.0476517 z "/>
<path fill="rgb(142,146,145)" stroke="rgb(142,146,145)" d="M 2.61397,3.90122 l 0.0628162,-0.0621733 0.0644345,-0.0604945 0.066008,-0.0587737 0.437774,0.547101 -0.0653139,0.0598095 -0.0632789,0.0619586 -0.0611732,0.0640384 -0.441266,-0.551466 z "/>
<path fill="rgb(142,146,145)" stroke="rgb(142,146,145)" d="M 8.35177,6.25089 l -0.7,0 -0.00934224,-0.222321 -0.0279609,-0.220753 -0.0463823,-0.217629 -0.0644768,-0.212971 -0.0821166,-0.206811 -0.0991774,-0.199193 -0.115539,-0.19017 -0.131086,-0.179806 -0.13058,-0.151993 -0.141691,-0.141691 -0.151993,-0.13058 -0.180302,-0.131416 -0.190717,-0.115784 -0.199781,-0.0993303 -0.207428,-0.082173 -0.213605,-0.0644332 -0.218268,-0.0462367 -0.221384,-0.0277124 -0.222931,-0.00899165 -0.222897,0.00979281 -0.221283,0.0285079 -0.218101,0.0470208 -0.213372,0.0652005 -0.207132,0.082918 -0.448515,-0.560526 0.270708,-0.124753 0.280726,-0.100197 0.288521,-0.074847 0.294032,-0.0489047 0.297215,-0.0225751 0.298045,0.00393315 0.296516,0.0304103 0.292639,0.0566467 0.286445,0.0824346 0.277984,0.10757 0.267322,0.131854 0.254543,0.155093 0.23975,0.177105 0.223058,0.197715 0.204601,0.21676 0.184523,0.234088 0.162985,0.249564 0.140157,0.263063 0.116219,0.27448 0.0913605,0.283724 0.0657791,0.290722 0.0396769,0.295418 0.0132606,0.297776 z "/>
<path fill="rgb(142,146,145)" stroke="rgb(142,146,145)" d="M 1.65177,6.25089 l 0.0127227,-0.291685 0.0380714,-0.289469 0.0631309,-0.285055 0.087711,-0.278476 0.111625,-0.269781 0.134691,-0.259037 0.156734,-0.246326 0.177586,-0.231744 0.448515,0.560526 -0.137207,0.20142 -0.118122,0.213173 -0.0980386,0.223124 -0.0771257,0.231187 -0.0555605,0.237295 -0.0335254,0.241395 -0.0112067,0.243455 -0.7,0 z "/>
<path fill="rgb(142,146,145)" stroke="rgb(142,146,145)" d="M 6.77056,9.09586 l -0.441266,-0.551466 0.0758953,-0.0456396 0.0743279,-0.0481502 0.0726775,-0.0506069 0.437774,0.547101 -0.0718191,0.0515113 -0.073153,0.0495987 -0.074436,0.0476517 z "/>
<path fill="rgb(142,146,145)" stroke="rgb(142,146,145)" d="M 8.35177,6.25089 l -0.0127227,0.291685 -0.0380714,0.289469 -0.0631309,0.285055 -0.087711,0.278476 -0.111625,0.269781 -0.134691,0.259037 -0.156734,0.246326 -0.177586,0.231744 -0.448515,-0.560526 0.137207,-0.20142 0.118122,-0.213173 0.0980386,-0.223124 0.0771257,-0.231187 0.0555605,-0.237295 0.0335254,-0.241395 0.0112067,-0.243455 0.7,0 z "/>
<path fill="rgb(142,146,145)" stroke="rgb(142,146,145)" d="M 7.38956,8.60056 l -0.0628162,0.0621733 -0.0644345,0.0604945 -0.066008,0.0587737 -0.437774,-0.547101 0.0653139,-0.0598095 0.0632789,-0.0619586 0.0611732,-0.0640384 0.441266,0.551466 z "/>
<path fill="rgb(142,146,145)" stroke="rgb(142,146,145)" d="M 3.35211,8.32481 l 0.180302,0.131416 0.190717,0.115784 0.199781,0.0993303 0.207428,0.082173 0.213605,0.0644332 0.218268,0.0462367 0.221384,0.0277124 0.222931,0.00899165 0.222897,-0.00979281 0.221283,-0.0285079 0.218101,-0.0470208 0.213372,-0.0652005 0.207132,-0.082918 0.448515,0.560526 -0.270708,0.124753 -0.280726,0.100197 -0.288521,0.074847 -0.294032,0.0489047 -0.297215,0.0225751 -0.298045,-0.00393315 -0.296516,-0.0304103 -0.292639,-0.0566467 -0.286445,-0.0824346 -0.277984,-0.10757 -0.267322,-0.131854 -0.254543,-0.155093 -0.23975,-0.177105 -0.223058,-0.197715 -0.204601,-0.21676 -0.184523,-0.234088 -0.162985,-0.249564 -0.140157,-0.263063 -0.116219,-0.27448 -0.0913605,-0.283724 -0.0657791,-0.290722 -0.0396769,-0.295418 -0.0132606,-0.297776 0.7,0 0.00934224,0.222321 0.0279609,0.220753 0.0463823,0.217629 0.0644768,0.212971 0.0821166,0.206811 0.0991774,0.199193 0.115539,0.19017 0.131086,0.179806 0.13058,0.151993 0.141691,0.141691 0.151993,0.13058 z "/>
<path fill="rgb(42,41,42)" stroke="rgb(42,41,42)" d="M 6.92646,11.4646 l -0.730189,0 0,-0.999289 0.745926,0 0,0.1794 -0.563379,0 0,0.272247 0.297426,0 0,0.182547 -0.297426,0 0,0.187268 0.547642,0 0,0.177826 z "/>
<path fill="rgb(42,41,42)" stroke="rgb(42,41,42)" d="M 5.93661,11.4646 l -0.171532,0 0,-0.659373 0.0188842,-0.339916 0.152647,0 0,0.999289 z "/>
<path fill="rgb(42,41,42)" stroke="rgb(42,41,42)" d="M 5.30556,11.4646 l 0,-0.311589 0.4784,-0.6877 -0.0188842,0.339916 -0.459516,0.659373 z "/>
<path fill="rgb(42,41,42)" stroke="rgb(42,41,42)" d="M 5.30556,11.4646 l -0.174679,0 0,-0.999289 0.174679,0 0,0.6877 0,0.311589 z "/>
<path fill="rgb(42,41,42)" stroke="rgb(42,41,42)" d="M 4.48567,11.4819 l -0.0110158,0 -0.0897,-0.0110158 -0.0786842,-0.0251789 -0.0708158,-0.0424895 -0.0598,-0.0582263 -0.0299,-0.0409158 0.339916,0 0.0377684,-0.00314737 0.0771105,-0.0283263 0.0598,-0.0582263 0.034621,-0.0660947 0.0204579,-0.0834052 0.00629474,-0.0975684 -0.00314737,-0.0708158 -0.0157368,-0.0865526 -0.0283263,-0.0723895 -0.0377684,-0.0519316 -0.0660947,-0.0440631 -0.0849789,-0.0141632 -0.321031,-0.0141632 0.0236053,-0.0330474 0.0613737,-0.0582263 0.0692421,-0.0409158 0.0786842,-0.0251789 0.0881263,-0.00786842 0.00786842,0 0.0865526,0.0094421 0.0786842,0.0283263 0.0692421,0.0440631 0.0598,0.0629474 0.0283263,0.0409158 0.0361947,0.0708158 0.0267526,0.0802579 0.0157368,0.0881263 0.00472105,0.0975684 -0.00157368,0.0566526 -0.0125895,0.0912737 -0.0220316,0.0834052 -0.0330474,0.0739631 -0.0440631,0.0660947 -0.00157368,0.00157368 -0.0613737,0.0598 -0.0692421,0.0440631 -0.0802579,0.0251789 -0.0881263,0.0094421 z "/>
<path fill="rgb(42,41,42)" stroke="rgb(42,41,42)" d="M 4.14576,11.3041 l -0.0361947,-0.0692421 -0.0251789,-0.0802579 -0.0157368,-0.0881263 -0.00472105,-0.0991421 0,-0.0299 0.0094421,-0.0928473 0.0188842,-0.0834052 0.0299,-0.0786842 0.0424895,-0.0692421 0.321031,0.0141632 -0.0377684,0.00314737 -0.0771105,0.0283263 -0.0613737,0.0582263 0,0.00157368 -0.0361947,0.0676684 -0.0204579,0.0818316 -0.00786842,0.0991421 0.00786842,0.0975684 0.0220316,0.0818316 0.034621,0.0676684 0.0236053,0.0283263 0.0676684,0.0456368 0.0849789,0.0157368 -0.339916,0 z "/>
<path fill="rgb(42,41,42)" stroke="rgb(42,41,42)" d="M 3.89554,11.4646 l -0.752221,0 0,-0.176253 0.535052,0 -0.5681,-0.620031 0,-0.203005 0.785268,0 0,0.1794 -0.563379,0 0.563379,0.616884 0,0.203005 z "/>
<path fill="rgb(42,41,42)" stroke="rgb(42,41,42)" d="M 4.41612,5.67088 l 0.060937,0.135739 0.00653915,0.00817221 0.0940502,0 0,0.0822451 -0.0282402,0 0.0440577,0.0550605 0.188006,-0.188006 -0.238834,-0.29848 -0.00598575,-0.0019677 -0.00595366,-0.00206274 -0.00592007,-0.00215726 -0.108656,0.211457 z "/>
<path fill="rgb(42,41,42)" stroke="rgb(42,41,42)" d="M 2.68219,3.56351 l 0.125047,0.156276 0.0673222,-0.0568367 0.0687936,-0.0550466 0.0702175,-0.0532184 -0.125047,-0.156276 -0.0701367,0.0533211 -0.0687919,0.0550452 -0.0674047,0.0567354 z "/>
<path fill="rgb(42,41,42)" stroke="rgb(42,41,42)" d="M 4.71918,6.10921 l 0.188006,-0.188006 -0.125723,-0.15712 -0.188006,0.188006 0.125723,0.15712 z "/>
<path fill="rgb(42,41,42)" stroke="rgb(42,41,42)" d="M 2.55715,3.40724 l 0.125037,0.156263 0.0674047,-0.0567354 0.0687919,-0.0550452 0.0701367,-0.0533211 -0.125037,-0.156263 -0.0700646,0.0534128 -0.0687904,0.055044 -0.0674784,0.0566448 z "/>
<path fill="rgb(42,41,42)" stroke="rgb(42,41,42)" d="M 5.99558,7.6221 l 0.0019526,-0.00351397 0.00163276,-0.00367352 0.00130001,-0.00380402 0.00095699,-0.00390446 0.0006064,-0.00397403 0.000251017,-0.00401218 -0.000106351,-0.00401862 -0.000462878,-0.00399329 -0.000815746,-0.00393639 -0.00116216,-0.00384838 -0.0014994,-0.00372994 -2.57572e-14,-5.50671e-14 -0.0821644,-0.177595 0.0477153,-0.0742262 0.00355992,-0.00503059 0.00399317,-0.00469409 0.00439478,-0.0043204 0.00476156,-0.00391247 0.00509062,-0.00347354 0.00537934,-0.00300709 0.00562544,-0.00251682 0.00582696,-0.0020066 0.00598232,-0.00148048 -0.0722354,-0.0902752 -0.00663883,0.00376565 -0.00627087,0.0043509 -0.00585147,0.00490046 -0.00538406,0.00540981 -0.00487249,0.00587478 -0.00432093,0.00629156 -2.22045e-14,3.37508e-14 -0.121631,0.1987 0.185767,0.23216 0.0286191,-0.046506 z "/>
<path fill="rgb(42,41,42)" stroke="rgb(42,41,42)" d="M 6.98997,8.9471 l 0.0702175,-0.0532184 0.0687936,-0.0550466 0.0673222,-0.0568367 -0.437774,-0.547101 -0.0669347,0.0573113 -0.0688031,0.0550542 -0.0705955,0.0527362 0.437774,0.547101 z "/>
<path fill="rgb(42,41,42)" stroke="rgb(42,41,42)" d="M 3.37013,4.42325 l 0.313327,0.391576 0.0182365,0.0198372 0.0168352,0.0210395 0.0153548,0.0221431 0.236712,0.295828 0.110683,-0.12252 0.129722,0 -0.634539,-0.793005 -0.070743,0.0525475 -0.0688075,0.0550576 -0.0667829,0.0574965 z "/>
<path fill="rgb(42,41,42)" stroke="rgb(42,41,42)" d="M 4.37206,5.57689 l -0.202661,-0.443493 0.0998605,0 0.00454832,0.0319848 0.00720465,0.031493 0.00981061,0.0307809 0.012348,0.0298537 0.014799,0.0287177 0.0171465,0.0273808 0.0193741,0.0258526 0.0214663,0.0241435 0.0234084,0.0222657 0.0251868,0.0202321 0.0267891,0.0180571 -0.0792813,0.152731 z M 4.41612,5.67088 l 0.108656,-0.211457 0.00592007,0.00215726 0.00595366,0.00206274 0.00598575,0.0019677 -0.33163,-0.414449 -0.129722,0 -0.110683,0.12252 0.0518082,0.0647465 0.0706345,-0.0785868 0.173673,0.383906 0.210341,0.262871 -0.060937,-0.135739 z "/>
<path fill="rgb(42,41,42)" stroke="rgb(42,41,42)" d="M 4.37206,5.57689 l 0.0792813,-0.152731 -0.0267891,-0.0180571 -0.0251868,-0.0202321 -0.0234084,-0.0222657 -0.0214663,-0.0241435 -0.0193741,-0.0258526 -0.0171465,-0.0273808 -0.014799,-0.0287177 -0.012348,-0.0298537 -0.00981061,-0.0307809 -0.00720465,-0.031493 -0.00454832,-0.0319848 -0.0998605,0 0.202661,0.443493 z "/>
<path fill="rgb(42,41,42)" stroke="rgb(42,41,42)" d="M 5.6135,7.22688 l -0.00284263,-0.0198435 -0.00459043,-0.0195134 -0.0063021,-0.0190297 -0.00796414,-0.0183961 -0.00956348,-0.0176177 -0.0110875,-0.0167006 -0.0125243,-0.015652 -0.0138624,-0.0144802 -0.0150914,-0.0131944 -0.0162016,-0.0118047 -0.0171843,-0.0103221 -0.0180316,-0.00875818 -0.018737,-0.00712532 0.153983,0.192438 z "/>
<path fill="rgb(42,41,42)" stroke="rgb(42,41,42)" d="M 4.0224,5.23842 l 0.244307,0.30532 -0.173673,-0.383906 -0.0706345,0.0785868 z "/>
<path fill="rgb(42,41,42)" stroke="rgb(42,41,42)" d="M 5.99558,7.6221 l -0.0286191,0.046506 0.460116,0.575023 0.070743,-0.0525475 0.0688075,-0.0550576 0.0667829,-0.0574965 -0.237966,-0.297394 -0.129492,0 -0.00330795,-0.00014335 -0.00328314,-0.000428974 -0.00323373,-0.000711382 -0.00316006,-0.000988457 -0.00306271,-0.00125812 -0.00294239,-0.00151835 -0.00280001,-0.0017672 -0.00263664,-0.00200279 -0.0024535,-0.00222338 -0.00225196,-0.00242729 -0.00203354,-0.002613 -0.00179987,-0.00277912 -0.00155271,-0.0029244 -0.00129391,-0.00304776 -0.0010254,-0.00314827 -0.000749212,-0.00322517 -0.000467402,-0.00327789 -0.000182088,-0.00330604 0.000104592,-0.0033094 0.000390487,-0.00328794 0.000673455,-0.00324184 0.000951373,-0.00317143 0.00122216,-0.00307724 0.00148378,-0.00295997 0.0433441,-0.0925774 -0.267488,-0.334289 -0.00598232,0.00148048 -0.00582696,0.0020066 -0.00562544,0.00251682 -0.00537934,0.00300709 -0.00509062,0.00347354 -0.00476156,0.00391247 -0.00439478,0.0043204 -0.00399317,0.00469409 -0.00355992,0.00503059 -0.0477153,0.0742262 0.0821644,0.177595 2.57572e-14,5.50671e-14 0.0014994,0.00372994 0.00116216,0.00384838 0.000815746,0.00393639 0.000462878,0.00399329 0.000106351,0.00401862 -0.000251017,0.00401218 -0.0006064,0.00397403 -0.00095699,0.00390446 -0.00130001,0.00380402 -0.00163276,0.00367352 -0.0019526,0.00351397 z "/>
<path fill="rgb(42,41,42)" stroke="rgb(42,41,42)" d="M 5.70397,7.33993 l 0.00688816,-0.0277489 0.00443847,-0.0282444 0.00195486,-0.0285241 -0.000543679,-0.0285858 -0.00303807,-0.0284291 -0.00550924,-0.0280552 -0.00793831,-0.0274669 -0.0103067,-0.0266687 -0.0125964,-0.0256667 -0.0147898,-0.0244685 -0.0168702,-0.0230834 -0.0188216,-0.0215219 -0.0206293,-0.0197959 -0.0222793,-0.0179187 -0.023759,-0.0159045 -0.0250572,-0.0137688 -0.026164,-0.0115279 -0.0270708,-0.00919893 -0.0277707,-0.00679963 -0.0282584,-0.00434838 -0.0285302,-0.00186389 -0.028584,0.000634836 0.0907901,0.113464 0.018737,0.00712532 0.0180316,0.00875818 0.0171843,0.0103221 0.0162016,0.0118047 0.0150914,0.0131944 0.0138624,0.0144802 0.0125243,0.015652 0.0110875,0.0167006 0.00956348,0.0176177 0.00796414,0.0183961 0.0063021,0.0190297 0.00459043,0.0195134 0.00284263,0.0198435 0.0904622,0.113054 z "/>
<path fill="rgb(42,41,42)" stroke="rgb(42,41,42)" d="M 7.11502,9.10338 l 0.0701367,-0.0533211 0.0687919,-0.0550452 0.0674047,-0.0567354 -0.125047,-0.156276 -0.0673222,0.0568367 -0.0687936,0.0550466 -0.0702175,0.0532184 0.125047,0.156276 z "/>
<path fill="rgb(42,41,42)" stroke="rgb(42,41,42)" d="M 3.24501,4.26688 l 0.125123,0.156371 0.0667829,-0.0574965 0.0688075,-0.0550576 0.070743,-0.0525475 -0.125123,-0.156371 -0.0705955,0.0527362 -0.0688031,0.0550542 -0.0669347,0.0573113 z "/>
<path fill="rgb(42,41,42)" stroke="rgb(42,41,42)" d="M 2.55715,3.40724 l 0.0674784,-0.0566448 0.0687904,-0.055044 0.0700646,-0.0534128 -2.15271,-2.69032 -0.0183778,0.0154957 -0.0168832,0.0171119 -0.015247,0.0185847 -0.0134829,0.0199015 -0.0116058,0.0210515 -0.00963136,0.0220249 -0.00757613,0.0228137 -0.00545736,0.0234111 -0.00329283,0.0238121 -0.00110069,0.0240135 0,0.0864512 2.04903,2.56075 z "/>
<path fill="rgb(42,41,42)" stroke="rgb(42,41,42)" d="M 6.5522,8.4 l 0.0705955,-0.0527362 0.0688031,-0.0550542 0.0669347,-0.0573113 -0.125123,-0.156371 -0.0667829,0.0574965 -0.0688075,0.0550576 -0.070743,0.0525475 0.125123,0.156371 z "/>
<path fill="rgb(42,41,42)" stroke="rgb(42,41,42)" d="M 9.39587,11.9538 l 0.0186884,-0.0138888 0.0173841,-0.0154902 0.0159431,-0.0169698 0.0143766,-0.0183158 0.012697,-0.0195177 0.0109175,-0.0205661 0.00905205,-0.0214526 0.00711543,-0.0221704 0.00512282,-0.0227137 0.0030899,-0.0230783 0.00103268,-0.0232613 0,-0.0612952 -2.0649,-2.58059 -0.0674784,0.0566448 -0.0687904,0.055044 -0.0700646,0.0534128 2.15582,2.6942 z "/>
<path fill="rgb(42,41,42)" stroke="rgb(42,41,42)" d="M 4.5494,5.89703 l 0.0282402,0 0,-0.0822451 -0.0940502,0 0.06581,0.0822451 z "/>
<path fill="rgb(42,41,42)" stroke="rgb(42,41,42)" d="M 5.78119,7.43644 l 0.121631,-0.1987 2.22045e-14,-3.37508e-14 0.00432093,-0.00629156 0.00487249,-0.00587478 0.00538406,-0.00540981 0.00585147,-0.00490046 0.00627087,-0.0043509 0.00663883,-0.00376565 -0.526083,-0.657464 -0.188006,0.188006 0.146657,0.183283 0.028584,-0.000634836 0.0285302,0.00186389 0.0282584,0.00434838 0.0277707,0.00679963 0.0270708,0.00919893 0.026164,0.0115279 0.0250572,0.0137688 0.023759,0.0159045 0.0222793,0.0179187 0.0206293,0.0197959 0.0188216,0.0215219 0.0168702,0.0230834 0.0147898,0.0244685 0.0125964,0.0256667 0.0103067,0.0266687 0.00793831,0.0274669 0.00550924,0.0280552 0.00303807,0.0284291 0.000543679,0.0285858 -0.00195486,0.0285241 -0.00443847,0.0282444 -0.00688816,0.0277489 0.0772266,0.0965129 z "/>
<path fill="rgb(42,41,42)" stroke="rgb(42,41,42)" d="M 7.24006,9.25964 l 0.0700646,-0.0534128 0.0687904,-0.055044 0.0674784,-0.0566448 -0.125037,-0.156263 -0.0674047,0.0567354 -0.0687919,0.0550452 -0.0701367,0.0533211 0.125037,0.156263 z "/>
<path fill="rgb(42,41,42)" stroke="rgb(42,41,42)" d="M 6.39544,7.78113 l -0.119558,-0.149416 -0.0433441,0.0925774 -0.00148378,0.00295997 -0.00122216,0.00307724 -0.000951373,0.00317143 -0.000673455,0.00324184 -0.000390487,0.00328794 -0.000104592,0.0033094 0.000182088,0.00330604 0.000467402,0.00327789 0.000749212,0.00322517 0.0010254,0.00314827 0.00129391,0.00304776 0.00155271,0.0029244 0.00179987,0.00277912 0.00203354,0.002613 0.00225196,0.00242729 0.0024535,0.00222338 0.00263664,0.00200279 0.00280001,0.0017672 0.00294239,0.00151835 0.00306271,0.00125812 0.00316006,0.000988457 0.00323373,0.000711382 0.00328314,0.000428974 0.00330795,0.00014335 0.129492,0 z "/>
<path fill="rgb(42,41,42)" stroke="rgb(42,41,42)" d="M 2.80723,3.71978 l 0.437774,0.547101 0.0669347,-0.0573113 0.0688031,-0.0550542 0.0705955,-0.0527362 -0.437774,-0.547101 -0.0702175,0.0532184 -0.0687936,0.0550466 -0.0673222,0.0568367 z "/>
<path fill="rgb(42,41,42)" stroke="rgb(42,41,42)" d="M 4.71918,6.10921 l 0.377168,0.47136 0.188006,-0.188006 -0.377168,-0.47136 -0.188006,0.188006 z "/>
<path fill="rgb(42,41,42)" stroke="rgb(42,41,42)" d="M 5.28436,6.39257 l -0.188006,0.188006 0.125723,0.15712 0.188006,-0.188006 -0.125723,-0.15712 z "/>
<path fill="rgb(42,41,42)" stroke="rgb(42,41,42)" d="M 3.68346,4.81483 l 0.0504265,0.0630198 -0.0153548,-0.0221431 -0.0168352,-0.0210395 -0.0182365,-0.0198372 z "/>
<path fill="rgb(42,41,42)" stroke="rgb(42,41,42)" d="M 3.33839,3.1147 l -0.0781827,0.0427322 -0.0770856,0.0446809 -0.07594,0.0466014 0.125789,0.157203 0.0763953,-0.0460978 0.0775959,-0.0440469 0.0787414,-0.0419647 -0.127313,-0.159108 z "/>
<path fill="rgb(42,41,42)" stroke="rgb(42,41,42)" d="M 3.46571,3.27381 l -0.0787414,0.0419647 -0.0775959,0.0440469 -0.0763953,0.0460978 0.441266,0.551466 0.0785862,-0.0437242 0.0800246,-0.0410325 0.0813708,-0.0382935 -0.448515,-0.560526 z "/>
<path fill="rgb(42,41,42)" stroke="rgb(42,41,42)" d="M 6.73389,7.78113 l 0.0966679,0 0,-0.132522 -0.202708,0 0.10604,0.132522 z "/>
<path fill="rgb(42,41,42)" stroke="rgb(42,41,42)" d="M 7.5695,8.40246 l -0.448515,-0.560526 -0.0552067,0.0709916 -0.0575838,0.0690775 -0.0598945,0.0670839 0.441266,0.551466 0.0617299,-0.0644257 0.0599922,-0.0660469 0.058212,-0.0676212 z "/>
<path fill="rgb(42,41,42)" stroke="rgb(42,41,42)" d="M 6.57815,7.56876 l -0.00500832,-0.000259754 -0.00500373,-0.000336882 -0.00499794,-0.000413929 0.0135392,0.0169204 0.00147079,-0.0159099 z "/>
<path fill="rgb(42,41,42)" stroke="rgb(42,41,42)" d="M 6.37197,7.29607 l 0.00570424,0.019532 0.0074385,0.0189395 0.00911243,0.0181934 0.0107124,0.0172997 0.0212538,0.0265617 0.0141487,0.013904 0.0153138,0.0126092 0.0163609,0.0112173 0.0172818,0.00973888 0.0180695,0.00818537 0.0187178,0.00656875 0.0192219,0.00490149 0.0195777,0.00319643 0.0197827,0.00146674 0.0198351,-0.000274263 0.0197346,-0.00201315 0.0194819,-0.00373652 0.019079,-0.00543108 0.0185291,-0.00708377 0.0178362,-0.00868184 0.0170059,-0.010213 0.0160445,-0.0116654 0.0149593,-0.0130278 0.0137588,-0.0142899 -0.105705,-0.132103 -0.00129547,0.00406712 -0.00164422,0.00393907 -0.00198051,0.00378118 -0.0023018,0.00359464 -0.00260565,0.00338087 -0.00288976,0.00314149 -0.00315198,0.00287832 -0.00339033,0.00259334 -0.00360299,0.00228871 -0.00378836,0.00196674 -0.00394502,0.00162988 -0.00407181,0.00128067 -0.00416774,0.000921758 -0.00423211,0.000555862 -0.00426441,0.000185757 -0.235923,0 z "/>
<path fill="rgb(42,41,42)" stroke="rgb(42,41,42)" d="M 4.54944,5.05116 l 0.112624,0.14075 0.0418696,-0.082 0.00148207,-0.00309249 0.00121141,-0.00320819 0.000931833,-0.00330025 0.00064539,-0.00336801 0.000354191,-0.00341094 6.03833e-05,-0.00342875 -0.000233869,-0.0034213 -0.000526399,-0.00338864 -0.000815051,-0.00333102 -0.0010977,-0.00324885 -0.00137226,-0.00314275 -0.00163671,-0.0030135 -0.0018891,-0.00286204 -0.00212757,-0.0026895 -0.00235037,-0.00249715 -0.00255585,-0.00228639 -0.00274251,-0.0020588 -0.00290896,-0.00181603 -0.00305397,-0.00155989 -0.00317649,-0.00129225 -0.0032756,-0.00101509 -0.00335059,-0.000730454 -0.00340088,-0.000440436 -0.00342612,-0.000147174 -0.119239,0 z "/>
<path fill="rgb(42,41,42)" stroke="rgb(42,41,42)" d="M 6.37197,7.29607 l 0.235923,0 0.00426441,-0.000185757 0.00423211,-0.000555862 0.00416774,-0.000921758 0.00407181,-0.00128067 0.00394502,-0.00162988 0.00378836,-0.00196674 0.00360299,-0.00228871 0.00339033,-0.00259334 0.00315198,-0.00287832 0.00288976,-0.00314149 0.00260565,-0.00338087 0.0023018,-0.00359464 0.00198051,-0.00378118 0.00164422,-0.00393907 0.00129547,-0.00406712 -0.0495132,-0.0618784 -0.233742,0 0.00469344,-0.0189248 0.00631467,-0.0184472 0.00788846,-0.0178311 0.00940298,-0.017081 0.0108468,-0.0162025 0.0122092,-0.0152023 0.0134798,-0.0140879 0.0146492,-0.0128676 0.0157085,-0.0115507 0.0166498,-0.0101469 -0.0637112,-0.0796222 -0.0236463,0.0160953 -0.0221459,0.0181043 -0.0204753,0.0199742 -0.0186474,0.0216906 -0.0166762,0.0232403 -0.0145768,0.0246115 -0.0123654,0.0257935 -0.010059,0.0267773 -0.00767534,0.0275554 -0.00523266,0.0281217 -0.0013316,0 0.137668,0.172049 -0.0107124,-0.0172997 -0.00911243,-0.0181934 -0.0074385,-0.0189395 -0.00570424,-0.019532 z "/>
<path fill="rgb(42,41,42)" stroke="rgb(42,41,42)" d="M 0.905782,0.497542 l 2.0757,2.59408 0.0755365,-0.0470506 0.0766318,-0.0452449 0.0776838,-0.0434138 -1.96711,-2.45837 -0.338443,2.66454e-15 z "/>
<path fill="rgb(42,41,42)" stroke="rgb(42,41,42)" d="M 5.78609,6.17367 l -0.188006,0.188006 0.669188,0.836308 0.0013316,0 0.00523266,-0.0281217 0.00767534,-0.0275554 0.010059,-0.0267773 0.0123654,-0.0257935 0.0145768,-0.0246115 0.0166762,-0.0232403 0.0186474,-0.0216906 0.0204753,-0.0199742 0.0221459,-0.0181043 0.0236463,-0.0160953 -0.634014,-0.79235 z "/>
<path fill="rgb(42,41,42)" stroke="rgb(42,41,42)" d="M 9.51129,11.2522 l 0,-0.422964 -1.68743,-2.10884 -0.0593938,0.0662715 -0.0609496,0.0648435 -0.0624712,0.0633789 1.87024,2.33731 z "/>
<path fill="rgb(42,41,42)" stroke="rgb(42,41,42)" d="M 5.03212,5.23141 l -0.0637323,-0.0796485 -0.00665455,0.0274214 -0.00911687,0.0267039 -0.0115039,0.0257658 -0.0137959,0.0246149 -0.0159739,0.0232606 -0.0180199,0.0217141 -0.019917,0.0199882 -0.0216497,0.0180972 -0.0232034,0.0160567 -0.0245655,0.0138836 0.0520322,0.0650265 0.0307237,-0.0190267 0.02886,-0.0217498 0.0267558,-0.0242917 0.0244284,-0.026631 0.0197305,-0.0256719 0.0175429,-0.0272137 0.0152355,-0.0285695 0.0128239,-0.0297302 z "/>
<path fill="rgb(42,41,42)" stroke="rgb(42,41,42)" d="M 6.9916,7.68025 l -0.166886,-0.208563 -0.0199187,0.018644 -0.02141,0.0169105 -0.0227509,0.0150582 -0.023932,0.0131002 -0.0249449,0.0110501 -0.0257827,0.00892235 -0.0264393,0.00673195 -0.0269101,0.00449426 -0.027192,0.002225 -0.0272828,-5.98919e-05 -0.00147079,0.0159099 0.0511621,0.0639391 0.202708,0 0,0.132522 -0.0966679,0 0.0879173,0.109873 0.0591761,-0.0681511 0.0566257,-0.0702845 0.0539985,-0.0723226 z "/>
<path fill="rgb(42,41,42)" stroke="rgb(42,41,42)" d="M 4.0436,3.99602 l -0.0824043,0.0368227 -0.0809921,0.039833 -0.07947,0.0427892 0.570111,0.712488 0.0242339,-0.0242903 0.0262404,-0.0221075 0.0280509,-0.0197597 0.029652,-0.0172644 0.0310317,-0.0146401 0.0321797,-0.0119065 0.0330875,-0.00908405 0.0337482,-0.00619375 -0.565469,-0.706687 z "/>
<path fill="rgb(42,41,42)" stroke="rgb(42,41,42)" d="M 2.98149,3.09162 l 0.125699,0.157091 0.07594,-0.0466014 0.0770856,-0.0446809 0.0781827,-0.0427322 -0.127055,-0.158786 -0.0776838,0.0434138 -0.0766318,0.0452449 -0.0755365,0.0470506 z "/>
<path fill="rgb(42,41,42)" stroke="rgb(42,41,42)" d="M 4.60907,4.70271 l -0.0337482,0.00619375 -0.0330875,0.00908405 -0.0321797,0.0119065 -0.0310317,0.0146401 -0.029652,0.0172644 -0.0280509,0.0197597 -0.0262404,0.0221075 -0.0242339,0.0242903 0.052388,0.0654711 0.0182054,-0.0201155 0.0198907,-0.0184508 0.0214243,-0.0166454 0.0227945,-0.0147132 0.0239911,-0.0126688 0.0250047,-0.0105278 0.0258277,-0.0083066 0.0264538,-0.00602205 0.0268783,-0.00369159 0.0126719,-0.000919434 0.0126988,-0.000402025 0.0127047,0.000116052 -0.0627094,-0.0783702 z "/>
<path fill="rgb(42,41,42)" stroke="rgb(42,41,42)" d="M 5.03212,5.23141 l -0.0128239,0.0297302 -0.0152355,0.0285695 -0.0175429,0.0272137 -0.0197305,0.0256719 -0.0244284,0.026631 -0.0267558,0.0242917 -0.02886,0.0217498 -0.0307237,0.0190267 0.113452,0.141785 0.188006,-0.188006 -0.125357,-0.156664 z "/>
<path fill="rgb(42,41,42)" stroke="rgb(42,41,42)" d="M 4.67178,4.78108 l -0.0127047,-0.000116052 -0.0126988,0.000402025 -0.0126719,0.000919434 -0.0268783,0.00369159 -0.0264538,0.00602205 -0.0258277,0.0083066 -0.0250047,0.0105278 -0.0239911,0.0126688 -0.0227945,0.0147132 -0.0214243,0.0166454 -0.0198907,0.0184508 -0.0182054,0.0201155 0.126209,0.157728 0.119239,0 0.00342612,0.000147174 0.00340088,0.000440436 0.00335059,0.000730454 0.0032756,0.00101509 0.00317649,0.00129225 0.00305397,0.00155989 0.00290896,0.00181603 0.00274251,0.0020588 0.00255585,0.00228639 0.00235037,0.00249715 0.00212757,0.0026895 0.0018891,0.00286204 0.00163671,0.0030135 0.00137226,0.00314275 0.0010977,0.00324885 0.000815051,0.00333102 0.000526399,0.00338864 0.000233869,0.0034213 -6.03833e-05,0.00342875 -0.000354191,0.00341094 -0.00064539,0.00336801 -0.000931833,0.00330025 -0.00121141,0.00320819 -0.00148207,0.00309249 -0.0418696,0.082 0.141919,0.177362 0.0245655,-0.0138836 0.0232034,-0.0160567 0.0216497,-0.0180972 0.019917,-0.0199882 0.0180199,-0.0217141 0.0159739,-0.0232606 0.0137959,-0.0246149 0.0115039,-0.0257658 0.00911687,-0.0267039 0.00665455,-0.0274214 -0.296607,-0.370681 z "/>
<path fill="rgb(42,41,42)" stroke="rgb(42,41,42)" d="M 3.91422,3.83433 l -0.0813708,0.0382935 -0.0800246,0.0410325 -0.0785862,0.0437242 0.126495,0.158086 0.07947,-0.0427892 0.0809921,-0.039833 0.0824043,-0.0368227 -0.12938,-0.161691 z "/>
<path fill="rgb(42,41,42)" stroke="rgb(42,41,42)" d="M 7.69681,8.56157 l -0.127313,-0.159108 -0.058212,0.0676212 -0.0599922,0.0660469 -0.0617299,0.0644257 0.125789,0.157203 0.0621213,-0.0638711 0.0604988,-0.06541 0.0588382,-0.0669077 z "/>
<path fill="rgb(42,41,42)" stroke="rgb(42,41,42)" d="M 7.12098,7.84194 l -0.12938,-0.161691 -0.0539985,0.0723226 -0.0566257,0.0702845 -0.0591761,0.0681511 0.126495,0.158086 0.0598945,-0.0670839 0.0575838,-0.0690775 0.0552067,-0.0709916 z "/>
<path fill="rgb(42,41,42)" stroke="rgb(42,41,42)" d="M 5.15748,5.38807 l -0.188006,0.188006 0.125723,0.15712 0.188006,-0.188006 -0.125723,-0.15712 z "/>
<path fill="rgb(42,41,42)" stroke="rgb(42,41,42)" d="M 7.82387,8.72036 l -0.127055,-0.158786 -0.0588382,0.0669077 -0.0604988,0.06541 -0.0621213,0.0638711 0.125699,0.157091 0.0624712,-0.0633789 0.0609496,-0.0648435 0.0593938,-0.0662715 z "/>
<path fill="rgb(42,41,42)" stroke="rgb(42,41,42)" d="M 6.82472,7.47168 l -0.063784,-0.0797131 -0.0137588,0.0142899 -0.0149593,0.0130278 -0.0160445,0.0116654 -0.0170059,0.010213 -0.0178362,0.00868184 -0.0185291,0.00708377 -0.019079,0.00543108 -0.0194819,0.00373652 -0.0197346,0.00201315 -0.0198351,0.000274263 -0.0197827,-0.00146674 -0.0195777,-0.00319643 -0.0192219,-0.00490149 -0.0187178,-0.00656875 -0.0180695,-0.00818537 -0.0172818,-0.00973888 -0.0163609,-0.0112173 -0.0153138,-0.0126092 -0.0141487,-0.013904 0.13695,0.171151 0.00499794,0.000413929 0.00500373,0.000336882 0.00500832,0.000259754 0.0272828,5.98919e-05 0.027192,-0.002225 0.0269101,-0.00449426 0.0264393,-0.00673195 0.0257827,-0.00892235 0.0249449,-0.0110501 0.023932,-0.0131002 0.0227509,-0.0150582 0.02141,-0.0169105 0.0199187,-0.018644 z "/>
<path fill="rgb(42,41,42)" stroke="rgb(42,41,42)" d="M 6.48382,7.04565 l -0.0166498,0.0101469 -0.0157085,0.0115507 -0.0146492,0.0128676 -0.0134798,0.0140879 -0.0122092,0.0152023 -0.0108468,0.0162025 -0.00940298,0.017081 -0.00788846,0.0178311 -0.00631467,0.0184472 -0.00469344,0.0189248 0.233742,0 -0.121899,-0.152342 z "/>
<path fill="rgb(42,41,42)" stroke="rgb(42,41,42)" d="M 5.66037,6.01655 l -0.377168,-0.47136 -0.188006,0.188006 0.377168,0.47136 0.188006,-0.188006 z "/>
<path fill="rgb(42,41,42)" stroke="rgb(42,41,42)" d="M 5.66037,6.01655 l -0.188006,0.188006 0.125723,0.15712 0.188006,-0.188006 -0.125723,-0.15712 z "/>
<path fill="rgb(42,41,42)" stroke="rgb(42,41,42)" d="M 4.21745,6.3281 l -0.329997,-0.41241 0,-0.0186628 -0.0149334,0 -0.13162,-0.16449 0.338443,0 0.326114,0.407557 -0.188006,0.188006 z "/>
<path fill="rgb(42,41,42)" stroke="rgb(42,41,42)" d="M 3.01194,4.82153 l 0.00685357,-0.00949303 0.00689886,-0.00946016 0.00694399,-0.00942709 0.0640209,0.0512547 -0.0109865,0.0142984 -0.0103233,0.0147844 -0.00963867,0.0152396 -0.0537687,-0.0671967 z "/>
<path fill="rgb(42,41,42)" stroke="rgb(42,41,42)" d="M 5.25361,7.62304 l -0.0120289,-0.0150329 0.0303704,-0.065438 -0.0255596,-0.0102267 -0.0245772,-0.0124032 -0.0234099,-0.0144864 -0.0220664,-0.0164606 -0.0205569,-0.018311 -0.0188927,-0.0200236 -0.0170864,-0.0215855 -0.0151515,-0.022985 -0.0131027,-0.0242115 -0.0109552,-0.0252559 -0.00872528,-0.0261103 -0.00642973,-0.0267682 -0.00408581,-0.0272247 -0.00171114,-0.0274764 0.000676407,-0.0275213 0.00305886,-0.0273591 0.0054183,-0.0269911 0.00773697,-0.02642 0.00999743,-0.0256501 0.0121827,-0.0246873 0.0142762,-0.0235386 0.0162624,-0.0222129 0.0678873,0.0848411 -0.00961096,0.0171235 -0.00808098,0.0178964 -0.00648941,0.018533 -0.00484839,0.0190283 -0.00317043,0.0193787 -0.0014683,0.0195813 0.000245014,0.0196348 0.00195646,0.0195386 0.003653,0.0192935 0.0053217,0.0189014 0.00694985,0.0183653 0.00852503,0.0176892 0.0100353,0.0168783 0.011469,0.0159388 0.0128154,0.0148779 0.0140641,0.0137035 0.0152056,0.0124248 0.0162312,0.0110513 0.0171332,0.00959365 0.0179046,0.00806289 0.0185395,0.00647068 0.0190332,0.00482916 0.0193819,0.00315084 0.0195828,0.00144851 0.0196345,-0.000264857 0.0195366,-0.00197621 0.0192898,-0.0036725 -0.0368771,-0.0800826 0.315456,0.394236 -0.0330962,0 0.0477153,0.111329 0.00221344,0.00550703 0.00268912,0.00529107 0.00314396,0.00503411 0.00357444,0.00473815 0.00397724,0.00440549 0.00434922,0.00403869 0.0046875,0.00364061 0.00498947,0.00321432 0.00525279,0.00276314 0.00547541,0.00229054 0.00565562,0.0018002 0.00579201,0.00129591 0.00588352,0.000781585 0.00592946,0.000261203 0.0469065,0 0.056473,0.0705763 0,0.03015 -0.12989,0 -0.00958736,0.000458809 -0.00959026,-0.00039353 -0.00951753,-0.00124277 -0.00936976,-0.0020822 -0.00914809,-0.00290522 -0.00885429,-0.00370532 -0.00849067,-0.00447621 -0.00806009,-0.0052118 -0.00756595,-0.00590629 -0.00701215,-0.00655421 -0.00640306,-0.00715044 -0.00574347,-0.00769028 -0.00503859,-0.00816949 -0.00429398,-0.00858427 -0.185544,-0.41615 -0.06096,0.0105914 0,0.0795327 -0.0411095,-0.000518907 -0.0408692,-0.00446871 -0.0402503,-0.00837711 -0.0392585,-0.0122079 z "/>
<path fill="rgb(42,41,42)" stroke="rgb(42,41,42)" d="M 5.8437,7.93752 l -0.0469065,0 -0.00592946,-0.000261203 -0.00588352,-0.000781585 -0.00579201,-0.00129591 -0.00565562,-0.0018002 -0.00547541,-0.00229054 -0.00525279,-0.00276314 -0.00498947,-0.00321432 -0.0046875,-0.00364061 -0.00434922,-0.00403869 -0.00397724,-0.00440549 -0.00357444,-0.00473815 -0.00314396,-0.00503411 -0.00268912,-0.00529107 -0.00221344,-0.00550703 -0.0477153,-0.111329 0.0330962,0 0.125139,0.156391 z "/>
<path fill="rgb(42,41,42)" stroke="rgb(42,41,42)" d="M 3.54382,5.36835 l -0.0998605,-0.287822 -0.00100368,-0.00348953 -0.00130549,-0.0033882 -0.00159726,-0.00326082 -0.00187676,-0.00310837 -0.00214183,-0.00293203 -0.00239043,-0.00273314 -0.00262065,-0.00251324 -0.00283073,-0.00227402 -0.00301905,-0.00201732 -0.00318415,-0.00174511 -0.00332477,-0.00145948 -0.00343984,-0.00116263 -0.00352846,-0.000856846 -0.00358995,-0.000544473 -0.00362385,-0.000227914 -0.00362988,9.03979e-05 -0.00360801,0.000408014 -0.0035584,0.000722494 -0.00348143,0.00103142 -0.0033777,0.00133242 -0.00324801,0.00162317 -0.00309334,0.00190144 -0.00291489,0.0021651 -0.00271403,0.00241211 -0.0024923,0.00264057 -0.00225142,0.00284874 -0.00199323,0.00303501 -0.00171971,0.00319794 -0.00143297,0.00333629 -0.00113522,0.00344898 -0.000828734,0.00353517 -0.000515881,0.00359417 -0.000199062,0.00362555 0.000119287,0.00362905 0.00043672,0.00360465 0.000750794,0.00355254 0.0010591,0.00347311 0.100279,0.28363 -0.343144,-0.428839 0.0127955,-0.0240965 0.0148537,-0.0228852 0.0167981,-0.0214986 0.0186138,-0.0199473 0.0202868,-0.0182431 0.0218045,-0.0163991 0.023155,-0.0144295 0.0243282,-0.0123493 0.0253149,-0.0101746 0.0261077,-0.0079218 0.354079,0.442505 -0.0138324,0.0241494 -0.0159424,0.0228117 -0.0179239,0.0212901 -0.0197609,0.0195969 -0.0214387,0.0177458 -0.0229438,0.0157517 -0.0242639,0.0136306 z "/>
<path fill="rgb(42,41,42)" stroke="rgb(42,41,42)" d="M 8.75506,11.9989 l -1.96286,-2.45305 0.0776838,-0.0434138 0.0766318,-0.0452449 0.0755365,-0.0470506 2.07145,2.58876 -0.338443,0 z "/>
<path fill="rgb(42,41,42)" stroke="rgb(42,41,42)" d="M 6.7922,9.54586 l -0.127055,-0.158786 0.0781827,-0.0427322 0.0770856,-0.0446809 0.07594,-0.0466014 0.125699,0.157091 -0.0755365,0.0470506 -0.0766318,0.0452449 -0.0776838,0.0434138 z "/>
<path fill="rgb(42,41,42)" stroke="rgb(42,41,42)" d="M 2.43404,4.09932 l 0.058212,-0.0676212 0.0599922,-0.0660469 0.0617299,-0.0644257 0.441266,0.551466 -0.0598945,0.0670839 -0.0575838,0.0690775 -0.0552067,0.0709916 -0.448515,-0.560526 z "/>
<path fill="rgb(42,41,42)" stroke="rgb(42,41,42)" d="M 3.54382,5.36835 l 0.0242639,-0.0136306 0.0229438,-0.0157517 0.0214387,-0.0177458 0.0197609,-0.0195969 0.0179239,-0.0212901 0.0159424,-0.0228117 0.0138324,-0.0241494 0.0556241,0.0695154 -0.0210428,0.0300878 -0.0237441,0.0280052 -0.0262405,0.0256809 -0.0285105,0.023135 -0.0305344,0.0203894 -0.0322947,0.0174678 0.0411225,0.120416 0.176819,-0.195729 0.0522364,0.0652816 -0.179046,0.199204 -0.199381,-0.249174 -0.100279,-0.28363 -0.0010591,-0.00347311 -0.000750794,-0.00355254 -0.00043672,-0.00360465 -0.000119287,-0.00362905 0.000199062,-0.00362555 0.000515881,-0.00359417 0.000828734,-0.00353517 0.00113522,-0.00344898 0.00143297,-0.00333629 0.00171971,-0.00319794 0.00199323,-0.00303501 0.00225142,-0.00284874 0.0024923,-0.00264057 0.00271403,-0.00241211 0.00291489,-0.0021651 0.00309334,-0.00190144 0.00324801,-0.00162317 0.0033777,-0.00133242 0.00348143,-0.00103142 0.0035584,-0.000722494 0.00360801,-0.000408014 0.00362988,-9.03979e-05 0.00362385,0.000227914 0.00358995,0.000544473 0.00352846,0.000856846 0.00343984,0.00116263 0.00332477,0.00145948 0.00318415,0.00174511 0.00301905,0.00201732 0.00283073,0.00227402 0.00262065,0.00251324 0.00239043,0.00273314 0.00214183,0.00293203 0.00187676,0.00310837 0.00159726,0.00326082 0.00130549,0.0033882 0.00100368,0.00348953 0.0998605,0.287822 z "/>
<path fill="rgb(42,41,42)" stroke="rgb(42,41,42)" d="M 2.17967,3.78142 l 0.0593938,-0.0662715 0.0609496,-0.0648435 0.0624712,-0.0633789 0.125699,0.157091 -0.0621213,0.0638711 -0.0604988,0.06541 -0.0588382,0.0669077 -0.127055,-0.158786 z "/>
<path fill="rgb(42,41,42)" stroke="rgb(42,41,42)" d="M 3.66431,5.63683 l 0.179046,-0.199204 0.172542,0.215632 -0.338443,0 -0.0131457,-0.0164286 z "/>
<path fill="rgb(42,41,42)" stroke="rgb(42,41,42)" d="M 2.30673,3.94021 l 0.0588382,-0.0669077 0.0604988,-0.06541 0.0621213,-0.0638711 0.125789,0.157203 -0.0617299,0.0644257 -0.0599922,0.0660469 -0.058212,0.0676212 -0.127313,-0.159108 z "/>
<path fill="rgb(42,41,42)" stroke="rgb(42,41,42)" d="M 4.84606,7.1137 l -0.125723,-0.15712 0.188006,-0.188006 0.125723,0.15712 -0.188006,0.188006 z "/>
<path fill="rgb(42,41,42)" stroke="rgb(42,41,42)" d="M 4.07934,5.73254 l -0.338443,0 -0.0634385,-0.0792813 0.338443,0 0.0634385,0.0792813 z "/>
<path fill="rgb(42,41,42)" stroke="rgb(42,41,42)" d="M 3.03263,4.79315 l 0.0477433,-0.0623761 0.0497183,-0.0608135 0.0516423,-0.0591884 0.0880593,0.110051 -0.0314235,0.0128962 -0.0301933,0.0155598 -0.028738,0.0181073 -0.0270682,0.0205197 -0.0198219,0.0175736 -0.0186009,0.0188612 -0.0172965,0.0200641 -0.0640209,-0.0512547 z "/>
<path fill="rgb(42,41,42)" stroke="rgb(42,41,42)" d="M 3.0657,4.88873 l 0.00963867,-0.0152396 0.0103233,-0.0147844 0.0109865,-0.0142984 0.0172965,-0.0200641 0.0186009,-0.0188612 0.0198219,-0.0175736 0.0270682,-0.0205197 0.028738,-0.0181073 0.0301933,-0.0155598 0.0314235,-0.0128962 0.0560506,0.0700485 -0.0261077,0.0079218 -0.0253149,0.0101746 -0.0243282,0.0123493 -0.023155,0.0144295 -0.0218045,0.0163991 -0.0202868,0.0182431 -0.0186138,0.0199473 -0.0167981,0.0214986 -0.0148537,0.0228852 -0.0127955,0.0240965 -0.0560834,-0.0700894 z "/>
<path fill="rgb(42,41,42)" stroke="rgb(42,41,42)" d="M 5.19714,7.1295 l 0.205962,0.257398 0.0368771,0.0800826 -0.0192898,0.0036725 -0.0195366,0.00197621 -0.0196345,0.000264857 -0.0195828,-0.00144851 -0.0193819,-0.00315084 -0.0190332,-0.00482916 -0.0185395,-0.00647068 -0.0179046,-0.00806289 -0.0171332,-0.00959365 -0.0162312,-0.0110513 -0.0152056,-0.0124248 -0.0140641,-0.0137035 -0.0128154,-0.0148779 -0.011469,-0.0159388 -0.0100353,-0.0168783 -0.00852503,-0.0176892 -0.00694985,-0.0183653 -0.0053217,-0.0189014 -0.003653,-0.0192935 -0.00195646,-0.0195386 -0.000245014,-0.0196348 0.0014683,-0.0195813 0.00317043,-0.0193787 0.00484839,-0.0190283 0.00648941,-0.018533 0.00808098,-0.0178964 0.00961096,-0.0171235 z "/>
<path fill="rgb(42,41,42)" stroke="rgb(42,41,42)" d="M 5.24158,7.608 l -0.395523,-0.494299 0.188006,-0.188006 0.0951861,0.118957 -0.0162624,0.0222129 -0.0142762,0.0235386 -0.0121827,0.0246873 -0.00999743,0.0256501 -0.00773697,0.02642 -0.0054183,0.0269911 -0.00305886,0.0273591 -0.000676407,0.0275213 0.00171114,0.0274764 0.00408581,0.0272247 0.00642973,0.0267682 0.00872528,0.0261103 0.0109552,0.0252559 0.0131027,0.0242115 0.0151515,0.022985 0.0170864,0.0215855 0.0188927,0.0200236 0.0205569,0.018311 0.0220664,0.0164606 0.0234099,0.0144864 0.0245772,0.0124032 0.0255596,0.0102267 -0.0303704,0.065438 z "/>
<path fill="rgb(42,41,42)" stroke="rgb(42,41,42)" d="M 3.88745,5.91569 l -0.0149334,-0.0186628 0.0149334,0 0,0.0186628 z "/>
<path fill="rgb(42,41,42)" stroke="rgb(42,41,42)" d="M 4.34317,6.48522 l 0.188006,-0.188006 0.377168,0.47136 -0.188006,0.188006 -0.377168,-0.47136 z "/>
<path fill="rgb(42,41,42)" stroke="rgb(42,41,42)" d="M 3.73555,5.30289 l 0.055574,0.0694529 -0.176819,0.195729 -0.0411225,-0.120416 0.0322947,-0.0174678 0.0305344,-0.0203894 0.0285105,-0.023135 0.0262405,-0.0256809 0.0237441,-0.0280052 0.0210428,-0.0300878 z "/>
<path fill="rgb(42,41,42)" stroke="rgb(42,41,42)" d="M 4.34317,6.48522 l -0.125723,-0.15712 0.188006,-0.188006 0.125723,0.15712 -0.188006,0.188006 z "/>
<path fill="rgb(42,41,42)" stroke="rgb(42,41,42)" d="M 2.88256,4.65984 l 0.0552067,-0.0709916 0.0575838,-0.0690775 0.0598945,-0.0670839 0.126495,0.158086 -0.0516423,0.0591884 -0.0497183,0.0608135 -0.0477433,0.0623761 -0.00694399,0.00942709 -0.00689886,0.00946016 -0.00685357,0.00949303 -0.12938,-0.161691 z "/>
<path fill="rgb(42,41,42)" stroke="rgb(42,41,42)" d="M 6.53783,9.22797 l -0.448515,-0.560526 0.0813708,-0.0382935 0.0800246,-0.0410325 0.0785862,-0.0437242 0.441266,0.551466 -0.0763953,0.0460978 -0.0775959,0.0440469 -0.0787414,0.0419647 z "/>
<path fill="rgb(42,41,42)" stroke="rgb(42,41,42)" d="M 6.08932,8.66745 l -0.12938,-0.161691 0.0824043,-0.0368227 0.0809921,-0.039833 0.07947,-0.0427892 0.126495,0.158086 -0.0785862,0.0437242 -0.0800246,0.0410325 -0.0813708,0.0382935 z "/>
<path fill="rgb(42,41,42)" stroke="rgb(42,41,42)" d="M 6.66514,9.38708 l -0.127313,-0.159108 0.0787414,-0.0419647 0.0775959,-0.0440469 0.0763953,-0.0460978 0.125789,0.157203 -0.07594,0.0466014 -0.0770856,0.0446809 -0.0781827,0.0427322 z "/>
<path fill="rgb(42,41,42)" stroke="rgb(42,41,42)" d="M 5.95994,8.50575 l -0.706324,-0.882718 0.0392585,0.0122079 0.0402503,0.00837711 0.0408692,0.00446871 0.0411095,0.000518907 0,-0.0795327 0.06096,-0.0105914 0.185544,0.41615 0.00429398,0.00858427 0.00503859,0.00816949 0.00574347,0.00769028 0.00640306,0.00715044 0.00701215,0.00655421 0.00756595,0.00590629 0.00806009,0.0052118 0.00849067,0.00447621 0.00885429,0.00370532 0.00914809,0.00290522 0.00936976,0.0020822 0.00951753,0.00124277 0.00959026,0.00039353 0.00958736,-0.000458809 0.12989,0 0,-0.03015 0.302633,0.378211 -0.07947,0.0427892 -0.0809921,0.039833 -0.0824043,0.0368227 z "/>
<path fill="rgb(42,41,42)" stroke="rgb(42,41,42)" d="M 0.508116,1.26946 l 1.85437,2.31747 -0.0624712,0.0633789 -0.0609496,0.0648435 -0.0593938,0.0662715 -1.67156,-2.089 0,-0.422964 z "/>
<path fill="rgb(42,41,42)" stroke="rgb(42,41,42)" d="M 9.51129,11.2522 l 0,-0.422964 1.77636e-15,-4.57831 0.2625,-8.88178e-16 -1.77636e-15,5.48553 -0.00199778,0.0457568 -0.00597815,0.0454085 -0.00991301,0.0447147 -0.0137724,0.0436806 -0.017527,0.042314 -0.0211483,0.0406254 -0.0246085,0.0386276 -0.0278815,0.0363359 -0.0309423,0.0337676 -0.0337676,0.0309423 -0.0363359,0.0278815 -0.0386276,0.0246085 -0.0406254,0.0211483 -0.042314,0.017527 -0.0436806,0.0137724 -0.0447147,0.00991301 -0.0454085,0.00597815 -0.0457568,0.00199778 -8.47818,-1.06581e-14 -0.0457568,-0.00199778 -0.0454085,-0.00597815 -0.0447147,-0.00991301 -0.0436806,-0.0137724 -0.042314,-0.017527 -0.0406254,-0.0211483 -0.0386276,-0.0246085 -0.0363359,-0.0278815 -0.0337676,-0.0309423 -0.0309423,-0.0337676 -0.0278815,-0.0363359 -0.0246085,-0.0386276 -0.0211483,-0.0406254 -0.017527,-0.042314 -0.0137724,-0.0436806 -0.00991301,-0.0447147 -0.00597815,-0.0454085 -0.00199778,-0.0457568 0,-5.48553 0.2625,8.88178e-16 0,5.48553 0.000998892,0.0228784 0.00298907,0.0227043 0.00495651,0.0223574 0.00688622,0.0218403 0.00876352,0.021157 0.0105741,0.0203127 0.0123043,0.0193138 0.0139407,0.0181679 0.0154711,0.0168838 0.0168838,0.0154711 0.0181679,0.0139407 0.0193138,0.0123043 0.0203127,0.0105741 0.021157,0.00876352 0.0218403,0.00688622 0.0223574,0.00495651 0.0227043,0.00298907 0.0228784,0.000998892 7.98444,7.10543e-15 0.338443,0 0.155294,1.77636e-15 0.0222765,-0.000946935 0.0221158,-0.00283397 0.0217955,-0.00470057 0.021318,-0.00653324 0.0206867,-0.00831879 0.0199061,-0.0100443 0.0189819,-0.0116974 0.0186884,-0.0138888 0.0173841,-0.0154902 0.0159431,-0.0169698 0.0143766,-0.0183158 0.012697,-0.0195177 0.0109175,-0.0205661 0.00905205,-0.0214526 0.00711543,-0.0221704 0.00512282,-0.0227137 0.0030899,-0.0230783 0.00103268,-0.0232613 0,-0.0612952 0,-0.422964 z "/>
<path fill="rgb(42,41,42)" stroke="rgb(42,41,42)" d="M 0.508116,1.26946 l 0,0.422964 0,4.55847 -0.2625,-8.88178e-16 0,-5.49085 0.00199778,-0.0457568 0.00597815,-0.0454085 0.00991301,-0.0447147 0.0137724,-0.0436806 0.017527,-0.042314 0.0211483,-0.0406254 0.0246085,-0.0386276 0.0278815,-0.0363359 0.0309423,-0.0337676 0.0337676,-0.0309423 0.0363359,-0.0278815 0.0386276,-0.0246085 0.0406254,-0.0211483 0.042314,-0.017527 0.0436806,-0.0137724 0.0447147,-0.00991301 0.0454085,-0.00597815 0.0457568,-0.00199778 8.47818,7.99361e-15 0.0457568,0.00199778 0.0454085,0.00597815 0.0447147,0.00991301 0.0436806,0.0137724 0.042314,0.017527 0.0406254,0.0211483 0.0386276,0.0246085 0.0363359,0.0278815 0.0337676,0.0309423 0.0309423,0.0337676 0.0278815,0.0363359 0.0246085,0.0386276 0.0211483,0.0406254 0.017527,0.042314 0.0137724,0.0436806 0.00991301,0.0447147 0.00597815,0.0454085 0.00199778,0.0457568 0,5.49085 -0.2625,8.88178e-16 -1.77636e-15,-5.49085 -0.000998892,-0.0228784 -0.00298907,-0.0227043 -0.00495651,-0.0223574 -0.00688622,-0.0218403 -0.00876352,-0.021157 -0.0105741,-0.0203127 -0.0123043,-0.0193138 -0.0139407,-0.0181679 -0.0154711,-0.0168838 -0.0168838,-0.0154711 -0.0181679,-0.0139407 -0.0193138,-0.0123043 -0.0203127,-0.0105741 -0.021157,-0.00876352 -0.0218403,-0.00688622 -0.0223574,-0.00495651 -0.0227043,-0.00298907 -0.0228784,-0.000998892 -8.00457,-9.76996e-15 -0.338443,2.66454e-15 -0.135165,-1.77636e-15 -0.0214588,0.000878579 -0.0213152,0.00262986 -0.0210289,0.00436353 -0.0206018,0.00606799 -0.0200368,0.00773184 -0.0193377,0.00934393 -0.0185091,0.0108935 -0.0175566,0.0123701 -0.0183778,0.0154957 -0.0168832,0.0171119 -0.015247,0.0185847 -0.0134829,0.0199015 -0.0116058,0.0210515 -0.00963136,0.0220249 -0.00757613,0.0228137 -0.00545736,0.0234111 -0.00329283,0.0238121 -0.00110069,0.0240135 0,0.0864512 0,0.422964 z "/>
</g></g></svg>
