<?xml version="1.0" encoding="UTF-8" standalone="no"?>
<!DOCTYPE svg PUBLIC "-//W3C//DTD SVG 1.1//EN" "http://www.w3.org/Graphics/SVG/1.1/DTD/svg11-flat.dtd"
[

]>
<svg xmlns="http://www.w3.org/2000/svg"  viewBox="-0.0891147 -0.0891147 7.30741 7.30741"><g fill="none" stroke="black" stroke-width="0.0125" transform="translate(0,7.12918) scale(1, -1)">
<g id="Output" >
<path fill="rgb(241,240,234)" stroke="rgb(241,240,234)" d="M 3.4423,2.1 l 0.152127,0 0,0.333866 -0.152127,-0.333866 z M 3.22677,2.1 l 0.198392,0.677959 -0.0532916,0.322041 -0.113962,0 -0.333025,-0.264196 -0.0722938,0.0578209 0.201163,0.206375 -0.459327,0 0,-1 0.632345,0 z "/>
<path fill="rgb(241,240,234)" stroke="rgb(241,240,234)" d="M 3.09443,4.1 l 0.5,0 0,0.88065 -0.0298374,0.0596748 -0.470163,-0.940325 z "/>
<path fill="rgb(241,240,234)" stroke="rgb(241,240,234)" d="M 4.59443,1.1 l 0,1 -0.613966,0 0.219696,-0.496085 -0.0896612,-0.0809775 -0.35568,0.558112 -0.00707108,0.0189506 -0.153318,0 0,-1 1,0 z "/>
<path fill="rgb(241,240,234)" stroke="rgb(241,240,234)" d="M 3.74775,2.1 l -0.137516,0.368546 -0.0158017,-0.0346794 0,-0.333866 0.153318,0 z M 4.53475,3.1 l -0.488753,0 0.0211249,-0.353857 -0.0954268,-4.44089e-16 -0.0607155,0.34123 -0.0157829,0.012627 -0.0854331,0 0,-0.324935 0.121454,-0.563877 0.0492405,-0.111188 0.613966,0 0,0.88065 -0.0596748,0.11935 z "/>
<path fill="rgb(241,240,234)" stroke="rgb(241,240,234)" d="M 3.22677,2.1 l -0.632345,0 0,-1 0.970163,0 0.0298374,0 0,1 -0.152127,0 -0.262939,-0.577062 -0.121454,0 0.168866,0.577062 z "/>
<path fill="rgb(241,240,234)" stroke="rgb(241,240,234)" d="M 2.09443,2.1 l 0.5,0 0,1 -0.5,-1 z "/>
<path fill="rgb(241,240,234)" stroke="rgb(241,240,234)" d="M 3.8952,3.1 l -0.0854331,0.0683504 0,-0.0683504 0.0854331,0 z M 4.53475,3.1 l -0.5,1 -0.440325,0 0,-0.145828 0.0127802,-0.0028333 0.0157588,-0.00496874 0.0152658,-0.0063233 0.0146566,-0.00762974 0.0139358,-0.00887811 0.013109,-0.0100589 0.0121825,-0.0111632 0.0111632,-0.0121825 0.0100589,-0.013109 0.00887811,-0.0139358 0.00762974,-0.0146566 0.0063233,-0.0152658 0.00496874,-0.0157588 0.00357636,-0.0161319 0.00215676,-0.0163822 0.000720748,-0.0165079 -0.000720748,-0.0165079 -0.00215676,-0.0163822 -0.00357636,-0.0161319 -0.00496874,-0.0157588 -0.0063233,-0.0152658 -0.00762974,-0.0146566 -0.00887811,-0.0139358 -0.0100589,-0.013109 -0.0111632,-0.0121825 -0.0121825,-0.0111632 -0.013109,-0.0100589 -0.0139358,-0.00887811 -0.0146566,-0.00762974 -0.0152658,-0.0063233 -0.0157588,-0.00496874 -0.0127802,-0.0028333 0,-0.0463172 0.00247793,-8.71512e-05 0.0203834,-0.00251733 0.0200845,-0.0042934 0.0196311,-0.00603645 0.0190268,-0.00773308 0.0182762,-0.00937025 0.017385,-0.0109354 0.0163601,-0.0124164 0.0152094,-0.0138019 0.30073,-0.335453 0.00200821,-0.0336391 0.488753,0 z "/>
<path fill="rgb(241,240,234)" stroke="rgb(241,240,234)" d="M 3.59443,3.95417 l 0,0.145828 -0.5,0 -0.5,-1 0.459327,0 0.356949,0.366197 0.0149669,0.0140646 0.0161415,0.0126993 0.017192,0.0112363 0.0181103,0.00968696 0.0188893,0.0080631 0.0195231,0.00637725 0.0200067,0.00464235 0.0203365,0.00287175 0.0205099,0.00107907 0.0180476,-0.000634752 0,0.0463172 -0.0033517,-0.000743053 -0.0163822,-0.00215676 -0.0165079,-0.000720748 -0.0165079,0.000720748 -0.0163822,0.00215676 -0.0161319,0.00357636 -0.0157588,0.00496874 -0.0152658,0.0063233 -0.0146566,0.00762974 -0.0139358,0.00887811 -0.013109,0.0100589 -0.0121825,0.0111632 -0.0111632,0.0121825 -0.0100589,0.013109 -0.00887811,0.0139358 -0.00762974,0.0146566 -0.0063233,0.0152658 -0.00496874,0.0157588 -0.00357636,0.0161319 -0.00215676,0.0163822 -0.000720748,0.0165079 0.000720748,0.0165079 0.00215676,0.0163822 0.00357636,0.0161319 0.00496874,0.0157588 0.0063233,0.0152658 0.00762974,0.0146566 0.00887811,0.0139358 0.0100589,0.013109 0.0111632,0.0121825 0.0121825,0.0111632 0.013109,0.0100589 0.0139358,0.00887811 0.0146566,0.00762974 0.0152658,0.0063233 0.0157588,0.00496874 0.0161319,0.00357636 0.0163822,0.00215676 0.0165079,0.000720748 0.0165079,-0.000720748 0.0163822,-0.00215676 0.0033517,-0.000743053 z M 3.37187,3.1 l -0.0132247,0.079917 -0.100737,-0.079917 0.113962,0 z "/>
<path fill="rgb(241,240,234)" stroke="rgb(241,240,234)" d="M 4.59443,2.1 l 0.440325,0 -0.440325,0.88065 0,-0.88065 z "/>
<path fill="rgb(241,240,234)" stroke="rgb(241,240,234)" d="M 4.59443,2.1 l 0,-1 0.940325,4.44089e-16 -0.5,1 -0.440325,0 z "/>
<path fill="rgb(241,240,234)" stroke="rgb(241,240,234)" d="M 2.59443,1.1 l 0,1 -0.5,0 -0.5,-1 1,-4.44089e-16 z "/>
<path fill="rgb(241,240,234)" stroke="rgb(241,240,234)" d="M 3.59443,4.1 l 0.440325,0 -0.440325,0.88065 0,-0.88065 z "/>
<path fill="rgb(241,240,234)" stroke="rgb(241,240,234)" d="M 3.56459,0.2 l 3.26459,0 0.00883388,0.000390951 0.00876481,0.0011698 0.0086272,0.0019395 0.00842214,0.00269403 0.00815123,0.0034275 0.00781658,0.00413417 0.00742081,0.00480851 0.00696702,0.00544526 0.00645876,0.00603943 0.00589999,0.00658638 0.00529509,0.00708183 0.00464879,0.0075219 0.00396614,0.00790316 0.00325248,0.00822263 0.00251339,0.0084778 0.00175464,0.00866669 0.000982177,0.00878781 0.000202033,0.00884022 -0.000579691,0.0088235 -0.00135688,0.0087378 -0.00212346,0.00858377 -0.00287344,0.00836263 -0.00360095,0.0080761 -3.26459,6.52918 -0.00412828,0.00744612 -0.0047467,0.00706797 -0.00533072,0.00663859 -0.00587609,0.00616109 -0.00637887,0.00563892 -0.00683541,0.00507588 -0.0072424,0.00447605 -0.0075969,0.00384377 -0.00789632,0.00318363 -0.00813851,0.00250041 -0.00832171,0.00179907 -0.00844458,0.00108468 -0.00850624,0.000362437 0,-0.323607 3.10279,-6.20557 -3.10279,2.66454e-15 0,-0.2 z "/>
<path fill="rgb(241,240,234)" stroke="rgb(241,240,234)" d="M 3.56459,0.2 l 0,0.2 -3.10279,0 3.10279,6.20557 0,0.323607 -0.00850624,-0.000362437 -0.00844458,-0.00108468 -0.00832171,-0.00179907 -0.00813851,-0.00250041 -0.00789632,-0.00318363 -0.0075969,-0.00384377 -0.0072424,-0.00447605 -0.00683541,-0.00507588 -0.00637887,-0.00563892 -0.00587609,-0.00616109 -0.00533072,-0.00663859 -0.0047467,-0.00706797 -0.00412828,-0.00744612 -3.26459,-6.52918 -0.00360095,-0.0080761 -0.00287344,-0.00836263 -0.00212346,-0.00858377 -0.00135688,-0.0087378 -0.000579691,-0.0088235 0.000202033,-0.00884022 0.000982177,-0.00878781 0.00175464,-0.00866669 0.00251339,-0.0084778 0.00325248,-0.00822263 0.00396614,-0.00790316 0.00464879,-0.0075219 0.00529509,-0.00708183 0.00589999,-0.00658638 0.00645876,-0.00603943 0.00696702,-0.00544526 0.00742081,-0.00480851 0.00781658,-0.00413417 0.00815123,-0.0034275 0.00842214,-0.00269403 0.0086272,-0.0019395 0.00876481,-0.0011698 0.00883388,-0.000390951 3.26459,-8.88178e-16 z "/>
<path fill="rgb(42,41,42)" stroke="rgb(42,41,42)" d="M 4.20016,1.60392 l -0.268937,0.607272 -0.121454,0.563877 0,0.393286 0.101216,-0.0809775 0.0607155,-0.34123 0.0954268,4.44089e-16 -0.0231331,0.387496 -0.30073,0.335453 -0.0152094,0.0138019 -0.0163601,0.0124164 -0.017385,0.0109354 -0.0182762,0.00937025 -0.0190268,0.00773308 -0.0196311,0.00603645 -0.0200845,0.0042934 -0.0203834,0.00251733 -0.0205256,0.000721904 -0.0205099,-0.00107907 -0.0203365,-0.00287175 -0.0200067,-0.00464235 -0.0195231,-0.00637725 -0.0188893,-0.0080631 -0.0181103,-0.00968696 -0.017192,-0.0112363 -0.0161415,-0.0126993 -0.0149669,-0.0140646 -0.558112,-0.572573 0.0722938,-0.0578209 0.433763,0.344113 0.0665164,-0.401958 -0.367258,-1.25502 0.121454,0 0.430868,0.945608 0.144588,-0.387496 0.35568,-0.558112 0.0896612,0.0809775 z "/>
<path fill="rgb(42,41,42)" stroke="rgb(42,41,42)" d="M 3.36878,3.76839 l 0.000720748,-0.0165079 0.00215676,-0.0163822 0.00357636,-0.0161319 0.00496874,-0.0157588 0.0063233,-0.0152658 0.00762974,-0.0146566 0.00887811,-0.0139358 0.0100589,-0.013109 0.0111632,-0.0121825 0.0121825,-0.0111632 0.013109,-0.0100589 0.0139358,-0.00887811 0.0146566,-0.00762974 0.0152658,-0.0063233 0.0157588,-0.00496874 0.0161319,-0.00357636 0.0163822,-0.00215676 0.0165079,-0.000720748 0.0165079,0.000720748 0.0163822,0.00215676 0.0161319,0.00357636 0.0157588,0.00496874 0.0152658,0.0063233 0.0146566,0.00762974 0.0139358,0.00887811 0.013109,0.0100589 0.0121825,0.0111632 0.0111632,0.0121825 0.0100589,0.013109 0.00887811,0.0139358 0.00762974,0.0146566 0.0063233,0.0152658 0.00496874,0.0157588 0.00357636,0.0161319 0.00215676,0.0163822 0.000720748,0.0165079 -0.000720749,-0.0165079 -0.00215676,-0.0163822 -0.00357636,-0.0161319 -0.00496874,-0.0157588 -0.0063233,-0.0152658 -0.00762974,-0.0146566 -0.00887811,-0.0139358 -0.0100589,-0.013109 -0.0111632,-0.0121825 -0.0121825,-0.0111632 -0.013109,-0.0100589 -0.0139358,-0.00887811 -0.0146566,-0.00762974 -0.0152658,-0.0063233 -0.0157588,-0.00496874 -0.0161319,-0.00357636 -0.0163822,-0.00215676 -0.0165079,-0.000720748 -0.0165079,0.000720748 -0.0163822,0.00215676 -0.0161319,0.00357636 -0.0157588,0.00496874 -0.0152658,0.0063233 -0.0146566,0.00762974 -0.0139358,0.00887811 -0.013109,0.0100589 -0.0121825,0.0111632 -0.0111632,0.0121825 -0.0100589,0.013109 -0.00887811,0.0139358 -0.00762974,0.0146566 -0.0063233,0.0152658 -0.00496874,0.0157588 -0.00357636,0.0161319 -0.00215676,0.0163822 -0.000720749,0.0165079 z "/>
<path fill="rgb(42,41,42)" stroke="rgb(42,41,42)" d="M 3.36878,3.76839 l 0.000720749,-0.0165079 0.00215676,-0.0163822 0.00357636,-0.0161319 0.00496874,-0.0157588 0.0063233,-0.0152658 0.00762974,-0.0146566 0.00887811,-0.0139358 0.0100589,-0.013109 0.0111632,-0.0121825 0.0121825,-0.0111632 0.013109,-0.0100589 0.0139358,-0.00887811 0.0146566,-0.00762974 0.0152658,-0.0063233 0.0157588,-0.00496874 0.0161319,-0.00357636 0.0163822,-0.00215676 0.0165079,-0.000720748 0.0165079,0.000720748 0.0163822,0.00215676 0.0161319,0.00357636 0.0157588,0.00496874 0.0152658,0.0063233 0.0146566,0.00762974 0.0139358,0.00887811 0.013109,0.0100589 0.0121825,0.0111632 0.0111632,0.0121825 0.0100589,0.013109 0.00887811,0.0139358 0.00762974,0.0146566 0.0063233,0.0152658 0.00496874,0.0157588 0.00357636,0.0161319 0.00215676,0.0163822 0.000720749,0.0165079 -0.000720748,0.0165079 -0.00215676,0.0163822 -0.00357636,0.0161319 -0.00496874,0.0157588 -0.0063233,0.0152658 -0.00762974,0.0146566 -0.00887811,0.0139358 -0.0100589,0.013109 -0.0111632,0.0121825 -0.0121825,0.0111632 -0.013109,0.0100589 -0.0139358,0.00887811 -0.0146566,0.00762974 -0.0152658,0.0063233 -0.0157588,0.00496874 -0.0161319,0.00357636 -0.0163822,0.00215676 -0.0165079,0.000720748 -0.0165079,-0.000720748 -0.0163822,-0.00215676 -0.0161319,-0.00357636 -0.0157588,-0.00496874 -0.0152658,-0.0063233 -0.0146566,-0.00762974 -0.0139358,-0.00887811 -0.013109,-0.0100589 -0.0121825,-0.0111632 -0.0111632,-0.0121825 -0.0100589,-0.013109 -0.00887811,-0.0139358 -0.00762974,-0.0146566 -0.0063233,-0.0152658 -0.00496874,-0.0157588 -0.00357636,-0.0161319 -0.00215676,-0.0163822 -0.000720748,-0.0165079 z "/>
<path fill="rgb(187,30,16)" stroke="rgb(187,30,16)" d="M 3.56459,5.04033 l 1.97016,-3.94033 -1.97016,-4.44089e-16 0,-0.7 3.10279,-2.66454e-15 -3.10279,6.20557 0,-1.56525 z "/>
<path fill="rgb(187,30,16)" stroke="rgb(187,30,16)" d="M 3.56459,0.2 l 0,-0.2 3.26459,-1.77636e-15 0.0265016,0.00117285 0.0262944,0.00350939 0.0258816,0.00581849 0.0252664,0.00808209 0.0244537,0.0102825 0.0234497,0.0124025 0.0222624,0.0144255 0.0209011,0.0163358 0.0193763,0.0181183 0.0177,0.0197591 0.0158853,0.0212455 0.0139464,0.0225657 0.0118984,0.0237095 0.00975744,0.0246679 0.00754016,0.0254334 0.00526392,0.0260001 0.00294653,0.0263634 0.000606098,0.0265207 -0.00173907,0.0264705 -0.00407065,0.0262134 -0.00637039,0.0257513 -0.00862033,0.0250879 -0.0108029,0.0242283 -3.26459,6.52918 -0.0123848,0.0223384 -0.0142401,0.0212039 -0.0159921,0.0199158 -0.0176283,0.0184833 -0.0191366,0.0169168 -0.0205062,0.0152277 -0.0217272,0.0134282 -0.0227907,0.0115313 -0.023689,0.00955089 -0.0244155,0.00750124 -0.0249651,0.00539721 -0.0253337,0.00325405 -0.0255187,0.00108731 0,-0.2 0.00850624,-0.000362437 0.00844458,-0.00108468 0.00832171,-0.00179907 0.00813851,-0.00250041 0.00789632,-0.00318363 0.0075969,-0.00384377 0.0072424,-0.00447605 0.00683541,-0.00507588 0.00637887,-0.00563892 0.00587609,-0.00616109 0.00533072,-0.00663859 0.0047467,-0.00706797 0.00412828,-0.00744612 3.26459,-6.52918 0.00360095,-0.0080761 0.00287344,-0.00836263 0.00212346,-0.00858377 0.00135688,-0.0087378 0.000579691,-0.0088235 -0.000202033,-0.00884022 -0.000982177,-0.00878781 -0.00175464,-0.00866669 -0.00251339,-0.0084778 -0.00325248,-0.00822263 -0.00396614,-0.00790316 -0.00464879,-0.0075219 -0.00529509,-0.00708183 -0.00589999,-0.00658638 -0.00645876,-0.00603943 -0.00696702,-0.00544526 -0.00742081,-0.00480851 -0.00781658,-0.00413417 -0.00815123,-0.0034275 -0.00842214,-0.00269403 -0.0086272,-0.0019395 -0.00876481,-0.0011698 -0.00883388,-0.000390951 -3.26459,0 z "/>
<path fill="rgb(187,30,16)" stroke="rgb(187,30,16)" d="M 3.56459,0.2 l -3.26459,8.88178e-16 -0.00883388,0.000390951 -0.00876481,0.0011698 -0.0086272,0.0019395 -0.00842214,0.00269403 -0.00815123,0.0034275 -0.00781658,0.00413417 -0.00742081,0.00480851 -0.00696702,0.00544526 -0.00645876,0.00603943 -0.00589999,0.00658638 -0.00529509,0.00708183 -0.00464879,0.0075219 -0.00396614,0.00790316 -0.00325248,0.00822263 -0.00251339,0.0084778 -0.00175464,0.00866669 -0.000982177,0.00878781 -0.000202033,0.00884022 0.000579691,0.0088235 0.00135688,0.0087378 0.00212346,0.00858377 0.00287344,0.00836263 0.00360095,0.0080761 3.26459,6.52918 0.00412828,0.00744612 0.0047467,0.00706797 0.00533072,0.00663859 0.00587609,0.00616109 0.00637887,0.00563892 0.00683541,0.00507588 0.0072424,0.00447605 0.0075969,0.00384377 0.00789632,0.00318363 0.00813851,0.00250041 0.00832171,0.00179907 0.00844458,0.00108468 0.00850624,0.000362437 0,0.2 -0.0255187,-0.00108731 -0.0253337,-0.00325405 -0.0249651,-0.00539721 -0.0244155,-0.00750124 -0.023689,-0.00955089 -0.0227907,-0.0115313 -0.0217272,-0.0134282 -0.0205062,-0.0152277 -0.0191366,-0.0169168 -0.0176283,-0.0184833 -0.0159921,-0.0199158 -0.0142401,-0.0212039 -0.0123848,-0.0223384 -3.26459,-6.52918 -0.0108029,-0.0242283 -0.00862033,-0.0250879 -0.00637039,-0.0257513 -0.00407065,-0.0262134 -0.00173907,-0.0264705 0.000606098,-0.0265207 0.00294653,-0.0263634 0.00526392,-0.0260001 0.00754016,-0.0254334 0.00975744,-0.0246679 0.0118984,-0.0237095 0.0139464,-0.0225657 0.0158853,-0.0212455 0.0177,-0.0197591 0.0193763,-0.0181183 0.0209011,-0.0163358 0.0222624,-0.0144255 0.0234497,-0.0124025 0.0244537,-0.0102825 0.0252664,-0.00808209 0.0258816,-0.00581849 0.0262944,-0.00350939 0.0265016,-0.00117285 3.26459,0 0,0.2 z "/>
<path fill="rgb(187,30,16)" stroke="rgb(187,30,16)" d="M 3.56459,5.04033 l 0,1.56525 -3.10279,-6.20557 3.10279,0 0,0.7 -1.97016,4.44089e-16 1.97016,3.94033 z "/>
</g></g></svg>
