<?xml version="1.0" encoding="UTF-8" standalone="no"?>
<!DOCTYPE svg PUBLIC "-//W3C//DTD SVG 1.1//EN" "http://www.w3.org/Graphics/SVG/1.1/DTD/svg11-flat.dtd"
[

]>
<svg xmlns="http://www.w3.org/2000/svg"  viewBox="-0.09375 -0.09375 7.6875 7.6875"><g fill="none" stroke="black" stroke-width="0.0125" transform="translate(0,7.5) scale(1, -1)">
<g id="Output" >
<path fill="rgb(241,240,234)" stroke="rgb(241,240,234)" d="M 5.02197,3.69161 l 0.27158,0 0,0.0823601 0,0.07579 -0.27158,0 -0.302919,0 0,-0.07579 0,-0.0823601 0.302919,0 z "/>
<path fill="rgb(241,240,234)" stroke="rgb(241,240,234)" d="M 4.02705,3.77397 l 0,-0.0823601 0.0774859,0 0,0.00216476 -0.0774831,0.000186004 0.000192069,0.0800093 -0.00019489,0 z "/>
<path fill="rgb(241,240,234)" stroke="rgb(241,240,234)" d="M 4.02705,3.77397 l 0.00019489,0 0.000491854,0.204889 -0.000686744,0 0,-0.204889 z "/>
<path fill="rgb(241,240,234)" stroke="rgb(241,240,234)" d="M 4.10453,3.97886 l -0.0767992,0 -0.000491854,-0.204889 -0.000192069,-0.0800093 0.0774831,-0.000186004 0,0.285085 z "/>
<path fill="rgb(241,240,234)" stroke="rgb(241,240,234)" d="M 5.90806,3.69377 l 0.0774831,0.000186004 -0.000683922,0.284899 -0.0767992,0 -8.88178e-16,-0.204889 0,-0.0801953 z "/>
<path fill="rgb(241,240,234)" stroke="rgb(241,240,234)" d="M 5.90806,3.69377 l 0,0.0801953 -0.000195114,0 0.000192515,-0.0801953 2.59833e-06,6.23751e-09 z "/>
<path fill="rgb(241,240,234)" stroke="rgb(241,240,234)" d="M 5.98486,3.98121 l -0.0774857,-0.000186011 0.000497048,-0.207053 0.000195114,0 8.88178e-16,0.204889 0.0767992,0 -5.64122e-06,0.00234994 z "/>
<path fill="rgb(241,240,234)" stroke="rgb(241,240,234)" d="M 5.02197,4.61466 l -0.00522298,2.02556e-05 -0.00522301,1.19363e-05 -0.00522302,3.61685e-06 0.00522302,-4.70258e-06 0.00522301,-1.3022e-05 0.00522298,-2.13414e-05 0,3.2572e-06 z "/>
<path fill="rgb(241,240,234)" stroke="rgb(241,240,234)" d="M 5.66991,4.54692 l -0.214322,0.0369025 -0.216297,0.0226148 -0.21732,0.00822771 0,-3.2572e-06 0.217092,-0.00825672 0.216068,-0.0226137 0.214097,-0.0368714 0.0226558,-0.056296 -0.0219742,0.056296 z "/>
<path fill="rgb(241,240,234)" stroke="rgb(241,240,234)" d="M 4.32072,4.49062 l -0.0838545,-0.208364 0.00252287,0 0.0813316,0.208364 z "/>
<path fill="rgb(241,240,234)" stroke="rgb(241,240,234)" d="M 5.02197,4.28226 l 0.751244,0 -0.0813316,0.208364 -0.0226558,0.056296 -0.214097,0.0368714 -0.216068,0.0226137 -0.217092,0.00825672 -0.00522298,2.13414e-05 -0.00522301,1.3022e-05 -0.00522302,4.70258e-06 -0.22234,-0.0075698 -0.221315,-0.0226283 -0.219271,-0.0375827 -0.0226558,-0.056296 -0.0813316,-0.208364 0.782582,0 z "/>
<path fill="rgb(241,240,234)" stroke="rgb(241,240,234)" d="M 2.50937,3.69161 l 0.27158,0 0,0.0823601 0,0.07579 -0.27158,0 -0.302919,0 0,-0.07579 0,-0.0823601 0.302919,0 z "/>
<path fill="rgb(241,240,234)" stroke="rgb(241,240,234)" d="M 1.59194,3.97886 l -0.0774859,0 0,-0.204889 0,-0.0823601 0.0774859,0 0,0.0823601 0,0.204889 z "/>
<path fill="rgb(241,240,234)" stroke="rgb(241,240,234)" d="M 3.47226,3.98121 l -0.0774857,-0.000186011 0.000497048,-0.207053 0.000192515,-0.0801953 0.0774857,0.000186011 -0.000192069,0.0800093 -0.000497495,0.207239 z "/>
<path fill="rgb(241,240,234)" stroke="rgb(241,240,234)" d="M 2.50937,4.28226 l 0.751244,0 -0.103306,0.26466 -0.214322,0.0369025 -0.216297,0.0226148 -0.21732,0.00822771 -0.227586,-0.00684121 -0.226562,-0.022618 -0.224447,-0.0382858 -0.10651,-0.26466 0.785105,0 z "/>
<path fill="rgb(241,240,234)" stroke="rgb(241,240,234)" d="M 2.50937,3.42695 l 0,-2.0186 0.215008,-0.101828 0.223274,-0.0821352 0.22974,-0.0617801 0.234355,-0.0409271 0.237081,-0.0197443 0.237897,0.00159763 0.236795,0.0229267 0.233784,0.044071 0.22889,0.0648601 0.222151,0.0851265 0.213621,0.104707 0,2.00173 -0.678354,0 0,-0.334807 -0.000123334,-0.00283914 -0.000370348,-0.00281758 -0.000614542,-0.00277458 -0.000854058,-0.00271045 -0.00108707,-0.00262568 -0.00131181,-0.00252093 -0.00152656,-0.00239699 -0.00172969,-0.00225479 -0.00191965,-0.00209544 -0.002095,-0.00192013 -0.0022544,-0.0017302 -0.00239664,-0.0015271 -0.00252063,-0.00131238 -0.00262544,-0.00108767 -0.00271025,-0.00085467 -0.00277444,-0.000615169 -0.0028175,-0.000370985 -0.00283911,-0.000123976 -0.21535,0 -8.32223e-13,0 -0.00283978,0.000123362 -0.00281822,0.000370432 -0.0027752,0.000614681 -0.00271106,0.000854251 -0.00262628,0.00108732 -0.0025215,0.00131211 -0.00239753,0.00152691 -0.0022553,0.00173008 -0.00209591,0.00192009 -0.00192056,0.00209548 -0.00173059,0.00225491 -0.00152745,0.00239718 -0.00131268,0.0025212 -0.00108791,0.00262603 -0.000854864,0.00271087 -0.000615308,0.00277506 -0.000371069,0.00281814 -0.000124004,0.00283975 0,0.334807 -0.0561055,0 -0.0850603,0.135731 -4.44089e-16,0.211289 -0.343884,0 0,-0.211289 -0.0850603,-0.135731 -0.0561055,0 0,-0.334807 -0.000123933,-0.00283894 -0.000370856,-0.00281734 -0.000614957,-0.0027743 -0.00085438,-0.00271016 -0.0010873,-0.0026254 -0.00131195,-0.00252066 -0.00152662,-0.00239674 -0.00172967,-0.00225459 -0.00191956,-0.00209528 -0.00209485,-0.00192004 -0.0022542,-0.00173018 -0.0023964,-0.00152716 -0.00252036,-0.00131252 -0.00262515,-0.0010879 -0.00270997,-0.000854992 -0.00277417,-0.000615584 -0.00281726,-0.000371493 -0.00283891,-0.000124575 -8.64198e-13,0 -0.215364,0 -0.0028383,0.000123905 -0.0028167,0.000370772 -0.00277368,0.000614818 -0.00270955,0.000854186 -0.0026248,0.00108706 -0.00252009,0.00131165 -0.0023962,0.00152627 -0.00225408,0.00172928 -0.00209481,0.00191913 -0.0019196,0.00209438 -0.00172979,0.00225369 -0.00152681,0.00239586 -0.00131222,0.00251979 -0.00108765,0.00262456 -0.000854799,0.00270936 -0.000615445,0.00277354 -0.000371409,0.00281662 -0.000124547,0.00283827 0,0.334821 -0.647016,0 z "/>
<path fill="rgb(241,240,234)" stroke="rgb(241,240,234)" d="M 6.4,3.75 l -1.20423e-05,0.007989 -3.61268e-05,0.00798893 -6.0211e-05,0.00798878 -0.309873,0 0,-0.211289 -0.0850529,-0.135731 -0.0560981,0 0,-0.334807 -0.000123969,-0.00283935 -0.000370962,-0.00281774 -0.000615133,-0.00277468 -0.000854622,-0.00271051 -0.00108761,-0.00262571 -0.00131231,-0.00252093 -0.00152703,-0.00239696 -0.00173013,-0.00225475 -0.00192006,-0.00209538 -0.00209538,-0.00192006 -0.00225475,-0.00173013 -0.00239696,-0.00152703 -0.00252093,-0.00131231 -0.00262571,-0.00108761 -0.00271051,-0.000854622 -0.00277468,-0.000615133 -0.00281774,-0.000370962 -0.00283935,-0.000123969 -0.215364,0 -0.00283935,0.000123969 -0.00281774,0.000370962 -0.00277468,0.000615133 -0.00271051,0.000854622 -0.00262571,0.00108761 -0.00252093,0.00131231 -0.00239696,0.00152703 -0.00225475,0.00173013 -0.00209538,0.00192006 -0.00192006,0.00209538 -0.00173013,0.00225475 -0.00152703,0.00239696 -0.00131231,0.00252093 -0.00108761,0.00262571 -0.000854622,0.00271051 -0.000615133,0.00277468 -0.000370962,0.00281774 -0.000123969,0.00283935 8.88178e-16,0.334807 -0.646381,0 0,-2.00173 0.201994,0.122522 0.190279,0.140025 0.177052,0.156415 0.162418,0.171562 0.146493,0.185345 0.129404,0.197655 0.111286,0.208395 0.0922838,0.217478 0.0725482,0.224833 0.052236,0.230401 0.0315086,0.234137 0.0105308,0.236013 z "/>
<path fill="rgb(241,240,234)" stroke="rgb(241,240,234)" d="M 6.09002,3.77397 l 0.309873,0 -0.0124697,0.23392 -0.0330787,0.231905 -0.0534292,0.228078 -0.0733622,0.222468 -0.0927219,0.215121 -0.111357,0.206092 -0.129122,0.195453 -0.145878,0.183286 -0.161494,0.169687 -0.175849,0.154763 -0.188829,0.138629 -0.200333,0.121411 0,-1.32132 0.251773,-0.00871466 0.250764,-0.024149 0.248809,-0.0394923 0.211741,-0.508543 0.104965,-0.12487 8.88178e-16,-0.273726 z "/>
<path fill="rgb(241,240,234)" stroke="rgb(241,240,234)" d="M 2.50937,6.09165 l -0.204433,-0.120326 -0.192854,-0.138125 -0.179729,-0.154818 -0.165164,-0.17027 -0.149276,-0.184358 -0.132192,-0.196968 -0.114048,-0.208001 -0.0949907,-0.217366 -0.0751721,-0.22499 -0.0547511,-0.230811 -0.0338913,-0.234782 -0.01276,-0.236872 0.309873,0 0,0.273726 0.104965,0.12487 0.211741,0.508543 0.259173,0.0407991 0.261251,0.0241524 0.26226,0.00740683 0,1.33819 z "/>
<path fill="rgb(241,240,234)" stroke="rgb(241,240,234)" d="M 2.50937,3.42695 l -0.677719,-4.44089e-16 0,-0.334807 -0.000123969,-0.00283935 -0.000370962,-0.00281774 -0.000615133,-0.00277468 -0.000854622,-0.00271051 -0.00108761,-0.00262571 -0.00131231,-0.00252093 -0.00152703,-0.00239696 -0.00173013,-0.00225475 -0.00192006,-0.00209538 -0.00209538,-0.00192006 -0.00225475,-0.00173013 -0.00239696,-0.00152703 -0.00252093,-0.00131231 -0.00262571,-0.00108761 -0.00271051,-0.000854622 -0.00277468,-0.000615133 -0.00281774,-0.000370962 -0.00283935,-0.000123969 -0.215364,0 -0.00283935,0.000123969 -0.00281774,0.000370962 -0.00277468,0.000615133 -0.00271051,0.000854622 -0.00262571,0.00108761 -0.00252093,0.00131231 -0.00239696,0.00152703 -0.00225475,0.00173013 -0.00209538,0.00192006 -0.00192006,0.00209538 -0.00173013,0.00225475 -0.00152703,0.00239696 -0.00131231,0.00252093 -0.00108761,0.00262571 -0.000854622,0.00271051 -0.000615133,0.00277468 -0.000370962,0.00281774 -0.000123969,0.00283935 0,0.334807 -0.0560981,0 -0.0850529,0.135731 0,0.211289 -0.309873,0 -6.0211e-05,-0.00798878 -3.61268e-05,-0.00798893 -1.20423e-05,-0.007989 0.0107966,-0.238967 0.0323017,-0.23702 0.0535437,-0.233141 0.0743493,-0.227363 0.0945492,-0.219732 0.113979,-0.210311 0.132479,-0.199176 0.1499,-0.186418 0.1661,-0.172141 0.180947,-0.156461 0.194318,-0.139507 0.206107,-0.121416 0,2.0186 z "/>
<path fill="rgb(241,240,234)" stroke="rgb(241,240,234)" d="M 2.50937,6.09165 l 0,-1.33819 0.251986,-0.00868946 0.250976,-0.0241498 0.249019,-0.039519 0.211741,-0.508543 0.104965,-0.12487 0,-0.273726 0.343884,0 4.44089e-16,0.273726 0.104965,0.12487 0.211741,0.508543 0.259383,0.0408254 0.261463,0.0241516 0.262473,0.00737893 0,1.32132 -0.213621,0.104707 -0.222151,0.0851265 -0.22889,0.0648601 -0.233784,0.044071 -0.236795,0.0229267 -0.237897,0.00159763 -0.237081,-0.0197443 -0.234355,-0.0409271 -0.22974,-0.0617801 -0.223274,-0.0821352 -0.215008,-0.101828 z "/>
<path fill="rgb(241,240,234)" stroke="rgb(241,240,234)" d="M 0.2,3.75 l 0.0135088,-0.309403 0.0404237,-0.307048 0.0670308,-0.302357 0.0931279,-0.295364 0.118516,-0.286123 0.143002,-0.274705 0.1664,-0.261196 0.188532,-0.2457 0.209229,-0.228333 0.228333,-0.209229 0.2457,-0.188532 0.261196,-0.1664 0.274705,-0.143002 0.286123,-0.118516 0.295364,-0.0931279 0.302357,-0.0670308 0.307048,-0.0404237 0.309403,-0.0135088 0.309403,0.0135088 0.307048,0.0404237 0.302357,0.0670308 0.295364,0.0931279 0.286123,0.118516 0.274705,0.143002 0.261196,0.1664 0.2457,0.188532 0.228333,0.209229 0.209229,0.228333 0.188532,0.2457 0.1664,0.261196 0.143002,0.274705 0.118516,0.286123 0.0931279,0.295364 0.0670308,0.302357 0.0404237,0.307048 0.0135088,0.309403 -0.2,0 -0.0127478,-0.291972 -0.0381463,-0.28975 -0.0632545,-0.285322 -0.0878812,-0.278724 -0.111839,-0.270004 -0.134946,-0.259229 -0.157026,-0.246481 -0.17791,-0.231857 -0.197441,-0.215469 -0.215469,-0.197441 -0.231857,-0.17791 -0.246481,-0.157026 -0.259229,-0.134946 -0.270004,-0.111839 -0.278724,-0.0878812 -0.285322,-0.0632545 -0.28975,-0.0381463 -0.291972,-0.0127478 -0.291972,0.0127478 -0.28975,0.0381463 -0.285322,0.0632545 -0.278724,0.0878812 -0.270004,0.111839 -0.259229,0.134946 -0.246481,0.157026 -0.231857,0.17791 -0.215469,0.197441 -0.197441,0.215469 -0.17791,0.231857 -0.157026,0.246481 -0.134946,0.259229 -0.111839,0.270004 -0.0878812,0.278724 -0.0632545,0.285322 -0.0381463,0.28975 -0.0127478,0.291972 -0.2,0 z "/>
<path fill="rgb(241,240,234)" stroke="rgb(241,240,234)" d="M 0.2,3.75 l 0.2,0 0.0127478,0.291972 0.0381463,0.28975 0.0632545,0.285322 0.0878812,0.278724 0.111839,0.270004 0.134946,0.259229 0.157026,0.246481 0.17791,0.231857 0.197441,0.215469 0.215469,0.197441 0.231857,0.17791 0.246481,0.157026 0.259229,0.134946 0.270004,0.111839 0.278724,0.0878812 0.285322,0.0632545 0.28975,0.0381463 0.291972,0.0127478 0.291972,-0.0127478 0.28975,-0.0381463 0.285322,-0.0632545 0.278724,-0.0878812 0.270004,-0.111839 0.259229,-0.134946 0.246481,-0.157026 0.231857,-0.17791 0.215469,-0.197441 0.197441,-0.215469 0.17791,-0.231857 0.157026,-0.246481 0.134946,-0.259229 0.111839,-0.270004 0.0878812,-0.278724 0.0632545,-0.285322 0.0381463,-0.28975 0.0127478,-0.291972 0.2,0 -0.0135088,0.309403 -0.0404237,0.307048 -0.0670308,0.302357 -0.0931279,0.295364 -0.118516,0.286123 -0.143002,0.274705 -0.1664,0.261196 -0.188532,0.2457 -0.209229,0.228333 -0.228333,0.209229 -0.2457,0.188532 -0.261196,0.1664 -0.274705,0.143002 -0.286123,0.118516 -0.295364,0.0931279 -0.302357,0.0670308 -0.307048,0.0404237 -0.309403,0.0135088 -0.309403,-0.0135088 -0.307048,-0.0404237 -0.302357,-0.0670308 -0.295364,-0.0931279 -0.286123,-0.118516 -0.274705,-0.143002 -0.261196,-0.1664 -0.2457,-0.188532 -0.228333,-0.209229 -0.209229,-0.228333 -0.188532,-0.2457 -0.1664,-0.261196 -0.143002,-0.274705 -0.118516,-0.286123 -0.0931279,-0.295364 -0.0670308,-0.302357 -0.0404237,-0.307048 -0.0135088,-0.309403 z "/>
<path fill="rgb(42,41,42)" stroke="rgb(42,41,42)" d="M 6.09002,3.77397 l -8.88178e-16,0.273726 -0.104965,0.12487 -0.211741,0.508543 -0.248809,0.0394923 -0.250764,0.024149 -0.251773,0.00871466 0,-0.138796 0.21732,-0.00822771 0.216297,-0.0226148 0.214322,-0.0369025 0.0219742,-0.056296 0.0838545,-0.208364 -0.00252287,0 -0.751244,0 0,-0.432503 0.27158,0 0,-0.07579 0.614321,0 -0.000497048,0.207053 0.0774857,0.000186011 5.64122e-06,-0.00234994 0.000686744,0 0,-0.204889 0.104469,0 z "/>
<path fill="rgb(42,41,42)" stroke="rgb(42,41,42)" d="M 5.02197,3.69161 l 0,-0.26466 0.646381,0 -8.88178e-16,-0.334807 0.000123969,-0.00283935 0.000370962,-0.00281774 0.000615133,-0.00277468 0.000854622,-0.00271051 0.00108761,-0.00262571 0.00131231,-0.00252093 0.00152703,-0.00239696 0.00173013,-0.00225475 0.00192006,-0.00209538 0.00209538,-0.00192006 0.00225475,-0.00173013 0.00239696,-0.00152703 0.00252093,-0.00131231 0.00262571,-0.00108761 0.00271051,-0.000854622 0.00277468,-0.000615133 0.00281774,-0.000370962 0.00283935,-0.000123969 0.215364,0 0.00283935,0.000123969 0.00281774,0.000370962 0.00277468,0.000615133 0.00271051,0.000854622 0.00262571,0.00108761 0.00252093,0.00131231 0.00239696,0.00152703 0.00225475,0.00173013 0.00209538,0.00192006 0.00192006,0.00209538 0.00173013,0.00225475 0.00152703,0.00239696 0.00131231,0.00252093 0.00108761,0.00262571 0.000854622,0.00271051 0.000615133,0.00277468 0.000370962,0.00281774 0.000123969,0.00283935 0,0.334807 0.0560981,0 0.0850529,0.135731 0,0.211289 -0.104469,0 0,-0.0823601 -0.0774859,0 0,0.00216476 -2.59833e-06,-6.23751e-09 -0.000192515,0.0801953 -0.614321,0 0,-0.0823601 -0.27158,0 z "/>
<path fill="rgb(42,41,42)" stroke="rgb(42,41,42)" d="M 5.02197,3.69161 l -0.302919,0 0,0.0823601 -0.614321,0 -0.000192515,-0.0801953 -2.59833e-06,6.23751e-09 0,-0.00216476 -0.0774859,0 0,0.0823601 -0.105104,0 4.44089e-16,-0.211289 0.0850603,-0.135731 0.0561055,0 0,-0.334807 0.000124004,-0.00283975 0.000371069,-0.00281814 0.000615308,-0.00277506 0.000854864,-0.00271087 0.00108791,-0.00262603 0.00131268,-0.0025212 0.00152745,-0.00239718 0.00173059,-0.00225491 0.00192056,-0.00209548 0.00209591,-0.00192009 0.0022553,-0.00173008 0.00239753,-0.00152691 0.0025215,-0.00131211 0.00262628,-0.00108732 0.00271106,-0.000854251 0.0027752,-0.000614681 0.00281822,-0.000370432 0.00283978,-0.000123362 8.32223e-13,0 0.21535,0 0.00283911,0.000123976 0.0028175,0.000370985 0.00277444,0.000615169 0.00271025,0.00085467 0.00262544,0.00108767 0.00252063,0.00131238 0.00239664,0.0015271 0.0022544,0.0017302 0.002095,0.00192013 0.00191965,0.00209544 0.00172969,0.00225479 0.00152656,0.00239699 0.00131181,0.00252093 0.00108707,0.00262568 0.000854058,0.00271045 0.000614542,0.00277458 0.000370348,0.00281758 0.000123334,0.00283914 0,0.334807 0.678354,0 0,0.26466 z "/>
<path fill="rgb(42,41,42)" stroke="rgb(42,41,42)" d="M 5.02197,4.75346 l -0.262473,-0.00737893 -0.261463,-0.0241516 -0.259383,-0.0408254 -0.211741,-0.508543 -0.104965,-0.12487 -4.44089e-16,-0.273726 0.105104,0 0,0.204889 0.000686744,0 5.64122e-06,0.00234994 0.0774857,-0.000186011 -0.000497048,-0.207053 0.614321,0 0,0.07579 0.302919,0 0,0.432503 -0.782582,0 -0.00252287,0 0.0838545,0.208364 0.0219742,0.056296 0.219496,0.0376135 0.221543,0.0226284 0.222568,0.00753897 0.00522302,-3.61685e-06 0.00522301,-1.19363e-05 0.00522298,-2.02556e-05 0,0.138796 z "/>
<path fill="rgb(187,30,16)" stroke="rgb(187,30,16)" d="M 2.50937,3.69161 l -0.302919,0 0,0.0823601 -0.614517,0 0,-0.0823601 -0.0774859,0 0,0.0823601 -0.104469,0 0,-0.211289 0.0850529,-0.135731 0.0560981,0 0,-0.334807 0.000123969,-0.00283935 0.000370962,-0.00281774 0.000615133,-0.00277468 0.000854622,-0.00271051 0.00108761,-0.00262571 0.00131231,-0.00252093 0.00152703,-0.00239696 0.00173013,-0.00225475 0.00192006,-0.00209538 0.00209538,-0.00192006 0.00225475,-0.00173013 0.00239696,-0.00152703 0.00252093,-0.00131231 0.00262571,-0.00108761 0.00271051,-0.000854622 0.00277468,-0.000615133 0.00281774,-0.000370962 0.00283935,-0.000123969 0.215364,0 0.00283935,0.000123969 0.00281774,0.000370962 0.00277468,0.000615133 0.00271051,0.000854622 0.00262571,0.00108761 0.00252093,0.00131231 0.00239696,0.00152703 0.00225475,0.00173013 0.00209538,0.00192006 0.00192006,0.00209538 0.00173013,0.00225475 0.00152703,0.00239696 0.00131231,0.00252093 0.00108761,0.00262571 0.000854622,0.00271051 0.000615133,0.00277468 0.000370962,0.00281774 0.000123969,0.00283935 0,0.334807 0.677719,4.44089e-16 0,0.26466 z "/>
<path fill="rgb(187,30,16)" stroke="rgb(187,30,16)" d="M 2.50937,3.69161 l 0,-0.26466 0.647016,0 0,-0.334821 0.000124547,-0.00283827 0.000371409,-0.00281662 0.000615445,-0.00277354 0.000854799,-0.00270936 0.00108765,-0.00262456 0.00131222,-0.00251979 0.00152681,-0.00239586 0.00172979,-0.00225369 0.0019196,-0.00209438 0.00209481,-0.00191913 0.00225408,-0.00172928 0.0023962,-0.00152627 0.00252009,-0.00131165 0.0026248,-0.00108706 0.00270955,-0.000854186 0.00277368,-0.000614818 0.0028167,-0.000370772 0.0028383,-0.000123905 0.215364,0 8.64198e-13,0 0.00283891,0.000124575 0.00281726,0.000371493 0.00277417,0.000615584 0.00270997,0.000854992 0.00262515,0.0010879 0.00252036,0.00131252 0.0023964,0.00152716 0.0022542,0.00173018 0.00209485,0.00192004 0.00191956,0.00209528 0.00172967,0.00225459 0.00152662,0.00239674 0.00131195,0.00252066 0.0010873,0.0026254 0.00085438,0.00271016 0.000614957,0.0027743 0.000370856,0.00281734 0.000123933,0.00283894 0,0.334807 0.0561055,0 0.0850603,0.135731 0,0.211289 -0.105299,0 0.000192069,-0.0800093 -0.0774857,-0.000186011 -0.000192515,0.0801953 -0.614321,0 0,-0.0823601 -0.27158,0 z "/>
<path fill="rgb(187,30,16)" stroke="rgb(187,30,16)" d="M 3.39478,3.98102 l 0.0774857,0.000186011 0.000497495,-0.207239 0.105299,0 0,0.273726 -0.104965,0.12487 -0.211741,0.508543 -0.249019,0.039519 -0.250976,0.0241498 -0.251986,0.00868946 0,-0.138799 0.21732,-0.00822771 0.216297,-0.0226148 0.214322,-0.0369025 0.103306,-0.26466 -0.751244,0 0,-0.432503 0.27158,0 0,-0.07579 0.614321,0 -0.000497048,0.207053 z "/>
<path fill="rgb(187,30,16)" stroke="rgb(187,30,16)" d="M 2.50937,4.28226 l -0.785105,0 0.10651,0.26466 0.224447,0.0382858 0.226562,0.022618 0.227586,0.00684121 0,0.138799 -0.26226,-0.00740683 -0.261251,-0.0241524 -0.259173,-0.0407991 -0.211741,-0.508543 -0.104965,-0.12487 0,-0.273726 0.104469,0 0,0.204889 0.0774859,0 0,-0.204889 0.614517,0 0,0.07579 0.302919,0 0,0.432503 z "/>
<path fill="rgb(187,30,16)" stroke="rgb(187,30,16)" d="M 0.2,3.75 l -0.2,0 0.0142699,-0.326834 0.042701,-0.324347 0.0708072,-0.319391 0.0983745,-0.312004 0.125193,-0.302243 0.151059,-0.290182 0.175775,-0.275912 0.199154,-0.259542 0.221016,-0.241197 0.241197,-0.221016 0.259542,-0.199154 0.275912,-0.175775 0.290182,-0.151059 0.302243,-0.125193 0.312004,-0.0983745 0.319391,-0.0708072 0.324347,-0.042701 0.326834,-0.0142699 0.326834,0.0142699 0.324347,0.042701 0.319391,0.0708072 0.312004,0.0983745 0.302243,0.125193 0.290182,0.151059 0.275912,0.175775 0.259542,0.199154 0.241197,0.221016 0.221016,0.241197 0.199154,0.259542 0.175775,0.275912 0.151059,0.290182 0.125193,0.302243 0.0983745,0.312004 0.0708072,0.319391 0.042701,0.324347 0.0142699,0.326834 -0.2,0 -0.0135088,-0.309403 -0.0404237,-0.307048 -0.0670308,-0.302357 -0.0931279,-0.295364 -0.118516,-0.286123 -0.143002,-0.274705 -0.1664,-0.261196 -0.188532,-0.2457 -0.209229,-0.228333 -0.228333,-0.209229 -0.2457,-0.188532 -0.261196,-0.1664 -0.274705,-0.143002 -0.286123,-0.118516 -0.295364,-0.0931279 -0.302357,-0.0670308 -0.307048,-0.0404237 -0.309403,-0.0135088 -0.309403,0.0135088 -0.307048,0.0404237 -0.302357,0.0670308 -0.295364,0.0931279 -0.286123,0.118516 -0.274705,0.143002 -0.261196,0.1664 -0.2457,0.188532 -0.228333,0.209229 -0.209229,0.228333 -0.188532,0.2457 -0.1664,0.261196 -0.143002,0.274705 -0.118516,0.286123 -0.0931279,0.295364 -0.0670308,0.302357 -0.0404237,0.307048 -0.0135088,0.309403 z "/>
<path fill="rgb(187,30,16)" stroke="rgb(187,30,16)" d="M 0.2,3.75 l 0.0135088,0.309403 0.0404237,0.307048 0.0670308,0.302357 0.0931279,0.295364 0.118516,0.286123 0.143002,0.274705 0.1664,0.261196 0.188532,0.2457 0.209229,0.228333 0.228333,0.209229 0.2457,0.188532 0.261196,0.1664 0.274705,0.143002 0.286123,0.118516 0.295364,0.0931279 0.302357,0.0670308 0.307048,0.0404237 0.309403,0.0135088 0.309403,-0.0135088 0.307048,-0.0404237 0.302357,-0.0670308 0.295364,-0.0931279 0.286123,-0.118516 0.274705,-0.143002 0.261196,-0.1664 0.2457,-0.188532 0.228333,-0.209229 0.209229,-0.228333 0.188532,-0.2457 0.1664,-0.261196 0.143002,-0.274705 0.118516,-0.286123 0.0931279,-0.295364 0.0670308,-0.302357 0.0404237,-0.307048 0.0135088,-0.309403 0.2,0 -0.0142699,0.326834 -0.042701,0.324347 -0.0708072,0.319391 -0.0983745,0.312004 -0.125193,0.302243 -0.151059,0.290182 -0.175775,0.275912 -0.199154,0.259542 -0.221016,0.241197 -0.241197,0.221016 -0.259542,0.199154 -0.275912,0.175775 -0.290182,0.151059 -0.302243,0.125193 -0.312004,0.0983745 -0.319391,0.0708072 -0.324347,0.042701 -0.326834,0.0142699 -0.326834,-0.0142699 -0.324347,-0.042701 -0.319391,-0.0708072 -0.312004,-0.0983745 -0.302243,-0.125193 -0.290182,-0.151059 -0.275912,-0.175775 -0.259542,-0.199154 -0.241197,-0.221016 -0.221016,-0.241197 -0.199154,-0.259542 -0.175775,-0.275912 -0.151059,-0.290182 -0.125193,-0.302243 -0.0983745,-0.312004 -0.0708072,-0.319391 -0.042701,-0.324347 -0.0142699,-0.326834 0.2,0 z "/>
<path fill="rgb(187,30,16)" stroke="rgb(187,30,16)" d="M 6.4,3.75 l -0.0105308,-0.236013 -0.0315086,-0.234137 -0.052236,-0.230401 -0.0725482,-0.224833 -0.0922838,-0.217478 -0.111286,-0.208395 -0.129404,-0.197655 -0.146493,-0.185345 -0.162418,-0.171562 -0.177052,-0.156415 -0.190279,-0.140025 -0.201994,-0.122522 -0.213621,-0.104707 -0.222151,-0.0851265 -0.22889,-0.0648601 -0.233784,-0.044071 -0.236795,-0.0229267 -0.237897,-0.00159763 -0.237081,0.0197443 -0.234355,0.0409271 -0.22974,0.0617801 -0.223274,0.0821352 -0.215008,0.101828 -0.206107,0.121416 -0.194318,0.139507 -0.180947,0.156461 -0.1661,0.172141 -0.1499,0.186418 -0.132479,0.199176 -0.113979,0.210311 -0.0945492,0.219732 -0.0743493,0.227363 -0.0535437,0.233141 -0.0323017,0.23702 -0.0107966,0.238967 -0.7,0 0.0127478,-0.291972 0.0381463,-0.28975 0.0632545,-0.285322 0.0878812,-0.278724 0.111839,-0.270004 0.134946,-0.259229 0.157026,-0.246481 0.17791,-0.231857 0.197441,-0.215469 0.215469,-0.197441 0.231857,-0.17791 0.246481,-0.157026 0.259229,-0.134946 0.270004,-0.111839 0.278724,-0.0878812 0.285322,-0.0632545 0.28975,-0.0381463 0.291972,-0.0127478 0.291972,0.0127478 0.28975,0.0381463 0.285322,0.0632545 0.278724,0.0878812 0.270004,0.111839 0.259229,0.134946 0.246481,0.157026 0.231857,0.17791 0.215469,0.197441 0.197441,0.215469 0.17791,0.231857 0.157026,0.246481 0.134946,0.259229 0.111839,0.270004 0.0878812,0.278724 0.0632545,0.285322 0.0381463,0.28975 0.0127478,0.291972 -0.7,0 z "/>
<path fill="rgb(187,30,16)" stroke="rgb(187,30,16)" d="M 6.4,3.75 l 0.7,0 -0.0127478,0.291972 -0.0381463,0.28975 -0.0632545,0.285322 -0.0878812,0.278724 -0.111839,0.270004 -0.134946,0.259229 -0.157026,0.246481 -0.17791,0.231857 -0.197441,0.215469 -0.215469,0.197441 -0.231857,0.17791 -0.246481,0.157026 -0.259229,0.134946 -0.270004,0.111839 -0.278724,0.0878812 -0.285322,0.0632545 -0.28975,0.0381463 -0.291972,0.0127478 -0.291972,-0.0127478 -0.28975,-0.0381463 -0.285322,-0.0632545 -0.278724,-0.0878812 -0.270004,-0.111839 -0.259229,-0.134946 -0.246481,-0.157026 -0.231857,-0.17791 -0.215469,-0.197441 -0.197441,-0.215469 -0.17791,-0.231857 -0.157026,-0.246481 -0.134946,-0.259229 -0.111839,-0.270004 -0.0878812,-0.278724 -0.0632545,-0.285322 -0.0381463,-0.28975 -0.0127478,-0.291972 0.7,0 1.20423e-05,0.007989 3.61268e-05,0.00798893 6.0211e-05,0.00798878 0.01276,0.236872 0.0338913,0.234782 0.0547511,0.230811 0.0751721,0.22499 0.0949907,0.217366 0.114048,0.208001 0.132192,0.196968 0.149276,0.184358 0.165164,0.17027 0.179729,0.154818 0.192854,0.138125 0.204433,0.120326 0.215008,0.101828 0.223274,0.0821352 0.22974,0.0617801 0.234355,0.0409271 0.237081,0.0197443 0.237897,-0.00159763 0.236795,-0.0229267 0.233784,-0.044071 0.22889,-0.0648601 0.222151,-0.0851265 0.213621,-0.104707 0.200333,-0.121411 0.188829,-0.138629 0.175849,-0.154763 0.161494,-0.169687 0.145878,-0.183286 0.129122,-0.195453 0.111357,-0.206092 0.0927219,-0.215121 0.0733622,-0.222468 0.0534292,-0.228078 0.0330787,-0.231905 0.0124697,-0.23392 6.0211e-05,-0.00798878 3.61268e-05,-0.00798893 1.20423e-05,-0.007989 z "/>
</g></g></svg>
