<?xml version="1.0" encoding="UTF-8" standalone="no"?>
<!DOCTYPE svg PUBLIC "-//W3C//DTD SVG 1.1//EN" "http://www.w3.org/Graphics/SVG/1.1/DTD/svg11-flat.dtd"
[

]>
<svg xmlns="http://www.w3.org/2000/svg"  viewBox="-0.125 -0.125 10.25 7.75"><g fill="none" stroke="black" stroke-width="0.0125" transform="translate(0,7.5) scale(1, -1)">
<g id="Output" >
<path fill="rgb(0,91,140)" stroke="rgb(0,91,140)" d="M 4.5,7.1 l -2.5,-8.88178e-16 0,-0.741648 0.00620313,-0.000273316 0.00615513,-0.000817273 0.00605952,-0.00135491 0.00591704,-0.00188207 0.0057288,-0.00239466 0.00549625,-0.00288874 0.00522118,-0.00336048 0.00490574,-0.00380622 0.00455235,-0.00422252 0.00416375,-0.00460617 0.00374294,-0.00495419 0.625976,-0.906794 0.00323239,-0.00515498 0.00276541,-0.00541984 0.00227689,-0.00564251 0.00177065,-0.00582125 0.00125063,-0.00595467 0.000720865,-0.00604173 0.00018549,-0.00608176 -0.000351328,-0.00607443 -0.000885411,-0.00601982 -0.0014126,-0.00591834 -0.00192879,-0.00577078 -0.00242997,-0.0055783 -0.00291223,-0.00534239 -0.00337181,-0.00506488 -0.00380515,-0.00474795 -0.00420886,-0.00439405 -0.00457981,-0.00400594 -0.0049151,-0.00358664 -0.00521212,-0.00313942 -0.00546856,-0.00266777 -0.00568244,-0.00217534 -0.00585207,-0.00166597 -0.00597614,-0.00114364 -0.00605369,-0.000612398 -0.00608411,-7.63917e-05 -0.00606716,0.000460209 -0.00600297,0.000993227 -0.00589205,0.00151851 -0.433063,0.101988 4.44089e-16,-1.66786 2.15166,-4.44089e-16 0,1.66786 -0.43464,-0.101988 -0.00602029,-0.00114005 -0.00609636,-0.000614745 -0.00612669,-8.4822e-05 -0.00611105,0.000445737 -0.00604954,0.000972951 -0.00594264,0.00149286 -0.00579114,0.00200157 -0.00559618,0.00249526 -0.00535923,0.00297023 -0.00508206,0.0034229 -0.00476675,0.00384989 -0.00441567,0.00424799 -0.00403146,0.00461421 -0.00361699,0.0049458 -0.00317538,0.00524028 -0.00270994,0.00549543 -0.00222416,0.00570935 -0.0017217,0.00588042 -0.00120631,0.00600736 -0.00068187,0.00608922 -0.000152314,0.00612539 0.000378385,0.00611559 0.000906245,0.00605989 0.0014273,0.00595872 0.00193765,0.00581284 0.00243346,0.00562333 0.00291101,0.00539162 0.627634,0.90693 0.00374529,0.00493436 0.00416341,0.00458706 0.00454948,0.00420445 0.00490052,0.00378946 0.00521383,0.00334531 0.005487,0.0028754 0.00571793,0.00238335 0.00590484,0.00187295 0.00604629,0.00134814 0.00614119,0.000812945 0.00618881,0.000271492 0,0.741648 z "/>
<path fill="rgb(0,91,140)" stroke="rgb(0,91,140)" d="M 9.6,6.8 l -0.00114159,0.0261467 -0.00341608,0.0259477 -0.00566458,0.0255513 -0.00786996,0.0249603 -0.0100155,0.0241794 -0.0120847,0.0232145 -0.014062,0.0220729 -0.0159323,0.0207634 -0.0176813,0.0192958 -0.0192958,0.0176813 -0.0207634,0.0159323 -0.0220729,0.014062 -0.0232145,0.0120847 -0.0241794,0.0100155 -0.0249603,0.00786996 -0.0255513,0.00566458 -0.0259477,0.00341608 -0.0261467,0.00114159 -4.3,0 -0.499998,0 0,-0.741648 0.00620313,-0.000273316 0.00615513,-0.000817273 0.00605952,-0.00135491 0.00591704,-0.00188207 0.0057288,-0.00239466 0.00549625,-0.00288874 0.00522118,-0.00336048 0.00490574,-0.00380622 0.00455235,-0.00422252 0.00416375,-0.00460617 0.00374294,-0.00495419 0.625976,-0.906794 0.00323239,-0.00515498 0.00276541,-0.00541984 0.00227689,-0.00564251 0.00177065,-0.00582125 0.00125063,-0.00595467 0.000720865,-0.00604173 0.00018549,-0.00608176 -0.000351328,-0.00607443 -0.000885411,-0.00601982 -0.0014126,-0.00591834 -0.00192879,-0.00577078 -0.00242997,-0.0055783 -0.00291223,-0.00534239 -0.00337181,-0.00506488 -0.00380515,-0.00474795 -0.00420886,-0.00439405 -0.00457981,-0.00400594 -0.0049151,-0.00358664 -0.00521212,-0.00313942 -0.00546856,-0.00266777 -0.00568244,-0.00217534 -0.00585207,-0.00166597 -0.00597614,-0.00114364 -0.00605369,-0.000612398 -0.00608411,-7.63917e-05 -0.00606716,0.000460209 -0.00600297,0.000993227 -0.00589205,0.00151851 -0.433063,0.101988 0,-1.66786 2.04466,0 -0.0908978,0.398955 -1.22455e-05,5.35538e-05 -1.22038e-05,5.35633e-05 -1.21622e-05,5.35728e-05 -0.00110269,0.00609554 -0.000564145,0.00616873 -2.12611e-05,0.00619444 0.000521787,0.00617246 0.00106082,0.00610296 0.00159168,0.00598649 0.00211029,0.00582393 0.00261266,0.00561654 0.00309492,0.00536591 0.00355335,0.00507398 0.00398442,0.00474298 0.00438483,0.00437548 0.00475148,0.00397429 0.00508155,0.00354251 0.00537251,0.00308345 0.0056221,0.00260067 0.00582842,0.00209786 0.00598987,0.0015789 0.00610522,0.00104779 0.00617356,0.000508609 0.00619438,-3.4485e-05 0.00616751,-0.000577313 1.08318,-0.14957 0.00314428,-0.000291894 0.00312812,-0.000431945 0.00310572,-0.000571134 0.00594054,-0.00150117 0.00578833,-0.00200966 0.00559269,-0.00250308 0.00535507,-0.00297771 0.00507727,-0.00343 0.00476137,-0.00385655 0.00440973,-0.00425416 0.00402501,-0.00461984 0.00361007,-0.00495085 0.00316805,-0.00524471 0.00270226,-0.00549922 0.00221618,-0.00571245 0.00171348,-0.00588282 0.00119791,-0.00600904 0.00067336,-0.00609017 0.000143754,-0.00612559 -0.000386931,-0.00611505 -0.000914712,-0.00605862 -0.00143563,-0.00595672 -0.00194577,-0.00581012 -0.00244132,-0.00561992 -0.00291854,-0.00538755 -0.00337386,-0.00511475 -0.00380386,-0.00480356 -0.00420532,-0.00445633 -0.00457521,-0.00407566 -0.00491078,-0.0036644 -0.30267,-0.206063 2.07824,0 0,3.05 z "/>
<path fill="rgb(0,91,140)" stroke="rgb(0,91,140)" d="M 1.94194,6.32793 l 0.00374529,0.00493436 0.00416341,0.00458706 0.00454948,0.00420445 0.00490052,0.00378946 0.00521383,0.00334531 0.005487,0.0028754 0.00571793,0.00238335 0.00590484,0.00187295 0.00604629,0.00134814 0.00614119,0.000812945 0.00618881,0.000271492 0,0.741648 -1.3,0 -0.0261467,-0.00114159 -0.0259477,-0.00341608 -0.0255513,-0.00566458 -0.0249603,-0.00786996 -0.0241794,-0.0100155 -0.0232145,-0.0120847 -0.0220729,-0.014062 -0.0207634,-0.0159323 -0.0192958,-0.0176813 -0.0176813,-0.0192958 -0.0159323,-0.0207634 -0.014062,-0.0220729 -0.0120847,-0.0232145 -0.0100155,-0.0241794 -0.00786996,-0.0249603 -0.00566458,-0.0255513 -0.00341608,-0.0259477 -0.00114159,-0.0261467 0,-3.05 1.42583,0 0,1.66786 -0.43464,-0.101988 -0.00602029,-0.00114005 -0.00609636,-0.000614745 -0.00612669,-8.4822e-05 -0.00611105,0.000445737 -0.00604954,0.000972951 -0.00594264,0.00149286 -0.00579114,0.00200157 -0.00559618,0.00249526 -0.00535923,0.00297023 -0.00508206,0.0034229 -0.00476675,0.00384989 -0.00441567,0.00424799 -0.00403146,0.00461421 -0.00361699,0.0049458 -0.00317538,0.00524028 -0.00270994,0.00549543 -0.00222416,0.00570935 -0.0017217,0.00588042 -0.00120631,0.00600736 -0.00068187,0.00608922 -0.000152314,0.00612539 0.000378385,0.00611559 0.000906245,0.00605989 0.0014273,0.00595872 0.00193765,0.00581284 0.00243346,0.00562333 0.00291101,0.00539162 0.627634,0.90693 z "/>
<path fill="rgb(0,91,140)" stroke="rgb(0,91,140)" d="M 5,0.4 l 4.3,0 0.0261467,0.00114159 0.0259477,0.00341608 0.0255513,0.00566458 0.0249603,0.00786996 0.0241794,0.0100155 0.0232145,0.0120847 0.0220729,0.014062 0.0207634,0.0159323 0.0192958,0.0176813 0.0176813,0.0192958 0.0159323,0.0207634 0.014062,0.0220729 0.0120847,0.0232145 0.0100155,0.0241794 0.00786996,0.0249603 0.00566458,0.0255513 0.00341608,0.0259477 0.00114159,0.0261467 0,3.05 -2.07824,0 -0.0663671,-0.0451838 0.718775,-0.659718 0,-1.90345 -0.348339,8.88178e-16 0,1.75035 -0.60598,0.556191 -0.217697,-0.388012 -0.00286544,-0.00536763 -0.00332743,-0.00509415 -0.00376352,-0.00478101 -0.00417031,-0.00443066 -0.00454463,-0.0040458 -0.00488357,-0.00362945 -0.00518449,-0.00318485 -0.00544505,-0.00271545 -0.00566321,-0.0022249 -0.00583729,-0.00171704 -0.00596592,-0.00119581 -0.00604811,-0.00066527 -0.00608321,-0.00012955 -0.00607095,0.000407178 -0.00601142,0.000940737 -0.0059051,0.00146697 -0.0057528,0.00198178 -0.00555571,0.00248117 -0.00531538,0.00296124 -0.00503366,0.00341825 -0.00471275,0.00384866 -0.00435515,0.00424909 -0.00396365,0.00461645 -0.00354129,0.00494787 -0.00309136,0.00524077 -0.00261736,0.00549287 -0.00212298,0.0057022 -0.00161208,0.00586714 -0.153879,0.675384 -2.04466,0 0,-2.60835 -0.348339,-4.44089e-16 0,2.60835 -2.15166,4.44089e-16 -4.44089e-16,-2.60835 -0.348339,-4.44089e-16 0,2.60835 -1.42583,0 8.88178e-16,-3.05 0.00114159,-0.0261467 0.00341608,-0.0259477 0.00566458,-0.0255513 0.00786996,-0.0249603 0.0100155,-0.0241794 0.0120847,-0.0232145 0.014062,-0.0220729 0.0159323,-0.0207634 0.0176813,-0.0192958 0.0192958,-0.0176813 0.0207634,-0.0159323 0.0220729,-0.014062 0.0232145,-0.0120847 0.0241794,-0.0100155 0.0249603,-0.00786996 0.0255513,-0.00566458 0.0259477,-0.00341608 0.0261467,-0.00114159 4.3,0 z "/>
<path fill="rgb(241,240,234)" stroke="rgb(241,240,234)" d="M 7.82583,2.892 l 0,-1.75035 0.348339,-8.88178e-16 0,1.90345 -0.718775,0.659718 0.0663671,0.0451838 0.30267,0.206063 0.00491078,0.0036644 0.00457521,0.00407566 0.00420532,0.00445633 0.00380386,0.00480356 0.00337386,0.00511475 0.00291854,0.00538755 0.00244132,0.00561992 0.00194577,0.00581012 0.00143563,0.00595672 0.000914712,0.00605862 0.000386931,0.00611505 -0.000143754,0.00612559 -0.00067336,0.00609017 -0.00119791,0.00600904 -0.00171348,0.00588282 -0.00221618,0.00571245 -0.00270226,0.00549922 -0.00316805,0.00524471 -0.00361007,0.00495085 -0.00402501,0.00461984 -0.00440973,0.00425416 -0.00476137,0.00385655 -0.00507727,0.00343 -0.00535507,0.00297771 -0.00559269,0.00250308 -0.00578833,0.00200966 -0.00594054,0.00150117 -0.00937812,0.00129497 -1.08318,0.14957 -0.00616751,0.000577313 -0.00619438,3.4485e-05 -0.00617356,-0.000508609 -0.00610522,-0.00104779 -0.00598987,-0.0015789 -0.00582842,-0.00209786 -0.0056221,-0.00260067 -0.00537251,-0.00308345 -0.00508155,-0.00354251 -0.00475148,-0.00397429 -0.00438483,-0.00437548 -0.00398442,-0.00474298 -0.00355335,-0.00507398 -0.00309492,-0.00536591 -0.00261266,-0.00561654 -0.00211029,-0.00582393 -0.00159168,-0.00598649 -0.00106082,-0.00610296 -0.000521787,-0.00617246 2.12611e-05,-0.00619444 0.000564145,-0.00616873 0.00110269,-0.00609554 3.66115e-05,-0.00016069 0.0908978,-0.398955 0.153879,-0.675384 0.00161208,-0.00586714 0.00212298,-0.0057022 0.00261736,-0.00549287 0.00309136,-0.00524077 0.00354129,-0.00494787 0.00396365,-0.00461645 0.00435515,-0.00424909 0.00471275,-0.00384866 0.00503366,-0.00341825 0.00531538,-0.00296124 0.00555571,-0.00248117 0.0057528,-0.00198178 0.0059051,-0.00146697 0.00601142,-0.000940737 0.00607095,-0.000407178 0.00608321,0.00012955 0.00604811,0.00066527 0.00596592,0.00119581 0.00583729,0.00171704 0.00566321,0.0022249 0.00544505,0.00271545 0.00518449,0.00318485 0.00488357,0.00362945 0.00454463,0.0040458 0.00417031,0.00443066 0.00376352,0.00478101 0.00332743,0.00509415 0.00286544,0.00536763 0.217697,0.388012 0.60598,-0.556191 z "/>
<path fill="rgb(241,240,234)" stroke="rgb(241,240,234)" d="M 1.94194,6.32793 l 0.00374529,0.00493436 0.00416341,0.00458706 0.00454948,0.00420445 0.00490052,0.00378946 0.00521383,0.00334531 0.005487,0.0028754 0.00571793,0.00238335 0.00590484,0.00187295 0.00604629,0.00134814 0.00614119,0.000812945 0.00618881,0.000271492 0,-2.60835 0.174169,4.44089e-16 -4.44089e-16,-2.60835 -0.348339,-4.44089e-16 0,2.60835 0,1.66786 -0.43464,-0.101988 -0.00602029,-0.00114005 -0.00609636,-0.000614745 -0.00612669,-8.4822e-05 -0.00611105,0.000445737 -0.00604954,0.000972951 -0.00594264,0.00149286 -0.00579114,0.00200157 -0.00559618,0.00249526 -0.00535923,0.00297023 -0.00508206,0.0034229 -0.00476675,0.00384989 -0.00441567,0.00424799 -0.00403146,0.00461421 -0.00361699,0.0049458 -0.00317538,0.00524028 -0.00270994,0.00549543 -0.00222416,0.00570935 -0.0017217,0.00588042 -0.00120631,0.00600736 -0.00068187,0.00608922 -0.000152314,0.00612539 0.000378385,0.00611559 0.000906245,0.00605989 0.0014273,0.00595872 0.00193765,0.00581284 0.00243346,0.00562333 0.00291101,0.00539162 0.627634,0.90693 z "/>
<path fill="rgb(241,240,234)" stroke="rgb(241,240,234)" d="M 2,6.35835 l 0,-2.60835 0.174169,4.44089e-16 -4.44089e-16,1.66786 0.433063,-0.101988 0.00589205,-0.00151851 0.00600297,-0.000993227 0.00606716,-0.000460209 0.00608411,7.63917e-05 0.00605369,0.000612398 0.00597614,0.00114364 0.00585207,0.00166597 0.00568244,0.00217534 0.00546856,0.00266777 0.00521212,0.00313942 0.0049151,0.00358664 0.00457981,0.00400594 0.00420886,0.00439405 0.00380515,0.00474795 0.00337181,0.00506488 0.00291223,0.00534239 0.00242997,0.0055783 0.00192879,0.00577078 0.0014126,0.00591834 0.000885411,0.00601982 0.000351328,0.00607443 -0.00018549,0.00608176 -0.000720865,0.00604173 -0.00125063,0.00595467 -0.00177065,0.00582125 -0.00227689,0.00564251 -0.00276541,0.00541984 -0.00323239,0.00515498 -0.625976,0.906794 -0.00374294,0.00495419 -0.00416375,0.00460617 -0.00455235,0.00422252 -0.00490574,0.00380622 -0.00522118,0.00336048 -0.00549625,0.00288874 -0.0057288,0.00239466 -0.00591704,0.00188207 -0.00605952,0.00135491 -0.00615513,0.000817273 -0.00620313,0.000273316 z "/>
<path fill="rgb(0,91,140)" stroke="rgb(0,91,140)" d="M 5,7.5 l 0,-0.2 4.3,8.88178e-16 0.0435779,-0.00190265 0.0432462,-0.00569347 0.0425854,-0.00944096 0.0416005,-0.0131166 0.0402991,-0.0166924 0.0386909,-0.0201412 0.0367882,-0.0234367 0.0346056,-0.0265538 0.0321596,-0.0294688 0.0294688,-0.0321596 0.0265538,-0.0346056 0.0234367,-0.0367882 0.0201412,-0.0386909 0.0166924,-0.0402991 0.0131166,-0.0416005 0.00944096,-0.0425854 0.00569347,-0.0432462 0.00190265,-0.0435779 0,-6.1 -0.00190265,-0.0435779 -0.00569347,-0.0432462 -0.00944096,-0.0425854 -0.0131166,-0.0416005 -0.0166924,-0.0402991 -0.0201412,-0.0386909 -0.0234367,-0.0367882 -0.0265538,-0.0346056 -0.0294688,-0.0321596 -0.0321596,-0.0294688 -0.0346056,-0.0265538 -0.0367882,-0.0234367 -0.0386909,-0.0201412 -0.0402991,-0.0166924 -0.0416005,-0.0131166 -0.0425854,-0.00944096 -0.0432462,-0.00569347 -0.0435779,-0.00190265 -4.3,0 0,-0.2 4.3,0 0.061009,0.00266371 0.0605447,0.00797086 0.0596196,0.0132173 0.0582408,0.0183632 0.0564187,0.0233694 0.0541672,0.0281977 0.0515035,0.0328114 0.0484478,0.0371753 0.0450234,0.0412564 0.0412564,0.0450234 0.0371753,0.0484478 0.0328114,0.0515035 0.0281977,0.0541672 0.0233694,0.0564187 0.0183632,0.0582408 0.0132173,0.0596196 0.00797086,0.0605447 0.00266371,0.061009 0,6.1 -0.00266371,0.061009 -0.00797086,0.0605447 -0.0132173,0.0596196 -0.0183632,0.0582408 -0.0233694,0.0564187 -0.0281977,0.0541672 -0.0328114,0.0515035 -0.0371753,0.0484478 -0.0412564,0.0450234 -0.0450234,0.0412564 -0.0484478,0.0371753 -0.0515035,0.0328114 -0.0541672,0.0281977 -0.0564187,0.0233694 -0.0582408,0.0183632 -0.0596196,0.0132173 -0.0605447,0.00797086 -0.061009,0.00266371 -4.3,0 z "/>
<path fill="rgb(0,91,140)" stroke="rgb(0,91,140)" d="M 5,7.5 l -4.3,-8.88178e-16 -0.061009,-0.00266371 -0.0605447,-0.00797086 -0.0596196,-0.0132173 -0.0582408,-0.0183632 -0.0564187,-0.0233694 -0.0541672,-0.0281977 -0.0515035,-0.0328114 -0.0484478,-0.0371753 -0.0450234,-0.0412564 -0.0412564,-0.0450234 -0.0371753,-0.0484478 -0.0328114,-0.0515035 -0.0281977,-0.0541672 -0.0233694,-0.0564187 -0.0183632,-0.0582408 -0.0132173,-0.0596196 -0.00797086,-0.0605447 -0.00266371,-0.061009 8.88178e-16,-6.1 0.00266371,-0.061009 0.00797086,-0.0605447 0.0132173,-0.0596196 0.0183632,-0.0582408 0.0233694,-0.0564187 0.0281977,-0.0541672 0.0328114,-0.0515035 0.0371753,-0.0484478 0.0412564,-0.0450234 0.0450234,-0.0412564 0.0484478,-0.0371753 0.0515035,-0.0328114 0.0541672,-0.0281977 0.0564187,-0.0233694 0.0582408,-0.0183632 0.0596196,-0.0132173 0.0605447,-0.00797086 0.061009,-0.00266371 4.3,-8.88178e-16 0,0.2 -4.3,0 -0.0435779,0.00190265 -0.0432462,0.00569347 -0.0425854,0.00944096 -0.0416005,0.0131166 -0.0402991,0.0166924 -0.0386909,0.0201412 -0.0367882,0.0234367 -0.0346056,0.0265538 -0.0321596,0.0294688 -0.0294688,0.0321596 -0.0265538,0.0346056 -0.0234367,0.0367882 -0.0201412,0.0386909 -0.0166924,0.0402991 -0.0131166,0.0416005 -0.00944096,0.0425854 -0.00569347,0.0432462 -0.00190265,0.0435779 -8.88178e-16,6.1 0.00190265,0.0435779 0.00569347,0.0432462 0.00944096,0.0425854 0.0131166,0.0416005 0.0166924,0.0402991 0.0201412,0.0386909 0.0234367,0.0367882 0.0265538,0.0346056 0.0294688,0.0321596 0.0321596,0.0294688 0.0346056,0.0265538 0.0367882,0.0234367 0.0386909,0.0201412 0.0402991,0.0166924 0.0416005,0.0131166 0.0425854,0.00944096 0.0432462,0.00569347 0.0435779,0.00190265 4.3,0 0,0.2 z "/>
<path fill="rgb(241,240,234)" stroke="rgb(241,240,234)" d="M 5,0.4 l -8.88178e-16,-0.2 4.3,0 0.0435779,0.00190265 0.0432462,0.00569347 0.0425854,0.00944096 0.0416005,0.0131166 0.0402991,0.0166924 0.0386909,0.0201412 0.0367882,0.0234367 0.0346056,0.0265538 0.0321596,0.0294688 0.0294688,0.0321596 0.0265538,0.0346056 0.0234367,0.0367882 0.0201412,0.0386909 0.0166924,0.0402991 0.0131166,0.0416005 0.00944096,0.0425854 0.00569347,0.0432462 0.00190265,0.0435779 0,6.1 -0.00190265,0.0435779 -0.00569347,0.0432462 -0.00944096,0.0425854 -0.0131166,0.0416005 -0.0166924,0.0402991 -0.0201412,0.0386909 -0.0234367,0.0367882 -0.0265538,0.0346056 -0.0294688,0.0321596 -0.0321596,0.0294688 -0.0346056,0.0265538 -0.0367882,0.0234367 -0.0386909,0.0201412 -0.0402991,0.0166924 -0.0416005,0.0131166 -0.0425854,0.00944096 -0.0432462,0.00569347 -0.0435779,0.00190265 -4.3,-8.88178e-16 0,-0.2 4.3,0 0.0261467,-0.00114159 0.0259477,-0.00341608 0.0255513,-0.00566458 0.0249603,-0.00786996 0.0241794,-0.0100155 0.0232145,-0.0120847 0.0220729,-0.014062 0.0207634,-0.0159323 0.0192958,-0.0176813 0.0176813,-0.0192958 0.0159323,-0.0207634 0.014062,-0.0220729 0.0120847,-0.0232145 0.0100155,-0.0241794 0.00786996,-0.0249603 0.00566458,-0.0255513 0.00341608,-0.0259477 0.00114159,-0.0261467 0,-3.05 0,-3.05 -0.00114159,-0.0261467 -0.00341608,-0.0259477 -0.00566458,-0.0255513 -0.00786996,-0.0249603 -0.0100155,-0.0241794 -0.0120847,-0.0232145 -0.014062,-0.0220729 -0.0159323,-0.0207634 -0.0176813,-0.0192958 -0.0192958,-0.0176813 -0.0207634,-0.0159323 -0.0220729,-0.014062 -0.0232145,-0.0120847 -0.0241794,-0.0100155 -0.0249603,-0.00786996 -0.0255513,-0.00566458 -0.0259477,-0.00341608 -0.0261467,-0.00114159 -4.3,0 z "/>
<path fill="rgb(241,240,234)" stroke="rgb(241,240,234)" d="M 4.5,7.1 l 0.499998,0 0,0.2 -4.3,0 -0.0435779,-0.00190265 -0.0432462,-0.00569347 -0.0425854,-0.00944096 -0.0416005,-0.0131166 -0.0402991,-0.0166924 -0.0386909,-0.0201412 -0.0367882,-0.0234367 -0.0346056,-0.0265538 -0.0321596,-0.0294688 -0.0294688,-0.0321596 -0.0265538,-0.0346056 -0.0234367,-0.0367882 -0.0201412,-0.0386909 -0.0166924,-0.0402991 -0.0131166,-0.0416005 -0.00944096,-0.0425854 -0.00569347,-0.0432462 -0.00190265,-0.0435779 8.88178e-16,-6.1 0.00190265,-0.0435779 0.00569347,-0.0432462 0.00944096,-0.0425854 0.0131166,-0.0416005 0.0166924,-0.0402991 0.0201412,-0.0386909 0.0234367,-0.0367882 0.0265538,-0.0346056 0.0294688,-0.0321596 0.0321596,-0.0294688 0.0346056,-0.0265538 0.0367882,-0.0234367 0.0386909,-0.0201412 0.0402991,-0.0166924 0.0416005,-0.0131166 0.0425854,-0.00944096 0.0432462,-0.00569347 0.0435779,-0.00190265 4.3,0 8.88178e-16,0.2 -4.3,0 -0.0261467,0.00114159 -0.0259477,0.00341608 -0.0255513,0.00566458 -0.0249603,0.00786996 -0.0241794,0.0100155 -0.0232145,0.0120847 -0.0220729,0.014062 -0.0207634,0.0159323 -0.0192958,0.0176813 -0.0176813,0.0192958 -0.0159323,0.0207634 -0.014062,0.0220729 -0.0120847,0.0232145 -0.0100155,0.0241794 -0.00786996,0.0249603 -0.00566458,0.0255513 -0.00341608,0.0259477 -0.00114159,0.0261467 -8.88178e-16,3.05 0,3.05 0.00114159,0.0261467 0.00341608,0.0259477 0.00566458,0.0255513 0.00786996,0.0249603 0.0100155,0.0241794 0.0120847,0.0232145 0.014062,0.0220729 0.0159323,0.0207634 0.0176813,0.0192958 0.0192958,0.0176813 0.0207634,0.0159323 0.0220729,0.014062 0.0232145,0.0120847 0.0241794,0.0100155 0.0249603,0.00786996 0.0255513,0.00566458 0.0259477,0.00341608 0.0261467,0.00114159 1.3,0 2.5,8.88178e-16 z "/>
<path fill="rgb(241,240,234)" stroke="rgb(241,240,234)" d="M 4.44194,6.32793 l 0.00374529,0.00493436 0.00416341,0.00458706 0.00454948,0.00420445 0.00490052,0.00378946 0.00521383,0.00334531 0.005487,0.0028754 0.00571793,0.00238335 0.00590484,0.00187295 0.00604629,0.00134814 0.00614119,0.000812945 0.00618881,0.000271492 0,-2.60835 0.174169,0 0,-2.60835 -0.348339,-4.44089e-16 0,2.60835 0,1.66786 -0.43464,-0.101988 -0.00602029,-0.00114005 -0.00609636,-0.000614745 -0.00612669,-8.4822e-05 -0.00611105,0.000445737 -0.00604954,0.000972951 -0.00594264,0.00149286 -0.00579114,0.00200157 -0.00559618,0.00249526 -0.00535923,0.00297023 -0.00508206,0.0034229 -0.00476675,0.00384989 -0.00441567,0.00424799 -0.00403146,0.00461421 -0.00361699,0.0049458 -0.00317538,0.00524028 -0.00270994,0.00549543 -0.00222416,0.00570935 -0.0017217,0.00588042 -0.00120631,0.00600736 -0.00068187,0.00608922 -0.000152314,0.00612539 0.000378385,0.00611559 0.000906245,0.00605989 0.0014273,0.00595872 0.00193765,0.00581284 0.00243346,0.00562333 0.00291101,0.00539162 0.627634,0.90693 z "/>
<path fill="rgb(241,240,234)" stroke="rgb(241,240,234)" d="M 4.5,6.35835 l 0,-2.60835 0.174169,0 0,1.66786 0.433063,-0.101988 0.00589205,-0.00151851 0.00600297,-0.000993227 0.00606716,-0.000460209 0.00608411,7.63917e-05 0.00605369,0.000612398 0.00597614,0.00114364 0.00585207,0.00166597 0.00568244,0.00217534 0.00546856,0.00266777 0.00521212,0.00313942 0.0049151,0.00358664 0.00457981,0.00400594 0.00420886,0.00439405 0.00380515,0.00474795 0.00337181,0.00506488 0.00291223,0.00534239 0.00242997,0.0055783 0.00192879,0.00577078 0.0014126,0.00591834 0.000885411,0.00601982 0.000351328,0.00607443 -0.00018549,0.00608176 -0.000720865,0.00604173 -0.00125063,0.00595467 -0.00177065,0.00582125 -0.00227689,0.00564251 -0.00276541,0.00541984 -0.00323239,0.00515498 -0.625976,0.906794 -0.00374294,0.00495419 -0.00416375,0.00460617 -0.00455235,0.00422252 -0.00490574,0.00380622 -0.00522118,0.00336048 -0.00549625,0.00288874 -0.0057288,0.00239466 -0.00591704,0.00188207 -0.00605952,0.00135491 -0.00615513,0.000817273 -0.00620313,0.000273316 z "/>
</g></g></svg>
