<?xml version="1.0" encoding="UTF-8" standalone="no"?>
<!DOCTYPE svg PUBLIC "-//W3C//DTD SVG 1.1//EN" "http://www.w3.org/Graphics/SVG/1.1/DTD/svg11-flat.dtd"
[

]>
<svg xmlns="http://www.w3.org/2000/svg"  viewBox="-0.09375 -0.09375 7.6875 7.6875"><g fill="none" stroke="black" stroke-width="0.0125" transform="translate(0,7.5) scale(1, -1)">
<g id="Output" >
<path fill="rgb(241,240,234)" stroke="rgb(241,240,234)" d="M 3.89442,3.925 l 1.55083,0 0,-0.175 0,-0.175 -1.55083,-1.33227e-15 0,0.35 z "/>
<path fill="rgb(241,240,234)" stroke="rgb(241,240,234)" d="M 3.89442,3.925 l 0,-0.35 -8.43769e-15,4.44089e-16 8.43769e-15,0.35 z "/>
<path fill="rgb(241,240,234)" stroke="rgb(241,240,234)" d="M 1.99525,3.925 l 1.55083,4.44089e-16 -4.44089e-16,-0.35 -1.55083,0 0,0.175 0,0.175 z "/>
<path fill="rgb(241,240,234)" stroke="rgb(241,240,234)" d="M 3.54608,3.575 l 4.44089e-16,0.35 1.46549e-14,-4.44089e-16 -1.5099e-14,-0.35 z "/>
<path fill="rgb(0,91,140)" stroke="rgb(0,91,140)" d="M 7.5,6.8 l 0,-6.1 -0.00266371,-0.061009 -0.00797086,-0.0605447 -0.0132173,-0.0596196 -0.0183632,-0.0582408 -0.0233694,-0.0564187 -0.0281977,-0.0541672 -0.0328114,-0.0515035 -0.0371753,-0.0484478 -0.0412564,-0.0450234 -0.0450234,-0.0412564 -0.0484478,-0.0371753 -0.0515035,-0.0328114 -0.0541672,-0.0281977 -0.0564187,-0.0233694 -0.0582408,-0.0183632 -0.0596196,-0.0132173 -0.0605447,-0.00797086 -0.061009,-0.00266371 -3.05,-8.88178e-16 4.44089e-16,0.2 3.05,4.44089e-16 0.0435779,0.00190265 0.0432462,0.00569347 0.0425854,0.00944096 0.0416005,0.0131166 0.0402991,0.0166924 0.0386909,0.0201412 0.0367882,0.0234367 0.0346056,0.0265538 0.0321596,0.0294688 0.0294688,0.0321596 0.0265538,0.0346056 0.0234367,0.0367882 0.0201412,0.0386909 0.0166924,0.0402991 0.0131166,0.0416005 0.00944096,0.0425854 0.00569347,0.0432462 0.00190265,0.0435779 0,6.1 -0.00190265,0.0435779 -0.00569347,0.0432462 -0.00944096,0.0425854 -0.0131166,0.0416005 -0.0166924,0.0402991 -0.0201412,0.0386909 -0.0234367,0.0367882 -0.0265538,0.0346056 -0.0294688,0.0321596 -0.0321596,0.0294688 -0.0346056,0.0265538 -0.0367882,0.0234367 -0.0386909,0.0201412 -0.0402991,0.0166924 -0.0416005,0.0131166 -0.0425854,0.00944096 -0.0432462,0.00569347 -0.0435779,0.00190265 -3.05,0 0,0.2 3.05,0 0.061009,-0.00266371 0.0605447,-0.00797086 0.0596196,-0.0132173 0.0582408,-0.0183632 0.0564187,-0.0233694 0.0541672,-0.0281977 0.0515035,-0.0328114 0.0484478,-0.0371753 0.0450234,-0.0412564 0.0412564,-0.0450234 0.0371753,-0.0484478 0.0328114,-0.0515035 0.0281977,-0.0541672 0.0233694,-0.0564187 0.0183632,-0.0582408 0.0132173,-0.0596196 0.00797086,-0.0605447 0.00266371,-0.061009 z "/>
<path fill="rgb(0,91,140)" stroke="rgb(0,91,140)" d="M 0,6.8 l 0,-6.1 0.00266371,-0.061009 0.00797086,-0.0605447 0.0132173,-0.0596196 0.0183632,-0.0582408 0.0233694,-0.0564187 0.0281977,-0.0541672 0.0328114,-0.0515035 0.0371753,-0.0484478 0.0412564,-0.0450234 0.0450234,-0.0412564 0.0484478,-0.0371753 0.0515035,-0.0328114 0.0541672,-0.0281977 0.0564187,-0.0233694 0.0582408,-0.0183632 0.0596196,-0.0132173 0.0605447,-0.00797086 0.061009,-0.00266371 3.05,-8.88178e-16 4.44089e-16,0.2 -3.05,4.44089e-16 -0.0435779,0.00190265 -0.0432462,0.00569347 -0.0425854,0.00944096 -0.0416005,0.0131166 -0.0402991,0.0166924 -0.0386909,0.0201412 -0.0367882,0.0234367 -0.0346056,0.0265538 -0.0321596,0.0294688 -0.0294688,0.0321596 -0.0265538,0.0346056 -0.0234367,0.0367882 -0.0201412,0.0386909 -0.0166924,0.0402991 -0.0131166,0.0416005 -0.00944096,0.0425854 -0.00569347,0.0432462 -0.00190265,0.0435779 0,6.1 0.00190265,0.0435779 0.00569347,0.0432462 0.00944096,0.0425854 0.0131166,0.0416005 0.0166924,0.0402991 0.0201412,0.0386909 0.0234367,0.0367882 0.0265538,0.0346056 0.0294688,0.0321596 0.0321596,0.0294688 0.0346056,0.0265538 0.0367882,0.0234367 0.0386909,0.0201412 0.0402991,0.0166924 0.0416005,0.0131166 0.0425854,0.00944096 0.0432462,0.00569347 0.0435779,0.00190265 3.05,0 0,0.2 -3.05,0 -0.061009,-0.00266371 -0.0605447,-0.00797086 -0.0596196,-0.0132173 -0.0582408,-0.0183632 -0.0564187,-0.0233694 -0.0541672,-0.0281977 -0.0515035,-0.0328114 -0.0484478,-0.0371753 -0.0450234,-0.0412564 -0.0412564,-0.0450234 -0.0371753,-0.0484478 -0.0328114,-0.0515035 -0.0281977,-0.0541672 -0.0233694,-0.0564187 -0.0183632,-0.0582408 -0.0132173,-0.0596196 -0.00797086,-0.0605447 -0.00266371,-0.061009 z "/>
<path fill="rgb(241,240,234)" stroke="rgb(241,240,234)" d="M 1.89525,4.7 l -0.8,0 0,-0.95 -0.1,0 0,1.05 1,0 0,-0.875 0,-0.175 -0.1,0 0,0.95 z "/>
<path fill="rgb(241,240,234)" stroke="rgb(241,240,234)" d="M 0.995248,3.75 l 0.1,0 0,-0.95 0.8,0 0,0.95 0.1,0 -1.42109e-14,-0.175 1.42109e-14,0 0,-0.875 -1,4.44089e-16 0,1.05 z "/>
<path fill="rgb(241,240,234)" stroke="rgb(241,240,234)" d="M 1.99525,3.575 l -1.42109e-14,0 1.42109e-14,0.175 0,-0.175 z "/>
<path fill="rgb(241,240,234)" stroke="rgb(241,240,234)" d="M 3.11284,5.42417 l -0.00588965,-0.00150144 -0.00599898,-0.000977008 -0.00606171,-0.000444982 -0.00607735,9.04999e-05 -0.00604577,0.000625279 -0.00596723,0.0011552 -0.00584233,0.00167615 -0.00567205,0.00218407 -0.0054577,0.00267503 -0.00520096,0.00314521 -0.00490381,0.00359096 -0.00456857,0.00400881 -0.00419783,0.00439551 -0.00379449,0.00474807 -0.00336166,0.00506375 -0.00290273,0.00534008 -0.00242124,0.00557494 -0.00192094,0.00576648 -0.00140572,0.00591323 -0.000879584,0.00601404 -0.000346612,0.00606813 0.000189054,0.00607508 0.00072325,0.00603483 0.00125183,0.00594771 0.00177068,0.00581438 0.00227578,0.00563588 0.0027632,0.0054136 0.00322915,0.00514926 0.625976,0.906794 -0.625976,-0.906794 -0.00322915,-0.00514926 -0.0027632,-0.0054136 -0.00227578,-0.00563588 -0.00177068,-0.00581438 -0.00125183,-0.00594771 -0.00072325,-0.00603483 -0.000189054,-0.00607508 0.000346612,-0.00606813 0.000879584,-0.00601404 0.00140572,-0.00591323 0.00192094,-0.00576648 0.00242124,-0.00557494 0.00290273,-0.00534008 0.00336166,-0.00506375 0.00379449,-0.00474807 0.00419783,-0.00439551 0.00456857,-0.00400881 0.00490381,-0.00359096 0.00520096,-0.00314521 0.0054577,-0.00267503 0.00567205,-0.00218407 0.00584233,-0.00167615 0.00596723,-0.0011552 0.00604577,-0.000625279 0.00607735,-9.04999e-05 0.00606171,0.000444982 0.00599898,0.000977008 0.00588965,0.00150144 z "/>
<path fill="rgb(241,240,234)" stroke="rgb(241,240,234)" d="M 3.89442,3.925 l 0,1.60121 0.43464,-0.101988 8.88178e-15,1.77636e-15 0.00602029,-0.00114005 0.00609636,-0.000614745 0.00612669,-8.4822e-05 0.00611105,0.000445737 0.00604954,0.000972951 0.00594264,0.00149286 0.00579114,0.00200157 0.00559618,0.00249526 0.00535923,0.00297023 0.00508206,0.0034229 0.00476675,0.00384989 0.00441567,0.00424799 0.00403146,0.00461421 0.00361699,0.0049458 0.00317538,0.00524028 0.00270994,0.00549543 0.00222416,0.00570935 0.0017217,0.00588042 0.00120631,0.00600736 0.00068187,0.00608922 0.000152314,0.00612539 -0.000378385,0.00611559 -0.000906245,0.00605989 -0.0014273,0.00595872 -0.00193765,0.00581284 -0.00243346,0.00562333 -0.00291101,0.00539162 -0.00538738,0.00778475 -0.622247,0.899145 -0.00374989,0.0049399 -0.00416895,0.00459175 -0.00455583,0.00420817 -0.00490756,0.00379211 -0.00522142,0.0033468 -0.00549499,0.00287566 -0.00572615,0.00238232 -0.00591313,0.00187061 -0.00605448,0.00134446 -0.00614911,0.000807931 -0.00619629,0.000265171 -0.00619565,-0.000279635 -0.00614721,-0.000822283 -0.00605132,-0.00135859 -0.00590875,-0.00188441 -0.00572058,-0.00239568 -0.00548826,-0.00288847 -0.00521359,-0.00335898 -0.0048987,-0.00380356 -0.004546,-0.00421879 -0.00415822,-0.00460147 -0.00373835,-0.00494864 -2.17604e-14,-2.84217e-14 -0.625976,-0.906794 -0.00322915,-0.00514926 -0.0027632,-0.0054136 -0.00227578,-0.00563588 -0.00177068,-0.00581438 -0.00125183,-0.00594771 -0.00072325,-0.00603483 -0.000189054,-0.00607508 0.000346612,-0.00606813 0.000879584,-0.00601404 0.00140572,-0.00591323 0.00192094,-0.00576648 0.00242124,-0.00557494 0.00290273,-0.00534008 0.00336166,-0.00506375 0.00379449,-0.00474807 0.00419783,-0.00439551 0.00456857,-0.00400881 0.00490381,-0.00359096 0.00520096,-0.00314521 0.0054577,-0.00267503 0.00567205,-0.00218407 0.00584233,-0.00167615 0.00596723,-0.0011552 0.00604577,-0.000625279 0.00607735,-9.04999e-05 0.00606171,0.000444982 0.00599898,0.000977008 0.00588965,0.00150144 5.87057e-05,1.77836e-05 5.86899e-05,1.78358e-05 5.8674e-05,1.7888e-05 0.433063,0.101988 -4.44089e-16,-1.60121 1.46549e-14,-4.44089e-16 -1.5099e-14,-0.35 4.44089e-16,-2.325 0.348339,4.44089e-16 1.42109e-14,2.325 -8.43769e-15,4.44089e-16 8.43769e-15,0.35 z "/>
<path fill="rgb(241,240,234)" stroke="rgb(241,240,234)" d="M 5.44525,3.925 l 3.73035e-14,-4.44089e-16 -4.44089e-15,-0.175 -3.28626e-14,0 0,0.175 z "/>
<path fill="rgb(241,240,234)" stroke="rgb(241,240,234)" d="M 6.44525,4.8 l -1,8.88178e-16 0,-0.875 3.73035e-14,-4.44089e-16 -4.44089e-15,-0.175 0.1,0 0,0.95 0.8,0 0,-0.95 0.1,0 0,1.05 z "/>
<path fill="rgb(241,240,234)" stroke="rgb(241,240,234)" d="M 6.44525,3.75 l -0.1,0 0,-0.95 -1.42109e-14,4.44089e-16 -0.8,4.44089e-16 0,0.95 -0.1,0 -4.44089e-15,-0.175 -2.84217e-14,8.88178e-16 0,-0.875 1,0 0,1.05 z "/>
<path fill="rgb(241,240,234)" stroke="rgb(241,240,234)" d="M 5.44525,3.75 l -4.44089e-15,-0.175 -2.84217e-14,8.88178e-16 0,0.175 3.28626e-14,0 z "/>
<path fill="rgb(241,240,234)" stroke="rgb(241,240,234)" d="M 7.1,6.8 l -0.00114159,0.0261467 -0.00341608,0.0259477 -0.00566458,0.0255513 -0.00786996,0.0249603 -0.0100155,0.0241794 -0.0120847,0.0232145 -0.014062,0.0220729 -0.0159323,0.0207634 -0.0176813,0.0192958 -0.0192958,0.0176813 -0.0207634,0.0159323 -0.0220729,0.014062 -0.0232145,0.0120847 -0.0241794,0.0100155 -0.0249603,0.00786996 -0.0255513,0.00566458 -0.0259477,0.00341608 -0.0261467,0.00114159 -3.05,-8.88178e-16 0,0.2 3.05,0 0.0435779,-0.00190265 0.0432462,-0.00569347 0.0425854,-0.00944096 0.0416005,-0.0131166 0.0402991,-0.0166924 0.0386909,-0.0201412 0.0367882,-0.0234367 0.0346056,-0.0265538 0.0321596,-0.0294688 0.0294688,-0.0321596 0.0265538,-0.0346056 0.0234367,-0.0367882 0.0201412,-0.0386909 0.0166924,-0.0402991 0.0131166,-0.0416005 0.00944096,-0.0425854 0.00569347,-0.0432462 0.00190265,-0.0435779 0,-6.1 -0.00190265,-0.0435779 -0.00569347,-0.0432462 -0.00944096,-0.0425854 -0.0131166,-0.0416005 -0.0166924,-0.0402991 -0.0201412,-0.0386909 -0.0234367,-0.0367882 -0.0265538,-0.0346056 -0.0294688,-0.0321596 -0.0321596,-0.0294688 -0.0346056,-0.0265538 -0.0367882,-0.0234367 -0.0386909,-0.0201412 -0.0402991,-0.0166924 -0.0416005,-0.0131166 -0.0425854,-0.00944096 -0.0432462,-0.00569347 -0.0435779,-0.00190265 -3.05,-4.44089e-16 -4.44089e-16,0.2 3.05,8.88178e-16 0.0261467,0.00114159 0.0259477,0.00341608 0.0255513,0.00566458 0.0249603,0.00786996 0.0241794,0.0100155 0.0232145,0.0120847 0.0220729,0.014062 0.0207634,0.0159323 0.0192958,0.0176813 0.0176813,0.0192958 0.0159323,0.0207634 0.014062,0.0220729 0.0120847,0.0232145 0.0100155,0.0241794 0.00786996,0.0249603 0.00566458,0.0255513 0.00341608,0.0259477 0.00114159,0.0261467 1.77636e-15,6.1 z "/>
<path fill="rgb(241,240,234)" stroke="rgb(241,240,234)" d="M 0.7,0.4 l -0.0261467,0.00114159 -0.0259477,0.00341608 -0.0255513,0.00566458 -0.0249603,0.00786996 -0.0241794,0.0100155 -0.0232145,0.0120847 -0.0220729,0.014062 -0.0207634,0.0159323 -0.0192958,0.0176813 -0.0176813,0.0192958 -0.0159323,0.0207634 -0.014062,0.0220729 -0.0120847,0.0232145 -0.0100155,0.0241794 -0.00786996,0.0249603 -0.00566458,0.0255513 -0.00341608,0.0259477 -0.00114159,0.0261467 1.77636e-15,6.1 0.00114159,0.0261467 0.00341608,0.0259477 0.00566458,0.0255513 0.00786996,0.0249603 0.0100155,0.0241794 0.0120847,0.0232145 0.014062,0.0220729 0.0159323,0.0207634 0.0176813,0.0192958 0.0192958,0.0176813 0.0207634,0.0159323 0.0220729,0.014062 0.0232145,0.0120847 0.0241794,0.0100155 0.0249603,0.00786996 0.0255513,0.00566458 0.0259477,0.00341608 0.0261467,0.00114159 3.05,0 0,0.2 -3.05,0 -0.0435779,-0.00190265 -0.0432462,-0.00569347 -0.0425854,-0.00944096 -0.0416005,-0.0131166 -0.0402991,-0.0166924 -0.0386909,-0.0201412 -0.0367882,-0.0234367 -0.0346056,-0.0265538 -0.0321596,-0.0294688 -0.0294688,-0.0321596 -0.0265538,-0.0346056 -0.0234367,-0.0367882 -0.0201412,-0.0386909 -0.0166924,-0.0402991 -0.0131166,-0.0416005 -0.00944096,-0.0425854 -0.00569347,-0.0432462 -0.00190265,-0.0435779 0,-6.1 0.00190265,-0.0435779 0.00569347,-0.0432462 0.00944096,-0.0425854 0.0131166,-0.0416005 0.0166924,-0.0402991 0.0201412,-0.0386909 0.0234367,-0.0367882 0.0265538,-0.0346056 0.0294688,-0.0321596 0.0321596,-0.0294688 0.0346056,-0.0265538 0.0367882,-0.0234367 0.0386909,-0.0201412 0.0402991,-0.0166924 0.0416005,-0.0131166 0.0425854,-0.00944096 0.0432462,-0.00569347 0.0435779,-0.00190265 3.05,-4.44089e-16 -4.44089e-16,0.2 -3.05,8.88178e-16 z "/>
<path fill="rgb(0,91,140)" stroke="rgb(0,91,140)" d="M 7.1,4.4 l 0,1 -0.7,0 0,-0.6 0.0452479,0 0,-0.4 0.654752,0 z "/>
<path fill="rgb(0,91,140)" stroke="rgb(0,91,140)" d="M 7.1,3.4 l 8.88178e-16,1 -0.654752,0 0,-0.65 0,-0.35 0.654752,0 z "/>
<path fill="rgb(0,91,140)" stroke="rgb(0,91,140)" d="M 7.1,2.4 l 0,1 -0.654752,0 0,-0.7 -0.0452479,0 0,-0.3 0.7,0 z "/>
<path fill="rgb(0,91,140)" stroke="rgb(0,91,140)" d="M 7.1,1.4 l 0,1 -0.7,0 0,-1 0.7,0 z "/>
<path fill="rgb(0,91,140)" stroke="rgb(0,91,140)" d="M 6.4,1.4 l 0,-1 0.4,8.88178e-16 0.0261467,0.00114159 0.0259477,0.00341608 0.0255513,0.00566458 0.0249603,0.00786996 0.0241794,0.0100155 0.0232145,0.0120847 0.0220729,0.014062 0.0207634,0.0159323 0.0192958,0.0176813 0.0176813,0.0192958 0.0159323,0.0207634 0.014062,0.0220729 0.0120847,0.0232145 0.0100155,0.0241794 0.00786996,0.0249603 0.00566458,0.0255513 0.00341608,0.0259477 0.00114159,0.0261467 0,0.7 -0.7,0 z "/>
<path fill="rgb(0,91,140)" stroke="rgb(0,91,140)" d="M 5.4,7.1 l 0,-0.7 1,0 0,0.7 -1,-8.88178e-16 z "/>
<path fill="rgb(0,91,140)" stroke="rgb(0,91,140)" d="M 5.4,5.4 l 1,0 0,1 -1,0 0,-1 z "/>
<path fill="rgb(0,91,140)" stroke="rgb(0,91,140)" d="M 5.44525,4.4 l 0,0.4 0.954752,-8.88178e-16 0,0.6 -1,0 0,-1 0.0452479,0 z "/>
<path fill="rgb(0,91,140)" stroke="rgb(0,91,140)" d="M 6.4,6.4 l 0.7,0 0,0.4 -0.00114159,0.0261467 -0.00341608,0.0259477 -0.00566458,0.0255513 -0.00786996,0.0249603 -0.0100155,0.0241794 -0.0120847,0.0232145 -0.014062,0.0220729 -0.0159323,0.0207634 -0.0176813,0.0192958 -0.0192958,0.0176813 -0.0207634,0.0159323 -0.0220729,0.014062 -0.0232145,0.0120847 -0.0241794,0.0100155 -0.0249603,0.00786996 -0.0255513,0.00566458 -0.0259477,0.00341608 -0.0261467,0.00114159 -0.4,0 0,-0.7 z "/>
<path fill="rgb(0,91,140)" stroke="rgb(0,91,140)" d="M 3.4,4.4 l 0,-0.475 0.146078,0 0,0.475 -0.146078,0 z M 3.4,3.4 l 0.146078,0 0,0.175 -0.146078,0 0,-0.175 z M 4.4,3.575 l -0.505583,-4.44089e-16 0,-0.175 0.505583,0 0,0.175 z M 4.4,3.925 l 0,0.475 -0.505583,0 0,-0.475 0.505583,0 z "/>
<path fill="rgb(0,91,140)" stroke="rgb(0,91,140)" d="M 3.54608,1.4 l 0,1 -0.146078,0 0,-1 0.146078,0 z M 3.89442,1.4 l 0.505583,0 0,1 -0.505583,0 0,-1 z "/>
<path fill="rgb(0,91,140)" stroke="rgb(0,91,140)" d="M 3.54608,2.4 l -4.44089e-16,1 -0.146078,0 0,-1 0.146078,0 z M 3.89442,2.4 l 0.505583,0 0,1 -0.505583,0 0,-1 z "/>
<path fill="rgb(0,91,140)" stroke="rgb(0,91,140)" d="M 5.44525,3.4 l 0,0.175 -0.0452479,0 0,-0.175 0.0452479,0 z M 5.4,3.925 l 0.0452479,0 0,0.475 -0.0452479,0 0,-0.475 z "/>
<path fill="rgb(0,91,140)" stroke="rgb(0,91,140)" d="M 4.4,2.4 l 1,0 0,1 -1,0 0,-1 z "/>
<path fill="rgb(0,91,140)" stroke="rgb(0,91,140)" d="M 5.4,3.575 l -1,-8.88178e-16 0,-0.175 1,0 0,0.175 z M 4.4,3.925 l 1,0 0,0.475 -1,0 0,-0.475 z "/>
<path fill="rgb(0,91,140)" stroke="rgb(0,91,140)" d="M 4.4,4.4 l 1,0 0,1 -1,0 0,-1 z "/>
<path fill="rgb(0,91,140)" stroke="rgb(0,91,140)" d="M 1.4,0.4 l 0,1 -1,0 0,-0.7 0.00114159,-0.0261467 0.00341608,-0.0259477 0.00566458,-0.0255513 0.00786996,-0.0249603 0.0100155,-0.0241794 0.0120847,-0.0232145 0.014062,-0.0220729 0.0159323,-0.0207634 0.0176813,-0.0192958 0.0192958,-0.0176813 0.0207634,-0.0159323 0.0220729,-0.014062 0.0232145,-0.0120847 0.0241794,-0.0100155 0.0249603,-0.00786996 0.0255513,-0.00566458 0.0259477,-0.00341608 0.0261467,-0.00114159 0.7,-8.88178e-16 z "/>
<path fill="rgb(0,91,140)" stroke="rgb(0,91,140)" d="M 0.4,1.4 l 1,0 0,1 -1,0 0,-1 z "/>
<path fill="rgb(0,91,140)" stroke="rgb(0,91,140)" d="M 1.4,2.7 l -0.404752,0 0,0.7 -0.595248,0 0,-1 1,0 0,0.3 z "/>
<path fill="rgb(0,91,140)" stroke="rgb(0,91,140)" d="M 4.4,1.4 l 1,0 0,1 -1,0 0,-1 z "/>
<path fill="rgb(0,91,140)" stroke="rgb(0,91,140)" d="M 0.995248,3.4 l 0,0.35 0,0.65 -0.595248,0 0,-1 0.595248,0 z "/>
<path fill="rgb(0,91,140)" stroke="rgb(0,91,140)" d="M 3.4,7.1 l 0,-0.7 0.237151,0 0.024951,0.0361442 2.17604e-14,2.84217e-14 0.00373835,0.00494864 0.00415822,0.00460147 0.004546,0.00421879 0.0048987,0.00380356 0.00521359,0.00335898 0.00548826,0.00288847 0.00572058,0.00239568 0.00590875,0.00188441 0.00605132,0.00135859 0.00614721,0.000822283 0.00619565,0.000279635 0.00619629,-0.000265171 0.00614911,-0.000807931 0.00605448,-0.00134446 0.00591313,-0.00187061 0.00572615,-0.00238232 0.00549499,-0.00287566 0.00522142,-0.0033468 0.00490756,-0.00379211 0.00455583,-0.00420817 0.00416895,-0.00459175 0.00374989,-0.0049399 0.0251072,-0.0362799 0.596586,0 0,0.7 -0.65,0 -0.35,0 z "/>
<path fill="rgb(0,91,140)" stroke="rgb(0,91,140)" d="M 3.4,5.4 l 0.146078,0 0,0.126209 -0.146078,-0.0344021 0,-0.091807 z M 4.4,5.44838 l -0.00358543,-0.00410371 -0.00441567,-0.00424799 -0.00476675,-0.00384989 -0.00508206,-0.0034229 -0.00535923,-0.00297023 -0.00559618,-0.00249526 -0.00579114,-0.00200157 -0.00594264,-0.00149286 -0.00604954,-0.000972951 -0.00611105,-0.000445737 -0.00612669,8.4822e-05 -0.00609636,0.000614745 -0.00602029,0.00114005 -8.88178e-15,-1.77636e-15 -0.43464,0.101988 0,-0.126209 0.505583,0 0,0.0483845 z M 3.80341,6.4 l 0.596586,-0.862066 0,0.862066 -0.596586,0 z M 3.4,6.05646 l 0.237151,0.343539 -0.237151,0 0,-0.343539 z "/>
<path fill="rgb(0,91,140)" stroke="rgb(0,91,140)" d="M 0.995248,4.4 l 0,0.4 0.404752,0 0,0.6 -1,0 0,-1 0.595248,0 z "/>
<path fill="rgb(0,91,140)" stroke="rgb(0,91,140)" d="M 0.4,5.4 l 1,0 0,1 -1,0 0,-1 z "/>
<path fill="rgb(0,91,140)" stroke="rgb(0,91,140)" d="M 4.4,5.53793 l 0.000553252,-0.000799448 0.00191109,-0.00251385 0.00179699,-0.00259664 0.0016793,-0.00267426 0.00291101,-0.00539162 0.00243346,-0.00562333 0.00193765,-0.00581284 0.0014273,-0.00595872 0.000906245,-0.00605989 0.000378385,-0.00611559 -0.000152314,-0.00612539 -0.00068187,-0.00608922 -0.00120631,-0.00600736 -0.0017217,-0.00588042 -0.00222416,-0.00570935 -0.00270994,-0.00549543 -0.00317538,-0.00524028 -0.00361699,-0.0049458 -0.000446024,-0.000510498 0,-0.0483845 1,0 0,1 -1,0 0,-0.862066 z "/>
<path fill="rgb(0,91,140)" stroke="rgb(0,91,140)" d="M 1.4,0.4 l 1,0 0,1 -1,0 0,-1 z "/>
<path fill="rgb(0,91,140)" stroke="rgb(0,91,140)" d="M 1.4,1.4 l 1,0 0,1 -1,0 0,-1 z "/>
<path fill="rgb(0,91,140)" stroke="rgb(0,91,140)" d="M 1.4,2.7 l 0,-0.3 1,0 0,1 -0.404752,0 0,-0.7 -0.595248,4.44089e-16 z "/>
<path fill="rgb(0,91,140)" stroke="rgb(0,91,140)" d="M 2.4,3.575 l -0.404752,0 0,-0.175 0.404752,0 0,0.175 z M 2.4,3.925 l 0,0.475 -0.404752,0 0,-0.475 0.404752,0 z "/>
<path fill="rgb(0,91,140)" stroke="rgb(0,91,140)" d="M 6.34525,3.75 l 0,-0.95 -1.42109e-14,4.44089e-16 1.42109e-14,0.95 z "/>
<path fill="rgb(0,91,140)" stroke="rgb(0,91,140)" d="M 1.4,4.8 l 0.595248,0 0,-0.4 0.404752,0 0,1 -1,0 0,-0.6 z "/>
<path fill="rgb(0,91,140)" stroke="rgb(0,91,140)" d="M 1.4,5.4 l 1,0 0,1 -1,0 0,-1 z "/>
<path fill="rgb(0,91,140)" stroke="rgb(0,91,140)" d="M 0.4,6.8 l -1.77636e-15,-0.4 1,0 0,0.7 -0.7,0 -0.0261467,-0.00114159 -0.0259477,-0.00341608 -0.0255513,-0.00566458 -0.0249603,-0.00786996 -0.0241794,-0.0100155 -0.0232145,-0.0120847 -0.0220729,-0.014062 -0.0207634,-0.0159323 -0.0192958,-0.0176813 -0.0176813,-0.0192958 -0.0159323,-0.0207634 -0.014062,-0.0220729 -0.0120847,-0.0232145 -0.0100155,-0.0241794 -0.00786996,-0.0249603 -0.00566458,-0.0255513 -0.00341608,-0.0259477 -0.00114159,-0.0261467 z "/>
<path fill="rgb(0,91,140)" stroke="rgb(0,91,140)" d="M 1.4,7.1 l 0,-0.7 1,0 0,0.7 -1,0 z "/>
<path fill="rgb(0,91,140)" stroke="rgb(0,91,140)" d="M 2.4,0.4 l 1,0 0,1 -1,0 0,-1 z "/>
<path fill="rgb(0,91,140)" stroke="rgb(0,91,140)" d="M 7.1,5.4 l 8.88178e-16,1 -0.7,0 0,-1 0.7,0 z "/>
<path fill="rgb(0,91,140)" stroke="rgb(0,91,140)" d="M 2.4,1.4 l 1,0 0,1 -1,0 0,-1 z "/>
<path fill="rgb(0,91,140)" stroke="rgb(0,91,140)" d="M 2.4,2.4 l 1,0 0,1 -1,0 0,-1 z "/>
<path fill="rgb(0,91,140)" stroke="rgb(0,91,140)" d="M 3.54608,4.4 l 4.44089e-16,1 -0.146078,0 0,-1 0.146078,0 z M 3.89442,4.4 l 0.505583,0 0,1 -0.505583,0 0,-1 z "/>
<path fill="rgb(0,91,140)" stroke="rgb(0,91,140)" d="M 4.4,0.4 l 1,0 0,1 -1,0 0,-1 z "/>
<path fill="rgb(0,91,140)" stroke="rgb(0,91,140)" d="M 3.4,3.575 l -1,0 0,-0.175 1,0 0,0.175 z M 2.4,3.925 l 1,4.44089e-16 0,0.475 -1,0 0,-0.475 z "/>
<path fill="rgb(0,91,140)" stroke="rgb(0,91,140)" d="M 2.4,4.4 l 1,0 0,1 -1,0 0,-1 z "/>
<path fill="rgb(0,91,140)" stroke="rgb(0,91,140)" d="M 3.4,5.4 l 0,0.091807 -0.286984,-0.0675859 -5.8674e-05,-1.7888e-05 -5.86899e-05,-1.78358e-05 -5.87057e-05,-1.77836e-05 -0.00588965,-0.00150144 -0.00599898,-0.000977008 -0.00606171,-0.000444982 -0.00607735,9.04999e-05 -0.00604577,0.000625279 -0.00596723,0.0011552 -0.00584233,0.00167615 -0.00567205,0.00218407 -0.0054577,0.00267503 -0.00520096,0.00314521 -0.00490381,0.00359096 -0.00456857,0.00400881 -0.00419783,0.00439551 -0.00379449,0.00474807 -0.00336166,0.00506375 -0.00290273,0.00534008 -0.00242124,0.00557494 -0.00192094,0.00576648 -0.00140572,0.00591323 -0.000879584,0.00601404 -0.000346612,0.00606813 0.000189054,0.00607508 0.00072325,0.00603483 0.00125183,0.00594771 0.00177068,0.00581438 0.00227578,0.00563588 0.0027632,0.0054136 0.00322915,0.00514926 0.363874,0.527111 0,0.343539 -1,0 0,-1 1,0 z "/>
<path fill="rgb(0,91,140)" stroke="rgb(0,91,140)" d="M 2.4,7.1 l 0,-0.7 1,0 0,0.7 -1,0 z "/>
<path fill="rgb(0,91,140)" stroke="rgb(0,91,140)" d="M 4.4,0.4 l 0,1 -0.505583,0 0,-0.15 -1.42109e-14,-4.44089e-16 -0.348339,-4.44089e-16 0,0.15 -0.146078,0 0,-1 0.35,0 0.65,0 z "/>
<path fill="rgb(0,91,140)" stroke="rgb(0,91,140)" d="M 4.4,7.1 l 0,-0.7 1,0 0,0.7 -1,0 z "/>
<path fill="rgb(0,91,140)" stroke="rgb(0,91,140)" d="M 5.4,0.4 l 1,0 0,1 -1,0 0,-1 z "/>
<path fill="rgb(0,91,140)" stroke="rgb(0,91,140)" d="M 5.4,1.4 l 1,0 0,1 -1,0 0,-1 z "/>
<path fill="rgb(0,91,140)" stroke="rgb(0,91,140)" d="M 5.44525,3.4 l -0.0452479,0 0,-1 1,0 0,0.3 -0.954752,0 0,0.7 z "/>
<path fill="rgb(187,30,16)" stroke="rgb(187,30,16)" d="M 1.89525,4.7 l 0,-0.95 0,-0.95 -0.8,0 0,0.95 0,0.95 0.8,0 z "/>
<path fill="rgb(187,30,16)" stroke="rgb(187,30,16)" d="M 6.34525,4.7 l -0.8,0 0,-0.95 0,-0.95 0.8,-4.44089e-16 1.42109e-14,0.95 0,0.95 z "/>
</g></g></svg>
