<?xml version="1.0" encoding="UTF-8" standalone="no"?>
<!DOCTYPE svg PUBLIC "-//W3C//DTD SVG 1.1//EN" "http://www.w3.org/Graphics/SVG/1.1/DTD/svg11-flat.dtd"
[

]>
<svg xmlns="http://www.w3.org/2000/svg"  viewBox="-0.09375 -0.09375 7.6875 7.6875"><g fill="none" stroke="black" stroke-width="0.0125" transform="translate(0,7.5) scale(1, -1)">
<g id="Output" >
<path fill="rgb(241,240,234)" stroke="rgb(241,240,234)" d="M 2.11743,2.8225 l 0.000809487,-0.0185403 0.0024223,-0.0183992 0.00401668,-0.0181181 0.00558049,-0.017699 0.00710182,-0.0171453 0.00856911,-0.0164611 0.00997118,-0.0156516 0.0112974,-0.014723 0.0125376,-0.0136824 0.0136824,-0.0125376 0.014723,-0.0112974 0.0156516,-0.00997118 0.0164611,-0.00856911 0.0171453,-0.00710182 0.017699,-0.00558049 0.0181181,-0.00401668 0.0183992,-0.0024223 0.0185403,-0.000809487 0.0185403,0.000809487 0.0183992,0.0024223 0.0181181,0.00401668 0.017699,0.00558049 0.0171453,0.00710182 0.0164611,0.00856911 0.0156516,0.00997118 0.014723,0.0112974 0.0136824,0.0125376 0.0125376,0.0136824 0.0112974,0.014723 0.00997118,0.0156516 0.00856911,0.0164611 0.00710182,0.0171453 0.00558049,0.017699 0.00401668,0.0181181 0.0024223,0.0183992 0.000809487,0.0185403 -0.000800309,0.0184351 -0.00239491,0.0182964 -0.00397148,0.01802 -0.00551818,0.017608 -0.00702335,0.0170636 -0.00847568,0.0163907 -0.00986423,0.0155946 -0.0111786,0.014681 -0.0124088,0.0136571 -0.0135456,0.0125303 -0.0146999,0.0113938 -0.0156389,0.0100662 -0.0164584,0.00866178 -0.0171521,0.0071911 -0.0177146,0.00566545 -0.0181418,0.0040965 -0.0184303,0.00249623 -0.0185779,0.000876881 -0.0185834,-0.00074917 -0.018447,-0.00236949 -0.0181695,-0.00397171 -0.0177532,-0.00554356 -0.0172011,-0.00707304 -0.0165176,-0.00854845 -0.0157077,-0.00995852 -0.0147779,-0.0112925 -0.013735,-0.0125401 -0.0125872,-0.0136919 -0.0113432,-0.014739 -0.0100124,-0.0156734 -0.00860517,-0.0164881 -0.00713211,-0.0171767 -0.00560454,-0.017734 -0.00403413,-0.0181558 -0.00243288,-0.0184387 -0.00081303,-0.0185808 z "/>
<path fill="rgb(241,240,234)" stroke="rgb(241,240,234)" d="M 4.46642,3.72894 l -0.0398961,-0.0219619 -0.0378773,-0.0252851 -0.0355823,-0.028424 -0.0330279,-0.0313557 -0.0302328,-0.0340588 -0.0272173,-0.0365136 -0.0240034,-0.0387022 -0.0206145,-0.0406087 -0.0170753,-0.0422192 -0.0134116,-0.0435219 -0.00965017,-0.0445073 -0.00581839,-0.0451682 -0.00194419,-0.0454999 0.00202971,-0.0464881 0.0060737,-0.0461343 0.0100715,-0.0454294 0.0139926,-0.0443787 0.0178072,-0.0429903 0.0214863,-0.0412747 0.0250018,-0.039245 0.0283271,-0.0369166 0.0314368,-0.0343073 0.0343073,-0.0314368 0.0369166,-0.0283271 0.039245,-0.0250018 0.0412747,-0.0214863 0.0429903,-0.0178072 0.0443787,-0.0139926 0.0454294,-0.0100715 0.0461343,-0.0060737 0.0464881,-0.00202971 0.0464881,0.00202971 0.0461343,0.0060737 0.0454294,0.0100715 0.0443787,0.0139926 0.0429903,0.0178072 0.0412747,0.0214863 0.039245,0.0250018 0.0369166,0.0283271 0.0343073,0.0314368 0.0314368,0.0343073 0.0283271,0.0369166 0.0250018,0.039245 0.0214863,0.0412747 0.0178072,0.0429903 0.0139926,0.0443787 0.0100715,0.0454294 0.0060737,0.0461343 0.00202971,0.0464881 -0.168258,0 -0.00138944,-0.0318234 -0.00415775,-0.0315812 -0.00689441,-0.0310987 -0.0095786,-0.0303794 -0.0121899,-0.029429 -0.0147084,-0.0282546 -0.017115,-0.0268652 -0.0193913,-0.0252713 -0.0215201,-0.023485 -0.023485,-0.0215201 -0.0252713,-0.0193913 -0.0268652,-0.017115 -0.0282546,-0.0147084 -0.029429,-0.0121899 -0.0303794,-0.0095786 -0.0310987,-0.00689441 -0.0315812,-0.00415775 -0.0318234,-0.00138944 -0.0318234,0.00138944 -0.0315812,0.00415775 -0.0310987,0.00689441 -0.0303794,0.0095786 -0.029429,0.0121899 -0.0282546,0.0147084 -0.0268652,0.017115 -0.0252713,0.0193913 -0.023485,0.0215201 -0.0215201,0.023485 -0.0193913,0.0252713 -0.017115,0.0268652 -0.0147084,0.0282546 -0.0121899,0.029429 -0.0095786,0.0303794 -0.00689441,0.0310987 -0.00415775,0.0315812 -0.00138944,0.0318234 0.00133089,0.031147 0.00398297,0.0309199 0.00660602,0.0304674 0.00918091,0.0297929 0.0116889,0.0289011 0.0141116,0.0277987 0.0164315,0.0264936 0.0186316,0.0249954 0.0206959,0.0233149 0.0226093,0.0214645 0.0243578,0.0194576 0.0259289,0.0173089 0.0273109,0.015034 -0.0747744,0.150731 z "/>
<path fill="rgb(241,240,234)" stroke="rgb(241,240,234)" d="M 4.46642,3.72894 l 0.0747744,-0.150731 0.0294832,0.0130374 0.0305182,0.0103861 0.0313154,0.00765386 0.0318684,0.00486192 0.032173,0.0020321 0.0322269,-0.000813574 0.0320295,-0.0036529 0.0315825,-0.00646375 0.0308893,-0.00922422 0.0299553,-0.0119128 0.0287878,-0.0145085 0.0273959,-0.0169911 0.0257905,-0.0193413 0.023984,-0.0215407 0.0219906,-0.0235722 0.0198257,-0.0254199 0.0175063,-0.0270696 0.0150505,-0.0285082 0.0124773,-0.0297245 0.00980693,-0.0307092 0.00706007,-0.0314545 0.00425817,-0.0319547 0.00142309,-0.0322057 0.168258,0 -0.00207887,0.0470466 -0.0062204,0.0466798 -0.0103135,0.0459493 -0.0143261,0.0448605 -0.0182271,0.0434221 -0.021986,0.0416451 -0.0255735,0.0395436 -0.0289617,0.0371338 -0.0321241,0.0344346 -0.0350362,0.031467 -0.0376751,0.028254 -0.0400203,0.0248209 -0.0420536,0.0211942 -0.0437591,0.0174024 -0.0451235,0.0134749 -0.0461361,0.00944235 -0.0467892,0.00533621 -0.0470775,0.00118848 -0.0469988,-0.00296851 -0.0465538,-0.00710237 -0.0457459,-0.0111809 -0.0445814,-0.0151722 -0.0430695,-0.0190453 z "/>
<path fill="rgb(241,240,234)" stroke="rgb(241,240,234)" d="M 3.5573,4.27029 l 0.320678,0 0.222234,0.196848 0.892194,0 0,0.841383 -1.16207,0 -0.273032,-1.03823 z "/>
<path fill="rgb(241,240,234)" stroke="rgb(241,240,234)" d="M 4.25516,4.15478 l -0.0774183,-0.0425727 -0.073402,-0.049175 -0.0688241,-0.055401 -0.0637197,-0.0612032 -0.0581278,-0.0665371 -0.0520912,-0.071362 -0.045656,-0.075641 -0.0388716,-0.0793412 -0.0317898,-0.0824344 -0.0244648,-0.084897 -0.0169526,-0.0867101 -0.00931068,-0.0878598 -0.00159755,-0.0883373 0.00612779,-0.088139 0.0138063,-0.0872663 -0.844548,0 -0.0235879,0.0496319 -0.0281434,0.0471981 -0.0324504,0.0443473 -0.0364706,0.0411048 -0.0401687,0.0374992 -0.062221,-0.0734089 0.0310338,-0.0287076 0.0284292,-0.0312891 0.0256107,-0.0336351 0.0225995,-0.035728 0.0194182,-0.0375521 0.0160909,-0.0390936 0.0126424,-0.040341 0.00909888,-0.0412848 0.00548686,-0.041918 0.00183355,-0.0422358 -0.00185458,-0.0424768 -0.00554962,-0.0421535 -0.00920243,-0.0415095 -0.0127852,-0.0405495 -0.0162707,-0.0392809 -0.0196323,-0.0377133 -0.0228445,-0.0358587 -0.0258829,-0.0337312 -0.0287243,-0.031347 -0.031347,-0.0287243 -0.0337312,-0.0258829 -0.0358587,-0.0228445 -0.0377133,-0.0196323 -0.0392809,-0.0162707 -0.0405495,-0.0127852 -0.0415095,-0.00920243 -0.0421535,-0.00554962 -0.0424768,-0.00185458 -0.0424768,0.00185458 -0.0421535,0.00554962 -0.0415095,0.00920243 -0.0405495,0.0127852 -0.0392809,0.0162707 -0.0377133,0.0196323 -0.0358587,0.0228445 -0.0337312,0.0258829 -0.031347,0.0287243 -0.0287243,0.031347 -0.0258829,0.0337312 -0.0228445,0.0358587 -0.0196323,0.0377133 -0.0162707,0.0392809 -0.0127852,0.0405495 -0.00920243,0.0415095 -0.00554962,0.0421535 -0.00185458,0.0424768 -0.575175,0 0.0893962,-0.210961 0.107285,-0.202451 0.124372,-0.192427 0.140529,-0.180964 0.155635,-0.168149 0.169578,-0.154077 0.182253,-0.138853 0.193566,-0.122591 0.203432,-0.105412 0.211777,-0.087446 0.218539,-0.0688259 0.223668,-0.0496913 0.227124,-0.0301851 0.228882,-0.0104534 0.22893,0.0093565 0.227266,0.0290965 0.223903,0.0486189 0.218866,0.0677779 0.212194,0.0864302 0.203935,0.104436 0.194151,0.121662 0.182917,0.137978 0.170314,0.153263 0.156439,0.167401 0.141394,0.180289 0.125292,0.191829 0.108254,0.201934 0.0904061,0.210531 0.0718826,0.217553 0.0528217,0.222949 -0.731581,0 -0.00349167,-0.0799723 -0.0104484,-0.0793637 -0.0173257,-0.0781511 -0.0240711,-0.0763436 -0.0306332,-0.0739552 -0.0369623,-0.0710039 -0.04301,-0.0675122 -0.0487305,-0.0635068 -0.05408,-0.059018 -0.059018,-0.05408 -0.0635068,-0.0487305 -0.0675122,-0.04301 -0.0710039,-0.0369623 -0.0739552,-0.0306332 -0.0763436,-0.0240711 -0.0781511,-0.0173257 -0.0793637,-0.0104484 -0.0799723,-0.00349167 -0.0799723,0.00349167 -0.0793637,0.0104484 -0.0781511,0.0173257 -0.0763436,0.0240711 -0.0739552,0.0306332 -0.0710039,0.0369623 -0.0675122,0.04301 -0.0635068,0.0487305 -0.059018,0.05408 -0.05408,0.059018 -0.0487305,0.0635068 -0.04301,0.0675122 -0.0369623,0.0710039 -0.0306332,0.0739552 -0.0240711,0.0763436 -0.0173257,0.0781511 -0.0104484,0.0793637 -0.00349167,0.0799723 0.00334454,0.0782724 0.0100092,0.0777018 0.0166009,0.0765648 0.0230717,0.0748696 0.0293742,0.0726286 0.0354625,0.0698582 0.0412924,0.0665785 0.0468212,0.0628134 0.0520088,0.0585905 0.0568171,0.0539404 0.0612113,0.0488971 0.0651593,0.0434974 0.0686323,0.0377805 -0.0405194,0.0816793 z "/>
<path fill="rgb(241,240,234)" stroke="rgb(241,240,234)" d="M 3.67476,5.3244 l 0,0.171449 1.48908,0 0,-1.13348 0.339721,-0.282567 -0.101596,-0.101609 -0.0662999,0.0582557 -0.0711321,0.052246 -0.0754211,0.0458374 -0.0791344,0.0390788 -0.0822436,0.032022 -0.0847249,0.0247206 -0.0865593,0.0172306 -0.087733,0.00960896 -0.0882369,0.001914 -0.0880671,-0.00579558 -0.0872251,-0.0134609 -0.0857171,-0.0210235 -0.0835548,-0.0284255 -0.0807545,-0.0356106 0.0405194,-0.0816793 0.0740913,0.0327631 0.0766924,0.0261004 0.0786956,0.0192342 0.0800854,0.012218 0.0808509,0.00510666 0.0809862,-0.00204451 0.0804902,-0.00917975 0.0793669,-0.0162434 0.0776248,-0.0231805 0.0752777,-0.0299369 0.0723438,-0.0364599 0.068846,-0.0426987 0.0648115,-0.0486047 0.0602718,-0.0541318 0.0552623,-0.059237 0.0498221,-0.0638804 0.0439935,-0.0680259 0.037822,-0.0716411 0.0313556,-0.0746979 0.0246448,-0.0771724 0.017742,-0.0790454 0.0107008,-0.0803022 0.00357623,-0.080933 0.731581,0 0.0262893,0.165188 0.0158156,0.166517 0.00527888,0.167183 -0.0100841,0.230963 -0.0301754,0.229205 -0.0500371,0.225703 -0.069518,0.220483 -0.0884698,0.213585 -0.106748,0.205062 -0.124214,0.194978 -0.140735,0.18341 -0.156185,0.170446 -0.170446,0.156185 -0.18341,0.140735 -0.194978,0.124214 -0.205062,0.106748 -0.213585,0.0884698 -0.220483,0.069518 -0.225703,0.0500371 -0.229205,0.0301754 -0.230963,0.0100841 -0.230963,-0.0100841 -0.229205,-0.0301754 -0.225703,-0.0500371 -0.220483,-0.069518 -0.213585,-0.0884698 -0.205062,-0.106748 -0.194978,-0.124214 -0.18341,-0.140735 -0.170446,-0.156185 -0.156185,-0.170446 -0.140735,-0.18341 -0.124214,-0.194978 -0.106748,-0.205062 -0.0884698,-0.213585 -0.069518,-0.220483 -0.0500371,-0.225703 -0.0301754,-0.229205 -0.0100841,-0.230963 0.0105812,-0.236577 0.0316592,-0.234688 0.0524844,-0.230924 0.0728904,-0.225317 0.575175,0 0.0018627,0.0425695 0.00557385,0.0422441 0.0092424,0.0415958 0.0128403,0.0406295 0.0163401,0.0393527 0.0197149,0.0377751 0.0229391,0.0359087 0.0259879,0.0337678 0.028838,0.0313688 0.0314677,0.02873 0.0338569,0.0258717 0.0359873,0.0228155 0.0378426,0.019585 0.0394086,0.0162047 0.0406734,0.0127006 0.0416273,0.0090994 0.042263,0.00542864 0.0425757,0.00171639 0.0425629,-0.00200898 0.0422247,-0.005719 0.0415638,-0.0093853 0.0405852,-0.0129799 0.0392963,-0.0164752 0.0377071,-0.0198446 0.0358296,-0.0230623 0.0336783,-0.0261038 0.062221,0.0734089 -0.0413101,0.0320158 -0.0440042,0.0281988 -0.0463466,0.0241564 -0.0483187,0.019921 -0.0499046,0.0155264 -0.0510918,0.0110077 -0.0518707,0.00640111 -0.052235,0.00174332 -0.052182,-0.0029284 -0.051712,-0.00757671 -0.0508288,-0.0121645 -0.0495394,-0.0166551 -0.0478541,-0.0210125 -0.0457864,-0.0252021 -0.0433528,-0.0291903 -0.0405728,-0.0329452 -0.0374686,-0.0364368 -0.136529,0 0,0.82861 0.000555469,0.0190069 0.00222547,0.0188843 0.00387822,0.0186153 0.00550089,0.0182019 0.0070809,0.0176474 0.008606,0.016956 0.0100644,0.0161332 0.0114447,0.0151852 0.0127362,0.0141194 0.013929,0.0129442 0.0150138,0.0116686 0.0159821,0.0103025 0.0168266,0.00885648 0.0175405,0.0073418 0.0181184,0.00577019 0.0185558,0.00415382 0.0188492,0.00250525 0.0189966,0.000837248 1.38747,0 0.304788,1.05411 z "/>
<path fill="rgb(241,240,234)" stroke="rgb(241,240,234)" d="M 0.2,3.75 l 0.0135088,-0.309403 0.0404237,-0.307048 0.0670308,-0.302357 0.0931279,-0.295364 0.118516,-0.286123 0.143002,-0.274705 0.1664,-0.261196 0.188532,-0.2457 0.209229,-0.228333 0.228333,-0.209229 0.2457,-0.188532 0.261196,-0.1664 0.274705,-0.143002 0.286123,-0.118516 0.295364,-0.0931279 0.302357,-0.0670308 0.307048,-0.0404237 0.309403,-0.0135088 0.309403,0.0135088 0.307048,0.0404237 0.302357,0.0670308 0.295364,0.0931279 0.286123,0.118516 0.274705,0.143002 0.261196,0.1664 0.2457,0.188532 0.228333,0.209229 0.209229,0.228333 0.188532,0.2457 0.1664,0.261196 0.143002,0.274705 0.118516,0.286123 0.0931279,0.295364 0.0670308,0.302357 0.0404237,0.307048 0.0135088,0.309403 -0.2,0 -0.0127478,-0.291972 -0.0381463,-0.28975 -0.0632545,-0.285322 -0.0878812,-0.278724 -0.111839,-0.270004 -0.134946,-0.259229 -0.157026,-0.246481 -0.17791,-0.231857 -0.197441,-0.215469 -0.215469,-0.197441 -0.231857,-0.17791 -0.246481,-0.157026 -0.259229,-0.134946 -0.270004,-0.111839 -0.278724,-0.0878812 -0.285322,-0.0632545 -0.28975,-0.0381463 -0.291972,-0.0127478 -0.291972,0.0127478 -0.28975,0.0381463 -0.285322,0.0632545 -0.278724,0.0878812 -0.270004,0.111839 -0.259229,0.134946 -0.246481,0.157026 -0.231857,0.17791 -0.215469,0.197441 -0.197441,0.215469 -0.17791,0.231857 -0.157026,0.246481 -0.134946,0.259229 -0.111839,0.270004 -0.0878812,0.278724 -0.0632545,0.285322 -0.0381463,0.28975 -0.0127478,0.291972 -0.2,0 z "/>
<path fill="rgb(241,240,234)" stroke="rgb(241,240,234)" d="M 0.2,3.75 l 0.2,0 0.0127478,0.291972 0.0381463,0.28975 0.0632545,0.285322 0.0878812,0.278724 0.111839,0.270004 0.134946,0.259229 0.157026,0.246481 0.17791,0.231857 0.197441,0.215469 0.215469,0.197441 0.231857,0.17791 0.246481,0.157026 0.259229,0.134946 0.270004,0.111839 0.278724,0.0878812 0.285322,0.0632545 0.28975,0.0381463 0.291972,0.0127478 0.291972,-0.0127478 0.28975,-0.0381463 0.285322,-0.0632545 0.278724,-0.0878812 0.270004,-0.111839 0.259229,-0.134946 0.246481,-0.157026 0.231857,-0.17791 0.215469,-0.197441 0.197441,-0.215469 0.17791,-0.231857 0.157026,-0.246481 0.134946,-0.259229 0.111839,-0.270004 0.0878812,-0.278724 0.0632545,-0.285322 0.0381463,-0.28975 0.0127478,-0.291972 0.2,0 -0.0135088,0.309403 -0.0404237,0.307048 -0.0670308,0.302357 -0.0931279,0.295364 -0.118516,0.286123 -0.143002,0.274705 -0.1664,0.261196 -0.188532,0.2457 -0.209229,0.228333 -0.228333,0.209229 -0.2457,0.188532 -0.261196,0.1664 -0.274705,0.143002 -0.286123,0.118516 -0.295364,0.0931279 -0.302357,0.0670308 -0.307048,0.0404237 -0.309403,0.0135088 -0.309403,-0.0135088 -0.307048,-0.0404237 -0.302357,-0.0670308 -0.295364,-0.0931279 -0.286123,-0.118516 -0.274705,-0.143002 -0.261196,-0.1664 -0.2457,-0.188532 -0.228333,-0.209229 -0.209229,-0.228333 -0.188532,-0.2457 -0.1664,-0.261196 -0.143002,-0.274705 -0.118516,-0.286123 -0.0931279,-0.295364 -0.0670308,-0.302357 -0.0404237,-0.307048 -0.0135088,-0.309403 z "/>
<path fill="rgb(42,41,42)" stroke="rgb(42,41,42)" d="M 5.06859,3.25111 l -0.00142309,0.0322057 -0.00425817,0.0319547 -0.00706007,0.0314545 -0.00980693,0.0307092 -0.0124773,0.0297245 -0.0150505,0.0285082 -0.0175063,0.0270696 -0.0198257,0.0254199 -0.0219906,0.0235722 -0.023984,0.0215407 -0.0257905,0.0193413 -0.0273959,0.0169911 -0.0287878,0.0145085 -0.0299553,0.0119128 -0.0308893,0.00922422 -0.0315825,0.00646375 -0.0320295,0.0036529 -0.0322269,0.000813574 -0.032173,-0.0020321 -0.0318684,-0.00486192 -0.0313154,-0.00765386 -0.0305182,-0.0103861 -0.0294832,-0.0130374 -0.0273109,-0.015034 -0.0259289,-0.0173089 -0.0243578,-0.0194576 -0.0226093,-0.0214645 -0.0206959,-0.0233149 -0.0186316,-0.0249954 -0.0164315,-0.0264936 -0.0141116,-0.0277987 -0.0116889,-0.0289011 -0.00918091,-0.0297929 -0.00660602,-0.0304674 -0.00398297,-0.0309199 -0.00133089,-0.031147 0.00138944,-0.0318234 0.00415775,-0.0315812 0.00689441,-0.0310987 0.0095786,-0.0303794 0.0121899,-0.029429 0.0147084,-0.0282546 0.017115,-0.0268652 0.0193913,-0.0252713 0.0215201,-0.023485 0.023485,-0.0215201 0.0252713,-0.0193913 0.0268652,-0.017115 0.0282546,-0.0147084 0.029429,-0.0121899 0.0303794,-0.0095786 0.0310987,-0.00689441 0.0315812,-0.00415775 0.0318234,-0.00138944 0.0318234,0.00138944 0.0315812,0.00415775 0.0310987,0.00689441 0.0303794,0.0095786 0.029429,0.0121899 0.0282546,0.0147084 0.0268652,0.017115 0.0252713,0.0193913 0.023485,0.0215201 0.0215201,0.023485 0.0193913,0.0252713 0.017115,0.0268652 0.0147084,0.0282546 0.0121899,0.029429 0.0095786,0.0303794 0.00689441,0.0310987 0.00415775,0.0315812 0.00138944,0.0318234 z "/>
<path fill="rgb(42,41,42)" stroke="rgb(42,41,42)" d="M 3.67476,5.3244 l -0.304788,-1.05411 -1.38747,0 -0.0189966,-0.000837248 -0.0188492,-0.00250525 -0.0185558,-0.00415382 -0.0181184,-0.00577019 -0.0175405,-0.0073418 -0.0168266,-0.00885648 -0.0159821,-0.0103025 -0.0150138,-0.0116686 -0.013929,-0.0129442 -0.0127362,-0.0141194 -0.0114447,-0.0151852 -0.0100644,-0.0161332 -0.008606,-0.016956 -0.0070809,-0.0176474 -0.00550089,-0.0182019 -0.00387822,-0.0186153 -0.00222547,-0.0188843 -0.000555469,-0.0190069 0,-0.82861 0.136529,0 0.0374686,0.0364368 0.0405728,0.0329452 0.0433528,0.0291903 0.0457864,0.0252021 0.0478541,0.0210125 0.0495394,0.0166551 0.0508288,0.0121645 0.051712,0.00757671 0.052182,0.0029284 0.052235,-0.00174332 0.0518707,-0.00640111 0.0510918,-0.0110077 0.0499046,-0.0155264 0.0483187,-0.019921 0.0463466,-0.0241564 0.0440042,-0.0281988 0.0413101,-0.0320158 0.849797,1.0026 0.273032,1.03823 1.16207,0 0,-0.841383 -0.892194,0 0.154951,-0.312352 0.0807545,0.0356106 0.0835548,0.0284255 0.0857171,0.0210235 0.0872251,0.0134609 0.0880671,0.00579558 0.0882369,-0.001914 0.087733,-0.00960896 0.0865593,-0.0172306 0.0847249,-0.0247206 0.0822436,-0.032022 0.0791344,-0.0390788 0.0754211,-0.0458374 0.0711321,-0.052246 0.0662999,-0.0582557 0.101596,0.101609 -0.339721,0.282567 0,1.13348 -1.48908,0 0,-0.171449 z "/>
<path fill="rgb(42,41,42)" stroke="rgb(42,41,42)" d="M 4.25516,4.15478 l -0.154951,0.312352 -0.222234,-0.196848 -0.320678,0 -0.849797,-1.0026 0.0401687,-0.0374992 0.0364706,-0.0411048 0.0324504,-0.0443473 0.0281434,-0.0471981 0.0235879,-0.0496319 0.844548,0 -0.0138063,0.0872663 -0.00612779,0.088139 0.00159755,0.0883373 0.00931068,0.0878598 0.0169526,0.0867101 0.0244648,0.084897 0.0317898,0.0824344 0.0388716,0.0793412 0.045656,0.075641 0.0520912,0.071362 0.0581278,0.0665371 0.0637197,0.0612032 0.0688241,0.055401 0.073402,0.049175 0.0774183,0.0425727 z "/>
<path fill="rgb(42,41,42)" stroke="rgb(42,41,42)" d="M 2.64528,3.19428 l -0.0336783,0.0261038 -0.0358296,0.0230623 -0.0377071,0.0198446 -0.0392963,0.0164752 -0.0405852,0.0129799 -0.0415638,0.0093853 -0.0422247,0.005719 -0.0425629,0.00200898 -0.0425757,-0.00171639 -0.042263,-0.00542864 -0.0416273,-0.0090994 -0.0406734,-0.0127006 -0.0394086,-0.0162047 -0.0378426,-0.019585 -0.0359873,-0.0228155 -0.0338569,-0.0258717 -0.0314677,-0.02873 -0.028838,-0.0313688 -0.0259879,-0.0337678 -0.0229391,-0.0359087 -0.0197149,-0.0377751 -0.0163401,-0.0393527 -0.0128403,-0.0406295 -0.0092424,-0.0415958 -0.00557385,-0.0422441 -0.0018627,-0.0425695 0.274641,0 0.00081303,0.0185808 0.00243288,0.0184387 0.00403413,0.0181558 0.00560454,0.017734 0.00713211,0.0171767 0.00860517,0.0164881 0.0100124,0.0156734 0.0113432,0.014739 0.0125872,0.0136919 0.013735,0.0125401 0.0147779,0.0112925 0.0157077,0.00995852 0.0165176,0.00854845 0.0172011,0.00707304 0.0177532,0.00554356 0.0181695,0.00397171 0.018447,0.00236949 0.0185834,0.00074917 0.0185779,-0.000876881 0.0184303,-0.00249623 0.0181418,-0.0040965 0.0177146,-0.00566545 0.0171521,-0.0071911 0.0164584,-0.00866178 0.0156389,-0.0100662 0.0146999,-0.0113938 0.177578,0.209508 z "/>
<path fill="rgb(42,41,42)" stroke="rgb(42,41,42)" d="M 2.64528,3.19428 l -0.177578,-0.209508 0.0135456,-0.0125303 0.0124088,-0.0136571 0.0111786,-0.014681 0.00986423,-0.0155946 0.00847568,-0.0163907 0.00702335,-0.0170636 0.00551818,-0.017608 0.00397148,-0.01802 0.00239491,-0.0182964 0.000800309,-0.0184351 -0.000809487,-0.0185403 -0.0024223,-0.0183992 -0.00401668,-0.0181181 -0.00558049,-0.017699 -0.00710182,-0.0171453 -0.00856911,-0.0164611 -0.00997118,-0.0156516 -0.0112974,-0.014723 -0.0125376,-0.0136824 -0.0136824,-0.0125376 -0.014723,-0.0112974 -0.0156516,-0.00997118 -0.0164611,-0.00856911 -0.0171453,-0.00710182 -0.017699,-0.00558049 -0.0181181,-0.00401668 -0.0183992,-0.0024223 -0.0185403,-0.000809487 -0.0185403,0.000809487 -0.0183992,0.0024223 -0.0181181,0.00401668 -0.017699,0.00558049 -0.0171453,0.00710182 -0.0164611,0.00856911 -0.0156516,0.00997118 -0.014723,0.0112974 -0.0136824,0.0125376 -0.0125376,0.0136824 -0.0112974,0.014723 -0.00997118,0.0156516 -0.00856911,0.0164611 -0.00710182,0.0171453 -0.00558049,0.017699 -0.00401668,0.0181181 -0.0024223,0.0183992 -0.000809487,0.0185403 -0.274641,0 0.00185458,-0.0424768 0.00554962,-0.0421535 0.00920243,-0.0415095 0.0127852,-0.0405495 0.0162707,-0.0392809 0.0196323,-0.0377133 0.0228445,-0.0358587 0.0258829,-0.0337312 0.0287243,-0.031347 0.031347,-0.0287243 0.0337312,-0.0258829 0.0358587,-0.0228445 0.0377133,-0.0196323 0.0392809,-0.0162707 0.0405495,-0.0127852 0.0415095,-0.00920243 0.0421535,-0.00554962 0.0424768,-0.00185458 0.0424768,0.00185458 0.0421535,0.00554962 0.0415095,0.00920243 0.0405495,0.0127852 0.0392809,0.0162707 0.0377133,0.0196323 0.0358587,0.0228445 0.0337312,0.0258829 0.031347,0.0287243 0.0287243,0.031347 0.0258829,0.0337312 0.0228445,0.0358587 0.0196323,0.0377133 0.0162707,0.0392809 0.0127852,0.0405495 0.00920243,0.0415095 0.00554962,0.0421535 0.00185458,0.0424768 -0.00183355,0.0422358 -0.00548686,0.041918 -0.00909888,0.0412848 -0.0126424,0.040341 -0.0160909,0.0390936 -0.0194182,0.0375521 -0.0225995,0.035728 -0.0256107,0.0336351 -0.0284292,0.0312891 -0.0310338,0.0287076 z "/>
<path fill="rgb(42,41,42)" stroke="rgb(42,41,42)" d="M 4.46642,3.72894 l -0.170734,0.344167 -0.0686323,-0.0377805 -0.0651593,-0.0434974 -0.0612113,-0.0488971 -0.0568171,-0.0539404 -0.0520088,-0.0585905 -0.0468212,-0.0628134 -0.0412924,-0.0665785 -0.0354625,-0.0698582 -0.0293742,-0.0726286 -0.0230717,-0.0748696 -0.0166009,-0.0765648 -0.0100092,-0.0777018 -0.00334454,-0.0782724 0.00349167,-0.0799723 0.0104484,-0.0793637 0.0173257,-0.0781511 0.0240711,-0.0763436 0.0306332,-0.0739552 0.0369623,-0.0710039 0.04301,-0.0675122 0.0487305,-0.0635068 0.05408,-0.059018 0.059018,-0.05408 0.0635068,-0.0487305 0.0675122,-0.04301 0.0710039,-0.0369623 0.0739552,-0.0306332 0.0763436,-0.0240711 0.0781511,-0.0173257 0.0793637,-0.0104484 0.0799723,-0.00349167 0.0799723,0.00349167 0.0793637,0.0104484 0.0781511,0.0173257 0.0763436,0.0240711 0.0739552,0.0306332 0.0710039,0.0369623 0.0675122,0.04301 0.0635068,0.0487305 0.059018,0.05408 0.05408,0.059018 0.0487305,0.0635068 0.04301,0.0675122 0.0369623,0.0710039 0.0306332,0.0739552 0.0240711,0.0763436 0.0173257,0.0781511 0.0104484,0.0793637 0.00349167,0.0799723 -0.384188,0 -0.00202971,-0.0464881 -0.0060737,-0.0461343 -0.0100715,-0.0454294 -0.0139926,-0.0443787 -0.0178072,-0.0429903 -0.0214863,-0.0412747 -0.0250018,-0.039245 -0.0283271,-0.0369166 -0.0314368,-0.0343073 -0.0343073,-0.0314368 -0.0369166,-0.0283271 -0.039245,-0.0250018 -0.0412747,-0.0214863 -0.0429903,-0.0178072 -0.0443787,-0.0139926 -0.0454294,-0.0100715 -0.0461343,-0.0060737 -0.0464881,-0.00202971 -0.0464881,0.00202971 -0.0461343,0.0060737 -0.0454294,0.0100715 -0.0443787,0.0139926 -0.0429903,0.0178072 -0.0412747,0.0214863 -0.039245,0.0250018 -0.0369166,0.0283271 -0.0343073,0.0314368 -0.0314368,0.0343073 -0.0283271,0.0369166 -0.0250018,0.039245 -0.0214863,0.0412747 -0.0178072,0.0429903 -0.0139926,0.0443787 -0.0100715,0.0454294 -0.0060737,0.0461343 -0.00202971,0.0464881 0.00194419,0.0454999 0.00581839,0.0451682 0.00965017,0.0445073 0.0134116,0.0435219 0.0170753,0.0422192 0.0206145,0.0406087 0.0240034,0.0387022 0.0272173,0.0365136 0.0302328,0.0340588 0.0330279,0.0313557 0.0355823,0.028424 0.0378773,0.0252851 0.0398961,0.0219619 z "/>
<path fill="rgb(42,41,42)" stroke="rgb(42,41,42)" d="M 4.46642,3.72894 l 0.0430695,0.0190453 0.0445814,0.0151722 0.0457459,0.0111809 0.0465538,0.00710237 0.0469988,0.00296851 0.0470775,-0.00118848 0.0467892,-0.00533621 0.0461361,-0.00944235 0.0451235,-0.0134749 0.0437591,-0.0174024 0.0420536,-0.0211942 0.0400203,-0.0248209 0.0376751,-0.028254 0.0350362,-0.031467 0.0321241,-0.0344346 0.0289617,-0.0371338 0.0255735,-0.0395436 0.021986,-0.0416451 0.0182271,-0.0434221 0.0143261,-0.0448605 0.0103135,-0.0459493 0.0062204,-0.0466798 0.00207887,-0.0470466 0.384188,0 -0.00357623,0.080933 -0.0107008,0.0803022 -0.017742,0.0790454 -0.0246448,0.0771724 -0.0313556,0.0746979 -0.037822,0.0716411 -0.0439935,0.0680259 -0.0498221,0.0638804 -0.0552623,0.059237 -0.0602718,0.0541318 -0.0648115,0.0486047 -0.068846,0.0426987 -0.0723438,0.0364599 -0.0752777,0.0299369 -0.0776248,0.0231805 -0.0793669,0.0162434 -0.0804902,0.00917975 -0.0809862,0.00204451 -0.0808509,-0.00510666 -0.0800854,-0.012218 -0.0786956,-0.0192342 -0.0766924,-0.0261004 -0.0740913,-0.0327631 0.170734,-0.344167 z "/>
<path fill="rgb(187,30,16)" stroke="rgb(187,30,16)" d="M 0.2,3.75 l -0.2,0 0.0142699,-0.326834 0.042701,-0.324347 0.0708072,-0.319391 0.0983745,-0.312004 0.125193,-0.302243 0.151059,-0.290182 0.175775,-0.275912 0.199154,-0.259542 0.221016,-0.241197 0.241197,-0.221016 0.259542,-0.199154 0.275912,-0.175775 0.290182,-0.151059 0.302243,-0.125193 0.312004,-0.0983745 0.319391,-0.0708072 0.324347,-0.042701 0.326834,-0.0142699 0.326834,0.0142699 0.324347,0.042701 0.319391,0.0708072 0.312004,0.0983745 0.302243,0.125193 0.290182,0.151059 0.275912,0.175775 0.259542,0.199154 0.241197,0.221016 0.221016,0.241197 0.199154,0.259542 0.175775,0.275912 0.151059,0.290182 0.125193,0.302243 0.0983745,0.312004 0.0708072,0.319391 0.042701,0.324347 0.0142699,0.326834 -0.2,0 -0.0135088,-0.309403 -0.0404237,-0.307048 -0.0670308,-0.302357 -0.0931279,-0.295364 -0.118516,-0.286123 -0.143002,-0.274705 -0.1664,-0.261196 -0.188532,-0.2457 -0.209229,-0.228333 -0.228333,-0.209229 -0.2457,-0.188532 -0.261196,-0.1664 -0.274705,-0.143002 -0.286123,-0.118516 -0.295364,-0.0931279 -0.302357,-0.0670308 -0.307048,-0.0404237 -0.309403,-0.0135088 -0.309403,0.0135088 -0.307048,0.0404237 -0.302357,0.0670308 -0.295364,0.0931279 -0.286123,0.118516 -0.274705,0.143002 -0.261196,0.1664 -0.2457,0.188532 -0.228333,0.209229 -0.209229,0.228333 -0.188532,0.2457 -0.1664,0.261196 -0.143002,0.274705 -0.118516,0.286123 -0.0931279,0.295364 -0.0670308,0.302357 -0.0404237,0.307048 -0.0135088,0.309403 z "/>
<path fill="rgb(187,30,16)" stroke="rgb(187,30,16)" d="M 0.2,3.75 l 0.0135088,0.309403 0.0404237,0.307048 0.0670308,0.302357 0.0931279,0.295364 0.118516,0.286123 0.143002,0.274705 0.1664,0.261196 0.188532,0.2457 0.209229,0.228333 0.228333,0.209229 0.2457,0.188532 0.261196,0.1664 0.274705,0.143002 0.286123,0.118516 0.295364,0.0931279 0.302357,0.0670308 0.307048,0.0404237 0.309403,0.0135088 0.309403,-0.0135088 0.307048,-0.0404237 0.302357,-0.0670308 0.295364,-0.0931279 0.286123,-0.118516 0.274705,-0.143002 0.261196,-0.1664 0.2457,-0.188532 0.228333,-0.209229 0.209229,-0.228333 0.188532,-0.2457 0.1664,-0.261196 0.143002,-0.274705 0.118516,-0.286123 0.0931279,-0.295364 0.0670308,-0.302357 0.0404237,-0.307048 0.0135088,-0.309403 0.2,0 -0.0142699,0.326834 -0.042701,0.324347 -0.0708072,0.319391 -0.0983745,0.312004 -0.125193,0.302243 -0.151059,0.290182 -0.175775,0.275912 -0.199154,0.259542 -0.221016,0.241197 -0.241197,0.221016 -0.259542,0.199154 -0.275912,0.175775 -0.290182,0.151059 -0.302243,0.125193 -0.312004,0.0983745 -0.319391,0.0708072 -0.324347,0.042701 -0.326834,0.0142699 -0.326834,-0.0142699 -0.324347,-0.042701 -0.319391,-0.0708072 -0.312004,-0.0983745 -0.302243,-0.125193 -0.290182,-0.151059 -0.275912,-0.175775 -0.259542,-0.199154 -0.241197,-0.221016 -0.221016,-0.241197 -0.199154,-0.259542 -0.175775,-0.275912 -0.151059,-0.290182 -0.125193,-0.302243 -0.0983745,-0.312004 -0.0708072,-0.319391 -0.042701,-0.324347 -0.0142699,-0.326834 0.2,0 z "/>
<path fill="rgb(187,30,16)" stroke="rgb(187,30,16)" d="M 7.1,3.75 l -0.7,0 -0.00527888,-0.167183 -0.0158156,-0.166517 -0.0262893,-0.165188 -0.0528217,-0.222949 -0.0718826,-0.217553 -0.0904061,-0.210531 -0.108254,-0.201934 -0.125292,-0.191829 -0.141394,-0.180289 -0.156439,-0.167401 -0.170314,-0.153263 -0.182917,-0.137978 -0.194151,-0.121662 -0.203935,-0.104436 -0.212194,-0.0864302 -0.218866,-0.0677779 -0.223903,-0.0486189 -0.227266,-0.0290965 -0.22893,-0.0093565 -0.228882,0.0104534 -0.227124,0.0301851 -0.223668,0.0496913 -0.218539,0.0688259 -0.211777,0.087446 -0.203432,0.105412 -0.193566,0.122591 -0.182253,0.138853 -0.169578,0.154077 -0.155635,0.168149 -0.140529,0.180964 -0.124372,0.192427 -0.107285,0.202451 -0.0893962,0.210961 -0.0728904,0.225317 -0.0524844,0.230924 -0.0316592,0.234688 -0.0105812,0.236577 -0.7,0 0.0127478,-0.291972 0.0381463,-0.28975 0.0632545,-0.285322 0.0878812,-0.278724 0.111839,-0.270004 0.134946,-0.259229 0.157026,-0.246481 0.17791,-0.231857 0.197441,-0.215469 0.215469,-0.197441 0.231857,-0.17791 0.246481,-0.157026 0.259229,-0.134946 0.270004,-0.111839 0.278724,-0.0878812 0.285322,-0.0632545 0.28975,-0.0381463 0.291972,-0.0127478 0.291972,0.0127478 0.28975,0.0381463 0.285322,0.0632545 0.278724,0.0878812 0.270004,0.111839 0.259229,0.134946 0.246481,0.157026 0.231857,0.17791 0.215469,0.197441 0.197441,0.215469 0.17791,0.231857 0.157026,0.246481 0.134946,0.259229 0.111839,0.270004 0.0878812,0.278724 0.0632545,0.285322 0.0381463,0.28975 0.0127478,0.291972 z "/>
<path fill="rgb(187,30,16)" stroke="rgb(187,30,16)" d="M 7.1,3.75 l -0.0127478,0.291972 -0.0381463,0.28975 -0.0632545,0.285322 -0.0878812,0.278724 -0.111839,0.270004 -0.134946,0.259229 -0.157026,0.246481 -0.17791,0.231857 -0.197441,0.215469 -0.215469,0.197441 -0.231857,0.17791 -0.246481,0.157026 -0.259229,0.134946 -0.270004,0.111839 -0.278724,0.0878812 -0.285322,0.0632545 -0.28975,0.0381463 -0.291972,0.0127478 -0.291972,-0.0127478 -0.28975,-0.0381463 -0.285322,-0.0632545 -0.278724,-0.0878812 -0.270004,-0.111839 -0.259229,-0.134946 -0.246481,-0.157026 -0.231857,-0.17791 -0.215469,-0.197441 -0.197441,-0.215469 -0.17791,-0.231857 -0.157026,-0.246481 -0.134946,-0.259229 -0.111839,-0.270004 -0.0878812,-0.278724 -0.0632545,-0.285322 -0.0381463,-0.28975 -0.0127478,-0.291972 0.7,0 0.0100841,0.230963 0.0301754,0.229205 0.0500371,0.225703 0.069518,0.220483 0.0884698,0.213585 0.106748,0.205062 0.124214,0.194978 0.140735,0.18341 0.156185,0.170446 0.170446,0.156185 0.18341,0.140735 0.194978,0.124214 0.205062,0.106748 0.213585,0.0884698 0.220483,0.069518 0.225703,0.0500371 0.229205,0.0301754 0.230963,0.0100841 0.230963,-0.0100841 0.229205,-0.0301754 0.225703,-0.0500371 0.220483,-0.069518 0.213585,-0.0884698 0.205062,-0.106748 0.194978,-0.124214 0.18341,-0.140735 0.170446,-0.156185 0.156185,-0.170446 0.140735,-0.18341 0.124214,-0.194978 0.106748,-0.205062 0.0884698,-0.213585 0.069518,-0.220483 0.0500371,-0.225703 0.0301754,-0.229205 0.0100841,-0.230963 0.7,0 z "/>
</g></g></svg>
