<?xml version="1.0" encoding="UTF-8" standalone="no"?>
<!DOCTYPE svg PUBLIC "-//W3C//DTD SVG 1.1//EN" "http://www.w3.org/Graphics/SVG/1.1/DTD/svg11-flat.dtd"
[

]>
<svg xmlns="http://www.w3.org/2000/svg"  viewBox="-0.09375 -0.09375 7.6875 7.6875"><g fill="none" stroke="black" stroke-width="0.0125" transform="translate(0,7.5) scale(1, -1)">
<g id="Output" >
<path fill="rgb(0,91,140)" stroke="rgb(0,91,140)" d="M 3.7799,5.69662 l -0.022324,-0.00140917 -0.0223613,0.000565317 -0.0222243,0.00253539 -0.021914,0.00448571 -0.021433,0.00640106 -0.0207849,0.00826651 -0.0199747,0.0100675 -0.0190089,0.0117901 -0.017895,0.0134207 -0.0166415,0.0149468 -0.0152583,0.0163563 -0.0137562,0.0176384 -0.0121469,0.0187829 -0.0104429,0.0197811 -0.00865748,0.0206251 -0.00680459,0.0213083 -0.00489866,0.0218254 -0.00295456,0.0221724 -0.000987417,0.0223466 0.000964115,0.0220819 0.00288501,0.0219138 0.00478394,0.021579 0.00664647,0.0210799 0.00845841,0.0204204 0.010206,0.0196055 0.0118759,0.0186414 0.0134554,0.0175354 0.0149325,0.016296 0.016296,0.0149325 0.0175354,0.0134554 0.0186414,0.0118759 0.0196055,0.010206 0.0204204,0.00845841 0.0210799,0.00664647 0.021579,0.00478394 0.0219138,0.00288501 0.0220819,0.000964115 0,0.898116 -0.286868,-0.0120652 -0.284782,-0.0365852 -0.280603,-0.0608365 -0.274363,-0.0846409 -0.266107,-0.107823 -0.255897,-0.130214 -0.243807,-0.151648 -0.229926,-0.171968 -0.214356,-0.191025 -0.197211,-0.208678 -0.0840024,-0.100811 -0.0799899,-0.104023 -0.0758547,-0.107076 0.468759,-0.310835 0.580814,0 0.0622275,-0.000190281 0.0619772,-0.00557884 0.0612612,-0.0109255 0.0600848,-0.01619 0.0584569,-0.0213329 0.0563897,-0.0263154 0.0538988,-0.0311002 0.0510028,-0.0356513 0.0477235,-0.0399345 0.0440856,-0.0439176 0.651931,-0.616372 0.465239,0.157053 -0.0918566,0.379303 -0.097789,-0.100755 -0.397089,-0.16594 -0.041491,0.0859362 0.337824,0.281514 0.237101,0.438732 0.0175802,0.0131126 0.0185963,0.0116267 0.0194872,0.0100625 0.0202467,0.00843048 0.0208699,0.00674166 0.0213525,0.00500742 0.0216912,0.00323945 -0.009501,0.088291 z "/>
<path fill="rgb(0,91,140)" stroke="rgb(0,91,140)" d="M 7.03051,3.07121 l 0.0385462,0.224512 0.0231992,0.226613 0.00774501,0.227666 -0.0114859,0.277171 -0.034379,0.27527 -0.0570363,0.271482 -0.0793025,0.265832 -0.111831,0.282679 -0.136996,0.271378 -0.161033,0.257841 -1.17141,-1.16752 0.0553202,0.0151524 0.0564296,0.0102767 0.0571102,0.00532296 0.0573568,0.000328749 0.0571675,-0.00466796 0.0565437,-0.0096292 0.047622,-0.0124842 0.0463371,-0.0166308 0.044692,-0.020648 0.0426993,-0.0245047 0.0403747,-0.0281708 0.0377362,-0.031618 0.0348042,-0.0348193 0.0316016,-0.0377498 0.0281534,-0.0403869 0.0244862,-0.0427099 0.0206287,-0.0447009 0.0166107,-0.0463443 0.0124636,-0.0476274 0.00821964,-0.0485402 0.00391174,-0.0490756 0.00849551,-0.105279 0.0179407,-0.104086 0.0272402,-0.102048 0.0363184,-0.0991805 0.0451015,-0.0955073 0.0535182,-0.0910582 0.0615,-0.0858693 0.663599,-0.220672 z "/>
<path fill="rgb(0,91,140)" stroke="rgb(0,91,140)" d="M 4.00615,5.94852 l -0.000938399,-0.0217859 -0.00280825,-0.0216245 -0.00465729,-0.021303 -0.00647184,-0.0208236 -0.00823844,-0.02019 -0.00994402,-0.0194068 -0.0115759,-0.0184799 -0.0131221,-0.017416 -0.0145711,-0.0162232 -0.0159121,-0.0149102 -0.0171352,-0.0134867 -0.0182315,-0.0119633 -0.0191926,-0.0103513 -0.0200116,-0.00866265 -0.0206824,-0.00690981 -0.0212,-0.00510579 -0.0215605,-0.00326394 0.009501,-0.088291 0.0229915,0.00147517 0.0230331,-0.000510834 0.0229035,-0.00249304 0.0226036,-0.00445671 0.0221357,-0.00638725 0.0215032,-0.0082703 0.0207109,-0.0100919 0.0197646,-0.0118384 0.0186713,-0.013497 0.0174393,-0.0150552 0.0160776,-0.0165014 0.0145964,-0.017825 0.0130067,-0.0190161 0.0113202,-0.0200659 0.00954966,-0.0209664 0.00770809,-0.0217111 0.00580922,-0.0222944 0.068758,-0.405037 1.51284,1.50781 -0.245131,0.154948 -0.257613,0.133167 -0.268165,0.110388 -0.276707,0.0867823 -0.283176,0.0625262 -0.287522,0.0378014 -0.289714,0.0127935 0,-0.898116 0.0220819,-0.000964115 0.0219138,-0.00288501 0.021579,-0.00478394 0.0210799,-0.00664647 0.0204204,-0.00845841 0.0196055,-0.010206 0.0186414,-0.0118759 0.0175354,-0.0134554 0.016296,-0.0149325 0.0149325,-0.016296 0.0134554,-0.0175354 0.0118759,-0.0186414 0.010206,-0.0196055 0.00845841,-0.0204204 0.00664647,-0.0210799 0.00478394,-0.021579 0.00288501,-0.0219138 0.000964115,-0.0220819 z "/>
<path fill="rgb(0,91,140)" stroke="rgb(0,91,140)" d="M 7.03051,3.07121 l -0.663599,0.220672 -0.0250185,-0.0204032 -0.026726,-0.018109 -0.0282238,-0.0156727 -0.0295001,-0.0131134 -0.0305449,-0.0104512 -0.0313499,-0.007707 -0.031909,-0.0049023 -0.0322176,-0.00205913 -0.0322735,0.000800197 -0.032076,0.00365325 -0.0316268,0.00647762 -0.0309295,0.00925117 -0.0299894,0.0119521 -0.0288139,0.0145593 -0.0274124,0.0170522 -0.0257957,0.0194112 -0.0239766,0.021618 -0.0219694,0.0236551 -0.0197897,0.0255065 -0.0174547,0.0271578 -0.0149828,0.028596 -0.0123932,0.0298098 -0.00970646,0.0307896 -0.00694351,0.0315278 -0.00412606,0.0320186 -0.00127624,0.0322581 0.0015836,0.0322445 0.00443101,0.0319778 0.00724365,0.0314602 0.00999945,0.0306957 4.44089e-15,1.82077e-14 0.00783255,0.0497807 0.00344446,0.0502753 -0.000970082,0.0503838 -0.00537717,0.0501055 -0.00974298,0.0494423 -0.014034,0.0483996 -0.0182172,0.0469852 -0.0222605,0.0452099 -0.0261329,0.0430876 -0.0298047,0.0406344 -0.0332476,0.0378691 -0.0364351,0.0348131 -0.0393429,0.0314897 -0.0419486,0.0279246 -0.0442322,0.024145 -0.0461761,0.02018 -0.0477655,0.0160601 -0.0489881,0.0118168 0.0436102,-0.0430383 0.0397809,-0.0466007 0.0356618,-0.0498235 0.0312828,-0.0526833 0.0266759,-0.0551593 0.0218746,-0.0572333 0.0169139,-0.0588903 0.01183,-0.0601182 0.00665988,-0.0609081 0.00144124,-0.0612541 -0.0037879,-0.0611539 -0.00898945,-0.0606081 -0.0141255,-0.0596206 -0.0191586,-0.0581988 -0.0199978,-0.0607866 -0.0147175,-0.0622762 -0.00932894,-0.0633079 -0.00387184,-0.0638744 0.00161373,-0.0639713 0.00708743,-0.0635979 0.012509,-0.0627571 0.0178387,-0.0614549 0.0230372,-0.059701 0.0280664,-0.0575083 0.0328893,-0.0548928 0.0374704,-0.0518738 -0.0193582,-0.0721318 -0.0129211,-0.0735581 -0.00638332,-0.074411 0.000204224,-0.074684 0.00679017,-0.074375 0.0133232,-0.0734863 0.0197524,-0.0720249 0.0260277,-0.0700022 0.0321001,-0.0674339 0.0379223,-0.0643401 0.043449,-0.0607448 0.048637,-0.0566761 0.0534461,-0.0521657 0,-0.237081 -0.0493299,0.0258952 -0.0468957,0.0300797 -0.0441075,0.0340372 -0.0409862,0.0377376 -0.0375555,0.0411531 -0.0338413,0.044258 -0.0298715,0.0470286 -0.0256762,0.0494442 -0.0212871,0.0514865 -0.0167372,0.05314 -0.012061,0.0543924 -0.0072937,0.0552341 -0.00247134,0.0556587 0.00236968,0.0556631 0.00719281,0.0552473 0.0035239,0.0271804 0.00112174,0.027385 -0.0012891,0.0273776 -0.00368997,0.0271584 -0.00606228,0.0267291 -0.00838769,0.0260929 -0.0106482,0.0252549 -0.0128263,0.0242215 -0.0149052,0.0230006 -0.0168688,0.0216018 -0.122714,0.131117 -0.13408,0.11947 -0.144345,0.106841 -0.0681509,-0.521574 -0.0353673,-0.0458953 -0.0312228,-0.0488095 -0.0268395,-0.0513504 -0.0222511,-0.0534987 -0.0174925,-0.055238 -0.0126002,-0.0565549 -0.0076115,-0.0574395 -0.00256464,-0.0578848 0.00250184,-0.0578875 0.00754919,-0.0574477 0.0125388,-0.0565686 -0.0262432,-0.00466977 -0.0257486,-0.00689358 -0.025066,-0.00906703 -0.0242002,-0.0111743 -0.0231577,-0.0131999 -0.021946,-0.015129 -0.020574,-0.0169477 -0.0190517,-0.0186426 -0.0173903,-0.0202013 -0.0156018,-0.0216124 -0.0136994,-0.0228657 -0.0116969,-0.023952 -0.00960896,-0.0248633 -0.00745084,-0.0255929 -0.00523829,-0.0261357 -0.00298748,-0.0264875 -0.237057,0 -0.000688579,0.0187511 0.000988605,0.0187377 0.00265789,0.0185745 0.00430594,0.018263 0.00591958,0.0178055 0.00748593,0.0172058 0.00899246,0.0164685 0.0104271,0.0155997 0.0117785,0.0146063 0.0130358,0.0134961 0.0141889,0.0122782 0.0152286,0.0109621 0.0161467,0.00955838 0.0169357,0.00807833 0.0606684,0.0651935 0.0547034,0.0702736 0.0483149,0.0748099 0.0415524,0.078767 0.0344683,0.0821144 0.0271173,0.0848263 0.0195565,0.0868815 0.0118443,0.0882641 0.00404036,0.0889636 0,1.28786e-14 -0.00449583,0.106763 -0.0137482,0.10597 -0.0228967,0.104376 -0.0318722,0.101994 -0.0406071,0.0988418 -0.0490353,0.094943 -0.0570932,0.0903272 -0.0647199,0.0850292 -0.146655,-0.0711942 -0.152423,-0.0578209 -0.156976,-0.0439861 -0.86528,-0.862406 0.015659,-0.0411022 0.0166699,-0.0407028 0.0176705,-0.0402784 2.70894e-14,-5.9952e-14 0.0404156,-0.0849401 0.0435016,-0.0834017 0.0465292,-0.0817512 -0.0230314,-0.032014 -0.0199833,-0.0340002 -0.0167651,-0.035697 -0.0134043,-0.03709 -0.00992939,-0.0381674 -0.00636998,-0.03892 -0.00275637,-0.0393414 0.0270431,-0.0559105 -0.228182,0 0.00254199,0.0363855 0.00565958,0.0360324 0.00873529,0.0354127 0.0117464,0.034531 0.0146705,0.0333937 0.0174861,0.0320094 0.0201723,0.0303882 0.0227093,0.0285422 -0.104682,0.303106 -1.20784,-1.20383 0.245477,-0.155146 0.257991,-0.133304 0.268566,-0.11046 0.277124,-0.0867861 0.283598,-0.0624601 0.287942,-0.0376648 0.290122,-0.0125865 0.285817,0.012215 0.283733,0.036556 0.27958,0.0606305 0.273387,0.0842627 0.265201,0.10728 0.255081,0.129516 0.243101,0.150807 0.229348,0.170998 0.213922,0.189942 0.196937,0.207501 0.178515,0.223547 0.158791,0.237962 0.13791,0.250643 0.116022,0.261495 0.0932889,0.27044 0.0698751,0.277413 z "/>
<path fill="rgb(0,91,140)" stroke="rgb(0,91,140)" d="M 0.4,3.75 l 0.0124489,-0.288536 0.0372542,-0.286391 0.0617827,-0.282118 0.0858519,-0.275748 0.109283,-0.267329 0.131902,-0.256923 0.153541,-0.244608 0.81745,0.814735 0.165807,0.285866 0.191103,0.269612 0.214817,0.251127 -0.0273355,0.0946786 -0.0196961,0.0965574 -0.0119312,0.0978208 -0.00409024,0.0984608 0.00377678,0.0984734 -0.31114,0.616372 -0.263741,-0.367462 -0.000913216,-0.0398516 -0.0124685,-0.0101786 -0.0133217,-0.00903328 -0.01407,-0.00781684 -0.0147075,-0.00653886 -0.0152292,-0.00520939 -0.0156311,-0.00383891 -0.0159098,-0.00243821 -0.0160633,-0.00101831 -0.0160904,0.00040961 -0.0159907,0.0018343 -0.0157652,0.00324455 -0.0154155,0.00462926 -0.0149444,0.00597752 -0.0143558,0.00727872 -0.013654,0.00852261 -0.0128448,0.0096994 -0.00508168,0.00458921 -0.00466502,0.00501218 -0.00421328,0.00539746 -0.00372987,0.00574216 -0.00321842,0.00604368 -0.00268276,0.00629977 -0.00212694,0.00650849 -0.00155512,0.00666828 -0.0257648,0.569994 -0.0414789,0.121495 0.112608,0.27856 -0.0800158,0.1452 -0.468759,0.310835 -0.150239,-0.242784 -0.12902,-0.254695 -0.106865,-0.264756 -0.0839327,-0.272893 -0.0603913,-0.279049 -0.0364111,-0.283178 -0.0121665,-0.28525 z "/>
<path fill="rgb(241,240,234)" stroke="rgb(241,240,234)" d="M 3.04702,2.20223 l 0.113894,0.113516 0.015659,-0.0411022 0.0166699,-0.0407028 0.0176705,-0.0402784 2.70894e-14,-5.9952e-14 0.0404156,-0.0849401 0.0435016,-0.0834017 0.0465292,-0.0817512 -0.0230314,-0.032014 -0.0199833,-0.0340002 -0.0167651,-0.035697 -0.0134043,-0.03709 -0.00992939,-0.0381674 -0.00636998,-0.03892 -0.00275637,-0.0393414 0.0270431,-0.0559105 -0.228182,0 0.00254199,0.0363855 0.00565958,0.0360324 0.00873529,0.0354127 0.0117464,0.034531 0.0146705,0.0333937 0.0174861,0.0320094 0.0201723,0.0303882 0.0227093,0.0285422 -0.104682,0.303106 z "/>
<path fill="rgb(241,240,234)" stroke="rgb(241,240,234)" d="M 6.36691,3.29188 l -0.0250185,-0.0204032 -0.026726,-0.018109 -0.0282238,-0.0156727 -0.0295001,-0.0131134 -0.0305449,-0.0104512 -0.0313499,-0.007707 -0.031909,-0.0049023 -0.0322176,-0.00205913 -0.0322735,0.000800197 -0.032076,0.00365325 -0.0316268,0.00647762 -0.0309295,0.00925117 -0.0299894,0.0119521 -0.0288139,0.0145593 -0.0274124,0.0170522 -0.0257957,0.0194112 -0.0239766,0.021618 -0.0219694,0.0236551 -0.0197897,0.0255065 -0.0174547,0.0271578 -0.0149828,0.028596 -0.0123932,0.0298098 -0.00970646,0.0307896 -0.00694351,0.0315278 -0.00412606,0.0320186 -0.00127624,0.0322581 0.0015836,0.0322445 0.00443101,0.0319778 0.00724365,0.0314602 0.00999945,0.0306957 4.44089e-15,1.82077e-14 0.00783255,0.0497807 0.00344446,0.0502753 -0.000970082,0.0503838 -0.00537717,0.0501055 -0.00974298,0.0494423 -0.014034,0.0483996 -0.0182172,0.0469852 -0.0222605,0.0452099 -0.0261329,0.0430876 -0.0298047,0.0406344 -0.0332476,0.0378691 -0.0364351,0.0348131 -0.0393429,0.0314897 -0.0419486,0.0279246 -0.0442322,0.024145 -0.0461761,0.02018 -0.0477655,0.0160601 -0.0489881,0.0118168 0.0436102,-0.0430383 0.0397809,-0.0466007 0.0356618,-0.0498235 0.0312828,-0.0526833 0.0266759,-0.0551593 0.0218746,-0.0572333 0.0169139,-0.0588903 0.01183,-0.0601182 0.00665988,-0.0609081 0.00144124,-0.0612541 -0.0037879,-0.0611539 -0.00898945,-0.0606081 -0.0141255,-0.0596206 -0.0191586,-0.0581988 -0.0199978,-0.0607866 -0.0147175,-0.0622762 -0.00932894,-0.0633079 -0.00387184,-0.0638744 0.00161373,-0.0639713 0.00708743,-0.0635979 0.012509,-0.0627571 0.0178387,-0.0614549 0.0230372,-0.059701 0.0280664,-0.0575083 0.0328893,-0.0548928 0.0374704,-0.0518738 -0.0193582,-0.0721318 -0.0129211,-0.0735581 -0.00638332,-0.074411 0.000204224,-0.074684 0.00679017,-0.074375 0.0133232,-0.0734863 0.0197524,-0.0720249 0.0260277,-0.0700022 0.0321001,-0.0674339 0.0379223,-0.0643401 0.043449,-0.0607448 0.048637,-0.0566761 0.0534461,-0.0521657 0,-0.237081 -0.0493299,0.0258952 -0.0468957,0.0300797 -0.0441075,0.0340372 -0.0409862,0.0377376 -0.0375555,0.0411531 -0.0338413,0.044258 -0.0298715,0.0470286 -0.0256762,0.0494442 -0.0212871,0.0514865 -0.0167372,0.05314 -0.012061,0.0543924 -0.0072937,0.0552341 -0.00247134,0.0556587 0.00236968,0.0556631 0.00719281,0.0552473 0.0035239,0.0271804 0.00112174,0.027385 -0.0012891,0.0273776 -0.00368997,0.0271584 -0.00606228,0.0267291 -0.00838769,0.0260929 -0.0106482,0.0252549 -0.0128263,0.0242215 -0.0149052,0.0230006 -0.0168688,0.0216018 -0.122714,0.131117 -0.13408,0.11947 -0.144345,0.106841 -0.0681509,-0.521574 -0.0353673,-0.0458953 -0.0312228,-0.0488095 -0.0268395,-0.0513504 -0.0222511,-0.0534987 -0.0174925,-0.055238 -0.0126002,-0.0565549 -0.0076115,-0.0574395 -0.00256464,-0.0578848 0.00250184,-0.0578875 0.00754919,-0.0574477 0.0125388,-0.0565686 -0.0262432,-0.00466977 -0.0257486,-0.00689358 -0.025066,-0.00906703 -0.0242002,-0.0111743 -0.0231577,-0.0131999 -0.021946,-0.015129 -0.020574,-0.0169477 -0.0190517,-0.0186426 -0.0173903,-0.0202013 -0.0156018,-0.0216124 -0.0136994,-0.0228657 -0.0116969,-0.023952 -0.00960896,-0.0248633 -0.00745084,-0.0255929 -0.00523829,-0.0261357 -0.00298748,-0.0264875 -0.237057,0 -0.000688579,0.0187511 0.000988605,0.0187377 0.00265789,0.0185745 0.00430594,0.018263 0.00591958,0.0178055 0.00748593,0.0172058 0.00899246,0.0164685 0.0104271,0.0155997 0.0117785,0.0146063 0.0130358,0.0134961 0.0141889,0.0122782 0.0152286,0.0109621 0.0161467,0.00955838 0.0169357,0.00807833 0.0606684,0.0651935 0.0547034,0.0702736 0.0483149,0.0748099 0.0415524,0.078767 0.0344683,0.0821144 0.0271173,0.0848263 0.0195565,0.0868815 0.0118443,0.0882641 0.00404036,0.0889636 0,1.28786e-14 -0.00449583,0.106763 -0.0137482,0.10597 -0.0228967,0.104376 -0.0318722,0.101994 -0.0406071,0.0988418 -0.0490353,0.094943 -0.0570932,0.0903272 -0.0647199,0.0850292 -0.146655,-0.0711942 -0.152423,-0.0578209 -0.156976,-0.0439861 1.31033,1.30598 0.0553202,0.0151524 0.0564296,0.0102767 0.0571102,0.00532296 0.0573568,0.000328749 0.0571675,-0.00466796 0.0565437,-0.0096292 0.047622,-0.0124842 0.0463371,-0.0166308 0.044692,-0.020648 0.0426993,-0.0245047 0.0403747,-0.0281708 0.0377362,-0.031618 0.0348042,-0.0348193 0.0316016,-0.0377498 0.0281534,-0.0403869 0.0244862,-0.0427099 0.0206287,-0.0447009 0.0166107,-0.0463443 0.0124636,-0.0476274 0.00821964,-0.0485402 0.00391174,-0.0490756 0.00849551,-0.105279 0.0179407,-0.104086 0.0272402,-0.102048 0.0363184,-0.0991805 0.0451015,-0.0955073 0.0535182,-0.0910582 0.0615,-0.0858693 z "/>
<path fill="rgb(241,240,234)" stroke="rgb(241,240,234)" d="M 1.44778,5.32177 l 0.580814,0 0.0622275,-0.000190281 0.0619772,-0.00557884 0.0612612,-0.0109255 0.0600848,-0.01619 0.0584569,-0.0213329 0.0563897,-0.0263154 0.0538988,-0.0311002 0.0510028,-0.0356513 0.0477235,-0.0399345 0.0440856,-0.0439176 0.651931,-0.616372 0.465239,0.157053 -0.0918566,0.379303 -0.097789,-0.100755 -0.397089,-0.16594 -0.041491,0.0859362 0.337824,0.281514 0.237101,0.438732 0.0175802,0.0131126 0.0185963,0.0116267 0.0194872,0.0100625 0.0202467,0.00843048 0.0208699,0.00674166 0.0213525,0.00500742 0.0216912,0.00323945 0.0229915,0.00147517 0.0230331,-0.000510834 0.0229035,-0.00249304 0.0226036,-0.00445671 0.0221357,-0.00638725 0.0215032,-0.0082703 0.0207109,-0.0100919 0.0197646,-0.0118384 0.0186713,-0.013497 0.0174393,-0.0150552 0.0160776,-0.0165014 0.0145964,-0.017825 0.0130067,-0.0190161 0.0113202,-0.0200659 0.00954966,-0.0209664 0.00770809,-0.0217111 0.00580922,-0.0222944 0.068758,-0.405037 -2.33847,-2.3307 0.165807,0.285866 0.191103,0.269612 0.214817,0.251127 -0.0273355,0.0946786 -0.0196961,0.0965574 -0.0119312,0.0978208 -0.00409024,0.0984608 0.00377678,0.0984734 -0.31114,0.616372 -0.263741,-0.367462 -0.000913216,-0.0398516 -0.0124685,-0.0101786 -0.0133217,-0.00903328 -0.01407,-0.00781684 -0.0147075,-0.00653886 -0.0152292,-0.00520939 -0.0156311,-0.00383891 -0.0159098,-0.00243821 -0.0160633,-0.00101831 -0.0160904,0.00040961 -0.0159907,0.0018343 -0.0157652,0.00324455 -0.0154155,0.00462926 -0.0149444,0.00597752 -0.0143558,0.00727872 -0.013654,0.00852261 -0.0128448,0.0096994 -0.00508168,0.00458921 -0.00466502,0.00501218 -0.00421328,0.00539746 -0.00372987,0.00574216 -0.00321842,0.00604368 -0.00268276,0.00629977 -0.00212694,0.00650849 -0.00155512,0.00666828 -0.0257648,0.569994 -0.0414789,0.121495 0.112608,0.27856 -0.0800158,0.1452 z "/>
<path fill="rgb(241,240,234)" stroke="rgb(241,240,234)" d="M 4.00615,5.94852 l -0.000964115,0.0220819 -0.00288501,0.0219138 -0.00478394,0.021579 -0.00664647,0.0210799 -0.00845841,0.0204204 -0.010206,0.0196055 -0.0118759,0.0186414 -0.0134554,0.0175354 -0.0149325,0.016296 -0.016296,0.0149325 -0.0175354,0.0134554 -0.0186414,0.0118759 -0.0196055,0.010206 -0.0204204,0.00845841 -0.0210799,0.00664647 -0.021579,0.00478394 -0.0219138,0.00288501 -0.0220819,0.000964115 -0.0220819,-0.000964115 -0.0219138,-0.00288501 -0.021579,-0.00478394 -0.0210799,-0.00664647 -0.0204204,-0.00845841 -0.0196055,-0.010206 -0.0186414,-0.0118759 -0.0175354,-0.0134554 -0.016296,-0.0149325 -0.0149325,-0.016296 -0.0134554,-0.0175354 -0.0118759,-0.0186414 -0.010206,-0.0196055 -0.00845841,-0.0204204 -0.00664647,-0.0210799 -0.00478394,-0.021579 -0.00288501,-0.0219138 -0.000964115,-0.0220819 0.000987417,-0.0223466 0.00295456,-0.0221724 0.00489866,-0.0218254 0.00680459,-0.0213083 0.00865748,-0.0206251 0.0104429,-0.0197811 0.0121469,-0.0187829 0.0137562,-0.0176384 0.0152583,-0.0163563 0.0166415,-0.0149468 0.017895,-0.0134207 0.0190089,-0.0117901 0.0199747,-0.0100675 0.0207849,-0.00826651 0.021433,-0.00640106 0.021914,-0.00448571 0.0222243,-0.00253539 0.0223613,-0.000565317 0.022324,0.00140917 0.0215605,0.00326394 0.0212,0.00510579 0.0206824,0.00690981 0.0200116,0.00866265 0.0191926,0.0103513 0.0182315,0.0119633 0.0171352,0.0134867 0.0159121,0.0149102 0.0145711,0.0162232 0.0131221,0.017416 0.0115759,0.0184799 0.00994402,0.0194068 0.00823844,0.02019 0.00647184,0.0208236 0.00465729,0.021303 0.00280825,0.0216245 0.000938399,0.0217859 z "/>
<path fill="rgb(241,240,234)" stroke="rgb(241,240,234)" d="M 4.02619,3.17816 l -0.108661,-0.0218168 -0.109785,-0.0151798 -0.110504,-0.0084868 1.39295,1.38832 0.0576727,-0.0185473 0.0562353,-0.022533 0.0545228,-0.0264084 0.0255255,0.0113084 0.0259823,0.0102154 0.0263922,0.00910394 -1.31033,-1.30598 z "/>
<path fill="rgb(241,240,234)" stroke="rgb(241,240,234)" d="M 3.04702,2.20223 l -0.0484044,0.140154 -1.90958e-14,5.50671e-14 -0.0083167,0.0229031 -0.00852959,0.0228247 -0.00874175,0.0227443 0.123357,0.122947 0.0184048,-0.0735809 0.021523,-0.07273 0.024602,-0.071747 -0.113894,-0.113516 z "/>
<path fill="rgb(241,240,234)" stroke="rgb(241,240,234)" d="M 1.83918,0.998407 l 1.20784,1.20383 -0.0484044,0.140154 -1.90958e-14,5.50671e-14 -0.0083167,0.0229031 -0.00852959,0.0228247 -0.00874175,0.0227443 -1.29643,-1.29212 0.0533816,-0.0412 0.0542,-0.0401172 0.0549965,-0.0390181 z "/>
<path fill="rgb(241,240,234)" stroke="rgb(241,240,234)" d="M 3.16091,2.31575 l 0.86528,0.862406 -0.108661,-0.0218168 -0.109785,-0.0151798 -0.110504,-0.0084868 -0.600861,-0.598864 0.0184048,-0.0735809 0.021523,-0.07273 0.024602,-0.071747 z "/>
<path fill="rgb(241,240,234)" stroke="rgb(241,240,234)" d="M 6.50794,5.65165 l -0.0388349,0.055126 -0.0399366,0.0543332 -0.0410221,0.0535184 -1.29795,-1.29363 0.0576727,-0.0185473 0.0562353,-0.022533 0.0545228,-0.0264084 0.0255255,0.0113084 0.0259823,0.0102154 0.0263922,0.00910394 1.17141,1.16752 z "/>
<path fill="rgb(241,240,234)" stroke="rgb(241,240,234)" d="M 2.51666,3.08551 l -0.102998,-0.0536829 -0.0979661,-0.062395 -0.092199,-0.0706389 -0.08574,-0.0783528 -0.0786377,-0.0854788 -0.0709453,-0.0919634 -0.0627207,-0.097758 -0.0540254,-0.102819 0.645232,0.643089 z "/>
<path fill="rgb(241,240,234)" stroke="rgb(241,240,234)" d="M 5.8234,6.38126 l -0.0533816,0.0412 -0.0542,0.0401172 -0.0549965,0.0390181 -1.51284,-1.50781 0.0409983,-0.241511 1.63442,1.62899 z "/>
<path fill="rgb(241,240,234)" stroke="rgb(241,240,234)" d="M 4.14798,4.99378 l 0.0409983,-0.241511 -1.67232,-1.66676 -0.102998,-0.0536829 -0.0979661,-0.062395 -0.092199,-0.0706389 -0.08574,-0.0783528 -0.0786377,-0.0854788 -0.0709453,-0.0919634 -0.0627207,-0.097758 -0.0540254,-0.102819 -0.274298,-0.273387 0.0626265,0.168114 0.070851,0.164817 0.0789026,0.161117 2.33847,2.3307 z "/>
<path fill="rgb(241,240,234)" stroke="rgb(241,240,234)" d="M 1.11186,1.68537 l 0.485277,0.483664 0.0626265,0.168114 0.070851,0.164817 0.0789026,0.161117 -0.81745,-0.814735 0.0388349,-0.055126 0.0399366,-0.0543332 0.0410221,-0.0535184 z "/>
<path fill="rgb(0,91,140)" stroke="rgb(0,91,140)" d="M 1.06776,6.07553 l -0.151112,0.131016 -0.207757,-0.262428 -0.18353,-0.279907 -0.15784,-0.295157 -0.130893,-0.308056 -0.102903,-0.3185 -0.0740935,-0.326407 -0.0446935,-0.331713 -0.0149375,-0.334377 0.0142699,-0.326834 0.042701,-0.324347 0.0708072,-0.319391 0.0983745,-0.312004 0.125193,-0.302243 0.151059,-0.290182 0.175775,-0.275912 0.199154,-0.259542 0.221016,-0.241197 0.241197,-0.221016 0.259542,-0.199154 0.275912,-0.175775 0.290182,-0.151059 0.302243,-0.125193 0.312004,-0.0983745 0.319391,-0.0708072 0.324347,-0.042701 0.326834,-0.0142699 0,0.2 -0.309403,0.0135088 -0.307048,0.0404237 -0.302357,0.0670308 -0.295364,0.0931279 -0.286123,0.118516 -0.274705,0.143002 -0.261196,0.1664 -0.2457,0.188532 -0.228333,0.209229 -0.209229,0.228333 -0.188532,0.2457 -0.1664,0.261196 -0.143002,0.274705 -0.118516,0.286123 -0.0931279,0.295364 -0.0670308,0.302357 -0.0404237,0.307048 -0.0135088,0.309403 0.0141408,0.316544 0.0423099,0.314022 0.0701418,0.308999 0.097415,0.301513 0.123912,0.291626 0.149422,0.279416 0.173742,0.264979 0.196677,0.248431 z "/>
<path fill="rgb(0,91,140)" stroke="rgb(0,91,140)" d="M 7.5,3.75 l -0.0128574,0.310266 -0.0384839,0.308138 -0.0638466,0.303898 -0.0887715,0.297573 -0.189122,-0.06506 0.084037,-0.281703 0.0604415,-0.28769 0.0364315,-0.291704 0.0121716,-0.293718 -0.0135088,-0.309403 -0.0404237,-0.307048 -0.0670308,-0.302357 -0.0931279,-0.295364 -0.118516,-0.286123 -0.143002,-0.274705 -0.1664,-0.261196 -0.188532,-0.2457 -0.209229,-0.228333 -0.228333,-0.209229 -0.2457,-0.188532 -0.261196,-0.1664 -0.274705,-0.143002 -0.286123,-0.118516 -0.295364,-0.0931279 -0.302357,-0.0670308 -0.307048,-0.0404237 -0.309403,-0.0135088 0,-0.2 0.326834,0.0142699 0.324347,0.042701 0.319391,0.0708072 0.312004,0.0983745 0.302243,0.125193 0.290182,0.151059 0.275912,0.175775 0.259542,0.199154 0.241197,0.221016 0.221016,0.241197 0.199154,0.259542 0.175775,0.275912 0.151059,0.290182 0.125193,0.302243 0.0983745,0.312004 0.0708072,0.319391 0.042701,0.324347 0.0142699,0.326834 z "/>
<path fill="rgb(0,91,140)" stroke="rgb(0,91,140)" d="M 1.06776,6.07553 l 0.213058,0.225086 0.231878,0.205645 0.248931,0.184636 0.264087,0.162221 0.27723,0.138568 0.288259,0.11386 0.297092,0.0882837 0.30366,0.0620345 0.307913,0.0353125 0.30982,0.00832127 0.309365,-0.0187333 0.306552,-0.0456452 0.301402,-0.0722091 0.293955,-0.0982226 0.284268,-0.123487 0.272414,-0.147811 0.258483,-0.171008 0.242583,-0.192902 0.224833,-0.213325 0.20537,-0.232122 0.184341,-0.24915 0.161907,-0.264279 0.138239,-0.277394 0.113518,-0.288394 0.189122,0.06506 -0.119913,0.304642 -0.146028,0.293022 -0.171029,0.279168 -0.194726,0.263187 -0.21694,0.245199 -0.2375,0.225343 -0.256249,0.203769 -0.273046,0.180642 -0.287761,0.156138 -0.300283,0.130445 -0.310516,0.103756 -0.318383,0.0762772 -0.323822,0.0482167 -0.326794,0.0197887 -0.327274,-0.00879008 -0.32526,-0.0373019 -0.320767,-0.0655294 -0.313829,-0.0932574 -0.304499,-0.120275 -0.292848,-0.146375 -0.278965,-0.17136 -0.262956,-0.195039 -0.244942,-0.217231 -0.225061,-0.237767 0.151112,-0.131016 z "/>
<path fill="rgb(241,240,234)" stroke="rgb(241,240,234)" d="M 7.03051,3.07121 l -0.0698751,-0.277413 -0.0932889,-0.27044 -0.116022,-0.261495 -0.13791,-0.250643 -0.158791,-0.237962 -0.178515,-0.223547 -0.196937,-0.207501 -0.213922,-0.189942 -0.229348,-0.170998 -0.243101,-0.150807 -0.255081,-0.129516 -0.265201,-0.10728 -0.273387,-0.0842627 -0.27958,-0.0606305 -0.283733,-0.036556 -0.285817,-0.012215 0,-0.2 0.309403,0.0135088 0.307048,0.0404237 0.302357,0.0670308 0.295364,0.0931279 0.286123,0.118516 0.274705,0.143002 0.261196,0.1664 0.2457,0.188532 0.228333,0.209229 0.209229,0.228333 0.188532,0.2457 0.1664,0.261196 0.143002,0.274705 0.118516,0.286123 0.0931279,0.295364 0.0670308,0.302357 0.0404237,0.307048 0.0135088,0.309403 -0.0121716,0.293718 -0.0364315,0.291704 -0.0604415,0.28769 -0.084037,0.281703 -0.189122,-0.06506 0.0793025,-0.265832 0.0570363,-0.271482 0.034379,-0.27527 0.0114859,-0.277171 -0.00774501,-0.227666 -0.0231992,-0.226613 -0.0385462,-0.224512 z "/>
<path fill="rgb(241,240,234)" stroke="rgb(241,240,234)" d="M 1.06776,6.07553 l -0.196677,-0.248431 -0.173742,-0.264979 -0.149422,-0.279416 -0.123912,-0.291626 -0.097415,-0.301513 -0.0701418,-0.308999 -0.0423099,-0.314022 -0.0141408,-0.316544 0.0135088,-0.309403 0.0404237,-0.307048 0.0670308,-0.302357 0.0931279,-0.295364 0.118516,-0.286123 0.143002,-0.274705 0.1664,-0.261196 0.188532,-0.2457 0.209229,-0.228333 0.228333,-0.209229 0.2457,-0.188532 0.261196,-0.1664 0.274705,-0.143002 0.286123,-0.118516 0.295364,-0.0931279 0.302357,-0.0670308 0.307048,-0.0404237 0.309403,-0.0135088 0,0.2 -0.290122,0.0125865 -0.287942,0.0376648 -0.283598,0.0624601 -0.277124,0.0867861 -0.268566,0.11046 -0.257991,0.133304 -0.245477,0.155146 -0.0549965,0.0390181 -0.0542,0.0401172 -0.0533816,0.0412 -0.203135,0.173638 -0.188648,0.189277 -0.172961,0.203711 -0.0410221,0.0535184 -0.0399366,0.0543332 -0.0388349,0.055126 -0.153541,0.244608 -0.131902,0.256923 -0.109283,0.267329 -0.0858519,0.275748 -0.0617827,0.282118 -0.0372542,0.286391 -0.0124489,0.288536 0.0121665,0.28525 0.0364111,0.283178 0.0603913,0.279049 0.0839327,0.272893 0.106865,0.264756 0.12902,0.254695 0.150239,0.242784 0.0758547,0.107076 0.0799899,0.104023 0.0840024,0.100811 -0.151112,0.131016 z "/>
<path fill="rgb(241,240,234)" stroke="rgb(241,240,234)" d="M 3.75279,7.1 l 0.289714,-0.0127935 0.287522,-0.0378014 0.283176,-0.0625262 0.276707,-0.0867823 0.268165,-0.110388 0.257613,-0.133167 0.245131,-0.154948 0.0549965,-0.0390181 0.0542,-0.0401172 0.0533816,-0.0412 0.203135,-0.173638 0.188648,-0.189277 0.172961,-0.203711 0.0410221,-0.0535184 0.0399366,-0.0543332 0.0388349,-0.055126 0.161033,-0.257841 0.136996,-0.271378 0.111831,-0.282679 0.189122,0.06506 -0.113518,0.288394 -0.138239,0.277394 -0.161907,0.264279 -0.184341,0.24915 -0.20537,0.232122 -0.224833,0.213325 -0.242583,0.192902 -0.258483,0.171008 -0.272414,0.147811 -0.284268,0.123487 -0.293955,0.0982226 -0.301402,0.0722091 -0.306552,0.0456452 -0.309365,0.0187333 -0.30982,-0.00832127 -0.307913,-0.0353125 -0.30366,-0.0620345 -0.297092,-0.0882837 -0.288259,-0.11386 -0.27723,-0.138568 -0.264087,-0.162221 -0.248931,-0.184636 -0.231878,-0.205645 -0.213058,-0.225086 0.151112,-0.131016 0.197211,0.208678 0.214356,0.191025 0.229926,0.171968 0.243807,0.151648 0.255897,0.130214 0.266107,0.107823 0.274363,0.0846409 0.280603,0.0608365 0.284782,0.0365852 0.286868,0.0120652 z "/>
<path fill="rgb(187,30,16)" stroke="rgb(187,30,16)" d="M 5.8234,6.38126 l -1.63442,-1.62899 0.0265696,-0.156516 0.00268649,-0.0115952 0.0016399,-0.0117888 0.00058019,-0.0118882 -0.000484155,-0.0118925 -0.00154463,-0.0118017 -0.00259275,-0.0116165 -0.00362014,-0.0113385 -0.00461858,-0.0109697 -0.00558008,-0.0105133 -0.00649697,-0.00997273 -0.0073619,-0.00935245 -0.00816796,-0.00865739 -0.0089087,-0.00789309 0.547436,0.0866871 0.074545,0.00851436 0.0750021,0.00203161 0.0748966,-0.00446638 0.0742291,-0.0109309 0.0730048,-0.0173133 1.29795,1.29363 -0.172961,0.203711 -0.188648,0.189277 -0.203135,0.173638 z "/>
<path fill="rgb(187,30,16)" stroke="rgb(187,30,16)" d="M 1.59713,2.16903 l 0.274298,0.273387 -0.0283972,-0.0646012 -0.0249592,-0.0660057 -0.0214522,-0.0672274 -0.00666225,-0.0271995 -0.00433689,-0.0276657 -0.00198043,-0.0279335 0.000390234,-0.0280008 0.0027581,-0.0278674 0.00510619,-0.0275341 0.00741765,-0.0270033 0.00967591,-0.0262788 0.0118648,-0.0253659 0.0139685,-0.024271 0.0159721,-0.023002 0.0533397,-0.0889055 -0.177793,-0.127427 -0.0281577,0.0307399 -0.0253823,0.0330686 -0.0224153,0.0351476 -0.0192789,0.0369611 -0.015997,0.0384954 -0.0125942,0.0397389 -0.00909631,0.0406824 -0.0055297,0.0413185 -0.00192133,0.0416426 0.00170155,0.0416522 0.00531158,0.0413471 6.21725e-15,1.82077e-14 0.00137826,0.00403746 0.001383,0.00403584 0.00138774,0.00403421 z "/>
<path fill="rgb(187,30,16)" stroke="rgb(187,30,16)" d="M 3.09638,2.53381 l 0.600861,0.598864 -0.157637,-0.000483705 -0.15709,0.0131237 -0.155372,0.0266331 -0.152493,0.0399437 -0.0190282,-0.169521 -0.00271242,-0.170564 0.0136283,-0.170041 0.0298439,-0.167955 z "/>
<path fill="rgb(187,30,16)" stroke="rgb(187,30,16)" d="M 1.11186,1.68537 l 0.172961,-0.203711 0.188648,-0.189277 0.203135,-0.173638 1.29643,1.29212 -0.0807157,0.185572 -0.0948143,0.17878 -0.108346,0.170919 -0.121229,0.162035 -0.0171901,-0.00731473 -0.0170866,-0.00755351 -0.0169797,-0.00779083 -0.645232,-0.643089 -0.0283972,-0.0646012 -0.0249592,-0.0660057 -0.0214522,-0.0672274 -0.00666225,-0.0271995 -0.00433689,-0.0276657 -0.00198043,-0.0279335 0.000390234,-0.0280008 0.0027581,-0.0278674 0.00510619,-0.0275341 0.00741765,-0.0270033 0.00967591,-0.0262788 0.0118648,-0.0253659 0.0139685,-0.024271 0.0159721,-0.023002 0.0533397,-0.0889055 -0.177793,-0.127427 -0.0281577,0.0307399 -0.0253823,0.0330686 -0.0224153,0.0351476 -0.0192789,0.0369611 -0.015997,0.0384954 -0.0125942,0.0397389 -0.00909631,0.0406824 -0.0055297,0.0413185 -0.00192133,0.0416426 0.00170155,0.0416522 0.00531158,0.0413471 6.21725e-15,1.82077e-14 0.00137826,0.00403746 0.001383,0.00403584 0.00138774,0.00403421 -0.485277,-0.483664 z "/>
<path fill="rgb(187,30,16)" stroke="rgb(187,30,16)" d="M 4.21555,4.59575 l 0.00268649,-0.0115952 0.0016399,-0.0117888 0.00058019,-0.0118882 -0.000484155,-0.0118925 -0.00154463,-0.0118017 -0.00259275,-0.0116165 -0.00362014,-0.0113385 -0.00461858,-0.0109697 -0.00558008,-0.0105133 -0.00649697,-0.00997273 -0.0073619,-0.00935245 -0.00816796,-0.00865739 -0.0089087,-0.00789309 0.547436,0.0866871 0.074545,0.00851436 0.0750021,0.00203161 0.0748966,-0.00446638 0.0742291,-0.0109309 0.0730048,-0.0173133 -1.39295,-1.38832 -0.157637,-0.000483705 -0.15709,0.0131237 -0.155372,0.0266331 -0.152493,0.0399437 -0.0190282,-0.169521 -0.00271242,-0.170564 0.0136283,-0.170041 0.0298439,-0.167955 -0.123357,-0.122947 -0.0807157,0.185572 -0.0948143,0.17878 -0.108346,0.170919 -0.121229,0.162035 -0.0171901,-0.00731473 -0.0170866,-0.00755351 -0.0169797,-0.00779083 1.67232,1.66676 0.0265696,-0.156516 z "/>
</g></g></svg>
