<?xml version="1.0" encoding="UTF-8" standalone="no"?>
<!DOCTYPE svg PUBLIC "-//W3C//DTD SVG 1.1//EN" "http://www.w3.org/Graphics/SVG/1.1/DTD/svg11-flat.dtd"
[

]>
<svg xmlns="http://www.w3.org/2000/svg"  viewBox="-0.09375 -0.09375 7.6875 7.6875"><g fill="none" stroke="black" stroke-width="0.0125" transform="translate(0,7.5) scale(1, -1)">
<g id="Output" >
<path fill="rgb(241,240,234)" stroke="rgb(241,240,234)" d="M 3.1,2.1 l 0,-0.917656 0.189832,-0.0420848 0.229205,-0.0301754 0.230963,-0.0100841 0.230963,0.0100841 0.119037,0.0156716 0,0.974244 -1,0 z "/>
<path fill="rgb(241,240,234)" stroke="rgb(241,240,234)" d="M 3.1,2.79677 l 0,-0.696772 1,0 0,1 -0.790208,0 -0.209792,-0.303228 z "/>
<path fill="rgb(241,240,234)" stroke="rgb(241,240,234)" d="M 3.1,3.94011 l 0.659916,0.155272 0.00940654,0.00237615 0.00957917,0.00153904 0.00967745,0.000689988 0.00970063,-0.000164422 0.00964851,-0.00101756 0.00952151,-0.00186279 0.00932061,-0.00269357 0.00904738,-0.00350345 0.00870392,-0.00428613 0.00829291,-0.00503555 0.00781754,-0.00574589 0.0072815,-0.00641163 0.00668894,-0.00702761 0.00604447,-0.00758904 0.00535309,-0.00809158 0.00462016,-0.00853132 0.00385137,-0.00890484 0.00305269,-0.00920925 0.00223032,-0.00944219 0.00139064,-0.00960184 0.00054016,-0.00968697 -0.000314507,-0.00969692 -0.00116673,-0.00963161 -0.0020099,-0.00949155 -0.00283748,-0.00927782 -0.00364302,-0.00899208 -0.0044203,-0.00863656 -0.00516327,-0.008214 -0.572338,-0.827245 0.790208,0 0,1 -1,0 0,-0.159886 z "/>
<path fill="rgb(241,240,234)" stroke="rgb(241,240,234)" d="M 3.1,4.70623 l 0,-0.606231 1,0 0,1 -0.725511,0 -0.0405604,-0.0311073 -0.0470941,-0.0431325 -0.0431557,-0.0470729 -0.0388888,-0.050655 -0.0343259,-0.0538517 -0.0295018,-0.0566384 -0.0244532,-0.0589942 -0.0165095,-0.0523166 z "/>
<path fill="rgb(241,240,234)" stroke="rgb(241,240,234)" d="M 4.1,5.17712 l -0.0451316,0.0187072 -0.0609009,0.0192185 -0.0623442,0.0138375 -0.0633129,0.00835116 -0.0637999,0.0028013 -0.0638012,-0.00276989 -0.063317,-0.00831999 -0.062351,-0.0138068 -0.0609104,-0.0191885 -0.0590062,-0.0244242 -0.0566529,-0.0294739 -0.0538685,-0.0342994 -0.0101137,-0.00775658 0.725511,0 0,0.0771237 z M 3.1,5.58398 l 0.0603288,0.0384856 0.0994636,0.0518382 0.103609,0.0429584 0.106963,0.0337507 0.109501,0.0242854 0.111203,0.0146347 0.112056,0.00487223 0.112053,-0.00492739 0.111195,-0.0146894 0.0736278,-0.0163674 0,0.34118 -1,0 0,-0.516021 z "/>
<path fill="rgb(241,240,234)" stroke="rgb(241,240,234)" d="M 3.1,6.31766 l 0,-0.217656 1,0 0,0.274244 -0.119037,0.0156716 -0.230963,0.0100841 -0.230963,-0.0100841 -0.229205,-0.0301754 -0.189832,-0.0420848 z "/>
<path fill="rgb(241,240,234)" stroke="rgb(241,240,234)" d="M 5.08595,2.1 l -7.73134e-06,-0.0314121 -0.550188,0.000135416 7.69801e-06,0.0312767 -0.435767,0 0,-0.974244 0.110168,0.0145038 0.225703,0.0500371 0.220483,0.069518 0.213585,0.0884698 0.205062,0.106748 0.025,0.0159268 0,0.629041 -0.0140452,0 z "/>
<path fill="rgb(241,240,234)" stroke="rgb(241,240,234)" d="M 4.53577,2.1 l 0.000246126,1 -0.436013,0 0,-1 0.435767,0 z M 5.08595,2.1 l 0.0140452,0 0,1 -0.0137991,0 -0.000246126,-1 z "/>
<path fill="rgb(241,240,234)" stroke="rgb(241,240,234)" d="M 4.53601,3.1 l 0.000246126,1 -0.436259,0 0,-1 0.436013,0 z M 5.0862,3.1 l 0.0137991,0 0,1 -0.013553,0 -0.000246126,-1 z "/>
<path fill="rgb(241,240,234)" stroke="rgb(241,240,234)" d="M 4.53626,4.1 l 0.000100378,0.40783 -0.00276989,0.0638012 -0.00831999,0.063317 -0.0138068,0.062351 -0.0191885,0.0609104 -0.0244242,0.0590062 -0.0294739,0.0566529 -0.0342994,0.0538685 -0.0388638,0.0506742 -0.0431325,0.0470941 -0.0470729,0.0431557 -0.0408208,0.0313389 -0.134187,0 0,-1 0.436259,0 z M 5.08645,4.1 l 0.013553,0 0,1 -0.157892,0 0.0252291,-0.0486898 0.0427121,-0.103711 0.0334965,-0.107043 0.0240252,-0.109558 0.0143704,-0.111237 0.00460602,-0.112067 0,-1.42109e-14 -0.000100344,-0.407694 z "/>
<path fill="rgb(241,240,234)" stroke="rgb(241,240,234)" d="M 4.1,5.1 l 0.134187,0 -0.0098342,0.00754989 -0.0538517,0.0343259 -0.0566384,0.0295018 -0.0138625,0.00574604 0,-0.0771237 z M 4.96928,6.1 l -0.869283,0 0,-0.34118 0.0358611,-0.00797189 0.106946,-0.0338034 0.103588,-0.0430094 0.0994381,-0.0518871 0.0945295,-0.0603687 0.0888993,-0.0683895 0.0825904,-0.0758883 0.0756511,-0.0828077 0.0681343,-0.089095 0.0600974,-0.0947022 0.0263727,-0.0508968 0.157892,0 0,0.929041 -0.025,0.0159268 -0.105717,0.0550327 z "/>
<path fill="rgb(241,240,234)" stroke="rgb(241,240,234)" d="M 4.96928,6.1 l -0.0993448,0.0517156 -0.213585,0.0884698 -0.220483,0.069518 -0.225703,0.0500371 -0.110168,0.0145038 0,-0.274244 0.869283,0 z "/>
<path fill="rgb(241,240,234)" stroke="rgb(241,240,234)" d="M 5.1,2.1 l 0,-0.629041 0.169978,0.108288 0.18341,0.140735 0.170446,0.156185 0.156185,0.170446 0.0409654,0.0533872 -0.720983,0 z "/>
<path fill="rgb(241,240,234)" stroke="rgb(241,240,234)" d="M 5.82098,2.1 l 0.0997697,0.130022 0.124214,0.194978 0.0550327,0.105717 0,0.569283 -1,0 0,-1 0.720983,0 z "/>
<path fill="rgb(241,240,234)" stroke="rgb(241,240,234)" d="M 5.1,3.1 l 1,0 0,1 -1,0 0,-1 z "/>
<path fill="rgb(241,240,234)" stroke="rgb(241,240,234)" d="M 6.02904,5.1 l -0.929041,0 0,-1 1,0 0,0.869283 -0.0550327,0.105717 -0.0159268,0.025 z "/>
<path fill="rgb(241,240,234)" stroke="rgb(241,240,234)" d="M 6.02904,5.1 l -0.108288,0.169978 -0.140735,0.18341 -0.156185,0.170446 -0.170446,0.156185 -0.18341,0.140735 -0.169978,0.108288 0,-0.929041 0.929041,0 z "/>
<path fill="rgb(241,240,234)" stroke="rgb(241,240,234)" d="M 6.1,3.1 l 0,-0.569283 0.0517156,0.0993448 0.0884698,0.213585 0.069518,0.220483 0.00795229,0.0358705 -0.217656,0 z "/>
<path fill="rgb(241,240,234)" stroke="rgb(241,240,234)" d="M 6.31766,3.1 l 0.0420848,0.189832 0.0301754,0.229205 0.0100841,0.230963 -0.0100841,0.230963 -0.0156716,0.119037 -0.274244,0 0,-1 0.217656,0 z "/>
<path fill="rgb(241,240,234)" stroke="rgb(241,240,234)" d="M 6.1,4.1 l 0.274244,0 -0.0145038,0.110168 -0.0500371,0.225703 -0.069518,0.220483 -0.0884698,0.213585 -0.0517156,0.0993448 0,-0.869283 z "/>
<path fill="rgb(241,240,234)" stroke="rgb(241,240,234)" d="M 2.1,1.67902 l 0,0.420983 -0.420983,0 0.0409654,-0.0533872 0.156185,-0.170446 0.170446,-0.156185 0.0533872,-0.0409654 z "/>
<path fill="rgb(241,240,234)" stroke="rgb(241,240,234)" d="M 1.67902,2.1 l 0.420983,0 0,1 -0.917656,0 0.00795229,-0.0358705 0.069518,-0.220483 0.0884698,-0.213585 0.106748,-0.205062 0.124214,-0.194978 0.0997697,-0.130022 z "/>
<path fill="rgb(241,240,234)" stroke="rgb(241,240,234)" d="M 2.1,3.3637 l -0.391049,0.564078 -0.00470304,0.00859076 -0.00393956,0.00896658 -0.00314633,0.00927472 -0.00232935,0.00951283 -0.00149479,0.00967912 -0.00064894,0.00977234 0.000201809,0.00979178 0.00105103,0.0097373 0.00189233,0.00960931 0.00271933,0.00940877 0.0035258,0.0091372 0.00430566,0.00879665 0.00505301,0.00838969 0.00576221,0.00791939 0.00642791,0.0073893 0.00704509,0.00680342 0.00760907,0.00616618 0.00811561,0.00548239 0.00856088,0.00475721 0.00894152,0.00399612 0.00925466,0.00320485 0.00949792,0.00238939 0.00966949,0.0015559 0.00976805,0.000710652 0.00979286,-0.000139958 0.00974375,-0.00098951 0.00962107,-0.00183159 0.268752,-0.0633744 0,0.0675134 -0.974244,0 -0.0156716,-0.119037 -0.0100841,-0.230963 0.0100841,-0.230963 0.0301754,-0.229205 0.0420848,-0.189832 0.917656,0 0,0.263703 z "/>
<path fill="rgb(241,240,234)" stroke="rgb(241,240,234)" d="M 1.12576,4.1 l 0.974244,0 0,1 -0.629041,0 -0.0159268,-0.025 -0.106748,-0.205062 -0.0884698,-0.213585 -0.069518,-0.220483 -0.0500371,-0.225703 -0.0145038,-0.110168 z "/>
<path fill="rgb(241,240,234)" stroke="rgb(241,240,234)" d="M 1.47096,5.1 l 0.629041,0 0,0.720983 -0.0533872,-0.0409654 -0.170446,-0.156185 -0.156185,-0.170446 -0.140735,-0.18341 -0.108288,-0.169978 z "/>
<path fill="rgb(241,240,234)" stroke="rgb(241,240,234)" d="M 2.1,1.67902 l 0.130022,-0.0997697 0.194978,-0.124214 0.205062,-0.106748 0.213585,-0.0884698 0.220483,-0.069518 0.0358705,-0.00795229 0,0.917656 -1,0 0,-0.420983 z "/>
<path fill="rgb(241,240,234)" stroke="rgb(241,240,234)" d="M 2.28281,3.1 l -0.182813,0 0,-1 1,0 0,0.696772 -0.211409,-0.305566 -6.05969e-05,-8.77646e-05 -6.06808e-05,-8.77067e-05 -6.07646e-05,-8.76486e-05 -0.00592303,-0.00778311 -0.00658175,-0.00723462 -0.00718992,-0.00663055 -0.00774286,-0.00597555 -0.00823633,-0.00527466 -0.00866653,-0.00453325 -0.00903017,-0.00375702 -0.00932444,-0.00295193 -0.00954709,-0.00212417 -0.00969642,-0.0012801 -0.00977126,-0.000426187 -0.00977105,0.000430996 -0.00969578,0.00128487 -0.00954605,0.00212887 -0.00932299,0.00295652 -0.00902832,0.00376147 -0.0086643,0.00453752 -0.00823373,0.00527871 -0.00773992,0.00597936 -0.00718665,0.00663409 -0.00657819,0.00723785 -0.0059192,0.00778603 -0.4222,0.609013 z "/>
<path fill="rgb(241,240,234)" stroke="rgb(241,240,234)" d="M 2.28281,3.1 l -0.182813,0.263703 0,-0.263703 0.182813,0 z M 3.0722,4.1 l -4.09644e-05,-0.166436 0.0278403,0.00655056 0,0.159886 -0.0277993,0 z M 2.1,4.03249 l 0.418925,-0.0987868 4.09309e-05,0.1663 -0.418966,0 0,-0.0675134 z "/>
<path fill="rgb(241,240,234)" stroke="rgb(241,240,234)" d="M 3.1,4.70623 l -0.00270895,-0.00858432 -0.0138375,-0.0623442 -0.00835116,-0.0633129 -0.0028013,-0.0637999 -0.000100466,-0.40819 0.0277993,0 0,0.606231 z M 2.51897,4.1 l 0.0001005,0.408326 0,1.03029e-13 0.00466118,0.112065 0.0144252,0.11123 0.0240791,0.109546 0.0335492,0.107026 0.0427632,0.10369 0.0249621,0.0481166 -0.563506,0 0,-1 0.418966,0 z "/>
<path fill="rgb(241,240,234)" stroke="rgb(241,240,234)" d="M 2.1,5.82098 l 0,-0.720983 0.563506,0 0.0266886,0.0514445 0.060144,0.0946726 0.0681782,0.0890615 0.0756919,0.0827705 0.0826278,0.0758476 0.0889329,0.0683458 0.0342304,0.0218366 0,0.516021 -0.569283,0 -0.105717,-0.0550327 -0.194978,-0.124214 -0.130022,-0.0997697 z "/>
<path fill="rgb(241,240,234)" stroke="rgb(241,240,234)" d="M 2.53072,6.1 l 0.569283,0 0,0.217656 -0.0358705,-0.00795229 -0.220483,-0.069518 -0.213585,-0.0884698 -0.0993448,-0.0517156 z "/>
<path fill="rgb(241,240,234)" stroke="rgb(241,240,234)" d="M 0.2,3.75 l 0.0135088,-0.309403 0.0404237,-0.307048 0.0670308,-0.302357 0.0931279,-0.295364 0.118516,-0.286123 0.143002,-0.274705 0.1664,-0.261196 0.188532,-0.2457 0.209229,-0.228333 0.228333,-0.209229 0.2457,-0.188532 0.261196,-0.1664 0.274705,-0.143002 0.286123,-0.118516 0.295364,-0.0931279 0.302357,-0.0670308 0.307048,-0.0404237 0.309403,-0.0135088 0.309403,0.0135088 0.307048,0.0404237 0.302357,0.0670308 0.295364,0.0931279 0.286123,0.118516 0.274705,0.143002 0.261196,0.1664 0.2457,0.188532 0.228333,0.209229 0.209229,0.228333 0.188532,0.2457 0.1664,0.261196 0.143002,0.274705 0.118516,0.286123 0.0931279,0.295364 0.0670308,0.302357 0.0404237,0.307048 0.0135088,0.309403 -0.2,0 -0.0127478,-0.291972 -0.0381463,-0.28975 -0.0632545,-0.285322 -0.0878812,-0.278724 -0.111839,-0.270004 -0.134946,-0.259229 -0.157026,-0.246481 -0.17791,-0.231857 -0.197441,-0.215469 -0.215469,-0.197441 -0.231857,-0.17791 -0.246481,-0.157026 -0.259229,-0.134946 -0.270004,-0.111839 -0.278724,-0.0878812 -0.285322,-0.0632545 -0.28975,-0.0381463 -0.291972,-0.0127478 -0.291972,0.0127478 -0.28975,0.0381463 -0.285322,0.0632545 -0.278724,0.0878812 -0.270004,0.111839 -0.259229,0.134946 -0.246481,0.157026 -0.231857,0.17791 -0.215469,0.197441 -0.197441,0.215469 -0.17791,0.231857 -0.157026,0.246481 -0.134946,0.259229 -0.111839,0.270004 -0.0878812,0.278724 -0.0632545,0.285322 -0.0381463,0.28975 -0.0127478,0.291972 -0.2,0 z "/>
<path fill="rgb(241,240,234)" stroke="rgb(241,240,234)" d="M 0.2,3.75 l 0.2,0 0.0127478,0.291972 0.0381463,0.28975 0.0632545,0.285322 0.0878812,0.278724 0.111839,0.270004 0.134946,0.259229 0.157026,0.246481 0.17791,0.231857 0.197441,0.215469 0.215469,0.197441 0.231857,0.17791 0.246481,0.157026 0.259229,0.134946 0.270004,0.111839 0.278724,0.0878812 0.285322,0.0632545 0.28975,0.0381463 0.291972,0.0127478 0.291972,-0.0127478 0.28975,-0.0381463 0.285322,-0.0632545 0.278724,-0.0878812 0.270004,-0.111839 0.259229,-0.134946 0.246481,-0.157026 0.231857,-0.17791 0.215469,-0.197441 0.197441,-0.215469 0.17791,-0.231857 0.157026,-0.246481 0.134946,-0.259229 0.111839,-0.270004 0.0878812,-0.278724 0.0632545,-0.285322 0.0381463,-0.28975 0.0127478,-0.291972 0.2,0 -0.0135088,0.309403 -0.0404237,0.307048 -0.0670308,0.302357 -0.0931279,0.295364 -0.118516,0.286123 -0.143002,0.274705 -0.1664,0.261196 -0.188532,0.2457 -0.209229,0.228333 -0.228333,0.209229 -0.2457,0.188532 -0.261196,0.1664 -0.274705,0.143002 -0.286123,0.118516 -0.295364,0.0931279 -0.302357,0.0670308 -0.307048,0.0404237 -0.309403,0.0135088 -0.309403,-0.0135088 -0.307048,-0.0404237 -0.302357,-0.0670308 -0.295364,-0.0931279 -0.286123,-0.118516 -0.274705,-0.143002 -0.261196,-0.1664 -0.2457,-0.188532 -0.228333,-0.209229 -0.209229,-0.228333 -0.188532,-0.2457 -0.1664,-0.261196 -0.143002,-0.274705 -0.118516,-0.286123 -0.0931279,-0.295364 -0.0670308,-0.302357 -0.0404237,-0.307048 -0.0135088,-0.309403 z "/>
<path fill="rgb(42,41,42)" stroke="rgb(42,41,42)" d="M 2.51907,4.50833 l 0.00466118,0.112065 0.0144252,0.11123 0.0240791,0.109546 0.0335492,0.107026 0.0427632,0.10369 0.0516507,0.0995611 0.060144,0.0946726 0.0681782,0.0890615 0.0756919,0.0827705 0.0826278,0.0758476 0.0889329,0.0683458 0.0945592,0.0603222 0.0994636,0.0518382 0.103609,0.0429584 0.106963,0.0337507 0.109501,0.0242854 0.111203,0.0146347 0.112056,0.00487223 0.112053,-0.00492739 0.111195,-0.0146894 0.109489,-0.0243393 0.106946,-0.0338034 0.103588,-0.0430094 0.0994381,-0.0518871 0.0945295,-0.0603687 0.0888993,-0.0683895 0.0825904,-0.0758883 0.0756511,-0.0828077 0.0681343,-0.089095 0.0600974,-0.0947022 0.0516017,-0.0995865 0.0427121,-0.103711 0.0334965,-0.107043 0.0240252,-0.109558 0.0143704,-0.111237 0.00460602,-0.112067 -0.00460602,0.112067 -0.0143704,0.111237 -0.0240252,0.109558 -0.0334965,0.107043 -0.0427121,0.103711 -0.0516017,0.0995865 -0.0600974,0.0947022 -0.0681343,0.089095 -0.0756511,0.0828077 -0.0825904,0.0758883 -0.0888993,0.0683895 -0.0945295,0.0603687 -0.0994381,0.0518871 -0.103588,0.0430094 -0.106946,0.0338034 -0.109489,0.0243393 -0.111195,0.0146894 -0.112053,0.00492739 -0.112056,-0.00487223 -0.111203,-0.0146347 -0.109501,-0.0242854 -0.106963,-0.0337507 -0.103609,-0.0429584 -0.0994636,-0.0518382 -0.0945592,-0.0603222 -0.0889329,-0.0683458 -0.0826278,-0.0758476 -0.0756919,-0.0827705 -0.0681782,-0.0890615 -0.060144,-0.0946726 -0.0516507,-0.0995611 -0.0427632,-0.10369 -0.0335492,-0.107026 -0.0240791,-0.109546 -0.0144252,-0.11123 -0.00466118,-0.112065 z "/>
<path fill="rgb(42,41,42)" stroke="rgb(42,41,42)" d="M 5.08595,2.06859 l 0.000600329,2.43911 0,1.42109e-14 -0.00460602,0.112067 -0.0143704,0.111237 -0.0240252,0.109558 -0.0334965,0.107043 -0.0427121,0.103711 -0.0516017,0.0995865 -0.0600974,0.0947022 -0.0681343,0.089095 -0.0756511,0.0828077 -0.0825904,0.0758883 -0.0888993,0.0683895 -0.0945295,0.0603687 -0.0994381,0.0518871 -0.103588,0.0430094 -0.106946,0.0338034 -0.109489,0.0243393 -0.111195,0.0146894 -0.112053,0.00492739 -0.112056,-0.00487223 -0.111203,-0.0146347 -0.109501,-0.0242854 -0.106963,-0.0337507 -0.103609,-0.0429584 -0.0994636,-0.0518382 -0.0945592,-0.0603222 -0.0889329,-0.0683458 -0.0826278,-0.0758476 -0.0756919,-0.0827705 -0.0681782,-0.0890615 -0.060144,-0.0946726 -0.0516507,-0.0995611 -0.0427632,-0.10369 -0.0335492,-0.107026 -0.0240791,-0.109546 -0.0144252,-0.11123 -0.00466118,-0.112065 0,-1.03029e-13 -0.000141431,-0.574627 -0.687676,0.162161 -0.00962107,0.00183159 -0.00974375,0.00098951 -0.00979286,0.000139958 -0.00976805,-0.000710652 -0.00966949,-0.0015559 -0.00949792,-0.00238939 -0.00925466,-0.00320485 -0.00894152,-0.00399612 -0.00856088,-0.00475721 -0.00811561,-0.00548239 -0.00760907,-0.00616618 -0.00704509,-0.00680342 -0.00642791,-0.0073893 -0.00576221,-0.00791939 -0.00505301,-0.00838969 -0.00430566,-0.00879665 -0.0035258,-0.0091372 -0.00271933,-0.00940877 -0.00189233,-0.00960931 -0.00105103,-0.0097373 -0.000201809,-0.00979178 0.00064894,-0.00977234 0.00149479,-0.00967912 0.00232935,-0.00951283 0.00314633,-0.00927472 0.00393956,-0.00896658 0.00470304,-0.00859076 0.996061,-1.43679 0.0059192,-0.00778603 0.00657819,-0.00723785 0.00718665,-0.00663409 0.00773992,-0.00597936 0.00823373,-0.00527871 0.0086643,-0.00453752 0.00902832,-0.00376147 0.00932299,-0.00295652 0.00954605,-0.00212887 0.00969578,-0.00128487 0.00977105,-0.000430996 0.00977126,0.000426187 0.00969642,0.0012801 0.00954709,0.00212417 0.00932444,0.00295193 0.00903017,0.00375702 0.00866653,0.00453325 0.00823633,0.00527466 0.00774286,0.00597555 0.00718992,0.00663055 0.00658175,0.00723462 0.00592303,0.00778311 0.000182042,0.00026312 0.993539,1.43604 0.00516327,0.008214 0.0044203,0.00863656 0.00364302,0.00899208 0.00283748,0.00927782 0.0020099,0.00949155 0.00116673,0.00963161 0.000314507,0.00969692 -0.00054016,0.00968697 -0.00139064,0.00960184 -0.00223032,0.00944219 -0.00305269,0.00920925 -0.00385137,0.00890484 -0.00462016,0.00853132 -0.00535309,0.00809158 -0.00604447,0.00758904 -0.00668894,0.00702761 -0.0072815,0.00641163 -0.00781754,0.00574589 -0.00829291,0.00503555 -0.00870392,0.00428613 -0.00904738,0.00350345 -0.00932061,0.00269357 -0.00952151,0.00186279 -0.00964851,0.00101756 -0.00970063,0.000164422 -0.00967745,-0.000689988 -0.00957917,-0.00153904 -0.00940654,-0.00237615 -0.687756,-0.161823 0.000141431,0.574627 0.0028013,0.0637999 0.00835116,0.0633129 0.0138375,0.0623442 0.0192185,0.0609009 0.0244532,0.0589942 0.0295018,0.0566384 0.0343259,0.0538517 0.0388888,0.050655 0.0431557,0.0470729 0.0470941,0.0431325 0.0506742,0.0388638 0.0538685,0.0342994 0.0566529,0.0294739 0.0590062,0.0244242 0.0609104,0.0191885 0.062351,0.0138068 0.063317,0.00831999 0.0638012,0.00276989 0.0637999,-0.0028013 0.0633129,-0.00835116 0.0623442,-0.0138375 0.0609009,-0.0192185 0.0589942,-0.0244532 0.0566384,-0.0295018 0.0538517,-0.0343259 0.050655,-0.0388888 0.0470729,-0.0431557 0.0431325,-0.0470941 0.0388638,-0.0506742 0.0342994,-0.0538685 0.0294739,-0.0566529 0.0244242,-0.0590062 0.0191885,-0.0609104 0.0138068,-0.062351 0.00831999,-0.063317 0.00276989,-0.0638012 -0.000600329,-2.43911 0.550188,-0.000135416 z "/>
<path fill="rgb(187,30,16)" stroke="rgb(187,30,16)" d="M 0.2,3.75 l -0.2,0 0.0142699,-0.326834 0.042701,-0.324347 0.0708072,-0.319391 0.0983745,-0.312004 0.125193,-0.302243 0.151059,-0.290182 0.175775,-0.275912 0.199154,-0.259542 0.221016,-0.241197 0.241197,-0.221016 0.259542,-0.199154 0.275912,-0.175775 0.290182,-0.151059 0.302243,-0.125193 0.312004,-0.0983745 0.319391,-0.0708072 0.324347,-0.042701 0.326834,-0.0142699 0.326834,0.0142699 0.324347,0.042701 0.319391,0.0708072 0.312004,0.0983745 0.302243,0.125193 0.290182,0.151059 0.275912,0.175775 0.259542,0.199154 0.241197,0.221016 0.221016,0.241197 0.199154,0.259542 0.175775,0.275912 0.151059,0.290182 0.125193,0.302243 0.0983745,0.312004 0.0708072,0.319391 0.042701,0.324347 0.0142699,0.326834 -0.2,0 -0.0135088,-0.309403 -0.0404237,-0.307048 -0.0670308,-0.302357 -0.0931279,-0.295364 -0.118516,-0.286123 -0.143002,-0.274705 -0.1664,-0.261196 -0.188532,-0.2457 -0.209229,-0.228333 -0.228333,-0.209229 -0.2457,-0.188532 -0.261196,-0.1664 -0.274705,-0.143002 -0.286123,-0.118516 -0.295364,-0.0931279 -0.302357,-0.0670308 -0.307048,-0.0404237 -0.309403,-0.0135088 -0.309403,0.0135088 -0.307048,0.0404237 -0.302357,0.0670308 -0.295364,0.0931279 -0.286123,0.118516 -0.274705,0.143002 -0.261196,0.1664 -0.2457,0.188532 -0.228333,0.209229 -0.209229,0.228333 -0.188532,0.2457 -0.1664,0.261196 -0.143002,0.274705 -0.118516,0.286123 -0.0931279,0.295364 -0.0670308,0.302357 -0.0404237,0.307048 -0.0135088,0.309403 z "/>
<path fill="rgb(187,30,16)" stroke="rgb(187,30,16)" d="M 0.2,3.75 l 0.0135088,0.309403 0.0404237,0.307048 0.0670308,0.302357 0.0931279,0.295364 0.118516,0.286123 0.143002,0.274705 0.1664,0.261196 0.188532,0.2457 0.209229,0.228333 0.228333,0.209229 0.2457,0.188532 0.261196,0.1664 0.274705,0.143002 0.286123,0.118516 0.295364,0.0931279 0.302357,0.0670308 0.307048,0.0404237 0.309403,0.0135088 0.309403,-0.0135088 0.307048,-0.0404237 0.302357,-0.0670308 0.295364,-0.0931279 0.286123,-0.118516 0.274705,-0.143002 0.261196,-0.1664 0.2457,-0.188532 0.228333,-0.209229 0.209229,-0.228333 0.188532,-0.2457 0.1664,-0.261196 0.143002,-0.274705 0.118516,-0.286123 0.0931279,-0.295364 0.0670308,-0.302357 0.0404237,-0.307048 0.0135088,-0.309403 0.2,0 -0.0142699,0.326834 -0.042701,0.324347 -0.0708072,0.319391 -0.0983745,0.312004 -0.125193,0.302243 -0.151059,0.290182 -0.175775,0.275912 -0.199154,0.259542 -0.221016,0.241197 -0.241197,0.221016 -0.259542,0.199154 -0.275912,0.175775 -0.290182,0.151059 -0.302243,0.125193 -0.312004,0.0983745 -0.319391,0.0708072 -0.324347,0.042701 -0.326834,0.0142699 -0.326834,-0.0142699 -0.324347,-0.042701 -0.319391,-0.0708072 -0.312004,-0.0983745 -0.302243,-0.125193 -0.290182,-0.151059 -0.275912,-0.175775 -0.259542,-0.199154 -0.241197,-0.221016 -0.221016,-0.241197 -0.199154,-0.259542 -0.175775,-0.275912 -0.151059,-0.290182 -0.125193,-0.302243 -0.0983745,-0.312004 -0.0708072,-0.319391 -0.042701,-0.324347 -0.0142699,-0.326834 0.2,0 z "/>
<path fill="rgb(187,30,16)" stroke="rgb(187,30,16)" d="M 7.1,3.75 l -0.7,0 -0.0100841,-0.230963 -0.0301754,-0.229205 -0.0500371,-0.225703 -0.069518,-0.220483 -0.0884698,-0.213585 -0.106748,-0.205062 -0.124214,-0.194978 -0.140735,-0.18341 -0.156185,-0.170446 -0.170446,-0.156185 -0.18341,-0.140735 -0.194978,-0.124214 -0.205062,-0.106748 -0.213585,-0.0884698 -0.220483,-0.069518 -0.225703,-0.0500371 -0.229205,-0.0301754 -0.230963,-0.0100841 -0.230963,0.0100841 -0.229205,0.0301754 -0.225703,0.0500371 -0.220483,0.069518 -0.213585,0.0884698 -0.205062,0.106748 -0.194978,0.124214 -0.18341,0.140735 -0.170446,0.156185 -0.156185,0.170446 -0.140735,0.18341 -0.124214,0.194978 -0.106748,0.205062 -0.0884698,0.213585 -0.069518,0.220483 -0.0500371,0.225703 -0.0301754,0.229205 -0.0100841,0.230963 -0.7,0 0.0127478,-0.291972 0.0381463,-0.28975 0.0632545,-0.285322 0.0878812,-0.278724 0.111839,-0.270004 0.134946,-0.259229 0.157026,-0.246481 0.17791,-0.231857 0.197441,-0.215469 0.215469,-0.197441 0.231857,-0.17791 0.246481,-0.157026 0.259229,-0.134946 0.270004,-0.111839 0.278724,-0.0878812 0.285322,-0.0632545 0.28975,-0.0381463 0.291972,-0.0127478 0.291972,0.0127478 0.28975,0.0381463 0.285322,0.0632545 0.278724,0.0878812 0.270004,0.111839 0.259229,0.134946 0.246481,0.157026 0.231857,0.17791 0.215469,0.197441 0.197441,0.215469 0.17791,0.231857 0.157026,0.246481 0.134946,0.259229 0.111839,0.270004 0.0878812,0.278724 0.0632545,0.285322 0.0381463,0.28975 0.0127478,0.291972 z "/>
<path fill="rgb(187,30,16)" stroke="rgb(187,30,16)" d="M 7.1,3.75 l -0.0127478,0.291972 -0.0381463,0.28975 -0.0632545,0.285322 -0.0878812,0.278724 -0.111839,0.270004 -0.134946,0.259229 -0.157026,0.246481 -0.17791,0.231857 -0.197441,0.215469 -0.215469,0.197441 -0.231857,0.17791 -0.246481,0.157026 -0.259229,0.134946 -0.270004,0.111839 -0.278724,0.0878812 -0.285322,0.0632545 -0.28975,0.0381463 -0.291972,0.0127478 -0.291972,-0.0127478 -0.28975,-0.0381463 -0.285322,-0.0632545 -0.278724,-0.0878812 -0.270004,-0.111839 -0.259229,-0.134946 -0.246481,-0.157026 -0.231857,-0.17791 -0.215469,-0.197441 -0.197441,-0.215469 -0.17791,-0.231857 -0.157026,-0.246481 -0.134946,-0.259229 -0.111839,-0.270004 -0.0878812,-0.278724 -0.0632545,-0.285322 -0.0381463,-0.28975 -0.0127478,-0.291972 0.7,0 0.0100841,0.230963 0.0301754,0.229205 0.0500371,0.225703 0.069518,0.220483 0.0884698,0.213585 0.106748,0.205062 0.124214,0.194978 0.140735,0.18341 0.156185,0.170446 0.170446,0.156185 0.18341,0.140735 0.194978,0.124214 0.205062,0.106748 0.213585,0.0884698 0.220483,0.069518 0.225703,0.0500371 0.229205,0.0301754 0.230963,0.0100841 0.230963,-0.0100841 0.229205,-0.0301754 0.225703,-0.0500371 0.220483,-0.069518 0.213585,-0.0884698 0.205062,-0.106748 0.194978,-0.124214 0.18341,-0.140735 0.170446,-0.156185 0.156185,-0.170446 0.140735,-0.18341 0.124214,-0.194978 0.106748,-0.205062 0.0884698,-0.213585 0.069518,-0.220483 0.0500371,-0.225703 0.0301754,-0.229205 0.0100841,-0.230963 0.7,0 z "/>
</g></g></svg>
