<?xml version="1.0" encoding="UTF-8" standalone="no"?>
<!DOCTYPE svg PUBLIC "-//W3C//DTD SVG 1.1//EN" "http://www.w3.org/Graphics/SVG/1.1/DTD/svg11-flat.dtd"
[

]>
<svg xmlns="http://www.w3.org/2000/svg"  viewBox="-0.05625 -0.05625 4.6125 7.6125"><g fill="none" stroke="black" stroke-width="0.0125" transform="translate(0,7.5) scale(1, -1)">
<g id="Output" >
<path fill="rgb(0,91,140)" stroke="rgb(0,91,140)" d="M 0.7,0.4 l 1.55,-4.44089e-16 1.55,-4.44089e-16 0.0261467,0.00114159 0.0259477,0.00341608 0.0255513,0.00566458 0.0249603,0.00786996 0.0241794,0.0100155 0.0232145,0.0120847 0.0220729,0.014062 0.0207634,0.0159323 0.0192958,0.0176813 0.0176813,0.0192958 0.0159323,0.0207634 0.014062,0.0220729 0.0120847,0.0232145 0.0100155,0.0241794 0.00786996,0.0249603 0.00566458,0.0255513 0.00341608,0.0259477 0.00114159,0.0261467 0,6.1 -0.00114159,0.0261467 -0.00341608,0.0259477 -0.00566458,0.0255513 -0.00786996,0.0249603 -0.0100155,0.0241794 -0.0120847,0.0232145 -0.014062,0.0220729 -0.0159323,0.0207634 -0.0176813,0.0192958 -0.0192958,0.0176813 -0.0207634,0.0159323 -0.0220729,0.014062 -0.0232145,0.0120847 -0.0241794,0.0100155 -0.0249603,0.00786996 -0.0255513,0.00566458 -0.0259477,0.00341608 -0.0261467,0.00114159 -1.55,0 -1.55,0 -0.0261467,-0.00114159 -0.0259477,-0.00341608 -0.0255513,-0.00566458 -0.0249603,-0.00786996 -0.0241794,-0.0100155 -0.0232145,-0.0120847 -0.0220729,-0.014062 -0.0207634,-0.0159323 -0.0192958,-0.0176813 -0.0176813,-0.0192958 -0.0159323,-0.0207634 -0.014062,-0.0220729 -0.0120847,-0.0232145 -0.0100155,-0.0241794 -0.00786996,-0.0249603 -0.00566458,-0.0255513 -0.00341608,-0.0259477 -0.00114159,-0.0261467 -4.44089e-16,-6.1 0.00114159,-0.0261467 0.00341608,-0.0259477 0.00566458,-0.0255513 0.00786996,-0.0249603 0.0100155,-0.0241794 0.0120847,-0.0232145 0.014062,-0.0220729 0.0159323,-0.0207634 0.0176813,-0.0192958 0.0192958,-0.0176813 0.0207634,-0.0159323 0.0220729,-0.014062 0.0232145,-0.0120847 0.0241794,-0.0100155 0.0249603,-0.00786996 0.0255513,-0.00566458 0.0259477,-0.00341608 0.0261467,-0.00114159 z "/>
<path fill="rgb(0,91,140)" stroke="rgb(0,91,140)" d="M 3.8,7.5 l -1.55,0 -4.44089e-16,-0.2 1.55,0 0.0435779,-0.00190265 0.0432462,-0.00569347 0.0425854,-0.00944096 0.0416005,-0.0131166 0.0402991,-0.0166924 0.0386909,-0.0201412 0.0367882,-0.0234367 0.0346056,-0.0265538 0.0321596,-0.0294688 0.0294688,-0.0321596 0.0265538,-0.0346056 0.0234367,-0.0367882 0.0201412,-0.0386909 0.0166924,-0.0402991 0.0131166,-0.0416005 0.00944096,-0.0425854 0.00569347,-0.0432462 0.00190265,-0.0435779 0,-6.1 -0.00190265,-0.0435779 -0.00569347,-0.0432462 -0.00944096,-0.0425854 -0.0131166,-0.0416005 -0.0166924,-0.0402991 -0.0201412,-0.0386909 -0.0234367,-0.0367882 -0.0265538,-0.0346056 -0.0294688,-0.0321596 -0.0321596,-0.0294688 -0.0346056,-0.0265538 -0.0367882,-0.0234367 -0.0386909,-0.0201412 -0.0402991,-0.0166924 -0.0416005,-0.0131166 -0.0425854,-0.00944096 -0.0432462,-0.00569347 -0.0435779,-0.00190265 -1.55,4.44089e-16 0,-0.2 1.55,-4.44089e-16 0.061009,0.00266371 0.0605447,0.00797086 0.0596196,0.0132173 0.0582408,0.0183632 0.0564187,0.0233694 0.0541672,0.0281977 0.0515035,0.0328114 0.0484478,0.0371753 0.0450234,0.0412564 0.0412564,0.0450234 0.0371753,0.0484478 0.0328114,0.0515035 0.0281977,0.0541672 0.0233694,0.0564187 0.0183632,0.0582408 0.0132173,0.0596196 0.00797086,0.0605447 0.00266371,0.061009 8.88178e-16,6.1 -0.00266371,0.061009 -0.00797086,0.0605447 -0.0132173,0.0596196 -0.0183632,0.0582408 -0.0233694,0.0564187 -0.0281977,0.0541672 -0.0328114,0.0515035 -0.0371753,0.0484478 -0.0412564,0.0450234 -0.0450234,0.0412564 -0.0484478,0.0371753 -0.0515035,0.0328114 -0.0541672,0.0281977 -0.0564187,0.0233694 -0.0582408,0.0183632 -0.0596196,0.0132173 -0.0605447,0.00797086 -0.061009,0.00266371 z "/>
<path fill="rgb(0,91,140)" stroke="rgb(0,91,140)" d="M 0,6.8 l 0,-6.1 0.00266371,-0.061009 0.00797086,-0.0605447 0.0132173,-0.0596196 0.0183632,-0.0582408 0.0233694,-0.0564187 0.0281977,-0.0541672 0.0328114,-0.0515035 0.0371753,-0.0484478 0.0412564,-0.0450234 0.0450234,-0.0412564 0.0484478,-0.0371753 0.0515035,-0.0328114 0.0541672,-0.0281977 0.0564187,-0.0233694 0.0582408,-0.0183632 0.0596196,-0.0132173 0.0605447,-0.00797086 0.061009,-0.00266371 1.55,-8.88178e-16 0,0.2 -1.55,4.44089e-16 -0.0435779,0.00190265 -0.0432462,0.00569347 -0.0425854,0.00944096 -0.0416005,0.0131166 -0.0402991,0.0166924 -0.0386909,0.0201412 -0.0367882,0.0234367 -0.0346056,0.0265538 -0.0321596,0.0294688 -0.0294688,0.0321596 -0.0265538,0.0346056 -0.0234367,0.0367882 -0.0201412,0.0386909 -0.0166924,0.0402991 -0.0131166,0.0416005 -0.00944096,0.0425854 -0.00569347,0.0432462 -0.00190265,0.0435779 0,6.1 0.00190265,0.0435779 0.00569347,0.0432462 0.00944096,0.0425854 0.0131166,0.0416005 0.0166924,0.0402991 0.0201412,0.0386909 0.0234367,0.0367882 0.0265538,0.0346056 0.0294688,0.0321596 0.0321596,0.0294688 0.0346056,0.0265538 0.0367882,0.0234367 0.0386909,0.0201412 0.0402991,0.0166924 0.0416005,0.0131166 0.0425854,0.00944096 0.0432462,0.00569347 0.0435779,0.00190265 1.55,0 4.44089e-16,0.2 -1.55,0 -0.061009,-0.00266371 -0.0605447,-0.00797086 -0.0596196,-0.0132173 -0.0582408,-0.0183632 -0.0564187,-0.0233694 -0.0541672,-0.0281977 -0.0515035,-0.0328114 -0.0484478,-0.0371753 -0.0450234,-0.0412564 -0.0412564,-0.0450234 -0.0371753,-0.0484478 -0.0328114,-0.0515035 -0.0281977,-0.0541672 -0.0233694,-0.0564187 -0.0183632,-0.0582408 -0.0132173,-0.0596196 -0.00797086,-0.0605447 -0.00266371,-0.061009 z "/>
<path fill="rgb(241,240,234)" stroke="rgb(241,240,234)" d="M 2.25,0.4 l 0,-0.2 1.55,-4.44089e-16 0.0435779,0.00190265 0.0432462,0.00569347 0.0425854,0.00944096 0.0416005,0.0131166 0.0402991,0.0166924 0.0386909,0.0201412 0.0367882,0.0234367 0.0346056,0.0265538 0.0321596,0.0294688 0.0294688,0.0321596 0.0265538,0.0346056 0.0234367,0.0367882 0.0201412,0.0386909 0.0166924,0.0402991 0.0131166,0.0416005 0.00944096,0.0425854 0.00569347,0.0432462 0.00190265,0.0435779 0,6.1 -0.00190265,0.0435779 -0.00569347,0.0432462 -0.00944096,0.0425854 -0.0131166,0.0416005 -0.0166924,0.0402991 -0.0201412,0.0386909 -0.0234367,0.0367882 -0.0265538,0.0346056 -0.0294688,0.0321596 -0.0321596,0.0294688 -0.0346056,0.0265538 -0.0367882,0.0234367 -0.0386909,0.0201412 -0.0402991,0.0166924 -0.0416005,0.0131166 -0.0425854,0.00944096 -0.0432462,0.00569347 -0.0435779,0.00190265 -1.55,0 0,-0.2 1.55,0 0.0261467,-0.00114159 0.0259477,-0.00341608 0.0255513,-0.00566458 0.0249603,-0.00786996 0.0241794,-0.0100155 0.0232145,-0.0120847 0.0220729,-0.014062 0.0207634,-0.0159323 0.0192958,-0.0176813 0.0176813,-0.0192958 0.0159323,-0.0207634 0.014062,-0.0220729 0.0120847,-0.0232145 0.0100155,-0.0241794 0.00786996,-0.0249603 0.00566458,-0.0255513 0.00341608,-0.0259477 0.00114159,-0.0261467 0,-6.1 -0.00114159,-0.0261467 -0.00341608,-0.0259477 -0.00566458,-0.0255513 -0.00786996,-0.0249603 -0.0100155,-0.0241794 -0.0120847,-0.0232145 -0.014062,-0.0220729 -0.0159323,-0.0207634 -0.0176813,-0.0192958 -0.0192958,-0.0176813 -0.0207634,-0.0159323 -0.0220729,-0.014062 -0.0232145,-0.0120847 -0.0241794,-0.0100155 -0.0249603,-0.00786996 -0.0255513,-0.00566458 -0.0259477,-0.00341608 -0.0261467,-0.00114159 -1.55,4.44089e-16 z "/>
<path fill="rgb(241,240,234)" stroke="rgb(241,240,234)" d="M 0.7,0.4 l -0.0261467,0.00114159 -0.0259477,0.00341608 -0.0255513,0.00566458 -0.0249603,0.00786996 -0.0241794,0.0100155 -0.0232145,0.0120847 -0.0220729,0.014062 -0.0207634,0.0159323 -0.0192958,0.0176813 -0.0176813,0.0192958 -0.0159323,0.0207634 -0.014062,0.0220729 -0.0120847,0.0232145 -0.0100155,0.0241794 -0.00786996,0.0249603 -0.00566458,0.0255513 -0.00341608,0.0259477 -0.00114159,0.0261467 4.44089e-16,6.1 0.00114159,0.0261467 0.00341608,0.0259477 0.00566458,0.0255513 0.00786996,0.0249603 0.0100155,0.0241794 0.0120847,0.0232145 0.014062,0.0220729 0.0159323,0.0207634 0.0176813,0.0192958 0.0192958,0.0176813 0.0207634,0.0159323 0.0220729,0.014062 0.0232145,0.0120847 0.0241794,0.0100155 0.0249603,0.00786996 0.0255513,0.00566458 0.0259477,0.00341608 0.0261467,0.00114159 1.55,0 0,0.2 -1.55,0 -0.0435779,-0.00190265 -0.0432462,-0.00569347 -0.0425854,-0.00944096 -0.0416005,-0.0131166 -0.0402991,-0.0166924 -0.0386909,-0.0201412 -0.0367882,-0.0234367 -0.0346056,-0.0265538 -0.0321596,-0.0294688 -0.0294688,-0.0321596 -0.0265538,-0.0346056 -0.0234367,-0.0367882 -0.0201412,-0.0386909 -0.0166924,-0.0402991 -0.0131166,-0.0416005 -0.00944096,-0.0425854 -0.00569347,-0.0432462 -0.00190265,-0.0435779 0,-6.1 0.00190265,-0.0435779 0.00569347,-0.0432462 0.00944096,-0.0425854 0.0131166,-0.0416005 0.0166924,-0.0402991 0.0201412,-0.0386909 0.0234367,-0.0367882 0.0265538,-0.0346056 0.0294688,-0.0321596 0.0321596,-0.0294688 0.0346056,-0.0265538 0.0367882,-0.0234367 0.0386909,-0.0201412 0.0402991,-0.0166924 0.0416005,-0.0131166 0.0425854,-0.00944096 0.0432462,-0.00569347 0.0435779,-0.00190265 1.55,-4.44089e-16 0,0.2 -1.55,4.44089e-16 z "/>
<path fill="rgb(241,240,234)" stroke="rgb(241,240,234)" d="M 3.84274,2.02519 l -0.0429222,-0.0182419 -0.0171689,-0.0439953 0.0171689,-0.0482875 0.0429222,-0.0182419 0.0418492,0.019315 0.0171689,0.0472144 -0.0171689,0.0439953 -0.0418492,0.0182419 z "/>
<path fill="rgb(241,240,234)" stroke="rgb(241,240,234)" d="M 3.90176,1.81809 l -0.11589,0 0,-0.530089 0.11589,0 0,0.530089 z "/>
<path fill="rgb(241,240,234)" stroke="rgb(241,240,234)" d="M 3.41996,1.81809 l -0.131986,0 0.134132,-0.23178 0.0643833,0.114817 -0.0665294,0.116963 z "/>
<path fill="rgb(241,240,234)" stroke="rgb(241,240,234)" d="M 3.68608,1.81809 l -0.130913,0 -0.0686756,-0.116963 -0.0643833,-0.114817 0.0643833,-0.114817 0.108379,-0.183493 0.12984,0 -0.170616,0.298309 0.131986,0.23178 z "/>
<path fill="rgb(241,240,234)" stroke="rgb(241,240,234)" d="M 3.4221,1.58631 l -0.173835,-0.298309 0.131986,0 0.106233,0.183493 -0.0643833,0.114817 z "/>
<path fill="rgb(241,240,234)" stroke="rgb(241,240,234)" d="M 3.00898,1.83096 l -0.0150228,-0.00107306 -0.0515067,-0.00751139 -0.0536528,-0.0182419 -0.0536528,-0.0278994 0.0482875,-0.111598 0.0139497,0.0096575 0.0515067,0.0225342 0.0536528,0.00751139 0.171689,0.0364839 -0.0268264,0.03863 -0.0364839,0.0289725 -0.0461414,0.0160958 -0.0557989,0.00643833 z "/>
<path fill="rgb(241,240,234)" stroke="rgb(241,240,234)" d="M 3.17423,1.74083 l -0.171689,-0.0364839 0.0300456,-0.00321917 0.03863,-0.0278994 0.0182419,-0.0547258 0.109452,-0.0096575 0,0.019315 -0.00751139,0.0622372 -0.0171689,0.0504336 z "/>
<path fill="rgb(241,240,234)" stroke="rgb(241,240,234)" d="M 2.98215,1.63674 l -0.0268264,-0.00107306 -0.0547258,-0.0118036 -0.0450683,-0.0246803 -0.0225342,-0.0225342 0.155593,-0.0472144 0.0439953,-0.00536528 0.0568719,-0.019315 0,-0.0815522 -0.0547258,-0.0214611 -0.0493606,-0.00751139 -0.165251,-0.0300456 0.0321917,-0.0429222 0.237145,-0.0096575 0,-0.0236072 0.109452,0 0,0.320844 -0.109452,0.0096575 -0.0515067,0.0139497 -0.0557989,0.00429222 z "/>
<path fill="rgb(241,240,234)" stroke="rgb(241,240,234)" d="M 2.833,1.57665 l -0.0257533,-0.0504336 -0.00858444,-0.0622372 0.00321917,-0.0439953 0.0182419,-0.0557989 0.165251,0.0300456 -0.0107306,0 -0.0493606,0.0214611 -0.0214611,0.0482875 0.0225342,0.0461414 0.00751139,0.00536528 0.0547258,0.0139497 -0.155593,0.0472144 z "/>
<path fill="rgb(241,240,234)" stroke="rgb(241,240,234)" d="M 2.85231,1.32126 l 0.0128767,-0.0107306 0.0482875,-0.0236072 0.057945,-0.00751139 0.0118036,0 0.0557989,0.0096575 0.0504336,0.0225342 -0.237145,0.0096575 z "/>
<path fill="rgb(241,240,234)" stroke="rgb(241,240,234)" d="M 2.65594,2.02519 l -0.119109,-0.0472144 0,-0.163104 -0.0783331,0 0,-0.121255 0.0783331,0 0,-0.255387 0,-0.00536528 0.00858444,-0.0633103 0.162031,0.0364839 -0.03863,0.019315 -0.0128767,0.0590181 0,0.209246 0.0976481,0 0,0.121255 -0.0976481,0 0,0.210319 z "/>
<path fill="rgb(241,240,234)" stroke="rgb(241,240,234)" d="M 2.7611,1.43286 l -0.00536528,-0.00429222 -0.0482875,-0.0225342 -0.162031,-0.0364839 0.0225342,-0.0504336 0.0332647,-0.0300456 0.0547258,-0.0128767 0.0321917,0.00429222 0.0536528,0.0225342 0.019315,0.12984 z "/>
<path fill="rgb(241,240,234)" stroke="rgb(241,240,234)" d="M 2.22565,1.82774 l -0.0182419,-0.00107306 -0.0525797,-0.0160958 -0.0407761,-0.0364839 0.27041,-0.0407761 -0.0332647,0.0461414 -0.019315,0.0171689 -0.0482875,0.0225342 -0.057945,0.00858444 z "/>
<path fill="rgb(241,240,234)" stroke="rgb(241,240,234)" d="M 2.11405,1.81809 l -0.116963,0 0,-0.530089 0.116963,0 0,0.318698 0.00107306,0.0150228 0.0236072,0.0536528 0.0096575,0.0107306 0.0504336,0.0182419 0.185639,0.0289725 -0.27041,0.0407761 0,0.0439953 z "/>
<path fill="rgb(241,240,234)" stroke="rgb(241,240,234)" d="M 2.38446,1.73332 l -0.185639,-0.0289725 0.0150228,-0.00107306 0.0472144,-0.0246803 0.0107306,-0.0139497 0.0139497,-0.057945 0,-0.318698 0.113744,0 0,0.369131 0,0.0182419 -0.0150228,0.057945 z "/>
<path fill="rgb(241,240,234)" stroke="rgb(241,240,234)" d="M 1.82003,2.02519 l -0.0429222,-0.0182419 -0.0171689,-0.0439953 0.0171689,-0.0482875 0.0429222,-0.0182419 0.0418492,0.019315 0.0171689,0.0472144 -0.0171689,0.0439953 -0.0418492,0.0182419 z "/>
<path fill="rgb(241,240,234)" stroke="rgb(241,240,234)" d="M 1.87905,1.81809 l -0.11589,0 0,-0.530089 0.11589,0 0,0.530089 z "/>
<path fill="rgb(241,240,234)" stroke="rgb(241,240,234)" d="M 1.47558,1.8256 l -0.00536528,0 -0.0525797,-0.0096575 -0.0461414,-0.0268264 -0.0407761,-0.0429222 -0.0139497,-0.0203881 0.163104,-0.0182419 0.0493606,-0.0182419 0.0096575,-0.0139497 0.0225342,-0.0611642 -0.169543,0 0.282214,-0.0203881 -0.0139497,0.0611642 -0.0139497,0.0397031 -0.0268264,0.0493606 -0.00429222,0.00536528 -0.0397031,0.0418492 -0.0472144,0.0257533 -0.0525797,0.00858444 z "/>
<path fill="rgb(241,240,234)" stroke="rgb(241,240,234)" d="M 1.31677,1.7258 l -0.0246803,-0.0515067 -0.0150228,-0.057945 -0.00536528,-0.0633103 0.00107306,-0.0311186 0.0096575,-0.0611642 0.019315,-0.0557989 0.0300456,-0.0493606 0.00536528,-0.00751139 0.0418492,-0.0397031 0.0472144,-0.0246803 0.0536528,-0.00751139 0.0096575,0 0.0525797,0.0107306 0.0461414,0.0268264 0.0407761,0.0429222 0.00429222,0.00536528 -0.153447,0.0332647 -0.00858444,0 -0.0472144,0.0278994 -0.0118036,0.0139497 -0.0214611,0.0568719 -0.00536528,0.0182419 0.290798,0 0,0.03863 -0.00214611,0.0429222 -0.282214,0.0203881 0.0118036,0.0364839 0.0311186,0.0429222 0.0450683,0.0139497 -0.163104,0.0182419 z "/>
<path fill="rgb(241,240,234)" stroke="rgb(241,240,234)" d="M 1.55499,1.43822 l -0.0278994,-0.0257533 -0.0472144,-0.0171689 0.153447,-0.0332647 -0.0783331,0.0761869 z "/>
<path fill="rgb(241,240,234)" stroke="rgb(241,240,234)" d="M 1.12791,1.8256 l -0.0461414,-0.0107306 -0.0461414,-0.0354108 0.0847714,-0.0783331 0.0171689,-0.00214611 0.0450683,-0.0300456 0.0364839,0.125548 -0.0354108,0.0214611 -0.0557989,0.0096575 z "/>
<path fill="rgb(241,240,234)" stroke="rgb(241,240,234)" d="M 1.03563,1.81809 l -0.116963,0 0,-0.530089 0.116963,0 0,0.311186 0.00214611,0.0257533 0.0236072,0.0482875 0.00858444,0.00858444 0.0504336,0.019315 -0.0847714,0.0783331 0,0.03863 z "/>
<path fill="rgb(241,240,234)" stroke="rgb(241,240,234)" d="M 0.749122,2.02519 l -0.119109,-0.0472144 0,-0.163104 -0.0783331,0 0,-0.121255 0.0783331,0 0,-0.255387 0,-0.00536528 0.00858444,-0.0633103 0.163104,0.0364839 -0.0397031,0.019315 -0.0128767,0.0590181 0,0.209246 0.0976481,0 0,0.121255 -0.0976481,0 0,0.210319 z "/>
<path fill="rgb(241,240,234)" stroke="rgb(241,240,234)" d="M 0.854281,1.43286 l -0.00429222,-0.00429222 -0.0482875,-0.0225342 -0.163104,-0.0364839 0.0225342,-0.0504336 0.0332647,-0.0300456 0.0547258,-0.0128767 0.0321917,0.00429222 0.0536528,0.0225342 0.019315,0.12984 z "/>
<path fill="rgb(241,240,234)" stroke="rgb(241,240,234)" d="M 2.55829,6.76809 l -1.46794,0 0,-3.50031 0.573012,0 0,1.37244 0.894928,0 0.0901367,0.00321917 0.110525,0.0096575 0.10194,0.019315 0.0944289,0.0268264 0.0869175,0.0354108 0.0804792,0.0439953 0.0836983,0.0590181 0.0794061,0.0697486 0.0708217,0.0783331 0.0633103,0.0858444 0.0557989,0.0944289 0.0472144,0.0997942 -1.85961,0.00214611 0,0.872394 0.917463,0 0.938924,0.0246803 -0.0439953,0.0901367 -0.0536528,0.0847714 -0.0622372,0.0783331 -0.0718947,0.0729678 -0.0804792,0.0676025 -0.0890636,0.0611642 -0.0643833,0.0364839 -0.0890636,0.0397031 -0.0944289,0.0311186 -0.0987211,0.0225342 -0.104086,0.0139497 -0.109452,0.00429222 z "/>
<path fill="rgb(241,240,234)" stroke="rgb(241,240,234)" d="M 3.51975,6.16503 l -0.938924,-0.0246803 0.0686756,-0.00321917 0.104086,-0.019315 0.0890636,-0.03863 0.0729678,-0.0557989 0.0246803,-0.0268264 0.057945,-0.0869175 0.0343378,-0.100867 0.0118036,-0.112671 0,-0.0289725 -0.0182419,-0.110525 -0.0429222,-0.0933558 -0.0676025,-0.0783331 -0.0439953,-0.0343378 -0.0858444,-0.0461414 -0.096575,-0.0268264 -0.108379,-0.0096575 -0.917463,0 1.85961,-0.00214611 0.0375569,0.105159 0.0268264,0.107306 0.0160958,0.108379 0.00536528,0.109452 -0.00107306,0.0525797 -0.00858444,0.112671 -0.0171689,0.107306 -0.0268264,0.100867 -0.0354108,0.0955019 z "/>
</g></g></svg>
