<?xml version="1.0" encoding="UTF-8" standalone="no"?>
<!DOCTYPE svg PUBLIC "-//W3C//DTD SVG 1.1//EN" "http://www.w3.org/Graphics/SVG/1.1/DTD/svg11-flat.dtd"
[

]>
<svg xmlns="http://www.w3.org/2000/svg"  viewBox="-0.09375 -0.09375 7.6875 7.6875"><g fill="none" stroke="black" stroke-width="0.0125" transform="translate(0,7.5) scale(1, -1)">
<g id="Output" >
<path fill="rgb(241,240,234)" stroke="rgb(241,240,234)" d="M 1.62384,0.907122 l -0.0800831,0.0616906 -0.0782942,0.0639458 -0.0764417,0.0661491 1.50224,2.65109 -2.89126,-4.44089e-16 0.0142699,-0.326834 0.042701,-0.324347 0.0708072,-0.319391 0.0983745,-0.312004 0.125193,-0.302243 0.151059,-0.290182 0.175775,-0.275912 0.199154,-0.259542 0.221016,-0.241197 0.241197,-0.221016 0.259542,-0.199154 0.275912,-0.175775 0.290182,-0.151059 0.302243,-0.125193 0.312004,-0.0983745 0.319391,-0.0708072 0.324347,-0.042701 0.326834,-0.0142699 0.326834,0.0142699 0.324347,0.042701 0.319391,0.0708072 0.312004,0.0983745 0.302243,0.125193 0.290182,0.151059 0.275912,0.175775 0.259542,0.199154 0.241197,0.221016 0.221016,0.241197 0.199154,0.259542 0.175775,0.275912 0.151059,0.290182 0.125193,0.302243 0.0983745,0.312004 0.0708072,0.319391 0.042701,0.324347 0.0142699,0.326834 -2.89126,0 -1.91967,-3.38776 -0.0960294,0.0315816 -0.0950913,0.034303 -0.094076,0.0369966 1.86138,3.28488 -0.343494,0 -1.79035,-3.15953 -0.0880366,0.0466716 -0.086692,0.049124 -0.0852792,0.0515377 1.70686,3.0122 -0.343494,0 -1.61092,-2.84288 z "/>
<path fill="rgb(241,240,234)" stroke="rgb(241,240,234)" d="M 5.3686,6.90953 l 0.0880366,-0.0466716 0.086692,-0.049124 0.0852792,-0.0515377 -1.70686,-3.0122 0.343494,0 1.61092,2.84288 0.0800831,-0.0616906 0.0782942,-0.0639458 0.0764417,-0.0661491 -1.50224,-2.65109 2.89126,0 -0.0142699,0.326834 -0.042701,0.324347 -0.0708072,0.319391 -0.0983745,0.312004 -0.125193,0.302243 -0.151059,0.290182 -0.175775,0.275912 -0.199154,0.259542 -0.221016,0.241197 -0.241197,0.221016 -0.259542,0.199154 -0.275912,0.175775 -0.290182,0.151059 -0.302243,0.125193 -0.312004,0.0983745 -0.319391,0.0708072 -0.324347,0.042701 -0.326834,0.0142699 -0.326834,-0.0142699 -0.324347,-0.042701 -0.319391,-0.0708072 -0.312004,-0.0983745 -0.302243,-0.125193 -0.290182,-0.151059 -0.275912,-0.175775 -0.259542,-0.199154 -0.241197,-0.221016 -0.221016,-0.241197 -0.199154,-0.259542 -0.175775,-0.275912 -0.151059,-0.290182 -0.125193,-0.302243 -0.0983745,-0.312004 -0.0708072,-0.319391 -0.042701,-0.324347 -0.0142699,-0.326834 2.89126,4.44089e-16 1.91967,3.38776 0.0960294,-0.0315816 0.0950913,-0.034303 0.094076,-0.0369966 -1.86138,-3.28488 0.343494,0 1.79035,3.15953 z "/>
<path fill="rgb(142,146,145)" stroke="rgb(142,146,145)" d="M 5.28076,5.00037 l -1.66761,0 -0.0767042,-1.17329 0.928973,-0.0217802 0.0596588,-0.000946965 0.107954,-0.0104166 0.0928026,-0.0198863 0.0776512,-0.0303029 0.0624997,-0.0407195 0.0189393,-0.0151514 0.0615528,-0.0672345 0.0445074,-0.0767042 0.026515,-0.0871208 0.00852269,-0.0956435 0,-0.0179923 -0.0123106,-0.0956435 -0.0312499,-0.0842799 -0.0492422,-0.0729163 -0.0672345,-0.0615528 -0.000946965,0 -0.0691285,-0.0416665 -0.0795451,-0.0331438 -0.0890148,-0.0227272 -0.0994314,-0.0142045 -0.109848,-0.00473483 0.885413,-0.0653406 0.0511361,0.0748103 0.0416665,0.0785981 0.0321968,0.083333 0.0236741,0.0880678 0.0132575,0.0928026 0.00473483,0.0965905 -0.0028409,0.0785981 -0.0113636,0.0946965 -0.0208332,0.0890148 -0.0303029,0.0852269 -0.0388256,0.081439 -0.0482952,0.0757572 -0.0577649,0.0719694 -0.0662876,0.0681815 -0.0151514,0.0132575 -0.0700754,0.0568179 -0.0757572,0.0492422 -0.0785981,0.0416665 -0.0842799,0.0331438 -0.859845,0.0028409 0.0255681,0.357006 1.23484,0 0.0104166,0.440339 z "/>
<path fill="rgb(142,146,145)" stroke="rgb(142,146,145)" d="M 4.49099,4.26079 l -0.00757572,0 -0.083333,-0.0028409 -0.0890148,-0.00662876 -0.0946965,-0.0123106 -0.100378,-0.0160984 -0.10606,-0.0198863 0.859845,-0.0028409 -0.0880678,0.026515 -0.0928026,0.0189393 -0.0965905,0.0113636 -0.101325,0.00378786 z "/>
<path fill="rgb(142,146,145)" stroke="rgb(142,146,145)" d="M 3.53645,3.82708 l 0.447915,-0.116477 0.0189393,0.00757572 0.0928026,0.0312499 0.0918556,0.0246211 0.0928026,0.0170454 0.0918556,0.0104166 0.0928026,0.00378786 -0.928973,0.0217802 z "/>
<path fill="rgb(142,146,145)" stroke="rgb(142,146,145)" d="M 3.69365,3.11307 l -0.236741,-0.374998 0.0662876,-0.0388256 0.0871208,-0.0464013 0.0871208,-0.0407195 0.0880678,-0.0369317 0.0880678,-0.0312499 0.0890148,-0.026515 0.0899617,-0.0217802 0.0909087,-0.0170454 0.0909087,-0.0123106 0.0918556,-0.00662876 0.0918556,-0.0028409 0.0795451,0.00189393 0.100378,0.00852269 0.0965905,0.0151514 0.0918556,0.0217802 0.0861739,0.028409 0.083333,0.0350377 0.0776512,0.0416665 0.0729163,0.0482952 0.0691285,0.054924 0.0672345,0.0634467 0.0606058,0.0710224 -0.885413,0.0653406 -0.00757572,0 -0.0956435,0.00378786 -0.0937496,0.00946965 -0.0928026,0.0160984 -0.0899617,0.0217802 -0.0890148,0.028409 -0.0871208,0.0340908 -0.0852269,0.0407195 -0.083333,0.0464013 z "/>
<path fill="rgb(142,146,145)" stroke="rgb(142,146,145)" d="M 2.95786,5.00037 l -0.357006,0 -0.0151514,-0.0227272 -0.0568179,-0.0719694 -0.0662876,-0.0606058 -0.0757572,-0.0492422 -0.0852269,-0.0397725 -0.0937496,-0.028409 0.00662876,-0.357006 0.317233,0 -0.0113636,-1.87026 0.437498,0 0,2.49999 z "/>
<path fill="rgb(42,41,42)" stroke="rgb(42,41,42)" d="M 2.68906,0.362241 l 1.91967,3.38776 1.50224,2.65109 -0.0764417,0.0661491 -0.0782942,0.0639458 -0.0800831,0.0616906 -1.61092,-2.84288 -1.86138,-3.28488 0.094076,-0.0369966 0.0950913,-0.034303 0.0960294,-0.0315816 z "/>
<path fill="rgb(42,41,42)" stroke="rgb(42,41,42)" d="M 5.3686,6.90953 l -1.79035,-3.15953 -1.70686,-3.0122 0.0852792,-0.0515377 0.086692,-0.049124 0.0880366,-0.0466716 1.79035,3.15953 1.70686,3.0122 -0.0852792,0.0515377 -0.086692,0.049124 -0.0880366,0.0466716 z "/>
<path fill="rgb(42,41,42)" stroke="rgb(42,41,42)" d="M 2.89126,3.75 l -1.50224,-2.65109 0.0764417,-0.0661491 0.0782942,-0.0639458 0.0800831,-0.0616906 1.61092,2.84288 1.86138,3.28488 -0.094076,0.0369966 -0.0950913,0.034303 -0.0960294,0.0315816 -1.91967,-3.38776 z "/>
</g></g></svg>
