<?xml version="1.0" encoding="UTF-8" standalone="no"?>
<!DOCTYPE svg PUBLIC "-//W3C//DTD SVG 1.1//EN" "http://www.w3.org/Graphics/SVG/1.1/DTD/svg11-flat.dtd"
[

]>
<svg xmlns="http://www.w3.org/2000/svg"  viewBox="-0.112544 -0.112544 9.22863 9.22687"><g fill="none" stroke="black" stroke-width="0.0125" transform="translate(0,9.00178) scale(1, -1)">
<g id="Output" >
<path fill="rgb(200,225,100)" stroke="rgb(200,225,100)" d="M 2.53406,4.50089 l -2.43406,0 0,-4.25089 0.000570795,-0.0130734 0.00170804,-0.0129739 0.00283229,-0.0127756 0.00393498,-0.0124802 0.00500773,-0.0120897 0.00604236,-0.0116073 0.007031,-0.0110365 0.00796614,-0.0103817 0.00884065,-0.00964788 0.00964788,-0.00884065 0.0103817,-0.00796614 0.0110365,-0.007031 0.0116073,-0.00604236 0.0120897,-0.00500773 0.0124802,-0.00393498 0.0127756,-0.00283229 0.0129739,-0.00170804 0.0130734,-0.000570795 8.50354,0 0.0130734,0.000570795 0.0129739,0.00170804 0.0127756,0.00283229 0.0124802,0.00393498 0.0120897,0.00500773 0.0116073,0.00604236 0.0110365,0.007031 0.0103817,0.00796614 0.00964788,0.00884065 0.00884065,0.00964788 0.00796614,0.0103817 0.007031,0.0110365 0.00604236,0.0116073 0.00500773,0.0120897 0.00393498,0.0124802 0.00283229,0.0127756 0.00170804,0.0129739 0.000570795,0.0130734 0,4.25089 -2.43406,0 1.56521,-3.13043 0.0108029,-0.0242283 0.00862033,-0.0250879 0.00637039,-0.0257513 0.00407065,-0.0262134 0.00173907,-0.0264705 -0.000606098,-0.0265207 -0.00294653,-0.0263634 -0.00526392,-0.0260001 -0.00754016,-0.0254334 -0.00975744,-0.0246679 -0.0118984,-0.0237095 -0.0139464,-0.0225657 -0.0158853,-0.0212455 -0.0177,-0.0197591 -0.0193763,-0.0181183 -0.0209011,-0.0163358 -0.0222624,-0.0144255 -0.0234497,-0.0124025 -0.0244537,-0.0102825 -0.0252664,-0.00808209 -0.0258816,-0.00581849 -0.0262944,-0.00350939 -0.0265016,-0.00117285 -3.26459,1.77636e-15 -3.26459,0 -0.0265016,0.00117285 -0.0262944,0.00350939 -0.0258816,0.00581849 -0.0252664,0.00808209 -0.0244537,0.0102825 -0.0234497,0.0124025 -0.0222624,0.0144255 -0.0209011,0.0163358 -0.0193763,0.0181183 -0.0177,0.0197591 -0.0158853,0.0212455 -0.0139464,0.0225657 -0.0118984,0.0237095 -0.00975744,0.0246679 -0.00754016,0.0254334 -0.00526392,0.0260001 -0.00294653,0.0263634 -0.000606098,0.0265207 0.00173907,0.0264705 0.00407065,0.0262134 0.00637039,0.0257513 0.00862033,0.0250879 0.0108029,0.0242283 1.56521,3.13043 z "/>
<path fill="rgb(200,225,100)" stroke="rgb(200,225,100)" d="M 2.53406,4.50089 l 1.69938,3.39875 0.0123848,0.0223384 0.0142401,0.0212039 0.0159921,0.0199158 0.0176283,0.0184833 0.0191366,0.0169168 0.0205062,0.0152277 0.0217272,0.0134282 0.0227907,0.0115313 0.023689,0.00955089 0.0244155,0.00750124 0.0249651,0.00539721 0.0253337,0.00325405 0.0255187,0.00108731 0.0255187,-0.00108731 0.0253337,-0.00325405 0.0249651,-0.00539721 0.0244155,-0.00750124 0.023689,-0.00955089 0.0227907,-0.0115313 0.0217272,-0.0134282 0.0205062,-0.0152277 0.0191366,-0.0169168 0.0176283,-0.0184833 0.0159921,-0.0199158 0.0142401,-0.0212039 0.0123848,-0.0223384 1.69938,-3.39875 2.43406,0 0,4.25089 -0.000570795,0.0130734 -0.00170804,0.0129739 -0.00283229,0.0127756 -0.00393498,0.0124802 -0.00500773,0.0120897 -0.00604236,0.0116073 -0.007031,0.0110365 -0.00796614,0.0103817 -0.00884065,0.00964788 -0.00964788,0.00884065 -0.0103817,0.00796614 -0.0110365,0.007031 -0.0116073,0.00604236 -0.0120897,0.00500773 -0.0124802,0.00393498 -0.0127756,0.00283229 -0.0129739,0.00170804 -0.0130734,0.000570795 -8.50354,0 -0.0130734,-0.000570795 -0.0129739,-0.00170804 -0.0127756,-0.00283229 -0.0124802,-0.00393498 -0.0120897,-0.00500773 -0.0116073,-0.00604236 -0.0110365,-0.007031 -0.0103817,-0.00796614 -0.00964788,-0.00884065 -0.00884065,-0.00964788 -0.00796614,-0.0103817 -0.007031,-0.0110365 -0.00604236,-0.0116073 -0.00500773,-0.0120897 -0.00393498,-0.0124802 -0.00283229,-0.0127756 -0.00170804,-0.0129739 -0.000570795,-0.0130734 0,-4.25089 2.43406,0 z "/>
<path fill="rgb(241,240,234)" stroke="rgb(241,240,234)" d="M 5.47193,4.0363 l -0.940325,0 0,-0.330548 0.302402,0 0.0431374,0.0928886 -0.132679,0 -0.00404789,0.000176735 -0.00401708,0.000528859 -0.0039557,0.000876958 -0.00386422,0.00121838 -0.00374332,0.00155053 -0.00359394,0.00187089 -0.00341721,0.002177 -0.00321446,0.00246654 -0.00298726,0.00273732 -0.00273732,0.00298726 -0.00246654,0.00321446 -0.002177,0.00341721 -0.00187089,0.00359394 -0.00155053,0.00374332 -0.00121838,0.00386422 -0.000876958,0.0039557 -0.000528859,0.00401708 -0.000176735,0.00404789 0.000176735,0.00404789 0.000528859,0.00401708 0.000876958,0.0039557 0.00121838,0.00386422 0.00155053,0.00374332 0.00187089,0.00359394 0.002177,0.00341721 0.00246654,0.00321446 0.00273732,0.00298726 0.00298726,0.00273732 0.00321446,0.00246654 0.00341721,0.002177 0.00359394,0.00187089 0.00374332,0.00155053 0.00386422,0.00121838 0.0039557,0.000876958 0.00401708,0.000528859 0.00404789,0.000176735 0.341644,0 0,-0.0928886 -0.109463,0 -0.0729665,-0.162535 0.122718,-0.238822 0.0373936,0.0121193 0.0383138,0.00878719 0.0389376,0.00538708 0.0392603,0.00194531 0.0392794,-0.00151151 0.0389948,-0.00495663 0.0384085,-0.00836342 0.0375252,-0.0117055 0.0363517,-0.0149571 0.034897,-0.018093 0.0331725,-0.021089 0.0311914,-0.0239219 0.0289691,-0.0265698 0.0265227,-0.0290121 3.64153e-14,-4.26326e-14 0.00598956,-0.0078434 0,0.65945 -0.0596748,0.11935 z "/>
<path fill="rgb(241,240,234)" stroke="rgb(241,240,234)" d="M 4.43507,3.0363 l -0.436969,0.483702 -0.0464443,-0.135999 0.0334509,-0.017923 0.0318076,-0.0206996 0.0299343,-0.0233266 0.0278447,-0.025785 0.0255539,-0.028057 0.0230783,-0.0301262 0.0204359,-0.0319776 0.0176458,-0.0335979 0.0147282,-0.0349753 0.0117041,-0.0361 0.00859534,-0.0369637 0.00406856,-0.0281714 0.234566,0 z M 3.53161,3.36578 l 0.0323699,0.0177257 0.0353997,0.0155708 0.036614,0.0124502 0.0375537,0.00923638 0.0382119,0.00595326 0.0385836,0.00262552 0.0386661,-0.000721913 0.0384587,-0.00406393 0.037963,-0.00737548 0.159214,0.454428 0.00423392,0.0126859 0.00530845,0.0122752 0.00634371,0.0117736 0.00733202,0.0111848 0.0082661,0.0105134 0.00913901,0.0097641 0.0099443,0.0089426 0.010676,0.00805493 0.0113287,0.00710766 0.0118976,0.00610781 0.0123785,0.00506276 0.0127678,0.00398025 0.0130626,0.0028683 0.0132608,0.00173512 0.0133608,0.000589103 0.132659,0.000138156 0,-0.0928616 -0.116104,0 -0.00611354,0.000464363 -0.00613064,-7.96077e-05 -0.00609942,-0.000622951 -0.00602015,-0.00116139 -0.00589344,-0.00169067 -0.0057203,-0.00220663 -0.00550208,-0.00270521 -0.00524051,-0.00318247 -0.00493765,-0.00363465 -0.00459588,-0.00405819 -0.0042179,-0.00444976 -0.00380668,-0.00480627 -0.00336547,-0.00512491 -0.00289774,-0.00540316 -0.00240718,-0.00563884 -0.0531029,-0.141477 0.467161,0 0,0.330548 -1,0 0,-0.670521 z "/>
<path fill="rgb(241,240,234)" stroke="rgb(241,240,234)" d="M 4.53161,2.0363 l 0,0.899889 -0.00609272,0 -0.0904387,0.100111 -0.234566,0 0.00135594,-0.00938878 0.00221446,-0.0378852 -0.00101159,-0.0379364 -0.00423033,-0.0377134 -0.0074185,-0.0372177 -0.010553,-0.0364531 -0.0136113,-0.0354249 -0.0165712,-0.0341407 -0.0201351,-0.0336964 -0.0230317,-0.031787 -0.0257484,-0.0296292 -0.028264,-0.02724 -0.0305588,-0.0246379 -0.0326149,-0.0218434 -0.0344163,-0.0188783 -0.0359487,-0.0157657 -0.0372004,-0.01253 -0.0381615,-0.00919637 -0.0388244,-0.00579091 -0.0391841,-0.00234021 -0.0392377,0.00112877 -0.0389848,0.00458893 -0.0384273,0.00801324 -0.0375697,0.011375 -0.0364186,0.0146478 -0.034983,0.0178063 -0.00936763,0.00586301 0,-0.563927 0.970163,0 0.0298374,0 z "/>
<path fill="rgb(241,240,234)" stroke="rgb(241,240,234)" d="M 5.53161,2.0363 l 0,0.669328 -0.0143236,-0.017675 -0.0273618,-0.028222 -0.0297589,-0.0256819 -0.031921,-0.022939 -0.0338312,-0.020015 -3.55271e-14,-1.90958e-14 -0.0358111,-0.0171017 -0.0371827,-0.013869 -0.0382632,-0.0105276 -0.0390441,-0.00710386 -0.0395192,-0.00362445 -0.0396849,-0.00011666 -0.0395398,0.00339204 -0.0390852,0.00687419 -0.0383244,0.0103025 -0.0372636,0.0136501 -0.035911,0.0168909 -0.0342772,0.0199994 -0.032375,0.0229513 -0.0302193,0.0257235 -0.027827,0.0282942 -0.0252167,0.0306434 -0.0224091,0.0327527 -0.0194259,0.0346055 -0.0162906,0.0361873 -0.0130278,0.0374857 -0.00966297,0.0384907 -0.00622246,0.0391942 -0.20622,0 0,-0.899889 1,0 z "/>
<path fill="rgb(241,240,234)" stroke="rgb(241,240,234)" d="M 5.62485,3.0363 l 0.347085,0 -0.440325,0.88065 0,-0.65945 0.0178674,-0.0233975 0.0209897,-0.0332353 0.0179567,-0.0349672 0.014782,-0.0364231 0.0114906,-0.0375914 0.00810847,-0.038463 0.00204532,-0.0171225 z "/>
<path fill="rgb(241,240,234)" stroke="rgb(241,240,234)" d="M 3.03161,3.0363 l 0.286716,0 0.0020999,0.0178537 0.00782293,0.0378734 0.0110697,0.0370547 0.0142336,0.0359582 0.0172907,0.0345922 0.0202182,0.0329669 0.0229942,0.0310944 0.0255977,0.0289887 0.0280094,0.0266658 0.030211,0.024143 0.0321862,0.0214391 0.00155026,0.000848917 0,0.670521 -0.5,-1 z "/>
<path fill="rgb(241,240,234)" stroke="rgb(241,240,234)" d="M 3.31832,3.0363 l -0.286716,0 -0.5,-1 1,-4.44089e-16 0,0.563927 -0.0239065,0.0149626 -0.0313053,0.0236823 -3.24185e-14,2.66454e-14 -0.0286847,0.025938 -0.0263335,0.0283221 -0.0237848,0.0304938 -0.0210579,0.032437 -0.018173,0.0341369 -0.015152,0.035581 -0.0120173,0.0367583 -0.0087926,0.0376601 -0.00550195,0.0382795 -0.00217005,0.0386119 0.00117812,0.0386549 0.00241755,0.0205544 z "/>
<path fill="rgb(241,240,234)" stroke="rgb(241,240,234)" d="M 4.03161,5.0363 l 0.5,0 0,0.88065 -0.0298374,0.0596748 -0.470163,-0.940325 z "/>
<path fill="rgb(241,240,234)" stroke="rgb(241,240,234)" d="M 3.53161,4.0363 l 1,0 0,1 -0.5,0 -0.5,-1 z "/>
<path fill="rgb(241,240,234)" stroke="rgb(241,240,234)" d="M 5.62485,3.0363 l 0.00261701,-0.0219084 0.00117938,-0.0392907 -0.00231289,-0.0392403 -0.00578689,-0.0388801 -0.00921521,-0.038213 -0.0125708,-0.0372441 -0.0158271,-0.0359813 -0.0189585,-0.0344344 -0.0219402,-0.0326156 -0.0104251,-0.0128644 0,-0.669328 0.940325,4.44089e-16 -0.5,1 -0.347085,0 z "/>
<path fill="rgb(241,240,234)" stroke="rgb(241,240,234)" d="M 4.53161,5.0363 l 0.440325,0 -0.440325,0.88065 0,-0.88065 z "/>
<path fill="rgb(241,240,234)" stroke="rgb(241,240,234)" d="M 5.47193,4.0363 l -0.5,1 -0.440325,0 0,-1 0.940325,0 z "/>
<path fill="rgb(241,240,234)" stroke="rgb(241,240,234)" d="M 3.98299,2.7111 l -0.0244266,-0.0183299 -0.0259233,-0.0161439 -0.027225,-0.0138363 -0.0283218,-0.0114246 -0.0292054,-0.00892691 -0.0298692,-0.00636204 -0.0303082,-0.00374929 -0.0305191,-0.00110833 -0.0305003,0.00154098 -0.030252,0.00417869 -0.029776,0.00678496 -0.0290758,0.00934015 -0.0281569,0.0118251 -0.0270261,0.014221 -0.0256918,0.0165098 -0.0241642,0.0186745 -0.0224547,0.0206985 -0.0205762,0.0225668 -0.0185429,0.0242653 -0.01637,0.0257811 -0.0140739,0.0271029 -0.0116719,0.0282207 -0.00918205,0.0291262 -0.00662309,0.0298124 -0.00401428,0.0302742 -0.00137526,0.0305082 4.44089e-16,3.68594e-14 0,2.88658e-14 0.00121846,0.0297341 0.00374511,0.0295224 0.00624458,0.0290965 0.00869871,0.0284593 0.0110897,0.0276155 0.0134002,0.0265713 0.0156134,0.0253342 0.0177133,0.0239132 0.0196845,0.0223185 0.0215129,0.0205619 0.0231852,0.018656 0.0246891,0.0166147 0.0260138,0.0144528 0.0271496,0.0121859 0.0280884,0.00983063 0.0288233,0.00740396 0.0293489,0.00492354 0.0296615,0.00240739 0.0297587,-0.000126246 0.02964,-0.00265896 0.0293061,-0.00517238 -0.116104,-0.32839 -0.00119616,-0.00392258 -0.000847956,-0.00401228 -0.000493236,-0.00407113 -0.000134724,-0.00409869 0.000224823,-0.00409473 0.000582643,-0.0040593 0.000935982,-0.00399266 0.00128213,-0.00389532 0.00161841,-0.00376804 0.00194226,-0.00361179 0.00225117,-0.00342777 0.00254278,-0.0032174 0.00281484,-0.0029823 0.00306525,-0.00272426 0.00329211,-0.00244529 0.00349365,-0.00214751 0.00366834,-0.00183322 0.00381482,-0.00150485 0.00393197,-0.0011649 0.0040189,-0.000815993 0.00407493,-0.000460816 0.00409963,-0.000102096 0.00409282,0.000257408 0.00405453,0.000614934 0.00398508,0.000967732 0.003885,0.00131309 0.00375504,0.00164835 0.00359622,0.00197095 0.00340975,0.00227838 0.00319706,0.00256831 0.0029598,0.00283849 0.00269978,0.00308684 0.00241901,0.00331147 0.00211963,0.00351063 0.00180397,0.00368281 0.00147443,0.00382668 0.00113356,0.00394112 0.112784,0.32507 0.0263963,-0.0147698 0.0250231,-0.0169928 0.0234631,-0.0190891 0.0217281,-0.0210428 0.0198309,-0.0228396 0.0177857,-0.0244659 0.0156078,-0.0259096 0.0133134,-0.02716 0.0109196,-0.0282076 0.00844442,-0.0290448 0.00590617,-0.0296653 0.00332385,-0.0300643 0.000716721,-0.030239 -0.00189576,-0.030188 -0.00449408,-0.0299118 -0.00705888,-0.0294123 -0.00957099,-0.0286933 -0.0120117,-0.0277602 -0.0143627,-0.02662 -0.0166066,-0.025281 -0.0187265,-0.0237535 -0.0207067,-0.0220486 -0.0225324,-0.0201792 z "/>
<path fill="rgb(241,240,234)" stroke="rgb(241,240,234)" d="M 4.53879,3.05893 l -0.500886,0.557277 0.752989,0 -0.252103,-0.557277 z "/>
<path fill="rgb(241,240,234)" stroke="rgb(241,240,234)" d="M 4.62504,3.02908 l 0.228888,0.500886 0.0895412,-0.172496 -0.0302559,-0.0203939 -0.0284462,-0.0228504 -0.0264377,-0.0251471 -0.0242443,-0.027268 -0.0218814,-0.0291982 -0.0193655,-0.0309242 -0.0167141,-0.0324341 -0.0139459,-0.0337171 -0.0110802,-0.0347643 -0.00813702,-0.0355685 -0.00513693,-0.036124 -0.112784,0 z "/>
<path fill="rgb(241,240,234)" stroke="rgb(241,240,234)" d="M 5.11265,3.02908 l -0.278639,0 0.00526085,0.0290223 0.00770905,0.02847 0.0101014,0.0277116 0.0124207,0.0267525 0.01465,0.0255998 0.0167733,0.0242617 0.0187751,0.0227479 0.020641,0.0210695 0.0223574,0.0192385 0.023912,0.0172682 0.126038,-0.242142 z "/>
<path fill="rgb(241,240,234)" stroke="rgb(241,240,234)" d="M 5.18893,2.93619 l -0.354926,0 0.00550772,-0.0310236 0.00826806,-0.0304046 0.0109618,-0.0295405 0.0135671,-0.0284382 0.0160631,-0.0271068 0.0184296,-0.0255568 0.0206475,-0.0238008 0.022699,-0.021853 0.0245676,-0.019729 0.0262381,-0.017446 0.0276971,-0.0150224 0.0289328,-0.0124776 0.0299353,-0.00983232 0.0306966,-0.00710776 0.0312103,-0.0043259 0.0312061,-0.00151195 0.0312172,0.00126202 0.0309822,0.00402605 0.030503,0.00675833 0.0297833,0.00943733 0.0288288,0.0120419 0.027647,0.0145516 0.0262473,0.0169466 0.0246407,0.0192079 0.0228398,0.0213179 0.0208588,0.0232598 0.0187135,0.0250183 0.0164206,0.0265796 0.0139982,0.0279313 0.0114655,0.0290629 0.0088424,0.0299653 0.00614959,0.0306315 0.00332169,0.0298273 0.000758799,0.0300021 -0.00180965,0.0299571 -0.00436484,0.0296926 -0.00688806,0.0292105 -0.0093608,0.0285145 -0.011765,0.0276095 -0.0140829,0.0265023 -0.0162977,0.0252009 -0.0183931,0.0237148 -0.0203537,0.0220551 -0.0221653,0.0202337 -0.0238144,0.0182641 -0.025289,0.0161606 -0.0265784,0.0139388 -0.027673,0.0116149 -0.0285649,0.00920583 -0.0292475,0.00672934 -0.0297158,0.00420354 -0.0299665,0.00164695 -0.0299975,-0.000921704 -0.0298088,-0.00348361 -0.0294017,-0.00601999 -0.0287792,-0.00851226 0.159584,-0.312523 2.76872e-07,-5.42197e-07 2.76864e-07,-5.42201e-07 2.76857e-07,-5.42204e-07 0.00166179,-0.00364571 0.00133185,-0.00377874 0.000991409,-0.00388199 0.00064315,-0.00395463 0.000289821,-0.00399609 -6.57931e-05,-0.00400605 -0.000420889,-0.00398442 -0.000772666,-0.00393138 -0.00111835,-0.00384734 -0.00145522,-0.00373297 -0.00178061,-0.00358917 -0.00209197,-0.00341707 -0.00238684,-0.00321803 -0.00266288,-0.00299363 -0.00291793,-0.00274561 -0.00314998,-0.00247596 -0.00335719,-0.00218678 -0.00353793,-0.00188036 -0.00369078,-0.00155912 -0.00381454,-0.00122558 -0.00390821,-0.000882383 -0.00397108,-0.000532228 -0.00400263,-0.000177877 z "/>
<path fill="rgb(241,240,234)" stroke="rgb(241,240,234)" d="M 5.22912,3.00183 l -0.159584,0.312523 0.159214,-0.311815 0.000124572,-0.000235309 0.000123181,-0.00023604 0.000121786,-0.000236763 z "/>
<path fill="rgb(241,240,234)" stroke="rgb(241,240,234)" d="M 4.50177,1.1363 l 3.26459,0 0.00883388,0.000390951 0.00876481,0.0011698 0.0086272,0.0019395 0.00842214,0.00269403 0.00815123,0.0034275 0.00781658,0.00413417 0.00742081,0.00480851 0.00696702,0.00544526 0.00645876,0.00603943 0.00589999,0.00658638 0.00529509,0.00708183 0.00464879,0.0075219 0.00396614,0.00790316 0.00325248,0.00822263 0.00251339,0.0084778 0.00175464,0.00866669 0.000982177,0.00878781 0.000202033,0.00884022 -0.000579691,0.0088235 -0.00135688,0.0087378 -0.00212346,0.00858377 -0.00287344,0.00836263 -0.00360095,0.0080761 -3.26459,6.52918 -0.00412828,0.00744612 -0.0047467,0.00706797 -0.00533072,0.00663859 -0.00587609,0.00616109 -0.00637887,0.00563892 -0.00683541,0.00507588 -0.0072424,0.00447605 -0.0075969,0.00384377 -0.00789632,0.00318363 -0.00813851,0.00250041 -0.00832171,0.00179907 -0.00844458,0.00108468 -0.00850624,0.000362437 0,-0.323607 3.10279,-6.20557 -3.10279,2.66454e-15 0,-0.2 z "/>
<path fill="rgb(241,240,234)" stroke="rgb(241,240,234)" d="M 4.50177,1.1363 l 0,0.2 -3.10279,0 3.10279,6.20557 0,0.323607 -0.00850624,-0.000362437 -0.00844458,-0.00108468 -0.00832171,-0.00179907 -0.00813851,-0.00250041 -0.00789632,-0.00318363 -0.0075969,-0.00384377 -0.0072424,-0.00447605 -0.00683541,-0.00507588 -0.00637887,-0.00563892 -0.00587609,-0.00616109 -0.00533072,-0.00663859 -0.0047467,-0.00706797 -0.00412828,-0.00744612 -3.26459,-6.52918 -0.00360095,-0.0080761 -0.00287344,-0.00836263 -0.00212346,-0.00858377 -0.00135688,-0.0087378 -0.000579691,-0.0088235 0.000202033,-0.00884022 0.000982177,-0.00878781 0.00175464,-0.00866669 0.00251339,-0.0084778 0.00325248,-0.00822263 0.00396614,-0.00790316 0.00464879,-0.0075219 0.00529509,-0.00708183 0.00589999,-0.00658638 0.00645876,-0.00603943 0.00696702,-0.00544526 0.00742081,-0.00480851 0.00781658,-0.00413417 0.00815123,-0.0034275 0.00842214,-0.00269403 0.0086272,-0.0019395 0.00876481,-0.0011698 0.00883388,-0.000390951 3.26459,-8.88178e-16 z "/>
<path fill="rgb(187,30,16)" stroke="rgb(187,30,16)" d="M 4.50177,5.97662 l 1.97016,-3.94033 -1.97016,-4.44089e-16 0,-0.7 3.10279,-2.66454e-15 -3.10279,6.20557 0,-1.56525 z "/>
<path fill="rgb(187,30,16)" stroke="rgb(187,30,16)" d="M 4.50177,1.1363 l 0,-0.2 3.26459,-1.77636e-15 0.0265016,0.00117285 0.0262944,0.00350939 0.0258816,0.00581849 0.0252664,0.00808209 0.0244537,0.0102825 0.0234497,0.0124025 0.0222624,0.0144255 0.0209011,0.0163358 0.0193763,0.0181183 0.0177,0.0197591 0.0158853,0.0212455 0.0139464,0.0225657 0.0118984,0.0237095 0.00975744,0.0246679 0.00754016,0.0254334 0.00526392,0.0260001 0.00294653,0.0263634 0.000606098,0.0265207 -0.00173907,0.0264705 -0.00407065,0.0262134 -0.00637039,0.0257513 -0.00862033,0.0250879 -0.0108029,0.0242283 -1.56521,3.13043 -1.69938,3.39875 -0.0123848,0.0223384 -0.0142401,0.0212039 -0.0159921,0.0199158 -0.0176283,0.0184833 -0.0191366,0.0169168 -0.0205062,0.0152277 -0.0217272,0.0134282 -0.0227907,0.0115313 -0.023689,0.00955089 -0.0244155,0.00750124 -0.0249651,0.00539721 -0.0253337,0.00325405 -0.0255187,0.00108731 0,-0.2 0.00850624,-0.000362437 0.00844458,-0.00108468 0.00832171,-0.00179907 0.00813851,-0.00250041 0.00789632,-0.00318363 0.0075969,-0.00384377 0.0072424,-0.00447605 0.00683541,-0.00507588 0.00637887,-0.00563892 0.00587609,-0.00616109 0.00533072,-0.00663859 0.0047467,-0.00706797 0.00412828,-0.00744612 3.26459,-6.52918 0.00360095,-0.0080761 0.00287344,-0.00836263 0.00212346,-0.00858377 0.00135688,-0.0087378 0.000579691,-0.0088235 -0.000202033,-0.00884022 -0.000982177,-0.00878781 -0.00175464,-0.00866669 -0.00251339,-0.0084778 -0.00325248,-0.00822263 -0.00396614,-0.00790316 -0.00464879,-0.0075219 -0.00529509,-0.00708183 -0.00589999,-0.00658638 -0.00645876,-0.00603943 -0.00696702,-0.00544526 -0.00742081,-0.00480851 -0.00781658,-0.00413417 -0.00815123,-0.0034275 -0.00842214,-0.00269403 -0.0086272,-0.0019395 -0.00876481,-0.0011698 -0.00883388,-0.000390951 -3.26459,0 z "/>
<path fill="rgb(187,30,16)" stroke="rgb(187,30,16)" d="M 2.53406,4.50089 l -1.56521,-3.13043 -0.0108029,-0.0242283 -0.00862033,-0.0250879 -0.00637039,-0.0257513 -0.00407065,-0.0262134 -0.00173907,-0.0264705 0.000606098,-0.0265207 0.00294653,-0.0263634 0.00526392,-0.0260001 0.00754016,-0.0254334 0.00975744,-0.0246679 0.0118984,-0.0237095 0.0139464,-0.0225657 0.0158853,-0.0212455 0.0177,-0.0197591 0.0193763,-0.0181183 0.0209011,-0.0163358 0.0222624,-0.0144255 0.0234497,-0.0124025 0.0244537,-0.0102825 0.0252664,-0.00808209 0.0258816,-0.00581849 0.0262944,-0.00350939 0.0265016,-0.00117285 3.26459,0 0,0.2 -3.26459,8.88178e-16 -0.00883388,0.000390951 -0.00876481,0.0011698 -0.0086272,0.0019395 -0.00842214,0.00269403 -0.00815123,0.0034275 -0.00781658,0.00413417 -0.00742081,0.00480851 -0.00696702,0.00544526 -0.00645876,0.00603943 -0.00589999,0.00658638 -0.00529509,0.00708183 -0.00464879,0.0075219 -0.00396614,0.00790316 -0.00325248,0.00822263 -0.00251339,0.0084778 -0.00175464,0.00866669 -0.000982177,0.00878781 -0.000202033,0.00884022 0.000579691,0.0088235 0.00135688,0.0087378 0.00212346,0.00858377 0.00287344,0.00836263 0.00360095,0.0080761 3.26459,6.52918 0.00412828,0.00744612 0.0047467,0.00706797 0.00533072,0.00663859 0.00587609,0.00616109 0.00637887,0.00563892 0.00683541,0.00507588 0.0072424,0.00447605 0.0075969,0.00384377 0.00789632,0.00318363 0.00813851,0.00250041 0.00832171,0.00179907 0.00844458,0.00108468 0.00850624,0.000362437 0,0.2 -0.0255187,-0.00108731 -0.0253337,-0.00325405 -0.0249651,-0.00539721 -0.0244155,-0.00750124 -0.023689,-0.00955089 -0.0227907,-0.0115313 -0.0217272,-0.0134282 -0.0205062,-0.0152277 -0.0191366,-0.0169168 -0.0176283,-0.0184833 -0.0159921,-0.0199158 -0.0142401,-0.0212039 -0.0123848,-0.0223384 -1.69938,-3.39875 z "/>
<path fill="rgb(187,30,16)" stroke="rgb(187,30,16)" d="M 4.50177,5.97662 l 0,1.56525 -3.10279,-6.20557 3.10279,0 0,0.7 -1.97016,4.44089e-16 1.97016,3.94033 z "/>
<path fill="rgb(42,41,42)" stroke="rgb(42,41,42)" d="M 8.90354,4.50089 l 0.1,0 0,-4.25089 -0.000951325,-0.0217889 -0.00284674,-0.0216231 -0.00472048,-0.0212927 -0.0065583,-0.0208003 -0.00834621,-0.0201495 -0.0100706,-0.0193454 -0.0117183,-0.0183941 -0.0132769,-0.0173028 -0.0147344,-0.0160798 -0.0160798,-0.0147344 -0.0173028,-0.0132769 -0.0183941,-0.0117183 -0.0193454,-0.0100706 -0.0201495,-0.00834621 -0.0208003,-0.0065583 -0.0212927,-0.00472048 -0.0216231,-0.00284674 -0.0217889,-0.000951325 -8.50354,0 -0.0217889,0.000951325 -0.0216231,0.00284674 -0.0212927,0.00472048 -0.0208003,0.0065583 -0.0201495,0.00834621 -0.0193454,0.0100706 -0.0183941,0.0117183 -0.0173028,0.0132769 -0.0160798,0.0147344 -0.0147344,0.0160798 -0.0132769,0.0173028 -0.0117183,0.0183941 -0.0100706,0.0193454 -0.00834621,0.0201495 -0.0065583,0.0208003 -0.00472048,0.0212927 -0.00284674,0.0216231 -0.000951325,0.0217889 0,4.25089 0.1,0 0,-4.25089 0.000570795,-0.0130734 0.00170804,-0.0129739 0.00283229,-0.0127756 0.00393498,-0.0124802 0.00500773,-0.0120897 0.00604236,-0.0116073 0.007031,-0.0110365 0.00796614,-0.0103817 0.00884065,-0.00964788 0.00964788,-0.00884065 0.0103817,-0.00796614 0.0110365,-0.007031 0.0116073,-0.00604236 0.0120897,-0.00500773 0.0124802,-0.00393498 0.0127756,-0.00283229 0.0129739,-0.00170804 0.0130734,-0.000570795 8.50354,0 0.0130734,0.000570795 0.0129739,0.00170804 0.0127756,0.00283229 0.0124802,0.00393498 0.0120897,0.00500773 0.0116073,0.00604236 0.0110365,0.007031 0.0103817,0.00796614 0.00964788,0.00884065 0.00884065,0.00964788 0.00796614,0.0103817 0.007031,0.0110365 0.00604236,0.0116073 0.00500773,0.0120897 0.00393498,0.0124802 0.00283229,0.0127756 0.00170804,0.0129739 0.000570795,0.0130734 0,4.25089 z "/>
<path fill="rgb(42,41,42)" stroke="rgb(42,41,42)" d="M 8.90354,4.50089 l 0.1,0 0,4.25089 -0.000951325,0.0217889 -0.00284674,0.0216231 -0.00472048,0.0212927 -0.0065583,0.0208003 -0.00834621,0.0201495 -0.0100706,0.0193454 -0.0117183,0.0183941 -0.0132769,0.0173028 -0.0147344,0.0160798 -0.0160798,0.0147344 -0.0173028,0.0132769 -0.0183941,0.0117183 -0.0193454,0.0100706 -0.0201495,0.00834621 -0.0208003,0.0065583 -0.0212927,0.00472048 -0.0216231,0.00284674 -0.0217889,0.000951325 -8.50354,0 -0.0217889,-0.000951325 -0.0216231,-0.00284674 -0.0212927,-0.00472048 -0.0208003,-0.0065583 -0.0201495,-0.00834621 -0.0193454,-0.0100706 -0.0183941,-0.0117183 -0.0173028,-0.0132769 -0.0160798,-0.0147344 -0.0147344,-0.0160798 -0.0132769,-0.0173028 -0.0117183,-0.0183941 -0.0100706,-0.0193454 -0.00834621,-0.0201495 -0.0065583,-0.0208003 -0.00472048,-0.0212927 -0.00284674,-0.0216231 -0.000951325,-0.0217889 0,-4.25089 0.1,0 0,4.25089 0.000570795,0.0130734 0.00170804,0.0129739 0.00283229,0.0127756 0.00393498,0.0124802 0.00500773,0.0120897 0.00604236,0.0116073 0.007031,0.0110365 0.00796614,0.0103817 0.00884065,0.00964788 0.00964788,0.00884065 0.0103817,0.00796614 0.0110365,0.007031 0.0116073,0.00604236 0.0120897,0.00500773 0.0124802,0.00393498 0.0127756,0.00283229 0.0129739,0.00170804 0.0130734,0.000570795 8.50354,0 0.0130734,-0.000570795 0.0129739,-0.00170804 0.0127756,-0.00283229 0.0124802,-0.00393498 0.0120897,-0.00500773 0.0116073,-0.00604236 0.0110365,-0.007031 0.0103817,-0.00796614 0.00964788,-0.00884065 0.00884065,-0.00964788 0.00796614,-0.0103817 0.007031,-0.0110365 0.00604236,-0.0116073 0.00500773,-0.0120897 0.00393498,-0.0124802 0.00283229,-0.0127756 0.00170804,-0.0129739 0.000570795,-0.0130734 0,-4.25089 z "/>
<path fill="rgb(42,41,42)" stroke="rgb(42,41,42)" d="M 5.31469,2.55827 l 0.00672605,0.00185059 0.0371827,0.013869 0.0358111,0.0171017 3.55271e-14,1.90958e-14 0.0338312,0.020015 0.031921,0.022939 0.0297589,0.0256819 0.0273618,0.028222 0.0247487,0.0305394 0.0219402,0.0326156 0.0189585,0.0344344 0.0158271,0.0359813 0.0125708,0.0372441 0.00921521,0.038213 0.00578689,0.0388801 0.00231289,0.0392403 -0.00117938,0.0392907 -0.00466233,0.0390309 -0.00810847,0.038463 -0.0114906,0.0375914 -0.014782,0.0364231 -0.0179567,0.0349672 -0.0209897,0.0332353 -0.0238569,0.0312409 -3.64153e-14,4.26326e-14 -0.0265227,0.0290121 -0.0289691,0.0265698 -0.0311914,0.0239219 -0.0331725,0.021089 -0.034897,0.018093 -0.0363517,0.0149571 -0.0198225,0.00618338 0,-0.0977201 0.0180017,-0.00755563 0.0265784,-0.0139388 0.025289,-0.0161606 0.0238144,-0.0182641 0.0221653,-0.0202337 0.0203537,-0.0220551 0.0183931,-0.0237148 0.0162977,-0.0252009 0.0140829,-0.0265023 0.011765,-0.0276095 0.0093608,-0.0285145 0.00688806,-0.0292105 0.00436484,-0.0296926 0.00180965,-0.0299571 -0.000758799,-0.0300021 -0.00332169,-0.0298273 -0.00614959,-0.0306315 -0.0088424,-0.0299653 -0.0114655,-0.0290629 -0.0139982,-0.0279313 -0.0164206,-0.0265796 -0.0187135,-0.0250183 -0.0208588,-0.0232598 -0.0228398,-0.0213179 -0.0246407,-0.0192079 -0.0262473,-0.0169466 -0.027647,-0.0145516 -0.0172607,-0.00720987 0,-0.0990542 z "/>
<path fill="rgb(42,41,42)" stroke="rgb(42,41,42)" d="M 4.95473,3.53675 l -0.0510532,0.0993549 0.0729665,0.162535 0.109463,0 0,0.0928886 -0.341644,0 -0.00404789,-0.000176735 -0.00401708,-0.000528859 -0.0039557,-0.000876958 -0.00386422,-0.00121838 -0.00374332,-0.00155053 -0.00359394,-0.00187089 -0.00341721,-0.002177 -0.00321446,-0.00246654 -0.00298726,-0.00273732 -0.00273732,-0.00298726 -0.00246654,-0.00321446 -0.002177,-0.00341721 -0.00187089,-0.00359394 -0.00155053,-0.00374332 -0.00121838,-0.00386422 -0.000876958,-0.0039557 -0.000528859,-0.00401708 -0.000176735,-0.00404789 0.000176735,-0.00404789 0.000528859,-0.00401708 0.000876958,-0.0039557 0.00121838,-0.00386422 0.00155053,-0.00374332 0.00187089,-0.00359394 0.002177,-0.00341721 0.00246654,-0.00321446 0.00273732,-0.00298726 0.00298726,-0.00273732 0.00321446,-0.00246654 0.00341721,-0.002177 0.00359394,-0.00187089 0.00374332,-0.00155053 0.00386422,-0.00121838 0.0039557,-0.000876958 0.00401708,-0.000528859 0.00404789,-0.000176735 0.132679,0 -0.0431374,-0.0928886 -0.519318,0 0,-0.0895412 0.476208,0 -0.0359463,-0.0794599 0.199783,0 z "/>
<path fill="rgb(42,41,42)" stroke="rgb(42,41,42)" d="M 4.62504,3.02908 l 0.228888,0.500886 0.0895412,-0.172496 -0.0302559,-0.0203939 -0.0284462,-0.0228504 -0.0264377,-0.0251471 -0.0242443,-0.027268 -0.0218814,-0.0291982 -0.0193655,-0.0309242 -0.0167141,-0.0324341 -0.0139459,-0.0337171 -0.0110802,-0.0347643 -0.00813702,-0.0355685 -0.00513693,-0.036124 -0.112784,0 z M 5.11265,3.02908 l -0.278639,0 0.00526085,0.0290223 0.00770905,0.02847 0.0101014,0.0277116 0.0124207,0.0267525 0.01465,0.0255998 0.0167733,0.0242617 0.0187751,0.0227479 0.020641,0.0210695 0.0223574,0.0192385 0.023912,0.0172682 0.126038,-0.242142 z M 5.31469,3.30745 l 0,0.0977201 -0.0177027,0.00552215 -0.0384085,0.00836342 -0.0389948,0.00495663 -0.0392794,0.00151151 -0.0392603,-0.00194531 -0.0389376,-0.00538708 -0.0383138,-0.00878719 -0.0373936,-0.0121193 -0.0716645,0.139467 -0.199783,0 -0.216157,-0.477818 -0.224105,0.249336 0,-0.13871 0.210824,-0.233371 0.212313,0 0.00622246,-0.0391942 0.00966297,-0.0384907 0.0130278,-0.0374857 0.0162906,-0.0361873 0.0194259,-0.0346055 0.0224091,-0.0327527 0.0252167,-0.0306434 0.027827,-0.0282942 0.0302193,-0.0257235 0.032375,-0.0229513 0.0342772,-0.0199994 0.035911,-0.0168909 0.0372636,-0.0136501 0.0383244,-0.0103025 0.0390852,-0.00687419 0.0395398,-0.00339204 0.0396849,0.00011666 0.0395192,0.00362445 0.0390441,0.00710386 0.0315371,0.00867705 0,0.0990542 -0.0115681,-0.00483207 -0.0297833,-0.00943733 -0.030503,-0.00675833 -0.0309822,-0.00402605 -0.0312172,-0.00126202 -0.0312061,0.00151195 -0.0312103,0.0043259 -0.0306966,0.00710776 -0.0299353,0.00983232 -0.0289328,0.0124776 -0.0276971,0.0150224 -0.0262381,0.017446 -0.0245676,0.019729 -0.022699,0.021853 -0.0206475,0.0238008 -0.0184296,0.0255568 -0.0160631,0.0271068 -0.0135671,0.0284382 -0.0109618,0.0295405 -0.00826806,0.0304046 -0.00550772,0.0310236 0.354926,0 0.00400263,0.000177877 0.00397108,0.000532228 0.00390821,0.000882383 0.00381454,0.00122558 0.00369078,0.00155912 0.00353793,0.00188036 0.00335719,0.00218678 0.00314998,0.00247596 0.00291793,0.00274561 0.00266288,0.00299363 0.00238684,0.00321803 0.00209197,0.00341707 0.00178061,0.00358917 0.00145522,0.00373297 0.00111835,0.00384734 0.000772666,0.00393138 0.000420889,0.00398442 6.57931e-05,0.00400605 -0.000289821,0.00399609 -0.00064315,0.00395463 -0.000991409,0.00388199 -0.00133185,0.00377874 -0.00166179,0.00364571 -8.30593e-07,1.6266e-06 -0.000121786,0.000236763 -0.000123181,0.00023604 -0.000124572,0.000235309 -0.159214,0.311815 0.0287792,0.00851226 0.0294017,0.00601999 0.0298088,0.00348361 0.0299975,0.000921704 0.0299665,-0.00164695 0.0297158,-0.00420354 0.0292475,-0.00672934 0.0285649,-0.00920583 0.00967135,-0.00405925 z "/>
<path fill="rgb(42,41,42)" stroke="rgb(42,41,42)" d="M 3.90732,3.53675 l 0.202008,0 -0.0714192,0.0794599 0.276781,0 0,0.0895412 -0.250245,0 0.0531029,0.141477 0.00240718,0.00563884 0.00289774,0.00540316 0.00336547,0.00512491 0.00380668,0.00480627 0.0042179,0.00444976 0.00459588,0.00405819 0.00493765,0.00363465 0.00524051,0.00318247 0.00550208,0.00270521 0.0057203,0.00220663 0.00589344,0.00169067 0.00602015,0.00116139 0.00609942,0.000622951 0.00613064,7.96077e-05 0.00611354,-0.000464363 0.116104,0 0,0.0928616 -0.132659,-0.000138156 -0.0133608,-0.000589103 -0.0132608,-0.00173512 -0.0130626,-0.0028683 -0.0127678,-0.00398025 -0.0123785,-0.00506276 -0.0118976,-0.00610781 -0.0113287,-0.00710766 -0.010676,-0.00805493 -0.0099443,-0.0089426 -0.00913901,-0.0097641 -0.0082661,-0.0105134 -0.00733202,-0.0111848 -0.00634371,-0.0117736 -0.00530845,-0.0122752 -0.00423392,-0.0126859 -0.117321,-0.334856 z "/>
<path fill="rgb(42,41,42)" stroke="rgb(42,41,42)" d="M 3.98299,2.7111 l -0.0244266,-0.0183299 -0.0259233,-0.0161439 -0.027225,-0.0138363 -0.0283218,-0.0114246 -0.0292054,-0.00892691 -0.0298692,-0.00636204 -0.0303082,-0.00374929 -0.0305191,-0.00110833 -0.0305003,0.00154098 -0.030252,0.00417869 -0.029776,0.00678496 -0.0290758,0.00934015 -0.0281569,0.0118251 -0.0270261,0.014221 -0.0256918,0.0165098 -0.0241642,0.0186745 -0.0224547,0.0206985 -0.0205762,0.0225668 -0.0185429,0.0242653 -0.01637,0.0257811 -0.0140739,0.0271029 -0.0116719,0.0282207 -0.00918205,0.0291262 -0.00662309,0.0298124 -0.00401428,0.0302742 -0.00137526,0.0305082 4.44089e-16,3.68594e-14 0,2.88658e-14 0.00121846,0.0297341 0.00374511,0.0295224 0.00624458,0.0290965 0.00869871,0.0284593 0.0110897,0.0276155 0.0134002,0.0265713 0.0156134,0.0253342 0.0177133,0.0239132 0.0196845,0.0223185 0.0215129,0.0205619 0.0231852,0.018656 0.0246891,0.0166147 0.0260138,0.0144528 0.0271496,0.0121859 0.0280884,0.00983063 0.0288233,0.00740396 0.0293489,0.00492354 0.0296615,0.00240739 0.0297587,-0.000126246 0.02964,-0.00265896 0.0293061,-0.00517238 -0.116104,-0.32839 -0.00119616,-0.00392258 -0.000847956,-0.00401228 -0.000493236,-0.00407113 -0.000134724,-0.00409869 0.000224823,-0.00409473 0.000582643,-0.0040593 0.000935982,-0.00399266 0.00128213,-0.00389532 0.00161841,-0.00376804 0.00194226,-0.00361179 0.00225117,-0.00342777 0.00254278,-0.0032174 0.00281484,-0.0029823 0.00306525,-0.00272426 0.00329211,-0.00244529 0.00349365,-0.00214751 0.00366834,-0.00183322 0.00381482,-0.00150485 0.00393197,-0.0011649 0.0040189,-0.000815993 0.00407493,-0.000460816 0.00409963,-0.000102096 0.00409282,0.000257408 0.00405453,0.000614934 0.00398508,0.000967732 0.003885,0.00131309 0.00375504,0.00164835 0.00359622,0.00197095 0.00340975,0.00227838 0.00319706,0.00256831 0.0029598,0.00283849 0.00269978,0.00308684 0.00241901,0.00331147 0.00211963,0.00351063 0.00180397,0.00368281 0.00147443,0.00382668 0.00113356,0.00394112 0.112784,0.32507 0.0263963,-0.0147698 0.0250231,-0.0169928 0.0234631,-0.0190891 0.0217281,-0.0210428 0.0198309,-0.0228396 0.0177857,-0.0244659 0.0156078,-0.0259096 0.0133134,-0.02716 0.0109196,-0.0282076 0.00844442,-0.0290448 0.00590617,-0.0296653 0.00332385,-0.0300643 0.000716721,-0.030239 -0.00189576,-0.030188 -0.00449408,-0.0299118 -0.00705888,-0.0294123 -0.00957099,-0.0286933 -0.0120117,-0.0277602 -0.0143627,-0.02662 -0.0166066,-0.025281 -0.0187265,-0.0237535 -0.0207067,-0.0220486 -0.0225324,-0.0201792 z M 4.10933,3.53675 l -0.202008,0 -0.0418934,-0.119572 -0.037963,0.00737548 -0.0384587,0.00406393 -0.0386661,0.000721913 -0.0385836,-0.00262552 -0.0382119,-0.00595326 -0.0375537,-0.00923638 -0.036614,-0.0124502 -0.0353997,-0.0155708 -0.0339201,-0.0185746 -0.0321862,-0.0214391 -0.030211,-0.024143 -0.0280094,-0.0266658 -0.0255977,-0.0289887 -0.0229942,-0.0310944 -0.0202182,-0.0329669 -0.0172907,-0.0345922 -0.0142336,-0.0359582 -0.0110697,-0.0370547 -0.00782293,-0.0378734 -0.00451746,-0.0384081 -0.00117812,-0.0386549 0.00217005,-0.0386119 0.00550195,-0.0382795 0.0087926,-0.0376601 0.0120173,-0.0367583 0.015152,-0.035581 0.018173,-0.0341369 0.0210579,-0.032437 0.0237848,-0.0304938 0.0263335,-0.0283221 0.0286847,-0.025938 3.24185e-14,-2.66454e-14 0.0313053,-0.0236823 0.0332741,-0.0208256 0.034983,-0.0178063 0.0364186,-0.0146478 0.0375697,-0.011375 0.0384273,-0.00801324 0.0389848,-0.00458893 0.0392377,-0.00112877 0.0391841,0.00234021 0.0388244,0.00579091 0.0381615,0.00919637 0.0372004,0.01253 0.0359487,0.0157657 0.0344163,0.0188783 0.0326149,0.0218434 0.0305588,0.0246379 0.028264,0.02724 0.0257484,0.0296292 0.0230317,0.031787 0.0201351,0.0336964 0.0165712,0.0341407 0.0136113,0.0354249 0.010553,0.0364531 0.0074185,0.0372177 0.00423033,0.0377134 0.00101159,0.0379364 -0.00221446,0.0378852 -0.00542451,0.0375602 -0.00859534,0.0369637 -0.0117041,0.0361 -0.0147282,0.0349753 -0.0176458,0.0335979 -0.0204359,0.0319776 -0.0230783,0.0301262 -0.0255539,0.028057 -0.0278447,0.025785 -0.0299343,0.0233266 -0.0318076,0.0206996 -0.0334509,0.017923 0.0464443,0.135999 0.316584,-0.350442 0,0.13871 -0.205361,0.228482 z "/>
<path fill="rgb(42,41,42)" stroke="rgb(42,41,42)" d="M 5.22912,3.00183 l -2.76857e-07,5.42204e-07 -2.76864e-07,5.42201e-07 -2.76872e-07,5.42197e-07 8.30593e-07,-1.6266e-06 z "/>
</g></g></svg>
