<?xml version="1.0" encoding="UTF-8" standalone="no"?>
<!DOCTYPE svg PUBLIC "-//W3C//DTD SVG 1.1//EN" "http://www.w3.org/Graphics/SVG/1.1/DTD/svg11-flat.dtd"
[

]>
<svg xmlns="http://www.w3.org/2000/svg"  viewBox="-0.125044 -0.125044 10.2536 12.7519"><g fill="none" stroke="black" stroke-width="0.0125" transform="translate(0,12.5018) scale(1, -1)">
<g id="Output" >
<path fill="rgb(0,91,140)" stroke="rgb(0,91,140)" d="M 3.65937,8.30039 l 1.3424,-1.3424 1.3424,1.3424 -0.187935,0.111448 -0.197116,0.094261 -0.204731,0.0763245 -0.210716,0.057781 -0.215026,0.0387779 -0.217626,0.0194663 -0.218495,0 -0.217626,-0.0194663 -0.215026,-0.0387779 -0.210716,-0.057781 -0.204731,-0.0763245 -0.197116,-0.094261 -0.187935,-0.111448 z "/>
<path fill="rgb(0,91,140)" stroke="rgb(0,91,140)" d="M 5.70888,6.25089 l 1.3424,-1.3424 0.111448,0.187935 0.094261,0.197116 0.0763245,0.204731 0.057781,0.210716 0.0387779,0.215026 0.0194663,0.217626 0,0.218495 -0.0194663,0.217626 -0.0387779,0.215026 -0.057781,0.210716 -0.0763245,0.204731 -0.094261,0.197116 -0.111448,0.187935 -1.3424,-1.3424 z "/>
<path fill="rgb(0,91,140)" stroke="rgb(0,91,140)" d="M 5.00177,5.54378 l -1.3424,-1.3424 0.187935,-0.111448 0.197116,-0.094261 0.204731,-0.0763245 0.210716,-0.057781 0.215026,-0.0387779 0.217626,-0.0194663 0.218495,4.44089e-16 0.217626,0.0194663 0.215026,0.0387779 0.210716,0.057781 0.204731,0.0763245 0.197116,0.094261 0.187935,0.111448 -1.3424,1.3424 z "/>
<path fill="rgb(0,91,140)" stroke="rgb(0,91,140)" d="M 4.29466,6.25089 l -1.3424,1.3424 -0.111448,-0.187935 -0.094261,-0.197116 -0.0763245,-0.204731 -0.057781,-0.210716 -0.0387779,-0.215026 -0.0194663,-0.217626 -4.44089e-16,-0.218495 0.0194663,-0.217626 0.0387779,-0.215026 0.057781,-0.210716 0.0763245,-0.204731 0.094261,-0.197116 0.111448,-0.187935 1.3424,1.3424 z "/>
<path fill="rgb(241,240,234)" stroke="rgb(241,240,234)" d="M 4.29466,6.25089 l -1.3424,-1.3424 0.0378113,-0.0560267 0.0393425,-0.0549623 0.0408437,-0.0538561 1.50724,1.50724 -1.50724,1.50724 -0.0408437,-0.0538561 -0.0393425,-0.0549623 -0.0378113,-0.0560267 1.3424,-1.3424 z "/>
<path fill="rgb(241,240,234)" stroke="rgb(241,240,234)" d="M 5.00177,5.54378 l 1.3424,-1.3424 0.0560267,0.0378113 0.0549623,0.0393425 0.0538561,0.0408437 -1.50724,1.50724 -1.50724,-1.50724 0.0538561,-0.0408437 0.0549623,-0.0393425 0.0560267,-0.0378113 1.3424,1.3424 z "/>
<path fill="rgb(241,240,234)" stroke="rgb(241,240,234)" d="M 5.70888,6.25089 l 1.3424,1.3424 -0.0378113,0.0560267 -0.0393425,0.0549623 -0.0408437,0.0538561 -1.50724,-1.50724 1.50724,-1.50724 0.0408437,0.0538561 0.0393425,0.0549623 0.0378113,0.0560267 -1.3424,1.3424 z "/>
<path fill="rgb(241,240,234)" stroke="rgb(241,240,234)" d="M 7.07569,7.90054 l -0.142412,-0.142412 0.0408437,-0.0538561 0.0393425,-0.0549623 0.0378113,-0.0560267 0.111448,-0.187935 0.094261,-0.197116 0.0763245,-0.204731 0.057781,-0.210716 0.0387779,-0.215026 0.0194663,-0.217626 0,-0.218495 -0.0194663,-0.217626 -0.0387779,-0.215026 -0.057781,-0.210716 -0.0763245,-0.204731 -0.094261,-0.197116 -0.111448,-0.187935 -0.0378113,-0.0560267 -0.0393425,-0.0549623 -0.0408437,-0.0538561 0.142412,-0.142412 0.131086,0.179806 0.115539,0.19017 0.0991774,0.199193 0.0821166,0.206811 0.0644768,0.212971 0.0463823,0.217629 0.0279609,0.220753 0.00934224,0.222321 -0.00934224,0.222321 -0.0279609,0.220753 -0.0463823,0.217629 -0.0644768,0.212971 -0.0821166,0.206811 -0.0991774,0.199193 -0.115539,0.19017 -0.131086,0.179806 z "/>
<path fill="rgb(241,240,234)" stroke="rgb(241,240,234)" d="M 3.65937,8.30039 l 0.187935,0.111448 0.197116,0.094261 0.204731,0.0763245 0.210716,0.057781 0.215026,0.0387779 0.217626,0.0194663 0.218495,0 0.217626,-0.0194663 0.215026,-0.0387779 0.210716,-0.057781 0.204731,-0.0763245 0.197116,-0.094261 0.187935,-0.111448 0.0560267,-0.0378113 0.0549623,-0.0393425 0.0538561,-0.0408437 0.142412,0.142412 -0.192176,0.139282 -0.203868,0.121529 -0.213924,0.1028 -0.222263,0.0832477 -0.22882,0.0630272 -0.233542,0.0423011 -0.23639,0.0212357 -0.237342,0 -0.23639,-0.0212357 -0.233542,-0.0423011 -0.22882,-0.0630272 -0.222263,-0.0832477 -0.213924,-0.1028 -0.203868,-0.121529 -0.192176,-0.139282 0.142412,-0.142412 0.0538561,0.0408437 0.0549623,0.0393425 0.0560267,0.0378113 z "/>
<path fill="rgb(241,240,234)" stroke="rgb(241,240,234)" d="M 3.07026,7.75813 l -0.142412,0.142412 -0.131086,-0.179806 -0.115539,-0.19017 -0.0991774,-0.199193 -0.0821166,-0.206811 -0.0644768,-0.212971 -0.0463823,-0.217629 -0.0279609,-0.220753 -0.00934224,-0.222321 0.00934224,-0.222321 0.0279609,-0.220753 0.0463823,-0.217629 0.0644768,-0.212971 0.0821166,-0.206811 0.0991774,-0.199193 0.115539,-0.19017 0.131086,-0.179806 0.142412,0.142412 -0.0408437,0.0538561 -0.0393425,0.0549623 -0.0378113,0.0560267 -0.111448,0.187935 -0.094261,0.197116 -0.0763245,0.204731 -0.057781,0.210716 -0.0387779,0.215026 -0.0194663,0.217626 4.44089e-16,0.218495 0.0194663,0.217626 0.0387779,0.215026 0.057781,0.210716 0.0763245,0.204731 0.094261,0.197116 0.111448,0.187935 0.0378113,0.0560267 0.0393425,0.0549623 0.0408437,0.0538561 z "/>
<path fill="rgb(241,240,234)" stroke="rgb(241,240,234)" d="M 3.49453,4.31938 l -0.142412,-0.142412 0.192176,-0.139282 0.203868,-0.121529 0.213924,-0.1028 0.222263,-0.0832477 0.22882,-0.0630272 0.233542,-0.0423011 0.23639,-0.0212357 0.237342,-4.44089e-16 0.23639,0.0212357 0.233542,0.0423011 0.22882,0.0630272 0.222263,0.0832477 0.213924,0.1028 0.203868,0.121529 0.192176,0.139282 -0.142412,0.142412 -0.0538561,-0.0408437 -0.0549623,-0.0393425 -0.0560267,-0.0378113 -0.187935,-0.111448 -0.197116,-0.094261 -0.204731,-0.0763245 -0.210716,-0.057781 -0.215026,-0.0387779 -0.217626,-0.0194663 -0.218495,-4.44089e-16 -0.217626,0.0194663 -0.215026,0.0387779 -0.210716,0.057781 -0.204731,0.0763245 -0.197116,0.094261 -0.187935,0.111448 -0.0560267,0.0378113 -0.0549623,0.0393425 -0.0538561,0.0408437 z "/>
<path fill="rgb(241,240,234)" stroke="rgb(241,240,234)" d="M 3.65937,8.30039 l -0.0560267,-0.0378113 -0.0549623,-0.0393425 -0.0538561,-0.0408437 1.50724,-1.50724 1.50724,1.50724 -0.0538561,0.0408437 -0.0549623,0.0393425 -0.0560267,0.0378113 -1.3424,-1.3424 -1.3424,1.3424 z "/>
<path fill="rgb(241,240,234)" stroke="rgb(241,240,234)" d="M 1.45177,6.25089 l 0.0135088,-0.309403 0.0404237,-0.307048 0.0670308,-0.302357 0.0931279,-0.295364 0.118516,-0.286123 0.143002,-0.274705 0.1664,-0.261196 0.188532,-0.2457 0.209229,-0.228333 0.228333,-0.209229 0.2457,-0.188532 0.261196,-0.1664 0.274705,-0.143002 0.286123,-0.118516 0.295364,-0.0931279 0.302357,-0.0670308 0.307048,-0.0404237 0.309403,-0.0135088 0.309403,0.0135088 0.307048,0.0404237 0.302357,0.0670308 0.295364,0.0931279 0.286123,0.118516 0.274705,0.143002 0.261196,0.1664 0.2457,0.188532 0.228333,0.209229 0.209229,0.228333 0.188532,0.2457 0.1664,0.261196 0.143002,0.274705 0.118516,0.286123 0.0931279,0.295364 0.0670308,0.302357 0.0404237,0.307048 0.0135088,0.309403 -0.2,0 -0.0127478,-0.291972 -0.0381463,-0.28975 -0.0632545,-0.285322 -0.0878812,-0.278724 -0.111839,-0.270004 -0.134946,-0.259229 -0.157026,-0.246481 -0.17791,-0.231857 -0.197441,-0.215469 -0.215469,-0.197441 -0.231857,-0.17791 -0.246481,-0.157026 -0.259229,-0.134946 -0.270004,-0.111839 -0.278724,-0.0878812 -0.285322,-0.0632545 -0.28975,-0.0381463 -0.291972,-0.0127478 -0.291972,0.0127478 -0.28975,0.0381463 -0.285322,0.0632545 -0.278724,0.0878812 -0.270004,0.111839 -0.259229,0.134946 -0.246481,0.157026 -0.231857,0.17791 -0.215469,0.197441 -0.197441,0.215469 -0.17791,0.231857 -0.157026,0.246481 -0.134946,0.259229 -0.111839,0.270004 -0.0878812,0.278724 -0.0632545,0.285322 -0.0381463,0.28975 -0.0127478,0.291972 -0.2,0 z "/>
<path fill="rgb(241,240,234)" stroke="rgb(241,240,234)" d="M 1.45177,6.25089 l 0.2,0 0.0127478,0.291972 0.0381463,0.28975 0.0632545,0.285322 0.0878812,0.278724 0.111839,0.270004 0.134946,0.259229 0.157026,0.246481 0.17791,0.231857 0.197441,0.215469 0.215469,0.197441 0.231857,0.17791 0.246481,0.157026 0.259229,0.134946 0.270004,0.111839 0.278724,0.0878812 0.285322,0.0632545 0.28975,0.0381463 0.291972,0.0127478 0.291972,-0.0127478 0.28975,-0.0381463 0.285322,-0.0632545 0.278724,-0.0878812 0.270004,-0.111839 0.259229,-0.134946 0.246481,-0.157026 0.231857,-0.17791 0.215469,-0.197441 0.197441,-0.215469 0.17791,-0.231857 0.157026,-0.246481 0.134946,-0.259229 0.111839,-0.270004 0.0878812,-0.278724 0.0632545,-0.285322 0.0381463,-0.28975 0.0127478,-0.291972 0.2,0 -0.0135088,0.309403 -0.0404237,0.307048 -0.0670308,0.302357 -0.0931279,0.295364 -0.118516,0.286123 -0.143002,0.274705 -0.1664,0.261196 -0.188532,0.2457 -0.209229,0.228333 -0.228333,0.209229 -0.2457,0.188532 -0.261196,0.1664 -0.274705,0.143002 -0.286123,0.118516 -0.295364,0.0931279 -0.302357,0.0670308 -0.307048,0.0404237 -0.309403,0.0135088 -0.309403,-0.0135088 -0.307048,-0.0404237 -0.302357,-0.0670308 -0.295364,-0.0931279 -0.286123,-0.118516 -0.274705,-0.143002 -0.261196,-0.1664 -0.2457,-0.188532 -0.228333,-0.209229 -0.209229,-0.228333 -0.188532,-0.2457 -0.1664,-0.261196 -0.143002,-0.274705 -0.118516,-0.286123 -0.0931279,-0.295364 -0.0670308,-0.302357 -0.0404237,-0.307048 -0.0135088,-0.309403 z "/>
<path fill="rgb(241,240,234)" stroke="rgb(241,240,234)" d="M 0.508116,6.25089 l 0,-5.49085 0.000998892,-0.0228784 0.00298907,-0.0227043 0.00495651,-0.0223574 0.00688622,-0.0218403 0.00876352,-0.021157 0.0105741,-0.0203127 0.0123043,-0.0193138 0.0139407,-0.0181679 0.0154711,-0.0168838 0.0168838,-0.0154711 0.0181679,-0.0139407 0.0193138,-0.0123043 0.0203127,-0.0105741 0.021157,-0.00876352 0.0218403,-0.00688622 0.0223574,-0.00495651 0.0227043,-0.00298907 0.0228784,-0.000998892 8.47818,8.88178e-15 0.0228784,0.000998892 0.0227043,0.00298907 0.0223574,0.00495651 0.0218403,0.00688622 0.021157,0.00876352 0.0203127,0.0105741 0.0193138,0.0123043 0.0181679,0.0139407 0.0168838,0.0154711 0.0154711,0.0168838 0.0139407,0.0181679 0.0123043,0.0193138 0.0105741,0.0203127 0.00876352,0.021157 0.00688622,0.0218403 0.00495651,0.0223574 0.00298907,0.0227043 0.000998892,0.0228784 1.77636e-15,5.49085 -0.759525,-8.88178e-16 -0.0142699,-0.326834 -0.042701,-0.324347 -0.0708072,-0.319391 -0.0983745,-0.312004 -0.125193,-0.302243 -0.151059,-0.290182 -0.175775,-0.275912 -0.199154,-0.259542 -0.221016,-0.241197 -0.241197,-0.221016 -0.259542,-0.199154 -0.275912,-0.175775 -0.290182,-0.151059 -0.302243,-0.125193 -0.312004,-0.0983745 -0.319391,-0.0708072 -0.324347,-0.042701 -0.326834,-0.0142699 -0.326834,0.0142699 -0.324347,0.042701 -0.319391,0.0708072 -0.312004,0.0983745 -0.302243,0.125193 -0.290182,0.151059 -0.275912,0.175775 -0.259542,0.199154 -0.241197,0.221016 -0.221016,0.241197 -0.199154,0.259542 -0.175775,0.275912 -0.151059,0.290182 -0.125193,0.302243 -0.0983745,0.312004 -0.0708072,0.319391 -0.042701,0.324347 -0.0142699,0.326834 -0.743653,0 z "/>
<path fill="rgb(241,240,234)" stroke="rgb(241,240,234)" d="M 10.0035,6.25089 l -0.229744,0 0,-5.49085 -0.00199778,-0.0457568 -0.00597815,-0.0454085 -0.00991301,-0.0447147 -0.0137724,-0.0436806 -0.017527,-0.042314 -0.0211483,-0.0406254 -0.0246085,-0.0386276 -0.0278815,-0.0363359 -0.0309423,-0.0337676 -0.0337676,-0.0309423 -0.0363359,-0.0278815 -0.0386276,-0.0246085 -0.0406254,-0.0211483 -0.042314,-0.017527 -0.0436806,-0.0137724 -0.0447147,-0.00991301 -0.0454085,-0.00597815 -0.0457568,-0.00199778 -8.47818,-7.99361e-15 -0.0457568,0.00199778 -0.0454085,0.00597815 -0.0447147,0.00991301 -0.0436806,0.0137724 -0.042314,0.017527 -0.0406254,0.0211483 -0.0386276,0.0246085 -0.0363359,0.0278815 -0.0337676,0.0309423 -0.0309423,0.0337676 -0.0278815,0.0363359 -0.0246085,0.0386276 -0.0211483,0.0406254 -0.017527,0.042314 -0.0137724,0.0436806 -0.00991301,0.0447147 -0.00597815,0.0454085 -0.00199778,0.0457568 0,5.49085 -0.245616,1.77636e-15 0,-6.25089 10.0035,1.77636e-15 -1.77636e-15,6.25089 z "/>
<path fill="rgb(241,240,234)" stroke="rgb(241,240,234)" d="M 10.0035,6.25089 l -1.77636e-15,6.25089 -10.0035,0 0,-6.25089 0.245616,-1.77636e-15 0,5.48553 0.00199778,0.0457568 0.00597815,0.0454085 0.00991301,0.0447147 0.0137724,0.0436806 0.017527,0.042314 0.0211483,0.0406254 0.0246085,0.0386276 0.0278815,0.0363359 0.0309423,0.0337676 0.0337676,0.0309423 0.0363359,0.0278815 0.0386276,0.0246085 0.0406254,0.0211483 0.042314,0.017527 0.0436806,0.0137724 0.0447147,0.00991301 0.0454085,0.00597815 0.0457568,0.00199778 8.47818,1.06581e-14 0.0457568,-0.00199778 0.0454085,-0.00597815 0.0447147,-0.00991301 0.0436806,-0.0137724 0.042314,-0.017527 0.0406254,-0.0211483 0.0386276,-0.0246085 0.0363359,-0.0278815 0.0337676,-0.0309423 0.0309423,-0.0337676 0.0278815,-0.0363359 0.0246085,-0.0386276 0.0211483,-0.0406254 0.017527,-0.042314 0.0137724,-0.0436806 0.00991301,-0.0447147 0.00597815,-0.0454085 0.00199778,-0.0457568 1.77636e-15,-5.48553 0.229744,0 z "/>
<path fill="rgb(241,240,234)" stroke="rgb(241,240,234)" d="M 0.508116,6.25089 l 0.743653,0 0.0142699,0.326834 0.042701,0.324347 0.0708072,0.319391 0.0983745,0.312004 0.125193,0.302243 0.151059,0.290182 0.175775,0.275912 0.199154,0.259542 0.221016,0.241197 0.241197,0.221016 0.259542,0.199154 0.275912,0.175775 0.290182,0.151059 0.302243,0.125193 0.312004,0.0983745 0.319391,0.0708072 0.324347,0.042701 0.326834,0.0142699 0.326834,-0.0142699 0.324347,-0.042701 0.319391,-0.0708072 0.312004,-0.0983745 0.302243,-0.125193 0.290182,-0.151059 0.275912,-0.175775 0.259542,-0.199154 0.241197,-0.221016 0.221016,-0.241197 0.199154,-0.259542 0.175775,-0.275912 0.151059,-0.290182 0.125193,-0.302243 0.0983745,-0.312004 0.0708072,-0.319391 0.042701,-0.324347 0.0142699,-0.326834 0.759525,8.88178e-16 -1.77636e-15,5.48553 -0.000998892,0.0228784 -0.00298907,0.0227043 -0.00495651,0.0223574 -0.00688622,0.0218403 -0.00876352,0.021157 -0.0105741,0.0203127 -0.0123043,0.0193138 -0.0139407,0.0181679 -0.0154711,0.0168838 -0.0168838,0.0154711 -0.0181679,0.0139407 -0.0193138,0.0123043 -0.0203127,0.0105741 -0.021157,0.00876352 -0.0218403,0.00688622 -0.0223574,0.00495651 -0.0227043,0.00298907 -0.0228784,0.000998892 -8.47818,-8.88178e-15 -0.0228784,-0.000998892 -0.0227043,-0.00298907 -0.0223574,-0.00495651 -0.0218403,-0.00688622 -0.021157,-0.00876352 -0.0203127,-0.0105741 -0.0193138,-0.0123043 -0.0181679,-0.0139407 -0.0168838,-0.0154711 -0.0154711,-0.0168838 -0.0139407,-0.0181679 -0.0123043,-0.0193138 -0.0105741,-0.0203127 -0.00876352,-0.021157 -0.00688622,-0.0218403 -0.00495651,-0.0223574 -0.00298907,-0.0227043 -0.000998892,-0.0228784 0,-5.48553 z "/>
<path fill="rgb(42,41,42)" stroke="rgb(42,41,42)" d="M 6.92529,11.4659 l -0.7289,0 0,-1.00125 0.746217,0 0,0.17947 -0.565173,0 0,0.272353 0.299116,0 0,0.182618 -0.299116,0 0,0.187341 0.547855,0 0,0.17947 z "/>
<path fill="rgb(42,41,42)" stroke="rgb(42,41,42)" d="M 5.93663,11.4659 l -0.171598,0 0,-0.661205 0.0188916,-0.340048 0.152707,0 0,1.00125 z "/>
<path fill="rgb(42,41,42)" stroke="rgb(42,41,42)" d="M 5.30533,11.4659 l 0,-0.313285 0.478586,-0.687968 -0.0188916,0.340048 -0.459695,0.661205 z "/>
<path fill="rgb(42,41,42)" stroke="rgb(42,41,42)" d="M 5.30533,11.4659 l -0.174747,0 0,-1.00125 0.174747,0 0,0.687968 0,0.313285 z "/>
<path fill="rgb(42,41,42)" stroke="rgb(42,41,42)" d="M 4.4867,11.4817 l -0.0125944,0 -0.0881606,-0.0110201 -0.0802891,-0.0251888 -0.0692691,-0.042506 -0.0613976,-0.058249 -0.0283373,-0.0409317 0.340048,0 0.0377831,-0.00314859 0.0771406,-0.0283373 0.0598233,-0.058249 0.0330602,-0.0661205 0.0204659,-0.0834377 0.00629719,-0.0976064 -0.00314859,-0.0708434 -0.015743,-0.0865863 -0.0283373,-0.0708434 -0.0377831,-0.0535261 -0.0661205,-0.0440803 -0.0834377,-0.0141687 -0.322731,-0.0141687 0.0251888,-0.0314859 0.0598233,-0.058249 0.0692691,-0.042506 0.0802891,-0.0236145 0.0881606,-0.00944578 0.00629719,0 0.0865863,0.0110201 0.0787149,0.026763 0.0692691,0.0456546 0.0598233,0.0613976 0.0283373,0.0409317 0.0377831,0.0708434 0.0251888,0.0802891 0.015743,0.0881606 0.00472289,0.0976064 -0.0015743,0.0566747 -0.0110201,0.0913092 -0.0236145,0.0834377 -0.0330602,0.073992 -0.0440803,0.0661205 -0.0015743,0.0015743 -0.0598233,0.0613976 -0.0708434,0.042506 -0.0787149,0.0251888 -0.0881606,0.00944578 z "/>
<path fill="rgb(42,41,42)" stroke="rgb(42,41,42)" d="M 4.14665,11.3038 l -0.0362088,-0.0692691 -0.026763,-0.0787149 -0.0141687,-0.0897349 -0.00629719,-0.0991807 0.0015743,-0.0299116 0.00787149,-0.0913092 0.0204659,-0.085012 0.0299116,-0.0771406 0.0409317,-0.0708434 0.322731,0.0141687 -0.0393574,0.00314859 -0.0771406,0.0283373 -0.0598233,0.0598233 -0.0015743,0 -0.0346345,0.0676948 -0.0220402,0.0834377 -0.00629719,0.0976064 0.00629719,0.0976064 0.0220402,0.0818634 0.0362088,0.0676948 0.0236145,0.0299116 0.0676948,0.0440803 0.085012,0.015743 -0.340048,0 z "/>
<path fill="rgb(42,41,42)" stroke="rgb(42,41,42)" d="M 3.89634,11.4659 l -0.754088,0 0,-0.176321 0.536835,0 -0.568321,-0.621847 0,-0.203084 0.785574,0 0,0.17947 -0.563598,0 0.563598,0.617124 0,0.204659 z "/>
<path fill="rgb(187,30,16)" stroke="rgb(187,30,16)" d="M 3.07026,7.75813 l 1.50724,-1.50724 -1.50724,-1.50724 -0.142412,-0.142412 0.13058,-0.151993 0.141691,-0.141691 0.151993,-0.13058 0.142412,0.142412 1.50724,1.50724 1.50724,-1.50724 0.142412,-0.142412 0.151993,0.13058 0.141691,0.141691 0.13058,0.151993 -0.142412,0.142412 -1.50724,1.50724 1.50724,1.50724 0.142412,0.142412 -0.13058,0.151993 -0.141691,0.141691 -0.151993,0.13058 -0.142412,-0.142412 -1.50724,-1.50724 -1.50724,1.50724 -0.142412,0.142412 -0.151993,-0.13058 -0.141691,-0.141691 -0.13058,-0.151993 0.142412,-0.142412 z "/>
<path fill="rgb(187,30,16)" stroke="rgb(187,30,16)" d="M 1.45177,6.25089 l -0.2,0 0.0142699,-0.326834 0.042701,-0.324347 0.0708072,-0.319391 0.0983745,-0.312004 0.125193,-0.302243 0.151059,-0.290182 0.175775,-0.275912 0.199154,-0.259542 0.221016,-0.241197 0.241197,-0.221016 0.259542,-0.199154 0.275912,-0.175775 0.290182,-0.151059 0.302243,-0.125193 0.312004,-0.0983745 0.319391,-0.0708072 0.324347,-0.042701 0.326834,-0.0142699 0.326834,0.0142699 0.324347,0.042701 0.319391,0.0708072 0.312004,0.0983745 0.302243,0.125193 0.290182,0.151059 0.275912,0.175775 0.259542,0.199154 0.241197,0.221016 0.221016,0.241197 0.199154,0.259542 0.175775,0.275912 0.151059,0.290182 0.125193,0.302243 0.0983745,0.312004 0.0708072,0.319391 0.042701,0.324347 0.0142699,0.326834 -0.2,0 -0.0135088,-0.309403 -0.0404237,-0.307048 -0.0670308,-0.302357 -0.0931279,-0.295364 -0.118516,-0.286123 -0.143002,-0.274705 -0.1664,-0.261196 -0.188532,-0.2457 -0.209229,-0.228333 -0.228333,-0.209229 -0.2457,-0.188532 -0.261196,-0.1664 -0.274705,-0.143002 -0.286123,-0.118516 -0.295364,-0.0931279 -0.302357,-0.0670308 -0.307048,-0.0404237 -0.309403,-0.0135088 -0.309403,0.0135088 -0.307048,0.0404237 -0.302357,0.0670308 -0.295364,0.0931279 -0.286123,0.118516 -0.274705,0.143002 -0.261196,0.1664 -0.2457,0.188532 -0.228333,0.209229 -0.209229,0.228333 -0.188532,0.2457 -0.1664,0.261196 -0.143002,0.274705 -0.118516,0.286123 -0.0931279,0.295364 -0.0670308,0.302357 -0.0404237,0.307048 -0.0135088,0.309403 z "/>
<path fill="rgb(187,30,16)" stroke="rgb(187,30,16)" d="M 1.45177,6.25089 l 0.0135088,0.309403 0.0404237,0.307048 0.0670308,0.302357 0.0931279,0.295364 0.118516,0.286123 0.143002,0.274705 0.1664,0.261196 0.188532,0.2457 0.209229,0.228333 0.228333,0.209229 0.2457,0.188532 0.261196,0.1664 0.274705,0.143002 0.286123,0.118516 0.295364,0.0931279 0.302357,0.0670308 0.307048,0.0404237 0.309403,0.0135088 0.309403,-0.0135088 0.307048,-0.0404237 0.302357,-0.0670308 0.295364,-0.0931279 0.286123,-0.118516 0.274705,-0.143002 0.261196,-0.1664 0.2457,-0.188532 0.228333,-0.209229 0.209229,-0.228333 0.188532,-0.2457 0.1664,-0.261196 0.143002,-0.274705 0.118516,-0.286123 0.0931279,-0.295364 0.0670308,-0.302357 0.0404237,-0.307048 0.0135088,-0.309403 0.2,0 -0.0142699,0.326834 -0.042701,0.324347 -0.0708072,0.319391 -0.0983745,0.312004 -0.125193,0.302243 -0.151059,0.290182 -0.175775,0.275912 -0.199154,0.259542 -0.221016,0.241197 -0.241197,0.221016 -0.259542,0.199154 -0.275912,0.175775 -0.290182,0.151059 -0.302243,0.125193 -0.312004,0.0983745 -0.319391,0.0708072 -0.324347,0.042701 -0.326834,0.0142699 -0.326834,-0.0142699 -0.324347,-0.042701 -0.319391,-0.0708072 -0.312004,-0.0983745 -0.302243,-0.125193 -0.290182,-0.151059 -0.275912,-0.175775 -0.259542,-0.199154 -0.241197,-0.221016 -0.221016,-0.241197 -0.199154,-0.259542 -0.175775,-0.275912 -0.151059,-0.290182 -0.125193,-0.302243 -0.0983745,-0.312004 -0.0708072,-0.319391 -0.042701,-0.324347 -0.0142699,-0.326834 0.2,0 z "/>
<path fill="rgb(187,30,16)" stroke="rgb(187,30,16)" d="M 8.35177,6.25089 l -0.7,0 -0.00934224,-0.222321 -0.0279609,-0.220753 -0.0463823,-0.217629 -0.0644768,-0.212971 -0.0821166,-0.206811 -0.0991774,-0.199193 -0.115539,-0.19017 -0.131086,-0.179806 -0.13058,-0.151993 -0.141691,-0.141691 -0.151993,-0.13058 -0.192176,-0.139282 -0.203868,-0.121529 -0.213924,-0.1028 -0.222263,-0.0832477 -0.22882,-0.0630272 -0.233542,-0.0423011 -0.23639,-0.0212357 -0.237342,4.44089e-16 -0.23639,0.0212357 -0.233542,0.0423011 -0.22882,0.0630272 -0.222263,0.0832477 -0.213924,0.1028 -0.203868,0.121529 -0.192176,0.139282 -0.151993,0.13058 -0.141691,0.141691 -0.13058,0.151993 -0.131086,0.179806 -0.115539,0.19017 -0.0991774,0.199193 -0.0821166,0.206811 -0.0644768,0.212971 -0.0463823,0.217629 -0.0279609,0.220753 -0.00934224,0.222321 -0.7,0 0.0127478,-0.291972 0.0381463,-0.28975 0.0632545,-0.285322 0.0878812,-0.278724 0.111839,-0.270004 0.134946,-0.259229 0.157026,-0.246481 0.17791,-0.231857 0.197441,-0.215469 0.215469,-0.197441 0.231857,-0.17791 0.246481,-0.157026 0.259229,-0.134946 0.270004,-0.111839 0.278724,-0.0878812 0.285322,-0.0632545 0.28975,-0.0381463 0.291972,-0.0127478 0.291972,0.0127478 0.28975,0.0381463 0.285322,0.0632545 0.278724,0.0878812 0.270004,0.111839 0.259229,0.134946 0.246481,0.157026 0.231857,0.17791 0.215469,0.197441 0.197441,0.215469 0.17791,0.231857 0.157026,0.246481 0.134946,0.259229 0.111839,0.270004 0.0878812,0.278724 0.0632545,0.285322 0.0381463,0.28975 0.0127478,0.291972 z "/>
<path fill="rgb(187,30,16)" stroke="rgb(187,30,16)" d="M 8.35177,6.25089 l -0.0127478,0.291972 -0.0381463,0.28975 -0.0632545,0.285322 -0.0878812,0.278724 -0.111839,0.270004 -0.134946,0.259229 -0.157026,0.246481 -0.17791,0.231857 -0.197441,0.215469 -0.215469,0.197441 -0.231857,0.17791 -0.246481,0.157026 -0.259229,0.134946 -0.270004,0.111839 -0.278724,0.0878812 -0.285322,0.0632545 -0.28975,0.0381463 -0.291972,0.0127478 -0.291972,-0.0127478 -0.28975,-0.0381463 -0.285322,-0.0632545 -0.278724,-0.0878812 -0.270004,-0.111839 -0.259229,-0.134946 -0.246481,-0.157026 -0.231857,-0.17791 -0.215469,-0.197441 -0.197441,-0.215469 -0.17791,-0.231857 -0.157026,-0.246481 -0.134946,-0.259229 -0.111839,-0.270004 -0.0878812,-0.278724 -0.0632545,-0.285322 -0.0381463,-0.28975 -0.0127478,-0.291972 0.7,0 0.00934224,0.222321 0.0279609,0.220753 0.0463823,0.217629 0.0644768,0.212971 0.0821166,0.206811 0.0991774,0.199193 0.115539,0.19017 0.131086,0.179806 0.13058,0.151993 0.141691,0.141691 0.151993,0.13058 0.192176,0.139282 0.203868,0.121529 0.213924,0.1028 0.222263,0.0832477 0.22882,0.0630272 0.233542,0.0423011 0.23639,0.0212357 0.237342,0 0.23639,-0.0212357 0.233542,-0.0423011 0.22882,-0.0630272 0.222263,-0.0832477 0.213924,-0.1028 0.203868,-0.121529 0.192176,-0.139282 0.151993,-0.13058 0.141691,-0.141691 0.13058,-0.151993 0.131086,-0.179806 0.115539,-0.19017 0.0991774,-0.199193 0.0821166,-0.206811 0.0644768,-0.212971 0.0463823,-0.217629 0.0279609,-0.220753 0.00934224,-0.222321 0.7,0 z "/>
<path fill="rgb(42,41,42)" stroke="rgb(42,41,42)" d="M 0.508116,6.25089 l 0,5.48553 0.000998892,0.0228784 0.00298907,0.0227043 0.00495651,0.0223574 0.00688622,0.0218403 0.00876352,0.021157 0.0105741,0.0203127 0.0123043,0.0193138 0.0139407,0.0181679 0.0154711,0.0168838 0.0168838,0.0154711 0.0181679,0.0139407 0.0193138,0.0123043 0.0203127,0.0105741 0.021157,0.00876352 0.0218403,0.00688622 0.0223574,0.00495651 0.0227043,0.00298907 0.0228784,0.000998892 8.47818,8.88178e-15 0.0228784,-0.000998892 0.0227043,-0.00298907 0.0223574,-0.00495651 0.0218403,-0.00688622 0.021157,-0.00876352 0.0203127,-0.0105741 0.0193138,-0.0123043 0.0181679,-0.0139407 0.0168838,-0.0154711 0.0154711,-0.0168838 0.0139407,-0.0181679 0.0123043,-0.0193138 0.0105741,-0.0203127 0.00876352,-0.021157 0.00688622,-0.0218403 0.00495651,-0.0223574 0.00298907,-0.0227043 0.000998892,-0.0228784 1.77636e-15,-5.48553 0.2625,-8.88178e-16 -1.77636e-15,5.48553 -0.00199778,0.0457568 -0.00597815,0.0454085 -0.00991301,0.0447147 -0.0137724,0.0436806 -0.017527,0.042314 -0.0211483,0.0406254 -0.0246085,0.0386276 -0.0278815,0.0363359 -0.0309423,0.0337676 -0.0337676,0.0309423 -0.0363359,0.0278815 -0.0386276,0.0246085 -0.0406254,0.0211483 -0.042314,0.017527 -0.0436806,0.0137724 -0.0447147,0.00991301 -0.0454085,0.00597815 -0.0457568,0.00199778 -8.47818,-1.06581e-14 -0.0457568,-0.00199778 -0.0454085,-0.00597815 -0.0447147,-0.00991301 -0.0436806,-0.0137724 -0.042314,-0.017527 -0.0406254,-0.0211483 -0.0386276,-0.0246085 -0.0363359,-0.0278815 -0.0337676,-0.0309423 -0.0309423,-0.0337676 -0.0278815,-0.0363359 -0.0246085,-0.0386276 -0.0211483,-0.0406254 -0.017527,-0.042314 -0.0137724,-0.0436806 -0.00991301,-0.0447147 -0.00597815,-0.0454085 -0.00199778,-0.0457568 0,-5.48553 0.2625,8.88178e-16 z "/>
<path fill="rgb(42,41,42)" stroke="rgb(42,41,42)" d="M 0.508116,6.25089 l -0.2625,-8.88178e-16 0,-5.49085 0.00199778,-0.0457568 0.00597815,-0.0454085 0.00991301,-0.0447147 0.0137724,-0.0436806 0.017527,-0.042314 0.0211483,-0.0406254 0.0246085,-0.0386276 0.0278815,-0.0363359 0.0309423,-0.0337676 0.0337676,-0.0309423 0.0363359,-0.0278815 0.0386276,-0.0246085 0.0406254,-0.0211483 0.042314,-0.017527 0.0436806,-0.0137724 0.0447147,-0.00991301 0.0454085,-0.00597815 0.0457568,-0.00199778 8.47818,7.99361e-15 0.0457568,0.00199778 0.0454085,0.00597815 0.0447147,0.00991301 0.0436806,0.0137724 0.042314,0.017527 0.0406254,0.0211483 0.0386276,0.0246085 0.0363359,0.0278815 0.0337676,0.0309423 0.0309423,0.0337676 0.0278815,0.0363359 0.0246085,0.0386276 0.0211483,0.0406254 0.017527,0.042314 0.0137724,0.0436806 0.00991301,0.0447147 0.00597815,0.0454085 0.00199778,0.0457568 0,5.49085 -0.2625,8.88178e-16 -1.77636e-15,-5.49085 -0.000998892,-0.0228784 -0.00298907,-0.0227043 -0.00495651,-0.0223574 -0.00688622,-0.0218403 -0.00876352,-0.021157 -0.0105741,-0.0203127 -0.0123043,-0.0193138 -0.0139407,-0.0181679 -0.0154711,-0.0168838 -0.0168838,-0.0154711 -0.0181679,-0.0139407 -0.0193138,-0.0123043 -0.0203127,-0.0105741 -0.021157,-0.00876352 -0.0218403,-0.00688622 -0.0223574,-0.00495651 -0.0227043,-0.00298907 -0.0228784,-0.000998892 -8.47818,-8.88178e-15 -0.0228784,0.000998892 -0.0227043,0.00298907 -0.0223574,0.00495651 -0.0218403,0.00688622 -0.021157,0.00876352 -0.0203127,0.0105741 -0.0193138,0.0123043 -0.0181679,0.0139407 -0.0168838,0.0154711 -0.0154711,0.0168838 -0.0139407,0.0181679 -0.0123043,0.0193138 -0.0105741,0.0203127 -0.00876352,0.021157 -0.00688622,0.0218403 -0.00495651,0.0223574 -0.00298907,0.0227043 -0.000998892,0.0228784 0,5.49085 z "/>
</g></g></svg>
