<?xml version="1.0" encoding="UTF-8" standalone="no"?>
<!DOCTYPE svg PUBLIC "-//W3C//DTD SVG 1.1//EN" "http://www.w3.org/Graphics/SVG/1.1/DTD/svg11-flat.dtd"
[

]>
<svg xmlns="http://www.w3.org/2000/svg"  viewBox="-0.09375 -0.09375 7.6875 7.6875"><g fill="none" stroke="black" stroke-width="0.0125" transform="translate(0,7.5) scale(1, -1)">
<g id="Output" >
<path fill="rgb(0,91,140)" stroke="rgb(0,91,140)" d="M 1.91074,0.925379 l -1.24051,1.78581 -0.00917895,0.014505 -0.00790137,0.0152386 -0.0065656,0.01586 -0.00518146,0.0163646 -0.00375915,0.0167486 -0.00230915,0.0170093 -0.000842141,0.0171446 0.00063107,0.0171537 0.00209963,0.0170364 0.00355273,0.0167936 0.00497966,0.0164271 0.0063699,0.0159396 0.00771322,0.0153347 0.00899973,0.0146169 0.0102199,0.0137913 0.0113649,0.0128642 0.0124261,0.0118423 0.0133958,0.0107332 0.0142668,0.009545 0.0150327,0.0082865 0.0156879,0.00696697 0.0162275,0.00559611 0.0166476,0.00418404 0.016945,0.00274114 0.0171177,0.00127805 0.0171642,-0.000194455 0.0170843,-0.00166553 0.0168786,-0.00312433 0.822134,-0.188998 4.44089e-16,0.918791 -1.30143,0 4.44089e-16,-3.05 0.00114159,-0.0261467 0.00341608,-0.0259477 0.00566458,-0.0255513 0.00786996,-0.0249603 0.0100155,-0.0241794 0.0120847,-0.0232145 0.014062,-0.0220729 0.0159323,-0.0207634 0.0176813,-0.0192958 0.0192958,-0.0176813 0.0207634,-0.0159323 0.0220729,-0.014062 0.0232145,-0.0120847 0.0241794,-0.0100155 0.0249603,-0.00786996 0.0255513,-0.00566458 0.0259477,-0.00341608 0.0261467,-0.00114159 6.1,0 0.0261467,0.00114159 0.0259477,0.00341608 0.0255513,0.00566458 0.0249603,0.00786996 0.0241794,0.0100155 0.0232145,0.0120847 0.0220729,0.014062 0.0207634,0.0159323 0.0192958,0.0176813 0.0176813,0.0192958 0.0159323,0.0207634 0.014062,0.0220729 0.0120847,0.0232145 0.0100155,0.0241794 0.00786996,0.0249603 0.00566458,0.0255513 0.00341608,0.0259477 0.00114159,0.0261467 -1.77636e-15,3.05 -1.30143,-4.44089e-16 -8.88178e-16,-2.91052 -0.747131,8.88178e-16 8.88178e-16,2.91052 -2.60287,0 -4.44089e-16,-0.918791 0.822134,0.188998 0.0168786,0.00312433 0.0170843,0.00166553 0.0171642,0.000194455 0.0171177,-0.00127805 0.016945,-0.00274114 0.0166476,-0.00418404 0.0162275,-0.00559611 0.0156879,-0.00696697 0.0150327,-0.0082865 0.0142668,-0.009545 0.0133958,-0.0107332 0.0124261,-0.0118423 0.0113649,-0.0128642 0.0102199,-0.0137913 0.00899973,-0.0146169 0.00771322,-0.0153347 0.0063699,-0.0159396 0.00497966,-0.0164271 0.00355273,-0.0167936 0.00209963,-0.0170364 0.00063107,-0.0171537 -0.000842141,-0.0171446 -0.00230915,-0.0170093 -0.00375915,-0.0167486 -0.00518146,-0.0163646 -0.0065656,-0.01586 -0.00790137,-0.0152386 -0.00917895,-0.014505 -1.24051,-1.78581 -0.0106132,-0.0139341 -0.0117917,-0.0129521 -0.0128797,-0.0118707 -0.0138689,-0.0106983 -0.0147518,-0.00944382 -0.0155215,-0.0081169 -0.0161721,-0.00672773 -0.0166987,-0.00528696 -0.0170973,-0.00380563 -0.0173647,-0.00229512 -0.0174989,-0.000767 -0.0174989,0.000767 -0.0173647,0.00229512 -0.0170973,0.00380563 -0.0166987,0.00528696 -0.0161721,0.00672773 -0.0155215,0.0081169 -0.0147518,0.00944382 -0.0138689,0.0106983 -0.0128797,0.0118707 -0.0117917,0.0129521 -0.0106132,0.0139341 z "/>
<path fill="rgb(0,91,140)" stroke="rgb(0,91,140)" d="M 0.4,3.75 l 1.30143,0 1.33227e-15,2.91052 0.747131,0 -1.33227e-15,-2.91052 2.60287,0 0,0.918791 -0.822134,-0.188998 -0.0168786,-0.00312433 -0.0170843,-0.00166553 -0.0171642,-0.000194455 -0.0171177,0.00127805 -0.016945,0.00274114 -0.0166476,0.00418404 -0.0162275,0.00559611 -0.0156879,0.00696697 -0.0150327,0.0082865 -0.0142668,0.009545 -0.0133958,0.0107332 -0.0124261,0.0118423 -0.0113649,0.0128642 -0.0102199,0.0137913 -0.00899973,0.0146169 -0.00771322,0.0153347 -0.0063699,0.0159396 -0.00497966,0.0164271 -0.00355273,0.0167936 -0.00209963,0.0170364 -0.00063107,0.0171537 0.000842141,0.0171446 0.00230915,0.0170093 0.00375915,0.0167486 0.00518146,0.0163646 0.0065656,0.01586 0.00790137,0.0152386 0.00917895,0.014505 1.24051,1.78581 0.0106132,0.0139341 0.0117917,0.0129521 0.0128797,0.0118707 0.0138689,0.0106983 0.0147518,0.00944382 0.0155215,0.0081169 0.0161721,0.00672773 0.0166987,0.00528696 0.0170973,0.00380563 0.0173647,0.00229512 0.0174989,0.000767 0.0174989,-0.000767 0.0173647,-0.00229512 0.0170973,-0.00380563 0.0166987,-0.00528696 0.0161721,-0.00672773 0.0155215,-0.0081169 0.0147518,-0.00944382 0.0138689,-0.0106983 0.0128797,-0.0118707 0.0117917,-0.0129521 0.0106132,-0.0139341 1.24051,-1.78581 0.00917895,-0.014505 0.00790137,-0.0152386 0.0065656,-0.01586 0.00518146,-0.0163646 0.00375915,-0.0167486 0.00230915,-0.0170093 0.000842141,-0.0171446 -0.00063107,-0.0171537 -0.00209963,-0.0170364 -0.00355273,-0.0167936 -0.00497966,-0.0164271 -0.0063699,-0.0159396 -0.00771322,-0.0153347 -0.00899973,-0.0146169 -0.0102199,-0.0137913 -0.0113649,-0.0128642 -0.0124261,-0.0118423 -0.0133958,-0.0107332 -0.0142668,-0.009545 -0.0150327,-0.0082865 -0.0156879,-0.00696697 -0.0162275,-0.00559611 -0.0166476,-0.00418404 -0.016945,-0.00274114 -0.0171177,-0.00127805 -0.0171642,0.000194455 -0.0170843,0.00166553 -0.0168786,0.00312433 -0.822134,0.188998 0,-0.918791 1.30143,4.44089e-16 8.88178e-16,3.05 -0.00114159,0.0261467 -0.00341608,0.0259477 -0.00566458,0.0255513 -0.00786996,0.0249603 -0.0100155,0.0241794 -0.0120847,0.0232145 -0.014062,0.0220729 -0.0159323,0.0207634 -0.0176813,0.0192958 -0.0192958,0.0176813 -0.0207634,0.0159323 -0.0220729,0.014062 -0.0232145,0.0120847 -0.0241794,0.0100155 -0.0249603,0.00786996 -0.0255513,0.00566458 -0.0259477,0.00341608 -0.0261467,0.00114159 -6.1,-8.88178e-16 -0.0261467,-0.00114159 -0.0259477,-0.00341608 -0.0255513,-0.00566458 -0.0249603,-0.00786996 -0.0241794,-0.0100155 -0.0232145,-0.0120847 -0.0220729,-0.014062 -0.0207634,-0.0159323 -0.0192958,-0.0176813 -0.0176813,-0.0192958 -0.0159323,-0.0207634 -0.014062,-0.0220729 -0.0120847,-0.0232145 -0.0100155,-0.0241794 -0.00786996,-0.0249603 -0.00566458,-0.0255513 -0.00341608,-0.0259477 -0.00114159,-0.0261467 4.44089e-16,-3.05 z "/>
<path fill="rgb(241,240,234)" stroke="rgb(241,240,234)" d="M 1.91074,0.925379 l 0.0106132,-0.0139341 0.0117917,-0.0129521 0.0128797,-0.0118707 0.0138689,-0.0106983 0.0147518,-0.00944382 0.0155215,-0.0081169 0.0161721,-0.00672773 0.0166987,-0.00528696 0.0170973,-0.00380563 0.0173647,-0.00229512 0.0174989,-0.000767 0.0174989,0.000767 0.0173647,0.00229512 0.0170973,0.00380563 0.0166987,0.00528696 0.0161721,0.00672773 0.0155215,0.0081169 0.0147518,0.00944382 0.0138689,0.0106983 0.0128797,0.0118707 0.0117917,0.0129521 0.0106132,0.0139341 1.24051,1.78581 0.00917895,0.014505 0.00790137,0.0152386 0.0065656,0.01586 0.00518146,0.0163646 0.00375915,0.0167486 0.00230915,0.0170093 0.000842141,0.0171446 -0.00063107,0.0171537 -0.00209963,0.0170364 -0.00355273,0.0167936 -0.00497966,0.0164271 -0.0063699,0.0159396 -0.00771322,0.0153347 -0.00899973,0.0146169 -0.0102199,0.0137913 -0.0113649,0.0128642 -0.0124261,0.0118423 -0.0133958,0.0107332 -0.0142668,0.009545 -0.0150327,0.0082865 -0.0156879,0.00696697 -0.0162275,0.00559611 -0.0166476,0.00418404 -0.016945,0.00274114 -0.0171177,0.00127805 -0.0171642,-0.000194455 -0.0170843,-0.00166553 -0.0168786,-0.00312433 -0.822134,-0.188998 4.44089e-16,0.918791 1.33227e-15,2.91052 -0.747131,0 -1.33227e-15,-2.91052 -4.44089e-16,-0.918791 -0.822134,0.188998 -0.0168786,0.00312433 -0.0170843,0.00166553 -0.0171642,0.000194455 -0.0171177,-0.00127805 -0.016945,-0.00274114 -0.0166476,-0.00418404 -0.0162275,-0.00559611 -0.0156879,-0.00696697 -0.0150327,-0.0082865 -0.0142668,-0.009545 -0.0133958,-0.0107332 -0.0124261,-0.0118423 -0.0113649,-0.0128642 -0.0102199,-0.0137913 -0.00899973,-0.0146169 -0.00771322,-0.0153347 -0.0063699,-0.0159396 -0.00497966,-0.0164271 -0.00355273,-0.0167936 -0.00209963,-0.0170364 -0.00063107,-0.0171537 0.000842141,-0.0171446 0.00230915,-0.0170093 0.00375915,-0.0167486 0.00518146,-0.0163646 0.0065656,-0.01586 0.00790137,-0.0152386 0.00917895,-0.014505 1.24051,-1.78581 z "/>
<path fill="rgb(241,240,234)" stroke="rgb(241,240,234)" d="M 5.58926,6.57462 l -0.0106132,0.0139341 -0.0117917,0.0129521 -0.0128797,0.0118707 -0.0138689,0.0106983 -0.0147518,0.00944382 -0.0155215,0.0081169 -0.0161721,0.00672773 -0.0166987,0.00528696 -0.0170973,0.00380563 -0.0173647,0.00229512 -0.0174989,0.000767 -0.0174989,-0.000767 -0.0173647,-0.00229512 -0.0170973,-0.00380563 -0.0166987,-0.00528696 -0.0161721,-0.00672773 -0.0155215,-0.0081169 -0.0147518,-0.00944382 -0.0138689,-0.0106983 -0.0128797,-0.0118707 -0.0117917,-0.0129521 -0.0106132,-0.0139341 -1.24051,-1.78581 -0.00917895,-0.014505 -0.00790137,-0.0152386 -0.0065656,-0.01586 -0.00518146,-0.0163646 -0.00375915,-0.0167486 -0.00230915,-0.0170093 -0.000842141,-0.0171446 0.00063107,-0.0171537 0.00209963,-0.0170364 0.00355273,-0.0167936 0.00497966,-0.0164271 0.0063699,-0.0159396 0.00771322,-0.0153347 0.00899973,-0.0146169 0.0102199,-0.0137913 0.0113649,-0.0128642 0.0124261,-0.0118423 0.0133958,-0.0107332 0.0142668,-0.009545 0.0150327,-0.0082865 0.0156879,-0.00696697 0.0162275,-0.00559611 0.0166476,-0.00418404 0.016945,-0.00274114 0.0171177,-0.00127805 0.0171642,0.000194455 0.0170843,0.00166553 0.0168786,0.00312433 0.822134,0.188998 0,-0.918791 -8.88178e-16,-2.91052 0.747131,-8.88178e-16 8.88178e-16,2.91052 0,0.918791 0.822134,-0.188998 0.0168786,-0.00312433 0.0170843,-0.00166553 0.0171642,-0.000194455 0.0171177,0.00127805 0.016945,0.00274114 0.0166476,0.00418404 0.0162275,0.00559611 0.0156879,0.00696697 0.0150327,0.0082865 0.0142668,0.009545 0.0133958,0.0107332 0.0124261,0.0118423 0.0113649,0.0128642 0.0102199,0.0137913 0.00899973,0.0146169 0.00771322,0.0153347 0.0063699,0.0159396 0.00497966,0.0164271 0.00355273,0.0167936 0.00209963,0.0170364 0.00063107,0.0171537 -0.000842141,0.0171446 -0.00230915,0.0170093 -0.00375915,0.0167486 -0.00518146,0.0163646 -0.0065656,0.01586 -0.00790137,0.0152386 -0.00917895,0.014505 -1.24051,1.78581 z "/>
<path fill="rgb(241,240,234)" stroke="rgb(241,240,234)" d="M 0.2,3.75 l 0,-3.05 0.00190265,-0.0435779 0.00569347,-0.0432462 0.00944096,-0.0425854 0.0131166,-0.0416005 0.0166924,-0.0402991 0.0201412,-0.0386909 0.0234367,-0.0367882 0.0265538,-0.0346056 0.0294688,-0.0321596 0.0321596,-0.0294688 0.0346056,-0.0265538 0.0367882,-0.0234367 0.0386909,-0.0201412 0.0402991,-0.0166924 0.0416005,-0.0131166 0.0425854,-0.00944096 0.0432462,-0.00569347 0.0435779,-0.00190265 6.1,0 0.0435779,0.00190265 0.0432462,0.00569347 0.0425854,0.00944096 0.0416005,0.0131166 0.0402991,0.0166924 0.0386909,0.0201412 0.0367882,0.0234367 0.0346056,0.0265538 0.0321596,0.0294688 0.0294688,0.0321596 0.0265538,0.0346056 0.0234367,0.0367882 0.0201412,0.0386909 0.0166924,0.0402991 0.0131166,0.0416005 0.00944096,0.0425854 0.00569347,0.0432462 0.00190265,0.0435779 0,3.05 -0.2,0 1.77636e-15,-3.05 -0.00114159,-0.0261467 -0.00341608,-0.0259477 -0.00566458,-0.0255513 -0.00786996,-0.0249603 -0.0100155,-0.0241794 -0.0120847,-0.0232145 -0.014062,-0.0220729 -0.0159323,-0.0207634 -0.0176813,-0.0192958 -0.0192958,-0.0176813 -0.0207634,-0.0159323 -0.0220729,-0.014062 -0.0232145,-0.0120847 -0.0241794,-0.0100155 -0.0249603,-0.00786996 -0.0255513,-0.00566458 -0.0259477,-0.00341608 -0.0261467,-0.00114159 -6.1,0 -0.0261467,0.00114159 -0.0259477,0.00341608 -0.0255513,0.00566458 -0.0249603,0.00786996 -0.0241794,0.0100155 -0.0232145,0.0120847 -0.0220729,0.014062 -0.0207634,0.0159323 -0.0192958,0.0176813 -0.0176813,0.0192958 -0.0159323,0.0207634 -0.014062,0.0220729 -0.0120847,0.0232145 -0.0100155,0.0241794 -0.00786996,0.0249603 -0.00566458,0.0255513 -0.00341608,0.0259477 -0.00114159,0.0261467 -4.44089e-16,3.05 -0.2,0 z "/>
<path fill="rgb(241,240,234)" stroke="rgb(241,240,234)" d="M 0.2,3.75 l 0.2,0 -4.44089e-16,3.05 0.00114159,0.0261467 0.00341608,0.0259477 0.00566458,0.0255513 0.00786996,0.0249603 0.0100155,0.0241794 0.0120847,0.0232145 0.014062,0.0220729 0.0159323,0.0207634 0.0176813,0.0192958 0.0192958,0.0176813 0.0207634,0.0159323 0.0220729,0.014062 0.0232145,0.0120847 0.0241794,0.0100155 0.0249603,0.00786996 0.0255513,0.00566458 0.0259477,0.00341608 0.0261467,0.00114159 6.1,8.88178e-16 0.0261467,-0.00114159 0.0259477,-0.00341608 0.0255513,-0.00566458 0.0249603,-0.00786996 0.0241794,-0.0100155 0.0232145,-0.0120847 0.0220729,-0.014062 0.0207634,-0.0159323 0.0192958,-0.0176813 0.0176813,-0.0192958 0.0159323,-0.0207634 0.014062,-0.0220729 0.0120847,-0.0232145 0.0100155,-0.0241794 0.00786996,-0.0249603 0.00566458,-0.0255513 0.00341608,-0.0259477 0.00114159,-0.0261467 -8.88178e-16,-3.05 0.2,0 -8.88178e-16,3.05 -0.00190265,0.0435779 -0.00569347,0.0432462 -0.00944096,0.0425854 -0.0131166,0.0416005 -0.0166924,0.0402991 -0.0201412,0.0386909 -0.0234367,0.0367882 -0.0265538,0.0346056 -0.0294688,0.0321596 -0.0321596,0.0294688 -0.0346056,0.0265538 -0.0367882,0.0234367 -0.0386909,0.0201412 -0.0402991,0.0166924 -0.0416005,0.0131166 -0.0425854,0.00944096 -0.0432462,0.00569347 -0.0435779,0.00190265 -6.1,-8.88178e-16 -0.0435779,-0.00190265 -0.0432462,-0.00569347 -0.0425854,-0.00944096 -0.0416005,-0.0131166 -0.0402991,-0.0166924 -0.0386909,-0.0201412 -0.0367882,-0.0234367 -0.0346056,-0.0265538 -0.0321596,-0.0294688 -0.0294688,-0.0321596 -0.0265538,-0.0346056 -0.0234367,-0.0367882 -0.0201412,-0.0386909 -0.0166924,-0.0402991 -0.0131166,-0.0416005 -0.00944096,-0.0425854 -0.00569347,-0.0432462 -0.00190265,-0.0435779 8.88178e-16,-3.05 z "/>
<path fill="rgb(0,91,140)" stroke="rgb(0,91,140)" d="M 0.2,3.75 l -0.2,0 4.44089e-16,-3.05 0.00266371,-0.061009 0.00797086,-0.0605447 0.0132173,-0.0596196 0.0183632,-0.0582408 0.0233694,-0.0564187 0.0281977,-0.0541672 0.0328114,-0.0515035 0.0371753,-0.0484478 0.0412564,-0.0450234 0.0450234,-0.0412564 0.0484478,-0.0371753 0.0515035,-0.0328114 0.0541672,-0.0281977 0.0564187,-0.0233694 0.0582408,-0.0183632 0.0596196,-0.0132173 0.0605447,-0.00797086 0.061009,-0.00266371 6.1,-8.88178e-16 0.061009,0.00266371 0.0605447,0.00797086 0.0596196,0.0132173 0.0582408,0.0183632 0.0564187,0.0233694 0.0541672,0.0281977 0.0515035,0.0328114 0.0484478,0.0371753 0.0450234,0.0412564 0.0412564,0.0450234 0.0371753,0.0484478 0.0328114,0.0515035 0.0281977,0.0541672 0.0233694,0.0564187 0.0183632,0.0582408 0.0132173,0.0596196 0.00797086,0.0605447 0.00266371,0.061009 -8.88178e-16,3.05 -0.2,0 0,-3.05 -0.00190265,-0.0435779 -0.00569347,-0.0432462 -0.00944096,-0.0425854 -0.0131166,-0.0416005 -0.0166924,-0.0402991 -0.0201412,-0.0386909 -0.0234367,-0.0367882 -0.0265538,-0.0346056 -0.0294688,-0.0321596 -0.0321596,-0.0294688 -0.0346056,-0.0265538 -0.0367882,-0.0234367 -0.0386909,-0.0201412 -0.0402991,-0.0166924 -0.0416005,-0.0131166 -0.0425854,-0.00944096 -0.0432462,-0.00569347 -0.0435779,-0.00190265 -6.1,0 -0.0435779,0.00190265 -0.0432462,0.00569347 -0.0425854,0.00944096 -0.0416005,0.0131166 -0.0402991,0.0166924 -0.0386909,0.0201412 -0.0367882,0.0234367 -0.0346056,0.0265538 -0.0321596,0.0294688 -0.0294688,0.0321596 -0.0265538,0.0346056 -0.0234367,0.0367882 -0.0201412,0.0386909 -0.0166924,0.0402991 -0.0131166,0.0416005 -0.00944096,0.0425854 -0.00569347,0.0432462 -0.00190265,0.0435779 0,3.05 z "/>
<path fill="rgb(0,91,140)" stroke="rgb(0,91,140)" d="M 0.2,3.75 l -8.88178e-16,3.05 0.00190265,0.0435779 0.00569347,0.0432462 0.00944096,0.0425854 0.0131166,0.0416005 0.0166924,0.0402991 0.0201412,0.0386909 0.0234367,0.0367882 0.0265538,0.0346056 0.0294688,0.0321596 0.0321596,0.0294688 0.0346056,0.0265538 0.0367882,0.0234367 0.0386909,0.0201412 0.0402991,0.0166924 0.0416005,0.0131166 0.0425854,0.00944096 0.0432462,0.00569347 0.0435779,0.00190265 6.1,8.88178e-16 0.0435779,-0.00190265 0.0432462,-0.00569347 0.0425854,-0.00944096 0.0416005,-0.0131166 0.0402991,-0.0166924 0.0386909,-0.0201412 0.0367882,-0.0234367 0.0346056,-0.0265538 0.0321596,-0.0294688 0.0294688,-0.0321596 0.0265538,-0.0346056 0.0234367,-0.0367882 0.0201412,-0.0386909 0.0166924,-0.0402991 0.0131166,-0.0416005 0.00944096,-0.0425854 0.00569347,-0.0432462 0.00190265,-0.0435779 8.88178e-16,-3.05 0.2,0 8.88178e-16,3.05 -0.00266371,0.061009 -0.00797086,0.0605447 -0.0132173,0.0596196 -0.0183632,0.0582408 -0.0233694,0.0564187 -0.0281977,0.0541672 -0.0328114,0.0515035 -0.0371753,0.0484478 -0.0412564,0.0450234 -0.0450234,0.0412564 -0.0484478,0.0371753 -0.0515035,0.0328114 -0.0541672,0.0281977 -0.0564187,0.0233694 -0.0582408,0.0183632 -0.0596196,0.0132173 -0.0605447,0.00797086 -0.061009,0.00266371 -6.1,-8.88178e-16 -0.061009,-0.00266371 -0.0605447,-0.00797086 -0.0596196,-0.0132173 -0.0582408,-0.0183632 -0.0564187,-0.0233694 -0.0541672,-0.0281977 -0.0515035,-0.0328114 -0.0484478,-0.0371753 -0.0450234,-0.0412564 -0.0412564,-0.0450234 -0.0371753,-0.0484478 -0.0328114,-0.0515035 -0.0281977,-0.0541672 -0.0233694,-0.0564187 -0.0183632,-0.0582408 -0.0132173,-0.0596196 -0.00797086,-0.0605447 -0.00266371,-0.061009 4.44089e-16,-3.05 0.2,0 z "/>
</g></g></svg>
