<?xml version="1.0" encoding="UTF-8" standalone="no"?>
<!DOCTYPE svg PUBLIC "-//W3C//DTD SVG 1.1//EN" "http://www.w3.org/Graphics/SVG/1.1/DTD/svg11-flat.dtd"
[

]>
<svg xmlns="http://www.w3.org/2000/svg"  viewBox="-0.0891147 -0.0891147 7.30741 7.30741"><g fill="none" stroke="black" stroke-width="0.0125" transform="translate(0,7.12918) scale(1, -1)">
<g id="Output" >
<path fill="rgb(241,240,234)" stroke="rgb(241,240,234)" d="M 2.09443,2.1 l 0.5,0 0,1 -0.5,-1 z "/>
<path fill="rgb(241,240,234)" stroke="rgb(241,240,234)" d="M 4.59443,1.1 l 0,1 -0.392858,0 0,-0.782072 -0.235346,0 0,0.782072 -0.371796,0 0,-1 1,0 z "/>
<path fill="rgb(241,240,234)" stroke="rgb(241,240,234)" d="M 2.59443,2.01809 l 0,0.0819079 -0.5,0 -0.5,-1 1,-4.44089e-16 0,0.795593 -0.0643666,0.0926609 -0.00114737,0.00181312 -0.000987672,0.00190483 -0.000820699,0.0019825 -0.000647682,0.00204558 -0.000469893,0.00209358 -0.000288644,0.00212616 -0.000105268,0.00214308 7.88837e-05,0.00214421 0.000262454,0.00212955 0.000444091,0.0020992 0.000622457,0.00205339 0.000796238,0.00199246 0.000964153,0.00191684 0.00112497,0.00182711 0.00127749,0.00172392 0.00142061,0.00160802 0.00155326,0.00148029 0.00167447,0.00134165 0.00178335,0.00119312 0.00187909,0.00103581 0.00196098,0.000870871 0.00202844,0.000699514 0.00208095,0.000523005 0.00211813,0.000342642 0.00213971,0.000159756 0.00214553,-2.43069e-05 0.00213554,-0.000208191 0.00210982,-0.000390541 0.0382332,-0.00878931 z "/>
<path fill="rgb(241,240,234)" stroke="rgb(241,240,234)" d="M 3.09443,4.1 l 0.5,0 0,0.88065 -0.0298374,0.0596748 -0.470163,-0.940325 z "/>
<path fill="rgb(241,240,234)" stroke="rgb(241,240,234)" d="M 2.59443,3.1 l 0.316546,0 4.44089e-16,0.0515551 0.235346,0 0,-0.0515551 0.448108,0 0,1 -0.5,0 -0.5,-1 z "/>
<path fill="rgb(241,240,234)" stroke="rgb(241,240,234)" d="M 4.59443,2.1 l 0.440325,0 -0.440325,0.88065 0,-0.88065 z "/>
<path fill="rgb(241,240,234)" stroke="rgb(241,240,234)" d="M 4.59443,2.1 l 0,-1 0.940325,4.44089e-16 -0.5,1 -0.440325,0 z "/>
<path fill="rgb(241,240,234)" stroke="rgb(241,240,234)" d="M 3.59443,4.1 l 0.440325,0 -0.440325,0.88065 0,-0.88065 z "/>
<path fill="rgb(241,240,234)" stroke="rgb(241,240,234)" d="M 3.59443,2.44474 l -0.0015814,0.000871717 -0.00178335,0.00119312 -0.00167447,0.00134165 -0.00155326,0.00148029 -0.00142061,0.00160802 -0.00127749,0.00172392 -0.00112497,0.00182711 -0.000964153,0.00191684 -0.000796238,0.00199246 -0.000622457,0.00205339 -0.000444091,0.0020992 -0.000262454,0.00212955 -7.88837e-05,0.00214421 0.000105268,0.00214308 0.000288644,0.00212616 0.000469893,0.00209358 0.000647682,0.00204558 0.000820699,0.0019825 0.000987672,0.00190483 0.00114737,0.00181312 0.00911659,0.0131241 0,0.605647 -0.448108,0 0,-1 0.448108,0 0,0.344738 z M 2.91097,2.1 l 8.88178e-16,1 -0.316546,0 0,-1 0.316546,0 z "/>
<path fill="rgb(241,240,234)" stroke="rgb(241,240,234)" d="M 3.59443,1.1 l 0,1 -0.448108,0 0,-0.154678 0.354779,0.0815591 0.00210982,0.000390541 0.00213554,0.000208191 0.00214553,2.43069e-05 0.00213971,-0.000159756 0.00211813,-0.000342642 0.00208095,-0.000523005 0.00202844,-0.000699514 0.00196098,-0.000870871 0.00187909,-0.00103581 0.00178335,-0.00119312 0.00167447,-0.00134165 0.00155326,-0.00148029 0.00142061,-0.00160802 0.00127749,-0.00172392 0.00112497,-0.00182711 0.000964153,-0.00191684 0.000796238,-0.00199246 0.000622457,-0.00205339 0.000444091,-0.0020992 0.000262454,-0.00212955 7.88837e-05,-0.00214421 -0.000105268,-0.00214308 -0.000288644,-0.00212616 -0.000469893,-0.00209358 -0.000647682,-0.00204558 -0.000820699,-0.0019825 -0.000987672,-0.00190483 -0.00114737,-0.00181312 -0.478054,-0.688197 -0.00132665,-0.00174177 -0.00147396,-0.00161901 -0.00160996,-0.00148384 -0.00173361,-0.00133729 -0.00184397,-0.00118048 -0.00194018,-0.00101461 -0.00202152,-0.000840966 -0.00208734,-0.000660869 -0.00213716,-0.000475704 -0.00217059,-0.00028689 -0.00218736,-9.5875e-05 -0.00218736,9.5875e-05 -0.00217059,0.00028689 -0.00213716,0.000475704 -0.00208734,0.000660869 -0.00202152,0.000840966 -0.00194018,0.00101461 -0.00184397,0.00118048 -0.00173361,0.00133729 -0.00160996,0.00148384 -0.00147396,0.00161901 -0.00132665,0.00174177 -0.413687,0.595536 0,-0.795593 0.970163,0 0.0298374,0 z M 2.91097,2.1 l -0.316546,0 0,-0.0819079 0.316546,-0.0727698 4.44089e-16,0.154678 z "/>
<path fill="rgb(241,240,234)" stroke="rgb(241,240,234)" d="M 4.01514,3.1 l 0.0482259,0.0694251 0.00132665,0.00174177 0.00147396,0.00161901 0.00160996,0.00148384 0.00173361,0.00133729 0.00184397,0.00118048 0.00194018,0.00101461 0.00202152,0.000840966 0.00208734,0.000660869 0.00213716,0.000475704 0.00217059,0.00028689 0.00218736,9.5875e-05 0.00218736,-9.5875e-05 0.00217059,-0.00028689 0.00213716,-0.000475704 0.00208734,-0.000660869 0.00202152,-0.000840966 0.00194018,-0.00101461 0.00184397,-0.00118048 0.00173361,-0.00133729 0.00160996,-0.00148384 0.00147396,-0.00161901 0.00132665,-0.00174177 0.0482259,-0.0694251 0.382098,0 -0.5,1 -0.440325,0 0,-1 0.420711,0 z "/>
<path fill="rgb(241,240,234)" stroke="rgb(241,240,234)" d="M 3.96622,2.1 l 0,0.42416 -0.354779,-0.0815591 -0.00210982,-0.000390541 -0.00213554,-0.000208191 -0.00214553,-2.43069e-05 -0.00213971,0.000159756 -0.00211813,0.000342642 -0.00208095,0.000523005 -0.00202844,0.000699514 -0.00196098,0.000870871 -0.00029769,0.000164096 0,-0.344738 0.371796,0 z M 3.59443,3.1 l 0,-0.605647 0.420711,0.605647 -0.420711,0 z M 4.53475,3.1 l -0.382098,0 0.429828,-0.618772 0.00114737,-0.00181312 0.000987672,-0.00190483 0.000820699,-0.0019825 0.000647682,-0.00204558 0.000469893,-0.00209358 0.000288644,-0.00212616 0.000105268,-0.00214308 -7.88837e-05,-0.00214421 -0.000262454,-0.00212955 -0.000444091,-0.0020992 -0.000622457,-0.00205339 -0.000796238,-0.00199246 -0.000964153,-0.00191684 -0.00112497,-0.00182711 -0.00127749,-0.00172392 -0.00142061,-0.00160802 -0.00155326,-0.00148029 -0.00167447,-0.00134165 -0.00178335,-0.00119312 -0.00187909,-0.00103581 -0.00196098,-0.000870871 -0.00202844,-0.000699514 -0.00208095,-0.000523005 -0.00211813,-0.000342642 -0.00213971,-0.000159756 -0.00214553,2.43069e-05 -0.00213554,0.000208191 -0.00210982,0.000390541 -0.354779,0.0815591 0,-0.42416 0.392858,0 0,0.88065 -0.0596748,0.11935 z "/>
<path fill="rgb(241,240,234)" stroke="rgb(241,240,234)" d="M 3.56459,0.2 l 3.26459,0 0.00883388,0.000390951 0.00876481,0.0011698 0.0086272,0.0019395 0.00842214,0.00269403 0.00815123,0.0034275 0.00781658,0.00413417 0.00742081,0.00480851 0.00696702,0.00544526 0.00645876,0.00603943 0.00589999,0.00658638 0.00529509,0.00708183 0.00464879,0.0075219 0.00396614,0.00790316 0.00325248,0.00822263 0.00251339,0.0084778 0.00175464,0.00866669 0.000982177,0.00878781 0.000202033,0.00884022 -0.000579691,0.0088235 -0.00135688,0.0087378 -0.00212346,0.00858377 -0.00287344,0.00836263 -0.00360095,0.0080761 -3.26459,6.52918 -0.00412828,0.00744612 -0.0047467,0.00706797 -0.00533072,0.00663859 -0.00587609,0.00616109 -0.00637887,0.00563892 -0.00683541,0.00507588 -0.0072424,0.00447605 -0.0075969,0.00384377 -0.00789632,0.00318363 -0.00813851,0.00250041 -0.00832171,0.00179907 -0.00844458,0.00108468 -0.00850624,0.000362437 0,-0.323607 3.10279,-6.20557 -3.10279,2.66454e-15 0,-0.2 z "/>
<path fill="rgb(241,240,234)" stroke="rgb(241,240,234)" d="M 3.56459,0.2 l 0,0.2 -3.10279,0 3.10279,6.20557 0,0.323607 -0.00850624,-0.000362437 -0.00844458,-0.00108468 -0.00832171,-0.00179907 -0.00813851,-0.00250041 -0.00789632,-0.00318363 -0.0075969,-0.00384377 -0.0072424,-0.00447605 -0.00683541,-0.00507588 -0.00637887,-0.00563892 -0.00587609,-0.00616109 -0.00533072,-0.00663859 -0.0047467,-0.00706797 -0.00412828,-0.00744612 -3.26459,-6.52918 -0.00360095,-0.0080761 -0.00287344,-0.00836263 -0.00212346,-0.00858377 -0.00135688,-0.0087378 -0.000579691,-0.0088235 0.000202033,-0.00884022 0.000982177,-0.00878781 0.00175464,-0.00866669 0.00251339,-0.0084778 0.00325248,-0.00822263 0.00396614,-0.00790316 0.00464879,-0.0075219 0.00529509,-0.00708183 0.00589999,-0.00658638 0.00645876,-0.00603943 0.00696702,-0.00544526 0.00742081,-0.00480851 0.00781658,-0.00413417 0.00815123,-0.0034275 0.00842214,-0.00269403 0.0086272,-0.0019395 0.00876481,-0.0011698 0.00883388,-0.000390951 3.26459,-8.88178e-16 z "/>
<path fill="rgb(42,41,42)" stroke="rgb(42,41,42)" d="M 3.58531,2.48123 l -0.00114737,-0.00181312 -0.000987672,-0.00190483 -0.000820699,-0.0019825 -0.000647682,-0.00204558 -0.000469893,-0.00209358 -0.000288644,-0.00212616 -0.000105268,-0.00214308 7.88837e-05,-0.00214421 0.000262454,-0.00212955 0.000444091,-0.0020992 0.000622457,-0.00205339 0.000796238,-0.00199246 0.000964153,-0.00191684 0.00112497,-0.00182711 0.00127749,-0.00172392 0.00142061,-0.00160802 0.00155326,-0.00148029 0.00167447,-0.00134165 0.00178335,-0.00119312 0.00187909,-0.00103581 0.00196098,-0.000870871 0.00202844,-0.000699514 0.00208095,-0.000523005 0.00211813,-0.000342642 0.00213971,-0.000159756 0.00214553,2.43069e-05 0.00213554,0.000208191 0.00210982,0.000390541 0.354779,0.0815591 0,-1.20623 0.235346,0 0,1.20623 0.354779,-0.0815591 0.00210982,-0.000390541 0.00213554,-0.000208191 0.00214553,-2.43069e-05 0.00213971,0.000159756 0.00211813,0.000342642 0.00208095,0.000523005 0.00202844,0.000699514 0.00196098,0.000870871 0.00187909,0.00103581 0.00178335,0.00119312 0.00167447,0.00134165 0.00155326,0.00148029 0.00142061,0.00160802 0.00127749,0.00172392 0.00112497,0.00182711 0.000964153,0.00191684 0.000796238,0.00199246 0.000622457,0.00205339 0.000444091,0.0020992 0.000262454,0.00212955 7.88837e-05,0.00214421 -0.000105268,0.00214308 -0.000288644,0.00212616 -0.000469893,0.00209358 -0.000647682,0.00204558 -0.000820699,0.0019825 -0.000987672,0.00190483 -0.00114737,0.00181312 -0.478054,0.688197 -0.00132665,0.00174177 -0.00147396,0.00161901 -0.00160996,0.00148384 -0.00173361,0.00133729 -0.00184397,0.00118048 -0.00194018,0.00101461 -0.00202152,0.000840966 -0.00208734,0.000660869 -0.00213716,0.000475704 -0.00217059,0.00028689 -0.00218736,9.5875e-05 -0.00218736,-9.5875e-05 -0.00217059,-0.00028689 -0.00213716,-0.000475704 -0.00208734,-0.000660869 -0.00202152,-0.000840966 -0.00194018,-0.00101461 -0.00184397,-0.00118048 -0.00173361,-0.00133729 -0.00160996,-0.00148384 -0.00147396,-0.00161901 -0.00132665,-0.00174177 -0.478054,-0.688197 z "/>
<path fill="rgb(42,41,42)" stroke="rgb(42,41,42)" d="M 3.5011,2.02688 l -0.354779,-0.0815591 0,1.20623 -0.235346,0 -1.77636e-15,-1.20623 -0.354779,0.0815591 -0.00210982,0.000390541 -0.00213554,0.000208191 -0.00214553,2.43069e-05 -0.00213971,-0.000159756 -0.00211813,-0.000342642 -0.00208095,-0.000523005 -0.00202844,-0.000699514 -0.00196098,-0.000870871 -0.00187909,-0.00103581 -0.00178335,-0.00119312 -0.00167447,-0.00134165 -0.00155326,-0.00148029 -0.00142061,-0.00160802 -0.00127749,-0.00172392 -0.00112497,-0.00182711 -0.000964153,-0.00191684 -0.000796238,-0.00199246 -0.000622457,-0.00205339 -0.000444091,-0.0020992 -0.000262454,-0.00212955 -7.88837e-05,-0.00214421 0.000105268,-0.00214308 0.000288644,-0.00212616 0.000469893,-0.00209358 0.000647682,-0.00204558 0.000820699,-0.0019825 0.000987672,-0.00190483 0.00114737,-0.00181312 0.478054,-0.688197 0.00132665,-0.00174177 0.00147396,-0.00161901 0.00160996,-0.00148384 0.00173361,-0.00133729 0.00184397,-0.00118048 0.00194018,-0.00101461 0.00202152,-0.000840966 0.00208734,-0.000660869 0.00213716,-0.000475704 0.00217059,-0.00028689 0.00218736,-9.5875e-05 0.00218736,9.5875e-05 0.00217059,0.00028689 0.00213716,0.000475704 0.00208734,0.000660869 0.00202152,0.000840966 0.00194018,0.00101461 0.00184397,0.00118048 0.00173361,0.00133729 0.00160996,0.00148384 0.00147396,0.00161901 0.00132665,0.00174177 0.478054,0.688197 0.00114737,0.00181312 0.000987672,0.00190483 0.000820699,0.0019825 0.000647682,0.00204558 0.000469893,0.00209358 0.000288644,0.00212616 0.000105268,0.00214308 -7.88837e-05,0.00214421 -0.000262454,0.00212955 -0.000444091,0.0020992 -0.000622457,0.00205339 -0.000796238,0.00199246 -0.000964153,0.00191684 -0.00112497,0.00182711 -0.00127749,0.00172392 -0.00142061,0.00160802 -0.00155326,0.00148029 -0.00167447,0.00134165 -0.00178335,0.00119312 -0.00187909,0.00103581 -0.00196098,0.000870871 -0.00202844,0.000699514 -0.00208095,0.000523005 -0.00211813,0.000342642 -0.00213971,0.000159756 -0.00214553,-2.43069e-05 -0.00213554,-0.000208191 -0.00210982,-0.000390541 z "/>
<path fill="rgb(187,30,16)" stroke="rgb(187,30,16)" d="M 3.56459,5.04033 l 1.97016,-3.94033 -1.97016,-4.44089e-16 0,-0.7 3.10279,-2.66454e-15 -3.10279,6.20557 0,-1.56525 z "/>
<path fill="rgb(187,30,16)" stroke="rgb(187,30,16)" d="M 3.56459,0.2 l 0,-0.2 3.26459,-1.77636e-15 0.0265016,0.00117285 0.0262944,0.00350939 0.0258816,0.00581849 0.0252664,0.00808209 0.0244537,0.0102825 0.0234497,0.0124025 0.0222624,0.0144255 0.0209011,0.0163358 0.0193763,0.0181183 0.0177,0.0197591 0.0158853,0.0212455 0.0139464,0.0225657 0.0118984,0.0237095 0.00975744,0.0246679 0.00754016,0.0254334 0.00526392,0.0260001 0.00294653,0.0263634 0.000606098,0.0265207 -0.00173907,0.0264705 -0.00407065,0.0262134 -0.00637039,0.0257513 -0.00862033,0.0250879 -0.0108029,0.0242283 -3.26459,6.52918 -0.0123848,0.0223384 -0.0142401,0.0212039 -0.0159921,0.0199158 -0.0176283,0.0184833 -0.0191366,0.0169168 -0.0205062,0.0152277 -0.0217272,0.0134282 -0.0227907,0.0115313 -0.023689,0.00955089 -0.0244155,0.00750124 -0.0249651,0.00539721 -0.0253337,0.00325405 -0.0255187,0.00108731 0,-0.2 0.00850624,-0.000362437 0.00844458,-0.00108468 0.00832171,-0.00179907 0.00813851,-0.00250041 0.00789632,-0.00318363 0.0075969,-0.00384377 0.0072424,-0.00447605 0.00683541,-0.00507588 0.00637887,-0.00563892 0.00587609,-0.00616109 0.00533072,-0.00663859 0.0047467,-0.00706797 0.00412828,-0.00744612 3.26459,-6.52918 0.00360095,-0.0080761 0.00287344,-0.00836263 0.00212346,-0.00858377 0.00135688,-0.0087378 0.000579691,-0.0088235 -0.000202033,-0.00884022 -0.000982177,-0.00878781 -0.00175464,-0.00866669 -0.00251339,-0.0084778 -0.00325248,-0.00822263 -0.00396614,-0.00790316 -0.00464879,-0.0075219 -0.00529509,-0.00708183 -0.00589999,-0.00658638 -0.00645876,-0.00603943 -0.00696702,-0.00544526 -0.00742081,-0.00480851 -0.00781658,-0.00413417 -0.00815123,-0.0034275 -0.00842214,-0.00269403 -0.0086272,-0.0019395 -0.00876481,-0.0011698 -0.00883388,-0.000390951 -3.26459,0 z "/>
<path fill="rgb(187,30,16)" stroke="rgb(187,30,16)" d="M 3.56459,0.2 l -3.26459,8.88178e-16 -0.00883388,0.000390951 -0.00876481,0.0011698 -0.0086272,0.0019395 -0.00842214,0.00269403 -0.00815123,0.0034275 -0.00781658,0.00413417 -0.00742081,0.00480851 -0.00696702,0.00544526 -0.00645876,0.00603943 -0.00589999,0.00658638 -0.00529509,0.00708183 -0.00464879,0.0075219 -0.00396614,0.00790316 -0.00325248,0.00822263 -0.00251339,0.0084778 -0.00175464,0.00866669 -0.000982177,0.00878781 -0.000202033,0.00884022 0.000579691,0.0088235 0.00135688,0.0087378 0.00212346,0.00858377 0.00287344,0.00836263 0.00360095,0.0080761 3.26459,6.52918 0.00412828,0.00744612 0.0047467,0.00706797 0.00533072,0.00663859 0.00587609,0.00616109 0.00637887,0.00563892 0.00683541,0.00507588 0.0072424,0.00447605 0.0075969,0.00384377 0.00789632,0.00318363 0.00813851,0.00250041 0.00832171,0.00179907 0.00844458,0.00108468 0.00850624,0.000362437 0,0.2 -0.0255187,-0.00108731 -0.0253337,-0.00325405 -0.0249651,-0.00539721 -0.0244155,-0.00750124 -0.023689,-0.00955089 -0.0227907,-0.0115313 -0.0217272,-0.0134282 -0.0205062,-0.0152277 -0.0191366,-0.0169168 -0.0176283,-0.0184833 -0.0159921,-0.0199158 -0.0142401,-0.0212039 -0.0123848,-0.0223384 -3.26459,-6.52918 -0.0108029,-0.0242283 -0.00862033,-0.0250879 -0.00637039,-0.0257513 -0.00407065,-0.0262134 -0.00173907,-0.0264705 0.000606098,-0.0265207 0.00294653,-0.0263634 0.00526392,-0.0260001 0.00754016,-0.0254334 0.00975744,-0.0246679 0.0118984,-0.0237095 0.0139464,-0.0225657 0.0158853,-0.0212455 0.0177,-0.0197591 0.0193763,-0.0181183 0.0209011,-0.0163358 0.0222624,-0.0144255 0.0234497,-0.0124025 0.0244537,-0.0102825 0.0252664,-0.00808209 0.0258816,-0.00581849 0.0262944,-0.00350939 0.0265016,-0.00117285 3.26459,0 0,0.2 z "/>
<path fill="rgb(187,30,16)" stroke="rgb(187,30,16)" d="M 3.56459,5.04033 l 0,1.56525 -3.10279,-6.20557 3.10279,0 0,0.7 -1.97016,4.44089e-16 1.97016,3.94033 z "/>
</g></g></svg>
