<?xml version="1.0" encoding="UTF-8" standalone="no"?>
<!DOCTYPE svg PUBLIC "-//W3C//DTD SVG 1.1//EN" "http://www.w3.org/Graphics/SVG/1.1/DTD/svg11-flat.dtd"
[

]>
<svg xmlns="http://www.w3.org/2000/svg"  viewBox="-0.125044 -0.125044 10.2536 14.7519"><g fill="none" stroke="black" stroke-width="0.0125" transform="translate(0,14.5018) scale(1, -1)">
<g id="Output" >
<path fill="rgb(241,240,234)" stroke="rgb(241,240,234)" d="M 6.66302,1.58619 l 0.421246,-0.142755 -0.111866,0.260152 -0.00168054,0.00349177 -0.00197069,0.00333662 -0.00224664,0.00315742 -0.00250638,0.00295545 -0.00274806,0.00273218 -0.00296993,0.00248921 -0.00317039,0.0022283 -0.00334799,0.00195132 -0.00350145,0.00166028 -0.00362967,0.00135726 -0.202036,0.0741255 -0.0795722,-0.216882 z "/>
<path fill="rgb(241,240,234)" stroke="rgb(241,240,234)" d="M 6.37715,1.93715 l -0.003935,0.00124598 -0.00403104,0.000887342 -0.00409447,0.000521523 -0.00412477,0.000151485 -0.0041217,-0.000219778 -0.00408527,-0.000589264 -0.00401579,-0.000953982 -0.00391382,-0.00131098 -0.00378018,-0.00165737 -0.301461,-0.13716 0.575351,-0.195921 0.0801178,0.218369 -0.317906,0.116637 z "/>
<path fill="rgb(241,240,234)" stroke="rgb(241,240,234)" d="M 5.0325,2.17413 l 0,0.101339 -1.08804,-0.614469 0.535972,0 0.552068,0.51313 z "/>
<path fill="rgb(241,240,234)" stroke="rgb(241,240,234)" d="M 3.19183,2.01099 l -0.343761,0 -0.0936064,-0.279037 0.437368,0 0,0.279037 z "/>
<path fill="rgb(241,240,234)" stroke="rgb(241,240,234)" d="M 8.50812,6.49754 l 1,0 0,1 -1,0 0,-1 z "/>
<path fill="rgb(241,240,234)" stroke="rgb(241,240,234)" d="M 8.50812,5.49754 l 1,0 0,1 -1,0 0,-1 z "/>
<path fill="rgb(241,240,234)" stroke="rgb(241,240,234)" d="M 8.50812,4.49754 l 1,0 0,1 -1,0 0,-1 z "/>
<path fill="rgb(241,240,234)" stroke="rgb(241,240,234)" d="M 8.50812,3.49754 l 1,0 0,1 -1,0 0,-1 z "/>
<path fill="rgb(241,240,234)" stroke="rgb(241,240,234)" d="M 8.50812,2.49754 l 1,0 0,1 -1,0 0,-1 z "/>
<path fill="rgb(241,240,234)" stroke="rgb(241,240,234)" d="M 8.50812,1.49754 l 1,0 0,1 -1,0 0,-1 z "/>
<path fill="rgb(241,240,234)" stroke="rgb(241,240,234)" d="M 8.35177,7.49754 l 0.156347,0 0,0.753348 -0.156347,0 0,-0.753348 z "/>
<path fill="rgb(241,240,234)" stroke="rgb(241,240,234)" d="M 8.35177,6.49754 l 0.156347,0 0,1 -0.156347,0 0,-1 z "/>
<path fill="rgb(241,240,234)" stroke="rgb(241,240,234)" d="M 8.35177,5.49754 l 0.156347,0 0,1 -0.156347,0 0,-1 z "/>
<path fill="rgb(241,240,234)" stroke="rgb(241,240,234)" d="M 7.50812,4.90089 l 0,-0.403348 1,0 0,1 -0.156347,0 0,-0.296652 -0.00114159,-0.0261467 -0.00341608,-0.0259477 -0.00566458,-0.0255513 -0.00786996,-0.0249603 -0.0100155,-0.0241794 -0.0120847,-0.0232145 -0.014062,-0.0220729 -0.0159323,-0.0207634 -0.0176813,-0.0192958 -0.0192958,-0.0176813 -0.0207634,-0.0159323 -0.0220729,-0.014062 -0.0232145,-0.0120847 -0.0241794,-0.0100155 -0.0249603,-0.00786996 -0.0255513,-0.00566458 -0.0259477,-0.00341608 -0.0261467,-0.00114159 -0.543653,0 z "/>
<path fill="rgb(241,240,234)" stroke="rgb(241,240,234)" d="M 7.50812,2.49754 l 1,0 0,1 -1,0 0,-1 z "/>
<path fill="rgb(241,240,234)" stroke="rgb(241,240,234)" d="M 7.50812,1.49754 l 1,0 0,1 -1,0 0,-1 z "/>
<path fill="rgb(241,240,234)" stroke="rgb(241,240,234)" d="M 7.50812,0.497542 l 1,0 0,1 -1,0 0,-1 z "/>
<path fill="rgb(241,240,234)" stroke="rgb(241,240,234)" d="M 6.50812,4.90089 l 0,-0.403348 1,0 0,0.403348 -1,0 z "/>
<path fill="rgb(241,240,234)" stroke="rgb(241,240,234)" d="M 6.50812,3.49754 l 1,0 0,1 -1,0 0,-1 z "/>
<path fill="rgb(241,240,234)" stroke="rgb(241,240,234)" d="M 6.50812,2.49754 l 1,0 0,1 -1,0 0,-1 z "/>
<path fill="rgb(241,240,234)" stroke="rgb(241,240,234)" d="M 6.50812,1.94304 l 0.473258,-0.173635 0.00409047,-0.0017111 0.00392199,-0.00206829 0.00372239,-0.00240907 0.00349326,-0.00273074 0.00323642,-0.00303074 0.0029539,-0.0033067 0.00264794,-0.00355643 0.00232098,-0.00377794 0.00197561,-0.00396948 0.106115,-0.2453 0.392264,0 0,1 -1,0 0,-0.554505 z "/>
<path fill="rgb(241,240,234)" stroke="rgb(241,240,234)" d="M 6.77212,1.15007 l 0.0058061,0.0139172 0.0069959,0.0133588 0.00813255,0.0126989 0.00920742,0.0119425 0.0102123,0.0110954 0.0111397,0.010164 0.0119824,0.00915539 0.0127341,0.00807724 0.0133891,0.00693773 0.0139423,0.00574552 0.0143897,0.00450966 0.0147277,0.00323954 0.0149538,0.00194482 0.0150664,0.00063532 0.0150645,-0.000679005 0.0149481,-0.00198817 0.0147182,-0.00328224 0.0143765,-0.00455137 0.0139256,-0.00578592 0.0133689,-0.00697652 0.0127106,-0.00811413 0.0119558,-0.00919009 0.0111102,-0.0101962 0.0101801,-0.0111249 0.00917275,-0.0119691 0.00809569,-0.0127224 0.00695713,-0.013379 0.00576572,-0.013934 0.00453052,-0.0143831 0.00326089,-0.014723 0.0019665,-0.014951 0.000657163,-0.0150654 -0.00066813,-0.0151904 -0.00199923,-0.0150731 -0.00331489,-0.0148393 -0.00460494,-0.014491 -0.0058061,-0.0139172 -0.0069959,-0.0133588 -0.00813255,-0.0126989 -0.00920742,-0.0119425 -0.0102123,-0.0110954 -0.0111397,-0.010164 -0.0119824,-0.00915539 -0.0127341,-0.00807724 -0.0133891,-0.00693773 -0.0139423,-0.00574552 -0.0143897,-0.00450966 -0.0147277,-0.00323954 -0.0149538,-0.00194482 -0.0150664,-0.00063532 -0.0150645,0.000679005 -0.0149481,0.00198817 -0.0147182,0.00328224 -0.0143765,0.00455137 -0.0139256,0.00578592 -0.0133689,0.00697652 -0.0127106,0.00811413 -0.0119558,0.00919009 -0.0111102,0.0101962 -0.0101801,0.0111249 -0.00917275,0.0119691 -0.00809569,0.0127224 -0.00695713,0.013379 -0.00576572,0.013934 -0.00453052,0.0143831 -0.00326089,0.014723 -0.0019665,0.014951 -0.000657163,0.0150654 0.00066813,0.0151904 0.00199923,0.0150731 0.00331489,0.0148393 0.00460494,0.014491 z M 7.50812,0.497542 l 0,1 -0.392264,0 0.0337793,-0.0780857 0.26996,-0.146245 -0.0959258,-0.261455 -0.174459,0.0252443 0.00378667,0.0188444 0.00214398,0.0191011 0.000485246,0.0192149 -0.00117712,0.019185 -0.00283068,0.0190115 -0.00446306,0.0186957 -0.00606204,0.0182401 -0.00761567,0.017648 -0.00911231,0.0169238 -0.0105408,0.016073 -0.0118904,0.015102 -0.013151,0.0140179 -0.0143132,0.0128289 -0.0153683,0.011544 -0.0163085,0.0101727 -0.0171266,0.00872526 -0.0178165,0.00721255 -0.0183732,0.00564586 -0.0187924,0.00403694 -0.0190709,0.0023978 -0.0192068,0.000740728 -0.019199,-0.00092189 -0.0190475,-0.00257761 -0.0187534,-0.00421404 -0.0183191,-0.00581894 -0.0177477,-0.00738031 -0.0170435,-0.00888645 -0.0162118,-0.0103261 -0.0152587,-0.0116885 -0.0141915,-0.0129634 -0.0130182,-0.0141413 -0.0117474,-0.0152135 -0.0103887,-0.0161717 -0.00895225,-0.017009 -0.00744884,-0.017719 -0.21696,0.079601 0,-0.74939 1,0 z "/>
<path fill="rgb(241,240,234)" stroke="rgb(241,240,234)" d="M 5.50812,4.49754 l 1,0 0,0.403348 -1,0 0,-0.403348 z "/>
<path fill="rgb(241,240,234)" stroke="rgb(241,240,234)" d="M 7.50812,3.49754 l 1,0 0,1 -1,0 0,-1 z "/>
<path fill="rgb(241,240,234)" stroke="rgb(241,240,234)" d="M 9.50812,7.49754 l 0.00317767,0 0,0.753348 -0.00317767,0 0,-0.753348 z "/>
<path fill="rgb(241,240,234)" stroke="rgb(241,240,234)" d="M 8.50812,1.49754 l 0,-1 0.740678,8.88178e-15 0.0228784,0.000998892 0.0227043,0.00298907 0.0223574,0.00495651 0.0218403,0.00688622 0.021157,0.00876352 0.0203127,0.0105741 0.0193138,0.0123043 0.0181679,0.0139407 0.0168838,0.0154711 0.0154711,0.0168838 0.0139407,0.0181679 0.0123043,0.0193138 0.0105741,0.0203127 0.00876352,0.021157 0.00688622,0.0218403 0.00495651,0.0223574 0.000810295,0.0061548 0,0.776928 -1,0 z "/>
<path fill="rgb(241,240,234)" stroke="rgb(241,240,234)" d="M 9.51129,6.49754 l 1.77636e-15,1 -0.00317767,0 0,-1 0.00317767,0 z "/>
<path fill="rgb(241,240,234)" stroke="rgb(241,240,234)" d="M 9.51129,5.49754 l 0,1 -0.00317767,0 0,-1 0.00317767,0 z "/>
<path fill="rgb(241,240,234)" stroke="rgb(241,240,234)" d="M 9.51129,4.49754 l 0,1 -0.00317767,0 0,-1 0.00317767,0 z "/>
<path fill="rgb(241,240,234)" stroke="rgb(241,240,234)" d="M 9.51129,3.49754 l 0,1 -0.00317767,0 0,-1 0.00317767,0 z "/>
<path fill="rgb(241,240,234)" stroke="rgb(241,240,234)" d="M 5.50812,3.49754 l 1,0 0,1 -1,0 0,-1 z "/>
<path fill="rgb(241,240,234)" stroke="rgb(241,240,234)" d="M 5.50812,2.49754 l 1,0 0,1 -1,0 0,-1 z "/>
<path fill="rgb(241,240,234)" stroke="rgb(241,240,234)" d="M 5.56989,1.49754 l -0.061774,0 0,-0.0996346 0.0702467,-0.0173577 0,-0.162741 -0.0702467,0 0,-0.720267 1,0 0,0.74939 -0.561451,0.205992 0.00594967,0.0186255 0.00428548,0.0190773 0.000923453,0.0069156 -0.0482024,0 -0.00283544,-0.0126931 -0.00460494,-0.014491 -0.0058061,-0.0139172 -0.0069959,-0.0133588 -0.00813255,-0.0126989 -0.00920742,-0.0119425 -0.0102123,-0.0110954 -0.0111397,-0.010164 -0.0119824,-0.00915539 -0.0127341,-0.00807724 -0.0133891,-0.00693773 -0.0139423,-0.00574552 -0.0143897,-0.00450966 -0.0147277,-0.00323954 -0.0149538,-0.00194482 -0.0150664,-0.00063532 -0.0150645,0.000679005 -0.0149481,0.00198817 -0.0147182,0.00328224 -0.0143765,0.00455137 -0.0139256,0.00578592 -0.0133689,0.00697652 -0.0127106,0.00811413 -0.0119558,0.00919009 -0.0111102,0.0101962 -0.0101801,0.0111249 -0.00917275,0.0119691 -0.00809569,0.0127224 -0.00695713,0.013379 -0.00576572,0.013934 -0.00453052,0.0143831 -0.00273083,0.0123297 z "/>
<path fill="rgb(241,240,234)" stroke="rgb(241,240,234)" d="M 4.50812,4.49754 l 1,0 0,0.403348 -1,0 0,-0.403348 z "/>
<path fill="rgb(241,240,234)" stroke="rgb(241,240,234)" d="M 4.50812,3.49754 l 1,0 0,1 -1,0 0,-1 z "/>
<path fill="rgb(241,240,234)" stroke="rgb(241,240,234)" d="M 4.50812,2.49754 l 1,0 0,1 -1,0 0,-1 z "/>
<path fill="rgb(241,240,234)" stroke="rgb(241,240,234)" d="M 5.10489,1.49754 l 0.403222,0 0,0.135375 -0.151199,0.0869394 0.0419684,0.114389 -0.0507125,0.475148 -0.080258,0.0255224 -0.729406,-0.729406 0,-0.0209112 0.214067,0 0.352318,-0.0870564 z M 5.50812,1.93601 l 0,0.561537 -1,0 0,-0.436944 0.77693,0.430306 0.00527655,0.00173162 0.00540738,0.00126517 0.00549707,0.000789097 0.00554493,0.000307018 0.00555058,-0.000177397 0.005514,-0.000660463 0.00543546,-0.0011385 0.00531556,-0.00160788 0.00515521,-0.00206502 0.00495562,-0.00250644 0.00471833,-0.00292879 0.00444513,-0.00332886 0.0041381,-0.00370359 0.00379958,-0.00405014 0.00343215,-0.00436587 0.0030386,-0.00464837 0.00262193,-0.0048955 0.0021853,-0.00510538 0.00173205,-0.00527641 0.00126561,-0.00540728 0.000789548,-0.00549701 0.0531438,-0.534912 0.0168451,0.0459129 0.0672621,-0.012629 z "/>
<path fill="rgb(241,240,234)" stroke="rgb(241,240,234)" d="M 5.20933,1.14605 l -0.000945665,-0.0216593 -0.0028298,-0.0214945 -0.00469239,-0.021166 -0.00651928,-0.0206765 -0.00829655,-0.0200296 -0.0100107,-0.0192303 -0.0116486,-0.0182847 -0.0131979,-0.0171998 -0.0146467,-0.0159841 -0.0159841,-0.0146467 -0.0171998,-0.0131979 -0.0182847,-0.0116486 -0.0192303,-0.0100107 -0.0200296,-0.00829655 -0.0206765,-0.00651928 -0.021166,-0.00469239 -0.0214945,-0.0028298 -0.0216593,-0.000945665 -0.0216593,0.000945665 -0.0214945,0.0028298 -0.021166,0.00469239 -0.0206765,0.00651928 -0.0200296,0.00829655 -0.0192303,0.0100107 -0.0182847,0.0116486 -0.0171998,0.0131979 -0.0159841,0.0146467 -0.0146467,0.0159841 -0.0131979,0.0171998 -0.0116486,0.0182847 -0.0100107,0.0192303 -0.00829655,0.0200296 -0.00651928,0.0206765 -0.00469239,0.021166 -0.0028298,0.0214945 -0.000945665,0.0216593 0.000945665,0.0216593 0.0028298,0.0214945 0.00469239,0.021166 0.00651928,0.0206765 0.00829655,0.0200296 0.0100107,0.0192303 0.0116486,0.0182847 0.0131979,0.0171998 0.0146467,0.0159841 0.0159841,0.0146467 0.0171998,0.0131979 0.0182847,0.0116486 0.0192303,0.0100107 0.0200296,0.00829655 0.0206765,0.00651928 0.021166,0.00469239 0.0214945,0.0028298 0.0216593,0.000945665 0.0216593,-0.000945665 0.0214945,-0.0028298 0.021166,-0.00469239 0.0206765,-0.00651928 0.0200296,-0.00829655 0.0192303,-0.0100107 0.0182847,-0.0116486 0.0171998,-0.0131979 0.0159841,-0.0146467 0.0146467,-0.0159841 0.0131979,-0.0171998 0.0116486,-0.0182847 0.0100107,-0.0192303 0.00829655,-0.0200296 0.00651928,-0.0206765 0.00469239,-0.021166 0.0028298,-0.0214945 0.000945665,-0.0216593 z M 5.50812,0.497542 l 0,0.720267 -0.230282,0 -0.00309589,0.0213069 -0.00492475,0.0209599 -0.0067168,0.0204562 -0.00845864,0.0197995 -0.0101372,0.0189949 -0.0117401,0.0180483 -0.0132552,0.0169668 -0.0146712,0.0157584 -0.0159775,0.0144323 -0.0171644,0.0129982 -0.018223,0.011467 -0.0191454,0.00985013 -0.0199246,0.0081596 -0.020555,0.00640807 -0.0210317,0.00460865 -0.0213511,0.00277477 -0.021511,0.000920152 -0.521835,-0.000257048 0,-0.0779944 0.00421597,-0.00219469 0.0182847,-0.0116486 0.0171998,-0.0131979 0.0159841,-0.0146467 0.0146467,-0.0159841 0.0131979,-0.0171998 0.0116486,-0.0182847 0.0100107,-0.0192303 0.00829655,-0.0200296 0.00651928,-0.0206765 0.00469239,-0.021166 0.0028298,-0.0214945 0.000945665,-0.0216593 -0.000945665,-0.0216593 -0.0028298,-0.0214945 -0.00469239,-0.021166 -0.00651928,-0.0206765 -0.00829655,-0.0200296 -0.0100107,-0.0192303 -0.0116486,-0.0182847 -0.0131979,-0.0171998 -0.0146467,-0.0159841 -0.0159841,-0.0146467 -0.0171998,-0.0131979 -0.0182847,-0.0116486 -0.00421597,-0.00219469 0,-0.4311 1,0 z M 5.50812,1.39791 l 0,0.0996346 -0.403222,0 0.403222,-0.0996346 z "/>
<path fill="rgb(241,240,234)" stroke="rgb(241,240,234)" d="M 3.50812,4.49754 l 1,0 0,0.403348 -1,0 0,-0.403348 z "/>
<path fill="rgb(241,240,234)" stroke="rgb(241,240,234)" d="M 3.50812,3.49754 l 1,0 0,1 -1,0 0,-1 z "/>
<path fill="rgb(241,240,234)" stroke="rgb(241,240,234)" d="M 3.50812,2.49754 l 1,0 0,1 -1,0 0,-1 z "/>
<path fill="rgb(241,240,234)" stroke="rgb(241,240,234)" d="M 3.50812,1.58931 l 0.149078,0 0.850922,0.471286 0,0.436944 -1,0 0,-0.90823 z "/>
<path fill="rgb(241,240,234)" stroke="rgb(241,240,234)" d="M 4.50812,1.36347 l 0,0.0779944 -0.174372,-8.58929e-05 -0.0216843,-0.00117866 -0.0214933,-0.00310428 -0.0211316,-0.00500526 -0.0206022,-0.00686649 -0.0199092,-0.0086732 -0.019058,-0.0104111 -0.0180556,-0.0120662 -0.0169098,-0.0136256 -0.0156297,-0.0150768 -0.0142256,-0.0164083 -0.0127085,-0.0176095 -0.0110904,-0.0186709 -0.00938437,-0.019584 -0.00760378,-0.0203416 -0.00576281,-0.0209377 -0.00387609,-0.0213676 -0.00195859,-0.0216278 -0.584544,0 0,-0.711279 1,0 0,0.4311 -0.0150144,-0.00781598 -0.0200296,-0.00829655 -0.0206765,-0.00651928 -0.021166,-0.00469239 -0.0214945,-0.0028298 -0.0216593,-0.000945665 -0.0216593,0.000945665 -0.0214945,0.0028298 -0.021166,0.00469239 -0.0206765,0.00651928 -0.0200296,0.00829655 -0.0192303,0.0100107 -0.0182847,0.0116486 -0.0171998,0.0131979 -0.0159841,0.0146467 -0.0146467,0.0159841 -0.0131979,0.0171998 -0.0116486,0.0182847 -0.0100107,0.0192303 -0.00829655,0.0200296 -0.00651928,0.0206765 -0.00469239,0.021166 -0.0028298,0.0214945 -0.000945665,0.0216593 0.000945665,0.0216593 0.0028298,0.0214945 0.00469239,0.021166 0.00651928,0.0206765 0.00829655,0.0200296 0.0100107,0.0192303 0.0116486,0.0182847 0.0131979,0.0171998 0.0146467,0.0159841 0.0159841,0.0146467 0.0171998,0.0131979 0.0182847,0.0116486 0.0192303,0.0100107 0.0200296,0.00829655 0.0206765,0.00651928 0.021166,0.00469239 0.0214945,0.0028298 0.0216593,0.000945665 0.0216593,-0.000945665 0.0214945,-0.0028298 0.021166,-0.00469239 0.0206765,-0.00651928 0.0200296,-0.00829655 0.0150144,-0.00781598 z "/>
<path fill="rgb(241,240,234)" stroke="rgb(241,240,234)" d="M 2.60833,4.49754 l 0.165475,0 0.0421994,0.0492199 0.198919,0 0,-0.0492199 0.493197,0 0,0.403348 -1,0 0,-0.357804 0.0192552,-0.00641626 0.0495278,-0.0217357 0.0314268,-0.0173916 z "/>
<path fill="rgb(241,240,234)" stroke="rgb(241,240,234)" d="M 3.01492,3.49754 l 0.493197,0 0,1 -0.493197,0 0,-1 z M 2.7738,4.49754 l -0.165475,0 0.0158973,-0.00879754 0.044721,-0.0304216 0.0417405,-0.0343973 0.0631161,0.0736164 z "/>
<path fill="rgb(241,240,234)" stroke="rgb(241,240,234)" d="M 2.50812,2.49754 l 1,0 0,1 -0.493197,0 0,-0.705912 -0.506803,0 0,-0.294088 z "/>
<path fill="rgb(241,240,234)" stroke="rgb(241,240,234)" d="M 2.5952,1.49754 l -0.00911871,0.118472 0.156343,0.487685 0.574836,0 0.0305243,-0.359845 0,-0.23955 0.0996882,0 0,0.0850087 0.0606395,0 0,0.90823 -1,0 0,-1 0.0870884,0 z "/>
<path fill="rgb(241,240,234)" stroke="rgb(241,240,234)" d="M 3.38957,1.14605 l -0.000945665,-0.0216593 -0.0028298,-0.0214945 -0.00469239,-0.021166 -0.00651928,-0.0206765 -0.00829655,-0.0200296 -0.0100107,-0.0192303 -0.0116486,-0.0182847 -0.0131979,-0.0171998 -0.0146467,-0.0159841 -0.0159841,-0.0146467 -0.0171998,-0.0131979 -0.0182847,-0.0116486 -0.0192303,-0.0100107 -0.0200296,-0.00829655 -0.0206765,-0.00651928 -0.021166,-0.00469239 -0.0214945,-0.0028298 -0.0216593,-0.000945665 -0.0216593,0.000945665 -0.0214945,0.0028298 -0.021166,0.00469239 -0.0206765,0.00651928 -0.0200296,0.00829655 -0.0192303,0.0100107 -0.0182847,0.0116486 -0.0171998,0.0131979 -0.0159841,0.0146467 -0.0146467,0.0159841 -0.0131979,0.0171998 -0.0116486,0.0182847 -0.0100107,0.0192303 -0.00829655,0.0200296 -0.00651928,0.0206765 -0.00469239,0.021166 -0.0028298,0.0214945 -0.000945665,0.0216593 0.000945665,0.0216593 0.0028298,0.0214945 0.00469239,0.021166 0.00651928,0.0206765 0.00829655,0.0200296 0.0100107,0.0192303 0.0116486,0.0182847 0.0131979,0.0171998 0.0146467,0.0159841 0.0159841,0.0146467 0.0171998,0.0131979 0.0182847,0.0116486 0.0192303,0.0100107 0.0200296,0.00829655 0.0206765,0.00651928 0.021166,0.00469239 0.0214945,0.0028298 0.0216593,0.000945665 0.0216593,-0.000945665 0.0214945,-0.0028298 0.021166,-0.00469239 0.0206765,-0.00651928 0.0200296,-0.00829655 0.0192303,-0.0100107 0.0182847,-0.0116486 0.0171998,-0.0131979 0.0159841,-0.0146467 0.0146467,-0.0159841 0.0131979,-0.0171998 0.0116486,-0.0182847 0.0100107,-0.0192303 0.00829655,-0.0200296 0.00651928,-0.0206765 0.00469239,-0.021166 0.0028298,-0.0214945 0.000945665,-0.0216593 z M 2.5952,1.49754 l -0.0870884,0 0,-1 1,0 0,0.711279 -0.0629353,0 -0.0068345,0.0260861 -0.00907476,0.0253938 -0.0112464,0.0245094 -0.013333,0.0234398 -0.0153189,0.022193 -0.0171889,0.0207783 -0.0189289,0.0192066 -0.0205258,0.0174896 -0.0219675,0.0156404 -0.0232432,0.0136729 -0.0243431,0.0116021 -0.0252589,0.00944356 -0.0259838,0.00721361 -0.0265122,0.00492912 -0.0268402,0.00260736 -0.0269652,0.000265889 -0.0268864,-0.00207759 -0.0266043,-0.00440537 -0.026121,-0.00669983 -0.0254402,-0.00894364 -0.0245671,-0.0111198 -0.0235083,-0.0132119 -0.0222717,-0.0152042 -0.0208667,-0.0170814 -0.0193039,-0.0188296 -0.0175952,-0.0204353 -0.0157535,-0.0218866 -0.0137927,-0.0231723 -0.0117275,-0.0242829 -0.00957374,-0.0252099 -0.00734756,-0.0259463 -0.00506582,-0.0264864 -0.00274579,-0.0268264 -0.265309,0 0,0.0852264 0.0473766,0 -0.0193072,0.250843 z "/>
<path fill="rgb(241,240,234)" stroke="rgb(241,240,234)" d="M 1.50812,7.49754 l 0.143653,0 0,0.753348 -0.143653,0 0,-0.753348 z "/>
<path fill="rgb(241,240,234)" stroke="rgb(241,240,234)" d="M 1.65177,6.49754 l -4.44089e-16,1 -0.143653,0 0,-1 0.143653,0 z "/>
<path fill="rgb(241,240,234)" stroke="rgb(241,240,234)" d="M 1.65177,5.49754 l 0,1 -0.143653,0 0,-1 0.143653,0 z "/>
<path fill="rgb(241,240,234)" stroke="rgb(241,240,234)" d="M 1.50812,4.49754 l 0.143653,0 0,0.0492199 0.187206,0 0.0328228,-0.0492199 0.151451,0 0.0314268,0.0173916 0.0495278,0.0217357 0.0513135,0.0170987 0.0526661,0.0123175 0.0535743,0.00743234 0.0540303,0.00248444 0.0540303,-0.00248444 0.0535743,-0.00743234 0.0526661,-0.0123175 0.0320582,-0.0106825 0,0.357804 -0.556347,0 -0.0261467,0.00114159 -0.0259477,0.00341608 -0.0255513,0.00566458 -0.0249603,0.00786996 -0.0241794,0.0100155 -0.0232145,0.0120847 -0.0220729,0.014062 -0.0207634,0.0159323 -0.0192958,0.0176813 -0.0176813,0.0192958 -0.0159323,0.0207634 -0.014062,0.0220729 -0.0120847,0.0232145 -0.0100155,0.0241794 -0.00786996,0.0249603 -0.00566458,0.0255513 -0.00341608,0.0259477 -0.00114159,0.0261467 0,0.296652 -0.143653,0 0,-1 z "/>
<path fill="rgb(241,240,234)" stroke="rgb(241,240,234)" d="M 1.65177,3.49754 l 0,1 -0.143653,0 0,-1 0.143653,0 z M 2.02325,4.49754 l -0.151451,0 0.0490919,-0.0736164 0.0417405,0.0343973 0.044721,0.0304216 0.0158973,0.00879754 z "/>
<path fill="rgb(241,240,234)" stroke="rgb(241,240,234)" d="M 1.65177,3.49754 l -0.143653,0 0,-1 1,0 0,0.294088 -0.856347,0 0,0.705912 z "/>
<path fill="rgb(241,240,234)" stroke="rgb(241,240,234)" d="M 1.50812,1.49754 l 1,0 0,1 -1,0 0,-1 z "/>
<path fill="rgb(241,240,234)" stroke="rgb(241,240,234)" d="M 6.50812,1.94304 l 0,0.554505 -1,0 0,-0.561537 0.506722,-0.0951413 0.306065,0.140532 0.00777684,0.00317471 0.00802012,0.00249714 0.00820449,0.00180124 0.00832859,0.0010921 0.00839151,0.000374946 0.0083928,-0.000344965 0.00833244,-0.00106234 0.00821087,-0.00177192 0.00802899,-0.00246848 3.37508e-14,-1.24345e-14 0.113526,-0.0416517 z M 5.95782,1.49754 l 0.00166449,0.0124651 0.000870281,0.0195334 -0.000854151,0.0195341 -0.00257194,0.0193828 -0.00426972,0.0190809 -0.00593429,0.0186304 -0.00755271,0.0180351 -0.00911237,0.0172995 -0.0106012,0.0164294 -0.0120075,0.0154314 -0.0133204,0.0143135 -0.0145298,0.0130842 -0.0156261,0.0117531 -0.0166008,0.0103306 -0.0174465,0.00882775 -0.0181564,0.00725624 -0.0187252,0.0056283 -0.0191482,0.00395657 -0.0194224,0.00225407 -0.0195454,0.000534032 -0.0195165,-0.00119016 -0.0193357,-0.00290509 -0.0190046,-0.00459742 -0.0185256,-0.006254 -0.0179025,-0.00786193 -0.0171402,-0.00940871 -0.0162445,-0.0108823 -0.0152225,-0.0122713 -0.0140821,-0.0135648 -0.0128322,-0.0147528 -0.0114825,-0.015826 -0.0100434,-0.0167762 -0.00852624,-0.0175958 -0.0269585,0.0155012 0,-0.135375 0.061774,0 -0.000530068,0.00239326 -0.0019665,0.014951 -0.000657163,0.0150654 0.00066813,0.0151904 0.00199923,0.0150731 0.00331489,0.0148393 0.00460494,0.014491 0.0058061,0.0139172 0.0069959,0.0133588 0.00813255,0.0126989 0.00920742,0.0119425 0.0102123,0.0110954 0.0111397,0.010164 0.0119824,0.00915539 0.0127341,0.00807724 0.0133891,0.00693773 0.0139423,0.00574552 0.0143897,0.00450966 0.0147277,0.00323954 0.0149538,0.00194482 0.0150664,0.00063532 0.0150645,-0.000679005 0.0149481,-0.00198817 0.0147182,-0.00328224 0.0143765,-0.00455137 0.0139256,-0.00578592 0.0133689,-0.00697652 0.0127106,-0.00811413 0.0119558,-0.00919009 0.0111102,-0.0101962 0.0101801,-0.0111249 0.00917275,-0.0119691 0.00809569,-0.0127224 0.00695713,-0.013379 0.00576572,-0.013934 0.00453052,-0.0143831 0.00326089,-0.014723 0.0019665,-0.014951 0.000657163,-0.0150654 -0.00066813,-0.0151904 -0.00199923,-0.0150731 -0.000479442,-0.00214626 0.0482024,0 z "/>
<path fill="rgb(241,240,234)" stroke="rgb(241,240,234)" d="M 0.508116,7.49754 l 1,0 0,0.753348 -1,0 0,-0.753348 z "/>
<path fill="rgb(241,240,234)" stroke="rgb(241,240,234)" d="M 0.508116,6.49754 l 1,0 0,1 -1,0 0,-1 z "/>
<path fill="rgb(241,240,234)" stroke="rgb(241,240,234)" d="M 0.508116,5.49754 l 1,0 0,1 -1,0 0,-1 z "/>
<path fill="rgb(241,240,234)" stroke="rgb(241,240,234)" d="M 0.508116,4.49754 l 1,0 0,1 -1,0 0,-1 z "/>
<path fill="rgb(241,240,234)" stroke="rgb(241,240,234)" d="M 0.508116,3.49754 l 1,0 0,1 -1,0 0,-1 z "/>
<path fill="rgb(241,240,234)" stroke="rgb(241,240,234)" d="M 0.508116,2.49754 l 1,0 0,1 -1,0 0,-1 z "/>
<path fill="rgb(241,240,234)" stroke="rgb(241,240,234)" d="M 0.508116,1.49754 l 1,0 0,1 -1,0 0,-1 z "/>
<path fill="rgb(241,240,234)" stroke="rgb(241,240,234)" d="M 1.50812,0.497542 l 0,1 -1,0 0,-0.7375 0.000998892,-0.0228784 0.00298907,-0.0227043 0.00495651,-0.0223574 0.00688622,-0.0218403 0.00876352,-0.021157 0.0105741,-0.0203127 0.0123043,-0.0193138 0.0139407,-0.0181679 0.0154711,-0.0168838 0.0168838,-0.0154711 0.0181679,-0.0139407 0.0193138,-0.0123043 0.0203127,-0.0105741 0.021157,-0.00876352 0.0218403,-0.00688622 0.0223574,-0.00495651 0.0227043,-0.00298907 0.0228784,-0.000998892 0.7375,0 z "/>
<path fill="rgb(241,240,234)" stroke="rgb(241,240,234)" d="M 1.50812,0.497542 l 1,0 0,1 -1,0 0,-1 z "/>
<path fill="rgb(241,240,234)" stroke="rgb(241,240,234)" d="M 9.51129,2.49754 l 0,1 -0.00317767,0 0,-1 0.00317767,0 z "/>
<path fill="rgb(241,240,234)" stroke="rgb(241,240,234)" d="M 9.51129,1.49754 l 0,1 -0.00317767,0 0,-1 0.00317767,0 z "/>
<path fill="rgb(241,240,234)" stroke="rgb(241,240,234)" d="M 9.50812,1.49754 l 0,-0.776928 0.00217878,0.0165495 0.000998892,0.0228784 0,0.7375 -0.00317767,0 z "/>
<path fill="rgb(241,240,234)" stroke="rgb(241,240,234)" d="M 8.50812,8.25089 l 0,-0.753348 1,0 0,0.753348 -1,0 z "/>
<path fill="rgb(241,240,234)" stroke="rgb(241,240,234)" d="M 1.96184,4.40636 l 0.0382379,0.0279479 0.0404518,0.0246349 0.0423793,0.0211475 0.0440069,0.0175104 0.045323,0.0137494 0.0463183,0.00989114 0.0469858,0.00596283 0.0473208,0.00199231 0.0473208,-0.00199231 0.0469858,-0.00596283 0.0463183,-0.00989114 0.045323,-0.0137494 0.0440069,-0.0175104 0.0423793,-0.0211475 0.0404518,-0.0246349 0.0382379,-0.0279479 -0.351024,0 -0.351024,0 z "/>
<path fill="rgb(241,240,234)" stroke="rgb(241,240,234)" d="M 2.41233,3.86226 l -0.093627,-0.187206 -0.0994594,0.187206 0.0965432,0 0.0965432,0 z "/>
<path fill="rgb(241,240,234)" stroke="rgb(241,240,234)" d="M 2.71069,3.41176 l -0.0368077,-0.0318812 -0.0393521,-0.0286815 -0.0416192,-0.0252797 -0.0435929,-0.0216997 -0.0452594,-0.0179667 -0.0466069,-0.0141072 -0.0476259,-0.0101482 -0.0483093,-0.00611765 -0.0486522,-0.00204402 -0.0486522,0.00204402 -0.0483093,0.00611765 -0.0476259,0.0101482 -0.0466069,0.0141072 -0.0452594,0.0179667 -0.0435929,0.0216997 -0.0416192,0.0252797 -0.0393521,0.0286815 -0.0368077,0.0318812 0.204775,0.198919 0.0106919,-0.0155903 0.0119669,-0.0146344 0.0131569,-0.0135746 0.0142534,-0.0124183 0.0152486,-0.0111738 0.0161355,-0.00984991 0.0169077,-0.00845602 0.0175598,-0.00700204 0.0180871,-0.0054983 0.0184859,-0.00395551 0.0187533,-0.0023846 0.0188875,-0.000796754 0.0188875,0.000796754 0.0187533,0.0023846 0.0184859,0.00395551 0.0180871,0.0054983 0.0175598,0.00700204 0.0169077,0.00845602 0.0161355,0.00984991 0.0152486,0.0111738 0.0142534,0.0124183 0.0131569,0.0135746 0.0119669,0.0146344 0.0106919,0.0155903 0.210607,-0.198919 z "/>
<path fill="rgb(241,240,234)" stroke="rgb(241,240,234)" d="M 2.3421,3.06658 l 0.00229471,0.000100189 0.00227725,0.000299805 0.00224245,0.00049714 0.00219059,0.000690691 0.00212206,0.000878985 0.00203737,0.00106059 0.00193719,0.00123412 0.00182225,0.00139826 0.00169345,0.00155176 0.00155176,0.00169345 0.00139826,0.00182225 0.00123412,0.00193719 0.00106059,0.00203737 0.000878985,0.00212206 0.000690691,0.00219059 0.00049714,0.00224245 0.000299805,0.00227725 0.000100189,0.00229471 -0.000100189,0.00229471 -0.000299805,0.00227725 -0.00049714,0.00224245 -0.000690691,0.00219059 -0.000878985,0.00212206 -0.00106059,0.00203737 -0.00123412,0.00193719 -0.00139826,0.00182225 -0.00155176,0.00169345 -0.00169345,0.00155176 -0.00182225,0.00139826 -0.00193719,0.00123412 -0.00203737,0.00106059 -0.00212206,0.000878985 -0.00219059,0.000690691 -0.00224245,0.00049714 -0.00227725,0.000299805 -0.00229471,0.000100189 -0.0292331,0 0,-0.0526578 0.0292331,0 4.3836e-12,0 z M 2.3421,3.04321 l -0.0292331,0 0,-0.0702262 -0.0234008,0 0,0.169686 0.052634,0 0.00433423,-0.000189237 0.00430124,-0.00056627 0.00423552,-0.000938993 0.00413756,-0.00130457 0.00400812,-0.00166022 0.00384817,-0.00200323 0.00365893,-0.002331 0.00344185,-0.00264102 0.00319857,-0.00293095 0.00293095,-0.00319857 0.00264102,-0.00344185 0.002331,-0.00365893 0.00200323,-0.00384817 0.00166022,-0.00400812 0.00130457,-0.00413756 0.000938992,-0.00423552 0.000566269,-0.00430124 0.000189236,-0.00433423 -0.000189236,-0.00433423 -0.000566269,-0.00430124 -0.000938992,-0.00423552 -0.00130457,-0.00413756 -0.00166022,-0.00400812 -0.00200323,-0.00384817 -0.002331,-0.00365893 -0.00264102,-0.00344185 -0.00293095,-0.00319857 -0.00319857,-0.00293095 -0.00344185,-0.00264102 -0.00365893,-0.002331 -0.00384817,-0.00200323 -0.00400812,-0.00166022 -0.00413756,-0.00130457 -0.00423552,-0.000938993 -0.00430124,-0.00056627 -0.00433423,-0.000189237 z "/>
<path fill="rgb(241,240,234)" stroke="rgb(241,240,234)" d="M 2.3421,3.04321 l 0.00433423,0.000189236 0.00430124,0.000566269 0.00423552,0.000938992 0.00413756,0.00130457 0.00400812,0.00166022 0.00384817,0.00200323 0.00365893,0.002331 0.00344185,0.00264102 0.00319857,0.00293095 0.00293095,0.00319857 0.00264102,0.00344185 0.002331,0.00365893 0.00200323,0.00384817 0.00166022,0.00400812 0.00130457,0.00413756 0.000938992,0.00423552 0.000566269,0.00430124 0.000189236,0.00433423 -0.000189236,0.00433423 -0.000566269,0.00430124 -0.000938992,0.00423552 -0.00130457,0.00413756 -0.00166022,0.00400812 -0.00200323,0.00384817 -0.002331,0.00365893 -0.00264102,0.00344185 -0.00293095,0.00319857 -0.00319857,0.00293095 -0.00344185,0.00264102 -0.00365893,0.002331 -0.00384817,0.00200323 -0.00400812,0.00166022 -0.00413756,0.00130457 -0.00423552,0.000938992 -0.00430124,0.000566269 -0.00433423,0.000189236 0.00433423,-0.000189237 0.00430124,-0.00056627 0.00423552,-0.000938993 0.00413756,-0.00130457 0.00400812,-0.00166022 0.00384817,-0.00200323 0.00365893,-0.002331 0.00344185,-0.00264102 0.00319857,-0.00293095 0.00293095,-0.00319857 0.00264102,-0.00344185 0.002331,-0.00365893 0.00200323,-0.00384817 0.00166022,-0.00400812 0.00130457,-0.00413756 0.000938992,-0.00423552 0.000566269,-0.00430124 0.000189236,-0.00433423 -0.000189236,-0.00433423 -0.000566269,-0.00430124 -0.000938992,-0.00423552 -0.00130457,-0.00413756 -0.00166022,-0.00400812 -0.00200323,-0.00384817 -0.002331,-0.00365893 -0.00264102,-0.00344185 -0.00293095,-0.00319857 -0.00319857,-0.00293095 -0.00344185,-0.00264102 -0.00365893,-0.002331 -0.00384817,-0.00200323 -0.00400812,-0.00166022 -0.00413756,-0.00130457 -0.00423552,-0.000938993 -0.00430124,-0.00056627 -0.00433423,-0.000189237 z "/>
<path fill="rgb(241,240,234)" stroke="rgb(241,240,234)" d="M 9.51129,8.25089 l -1.77636e-15,5.48553 -0.000998892,0.0228784 -0.00298907,0.0227043 -0.00495651,0.0223574 -0.00688622,0.0218403 -0.00876352,0.021157 -0.0105741,0.0203127 -0.0123043,0.0193138 -0.0139407,0.0181679 -0.0154711,0.0168838 -0.0168838,0.0154711 -0.0181679,0.0139407 -0.0193138,0.0123043 -0.0203127,0.0105741 -0.021157,0.00876352 -0.0218403,0.00688622 -0.0223574,0.00495651 -0.0227043,0.00298907 -0.0228784,0.000998892 -8.47818,-8.88178e-15 -0.0228784,-0.000998892 -0.0227043,-0.00298907 -0.0223574,-0.00495651 -0.0218403,-0.00688622 -0.021157,-0.00876352 -0.0203127,-0.0105741 -0.0193138,-0.0123043 -0.0181679,-0.0139407 -0.0168838,-0.0154711 -0.0154711,-0.0168838 -0.0139407,-0.0181679 -0.0123043,-0.0193138 -0.0105741,-0.0203127 -0.00876352,-0.021157 -0.00688622,-0.0218403 -0.00495651,-0.0223574 -0.00298907,-0.0227043 -0.000998892,-0.0228784 0,-5.48553 1.14365,0 -4.44089e-16,3.05 0.00114159,0.0261467 0.00341608,0.0259477 0.00566458,0.0255513 0.00786996,0.0249603 0.0100155,0.0241794 0.0120847,0.0232145 0.014062,0.0220729 0.0159323,0.0207634 0.0176813,0.0192958 0.0192958,0.0176813 0.0207634,0.0159323 0.0220729,0.014062 0.0232145,0.0120847 0.0241794,0.0100155 0.0249603,0.00786996 0.0255513,0.00566458 0.0259477,0.00341608 0.0261467,0.00114159 6.1,0 0.0261467,-0.00114159 0.0259477,-0.00341608 0.0255513,-0.00566458 0.0249603,-0.00786996 0.0241794,-0.0100155 0.0232145,-0.0120847 0.0220729,-0.014062 0.0207634,-0.0159323 0.0192958,-0.0176813 0.0176813,-0.0192958 0.0159323,-0.0207634 0.014062,-0.0220729 0.0120847,-0.0232145 0.0100155,-0.0241794 0.00786996,-0.0249603 0.00566458,-0.0255513 0.00341608,-0.0259477 0.00114159,-0.0261467 0,-3.05 1.15953,0 z "/>
<path fill="rgb(0,91,140)" stroke="rgb(0,91,140)" d="M 3.01492,2.79163 l 0,1.75513 -0.198919,0 -0.105316,-0.122836 -0.0417405,0.0343973 -0.044721,0.0304216 -0.0473241,0.0261891 -0.0495278,0.0217357 -0.0513135,0.0170987 -0.0526661,0.0123175 -0.0535743,0.00743234 -0.0540303,0.00248444 -0.00292808,-0.0468088 0.0473208,-0.00199231 0.0469858,-0.00596283 0.0463183,-0.00989114 0.045323,-0.0137494 0.0440069,-0.0175104 0.0423793,-0.0211475 0.0404518,-0.0246349 0.0382379,-0.0279479 -0.351024,0 0.00292808,-0.544098 0.0965432,0 -0.093627,-0.187206 -0.00876042,-0.169705 0.0188875,0.000796754 0.0187533,0.0023846 0.0184859,0.00395551 0.0180871,0.0054983 0.0175598,0.00700204 0.0169077,0.00845602 0.0161355,0.00984991 0.0152486,0.0111738 0.0142534,0.0124183 0.0131569,0.0135746 0.0119669,0.0146344 0.0106919,0.0155903 0.210607,-0.198919 -0.0368077,-0.0318812 -0.0393521,-0.0286815 -0.0416192,-0.0252797 -0.0435929,-0.0216997 -0.0452594,-0.0179667 -0.0466069,-0.0141072 -0.0476259,-0.0101482 -0.0483093,-0.00611765 -0.0486522,-0.00204402 -0.0233889,-0.111172 0.052634,0 0.00433423,-0.000189236 0.00430124,-0.000566269 0.00423552,-0.000938992 0.00413756,-0.00130457 0.00400812,-0.00166022 0.00384817,-0.00200323 0.00365893,-0.002331 0.00344185,-0.00264102 0.00319857,-0.00293095 0.00293095,-0.00319857 0.00264102,-0.00344185 0.002331,-0.00365893 0.00200323,-0.00384817 0.00166022,-0.00400812 0.00130457,-0.00413756 0.000938992,-0.00423552 0.000566269,-0.00430124 0.000189236,-0.00433423 -0.000189236,-0.00433423 -0.000566269,-0.00430124 -0.000938992,-0.00423552 -0.00130457,-0.00413756 -0.00166022,-0.00400812 -0.00200323,-0.00384817 -0.002331,-0.00365893 -0.00264102,-0.00344185 -0.00293095,-0.00319857 -0.00319857,-0.00293095 -0.00344185,-0.00264102 -0.00365893,-0.002331 -0.00384817,-0.00200323 -0.00400812,-0.00166022 -0.00413756,-0.00130457 -0.00423552,-0.000938992 -0.00430124,-0.000566269 -0.00433423,-0.000189236 -0.0292331,0 0,-0.0702262 0.702048,-0.18135 z "/>
<path fill="rgb(0,91,140)" stroke="rgb(0,91,140)" d="M 2.3421,3.06658 l 0.00229471,0.000100189 0.00227725,0.000299805 0.00224245,0.00049714 0.00219059,0.000690691 0.00212206,0.000878985 0.00203737,0.00106059 0.00193719,0.00123412 0.00182225,0.00139826 0.00169345,0.00155176 0.00155176,0.00169345 0.00139826,0.00182225 0.00123412,0.00193719 0.00106059,0.00203737 0.000878985,0.00212206 0.000690691,0.00219059 0.00049714,0.00224245 0.000299805,0.00227725 0.000100189,0.00229471 -0.000100189,0.00229471 -0.000299805,0.00227725 -0.00049714,0.00224245 -0.000690691,0.00219059 -0.000878985,0.00212206 -0.00106059,0.00203737 -0.00123412,0.00193719 -0.00139826,0.00182225 -0.00155176,0.00169345 -0.00169345,0.00155176 -0.00182225,0.00139826 -0.00193719,0.00123412 -0.00203737,0.00106059 -0.00212206,0.000878985 -0.00219059,0.000690691 -0.00224245,0.00049714 -0.00227725,0.000299805 -0.00229471,0.000100189 -0.0292331,0 0,-0.0526578 0.0292331,0 4.3836e-12,0 z "/>
<path fill="rgb(0,91,140)" stroke="rgb(0,91,140)" d="M 1.96184,4.40636 l 0.0382379,0.0279479 0.0404518,0.0246349 0.0423793,0.0211475 0.0440069,0.0175104 0.045323,0.0137494 0.0463183,0.00989114 0.0469858,0.00596283 0.0473208,0.00199231 0.00292808,0.0468088 -0.0540303,-0.00248444 -0.0535743,-0.00743234 -0.0526661,-0.0123175 -0.0513135,-0.0170987 -0.0495278,-0.0217357 -0.0473241,-0.0261891 -0.044721,-0.0304216 -0.0417405,-0.0343973 -0.0819147,0.122836 -0.187206,0 0,-1.75513 1.36315,0 -0.702048,0.18135 -0.0234008,0 0,0.169686 0.0233889,0.111172 -0.0486522,0.00204402 -0.0483093,0.00611765 -0.0476259,0.0101482 -0.0466069,0.0141072 -0.0452594,0.0179667 -0.0435929,0.0216997 -0.0416192,0.0252797 -0.0393521,0.0286815 -0.0368077,0.0318812 0.204775,0.198919 0.0106919,-0.0155903 0.0119669,-0.0146344 0.0131569,-0.0135746 0.0142534,-0.0124183 0.0152486,-0.0111738 0.0161355,-0.00984991 0.0169077,-0.00845602 0.0175598,-0.00700204 0.0180871,-0.0054983 0.0184859,-0.00395551 0.0187533,-0.0023846 0.0188875,-0.000796754 0.00876042,0.169705 -0.0994594,0.187206 0.0965432,0 -0.00292808,0.544098 -0.351024,0 z "/>
<path fill="rgb(0,91,140)" stroke="rgb(0,91,140)" d="M 1.65177,11.3009 l 4.44089e-16,-3.05 4.44089e-16,-3.05 0.00114159,-0.0261467 0.00341608,-0.0259477 0.00566458,-0.0255513 0.00786996,-0.0249603 0.0100155,-0.0241794 0.0120847,-0.0232145 0.014062,-0.0220729 0.0159323,-0.0207634 0.0176813,-0.0192958 0.0192958,-0.0176813 0.0207634,-0.0159323 0.0220729,-0.014062 0.0232145,-0.0120847 0.0241794,-0.0100155 0.0249603,-0.00786996 0.0255513,-0.00566458 0.0259477,-0.00341608 0.0261467,-0.00114159 6.1,0 0.0261467,0.00114159 0.0259477,0.00341608 0.0255513,0.00566458 0.0249603,0.00786996 0.0241794,0.0100155 0.0232145,0.0120847 0.0220729,0.014062 0.0207634,0.0159323 0.0192958,0.0176813 0.0176813,0.0192958 0.0159323,0.0207634 0.014062,0.0220729 0.0120847,0.0232145 0.0100155,0.0241794 0.00786996,0.0249603 0.00566458,0.0255513 0.00341608,0.0259477 0.00114159,0.0261467 0,3.05 0,3.05 -0.00114159,0.0261467 -0.00341608,0.0259477 -0.00566458,0.0255513 -0.00786996,0.0249603 -0.0100155,0.0241794 -0.0120847,0.0232145 -0.014062,0.0220729 -0.0159323,0.0207634 -0.0176813,0.0192958 -0.0192958,0.0176813 -0.0207634,0.0159323 -0.0220729,0.014062 -0.0232145,0.0120847 -0.0241794,0.0100155 -0.0249603,0.00786996 -0.0255513,0.00566458 -0.0259477,0.00341608 -0.0261467,0.00114159 -6.1,0 -0.0261467,-0.00114159 -0.0259477,-0.00341608 -0.0255513,-0.00566458 -0.0249603,-0.00786996 -0.0241794,-0.0100155 -0.0232145,-0.0120847 -0.0220729,-0.014062 -0.0207634,-0.0159323 -0.0192958,-0.0176813 -0.0176813,-0.0192958 -0.0159323,-0.0207634 -0.014062,-0.0220729 -0.0120847,-0.0232145 -0.0100155,-0.0241794 -0.00786996,-0.0249603 -0.00566458,-0.0255513 -0.00341608,-0.0259477 -0.00114159,-0.0261467 z "/>
<path fill="rgb(241,240,234)" stroke="rgb(241,240,234)" d="M 10.0035,8.25089 l -0.229744,0 0,-7.49085 -0.00199778,-0.0457568 -0.00597815,-0.0454085 -0.00991301,-0.0447147 -0.0137724,-0.0436806 -0.017527,-0.042314 -0.0211483,-0.0406254 -0.0246085,-0.0386276 -0.0278815,-0.0363359 -0.0309423,-0.0337676 -0.0337676,-0.0309423 -0.0363359,-0.0278815 -0.0386276,-0.0246085 -0.0406254,-0.0211483 -0.042314,-0.017527 -0.0436806,-0.0137724 -0.0447147,-0.00991301 -0.0454085,-0.00597815 -0.0457568,-0.00199778 -8.47818,-7.10543e-15 -0.0457568,0.00199778 -0.0454085,0.00597815 -0.0447147,0.00991301 -0.0436806,0.0137724 -0.042314,0.017527 -0.0406254,0.0211483 -0.0386276,0.0246085 -0.0363359,0.0278815 -0.0337676,0.0309423 -0.0309423,0.0337676 -0.0278815,0.0363359 -0.0246085,0.0386276 -0.0211483,0.0406254 -0.017527,0.042314 -0.0137724,0.0436806 -0.00991301,0.0447147 -0.00597815,0.0454085 -0.00199778,0.0457568 0,7.49085 -0.245616,0 0,-8.25089 10.0035,3.55271e-15 -1.77636e-15,8.25089 z "/>
<path fill="rgb(241,240,234)" stroke="rgb(241,240,234)" d="M 10.0035,8.25089 l -1.77636e-15,6.25089 -10.0035,0 0,-6.25089 0.245616,0 0,5.48553 0.00199778,0.0457568 0.00597815,0.0454085 0.00991301,0.0447147 0.0137724,0.0436806 0.017527,0.042314 0.0211483,0.0406254 0.0246085,0.0386276 0.0278815,0.0363359 0.0309423,0.0337676 0.0337676,0.0309423 0.0363359,0.0278815 0.0386276,0.0246085 0.0406254,0.0211483 0.042314,0.017527 0.0436806,0.0137724 0.0447147,0.00991301 0.0454085,0.00597815 0.0457568,0.00199778 8.47818,1.06581e-14 0.0457568,-0.00199778 0.0454085,-0.00597815 0.0447147,-0.00991301 0.0436806,-0.0137724 0.042314,-0.017527 0.0406254,-0.0211483 0.0386276,-0.0246085 0.0363359,-0.0278815 0.0337676,-0.0309423 0.0309423,-0.0337676 0.0278815,-0.0363359 0.0246085,-0.0386276 0.0211483,-0.0406254 0.017527,-0.042314 0.0137724,-0.0436806 0.00991301,-0.0447147 0.00597815,-0.0454085 0.00199778,-0.0457568 1.77636e-15,-5.48553 0.229744,0 z "/>
<path fill="rgb(241,240,234)" stroke="rgb(241,240,234)" d="M 5.62388,11.0027 l -2.56341,0 0,-5.49954 1.00124,0 0,2.15596 1.56216,0 0.0931815,0.00182709 0.208288,0.0127896 0.193671,0.0292334 0.177228,0.042023 0.164438,0.0584668 0.147994,0.0712565 0.109625,0.0694294 0.149821,0.11328 0.135205,0.127896 0.118761,0.142513 0.104144,0.15713 0.062121,0.115107 -3.22664,0.0456772 0,1.37032 1.60236,0 1.58774,0.137032 -0.0950086,0.142513 -0.111452,0.133377 -0.129723,0.124242 -0.147994,0.11328 -0.166265,0.102317 -0.0639481,0.0347147 -0.162611,0.0712565 -0.173573,0.0548127 -0.182709,0.040196 -0.191844,0.0237522 -0.202807,0.00913544 z "/>
<path fill="rgb(241,240,234)" stroke="rgb(241,240,234)" d="M 7.25182,10.1531 l -1.58774,-0.137032 0.082219,-0.00182709 0.197326,-0.0292334 0.166265,-0.0602939 0.138859,-0.0931815 0.0182709,-0.0182709 0.115107,-0.142513 0.0676023,-0.164438 0.0237522,-0.18819 0,-0.00913544 -0.0274063,-0.18819 -0.0749106,-0.160784 -0.122415,-0.129723 -0.0511585,-0.0383689 -0.15713,-0.082219 -0.177228,-0.0475043 -0.199153,-0.0164438 -1.60236,0 3.22664,-0.0456772 0.0730835,0.175401 0.0548127,0.177228 0.0310605,0.180882 0.0109625,0.184536 -0.00548127,0.15713 -0.0237522,0.184536 -0.040196,0.175401 -0.0602939,0.162611 -0.0767377,0.155303 z "/>
<path fill="rgb(42,41,42)" stroke="rgb(42,41,42)" d="M 6.9266,13.4656 l -0.729008,0 0,-0.999418 0.745452,0 0,0.179055 -0.56457,0 0,0.272236 0.299643,0 0,0.182709 -0.299643,0 0,0.186363 0.548127,0 0,0.179055 z "/>
<path fill="rgb(42,41,42)" stroke="rgb(42,41,42)" d="M 5.93814,13.4656 l -0.171746,0 0,-0.661406 0.0182709,-0.338011 0.153475,0 0,0.999418 z "/>
<path fill="rgb(42,41,42)" stroke="rgb(42,41,42)" d="M 5.30597,13.4656 l 0,-0.312432 0.478697,-0.686985 -0.0182709,0.338011 -0.460426,0.661406 z "/>
<path fill="rgb(42,41,42)" stroke="rgb(42,41,42)" d="M 5.30597,13.4656 l -0.173573,0 0,-0.999418 0.173573,0 0,0.686985 0,0.312432 z "/>
<path fill="rgb(42,41,42)" stroke="rgb(42,41,42)" d="M 4.48743,13.482 l -0.0858732,-0.00730835 -0.0858732,-0.0255792 -0.0749106,-0.0438501 -0.0639481,-0.0602939 -0.0182709,-0.0255792 0.328876,-0.0164438 0.0255792,0 0.0840461,-0.0274063 0.0639481,-0.0602939 0.0310605,-0.0584668 0.0237522,-0.0858732 0.00730835,-0.104144 -0.00182709,-0.0584668 -0.0164438,-0.0931815 -0.0310605,-0.0767377 -0.0292334,-0.0456772 -0.0694294,-0.0493314 -0.0877003,-0.0164438 0.319741,-0.00913544 0.040196,0.0730835 0.0292334,0.0840461 0.0182709,0.0931815 0.00548127,0.102317 0,0.0328876 -0.0109625,0.0986628 -0.0219251,0.0895273 -0.0347147,0.0803919 -0.0456772,0.0694294 -0.0511585,0.0529856 -0.0730835,0.0475043 -0.082219,0.0292334 -0.0931815,0.0109625 z "/>
<path fill="rgb(42,41,42)" stroke="rgb(42,41,42)" d="M 4.15856,13.3194 l -0.042023,-0.0712565 -0.0292334,-0.082219 -0.0164438,-0.0950086 -0.00730835,-0.104144 0,-0.00730835 0.00730835,-0.0986628 0.020098,-0.0895273 0.0310605,-0.0840461 0.042023,-0.0749106 0.0127896,-0.0146167 0.0602939,-0.0657752 0.0730835,-0.0475043 0.0840461,-0.0274063 0.0931815,-0.00913544 0.0785648,0.00730835 0.0840461,0.0255792 0.0749106,0.0456772 0.0639481,0.0657752 0.0182709,0.0255792 -0.319741,0.00913544 -0.0292334,0.00182709 -0.082219,0.0274063 -0.0657752,0.062121 -0.0328876,0.0584668 -0.0237522,0.0858732 -0.00730835,0.104144 0.00548127,0.0858732 0.0219251,0.0895273 0.0365418,0.0730835 0.0164438,0.020098 0.0712565,0.0511585 0.0895273,0.0164438 -0.328876,0.0164438 z "/>
<path fill="rgb(42,41,42)" stroke="rgb(42,41,42)" d="M 3.89728,13.4656 l -0.752761,0 0,-0.177228 0.535337,0 -0.568225,-0.619383 0,-0.202807 0.785648,0 0,0.179055 -0.56457,0 0.56457,0.615729 0,0.204634 z "/>
<path fill="rgb(42,41,42)" stroke="rgb(42,41,42)" d="M 3.38957,1.14605 l -0.000945666,-0.0216593 -0.0028298,-0.0214945 -0.0046924,-0.021166 -0.00651928,-0.0206765 -0.00829655,-0.0200296 -0.0100107,-0.0192303 -0.0116486,-0.0182847 -0.0131979,-0.0171998 -0.0146467,-0.0159841 -0.0159841,-0.0146467 -0.0171998,-0.0131979 -0.0182847,-0.0116486 -0.0192303,-0.0100107 -0.0200296,-0.00829655 -0.0206765,-0.00651928 -0.021166,-0.00469239 -0.0214945,-0.0028298 -0.0216593,-0.000945665 -0.0216593,0.000945665 -0.0214945,0.0028298 -0.021166,0.00469239 -0.0206765,0.00651928 -0.0200296,0.00829655 -0.0192303,0.0100107 -0.0182847,0.0116486 -0.0171998,0.0131979 -0.0159841,0.0146467 -0.0146467,0.0159841 -0.0131979,0.0171998 -0.0116486,0.0182847 -0.0100107,0.0192303 -0.00829655,0.0200296 -0.00651928,0.0206765 -0.0046924,0.021166 -0.0028298,0.0214945 -0.000945666,0.0216593 0.000945665,-0.0216593 0.0028298,-0.0214945 0.00469239,-0.021166 0.00651928,-0.0206765 0.00829655,-0.0200296 0.0100107,-0.0192303 0.0116486,-0.0182847 0.0131979,-0.0171998 0.0146467,-0.0159841 0.0159841,-0.0146467 0.0171998,-0.0131979 0.0182847,-0.0116486 0.0192303,-0.0100107 0.0200296,-0.00829655 0.0206765,-0.00651928 0.021166,-0.00469239 0.0214945,-0.0028298 0.0216593,-0.000945665 0.0216593,0.000945665 0.0214945,0.0028298 0.021166,0.00469239 0.0206765,0.00651928 0.0200296,0.00829655 0.0192303,0.0100107 0.0182847,0.0116486 0.0171998,0.0131979 0.0159841,0.0146467 0.0146467,0.0159841 0.0131979,0.0171998 0.0116486,0.0182847 0.0100107,0.0192303 0.00829655,0.0200296 0.00651928,0.0206765 0.00469239,0.021166 0.0028298,0.0214945 0.000945665,0.0216593 z "/>
<path fill="rgb(42,41,42)" stroke="rgb(42,41,42)" d="M 3.38957,1.14605 l -0.000945665,0.0216593 -0.0028298,0.0214945 -0.00469239,0.021166 -0.00651928,0.0206765 -0.00829655,0.0200296 -0.0100107,0.0192303 -0.0116486,0.0182847 -0.0131979,0.0171998 -0.0146467,0.0159841 -0.0159841,0.0146467 -0.0171998,0.0131979 -0.0182847,0.0116486 -0.0192303,0.0100107 -0.0200296,0.00829655 -0.0206765,0.00651928 -0.021166,0.00469239 -0.0214945,0.0028298 -0.0216593,0.000945665 -0.0216593,-0.000945665 -0.0214945,-0.0028298 -0.021166,-0.00469239 -0.0206765,-0.00651928 -0.0200296,-0.00829655 -0.0192303,-0.0100107 -0.0182847,-0.0116486 -0.0171998,-0.0131979 -0.0159841,-0.0146467 -0.0146467,-0.0159841 -0.0131979,-0.0171998 -0.0116486,-0.0182847 -0.0100107,-0.0192303 -0.00829655,-0.0200296 -0.00651928,-0.0206765 -0.00469239,-0.021166 -0.0028298,-0.0214945 -0.000945665,-0.0216593 0.000945666,0.0216593 0.0028298,0.0214945 0.0046924,0.021166 0.00651928,0.0206765 0.00829655,0.0200296 0.0100107,0.0192303 0.0116486,0.0182847 0.0131979,0.0171998 0.0146467,0.0159841 0.0159841,0.0146467 0.0171998,0.0131979 0.0182847,0.0116486 0.0192303,0.0100107 0.0200296,0.00829655 0.0206765,0.00651928 0.021166,0.00469239 0.0214945,0.0028298 0.0216593,0.000945665 0.0216593,-0.000945665 0.0214945,-0.0028298 0.021166,-0.00469239 0.0206765,-0.00651928 0.0200296,-0.00829655 0.0192303,-0.0100107 0.0182847,-0.0116486 0.0171998,-0.0131979 0.0159841,-0.0146467 0.0146467,-0.0159841 0.0131979,-0.0171998 0.0116486,-0.0182847 0.0100107,-0.0192303 0.00829655,-0.0200296 0.00651928,-0.0206765 0.0046924,-0.021166 0.0028298,-0.0214945 0.000945666,-0.0216593 z "/>
<path fill="rgb(42,41,42)" stroke="rgb(42,41,42)" d="M 3.38957,1.14605 l -0.000945666,0.0216593 -0.0028298,0.0214945 -0.0046924,0.021166 -0.00651928,0.0206765 -0.00829655,0.0200296 -0.0100107,0.0192303 -0.0116486,0.0182847 -0.0131979,0.0171998 -0.0146467,0.0159841 -0.0159841,0.0146467 -0.0171998,0.0131979 -0.0182847,0.0116486 -0.0192303,0.0100107 -0.0200296,0.00829655 -0.0206765,0.00651928 -0.021166,0.00469239 -0.0214945,0.0028298 -0.0216593,0.000945665 -0.0216593,-0.000945665 -0.0214945,-0.0028298 -0.021166,-0.00469239 -0.0206765,-0.00651928 -0.0200296,-0.00829655 -0.0192303,-0.0100107 -0.0182847,-0.0116486 -0.0171998,-0.0131979 -0.0159841,-0.0146467 -0.0146467,-0.0159841 -0.0131979,-0.0171998 -0.0116486,-0.0182847 -0.0100107,-0.0192303 -0.00829655,-0.0200296 -0.00651928,-0.0206765 -0.0046924,-0.021166 -0.0028298,-0.0214945 -0.000945666,-0.0216593 0.000945666,-0.0216593 0.0028298,-0.0214945 0.0046924,-0.021166 0.00651928,-0.0206765 0.00829655,-0.0200296 0.0100107,-0.0192303 0.0116486,-0.0182847 0.0131979,-0.0171998 0.0146467,-0.0159841 0.0159841,-0.0146467 0.0171998,-0.0131979 0.0182847,-0.0116486 0.0192303,-0.0100107 0.0200296,-0.00829655 0.0206765,-0.00651928 0.021166,-0.00469239 0.0214945,-0.0028298 0.0216593,-0.000945665 0.0216593,0.000945665 0.0214945,0.0028298 0.021166,0.00469239 0.0206765,0.00651928 0.0200296,0.00829655 0.0192303,0.0100107 0.0182847,0.0116486 0.0171998,0.0131979 0.0159841,0.0146467 0.0146467,0.0159841 0.0131979,0.0171998 0.0116486,0.0182847 0.0100107,0.0192303 0.00829655,0.0200296 0.00651928,0.0206765 0.0046924,0.021166 0.0028298,0.0214945 0.000945666,0.0216593 z "/>
<path fill="rgb(42,41,42)" stroke="rgb(42,41,42)" d="M 4.63659,1.14605 l -0.000945665,0.0216593 -0.0028298,0.0214945 -0.00469239,0.021166 -0.00651928,0.0206765 -0.00829655,0.0200296 -0.0100107,0.0192303 -0.0116486,0.0182847 -0.0131979,0.0171998 -0.0146467,0.0159841 -0.0159841,0.0146467 -0.0171998,0.0131979 -0.0182847,0.0116486 -0.0192303,0.0100107 -0.0200296,0.00829655 -0.0206765,0.00651928 -0.021166,0.00469239 -0.0214945,0.0028298 -0.0216593,0.000945665 -0.0216593,-0.000945665 -0.0214945,-0.0028298 -0.021166,-0.00469239 -0.0206765,-0.00651928 -0.0200296,-0.00829655 -0.0192303,-0.0100107 -0.0182847,-0.0116486 -0.0171998,-0.0131979 -0.0159841,-0.0146467 -0.0146467,-0.0159841 -0.0131979,-0.0171998 -0.0116486,-0.0182847 -0.0100107,-0.0192303 -0.00829655,-0.0200296 -0.00651928,-0.0206765 -0.00469239,-0.021166 -0.0028298,-0.0214945 -0.000945665,-0.0216593 0.000945665,-0.0216593 0.0028298,-0.0214945 0.00469239,-0.021166 0.00651928,-0.0206765 0.00829655,-0.0200296 0.0100107,-0.0192303 0.0116486,-0.0182847 0.0131979,-0.0171998 0.0146467,-0.0159841 0.0159841,-0.0146467 0.0171998,-0.0131979 0.0182847,-0.0116486 0.0192303,-0.0100107 0.0200296,-0.00829655 0.0206765,-0.00651928 0.021166,-0.00469239 0.0214945,-0.0028298 0.0216593,-0.000945665 0.0216593,0.000945665 0.0214945,0.0028298 0.021166,0.00469239 0.0206765,0.00651928 0.0200296,0.00829655 0.0192303,0.0100107 0.0182847,0.0116486 0.0171998,0.0131979 0.0159841,0.0146467 0.0146467,0.0159841 0.0131979,0.0171998 0.0116486,0.0182847 0.0100107,0.0192303 0.00829655,0.0200296 0.00651928,0.0206765 0.00469239,0.021166 0.0028298,0.0214945 0.000945665,0.0216593 z "/>
<path fill="rgb(42,41,42)" stroke="rgb(42,41,42)" d="M 5.20933,1.14605 l -0.000945665,0.0216593 -0.0028298,0.0214945 -0.00469239,0.021166 -0.00651928,0.0206765 -0.00829655,0.0200296 -0.0100107,0.0192303 -0.0116486,0.0182847 -0.0131979,0.0171998 -0.0146467,0.0159841 -0.0159841,0.0146467 -0.0171998,0.0131979 -0.0182847,0.0116486 -0.0192303,0.0100107 -0.0200296,0.00829655 -0.0206765,0.00651928 -0.021166,0.00469239 -0.0214945,0.0028298 -0.0216593,0.000945665 -0.0216593,-0.000945665 -0.0214945,-0.0028298 -0.021166,-0.00469239 -0.0206765,-0.00651928 -0.0200296,-0.00829655 -0.0192303,-0.0100107 -0.0182847,-0.0116486 -0.0171998,-0.0131979 -0.0159841,-0.0146467 -0.0146467,-0.0159841 -0.0131979,-0.0171998 -0.0116486,-0.0182847 -0.0100107,-0.0192303 -0.00829655,-0.0200296 -0.00651928,-0.0206765 -0.00469239,-0.021166 -0.0028298,-0.0214945 -0.000945665,-0.0216593 0.000945665,-0.0216593 0.0028298,-0.0214945 0.00469239,-0.021166 0.00651928,-0.0206765 0.00829655,-0.0200296 0.0100107,-0.0192303 0.0116486,-0.0182847 0.0131979,-0.0171998 0.0146467,-0.0159841 0.0159841,-0.0146467 0.0171998,-0.0131979 0.0182847,-0.0116486 0.0192303,-0.0100107 0.0200296,-0.00829655 0.0206765,-0.00651928 0.021166,-0.00469239 0.0214945,-0.0028298 0.0216593,-0.000945665 0.0216593,0.000945665 0.0214945,0.0028298 0.021166,0.00469239 0.0206765,0.00651928 0.0200296,0.00829655 0.0192303,0.0100107 0.0182847,0.0116486 0.0171998,0.0131979 0.0159841,0.0146467 0.0146467,0.0159841 0.0131979,0.0171998 0.0116486,0.0182847 0.0100107,0.0192303 0.00829655,0.0200296 0.00651928,0.0206765 0.00469239,0.021166 0.0028298,0.0214945 0.000945665,0.0216593 z "/>
<path fill="rgb(42,41,42)" stroke="rgb(42,41,42)" d="M 4.56714,2.01266 l 0,0.0806249 -0.909941,-0.503974 -0.0900589,0 0,-0.380491 0.525525,0 0.00195859,0.0216278 0.00387609,0.0213676 0.00576281,0.0209377 0.00760378,0.0203416 0.00938437,0.019584 0.0110904,0.0186709 0.0127085,0.0176095 0.0142256,0.0164083 0.0156297,0.0150768 0.0169098,0.0136256 0.0180556,0.0120662 0.019058,0.0104111 0.0199092,0.0086732 0.0206022,0.00686649 0.0211316,0.00500526 0.0214933,0.00310428 0.0216843,0.00117866 0.233391,0.000114965 0,0.143108 -0.0286264,0 0,0.0209112 0.0286264,0.0286264 0,0.107459 -0.0867069,-0.0805914 -0.535972,0 0.622679,0.351657 z "/>
<path fill="rgb(42,41,42)" stroke="rgb(42,41,42)" d="M 5.56714,1.38332 l -0.814559,0.201274 -0.185441,0 0,-0.143108 0.462815,0.000227976 0.021511,-0.000920152 0.0213511,-0.00277477 0.0210317,-0.00460865 0.020555,-0.00640807 0.0199246,-0.0081596 0.0191454,-0.00985013 0.018223,-0.011467 0.0171644,-0.0129982 0.0159775,-0.0144323 0.0146712,-0.0157584 0.0132552,-0.0169668 0.0117401,-0.0180483 0.0101372,-0.0189949 0.00845864,-0.0197995 0.0067168,-0.0204562 0.00492475,-0.0209599 0.00309589,-0.0213069 0.289301,0 0,0.165515 z M 4.83064,2.16147 l -0.140387,0 -0.123114,-0.068187 0,-0.0806249 0.263501,0.148812 z M 5.09447,2.16147 l -0.0755975,0 -0.451739,-0.419878 0,-0.107459 0.527337,0.527337 z M 5.36396,2.16147 l 0.0349249,-0.327227 0.0251233,0.068476 -0.0257071,0.258751 -0.0343411,0 z "/>
<path fill="rgb(42,41,42)" stroke="rgb(42,41,42)" d="M 3.19183,2.01099 l 0,-0.279037 -0.437368,0 0.0936064,0.279037 0.343761,0 z M 2.83244,1.16147 l 0.00274579,0.0268264 0.00506582,0.0264864 0.00734756,0.0259463 0.00957374,0.0252099 0.0117275,0.0242829 0.0137927,0.0231723 0.0157535,0.0218866 0.0175952,0.0204353 0.0193039,0.0188296 0.0208667,0.0170814 0.0222717,0.0152042 0.0235083,0.0132119 0.0245671,0.0111198 0.0254402,0.00894364 0.026121,0.00669983 0.0266043,0.00440537 0.0268864,0.00207759 0.0269652,-0.000265889 0.0268402,-0.00260736 0.0265122,-0.00492912 0.0259838,-0.00721361 0.0252589,-0.00944356 0.0243431,-0.0116021 0.0232432,-0.0136729 0.0219675,-0.0156404 0.0205258,-0.0174896 0.0189289,-0.0192066 0.0171889,-0.0207783 0.0153189,-0.022193 0.013333,-0.0234398 0.0112464,-0.0245094 0.00907476,-0.0253938 0.0068345,-0.0260861 0.121954,0 0,0.380491 -0.119659,0 0,-0.0850087 -0.0996882,0 0,0.23955 -0.0305243,0.359845 -0.574836,0 -0.156343,-0.487685 0.0284259,-0.369315 -0.0473766,0 0,-0.0852264 0.265309,0 z "/>
<path fill="rgb(42,41,42)" stroke="rgb(42,41,42)" d="M 4.69025,2.16147 l 0.140387,0 0.20186,0.114 0,-0.101339 -0.0136215,-0.0126608 0.0755975,0 0.173443,0.173443 0.080258,-0.0255224 0.0157876,-0.147921 0.0343411,0 -0.0274367,0.276161 -0.000789548,0.00549701 -0.00126561,0.00540728 -0.00173205,0.00527641 -0.0021853,0.00510538 -0.00262193,0.0048955 -0.0030386,0.00464837 -0.00343215,0.00436587 -0.00379958,0.00405014 -0.0041381,0.00370359 -0.00444513,0.00332886 -0.00471833,0.00292879 -0.00495562,0.00250644 -0.00515521,0.00206502 -0.00531556,0.00160788 -0.00543546,0.0011385 -0.005514,0.000660463 -0.00555058,0.000177397 -0.00554493,-0.000307018 -0.00549707,-0.000789097 -0.00540738,-0.00126517 -0.00527655,-0.00173162 -0.594797,-0.329431 z "/>
<path fill="rgb(42,41,42)" stroke="rgb(42,41,42)" d="M 5.56714,1.38332 l 0,-0.165515 0.0112276,0 0,0.162741 -0.0112276,0.0027743 z "/>
<path fill="rgb(42,41,42)" stroke="rgb(42,41,42)" d="M 5.57732,1.58955 l -0.00460494,-0.014491 -0.00331489,-0.0148393 -0.00199923,-0.0150731 -0.00066813,-0.0151904 0.000657163,-0.0150654 0.0019665,-0.014951 0.00326089,-0.014723 0.00453052,-0.0143831 0.00576572,-0.013934 0.00695713,-0.013379 0.00809569,-0.0127224 0.00917275,-0.0119691 0.0101801,-0.0111249 0.0111102,-0.0101962 0.0119558,-0.00919009 0.0127106,-0.00811413 0.0133689,-0.00697652 0.0139256,-0.00578592 0.0143765,-0.00455137 0.0147182,-0.00328224 0.0149481,-0.00198817 0.0150645,-0.000679005 0.0150664,0.00063532 0.0149538,0.00194482 0.0147277,0.00323954 0.0143897,0.00450966 0.0139423,0.00574552 0.0133891,0.00693773 0.0127341,0.00807724 0.0119824,0.00915539 0.0111397,0.010164 0.0102123,0.0110954 0.00920742,0.0119425 0.00813255,0.0126989 0.0069959,0.0133588 0.0058061,0.0139172 0.00460494,0.014491 0.00331489,0.0148393 0.00199923,0.0150731 0.00066813,0.0151904 -0.000657163,0.0150654 -0.0019665,0.014951 -0.00326089,0.014723 -0.00453052,0.0143831 -0.00576572,0.013934 -0.00695713,0.013379 -0.00809569,0.0127224 -0.00917275,0.0119691 -0.0101801,0.0111249 -0.0111102,0.0101962 -0.0119558,0.00919009 -0.0127106,0.00811413 -0.0133689,0.00697652 -0.0139256,0.00578592 -0.0143765,0.00455137 -0.0147182,0.00328224 -0.0149481,0.00198817 -0.0150645,0.000679005 -0.0150664,-0.00063532 -0.0149538,-0.00194482 -0.0147277,-0.00323954 -0.0143897,-0.00450966 -0.0139423,-0.00574552 -0.0133891,-0.00693773 -0.0127341,-0.00807724 -0.0119824,-0.00915539 -0.0111397,-0.010164 -0.0102123,-0.0110954 -0.00920742,-0.0119425 -0.00813255,-0.0126989 -0.0069959,-0.0133588 -0.0058061,-0.0139172 z "/>
<path fill="rgb(42,41,42)" stroke="rgb(42,41,42)" d="M 6.77212,1.15007 l -0.00460494,-0.014491 -0.00331489,-0.0148393 -0.00199923,-0.0150731 -0.00066813,-0.0151904 0.000657163,-0.0150654 0.0019665,-0.014951 0.00326089,-0.014723 0.00453052,-0.0143831 0.00576572,-0.013934 0.00695713,-0.013379 0.00809569,-0.0127224 0.00917275,-0.0119691 0.0101801,-0.0111249 0.0111102,-0.0101962 0.0119558,-0.00919009 0.0127106,-0.00811413 0.0133689,-0.00697652 0.0139256,-0.00578592 0.0143765,-0.00455137 0.0147182,-0.00328224 0.0149481,-0.00198817 0.0150645,-0.000679005 0.0150664,0.00063532 0.0149538,0.00194482 0.0147277,0.00323954 0.0143897,0.00450966 0.0139423,0.00574552 0.0133891,0.00693773 0.0127341,0.00807724 0.0119824,0.00915539 0.0111397,0.010164 0.0102123,0.0110954 0.00920742,0.0119425 0.00813255,0.0126989 0.0069959,0.0133588 0.0058061,0.0139172 0.00460494,0.014491 0.00331489,0.0148393 0.00199923,0.0150731 0.00066813,0.0151904 -0.000657163,0.0150654 -0.0019665,0.014951 -0.00326089,0.014723 -0.00453052,0.0143831 -0.00576572,0.013934 -0.00695713,0.013379 -0.00809569,0.0127224 -0.00917275,0.0119691 -0.0101801,0.0111249 -0.0111102,0.0101962 -0.0119558,0.00919009 -0.0127106,0.00811413 -0.0133689,0.00697652 -0.0139256,0.00578592 -0.0143765,0.00455137 -0.0147182,0.00328224 -0.0149481,0.00198817 -0.0150645,0.000679005 -0.0150664,-0.00063532 -0.0149538,-0.00194482 -0.0147277,-0.00323954 -0.0143897,-0.00450966 -0.0139423,-0.00574552 -0.0133891,-0.00693773 -0.0127341,-0.00807724 -0.0119824,-0.00915539 -0.0111397,-0.010164 -0.0102123,-0.0110954 -0.00920742,-0.0119425 -0.00813255,-0.0126989 -0.0069959,-0.0133588 -0.0058061,-0.0139172 z "/>
<path fill="rgb(42,41,42)" stroke="rgb(42,41,42)" d="M 6.66302,1.58619 l 0.0795722,0.216882 0.202036,-0.0741255 0.00362967,-0.00135726 0.00350145,-0.00166028 0.00334799,-0.00195132 0.00317039,-0.0022283 0.00296993,-0.00248921 0.00274806,-0.00273218 0.00250638,-0.00295545 0.00224664,-0.00315742 0.00197069,-0.00333662 0.00168054,-0.00349177 0.111866,-0.260152 -0.421246,0.142755 z M 7.32367,1.01176 l 0.0332511,0.0906293 0,0.204779 -0.207286,0.112293 -0.139894,0.323386 -0.00197561,0.00396948 -0.00232098,0.00377794 -0.00264794,0.00355643 -0.0029539,0.0033067 -0.00323642,0.00303074 -0.00349326,0.00273074 -0.00372239,0.00240907 -0.00392199,0.00206829 -0.00409047,0.0017111 -0.586784,0.215286 -3.37508e-14,1.24345e-14 -0.00802899,0.00246848 -0.00821087,0.00177192 -0.00833244,0.00106234 -0.0083928,0.000344965 -0.00470786,-0.000210355 0,-0.0503819 0.00404743,0.000215818 0.00412477,-0.000151485 0.00409447,-0.000521523 0.00403104,-0.000887342 0.003935,-0.00124598 0.317906,-0.116637 -0.0801178,-0.218369 -0.258021,0.0878625 0,-0.387605 0.368159,-0.135075 0.00744884,0.017719 0.00895225,0.017009 0.0103887,0.0161717 0.0117474,0.0152135 0.0130182,0.0141413 0.0141915,0.0129634 0.0152587,0.0116885 0.0162118,0.0103261 0.0170435,0.00888645 0.0177477,0.00738031 0.0183191,0.00581894 0.0187534,0.00421404 0.0190475,0.00257761 0.019199,0.00092189 0.0192068,-0.000740728 0.0190709,-0.0023978 0.0187924,-0.00403694 0.0183732,-0.00564586 0.0178165,-0.00721255 0.0171266,-0.00872526 0.0163085,-0.0101727 0.0153683,-0.011544 0.0143132,-0.0128289 0.013151,-0.0140179 0.0118904,-0.015102 0.0105408,-0.016073 0.00911231,-0.0169238 0.00761567,-0.017648 0.00606204,-0.0182401 0.00446306,-0.0186957 0.00283068,-0.0190115 0.00117712,-0.019185 -0.000485246,-0.0192149 -0.00214398,-0.0191011 -0.00378667,-0.0188444 0.174459,-0.0252443 z "/>
<path fill="rgb(42,41,42)" stroke="rgb(42,41,42)" d="M 7.35692,1.10239 l 0.0626746,0.170826 -0.0626746,0.0339526 0,-0.204779 z "/>
<path fill="rgb(42,41,42)" stroke="rgb(42,41,42)" d="M 6.35692,1.93974 l 0,0.0503819 -0.00368365,-0.000164591 -0.00832859,-0.0010921 -0.00820449,-0.00180124 -0.00802012,-0.00249714 -0.00777684,-0.00317471 -0.306065,-0.140532 -0.573984,0.10777 -0.0168451,-0.0459129 -0.0251233,-0.068476 -0.0419684,-0.114389 0.178157,-0.102441 0.00852624,0.0175958 0.0100434,0.0167762 0.0114825,0.015826 0.0128322,0.0147528 0.0140821,0.0135648 0.0152225,0.0122713 0.0162445,0.0108823 0.0171402,0.00940871 0.0179025,0.00786193 0.0185256,0.006254 0.0190046,0.00459742 0.0193357,0.00290509 0.0195165,0.00119016 0.0195454,-0.000534032 0.0194224,-0.00225407 0.0191482,-0.00395657 0.0187252,-0.0056283 0.0181564,-0.00725624 0.0174465,-0.00882775 0.0166008,-0.0103306 0.0156261,-0.0117531 0.0145298,-0.0130842 0.0133204,-0.0143135 0.0120075,-0.0154314 0.0106012,-0.0164294 0.00911237,-0.0172995 0.00755271,-0.0180351 0.00593429,-0.0186304 0.00426972,-0.0190809 0.00257194,-0.0193828 0.000854151,-0.0195341 -0.000870281,-0.0195334 -0.00258794,-0.0193807 -0.00428548,-0.0190773 -0.00594967,-0.0186255 0.410252,-0.150518 0,0.387605 -0.31733,0.108059 0.301461,0.13716 0.00378018,0.00165737 0.00391382,0.00131098 0.00401579,0.000953982 0.00408527,0.000589264 7.42637e-05,3.95991e-06 z "/>
<path fill="rgb(42,41,42)" stroke="rgb(42,41,42)" d="M 9.51129,8.25089 l 0.2625,0 -1.77636e-15,5.48553 -0.00199778,0.0457568 -0.00597815,0.0454085 -0.00991301,0.0447147 -0.0137724,0.0436806 -0.017527,0.042314 -0.0211483,0.0406254 -0.0246085,0.0386276 -0.0278815,0.0363359 -0.0309423,0.0337676 -0.0337676,0.0309423 -0.0363359,0.0278815 -0.0386276,0.0246085 -0.0406254,0.0211483 -0.042314,0.017527 -0.0436806,0.0137724 -0.0447147,0.00991301 -0.0454085,0.00597815 -0.0457568,0.00199778 -8.47818,-1.06581e-14 -0.0457568,-0.00199778 -0.0454085,-0.00597815 -0.0447147,-0.00991301 -0.0436806,-0.0137724 -0.042314,-0.017527 -0.0406254,-0.0211483 -0.0386276,-0.0246085 -0.0363359,-0.0278815 -0.0337676,-0.0309423 -0.0309423,-0.0337676 -0.0278815,-0.0363359 -0.0246085,-0.0386276 -0.0211483,-0.0406254 -0.017527,-0.042314 -0.0137724,-0.0436806 -0.00991301,-0.0447147 -0.00597815,-0.0454085 -0.00199778,-0.0457568 0,-5.48553 0.2625,0 0,5.48553 0.000998892,0.0228784 0.00298907,0.0227043 0.00495651,0.0223574 0.00688622,0.0218403 0.00876352,0.021157 0.0105741,0.0203127 0.0123043,0.0193138 0.0139407,0.0181679 0.0154711,0.0168838 0.0168838,0.0154711 0.0181679,0.0139407 0.0193138,0.0123043 0.0203127,0.0105741 0.021157,0.00876352 0.0218403,0.00688622 0.0223574,0.00495651 0.0227043,0.00298907 0.0228784,0.000998892 8.47818,8.88178e-15 0.0228784,-0.000998892 0.0227043,-0.00298907 0.0223574,-0.00495651 0.0218403,-0.00688622 0.021157,-0.00876352 0.0203127,-0.0105741 0.0193138,-0.0123043 0.0181679,-0.0139407 0.0168838,-0.0154711 0.0154711,-0.0168838 0.0139407,-0.0181679 0.0123043,-0.0193138 0.0105741,-0.0203127 0.00876352,-0.021157 0.00688622,-0.0218403 0.00495651,-0.0223574 0.00298907,-0.0227043 0.000998892,-0.0228784 1.77636e-15,-5.48553 z "/>
<path fill="rgb(42,41,42)" stroke="rgb(42,41,42)" d="M 9.51129,8.25089 l -1.77636e-15,-7.49085 -0.000998892,-0.0228784 -0.00298907,-0.0227043 -0.00495651,-0.0223574 -0.00688622,-0.0218403 -0.00876352,-0.021157 -0.0105741,-0.0203127 -0.0123043,-0.0193138 -0.0139407,-0.0181679 -0.0154711,-0.0168838 -0.0168838,-0.0154711 -0.0181679,-0.0139407 -0.0193138,-0.0123043 -0.0203127,-0.0105741 -0.021157,-0.00876352 -0.0218403,-0.00688622 -0.0223574,-0.00495651 -0.0227043,-0.00298907 -0.0228784,-0.000998892 -8.47818,-8.88178e-15 -0.0228784,0.000998892 -0.0227043,0.00298907 -0.0223574,0.00495651 -0.0218403,0.00688622 -0.021157,0.00876352 -0.0203127,0.0105741 -0.0193138,0.0123043 -0.0181679,0.0139407 -0.0168838,0.0154711 -0.0154711,0.0168838 -0.0139407,0.0181679 -0.0123043,0.0193138 -0.0105741,0.0203127 -0.00876352,0.021157 -0.00688622,0.0218403 -0.00495651,0.0223574 -0.00298907,0.0227043 -0.000998892,0.0228784 0,7.49085 -0.2625,0 0,-7.49085 0.00199778,-0.0457568 0.00597815,-0.0454085 0.00991301,-0.0447147 0.0137724,-0.0436806 0.017527,-0.042314 0.0211483,-0.0406254 0.0246085,-0.0386276 0.0278815,-0.0363359 0.0309423,-0.0337676 0.0337676,-0.0309423 0.0363359,-0.0278815 0.0386276,-0.0246085 0.0406254,-0.0211483 0.042314,-0.017527 0.0436806,-0.0137724 0.0447147,-0.00991301 0.0454085,-0.00597815 0.0457568,-0.00199778 8.47818,7.10543e-15 0.0457568,0.00199778 0.0454085,0.00597815 0.0447147,0.00991301 0.0436806,0.0137724 0.042314,0.017527 0.0406254,0.0211483 0.0386276,0.0246085 0.0363359,0.0278815 0.0337676,0.0309423 0.0309423,0.0337676 0.0278815,0.0363359 0.0246085,0.0386276 0.0211483,0.0406254 0.017527,0.042314 0.0137724,0.0436806 0.00991301,0.0447147 0.00597815,0.0454085 0.00199778,0.0457568 0,7.49085 -0.2625,0 z "/>
</g></g></svg>
