<?xml version="1.0" encoding="UTF-8" standalone="no"?>
<!DOCTYPE svg PUBLIC "-//W3C//DTD SVG 1.1//EN" "http://www.w3.org/Graphics/SVG/1.1/DTD/svg11-flat.dtd"
[

]>
<svg xmlns="http://www.w3.org/2000/svg"  viewBox="-0.0583333 -0.0583333 5.61667 3.61667"><g fill="none" stroke="black" stroke-width="0.0125" transform="translate(0,3.5) scale(1, -1)">
<g id="Output" >
<path fill="rgb(0,125,55)" stroke="rgb(0,125,55)" d="M 1.5,0.625394 l -0.00171239,0.0392201 -0.00512413,0.0389216 -0.00849687,0.0383269 -0.0118049,0.0374405 -0.0150232,0.0362692 -0.0181271,0.0348218 -0.021093,0.0331094 -0.0238984,0.031145 -0.0265219,0.0289436 -0.0289436,0.0265219 -0.031145,0.0238984 -0.0331094,0.021093 -0.0348218,0.0181271 -0.0362692,0.0150232 -0.0374405,0.0118049 -0.0383269,0.00849687 -0.0389216,0.00512413 -0.0392201,0.00171239 -0.0392201,-0.00171239 -0.0389216,-0.00512413 -0.0383269,-0.00849687 -0.0374405,-0.0118049 -0.0362692,-0.0150232 -0.0348218,-0.0181271 -0.0331094,-0.021093 -0.031145,-0.0238984 -0.0289436,-0.0265219 -0.0265219,-0.0289436 -0.0238984,-0.031145 -0.021093,-0.0331094 -0.0181271,-0.0348218 -0.0150232,-0.0362692 -0.0118049,-0.0374405 -0.00849687,-0.0383269 -0.00512413,-0.0389216 -0.00171239,-0.0392201 0.00171239,-0.0392201 0.00512413,-0.0389216 0.00849687,-0.0383269 0.0118049,-0.0374405 0.0150232,-0.0362692 0.0181271,-0.0348218 0.021093,-0.0331094 0.0238984,-0.031145 0.0265219,-0.0289436 0.0289436,-0.0265219 0.031145,-0.0238984 0.0331094,-0.021093 0.0348218,-0.0181271 0.0362692,-0.0150232 0.0374405,-0.0118049 0.0383269,-0.00849687 0.0389216,-0.00512413 0.0392201,-0.00171239 0.0392201,0.00171239 0.0389216,0.00512413 0.0383269,0.00849687 0.0374405,0.0118049 0.0362692,0.0150232 0.0348218,0.0181271 0.0331094,0.021093 0.031145,0.0238984 0.0289436,0.0265219 0.0265219,0.0289436 0.0238984,0.031145 0.021093,0.0331094 0.0181271,0.0348218 0.0150232,0.0362692 0.0118049,0.0374405 0.00849687,0.0383269 0.00512413,0.0389216 0.00171239,0.0392201 z "/>
<path fill="rgb(241,240,234)" stroke="rgb(241,240,234)" d="M 0.03674,3 l 0.96326,0 0,0.5 -0.274037,0 -0.0632718,-0.00276251 -0.0627903,-0.0082665 -0.0618309,-0.0137076 -0.0604009,-0.0190443 -0.0585112,-0.0242362 -0.0561763,-0.0292435 -0.0534138,-0.0340283 -0.0502447,-0.0385542 -0.0466933,-0.0427866 -0.0427866,-0.0466933 -0.0385542,-0.0502447 -0.0340283,-0.0534138 -0.0292435,-0.0561763 -0.0242362,-0.0585112 -0.00704094,-0.022331 z "/>
<path fill="rgb(241,240,234)" stroke="rgb(241,240,234)" d="M 0,2 l 0.326124,0 0.0350267,0.104545 0.00126451,0.00369371 0.00157562,0.0035721 0.00187519,0.00342434 0.00216104,0.00325152 0.00243107,0.0030549 0.0026833,0.00283591 0.00291589,0.00259617 0.00312713,0.00233742 0.00331549,0.00206156 0.00347957,0.00177061 0.00361819,0.0014667 0.00373032,0.00115205 0.00381514,0.00082897 0.00387204,0.000499822 0.00390059,0.000167015 0.331902,0 0.0021715,-0.000330165 0.00213583,-0.000512518 0.00208487,-0.000691204 0.00201899,-0.000864943 0.00193866,-0.00103249 0.00184446,-0.00119265 0.00173705,-0.00134428 0.00161722,-0.00148628 0.00148581,-0.00161765 0.00134377,-0.00173744 0.00119212,-0.0018448 0.00103193,-0.00193896 0.000864356,-0.00201924 0.000690598,-0.00208507 0.000511898,-0.00213598 0.000329534,-0.0021716 0.0124207,-0.114252 0.0680945,0 0,0.290064 0.159668,0 0,0.709936 -0.96326,0 -0.0120034,-0.0380699 -0.0137076,-0.0618309 -0.0082665,-0.0627903 -0.00276251,-0.0632718 0,-0.774037 z "/>
<path fill="rgb(241,240,234)" stroke="rgb(241,240,234)" d="M 0.805725,1.42088 l -0.000650243,-0.014893 -0.00194578,-0.0147797 -0.00322651,-0.0145538 -0.00448268,-0.0142172 -0.00570474,-0.0137725 -0.00688338,-0.0132228 -0.00800963,-0.0125726 -0.00907493,-0.0118267 -0.0100712,-0.0109907 -0.0109907,-0.0100712 -0.0118267,-0.00907493 -0.0125726,-0.00800963 -0.0132228,-0.00688338 -0.0137725,-0.00570474 -0.0142172,-0.00448268 -0.0145538,-0.00322651 -0.0147797,-0.00194578 -0.014893,-0.000650243 -0.014893,0.000650243 -0.0147797,0.00194578 -0.0145538,0.00322651 -0.0142172,0.00448268 -0.0137725,0.00570474 -0.0132228,0.00688338 -0.0125726,0.00800963 -0.0118267,0.00907493 -0.0109907,0.0100712 -0.0100712,0.0109907 -0.00907493,0.0118267 -0.00800963,0.0125726 -0.00688338,0.0132228 -0.00570474,0.0137725 -0.00448268,0.0142172 -0.00322651,0.0145538 -0.00194578,0.0147797 -0.000650243,0.014893 0.000650243,0.014893 0.00194578,0.0147797 0.00322651,0.0145538 0.00448268,0.0142172 0.00570474,0.0137725 0.00688338,0.0132228 0.00800963,0.0125726 0.00907493,0.0118267 0.0100712,0.0109907 0.0109907,0.0100712 0.0118267,0.00907493 0.0125726,0.00800963 0.0132228,0.00688338 0.0137725,0.00570474 0.0142172,0.00448268 0.0145538,0.00322651 0.0147797,0.00194578 0.014893,0.000650243 0.014893,-0.000650243 0.0147797,-0.00194578 0.0145538,-0.00322651 0.0142172,-0.00448268 0.0137725,-0.00570474 0.0132228,-0.00688338 0.0125726,-0.00800963 0.0118267,-0.00907493 0.0109907,-0.0100712 0.0100712,-0.0109907 0.00907493,-0.0118267 0.00800963,-0.0125726 0.00688338,-0.0132228 0.00570474,-0.0137725 0.00448268,-0.0142172 0.00322651,-0.0145538 0.00194578,-0.0147797 0.000650243,-0.014893 z M 0.326124,2 l -0.326124,0 0,-1 0.801288,0 0.0237115,0.0151059 0.0348218,0.0181271 0.0362692,0.0150232 0.0374405,0.0118049 0.0383269,0.00849687 0.0281417,0.00370492 0,0.402842 -0.153096,0 -0.00575201,0.0186601 -0.00738684,0.0180754 -0.00896327,0.0173477 -0.0104688,0.016483 -0.0118916,0.0154879 -0.0132204,0.0143703 -0.0144446,0.0131391 -0.0155547,0.0118041 -0.0165417,0.0103757 -0.017398,0.00886528 -0.0181167,0.00728477 -0.0186922,0.00564667 -0.0191199,0.00396392 -0.0193965,0.00224984 -0.0195196,0.00051796 -0.0194885,-0.00121801 -0.0193032,-0.00294435 -0.0182658,-0.00444387 -0.0178188,-0.00598975 -0.0172412,-0.00749175 -0.0165373,-0.00893885 -0.0157123,-0.0103204 -0.014772,-0.0116264 -0.0137236,-0.0128472 -0.0125745,-0.0139738 -0.0113334,-0.014998 -0.0100091,-0.0159124 -0.00861158,-0.0167101 -0.0071509,-0.0173854 -0.00563783,-0.0179332 -0.00408344,-0.0183497 -0.00249913,-0.0186317 -0.00089651,-0.0187772 -0.175806,0 0,0.0755745 0.0345046,0.0213673 -0.0197226,0.266169 0.0470137,0.140322 0.0253568,0.0756828 z M 0.840332,2 l -0.0680945,0 0.0204459,-0.188073 0,-0.126506 0.0476485,0 0,0.314578 z "/>
<path fill="rgb(241,240,234)" stroke="rgb(241,240,234)" d="M 0.801288,1 l -0.801288,0 8.88178e-16,-0.274037 0.00276251,-0.0632718 0.0082665,-0.0627903 0.0137076,-0.0618309 0.0190443,-0.0604009 0.0242362,-0.0585112 0.0292435,-0.0561763 0.0340283,-0.0534138 0.0385542,-0.0502447 0.0427866,-0.0466933 0.0466933,-0.0427866 0.0502447,-0.0385542 0.0534138,-0.0340283 0.0561763,-0.0292435 0.0585112,-0.0242362 0.0604009,-0.0190443 0.0618309,-0.0137076 0.0627903,-0.0082665 0.0632718,-0.00276251 0.274037,0 0,0.178526 -0.0281417,0.00370492 -0.0383269,0.00849687 -0.0374405,0.0118049 -0.0362692,0.0150232 -0.0348218,0.0181271 -0.0331094,0.021093 -0.031145,0.0238984 -0.0289436,0.0265219 -0.0265219,0.0289436 -0.0238984,0.031145 -0.021093,0.0331094 -0.0181271,0.0348218 -0.0150232,0.0362692 -0.0118049,0.0374405 -0.00849687,0.0383269 -0.00512413,0.0389216 -0.00171239,0.0392201 0.00171239,0.0392201 0.00512413,0.0389216 0.00849687,0.0383269 0.0118049,0.0374405 0.0150232,0.0362692 0.0181271,0.0348218 0.021093,0.0331094 0.0238984,0.031145 0.0265219,0.0289436 0.0289436,0.0265219 0.031145,0.0238984 0.00939786,0.0059871 z "/>
<path fill="rgb(241,240,234)" stroke="rgb(241,240,234)" d="M 4.82258,1.42698 l -0.00067345,-0.0154245 -0.00201522,-0.0153071 -0.00334166,-0.0150733 -0.00464267,-0.0147247 -0.00590834,-0.014264 -0.00712904,-0.0136948 -0.00829549,-0.0130213 -0.00939881,-0.0122488 -0.0104306,-0.011383 -0.011383,-0.0104306 -0.0122488,-0.00939881 -0.0130213,-0.00829549 -0.0136948,-0.00712904 -0.014264,-0.00590834 -0.0147247,-0.00464267 -0.0150733,-0.00334166 -0.0153071,-0.00201522 -0.0154245,-0.00067345 -0.0154245,0.00067345 -0.0153071,0.00201522 -0.0150733,0.00334166 -0.0147247,0.00464267 -0.014264,0.00590834 -0.0136948,0.00712904 -0.0130213,0.00829549 -0.0122488,0.00939881 -0.011383,0.0104306 -0.0104306,0.011383 -0.00939881,0.0122488 -0.00829549,0.0130213 -0.00712904,0.0136948 -0.00590834,0.014264 -0.00464267,0.0147247 -0.00334166,0.0150733 -0.00201522,0.0153071 -0.00067345,0.0154245 0.00067345,0.0154245 0.00201522,0.0153071 0.00334166,0.0150733 0.00464267,0.0147247 0.00590834,0.014264 0.00712904,0.0136948 0.00829549,0.0130213 0.00939881,0.0122488 0.0104306,0.011383 0.011383,0.0104306 0.0122488,0.00939881 0.0130213,0.00829549 0.0136948,0.00712904 0.014264,0.00590834 0.0147247,0.00464267 0.0150733,0.00334166 0.0153071,0.00201522 0.0154245,0.00067345 0.0154245,-0.00067345 0.0153071,-0.00201522 0.0150733,-0.00334166 0.0147247,-0.00464267 0.014264,-0.00590834 0.0136948,-0.00712904 0.0130213,-0.00829549 0.0122488,-0.00939881 0.011383,-0.0104306 0.0104306,-0.011383 0.00939881,-0.0122488 0.00829549,-0.0130213 0.00712904,-0.0136948 0.00590834,-0.014264 0.00464267,-0.0147247 0.00334166,-0.0150733 0.00201522,-0.0153071 0.00067345,-0.0154245 z M 4,1 l 1,0 0,0.446268 -0.126338,-0.0204916 -0.000867214,0.0198762 -0.00259627,0.019725 -0.00430557,0.0194236 -0.0059821,0.0189744 -0.0076131,0.0183809 -0.00918616,0.0176474 -0.0106893,0.0167796 -0.0121111,0.0157841 -0.0134407,0.0146684 -0.014668,0.0134412 -0.0157837,0.0121116 -0.0167792,0.0106898 -0.0176471,0.0091867 -0.0183806,0.00761367 -0.0189743,0.00598269 -0.0194235,0.00430617 -0.0197249,0.00259688 -0.0198762,0.000867829 -0.0198762,-0.000867829 -0.0197249,-0.00259688 -0.0194235,-0.00430617 -0.0189743,-0.00598269 -0.0183806,-0.00761367 -0.0176471,-0.0091867 -0.0167792,-0.0106898 -0.0157837,-0.0121116 -0.014668,-0.0134412 -0.0134407,-0.0146684 -0.0121111,-0.0157841 -0.0106893,-0.0167796 -0.00918616,-0.0176474 -0.0076131,-0.0183809 -0.0059821,-0.0189744 -0.00430557,-0.0194236 -0.00259627,-0.019725 -0.000867214,-0.0198762 -0.417564,0 0,-0.425776 z "/>
<path fill="rgb(241,240,234)" stroke="rgb(241,240,234)" d="M 4,2.33082 l 1,0 0,0.669184 -1,0 0,-0.669184 z "/>
<path fill="rgb(241,240,234)" stroke="rgb(241,240,234)" d="M 4,3.5 l 0,-0.5 1,0 0,0.46326 -0.0380699,0.0120034 -0.0618309,0.0137076 -0.0627903,0.0082665 -0.0632718,0.00276251 -0.774037,0 z "/>
<path fill="rgb(241,240,234)" stroke="rgb(241,240,234)" d="M 5,1 l 0,-0.96326 0.022331,0.00704094 0.0585112,0.0242362 0.0561763,0.0292435 0.0534138,0.0340283 0.0502447,0.0385542 0.0466933,0.0427866 0.0427866,0.0466933 0.0385542,0.0502447 0.0340283,0.0534138 0.0292435,0.0561763 0.0242362,0.0585112 0.0190443,0.0604009 0.0137076,0.0618309 0.0082665,0.0627903 0.00276251,0.0632718 0,0.274037 -0.5,0 z "/>
<path fill="rgb(241,240,234)" stroke="rgb(241,240,234)" d="M 5.5,2 l 0,0.774037 -0.00276251,0.0632718 -0.0082665,0.0627903 -0.0137076,0.0618309 -0.0120034,0.0380699 -0.46326,0 0,-0.669184 0.237073,0 0.00326062,-0.000869022 0.00317367,-0.00114659 0.00306314,-0.00141564 0.00292985,-0.00167417 0.00277479,-0.00192026 0.00259911,-0.00215209 0.00240412,-0.00236792 0.00219127,-0.00256616 0.00196214,-0.00274534 0.00171843,-0.00290411 0.00146195,-0.00304131 0.00119461,-0.00315591 0.000918392,-0.00324706 0.000635351,-0.00331409 0.000347589,-0.00335649 5.72446e-05,-0.00337396 -0.000233525,-0.00336635 -0.00052256,-0.00333374 -0.000807712,-0.00327635 -0.00108686,-0.00319462 -0.00135794,-0.00308915 -0.00161892,-0.00296074 -0.0393059,-0.0650557 0.0318708,-0.20729 0.245298,0 z "/>
<path fill="rgb(241,240,234)" stroke="rgb(241,240,234)" d="M 5,3 l 0.46326,0 -0.00704094,0.022331 -0.0242362,0.0585112 -0.0292435,0.0561763 -0.0340283,0.0534138 -0.0385542,0.0502447 -0.0427866,0.0466933 -0.0466933,0.0427866 -0.0502447,0.0385542 -0.0534138,0.0340283 -0.0561763,0.0292435 -0.0585112,0.0242362 -0.022331,0.00704094 0,-0.46326 z "/>
<path fill="rgb(241,240,234)" stroke="rgb(241,240,234)" d="M 5.5,1 l 0,1 -0.245298,0 0.00467881,-0.0304312 0.0156726,-0.101936 0,-0.287448 0.0380517,-0.0237682 0,-0.059364 -0.313105,-0.0507847 0,-0.446268 0.5,0 z "/>
<path fill="rgb(241,240,234)" stroke="rgb(241,240,234)" d="M 0.550396,1.83986 l 0.104269,0 0.00200483,8.7549e-05 0.00198957,0.00026198 0.00195916,0.000434417 0.00191383,0.000603547 0.00185393,0.000768081 0.00177992,0.000926768 0.00169235,0.0010784 0.00159191,0.00122182 0.00147934,0.00135594 0.00135551,0.00147973 0.00122136,0.00159226 0.00107791,0.00169267 0.00092625,0.00178019 0.000767542,0.00185415 0.00060299,0.001914 0.000433848,0.00195928 0.000261402,0.00198964 8.69663e-05,0.00200486 0,0.17745 -8.01895e-05,0.00185168 -0.000239968,0.00183781 -0.00039795,0.00181019 -0.000552952,0.00176901 -0.000703813,0.00171458 -0.000849405,0.00164732 -0.000988637,0.00156772 -0.00112047,0.00147638 -0.0012439,0.00137399 -0.00135803,0.00126131 -0.00146199,0.00113919 -0.001555,0.00100853 -0.00163636,0.000870325 -0.00170548,0.000725602 -0.00176182,0.000575446 -0.00180497,0.000420981 -0.00183461,0.000263364 -0.00185051,0.000103775 -0.00185255,-5.65907e-05 -0.198811,0 -0.00214713,-9.49566e-05 -0.00213037,-0.000284128 -0.00209697,-0.000471082 -0.00204719,-0.000654357 -0.00198144,-0.000832522 -0.00190021,-0.00100419 -0.00180414,-0.00116801 -0.00169399,-0.00132272 -0.00157061,-0.00146709 -0.00143497,-0.00160002 -0.00128812,-0.00172044 -0.00113122,-0.00182744 -0.000965481,-0.00192016 -0.000792205,-0.0019979 -0.000612744,-0.00206003 -0.0352028,-0.118934 -0.0249982,-0.0844572 0.17834,0 z "/>
<path fill="rgb(241,240,234)" stroke="rgb(241,240,234)" d="M 2.90446,1.96957 l -0.0428371,-0.106713 0.0332599,-0.0570211 0.299311,0 0.00103535,4.58034e-05 0.00102742,0.000135832 0.00101168,0.000224827 0.000988247,0.000312113 0.000957297,0.000397025 0.000919067,0.000478918 0.000873848,0.000557169 0.000821983,0.000631182 0.000763867,0.000700396 0.000699942,0.000764283 0.000630694,0.000822358 0.000556649,0.000874178 0.000478372,0.000919351 0.000396456,0.000957533 0.000311526,0.000988432 0.000224226,0.00101181 0.000135222,0.0010275 4.51884e-05,0.00103538 0,0.15185 0,0.228257 -4.57762e-05,0.00103473 -0.000135751,0.00102681 -0.000224694,0.00101108 -0.000311928,0.00098766 -0.000396789,0.000956729 -0.000478634,0.000918521 -0.000556838,0.000873329 -0.000630807,0.000821495 -0.00069998,0.000763413 -0.000763829,0.000699526 -0.000821869,0.000630319 -0.000873659,0.000556319 -0.000918805,0.000478088 -0.000956964,0.000396221 -0.000987845,0.000311341 -0.00101121,0.000224093 -0.00102689,0.000135141 -0.00103476,4.51616e-05 -0.185838,0 -0.00106235,-7.22634e-05 -0.00105154,-0.00016758 -0.00103219,-0.000261536 -0.00100446,-0.000353369 -0.000968581,-0.000442335 -0.000924841,-0.00052771 -0.000873595,-0.000608803 -0.000815259,-0.000684954 -0.000750306,-0.000755547 -0.000679263,-0.000820007 -0.000602708,-0.000877811 -0.000521261,-0.000928492 -0.000435583,-0.000971636 -0.00034637,-0.0010069 -0.000254345,-0.00103398 -0.0925738,-0.230614 z "/>
<path fill="rgb(241,240,234)" stroke="rgb(241,240,234)" d="M 5.18638,1.96957 l -0.0401056,0.267445 -0.0003387,0.000945002 -0.000417338,0.000913004 -0.00049299,0.000874476 -0.000565116,0.000829693 -0.000633201,0.000778976 -0.000696756,0.000722688 -0.000755328,0.000661231 -0.000808498,0.000595044 -0.000855885,0.000524602 -0.000897151,0.000450408 -0.000932,0.000372992 -0.000960183,0.000292908 -0.000981499,0.000210729 -0.000995795,0.000127044 -0.00100297,4.2449e-05 -0.133118,0 -0.000925791,-0.000148248 -0.00090931,-0.000228521 -0.000885882,-0.000307049 -0.000855687,-0.000383232 -0.000818954,-0.000456486 -0.000775966,-0.000526253 -0.00072705,-0.000592001 -0.000672579,-0.000653225 -0.000612971,-0.00070946 -0.000548679,-0.000760274 -0.000480197,-0.000805281 -0.000408046,-0.000844136 -0.000332777,-0.000876542 -0.000254967,-0.000902252 -0.000175208,-0.000921069 -9.41115e-05,-0.00093285 -1.22957e-05,-0.000937505 6.9614e-05,-0.000934997 0,-0.263867 0,-0.116261 4.81171e-05,-0.00103368 0.000137857,-0.00102558 0.000226551,-0.0010097 0.000313527,-0.000986163 0.000398127,-0.00095515 0.000479708,-0.000916896 0.000557651,-0.000871689 0.000631367,-0.000819874 0.000700296,-0.000761842 0.000763915,-0.000698034 0.000821742,-0.000628933 0.000873339,-0.000555064 0.000918314,-0.000476987 0.000956326,-0.000395293 0.000987088,-0.000310602 0.00101037,-0.000223556 0.00102598,-0.000134815 0.00103382,-4.50523e-05 0.190657,0 0.000900793,0.000170708 0.000882413,0.00024883 0.000857272,0.000325045 0.000825562,0.000398769 0.000787526,0.000469438 0.000743456,0.00053651 0.000693689,0.000599471 0.000638607,0.000657838 0.000578631,0.000711165 0.000514222,0.000759042 0.000445873,0.000801104 0.000374107,0.000837027 0.000299474,0.000866536 0.000222547,0.000889406 0.000143915,0.00090546 6.41795e-05,0.000914577 -1.60474e-05,0.000916685 -9.61514e-05,0.00091177 -0.0174238,0.116191 z "/>
<path fill="rgb(241,240,234)" stroke="rgb(241,240,234)" d="M 3.28091,1.96957 l 0,-0.11624 4.70176e-05,-0.00103577 0.000137013,-0.00102774 0.000225967,-0.00101191 0.000313206,-0.000988399 0.000398066,-0.000957379 0.000479904,-0.000919089 0.000558097,-0.000873819 0.000632052,-0.000821913 0.000701207,-0.000763767 0.000765038,-0.00069982 0.000823059,-0.000630559 0.00087483,-0.00055651 0.000919958,-0.000478235 0.0009581,-0.000396328 0.000988966,-0.000311412 0.00101232,-0.00022413 0.00102799,-0.000135147 0.00103585,-4.51378e-05 0.362905,1.34209e-05 0.00102883,0.000230784 0.00100485,0.000319412 0.000973252,0.000405618 0.000934275,0.000488748 0.000888214,0.000568172 0.000835419,0.000643289 0.000776288,0.000713527 0.000711272,0.000778355 0.000640862,0.000837282 0.000565593,0.000889859 0.000486035,0.000935689 0.000402792,0.000974425 0.000316495,0.00100577 0.000227798,0.00102949 0.000137373,0.00104541 4.59071e-05,0.00105339 0,0.116184 0,0.263874 -0.000275673,0.00122935 -0.000381584,0.0012007 -0.000484601,0.00116295 -0.000583942,0.00111638 -0.000678855,0.00106134 -0.00076862,0.000998257 -0.000852556,0.0009276 -0.000930026,0.000849908 -0.00100044,0.000765771 -0.00106327,0.000675827 -0.00111804,0.000580757 -0.00116433,0.000481283 -0.00120179,0.000378159 -0.00123013,0.000272168 -0.00124914,0.000164112 -0.00125869,5.48115e-05 -0.360658,-1.33378e-05 -0.000946402,-0.000129622 -0.000931484,-0.000211701 -0.000909461,-0.000292166 -0.000880501,-0.000370402 -0.000844825,-0.000445814 -0.000802706,-0.000517825 -0.000754465,-0.000585886 -0.000700469,-0.000649479 -0.000641131,-0.000708118 -0.000576903,-0.000761356 -0.000508274,-0.000808787 -0.000435769,-0.00085005 -0.00035994,-0.000884829 -0.000281366,-0.00091286 -0.000200646,-0.000933928 -0.000118396,-0.000947872 -3.52425e-05,-0.000954588 4.81797e-05,-0.000954022 0,-0.263861 z "/>
<path fill="rgb(241,240,234)" stroke="rgb(241,240,234)" d="M 3,2.33082 l 1,0 0,0.669184 -1,0 0,-0.669184 z "/>
<path fill="rgb(241,240,234)" stroke="rgb(241,240,234)" d="M 4.93777,1.96957 l 0,0.263867 -0.000275665,0.00122932 -0.00038157,0.00120067 -0.000484581,0.00116292 -0.000583918,0.00111636 -0.000678826,0.00106132 -0.000768587,0.00099824 -0.00085252,0.000927588 -0.000929987,0.000849902 -0.0010004,0.000765771 -0.00106323,0.000675832 -0.001118,0.000580769 -0.00116428,0.000481302 -0.00120174,0.000378184 -0.00123009,0.000272199 -0.00124911,0.000164149 -0.00125865,5.48551e-05 -0.310821,0 -0.000946456,-0.00012956 -0.000931542,-0.000211648 -0.000909522,-0.000292122 -0.000880564,-0.000370367 -0.00084489,-0.000445788 -0.000802771,-0.000517808 -0.000754528,-0.000585878 -0.00070053,-0.000649479 -0.000641189,-0.000708126 -0.000576956,-0.000761372 -0.000508323,-0.00080881 -0.000435812,-0.000850078 -0.000359977,-0.000884863 -0.000281396,-0.000912897 -0.000200669,-0.000933969 -0.000118411,-0.000947916 -3.525e-05,-0.000954632 4.818e-05,-0.000954067 0,-0.263867 0,-0.116233 4.70154e-05,-0.00103575 0.000137006,-0.00102772 0.000225957,-0.00101189 0.000313191,-0.000988378 0.000398048,-0.00095736 0.000479882,-0.000919072 0.000558072,-0.000873806 0.000632024,-0.000821904 0.000701177,-0.000763761 0.000765006,-0.000699819 0.000823026,-0.000630562 0.000874796,-0.000556518 0.000919924,-0.000478247 0.000958066,-0.000396345 0.000988934,-0.000311434 0.00101229,-0.000224157 0.00102796,-0.000135179 0.00103583,-4.5174e-05 0.313068,0 0.0010289,0.000230722 0.00100492,0.000319361 0.000973329,0.000405578 0.000934353,0.00048872 0.000888292,0.000568155 0.000835494,0.000643282 0.000776361,0.000713531 0.00071134,0.000778369 0.000640925,0.000837304 0.00056565,0.000889889 0.000486085,0.000935727 0.000402834,0.000974468 0.000316528,0.00100582 0.000227822,0.00102954 0.000137388,0.00104546 4.59119e-05,0.00105345 0,0.116191 z "/>
<path fill="rgb(241,240,234)" stroke="rgb(241,240,234)" d="M 3.72155,1.96957 l 0,-0.11624 4.70176e-05,-0.00103577 0.000137013,-0.00102774 0.000225967,-0.00101191 0.000313206,-0.000988399 0.000398066,-0.000957379 0.000479904,-0.000919089 0.000558097,-0.000873819 0.000632052,-0.000821913 0.000701207,-0.000763767 0.000765038,-0.00069982 0.000823059,-0.000630559 0.00087483,-0.00055651 0.000919958,-0.000478235 0.0009581,-0.000396328 0.000988966,-0.000311412 0.00101232,-0.00022413 0.00102799,-0.000135147 0.00103585,-4.51378e-05 0.362905,1.34209e-05 0.00102883,0.000230784 0.00100485,0.000319412 0.000973252,0.000405618 0.000934275,0.000488748 0.000888214,0.000568172 0.000835419,0.000643289 0.000776288,0.000713527 0.000711272,0.000778355 0.000640862,0.000837282 0.000565593,0.000889859 0.000486035,0.000935689 0.000402792,0.000974425 0.000316495,0.00100577 0.000227798,0.00102949 0.000137373,0.00104541 4.59071e-05,0.00105339 0,0.116184 0,0.263874 -0.000275673,0.00122935 -0.000381584,0.0012007 -0.000484601,0.00116295 -0.000583942,0.00111638 -0.000678855,0.00106134 -0.00076862,0.000998257 -0.000852556,0.0009276 -0.000930026,0.000849908 -0.00100044,0.000765771 -0.00106327,0.000675827 -0.00111804,0.000580757 -0.00116433,0.000481283 -0.00120179,0.000378159 -0.00123013,0.000272168 -0.00124914,0.000164112 -0.00125869,5.48115e-05 -0.360658,-1.33378e-05 -0.000946402,-0.000129622 -0.000931484,-0.000211701 -0.000909461,-0.000292166 -0.000880501,-0.000370402 -0.000844825,-0.000445814 -0.000802706,-0.000517825 -0.000754465,-0.000585886 -0.000700469,-0.000649479 -0.000641131,-0.000708118 -0.000576903,-0.000761356 -0.000508274,-0.000808787 -0.000435769,-0.00085005 -0.00035994,-0.000884829 -0.000281366,-0.00091286 -0.000200646,-0.000933928 -0.000118396,-0.000947872 -3.52425e-05,-0.000954588 4.81797e-05,-0.000954022 0,-0.263861 z "/>
<path fill="rgb(241,240,234)" stroke="rgb(241,240,234)" d="M 4.54581,1.96957 l 0,0.263874 -0.000275673,0.00122935 -0.000381584,0.0012007 -0.000484601,0.00116295 -0.000583942,0.00111638 -0.000678855,0.00106134 -0.00076862,0.000998257 -0.000852556,0.0009276 -0.000930026,0.000849908 -0.00100044,0.000765771 -0.00106327,0.000675827 -0.00111804,0.000580757 -0.00116433,0.000481283 -0.00120179,0.000378159 -0.00123013,0.000272168 -0.00124914,0.000164112 -0.00125869,5.48115e-05 -0.360658,-1.33378e-05 -0.000946402,-0.000129622 -0.000931484,-0.000211701 -0.000909461,-0.000292166 -0.000880501,-0.000370402 -0.000844825,-0.000445814 -0.000802706,-0.000517825 -0.000754465,-0.000585886 -0.000700469,-0.000649479 -0.000641131,-0.000708118 -0.000576903,-0.000761356 -0.000508274,-0.000808787 -0.000435769,-0.00085005 -0.00035994,-0.000884829 -0.000281366,-0.00091286 -0.000200646,-0.000933928 -0.000118396,-0.000947872 -3.52425e-05,-0.000954588 4.81797e-05,-0.000954022 0,-0.263861 0,-0.11624 4.70176e-05,-0.00103577 0.000137013,-0.00102774 0.000225967,-0.00101191 0.000313206,-0.000988399 0.000398066,-0.000957379 0.000479904,-0.000919089 0.000558097,-0.000873819 0.000632052,-0.000821913 0.000701207,-0.000763767 0.000765038,-0.00069982 0.000823059,-0.000630559 0.00087483,-0.00055651 0.000919958,-0.000478235 0.0009581,-0.000396328 0.000988966,-0.000311412 0.00101232,-0.00022413 0.00102799,-0.000135147 0.00103585,-4.51378e-05 0.362905,1.34209e-05 0.00102883,0.000230784 0.00100485,0.000319412 0.000973252,0.000405618 0.000934275,0.000488748 0.000888214,0.000568172 0.000835419,0.000643289 0.000776288,0.000713527 0.000711272,0.000778355 0.000640862,0.000837282 0.000565593,0.000889859 0.000486035,0.000935689 0.000402792,0.000974425 0.000316495,0.00100577 0.000227798,0.00102949 0.000137373,0.00104541 4.59071e-05,0.00105339 0,0.116184 z "/>
<path fill="rgb(241,240,234)" stroke="rgb(241,240,234)" d="M 4,0 l 0.774037,8.88178e-16 0.0632718,0.00276251 0.0627903,0.0082665 0.0618309,0.0137076 0.0380699,0.0120034 0,0.96326 -1,0 0,-1 z "/>
<path fill="rgb(241,240,234)" stroke="rgb(241,240,234)" d="M 3,3 l 1,0 0,0.5 -1,-4.44089e-16 0,-0.5 z "/>
<path fill="rgb(241,240,234)" stroke="rgb(241,240,234)" d="M 3.55198,1.42698 l -0.00067345,-0.0154245 -0.00201522,-0.0153071 -0.00334166,-0.0150733 -0.00464267,-0.0147247 -0.00590834,-0.014264 -0.00712904,-0.0136948 -0.00829549,-0.0130213 -0.00939881,-0.0122488 -0.0104306,-0.011383 -0.011383,-0.0104306 -0.0122488,-0.00939881 -0.0130213,-0.00829549 -0.0136948,-0.00712904 -0.014264,-0.00590834 -0.0147247,-0.00464267 -0.0150733,-0.00334166 -0.0153071,-0.00201522 -0.0154245,-0.00067345 -0.0154245,0.00067345 -0.0153071,0.00201522 -0.0150733,0.00334166 -0.0147247,0.00464267 -0.014264,0.00590834 -0.0136948,0.00712904 -0.0130213,0.00829549 -0.0122488,0.00939881 -0.011383,0.0104306 -0.0104306,0.011383 -0.00939881,0.0122488 -0.00829549,0.0130213 -0.00712904,0.0136948 -0.00590834,0.014264 -0.00464267,0.0147247 -0.00334166,0.0150733 -0.00201522,0.0153071 -0.00067345,0.0154245 0.00067345,0.0154245 0.00201522,0.0153071 0.00334166,0.0150733 0.00464267,0.0147247 0.00590834,0.014264 0.00712904,0.0136948 0.00829549,0.0130213 0.00939881,0.0122488 0.0104306,0.011383 0.011383,0.0104306 0.0122488,0.00939881 0.0130213,0.00829549 0.0136948,0.00712904 0.014264,0.00590834 0.0147247,0.00464267 0.0150733,0.00334166 0.0153071,0.00201522 0.0154245,0.00067345 0.0154245,-0.00067345 0.0153071,-0.00201522 0.0150733,-0.00334166 0.0147247,-0.00464267 0.014264,-0.00590834 0.0136948,-0.00712904 0.0130213,-0.00829549 0.0122488,-0.00939881 0.011383,-0.0104306 0.0104306,-0.011383 0.00939881,-0.0122488 0.00829549,-0.0130213 0.00712904,-0.0136948 0.00590834,-0.014264 0.00464267,-0.0147247 0.00334166,-0.0150733 0.00201522,-0.0153071 0.00067345,-0.0154245 z M 3,1 l 1,0 0,0.425776 -0.397237,0 -0.000764473,0.0198429 -0.00249676,0.0197001 -0.00420992,0.0194062 -0.00589082,0.0189638 -0.00752658,0.018376 -0.00910468,0.0176474 -0.010613,0.0167836 -0.0120401,0.0157912 -0.0133748,0.0146779 -0.0146071,0.013452 -0.0157275,0.0121231 -0.0167274,0.0107014 -0.0175991,0.0091976 -0.018336,0.00762337 -0.0189324,0.00599072 -0.0193838,0.00431218 -0.0196866,0.00260059 -0.0198386,0.000869084 -0.0198386,-0.000869084 -0.0196866,-0.00260059 -0.0193838,-0.00431218 -0.0189324,-0.00599072 -0.018336,-0.00762337 -0.0175991,-0.0091976 -0.0167274,-0.0107014 -0.0157275,-0.0121231 -0.0146071,-0.013452 -0.0133748,-0.0146779 -0.0120401,-0.0157912 -0.010613,-0.0167836 -0.00910468,-0.0176474 -0.00752658,-0.018376 -0.00589082,-0.0189638 -0.00420992,-0.0194062 -0.00249676,-0.0197001 -0.000764473,-0.0198429 -0.149043,0 0,-0.425776 z "/>
<path fill="rgb(241,240,234)" stroke="rgb(241,240,234)" d="M 3,0 l 1,0 0,1 -1,0 0,-1 z "/>
<path fill="rgb(241,240,234)" stroke="rgb(241,240,234)" d="M 2,3 l 1,0 0,0.5 -1,-4.44089e-16 0,-0.5 z "/>
<path fill="rgb(241,240,234)" stroke="rgb(241,240,234)" d="M 2.56719,2 l 0.281352,0 0.0772201,0.188299 -0.0332529,0.106936 -7.04494e-05,0.00287233 0.000177196,0.00286772 0.000423525,0.0028418 0.000666706,0.00279477 0.000904933,0.00272696 0.00113643,0.00263889 0.00135949,0.00253121 0.00157244,0.00240471 0.00177371,0.00226035 0.0019618,0.00209919 0.0021353,0.00192242 0.00229294,0.00173137 0.00243354,0.00152746 0.00255605,0.00131219 0.00265957,0.00108717 0.00274332,0.000854072 0.00280668,0.000614626 0.00284919,0.000370612 0.00287052,0.000123844 0.0742424,0 0,0.669184 -1,0 0,-0.709936 0.567185,0 0,-0.290064 z "/>
<path fill="rgb(241,240,234)" stroke="rgb(241,240,234)" d="M 2.84854,2 l -0.281352,0 0,-0.524895 -0.230026,0 -0.00560887,0.0184011 -0.00720305,0.0178375 -0.00874159,0.017136 -0.0102126,0.0163022 -0.0116047,0.0153424 -0.0129071,0.0142641 -0.0141098,0.0130756 -0.0152035,0.0117861 -0.0161798,0.0104055 -0.017031,0.00894448 -0.0177507,0.00741439 -0.0183332,0.00582701 -0.018774,0.00419461 -0.0190699,0.0025298 -0.0192183,0.000845443 -0.125211,0 0,-0.102256 0.0041709,0.00455174 0.0109907,0.0100712 0.0118267,0.00907493 0.0125726,0.00800963 0.0132228,0.00688338 0.0137725,0.00570474 0.0142172,0.00448268 0.0145538,0.00322651 0.0147797,0.00194578 0.014893,0.000650243 0.014893,-0.000650243 0.0147797,-0.00194578 0.0145538,-0.00322651 0.0142172,-0.00448268 0.0137725,-0.00570474 0.0132228,-0.00688338 0.0125726,-0.00800963 0.0118267,-0.00907493 0.0109907,-0.0100712 0.0100712,-0.0109907 0.00907493,-0.0118267 0.00800963,-0.0125726 0.00688338,-0.0132228 0.00570474,-0.0137725 0.00448268,-0.0142172 0.00322651,-0.0145538 0.00194578,-0.0147797 0.000650243,-0.014893 -0.000650243,-0.014893 -0.00194578,-0.0147797 -0.00322651,-0.0145538 -0.00448268,-0.0142172 -0.00570474,-0.0137725 -0.00688338,-0.0132228 -0.00800963,-0.0125726 -0.00907493,-0.0118267 -0.0100712,-0.0109907 -0.0109907,-0.0100712 -0.0118267,-0.00907493 -0.0125726,-0.00800963 -0.0132228,-0.00688338 -0.0137725,-0.00570474 -0.0142172,-0.00448268 -0.0145538,-0.00322651 -0.0147797,-0.00194578 -0.014893,-0.000650243 -0.014893,0.000650243 -0.0147797,0.00194578 -0.0145538,0.00322651 -0.0142172,0.00448268 -0.0137725,0.00570474 -0.0132228,0.00688338 -0.0125726,0.00800963 -0.0118267,0.00907493 -0.0109907,0.0100712 -0.0041709,0.00455174 0,-0.304601 1,0 0,0.425776 -0.209646,0 0,0.0712763 0.0356311,0 0,0.308782 -0.0356311,0.0522858 0.0457042,0.111448 0.0124796,0.0304312 z "/>
<path fill="rgb(241,240,234)" stroke="rgb(241,240,234)" d="M 2,0 l 1,0 0,1 -1,0 0,-1 z "/>
<path fill="rgb(241,240,234)" stroke="rgb(241,240,234)" d="M 1,3 l 1,0 0,0.5 -1,0 0,-0.5 z "/>
<path fill="rgb(241,240,234)" stroke="rgb(241,240,234)" d="M 1,2.29006 l 1,0 0,0.709936 -1,0 0,-0.709936 z "/>
<path fill="rgb(241,240,234)" stroke="rgb(241,240,234)" d="M 1.91255,1.42088 l -0.000650243,-0.014893 -0.00194578,-0.0147797 -0.00322651,-0.0145538 -0.00448268,-0.0142172 -0.00570474,-0.0137725 -0.00688338,-0.0132228 -0.00800963,-0.0125726 -0.00907493,-0.0118267 -0.0100712,-0.0109907 -0.0109907,-0.0100712 -0.0118267,-0.00907493 -0.0125726,-0.00800963 -0.0132228,-0.00688338 -0.0137725,-0.00570474 -0.0142172,-0.00448268 -0.0145538,-0.00322651 -0.0147797,-0.00194578 -0.014893,-0.000650243 -0.014893,0.000650243 -0.0147797,0.00194578 -0.0145538,0.00322651 -0.0142172,0.00448268 -0.0137725,0.00570474 -0.0132228,0.00688338 -0.0125726,0.00800963 -0.0118267,0.00907493 -0.0109907,0.0100712 -0.0100712,0.0109907 -0.00907493,0.0118267 -0.00800963,0.0125726 -0.00688338,0.0132228 -0.00570474,0.0137725 -0.00448268,0.0142172 -0.00322651,0.0145538 -0.00194578,0.0147797 -0.000650243,0.014893 0.000650243,0.014893 0.00194578,0.0147797 0.00322651,0.0145538 0.00448268,0.0142172 0.00570474,0.0137725 0.00688338,0.0132228 0.00800963,0.0125726 0.00907493,0.0118267 0.0100712,0.0109907 0.0109907,0.0100712 0.0118267,0.00907493 0.0125726,0.00800963 0.0132228,0.00688338 0.0137725,0.00570474 0.0142172,0.00448268 0.0145538,0.00322651 0.0147797,0.00194578 0.014893,0.000650243 0.014893,-0.000650243 0.0147797,-0.00194578 0.0145538,-0.00322651 0.0142172,-0.00448268 0.0137725,-0.00570474 0.0132228,-0.00688338 0.0125726,-0.00800963 0.0118267,-0.00907493 0.0109907,-0.0100712 0.0100712,-0.0109907 0.00907493,-0.0118267 0.00800963,-0.0125726 0.00688338,-0.0132228 0.00570474,-0.0137725 0.00448268,-0.0142172 0.00322651,-0.0145538 0.00194578,-0.0147797 0.000650243,-0.014893 z M 2,1.53716 l 0,0.102256 -0.260695,0 -0.0191353,-0.000904577 -0.018982,-0.00258133 -0.018682,-0.00423815 -0.0182377,-0.00586223 -0.0176525,-0.00744101 -0.0169309,-0.00896232 -0.0160785,-0.0104144 -0.0151019,-0.011786 -0.0140087,-0.0130666 -0.0128072,-0.0142462 -0.0115068,-0.0153157 -0.0101175,-0.016267 -0.00865004,-0.0170925 -0.00711575,-0.0177861 -0.00552649,-0.0183422 -0.528772,0 0,-0.402842 0.0107799,0.0014192 0.0392201,0.00171239 0.0392201,-0.00171239 0.0389216,-0.00512413 0.0383269,-0.00849687 0.0374405,-0.0118049 0.0362692,-0.0150232 0.0348218,-0.0181271 0.0237115,-0.0151059 0.701288,0 0,0.304601 -0.00590025,0.006439 -0.00907493,0.0118267 -0.00800963,0.0125726 -0.00688338,0.0132228 -0.00570474,0.0137725 -0.00448268,0.0142172 -0.00322651,0.0145538 -0.00194578,0.0147797 -0.000650243,0.014893 0.000650243,0.014893 0.00194578,0.0147797 0.00322651,0.0145538 0.00448268,0.0142172 0.00570474,0.0137725 0.00688338,0.0132228 0.00800963,0.0125726 0.00907493,0.0118267 0.00590025,0.006439 z "/>
<path fill="rgb(241,240,234)" stroke="rgb(241,240,234)" d="M 2,0 l 0,1 -0.701288,0 0.00939786,-0.0059871 0.031145,-0.0238984 0.0289436,-0.0265219 0.0265219,-0.0289436 0.0238984,-0.031145 0.021093,-0.0331094 0.0181271,-0.0348218 0.0150232,-0.0362692 0.0118049,-0.0374405 0.00849687,-0.0383269 0.00512413,-0.0389216 0.00171239,-0.0392201 -0.00171239,-0.0392201 -0.00512413,-0.0389216 -0.00849687,-0.0383269 -0.0118049,-0.0374405 -0.0150232,-0.0362692 -0.0181271,-0.0348218 -0.021093,-0.0331094 -0.0238984,-0.031145 -0.0265219,-0.0289436 -0.0289436,-0.0265219 -0.031145,-0.0238984 -0.0331094,-0.021093 -0.0348218,-0.0181271 -0.0362692,-0.0150232 -0.0374405,-0.0118049 -0.0383269,-0.00849687 -0.0389216,-0.00512413 -0.0392201,-0.00171239 -0.0392201,0.00171239 -0.0107799,0.0014192 0,-0.178526 1,0 z "/>
<path fill="rgb(241,240,234)" stroke="rgb(241,240,234)" d="M 1.19898,0.875453 l -0.0874055,-0.118306 0,-0.199532 -0.194676,0 0.282082,0 0,0.317838 z "/>
<path fill="rgb(241,240,234)" stroke="rgb(241,240,234)" d="M 1.19898,0.875453 l -0.0874055,0 -0.308127,-0.317838 0,-0.0807839 0.308127,0 0,-0.101532 0.0874055,0 0,0.101532 0.0741623,0 0,0.0807839 -0.0741623,0 -0.282082,0 0.194676,0.199532 0.0874055,0.118306 z "/>
<path fill="rgb(42,41,42)" stroke="rgb(42,41,42)" d="M 5.00465,0.798201 l -0.0242793,-0.00264865 -0.0317838,-0.0128018 -0.0286937,-0.0225135 0.0776938,-0.0653334 0.0304595,-0.00573875 0.0264865,-0.0207478 0.033991,0.10418 -0.015009,0.00971173 -0.0322253,0.0119189 -0.0366397,0.00397298 z "/>
<path fill="rgb(42,41,42)" stroke="rgb(42,41,42)" d="M 4.91989,0.792021 l -0.107712,0 0,-0.438352 0.107712,0 0,0.257361 0.00573875,0.0357568 0.0176577,0.0251622 0.0207478,0.0154505 0.0335496,0.00750452 -0.0776938,0.0653334 0,0.0317838 z "/>
<path fill="rgb(42,41,42)" stroke="rgb(42,41,42)" d="M 4.55041,0.798201 l -0.015009,-0.000882884 -0.0335496,-0.00618019 -0.030901,-0.0128018 -0.0282523,-0.0194235 -0.0251622,-0.0264865 -0.0180991,-0.0251622 -0.0158919,-0.0304595 -0.0114775,-0.0326667 -0.00662163,-0.0348739 -0.00220721,-0.0370811 0.00220721,-0.0366397 0.00662163,-0.0348739 0.0110361,-0.0326667 0.0154505,-0.0304595 0.155829,0.00441442 -0.0216307,0.00353154 -0.0295766,0.0194235 -0.0185406,0.0247208 -0.0123604,0.0348739 -0.00441442,0.0145676 0.267514,0 0,0.0317838 -0.000441442,0.0158919 -0.00485586,0.0353154 -0.256036,0.000882884 0.0083874,0.0260451 0.0176577,0.0291352 0.0238379,0.0172162 0.0304595,0.00573875 0.146117,0.0030901 -0.0176577,0.0264865 -0.0110361,0.0132433 -0.0260451,0.0238379 -0.0291352,0.0167748 -0.0317838,0.0101532 -0.0344325,0.00353154 z "/>
<path fill="rgb(42,41,42)" stroke="rgb(42,41,42)" d="M 4.7005,0.704174 l -0.146117,-0.0030901 0.0163334,-0.00132433 0.0291352,-0.0145676 0.0154505,-0.022955 0.0145676,-0.0392884 -0.155829,0 0.256036,-0.000882884 -0.00927029,0.0353154 -0.00485586,0.0128018 -0.0154505,0.033991 z "/>
<path fill="rgb(42,41,42)" stroke="rgb(42,41,42)" d="M 4.62369,0.478155 l -0.00882884,-0.00882884 -0.0295766,-0.0203063 -0.030901,-0.00706307 -0.155829,-0.00441442 0.0198649,-0.0278109 0.0128018,-0.0145676 0.026928,-0.0225135 0.0295766,-0.0163334 0.0322253,-0.00971173 0.0344325,-0.00353154 0.0198649,0.00132433 0.0335496,0.00662163 0.0304595,0.0136847 0.0282523,0.0194235 0.0251622,0.0264865 0.00353154,0.00441442 -0.0715136,0.0631262 z "/>
<path fill="rgb(42,41,42)" stroke="rgb(42,41,42)" d="M 4.06747,0.803057 l -0.0317838,-0.00353154 -0.0295766,-0.0119189 -0.0273694,-0.0203063 -0.0256036,-0.0295766 0.214099,0.0225135 -0.0194235,0.015009 -0.0242793,0.0158919 -0.00971173,0.00353154 -0.0384055,0.00794596 -0.00794596,0.000441442 z "/>
<path fill="rgb(42,41,42)" stroke="rgb(42,41,42)" d="M 4.27318,0.792021 l -0.105946,0 0,-0.0317838 -0.214099,-0.0225135 -0.000882884,-0.00132433 -0.0185406,-0.0295766 0.158478,-0.0119189 0.0198649,-0.0030901 0.0286937,-0.015009 0.0264865,-0.0282523 0,-0.155829 -0.0176577,-0.0203063 -0.0278109,-0.0203063 -0.0295766,-0.00662163 -0.159361,-0.00706307 0.0185406,-0.0286937 0.00529731,-0.00662163 0.210568,-0.0136847 0,-0.0463514 0,-0.00662163 -0.00662163,-0.0256036 -0.0145676,-0.0242793 -0.022955,-0.0242793 -0.0313424,-0.0233964 -0.0397298,-0.0225135 0.041937,-0.0935857 0.0105946,0.00353154 0.0335496,0.0141261 0.0317838,0.0167748 0.0256036,0.0172162 0.00353154,0.0030901 0.0242793,0.0233964 0.0220721,0.0313424 0.00927029,0.0176577 0.0101532,0.0304595 0.00618019,0.0361983 0.00220721,0.0414956 0,0.433938 z "/>
<path fill="rgb(42,41,42)" stroke="rgb(42,41,42)" d="M 3.93371,0.706822 l -0.0141261,-0.0313424 -0.0105946,-0.0335496 -0.00618019,-0.0348739 -0.00176577,-0.0361983 0.00132433,-0.0326667 0.00573875,-0.0357568 0.0101532,-0.0331082 0.0145676,-0.030901 0.159361,0.00706307 -0.00529731,0.000441442 -0.030901,0.0101532 -0.0247208,0.0251622 -0.00971173,0.0180991 -0.0101532,0.0326667 -0.0030901,0.0388469 0.00132433,0.0251622 0.00750452,0.0348739 0.0141261,0.0291352 0.00264865,0.00397298 0.0260451,0.022955 0.0322253,0.00794596 -0.158478,0.0119189 z "/>
<path fill="rgb(42,41,42)" stroke="rgb(42,41,42)" d="M 3.95667,0.40311 l 0.0256036,-0.026928 0.0282523,-0.0185406 0.0304595,-0.0114775 0.0331082,-0.0030901 0.00264865,0.000441442 0.0326667,0.00573875 0.0300181,0.0154505 0.0278109,0.0247208 -0.210568,0.0136847 z "/>
<path fill="rgb(42,41,42)" stroke="rgb(42,41,42)" d="M 3.63794,0.802615 l -0.018982,-0.00132433 -0.0331082,-0.00662163 -0.030901,-0.0132433 -0.0278109,-0.0198649 -0.0256036,-0.0264865 -0.0198649,-0.0273694 -0.0154505,-0.0304595 -0.0110361,-0.0322253 -0.00662163,-0.0353154 -0.00220721,-0.0375226 0.00220721,-0.0353154 0.00618019,-0.0348739 0.0110361,-0.0326667 0.0154505,-0.0304595 0.156712,0.0101532 -0.00485586,0 -0.0313424,0.0101532 -0.0251622,0.0247208 -0.00927029,0.0172162 -0.0101532,0.0326667 -0.0030901,0.0384055 0.000882884,0.0233964 0.00750452,0.0348739 0.0141261,0.0295766 0.0030901,0.00397298 0.0260451,0.022955 0.0322253,0.00794596 0.155388,0.0123604 -0.0203063,0.0278109 -0.0128018,0.0141261 -0.0273694,0.0233964 -0.0295766,0.0163334 -0.0317838,0.0101532 -0.0335496,0.00353154 z "/>
<path fill="rgb(42,41,42)" stroke="rgb(42,41,42)" d="M 3.79333,0.707264 l -0.155388,-0.0123604 0.00264865,0 0.0313424,-0.00927029 0.0251622,-0.0247208 0.00927029,-0.0167748 0.00927029,-0.0326667 0.00353154,-0.0392884 -0.00132433,-0.0233964 -0.00706307,-0.0353154 -0.0136847,-0.0295766 -0.00220721,-0.0030901 -0.0251622,-0.0238379 -0.0317838,-0.00794596 -0.156712,-0.0101532 0.0203063,-0.0282523 0.0132433,-0.015009 0.026928,-0.022955 0.0295766,-0.0163334 0.0317838,-0.00971173 0.0348739,-0.00353154 0.0172162,0.000882884 0.0326667,0.00662163 0.0304595,0.0136847 0.0286937,0.0198649 0.0260451,0.0264865 0.0198649,0.026928 0.0158919,0.0304595 0.0114775,0.0322253 0.00662163,0.0348739 0.00220721,0.0370811 -0.00220721,0.0375226 -0.00662163,0.0348739 -0.0110361,0.0326667 -0.0158919,0.0300181 z "/>
<path fill="rgb(42,41,42)" stroke="rgb(42,41,42)" d="M 3.10203,0.9633 l -0.107712,-0.0392884 0,-0.570343 0.107712,0 0,0.257361 0,0.00441442 0.00573875,0.0348739 0.015009,0.0247208 0.0247208,0.015009 0.033991,0.00485586 0.173487,0.0083874 -0.0145676,0.0304595 -0.238379,0.0264865 0,0.203063 z "/>
<path fill="rgb(42,41,42)" stroke="rgb(42,41,42)" d="M 3.20357,0.802615 l -0.0119189,-0.000441442 -0.0366397,-0.00618019 -0.0300181,-0.0136847 -0.022955,-0.0220721 0.238379,-0.0264865 -0.0225135,0.0264865 -0.015009,0.0123604 -0.0291352,0.0167748 -0.0331082,0.00971173 -0.0370811,0.00353154 z "/>
<path fill="rgb(42,41,42)" stroke="rgb(42,41,42)" d="M 3.35498,0.703291 l -0.173487,-0.0083874 0.0286937,-0.00485586 0.0291352,-0.018982 0.0163334,-0.022955 0.00706307,-0.0335496 0,-0.260892 0.0997659,0 0,0.301064 -0.000441442,0.0141261 -0.00706307,0.0344325 z "/>
<path fill="rgb(42,41,42)" stroke="rgb(42,41,42)" d="M 2.49638,0.799967 l -0.0123604,-0.000441442 -0.0348739,-0.00662163 -0.0304595,-0.0145676 -0.0256036,-0.0220721 0.241469,-0.0220721 -0.022955,0.0260451 -0.0145676,0.0114775 -0.0291352,0.0154505 -0.033991,0.00971173 -0.0375226,0.0030901 z "/>
<path fill="rgb(42,41,42)" stroke="rgb(42,41,42)" d="M 2.39308,0.792021 l -0.10727,0 0,-0.438352 0.10727,0 0,0.263541 0.00441442,0.0264865 0.0185406,0.0300181 0.0211892,0.0167748 0.0335496,0.00794596 0.178784,0.00573875 -0.015009,0.0300181 -0.241469,0.0220721 0,0.0357568 z "/>
<path fill="rgb(42,41,42)" stroke="rgb(42,41,42)" d="M 2.64956,0.704174 l -0.178784,-0.00573875 0.0295766,-0.00441442 0.0282523,-0.0176577 0.0163334,-0.0242793 0.00662163,-0.0348739 0,-0.263541 0.104622,0 0,0.305478 -0.000441442,0.0105946 -0.00618019,0.0344325 z "/>
<path fill="rgb(42,41,42)" stroke="rgb(42,41,42)" d="M 2.02359,0.798201 l -0.015009,-0.000882884 -0.0335496,-0.00618019 -0.030901,-0.0128018 -0.0282523,-0.0194235 -0.0251622,-0.0264865 -0.0180991,-0.0251622 -0.0158919,-0.0304595 -0.0110361,-0.0326667 -0.00706307,-0.0348739 -0.00220721,-0.0370811 0.00220721,-0.0366397 0.00662163,-0.0348739 0.0110361,-0.0326667 0.0154505,-0.0304595 0.156271,0.00441442 -0.0220721,0.00353154 -0.0295766,0.0194235 -0.0185406,0.0247208 -0.0119189,0.0348739 -0.00441442,0.0145676 0.267514,0 0,0.0317838 -0.000882884,0.0158919 -0.00441442,0.0353154 -0.256036,0.000882884 0.00794596,0.0260451 0.0176577,0.0291352 0.0242793,0.0172162 0.0304595,0.00573875 0.146117,0.0030901 -0.0176577,0.0264865 -0.0114775,0.0132433 -0.0260451,0.0238379 -0.0291352,0.0167748 -0.0317838,0.0101532 -0.0344325,0.00353154 z "/>
<path fill="rgb(42,41,42)" stroke="rgb(42,41,42)" d="M 2.17412,0.704174 l -0.146117,-0.0030901 0.0158919,-0.00132433 0.0295766,-0.0145676 0.015009,-0.022955 0.0145676,-0.0392884 -0.155388,0 0.256036,-0.000882884 -0.00971173,0.0353154 -0.00441442,0.0128018 -0.0154505,0.033991 z "/>
<path fill="rgb(42,41,42)" stroke="rgb(42,41,42)" d="M 2.09687,0.478155 l -0.0083874,-0.00882884 -0.0300181,-0.0203063 -0.0304595,-0.00706307 -0.156271,-0.00441442 0.0198649,-0.0278109 0.0128018,-0.0145676 0.0273694,-0.0225135 0.0291352,-0.0163334 0.0322253,-0.00971173 0.0348739,-0.00353154 0.0198649,0.00132433 0.0331082,0.00662163 0.0304595,0.0136847 0.0282523,0.0194235 0.0256036,0.0264865 0.0030901,0.00441442 -0.0715136,0.0631262 z "/>
<path fill="rgb(42,41,42)" stroke="rgb(42,41,42)" d="M 4.60514,3.04647 l -0.0123604,-0.000441442 -0.0353154,-0.00662163 -0.0300181,-0.0145676 -0.0256036,-0.0220721 0.241469,-0.0220721 -0.022955,0.0260451 -0.0145676,0.0114775 -0.0295766,0.0154505 -0.0335496,0.00971173 -0.0375226,0.0030901 z "/>
<path fill="rgb(42,41,42)" stroke="rgb(42,41,42)" d="M 4.50185,3.03852 l -0.107712,0 0,-0.438352 0.107712,0 0,0.263541 0.00441442,0.0264865 0.0180991,0.0300181 0.0216307,0.0167748 0.0335496,0.00794596 0.178343,0.00573875 -0.0145676,0.0300181 -0.241469,0.0220721 0,0.0357568 z "/>
<path fill="rgb(42,41,42)" stroke="rgb(42,41,42)" d="M 4.75788,2.95067 l -0.178343,-0.00573875 0.0295766,-0.00441442 0.0282523,-0.0176577 0.0163334,-0.0242793 0.00618019,-0.0348739 0,-0.263541 0.105063,0 0,0.305478 -0.000441442,0.0105946 -0.00662163,0.0344325 z "/>
<path fill="rgb(42,41,42)" stroke="rgb(42,41,42)" d="M 4.12,3.04911 l -0.0242793,-0.00132433 -0.0331082,-0.00485586 -0.033991,-0.00882884 -0.033991,-0.0128018 -0.0348739,-0.0167748 0.0445857,-0.0927029 0.00882884,0.00529731 0.0322253,0.0154505 0.0335496,0.00927029 0.0348739,0.0030901 0.161126,0.0225135 -0.015009,0.0251622 -0.0194235,0.0203063 -0.0233964,0.0154505 -0.0282523,0.0114775 -0.0322253,0.00662163 -0.0366397,0.00264865 z "/>
<path fill="rgb(42,41,42)" stroke="rgb(42,41,42)" d="M 4.27495,2.96745 l -0.161126,-0.0225135 0.0238379,-0.00264865 0.0282523,-0.0123604 0.0185406,-0.022955 0.00882884,-0.033991 -0.187171,0 -0.0278109,-0.0154505 -0.0176577,-0.0158919 -0.018982,-0.026928 0.158919,-0.015009 0.0220721,-0.00132433 0.0344325,-0.00662163 0.0361983,-0.0123604 0,-0.0670992 -0.0300181,-0.0119189 -0.0348739,-0.00927029 -0.0304595,-0.00353154 -0.160243,-0.00750452 0.0158919,-0.0291352 0.0220721,-0.0233964 0.00882884,-0.00662163 0.208802,-0.00132433 0,-0.0194235 0.101532,0 0,0.265307 0,0.000441442 -0.00220721,0.0384055 -0.00662163,0.033991 -0.0110361,0.0291352 z "/>
<path fill="rgb(42,41,42)" stroke="rgb(42,41,42)" d="M 4.09528,2.88887 l -0.0194235,-0.000441442 -0.0370811,-0.00529731 -0.0326667,-0.0101532 0.187171,0 -0.026928,0.00794596 -0.0348739,0.00573875 -0.0361983,0.00220721 z "/>
<path fill="rgb(42,41,42)" stroke="rgb(42,41,42)" d="M 3.94166,2.81471 l -0.0110361,-0.0317838 -0.00397298,-0.0375226 0.00220721,-0.0313424 0.00882884,-0.033991 0.160243,0.00750452 -0.0256036,0.0030901 -0.0291352,0.0145676 -0.00882884,0.00927029 -0.0114775,0.030901 0.00132433,0.0105946 0.0198649,0.0278109 0.0194235,0.0105946 0.0370811,0.00529731 -0.158919,0.015009 z "/>
<path fill="rgb(42,41,42)" stroke="rgb(42,41,42)" d="M 3.98448,2.62092 l 0.0291352,-0.0158919 0.0335496,-0.00927029 0.037964,-0.00353154 0.00662163,0.000441442 0.0357568,0.00353154 0.033991,0.00882884 0.0317838,0.0145676 -0.208802,0.00132433 z "/>
<path fill="rgb(42,41,42)" stroke="rgb(42,41,42)" d="M 3.67679,3.04911 l -0.0238379,-0.00132433 -0.0335496,-0.00485586 -0.033991,-0.00882884 -0.033991,-0.0128018 -0.0344325,-0.0167748 0.0445857,-0.0927029 0.0083874,0.00529731 0.0326667,0.0154505 0.0335496,0.00927029 0.0344325,0.0030901 0.161568,0.0225135 -0.0154505,0.0251622 -0.0194235,0.0203063 -0.0233964,0.0154505 -0.0282523,0.0114775 -0.0322253,0.00662163 -0.0366397,0.00264865 z "/>
<path fill="rgb(42,41,42)" stroke="rgb(42,41,42)" d="M 3.83218,2.96745 l -0.161568,-0.0225135 0.0238379,-0.00264865 0.0282523,-0.0123604 0.0185406,-0.022955 0.00882884,-0.033991 -0.187171,0 -0.0278109,-0.0154505 -0.0176577,-0.0158919 -0.018982,-0.026928 0.158919,-0.015009 0.0220721,-0.00132433 0.0344325,-0.00662163 0.0361983,-0.0123604 0,-0.0670992 -0.0300181,-0.0119189 -0.0348739,-0.00927029 -0.0300181,-0.00353154 -0.160685,-0.00750452 0.0158919,-0.0291352 0.0220721,-0.0233964 0.00882884,-0.00662163 0.208802,-0.00132433 0,-0.0194235 0.101532,0 0,0.265307 0,0.000441442 -0.00220721,0.0384055 -0.00662163,0.033991 -0.0105946,0.0291352 z "/>
<path fill="rgb(42,41,42)" stroke="rgb(42,41,42)" d="M 3.65251,2.88887 l -0.0198649,-0.000441442 -0.0370811,-0.00529731 -0.0326667,-0.0101532 0.187171,0 -0.026928,0.00794596 -0.0348739,0.00573875 -0.0357568,0.00220721 z "/>
<path fill="rgb(42,41,42)" stroke="rgb(42,41,42)" d="M 3.49845,2.81471 l -0.0110361,-0.0317838 -0.00397298,-0.0375226 0.00220721,-0.0313424 0.00882884,-0.033991 0.160685,0.00750452 -0.0260451,0.0030901 -0.0291352,0.0145676 -0.00882884,0.00927029 -0.0114775,0.030901 0.00132433,0.0105946 0.0198649,0.0278109 0.0198649,0.0105946 0.0366397,0.00529731 -0.158919,0.015009 z "/>
<path fill="rgb(42,41,42)" stroke="rgb(42,41,42)" d="M 3.54127,2.62092 l 0.0291352,-0.0158919 0.0335496,-0.00927029 0.037964,-0.00353154 0.00662163,0.000441442 0.0361983,0.00353154 0.0335496,0.00882884 0.0317838,0.0145676 -0.208802,0.00132433 z "/>
<path fill="rgb(42,41,42)" stroke="rgb(42,41,42)" d="M 3.35189,3.2098 l -0.109478,-0.0392884 0,-0.13464 -0.0715136,0 0,-0.100649 0.0715136,0 0,-0.210568 0.0030901,-0.0384055 0.154063,0.0110361 -0.0242793,0.00573875 -0.0176577,0.0216307 -0.00573875,0.0375226 0,0.173045 0.0896128,0 0,0.100649 -0.0896128,0 0,0.173928 z "/>
<path fill="rgb(42,41,42)" stroke="rgb(42,41,42)" d="M 3.44857,2.72024 l -0.0180991,-0.0136847 -0.030901,-0.00927029 -0.154063,-0.0110361 0.00971173,-0.0331082 0.0158919,-0.0273694 0.015009,-0.0154505 0.0291352,-0.0154505 0.0366397,-0.00529731 0.0110361,0.000882884 0.0335496,0.00662163 0.0348739,0.0154505 0.0172162,0.107712 z "/>
<path fill="rgb(42,41,42)" stroke="rgb(42,41,42)" d="M 2.96121,3.04647 l -0.0273694,-0.00132433 -0.0370811,-0.00529731 -0.0317838,-0.0105946 -0.0273694,-0.0154505 -0.000882884,-0.000441442 -0.0251622,-0.0247208 -0.015009,-0.0295766 0.166865,-0.0158919 0.0282523,-0.00176577 0.033991,-0.00618019 0.0335496,-0.0114775 0.0326667,-0.0163334 0.0397298,0.0953515 -0.000441442,0 -0.0331082,0.0154505 -0.033991,0.0123604 -0.033991,0.00882884 -0.0344325,0.00529731 -0.0344325,0.00176577 z "/>
<path fill="rgb(42,41,42)" stroke="rgb(42,41,42)" d="M 2.79656,2.95906 l -0.00529731,-0.0344325 0.000441442,-0.00882884 0.00662163,-0.0335496 0.0163334,-0.0291352 0.0247208,-0.0256036 0.018982,-0.0123604 0.0286937,-0.0136847 0.0357568,-0.0132433 0.0432613,-0.0132433 0.0220721,-0.00618019 0.0251622,-0.00750452 0.0141261,-0.00794596 0.0141261,-0.026928 -0.00618019,-0.015009 -0.0260451,-0.0119189 -0.04591,-0.00397298 0.178343,-0.00971173 0.00441442,0.0361983 -0.000882884,0.0154505 -0.00618019,0.0278109 -0.0123604,0.0247208 -0.0180991,0.0220721 -0.0247208,0.018982 -0.0304595,0.0163334 -0.0366397,0.0136847 -0.0428199,0.0101532 -0.0344325,0.0083874 -0.0264865,0.00927029 -0.015009,0.0242793 0.00220721,0.0101532 0.0207478,0.015009 0.0423784,0.00485586 -0.166865,0.0158919 z "/>
<path fill="rgb(42,41,42)" stroke="rgb(42,41,42)" d="M 2.82039,2.72642 l -0.0392884,-0.0944686 0.0123604,-0.00618019 0.0313424,-0.0119189 0.0326667,-0.00927029 0.0348739,-0.00662163 0.0370811,-0.00441442 0.0384055,-0.00132433 0.037964,0.00220721 0.0361983,0.00618019 0.0313424,0.0105946 0.0264865,0.0154505 0.00573875,0.00397298 0.0225135,0.0247208 0.0136847,0.0304595 -0.178343,0.00971173 -0.0110361,0.000441442 -0.0331082,0.00441442 -0.0397298,0.00927029 -0.026928,0.00706307 -0.0322253,0.00971173 z "/>
<path fill="rgb(42,41,42)" stroke="rgb(42,41,42)" d="M 2.54935,3.0447 l -0.015009,-0.000882884 -0.0335496,-0.00618019 -0.030901,-0.0128018 -0.0278109,-0.0194235 -0.0256036,-0.0264865 -0.0180991,-0.0251622 -0.0158919,-0.0304595 -0.0110361,-0.0326667 -0.00706307,-0.0348739 -0.00220721,-0.0366397 0.00220721,-0.0370811 0.00662163,-0.0348739 0.0110361,-0.0326667 0.0154505,-0.0304595 0.156271,0.00441442 -0.0220721,0.00353154 -0.0295766,0.0194235 -0.0180991,0.0247208 -0.0123604,0.0348739 -0.00441442,0.0145676 0.267514,0 0,0.0317838 -0.000441442,0.0163334 -0.00485586,0.0348739 -0.256036,0.000882884 0.00794596,0.0260451 0.0176577,0.0291352 0.0242793,0.0172162 0.0304595,0.00573875 0.146117,0.0030901 -0.0176577,0.0264865 -0.0110361,0.0132433 -0.0264865,0.0238379 -0.0286937,0.0167748 -0.0322253,0.0101532 -0.0344325,0.00353154 z "/>
<path fill="rgb(42,41,42)" stroke="rgb(42,41,42)" d="M 2.69988,2.95067 l -0.146117,-0.0030901 0.0163334,-0.00132433 0.0291352,-0.0145676 0.0154505,-0.022955 0.0141261,-0.0392884 -0.155388,0 0.256036,-0.000882884 -0.00971173,0.0353154 -0.00441442,0.0128018 -0.0154505,0.033991 z "/>
<path fill="rgb(42,41,42)" stroke="rgb(42,41,42)" d="M 2.62263,2.72465 l -0.0083874,-0.00882884 -0.0300181,-0.0203063 -0.0304595,-0.00706307 -0.156271,-0.00441442 0.0198649,-0.0278109 0.0132433,-0.0145676 0.026928,-0.0225135 0.0295766,-0.0163334 0.0317838,-0.00971173 0.0348739,-0.00353154 0.0198649,0.00132433 0.0331082,0.00662163 0.030901,0.0136847 0.0278109,0.0194235 0.0256036,0.0264865 0.00353154,0.00441442 -0.0719551,0.0631262 z "/>
<path fill="rgb(42,41,42)" stroke="rgb(42,41,42)" d="M 2.06641,3.04956 l -0.0317838,-0.00353154 -0.0295766,-0.0119189 -0.0273694,-0.0203063 -0.0251622,-0.0295766 0.214099,0.0225135 -0.0194235,0.015009 -0.0242793,0.0158919 -0.00971173,0.00353154 -0.0384055,0.00794596 -0.0083874,0.000441442 z "/>
<path fill="rgb(42,41,42)" stroke="rgb(42,41,42)" d="M 2.27212,3.03852 l -0.105505,0 0,-0.0317838 -0.214099,-0.0225135 -0.000882884,-0.00132433 -0.0185406,-0.0295766 0.158478,-0.0119189 0.0194235,-0.00264865 0.0286937,-0.0154505 0.026928,-0.0282523 0,-0.155829 -0.0176577,-0.0203063 -0.0282523,-0.0203063 -0.0291352,-0.00662163 -0.159802,-0.00706307 0.018982,-0.0286937 0.00485586,-0.00662163 0.211009,-0.0136847 0,-0.0463514 -0.000441442,-0.00662163 -0.00618019,-0.0251622 -0.015009,-0.0247208 -0.022955,-0.0242793 -0.0313424,-0.0233964 -0.0397298,-0.0225135 0.0423784,-0.0935857 0.0101532,0.00353154 0.0335496,0.0141261 0.0317838,0.0167748 0.0256036,0.0172162 0.00397298,0.0030901 0.0238379,0.0233964 0.0220721,0.0313424 0.00927029,0.0176577 0.0105946,0.0304595 0.00618019,0.0361983 0.00176577,0.0414956 0,0.433938 z "/>
<path fill="rgb(42,41,42)" stroke="rgb(42,41,42)" d="M 1.9331,2.95332 l -0.0145676,-0.0313424 -0.0101532,-0.0335496 -0.00618019,-0.0348739 -0.00220721,-0.0361983 0.00176577,-0.0326667 0.00573875,-0.0353154 0.0101532,-0.0335496 0.0141261,-0.030901 0.159802,0.00706307 -0.00529731,0.000441442 -0.0313424,0.0101532 -0.0247208,0.0251622 -0.00971173,0.0180991 -0.00971173,0.0326667 -0.00353154,0.0388469 0.00176577,0.0251622 0.00706307,0.0348739 0.0141261,0.0291352 0.0030901,0.00397298 0.0260451,0.0233964 0.0322253,0.00750452 -0.158478,0.0119189 z "/>
<path fill="rgb(42,41,42)" stroke="rgb(42,41,42)" d="M 1.95561,2.64961 l 0.0256036,-0.026928 0.0282523,-0.0185406 0.0304595,-0.0110361 0.0331082,-0.00353154 0.00264865,0.000441442 0.0326667,0.00573875 0.0304595,0.0154505 0.0278109,0.0247208 -0.211009,0.0136847 z "/>
<path fill="rgb(42,41,42)" stroke="rgb(42,41,42)" d="M 1.65631,3.0447 l -0.015009,-0.000882884 -0.0335496,-0.00618019 -0.030901,-0.0128018 -0.0282523,-0.0194235 -0.0251622,-0.0264865 -0.0180991,-0.0251622 -0.0158919,-0.0304595 -0.0114775,-0.0326667 -0.00662163,-0.0348739 -0.00220721,-0.0366397 0.00220721,-0.0370811 0.00662163,-0.0348739 0.0110361,-0.0326667 0.0154505,-0.0304595 0.155829,0.00441442 -0.0216307,0.00353154 -0.0295766,0.0194235 -0.0185406,0.0247208 -0.0123604,0.0348739 -0.00441442,0.0145676 0.267514,0 0,0.0317838 -0.000441442,0.0163334 -0.00485586,0.0348739 -0.256036,0.000882884 0.0083874,0.0260451 0.0176577,0.0291352 0.0238379,0.0172162 0.0304595,0.00573875 0.146559,0.0030901 -0.0176577,0.0264865 -0.0114775,0.0132433 -0.0260451,0.0238379 -0.0291352,0.0167748 -0.0317838,0.0101532 -0.0344325,0.00353154 z "/>
<path fill="rgb(42,41,42)" stroke="rgb(42,41,42)" d="M 1.80684,2.95067 l -0.146559,-0.0030901 0.0163334,-0.00132433 0.0291352,-0.0145676 0.0154505,-0.022955 0.0145676,-0.0392884 -0.155829,0 0.256036,-0.000882884 -0.00927029,0.0353154 -0.00485586,0.0128018 -0.015009,0.033991 z "/>
<path fill="rgb(42,41,42)" stroke="rgb(42,41,42)" d="M 1.72959,2.72465 l -0.00882884,-0.00882884 -0.0295766,-0.0203063 -0.030901,-0.00706307 -0.155829,-0.00441442 0.0198649,-0.0278109 0.0128018,-0.0145676 0.026928,-0.0225135 0.0295766,-0.0163334 0.0322253,-0.00971173 0.0344325,-0.00353154 0.0198649,0.00132433 0.0335496,0.00662163 0.0304595,0.0136847 0.0282523,0.0194235 0.0251622,0.0264865 0.00353154,0.00441442 -0.0715136,0.0631262 z "/>
<path fill="rgb(42,41,42)" stroke="rgb(42,41,42)" d="M 1.20604,3.04911 l -0.018982,-0.00132433 -0.0331082,-0.00662163 -0.0304595,-0.0132433 -0.0282523,-0.0198649 -0.0256036,-0.0264865 -0.0194235,-0.0273694 -0.0154505,-0.0304595 -0.0114775,-0.0322253 -0.00662163,-0.0353154 -0.00220721,-0.0370811 0.00220721,-0.0357568 0.00662163,-0.0348739 0.0110361,-0.0326667 0.0154505,-0.0304595 0.156271,0.0101532 -0.00485586,0.000441442 -0.0313424,0.00971173 -0.0251622,0.0247208 -0.00927029,0.0172162 -0.0101532,0.0326667 -0.0030901,0.0388469 0.00132433,0.022955 0.00706307,0.0353154 0.0141261,0.0291352 0.0030901,0.00397298 0.0260451,0.0233964 0.0322253,0.00750452 0.155388,0.0123604 -0.0198649,0.0278109 -0.0132433,0.0141261 -0.0273694,0.0233964 -0.0295766,0.0163334 -0.0313424,0.0101532 -0.033991,0.00353154 z "/>
<path fill="rgb(42,41,42)" stroke="rgb(42,41,42)" d="M 1.36143,2.95376 l -0.155388,-0.0123604 0.00264865,0 0.0317838,-0.00927029 0.0251622,-0.0247208 0.00882884,-0.0167748 0.00971173,-0.0326667 0.0030901,-0.0388469 -0.00132433,-0.0238379 -0.00706307,-0.0353154 -0.0132433,-0.0295766 -0.00220721,-0.0030901 -0.0251622,-0.0238379 -0.0322253,-0.00794596 -0.156271,-0.0101532 0.0198649,-0.0282523 0.0136847,-0.015009 0.026928,-0.022955 0.0291352,-0.0163334 0.0322253,-0.00971173 0.0344325,-0.00353154 0.0172162,0.000882884 0.0326667,0.00662163 0.030901,0.0136847 0.0282523,0.0198649 0.0264865,0.0264865 0.0198649,0.026928 0.0154505,0.0304595 0.0114775,0.0322253 0.00662163,0.0348739 0.00264865,0.0375226 -0.00220721,0.0370811 -0.00706307,0.0348739 -0.0110361,0.0326667 -0.0158919,0.0300181 z "/>
<path fill="rgb(42,41,42)" stroke="rgb(42,41,42)" d="M 0.876724,3.2098 l -0.109478,-0.0392884 0,-0.13464 -0.0715136,0 0,-0.100649 0.0715136,0 0,-0.210568 0.0030901,-0.0384055 0.154063,0.0110361 -0.0242793,0.00573875 -0.0176577,0.0216307 -0.00573875,0.0375226 0,0.173045 0.0896128,0 0,0.100649 -0.0896128,0 0,0.173928 z "/>
<path fill="rgb(42,41,42)" stroke="rgb(42,41,42)" d="M 0.9734,2.72024 l -0.0180991,-0.0136847 -0.030901,-0.00927029 -0.154063,-0.0110361 0.00971173,-0.0331082 0.0158919,-0.0273694 0.015009,-0.0154505 0.0291352,-0.0154505 0.0366397,-0.00529731 0.0110361,0.000882884 0.0335496,0.00662163 0.0348739,0.0154505 0.0172162,0.107712 z "/>
<path fill="rgb(42,41,42)" stroke="rgb(42,41,42)" d="M 0.792683,1.81193 l -0.0328666,0.302325 -0.000329534,0.0021716 -0.000511898,0.00213598 -0.000690598,0.00208507 -0.000864356,0.00201924 -0.00103193,0.00193896 -0.00119212,0.0018448 -0.00134377,0.00173744 -0.00148581,0.00161765 -0.00161722,0.00148628 -0.00173705,0.00134428 -0.00184446,0.00119265 -0.00193866,0.00103249 -0.00201899,0.000864943 -0.00208487,0.000691204 -0.00213583,0.000512518 -0.0021715,0.000330165 -0.331902,0 -0.00390059,-0.000167015 -0.00387204,-0.000499822 -0.00381514,-0.00082897 -0.00373032,-0.00115205 -0.00361819,-0.0014667 -0.00347957,-0.00177061 -0.00331549,-0.00206156 -0.00312713,-0.00233742 -0.00291589,-0.00259617 -0.0026833,-0.00283591 -0.00243107,-0.0030549 -0.00216104,-0.00325152 -0.00187519,-0.00342434 -0.00157562,-0.0035721 -0.00126451,-0.00369371 -0.0603835,-0.180227 0.0962868,0 0.0352028,0.118934 0.000612744,0.00206003 0.000792205,0.0019979 0.000965481,0.00192016 0.00113122,0.00182744 0.00128812,0.00172044 0.00143497,0.00160002 0.00157061,0.00146709 0.00169399,0.00132272 0.00180414,0.00116801 0.00190021,0.00100419 0.00198144,0.000832522 0.00204719,0.000654357 0.00209697,0.000471082 0.00213037,0.000284128 0.00214713,9.49566e-05 0.198811,0 0.00185255,5.65907e-05 0.00185051,-0.000103775 0.00183461,-0.000263364 0.00180497,-0.000420981 0.00176182,-0.000575446 0.00170548,-0.000725602 0.00163636,-0.000870325 0.001555,-0.00100853 0.00146199,-0.00113919 0.00135803,-0.00126131 0.0012439,-0.00137399 0.00112047,-0.00147638 0.000988637,-0.00156772 0.000849405,-0.00164732 0.000703813,-0.00171458 0.000552952,-0.00176901 0.00039795,-0.00181019 0.000239968,-0.00183781 8.01895e-05,-0.00185168 0,-0.17745 -8.69663e-05,-0.00200486 -0.000261402,-0.00198964 -0.000433848,-0.00195928 -0.00060299,-0.001914 -0.000767542,-0.00185415 -0.00092625,-0.00178019 -0.00107791,-0.00169267 -0.00122136,-0.00159226 -0.00135551,-0.00147973 -0.00147934,-0.00135594 -0.00159191,-0.00122182 -0.00169235,-0.0010784 -0.00177992,-0.000926768 -0.00185393,-0.000768081 -0.00191383,-0.000603547 -0.00195916,-0.000434417 -0.00198957,-0.00026198 -0.00200483,-8.7549e-05 -0.104269,0 0.0412489,-0.204646 0.0193032,0.00294435 0.0194885,0.00121801 0.0195196,-0.00051796 0.0193965,-0.00224984 0.0191199,-0.00396392 0.0186922,-0.00564667 0.0181167,-0.00728477 0.017398,-0.00886528 0.0165417,-0.0103757 0.0155547,-0.0118041 0.0144446,-0.0131391 0.0132204,-0.0143703 0.0118916,-0.0154879 0.0104688,-0.016483 0.00896327,-0.0173477 0.00738684,-0.0180754 0.00575201,-0.0186601 0.681868,0 0.00552649,0.0183422 0.00711575,0.0177861 0.00865004,0.0170925 0.0101175,0.016267 0.0115068,0.0153157 0.0128072,0.0142462 0.0140087,0.0130666 0.0151019,0.011786 0.0160785,0.0104144 0.0169309,0.00896232 0.0176525,0.00744101 0.0182377,0.00586223 0.018682,0.00423815 0.018982,0.00258133 0.0191353,0.000904577 0.385906,0 0.0192183,-0.000845443 0.0190699,-0.0025298 0.018774,-0.00419461 0.0183332,-0.00582701 0.0177507,-0.00741439 0.017031,-0.00894448 0.0161798,-0.0104055 0.0152035,-0.0117861 0.0141098,-0.0130756 0.0129071,-0.0142641 0.0116047,-0.0153424 0.0102126,-0.0163022 0.00874159,-0.017136 0.00720305,-0.0178375 0.00560887,-0.0184011 0.230026,0 0,0.814959 -1.72685,0 0,-0.604642 -0.0476485,0 0,0.126506 z "/>
<path fill="rgb(42,41,42)" stroke="rgb(42,41,42)" d="M 0.550396,1.83986 l -0.17834,0 0.0249982,0.0844572 -0.0962868,0 -0.0470137,-0.140322 0.0197226,-0.266169 -0.0345046,-0.0213673 0,-0.0755745 0.175806,0 0.00089651,0.0187772 0.00249913,0.0186317 0.00408344,0.0183497 0.00563783,0.0179332 0.0071509,0.0173854 0.00861158,0.0167101 0.0100091,0.0159124 0.0113334,0.014998 0.0125745,0.0139738 0.0137236,0.0128472 0.014772,0.0116264 0.0157123,0.0103204 0.0165373,0.00893885 0.0172412,0.00749175 0.0178188,0.00598975 0.0182658,0.00444387 -0.0412489,0.204646 z "/>
<path fill="rgb(42,41,42)" stroke="rgb(42,41,42)" d="M 1.91255,1.42088 l -0.000650243,0.014893 -0.00194578,0.0147797 -0.00322651,0.0145538 -0.00448268,0.0142172 -0.00570474,0.0137725 -0.00688338,0.0132228 -0.00800963,0.0125726 -0.00907493,0.0118267 -0.0100712,0.0109907 -0.0109907,0.0100712 -0.0118267,0.00907493 -0.0125726,0.00800963 -0.0132228,0.00688338 -0.0137725,0.00570474 -0.0142172,0.00448268 -0.0145538,0.00322651 -0.0147797,0.00194578 -0.014893,0.000650243 -0.014893,-0.000650243 -0.0147797,-0.00194578 -0.0145538,-0.00322651 -0.0142172,-0.00448268 -0.0137725,-0.00570474 -0.0132228,-0.00688338 -0.0125726,-0.00800963 -0.0118267,-0.00907493 -0.0109907,-0.0100712 -0.0100712,-0.0109907 -0.00907493,-0.0118267 -0.00800963,-0.0125726 -0.00688338,-0.0132228 -0.00570474,-0.0137725 -0.00448268,-0.0142172 -0.00322651,-0.0145538 -0.00194578,-0.0147797 -0.000650243,-0.014893 0.000650243,-0.014893 0.00194578,-0.0147797 0.00322651,-0.0145538 0.00448268,-0.0142172 0.00570474,-0.0137725 0.00688338,-0.0132228 0.00800963,-0.0125726 0.00907493,-0.0118267 0.0100712,-0.0109907 0.0109907,-0.0100712 0.0118267,-0.00907493 0.0125726,-0.00800963 0.0132228,-0.00688338 0.0137725,-0.00570474 0.0142172,-0.00448268 0.0145538,-0.00322651 0.0147797,-0.00194578 0.014893,-0.000650243 0.014893,0.000650243 0.0147797,0.00194578 0.0145538,0.00322651 0.0142172,0.00448268 0.0137725,0.00570474 0.0132228,0.00688338 0.0125726,0.00800963 0.0118267,0.00907493 0.0109907,0.0100712 0.0100712,0.0109907 0.00907493,0.0118267 0.00800963,0.0125726 0.00688338,0.0132228 0.00570474,0.0137725 0.00448268,0.0142172 0.00322651,0.0145538 0.00194578,0.0147797 0.000650243,0.014893 z "/>
<path fill="rgb(42,41,42)" stroke="rgb(42,41,42)" d="M 1.95412,1.42088 l 0.000650243,-0.014893 0.00194578,-0.0147797 0.00322651,-0.0145538 0.00448268,-0.0142172 0.00570474,-0.0137725 0.00688338,-0.0132228 0.00800963,-0.0125726 0.00907493,-0.0118267 0.0100712,-0.0109907 0.0109907,-0.0100712 0.0118267,-0.00907493 0.0125726,-0.00800963 0.0132228,-0.00688338 0.0137725,-0.00570474 0.0142172,-0.00448268 0.0145538,-0.00322651 0.0147797,-0.00194578 0.014893,-0.000650243 0.014893,0.000650243 0.0147797,0.00194578 0.0145538,0.00322651 0.0142172,0.00448268 0.0137725,0.00570474 0.0132228,0.00688338 0.0125726,0.00800963 0.0118267,0.00907493 0.0109907,0.0100712 0.0100712,0.0109907 0.00907493,0.0118267 0.00800963,0.0125726 0.00688338,0.0132228 0.00570474,0.0137725 0.00448268,0.0142172 0.00322651,0.0145538 0.00194578,0.0147797 0.000650243,0.014893 -0.000650243,0.014893 -0.00194578,0.0147797 -0.00322651,0.0145538 -0.00448268,0.0142172 -0.00570474,0.0137725 -0.00688338,0.0132228 -0.00800963,0.0125726 -0.00907493,0.0118267 -0.0100712,0.0109907 -0.0109907,0.0100712 -0.0118267,0.00907493 -0.0125726,0.00800963 -0.0132228,0.00688338 -0.0137725,0.00570474 -0.0142172,0.00448268 -0.0145538,0.00322651 -0.0147797,0.00194578 -0.014893,0.000650243 -0.014893,-0.000650243 -0.0147797,-0.00194578 -0.0145538,-0.00322651 -0.0142172,-0.00448268 -0.0137725,-0.00570474 -0.0132228,-0.00688338 -0.0125726,-0.00800963 -0.0118267,-0.00907493 -0.0109907,-0.0100712 -0.0100712,-0.0109907 -0.00907493,-0.0118267 -0.00800963,-0.0125726 -0.00688338,-0.0132228 -0.00570474,-0.0137725 -0.00448268,-0.0142172 -0.00322651,-0.0145538 -0.00194578,-0.0147797 -0.000650243,-0.014893 z "/>
<path fill="rgb(42,41,42)" stroke="rgb(42,41,42)" d="M 0.805725,1.42088 l -0.000650243,0.014893 -0.00194578,0.0147797 -0.00322651,0.0145538 -0.00448268,0.0142172 -0.00570474,0.0137725 -0.00688338,0.0132228 -0.00800963,0.0125726 -0.00907493,0.0118267 -0.0100712,0.0109907 -0.0109907,0.0100712 -0.0118267,0.00907493 -0.0125726,0.00800963 -0.0132228,0.00688338 -0.0137725,0.00570474 -0.0142172,0.00448268 -0.0145538,0.00322651 -0.0147797,0.00194578 -0.014893,0.000650243 -0.014893,-0.000650243 -0.0147797,-0.00194578 -0.0145538,-0.00322651 -0.0142172,-0.00448268 -0.0137725,-0.00570474 -0.0132228,-0.00688338 -0.0125726,-0.00800963 -0.0118267,-0.00907493 -0.0109907,-0.0100712 -0.0100712,-0.0109907 -0.00907493,-0.0118267 -0.00800963,-0.0125726 -0.00688338,-0.0132228 -0.00570474,-0.0137725 -0.00448268,-0.0142172 -0.00322651,-0.0145538 -0.00194578,-0.0147797 -0.000650243,-0.014893 0.000650243,-0.014893 0.00194578,-0.0147797 0.00322651,-0.0145538 0.00448268,-0.0142172 0.00570474,-0.0137725 0.00688338,-0.0132228 0.00800963,-0.0125726 0.00907493,-0.0118267 0.0100712,-0.0109907 0.0109907,-0.0100712 0.0118267,-0.00907493 0.0125726,-0.00800963 0.0132228,-0.00688338 0.0137725,-0.00570474 0.0142172,-0.00448268 0.0145538,-0.00322651 0.0147797,-0.00194578 0.014893,-0.000650243 0.014893,0.000650243 0.0147797,0.00194578 0.0145538,0.00322651 0.0142172,0.00448268 0.0137725,0.00570474 0.0132228,0.00688338 0.0125726,0.00800963 0.0118267,0.00907493 0.0109907,0.0100712 0.0100712,0.0109907 0.00907493,0.0118267 0.00800963,0.0125726 0.00688338,0.0132228 0.00570474,0.0137725 0.00448268,0.0142172 0.00322651,0.0145538 0.00194578,0.0147797 0.000650243,0.014893 z "/>
<path fill="rgb(42,41,42)" stroke="rgb(42,41,42)" d="M 3.55198,1.42698 l -0.00067345,0.0154245 -0.00201522,0.0153071 -0.00334166,0.0150733 -0.00464267,0.0147247 -0.00590834,0.014264 -0.00712904,0.0136948 -0.00829549,0.0130213 -0.00939881,0.0122488 -0.0104306,0.011383 -0.011383,0.0104306 -0.0122488,0.00939881 -0.0130213,0.00829549 -0.0136948,0.00712904 -0.014264,0.00590834 -0.0147247,0.00464267 -0.0150733,0.00334166 -0.0153071,0.00201522 -0.0154245,0.00067345 -0.0154245,-0.00067345 -0.0153071,-0.00201522 -0.0150733,-0.00334166 -0.0147247,-0.00464267 -0.014264,-0.00590834 -0.0136948,-0.00712904 -0.0130213,-0.00829549 -0.0122488,-0.00939881 -0.011383,-0.0104306 -0.0104306,-0.011383 -0.00939881,-0.0122488 -0.00829549,-0.0130213 -0.00712904,-0.0136948 -0.00590834,-0.014264 -0.00464267,-0.0147247 -0.00334166,-0.0150733 -0.00201522,-0.0153071 -0.00067345,-0.0154245 0.00067345,-0.0154245 0.00201522,-0.0153071 0.00334166,-0.0150733 0.00464267,-0.0147247 0.00590834,-0.014264 0.00712904,-0.0136948 0.00829549,-0.0130213 0.00939881,-0.0122488 0.0104306,-0.011383 0.011383,-0.0104306 0.0122488,-0.00939881 0.0130213,-0.00829549 0.0136948,-0.00712904 0.014264,-0.00590834 0.0147247,-0.00464267 0.0150733,-0.00334166 0.0153071,-0.00201522 0.0154245,-0.00067345 0.0154245,0.00067345 0.0153071,0.00201522 0.0150733,0.00334166 0.0147247,0.00464267 0.014264,0.00590834 0.0136948,0.00712904 0.0130213,0.00829549 0.0122488,0.00939881 0.011383,0.0104306 0.0104306,0.011383 0.00939881,0.0122488 0.00829549,0.0130213 0.00712904,0.0136948 0.00590834,0.014264 0.00464267,0.0147247 0.00334166,0.0150733 0.00201522,0.0153071 0.00067345,0.0154245 z "/>
<path fill="rgb(42,41,42)" stroke="rgb(42,41,42)" d="M 4.82258,1.42698 l -0.00067345,0.0154245 -0.00201522,0.0153071 -0.00334166,0.0150733 -0.00464267,0.0147247 -0.00590834,0.014264 -0.00712904,0.0136948 -0.00829549,0.0130213 -0.00939881,0.0122488 -0.0104306,0.011383 -0.011383,0.0104306 -0.0122488,0.00939881 -0.0130213,0.00829549 -0.0136948,0.00712904 -0.014264,0.00590834 -0.0147247,0.00464267 -0.0150733,0.00334166 -0.0153071,0.00201522 -0.0154245,0.00067345 -0.0154245,-0.00067345 -0.0153071,-0.00201522 -0.0150733,-0.00334166 -0.0147247,-0.00464267 -0.014264,-0.00590834 -0.0136948,-0.00712904 -0.0130213,-0.00829549 -0.0122488,-0.00939881 -0.011383,-0.0104306 -0.0104306,-0.011383 -0.00939881,-0.0122488 -0.00829549,-0.0130213 -0.00712904,-0.0136948 -0.00590834,-0.014264 -0.00464267,-0.0147247 -0.00334166,-0.0150733 -0.00201522,-0.0153071 -0.00067345,-0.0154245 0.00067345,-0.0154245 0.00201522,-0.0153071 0.00334166,-0.0150733 0.00464267,-0.0147247 0.00590834,-0.014264 0.00712904,-0.0136948 0.00829549,-0.0130213 0.00939881,-0.0122488 0.0104306,-0.011383 0.011383,-0.0104306 0.0122488,-0.00939881 0.0130213,-0.00829549 0.0136948,-0.00712904 0.014264,-0.00590834 0.0147247,-0.00464267 0.0150733,-0.00334166 0.0153071,-0.00201522 0.0154245,-0.00067345 0.0154245,0.00067345 0.0153071,0.00201522 0.0150733,0.00334166 0.0147247,0.00464267 0.014264,0.00590834 0.0136948,0.00712904 0.0130213,0.00829549 0.0122488,0.00939881 0.011383,0.0104306 0.0104306,0.011383 0.00939881,0.0122488 0.00829549,0.0130213 0.00712904,0.0136948 0.00590834,0.014264 0.00464267,0.0147247 0.00334166,0.0150733 0.00201522,0.0153071 0.00067345,0.0154245 z "/>
<path fill="rgb(42,41,42)" stroke="rgb(42,41,42)" d="M 5.23707,2.33082 l -2.31132,0 -0.00287052,-0.000123844 -0.00284919,-0.000370612 -0.00280668,-0.000614626 -0.00274332,-0.000854072 -0.00265957,-0.00108717 -0.00255605,-0.00131219 -0.00243354,-0.00152746 -0.00229294,-0.00173137 -0.0021353,-0.00192242 -0.0019618,-0.00209919 -0.00177371,-0.00226035 -0.00157244,-0.00240471 -0.00135949,-0.00253121 -0.00113643,-0.00263889 -0.000904933,-0.00272696 -0.000666706,-0.00279477 -0.000423525,-0.0028418 -0.000177196,-0.00286772 7.04494e-05,-0.00287233 0.0332529,-0.106936 -0.0896997,-0.21873 0.0684022,0 0.0925738,0.230614 0.000254345,0.00103398 0.00034637,0.0010069 0.000435583,0.000971636 0.000521261,0.000928492 0.000602708,0.000877811 0.000679263,0.000820007 0.000750306,0.000755547 0.000815259,0.000684954 0.000873595,0.000608803 0.000924841,0.00052771 0.000968581,0.000442335 0.00100446,0.000353369 0.00103219,0.000261536 0.00105154,0.00016758 0.00106235,7.22634e-05 0.185838,0 0.00103476,-4.51616e-05 0.00102689,-0.000135141 0.00101121,-0.000224093 0.000987845,-0.000311341 0.000956964,-0.000396221 0.000918805,-0.000478088 0.000873659,-0.000556319 0.000821869,-0.000630319 0.000763829,-0.000699526 0.00069998,-0.000763413 0.000630807,-0.000821495 0.000556838,-0.000873329 0.000478634,-0.000918521 0.000396789,-0.000956729 0.000311928,-0.00098766 0.000224694,-0.00101108 0.000135751,-0.00102681 4.57762e-05,-0.00103473 0,-0.228257 0.0748428,0 0,0.263861 -4.81797e-05,0.000954022 3.52425e-05,0.000954588 0.000118396,0.000947872 0.000200646,0.000933928 0.000281366,0.00091286 0.00035994,0.000884829 0.000435769,0.00085005 0.000508274,0.000808787 0.000576903,0.000761356 0.000641131,0.000708118 0.000700469,0.000649479 0.000754465,0.000585886 0.000802706,0.000517825 0.000844825,0.000445814 0.000880501,0.000370402 0.000909461,0.000292166 0.000931484,0.000211701 0.000946402,0.000129622 0.360658,1.33378e-05 0.00125869,-5.48115e-05 0.00124914,-0.000164112 0.00123013,-0.000272168 0.00120179,-0.000378159 0.00116433,-0.000481283 0.00111804,-0.000580757 0.00106327,-0.000675827 0.00100044,-0.000765771 0.000930026,-0.000849908 0.000852556,-0.0009276 0.00076862,-0.000998257 0.000678855,-0.00106134 0.000583942,-0.00111638 0.000484601,-0.00116295 0.000381584,-0.0012007 0.000275673,-0.00122935 0,-0.263874 0.0558602,0 0,0.263861 -4.81797e-05,0.000954022 3.52425e-05,0.000954588 0.000118396,0.000947872 0.000200646,0.000933928 0.000281366,0.00091286 0.00035994,0.000884829 0.000435769,0.00085005 0.000508274,0.000808787 0.000576903,0.000761356 0.000641131,0.000708118 0.000700469,0.000649479 0.000754465,0.000585886 0.000802706,0.000517825 0.000844825,0.000445814 0.000880501,0.000370402 0.000909461,0.000292166 0.000931484,0.000211701 0.000946402,0.000129622 0.360658,1.33378e-05 0.00125869,-5.48115e-05 0.00124914,-0.000164112 0.00123013,-0.000272168 0.00120179,-0.000378159 0.00116433,-0.000481283 0.00111804,-0.000580757 0.00106327,-0.000675827 0.00100044,-0.000765771 0.000930026,-0.000849908 0.000852556,-0.0009276 0.00076862,-0.000998257 0.000678855,-0.00106134 0.000583942,-0.00111638 0.000484601,-0.00116295 0.000381584,-0.0012007 0.000275673,-0.00122935 0,-0.263874 0.054693,0 0,0.263861 -4.81797e-05,0.000954022 3.52425e-05,0.000954588 0.000118396,0.000947872 0.000200646,0.000933928 0.000281366,0.00091286 0.00035994,0.000884829 0.000435769,0.00085005 0.000508274,0.000808787 0.000576903,0.000761356 0.000641131,0.000708118 0.000700469,0.000649479 0.000754465,0.000585886 0.000802706,0.000517825 0.000844825,0.000445814 0.000880501,0.000370402 0.000909461,0.000292166 0.000931484,0.000211701 0.000946402,0.000129622 0.360658,1.33378e-05 0.00125869,-5.48115e-05 0.00124914,-0.000164112 0.00123013,-0.000272168 0.00120179,-0.000378159 0.00116433,-0.000481283 0.00111804,-0.000580757 0.00106327,-0.000675827 0.00100044,-0.000765771 0.000930026,-0.000849908 0.000852556,-0.0009276 0.00076862,-0.000998257 0.000678855,-0.00106134 0.000583942,-0.00111638 0.000484601,-0.00116295 0.000381584,-0.0012007 0.000275673,-0.00122935 0,-0.263874 0.0570211,0 0,0.263867 -4.818e-05,0.000954067 3.525e-05,0.000954632 0.000118411,0.000947916 0.000200669,0.000933969 0.000281396,0.000912897 0.000359977,0.000884863 0.000435812,0.000850078 0.000508323,0.00080881 0.000576956,0.000761372 0.000641189,0.000708126 0.00070053,0.000649479 0.000754528,0.000585878 0.000802771,0.000517808 0.00084489,0.000445788 0.000880564,0.000370367 0.000909522,0.000292122 0.000931542,0.000211648 0.000946456,0.00012956 0.310821,0 0.00125865,-5.48551e-05 0.00124911,-0.000164149 0.00123009,-0.000272199 0.00120174,-0.000378184 0.00116428,-0.000481302 0.001118,-0.000580769 0.00106323,-0.000675832 0.0010004,-0.000765771 0.000929987,-0.000849902 0.00085252,-0.000927588 0.000768587,-0.00099824 0.000678826,-0.00106132 0.000583918,-0.00111636 0.000484581,-0.00116292 0.00038157,-0.00120067 0.000275665,-0.00122932 0,-0.263867 0.0546358,0 0,0.263867 -6.9614e-05,0.000934997 1.22957e-05,0.000937505 9.41115e-05,0.00093285 0.000175208,0.000921069 0.000254967,0.000902252 0.000332777,0.000876542 0.000408046,0.000844136 0.000480197,0.000805281 0.000548679,0.000760274 0.000612971,0.00070946 0.000672579,0.000653225 0.00072705,0.000592001 0.000775966,0.000526253 0.000818954,0.000456486 0.000855687,0.000383232 0.000885882,0.000307049 0.00090931,0.000228521 0.000925791,0.000148248 0.133118,0 0.00100297,-4.2449e-05 0.000995795,-0.000127044 0.000981499,-0.000210729 0.000960183,-0.000292908 0.000932,-0.000372992 0.000897151,-0.000450408 0.000855885,-0.000524602 0.000808498,-0.000595044 0.000755328,-0.000661231 0.000696756,-0.000722688 0.000633201,-0.000778976 0.000565116,-0.000829693 0.00049299,-0.000874476 0.000417338,-0.000913004 0.0003387,-0.000945002 0.0401056,-0.267445 0.0729993,0 -0.0365496,0.237721 0.0393059,0.0650557 0.00161892,0.00296074 0.00135794,0.00308915 0.00108686,0.00319462 0.000807712,0.00327635 0.00052256,0.00333374 0.000233525,0.00336635 -5.72446e-05,0.00337396 -0.000347589,0.00335649 -0.000635351,0.00331409 -0.000918392,0.00324706 -0.00119461,0.00315591 -0.00146195,0.00304131 -0.00171843,0.00290411 -0.00196214,0.00274534 -0.00219127,0.00256616 -0.00240412,0.00236792 -0.00259911,0.00215209 -0.00277479,0.00192026 -0.00292985,0.00167417 -0.00306314,0.00141564 -0.00317367,0.00114659 -0.00326062,0.000869022 z "/>
<path fill="rgb(42,41,42)" stroke="rgb(42,41,42)" d="M 5.27505,1.86763 l -0.0156726,0.101936 -0.0729993,0 0.0174238,-0.116191 9.61514e-05,-0.00091177 1.60474e-05,-0.000916685 -6.41795e-05,-0.000914577 -0.000143915,-0.00090546 -0.000222547,-0.000889406 -0.000299474,-0.000866536 -0.000374107,-0.000837027 -0.000445873,-0.000801104 -0.000514222,-0.000759042 -0.000578631,-0.000711165 -0.000638607,-0.000657838 -0.000693689,-0.000599471 -0.000743456,-0.00053651 -0.000787526,-0.000469438 -0.000825562,-0.000398769 -0.000857272,-0.000325045 -0.000882413,-0.00024883 -0.000900793,-0.000170708 -0.190657,0 -0.00103382,4.50523e-05 -0.00102598,0.000134815 -0.00101037,0.000223556 -0.000987088,0.000310602 -0.000956326,0.000395293 -0.000918314,0.000476987 -0.000873339,0.000555064 -0.000821742,0.000628933 -0.000763915,0.000698034 -0.000700296,0.000761842 -0.000631367,0.000819874 -0.000557651,0.000871689 -0.000479708,0.000916896 -0.000398127,0.00095515 -0.000313527,0.000986163 -0.000226551,0.0010097 -0.000137857,0.00102558 -4.81171e-05,0.00103368 0,0.116261 -0.0546358,0 0,-0.116191 -4.59119e-05,-0.00105345 -0.000137388,-0.00104546 -0.000227822,-0.00102954 -0.000316528,-0.00100582 -0.000402834,-0.000974468 -0.000486085,-0.000935727 -0.00056565,-0.000889889 -0.000640925,-0.000837304 -0.00071134,-0.000778369 -0.000776361,-0.000713531 -0.000835494,-0.000643282 -0.000888292,-0.000568155 -0.000934353,-0.00048872 -0.000973329,-0.000405578 -0.00100492,-0.000319361 -0.0010289,-0.000230722 -0.313068,0 -0.00103583,4.5174e-05 -0.00102796,0.000135179 -0.00101229,0.000224157 -0.000988934,0.000311434 -0.000958066,0.000396345 -0.000919924,0.000478247 -0.000874796,0.000556518 -0.000823026,0.000630562 -0.000765006,0.000699819 -0.000701177,0.000763761 -0.000632024,0.000821904 -0.000558072,0.000873806 -0.000479882,0.000919072 -0.000398048,0.00095736 -0.000313191,0.000988378 -0.000225957,0.00101189 -0.000137006,0.00102772 -4.70154e-05,0.00103575 0,0.116233 -0.0570211,0 0,-0.116184 -4.59071e-05,-0.00105339 -0.000137373,-0.00104541 -0.000227798,-0.00102949 -0.000316495,-0.00100577 -0.000402792,-0.000974425 -0.000486035,-0.000935689 -0.000565593,-0.000889859 -0.000640862,-0.000837282 -0.000711272,-0.000778355 -0.000776288,-0.000713527 -0.000835419,-0.000643289 -0.000888214,-0.000568172 -0.000934275,-0.000488748 -0.000973252,-0.000405618 -0.00100485,-0.000319412 -0.00102883,-0.000230784 -0.362905,-1.34209e-05 -0.00103585,4.51378e-05 -0.00102799,0.000135147 -0.00101232,0.00022413 -0.000988966,0.000311412 -0.0009581,0.000396328 -0.000919958,0.000478235 -0.00087483,0.00055651 -0.000823059,0.000630559 -0.000765038,0.00069982 -0.000701207,0.000763767 -0.000632052,0.000821913 -0.000558097,0.000873819 -0.000479904,0.000919089 -0.000398066,0.000957379 -0.000313206,0.000988399 -0.000225967,0.00101191 -0.000137013,0.00102774 -4.70176e-05,0.00103577 0,0.11624 -0.054693,0 0,-0.116184 -4.59071e-05,-0.00105339 -0.000137373,-0.00104541 -0.000227798,-0.00102949 -0.000316495,-0.00100577 -0.000402792,-0.000974425 -0.000486035,-0.000935689 -0.000565593,-0.000889859 -0.000640862,-0.000837282 -0.000711272,-0.000778355 -0.000776288,-0.000713527 -0.000835419,-0.000643289 -0.000888214,-0.000568172 -0.000934275,-0.000488748 -0.000973252,-0.000405618 -0.00100485,-0.000319412 -0.00102883,-0.000230784 -0.362905,-1.34209e-05 -0.00103585,4.51378e-05 -0.00102799,0.000135147 -0.00101232,0.00022413 -0.000988966,0.000311412 -0.0009581,0.000396328 -0.000919958,0.000478235 -0.00087483,0.00055651 -0.000823059,0.000630559 -0.000765038,0.00069982 -0.000701207,0.000763767 -0.000632052,0.000821913 -0.000558097,0.000873819 -0.000479904,0.000919089 -0.000398066,0.000957379 -0.000313206,0.000988399 -0.000225967,0.00101191 -0.000137013,0.00102774 -4.70176e-05,0.00103577 0,0.11624 -0.0558602,0 0,-0.116184 -4.59071e-05,-0.00105339 -0.000137373,-0.00104541 -0.000227798,-0.00102949 -0.000316495,-0.00100577 -0.000402792,-0.000974425 -0.000486035,-0.000935689 -0.000565593,-0.000889859 -0.000640862,-0.000837282 -0.000711272,-0.000778355 -0.000776288,-0.000713527 -0.000835419,-0.000643289 -0.000888214,-0.000568172 -0.000934275,-0.000488748 -0.000973252,-0.000405618 -0.00100485,-0.000319412 -0.00102883,-0.000230784 -0.362905,-1.34209e-05 -0.00103585,4.51378e-05 -0.00102799,0.000135147 -0.00101232,0.00022413 -0.000988966,0.000311412 -0.0009581,0.000396328 -0.000919958,0.000478235 -0.00087483,0.00055651 -0.000823059,0.000630559 -0.000765038,0.00069982 -0.000701207,0.000763767 -0.000632052,0.000821913 -0.000558097,0.000873819 -0.000479904,0.000919089 -0.000398066,0.000957379 -0.000313206,0.000988399 -0.000225967,0.00101191 -0.000137013,0.00102774 -4.70176e-05,0.00103577 0,0.11624 -0.0748428,0 0,-0.15185 -4.51884e-05,-0.00103538 -0.000135222,-0.0010275 -0.000224226,-0.00101181 -0.000311526,-0.000988432 -0.000396456,-0.000957533 -0.000478372,-0.000919351 -0.000556649,-0.000874178 -0.000630694,-0.000822358 -0.000699942,-0.000764283 -0.000763867,-0.000700396 -0.000821983,-0.000631182 -0.000873848,-0.000557169 -0.000919067,-0.000478918 -0.000957297,-0.000397025 -0.000988247,-0.000312113 -0.00101168,-0.000224827 -0.00102742,-0.000135832 -0.00103535,-4.58034e-05 -0.299311,0 -0.0332599,0.0570211 0.0428371,0.106713 -0.0684022,0 -0.0457042,-0.111448 0.0356311,-0.0522858 0,-0.308782 -0.0356311,0 0,-0.0712763 0.358689,0 0.000764473,0.0198429 0.00249676,0.0197001 0.00420992,0.0194062 0.00589082,0.0189638 0.00752658,0.018376 0.00910468,0.0176474 0.010613,0.0167836 0.0120401,0.0157912 0.0133748,0.0146779 0.0146071,0.013452 0.0157275,0.0121231 0.0167274,0.0107014 0.0175991,0.0091976 0.018336,0.00762337 0.0189324,0.00599072 0.0193838,0.00431218 0.0196866,0.00260059 0.0198386,0.000869084 0.0198386,-0.000869084 0.0196866,-0.00260059 0.0193838,-0.00431218 0.0189324,-0.00599072 0.018336,-0.00762337 0.0175991,-0.0091976 0.0167274,-0.0107014 0.0157275,-0.0121231 0.0146071,-0.013452 0.0133748,-0.0146779 0.0120401,-0.0157912 0.010613,-0.0167836 0.00910468,-0.0176474 0.00752658,-0.018376 0.00589082,-0.0189638 0.00420992,-0.0194062 0.00249676,-0.0197001 0.000764473,-0.0198429 0.814801,0 0.000867214,0.0198762 0.00259627,0.019725 0.00430557,0.0194236 0.0059821,0.0189744 0.0076131,0.0183809 0.00918616,0.0176474 0.0106893,0.0167796 0.0121111,0.0157841 0.0134407,0.0146684 0.014668,0.0134412 0.0157837,0.0121116 0.0167792,0.0106898 0.0176471,0.0091867 0.0183806,0.00761367 0.0189743,0.00598269 0.0194235,0.00430617 0.0197249,0.00259688 0.0198762,0.000867829 0.0198762,-0.000867829 0.0197249,-0.00259688 0.0194235,-0.00430617 0.0189743,-0.00598269 0.0183806,-0.00761367 0.0176471,-0.0091867 0.0167792,-0.0106898 0.0157837,-0.0121116 0.014668,-0.0134412 0.0134407,-0.0146684 0.0121111,-0.0157841 0.0106893,-0.0167796 0.00918616,-0.0176474 0.0076131,-0.0183809 0.0059821,-0.0189744 0.00430557,-0.0194236 0.00259627,-0.019725 0.000867214,-0.0198762 0.439443,0.0712763 0,0.059364 -0.0380517,0.0237682 0,0.287448 z "/>
</g></g></svg>
