<?xml version="1.0" encoding="UTF-8" standalone="no"?>
<!DOCTYPE svg PUBLIC "-//W3C//DTD SVG 1.1//EN" "http://www.w3.org/Graphics/SVG/1.1/DTD/svg11-flat.dtd"
[

]>
<svg xmlns="http://www.w3.org/2000/svg"  viewBox="-0.09375 -0.09375 7.6875 7.6875"><g fill="none" stroke="black" stroke-width="0.0125" transform="translate(0,7.5) scale(1, -1)">
<g id="Output" >
<path fill="rgb(241,240,234)" stroke="rgb(241,240,234)" d="M 5.10444,1.6563 l -0.696678,-3.9968e-14 0.696678,0 0,3.9968e-14 z "/>
<path fill="rgb(241,240,234)" stroke="rgb(241,240,234)" d="M 3.75,4.30946 l -0.012287,0.000233104 -0.0122491,-0.000992032 -0.0120894,-0.0022073 -0.705262,-0.165492 0,0.589025 0.00257668,0.0599984 0.00771105,0.0595566 0.0127886,0.0586762 0.0177721,0.0573638 0.0226246,0.0556289 0.0273106,0.0534844 0.0317954,0.050946 0.0360461,0.0480325 0.0400314,0.0447653 0.0437219,0.0411685 0.0470904,0.0372685 0.0501122,0.0330941 0.0527649,0.0286759 0.0550292,0.0240466 0.0568881,0.0192403 0.0583282,0.0142922 0.0593388,0.00923891 0.0599124,0.00411758 0.0600448,-0.00103407 0.061828,-0.00648905 0.0610082,-0.0119504 0.0597069,-0.0173174 0.0579345,-0.0225478 0.0557049,-0.0276002 0.0530357,-0.0324349 0.049948,-0.0370136 0.0464662,-0.0413002 0.0426176,-0.0452609 0.0384328,-0.0488644 0.0339446,-0.0520823 0.0291886,-0.0548893 0.0242023,-0.057263 0.019025,-0.059185 0.0136975,-0.0606398 0.008262,-0.0616161 0.00276126,-0.0621062 0,-3.07373 0.696678,3.9968e-14 -0.00314476,3.07373 -0.00510041,0.119111 -0.0152639,0.118239 -0.0253156,0.116501 -0.035182,0.113911 -0.0447908,0.110486 -0.0540718,0.106253 -0.0629568,0.101241 -0.0713809,0.0954891 -0.0792825,0.0890375 -0.0866036,0.0819342 -0.0932907,0.074231 -0.0992949,0.0659843 -0.104572,0.0572546 -0.109084,0.0481057 -0.112797,0.0386046 -0.115684,0.0288209 -0.117724,0.0188262 -0.118903,0.00869371 -0.123877,-0.00176909 -0.12323,-0.0127657 -0.121609,-0.0236613 -0.119027,-0.0343699 -0.115503,-0.0448068 -0.111067,-0.0548895 -0.105752,-0.0645382 -0.0996013,-0.0736766 -0.0926632,-0.0822326 -0.0849924,-0.0901385 -0.0766498,-0.0973318 -0.0677011,-0.103756 -0.0582172,-0.109359 -0.0482731,-0.114098 -0.0379474,-0.117935 -0.0273216,-0.12084 -0.0164798,-0.122789 -0.0055078,-0.123767 0,-0.589025 -0.705265,0.165493 -0.0102994,0.00251512 -0.0104803,0.00160186 -0.0105804,0.000676244 -0.010599,-0.000254583 -0.0105357,-0.00118345 -0.0103913,-0.00210318 -0.0101667,-0.0030067 -0.00986375,-0.00388704 -0.00948471,-0.0047374 -0.00903252,-0.00555122 -0.00851069,-0.00632224 -0.00792322,-0.00704451 -0.00727466,-0.00771245 -0.00657,-0.00832092 -0.00581467,-0.00886522 -0.00501451,-0.00934116 -0.00417568,-0.00974507 -0.00330464,-0.0100738 -0.00240812,-0.0103249 -0.00149304,-0.0104964 -0.000566435,-0.0105869 0.000364534,-0.0105957 0.00129269,-0.0105229 0.00221088,-0.0103689 0.00311202,-0.010135 0.00398916,-0.00982289 0.00483555,-0.00943504 0.00564464,-0.00897444 4.9738e-14,-7.10543e-14 1.08597,-1.56922 0.00639273,-0.0084223 0.00710637,-0.00782953 0.00776531,-0.0071765 0.00836447,-0.00646822 0.00889924,-0.00571014 0.0093655,-0.00490812 0.00975967,-0.0040683 0.0100787,-0.00319717 0.0103202,-0.00230143 0.0104822,-0.00138797 0.0105635,-0.000463831 0.0105635,0.000463882 0.0104822,0.00138802 0.0103201,0.00230148 0.0100787,0.00319722 0.00975965,0.00406835 0.00936548,0.00490816 0.00889921,0.00571019 0.00836444,0.00646826 0.00776528,0.00717654 0.00710634,0.00782957 0.00639269,0.00842233 0.989558,1.42991 0,0.326888 z "/>
<path fill="rgb(241,240,234)" stroke="rgb(241,240,234)" d="M 3.75,4.30946 l 0,-0.326888 0.0964034,0.139303 0.00514453,0.00920378 0.0043388,0.00960992 0.00350129,0.00994569 0.00263815,0.0102086 0.00175568,0.0103968 0.000860363,0.0105088 -4.12585e-05,0.0105439 -0.000942578,0.0105018 -0.001837,0.0103827 -0.00271796,0.0101877 -0.00357902,0.00991798 -0.00441387,0.00957567 -0.0052164,0.00916324 -0.00598073,0.0086837 -0.00670126,0.00814057 -0.00737271,0.00753783 -0.00799018,0.00687988 -0.00854913,0.00617156 -0.00904548,0.00541803 -0.00947558,0.00462484 -0.00983629,0.00379777 -0.010125,0.00294289 -0.0103395,0.00206646 -0.0104783,0.0011749 z "/>
<path fill="rgb(0,91,140)" stroke="rgb(0,91,140)" d="M 7.1,3.75 l -0.0133442,0.29871 -0.0399262,0.296331 -0.0661902,0.29159 -0.0919268,0.284527 -0.116931,0.275196 -0.141004,0.263674 -0.163953,0.250051 -0.185597,0.234435 -0.197011,0.208484 -0.214124,0.190866 -0.229667,0.171849 -0.243526,0.151572 -0.2556,0.130183 -0.265799,0.107841 -0.27405,0.0847071 -0.280292,0.0609526 -0.284479,0.0367513 -0.28658,0.0122804 0,-0.977252 0.118903,-0.00869371 0.117724,-0.0188262 0.115684,-0.0288209 0.112797,-0.0386046 0.109084,-0.0481057 0.104572,-0.0572546 0.0992949,-0.0659843 0.0932907,-0.074231 0.0866036,-0.0819342 0.0792825,-0.0890375 0.0713809,-0.0954891 0.0629568,-0.101241 0.0540718,-0.106253 0.0447908,-0.110486 0.035182,-0.113911 0.0253156,-0.116501 0.0152639,-0.118239 0.00510041,-0.119111 0.00314476,-3.07373 0,-3.9968e-14 -0.696678,0 0,3.07373 -0.00276126,0.0621062 -0.008262,0.0616161 -0.0136975,0.0606398 -0.019025,0.059185 -0.0242023,0.057263 -0.0291886,0.0548893 -0.0339446,0.0520823 -0.0384328,0.0488644 -0.0426176,0.0452609 -0.0464662,0.0413002 -0.049948,0.0370136 -0.0530357,0.0324349 -0.0557049,0.0276002 -0.0579345,0.0225478 -0.0597069,0.0173174 -0.0610082,0.0119504 -0.061828,0.00648905 4.44089e-16,-1.11913 0.0104783,-0.0011749 0.0103395,-0.00206646 0.010125,-0.00294289 0.00983629,-0.00379777 0.00947558,-0.00462484 0.00904548,-0.00541803 0.00854913,-0.00617156 0.00799018,-0.00687988 0.00737271,-0.00753783 0.00670126,-0.00814057 0.00598073,-0.0086837 0.0052164,-0.00916324 0.00441387,-0.00957567 0.00357902,-0.00991798 0.00271796,-0.0101877 0.001837,-0.0103827 0.000942578,-0.0105018 4.12585e-05,-0.0105439 -0.000860363,-0.0105088 -0.00175568,-0.0103968 -0.00263815,-0.0102086 -0.00350129,-0.00994569 -0.0043388,-0.00960992 -0.00514453,-0.00920378 -0.0964034,-0.139303 4.44089e-16,-3.58257 0.291972,0.0127478 0.28975,0.0381463 0.285322,0.0632545 0.278724,0.0878812 0.270004,0.111839 0.259229,0.134946 0.246481,0.157026 0.231857,0.17791 0.215469,0.197441 0.197441,0.215469 0.17791,0.231857 0.157026,0.246481 0.134946,0.259229 0.111839,0.270004 0.0878812,0.278724 0.0632545,0.285322 0.0381463,0.28975 0.0127478,0.291972 z "/>
<path fill="rgb(0,91,140)" stroke="rgb(0,91,140)" d="M 3.75,4.30946 l -4.44089e-16,1.11913 -0.0600448,0.00103407 -0.0599124,-0.00411758 -0.0593388,-0.00923891 -0.0583282,-0.0142922 -0.0568881,-0.0192403 -0.0550292,-0.0240466 -0.0527649,-0.0286759 -0.0501122,-0.0330941 -0.0470904,-0.0372685 -0.0437219,-0.0411685 -0.0400314,-0.0447653 -0.0360461,-0.0480325 -0.0317954,-0.050946 -0.0273106,-0.0534844 -0.0226246,-0.0556289 -0.0177721,-0.0573638 -0.0127886,-0.0586762 -0.00771105,-0.0595566 -0.00257668,-0.0599984 0,-0.589025 0.705262,0.165492 0.0120894,0.0022073 0.0122491,0.000992032 0.012287,-0.000233104 z "/>
<path fill="rgb(0,91,140)" stroke="rgb(0,91,140)" d="M 2.31458,4.73002 l 0.0055078,0.123767 0.0164798,0.122789 0.0273216,0.12084 0.0379474,0.117935 0.0482731,0.114098 0.0582172,0.109359 0.0677011,0.103756 0.0766498,0.0973318 0.0849924,0.0901385 0.0926632,0.0822326 0.0996013,0.0736766 0.105752,0.0645382 0.111067,0.0548895 0.115503,0.0448068 0.119027,0.0343699 0.121609,0.0236613 0.12323,0.0127657 0.123877,0.00176909 0,0.977252 -0.2962,-0.0131203 -0.293879,-0.0392583 -0.289257,-0.0650887 -0.282369,-0.0904092 -0.27327,-0.115022 -0.262029,-0.138733 -0.248737,-0.161358 -0.233496,-0.182718 -0.216426,-0.202648 -0.19766,-0.22099 -0.177347,-0.237601 -0.155644,-0.252351 -0.132722,-0.265125 -0.10876,-0.275821 -0.0793025,-0.265832 -0.0570363,-0.271482 -0.034379,-0.27527 -0.0114859,-0.277171 0.0127478,-0.291972 0.0381463,-0.28975 0.0632545,-0.285322 0.0878812,-0.278724 0.111839,-0.270004 0.134946,-0.259229 0.157026,-0.246481 0.17791,-0.231857 0.197441,-0.215469 0.215469,-0.197441 0.231857,-0.17791 0.246481,-0.157026 0.259229,-0.134946 0.270004,-0.111839 0.278724,-0.0878812 0.285322,-0.0632545 0.28975,-0.0381463 0.291972,-0.0127478 -4.44089e-16,3.58257 -0.989558,-1.42991 -0.00639269,-0.00842233 -0.00710634,-0.00782957 -0.00776528,-0.00717654 -0.00836444,-0.00646826 -0.00889921,-0.00571019 -0.00936548,-0.00490816 -0.00975965,-0.00406835 -0.0100787,-0.00319722 -0.0103201,-0.00230148 -0.0104822,-0.00138802 -0.0105635,-0.000463882 -0.0105635,0.000463831 -0.0104822,0.00138797 -0.0103202,0.00230143 -0.0100787,0.00319717 -0.00975967,0.0040683 -0.0093655,0.00490812 -0.00889924,0.00571014 -0.00836447,0.00646822 -0.00776531,0.0071765 -0.00710637,0.00782953 -0.00639273,0.0084223 -1.08597,1.56922 -4.9738e-14,7.10543e-14 -0.00564464,0.00897444 -0.00483555,0.00943504 -0.00398916,0.00982289 -0.00311202,0.010135 -0.00221088,0.0103689 -0.00129269,0.0105229 -0.000364534,0.0105957 0.000566435,0.0105869 0.00149304,0.0104964 0.00240812,0.0103249 0.00330464,0.0100738 0.00417568,0.00974507 0.00501451,0.00934116 0.00581467,0.00886522 0.00657,0.00832092 0.00727466,0.00771245 0.00792322,0.00704451 0.00851069,0.00632224 0.00903252,0.00555122 0.00948471,0.0047374 0.00986375,0.00388704 0.0101667,0.0030067 0.0103913,0.00210318 0.0105357,0.00118345 0.010599,0.000254583 0.0105804,-0.000676244 0.0104803,-0.00160186 0.0102994,-0.00251512 0.705265,-0.165493 0,0.589025 z "/>
<path fill="rgb(0,91,140)" stroke="rgb(0,91,140)" d="M 6.43224,6.07553 l 0.151112,0.131016 0.207757,-0.262428 0.18353,-0.279907 0.15784,-0.295157 0.130893,-0.308056 0.102903,-0.3185 0.0740935,-0.326407 0.0446935,-0.331713 0.0149375,-0.334377 -0.0142699,-0.326834 -0.042701,-0.324347 -0.0708072,-0.319391 -0.0983745,-0.312004 -0.125193,-0.302243 -0.151059,-0.290182 -0.175775,-0.275912 -0.199154,-0.259542 -0.221016,-0.241197 -0.241197,-0.221016 -0.259542,-0.199154 -0.275912,-0.175775 -0.290182,-0.151059 -0.302243,-0.125193 -0.312004,-0.0983745 -0.319391,-0.0708072 -0.324347,-0.042701 -0.326834,-0.0142699 0,0.2 0.309403,0.0135088 0.307048,0.0404237 0.302357,0.0670308 0.295364,0.0931279 0.286123,0.118516 0.274705,0.143002 0.261196,0.1664 0.2457,0.188532 0.228333,0.209229 0.209229,0.228333 0.188532,0.2457 0.1664,0.261196 0.143002,0.274705 0.118516,0.286123 0.0931279,0.295364 0.0670308,0.302357 0.0404237,0.307048 0.0135088,0.309403 -0.0141408,0.316544 -0.0423099,0.314022 -0.0701418,0.308999 -0.097415,0.301513 -0.123912,0.291626 -0.149422,0.279416 -0.173742,0.264979 -0.196677,0.248431 z "/>
<path fill="rgb(0,91,140)" stroke="rgb(0,91,140)" d="M 0.393082,4.90482 l -0.084037,-0.281703 -0.0604415,-0.28769 -0.0364315,-0.291704 -0.0121716,-0.293718 0.0135088,-0.309403 0.0404237,-0.307048 0.0670308,-0.302357 0.0931279,-0.295364 0.118516,-0.286123 0.143002,-0.274705 0.1664,-0.261196 0.188532,-0.2457 0.209229,-0.228333 0.228333,-0.209229 0.2457,-0.188532 0.261196,-0.1664 0.274705,-0.143002 0.286123,-0.118516 0.295364,-0.0931279 0.302357,-0.0670308 0.307048,-0.0404237 0.309403,-0.0135088 0,-0.2 -0.326834,0.0142699 -0.324347,0.042701 -0.319391,0.0708072 -0.312004,0.0983745 -0.302243,0.125193 -0.290182,0.151059 -0.275912,0.175775 -0.259542,0.199154 -0.241197,0.221016 -0.221016,0.241197 -0.199154,0.259542 -0.175775,0.275912 -0.151059,0.290182 -0.125193,0.302243 -0.0983745,0.312004 -0.0708072,0.319391 -0.042701,0.324347 -0.0142699,0.326834 0.0128574,0.310266 0.0384839,0.308138 0.0638466,0.303898 0.0887715,0.297573 0.189122,-0.06506 z "/>
<path fill="rgb(0,91,140)" stroke="rgb(0,91,140)" d="M 0.393082,4.90482 l -0.189122,0.06506 0.119913,0.304642 0.146028,0.293022 0.171029,0.279168 0.194726,0.263187 0.21694,0.245199 0.2375,0.225343 0.256249,0.203769 0.273046,0.180642 0.287761,0.156138 0.300283,0.130445 0.310516,0.103756 0.318383,0.0762772 0.323822,0.0482167 0.326794,0.0197887 0.327274,-0.00879008 0.32526,-0.0373019 0.320767,-0.0655294 0.313829,-0.0932574 0.304499,-0.120275 0.292848,-0.146375 0.278965,-0.17136 0.262956,-0.195039 0.244942,-0.217231 0.225061,-0.237767 -0.151112,-0.131016 -0.213058,0.225086 -0.231878,0.205645 -0.248931,0.184636 -0.264087,0.162221 -0.27723,0.138568 -0.288259,0.11386 -0.297092,0.0882837 -0.30366,0.0620345 -0.307913,0.0353125 -0.30982,0.00832127 -0.309365,-0.0187333 -0.306552,-0.0456452 -0.301402,-0.0722091 -0.293955,-0.0982226 -0.284268,-0.123487 -0.272414,-0.147811 -0.258483,-0.171008 -0.242583,-0.192902 -0.224833,-0.213325 -0.20537,-0.232122 -0.184341,-0.24915 -0.161907,-0.264279 -0.138239,-0.277394 -0.113518,-0.288394 z "/>
<path fill="rgb(241,240,234)" stroke="rgb(241,240,234)" d="M 0.393082,4.90482 l 0.189122,-0.06506 -0.0793025,-0.265832 -0.0570363,-0.271482 -0.034379,-0.27527 -0.0114859,-0.277171 0.0127478,-0.291972 0.0381463,-0.28975 0.0632545,-0.285322 0.0878812,-0.278724 0.111839,-0.270004 0.134946,-0.259229 0.157026,-0.246481 0.17791,-0.231857 0.197441,-0.215469 0.215469,-0.197441 0.231857,-0.17791 0.246481,-0.157026 0.259229,-0.134946 0.270004,-0.111839 0.278724,-0.0878812 0.285322,-0.0632545 0.28975,-0.0381463 0.291972,-0.0127478 0,-0.2 -0.309403,0.0135088 -0.307048,0.0404237 -0.302357,0.0670308 -0.295364,0.0931279 -0.286123,0.118516 -0.274705,0.143002 -0.261196,0.1664 -0.2457,0.188532 -0.228333,0.209229 -0.209229,0.228333 -0.188532,0.2457 -0.1664,0.261196 -0.143002,0.274705 -0.118516,0.286123 -0.0931279,0.295364 -0.0670308,0.302357 -0.0404237,0.307048 -0.0135088,0.309403 0.0121716,0.293718 0.0364315,0.291704 0.0604415,0.28769 0.084037,0.281703 z "/>
<path fill="rgb(241,240,234)" stroke="rgb(241,240,234)" d="M 7.1,3.75 l -0.0133442,0.29871 -0.0399262,0.296331 -0.0661902,0.29159 -0.0919268,0.284527 -0.116931,0.275196 -0.141004,0.263674 -0.163953,0.250051 -0.185597,0.234435 0.151112,0.131016 0.196677,-0.248431 0.173742,-0.264979 0.149422,-0.279416 0.123912,-0.291626 0.097415,-0.301513 0.0701418,-0.308999 0.0423099,-0.314022 0.0141408,-0.316544 -0.0135088,-0.309403 -0.0404237,-0.307048 -0.0670308,-0.302357 -0.0931279,-0.295364 -0.118516,-0.286123 -0.143002,-0.274705 -0.1664,-0.261196 -0.188532,-0.2457 -0.209229,-0.228333 -0.228333,-0.209229 -0.2457,-0.188532 -0.261196,-0.1664 -0.274705,-0.143002 -0.286123,-0.118516 -0.295364,-0.0931279 -0.302357,-0.0670308 -0.307048,-0.0404237 -0.309403,-0.0135088 0,0.2 0.291972,0.0127478 0.28975,0.0381463 0.285322,0.0632545 0.278724,0.0878812 0.270004,0.111839 0.259229,0.134946 0.246481,0.157026 0.231857,0.17791 0.215469,0.197441 0.197441,0.215469 0.17791,0.231857 0.157026,0.246481 0.134946,0.259229 0.111839,0.270004 0.0878812,0.278724 0.0632545,0.285322 0.0381463,0.28975 0.0127478,0.291972 z "/>
<path fill="rgb(241,240,234)" stroke="rgb(241,240,234)" d="M 0.393082,4.90482 l 0.113518,0.288394 0.138239,0.277394 0.161907,0.264279 0.184341,0.24915 0.20537,0.232122 0.224833,0.213325 0.242583,0.192902 0.258483,0.171008 0.272414,0.147811 0.284268,0.123487 0.293955,0.0982226 0.301402,0.0722091 0.306552,0.0456452 0.309365,0.0187333 0.30982,-0.00832127 0.307913,-0.0353125 0.30366,-0.0620345 0.297092,-0.0882837 0.288259,-0.11386 0.27723,-0.138568 0.264087,-0.162221 0.248931,-0.184636 0.231878,-0.205645 0.213058,-0.225086 -0.151112,-0.131016 -0.197011,0.208484 -0.214124,0.190866 -0.229667,0.171849 -0.243526,0.151572 -0.2556,0.130183 -0.265799,0.107841 -0.27405,0.0847071 -0.280292,0.0609526 -0.284479,0.0367513 -0.28658,0.0122804 -0.2962,-0.0131203 -0.293879,-0.0392583 -0.289257,-0.0650887 -0.282369,-0.0904092 -0.27327,-0.115022 -0.262029,-0.138733 -0.248737,-0.161358 -0.233496,-0.182718 -0.216426,-0.202648 -0.19766,-0.22099 -0.177347,-0.237601 -0.155644,-0.252351 -0.132722,-0.265125 -0.10876,-0.275821 -0.189122,0.06506 z "/>
</g></g></svg>
