<?xml version="1.0" encoding="UTF-8" standalone="no"?>
<!DOCTYPE svg PUBLIC "-//W3C//DTD SVG 1.1//EN" "http://www.w3.org/Graphics/SVG/1.1/DTD/svg11-flat.dtd"
[

]>
<svg xmlns="http://www.w3.org/2000/svg"  viewBox="-0.09375 -0.09375 7.6875 7.6875"><g fill="none" stroke="black" stroke-width="0.0125" transform="translate(0,7.5) scale(1, -1)">
<g id="Output" >
<path fill="rgb(0,91,140)" stroke="rgb(0,91,140)" d="M 5.79475,6.4 l -0.394752,0 0,-1 1,0 0,0.395298 -0.0465191,0.0628739 -0.1938,0.219045 -0.212166,0.201307 -0.152763,0.121477 z "/>
<path fill="rgb(0,91,140)" stroke="rgb(0,91,140)" d="M 4.4,5.4092 l 0.801926,0 0,-0.00919767 0.198074,0 0,1 -1,0 0,-0.990802 z "/>
<path fill="rgb(0,91,140)" stroke="rgb(0,91,140)" d="M 4.4,7.03579 l 0,-0.63579 1,0 0,0.262451 -0.182389,0.0989638 -0.268253,0.11653 -0.277395,0.0926889 -0.271964,0.0651563 z "/>
<path fill="rgb(0,91,140)" stroke="rgb(0,91,140)" d="M 5.4,1.4 l 0,-0.564199 0.025,0.0130142 0.246481,0.157026 0.231857,0.17791 0.215469,0.197441 0.0172341,0.0188077 -0.736042,0 z "/>
<path fill="rgb(0,91,140)" stroke="rgb(0,91,140)" d="M 6.13604,1.4 l 0.180207,0.196662 0.0837511,0.109147 0,0.694192 -0.328623,0 -0.0548565,-0.0394208 -0.0805505,-0.0476547 -3.37508e-14,-1.77636e-14 -0.0852645,-0.0407184 -0.0885303,-0.0330214 -0.0911029,-0.0250658 -0.0929621,-0.016914 -0.0940933,-0.00862964 -0.0840168,-0.000246981 0,-0.788328 0.736042,0 z "/>
<path fill="rgb(0,91,140)" stroke="rgb(0,91,140)" d="M 6.4,5.4 l 0.26409,0 -0.136654,0.223058 -0.127437,0.17224 0,-0.395298 z "/>
<path fill="rgb(0,91,140)" stroke="rgb(0,91,140)" d="M 7.03364,4.4 l -0.0365399,0.173923 -0.0793025,0.265832 -0.107123,0.272146 -0.130451,0.261766 -0.0161321,0.0263322 -0.26409,0 0,-1 0.633639,0 z "/>
<path fill="rgb(0,91,140)" stroke="rgb(0,91,140)" d="M 7.07961,3.4 l 0.00763957,0.0580283 0.0127478,0.291972 -0.0114859,0.277171 -0.034379,0.27527 -0.0204964,0.0975588 -0.633639,0 0,-0.723668 0.0330944,-0.081545 0.0273586,-0.0895034 0.0193059,-0.0915786 0.00163705,-0.0137047 0.598217,0 z "/>
<path fill="rgb(0,91,140)" stroke="rgb(0,91,140)" d="M 3.4,4.96687 l 1,0 0,0.221163 -0.0115127,0 -0.00963782,0.000420797 -0.00956448,0.00125919 -0.00941833,0.00208799 -0.00920051,0.00290091 -0.00891267,0.00369175 -0.008557,0.00445449 -0.0081362,0.00518333 -0.00765348,0.00587273 -0.00711252,0.00651742 -0.00651742,0.00711252 -0.00587273,0.00765348 -0.00518333,0.0081362 -0.00445449,0.008557 -0.00369175,0.00891267 -0.00290091,0.00920051 -0.00208799,0.00941833 -0.00125919,0.00956448 -0.000420797,0.00963782 0.000420797,0.00963782 0.00125919,0.00956448 0.00208799,0.00941833 0.00290091,0.00920051 0.00369175,0.00891267 0.00445449,0.008557 0.00518333,0.0081362 0.00587273,0.00765348 0.00651742,0.00711252 0.00711252,0.00651742 0.00765348,0.00587273 0.0081362,0.00518333 0.008557,0.00445449 0.00280765,0.00116297 -0.944561,0 0,-0.433129 z "/>
<path fill="rgb(0,91,140)" stroke="rgb(0,91,140)" d="M 6.07138,2.4 l 0.328623,0 0,0.410387 -0.0151725,-0.034493 -0.0451392,-0.0819866 -0.0522385,-0.0776562 -0.0589254,-0.0727128 -0.0651471,-0.0671953 -0.0708545,-0.0611473 -0.021146,-0.0151959 z "/>
<path fill="rgb(0,91,140)" stroke="rgb(0,91,140)" d="M 5.4,4.29836 l 0.0261954,0.00129795 0.0935225,-0.00359882 0.0928446,-0.0118015 0.0914488,-0.0199129 0.0893457,-0.0278703 0.0865516,-0.0356122 0.0830881,-0.0430786 0.0789821,-0.0502119 0.0742652,-0.0569569 0.068974,-0.0632613 0.0631493,-0.0690765 1.57208e-13,-1.8785e-13 0.0568022,-0.0743832 0.0499755,-0.0791316 0.0427541,-0.0832553 0.00210091,-0.00517666 0,0.723668 -1,0 0,-0.101639 z "/>
<path fill="rgb(0,91,140)" stroke="rgb(0,91,140)" d="M 5.4,4.4 l 1,0 0,1 -1,0 0,-1 z "/>
<path fill="rgb(0,91,140)" stroke="rgb(0,91,140)" d="M 5.79475,6.4 l -0.0761533,0.060557 -0.243921,0.161374 -0.0746777,0.0405199 0,-0.262451 0.394752,0 z "/>
<path fill="rgb(0,91,140)" stroke="rgb(0,91,140)" d="M 6.4,2.4 l 0,-0.694192 0.0941593,0.122711 0.157026,0.246481 0.134946,0.259229 0.0272433,0.0657712 -0.413374,0 z "/>
<path fill="rgb(0,91,140)" stroke="rgb(0,91,140)" d="M 6.81337,2.4 l 0.0845959,0.204233 0.0878812,0.278724 0.0632545,0.285322 0.0305067,0.231721 -0.598217,0 0.00946373,-0.0792261 0.00280804,-0.0935493 -0.00550687,-0.0934293 -0.0137783,-0.0925717 -0.021941,-0.0909832 -0.0299304,-0.0886765 -0.0225111,-0.0511767 0,-0.410387 0.413374,0 z "/>
<path fill="rgb(0,91,140)" stroke="rgb(0,91,140)" d="M 1.36396,1.4 l 0.0360418,0 0,1 -0.713374,0 0.0272433,-0.0657712 0.134946,-0.259229 0.157026,-0.246481 0.17791,-0.231857 0.180207,-0.196662 z "/>
<path fill="rgb(0,91,140)" stroke="rgb(0,91,140)" d="M 1.4,1.36396 l 0,0.0360418 -0.0360418,0 0.0172341,-0.0188077 0.0188077,-0.0172341 z "/>
<path fill="rgb(0,91,140)" stroke="rgb(0,91,140)" d="M 2.33765,4.4 l 0.0623495,0.177957 0,0.822043 -1,0 0,-1 0.937651,0 z "/>
<path fill="rgb(0,91,140)" stroke="rgb(0,91,140)" d="M 4.4,4.96687 l 0.201681,0 0.102708,0.221163 -0.304389,0 0,-0.221163 z M 4.97365,4.4 l 0.426354,0 0,1 -0.198074,0 0,-0.211966 -0.260627,0 -0.17373,-0.386988 0.206077,-0.401047 z "/>
<path fill="rgb(0,91,140)" stroke="rgb(0,91,140)" d="M 5.4,4.29836 l 0,0.101639 -0.426354,0 0.0861084,-0.167576 0.0890324,0.0288556 0.0912232,0.0209219 0.0927086,0.0128264 0.0672816,0.00333373 z "/>
<path fill="rgb(0,91,140)" stroke="rgb(0,91,140)" d="M 4.79544,2.4 l -0.0172812,0.012251 -0.0719507,0.0612464 -0.0662547,0.0673672 -0.0600399,0.0729605 -0.0533549,0.0779826 -0.0462522,0.082394 -0.0387872,0.0861602 -0.0310186,0.0892517 -0.0104986,0.0418192 0,-0.591433 0.395438,0 z "/>
<path fill="rgb(0,91,140)" stroke="rgb(0,91,140)" d="M 4.79544,2.4 l -0.395438,0 0,-1 1,0 0,0.788328 -0.010471,-3.07813e-05 -0.0941424,0.00807629 -0.0930599,0.0163671 -0.0912487,0.0245298 -0.0887229,0.0325003 -0.0855024,0.0402164 -0.0816124,0.0476176 -0.0598022,0.042395 z "/>
<path fill="rgb(0,91,140)" stroke="rgb(0,91,140)" d="M 4.4,1.4 l 0,-0.933969 0.217044,0.0481175 0.278724,0.0878812 0.270004,0.111839 0.234229,0.121932 0,0.564199 -1,0 z "/>
<path fill="rgb(0,91,140)" stroke="rgb(0,91,140)" d="M 3.4,7.0786 l 0,-0.678605 1,0 0,0.63579 -0.0124582,0.0029847 -0.289281,0.0430736 -0.291936,0.0176779 -0.292365,-0.00785247 -0.11396,-0.0130693 z "/>
<path fill="rgb(0,91,140)" stroke="rgb(0,91,140)" d="M 4.34456,5.4 l 0.00610502,0.00252878 0.00920051,0.00290091 0.00941833,0.00208799 0.00956448,0.00125919 0.00963782,0.000420797 0.0115127,0 0,0.990802 -1,0 0,-1 0.944561,0 z "/>
<path fill="rgb(0,91,140)" stroke="rgb(0,91,140)" d="M 3.62739,3.4 l -0.227391,0.25171 0,-0.25171 0.227391,0 z "/>
<path fill="rgb(0,91,140)" stroke="rgb(0,91,140)" d="M 3.62739,3.4 l -0.227391,0 0,-1 1,0 0,0.591433 -0.0125085,0.0498252 -0.0148154,0.0933195 -0.505507,0 -0.239779,0.265423 z "/>
<path fill="rgb(0,91,140)" stroke="rgb(0,91,140)" d="M 3.4,1.4 l 1,0 0,1 -1,0 0,-1 z "/>
<path fill="rgb(0,91,140)" stroke="rgb(0,91,140)" d="M 3.4,1.4 l 0,-0.979613 0.0580283,-0.00763957 0.291972,-0.0127478 0.291972,0.0127478 0.28975,0.0381463 0.0682786,0.015137 0,0.933969 -1,0 z "/>
<path fill="rgb(0,91,140)" stroke="rgb(0,91,140)" d="M 2.4,6.81519 l 0,-0.415191 1,0 0,0.678605 -0.176606,-0.0202537 -0.286552,-0.0585396 -0.280354,-0.08331 -0.256488,-0.101311 z "/>
<path fill="rgb(0,91,140)" stroke="rgb(0,91,140)" d="M 2.68817,5.4 l 0.00916605,0.0211954 0.0151041,0.0280323 0.0174572,0.0266306 0.0196812,0.0250318 0.0217595,0.0232479 0.0236769,0.0212919 0.0254191,0.0191784 0.0269732,0.016923 0.0283277,0.0145424 0.0294727,0.0120542 0.0303995,0.00947679 0.0311015,0.00682928 0.0315733,0.00413123 0.0318115,0.00140263 0.315854,0.000328944 0,-0.221099 -0.276438,0 -0.0145561,0.00110563 -0.0145968,-0.000189542 -0.0145224,-0.00148322 -0.0143337,-0.0027652 -0.014032,-0.0040254 -0.00476969,-0.00183993 0.407301,0 0,1 -1,0 0,-1 0.28817,0 z "/>
<path fill="rgb(0,91,140)" stroke="rgb(0,91,140)" d="M 2.72401,4.4 l -0.11257,0.124609 -0.0425545,-0.124609 0.155124,0 z M 2.9927,5.4 l -0.00885007,-0.00341395 -0.0131002,-0.00644097 -0.0124774,-0.0075773 -0.0117563,-0.00865393 -0.0109426,-0.00966237 -0.0100426,-0.0105947 -0.00906353,-0.0114435 -0.00801302,-0.0122022 -0.00689938,-0.0128647 -0.00573138,-0.0134258 -0.126436,-0.33685 0.630613,0 0,0.433129 -0.407301,0 z M 2.4,4.57796 l 0.274617,0.783807 0.0100808,0.0302046 0.00347311,0.00803116 -0.28817,0 0,-0.822043 z "/>
<path fill="rgb(0,91,140)" stroke="rgb(0,91,140)" d="M 2.72401,4.4 l -0.155124,0 -0.0680272,-0.199198 0.0796449,-0.0426738 0.0757323,-0.0492848 0.0712722,-0.0555395 0.066297,-0.0613928 0.0608426,-0.0668023 0.0549483,-0.071729 0.0486569,-0.0761372 0.0420138,-0.079995 0.0350671,-0.0832746 0.0278668,-0.0859523 0.0204651,-0.0880088 0.00577855,-0.0400116 0.31056,0 0,0.25171 -0.675994,0.74829 z "/>
<path fill="rgb(0,91,140)" stroke="rgb(0,91,140)" d="M 2.68392,2.4 l 0.716082,0 0,1 -0.31056,0 0.00713694,-0.0494174 0.00527253,-0.0902029 -0.00240855,-0.0903248 -0.0100722,-0.0897937 -0.0176631,-0.0886137 -0.0251263,-0.0867931 -0.0324079,-0.0843451 -0.0394552,-0.0812875 -5.86198e-14,-1.09246e-13 -0.0479406,-0.0802296 -0.0548374,-0.0756833 -0.0613058,-0.0705457 -0.0672953,-0.064857 -0.059419,-0.0479063 z "/>
<path fill="rgb(0,91,140)" stroke="rgb(0,91,140)" d="M 2.4,2.2462 l 0,-0.846199 1,0 0,1 -0.716082,0 -0.0133401,-0.0107554 -0.0776546,-0.0520082 -0.0819435,-0.0449484 -0.0855923,-0.0375375 -0.0253877,-0.0085512 z "/>
<path fill="rgb(0,91,140)" stroke="rgb(0,91,140)" d="M 2.4,0.686626 l 0.204233,-0.0845959 0.278724,-0.0878812 0.285322,-0.0632545 0.231721,-0.0305067 0,0.979613 -1,0 0,-0.713374 z "/>
<path fill="rgb(0,91,140)" stroke="rgb(0,91,140)" d="M 1.70483,6.4 l 0.695166,0 0,0.415191 -0.0155314,-0.00613476 -0.261611,-0.130762 -0.249209,-0.153081 -0.168815,-0.125213 z "/>
<path fill="rgb(0,91,140)" stroke="rgb(0,91,140)" d="M 1.4,6.13587 l 0,-0.735867 1,0 0,1 -0.695166,0 -0.0660921,-0.0490216 -0.218815,-0.194059 -0.0199269,-0.0210519 z "/>
<path fill="rgb(0,91,140)" stroke="rgb(0,91,140)" d="M 1.4,4.08804 l 0.0203984,0.0163012 0.0766339,0.0510456 0.0807622,0.0442252 0.0842851,0.0370733 0.0871761,0.0296435 0.0894136,0.0219914 0.0909807,0.0141744 0.0918658,0.00625123 0.0920622,-0.00171884 0.0915684,-0.00967602 0.0903882,-0.0175607 0.042116,0.120207 -0.937651,0 0,-0.311957 z "/>
<path fill="rgb(0,91,140)" stroke="rgb(0,91,140)" d="M 1.40453,2.4 l -0.00453459,0.00343039 0,-0.00343039 0.00453459,0 z "/>
<path fill="rgb(0,91,140)" stroke="rgb(0,91,140)" d="M 1.40453,2.4 l -0.00453459,0 0,-1 1,0 0,0.846199 -0.0631847,-0.0212821 -0.0908606,-0.0218961 -0.0924391,-0.0137879 -0.0932955,-0.00557194 -0.0934231,0.00268754 -0.0928209,0.010926 -0.0914936,0.0190791 -0.0894516,0.0270832 -0.0867109,0.0348758 -0.0832928,0.0423959 -0.079224,0.0495848 -0.0392686,0.0297065 z "/>
<path fill="rgb(0,91,140)" stroke="rgb(0,91,140)" d="M 1.4,1.36396 l 0.196662,-0.180207 0.231857,-0.17791 0.246481,-0.157026 0.259229,-0.134946 0.0657712,-0.0272433 0,0.713374 -1,0 0,-0.0360418 z "/>
<path fill="rgb(0,91,140)" stroke="rgb(0,91,140)" d="M 0.837221,5.4 l 0.562779,0 0,0.735867 -0.181128,-0.191353 -0.185597,-0.234435 -0.163953,-0.250051 -0.032101,-0.0600281 z "/>
<path fill="rgb(0,91,140)" stroke="rgb(0,91,140)" d="M 0.465746,4.4 l 0.934254,0 0,1 -0.562779,0 -0.108903,-0.203646 -0.116931,-0.275196 -0.0919268,-0.284527 -0.0537146,-0.236631 z "/>
<path fill="rgb(0,91,140)" stroke="rgb(0,91,140)" d="M 0.4,3.75 l 0.0127478,-0.291972 0.00763957,-0.0580283 0.5757,0 0.00181668,0.0154457 0.018626,0.0901747 0.0263565,0.0882255 0.0338895,0.0856149 0.0411684,0.0823624 0.0481386,0.0784925 0.054748,0.0740342 0.0609469,0.0690208 0.066689,0.06349 0.0515327,0.041182 0,0.311957 -0.934254,0 -0.0124755,-0.0549589 -0.0399262,-0.296331 -0.0133442,-0.29871 z "/>
<path fill="rgb(0,91,140)" stroke="rgb(0,91,140)" d="M 1.4,2.40343 l -0.0307332,0.0232495 -9.76996e-14,8.08242e-14 -0.0682969,0.0617571 -0.0626987,0.0674335 -0.0566305,0.0726043 -0.0501378,0.0772309 -0.0432692,0.0812784 -0.0360762,0.0847167 -0.0286127,0.0875198 -0.0209348,0.0896668 -0.0130999,0.0911416 -0.00516679,0.0919332 0.00280504,0.0920355 0.00893917,0.0760022 -0.5757,0 0.0305067,-0.231721 0.0632545,-0.285322 0.0878812,-0.278724 0.0845959,-0.204233 0.713374,0 0,0.00343039 z "/>
<path fill="rgb(0,91,140)" stroke="rgb(0,91,140)" d="M 4.96502,3.93227 l 0.30009,-0.576529 -0.663426,0 0.0125258,0.0691008 0.0183549,0.0677858 0.024051,0.06598 0.0295731,0.0636965 0.034881,0.0609519 0.0399364,0.0577659 0.0447026,0.0541617 0.0491451,0.0501654 0.0532319,0.0458059 0.0569332,0.0411147 z "/>
<path fill="rgb(0,91,140)" stroke="rgb(0,91,140)" d="M 4.86231,4.13762 l -0.0720378,-0.048557 -0.0677291,-0.0544057 -0.0629469,-0.0598741 -0.0577245,-0.0649238 -0.0520985,-0.0695195 -0.0461083,-0.0736292 -0.0397956,-0.0772239 -0.0332046,-0.0802787 -0.0263815,-0.0827722 -0.0193739,-0.0846869 -0.0122308,-0.0860095 -0.268532,0 0.54497,1.19258 0.213193,-0.410704 z "/>
<path fill="rgb(0,91,140)" stroke="rgb(0,91,140)" d="M 3.89879,3.42683 l -1.19258,1.32685 1.79283,0 -0.600245,-1.32685 z "/>
<path fill="rgb(0,91,140)" stroke="rgb(0,91,140)" d="M 1.94011,3.27675 l -0.00282724,-0.00925904 -0.00201238,-0.00946961 -0.00118231,-0.0096086 -0.000343305,-0.00967498 0.000498296,-0.00966824 0.00133613,-0.00958842 0.00216387,-0.00943614 0.00297525,-0.00921255 0.00376415,-0.00891932 0.00452459,-0.00855869 0.00525084,-0.00813337 0.00593741,-0.00764659 0.00657911,-0.00710201 0.00717108,-0.00650375 0.00770885,-0.00585634 0.00818836,-0.00516468 0.00860599,-0.00443397 0.00895857,-0.00366976 0.00924345,-0.00287781 0.00945846,-0.00206411 0.009602,-0.00123482 0.00967296,-0.000396186 0.00967082,0.000445439 0.00959558,0.0012837 0.00944783,0.00211225 0.00922867,0.00292485 0.00893977,0.00371533 0.0085833,0.00447774 0.00816195,0.00520631 0.00767893,0.00589552 0.00713786,0.00654019 0.00654285,0.00713542 0.0058984,0.00767672 0.00520936,0.00816001 0.00448095,0.00858162 0.00371868,0.00893838 0.0029283,0.00922758 -0.0029283,-0.00922758 -0.00371868,-0.00893838 -0.00448095,-0.00858162 -0.00520936,-0.00816001 -0.0058984,-0.00767672 -0.00654285,-0.00713542 -0.00713786,-0.00654019 -0.00767893,-0.00589552 -0.00816195,-0.00520631 -0.0085833,-0.00447774 -0.00893977,-0.00371533 -0.00922867,-0.00292485 -0.00944783,-0.00211225 -0.00959558,-0.0012837 -0.00967082,-0.000445439 -0.00967296,0.000396186 -0.009602,0.00123482 -0.00945846,0.00206411 -0.00924345,0.00287781 -0.00895857,0.00366976 -0.00860599,0.00443397 -0.00818836,0.00516468 -0.00770885,0.00585634 -0.00717108,0.00650375 -0.00657911,0.00710201 -0.00593741,0.00764659 -0.00525084,0.00813337 -0.00452459,0.00855869 -0.00376415,0.00891932 -0.00297525,0.00921255 -0.00216387,0.00943614 -0.00133613,0.00958842 -0.000498296,0.00966824 0.000343305,0.00967498 0.00118231,0.0096086 0.00201238,0.00946961 0.00282724,0.00925904 z "/>
<path fill="rgb(0,91,140)" stroke="rgb(0,91,140)" d="M 2.57545,2.59864 l -1.56319e-13,-1.29674e-13 -0.0581585,-0.0436427 -0.0617222,-0.0384378 -0.0648214,-0.0329436 -0.0674328,-0.0272014 -0.0695366,-0.0212546 -0.0711171,-0.0151477 -0.0721623,-0.00892689 -0.0726645,-0.00263887 -0.0726198,0.00366901 -0.0720285,0.00994927 -0.0708951,0.0161547 -0.0692282,0.0222385 -0.0670403,0.0281549 -0.0643477,0.0338594 -0.061171,0.0393091 -0.0575338,0.044463 -0.0534636,0.0492822 -0.048991,0.0537305 -0.0441498,0.0577745 -0.0389762,0.0613836 -0.0335093,0.0645307 -0.0277903,0.0671922 -0.021862,0.069348 -0.0157693,0.0709819 -0.00955781,0.0720815 -0.00327443,0.0726386 -8.88178e-16,1.33227e-14 8.88178e-16,3.64153e-14 0.0029011,0.0707954 0.00891694,0.0702915 0.014868,0.0692773 0.0207112,0.0677602 0.026404,0.0657513 0.0319052,0.063265 0.0371747,0.0603195 0.0421744,0.0569361 0.046868,0.0531394 0.0512213,0.048957 0.0552028,0.0444191 0.0587835,0.0395588 0.0619375,0.0344114 0.064642,0.0290141 0.0668771,0.0234063 0.0686268,0.0176285 0.0698783,0.0117227 0.0706226,0.00573187 0.0708542,-0.000300585 0.0705714,-0.00633086 0.0697763,-0.0123152 -0.276438,-0.781881 -0.00282724,-0.00925904 -0.00201238,-0.00946961 -0.00118231,-0.0096086 -0.000343305,-0.00967498 0.000498296,-0.00966824 0.00133613,-0.00958842 0.00216387,-0.00943614 0.00297525,-0.00921255 0.00376415,-0.00891932 0.00452459,-0.00855869 0.00525084,-0.00813337 0.00593741,-0.00764659 0.00657911,-0.00710201 0.00717108,-0.00650375 0.00770885,-0.00585634 0.00818836,-0.00516468 0.00860599,-0.00443397 0.00895857,-0.00366976 0.00924345,-0.00287781 0.00945846,-0.00206411 0.009602,-0.00123482 0.00967296,-0.000396186 0.00967082,0.000445439 0.00959558,0.0012837 0.00944783,0.00211225 0.00922867,0.00292485 0.00893977,0.00371533 0.0085833,0.00447774 0.00816195,0.00520631 0.00767893,0.00589552 0.00713786,0.00654019 0.00654285,0.00713542 0.0058984,0.00767672 0.00520936,0.00816001 0.00448095,0.00858162 0.00371868,0.00893838 0.0029283,0.00922758 0.000262574,0.000990195 0.000253454,0.000992568 0.000244313,0.000994858 0.268532,0.773975 0.0628483,-0.0351662 0.0595787,-0.0404591 0.0558646,-0.0454501 0.0517335,-0.050102 0.0472164,-0.0543799 0.0423469,-0.0582521 0.0371614,-0.0616895 0.0316985,-0.0646666 0.0259992,-0.0671611 0.0201058,-0.0691543 0.0140623,-0.0706315 0.00791392,-0.0715817 0.00170648,-0.0719976 -0.0045137,-0.0718762 -0.0107002,-0.0712185 -0.0168068,-0.0700292 -0.0227881,-0.0683174 -0.0285992,-0.0660958 -0.034197,-0.0633808 -0.0395395,-0.060193 -0.044587,-0.0565559 -0.0493017,-0.0524967 -0.0536485,-0.0480458 z "/>
<path fill="rgb(0,91,140)" stroke="rgb(0,91,140)" d="M 4.60168,3.13458 l 0.845061,0 0.00921311,0.000395761 0.00914523,0.00118437 0.00900998,0.00196425 0.00880835,0.00272966 0.00854182,0.00347495 0.00821236,0.00419465 0.0078224,0.00488344 0.00737481,0.00553626 0.00687289,0.00614829 0.00632033,0.00671502 0.0057212,0.00723228 0.00507993,0.00769625 0.00440123,0.00810353 0.0036901,0.0084511 0.00295179,0.00873641 0.00219173,0.00895736 0.00141553,0.00911232 0.000628893,0.00920014 -0.000162375,0.00922018 -0.000952447,0.00917229 -0.0017355,0.00905682 -0.00250577,0.00887463 -0.00325758,0.00862706 -0.00398539,0.00831593 -7.10543e-15,1.33227e-14 -0.379082,0.742417 0.0685219,0.0202673 0.0700041,0.0143333 0.0709734,0.0082943 0.0714227,0.00219453 0.0713487,-0.00392132 0.070752,-0.0100084 0.0696369,-0.0160222 0.0680117,-0.0219186 0.0658881,-0.0276545 0.0632818,-0.0331877 0.0602119,-0.0384777 0.0567009,-0.0434859 0.0527744,-0.0481754 0.0484613,-0.052512 0.0437931,-0.0564639 0.0388041,-0.0600021 0.0335308,-0.0631007 0.0280118,-0.065737 0.0222876,-0.0678916 0.0164001,-0.0695489 0.0103925,-0.0706966 0.00430869,-0.0713263 -0.00180667,-0.0714335 -0.00790879,-0.0710173 -0.0146419,-0.0729322 -0.0210533,-0.071346 -0.0272988,-0.0691973 -0.0333291,-0.0665031 -0.0390966,-0.0632847 -0.0445559,-0.0595673 -0.0496639,-0.0553804 -0.0543805,-0.0507568 -0.0586683,-0.0457332 -0.0624936,-0.040349 -0.0658263,-0.0346467 -0.06864,-0.0286713 -0.0709126,-0.0224698 -0.0726262,-0.0160913 -0.0737672,-0.00958583 -0.0743267,-0.00300482 -0.0743003,0.00359987 -0.0743103,0.0102998 -0.073087,0.0169232 -0.0712746,0.0234103 -0.0688876,0.0297086 -0.0659454,0.0357675 -0.0624716,0.0415381 -0.0584942,0.0469738 -0.0540453,0.0520309 -0.0491608,0.0566686 -0.0438799,0.0608495 -0.0382454,0.0645399 -0.0323026,0.06771 -0.0260994,0.0703344 -0.0196859,0.0723918 -0.0131136,0.0738657 z "/>
<path fill="rgb(241,240,234)" stroke="rgb(241,240,234)" d="M 3.82294,3.18354 l 0.161314,0 0,0.432212 -0.0854643,-0.18892 -0.680136,0.756709 -0.2344,0 0,-0.0716183 0.838686,-0.928382 z M 2.98426,3.18354 l 0.115545,0 0.0020491,0.0768446 -0.00527253,0.0902029 -0.0129155,0.089429 -0.0204651,0.0880088 -0.0278668,0.0859523 -0.0350671,0.0832746 -0.0160067,0.0304771 0,-0.544189 z "/>
<path fill="rgb(241,240,234)" stroke="rgb(241,240,234)" d="M 2.98426,4.44432 l -0.278049,0.309353 0.278049,0 0,0.213193 -0.214869,0 0.0813242,0.216664 -0.238539,0 -0.316637,-0.903742 -0.0903882,0.0175607 -0.0915684,0.00967602 -0.0920622,0.00171884 -0.0372599,-0.00253544 0,-0.122678 0.548824,0 -0.0322257,0.0172665 0.110582,0.323807 0.308121,-0.341074 0.0646989,0 0,0.260789 z "/>
<path fill="rgb(241,240,234)" stroke="rgb(241,240,234)" d="M 1.54843,4.18354 l 0.435826,0 0,0.122678 -0.054606,-0.00371579 -0.0909807,-0.0141744 -0.0894136,-0.0219914 -0.0871761,-0.0296435 -0.0842851,-0.0370733 -0.0293642,-0.0160798 z "/>
<path fill="rgb(241,240,234)" stroke="rgb(241,240,234)" d="M 1.94891,3.18354 l 0.0353497,0 0,0.218091 -0.0441508,-0.124877 -0.00282724,-0.00925904 -0.00201238,-0.00946961 -0.00118231,-0.0096086 -0.000343305,-0.00967498 0.000498296,-0.00966824 0.00133613,-0.00958842 0.00216387,-0.00943614 0.00297525,-0.00921255 0.00376415,-0.00891932 0.00442865,-0.0083772 z M 0.987065,3.18354 l 0.22134,0 -0.00277935,0.0616561 -8.88178e-16,1.33227e-14 8.88178e-16,3.64153e-14 0.0029011,0.0707954 0.00891694,0.0702915 0.014868,0.0692773 0.0207112,0.0677602 0.026404,0.0657513 0.0319052,0.063265 0.0371747,0.0603195 0.0421744,0.0569361 0.046868,0.0531394 0.0512213,0.048957 0.0552028,0.0444191 0.0587835,0.0395588 0.0619375,0.0344114 0.064642,0.0290141 0.0668771,0.0234063 0.0686268,0.0176285 0.0698783,0.0117227 0.0495372,0.00402054 0,0.10767 -0.435826,0 -0.051398,-0.0281454 -0.0766339,-0.0510456 -0.0719311,-0.0574833 -0.066689,-0.06349 -0.0609469,-0.0690208 -0.054748,-0.0740342 -0.0481386,-0.0784925 -0.0411684,-0.0823624 -0.0338895,-0.0856149 -0.0263565,-0.0882255 -0.018626,-0.0901747 -0.0107558,-0.0914479 -0.00280504,-0.0920355 0.00272168,-0.0484272 z "/>
<path fill="rgb(241,240,234)" stroke="rgb(241,240,234)" d="M 1.20841,3.18354 l -0.22134,0 0.0024451,-0.043506 0.0130999,-0.0911416 0.0209348,-0.0896668 0.0286127,-0.0875198 0.0360762,-0.0847167 0.0432692,-0.0812784 0.0501378,-0.0772309 0.0566305,-0.0726043 0.0626987,-0.0674335 0.0682969,-0.0617571 9.76996e-14,-8.08242e-14 0.0745364,-0.0563863 0.079224,-0.0495848 0.0832928,-0.0423959 0.0867109,-0.0348758 0.0894516,-0.0270832 0.0914936,-0.0190791 0.0928209,-0.010926 0.0174588,-0.000502245 0,0.22531 -0.0190417,0.000962055 -0.0720285,0.00994927 -0.0708951,0.0161547 -0.0692282,0.0222385 -0.0670403,0.0281549 -0.0643477,0.0338594 -0.061171,0.0393091 -0.0575338,0.044463 -0.0534636,0.0492822 -0.048991,0.0537305 -0.0441498,0.0577745 -0.0389762,0.0613836 -0.0335093,0.0645307 -0.0277903,0.0671922 -0.021862,0.069348 -0.0157693,0.0709819 -0.00955781,0.0720815 -0.000495075,0.0109826 z M 1.98426,3.14647 l 0,0.0370675 -0.0353497,0 9.59456e-05,-0.00018149 0.00525084,-0.00813337 0.00593741,-0.00764659 0.00657911,-0.00710201 0.00717108,-0.00650375 0.00770885,-0.00585634 0.00260647,-0.00164399 z "/>
<path fill="rgb(241,240,234)" stroke="rgb(241,240,234)" d="M 4.93928,5.18354 l -0.23698,0 -0.100619,-0.216664 -0.617425,0 0,-0.213193 0.514781,0 -0.257923,-0.570143 0.241304,0 0.166697,0.36479 0.18936,-0.36479 0.145782,0 0,0.195817 -0.216687,0.421695 0.17171,0.382488 z "/>
<path fill="rgb(241,240,234)" stroke="rgb(241,240,234)" d="M 4.48242,4.18354 l -0.241304,0 -0.256858,-0.567788 0,-0.432212 1,0 0,0.172206 -0.382575,0 0.0125258,0.0691008 0.0183549,0.0677858 0.024051,0.06598 0.0295731,0.0636965 0.034881,0.0609519 0.0399364,0.0577659 0.0447026,0.0541617 0.0491451,0.0501654 0.0532319,0.0458059 0.0569332,0.0411147 0.0192401,-0.0369636 0,0.28823 -0.145782,0 0.0238335,-0.0459138 -0.0720378,-0.048557 -0.0677291,-0.0544057 -0.0629469,-0.0598741 -0.0577245,-0.0649238 -0.0520985,-0.0695195 -0.0461083,-0.0736292 -0.0397956,-0.0772239 -0.0332046,-0.0802787 -0.0263815,-0.0827722 -0.0193739,-0.0846869 -0.0122308,-0.0860095 -0.268532,0 0.378274,0.827794 z "/>
<path fill="rgb(241,240,234)" stroke="rgb(241,240,234)" d="M 4.98426,3.13458 l 0,0.0489577 -1,0 0,-0.0489577 0.38842,0 0.0148154,-0.0933195 0.0230071,-0.0916444 0.0310186,-0.0892517 0.0387872,-0.0861602 0.0462522,-0.082394 0.0533549,-0.0779826 0.0600399,-0.0729605 0.0662547,-0.0673672 0.0719507,-0.0612464 0.0770834,-0.0546459 0.0816124,-0.0476176 0.0474032,-0.0222963 0,0.249906 -0.047548,0.0316152 -0.0584942,0.0469738 -0.0540453,0.0520309 -0.0491608,0.0566686 -0.0438799,0.0608495 -0.0382454,0.0645399 -0.0323026,0.06771 -0.0260994,0.0703344 -0.0196859,0.0723918 -0.0131136,0.0738657 0.382575,0 z "/>
<path fill="rgb(241,240,234)" stroke="rgb(241,240,234)" d="M 2.98426,5.62673 l 0,-0.229987 0.0132128,0.0050969 0.014032,0.0040254 0.0143337,0.0027652 0.0145224,0.00148322 0.0145968,0.000189542 0.0145561,-0.00110563 0.276438,0 0,0.221099 -0.315854,-0.000328944 -0.0318115,-0.00140263 -0.0140264,-0.00183529 z "/>
<path fill="rgb(241,240,234)" stroke="rgb(241,240,234)" d="M 2.85071,5.18354 l 0.0451113,0.120186 0.00573138,0.0134258 0.00689938,0.0128647 0.00801302,0.0122022 0.00906353,0.0114435 0.0100426,0.0105947 0.0109426,0.00966237 0.0117563,0.00865393 0.0124774,0.0075773 0.0131002,0.00644097 0.000406948,0.000156982 0,0.229987 -0.0175469,-0.00229594 -0.0311015,-0.00682928 -0.0303995,-0.00947679 -0.0294727,-0.0120542 -0.0283277,-0.0145424 -0.0269732,-0.016923 -0.0254191,-0.0191784 -0.0236769,-0.0212919 -0.0217595,-0.0232479 -0.0196812,-0.0250318 -0.0174572,-0.0266306 -0.0151041,-0.0280323 -0.0126392,-0.0292266 -0.0100808,-0.0302046 -0.0624448,-0.178229 0.238539,0 z "/>
<path fill="rgb(241,240,234)" stroke="rgb(241,240,234)" d="M 2.98426,2.75888 l 0,0.424659 -0.106845,0 -0.00179346,-0.0285591 -0.0107002,-0.0712185 -0.0168068,-0.0700292 -0.0227881,-0.0683174 -0.0285992,-0.0660958 -0.034197,-0.0633808 -0.0395395,-0.060193 -0.044587,-0.0565559 -0.0493017,-0.0524967 -0.0536485,-0.0480458 -1.56319e-13,-1.29674e-13 -0.0581585,-0.0436427 -0.0617222,-0.0384378 -0.0648214,-0.0329436 -0.0674328,-0.0272014 -0.0695366,-0.0212546 -0.0711171,-0.0151477 -0.0721623,-0.00892689 -0.0726645,-0.00263887 -0.053578,0.00270695 0,-0.22531 0.0759642,-0.00218529 0.0932955,0.00557194 0.0924391,0.0137879 0.0908606,0.0218961 0.0885724,0.0298333 0.0855923,0.0375375 0.0819435,0.0449484 0.0776546,0.0520082 0.0727592,0.0586617 0.0672953,0.064857 0.0613058,0.0705457 0.0548374,0.0756833 0.0479406,0.0802296 5.86198e-14,1.09246e-13 0.00953946,0.0196537 z M 2.14128,3.18354 l -0.157022,0 0,-0.0370675 0.00558189,-0.00352069 0.00860599,-0.00443397 0.00895857,-0.00366976 0.00924345,-0.00287781 0.00945846,-0.00206411 0.009602,-0.00123482 0.00967296,-0.000396186 0.00967082,0.000445439 0.00959558,0.0012837 0.00944783,0.00211225 0.00922867,0.00292485 0.00893977,0.00371533 0.0085833,0.00447774 0.00816195,0.00520631 0.00767893,0.00589552 0.00713786,0.00654019 0.00654285,0.00713542 0.0058984,0.00767672 0.00501236,0.00785142 z "/>
<path fill="rgb(241,240,234)" stroke="rgb(241,240,234)" d="M 2.98426,4.75368 l 1,0 0,0.213193 -1,0 0,-0.213193 z M 3.21866,4.18354 l -0.2344,0.260789 0,-0.260789 0.2344,0 z "/>
<path fill="rgb(241,240,234)" stroke="rgb(241,240,234)" d="M 1.98426,3.18354 l 0.157022,0 0.000197002,0.000308587 0.00448095,0.00858162 0.00371868,0.00893838 0.0029283,0.00922758 0.000262574,0.000990195 0.000253454,0.000992568 0.000244313,0.000994858 0.268532,0.773975 0.0628483,-0.0351662 0.0595787,-0.0404591 0.0558646,-0.0454501 0.0517335,-0.050102 0.0472164,-0.0543799 0.0423469,-0.0582521 0.0371614,-0.0616895 0.0316985,-0.0646666 0.0259992,-0.0671611 0.0201058,-0.0691543 0.0140623,-0.0706315 0.00791392,-0.0715817 0.00170648,-0.0719976 -0.00272024,-0.0433171 0.106845,0 0,0.544189 -0.0260071,0.0495179 -0.0486569,0.0761372 -0.0549483,0.071729 -0.0608426,0.0668023 -0.066297,0.0613928 -0.0712722,0.0555395 -0.0757323,0.0492848 -0.0474192,0.0254072 -0.548824,0 0,-0.10767 0.0210853,0.00171133 0.0708542,-0.000300585 0.0705714,-0.00633086 0.0697763,-0.0123152 -0.232287,-0.657004 0,-0.218091 z M 2.98426,4.11192 l 0,0.0716183 -0.0646989,0 0.0646989,-0.0716183 z "/>
<path fill="rgb(241,240,234)" stroke="rgb(241,240,234)" d="M 3.98426,3.13458 l 0,0.0489577 -0.161314,0 0.0442276,-0.0489577 0.117087,0 z M 2.98426,3.18354 l 0,-0.424659 0.0299157,0.0616338 0.0324079,0.0843451 0.0251263,0.0867931 0.0176631,0.0886137 0.0100722,0.0897937 0.000359455,0.0134802 -0.115545,0 z "/>
<path fill="rgb(241,240,234)" stroke="rgb(241,240,234)" d="M 6.26562,3.18354 l 0.225471,0 0.00257513,0.0436895 -0.00280804,0.0935493 -0.0111008,0.0929308 -0.0193059,0.0915786 -0.0273586,0.0895034 -0.0351953,0.0867217 -0.0427541,0.0832553 -0.0499755,0.0791316 -0.0568022,0.0743832 -1.57208e-13,1.8785e-13 -0.0631493,0.0690765 -0.068974,0.0632613 -0.0742652,0.0569569 -0.0577229,0.0366966 0,-0.272608 0.0377349,-0.0344465 0.0484613,-0.052512 0.0437931,-0.0564639 0.0388041,-0.0600021 0.0335308,-0.0631007 0.0280118,-0.065737 0.0222876,-0.0678916 0.0164001,-0.0695489 0.0103925,-0.0706966 0.00430869,-0.0713263 -0.00180667,-0.0714335 -0.00055317,-0.00496722 z "/>
<path fill="rgb(241,240,234)" stroke="rgb(241,240,234)" d="M 6.26562,3.18354 l -0.00735562,-0.0660501 -0.0146419,-0.0729322 -0.0210533,-0.071346 -0.0272988,-0.0691973 -0.0333291,-0.0665031 -0.0390966,-0.0632847 -0.0445559,-0.0595673 -0.0496639,-0.0553804 -0.0443702,-0.0414136 0,-0.276369 0.0322645,0.0190881 0.0760025,0.0546166 0.0708545,0.0611473 0.0651471,0.0671953 0.0589254,0.0727128 0.0522385,0.0776562 0.0451392,0.0819866 0.0376836,0.0856697 0.0299304,0.0886765 0.021941,0.0909832 0.0137783,0.0925717 0.00293174,0.0497397 -0.225471,0 z "/>
<path fill="rgb(241,240,234)" stroke="rgb(241,240,234)" d="M 4.98426,5.4092 l 0,-0.221163 0.21767,0 0,0.221163 -0.21767,0 z "/>
<path fill="rgb(241,240,234)" stroke="rgb(241,240,234)" d="M 5.91333,4.18354 l -0.0334227,0.0173286 -0.0865516,0.0356122 -0.0893457,0.0278703 -0.0914488,0.0199129 -0.0928446,0.0118015 -0.0935225,0.00359882 -0.093477,-0.00463169 -0.0927086,-0.0128264 -0.0912232,-0.0209219 -0.0890324,-0.0288556 -0.0754983,0.146928 0,-0.195817 0.929075,0 z "/>
<path fill="rgb(241,240,234)" stroke="rgb(241,240,234)" d="M 5.91333,4.18354 l -0.929075,0 0,-0.28823 0.28085,-0.539565 -0.28085,0 0,-0.172206 0.552498,0 0.00211051,0.00319749 0.00440123,0.00810353 0.0036901,0.0084511 0.00295179,0.00873641 0.00219173,0.00895736 0.00141553,0.00911232 0.000628893,0.00920014 -0.000162375,0.00922018 -0.000952447,0.00917229 -0.0017355,0.00905682 -0.00250577,0.00887463 -0.00325758,0.00862706 -0.00398539,0.00831593 -7.10543e-15,1.33227e-14 -0.379082,0.742417 0.0685219,0.0202673 0.0700041,0.0143333 0.0709734,0.0082943 0.0714227,0.00219453 0.0713487,-0.00392132 0.070752,-0.0100084 0.0696369,-0.0160222 0.0680117,-0.0219186 0.0658881,-0.0276545 0.0632818,-0.0331877 0.0602119,-0.0384777 0.0567009,-0.0434859 0.0150395,-0.0137289 0,0.272608 -0.0212592,0.0135153 -0.0496655,0.02575 z "/>
<path fill="rgb(241,240,234)" stroke="rgb(241,240,234)" d="M 5.53675,3.18354 l -0.552498,0 0,-0.0489577 0.462486,0 0.00921311,0.000395761 0.00914523,0.00118437 0.00900998,0.00196425 0.00880835,0.00272966 0.00854182,0.00347495 0.00821236,0.00419465 0.0078224,0.00488344 0.00737481,0.00553626 0.00687289,0.00614829 0.00632033,0.00671502 0.0057212,0.00723228 0.00296942,0.00449877 z M 5.98426,2.61786 l -0.0100103,-0.00934325 -0.0586683,-0.0457332 -0.0624936,-0.040349 -0.0658263,-0.0346467 -0.06864,-0.0286713 -0.0709126,-0.0224698 -0.0726262,-0.0160913 -0.0737672,-0.00958583 -0.0743267,-0.00300482 -0.0743003,0.00359987 -0.0743103,0.0102998 -0.073087,0.0169232 -0.0712746,0.0234103 -0.0688876,0.0297086 -0.0659454,0.0357675 -0.0149236,0.00992288 0,-0.249906 0.0380992,-0.0179201 0.0887229,-0.0325003 0.0912487,-0.0245298 0.0930599,-0.0163671 0.0941424,-0.00807629 0.0944878,0.000277762 0.0940933,0.00862964 0.0929621,0.016914 0.0911029,0.0250658 0.0885303,0.0330214 0.0852645,0.0407184 3.37508e-14,1.77636e-14 0.048286,0.0285667 0,0.276369 z "/>
<path fill="rgb(241,240,234)" stroke="rgb(241,240,234)" d="M 4.93928,5.18354 l 0.00201987,0.00449931 0.0429568,0 0,0.221163 -0.595769,0 -0.00963782,-0.000420797 -0.00956448,-0.00125919 -0.00941833,-0.00208799 -0.00920051,-0.00290091 -0.00891267,-0.00369175 -0.008557,-0.00445449 -0.0081362,-0.00518333 -0.00765348,-0.00587273 -0.00711252,-0.00651742 -0.00651742,-0.00711252 -0.00587273,-0.00765348 -0.00518333,-0.0081362 -0.00445449,-0.008557 -0.00369175,-0.00891267 -0.00290091,-0.00920051 -0.00208799,-0.00941833 -0.00125919,-0.00956448 -0.000420797,-0.00963782 0.000420797,-0.00963782 0.00125919,-0.00956448 0.00208799,-0.00941833 0.00290091,-0.00920051 0.00369175,-0.00891267 0.00445449,-0.008557 0.00518333,-0.0081362 0.00587273,-0.00765348 0.00651742,-0.00711252 0.00711252,-0.00651742 0.00765348,-0.00587273 0.0081362,-0.00518333 0.008557,-0.00445449 0.00891267,-0.00369175 0.00920051,-0.00290091 0.00941833,-0.00208799 0.00956448,-0.00125919 0.00963782,-0.000420797 0.315902,0 -0.00208948,-0.00449931 0.23698,0 z "/>
<path fill="rgb(0,91,140)" stroke="rgb(0,91,140)" d="M 1.06776,6.07553 l -0.151112,0.131016 -0.207757,-0.262428 -0.18353,-0.279907 -0.15784,-0.295157 -0.130893,-0.308056 -0.102903,-0.3185 -0.0740935,-0.326407 -0.0446935,-0.331713 -0.0149375,-0.334377 0.0142699,-0.326834 0.042701,-0.324347 0.0708072,-0.319391 0.0983745,-0.312004 0.125193,-0.302243 0.151059,-0.290182 0.175775,-0.275912 0.199154,-0.259542 0.221016,-0.241197 0.241197,-0.221016 0.259542,-0.199154 0.275912,-0.175775 0.290182,-0.151059 0.302243,-0.125193 0.312004,-0.0983745 0.319391,-0.0708072 0.324347,-0.042701 0.326834,-0.0142699 0,0.2 -0.309403,0.0135088 -0.307048,0.0404237 -0.302357,0.0670308 -0.295364,0.0931279 -0.286123,0.118516 -0.274705,0.143002 -0.261196,0.1664 -0.2457,0.188532 -0.228333,0.209229 -0.209229,0.228333 -0.188532,0.2457 -0.1664,0.261196 -0.143002,0.274705 -0.118516,0.286123 -0.0931279,0.295364 -0.0670308,0.302357 -0.0404237,0.307048 -0.0135088,0.309403 0.0141408,0.316544 0.0423099,0.314022 0.0701418,0.308999 0.097415,0.301513 0.123912,0.291626 0.149422,0.279416 0.173742,0.264979 0.196677,0.248431 z "/>
<path fill="rgb(0,91,140)" stroke="rgb(0,91,140)" d="M 7.5,3.75 l -0.0128574,0.310266 -0.0384839,0.308138 -0.0638466,0.303898 -0.0887715,0.297573 -0.189122,-0.06506 0.084037,-0.281703 0.0604415,-0.28769 0.0364315,-0.291704 0.0121716,-0.293718 -0.0135088,-0.309403 -0.0404237,-0.307048 -0.0670308,-0.302357 -0.0931279,-0.295364 -0.118516,-0.286123 -0.143002,-0.274705 -0.1664,-0.261196 -0.188532,-0.2457 -0.209229,-0.228333 -0.228333,-0.209229 -0.2457,-0.188532 -0.261196,-0.1664 -0.274705,-0.143002 -0.286123,-0.118516 -0.295364,-0.0931279 -0.302357,-0.0670308 -0.307048,-0.0404237 -0.309403,-0.0135088 0,-0.2 0.326834,0.0142699 0.324347,0.042701 0.319391,0.0708072 0.312004,0.0983745 0.302243,0.125193 0.290182,0.151059 0.275912,0.175775 0.259542,0.199154 0.241197,0.221016 0.221016,0.241197 0.199154,0.259542 0.175775,0.275912 0.151059,0.290182 0.125193,0.302243 0.0983745,0.312004 0.0708072,0.319391 0.042701,0.324347 0.0142699,0.326834 z "/>
<path fill="rgb(0,91,140)" stroke="rgb(0,91,140)" d="M 1.06776,6.07553 l 0.213058,0.225086 0.231878,0.205645 0.248931,0.184636 0.264087,0.162221 0.27723,0.138568 0.288259,0.11386 0.297092,0.0882837 0.30366,0.0620345 0.307913,0.0353125 0.30982,0.00832127 0.309365,-0.0187333 0.306552,-0.0456452 0.301402,-0.0722091 0.293955,-0.0982226 0.284268,-0.123487 0.272414,-0.147811 0.258483,-0.171008 0.242583,-0.192902 0.224833,-0.213325 0.20537,-0.232122 0.184341,-0.24915 0.161907,-0.264279 0.138239,-0.277394 0.113518,-0.288394 0.189122,0.06506 -0.119913,0.304642 -0.146028,0.293022 -0.171029,0.279168 -0.194726,0.263187 -0.21694,0.245199 -0.2375,0.225343 -0.256249,0.203769 -0.273046,0.180642 -0.287761,0.156138 -0.300283,0.130445 -0.310516,0.103756 -0.318383,0.0762772 -0.323822,0.0482167 -0.326794,0.0197887 -0.327274,-0.00879008 -0.32526,-0.0373019 -0.320767,-0.0655294 -0.313829,-0.0932574 -0.304499,-0.120275 -0.292848,-0.146375 -0.278965,-0.17136 -0.262956,-0.195039 -0.244942,-0.217231 -0.225061,-0.237767 0.151112,-0.131016 z "/>
<path fill="rgb(241,240,234)" stroke="rgb(241,240,234)" d="M 7.1,3.75 l -0.0127478,-0.291972 -0.0381463,-0.28975 -0.0632545,-0.285322 -0.0878812,-0.278724 -0.111839,-0.270004 -0.134946,-0.259229 -0.157026,-0.246481 -0.17791,-0.231857 -0.197441,-0.215469 -0.215469,-0.197441 -0.231857,-0.17791 -0.246481,-0.157026 -0.259229,-0.134946 -0.270004,-0.111839 -0.278724,-0.0878812 -0.285322,-0.0632545 -0.28975,-0.0381463 -0.291972,-0.0127478 0,-0.2 0.309403,0.0135088 0.307048,0.0404237 0.302357,0.0670308 0.295364,0.0931279 0.286123,0.118516 0.274705,0.143002 0.261196,0.1664 0.2457,0.188532 0.228333,0.209229 0.209229,0.228333 0.188532,0.2457 0.1664,0.261196 0.143002,0.274705 0.118516,0.286123 0.0931279,0.295364 0.0670308,0.302357 0.0404237,0.307048 0.0135088,0.309403 -0.0121716,0.293718 -0.0364315,0.291704 -0.0604415,0.28769 -0.084037,0.281703 -0.189122,-0.06506 0.0793025,-0.265832 0.0570363,-0.271482 0.034379,-0.27527 0.0114859,-0.277171 z "/>
<path fill="rgb(241,240,234)" stroke="rgb(241,240,234)" d="M 1.06776,6.07553 l -0.196677,-0.248431 -0.173742,-0.264979 -0.149422,-0.279416 -0.123912,-0.291626 -0.097415,-0.301513 -0.0701418,-0.308999 -0.0423099,-0.314022 -0.0141408,-0.316544 0.0135088,-0.309403 0.0404237,-0.307048 0.0670308,-0.302357 0.0931279,-0.295364 0.118516,-0.286123 0.143002,-0.274705 0.1664,-0.261196 0.188532,-0.2457 0.209229,-0.228333 0.228333,-0.209229 0.2457,-0.188532 0.261196,-0.1664 0.274705,-0.143002 0.286123,-0.118516 0.295364,-0.0931279 0.302357,-0.0670308 0.307048,-0.0404237 0.309403,-0.0135088 0,0.2 -0.291972,0.0127478 -0.28975,0.0381463 -0.285322,0.0632545 -0.278724,0.0878812 -0.270004,0.111839 -0.259229,0.134946 -0.246481,0.157026 -0.231857,0.17791 -0.215469,0.197441 -0.197441,0.215469 -0.17791,0.231857 -0.157026,0.246481 -0.134946,0.259229 -0.111839,0.270004 -0.0878812,0.278724 -0.0632545,0.285322 -0.0381463,0.28975 -0.0127478,0.291972 0.0133442,0.29871 0.0399262,0.296331 0.0661902,0.29159 0.0919268,0.284527 0.116931,0.275196 0.141004,0.263674 0.163953,0.250051 0.185597,0.234435 -0.151112,0.131016 z "/>
<path fill="rgb(241,240,234)" stroke="rgb(241,240,234)" d="M 1.06776,6.07553 l 0.151112,-0.131016 0.201055,0.212405 0.218815,0.194059 0.234907,0.174234 0.249209,0.153081 0.261611,0.130762 0.272019,0.107445 0.280354,0.08331 0.286552,0.0585396 0.290566,0.033323 0.292365,0.00785247 0.291936,-0.0176779 0.289281,-0.0430736 0.284422,-0.068141 0.277395,-0.0926889 0.268253,-0.11653 0.257067,-0.139484 0.243921,-0.161374 0.228916,-0.182034 0.212166,-0.201307 0.1938,-0.219045 0.173956,-0.235114 0.152786,-0.24939 0.130451,-0.261766 0.107123,-0.272146 0.189122,0.06506 -0.113518,0.288394 -0.138239,0.277394 -0.161907,0.264279 -0.184341,0.24915 -0.20537,0.232122 -0.224833,0.213325 -0.242583,0.192902 -0.258483,0.171008 -0.272414,0.147811 -0.284268,0.123487 -0.293955,0.0982226 -0.301402,0.0722091 -0.306552,0.0456452 -0.309365,0.0187333 -0.30982,-0.00832127 -0.307913,-0.0353125 -0.30366,-0.0620345 -0.297092,-0.0882837 -0.288259,-0.11386 -0.27723,-0.138568 -0.264087,-0.162221 -0.248931,-0.184636 -0.231878,-0.205645 -0.213058,-0.225086 z "/>
</g></g></svg>
