<?xml version="1.0" encoding="UTF-8" standalone="no"?>
<!DOCTYPE svg PUBLIC "-//W3C//DTD SVG 1.1//EN" "http://www.w3.org/Graphics/SVG/1.1/DTD/svg11-flat.dtd"
[

]>
<svg xmlns="http://www.w3.org/2000/svg"  viewBox="-0.09375 -0.09375 7.6875 7.6875"><g fill="none" stroke="black" stroke-width="0.0125" transform="translate(0,7.5) scale(1, -1)">
<g id="Output" >
<path fill="rgb(241,240,234)" stroke="rgb(241,240,234)" d="M 6.42497,4.28193 l -0.000224706,0.0108482 -0.00116487,0.0107878 -0.00209625,0.0106461 -0.00301182,0.0104241 -0.0039047,0.0101236 -0.00476813,0.00974668 -0.00559562,0.00929634 -0.00638093,0.00877591 -0.00711813,0.00818933 -0.00780167,0.00754101 -0.0084264,0.00683584 -0.00898761,0.00607913 -0.00948105,0.0052766 -0.00990303,0.00443429 -0.0102503,0.00355855 -0.0105204,0.00265599 -0.0107111,0.0017334 -0.0108211,0.00079774 -0.0108495,-0.00014393 -0.0107961,-0.00108451 -0.0106614,-0.00201692 -0.0104462,-0.00293413 -0.0101523,-0.00382921 -0.00978191,-0.00469543 -0.00933774,-0.00552625 -0.00882318,-0.00631541 -0.0082421,-0.00705696 -0.574284,-0.536628 -1.09208,1.88917 -0.530358,-0.307535 0.966273,-1.67154 0.125805,-0.217628 -0.753156,-0.229106 -0.0103927,-0.00285272 -0.0101001,-0.00375936 -0.00972867,-0.00463662 -0.0092812,-0.00547765 -0.0087612,-0.00627588 -0.00817275,-0.00702506 -0.00752043,-0.00771936 -0.00680934,-0.00835333 -0.00604505,-0.00892203 -0.00523352,-0.00942101 -0.0043811,-0.00984638 -0.00349444,-0.0101948 -0.00258048,-0.0104636 -0.00164635,-0.0106506 -0.000699361,-0.0107544 0.000253095,-0.0107741 0.00120357,-0.0107097 0.00214465,-0.0105615 0.00306896,-0.0103309 0.0039693,-0.0100195 0.00483862,-0.0096298 0.00567013,-0.00916488 0.00645733,-0.00862834 0.00719407,-0.00802437 0.0078746,-0.00735771 0.0084936,-0.00663355 0.00904623,-0.00585756 0.00952817,-0.0050358 1.75738,-0.83161 1.5099e-14,-7.10543e-15 0.0101703,-0.00425761 0.0105043,-0.00335004 0.0107574,-0.00241669 0.0109278,-0.00146475 0.0110141,-0.000501548 0.0110157,0.000465517 0.0109326,0.001429 0.0107653,0.00238149 0.0105152,0.00331566 0.0101842,0.00422432 0.00977487,0.00510048 0.00929033,0.0059374 0.00873431,0.00672865 0.0081111,0.00746813 0.00742549,0.00815015 0.00668276,0.00876947 0.00588861,0.00932133 0.00504916,0.00980148 0.00417086,0.0102062 0.00326048,0.0105324 0.00232501,0.0107776 0.00137166,0.0109399 0.113723,1.40335 0.0431852,0.532906 z "/>
<path fill="rgb(241,240,234)" stroke="rgb(241,240,234)" d="M 2.38977,3.53292 l 0.125966,0.217534 0.967514,1.67083 -0.530129,0.307928 -1.09348,-1.88836 -0.573886,0.537054 -0.00823686,0.00706308 -0.00881849,0.00632196 -0.00933364,0.00553319 -0.00977842,0.0047027 -0.0101495,0.00383675 -0.0104441,0.00294189 -0.0106599,0.00202484 -0.0107953,0.00109253 -0.0108494,0.000151988 -0.0108217,-0.000789703 -0.0107124,-0.00172544 -0.0105224,-0.00264817 -0.010253,-0.00355094 -0.00990632,-0.00442693 -0.00948497,-0.00526956 -0.00899212,-0.00607246 -0.00843148,-0.00682958 -0.00780727,-0.00753521 -0.00712421,-0.00818404 -0.00638745,-0.00877117 -0.00560253,-0.00929218 -0.00477537,-0.00974314 -0.00391221,-0.0101206 -0.00301957,-0.0104219 -0.00210415,-0.0106445 -0.00117288,-0.0107869 -0.000232763,-0.010848 0.0427894,-0.532938 0.112681,-1.40343 0.00136669,-0.0109596 0.00232341,-0.0107973 0.00326219,-0.0105517 0.00417579,-0.0102246 0.00505716,-0.0098186 0.00589948,-0.0093368 0.00669626,-0.00878292 0.00744135,-0.00816124 0.008129,-0.00747657 0.00875389,-0.00673417 0.0093112,-0.00593979 0.00979664,-0.00509956 0.0102064,-0.00421996 0.0105375,-0.00330778 0.0107871,-0.00237007 0.0109535,-0.00141406 0.0110354,-0.000447135 0.011032,0.000523241 0.0109435,0.00148958 0.0107705,0.00244441 0.0105144,0.00338038 0.0101771,0.00429025 9.14824e-14,4.30767e-14 1.75762,0.830127 0.00953191,0.00502872 0.00905058,0.00585084 0.00849853,0.00662724 0.00788007,0.00735186 0.00720003,0.00801903 0.00646373,0.00862354 0.00567693,0.00916066 0.00484577,0.0096262 0.00397674,0.0100165 0.00307664,0.0103286 0.00215249,0.0105599 0.00121153,0.0107088 0.000261098,0.0107739 -0.000691373,0.0107549 -0.00163844,0.0106518 -0.00257271,0.0104655 -0.00348687,0.0101974 -0.00437378,0.00984963 -0.00522652,0.0094249 -0.00603842,0.00892652 -0.00680314,0.00835839 -0.00751469,0.00772494 -0.00816753,0.00703113 -0.00875654,0.00628238 -0.00927713,0.00548454 -0.00972522,0.00464384 -0.0100973,0.00376686 -0.0103905,0.00286044 -0.752986,0.229665 z "/>
<path fill="rgb(0,91,140)" stroke="rgb(0,91,140)" d="M 0.4,3.75 l 0.0127447,-0.291937 0.0381373,-0.289716 0.0632396,-0.28529 0.0878608,-0.278694 0.111813,-0.269977 0.134915,-0.259206 0.156991,-0.246462 0.177872,-0.231844 0.197399,-0.215461 0.215424,-0.197439 0.231811,-0.177915 0.246433,-0.157036 0.259181,-0.134963 0.269956,-0.111864 0.278678,-0.0879125 0.285279,-0.0632926 0.289709,-0.0381911 0.291935,-0.012799 0.29194,0.0126905 0.289723,0.0380835 0.285302,0.0631867 0.27871,0.087809 0.269998,0.111763 0.259231,0.134867 0.246492,0.156945 0.231877,0.177828 0.215498,0.197359 0.197479,0.215388 0.177958,0.231778 0.157082,0.246404 0.135012,0.259156 0.111914,0.269935 0.0879643,0.278661 0.0633456,0.285267 0.0382449,0.289702 0.0128532,0.291933 -0.718213,0.000266719 -0.113723,-1.40335 -0.00137166,-0.0109399 -0.00232501,-0.0107776 -0.00326048,-0.0105324 -0.00417086,-0.0102062 -0.00504916,-0.00980148 -0.00588861,-0.00932133 -0.00668276,-0.00876947 -0.00742549,-0.00815015 -0.0081111,-0.00746813 -0.00873431,-0.00672865 -0.00929033,-0.0059374 -0.00977487,-0.00510048 -0.0101842,-0.00422432 -0.0105152,-0.00331566 -0.0107653,-0.00238149 -0.0109326,-0.001429 -0.0110157,-0.000465517 -0.0110141,0.000501548 -0.0109278,0.00146475 -0.0107574,0.00241669 -0.0105043,0.00335004 -0.0101703,0.00425761 -1.5099e-14,7.10543e-15 -1.75738,0.83161 -0.00952817,0.0050358 -0.00904623,0.00585756 -0.0084936,0.00663355 -0.0078746,0.00735771 -0.00719407,0.00802437 -0.00645733,0.00862834 -0.00567013,0.00916488 -0.00483862,0.0096298 -0.0039693,0.0100195 -0.00306896,0.0103309 -0.00214465,0.0105615 -0.00120357,0.0107097 -0.000253095,0.0107741 0.000699361,0.0107544 0.00164635,0.0106506 0.00258048,0.0104636 0.00349444,0.0101948 0.0043811,0.00984638 0.00523352,0.00942101 0.00604505,0.00892203 0.00680934,0.00835333 0.00752043,0.00771936 0.00817275,0.00702506 0.0087612,0.00627588 0.0092812,0.00547765 0.00972867,0.00463662 0.0101001,0.00375936 0.0103927,0.00285272 0.753156,0.229106 -0.125805,0.217628 -2.46853,0.000916725 -0.125966,-0.217534 0.752986,-0.229665 0.0103905,-0.00286044 0.0100973,-0.00376686 0.00972522,-0.00464384 0.00927713,-0.00548454 0.00875654,-0.00628238 0.00816753,-0.00703113 0.00751469,-0.00772494 0.00680314,-0.00835839 0.00603842,-0.00892652 0.00522652,-0.0094249 0.00437378,-0.00984963 0.00348687,-0.0101974 0.00257271,-0.0104655 0.00163844,-0.0106518 0.000691373,-0.0107549 -0.000261098,-0.0107739 -0.00121153,-0.0107088 -0.00215249,-0.0105599 -0.00307664,-0.0103286 -0.00397674,-0.0100165 -0.00484577,-0.0096262 -0.00567693,-0.00916066 -0.00646373,-0.00862354 -0.00720003,-0.00801903 -0.00788007,-0.00735186 -0.00849853,-0.00662724 -0.00905058,-0.00585084 -0.00953191,-0.00502872 -1.75762,-0.830127 -9.14824e-14,-4.30767e-14 -0.0101771,-0.00429025 -0.0105144,-0.00338038 -0.0107705,-0.00244441 -0.0109435,-0.00148958 -0.011032,-0.000523241 -0.0110354,0.000447135 -0.0109535,0.00141406 -0.0107871,0.00237007 -0.0105375,0.00330778 -0.0102064,0.00421996 -0.00979664,0.00509956 -0.0093112,0.00593979 -0.00875389,0.00673417 -0.008129,0.00747657 -0.00744135,0.00816124 -0.00669626,0.00878292 -0.00589948,0.0093368 -0.00505716,0.0098186 -0.00417579,0.0102246 -0.00326219,0.0105517 -0.00232341,0.0107973 -0.00136669,0.0109596 -0.112681,1.40343 -0.718213,0.000266719 -1.28334e-07,-0.00041469 -7.70006e-08,-0.00041469 -2.56669e-08,-0.00041469 z "/>
<path fill="rgb(0,91,140)" stroke="rgb(0,91,140)" d="M 6.42497,4.28193 l -0.0431852,-0.532906 0.718213,-0.000266719 1.28334e-07,0.00041469 7.70006e-08,0.00041469 2.56669e-08,0.00041469 -0.0114859,0.277171 -0.034379,0.27527 -0.0570363,0.271482 -0.0793025,0.265832 -0.107123,0.272146 -0.130451,0.261766 -0.152786,0.24939 -0.173956,0.235114 -0.1938,0.219045 -0.212166,0.201307 -0.228916,0.182034 -0.243921,0.161374 -0.257067,0.139484 -0.268253,0.11653 -0.277395,0.0926889 -0.284422,0.068141 -0.289281,0.0430736 -0.291936,0.0176779 -0.292365,-0.00785247 -0.290566,-0.033323 -0.286552,-0.0585396 -0.280354,-0.08331 -0.272019,-0.107445 -0.261611,-0.130762 -0.249209,-0.153081 -0.234907,-0.174234 -0.218815,-0.194059 -0.201055,-0.212405 -0.185506,-0.234309 -0.163885,-0.249909 -0.140961,-0.26352 -0.116915,-0.275034 -0.0919385,-0.28436 -0.0662302,-0.291422 -0.0399948,-0.296165 -0.0134412,-0.298551 0.718213,-0.000266719 -0.0427894,0.532938 0.000232763,0.010848 0.00117288,0.0107869 0.00210415,0.0106445 0.00301957,0.0104219 0.00391221,0.0101206 0.00477537,0.00974314 0.00560253,0.00929218 0.00638745,0.00877117 0.00712421,0.00818404 0.00780727,0.00753521 0.00843148,0.00682958 0.00899212,0.00607246 0.00948497,0.00526956 0.00990632,0.00442693 0.010253,0.00355094 0.0105224,0.00264817 0.0107124,0.00172544 0.0108217,0.000789703 0.0108494,-0.000151988 0.0107953,-0.00109253 0.0106599,-0.00202484 0.0104441,-0.00294189 0.0101495,-0.00383675 0.00977842,-0.0047027 0.00933364,-0.00553319 0.00881849,-0.00632196 0.00823686,-0.00706308 0.573886,-0.537054 1.09348,1.88836 0.530129,-0.307928 -0.967514,-1.67083 2.46853,-0.000916725 -0.966273,1.67154 0.530358,0.307535 1.09208,-1.88917 0.574284,0.536628 0.0082421,0.00705696 0.00882318,0.00631541 0.00933774,0.00552625 0.00978191,0.00469543 0.0101523,0.00382921 0.0104462,0.00293413 0.0106614,0.00201692 0.0107961,0.00108451 0.0108495,0.00014393 0.0108211,-0.00079774 0.0107111,-0.0017334 0.0105204,-0.00265599 0.0102503,-0.00355855 0.00990303,-0.00443429 0.00948105,-0.0052766 0.00898761,-0.00607913 0.0084264,-0.00683584 0.00780167,-0.00754101 0.00711813,-0.00818933 0.00638093,-0.00877591 0.00559562,-0.00929634 0.00476813,-0.00974668 0.0039047,-0.0101236 0.00301182,-0.0104241 0.00209625,-0.0106461 0.00116487,-0.0107878 0.000224706,-0.0108482 z "/>
<path fill="rgb(0,91,140)" stroke="rgb(0,91,140)" d="M 1.06776,6.07553 l -0.151112,0.131016 -0.207757,-0.262428 -0.18353,-0.279907 -0.15784,-0.295157 -0.130893,-0.308056 -0.102903,-0.3185 -0.0740935,-0.326407 -0.0446935,-0.331713 -0.0149375,-0.334377 0.0142699,-0.326834 0.042701,-0.324347 0.0708072,-0.319391 0.0983745,-0.312004 0.125193,-0.302243 0.151059,-0.290182 0.175775,-0.275912 0.199154,-0.259542 0.221016,-0.241197 0.241197,-0.221016 0.259542,-0.199154 0.275912,-0.175775 0.290182,-0.151059 0.302243,-0.125193 0.312004,-0.0983745 0.319391,-0.0708072 0.324347,-0.042701 0.326834,-0.0142699 0,0.2 -0.309403,0.0135088 -0.307048,0.0404237 -0.302357,0.0670308 -0.295364,0.0931279 -0.286123,0.118516 -0.274705,0.143002 -0.261196,0.1664 -0.2457,0.188532 -0.228333,0.209229 -0.209229,0.228333 -0.188532,0.2457 -0.1664,0.261196 -0.143002,0.274705 -0.118516,0.286123 -0.0931279,0.295364 -0.0670308,0.302357 -0.0404237,0.307048 -0.0135088,0.309403 0.0141408,0.316544 0.0423099,0.314022 0.0701418,0.308999 0.097415,0.301513 0.123912,0.291626 0.149422,0.279416 0.173742,0.264979 0.196677,0.248431 z "/>
<path fill="rgb(0,91,140)" stroke="rgb(0,91,140)" d="M 7.5,3.75 l -0.0128574,0.310266 -0.0384839,0.308138 -0.0638466,0.303898 -0.0887715,0.297573 -0.189122,-0.06506 0.084037,-0.281703 0.0604415,-0.28769 0.0364315,-0.291704 0.0121716,-0.293718 -0.0135088,-0.309403 -0.0404237,-0.307048 -0.0670308,-0.302357 -0.0931279,-0.295364 -0.118516,-0.286123 -0.143002,-0.274705 -0.1664,-0.261196 -0.188532,-0.2457 -0.209229,-0.228333 -0.228333,-0.209229 -0.2457,-0.188532 -0.261196,-0.1664 -0.274705,-0.143002 -0.286123,-0.118516 -0.295364,-0.0931279 -0.302357,-0.0670308 -0.307048,-0.0404237 -0.309403,-0.0135088 0,-0.2 0.326834,0.0142699 0.324347,0.042701 0.319391,0.0708072 0.312004,0.0983745 0.302243,0.125193 0.290182,0.151059 0.275912,0.175775 0.259542,0.199154 0.241197,0.221016 0.221016,0.241197 0.199154,0.259542 0.175775,0.275912 0.151059,0.290182 0.125193,0.302243 0.0983745,0.312004 0.0708072,0.319391 0.042701,0.324347 0.0142699,0.326834 z "/>
<path fill="rgb(0,91,140)" stroke="rgb(0,91,140)" d="M 1.06776,6.07553 l 0.213058,0.225086 0.231878,0.205645 0.248931,0.184636 0.264087,0.162221 0.27723,0.138568 0.288259,0.11386 0.297092,0.0882837 0.30366,0.0620345 0.307913,0.0353125 0.30982,0.00832127 0.309365,-0.0187333 0.306552,-0.0456452 0.301402,-0.0722091 0.293955,-0.0982226 0.284268,-0.123487 0.272414,-0.147811 0.258483,-0.171008 0.242583,-0.192902 0.224833,-0.213325 0.20537,-0.232122 0.184341,-0.24915 0.161907,-0.264279 0.138239,-0.277394 0.113518,-0.288394 0.189122,0.06506 -0.119913,0.304642 -0.146028,0.293022 -0.171029,0.279168 -0.194726,0.263187 -0.21694,0.245199 -0.2375,0.225343 -0.256249,0.203769 -0.273046,0.180642 -0.287761,0.156138 -0.300283,0.130445 -0.310516,0.103756 -0.318383,0.0762772 -0.323822,0.0482167 -0.326794,0.0197887 -0.327274,-0.00879008 -0.32526,-0.0373019 -0.320767,-0.0655294 -0.313829,-0.0932574 -0.304499,-0.120275 -0.292848,-0.146375 -0.278965,-0.17136 -0.262956,-0.195039 -0.244942,-0.217231 -0.225061,-0.237767 0.151112,-0.131016 z "/>
<path fill="rgb(241,240,234)" stroke="rgb(241,240,234)" d="M 7.1,3.74876 l -0.0128501,-0.291898 -0.0382359,-0.289668 -0.0633307,-0.285235 -0.0879438,-0.278632 -0.111888,-0.269909 -0.134981,-0.259133 -0.157047,-0.246386 -0.177919,-0.231764 -0.197437,-0.21538 -0.215453,-0.197357 -0.23183,-0.177833 -0.246444,-0.156956 -0.259183,-0.134885 -0.26995,-0.111788 -0.278664,-0.0878404 -0.285258,-0.0632248 -0.289682,-0.0381283 -0.291903,-0.0127417 0,-0.2 0.309403,0.0135088 0.307048,0.0404237 0.302357,0.0670308 0.295364,0.0931279 0.286123,0.118516 0.274705,0.143002 0.261196,0.1664 0.2457,0.188532 0.228333,0.209229 0.209229,0.228333 0.188532,0.2457 0.1664,0.261196 0.143002,0.274705 0.118516,0.286123 0.0931279,0.295364 0.0670308,0.302357 0.0404237,0.307048 0.0135088,0.309403 -0.0121716,0.293718 -0.0364315,0.291704 -0.0604415,0.28769 -0.084037,0.281703 -0.189122,-0.06506 0.0793025,-0.265832 0.0570363,-0.271482 0.034379,-0.27527 0.0114859,-0.277171 -2.56669e-08,-0.00041469 -7.70006e-08,-0.00041469 -1.28334e-07,-0.00041469 z "/>
<path fill="rgb(241,240,234)" stroke="rgb(241,240,234)" d="M 1.06776,6.07553 l -0.196677,-0.248431 -0.173742,-0.264979 -0.149422,-0.279416 -0.123912,-0.291626 -0.097415,-0.301513 -0.0701418,-0.308999 -0.0423099,-0.314022 -0.0141408,-0.316544 0.0135088,-0.309403 0.0404237,-0.307048 0.0670308,-0.302357 0.0931279,-0.295364 0.118516,-0.286123 0.143002,-0.274705 0.1664,-0.261196 0.188532,-0.2457 0.209229,-0.228333 0.228333,-0.209229 0.2457,-0.188532 0.261196,-0.1664 0.274705,-0.143002 0.286123,-0.118516 0.295364,-0.0931279 0.302357,-0.0670308 0.307048,-0.0404237 0.309403,-0.0135088 0,0.2 -0.291972,0.0127478 -0.28975,0.0381463 -0.285322,0.0632545 -0.278724,0.0878812 -0.270004,0.111839 -0.259229,0.134946 -0.246481,0.157026 -0.231857,0.17791 -0.215469,0.197441 -0.197441,0.215469 -0.17791,0.231857 -0.157026,0.246481 -0.134946,0.259229 -0.111839,0.270004 -0.0878812,0.278724 -0.0632545,0.285322 -0.0381463,0.28975 -0.0127478,0.291972 2.56669e-08,0.00041469 7.70006e-08,0.00041469 1.28334e-07,0.00041469 0.0134412,0.298551 0.0399948,0.296165 0.0662302,0.291422 0.0919385,0.28436 0.116915,0.275034 0.140961,0.26352 0.163885,0.249909 0.185506,0.234309 -0.151112,0.131016 z "/>
<path fill="rgb(241,240,234)" stroke="rgb(241,240,234)" d="M 1.06776,6.07553 l 0.151112,-0.131016 0.201055,0.212405 0.218815,0.194059 0.234907,0.174234 0.249209,0.153081 0.261611,0.130762 0.272019,0.107445 0.280354,0.08331 0.286552,0.0585396 0.290566,0.033323 0.292365,0.00785247 0.291936,-0.0176779 0.289281,-0.0430736 0.284422,-0.068141 0.277395,-0.0926889 0.268253,-0.11653 0.257067,-0.139484 0.243921,-0.161374 0.228916,-0.182034 0.212166,-0.201307 0.1938,-0.219045 0.173956,-0.235114 0.152786,-0.24939 0.130451,-0.261766 0.107123,-0.272146 0.189122,0.06506 -0.113518,0.288394 -0.138239,0.277394 -0.161907,0.264279 -0.184341,0.24915 -0.20537,0.232122 -0.224833,0.213325 -0.242583,0.192902 -0.258483,0.171008 -0.272414,0.147811 -0.284268,0.123487 -0.293955,0.0982226 -0.301402,0.0722091 -0.306552,0.0456452 -0.309365,0.0187333 -0.30982,-0.00832127 -0.307913,-0.0353125 -0.30366,-0.0620345 -0.297092,-0.0882837 -0.288259,-0.11386 -0.27723,-0.138568 -0.264087,-0.162221 -0.248931,-0.184636 -0.231878,-0.205645 -0.213058,-0.225086 z "/>
</g></g></svg>
