<?xml version="1.0" encoding="UTF-8" standalone="no"?>
<!DOCTYPE svg PUBLIC "-//W3C//DTD SVG 1.1//EN" "http://www.w3.org/Graphics/SVG/1.1/DTD/svg11-flat.dtd"
[

]>
<svg xmlns="http://www.w3.org/2000/svg"  viewBox="-0.06875 -0.06875 5.6375 7.6375"><g fill="none" stroke="black" stroke-width="0.0125" transform="translate(0,7.5) scale(1, -1)">
<g id="Output" >
<path fill="rgb(0,91,140)" stroke="rgb(0,91,140)" d="M 2.59942,6.36973 l 0.100392,0 -0.114322,-1.44849 0.0896129,-0.17927 0.0326296,0 0.198356,0.286042 -0.105895,1.34172 0.100392,0 0.292206,-0.928279 1.15013,1.65855 -1.59292,0 -2.05,0 -0.0261467,-0.00114159 -0.0259477,-0.00341608 -0.0255513,-0.00566458 -0.0249603,-0.00786996 -0.0241794,-0.0100155 -0.0232145,-0.0120847 -0.0220729,-0.014062 -0.0207634,-0.0159323 -0.0192958,-0.0176813 2.11155,-0.642407 z "/>
<path fill="rgb(0,91,140)" stroke="rgb(0,91,140)" d="M 4.54987,1.13027 l 0.462261,-0.642407 0.0176813,0.0192958 0.0159323,0.0207634 0.014062,0.0220729 0.0120847,0.0232145 0.0100155,0.0241794 0.00786996,0.0249603 0.00566458,0.0255513 0.00341608,0.0259477 0.00114159,0.0261467 8.88178e-16,5.38593 -0.931975,-1.34397 0.331651,8.88178e-16 8.88178e-16,-0.200784 -0.222298,0 8.88178e-16,-0.334633 -0.313129,0 0,0.24156 -0.315538,-0.455025 0.901161,-2.8628 z "/>
<path fill="rgb(0,91,140)" stroke="rgb(0,91,140)" d="M 1.15708,0.4 l 1.59292,0 2.05,0 0.0261467,0.00114159 0.0259477,0.00341608 0.0255513,0.00566458 0.0249603,0.00786996 0.0241794,0.0100155 0.0232145,0.0120847 0.0220729,0.014062 0.0207634,0.0159323 0.0192958,0.0176813 -0.462261,0.642407 -1.33616,0 -0.158407,2.00708 -0.68903,-0.993623 -0.0799862,-1.01345 -0.622795,-8.88178e-16 -0.50641,-0.730275 z "/>
<path fill="rgb(0,91,140)" stroke="rgb(0,91,140)" d="M 0.4,1.41407 l 1.17104,1.68871 0.326374,1.03682 0.392613,0 0.278468,0.401568 -1.03274,0 0,-0.334633 -0.313129,0 0,0.334633 -0.222298,0 0,0.200784 1.67478,0 -0.0896129,0.17927 -0.442031,8.88178e-16 0.455961,1.44849 -2.11155,0.642407 -0.0176813,-0.0192958 -0.0159323,-0.0207634 -0.014062,-0.0220729 -0.0120847,-0.0232145 -0.0100155,-0.0241794 -0.00786996,-0.0249603 -0.00566458,-0.0255513 -0.00341608,-0.0259477 -0.00114159,-0.0261467 -4.44089e-16,-5.38593 z "/>
<path fill="rgb(0,91,140)" stroke="rgb(0,91,140)" d="M 2.75,7.3 l 2.05,0 0.0435779,-0.00190265 0.0432462,-0.00569347 0.0425854,-0.00944096 0.0416005,-0.0131166 0.0402991,-0.0166924 0.0386909,-0.0201412 0.0367882,-0.0234367 0.0346056,-0.0265538 0.0321596,-0.0294688 0.0294688,-0.0321596 0.0265538,-0.0346056 0.0234367,-0.0367882 0.0201412,-0.0386909 0.0166924,-0.0402991 0.0131166,-0.0416005 0.00944096,-0.0425854 0.00569347,-0.0432462 0.00190265,-0.0435779 0,-6.1 -0.00190265,-0.0435779 -0.00569347,-0.0432462 -0.00944096,-0.0425854 -0.0131166,-0.0416005 -0.0166924,-0.0402991 -0.0201412,-0.0386909 -0.0234367,-0.0367882 -0.0265538,-0.0346056 -0.0294688,-0.0321596 -0.0321596,-0.0294688 -0.0346056,-0.0265538 -0.0367882,-0.0234367 -0.0386909,-0.0201412 -0.0402991,-0.0166924 -0.0416005,-0.0131166 -0.0425854,-0.00944096 -0.0432462,-0.00569347 -0.0435779,-0.00190265 -2.05,8.88178e-16 0,-0.2 2.05,8.88178e-16 0.061009,0.00266371 0.0605447,0.00797086 0.0596196,0.0132173 0.0582408,0.0183632 0.0564187,0.0233694 0.0541672,0.0281977 0.0515035,0.0328114 0.0484478,0.0371753 0.0450234,0.0412564 0.0412564,0.0450234 0.0371753,0.0484478 0.0328114,0.0515035 0.0281977,0.0541672 0.0233694,0.0564187 0.0183632,0.0582408 0.0132173,0.0596196 0.00797086,0.0605447 0.00266371,0.061009 0,6.1 -0.00266371,0.061009 -0.00797086,0.0605447 -0.0132173,0.0596196 -0.0183632,0.0582408 -0.0233694,0.0564187 -0.0281977,0.0541672 -0.0328114,0.0515035 -0.0371753,0.0484478 -0.0412564,0.0450234 -0.0450234,0.0412564 -0.0484478,0.0371753 -0.0515035,0.0328114 -0.0541672,0.0281977 -0.0564187,0.0233694 -0.0582408,0.0183632 -0.0596196,0.0132173 -0.0605447,0.00797086 -0.061009,0.00266371 -2.05,0 0,-0.2 z "/>
<path fill="rgb(0,91,140)" stroke="rgb(0,91,140)" d="M 2.75,7.3 l 0,0.2 -2.05,0 -0.061009,-0.00266371 -0.0605447,-0.00797086 -0.0596196,-0.0132173 -0.0582408,-0.0183632 -0.0564187,-0.0233694 -0.0541672,-0.0281977 -0.0515035,-0.0328114 -0.0484478,-0.0371753 -0.0450234,-0.0412564 -0.0412564,-0.0450234 -0.0371753,-0.0484478 -0.0328114,-0.0515035 -0.0281977,-0.0541672 -0.0233694,-0.0564187 -0.0183632,-0.0582408 -0.0132173,-0.0596196 -0.00797086,-0.0605447 -0.00266371,-0.061009 0,-6.1 0.00266371,-0.061009 0.00797086,-0.0605447 0.0132173,-0.0596196 0.0183632,-0.0582408 0.0233694,-0.0564187 0.0281977,-0.0541672 0.0328114,-0.0515035 0.0371753,-0.0484478 0.0412564,-0.0450234 0.0450234,-0.0412564 0.0484478,-0.0371753 0.0515035,-0.0328114 0.0541672,-0.0281977 0.0564187,-0.0233694 0.0582408,-0.0183632 0.0596196,-0.0132173 0.0605447,-0.00797086 0.061009,-0.00266371 2.05,-8.88178e-16 0,0.2 -2.05,8.88178e-16 -0.0435779,0.00190265 -0.0432462,0.00569347 -0.0425854,0.00944096 -0.0416005,0.0131166 -0.0402991,0.0166924 -0.0386909,0.0201412 -0.0367882,0.0234367 -0.0346056,0.0265538 -0.0321596,0.0294688 -0.0294688,0.0321596 -0.0265538,0.0346056 -0.0234367,0.0367882 -0.0201412,0.0386909 -0.0166924,0.0402991 -0.0131166,0.0416005 -0.00944096,0.0425854 -0.00569347,0.0432462 -0.00190265,0.0435779 0,6.1 0.00190265,0.0435779 0.00569347,0.0432462 0.00944096,0.0425854 0.0131166,0.0416005 0.0166924,0.0402991 0.0201412,0.0386909 0.0234367,0.0367882 0.0265538,0.0346056 0.0294688,0.0321596 0.0321596,0.0294688 0.0346056,0.0265538 0.0367882,0.0234367 0.0386909,0.0201412 0.0402991,0.0166924 0.0416005,0.0131166 0.0425854,0.00944096 0.0432462,0.00569347 0.0435779,0.00190265 2.05,0 z "/>
<path fill="rgb(241,240,234)" stroke="rgb(241,240,234)" d="M 2.36627,2.14373 l 0.0312579,0.396048 0.632903,0.912684 0.0248698,-0.315109 -0.68903,-0.993623 z "/>
<path fill="rgb(241,240,234)" stroke="rgb(241,240,234)" d="M 5.1,6.08593 l -0.931975,-1.34397 -0.243382,0 1.17536,1.69494 0,-0.350972 z "/>
<path fill="rgb(241,240,234)" stroke="rgb(241,240,234)" d="M 3.96425,4.54118 l 0,-0.0930734 -0.315538,-0.455025 -0.0461255,0.146531 -0.0956445,0 0.278468,0.401568 0.178841,0 z "/>
<path fill="rgb(241,240,234)" stroke="rgb(241,240,234)" d="M 1.15708,0.4 l -0.243382,8.88178e-16 0.50641,0.730275 0.243382,0 -0.50641,-0.730275 z "/>
<path fill="rgb(241,240,234)" stroke="rgb(241,240,234)" d="M 4.34292,7.1 l -1.15013,-1.65855 0.0759869,-0.241395 1.31752,1.89995 -0.243382,0 z "/>
<path fill="rgb(241,240,234)" stroke="rgb(241,240,234)" d="M 2.90609,5.028 l -0.198356,-0.286042 0.243382,0 0.124315,0.17927 -0.160915,0 -0.0084269,0.106772 z "/>
<path fill="rgb(241,240,234)" stroke="rgb(241,240,234)" d="M 0.4,1.41407 l -4.44089e-16,-0.350972 0.968721,1.39695 0.202321,0.642731 -1.17104,-1.68871 z "/>
<path fill="rgb(241,240,234)" stroke="rgb(241,240,234)" d="M 2.29003,4.13961 l 0.23377,0 -0.00123451,-0.0156417 0.289315,0.417209 -0.243382,0 -0.278468,-0.401568 z "/>
<path fill="rgb(241,240,234)" stroke="rgb(241,240,234)" d="M 2.59942,6.36973 l 0.100392,0 -0.114322,-1.44849 -0.442031,8.88178e-16 0.455961,1.44849 z "/>
<path fill="rgb(241,240,234)" stroke="rgb(241,240,234)" d="M 1.89742,4.13961 l 0.392613,0 -0.718987,-1.03682 0.326374,1.03682 z "/>
<path fill="rgb(241,240,234)" stroke="rgb(241,240,234)" d="M 1.57104,3.10279 l -0.202321,-0.642731 1.15384,1.66391 0.00123451,0.0156417 -0.23377,0 -0.718987,-1.03682 z "/>
<path fill="rgb(241,240,234)" stroke="rgb(241,240,234)" d="M 1.66349,1.13027 l 0.702781,1.01345 -0.0799862,-1.01345 -0.622795,-8.88178e-16 z "/>
<path fill="rgb(241,240,234)" stroke="rgb(241,240,234)" d="M 1.66349,1.13027 l -0.243382,0 0.977421,1.4095 -0.0312579,-0.396048 -0.702781,-1.01345 z "/>
<path fill="rgb(241,240,234)" stroke="rgb(241,240,234)" d="M 4.54987,1.13027 l -0.901161,2.8628 -0.593406,-0.855727 0.158407,-2.00708 1.33616,0 z "/>
<path fill="rgb(241,240,234)" stroke="rgb(241,240,234)" d="M 3.60258,4.13961 l 0.0461255,-0.146531 -0.593406,-0.855727 -0.0248698,0.315109 0.476506,0.68715 0.0956445,0 z "/>
<path fill="rgb(241,240,234)" stroke="rgb(241,240,234)" d="M 2.70773,4.74196 l -0.139234,-0.200784 0.243382,0 0.139234,0.200784 -0.243382,0 z "/>
<path fill="rgb(241,240,234)" stroke="rgb(241,240,234)" d="M 2.70773,4.74196 l -0.0326296,0 -1.67478,0 0,-0.200784 0.222298,0 0,-0.334633 0.313129,0 0,0.334633 1.03274,0 0.139234,0.200784 z "/>
<path fill="rgb(241,240,234)" stroke="rgb(241,240,234)" d="M 3.96425,4.54118 l -0.178841,0 0.139234,0.200784 0.243382,0 -0.203776,-0.293857 0,0.0930734 z "/>
<path fill="rgb(241,240,234)" stroke="rgb(241,240,234)" d="M 4.16802,4.74196 l -0.203776,-0.293857 0,-0.24156 0.313129,0 -8.88178e-16,0.334633 0.222298,0 -8.88178e-16,0.200784 -0.331651,-8.88178e-16 z "/>
<path fill="rgb(241,240,234)" stroke="rgb(241,240,234)" d="M 3.19279,5.44145 l -0.292206,0.928279 -0.100392,0 0.105895,-1.34172 0.286703,0.413444 z "/>
<path fill="rgb(241,240,234)" stroke="rgb(241,240,234)" d="M 3.19279,5.44145 l -0.286703,-0.413444 0.0084269,-0.106772 0.160915,0 0.193349,0.278821 -0.0759869,0.241395 z "/>
<path fill="rgb(241,240,234)" stroke="rgb(241,240,234)" d="M 2.75,7.3 l 0,-0.2 1.59292,0 0.243382,0 0.213701,0 0.0261467,-0.00114159 0.0259477,-0.00341608 0.0255513,-0.00566458 0.0249603,-0.00786996 0.0241794,-0.0100155 0.0232145,-0.0120847 0.0220729,-0.014062 0.0207634,-0.0159323 0.0192958,-0.0176813 0.0176813,-0.0192958 0.0159323,-0.0207634 0.014062,-0.0220729 0.0120847,-0.0232145 0.0100155,-0.0241794 0.00786996,-0.0249603 0.00566458,-0.0255513 0.00341608,-0.0259477 0.00114159,-0.0261467 0,-0.363102 0,-0.350972 -8.88178e-16,-5.38593 -0.00114159,-0.0261467 -0.00341608,-0.0259477 -0.00566458,-0.0255513 -0.00786996,-0.0249603 -0.0100155,-0.0241794 -0.0120847,-0.0232145 -0.014062,-0.0220729 -0.0159323,-0.0207634 -0.0176813,-0.0192958 -0.0192958,-0.0176813 -0.0207634,-0.0159323 -0.0220729,-0.014062 -0.0232145,-0.0120847 -0.0241794,-0.0100155 -0.0249603,-0.00786996 -0.0255513,-0.00566458 -0.0259477,-0.00341608 -0.0261467,-0.00114159 -2.05,0 0,-0.2 2.05,-8.88178e-16 0.0435779,0.00190265 0.0432462,0.00569347 0.0425854,0.00944096 0.0416005,0.0131166 0.0402991,0.0166924 0.0386909,0.0201412 0.0367882,0.0234367 0.0346056,0.0265538 0.0321596,0.0294688 0.0294688,0.0321596 0.0265538,0.0346056 0.0234367,0.0367882 0.0201412,0.0386909 0.0166924,0.0402991 0.0131166,0.0416005 0.00944096,0.0425854 0.00569347,0.0432462 0.00190265,0.0435779 0,6.1 -0.00190265,0.0435779 -0.00569347,0.0432462 -0.00944096,0.0425854 -0.0131166,0.0416005 -0.0166924,0.0402991 -0.0201412,0.0386909 -0.0234367,0.0367882 -0.0265538,0.0346056 -0.0294688,0.0321596 -0.0321596,0.0294688 -0.0346056,0.0265538 -0.0367882,0.0234367 -0.0386909,0.0201412 -0.0402991,0.0166924 -0.0416005,0.0131166 -0.0425854,0.00944096 -0.0432462,0.00569347 -0.0435779,0.00190265 -2.05,0 z "/>
<path fill="rgb(241,240,234)" stroke="rgb(241,240,234)" d="M 2.75,7.3 l -2.05,0 -0.0435779,-0.00190265 -0.0432462,-0.00569347 -0.0425854,-0.00944096 -0.0416005,-0.0131166 -0.0402991,-0.0166924 -0.0386909,-0.0201412 -0.0367882,-0.0234367 -0.0346056,-0.0265538 -0.0321596,-0.0294688 -0.0294688,-0.0321596 -0.0265538,-0.0346056 -0.0234367,-0.0367882 -0.0201412,-0.0386909 -0.0166924,-0.0402991 -0.0131166,-0.0416005 -0.00944096,-0.0425854 -0.00569347,-0.0432462 -0.00190265,-0.0435779 0,-6.1 0.00190265,-0.0435779 0.00569347,-0.0432462 0.00944096,-0.0425854 0.0131166,-0.0416005 0.0166924,-0.0402991 0.0201412,-0.0386909 0.0234367,-0.0367882 0.0265538,-0.0346056 0.0294688,-0.0321596 0.0321596,-0.0294688 0.0346056,-0.0265538 0.0367882,-0.0234367 0.0386909,-0.0201412 0.0402991,-0.0166924 0.0416005,-0.0131166 0.0425854,-0.00944096 0.0432462,-0.00569347 0.0435779,-0.00190265 2.05,-8.88178e-16 0,0.2 -1.59292,0 -0.243382,8.88178e-16 -0.213701,-8.88178e-16 -0.0261467,0.00114159 -0.0259477,0.00341608 -0.0255513,0.00566458 -0.0249603,0.00786996 -0.0241794,0.0100155 -0.0232145,0.0120847 -0.0220729,0.014062 -0.0207634,0.0159323 -0.0192958,0.0176813 -0.0176813,0.0192958 -0.0159323,0.0207634 -0.014062,0.0220729 -0.0120847,0.0232145 -0.0100155,0.0241794 -0.00786996,0.0249603 -0.00566458,0.0255513 -0.00341608,0.0259477 -0.00114159,0.0261467 -4.44089e-16,0.363102 4.44089e-16,0.350972 4.44089e-16,5.38593 0.00114159,0.0261467 0.00341608,0.0259477 0.00566458,0.0255513 0.00786996,0.0249603 0.0100155,0.0241794 0.0120847,0.0232145 0.014062,0.0220729 0.0159323,0.0207634 0.0176813,0.0192958 0.0192958,0.0176813 0.0207634,0.0159323 0.0220729,0.014062 0.0232145,0.0120847 0.0241794,0.0100155 0.0249603,0.00786996 0.0255513,0.00566458 0.0259477,0.00341608 0.0261467,0.00114159 2.05,0 0,0.2 z "/>
<path fill="rgb(187,30,16)" stroke="rgb(187,30,16)" d="M 0.4,1.0631 l 4.44089e-16,-0.363102 0.00114159,-0.0261467 0.00341608,-0.0259477 0.00566458,-0.0255513 0.00786996,-0.0249603 0.0100155,-0.0241794 0.0120847,-0.0232145 0.014062,-0.0220729 0.0159323,-0.0207634 0.0176813,-0.0192958 0.0192958,-0.0176813 0.0207634,-0.0159323 0.0220729,-0.014062 0.0232145,-0.0120847 0.0241794,-0.0100155 0.0249603,-0.00786996 0.0255513,-0.00566458 0.0259477,-0.00341608 0.0261467,-0.00114159 0.213701,8.88178e-16 0.50641,0.730275 -0.469982,0 0.418592,1.32978 -0.968721,-1.39695 z "/>
<path fill="rgb(187,30,16)" stroke="rgb(187,30,16)" d="M 1.42011,1.13027 l -0.469982,0 0.418592,1.32978 1.15384,1.66391 -0.125032,-1.58419 -0.977421,-1.4095 z "/>
<path fill="rgb(187,30,16)" stroke="rgb(187,30,16)" d="M 3.35654,4.92123 l -0.087768,0.278821 -0.193349,-0.278821 0.281117,0 z "/>
<path fill="rgb(187,30,16)" stroke="rgb(187,30,16)" d="M 2.39753,2.53978 l 0.632903,0.912684 -0.054233,0.68715 0.530739,0 0.278468,0.401568 -0.97353,0 -0.289315,-0.417209 -0.125032,-1.58419 z "/>
<path fill="rgb(187,30,16)" stroke="rgb(187,30,16)" d="M 3.03043,3.45246 l 0.476506,0.68715 -0.530739,0 0.054233,-0.68715 z "/>
<path fill="rgb(187,30,16)" stroke="rgb(187,30,16)" d="M 3.92464,4.74196 l -0.97353,0 -0.139234,-0.200784 0.97353,0 0.139234,0.200784 z "/>
<path fill="rgb(187,30,16)" stroke="rgb(187,30,16)" d="M 3.35654,4.92123 l -0.281117,0 -0.124315,-0.17927 0.97353,0 1.17536,1.69494 0,0.363102 -0.00114159,0.0261467 -0.00341608,0.0259477 -0.00566458,0.0255513 -0.00786996,0.0249603 -0.0100155,0.0241794 -0.0120847,0.0232145 -0.014062,0.0220729 -0.0159323,0.0207634 -0.0176813,0.0192958 -0.0192958,0.0176813 -0.0207634,0.0159323 -0.0220729,0.014062 -0.0232145,0.0120847 -0.0241794,0.0100155 -0.0249603,0.00786996 -0.0255513,0.00566458 -0.0259477,0.00341608 -0.0261467,0.00114159 -0.213701,0 -1.31752,-1.89995 0.087768,-0.278821 z "/>
</g></g></svg>
