<?xml version="1.0" encoding="UTF-8" standalone="no"?>
<!DOCTYPE svg PUBLIC "-//W3C//DTD SVG 1.1//EN" "http://www.w3.org/Graphics/SVG/1.1/DTD/svg11-flat.dtd"
[

]>
<svg xmlns="http://www.w3.org/2000/svg"  viewBox="-0.09375 -0.09375 7.6875 7.6875"><g fill="none" stroke="black" stroke-width="0.0125" transform="translate(0,7.5) scale(1, -1)">
<g id="Output" >
<path fill="rgb(241,240,234)" stroke="rgb(241,240,234)" d="M 1.62384,0.907122 l -0.0800831,0.0616906 -0.0782942,0.0639458 -0.0764417,0.0661491 1.50224,2.65109 -2.89126,-4.44089e-16 0.0142699,-0.326834 0.042701,-0.324347 0.0708072,-0.319391 0.0983745,-0.312004 0.125193,-0.302243 0.151059,-0.290182 0.175775,-0.275912 0.199154,-0.259542 0.221016,-0.241197 0.241197,-0.221016 0.259542,-0.199154 0.275912,-0.175775 0.290182,-0.151059 0.302243,-0.125193 0.312004,-0.0983745 0.319391,-0.0708072 0.324347,-0.042701 0.326834,-0.0142699 0.326834,0.0142699 0.324347,0.042701 0.319391,0.0708072 0.312004,0.0983745 0.302243,0.125193 0.290182,0.151059 0.275912,0.175775 0.259542,0.199154 0.241197,0.221016 0.221016,0.241197 0.199154,0.259542 0.175775,0.275912 0.151059,0.290182 0.125193,0.302243 0.0983745,0.312004 0.0708072,0.319391 0.042701,0.324347 0.0142699,0.326834 -2.89126,0 -1.91967,-3.38776 -0.0960294,0.0315816 -0.0950913,0.034303 -0.094076,0.0369966 1.86138,3.28488 -0.343494,0 -1.79035,-3.15953 -0.0880366,0.0466716 -0.086692,0.049124 -0.0852792,0.0515377 1.70686,3.0122 -0.343494,0 -1.61092,-2.84288 z "/>
<path fill="rgb(241,240,234)" stroke="rgb(241,240,234)" d="M 5.3686,6.90953 l 0.0880366,-0.0466716 0.086692,-0.049124 0.0852792,-0.0515377 -1.70686,-3.0122 0.343494,0 1.61092,2.84288 0.0800831,-0.0616906 0.0782942,-0.0639458 0.0764417,-0.0661491 -1.50224,-2.65109 2.89126,0 -0.0142699,0.326834 -0.042701,0.324347 -0.0708072,0.319391 -0.0983745,0.312004 -0.125193,0.302243 -0.151059,0.290182 -0.175775,0.275912 -0.199154,0.259542 -0.221016,0.241197 -0.241197,0.221016 -0.259542,0.199154 -0.275912,0.175775 -0.290182,0.151059 -0.302243,0.125193 -0.312004,0.0983745 -0.319391,0.0708072 -0.324347,0.042701 -0.326834,0.0142699 -0.326834,-0.0142699 -0.324347,-0.042701 -0.319391,-0.0708072 -0.312004,-0.0983745 -0.302243,-0.125193 -0.290182,-0.151059 -0.275912,-0.175775 -0.259542,-0.199154 -0.241197,-0.221016 -0.221016,-0.241197 -0.199154,-0.259542 -0.175775,-0.275912 -0.151059,-0.290182 -0.125193,-0.302243 -0.0983745,-0.312004 -0.0708072,-0.319391 -0.042701,-0.324347 -0.0142699,-0.326834 2.89126,4.44089e-16 1.91967,3.38776 0.0960294,-0.0315816 0.0950913,-0.034303 0.094076,-0.0369966 -1.86138,-3.28488 0.343494,0 1.79035,3.15953 z "/>
<path fill="rgb(142,146,145)" stroke="rgb(142,146,145)" d="M 4.98959,5.04105 l -0.0132465,0 -0.0993488,-0.00567708 -0.0946179,-0.0123003 -0.089887,-0.0198698 -0.0861023,-0.0283854 -0.0804252,-0.0350086 -0.0766405,-0.0435242 -0.0719096,-0.0510937 -0.0671787,-0.0577169 -0.063394,-0.0662325 -0.0586631,-0.073802 -0.00189236,-0.00378472 -0.047309,-0.0719096 -0.0425781,-0.0756943 -0.036901,-0.0794791 -0.0321701,-0.0832638 -0.0274392,-0.0870485 -0.0227083,-0.0908332 -0.0170312,-0.0946179 -0.0132465,-0.0984026 -0.00662325,-0.102187 -0.00283854,-0.105972 0,-0.00756943 0.00283854,-0.105026 0.00756943,-0.102187 0.0123003,-0.0984026 0.0179774,-0.0946179 0.0217621,-0.0908332 0.0274392,-0.0870485 0.0321701,-0.0832638 0.036901,-0.0794791 0.0416319,-0.0756943 0.047309,-0.0719096 0.0123003,-0.0189236 0.0586631,-0.0719096 0.0624478,-0.0652864 0.0681249,-0.0577169 0.0719096,-0.0492013 0.0766405,-0.0425781 0.0813714,-0.0340625 0.0870485,-0.0274392 0.089887,-0.0189236 0.0955641,-0.0113542 0.100295,-0.00378472 0.0331163,0 0.0984026,0.00662325 0.0936717,0.0141927 0.0889408,0.0217621 0.08421,0.0293316 0.0794791,0.0378472 0.0747482,0.0444704 0.0700173,0.052986 0.0662325,0.0605555 0.0605555,0.0681249 0.0558246,0.0756943 -0.805199,0.036901 -0.0643402,0.00283854 -0.0927256,0.016085 -0.08421,0.0293316 -0.0756943,0.0444704 -0.0671787,0.0577169 -0.0596093,0.0719096 -0.00378472,0.0047309 -0.0416319,0.0681249 -0.0350086,0.0747482 -0.0293316,0.0832638 -0.0217621,0.089887 -0.016085,0.0965103 -0.00946179,0.105026 -0.00378472,0.111649 0,0.0170312 0.0047309,0.10408 0.0123003,0.0984026 0.0189236,0.0927256 0.0255468,0.0870485 0.0331163,0.0823176 0.0406857,0.0756943 0.0151389,0.0255468 0.0586631,0.0766405 0.0643402,0.063394 0.0719096,0.0482551 0.0794791,0.0350086 0.0861023,0.0208159 0.0936717,0.00756943 0.801414,0.0435242 -0.0113542,0.016085 -0.0577169,0.0728558 -0.0624478,0.0662325 -0.0671787,0.0567708 -0.0719096,0.0501475 -0.0766405,0.0425781 -0.0813714,0.0350086 -0.0861023,0.026493 -0.0908332,0.0189236 -0.0955641,0.0123003 -0.100295,0.00378472 z "/>
<path fill="rgb(142,146,145)" stroke="rgb(142,146,145)" d="M 5.791,4.63987 l -0.801414,-0.0435242 0.0605555,-0.00283854 0.0927256,-0.016085 0.08421,-0.0293316 0.0756943,-0.0444704 0.0681249,-0.0577169 0.0596093,-0.0719096 0.0387933,-0.0615017 0.0359548,-0.0747482 0.0293316,-0.0823176 0.0227083,-0.0889408 0.0170312,-0.0965103 0.00946179,-0.10408 0.00283854,-0.107864 -0.00283854,-0.0993488 -0.00946179,-0.102187 -0.016085,-0.0955641 -0.0227083,-0.089887 -0.0293316,-0.08421 -0.036901,-0.0766405 -0.0425781,-0.0719096 -0.0378472,-0.0510937 -0.0643402,-0.0652864 -0.0719096,-0.0510937 -0.0804252,-0.036901 -0.0870485,-0.0217621 -0.0955641,-0.00662325 0.805199,-0.036901 0.0454166,0.0719096 0.0406857,0.0766405 0.0359548,0.0804252 0.0312239,0.0832638 0.026493,0.0879947 0.0217621,0.0908332 0.0170312,0.0946179 0.0123003,0.0993488 0.00662325,0.102187 0.00283854,0.105972 -0.00189236,0.0908332 -0.00662325,0.102187 -0.0123003,0.0984026 -0.0170312,0.0946179 -0.0217621,0.0917794 -0.026493,0.0870485 -0.0321701,0.08421 -0.036901,0.0794791 -0.0416319,0.0766405 -0.047309,0.0728558 z "/>
<path fill="rgb(142,146,145)" stroke="rgb(142,146,145)" d="M 3.24957,5.00037 l -1.66811,0 -0.0766405,-1.17326 0.928202,-0.0217621 0.0605555,-0.000946179 0.107864,-0.010408 0.0927256,-0.0198698 0.0775867,-0.0302777 0.0624478,-0.0406857 0.0189236,-0.016085 0.0615017,-0.0671787 0.0444704,-0.0766405 0.026493,-0.0861023 0.00851561,-0.0965103 0,-0.0179774 -0.0123003,-0.0955641 -0.0312239,-0.08421 -0.0492013,-0.0719096 -0.0671787,-0.0615017 -0.00189236,-0.000946179 -0.0690711,-0.0416319 -0.0785329,-0.0331163 -0.089887,-0.0227083 -0.0993488,-0.0141927 -0.109757,-0.0047309 0.885624,-0.0652864 0.0510937,0.0747482 0.0416319,0.0794791 0.0321701,0.0832638 0.0236545,0.0879947 0.0141927,0.0917794 0.0047309,0.0965103 -0.00378472,0.0794791 -0.0113542,0.0946179 -0.0208159,0.0889408 -0.0302777,0.0851561 -0.0387933,0.0813714 -0.0482551,0.0756943 -0.0577169,0.0719096 -0.0662325,0.0681249 -0.0151389,0.0141927 -0.0709634,0.0558246 -0.0747482,0.0492013 -0.0794791,0.0416319 -0.0832638,0.0340625 -0.860077,0.00189236 0.0255468,0.35671 1.23476,0 0.0113542,0.44092 z "/>
<path fill="rgb(142,146,145)" stroke="rgb(142,146,145)" d="M 2.45856,4.26046 l -0.00756943,0 -0.0832638,-0.00189236 -0.0889408,-0.00756943 -0.0946179,-0.0113542 -0.100295,-0.016085 -0.105972,-0.0208159 0.860077,-0.00189236 -0.0879947,0.026493 -0.0927256,0.0189236 -0.0974565,0.010408 -0.101241,0.00378472 z "/>
<path fill="rgb(142,146,145)" stroke="rgb(142,146,145)" d="M 1.50481,3.82711 l 0.447543,-0.11638 0.0189236,0.00756943 0.0927256,0.0312239 0.0917794,0.0246007 0.0927256,0.0170312 0.0927256,0.010408 0.0917794,0.00378472 -0.928202,0.0217621 z "/>
<path fill="rgb(142,146,145)" stroke="rgb(142,146,145)" d="M 1.66093,3.11274 l -0.236545,-0.374687 0.0671787,-0.0397395 0.0870485,-0.0454166 0.0870485,-0.0416319 0.0879947,-0.0359548 0.0879947,-0.0312239 0.0889408,-0.026493 0.089887,-0.0217621 0.0908332,-0.0170312 0.0908332,-0.0123003 0.0917794,-0.00662325 0.0917794,-0.00283854 0.0804252,0.00189236 0.100295,0.00851561 0.0965103,0.0151389 0.0917794,0.0217621 0.0861023,0.0283854 0.0832638,0.0350086 0.0775867,0.0416319 0.0728558,0.0482551 0.0690711,0.0548784 0.0671787,0.063394 0.0605555,0.0709634 -0.885624,0.0652864 -0.00851561,0 -0.0946179,0.00378472 -0.0936717,0.010408 -0.0927256,0.0151389 -0.089887,0.0227083 -0.0889408,0.0274392 -0.0870485,0.0340625 -0.0851561,0.0406857 -0.08421,0.0463628 z "/>
<path fill="rgb(42,41,42)" stroke="rgb(42,41,42)" d="M 2.68906,0.362241 l 1.91967,3.38776 1.50224,2.65109 -0.0764417,0.0661491 -0.0782942,0.0639458 -0.0800831,0.0616906 -1.61092,-2.84288 -1.86138,-3.28488 0.094076,-0.0369966 0.0950913,-0.034303 0.0960294,-0.0315816 z "/>
<path fill="rgb(42,41,42)" stroke="rgb(42,41,42)" d="M 5.3686,6.90953 l -1.79035,-3.15953 -1.70686,-3.0122 0.0852792,-0.0515377 0.086692,-0.049124 0.0880366,-0.0466716 1.79035,3.15953 1.70686,3.0122 -0.0852792,0.0515377 -0.086692,0.049124 -0.0880366,0.0466716 z "/>
<path fill="rgb(42,41,42)" stroke="rgb(42,41,42)" d="M 2.89126,3.75 l -1.50224,-2.65109 0.0764417,-0.0661491 0.0782942,-0.0639458 0.0800831,-0.0616906 1.61092,2.84288 1.86138,3.28488 -0.094076,0.0369966 -0.0950913,0.034303 -0.0960294,0.0315816 -1.91967,-3.38776 z "/>
</g></g></svg>
