<?xml version="1.0" encoding="UTF-8" standalone="no"?>
<!DOCTYPE svg PUBLIC "-//W3C//DTD SVG 1.1//EN" "http://www.w3.org/Graphics/SVG/1.1/DTD/svg11-flat.dtd"
[

]>
<svg xmlns="http://www.w3.org/2000/svg"  viewBox="-0.09375 -0.09375 7.6875 7.6875"><g fill="none" stroke="black" stroke-width="0.0125" transform="translate(0,7.5) scale(1, -1)">
<g id="Output" >
<path fill="rgb(241,240,234)" stroke="rgb(241,240,234)" d="M 4.19842,3.39302 l -0.404406,0 -1.00459,1.11203 -0.0884653,-0.259046 0.0637159,-0.034139 0.0605858,-0.0394278 0.0570178,-0.0444316 0.0530376,-0.0491142 0.048674,-0.0534418 0.0439587,-0.0573832 0.0389255,-0.0609097 0.0336111,-0.063996 0.0280536,-0.0666197 0.0222934,-0.0687619 0.0163721,-0.070407 0.0103324,-0.0715432 0.00421802,-0.0721623 -0.00192684,-0.0722598 -0.00805778,-0.071835 -0.0141305,-0.0708909 -0.020101,-0.0694344 -0.0259263,-0.0674761 -0.0315641,-0.06503 -0.0383525,-0.0641837 -0.0438699,-0.0605466 -0.0490446,-0.0564365 -0.0538363,-0.0518856 -0.0582073,-0.0469294 -0.0621237,-0.0416066 -0.0655548,-0.0359587 -0.0684738,-0.03003 -0.0708579,-0.0238667 -0.0726885,-0.0175169 -0.0739513,-0.0110303 -0.0746364,-0.00445755 -0.0747385,0.00215003 -0.0742567,0.00874081 -0.0731949,0.0152633 -0.0715613,0.0216666 -0.0693687,0.0279006 -0.0666342,0.0339167 -0.0633792,0.0396678 -0.0596291,0.0451091 -0.0562989,0.0510488 -0.0515188,0.0558691 -0.0463276,0.0602437 -0.0407667,0.0641376 -0.0348805,0.0675196 -0.028716,0.0703629 -0.0223223,0.0726448 -0.0157505,0.074347 -0.00905306,0.0754559 -0.00228337,0.0759627 -0.376134,0.0076384 0.0316787,-0.229106 0.0515349,-0.225472 0.0709986,-0.220119 0.0899214,-0.21309 0.108159,-0.204438 0.125573,-0.194228 0.142031,-0.182539 0.157406,-0.16946 0.171583,-0.155089 0.184452,-0.139538 0.195916,-0.122923 0.205888,-0.105372 0.214292,-0.0870182 0.221063,-0.0680016 0.226151,-0.0484671 0.229516,-0.0285634 0.231132,-0.00844204 0.230988,0.0117436 0.229084,0.0318398 0.225435,0.0516934 0.220069,0.0711533 0.213027,0.0900711 0.204362,0.108303 0.19414,0.12571 0.182439,0.142159 0.169349,0.157525 0.154969,0.171691 0.139408,0.18455 0.122785,0.196003 0.105227,0.205962 0.0868676,0.214353 -0.445864,0.229561 -0.0361267,-0.06307 -0.0414273,-0.0597222 -0.0464197,-0.0559301 -0.0510667,-0.0517219 -0.0553338,-0.0471289 -0.0591892,-0.0421852 -0.0626043,-0.0369277 -1.08358e-13,-5.77316e-14 -0.0682116,-0.0325747 -0.0708242,-0.0264171 -0.0728823,-0.0200527 -0.0743696,-0.0135312 -0.0752747,-0.00690371 -0.0755903,-0.00022221 -0.075314,0.00646103 -0.0744479,0.0130937 -0.0729989,0.0196238 -0.0709783,0.0260003 -0.0684019,0.0321731 -0.0652899,0.0380941 -0.0616667,0.0437167 -0.0575606,0.0489971 -0.0530038,0.0538938 -0.0480319,0.0583684 -0.0426839,0.062386 -0.0370017,0.0659152 -0.0310298,0.0689281 -0.0248149,0.0714014 -0.0184057,0.0733155 -0.0118523,0.0746556 z "/>
<path fill="rgb(241,240,234)" stroke="rgb(241,240,234)" d="M 4.51433,4.7262 l 0.233748,-0.454898 0.0712259,0.0230844 0.0729786,0.0167375 0.0741669,0.0102611 0.0747816,0.00370535 0.074818,-0.00287906 0.0742757,-0.0094412 0.073159,-0.0159303 0.0714765,-0.0222963 0.0692413,-0.0284897 0.0664705,-0.0344629 0.0631857,-0.0401695 0.0594122,-0.0455655 0.0551792,-0.0506091 0.0505195,-0.0552612 0.0461149,-0.0604757 0.0404746,-0.064387 0.0345047,-0.067774 0.0282538,-0.0706089 0.0217727,-0.0728686 0.0151143,-0.0745349 0.00833278,-0.075594 0.00148339,-0.0760374 -0.0053781,-0.0758615 -0.0121958,-0.0750676 -0.0189141,-0.0736624 -0.0254784,-0.0716571 -0.0318351,-0.0690682 0.445864,-0.229561 0.0665347,0.216081 0.0478737,0.220966 0.0288644,0.224242 0.00964485,0.225886 -0.0100841,0.230963 -0.0301754,0.229205 -0.0500371,0.225703 -0.069518,0.220483 -0.0884698,0.213585 -0.106748,0.205062 -0.124214,0.194978 -0.140735,0.18341 -0.156185,0.170446 -0.170446,0.156185 -0.18341,0.140735 -0.194978,0.124214 -0.205062,0.106748 -0.213585,0.0884698 -0.220483,0.069518 -0.225703,0.0500371 -0.229205,0.0301754 -0.230963,0.0100841 -0.230963,-0.0100841 -0.229205,-0.0301754 -0.225703,-0.0500371 -0.220483,-0.069518 -0.213585,-0.0884698 -0.205062,-0.106748 -0.194978,-0.124214 -0.18341,-0.140735 -0.170446,-0.156185 -0.156185,-0.170446 -0.140735,-0.18341 -0.124214,-0.194978 -0.106748,-0.205062 -0.0884698,-0.213585 -0.069518,-0.220483 -0.0500371,-0.225703 -0.0301754,-0.229205 -0.0100841,-0.230963 0.00129376,-0.0827963 0.00388,-0.0827155 0.00646246,-0.0825539 0.376134,-0.0076384 0.00415346,0.0724319 0.0103095,0.0718147 0.0163906,0.0706752 0.0223525,0.0690217 0.0281519,0.0668663 0.0337465,0.0642247 0.0390957,0.061116 0.0441606,0.0575628 0.0489044,0.053591 0.0532925,0.0492295 0.057293,0.04451 0.0608769,0.0394669 0.0640182,0.0341367 0.0666938,0.0285582 0.0688844,0.0227721 0.0705742,0.0168204 0.0717506,0.0107463 0.0724053,0.00459411 0.0725335,-0.00159149 0.0721341,-0.00776553 0.0712102,-0.0138831 0.303266,0.865577 0.0080646,0.0241637 0.0101113,0.0233813 0.0120832,0.0224258 0.0139658,0.0213044 0.0157449,0.0200255 0.0174076,0.0185983 0.0189415,0.0170335 0.0203353,0.0153427 0.0215785,0.0135384 0.0226622,0.0116339 0.0235781,0.00964335 0.0243196,0.00758143 0.0248812,0.00546342 0.0252586,0.00330499 0.0254492,0.0011221 0.252683,0.000263155 0,-0.176879 -0.22115,0 -0.0116448,0.0008845 -0.0116774,-0.000151634 -0.011618,-0.00118657 -0.011467,-0.00221216 -0.0112256,-0.00322032 -0.0108958,-0.00420311 -0.0104802,-0.00515277 -0.00998193,-0.00606184 -0.00940504,-0.00692314 -0.00875405,-0.00772989 -0.00803409,-0.00847574 -0.00725082,-0.0091548 -0.00641042,-0.00976172 -0.00551951,-0.0102917 -0.0045851,-0.0107406 -0.101148,-0.26948 1.46583,0 0.0821666,0.176931 -0.252721,0 -0.00771026,0.000336637 -0.00765158,0.00100735 -0.00753467,0.0016704 -0.00736041,0.00232073 -0.00713014,0.0029534 -0.0068456,0.00356359 -0.00650896,0.00414667 -0.00612279,0.00469818 -0.00569002,0.00521394 -0.00521394,0.00569002 -0.00469818,0.00612279 -0.00414667,0.00650896 -0.00356359,0.0068456 -0.0029534,0.00713014 -0.00232073,0.00736041 -0.0016704,0.00753467 -0.00100735,0.00765158 -0.000336637,0.00771026 0.000336637,0.00771026 0.00100735,0.00765158 0.0016704,0.00753467 0.00232073,0.00736041 0.0029534,0.00713014 0.00356359,0.0068456 0.00414667,0.00650896 0.00469818,0.00612279 0.00521394,0.00569002 0.00569002,0.00521394 0.00612279,0.00469818 0.00650896,0.00414667 0.0068456,0.00356359 0.00713014,0.0029534 0.00736041,0.00232073 0.00753467,0.0016704 0.00765158,0.00100735 0.00771026,0.000336637 0.650751,0 0,-0.176931 -0.208502,0 -0.138984,-0.30959 z "/>
<path fill="rgb(241,240,234)" stroke="rgb(241,240,234)" d="M 2.63779,4.0754 l -0.214826,-0.61918 -0.000102004,-0.000419308 -0.000104034,-0.000418809 -0.000106062,-0.0004183 -0.00225642,-0.00744172 -0.00289678,-0.0072166 -0.00351506,-0.00693649 -0.00410657,-0.00660354 -0.00466679,-0.00622027 -0.00519145,-0.0057896 -0.00567655,-0.00531483 -0.00611841,-0.00479956 -0.00651364,-0.00424772 -0.00685925,-0.00366351 -0.00715259,-0.00305139 -0.00739144,-0.00241603 -0.00757397,-0.00176225 -0.0076988,-0.00109505 -0.00776496,-0.000419506 -0.00777196,0.000259236 -0.00771975,0.000936002 -0.00760872,0.00160564 -0.00743971,0.00226304 -0.00721402,0.0029032 -0.00693336,0.00352124 -0.00659988,0.00411244 -0.00621611,0.00467232 -0.00578498,0.0051966 -0.00530977,0.00568128 -0.00479411,0.00612267 -0.00424192,0.00651742 -0.00365741,0.00686251 -0.00304503,0.00715531 -0.00240945,0.00739359 -0.00175551,0.00757554 -0.0010882,0.00769977 -0.000412595,0.00776533 0.000266153,0.00777173 0.000942873,0.00771891 0.00161241,0.00760728 0.00226966,0.00743769 0.22115,0.625505 -0.0558211,0.00985214 -0.0564571,0.00506469 -0.0566833,0.000240468 -0.0564981,-0.0045855 -0.0559027,-0.00937818 -0.0549014,-0.0141028 -0.0535017,-0.018725 -0.0517136,-0.0232113 -0.04955,-0.0275291 -0.0470268,-0.0316471 -0.0441622,-0.0355353 -0.040977,-0.0391656 -0.0374944,-0.0425115 -0.0337395,-0.0455489 -0.0297398,-0.0482556 -0.0255242,-0.050612 -0.0211232,-0.052601 -0.016569,-0.0542082 -0.0118944,-0.0554218 -0.00713355,-0.0562332 -0.00232088,-0.0566363 -8.88178e-16,-1.25677e-13 0.00261954,-0.0581109 0.00764625,-0.0576652 0.0126154,-0.0567855 0.0174896,-0.0554784 0.0222322,-0.0537538 0.0268075,-0.0516246 0.031181,-0.0491069 0.0353198,-0.0462196 0.0391928,-0.0429844 0.0427709,-0.0394258 0.046027,-0.0355704 0.0489368,-0.0314473 0.0514782,-0.0270875 0.0536322,-0.0225239 0.0553826,-0.0177908 0.0567161,-0.0129237 0.0576228,-0.00795942 0.0580958,-0.0029352 0.0581316,0.0021111 0.0577299,0.00714151 0.0568937,0.0121182 0.0556293,0.0170036 0.0539462,0.0217611 0.0518571,0.0263548 0.0493778,0.0307502 0.0465268,0.0349141 0.0429188,0.0384366 0.0394414,0.0419974 0.0356696,0.0452447 0.0316316,0.0481544 0.0273576,0.0507047 0.0228794,0.0528766 0.0182305,0.0546539 0.0134455,0.0560234 0.00856016,0.0569748 0.00361096,0.057501 -0.00136518,0.0575981 -0.00633114,0.0572653 -0.0112499,0.0565052 -0.0160846,0.0553235 -0.0207993,0.0537288 -0.0253588,0.0517333 -0.0297291,0.0493516 -0.0338775,0.0466017 -0.0377731,0.043504 -0.0413868,0.0400816 -0.0446916,0.0363601 -0.047663,0.0323673 -0.0502786,0.0281329 z "/>
<path fill="rgb(241,240,234)" stroke="rgb(241,240,234)" d="M 2.86524,4.6883 l 0.954068,-1.06148 0.480196,1.06148 -1.43426,0 z "/>
<path fill="rgb(241,240,234)" stroke="rgb(241,240,234)" d="M 3.98359,3.56995 l 0.214826,0 0.00978463,0.0688076 0.0154991,0.0677495 0.0211052,0.0662178 0.0265637,0.064223 0.0318364,0.0617792 0.0368866,0.0589033 0.0416788,0.0556156 0.0461796,0.051939 0.0503575,0.0478993 0.0541833,0.0435246 0.0576302,0.0388456 -0.170555,0.328563 -0.435976,-0.954068 z "/>
<path fill="rgb(241,240,234)" stroke="rgb(241,240,234)" d="M 4.67229,4.03118 l -0.0455466,-0.0328918 -0.0425855,-0.0366447 -0.0393161,-0.0401323 -0.0357621,-0.0433294 -0.0319491,-0.0462127 -0.0279048,-0.0487615 -0.0236585,-0.0509572 -0.0192408,-0.052784 -0.0146839,-0.0542286 -0.0100207,-0.0552806 0.53074,0 -0.240072,0.461223 z "/>
<path fill="rgb(241,240,234)" stroke="rgb(241,240,234)" d="M 4.38162,3.39302 l 0.0104909,-0.0590926 0.0157487,-0.0579135 0.0208795,-0.0562675 0.0258421,-0.054168 0.0305963,-0.0516319 0.035104,-0.0486796 0.0393286,-0.0453349 0.0432362,-0.0416247 0.0467954,-0.0375791 0.0499773,-0.0332305 0.0527563,-0.028614 0.0551101,-0.0237669 0.0570197,-0.0187282 0.0584696,-0.0135386 0.0594483,-0.00823981 0.0594402,-0.0028799 0.0594614,0.00240386 0.0590138,0.00766866 0.0581009,0.012873 0.0567301,0.0179759 0.054912,0.022937 0.052661,0.0277174 0.0499949,0.0322792 0.0469346,0.0365865 0.0435044,0.0406055 0.0397311,0.0443043 0.0356447,0.0476539 0.0312773,0.0506277 0.0266632,0.0532025 0.021839,0.0553578 0.0168427,0.0570768 0.0117135,0.0583458 0.00632703,0.0568139 0.00144533,0.0571468 -0.00344695,0.0570611 -0.00831399,0.0565573 -0.0131201,0.0556391 -0.0178301,0.0543133 -0.0224095,0.0525896 -0.0268246,0.0504806 -0.0310433,0.0480017 -0.0350345,0.0451711 -0.038769,0.0420096 -0.0422195,0.0385404 -0.0453607,0.0347887 -0.0481695,0.0307822 -0.0506255,0.0265501 -0.0527105,0.0221236 -0.0544093,0.0175349 -0.0557095,0.0128178 -0.0566016,0.00800675 -0.057079,0.00313705 -0.0571381,-0.00175563 -0.0567787,-0.00663544 -0.0560033,-0.0114666 -0.0548175,-0.0162138 0.303266,-0.593934 5.32907e-15,-8.88178e-15 0.00318831,-0.00665274 0.00260606,-0.00690165 0.00200462,-0.00709971 0.0013884,-0.00724546 0.000761957,-0.00733783 0.0001299,-0.00737614 -0.000503114,-0.00736011 -0.00113242,-0.00728985 -0.00175339,-0.00716589 -0.00236143,-0.00698913 -0.00295208,-0.00676088 -0.00352098,-0.00648282 -0.00406394,-0.006157 -0.00457696,-0.00578582 -0.00505626,-0.00537202 -0.00549831,-0.00491863 -0.00589985,-0.00442901 -0.00625792,-0.00390676 -0.00656989,-0.00335572 -0.00683346,-0.00277996 -0.00704668,-0.00218372 -0.00720798,-0.0015714 -0.00731619,-0.000947493 -0.00737049,-0.000316609 -0.676049,0 z "/>
<path fill="rgb(241,240,234)" stroke="rgb(241,240,234)" d="M 0.2,3.75 l 0.0135088,-0.309403 0.0404237,-0.307048 0.0670308,-0.302357 0.0931279,-0.295364 0.118516,-0.286123 0.143002,-0.274705 0.1664,-0.261196 0.188532,-0.2457 0.209229,-0.228333 0.228333,-0.209229 0.2457,-0.188532 0.261196,-0.1664 0.274705,-0.143002 0.286123,-0.118516 0.295364,-0.0931279 0.302357,-0.0670308 0.307048,-0.0404237 0.309403,-0.0135088 0.309403,0.0135088 0.307048,0.0404237 0.302357,0.0670308 0.295364,0.0931279 0.286123,0.118516 0.274705,0.143002 0.261196,0.1664 0.2457,0.188532 0.228333,0.209229 0.209229,0.228333 0.188532,0.2457 0.1664,0.261196 0.143002,0.274705 0.118516,0.286123 0.0931279,0.295364 0.0670308,0.302357 0.0404237,0.307048 0.0135088,0.309403 -0.2,0 -0.0127478,-0.291972 -0.0381463,-0.28975 -0.0632545,-0.285322 -0.0878812,-0.278724 -0.111839,-0.270004 -0.134946,-0.259229 -0.157026,-0.246481 -0.17791,-0.231857 -0.197441,-0.215469 -0.215469,-0.197441 -0.231857,-0.17791 -0.246481,-0.157026 -0.259229,-0.134946 -0.270004,-0.111839 -0.278724,-0.0878812 -0.285322,-0.0632545 -0.28975,-0.0381463 -0.291972,-0.0127478 -0.291972,0.0127478 -0.28975,0.0381463 -0.285322,0.0632545 -0.278724,0.0878812 -0.270004,0.111839 -0.259229,0.134946 -0.246481,0.157026 -0.231857,0.17791 -0.215469,0.197441 -0.197441,0.215469 -0.17791,0.231857 -0.157026,0.246481 -0.134946,0.259229 -0.111839,0.270004 -0.0878812,0.278724 -0.0632545,0.285322 -0.0381463,0.28975 -0.0127478,0.291972 -0.2,0 z "/>
<path fill="rgb(241,240,234)" stroke="rgb(241,240,234)" d="M 0.2,3.75 l 0.2,0 0.0127478,0.291972 0.0381463,0.28975 0.0632545,0.285322 0.0878812,0.278724 0.111839,0.270004 0.134946,0.259229 0.157026,0.246481 0.17791,0.231857 0.197441,0.215469 0.215469,0.197441 0.231857,0.17791 0.246481,0.157026 0.259229,0.134946 0.270004,0.111839 0.278724,0.0878812 0.285322,0.0632545 0.28975,0.0381463 0.291972,0.0127478 0.291972,-0.0127478 0.28975,-0.0381463 0.285322,-0.0632545 0.278724,-0.0878812 0.270004,-0.111839 0.259229,-0.134946 0.246481,-0.157026 0.231857,-0.17791 0.215469,-0.197441 0.197441,-0.215469 0.17791,-0.231857 0.157026,-0.246481 0.134946,-0.259229 0.111839,-0.270004 0.0878812,-0.278724 0.0632545,-0.285322 0.0381463,-0.28975 0.0127478,-0.291972 0.2,0 -0.0135088,0.309403 -0.0404237,0.307048 -0.0670308,0.302357 -0.0931279,0.295364 -0.118516,0.286123 -0.143002,0.274705 -0.1664,0.261196 -0.188532,0.2457 -0.209229,0.228333 -0.228333,0.209229 -0.2457,0.188532 -0.261196,0.1664 -0.274705,0.143002 -0.286123,0.118516 -0.295364,0.0931279 -0.302357,0.0670308 -0.307048,0.0404237 -0.309403,0.0135088 -0.309403,-0.0135088 -0.307048,-0.0404237 -0.302357,-0.0670308 -0.295364,-0.0931279 -0.286123,-0.118516 -0.274705,-0.143002 -0.261196,-0.1664 -0.2457,-0.188532 -0.228333,-0.209229 -0.209229,-0.228333 -0.188532,-0.2457 -0.1664,-0.261196 -0.143002,-0.274705 -0.118516,-0.286123 -0.0931279,-0.295364 -0.0670308,-0.302357 -0.0404237,-0.307048 -0.0135088,-0.309403 z "/>
<path fill="rgb(187,30,16)" stroke="rgb(187,30,16)" d="M 0.2,3.75 l -0.2,0 0.0142699,-0.326834 0.042701,-0.324347 0.0708072,-0.319391 0.0983745,-0.312004 0.125193,-0.302243 0.151059,-0.290182 0.175775,-0.275912 0.199154,-0.259542 0.221016,-0.241197 0.241197,-0.221016 0.259542,-0.199154 0.275912,-0.175775 0.290182,-0.151059 0.302243,-0.125193 0.312004,-0.0983745 0.319391,-0.0708072 0.324347,-0.042701 0.326834,-0.0142699 0.326834,0.0142699 0.324347,0.042701 0.319391,0.0708072 0.312004,0.0983745 0.302243,0.125193 0.290182,0.151059 0.275912,0.175775 0.259542,0.199154 0.241197,0.221016 0.221016,0.241197 0.199154,0.259542 0.175775,0.275912 0.151059,0.290182 0.125193,0.302243 0.0983745,0.312004 0.0708072,0.319391 0.042701,0.324347 0.0142699,0.326834 -0.2,0 -0.0135088,-0.309403 -0.0404237,-0.307048 -0.0670308,-0.302357 -0.0931279,-0.295364 -0.118516,-0.286123 -0.143002,-0.274705 -0.1664,-0.261196 -0.188532,-0.2457 -0.209229,-0.228333 -0.228333,-0.209229 -0.2457,-0.188532 -0.261196,-0.1664 -0.274705,-0.143002 -0.286123,-0.118516 -0.295364,-0.0931279 -0.302357,-0.0670308 -0.307048,-0.0404237 -0.309403,-0.0135088 -0.309403,0.0135088 -0.307048,0.0404237 -0.302357,0.0670308 -0.295364,0.0931279 -0.286123,0.118516 -0.274705,0.143002 -0.261196,0.1664 -0.2457,0.188532 -0.228333,0.209229 -0.209229,0.228333 -0.188532,0.2457 -0.1664,0.261196 -0.143002,0.274705 -0.118516,0.286123 -0.0931279,0.295364 -0.0670308,0.302357 -0.0404237,0.307048 -0.0135088,0.309403 z "/>
<path fill="rgb(187,30,16)" stroke="rgb(187,30,16)" d="M 0.2,3.75 l 0.0135088,0.309403 0.0404237,0.307048 0.0670308,0.302357 0.0931279,0.295364 0.118516,0.286123 0.143002,0.274705 0.1664,0.261196 0.188532,0.2457 0.209229,0.228333 0.228333,0.209229 0.2457,0.188532 0.261196,0.1664 0.274705,0.143002 0.286123,0.118516 0.295364,0.0931279 0.302357,0.0670308 0.307048,0.0404237 0.309403,0.0135088 0.309403,-0.0135088 0.307048,-0.0404237 0.302357,-0.0670308 0.295364,-0.0931279 0.286123,-0.118516 0.274705,-0.143002 0.261196,-0.1664 0.2457,-0.188532 0.228333,-0.209229 0.209229,-0.228333 0.188532,-0.2457 0.1664,-0.261196 0.143002,-0.274705 0.118516,-0.286123 0.0931279,-0.295364 0.0670308,-0.302357 0.0404237,-0.307048 0.0135088,-0.309403 0.2,0 -0.0142699,0.326834 -0.042701,0.324347 -0.0708072,0.319391 -0.0983745,0.312004 -0.125193,0.302243 -0.151059,0.290182 -0.175775,0.275912 -0.199154,0.259542 -0.221016,0.241197 -0.241197,0.221016 -0.259542,0.199154 -0.275912,0.175775 -0.290182,0.151059 -0.302243,0.125193 -0.312004,0.0983745 -0.319391,0.0708072 -0.324347,0.042701 -0.326834,0.0142699 -0.326834,-0.0142699 -0.324347,-0.042701 -0.319391,-0.0708072 -0.312004,-0.0983745 -0.302243,-0.125193 -0.290182,-0.151059 -0.275912,-0.175775 -0.259542,-0.199154 -0.241197,-0.221016 -0.221016,-0.241197 -0.199154,-0.259542 -0.175775,-0.275912 -0.151059,-0.290182 -0.125193,-0.302243 -0.0983745,-0.312004 -0.0708072,-0.319391 -0.042701,-0.324347 -0.0142699,-0.326834 0.2,0 z "/>
<path fill="rgb(187,30,16)" stroke="rgb(187,30,16)" d="M 7.1,3.75 l -0.7,0 -0.00964485,-0.225886 -0.0288644,-0.224242 -0.0478737,-0.220966 -0.0665347,-0.216081 -0.0868676,-0.214353 -0.105227,-0.205962 -0.122785,-0.196003 -0.139408,-0.18455 -0.154969,-0.171691 -0.169349,-0.157525 -0.182439,-0.142159 -0.19414,-0.12571 -0.204362,-0.108303 -0.213027,-0.0900711 -0.220069,-0.0711533 -0.225435,-0.0516934 -0.229084,-0.0318398 -0.230988,-0.0117436 -0.231132,0.00844204 -0.229516,0.0285634 -0.226151,0.0484671 -0.221063,0.0680016 -0.214292,0.0870182 -0.205888,0.105372 -0.195916,0.122923 -0.184452,0.139538 -0.171583,0.155089 -0.157406,0.16946 -0.142031,0.182539 -0.125573,0.194228 -0.108159,0.204438 -0.0899214,0.21309 -0.0709986,0.220119 -0.0515349,0.225472 -0.0316787,0.229106 -0.00646246,0.0825539 -0.00388,0.0827155 -0.00129376,0.0827963 -0.7,0 0.0127478,-0.291972 0.0381463,-0.28975 0.0632545,-0.285322 0.0878812,-0.278724 0.111839,-0.270004 0.134946,-0.259229 0.157026,-0.246481 0.17791,-0.231857 0.197441,-0.215469 0.215469,-0.197441 0.231857,-0.17791 0.246481,-0.157026 0.259229,-0.134946 0.270004,-0.111839 0.278724,-0.0878812 0.285322,-0.0632545 0.28975,-0.0381463 0.291972,-0.0127478 0.291972,0.0127478 0.28975,0.0381463 0.285322,0.0632545 0.278724,0.0878812 0.270004,0.111839 0.259229,0.134946 0.246481,0.157026 0.231857,0.17791 0.215469,0.197441 0.197441,0.215469 0.17791,0.231857 0.157026,0.246481 0.134946,0.259229 0.111839,0.270004 0.0878812,0.278724 0.0632545,0.285322 0.0381463,0.28975 0.0127478,0.291972 z "/>
<path fill="rgb(187,30,16)" stroke="rgb(187,30,16)" d="M 7.1,3.75 l -0.0127478,0.291972 -0.0381463,0.28975 -0.0632545,0.285322 -0.0878812,0.278724 -0.111839,0.270004 -0.134946,0.259229 -0.157026,0.246481 -0.17791,0.231857 -0.197441,0.215469 -0.215469,0.197441 -0.231857,0.17791 -0.246481,0.157026 -0.259229,0.134946 -0.270004,0.111839 -0.278724,0.0878812 -0.285322,0.0632545 -0.28975,0.0381463 -0.291972,0.0127478 -0.291972,-0.0127478 -0.28975,-0.0381463 -0.285322,-0.0632545 -0.278724,-0.0878812 -0.270004,-0.111839 -0.259229,-0.134946 -0.246481,-0.157026 -0.231857,-0.17791 -0.215469,-0.197441 -0.197441,-0.215469 -0.17791,-0.231857 -0.157026,-0.246481 -0.134946,-0.259229 -0.111839,-0.270004 -0.0878812,-0.278724 -0.0632545,-0.285322 -0.0381463,-0.28975 -0.0127478,-0.291972 0.7,0 0.0100841,0.230963 0.0301754,0.229205 0.0500371,0.225703 0.069518,0.220483 0.0884698,0.213585 0.106748,0.205062 0.124214,0.194978 0.140735,0.18341 0.156185,0.170446 0.170446,0.156185 0.18341,0.140735 0.194978,0.124214 0.205062,0.106748 0.213585,0.0884698 0.220483,0.069518 0.225703,0.0500371 0.229205,0.0301754 0.230963,0.0100841 0.230963,-0.0100841 0.229205,-0.0301754 0.225703,-0.0500371 0.220483,-0.069518 0.213585,-0.0884698 0.205062,-0.106748 0.194978,-0.124214 0.18341,-0.140735 0.170446,-0.156185 0.156185,-0.170446 0.140735,-0.18341 0.124214,-0.194978 0.106748,-0.205062 0.0884698,-0.213585 0.069518,-0.220483 0.0500371,-0.225703 0.0301754,-0.229205 0.0100841,-0.230963 0.7,0 z "/>
<path fill="rgb(42,41,42)" stroke="rgb(42,41,42)" d="M 3.57795,3.63219 l 0.236533,0 -0.326805,0.363598 0,-0.263672 0.0902717,-0.0999261 z M 4.48768,4.12062 l -0.00937215,-0.0075285 -0.0503575,-0.0478993 -0.0461796,-0.051939 -0.0416788,-0.0556156 -0.0368866,-0.0589033 -0.0318364,-0.0617792 -0.0265637,-0.064223 -0.0211052,-0.0662178 -0.0154991,-0.0677495 -0.000934564,-0.00657205 0.186258,0 0.0128007,0.0472737 0.0192408,0.052784 0.0236585,0.0509572 0.0279048,0.0487615 0.0105514,0.0152621 0,0.273389 z M 3.82174,3.63219 l 0.190293,0 0.407537,0.891832 0.0681133,-0.131216 0,0.239384 -0.21356,0 -0.452383,-1 z "/>
<path fill="rgb(42,41,42)" stroke="rgb(42,41,42)" d="M 3.48768,4.85886 l 0,-0.170555 0.811825,0 -0.0253851,-0.0561141 0.21356,0 0,0.58053 -0.276615,0 -0.00771026,-0.000336637 -0.00765158,-0.00100735 -0.00753467,-0.0016704 -0.00736041,-0.00232073 -0.00713014,-0.0029534 -0.0068456,-0.00356359 -0.00650896,-0.00414667 -0.00612279,-0.00469818 -0.00569002,-0.00521394 -0.00521394,-0.00569002 -0.00469818,-0.00612279 -0.00414667,-0.00650896 -0.00356359,-0.0068456 -0.0029534,-0.00713014 -0.00232073,-0.00736041 -0.0016704,-0.00753467 -0.00100735,-0.00765158 -0.000336637,-0.00771026 0.000336637,-0.00771026 0.00100735,-0.00765158 0.0016704,-0.00753467 0.00232073,-0.00736041 0.0029534,-0.00713014 0.00356359,-0.0068456 0.00414667,-0.00650896 0.00469818,-0.00612279 0.00521394,-0.00569002 0.00569002,-0.00521394 0.00612279,-0.00469818 0.00650896,-0.00414667 0.0068456,-0.00356359 0.00713014,-0.0029534 0.00736041,-0.00232073 0.00753467,-0.0016704 0.00765158,-0.00100735 0.00771026,-0.000336637 0.252721,0 -0.0821666,-0.176931 -0.89394,0 z "/>
<path fill="rgb(42,41,42)" stroke="rgb(42,41,42)" d="M 5.07592,3.63219 l -0.195959,0 0.0323944,-0.0622355 -0.42468,0 0,-0.176931 0.569989,0 0.00737049,0.000316609 0.00731619,0.000947493 0.00720798,0.0015714 0.00704668,0.00218372 0.00683346,0.00277996 0.00656989,0.00335572 0.00625792,0.00390676 0.00589985,0.00442901 0.00549831,0.00491863 0.00505626,0.00537202 0.00457696,0.00578582 0.00406394,0.006157 0.00352098,0.00648282 0.00295208,0.00676088 0.00236143,0.00698913 0.00175339,0.00716589 0.00113242,0.00728985 0.000503114,0.00736011 -0.0001299,0.00737614 -0.000761957,0.00733783 -0.0013884,0.00724546 -0.00200462,0.00709971 -0.00260606,0.00690165 -0.00318831,0.00665274 -5.32907e-15,8.88178e-15 -0.0575859,0.11278 z M 5.48768,2.97965 l -0.00800822,-0.0074746 -0.0469346,-0.0365865 -0.0499949,-0.0322792 -0.052661,-0.0277174 -0.054912,-0.022937 -0.0567301,-0.0179759 -0.0581009,-0.012873 -0.0590138,-0.00766866 -0.0594614,-0.00240386 -0.0594402,0.0028799 -0.0594483,0.00823981 -0.0584696,0.0135386 -0.0570197,0.0187282 -0.0551101,0.0237669 -0.0527563,0.028614 -0.0499773,0.0332305 -0.0467954,0.0375791 -0.0432362,0.0416247 -0.0393286,0.0453349 -0.0326014,0.0452093 0,-0.265422 0.0351208,-0.0298957 0.0616667,-0.0437167 0.0652899,-0.0380941 0.0684019,-0.0321731 0.0709783,-0.0260003 0.0729989,-0.0196238 0.0744479,-0.0130937 0.075314,-0.00646103 0.0755903,0.00022221 0.0752747,0.00690371 0.0743696,0.0135312 0.0728823,0.0200527 0.0708242,0.0264171 0.0682116,0.0325747 1.08358e-13,5.77316e-14 0.0386288,0.0227856 0,0.221163 z "/>
<path fill="rgb(42,41,42)" stroke="rgb(42,41,42)" d="M 4.56264,4.63219 l -0.0749571,0 0,-0.239384 0.102441,-0.197347 -0.0576302,-0.0388456 -0.0448112,-0.0359961 0,-0.273389 0.0213977,0.0309506 0.0357621,0.0433294 0.0393161,0.0401323 0.0425855,0.0366447 0.0455466,0.0328918 0.207678,-0.398987 0.195959,0 -0.24568,0.481154 0.0548175,0.0162138 0.0560033,0.0114666 0.0567787,0.00663544 0.0571381,0.00175563 0.057079,-0.00313705 0.0566016,-0.00800675 0.0557095,-0.0128178 0.0544093,-0.0175349 0.0527105,-0.0221236 0.0506255,-0.0265501 0.0481695,-0.0307822 0.0453607,-0.0347887 0.0120316,-0.0109831 0,0.218087 -0.0170073,0.0108122 -0.0664705,0.0344629 -0.0692413,0.0284897 -0.0714765,0.0222963 -0.073159,0.0159303 -0.0742757,0.0094412 -0.074818,0.00287906 -0.0747816,-0.00370535 -0.0741669,-0.0102611 -0.0729786,-0.0167375 -0.0712259,-0.0230844 -0.185442,0.360889 z "/>
<path fill="rgb(42,41,42)" stroke="rgb(42,41,42)" d="M 4.56264,4.63219 l -0.0483064,0.0940094 0.138984,0.30959 0.208502,0 0,0.176931 -0.374136,0 0,-0.58053 0.0749571,0 z "/>
<path fill="rgb(42,41,42)" stroke="rgb(42,41,42)" d="M 5.69694,3.63219 l 0.00595674,-0.0252611 0.00831399,-0.0565573 0.00344695,-0.0570611 -0.00144533,-0.0571468 -0.00632703,-0.0568139 -0.0117135,-0.0583458 -0.0168427,-0.0570768 -0.021839,-0.0553578 -0.0266632,-0.0532025 -0.0312773,-0.0506277 -0.0356447,-0.0476539 -0.0397311,-0.0443043 -0.0354961,-0.0331309 0,-0.221163 0.0239755,0.0141422 0.0591892,0.0421852 0.0553338,0.0471289 0.0510667,0.0517219 0.0464197,0.0559301 0.0414273,0.0597222 0.0361267,0.06307 0.0318351,0.0690682 0.0254784,0.0716571 0.0189141,0.0736624 0.0121958,0.0750676 0.0053781,0.0758615 -0.00148339,0.0760374 -0.00833278,0.075594 -0.00463444,0.0228543 -0.183627,0 z "/>
<path fill="rgb(42,41,42)" stroke="rgb(42,41,42)" d="M 5.69694,3.63219 l 0.183627,0 -0.0104799,0.0516805 -0.0217727,0.0728686 -0.0282538,0.0706089 -0.0345047,0.067774 -0.0404746,0.064387 -0.0461149,0.0604757 -0.0505195,0.0552612 -0.0551792,0.0506091 -0.0594122,0.0455655 -0.0461783,0.0293573 0,-0.218087 0.0301879,-0.0275572 0.038769,-0.0420096 0.0350345,-0.0451711 0.0310433,-0.0480017 0.0268246,-0.0504806 0.0224095,-0.0525896 0.0178301,-0.0543133 0.00716337,-0.0303781 z "/>
<path fill="rgb(42,41,42)" stroke="rgb(42,41,42)" d="M 1.68234,3.63219 l -0.181022,0 -0.00939728,-0.0654601 -0.00415346,-0.0724319 0.00228337,-0.0759627 0.00905306,-0.0754559 0.0157505,-0.074347 0.0223223,-0.0726448 0.028716,-0.0703629 0.0348805,-0.0675196 0.0407667,-0.0641376 0.0463276,-0.0602437 0.0515188,-0.0558691 0.0562989,-0.0510488 0.0596291,-0.0451091 0.0633792,-0.0396678 0.0666342,-0.0339167 0.0693687,-0.0279006 0.0715613,-0.0216666 0.0731949,-0.0152633 0.0742567,-0.00874081 0.0747385,-0.00215003 0.0746364,0.00445755 0.0645922,0.00963434 0,0.183783 -0.0412761,-0.00879168 -0.0577299,-0.00714151 -0.0581316,-0.0021111 -0.0580958,0.0029352 -0.0576228,0.00795942 -0.0567161,0.0129237 -0.0553826,0.0177908 -0.0536322,0.0225239 -0.0514782,0.0270875 -0.0489368,0.0314473 -0.046027,0.0355704 -0.0427709,0.0394258 -0.0391928,0.0429844 -0.0353198,0.0462196 -0.031181,0.0491069 -0.0268075,0.0516246 -0.0222322,0.0537538 -0.0174896,0.0554784 -0.0126154,0.0567855 -0.00764625,0.0576652 -0.00261954,0.0581109 8.88178e-16,1.25677e-13 0.00232088,0.0566363 0.00713355,0.0562332 0.00811371,0.0378057 z M 2.48402,3.63219 l -0.187314,0 -0.044346,-0.125429 -0.00226966,-0.00743769 -0.00161241,-0.00760728 -0.000942873,-0.00771891 -0.000266153,-0.00777173 0.000412595,-0.00776533 0.0010882,-0.00769977 0.00175551,-0.00757554 0.00240945,-0.00739359 0.00304503,-0.00715531 0.00365741,-0.00686251 0.00424192,-0.00651742 0.00479411,-0.00612267 0.00530977,-0.00568128 0.00578498,-0.0051966 0.00621611,-0.00467232 0.00659988,-0.00411244 0.00693336,-0.00352124 0.00721402,-0.0029032 0.00743971,-0.00226304 0.00760872,-0.00160564 0.00771975,-0.000936002 0.00777196,-0.000259236 0.00776496,0.000419506 0.0076988,0.00109505 0.00757397,0.00176225 0.00739144,0.00241603 0.00715259,0.00305139 0.00685925,0.00366351 0.00651364,0.00424772 0.00611841,0.00479956 0.00567655,0.00531483 0.00519145,0.0057896 0.00466679,0.00622027 0.00410657,0.00660354 0.00351506,0.00693649 0.00289678,0.0072166 0.00225642,0.00744172 0.000106062,0.0004183 0.000104034,0.000418809 0.000102004,0.000419308 0.0610542,0.175973 z "/>
<path fill="rgb(42,41,42)" stroke="rgb(42,41,42)" d="M 2.25236,3.50676 l -0.00226966,-0.00743769 -0.00161241,-0.00760728 -0.000942873,-0.00771891 -0.000266153,-0.00777173 0.000412595,-0.00776533 0.0010882,-0.00769977 0.00175551,-0.00757554 0.00240945,-0.00739359 0.00304503,-0.00715531 0.00365741,-0.00686251 0.00424192,-0.00651742 0.00479411,-0.00612267 0.00530977,-0.00568128 0.00578498,-0.0051966 0.00621611,-0.00467232 0.00659988,-0.00411244 0.00693336,-0.00352124 0.00721402,-0.0029032 0.00743971,-0.00226304 0.00760872,-0.00160564 0.00771975,-0.000936002 0.00777196,-0.000259236 0.00776496,0.000419506 0.0076988,0.00109505 0.00757397,0.00176225 0.00739144,0.00241603 0.00715259,0.00305139 0.00685925,0.00366351 0.00651364,0.00424772 0.00611841,0.00479956 0.00567655,0.00531483 0.00519145,0.0057896 0.00466679,0.00622027 0.00410657,0.00660354 0.00351506,0.00693649 0.00289678,0.0072166 0.00225642,0.00744172 -0.00225642,-0.00744172 -0.00289678,-0.0072166 -0.00351506,-0.00693649 -0.00410657,-0.00660354 -0.00466679,-0.00622027 -0.00519145,-0.0057896 -0.00567655,-0.00531483 -0.00611841,-0.00479956 -0.00651364,-0.00424772 -0.00685925,-0.00366351 -0.00715259,-0.00305139 -0.00739144,-0.00241603 -0.00757397,-0.00176225 -0.0076988,-0.00109505 -0.00776496,-0.000419506 -0.00777196,0.000259236 -0.00771975,0.000936002 -0.00760872,0.00160564 -0.00743971,0.00226304 -0.00721402,0.0029032 -0.00693336,0.00352124 -0.00659988,0.00411244 -0.00621611,0.00467232 -0.00578498,0.0051966 -0.00530977,0.00568128 -0.00479411,0.00612267 -0.00424192,0.00651742 -0.00365741,0.00686251 -0.00304503,0.00715531 -0.00240945,0.00739359 -0.00175551,0.00757554 -0.0010882,0.00769977 -0.000412595,0.00776533 0.000266153,0.00777173 0.000942873,0.00771891 0.00161241,0.00760728 0.00226966,0.00743769 z "/>
<path fill="rgb(42,41,42)" stroke="rgb(42,41,42)" d="M 1.50132,3.63219 l 0.181022,0 0.00378072,0.0176162 0.016569,0.0542082 0.0211232,0.052601 0.0255242,0.050612 0.0297398,0.0482556 0.0337395,0.0455489 0.0374944,0.0425115 0.040977,0.0391656 0.0441622,0.0355353 0.0470268,0.0316471 0.04955,0.0275291 0.0517136,0.0232113 0.0535017,0.018725 0.0549014,0.0141028 0.0559027,0.00937818 0.0564981,0.0045855 0.0566833,-0.000240468 0.0564571,-0.00506469 0.0558211,-0.00985214 -0.176804,-0.500076 0.187314,0 0.00366025,0.0105497 0,0.676014 -0.0221873,0.00432561 -0.0721341,0.00776553 -0.0725335,0.00159149 -0.0724053,-0.00459411 -0.0717506,-0.0107463 -0.0705742,-0.0168204 -0.0688844,-0.0227721 -0.0666938,-0.0285582 -0.0640182,-0.0341367 -0.0608769,-0.0394669 -0.057293,-0.04451 -0.0532925,-0.0492295 -0.0489044,-0.053591 -0.0441606,-0.0575628 -0.0390957,-0.061116 -0.0337465,-0.0642247 -0.0281519,-0.0668663 -0.0223525,-0.0690217 -0.0163906,-0.0706752 -0.000912249,-0.00635459 z "/>
<path fill="rgb(42,41,42)" stroke="rgb(42,41,42)" d="M 2.48768,2.64638 l 0.00935908,0.00139597 0.0726885,0.0175169 0.0708579,0.0238667 0.0684738,0.03003 0.0655548,0.0359587 0.0621237,0.0416066 0.0582073,0.0469294 0.0538363,0.0518856 0.0490446,0.0564365 0.0438699,0.0605466 0.0383525,0.0641837 0.0315641,0.06503 0.0259263,0.0674761 0.020101,0.0694344 0.0141305,0.0708909 0.00805778,0.071835 0.00192684,0.0722598 -0.00421802,0.0721623 -0.00958411,0.066362 -0.18132,0 0.0100508,-0.0504829 0.00633114,-0.0572653 0.00136518,-0.0575981 -0.00361096,-0.057501 -0.00856016,-0.0569748 -0.0134455,-0.0560234 -0.0182305,-0.0546539 -0.0228794,-0.0528766 -0.0273576,-0.0507047 -0.0316316,-0.0481544 -0.0356696,-0.0452447 -0.0394414,-0.0419974 -0.0429188,-0.0384366 -0.0465268,-0.0349141 -0.0493778,-0.0307502 -0.0518571,-0.0263548 -0.0539462,-0.0217611 -0.0556293,-0.0170036 -0.0156176,-0.0033265 0,-0.183783 z "/>
<path fill="rgb(42,41,42)" stroke="rgb(42,41,42)" d="M 3.48768,3.99579 l -0.572004,0.636402 -0.265809,0 -0.113165,-0.322994 -0.049023,0.00955748 0,-0.676014 0.150111,0.432657 0.0502786,-0.0281329 0.047663,-0.0323673 0.0446916,-0.0363601 0.0413868,-0.0400816 0.0377731,-0.043504 0.0338775,-0.0466017 0.0297291,-0.0493516 0.0253588,-0.0517333 0.0207993,-0.0537288 0.0160846,-0.0553235 0.00119901,-0.00602233 0.18132,0 -0.000748285,0.00518125 -0.0163721,0.070407 -0.0222934,0.0687619 -0.0280536,0.0666197 -0.0336111,0.063996 -0.0389255,0.0609097 -0.0439587,0.0573832 -0.048674,0.0534418 -0.0530376,0.0491142 -0.0570178,0.0444316 -0.0605858,0.0394278 -0.0637159,0.034139 0.0884653,0.259046 0.698256,-0.772933 0,0.263672 z "/>
<path fill="rgb(42,41,42)" stroke="rgb(42,41,42)" d="M 2.64987,4.63219 l 0.265809,0 -0.0504358,0.0561141 0.622439,0 0,0.170555 -0.571895,0 0.101148,0.26948 0.0045851,0.0107406 0.00551951,0.0102917 0.00641042,0.00976172 0.00725082,0.0091548 0.00803409,0.00847574 0.00875405,0.00772989 0.00940504,0.00692314 0.00998193,0.00606184 0.0104802,0.00515277 0.0108958,0.00420311 0.0112256,0.00322032 0.011467,0.00221216 0.011618,0.00118657 0.0116774,0.000151634 0.0116448,-0.0008845 0.22115,0 0,0.176879 -0.252683,-0.000263155 -0.0254492,-0.0011221 -0.0252586,-0.00330499 -0.0248812,-0.00546342 -0.0243196,-0.00758143 -0.0235781,-0.00964335 -0.0226622,-0.0116339 -0.0215785,-0.0135384 -0.0203353,-0.0153427 -0.0189415,-0.0170335 -0.0174076,-0.0185983 -0.0157449,-0.0200255 -0.0139658,-0.0213044 -0.0120832,-0.0224258 -0.0101113,-0.0233813 -0.0080646,-0.0241637 -0.190101,-0.542583 z "/>
<path fill="rgb(42,41,42)" stroke="rgb(42,41,42)" d="M 4.48768,3.11048 l -0.00250253,0.00347032 -0.0305963,0.0516319 -0.0258421,0.054168 -0.0208795,0.0562675 -0.0157487,0.0579135 -0.0104909,0.0590926 0.10606,0 0,0.176931 -0.10606,0 0.0100207,0.0552806 0.00188324,0.00695492 -0.186258,0 -0.00885006,-0.0622355 -0.214826,0 0.0284395,0.0622355 -0.190293,0 -0.00242786,-0.00536681 -0.00482373,0.00536681 -0.236533,0 0.216059,-0.239166 0.404406,0 0.0118523,-0.0746556 0.0184057,-0.0733155 0.0248149,-0.0714014 0.0310298,-0.0689281 0.0370017,-0.0659152 0.0426839,-0.062386 0.0480319,-0.0583684 0.0530038,-0.0538938 0.0224398,-0.0191014 0,0.265422 z "/>
</g></g></svg>
