<?xml version="1.0" encoding="UTF-8" standalone="no"?>
<!DOCTYPE svg PUBLIC "-//W3C//DTD SVG 1.1//EN" "http://www.w3.org/Graphics/SVG/1.1/DTD/svg11-flat.dtd"
[

]>
<svg xmlns="http://www.w3.org/2000/svg"  viewBox="-0.09375 -0.09375 7.6875 7.6875"><g fill="none" stroke="black" stroke-width="0.0125" transform="translate(0,7.5) scale(1, -1)">
<g id="Output" >
<path fill="rgb(0,91,140)" stroke="rgb(0,91,140)" d="M 7.1,6.25147 l -5.85147,-5.85147 5.55147,0 0.0261467,0.00114159 0.0259477,0.00341608 0.0255513,0.00566458 0.0249603,0.00786996 0.0241794,0.0100155 0.0232145,0.0120847 0.0220729,0.014062 0.0207634,0.0159323 0.0192958,0.0176813 0.0176813,0.0192958 0.0159323,0.0207634 0.014062,0.0220729 0.0120847,0.0232145 0.0100155,0.0241794 0.00786996,0.0249603 0.00566458,0.0255513 0.00341608,0.0259477 0.00114159,0.0261467 0,3.05 -8.88178e-16,2.50147 z "/>
<path fill="rgb(0,91,140)" stroke="rgb(0,91,140)" d="M 0.4,3.75 l 1.33227e-15,-2.50147 5.85147,5.85147 -5.55147,-2.66454e-15 -0.0261467,-0.00114159 -0.0259477,-0.00341608 -0.0255513,-0.00566458 -0.0249603,-0.00786996 -0.0241794,-0.0100155 -0.0232145,-0.0120847 -0.0220729,-0.014062 -0.0207634,-0.0159323 -0.0192958,-0.0176813 -0.0176813,-0.0192958 -0.0159323,-0.0207634 -0.014062,-0.0220729 -0.0120847,-0.0232145 -0.0100155,-0.0241794 -0.00786996,-0.0249603 -0.00566458,-0.0255513 -0.00341608,-0.0259477 -0.00114159,-0.0261467 4.44089e-16,-3.05 z "/>
<path fill="rgb(241,240,234)" stroke="rgb(241,240,234)" d="M 7.1,6.25147 l 0,0.282843 -6.13431,-6.13431 0.282843,0 5.85147,5.85147 z "/>
<path fill="rgb(241,240,234)" stroke="rgb(241,240,234)" d="M 0.4,0.965685 l 6.13431,6.13431 -0.282843,1.77636e-15 -5.85147,-5.85147 -4.44089e-16,-0.282843 z "/>
<path fill="rgb(241,240,234)" stroke="rgb(241,240,234)" d="M 0.4,3.75 l -0.2,-4.44089e-16 4.44089e-16,-3.05 0.00190265,-0.0435779 0.00569347,-0.0432462 0.00944096,-0.0425854 0.0131166,-0.0416005 0.0166924,-0.0402991 0.0201412,-0.0386909 0.0234367,-0.0367882 0.0265538,-0.0346056 0.0294688,-0.0321596 0.0321596,-0.0294688 0.0346056,-0.0265538 0.0367882,-0.0234367 0.0386909,-0.0201412 0.0402991,-0.0166924 0.0416005,-0.0131166 0.0425854,-0.00944096 0.0432462,-0.00569347 0.0435779,-0.00190265 6.1,0 0.0435779,0.00190265 0.0432462,0.00569347 0.0425854,0.00944096 0.0416005,0.0131166 0.0402991,0.0166924 0.0386909,0.0201412 0.0367882,0.0234367 0.0346056,0.0265538 0.0321596,0.0294688 0.0294688,0.0321596 0.0265538,0.0346056 0.0234367,0.0367882 0.0201412,0.0386909 0.0166924,0.0402991 0.0131166,0.0416005 0.00944096,0.0425854 0.00569347,0.0432462 0.00190265,0.0435779 0,3.05 -0.2,4.44089e-16 0,-3.05 -0.00114159,-0.0261467 -0.00341608,-0.0259477 -0.00566458,-0.0255513 -0.00786996,-0.0249603 -0.0100155,-0.0241794 -0.0120847,-0.0232145 -0.014062,-0.0220729 -0.0159323,-0.0207634 -0.0176813,-0.0192958 -0.0192958,-0.0176813 -0.0207634,-0.0159323 -0.0220729,-0.014062 -0.0232145,-0.0120847 -0.0241794,-0.0100155 -0.0249603,-0.00786996 -0.0255513,-0.00566458 -0.0259477,-0.00341608 -0.0261467,-0.00114159 -5.55147,0 -0.282843,0 -0.265685,0 -0.0261467,0.00114159 -0.0259477,0.00341608 -0.0255513,0.00566458 -0.0249603,0.00786996 -0.0241794,0.0100155 -0.0232145,0.0120847 -0.0220729,0.014062 -0.0207634,0.0159323 -0.0192958,0.0176813 -0.0176813,0.0192958 -0.0159323,0.0207634 -0.014062,0.0220729 -0.0120847,0.0232145 -0.0100155,0.0241794 -0.00786996,0.0249603 -0.00566458,0.0255513 -0.00341608,0.0259477 -0.00114159,0.0261467 4.44089e-16,0.265685 4.44089e-16,0.282843 -1.33227e-15,2.50147 z "/>
<path fill="rgb(241,240,234)" stroke="rgb(241,240,234)" d="M 0.2,3.75 l 0.2,4.44089e-16 -4.44089e-16,3.05 0.00114159,0.0261467 0.00341608,0.0259477 0.00566458,0.0255513 0.00786996,0.0249603 0.0100155,0.0241794 0.0120847,0.0232145 0.014062,0.0220729 0.0159323,0.0207634 0.0176813,0.0192958 0.0192958,0.0176813 0.0207634,0.0159323 0.0220729,0.014062 0.0232145,0.0120847 0.0241794,0.0100155 0.0249603,0.00786996 0.0255513,0.00566458 0.0259477,0.00341608 0.0261467,0.00114159 5.55147,2.66454e-15 0.282843,-1.77636e-15 0.265685,0 0.0261467,-0.00114159 0.0259477,-0.00341608 0.0255513,-0.00566458 0.0249603,-0.00786996 0.0241794,-0.0100155 0.0232145,-0.0120847 0.0220729,-0.014062 0.0207634,-0.0159323 0.0192958,-0.0176813 0.0176813,-0.0192958 0.0159323,-0.0207634 0.014062,-0.0220729 0.0120847,-0.0232145 0.0100155,-0.0241794 0.00786996,-0.0249603 0.00566458,-0.0255513 0.00341608,-0.0259477 0.00114159,-0.0261467 0,-0.265685 0,-0.282843 8.88178e-16,-2.50147 0.2,-4.44089e-16 -8.88178e-16,3.05 -0.00190265,0.0435779 -0.00569347,0.0432462 -0.00944096,0.0425854 -0.0131166,0.0416005 -0.0166924,0.0402991 -0.0201412,0.0386909 -0.0234367,0.0367882 -0.0265538,0.0346056 -0.0294688,0.0321596 -0.0321596,0.0294688 -0.0346056,0.0265538 -0.0367882,0.0234367 -0.0386909,0.0201412 -0.0402991,0.0166924 -0.0416005,0.0131166 -0.0425854,0.00944096 -0.0432462,0.00569347 -0.0435779,0.00190265 -6.1,-8.88178e-16 -0.0435779,-0.00190265 -0.0432462,-0.00569347 -0.0425854,-0.00944096 -0.0416005,-0.0131166 -0.0402991,-0.0166924 -0.0386909,-0.0201412 -0.0367882,-0.0234367 -0.0346056,-0.0265538 -0.0321596,-0.0294688 -0.0294688,-0.0321596 -0.0265538,-0.0346056 -0.0234367,-0.0367882 -0.0201412,-0.0386909 -0.0166924,-0.0402991 -0.0131166,-0.0416005 -0.00944096,-0.0425854 -0.00569347,-0.0432462 -0.00190265,-0.0435779 4.44089e-16,-3.05 z "/>
<path fill="rgb(0,91,140)" stroke="rgb(0,91,140)" d="M 0.2,3.75 l -0.2,0 4.44089e-16,-3.05 0.00266371,-0.061009 0.00797086,-0.0605447 0.0132173,-0.0596196 0.0183632,-0.0582408 0.0233694,-0.0564187 0.0281977,-0.0541672 0.0328114,-0.0515035 0.0371753,-0.0484478 0.0412564,-0.0450234 0.0450234,-0.0412564 0.0484478,-0.0371753 0.0515035,-0.0328114 0.0541672,-0.0281977 0.0564187,-0.0233694 0.0582408,-0.0183632 0.0596196,-0.0132173 0.0605447,-0.00797086 0.061009,-0.00266371 6.1,-8.88178e-16 0.061009,0.00266371 0.0605447,0.00797086 0.0596196,0.0132173 0.0582408,0.0183632 0.0564187,0.0233694 0.0541672,0.0281977 0.0515035,0.0328114 0.0484478,0.0371753 0.0450234,0.0412564 0.0412564,0.0450234 0.0371753,0.0484478 0.0328114,0.0515035 0.0281977,0.0541672 0.0233694,0.0564187 0.0183632,0.0582408 0.0132173,0.0596196 0.00797086,0.0605447 0.00266371,0.061009 -1.77636e-15,3.05 -0.2,-8.88178e-16 0,-3.05 -0.00190265,-0.0435779 -0.00569347,-0.0432462 -0.00944096,-0.0425854 -0.0131166,-0.0416005 -0.0166924,-0.0402991 -0.0201412,-0.0386909 -0.0234367,-0.0367882 -0.0265538,-0.0346056 -0.0294688,-0.0321596 -0.0321596,-0.0294688 -0.0346056,-0.0265538 -0.0367882,-0.0234367 -0.0386909,-0.0201412 -0.0402991,-0.0166924 -0.0416005,-0.0131166 -0.0425854,-0.00944096 -0.0432462,-0.00569347 -0.0435779,-0.00190265 -6.1,0 -0.0435779,0.00190265 -0.0432462,0.00569347 -0.0425854,0.00944096 -0.0416005,0.0131166 -0.0402991,0.0166924 -0.0386909,0.0201412 -0.0367882,0.0234367 -0.0346056,0.0265538 -0.0321596,0.0294688 -0.0294688,0.0321596 -0.0265538,0.0346056 -0.0234367,0.0367882 -0.0201412,0.0386909 -0.0166924,0.0402991 -0.0131166,0.0416005 -0.00944096,0.0425854 -0.00569347,0.0432462 -0.00190265,0.0435779 -4.44089e-16,3.05 z "/>
<path fill="rgb(0,91,140)" stroke="rgb(0,91,140)" d="M 6.8,7.3 l 0.0435779,-0.00190265 0.0432462,-0.00569347 0.0425854,-0.00944096 0.0416005,-0.0131166 0.0402991,-0.0166924 0.0386909,-0.0201412 0.0367882,-0.0234367 0.0346056,-0.0265538 0.0321596,-0.0294688 0.0294688,-0.0321596 0.0265538,-0.0346056 0.0234367,-0.0367882 0.0201412,-0.0386909 0.0166924,-0.0402991 0.0131166,-0.0416005 0.00944096,-0.0425854 0.00569347,-0.0432462 0.00190265,-0.0435779 8.88178e-16,-3.05 0.2,8.88178e-16 1.77636e-15,3.05 -0.00266371,0.061009 -0.00797086,0.0605447 -0.0132173,0.0596196 -0.0183632,0.0582408 -0.0233694,0.0564187 -0.0281977,0.0541672 -0.0328114,0.0515035 -0.0371753,0.0484478 -0.0412564,0.0450234 -0.0450234,0.0412564 -0.0484478,0.0371753 -0.0515035,0.0328114 -0.0541672,0.0281977 -0.0564187,0.0233694 -0.0582408,0.0183632 -0.0596196,0.0132173 -0.0605447,0.00797086 -0.061009,0.00266371 -6.1,-8.88178e-16 -0.061009,-0.00266371 -0.0605447,-0.00797086 -0.0596196,-0.0132173 -0.0582408,-0.0183632 -0.0564187,-0.0233694 -0.0541672,-0.0281977 -0.0515035,-0.0328114 -0.0484478,-0.0371753 -0.0450234,-0.0412564 -0.0412564,-0.0450234 -0.0371753,-0.0484478 -0.0328114,-0.0515035 -0.0281977,-0.0541672 -0.0233694,-0.0564187 -0.0183632,-0.0582408 -0.0132173,-0.0596196 -0.00797086,-0.0605447 -0.00266371,-0.061009 4.44089e-16,-3.05 0.2,0 -4.44089e-16,3.05 0.00190265,0.0435779 0.00569347,0.0432462 0.00944096,0.0425854 0.0131166,0.0416005 0.0166924,0.0402991 0.0201412,0.0386909 0.0234367,0.0367882 0.0265538,0.0346056 0.0294688,0.0321596 0.0321596,0.0294688 0.0346056,0.0265538 0.0367882,0.0234367 0.0386909,0.0201412 0.0402991,0.0166924 0.0416005,0.0131166 0.0425854,0.00944096 0.0432462,0.00569347 0.0435779,0.00190265 6.1,8.88178e-16 z "/>
<path fill="rgb(241,240,234)" stroke="rgb(241,240,234)" d="M 5.29857,6.52568 l -0.0507638,0 -0.10965,-0.00710693 -0.105589,-0.0152291 -0.100512,-0.0223361 -0.0954359,-0.029443 -0.0923901,-0.0375652 -0.0862984,-0.0456874 -0.0832526,-0.0517791 -0.0781762,-0.0609165 -0.0730999,-0.0670082 -0.0690388,-0.0751304 -0.0649776,-0.0832526 -0.0203055,-0.0284277 1.02949,-0.0355347 0.0385805,-0.00101528 0.106604,-0.0121833 0.0974665,-0.0253819 0.0903595,-0.0395958 0.0822373,-0.0538096 0.0741151,-0.0670082 0.0659929,-0.0812221 0.0385805,-0.0609165 0.0426416,-0.0812221 0.0355347,-0.088329 0.0284277,-0.0954359 0.0233513,-0.102543 0.0162444,-0.110665 0.00913748,-0.116757 0.00304583,-0.120818 -0.00203055,-0.0984817 -0.00913748,-0.115741 -0.0152291,-0.10965 -0.0223361,-0.103558 -0.0284277,-0.0974665 -0.0345194,-0.0913748 -0.0416263,-0.0842679 -0.0487332,-0.0791915 -0.0243666,-0.0355347 -0.0690388,-0.0791915 -0.0761457,-0.0649776 -0.0832526,-0.0497485 -0.0913748,-0.0355347 -0.099497,-0.0223361 -0.106604,-0.00710693 1.02949,-0.0223361 0.0497485,0.0822373 0.0456874,0.0852832 0.040611,0.0893443 0.0355347,0.0923901 0.0304583,0.0964512 0.0263972,0.100512 0.0213208,0.103558 0.0162444,0.107619 0.0121833,0.110665 0.00710693,0.114726 0.00203055,0.118787 0,0.0172597 -0.00304583,0.117772 -0.00812221,0.113711 -0.0131986,0.10965 -0.018275,0.105589 -0.0223361,0.102543 -0.0284277,0.099497 -0.0324888,0.0954359 -0.0385805,0.0913748 -0.0426416,0.088329 -0.047718,0.0842679 -0.0527943,0.0812221 -0.0324888,0.0456874 -0.0659929,0.0802068 -0.070054,0.0720846 -0.0741151,0.0639624 -0.0791915,0.0568554 -0.0842679,0.0497485 -0.0893443,0.0416263 -0.0934054,0.0345194 -0.0974665,0.0263972 -0.103558,0.018275 -0.106604,0.0121833 -0.112696,0.00304583 z "/>
<path fill="rgb(241,240,234)" stroke="rgb(241,240,234)" d="M 4.26908,6.0018 l -0.0507638,-0.0802068 -0.0467027,-0.0852832 -0.0416263,-0.088329 -0.0375652,-0.0923901 -0.0314735,-0.0954359 -0.0274124,-0.099497 -0.0213208,-0.103558 -0.0172597,-0.107619 -0.0121833,-0.110665 -0.00812221,-0.114726 -0.00203055,-0.118787 0,-0.0446721 0.0040611,-0.117772 0.00913748,-0.112696 0.0142139,-0.10965 0.018275,-0.106604 0.0243666,-0.101528 0.0284277,-0.099497 0.0324888,-0.0944206 0.0385805,-0.0913748 0.0426416,-0.0873137 0.047718,-0.0842679 0.0517791,-0.0802068 0.0355347,-0.047718 0.0659929,-0.0791915 0.0710693,-0.0720846 0.0751304,-0.0639624 0.0791915,-0.0568554 0.0842679,-0.0487332 0.0893443,-0.0416263 0.0934054,-0.0345194 0.0984817,-0.0263972 0.102543,-0.018275 0.107619,-0.011168 0.11168,-0.0040611 0.0751304,0.00203055 0.108635,0.00812221 0.104573,0.0172597 0.099497,0.0243666 0.0944206,0.0314735 0.0893443,0.0395958 0.0852832,0.0467027 0.0812221,0.0548249 0.0761457,0.0619318 0.0710693,0.070054 0.0670082,0.077161 0.0619318,0.0852832 0.0152291,0.0233513 -1.02949,0.0223361 -0.0436569,0.00101528 -0.105589,0.0121833 -0.0984817,0.0263972 -0.0903595,0.0395958 -0.0822373,0.0527943 -0.0730999,0.0680235 -0.0659929,0.0802068 -0.047718,0.0751304 -0.040611,0.0812221 -0.0345194,0.0893443 -0.0284277,0.0964512 -0.0223361,0.103558 -0.0162444,0.110665 -0.00913748,0.117772 -0.00304583,0.124879 0.00304583,0.113711 0.0101528,0.11168 0.0172597,0.106604 0.0243666,0.100512 0.0314735,0.0954359 0.0385805,0.0903595 0.0446721,0.0842679 0.00710693,0.011168 0.0619318,0.0893443 0.070054,0.0761457 0.0761457,0.0619318 0.0832526,0.0487332 0.0913748,0.0345194 0.0974665,0.0203055 0.104573,0.00710693 -1.02949,0.0355347 z "/>
<path fill="rgb(241,240,234)" stroke="rgb(241,240,234)" d="M 2.0771,6.52568 l -0.0690388,-0.00101528 -0.116757,-0.00609165 -0.11168,-0.0131986 -0.105589,-0.0203055 -0.100512,-0.0253819 -0.0944206,-0.0324888 -0.0893443,-0.0385805 -0.0832526,-0.0456874 -0.0781762,-0.0507638 -0.0121833,-0.0101528 -0.0822373,-0.0690388 -0.0690388,-0.0761457 -0.0568554,-0.0812221 -0.0436569,-0.088329 1.11274,-0.00101528 0.103558,-0.00304583 0.134016,-0.011168 0.112696,-0.0213208 0.0913748,-0.0304583 0.0720846,-0.040611 0.0517791,-0.0497485 0.0304583,-0.0599013 0.0101528,-0.0690388 -0.00710693,-0.0599013 -0.0253819,-0.0649776 -0.0467027,-0.0538096 -0.0659929,-0.0446721 -0.0852832,-0.0345194 -0.105589,-0.0253819 -0.124879,-0.0142139 -0.145184,-0.00507638 -1.1036,-0.00203055 0.0487332,-0.0934054 0.0619318,-0.0944206 0.0761457,-0.0954359 -0.0335041,-0.0304583 -0.0751304,-0.0791915 -0.0649776,-0.0822373 -0.0548249,-0.0852832 -0.0456874,-0.0903595 -0.0345194,-0.0923901 -0.0253819,-0.0974665 -0.0142139,-0.100512 -0.00507638,-0.103558 0.00101528,-0.0558402 0.00913748,-0.107619 0.0192902,-0.103558 0.0284277,-0.0974665 0.0375652,-0.0923901 0.047718,-0.0862984 0.0578707,-0.0812221 0.0659929,-0.0761457 0.077161,-0.0710693 0.0385805,-0.0314735 0.077161,-0.0538096 0.0832526,-0.047718 0.088329,-0.0416263 0.0934054,-0.0355347 0.0984817,-0.0284277 0.103558,-0.0223361 0.10965,-0.0152291 0.114726,-0.0101528 0.118787,-0.00304583 0.101528,0.00203055 0.113711,0.00913748 0.10965,0.0142139 0.103558,0.0213208 0.099497,0.0274124 0.0944206,0.0345194 0.0893443,0.0395958 0.0852832,0.0467027 0.0802068,0.0527943 0.0152291,0.011168 0.0781762,0.0649776 0.0690388,0.0710693 0.0609165,0.077161 0.0507638,0.0832526 -1.15132,0.018275 -0.0913748,0.00203055 -0.122848,0.00913748 -0.105589,0.0172597 -0.0873137,0.0253819 -0.070054,0.0335041 -0.0649776,0.0487332 -0.0720846,0.0730999 -0.0507638,0.0832526 -0.0304583,0.0923901 -0.011168,0.102543 0.00101528,0.0162444 0.00913748,0.0893443 0.0223361,0.0802068 0.0365499,0.070054 0.0507638,0.0619318 0.0639624,0.0507638 0.077161,0.0426416 0.0913748,0.0324888 0.104573,0.0243666 0.117772,0.0131986 0.131986,0.00507638 1.12797,0.0324888 -0.0568554,0.0852832 -0.0670082,0.0812221 -0.077161,0.0761457 0.00710693,0.00913748 0.0720846,0.099497 0.058886,0.0974665 0.0467027,0.0954359 0.0324888,0.0934054 0.0192902,0.0903595 0.00710693,0.0893443 0,0.0142139 -0.00812221,0.104573 -0.0203055,0.0984817 -0.0335041,0.0923901 -0.0456874,0.0873137 -0.058886,0.0822373 -0.0710693,0.0751304 -0.0832526,0.070054 -0.0436569,0.0304583 -0.0802068,0.047718 -0.0862984,0.040611 -0.0913748,0.0355347 -0.0984817,0.0284277 -0.103558,0.0223361 -0.10965,0.0162444 -0.114726,0.00913748 -0.121833,0.00304583 z "/>
<path fill="rgb(241,240,234)" stroke="rgb(241,240,234)" d="M 0.96436,5.96728 l -0.0314735,-0.0934054 -0.0192902,-0.100512 -0.00609165,-0.105589 0,-0.0142139 0.00913748,-0.0913748 0.0213208,-0.0923901 0.0355347,-0.0934054 1.1036,0.00203055 -0.120818,0.00304583 -0.12894,0.0131986 -0.108635,0.0233513 -0.088329,0.0324888 -0.0690388,0.0426416 -0.0497485,0.0527943 -0.029443,0.0629471 -0.0101528,0.0720846 0.00507638,0.0487332 0.0243666,0.0629471 0.0446721,0.0527943 0.0649776,0.0436569 0.0862984,0.0335041 0.105589,0.0243666 0.126909,0.0142139 0.147215,0.00507638 -1.11274,0.00101528 z "/>
<path fill="rgb(241,240,234)" stroke="rgb(241,240,234)" d="M 3.20507,4.85047 l -1.12797,-0.0324888 0.0253819,0 0.12894,-0.00609165 0.116757,-0.0162444 0.101528,-0.0253819 0.0893443,-0.0345194 0.0751304,-0.0436569 0.0609165,-0.0538096 0.047718,-0.0619318 0.0345194,-0.0720846 0.0203055,-0.0822373 0.00609165,-0.0903595 -0.00913748,-0.0974665 -0.0314735,-0.0944206 -0.0538096,-0.0852832 -0.0751304,-0.077161 -0.0243666,-0.0203055 -0.0670082,-0.040611 -0.0842679,-0.0314735 -0.102543,-0.0223361 -0.120818,-0.0131986 -0.138078,-0.00507638 1.15132,-0.018275 0.0416263,0.0893443 0.0324888,0.0944206 0.0233513,0.101528 0.0131986,0.106604 0.00507638,0.113711 -0.00101528,0.0355347 -0.00812221,0.104573 -0.0172597,0.100512 -0.0284277,0.0974665 -0.0375652,0.0923901 -0.0467027,0.088329 z "/>
<path fill="rgb(241,240,234)" stroke="rgb(241,240,234)" d="M 5.79403,2.47473 l -0.269048,-0.0984817 0,-1.42545 0.269048,0 0,0.64267 0.00101528,0.0304583 0.0172597,0.0791915 0.0385805,0.0558402 0.0599013,0.0335041 0.0812221,0.011168 0.431492,0.029443 -0.0365499,0.0710693 -0.592921,0.0639624 0,0.506623 z "/>
<path fill="rgb(241,240,234)" stroke="rgb(241,240,234)" d="M 6.04683,2.07268 l -0.0436569,-0.00203055 -0.0852832,-0.0162444 -0.070054,-0.0345194 -0.0538096,-0.0517791 0.592921,-0.0639624 -0.0538096,0.0639624 -0.047718,0.0375652 -0.070054,0.0375652 -0.0802068,0.0223361 -0.088329,0.00710693 z "/>
<path fill="rgb(241,240,234)" stroke="rgb(241,240,234)" d="M 6.4235,1.83307 l -0.431492,-0.029443 0.0761457,-0.0131986 0.0680235,-0.0456874 0.0436569,-0.0619318 0.0162444,-0.0802068 0,-0.651807 0.248743,0 0,0.752319 -0.00304583,0.0497485 -0.018275,0.0802068 z "/>
<path fill="rgb(241,240,234)" stroke="rgb(241,240,234)" d="M 5.21633,2.45036 l -0.95842,-1.80516 -0.269048,0 0.959436,1.80516 0.268033,0 z "/>
<path fill="rgb(241,240,234)" stroke="rgb(241,240,234)" d="M 2.68018,2.07268 l -0.0517791,-0.00304583 -0.0781762,-0.0203055 -0.0720846,-0.0375652 -0.0670082,-0.0548249 0.553325,-0.0152291 -0.0568554,0.0538096 -0.0680235,0.0426416 -0.0761457,0.0253819 -0.0832526,0.00913748 z "/>
<path fill="rgb(241,240,234)" stroke="rgb(241,240,234)" d="M 3.29645,2.07268 l -0.0274124,-0.00101528 -0.0761457,-0.0121833 -0.0761457,-0.0253819 -0.0761457,-0.0395958 -0.0761457,-0.0527943 0.670082,-0.0375652 -0.0538096,0.0639624 -0.0467027,0.0365499 -0.070054,0.0375652 -0.0791915,0.0223361 -0.088329,0.00812221 z "/>
<path fill="rgb(241,240,234)" stroke="rgb(241,240,234)" d="M 2.41113,2.04628 l -0.269048,0 0,-1.09548 0.269048,0 0,0.657899 0.0101528,0.070054 0.040611,0.070054 0.0467027,0.0365499 0.0822373,0.018275 0.646731,0 0.434538,0.0284277 -0.0375652,0.0720846 -0.670082,0.0375652 -0.553325,0.0152291 0,0.0893443 z "/>
<path fill="rgb(241,240,234)" stroke="rgb(241,240,234)" d="M 3.6721,1.83206 l -0.434538,-0.0284277 0.0730999,-0.011168 0.0639624,-0.0436569 0.0365499,-0.0609165 0.0142139,-0.0852832 0,-0.651807 0.268033,0 0,0.752319 -0.00203055,0.0497485 -0.0192902,0.0791915 z "/>
<path fill="rgb(241,240,234)" stroke="rgb(241,240,234)" d="M 3.23756,1.80363 l -0.646731,0 0.0710693,-0.0121833 0.0710693,-0.0446721 0.040611,-0.0609165 0.0152291,-0.0832526 0,-0.651807 0.25788,0 0,0.662975 0.011168,0.0639624 0.0456874,0.0690388 0.0548249,0.0395958 0.0791915,0.0172597 z "/>
<path fill="rgb(241,240,234)" stroke="rgb(241,240,234)" d="M 1.34509,2.47473 l -0.269048,-0.0984817 0,-1.42545 0.269048,0 0,0.319812 0.14823,0.203055 -0.14823,0.193918 0,0.807144 z "/>
<path fill="rgb(241,240,234)" stroke="rgb(241,240,234)" d="M 1.96542,2.04019 l -0.331995,0 -0.288338,-0.372606 0.14823,-0.193918 0.214223,-0.522867 0.269048,0 -0.299506,0.741151 0.288338,0.34824 z "/>
<path fill="rgb(187,30,16)" stroke="rgb(187,30,16)" d="M 0.4,0.965685 l -4.44089e-16,-0.265685 0.00114159,-0.0261467 0.00341608,-0.0259477 0.00566458,-0.0255513 0.00786996,-0.0249603 0.0100155,-0.0241794 0.0120847,-0.0232145 0.014062,-0.0220729 0.0159323,-0.0207634 0.0176813,-0.0192958 0.0192958,-0.0176813 0.0207634,-0.0159323 0.0220729,-0.014062 0.0232145,-0.0120847 0.0241794,-0.0100155 0.0249603,-0.00786996 0.0255513,-0.00566458 0.0259477,-0.00341608 0.0261467,-0.00114159 0.265685,0 6.13431,6.13431 0,0.265685 -0.00114159,0.0261467 -0.00341608,0.0259477 -0.00566458,0.0255513 -0.00786996,0.0249603 -0.0100155,0.0241794 -0.0120847,0.0232145 -0.014062,0.0220729 -0.0159323,0.0207634 -0.0176813,0.0192958 -0.0192958,0.0176813 -0.0207634,0.0159323 -0.0220729,0.014062 -0.0232145,0.0120847 -0.0241794,0.0100155 -0.0249603,0.00786996 -0.0255513,0.00566458 -0.0259477,0.00341608 -0.0261467,0.00114159 -0.265685,0 -6.13431,-6.13431 z "/>
</g></g></svg>
