<?xml version="1.0" encoding="UTF-8" standalone="no"?>
<!DOCTYPE svg PUBLIC "-//W3C//DTD SVG 1.1//EN" "http://www.w3.org/Graphics/SVG/1.1/DTD/svg11-flat.dtd"
[

]>
<svg xmlns="http://www.w3.org/2000/svg"  viewBox="-0.0891147 -0.0891147 7.30741 7.30741"><g fill="none" stroke="black" stroke-width="0.0125" transform="translate(0,7.12918) scale(1, -1)">
<g id="Output" >
<path fill="rgb(241,240,234)" stroke="rgb(241,240,234)" d="M 3.36217,2.95272 l 0.289171,-0.178524 0.0905309,0.153375 -0.143327,0.0829799 -0.00240365,0.00159037 -0.00252841,0.00138347 -0.00263539,0.00116684 -0.00272386,0.00094202 -0.00279319,0.000710574 -0.00284289,0.000474136 -0.00287261,0.000234366 -0.00288215,-7.0512e-06 -0.00287143,-0.000248419 -0.00284054,-0.000488041 -0.00278968,-0.000724233 -0.206191,-0.0628641 z "/>
<path fill="rgb(241,240,234)" stroke="rgb(241,240,234)" d="M 4.01848,2.75658 l -0.00194158,0.00394683 -0.00228835,0.00375641 -0.00261661,0.00353561 -0.00292371,0.0032862 -0.00320715,0.00301021 -0.00346465,0.00270987 -0.00369412,0.00238761 -0.22379,0.130762 -0.0905309,-0.155892 0.399818,-0.243926 -0.0653607,0.246423 z "/>
<path fill="rgb(241,240,234)" stroke="rgb(241,240,234)" d="M 3.09443,4.1 l 0.5,0 0,0.88065 -0.0298374,0.0596748 -0.470163,-0.940325 z "/>
<path fill="rgb(241,240,234)" stroke="rgb(241,240,234)" d="M 2.59443,3.1 l 1,0 0,1 -0.5,0 -0.5,-1 z "/>
<path fill="rgb(241,240,234)" stroke="rgb(241,240,234)" d="M 3.09373,2.69027 l 0.00050448,0.0115545 0.0015096,0.0114665 0.00250323,0.0112913 0.00347781,0.0110302 0.00442592,0.0106851 0.00534035,0.0102587 0.00621413,0.00975424 0.00704063,0.00917552 0.00781353,0.00852698 0.00852698,0.00781353 0.00917552,0.00704063 0.00975424,0.00621413 0.0102587,0.00534035 0.0106851,0.00442592 0.0110302,0.00347781 0.0112913,0.00250323 0.0114665,0.0015096 0.0115545,0.00050448 0.0115545,-0.00050448 0.0114665,-0.0015096 0.0112913,-0.00250323 0.0110302,-0.00347781 0.0106851,-0.00442592 0.0102587,-0.00534035 0.00975424,-0.00621413 0.00917552,-0.00704063 0.00852698,-0.00781353 0.00781353,-0.00852698 0.00704063,-0.00917552 0.00621413,-0.00975424 0.00534035,-0.0102587 0.00442592,-0.0106851 0.00347781,-0.0110302 0.00250323,-0.0112913 0.0015096,-0.0114665 0.00050448,-0.0115545 -0.00050448,-0.0115545 -0.0015096,-0.0114665 -0.00250323,-0.0112913 -0.00347781,-0.0110302 -0.00442592,-0.0106851 -0.00534035,-0.0102587 -0.00621413,-0.00975424 -0.00704063,-0.00917552 -0.00781353,-0.00852698 -0.00852698,-0.00781353 -0.00917552,-0.00704063 -0.00975424,-0.00621413 -0.0102587,-0.00534035 -0.0106851,-0.00442592 -0.0110302,-0.00347781 -0.0112913,-0.00250323 -0.0114665,-0.0015096 -0.0115545,-0.00050448 -0.0115545,0.00050448 -0.0114665,0.0015096 -0.0112913,0.00250323 -0.0110302,0.00347781 -0.0106851,0.00442592 -0.0102587,0.00534035 -0.00975424,0.00621413 -0.00917552,0.00704063 -0.00852698,0.00781353 -0.00781353,0.00852698 -0.00704063,0.00917552 -0.00621413,0.00975424 -0.00534035,0.0102587 -0.00442592,0.0106851 -0.00347781,0.0110302 -0.00250323,0.0112913 -0.0015096,0.0114665 -0.00050448,0.0115545 z M 3.59443,2.47832 l -0.219688,0.1274 0.00680623,0.0135415 0.00558228,0.0140903 0.00431461,0.0145287 0.00301315,0.0148532 0.00168808,0.0150615 0.000349793,0.0151517 -0.000991236,0.0151233 -0.0023245,0.0149765 -0.00363956,0.0147123 -0.00492611,0.0143329 -0.00617407,0.0138412 -0.00737368,0.0132411 -0.00851553,0.0125373 -0.00959067,0.0117353 -0.0105907,0.0108413 -0.0115078,0.00986249 -0.0123347,0.00880639 -0.013065,0.00768132 -0.013693,0.00649607 -0.0142137,0.00525995 -0.0146231,0.00398262 -0.014918,0.0026741 -0.015096,0.00134464 -0.0151558,4.63999e-06 -0.0150968,-0.00133539 -0.0149196,-0.00266497 -0.0146256,-0.00397367 -0.014217,-0.00525124 -0.013697,-0.00648769 -0.0130697,-0.00767331 -0.0123401,-0.00879884 -0.0115138,-0.00985544 -0.0105973,-0.0108349 -0.00959786,-0.0117294 -0.100589,0.0905105 0.10813,0.183579 0.218766,-0.0854969 0.259008,0.0754288 0.00375964,0.00091031 0.00382718,0.000562364 0.00386259,0.000209696 0.00386557,-0.000144732 0.0038361,-0.000497945 0.00187676,-0.000421145 0,0.0435638 -1,0 0,-0.692939 0.971421,0 0,-0.307061 0.0285789,0 0,0.378321 z "/>
<path fill="rgb(241,240,234)" stroke="rgb(241,240,234)" d="M 3.59443,1.1 l 0,0.219202 -0.00960801,-0.00174056 -0.0189709,-0.00172414 -0.971421,0 0,-0.215737 0.970163,0 0.0298374,0 z M 3.59443,1.43831 l 0,0.119381 -0.00963518,-0.00161746 -0.0189437,-0.00144139 0,-0.118198 0.0166978,0.000464568 0.0118812,0.00141076 z M 3.59443,1.67484 l 0,0.425158 -0.0285789,0 0,-0.427194 0.0167576,0.00055589 0.0118213,0.00147985 z "/>
<path fill="rgb(241,240,234)" stroke="rgb(241,240,234)" d="M 2.09443,2.1 l 0.223607,0 0.15353,0.307061 0.122863,0 0,0.692939 -0.5,-1 z "/>
<path fill="rgb(241,240,234)" stroke="rgb(241,240,234)" d="M 2.31803,2.1 l -0.223607,0 -0.5,-1 1,-4.44089e-16 0,0.215737 -0.668525,0 0.392131,0.784263 z "/>
<path fill="rgb(241,240,234)" stroke="rgb(241,240,234)" d="M 4.59443,1.1 l 0,0.219752 -0.00177991,-0.000395438 -0.0167127,-0.00222113 -0.0168421,-0.00076916 -0.0168456,0.000688564 -0.0167231,0.00214114 -0.0164756,0.00357771 -0.016105,0.00498753 -0.015614,0.00636007 -0.0150062,0.00768506 -0.0142863,0.0089526 -0.0134595,0.0101532 -0.0133892,0.0101079 -0.0142058,0.00892394 -0.0149179,0.00767442 -0.0155204,0.00636849 -0.0160088,0.00501576 -0.0163796,0.00362617 -0.01663,0.00220992 -0.0167582,0.000777432 -0.0167632,-0.000660769 -0.016645,-0.00209411 -0.0164044,-0.00351207 -0.0160434,-0.00490421 -0.0155644,-0.00626031 -0.014971,-0.0075704 -0.0142675,-0.00882485 -0.0134593,-0.0100144 -0.0134775,-0.0100385 -0.0142789,-0.00886157 -0.0149778,-0.00762102 -0.0155692,-0.00632576 -0.0160488,-0.00498509 -0.0164132,-0.00360863 -0.0166597,-0.00220627 -0.0167867,-0.000788062 -0.0167932,0.000635799 -0.0166791,0.0020551 -0.0164452,0.00345964 -0.0160933,0.00483935 -0.0156259,0.00618431 -0.0150463,0.00748488 -0.0143587,0.00873172 -0.013568,0.00991587 -0.0144774,0.0105298 -0.015359,0.00919634 -0.0161181,0.00778954 -0.0167488,0.00632062 -0.0172458,0.00480131 -0.0176054,0.00324371 -0.0178246,0.00166025 -0.0179016,6.35504e-05 -0.0178359,-0.00153366 -0.017628,-0.00311864 -0.0172795,-0.00467875 -0.0167932,-0.00620155 -0.016173,-0.0076749 -0.0154239,-0.00908706 -0.0145518,-0.0104268 -0.0154803,-0.0111008 -0.0164016,-0.00968787 -0.0171943,-0.00819896 -0.0178522,-0.00664575 -0.0183701,-0.00504044 -0.009136,-0.00165505 0,-0.219202 1,0 z M 4.59443,1.43618 l 0,0.121377 -0.00179943,-0.000397871 -0.0167027,-0.00220941 -0.0168309,-0.000765016 -0.0168343,0.000685048 -0.016713,0.00213004 -0.016468,0.00355925 -0.016101,0.0049621 -0.0156146,0.00632819 -0.0150127,0.0076474 -0.0142995,0.00890997 -0.0134804,0.0101065 -0.013408,0.0100599 -0.0142169,0.00888013 -0.0149223,0.00763565 -0.015519,0.00633556 -0.0160026,0.00498934 -0.0163698,0.00360678 -0.0166177,0.00219795 -0.0167446,0.000773121 -0.0167495,-0.000657343 -0.0166325,-0.00208302 -0.0163943,-0.00349353 -0.0160368,-0.00487859 -0.0155624,-0.00622813 -0.0149747,-0.0075323 -0.014278,-0.00878163 -0.0134773,-0.009967 -0.0144273,-0.010618 -0.0153232,-0.00927843 -0.0160951,-0.00786375 -0.0167367,-0.00638543 -0.0172428,-0.00485543 -0.0176094,-0.00328613 -0.0178335,-0.00169024 -0.0179132,-8.06614e-05 -0.017848,0.00152957 -0.0176383,0.00312741 -0.0172858,0.00469995 -0.0167935,0.00623445 -0.0161652,0.00771849 -0.0154061,0.00914006 -0.0145223,0.0104877 -0.0144963,0.0104806 -0.0153698,0.00915188 -0.0161218,0.00775079 -0.0167464,0.00628846 -0.0172387,0.00477643 -0.0175947,0.00322666 -0.0178118,0.00165139 -0.0178881,6.30718e-05 -0.017823,-0.00152574 -0.0176171,-0.0031025 -0.0172719,-0.00465475 -0.0167903,-0.00617021 -0.016176,-0.00763691 -0.0154339,-0.00904327 -0.0145698,-0.0103782 -0.0154822,-0.0110111 -0.0164128,-0.0095688 -0.0172095,-0.00804841 -0.0178656,-0.00646232 -0.018376,-0.00482348 -0.00910115,-0.00152781 0,-0.119381 0.00470654,0.000558853 0.0163423,0.00345859 0.0159634,0.00491934 0.0154543,0.00633994 0.0148191,0.0077088 0.0140629,0.00901474 0.013192,0.0102471 0.0133586,0.010395 0.0142264,0.00917161 0.0149824,0.00787617 0.0156209,0.00651888 0.0161366,0.0051104 0.0165257,0.0036618 0.016785,0.00218444 0.0169125,0.000689921 0.0169071,-0.000810011 0.0167691,-0.00230358 0.0164993,-0.00377907 0.0160999,-0.00522487 0.0155742,-0.00662965 0.0149261,-0.00798237 0.0141609,-0.00927241 0.0132844,-0.0104896 0.0133296,-0.0105144 0.0142174,-0.00927871 0.0149911,-0.00796852 0.0156443,-0.00659433 0.0161719,-0.00516716 0.0165696,-0.0036985 0.0168341,-0.00220012 0.0169635,-0.000684076 0.0169566,0.000837465 0.0168136,0.00235228 0.0165354,0.0038482 0.0161245,0.00531321 0.015584,0.00673554 0.0149184,0.00810377 0.0141329,0.00940691 0.0132339,0.0106345 0.0123941,0.0100039 0.0132015,0.00891131 0.0139129,0.0077539 0.014523,0.00654008 0.0150275,0.00527869 0.0154227,0.00397889 0.0157057,0.00265014 0.0158744,0.00130211 0.0159276,-5.53925e-05 0.0158649,-0.00141249 0.0156868,-0.00275931 0.0153946,-0.00408606 0.0149904,-0.00538308 0.0144772,-0.00664094 0.0138586,-0.00785048 0.0131392,-0.00900292 0.0123242,-0.0100898 0.0124101,-0.010153 0.0132364,-0.00904941 0.0139649,-0.00787889 0.0145901,-0.00665012 0.0151074,-0.00537218 0.0155131,-0.00405453 0.015804,-0.00270689 0.0159781,-0.00133925 0.0160341,3.82931e-05 0.0159716,0.00141555 0.0113345,0.00199713 z M 3.988,2.1 l -0.393574,0 0,-0.425158 0.00481572,0.000602856 0.0163775,0.00359213 0.0159814,0.0050716 0.015452,0.00650874 0.0147936,0.00789158 0.0140118,0.00920856 0.013113,0.0104487 0.0124664,0.00999913 0.0132699,0.0089053 0.0139776,0.00774724 0.0145846,0.0065333 0.0150863,0.00527224 0.0154793,0.00397316 0.0157606,0.00264542 0.0159282,0.0012986 0.015981,-5.75822e-05 0.0159184,-0.00141335 0.0157411,-0.00275893 0.0154502,-0.00408461 0.015048,-0.00538082 0.0145371,-0.00663823 0.0139215,-0.00784776 0.0132054,-0.00900069 0.012394,-0.0100887 0.0124387,-0.0101152 0.0132608,-0.00901054 0.013985,-0.00783945 0.0146061,-0.00661054 0.0151195,-0.00533287 0.0155213,-0.00401586 0.0158087,-0.00266923 0.0159794,-0.00130291 0.0160323,7.30182e-05 0.0159669,0.00144841 0.0157837,0.00281312 0.0154841,0.00415707 0.0150703,0.00547037 0.0145453,0.00674331 0.0139131,0.00796651 0.0131782,0.00913095 0.0123461,0.010228 0.01231,0.0101883 0.0131474,0.00908201 0.0138857,0.00790723 0.0145193,0.00667283 0.0150435,0.00538812 0.0154542,0.00406279 0.0157484,0.00270682 0.0159238,0.00133044 0.0159792,-5.59706e-05 0.0159141,-0.00144196 0.015729,-0.00281707 0.0154253,-0.00417095 0.0150054,-0.00549337 0.0144722,-0.00677438 0.01383,-0.00800431 0.0130835,-0.00917389 0.0122383,-0.0102743 0.0123259,-0.0103406 0.0131829,-0.00922313 0.0139389,-0.00803506 0.0145881,-0.00678542 0.0151256,-0.00548381 0.0155472,-0.00414018 0.0158497,-0.00276484 0.0160307,-0.00136832 0.016089,3.86918e-05 0.0160239,0.0014454 0.0112546,0.00201909 0,0.427101 -0.203645,0 -0.017748,-0.0298929 -0.0787896,0.0298929 -0.134767,0 -0.000522,-0.000478325 -0.00917552,-0.00704063 -0.00975424,-0.00621413 -0.0102587,-0.00534035 -0.0106851,-0.00442592 -0.0110302,-0.00347781 -0.0112913,-0.00250323 -0.0114665,-0.0015096 -0.0115545,-0.00050448 -0.0115545,0.00050448 -0.0114665,0.0015096 -0.0112913,0.00250323 -0.0110302,0.00347781 -0.0106851,0.00442592 -0.0102587,0.00534035 -0.00975424,0.00621413 -0.00917552,0.00704063 -0.000522,0.000478325 z "/>
<path fill="rgb(241,240,234)" stroke="rgb(241,240,234)" d="M 4.53475,3.1 l -0.940325,0 0,-0.0435638 0.00189765,-0.000425832 0.00368105,-0.0011889 0.00355677,-0.00152084 0.41492,-0.241388 0.00557886,-0.00357673 0.00524939,-0.00404481 0.00488077,-0.00448272 0.00447573,-0.00488718 0.0040373,-0.00525517 0.00356875,-0.00558397 0.00307357,-0.0058711 0.00255546,-0.00611443 0.00201829,-0.00631214 0.0676574,-0.248077 0.347001,-0.286674 -0.0777965,-0.131033 0.203645,0 0,0.88065 -0.0596748,0.11935 z M 4.29424,2.1 l -0.0670544,0.0254406 0.00604961,0.0137683 0.00481711,0.0142464 0.00354739,0.0146144 0.00225025,0.0148694 0.000935732,0.0150096 -0.000386021,0.0150338 -0.00170479,0.0149418 -0.00301039,0.0147343 -0.00429272,0.014413 -0.00554189,0.0139804 -0.00674823,0.0134397 -0.00790242,0.0127951 -0.00899555,0.0120517 -0.0100192,0.0112151 -0.0109654,0.0102919 -0.0118268,0.00928919 -0.0125969,0.00821467 -0.0132697,0.00707667 -0.0138399,0.00588399 -0.0143031,0.00464585 -0.0146559,0.0033718 -0.0148953,0.0020717 -0.0150197,0.000755592 -0.0150281,-0.000566356 -0.0149203,-0.00188393 -0.0146972,-0.00318694 -0.0143605,-0.00446533 -0.0139129,-0.00570921 -0.0133577,-0.00690898 -0.0126994,-0.00805536 -0.0119429,-0.00913949 -0.0110941,-0.010153 -0.0101596,-0.0110881 -0.00914663,-0.0119374 -0.00806295,-0.0126946 -0.331007,0.191955 0,-0.378321 0.393574,0 -0.00800498,0.00733521 -0.00781353,0.00852698 -0.00704063,0.00917552 -0.00621413,0.00975424 -0.00534035,0.0102587 -0.00442592,0.0106851 -0.00347781,0.0110302 -0.00250323,0.0112913 -0.0015096,0.0114665 -0.00050448,0.0115545 0.00050448,0.0115545 0.0015096,0.0114665 0.00250323,0.0112913 0.00347781,0.0110302 0.00442592,0.0106851 0.00534035,0.0102587 0.00621413,0.00975424 0.00704063,0.00917552 0.00781353,0.00852698 0.00852698,0.00781353 0.00917552,0.00704063 0.00975424,0.00621413 0.0102587,0.00534035 0.0106851,0.00442592 0.0110302,0.00347781 0.0112913,0.00250323 0.0114665,0.0015096 0.0115545,0.00050448 0.0115545,-0.00050448 0.0114665,-0.0015096 0.0112913,-0.00250323 0.0110302,-0.00347781 0.0106851,-0.00442592 0.0102587,-0.00534035 0.00975424,-0.00621413 0.00917552,-0.00704063 0.00852698,-0.00781353 0.00781353,-0.00852698 0.00704063,-0.00917552 0.00621413,-0.00975424 0.00534035,-0.0102587 0.00442592,-0.0106851 0.00347781,-0.0110302 0.00250323,-0.0112913 0.0015096,-0.0114665 0.00050448,-0.0115545 -0.00050448,-0.0115545 -0.0015096,-0.0114665 -0.00250323,-0.0112913 -0.00347781,-0.0110302 -0.00442592,-0.0106851 -0.00534035,-0.0102587 -0.00621413,-0.00975424 -0.00704063,-0.00917552 -0.00781353,-0.00852698 -0.00800498,-0.00733521 0.134767,0 z "/>
<path fill="rgb(241,240,234)" stroke="rgb(241,240,234)" d="M 4.53475,3.1 l -0.5,1 -0.440325,0 0,-1 0.940325,0 z "/>
<path fill="rgb(241,240,234)" stroke="rgb(241,240,234)" d="M 3.59443,4.1 l 0.440325,0 -0.440325,0.88065 0,-0.88065 z "/>
<path fill="rgb(241,240,234)" stroke="rgb(241,240,234)" d="M 4.59443,2.1 l 0,-0.427101 0.00458159,0.000821947 0.0155271,0.00421491 0.015099,0.0055565 0.0145553,0.00685551 0.0139001,0.00810201 0.0131384,0.00928643 0.0122761,0.0103997 0.0122837,0.010399 0.0131523,0.00927602 0.0139185,0.00808092 0.0145765,0.00682294 0.015121,0.00551187 0.0155479,0.00415791 0.0158539,0.0027716 0.0160364,0.00136373 0.0160942,-5.47531e-05 0.0160268,-0.00147281 0.0158346,-0.00287941 0.0155193,-0.0042636 0.0150832,-0.00561462 0.0145297,-0.00692196 0.0138632,-0.00817543 0.0130888,-0.0093653 0.0122126,-0.0104823 0.0113873,-0.00980637 0.0121784,-0.00880471 0.0128816,-0.00773955 0.0134919,-0.00661855 0.0140048,-0.00544981 0.0144168,-0.00424176 0.0147247,-0.0030031 0.0581801,-0.11636 -0.0161015,-0.00163883 -0.0161822,-0.000279951 -0.0161485,0.00108091 -0.0160006,0.00243413 -0.0157394,0.00377012 -0.0153669,0.00507944 -0.0148857,0.00635283 -0.0142992,0.00758128 -0.0136115,0.0087561 -0.0128276,0.00986897 -0.0133914,0.0102742 -0.0142317,0.00907451 -0.0149649,0.00780643 -0.0155854,0.00647956 -0.0160885,0.00510389 -0.0164704,0.00368978 -0.0167283,0.00224788 -0.0168602,0.000789059 -0.0168651,-0.00067571 -0.016743,-0.00213539 -0.0164948,-0.00357899 -0.0161224,-0.00499563 -0.0156286,-0.00637465 -0.015017,-0.00770566 -0.0142924,-0.00897864 -0.0134601,-0.010184 -0.0134322,-0.0101705 -0.014257,-0.0089778 -0.0149762,-0.00771864 -0.0155844,-0.0064023 -0.0160772,-0.00503853 -0.0146515,-0.00323957 0,-0.121377 0.00445645,0.000785223 0.0154935,0.00412858 0.0150816,0.00544428 0.0145581,0.00671973 0.0139271,0.0079455 0.013193,0.00911253 0.0123615,0.0102122 0.0123705,0.0102126 0.0132083,0.0091032 0.0139468,0.00792544 0.0145806,0.00668816 0.0151049,0.00540065 0.0155158,0.00407257 0.0158101,0.00271392 0.0159858,0.00133488 0.0160413,-5.41863e-05 0.0159764,-0.00144284 0.0157915,-0.00282067 0.0154879,-0.0041773 0.0150681,-0.00550257 0.0145351,-0.00678651 0.013893,-0.00801948 0.0131465,-0.00919222 0.0123012,-0.0102959 0.0119273,-0.00998715 0.0127436,-0.0089222 0.013465,-0.00779088 0.0140863,-0.00660159 0.0146028,-0.0053632 0.0150106,-0.0040849 0.0153068,-0.00277622 0.0154891,-0.00144688 0.0155561,-0.000106784 0.0155075,0.00123411 0.0153434,0.00256583 0.0150653,0.00387845 0.014675,0.00516222 0.0141756,0.00640759 0.0447979,-0.0895957 -0.0132058,-0.0104571 -0.0140778,-0.00924983 -0.0148398,-0.00797025 -0.0154857,-0.00662837 -0.0160107,-0.00523467 -0.0164105,-0.00380006 -0.016682,-0.00233574 -0.0168231,-0.000853161 -0.0168327,0.000636083 -0.0167107,0.00212036 -0.0164581,0.00358805 -0.0160769,0.00502771 -0.01557,0.00642806 -0.0149413,0.00777816 -0.0141959,0.00906747 -0.0133396,0.0102859 -0.0133713,0.0103235 -0.0142196,0.00911957 -0.0149599,0.00784636 -0.0155865,0.00651351 -0.0160946,0.00513116 -0.0164803,0.0037098 -0.0167408,0.00226024 -0.0168741,0.000793505 -0.0168791,-0.000679265 -0.0167558,-0.00214687 -0.0165051,-0.00359816 -0.0161289,-0.0050221 -0.0156302,-0.00640786 -0.0150127,-0.00774492 -0.014281,-0.00902311 -0.0134408,-0.0102327 -0.0134108,-0.0102175 -0.0142433,-0.00902085 -0.0149693,-0.00775677 -0.0155834,-0.00643471 -0.016081,-0.00506453 -0.0146784,-0.00326106 0,-0.219752 0.940325,4.44089e-16 -0.5,1 -0.440325,0 z "/>
<path fill="rgb(241,240,234)" stroke="rgb(241,240,234)" d="M 4.59443,2.1 l 0.440325,0 -0.440325,0.88065 0,-0.88065 z "/>
<path fill="rgb(241,240,234)" stroke="rgb(241,240,234)" d="M 3.56459,0.2 l 3.26459,0 0.00883388,0.000390951 0.00876481,0.0011698 0.0086272,0.0019395 0.00842214,0.00269403 0.00815123,0.0034275 0.00781658,0.00413417 0.00742081,0.00480851 0.00696702,0.00544526 0.00645876,0.00603943 0.00589999,0.00658638 0.00529509,0.00708183 0.00464879,0.0075219 0.00396614,0.00790316 0.00325248,0.00822263 0.00251339,0.0084778 0.00175464,0.00866669 0.000982177,0.00878781 0.000202033,0.00884022 -0.000579691,0.0088235 -0.00135688,0.0087378 -0.00212346,0.00858377 -0.00287344,0.00836263 -0.00360095,0.0080761 -3.26459,6.52918 -0.00412828,0.00744612 -0.0047467,0.00706797 -0.00533072,0.00663859 -0.00587609,0.00616109 -0.00637887,0.00563892 -0.00683541,0.00507588 -0.0072424,0.00447605 -0.0075969,0.00384377 -0.00789632,0.00318363 -0.00813851,0.00250041 -0.00832171,0.00179907 -0.00844458,0.00108468 -0.00850624,0.000362437 0,-0.323607 3.10279,-6.20557 -3.10279,2.66454e-15 0,-0.2 z "/>
<path fill="rgb(241,240,234)" stroke="rgb(241,240,234)" d="M 3.56459,0.2 l 0,0.2 -3.10279,0 3.10279,6.20557 0,0.323607 -0.00850624,-0.000362437 -0.00844458,-0.00108468 -0.00832171,-0.00179907 -0.00813851,-0.00250041 -0.00789632,-0.00318363 -0.0075969,-0.00384377 -0.0072424,-0.00447605 -0.00683541,-0.00507588 -0.00637887,-0.00563892 -0.00587609,-0.00616109 -0.00533072,-0.00663859 -0.0047467,-0.00706797 -0.00412828,-0.00744612 -3.26459,-6.52918 -0.00360095,-0.0080761 -0.00287344,-0.00836263 -0.00212346,-0.00858377 -0.00135688,-0.0087378 -0.000579691,-0.0088235 0.000202033,-0.00884022 0.000982177,-0.00878781 0.00175464,-0.00866669 0.00251339,-0.0084778 0.00325248,-0.00822263 0.00396614,-0.00790316 0.00464879,-0.0075219 0.00529509,-0.00708183 0.00589999,-0.00658638 0.00645876,-0.00603943 0.00696702,-0.00544526 0.00742081,-0.00480851 0.00781658,-0.00413417 0.00815123,-0.0034275 0.00842214,-0.00269403 0.0086272,-0.0019395 0.00876481,-0.0011698 0.00883388,-0.000390951 3.26459,-8.88178e-16 z "/>
<path fill="rgb(42,41,42)" stroke="rgb(42,41,42)" d="M 3.09373,2.69027 l 0.00050448,-0.0115545 0.0015096,-0.0114665 0.00250323,-0.0112913 0.00347781,-0.0110302 0.00442592,-0.0106851 0.00534035,-0.0102587 0.00621413,-0.00975424 0.00704063,-0.00917552 0.00781353,-0.00852698 0.00852698,-0.00781353 0.00917552,-0.00704063 0.00975424,-0.00621413 0.0102587,-0.00534035 0.0106851,-0.00442592 0.0110302,-0.00347781 0.0112913,-0.00250323 0.0114665,-0.0015096 0.0115545,-0.00050448 0.0115545,0.00050448 0.0114665,0.0015096 0.0112913,0.00250323 0.0110302,0.00347781 0.0106851,0.00442592 0.0102587,0.00534035 0.00975424,0.00621413 0.00917552,0.00704063 0.00852698,0.00781353 0.00781353,0.00852698 0.00704063,0.00917552 0.00621413,0.00975424 0.00534035,0.0102587 0.00442592,0.0106851 0.00347781,0.0110302 0.00250323,0.0112913 0.0015096,0.0114665 0.00050448,0.0115545 -0.00050448,0.0115545 -0.0015096,0.0114665 -0.00250323,0.0112913 -0.00347781,0.0110302 -0.00442592,0.0106851 -0.00534035,0.0102587 -0.00621413,0.00975424 -0.00704063,0.00917552 -0.00781353,0.00852698 -0.00852698,0.00781353 -0.00917552,0.00704063 -0.00975424,0.00621413 -0.0102587,0.00534035 -0.0106851,0.00442592 -0.0110302,0.00347781 -0.0112913,0.00250323 -0.0114665,0.0015096 -0.0115545,0.00050448 -0.0115545,-0.00050448 -0.0114665,-0.0015096 -0.0112913,-0.00250323 -0.0110302,-0.00347781 -0.0106851,-0.00442592 -0.0102587,-0.00534035 -0.00975424,-0.00621413 -0.00917552,-0.00704063 -0.00852698,-0.00781353 -0.00781353,-0.00852698 -0.00704063,-0.00917552 -0.00621413,-0.00975424 -0.00534035,-0.0102587 -0.00442592,-0.0106851 -0.00347781,-0.0110302 -0.00250323,-0.0112913 -0.0015096,-0.0114665 -0.00050448,-0.0115545 z "/>
<path fill="rgb(42,41,42)" stroke="rgb(42,41,42)" d="M 3.94117,2.20108 l 0.00050448,-0.0115545 0.0015096,-0.0114665 0.00250323,-0.0112913 0.00347781,-0.0110302 0.00442592,-0.0106851 0.00534035,-0.0102587 0.00621413,-0.00975424 0.00704063,-0.00917552 0.00781353,-0.00852698 0.00852698,-0.00781353 0.00917552,-0.00704063 0.00975424,-0.00621413 0.0102587,-0.00534035 0.0106851,-0.00442592 0.0110302,-0.00347781 0.0112913,-0.00250323 0.0114665,-0.0015096 0.0115545,-0.00050448 0.0115545,0.00050448 0.0114665,0.0015096 0.0112913,0.00250323 0.0110302,0.00347781 0.0106851,0.00442592 0.0102587,0.00534035 0.00975424,0.00621413 0.00917552,0.00704063 0.00852698,0.00781353 0.00781353,0.00852698 0.00704063,0.00917552 0.00621413,0.00975424 0.00534035,0.0102587 0.00442592,0.0106851 0.00347781,0.0110302 0.00250323,0.0112913 0.0015096,0.0114665 0.00050448,0.0115545 -0.00050448,0.0115545 -0.0015096,0.0114665 -0.00250323,0.0112913 -0.00347781,0.0110302 -0.00442592,0.0106851 -0.00534035,0.0102587 -0.00621413,0.00975424 -0.00704063,0.00917552 -0.00781353,0.00852698 -0.00852698,0.00781353 -0.00917552,0.00704063 -0.00975424,0.00621413 -0.0102587,0.00534035 -0.0106851,0.00442592 -0.0110302,0.00347781 -0.0112913,0.00250323 -0.0114665,0.0015096 -0.0115545,0.00050448 -0.0115545,-0.00050448 -0.0114665,-0.0015096 -0.0112913,-0.00250323 -0.0110302,-0.00347781 -0.0106851,-0.00442592 -0.0102587,-0.00534035 -0.00975424,-0.00621413 -0.00917552,-0.00704063 -0.00852698,-0.00781353 -0.00781353,-0.00852698 -0.00704063,-0.00917552 -0.00621413,-0.00975424 -0.00534035,-0.0102587 -0.00442592,-0.0106851 -0.00347781,-0.0110302 -0.00250323,-0.0112913 -0.0015096,-0.0114665 -0.00050448,-0.0115545 z "/>
<path fill="rgb(42,41,42)" stroke="rgb(42,41,42)" d="M 3.56585,2.40706 l -1.09428,0 -0.545662,-1.09132 1.63995,0 0.0189709,0.00172414 0.018744,0.0033956 0.0183701,0.00504044 0.0178522,0.00664575 0.0171943,0.00819896 0.0164016,0.00968787 0.0154803,0.0111008 0.0145518,0.0104268 0.0154239,0.00908706 0.016173,0.0076749 0.0167932,0.00620155 0.0172795,0.00467875 0.017628,0.00311864 0.0178359,0.00153366 0.0179016,-6.35504e-05 0.0178246,-0.00166025 0.0176054,-0.00324371 0.0172458,-0.00480131 0.0167488,-0.00632062 0.0161181,-0.00778954 0.015359,-0.00919634 0.0144774,-0.0105298 0.013568,-0.00991587 0.0143587,-0.00873172 0.0150463,-0.00748488 0.0156259,-0.00618431 0.0160933,-0.00483935 0.0164452,-0.00345964 0.0166791,-0.0020551 0.0167932,-0.000635799 0.0167867,0.000788062 0.0166597,0.00220627 0.0164132,0.00360863 0.0160488,0.00498509 0.0155692,0.00632576 0.0149778,0.00762102 0.0142789,0.00886157 0.0134775,0.0100385 0.0134593,0.0100144 0.0142675,0.00882485 0.014971,0.0075704 0.0155644,0.00626031 0.0160434,0.00490421 0.0164044,0.00351207 0.016645,0.00209411 0.0167632,0.000660769 0.0167582,-0.000777432 0.01663,-0.00220992 0.0163796,-0.00362617 0.0160088,-0.00501576 0.0155204,-0.00636849 0.0149179,-0.00767442 0.0142058,-0.00892394 0.0133892,-0.0101079 0.0134595,-0.0101532 0.0142863,-0.0089526 0.0150062,-0.00768506 0.015614,-0.00636007 0.016105,-0.00498753 0.0164756,-0.00357771 0.0167231,-0.00214114 0.0168456,-0.000688564 0.0168421,0.00076916 0.0167127,0.00222113 0.0164583,0.0036565 0.016081,0.00506453 0.0155834,0.00643471 0.0149693,0.00775677 0.0142433,0.00902085 0.0134108,0.0102175 0.0134408,0.0102327 0.014281,0.00902311 0.0150127,0.00774492 0.0156302,0.00640786 0.0161289,0.0050221 0.0165051,0.00359816 0.0167558,0.00214687 0.0168791,0.000679265 0.0168741,-0.000793505 0.0167408,-0.00226024 0.0164803,-0.0037098 0.0160946,-0.00513116 0.0155865,-0.00651351 0.0149599,-0.00784636 0.0142196,-0.00911957 0.0133713,-0.0103235 0.0133396,-0.0102859 0.0141959,-0.00906747 0.0149413,-0.00777816 0.01557,-0.00642806 0.0160769,-0.00502771 0.0164581,-0.00358805 0.0167107,-0.00212036 0.0168327,-0.000636083 0.0168231,0.000853161 0.016682,0.00233574 0.0164105,0.00380006 0.0160107,0.00523467 0.0154857,0.00662837 0.0148398,0.00797025 0.0140778,0.00924983 0.0132058,0.0104571 -0.0447979,0.0895957 -0.0141756,-0.00640759 -0.014675,-0.00516222 -0.0150653,-0.00387845 -0.0153434,-0.00256583 -0.0155075,-0.00123411 -0.0155561,0.000106784 -0.0154891,0.00144688 -0.0153068,0.00277622 -0.0150106,0.0040849 -0.0146028,0.0053632 -0.0140863,0.00660159 -0.013465,0.00779088 -0.0127436,0.0089222 -0.0119273,0.00998715 -0.0123012,0.0102959 -0.0131465,0.00919222 -0.013893,0.00801948 -0.0145351,0.00678651 -0.0150681,0.00550257 -0.0154879,0.0041773 -0.0157915,0.00282067 -0.0159764,0.00144284 -0.0160413,5.41863e-05 -0.0159858,-0.00133488 -0.0158101,-0.00271392 -0.0155158,-0.00407257 -0.0151049,-0.00540065 -0.0145806,-0.00668816 -0.0139468,-0.00792544 -0.0132083,-0.0091032 -0.0123705,-0.0102126 -0.0123615,-0.0102122 -0.013193,-0.00911253 -0.0139271,-0.0079455 -0.0145581,-0.00671973 -0.0150816,-0.00544428 -0.0154935,-0.00412858 -0.0157909,-0.00278235 -0.0159716,-0.00141555 -0.0160341,-3.82931e-05 -0.0159781,0.00133925 -0.015804,0.00270689 -0.0155131,0.00405453 -0.0151074,0.00537218 -0.0145901,0.00665012 -0.0139649,0.00787889 -0.0132364,0.00904941 -0.0124101,0.010153 -0.0123242,0.0100898 -0.0131392,0.00900292 -0.0138586,0.00785048 -0.0144772,0.00664094 -0.0149904,0.00538308 -0.0153946,0.00408606 -0.0156868,0.00275931 -0.0158649,0.00141249 -0.0159276,5.53925e-05 -0.0158744,-0.00130211 -0.0157057,-0.00265014 -0.0154227,-0.00397889 -0.0150275,-0.00527869 -0.014523,-0.00654008 -0.0139129,-0.0077539 -0.0132015,-0.00891131 -0.0123941,-0.0100039 -0.0132339,-0.0106345 -0.0141329,-0.00940691 -0.0149184,-0.00810377 -0.015584,-0.00673554 -0.0161245,-0.00531321 -0.0165354,-0.0038482 -0.0168136,-0.00235228 -0.0169566,-0.000837465 -0.0169635,0.000684076 -0.0168341,0.00220012 -0.0165696,0.0036985 -0.0161719,0.00516716 -0.0156443,0.00659433 -0.0149911,0.00796852 -0.0142174,0.00927871 -0.0133296,0.0105144 -0.0132844,0.0104896 -0.0141609,0.00927241 -0.0149261,0.00798237 -0.0155742,0.00662965 -0.0160999,0.00522487 -0.0164993,0.00377907 -0.0167691,0.00230358 -0.0169071,0.000810011 -0.0169125,-0.000689921 -0.016785,-0.00218444 -0.0165257,-0.0036618 -0.0161366,-0.0051104 -0.0156209,-0.00651888 -0.0149824,-0.00787617 -0.0142264,-0.00917161 -0.0133586,-0.010395 -0.013192,-0.0102471 -0.0140629,-0.00901474 -0.0148191,-0.0077088 -0.0154543,-0.00633994 -0.0159634,-0.00491934 -0.0163423,-0.00345859 -0.0165877,-0.00196962 -0.0166978,-0.000464568 0,0.118198 0.0189437,0.00144139 0.0187363,0.00314527 0.018376,0.00482348 0.0178656,0.00646232 0.0172095,0.00804841 0.0164128,0.0095688 0.0154822,0.0110111 0.0145698,0.0103782 0.0154339,0.00904327 0.016176,0.00763691 0.0167903,0.00617021 0.0172719,0.00465475 0.0176171,0.0031025 0.017823,0.00152574 0.0178881,-6.30718e-05 0.0178118,-0.00165139 0.0175947,-0.00322666 0.0172387,-0.00477643 0.0167464,-0.00628846 0.0161218,-0.00775079 0.0153698,-0.00915188 0.0144963,-0.0104806 0.0145223,-0.0104877 0.0154061,-0.00914006 0.0161652,-0.00771849 0.0167935,-0.00623445 0.0172858,-0.00469995 0.0176383,-0.00312741 0.017848,-0.00152957 0.0179132,8.06614e-05 0.0178335,0.00169024 0.0176094,0.00328613 0.0172428,0.00485543 0.0167367,0.00638543 0.0160951,0.00786375 0.0153232,0.00927843 0.0144273,0.010618 0.0134773,0.009967 0.014278,0.00878163 0.0149747,0.0075323 0.0155624,0.00622813 0.0160368,0.00487859 0.0163943,0.00349353 0.0166325,0.00208302 0.0167495,0.000657343 0.0167446,-0.000773121 0.0166177,-0.00219795 0.0163698,-0.00360678 0.0160026,-0.00498934 0.015519,-0.00633556 0.0149223,-0.00763565 0.0142169,-0.00888013 0.013408,-0.0100599 0.0134804,-0.0101065 0.0142995,-0.00890997 0.0150127,-0.0076474 0.0156146,-0.00632819 0.016101,-0.0049621 0.016468,-0.00355925 0.016713,-0.00213004 0.0168343,-0.000685048 0.0168309,0.000765016 0.0167027,0.00220941 0.0164509,0.00363744 0.0160772,0.00503853 0.0155844,0.0064023 0.0149762,0.00771864 0.014257,0.0089778 0.0134322,0.0101705 0.0134601,0.010184 0.0142924,0.00897864 0.015017,0.00770566 0.0156286,0.00637465 0.0161224,0.00499563 0.0164948,0.00357899 0.016743,0.00213539 0.0168651,0.00067571 0.0168602,-0.000789059 0.0167283,-0.00224788 0.0164704,-0.00368978 0.0160885,-0.00510389 0.0155854,-0.00647956 0.0149649,-0.00780643 0.0142317,-0.00907451 0.0133914,-0.0102742 0.0128276,-0.00986897 0.0136115,-0.0087561 0.0142992,-0.00758128 0.0148857,-0.00635283 0.0153669,-0.00507944 0.0157394,-0.00377012 0.0160006,-0.00243413 0.0161485,-0.00108091 0.0161822,0.000279951 0.0161015,0.00163883 -0.0581801,0.11636 -0.0147247,0.0030031 -0.0144168,0.00424176 -0.0140048,0.00544981 -0.0134919,0.00661855 -0.0128816,0.00773955 -0.0121784,0.00880471 -0.0113873,0.00980637 -0.0122126,0.0104823 -0.0130888,0.0093653 -0.0138632,0.00817543 -0.0145297,0.00692196 -0.0150832,0.00561462 -0.0155193,0.0042636 -0.0158346,0.00287941 -0.0160268,0.00147281 -0.0160942,5.47531e-05 -0.0160364,-0.00136373 -0.0158539,-0.0027716 -0.0155479,-0.00415791 -0.015121,-0.00551187 -0.0145765,-0.00682294 -0.0139185,-0.00808092 -0.0131523,-0.00927602 -0.0122837,-0.010399 -0.0122761,-0.0103997 -0.0131384,-0.00928643 -0.0139001,-0.00810201 -0.0145553,-0.00685551 -0.015099,-0.0055565 -0.0155271,-0.00421491 -0.0158362,-0.00284104 -0.0160239,-0.0014454 -0.016089,-3.86918e-05 -0.0160307,0.00136832 -0.0158497,0.00276484 -0.0155472,0.00414018 -0.0151256,0.00548381 -0.0145881,0.00678542 -0.0139389,0.00803506 -0.0131829,0.00922313 -0.0123259,0.0103406 -0.0122383,0.0102743 -0.0130835,0.00917389 -0.01383,0.00800431 -0.0144722,0.00677438 -0.0150054,0.00549337 -0.0154253,0.00417095 -0.015729,0.00281707 -0.0159141,0.00144196 -0.0159792,5.59706e-05 -0.0159238,-0.00133044 -0.0157484,-0.00270682 -0.0154542,-0.00406279 -0.0150435,-0.00538812 -0.0145193,-0.00667283 -0.0138857,-0.00790723 -0.0131474,-0.00908201 -0.01231,-0.0101883 -0.0123461,-0.010228 -0.0131782,-0.00913095 -0.0139131,-0.00796651 -0.0145453,-0.00674331 -0.0150703,-0.00547037 -0.0154841,-0.00415707 -0.0157837,-0.00281312 -0.0159669,-0.00144841 -0.0160323,-7.30182e-05 -0.0159794,0.00130291 -0.0158087,0.00266923 -0.0155213,0.00401586 -0.0151195,0.00533287 -0.0146061,0.00661054 -0.013985,0.00783945 -0.0132608,0.00901054 -0.0124387,0.0101152 -0.012394,0.0100887 -0.0132054,0.00900069 -0.0139215,0.00784776 -0.0145371,0.00663823 -0.015048,0.00538082 -0.0154502,0.00408461 -0.0157411,0.00275893 -0.0159184,0.00141335 -0.015981,5.75822e-05 -0.0159282,-0.0012986 -0.0157606,-0.00264542 -0.0154793,-0.00397316 -0.0150863,-0.00527224 -0.0145846,-0.0065333 -0.0139776,-0.00774724 -0.0132699,-0.0089053 -0.0124664,-0.00999913 -0.013113,-0.0104487 -0.0140118,-0.00920856 -0.0147936,-0.00789158 -0.015452,-0.00650874 -0.0159814,-0.0050716 -0.0163775,-0.00359213 -0.016637,-0.0020827 -0.0167576,-0.00055589 0,0.734254 z "/>
<path fill="rgb(42,41,42)" stroke="rgb(42,41,42)" d="M 3.36217,2.95272 l 0.206191,0.0628641 0.00278968,0.000724233 0.00284054,0.000488041 0.00287143,0.000248419 0.00288215,7.0512e-06 0.00287261,-0.000234366 0.00284289,-0.000474136 0.00279319,-0.000710574 0.00272386,-0.00094202 0.00263539,-0.00116684 0.00252841,-0.00138347 0.00240365,-0.00159037 0.143327,-0.0829799 -0.0905309,-0.153375 -0.289171,0.178524 z M 3.9875,2.78555 l 0,0.0443879 -0.383933,0.223362 -0.00355677,0.00152084 -0.00368105,0.0011889 -0.00377442,0.000846977 -0.0038361,0.000497945 -0.00386557,0.000144732 -0.00386259,-0.000209696 -0.00382718,-0.000562364 -0.00375964,-0.00091031 -0.259008,-0.0754288 -0.218766,0.0854969 -0.10813,-0.183579 0.100589,-0.0905105 0.00959786,0.0117294 0.0105973,0.0108349 0.0115138,0.00985544 0.0123401,0.00879884 0.0130697,0.00767331 0.013697,0.00648769 0.014217,0.00525124 0.0146256,0.00397367 0.0149196,0.00266497 0.0150968,0.00133539 0.0151558,-4.63999e-06 0.015096,-0.00134464 0.014918,-0.0026741 0.0146231,-0.00398262 0.0142137,-0.00525995 0.013693,-0.00649607 0.013065,-0.00768132 0.0123347,-0.00880639 0.0115078,-0.00986249 0.0105907,-0.0108413 0.00959067,-0.0117353 0.00851553,-0.0125373 0.00737368,-0.0132411 0.00617407,-0.0138412 0.00492611,-0.0143329 0.00363956,-0.0147123 0.0023245,-0.0149765 0.000991236,-0.0151233 -0.000349793,-0.0151517 -0.00168808,-0.0150615 -0.00301315,-0.0148532 -0.00431461,-0.0145287 -0.00558228,-0.0140903 -0.00680623,-0.0135415 0.550696,-0.319355 0.00806295,0.0126946 0.00914663,0.0119374 0.0101596,0.0110881 0.0110941,0.010153 0.0119429,0.00913949 0.0116554,0.00739315 0,0.220165 -0.303471,0.185145 0.0905309,0.155892 0.21294,-0.124423 z "/>
<path fill="rgb(42,41,42)" stroke="rgb(42,41,42)" d="M 3.9875,2.34877 l 0.00104398,0.000662208 0.0133577,0.00690898 0.0139129,0.00570921 0.0143605,0.00446533 0.0146972,0.00318694 0.0149203,0.00188393 0.0150281,0.000566356 0.0150197,-0.000755592 0.0148953,-0.0020717 0.0146559,-0.0033718 0.0143031,-0.00464585 0.0138399,-0.00588399 0.0132697,-0.00707667 0.0125969,-0.00821467 0.0118268,-0.00928919 0.0109654,-0.0102919 0.0100192,-0.0112151 0.00899555,-0.0120517 0.00790242,-0.0127951 0.00674823,-0.0134397 0.00554189,-0.0139804 0.00429272,-0.014413 0.00301039,-0.0147343 0.00170479,-0.0149418 0.000386021,-0.0150338 -0.000935732,-0.0150096 -0.00225025,-0.0148694 -0.00354739,-0.0146144 -0.00481711,-0.0142464 -0.00604961,-0.0137683 0.145844,-0.0553335 0.0955445,0.160926 -0.347001,0.286674 -0.0676574,0.248077 -0.00201829,0.00631214 -0.00255546,0.00611443 -0.00307357,0.0058711 -0.00356875,0.00558397 -0.0040373,0.00525517 -0.00447573,0.00488718 -0.00488077,0.00448272 -0.00524939,0.00404481 -0.00557886,0.00357673 -0.0309863,0.0180269 0,-0.0443879 0.0108501,-0.00633981 0.00369412,-0.00238761 0.00346465,-0.00270987 0.00320715,-0.00301021 0.00292371,-0.0032862 0.00261661,-0.00353561 0.00228835,-0.00375641 0.00194158,-0.00394683 0.0653607,-0.246423 -0.096347,0.0587806 0,-0.220165 z "/>
<path fill="rgb(187,30,16)" stroke="rgb(187,30,16)" d="M 3.56459,5.04033 l 1.97016,-3.94033 -1.97016,-4.44089e-16 0,-0.7 3.10279,-2.66454e-15 -3.10279,6.20557 0,-1.56525 z "/>
<path fill="rgb(187,30,16)" stroke="rgb(187,30,16)" d="M 3.56459,0.2 l 0,-0.2 3.26459,-1.77636e-15 0.0265016,0.00117285 0.0262944,0.00350939 0.0258816,0.00581849 0.0252664,0.00808209 0.0244537,0.0102825 0.0234497,0.0124025 0.0222624,0.0144255 0.0209011,0.0163358 0.0193763,0.0181183 0.0177,0.0197591 0.0158853,0.0212455 0.0139464,0.0225657 0.0118984,0.0237095 0.00975744,0.0246679 0.00754016,0.0254334 0.00526392,0.0260001 0.00294653,0.0263634 0.000606098,0.0265207 -0.00173907,0.0264705 -0.00407065,0.0262134 -0.00637039,0.0257513 -0.00862033,0.0250879 -0.0108029,0.0242283 -3.26459,6.52918 -0.0123848,0.0223384 -0.0142401,0.0212039 -0.0159921,0.0199158 -0.0176283,0.0184833 -0.0191366,0.0169168 -0.0205062,0.0152277 -0.0217272,0.0134282 -0.0227907,0.0115313 -0.023689,0.00955089 -0.0244155,0.00750124 -0.0249651,0.00539721 -0.0253337,0.00325405 -0.0255187,0.00108731 0,-0.2 0.00850624,-0.000362437 0.00844458,-0.00108468 0.00832171,-0.00179907 0.00813851,-0.00250041 0.00789632,-0.00318363 0.0075969,-0.00384377 0.0072424,-0.00447605 0.00683541,-0.00507588 0.00637887,-0.00563892 0.00587609,-0.00616109 0.00533072,-0.00663859 0.0047467,-0.00706797 0.00412828,-0.00744612 3.26459,-6.52918 0.00360095,-0.0080761 0.00287344,-0.00836263 0.00212346,-0.00858377 0.00135688,-0.0087378 0.000579691,-0.0088235 -0.000202033,-0.00884022 -0.000982177,-0.00878781 -0.00175464,-0.00866669 -0.00251339,-0.0084778 -0.00325248,-0.00822263 -0.00396614,-0.00790316 -0.00464879,-0.0075219 -0.00529509,-0.00708183 -0.00589999,-0.00658638 -0.00645876,-0.00603943 -0.00696702,-0.00544526 -0.00742081,-0.00480851 -0.00781658,-0.00413417 -0.00815123,-0.0034275 -0.00842214,-0.00269403 -0.0086272,-0.0019395 -0.00876481,-0.0011698 -0.00883388,-0.000390951 -3.26459,0 z "/>
<path fill="rgb(187,30,16)" stroke="rgb(187,30,16)" d="M 3.56459,0.2 l -3.26459,8.88178e-16 -0.00883388,0.000390951 -0.00876481,0.0011698 -0.0086272,0.0019395 -0.00842214,0.00269403 -0.00815123,0.0034275 -0.00781658,0.00413417 -0.00742081,0.00480851 -0.00696702,0.00544526 -0.00645876,0.00603943 -0.00589999,0.00658638 -0.00529509,0.00708183 -0.00464879,0.0075219 -0.00396614,0.00790316 -0.00325248,0.00822263 -0.00251339,0.0084778 -0.00175464,0.00866669 -0.000982177,0.00878781 -0.000202033,0.00884022 0.000579691,0.0088235 0.00135688,0.0087378 0.00212346,0.00858377 0.00287344,0.00836263 0.00360095,0.0080761 3.26459,6.52918 0.00412828,0.00744612 0.0047467,0.00706797 0.00533072,0.00663859 0.00587609,0.00616109 0.00637887,0.00563892 0.00683541,0.00507588 0.0072424,0.00447605 0.0075969,0.00384377 0.00789632,0.00318363 0.00813851,0.00250041 0.00832171,0.00179907 0.00844458,0.00108468 0.00850624,0.000362437 0,0.2 -0.0255187,-0.00108731 -0.0253337,-0.00325405 -0.0249651,-0.00539721 -0.0244155,-0.00750124 -0.023689,-0.00955089 -0.0227907,-0.0115313 -0.0217272,-0.0134282 -0.0205062,-0.0152277 -0.0191366,-0.0169168 -0.0176283,-0.0184833 -0.0159921,-0.0199158 -0.0142401,-0.0212039 -0.0123848,-0.0223384 -3.26459,-6.52918 -0.0108029,-0.0242283 -0.00862033,-0.0250879 -0.00637039,-0.0257513 -0.00407065,-0.0262134 -0.00173907,-0.0264705 0.000606098,-0.0265207 0.00294653,-0.0263634 0.00526392,-0.0260001 0.00754016,-0.0254334 0.00975744,-0.0246679 0.0118984,-0.0237095 0.0139464,-0.0225657 0.0158853,-0.0212455 0.0177,-0.0197591 0.0193763,-0.0181183 0.0209011,-0.0163358 0.0222624,-0.0144255 0.0234497,-0.0124025 0.0244537,-0.0102825 0.0252664,-0.00808209 0.0258816,-0.00581849 0.0262944,-0.00350939 0.0265016,-0.00117285 3.26459,0 0,0.2 z "/>
<path fill="rgb(187,30,16)" stroke="rgb(187,30,16)" d="M 3.56459,5.04033 l 0,1.56525 -3.10279,-6.20557 3.10279,0 0,0.7 -1.97016,4.44089e-16 1.97016,3.94033 z "/>
</g></g></svg>
