<?xml version="1.0" encoding="UTF-8" standalone="no"?>
<!DOCTYPE svg PUBLIC "-//W3C//DTD SVG 1.1//EN" "http://www.w3.org/Graphics/SVG/1.1/DTD/svg11-flat.dtd"
[

]>
<svg xmlns="http://www.w3.org/2000/svg"  viewBox="-0.09375 -0.09375 7.6875 7.6875"><g fill="none" stroke="black" stroke-width="0.0125" transform="translate(0,7.5) scale(1, -1)">
<g id="Output" >
<path fill="rgb(241,240,234)" stroke="rgb(241,240,234)" d="M 6.4,3.75 l -5.3,0 0.0100841,-0.230963 0.0301754,-0.229205 0.0500371,-0.225703 0.069518,-0.220483 0.0884698,-0.213585 0.106748,-0.205062 0.124214,-0.194978 0.140735,-0.18341 0.156185,-0.170446 0.170446,-0.156185 0.18341,-0.140735 0.194978,-0.124214 0.205062,-0.106748 0.213585,-0.0884698 0.220483,-0.069518 0.225703,-0.0500371 0.229205,-0.0301754 0.230963,-0.0100841 0.230963,0.0100841 0.229205,0.0301754 0.225703,0.0500371 0.220483,0.069518 0.213585,0.0884698 0.205062,0.106748 0.194978,0.124214 0.18341,0.140735 0.170446,0.156185 0.156185,0.170446 0.140735,0.18341 0.124214,0.194978 0.106748,0.205062 0.0884698,0.213585 0.069518,0.220483 0.0500371,0.225703 0.0301754,0.229205 0.0100841,0.230963 z "/>
<path fill="rgb(241,240,234)" stroke="rgb(241,240,234)" d="M 6.4,3.75 l -0.0100841,0.230963 -0.0301754,0.229205 -0.0500371,0.225703 -0.069518,0.220483 -0.0884698,0.213585 -0.106748,0.205062 -0.124214,0.194978 -0.140735,0.18341 -0.156185,0.170446 -0.170446,0.156185 -0.18341,0.140735 -0.194978,0.124214 -0.205062,0.106748 -0.213585,0.0884698 -0.220483,0.069518 -0.225703,0.0500371 -0.229205,0.0301754 -0.230963,0.0100841 -0.230963,-0.0100841 -0.229205,-0.0301754 -0.225703,-0.0500371 -0.220483,-0.069518 -0.213585,-0.0884698 -0.205062,-0.106748 -0.194978,-0.124214 -0.18341,-0.140735 -0.170446,-0.156185 -0.156185,-0.170446 -0.140735,-0.18341 -0.124214,-0.194978 -0.106748,-0.205062 -0.0884698,-0.213585 -0.069518,-0.220483 -0.0500371,-0.225703 -0.0301754,-0.229205 -0.0100841,-0.230963 5.3,0 z "/>
<path fill="rgb(241,240,234)" stroke="rgb(241,240,234)" d="M 0.2,3.75 l 0.0135088,-0.309403 0.0404237,-0.307048 0.0670308,-0.302357 0.0931279,-0.295364 0.118516,-0.286123 0.143002,-0.274705 0.1664,-0.261196 0.188532,-0.2457 0.209229,-0.228333 0.228333,-0.209229 0.2457,-0.188532 0.261196,-0.1664 0.274705,-0.143002 0.286123,-0.118516 0.295364,-0.0931279 0.302357,-0.0670308 0.307048,-0.0404237 0.309403,-0.0135088 0.309403,0.0135088 0.307048,0.0404237 0.302357,0.0670308 0.295364,0.0931279 0.286123,0.118516 0.274705,0.143002 0.261196,0.1664 0.2457,0.188532 0.228333,0.209229 0.209229,0.228333 0.188532,0.2457 0.1664,0.261196 0.143002,0.274705 0.118516,0.286123 0.0931279,0.295364 0.0670308,0.302357 0.0404237,0.307048 0.0135088,0.309403 -0.2,0 -0.0127478,-0.291972 -0.0381463,-0.28975 -0.0632545,-0.285322 -0.0878812,-0.278724 -0.111839,-0.270004 -0.134946,-0.259229 -0.157026,-0.246481 -0.17791,-0.231857 -0.197441,-0.215469 -0.215469,-0.197441 -0.231857,-0.17791 -0.246481,-0.157026 -0.259229,-0.134946 -0.270004,-0.111839 -0.278724,-0.0878812 -0.285322,-0.0632545 -0.28975,-0.0381463 -0.291972,-0.0127478 -0.291972,0.0127478 -0.28975,0.0381463 -0.285322,0.0632545 -0.278724,0.0878812 -0.270004,0.111839 -0.259229,0.134946 -0.246481,0.157026 -0.231857,0.17791 -0.215469,0.197441 -0.197441,0.215469 -0.17791,0.231857 -0.157026,0.246481 -0.134946,0.259229 -0.111839,0.270004 -0.0878812,0.278724 -0.0632545,0.285322 -0.0381463,0.28975 -0.0127478,0.291972 -0.2,0 z "/>
<path fill="rgb(241,240,234)" stroke="rgb(241,240,234)" d="M 0.2,3.75 l 0.2,0 0.0127478,0.291972 0.0381463,0.28975 0.0632545,0.285322 0.0878812,0.278724 0.111839,0.270004 0.134946,0.259229 0.157026,0.246481 0.17791,0.231857 0.197441,0.215469 0.215469,0.197441 0.231857,0.17791 0.246481,0.157026 0.259229,0.134946 0.270004,0.111839 0.278724,0.0878812 0.285322,0.0632545 0.28975,0.0381463 0.291972,0.0127478 0.291972,-0.0127478 0.28975,-0.0381463 0.285322,-0.0632545 0.278724,-0.0878812 0.270004,-0.111839 0.259229,-0.134946 0.246481,-0.157026 0.231857,-0.17791 0.215469,-0.197441 0.197441,-0.215469 0.17791,-0.231857 0.157026,-0.246481 0.134946,-0.259229 0.111839,-0.270004 0.0878812,-0.278724 0.0632545,-0.285322 0.0381463,-0.28975 0.0127478,-0.291972 0.2,0 -0.0135088,0.309403 -0.0404237,0.307048 -0.0670308,0.302357 -0.0931279,0.295364 -0.118516,0.286123 -0.143002,0.274705 -0.1664,0.261196 -0.188532,0.2457 -0.209229,0.228333 -0.228333,0.209229 -0.2457,0.188532 -0.261196,0.1664 -0.274705,0.143002 -0.286123,0.118516 -0.295364,0.0931279 -0.302357,0.0670308 -0.307048,0.0404237 -0.309403,0.0135088 -0.309403,-0.0135088 -0.307048,-0.0404237 -0.302357,-0.0670308 -0.295364,-0.0931279 -0.286123,-0.118516 -0.274705,-0.143002 -0.261196,-0.1664 -0.2457,-0.188532 -0.228333,-0.209229 -0.209229,-0.228333 -0.188532,-0.2457 -0.1664,-0.261196 -0.143002,-0.274705 -0.118516,-0.286123 -0.0931279,-0.295364 -0.0670308,-0.302357 -0.0404237,-0.307048 -0.0135088,-0.309403 z "/>
<path fill="rgb(42,41,42)" stroke="rgb(42,41,42)" d="M 4.51908,5.04079 l -0.0141944,0 -0.0984142,-0.00473145 -0.094629,-0.0132481 -0.0908439,-0.0198721 -0.0851661,-0.0274424 -0.081381,-0.035959 -0.0757032,-0.0425831 -0.0719181,-0.0510997 -0.0681329,-0.05867 -0.0624552,-0.0662403 -0.05867,-0.0738106 -0.00189258,-0.00378516 -0.0473145,-0.0719181 -0.0425831,-0.0747569 -0.0369053,-0.0794884 -0.0331202,-0.0832735 -0.0274424,-0.0870587 -0.0217647,-0.0908439 -0.0179795,-0.094629 -0.0123018,-0.0984142 -0.00757032,-0.102199 -0.00189258,-0.105985 0,-0.00757032 0.00283887,-0.105985 0.00757032,-0.102199 0.0123018,-0.0974679 0.0170332,-0.094629 0.022711,-0.0908439 0.0274424,-0.0870587 0.0321739,-0.0832735 0.0369053,-0.0794884 0.0416368,-0.0766495 0.0463682,-0.0719181 0.0132481,-0.0179795 0.05867,-0.0728643 0.0624552,-0.065294 0.0681329,-0.0567774 0.0719181,-0.0501534 0.0766495,-0.0416368 0.081381,-0.0350127 0.0861124,-0.0264961 0.0908439,-0.0189258 0.0955753,-0.0113555 0.100307,-0.00378516 0.0331202,0 0.0984142,0.00662403 0.0936827,0.0141944 0.0889513,0.0217647 0.0842198,0.029335 0.0794884,0.0369053 0.0747569,0.0454219 0.0700255,0.0529923 0.065294,0.0605626 0.0605626,0.0681329 0.0558311,0.0757032 -0.804347,0.035959 -0.0643477,0.00283887 -0.0927364,0.0160869 -0.0842198,0.0302813 -0.0757032,0.0435293 -0.0681329,0.0577237 -0.0596163,0.0719181 -0.00283887,0.00473145 -0.0416368,0.0681329 -0.0350127,0.0757032 -0.029335,0.0823272 -0.0217647,0.0898976 -0.0160869,0.0974679 -0.0104092,0.104092 -0.00283887,0.111662 0,0.0179795 0.00473145,0.104092 0.0123018,0.0974679 0.0189258,0.0936827 0.0255498,0.0870587 0.0331202,0.081381 0.0397442,0.0757032 0.0160869,0.0255498 0.0577237,0.0775958 0.065294,0.0624552 0.0719181,0.0492071 0.0794884,0.0350127 0.0861124,0.0208184 0.0936827,0.00662403 0.801508,0.0435293 -0.0123018,0.0160869 -0.0567774,0.0738106 -0.0624552,0.065294 -0.0671866,0.0577237 -0.0719181,0.0501534 -0.0766495,0.0416368 -0.081381,0.0350127 -0.0861124,0.0264961 -0.0908439,0.0198721 -0.0955753,0.0113555 -0.100307,0.00378516 z "/>
<path fill="rgb(42,41,42)" stroke="rgb(42,41,42)" d="M 5.32059,4.63956 l -0.801508,-0.0435293 0.0605626,-0.00283887 0.0917901,-0.0151406 0.0842198,-0.0302813 0.0766495,-0.0435293 0.0671866,-0.05867 0.0605626,-0.0719181 0.0378516,-0.0615089 0.035959,-0.0747569 0.0302813,-0.0823272 0.022711,-0.0889513 0.0160869,-0.0965216 0.0104092,-0.104092 0.00283887,-0.107877 -0.00283887,-0.0984142 -0.0094629,-0.102199 -0.0160869,-0.0965216 -0.0236573,-0.0898976 -0.029335,-0.0832735 -0.035959,-0.0775958 -0.0425831,-0.0709718 -0.0387979,-0.0510997 -0.0643477,-0.0662403 -0.0719181,-0.0501534 -0.0794884,-0.0369053 -0.0870587,-0.0217647 -0.0955753,-0.00757032 0.804347,-0.035959 0.0454219,0.0719181 0.0416368,0.0766495 0.035959,0.0794884 0.0312276,0.0842198 0.0264961,0.0870587 0.0217647,0.0908439 0.0170332,0.0955753 0.0113555,0.0984142 0.00757032,0.102199 0.00189258,0.105985 -0.00189258,0.0917901 -0.00662403,0.102199 -0.0113555,0.0984142 -0.0170332,0.094629 -0.0217647,0.0908439 -0.0274424,0.0870587 -0.0312276,0.0842198 -0.0369053,0.0804347 -0.0425831,0.0757032 -0.0463682,0.0728643 z "/>
<path fill="rgb(42,41,42)" stroke="rgb(42,41,42)" d="M 2.8186,5.00105 l -0.356751,0 -0.0151406,-0.0236573 -0.0577237,-0.0719181 -0.0662403,-0.0605626 -0.0757032,-0.0492071 -0.0842198,-0.0397442 -0.094629,-0.0283887 0.00757032,-0.357698 0.317007,0 -0.0113555,-1.86892 0.437186,0 0,2.5001 z "/>
<path fill="rgb(187,30,16)" stroke="rgb(187,30,16)" d="M 0.2,3.75 l -0.2,0 0.0142699,-0.326834 0.042701,-0.324347 0.0708072,-0.319391 0.0983745,-0.312004 0.125193,-0.302243 0.151059,-0.290182 0.175775,-0.275912 0.199154,-0.259542 0.221016,-0.241197 0.241197,-0.221016 0.259542,-0.199154 0.275912,-0.175775 0.290182,-0.151059 0.302243,-0.125193 0.312004,-0.0983745 0.319391,-0.0708072 0.324347,-0.042701 0.326834,-0.0142699 0.326834,0.0142699 0.324347,0.042701 0.319391,0.0708072 0.312004,0.0983745 0.302243,0.125193 0.290182,0.151059 0.275912,0.175775 0.259542,0.199154 0.241197,0.221016 0.221016,0.241197 0.199154,0.259542 0.175775,0.275912 0.151059,0.290182 0.125193,0.302243 0.0983745,0.312004 0.0708072,0.319391 0.042701,0.324347 0.0142699,0.326834 -0.2,0 -0.0135088,-0.309403 -0.0404237,-0.307048 -0.0670308,-0.302357 -0.0931279,-0.295364 -0.118516,-0.286123 -0.143002,-0.274705 -0.1664,-0.261196 -0.188532,-0.2457 -0.209229,-0.228333 -0.228333,-0.209229 -0.2457,-0.188532 -0.261196,-0.1664 -0.274705,-0.143002 -0.286123,-0.118516 -0.295364,-0.0931279 -0.302357,-0.0670308 -0.307048,-0.0404237 -0.309403,-0.0135088 -0.309403,0.0135088 -0.307048,0.0404237 -0.302357,0.0670308 -0.295364,0.0931279 -0.286123,0.118516 -0.274705,0.143002 -0.261196,0.1664 -0.2457,0.188532 -0.228333,0.209229 -0.209229,0.228333 -0.188532,0.2457 -0.1664,0.261196 -0.143002,0.274705 -0.118516,0.286123 -0.0931279,0.295364 -0.0670308,0.302357 -0.0404237,0.307048 -0.0135088,0.309403 z "/>
<path fill="rgb(187,30,16)" stroke="rgb(187,30,16)" d="M 0.2,3.75 l 0.0135088,0.309403 0.0404237,0.307048 0.0670308,0.302357 0.0931279,0.295364 0.118516,0.286123 0.143002,0.274705 0.1664,0.261196 0.188532,0.2457 0.209229,0.228333 0.228333,0.209229 0.2457,0.188532 0.261196,0.1664 0.274705,0.143002 0.286123,0.118516 0.295364,0.0931279 0.302357,0.0670308 0.307048,0.0404237 0.309403,0.0135088 0.309403,-0.0135088 0.307048,-0.0404237 0.302357,-0.0670308 0.295364,-0.0931279 0.286123,-0.118516 0.274705,-0.143002 0.261196,-0.1664 0.2457,-0.188532 0.228333,-0.209229 0.209229,-0.228333 0.188532,-0.2457 0.1664,-0.261196 0.143002,-0.274705 0.118516,-0.286123 0.0931279,-0.295364 0.0670308,-0.302357 0.0404237,-0.307048 0.0135088,-0.309403 0.2,0 -0.0142699,0.326834 -0.042701,0.324347 -0.0708072,0.319391 -0.0983745,0.312004 -0.125193,0.302243 -0.151059,0.290182 -0.175775,0.275912 -0.199154,0.259542 -0.221016,0.241197 -0.241197,0.221016 -0.259542,0.199154 -0.275912,0.175775 -0.290182,0.151059 -0.302243,0.125193 -0.312004,0.0983745 -0.319391,0.0708072 -0.324347,0.042701 -0.326834,0.0142699 -0.326834,-0.0142699 -0.324347,-0.042701 -0.319391,-0.0708072 -0.312004,-0.0983745 -0.302243,-0.125193 -0.290182,-0.151059 -0.275912,-0.175775 -0.259542,-0.199154 -0.241197,-0.221016 -0.221016,-0.241197 -0.199154,-0.259542 -0.175775,-0.275912 -0.151059,-0.290182 -0.125193,-0.302243 -0.0983745,-0.312004 -0.0708072,-0.319391 -0.042701,-0.324347 -0.0142699,-0.326834 0.2,0 z "/>
<path fill="rgb(187,30,16)" stroke="rgb(187,30,16)" d="M 6.4,3.75 l -0.0100841,-0.230963 -0.0301754,-0.229205 -0.0500371,-0.225703 -0.069518,-0.220483 -0.0884698,-0.213585 -0.106748,-0.205062 -0.124214,-0.194978 -0.140735,-0.18341 -0.156185,-0.170446 -0.170446,-0.156185 -0.18341,-0.140735 -0.194978,-0.124214 -0.205062,-0.106748 -0.213585,-0.0884698 -0.220483,-0.069518 -0.225703,-0.0500371 -0.229205,-0.0301754 -0.230963,-0.0100841 -0.230963,0.0100841 -0.229205,0.0301754 -0.225703,0.0500371 -0.220483,0.069518 -0.213585,0.0884698 -0.205062,0.106748 -0.194978,0.124214 -0.18341,0.140735 -0.170446,0.156185 -0.156185,0.170446 -0.140735,0.18341 -0.124214,0.194978 -0.106748,0.205062 -0.0884698,0.213585 -0.069518,0.220483 -0.0500371,0.225703 -0.0301754,0.229205 -0.0100841,0.230963 -0.7,0 0.0127478,-0.291972 0.0381463,-0.28975 0.0632545,-0.285322 0.0878812,-0.278724 0.111839,-0.270004 0.134946,-0.259229 0.157026,-0.246481 0.17791,-0.231857 0.197441,-0.215469 0.215469,-0.197441 0.231857,-0.17791 0.246481,-0.157026 0.259229,-0.134946 0.270004,-0.111839 0.278724,-0.0878812 0.285322,-0.0632545 0.28975,-0.0381463 0.291972,-0.0127478 0.291972,0.0127478 0.28975,0.0381463 0.285322,0.0632545 0.278724,0.0878812 0.270004,0.111839 0.259229,0.134946 0.246481,0.157026 0.231857,0.17791 0.215469,0.197441 0.197441,0.215469 0.17791,0.231857 0.157026,0.246481 0.134946,0.259229 0.111839,0.270004 0.0878812,0.278724 0.0632545,0.285322 0.0381463,0.28975 0.0127478,0.291972 -0.7,0 z "/>
<path fill="rgb(187,30,16)" stroke="rgb(187,30,16)" d="M 6.4,3.75 l 0.7,0 -0.0127478,0.291972 -0.0381463,0.28975 -0.0632545,0.285322 -0.0878812,0.278724 -0.111839,0.270004 -0.134946,0.259229 -0.157026,0.246481 -0.17791,0.231857 -0.197441,0.215469 -0.215469,0.197441 -0.231857,0.17791 -0.246481,0.157026 -0.259229,0.134946 -0.270004,0.111839 -0.278724,0.0878812 -0.285322,0.0632545 -0.28975,0.0381463 -0.291972,0.0127478 -0.291972,-0.0127478 -0.28975,-0.0381463 -0.285322,-0.0632545 -0.278724,-0.0878812 -0.270004,-0.111839 -0.259229,-0.134946 -0.246481,-0.157026 -0.231857,-0.17791 -0.215469,-0.197441 -0.197441,-0.215469 -0.17791,-0.231857 -0.157026,-0.246481 -0.134946,-0.259229 -0.111839,-0.270004 -0.0878812,-0.278724 -0.0632545,-0.285322 -0.0381463,-0.28975 -0.0127478,-0.291972 0.7,0 0.0100841,0.230963 0.0301754,0.229205 0.0500371,0.225703 0.069518,0.220483 0.0884698,0.213585 0.106748,0.205062 0.124214,0.194978 0.140735,0.18341 0.156185,0.170446 0.170446,0.156185 0.18341,0.140735 0.194978,0.124214 0.205062,0.106748 0.213585,0.0884698 0.220483,0.069518 0.225703,0.0500371 0.229205,0.0301754 0.230963,0.0100841 0.230963,-0.0100841 0.229205,-0.0301754 0.225703,-0.0500371 0.220483,-0.069518 0.213585,-0.0884698 0.205062,-0.106748 0.194978,-0.124214 0.18341,-0.140735 0.170446,-0.156185 0.156185,-0.170446 0.140735,-0.18341 0.124214,-0.194978 0.106748,-0.205062 0.0884698,-0.213585 0.069518,-0.220483 0.0500371,-0.225703 0.0301754,-0.229205 0.0100841,-0.230963 z "/>
</g></g></svg>
