<?xml version="1.0" encoding="UTF-8" standalone="no"?>
<!DOCTYPE svg PUBLIC "-//W3C//DTD SVG 1.1//EN" "http://www.w3.org/Graphics/SVG/1.1/DTD/svg11-flat.dtd"
[

]>
<svg xmlns="http://www.w3.org/2000/svg"  viewBox="-0.09375 -0.09375 7.6875 7.6875"><g fill="none" stroke="black" stroke-width="0.0125" transform="translate(0,7.5) scale(1, -1)">
<g id="Output" >
<path fill="rgb(0,91,140)" stroke="rgb(0,91,140)" d="M 6.56117,1.92796 l -0.697393,0.516121 -0.0622881,-0.0769793 -0.0686957,-0.0713199 -0.0745913,-0.0651288 -0.079931,-0.0584523 -0.0846748,-0.0513401 -0.0887875,-0.0438452 -0.0922385,-0.0360235 -0.0950019,-0.0279333 -0.0970572,-0.019635 -0.0983891,-0.0111902 -0.0989876,-0.00266208 -0.0988483,0.00588591 -0.0979722,0.01439 -0.0963659,0.0227869 -0.0940413,0.0310139 -0.0910157,0.0390097 -0.0873118,0.0467148 -0.0829571,0.0540717 -0.077984,0.0610256 -0.0724297,0.0675246 -0.0663355,0.0735203 -0.0597469,0.078968 -0.0527129,0.0838271 -0.045286,0.0880614 -0.0375216,0.0916393 -0.0294775,0.0945341 -0.0212137,0.0967244 -0.0127918,0.0981937 -0.00427456,0.0989311 0.0049807,0.106774 0.0148988,0.105847 0.0246876,0.104 0.0342619,0.10125 0.0435387,0.097621 0.0524373,0.093144 0.0608806,0.087858 -0.0913475,0.0698165 -0.0619923,-0.0883673 -0.0542181,-0.0933393 -0.0460476,-0.0976291 -0.0375406,-0.101205 -0.0287592,-0.104042 -0.0197677,-0.106118 -0.0106316,-0.107419 -0.0014179,-0.107934 0.0078062,-0.107661 0.0169732,-0.106601 -1.05568,0 -0.0294849,0.0620399 -0.0351793,0.0589976 -0.040563,0.0554342 -0.0455883,0.051381 -0.0502109,0.046874 -0.0151801,0.0125429 -0.0155125,0.0121294 -0.0158337,0.011707 -0.0702387,-0.0977246 0.0132691,-0.0097856 0.0129994,-0.0101411 0.0127202,-0.0104891 0.0387922,-0.0358846 0.0355365,-0.0391113 0.0320134,-0.0420438 0.0282494,-0.04466 0.0242728,-0.0469401 0.0201136,-0.048867 0.0158031,-0.0504262 0.0113736,-0.051606 0.00685858,-0.0523975 0.00229194,-0.0527948 -0.00229885,-0.0528741 -0.0068792,-0.0524751 -0.0114076,-0.05168 -0.01585,-0.0504949 -0.0201727,-0.0489287 -0.0243432,-0.0469933 -0.0283299,-0.0447032 -0.0321029,-0.0420757 -0.0356335,-0.0391307 -0.0388953,-0.0358903 -0.0418635,-0.0323791 -0.0445157,-0.0286235 -0.046832,-0.0246519 -0.0487949,-0.0204943 -0.0503895,-0.016182 -0.0516038,-0.0117475 -0.0524287,-0.00722441 -0.0528578,-0.00264679 -0.0528881,0.00195081 -0.0525192,0.00653369 -0.051754,0.0110673 -0.0505981,0.0155173 -0.0490604,0.0198502 -0.0471525,0.0240334 -0.0448887,0.0280351 -0.0422861,0.0318253 -0.0393643,0.0353752 -0.0361455,0.0386582 -0.0326539,0.0416495 -0.0289159,0.0443264 -0.534783,-0.316879 0.159938,-0.231521 0.178804,-0.217281 0.196408,-0.201509 0.212627,-0.184315 0.227345,-0.16582 0.240459,-0.146155 0.251877,-0.125459 0.261517,-0.103878 0.269313,-0.0815643 0.275208,-0.0586748 0.279161,-0.0353713 0.281145,-0.0118182 0.30283,0.0137155 0.30035,0.0410343 0.295411,0.0680171 0.288053,0.0944429 0.278337,0.120095 0.266341,0.144764 0.252164,0.168248 0.235922,0.190354 0.217749,0.210902 0.197793,0.229722 0.176217,0.246661 z "/>
<path fill="rgb(0,91,140)" stroke="rgb(0,91,140)" d="M 0.4,3.75 l 0.0147122,-0.313616 0.0440073,-0.310862 0.0729159,-0.305377 0.101184,-0.297209 0.128563,-0.286432 0.154814,-0.273138 0.534783,0.316879 -0.0255368,0.0478742 -0.0211758,0.0499565 -0.0166469,0.0516425 -0.0119858,0.0529189 -0.00722975,0.0537755 -0.00241631,0.0542055 0.00234173,0.053364 0.00700717,0.0529537 0.0116188,0.0521364 0.016141,0.0509182 0.0205392,0.0493086 0.0247794,0.0473199 0.0288292,0.0449675 0.0326574,0.0422693 0.0362344,0.0392462 0.0395329,0.0359214 0.0425275,0.0323204 0.0451952,0.0284709 0.0475154,0.0244026 0.0494703,0.0201466 0.0510449,0.0157358 0.0522271,0.011204 0.0530078,0.0065861 0.0533809,0.00191754 0.0533437,-0.00276576 0.0528964,-0.0074278 0.0520424,-0.0120327 0.0507883,-0.0165452 0.0491438,-0.0209304 0.0471215,-0.0251547 0.0447369,-0.0291857 0.0702387,0.0977246 -0.0550382,0.035919 -0.0580425,0.0308292 -0.0605775,0.0254902 -0.0626225,0.019945 -0.0641611,0.0142384 -0.0651808,0.00841679 -0.0656734,0.00252707 -0.0656348,-0.00338309 -0.0650655,-0.00926588 -0.06397,-0.0150737 -0.0623571,-0.0207597 -0.06024,-0.0262778 -0.0576357,-0.0315833 -0.0545652,-0.0366335 -0.0510535,-0.0413874 -0.047129,-0.0458065 -0.170661,0 0,1.03576 0.000694336,0.0237586 0.00278184,0.0236054 0.00484777,0.0232691 0.00687611,0.0227524 0.00885112,0.0220593 0.0107575,0.021195 0.0125805,0.0201664 0.0143058,0.0189815 0.0159203,0.0176493 0.0174113,0.0161803 0.0187673,0.0145857 0.0199777,0.0128781 0.0210332,0.0110706 0.0219256,0.00917725 0.022648,0.00721273 0.0231947,0.00519228 0.0235616,0.00313156 0.0237457,0.00104656 1.73434,0 0.380984,1.31764 0,0.214312 1.86135,0 0,-1.41685 0.424651,-0.353208 -0.126995,-0.127011 -0.0828749,0.0728196 -0.0889151,0.0653075 -0.0942764,0.0572967 -0.098918,0.0488485 -0.102804,0.0400274 -0.105906,0.0309008 -0.108199,0.0215382 -0.109666,0.0120112 -0.110296,0.00239249 -0.110084,-0.00724447 -0.109031,-0.0168261 -0.107146,-0.0262793 -0.104443,-0.0355319 -0.100943,-0.0445132 -0.101037,-0.0558213 -0.0955166,-0.0648152 -0.0891981,-0.0732674 -0.0821342,-0.0811073 -0.0743839,-0.0882693 0.0913475,-0.0698165 0.0674838,0.0803872 0.0745497,0.0738818 0.0809913,0.0667577 0.0867547,0.0590745 0.0917916,0.0508967 0.0926142,0.0409539 0.0958655,0.0326255 0.0983695,0.0240427 0.100107,0.0152725 0.101064,0.00638333 0.101233,-0.00255564 0.100613,-0.0114747 0.0992086,-0.0203043 0.097031,-0.0289756 0.0940971,-0.0374211 0.0904297,-0.0455749 0.0860575,-0.0533734 0.0810144,-0.0607559 0.0753398,-0.0676648 0.0690779,-0.0740462 0.0622776,-0.0798505 0.0549919,-0.0850323 0.0472774,-0.0895514 0.0391945,-0.0933723 0.0308061,-0.0964655 0.0221775,-0.0988067 0.013376,-0.100378 0.00447028,-0.101166 -0.00474751,-0.10425 -0.0142032,-0.103387 -0.0235414,-0.101668 -0.0326846,-0.0991073 -0.0415573,-0.0957264 -0.050086,-0.091553 -0.0582,-0.0866216 0.697393,-0.516121 0.140037,0.236831 0.12013,0.247524 0.0994129,0.256547 0.0780252,0.263839 0.0561113,0.269352 0.0338189,0.273048 0.0112984,0.274903 -0.0114859,0.277171 -0.034379,0.27527 -0.0570363,0.271482 -0.0793025,0.265832 -0.107123,0.272146 -0.130451,0.261766 -0.152786,0.24939 -0.173956,0.235114 -0.1938,0.219045 -0.212166,0.201307 -0.228916,0.182034 -0.243921,0.161374 -0.257067,0.139484 -0.268253,0.11653 -0.277395,0.0926889 -0.284422,0.068141 -0.289281,0.0430736 -0.291936,0.0176779 -0.292365,-0.00785247 -0.290566,-0.033323 -0.286552,-0.0585396 -0.280354,-0.08331 -0.272019,-0.107445 -0.261611,-0.130762 -0.249209,-0.153081 -0.234907,-0.174234 -0.218815,-0.194059 -0.201055,-0.212405 -0.185597,-0.234435 -0.163953,-0.250051 -0.141004,-0.263674 -0.116931,-0.275196 -0.0919268,-0.284527 -0.0661902,-0.29159 -0.0399262,-0.296331 -0.0133442,-0.29871 z "/>
<path fill="rgb(0,91,140)" stroke="rgb(0,91,140)" d="M 1.70929,2.59062 l 0.00101186,-0.0231754 0.00302787,-0.022999 0.00502085,-0.0226476 0.00697561,-0.0221238 0.00887728,-0.0214316 0.0107114,-0.0205764 0.012464,-0.0195645 0.0141217,-0.0184038 0.015672,-0.017103 0.017103,-0.015672 0.0184038,-0.0141217 0.0195645,-0.012464 0.0205764,-0.0107114 0.0214316,-0.00887728 0.0221238,-0.00697561 0.0226476,-0.00502085 0.022999,-0.00302787 0.0231754,-0.00101186 0.0231754,0.00101186 0.022999,0.00302787 0.0226476,0.00502085 0.0221238,0.00697561 0.0214316,0.00887728 0.0205764,0.0107114 0.0195645,0.012464 0.0184038,0.0141217 0.017103,0.015672 0.015672,0.017103 0.0141217,0.0184038 0.012464,0.0195645 0.0107114,0.0205764 0.00887728,0.0214316 0.00697561,0.0221238 0.00502085,0.0226476 0.00302787,0.022999 0.00101186,0.0231754 -0.00100039,0.0230439 -0.00299363,0.0228705 -0.00496435,0.022525 -0.00689772,0.02201 -0.00877919,0.0213295 -0.0105946,0.0204884 -0.0123303,0.0194932 -0.0139732,0.0183513 -0.015511,0.0170713 -0.0169321,0.0156629 -0.0183749,0.0142422 -0.0195487,0.0125828 -0.020573,0.0108272 -0.0214401,0.00898887 -0.0221433,0.00708181 -0.0226772,0.00512062 -0.0230378,0.00312029 -0.0232223,0.0010961 -0.0232293,-0.000936463 -0.0230587,-0.00296187 -0.0227119,-0.00496463 -0.0221914,-0.00692945 -0.0215014,-0.0088413 -0.0206469,-0.0106856 -0.0196347,-0.0124482 -0.0184723,-0.0141156 -0.0171688,-0.0156751 -0.015734,-0.0171148 -0.014179,-0.0184237 -0.0125156,-0.0195918 -0.0107565,-0.0206101 -0.00891514,-0.0214709 -0.00700567,-0.0221675 -0.00504266,-0.0226947 -0.0030411,-0.0230484 -0.00101629,-0.0232259 z "/>
<path fill="rgb(0,91,140)" stroke="rgb(0,91,140)" d="M 4.64552,3.72367 l -0.0498701,-0.0274524 -0.0473466,-0.0316064 -0.0444779,-0.03553 -0.0412849,-0.0391946 -0.037791,-0.0425735 -0.0340216,-0.045642 -0.0300042,-0.0483778 -0.0257681,-0.0507609 -0.0213441,-0.052774 -0.0167645,-0.0544023 -0.0120627,-0.0556341 -0.00727298,-0.0564603 -0.00243023,-0.0568749 0.00253714,-0.0581101 0.00759212,-0.0576679 0.0125893,-0.0567867 0.0174907,-0.0554734 0.022259,-0.0537379 0.0268578,-0.0515934 0.0312523,-0.0490563 0.0354089,-0.0461458 0.039296,-0.0428841 0.0428841,-0.039296 0.0461458,-0.0354089 0.0490563,-0.0312523 0.0515934,-0.0268578 0.0537379,-0.022259 0.0554734,-0.0174907 0.0567867,-0.0125893 0.0576679,-0.00759212 0.0581101,-0.00253714 0.0581101,0.00253714 0.0576679,0.00759212 0.0567867,0.0125893 0.0554734,0.0174907 0.0537379,0.022259 0.0515934,0.0268578 0.0490563,0.0312523 0.0461458,0.0354089 0.0428841,0.039296 0.039296,0.0428841 0.0354089,0.0461458 0.0312523,0.0490563 0.0268578,0.0515934 0.022259,0.0537379 0.0174907,0.0554734 0.0125893,0.0567867 0.00759212,0.0576679 0.00253714,0.0581101 -0.210323,0 -0.0017368,-0.0397793 -0.00519718,-0.0394765 -0.00861801,-0.0388733 -0.0119733,-0.0379743 -0.0152374,-0.0367863 -0.0183855,-0.0353183 -0.0213937,-0.0335815 -0.0242392,-0.0315891 -0.0269001,-0.0293563 -0.0293563,-0.0269001 -0.0315891,-0.0242392 -0.0335815,-0.0213937 -0.0353183,-0.0183855 -0.0367863,-0.0152374 -0.0379743,-0.0119733 -0.0388733,-0.00861801 -0.0394765,-0.00519718 -0.0397793,-0.0017368 -0.0397793,0.0017368 -0.0394765,0.00519718 -0.0388733,0.00861801 -0.0379743,0.0119733 -0.0367863,0.0152374 -0.0353183,0.0183855 -0.0335815,0.0213937 -0.0315891,0.0242392 -0.0293563,0.0269001 -0.0269001,0.0293563 -0.0242392,0.0315891 -0.0213937,0.0335815 -0.0183855,0.0353183 -0.0152374,0.0367863 -0.0119733,0.0379743 -0.00861801,0.0388733 -0.00519718,0.0394765 -0.0017368,0.0397793 0.00166362,0.0389337 0.00497872,0.0386499 0.00825753,0.0380843 0.0114761,0.0372411 0.0146111,0.0361264 0.0176395,0.0347484 0.0205394,0.033117 0.0232895,0.0312442 0.0258698,0.0291437 0.0282616,0.0268307 0.0304473,0.0243221 0.0324111,0.0216362 0.0341386,0.0187925 -0.093468,0.188413 z "/>
<path fill="rgb(0,91,140)" stroke="rgb(0,91,140)" d="M 5.39824,3.12639 l -0.0017368,-0.0397793 -0.00519718,-0.0394765 -0.00861801,-0.0388733 -0.0119733,-0.0379743 -0.0152374,-0.0367863 -0.0183855,-0.0353183 -0.0213937,-0.0335815 -0.0242392,-0.0315891 -0.0269001,-0.0293563 -0.0293563,-0.0269001 -0.0315891,-0.0242392 -0.0335815,-0.0213937 -0.0353183,-0.0183855 -0.0367863,-0.0152374 -0.0379743,-0.0119733 -0.0388733,-0.00861801 -0.0394765,-0.00519718 -0.0397793,-0.0017368 -0.0397793,0.0017368 -0.0394765,0.00519718 -0.0388733,0.00861801 -0.0379743,0.0119733 -0.0367863,0.0152374 -0.0353183,0.0183855 -0.0335815,0.0213937 -0.0315891,0.0242392 -0.0293563,0.0269001 -0.0269001,0.0293563 -0.0242392,0.0315891 -0.0213937,0.0335815 -0.0183855,0.0353183 -0.0152374,0.0367863 -0.0119733,0.0379743 -0.00861801,0.0388733 -0.00519718,0.0394765 -0.0017368,0.0397793 0.0017368,-0.0397793 0.00519718,-0.0394765 0.00861801,-0.0388733 0.0119733,-0.0379743 0.0152374,-0.0367863 0.0183855,-0.0353183 0.0213937,-0.0335815 0.0242392,-0.0315891 0.0269001,-0.0293563 0.0293563,-0.0269001 0.0315891,-0.0242392 0.0335815,-0.0213937 0.0353183,-0.0183855 0.0367863,-0.0152374 0.0379743,-0.0119733 0.0388733,-0.00861801 0.0394765,-0.00519718 0.0397793,-0.0017368 0.0397793,0.0017368 0.0394765,0.00519718 0.0388733,0.00861801 0.0379743,0.0119733 0.0367863,0.0152374 0.0353183,0.0183855 0.0335815,0.0213937 0.0315891,0.0242392 0.0293563,0.0269001 0.0269001,0.0293563 0.0242392,0.0315891 0.0213937,0.0335815 0.0183855,0.0353183 0.0152374,0.0367863 0.0119733,0.0379743 0.00861801,0.0388733 0.00519718,0.0394765 0.0017368,0.0397793 z "/>
<path fill="rgb(0,91,140)" stroke="rgb(0,91,140)" d="M 4.64552,3.72367 l 0.093468,-0.188413 0.036854,0.0162968 0.0381478,0.0129827 0.0391442,0.00956732 0.0398355,0.00607741 0.0402163,0.00254012 0.0402836,-0.00101697 0.0400369,-0.00456613 0.0394781,-0.00807969 0.0386116,-0.0115303 0.0374441,-0.014891 0.0359847,-0.0181356 0.0342449,-0.0212389 0.0322381,-0.0241766 0.02998,-0.0269259 0.0274882,-0.0294652 0.0247822,-0.0317749 0.0218829,-0.0338369 0.0188131,-0.0356352 0.0155967,-0.0371557 0.0122587,-0.0383865 0.00882509,-0.0393182 0.00532272,-0.0399433 0.00177886,-0.0402571 0.210323,0 -0.00259859,0.0588082 -0.0077755,0.0583498 -0.0128918,0.0574366 -0.0179076,0.0560756 -0.0227839,0.0542776 -0.0274825,0.0520564 -0.0319669,0.0494295 -0.0362021,0.0464173 -0.0401552,0.0430432 -0.0437952,0.0393337 -0.0470938,0.0353175 -0.0500254,0.0310261 -0.052567,0.0264928 -0.0546989,0.021753 -0.0564044,0.0168436 -0.0576702,0.0118029 -0.0584865,0.00667026 -0.0588468,0.0014856 -0.0587485,-0.00371064 -0.0581923,-0.00887796 -0.0571824,-0.0139761 -0.0557268,-0.0189653 -0.0538368,-0.0238066 z "/>
<path fill="rgb(241,240,234)" stroke="rgb(241,240,234)" d="M 4.73899,3.53526 l -0.0341386,-0.0187925 -0.0324111,-0.0216362 -0.0304473,-0.0243221 -0.0282616,-0.0268307 -0.0258698,-0.0291437 -0.0232895,-0.0312442 -0.0205394,-0.033117 -0.0176395,-0.0347484 -0.0146111,-0.0361264 -0.0114761,-0.0372411 -0.00825753,-0.0380843 -0.00497872,-0.0386499 -0.00166362,-0.0389337 0.0017368,-0.0397793 0.00519718,-0.0394765 0.00861801,-0.0388733 0.0119733,-0.0379743 0.0152374,-0.0367863 0.0183855,-0.0353183 0.0213937,-0.0335815 0.0242392,-0.0315891 0.0269001,-0.0293563 0.0293563,-0.0269001 0.0315891,-0.0242392 0.0335815,-0.0213937 0.0353183,-0.0183855 0.0367863,-0.0152374 0.0379743,-0.0119733 0.0388733,-0.00861801 0.0394765,-0.00519718 0.0397793,-0.0017368 0.0397793,0.0017368 0.0394765,0.00519718 0.0388733,0.00861801 0.0379743,0.0119733 0.0367863,0.0152374 0.0353183,0.0183855 0.0335815,0.0213937 0.0315891,0.0242392 0.0293563,0.0269001 0.0269001,0.0293563 0.0242392,0.0315891 0.0213937,0.0335815 0.0183855,0.0353183 0.0152374,0.0367863 0.0119733,0.0379743 0.00861801,0.0388733 0.00519718,0.0394765 0.0017368,0.0397793 -0.00177886,0.0402571 -0.00532272,0.0399433 -0.00882509,0.0393182 -0.0122587,0.0383865 -0.0155967,0.0371557 -0.0188131,0.0356352 -0.0218829,0.0338369 -0.0247822,0.0317749 -0.0274882,0.0294652 -0.02998,0.0269259 -0.0322381,0.0241766 -0.0342449,0.0212389 -0.0359847,0.0181356 -0.0374441,0.014891 -0.0386116,0.0115303 -0.0394781,0.00807969 -0.0400369,0.00456613 -0.0402836,0.00101697 -0.0402163,-0.00254012 -0.0398355,-0.00607741 -0.0391442,-0.00956732 -0.0381478,-0.0129827 -0.036854,-0.0162968 z "/>
<path fill="rgb(241,240,234)" stroke="rgb(241,240,234)" d="M 5.30301,4.64642 l -1.11524,0 0.193689,-0.390439 0.100943,0.0445132 0.104443,0.0355319 0.107146,0.0262793 0.109031,0.0168261 0.110084,0.00724447 0.110296,-0.00239249 0.109666,-0.0120112 0.108199,-0.0215382 0.105906,-0.0309008 0.102804,-0.0400274 0.098918,-0.0488485 0.0942764,-0.0572967 0.0889151,-0.0653075 0.0828749,-0.0728196 0.126995,0.127011 -0.424651,0.353208 0,1.41685 -1.86135,0 0,-0.214312 -0.380984,-1.31764 -1.73434,0 -0.0237457,-0.00104656 -0.0235616,-0.00313156 -0.0231947,-0.00519228 -0.022648,-0.00721273 -0.0219256,-0.00917725 -0.0210332,-0.0110706 -0.0199777,-0.0128781 -0.0187673,-0.0145857 -0.0174113,-0.0161803 -0.0159203,-0.0176493 -0.0143058,-0.0189815 -0.0125805,-0.0201664 -0.0107575,-0.021195 -0.00885112,-0.0220593 -0.00687611,-0.0227524 -0.00484777,-0.0232691 -0.00278184,-0.0236054 -0.000694336,-0.0237586 0,-1.03576 0.170661,0 0.047129,0.0458065 0.0510535,0.0413874 0.0545652,0.0366335 0.0576357,0.0315833 0.06024,0.0262778 0.0623571,0.0207597 0.06397,0.0150737 0.0650655,0.00926588 0.0656348,0.00338309 0.0656734,-0.00252707 0.0651808,-0.00841679 0.0641611,-0.0142384 0.0626225,-0.019945 0.0605775,-0.0254902 0.0580425,-0.0308292 0.0550382,-0.035919 0.0158337,-0.011707 0.0155125,-0.0121294 0.0151801,-0.0125429 1.06225,1.25325 0.341291,1.29779 1.45259,0 0,-1.05173 z "/>
<path fill="rgb(241,240,234)" stroke="rgb(241,240,234)" d="M 4.38145,4.25598 l -0.193689,0.390439 -0.277793,-0.246061 -0.400848,0 -1.06225,-1.25325 0.0502109,-0.046874 0.0455883,-0.051381 0.040563,-0.0554342 0.0351793,-0.0589976 0.0294849,-0.0620399 1.05568,0 -0.0169732,0.106601 -0.0078062,0.107661 0.0014179,0.107934 0.0106316,0.107419 0.0197677,0.106118 0.0287592,0.104042 0.0375406,0.101205 0.0460476,0.0976291 0.0542181,0.0933393 0.0619923,0.0883673 0.0743839,0.0882693 0.0821342,0.0811073 0.0891981,0.0732674 0.0955166,0.0648152 0.101037,0.0558213 z "/>
<path fill="rgb(241,240,234)" stroke="rgb(241,240,234)" d="M 1.70929,2.59062 l 0.00101629,0.0232259 0.0030411,0.0230484 0.00504266,0.0226947 0.00700567,0.0221675 0.00891514,0.0214709 0.0107565,0.0206101 0.0125156,0.0195918 0.014179,0.0184237 0.015734,0.0171148 0.0171688,0.0156751 0.0184723,0.0141156 0.0196347,0.0124482 0.0206469,0.0106856 0.0215014,0.0088413 0.0221914,0.00692945 0.0227119,0.00496463 0.0230587,0.00296187 0.0232293,0.000936463 0.0232223,-0.0010961 0.0230378,-0.00312029 0.0226772,-0.00512062 0.0221433,-0.00708181 0.0214401,-0.00898887 0.020573,-0.0108272 0.0195487,-0.0125828 0.0183749,-0.0142422 0.221972,0.261885 -0.0127202,0.0104891 -0.0129994,0.0101411 -0.0132691,0.0097856 -0.0447369,0.0291857 -0.0471215,0.0251547 -0.0491438,0.0209304 -0.0507883,0.0165452 -0.0520424,0.0120327 -0.0528964,0.0074278 -0.0533437,0.00276576 -0.0533809,-0.00191754 -0.0530078,-0.0065861 -0.0522271,-0.011204 -0.0510449,-0.0157358 -0.0494703,-0.0201466 -0.0475154,-0.0244026 -0.0451952,-0.0284709 -0.0425275,-0.0323204 -0.0395329,-0.0359214 -0.0362344,-0.0392462 -0.0326574,-0.0422693 -0.0288292,-0.0449675 -0.0247794,-0.0473199 -0.0205392,-0.0493086 -0.016141,-0.0509182 -0.0116188,-0.0521364 -0.00700717,-0.0529537 -0.00234173,-0.053364 0.343301,0 z "/>
<path fill="rgb(241,240,234)" stroke="rgb(241,240,234)" d="M 1.70929,2.59062 l -0.343301,0 0.00241631,-0.0542055 0.00722975,-0.0537755 0.0119858,-0.0529189 0.0166469,-0.0516425 0.0211758,-0.0499565 0.0255368,-0.0478742 0.0289159,-0.0443264 0.0326539,-0.0416495 0.0361455,-0.0386582 0.0393643,-0.0353752 0.0422861,-0.0318253 0.0448887,-0.0280351 0.0471525,-0.0240334 0.0490604,-0.0198502 0.0505981,-0.0155173 0.051754,-0.0110673 0.0525192,-0.00653369 0.0528881,-0.00195081 0.0528578,0.00264679 0.0524287,0.00722441 0.0516038,0.0117475 0.0503895,0.016182 0.0487949,0.0204943 0.046832,0.0246519 0.0445157,0.0286235 0.0418635,0.0323791 0.0388953,0.0358903 0.0356335,0.0391307 0.0321029,0.0420757 0.0283299,0.0447032 0.0243432,0.0469933 0.0201727,0.0489287 0.01585,0.0504949 0.0114076,0.05168 0.0068792,0.0524751 0.00229885,0.0528741 -0.00229194,0.0527948 -0.00685858,0.0523975 -0.0113736,0.051606 -0.0158031,0.0504262 -0.0201136,0.048867 -0.0242728,0.0469401 -0.0282494,0.04466 -0.0320134,0.0420438 -0.0355365,0.0391113 -0.0387922,0.0358846 -0.221972,-0.261885 0.0169321,-0.0156629 0.015511,-0.0170713 0.0139732,-0.0183513 0.0123303,-0.0194932 0.0105946,-0.0204884 0.00877919,-0.0213295 0.00689772,-0.02201 0.00496435,-0.022525 0.00299363,-0.0228705 0.00100039,-0.0230439 -0.00101186,-0.0231754 -0.00302787,-0.022999 -0.00502085,-0.0226476 -0.00697561,-0.0221238 -0.00887728,-0.0214316 -0.0107114,-0.0205764 -0.012464,-0.0195645 -0.0141217,-0.0184038 -0.015672,-0.017103 -0.017103,-0.015672 -0.0184038,-0.0141217 -0.0195645,-0.012464 -0.0205764,-0.0107114 -0.0214316,-0.00887728 -0.0221238,-0.00697561 -0.0226476,-0.00502085 -0.022999,-0.00302787 -0.0231754,-0.00101186 -0.0231754,0.00101186 -0.022999,0.00302787 -0.0226476,0.00502085 -0.0221238,0.00697561 -0.0214316,0.00887728 -0.0205764,0.0107114 -0.0195645,0.012464 -0.0184038,0.0141217 -0.017103,0.015672 -0.015672,0.017103 -0.0141217,0.0184038 -0.012464,0.0195645 -0.0107114,0.0205764 -0.00887728,0.0214316 -0.00697561,0.0221238 -0.00502085,0.0226476 -0.00302787,0.022999 -0.00101186,0.0231754 z "/>
<path fill="rgb(241,240,234)" stroke="rgb(241,240,234)" d="M 4.64552,3.72367 l -0.213418,0.430208 -0.0917916,-0.0508967 -0.0867547,-0.0590745 -0.0809913,-0.0667577 -0.0745497,-0.0738818 -0.0674838,-0.0803872 -0.0608806,-0.087858 -0.0524373,-0.093144 -0.0435387,-0.097621 -0.0342619,-0.10125 -0.0246876,-0.104 -0.0148988,-0.105847 -0.0049807,-0.106774 0.00427456,-0.0989311 0.0127918,-0.0981937 0.0212137,-0.0967244 0.0294775,-0.0945341 0.0375216,-0.0916393 0.045286,-0.0880614 0.0527129,-0.0838271 0.0597469,-0.078968 0.0663355,-0.0735203 0.0724297,-0.0675246 0.077984,-0.0610256 0.0829571,-0.0540717 0.0873118,-0.0467148 0.0910157,-0.0390097 0.0940413,-0.0310139 0.0963659,-0.0227869 0.0979722,-0.01439 0.0988483,-0.00588591 0.0989876,0.00266208 0.0983891,0.0111902 0.0970572,0.019635 0.0950019,0.0279333 0.0922385,0.0360235 0.0887875,0.0438452 0.0846748,0.0513401 0.079931,0.0584523 0.0745913,0.0651288 0.0686957,0.0713199 0.0622881,0.0769793 0.0582,0.0866216 0.050086,0.091553 0.0415573,0.0957264 0.0326846,0.0991073 0.0235414,0.101668 0.0142032,0.103387 0.00474751,0.10425 -0.480236,0 -0.00253714,-0.0581101 -0.00759212,-0.0576679 -0.0125893,-0.0567867 -0.0174907,-0.0554734 -0.022259,-0.0537379 -0.0268578,-0.0515934 -0.0312523,-0.0490563 -0.0354089,-0.0461458 -0.039296,-0.0428841 -0.0428841,-0.039296 -0.0461458,-0.0354089 -0.0490563,-0.0312523 -0.0515934,-0.0268578 -0.0537379,-0.022259 -0.0554734,-0.0174907 -0.0567867,-0.0125893 -0.0576679,-0.00759212 -0.0581101,-0.00253714 -0.0581101,0.00253714 -0.0576679,0.00759212 -0.0567867,0.0125893 -0.0554734,0.0174907 -0.0537379,0.022259 -0.0515934,0.0268578 -0.0490563,0.0312523 -0.0461458,0.0354089 -0.0428841,0.039296 -0.039296,0.0428841 -0.0354089,0.0461458 -0.0312523,0.0490563 -0.0268578,0.0515934 -0.022259,0.0537379 -0.0174907,0.0554734 -0.0125893,0.0567867 -0.00759212,0.0576679 -0.00253714,0.0581101 0.00243023,0.0568749 0.00727298,0.0564603 0.0120627,0.0556341 0.0167645,0.0544023 0.0213441,0.052774 0.0257681,0.0507609 0.0300042,0.0483778 0.0340216,0.045642 0.037791,0.0425735 0.0412849,0.0391946 0.0444779,0.03553 0.0473466,0.0316064 0.0498701,0.0274524 z "/>
<path fill="rgb(241,240,234)" stroke="rgb(241,240,234)" d="M 6.08879,3.12639 l -0.00447028,0.101166 -0.013376,0.100378 -0.0221775,0.0988067 -0.0308061,0.0964655 -0.0391945,0.0933723 -0.0472774,0.0895514 -0.0549919,0.0850323 -0.0622776,0.0798505 -0.0690779,0.0740462 -0.0753398,0.0676648 -0.0810144,0.0607559 -0.0860575,0.0533734 -0.0904297,0.0455749 -0.0940971,0.0374211 -0.097031,0.0289756 -0.0992086,0.0203043 -0.100613,0.0114747 -0.101233,0.00255564 -0.101064,-0.00638333 -0.100107,-0.0152725 -0.0983695,-0.0240427 -0.0958655,-0.0326255 -0.0926142,-0.0409539 0.213418,-0.430208 0.0538368,0.0238066 0.0557268,0.0189653 0.0571824,0.0139761 0.0581923,0.00887796 0.0587485,0.00371064 0.0588468,-0.0014856 0.0584865,-0.00667026 0.0576702,-0.0118029 0.0564044,-0.0168436 0.0546989,-0.021753 0.052567,-0.0264928 0.0500254,-0.0310261 0.0470938,-0.0353175 0.0437952,-0.0393337 0.0401552,-0.0430432 0.0362021,-0.0464173 0.0319669,-0.0494295 0.0274825,-0.0520564 0.0227839,-0.0542776 0.0179076,-0.0560756 0.0128918,-0.0574366 0.0077755,-0.0583498 0.00259859,-0.0588082 0.480236,0 z "/>
<path fill="rgb(0,91,140)" stroke="rgb(0,91,140)" d="M 5.30301,4.64642 l 0,1.05173 -1.45259,0 -0.341291,-1.29779 0.400848,0 0.277793,0.246061 1.11524,0 z "/>
<path fill="rgb(0,91,140)" stroke="rgb(0,91,140)" d="M 1.06776,6.07553 l -0.151112,0.131016 -0.207757,-0.262428 -0.18353,-0.279907 -0.15784,-0.295157 -0.130893,-0.308056 -0.102903,-0.3185 -0.0740935,-0.326407 -0.0446935,-0.331713 -0.0149375,-0.334377 0.0142699,-0.326834 0.042701,-0.324347 0.0708072,-0.319391 0.0983745,-0.312004 0.125193,-0.302243 0.151059,-0.290182 0.175775,-0.275912 0.199154,-0.259542 0.221016,-0.241197 0.241197,-0.221016 0.259542,-0.199154 0.275912,-0.175775 0.290182,-0.151059 0.302243,-0.125193 0.312004,-0.0983745 0.319391,-0.0708072 0.324347,-0.042701 0.326834,-0.0142699 0,0.2 -0.309403,0.0135088 -0.307048,0.0404237 -0.302357,0.0670308 -0.295364,0.0931279 -0.286123,0.118516 -0.274705,0.143002 -0.261196,0.1664 -0.2457,0.188532 -0.228333,0.209229 -0.209229,0.228333 -0.188532,0.2457 -0.1664,0.261196 -0.143002,0.274705 -0.118516,0.286123 -0.0931279,0.295364 -0.0670308,0.302357 -0.0404237,0.307048 -0.0135088,0.309403 0.0141408,0.316544 0.0423099,0.314022 0.0701418,0.308999 0.097415,0.301513 0.123912,0.291626 0.149422,0.279416 0.173742,0.264979 0.196677,0.248431 z "/>
<path fill="rgb(0,91,140)" stroke="rgb(0,91,140)" d="M 7.5,3.75 l -0.0128574,0.310266 -0.0384839,0.308138 -0.0638466,0.303898 -0.0887715,0.297573 -0.189122,-0.06506 0.084037,-0.281703 0.0604415,-0.28769 0.0364315,-0.291704 0.0121716,-0.293718 -0.0135088,-0.309403 -0.0404237,-0.307048 -0.0670308,-0.302357 -0.0931279,-0.295364 -0.118516,-0.286123 -0.143002,-0.274705 -0.1664,-0.261196 -0.188532,-0.2457 -0.209229,-0.228333 -0.228333,-0.209229 -0.2457,-0.188532 -0.261196,-0.1664 -0.274705,-0.143002 -0.286123,-0.118516 -0.295364,-0.0931279 -0.302357,-0.0670308 -0.307048,-0.0404237 -0.309403,-0.0135088 0,-0.2 0.326834,0.0142699 0.324347,0.042701 0.319391,0.0708072 0.312004,0.0983745 0.302243,0.125193 0.290182,0.151059 0.275912,0.175775 0.259542,0.199154 0.241197,0.221016 0.221016,0.241197 0.199154,0.259542 0.175775,0.275912 0.151059,0.290182 0.125193,0.302243 0.0983745,0.312004 0.0708072,0.319391 0.042701,0.324347 0.0142699,0.326834 z "/>
<path fill="rgb(0,91,140)" stroke="rgb(0,91,140)" d="M 1.06776,6.07553 l 0.213058,0.225086 0.231878,0.205645 0.248931,0.184636 0.264087,0.162221 0.27723,0.138568 0.288259,0.11386 0.297092,0.0882837 0.30366,0.0620345 0.307913,0.0353125 0.30982,0.00832127 0.309365,-0.0187333 0.306552,-0.0456452 0.301402,-0.0722091 0.293955,-0.0982226 0.284268,-0.123487 0.272414,-0.147811 0.258483,-0.171008 0.242583,-0.192902 0.224833,-0.213325 0.20537,-0.232122 0.184341,-0.24915 0.161907,-0.264279 0.138239,-0.277394 0.113518,-0.288394 0.189122,0.06506 -0.119913,0.304642 -0.146028,0.293022 -0.171029,0.279168 -0.194726,0.263187 -0.21694,0.245199 -0.2375,0.225343 -0.256249,0.203769 -0.273046,0.180642 -0.287761,0.156138 -0.300283,0.130445 -0.310516,0.103756 -0.318383,0.0762772 -0.323822,0.0482167 -0.326794,0.0197887 -0.327274,-0.00879008 -0.32526,-0.0373019 -0.320767,-0.0655294 -0.313829,-0.0932574 -0.304499,-0.120275 -0.292848,-0.146375 -0.278965,-0.17136 -0.262956,-0.195039 -0.244942,-0.217231 -0.225061,-0.237767 0.151112,-0.131016 z "/>
<path fill="rgb(241,240,234)" stroke="rgb(241,240,234)" d="M 6.56117,1.92796 l -0.176217,-0.246661 -0.197793,-0.229722 -0.217749,-0.210902 -0.235922,-0.190354 -0.252164,-0.168248 -0.266341,-0.144764 -0.278337,-0.120095 -0.288053,-0.0944429 -0.295411,-0.0680171 -0.30035,-0.0410343 -0.30283,-0.0137155 0,-0.2 0.309403,0.0135088 0.307048,0.0404237 0.302357,0.0670308 0.295364,0.0931279 0.286123,0.118516 0.274705,0.143002 0.261196,0.1664 0.2457,0.188532 0.228333,0.209229 0.209229,0.228333 0.188532,0.2457 0.1664,0.261196 0.143002,0.274705 0.118516,0.286123 0.0931279,0.295364 0.0670308,0.302357 0.0404237,0.307048 0.0135088,0.309403 -0.0121716,0.293718 -0.0364315,0.291704 -0.0604415,0.28769 -0.084037,0.281703 -0.189122,-0.06506 0.0793025,-0.265832 0.0570363,-0.271482 0.034379,-0.27527 0.0114859,-0.277171 -0.0112984,-0.274903 -0.0338189,-0.273048 -0.0561113,-0.269352 -0.0780252,-0.263839 -0.0994129,-0.256547 -0.12013,-0.247524 -0.140037,-0.236831 z "/>
<path fill="rgb(241,240,234)" stroke="rgb(241,240,234)" d="M 1.06776,6.07553 l -0.196677,-0.248431 -0.173742,-0.264979 -0.149422,-0.279416 -0.123912,-0.291626 -0.097415,-0.301513 -0.0701418,-0.308999 -0.0423099,-0.314022 -0.0141408,-0.316544 0.0135088,-0.309403 0.0404237,-0.307048 0.0670308,-0.302357 0.0931279,-0.295364 0.118516,-0.286123 0.143002,-0.274705 0.1664,-0.261196 0.188532,-0.2457 0.209229,-0.228333 0.228333,-0.209229 0.2457,-0.188532 0.261196,-0.1664 0.274705,-0.143002 0.286123,-0.118516 0.295364,-0.0931279 0.302357,-0.0670308 0.307048,-0.0404237 0.309403,-0.0135088 0,0.2 -0.281145,0.0118182 -0.279161,0.0353713 -0.275208,0.0586748 -0.269313,0.0815643 -0.261517,0.103878 -0.251877,0.125459 -0.240459,0.146155 -0.227345,0.16582 -0.212627,0.184315 -0.196408,0.201509 -0.178804,0.217281 -0.159938,0.231521 -0.154814,0.273138 -0.128563,0.286432 -0.101184,0.297209 -0.0729159,0.305377 -0.0440073,0.310862 -0.0147122,0.313616 0.0133442,0.29871 0.0399262,0.296331 0.0661902,0.29159 0.0919268,0.284527 0.116931,0.275196 0.141004,0.263674 0.163953,0.250051 0.185597,0.234435 -0.151112,0.131016 z "/>
<path fill="rgb(241,240,234)" stroke="rgb(241,240,234)" d="M 1.06776,6.07553 l 0.151112,-0.131016 0.201055,0.212405 0.218815,0.194059 0.234907,0.174234 0.249209,0.153081 0.261611,0.130762 0.272019,0.107445 0.280354,0.08331 0.286552,0.0585396 0.290566,0.033323 0.292365,0.00785247 0.291936,-0.0176779 0.289281,-0.0430736 0.284422,-0.068141 0.277395,-0.0926889 0.268253,-0.11653 0.257067,-0.139484 0.243921,-0.161374 0.228916,-0.182034 0.212166,-0.201307 0.1938,-0.219045 0.173956,-0.235114 0.152786,-0.24939 0.130451,-0.261766 0.107123,-0.272146 0.189122,0.06506 -0.113518,0.288394 -0.138239,0.277394 -0.161907,0.264279 -0.184341,0.24915 -0.20537,0.232122 -0.224833,0.213325 -0.242583,0.192902 -0.258483,0.171008 -0.272414,0.147811 -0.284268,0.123487 -0.293955,0.0982226 -0.301402,0.0722091 -0.306552,0.0456452 -0.309365,0.0187333 -0.30982,-0.00832127 -0.307913,-0.0353125 -0.30366,-0.0620345 -0.297092,-0.0882837 -0.288259,-0.11386 -0.27723,-0.138568 -0.264087,-0.162221 -0.248931,-0.184636 -0.231878,-0.205645 -0.213058,-0.225086 z "/>
</g></g></svg>
