<?xml version="1.0" encoding="UTF-8" standalone="no"?>
<!DOCTYPE svg PUBLIC "-//W3C//DTD SVG 1.1//EN" "http://www.w3.org/Graphics/SVG/1.1/DTD/svg11-flat.dtd"
[

]>
<svg xmlns="http://www.w3.org/2000/svg"  viewBox="-0.125044 -0.125044 10.2536 12.7519"><g fill="none" stroke="black" stroke-width="0.0125" transform="translate(0,12.5018) scale(1, -1)">
<g id="Output" >
<path fill="rgb(241,240,234)" stroke="rgb(241,240,234)" d="M 1.96184,2.40636 l 0.351024,0 0.351024,0 -0.0382379,0.0279479 -0.0404518,0.0246349 -0.0423793,0.0211475 -0.0440069,0.0175104 -0.045323,0.0137494 -0.0463183,0.00989114 -0.0469858,0.00596283 -0.0473208,0.00199231 -0.0473208,-0.00199231 -0.0469858,-0.00596283 -0.0463183,-0.00989114 -0.045323,-0.0137494 -0.0440069,-0.0175104 -0.0423793,-0.0211475 -0.0404518,-0.0246349 -0.0382379,-0.0279479 z "/>
<path fill="rgb(241,240,234)" stroke="rgb(241,240,234)" d="M 2.41233,1.86226 l -0.0965432,0 -0.0965432,0 0.0994594,-0.187206 0.093627,0.187206 z "/>
<path fill="rgb(241,240,234)" stroke="rgb(241,240,234)" d="M 2.71069,1.41176 l -0.210607,0.198919 -0.0106919,-0.0155903 -0.0119669,-0.0146344 -0.0131569,-0.0135746 -0.0142534,-0.0124183 -0.0152486,-0.0111738 -0.0161355,-0.00984991 -0.0169077,-0.00845602 -0.0175598,-0.00700204 -0.0180871,-0.0054983 -0.0184859,-0.00395551 -0.0187533,-0.0023846 -0.0188875,-0.000796754 -0.0188875,0.000796754 -0.0187533,0.0023846 -0.0184859,0.00395551 -0.0180871,0.0054983 -0.0175598,0.00700204 -0.0169077,0.00845602 -0.0161355,0.00984991 -0.0152486,0.0111738 -0.0142534,0.0124183 -0.0131569,0.0135746 -0.0119669,0.0146344 -0.0106919,0.0155903 -0.204775,-0.198919 0.0368077,-0.0318812 0.0393521,-0.0286815 0.0416192,-0.0252797 0.0435929,-0.0216997 0.0452594,-0.0179667 0.0466069,-0.0141072 0.0476259,-0.0101482 0.0483093,-0.00611765 0.0486522,-0.00204402 0.0486522,0.00204402 0.0483093,0.00611765 0.0476259,0.0101482 0.0466069,0.0141072 0.0452594,0.0179667 0.0435929,0.0216997 0.0416192,0.0252797 0.0393521,0.0286815 0.0368077,0.0318812 z "/>
<path fill="rgb(241,240,234)" stroke="rgb(241,240,234)" d="M 2.31287,1.06658 l 0,0.0526578 0.0292331,0 0.00229471,-0.000100189 0.00227725,-0.000299805 0.00224245,-0.00049714 0.00219059,-0.000690691 0.00212206,-0.000878985 0.00203737,-0.00106059 0.00193719,-0.00123412 0.00182225,-0.00139826 0.00169345,-0.00155176 0.00155176,-0.00169345 0.00139826,-0.00182225 0.00123412,-0.00193719 0.00106059,-0.00203737 0.000878985,-0.00212206 0.000690691,-0.00219059 0.00049714,-0.00224245 0.000299805,-0.00227725 0.000100189,-0.00229471 -0.000100189,-0.00229471 -0.000299805,-0.00227725 -0.00049714,-0.00224245 -0.000690691,-0.00219059 -0.000878985,-0.00212206 -0.00106059,-0.00203737 -0.00123412,-0.00193719 -0.00139826,-0.00182225 -0.00155176,-0.00169345 -0.00169345,-0.00155176 -0.00182225,-0.00139826 -0.00193719,-0.00123412 -0.00203737,-0.00106059 -0.00212206,-0.000878985 -0.00219059,-0.000690691 -0.00224245,-0.00049714 -0.00227725,-0.000299805 -0.00229471,-0.000100189 -4.3836e-12,0 -0.0292331,0 z M 2.28947,1.14267 l 0,-0.169686 0.0234008,0 0,0.0702262 0.0292331,0 0.00433423,0.000189236 0.00430124,0.000566269 0.00423552,0.000938992 0.00413756,0.00130457 0.00400812,0.00166022 0.00384817,0.00200323 0.00365893,0.002331 0.00344185,0.00264102 0.00319857,0.00293095 0.00293095,0.00319857 0.00264102,0.00344185 0.002331,0.00365893 0.00200323,0.00384817 0.00166022,0.00400812 0.00130457,0.00413756 0.000938992,0.00423552 0.000566269,0.00430124 0.000189236,0.00433423 -0.000189236,0.00433423 -0.000566269,0.00430124 -0.000938992,0.00423552 -0.00130457,0.00413756 -0.00166022,0.00400812 -0.00200323,0.00384817 -0.002331,0.00365893 -0.00264102,0.00344185 -0.00293095,0.00319857 -0.00319857,0.00293095 -0.00344185,0.00264102 -0.00365893,0.002331 -0.00384817,0.00200323 -0.00400812,0.00166022 -0.00413756,0.00130457 -0.00423552,0.000938992 -0.00430124,0.000566269 -0.00433423,0.000189236 -0.052634,0 z "/>
<path fill="rgb(241,240,234)" stroke="rgb(241,240,234)" d="M 0.508116,6.25089 l 0,-5.49085 0.000998892,-0.0228784 0.00298907,-0.0227043 0.00495651,-0.0223574 0.00688622,-0.0218403 0.00876352,-0.021157 0.0105741,-0.0203127 0.0123043,-0.0193138 0.0139407,-0.0181679 0.0154711,-0.0168838 0.0168838,-0.0154711 0.0181679,-0.0139407 0.0193138,-0.0123043 0.0203127,-0.0105741 0.021157,-0.00876352 0.0218403,-0.00688622 0.0223574,-0.00495651 0.0227043,-0.00298907 0.0228784,-0.000998892 2.98241,3.55271e-15 -0.738109,0.294088 -1.36315,0 0,1.75513 0.187206,0 0.0819147,-0.122836 0.0417405,0.0343973 0.044721,0.0304216 0.0473241,0.0261891 0.0495278,0.0217357 0.0513135,0.0170987 0.0526661,0.0123175 0.0535743,0.00743234 0.0540303,0.00248444 2.68598,0.324887 -3.05,-4.44089e-16 -0.0261467,0.00114159 -0.0259477,0.00341608 -0.0255513,0.00566458 -0.0249603,0.00786996 -0.0241794,0.0100155 -0.0232145,0.0120847 -0.0220729,0.014062 -0.0207634,0.0159323 -0.0192958,0.0176813 -0.0176813,0.0192958 -0.0159323,0.0207634 -0.014062,0.0220729 -0.0120847,0.0232145 -0.0100155,0.0241794 -0.00786996,0.0249603 -0.00566458,0.0255513 -0.00341608,0.0259477 -0.00114159,0.0261467 -4.44089e-16,3.05 -1.14365,0 z "/>
<path fill="rgb(241,240,234)" stroke="rgb(241,240,234)" d="M 9.51129,6.25089 l -1.77636e-15,5.48553 -0.000998892,0.0228784 -0.00298907,0.0227043 -0.00495651,0.0223574 -0.00688622,0.0218403 -0.00876352,0.021157 -0.0105741,0.0203127 -0.0123043,0.0193138 -0.0139407,0.0181679 -0.0154711,0.0168838 -0.0168838,0.0154711 -0.0181679,0.0139407 -0.0193138,0.0123043 -0.0203127,0.0105741 -0.021157,0.00876352 -0.0218403,0.00688622 -0.0223574,0.00495651 -0.0227043,0.00298907 -0.0228784,0.000998892 -8.47818,-8.88178e-15 -0.0228784,-0.000998892 -0.0227043,-0.00298907 -0.0223574,-0.00495651 -0.0218403,-0.00688622 -0.021157,-0.00876352 -0.0203127,-0.0105741 -0.0193138,-0.0123043 -0.0181679,-0.0139407 -0.0168838,-0.0154711 -0.0154711,-0.0168838 -0.0139407,-0.0181679 -0.0123043,-0.0193138 -0.0105741,-0.0203127 -0.00876352,-0.021157 -0.00688622,-0.0218403 -0.00495651,-0.0223574 -0.00298907,-0.0227043 -0.000998892,-0.0228784 0,-5.48553 1.14365,0 -4.44089e-16,3.05 0.00114159,0.0261467 0.00341608,0.0259477 0.00566458,0.0255513 0.00786996,0.0249603 0.0100155,0.0241794 0.0120847,0.0232145 0.014062,0.0220729 0.0159323,0.0207634 0.0176813,0.0192958 0.0192958,0.0176813 0.0207634,0.0159323 0.0220729,0.014062 0.0232145,0.0120847 0.0241794,0.0100155 0.0249603,0.00786996 0.0255513,0.00566458 0.0259477,0.00341608 0.0261467,0.00114159 6.1,0 0.0261467,-0.00114159 0.0259477,-0.00341608 0.0255513,-0.00566458 0.0249603,-0.00786996 0.0241794,-0.0100155 0.0232145,-0.0120847 0.0220729,-0.014062 0.0207634,-0.0159323 0.0192958,-0.0176813 0.0176813,-0.0192958 0.0159323,-0.0207634 0.014062,-0.0220729 0.0120847,-0.0232145 0.0100155,-0.0241794 0.00786996,-0.0249603 0.00566458,-0.0255513 0.00341608,-0.0259477 0.00114159,-0.0261467 0,-3.05 1.15953,8.88178e-16 z "/>
<path fill="rgb(241,240,234)" stroke="rgb(241,240,234)" d="M 3.01492,2.54676 l 0,-1.75513 0.738109,-0.294088 5.49577,5.32907e-15 0.0228784,0.000998892 0.0227043,0.00298907 0.0223574,0.00495651 0.0218403,0.00688622 0.021157,0.00876352 0.0203127,0.0105741 0.0193138,0.0123043 0.0181679,0.0139407 0.0168838,0.0154711 0.0154711,0.0168838 0.0139407,0.0181679 0.0123043,0.0193138 0.0105741,0.0203127 0.00876352,0.021157 0.00688622,0.0218403 0.00495651,0.0223574 0.00298907,0.0227043 0.000998892,0.0228784 1.77636e-15,5.49085 -1.15953,-8.88178e-16 0,-3.05 -0.00114159,-0.0261467 -0.00341608,-0.0259477 -0.00566458,-0.0255513 -0.00786996,-0.0249603 -0.0100155,-0.0241794 -0.0120847,-0.0232145 -0.014062,-0.0220729 -0.0159323,-0.0207634 -0.0176813,-0.0192958 -0.0192958,-0.0176813 -0.0207634,-0.0159323 -0.0220729,-0.014062 -0.0232145,-0.0120847 -0.0241794,-0.0100155 -0.0249603,-0.00786996 -0.0255513,-0.00566458 -0.0259477,-0.00341608 -0.0261467,-0.00114159 -3.05,4.44089e-16 -2.68598,-0.324887 0.0540303,-0.00248444 0.0535743,-0.00743234 0.0526661,-0.0123175 0.0513135,-0.0170987 0.0495278,-0.0217357 0.0473241,-0.0261891 0.044721,-0.0304216 0.0417405,-0.0343973 0.105316,0.122836 0.198919,0 z "/>
<path fill="rgb(0,91,140)" stroke="rgb(0,91,140)" d="M 2.31287,1.06658 l 0.0292331,0 4.3836e-12,0 0.00229471,0.000100189 0.00227725,0.000299805 0.00224245,0.00049714 0.00219059,0.000690691 0.00212206,0.000878985 0.00203737,0.00106059 0.00193719,0.00123412 0.00182225,0.00139826 0.00169345,0.00155176 0.00155176,0.00169345 0.00139826,0.00182225 0.00123412,0.00193719 0.00106059,0.00203737 0.000878985,0.00212206 0.000690691,0.00219059 0.00049714,0.00224245 0.000299805,0.00227725 0.000100189,0.00229471 -0.000100189,0.00229471 -0.000299805,0.00227725 -0.00049714,0.00224245 -0.000690691,0.00219059 -0.000878985,0.00212206 -0.00106059,0.00203737 -0.00123412,0.00193719 -0.00139826,0.00182225 -0.00155176,0.00169345 -0.00169345,0.00155176 -0.00182225,0.00139826 -0.00193719,0.00123412 -0.00203737,0.00106059 -0.00212206,0.000878985 -0.00219059,0.000690691 -0.00224245,0.00049714 -0.00227725,0.000299805 -0.00229471,0.000100189 -0.0292331,0 0,-0.0526578 z "/>
<path fill="rgb(0,91,140)" stroke="rgb(0,91,140)" d="M 2.71069,1.41176 l -0.0368077,-0.0318812 -0.0393521,-0.0286815 -0.0416192,-0.0252797 -0.0435929,-0.0216997 -0.0452594,-0.0179667 -0.0466069,-0.0141072 -0.0476259,-0.0101482 -0.0483093,-0.00611765 -0.0486522,-0.00204402 -0.0233889,-0.111172 0.052634,0 0.00433423,-0.000189236 0.00430124,-0.000566269 0.00423552,-0.000938992 0.00413756,-0.00130457 0.00400812,-0.00166022 0.00384817,-0.00200323 0.00365893,-0.002331 0.00344185,-0.00264102 0.00319857,-0.00293095 0.00293095,-0.00319857 0.00264102,-0.00344185 0.002331,-0.00365893 0.00200323,-0.00384817 0.00166022,-0.00400812 0.00130457,-0.00413756 0.000938992,-0.00423552 0.000566269,-0.00430124 0.000189236,-0.00433423 -0.000189236,-0.00433423 -0.000566269,-0.00430124 -0.000938992,-0.00423552 -0.00130457,-0.00413756 -0.00166022,-0.00400812 -0.00200323,-0.00384817 -0.002331,-0.00365893 -0.00264102,-0.00344185 -0.00293095,-0.00319857 -0.00319857,-0.00293095 -0.00344185,-0.00264102 -0.00365893,-0.002331 -0.00384817,-0.00200323 -0.00400812,-0.00166022 -0.00413756,-0.00130457 -0.00423552,-0.000938992 -0.00430124,-0.000566269 -0.00433423,-0.000189236 -0.0292331,0 0,-0.0702262 0.702048,-0.18135 0,1.75513 -0.198919,0 -0.105316,-0.122836 -0.0417405,0.0343973 -0.044721,0.0304216 -0.0473241,0.0261891 -0.0495278,0.0217357 -0.0513135,0.0170987 -0.0526661,0.0123175 -0.0535743,0.00743234 -0.0540303,0.00248444 -0.00292808,-0.0468088 0.0473208,-0.00199231 0.0469858,-0.00596283 0.0463183,-0.00989114 0.045323,-0.0137494 0.0440069,-0.0175104 0.0423793,-0.0211475 0.0404518,-0.0246349 0.0382379,-0.0279479 -0.351024,0 0.00292808,-0.544098 0.0965432,0 -0.093627,-0.187206 -0.00876042,-0.169705 0.0188875,0.000796754 0.0187533,0.0023846 0.0184859,0.00395551 0.0180871,0.0054983 0.0175598,0.00700204 0.0169077,0.00845602 0.0161355,0.00984991 0.0152486,0.0111738 0.0142534,0.0124183 0.0131569,0.0135746 0.0119669,0.0146344 0.0106919,0.0155903 0.210607,-0.198919 z "/>
<path fill="rgb(0,91,140)" stroke="rgb(0,91,140)" d="M 1.96184,2.40636 l 0.0382379,0.0279479 0.0404518,0.0246349 0.0423793,0.0211475 0.0440069,0.0175104 0.045323,0.0137494 0.0463183,0.00989114 0.0469858,0.00596283 0.0473208,0.00199231 0.00292808,0.0468088 -0.0540303,-0.00248444 -0.0535743,-0.00743234 -0.0526661,-0.0123175 -0.0513135,-0.0170987 -0.0495278,-0.0217357 -0.0473241,-0.0261891 -0.044721,-0.0304216 -0.0417405,-0.0343973 -0.0819147,0.122836 -0.187206,0 0,-1.75513 1.36315,0 -0.702048,0.18135 -0.0234008,0 0,0.169686 0.0233889,0.111172 -0.0486522,0.00204402 -0.0483093,0.00611765 -0.0476259,0.0101482 -0.0466069,0.0141072 -0.0452594,0.0179667 -0.0435929,0.0216997 -0.0416192,0.0252797 -0.0393521,0.0286815 -0.0368077,0.0318812 0.204775,0.198919 0.0106919,-0.0155903 0.0119669,-0.0146344 0.0131569,-0.0135746 0.0142534,-0.0124183 0.0152486,-0.0111738 0.0161355,-0.00984991 0.0169077,-0.00845602 0.0175598,-0.00700204 0.0180871,-0.0054983 0.0184859,-0.00395551 0.0187533,-0.0023846 0.0188875,-0.000796754 0.00876042,0.169705 -0.0994594,0.187206 0.0965432,0 -0.00292808,0.544098 -0.351024,0 z "/>
<path fill="rgb(0,91,140)" stroke="rgb(0,91,140)" d="M 1.65177,6.25089 l 4.44089e-16,-3.05 0.00114159,-0.0261467 0.00341608,-0.0259477 0.00566458,-0.0255513 0.00786996,-0.0249603 0.0100155,-0.0241794 0.0120847,-0.0232145 0.014062,-0.0220729 0.0159323,-0.0207634 0.0176813,-0.0192958 0.0192958,-0.0176813 0.0207634,-0.0159323 0.0220729,-0.014062 0.0232145,-0.0120847 0.0241794,-0.0100155 0.0249603,-0.00786996 0.0255513,-0.00566458 0.0259477,-0.00341608 0.0261467,-0.00114159 3.05,4.44089e-16 3.05,-4.44089e-16 0.0261467,0.00114159 0.0259477,0.00341608 0.0255513,0.00566458 0.0249603,0.00786996 0.0241794,0.0100155 0.0232145,0.0120847 0.0220729,0.014062 0.0207634,0.0159323 0.0192958,0.0176813 0.0176813,0.0192958 0.0159323,0.0207634 0.014062,0.0220729 0.0120847,0.0232145 0.0100155,0.0241794 0.00786996,0.0249603 0.00566458,0.0255513 0.00341608,0.0259477 0.00114159,0.0261467 0,3.05 0,3.05 -0.00114159,0.0261467 -0.00341608,0.0259477 -0.00566458,0.0255513 -0.00786996,0.0249603 -0.0100155,0.0241794 -0.0120847,0.0232145 -0.014062,0.0220729 -0.0159323,0.0207634 -0.0176813,0.0192958 -0.0192958,0.0176813 -0.0207634,0.0159323 -0.0220729,0.014062 -0.0232145,0.0120847 -0.0241794,0.0100155 -0.0249603,0.00786996 -0.0255513,0.00566458 -0.0259477,0.00341608 -0.0261467,0.00114159 -6.1,0 -0.0261467,-0.00114159 -0.0259477,-0.00341608 -0.0255513,-0.00566458 -0.0249603,-0.00786996 -0.0241794,-0.0100155 -0.0232145,-0.0120847 -0.0220729,-0.014062 -0.0207634,-0.0159323 -0.0192958,-0.0176813 -0.0176813,-0.0192958 -0.0159323,-0.0207634 -0.014062,-0.0220729 -0.0120847,-0.0232145 -0.0100155,-0.0241794 -0.00786996,-0.0249603 -0.00566458,-0.0255513 -0.00341608,-0.0259477 -0.00114159,-0.0261467 4.44089e-16,-3.05 z "/>
<path fill="rgb(241,240,234)" stroke="rgb(241,240,234)" d="M 10.0035,6.25089 l -0.229744,0 0,-5.49085 -0.00199778,-0.0457568 -0.00597815,-0.0454085 -0.00991301,-0.0447147 -0.0137724,-0.0436806 -0.017527,-0.042314 -0.0211483,-0.0406254 -0.0246085,-0.0386276 -0.0278815,-0.0363359 -0.0309423,-0.0337676 -0.0337676,-0.0309423 -0.0363359,-0.0278815 -0.0386276,-0.0246085 -0.0406254,-0.0211483 -0.042314,-0.017527 -0.0436806,-0.0137724 -0.0447147,-0.00991301 -0.0454085,-0.00597815 -0.0457568,-0.00199778 -8.47818,-7.99361e-15 -0.0457568,0.00199778 -0.0454085,0.00597815 -0.0447147,0.00991301 -0.0436806,0.0137724 -0.042314,0.017527 -0.0406254,0.0211483 -0.0386276,0.0246085 -0.0363359,0.0278815 -0.0337676,0.0309423 -0.0309423,0.0337676 -0.0278815,0.0363359 -0.0246085,0.0386276 -0.0211483,0.0406254 -0.017527,0.042314 -0.0137724,0.0436806 -0.00991301,0.0447147 -0.00597815,0.0454085 -0.00199778,0.0457568 0,5.49085 -0.245616,1.77636e-15 0,-6.25089 10.0035,1.77636e-15 -1.77636e-15,6.25089 z "/>
<path fill="rgb(241,240,234)" stroke="rgb(241,240,234)" d="M 10.0035,6.25089 l -1.77636e-15,6.25089 -10.0035,0 0,-6.25089 0.245616,-1.77636e-15 0,5.48553 0.00199778,0.0457568 0.00597815,0.0454085 0.00991301,0.0447147 0.0137724,0.0436806 0.017527,0.042314 0.0211483,0.0406254 0.0246085,0.0386276 0.0278815,0.0363359 0.0309423,0.0337676 0.0337676,0.0309423 0.0363359,0.0278815 0.0386276,0.0246085 0.0406254,0.0211483 0.042314,0.017527 0.0436806,0.0137724 0.0447147,0.00991301 0.0454085,0.00597815 0.0457568,0.00199778 8.47818,1.06581e-14 0.0457568,-0.00199778 0.0454085,-0.00597815 0.0447147,-0.00991301 0.0436806,-0.0137724 0.042314,-0.017527 0.0406254,-0.0211483 0.0386276,-0.0246085 0.0363359,-0.0278815 0.0337676,-0.0309423 0.0309423,-0.0337676 0.0278815,-0.0363359 0.0246085,-0.0386276 0.0211483,-0.0406254 0.017527,-0.042314 0.0137724,-0.0436806 0.00991301,-0.0447147 0.00597815,-0.0454085 0.00199778,-0.0457568 1.77636e-15,-5.48553 0.229744,0 z "/>
<path fill="rgb(241,240,234)" stroke="rgb(241,240,234)" d="M 5.62232,9.00209 l -2.56327,0 0,-5.49946 1.00233,0 0,2.15573 1.56093,0 0.0220293,0 0.188823,0.00786761 0.177808,0.0188823 0.166793,0.0298969 0.155779,0.0409116 0.143191,0.0534998 0.132176,0.066088 0.0377645,0.0220293 0.140044,0.0944114 0.127455,0.105426 0.116441,0.118014 0.103852,0.129029 0.0912643,0.140044 0.0204558,0.0377645 -3.18481,0.122735 0,1.37054 1.60185,0 1.61601,0.0865437 -0.0771026,0.130602 -0.0928378,0.124308 -0.105426,0.114867 -0.121161,0.107 -0.133749,0.0991319 -0.147911,0.0912643 -0.0110147,0.00629409 -0.141617,0.069235 -0.149485,0.0566468 -0.157352,0.0440586 -0.16522,0.0314705 -0.173087,0.0188823 -0.180955,0.00629409 z "/>
<path fill="rgb(241,240,234)" stroke="rgb(241,240,234)" d="M 7.27924,8.10204 l -1.61601,-0.0865437 0.149485,-0.00786761 0.168367,-0.033044 0.144764,-0.0582203 0.122735,-0.0849702 0.0613674,-0.0629409 0.0896908,-0.132176 0.0550733,-0.149485 0.0173087,-0.168367 -0.00314705,-0.0755291 -0.0346175,-0.160499 -0.0739556,-0.13847 -0.11172,-0.114867 -0.100705,-0.0676615 -0.144764,-0.0645144 -0.162073,-0.0393381 -0.177808,-0.0125882 -1.60185,0 3.18481,-0.122735 0.0771026,0.154205 0.0582203,0.157352 0.0424851,0.158926 0.0251764,0.162073 0.00786761,0.163646 0,0.00472057 -0.00629409,0.171514 -0.0220293,0.163646 -0.036191,0.155779 -0.0487792,0.147911 -0.0645144,0.140044 z "/>
<path fill="rgb(42,41,42)" stroke="rgb(42,41,42)" d="M 6.92519,11.4647 l -0.728541,0 0,-0.999187 0.74585,0 0,0.179382 -0.564895,0 0,0.272219 0.298969,0 0,0.182529 -0.298969,0 0,0.185676 0.547586,0 0,0.179382 z "/>
<path fill="rgb(42,41,42)" stroke="rgb(42,41,42)" d="M 5.93702,11.4647 l -0.171514,0 0,-0.659306 0.0188823,-0.339881 0.152632,0 0,0.999187 z "/>
<path fill="rgb(42,41,42)" stroke="rgb(42,41,42)" d="M 5.30604,11.4647 l 0,-0.311557 0.478351,-0.687629 -0.0188823,0.339881 -0.459469,0.659306 z "/>
<path fill="rgb(42,41,42)" stroke="rgb(42,41,42)" d="M 5.30604,11.4647 l -0.174661,0 0,-0.999187 0.174661,0 0,0.687629 0,0.311557 z "/>
<path fill="rgb(42,41,42)" stroke="rgb(42,41,42)" d="M 4.48623,11.482 l -0.0110147,0 -0.0896908,-0.0110147 -0.0802497,-0.0251764 -0.069235,-0.0424851 -0.0597939,-0.0582203 -0.0298969,-0.0409116 0.339881,0 0.0377645,-0.00314705 0.0771026,-0.0283234 0.0597939,-0.0582203 0.033044,-0.066088 0.0204558,-0.0833967 0.00786761,-0.0975584 -0.00314705,-0.0708085 -0.0157352,-0.0865437 -0.0298969,-0.072382 -0.036191,-0.0519262 -0.066088,-0.0440586 -0.0849702,-0.0141617 -0.322572,-0.0157352 0.0251764,-0.0314705 0.0597939,-0.0582203 0.0708085,-0.0409116 0.0786761,-0.0251764 0.0881173,-0.00786761 0.00629409,0 0.0881173,0.00944114 0.0771026,0.0283234 0.069235,0.0440586 0.0597939,0.0629409 0.0298969,0.0409116 0.036191,0.0708085 0.0267499,0.0802497 0.0141617,0.0881173 0.00629409,0.0959849 -0.00157352,0.0582203 -0.0125882,0.0912643 -0.0220293,0.0833967 -0.033044,0.0739556 -0.0440586,0.066088 -0.00314705,0.00157352 -0.0597939,0.0597939 -0.0708085,0.0440586 -0.0786761,0.0251764 -0.0881173,0.00944114 z "/>
<path fill="rgb(42,41,42)" stroke="rgb(42,41,42)" d="M 4.14635,11.3042 l -0.036191,-0.069235 -0.0251764,-0.0802497 -0.0157352,-0.0881173 -0.00629409,-0.0991319 0.00157352,-0.0314705 0.00786761,-0.0912643 0.0204558,-0.0833967 0.0298969,-0.0786761 0.0409116,-0.0708085 0.322572,0.0157352 -0.0393381,0.00314705 -0.0771026,0.0283234 -0.0597939,0.0582203 -0.00157352,0.00157352 -0.0346175,0.0676615 -0.0204558,0.0818232 -0.00786761,0.0991319 0.00786761,0.0959849 0.0204558,0.0833967 0.036191,0.0676615 0.0236028,0.0283234 0.0676615,0.0456322 0.0849702,0.0157352 -0.339881,0 z "/>
<path fill="rgb(42,41,42)" stroke="rgb(42,41,42)" d="M 3.89616,11.4647 l -0.753717,0 0,-0.176235 0.536571,0 -0.568042,-0.619968 0,-0.202984 0.785188,0 0,0.179382 -0.563321,0 0.563321,0.616821 0,0.202984 z "/>
<path fill="rgb(42,41,42)" stroke="rgb(42,41,42)" d="M 9.51129,6.25089 l 0.2625,-8.88178e-16 -1.77636e-15,5.48553 -0.00199778,0.0457568 -0.00597815,0.0454085 -0.00991301,0.0447147 -0.0137724,0.0436806 -0.017527,0.042314 -0.0211483,0.0406254 -0.0246085,0.0386276 -0.0278815,0.0363359 -0.0309423,0.0337676 -0.0337676,0.0309423 -0.0363359,0.0278815 -0.0386276,0.0246085 -0.0406254,0.0211483 -0.042314,0.017527 -0.0436806,0.0137724 -0.0447147,0.00991301 -0.0454085,0.00597815 -0.0457568,0.00199778 -8.47818,-1.06581e-14 -0.0457568,-0.00199778 -0.0454085,-0.00597815 -0.0447147,-0.00991301 -0.0436806,-0.0137724 -0.042314,-0.017527 -0.0406254,-0.0211483 -0.0386276,-0.0246085 -0.0363359,-0.0278815 -0.0337676,-0.0309423 -0.0309423,-0.0337676 -0.0278815,-0.0363359 -0.0246085,-0.0386276 -0.0211483,-0.0406254 -0.017527,-0.042314 -0.0137724,-0.0436806 -0.00991301,-0.0447147 -0.00597815,-0.0454085 -0.00199778,-0.0457568 0,-5.48553 0.2625,8.88178e-16 0,5.48553 0.000998892,0.0228784 0.00298907,0.0227043 0.00495651,0.0223574 0.00688622,0.0218403 0.00876352,0.021157 0.0105741,0.0203127 0.0123043,0.0193138 0.0139407,0.0181679 0.0154711,0.0168838 0.0168838,0.0154711 0.0181679,0.0139407 0.0193138,0.0123043 0.0203127,0.0105741 0.021157,0.00876352 0.0218403,0.00688622 0.0223574,0.00495651 0.0227043,0.00298907 0.0228784,0.000998892 8.47818,8.88178e-15 0.0228784,-0.000998892 0.0227043,-0.00298907 0.0223574,-0.00495651 0.0218403,-0.00688622 0.021157,-0.00876352 0.0203127,-0.0105741 0.0193138,-0.0123043 0.0181679,-0.0139407 0.0168838,-0.0154711 0.0154711,-0.0168838 0.0139407,-0.0181679 0.0123043,-0.0193138 0.0105741,-0.0203127 0.00876352,-0.021157 0.00688622,-0.0218403 0.00495651,-0.0223574 0.00298907,-0.0227043 0.000998892,-0.0228784 1.77636e-15,-5.48553 z "/>
<path fill="rgb(42,41,42)" stroke="rgb(42,41,42)" d="M 9.51129,6.25089 l -1.77636e-15,-5.49085 -0.000998892,-0.0228784 -0.00298907,-0.0227043 -0.00495651,-0.0223574 -0.00688622,-0.0218403 -0.00876352,-0.021157 -0.0105741,-0.0203127 -0.0123043,-0.0193138 -0.0139407,-0.0181679 -0.0154711,-0.0168838 -0.0168838,-0.0154711 -0.0181679,-0.0139407 -0.0193138,-0.0123043 -0.0203127,-0.0105741 -0.021157,-0.00876352 -0.0218403,-0.00688622 -0.0223574,-0.00495651 -0.0227043,-0.00298907 -0.0228784,-0.000998892 -5.49577,-5.32907e-15 -2.98241,-3.55271e-15 -0.0228784,0.000998892 -0.0227043,0.00298907 -0.0223574,0.00495651 -0.0218403,0.00688622 -0.021157,0.00876352 -0.0203127,0.0105741 -0.0193138,0.0123043 -0.0181679,0.0139407 -0.0168838,0.0154711 -0.0154711,0.0168838 -0.0139407,0.0181679 -0.0123043,0.0193138 -0.0105741,0.0203127 -0.00876352,0.021157 -0.00688622,0.0218403 -0.00495651,0.0223574 -0.00298907,0.0227043 -0.000998892,0.0228784 0,5.49085 -0.2625,-8.88178e-16 0,-5.49085 0.00199778,-0.0457568 0.00597815,-0.0454085 0.00991301,-0.0447147 0.0137724,-0.0436806 0.017527,-0.042314 0.0211483,-0.0406254 0.0246085,-0.0386276 0.0278815,-0.0363359 0.0309423,-0.0337676 0.0337676,-0.0309423 0.0363359,-0.0278815 0.0386276,-0.0246085 0.0406254,-0.0211483 0.042314,-0.017527 0.0436806,-0.0137724 0.0447147,-0.00991301 0.0454085,-0.00597815 0.0457568,-0.00199778 8.47818,7.99361e-15 0.0457568,0.00199778 0.0454085,0.00597815 0.0447147,0.00991301 0.0436806,0.0137724 0.042314,0.017527 0.0406254,0.0211483 0.0386276,0.0246085 0.0363359,0.0278815 0.0337676,0.0309423 0.0309423,0.0337676 0.0278815,0.0363359 0.0246085,0.0386276 0.0211483,0.0406254 0.017527,0.042314 0.0137724,0.0436806 0.00991301,0.0447147 0.00597815,0.0454085 0.00199778,0.0457568 0,5.49085 -0.2625,8.88178e-16 z "/>
</g></g></svg>
