<?xml version="1.0" encoding="UTF-8" standalone="no"?>
<!DOCTYPE svg PUBLIC "-//W3C//DTD SVG 1.1//EN" "http://www.w3.org/Graphics/SVG/1.1/DTD/svg11-flat.dtd"
[

]>
<svg xmlns="http://www.w3.org/2000/svg"  viewBox="-0.112544 -0.112544 9.22863 9.22687"><g fill="none" stroke="black" stroke-width="0.0125" transform="translate(0,9.00178) scale(1, -1)">
<g id="Output" >
<path fill="rgb(200,225,100)" stroke="rgb(200,225,100)" d="M 0.751769,2.94759 l 1.77636e-15,1.5533 -0.651769,-8.88178e-16 0,-4.25089 0.000570795,-0.0130734 0.00170804,-0.0129739 0.00283229,-0.0127756 0.00393498,-0.0124802 0.00500773,-0.0120897 0.00604236,-0.0116073 0.007031,-0.0110365 0.00796614,-0.0103817 0.00884065,-0.00964788 0.00964788,-0.00884065 0.0103817,-0.00796614 0.0110365,-0.007031 0.0116073,-0.00604236 0.0120897,-0.00500773 0.0124802,-0.00393498 0.0127756,-0.00283229 0.0129739,-0.00170804 0.0130734,-0.000570795 8.50354,0 0.0130734,0.000570795 0.0129739,0.00170804 0.0127756,0.00283229 0.0124802,0.00393498 0.0120897,0.00500773 0.0116073,0.00604236 0.0110365,0.007031 0.0103817,0.00796614 0.00964788,0.00884065 0.00884065,0.00964788 0.00796614,0.0103817 0.007031,0.0110365 0.00604236,0.0116073 0.00500773,0.0120897 0.00393498,0.0124802 0.00283229,0.0127756 0.00170804,0.0129739 0.000570795,0.0130734 0,4.25089 -0.651769,-2.66454e-15 0,-1.5533 -2.1967,-2.1967 -3.1066,1.33227e-15 -2.1967,2.1967 z "/>
<path fill="rgb(200,225,100)" stroke="rgb(200,225,100)" d="M 2.94847,8.25089 l 3.1066,0 2.1967,-2.1967 -1.77636e-15,-1.5533 0.651769,2.66454e-15 0,4.25089 -0.000570795,0.0130734 -0.00170804,0.0129739 -0.00283229,0.0127756 -0.00393498,0.0124802 -0.00500773,0.0120897 -0.00604236,0.0116073 -0.007031,0.0110365 -0.00796614,0.0103817 -0.00884065,0.00964788 -0.00964788,0.00884065 -0.0103817,0.00796614 -0.0110365,0.007031 -0.0116073,0.00604236 -0.0120897,0.00500773 -0.0124802,0.00393498 -0.0127756,0.00283229 -0.0129739,0.00170804 -0.0130734,0.000570795 -8.50354,0 -0.0130734,-0.000570795 -0.0129739,-0.00170804 -0.0127756,-0.00283229 -0.0124802,-0.00393498 -0.0120897,-0.00500773 -0.0116073,-0.00604236 -0.0110365,-0.007031 -0.0103817,-0.00796614 -0.00964788,-0.00884065 -0.00884065,-0.00964788 -0.00796614,-0.0103817 -0.007031,-0.0110365 -0.00604236,-0.0116073 -0.00500773,-0.0120897 -0.00393498,-0.0124802 -0.00283229,-0.0127756 -0.00170804,-0.0129739 -0.000570795,-0.0130734 0,-4.25089 0.651769,8.88178e-16 -8.88178e-16,1.5533 2.1967,2.1967 z "/>
<path fill="rgb(241,240,234)" stroke="rgb(241,240,234)" d="M 7.85177,4.50089 l 0.2,-8.88178e-16 0,1.47046 -2.07954,2.07954 -2.94092,1.77636e-15 -2.07954,-2.07954 -1.77636e-15,-1.47046 0.2,-8.88178e-16 -4.44089e-16,1.38762 1.96238,1.96238 2.77523,0 1.96238,-1.96238 0,-1.38762 z "/>
<path fill="rgb(241,240,234)" stroke="rgb(241,240,234)" d="M 8.05177,3.03043 l 0,1.47046 -0.2,8.88178e-16 -1.77636e-15,-1.38762 -1.96238,-1.96238 -2.77523,2.22045e-15 -1.96238,1.96238 1.77636e-15,1.38762 -0.2,8.88178e-16 0,-1.47046 2.07954,-2.07954 2.94092,-1.77636e-15 2.07954,2.07954 z "/>
<path fill="rgb(42,41,42)" stroke="rgb(42,41,42)" d="M 8.90354,4.50089 l 0.1,0 0,-4.25089 -0.000951325,-0.0217889 -0.00284674,-0.0216231 -0.00472048,-0.0212927 -0.0065583,-0.0208003 -0.00834621,-0.0201495 -0.0100706,-0.0193454 -0.0117183,-0.0183941 -0.0132769,-0.0173028 -0.0147344,-0.0160798 -0.0160798,-0.0147344 -0.0173028,-0.0132769 -0.0183941,-0.0117183 -0.0193454,-0.0100706 -0.0201495,-0.00834621 -0.0208003,-0.0065583 -0.0212927,-0.00472048 -0.0216231,-0.00284674 -0.0217889,-0.000951325 -8.50354,0 -0.0217889,0.000951325 -0.0216231,0.00284674 -0.0212927,0.00472048 -0.0208003,0.0065583 -0.0201495,0.00834621 -0.0193454,0.0100706 -0.0183941,0.0117183 -0.0173028,0.0132769 -0.0160798,0.0147344 -0.0147344,0.0160798 -0.0132769,0.0173028 -0.0117183,0.0183941 -0.0100706,0.0193454 -0.00834621,0.0201495 -0.0065583,0.0208003 -0.00472048,0.0212927 -0.00284674,0.0216231 -0.000951325,0.0217889 0,4.25089 0.1,0 0,-4.25089 0.000570795,-0.0130734 0.00170804,-0.0129739 0.00283229,-0.0127756 0.00393498,-0.0124802 0.00500773,-0.0120897 0.00604236,-0.0116073 0.007031,-0.0110365 0.00796614,-0.0103817 0.00884065,-0.00964788 0.00964788,-0.00884065 0.0103817,-0.00796614 0.0110365,-0.007031 0.0116073,-0.00604236 0.0120897,-0.00500773 0.0124802,-0.00393498 0.0127756,-0.00283229 0.0129739,-0.00170804 0.0130734,-0.000570795 8.50354,0 0.0130734,0.000570795 0.0129739,0.00170804 0.0127756,0.00283229 0.0124802,0.00393498 0.0120897,0.00500773 0.0116073,0.00604236 0.0110365,0.007031 0.0103817,0.00796614 0.00964788,0.00884065 0.00884065,0.00964788 0.00796614,0.0103817 0.007031,0.0110365 0.00604236,0.0116073 0.00500773,0.0120897 0.00393498,0.0124802 0.00283229,0.0127756 0.00170804,0.0129739 0.000570795,0.0130734 0,4.25089 z "/>
<path fill="rgb(42,41,42)" stroke="rgb(42,41,42)" d="M 8.90354,4.50089 l 0.1,0 0,4.25089 -0.000951325,0.0217889 -0.00284674,0.0216231 -0.00472048,0.0212927 -0.0065583,0.0208003 -0.00834621,0.0201495 -0.0100706,0.0193454 -0.0117183,0.0183941 -0.0132769,0.0173028 -0.0147344,0.0160798 -0.0160798,0.0147344 -0.0173028,0.0132769 -0.0183941,0.0117183 -0.0193454,0.0100706 -0.0201495,0.00834621 -0.0208003,0.0065583 -0.0212927,0.00472048 -0.0216231,0.00284674 -0.0217889,0.000951325 -8.50354,0 -0.0217889,-0.000951325 -0.0216231,-0.00284674 -0.0212927,-0.00472048 -0.0208003,-0.0065583 -0.0201495,-0.00834621 -0.0193454,-0.0100706 -0.0183941,-0.0117183 -0.0173028,-0.0132769 -0.0160798,-0.0147344 -0.0147344,-0.0160798 -0.0132769,-0.0173028 -0.0117183,-0.0183941 -0.0100706,-0.0193454 -0.00834621,-0.0201495 -0.0065583,-0.0208003 -0.00472048,-0.0212927 -0.00284674,-0.0216231 -0.000951325,-0.0217889 0,-4.25089 0.1,0 0,4.25089 0.000570795,0.0130734 0.00170804,0.0129739 0.00283229,0.0127756 0.00393498,0.0124802 0.00500773,0.0120897 0.00604236,0.0116073 0.007031,0.0110365 0.00796614,0.0103817 0.00884065,0.00964788 0.00964788,0.00884065 0.0103817,0.00796614 0.0110365,0.007031 0.0116073,0.00604236 0.0120897,0.00500773 0.0124802,0.00393498 0.0127756,0.00283229 0.0129739,0.00170804 0.0130734,0.000570795 8.50354,0 0.0130734,-0.000570795 0.0129739,-0.00170804 0.0127756,-0.00283229 0.0124802,-0.00393498 0.0120897,-0.00500773 0.0116073,-0.00604236 0.0110365,-0.007031 0.0103817,-0.00796614 0.00964788,-0.00884065 0.00884065,-0.00964788 0.00796614,-0.0103817 0.007031,-0.0110365 0.00604236,-0.0116073 0.00500773,-0.0120897 0.00393498,-0.0124802 0.00283229,-0.0127756 0.00170804,-0.0129739 0.000570795,-0.0130734 0,-4.25089 z "/>
<path fill="rgb(187,30,16)" stroke="rgb(187,30,16)" d="M 7.85177,4.50089 l -6.7,1.77636e-15 -1.77636e-15,-1.38762 1.96238,-1.96238 2.77523,-2.22045e-15 1.96238,1.96238 1.77636e-15,1.38762 z "/>
<path fill="rgb(187,30,16)" stroke="rgb(187,30,16)" d="M 8.05177,3.03043 l -2.07954,-2.07954 -2.94092,1.77636e-15 -2.07954,2.07954 0,1.47046 -0.2,0 -1.77636e-15,-1.5533 2.1967,-2.1967 3.1066,-1.33227e-15 2.1967,2.1967 0,1.5533 -0.2,0 0,-1.47046 z "/>
<path fill="rgb(187,30,16)" stroke="rgb(187,30,16)" d="M 2.94847,8.25089 l -2.1967,-2.1967 8.88178e-16,-1.5533 0.2,0 1.77636e-15,1.47046 2.07954,2.07954 2.94092,-1.77636e-15 2.07954,-2.07954 0,-1.47046 0.2,0 1.77636e-15,1.5533 -2.1967,2.1967 -3.1066,0 z "/>
<path fill="rgb(187,30,16)" stroke="rgb(187,30,16)" d="M 5.88938,7.85089 l -2.77523,0 -1.96238,-1.96238 4.44089e-16,-1.38762 6.7,-1.77636e-15 0,1.38762 -1.96238,1.96238 z "/>
<path fill="rgb(241,240,234)" stroke="rgb(241,240,234)" d="M 7.08456,5.50206 l -0.793499,0 0,-2.00075 0.310598,0 0,0.78443 0.482901,0 0.0668806,0.00340071 0.089552,0.0136028 0.0782163,0.0249385 0.0691478,0.0374078 0.0136028,0.00906856 0.0691478,0.0589456 0.0589456,0.0714149 0.0487435,0.081617 0.00793499,0.01587 -0.985072,0.0430757 0,0.497637 0.494236,0 0.512374,0.00113357 -0.0374078,0.0804835 -0.0498771,0.0725485 -0.0612128,0.0634799 -0.073682,0.0566785 -0.0487435,0.0283392 -0.0782163,0.03174 -0.0838842,0.0181371 -0.0906856,0.00680142 z "/>
<path fill="rgb(241,240,234)" stroke="rgb(241,240,234)" d="M 7.60827,5.14385 l -0.512374,-0.00113357 0.0294728,-0.00113357 0.0861513,-0.0204043 0.0657471,-0.0453428 0.00793499,-0.00906856 0.0464764,-0.0793499 0.0147364,-0.097487 0,-0.00793499 -0.0181371,-0.097487 -0.0510106,-0.0725485 -0.0181371,-0.01587 -0.0748156,-0.0385414 -0.0884185,-0.0124693 -0.494236,0 0.985072,-0.0430757 0.0362742,0.0940863 0.0215378,0.0952199 0.00680142,0.0986206 -0.00340071,0.0702813 -0.0136028,0.0952199 -0.0260721,0.0884185 z "/>
<path fill="rgb(241,240,234)" stroke="rgb(241,240,234)" d="M 5.1949,5.5338 l -0.0147364,0 -0.089552,-0.00680142 -0.0850177,-0.0181371 -0.0782163,-0.0283392 -0.073682,-0.0396749 -0.0680142,-0.0498771 -0.0623463,-0.0600792 -0.0566785,-0.0714149 -0.00340071,-0.00566785 -0.0442092,-0.0702813 -0.0374078,-0.0782163 -0.03174,-0.0838842 -0.0272057,-0.089552 -0.0204043,-0.097487 -0.0136028,-0.103155 -0.00906856,-0.109956 -0.00340071,-0.116758 0.00113357,-0.0544114 0.00566785,-0.107689 0.0124693,-0.102021 0.0181371,-0.0986206 0.023805,-0.0929527 0.0306064,-0.089552 0.0362742,-0.0838842 0.0430757,-0.0793499 0.547514,0.0294728 -0.0215378,0 -0.0827506,0.0147364 -0.0748156,0.0351407 -0.0646135,0.0555449 -0.0566785,0.0748156 -0.00906856,0.0170035 -0.0362742,0.0759492 -0.0272057,0.0872849 -0.0204043,0.0963534 -0.0113357,0.105422 -0.00453428,0.116758 0,0.0249385 0.00566785,0.114491 0.0147364,0.103155 0.0215378,0.0940863 0.0294728,0.0850177 0.0374078,0.073682 0.0124693,0.0181371 0.0566785,0.0702813 0.0668806,0.0498771 0.0770828,0.0294728 0.0872849,0.0102021 0.555449,0.00226714 -0.0453428,0.073682 -0.00113357,0.00113357 -0.0566785,0.073682 -0.0623463,0.0623463 -0.0680142,0.0510106 -0.0725485,0.0408085 -0.0782163,0.0283392 -0.0827506,0.0170035 -0.0884185,0.00566785 z "/>
<path fill="rgb(241,240,234)" stroke="rgb(241,240,234)" d="M 5.75035,5.18012 l -0.555449,-0.00226714 0.0181371,0 0.0850177,-0.0147364 0.0748156,-0.0340071 0.0646135,-0.0544114 0.0544114,-0.0748156 0.00680142,-0.0124693 0.0351407,-0.0770828 0.0272057,-0.0861513 0.0192707,-0.0963534 0.0113357,-0.106556 0.00453428,-0.116758 -0.00226714,-0.0827506 -0.00906856,-0.107689 -0.01587,-0.0986206 -0.023805,-0.089552 -0.0306064,-0.0793499 -0.0362742,-0.0668806 -0.0555449,-0.0668806 -0.0646135,-0.0487435 -0.0770828,-0.0294728 -0.0861513,-0.00906856 -0.547514,-0.0294728 0.0385414,-0.0600792 0.0578121,-0.0714149 0.0612128,-0.0600792 0.0680142,-0.0498771 0.0725485,-0.0385414 0.0782163,-0.0272057 0.0827506,-0.0170035 0.0884185,-0.00453428 0.00680142,0 0.0872849,0.00680142 0.0827506,0.0181371 0.0770828,0.0294728 0.0725485,0.0408085 0.0668806,0.0532778 0.0623463,0.0634799 0.0566785,0.0759492 0.00226714,0.00453428 0.0442092,0.073682 0.0385414,0.0804835 0.03174,0.0850177 0.0272057,0.0906856 0.0204043,0.0963534 0.0147364,0.103155 0.00906856,0.107689 0.00226714,0.113357 -0.00226714,0.109956 -0.00906856,0.106556 -0.0147364,0.102021 -0.0215378,0.0963534 -0.0272057,0.0906856 -0.0328735,0.0850177 -0.0396749,0.0793499 z "/>
<path fill="rgb(241,240,234)" stroke="rgb(241,240,234)" d="M 4.24383,5.50206 l -1.27527,0 0,-0.353674 0.487435,0 0,-1.64708 0.296995,0 0,1.64708 0.490836,0 0,0.353674 z "/>
<path fill="rgb(241,240,234)" stroke="rgb(241,240,234)" d="M 2.07418,5.52246 l -0.0306064,-0.00113357 -0.0929527,-0.00906856 -0.0850177,-0.0192707 -0.0782163,-0.0294728 -0.0702813,-0.0408085 -0.0634799,-0.0521442 -0.0442092,-0.0476099 -0.0510106,-0.0759492 -0.0362742,-0.0850177 -0.0226714,-0.0929527 -0.00680142,-0.100888 0.00340071,-0.073682 0.0192707,-0.0952199 0.0340071,-0.0884185 0.0498771,-0.0804835 0.0170035,-0.0204043 0.0532778,-0.0476099 0.0714149,-0.0442092 0.0861513,-0.0419421 0.104288,-0.0385414 0.0838842,-0.03174 0.0793499,-0.0204043 0.073682,-0.0260721 0.0668806,-0.0249385 0.0963534,-0.0362742 0.0396749,-0.0181371 0.0374078,-0.023805 0.0544114,-0.0680142 0.0181371,-0.0884185 -0.00340071,-0.0385414 -0.0328735,-0.081617 -0.0680142,-0.0668806 -0.01587,-0.0102021 -0.0714149,-0.0351407 -0.0827506,-0.0204043 -0.0952199,-0.00680142 -0.662005,-0.0204043 0.0612128,-0.0714149 0.0657471,-0.0623463 0.0680142,-0.0544114 0.0714149,-0.0453428 0.073682,-0.0385414 0.0770828,-0.0283392 0.0804835,-0.0215378 0.0827506,-0.0124693 0.0861513,-0.00453428 0.0249385,0.00113357 0.0884185,0.00680142 0.0850177,0.0170035 0.0804835,0.0272057 0.0770828,0.0362742 0.0725485,0.0464764 0.0691478,0.0555449 0.0612128,0.0668806 0.0464764,0.0748156 0.0340071,0.0827506 0.0204043,0.0906856 0.00680142,0.0986206 0,0.0113357 -0.00793499,0.102021 -0.0226714,0.0952199 -0.0362742,0.0884185 -0.0464764,0.0782163 -0.0600792,0.0691478 -0.0691478,0.0544114 -0.0385414,0.0204043 -0.0623463,0.0283392 -0.073682,0.0283392 -0.0872849,0.0283392 -0.0997542,0.0306064 -0.11109,0.0294728 -0.0702813,0.0215378 -0.0861513,0.0340071 -0.0544114,0.03174 -0.03174,0.0385414 -0.0226714,0.0929527 0.00566785,0.0532778 0.0294728,0.0646135 0.0544114,0.0464764 0.0782163,0.0272057 0.104288,0.00906856 0.631398,0.0442092 -0.023805,0.0283392 -0.0634799,0.0657471 -0.0668806,0.0566785 -0.0702813,0.0487435 -0.0748156,0.0396749 -0.0770828,0.0306064 -0.081617,0.0215378 -0.0850177,0.0136028 -0.0884185,0.00453428 z "/>
<path fill="rgb(241,240,234)" stroke="rgb(241,240,234)" d="M 2.70558,5.213 l -0.631398,-0.0442092 0.0351407,0 0.0872849,-0.0124693 0.0793499,-0.0249385 0.0748156,-0.0396749 0.0680142,-0.0521442 0.0623463,-0.0657471 0.224447,0.239183 z "/>
<path fill="rgb(241,240,234)" stroke="rgb(241,240,234)" d="M 1.65589,4.09076 l -0.242584,-0.224447 0.0362742,-0.0464764 0.662005,0.0204043 -0.0215378,0 -0.0850177,0.00906856 -0.0793499,0.0226714 -0.0759492,0.0351407 -0.0691478,0.0487435 -0.0646135,0.0612128 -0.0600792,0.073682 z "/>
</g></g></svg>
