<?xml version="1.0" encoding="UTF-8" standalone="no"?>
<!DOCTYPE svg PUBLIC "-//W3C//DTD SVG 1.1//EN" "http://www.w3.org/Graphics/SVG/1.1/DTD/svg11-flat.dtd"
[

]>
<svg xmlns="http://www.w3.org/2000/svg"  viewBox="-0.09375 -0.09375 7.6875 7.6875"><g fill="none" stroke="black" stroke-width="0.0125" transform="translate(0,7.5) scale(1, -1)">
<g id="Output" >
<path fill="rgb(241,240,234)" stroke="rgb(241,240,234)" d="M 6.4,3.75 l -5.3,0 0.0100841,-0.230963 0.0301754,-0.229205 0.0500371,-0.225703 0.069518,-0.220483 0.0884698,-0.213585 0.106748,-0.205062 0.124214,-0.194978 0.140735,-0.18341 0.156185,-0.170446 0.170446,-0.156185 0.18341,-0.140735 0.194978,-0.124214 0.205062,-0.106748 0.213585,-0.0884698 0.220483,-0.069518 0.225703,-0.0500371 0.229205,-0.0301754 0.230963,-0.0100841 0.230963,0.0100841 0.229205,0.0301754 0.225703,0.0500371 0.220483,0.069518 0.213585,0.0884698 0.205062,0.106748 0.194978,0.124214 0.18341,0.140735 0.170446,0.156185 0.156185,0.170446 0.140735,0.18341 0.124214,0.194978 0.106748,0.205062 0.0884698,0.213585 0.069518,0.220483 0.0500371,0.225703 0.0301754,0.229205 0.0100841,0.230963 z "/>
<path fill="rgb(241,240,234)" stroke="rgb(241,240,234)" d="M 6.4,3.75 l -0.0100841,0.230963 -0.0301754,0.229205 -0.0500371,0.225703 -0.069518,0.220483 -0.0884698,0.213585 -0.106748,0.205062 -0.124214,0.194978 -0.140735,0.18341 -0.156185,0.170446 -0.170446,0.156185 -0.18341,0.140735 -0.194978,0.124214 -0.205062,0.106748 -0.213585,0.0884698 -0.220483,0.069518 -0.225703,0.0500371 -0.229205,0.0301754 -0.230963,0.0100841 -0.230963,-0.0100841 -0.229205,-0.0301754 -0.225703,-0.0500371 -0.220483,-0.069518 -0.213585,-0.0884698 -0.205062,-0.106748 -0.194978,-0.124214 -0.18341,-0.140735 -0.170446,-0.156185 -0.156185,-0.170446 -0.140735,-0.18341 -0.124214,-0.194978 -0.106748,-0.205062 -0.0884698,-0.213585 -0.069518,-0.220483 -0.0500371,-0.225703 -0.0301754,-0.229205 -0.0100841,-0.230963 5.3,0 z "/>
<path fill="rgb(241,240,234)" stroke="rgb(241,240,234)" d="M 0.2,3.75 l 0.0135088,-0.309403 0.0404237,-0.307048 0.0670308,-0.302357 0.0931279,-0.295364 0.118516,-0.286123 0.143002,-0.274705 0.1664,-0.261196 0.188532,-0.2457 0.209229,-0.228333 0.228333,-0.209229 0.2457,-0.188532 0.261196,-0.1664 0.274705,-0.143002 0.286123,-0.118516 0.295364,-0.0931279 0.302357,-0.0670308 0.307048,-0.0404237 0.309403,-0.0135088 0.309403,0.0135088 0.307048,0.0404237 0.302357,0.0670308 0.295364,0.0931279 0.286123,0.118516 0.274705,0.143002 0.261196,0.1664 0.2457,0.188532 0.228333,0.209229 0.209229,0.228333 0.188532,0.2457 0.1664,0.261196 0.143002,0.274705 0.118516,0.286123 0.0931279,0.295364 0.0670308,0.302357 0.0404237,0.307048 0.0135088,0.309403 -0.2,0 -0.0127478,-0.291972 -0.0381463,-0.28975 -0.0632545,-0.285322 -0.0878812,-0.278724 -0.111839,-0.270004 -0.134946,-0.259229 -0.157026,-0.246481 -0.17791,-0.231857 -0.197441,-0.215469 -0.215469,-0.197441 -0.231857,-0.17791 -0.246481,-0.157026 -0.259229,-0.134946 -0.270004,-0.111839 -0.278724,-0.0878812 -0.285322,-0.0632545 -0.28975,-0.0381463 -0.291972,-0.0127478 -0.291972,0.0127478 -0.28975,0.0381463 -0.285322,0.0632545 -0.278724,0.0878812 -0.270004,0.111839 -0.259229,0.134946 -0.246481,0.157026 -0.231857,0.17791 -0.215469,0.197441 -0.197441,0.215469 -0.17791,0.231857 -0.157026,0.246481 -0.134946,0.259229 -0.111839,0.270004 -0.0878812,0.278724 -0.0632545,0.285322 -0.0381463,0.28975 -0.0127478,0.291972 -0.2,0 z "/>
<path fill="rgb(241,240,234)" stroke="rgb(241,240,234)" d="M 0.2,3.75 l 0.2,0 0.0127478,0.291972 0.0381463,0.28975 0.0632545,0.285322 0.0878812,0.278724 0.111839,0.270004 0.134946,0.259229 0.157026,0.246481 0.17791,0.231857 0.197441,0.215469 0.215469,0.197441 0.231857,0.17791 0.246481,0.157026 0.259229,0.134946 0.270004,0.111839 0.278724,0.0878812 0.285322,0.0632545 0.28975,0.0381463 0.291972,0.0127478 0.291972,-0.0127478 0.28975,-0.0381463 0.285322,-0.0632545 0.278724,-0.0878812 0.270004,-0.111839 0.259229,-0.134946 0.246481,-0.157026 0.231857,-0.17791 0.215469,-0.197441 0.197441,-0.215469 0.17791,-0.231857 0.157026,-0.246481 0.134946,-0.259229 0.111839,-0.270004 0.0878812,-0.278724 0.0632545,-0.285322 0.0381463,-0.28975 0.0127478,-0.291972 0.2,0 -0.0135088,0.309403 -0.0404237,0.307048 -0.0670308,0.302357 -0.0931279,0.295364 -0.118516,0.286123 -0.143002,0.274705 -0.1664,0.261196 -0.188532,0.2457 -0.209229,0.228333 -0.228333,0.209229 -0.2457,0.188532 -0.261196,0.1664 -0.274705,0.143002 -0.286123,0.118516 -0.295364,0.0931279 -0.302357,0.0670308 -0.307048,0.0404237 -0.309403,0.0135088 -0.309403,-0.0135088 -0.307048,-0.0404237 -0.302357,-0.0670308 -0.295364,-0.0931279 -0.286123,-0.118516 -0.274705,-0.143002 -0.261196,-0.1664 -0.2457,-0.188532 -0.228333,-0.209229 -0.209229,-0.228333 -0.188532,-0.2457 -0.1664,-0.261196 -0.143002,-0.274705 -0.118516,-0.286123 -0.0931279,-0.295364 -0.0670308,-0.302357 -0.0404237,-0.307048 -0.0135088,-0.309403 z "/>
<path fill="rgb(42,41,42)" stroke="rgb(42,41,42)" d="M 4.98062,5.04047 l -0.01325,0 -0.0936963,-0.00473214 -0.0899106,-0.0123036 -0.0861249,-0.0208214 -0.0813928,-0.0274464 -0.0766606,-0.0350178 -0.0728749,-0.0435357 -0.0681428,-0.0511071 -0.0643571,-0.0586785 -0.0596249,-0.0662499 -0.0548928,-0.0738213 -0.00283928,-0.00283928 -0.0444821,-0.0719285 -0.0406964,-0.0757142 -0.0350178,-0.0794999 -0.0312321,-0.0832856 -0.0255535,-0.0870713 -0.0217678,-0.090857 -0.0160893,-0.0946427 -0.0123036,-0.0984285 -0.00662499,-0.102214 -0.00283928,-0.106 0,-0.00662499 0.00283928,-0.106 0.00757142,-0.102214 0.0113571,-0.0984285 0.0170357,-0.0946427 0.0208214,-0.090857 0.0265,-0.0870713 0.0302857,-0.0832856 0.0350178,-0.0794999 0.03975,-0.0757142 0.0444821,-0.0719285 0.0123036,-0.0179821 0.0548928,-0.0728749 0.0605714,-0.0653035 0.0634106,-0.0577321 0.0690892,-0.0492142 0.0728749,-0.0425892 0.0776071,-0.0340714 0.0813928,-0.0265 0.0861249,-0.0189285 0.090857,-0.0123036 0.0955892,-0.00378571 0.0312321,0.000946427 0.0936963,0.00662499 0.0889642,0.01325 0.084232,0.0217678 0.0804463,0.0302857 0.0747678,0.0369107 0.0719285,0.0454285 0.0662499,0.0520535 0.0624642,0.0605714 0.0567856,0.0681428 0.0539464,0.0757142 -0.764713,0.0369107 -0.0615178,0.00283928 -0.0880178,0.0160893 -0.0794999,0.0302857 -0.0719285,0.0435357 -0.0643571,0.0577321 -0.0567856,0.0719285 -0.00378571,0.00473214 -0.0388035,0.0681428 -0.0340714,0.0747678 -0.0274464,0.0832856 -0.0208214,0.0899106 -0.0151428,0.0965356 -0.00946427,0.105053 -0.00283928,0.111678 0,0.0170357 0.00473214,0.104107 0.0113571,0.0984285 0.0179821,0.0927499 0.0246071,0.0870713 0.0312321,0.0813928 0.0378571,0.0766606 0.0151428,0.0255535 0.0548928,0.0766606 0.0615178,0.0624642 0.0690892,0.0492142 0.0747678,0.0350178 0.0823392,0.0208214 0.0889642,0.00662499 0.760928,0.0444821 -0.0104107,0.0160893 -0.0548928,0.0728749 -0.0596249,0.0653035 -0.0634106,0.0577321 -0.0681428,0.0501607 -0.0728749,0.0425892 -0.0776071,0.0340714 -0.0813928,0.0274464 -0.0870713,0.0189285 -0.0899106,0.0113571 -0.0955892,0.00378571 z "/>
<path fill="rgb(42,41,42)" stroke="rgb(42,41,42)" d="M 5.74155,4.64013 l -0.760928,-0.0444821 0.0577321,-0.00189285 0.0870713,-0.0160893 0.0804463,-0.0293393 0.0719285,-0.0444821 0.0643571,-0.0577321 0.0567856,-0.0719285 0.0369107,-0.0624642 0.0340714,-0.0738213 0.0283928,-0.0823392 0.0217678,-0.0889642 0.0151428,-0.097482 0.00946427,-0.103161 0.00283928,-0.107893 -0.00283928,-0.0993749 -0.00851785,-0.102214 -0.0160893,-0.0955892 -0.0217678,-0.0899106 -0.0274464,-0.084232 -0.0350178,-0.0766606 -0.0406964,-0.0719285 -0.0359642,-0.0511071 -0.0605714,-0.0653035 -0.0690892,-0.0511071 -0.0757142,-0.0359642 -0.0832856,-0.0217678 -0.0899106,-0.00757142 0.764713,-0.0369107 0.0425892,0.0728749 0.0388035,0.0757142 0.0340714,0.0804463 0.0302857,0.0832856 0.0246071,0.0880178 0.0208214,0.090857 0.0160893,0.0946427 0.0113571,0.0993749 0.00662499,0.102214 0.00283928,0.106 -0.00189285,0.090857 -0.00662499,0.102214 -0.0113571,0.0984285 -0.0160893,0.0946427 -0.0208214,0.090857 -0.0255535,0.0880178 -0.0302857,0.0832856 -0.0350178,0.0804463 -0.03975,0.0766606 -0.0444821,0.0728749 z "/>
<path fill="rgb(42,41,42)" stroke="rgb(42,41,42)" d="M 3.32721,5.00072 l -1.58527,0 -0.0719285,-1.17357 0.88207,-0.0217678 0.0567856,-0.000946427 0.102214,-0.0104107 0.0880178,-0.019875 0.0738213,-0.0302857 0.0596249,-0.0406964 0.0179821,-0.0151428 0.0586785,-0.0681428 0.0416428,-0.0766606 0.0255535,-0.0861249 0.00851785,-0.0965356 -0.000946427,-0.0179821 -0.0113571,-0.0955892 -0.0293393,-0.0832856 -0.0463749,-0.0728749 -0.0643571,-0.0615178 -0.000946427,-0.000946427 -0.0662499,-0.0416428 -0.0747678,-0.0321785 -0.0851785,-0.0236607 -0.0946427,-0.01325 -0.104107,-0.00473214 0.841374,-0.0662499 0.0482678,0.0747678 0.03975,0.0794999 0.0312321,0.0832856 0.0217678,0.0880178 0.01325,0.0918035 0.00473214,0.0965356 -0.00283928,0.0794999 -0.0113571,0.0946427 -0.019875,0.0889642 -0.0293393,0.0851785 -0.0369107,0.0813928 -0.0454285,0.0757142 -0.0548928,0.0719285 -0.0624642,0.0681428 -0.0151428,0.01325 -0.0671964,0.0567856 -0.0709821,0.0492142 -0.0747678,0.0416428 -0.0794999,0.0340714 -0.816767,0.00189285 0.0236607,0.356803 1.17357,0 0.0104107,0.441035 z "/>
<path fill="rgb(42,41,42)" stroke="rgb(42,41,42)" d="M 2.57575,4.26061 l -0.00757142,0 -0.0785535,-0.00283928 -0.0851785,-0.00662499 -0.0899106,-0.0113571 -0.0946427,-0.0170357 -0.100321,-0.019875 0.816767,-0.00189285 -0.084232,0.0255535 -0.0880178,0.0189285 -0.0918035,0.0113571 -0.0965356,0.00378571 z "/>
<path fill="rgb(42,41,42)" stroke="rgb(42,41,42)" d="M 1.67001,3.82715 l 0.424946,-0.116411 0.0179821,0.00757142 0.0880178,0.0312321 0.0870713,0.0246071 0.0880178,0.0170357 0.0880178,0.0104107 0.0880178,0.00378571 -0.88207,0.0217678 z "/>
<path fill="rgb(42,41,42)" stroke="rgb(42,41,42)" d="M 1.8186,3.11259 l -0.22525,-0.374785 0.0634106,-0.0388035 0.0823392,-0.0463749 0.0832856,-0.0406964 0.0832856,-0.0369107 0.084232,-0.0312321 0.084232,-0.0265 0.0851785,-0.0217678 0.0861249,-0.0170357 0.0870713,-0.0113571 0.0870713,-0.00757142 0.0870713,-0.00283928 0.0766606,0.00189285 0.0955892,0.00851785 0.090857,0.0151428 0.0870713,0.0217678 0.0823392,0.0283928 0.0785535,0.0350178 0.0738213,0.0416428 0.0690892,0.0482678 0.0662499,0.0548928 0.0634106,0.0643571 0.0577321,0.0700356 -0.841374,0.0662499 -0.00757142,0 -0.090857,0.00283928 -0.0889642,0.0104107 -0.0870713,0.0151428 -0.0861249,0.0227143 -0.084232,0.0274464 -0.0832856,0.0350178 -0.0804463,0.03975 -0.0794999,0.0463749 z "/>
<path fill="rgb(187,30,16)" stroke="rgb(187,30,16)" d="M 0.2,3.75 l -0.2,0 0.0142699,-0.326834 0.042701,-0.324347 0.0708072,-0.319391 0.0983745,-0.312004 0.125193,-0.302243 0.151059,-0.290182 0.175775,-0.275912 0.199154,-0.259542 0.221016,-0.241197 0.241197,-0.221016 0.259542,-0.199154 0.275912,-0.175775 0.290182,-0.151059 0.302243,-0.125193 0.312004,-0.0983745 0.319391,-0.0708072 0.324347,-0.042701 0.326834,-0.0142699 0.326834,0.0142699 0.324347,0.042701 0.319391,0.0708072 0.312004,0.0983745 0.302243,0.125193 0.290182,0.151059 0.275912,0.175775 0.259542,0.199154 0.241197,0.221016 0.221016,0.241197 0.199154,0.259542 0.175775,0.275912 0.151059,0.290182 0.125193,0.302243 0.0983745,0.312004 0.0708072,0.319391 0.042701,0.324347 0.0142699,0.326834 -0.2,0 -0.0135088,-0.309403 -0.0404237,-0.307048 -0.0670308,-0.302357 -0.0931279,-0.295364 -0.118516,-0.286123 -0.143002,-0.274705 -0.1664,-0.261196 -0.188532,-0.2457 -0.209229,-0.228333 -0.228333,-0.209229 -0.2457,-0.188532 -0.261196,-0.1664 -0.274705,-0.143002 -0.286123,-0.118516 -0.295364,-0.0931279 -0.302357,-0.0670308 -0.307048,-0.0404237 -0.309403,-0.0135088 -0.309403,0.0135088 -0.307048,0.0404237 -0.302357,0.0670308 -0.295364,0.0931279 -0.286123,0.118516 -0.274705,0.143002 -0.261196,0.1664 -0.2457,0.188532 -0.228333,0.209229 -0.209229,0.228333 -0.188532,0.2457 -0.1664,0.261196 -0.143002,0.274705 -0.118516,0.286123 -0.0931279,0.295364 -0.0670308,0.302357 -0.0404237,0.307048 -0.0135088,0.309403 z "/>
<path fill="rgb(187,30,16)" stroke="rgb(187,30,16)" d="M 0.2,3.75 l 0.0135088,0.309403 0.0404237,0.307048 0.0670308,0.302357 0.0931279,0.295364 0.118516,0.286123 0.143002,0.274705 0.1664,0.261196 0.188532,0.2457 0.209229,0.228333 0.228333,0.209229 0.2457,0.188532 0.261196,0.1664 0.274705,0.143002 0.286123,0.118516 0.295364,0.0931279 0.302357,0.0670308 0.307048,0.0404237 0.309403,0.0135088 0.309403,-0.0135088 0.307048,-0.0404237 0.302357,-0.0670308 0.295364,-0.0931279 0.286123,-0.118516 0.274705,-0.143002 0.261196,-0.1664 0.2457,-0.188532 0.228333,-0.209229 0.209229,-0.228333 0.188532,-0.2457 0.1664,-0.261196 0.143002,-0.274705 0.118516,-0.286123 0.0931279,-0.295364 0.0670308,-0.302357 0.0404237,-0.307048 0.0135088,-0.309403 0.2,0 -0.0142699,0.326834 -0.042701,0.324347 -0.0708072,0.319391 -0.0983745,0.312004 -0.125193,0.302243 -0.151059,0.290182 -0.175775,0.275912 -0.199154,0.259542 -0.221016,0.241197 -0.241197,0.221016 -0.259542,0.199154 -0.275912,0.175775 -0.290182,0.151059 -0.302243,0.125193 -0.312004,0.0983745 -0.319391,0.0708072 -0.324347,0.042701 -0.326834,0.0142699 -0.326834,-0.0142699 -0.324347,-0.042701 -0.319391,-0.0708072 -0.312004,-0.0983745 -0.302243,-0.125193 -0.290182,-0.151059 -0.275912,-0.175775 -0.259542,-0.199154 -0.241197,-0.221016 -0.221016,-0.241197 -0.199154,-0.259542 -0.175775,-0.275912 -0.151059,-0.290182 -0.125193,-0.302243 -0.0983745,-0.312004 -0.0708072,-0.319391 -0.042701,-0.324347 -0.0142699,-0.326834 0.2,0 z "/>
<path fill="rgb(187,30,16)" stroke="rgb(187,30,16)" d="M 6.4,3.75 l -0.0100841,-0.230963 -0.0301754,-0.229205 -0.0500371,-0.225703 -0.069518,-0.220483 -0.0884698,-0.213585 -0.106748,-0.205062 -0.124214,-0.194978 -0.140735,-0.18341 -0.156185,-0.170446 -0.170446,-0.156185 -0.18341,-0.140735 -0.194978,-0.124214 -0.205062,-0.106748 -0.213585,-0.0884698 -0.220483,-0.069518 -0.225703,-0.0500371 -0.229205,-0.0301754 -0.230963,-0.0100841 -0.230963,0.0100841 -0.229205,0.0301754 -0.225703,0.0500371 -0.220483,0.069518 -0.213585,0.0884698 -0.205062,0.106748 -0.194978,0.124214 -0.18341,0.140735 -0.170446,0.156185 -0.156185,0.170446 -0.140735,0.18341 -0.124214,0.194978 -0.106748,0.205062 -0.0884698,0.213585 -0.069518,0.220483 -0.0500371,0.225703 -0.0301754,0.229205 -0.0100841,0.230963 -0.7,0 0.0127478,-0.291972 0.0381463,-0.28975 0.0632545,-0.285322 0.0878812,-0.278724 0.111839,-0.270004 0.134946,-0.259229 0.157026,-0.246481 0.17791,-0.231857 0.197441,-0.215469 0.215469,-0.197441 0.231857,-0.17791 0.246481,-0.157026 0.259229,-0.134946 0.270004,-0.111839 0.278724,-0.0878812 0.285322,-0.0632545 0.28975,-0.0381463 0.291972,-0.0127478 0.291972,0.0127478 0.28975,0.0381463 0.285322,0.0632545 0.278724,0.0878812 0.270004,0.111839 0.259229,0.134946 0.246481,0.157026 0.231857,0.17791 0.215469,0.197441 0.197441,0.215469 0.17791,0.231857 0.157026,0.246481 0.134946,0.259229 0.111839,0.270004 0.0878812,0.278724 0.0632545,0.285322 0.0381463,0.28975 0.0127478,0.291972 -0.7,0 z "/>
<path fill="rgb(187,30,16)" stroke="rgb(187,30,16)" d="M 6.4,3.75 l 0.7,0 -0.0127478,0.291972 -0.0381463,0.28975 -0.0632545,0.285322 -0.0878812,0.278724 -0.111839,0.270004 -0.134946,0.259229 -0.157026,0.246481 -0.17791,0.231857 -0.197441,0.215469 -0.215469,0.197441 -0.231857,0.17791 -0.246481,0.157026 -0.259229,0.134946 -0.270004,0.111839 -0.278724,0.0878812 -0.285322,0.0632545 -0.28975,0.0381463 -0.291972,0.0127478 -0.291972,-0.0127478 -0.28975,-0.0381463 -0.285322,-0.0632545 -0.278724,-0.0878812 -0.270004,-0.111839 -0.259229,-0.134946 -0.246481,-0.157026 -0.231857,-0.17791 -0.215469,-0.197441 -0.197441,-0.215469 -0.17791,-0.231857 -0.157026,-0.246481 -0.134946,-0.259229 -0.111839,-0.270004 -0.0878812,-0.278724 -0.0632545,-0.285322 -0.0381463,-0.28975 -0.0127478,-0.291972 0.7,0 0.0100841,0.230963 0.0301754,0.229205 0.0500371,0.225703 0.069518,0.220483 0.0884698,0.213585 0.106748,0.205062 0.124214,0.194978 0.140735,0.18341 0.156185,0.170446 0.170446,0.156185 0.18341,0.140735 0.194978,0.124214 0.205062,0.106748 0.213585,0.0884698 0.220483,0.069518 0.225703,0.0500371 0.229205,0.0301754 0.230963,0.0100841 0.230963,-0.0100841 0.229205,-0.0301754 0.225703,-0.0500371 0.220483,-0.069518 0.213585,-0.0884698 0.205062,-0.106748 0.194978,-0.124214 0.18341,-0.140735 0.170446,-0.156185 0.156185,-0.170446 0.140735,-0.18341 0.124214,-0.194978 0.106748,-0.205062 0.0884698,-0.213585 0.069518,-0.220483 0.0500371,-0.225703 0.0301754,-0.229205 0.0100841,-0.230963 z "/>
</g></g></svg>
