<?xml version="1.0" encoding="UTF-8" standalone="no"?>
<!DOCTYPE svg PUBLIC "-//W3C//DTD SVG 1.1//EN" "http://www.w3.org/Graphics/SVG/1.1/DTD/svg11-flat.dtd"
[

]>
<svg xmlns="http://www.w3.org/2000/svg"  viewBox="-0.09375 -0.09375 7.6875 7.6875"><g fill="none" stroke="black" stroke-width="0.0125" transform="translate(0,7.5) scale(1, -1)">
<g id="Output" >
<path fill="rgb(241,240,234)" stroke="rgb(241,240,234)" d="M 6.4,3.75 l -5.3,0 0.0100841,-0.230963 0.0301754,-0.229205 0.0500371,-0.225703 0.069518,-0.220483 0.0884698,-0.213585 0.106748,-0.205062 0.124214,-0.194978 0.140735,-0.18341 0.156185,-0.170446 0.170446,-0.156185 0.18341,-0.140735 0.194978,-0.124214 0.205062,-0.106748 0.213585,-0.0884698 0.220483,-0.069518 0.225703,-0.0500371 0.229205,-0.0301754 0.230963,-0.0100841 0.230963,0.0100841 0.229205,0.0301754 0.225703,0.0500371 0.220483,0.069518 0.213585,0.0884698 0.205062,0.106748 0.194978,0.124214 0.18341,0.140735 0.170446,0.156185 0.156185,0.170446 0.140735,0.18341 0.124214,0.194978 0.106748,0.205062 0.0884698,0.213585 0.069518,0.220483 0.0500371,0.225703 0.0301754,0.229205 0.0100841,0.230963 z "/>
<path fill="rgb(241,240,234)" stroke="rgb(241,240,234)" d="M 6.4,3.75 l -0.0100841,0.230963 -0.0301754,0.229205 -0.0500371,0.225703 -0.069518,0.220483 -0.0884698,0.213585 -0.106748,0.205062 -0.124214,0.194978 -0.140735,0.18341 -0.156185,0.170446 -0.170446,0.156185 -0.18341,0.140735 -0.194978,0.124214 -0.205062,0.106748 -0.213585,0.0884698 -0.220483,0.069518 -0.225703,0.0500371 -0.229205,0.0301754 -0.230963,0.0100841 -0.230963,-0.0100841 -0.229205,-0.0301754 -0.225703,-0.0500371 -0.220483,-0.069518 -0.213585,-0.0884698 -0.205062,-0.106748 -0.194978,-0.124214 -0.18341,-0.140735 -0.170446,-0.156185 -0.156185,-0.170446 -0.140735,-0.18341 -0.124214,-0.194978 -0.106748,-0.205062 -0.0884698,-0.213585 -0.069518,-0.220483 -0.0500371,-0.225703 -0.0301754,-0.229205 -0.0100841,-0.230963 5.3,0 z "/>
<path fill="rgb(241,240,234)" stroke="rgb(241,240,234)" d="M 0.2,3.75 l 0.0135088,-0.309403 0.0404237,-0.307048 0.0670308,-0.302357 0.0931279,-0.295364 0.118516,-0.286123 0.143002,-0.274705 0.1664,-0.261196 0.188532,-0.2457 0.209229,-0.228333 0.228333,-0.209229 0.2457,-0.188532 0.261196,-0.1664 0.274705,-0.143002 0.286123,-0.118516 0.295364,-0.0931279 0.302357,-0.0670308 0.307048,-0.0404237 0.309403,-0.0135088 0.309403,0.0135088 0.307048,0.0404237 0.302357,0.0670308 0.295364,0.0931279 0.286123,0.118516 0.274705,0.143002 0.261196,0.1664 0.2457,0.188532 0.228333,0.209229 0.209229,0.228333 0.188532,0.2457 0.1664,0.261196 0.143002,0.274705 0.118516,0.286123 0.0931279,0.295364 0.0670308,0.302357 0.0404237,0.307048 0.0135088,0.309403 -0.2,0 -0.0127478,-0.291972 -0.0381463,-0.28975 -0.0632545,-0.285322 -0.0878812,-0.278724 -0.111839,-0.270004 -0.134946,-0.259229 -0.157026,-0.246481 -0.17791,-0.231857 -0.197441,-0.215469 -0.215469,-0.197441 -0.231857,-0.17791 -0.246481,-0.157026 -0.259229,-0.134946 -0.270004,-0.111839 -0.278724,-0.0878812 -0.285322,-0.0632545 -0.28975,-0.0381463 -0.291972,-0.0127478 -0.291972,0.0127478 -0.28975,0.0381463 -0.285322,0.0632545 -0.278724,0.0878812 -0.270004,0.111839 -0.259229,0.134946 -0.246481,0.157026 -0.231857,0.17791 -0.215469,0.197441 -0.197441,0.215469 -0.17791,0.231857 -0.157026,0.246481 -0.134946,0.259229 -0.111839,0.270004 -0.0878812,0.278724 -0.0632545,0.285322 -0.0381463,0.28975 -0.0127478,0.291972 -0.2,0 z "/>
<path fill="rgb(241,240,234)" stroke="rgb(241,240,234)" d="M 0.2,3.75 l 0.2,0 0.0127478,0.291972 0.0381463,0.28975 0.0632545,0.285322 0.0878812,0.278724 0.111839,0.270004 0.134946,0.259229 0.157026,0.246481 0.17791,0.231857 0.197441,0.215469 0.215469,0.197441 0.231857,0.17791 0.246481,0.157026 0.259229,0.134946 0.270004,0.111839 0.278724,0.0878812 0.285322,0.0632545 0.28975,0.0381463 0.291972,0.0127478 0.291972,-0.0127478 0.28975,-0.0381463 0.285322,-0.0632545 0.278724,-0.0878812 0.270004,-0.111839 0.259229,-0.134946 0.246481,-0.157026 0.231857,-0.17791 0.215469,-0.197441 0.197441,-0.215469 0.17791,-0.231857 0.157026,-0.246481 0.134946,-0.259229 0.111839,-0.270004 0.0878812,-0.278724 0.0632545,-0.285322 0.0381463,-0.28975 0.0127478,-0.291972 0.2,0 -0.0135088,0.309403 -0.0404237,0.307048 -0.0670308,0.302357 -0.0931279,0.295364 -0.118516,0.286123 -0.143002,0.274705 -0.1664,0.261196 -0.188532,0.2457 -0.209229,0.228333 -0.228333,0.209229 -0.2457,0.188532 -0.261196,0.1664 -0.274705,0.143002 -0.286123,0.118516 -0.295364,0.0931279 -0.302357,0.0670308 -0.307048,0.0404237 -0.309403,0.0135088 -0.309403,-0.0135088 -0.307048,-0.0404237 -0.302357,-0.0670308 -0.295364,-0.0931279 -0.286123,-0.118516 -0.274705,-0.143002 -0.261196,-0.1664 -0.2457,-0.188532 -0.228333,-0.209229 -0.209229,-0.228333 -0.188532,-0.2457 -0.1664,-0.261196 -0.143002,-0.274705 -0.118516,-0.286123 -0.0931279,-0.295364 -0.0670308,-0.302357 -0.0404237,-0.307048 -0.0135088,-0.309403 z "/>
<path fill="rgb(42,41,42)" stroke="rgb(42,41,42)" d="M 5.28291,4.86033 l -0.00662325,0 -0.0851561,-0.0047309 -0.0813714,-0.0132465 -0.0775867,-0.0208159 -0.0719096,-0.0293316 -0.0681249,-0.0378472 -0.0643402,-0.0463628 -0.0596093,-0.0539322 -0.0548784,-0.0615017 -0.0501475,-0.0709634 -0.0406857,-0.0690711 -0.0359548,-0.0728558 -0.0312239,-0.0775867 -0.026493,-0.0804252 -0.0217621,-0.0861023 -0.0170312,-0.0889408 -0.0123003,-0.0936717 -0.00662325,-0.0974565 -0.00283854,-0.101241 0,-0.00189236 0.00283854,-0.101241 0.00662325,-0.0974565 0.0123003,-0.0936717 0.016085,-0.089887 0.0217621,-0.0851561 0.0255468,-0.0813714 0.0312239,-0.0775867 0.0350086,-0.073802 0.0406857,-0.0690711 0.00756943,-0.0123003 0.0501475,-0.0700173 0.0548784,-0.0615017 0.0596093,-0.052986 0.0643402,-0.0454166 0.0681249,-0.036901 0.0728558,-0.0293316 0.0766405,-0.0198698 0.0823176,-0.0123003 0.0861023,-0.0047309 0.0217621,0.000946179 0.0851561,0.00567708 0.0804252,0.0151389 0.0756943,0.0227083 0.0719096,0.0302777 0.0662325,0.0397395 0.0624478,0.047309 0.0577169,0.0558246 0.052986,0.0643402 0.0482551,0.0728558 -0.622586,0.0312239 -0.00567708,0 -0.0832638,0.00851561 -0.0756943,0.0227083 -0.0671787,0.0387933 -0.0596093,0.052986 -0.0520399,0.0681249 -0.0132465,0.0208159 -0.0340625,0.0681249 -0.0274392,0.0756943 -0.0217621,0.0832638 -0.0151389,0.0917794 -0.00946179,0.0984026 -0.00283854,0.106918 0.000946179,0.052986 0.00662325,0.0974565 0.0141927,0.0908332 0.0198698,0.0861023 0.0283854,0.0785329 0.0340625,0.073802 0.0302777,0.0510937 0.052986,0.0671787 0.0596093,0.0520399 0.0662325,0.0378472 0.073802,0.0227083 0.0804252,0.00756943 0.620694,0.036901 -0.00756943,0.0113542 -0.0492013,0.0700173 -0.0548784,0.0615017 -0.0586631,0.0539322 -0.063394,0.0454166 -0.0681249,0.036901 -0.0728558,0.0293316 -0.0775867,0.0198698 -0.0813714,0.0123003 -0.0870485,0.0047309 z "/>
<path fill="rgb(42,41,42)" stroke="rgb(42,41,42)" d="M 5.9036,4.51498 l -0.620694,-0.036901 0.00283854,0 0.0832638,-0.00851561 0.0756943,-0.0227083 0.0671787,-0.0387933 0.0605555,-0.052986 0.0520399,-0.0681249 0.00662325,-0.0123003 0.0350086,-0.0671787 0.0283854,-0.0747482 0.0227083,-0.0832638 0.0151389,-0.0908332 0.00946179,-0.0984026 0.00378472,-0.105026 0,-0.0189236 -0.0047309,-0.102187 -0.0113542,-0.0946179 -0.0170312,-0.0889408 -0.0246007,-0.0823176 -0.0302777,-0.0756943 -0.0359548,-0.0681249 -0.00378472,-0.00567708 -0.0520399,-0.0700173 -0.0596093,-0.0548784 -0.0671787,-0.0387933 -0.073802,-0.0236545 -0.0823176,-0.00756943 0.622586,-0.0312239 0.0378472,0.0662325 0.0350086,0.073802 0.0302777,0.0775867 0.0255468,0.0813714 0.0208159,0.0861023 0.016085,0.0889408 0.0113542,0.0936717 0.00756943,0.0984026 0.00189236,0.101241 -0.00189236,0.08421 -0.00567708,0.0984026 -0.0113542,0.0936717 -0.016085,0.0889408 -0.0217621,0.0861023 -0.0255468,0.0823176 -0.0302777,0.0775867 -0.0359548,0.073802 -0.0397395,0.0700173 z "/>
<path fill="rgb(42,41,42)" stroke="rgb(42,41,42)" d="M 3.33851,4.86033 l -0.08421,-0.00283854 -0.0823176,-0.00851561 -0.0804252,-0.0132465 -0.0785329,-0.0189236 -0.0766405,-0.0246007 -0.073802,-0.0302777 -0.0719096,-0.0350086 -0.0700173,-0.0406857 -0.0681249,-0.0463628 -0.0652864,-0.0520399 -0.063394,-0.0567708 0.236545,-0.294262 0.00283854,0.00283854 0.0596093,0.0539322 0.063394,0.0463628 0.0671787,0.0387933 0.0728558,0.0321701 0.0756943,0.0255468 0.0813714,0.0179774 0.0851561,0.010408 0.089887,0.00378472 0.671787,0.0179774 -0.0387933,0.0728558 -0.0501475,0.0671787 -0.0615017,0.0615017 -0.00567708,0.00378472 -0.0596093,0.0444704 -0.0652864,0.0378472 -0.0709634,0.0312239 -0.0766405,0.0236545 -0.0823176,0.0170312 -0.0879947,0.010408 -0.0927256,0.00378472 z "/>
<path fill="rgb(42,41,42)" stroke="rgb(42,41,42)" d="M 4.03016,4.48659 l -0.671787,-0.0179774 0.0690711,-0.00283854 0.0955641,-0.0123003 0.0775867,-0.0236545 0.0605555,-0.0350086 0.0425781,-0.0454166 0.026493,-0.0577169 0.00851561,-0.0681249 -0.000946179,-0.0217621 -0.0170312,-0.063394 -0.0378472,-0.0577169 -0.0577169,-0.0501475 -0.0785329,-0.0425781 -0.0984026,-0.036901 -0.0141927,-0.00378472 -0.0851561,-0.0293316 -0.0804252,-0.0331163 -0.0766405,-0.036901 -0.0728558,-0.0416319 -0.0681249,-0.0454166 -0.0652864,-0.0492013 -0.0605555,-0.052986 -0.0577169,-0.0577169 -0.052986,-0.0615017 -0.0492013,-0.0652864 -0.0454166,-0.0700173 -0.0406857,-0.073802 -0.0227083,-0.0444704 -0.0350086,-0.0804252 -0.0302777,-0.0823176 -0.0246007,-0.0851561 -0.0189236,-0.0870485 -0.0132465,-0.089887 -0.00756943,-0.0908332 -0.00283854,-0.0946179 1.55836,0 0,0.386041 -1.13542,0 0.010408,0.0227083 0.0463628,0.0861023 0.047309,0.0756943 0.0510937,0.0662325 0.052986,0.0558246 0.0340625,0.0321701 0.0671787,0.0548784 0.0681249,0.0416319 0.0246007,0.0123003 0.0615017,0.0255468 0.0851561,0.0312239 0.107864,0.0378472 0.0766405,0.0274392 0.0794791,0.036901 0.0681249,0.0406857 0.0577169,0.0454166 0.00378472,0.00283854 0.0586631,0.063394 0.0482551,0.0690711 0.0378472,0.0747482 0.026493,0.0813714 0.016085,0.0861023 0.00567708,0.0917794 0,0.00567708 -0.00567708,0.0917794 -0.0179774,0.0861023 -0.0283854,0.0794791 z "/>
<path fill="rgb(42,41,42)" stroke="rgb(42,41,42)" d="M 2.13781,4.82533 l -0.276284,0 -0.0350086,-0.0539322 -0.0539322,-0.0624478 -0.0624478,-0.0510937 -0.0719096,-0.0387933 -0.0813714,-0.0283854 0.00567708,-0.307508 0.24506,0 -0.00851561,-1.60756 0.338732,0 0,2.14972 z "/>
<path fill="rgb(187,30,16)" stroke="rgb(187,30,16)" d="M 0.2,3.75 l -0.2,0 0.0142699,-0.326834 0.042701,-0.324347 0.0708072,-0.319391 0.0983745,-0.312004 0.125193,-0.302243 0.151059,-0.290182 0.175775,-0.275912 0.199154,-0.259542 0.221016,-0.241197 0.241197,-0.221016 0.259542,-0.199154 0.275912,-0.175775 0.290182,-0.151059 0.302243,-0.125193 0.312004,-0.0983745 0.319391,-0.0708072 0.324347,-0.042701 0.326834,-0.0142699 0.326834,0.0142699 0.324347,0.042701 0.319391,0.0708072 0.312004,0.0983745 0.302243,0.125193 0.290182,0.151059 0.275912,0.175775 0.259542,0.199154 0.241197,0.221016 0.221016,0.241197 0.199154,0.259542 0.175775,0.275912 0.151059,0.290182 0.125193,0.302243 0.0983745,0.312004 0.0708072,0.319391 0.042701,0.324347 0.0142699,0.326834 -0.2,0 -0.0135088,-0.309403 -0.0404237,-0.307048 -0.0670308,-0.302357 -0.0931279,-0.295364 -0.118516,-0.286123 -0.143002,-0.274705 -0.1664,-0.261196 -0.188532,-0.2457 -0.209229,-0.228333 -0.228333,-0.209229 -0.2457,-0.188532 -0.261196,-0.1664 -0.274705,-0.143002 -0.286123,-0.118516 -0.295364,-0.0931279 -0.302357,-0.0670308 -0.307048,-0.0404237 -0.309403,-0.0135088 -0.309403,0.0135088 -0.307048,0.0404237 -0.302357,0.0670308 -0.295364,0.0931279 -0.286123,0.118516 -0.274705,0.143002 -0.261196,0.1664 -0.2457,0.188532 -0.228333,0.209229 -0.209229,0.228333 -0.188532,0.2457 -0.1664,0.261196 -0.143002,0.274705 -0.118516,0.286123 -0.0931279,0.295364 -0.0670308,0.302357 -0.0404237,0.307048 -0.0135088,0.309403 z "/>
<path fill="rgb(187,30,16)" stroke="rgb(187,30,16)" d="M 0.2,3.75 l 0.0135088,0.309403 0.0404237,0.307048 0.0670308,0.302357 0.0931279,0.295364 0.118516,0.286123 0.143002,0.274705 0.1664,0.261196 0.188532,0.2457 0.209229,0.228333 0.228333,0.209229 0.2457,0.188532 0.261196,0.1664 0.274705,0.143002 0.286123,0.118516 0.295364,0.0931279 0.302357,0.0670308 0.307048,0.0404237 0.309403,0.0135088 0.309403,-0.0135088 0.307048,-0.0404237 0.302357,-0.0670308 0.295364,-0.0931279 0.286123,-0.118516 0.274705,-0.143002 0.261196,-0.1664 0.2457,-0.188532 0.228333,-0.209229 0.209229,-0.228333 0.188532,-0.2457 0.1664,-0.261196 0.143002,-0.274705 0.118516,-0.286123 0.0931279,-0.295364 0.0670308,-0.302357 0.0404237,-0.307048 0.0135088,-0.309403 0.2,0 -0.0142699,0.326834 -0.042701,0.324347 -0.0708072,0.319391 -0.0983745,0.312004 -0.125193,0.302243 -0.151059,0.290182 -0.175775,0.275912 -0.199154,0.259542 -0.221016,0.241197 -0.241197,0.221016 -0.259542,0.199154 -0.275912,0.175775 -0.290182,0.151059 -0.302243,0.125193 -0.312004,0.0983745 -0.319391,0.0708072 -0.324347,0.042701 -0.326834,0.0142699 -0.326834,-0.0142699 -0.324347,-0.042701 -0.319391,-0.0708072 -0.312004,-0.0983745 -0.302243,-0.125193 -0.290182,-0.151059 -0.275912,-0.175775 -0.259542,-0.199154 -0.241197,-0.221016 -0.221016,-0.241197 -0.199154,-0.259542 -0.175775,-0.275912 -0.151059,-0.290182 -0.125193,-0.302243 -0.0983745,-0.312004 -0.0708072,-0.319391 -0.042701,-0.324347 -0.0142699,-0.326834 0.2,0 z "/>
<path fill="rgb(187,30,16)" stroke="rgb(187,30,16)" d="M 6.4,3.75 l -0.0100841,-0.230963 -0.0301754,-0.229205 -0.0500371,-0.225703 -0.069518,-0.220483 -0.0884698,-0.213585 -0.106748,-0.205062 -0.124214,-0.194978 -0.140735,-0.18341 -0.156185,-0.170446 -0.170446,-0.156185 -0.18341,-0.140735 -0.194978,-0.124214 -0.205062,-0.106748 -0.213585,-0.0884698 -0.220483,-0.069518 -0.225703,-0.0500371 -0.229205,-0.0301754 -0.230963,-0.0100841 -0.230963,0.0100841 -0.229205,0.0301754 -0.225703,0.0500371 -0.220483,0.069518 -0.213585,0.0884698 -0.205062,0.106748 -0.194978,0.124214 -0.18341,0.140735 -0.170446,0.156185 -0.156185,0.170446 -0.140735,0.18341 -0.124214,0.194978 -0.106748,0.205062 -0.0884698,0.213585 -0.069518,0.220483 -0.0500371,0.225703 -0.0301754,0.229205 -0.0100841,0.230963 -0.7,0 0.0127478,-0.291972 0.0381463,-0.28975 0.0632545,-0.285322 0.0878812,-0.278724 0.111839,-0.270004 0.134946,-0.259229 0.157026,-0.246481 0.17791,-0.231857 0.197441,-0.215469 0.215469,-0.197441 0.231857,-0.17791 0.246481,-0.157026 0.259229,-0.134946 0.270004,-0.111839 0.278724,-0.0878812 0.285322,-0.0632545 0.28975,-0.0381463 0.291972,-0.0127478 0.291972,0.0127478 0.28975,0.0381463 0.285322,0.0632545 0.278724,0.0878812 0.270004,0.111839 0.259229,0.134946 0.246481,0.157026 0.231857,0.17791 0.215469,0.197441 0.197441,0.215469 0.17791,0.231857 0.157026,0.246481 0.134946,0.259229 0.111839,0.270004 0.0878812,0.278724 0.0632545,0.285322 0.0381463,0.28975 0.0127478,0.291972 -0.7,0 z "/>
<path fill="rgb(187,30,16)" stroke="rgb(187,30,16)" d="M 6.4,3.75 l 0.7,0 -0.0127478,0.291972 -0.0381463,0.28975 -0.0632545,0.285322 -0.0878812,0.278724 -0.111839,0.270004 -0.134946,0.259229 -0.157026,0.246481 -0.17791,0.231857 -0.197441,0.215469 -0.215469,0.197441 -0.231857,0.17791 -0.246481,0.157026 -0.259229,0.134946 -0.270004,0.111839 -0.278724,0.0878812 -0.285322,0.0632545 -0.28975,0.0381463 -0.291972,0.0127478 -0.291972,-0.0127478 -0.28975,-0.0381463 -0.285322,-0.0632545 -0.278724,-0.0878812 -0.270004,-0.111839 -0.259229,-0.134946 -0.246481,-0.157026 -0.231857,-0.17791 -0.215469,-0.197441 -0.197441,-0.215469 -0.17791,-0.231857 -0.157026,-0.246481 -0.134946,-0.259229 -0.111839,-0.270004 -0.0878812,-0.278724 -0.0632545,-0.285322 -0.0381463,-0.28975 -0.0127478,-0.291972 0.7,0 0.0100841,0.230963 0.0301754,0.229205 0.0500371,0.225703 0.069518,0.220483 0.0884698,0.213585 0.106748,0.205062 0.124214,0.194978 0.140735,0.18341 0.156185,0.170446 0.170446,0.156185 0.18341,0.140735 0.194978,0.124214 0.205062,0.106748 0.213585,0.0884698 0.220483,0.069518 0.225703,0.0500371 0.229205,0.0301754 0.230963,0.0100841 0.230963,-0.0100841 0.229205,-0.0301754 0.225703,-0.0500371 0.220483,-0.069518 0.213585,-0.0884698 0.205062,-0.106748 0.194978,-0.124214 0.18341,-0.140735 0.170446,-0.156185 0.156185,-0.170446 0.140735,-0.18341 0.124214,-0.194978 0.106748,-0.205062 0.0884698,-0.213585 0.069518,-0.220483 0.0500371,-0.225703 0.0301754,-0.229205 0.0100841,-0.230963 z "/>
</g></g></svg>
