<?xml version="1.0" encoding="UTF-8" standalone="no"?>
<!DOCTYPE svg PUBLIC "-//W3C//DTD SVG 1.1//EN" "http://www.w3.org/Graphics/SVG/1.1/DTD/svg11-flat.dtd"
[

]>
<svg xmlns="http://www.w3.org/2000/svg"  viewBox="-0.0891147 -0.0891147 7.30741 7.30741"><g fill="none" stroke="black" stroke-width="0.0125" transform="translate(0,7.12918) scale(1, -1)">
<g id="Output" >
<path fill="rgb(241,240,234)" stroke="rgb(241,240,234)" d="M 3.08557,2.28965 l 0.00563218,0.000555036 0.00565901,7.15282e-05 0.00564441,-0.000412503 0.00558848,-0.000893514 0.00549164,-0.00136798 0.00535459,-0.00183244 0.00517834,-0.00228348 0.00496418,-0.0027178 0.00471367,-0.00313222 0.00442865,-0.00352371 0.00411121,-0.0038894 0.00376367,-0.00422661 0.00338857,-0.00453289 0.00298867,-0.00480597 0.00256688,-0.00504387 0.0021263,-0.00524484 0.00167015,-0.00540741 0.00120178,-0.00553039 0.000724605,-0.00561288 0.000242126,-0.00565428 -8.17511e-08,-0.135682 -0.000287068,-0.00657494 -0.00085902,-0.0065249 -0.00142443,-0.00642521 -0.00197901,-0.00627661 -0.00251852,-0.00608024 -0.00303886,-0.0058376 -0.00353608,-0.00555053 -0.00400639,-0.00522122 -0.0044462,-0.00485218 -0.00485218,-0.0044462 -0.00522122,-0.00400639 -0.00555053,-0.00353608 -0.0058376,-0.00303886 -0.00608024,-0.00251852 -0.00627661,-0.00197901 -0.00642521,-0.00142443 -0.0065249,-0.00085902 -0.00657494,-0.000287068 -0.319345,0 -0.00566455,0.0006674 -0.00558569,0.00115438 -0.00546505,0.00163272 -0.00530353,0.00209885 -0.00510233,0.00254927 -0.00486296,0.00298063 -0.00458722,0.00338969 -0.00427716,0.00377339 -0.0039351,0.00412886 -0.00356361,0.00445345 -0.00316546,0.00474473 -0.00274363,0.00500051 -0.00230127,0.00521888 -0.0018417,0.00539821 -0.00136835,0.00553716 -0.00088477,0.00563469 -0.000394568,0.00569007 9.8586e-05,0.00570288 0.000591002,0.00567303 0.0201157,0.135796 1.61565e-05,0.000111936 1.63226e-05,0.000111912 1.64886e-05,0.000111888 6.14372e-08,4.14756e-07 0.0012907,0.00665542 0.00187703,0.00651439 0.00244851,0.00632182 0.00300062,0.00607921 0.00352898,0.00578851 0.00402942,0.005452 0.00449798,0.00507235 0.00493094,0.00465257 0.00532489,0.00419597 0.0056767,0.00370616 0.00598359,0.00318703 0.00624314,0.00264269 0.00645328,0.00207743 0.00661236,0.00149573 0.00671912,0.0009022 0.00677271,0.000301529 0.284147,0 z "/>
<path fill="rgb(241,240,234)" stroke="rgb(241,240,234)" d="M 2.72603,2.22461 l 2.04788e-08,1.38252e-07 2.04791e-08,1.38252e-07 2.04793e-08,1.38252e-07 -6.14372e-08,-4.14756e-07 z "/>
<path fill="rgb(241,240,234)" stroke="rgb(241,240,234)" d="M 2.59443,3.1 l 1,0 0,1 -0.5,0 -0.5,-1 z "/>
<path fill="rgb(241,240,234)" stroke="rgb(241,240,234)" d="M 3.09443,4.1 l 0.5,0 0,0.88065 -0.0298374,0.0596748 -0.470163,-0.940325 z "/>
<path fill="rgb(241,240,234)" stroke="rgb(241,240,234)" d="M 4.59443,1.1 l 0,0.236621 -1,4.44089e-16 0,-0.236621 1,0 z M 4.25735,1.53276 l 0.105613,0.0326804 0.0276668,-0.0251497 0.0351974,-0.0100476 -0.0226327,-0.0427484 0.00503404,-0.0452655 -0.0477825,0.0226327 -0.0829799,4.44089e-16 -0.0251497,-0.0125646 0.00503404,0.0804628 z M 3.59443,1.3668 l 1,0 0,0.422279 -1,-0.319284 0,-0.102995 z M 3.98326,1.80434 l 0.0175987,-0.0125851 0.0201157,0.0175987 0.0176191,-0.0226123 -0.0528165,-0.0528165 -0.0276668,-2.22045e-16 0.0251497,0.0704152 z M 4.29021,2.1 l -0.135422,0 -0.56036,-0.4334 0,-0.166744 1,0.319295 0,0.280849 -0.267648,0 0.0864863,-0.0165606 8.88178e-16,-0.047762 -0.118198,0 -0.0402314,0.0201157 0.0353727,0.0442069 z M 3.59443,1.70284 l 0.513499,0.397155 -0.409665,0 -0.103834,-0.144216 0,-0.25294 z M 3.59443,2.0083 l 0.0660225,0.0916972 -0.0660225,0 0,-0.0916972 z "/>
<path fill="rgb(241,240,234)" stroke="rgb(241,240,234)" d="M 4.53475,3.1 l -0.5,1 -0.440325,0 0,-1 0.940325,0 z "/>
<path fill="rgb(241,240,234)" stroke="rgb(241,240,234)" d="M 3.59443,2.0083 l 0,0.0916972 -0.335349,0 0,-0.255432 -0.0854969,-0.138313 -0.0553233,0 1.60172e-09,-0.336943 0,-1.55401e-10 -0.000124398,-0.00284917 -0.000372246,-0.00282749 -0.000617261,-0.00278429 -0.000857579,-0.00271989 -0.00109137,-0.0026348 -0.00131685,-0.00252965 -0.00153232,-0.00240526 -0.00173612,-0.00226255 -0.00192671,-0.00210263 -0.00210263,-0.00192671 -0.00226255,-0.00173612 -0.00240526,-0.00153232 -0.00252965,-0.00131685 -0.0026348,-0.00109137 -0.00271989,-0.000857579 -0.00278429,-0.000617261 -0.00282749,-0.000372246 -0.00284917,-0.000124398 -2.39262e-10,0 -0.218776,-1.60122e-09 -2.39186e-10,0 -0.00284828,0.000124359 -0.0028266,0.000372129 -0.00278341,0.000617068 -0.00271904,0.00085731 -0.00263397,0.00109103 -0.00252886,0.00131644 -0.0024045,0.00153184 -0.00226185,0.00173558 -0.00210197,0.0019261 -0.0019261,0.00210197 -0.00173558,0.00226185 -0.00153184,0.0024045 -0.00131644,0.00252886 -0.00109103,0.00263397 -0.00085731,0.00271904 -0.000617068,0.00278341 -0.000372129,0.0028266 -0.000124359,0.00284828 0,0.336953 -0.239684,0 0,-0.606255 0.970163,0 0.0298374,0 0,0.236621 -0.25992,0 0,0.0301838 0.25992,0 0,0.102995 -0.267461,-0.0853959 -0.00754083,0.0276463 0.275001,0.0878066 0,0.166744 -0.290093,-0.224367 -0.0175987,0.0226327 0.307692,0.237978 0,0.25294 -0.335349,-0.465768 -0.0251497,0.0175987 0.360498,0.500688 z "/>
<path fill="rgb(241,240,234)" stroke="rgb(241,240,234)" d="M 3.59443,4.1 l 0.440325,0 -0.440325,0.88065 0,-0.88065 z "/>
<path fill="rgb(241,240,234)" stroke="rgb(241,240,234)" d="M 4.64461,2.00046 l 0.0653812,0.0528165 0.0251293,-0.0226327 0.0678982,4.44089e-16 0,-0.0779458 -0.0980615,-0.0226327 -0.0603471,0.0703947 z M 4.94383,1.51517 l 0.123211,0.0377144 0.0502995,-0.00755106 0.0402314,-0.0351974 0.0125851,-0.0628641 -0.0729322,0.0150817 -0.120694,-0.0100476 -0.0327008,0.0628641 z M 4.59443,1.1 l 0.940325,4.44089e-16 -0.5,1 -0.440325,0 0,-0.280849 0.276486,0.0882808 0.0075306,-0.0276668 -0.284017,-0.0906821 0,-0.422279 0.367017,0 8.88178e-16,-0.0301838 -0.367017,0 0,-0.236621 z "/>
<path fill="rgb(241,240,234)" stroke="rgb(241,240,234)" d="M 5.03475,2.1 l -0.440325,0.88065 0,-0.88065 0.440325,0 z "/>
<path fill="rgb(241,240,234)" stroke="rgb(241,240,234)" d="M 4.47613,2.79005 l -0.0276668,-0.0352178 0,-0.0326804 -0.0578301,-0.0301838 -0.0352178,0.0427484 0.0352178,0.0502995 0.047762,0.0175987 0.0377349,-0.0125646 z M 3.83742,2.84788 l 0.0351974,0.0276668 0.0477825,0 0.0377144,-0.0251497 -0.0150817,-0.105613 -0.0251497,-0.0125851 -0.0075306,-0.0402314 -0.10813,-0.0201157 0.0351974,0.176028 z M 4.34788,2.46314 l 0.0125646,-0.050279 -0.0527961,-0.0352178 -0.0502995,0.0151021 0.0251497,0.0527961 0.0653812,0.0175987 z M 3.9707,2.27203 l 0.0452655,-0.0075306 -0.0704152,-0.105613 -0.0980615,-0.0150817 0.0276463,0.0578301 0.0653812,0.0276463 0.0301838,0.0427484 z M 3.59443,2.1 l 0.0660225,0 0.523992,0.727762 0.0251293,-0.0175987 -0.51131,-0.710163 0.409665,0 0.466266,0.360624 0.0175987,-0.0226327 -0.437003,-0.337992 0.135422,0 0.00485872,0.00607216 0.0317114,-0.00607216 0.267648,0 0,0.88065 -0.0596748,0.11935 -0.940325,0 0,-1 z "/>
<path fill="rgb(241,240,234)" stroke="rgb(241,240,234)" d="M 2.31803,2.1 l -0.223607,0 -0.5,-1 1,-4.44089e-16 0,0.606255 -0.473266,-2.22045e-16 0.196873,0.393745 z "/>
<path fill="rgb(241,240,234)" stroke="rgb(241,240,234)" d="M 2.09443,2.1 l 0.223607,0 0.202105,0.40421 0.0742881,-0.00395596 0,0.599746 -0.5,-1 z "/>
<path fill="rgb(241,240,234)" stroke="rgb(241,240,234)" d="M 3.25908,2.1 l 0.335349,0 0,1 -1,0 0,-0.599746 0.10179,-0.00542048 0.175918,-0.0120125 0.175718,-0.014646 -0.168477,0.424967 -0.0499221,0.0104293 -0.0500636,0.00972761 -0.0501952,0.00902403 0.0406448,0.0812896 0.0568583,-0.00866698 0.0566382,-0.0100044 0.0563868,-0.0113363 0.216249,-0.512981 0.103106,-0.125728 0,-0.234896 z "/>
<path fill="rgb(241,240,234)" stroke="rgb(241,240,234)" d="M 3.56459,0.2 l 3.26459,0 0.00883388,0.000390951 0.00876481,0.0011698 0.0086272,0.0019395 0.00842214,0.00269403 0.00815123,0.0034275 0.00781658,0.00413417 0.00742081,0.00480851 0.00696702,0.00544526 0.00645876,0.00603943 0.00589999,0.00658638 0.00529509,0.00708183 0.00464879,0.0075219 0.00396614,0.00790316 0.00325248,0.00822263 0.00251339,0.0084778 0.00175464,0.00866669 0.000982177,0.00878781 0.000202033,0.00884022 -0.000579691,0.0088235 -0.00135688,0.0087378 -0.00212346,0.00858377 -0.00287344,0.00836263 -0.00360095,0.0080761 -3.26459,6.52918 -0.00412828,0.00744612 -0.0047467,0.00706797 -0.00533072,0.00663859 -0.00587609,0.00616109 -0.00637887,0.00563892 -0.00683541,0.00507588 -0.0072424,0.00447605 -0.0075969,0.00384377 -0.00789632,0.00318363 -0.00813851,0.00250041 -0.00832171,0.00179907 -0.00844458,0.00108468 -0.00850624,0.000362437 0,-0.323607 3.10279,-6.20557 -3.10279,2.66454e-15 0,-0.2 z "/>
<path fill="rgb(241,240,234)" stroke="rgb(241,240,234)" d="M 3.56459,0.2 l 0,0.2 -3.10279,0 3.10279,6.20557 0,0.323607 -0.00850624,-0.000362437 -0.00844458,-0.00108468 -0.00832171,-0.00179907 -0.00813851,-0.00250041 -0.00789632,-0.00318363 -0.0075969,-0.00384377 -0.0072424,-0.00447605 -0.00683541,-0.00507588 -0.00637887,-0.00563892 -0.00587609,-0.00616109 -0.00533072,-0.00663859 -0.0047467,-0.00706797 -0.00412828,-0.00744612 -3.26459,-6.52918 -0.00360095,-0.0080761 -0.00287344,-0.00836263 -0.00212346,-0.00858377 -0.00135688,-0.0087378 -0.000579691,-0.0088235 0.000202033,-0.00884022 0.000982177,-0.00878781 0.00175464,-0.00866669 0.00251339,-0.0084778 0.00325248,-0.00822263 0.00396614,-0.00790316 0.00464879,-0.0075219 0.00529509,-0.00708183 0.00589999,-0.00658638 0.00645876,-0.00603943 0.00696702,-0.00544526 0.00742081,-0.00480851 0.00781658,-0.00413417 0.00815123,-0.0034275 0.00842214,-0.00269403 0.0086272,-0.0019395 0.00876481,-0.0011698 0.00883388,-0.000390951 3.26459,-8.88178e-16 z "/>
<path fill="rgb(42,41,42)" stroke="rgb(42,41,42)" d="M 3.12116,2.28479 l -0.00222312,0.000980323 -0.00535459,0.00183244 -0.00549164,0.00136798 -0.00558848,0.000893514 -0.00564441,0.000412503 -0.00565901,-7.15282e-05 -0.00563218,-0.000555036 -0.284147,0 -0.00677271,-0.000301529 -0.00671912,-0.0009022 -0.00661236,-0.00149573 -0.00645328,-0.00207743 -0.00624314,-0.00264269 -0.00598359,-0.00318703 -0.0056767,-0.00370616 -0.00532489,-0.00419597 -0.00493094,-0.00465257 -0.00449798,-0.00507235 -0.00402942,-0.005452 -0.00352898,-0.00578851 -0.00300062,-0.00607921 -0.00244851,-0.00632182 -0.00187703,-0.00651439 -0.0012907,-0.00665542 -2.04793e-08,-1.38252e-07 -2.04791e-08,-1.38252e-07 -2.04788e-08,-1.38252e-07 -1.64886e-05,-0.000111888 -1.63226e-05,-0.000111912 -1.61565e-05,-0.000111936 -0.0201157,-0.135796 -0.000591002,-0.00567303 -9.8586e-05,-0.00570288 0.000394568,-0.00569007 0.00088477,-0.00563469 0.00136835,-0.00553716 0.0018417,-0.00539821 0.00230127,-0.00521888 0.00274363,-0.00500051 0.00316546,-0.00474473 0.00356361,-0.00445345 0.0039351,-0.00412886 0.00427716,-0.00377339 0.00458722,-0.00338969 0.00486296,-0.00298063 0.00510233,-0.00254927 0.00530353,-0.00209885 0.00546505,-0.00163272 0.00558569,-0.00115438 0.00566455,-0.0006674 0.319345,0 0.00657494,0.000287068 0.0065249,0.00085902 0.00642521,0.00142443 0.00627661,0.00197901 0.00608024,0.00251852 0.00371151,0.00193209 0,-0.31579 -0.00290284,0 1.60172e-09,-0.336943 0,-1.55401e-10 -0.000124398,-0.00284917 -0.000372246,-0.00282749 -0.000617261,-0.00278429 -0.000857579,-0.00271989 -0.00109137,-0.0026348 -0.00131685,-0.00252965 -0.00153232,-0.00240526 -0.00173612,-0.00226255 -0.00192671,-0.00210263 -0.00210263,-0.00192671 -0.00226255,-0.00173612 -0.00240526,-0.00153232 -0.00252965,-0.00131685 -0.0026348,-0.00109137 -0.00271989,-0.000857579 -0.00278429,-0.000617261 -0.00282749,-0.000372246 -0.00284917,-0.000124398 -2.39262e-10,0 -0.218776,-1.60122e-09 -2.39186e-10,0 -0.00284828,0.000124359 -0.0028266,0.000372129 -0.00278341,0.000617068 -0.00271904,0.00085731 -0.00263397,0.00109103 -0.00252886,0.00131644 -0.0024045,0.00153184 -0.00226185,0.00173558 -0.00210197,0.0019261 -0.0019261,0.00210197 -0.00173558,0.00226185 -0.00153184,0.0024045 -0.00131644,0.00252886 -0.00109103,0.00263397 -0.00085731,0.00271904 -0.000617068,0.00278341 -0.000372129,0.0028266 -0.000124359,0.00284828 0,0.336953 -0.71295,-2.22045e-16 0.315183,0.630366 0.684817,0 0,-0.05183 z "/>
<path fill="rgb(42,41,42)" stroke="rgb(42,41,42)" d="M 3.12116,2.33662 l 0,0.206583 0.0348116,-0.0825792 0.101691,-0.124004 -0.136503,0 z "/>
<path fill="rgb(42,41,42)" stroke="rgb(42,41,42)" d="M 2.43634,2.33662 l 0.0837948,0.16759 0.176078,-0.00937644 0.175918,-0.0120125 0.175718,-0.014646 -0.168477,0.424967 -0.0499221,0.0104293 -0.0500636,0.00972761 -0.0501952,0.00902403 0.0406448,0.0812896 0.0568583,-0.00866698 0.0566382,-0.0100044 0.0563868,-0.0113363 0.181437,-0.430402 0,-0.206583 -0.684817,0 z "/>
<path fill="rgb(42,41,42)" stroke="rgb(42,41,42)" d="M 3.12116,2.33662 l 0.136503,0 0.00141443,-0.00172477 0,-0.490328 -0.0854969,-0.138313 -0.0524205,0 0,0.31579 0.00212609,0.00110677 0.00555053,0.00353608 0.00522122,0.00400639 0.00485218,0.0044462 0.0044462,0.00485218 0.00400639,0.00522122 0.00353608,0.00555053 0.00303886,0.0058376 0.00251852,0.00608024 0.00197901,0.00627661 0.00142443,0.00642521 0.00085902,0.0065249 0.000287068,0.00657494 8.17511e-08,0.135682 -0.000242126,0.00565428 -0.000724605,0.00561288 -0.00120178,0.00553039 -0.00167015,0.00540741 -0.0021263,0.00524484 -0.00256688,0.00504387 -0.00298867,0.00480597 -0.00338857,0.00453289 -0.00376367,0.00422661 -0.00411121,0.0038894 -0.00442865,0.00352371 -0.00471367,0.00313222 -0.00496418,0.0027178 -0.00295522,0.00130315 0,0.05183 z "/>
<path fill="rgb(42,41,42)" stroke="rgb(42,41,42)" d="M 4.20957,2.81016 l -0.0251293,0.0175987 -0.950513,-1.32015 0.0251497,-0.0175987 0.950493,1.32015 z "/>
<path fill="rgb(42,41,42)" stroke="rgb(42,41,42)" d="M 3.9707,2.27203 l -0.0301838,-0.0427484 -0.0653812,-0.0276463 -0.0276463,-0.0578301 0.0980615,0.0150817 0.0704152,0.105613 -0.0452655,0.0075306 z "/>
<path fill="rgb(42,41,42)" stroke="rgb(42,41,42)" d="M 4.34788,2.46314 l -0.0653812,-0.0175987 -0.0251497,-0.0527961 0.0502995,-0.0151021 0.0527961,0.0352178 -0.0125646,0.050279 z "/>
<path fill="rgb(42,41,42)" stroke="rgb(42,41,42)" d="M 4.47613,2.79005 l -0.0377349,0.0125646 -0.047762,-0.0175987 -0.0352178,-0.0502995 0.0352178,-0.0427484 0.0578301,0.0301838 0,0.0326804 0.0276668,0.0352178 z "/>
<path fill="rgb(42,41,42)" stroke="rgb(42,41,42)" d="M 4.59179,2.43799 l -0.0175987,0.0226327 -1.28746,-0.995758 0.0175987,-0.0226327 1.28746,0.995758 z "/>
<path fill="rgb(42,41,42)" stroke="rgb(42,41,42)" d="M 4.29507,2.10607 l -0.0402314,-0.050279 0.0402314,-0.0201157 0.118198,0 -8.88178e-16,0.047762 -0.118198,0.0226327 z "/>
<path fill="rgb(42,41,42)" stroke="rgb(42,41,42)" d="M 4.64461,2.00046 l 0.0603471,-0.0703947 0.0980615,0.0226327 0,0.0779458 -0.0678982,-4.44089e-16 -0.0251293,0.0226327 -0.0653812,-0.0528165 z "/>
<path fill="rgb(42,41,42)" stroke="rgb(42,41,42)" d="M 4.87844,1.87977 l -0.0075306,0.0276668 -1.55149,-0.495383 0.00754083,-0.0276463 1.55148,0.495362 z "/>
<path fill="rgb(42,41,42)" stroke="rgb(42,41,42)" d="M 4.94383,1.51517 l 0.0327008,-0.0628641 0.120694,0.0100476 0.0729322,-0.0150817 -0.0125851,0.0628641 -0.0402314,0.0351974 -0.0502995,0.00755106 -0.123211,-0.0377144 z "/>
<path fill="rgb(42,41,42)" stroke="rgb(42,41,42)" d="M 4.25735,1.53276 l -0.00503404,-0.0804628 0.0251497,0.0125646 0.0829799,-4.44089e-16 0.0477825,-0.0226327 -0.00503404,0.0452655 0.0226327,0.0427484 -0.0351974,0.0100476 -0.0276668,0.0251497 -0.105613,-0.0326804 z "/>
<path fill="rgb(42,41,42)" stroke="rgb(42,41,42)" d="M 4.96144,1.3668 l -1.62694,0 0,-0.0301838 1.62694,-4.44089e-16 -8.88178e-16,0.0301838 z "/>
<path fill="rgb(42,41,42)" stroke="rgb(42,41,42)" d="M 3.98326,1.80434 l -0.0251497,-0.0704152 0.0276668,2.22045e-16 0.0528165,0.0528165 -0.0176191,0.0226123 -0.0201157,-0.0175987 -0.0175987,0.0125851 z "/>
<path fill="rgb(42,41,42)" stroke="rgb(42,41,42)" d="M 3.83742,2.84788 l -0.0351974,-0.176028 0.10813,0.0201157 0.0075306,0.0402314 0.0251497,0.0125851 0.0150817,0.105613 -0.0377144,0.0251497 -0.0477825,0 -0.0351974,-0.0276668 z "/>
<path fill="rgb(187,30,16)" stroke="rgb(187,30,16)" d="M 3.56459,5.04033 l 1.97016,-3.94033 -1.97016,-4.44089e-16 0,-0.7 3.10279,-2.66454e-15 -3.10279,6.20557 0,-1.56525 z "/>
<path fill="rgb(187,30,16)" stroke="rgb(187,30,16)" d="M 3.56459,0.2 l 0,-0.2 3.26459,-1.77636e-15 0.0265016,0.00117285 0.0262944,0.00350939 0.0258816,0.00581849 0.0252664,0.00808209 0.0244537,0.0102825 0.0234497,0.0124025 0.0222624,0.0144255 0.0209011,0.0163358 0.0193763,0.0181183 0.0177,0.0197591 0.0158853,0.0212455 0.0139464,0.0225657 0.0118984,0.0237095 0.00975744,0.0246679 0.00754016,0.0254334 0.00526392,0.0260001 0.00294653,0.0263634 0.000606098,0.0265207 -0.00173907,0.0264705 -0.00407065,0.0262134 -0.00637039,0.0257513 -0.00862033,0.0250879 -0.0108029,0.0242283 -3.26459,6.52918 -0.0123848,0.0223384 -0.0142401,0.0212039 -0.0159921,0.0199158 -0.0176283,0.0184833 -0.0191366,0.0169168 -0.0205062,0.0152277 -0.0217272,0.0134282 -0.0227907,0.0115313 -0.023689,0.00955089 -0.0244155,0.00750124 -0.0249651,0.00539721 -0.0253337,0.00325405 -0.0255187,0.00108731 0,-0.2 0.00850624,-0.000362437 0.00844458,-0.00108468 0.00832171,-0.00179907 0.00813851,-0.00250041 0.00789632,-0.00318363 0.0075969,-0.00384377 0.0072424,-0.00447605 0.00683541,-0.00507588 0.00637887,-0.00563892 0.00587609,-0.00616109 0.00533072,-0.00663859 0.0047467,-0.00706797 0.00412828,-0.00744612 3.26459,-6.52918 0.00360095,-0.0080761 0.00287344,-0.00836263 0.00212346,-0.00858377 0.00135688,-0.0087378 0.000579691,-0.0088235 -0.000202033,-0.00884022 -0.000982177,-0.00878781 -0.00175464,-0.00866669 -0.00251339,-0.0084778 -0.00325248,-0.00822263 -0.00396614,-0.00790316 -0.00464879,-0.0075219 -0.00529509,-0.00708183 -0.00589999,-0.00658638 -0.00645876,-0.00603943 -0.00696702,-0.00544526 -0.00742081,-0.00480851 -0.00781658,-0.00413417 -0.00815123,-0.0034275 -0.00842214,-0.00269403 -0.0086272,-0.0019395 -0.00876481,-0.0011698 -0.00883388,-0.000390951 -3.26459,0 z "/>
<path fill="rgb(187,30,16)" stroke="rgb(187,30,16)" d="M 3.56459,0.2 l -3.26459,8.88178e-16 -0.00883388,0.000390951 -0.00876481,0.0011698 -0.0086272,0.0019395 -0.00842214,0.00269403 -0.00815123,0.0034275 -0.00781658,0.00413417 -0.00742081,0.00480851 -0.00696702,0.00544526 -0.00645876,0.00603943 -0.00589999,0.00658638 -0.00529509,0.00708183 -0.00464879,0.0075219 -0.00396614,0.00790316 -0.00325248,0.00822263 -0.00251339,0.0084778 -0.00175464,0.00866669 -0.000982177,0.00878781 -0.000202033,0.00884022 0.000579691,0.0088235 0.00135688,0.0087378 0.00212346,0.00858377 0.00287344,0.00836263 0.00360095,0.0080761 3.26459,6.52918 0.00412828,0.00744612 0.0047467,0.00706797 0.00533072,0.00663859 0.00587609,0.00616109 0.00637887,0.00563892 0.00683541,0.00507588 0.0072424,0.00447605 0.0075969,0.00384377 0.00789632,0.00318363 0.00813851,0.00250041 0.00832171,0.00179907 0.00844458,0.00108468 0.00850624,0.000362437 0,0.2 -0.0255187,-0.00108731 -0.0253337,-0.00325405 -0.0249651,-0.00539721 -0.0244155,-0.00750124 -0.023689,-0.00955089 -0.0227907,-0.0115313 -0.0217272,-0.0134282 -0.0205062,-0.0152277 -0.0191366,-0.0169168 -0.0176283,-0.0184833 -0.0159921,-0.0199158 -0.0142401,-0.0212039 -0.0123848,-0.0223384 -3.26459,-6.52918 -0.0108029,-0.0242283 -0.00862033,-0.0250879 -0.00637039,-0.0257513 -0.00407065,-0.0262134 -0.00173907,-0.0264705 0.000606098,-0.0265207 0.00294653,-0.0263634 0.00526392,-0.0260001 0.00754016,-0.0254334 0.00975744,-0.0246679 0.0118984,-0.0237095 0.0139464,-0.0225657 0.0158853,-0.0212455 0.0177,-0.0197591 0.0193763,-0.0181183 0.0209011,-0.0163358 0.0222624,-0.0144255 0.0234497,-0.0124025 0.0244537,-0.0102825 0.0252664,-0.00808209 0.0258816,-0.00581849 0.0262944,-0.00350939 0.0265016,-0.00117285 3.26459,0 0,0.2 z "/>
<path fill="rgb(187,30,16)" stroke="rgb(187,30,16)" d="M 3.56459,5.04033 l 0,1.56525 -3.10279,-6.20557 3.10279,0 0,0.7 -1.97016,4.44089e-16 1.97016,3.94033 z "/>
</g></g></svg>
