<?xml version="1.0" encoding="UTF-8" standalone="no"?>
<!DOCTYPE svg PUBLIC "-//W3C//DTD SVG 1.1//EN" "http://www.w3.org/Graphics/SVG/1.1/DTD/svg11-flat.dtd"
[

]>
<svg xmlns="http://www.w3.org/2000/svg"  viewBox="-0.09375 -0.09375 7.6875 7.6875"><g fill="none" stroke="black" stroke-width="0.0125" transform="translate(0,7.5) scale(1, -1)">
<g id="Output" >
<path fill="rgb(241,240,234)" stroke="rgb(241,240,234)" d="M 2.64033,5.08843 l 0,-1.98176 0,-2.1355 0.279302,0 0.279302,0 0,1.3243 0.00192157,0.0451301 0.00575081,0.0448034 0.00953841,0.0441524 0.013257,0.0431819 0.0168796,0.0418987 0.02038,0.0403122 0.0237329,0.038434 0.026914,0.0362775 0.0299003,0.0338584 0.0326701,0.0311943 0.0352035,0.0283043 0.037482,0.0252095 0.0394892,0.0219322 0.0412106,0.0184961 0.0426337,0.0149261 0.0437481,0.0112481 0.0445459,0.00748871 0.0450213,0.00367508 0.0451707,-0.000165161 1.30862,0 -0.163191,-0.693549 -0.00185035,-0.00977073 -0.000985762,-0.00989542 -0.000113572,-0.00994375 0.000759495,-0.00991535 0.0016267,-0.00981044 0.00248136,-0.00962984 0.00331686,-0.00937493 0.00412678,-0.00904769 0.00490485,-0.00865063 0.00564508,-0.00818682 0.00634174,-0.00765985 0.00698948,-0.00707376 0.00758328,-0.0064331 0.00811857,-0.0057428 0.00859122,-0.00500819 0.00899757,-0.00423493 0.0093345,-0.00342899 0.00959941,-0.0025966 0.00979024,-0.00174417 0.00990553,-0.000878287 0.00994439,-5.62396e-06 0.00990652,0.000867083 0.00979221,0.0017331 0.00960234,0.00258574 0.00933838,0.00341843 0.00900236,0.00422475 0.00859688,0.00499847 0.00812506,0.00573361 1.44296,0.99729 0.00787327,0.00596873 0.00731941,0.00663629 0.00670914,0.00725269 0.00604716,0.00781319 0.00533857,0.00831347 0.00458882,0.00874968 0.00380371,0.00911844 0.00298928,0.00941692 0.00215181,0.00964281 0.00129776,0.00979438 0.000433701,0.00987046 -0.00043369,0.00987034 -0.00129773,0.00979427 -0.00215176,0.0096427 -0.00298921,0.00941681 -0.00380362,0.00911834 -0.00458872,0.00874959 -0.00533844,0.00831341 -0.00604702,0.00781315 -0.00670899,0.00725266 -0.00731926,0.00663628 -0.0078731,0.00596875 -1.45296,1.00423 -4.13891e-13,2.85105e-13 -0.00837111,0.00525291 -0.00880369,0.00449039 -0.00916699,0.00369254 -0.00945816,0.00286564 -0.0096749,0.00201618 -0.0098155,0.00115086 -0.00987887,0.00027648 -0.00986451,-0.000600073 -0.00977252,-0.00147191 -0.00960363,-0.00233215 -0.00935917,-0.00317405 -0.00904106,-0.00399097 -0.00865181,-0.00477649 -0.00819447,-0.00552442 -0.00767266,-0.00622888 -0.00709047,-0.00688432 -0.00645248,-0.00748559 -0.00576372,-0.00802796 -0.0050296,-0.00850715 -0.00425591,-0.00891941 -0.00344873,-0.00926147 -0.00261441,-0.00953066 -0.00175951,-0.00972485 -0.000890776,-0.00984252 -1.50273e-05,-0.00988273 0.000860839,-0.00984518 0.00172993,-0.00973016 0.00258541,-0.00953857 0.163191,-0.693536 -1.30862,0 -0.0969227,-0.00428047 -0.096168,-0.0128081 -0.0946645,-0.0212359 -0.0924239,-0.0294985 -0.0894636,-0.0375313 -0.0858067,-0.0452719 0,1.85466 0.693536,-0.163178 0.00977888,-0.00185137 0.00990369,-0.000985328 0.00995196,-0.000111666 0.00992331,0.000762859 0.00981796,0.00163149 0.00963672,0.00248751 0.009381,0.0033243 0.00905276,0.00413539 0.00865456,0.00491453 0.00818947,0.00565568 0.00766107,0.00635311 0.00707346,0.00700144 0.00643118,0.00759565 0.00573919,0.00813116 0.00500284,0.00860381 0.00422783,0.00900997 0.00342013,0.00934648 0.002586,0.00961076 0.00173188,0.00980075 0.000864376,0.00991498 -9.81016e-06,0.00995258 -0.00088392,0.00991326 -0.0017512,0.00979731 -0.00260494,0.00960564 -0.00343855,0.00933972 -0.00424558,0.00900162 -0.00501979,0.00859393 -0.00575521,0.00811983 -0.997151,1.43964 -0.00588307,0.00775488 -0.00653076,0.00721789 -0.00712966,0.00662697 -0.00767529,0.00598654 -0.00816358,0.00530138 -0.00859088,0.00457662 -0.008954,0.00381766 -0.00925023,0.00303019 -0.00947734,0.00222007 -0.00963365,0.00139337 -0.00971799,0.000556263 -0.0100145,-0.000306055 -0.00994768,-0.00119494 -0.00980211,-0.00207436 -0.00957894,-0.00293736 -0.00927996,-0.00377712 -0.00890752,-0.00458697 -0.00846458,-0.00536052 -0.00795463,-0.00609164 -0.00738172,-0.00677454 -0.00675039,-0.00740382 -0.00606562,-0.0079745 -1.00421,-1.44983 -0.00526298,-0.00836916 -0.00449997,-0.00880296 -0.0037015,-0.00916737 -0.00287385,-0.00945953 -0.00202356,-0.00967714 -0.00115732,-0.00981847 -0.00028195,-0.00988242 0.000595638,-0.00986848 0.00146853,-0.00977677 0.00232985,-0.009608 0.00317281,-0.0093635 0.00399075,-0.0090452 0.00477725,-0.00865561 0.0055261,-0.00819781 0.00623139,-0.00767539 0.00688756,-0.00709248 0.00748946,-0.00645367 0.00803232,-0.00576399 0.00851188,-0.00502889 0.00892435,-0.00425415 0.00926648,-0.00344588 0.00953558,-0.00261045 0.00972953,-0.00175445 0.00984679,-0.000884619 0.00988644,-7.81707e-06 0.00984817,0.000869047 0.00973229,0.00173906 0.0095397,0.00259537 0.693536,0.163178 z "/>
<path fill="rgb(0,91,140)" stroke="rgb(0,91,140)" d="M 2.64033,5.08843 l -0.693536,-0.163178 -0.0095397,-0.00259537 -0.00973229,-0.00173906 -0.00984817,-0.000869047 -0.00988644,7.81707e-06 -0.00984679,0.000884619 -0.00972953,0.00175445 -0.00953558,0.00261045 -0.00926648,0.00344588 -0.00892435,0.00425415 -0.00851188,0.00502889 -0.00803232,0.00576399 -0.00748946,0.00645367 -0.00688756,0.00709248 -0.00623139,0.00767539 -0.0055261,0.00819781 -0.00477725,0.00865561 -0.00399075,0.0090452 -0.00317281,0.0093635 -0.00232985,0.009608 -0.00146853,0.00977677 -0.000595638,0.00986848 0.00028195,0.00988242 0.00115732,0.00981847 0.00202356,0.00967714 0.00287385,0.00945953 0.0037015,0.00916737 0.00449997,0.00880296 0.00526298,0.00836916 1.00421,1.44983 0.00606562,0.0079745 0.00675039,0.00740382 0.00738172,0.00677454 0.00795463,0.00609164 0.00846458,0.00536052 0.00890752,0.00458697 0.00927996,0.00377712 0.00957894,0.00293736 0.00980211,0.00207436 0.00994768,0.00119494 0.0100145,0.000306055 0,0.402425 -0.277516,-0.0839548 -0.269217,-0.107636 -0.258902,-0.130512 -0.246647,-0.152409 -0.232545,-0.173166 -0.216701,-0.192625 -0.199234,-0.210641 -0.185597,-0.234435 -0.163953,-0.250051 -0.141004,-0.263674 -0.116931,-0.275196 -0.0919268,-0.284527 -0.0661902,-0.29159 -0.0399262,-0.296331 -0.0133442,-0.29871 0.0069472,-0.215634 0.0208128,-0.214739 0.034592,-0.212954 2.17798,0 0,1.98176 z "/>
<path fill="rgb(0,91,140)" stroke="rgb(0,91,140)" d="M 6.52225,3.19925 l 0.0078731,-0.00596875 0.00731926,-0.00663628 0.00670899,-0.00725266 0.00604702,-0.00781315 0.00533844,-0.00831341 0.00458872,-0.00874959 0.00380362,-0.00911834 0.00298921,-0.00941681 0.00215176,-0.0096427 0.00129773,-0.00979427 0.00043369,-0.00987034 0.466847,0 0.034592,0.212954 0.0208128,0.214739 0.0069472,0.215634 -0.0114859,0.277171 -0.034379,0.27527 -0.0570363,0.271482 -0.0793025,0.265832 -0.107547,0.2731 -0.131039,0.262638 -0.153526,0.25016 -0.174833,0.235762 -0.194799,0.219553 -0.213269,0.201659 -0.230102,0.182217 -0.245169,0.161377 -0.258353,0.139297 -0.269555,0.116148 -0.278687,0.092108 -0.28568,0.0673604 -0.290479,0.0420958 -0.293049,0.0165081 -0.293369,-0.00920642 -0.291437,-0.0348502 -0.287268,-0.0602265 0,-0.402425 0.00971799,-0.000556263 0.00963365,-0.00139337 0.00947734,-0.00222007 0.00925023,-0.00303019 0.008954,-0.00381766 0.00859088,-0.00457662 0.00816358,-0.00530138 0.00767529,-0.00598654 0.00712966,-0.00662697 0.00653076,-0.00721789 0.00588307,-0.00775488 0.997151,-1.43964 0.00575521,-0.00811983 0.00501979,-0.00859393 0.00424558,-0.00900162 0.00343855,-0.00933972 0.00260494,-0.00960564 0.0017512,-0.00979731 0.00088392,-0.00991326 9.81016e-06,-0.00995258 -0.000864376,-0.00991498 -0.00173188,-0.00980075 -0.002586,-0.00961076 -0.00342013,-0.00934648 -0.00422783,-0.00900997 -0.00500284,-0.00860381 -0.00573919,-0.00813116 -0.00643118,-0.00759565 -0.00707346,-0.00700144 -0.00766107,-0.00635311 -0.00818947,-0.00565568 -0.00865456,-0.00491453 -0.00905276,-0.00413539 -0.009381,-0.0033243 -0.00963672,-0.00248751 -0.00981796,-0.00163149 -0.00992331,-0.000762859 -0.00995196,0.000111666 -0.00990369,0.000985328 -0.00977888,0.00185137 -0.693536,0.163178 0,-1.85466 0.0858067,0.0452719 0.0894636,0.0375313 0.0924239,0.0294985 0.0946645,0.0212359 0.096168,0.0128081 0.0969227,0.00428047 1.30862,0 -0.163191,0.693536 -0.00258541,0.00953857 -0.00172993,0.00973016 -0.000860839,0.00984518 1.50273e-05,0.00988273 0.000890776,0.00984252 0.00175951,0.00972485 0.00261441,0.00953066 0.00344873,0.00926147 0.00425591,0.00891941 0.0050296,0.00850715 0.00576372,0.00802796 0.00645248,0.00748559 0.00709047,0.00688432 0.00767266,0.00622888 0.00819447,0.00552442 0.00865181,0.00477649 0.00904106,0.00399097 0.00935917,0.00317405 0.00960363,0.00233215 0.00977252,0.00147191 0.00986451,0.000600073 0.00987887,-0.00027648 0.0098155,-0.00115086 0.0096749,-0.00201618 0.00945816,-0.00286564 0.00916699,-0.00369254 0.00880369,-0.00449039 0.00837111,-0.00525291 4.13891e-13,-2.85105e-13 1.45296,-1.00423 z "/>
<path fill="rgb(0,91,140)" stroke="rgb(0,91,140)" d="M 7.03765,3.10667 l -0.466847,0 -0.000433701,-0.00987046 -0.00129776,-0.00979438 -0.00215181,-0.00964281 -0.00298928,-0.00941692 -0.00380371,-0.00911844 -0.00458882,-0.00874968 -0.00533857,-0.00831347 -0.00604716,-0.00781319 -0.00670914,-0.00725269 -0.00731941,-0.00663629 -0.00787327,-0.00596873 -1.44296,-0.99729 -0.00812506,-0.00573361 -0.00859688,-0.00499847 -0.00900236,-0.00422475 -0.00933838,-0.00341843 -0.00960234,-0.00258574 -0.00979221,-0.0017331 -0.00990652,-0.000867083 -0.00994439,5.62396e-06 -0.00990553,0.000878287 -0.00979024,0.00174417 -0.00959941,0.0025966 -0.0093345,0.00342899 -0.00899757,0.00423493 -0.00859122,0.00500819 -0.00811857,0.0057428 -0.00758328,0.0064331 -0.00698948,0.00707376 -0.00634174,0.00765985 -0.00564508,0.00818682 -0.00490485,0.00865063 -0.00412678,0.00904769 -0.00331686,0.00937493 -0.00248136,0.00962984 -0.0016267,0.00981044 -0.000759495,0.00991535 0.000113572,0.00994375 0.000985762,0.00989542 0.00185035,0.00977073 0.163191,0.693549 -1.30862,0 -0.0451707,0.000165161 -0.0450213,-0.00367508 -0.0445459,-0.00748871 -0.0437481,-0.0112481 -0.0426337,-0.0149261 -0.0412106,-0.0184961 -0.0394892,-0.0219322 -0.037482,-0.0252095 -0.0352035,-0.0283043 -0.0326701,-0.0311943 -0.0299003,-0.0338584 -0.026914,-0.0362775 -0.0237329,-0.038434 -0.02038,-0.0403122 -0.0168796,-0.0418987 -0.013257,-0.0431819 -0.00953841,-0.0441524 -0.00575081,-0.0448034 -0.00192157,-0.0451301 0,-1.3243 -0.279302,0 0,-0.466626 0.273554,-0.0579441 0.277433,-0.0349287 0.279379,-0.01167 0.28807,0.0124087 0.285936,0.0371342 0.281684,0.0615845 0.275344,0.0855787 0.266966,0.108939 0.256609,0.131492 0.244351,0.153071 0.230283,0.173516 0.21451,0.192676 0.197147,0.210408 0.178323,0.226581 0.158179,0.241076 0.136862,0.253785 0.114532,0.264614 0.0913536,0.273483 0.0674982,0.280325 z "/>
<path fill="rgb(0,91,140)" stroke="rgb(0,91,140)" d="M 2.64033,3.10667 l -2.17798,0 0.0680537,-0.28226 0.0922388,-0.275307 0.115731,-0.266286 0.138354,-0.255265 0.159938,-0.242326 0.18032,-0.227567 0.199348,-0.211098 0.216878,-0.193044 0.232779,-0.17354 0.246931,-0.152732 0.259229,-0.130776 0.269579,-0.107839 0.277904,-0.0840908 0,0.466626 -0.279302,0 0,2.1355 z "/>
<path fill="rgb(0,91,140)" stroke="rgb(0,91,140)" d="M 1.06776,6.07553 l -0.151112,0.131016 -0.207757,-0.262428 -0.18353,-0.279907 -0.15784,-0.295157 -0.130893,-0.308056 -0.102903,-0.3185 -0.0740935,-0.326407 -0.0446935,-0.331713 -0.0149375,-0.334377 0.0142699,-0.326834 0.042701,-0.324347 0.0708072,-0.319391 0.0983745,-0.312004 0.125193,-0.302243 0.151059,-0.290182 0.175775,-0.275912 0.199154,-0.259542 0.221016,-0.241197 0.241197,-0.221016 0.259542,-0.199154 0.275912,-0.175775 0.290182,-0.151059 0.302243,-0.125193 0.312004,-0.0983745 0.319391,-0.0708072 0.324347,-0.042701 0.326834,-0.0142699 0,0.2 -0.309403,0.0135088 -0.307048,0.0404237 -0.302357,0.0670308 -0.295364,0.0931279 -0.286123,0.118516 -0.274705,0.143002 -0.261196,0.1664 -0.2457,0.188532 -0.228333,0.209229 -0.209229,0.228333 -0.188532,0.2457 -0.1664,0.261196 -0.143002,0.274705 -0.118516,0.286123 -0.0931279,0.295364 -0.0670308,0.302357 -0.0404237,0.307048 -0.0135088,0.309403 0.0141408,0.316544 0.0423099,0.314022 0.0701418,0.308999 0.097415,0.301513 0.123912,0.291626 0.149422,0.279416 0.173742,0.264979 0.196677,0.248431 z "/>
<path fill="rgb(0,91,140)" stroke="rgb(0,91,140)" d="M 7.5,3.75 l -0.0128574,0.310266 -0.0384839,0.308138 -0.0638466,0.303898 -0.0887715,0.297573 -0.189122,-0.06506 0.084037,-0.281703 0.0604415,-0.28769 0.0364315,-0.291704 0.0121716,-0.293718 -0.0135088,-0.309403 -0.0404237,-0.307048 -0.0670308,-0.302357 -0.0931279,-0.295364 -0.118516,-0.286123 -0.143002,-0.274705 -0.1664,-0.261196 -0.188532,-0.2457 -0.209229,-0.228333 -0.228333,-0.209229 -0.2457,-0.188532 -0.261196,-0.1664 -0.274705,-0.143002 -0.286123,-0.118516 -0.295364,-0.0931279 -0.302357,-0.0670308 -0.307048,-0.0404237 -0.309403,-0.0135088 0,-0.2 0.326834,0.0142699 0.324347,0.042701 0.319391,0.0708072 0.312004,0.0983745 0.302243,0.125193 0.290182,0.151059 0.275912,0.175775 0.259542,0.199154 0.241197,0.221016 0.221016,0.241197 0.199154,0.259542 0.175775,0.275912 0.151059,0.290182 0.125193,0.302243 0.0983745,0.312004 0.0708072,0.319391 0.042701,0.324347 0.0142699,0.326834 z "/>
<path fill="rgb(0,91,140)" stroke="rgb(0,91,140)" d="M 1.06776,6.07553 l 0.213058,0.225086 0.231878,0.205645 0.248931,0.184636 0.264087,0.162221 0.27723,0.138568 0.288259,0.11386 0.297092,0.0882837 0.30366,0.0620345 0.307913,0.0353125 0.30982,0.00832127 0.309365,-0.0187333 0.306552,-0.0456452 0.301402,-0.0722091 0.293955,-0.0982226 0.284268,-0.123487 0.272414,-0.147811 0.258483,-0.171008 0.242583,-0.192902 0.224833,-0.213325 0.20537,-0.232122 0.184341,-0.24915 0.161907,-0.264279 0.138239,-0.277394 0.113518,-0.288394 0.189122,0.06506 -0.119913,0.304642 -0.146028,0.293022 -0.171029,0.279168 -0.194726,0.263187 -0.21694,0.245199 -0.2375,0.225343 -0.256249,0.203769 -0.273046,0.180642 -0.287761,0.156138 -0.300283,0.130445 -0.310516,0.103756 -0.318383,0.0762772 -0.323822,0.0482167 -0.326794,0.0197887 -0.327274,-0.00879008 -0.32526,-0.0373019 -0.320767,-0.0655294 -0.313829,-0.0932574 -0.304499,-0.120275 -0.292848,-0.146375 -0.278965,-0.17136 -0.262956,-0.195039 -0.244942,-0.217231 -0.225061,-0.237767 0.151112,-0.131016 z "/>
<path fill="rgb(241,240,234)" stroke="rgb(241,240,234)" d="M 7.03765,3.10667 l -0.0674982,-0.280325 -0.0913536,-0.273483 -0.114532,-0.264614 -0.136862,-0.253785 -0.158179,-0.241076 -0.178323,-0.226581 -0.197147,-0.210408 -0.21451,-0.192676 -0.230283,-0.173516 -0.244351,-0.153071 -0.256609,-0.131492 -0.266966,-0.108939 -0.275344,-0.0855787 -0.281684,-0.0615845 -0.285936,-0.0371342 -0.28807,-0.0124087 0,-0.2 0.309403,0.0135088 0.307048,0.0404237 0.302357,0.0670308 0.295364,0.0931279 0.286123,0.118516 0.274705,0.143002 0.261196,0.1664 0.2457,0.188532 0.228333,0.209229 0.209229,0.228333 0.188532,0.2457 0.1664,0.261196 0.143002,0.274705 0.118516,0.286123 0.0931279,0.295364 0.0670308,0.302357 0.0404237,0.307048 0.0135088,0.309403 -0.0121716,0.293718 -0.0364315,0.291704 -0.0604415,0.28769 -0.084037,0.281703 -0.189122,-0.06506 0.0793025,-0.265832 0.0570363,-0.271482 0.034379,-0.27527 0.0114859,-0.277171 -0.0069472,-0.215634 -0.0208128,-0.214739 -0.034592,-0.212954 z "/>
<path fill="rgb(241,240,234)" stroke="rgb(241,240,234)" d="M 1.06776,6.07553 l -0.196677,-0.248431 -0.173742,-0.264979 -0.149422,-0.279416 -0.123912,-0.291626 -0.097415,-0.301513 -0.0701418,-0.308999 -0.0423099,-0.314022 -0.0141408,-0.316544 0.0135088,-0.309403 0.0404237,-0.307048 0.0670308,-0.302357 0.0931279,-0.295364 0.118516,-0.286123 0.143002,-0.274705 0.1664,-0.261196 0.188532,-0.2457 0.209229,-0.228333 0.228333,-0.209229 0.2457,-0.188532 0.261196,-0.1664 0.274705,-0.143002 0.286123,-0.118516 0.295364,-0.0931279 0.302357,-0.0670308 0.307048,-0.0404237 0.309403,-0.0135088 0,0.2 -0.279379,0.01167 -0.277433,0.0349287 -0.273554,0.0579441 -0.277904,0.0840908 -0.269579,0.107839 -0.259229,0.130776 -0.246931,0.152732 -0.232779,0.17354 -0.216878,0.193044 -0.199348,0.211098 -0.18032,0.227567 -0.159938,0.242326 -0.138354,0.255265 -0.115731,0.266286 -0.0922388,0.275307 -0.0680537,0.28226 -0.034592,0.212954 -0.0208128,0.214739 -0.0069472,0.215634 0.0133442,0.29871 0.0399262,0.296331 0.0661902,0.29159 0.0919268,0.284527 0.116931,0.275196 0.141004,0.263674 0.163953,0.250051 0.185597,0.234435 -0.151112,0.131016 z "/>
<path fill="rgb(241,240,234)" stroke="rgb(241,240,234)" d="M 2.91963,6.99546 l 0.287268,0.0602265 0.291437,0.0348502 0.293369,0.00920642 0.293049,-0.0165081 0.290479,-0.0420958 0.28568,-0.0673604 0.278687,-0.092108 0.269555,-0.116148 0.258353,-0.139297 0.245169,-0.161377 0.230102,-0.182217 0.213269,-0.201659 0.194799,-0.219553 0.174833,-0.235762 0.153526,-0.25016 0.131039,-0.262638 0.107547,-0.2731 0.189122,0.06506 -0.113518,0.288394 -0.138239,0.277394 -0.161907,0.264279 -0.184341,0.24915 -0.20537,0.232122 -0.224833,0.213325 -0.242583,0.192902 -0.258483,0.171008 -0.272414,0.147811 -0.284268,0.123487 -0.293955,0.0982226 -0.301402,0.0722091 -0.306552,0.0456452 -0.309365,0.0187333 -0.30982,-0.00832127 -0.307913,-0.0353125 -0.30366,-0.0620345 -0.297092,-0.0882837 -0.288259,-0.11386 -0.27723,-0.138568 -0.264087,-0.162221 -0.248931,-0.184636 -0.231878,-0.205645 -0.213058,-0.225086 0.151112,-0.131016 0.199234,0.210641 0.216701,0.192625 0.232545,0.173166 0.246647,0.152409 0.258902,0.130512 0.269217,0.107636 0.277516,0.0839548 z "/>
</g></g></svg>
