<?xml version="1.0" encoding="UTF-8" standalone="no"?>
<!DOCTYPE svg PUBLIC "-//W3C//DTD SVG 1.1//EN" "http://www.w3.org/Graphics/SVG/1.1/DTD/svg11-flat.dtd"
[

]>
<svg xmlns="http://www.w3.org/2000/svg"  viewBox="-0.125044 -0.125044 10.2536 14.7519"><g fill="none" stroke="black" stroke-width="0.0125" transform="translate(0,14.5018) scale(1, -1)">
<g id="Output" >
<path fill="rgb(241,240,234)" stroke="rgb(241,240,234)" d="M 3.50812,4.90089 l 0,-0.403348 1,0 0,0.403348 -1,0 z "/>
<path fill="rgb(241,240,234)" stroke="rgb(241,240,234)" d="M 3.50812,3.49754 l 1,0 0,1 -1,0 0,-1 z "/>
<path fill="rgb(241,240,234)" stroke="rgb(241,240,234)" d="M 3.50812,2.49754 l 1,0 0,1 -1,0 0,-1 z "/>
<path fill="rgb(241,240,234)" stroke="rgb(241,240,234)" d="M 3.50812,1.49754 l 1,0 0,1 -1,0 0,-1 z "/>
<path fill="rgb(241,240,234)" stroke="rgb(241,240,234)" d="M 3.50812,0.497542 l 1,0 0,1 -1,0 0,-1 z "/>
<path fill="rgb(241,240,234)" stroke="rgb(241,240,234)" d="M 2.50812,4.90089 l 0,-0.357804 0.0192552,-0.00641626 0.0495278,-0.0217357 0.0314268,-0.0173916 0.165475,0 0.0421994,0.0492199 0.198919,0 0,-0.0492199 0.493197,0 0,0.403348 -1,0 z "/>
<path fill="rgb(241,240,234)" stroke="rgb(241,240,234)" d="M 3.01492,4.49754 l 0,-1 0.493197,0 0,1 -0.493197,0 z M 2.7738,4.49754 l -0.165475,0 0.0158973,-0.00879754 0.044721,-0.0304216 0.0417405,-0.0343973 0.0631161,0.0736164 z "/>
<path fill="rgb(241,240,234)" stroke="rgb(241,240,234)" d="M 2.50812,2.79163 l 0,-0.294088 1,0 0,1 -0.493197,0 0,-0.705912 -0.506803,0 z "/>
<path fill="rgb(241,240,234)" stroke="rgb(241,240,234)" d="M 2.50812,1.49754 l 1,0 0,1 -1,0 0,-1 z "/>
<path fill="rgb(241,240,234)" stroke="rgb(241,240,234)" d="M 2.50812,0.497542 l 1,0 0,1 -1,0 0,-1 z "/>
<path fill="rgb(241,240,234)" stroke="rgb(241,240,234)" d="M 1.50812,7.49754 l 0.143653,0 0,0.753348 -0.143653,0 0,-0.753348 z "/>
<path fill="rgb(241,240,234)" stroke="rgb(241,240,234)" d="M 6.50812,3.49754 l 1,0 0,1 -1,0 0,-1 z "/>
<path fill="rgb(241,240,234)" stroke="rgb(241,240,234)" d="M 8.50812,4.49754 l 1,0 0,1 -1,0 0,-1 z "/>
<path fill="rgb(241,240,234)" stroke="rgb(241,240,234)" d="M 8.50812,5.49754 l 1,0 0,1 -1,0 0,-1 z "/>
<path fill="rgb(241,240,234)" stroke="rgb(241,240,234)" d="M 9.51129,1.49754 l 0,1 -0.00317767,0 0,-1 0.00317767,0 z "/>
<path fill="rgb(241,240,234)" stroke="rgb(241,240,234)" d="M 9.51129,2.49754 l 0,1 -0.00317767,0 0,-1 0.00317767,0 z "/>
<path fill="rgb(241,240,234)" stroke="rgb(241,240,234)" d="M 9.51129,3.49754 l 0,1 -0.00317767,0 0,-1 0.00317767,0 z "/>
<path fill="rgb(241,240,234)" stroke="rgb(241,240,234)" d="M 9.51129,4.49754 l 0,1 -0.00317767,0 0,-1 0.00317767,0 z "/>
<path fill="rgb(241,240,234)" stroke="rgb(241,240,234)" d="M 8.50812,6.49754 l 1,0 0,1 -1,0 0,-1 z "/>
<path fill="rgb(241,240,234)" stroke="rgb(241,240,234)" d="M 8.50812,8.25089 l 0,-0.753348 1,0 0,0.753348 -1,0 z "/>
<path fill="rgb(241,240,234)" stroke="rgb(241,240,234)" d="M 8.50812,3.49754 l 1,0 0,1 -1,0 0,-1 z "/>
<path fill="rgb(241,240,234)" stroke="rgb(241,240,234)" d="M 8.50812,2.49754 l 1,0 0,1 -1,0 0,-1 z "/>
<path fill="rgb(241,240,234)" stroke="rgb(241,240,234)" d="M 9.51129,5.49754 l 0,1 -0.00317767,0 0,-1 0.00317767,0 z "/>
<path fill="rgb(241,240,234)" stroke="rgb(241,240,234)" d="M 1.50812,0.497542 l 0,1 -1,0 0,-0.7375 0.000998892,-0.0228784 0.00298907,-0.0227043 0.00495651,-0.0223574 0.00688622,-0.0218403 0.00876352,-0.021157 0.0105741,-0.0203127 0.0123043,-0.0193138 0.0139407,-0.0181679 0.0154711,-0.0168838 0.0168838,-0.0154711 0.0181679,-0.0139407 0.0193138,-0.0123043 0.0203127,-0.0105741 0.021157,-0.00876352 0.0218403,-0.00688622 0.0223574,-0.00495651 0.0227043,-0.00298907 0.0228784,-0.000998892 0.7375,0 z "/>
<path fill="rgb(241,240,234)" stroke="rgb(241,240,234)" d="M 0.508116,1.49754 l 1,0 0,1 -1,0 0,-1 z "/>
<path fill="rgb(241,240,234)" stroke="rgb(241,240,234)" d="M 0.508116,2.49754 l 1,0 0,1 -1,0 0,-1 z "/>
<path fill="rgb(241,240,234)" stroke="rgb(241,240,234)" d="M 0.508116,3.49754 l 1,0 0,1 -1,0 0,-1 z "/>
<path fill="rgb(241,240,234)" stroke="rgb(241,240,234)" d="M 0.508116,4.49754 l 1,0 0,1 -1,0 0,-1 z "/>
<path fill="rgb(241,240,234)" stroke="rgb(241,240,234)" d="M 8.50812,1.49754 l 1,0 0,1 -1,0 0,-1 z "/>
<path fill="rgb(241,240,234)" stroke="rgb(241,240,234)" d="M 8.50812,1.49754 l 0,-1 0.740678,8.88178e-15 0.0228784,0.000998892 0.0227043,0.00298907 0.0223574,0.00495651 0.0218403,0.00688622 0.021157,0.00876352 0.0203127,0.0105741 0.0193138,0.0123043 0.0181679,0.0139407 0.0168838,0.0154711 0.0154711,0.0168838 0.0139407,0.0181679 0.0123043,0.0193138 0.0105741,0.0203127 0.00876352,0.021157 0.00688622,0.0218403 0.00495651,0.0223574 0.000810295,0.0061548 0,0.776928 -1,0 z "/>
<path fill="rgb(241,240,234)" stroke="rgb(241,240,234)" d="M 8.35177,7.49754 l 0.156347,0 0,0.753348 -0.156347,0 0,-0.753348 z "/>
<path fill="rgb(241,240,234)" stroke="rgb(241,240,234)" d="M 8.35177,6.49754 l 0.156347,0 0,1 -0.156347,0 0,-1 z "/>
<path fill="rgb(241,240,234)" stroke="rgb(241,240,234)" d="M 8.35177,5.49754 l 0.156347,0 0,1 -0.156347,0 0,-1 z "/>
<path fill="rgb(241,240,234)" stroke="rgb(241,240,234)" d="M 7.50812,4.90089 l 0,-0.403348 1,0 0,1 -0.156347,0 0,-0.296652 -0.00114159,-0.0261467 -0.00341608,-0.0259477 -0.00566458,-0.0255513 -0.00786996,-0.0249603 -0.0100155,-0.0241794 -0.0120847,-0.0232145 -0.014062,-0.0220729 -0.0159323,-0.0207634 -0.0176813,-0.0192958 -0.0192958,-0.0176813 -0.0207634,-0.0159323 -0.0220729,-0.014062 -0.0232145,-0.0120847 -0.0241794,-0.0100155 -0.0249603,-0.00786996 -0.0255513,-0.00566458 -0.0259477,-0.00341608 -0.0261467,-0.00114159 -0.543653,0 z "/>
<path fill="rgb(241,240,234)" stroke="rgb(241,240,234)" d="M 7.50812,3.49754 l 1,0 0,1 -1,0 0,-1 z "/>
<path fill="rgb(241,240,234)" stroke="rgb(241,240,234)" d="M 7.50812,2.49754 l 1,0 0,1 -1,0 0,-1 z "/>
<path fill="rgb(241,240,234)" stroke="rgb(241,240,234)" d="M 7.50812,1.49754 l 1,0 0,1 -1,0 0,-1 z "/>
<path fill="rgb(241,240,234)" stroke="rgb(241,240,234)" d="M 7.50812,0.497542 l 1,0 0,1 -1,0 0,-1 z "/>
<path fill="rgb(241,240,234)" stroke="rgb(241,240,234)" d="M 9.50812,7.49754 l 0.00317767,0 0,0.753348 -0.00317767,0 0,-0.753348 z "/>
<path fill="rgb(241,240,234)" stroke="rgb(241,240,234)" d="M 0.508116,5.49754 l 1,0 0,1 -1,0 0,-1 z "/>
<path fill="rgb(241,240,234)" stroke="rgb(241,240,234)" d="M 0.508116,6.49754 l 1,0 0,1 -1,0 0,-1 z "/>
<path fill="rgb(241,240,234)" stroke="rgb(241,240,234)" d="M 0.508116,7.49754 l 1,0 0,0.753348 -1,0 0,-0.753348 z "/>
<path fill="rgb(241,240,234)" stroke="rgb(241,240,234)" d="M 1.50812,0.497542 l 1,0 0,1 -1,0 0,-1 z "/>
<path fill="rgb(241,240,234)" stroke="rgb(241,240,234)" d="M 1.50812,1.49754 l 1,0 0,1 -1,0 0,-1 z "/>
<path fill="rgb(241,240,234)" stroke="rgb(241,240,234)" d="M 1.65177,3.49754 l -0.143653,0 0,-1 1,0 0,0.294088 -0.856347,0 0,0.705912 z "/>
<path fill="rgb(241,240,234)" stroke="rgb(241,240,234)" d="M 1.8718,4.49754 l 0.0490919,-0.0736164 0.0417405,0.0343973 0.044721,0.0304216 0.0158973,0.00879754 -0.151451,0 z M 1.65177,3.49754 l 0,1 -0.143653,0 0,-1 0.143653,0 z "/>
<path fill="rgb(241,240,234)" stroke="rgb(241,240,234)" d="M 1.65177,5.49754 l -0.143653,0 0,-1 0.143653,0 0,0.0492199 0.187206,0 0.0328228,-0.0492199 0.151451,0 0.0314268,0.0173916 0.0495278,0.0217357 0.0513135,0.0170987 0.0526661,0.0123175 0.0535743,0.00743234 0.0540303,0.00248444 0.0540303,-0.00248444 0.0535743,-0.00743234 0.0526661,-0.0123175 0.0320582,-0.0106825 0,0.357804 -0.556347,0 -0.0261467,0.00114159 -0.0259477,0.00341608 -0.0255513,0.00566458 -0.0249603,0.00786996 -0.0241794,0.0100155 -0.0232145,0.0120847 -0.0220729,0.014062 -0.0207634,0.0159323 -0.0192958,0.0176813 -0.0176813,0.0192958 -0.0159323,0.0207634 -0.014062,0.0220729 -0.0120847,0.0232145 -0.0100155,0.0241794 -0.00786996,0.0249603 -0.00566458,0.0255513 -0.00341608,0.0259477 -0.00114159,0.0261467 0,0.296652 z "/>
<path fill="rgb(241,240,234)" stroke="rgb(241,240,234)" d="M 1.65177,5.49754 l 0,1 -0.143653,0 0,-1 0.143653,0 z "/>
<path fill="rgb(241,240,234)" stroke="rgb(241,240,234)" d="M 9.51129,6.49754 l 1.77636e-15,1 -0.00317767,0 0,-1 0.00317767,0 z "/>
<path fill="rgb(241,240,234)" stroke="rgb(241,240,234)" d="M 1.65177,6.49754 l -4.44089e-16,1 -0.143653,0 0,-1 0.143653,0 z "/>
<path fill="rgb(241,240,234)" stroke="rgb(241,240,234)" d="M 6.50812,4.90089 l 0,-0.403348 1,0 0,0.403348 -1,0 z "/>
<path fill="rgb(241,240,234)" stroke="rgb(241,240,234)" d="M 6.50812,2.49754 l 1,0 0,1 -1,0 0,-1 z "/>
<path fill="rgb(241,240,234)" stroke="rgb(241,240,234)" d="M 6.50812,1.49754 l 1,0 0,1 -1,0 0,-1 z "/>
<path fill="rgb(241,240,234)" stroke="rgb(241,240,234)" d="M 6.50812,0.497542 l 1,0 0,1 -1,0 0,-1 z "/>
<path fill="rgb(241,240,234)" stroke="rgb(241,240,234)" d="M 5.50812,4.90089 l 0,-0.403348 1,0 0,0.403348 -1,0 z "/>
<path fill="rgb(241,240,234)" stroke="rgb(241,240,234)" d="M 5.50812,3.49754 l 1,0 0,1 -1,0 0,-1 z "/>
<path fill="rgb(241,240,234)" stroke="rgb(241,240,234)" d="M 5.50812,2.49754 l 1,0 0,1 -1,0 0,-1 z "/>
<path fill="rgb(241,240,234)" stroke="rgb(241,240,234)" d="M 5.50812,1.49754 l 1,0 0,1 -1,0 0,-1 z "/>
<path fill="rgb(241,240,234)" stroke="rgb(241,240,234)" d="M 5.50812,0.497542 l 1,0 0,1 -1,0 0,-1 z "/>
<path fill="rgb(241,240,234)" stroke="rgb(241,240,234)" d="M 4.50812,4.90089 l 0,-0.403348 1,0 0,0.403348 -1,0 z "/>
<path fill="rgb(241,240,234)" stroke="rgb(241,240,234)" d="M 4.50812,3.49754 l 1,0 0,1 -1,0 0,-1 z "/>
<path fill="rgb(241,240,234)" stroke="rgb(241,240,234)" d="M 4.50812,2.49754 l 1,0 0,1 -1,0 0,-1 z "/>
<path fill="rgb(241,240,234)" stroke="rgb(241,240,234)" d="M 4.50812,1.49754 l 1,0 0,1 -1,0 0,-1 z "/>
<path fill="rgb(241,240,234)" stroke="rgb(241,240,234)" d="M 4.50812,0.497542 l 1,0 0,1 -1,0 0,-1 z "/>
<path fill="rgb(241,240,234)" stroke="rgb(241,240,234)" d="M 9.50812,1.49754 l 0,-0.776928 0.00217878,0.0165495 0.000998892,0.0228784 0,0.7375 -0.00317767,0 z "/>
<path fill="rgb(241,240,234)" stroke="rgb(241,240,234)" d="M 1.96184,4.40636 l 0.351024,0 0.351024,0 -0.0382379,0.0279479 -0.0404518,0.0246349 -0.0423793,0.0211475 -0.0440069,0.0175104 -0.045323,0.0137494 -0.0463183,0.00989114 -0.0469858,0.00596283 -0.0473208,0.00199231 -0.0473208,-0.00199231 -0.0469858,-0.00596283 -0.0463183,-0.00989114 -0.045323,-0.0137494 -0.0440069,-0.0175104 -0.0423793,-0.0211475 -0.0404518,-0.0246349 -0.0382379,-0.0279479 z "/>
<path fill="rgb(241,240,234)" stroke="rgb(241,240,234)" d="M 2.41233,3.86226 l -0.0965432,0 -0.0965432,0 0.0994594,-0.187206 0.093627,0.187206 z "/>
<path fill="rgb(241,240,234)" stroke="rgb(241,240,234)" d="M 2.71069,3.41176 l -0.210607,0.198919 -0.0106919,-0.0155903 -0.0119669,-0.0146344 -0.0131569,-0.0135746 -0.0142534,-0.0124183 -0.0152486,-0.0111738 -0.0161355,-0.00984991 -0.0169077,-0.00845602 -0.0175598,-0.00700204 -0.0180871,-0.0054983 -0.0184859,-0.00395551 -0.0187533,-0.0023846 -0.0188875,-0.000796754 -0.0188875,0.000796754 -0.0187533,0.0023846 -0.0184859,0.00395551 -0.0180871,0.0054983 -0.0175598,0.00700204 -0.0169077,0.00845602 -0.0161355,0.00984991 -0.0152486,0.0111738 -0.0142534,0.0124183 -0.0131569,0.0135746 -0.0119669,0.0146344 -0.0106919,0.0155903 -0.204775,-0.198919 0.0368077,-0.0318812 0.0393521,-0.0286815 0.0416192,-0.0252797 0.0435929,-0.0216997 0.0452594,-0.0179667 0.0466069,-0.0141072 0.0476259,-0.0101482 0.0483093,-0.00611765 0.0486522,-0.00204402 0.0486522,0.00204402 0.0483093,0.00611765 0.0476259,0.0101482 0.0466069,0.0141072 0.0452594,0.0179667 0.0435929,0.0216997 0.0416192,0.0252797 0.0393521,0.0286815 0.0368077,0.0318812 z "/>
<path fill="rgb(241,240,234)" stroke="rgb(241,240,234)" d="M 2.31287,3.06658 l 0,0.0526578 0.0292331,0 0.00229471,-0.000100189 0.00227725,-0.000299805 0.00224245,-0.00049714 0.00219059,-0.000690691 0.00212206,-0.000878985 0.00203737,-0.00106059 0.00193719,-0.00123412 0.00182225,-0.00139826 0.00169345,-0.00155176 0.00155176,-0.00169345 0.00139826,-0.00182225 0.00123412,-0.00193719 0.00106059,-0.00203737 0.000878985,-0.00212206 0.000690691,-0.00219059 0.00049714,-0.00224245 0.000299805,-0.00227725 0.000100189,-0.00229471 -0.000100189,-0.00229471 -0.000299805,-0.00227725 -0.00049714,-0.00224245 -0.000690691,-0.00219059 -0.000878985,-0.00212206 -0.00106059,-0.00203737 -0.00123412,-0.00193719 -0.00139826,-0.00182225 -0.00155176,-0.00169345 -0.00169345,-0.00155176 -0.00182225,-0.00139826 -0.00193719,-0.00123412 -0.00203737,-0.00106059 -0.00212206,-0.000878985 -0.00219059,-0.000690691 -0.00224245,-0.00049714 -0.00227725,-0.000299805 -0.00229471,-0.000100189 -4.38405e-12,0 -0.0292331,0 z M 2.28947,3.14267 l 0,-0.169686 0.0234008,0 0,0.0702262 0.0292331,0 0.00433423,0.000189236 0.00430124,0.000566269 0.00423552,0.000938992 0.00413756,0.00130457 0.00400812,0.00166022 0.00384817,0.00200323 0.00365893,0.002331 0.00344185,0.00264102 0.00319857,0.00293095 0.00293095,0.00319857 0.00264102,0.00344185 0.002331,0.00365893 0.00200323,0.00384817 0.00166022,0.00400812 0.00130457,0.00413756 0.000938992,0.00423552 0.000566269,0.00430124 0.000189236,0.00433423 -0.000189236,0.00433423 -0.000566269,0.00430124 -0.000938992,0.00423552 -0.00130457,0.00413756 -0.00166022,0.00400812 -0.00200323,0.00384817 -0.002331,0.00365893 -0.00264102,0.00344185 -0.00293095,0.00319857 -0.00319857,0.00293095 -0.00344185,0.00264102 -0.00365893,0.002331 -0.00384817,0.00200323 -0.00400812,0.00166022 -0.00413756,0.00130457 -0.00423552,0.000938992 -0.00430124,0.000566269 -0.00433423,0.000189236 -0.052634,0 z "/>
<path fill="rgb(241,240,234)" stroke="rgb(241,240,234)" d="M 2.3421,3.11924 l 0.00229471,-0.000100189 0.00227725,-0.000299805 0.00224245,-0.00049714 0.00219059,-0.000690691 0.00212206,-0.000878985 0.00203737,-0.00106059 0.00193719,-0.00123412 0.00182225,-0.00139826 0.00169345,-0.00155176 0.00155176,-0.00169345 0.00139826,-0.00182225 0.00123412,-0.00193719 0.00106059,-0.00203737 0.000878985,-0.00212206 0.000690691,-0.00219059 0.00049714,-0.00224245 0.000299805,-0.00227725 0.000100189,-0.00229471 -0.000100189,-0.00229471 -0.000299805,-0.00227725 -0.00049714,-0.00224245 -0.000690691,-0.00219059 -0.000878985,-0.00212206 -0.00106059,-0.00203737 -0.00123412,-0.00193719 -0.00139826,-0.00182225 -0.00155176,-0.00169345 -0.00169345,-0.00155176 -0.00182225,-0.00139826 -0.00193719,-0.00123412 -0.00203737,-0.00106059 -0.00212206,-0.000878985 -0.00219059,-0.000690691 -0.00224245,-0.00049714 -0.00227725,-0.000299805 -0.00229471,-0.000100189 0.00229471,0.000100189 0.00227725,0.000299805 0.00224245,0.00049714 0.00219059,0.000690691 0.00212206,0.000878985 0.00203737,0.00106059 0.00193719,0.00123412 0.00182225,0.00139826 0.00169345,0.00155176 0.00155176,0.00169345 0.00139826,0.00182225 0.00123412,0.00193719 0.00106059,0.00203737 0.000878985,0.00212206 0.000690691,0.00219059 0.00049714,0.00224245 0.000299805,0.00227725 0.000100189,0.00229471 -0.000100189,0.00229471 -0.000299805,0.00227725 -0.00049714,0.00224245 -0.000690691,0.00219059 -0.000878985,0.00212206 -0.00106059,0.00203737 -0.00123412,0.00193719 -0.00139826,0.00182225 -0.00155176,0.00169345 -0.00169345,0.00155176 -0.00182225,0.00139826 -0.00193719,0.00123412 -0.00203737,0.00106059 -0.00212206,0.000878985 -0.00219059,0.000690691 -0.00224245,0.00049714 -0.00227725,0.000299805 -0.00229471,0.000100189 z "/>
<path fill="rgb(241,240,234)" stroke="rgb(241,240,234)" d="M 9.51129,8.25089 l -1.77636e-15,5.48553 -0.000998892,0.0228784 -0.00298907,0.0227043 -0.00495651,0.0223574 -0.00688622,0.0218403 -0.00876352,0.021157 -0.0105741,0.0203127 -0.0123043,0.0193138 -0.0139407,0.0181679 -0.0154711,0.0168838 -0.0168838,0.0154711 -0.0181679,0.0139407 -0.0193138,0.0123043 -0.0203127,0.0105741 -0.021157,0.00876352 -0.0218403,0.00688622 -0.0223574,0.00495651 -0.0227043,0.00298907 -0.0228784,0.000998892 -8.47818,-8.88178e-15 -0.0228784,-0.000998892 -0.0227043,-0.00298907 -0.0223574,-0.00495651 -0.0218403,-0.00688622 -0.021157,-0.00876352 -0.0203127,-0.0105741 -0.0193138,-0.0123043 -0.0181679,-0.0139407 -0.0168838,-0.0154711 -0.0154711,-0.0168838 -0.0139407,-0.0181679 -0.0123043,-0.0193138 -0.0105741,-0.0203127 -0.00876352,-0.021157 -0.00688622,-0.0218403 -0.00495651,-0.0223574 -0.00298907,-0.0227043 -0.000998892,-0.0228784 0,-5.48553 1.14365,0 -4.44089e-16,3.05 0.00114159,0.0261467 0.00341608,0.0259477 0.00566458,0.0255513 0.00786996,0.0249603 0.0100155,0.0241794 0.0120847,0.0232145 0.014062,0.0220729 0.0159323,0.0207634 0.0176813,0.0192958 0.0192958,0.0176813 0.0207634,0.0159323 0.0220729,0.014062 0.0232145,0.0120847 0.0241794,0.0100155 0.0249603,0.00786996 0.0255513,0.00566458 0.0259477,0.00341608 0.0261467,0.00114159 6.1,0 0.0261467,-0.00114159 0.0259477,-0.00341608 0.0255513,-0.00566458 0.0249603,-0.00786996 0.0241794,-0.0100155 0.0232145,-0.0120847 0.0220729,-0.014062 0.0207634,-0.0159323 0.0192958,-0.0176813 0.0176813,-0.0192958 0.0159323,-0.0207634 0.014062,-0.0220729 0.0120847,-0.0232145 0.0100155,-0.0241794 0.00786996,-0.0249603 0.00566458,-0.0255513 0.00341608,-0.0259477 0.00114159,-0.0261467 0,-3.05 1.15953,0 z "/>
<path fill="rgb(0,91,140)" stroke="rgb(0,91,140)" d="M 2.71069,3.41176 l -0.0368077,-0.0318812 -0.0393521,-0.0286815 -0.0416192,-0.0252797 -0.0435929,-0.0216997 -0.0452594,-0.0179667 -0.0466069,-0.0141072 -0.0476259,-0.0101482 -0.0483093,-0.00611765 -0.0486522,-0.00204402 -0.0233889,-0.111172 0.052634,0 0.00433423,-0.000189236 0.00430124,-0.000566269 0.00423552,-0.000938992 0.00413756,-0.00130457 0.00400812,-0.00166022 0.00384817,-0.00200323 0.00365893,-0.002331 0.00344185,-0.00264102 0.00319857,-0.00293095 0.00293095,-0.00319857 0.00264102,-0.00344185 0.002331,-0.00365893 0.00200323,-0.00384817 0.00166022,-0.00400812 0.00130457,-0.00413756 0.000938992,-0.00423552 0.000566269,-0.00430124 0.000189236,-0.00433423 -0.000189236,-0.00433423 -0.000566269,-0.00430124 -0.000938992,-0.00423552 -0.00130457,-0.00413756 -0.00166022,-0.00400812 -0.00200323,-0.00384817 -0.002331,-0.00365893 -0.00264102,-0.00344185 -0.00293095,-0.00319857 -0.00319857,-0.00293095 -0.00344185,-0.00264102 -0.00365893,-0.002331 -0.00384817,-0.00200323 -0.00400812,-0.00166022 -0.00413756,-0.00130457 -0.00423552,-0.000938992 -0.00430124,-0.000566269 -0.00433423,-0.000189236 -0.0292331,0 0,-0.0702262 0.702048,-0.18135 0,1.75513 -0.198919,0 -0.105316,-0.122836 -0.0417405,0.0343973 -0.044721,0.0304216 -0.0473241,0.0261891 -0.0495278,0.0217357 -0.0513135,0.0170987 -0.0526661,0.0123175 -0.0535743,0.00743234 -0.0540303,0.00248444 -0.00292808,-0.0468088 0.0473208,-0.00199231 0.0469858,-0.00596283 0.0463183,-0.00989114 0.045323,-0.0137494 0.0440069,-0.0175104 0.0423793,-0.0211475 0.0404518,-0.0246349 0.0382379,-0.0279479 -0.351024,0 0.00292808,-0.544098 0.0965432,0 -0.093627,-0.187206 -0.00876042,-0.169705 0.0188875,0.000796754 0.0187533,0.0023846 0.0184859,0.00395551 0.0180871,0.0054983 0.0175598,0.00700204 0.0169077,0.00845602 0.0161355,0.00984991 0.0152486,0.0111738 0.0142534,0.0124183 0.0131569,0.0135746 0.0119669,0.0146344 0.0106919,0.0155903 0.210607,-0.198919 z "/>
<path fill="rgb(0,91,140)" stroke="rgb(0,91,140)" d="M 2.31287,3.06658 l 0.0292331,0 4.38405e-12,0 0.00229471,0.000100189 0.00227725,0.000299805 0.00224245,0.00049714 0.00219059,0.000690691 0.00212206,0.000878985 0.00203737,0.00106059 0.00193719,0.00123412 0.00182225,0.00139826 0.00169345,0.00155176 0.00155176,0.00169345 0.00139826,0.00182225 0.00123412,0.00193719 0.00106059,0.00203737 0.000878985,0.00212206 0.000690691,0.00219059 0.00049714,0.00224245 0.000299805,0.00227725 0.000100189,0.00229471 -0.000100189,0.00229471 -0.000299805,0.00227725 -0.00049714,0.00224245 -0.000690691,0.00219059 -0.000878985,0.00212206 -0.00106059,0.00203737 -0.00123412,0.00193719 -0.00139826,0.00182225 -0.00155176,0.00169345 -0.00169345,0.00155176 -0.00182225,0.00139826 -0.00193719,0.00123412 -0.00203737,0.00106059 -0.00212206,0.000878985 -0.00219059,0.000690691 -0.00224245,0.00049714 -0.00227725,0.000299805 -0.00229471,0.000100189 -0.0292331,0 0,-0.0526578 z "/>
<path fill="rgb(0,91,140)" stroke="rgb(0,91,140)" d="M 2.28947,3.14267 l 0.0233889,0.111172 -0.0486522,0.00204402 -0.0483093,0.00611765 -0.0476259,0.0101482 -0.0466069,0.0141072 -0.0452594,0.0179667 -0.0435929,0.0216997 -0.0416192,0.0252797 -0.0393521,0.0286815 -0.0368077,0.0318812 0.204775,0.198919 0.0106919,-0.0155903 0.0119669,-0.0146344 0.0131569,-0.0135746 0.0142534,-0.0124183 0.0152486,-0.0111738 0.0161355,-0.00984991 0.0169077,-0.00845602 0.0175598,-0.00700204 0.0180871,-0.0054983 0.0184859,-0.00395551 0.0187533,-0.0023846 0.0188875,-0.000796754 0.00876042,0.169705 -0.0994594,0.187206 0.0965432,0 -0.00292808,0.544098 -0.351024,0 0.0382379,0.0279479 0.0404518,0.0246349 0.0423793,0.0211475 0.0440069,0.0175104 0.045323,0.0137494 0.0463183,0.00989114 0.0469858,0.00596283 0.0473208,0.00199231 0.00292808,0.0468088 -0.0540303,-0.00248444 -0.0535743,-0.00743234 -0.0526661,-0.0123175 -0.0513135,-0.0170987 -0.0495278,-0.0217357 -0.0473241,-0.0261891 -0.044721,-0.0304216 -0.0417405,-0.0343973 -0.0819147,0.122836 -0.187206,0 0,-1.75513 1.36315,0 -0.702048,0.18135 -0.0234008,0 0,0.169686 z "/>
<path fill="rgb(0,91,140)" stroke="rgb(0,91,140)" d="M 1.65177,11.3009 l 4.44089e-16,-3.05 4.44089e-16,-3.05 0.00114159,-0.0261467 0.00341608,-0.0259477 0.00566458,-0.0255513 0.00786996,-0.0249603 0.0100155,-0.0241794 0.0120847,-0.0232145 0.014062,-0.0220729 0.0159323,-0.0207634 0.0176813,-0.0192958 0.0192958,-0.0176813 0.0207634,-0.0159323 0.0220729,-0.014062 0.0232145,-0.0120847 0.0241794,-0.0100155 0.0249603,-0.00786996 0.0255513,-0.00566458 0.0259477,-0.00341608 0.0261467,-0.00114159 6.1,0 0.0261467,0.00114159 0.0259477,0.00341608 0.0255513,0.00566458 0.0249603,0.00786996 0.0241794,0.0100155 0.0232145,0.0120847 0.0220729,0.014062 0.0207634,0.0159323 0.0192958,0.0176813 0.0176813,0.0192958 0.0159323,0.0207634 0.014062,0.0220729 0.0120847,0.0232145 0.0100155,0.0241794 0.00786996,0.0249603 0.00566458,0.0255513 0.00341608,0.0259477 0.00114159,0.0261467 0,3.05 0,3.05 -0.00114159,0.0261467 -0.00341608,0.0259477 -0.00566458,0.0255513 -0.00786996,0.0249603 -0.0100155,0.0241794 -0.0120847,0.0232145 -0.014062,0.0220729 -0.0159323,0.0207634 -0.0176813,0.0192958 -0.0192958,0.0176813 -0.0207634,0.0159323 -0.0220729,0.014062 -0.0232145,0.0120847 -0.0241794,0.0100155 -0.0249603,0.00786996 -0.0255513,0.00566458 -0.0259477,0.00341608 -0.0261467,0.00114159 -6.1,0 -0.0261467,-0.00114159 -0.0259477,-0.00341608 -0.0255513,-0.00566458 -0.0249603,-0.00786996 -0.0241794,-0.0100155 -0.0232145,-0.0120847 -0.0220729,-0.014062 -0.0207634,-0.0159323 -0.0192958,-0.0176813 -0.0176813,-0.0192958 -0.0159323,-0.0207634 -0.014062,-0.0220729 -0.0120847,-0.0232145 -0.0100155,-0.0241794 -0.00786996,-0.0249603 -0.00566458,-0.0255513 -0.00341608,-0.0259477 -0.00114159,-0.0261467 z "/>
<path fill="rgb(241,240,234)" stroke="rgb(241,240,234)" d="M 10.0035,8.25089 l -0.229744,0 0,-7.49085 -0.00199778,-0.0457568 -0.00597815,-0.0454085 -0.00991301,-0.0447147 -0.0137724,-0.0436806 -0.017527,-0.042314 -0.0211483,-0.0406254 -0.0246085,-0.0386276 -0.0278815,-0.0363359 -0.0309423,-0.0337676 -0.0337676,-0.0309423 -0.0363359,-0.0278815 -0.0386276,-0.0246085 -0.0406254,-0.0211483 -0.042314,-0.017527 -0.0436806,-0.0137724 -0.0447147,-0.00991301 -0.0454085,-0.00597815 -0.0457568,-0.00199778 -8.47818,-7.10543e-15 -0.0457568,0.00199778 -0.0454085,0.00597815 -0.0447147,0.00991301 -0.0436806,0.0137724 -0.042314,0.017527 -0.0406254,0.0211483 -0.0386276,0.0246085 -0.0363359,0.0278815 -0.0337676,0.0309423 -0.0309423,0.0337676 -0.0278815,0.0363359 -0.0246085,0.0386276 -0.0211483,0.0406254 -0.017527,0.042314 -0.0137724,0.0436806 -0.00991301,0.0447147 -0.00597815,0.0454085 -0.00199778,0.0457568 0,7.49085 -0.245616,0 0,-8.25089 10.0035,3.55271e-15 -1.77636e-15,8.25089 z "/>
<path fill="rgb(241,240,234)" stroke="rgb(241,240,234)" d="M 10.0035,8.25089 l -1.77636e-15,6.25089 -10.0035,0 0,-6.25089 0.245616,0 0,5.48553 0.00199778,0.0457568 0.00597815,0.0454085 0.00991301,0.0447147 0.0137724,0.0436806 0.017527,0.042314 0.0211483,0.0406254 0.0246085,0.0386276 0.0278815,0.0363359 0.0309423,0.0337676 0.0337676,0.0309423 0.0363359,0.0278815 0.0386276,0.0246085 0.0406254,0.0211483 0.042314,0.017527 0.0436806,0.0137724 0.0447147,0.00991301 0.0454085,0.00597815 0.0457568,0.00199778 8.47818,1.06581e-14 0.0457568,-0.00199778 0.0454085,-0.00597815 0.0447147,-0.00991301 0.0436806,-0.0137724 0.042314,-0.017527 0.0406254,-0.0211483 0.0386276,-0.0246085 0.0363359,-0.0278815 0.0337676,-0.0309423 0.0309423,-0.0337676 0.0278815,-0.0363359 0.0246085,-0.0386276 0.0211483,-0.0406254 0.017527,-0.042314 0.0137724,-0.0436806 0.00991301,-0.0447147 0.00597815,-0.0454085 0.00199778,-0.0457568 1.77636e-15,-5.48553 0.229744,0 z "/>
<path fill="rgb(241,240,234)" stroke="rgb(241,240,234)" d="M 5.62268,11.003 l -2.56453,0 0,-5.49947 1.00228,0 0,2.1549 1.56225,0 0.185204,0.00653661 0.228781,0.0239676 0.209171,0.0435774 0.189562,0.0610083 0.172131,0.082797 0.017431,0.00871548 0.180846,0.122017 0.159057,0.139448 0.139448,0.159057 0.119838,0.178667 0.00871548,0.017431 -3.17243,0.143805 0,1.37051 1.60147,0 1.64505,0.0283253 -0.0958703,0.172131 -0.117659,0.156879 -0.141627,0.145984 -0.163415,0.130732 -0.189562,0.119838 -0.132911,0.0653661 -0.191741,0.0740816 -0.204814,0.0522929 -0.217887,0.0305042 -0.228781,0.0108943 z "/>
<path fill="rgb(241,240,234)" stroke="rgb(241,240,234)" d="M 7.30695,10.0443 l -1.64505,-0.0283253 0.226602,-0.0196098 0.198277,-0.0610083 0.159057,-0.104586 0.106765,-0.11548 0.0893336,-0.183025 0.0283253,-0.213529 -0.0130732,-0.148163 -0.0740816,-0.189562 -0.137269,-0.152521 -0.159057,-0.0980491 -0.198277,-0.0631872 -0.226602,-0.0217887 -1.60147,0 3.17243,-0.143805 0.0980491,0.198277 0.0697238,0.202635 0.0413985,0.206993 0.0152521,0.209171 -0.00435774,0.130732 -0.0261464,0.21135 -0.0479351,0.198277 -0.0719027,0.185204 z "/>
<path fill="rgb(42,41,42)" stroke="rgb(42,41,42)" d="M 6.92565,13.4651 l -0.729921,0 0,-1.0001 0.745173,0 0,0.180846 -0.564327,0 0,0.272359 0.298505,0 0,0.180846 -0.298505,0 0,0.187383 0.549075,0 0,0.178667 z "/>
<path fill="rgb(42,41,42)" stroke="rgb(42,41,42)" d="M 5.93644,13.4651 l -0.172131,0 0,-0.660197 0.017431,-0.339904 0.1547,0 0,1.0001 z "/>
<path fill="rgb(42,41,42)" stroke="rgb(42,41,42)" d="M 5.30457,13.4651 l 0,-0.311578 0.477172,-0.688523 -0.017431,0.339904 -0.459741,0.660197 z "/>
<path fill="rgb(42,41,42)" stroke="rgb(42,41,42)" d="M 5.30457,13.4651 l -0.17431,0 0,-1.0001 0.17431,0 0,0.688523 0,0.311578 z "/>
<path fill="rgb(42,41,42)" stroke="rgb(42,41,42)" d="M 4.48531,13.4825 l -0.067545,-0.00435774 -0.0936914,-0.0239676 -0.0806182,-0.0457563 -0.0697238,-0.0631872 -0.00435774,-0.00871548 0.315936,-0.032683 0.0152521,0 0.0915125,-0.0261464 0.067545,-0.0631872 0.0261464,-0.0479351 0.0261464,-0.0893336 0.00871548,-0.111122 0,-0.0435774 -0.0152521,-0.102407 -0.032683,-0.082797 -0.0239676,-0.0348619 -0.0697238,-0.0566506 -0.0936914,-0.017431 -0.322473,-0.0152521 0.0610083,-0.0697238 0.0740816,-0.0522929 0.0871548,-0.032683 0.100228,-0.0108943 0.0610083,0.00435774 0.0915125,0.0239676 0.0806182,0.0479351 0.067545,0.067545 0.00653661,0.00871548 0.0457563,0.0762604 0.032683,0.0871548 0.0217887,0.0980491 0.00653661,0.108943 0,0.00653661 -0.00871548,0.106765 -0.0217887,0.0958703 -0.0348619,0.0871548 -0.0479351,0.0740816 -0.0392196,0.0413985 -0.0740816,0.0544717 -0.0893336,0.0348619 -0.0980491,0.0108943 z "/>
<path fill="rgb(42,41,42)" stroke="rgb(42,41,42)" d="M 4.16938,13.3366 l -0.0479351,-0.0740816 -0.032683,-0.0849759 -0.0196098,-0.100228 -0.00653661,-0.111122 0.00435774,-0.0849759 0.017431,-0.0980491 0.032683,-0.0893336 0.0457563,-0.0806182 0.322473,0.0152521 -0.017431,0 -0.0893336,0.0239676 -0.0697238,0.0653661 -0.0283253,0.050114 -0.0261464,0.0893336 -0.00871548,0.108943 0.00217887,0.0740816 0.0217887,0.0958703 0.0392196,0.0784393 0.00871548,0.0130732 0.0719027,0.0566506 0.0958703,0.0196098 -0.315936,0.032683 z "/>
<path fill="rgb(42,41,42)" stroke="rgb(42,41,42)" d="M 3.89484,13.4651 l -0.753889,0 0,-0.176488 0.536002,0 -0.566506,-0.620978 0,-0.202635 0.784393,0 0,0.180846 -0.564327,0 0.564327,0.61662 0,0.202635 z "/>
<path fill="rgb(42,41,42)" stroke="rgb(42,41,42)" d="M 9.51129,8.25089 l 0.2625,0 -1.77636e-15,5.48553 -0.00199778,0.0457568 -0.00597815,0.0454085 -0.00991301,0.0447147 -0.0137724,0.0436806 -0.017527,0.042314 -0.0211483,0.0406254 -0.0246085,0.0386276 -0.0278815,0.0363359 -0.0309423,0.0337676 -0.0337676,0.0309423 -0.0363359,0.0278815 -0.0386276,0.0246085 -0.0406254,0.0211483 -0.042314,0.017527 -0.0436806,0.0137724 -0.0447147,0.00991301 -0.0454085,0.00597815 -0.0457568,0.00199778 -8.47818,-1.06581e-14 -0.0457568,-0.00199778 -0.0454085,-0.00597815 -0.0447147,-0.00991301 -0.0436806,-0.0137724 -0.042314,-0.017527 -0.0406254,-0.0211483 -0.0386276,-0.0246085 -0.0363359,-0.0278815 -0.0337676,-0.0309423 -0.0309423,-0.0337676 -0.0278815,-0.0363359 -0.0246085,-0.0386276 -0.0211483,-0.0406254 -0.017527,-0.042314 -0.0137724,-0.0436806 -0.00991301,-0.0447147 -0.00597815,-0.0454085 -0.00199778,-0.0457568 0,-5.48553 0.2625,0 0,5.48553 0.000998892,0.0228784 0.00298907,0.0227043 0.00495651,0.0223574 0.00688622,0.0218403 0.00876352,0.021157 0.0105741,0.0203127 0.0123043,0.0193138 0.0139407,0.0181679 0.0154711,0.0168838 0.0168838,0.0154711 0.0181679,0.0139407 0.0193138,0.0123043 0.0203127,0.0105741 0.021157,0.00876352 0.0218403,0.00688622 0.0223574,0.00495651 0.0227043,0.00298907 0.0228784,0.000998892 8.47818,8.88178e-15 0.0228784,-0.000998892 0.0227043,-0.00298907 0.0223574,-0.00495651 0.0218403,-0.00688622 0.021157,-0.00876352 0.0203127,-0.0105741 0.0193138,-0.0123043 0.0181679,-0.0139407 0.0168838,-0.0154711 0.0154711,-0.0168838 0.0139407,-0.0181679 0.0123043,-0.0193138 0.0105741,-0.0203127 0.00876352,-0.021157 0.00688622,-0.0218403 0.00495651,-0.0223574 0.00298907,-0.0227043 0.000998892,-0.0228784 1.77636e-15,-5.48553 z "/>
<path fill="rgb(42,41,42)" stroke="rgb(42,41,42)" d="M 9.51129,8.25089 l -1.77636e-15,-7.49085 -0.000998892,-0.0228784 -0.00298907,-0.0227043 -0.00495651,-0.0223574 -0.00688622,-0.0218403 -0.00876352,-0.021157 -0.0105741,-0.0203127 -0.0123043,-0.0193138 -0.0139407,-0.0181679 -0.0154711,-0.0168838 -0.0168838,-0.0154711 -0.0181679,-0.0139407 -0.0193138,-0.0123043 -0.0203127,-0.0105741 -0.021157,-0.00876352 -0.0218403,-0.00688622 -0.0223574,-0.00495651 -0.0227043,-0.00298907 -0.0228784,-0.000998892 -8.47818,-8.88178e-15 -0.0228784,0.000998892 -0.0227043,0.00298907 -0.0223574,0.00495651 -0.0218403,0.00688622 -0.021157,0.00876352 -0.0203127,0.0105741 -0.0193138,0.0123043 -0.0181679,0.0139407 -0.0168838,0.0154711 -0.0154711,0.0168838 -0.0139407,0.0181679 -0.0123043,0.0193138 -0.0105741,0.0203127 -0.00876352,0.021157 -0.00688622,0.0218403 -0.00495651,0.0223574 -0.00298907,0.0227043 -0.000998892,0.0228784 0,7.49085 -0.2625,0 0,-7.49085 0.00199778,-0.0457568 0.00597815,-0.0454085 0.00991301,-0.0447147 0.0137724,-0.0436806 0.017527,-0.042314 0.0211483,-0.0406254 0.0246085,-0.0386276 0.0278815,-0.0363359 0.0309423,-0.0337676 0.0337676,-0.0309423 0.0363359,-0.0278815 0.0386276,-0.0246085 0.0406254,-0.0211483 0.042314,-0.017527 0.0436806,-0.0137724 0.0447147,-0.00991301 0.0454085,-0.00597815 0.0457568,-0.00199778 8.47818,7.10543e-15 0.0457568,0.00199778 0.0454085,0.00597815 0.0447147,0.00991301 0.0436806,0.0137724 0.042314,0.017527 0.0406254,0.0211483 0.0386276,0.0246085 0.0363359,0.0278815 0.0337676,0.0309423 0.0309423,0.0337676 0.0278815,0.0363359 0.0246085,0.0386276 0.0211483,0.0406254 0.017527,0.042314 0.0137724,0.0436806 0.00991301,0.0447147 0.00597815,0.0454085 0.00199778,0.0457568 0,7.49085 -0.2625,0 z "/>
</g></g></svg>
