<?xml version="1.0" encoding="UTF-8" standalone="no"?>
<!DOCTYPE svg PUBLIC "-//W3C//DTD SVG 1.1//EN" "http://www.w3.org/Graphics/SVG/1.1/DTD/svg11-flat.dtd"
[

]>
<svg xmlns="http://www.w3.org/2000/svg"  viewBox="-0.112544 -0.112544 9.22863 12.226"><g fill="none" stroke="black" stroke-width="0.0125" transform="translate(0,12.0009) scale(1, -1)">
<g id="Output" >
<path fill="rgb(200,225,100)" stroke="rgb(200,225,100)" d="M 0.1,1.1 l 1,0 0,1 -1,0 0,-1 z "/>
<path fill="rgb(200,225,100)" stroke="rgb(200,225,100)" d="M 1.1,0.1 l 0,1 -1,0 8.88178e-16,-0.85 0.000570795,-0.0130734 0.00170804,-0.0129739 0.00283229,-0.0127756 0.00393498,-0.0124802 0.00500773,-0.0120897 0.00604236,-0.0116073 0.007031,-0.0110365 0.00796614,-0.0103817 0.00884065,-0.00964788 0.00964788,-0.00884065 0.0103817,-0.00796614 0.0110365,-0.007031 0.0116073,-0.00604236 0.0120897,-0.00500773 0.0124802,-0.00393498 0.0127756,-0.00283229 0.0129739,-0.00170804 0.0130734,-0.000570795 0.85,0 z "/>
<path fill="rgb(200,225,100)" stroke="rgb(200,225,100)" d="M 7.1,0.1 l 0,1 -0.161075,0 -0.0461694,-0.0294132 -0.0561763,-0.0292435 -0.0585112,-0.0242362 -0.0604009,-0.0190443 -0.0618309,-0.0137076 -0.0627903,-0.0082665 -0.0632718,-0.00276251 -0.429774,0 0,-0.873326 1,0 z "/>
<path fill="rgb(200,225,100)" stroke="rgb(200,225,100)" d="M 0.1,2.1 l 1,0 0,1 -1,0 0,-1 z "/>
<path fill="rgb(200,225,100)" stroke="rgb(200,225,100)" d="M 3.1,0.1 l 0,0.873326 -0.6183,0 -0.0632718,0.00276251 -0.0627903,0.0082665 -0.0618309,0.0137076 -0.0604009,0.0190443 -0.0585112,0.0242362 -0.0561763,0.0292435 -0.0187186,0.0119251 0,-0.982512 1,0 z "/>
<path fill="rgb(200,225,100)" stroke="rgb(200,225,100)" d="M 4.1,0.1 l 0,0.873326 -1,0 0,-0.873326 1,0 z "/>
<path fill="rgb(200,225,100)" stroke="rgb(200,225,100)" d="M 3.1,3.75 l 0,-0.276674 1,0 0,0.276674 -1,0 z "/>
<path fill="rgb(200,225,100)" stroke="rgb(200,225,100)" d="M 5.1,0.1 l 0,0.873326 -1,0 0,-0.873326 1,0 z "/>
<path fill="rgb(200,225,100)" stroke="rgb(200,225,100)" d="M 4.1,3.75 l 0,-0.276674 1,0 0,0.276674 -1,4.44089e-16 z "/>
<path fill="rgb(200,225,100)" stroke="rgb(200,225,100)" d="M 6.1,0.1 l 0,0.873326 -1,-8.88178e-16 0,-0.873326 1,0 z "/>
<path fill="rgb(200,225,100)" stroke="rgb(200,225,100)" d="M 5.1,3.75 l 0,-0.276674 1,8.88178e-16 0,0.276674 -1,0 z "/>
<path fill="rgb(200,225,100)" stroke="rgb(200,225,100)" d="M 8.90354,6.1 l 0,1 -0.651769,0 0,-1 0.651769,0 z "/>
<path fill="rgb(200,225,100)" stroke="rgb(200,225,100)" d="M 0.1,3.1 l 1,0 0,0.744909 -0.0497345,0.0316844 -0.0484478,0.0371753 -0.0450234,0.0412564 -0.0412564,0.0450234 -0.0371753,0.0484478 -0.0328114,0.0515035 -0.745551,0 0,-1 z "/>
<path fill="rgb(200,225,100)" stroke="rgb(200,225,100)" d="M 0.1,5.1 l 0,-1 0.745551,0 -0.0281977,0.0541672 -0.0233694,0.0564187 -0.0183632,0.0582408 -0.0132173,0.0596196 -0.00797086,0.0605447 -0.00266371,0.061009 0,0.65 -0.651769,0 z "/>
<path fill="rgb(200,225,100)" stroke="rgb(200,225,100)" d="M 0.751769,5.1 l 0,1 -0.651769,0 0,-1 0.651769,0 z "/>
<path fill="rgb(200,225,100)" stroke="rgb(200,225,100)" d="M 0.751769,6.1 l -4.44089e-16,1 -0.651769,0 0,-1 0.651769,0 z "/>
<path fill="rgb(200,225,100)" stroke="rgb(200,225,100)" d="M 0.1,7.1 l 0.651769,0 0,0.4 -0.651769,0 0,-0.4 z "/>
<path fill="rgb(200,225,100)" stroke="rgb(200,225,100)" d="M 2.07255,1.1 l -0.972549,0 0,-1 1,0 0,0.982512 -0.0274508,0.0174881 z "/>
<path fill="rgb(200,225,100)" stroke="rgb(200,225,100)" d="M 2.07255,1.1 l -0.00724436,0.00461516 -0.0502447,0.0385542 -0.0466933,0.0427866 -0.0427866,0.0466933 -0.0385542,0.0502447 -0.0340283,0.0534138 -0.0292435,0.0561763 -0.0242362,0.0585112 -0.0190443,0.0604009 -0.0137076,0.0618309 -0.0082665,0.0627903 -0.00276251,0.0632718 0,0.400711 -0.655737,0 0,-1 0.972549,0 z "/>
<path fill="rgb(200,225,100)" stroke="rgb(200,225,100)" d="M 1.75574,2.1 l 0,0.647363 0.00276251,0.0632718 0.0082665,0.0627903 0.0137076,0.0618309 0.0190443,0.0604009 0.0242362,0.0585112 0.0238584,0.0458315 -0.747613,0 0,-1 0.655737,0 z "/>
<path fill="rgb(200,225,100)" stroke="rgb(200,225,100)" d="M 1.1,3.84491 l 0,-0.744909 0.747613,0 0.00538514,0.0103448 0.0340283,0.0534138 0.0385542,0.0502447 0.0427866,0.0466933 0.0466933,0.0427866 0.0502447,0.0385542 0.0346952,0.0221033 0,0.385859 -0.648231,0 -0.061009,0.00266371 -0.0605447,0.00797086 -0.0596196,0.0132173 -0.0582408,0.0183632 -0.0564187,0.0233694 -0.0541672,0.0281977 -0.00176896,0.00112695 z "/>
<path fill="rgb(200,225,100)" stroke="rgb(200,225,100)" d="M 8.25177,7.1 l 0.651769,0 0,0.4 -0.651769,0 0,-0.4 z "/>
<path fill="rgb(200,225,100)" stroke="rgb(200,225,100)" d="M 8.90354,5.1 l 0,1 -0.651769,0 0,-1 0.651769,0 z "/>
<path fill="rgb(200,225,100)" stroke="rgb(200,225,100)" d="M 8.90354,4.1 l 0,1 -0.651769,0 0,-0.65 -0.00266371,-0.061009 -0.00797086,-0.0605447 -0.0132173,-0.0596196 -0.0183632,-0.0582408 -0.0233694,-0.0564187 -0.0281977,-0.0541672 0.745551,8.88178e-16 z "/>
<path fill="rgb(200,225,100)" stroke="rgb(200,225,100)" d="M 8.90354,3.1 l 0,1 -0.745551,-8.88178e-16 -0.0328114,-0.0515035 -0.0251754,-0.0328092 0,-0.915687 0.803538,0 z "/>
<path fill="rgb(200,225,100)" stroke="rgb(200,225,100)" d="M 8.90354,2.1 l 0,1 -0.803538,0 0,-1 0.803538,0 z "/>
<path fill="rgb(200,225,100)" stroke="rgb(200,225,100)" d="M 8.90354,1.1 l 0,1 -0.803538,0 0,-1 0.803538,0 z "/>
<path fill="rgb(200,225,100)" stroke="rgb(200,225,100)" d="M 8.1,1.1 l 0,-1 0.653538,8.88178e-16 0.0130734,0.000570795 0.0129739,0.00170804 0.0127756,0.00283229 0.0124802,0.00393498 0.0120897,0.00500773 0.0116073,0.00604236 0.0110365,0.007031 0.0103817,0.00796614 0.00964788,0.00884065 0.00884065,0.00964788 0.00796614,0.0103817 0.007031,0.0110365 0.00604236,0.0116073 0.00500773,0.0120897 0.00393498,0.0124802 0.00283229,0.0127756 0.00170804,0.0129739 0.000570795,0.0130734 0,0.85 -0.803538,0 z "/>
<path fill="rgb(200,225,100)" stroke="rgb(200,225,100)" d="M 7.1,3.75 l 0,-0.55438 0.0244482,-0.0318615 0.0340283,-0.0534138 0.00538514,-0.0103448 0.936138,0 0,0.915687 -0.0119999,-0.0156386 -0.0412564,-0.0450234 -0.0450234,-0.0412564 -0.0484478,-0.0371753 -0.0515035,-0.0328114 -0.0541672,-0.0281977 -0.0564187,-0.0233694 -0.0582408,-0.0183632 -0.0596196,-0.0132173 -0.0605447,-0.00797086 -0.061009,-0.00266371 -0.451769,0 z "/>
<path fill="rgb(200,225,100)" stroke="rgb(200,225,100)" d="M 7.25574,2.1 l 0.844263,0 0,1 -0.936138,0 0.0238584,-0.0458315 0.0242362,-0.0585112 0.0190443,-0.0604009 0.0137076,-0.0618309 0.0082665,-0.0627903 0.00276251,-0.0632718 0,-0.647363 z "/>
<path fill="rgb(200,225,100)" stroke="rgb(200,225,100)" d="M 7.1,1.25103 l 0,-0.151032 1,0 0,1 -0.844263,0 0,-0.400711 -0.00276251,-0.0632718 -0.0082665,-0.0627903 -0.0137076,-0.0618309 -0.0190443,-0.0604009 -0.0242362,-0.0585112 -0.0292435,-0.0561763 -0.0340283,-0.0534138 -0.0244482,-0.0318615 z "/>
<path fill="rgb(200,225,100)" stroke="rgb(200,225,100)" d="M 7.1,0.1 l 1,0 0,1 -1,0 0,-1 z "/>
<path fill="rgb(200,225,100)" stroke="rgb(200,225,100)" d="M 6.1,3.75 l 0,-0.276674 0.429774,0 0.0632718,-0.00276251 0.0627903,-0.0082665 0.0618309,-0.0137076 0.0604009,-0.0190443 0.0585112,-0.0242362 0.0561763,-0.0292435 0.0534138,-0.0340283 0.0502447,-0.0385542 0.0466933,-0.0427866 0.0427866,-0.0466933 0.014106,-0.0183832 0,0.55438 -1,4.44089e-16 z "/>
<path fill="rgb(200,225,100)" stroke="rgb(200,225,100)" d="M 6.93893,1.1 l 0.161075,0 0,0.151032 -0.014106,-0.0183832 -0.0427866,-0.0466933 -0.0466933,-0.0427866 -0.0502447,-0.0385542 -0.00724436,-0.00461516 z "/>
<path fill="rgb(200,225,100)" stroke="rgb(200,225,100)" d="M 2.1,3.75 l 0,-0.385859 0.0187186,0.0119251 0.0561763,0.0292435 0.0585112,0.0242362 0.0604009,0.0190443 0.0618309,0.0137076 0.0627903,0.0082665 0.0632718,0.00276251 0.6183,0 0,0.276674 -1,0 z "/>
<path fill="rgb(200,225,100)" stroke="rgb(200,225,100)" d="M 8.90354,11.7509 l -0.000570795,0.0130734 -0.00170804,0.0129739 -0.00283229,0.0127756 -0.00393498,0.0124802 -0.00500773,0.0120897 -0.00604236,0.0116073 -0.007031,0.0110365 -0.00796614,0.0103817 -0.00884065,0.00964788 -0.00964788,0.00884065 -0.0103817,0.00796614 -0.0110365,0.007031 -0.0116073,0.00604236 -0.0120897,0.00500773 -0.0124802,0.00393498 -0.0127756,0.00283229 -0.0129739,0.00170804 -0.0130734,0.000570795 -8.50354,0 -0.0130734,-0.000570795 -0.0129739,-0.00170804 -0.0127756,-0.00283229 -0.0124802,-0.00393498 -0.0120897,-0.00500773 -0.0116073,-0.00604236 -0.0110365,-0.007031 -0.0103817,-0.00796614 -0.00964788,-0.00884065 -0.00884065,-0.00964788 -0.00796614,-0.0103817 -0.007031,-0.0110365 -0.00604236,-0.0116073 -0.00500773,-0.0120897 -0.00393498,-0.0124802 -0.00283229,-0.0127756 -0.00170804,-0.0129739 -0.000570795,-0.0130734 0,-4.25089 0.651769,0 -4.44089e-16,3.05 0.00266371,0.061009 0.00797086,0.0605447 0.0132173,0.0596196 0.0183632,0.0582408 0.0233694,0.0564187 0.0281977,0.0541672 0.0328114,0.0515035 0.0371753,0.0484478 0.0412564,0.0450234 0.0450234,0.0412564 0.0484478,0.0371753 0.0515035,0.0328114 0.0541672,0.0281977 0.0564187,0.0233694 0.0582408,0.0183632 0.0596196,0.0132173 0.0605447,0.00797086 0.061009,0.00266371 6.1,0 0.061009,-0.00266371 0.0605447,-0.00797086 0.0596196,-0.0132173 0.0582408,-0.0183632 0.0564187,-0.0233694 0.0541672,-0.0281977 0.0515035,-0.0328114 0.0484478,-0.0371753 0.0450234,-0.0412564 0.0412564,-0.0450234 0.0371753,-0.0484478 0.0328114,-0.0515035 0.0281977,-0.0541672 0.0233694,-0.0564187 0.0183632,-0.0582408 0.0132173,-0.0596196 0.00797086,-0.0605447 0.00266371,-0.061009 0,-3.05 0.651769,0 0,4.25089 z "/>
<path fill="rgb(241,240,234)" stroke="rgb(241,240,234)" d="M 6.75574,2.97333 l 0.46326,0 -0.00704094,0.022331 -0.0242362,0.0585112 -0.0292435,0.0561763 -0.0340283,0.0534138 -0.0385542,0.0502447 -0.0427866,0.0466933 -0.0466933,0.0427866 -0.0502447,0.0385542 -0.0534138,0.0340283 -0.0561763,0.0292435 -0.0585112,0.0242362 -0.022331,0.00704094 0,-0.46326 z "/>
<path fill="rgb(241,240,234)" stroke="rgb(241,240,234)" d="M 7.25574,1.97333 l 0,0.774037 -0.00276251,0.0632718 -0.0082665,0.0627903 -0.0137076,0.0618309 -0.0120034,0.0380699 -0.46326,0 0,-0.959727 0.0420384,-0.00107542 0,-0.0391975 0.457962,0 z "/>
<path fill="rgb(241,240,234)" stroke="rgb(241,240,234)" d="M 6.79778,1.97333 l 0,-0.52658 -0.0420384,0 0,-0.43668 0.022331,0.00704094 0.0585112,0.0242362 0.0561763,0.0292435 0.0534138,0.0340283 0.0502447,0.0385542 0.0466933,0.0427866 0.0427866,0.0466933 0.0385542,0.0502447 0.0340283,0.0534138 0.0292435,0.0561763 0.0242362,0.0585112 0.0190443,0.0604009 0.0137076,0.0618309 0.0082665,0.0627903 0.00276251,0.0632718 0,0.274037 -0.457962,0 z "/>
<path fill="rgb(241,240,234)" stroke="rgb(241,240,234)" d="M 5.75574,3.47333 l 0,-0.5 1,0 0,0.46326 -0.0380699,0.0120034 -0.0618309,0.0137076 -0.0627903,0.0082665 -0.0632718,0.00276251 -0.774037,0 z "/>
<path fill="rgb(241,240,234)" stroke="rgb(241,240,234)" d="M 5.75574,2.34157 l 0.0825752,-0.0576139 0.124933,-0.0725001 0.130537,-0.0618442 0.135233,-0.0507587 0.138991,-0.0393206 0.141782,-0.0276093 0.143589,-0.0157062 0.10236,-0.00261856 0,0.959727 -1,0 0,-0.631755 z "/>
<path fill="rgb(241,240,234)" stroke="rgb(241,240,234)" d="M 3.75574,3.47333 l 0,-0.5 1,0 0,0.5 -1,0 z "/>
<path fill="rgb(241,240,234)" stroke="rgb(241,240,234)" d="M 2.261,1.97333 l -0.505267,0 0,-0.274037 0.00276251,-0.0632718 0.0082665,-0.0627903 0.0137076,-0.0618309 0.0190443,-0.0604009 0.0242362,-0.0585112 0.0292435,-0.0561763 0.0340283,-0.0534138 0.0385542,-0.0502447 0.0427866,-0.0466933 0.0466933,-0.0427866 0.0502447,-0.0385542 0.0534138,-0.0340283 0.0561763,-0.0292435 0.0585112,-0.0242362 0.0604009,-0.0190443 0.0618309,-0.0137076 0.0627903,-0.0082665 0.0632718,-0.00276251 0.274037,0 0,0.47342 -0.494733,0 0,0.52658 z "/>
<path fill="rgb(241,240,234)" stroke="rgb(241,240,234)" d="M 1.75574,2.74736 l 0,-0.774037 0.505267,0 0,0.0391975 0.167241,0.00785035 0.165822,0.023113 0.16167,0.0378674 0,0.891972 -0.96326,0 -0.0120034,-0.0380699 -0.0137076,-0.0618309 -0.0082665,-0.0627903 -0.00276251,-0.0632718 z "/>
<path fill="rgb(241,240,234)" stroke="rgb(241,240,234)" d="M 4.75574,0.973326 l 0,0.47342 -1,0 0,-0.47342 1,0 z "/>
<path fill="rgb(241,240,234)" stroke="rgb(241,240,234)" d="M 3.75574,2.60725 l 0.0397569,0.0180748 0.159486,0.0565048 0.163759,0.0425633 0.166815,0.0283057 0.168633,0.0138379 0.169198,-0.000732729 0.132351,-0.0120155 0,0.219541 -1,0 0,-0.366079 z "/>
<path fill="rgb(241,240,234)" stroke="rgb(241,240,234)" d="M 5.75574,0.973326 l 0,0.47342 -1,0 0,-0.47342 1,0 z "/>
<path fill="rgb(241,240,234)" stroke="rgb(241,240,234)" d="M 4.75574,2.75379 l 0.0361557,-0.00328239 0.166564,-0.0297495 0.163384,-0.0439801 0.158991,-0.057884 0.153417,-0.0713581 0.146703,-0.0843022 0.1389,-0.0966202 0.0358862,-0.0250384 0,0.631755 -1,0 0,-0.219541 z "/>
<path fill="rgb(241,240,234)" stroke="rgb(241,240,234)" d="M 4.75574,3.47333 l 0,-0.5 1,0 0,0.5 -1,-8.88178e-16 z "/>
<path fill="rgb(241,240,234)" stroke="rgb(241,240,234)" d="M 6.75574,1.44675 l -1,0 0,-0.47342 0.774037,8.88178e-16 0.0632718,0.00276251 0.0627903,0.0082665 0.0618309,0.0137076 0.0380699,0.0120034 0,0.43668 z "/>
<path fill="rgb(241,240,234)" stroke="rgb(241,240,234)" d="M 1.79248,2.97333 l 0.96326,0 0,0.5 -0.274037,0 -0.0632718,-0.00276251 -0.0627903,-0.0082665 -0.0618309,-0.0137076 -0.0604009,-0.0190443 -0.0585112,-0.0242362 -0.0561763,-0.0292435 -0.0534138,-0.0340283 -0.0502447,-0.0385542 -0.0466933,-0.0427866 -0.0427866,-0.0466933 -0.0385542,-0.0502447 -0.0340283,-0.0534138 -0.0292435,-0.0561763 -0.0242362,-0.0585112 -0.00704094,-0.022331 z "/>
<path fill="rgb(241,240,234)" stroke="rgb(241,240,234)" d="M 3.75574,0.973326 l 0,0.47342 -1,0 0,-0.47342 1,0 z "/>
<path fill="rgb(241,240,234)" stroke="rgb(241,240,234)" d="M 2.75574,2.08135 l 0.00134245,0.000314437 0.158838,0.0529307 0.153331,0.0672359 0.146539,0.0809775 0.138519,0.0940403 0.139731,0.0954136 0.147428,0.0830285 0.114272,0.0519519 0,0.366079 -1,0 0,-0.891972 z "/>
<path fill="rgb(241,240,234)" stroke="rgb(241,240,234)" d="M 2.75574,3.47333 l 0,-0.5 1,0 0,0.5 -1,0 z "/>
<path fill="rgb(0,91,140)" stroke="rgb(0,91,140)" d="M 7.85177,10.55 l -0.00114159,0.0261467 -0.00341608,0.0259477 -0.00566458,0.0255513 -0.00786996,0.0249603 -0.0100155,0.0241794 -0.0120847,0.0232145 -0.014062,0.0220729 -0.0159323,0.0207634 -0.0176813,0.0192958 -0.0192958,0.0176813 -0.0207634,0.0159323 -0.0220729,0.014062 -0.0232145,0.0120847 -0.0241794,0.0100155 -0.0249603,0.00786996 -0.0255513,0.00566458 -0.0259477,0.00341608 -0.0261467,0.00114159 -3.05,-1.77636e-15 0,-0.69028 2.65972,-5.31944 -2.65972,0 0,-0.69028 3.05,0 0.0261467,0.00114159 0.0259477,0.00341608 0.0255513,0.00566458 0.0249603,0.00786996 0.0241794,0.0100155 0.0232145,0.0120847 0.0220729,0.014062 0.0207634,0.0159323 0.0192958,0.0176813 0.0176813,0.0192958 0.0159323,0.0207634 0.014062,0.0220729 0.0120847,0.0232145 0.0100155,0.0241794 0.00786996,0.0249603 0.00566458,0.0255513 0.00341608,0.0259477 0.00114159,0.0261467 0,3.05 -8.88178e-16,3.05 z "/>
<path fill="rgb(0,91,140)" stroke="rgb(0,91,140)" d="M 1.15177,7.5 l 4.44089e-16,-3.05 0.00114159,-0.0261467 0.00341608,-0.0259477 0.00566458,-0.0255513 0.00786996,-0.0249603 0.0100155,-0.0241794 0.0120847,-0.0232145 0.014062,-0.0220729 0.0159323,-0.0207634 0.0176813,-0.0192958 0.0192958,-0.0176813 0.0207634,-0.0159323 0.0220729,-0.014062 0.0232145,-0.0120847 0.0241794,-0.0100155 0.0249603,-0.00786996 0.0255513,-0.00566458 0.0259477,-0.00341608 0.0261467,-0.00114159 3.05,0 0,0.69028 -2.65972,0 2.65972,5.31944 0,0.69028 -3.05,0 -0.0261467,-0.00114159 -0.0259477,-0.00341608 -0.0255513,-0.00566458 -0.0249603,-0.00786996 -0.0241794,-0.0100155 -0.0232145,-0.0120847 -0.0220729,-0.014062 -0.0207634,-0.0159323 -0.0192958,-0.0176813 -0.0176813,-0.0192958 -0.0159323,-0.0207634 -0.014062,-0.0220729 -0.0120847,-0.0232145 -0.0100155,-0.0241794 -0.00786996,-0.0249603 -0.00566458,-0.0255513 -0.00341608,-0.0259477 -0.00114159,-0.0261467 4.44089e-16,-3.05 z "/>
<path fill="rgb(241,240,234)" stroke="rgb(241,240,234)" d="M 4.27434,8.3606 l 0.000846096,0.0193788 0.00253185,0.0192313 0.00419833,0.0189375 0.00583286,0.0184995 0.007423,0.0179207 0.00895665,0.0172056 0.0104221,0.0163595 0.0118083,0.0153889 0.0131046,0.0143011 0.0143011,0.0131046 0.0153889,0.0118083 0.0163595,0.0104221 0.0172056,0.00895665 0.0179207,0.007423 0.0184995,0.00583286 0.0189375,0.00419833 0.0192313,0.00253185 0.0193788,0.000846096 0.0193788,-0.000846096 0.0192313,-0.00253185 0.0189375,-0.00419833 0.0184995,-0.00583286 0.0179207,-0.007423 0.0172056,-0.00895665 0.0163595,-0.0104221 0.0153889,-0.0118083 0.0143011,-0.0131046 0.0131046,-0.0143011 0.0118083,-0.0153889 0.0104221,-0.0163595 0.00895665,-0.0172056 0.007423,-0.0179207 0.00583286,-0.0184995 0.00419833,-0.0189375 0.00253185,-0.0192313 0.000846096,-0.0193788 -0.000846096,-0.0193788 -0.00253185,-0.0192313 -0.00419833,-0.0189375 -0.00583286,-0.0184995 -0.007423,-0.0179207 -0.00895665,-0.0172056 -0.0104221,-0.0163595 -0.0118083,-0.0153889 -0.0131046,-0.0143011 -0.0143011,-0.0131046 -0.0153889,-0.0118083 -0.0163595,-0.0104221 -0.0172056,-0.00895665 -0.0179207,-0.007423 -0.0184995,-0.00583286 -0.0189375,-0.00419833 -0.0192313,-0.00253185 -0.0193788,-0.000846096 -0.0193788,0.000846096 -0.0192313,0.00253185 -0.0189375,0.00419833 -0.0184995,0.00583286 -0.0179207,0.007423 -0.0172056,0.00895665 -0.0163595,0.0104221 -0.0153889,0.0118083 -0.0143011,0.0131046 -0.0131046,0.0143011 -0.0118083,0.0153889 -0.0104221,0.0163595 -0.00895665,0.0172056 -0.007423,0.0179207 -0.00583286,0.0184995 -0.00419833,0.0189375 -0.00253185,0.0192313 -0.000846096,0.0193788 z M 4.16216,7.84028 l 0.161398,0.16558 0.0175698,0.0165106 0.0189487,0.0149078 0.0201819,0.0131905 0.0212599,0.0113716 0.0221744,0.00946538 0.0229184,0.00748633 0.0234861,0.00544972 0.0238733,0.00337119 0.0240768,0.00126674 0.0240952,-0.000847452 0.0239283,-0.00295513 0.0235774,-0.00504008 0.0230452,-0.00708627 0.0223358,-0.00907797 0.0214546,-0.0109999 0.0204085,-0.0128372 0.0192054,-0.0145757 0.0178546,-0.0162022 0.1281,-0.142891 0,0.973913 -1,0 0,-1 0.320107,0 z "/>
<path fill="rgb(241,240,234)" stroke="rgb(241,240,234)" d="M 5.66149,7.84028 l -0.5,1 -0.319439,0 0,-0.973913 0.0233867,-0.026087 0.796052,0 z "/>
<path fill="rgb(241,240,234)" stroke="rgb(241,240,234)" d="M 5.93792,5.84028 l -0.0958709,0.248569 0,-0.248569 0.0958709,0 z M 6.66149,5.84028 l -0.5,1 -0.319439,0 0,-0.616632 0.334992,0 0.198125,-0.383368 0.286322,0 z "/>
<path fill="rgb(241,240,234)" stroke="rgb(241,240,234)" d="M 4.10467,5.84028 l 0.163874,0 0.0108794,0.227227 0.0645063,0.156141 0.339466,0 0.0298025,-0.383368 0.128852,0 0,0.359814 -0.114536,0.179723 -0.169733,0.454887 -0.453111,-0.994424 z M 3.94324,5.84028 l 0.292631,1 -0.393822,0 0,-0.616632 0.0945085,0 -0.0543494,-0.383368 0.0610324,0 z "/>
<path fill="rgb(241,240,234)" stroke="rgb(241,240,234)" d="M 5.84205,6.84028 l 0.319439,0 -0.319439,0.638878 0,-0.638878 z "/>
<path fill="rgb(241,240,234)" stroke="rgb(241,240,234)" d="M 6.84205,5.47916 l 0,-0.638878 0.319439,0 -0.319439,0.638878 z "/>
<path fill="rgb(241,240,234)" stroke="rgb(241,240,234)" d="M 4.84205,8.84028 l 0.319439,0 -0.319439,0.638878 0,-0.638878 z "/>
<path fill="rgb(241,240,234)" stroke="rgb(241,240,234)" d="M 4.26854,5.84028 l -0.163874,0 -0.0526906,-0.115638 -0.142577,0 0.0338392,0.115638 -0.0610324,0 -0.0401591,-0.283273 0,-0.716727 0.65972,0 0.34028,0 0,1 -0.128852,0 0.0567493,-0.73 -0.536356,0 0.0349518,0.73 z "/>
<path fill="rgb(241,240,234)" stroke="rgb(241,240,234)" d="M 6.84205,4.84028 l 0,0.638878 -0.180561,0.361122 -0.286322,0 0.377266,-0.73 -0.532958,0 -0.281555,0.73 -0.0958709,0 0,-1 1,0 z "/>
<path fill="rgb(241,240,234)" stroke="rgb(241,240,234)" d="M 3.84205,8.84028 l 1,0 0,0.638878 -0.180561,0.361122 -0.319439,0 -0.5,-1 z "/>
<path fill="rgb(241,240,234)" stroke="rgb(241,240,234)" d="M 3.34205,7.84028 l 0.5,0 0,1 -0.5,-1 z "/>
<path fill="rgb(241,240,234)" stroke="rgb(241,240,234)" d="M 3.84205,7.33628 l -0.0888028,-0.0704491 -0.0848666,0.0678767 0.173669,0.178169 0,0.328401 -0.5,0 -0.5,-1 1,0 0,0.496002 z "/>
<path fill="rgb(241,240,234)" stroke="rgb(241,240,234)" d="M 4.66149,9.84028 l -0.15972,0.319439 -0.15972,-0.319439 0.319439,0 z "/>
<path fill="rgb(241,240,234)" stroke="rgb(241,240,234)" d="M 3.06235,5.84028 l 0.392554,0 0.111629,0.383368 0.275512,0 0,0.616632 -1,0 0,-0.616632 0.364661,0 -0.144356,-0.383368 z "/>
<path fill="rgb(241,240,234)" stroke="rgb(241,240,234)" d="M 3.45491,5.84028 l -0.392554,0 -0.220305,-0.585066 0,-0.414934 1,0 0,0.716727 -0.0633317,-0.446727 -0.53637,0 0.212561,0.73 z "/>
<path fill="rgb(241,240,234)" stroke="rgb(241,240,234)" d="M 5.30821,5.84028 l -0.0670207,0 0.00911285,-0.0205773 -0.105254,-0.0950605 -0.073695,0.115638 -0.229306,0 0,-1 1,0 0,1 -0.284509,0 0.203649,-0.73 -0.536356,0 -0.0797835,0.532894 0.176529,0.166335 -0.0133668,0.0307712 z "/>
<path fill="rgb(241,240,234)" stroke="rgb(241,240,234)" d="M 4.84205,5.84028 l 0.229306,0 -0.229306,0.359814 0,-0.359814 z M 5.84205,6.08885 l -0.0519907,0.134799 0.0519907,0 0,0.616632 -0.973727,0 0.0662744,-0.307692 0.306595,-0.692308 0.0670207,0 -0.166533,0.383368 0.308912,0 0.106949,-0.383368 0.284509,0 0,0.248569 z "/>
<path fill="rgb(241,240,234)" stroke="rgb(241,240,234)" d="M 5.66149,7.84028 l -0.796052,0 0.201544,-0.224815 0.0271562,-0.454887 -0.112023,0 -0.0712747,0.400575 -0.0687892,0.0550345 0,-0.65393 0.026273,-0.121978 0.973727,0 0,0.638878 -0.180561,0.361122 z "/>
<path fill="rgb(241,240,234)" stroke="rgb(241,240,234)" d="M 2.34205,5.84028 l 0.270749,0 0.18994,0.383368 0.0393114,0 0,0.616632 -0.5,-1 z "/>
<path fill="rgb(241,240,234)" stroke="rgb(241,240,234)" d="M 2.6128,5.84028 l -0.270749,0 -0.5,-1 1,0 0,0.414934 -0.0545746,-0.144934 -0.536356,0 0.361679,0.73 z "/>
<path fill="rgb(241,240,234)" stroke="rgb(241,240,234)" d="M 4.84205,6.96226 l 0,0.65393 -0.0500296,0.040026 0,-0.461683 0.0500296,-0.232273 z M 3.84205,7.51188 l 0.320107,0.328401 -0.320107,0 0,-0.328401 z M 3.84205,6.84028 l 0.393822,0 0.104659,0.357648 -0.0780844,0.471863 -0.420397,-0.33351 0,-0.496002 z "/>
<path fill="rgb(241,240,234)" stroke="rgb(241,240,234)" d="M 1.15177,7.5 l -0.2,0 4.44089e-16,-3.05 0.00190265,-0.0435779 0.00569347,-0.0432462 0.00944096,-0.0425854 0.0131166,-0.0416005 0.0166924,-0.0402991 0.0201412,-0.0386909 0.0234367,-0.0367882 0.0265538,-0.0346056 0.0294688,-0.0321596 0.0321596,-0.0294688 0.0346056,-0.0265538 0.0367882,-0.0234367 0.0386909,-0.0201412 0.0402991,-0.0166924 0.0416005,-0.0131166 0.0425854,-0.00944096 0.0432462,-0.00569347 0.0435779,-0.00190265 6.1,0 0.0435779,0.00190265 0.0432462,0.00569347 0.0425854,0.00944096 0.0416005,0.0131166 0.0402991,0.0166924 0.0386909,0.0201412 0.0367882,0.0234367 0.0346056,0.0265538 0.0321596,0.0294688 0.0294688,0.0321596 0.0265538,0.0346056 0.0234367,0.0367882 0.0201412,0.0386909 0.0166924,0.0402991 0.0131166,0.0416005 0.00944096,0.0425854 0.00569347,0.0432462 0.00190265,0.0435779 0,3.05 -0.2,0 0,-3.05 -0.00114159,-0.0261467 -0.00341608,-0.0259477 -0.00566458,-0.0255513 -0.00786996,-0.0249603 -0.0100155,-0.0241794 -0.0120847,-0.0232145 -0.014062,-0.0220729 -0.0159323,-0.0207634 -0.0176813,-0.0192958 -0.0192958,-0.0176813 -0.0207634,-0.0159323 -0.0220729,-0.014062 -0.0232145,-0.0120847 -0.0241794,-0.0100155 -0.0249603,-0.00786996 -0.0255513,-0.00566458 -0.0259477,-0.00341608 -0.0261467,-0.00114159 -3.05,0 -3.05,0 -0.0261467,0.00114159 -0.0259477,0.00341608 -0.0255513,0.00566458 -0.0249603,0.00786996 -0.0241794,0.0100155 -0.0232145,0.0120847 -0.0220729,0.014062 -0.0207634,0.0159323 -0.0192958,0.0176813 -0.0176813,0.0192958 -0.0159323,0.0207634 -0.014062,0.0220729 -0.0120847,0.0232145 -0.0100155,0.0241794 -0.00786996,0.0249603 -0.00566458,0.0255513 -0.00341608,0.0259477 -0.00114159,0.0261467 -4.44089e-16,3.05 z "/>
<path fill="rgb(241,240,234)" stroke="rgb(241,240,234)" d="M 7.85177,10.55 l 8.88178e-16,-3.05 0.2,0 0,3.05 -0.00190265,0.0435779 -0.00569347,0.0432462 -0.00944096,0.0425854 -0.0131166,0.0416005 -0.0166924,0.0402991 -0.0201412,0.0386909 -0.0234367,0.0367882 -0.0265538,0.0346056 -0.0294688,0.0321596 -0.0321596,0.0294688 -0.0346056,0.0265538 -0.0367882,0.0234367 -0.0386909,0.0201412 -0.0402991,0.0166924 -0.0416005,0.0131166 -0.0425854,0.00944096 -0.0432462,0.00569347 -0.0435779,0.00190265 -6.1,0 -0.0435779,-0.00190265 -0.0432462,-0.00569347 -0.0425854,-0.00944096 -0.0416005,-0.0131166 -0.0402991,-0.0166924 -0.0386909,-0.0201412 -0.0367882,-0.0234367 -0.0346056,-0.0265538 -0.0321596,-0.0294688 -0.0294688,-0.0321596 -0.0265538,-0.0346056 -0.0234367,-0.0367882 -0.0201412,-0.0386909 -0.0166924,-0.0402991 -0.0131166,-0.0416005 -0.00944096,-0.0425854 -0.00569347,-0.0432462 -0.00190265,-0.0435779 4.44089e-16,-3.05 0.2,0 -4.44089e-16,3.05 0.00114159,0.0261467 0.00341608,0.0259477 0.00566458,0.0255513 0.00786996,0.0249603 0.0100155,0.0241794 0.0120847,0.0232145 0.014062,0.0220729 0.0159323,0.0207634 0.0176813,0.0192958 0.0192958,0.0176813 0.0207634,0.0159323 0.0220729,0.014062 0.0232145,0.0120847 0.0241794,0.0100155 0.0249603,0.00786996 0.0255513,0.00566458 0.0259477,0.00341608 0.0261467,0.00114159 3.05,0 3.05,1.77636e-15 0.0261467,-0.00114159 0.0259477,-0.00341608 0.0255513,-0.00566458 0.0249603,-0.00786996 0.0241794,-0.0100155 0.0232145,-0.0120847 0.0220729,-0.014062 0.0207634,-0.0159323 0.0192958,-0.0176813 0.0176813,-0.0192958 0.0159323,-0.0207634 0.014062,-0.0220729 0.0120847,-0.0232145 0.0100155,-0.0241794 0.00786996,-0.0249603 0.00566458,-0.0255513 0.00341608,-0.0259477 0.00114159,-0.0261467 z "/>
<path fill="rgb(0,91,140)" stroke="rgb(0,91,140)" d="M 0.951769,7.5 l -0.2,0 4.44089e-16,-3.05 0.00266371,-0.061009 0.00797086,-0.0605447 0.0132173,-0.0596196 0.0183632,-0.0582408 0.0233694,-0.0564187 0.0281977,-0.0541672 0.0328114,-0.0515035 0.0371753,-0.0484478 0.0412564,-0.0450234 0.0450234,-0.0412564 0.0484478,-0.0371753 0.0515035,-0.0328114 0.0541672,-0.0281977 0.0564187,-0.0233694 0.0582408,-0.0183632 0.0596196,-0.0132173 0.0605447,-0.00797086 0.061009,-0.00266371 6.1,-8.88178e-16 0.061009,0.00266371 0.0605447,0.00797086 0.0596196,0.0132173 0.0582408,0.0183632 0.0564187,0.0233694 0.0541672,0.0281977 0.0515035,0.0328114 0.0484478,0.0371753 0.0450234,0.0412564 0.0412564,0.0450234 0.0371753,0.0484478 0.0328114,0.0515035 0.0281977,0.0541672 0.0233694,0.0564187 0.0183632,0.0582408 0.0132173,0.0596196 0.00797086,0.0605447 0.00266371,0.061009 0,3.05 -0.2,0 0,-3.05 -0.00190265,-0.0435779 -0.00569347,-0.0432462 -0.00944096,-0.0425854 -0.0131166,-0.0416005 -0.0166924,-0.0402991 -0.0201412,-0.0386909 -0.0234367,-0.0367882 -0.0265538,-0.0346056 -0.0294688,-0.0321596 -0.0321596,-0.0294688 -0.0346056,-0.0265538 -0.0367882,-0.0234367 -0.0386909,-0.0201412 -0.0402991,-0.0166924 -0.0416005,-0.0131166 -0.0425854,-0.00944096 -0.0432462,-0.00569347 -0.0435779,-0.00190265 -6.1,0 -0.0435779,0.00190265 -0.0432462,0.00569347 -0.0425854,0.00944096 -0.0416005,0.0131166 -0.0402991,0.0166924 -0.0386909,0.0201412 -0.0367882,0.0234367 -0.0346056,0.0265538 -0.0321596,0.0294688 -0.0294688,0.0321596 -0.0265538,0.0346056 -0.0234367,0.0367882 -0.0201412,0.0386909 -0.0166924,0.0402991 -0.0131166,0.0416005 -0.00944096,0.0425854 -0.00569347,0.0432462 -0.00190265,0.0435779 -4.44089e-16,3.05 z "/>
<path fill="rgb(0,91,140)" stroke="rgb(0,91,140)" d="M 7.55177,11.05 l 0.0435779,-0.00190265 0.0432462,-0.00569347 0.0425854,-0.00944096 0.0416005,-0.0131166 0.0402991,-0.0166924 0.0386909,-0.0201412 0.0367882,-0.0234367 0.0346056,-0.0265538 0.0321596,-0.0294688 0.0294688,-0.0321596 0.0265538,-0.0346056 0.0234367,-0.0367882 0.0201412,-0.0386909 0.0166924,-0.0402991 0.0131166,-0.0416005 0.00944096,-0.0425854 0.00569347,-0.0432462 0.00190265,-0.0435779 0,-3.05 0.2,0 0,3.05 -0.00266371,0.061009 -0.00797086,0.0605447 -0.0132173,0.0596196 -0.0183632,0.0582408 -0.0233694,0.0564187 -0.0281977,0.0541672 -0.0328114,0.0515035 -0.0371753,0.0484478 -0.0412564,0.0450234 -0.0450234,0.0412564 -0.0484478,0.0371753 -0.0515035,0.0328114 -0.0541672,0.0281977 -0.0564187,0.0233694 -0.0582408,0.0183632 -0.0596196,0.0132173 -0.0605447,0.00797086 -0.061009,0.00266371 -6.1,0 -0.061009,-0.00266371 -0.0605447,-0.00797086 -0.0596196,-0.0132173 -0.0582408,-0.0183632 -0.0564187,-0.0233694 -0.0541672,-0.0281977 -0.0515035,-0.0328114 -0.0484478,-0.0371753 -0.0450234,-0.0412564 -0.0412564,-0.0450234 -0.0371753,-0.0484478 -0.0328114,-0.0515035 -0.0281977,-0.0541672 -0.0233694,-0.0564187 -0.0183632,-0.0582408 -0.0132173,-0.0596196 -0.00797086,-0.0605447 -0.00266371,-0.061009 4.44089e-16,-3.05 0.2,0 -4.44089e-16,3.05 0.00190265,0.0435779 0.00569347,0.0432462 0.00944096,0.0425854 0.0131166,0.0416005 0.0166924,0.0402991 0.0201412,0.0386909 0.0234367,0.0367882 0.0265538,0.0346056 0.0294688,0.0321596 0.0321596,0.0294688 0.0346056,0.0265538 0.0367882,0.0234367 0.0386909,0.0201412 0.0402991,0.0166924 0.0416005,0.0131166 0.0425854,0.00944096 0.0432462,0.00569347 0.0435779,0.00190265 6.1,0 z "/>
<path fill="rgb(42,41,42)" stroke="rgb(42,41,42)" d="M 8.90354,7.5 l 0.1,0 0,-7.25 -0.000951325,-0.0217889 -0.00284674,-0.0216231 -0.00472048,-0.0212927 -0.0065583,-0.0208003 -0.00834621,-0.0201495 -0.0100706,-0.0193454 -0.0117183,-0.0183941 -0.0132769,-0.0173028 -0.0147344,-0.0160798 -0.0160798,-0.0147344 -0.0173028,-0.0132769 -0.0183941,-0.0117183 -0.0193454,-0.0100706 -0.0201495,-0.00834621 -0.0208003,-0.0065583 -0.0212927,-0.00472048 -0.0216231,-0.00284674 -0.0217889,-0.000951325 -8.50354,0 -0.0217889,0.000951325 -0.0216231,0.00284674 -0.0212927,0.00472048 -0.0208003,0.0065583 -0.0201495,0.00834621 -0.0193454,0.0100706 -0.0183941,0.0117183 -0.0173028,0.0132769 -0.0160798,0.0147344 -0.0147344,0.0160798 -0.0132769,0.0173028 -0.0117183,0.0183941 -0.0100706,0.0193454 -0.00834621,0.0201495 -0.0065583,0.0208003 -0.00472048,0.0212927 -0.00284674,0.0216231 -0.000951325,0.0217889 -8.88178e-16,7.25 0.1,0 8.88178e-16,-7.25 0.000570795,-0.0130734 0.00170804,-0.0129739 0.00283229,-0.0127756 0.00393498,-0.0124802 0.00500773,-0.0120897 0.00604236,-0.0116073 0.007031,-0.0110365 0.00796614,-0.0103817 0.00884065,-0.00964788 0.00964788,-0.00884065 0.0103817,-0.00796614 0.0110365,-0.007031 0.0116073,-0.00604236 0.0120897,-0.00500773 0.0124802,-0.00393498 0.0127756,-0.00283229 0.0129739,-0.00170804 0.0130734,-0.000570795 8.50354,8.88178e-16 0.0130734,0.000570795 0.0129739,0.00170804 0.0127756,0.00283229 0.0124802,0.00393498 0.0120897,0.00500773 0.0116073,0.00604236 0.0110365,0.007031 0.0103817,0.00796614 0.00964788,0.00884065 0.00884065,0.00964788 0.00796614,0.0103817 0.007031,0.0110365 0.00604236,0.0116073 0.00500773,0.0120897 0.00393498,0.0124802 0.00283229,0.0127756 0.00170804,0.0129739 0.000570795,0.0130734 0,7.25 z "/>
<path fill="rgb(42,41,42)" stroke="rgb(42,41,42)" d="M 8.90354,11.7509 l 0,-4.25089 0.1,0 0,4.25089 -0.000951325,0.0217889 -0.00284674,0.0216231 -0.00472048,0.0212927 -0.0065583,0.0208003 -0.00834621,0.0201495 -0.0100706,0.0193454 -0.0117183,0.0183941 -0.0132769,0.0173028 -0.0147344,0.0160798 -0.0160798,0.0147344 -0.0173028,0.0132769 -0.0183941,0.0117183 -0.0193454,0.0100706 -0.0201495,0.00834621 -0.0208003,0.0065583 -0.0212927,0.00472048 -0.0216231,0.00284674 -0.0217889,0.000951325 -8.50354,0 -0.0217889,-0.000951325 -0.0216231,-0.00284674 -0.0212927,-0.00472048 -0.0208003,-0.0065583 -0.0201495,-0.00834621 -0.0193454,-0.0100706 -0.0183941,-0.0117183 -0.0173028,-0.0132769 -0.0160798,-0.0147344 -0.0147344,-0.0160798 -0.0132769,-0.0173028 -0.0117183,-0.0183941 -0.0100706,-0.0193454 -0.00834621,-0.0201495 -0.0065583,-0.0208003 -0.00472048,-0.0212927 -0.00284674,-0.0216231 -0.000951325,-0.0217889 0,-4.25089 0.1,0 0,4.25089 0.000570795,0.0130734 0.00170804,0.0129739 0.00283229,0.0127756 0.00393498,0.0124802 0.00500773,0.0120897 0.00604236,0.0116073 0.007031,0.0110365 0.00796614,0.0103817 0.00884065,0.00964788 0.00964788,0.00884065 0.0103817,0.00796614 0.0110365,0.007031 0.0116073,0.00604236 0.0120897,0.00500773 0.0124802,0.00393498 0.0127756,0.00283229 0.0129739,0.00170804 0.0130734,0.000570795 8.50354,0 0.0130734,-0.000570795 0.0129739,-0.00170804 0.0127756,-0.00283229 0.0124802,-0.00393498 0.0120897,-0.00500773 0.0116073,-0.00604236 0.0110365,-0.007031 0.0103817,-0.00796614 0.00964788,-0.00884065 0.00884065,-0.00964788 0.00796614,-0.0103817 0.007031,-0.0110365 0.00604236,-0.0116073 0.00500773,-0.0120897 0.00393498,-0.0124802 0.00283229,-0.0127756 0.00170804,-0.0129739 0.000570795,-0.0130734 z "/>
<path fill="rgb(42,41,42)" stroke="rgb(42,41,42)" d="M 2.261,2.01252 l 0.167241,0.00785035 0.165822,0.023113 0.163013,0.0381819 0.158838,0.0529307 0.153331,0.0672359 0.146539,0.0809775 0.138519,0.0940403 0.139731,0.0954136 0.147428,0.0830285 0.154029,0.0700267 0.159486,0.0565048 0.163759,0.0425633 0.166815,0.0283057 0.168633,0.0138379 0.169198,-0.000732729 0.168507,-0.0152979 0.166564,-0.0297495 0.163384,-0.0439801 0.158991,-0.057884 0.153417,-0.0713581 0.146703,-0.0843022 0.1389,-0.0966202 0.118461,-0.0826523 0.124933,-0.0725001 0.130537,-0.0618442 0.135233,-0.0507587 0.138991,-0.0393206 0.141782,-0.0276093 0.143589,-0.0157062 0.144398,-0.00369398 0,-0.565777 -4.53677,0 0,0.565777 z "/>
<path fill="rgb(42,41,42)" stroke="rgb(42,41,42)" d="M 4.79202,7.65621 l 0.118819,-0.0950605 0.0712747,-0.400575 0.112023,0 -0.0271562,0.454887 -0.353031,0.393793 -0.0178546,0.0162022 -0.0192054,0.0145757 -0.0204085,0.0128372 -0.0214546,0.0109999 -0.0223358,0.00907797 -0.0230452,0.00708627 -0.0235774,0.00504008 -0.0239283,0.00295513 -0.0240952,0.000847452 -0.0240768,-0.00126674 -0.0238733,-0.00337119 -0.0234861,-0.00544972 -0.0229184,-0.00748633 -0.0221744,-0.00946538 -0.0212599,-0.0113716 -0.0201819,-0.0131905 -0.0189487,-0.0149078 -0.0175698,-0.0165106 -0.655175,-0.672151 0.0848666,-0.0678767 0.5092,0.403959 0.0780844,-0.471863 -0.431129,-1.47329 0.142577,0 0.505802,1.11006 0.169733,-0.454887 0.417537,-0.655175 0.105254,0.0950605 -0.315708,0.712885 -0.142577,0.661943 0,0.461683 z "/>
<path fill="rgb(42,41,42)" stroke="rgb(42,41,42)" d="M 3.20671,6.22365 l -0.403973,0 -0.551619,-1.11337 0.536356,0 0.419236,1.11337 z "/>
<path fill="rgb(42,41,42)" stroke="rgb(42,41,42)" d="M 3.93656,6.22365 l -0.370021,0 -0.324189,-1.11337 0.53637,0 0.15784,1.11337 z "/>
<path fill="rgb(42,41,42)" stroke="rgb(42,41,42)" d="M 4.6834,6.22365 l -0.339466,0 -0.0645063,-0.156141 -0.0458312,-0.957227 0.536356,0 -0.0865518,1.11337 z "/>
<path fill="rgb(42,41,42)" stroke="rgb(42,41,42)" d="M 5.14168,6.22365 l 0.179899,-0.414139 -0.176529,-0.166335 0.0797835,-0.532894 0.536356,0 -0.310597,1.11337 -0.308912,0 z "/>
<path fill="rgb(42,41,42)" stroke="rgb(42,41,42)" d="M 5.79006,6.22365 l 0.429416,-1.11337 0.532958,0 -0.575391,1.11337 -0.386983,0 z "/>
<path fill="rgb(42,41,42)" stroke="rgb(42,41,42)" d="M 4.27434,8.3606 l 0.000846096,-0.0193788 0.00253185,-0.0192313 0.00419833,-0.0189375 0.00583286,-0.0184995 0.007423,-0.0179207 0.00895665,-0.0172056 0.0104221,-0.0163595 0.0118083,-0.0153889 0.0131046,-0.0143011 0.0143011,-0.0131046 0.0153889,-0.0118083 0.0163595,-0.0104221 0.0172056,-0.00895665 0.0179207,-0.007423 0.0184995,-0.00583286 0.0189375,-0.00419833 0.0192313,-0.00253185 0.0193788,-0.000846096 0.0193788,0.000846096 0.0192313,0.00253185 0.0189375,0.00419833 0.0184995,0.00583286 0.0179207,0.007423 0.0172056,0.00895665 0.0163595,0.0104221 0.0153889,0.0118083 0.0143011,0.0131046 0.0131046,0.0143011 0.0118083,0.0153889 0.0104221,0.0163595 0.00895665,0.0172056 0.007423,0.0179207 0.00583286,0.0184995 0.00419833,0.0189375 0.00253185,0.0192313 0.000846096,0.0193788 -0.000846096,0.0193788 -0.00253185,0.0192313 -0.00419833,0.0189375 -0.00583286,0.0184995 -0.007423,0.0179207 -0.00895665,0.0172056 -0.0104221,0.0163595 -0.0118083,0.0153889 -0.0131046,0.0143011 -0.0143011,0.0131046 -0.0153889,0.0118083 -0.0163595,0.0104221 -0.0172056,0.00895665 -0.0179207,0.007423 -0.0184995,0.00583286 -0.0189375,0.00419833 -0.0192313,0.00253185 -0.0193788,0.000846096 -0.0193788,-0.000846096 -0.0192313,-0.00253185 -0.0189375,-0.00419833 -0.0184995,-0.00583286 -0.0179207,-0.007423 -0.0172056,-0.00895665 -0.0163595,-0.0104221 -0.0153889,-0.0118083 -0.0143011,-0.0131046 -0.0131046,-0.0143011 -0.0118083,-0.0153889 -0.0104221,-0.0163595 -0.00895665,-0.0172056 -0.007423,-0.0179207 -0.00583286,-0.0184995 -0.00419833,-0.0189375 -0.00253185,-0.0192313 -0.000846096,-0.0193788 z "/>
</g></g></svg>
