<?xml version="1.0" encoding="UTF-8" standalone="no"?>
<!DOCTYPE svg PUBLIC "-//W3C//DTD SVG 1.1//EN" "http://www.w3.org/Graphics/SVG/1.1/DTD/svg11-flat.dtd"
[

]>
<svg xmlns="http://www.w3.org/2000/svg"  viewBox="-0.0891147 -0.0891147 7.30741 7.30741"><g fill="none" stroke="black" stroke-width="0.0125" transform="translate(0,7.12918) scale(1, -1)">
<g id="Output" >
<path fill="rgb(241,240,234)" stroke="rgb(241,240,234)" d="M 4.18749,1.58932 l -0.0135389,0.0101231 -0.0143565,0.00892588 -0.0150685,0.00766297 -0.0156696,0.00634369 -0.0161555,0.00497776 -0.0165226,0.00357522 -0.0167682,0.00214638 -0.0168904,0.000701751 -0.0168885,-0.000748037 -0.0167623,-0.00219232 -0.0165128,-0.00362048 -0.0161418,-0.00502202 -0.0156522,-0.00638661 -0.0150474,-0.00770424 -0.0143319,-0.00896519 -0.0135111,-0.0101602 -0.0135169,-0.0101626 -0.0143396,-0.00896432 -0.0150564,-0.00769984 -0.015662,-0.00637848 -0.0161519,-0.00501 -0.0165225,-0.0036045 -0.016771,-0.00217238 -0.0168956,-0.000724209 -0.0168953,0.000729312 -0.0167703,0.00217745 -0.0165214,0.00360949 -0.0161504,0.00501487 -0.0156601,0.00638321 -0.0150541,0.00770439 -0.0143369,0.00896865 -0.0135138,0.0101667 -0.0134428,0.0101136 -0.0142613,0.0089224 -0.0149745,0.00766535 -0.0155772,0.00635172 -0.0160649,0.00499121 -0.016434,0.00359385 -0.0166819,0.00216997 -0.0168065,0.000730066 -0.0168072,-0.000715223 -0.0166838,-0.00215523 -0.0164372,-0.00357933 -0.0160693,-0.00497702 -0.0155828,-0.00633796 -0.0149813,-0.00765212 -0.0142691,-0.0089098 -0.0134517,-0.0101017 -0.0135157,-0.0101517 -0.0143356,-0.00895676 -0.0150501,-0.00769595 -0.0156539,-0.00637859 -0.0161428,-0.00501434 -0.0165129,-0.00361323 -0.0167617,-0.00218557 -0.0168873,-0.000741848 -0.0168888,0.000707329 -0.0167662,0.00215131 -0.0165203,0.00357947 -0.016153,0.00498133 -0.015667,0.00634658 -0.0150658,0.00766518 -0.0143539,0.00892744 -0.0135364,0.0101241 -0.0135875,0.0101639 -0.0144067,0.00896503 -0.0151204,0.0077005 -0.0157234,0.00637958 -0.0162113,0.00501195 -0.0165804,0.00360761 -0.0168281,0.00217685 -0.0169526,0.000730158 -0.016953,-0.000721885 -0.0168292,-0.00216864 -0.0165822,-0.00359952 -0.0162137,-0.00500404 -0.0157265,-0.00637191 -0.0151242,-0.00769312 -0.0144111,-0.008958 -0.0135924,-0.0101573 -0.0135142,-0.0100662 -0.0143528,-0.00882947 -0.0150786,-0.0075233 -0.0156857,-0.00615798 -0.0161696,-0.00474423 -0.0165263,-0.00329319 -0.016753,-0.00181625 -0.0168481,-0.000325025 0,-0.115095 0.0168575,0.000188524 0.016772,0.00170615 0.0165502,0.00320991 0.0161938,0.00468757 0.0157057,0.00612712 0.01509,0.00751686 0.0143516,0.0088455 0.0134966,0.0101022 0.0135636,0.010197 0.0143892,0.00899443 0.0151085,0.00772543 0.0157161,0.00639934 0.0162077,0.00502597 0.0165794,0.00361545 0.0168287,0.00217822 0.0169536,0.000724895 0.0169532,-0.000733787 0.0168275,-0.00218705 0.0165775,-0.00362415 0.016205,-0.00503447 0.0157128,-0.00640758 0.0151044,-0.00773335 0.0143845,-0.00900198 0.0135582,-0.0102041 0.0135262,-0.0101782 0.0143518,-0.00897662 0.0150709,-0.00770843 0.0156783,-0.00638307 0.0161694,-0.00501036 0.0165405,-0.00360049 0.016789,-0.00216392 0.0169129,-0.000711288 0.0169114,0.000746616 0.0167844,0.00219898 0.016533,0.00363504 0.0161589,0.00504413 0.0156649,0.00641581 0.0150548,0.0077399 0.014333,0.00900658 0.0135049,0.0102064 0.0134224,0.0101422 0.014247,0.00894694 0.0149654,0.00768506 0.0155724,0.00636593 0.0160633,0.00499938 0.0164346,0.00359559 0.0166834,0.002165 0.016808,0.000718289 0.0168073,-0.000733774 0.0166814,-0.00218037 0.0164313,-0.00361073 0.0160587,-0.00501418 0.0155665,-0.00638028 0.0149584,-0.00769885 0.0142388,-0.00896006 0.0134131,-0.0101545 0.0135028,-0.010222 0.0143344,-0.00901901 0.015059,-0.00774872 0.0156714,-0.00642066 0.0161669,-0.00504472 0.0165418,-0.00363115 0.0167934,-0.00219052 0.0169198,-0.000733545 0.01692,0.000728897 0.016794,0.0021859 0.0165428,0.00362661 0.0161682,0.00504027 0.0156731,0.00641635 0.0150611,0.00774459 0.0143368,0.00901507 0.0135056,0.0102183 0.0134812,0.0102018 0.0143094,0.00900342 0.0150314,0.00773816 0.0156417,0.00641544 0.0161359,0.00504508 0.0165103,0.00363727 0.0167622,0.00220246 0.0168895,0.000751289 0.0168915,-0.000705458 0.0167681,-0.00215697 0.0165201,-0.00359246 0.0161496,-0.00500128 0.0156591,-0.00637297 0.0150523,-0.00769734 0.0143338,-0.00896456 0.0135089,-0.0101652 0.0134817,-0.0101094 0.0143318,-0.00886327 0.015067,-0.00754609 0.0156814,-0.00616844 0.0161702,-0.00474136 0.0165295,-0.00327629 0.0167562,-0.00178496 0.0168487,-0.000279327 0,0.115095 -0.0168391,0.000418689 -0.0167371,0.00189715 -0.0165056,0.00336093 -0.0161463,0.00479869 -0.015662,0.0061993 -0.0150565,0.00755193 -0.0143345,0.0088461 -0.0135015,0.0100718 z "/>
<path fill="rgb(241,240,234)" stroke="rgb(241,240,234)" d="M 3.59443,4.1 l 0.440325,0 -0.440325,0.88065 0,-0.88065 z "/>
<path fill="rgb(241,240,234)" stroke="rgb(241,240,234)" d="M 3.59443,2.7223 l -0.562754,-0.562759 -0.210603,0.210594 -0.00732184,-0.00732217 0,-0.262808 0.780679,0 0,0.622295 z M 2.59443,2.37745 l 0.219321,0 0.722549,0.722549 -0.941869,0 0,-0.722549 z "/>
<path fill="rgb(241,240,234)" stroke="rgb(241,240,234)" d="M 3.59443,2.1 l 0,-0.35125 0.00272288,-0.000359393 0.0164489,-0.003651 0.0160685,-0.00506946 0.015566,-0.00644941 0.0149453,-0.00778037 0.014211,-0.00905221 0.0133688,-0.0102553 0.0134604,-0.0103252 0.0143087,-0.00911335 0.0150482,-0.0078322 0.0156733,-0.00649151 0.0161793,-0.00510145 0.0165622,-0.00367261 0.0168191,-0.00221584 0.0169482,-0.000742227 0.0169484,0.000737032 0.0168198,0.00221069 0.0165633,0.00366753 0.0161808,0.00509649 0.0156753,0.0064867 0.0150506,0.00782759 0.0143115,0.00910896 0.0134636,0.0103211 0.0134369,0.0103026 0.0142815,0.00909565 0.0150181,0.00781982 0.015641,0.00648479 0.0161455,0.00510068 0.0165277,0.00367796 0.0167849,0.00222739 0.016915,0.000759958 0.016917,-0.000713224 0.016791,-0.00218101 0.0165378,-0.00363228 0.0161595,-0.00505606 0.0156588,-0.00644156 0.0150397,-0.0077783 0.0143066,-0.00905616 0.0134653,-0.0102655 0.0134494,-0.0102315 0.0143063,-0.00899435 0.0150498,-0.00768585 0.0156739,-0.00631639 0.0161738,-0.00489683 0.0165453,-0.00343843 0.0167856,-0.00195277 0.0168928,-0.000451611 0.00148765,0.437528 -0.719335,0 z M 4.59443,1.1 l 0,0.214775 -0.282245,-6.74224e-09 -0.0168501,0.000721036 -0.0167269,0.00215784 -0.0164815,0.00357886 -0.0161155,0.00497372 -0.0156317,0.00633222 -0.0150336,0.00764442 -0.0143256,0.00890074 -0.0135129,0.010092 -0.0135441,0.0101135 -0.0143601,0.00891704 -0.0150706,0.00765515 -0.0156706,0.00633707 -0.0161555,0.00497248 -0.0165218,0.00357138 -0.0167669,0.00214408 -0.0168889,0.000701031 -0.0168869,-0.00074716 -0.016761,-0.00218987 -0.016512,-0.0036165 -0.0161419,-0.00501659 -0.0156532,-0.00637985 -0.0150497,-0.00769629 -0.0143357,-0.00895623 -0.0135164,-0.0101504 -0.0135205,-0.0101515 -0.0143415,-0.00895423 -0.0150567,-0.00769097 -0.015661,-0.00637101 -0.0161498,-0.00500408 -0.0165195,-0.00360026 -0.0167675,-0.00216989 -0.0168918,-0.00072353 -0.0168916,0.000728166 -0.0167669,0.00217449 -0.0165185,0.00360479 -0.0161484,0.00500851 -0.0156592,0.00637531 -0.0150546,0.0076951 -0.014339,0.00895817 -0.0135177,0.0101552 -0.0134481,0.0101034 -0.0142649,0.00891307 -0.0149766,0.00765713 -0.015578,0.00634479 -0.0160646,0.00498572 -0.016433,0.00358994 -0.00267315,0.000347393 0,-0.300811 1,0 z "/>
<path fill="rgb(241,240,234)" stroke="rgb(241,240,234)" d="M 4.81479,2.1 l 0.219967,0 -0.440325,0.88065 0,-0.603199 0.0816328,0 0.138726,-0.277451 z "/>
<path fill="rgb(241,240,234)" stroke="rgb(241,240,234)" d="M 2.81375,2.1 l 0,-0.437528 0.016902,0.000357473 0.0168019,0.00187142 0.0165664,0.00337029 0.0161976,0.00484202 0.0156982,0.00627474 0.0150724,0.00765693 0.0143252,0.00897744 0.0134626,0.0102256 0.0135185,0.0102994 0.0143609,0.00908812 0.015095,0.00780833 0.0157153,0.00646969 0.0162172,0.00508229 0.0165969,0.00365658 0.0168515,0.00220332 0.0169791,0.000733451 0.0169787,-0.000741945 0.0168504,-0.00221175 0.0165951,-0.00366489 0.0162147,-0.0050904 0.0157121,-0.00647755 0.0150911,-0.00781588 0.0143563,-0.00909531 0.0135134,-0.0103062 0.0134838,-0.0102819 0.0143263,-0.00907141 0.0150603,-0.00779226 0.0156804,-0.00645416 0.0161819,-0.00506724 0.016561,-0.00364198 0.0168149,-0.00218918 0.0169415,-0.000719816 0.01694,0.000754993 0.0168103,0.00222409 0.0165534,0.00367637 0.0161714,0.00510083 0.015667,0.00648671 0.0150441,0.00782352 0.0143074,0.00910114 0.0134625,0.0103099 0.013378,0.0102433 0.0142191,0.00903944 0.0149523,0.00776693 0.0155718,0.00643542 0.016073,0.00505502 0.0164521,0.00363622 0.0167063,0.00218979 0.0168335,0.000726728 0.0168329,-0.000741856 0.0139814,-0.00184541 0,0.35125 -0.780679,0 z M 3.59443,1.1 l 0,0.300811 -0.0140071,0.00182031 -0.0168047,0.000729508 -0.0168054,-0.000714062 -0.0166822,-0.00215237 -0.0164363,-0.00357483 -0.0160692,-0.00497096 -0.0155838,-0.00633047 -0.0149836,-0.00764336 -0.0142731,-0.00889995 -0.0134574,-0.010091 -0.0135197,-0.0101397 -0.0143376,-0.00894581 -0.0150504,-0.00768635 -0.0156528,-0.00637051 -0.0161405,-0.00500797 -0.0165098,-0.00360869 -0.016758,-0.00218296 -0.0168833,-0.000741212 -0.0168848,0.000705968 -0.0167625,0.00214797 -0.0165173,0.00357422 -0.0161509,0.00497426 -0.0156661,0.00633783 -0.0150664,0.00765491 -0.0143563,0.00891587 -0.0135408,0.0101114 -0.0135932,0.0101522 -0.0144104,0.00895439 -0.0151225,0.00769113 -0.015724,0.00637168 -0.0162106,0.00500568 -0.0165789,0.00360312 -0.016826,0.00217423 -0.0169502,0.000729459 -0.0169506,-0.000720642 -0.0168271,-0.00216548 -0.0165808,-0.00359449 -0.0162133,-0.00499725 -0.0157273,-0.0063635 -0.0151265,-0.00768326 -0.0144151,-0.0089469 -0.0135984,-0.0101452 -0.0134102,-0.0100051 -0.0142153,-0.00882387 -0.0149167,-0.00757823 -0.0155091,-0.00627727 -0.0159883,-0.00493048 -0.0163508,-0.00354771 -0.016594,-0.00213904 -0.016716,-0.000714752 -0.220545,9.43695e-07 0,-0.214773 0.970163,0 0.0298374,0 z "/>
<path fill="rgb(241,240,234)" stroke="rgb(241,240,234)" d="M 4.81479,2.1 l 0.392612,-0.785224 -0.612971,-1.46426e-08 0,-0.214775 0.940325,4.44089e-16 -0.5,1 -0.219967,0 z "/>
<path fill="rgb(241,240,234)" stroke="rgb(241,240,234)" d="M 4.53475,3.1 l -0.5,1 -0.440325,0 0,-0.941869 0.257507,0.257507 0.217915,-0.217915 -0.0977215,-0.0977225 0.562624,0 z "/>
<path fill="rgb(241,240,234)" stroke="rgb(241,240,234)" d="M 4.53475,3.1 l -0.562624,0 -0.377701,-0.377705 0,-0.622295 0.719335,0 0.00094337,0.277451 0.279722,0 0,0.603199 -0.0596748,0.11935 z "/>
<path fill="rgb(241,240,234)" stroke="rgb(241,240,234)" d="M 3.09443,4.1 l 0.5,0 0,0.88065 -0.0298374,0.0596748 -0.470163,-0.940325 z "/>
<path fill="rgb(241,240,234)" stroke="rgb(241,240,234)" d="M 2.09443,2.1 l 0.219241,0 0.138726,0.277451 0.142034,0 0,0.722549 -0.5,-1 z "/>
<path fill="rgb(241,240,234)" stroke="rgb(241,240,234)" d="M 2.31367,2.1 l -0.219241,0 -0.5,-1 1,-4.44089e-16 0,0.214773 -0.673372,2.88131e-06 0.392612,0.785224 z "/>
<path fill="rgb(241,240,234)" stroke="rgb(241,240,234)" d="M 2.59443,3.1 l 0.941869,0 0.0581306,0.0581306 0,0.941869 -0.5,0 -0.5,-1 z "/>
<path fill="rgb(241,240,234)" stroke="rgb(241,240,234)" d="M 3.56459,0.2 l 3.26459,0 0.00883388,0.000390951 0.00876481,0.0011698 0.0086272,0.0019395 0.00842214,0.00269403 0.00815123,0.0034275 0.00781658,0.00413417 0.00742081,0.00480851 0.00696702,0.00544526 0.00645876,0.00603943 0.00589999,0.00658638 0.00529509,0.00708183 0.00464879,0.0075219 0.00396614,0.00790316 0.00325248,0.00822263 0.00251339,0.0084778 0.00175464,0.00866669 0.000982177,0.00878781 0.000202033,0.00884022 -0.000579691,0.0088235 -0.00135688,0.0087378 -0.00212346,0.00858377 -0.00287344,0.00836263 -0.00360095,0.0080761 -3.26459,6.52918 -0.00412828,0.00744612 -0.0047467,0.00706797 -0.00533072,0.00663859 -0.00587609,0.00616109 -0.00637887,0.00563892 -0.00683541,0.00507588 -0.0072424,0.00447605 -0.0075969,0.00384377 -0.00789632,0.00318363 -0.00813851,0.00250041 -0.00832171,0.00179907 -0.00844458,0.00108468 -0.00850624,0.000362437 0,-0.323607 3.10279,-6.20557 -3.10279,2.66454e-15 0,-0.2 z "/>
<path fill="rgb(241,240,234)" stroke="rgb(241,240,234)" d="M 3.56459,0.2 l 0,0.2 -3.10279,0 3.10279,6.20557 0,0.323607 -0.00850624,-0.000362437 -0.00844458,-0.00108468 -0.00832171,-0.00179907 -0.00813851,-0.00250041 -0.00789632,-0.00318363 -0.0075969,-0.00384377 -0.0072424,-0.00447605 -0.00683541,-0.00507588 -0.00637887,-0.00563892 -0.00587609,-0.00616109 -0.00533072,-0.00663859 -0.0047467,-0.00706797 -0.00412828,-0.00744612 -3.26459,-6.52918 -0.00360095,-0.0080761 -0.00287344,-0.00836263 -0.00212346,-0.00858377 -0.00135688,-0.0087378 -0.000579691,-0.0088235 0.000202033,-0.00884022 0.000982177,-0.00878781 0.00175464,-0.00866669 0.00251339,-0.0084778 0.00325248,-0.00822263 0.00396614,-0.00790316 0.00464879,-0.0075219 0.00529509,-0.00708183 0.00589999,-0.00658638 0.00645876,-0.00603943 0.00696702,-0.00544526 0.00742081,-0.00480851 0.00781658,-0.00413417 0.00815123,-0.0034275 0.00842214,-0.00269403 0.0086272,-0.0019395 0.00876481,-0.0011698 0.00883388,-0.000390951 3.26459,-8.88178e-16 z "/>
<path fill="rgb(42,41,42)" stroke="rgb(42,41,42)" d="M 3.92106,3.31417 l 0.0323469,0 -0.0323469,0.0323469 0,-0.0323469 z "/>
<path fill="rgb(42,41,42)" stroke="rgb(42,41,42)" d="M 4.92106,1.88746 l -0.213355,0.426709 -0.393211,0 -0.00221586,-0.651698 -0.0168928,0.000451611 -0.0167856,0.00195277 -0.0165453,0.00343843 -0.0161738,0.00489683 -0.0156739,0.00631639 -0.0150498,0.00768585 -0.0143063,0.00899435 -0.0134494,0.0102315 -0.0134653,0.0102655 -0.0143066,0.00905616 -0.0150397,0.0077783 -0.0156588,0.00644156 -0.0161595,0.00505606 -0.0165378,0.00363228 -0.016791,0.00218101 -0.016917,0.000713224 -0.016915,-0.000759958 -0.0167849,-0.00222739 -0.0165277,-0.00367796 -0.0161455,-0.00510068 -0.015641,-0.00648479 -0.0150181,-0.00781982 -0.0142815,-0.00909565 -0.0134369,-0.0103026 -0.0134636,-0.0103211 -0.00325226,-0.00206999 0,-0.116831 0.00310131,0.00193876 0.0135169,0.0101626 0.0135111,0.0101602 0.0143319,0.00896519 0.0150474,0.00770424 0.0156522,0.00638661 0.0161418,0.00502202 0.0165128,0.00362048 0.0167623,0.00219232 0.0168885,0.000748037 0.0168904,-0.000701751 0.0167682,-0.00214638 0.0165226,-0.00357522 0.0161555,-0.00497776 0.0156696,-0.00634369 0.0150685,-0.00766297 0.0143565,-0.00892588 0.0135389,-0.0101231 0.0135015,-0.0100718 0.0143345,-0.0088461 0.0150565,-0.00755193 0.015662,-0.0061993 0.0161463,-0.00479869 0.0165056,-0.00336093 0.0167371,-0.00189715 0.0168391,-0.000418689 0,-0.115095 -0.0168487,0.000279327 -0.0167562,0.00178496 -0.0165295,0.00327629 -0.0161702,0.00474136 -0.0156814,0.00616844 -0.015067,0.00754609 -0.0143318,0.00886327 -0.0134817,0.0101094 -0.0135089,0.0101652 -0.0143338,0.00896456 -0.0150523,0.00769734 -0.0156591,0.00637297 -0.0161496,0.00500128 -0.0165201,0.00359246 -0.0167681,0.00215697 -0.0168915,0.000705458 -0.0168895,-0.000751289 -0.0167622,-0.00220246 -0.0165103,-0.00363727 -0.0161359,-0.00504508 -0.0156417,-0.00641544 -0.0150314,-0.00773816 -0.0143094,-0.00900342 -0.0134812,-0.0102018 -0.0135056,-0.0102183 -0.00320173,-0.00201326 0,-0.114523 0.00309341,0.0019314 0.0135205,0.0101515 0.0135164,0.0101504 0.0143357,0.00895623 0.0150497,0.00769629 0.0156532,0.00637985 0.0161419,0.00501659 0.016512,0.0036165 0.016761,0.00218987 0.0168869,0.00074716 0.0168889,-0.000701031 0.0167669,-0.00214408 0.0165218,-0.00357138 0.0161555,-0.00497248 0.0156706,-0.00633707 0.0150706,-0.00765515 0.0143601,-0.00891704 0.0135441,-0.0101135 0.0135129,-0.010092 0.0143256,-0.00890074 0.0150336,-0.00764442 0.0156317,-0.00633222 0.0161155,-0.00497372 0.0164815,-0.00357886 0.0167269,-0.00215784 0.0168501,-0.000721036 0.608873,1.45447e-08 0,0.572685 z "/>
<path fill="rgb(42,41,42)" stroke="rgb(42,41,42)" d="M 4.7077,2.31417 l -0.0316409,0.0632818 -0.361355,0 -0.000215166,-0.0632818 0.393211,0 z M 3.92106,3.31417 l 0,-0.265243 0.148794,0.148795 -0.116447,0.116447 -0.0323469,0 z "/>
<path fill="rgb(42,41,42)" stroke="rgb(42,41,42)" d="M 3.18631,2.31417 l 0.73475,0.734757 0,0.265243 -0.170589,0 -0.829411,-0.829411 0,-0.170589 0.26525,0 z "/>
<path fill="rgb(42,41,42)" stroke="rgb(42,41,42)" d="M 4.92106,1.88746 l 0,-0.572685 0.286342,6.84013e-09 -0.286342,0.572685 z "/>
<path fill="rgb(42,41,42)" stroke="rgb(42,41,42)" d="M 3.92106,1.57687 l 0,0.116831 -0.0110593,-0.00703898 -0.0150506,-0.00782759 -0.0156753,-0.0064867 -0.0161808,-0.00509649 -0.0165633,-0.00366753 -0.0168198,-0.00221069 -0.0169484,-0.000737032 -0.0169482,0.000742227 -0.0168191,0.00221584 -0.0165622,0.00367261 -0.0161793,0.00510145 -0.0156733,0.00649151 -0.0150482,0.0078322 -0.0143087,0.00911335 -0.0134604,0.0103252 -0.0133688,0.0102553 -0.014211,0.00905221 -0.0149453,0.00778037 -0.015566,0.00644941 -0.0160685,0.00506946 -0.0164489,0.003651 -0.0167043,0.0022048 -0.0168329,0.000741856 -0.0168335,-0.000726728 -0.0167063,-0.00218979 -0.0164521,-0.00363622 -0.016073,-0.00505502 -0.0155718,-0.00643542 -0.0149523,-0.00776693 -0.0142191,-0.00903944 -0.013378,-0.0102433 -0.0134625,-0.0103099 -0.0143074,-0.00910114 -0.0150441,-0.00782352 -0.015667,-0.00648671 -0.0161714,-0.00510083 -0.0165534,-0.00367637 -0.0168103,-0.00222409 -0.01694,-0.000754993 -0.0169415,0.000719816 -0.0168149,0.00218918 -0.016561,0.00364198 -0.0161819,0.00506724 -0.0156804,0.00645416 -0.0150603,0.00779226 -0.0143263,0.00907141 -0.0134838,0.0102819 -0.0135134,0.0103062 -0.0143563,0.00909531 -0.0150911,0.00781588 -0.0157121,0.00647755 -0.0162147,0.0050904 -0.0165951,0.00366489 -0.0168504,0.00221175 -0.0169787,0.000741945 -0.0169791,-0.000733451 -0.0168515,-0.00220332 -0.0165969,-0.00365658 -0.0162172,-0.00508229 -0.0157153,-0.00646969 -0.015095,-0.00780833 -0.0143609,-0.00908812 -0.0135185,-0.0102994 -0.0134626,-0.0102256 -0.00425615,-0.00266728 0,-0.11682 0.00410644,0.00252617 0.0135142,0.0100662 0.0135924,0.0101573 0.0144111,0.008958 0.0151242,0.00769312 0.0157265,0.00637191 0.0162137,0.00500404 0.0165822,0.00359952 0.0168292,0.00216864 0.016953,0.000721885 0.0169526,-0.000730158 0.0168281,-0.00217685 0.0165804,-0.00360761 0.0162113,-0.00501195 0.0157234,-0.00637958 0.0151204,-0.0077005 0.0144067,-0.00896503 0.0135875,-0.0101639 0.0135364,-0.0101241 0.0143539,-0.00892744 0.0150658,-0.00766518 0.015667,-0.00634658 0.016153,-0.00498133 0.0165203,-0.00357947 0.0167662,-0.00215131 0.0168888,-0.000707329 0.0168873,0.000741848 0.0167617,0.00218557 0.0165129,0.00361323 0.0161428,0.00501434 0.0156539,0.00637859 0.0150501,0.00769595 0.0143356,0.00895676 0.0135157,0.0101517 0.0134517,0.0101017 0.0142691,0.0089098 0.0149813,0.00765212 0.0155828,0.00633796 0.0160693,0.00497702 0.0164372,0.00357933 0.0166838,0.00215523 0.0168072,0.000715223 0.0168065,-0.000730066 0.0166819,-0.00216997 0.016434,-0.00359385 0.0160649,-0.00499121 0.0155772,-0.00635172 0.0149745,-0.00766535 0.0142613,-0.0089224 0.0134428,-0.0101136 0.0135138,-0.0101667 0.0143369,-0.00896865 0.0150541,-0.00770439 0.0156601,-0.00638321 0.0161504,-0.00501487 0.0165214,-0.00360949 0.0167703,-0.00217745 0.0168953,-0.000729312 0.0168956,0.000724209 0.016771,0.00217238 0.0165225,0.0036045 0.0161519,0.00501 0.015662,0.00637848 0.0150564,0.00769984 0.0112383,0.00702556 z M 3.92106,1.46127 l -0.0111351,-0.00700181 -0.0150611,-0.00774459 -0.0156731,-0.00641635 -0.0161682,-0.00504027 -0.0165428,-0.00362661 -0.016794,-0.0021859 -0.01692,-0.000728897 -0.0169198,0.000733545 -0.0167934,0.00219052 -0.0165418,0.00363115 -0.0161669,0.00504472 -0.0156714,0.00642066 -0.015059,0.00774872 -0.0143344,0.00901901 -0.0135028,0.010222 -0.0134131,0.0101545 -0.0142388,0.00896006 -0.0149584,0.00769885 -0.0155665,0.00638028 -0.0160587,0.00501418 -0.0164313,0.00361073 -0.0166814,0.00218037 -0.0168073,0.000733774 -0.016808,-0.000718289 -0.0166834,-0.002165 -0.0164346,-0.00359559 -0.0160633,-0.00499938 -0.0155724,-0.00636593 -0.0149654,-0.00768506 -0.014247,-0.00894694 -0.0134224,-0.0101422 -0.0135049,-0.0102064 -0.014333,-0.00900658 -0.0150548,-0.0077399 -0.0156649,-0.00641581 -0.0161589,-0.00504413 -0.016533,-0.00363504 -0.0167844,-0.00219898 -0.0169114,-0.000746616 -0.0169129,0.000711288 -0.016789,0.00216392 -0.0165405,0.00360049 -0.0161694,0.00501036 -0.0156783,0.00638307 -0.0150709,0.00770843 -0.0143518,0.00897662 -0.0135262,0.0101782 -0.0135582,0.0102041 -0.0143845,0.00900198 -0.0151044,0.00773335 -0.0157128,0.00640758 -0.016205,0.00503447 -0.0165775,0.00362415 -0.0168275,0.00218705 -0.0169532,0.000733787 -0.0169536,-0.000724895 -0.0168287,-0.00217822 -0.0165794,-0.00361545 -0.0162077,-0.00502597 -0.0157161,-0.00639934 -0.0151085,-0.00772543 -0.0143892,-0.00899443 -0.0135636,-0.010197 -0.0134966,-0.0101022 -0.00421327,-0.00259681 0,-0.114589 0.00420657,0.00261114 0.0134102,0.0100051 0.0135984,0.0101452 0.0144151,0.0089469 0.0151265,0.00768326 0.0157273,0.0063635 0.0162133,0.00499725 0.0165808,0.00359449 0.0168271,0.00216548 0.0169506,0.000720642 0.0169502,-0.000729459 0.016826,-0.00217423 0.0165789,-0.00360312 0.0162106,-0.00500568 0.015724,-0.00637168 0.0151225,-0.00769113 0.0144104,-0.00895439 0.0135932,-0.0101522 0.0135408,-0.0101114 0.0143563,-0.00891587 0.0150664,-0.00765491 0.0156661,-0.00633783 0.0161509,-0.00497426 0.0165173,-0.00357422 0.0167625,-0.00214797 0.0168848,-0.000705968 0.0168833,0.000741212 0.016758,0.00218296 0.0165098,0.00360869 0.0161405,0.00500797 0.0156528,0.00637051 0.0150504,0.00768635 0.0143376,0.00894581 0.0135197,0.0101397 0.0134574,0.010091 0.0142731,0.00889995 0.0149836,0.00764336 0.0155838,0.00633047 0.0160692,0.00497096 0.0164363,0.00357483 0.0166822,0.00215237 0.0168054,0.000714062 0.0168047,-0.000729508 0.0166803,-0.0021677 0.016433,-0.00358994 0.0160646,-0.00498572 0.015578,-0.00634479 0.0149766,-0.00765713 0.0142649,-0.00891307 0.0134481,-0.0101034 0.0135177,-0.0101552 0.014339,-0.00895817 0.0150546,-0.0076951 0.0156592,-0.00637531 0.0161484,-0.00500851 0.0165185,-0.00360479 0.0167669,-0.00217449 0.0168916,-0.000728166 0.0168918,0.00072353 0.0167675,0.00216989 0.0165195,0.00360026 0.0161498,0.00500408 0.015661,0.00637101 0.0150567,0.00769097 0.0112481,0.00702283 0,0.114523 z M 2.92106,2.31417 l 0,-0.0440209 0.110618,-0.110613 0.154632,0.154634 -0.26525,0 z "/>
<path fill="rgb(42,41,42)" stroke="rgb(42,41,42)" d="M 2.42075,2.31417 l 0.392995,0 0,0.0486381 0.00732184,0.00732217 0.0559629,-0.0559603 0.0440229,0 0,0.170589 -0.107308,-0.107308 -0.361354,0 -0.0316409,-0.0632818 z "/>
<path fill="rgb(42,41,42)" stroke="rgb(42,41,42)" d="M 2.92106,1.57633 l 0,0.11682 -0.0100691,-0.00631016 -0.0150724,-0.00765693 -0.0156982,-0.00627474 -0.0161976,-0.00484202 -0.0165664,-0.00337029 -0.0168019,-0.00187142 -0.016902,-0.000357473 0,0.651698 -0.392995,0 -0.499697,-0.999394 0.893916,-3.825e-06 0.016716,0.000714752 0.016594,0.00213904 0.0163508,0.00354771 0.0159883,0.00493048 0.0155091,0.00627727 0.0149167,0.00757823 0.0100087,0.00621272 0,0.114589 -0.0101383,-0.00624868 -0.01509,-0.00751686 -0.0157057,-0.00612712 -0.0161938,-0.00468757 -0.0165502,-0.00320991 -0.016772,-0.00170615 -0.0168575,-0.000188524 0,0.115095 0.0168481,0.000325025 0.016753,0.00181625 0.0165263,0.00329319 0.0161696,0.00474423 0.0156857,0.00615798 0.0150786,0.0075233 0.0102464,0.0063033 z M 2.92106,2.27015 l 0,0.0440209 -0.0440229,0 0.0440229,-0.0440209 z "/>
<path fill="rgb(42,41,42)" stroke="rgb(42,41,42)" d="M 3.75047,3.31417 l 0.170589,0 0,0.0323469 -0.0691213,0.0691213 -0.101468,-0.101468 z "/>
<path fill="rgb(187,30,16)" stroke="rgb(187,30,16)" d="M 3.56459,5.04033 l 1.97016,-3.94033 -1.97016,-4.44089e-16 0,-0.7 3.10279,-2.66454e-15 -3.10279,6.20557 0,-1.56525 z "/>
<path fill="rgb(187,30,16)" stroke="rgb(187,30,16)" d="M 3.56459,0.2 l 0,-0.2 3.26459,-1.77636e-15 0.0265016,0.00117285 0.0262944,0.00350939 0.0258816,0.00581849 0.0252664,0.00808209 0.0244537,0.0102825 0.0234497,0.0124025 0.0222624,0.0144255 0.0209011,0.0163358 0.0193763,0.0181183 0.0177,0.0197591 0.0158853,0.0212455 0.0139464,0.0225657 0.0118984,0.0237095 0.00975744,0.0246679 0.00754016,0.0254334 0.00526392,0.0260001 0.00294653,0.0263634 0.000606098,0.0265207 -0.00173907,0.0264705 -0.00407065,0.0262134 -0.00637039,0.0257513 -0.00862033,0.0250879 -0.0108029,0.0242283 -3.26459,6.52918 -0.0123848,0.0223384 -0.0142401,0.0212039 -0.0159921,0.0199158 -0.0176283,0.0184833 -0.0191366,0.0169168 -0.0205062,0.0152277 -0.0217272,0.0134282 -0.0227907,0.0115313 -0.023689,0.00955089 -0.0244155,0.00750124 -0.0249651,0.00539721 -0.0253337,0.00325405 -0.0255187,0.00108731 0,-0.2 0.00850624,-0.000362437 0.00844458,-0.00108468 0.00832171,-0.00179907 0.00813851,-0.00250041 0.00789632,-0.00318363 0.0075969,-0.00384377 0.0072424,-0.00447605 0.00683541,-0.00507588 0.00637887,-0.00563892 0.00587609,-0.00616109 0.00533072,-0.00663859 0.0047467,-0.00706797 0.00412828,-0.00744612 3.26459,-6.52918 0.00360095,-0.0080761 0.00287344,-0.00836263 0.00212346,-0.00858377 0.00135688,-0.0087378 0.000579691,-0.0088235 -0.000202033,-0.00884022 -0.000982177,-0.00878781 -0.00175464,-0.00866669 -0.00251339,-0.0084778 -0.00325248,-0.00822263 -0.00396614,-0.00790316 -0.00464879,-0.0075219 -0.00529509,-0.00708183 -0.00589999,-0.00658638 -0.00645876,-0.00603943 -0.00696702,-0.00544526 -0.00742081,-0.00480851 -0.00781658,-0.00413417 -0.00815123,-0.0034275 -0.00842214,-0.00269403 -0.0086272,-0.0019395 -0.00876481,-0.0011698 -0.00883388,-0.000390951 -3.26459,0 z "/>
<path fill="rgb(187,30,16)" stroke="rgb(187,30,16)" d="M 3.56459,0.2 l -3.26459,8.88178e-16 -0.00883388,0.000390951 -0.00876481,0.0011698 -0.0086272,0.0019395 -0.00842214,0.00269403 -0.00815123,0.0034275 -0.00781658,0.00413417 -0.00742081,0.00480851 -0.00696702,0.00544526 -0.00645876,0.00603943 -0.00589999,0.00658638 -0.00529509,0.00708183 -0.00464879,0.0075219 -0.00396614,0.00790316 -0.00325248,0.00822263 -0.00251339,0.0084778 -0.00175464,0.00866669 -0.000982177,0.00878781 -0.000202033,0.00884022 0.000579691,0.0088235 0.00135688,0.0087378 0.00212346,0.00858377 0.00287344,0.00836263 0.00360095,0.0080761 3.26459,6.52918 0.00412828,0.00744612 0.0047467,0.00706797 0.00533072,0.00663859 0.00587609,0.00616109 0.00637887,0.00563892 0.00683541,0.00507588 0.0072424,0.00447605 0.0075969,0.00384377 0.00789632,0.00318363 0.00813851,0.00250041 0.00832171,0.00179907 0.00844458,0.00108468 0.00850624,0.000362437 0,0.2 -0.0255187,-0.00108731 -0.0253337,-0.00325405 -0.0249651,-0.00539721 -0.0244155,-0.00750124 -0.023689,-0.00955089 -0.0227907,-0.0115313 -0.0217272,-0.0134282 -0.0205062,-0.0152277 -0.0191366,-0.0169168 -0.0176283,-0.0184833 -0.0159921,-0.0199158 -0.0142401,-0.0212039 -0.0123848,-0.0223384 -3.26459,-6.52918 -0.0108029,-0.0242283 -0.00862033,-0.0250879 -0.00637039,-0.0257513 -0.00407065,-0.0262134 -0.00173907,-0.0264705 0.000606098,-0.0265207 0.00294653,-0.0263634 0.00526392,-0.0260001 0.00754016,-0.0254334 0.00975744,-0.0246679 0.0118984,-0.0237095 0.0139464,-0.0225657 0.0158853,-0.0212455 0.0177,-0.0197591 0.0193763,-0.0181183 0.0209011,-0.0163358 0.0222624,-0.0144255 0.0234497,-0.0124025 0.0244537,-0.0102825 0.0252664,-0.00808209 0.0258816,-0.00581849 0.0262944,-0.00350939 0.0265016,-0.00117285 3.26459,0 0,0.2 z "/>
<path fill="rgb(187,30,16)" stroke="rgb(187,30,16)" d="M 3.56459,5.04033 l 0,1.56525 -3.10279,-6.20557 3.10279,0 0,0.7 -1.97016,4.44089e-16 1.97016,3.94033 z "/>
</g></g></svg>
