<?xml version="1.0" encoding="UTF-8" standalone="no"?>
<!DOCTYPE svg PUBLIC "-//W3C//DTD SVG 1.1//EN" "http://www.w3.org/Graphics/SVG/1.1/DTD/svg11-flat.dtd"
[

]>
<svg xmlns="http://www.w3.org/2000/svg"  viewBox="-0.09375 -0.09375 7.6875 7.6875"><g fill="none" stroke="black" stroke-width="0.0125" transform="translate(0,7.5) scale(1, -1)">
<g id="Output" >
<path fill="rgb(241,240,234)" stroke="rgb(241,240,234)" d="M 0.4,3.75 l -0.2,-8.88178e-16 4.44089e-16,-3.05 0.00190265,-0.0435779 0.00569347,-0.0432462 0.00944096,-0.0425854 0.0131166,-0.0416005 0.0166924,-0.0402991 0.0201412,-0.0386909 0.0234367,-0.0367882 0.0265538,-0.0346056 0.0294688,-0.0321596 0.0321596,-0.0294688 0.0346056,-0.0265538 0.0367882,-0.0234367 0.0386909,-0.0201412 0.0402991,-0.0166924 0.0416005,-0.0131166 0.0425854,-0.00944096 0.0432462,-0.00569347 0.0435779,-0.00190265 6.1,0 0.0435779,0.00190265 0.0432462,0.00569347 0.0425854,0.00944096 0.0416005,0.0131166 0.0402991,0.0166924 0.0386909,0.0201412 0.0367882,0.0234367 0.0346056,0.0265538 0.0321596,0.0294688 0.0294688,0.0321596 0.0265538,0.0346056 0.0234367,0.0367882 0.0201412,0.0386909 0.0166924,0.0402991 0.0131166,0.0416005 0.00944096,0.0425854 0.00569347,0.0432462 0.00190265,0.0435779 0,3.05 -0.2,4.44089e-16 0,-3.05 -0.00114159,-0.0261467 -0.00341608,-0.0259477 -0.00566458,-0.0255513 -0.00786996,-0.0249603 -0.0100155,-0.0241794 -0.0120847,-0.0232145 -0.014062,-0.0220729 -0.0159323,-0.0207634 -0.0176813,-0.0192958 -0.0192958,-0.0176813 -0.0207634,-0.0159323 -0.0220729,-0.014062 -0.0232145,-0.0120847 -0.0241794,-0.0100155 -0.0249603,-0.00786996 -0.0255513,-0.00566458 -0.0259477,-0.00341608 -0.0261467,-0.00114159 -6.1,0 -0.0261467,0.00114159 -0.0259477,0.00341608 -0.0255513,0.00566458 -0.0249603,0.00786996 -0.0241794,0.0100155 -0.0232145,0.0120847 -0.0220729,0.014062 -0.0207634,0.0159323 -0.0192958,0.0176813 -0.0176813,0.0192958 -0.0159323,0.0207634 -0.014062,0.0220729 -0.0120847,0.0232145 -0.0100155,0.0241794 -0.00786996,0.0249603 -0.00566458,0.0255513 -0.00341608,0.0259477 -0.00114159,0.0261467 -4.44089e-16,3.05 z "/>
<path fill="rgb(241,240,234)" stroke="rgb(241,240,234)" d="M 0.2,3.75 l 0.2,8.88178e-16 -4.44089e-16,3.05 0.00114159,0.0261467 0.00341608,0.0259477 0.00566458,0.0255513 0.00786996,0.0249603 0.0100155,0.0241794 0.0120847,0.0232145 0.014062,0.0220729 0.0159323,0.0207634 0.0176813,0.0192958 0.0192958,0.0176813 0.0207634,0.0159323 0.0220729,0.014062 0.0232145,0.0120847 0.0241794,0.0100155 0.0249603,0.00786996 0.0255513,0.00566458 0.0259477,0.00341608 0.0261467,0.00114159 6.1,8.88178e-16 0.0261467,-0.00114159 0.0259477,-0.00341608 0.0255513,-0.00566458 0.0249603,-0.00786996 0.0241794,-0.0100155 0.0232145,-0.0120847 0.0220729,-0.014062 0.0207634,-0.0159323 0.0192958,-0.0176813 0.0176813,-0.0192958 0.0159323,-0.0207634 0.014062,-0.0220729 0.0120847,-0.0232145 0.0100155,-0.0241794 0.00786996,-0.0249603 0.00566458,-0.0255513 0.00341608,-0.0259477 0.00114159,-0.0261467 1.77636e-15,-3.05 0.2,-4.44089e-16 -8.88178e-16,3.05 -0.00190265,0.0435779 -0.00569347,0.0432462 -0.00944096,0.0425854 -0.0131166,0.0416005 -0.0166924,0.0402991 -0.0201412,0.0386909 -0.0234367,0.0367882 -0.0265538,0.0346056 -0.0294688,0.0321596 -0.0321596,0.0294688 -0.0346056,0.0265538 -0.0367882,0.0234367 -0.0386909,0.0201412 -0.0402991,0.0166924 -0.0416005,0.0131166 -0.0425854,0.00944096 -0.0432462,0.00569347 -0.0435779,0.00190265 -6.1,-8.88178e-16 -0.0435779,-0.00190265 -0.0432462,-0.00569347 -0.0425854,-0.00944096 -0.0416005,-0.0131166 -0.0402991,-0.0166924 -0.0386909,-0.0201412 -0.0367882,-0.0234367 -0.0346056,-0.0265538 -0.0321596,-0.0294688 -0.0294688,-0.0321596 -0.0265538,-0.0346056 -0.0234367,-0.0367882 -0.0201412,-0.0386909 -0.0166924,-0.0402991 -0.0131166,-0.0416005 -0.00944096,-0.0425854 -0.00569347,-0.0432462 -0.00190265,-0.0435779 4.44089e-16,-3.05 z "/>
<path fill="rgb(0,91,140)" stroke="rgb(0,91,140)" d="M 0.4,3.75 l 6.7,-4.44089e-16 -1.77636e-15,3.05 -0.00114159,0.0261467 -0.00341608,0.0259477 -0.00566458,0.0255513 -0.00786996,0.0249603 -0.0100155,0.0241794 -0.0120847,0.0232145 -0.014062,0.0220729 -0.0159323,0.0207634 -0.0176813,0.0192958 -0.0192958,0.0176813 -0.0207634,0.0159323 -0.0220729,0.014062 -0.0232145,0.0120847 -0.0241794,0.0100155 -0.0249603,0.00786996 -0.0255513,0.00566458 -0.0259477,0.00341608 -0.0261467,0.00114159 -6.1,-8.88178e-16 -0.0261467,-0.00114159 -0.0259477,-0.00341608 -0.0255513,-0.00566458 -0.0249603,-0.00786996 -0.0241794,-0.0100155 -0.0232145,-0.0120847 -0.0220729,-0.014062 -0.0207634,-0.0159323 -0.0192958,-0.0176813 -0.0176813,-0.0192958 -0.0159323,-0.0207634 -0.014062,-0.0220729 -0.0120847,-0.0232145 -0.0100155,-0.0241794 -0.00786996,-0.0249603 -0.00566458,-0.0255513 -0.00341608,-0.0259477 -0.00114159,-0.0261467 4.44089e-16,-3.05 z "/>
<path fill="rgb(0,91,140)" stroke="rgb(0,91,140)" d="M 0.4,3.75 l 4.44089e-16,-3.05 0.00114159,-0.0261467 0.00341608,-0.0259477 0.00566458,-0.0255513 0.00786996,-0.0249603 0.0100155,-0.0241794 0.0120847,-0.0232145 0.014062,-0.0220729 0.0159323,-0.0207634 0.0176813,-0.0192958 0.0192958,-0.0176813 0.0207634,-0.0159323 0.0220729,-0.014062 0.0232145,-0.0120847 0.0241794,-0.0100155 0.0249603,-0.00786996 0.0255513,-0.00566458 0.0259477,-0.00341608 0.0261467,-0.00114159 6.1,0 0.0261467,0.00114159 0.0259477,0.00341608 0.0255513,0.00566458 0.0249603,0.00786996 0.0241794,0.0100155 0.0232145,0.0120847 0.0220729,0.014062 0.0207634,0.0159323 0.0192958,0.0176813 0.0176813,0.0192958 0.0159323,0.0207634 0.014062,0.0220729 0.0120847,0.0232145 0.0100155,0.0241794 0.00786996,0.0249603 0.00566458,0.0255513 0.00341608,0.0259477 0.00114159,0.0261467 0,3.05 -6.7,4.44089e-16 z "/>
<path fill="rgb(0,91,140)" stroke="rgb(0,91,140)" d="M 0.2,3.75 l -0.2,0 4.44089e-16,-3.05 0.00266371,-0.061009 0.00797086,-0.0605447 0.0132173,-0.0596196 0.0183632,-0.0582408 0.0233694,-0.0564187 0.0281977,-0.0541672 0.0328114,-0.0515035 0.0371753,-0.0484478 0.0412564,-0.0450234 0.0450234,-0.0412564 0.0484478,-0.0371753 0.0515035,-0.0328114 0.0541672,-0.0281977 0.0564187,-0.0233694 0.0582408,-0.0183632 0.0596196,-0.0132173 0.0605447,-0.00797086 0.061009,-0.00266371 6.1,-8.88178e-16 0.061009,0.00266371 0.0605447,0.00797086 0.0596196,0.0132173 0.0582408,0.0183632 0.0564187,0.0233694 0.0541672,0.0281977 0.0515035,0.0328114 0.0484478,0.0371753 0.0450234,0.0412564 0.0412564,0.0450234 0.0371753,0.0484478 0.0328114,0.0515035 0.0281977,0.0541672 0.0233694,0.0564187 0.0183632,0.0582408 0.0132173,0.0596196 0.00797086,0.0605447 0.00266371,0.061009 -1.77636e-15,3.05 -0.2,-8.88178e-16 0,-3.05 -0.00190265,-0.0435779 -0.00569347,-0.0432462 -0.00944096,-0.0425854 -0.0131166,-0.0416005 -0.0166924,-0.0402991 -0.0201412,-0.0386909 -0.0234367,-0.0367882 -0.0265538,-0.0346056 -0.0294688,-0.0321596 -0.0321596,-0.0294688 -0.0346056,-0.0265538 -0.0367882,-0.0234367 -0.0386909,-0.0201412 -0.0402991,-0.0166924 -0.0416005,-0.0131166 -0.0425854,-0.00944096 -0.0432462,-0.00569347 -0.0435779,-0.00190265 -6.1,0 -0.0435779,0.00190265 -0.0432462,0.00569347 -0.0425854,0.00944096 -0.0416005,0.0131166 -0.0402991,0.0166924 -0.0386909,0.0201412 -0.0367882,0.0234367 -0.0346056,0.0265538 -0.0321596,0.0294688 -0.0294688,0.0321596 -0.0265538,0.0346056 -0.0234367,0.0367882 -0.0201412,0.0386909 -0.0166924,0.0402991 -0.0131166,0.0416005 -0.00944096,0.0425854 -0.00569347,0.0432462 -0.00190265,0.0435779 -4.44089e-16,3.05 z "/>
<path fill="rgb(0,91,140)" stroke="rgb(0,91,140)" d="M 6.8,7.5 l -6.1,-8.88178e-16 -0.061009,-0.00266371 -0.0605447,-0.00797086 -0.0596196,-0.0132173 -0.0582408,-0.0183632 -0.0564187,-0.0233694 -0.0541672,-0.0281977 -0.0515035,-0.0328114 -0.0484478,-0.0371753 -0.0450234,-0.0412564 -0.0412564,-0.0450234 -0.0371753,-0.0484478 -0.0328114,-0.0515035 -0.0281977,-0.0541672 -0.0233694,-0.0564187 -0.0183632,-0.0582408 -0.0132173,-0.0596196 -0.00797086,-0.0605447 -0.00266371,-0.061009 4.44089e-16,-3.05 0.2,0 -4.44089e-16,3.05 0.00190265,0.0435779 0.00569347,0.0432462 0.00944096,0.0425854 0.0131166,0.0416005 0.0166924,0.0402991 0.0201412,0.0386909 0.0234367,0.0367882 0.0265538,0.0346056 0.0294688,0.0321596 0.0321596,0.0294688 0.0346056,0.0265538 0.0367882,0.0234367 0.0386909,0.0201412 0.0402991,0.0166924 0.0416005,0.0131166 0.0425854,0.00944096 0.0432462,0.00569347 0.0435779,0.00190265 6.1,8.88178e-16 0.0435779,-0.00190265 0.0432462,-0.00569347 0.0425854,-0.00944096 0.0416005,-0.0131166 0.0402991,-0.0166924 0.0386909,-0.0201412 0.0367882,-0.0234367 0.0346056,-0.0265538 0.0321596,-0.0294688 0.0294688,-0.0321596 0.0265538,-0.0346056 0.0234367,-0.0367882 0.0201412,-0.0386909 0.0166924,-0.0402991 0.0131166,-0.0416005 0.00944096,-0.0425854 0.00569347,-0.0432462 0.00190265,-0.0435779 8.88178e-16,-3.05 0.2,8.88178e-16 1.77636e-15,3.05 -0.00266371,0.061009 -0.00797086,0.0605447 -0.0132173,0.0596196 -0.0183632,0.0582408 -0.0233694,0.0564187 -0.0281977,0.0541672 -0.0328114,0.0515035 -0.0371753,0.0484478 -0.0412564,0.0450234 -0.0450234,0.0412564 -0.0484478,0.0371753 -0.0515035,0.0328114 -0.0541672,0.0281977 -0.0564187,0.0233694 -0.0582408,0.0183632 -0.0596196,0.0132173 -0.0605447,0.00797086 -0.061009,0.00266371 z "/>
<path fill="rgb(241,240,234)" stroke="rgb(241,240,234)" d="M 5.29826,6.52645 l -0.0507734,-0.00101547 -0.109671,-0.00710828 -0.104593,-0.015232 -0.100531,-0.0223403 -0.0964695,-0.0294486 -0.0913922,-0.0375723 -0.0873303,-0.0446806 -0.0822529,-0.0528044 -0.0781911,-0.0599126 -0.0741292,-0.0680364 -0.0690519,-0.0751447 -0.06499,-0.0832684 -0.0192939,-0.0274176 1.02867,-0.0365569 0.0385878,-0.00101547 0.106624,-0.0111702 0.097485,-0.0264022 0.0903767,-0.0396033 0.0822529,-0.0528044 0.0741292,-0.0680364 0.0660054,-0.0812375 0.0385878,-0.0599126 0.0426497,-0.0812375 0.0355414,-0.0883457 0.0284331,-0.0964695 0.0233558,-0.102562 0.0162475,-0.109671 0.00913922,-0.117794 0.00304641,-0.119825 -0.00203094,-0.0995159 -0.00913922,-0.114748 -0.015232,-0.109671 -0.0213248,-0.103578 -0.0294486,-0.097485 -0.0345259,-0.0913922 -0.0416342,-0.0852993 -0.047727,-0.0792065 -0.0253867,-0.0345259 -0.0680364,-0.0792065 -0.0761601,-0.06499 -0.0842839,-0.049758 -0.0913922,-0.0365569 -0.0995159,-0.0213248 -0.106624,-0.00710828 1.02968,-0.0223403 0.049758,0.0812375 0.0456961,0.0852993 0.0406187,0.0893612 0.0355414,0.0934231 0.0304641,0.0964695 0.0264022,0.0995159 0.0213248,0.103578 0.0162475,0.10764 0.0121856,0.111702 0.00710828,0.114748 0.00203094,0.11881 0,0.017263 -0.00304641,0.116779 -0.00812375,0.113732 -0.0132011,0.109671 -0.0182784,0.106624 -0.0223403,0.102562 -0.0284331,0.0985004 -0.032495,0.095454 -0.0385878,0.0924076 -0.0426497,0.0873303 -0.047727,0.0852993 -0.0528044,0.080222 -0.032495,0.0467115 -0.06499,0.0792065 -0.0700673,0.0720983 -0.0751447,0.06499 -0.0792065,0.0568662 -0.0842839,0.0487425 -0.0883457,0.0416342 -0.0934231,0.0345259 -0.0985004,0.0264022 -0.102562,0.0192939 -0.10764,0.0111702 -0.112717,0.00406187 z "/>
<path fill="rgb(241,240,234)" stroke="rgb(241,240,234)" d="M 4.26959,6.00247 l -0.0517889,-0.0812375 -0.0467115,-0.0842839 -0.0416342,-0.0883457 -0.0365569,-0.0924076 -0.0314795,-0.0964695 -0.0274176,-0.0995159 -0.0223403,-0.103578 -0.017263,-0.106624 -0.0121856,-0.111702 -0.00710828,-0.114748 -0.00203094,-0.117794 0,-0.0456961 0.00406187,-0.116779 0.00913922,-0.113732 0.0142166,-0.109671 0.0182784,-0.105609 0.0233558,-0.102562 0.0284331,-0.0985004 0.0335105,-0.0944386 0.0375723,-0.0913922 0.0426497,-0.0873303 0.047727,-0.0842839 0.0528044,-0.080222 0.0355414,-0.047727 0.0660054,-0.0792065 0.0700673,-0.0720983 0.0751447,-0.0639745 0.080222,-0.0568662 0.0842839,-0.0487425 0.0883457,-0.0416342 0.0944386,-0.0345259 0.097485,-0.0264022 0.102562,-0.0182784 0.10764,-0.0111702 0.111702,-0.00406187 0.0761601,0.00203094 0.108655,0.00812375 0.103578,0.017263 0.0995159,0.0233558 0.0944386,0.032495 0.0893612,0.0385878 0.0852993,0.047727 0.0812375,0.0548353 0.0761601,0.0619436 0.0710828,0.0700673 0.0670209,0.0771756 0.0619436,0.0852993 0.015232,0.0233558 -1.02968,0.0223403 -0.0426497,0.00101547 -0.106624,0.0121856 -0.0985004,0.0264022 -0.0893612,0.0396033 -0.0822529,0.0528044 -0.0741292,0.0670209 -0.0660054,0.0812375 -0.0467115,0.0741292 -0.0416342,0.0822529 -0.0345259,0.0893612 -0.0284331,0.0964695 -0.0223403,0.102562 -0.015232,0.110686 -0.0101547,0.117794 -0.00304641,0.125918 0.00406187,0.112717 0.0101547,0.111702 0.017263,0.106624 0.0233558,0.101547 0.0314795,0.095454 0.0385878,0.0893612 0.0456961,0.0842839 0.00609281,0.0121856 0.062959,0.0893612 0.0690519,0.0751447 0.0761601,0.0619436 0.0842839,0.0487425 0.0903767,0.0345259 0.097485,0.0203094 0.104593,0.00710828 -1.02867,0.0365569 z "/>
<path fill="rgb(241,240,234)" stroke="rgb(241,240,234)" d="M 2.10969,6.52645 l -0.0416342,-0.00101547 -0.10764,-0.00507734 -0.103578,-0.0121856 -0.102562,-0.0182784 -0.0985004,-0.0243712 -0.0964695,-0.0304641 -0.0934231,-0.0365569 -0.0903767,-0.0436651 -0.0883457,-0.049758 -0.0852993,-0.0558508 -0.0822529,-0.0619436 -0.080222,-0.0690519 -0.0771756,-0.0741292 1.11498,-0.0781911 0.113732,-0.00507734 0.10764,-0.017263 0.095454,-0.0284331 0.0822529,-0.0406187 0.0812375,-0.0639745 0.0528044,-0.0812375 0.0182784,-0.0944386 -0.00609281,-0.0517889 -0.0385878,-0.0903767 -0.0751447,-0.0781911 -0.00710828,-0.00507734 -0.0852993,-0.047727 -0.0985004,-0.0294486 -0.111702,-0.00913922 -0.128964,0 0,-0.5646 0.151305,0 0.00812375,0 0.119825,-0.00812375 0.100531,-0.0213248 0.0842839,-0.0345259 0.0304641,-0.0182784 0.0781911,-0.06499 0.06499,-0.0873303 0.0213248,-0.0375723 0.0355414,-0.0995159 0.0121856,-0.101547 -0.00710828,-0.0761601 -0.0314795,-0.0924076 -0.0578817,-0.0812375 -0.0822529,-0.0710828 -0.0568662,-0.0345259 -0.0873303,-0.0375723 -0.0985004,-0.0264022 -0.109671,-0.0162475 -0.119825,-0.00507734 1.07944,-0.0162475 0.047727,0.0883457 0.0365569,0.0924076 0.0264022,0.095454 0.015232,0.100531 0.00507734,0.103578 -0.00304641,0.0842839 -0.0142166,0.10764 -0.0264022,0.0985004 -0.0385878,0.0903767 -0.0213248,0.0375723 -0.049758,0.0720983 -0.06499,0.0792065 -0.080222,0.0842839 -0.095454,0.0893612 0.0213248,0.0284331 0.0710828,0.101547 0.0568662,0.0985004 0.0456961,0.095454 0.0314795,0.0924076 0.0192939,0.0893612 0.00609281,0.0873303 0,0.0111702 -0.00710828,0.104593 -0.0192939,0.100531 -0.0314795,0.0944386 -0.0446806,0.0883457 -0.0558508,0.0832684 -0.0680364,0.0781911 -0.080222,0.0720983 -0.00406187,0.00406187 -0.0792065,0.0568662 -0.0852993,0.049758 -0.0893612,0.0426497 -0.0944386,0.0335105 -0.100531,0.0274176 -0.105609,0.0192939 -0.110686,0.0111702 -0.115763,0.00406187 z "/>
<path fill="rgb(241,240,234)" stroke="rgb(241,240,234)" d="M 0.962211,6.0441 l 0.418373,-0.385878 0.0456961,0.0467115 0.0812375,0.0690519 0.0842839,0.0588972 0.0893612,0.047727 0.0924076,0.0375723 0.097485,0.0264022 0.101547,0.0162475 0.104593,0.00507734 -1.11498,0.0781911 z "/>
<path fill="rgb(241,240,234)" stroke="rgb(241,240,234)" d="M 1.2567,4.25282 l -0.449852,-0.339166 0.0233558,-0.0274176 0.0720983,-0.080222 0.0731137,-0.0761601 0.0741292,-0.0731137 0.00406187,-0.00406187 0.0771756,-0.0660054 0.0812375,-0.0599126 0.0842839,-0.0538198 0.0883457,-0.047727 0.0913922,-0.0406187 0.095454,-0.0345259 0.0985004,-0.0284331 0.102562,-0.0223403 0.105609,-0.0162475 0.109671,-0.00913922 0.112717,-0.00304641 0.0203094,0 0.112717,0.00507734 0.108655,0.0111702 0.105609,0.0192939 0.0995159,0.0264022 0.0964695,0.032495 0.0924076,0.0406187 0.0873303,0.047727 0.0832684,0.0538198 0.0792065,0.0619436 0.0213248,0.0182784 0.0792065,0.0761601 0.0680364,0.080222 0.0578817,0.0842839 -1.07944,0.0162475 -0.0893612,0.00304641 -0.10764,0.0101547 -0.102562,0.0203094 -0.097485,0.0274176 -0.0924076,0.0365569 -0.0883457,0.0456961 -0.0822529,0.0538198 -0.0771756,0.0619436 -0.0720983,0.0700673 -0.0670209,0.0792065 z "/>
<path fill="rgb(241,240,234)" stroke="rgb(241,240,234)" d="M 5.79381,2.47473 l -0.269099,-0.0985004 0,-1.42572 0.269099,0 0,0.642791 0.00101547,0.0304641 0.017263,0.0792065 0.0385878,0.0558508 0.0609281,0.0335105 0.0812375,0.0111702 0.430559,0.0294486 -0.0365569,0.0710828 -0.593034,0.0639745 0,0.506719 z "/>
<path fill="rgb(241,240,234)" stroke="rgb(241,240,234)" d="M 6.04666,2.07261 l -0.0436651,-0.00203094 -0.0852993,-0.0162475 -0.0700673,-0.0345259 -0.0538198,-0.0517889 0.593034,-0.0639745 -0.0538198,0.0639745 -0.0467115,0.0375723 -0.0710828,0.0375723 -0.0792065,0.0223403 -0.0893612,0.00710828 z "/>
<path fill="rgb(241,240,234)" stroke="rgb(241,240,234)" d="M 6.4234,1.83295 l -0.430559,-0.0294486 0.0751447,-0.0132011 0.0690519,-0.0456961 0.0426497,-0.0619436 0.0162475,-0.080222 0,-0.651931 0.24879,0 0,0.752462 -0.00304641,0.049758 -0.0182784,0.080222 z "/>
<path fill="rgb(241,240,234)" stroke="rgb(241,240,234)" d="M 5.21702,2.45036 l -0.959618,-1.8055 -0.268084,0 0.958602,1.8055 0.269099,0 z "/>
<path fill="rgb(241,240,234)" stroke="rgb(241,240,234)" d="M 2.68038,2.07261 l -0.0517889,-0.00304641 -0.0781911,-0.0203094 -0.0720983,-0.0375723 -0.0670209,-0.0548353 0.552415,-0.015232 -0.0558508,0.0538198 -0.0680364,0.0426497 -0.0761601,0.0264022 -0.0832684,0.00812375 z "/>
<path fill="rgb(241,240,234)" stroke="rgb(241,240,234)" d="M 3.29576,2.07261 l -0.0264022,-0.00101547 -0.0761601,-0.0111702 -0.0761601,-0.0264022 -0.0761601,-0.0396033 -0.0771756,-0.0528044 0.671225,-0.0375723 -0.0548353,0.0639745 -0.0456961,0.0365569 -0.0710828,0.0375723 -0.0792065,0.0233558 -0.0883457,0.00710828 z "/>
<path fill="rgb(241,240,234)" stroke="rgb(241,240,234)" d="M 2.41128,2.0462 l -0.269099,0 0,-1.09569 0.269099,0 0,0.659039 0.0101547,0.0690519 0.0396033,0.0700673 0.047727,0.0375723 0.0812375,0.017263 0.646853,0 0.43462,0.0284331 -0.0365569,0.0720983 -0.671225,0.0375723 -0.552415,0.015232 0,0.0893612 z "/>
<path fill="rgb(241,240,234)" stroke="rgb(241,240,234)" d="M 3.67148,1.83194 l -0.43462,-0.0284331 0.0741292,-0.0111702 0.0639745,-0.0436651 0.0365569,-0.0609281 0.0132011,-0.0852993 0,-0.651931 0.269099,0 0,0.752462 -0.00304641,0.049758 -0.0192939,0.0792065 z "/>
<path fill="rgb(241,240,234)" stroke="rgb(241,240,234)" d="M 3.23686,1.80351 l -0.646853,0 0.0720983,-0.0121856 0.0700673,-0.0446806 0.0416342,-0.0599126 0.015232,-0.0842839 0,-0.651931 0.257929,0 0,0.663101 0.0111702,0.0639745 0.0456961,0.0690519 0.0538198,0.0396033 0.0792065,0.017263 z "/>
<path fill="rgb(241,240,234)" stroke="rgb(241,240,234)" d="M 1.34504,2.47473 l -0.269099,-0.0985004 0,-1.42572 0.269099,0 0,0.319873 0.148258,0.203094 -0.148258,0.19497 0,0.806282 z "/>
<path fill="rgb(241,240,234)" stroke="rgb(241,240,234)" d="M 1.96549,2.04011 l -0.332058,0 -0.288393,-0.371661 0.148258,-0.19497 0.214264,-0.522966 0.269099,0 -0.299563,0.741292 0.288393,0.348306 z "/>
</g></g></svg>
