<?xml version="1.0" encoding="UTF-8" standalone="no"?>
<!DOCTYPE svg PUBLIC "-//W3C//DTD SVG 1.1//EN" "http://www.w3.org/Graphics/SVG/1.1/DTD/svg11-flat.dtd"
[

]>
<svg xmlns="http://www.w3.org/2000/svg"  viewBox="-0.09375 -0.09375 7.6875 7.6875"><g fill="none" stroke="black" stroke-width="0.0125" transform="translate(0,7.5) scale(1, -1)">
<g id="Output" >
<path fill="rgb(0,91,140)" stroke="rgb(0,91,140)" d="M 3.75,0.4 l 0.089179,0.00389364 0,0.996106 -1,0 0,-0.871894 0.0491583,-0.0153948 0.283598,-0.0624601 0.287942,-0.0376648 0.290122,-0.0125865 z "/>
<path fill="rgb(0,91,140)" stroke="rgb(0,91,140)" d="M 2.83918,1.4 l 1,0 0,1 -0.593735,0 -0.406265,-0.404915 0,-0.595085 z "/>
<path fill="rgb(0,91,140)" stroke="rgb(0,91,140)" d="M 3.83918,0.403894 l 0.202793,0.00885412 0.28975,0.0381463 0.285322,0.0632545 0.222135,0.0700389 0,0.815813 -1,0 0,-0.996106 z "/>
<path fill="rgb(0,91,140)" stroke="rgb(0,91,140)" d="M 3.83918,1.4 l 1,0 0,1 -1,0 0,-1 z "/>
<path fill="rgb(0,91,140)" stroke="rgb(0,91,140)" d="M 4.83918,2.77633 l 0,0.101867 -0.447046,0 -0.0416813,-0.125006 -0.511272,0 0,-0.353192 1,0 0,0.176422 -0.000599324,-0.000201952 -0.0179897,-0.00435586 -0.0183014,-0.00276788 -0.0184733,-0.00115874 -0.0185039,0.000459256 -0.018393,0.00207374 -0.0181416,0.00367238 -0.0177515,0.00524294 -0.0172257,0.00677342 -0.0165682,0.00825213 -0.0157841,0.00966776 -0.0148793,0.0110095 -0.0138608,0.0122671 -0.0127364,0.0134309 -0.0115146,0.014492 -0.0102047,0.0154424 -0.0088169,0.0162747 -0.00736167,0.0169826 -0.00585016,0.0175607 -0.00429394,0.0180046 -0.0027049,0.0183109 -0.00109518,0.0184771 0.27105,0 z "/>
<path fill="rgb(0,91,140)" stroke="rgb(0,91,140)" d="M 4.83918,1.4 l 1,0 0,1 -1,0 0,-1 z "/>
<path fill="rgb(0,91,140)" stroke="rgb(0,91,140)" d="M 6.13604,1.4 l 0.180207,0.196662 0.17791,0.231857 0.157026,0.246481 0.134946,0.259229 0.0272433,0.0657712 -0.974195,0 0,-1 0.296863,0 z "/>
<path fill="rgb(0,91,140)" stroke="rgb(0,91,140)" d="M 5.83918,1.4 l 0,-0.26548 0.0641595,0.0492313 0.215469,0.197441 0.0172341,0.0188077 -0.296863,0 z "/>
<path fill="rgb(0,91,140)" stroke="rgb(0,91,140)" d="M 5.25211,4.4 l 0.587069,0 0,0.585119 -0.587069,-0.585119 z "/>
<path fill="rgb(0,91,140)" stroke="rgb(0,91,140)" d="M 5.83918,4.03098 l 0.210821,0.000313339 -8.88178e-16,-0.0972312 0.185229,-0.532548 0,-0.00151258 0.60395,0 0,1 -1,0 0,-0.369022 z "/>
<path fill="rgb(0,91,140)" stroke="rgb(0,91,140)" d="M 6.83918,3.4 l 0,-0.937702 0.0587913,0.141935 0.0878812,0.278724 0.0632545,0.285322 0.0305067,0.231721 -0.240434,0 z "/>
<path fill="rgb(0,91,140)" stroke="rgb(0,91,140)" d="M 2.83918,0.528106 l 0,0.871894 -0.597069,0 -0.402931,-0.401593 0.245477,-0.155146 0.257991,-0.133304 0.268566,-0.11046 0.227965,-0.0713913 z "/>
<path fill="rgb(0,91,140)" stroke="rgb(0,91,140)" d="M 6.6651,5.4 l -0.409661,0 -0.416264,-0.414881 0,-0.585119 1,0 0,0.638479 -0.0332138,0.0839557 -0.136996,0.271378 -0.00386433,0.00618747 z "/>
<path fill="rgb(0,91,140)" stroke="rgb(0,91,140)" d="M 2.24211,1.4 l 0.597069,0 0,0.595085 -0.597069,-0.595085 z "/>
<path fill="rgb(0,91,140)" stroke="rgb(0,91,140)" d="M 6.81337,2.4 l 0.0258046,0.0622977 0,0.937702 -0.60395,0 0,-0.646808 -0.351954,0 -0.0440955,0.108184 0,-0.461376 0.974195,0 z "/>
<path fill="rgb(0,91,140)" stroke="rgb(0,91,140)" d="M 6.6651,5.4 l -0.157169,0.251654 -0.252493,-0.251654 0.409661,0 z "/>
<path fill="rgb(0,91,140)" stroke="rgb(0,91,140)" d="M 6.83918,4.4 l 0.19446,0 -0.0365399,0.173923 -0.0793025,0.265832 -0.0786173,0.198724 0,-0.638479 z "/>
<path fill="rgb(0,91,140)" stroke="rgb(0,91,140)" d="M 3.24544,2.4 l 0.593735,0 0,0.353192 -0.239366,0 -0.354369,-0.353192 z "/>
<path fill="rgb(0,91,140)" stroke="rgb(0,91,140)" d="M 4.83918,1.4 l 0,-0.815813 0.0565885,0.0178423 0.270004,0.111839 0.259229,0.134946 0.246481,0.157026 0.167698,0.128679 0,0.26548 -1,0 z "/>
<path fill="rgb(0,91,140)" stroke="rgb(0,91,140)" d="M 5.83918,4.03098 l 0,0.369022 -0.587069,0 -0.371681,-0.370447 0.95875,0.00142497 z "/>
<path fill="rgb(0,91,140)" stroke="rgb(0,91,140)" d="M 2.87318,4.09615 l 0.620546,0.407504 -0.620546,0.402906 -0.620546,-0.402906 0.620546,-0.407504 z "/>
<path fill="rgb(0,91,140)" stroke="rgb(0,91,140)" d="M 1.84513,3.89701 l -0.277863,0 -0.166706,-0.500138 0.444569,0 0,0.500138 z "/>
<path fill="rgb(0,91,140)" stroke="rgb(0,91,140)" d="M 4.92468,3.89701 l 0,-0.500138 0.63905,0 0,0.500138 -0.63905,0 z "/>
<path fill="rgb(0,91,140)" stroke="rgb(0,91,140)" d="M 5.66563,3.89701 l 0,-0.500138 0.467727,0 -0.175996,0.500138 -0.291731,0 z "/>
<path fill="rgb(0,91,140)" stroke="rgb(0,91,140)" d="M 3.04756,3.89701 l -0.35036,0 0,-0.349196 0.35036,0.349196 z "/>
<path fill="rgb(0,91,140)" stroke="rgb(0,91,140)" d="M 2.59533,3.89701 l -0.639069,0 0,-0.500138 0.589491,0 0.049578,0.0494132 0,0.450724 z "/>
<path fill="rgb(0,91,140)" stroke="rgb(0,91,140)" d="M 7.07961,3.4 l 0.00763957,0.0580283 0.0127478,0.291972 -0.0114859,0.277171 -0.034379,0.27527 -0.0204964,0.0975588 -0.19446,0 0,-1 0.240434,0 z "/>
<path fill="rgb(0,91,140)" stroke="rgb(0,91,140)" d="M 4.24564,3.39688 l 0.57717,0 0,0.500138 -0.0753658,0 -0.501805,-0.500138 z "/>
<path fill="rgb(0,91,140)" stroke="rgb(0,91,140)" d="M 0.4,3.75 l 0.0124489,-0.288536 0.0372542,-0.286391 0.0617827,-0.282118 0.0858519,-0.275748 0.109283,-0.267329 0.131902,-0.256923 0.153541,-0.244608 0.893952,0.890982 -0.00200365,0.0122522 -0.00128202,0.0123486 -0.00055599,0.0124025 0.0409682,0 0.102206,0.101867 -0.286741,0 -0.0509333,-0.125006 -0.389,0 0,0.648321 0.180613,0.532548 0,0.0926334 1.31516,0 -0.7363,0.47696 0.815027,0.541819 0.795849,-0.529057 1.99179,1.98518 -0.243663,0.154106 -0.256011,0.132584 -0.266462,0.110081 -0.274941,0.0867626 -0.281382,0.0628015 -0.28574,0.0383752 -0.287982,0.0136646 -0.28809,-0.0111471 -0.286065,-0.0358763 -0.281921,-0.0603397 -0.275688,-0.0843563 -0.267414,-0.107748 -0.25716,-0.130342 -0.245,-0.15197 -0.231026,-0.172473 -0.215341,-0.191698 -0.198061,-0.209504 -0.185597,-0.234435 -0.163953,-0.250051 -0.141004,-0.263674 -0.116931,-0.275196 -0.0919268,-0.284527 -0.0661902,-0.29159 -0.0399262,-0.296331 -0.0133442,-0.29871 z "/>
<path fill="rgb(0,91,140)" stroke="rgb(0,91,140)" d="M 4.83918,2.8782 l 0,-0.101867 0.835727,0 -0.00109729,-0.0184758 -0.00270674,-0.0183093 -0.00429551,-0.018003 -0.00585145,-0.017559 -0.00736267,-0.0169809 -0.00881762,-0.0162729 -0.0102052,-0.0154406 -0.0115147,-0.0144903 -0.0127363,-0.0134293 -0.0138605,-0.0122656 -0.0148788,-0.0110081 -0.0157834,-0.00966658 -0.0165673,-0.00825115 -0.0172247,-0.00677265 -0.0177504,-0.00524239 -0.0181404,-0.00367206 -0.0183918,-0.00207367 -0.0185026,-0.000459437 -0.0184721,0.00115831 -0.0183003,0.00276721 -0.0179887,0.00435496 -0.0175396,0.00590942 -0.0169564,0.00741872 -0.0162437,0.00887132 -0.0154068,0.0102561 -0.0144522,0.0115625 -0.0133871,0.0127806 -0.0122197,0.013901 -0.0109589,0.0149151 -0.0096144,0.0158152 -0.00819638,0.0165945 -0.00671571,0.017247 -0.282498,0 -0.00671412,-0.0172489 -0.00819508,-0.0165965 -0.0096134,-0.0158173 -0.0109582,-0.0149171 -0.0122193,-0.013903 -0.013387,-0.0127825 -0.0144523,-0.0115644 -0.0154072,-0.0102578 -0.0162443,-0.00887284 -0.0169572,-0.00742005 -0.0169412,-0.00570859 0,-0.176422 1,0 0,0.461376 -0.00685663,0.0168221 -0.993143,0 z "/>
<path fill="rgb(0,91,140)" stroke="rgb(0,91,140)" d="M 3.59572,4.44336 l -0.639183,-0.416663 0.221462,0.000329155 0.417721,0.416333 z "/>
<path fill="rgb(0,91,140)" stroke="rgb(0,91,140)" d="M 1.06776,6.07553 l -0.151112,0.131016 -0.207757,-0.262428 -0.18353,-0.279907 -0.15784,-0.295157 -0.130893,-0.308056 -0.102903,-0.3185 -0.0740935,-0.326407 -0.0446935,-0.331713 -0.0149375,-0.334377 0.0142699,-0.326834 0.042701,-0.324347 0.0708072,-0.319391 0.0983745,-0.312004 0.125193,-0.302243 0.151059,-0.290182 0.175775,-0.275912 0.199154,-0.259542 0.221016,-0.241197 0.241197,-0.221016 0.259542,-0.199154 0.275912,-0.175775 0.290182,-0.151059 0.302243,-0.125193 0.312004,-0.0983745 0.319391,-0.0708072 0.324347,-0.042701 0.326834,-0.0142699 0,0.2 -0.309403,0.0135088 -0.307048,0.0404237 -0.302357,0.0670308 -0.295364,0.0931279 -0.286123,0.118516 -0.274705,0.143002 -0.261196,0.1664 -0.2457,0.188532 -0.228333,0.209229 -0.209229,0.228333 -0.188532,0.2457 -0.1664,0.261196 -0.143002,0.274705 -0.118516,0.286123 -0.0931279,0.295364 -0.0670308,0.302357 -0.0404237,0.307048 -0.0135088,0.309403 0.0141408,0.316544 0.0423099,0.314022 0.0701418,0.308999 0.097415,0.301513 0.123912,0.291626 0.149422,0.279416 0.173742,0.264979 0.196677,0.248431 z "/>
<path fill="rgb(0,91,140)" stroke="rgb(0,91,140)" d="M 7.5,3.75 l -0.0128574,0.310266 -0.0384839,0.308138 -0.0638466,0.303898 -0.0887715,0.297573 -0.189122,-0.06506 0.084037,-0.281703 0.0604415,-0.28769 0.0364315,-0.291704 0.0121716,-0.293718 -0.0135088,-0.309403 -0.0404237,-0.307048 -0.0670308,-0.302357 -0.0931279,-0.295364 -0.118516,-0.286123 -0.143002,-0.274705 -0.1664,-0.261196 -0.188532,-0.2457 -0.209229,-0.228333 -0.228333,-0.209229 -0.2457,-0.188532 -0.261196,-0.1664 -0.274705,-0.143002 -0.286123,-0.118516 -0.295364,-0.0931279 -0.302357,-0.0670308 -0.307048,-0.0404237 -0.309403,-0.0135088 0,-0.2 0.326834,0.0142699 0.324347,0.042701 0.319391,0.0708072 0.312004,0.0983745 0.302243,0.125193 0.290182,0.151059 0.275912,0.175775 0.259542,0.199154 0.241197,0.221016 0.221016,0.241197 0.199154,0.259542 0.175775,0.275912 0.151059,0.290182 0.125193,0.302243 0.0983745,0.312004 0.0708072,0.319391 0.042701,0.324347 0.0142699,0.326834 z "/>
<path fill="rgb(0,91,140)" stroke="rgb(0,91,140)" d="M 1.06776,6.07553 l 0.213058,0.225086 0.231878,0.205645 0.248931,0.184636 0.264087,0.162221 0.27723,0.138568 0.288259,0.11386 0.297092,0.0882837 0.30366,0.0620345 0.307913,0.0353125 0.30982,0.00832127 0.309365,-0.0187333 0.306552,-0.0456452 0.301402,-0.0722091 0.293955,-0.0982226 0.284268,-0.123487 0.272414,-0.147811 0.258483,-0.171008 0.242583,-0.192902 0.224833,-0.213325 0.20537,-0.232122 0.184341,-0.24915 0.161907,-0.264279 0.138239,-0.277394 0.113518,-0.288394 0.189122,0.06506 -0.119913,0.304642 -0.146028,0.293022 -0.171029,0.279168 -0.194726,0.263187 -0.21694,0.245199 -0.2375,0.225343 -0.256249,0.203769 -0.273046,0.180642 -0.287761,0.156138 -0.300283,0.130445 -0.310516,0.103756 -0.318383,0.0762772 -0.323822,0.0482167 -0.326794,0.0197887 -0.327274,-0.00879008 -0.32526,-0.0373019 -0.320767,-0.0655294 -0.313829,-0.0932574 -0.304499,-0.120275 -0.292848,-0.146375 -0.278965,-0.17136 -0.262956,-0.195039 -0.244942,-0.217231 -0.225061,-0.237767 0.151112,-0.131016 z "/>
<path fill="rgb(241,240,234)" stroke="rgb(241,240,234)" d="M 1.88602,2.73933 l 0.0371265,0.0370032 -0.0409682,0 0.00055599,-0.0124025 0.00128202,-0.0123486 0.00200365,-0.0122522 z "/>
<path fill="rgb(241,240,234)" stroke="rgb(241,240,234)" d="M 5.67491,2.77633 l -1.10678,0 0.00109518,-0.0184771 0.0027049,-0.0183109 0.00429394,-0.0180046 0.00585016,-0.0175607 0.00736167,-0.0169826 0.0088169,-0.0162747 0.0102047,-0.0154424 0.0115146,-0.014492 0.0127364,-0.0134309 0.0138608,-0.0122671 0.0148793,-0.0110095 0.0157841,-0.00966776 0.0165682,-0.00825213 0.0172257,-0.00677342 0.0177515,-0.00524294 0.0181416,-0.00367238 0.018393,-0.00207374 0.0185039,-0.000459256 0.0184733,0.00115874 0.0183014,0.00276788 0.0179897,0.00435586 0.0175405,0.00591055 0.0169572,0.00742005 0.0162443,0.00887284 0.0154072,0.0102578 0.0144523,0.0115644 0.013387,0.0127825 0.0122193,0.013903 0.0109582,0.0149171 0.0096134,0.0158173 0.00819508,0.0165965 0.00671412,0.0172489 0.282498,0 0.00671571,-0.017247 0.00819638,-0.0165945 0.0096144,-0.0158152 0.0109589,-0.0149151 0.0122197,-0.013901 0.0133871,-0.0127806 0.0144522,-0.0115625 0.0154068,-0.0102561 0.0162437,-0.00887132 0.0169564,-0.00741872 0.0175396,-0.00590942 0.0179887,-0.00435496 0.0183003,-0.00276721 0.0184721,-0.00115831 0.0185026,0.000459437 0.0183918,0.00207367 0.0181404,0.00367206 0.0177504,0.00524239 0.0172247,0.00677265 0.0165673,0.00825115 0.0157834,0.00966658 0.0148788,0.0110081 0.0138605,0.0122656 0.0127363,0.0134293 0.0115147,0.0144903 0.0102052,0.0154406 0.00881762,0.0162729 0.00736267,0.0169809 0.00585145,0.017559 0.00429551,0.018003 0.00270674,0.0183093 0.00109729,0.0184758 z "/>
<path fill="rgb(241,240,234)" stroke="rgb(241,240,234)" d="M 3.29867,4.75319 l 0,-0.122896 0.19505,-0.126642 -0.19505,-0.128087 0,-0.125848 0.29705,0.193637 0.0733029,0.0730594 -0.356176,0.236776 -0.0141767,0 z "/>
<path fill="rgb(241,240,234)" stroke="rgb(241,240,234)" d="M 3.29867,4.75319 l 0.0141767,0 -0.0141767,0.00942427 0,-0.00942427 z "/>
<path fill="rgb(241,240,234)" stroke="rgb(241,240,234)" d="M 2.43352,4.75319 l 0.203447,0 0.236215,0.153369 0.236215,-0.153369 0.189281,0 0,0.00942427 -0.425496,0.282857 -0.439662,-0.292281 z "/>
<path fill="rgb(241,240,234)" stroke="rgb(241,240,234)" d="M 2.63696,4.75319 l -0.203447,0 -0.134842,-0.0896412 0,-0.130002 0.338289,0.219644 z M 3.29867,4.6303 l 0,0.122896 -0.189281,0 0.189281,-0.122896 z M 2.6972,3.75319 l 0,0.143823 0.35036,0 0.130442,0.130008 -0.221462,-0.000329155 0.342133,0.223025 0,0.125848 -0.425496,-0.279417 -0.574504,0.377269 0,-0.125571 0.495777,-0.321155 -0.495777,0 0,-0.129679 0.296661,0 0,-0.143823 0.101867,0 z "/>
<path fill="rgb(241,240,234)" stroke="rgb(241,240,234)" d="M 2.29867,3.15062 l 0.247083,0.246262 -0.247083,0 0,-0.246262 z M 2.59533,3.75319 l 0,-0.306901 0.101867,0.101528 0,0.205373 -0.101867,0 z "/>
<path fill="rgb(241,240,234)" stroke="rgb(241,240,234)" d="M 1.41795,3.75319 l 0.101381,0 0.0479392,0.143823 0.277863,0 0,-0.143823 0.111137,0 0,0.143823 0.342408,0 0,0.129679 -0.819387,0 0,-0.0926334 -0.0613413,-0.180869 z M 2.29867,4.47342 l -0.0460416,0.0302349 0.0460416,0.0298938 0,0.130002 -0.240523,-0.159896 0.240523,-0.155806 0,0.125571 z "/>
<path fill="rgb(241,240,234)" stroke="rgb(241,240,234)" d="M 1.51933,3.75319 l -0.101381,0 -0.119271,-0.351679 0,-0.648321 0.389,0 0.0509333,0.125006 0.286741,0 0.273326,0.272418 0,0.246262 -0.342408,0 0,0.356315 -0.111137,0 0,-0.356315 -0.444569,0 0.118767,0.356315 z "/>
<path fill="rgb(241,240,234)" stroke="rgb(241,240,234)" d="M 6.11291,3.75319 l -0.0629092,0.180869 8.88178e-16,0.0972312 -0.450187,-0.000669105 0,-0.277431 0.0658223,0 0,0.143823 0.291731,0 0.0506106,-0.143823 0.104932,0 z "/>
<path fill="rgb(241,240,234)" stroke="rgb(241,240,234)" d="M 3.59981,2.75319 l 0.750639,0 0.0416813,0.125006 0.20768,0 0,0.518679 -0.354169,0 -0.645831,-0.643685 z "/>
<path fill="rgb(241,240,234)" stroke="rgb(241,240,234)" d="M 5.66563,3.75319 l -0.0658223,0 0,-0.874994 0.23251,0 0.0509521,-0.125006 0.351954,0 0,0.648321 -0.12232,0.351679 -0.104932,0 0.125385,-0.356315 -0.467727,0 0,0.356315 z "/>
<path fill="rgb(241,240,234)" stroke="rgb(241,240,234)" d="M 4.92468,3.75319 l -0.101867,0 0,-0.356315 -0.223001,0 0,-0.518679 1,0 0,0.874994 -0.036082,0 0,-0.356315 -0.63905,0 0,0.356315 z "/>
<path fill="rgb(241,240,234)" stroke="rgb(241,240,234)" d="M 4.82281,3.75319 l 0.101867,0 0,0.143823 0.63905,0 0,-0.143823 0.036082,0 0,0.277431 -0.719384,-0.00106921 -0.13298,-0.132539 0.0753658,0 0,-0.143823 z "/>
<path fill="rgb(241,240,234)" stroke="rgb(241,240,234)" d="M 3.96233,3.39688 l 0.114895,0 0,0.114514 -0.114895,-0.114514 z "/>
<path fill="rgb(241,240,234)" stroke="rgb(241,240,234)" d="M 3.59981,2.75319 l 0.645831,0.643685 -0.0665527,0 0,0.216042 -0.101867,-0.101528 0,-0.114514 -0.114895,0 -0.645831,-0.643685 0.283314,0 z "/>
<path fill="rgb(241,240,234)" stroke="rgb(241,240,234)" d="M 1.83918,0.998407 l 1.76063,1.75478 -0.283314,0 -1.6399,-1.63445 0.0533816,-0.0412 0.0542,-0.0401172 0.0549965,-0.0390181 z "/>
<path fill="rgb(241,240,234)" stroke="rgb(241,240,234)" d="M 6.50794,5.65165 l -0.0388349,0.055126 -0.0399366,0.0543332 -0.0410221,0.0535184 -1.79145,-1.7855 0.283738,0.000421714 1.62751,1.6221 z "/>
<path fill="rgb(241,240,234)" stroke="rgb(241,240,234)" d="M 4.24564,3.39688 l 0.501805,0.500138 -0.283314,0 -0.285043,-0.284096 0,-0.216042 0.0665527,0 z "/>
<path fill="rgb(241,240,234)" stroke="rgb(241,240,234)" d="M 4.88043,4.02955 l -0.283738,-0.000421714 -0.132557,-0.132117 0.283314,0 0.13298,0.132539 z "/>
<path fill="rgb(241,240,234)" stroke="rgb(241,240,234)" d="M 5.8234,6.38126 l -0.0533816,0.0412 -0.0542,0.0401172 -0.0549965,0.0390181 -1.99179,-1.98518 0.0191971,-0.0127617 -0.0925,-0.0602977 -0.417721,-0.416333 0.283738,0.000421714 2.36166,2.35381 z "/>
<path fill="rgb(241,240,234)" stroke="rgb(241,240,234)" d="M 1.11186,1.68537 l 0.901448,0.898454 -0.0172548,0.00802378 -0.0164646,0.00954072 -0.0155414,0.0109806 -0.0144926,0.0123317 -0.0133268,0.0135833 -0.0120532,0.014725 -0.0106823,0.0157479 -0.00922515,0.0166434 -0.00769342,0.0174046 -0.00609953,0.0180251 -0.00445636,0.0185 -0.893952,-0.890982 0.0388349,-0.055126 0.0399366,-0.0543332 0.0410221,-0.0535184 z "/>
<path fill="rgb(241,240,234)" stroke="rgb(241,240,234)" d="M 3.66903,4.51642 l -0.0733029,-0.0730594 0.0925,0.0602977 -0.0191971,0.0127617 z "/>
<path fill="rgb(241,240,234)" stroke="rgb(241,240,234)" d="M 1.88602,2.73933 l 0.00445636,-0.0185 0.00609953,-0.0180251 0.00769342,-0.0174046 0.00922515,-0.0166434 0.0106823,-0.0157479 0.0120532,-0.014725 0.0133268,-0.0135833 0.0144926,-0.0123317 0.0155414,-0.0109806 0.0164646,-0.00954072 0.0172548,-0.00802378 0.193151,0.192509 -0.283314,0 -0.0371265,-0.0370032 z "/>
<path fill="rgb(241,240,234)" stroke="rgb(241,240,234)" d="M 3.33088,3.89701 l -0.283314,0 -0.35036,-0.349196 0,-0.150941 0.13187,0 0.501805,0.500138 z "/>
<path fill="rgb(241,240,234)" stroke="rgb(241,240,234)" d="M 2.54576,3.39688 l 0.049578,0 0,0.0494132 -0.049578,-0.0494132 z "/>
<path fill="rgb(241,240,234)" stroke="rgb(241,240,234)" d="M 2.02535,2.8782 l 0.283314,0 0.520408,0.518679 -0.13187,0 0,0.150941 -0.101867,-0.101528 0,-0.0494132 -0.049578,0 -0.520408,-0.518679 z "/>
<path fill="rgb(241,240,234)" stroke="rgb(241,240,234)" d="M 2.02535,2.8782 l -0.102206,-0.101867 0.283314,0 0.102206,0.101867 -0.283314,0 z "/>
<path fill="rgb(241,240,234)" stroke="rgb(241,240,234)" d="M 3.46174,4.02744 l -0.283738,-0.000421714 -0.130442,-0.130008 0.283314,0 0.130865,0.13043 z "/>
<path fill="rgb(241,240,234)" stroke="rgb(241,240,234)" d="M 7.1,3.75 l -0.0127478,-0.291972 -0.0381463,-0.28975 -0.0632545,-0.285322 -0.0878812,-0.278724 -0.111839,-0.270004 -0.134946,-0.259229 -0.157026,-0.246481 -0.17791,-0.231857 -0.197441,-0.215469 -0.215469,-0.197441 -0.231857,-0.17791 -0.246481,-0.157026 -0.259229,-0.134946 -0.270004,-0.111839 -0.278724,-0.0878812 -0.285322,-0.0632545 -0.28975,-0.0381463 -0.291972,-0.0127478 0,-0.2 0.309403,0.0135088 0.307048,0.0404237 0.302357,0.0670308 0.295364,0.0931279 0.286123,0.118516 0.274705,0.143002 0.261196,0.1664 0.2457,0.188532 0.228333,0.209229 0.209229,0.228333 0.188532,0.2457 0.1664,0.261196 0.143002,0.274705 0.118516,0.286123 0.0931279,0.295364 0.0670308,0.302357 0.0404237,0.307048 0.0135088,0.309403 -0.0121716,0.293718 -0.0364315,0.291704 -0.0604415,0.28769 -0.084037,0.281703 -0.189122,-0.06506 0.0793025,-0.265832 0.0570363,-0.271482 0.034379,-0.27527 0.0114859,-0.277171 z "/>
<path fill="rgb(241,240,234)" stroke="rgb(241,240,234)" d="M 1.06776,6.07553 l -0.196677,-0.248431 -0.173742,-0.264979 -0.149422,-0.279416 -0.123912,-0.291626 -0.097415,-0.301513 -0.0701418,-0.308999 -0.0423099,-0.314022 -0.0141408,-0.316544 0.0135088,-0.309403 0.0404237,-0.307048 0.0670308,-0.302357 0.0931279,-0.295364 0.118516,-0.286123 0.143002,-0.274705 0.1664,-0.261196 0.188532,-0.2457 0.209229,-0.228333 0.228333,-0.209229 0.2457,-0.188532 0.261196,-0.1664 0.274705,-0.143002 0.286123,-0.118516 0.295364,-0.0931279 0.302357,-0.0670308 0.307048,-0.0404237 0.309403,-0.0135088 0,0.2 -0.290122,0.0125865 -0.287942,0.0376648 -0.283598,0.0624601 -0.277124,0.0867861 -0.268566,0.11046 -0.257991,0.133304 -0.245477,0.155146 -0.0549965,0.0390181 -0.0542,0.0401172 -0.0533816,0.0412 -0.203135,0.173638 -0.188648,0.189277 -0.172961,0.203711 -0.0410221,0.0535184 -0.0399366,0.0543332 -0.0388349,0.055126 -0.153541,0.244608 -0.131902,0.256923 -0.109283,0.267329 -0.0858519,0.275748 -0.0617827,0.282118 -0.0372542,0.286391 -0.0124489,0.288536 0.0133442,0.29871 0.0399262,0.296331 0.0661902,0.29159 0.0919268,0.284527 0.116931,0.275196 0.141004,0.263674 0.163953,0.250051 0.185597,0.234435 -0.151112,0.131016 z "/>
<path fill="rgb(241,240,234)" stroke="rgb(241,240,234)" d="M 5.8234,6.38126 l 0.203135,-0.173638 0.188648,-0.189277 0.172961,-0.203711 0.0410221,-0.0535184 0.0399366,-0.0543332 0.0388349,-0.055126 0.161033,-0.257841 0.136996,-0.271378 0.111831,-0.282679 0.189122,0.06506 -0.113518,0.288394 -0.138239,0.277394 -0.161907,0.264279 -0.184341,0.24915 -0.20537,0.232122 -0.224833,0.213325 -0.242583,0.192902 -0.258483,0.171008 -0.272414,0.147811 -0.284268,0.123487 -0.293955,0.0982226 -0.301402,0.0722091 -0.306552,0.0456452 -0.309365,0.0187333 -0.30982,-0.00832127 -0.307913,-0.0353125 -0.30366,-0.0620345 -0.297092,-0.0882837 -0.288259,-0.11386 -0.27723,-0.138568 -0.264087,-0.162221 -0.248931,-0.184636 -0.231878,-0.205645 -0.213058,-0.225086 0.151112,-0.131016 0.198061,0.209504 0.215341,0.191698 0.231026,0.172473 0.245,0.15197 0.25716,0.130342 0.267414,0.107748 0.275688,0.0843563 0.281921,0.0603397 0.286065,0.0358763 0.28809,0.0111471 0.287982,-0.0136646 0.28574,-0.0383752 0.281382,-0.0628015 0.274941,-0.0867626 0.266462,-0.110081 0.256011,-0.132584 0.243663,-0.154106 0.0549965,-0.0390181 0.0542,-0.0401172 0.0533816,-0.0412 z "/>
<path fill="rgb(187,30,16)" stroke="rgb(187,30,16)" d="M 5.8234,6.38126 l -2.36166,-2.35381 1.13495,0.00168686 1.79145,1.7855 -0.172961,0.203711 -0.188648,0.189277 -0.203135,0.173638 z "/>
<path fill="rgb(187,30,16)" stroke="rgb(187,30,16)" d="M 3.43816,3.89701 l 0.639069,0 0,-0.385624 0.101867,0.101528 0,0.284096 0.285043,0 0.132557,0.132117 -1.13495,-0.00168686 -0.130865,-0.13043 0.00539427,0 0,-0.500138 -0.507199,0 -0.520408,-0.518679 0.856265,0 0.0463167,-0.125006 0.105253,0 0.645831,0.643685 -0.524174,0 0,0.500138 z "/>
<path fill="rgb(187,30,16)" stroke="rgb(187,30,16)" d="M 3.33627,3.89701 l -0.00539427,0 -0.501805,-0.500138 0.507199,0 0,0.500138 z "/>
<path fill="rgb(187,30,16)" stroke="rgb(187,30,16)" d="M 2.98895,2.77633 l -0.782494,0 -0.193151,-0.192509 0.0171106,-0.00619404 0.0175793,-0.00470179 0.0179181,-0.0031748 0.0181246,-0.00162435 0.0181971,-6.19038e-05 0.0181352,0.001501 0.0179393,0.00305282 0.0176109,0.00458208 0.0171523,0.00607749 0.0165671,0.00752799 0.0158594,0.00892288 0.0150346,0.0102518 0.0140987,0.0115051 0.0130586,0.0126733 0.011922,0.0137479 0.0106974,0.0147209 0.00939371,0.0155852 0.00802063,0.0163343 0.0065883,0.0169627 0.282498,0 0.00671571,-0.017247 0.00819638,-0.0165945 0.0096144,-0.0158152 0.0109589,-0.0149151 0.0122197,-0.013901 0.0133871,-0.0127806 0.0144522,-0.0115625 0.0154068,-0.0102561 0.0162437,-0.00887132 0.0169564,-0.00741872 0.0175396,-0.00590942 0.0179887,-0.00435496 0.0183003,-0.00276721 0.0184721,-0.00115831 0.0185026,0.000459437 0.0183918,0.00207367 0.0181404,0.00367206 0.0177504,0.00524239 0.0172247,0.00677265 0.0165673,0.00825115 0.0157834,0.00966658 0.0148788,0.0110081 0.0138605,0.0122656 0.0127363,0.0134293 0.0115147,0.0144903 0.0102052,0.0154406 0.00881762,0.0162729 0.00736267,0.0169809 0.00585145,0.017559 0.00429551,0.018003 0.00270674,0.0183093 0.00109729,0.0184758 z "/>
<path fill="rgb(187,30,16)" stroke="rgb(187,30,16)" d="M 1.11186,1.68537 l 0.172961,-0.203711 0.188648,-0.189277 0.203135,-0.173638 1.6399,1.63445 -0.105253,0 -0.0463167,0.125006 -0.856265,0 -0.102206,-0.101867 0.782494,0 -0.00109729,-0.0184758 -0.00270674,-0.0183093 -0.00429551,-0.018003 -0.00585145,-0.017559 -0.00736267,-0.0169809 -0.00881762,-0.0162729 -0.0102052,-0.0154406 -0.0115147,-0.0144903 -0.0127363,-0.0134293 -0.0138605,-0.0122656 -0.0148788,-0.0110081 -0.0157834,-0.00966658 -0.0165673,-0.00825115 -0.0172247,-0.00677265 -0.0177504,-0.00524239 -0.0181404,-0.00367206 -0.0183918,-0.00207367 -0.0185026,-0.000459437 -0.0184721,0.00115831 -0.0183003,0.00276721 -0.0179887,0.00435496 -0.0175396,0.00590942 -0.0169564,0.00741872 -0.0162437,0.00887132 -0.0154068,0.0102561 -0.0144522,0.0115625 -0.0133871,0.0127806 -0.0122197,0.013901 -0.0109589,0.0149151 -0.0096144,0.0158152 -0.00819638,0.0165945 -0.00671571,0.017247 -0.282498,0 -0.0065883,-0.0169627 -0.00802063,-0.0163343 -0.00939371,-0.0155852 -0.0106974,-0.0147209 -0.011922,-0.0137479 -0.0130586,-0.0126733 -0.0140987,-0.0115051 -0.0150346,-0.0102518 -0.0158594,-0.00892288 -0.0165671,-0.00752799 -0.0171523,-0.00607749 -0.0176109,-0.00458208 -0.0179393,-0.00305282 -0.0181352,-0.001501 -0.0181971,6.19038e-05 -0.0181246,0.00162435 -0.0179181,0.0031748 -0.0175793,0.00470179 -0.0171106,0.00619404 -0.901448,-0.898454 z "/>
<path fill="rgb(187,30,16)" stroke="rgb(187,30,16)" d="M 4.17909,3.89701 l 0,-0.284096 0.285043,0.284096 -0.285043,0 z "/>
<path fill="rgb(187,30,16)" stroke="rgb(187,30,16)" d="M 3.43816,3.89701 l 0,-0.500138 0.524174,0 0.114895,0.114514 0,0.385624 -0.639069,0 z "/>
</g></g></svg>
