<?xml version="1.0" encoding="UTF-8" standalone="no"?>
<!DOCTYPE svg PUBLIC "-//W3C//DTD SVG 1.1//EN" "http://www.w3.org/Graphics/SVG/1.1/DTD/svg11-flat.dtd"
[

]>
<svg xmlns="http://www.w3.org/2000/svg"  viewBox="-0.0891147 -0.0891147 7.30741 7.30741"><g fill="none" stroke="black" stroke-width="0.0125" transform="translate(0,7.12918) scale(1, -1)">
<g id="Output" >
<path fill="rgb(241,240,234)" stroke="rgb(241,240,234)" d="M 2.93052,2.0066 l -0.347233,0 0,-0.271746 0.347233,0 0,0.271746 z "/>
<path fill="rgb(241,240,234)" stroke="rgb(241,240,234)" d="M 3.3331,2.0066 l -0.347233,0 0,-0.271746 0.347233,0 0,0.271746 z "/>
<path fill="rgb(241,240,234)" stroke="rgb(241,240,234)" d="M 3.38846,2.0066 l 0,-0.271746 0.347233,0 0,0.271746 -0.347233,0 z "/>
<path fill="rgb(241,240,234)" stroke="rgb(241,240,234)" d="M 3.79104,2.0066 l 0,-0.271746 0.349762,0 0,0.271746 -0.349762,0 z "/>
<path fill="rgb(241,240,234)" stroke="rgb(241,240,234)" d="M 4.19615,2.0066 l 0,-0.271746 0.347223,0 0,0.271746 -0.347223,0 z "/>
<path fill="rgb(241,240,234)" stroke="rgb(241,240,234)" d="M 4.59874,2.0066 l 0,-0.271746 0.254136,0 -0.095626,0.271746 -0.15851,0 z "/>
<path fill="rgb(241,240,234)" stroke="rgb(241,240,234)" d="M 2.5229,2.0066 l -0.150974,0 -0.0905785,-0.271746 0.241553,0 0,0.271746 z "/>
<path fill="rgb(241,240,234)" stroke="rgb(241,240,234)" d="M 3.41865,2.33622 l -0.337169,0.218916 -0.337169,-0.218916 0.337169,-0.221414 0.337169,0.221414 z "/>
<path fill="rgb(241,240,234)" stroke="rgb(241,240,234)" d="M 4.53475,3.1 l -0.5,1 -0.440325,0 0,-1 0.940325,0 z "/>
<path fill="rgb(241,240,234)" stroke="rgb(241,240,234)" d="M 3.59443,4.1 l 0.440325,0 -0.440325,0.88065 0,-0.88065 z "/>
<path fill="rgb(241,240,234)" stroke="rgb(241,240,234)" d="M 4.59443,2.1 l 0,-0.0207553 0.213158,0.000316813 0,-0.0528298 0.100643,-0.289356 0,-0.35226 -0.191232,0 -0.0276845,0.0679211 -0.0948845,0 0,-0.0553484 0.00935346,0 -0.000596203,-0.0100387 -0.00147069,-0.00994824 -0.00233393,-0.00978178 -0.00317934,-0.00954056 -0.0017733,-0.00408983 0,-0.254289 0.940325,4.44089e-16 -0.5,1 -0.440325,0 z "/>
<path fill="rgb(241,240,234)" stroke="rgb(241,240,234)" d="M 4.59443,2.1 l 0.440325,0 -0.440325,0.88065 0,-0.88065 z "/>
<path fill="rgb(241,240,234)" stroke="rgb(241,240,234)" d="M 3.59443,1.1 l 0,0.285116 -0.329258,0 -0.0251658,0.0679211 -0.645577,0 0,-0.0553484 0.549961,0 -0.000596203,-0.0100387 -0.00147069,-0.00994824 -0.00233393,-0.00978178 -0.00317934,-0.00954056 -0.00400045,-0.00922642 -0.00479098,-0.00884177 -0.0055449,-0.00838954 -0.00625645,-0.0078732 -0.00692017,-0.00729669 -0.00753101,-0.0066644 -0.00808429,-0.00598119 -0.00857579,-0.00525226 -0.00900174,-0.0044832 -0.0093589,-0.00367987 -0.00964453,-0.00284841 -0.00985645,-0.00199519 -0.00999304,-0.00112672 -0.0100533,-0.000249632 -0.0100366,0.00062936 -0.00994333,0.00150354 -0.00977401,0.00236623 -0.00953,0.00321084 -0.00921315,0.0040309 -0.00882589,0.00482016 -0.00837118,0.00557259 -0.00785249,0.00628242 -0.00727379,0.00694424 -0.00663949,0.00755298 -0.00595445,0.008104 -0.00522391,0.00859309 -0.00445344,0.0090165 -0.00364893,0.009371 -0.153493,0 -0.00364806,-0.00937205 -0.00445273,-0.00901759 -0.00522337,-0.00859419 -0.00595407,-0.00810511 -0.00663927,-0.00755406 -0.00727371,-0.00694528 -0.00785255,-0.0062834 -0.00837137,-0.0055735 -0.0088262,-0.00482099 -0.00921356,-0.00403163 -0.0095305,-0.00321145 -0.00977458,-0.00236672 -0.00994394,-0.00150391 -0.0100373,-0.000629592 -0.0100539,0.000249533 -0.00999371,0.00112675 -0.00985709,0.00199536 -0.00964513,0.00284871 -0.00935945,0.00368029 -0.00900222,0.00448373 -0.00788205,0.00482776 0,-0.203671 0.970163,0 0.0298374,0 z M 3.59443,2.07776 l 0,0.0222416 -0.432463,0 -0.035186,-0.0229366 0.467649,0.000695059 z M 2.59443,2.07706 l 0.444281,0 -0.0354081,0.0229366 -0.408873,0 0,-0.0229366 z "/>
<path fill="rgb(241,240,234)" stroke="rgb(241,240,234)" d="M 4.59443,1.39769 l 0,0.0553484 -0.687631,0 -0.0226472,-0.0679211 -0.289721,0 0,-0.285116 1,0 0,0.254289 -0.00222715,-0.00513659 -0.00479098,-0.00884177 -0.0055449,-0.00838954 -0.00625645,-0.0078732 -0.00692017,-0.00729669 -0.00753101,-0.0066644 -0.00808429,-0.00598119 -0.00857579,-0.00525226 -0.00900174,-0.0044832 -0.0093589,-0.00367987 -0.00964453,-0.00284841 -0.00985645,-0.00199519 -0.00999304,-0.00112672 -0.0100533,-0.000249632 -0.0100366,0.00062936 -0.00994333,0.00150354 -0.00977401,0.00236623 -0.00953,0.00321084 -0.00921315,0.0040309 -0.00882589,0.00482016 -0.00837118,0.00557259 -0.00785249,0.00628242 -0.00727379,0.00694424 -0.00663949,0.00755298 -0.00595445,0.008104 -0.00522391,0.00859309 -0.00445344,0.0090165 -0.00364893,0.009371 -0.153493,0 -0.00364806,-0.00937205 -0.00445273,-0.00901759 -0.00522337,-0.00859419 -0.00595407,-0.00810511 -0.00663927,-0.00755406 -0.00727371,-0.00694528 -0.00785255,-0.0062834 -0.00837137,-0.0055735 -0.0088262,-0.00482099 -0.00921356,-0.00403163 -0.0095305,-0.00321145 -0.00977458,-0.00236672 -0.00994394,-0.00150391 -0.0100373,-0.000629592 -0.0100539,0.000249533 -0.00999371,0.00112675 -0.00985709,0.00199536 -0.00964513,0.00284871 -0.00935945,0.00368029 -0.00900222,0.00448373 -0.00857617,0.00525291 -0.00808457,0.00598192 -0.00753118,0.00666522 -0.00692021,0.00729756 -0.00625635,0.00787413 -0.00554466,0.0083905 -0.00479059,0.00884274 -0.0039999,0.00922738 -0.00317864,0.00954149 -0.00233308,0.00978266 -0.00146968,0.00994906 -0.000595056,0.0100394 0.592005,0 z M 3.59443,2.07776 l 1,0.00148628 0,0.0207553 -1,0 0,-0.0222416 z "/>
<path fill="rgb(241,240,234)" stroke="rgb(241,240,234)" d="M 2.59443,3.1 l 1,0 0,1 -0.5,0 -0.5,-1 z "/>
<path fill="rgb(241,240,234)" stroke="rgb(241,240,234)" d="M 3.0033,2.1 l -0.364655,0.236216 0.442839,0.294393 0.442849,-0.294393 -0.362368,-0.236216 0.432463,0 0,1 -1,0 0,-1 0.408873,0 z "/>
<path fill="rgb(241,240,234)" stroke="rgb(241,240,234)" d="M 2.09443,2.1 l 0.5,0 0,1 -0.5,-1 z "/>
<path fill="rgb(241,240,234)" stroke="rgb(241,240,234)" d="M 2.59443,2.07706 l 0,0.0229366 -0.5,0 -0.5,-1 1,-4.44089e-16 0,0.203671 -0.000694122,0.00042515 -0.00808457,0.00598192 -0.00753118,0.00666522 -0.00692021,0.00729756 -0.00625635,0.00787413 -0.00554466,0.0083905 -0.00479059,0.00884274 -0.0039999,0.00922738 -0.00317864,0.00954149 -0.00233308,0.00978266 -0.00146968,0.00994906 -0.000595056,0.0100394 0.0513981,0 0,0.0553484 -0.129404,0 -0.0276742,-0.0679211 -0.21136,0 0,0.35226 0.0981344,0.289356 0,0.0503317 0.270304,0 z "/>
<path fill="rgb(241,240,234)" stroke="rgb(241,240,234)" d="M 4.53475,3.1 l -0.940325,0 0,-1 1,0 0,0.88065 -0.0596748,0.11935 z "/>
<path fill="rgb(241,240,234)" stroke="rgb(241,240,234)" d="M 3.09443,4.1 l 0.5,0 0,0.88065 -0.0298374,0.0596748 -0.470163,-0.940325 z "/>
<path fill="rgb(241,240,234)" stroke="rgb(241,240,234)" d="M 3.56459,0.2 l 3.26459,0 0.00883388,0.000390951 0.00876481,0.0011698 0.0086272,0.0019395 0.00842214,0.00269403 0.00815123,0.0034275 0.00781658,0.00413417 0.00742081,0.00480851 0.00696702,0.00544526 0.00645876,0.00603943 0.00589999,0.00658638 0.00529509,0.00708183 0.00464879,0.0075219 0.00396614,0.00790316 0.00325248,0.00822263 0.00251339,0.0084778 0.00175464,0.00866669 0.000982177,0.00878781 0.000202033,0.00884022 -0.000579691,0.0088235 -0.00135688,0.0087378 -0.00212346,0.00858377 -0.00287344,0.00836263 -0.00360095,0.0080761 -3.26459,6.52918 -0.00412828,0.00744612 -0.0047467,0.00706797 -0.00533072,0.00663859 -0.00587609,0.00616109 -0.00637887,0.00563892 -0.00683541,0.00507588 -0.0072424,0.00447605 -0.0075969,0.00384377 -0.00789632,0.00318363 -0.00813851,0.00250041 -0.00832171,0.00179907 -0.00844458,0.00108468 -0.00850624,0.000362437 0,-0.323607 3.10279,-6.20557 -3.10279,2.66454e-15 0,-0.2 z "/>
<path fill="rgb(241,240,234)" stroke="rgb(241,240,234)" d="M 3.56459,0.2 l 0,0.2 -3.10279,0 3.10279,6.20557 0,0.323607 -0.00850624,-0.000362437 -0.00844458,-0.00108468 -0.00832171,-0.00179907 -0.00813851,-0.00250041 -0.00789632,-0.00318363 -0.0075969,-0.00384377 -0.0072424,-0.00447605 -0.00683541,-0.00507588 -0.00637887,-0.00563892 -0.00587609,-0.00616109 -0.00533072,-0.00663859 -0.0047467,-0.00706797 -0.00412828,-0.00744612 -3.26459,-6.52918 -0.00360095,-0.0080761 -0.00287344,-0.00836263 -0.00212346,-0.00858377 -0.00135688,-0.0087378 -0.000579691,-0.0088235 0.000202033,-0.00884022 0.000982177,-0.00878781 0.00175464,-0.00866669 0.00251339,-0.0084778 0.00325248,-0.00822263 0.00396614,-0.00790316 0.00464879,-0.0075219 0.00529509,-0.00708183 0.00589999,-0.00658638 0.00645876,-0.00603943 0.00696702,-0.00544526 0.00742081,-0.00480851 0.00781658,-0.00413417 0.00815123,-0.0034275 0.00842214,-0.00269403 0.0086272,-0.0019395 0.00876481,-0.0011698 0.00883388,-0.000390951 3.26459,-8.88178e-16 z "/>
<path fill="rgb(42,41,42)" stroke="rgb(42,41,42)" d="M 3.14439,1.39769 l -0.601359,0 0.000595056,-0.0100394 0.00146968,-0.00994906 0.00233308,-0.00978266 0.00317864,-0.00954149 0.0039999,-0.00922738 0.00479059,-0.00884274 0.00554466,-0.0083905 0.00625635,-0.00787413 0.00692021,-0.00729756 0.00753118,-0.00666522 0.00808457,-0.00598192 0.00857617,-0.00525291 0.00900222,-0.00448373 0.00935945,-0.00368029 0.00964513,-0.00284871 0.00985709,-0.00199536 0.00999371,-0.00112675 0.0100539,-0.000249533 0.0100373,0.000629592 0.00994394,0.00150391 0.00977458,0.00236672 0.0095305,0.00321145 0.00921356,0.00403163 0.0088262,0.00482099 0.00837137,0.0055735 0.00785255,0.0062834 0.00727371,0.00694528 0.00663927,0.00755406 0.00595407,0.00810511 0.00522337,0.00859419 0.00445273,0.00901759 0.00364806,0.00937205 0.153493,0 0.00364893,-0.009371 0.00445344,-0.0090165 0.00522391,-0.00859309 0.00595445,-0.008104 0.00663949,-0.00755298 0.00727379,-0.00694424 0.00785249,-0.00628242 0.00837118,-0.00557259 0.00882589,-0.00482016 0.00921315,-0.0040309 0.00953,-0.00321084 0.00977401,-0.00236623 0.00994333,-0.00150354 0.0100366,-0.00062936 0.0100533,0.000249632 0.00999304,0.00112672 0.00985645,0.00199519 0.00964453,0.00284841 0.0093589,0.00367987 0.00900174,0.0044832 0.00857579,0.00525226 0.00808429,0.00598119 0.00753101,0.0066644 0.00692017,0.00729669 0.00625645,0.0078732 0.0055449,0.00838954 0.00479098,0.00884177 0.00400045,0.00922642 0.00317934,0.00954056 0.00233393,0.00978178 0.00147069,0.00994824 0.000596203,0.0100387 z "/>
<path fill="rgb(42,41,42)" stroke="rgb(42,41,42)" d="M 4.60378,1.39769 l -0.601359,0 0.000595056,-0.0100394 0.00146968,-0.00994906 0.00233308,-0.00978266 0.00317864,-0.00954149 0.0039999,-0.00922738 0.00479059,-0.00884274 0.00554466,-0.0083905 0.00625635,-0.00787413 0.00692021,-0.00729756 0.00753118,-0.00666522 0.00808457,-0.00598192 0.00857617,-0.00525291 0.00900222,-0.00448373 0.00935945,-0.00368029 0.00964513,-0.00284871 0.00985709,-0.00199536 0.00999371,-0.00112675 0.0100539,-0.000249533 0.0100373,0.000629592 0.00994394,0.00150391 0.00977458,0.00236672 0.0095305,0.00321145 0.00921356,0.00403163 0.0088262,0.00482099 0.00837137,0.0055735 0.00785255,0.0062834 0.00727371,0.00694528 0.00663927,0.00755406 0.00595407,0.00810511 0.00522337,0.00859419 0.00445273,0.00901759 0.00364806,0.00937205 0.153493,0 0.00364893,-0.009371 0.00445344,-0.0090165 0.00522391,-0.00859309 0.00595445,-0.008104 0.00663949,-0.00755298 0.00727379,-0.00694424 0.00785249,-0.00628242 0.00837118,-0.00557259 0.00882589,-0.00482016 0.00921315,-0.0040309 0.00953,-0.00321084 0.00977401,-0.00236623 0.00994333,-0.00150354 0.0100366,-0.00062936 0.0100533,0.000249632 0.00999304,0.00112672 0.00985645,0.00199519 0.00964453,0.00284841 0.0093589,0.00367987 0.00900174,0.0044832 0.00857579,0.00525226 0.00808429,0.00598119 0.00753101,0.0066644 0.00692017,0.00729669 0.00625645,0.0078732 0.0055449,0.00838954 0.00479098,0.00884177 0.00400045,0.00922642 0.00317934,0.00954056 0.00233393,0.00978178 0.00147069,0.00994824 0.000596203,0.0100387 z "/>
<path fill="rgb(42,41,42)" stroke="rgb(42,41,42)" d="M 3.38846,2.0066 l 0.347233,0 0,-0.271746 -0.347233,0 0,0.271746 z M 3.79104,2.0066 l 0.349762,0 0,-0.271746 -0.349762,0 0,0.271746 z M 4.22599,2.0066 l 0,0.072094 -1,-0.00148628 0,-0.0706077 0.107112,0 0,-0.271746 -0.107112,0 0,-0.28182 0.0140149,0 0.0251658,-0.0679211 0.618979,0 0.0226472,0.0679211 0.319193,0 0,0.28182 -0.0298373,0 0,0.271746 0.0298373,0 z M 3.34334,2.38512 l 0.075314,-0.0488997 -0.192664,-0.12652 0,-0.0679609 0.298344,0.19448 -0.0735587,0.0488997 -0.107435,0 z "/>
<path fill="rgb(42,41,42)" stroke="rgb(42,41,42)" d="M 2.5229,2.0066 l 0,-0.271746 -0.241553,0 0.0905785,0.271746 0.150974,0 z M 2.93052,2.0066 l 0,-0.271746 -0.347233,0 0,0.271746 0.347233,0 z M 2.81963,2.38512 l -0.107427,0 -0.073557,-0.0488997 0.400063,-0.259153 -0.714585,0 0,-0.0503317 -0.0981344,-0.289356 0,-0.35226 0.21136,0 0.0276742,0.0679211 0.760966,0 0,0.28182 -0.240121,0 0,0.271746 0.240121,0 0,0.0706077 -0.0992108,-0.000147455 0.0992108,0.0646723 0,0.0679609 -0.144505,-0.0948946 -0.337169,0.221414 0.075314,0.0488997 z "/>
<path fill="rgb(42,41,42)" stroke="rgb(42,41,42)" d="M 4.59874,2.0066 l 0.15851,0 0.095626,-0.271746 -0.254136,0 0,0.271746 z M 4.717,1.38512 l 0.191232,0 0,0.35226 -0.100643,0.289356 0,0.0528298 -0.581596,-0.000864416 0,-0.072094 0.317386,0 0,-0.271746 -0.317386,0 0,-0.28182 0.463323,0 0.0276845,-0.0679211 z "/>
<path fill="rgb(42,41,42)" stroke="rgb(42,41,42)" d="M 3.34334,2.38512 l 0.107435,0 -0.224785,0.149431 0,-0.0732381 0.11735,-0.0761924 z "/>
<path fill="rgb(42,41,42)" stroke="rgb(42,41,42)" d="M 2.7122,2.38512 l 0.107427,0 0.261855,0.170016 0.144505,-0.093824 0,0.0732381 -0.144505,0.0960629 -0.369282,-0.245493 z "/>
<path fill="rgb(187,30,16)" stroke="rgb(187,30,16)" d="M 3.56459,5.04033 l 1.97016,-3.94033 -1.97016,-4.44089e-16 0,-0.7 3.10279,-2.66454e-15 -3.10279,6.20557 0,-1.56525 z "/>
<path fill="rgb(187,30,16)" stroke="rgb(187,30,16)" d="M 3.56459,0.2 l 0,-0.2 3.26459,-1.77636e-15 0.0265016,0.00117285 0.0262944,0.00350939 0.0258816,0.00581849 0.0252664,0.00808209 0.0244537,0.0102825 0.0234497,0.0124025 0.0222624,0.0144255 0.0209011,0.0163358 0.0193763,0.0181183 0.0177,0.0197591 0.0158853,0.0212455 0.0139464,0.0225657 0.0118984,0.0237095 0.00975744,0.0246679 0.00754016,0.0254334 0.00526392,0.0260001 0.00294653,0.0263634 0.000606098,0.0265207 -0.00173907,0.0264705 -0.00407065,0.0262134 -0.00637039,0.0257513 -0.00862033,0.0250879 -0.0108029,0.0242283 -3.26459,6.52918 -0.0123848,0.0223384 -0.0142401,0.0212039 -0.0159921,0.0199158 -0.0176283,0.0184833 -0.0191366,0.0169168 -0.0205062,0.0152277 -0.0217272,0.0134282 -0.0227907,0.0115313 -0.023689,0.00955089 -0.0244155,0.00750124 -0.0249651,0.00539721 -0.0253337,0.00325405 -0.0255187,0.00108731 0,-0.2 0.00850624,-0.000362437 0.00844458,-0.00108468 0.00832171,-0.00179907 0.00813851,-0.00250041 0.00789632,-0.00318363 0.0075969,-0.00384377 0.0072424,-0.00447605 0.00683541,-0.00507588 0.00637887,-0.00563892 0.00587609,-0.00616109 0.00533072,-0.00663859 0.0047467,-0.00706797 0.00412828,-0.00744612 3.26459,-6.52918 0.00360095,-0.0080761 0.00287344,-0.00836263 0.00212346,-0.00858377 0.00135688,-0.0087378 0.000579691,-0.0088235 -0.000202033,-0.00884022 -0.000982177,-0.00878781 -0.00175464,-0.00866669 -0.00251339,-0.0084778 -0.00325248,-0.00822263 -0.00396614,-0.00790316 -0.00464879,-0.0075219 -0.00529509,-0.00708183 -0.00589999,-0.00658638 -0.00645876,-0.00603943 -0.00696702,-0.00544526 -0.00742081,-0.00480851 -0.00781658,-0.00413417 -0.00815123,-0.0034275 -0.00842214,-0.00269403 -0.0086272,-0.0019395 -0.00876481,-0.0011698 -0.00883388,-0.000390951 -3.26459,0 z "/>
<path fill="rgb(187,30,16)" stroke="rgb(187,30,16)" d="M 3.56459,0.2 l -3.26459,8.88178e-16 -0.00883388,0.000390951 -0.00876481,0.0011698 -0.0086272,0.0019395 -0.00842214,0.00269403 -0.00815123,0.0034275 -0.00781658,0.00413417 -0.00742081,0.00480851 -0.00696702,0.00544526 -0.00645876,0.00603943 -0.00589999,0.00658638 -0.00529509,0.00708183 -0.00464879,0.0075219 -0.00396614,0.00790316 -0.00325248,0.00822263 -0.00251339,0.0084778 -0.00175464,0.00866669 -0.000982177,0.00878781 -0.000202033,0.00884022 0.000579691,0.0088235 0.00135688,0.0087378 0.00212346,0.00858377 0.00287344,0.00836263 0.00360095,0.0080761 3.26459,6.52918 0.00412828,0.00744612 0.0047467,0.00706797 0.00533072,0.00663859 0.00587609,0.00616109 0.00637887,0.00563892 0.00683541,0.00507588 0.0072424,0.00447605 0.0075969,0.00384377 0.00789632,0.00318363 0.00813851,0.00250041 0.00832171,0.00179907 0.00844458,0.00108468 0.00850624,0.000362437 0,0.2 -0.0255187,-0.00108731 -0.0253337,-0.00325405 -0.0249651,-0.00539721 -0.0244155,-0.00750124 -0.023689,-0.00955089 -0.0227907,-0.0115313 -0.0217272,-0.0134282 -0.0205062,-0.0152277 -0.0191366,-0.0169168 -0.0176283,-0.0184833 -0.0159921,-0.0199158 -0.0142401,-0.0212039 -0.0123848,-0.0223384 -3.26459,-6.52918 -0.0108029,-0.0242283 -0.00862033,-0.0250879 -0.00637039,-0.0257513 -0.00407065,-0.0262134 -0.00173907,-0.0264705 0.000606098,-0.0265207 0.00294653,-0.0263634 0.00526392,-0.0260001 0.00754016,-0.0254334 0.00975744,-0.0246679 0.0118984,-0.0237095 0.0139464,-0.0225657 0.0158853,-0.0212455 0.0177,-0.0197591 0.0193763,-0.0181183 0.0209011,-0.0163358 0.0222624,-0.0144255 0.0234497,-0.0124025 0.0244537,-0.0102825 0.0252664,-0.00808209 0.0258816,-0.00581849 0.0262944,-0.00350939 0.0265016,-0.00117285 3.26459,0 0,0.2 z "/>
<path fill="rgb(187,30,16)" stroke="rgb(187,30,16)" d="M 3.56459,5.04033 l 0,1.56525 -3.10279,-6.20557 3.10279,0 0,0.7 -1.97016,4.44089e-16 1.97016,3.94033 z "/>
</g></g></svg>
