<?xml version="1.0" encoding="UTF-8" standalone="no"?>
<!DOCTYPE svg PUBLIC "-//W3C//DTD SVG 1.1//EN" "http://www.w3.org/Graphics/SVG/1.1/DTD/svg11-flat.dtd"
[

]>
<svg xmlns="http://www.w3.org/2000/svg"  viewBox="-0.09375 -0.09375 7.6875 7.6875"><g fill="none" stroke="black" stroke-width="0.0125" transform="translate(0,7.5) scale(1, -1)">
<g id="Output" >
<path fill="rgb(0,91,140)" stroke="rgb(0,91,140)" d="M 1.66447,2.4 l -0.264467,0 0,-1 1,0 0,1 -0.311435,0 -0.00567461,-0.00361513 -0.0319392,-0.0166265 -0.0332668,-0.0137796 -0.0343412,-0.0108277 -0.0351542,-0.0077935 -0.0356997,-0.00469995 -0.0359735,-0.00157064 -0.0359735,0.00157064 -0.0356997,0.00469995 -0.0351542,0.0077935 -0.0343412,0.0108277 -0.0332668,0.0137796 -0.0319392,0.0166265 -0.00567461,0.00361513 z "/>
<path fill="rgb(0,91,140)" stroke="rgb(0,91,140)" d="M 4.4,7.03579 l 0,-0.63579 1,0 0,0.262451 -0.182389,0.0989638 -0.268253,0.11653 -0.277395,0.0926889 -0.271964,0.0651563 z "/>
<path fill="rgb(0,91,140)" stroke="rgb(0,91,140)" d="M 4.33797,2.4 l -0.93797,0 0,-1 1,0 0,0.969648 -0.024427,0.010118 -0.0319392,0.0166265 -0.00566334,0.00360794 z "/>
<path fill="rgb(0,91,140)" stroke="rgb(0,91,140)" d="M 2.4,0.686626 l 0,0.713374 -1,0 0,-0.0360418 0.196662,-0.180207 0.231857,-0.17791 0.246481,-0.157026 0.259229,-0.134946 0.0657712,-0.0272433 z "/>
<path fill="rgb(0,91,140)" stroke="rgb(0,91,140)" d="M 4.4,3.26076 l 0,-0.122718 0.00883983,0.00366158 0.0343412,0.0108277 0.0351542,0.0077935 0.0356997,0.00469995 0.0359735,0.00157064 0.0359735,-0.00157064 0.0356997,-0.00469995 0.0351542,-0.0077935 0.0343412,-0.0108277 0.0332668,-0.0137796 0.0319392,-0.0166265 0.0303686,-0.0193469 0.0285669,-0.0219201 0.0265477,-0.0243265 0.0243265,-0.0265477 0.0219201,-0.0285669 0.0193469,-0.0303686 0.0166265,-0.0319392 0.0137796,-0.0332668 0.0108277,-0.0343412 0.0077935,-0.0351542 0.00469995,-0.0356997 0.00157064,-0.0359735 -0.00157064,-0.0359735 -0.00469995,-0.0356997 -0.0077935,-0.0351542 -0.0108277,-0.0343412 -0.0137796,-0.0332668 -0.0166265,-0.0319392 -0.0193469,-0.0303686 -0.0219201,-0.0285669 -0.0243265,-0.0265477 -0.0265477,-0.0243265 -0.0285669,-0.0219201 -0.0247053,-0.015739 0.501825,0 -0.024695,0.0157324 -0.0285669,0.0219201 -0.0265477,0.0243265 -0.0243265,0.0265477 -0.0219201,0.0285669 -0.0193469,0.0303686 -0.0166265,0.0319392 -0.0137796,0.0332668 -0.0108277,0.0343412 -0.0077935,0.0351542 -0.00469995,0.0356997 -0.00157064,0.0359735 0.00157064,0.0359735 0.00469995,0.0356997 0.0077935,0.0351542 0.0108277,0.0343412 0.0137796,0.0332668 0.0166265,0.0319392 0.0193469,0.0303686 0.0219201,0.0285669 0.0243265,0.0265477 0.0265477,0.0243265 0.0285669,0.0219201 0.0303686,0.0193469 0.0319392,0.0166265 0.0332668,0.0137796 0.0343412,0.0108277 0.0309081,0.00685216 0,0.12232 -0.855711,0 -0.0462206,-0.00218497 -0.0458502,-0.00623511 -0.0451256,-0.0102371 -0.00709275,-0.00227986 z "/>
<path fill="rgb(0,91,140)" stroke="rgb(0,91,140)" d="M 2.4,5.4 l 1,0 0,1 -1,0 0,-1 z "/>
<path fill="rgb(0,91,140)" stroke="rgb(0,91,140)" d="M 2.4,4.85332 l 1,0 0,0.54668 -1,0 0,-0.54668 z "/>
<path fill="rgb(0,91,140)" stroke="rgb(0,91,140)" d="M 2.4,2.4 l 1,0 0,0.484819 -1,0 0,-0.484819 z "/>
<path fill="rgb(0,91,140)" stroke="rgb(0,91,140)" d="M 5.26387,2.4 l -0.501825,0 -0.00566334,-0.00360794 -0.0319392,-0.0166265 -0.0332668,-0.0137796 -0.0343412,-0.0108277 -0.0351542,-0.0077935 -0.0356997,-0.00469995 -0.0359735,-0.00157064 -0.0359735,0.00157064 -0.0356997,0.00469995 -0.0351542,0.0077935 -0.0343412,0.0108277 -0.00883983,0.00366158 0,-0.969648 1,0 0,0.9483 -0.0309081,0.00685216 -0.0343412,0.0108277 -0.0332668,0.0137796 -0.0319392,0.0166265 -0.00567364,0.00361451 z "/>
<path fill="rgb(0,91,140)" stroke="rgb(0,91,140)" d="M 0.837221,5.4 l 0.562779,0 0,0.735867 -0.181128,-0.191353 -0.185597,-0.234435 -0.163953,-0.250051 -0.032101,-0.0600281 z "/>
<path fill="rgb(0,91,140)" stroke="rgb(0,91,140)" d="M 0.465746,4.4 l 0.747924,0 0.00174381,0.00520478 0.00305438,0.008922 0.00380584,0.00862826 0.00452945,0.00827136 0.0052199,0.00785392 0.00587214,0.00737898 0.00648139,0.00685003 0.00704321,0.00627093 0.00755346,0.00564593 0.00800842,0.00497961 0.00840476,0.00427683 0.00873958,0.00354275 0.00901043,0.00278273 0.00921531,0.00200234 0.00935274,0.0012073 0.00942171,0.000403417 0.0788731,0 0,0.915779 -0.562779,0 -0.108903,-0.203646 -0.116931,-0.275196 -0.0919268,-0.284527 -0.0537146,-0.236631 z "/>
<path fill="rgb(0,91,140)" stroke="rgb(0,91,140)" d="M 2.4,1.4 l 1,0 0,1 -1,0 0,-1 z "/>
<path fill="rgb(0,91,140)" stroke="rgb(0,91,140)" d="M 1.67253,3.76587 l 0.251857,0 0.00484258,0.000211471 0.00480572,0.000632803 0.00473226,0.00104932 0.00462277,0.00145784 0.00447809,0.00185527 0.00429932,0.00223857 0.00408781,0.00260483 0.00384518,0.00295125 0.00357328,0.00327521 0.00327417,0.00357423 0.00295014,0.00384604 0.00260364,0.00408857 0.00223732,0.00429997 0.00185397,0.00447863 0.0014565,0.0046232 0.00104794,0.00473256 0.000631406,0.0048059 0.000210063,0.00484265 0,0.428624 -0.000193694,0.00447266 -0.000579633,0.00443917 -0.000961231,0.00437244 -0.00133563,0.00427297 -0.00170003,0.0041415 -0.0020517,0.00397903 -0.00238801,0.00378676 -0.00270644,0.00356614 -0.0030046,0.00331882 -0.00328027,0.00304664 -0.00353137,0.00275166 -0.00375603,0.00243606 -0.00395257,0.00210223 -0.00411951,0.00175266 -0.0042556,0.00138997 -0.00435984,0.00101686 -0.00443142,0.000636145 -0.00446983,0.000250665 -0.00447476,-0.000136693 -0.480219,0 -0.00518631,-0.000229364 -0.00514581,-0.0006863 -0.00506514,-0.00113788 -0.00494491,-0.00158057 -0.00478608,-0.00201092 -0.00458988,-0.00242557 -0.00435783,-0.00282129 -0.00409177,-0.00319497 -0.00379375,-0.0035437 -0.00346611,-0.00386477 -0.00311141,-0.00415566 -0.00273241,-0.0044141 -0.00233208,-0.00463808 -0.00191354,-0.00482584 -0.00148006,-0.00497592 -0.085031,-0.28728 -0.0603821,-0.204003 0.430772,0 z "/>
<path fill="rgb(0,91,140)" stroke="rgb(0,91,140)" d="M 0.973112,3.4 l -0.552725,0 0.0305067,-0.231721 0.0632545,-0.285322 0.0878812,-0.278724 0.0845959,-0.204233 0.713374,0 0,0.585677 -0.00609737,-0.0118315 -0.0172727,-0.0419936 -0.0136179,-0.043317 -0.00986339,-0.044323 -0.00603655,-0.0450041 -0.00216548,-0.0453555 -0.424651,0 0,0.182547 0.0833444,0.0516118 -0.0305277,0.411989 z "/>
<path fill="rgb(0,91,140)" stroke="rgb(0,91,140)" d="M 1.70483,6.4 l 0.695166,0 0,0.415191 -0.0155314,-0.00613476 -0.261611,-0.130762 -0.249209,-0.153081 -0.168815,-0.125213 z "/>
<path fill="rgb(0,91,140)" stroke="rgb(0,91,140)" d="M 4.4,5.4 l 1,0 0,1 -1,0 0,-1 z "/>
<path fill="rgb(0,91,140)" stroke="rgb(0,91,140)" d="M 5.4,1.4 l 0,-0.564199 0.025,0.0130142 0.246481,0.157026 0.231857,0.17791 0.215469,0.197441 0.0172341,0.0188077 -0.736042,0 z "/>
<path fill="rgb(0,91,140)" stroke="rgb(0,91,140)" d="M 3.4,0.420387 l 0,0.979613 -1,0 0,-0.713374 0.204233,-0.0845959 0.278724,-0.0878812 0.285322,-0.0632545 0.231721,-0.0305067 z "/>
<path fill="rgb(0,91,140)" stroke="rgb(0,91,140)" d="M 1.36396,1.4 l 0.0360418,0 0,1 -0.713374,0 0.0272433,-0.0657712 0.134946,-0.259229 0.157026,-0.246481 0.17791,-0.231857 0.180207,-0.196662 z "/>
<path fill="rgb(0,91,140)" stroke="rgb(0,91,140)" d="M 1.4,1.36396 l 0,0.0360418 -0.0360418,0 0.0172341,-0.0188077 0.0188077,-0.0172341 z "/>
<path fill="rgb(0,91,140)" stroke="rgb(0,91,140)" d="M 3.75,0.4 l 0.291972,0.0127478 0.28975,0.0381463 0.0682786,0.015137 0,0.933969 -1,0 0,-0.979613 0.0580283,-0.00763957 0.291972,-0.0127478 z "/>
<path fill="rgb(0,91,140)" stroke="rgb(0,91,140)" d="M 3.4,4.85332 l 1,0 0,0.54668 -1,0 0,-0.54668 z "/>
<path fill="rgb(0,91,140)" stroke="rgb(0,91,140)" d="M 3.4,2.4 l 0.93797,0 -0.0247053,0.015739 -0.0285669,0.0219201 -0.0265477,0.0243265 -0.0243265,0.0265477 -0.0219201,0.0285669 -0.0193469,0.0303686 -0.0166265,0.0319392 -0.0137796,0.0332668 -0.0108277,0.0343412 -0.0077935,0.0351542 -0.00469995,0.0356997 -0.00157064,0.0359735 0.00157064,0.0359735 0.00469995,0.0356997 0.0077935,0.0351542 0.0108277,0.0343412 0.0137796,0.0332668 0.0166265,0.0319392 0.0193469,0.0303686 0.0219201,0.0285669 0.0243265,0.0265477 0.0265477,0.0243265 0.0285669,0.0219201 0.0303686,0.0193469 0.0319392,0.0166265 0.024427,0.010118 0,0.122718 -0.0369596,-0.0118801 -0.0426388,-0.0179735 -0.0408959,-0.0216481 -0.038837,-0.0251555 -0.0364781,-0.0284686 -0.0338374,-0.0315617 -0.0309353,-0.034411 -0.0277942,-0.0369945 -0.0244384,-0.0392922 -0.0208938,-0.0412863 -0.0171878,-0.0429615 -0.013349,-0.0443048 -0.635755,0 0,-0.484819 z "/>
<path fill="rgb(0,91,140)" stroke="rgb(0,91,140)" d="M 3.4,6.4 l 1,0 0,0.63579 -0.0124582,0.0029847 -0.289281,0.0430736 -0.291936,0.0176779 -0.292365,-0.00785247 -0.11396,-0.0130693 0,-0.678605 z "/>
<path fill="rgb(0,91,140)" stroke="rgb(0,91,140)" d="M 4.4,0.466031 l 0.217044,0.0481175 0.278724,0.0878812 0.270004,0.111839 0.234229,0.121932 0,0.564199 -1,0 0,-0.933969 z "/>
<path fill="rgb(0,91,140)" stroke="rgb(0,91,140)" d="M 7.07961,3.4 l 0.00763957,0.0580283 0.0127478,0.291972 -0.0114859,0.277171 -0.034379,0.27527 -0.0204964,0.0975588 -0.489639,0 0,-1 0.535613,0 z "/>
<path fill="rgb(0,91,140)" stroke="rgb(0,91,140)" d="M 6.13604,1.4 l 0.180207,0.196662 0.0837511,0.109147 0,0.694192 -0.712033,0 -0.00567364,-0.00361451 -0.0319392,-0.0166265 -0.0332668,-0.0137796 -0.0343412,-0.0108277 -0.0351542,-0.0077935 -0.0356997,-0.00469995 -0.0359735,-0.00157064 -0.0359735,0.00157064 -0.0356997,0.00469995 -0.00424611,0.00094134 0,-0.9483 0.736042,0 z "/>
<path fill="rgb(0,91,140)" stroke="rgb(0,91,140)" d="M 5.4,3.28169 l 0,-0.12232 0.00424611,0.00094134 0.0356997,0.00469995 0.0359735,0.00157064 0.0359735,-0.00157064 0.0356997,-0.00469995 0.0351542,-0.0077935 0.0343412,-0.0108277 0.0332668,-0.0137796 0.0319392,-0.0166265 0.0303686,-0.0193469 0.0285669,-0.0219201 0.0265477,-0.0243265 0.0243265,-0.0265477 0.0219201,-0.0285669 0.0193469,-0.0303686 0.0166265,-0.0319392 0.0137796,-0.0332668 0.0108277,-0.0343412 0.0077935,-0.0351542 0.00469995,-0.0356997 0.00157064,-0.0359735 -0.00157064,-0.0359735 -0.00469995,-0.0356997 -0.0077935,-0.0351542 -0.0108277,-0.0343412 -0.0137796,-0.0332668 -0.0166265,-0.0319392 -0.0193469,-0.0303686 -0.0219201,-0.0285669 -0.0243265,-0.0265477 -0.0265477,-0.0243265 -0.0285669,-0.0219201 -0.024695,-0.0157324 0.712033,0 0,0.484819 -0.411619,0 -0.013548,0.0444471 -0.0173987,0.0430857 -0.021115,0.0413914 -0.0246681,0.0393773 -0.0280306,0.037059 -0.0311766,0.0344544 -0.0340817,0.0315836 -0.0367235,0.0284688 -0.0390816,0.025134 -0.0411377,0.021605 -0.042876,0.0179091 -0.044283,0.0140749 -0.0453479,0.0101319 -0.0460624,0.00611062 -0.0464211,0.00204213 -0.0764289,0 z "/>
<path fill="rgb(0,91,140)" stroke="rgb(0,91,140)" d="M 6.4,2.4 l 0,-0.694192 0.0941593,0.122711 0.157026,0.246481 0.134946,0.259229 0.0272433,0.0657712 -0.413374,0 z "/>
<path fill="rgb(0,91,140)" stroke="rgb(0,91,140)" d="M 4.4,4.85332 l 1,0 0,0.54668 -1,0 0,-0.54668 z "/>
<path fill="rgb(0,91,140)" stroke="rgb(0,91,140)" d="M 2.4,6.4 l 1,0 0,0.678605 -0.176606,-0.0202537 -0.286552,-0.0585396 -0.280354,-0.08331 -0.256488,-0.101311 0,-0.415191 z "/>
<path fill="rgb(0,91,140)" stroke="rgb(0,91,140)" d="M 5.4,4.85332 l 1,0 0,0.54668 -1,0 0,-0.54668 z "/>
<path fill="rgb(0,91,140)" stroke="rgb(0,91,140)" d="M 5.79475,6.4 l -0.394752,0 0,-1 1,0 0,0.395298 -0.0465191,0.0628739 -0.1938,0.219045 -0.212166,0.201307 -0.152763,0.121477 z "/>
<path fill="rgb(0,91,140)" stroke="rgb(0,91,140)" d="M 5.79475,6.4 l -0.0761533,0.060557 -0.243921,0.161374 -0.0746777,0.0405199 0,-0.262451 0.394752,0 z "/>
<path fill="rgb(0,91,140)" stroke="rgb(0,91,140)" d="M 3.4,5.4 l 1,0 0,1 -1,0 0,-1 z "/>
<path fill="rgb(0,91,140)" stroke="rgb(0,91,140)" d="M 6.81337,2.4 l 0.0845959,0.204233 0.0878812,0.278724 0.0632545,0.285322 0.0305067,0.231721 -0.535613,0 0,-0.515181 -0.143999,0 0,-0.484819 0.413374,0 z "/>
<path fill="rgb(0,91,140)" stroke="rgb(0,91,140)" d="M 7.03364,4.4 l -0.0365399,0.173923 -0.0793025,0.265832 -0.107123,0.272146 -0.130451,0.261766 -0.0161321,0.0263322 -0.26409,0 0,-0.54668 0.143999,0 0,-0.45332 0.489639,0 z "/>
<path fill="rgb(0,91,140)" stroke="rgb(0,91,140)" d="M 6.4,5.4 l 0.26409,0 -0.136654,0.223058 -0.127437,0.17224 0,-0.395298 z "/>
<path fill="rgb(0,91,140)" stroke="rgb(0,91,140)" d="M 1.4,5.4 l 1,0 0,1 -0.695166,0 -0.0660921,-0.0490216 -0.218815,-0.194059 -0.0199269,-0.0210519 0,-0.735867 z "/>
<path fill="rgb(0,91,140)" stroke="rgb(0,91,140)" d="M 2.18149,4.4 l 0.191366,0 0,0.45332 0.0271446,0 0,0.54668 -1,0 0,-0.915779 0.722822,0 0.00524518,-0.0007975 0.00515901,-0.00123797 0.00503591,-0.00166957 0.00487678,-0.00208923 0.00468275,-0.00249394 0.00445521,-0.0028808 0.00419578,-0.00324705 0.00390633,-0.00359006 0.00358892,-0.00390737 0.00324583,-0.00419673 0.00287951,-0.00445605 0.00249258,-0.00468348 0.00208782,-0.00487739 0.00166811,-0.0050364 0.00123647,-0.00515937 0.000795975,-0.00524541 0.00311494,-0.0286529 z "/>
<path fill="rgb(0,91,140)" stroke="rgb(0,91,140)" d="M 2.25776,3.4 l 0.115093,0 0,1 -0.191366,0 0.076273,-0.7016 0,-0.2984 z "/>
<path fill="rgb(0,91,140)" stroke="rgb(0,91,140)" d="M 1.4,2.4 l 0.264467,0 -0.024694,0.0157318 -0.0285669,0.0219201 -0.0265477,0.0243265 -0.0243265,0.0265477 -0.0219201,0.0285669 -0.0193469,0.0303686 -0.0166265,0.0319392 -0.0137796,0.0332668 -0.0108277,0.0343412 -0.0077935,0.0351542 -0.00469995,0.0356997 -0.00157064,0.0359735 0.00157064,0.0359735 0.00469995,0.0356997 0.0077935,0.0351542 0.0108277,0.0343412 0.0137796,0.0332668 0.0166265,0.0319392 0.0193469,0.0303686 0.0219201,0.0285669 0.0243265,0.0265477 0.0265477,0.0243265 0.0285669,0.0219201 0.0303686,0.0193469 0.0319392,0.0166265 0.0332668,0.0137796 0.0343412,0.0108277 0.0351542,0.0077935 0.0356997,0.00469995 0.0359735,0.00157064 0.0359735,-0.00157064 0.0356997,-0.00469995 0.0351542,-0.0077935 0.0343412,-0.0108277 0.0332668,-0.0137796 0.0319392,-0.0166265 0.0303686,-0.0193469 0.0285669,-0.0219201 0.0265477,-0.0243265 0.0243265,-0.0265477 0.0219201,-0.0285669 0.0193469,-0.0303686 0.0166265,-0.0319392 0.0137796,-0.0332668 0.0108277,-0.0343412 0.0077935,-0.0351542 0.00469995,-0.0356997 0.00157064,-0.0359735 -0.00157064,-0.0359735 -0.00469995,-0.0356997 -0.0077935,-0.0351542 -0.0108277,-0.0343412 -0.0137796,-0.0332668 -0.0166265,-0.0319392 -0.0193469,-0.0303686 -0.0219201,-0.0285669 -0.0243265,-0.0265477 -0.0265477,-0.0243265 -0.0285669,-0.0219201 -0.024694,-0.0157318 0.311435,0 0,0.484819 -0.0112703,0 -0.0138937,0.0450727 -0.0178426,0.0436603 -0.0216504,0.0419028 -0.025287,0.0398139 -0.0287237,0.0374103 -0.0319333,0.0347109 -0.0348904,0.031737 -0.0375717,0.0285123 -0.0399559,0.0250621 -0.0420242,0.0214137 -0.0437603,0.0175961 -0.0451503,0.0136393 -0.0461834,0.00957469 -0.0468513,0.00543438 -0.0471489,0.00125111 -0.0470736,-0.00294205 -0.0466262,-0.00711196 -0.0441202,-0.010734 -0.0430406,-0.014468 -0.0416455,-0.018096 -0.0399453,-0.0215914 -0.0379523,-0.0249286 -0.0356813,-0.0280831 -0.0331487,-0.0310318 -0.0303733,-0.0337532 -0.0273753,-0.0362272 -0.0241767,-0.0384357 -0.0147035,-0.0285311 0,-0.585677 z M 2.37286,3.4 l -0.115093,0 0,-0.00716893 0.115093,0 0,0.00716893 z "/>
<path fill="rgb(0,91,140)" stroke="rgb(0,91,140)" d="M 0.420387,3.4 l 0.552725,0 -0.0171115,0.23093 0.11356,0.338943 0.14411,0.430127 -0.747924,0 -0.0124755,-0.0549589 -0.0399262,-0.296331 -0.0133442,-0.29871 0.0127478,-0.291972 0.00763957,-0.0580283 z "/>
<path fill="rgb(241,240,234)" stroke="rgb(241,240,234)" d="M 1.67253,3.76587 l 0.0996351,-0.494313 0.0466262,0.00711196 0.0470736,0.00294205 0.0471489,-0.00125111 0.0468513,-0.00543438 0.0461834,-0.00957469 0.0451503,-0.0136393 0.0437603,-0.0175961 0.0420242,-0.0214137 0.0399559,-0.0250621 0.0375717,-0.0285123 0.0348904,-0.031737 0.0319333,-0.0347109 0.0287237,-0.0374103 0.025287,-0.0398139 0.0216504,-0.0419028 0.0178426,-0.0436603 0.0138937,-0.0450727 1.64702,0 0.013349,0.0443048 0.0171878,0.0429615 0.0208938,0.0412863 0.0244384,0.0392922 0.0277942,0.0369945 0.0309353,0.034411 0.0338374,0.0315617 0.0364781,0.0284686 0.038837,0.0251555 0.0408959,0.0216481 0.0426388,0.0179735 0.0440523,0.01416 0.0451256,0.0102371 0.0458502,0.00623511 0.0462206,0.00218497 0.93214,0 0.0464211,-0.00204213 0.0460624,-0.00611062 0.0453479,-0.0101319 0.044283,-0.0140749 0.042876,-0.0179091 0.0411377,-0.021605 0.0390816,-0.025134 0.0367235,-0.0284688 0.0340817,-0.0315836 0.0311766,-0.0344544 0.0280306,-0.037059 0.0246681,-0.0393773 0.021115,-0.0413914 0.0173987,-0.0430857 0.013548,-0.0444471 0.555619,0 0,1.9685 -4.17114,0 0,-1.46049 -0.115093,0 0,0.305569 -0.0793879,0.730253 -0.000795975,0.00524541 -0.00123647,0.00515937 -0.00166811,0.0050364 -0.00208782,0.00487739 -0.00249258,0.00468348 -0.00287951,0.00445605 -0.00324583,0.00419673 -0.00358892,0.00390737 -0.00390633,0.00359006 -0.00419578,0.00324705 -0.00445521,0.0028808 -0.00468275,0.00249394 -0.00487678,0.00208923 -0.00503591,0.00166957 -0.00515901,0.00123797 -0.00524518,0.0007975 -0.801695,0 -0.00942171,-0.000403417 -0.00935274,-0.0012073 -0.00921531,-0.00200234 -0.00901043,-0.00278273 -0.00873958,-0.00354275 -0.00840476,-0.00427683 -0.00800842,-0.00497961 -0.00755346,-0.00564593 -0.00704321,-0.00627093 -0.00648139,-0.00685003 -0.00587214,-0.00737898 -0.0052199,-0.00785392 -0.00452945,-0.00827136 -0.00380584,-0.00862826 -0.00305438,-0.008922 -0.145854,-0.435332 0.232577,0 0.085031,0.28728 0.00148006,0.00497592 0.00191354,0.00482584 0.00233208,0.00463808 0.00273241,0.0044141 0.00311141,0.00415566 0.00346611,0.00386477 0.00379375,0.0035437 0.00409177,0.00319497 0.00435783,0.00282129 0.00458988,0.00242557 0.00478608,0.00201092 0.00494491,0.00158057 0.00506514,0.00113788 0.00514581,0.0006863 0.00518631,0.000229364 0.480219,0 0.00447476,0.000136693 0.00446983,-0.000250665 0.00443142,-0.000636145 0.00435984,-0.00101686 0.0042556,-0.00138997 0.00411951,-0.00175266 0.00395257,-0.00210223 0.00375603,-0.00243606 0.00353137,-0.00275166 0.00328027,-0.00304664 0.0030046,-0.00331882 0.00270644,-0.00356614 0.00238801,-0.00378676 0.0020517,-0.00397903 0.00170003,-0.0041415 0.00133563,-0.00427297 0.000961231,-0.00437244 0.000579633,-0.00443917 0.000193694,-0.00447266 0,-0.428624 -0.000210063,-0.00484265 -0.000631406,-0.0048059 -0.00104794,-0.00473256 -0.0014565,-0.0046232 -0.00185397,-0.00447863 -0.00223732,-0.00429997 -0.00260364,-0.00408857 -0.00295014,-0.00384604 -0.00327417,-0.00357423 -0.00357328,-0.00327521 -0.00384518,-0.00295125 -0.00408781,-0.00260483 -0.00429932,-0.00223857 -0.00447809,-0.00185527 -0.00462277,-0.00145784 -0.00473226,-0.00104932 -0.00480572,-0.000632803 -0.00484258,-0.000211471 -0.251857,0 z "/>
<path fill="rgb(241,240,234)" stroke="rgb(241,240,234)" d="M 1.67253,3.76587 l -0.430772,0 0.0603821,0.204003 -0.232577,0 -0.11356,-0.338943 0.0476392,-0.642919 -0.0833444,-0.0516118 0,-0.182547 0.424651,0 0.00216548,0.0453555 0.00603655,0.0450041 0.00986339,0.044323 0.0136179,0.043317 0.0172727,0.0419936 0.0208009,0.0403625 0.0241767,0.0384357 0.0273753,0.0362272 0.0303733,0.0337532 0.0331487,0.0310318 0.0356813,0.0280831 0.0379523,0.0249286 0.0399453,0.0215914 0.0416455,0.018096 0.0430406,0.014468 0.0441202,0.010734 -0.0996351,0.494313 z "/>
<path fill="rgb(241,240,234)" stroke="rgb(241,240,234)" d="M 4.96276,2.75384 l -0.00157064,0.0359735 -0.00469995,0.0356997 -0.0077935,0.0351542 -0.0108277,0.0343412 -0.0137796,0.0332668 -0.0166265,0.0319392 -0.0193469,0.0303686 -0.0219201,0.0285669 -0.0243265,0.0265477 -0.0265477,0.0243265 -0.0285669,0.0219201 -0.0303686,0.0193469 -0.0319392,0.0166265 -0.0332668,0.0137796 -0.0343412,0.0108277 -0.0351542,0.0077935 -0.0356997,0.00469995 -0.0359735,0.00157064 -0.0359735,-0.00157064 -0.0356997,-0.00469995 -0.0351542,-0.0077935 -0.0343412,-0.0108277 -0.0332668,-0.0137796 -0.0319392,-0.0166265 -0.0303686,-0.0193469 -0.0285669,-0.0219201 -0.0265477,-0.0243265 -0.0243265,-0.0265477 -0.0219201,-0.0285669 -0.0193469,-0.0303686 -0.0166265,-0.0319392 -0.0137796,-0.0332668 -0.0108277,-0.0343412 -0.0077935,-0.0351542 -0.00469995,-0.0356997 -0.00157064,-0.0359735 0.00157064,-0.0359735 0.00469995,-0.0356997 0.0077935,-0.0351542 0.0108277,-0.0343412 0.0137796,-0.0332668 0.0166265,-0.0319392 0.0193469,-0.0303686 0.0219201,-0.0285669 0.0243265,-0.0265477 0.0265477,-0.0243265 0.0285669,-0.0219201 0.0303686,-0.0193469 0.0319392,-0.0166265 0.0332668,-0.0137796 0.0343412,-0.0108277 0.0351542,-0.0077935 0.0356997,-0.00469995 0.0359735,-0.00157064 0.0359735,0.00157064 0.0356997,0.00469995 0.0351542,0.0077935 0.0343412,0.0108277 0.0332668,0.0137796 0.0319392,0.0166265 0.0303686,0.0193469 0.0285669,0.0219201 0.0265477,0.0243265 0.0243265,0.0265477 0.0219201,0.0285669 0.0193469,0.0303686 0.0166265,0.0319392 0.0137796,0.0332668 0.0108277,0.0343412 0.0077935,0.0351542 0.00469995,0.0356997 0.00157064,0.0359735 z "/>
<path fill="rgb(241,240,234)" stroke="rgb(241,240,234)" d="M 5.06317,2.75384 l 0.00157064,-0.0359735 0.00469995,-0.0356997 0.0077935,-0.0351542 0.0108277,-0.0343412 0.0137796,-0.0332668 0.0166265,-0.0319392 0.0193469,-0.0303686 0.0219201,-0.0285669 0.0243265,-0.0265477 0.0265477,-0.0243265 0.0285669,-0.0219201 0.0303686,-0.0193469 0.0319392,-0.0166265 0.0332668,-0.0137796 0.0343412,-0.0108277 0.0351542,-0.0077935 0.0356997,-0.00469995 0.0359735,-0.00157064 0.0359735,0.00157064 0.0356997,0.00469995 0.0351542,0.0077935 0.0343412,0.0108277 0.0332668,0.0137796 0.0319392,0.0166265 0.0303686,0.0193469 0.0285669,0.0219201 0.0265477,0.0243265 0.0243265,0.0265477 0.0219201,0.0285669 0.0193469,0.0303686 0.0166265,0.0319392 0.0137796,0.0332668 0.0108277,0.0343412 0.0077935,0.0351542 0.00469995,0.0356997 0.00157064,0.0359735 -0.00157064,0.0359735 -0.00469995,0.0356997 -0.0077935,0.0351542 -0.0108277,0.0343412 -0.0137796,0.0332668 -0.0166265,0.0319392 -0.0193469,0.0303686 -0.0219201,0.0285669 -0.0243265,0.0265477 -0.0265477,0.0243265 -0.0285669,0.0219201 -0.0303686,0.0193469 -0.0319392,0.0166265 -0.0332668,0.0137796 -0.0343412,0.0108277 -0.0351542,0.0077935 -0.0356997,0.00469995 -0.0359735,0.00157064 -0.0359735,-0.00157064 -0.0356997,-0.00469995 -0.0351542,-0.0077935 -0.0343412,-0.0108277 -0.0332668,-0.0137796 -0.0319392,-0.0166265 -0.0303686,-0.0193469 -0.0285669,-0.0219201 -0.0265477,-0.0243265 -0.0243265,-0.0265477 -0.0219201,-0.0285669 -0.0193469,-0.0303686 -0.0166265,-0.0319392 -0.0137796,-0.0332668 -0.0108277,-0.0343412 -0.0077935,-0.0351542 -0.00469995,-0.0356997 -0.00157064,-0.0359735 z "/>
<path fill="rgb(241,240,234)" stroke="rgb(241,240,234)" d="M 2.28926,2.75384 l -0.00157064,0.0359735 -0.00469995,0.0356997 -0.0077935,0.0351542 -0.0108277,0.0343412 -0.0137796,0.0332668 -0.0166265,0.0319392 -0.0193469,0.0303686 -0.0219201,0.0285669 -0.0243265,0.0265477 -0.0265477,0.0243265 -0.0285669,0.0219201 -0.0303686,0.0193469 -0.0319392,0.0166265 -0.0332668,0.0137796 -0.0343412,0.0108277 -0.0351542,0.0077935 -0.0356997,0.00469995 -0.0359735,0.00157064 -0.0359735,-0.00157064 -0.0356997,-0.00469995 -0.0351542,-0.0077935 -0.0343412,-0.0108277 -0.0332668,-0.0137796 -0.0319392,-0.0166265 -0.0303686,-0.0193469 -0.0285669,-0.0219201 -0.0265477,-0.0243265 -0.0243265,-0.0265477 -0.0219201,-0.0285669 -0.0193469,-0.0303686 -0.0166265,-0.0319392 -0.0137796,-0.0332668 -0.0108277,-0.0343412 -0.0077935,-0.0351542 -0.00469995,-0.0356997 -0.00157064,-0.0359735 0.00157064,-0.0359735 0.00469995,-0.0356997 0.0077935,-0.0351542 0.0108277,-0.0343412 0.0137796,-0.0332668 0.0166265,-0.0319392 0.0193469,-0.0303686 0.0219201,-0.0285669 0.0243265,-0.0265477 0.0265477,-0.0243265 0.0285669,-0.0219201 0.0303686,-0.0193469 0.0319392,-0.0166265 0.0332668,-0.0137796 0.0343412,-0.0108277 0.0351542,-0.0077935 0.0356997,-0.00469995 0.0359735,-0.00157064 0.0359735,0.00157064 0.0356997,0.00469995 0.0351542,0.0077935 0.0343412,0.0108277 0.0332668,0.0137796 0.0319392,0.0166265 0.0303686,0.0193469 0.0285669,0.0219201 0.0265477,0.0243265 0.0243265,0.0265477 0.0219201,0.0285669 0.0193469,0.0303686 0.0166265,0.0319392 0.0137796,0.0332668 0.0108277,0.0343412 0.0077935,0.0351542 0.00469995,0.0356997 0.00157064,0.0359735 z "/>
<path fill="rgb(0,91,140)" stroke="rgb(0,91,140)" d="M 1.06776,6.07553 l -0.151112,0.131016 -0.207757,-0.262428 -0.18353,-0.279907 -0.15784,-0.295157 -0.130893,-0.308056 -0.102903,-0.3185 -0.0740935,-0.326407 -0.0446935,-0.331713 -0.0149375,-0.334377 0.0142699,-0.326834 0.042701,-0.324347 0.0708072,-0.319391 0.0983745,-0.312004 0.125193,-0.302243 0.151059,-0.290182 0.175775,-0.275912 0.199154,-0.259542 0.221016,-0.241197 0.241197,-0.221016 0.259542,-0.199154 0.275912,-0.175775 0.290182,-0.151059 0.302243,-0.125193 0.312004,-0.0983745 0.319391,-0.0708072 0.324347,-0.042701 0.326834,-0.0142699 0,0.2 -0.309403,0.0135088 -0.307048,0.0404237 -0.302357,0.0670308 -0.295364,0.0931279 -0.286123,0.118516 -0.274705,0.143002 -0.261196,0.1664 -0.2457,0.188532 -0.228333,0.209229 -0.209229,0.228333 -0.188532,0.2457 -0.1664,0.261196 -0.143002,0.274705 -0.118516,0.286123 -0.0931279,0.295364 -0.0670308,0.302357 -0.0404237,0.307048 -0.0135088,0.309403 0.0141408,0.316544 0.0423099,0.314022 0.0701418,0.308999 0.097415,0.301513 0.123912,0.291626 0.149422,0.279416 0.173742,0.264979 0.196677,0.248431 z "/>
<path fill="rgb(0,91,140)" stroke="rgb(0,91,140)" d="M 7.5,3.75 l -0.0128574,0.310266 -0.0384839,0.308138 -0.0638466,0.303898 -0.0887715,0.297573 -0.189122,-0.06506 0.084037,-0.281703 0.0604415,-0.28769 0.0364315,-0.291704 0.0121716,-0.293718 -0.0135088,-0.309403 -0.0404237,-0.307048 -0.0670308,-0.302357 -0.0931279,-0.295364 -0.118516,-0.286123 -0.143002,-0.274705 -0.1664,-0.261196 -0.188532,-0.2457 -0.209229,-0.228333 -0.228333,-0.209229 -0.2457,-0.188532 -0.261196,-0.1664 -0.274705,-0.143002 -0.286123,-0.118516 -0.295364,-0.0931279 -0.302357,-0.0670308 -0.307048,-0.0404237 -0.309403,-0.0135088 0,-0.2 0.326834,0.0142699 0.324347,0.042701 0.319391,0.0708072 0.312004,0.0983745 0.302243,0.125193 0.290182,0.151059 0.275912,0.175775 0.259542,0.199154 0.241197,0.221016 0.221016,0.241197 0.199154,0.259542 0.175775,0.275912 0.151059,0.290182 0.125193,0.302243 0.0983745,0.312004 0.0708072,0.319391 0.042701,0.324347 0.0142699,0.326834 z "/>
<path fill="rgb(0,91,140)" stroke="rgb(0,91,140)" d="M 1.06776,6.07553 l 0.213058,0.225086 0.231878,0.205645 0.248931,0.184636 0.264087,0.162221 0.27723,0.138568 0.288259,0.11386 0.297092,0.0882837 0.30366,0.0620345 0.307913,0.0353125 0.30982,0.00832127 0.309365,-0.0187333 0.306552,-0.0456452 0.301402,-0.0722091 0.293955,-0.0982226 0.284268,-0.123487 0.272414,-0.147811 0.258483,-0.171008 0.242583,-0.192902 0.224833,-0.213325 0.20537,-0.232122 0.184341,-0.24915 0.161907,-0.264279 0.138239,-0.277394 0.113518,-0.288394 0.189122,0.06506 -0.119913,0.304642 -0.146028,0.293022 -0.171029,0.279168 -0.194726,0.263187 -0.21694,0.245199 -0.2375,0.225343 -0.256249,0.203769 -0.273046,0.180642 -0.287761,0.156138 -0.300283,0.130445 -0.310516,0.103756 -0.318383,0.0762772 -0.323822,0.0482167 -0.326794,0.0197887 -0.327274,-0.00879008 -0.32526,-0.0373019 -0.320767,-0.0655294 -0.313829,-0.0932574 -0.304499,-0.120275 -0.292848,-0.146375 -0.278965,-0.17136 -0.262956,-0.195039 -0.244942,-0.217231 -0.225061,-0.237767 0.151112,-0.131016 z "/>
<path fill="rgb(241,240,234)" stroke="rgb(241,240,234)" d="M 7.1,3.75 l -0.0127478,-0.291972 -0.0381463,-0.28975 -0.0632545,-0.285322 -0.0878812,-0.278724 -0.111839,-0.270004 -0.134946,-0.259229 -0.157026,-0.246481 -0.17791,-0.231857 -0.197441,-0.215469 -0.215469,-0.197441 -0.231857,-0.17791 -0.246481,-0.157026 -0.259229,-0.134946 -0.270004,-0.111839 -0.278724,-0.0878812 -0.285322,-0.0632545 -0.28975,-0.0381463 -0.291972,-0.0127478 0,-0.2 0.309403,0.0135088 0.307048,0.0404237 0.302357,0.0670308 0.295364,0.0931279 0.286123,0.118516 0.274705,0.143002 0.261196,0.1664 0.2457,0.188532 0.228333,0.209229 0.209229,0.228333 0.188532,0.2457 0.1664,0.261196 0.143002,0.274705 0.118516,0.286123 0.0931279,0.295364 0.0670308,0.302357 0.0404237,0.307048 0.0135088,0.309403 -0.0121716,0.293718 -0.0364315,0.291704 -0.0604415,0.28769 -0.084037,0.281703 -0.189122,-0.06506 0.0793025,-0.265832 0.0570363,-0.271482 0.034379,-0.27527 0.0114859,-0.277171 z "/>
<path fill="rgb(241,240,234)" stroke="rgb(241,240,234)" d="M 1.06776,6.07553 l -0.196677,-0.248431 -0.173742,-0.264979 -0.149422,-0.279416 -0.123912,-0.291626 -0.097415,-0.301513 -0.0701418,-0.308999 -0.0423099,-0.314022 -0.0141408,-0.316544 0.0135088,-0.309403 0.0404237,-0.307048 0.0670308,-0.302357 0.0931279,-0.295364 0.118516,-0.286123 0.143002,-0.274705 0.1664,-0.261196 0.188532,-0.2457 0.209229,-0.228333 0.228333,-0.209229 0.2457,-0.188532 0.261196,-0.1664 0.274705,-0.143002 0.286123,-0.118516 0.295364,-0.0931279 0.302357,-0.0670308 0.307048,-0.0404237 0.309403,-0.0135088 0,0.2 -0.291972,0.0127478 -0.28975,0.0381463 -0.285322,0.0632545 -0.278724,0.0878812 -0.270004,0.111839 -0.259229,0.134946 -0.246481,0.157026 -0.231857,0.17791 -0.215469,0.197441 -0.197441,0.215469 -0.17791,0.231857 -0.157026,0.246481 -0.134946,0.259229 -0.111839,0.270004 -0.0878812,0.278724 -0.0632545,0.285322 -0.0381463,0.28975 -0.0127478,0.291972 0.0133442,0.29871 0.0399262,0.296331 0.0661902,0.29159 0.0919268,0.284527 0.116931,0.275196 0.141004,0.263674 0.163953,0.250051 0.185597,0.234435 -0.151112,0.131016 z "/>
<path fill="rgb(241,240,234)" stroke="rgb(241,240,234)" d="M 1.06776,6.07553 l 0.151112,-0.131016 0.201055,0.212405 0.218815,0.194059 0.234907,0.174234 0.249209,0.153081 0.261611,0.130762 0.272019,0.107445 0.280354,0.08331 0.286552,0.0585396 0.290566,0.033323 0.292365,0.00785247 0.291936,-0.0176779 0.289281,-0.0430736 0.284422,-0.068141 0.277395,-0.0926889 0.268253,-0.11653 0.257067,-0.139484 0.243921,-0.161374 0.228916,-0.182034 0.212166,-0.201307 0.1938,-0.219045 0.173956,-0.235114 0.152786,-0.24939 0.130451,-0.261766 0.107123,-0.272146 0.189122,0.06506 -0.113518,0.288394 -0.138239,0.277394 -0.161907,0.264279 -0.184341,0.24915 -0.20537,0.232122 -0.224833,0.213325 -0.242583,0.192902 -0.258483,0.171008 -0.272414,0.147811 -0.284268,0.123487 -0.293955,0.0982226 -0.301402,0.0722091 -0.306552,0.0456452 -0.309365,0.0187333 -0.30982,-0.00832127 -0.307913,-0.0353125 -0.30366,-0.0620345 -0.297092,-0.0882837 -0.288259,-0.11386 -0.27723,-0.138568 -0.264087,-0.162221 -0.248931,-0.184636 -0.231878,-0.205645 -0.213058,-0.225086 z "/>
</g></g></svg>
