<?xml version="1.0" encoding="UTF-8" standalone="no"?>
<!DOCTYPE svg PUBLIC "-//W3C//DTD SVG 1.1//EN" "http://www.w3.org/Graphics/SVG/1.1/DTD/svg11-flat.dtd"
[

]>
<svg xmlns="http://www.w3.org/2000/svg"  viewBox="-0.09375 -0.09375 7.6875 7.6875"><g fill="none" stroke="black" stroke-width="0.0125" transform="translate(0,7.5) scale(1, -1)">
<g id="Output" >
<path fill="rgb(0,91,140)" stroke="rgb(0,91,140)" d="M 2.20589,4.4 l 0,0.0909548 0.00272597,0.0628111 0.00815742,0.0623387 0.0135275,0.0613976 0.0187959,0.0599948 0.0239229,0.0581408 0.0288701,0.0558496 0.0336001,0.0531384 0.0380775,0.0500277 0.0264291,0.0291003 0,0.416246 -1,0 0,-1 0.805894,0 z "/>
<path fill="rgb(0,91,140)" stroke="rgb(0,91,140)" d="M 7.1,4.4 l 0,1 -0.7,0 0,-1 0.7,0 z "/>
<path fill="rgb(0,91,140)" stroke="rgb(0,91,140)" d="M 0.4,1.4 l 1,0 0,1 -1,0 0,-1 z "/>
<path fill="rgb(0,91,140)" stroke="rgb(0,91,140)" d="M 7.1,3.4 l 0,0.35 0,0.65 -0.7,0 0,-1 0.7,0 z "/>
<path fill="rgb(0,91,140)" stroke="rgb(0,91,140)" d="M 7.1,2.4 l 0,1 -0.7,0 0,-1 0.7,0 z "/>
<path fill="rgb(0,91,140)" stroke="rgb(0,91,140)" d="M 7.1,1.4 l 0,1 -0.7,0 0,-1 0.7,0 z "/>
<path fill="rgb(0,91,140)" stroke="rgb(0,91,140)" d="M 5.4,7.1 l 0,-0.7 1,0 0,0.7 -1,0 z "/>
<path fill="rgb(0,91,140)" stroke="rgb(0,91,140)" d="M 5.4,5.4 l 1,0 0,1 -1,0 0,-1 z "/>
<path fill="rgb(0,91,140)" stroke="rgb(0,91,140)" d="M 3.4,5.01799 l 0,-0.617988 0.562769,0 0.379222,0.547975 0.0048381,0.00637414 0.0053782,0.00592553 0.00587689,0.0054313 0.00633034,0.00489527 0.00673507,0.00432155 0.00708794,0.00371456 0.00738626,0.00307898 0.00762771,0.00241969 0.00674791,0.00150483 0,0.414359 -0.195072,0 -0.804928,-0.382012 z "/>
<path fill="rgb(0,91,140)" stroke="rgb(0,91,140)" d="M 5.4,4.4 l 1,0 0,1 -1,0 0,-1 z "/>
<path fill="rgb(0,91,140)" stroke="rgb(0,91,140)" d="M 5.4,3.4 l 1,0 0,1 -1,0 0,-1 z "/>
<path fill="rgb(0,91,140)" stroke="rgb(0,91,140)" d="M 4.19199,3.4 l 0,0.372304 -0.561488,-0.131753 -0.00777728,-0.00147277 -0.00787556,-0.000794155 -0.00791474,-0.000109577 -0.00789453,0.000575824 -0.00781507,0.0012569 -0.00767697,0.00192855 -0.00748126,0.00258573 -0.0072294,0.0032235 -0.0069233,0.00383708 -0.00656523,0.00442186 -0.00615791,0.00497347 -0.00570437,0.00548775 -0.00520802,0.00596085 -0.00467259,0.00638921 -0.0041021,0.00676963 -0.00350082,0.00709925 -0.00287328,0.0073756 -0.00222417,0.0075966 -0.00155837,0.00776058 -0.000880871,0.00786634 -0.000196766,0.00791306 0.000488816,0.00790039 0.00117073,0.00782845 0.00184386,0.00769775 0.00250315,0.00750929 0.00314365,0.00726448 0.00376057,0.00696515 0.431585,0.623638 -0.562769,0 0,-1 0.791994,0 z "/>
<path fill="rgb(0,91,140)" stroke="rgb(0,91,140)" d="M 3.4,2.59555 l 0.12072,-0.195553 0.671274,0 8.88178e-16,1 -0.791994,0 0,-0.804447 z "/>
<path fill="rgb(0,91,140)" stroke="rgb(0,91,140)" d="M 0.4,2.4 l 1,0 0,1 -1,0 0,-1 z "/>
<path fill="rgb(0,91,140)" stroke="rgb(0,91,140)" d="M 0.4,3.4 l 1,0 0,1 -1,0 0,-0.65 0,-0.35 z "/>
<path fill="rgb(0,91,140)" stroke="rgb(0,91,140)" d="M 0.4,4.4 l 1,0 0,1 -1,0 0,-1 z "/>
<path fill="rgb(0,91,140)" stroke="rgb(0,91,140)" d="M 0.4,5.4 l 1,0 0,1 -1,0 0,-1 z "/>
<path fill="rgb(0,91,140)" stroke="rgb(0,91,140)" d="M 0.4,6.4 l 1,0 0,0.7 -0.7,0 -0.0261467,-0.00114159 -0.0259477,-0.00341608 -0.0255513,-0.00566458 -0.0249603,-0.00786996 -0.0241794,-0.0100155 -0.0232145,-0.0120847 -0.0220729,-0.014062 -0.0207634,-0.0159323 -0.0192958,-0.0176813 -0.0176813,-0.0192958 -0.0159323,-0.0207634 -0.014062,-0.0220729 -0.0120847,-0.0232145 -0.0100155,-0.0241794 -0.00786996,-0.0249603 -0.00566458,-0.0255513 -0.00341608,-0.0259477 -0.00114159,-0.0261467 -4.44089e-16,-0.4 z "/>
<path fill="rgb(0,91,140)" stroke="rgb(0,91,140)" d="M 1.4,0.4 l 1,0 0,1 -1,0 0,-1 z "/>
<path fill="rgb(0,91,140)" stroke="rgb(0,91,140)" d="M 2.31453,2.4 l -0.914534,0 0,-1 1,0 0,0.145419 -0.00570617,-0.00110824 -0.00752292,-0.00111928 -0.0075923,-0.000451789 -0.00760257,0.000219218 -0.00755365,0.000888518 -0.00744593,0.0015509 -0.00728023,0.00220121 -0.00705786,0.00283438 -0.00678054,0.00344549 -0.00645044,0.00402977 -0.00607011,0.00458268 -0.00564253,0.00509991 -0.00517101,0.00557743 -0.00465924,0.00601154 -0.0041112,0.00639884 -0.00353115,0.00673633 -0.00292361,0.00702137 -0.00229331,0.00725175 -0.00164515,0.00742567 -0.000984184,0.00754179 -0.000315558,0.00759918 0.000355525,0.00759742 0.00102384,0.0075365 0.00168419,0.00741692 0.00233142,0.00723959 0.0029605,0.0070059 0.00356653,0.00671766 0.0041448,0.00637713 0.0046908,0.00598695 0.0875821,0.116738 0,0.486281 -0.0189345,0.0201488 -0.0397191,0.0505906 -0.0268126,0.0412076 z "/>
<path fill="rgb(0,91,140)" stroke="rgb(0,91,140)" d="M 2.31453,2.4 l -0.00826629,0.0127042 -0.0301627,0.0568087 -0.0250091,0.0592584 -0.0196586,0.0612417 -0.0141535,0.0627431 -0.00853688,0.0637506 -0.00285311,0.0642563 0,0.619237 -0.805894,0 0,-1 0.914534,0 z "/>
<path fill="rgb(0,91,140)" stroke="rgb(0,91,140)" d="M 2.20589,3.4 l 4.44089e-16,1 -0.805894,0 0,-1 0.805894,0 z "/>
<path fill="rgb(0,91,140)" stroke="rgb(0,91,140)" d="M 3.4,1.73964 l 0,-0.339637 0.791994,0 0,1 -0.671274,0 0.28402,-0.46008 0.00377445,-0.00676084 0.00316731,-0.00706566 0.00253579,-0.0073161 0.00188475,-0.00751021 0.00121919,-0.00764651 0.000544256,-0.00772394 -0.000134871,-0.00774192 -0.000812961,-0.0077003 -0.00148479,-0.0075994 -0.00214519,-0.00744 -0.00278908,-0.00722333 -0.0034115,-0.00695105 -0.00400765,-0.00662527 -0.00457296,-0.00624848 -0.00510306,-0.0058236 -0.00559388,-0.00535388 -0.00604164,-0.00484295 -0.00644288,-0.00429473 -0.00679453,-0.00371346 -0.00709388,-0.0031036 -0.00733862,-0.00246985 -0.00752686,-0.00181708 -0.346571,-0.0673106 z "/>
<path fill="rgb(0,91,140)" stroke="rgb(0,91,140)" d="M 7.1,5.4 l 0,1 -0.7,0 0,-1 0.7,0 z "/>
<path fill="rgb(0,91,140)" stroke="rgb(0,91,140)" d="M 1.4,0.4 l 0,1 -1,0 4.44089e-16,-0.7 0.00114159,-0.0261467 0.00341608,-0.0259477 0.00566458,-0.0255513 0.00786996,-0.0249603 0.0100155,-0.0241794 0.0120847,-0.0232145 0.014062,-0.0220729 0.0159323,-0.0207634 0.0176813,-0.0192958 0.0192958,-0.0176813 0.0207634,-0.0159323 0.0220729,-0.014062 0.0232145,-0.0120847 0.0241794,-0.0100155 0.0249603,-0.00786996 0.0255513,-0.00566458 0.0259477,-0.00341608 0.0261467,-0.00114159 0.7,0 z "/>
<path fill="rgb(0,91,140)" stroke="rgb(0,91,140)" d="M 3.4,7.1 l 0,-0.7 0.791994,0 0,0.156271 0.208006,0 0,0.543729 -1,8.88178e-16 z "/>
<path fill="rgb(0,91,140)" stroke="rgb(0,91,140)" d="M 4.4,5.52595 l -0.0140932,-0.0130432 -0.0496678,-0.0385456 -0.0528205,-0.0340977 -0.055576,-0.0293933 -0.0229142,-0.0108749 0.195072,0 0,0.125955 z M 3.4,5.51609 l 0.634902,0.301319 0.0210806,0.0111492 0.0200354,0.0129336 0.0188395,0.0146208 0.017502,0.016198 0.0160329,0.0176534 0.0144432,0.018976 0.0127449,0.020156 0.0109507,0.0211843 0.00907422,0.0220534 0.00712948,0.0227566 0.00513113,0.0232887 0.00309419,0.0236457 0.00103399,0.0238249 0,0.334145 -0.791994,0 0,-0.883905 z "/>
<path fill="rgb(0,91,140)" stroke="rgb(0,91,140)" d="M 2.65589,3.4 l 0.744106,0 0,1 -0.744106,0 -4.44089e-16,-1 z "/>
<path fill="rgb(0,91,140)" stroke="rgb(0,91,140)" d="M 4.19199,1.4 l -0.791994,0 0,-1 1,0 0,0.554848 -0.208006,-4.44089e-16 0,0.445152 z "/>
<path fill="rgb(0,91,140)" stroke="rgb(0,91,140)" d="M 2.4,6.4 l 1,0 0,0.7 -1,0 0,-0.7 z "/>
<path fill="rgb(0,91,140)" stroke="rgb(0,91,140)" d="M 3.15538,5.4 l 0.24462,0.116095 0,0.883905 -1,0 0,-1 0.75538,0 z "/>
<path fill="rgb(0,91,140)" stroke="rgb(0,91,140)" d="M 2.65589,4.4 l 0.744106,0 0,0.617988 -0.587014,-0.278592 -0.0210806,-0.0111492 -0.0200354,-0.0129336 -0.0188395,-0.0146208 -0.017502,-0.016198 -0.0160329,-0.0176534 -0.0144432,-0.018976 -0.0127449,-0.020156 -0.0109507,-0.0211843 -0.00907422,-0.0220534 -0.00712948,-0.0227566 -0.00513113,-0.0232887 -0.00309419,-0.0236457 -0.00103399,-0.0238249 0,-0.0909548 z M 2.4,4.98375 l 0.0158394,0.0174404 0.0461417,0.0427037 0.0496678,0.0385456 0.0528205,0.0340977 0.055576,0.0293933 0.535335,0.254065 -0.75538,0 0,-0.416246 z "/>
<path fill="rgb(0,91,140)" stroke="rgb(0,91,140)" d="M 6.8,0.4 l 0.0261467,0.00114159 0.0259477,0.00341608 0.0255513,0.00566458 0.0249603,0.00786996 0.0241794,0.0100155 0.0232145,0.0120847 0.0220729,0.014062 0.0207634,0.0159323 0.0192958,0.0176813 0.0176813,0.0192958 0.0159323,0.0207634 0.014062,0.0220729 0.0120847,0.0232145 0.0100155,0.0241794 0.00786996,0.0249603 0.00566458,0.0255513 0.00341608,0.0259477 0.00114159,0.0261467 0,0.7 -0.7,0 0,-1 0.4,0 z "/>
<path fill="rgb(0,91,140)" stroke="rgb(0,91,140)" d="M 3.4,2.59555 l 0,0.804447 -0.744106,0 0,-0.619237 0.00109111,-0.0244728 0.00326466,-0.0242786 0.00541231,-0.0238917 0.00751701,-0.0233153 0.00956205,-0.0225538 0.0115312,-0.0216134 0.0134089,-0.0205015 0.0151802,-0.0192268 0.016831,-0.0177996 0.0183482,-0.0162312 0.0197199,-0.0145339 0.020935,-0.0127214 0.0219841,-0.0108079 0.100945,0.548851 0.0017104,0.00746568 0.00235011,0.00728964 0.00297218,0.00705889 0.00357195,0.00677518 0.00414491,0.00644062 0.00468677,0.00605773 0.00519345,0.00562938 0.00566117,0.00515878 0.0060864,0.00464947 0.00646595,0.00410527 0.00679699,0.00353027 0.00707701,0.00292877 0.00730393,0.00230529 0.00747604,0.00166452 0.00759205,0.00101125 0.00765108,0.000350395 0.0076527,-0.00031309 0.00759689,-0.000974226 0.00748407,-0.00162805 0.00731509,-0.00226966 0.00709121,-0.00289423 0.00681412,-0.00349709 0.00648589,-0.0040737 0.00610899,-0.00461975 0.00568625,-0.00513112 0.00522084,-0.00560399 0.00471624,-0.0060348 0.319463,-0.517494 z "/>
<path fill="rgb(0,91,140)" stroke="rgb(0,91,140)" d="M 2.4,1.4 l 1,0 0,0.339637 -1,-0.194219 0,-0.145419 z M 2.4,2.28805 l 0,-0.486281 0.237188,0.316148 -0.0575916,0.0286395 -0.0548267,0.0336311 -0.0516302,0.038358 -0.0480274,0.042783 -0.025112,0.0267224 z "/>
<path fill="rgb(0,91,140)" stroke="rgb(0,91,140)" d="M 2.4,0.4 l 1,0 0,1 -1,0 0,-1 z "/>
<path fill="rgb(0,91,140)" stroke="rgb(0,91,140)" d="M 5.4,1.4 l 1,0 0,1 -1,0 0,-1 z "/>
<path fill="rgb(0,91,140)" stroke="rgb(0,91,140)" d="M 5.4,0.4 l 1,0 0,1 -1,0 0,-1 z "/>
<path fill="rgb(0,91,140)" stroke="rgb(0,91,140)" d="M 4.4,7.1 l 0,-0.543729 0.241994,0 0,-0.156271 0.758006,0 0,0.7 -1,0 z "/>
<path fill="rgb(0,91,140)" stroke="rgb(0,91,140)" d="M 4.4,5.52595 l 0,-0.125955 1,0 0,1 -0.758006,0 0,-0.334145 -0.00272597,-0.0628111 -0.00815742,-0.0623387 -0.0135275,-0.0613976 -0.0187959,-0.0599948 -0.0239229,-0.0581408 -0.0288701,-0.0558496 -0.0336001,-0.0531384 -0.0380775,-0.0500277 -0.0422685,-0.0465407 -0.0320484,-0.0296606 z "/>
<path fill="rgb(0,91,140)" stroke="rgb(0,91,140)" d="M 4.4,4.98564 l 0.00106253,0.000236952 0.00793306,0.00105046 0.0079946,0.000351054 0.0079946,-0.000351054 0.00793306,-0.00105046 0.00781045,-0.00174178 0.00762771,-0.00241969 0.00738626,-0.00307898 0.00708794,-0.00371456 0.00673507,-0.00432155 0.00633034,-0.00489527 0.00587689,-0.0054313 0.0053782,-0.00592553 0.0048381,-0.00637414 0.378277,-0.547975 0.529734,0 0,1 -1,0 0,-0.414359 z "/>
<path fill="rgb(0,91,140)" stroke="rgb(0,91,140)" d="M 4.64199,3.4 l 0.758006,0 0,1 -0.529734,0 0.430509,-0.623638 0.00417575,-0.00665944 0.00357248,-0.0070016 0.0029414,-0.00728925 0.00228741,-0.00752016 0.00161562,-0.00769252 0.000931246,-0.00780499 0.000239625,-0.00785669 -0.000453862,-0.00784723 -0.00114382,-0.00777668 -0.00182486,-0.00764558 -0.0024917,-0.00745496 -0.00313915,-0.0072063 -0.00376215,-0.00690154 -0.00435587,-0.00654305 -0.00491567,-0.00613362 -0.0054372,-0.00567643 -0.0059164,-0.00517506 -0.00634955,-0.00463339 -0.00673325,-0.00405565 -0.00706454,-0.00344634 -0.00734083,-0.0028102 -0.00755997,-0.00215218 -0.00772025,-0.0014774 -0.00782043,-0.000791124 -0.00785973,-9.86863e-05 -0.00783783,0.000594519 -0.00775491,0.0012831 -0.00761163,0.00196168 -0.55945,0.131753 0,-0.372304 z "/>
<path fill="rgb(0,91,140)" stroke="rgb(0,91,140)" d="M 5.4,2.4 l 1,0 0,1 -1,0 0,-1 z "/>
<path fill="rgb(0,91,140)" stroke="rgb(0,91,140)" d="M 4.64199,2.4 l 0.758006,0 0,1 -0.758006,0 0,-1 z "/>
<path fill="rgb(0,91,140)" stroke="rgb(0,91,140)" d="M 4.64199,1.4 l 0.758006,0 0,1 -0.758006,0 0,-1 z "/>
<path fill="rgb(0,91,140)" stroke="rgb(0,91,140)" d="M 5.4,0.4 l 0,1 -0.758006,0 0,-0.445152 -0.241994,-4.44089e-16 0,-0.554848 1,0 z "/>
<path fill="rgb(0,91,140)" stroke="rgb(0,91,140)" d="M 1.4,6.4 l 1,0 0,0.7 -1,0 0,-0.7 z "/>
<path fill="rgb(0,91,140)" stroke="rgb(0,91,140)" d="M 1.4,5.4 l 1,0 0,1 -1,0 0,-1 z "/>
<path fill="rgb(0,91,140)" stroke="rgb(0,91,140)" d="M 6.4,6.4 l 0.7,0 0,0.4 -0.00114159,0.0261467 -0.00341608,0.0259477 -0.00566458,0.0255513 -0.00786996,0.0249603 -0.0100155,0.0241794 -0.0120847,0.0232145 -0.014062,0.0220729 -0.0159323,0.0207634 -0.0176813,0.0192958 -0.0192958,0.0176813 -0.0207634,0.0159323 -0.0220729,0.014062 -0.0232145,0.0120847 -0.0241794,0.0100155 -0.0249603,0.00786996 -0.0255513,0.00566458 -0.0259477,0.00341608 -0.0261467,0.00114159 -0.4,0 0,-0.7 z "/>
<path fill="rgb(241,240,234)" stroke="rgb(241,240,234)" d="M 4.19199,6.55627 l 0,-0.490416 -0.00103399,-0.0238249 -0.00309419,-0.0236457 -0.00513113,-0.0232887 -0.00712948,-0.0227566 -0.00907422,-0.0220534 -0.0109507,-0.0211843 -0.0127449,-0.020156 -0.0144432,-0.018976 -0.0160329,-0.0176534 -0.017502,-0.016198 -0.0188395,-0.0146208 -0.0200354,-0.0129336 -0.0210806,-0.0111492 -1.41486,-0.67148 -0.055576,-0.0293933 -0.0528205,-0.0340977 -0.0496678,-0.0385456 -0.0461417,-0.0427037 -0.0422685,-0.0465407 -0.0380775,-0.0500277 -0.0336001,-0.0531384 -0.0288701,-0.0558496 -0.0239229,-0.0581408 -0.0187959,-0.0599948 -0.0135275,-0.0613976 -0.00815742,-0.0623387 -0.00272597,-0.0628111 -4.44089e-16,-1.71019 0.00285311,-0.0642563 0.00853688,-0.0637506 0.0141535,-0.0627431 0.0196586,-0.0612417 0.0250091,-0.0592584 0.0301627,-0.0568087 0.0350789,-0.0539118 0.0397191,-0.0505906 0.0440466,-0.0468712 0.0480274,-0.042783 0.0516302,-0.038358 0.0548267,-0.0336311 0.0575916,-0.0286395 -0.32477,-0.432886 -0.0046908,-0.00598695 -0.0041448,-0.00637713 -0.00356653,-0.00671766 -0.0029605,-0.0070059 -0.00233142,-0.00723959 -0.00168419,-0.00741692 -0.00102384,-0.0075365 -0.000355525,-0.00759742 0.000315558,-0.00759918 0.000984184,-0.00754179 0.00164515,-0.00742567 0.00229331,-0.00725175 0.00292361,-0.00702137 0.00353115,-0.00673633 0.0041112,-0.00639884 0.00465924,-0.00601154 0.00517101,-0.00557743 0.00564253,-0.00509991 0.00607011,-0.00458268 0.00645044,-0.00402977 0.00678054,-0.00344549 0.00705786,-0.00283438 0.00728023,-0.00220121 0.00744593,-0.0015509 0.00755365,-0.000888518 0.00760257,-0.000219218 0.0075923,0.000451789 0.00752292,0.00111928 1.35228,0.262637 0.00752686,0.00181708 0.00733862,0.00246985 0.00709388,0.0031036 0.00679453,0.00371346 0.00644288,0.00429473 0.00604164,0.00484295 0.00559388,0.00535388 0.00510306,0.0058236 0.00457296,0.00624848 0.00400765,0.00662527 0.0034115,0.00695105 0.00278908,0.00722333 0.00214519,0.00744 0.00148479,0.0075994 0.000812961,0.0077003 0.000134871,0.00774192 -0.000544256,0.00772394 -0.00121919,0.00764651 -0.00188475,0.00751021 -0.00253579,0.0073161 -0.00316731,0.00706566 -0.00377445,0.00676084 -0.724203,1.17313 -0.00471624,0.0060348 -0.00522084,0.00560399 -0.00568625,0.00513112 -0.00610899,0.00461975 -0.00648589,0.0040737 -0.00681412,0.00349709 -0.00709121,0.00289423 -0.00731509,0.00226966 -0.00748407,0.00162805 -0.00759689,0.000974226 -0.0076527,0.00031309 -0.00765108,-0.000350395 -0.00759205,-0.00101125 -0.00747604,-0.00166452 -0.00730393,-0.00230529 -0.00707701,-0.00292877 -0.00679699,-0.00353027 -0.00646595,-0.00410527 -0.0060864,-0.00464947 -0.00566117,-0.00515878 -0.00519345,-0.00562938 -0.00468677,-0.00605773 -0.00414491,-0.00644062 -0.00357195,-0.00677518 -0.00297218,-0.00705889 -0.00235011,-0.00728964 -0.0017104,-0.00746568 -0.100945,-0.548851 -0.0219841,0.0108079 -0.020935,0.0127214 -0.0197199,0.0145339 -0.0183482,0.0162312 -0.016831,0.0177996 -0.0151802,0.0192268 -0.0134089,0.0205015 -0.0115312,0.0216134 -0.00956205,0.0225538 -0.00751701,0.0233153 -0.00541231,0.0238917 -0.00326466,0.0242786 -0.00109111,0.0244728 4.44089e-16,1.71019 0.00103399,0.0238249 0.00309419,0.0236457 0.00513113,0.0232887 0.00712948,0.0227566 0.00907422,0.0220534 0.0109507,0.0211843 0.0127449,0.020156 0.0144432,0.018976 0.0160329,0.0176534 0.017502,0.016198 0.0188395,0.0146208 0.0200354,0.0129336 0.0210806,0.0111492 1.41486,0.67148 0.055576,0.0293933 0.0528205,0.0340977 0.0496678,0.0385456 0.0461417,0.0427037 0.0422685,0.0465407 0.0380775,0.0500277 0.0336001,0.0531384 0.0288701,0.0558496 0.0239229,0.0581408 0.0187959,0.0599948 0.0135275,0.0613976 0.00815742,0.0623387 0.00272597,0.0628111 0,0.490416 -0.45,0 z "/>
<path fill="rgb(241,240,234)" stroke="rgb(241,240,234)" d="M 4.19199,0.954848 l 0.45,8.88178e-16 0,2.81746 0.55945,-0.131753 0.00761163,-0.00196168 0.00775491,-0.0012831 0.00783783,-0.000594519 0.00785973,9.86863e-05 0.00782043,0.000791124 0.00772025,0.0014774 0.00755997,0.00215218 0.00734083,0.0028102 0.00706454,0.00344634 0.00673325,0.00405565 0.00634955,0.00463339 0.0059164,0.00517506 0.0054372,0.00567643 0.00491567,0.00613362 0.00435587,0.00654305 0.00376215,0.00690154 0.00313915,0.0072063 0.0024917,0.00745496 0.00182486,0.00764558 0.00114382,0.00777668 0.000453862,0.00784723 -0.000239625,0.00785669 -0.000931246,0.00780499 -0.00161562,0.00769252 -0.00228741,0.00752016 -0.0029414,0.00728925 -0.00357248,0.0070016 -0.00417575,0.00665944 -0.808786,1.17161 -0.0048381,0.00637414 -0.0053782,0.00592553 -0.00587689,0.0054313 -0.00633034,0.00489527 -0.00673507,0.00432155 -0.00708794,0.00371456 -0.00738626,0.00307898 -0.00762771,0.00241969 -0.00781045,0.00174178 -0.00793306,0.00105046 -0.0079946,0.000351054 -0.0079946,-0.000351054 -0.00793306,-0.00105046 -0.00781045,-0.00174178 -0.00762771,-0.00241969 -0.00738626,-0.00307898 -0.00708794,-0.00371456 -0.00673507,-0.00432155 -0.00633034,-0.00489527 -0.00587689,-0.0054313 -0.0053782,-0.00592553 -0.0048381,-0.00637414 -0.810807,-1.17161 -0.00376057,-0.00696515 -0.00314365,-0.00726448 -0.00250315,-0.00750929 -0.00184386,-0.00769775 -0.00117073,-0.00782845 -0.000488816,-0.00790039 0.000196766,-0.00791306 0.000880871,-0.00786634 0.00155837,-0.00776058 0.00222417,-0.0075966 0.00287328,-0.0073756 0.00350082,-0.00709925 0.0041021,-0.00676963 0.00467259,-0.00638921 0.00520802,-0.00596085 0.00570437,-0.00548775 0.00615791,-0.00497347 0.00656523,-0.00442186 0.0069233,-0.00383708 0.0072294,-0.0032235 0.00748126,-0.00258573 0.00767697,-0.00192855 0.00781507,-0.0012569 0.00789453,-0.000575824 0.00791474,0.000109577 0.00787556,0.000794155 0.00777728,0.00147277 0.561488,0.131753 -8.88178e-16,-2.81746 z "/>
<path fill="rgb(241,240,234)" stroke="rgb(241,240,234)" d="M 7.1,3.75 l 0.2,4.44089e-16 0,3.05 -0.00190265,0.0435779 -0.00569347,0.0432462 -0.00944096,0.0425854 -0.0131166,0.0416005 -0.0166924,0.0402991 -0.0201412,0.0386909 -0.0234367,0.0367882 -0.0265538,0.0346056 -0.0294688,0.0321596 -0.0321596,0.0294688 -0.0346056,0.0265538 -0.0367882,0.0234367 -0.0386909,0.0201412 -0.0402991,0.0166924 -0.0416005,0.0131166 -0.0425854,0.00944096 -0.0432462,0.00569347 -0.0435779,0.00190265 -6.1,8.88178e-16 -0.0435779,-0.00190265 -0.0432462,-0.00569347 -0.0425854,-0.00944096 -0.0416005,-0.0131166 -0.0402991,-0.0166924 -0.0386909,-0.0201412 -0.0367882,-0.0234367 -0.0346056,-0.0265538 -0.0321596,-0.0294688 -0.0294688,-0.0321596 -0.0265538,-0.0346056 -0.0234367,-0.0367882 -0.0201412,-0.0386909 -0.0166924,-0.0402991 -0.0131166,-0.0416005 -0.00944096,-0.0425854 -0.00569347,-0.0432462 -0.00190265,-0.0435779 -4.44089e-16,-3.05 0.2,-4.44089e-16 4.44089e-16,3.05 0.00114159,0.0261467 0.00341608,0.0259477 0.00566458,0.0255513 0.00786996,0.0249603 0.0100155,0.0241794 0.0120847,0.0232145 0.014062,0.0220729 0.0159323,0.0207634 0.0176813,0.0192958 0.0192958,0.0176813 0.0207634,0.0159323 0.0220729,0.014062 0.0232145,0.0120847 0.0241794,0.0100155 0.0249603,0.00786996 0.0255513,0.00566458 0.0259477,0.00341608 0.0261467,0.00114159 6.1,-8.88178e-16 0.0261467,-0.00114159 0.0259477,-0.00341608 0.0255513,-0.00566458 0.0249603,-0.00786996 0.0241794,-0.0100155 0.0232145,-0.0120847 0.0220729,-0.014062 0.0207634,-0.0159323 0.0192958,-0.0176813 0.0176813,-0.0192958 0.0159323,-0.0207634 0.014062,-0.0220729 0.0120847,-0.0232145 0.0100155,-0.0241794 0.00786996,-0.0249603 0.00566458,-0.0255513 0.00341608,-0.0259477 0.00114159,-0.0261467 0,-3.05 z "/>
<path fill="rgb(241,240,234)" stroke="rgb(241,240,234)" d="M 7.1,3.75 l 0,-3.05 -0.00114159,-0.0261467 -0.00341608,-0.0259477 -0.00566458,-0.0255513 -0.00786996,-0.0249603 -0.0100155,-0.0241794 -0.0120847,-0.0232145 -0.014062,-0.0220729 -0.0159323,-0.0207634 -0.0176813,-0.0192958 -0.0192958,-0.0176813 -0.0207634,-0.0159323 -0.0220729,-0.014062 -0.0232145,-0.0120847 -0.0241794,-0.0100155 -0.0249603,-0.00786996 -0.0255513,-0.00566458 -0.0259477,-0.00341608 -0.0261467,-0.00114159 -6.1,0 -0.0261467,0.00114159 -0.0259477,0.00341608 -0.0255513,0.00566458 -0.0249603,0.00786996 -0.0241794,0.0100155 -0.0232145,0.0120847 -0.0220729,0.014062 -0.0207634,0.0159323 -0.0192958,0.0176813 -0.0176813,0.0192958 -0.0159323,0.0207634 -0.014062,0.0220729 -0.0120847,0.0232145 -0.0100155,0.0241794 -0.00786996,0.0249603 -0.00566458,0.0255513 -0.00341608,0.0259477 -0.00114159,0.0261467 -4.44089e-16,3.05 -0.2,4.44089e-16 4.44089e-16,-3.05 0.00190265,-0.0435779 0.00569347,-0.0432462 0.00944096,-0.0425854 0.0131166,-0.0416005 0.0166924,-0.0402991 0.0201412,-0.0386909 0.0234367,-0.0367882 0.0265538,-0.0346056 0.0294688,-0.0321596 0.0321596,-0.0294688 0.0346056,-0.0265538 0.0367882,-0.0234367 0.0386909,-0.0201412 0.0402991,-0.0166924 0.0416005,-0.0131166 0.0425854,-0.00944096 0.0432462,-0.00569347 0.0435779,-0.00190265 6.1,0 0.0435779,0.00190265 0.0432462,0.00569347 0.0425854,0.00944096 0.0416005,0.0131166 0.0402991,0.0166924 0.0386909,0.0201412 0.0367882,0.0234367 0.0346056,0.0265538 0.0321596,0.0294688 0.0294688,0.0321596 0.0265538,0.0346056 0.0234367,0.0367882 0.0201412,0.0386909 0.0166924,0.0402991 0.0131166,0.0416005 0.00944096,0.0425854 0.00569347,0.0432462 0.00190265,0.0435779 0,3.05 -0.2,-4.44089e-16 z "/>
<path fill="rgb(0,91,140)" stroke="rgb(0,91,140)" d="M 7.3,3.75 l 0.2,0 0,3.05 -0.00266371,0.061009 -0.00797086,0.0605447 -0.0132173,0.0596196 -0.0183632,0.0582408 -0.0233694,0.0564187 -0.0281977,0.0541672 -0.0328114,0.0515035 -0.0371753,0.0484478 -0.0412564,0.0450234 -0.0450234,0.0412564 -0.0484478,0.0371753 -0.0515035,0.0328114 -0.0541672,0.0281977 -0.0564187,0.0233694 -0.0582408,0.0183632 -0.0596196,0.0132173 -0.0605447,0.00797086 -0.061009,0.00266371 -6.1,1.77636e-15 -0.061009,-0.00266371 -0.0605447,-0.00797086 -0.0596196,-0.0132173 -0.0582408,-0.0183632 -0.0564187,-0.0233694 -0.0541672,-0.0281977 -0.0515035,-0.0328114 -0.0484478,-0.0371753 -0.0450234,-0.0412564 -0.0412564,-0.0450234 -0.0371753,-0.0484478 -0.0328114,-0.0515035 -0.0281977,-0.0541672 -0.0233694,-0.0564187 -0.0183632,-0.0582408 -0.0132173,-0.0596196 -0.00797086,-0.0605447 -0.00266371,-0.061009 1.33227e-15,-3.05 0.2,8.88178e-16 4.44089e-16,3.05 0.00190265,0.0435779 0.00569347,0.0432462 0.00944096,0.0425854 0.0131166,0.0416005 0.0166924,0.0402991 0.0201412,0.0386909 0.0234367,0.0367882 0.0265538,0.0346056 0.0294688,0.0321596 0.0321596,0.0294688 0.0346056,0.0265538 0.0367882,0.0234367 0.0386909,0.0201412 0.0402991,0.0166924 0.0416005,0.0131166 0.0425854,0.00944096 0.0432462,0.00569347 0.0435779,0.00190265 6.1,-8.88178e-16 0.0435779,-0.00190265 0.0432462,-0.00569347 0.0425854,-0.00944096 0.0416005,-0.0131166 0.0402991,-0.0166924 0.0386909,-0.0201412 0.0367882,-0.0234367 0.0346056,-0.0265538 0.0321596,-0.0294688 0.0294688,-0.0321596 0.0265538,-0.0346056 0.0234367,-0.0367882 0.0201412,-0.0386909 0.0166924,-0.0402991 0.0131166,-0.0416005 0.00944096,-0.0425854 0.00569347,-0.0432462 0.00190265,-0.0435779 0,-3.05 z "/>
<path fill="rgb(0,91,140)" stroke="rgb(0,91,140)" d="M 0.7,0 l 6.1,0 0.061009,0.00266371 0.0605447,0.00797086 0.0596196,0.0132173 0.0582408,0.0183632 0.0564187,0.0233694 0.0541672,0.0281977 0.0515035,0.0328114 0.0484478,0.0371753 0.0450234,0.0412564 0.0412564,0.0450234 0.0371753,0.0484478 0.0328114,0.0515035 0.0281977,0.0541672 0.0233694,0.0564187 0.0183632,0.0582408 0.0132173,0.0596196 0.00797086,0.0605447 0.00266371,0.061009 0,3.05 -0.2,0 0,-3.05 -0.00190265,-0.0435779 -0.00569347,-0.0432462 -0.00944096,-0.0425854 -0.0131166,-0.0416005 -0.0166924,-0.0402991 -0.0201412,-0.0386909 -0.0234367,-0.0367882 -0.0265538,-0.0346056 -0.0294688,-0.0321596 -0.0321596,-0.0294688 -0.0346056,-0.0265538 -0.0367882,-0.0234367 -0.0386909,-0.0201412 -0.0402991,-0.0166924 -0.0416005,-0.0131166 -0.0425854,-0.00944096 -0.0432462,-0.00569347 -0.0435779,-0.00190265 -6.1,0 -0.0435779,0.00190265 -0.0432462,0.00569347 -0.0425854,0.00944096 -0.0416005,0.0131166 -0.0402991,0.0166924 -0.0386909,0.0201412 -0.0367882,0.0234367 -0.0346056,0.0265538 -0.0321596,0.0294688 -0.0294688,0.0321596 -0.0265538,0.0346056 -0.0234367,0.0367882 -0.0201412,0.0386909 -0.0166924,0.0402991 -0.0131166,0.0416005 -0.00944096,0.0425854 -0.00569347,0.0432462 -0.00190265,0.0435779 -4.44089e-16,3.05 -0.2,-8.88178e-16 -2.22045e-15,-3.05 0.00266371,-0.061009 0.00797086,-0.0605447 0.0132173,-0.0596196 0.0183632,-0.0582408 0.0233694,-0.0564187 0.0281977,-0.0541672 0.0328114,-0.0515035 0.0371753,-0.0484478 0.0412564,-0.0450234 0.0450234,-0.0412564 0.0484478,-0.0371753 0.0515035,-0.0328114 0.0541672,-0.0281977 0.0564187,-0.0233694 0.0582408,-0.0183632 0.0596196,-0.0132173 0.0605447,-0.00797086 0.061009,-0.00266371 z "/>
</g></g></svg>
