<?xml version="1.0" encoding="UTF-8" standalone="no"?>
<!DOCTYPE svg PUBLIC "-//W3C//DTD SVG 1.1//EN" "http://www.w3.org/Graphics/SVG/1.1/DTD/svg11-flat.dtd"
[

]>
<svg xmlns="http://www.w3.org/2000/svg"  viewBox="-0.05625 -0.05625 4.6125 7.6125"><g fill="none" stroke="black" stroke-width="0.0125" transform="translate(0,7.5) scale(1, -1)">
<g id="Output" >
<path fill="rgb(0,91,140)" stroke="rgb(0,91,140)" d="M 1.6825,1.96066 l 0.87051,0.020404 0,0.333235 -0.485131,0 -0.0059073,-0.000265952 -0.00585951,-0.000795705 -0.0057643,-0.00131902 -0.00562245,-0.00183166 -0.00543511,-0.00232949 -0.0052038,-0.00280846 -0.00493038,-0.00326471 -0.00461707,-0.00369454 -0.0042664,-0.00409449 -0.337773,-0.333235 z "/>
<path fill="rgb(0,91,140)" stroke="rgb(0,91,140)" d="M 2.62555,1.98334 l 0.637008,0.0158657 -0.27883,0.294696 -0.00398333,0.00386705 -0.00429701,0.00351521 -0.00457972,0.00313802 -0.00482941,0.0027382 -0.00504429,0.00231865 -0.0052228,0.00188238 -0.00536366,0.00143254 -0.00546585,0.000972378 -0.00552863,0.000505202 -0.00555156,3.43832e-05 -0.308311,0 0,-0.330966 z "/>
<path fill="rgb(0,91,140)" stroke="rgb(0,91,140)" d="M 3.09608,1.24556 l -0.0175878,0.0131212 -0.0163585,0.0146253 -0.0150009,0.0160147 -0.0135258,0.0172786 -0.0119447,0.0184071 -0.0102699,0.0193914 -0.00851473,0.0202237 -0.00669278,0.0208975 -0.00481838,0.0214075 -0.00290621,0.0217498 -0.000971275,0.0219216 0.000930776,0.0214605 0.00278534,0.0212994 0.00461898,0.0209782 0.00641793,0.0204995 0.00816869,0.0198669 0.00985809,0.019085 0.0114735,0.0181599 0.0130027,0.0170983 0.0144342,0.0159083 0.0157574,0.0145989 0.0169622,0.0131798 0.0180396,0.0116617 0.0189815,0.010056 0.0197809,0.00837485 0.0204317,0.00663077 0.0209291,0.00483689 0.0212692,0.00300669 0.0214497,0.0011539 0.0214691,-0.000707547 0.0213272,-0.00256368 0.0210251,-0.00440057 0.0205652,-0.0062044 0.0199508,-0.00796164 0.0191865,-0.00965908 0.0182782,-0.011284 0.0172326,-0.0128241 0.0160576,-0.014268 0.0147619,-0.0156047 0.0133555,-0.0168242 0.0118487,-0.0179173 0.0102529,-0.0188759 0.00858011,-0.0196927 0.00684289,-0.0203616 0.00505429,-0.0208776 0.00322772,-0.0212368 0.0686617,0.00740887 -0.00420597,0.0272137 -0.00654204,0.0267485 -0.00882915,0.026083 -0.0110502,0.0252224 -0.0131886,0.0241731 -0.0152283,0.0229429 -0.017154,0.0215411 -0.0189514,0.019978 -0.020607,0.0182655 -0.0221084,0.0164163 -0.0234444,0.0144443 -0.024605,0.0123642 -0.0255814,0.0101916 -0.0263665,0.00794272 -0.0269542,0.00563443 -0.0273403,0.00328397 -0.0275218,0.000908939 -0.0274974,-0.00147289 -0.0272673,-0.0038437 -0.0268331,-0.00618575 -0.0261981,-0.00848152 -0.0253671,-0.0107138 -0.0243464,-0.012866 -0.0231434,-0.0149218 -0.0217673,-0.0168661 -0.0202283,-0.0186841 -0.0185379,-0.0203623 -0.0167089,-0.0218882 -0.0147548,-0.0232502 -0.0126903,-0.0244384 -0.0105309,-0.0254436 -0.00829265,-0.0262585 -0.00599237,-0.0268769 -0.00364726,-0.0272942 -0.00127485,-0.0275073 -1.18787,0 -0.0011888,0.0279868 -0.00365004,0.0277732 -0.00608288,0.0273436 -0.00846841,0.0267013 -0.0107881,0.0258513 -0.0130238,0.0248002 -0.0151583,0.0235563 -0.0171748,0.0221291 -0.0190578,0.0205298 -0.0207925,0.0187708 -0.0223655,0.0168658 -0.0237645,0.0148296 -0.0249787,0.0126781 -0.0259986,0.010428 -0.0268163,0.00809675 -0.0274254,0.00570252 -0.0278212,0.00326395 -0.0280006,0.000799981 -0.0279622,-0.00167021 -0.0277063,-0.0041274 -0.0272348,-0.0065525 -0.0265516,-0.00892662 -0.0256618,-0.0112313 -0.0245725,-0.0134487 -0.023292,-0.0155614 -0.0218303,-0.0175531 -0.0201988,-0.0194082 -0.0184102,-0.0211124 -0.0164785,-0.0226524 -0.0144185,-0.0240162 -0.0122464,-0.0251932 -0.00997908,-0.0261742 -0.00763411,-0.0269517 -0.00522976,-0.0275195 -0.00278473,-0.0278732 0.0709023,-0.00393666 0.00208424,0.021779 0.00399661,0.0215104 0.00587784,0.0210742 0.00771327,0.0204738 0.00948861,0.0197139 0.01119,0.0188004 0.0128043,0.0177404 0.0143187,0.0165422 0.0157217,0.0152151 0.0170021,0.0137695 0.0181501,0.0122166 0.0191566,0.0105685 0.0200139,0.00883812 0.0207153,0.00703885 0.0212553,0.00518475 0.0216297,0.00329025 0.0218356,0.00137011 0.0218713,-0.0005607 0.0217367,-0.00248714 0.0214327,-0.00439421 0.0209617,-0.00626704 0.0203274,-0.00809104 0.0195348,-0.009852 0.0185899,-0.0115362 0.0175003,-0.0131305 0.0162742,-0.0146226 0.0149214,-0.0160007 0.0134523,-0.0172541 0.0118784,-0.0183731 0.010212,-0.019349 0.00846603,-0.0201741 0.00665409,-0.0208421 0.0047903,-0.0213477 0.00288919,-0.0216869 0.000965571,-0.0218572 -0.000953207,-0.0217171 -0.00285229,-0.0215501 -0.00472944,-0.0212173 -0.00657021,-0.0207213 -0.00836045,-0.020066 -0.0100864,-0.0192563 -0.0117347,-0.0182986 -0.0132928,-0.0172 -0.0147487,-0.0159692 -0.0160911,-0.0146156 -0.0173098,-0.0131496 -0.0183954,-0.0115824 0.48424,-0.836754 0.231485,0 0.271711,4.44089e-16 0.574371,0.845562 z "/>
<path fill="rgb(0,91,140)" stroke="rgb(0,91,140)" d="M 3.09608,1.24556 l -0.574371,-0.845562 1.27829,-8.88178e-16 0.0261467,0.00114159 0.0259477,0.00341608 0.0255513,0.00566458 0.0249603,0.00786996 0.0241794,0.0100155 0.0232145,0.0120847 0.0220729,0.014062 0.0207634,0.0159323 0.0192958,0.0176813 0.0176813,0.0192958 0.0159323,0.0207634 0.014062,0.0220729 0.0120847,0.0232145 0.0100155,0.0241794 0.00786996,0.0249603 0.00566458,0.0255513 0.00341608,0.0259477 0.00114159,0.0261467 0,6.1 -0.00114159,0.0261467 -0.00341608,0.0259477 -0.00566458,0.0255513 -0.00786996,0.0249603 -0.0100155,0.0241794 -0.0120847,0.0232145 -0.014062,0.0220729 -0.0159323,0.0207634 -0.0176813,0.0192958 -0.0192958,0.0176813 -0.0207634,0.0159323 -0.0220729,0.014062 -0.0232145,0.0120847 -0.0241794,0.0100155 -0.0249603,0.00786996 -0.0255513,0.00566458 -0.0259477,0.00341608 -0.0261467,0.00114159 -1.55,0 -1.55,0 -0.0261467,-0.00114159 -0.0259477,-0.00341608 -0.0255513,-0.00566458 -0.0249603,-0.00786996 -0.0241794,-0.0100155 -0.0232145,-0.0120847 -0.0220729,-0.014062 -0.0207634,-0.0159323 -0.0192958,-0.0176813 -0.0176813,-0.0192958 -0.0159323,-0.0207634 -0.014062,-0.0220729 -0.0120847,-0.0232145 -0.0100155,-0.0241794 -0.00786996,-0.0249603 -0.00566458,-0.0255513 -0.00341608,-0.0259477 -0.00114159,-0.0261467 -4.44089e-16,-6.1 0.00114159,-0.0261467 0.00341608,-0.0259477 0.00566458,-0.0255513 0.00786996,-0.0249603 0.0100155,-0.0241794 0.0120847,-0.0232145 0.014062,-0.0220729 0.0159323,-0.0207634 0.0176813,-0.0192958 0.0192958,-0.0176813 0.0207634,-0.0159323 0.0220729,-0.014062 0.0232145,-0.0120847 0.0241794,-0.0100155 0.0249603,-0.00786996 0.0255513,-0.00566458 0.0259477,-0.00341608 0.0261467,-0.00114159 1.31852,-4.44089e-16 -0.48424,0.836754 -0.0191836,-0.00985455 -0.0199676,-0.0081497 -0.0206004,-0.00638315 -0.0210773,-0.00456828 -0.0213946,-0.00271882 -0.02155,-0.000848786 -0.0215422,0.00102768 -0.0213713,0.00289636 -0.0210386,0.00474312 -0.0205467,0.00655397 -0.0198992,0.00831521 -0.0191011,0.0100135 -0.0181584,0.011636 -0.0170781,0.0131704 -0.0158687,0.014605 -0.014539,0.0159292 -0.0130993,0.0171327 -0.0115605,0.0182065 -0.00993411,0.0191425 -0.00823253,0.0199336 -0.00646862,0.0205737 -0.00465574,0.0210581 -0.00280762,0.0213831 -0.00093824,0.0215463 3.61842e-05,0.00423516 0.000108542,0.00423392 0.000180868,0.00423145 -0.0709023,0.00393666 -0.290167,0.0498663 0,0.349119 0.825173,0.13829 0.342302,0.340042 0.00889305,0.00810745 0.0095546,0.00731619 0.010146,0.0064712 0.0106628,0.00557867 0.0111013,0.00464516 0.0114583,0.00367754 0.0117311,0.0026829 0.0119178,0.00166855 0.0120169,0.000641949 1.33227e-14,0 0.895443,0 0.00634592,-0.000282897 0.00629558,-0.000846447 0.00619529,-0.00140328 0.00604585,-0.00194898 0.00584844,-0.00247922 0.00560463,-0.00298979 0.00531636,-0.00347664 0.00498592,-0.00393591 0.00461592,-0.00436396 6.66134e-15,-7.10543e-15 0.347732,-0.365912 0.435255,-0.0634812 0,-0.398985 -0.247099,-0.0521354 -0.0686617,-0.00740887 0.000794395,-0.00884491 0.000477045,-0.00886769 0.000159083,-0.00887909 -0.000931,-0.0214631 -0.00278601,-0.0213019 -0.00462009,-0.0209806 -0.00641946,-0.0205018 -0.00817061,-0.0198689 -0.00986038,-0.0190868 -0.0114761,-0.0181613 -0.0130056,-0.0170993 -0.0144374,-0.015909 -0.0157607,-0.0145991 -0.0169656,-0.0131795 -0.0180431,-0.0116609 -0.0189851,-0.0100548 -0.0197844,-0.00837307 -0.0204352,-0.00662847 -0.0209324,-0.00483409 -0.0212723,-0.00300338 -0.0214525,-0.00115012 -0.0214715,0.000711785 -0.0213292,0.00256834 -0.0210267,0.00440561 -0.0205663,0.00620977 -0.0199513,0.00796729 -0.0191865,0.00966496 -0.0182775,0.01129 z "/>
<path fill="rgb(241,240,234)" stroke="rgb(241,240,234)" d="M 1.16366,1.4521 l 0.00093824,-0.0215463 0.00280762,-0.0213831 0.00465574,-0.0210581 0.00646862,-0.0205737 0.00823253,-0.0199336 0.00993411,-0.0191425 0.0115605,-0.0182065 0.0130993,-0.0171327 0.014539,-0.0159292 0.0158687,-0.014605 0.0170781,-0.0131704 0.0181584,-0.011636 0.0191011,-0.0100135 0.0198992,-0.00831521 0.0205467,-0.00655397 0.0210386,-0.00474312 0.0213713,-0.00289636 0.0215422,-0.00102768 0.02155,0.000848786 0.0213946,0.00271882 0.0210773,0.00456828 0.0206004,0.00638315 0.0199676,0.0081497 0.0191836,0.00985455 0.0183954,0.0115824 0.0173098,0.0131496 0.0160911,0.0146156 0.0147487,0.0159692 0.0132928,0.0172 0.0117347,0.0182986 0.0100864,0.0192563 0.00836045,0.020066 0.00657021,0.0207213 0.00472944,0.0212173 0.00285229,0.0215501 0.000953207,0.0217171 -0.000965571,0.0218572 -0.00288919,0.0216869 -0.0047903,0.0213477 -0.00665409,0.0208421 -0.00846603,0.0201741 -0.010212,0.019349 -0.0118784,0.0183731 -0.0134523,0.0172541 -0.0149214,0.0160007 -0.0162742,0.0146226 -0.0175003,0.0131305 -0.0185899,0.0115362 -0.0195348,0.009852 -0.0203274,0.00809104 -0.0209617,0.00626704 -0.0214327,0.00439421 -0.0217367,0.00248714 -0.0218713,0.0005607 -0.0218356,-0.00137011 -0.0216297,-0.00329025 -0.0212553,-0.00518475 -0.0207153,-0.00703885 -0.0200139,-0.00883812 -0.0191566,-0.0105685 -0.0181501,-0.0122166 -0.0170021,-0.0137695 -0.0157217,-0.0152151 -0.0143187,-0.0165422 -0.0128043,-0.0177404 -0.01119,-0.0188004 -0.00948861,-0.0197139 -0.00771327,-0.0204738 -0.00587784,-0.0210742 -0.00399661,-0.0215104 -0.00208424,-0.021779 -0.000180868,-0.00423145 -0.000108542,-0.00423392 -3.61842e-05,-0.00423516 z "/>
<path fill="rgb(241,240,234)" stroke="rgb(241,240,234)" d="M 3.09608,1.24556 l 0.0182775,-0.01129 0.0191865,-0.00966496 0.0199513,-0.00796729 0.0205663,-0.00620977 0.0210267,-0.00440561 0.0213292,-0.00256834 0.0214715,-0.000711785 0.0214525,0.00115012 0.0212723,0.00300338 0.0209324,0.00483409 0.0204352,0.00662847 0.0197844,0.00837307 0.0189851,0.0100548 0.0180431,0.0116609 0.0169656,0.0131795 0.0157607,0.0145991 0.0144374,0.015909 0.0130056,0.0170993 0.0114761,0.0181613 0.00986038,0.0190868 0.00817061,0.0198689 0.00641946,0.0205018 0.00462009,0.0209806 0.00278601,0.0213019 0.000931,0.0214631 -0.000159083,0.00887909 -0.000477045,0.00886769 -0.000794395,0.00884491 -0.00322772,0.0212368 -0.00505429,0.0208776 -0.00684289,0.0203616 -0.00858011,0.0196927 -0.0102529,0.0188759 -0.0118487,0.0179173 -0.0133555,0.0168242 -0.0147619,0.0156047 -0.0160576,0.014268 -0.0172326,0.0128241 -0.0182782,0.011284 -0.0191865,0.00965908 -0.0199508,0.00796164 -0.0205652,0.0062044 -0.0210251,0.00440057 -0.0213272,0.00256368 -0.0214691,0.000707547 -0.0214497,-0.0011539 -0.0212692,-0.00300669 -0.0209291,-0.00483689 -0.0204317,-0.00663077 -0.0197809,-0.00837485 -0.0189815,-0.010056 -0.0180396,-0.0116617 -0.0169622,-0.0131798 -0.0157574,-0.0145989 -0.0144342,-0.0159083 -0.0130027,-0.0170983 -0.0114735,-0.0181599 -0.00985809,-0.019085 -0.00816869,-0.0198669 -0.00641793,-0.0204995 -0.00461898,-0.0209782 -0.00278534,-0.0212994 -0.000930776,-0.0214605 0.000971275,-0.0219216 0.00290621,-0.0217498 0.00481838,-0.0214075 0.00669278,-0.0208975 0.00851473,-0.0202237 0.0102699,-0.0193914 0.0119447,-0.0184071 0.0135258,-0.0172786 0.0150009,-0.0160147 0.0163585,-0.0146253 0.0175878,-0.0131212 z "/>
<path fill="rgb(241,240,234)" stroke="rgb(241,240,234)" d="M 2.80292,2.3143 l 0,0.0725394 -0.735043,0 -1.33227e-14,0 -0.0120169,-0.000641949 -0.0119178,-0.00166855 -0.0117311,-0.0026829 -0.0114583,-0.00367754 -0.0111013,-0.00464516 -0.0106628,-0.00557867 -0.010146,-0.0064712 -0.0095546,-0.00731619 -0.00889305,-0.00810745 -0.167476,-0.16637 0,-0.100215 0.217351,0.214431 0.0042664,0.00409449 0.00461707,0.00369454 0.00493038,0.00326471 0.0052038,0.00280846 0.00543511,0.00232949 0.00562245,0.00183166 0.0057643,0.00131902 0.00585951,0.000795705 0.0059073,0.000265952 0.485131,0 0,-0.333235 -0.750088,-0.0175814 0,-0.512886 1,0 0,0.537155 -0.177373,-0.00441775 0,0.330966 0.177373,0 z "/>
<path fill="rgb(241,240,234)" stroke="rgb(241,240,234)" d="M 2.80292,1.4506 l 0.112785,0 0.00127485,0.0275073 0.00364726,0.0272942 0.00599237,0.0268769 0.00829265,0.0262585 0.0105309,0.0254436 0.0126903,0.0244384 0.0147548,0.0232502 0.0167089,0.0218882 0.0185379,0.0203623 0.0202283,0.0186841 0.0217673,0.0168661 0.0231434,0.0149218 0.0243464,0.012866 0.0253671,0.0107138 0.0261981,0.00848152 0.0268331,0.00618575 0.0272673,0.0038437 0.0274974,0.00147289 0.0275218,-0.000908939 0.0273403,-0.00328397 0.0269542,-0.00563443 0.0263665,-0.00794272 0.0255814,-0.0101916 0.024605,-0.0123642 0.0234444,-0.0144443 0.0221084,-0.0164163 0.020607,-0.0182655 0.0189514,-0.019978 0.017154,-0.0215411 0.0152283,-0.0229429 0.0131886,-0.0241731 0.0110502,-0.0252224 0.00882915,-0.026083 0.00654204,-0.0267485 0.00420597,-0.0272137 0.247099,0.0521354 0,0.398985 -0.435255,0.0634812 -0.347732,0.365912 -6.66134e-15,7.10543e-15 -0.00461592,0.00436396 -0.00498592,0.00393591 -0.00531636,0.00347664 -0.00560463,0.00298979 -0.00584844,0.00247922 -0.00604585,0.00194898 -0.00619529,0.00140328 -0.00629558,0.000846447 -0.00634592,0.000282897 -0.160401,0 0,-0.0725394 0.130939,0 0.00555156,-3.43832e-05 0.00552863,-0.000505202 0.00546585,-0.000972378 0.00536366,-0.00143254 0.0052228,-0.00188238 0.00504429,-0.00231865 0.00482941,-0.0027382 0.00457972,-0.00313802 0.00429701,-0.00351521 0.00398333,-0.00386705 0.27883,-0.294696 -0.459635,-0.011448 0,-0.537155 z "/>
<path fill="rgb(241,240,234)" stroke="rgb(241,240,234)" d="M 1.80292,2.07947 l 0,0.100215 -0.174827,-0.173673 -0.825173,-0.13829 0,-0.349119 0.290167,-0.0498663 0.00278473,0.0278732 0.00522976,0.0275195 0.00763411,0.0269517 0.00997908,0.0261742 0.0122464,0.0251932 0.0144185,0.0240162 0.0164785,0.0226524 0.0184102,0.0211124 0.0201988,0.0194082 0.0218303,0.0175531 0.023292,0.0155614 0.0245725,0.0134487 0.0256618,0.0112313 0.0265516,0.00892662 0.0272348,0.0065525 0.0277063,0.0041274 0.0279622,0.00167021 0.0280006,-0.000799981 0.0278212,-0.00326395 0.0274254,-0.00570252 0.0268163,-0.00809675 0.0259986,-0.010428 0.0249787,-0.0126781 0.0237645,-0.0148296 0.0223655,-0.0168658 0.0207925,-0.0187708 0.0190578,-0.0205298 0.0171748,-0.0221291 0.0151583,-0.0235563 0.0130238,-0.0248002 0.0107881,-0.0258513 0.00846841,-0.0267013 0.00608288,-0.0273436 0.00365004,-0.0277732 0.0011888,-0.0279868 0.0750851,0 0,0.512886 -0.120422,-0.0028226 0.120422,0.118804 z "/>
<path fill="rgb(0,91,140)" stroke="rgb(0,91,140)" d="M 3.8,7.5 l -1.55,0 -4.44089e-16,-0.2 1.55,0 0.0435779,-0.00190265 0.0432462,-0.00569347 0.0425854,-0.00944096 0.0416005,-0.0131166 0.0402991,-0.0166924 0.0386909,-0.0201412 0.0367882,-0.0234367 0.0346056,-0.0265538 0.0321596,-0.0294688 0.0294688,-0.0321596 0.0265538,-0.0346056 0.0234367,-0.0367882 0.0201412,-0.0386909 0.0166924,-0.0402991 0.0131166,-0.0416005 0.00944096,-0.0425854 0.00569347,-0.0432462 0.00190265,-0.0435779 0,-6.1 -0.00190265,-0.0435779 -0.00569347,-0.0432462 -0.00944096,-0.0425854 -0.0131166,-0.0416005 -0.0166924,-0.0402991 -0.0201412,-0.0386909 -0.0234367,-0.0367882 -0.0265538,-0.0346056 -0.0294688,-0.0321596 -0.0321596,-0.0294688 -0.0346056,-0.0265538 -0.0367882,-0.0234367 -0.0386909,-0.0201412 -0.0402991,-0.0166924 -0.0416005,-0.0131166 -0.0425854,-0.00944096 -0.0432462,-0.00569347 -0.0435779,-0.00190265 -1.55,4.44089e-16 0,-0.2 1.55,-4.44089e-16 0.061009,0.00266371 0.0605447,0.00797086 0.0596196,0.0132173 0.0582408,0.0183632 0.0564187,0.0233694 0.0541672,0.0281977 0.0515035,0.0328114 0.0484478,0.0371753 0.0450234,0.0412564 0.0412564,0.0450234 0.0371753,0.0484478 0.0328114,0.0515035 0.0281977,0.0541672 0.0233694,0.0564187 0.0183632,0.0582408 0.0132173,0.0596196 0.00797086,0.0605447 0.00266371,0.061009 8.88178e-16,6.1 -0.00266371,0.061009 -0.00797086,0.0605447 -0.0132173,0.0596196 -0.0183632,0.0582408 -0.0233694,0.0564187 -0.0281977,0.0541672 -0.0328114,0.0515035 -0.0371753,0.0484478 -0.0412564,0.0450234 -0.0450234,0.0412564 -0.0484478,0.0371753 -0.0515035,0.0328114 -0.0541672,0.0281977 -0.0564187,0.0233694 -0.0582408,0.0183632 -0.0596196,0.0132173 -0.0605447,0.00797086 -0.061009,0.00266371 z "/>
<path fill="rgb(0,91,140)" stroke="rgb(0,91,140)" d="M 0,6.8 l 0,-6.1 0.00266371,-0.061009 0.00797086,-0.0605447 0.0132173,-0.0596196 0.0183632,-0.0582408 0.0233694,-0.0564187 0.0281977,-0.0541672 0.0328114,-0.0515035 0.0371753,-0.0484478 0.0412564,-0.0450234 0.0450234,-0.0412564 0.0484478,-0.0371753 0.0515035,-0.0328114 0.0541672,-0.0281977 0.0564187,-0.0233694 0.0582408,-0.0183632 0.0596196,-0.0132173 0.0605447,-0.00797086 0.061009,-0.00266371 1.55,-8.88178e-16 0,0.2 -1.55,4.44089e-16 -0.0435779,0.00190265 -0.0432462,0.00569347 -0.0425854,0.00944096 -0.0416005,0.0131166 -0.0402991,0.0166924 -0.0386909,0.0201412 -0.0367882,0.0234367 -0.0346056,0.0265538 -0.0321596,0.0294688 -0.0294688,0.0321596 -0.0265538,0.0346056 -0.0234367,0.0367882 -0.0201412,0.0386909 -0.0166924,0.0402991 -0.0131166,0.0416005 -0.00944096,0.0425854 -0.00569347,0.0432462 -0.00190265,0.0435779 0,6.1 0.00190265,0.0435779 0.00569347,0.0432462 0.00944096,0.0425854 0.0131166,0.0416005 0.0166924,0.0402991 0.0201412,0.0386909 0.0234367,0.0367882 0.0265538,0.0346056 0.0294688,0.0321596 0.0321596,0.0294688 0.0346056,0.0265538 0.0367882,0.0234367 0.0386909,0.0201412 0.0402991,0.0166924 0.0416005,0.0131166 0.0425854,0.00944096 0.0432462,0.00569347 0.0435779,0.00190265 1.55,0 4.44089e-16,0.2 -1.55,0 -0.061009,-0.00266371 -0.0605447,-0.00797086 -0.0596196,-0.0132173 -0.0582408,-0.0183632 -0.0564187,-0.0233694 -0.0541672,-0.0281977 -0.0515035,-0.0328114 -0.0484478,-0.0371753 -0.0450234,-0.0412564 -0.0412564,-0.0450234 -0.0371753,-0.0484478 -0.0328114,-0.0515035 -0.0281977,-0.0541672 -0.0233694,-0.0564187 -0.0183632,-0.0582408 -0.0132173,-0.0596196 -0.00797086,-0.0605447 -0.00266371,-0.061009 z "/>
<path fill="rgb(241,240,234)" stroke="rgb(241,240,234)" d="M 2.25,0.4 l 0,-0.2 1.55,-4.44089e-16 0.0435779,0.00190265 0.0432462,0.00569347 0.0425854,0.00944096 0.0416005,0.0131166 0.0402991,0.0166924 0.0386909,0.0201412 0.0367882,0.0234367 0.0346056,0.0265538 0.0321596,0.0294688 0.0294688,0.0321596 0.0265538,0.0346056 0.0234367,0.0367882 0.0201412,0.0386909 0.0166924,0.0402991 0.0131166,0.0416005 0.00944096,0.0425854 0.00569347,0.0432462 0.00190265,0.0435779 0,6.1 -0.00190265,0.0435779 -0.00569347,0.0432462 -0.00944096,0.0425854 -0.0131166,0.0416005 -0.0166924,0.0402991 -0.0201412,0.0386909 -0.0234367,0.0367882 -0.0265538,0.0346056 -0.0294688,0.0321596 -0.0321596,0.0294688 -0.0346056,0.0265538 -0.0367882,0.0234367 -0.0386909,0.0201412 -0.0402991,0.0166924 -0.0416005,0.0131166 -0.0425854,0.00944096 -0.0432462,0.00569347 -0.0435779,0.00190265 -1.55,0 0,-0.2 1.55,0 0.0261467,-0.00114159 0.0259477,-0.00341608 0.0255513,-0.00566458 0.0249603,-0.00786996 0.0241794,-0.0100155 0.0232145,-0.0120847 0.0220729,-0.014062 0.0207634,-0.0159323 0.0192958,-0.0176813 0.0176813,-0.0192958 0.0159323,-0.0207634 0.014062,-0.0220729 0.0120847,-0.0232145 0.0100155,-0.0241794 0.00786996,-0.0249603 0.00566458,-0.0255513 0.00341608,-0.0259477 0.00114159,-0.0261467 0,-6.1 -0.00114159,-0.0261467 -0.00341608,-0.0259477 -0.00566458,-0.0255513 -0.00786996,-0.0249603 -0.0100155,-0.0241794 -0.0120847,-0.0232145 -0.014062,-0.0220729 -0.0159323,-0.0207634 -0.0176813,-0.0192958 -0.0192958,-0.0176813 -0.0207634,-0.0159323 -0.0220729,-0.014062 -0.0232145,-0.0120847 -0.0241794,-0.0100155 -0.0249603,-0.00786996 -0.0255513,-0.00566458 -0.0259477,-0.00341608 -0.0261467,-0.00114159 -1.27829,8.88178e-16 -0.271711,-4.44089e-16 z "/>
<path fill="rgb(241,240,234)" stroke="rgb(241,240,234)" d="M 0.7,0.4 l -0.0261467,0.00114159 -0.0259477,0.00341608 -0.0255513,0.00566458 -0.0249603,0.00786996 -0.0241794,0.0100155 -0.0232145,0.0120847 -0.0220729,0.014062 -0.0207634,0.0159323 -0.0192958,0.0176813 -0.0176813,0.0192958 -0.0159323,0.0207634 -0.014062,0.0220729 -0.0120847,0.0232145 -0.0100155,0.0241794 -0.00786996,0.0249603 -0.00566458,0.0255513 -0.00341608,0.0259477 -0.00114159,0.0261467 4.44089e-16,6.1 0.00114159,0.0261467 0.00341608,0.0259477 0.00566458,0.0255513 0.00786996,0.0249603 0.0100155,0.0241794 0.0120847,0.0232145 0.014062,0.0220729 0.0159323,0.0207634 0.0176813,0.0192958 0.0192958,0.0176813 0.0207634,0.0159323 0.0220729,0.014062 0.0232145,0.0120847 0.0241794,0.0100155 0.0249603,0.00786996 0.0255513,0.00566458 0.0259477,0.00341608 0.0261467,0.00114159 1.55,0 0,0.2 -1.55,0 -0.0435779,-0.00190265 -0.0432462,-0.00569347 -0.0425854,-0.00944096 -0.0416005,-0.0131166 -0.0402991,-0.0166924 -0.0386909,-0.0201412 -0.0367882,-0.0234367 -0.0346056,-0.0265538 -0.0321596,-0.0294688 -0.0294688,-0.0321596 -0.0265538,-0.0346056 -0.0234367,-0.0367882 -0.0201412,-0.0386909 -0.0166924,-0.0402991 -0.0131166,-0.0416005 -0.00944096,-0.0425854 -0.00569347,-0.0432462 -0.00190265,-0.0435779 0,-6.1 0.00190265,-0.0435779 0.00569347,-0.0432462 0.00944096,-0.0425854 0.0131166,-0.0416005 0.0166924,-0.0402991 0.0201412,-0.0386909 0.0234367,-0.0367882 0.0265538,-0.0346056 0.0294688,-0.0321596 0.0321596,-0.0294688 0.0346056,-0.0265538 0.0367882,-0.0234367 0.0386909,-0.0201412 0.0402991,-0.0166924 0.0416005,-0.0131166 0.0425854,-0.00944096 0.0432462,-0.00569347 0.0435779,-0.00190265 1.55,-4.44089e-16 0,0.2 -0.231485,0 -1.31852,4.44089e-16 z "/>
<path fill="rgb(241,240,234)" stroke="rgb(241,240,234)" d="M 2.55866,6.76836 l -1.4687,0 0,-3.5008 0.573073,0 0,1.37301 0.895628,0 0.0892402,0.00215037 0.109669,0.0107518 0.102142,0.0182781 0.0956913,0.0279548 0.0870899,0.0344059 0.0806388,0.0440825 0.0827891,0.0591351 0.0795636,0.0698869 0.0709621,0.0784884 0.0634358,0.0860147 0.0559095,0.0946162 0.0462329,0.0989169 -1.85899,0.00322555 0,0.871974 0.918207,0 0.939711,0.0247292 -0.0451577,0.0892402 -0.0537592,0.0849395 -0.0623607,0.0784884 -0.0709621,0.0731125 -0.0806388,0.0677366 -0.0903154,0.0612855 -0.0634358,0.0354811 -0.0892402,0.040857 -0.093541,0.0311803 -0.0999921,0.0225789 -0.104293,0.0129022 -0.108594,0.00537592 z "/>
<path fill="rgb(241,240,234)" stroke="rgb(241,240,234)" d="M 3.52095,6.16518 l -0.939711,-0.0247292 0.0677366,-0.00322555 0.104293,-0.0193533 0.0892402,-0.0387066 0.0731125,-0.0559095 0.0247292,-0.0268796 0.0580599,-0.0870899 0.0344059,-0.0999921 0.011827,-0.112894 -0.00107518,-0.0279548 -0.0172029,-0.110744 -0.0430073,-0.0946162 -0.0677366,-0.0774132 -0.0430073,-0.0344059 -0.0870899,-0.0462329 -0.0967665,-0.0279548 -0.107518,-0.00860147 -0.918207,0 1.85899,-0.00322555 0.0387066,0.105368 0.0268796,0.106443 0.0161278,0.108594 0.00537592,0.110744 -0.00107518,0.0505336 -0.00860147,0.112894 -0.0172029,0.107518 -0.0258044,0.101067 -0.0354811,0.0967665 z "/>
</g></g></svg>
