<?xml version="1.0" encoding="UTF-8" standalone="no"?>
<!DOCTYPE svg PUBLIC "-//W3C//DTD SVG 1.1//EN" "http://www.w3.org/Graphics/SVG/1.1/DTD/svg11-flat.dtd"
[

]>
<svg xmlns="http://www.w3.org/2000/svg"  viewBox="-0.125044 -0.125044 10.2536 12.7519"><g fill="none" stroke="black" stroke-width="0.0125" transform="translate(0,12.5018) scale(1, -1)">
<g id="Output" >
<path fill="rgb(241,240,234)" stroke="rgb(241,240,234)" d="M 3.30897,3.50089 l -0.338443,0 -2.35975,-2.94907 0.0175566,-0.0123701 0.0185091,-0.0108935 0.0193377,-0.00934393 0.0200368,-0.00773184 0.0206018,-0.00606799 0.0210289,-0.00436353 0.0213152,-0.00262986 0.0214588,-0.000878579 0.135165,0 2.40319,3.00335 z "/>
<path fill="rgb(241,240,234)" stroke="rgb(241,240,234)" d="M 0.508116,1.26946 l 1.77636e-15,-0.422964 2.12397,2.6544 -0.338443,0 -1.78552,-2.23143 z "/>
<path fill="rgb(241,240,234)" stroke="rgb(241,240,234)" d="M 9.51129,6.24823 l -0.759525,0 0,-2.04734 -0.00266371,-0.061009 -0.00797086,-0.0605447 -0.0132173,-0.0596196 -0.0183632,-0.0582408 -0.0233694,-0.0564187 -0.0281977,-0.0541672 -0.0328114,-0.0515035 -0.0371753,-0.0484478 -0.0412564,-0.0450234 -0.0450234,-0.0412564 -0.0484478,-0.0371753 -0.0515035,-0.0328114 -0.0541672,-0.0281977 -0.0564187,-0.0233694 -0.0582408,-0.0183632 -0.0596196,-0.0132173 -0.0605447,-0.00797086 -0.061009,-0.00266371 -4.40436,0 -2.40319,-3.00335 8.00457,8.88178e-15 0.0228784,0.000998892 0.0227043,0.00298907 0.0223574,0.00495651 0.0218403,0.00688622 0.021157,0.00876352 0.0203127,0.0105741 0.0193138,0.0123043 0.0181679,0.0139407 0.0168838,0.0154711 0.0154711,0.0168838 0.0139407,0.0181679 0.0123043,0.0193138 0.0105741,0.0203127 0.00876352,0.021157 0.00688622,0.0218403 0.00495651,0.0223574 0.00298907,0.0227043 0.000998892,0.0228784 0,5.48819 z "/>
<path fill="rgb(241,240,234)" stroke="rgb(241,240,234)" d="M 1.9552,3.50089 l -0.00342837,0 -0.061009,0.00266371 -0.0605447,0.00797086 -0.0596196,0.0132173 -0.0582408,0.0183632 -0.0564187,0.0233694 -0.0541672,0.0281977 -0.0515035,0.0328114 -0.0484478,0.0371753 -0.0450234,0.0412564 -0.0412564,0.0450234 -0.0371753,0.0484478 -0.0328114,0.0515035 -0.0281977,0.0541672 -0.0233694,0.0564187 -0.0183632,0.0582408 -0.0132173,0.0596196 -0.00797086,0.0605447 -0.00266371,0.061009 -4.44089e-16,2.04734 -0.743653,-8.88178e-16 8.88178e-16,-4.55581 1.44708,1.80847 z "/>
<path fill="rgb(241,240,234)" stroke="rgb(241,240,234)" d="M 9.51129,6.24823 l 1.77636e-15,0.00265976 -1.77636e-15,4.57831 -1.46295,-1.82831 0.00342837,0 0.061009,-0.00266371 0.0605447,-0.00797086 0.0596196,-0.0132173 0.0582408,-0.0183632 0.0564187,-0.0233694 0.0541672,-0.0281977 0.0515035,-0.0328114 0.0484478,-0.0371753 0.0450234,-0.0412564 0.0412564,-0.0450234 0.0371753,-0.0484478 0.0328114,-0.0515035 0.0281977,-0.0541672 0.0233694,-0.0564187 0.0183632,-0.0582408 0.0132173,-0.0596196 0.00797086,-0.0605447 0.00266371,-0.061009 1.77636e-15,-2.05 -1.77636e-15,-0.00265976 0.759525,0 z "/>
<path fill="rgb(241,240,234)" stroke="rgb(241,240,234)" d="M 9.39587,11.9538 l -0.0189819,0.0116974 -0.0199061,0.0100443 -0.0206867,0.00831879 -0.021318,0.00653324 -0.0217955,0.00470057 -0.0221158,0.00283397 -0.0222765,0.000946935 -0.155294,-1.77636e-15 -2.39893,-2.99803 0.338443,0 2.36286,2.95295 z "/>
<path fill="rgb(241,240,234)" stroke="rgb(241,240,234)" d="M 9.51129,11.2522 l -1.77636e-15,0.422964 -2.13984,-2.67423 0.338443,0 1.8014,2.25127 z "/>
<path fill="rgb(241,240,234)" stroke="rgb(241,240,234)" d="M 1.25177,6.25089 l 0,2.05 0.00266371,0.061009 0.00797086,0.0605447 0.0132173,0.0596196 0.0183632,0.0582408 0.0233694,0.0564187 0.0281977,0.0541672 0.0328114,0.0515035 0.0371753,0.0484478 0.0412564,0.0450234 0.0450234,0.0412564 0.0484478,0.0371753 0.0515035,0.0328114 0.0541672,0.0281977 0.0564187,0.0233694 0.0582408,0.0183632 0.0596196,0.0132173 0.0605447,0.00797086 0.061009,0.00266371 4.40436,0 2.39893,2.99803 -7.98444,-7.10543e-15 -0.0228784,-0.000998892 -0.0227043,-0.00298907 -0.0223574,-0.00495651 -0.0218403,-0.00688622 -0.021157,-0.00876352 -0.0203127,-0.0105741 -0.0193138,-0.0123043 -0.0181679,-0.0139407 -0.0168838,-0.0154711 -0.0154711,-0.0168838 -0.0139407,-0.0181679 -0.0123043,-0.0193138 -0.0105741,-0.0203127 -0.00876352,-0.021157 -0.00688622,-0.0218403 -0.00495651,-0.0223574 -0.00298907,-0.0227043 -0.000998892,-0.0228784 0,-5.48553 8.88178e-16,-0.00265976 0.743653,8.88178e-16 4.44089e-16,0.00265976 z "/>
<path fill="rgb(241,240,234)" stroke="rgb(241,240,234)" d="M 5.30514,6.24468 l -0.000730156,0.0160967 -0.00218447,0.0159645 -0.00362085,0.0157012 -0.00502748,0.0153089 -0.00639282,0.0147908 -0.00770565,0.0141513 -0.0089552,0.0133956 -0.0101312,0.0125298 -0.218936,-0.273612 0.0131968,-0.00658245 0.0136969,-0.00546613 0.0141028,-0.0043122 0.0144117,-0.00312861 0.0146214,-0.00192349 0.0147305,-0.000705142 0.0147382,0.000518061 0.0146446,0.0017377 0.0153524,0.00317113 0.0150134,0.00451114 0.0145577,0.00581608 0.0139888,0.0070758 0.0133112,0.00828052 0.01253,0.00942085 0.0116515,0.010488 0.0106823,0.0114735 0.00963015,0.0123699 0.0085031,0.0131701 0.00730995,0.0138679 0.00605996,0.0144579 0.00476287,0.0149355 0.00342875,0.015297 0.00206797,0.0155395 0.000691114,0.0156613 z "/>
<path fill="rgb(241,240,234)" stroke="rgb(241,240,234)" d="M 4.2425,4.66756 l 0.172299,0.215328 -0.0177452,-0.0037503 -0.0173475,-0.0052937 -0.0168158,-0.00679622 -0.0161542,-0.00824626 -0.0153679,-0.00963261 -0.0144629,-0.0109446 -0.0134462,-0.012172 -0.0123257,-0.0133055 -0.01111,-0.0143362 -0.00980847,-0.0152562 -0.00843124,-0.0160584 -0.00698889,-0.0167366 -0.00549258,-0.0172855 -0.00395385,-0.017701 -0.00238459,-0.0179798 -0.000796915,-0.0181197 3.69714e-05,-0.00390641 0.000110901,-0.00390501 0.000184791,-0.00390221 z "/>
<path fill="rgb(241,240,234)" stroke="rgb(241,240,234)" d="M 4.65496,4.67927 l -0.000701786,0.0170058 -0.00210058,0.0168902 -0.0034851,0.0166597 -0.00484591,0.0163159 -0.217682,-0.272045 0.0180111,-0.00117427 0.0180448,0.000403796 0.0179405,0.00197877 0.0176991,0.00353861 0.0173222,0.00507139 0.0168129,0.00656539 0.016175,0.00800917 0.0154134,0.00939171 0.014534,0.0107024 0.0135434,0.0119313 0.0124492,0.0130689 0.0112598,0.0141066 0.0099843,0.0150364 0.00863244,0.0158512 0.00721456,0.0165447 0.00598987,0.0179827 0.00431493,0.0184564 0.0026036,0.0187744 0.000870314,0.0189341 z "/>
<path fill="rgb(241,240,234)" stroke="rgb(241,240,234)" d="M 3.28435,4.73902 l 0.11483,-0.251283 0.0225445,1.17769e-06 0.0965689,0.120686 -0.0901508,0.310299 -0.143793,-0.179703 z "/>
<path fill="rgb(241,240,234)" stroke="rgb(241,240,234)" d="M 2.83215,5.72857 l 0.329174,-0.720331 0.176667,0.220787 -0.26217,0.902391 0.0845219,0.524704 0.566998,-0.450057 0.0944817,0.0746079 -0.728634,0.750939 -0.0184615,0.0175025 -0.0198564,0.0159024 -0.0211131,0.0141916 -0.0222227,0.012382 -0.0231777,0.0104862 -0.0239712,0.00851732 -0.0245978,0.00648918 -0.0250532,0.00441586 -0.0253341,0.00231179 -0.0279986,9.32625e-05 -0.0278891,-0.00247575 -0.0275443,-0.00502389 -0.0269673,-0.00752965 -0.0261628,-0.00997191 -0.0251376,-0.0123301 -0.0239004,-0.0145842 -0.0224617,-0.0167154 -0.0208335,-0.0187055 -0.392884,-0.440171 -0.0322915,-0.509766 0.124335,6.49507e-06 0.0795477,0.447601 0.131786,0.106938 2.68894e-05,-0.514743 -0.156625,-0.73857 -0.350581,-0.790771 0.116883,-0.106925 0.464973,0.731099 0.186476,0.507306 z "/>
<path fill="rgb(241,240,234)" stroke="rgb(241,240,234)" d="M 3.14912,7.42325 l -0.000941527,0.0215645 -0.00281742,0.0214004 -0.00467186,0.0210734 -0.00649075,0.020586 -0.00826025,0.019942 -0.00996687,0.0191462 -0.0115976,0.0182047 -0.0131402,0.0171246 -0.0145827,0.0159142 -0.0159142,0.0145827 -0.0171246,0.0131402 -0.0182047,0.0115976 -0.0191462,0.00996687 -0.019942,0.00826025 -0.020586,0.00649075 -0.0210734,0.00467186 -0.0214004,0.00281742 -0.0215645,0.000941527 -0.0215645,-0.000941527 -0.0214004,-0.00281742 -0.0210734,-0.00467186 -0.020586,-0.00649075 -0.019942,-0.00826025 -0.0191462,-0.00996687 -0.0182047,-0.0115976 -0.0171246,-0.0131402 -0.0159142,-0.0145827 -0.0145827,-0.0159142 -0.0131402,-0.0171246 -0.0115976,-0.0182047 -0.00996687,-0.0191462 -0.00826025,-0.019942 -0.00649075,-0.020586 -0.00467186,-0.0210734 -0.00281742,-0.0214004 -0.000941527,-0.0215645 0.000893037,-0.0210029 0.00267266,-0.0208513 0.004433,-0.0205492 0.00616133,-0.0200987 0.00784519,-0.0195031 0.00947242,-0.0187668 0.0110313,-0.017895 0.0125105,-0.016894 0.0138994,-0.0157711 0.015188,-0.0145343 0.0163669,-0.0131926 0.0174277,-0.0117556 0.0183627,-0.0102338 0.0191651,-0.00863817 0.0198292,-0.00698015 0.0203501,-0.00527174 0.0207242,-0.00352527 0.0209486,-0.00175335 0.0219748,7.49962e-05 0.0218814,0.00202445 0.0216155,0.00395793 0.0211791,0.00586019 0.0205756,0.00771623 0.0198098,0.00951141 0.0188878,0.0112316 0.0178167,0.0128631 0.0166052,0.0143932 0.0152626,0.0158097 0.0137997,0.0171016 0.0122279,0.0182585 0.0105596,0.0192715 0.00880809,0.0201324 0.00698707,0.0208345 0.00511094,0.0213723 0.00319449,0.0217415 0.000706705,0.00833806 0.000424347,0.00835719 0.000141503,0.00836676 z "/>
<path fill="rgb(241,240,234)" stroke="rgb(241,240,234)" d="M 5.53849,5.86424 l -0.0971452,-0.121406 0.0814104,-0.0390022 0.124342,-0.141732 0.0646528,0.0721071 -0.139261,0.213855 -0.0339997,0.0161778 z "/>
<path fill="rgb(241,240,234)" stroke="rgb(241,240,234)" d="M 5.04779,5.9475 l -0.365521,-0.497358 0.0596902,-0.0348042 0.313312,0.268579 0.000129698,-0.000451056 0.237977,0.297408 -0.0537002,0.0255517 -0.0120276,0.00508714 -0.012428,0.00401087 -0.0127323,0.00290358 -0.0129381,0.00177385 -0.0130439,0.000630398 -0.0130489,-0.000517927 -0.0128036,-0.00163644 -0.0126131,-0.00274201 -0.0123274,-0.00382687 -0.0119485,-0.00488282 -0.0114794,-0.00590188 -0.0109236,-0.00687637 -0.0102852,-0.0077989 -0.00956921,-0.00866253 -0.00878088,-0.00946072 -0.00792623,-0.0101874 -0.0070117,-0.0108372 z "/>
<path fill="rgb(241,240,234)" stroke="rgb(241,240,234)" d="M 5.92565,4.89817 l -0.340694,0.154166 -0.154189,0.474949 -0.0206701,0.176502 -0.329965,-0.412369 -0.134225,-0.803601 0.124335,6.49507e-06 0.236211,0.644068 0.14175,-0.228769 0.46005,-0.129289 0.0173971,0.124336 z "/>
<path fill="rgb(142,146,145)" stroke="rgb(142,146,145)" d="M 4.07789,7.60609 l -0.00404196,0.000223682 -0.00404579,-0.000138014 -0.00401732,-0.000498608 -0.00395677,-0.000855221 -0.00386463,-0.00120501 -0.00374164,-0.00154517 -0.00358878,-0.001873 -0.00340726,-0.00218587 -0.00319854,-0.00248129 -0.00296428,-0.0027569 -0.00270635,-0.0030105 -0.00242681,-0.00324006 -0.0021279,-0.00344376 -0.001812,-0.00361996 -0.00148164,-0.00376725 -0.00113944,-0.00388447 -0.000788148,-0.00397068 -0.000430561,-0.00402518 4.67679e-06,-0.0895276 0.000236019,-0.00431915 0.000606117,-0.00428292 0.000971736,-0.00421504 0.00133017,-0.004116 0.00167878,-0.00398654 0.00201498,-0.00382762 0.00233628,-0.00364041 0.00264032,-0.00342629 0.00292485,-0.00318686 0.00318776,-0.00292387 0.00342711,-0.00263927 0.00364113,-0.00233516 0.00382824,-0.0020138 0.00398706,-0.00167755 0.00411641,-0.0013289 0.00421534,-0.000970438 0.00428311,-0.000604798 0.00431923,-0.000234689 0.206395,1.07818e-05 0.00370592,0.000160811 0.00367811,0.000480841 0.00362272,0.000797265 0.00354016,0.00110771 0.00343104,0.00140985 0.0032962,0.00170141 0.00313664,0.00198021 0.00295355,0.00224417 0.00274831,0.00249129 0.00252246,0.00271973 0.00227769,0.00292777 0.00201585,0.00311386 0.00173888,0.00327659 0.00144887,0.00341475 0.001148,0.0035273 0.000838514,0.0036134 0.000522743,0.00367239 0.000203051,0.00370385 -0.000118164,0.00370753 -0.000438492,0.0036834 -0.0149192,0.0895268 -0.000952484,0.0044647 -0.00135042,0.00436087 -0.00173739,0.00422164 -0.00211026,0.00404816 -0.00246601,0.00384182 -0.00280175,0.0036043 -0.00311474,0.00333754 -0.00340246,0.00304368 -0.00366257,0.00272513 -0.00389296,0.00238446 -0.00409175,0.00202444 -0.00425733,0.00164799 -0.00438837,0.00125817 -0.00448379,0.000858139 -0.00454282,0.000451141 -0.186502,-9.7426e-06 z "/>
<path fill="rgb(142,146,145)" stroke="rgb(142,146,145)" d="M 5.2401,7.60615 l -0.145264,-0.181542 -0.024743,-1.29254e-06 -0.00370594,0.000160424 -0.00367816,0.000480457 -0.0036228,0.000796886 -0.00354027,0.00110734 -0.00343119,0.00140949 -0.00329638,0.00170107 -0.00313684,0.00197989 -0.00295378,0.00224386 -0.00274857,0.002491 -0.00252274,0.00271947 -0.002278,0.00292753 -0.00201617,0.00311365 -0.00173922,0.00327641 -0.00144923,0.0034146 -0.00114837,0.00352718 -0.000838892,0.00361331 -0.000523127,0.00367234 -0.000203438,0.00370383 0.000117776,0.00370754 0.000438107,0.00368345 0.0149098,0.0895283 0.000952017,0.0044648 0.00134996,0.00436101 0.00173695,0.00422182 0.00210984,0.00404838 0.00246561,0.00384208 0.00280137,0.00360459 0.0031144,0.00333786 0.00340215,0.00304404 0.00366229,0.00272551 0.00389271,0.00238487 0.00409154,0.00202487 0.00425716,0.00164844 0.00438824,0.00125863 0.0044837,0.000858607 0.00454278,0.000451616 0.150124,7.84225e-06 z "/>
<path fill="rgb(142,146,145)" stroke="rgb(142,146,145)" d="M 5.20933,7.71805 l -0.355266,0.0265022 -0.356253,-1.86101e-05 -0.355263,-0.0265393 0.096962,0.243696 0.173393,0.0286221 0.175151,0.0143637 0.175739,9.18037e-06 0.175153,-0.0143454 0.173396,-0.028604 0.0969874,-0.243686 z "/>
<path fill="rgb(241,240,234)" stroke="rgb(241,240,234)" d="M 4.98994,7.98193 l -0.0264336,0.00436057 0,0.0959791 0.0512859,-0.00479698 0.16718,-0.0262034 0.0287657,-0.0693393 -0.220798,0 z "/>
<path fill="rgb(241,240,234)" stroke="rgb(241,240,234)" d="M 4.07789,7.60609 l -0.00404196,0.000223682 -0.00404579,-0.000138014 -0.00401732,-0.000498608 -0.00395677,-0.000855221 -0.00386463,-0.00120501 -0.00374164,-0.00154517 -0.00358878,-0.001873 -0.00340726,-0.00218587 -0.00319854,-0.00248129 -0.00296428,-0.0027569 -0.00270635,-0.0030105 -0.00242681,-0.00324006 -0.0021279,-0.00344376 -0.001812,-0.00361996 -0.00148164,-0.00376725 -0.00113944,-0.00388447 -0.000788148,-0.00397068 -0.000430561,-0.00402518 4.67679e-06,-0.0895276 0.000236019,-0.00431915 0.000606117,-0.00428292 0.000971736,-0.00421504 0.00133017,-0.004116 0.00167878,-0.00398654 0.00201498,-0.00382762 0.00233628,-0.00364041 0.00264032,-0.00342629 0.00292485,-0.00318686 0.00318776,-0.00292387 0.00342711,-0.00263927 0.00364113,-0.00233516 0.00382824,-0.0020138 0.00398706,-0.00167755 0.00411641,-0.0013289 0.00421534,-0.000970438 0.00428311,-0.000604798 0.00431923,-0.000234689 0.206395,1.07818e-05 0.00370592,0.000160811 0.00367811,0.000480841 0.00362272,0.000797265 0.00354016,0.00110771 0.00343104,0.00140985 0.0032962,0.00170141 0.00313664,0.00198021 0.00295355,0.00224417 0.00274831,0.00249129 0.00252246,0.00271973 0.00227769,0.00292777 0.00201585,0.00311386 0.00173888,0.00327659 0.00144887,0.00341475 0.001148,0.0035273 0.000838514,0.0036134 0.000522743,0.00367239 0.000203051,0.00370385 -0.000118164,0.00370753 -0.000438492,0.0036834 -0.0149192,0.0895268 -0.000952484,0.0044647 -0.00135042,0.00436087 -0.00173739,0.00422164 -0.00211026,0.00404816 -0.00246601,0.00384182 -0.00280175,0.0036043 -0.00311474,0.00333754 -0.00340246,0.00304368 -0.00366257,0.00272513 -0.00389296,0.00238446 -0.00409175,0.00202444 -0.00425733,0.00164799 -0.00438837,0.00125817 -0.00448379,0.000858139 -0.00454282,0.000451141 -0.186502,-9.7426e-06 z M 4.36211,7.98193 l -0.122599,-0.0202374 -0.096962,-0.243696 0.355263,0.0265393 0.356253,1.86101e-05 0.109443,-0.00816426 0,-0.475907 -0.0278587,-0.034816 -0.259684,-1.35655e-05 -0.436416,-2.27978e-05 1.15609e-05,-0.22131 -8.219e-05,-0.00192419 -0.000246171,-0.00191015 -0.000408354,-0.00188216 -0.000567555,-0.00184042 -0.000722612,-0.00178524 -0.000872392,-0.00171703 -0.0010158,-0.00163628 -0.00115179,-0.00154358 -0.00127937,-0.00143961 -0.00139761,-0.00132512 -0.00150564,-0.00120096 -0.00160268,-0.00106803 -0.00168801,-0.000927299 -0.00176102,-0.000779796 -0.00182116,-0.000626599 -0.00186801,-0.000468826 -0.00190122,-0.00030763 -0.144228,-7.53424e-06 -0.00177772,7.89467e-05 -0.0017637,0.000236403 -0.00173576,0.000391993 -0.00169412,0.00054449 -0.00163911,0.00069269 -0.00157117,0.000835424 -0.00149083,0.000971565 -0.00139872,0.00110004 -0.00129558,0.00121983 -0.00118221,0.00133 -0.00105951,0.00142967 -0.000928452,0.00151805 -0.000790065,0.00159446 -0.000645443,0.00165829 -0.000495728,0.00170902 -0.000342101,0.00174628 -0.000185774,0.00176975 -2.79804e-05,0.00177925 0.000130034,0.00177471 -1.15609e-05,0.22131 -0.0372964,-1.94831e-06 -0.0547148,0.0895247 -1.66272e-05,0.318294 0.0671313,0.0820637 0.11248,0.266429 0.21899,0 z "/>
<path fill="rgb(241,240,234)" stroke="rgb(241,240,234)" d="M 4.14312,7.98193 l 0.0292511,0.0692866 0.167177,0.0262208 0.168484,0.0157767 0.169139,0.0052716 0.169139,-0.00525393 0.117199,-0.0109621 0,-0.0959791 -0.0245605,0.00405159 -0.175153,0.0143454 -0.175739,-9.18037e-06 -0.175151,-0.0143637 -0.0507945,-0.00838469 -0.21899,0 z "/>
<path fill="rgb(241,240,234)" stroke="rgb(241,240,234)" d="M 5.29639,7.22568 l 1.15609e-05,-0.22131 -8.219e-05,-0.00192419 -0.000246171,-0.00191015 -0.000408354,-0.00188216 -0.000567555,-0.00184042 -0.000722612,-0.00178524 -0.000872392,-0.00171703 -0.0010158,-0.00163628 -0.00115179,-0.00154358 -0.00127937,-0.00143961 -0.00139761,-0.00132512 -0.00150564,-0.00120096 -0.00160268,-0.00106803 -0.00168801,-0.000927299 -0.00176102,-0.000779796 -0.00182116,-0.000626599 -0.00186801,-0.000468826 -0.00190122,-0.00030763 -0.141738,-7.40421e-06 -0.00195071,8.50679e-05 -0.00193588,0.00025476 -0.00190631,0.000422514 -0.00186223,0.000587051 -0.00180398,0.000747121 -0.001732,0.000901505 -0.00164683,0.00104903 -0.00154914,0.00118857 -0.00143965,0.00131906 -0.00131921,0.00143952 -0.00118873,0.00154901 -0.0010492,0.00164672 -0.000901686,0.0017319 -0.00074731,0.0018039 -0.000587246,0.00186217 -0.000422713,0.00190626 -0.000254962,0.00193585 -8.52717e-05,0.00195071 -1.00396e-06,0.0192187 0.278501,0.348052 2.94727e-06,-0.0564194 -0.0572047,-0.0895305 -0.0372964,-1.94831e-06 z "/>
<path fill="rgb(241,240,234)" stroke="rgb(241,240,234)" d="M 4.98994,7.98193 l 0.220798,0 0.110501,-0.266361 0.00330109,-0.00388971 -0.0844376,-0.105525 -0.150124,-7.84225e-06 -0.00454278,-0.000451616 -0.0044837,-0.000858607 -0.00438824,-0.00125863 -0.00425716,-0.00164844 -0.00409154,-0.00202487 -0.00389271,-0.00238487 -0.00366229,-0.00272551 -0.00340215,-0.00304404 -0.0031144,-0.00333786 -0.00280137,-0.00360459 -0.00246561,-0.00384208 -0.00210984,-0.00404838 -0.00173695,-0.00422182 -0.00134996,-0.00436101 -0.000952017,-0.0044648 -0.0149098,-0.0895283 -0.000438107,-0.00368345 -0.000117776,-0.00370754 0.000203438,-0.00370383 0.000523127,-0.00367234 0.000838892,-0.00361331 0.00114837,-0.00352718 0.00144923,-0.0034146 0.00173922,-0.00327641 0.00201617,-0.00311365 0.002278,-0.00292753 0.00252274,-0.00271947 0.00274857,-0.002491 0.00295378,-0.00224386 0.00313684,-0.00197989 0.00329638,-0.00170107 0.00343119,-0.00140949 0.00354027,-0.00110734 0.0036228,-0.000796886 0.00367816,-0.000480457 0.00370594,-0.000160424 0.024743,1.29254e-06 -0.131332,-0.16413 0,0.475907 0.245823,-0.0183379 -0.0969874,0.243686 -0.122402,0.0201918 z "/>
<path fill="rgb(241,240,234)" stroke="rgb(241,240,234)" d="M 6.31596,6.78808 l -0.0229096,0.0191619 -0.235702,-0.294565 3.71856e-05,-0.711842 1.20605,6.30024e-05 -0.238728,0.276017 -0.708713,-3.70221e-05 -3.71521e-05,0.711202 z "/>
<path fill="rgb(241,240,234)" stroke="rgb(241,240,234)" d="M 6.09031,6.97683 l -0.0329793,0.0275843 3.59376e-06,-0.0687952 0.0329757,0.0412109 z "/>
<path fill="rgb(241,240,234)" stroke="rgb(241,240,234)" d="M 6.51433,7.50674 l -0.190934,-9.97412e-06 1.24637e-05,-0.238592 0.190922,0.238602 z "/>
<path fill="rgb(241,240,234)" stroke="rgb(241,240,234)" d="M 6.31596,6.78808 l 0.708713,3.70221e-05 3.71521e-05,-0.711202 0.238728,-0.276017 -5.15715e-05,0.987231 0.537125,2.80586e-05 5.15715e-05,-0.987231 0.19397,1.01327e-05 -6.28729e-05,1.20357 -0.944995,0.736013 -0.0237621,-0.0176476 -0.732661,-0.915633 0.0229096,-0.0191619 z "/>
<path fill="rgb(241,240,234)" stroke="rgb(241,240,234)" d="M 6.09031,6.97683 l 0.101556,0.126919 -0.134536,-0.0993344 0.0329793,-0.0275843 z "/>
<path fill="rgb(142,146,145)" stroke="rgb(142,146,145)" d="M 6.31596,6.78808 l 3.71521e-05,-0.711202 0.708713,3.70221e-05 -3.71521e-05,0.711202 -0.708713,-3.70221e-05 z "/>
<path fill="rgb(142,146,145)" stroke="rgb(142,146,145)" d="M 3.96352,7.31514 l -0.815677,0.0830482 -0.00319449,-0.0217415 -0.00511094,-0.0213723 -0.00698707,-0.0208345 -0.00880809,-0.0201324 -0.0105596,-0.0192715 -0.0122279,-0.0182585 -0.0137997,-0.0171016 -0.0152626,-0.0158097 -0.0166052,-0.0143932 -0.0178167,-0.0128631 -0.0188878,-0.0112316 -0.0198098,-0.00951141 -0.0205756,-0.00771623 -0.0211791,-0.00586019 -0.0216155,-0.00395793 -0.0218814,-0.00202445 -0.0219748,-7.49962e-05 -0.00214297,-0.0522269 0.0253341,-0.00231179 0.0250532,-0.00441586 0.0245978,-0.00648918 0.0239712,-0.00851732 0.0231777,-0.0104862 0.0222227,-0.012382 0.0211131,-0.0141916 0.0198564,-0.0159024 0.0184615,-0.0175025 0.728634,-0.750939 -0.0944817,-0.0746079 -0.566998,0.450057 -0.0845219,-0.524704 0.26217,-0.902391 1.43277,1.79059 -0.0948067,0.206039 -0.436416,-2.27978e-05 1.15609e-05,-0.22131 -8.219e-05,-0.00192419 -0.000246171,-0.00191015 -0.000408354,-0.00188216 -0.000567555,-0.00184042 -0.000722612,-0.00178524 -0.000872392,-0.00171703 -0.0010158,-0.00163628 -0.00115179,-0.00154358 -0.00127937,-0.00143961 -0.00139761,-0.00132512 -0.00150564,-0.00120096 -0.00160268,-0.00106803 -0.00168801,-0.000927299 -0.00176102,-0.000779796 -0.00182116,-0.000626599 -0.00186801,-0.000468826 -0.00190122,-0.00030763 -0.144228,-7.53424e-06 -0.00177772,7.89467e-05 -0.0017637,0.000236403 -0.00173576,0.000391993 -0.00169412,0.00054449 -0.00163911,0.00069269 -0.00157117,0.000835424 -0.00149083,0.000971565 -0.00139872,0.00110004 -0.00129558,0.00121983 -0.00118221,0.00133 -0.00105951,0.00142967 -0.000928452,0.00151805 -0.000790065,0.00159446 -0.000645443,0.00165829 -0.000495728,0.00170902 -0.000342101,0.00174628 -0.000185774,0.00176975 -2.79804e-05,0.00177925 0.000130034,0.00177471 -1.15609e-05,0.22131 -0.0372964,-1.94831e-06 -0.0547148,0.0895247 z "/>
<path fill="rgb(142,146,145)" stroke="rgb(142,146,145)" d="M 5.04779,5.9475 l 0.0070117,0.0108372 0.00792623,0.0101874 0.00878088,0.00946072 0.00956921,0.00866253 0.0102852,0.0077989 0.0109236,0.00687637 0.0114794,0.00590188 0.0119485,0.00488282 0.0123274,0.00382687 0.0126131,0.00274201 0.0128036,0.00163644 -0.00785918,0.0488271 -0.0146446,-0.0017377 -0.0147382,-0.000518061 -0.0147305,0.000705142 -0.0146214,0.00192349 -0.0144117,0.00312861 -0.0141028,0.0043122 -0.0136969,0.00546613 -0.0131968,0.00658245 -1.23856,-1.54787 0.40835,0.0873656 0.0312545,0.0390598 -0.000184791,0.00390221 -0.000110901,0.00390501 -3.69714e-05,0.00390641 0.000796915,0.0181197 0.00238459,0.0179798 0.00395385,0.017701 0.00549258,0.0172855 0.00698889,0.0167366 0.00843124,0.0160584 0.00980847,0.0152562 0.01111,0.0143362 0.0123257,0.0133055 0.0134462,0.012172 0.0144629,0.0109446 0.0153679,0.00963261 0.0161542,0.00824626 0.0168158,0.00679622 0.0173475,0.0052937 0.0177452,0.0037503 0.6406,0.800581 -0.000129698,0.000451056 -0.313312,-0.268579 -0.0596902,0.0348042 0.365521,0.497358 z "/>
<path fill="rgb(142,146,145)" stroke="rgb(142,146,145)" d="M 4.65496,4.67927 l -0.000870314,-0.0189341 -0.0026036,-0.0187744 -0.00431493,-0.0184564 -0.00598987,-0.0179827 0.304733,-0.117307 0.134225,0.803601 -0.436312,-0.545275 0.00484591,-0.0163159 0.0034851,-0.0166597 0.00210058,-0.0168902 0.000701786,-0.0170058 z "/>
<path fill="rgb(142,146,145)" stroke="rgb(142,146,145)" d="M 5.0179,6.48253 l -0.123565,0.26854 -1.46619,-1.83235 0.0901508,-0.310299 1.4996,1.87411 z "/>
<path fill="rgb(142,146,145)" stroke="rgb(142,146,145)" d="M 5.92565,4.89817 l -0.0173971,-0.124336 -0.46005,0.129289 -0.14175,0.228769 0.102738,-1.231 2.64257,-4.44089e-16 0.0261467,0.00114159 0.0259477,0.00341608 0.0255513,0.00566458 0.0249603,0.00786996 0.0241794,0.0100155 0.0232145,0.0120847 0.0220729,0.014062 0.0207634,0.0159323 0.0192958,0.0176813 -1.00046,1.81214 -1.20605,-6.30024e-05 -3.71856e-05,0.711842 -0.518859,-0.648436 0.0339997,-0.0161778 0.139261,-0.213855 -0.0646528,-0.0721071 -0.124342,0.141732 -0.0814104,0.0390022 -0.0312469,-0.0390504 0.0206701,-0.176502 0.154189,-0.474949 0.340694,-0.154166 z "/>
<path fill="rgb(142,146,145)" stroke="rgb(142,146,145)" d="M 5.30514,6.24468 l -0.000691114,-0.0156613 -0.00206797,-0.0155395 -0.00342875,-0.015297 -0.00476287,-0.0149355 -0.00605996,-0.0144579 -0.00730995,-0.0138679 -0.0085031,-0.0131701 -0.00963015,-0.0123699 -0.0106823,-0.0114735 -0.0116515,-0.010488 -0.01253,-0.00942085 -0.0133112,-0.00828052 -0.0139888,-0.0070758 -0.0145577,-0.00581608 -0.0150134,-0.00451114 -0.0153524,-0.00317113 0.00785918,-0.0488271 0.0130489,0.000517927 0.0130439,-0.000630398 0.0129381,-0.00177385 0.0127323,-0.00290358 0.012428,-0.00401087 0.0120276,-0.00508714 0.0537002,-0.0255517 0.763954,0.95474 -3.59376e-06,0.0687952 -0.206377,0.0962473 -0.590558,-0.738041 0.0101312,-0.0125298 0.0089552,-0.0133956 0.00770565,-0.0141513 0.00639282,-0.0147908 0.00502748,-0.0153089 0.00362085,-0.0157012 0.00218447,-0.0159645 0.000730156,-0.0160967 z "/>
<path fill="rgb(142,146,145)" stroke="rgb(142,146,145)" d="M 5.29639,7.22568 l 1.15609e-05,-0.22131 -8.219e-05,-0.00192419 -0.000246171,-0.00191015 -0.000408354,-0.00188216 -0.000567555,-0.00184042 -0.000722612,-0.00178524 -0.000872392,-0.00171703 -0.0010158,-0.00163628 -0.00115179,-0.00154358 -0.00127937,-0.00143961 -0.00139761,-0.00132512 -0.00150564,-0.00120096 -0.00160268,-0.00106803 -0.00168801,-0.000927299 -0.00176102,-0.000779796 -0.00182116,-0.000626599 -0.00186801,-0.000468826 -0.00190122,-0.00030763 -0.141738,-7.40421e-06 -0.00195071,8.50679e-05 -0.00193588,0.00025476 -0.00190631,0.000422514 -0.00186223,0.000587051 -0.00180398,0.000747121 -0.001732,0.000901505 -0.00164683,0.00104903 -0.00154914,0.00118857 -0.00143965,0.00131906 -0.00131921,0.00143952 -0.00118873,0.00154901 -0.0010492,0.00164672 -0.000901686,0.0017319 -0.00074731,0.0018039 -0.000587246,0.00186217 -0.000422713,0.00190626 -0.000254962,0.00193585 -8.52717e-05,0.00195071 -1.00396e-06,0.0192187 -0.218055,-0.272511 0.123565,-0.26854 0.586582,0.733073 -0.213589,0.0996107 -0.0572047,-0.0895305 -0.0372964,-1.94831e-06 z "/>
<path fill="rgb(142,146,145)" stroke="rgb(142,146,145)" d="M 4.93565,7.22566 l -0.259684,-1.35655e-05 0.0948067,-0.206039 0.164877,0.206053 z "/>
<path fill="rgb(142,146,145)" stroke="rgb(142,146,145)" d="M 6.03606,8.60089 l -1.35889,0 0,-0.502408 0.169139,-0.00525393 0.168485,-0.0157591 0.16718,-0.0262034 0.139267,-0.335701 0.00330109,-0.00388971 0.711523,0.889215 z "/>
<path fill="rgb(142,146,145)" stroke="rgb(142,146,145)" d="M 7.38983,8.60089 l -0.338443,0 -1.20044,-1.50023 0.206377,-0.0962473 0.134536,0.0993344 0.131544,0.164395 -1.24637e-05,0.238592 0.190934,9.97412e-06 0.875503,1.09415 z "/>
<path fill="rgb(142,146,145)" stroke="rgb(142,146,145)" d="M 6.3745,8.60089 l -0.983614,-1.22926 2.94727e-06,-0.0564194 0.213589,-0.0996107 1.10846,1.38529 -0.338443,0 z "/>
<path fill="rgb(142,146,145)" stroke="rgb(142,146,145)" d="M 7.04948,7.74053 l 0.944995,-0.736013 6.28729e-05,-1.20357 -0.19397,-1.01327e-05 -5.15715e-05,0.987231 -0.537125,-2.80586e-05 5.15715e-05,-0.987231 1.00046,-1.81214 0.0176813,0.0192958 0.0159323,0.0207634 0.014062,0.0220729 0.0120847,0.0232145 0.0100155,0.0241794 0.00786996,0.0249603 0.00566458,0.0255513 0.00341608,0.0259477 0.00114159,0.0261467 0,2.05 0,2.05 -0.00114159,0.0261467 -0.00341608,0.0259477 -0.00566458,0.0255513 -0.00786996,0.0249603 -0.0100155,0.0241794 -0.0120847,0.0232145 -0.014062,0.0220729 -0.0159323,0.0207634 -0.0176813,0.0192958 -0.0192958,0.0176813 -0.0207634,0.0159323 -0.0220729,0.014062 -0.0232145,0.0120847 -0.0241794,0.0100155 -0.0249603,0.00786996 -0.0255513,0.00566458 -0.0259477,0.00341608 -0.0261467,0.00114159 -0.323496,0 -0.702558,-0.878012 0.0237621,0.0176476 z "/>
<path fill="rgb(142,146,145)" stroke="rgb(142,146,145)" d="M 2.61371,3.90089 l 0.218447,0 0,0.273001 -0.218447,-0.273001 z "/>
<path fill="rgb(142,146,145)" stroke="rgb(142,146,145)" d="M 3.14912,7.42325 l -0.000141503,-0.00836676 -0.000424347,-0.00835719 -0.000706705,-0.00833806 0.815677,-0.0830482 -1.66272e-05,0.318294 0.0671313,0.0820637 0.141731,0.335715 0.167177,0.0262208 0.168484,0.0157767 0.169139,0.0052716 0,0.502408 -2.7254,0 -0.0261467,-0.00114159 -0.0259477,-0.00341608 -0.0255513,-0.00566458 -0.0249603,-0.00786996 -0.0241794,-0.0100155 -0.0232145,-0.0120847 -0.0220729,-0.014062 -0.0207634,-0.0159323 -0.0192958,-0.0176813 -0.0176813,-0.0192958 -0.0159323,-0.0207634 -0.014062,-0.0220729 -0.0120847,-0.0232145 -0.0100155,-0.0241794 -0.00786996,-0.0249603 -0.00566458,-0.0255513 -0.00341608,-0.0259477 -0.00114159,-0.0261467 0,-2.05 0,-2.05 0.00114159,-0.0261467 0.00341608,-0.0259477 0.00566458,-0.0255513 0.00786996,-0.0249603 0.0100155,-0.0241794 0.0120847,-0.0232145 0.014062,-0.0220729 0.0159323,-0.0207634 0.0176813,-0.0192958 0.0192958,-0.0176813 0.0207634,-0.0159323 0.0220729,-0.014062 0.0232145,-0.0120847 0.0241794,-0.0100155 0.0249603,-0.00786996 0.0255513,-0.00566458 0.0259477,-0.00341608 0.0261467,-0.00114159 0.323496,0 0.55689,0.695965 0,1.13171 -0.186476,-0.507306 -0.464973,-0.731099 -0.116883,0.106925 0.350581,0.790771 0.156625,0.73857 -2.68894e-05,0.514743 -0.131786,-0.106938 -0.0795477,-0.447601 -0.124335,-6.49507e-06 0.0322915,0.509766 0.392884,0.440171 0.0208335,0.0187055 0.0224617,0.0167154 0.0239004,0.0145842 0.0251376,0.0123301 0.0261628,0.00997191 0.0269673,0.00752965 0.0275443,0.00502389 0.0278891,0.00247575 0.0279986,-9.32625e-05 0.00214297,0.0522269 -0.0209486,0.00175335 -0.0207242,0.00352527 -0.0203501,0.00527174 -0.0198292,0.00698015 -0.0191651,0.00863817 -0.0183627,0.0102338 -0.0174277,0.0117556 -0.0163669,0.0131926 -0.015188,0.0145343 -0.0138994,0.0157711 -0.0125105,0.016894 -0.0110313,0.017895 -0.00947242,0.0187668 -0.00784519,0.0195031 -0.00616133,0.0200987 -0.004433,0.0205492 -0.00267266,0.0208513 -0.000893037,0.0210029 0.000941527,0.0215645 0.00281742,0.0214004 0.00467186,0.0210734 0.00649075,0.020586 0.00826025,0.019942 0.00996687,0.0191462 0.0115976,0.0182047 0.0131402,0.0171246 0.0145827,0.0159142 0.0159142,0.0145827 0.0171246,0.0131402 0.0182047,0.0115976 0.0191462,0.00996687 0.019942,0.00826025 0.020586,0.00649075 0.0210734,0.00467186 0.0214004,0.00281742 0.0215645,0.000941527 0.0215645,-0.000941527 0.0214004,-0.00281742 0.0210734,-0.00467186 0.020586,-0.00649075 0.019942,-0.00826025 0.0191462,-0.00996687 0.0182047,-0.0115976 0.0171246,-0.0131402 0.0159142,-0.0145827 0.0145827,-0.0159142 0.0131402,-0.0171246 0.0115976,-0.0182047 0.00996687,-0.0191462 0.00826025,-0.019942 0.00649075,-0.020586 0.00467186,-0.0210734 0.00281742,-0.0214004 0.000941527,-0.0215645 z "/>
<path fill="rgb(142,146,145)" stroke="rgb(142,146,145)" d="M 3.62904,3.90089 l 0.58221,0.727609 -0.40835,-0.0873656 -0.512303,-0.640243 0.338443,0 z "/>
<path fill="rgb(142,146,145)" stroke="rgb(142,146,145)" d="M 5.30646,5.13189 l -0.236211,-0.644068 -0.124335,-6.49507e-06 -0.304733,0.117307 -0.00721456,-0.0165447 -0.00863244,-0.0158512 -0.0099843,-0.0150364 -0.0112598,-0.0141066 -0.0124492,-0.0130689 -0.0135434,-0.0119313 -0.014534,-0.0107024 -0.0154134,-0.00939171 -0.016175,-0.00800917 -0.0168129,-0.00656539 -0.0173222,-0.00507139 -0.0176991,-0.00353861 -0.0179405,-0.00197877 -0.0180448,-0.000403796 -0.0180111,0.00117427 -0.458664,-0.573208 1.44172,0 -0.102738,1.231 z "/>
<path fill="rgb(142,146,145)" stroke="rgb(142,146,145)" d="M 2.83215,4.17389 l 0,-0.273001 0.119996,0 0.469578,0.586848 -0.0225445,-1.17769e-06 -0.11483,0.251283 -0.452199,-0.565129 z "/>
<path fill="rgb(142,146,145)" stroke="rgb(142,146,145)" d="M 2.83215,5.72857 l 0,-1.13171 0.329174,0.41138 -0.329174,0.720331 z "/>
<path fill="rgb(142,146,145)" stroke="rgb(142,146,145)" d="M 1.25177,6.25089 l 0.2,-8.88178e-16 0,2.05 0.00190265,0.0435779 0.00569347,0.0432462 0.00944096,0.0425854 0.0131166,0.0416005 0.0166924,0.0402991 0.0201412,0.0386909 0.0234367,0.0367882 0.0265538,0.0346056 0.0294688,0.0321596 0.0321596,0.0294688 0.0346056,0.0265538 0.0367882,0.0234367 0.0386909,0.0201412 0.0402991,0.0166924 0.0416005,0.0131166 0.0425854,0.00944096 0.0432462,0.00569347 0.0435779,0.00190265 4.24432,0 0.160034,0.2 -4.40436,0 -0.061009,-0.00266371 -0.0605447,-0.00797086 -0.0596196,-0.0132173 -0.0582408,-0.0183632 -0.0564187,-0.0233694 -0.0541672,-0.0281977 -0.0515035,-0.0328114 -0.0484478,-0.0371753 -0.0450234,-0.0412564 -0.0412564,-0.0450234 -0.0371753,-0.0484478 -0.0328114,-0.0515035 -0.0281977,-0.0541672 -0.0233694,-0.0564187 -0.0183632,-0.0582408 -0.0132173,-0.0596196 -0.00797086,-0.0605447 -0.00266371,-0.061009 0,-2.05 z "/>
<path fill="rgb(142,146,145)" stroke="rgb(142,146,145)" d="M 7.7099,9.00089 l -0.338443,0 -0.160034,-0.2 0.338443,0 0.160034,0.2 z "/>
<path fill="rgb(142,146,145)" stroke="rgb(142,146,145)" d="M 6.69457,9.00089 l -0.160034,-0.2 0.338443,0 0.160034,0.2 -0.338443,0 z "/>
<path fill="rgb(142,146,145)" stroke="rgb(142,146,145)" d="M 8.04834,9.00089 l -0.160034,-0.2 0.163462,0 0.0435779,-0.00190265 0.0432462,-0.00569347 0.0425854,-0.00944096 0.0416005,-0.0131166 0.0402991,-0.0166924 0.0386909,-0.0201412 0.0367882,-0.0234367 0.0346056,-0.0265538 0.0321596,-0.0294688 0.0294688,-0.0321596 0.0265538,-0.0346056 0.0234367,-0.0367882 0.0201412,-0.0386909 0.0166924,-0.0402991 0.0131166,-0.0416005 0.00944096,-0.0425854 0.00569347,-0.0432462 0.00190265,-0.0435779 -1.77636e-15,-2.05 0.2,0 -1.77636e-15,2.05 -0.00266371,0.061009 -0.00797086,0.0605447 -0.0132173,0.0596196 -0.0183632,0.0582408 -0.0233694,0.0564187 -0.0281977,0.0541672 -0.0328114,0.0515035 -0.0371753,0.0484478 -0.0412564,0.0450234 -0.0450234,0.0412564 -0.0484478,0.0371753 -0.0515035,0.0328114 -0.0541672,0.0281977 -0.0564187,0.0233694 -0.0582408,0.0183632 -0.0596196,0.0132173 -0.0605447,0.00797086 -0.061009,0.00266371 -0.00342837,0 z "/>
<path fill="rgb(142,146,145)" stroke="rgb(142,146,145)" d="M 2.63208,3.50089 l 0.160034,0.2 -0.338443,0 -0.160034,-0.2 0.338443,0 z "/>
<path fill="rgb(142,146,145)" stroke="rgb(142,146,145)" d="M 3.30897,3.50089 l 0.160034,0.2 -0.338443,0 -0.160034,-0.2 0.338443,0 z "/>
<path fill="rgb(142,146,145)" stroke="rgb(142,146,145)" d="M 1.25177,6.25089 l -4.44089e-16,-0.00265976 4.44089e-16,-2.04734 0.00266371,-0.061009 0.00797086,-0.0605447 0.0132173,-0.0596196 0.0183632,-0.0582408 0.0233694,-0.0564187 0.0281977,-0.0541672 0.0328114,-0.0515035 0.0371753,-0.0484478 0.0412564,-0.0450234 0.0450234,-0.0412564 0.0484478,-0.0371753 0.0515035,-0.0328114 0.0541672,-0.0281977 0.0564187,-0.0233694 0.0582408,-0.0183632 0.0596196,-0.0132173 0.0605447,-0.00797086 0.061009,-0.00266371 0.00342837,0 0.160034,0.2 -0.163462,0 -0.0435779,0.00190265 -0.0432462,0.00569347 -0.0425854,0.00944096 -0.0416005,0.0131166 -0.0402991,0.0166924 -0.0386909,0.0201412 -0.0367882,0.0234367 -0.0346056,0.0265538 -0.0321596,0.0294688 -0.0294688,0.0321596 -0.0265538,0.0346056 -0.0234367,0.0367882 -0.0201412,0.0386909 -0.0166924,0.0402991 -0.0131166,0.0416005 -0.00944096,0.0425854 -0.00569347,0.0432462 -0.00190265,0.0435779 0,2.05 -0.2,8.88178e-16 z "/>
<path fill="rgb(142,146,145)" stroke="rgb(142,146,145)" d="M 8.75177,6.24823 l 1.77636e-15,0.00265976 -0.2,0 0,-2.05 -0.00190265,-0.0435779 -0.00569347,-0.0432462 -0.00944096,-0.0425854 -0.0131166,-0.0416005 -0.0166924,-0.0402991 -0.0201412,-0.0386909 -0.0234367,-0.0367882 -0.0265538,-0.0346056 -0.0294688,-0.0321596 -0.0321596,-0.0294688 -0.0346056,-0.0265538 -0.0367882,-0.0234367 -0.0386909,-0.0201412 -0.0402991,-0.0166924 -0.0416005,-0.0131166 -0.0425854,-0.00944096 -0.0432462,-0.00569347 -0.0435779,-0.00190265 -4.24432,0 -0.160034,-0.2 4.40436,0 0.061009,0.00266371 0.0605447,0.00797086 0.0596196,0.0132173 0.0582408,0.0183632 0.0564187,0.0233694 0.0541672,0.0281977 0.0515035,0.0328114 0.0484478,0.0371753 0.0450234,0.0412564 0.0412564,0.0450234 0.0371753,0.0484478 0.0328114,0.0515035 0.0281977,0.0541672 0.0233694,0.0564187 0.0183632,0.0582408 0.0132173,0.0596196 0.00797086,0.0605447 0.00266371,0.061009 0,2.04734 z "/>
<path fill="rgb(241,240,234)" stroke="rgb(241,240,234)" d="M 7.54986,8.80089 l -0.338443,0 -0.160034,-0.2 0.338443,0 0.160034,0.2 z "/>
<path fill="rgb(241,240,234)" stroke="rgb(241,240,234)" d="M 8.35177,8.30089 l 0,-2.05 0.2,0 1.77636e-15,2.05 -0.00190265,0.0435779 -0.00569347,0.0432462 -0.00944096,0.0425854 -0.0131166,0.0416005 -0.0166924,0.0402991 -0.0201412,0.0386909 -0.0234367,0.0367882 -0.0265538,0.0346056 -0.0294688,0.0321596 -0.0321596,0.0294688 -0.0346056,0.0265538 -0.0367882,0.0234367 -0.0386909,0.0201412 -0.0402991,0.0166924 -0.0416005,0.0131166 -0.0425854,0.00944096 -0.0432462,0.00569347 -0.0435779,0.00190265 -0.163462,0 -0.160034,-0.2 0.323496,0 0.0261467,-0.00114159 0.0259477,-0.00341608 0.0255513,-0.00566458 0.0249603,-0.00786996 0.0241794,-0.0100155 0.0232145,-0.0120847 0.0220729,-0.014062 0.0207634,-0.0159323 0.0192958,-0.0176813 0.0176813,-0.0192958 0.0159323,-0.0207634 0.014062,-0.0220729 0.0120847,-0.0232145 0.0100155,-0.0241794 0.00786996,-0.0249603 0.00566458,-0.0255513 0.00341608,-0.0259477 0.00114159,-0.0261467 z "/>
<path fill="rgb(241,240,234)" stroke="rgb(241,240,234)" d="M 1.45177,8.30089 l 0,-2.05 0.2,8.88178e-16 0,2.05 0.00114159,0.0261467 0.00341608,0.0259477 0.00566458,0.0255513 0.00786996,0.0249603 0.0100155,0.0241794 0.0120847,0.0232145 0.014062,0.0220729 0.0159323,0.0207634 0.0176813,0.0192958 0.0192958,0.0176813 0.0207634,0.0159323 0.0220729,0.014062 0.0232145,0.0120847 0.0241794,0.0100155 0.0249603,0.00786996 0.0255513,0.00566458 0.0259477,0.00341608 0.0261467,0.00114159 2.7254,0 1.35889,0 0.160034,0.2 -4.24432,0 -0.0435779,-0.00190265 -0.0432462,-0.00569347 -0.0425854,-0.00944096 -0.0416005,-0.0131166 -0.0402991,-0.0166924 -0.0386909,-0.0201412 -0.0367882,-0.0234367 -0.0346056,-0.0265538 -0.0321596,-0.0294688 -0.0294688,-0.0321596 -0.0265538,-0.0346056 -0.0234367,-0.0367882 -0.0201412,-0.0386909 -0.0166924,-0.0402991 -0.0131166,-0.0416005 -0.00944096,-0.0425854 -0.00569347,-0.0432462 -0.00190265,-0.0435779 z "/>
<path fill="rgb(241,240,234)" stroke="rgb(241,240,234)" d="M 6.53454,8.80089 l -0.160034,-0.2 0.338443,0 0.160034,0.2 -0.338443,0 z "/>
<path fill="rgb(241,240,234)" stroke="rgb(241,240,234)" d="M 1.45177,6.25089 l 0,-2.05 0.00190265,-0.0435779 0.00569347,-0.0432462 0.00944096,-0.0425854 0.0131166,-0.0416005 0.0166924,-0.0402991 0.0201412,-0.0386909 0.0234367,-0.0367882 0.0265538,-0.0346056 0.0294688,-0.0321596 0.0321596,-0.0294688 0.0346056,-0.0265538 0.0367882,-0.0234367 0.0386909,-0.0201412 0.0402991,-0.0166924 0.0416005,-0.0131166 0.0425854,-0.00944096 0.0432462,-0.00569347 0.0435779,-0.00190265 0.163462,0 0.160034,0.2 -0.323496,0 -0.0261467,0.00114159 -0.0259477,0.00341608 -0.0255513,0.00566458 -0.0249603,0.00786996 -0.0241794,0.0100155 -0.0232145,0.0120847 -0.0220729,0.014062 -0.0207634,0.0159323 -0.0192958,0.0176813 -0.0176813,0.0192958 -0.0159323,0.0207634 -0.014062,0.0220729 -0.0120847,0.0232145 -0.0100155,0.0241794 -0.00786996,0.0249603 -0.00566458,0.0255513 -0.00341608,0.0259477 -0.00114159,0.0261467 0,2.05 -0.2,-8.88178e-16 z "/>
<path fill="rgb(241,240,234)" stroke="rgb(241,240,234)" d="M 3.469,3.70089 l 0.160034,0.2 -0.338443,0 -0.160034,-0.2 0.338443,0 z "/>
<path fill="rgb(241,240,234)" stroke="rgb(241,240,234)" d="M 2.45367,3.70089 l 0.338443,0 0.160034,0.2 -0.119996,0 -0.218447,0 -0.160034,-0.2 z "/>
<path fill="rgb(241,240,234)" stroke="rgb(241,240,234)" d="M 3.80744,3.70089 l 4.24432,0 0.0435779,0.00190265 0.0432462,0.00569347 0.0425854,0.00944096 0.0416005,0.0131166 0.0402991,0.0166924 0.0386909,0.0201412 0.0367882,0.0234367 0.0346056,0.0265538 0.0321596,0.0294688 0.0294688,0.0321596 0.0265538,0.0346056 0.0234367,0.0367882 0.0201412,0.0386909 0.0166924,0.0402991 0.0131166,0.0416005 0.00944096,0.0425854 0.00569347,0.0432462 0.00190265,0.0435779 0,2.05 -0.2,0 0,-2.05 -0.00114159,-0.0261467 -0.00341608,-0.0259477 -0.00566458,-0.0255513 -0.00786996,-0.0249603 -0.0100155,-0.0241794 -0.0120847,-0.0232145 -0.014062,-0.0220729 -0.0159323,-0.0207634 -0.0176813,-0.0192958 -0.0192958,-0.0176813 -0.0207634,-0.0159323 -0.0220729,-0.014062 -0.0232145,-0.0120847 -0.0241794,-0.0100155 -0.0249603,-0.00786996 -0.0255513,-0.00566458 -0.0259477,-0.00341608 -0.0261467,-0.00114159 -2.64257,4.44089e-16 -1.44172,0 -0.160034,-0.2 z "/>
<path fill="rgb(241,240,234)" stroke="rgb(241,240,234)" d="M 10.0035,6.25089 l -0.229744,0 0,-5.49085 -0.00199778,-0.0457568 -0.00597815,-0.0454085 -0.00991301,-0.0447147 -0.0137724,-0.0436806 -0.017527,-0.042314 -0.0211483,-0.0406254 -0.0246085,-0.0386276 -0.0278815,-0.0363359 -0.0309423,-0.0337676 -0.0337676,-0.0309423 -0.0363359,-0.0278815 -0.0386276,-0.0246085 -0.0406254,-0.0211483 -0.042314,-0.017527 -0.0436806,-0.0137724 -0.0447147,-0.00991301 -0.0454085,-0.00597815 -0.0457568,-0.00199778 -8.47818,-7.99361e-15 -0.0457568,0.00199778 -0.0454085,0.00597815 -0.0447147,0.00991301 -0.0436806,0.0137724 -0.042314,0.017527 -0.0406254,0.0211483 -0.0386276,0.0246085 -0.0363359,0.0278815 -0.0337676,0.0309423 -0.0309423,0.0337676 -0.0278815,0.0363359 -0.0246085,0.0386276 -0.0211483,0.0406254 -0.017527,0.042314 -0.0137724,0.0436806 -0.00991301,0.0447147 -0.00597815,0.0454085 -0.00199778,0.0457568 0,5.49085 -0.245616,1.77636e-15 0,-6.25089 10.0035,1.77636e-15 -1.77636e-15,6.25089 z "/>
<path fill="rgb(241,240,234)" stroke="rgb(241,240,234)" d="M 10.0035,6.25089 l -1.77636e-15,6.25089 -10.0035,0 0,-6.25089 0.245616,-1.77636e-15 0,5.48553 0.00199778,0.0457568 0.00597815,0.0454085 0.00991301,0.0447147 0.0137724,0.0436806 0.017527,0.042314 0.0211483,0.0406254 0.0246085,0.0386276 0.0278815,0.0363359 0.0309423,0.0337676 0.0337676,0.0309423 0.0363359,0.0278815 0.0386276,0.0246085 0.0406254,0.0211483 0.042314,0.017527 0.0436806,0.0137724 0.0447147,0.00991301 0.0454085,0.00597815 0.0457568,0.00199778 8.47818,1.06581e-14 0.0457568,-0.00199778 0.0454085,-0.00597815 0.0447147,-0.00991301 0.0436806,-0.0137724 0.042314,-0.017527 0.0406254,-0.0211483 0.0386276,-0.0246085 0.0363359,-0.0278815 0.0337676,-0.0309423 0.0309423,-0.0337676 0.0278815,-0.0363359 0.0246085,-0.0386276 0.0211483,-0.0406254 0.017527,-0.042314 0.0137724,-0.0436806 0.00991301,-0.0447147 0.00597815,-0.0454085 0.00199778,-0.0457568 1.77636e-15,-5.48553 0.229744,0 z "/>
<path fill="rgb(42,41,42)" stroke="rgb(42,41,42)" d="M 6.92627,11.4645 l -0.730234,0 0,-0.999351 0.745972,0 0,0.179411 -0.563413,0 0,0.272264 0.297445,0 0,0.182559 -0.297445,0 0,0.18728 0.547676,0 0,0.177837 z "/>
<path fill="rgb(42,41,42)" stroke="rgb(42,41,42)" d="M 5.93637,11.4645 l -0.171542,0 0,-0.659414 0.0188854,-0.339937 0.152657,0 0,0.999351 z "/>
<path fill="rgb(42,41,42)" stroke="rgb(42,41,42)" d="M 5.30685,11.4645 l 0,-0.311609 0.476856,-0.687742 -0.0188854,0.339937 -0.45797,0.659414 z "/>
<path fill="rgb(42,41,42)" stroke="rgb(42,41,42)" d="M 5.30685,11.4645 l -0.176263,0 0,-0.999351 0.176263,0 0,0.687742 0,0.311609 z "/>
<path fill="rgb(42,41,42)" stroke="rgb(42,41,42)" d="M 4.48534,11.4819 l -0.0110165,0 -0.0897055,-0.0110165 -0.078689,-0.0251805 -0.0708201,-0.0424921 -0.0598037,-0.0582299 -0.0283281,-0.0409183 0.338363,0 0.0377707,-0.00314756 0.078689,-0.0283281 0.0598037,-0.0582299 0.0330494,-0.0660988 0.0204591,-0.0834104 0.00629512,-0.0975744 -0.00314756,-0.0708201 -0.0157378,-0.0865579 -0.0283281,-0.0723939 -0.0377707,-0.0519348 -0.0660988,-0.0440659 -0.0849842,-0.014164 -0.321051,-0.014164 0.0236067,-0.0330494 0.0613774,-0.0582299 0.0692464,-0.0409183 0.078689,-0.0251805 0.0881317,-0.0078689 0.0078689,0 0.0865579,0.00944268 0.078689,0.0283281 0.0692464,0.0440659 0.0598037,0.0629512 0.0283281,0.0409183 0.0377707,0.0708201 0.0251805,0.0802628 0.0157378,0.0881317 0.00472134,0.0975744 -0.00157378,0.0566561 -0.0110165,0.0912793 -0.0236067,0.0834104 -0.0330494,0.0739677 -0.0440659,0.0660988 -0.00157378,0.00157378 -0.0613774,0.0598037 -0.0692464,0.0440659 -0.078689,0.0251805 -0.0897055,0.00944268 z "/>
<path fill="rgb(42,41,42)" stroke="rgb(42,41,42)" d="M 4.14698,11.304 l -0.036197,-0.0692464 -0.0267543,-0.0802628 -0.0157378,-0.0881317 -0.00472134,-0.0991482 0,-0.0299018 0.00944268,-0.0928531 0.0188854,-0.0834104 0.0314756,-0.078689 0.0409183,-0.0692464 0.321051,0.014164 -0.0377707,0.00314756 -0.0771153,0.0283281 -0.0613774,0.0582299 0,0.00157378 -0.0346232,0.0676726 -0.0220329,0.0834104 -0.00629512,0.0975744 0.00629512,0.0975744 0.0220329,0.0818366 0.0346232,0.0676726 0.0251805,0.0283281 0.0676726,0.0456396 0.0834104,0.0157378 -0.338363,0 z "/>
<path fill="rgb(42,41,42)" stroke="rgb(42,41,42)" d="M 3.89675,11.4645 l -0.753841,0 0,-0.176263 0.536659,0 -0.568135,-0.62007 0,-0.203018 0.785317,0 0,0.179411 -0.564987,0 0.564987,0.616922 0,0.203018 z "/>
<path fill="rgb(42,41,42)" stroke="rgb(42,41,42)" d="M 5.26039,6.36262 l -0.0105083,0.0108841 -0.0113956,0.00995137 -0.0122004,0.00894654 -0.0129168,0.00787692 -0.0135397,0.00675027 -0.0140646,0.00557475 -0.0144876,0.00435886 -0.0148057,0.00311141 -0.0150166,0.00184142 -0.0151188,0.00055811 -0.0151115,-0.000729246 -0.0149948,-0.00201132 -0.0147695,-0.00327883 -0.0144373,-0.0045226 -0.0140005,-0.00573363 -0.0138546,-0.00712649 -0.0131776,-0.00831203 -0.0123993,-0.00943375 -0.0115258,-0.010483 -0.0105638,-0.0114518 -0.00952071,-0.0123326 -0.0084045,-0.0131188 -0.00722375,-0.0138042 -0.00598752,-0.0143836 -0.00470533,-0.0148525 -0.003387,-0.0152074 -0.00204266,-0.0154456 -0.000682633,-0.0155651 0.000701893,-0.0157827 0.00210014,-0.0156581 0.0034818,-0.0154099 0.00483597,-0.0150399 0.00615196,-0.0145513 0.00741938,-0.0139477 0.00862821,-0.0132341 0.00976893,-0.0124159 0.0108325,-0.0114997 0.0118106,-0.0104927 0.0126954,-0.00940289 0.0134799,-0.00823882 0.218936,0.273612 z "/>
<path fill="rgb(42,41,42)" stroke="rgb(42,41,42)" d="M 3.55336,4.48774 l -0.131629,-6.87613e-06 -0.469578,-0.586848 0.338443,0 0.512303,0.640243 -0.249538,-0.0533882 z "/>
<path fill="rgb(42,41,42)" stroke="rgb(42,41,42)" d="M 7.21142,8.80089 l -0.338443,0 -0.160034,-0.2 0.338443,0 0.160034,0.2 z "/>
<path fill="rgb(42,41,42)" stroke="rgb(42,41,42)" d="M 7.05139,8.60089 l -0.338443,0 -1.10846,-1.38529 0.246468,-0.114944 1.20044,1.50023 z "/>
<path fill="rgb(42,41,42)" stroke="rgb(42,41,42)" d="M 0.508116,0.846493 l 2.12397,2.6544 0.338443,0 -2.35975,-2.94907 -0.0183778,0.0154957 -0.0168832,0.0171119 -0.015247,0.0185847 -0.0134829,0.0199015 -0.0116058,0.0210515 -0.00963136,0.0220249 -0.00757613,0.0228137 -0.00545736,0.0234111 -0.00329283,0.0238121 -0.00110069,0.0240135 1.77636e-15,0.0864512 z "/>
<path fill="rgb(42,41,42)" stroke="rgb(42,41,42)" d="M 3.55336,4.48774 l -0.0350606,0.120679 -0.0965689,-0.120686 0.131629,6.87613e-06 z "/>
<path fill="rgb(42,41,42)" stroke="rgb(42,41,42)" d="M 2.79212,3.70089 l 0.338443,0 0.160034,0.2 -0.338443,0 -0.160034,-0.2 z "/>
<path fill="rgb(42,41,42)" stroke="rgb(42,41,42)" d="M 7.37146,9.00089 l -0.338443,0 -0.160034,-0.2 0.338443,0 0.160034,0.2 z "/>
<path fill="rgb(42,41,42)" stroke="rgb(42,41,42)" d="M 2.63208,3.50089 l 0.338443,0 0.160034,0.2 -0.338443,0 -0.160034,-0.2 z "/>
<path fill="rgb(42,41,42)" stroke="rgb(42,41,42)" d="M 3.55336,4.48774 l 0.249538,0.0533882 1.23856,1.54787 -0.0134799,0.00823882 -0.0126954,0.00940289 -0.0118106,0.0104927 -0.0108325,0.0114997 -0.00976893,0.0124159 -0.00862821,0.0132341 -0.00741938,0.0139477 -0.00615196,0.0145513 -0.00483597,0.0150399 -0.0034818,0.0154099 -0.00210014,0.0156581 -0.000701893,0.0157827 0.000682633,0.0155651 0.00204266,0.0154456 0.003387,0.0152074 0.00470533,0.0148525 0.00598752,0.0143836 0.00722375,0.0138042 0.0084045,0.0131188 0.00952071,0.0123326 0.0105638,0.0114518 0.0115258,0.010483 0.0123993,0.00943375 0.0131776,0.00831203 0.0138546,0.00712649 -0.0351244,0.0763345 -1.4996,-1.87411 0.0350606,-0.120679 z "/>
<path fill="rgb(42,41,42)" stroke="rgb(42,41,42)" d="M 9.39587,11.9538 l 0.0186884,-0.0138888 0.0173841,-0.0154902 0.0159431,-0.0169698 0.0143766,-0.0183158 0.012697,-0.0195177 0.0109175,-0.0205661 0.00905205,-0.0214526 0.00711543,-0.0221704 0.00512282,-0.0227137 0.0030899,-0.0230783 0.00103268,-0.0232613 -1.77636e-15,-0.0612952 -2.13984,-2.67423 -0.338443,0 2.36286,2.95295 z "/>
<path fill="rgb(42,41,42)" stroke="rgb(42,41,42)" d="M 5.85095,7.10066 l -0.246468,0.114944 -0.586582,-0.733073 0.0351244,-0.0763345 0.0140005,0.00573363 0.0144373,0.0045226 0.0147695,0.00327883 0.0149948,0.00201132 0.0151115,0.000729246 0.0151188,-0.00055811 0.0150166,-0.00184142 0.0148057,-0.00311141 0.0144876,-0.00435886 0.0140646,-0.00557475 0.0135397,-0.00675027 0.0129168,-0.00787692 0.0122004,-0.00894654 0.0113956,-0.00995137 0.0105083,-0.0108841 0.590558,0.738041 z "/>
<path fill="rgb(42,41,42)" stroke="rgb(42,41,42)" d="M 4.21125,4.6285 l 0.0354893,0.00759287 -0.00194962,0.0104119 -0.00141286,0.0104982 -0.000872374,0.0105569 -0.0312545,-0.0390598 z "/>
<path fill="rgb(42,41,42)" stroke="rgb(42,41,42)" d="M 6.32341,7.26814 l -0.131544,-0.164395 0.131548,0.0971281 -3.51394e-06,0.0672672 z "/>
<path fill="rgb(42,41,42)" stroke="rgb(42,41,42)" d="M 4.42614,4.4741 l 0.217682,0.272045 -0.00661784,0.0168687 -0.00807189,0.0162232 -0.00946373,0.0154527 -0.0107826,0.0145631 -0.0120184,0.0135612 -0.0131615,0.0124548 -0.0142032,0.0112524 -0.0151354,0.00996331 -0.015951,0.00859738 -0.0166436,0.00716518 -0.0172079,0.00567775 -0.0176396,0.00414656 -0.0179353,0.00258341 -0.0180928,0.00100034 -0.0181108,-0.000590433 -0.0179892,-0.00217666 -0.172299,-0.215328 0.000872374,-0.0105569 0.00141286,-0.0104982 0.00194962,-0.0104119 0.00465938,-0.017841 0.00623312,-0.017354 0.00775711,-0.0167284 0.00921918,-0.0159693 0.0106077,-0.0150827 0.0119115,-0.0140758 0.0131202,-0.0129565 0.0142243,-0.0117338 0.0152148,-0.0104175 0.0160838,-0.00901794 0.0168245,-0.00754646 0.0174309,-0.00601473 0.0178981,-0.004435 0.0182225,-0.00281988 z "/>
<path fill="rgb(42,41,42)" stroke="rgb(42,41,42)" d="M 7.72827,8.60089 l -0.338443,0 -0.875503,-1.09415 0.0328645,1.7168e-06 7.27418e-06,-0.139249 0.478516,0.355383 0.702558,0.878012 z "/>
<path fill="rgb(42,41,42)" stroke="rgb(42,41,42)" d="M 3.80744,3.70089 l 0.160034,0.2 -0.338443,0 -0.160034,-0.2 0.338443,0 z "/>
<path fill="rgb(42,41,42)" stroke="rgb(42,41,42)" d="M 5.4101,5.70379 l 0.0312469,0.0390504 -0.0379492,0.0181807 0.00670229,-0.0572311 z "/>
<path fill="rgb(42,41,42)" stroke="rgb(42,41,42)" d="M 7.88831,8.80089 l -0.338443,0 -0.160034,-0.2 0.338443,0 0.160034,0.2 z "/>
<path fill="rgb(42,41,42)" stroke="rgb(42,41,42)" d="M 3.30897,3.50089 l 0.338443,0 0.160034,0.2 -0.338443,0 -0.160034,-0.2 z "/>
<path fill="rgb(42,41,42)" stroke="rgb(42,41,42)" d="M 6.29305,6.80724 l -0.202749,0.169582 -0.0329757,-0.0412109 2.20936e-05,-0.422936 0.235702,0.294565 z "/>
<path fill="rgb(42,41,42)" stroke="rgb(42,41,42)" d="M 5.08014,5.29142 l 0.329965,0.412369 -0.00670229,0.0572311 0.0379492,-0.0181807 0.0971452,0.121406 -0.245117,0.116632 -0.237977,-0.297408 0.0570699,-0.198474 -0.0323327,-0.193575 z "/>
<path fill="rgb(42,41,42)" stroke="rgb(42,41,42)" d="M 3.30897,3.50089 l 0.338443,0 -2.40319,-3.00335 -0.338443,0 2.40319,3.00335 z "/>
<path fill="rgb(42,41,42)" stroke="rgb(42,41,42)" d="M 8.04834,9.00089 l -0.338443,0 -0.160034,-0.2 0.338443,0 0.160034,0.2 z "/>
<path fill="rgb(42,41,42)" stroke="rgb(42,41,42)" d="M 3.96748,3.90089 l 0.458664,0.573208 -0.0182225,0.00281988 -0.0178981,0.004435 -0.0174309,0.00601473 -0.0168245,0.00754646 -0.0160838,0.00901794 -0.0152148,0.0104175 -0.0142243,0.0117338 -0.0131202,0.0129565 -0.0119115,0.0140758 -0.0106077,0.0150827 -0.00921918,0.0159693 -0.00775711,0.0167284 -0.00623312,0.017354 -0.00465938,0.017841 -0.0354893,-0.00759287 -0.58221,-0.727609 0.338443,0 z "/>
<path fill="rgb(42,41,42)" stroke="rgb(42,41,42)" d="M 6.05735,6.51268 l -2.20936e-05,0.422936 -0.763954,-0.95474 0.245117,-0.116632 0.518859,0.648436 z "/>
<path fill="rgb(42,41,42)" stroke="rgb(42,41,42)" d="M 4.64382,4.74614 l 0.436312,0.545275 0.0323327,0.193575 -0.0570699,0.198474 -0.6406,-0.800581 0.0179892,0.00217666 0.0181108,0.000590433 0.0180928,-0.00100034 0.0179353,-0.00258341 0.0176396,-0.00414656 0.0172079,-0.00567775 0.0166436,-0.00716518 0.015951,-0.00859738 0.0151354,-0.00996331 0.0142032,-0.0112524 0.0131615,-0.0124548 0.0120184,-0.0135612 0.0107826,-0.0145631 0.00946373,-0.0154527 0.00807189,-0.0162232 0.00661784,-0.0168687 z "/>
<path fill="rgb(42,41,42)" stroke="rgb(42,41,42)" d="M 7.02571,7.72288 l -0.478516,-0.355383 -7.27418e-06,0.139249 -0.0328645,-1.7168e-06 -0.190922,-0.238602 3.51394e-06,-0.0672672 -0.131548,-0.0971281 -0.101556,-0.126919 0.202749,-0.169582 0.732661,0.915633 z "/>
<path fill="rgb(42,41,42)" stroke="rgb(42,41,42)" d="M 9.51129,10.8292 l -1.46295,-1.82831 -0.338443,0 1.8014,2.25127 0,-0.422964 z "/>
<path fill="rgb(42,41,42)" stroke="rgb(42,41,42)" d="M 3.338,5.22902 l 0.0901508,-0.310299 1.46619,1.83235 -0.123565,0.26854 -1.43277,-1.79059 z "/>
<path fill="rgb(42,41,42)" stroke="rgb(42,41,42)" d="M 2.83215,4.59685 l 0,-0.422964 0.452199,0.565129 -0.123025,0.269215 -0.329174,-0.41138 z "/>
<path fill="rgb(42,41,42)" stroke="rgb(42,41,42)" d="M 1.9552,3.50089 l 0.338443,0 0.160034,0.2 -0.338443,0 -0.160034,-0.2 z "/>
<path fill="rgb(42,41,42)" stroke="rgb(42,41,42)" d="M 2.27527,3.90089 l 0.338443,0 0.218447,0.273001 0,0.422964 -0.55689,-0.695965 z "/>
<path fill="rgb(42,41,42)" stroke="rgb(42,41,42)" d="M 0.508116,1.26946 l 1.78552,2.23143 -0.338443,0 -1.44708,-1.80847 -1.77636e-15,-0.422964 z "/>
<path fill="rgb(42,41,42)" stroke="rgb(42,41,42)" d="M 6.03606,8.60089 l -0.711523,-0.889215 0.066338,-0.0781668 1.368e-05,-0.261875 0.983614,1.22926 -0.338443,0 z "/>
<path fill="rgb(42,41,42)" stroke="rgb(42,41,42)" d="M 5.27648,7.60615 l 0.00404193,0.000224104 0.0040458,-0.000137591 0.00401737,-0.000498188 0.00395686,-0.000854808 0.00386476,-0.0012046 0.0037418,-0.00154478 0.00358897,-0.00187262 0.00340749,-0.00218551 0.0031988,-0.00248096 0.00296456,-0.00275659 0.00270666,-0.00301022 0.00242715,-0.00323981 0.00212826,-0.00344353 0.00181238,-0.00361977 0.00148203,-0.0037671 0.00113985,-0.00388435 0.000788563,-0.00397059 0.000430982,-0.00402513 4.67679e-06,-0.0895276 -0.000235568,-0.00431918 -0.00060567,-0.00428299 -0.000971295,-0.00421514 -0.00132974,-0.00411614 -0.00167836,-0.00398672 -0.00201458,-0.00382783 -0.0023359,-0.00364065 -0.00263996,-0.00342657 -0.00292452,-0.00318716 -0.00318745,-0.0029242 -0.00342683,-0.00263963 -0.00364088,-0.00233554 -0.00382803,-0.0020142 -0.00398688,-0.00167797 -0.00411627,-0.00132933 -0.00421523,-0.000970878 -0.00428305,-0.000605246 -0.0043192,-0.000235141 -0.181652,-9.48924e-06 0.145264,0.181542 0.0363785,1.90036e-06 z "/>
<path fill="rgb(42,41,42)" stroke="rgb(42,41,42)" d="M 5.27648,7.60615 l -0.0363785,-1.90036e-06 0.0844376,0.105525 0.066338,-0.0781668 1.368e-05,-0.261875 -0.278501,-0.348052 -1.05569e-05,0.202091 -0.176733,-9.23225e-06 0.159191,0.198946 0.181652,9.48924e-06 0.0043192,0.000235141 0.00428305,0.000605246 0.00421523,0.000970878 0.00411627,0.00132933 0.00398688,0.00167797 0.00382803,0.0020142 0.00364088,0.00233554 0.00342683,0.00263963 0.00318745,0.0029242 0.00292452,0.00318716 0.00263996,0.00342657 0.0023359,0.00364065 0.00201458,0.00382783 0.00167836,0.00398672 0.00132974,0.00411614 0.000971295,0.00421514 0.00060567,0.00428299 0.000235568,0.00431918 -4.67679e-06,0.0895276 -0.000430982,0.00402513 -0.000788563,0.00397059 -0.00113985,0.00388435 -0.00148203,0.0037671 -0.00181238,0.00361977 -0.00212826,0.00344353 -0.00242715,0.00323981 -0.00270666,0.00301022 -0.00296456,0.00275659 -0.0031988,0.00248096 -0.00340749,0.00218551 -0.00358897,0.00187262 -0.0037418,0.00154478 -0.00386476,0.0012046 -0.00395686,0.000854808 -0.00401737,0.000498188 -0.0040458,0.000137591 -0.00404193,-0.000224104 z "/>
<path fill="rgb(42,41,42)" stroke="rgb(42,41,42)" d="M 6.35613,9.00089 l -0.160034,-0.2 0.338443,0 0.160034,0.2 -0.338443,0 z "/>
<path fill="rgb(42,41,42)" stroke="rgb(42,41,42)" d="M 5.11239,7.02358 l -1.05569e-05,0.202091 -0.176733,-9.23225e-06 -0.164877,-0.206053 0.123565,-0.26854 0.218055,0.272511 z "/>
<path fill="rgb(42,41,42)" stroke="rgb(42,41,42)" d="M 6.19609,8.80089 l -0.160034,-0.2 0.338443,0 0.160034,0.2 -0.338443,0 z "/>
<path fill="rgb(42,41,42)" stroke="rgb(42,41,42)" d="M 3.16133,5.00823 l 0.123025,-0.269215 0.143793,0.179703 -0.0901508,0.310299 -0.176667,-0.220787 z "/>
<path fill="rgb(42,41,42)" stroke="rgb(42,41,42)" d="M 2.11523,3.70089 l 0.338443,0 0.160034,0.2 -0.338443,0 -0.160034,-0.2 z "/>
<path fill="rgb(42,41,42)" stroke="rgb(42,41,42)" d="M 8.75506,11.9989 l -2.39893,-2.99803 0.338443,0 2.39893,2.99803 -0.338443,0 z "/>
<path fill="rgb(42,41,42)" stroke="rgb(42,41,42)" d="M 9.51129,10.8292 l 1.77636e-15,-4.57831 0.2625,-8.88178e-16 -1.77636e-15,5.48553 -0.00199778,0.0457568 -0.00597815,0.0454085 -0.00991301,0.0447147 -0.0137724,0.0436806 -0.017527,0.042314 -0.0211483,0.0406254 -0.0246085,0.0386276 -0.0278815,0.0363359 -0.0309423,0.0337676 -0.0337676,0.0309423 -0.0363359,0.0278815 -0.0386276,0.0246085 -0.0406254,0.0211483 -0.042314,0.017527 -0.0436806,0.0137724 -0.0447147,0.00991301 -0.0454085,0.00597815 -0.0457568,0.00199778 -8.47818,-1.06581e-14 -0.0457568,-0.00199778 -0.0454085,-0.00597815 -0.0447147,-0.00991301 -0.0436806,-0.0137724 -0.042314,-0.017527 -0.0406254,-0.0211483 -0.0386276,-0.0246085 -0.0363359,-0.0278815 -0.0337676,-0.0309423 -0.0309423,-0.0337676 -0.0278815,-0.0363359 -0.0246085,-0.0386276 -0.0211483,-0.0406254 -0.017527,-0.042314 -0.0137724,-0.0436806 -0.00991301,-0.0447147 -0.00597815,-0.0454085 -0.00199778,-0.0457568 0,-5.48553 0.2625,8.88178e-16 0,5.48553 0.000998892,0.0228784 0.00298907,0.0227043 0.00495651,0.0223574 0.00688622,0.0218403 0.00876352,0.021157 0.0105741,0.0203127 0.0123043,0.0193138 0.0139407,0.0181679 0.0154711,0.0168838 0.0168838,0.0154711 0.0181679,0.0139407 0.0193138,0.0123043 0.0203127,0.0105741 0.021157,0.00876352 0.0218403,0.00688622 0.0223574,0.00495651 0.0227043,0.00298907 0.0228784,0.000998892 7.98444,7.10543e-15 0.338443,0 0.155294,1.77636e-15 0.0222765,-0.000946935 0.0221158,-0.00283397 0.0217955,-0.00470057 0.021318,-0.00653324 0.0206867,-0.00831879 0.0199061,-0.0100443 0.0189819,-0.0116974 0.0186884,-0.0138888 0.0173841,-0.0154902 0.0159431,-0.0169698 0.0143766,-0.0183158 0.012697,-0.0195177 0.0109175,-0.0205661 0.00905205,-0.0214526 0.00711543,-0.0221704 0.00512282,-0.0227137 0.0030899,-0.0230783 0.00103268,-0.0232613 -1.77636e-15,-0.0612952 1.77636e-15,-0.422964 0,-0.422964 z "/>
<path fill="rgb(42,41,42)" stroke="rgb(42,41,42)" d="M 0.508116,6.25089 l -0.2625,-8.88178e-16 0,-5.49085 0.00199778,-0.0457568 0.00597815,-0.0454085 0.00991301,-0.0447147 0.0137724,-0.0436806 0.017527,-0.042314 0.0211483,-0.0406254 0.0246085,-0.0386276 0.0278815,-0.0363359 0.0309423,-0.0337676 0.0337676,-0.0309423 0.0363359,-0.0278815 0.0386276,-0.0246085 0.0406254,-0.0211483 0.042314,-0.017527 0.0436806,-0.0137724 0.0447147,-0.00991301 0.0454085,-0.00597815 0.0457568,-0.00199778 8.47818,7.99361e-15 0.0457568,0.00199778 0.0454085,0.00597815 0.0447147,0.00991301 0.0436806,0.0137724 0.042314,0.017527 0.0406254,0.0211483 0.0386276,0.0246085 0.0363359,0.0278815 0.0337676,0.0309423 0.0309423,0.0337676 0.0278815,0.0363359 0.0246085,0.0386276 0.0211483,0.0406254 0.017527,0.042314 0.0137724,0.0436806 0.00991301,0.0447147 0.00597815,0.0454085 0.00199778,0.0457568 0,5.49085 -0.2625,8.88178e-16 -1.77636e-15,-0.00265976 0,-5.48819 -0.000998892,-0.0228784 -0.00298907,-0.0227043 -0.00495651,-0.0223574 -0.00688622,-0.0218403 -0.00876352,-0.021157 -0.0105741,-0.0203127 -0.0123043,-0.0193138 -0.0139407,-0.0181679 -0.0154711,-0.0168838 -0.0168838,-0.0154711 -0.0181679,-0.0139407 -0.0193138,-0.0123043 -0.0203127,-0.0105741 -0.021157,-0.00876352 -0.0218403,-0.00688622 -0.0223574,-0.00495651 -0.0227043,-0.00298907 -0.0228784,-0.000998892 -8.00457,-8.88178e-15 -0.338443,0 -0.135165,0 -0.0214588,0.000878579 -0.0213152,0.00262986 -0.0210289,0.00436353 -0.0206018,0.00606799 -0.0200368,0.00773184 -0.0193377,0.00934393 -0.0185091,0.0108935 -0.0175566,0.0123701 -0.0183778,0.0154957 -0.0168832,0.0171119 -0.015247,0.0185847 -0.0134829,0.0199015 -0.0116058,0.0210515 -0.00963136,0.0220249 -0.00757613,0.0228137 -0.00545736,0.0234111 -0.00329283,0.0238121 -0.00110069,0.0240135 1.77636e-15,0.0864512 -1.77636e-15,0.422964 1.77636e-15,0.422964 -8.88178e-16,4.55581 -8.88178e-16,0.00265976 z "/>
</g></g></svg>
