<?xml version="1.0" encoding="UTF-8" standalone="no"?>
<!DOCTYPE svg PUBLIC "-//W3C//DTD SVG 1.1//EN" "http://www.w3.org/Graphics/SVG/1.1/DTD/svg11-flat.dtd"
[

]>
<svg xmlns="http://www.w3.org/2000/svg"  viewBox="-0.09375 -0.09375 7.6875 7.6875"><g fill="none" stroke="black" stroke-width="0.0125" transform="translate(0,7.5) scale(1, -1)">
<g id="Output" >
<path fill="rgb(241,240,234)" stroke="rgb(241,240,234)" d="M 3.75,6.4 l 0,-3.62534 1.24459,0 -0.0857054,0.361942 -0.000969508,0.00507671 -0.000521529,0.00514207 -6.95472e-05,0.00516798 0.000382968,0.00515424 0.000832544,0.00510096 0.00127573,0.00500853 0.00170913,0.00487768 0.00212942,0.0047094 0.00253337,0.00450499 0.00291788,0.00426601 0.00328,0.0039943 0.00361696,0.00369195 0.00392617,0.00336127 0.00420525,0.0030048 0.00445206,0.00262527 0.00466472,0.0022256 0.00484158,0.00180885 0.0049813,0.00137823 0.0050828,0.00093703 0.0051453,0.000488641 0.00516832,3.65032e-05 0.00515169,-0.000415915 0.00509553,-0.000865141 0.00500027,-0.00130773 0.00486665,-0.00174029 0.00469569,-0.00215949 0.0044887,-0.00256212 0.755664,-0.520692 0.00404554,-0.00305751 0.00376222,-0.00340007 0.00344998,-0.0037165 0.00311124,-0.00400436 0.00274858,-0.00426146 0.00236481,-0.0044858 0.00196286,-0.00467567 0.00154582,-0.00482961 0.00111691,-0.00494644 0.000679407,-0.00502525 0.000236688,-0.00506544 -0.00020785,-0.00506671 -0.000650791,-0.00502904 -0.00108873,-0.00495272 -0.0015183,-0.00483833 -0.00193621,-0.00468677 -0.00233923,-0.00449919 -0.00272428,-0.00427703 -0.00308839,-0.00402201 -0.00342877,-0.00373607 -0.0037428,-0.00342143 -0.00402807,-0.00308049 -1.95399e-14,-1.42109e-14 -0.755935,-0.524057 -0.0042998,-0.00271001 -0.00452046,-0.00232334 -0.00470643,-0.00191884 -0.00485629,-0.00149962 -0.00496889,-0.0010689 -0.00504337,-0.000629971 -0.00507915,-0.000186211 -0.00507596,0.000258978 -0.00503382,0.00070218 -0.00495307,0.00113999 -0.0048343,0.00156906 -0.00467845,0.00198609 -0.0044867,0.00238788 -0.00426052,0.00277135 -0.00400166,0.00313355 -0.00371209,0.00347172 -0.00339404,0.00378324 -0.00304995,0.00406574 -0.00268246,0.00431704 -0.00229439,0.00453522 -0.00188871,0.0047186 -0.00146854,0.00486578 -0.00103711,0.00497563 -0.000597712,0.00504729 -0.000153732,0.00508024 0.000291427,0.0050742 0.00073435,0.00502923 0.0868738,0.366876 -1.24459,0 0,-1.38574 0.230963,0.0100841 0.229205,0.0301754 0.225703,0.0500371 0.220483,0.069518 0.213585,0.0884698 0.205062,0.106748 0.194978,0.124214 0.18341,0.140735 0.170446,0.156185 0.156185,0.170446 0.140735,0.18341 0.124214,0.194978 0.106748,0.205062 0.0884698,0.213585 0.069518,0.220483 0.0500371,0.225703 0.0301754,0.229205 0.0100841,0.230963 -0.0100841,0.230963 -0.0301754,0.229205 -0.0500371,0.225703 -0.069518,0.220483 -0.0884698,0.213585 -0.106748,0.205062 -0.124214,0.194978 -0.140735,0.18341 -0.156185,0.170446 -0.170446,0.156185 -0.18341,0.140735 -0.194978,0.124214 -0.205062,0.106748 -0.213585,0.0884698 -0.220483,0.069518 -0.225703,0.0500371 -0.229205,0.0301754 -0.230963,0.0100841 z "/>
<path fill="rgb(241,240,234)" stroke="rgb(241,240,234)" d="M 2.50541,2.77466 l 1.24459,0 0,3.62534 -0.230963,-0.0100841 -0.229205,-0.0301754 -0.225703,-0.0500371 -0.220483,-0.069518 -0.213585,-0.0884698 -0.205062,-0.106748 -0.194978,-0.124214 -0.18341,-0.140735 -0.170446,-0.156185 -0.156185,-0.170446 -0.140735,-0.18341 -0.124214,-0.194978 -0.106748,-0.205062 -0.0884698,-0.213585 -0.069518,-0.220483 -0.0500371,-0.225703 -0.0301754,-0.229205 -0.0100841,-0.230963 0.0100841,-0.230963 0.0301754,-0.229205 0.0500371,-0.225703 0.069518,-0.220483 0.0884698,-0.213585 0.106748,-0.205062 0.124214,-0.194978 0.140735,-0.18341 0.156185,-0.170446 0.170446,-0.156185 0.18341,-0.140735 0.194978,-0.124214 0.205062,-0.106748 0.213585,-0.0884698 0.220483,-0.069518 0.225703,-0.0500371 0.229205,-0.0301754 0.230963,-0.0100841 0,1.38574 -1.24459,0 0.0857183,-0.361942 0.000969797,-0.00507739 0.000521717,-0.00514278 6.96336e-05,-0.00516871 -0.000382985,-0.00515497 -0.000832664,-0.00510168 -0.00127595,-0.00500923 -0.00170945,-0.00487834 -0.00212983,-0.00471002 -0.00253386,-0.00450555 -0.00291846,-0.0042665 -0.00328065,-0.00399472 -0.00361767,-0.00369228 -0.00392692,-0.0033615 -0.00420605,-0.00300493 -0.00445289,-0.0026253 -0.00466556,-0.00222552 -0.00484243,-0.00180866 -0.00498214,-0.00137793 -0.00508362,-0.000936619 -0.00514608,-0.000488122 -0.00516906,-3.58782e-05 -0.00515236,0.000416641 -0.00509613,0.000865962 -0.00500079,0.00130864 -0.00486707,0.00174127 -0.00469601,0.00216054 -0.0044889,0.00256323 -0.755652,0.52387 -0.00404473,0.00307508 -0.00375988,0.00341749 -0.00344613,0.00373365 -0.0031059,0.00402111 -0.0027418,0.00427767 -0.00235664,0.00450136 -0.00195336,0.00469045 -0.00153507,0.0048435 -0.00110498,0.00495933 -0.000666404,0.00503705 -0.000222705,0.00507606 0.000222705,0.00507606 0.000666404,0.00503705 0.00110498,0.00495933 0.00153507,0.0048435 0.00195336,0.00469045 0.00235664,0.00450136 0.0027418,0.00427767 0.0031059,0.00402111 0.00344613,0.00373365 0.00375988,0.00341749 0.00404473,0.00307508 0.755652,0.520692 0.00431279,0.0027011 0.00453263,0.00231329 0.00471769,0.00190773 0.00486655,0.00148753 0.00497806,0.00105592 0.00505137,0.000616201 0.00508592,0.000171755 0.00508143,-0.000274009 0.00503796,-0.00071767 0.00495582,-0.00115582 0.00483565,-0.00158511 0.00467837,-0.00200223 0.00448519,-0.00240398 0.00425759,-0.00278729 0.00399732,-0.00314921 0.00370637,-0.00348696 0.00338698,-0.00379795 0.0030416,-0.0040798 0.00267288,-0.00433033 0.00228364,-0.00454764 0.00187688,-0.00473005 0.00145572,-0.00487616 0.00102339,-0.00498485 0.0005832,-0.00505529 0.000138538,-0.00508693 -0.000307187,-0.00507954 -0.000750555,-0.00503316 -0.0868077,-0.366542 z "/>
<path fill="rgb(241,240,234)" stroke="rgb(241,240,234)" d="M 0.2,3.75 l 0.0135088,-0.309403 0.0404237,-0.307048 0.0670308,-0.302357 0.0931279,-0.295364 0.118516,-0.286123 0.143002,-0.274705 0.1664,-0.261196 0.188532,-0.2457 0.209229,-0.228333 0.228333,-0.209229 0.2457,-0.188532 0.261196,-0.1664 0.274705,-0.143002 0.286123,-0.118516 0.295364,-0.0931279 0.302357,-0.0670308 0.307048,-0.0404237 0.309403,-0.0135088 0.309403,0.0135088 0.307048,0.0404237 0.302357,0.0670308 0.295364,0.0931279 0.286123,0.118516 0.274705,0.143002 0.261196,0.1664 0.2457,0.188532 0.228333,0.209229 0.209229,0.228333 0.188532,0.2457 0.1664,0.261196 0.143002,0.274705 0.118516,0.286123 0.0931279,0.295364 0.0670308,0.302357 0.0404237,0.307048 0.0135088,0.309403 -0.2,0 -0.0127478,-0.291972 -0.0381463,-0.28975 -0.0632545,-0.285322 -0.0878812,-0.278724 -0.111839,-0.270004 -0.134946,-0.259229 -0.157026,-0.246481 -0.17791,-0.231857 -0.197441,-0.215469 -0.215469,-0.197441 -0.231857,-0.17791 -0.246481,-0.157026 -0.259229,-0.134946 -0.270004,-0.111839 -0.278724,-0.0878812 -0.285322,-0.0632545 -0.28975,-0.0381463 -0.291972,-0.0127478 -0.291972,0.0127478 -0.28975,0.0381463 -0.285322,0.0632545 -0.278724,0.0878812 -0.270004,0.111839 -0.259229,0.134946 -0.246481,0.157026 -0.231857,0.17791 -0.215469,0.197441 -0.197441,0.215469 -0.17791,0.231857 -0.157026,0.246481 -0.134946,0.259229 -0.111839,0.270004 -0.0878812,0.278724 -0.0632545,0.285322 -0.0381463,0.28975 -0.0127478,0.291972 -0.2,0 z "/>
<path fill="rgb(241,240,234)" stroke="rgb(241,240,234)" d="M 0.2,3.75 l 0.2,0 0.0127478,0.291972 0.0381463,0.28975 0.0632545,0.285322 0.0878812,0.278724 0.111839,0.270004 0.134946,0.259229 0.157026,0.246481 0.17791,0.231857 0.197441,0.215469 0.215469,0.197441 0.231857,0.17791 0.246481,0.157026 0.259229,0.134946 0.270004,0.111839 0.278724,0.0878812 0.285322,0.0632545 0.28975,0.0381463 0.291972,0.0127478 0.291972,-0.0127478 0.28975,-0.0381463 0.285322,-0.0632545 0.278724,-0.0878812 0.270004,-0.111839 0.259229,-0.134946 0.246481,-0.157026 0.231857,-0.17791 0.215469,-0.197441 0.197441,-0.215469 0.17791,-0.231857 0.157026,-0.246481 0.134946,-0.259229 0.111839,-0.270004 0.0878812,-0.278724 0.0632545,-0.285322 0.0381463,-0.28975 0.0127478,-0.291972 0.2,0 -0.0135088,0.309403 -0.0404237,0.307048 -0.0670308,0.302357 -0.0931279,0.295364 -0.118516,0.286123 -0.143002,0.274705 -0.1664,0.261196 -0.188532,0.2457 -0.209229,0.228333 -0.228333,0.209229 -0.2457,0.188532 -0.261196,0.1664 -0.274705,0.143002 -0.286123,0.118516 -0.295364,0.0931279 -0.302357,0.0670308 -0.307048,0.0404237 -0.309403,0.0135088 -0.309403,-0.0135088 -0.307048,-0.0404237 -0.302357,-0.0670308 -0.295364,-0.0931279 -0.286123,-0.118516 -0.274705,-0.143002 -0.261196,-0.1664 -0.2457,-0.188532 -0.228333,-0.209229 -0.209229,-0.228333 -0.188532,-0.2457 -0.1664,-0.261196 -0.143002,-0.274705 -0.118516,-0.286123 -0.0931279,-0.295364 -0.0670308,-0.302357 -0.0404237,-0.307048 -0.0135088,-0.309403 z "/>
<path fill="rgb(42,41,42)" stroke="rgb(42,41,42)" d="M 5.54865,4.49857 l -0.0350127,-0.00283887 -0.0624552,-0.0141944 -0.0615089,-0.0283887 -0.0615089,-0.0425831 0.453273,-0.0340664 -0.0425831,0.052046 -0.00378516,0.00283887 -0.0529923,0.0378516 -0.0624552,0.0217647 -0.0709718,0.00757032 z "/>
<path fill="rgb(42,41,42)" stroke="rgb(42,41,42)" d="M 5.13796,4.49857 l -0.0643477,-0.00851661 -0.0596163,-0.0255498 -0.0548848,-0.0435293 0.369053,-0.0104092 -0.0113555,0.0123018 -0.052046,0.0416368 -0.0596163,0.0255498 -0.0671866,0.00851661 z "/>
<path fill="rgb(42,41,42)" stroke="rgb(42,41,42)" d="M 4.95911,4.48059 l -0.178849,0 0,-0.72959 0.178849,0 0,0.438132 0.00378516,0.0350127 0.029335,0.05867 0.0217647,0.0189258 0.0643477,0.0170332 0.431508,0 0.271585,0.0577237 -0.453273,0.0340664 -0.369053,0.0104092 0,0.0596163 z "/>
<path fill="rgb(42,41,42)" stroke="rgb(42,41,42)" d="M 5.78144,4.3765 l -0.271585,-0.0577237 0.0378516,-0.00378516 0.0539385,-0.0321739 0.0198721,-0.0302813 0.0132481,-0.0671866 0,-0.434347 0.179795,0 0,0.501534 -0.00851661,0.0634014 -0.0246035,0.0605626 z "/>
<path fill="rgb(42,41,42)" stroke="rgb(42,41,42)" d="M 5.50985,4.31877 l -0.431508,0 0.0369053,-0.00473145 0.0577237,-0.0331202 0.022711,-0.029335 0.0151406,-0.0662403 0,-0.434347 0.172225,0 0,0.440971 0.00378516,0.0321739 0.0340664,0.0567774 0.0255498,0.0208184 0.0634014,0.0170332 z "/>
<path fill="rgb(42,41,42)" stroke="rgb(42,41,42)" d="M 2.50541,2.77466 l 0.0868077,0.366542 0.000750555,0.00503316 0.000307187,0.00507954 -0.000138538,0.00508693 -0.0005832,0.00505529 -0.00102339,0.00498485 -0.00145572,0.00487616 -0.00187688,0.00473005 -0.00228364,0.00454764 -0.00267288,0.00433033 -0.0030416,0.0040798 -0.00338698,0.00379795 -0.00370637,0.00348696 -0.00399732,0.00314921 -0.00425759,0.00278729 -0.00448519,0.00240398 -0.00467837,0.00200223 -0.00483565,0.00158511 -0.00495582,0.00115582 -0.00503796,0.00071767 -0.00508143,0.000274009 -0.00508592,-0.000171755 -0.00505137,-0.000616201 -0.00497806,-0.00105592 -0.00486655,-0.00148753 -0.00471769,-0.00190773 -0.00453263,-0.00231329 -0.00431279,-0.0027011 -0.755652,-0.520692 -0.00404473,-0.00307508 -0.00375988,-0.00341749 -0.00344613,-0.00373365 -0.0031059,-0.00402111 -0.0027418,-0.00427767 -0.00235664,-0.00450136 -0.00195336,-0.00469045 -0.00153507,-0.0048435 -0.00110498,-0.00495933 -0.000666404,-0.00503705 -0.000222705,-0.00507606 0.000222705,-0.00507606 0.000666404,-0.00503705 0.00110498,-0.00495933 0.00153507,-0.0048435 0.00195336,-0.00469045 0.00235664,-0.00450136 0.0027418,-0.00427767 0.0031059,-0.00402111 0.00344613,-0.00373365 0.00375988,-0.00341749 0.00404473,-0.00307508 0.755652,-0.52387 0.0044889,-0.00256323 0.00469601,-0.00216054 0.00486707,-0.00174127 0.00500079,-0.00130864 0.00509613,-0.000865962 0.00515236,-0.000416641 0.00516906,3.58782e-05 0.00514608,0.000488122 0.00508362,0.000936619 0.00498214,0.00137793 0.00484243,0.00180866 0.00466556,0.00222552 0.00445289,0.0026253 0.00420605,0.00300493 0.00392692,0.0033615 0.00361767,0.00369228 0.00328065,0.00399472 0.00291846,0.0042665 0.00253386,0.00450555 0.00212983,0.00471002 0.00170945,0.00487834 0.00127595,0.00500923 0.000832664,0.00510168 0.000382985,0.00515497 -6.96336e-05,0.00516871 -0.000521717,0.00514278 -0.000969797,0.00507739 -0.0857183,0.361942 1.24459,0 1.24459,0 -0.0868738,-0.366876 -0.00073435,-0.00502923 -0.000291427,-0.0050742 0.000153732,-0.00508024 0.000597712,-0.00504729 0.00103711,-0.00497563 0.00146854,-0.00486578 0.00188871,-0.0047186 0.00229439,-0.00453522 0.00268246,-0.00431704 0.00304995,-0.00406574 0.00339404,-0.00378324 0.00371209,-0.00347172 0.00400166,-0.00313355 0.00426052,-0.00277135 0.0044867,-0.00238788 0.00467845,-0.00198609 0.0048343,-0.00156906 0.00495307,-0.00113999 0.00503382,-0.00070218 0.00507596,-0.000258978 0.00507915,0.000186211 0.00504337,0.000629971 0.00496889,0.0010689 0.00485629,0.00149962 0.00470643,0.00191884 0.00452046,0.00232334 0.0042998,0.00271001 0.755935,0.524057 1.95399e-14,1.42109e-14 0.00402807,0.00308049 0.0037428,0.00342143 0.00342877,0.00373607 0.00308839,0.00402201 0.00272428,0.00427703 0.00233923,0.00449919 0.00193621,0.00468677 0.0015183,0.00483833 0.00108873,0.00495272 0.000650791,0.00502904 0.00020785,0.00506671 -0.000236688,0.00506544 -0.000679407,0.00502525 -0.00111691,0.00494644 -0.00154582,0.00482961 -0.00196286,0.00467567 -0.00236481,0.0044858 -0.00274858,0.00426146 -0.00311124,0.00400436 -0.00344998,0.0037165 -0.00376222,0.00340007 -0.00404554,0.00305751 -0.755664,0.520692 -0.0044887,0.00256212 -0.00469569,0.00215949 -0.00486665,0.00174029 -0.00500027,0.00130773 -0.00509553,0.000865141 -0.00515169,0.000415915 -0.00516832,-3.65032e-05 -0.0051453,-0.000488641 -0.0050828,-0.00093703 -0.0049813,-0.00137823 -0.00484158,-0.00180885 -0.00466472,-0.0022256 -0.00445206,-0.00262527 -0.00420525,-0.0030048 -0.00392617,-0.00336127 -0.00361696,-0.00369195 -0.00328,-0.0039943 -0.00291788,-0.00426601 -0.00253337,-0.00450499 -0.00212942,-0.0047094 -0.00170913,-0.00487768 -0.00127573,-0.00500853 -0.000832544,-0.00510096 -0.000382968,-0.00515424 6.95472e-05,-0.00516798 0.000521529,-0.00514207 0.000969508,-0.00507671 0.0857054,-0.361942 -1.24459,0 -1.24459,0 z "/>
<path fill="rgb(187,30,16)" stroke="rgb(187,30,16)" d="M 0.2,3.75 l -0.2,0 0.0142699,-0.326834 0.042701,-0.324347 0.0708072,-0.319391 0.0983745,-0.312004 0.125193,-0.302243 0.151059,-0.290182 0.175775,-0.275912 0.199154,-0.259542 0.221016,-0.241197 0.241197,-0.221016 0.259542,-0.199154 0.275912,-0.175775 0.290182,-0.151059 0.302243,-0.125193 0.312004,-0.0983745 0.319391,-0.0708072 0.324347,-0.042701 0.326834,-0.0142699 0.326834,0.0142699 0.324347,0.042701 0.319391,0.0708072 0.312004,0.0983745 0.302243,0.125193 0.290182,0.151059 0.275912,0.175775 0.259542,0.199154 0.241197,0.221016 0.221016,0.241197 0.199154,0.259542 0.175775,0.275912 0.151059,0.290182 0.125193,0.302243 0.0983745,0.312004 0.0708072,0.319391 0.042701,0.324347 0.0142699,0.326834 -0.2,0 -0.0135088,-0.309403 -0.0404237,-0.307048 -0.0670308,-0.302357 -0.0931279,-0.295364 -0.118516,-0.286123 -0.143002,-0.274705 -0.1664,-0.261196 -0.188532,-0.2457 -0.209229,-0.228333 -0.228333,-0.209229 -0.2457,-0.188532 -0.261196,-0.1664 -0.274705,-0.143002 -0.286123,-0.118516 -0.295364,-0.0931279 -0.302357,-0.0670308 -0.307048,-0.0404237 -0.309403,-0.0135088 -0.309403,0.0135088 -0.307048,0.0404237 -0.302357,0.0670308 -0.295364,0.0931279 -0.286123,0.118516 -0.274705,0.143002 -0.261196,0.1664 -0.2457,0.188532 -0.228333,0.209229 -0.209229,0.228333 -0.188532,0.2457 -0.1664,0.261196 -0.143002,0.274705 -0.118516,0.286123 -0.0931279,0.295364 -0.0670308,0.302357 -0.0404237,0.307048 -0.0135088,0.309403 z "/>
<path fill="rgb(187,30,16)" stroke="rgb(187,30,16)" d="M 0.2,3.75 l 0.0135088,0.309403 0.0404237,0.307048 0.0670308,0.302357 0.0931279,0.295364 0.118516,0.286123 0.143002,0.274705 0.1664,0.261196 0.188532,0.2457 0.209229,0.228333 0.228333,0.209229 0.2457,0.188532 0.261196,0.1664 0.274705,0.143002 0.286123,0.118516 0.295364,0.0931279 0.302357,0.0670308 0.307048,0.0404237 0.309403,0.0135088 0.309403,-0.0135088 0.307048,-0.0404237 0.302357,-0.0670308 0.295364,-0.0931279 0.286123,-0.118516 0.274705,-0.143002 0.261196,-0.1664 0.2457,-0.188532 0.228333,-0.209229 0.209229,-0.228333 0.188532,-0.2457 0.1664,-0.261196 0.143002,-0.274705 0.118516,-0.286123 0.0931279,-0.295364 0.0670308,-0.302357 0.0404237,-0.307048 0.0135088,-0.309403 0.2,0 -0.0142699,0.326834 -0.042701,0.324347 -0.0708072,0.319391 -0.0983745,0.312004 -0.125193,0.302243 -0.151059,0.290182 -0.175775,0.275912 -0.199154,0.259542 -0.221016,0.241197 -0.241197,0.221016 -0.259542,0.199154 -0.275912,0.175775 -0.290182,0.151059 -0.302243,0.125193 -0.312004,0.0983745 -0.319391,0.0708072 -0.324347,0.042701 -0.326834,0.0142699 -0.326834,-0.0142699 -0.324347,-0.042701 -0.319391,-0.0708072 -0.312004,-0.0983745 -0.302243,-0.125193 -0.290182,-0.151059 -0.275912,-0.175775 -0.259542,-0.199154 -0.241197,-0.221016 -0.221016,-0.241197 -0.199154,-0.259542 -0.175775,-0.275912 -0.151059,-0.290182 -0.125193,-0.302243 -0.0983745,-0.312004 -0.0708072,-0.319391 -0.042701,-0.324347 -0.0142699,-0.326834 0.2,0 z "/>
<path fill="rgb(187,30,16)" stroke="rgb(187,30,16)" d="M 7.1,3.75 l -0.7,0 -0.0100841,-0.230963 -0.0301754,-0.229205 -0.0500371,-0.225703 -0.069518,-0.220483 -0.0884698,-0.213585 -0.106748,-0.205062 -0.124214,-0.194978 -0.140735,-0.18341 -0.156185,-0.170446 -0.170446,-0.156185 -0.18341,-0.140735 -0.194978,-0.124214 -0.205062,-0.106748 -0.213585,-0.0884698 -0.220483,-0.069518 -0.225703,-0.0500371 -0.229205,-0.0301754 -0.230963,-0.0100841 -0.230963,0.0100841 -0.229205,0.0301754 -0.225703,0.0500371 -0.220483,0.069518 -0.213585,0.0884698 -0.205062,0.106748 -0.194978,0.124214 -0.18341,0.140735 -0.170446,0.156185 -0.156185,0.170446 -0.140735,0.18341 -0.124214,0.194978 -0.106748,0.205062 -0.0884698,0.213585 -0.069518,0.220483 -0.0500371,0.225703 -0.0301754,0.229205 -0.0100841,0.230963 -0.7,0 0.0127478,-0.291972 0.0381463,-0.28975 0.0632545,-0.285322 0.0878812,-0.278724 0.111839,-0.270004 0.134946,-0.259229 0.157026,-0.246481 0.17791,-0.231857 0.197441,-0.215469 0.215469,-0.197441 0.231857,-0.17791 0.246481,-0.157026 0.259229,-0.134946 0.270004,-0.111839 0.278724,-0.0878812 0.285322,-0.0632545 0.28975,-0.0381463 0.291972,-0.0127478 0.291972,0.0127478 0.28975,0.0381463 0.285322,0.0632545 0.278724,0.0878812 0.270004,0.111839 0.259229,0.134946 0.246481,0.157026 0.231857,0.17791 0.215469,0.197441 0.197441,0.215469 0.17791,0.231857 0.157026,0.246481 0.134946,0.259229 0.111839,0.270004 0.0878812,0.278724 0.0632545,0.285322 0.0381463,0.28975 0.0127478,0.291972 z "/>
<path fill="rgb(187,30,16)" stroke="rgb(187,30,16)" d="M 7.1,3.75 l -0.0127478,0.291972 -0.0381463,0.28975 -0.0632545,0.285322 -0.0878812,0.278724 -0.111839,0.270004 -0.134946,0.259229 -0.157026,0.246481 -0.17791,0.231857 -0.197441,0.215469 -0.215469,0.197441 -0.231857,0.17791 -0.246481,0.157026 -0.259229,0.134946 -0.270004,0.111839 -0.278724,0.0878812 -0.285322,0.0632545 -0.28975,0.0381463 -0.291972,0.0127478 -0.291972,-0.0127478 -0.28975,-0.0381463 -0.285322,-0.0632545 -0.278724,-0.0878812 -0.270004,-0.111839 -0.259229,-0.134946 -0.246481,-0.157026 -0.231857,-0.17791 -0.215469,-0.197441 -0.197441,-0.215469 -0.17791,-0.231857 -0.157026,-0.246481 -0.134946,-0.259229 -0.111839,-0.270004 -0.0878812,-0.278724 -0.0632545,-0.285322 -0.0381463,-0.28975 -0.0127478,-0.291972 0.7,0 0.0100841,0.230963 0.0301754,0.229205 0.0500371,0.225703 0.069518,0.220483 0.0884698,0.213585 0.106748,0.205062 0.124214,0.194978 0.140735,0.18341 0.156185,0.170446 0.170446,0.156185 0.18341,0.140735 0.194978,0.124214 0.205062,0.106748 0.213585,0.0884698 0.220483,0.069518 0.225703,0.0500371 0.229205,0.0301754 0.230963,0.0100841 0.230963,-0.0100841 0.229205,-0.0301754 0.225703,-0.0500371 0.220483,-0.069518 0.213585,-0.0884698 0.205062,-0.106748 0.194978,-0.124214 0.18341,-0.140735 0.170446,-0.156185 0.156185,-0.170446 0.140735,-0.18341 0.124214,-0.194978 0.106748,-0.205062 0.0884698,-0.213585 0.069518,-0.220483 0.0500371,-0.225703 0.0301754,-0.229205 0.0100841,-0.230963 0.7,0 z "/>
</g></g></svg>
