<svg xmlns="http://www.w3.org/2000/svg" width="40mm" height="40mm" viewBox="0 0 60 60">
  <defs><clipPath id="c"><rect x="0" y="0" width="60" height="60"/></clipPath></defs>
  <rect x="0" y="0" width="60" height="60" fill="#fff" stroke="#bbb" stroke-width="0.5"/>
  <g clip-path="url(#c)" stroke="#111" stroke-width="0.5" fill="none">
    <line x1="-90.000" y1="-108.158" x2="150.000" y2="-108.158"/>
    <line x1="-90.000" y1="-98.289" x2="150.000" y2="-98.289"/>
    <line x1="-90.000" y1="-88.421" x2="150.000" y2="-88.421"/>
    <line x1="-90.000" y1="-78.553" x2="150.000" y2="-78.553"/>
    <line x1="-90.000" y1="-68.684" x2="150.000" y2="-68.684"/>
    <line x1="-90.000" y1="-58.816" x2="150.000" y2="-58.816"/>
    <line x1="-90.000" y1="-48.947" x2="150.000" y2="-48.947"/>
    <line x1="-90.000" y1="-39.079" x2="150.000" y2="-39.079"/>
    <line x1="-90.000" y1="-29.211" x2="150.000" y2="-29.211"/>
    <line x1="-90.000" y1="-19.342" x2="150.000" y2="-19.342"/>
    <line x1="-90.000" y1="-9.474" x2="150.000" y2="-9.474"/>
    <line x1="-90.000" y1="0.395" x2="150.000" y2="0.395"/>
    <line x1="-90.000" y1="10.263" x2="150.000" y2="10.263"/>
    <line x1="-90.000" y1="20.132" x2="150.000" y2="20.132"/>
    <line x1="-90.000" y1="30.000" x2="150.000" y2="30.000"/>
    <line x1="-90.000" y1="39.868" x2="150.000" y2="39.868"/>
    <line x1="-90.000" y1="49.737" x2="150.000" y2="49.737"/>
    <line x1="-90.000" y1="59.605" x2="150.000" y2="59.605"/>
    <line x1="-90.000" y1="69.474" x2="150.000" y2="69.474"/>
    <line x1="-90.000" y1="79.342" x2="150.000" y2="79.342"/>
    <line x1="-90.000" y1="89.211" x2="150.000" y2="89.211"/>
    <line x1="-90.000" y1="99.079" x2="150.000" y2="99.079"/>
    <line x1="-90.000" y1="108.947" x2="150.000" y2="108.947"/>
    <line x1="-90.000" y1="118.816" x2="150.000" y2="118.816"/>
    <line x1="-90.000" y1="128.684" x2="150.000" y2="128.684"/>
    <line x1="-90.000" y1="138.553" x2="150.000" y2="138.553"/>
    <line x1="-90.000" y1="148.421" x2="150.000" y2="148.421"/>
    <line x1="-90.000" y1="158.289" x2="150.000" y2="158.289"/>
    <line x1="-90.000" y1="168.158" x2="150.000" y2="168.158"/>
    <line x1="165.000" y1="-90.000" x2="165.000" y2="150.000" stroke-dasharray="9.868 9.868" stroke-dashoffset="-177.6"/>
    <line x1="157.500" y1="-90.000" x2="157.500" y2="150.000" stroke-dasharray="9.868 9.868" stroke-dashoffset="-167.8"/>
    <line x1="150.000" y1="-90.000" x2="150.000" y2="150.000" stroke-dasharray="9.868 9.868" stroke-dashoffset="-157.9"/>
    <line x1="142.500" y1="-90.000" x2="142.500" y2="150.000" stroke-dasharray="9.868 9.868" stroke-dashoffset="-148"/>
    <line x1="135.000" y1="-90.000" x2="135.000" y2="150.000" stroke-dasharray="9.868 9.868" stroke-dashoffset="-138.2"/>
    <line x1="127.500" y1="-90.000" x2="127.500" y2="150.000" stroke-dasharray="9.868 9.868" stroke-dashoffset="-128.3"/>
    <line x1="120.000" y1="-90.000" x2="120.000" y2="150.000" stroke-dasharray="9.868 9.868" stroke-dashoffset="-118.4"/>
    <line x1="112.500" y1="-90.000" x2="112.500" y2="150.000" stroke-dasharray="9.868 9.868" stroke-dashoffset="-108.6"/>
    <line x1="105.000" y1="-90.000" x2="105.000" y2="150.000" stroke-dasharray="9.868 9.868" stroke-dashoffset="-98.68"/>
    <line x1="97.500" y1="-90.000" x2="97.500" y2="150.000" stroke-dasharray="9.868 9.868" stroke-dashoffset="-88.82"/>
    <line x1="90.000" y1="-90.000" x2="90.000" y2="150.000" stroke-dasharray="9.868 9.868" stroke-dashoffset="-78.95"/>
    <line x1="82.500" y1="-90.000" x2="82.500" y2="150.000" stroke-dasharray="9.868 9.868" stroke-dashoffset="-69.08"/>
    <line x1="75.000" y1="-90.000" x2="75.000" y2="150.000" stroke-dasharray="9.868 9.868" stroke-dashoffset="-59.21"/>
    <line x1="67.500" y1="-90.000" x2="67.500" y2="150.000" stroke-dasharray="9.868 9.868" stroke-dashoffset="-49.34"/>
    <line x1="60.000" y1="-90.000" x2="60.000" y2="150.000" stroke-dasharray="9.868 9.868" stroke-dashoffset="-39.47"/>
    <line x1="52.500" y1="-90.000" x2="52.500" y2="150.000" stroke-dasharray="9.868 9.868" stroke-dashoffset="-29.61"/>
    <line x1="45.000" y1="-90.000" x2="45.000" y2="150.000" stroke-dasharray="9.868 9.868" stroke-dashoffset="-19.74"/>
    <line x1="37.500" y1="-90.000" x2="37.500" y2="150.000" stroke-dasharray="9.868 9.868" stroke-dashoffset="-9.868"/>
    <line x1="30.000" y1="-90.000" x2="30.000" y2="150.000" stroke-dasharray="9.868 9.868"/>
    <line x1="22.500" y1="-90.000" x2="22.500" y2="150.000" stroke-dasharray="9.868 9.868" stroke-dashoffset="9.868"/>
    <line x1="15.000" y1="-90.000" x2="15.000" y2="150.000" stroke-dasharray="9.868 9.868" stroke-dashoffset="19.74"/>
    <line x1="7.500" y1="-90.000" x2="7.500" y2="150.000" stroke-dasharray="9.868 9.868" stroke-dashoffset="29.61"/>
    <line x1="-0.000" y1="-90.000" x2="0.000" y2="150.000" stroke-dasharray="9.868 9.868" stroke-dashoffset="39.47"/>
    <line x1="-7.500" y1="-90.000" x2="-7.500" y2="150.000" stroke-dasharray="9.868 9.868" stroke-dashoffset="49.34"/>
    <line x1="-15.000" y1="-90.000" x2="-15.000" y2="150.000" stroke-dasharray="9.868 9.868" stroke-dashoffset="59.21"/>
    <line x1="-22.500" y1="-90.000" x2="-22.500" y2="150.000" stroke-dasharray="9.868 9.868" stroke-dashoffset="69.08"/>
    <line x1="-30.000" y1="-90.000" x2="-30.000" y2="150.000" stroke-dasharray="9.868 9.868" stroke-dashoffset="78.95"/>
    <line x1="-37.500" y1="-90.000" x2="-37.500" y2="150.000" stroke-dasharray="9.868 9.868" stroke-dashoffset="88.82"/>
    <line x1="-45.000" y1="-90.000" x2="-45.000" y2="150.000" stroke-dasharray="9.868 9.868" stroke-dashoffset="98.68"/>
    <line x1="-52.500" y1="-90.000" x2="-52.500" y2="150.000" stroke-dasharray="9.868 9.868" stroke-dashoffset="108.6"/>
    <line x1="-60.000" y1="-90.000" x2="-60.000" y2="150.000" stroke-dasharray="9.868 9.868" stroke-dashoffset="118.4"/>
    <line x1="-67.500" y1="-90.000" x2="-67.500" y2="150.000" stroke-dasharray="9.868 9.868" stroke-dashoffset="128.3"/>
    <line x1="-75.000" y1="-90.000" x2="-75.000" y2="150.000" stroke-dasharray="9.868 9.868" stroke-dashoffset="138.2"/>
    <line x1="-82.500" y1="-90.000" x2="-82.500" y2="150.000" stroke-dasharray="9.868 9.868" stroke-dashoffset="148"/>
    <line x1="-90.000" y1="-90.000" x2="-90.000" y2="150.000" stroke-dasharray="9.868 9.868" stroke-dashoffset="157.9"/>
    <line x1="-97.500" y1="-90.000" x2="-97.500" y2="150.000" stroke-dasharray="9.868 9.868" stroke-dashoffset="167.8"/>
    <line x1="-105.000" y1="-90.000" x2="-105.000" y2="150.000" stroke-dasharray="9.868 9.868" stroke-dashoffset="177.6"/>
  </g>
</svg>
