<svg xmlns="http://www.w3.org/2000/svg" width="40mm" height="40mm" viewBox="0 0 60 60">
  <defs><clipPath id="c"><rect x="0" y="0" width="60" height="60"/></clipPath></defs>
  <rect x="0" y="0" width="60" height="60" fill="#fff" stroke="#bbb" stroke-width="0.5"/>
  <g clip-path="url(#c)" stroke="#111" stroke-width="0.5" fill="none">
    <line x1="-60.686" y1="-129.388" x2="174.715" y2="-82.632" stroke-dasharray="4.232 36.41" stroke-dashoffset="-129.9"/>
    <line x1="-62.937" y1="-118.053" x2="172.464" y2="-71.297" stroke-dasharray="4.232 36.41" stroke-dashoffset="-119"/>
    <line x1="-65.189" y1="-106.719" x2="170.213" y2="-59.963" stroke-dasharray="4.232 36.41" stroke-dashoffset="-108.2"/>
    <line x1="-67.440" y1="-95.385" x2="167.962" y2="-48.629" stroke-dasharray="4.232 36.41" stroke-dashoffset="-97.4"/>
    <line x1="-69.691" y1="-84.051" x2="165.710" y2="-37.295" stroke-dasharray="4.232 36.41" stroke-dashoffset="-86.58"/>
    <line x1="-71.942" y1="-72.717" x2="163.459" y2="-25.961" stroke-dasharray="4.232 36.41" stroke-dashoffset="-75.75"/>
    <line x1="-74.194" y1="-61.383" x2="161.208" y2="-14.627" stroke-dasharray="4.232 36.41" stroke-dashoffset="-64.93"/>
    <line x1="-76.445" y1="-50.049" x2="158.957" y2="-3.293" stroke-dasharray="4.232 36.41" stroke-dashoffset="-54.11"/>
    <line x1="-78.696" y1="-38.714" x2="156.706" y2="8.041" stroke-dasharray="4.232 36.41" stroke-dashoffset="-43.29"/>
    <line x1="-80.947" y1="-27.380" x2="154.454" y2="19.376" stroke-dasharray="4.232 36.41" stroke-dashoffset="-32.47"/>
    <line x1="-83.198" y1="-16.046" x2="152.203" y2="30.710" stroke-dasharray="4.232 36.41" stroke-dashoffset="-21.64"/>
    <line x1="-85.450" y1="-4.712" x2="149.952" y2="42.044" stroke-dasharray="4.232 36.41" stroke-dashoffset="-10.82"/>
    <line x1="-87.701" y1="6.622" x2="147.701" y2="53.378" stroke-dasharray="4.232 36.41"/>
    <line x1="-89.952" y1="17.956" x2="145.450" y2="64.712" stroke-dasharray="4.232 36.41" stroke-dashoffset="10.82"/>
    <line x1="-92.203" y1="29.290" x2="143.198" y2="76.046" stroke-dasharray="4.232 36.41" stroke-dashoffset="21.64"/>
    <line x1="-94.454" y1="40.624" x2="140.947" y2="87.380" stroke-dasharray="4.232 36.41" stroke-dashoffset="32.47"/>
    <line x1="-96.706" y1="51.959" x2="138.696" y2="98.714" stroke-dasharray="4.232 36.41" stroke-dashoffset="43.29"/>
    <line x1="-98.957" y1="63.293" x2="136.445" y2="110.049" stroke-dasharray="4.232 36.41" stroke-dashoffset="54.11"/>
    <line x1="-101.208" y1="74.627" x2="134.194" y2="121.383" stroke-dasharray="4.232 36.41" stroke-dashoffset="64.93"/>
    <line x1="-103.459" y1="85.961" x2="131.942" y2="132.717" stroke-dasharray="4.232 36.41" stroke-dashoffset="75.75"/>
    <line x1="-105.710" y1="97.295" x2="129.691" y2="144.051" stroke-dasharray="4.232 36.41" stroke-dashoffset="86.58"/>
    <line x1="-107.962" y1="108.629" x2="127.440" y2="155.385" stroke-dasharray="4.232 36.41" stroke-dashoffset="97.4"/>
    <line x1="-110.213" y1="119.963" x2="125.189" y2="166.719" stroke-dasharray="4.232 36.41" stroke-dashoffset="108.2"/>
    <line x1="-112.464" y1="131.297" x2="122.937" y2="178.053" stroke-dasharray="4.232 36.41" stroke-dashoffset="119"/>
    <line x1="-114.715" y1="142.632" x2="120.686" y2="189.388" stroke-dasharray="4.232 36.41" stroke-dashoffset="129.9"/>
    <line x1="137.349" y1="-115.262" x2="186.846" y2="119.578" stroke-dasharray="5.323 31.29" stroke-dashoffset="-264.3"/>
    <line x1="130.010" y1="-113.716" x2="179.508" y2="121.125" stroke-dasharray="5.323 31.29" stroke-dashoffset="-249.6"/>
    <line x1="122.672" y1="-112.169" x2="172.169" y2="122.672" stroke-dasharray="5.323 31.29" stroke-dashoffset="-234.9"/>
    <line x1="115.333" y1="-110.622" x2="164.830" y2="124.218" stroke-dasharray="5.323 31.29" stroke-dashoffset="-220.2"/>
    <line x1="107.994" y1="-109.075" x2="157.491" y2="125.765" stroke-dasharray="5.323 31.29" stroke-dashoffset="-205.6"/>
    <line x1="100.655" y1="-107.528" x2="150.153" y2="127.312" stroke-dasharray="5.323 31.29" stroke-dashoffset="-190.9"/>
    <line x1="93.317" y1="-105.982" x2="142.814" y2="128.859" stroke-dasharray="5.323 31.29" stroke-dashoffset="-176.2"/>
    <line x1="85.978" y1="-104.435" x2="135.475" y2="130.406" stroke-dasharray="5.323 31.29" stroke-dashoffset="-161.5"/>
    <line x1="78.639" y1="-102.888" x2="128.136" y2="131.952" stroke-dasharray="5.323 31.29" stroke-dashoffset="-146.8"/>
    <line x1="71.300" y1="-101.341" x2="120.797" y2="133.499" stroke-dasharray="5.323 31.29" stroke-dashoffset="-132.1"/>
    <line x1="63.962" y1="-99.795" x2="113.459" y2="135.046" stroke-dasharray="5.323 31.29" stroke-dashoffset="-117.5"/>
    <line x1="56.623" y1="-98.248" x2="106.120" y2="136.593" stroke-dasharray="5.323 31.29" stroke-dashoffset="-102.8"/>
    <line x1="49.284" y1="-96.701" x2="98.781" y2="138.139" stroke-dasharray="5.323 31.29" stroke-dashoffset="-88.1"/>
    <line x1="41.945" y1="-95.154" x2="91.442" y2="139.686" stroke-dasharray="5.323 31.29" stroke-dashoffset="-73.42"/>
    <line x1="34.606" y1="-93.607" x2="84.104" y2="141.233" stroke-dasharray="5.323 31.29" stroke-dashoffset="-58.73"/>
    <line x1="27.268" y1="-92.061" x2="76.765" y2="142.780" stroke-dasharray="5.323 31.29" stroke-dashoffset="-44.05"/>
    <line x1="19.929" y1="-90.514" x2="69.426" y2="144.327" stroke-dasharray="5.323 31.29" stroke-dashoffset="-29.37"/>
    <line x1="12.590" y1="-88.967" x2="62.087" y2="145.873" stroke-dasharray="5.323 31.29" stroke-dashoffset="-14.68"/>
    <line x1="5.251" y1="-87.420" x2="54.749" y2="147.420" stroke-dasharray="5.323 31.29"/>
    <line x1="-2.087" y1="-85.873" x2="47.410" y2="148.967" stroke-dasharray="5.323 31.29" stroke-dashoffset="14.68"/>
    <line x1="-9.426" y1="-84.327" x2="40.071" y2="150.514" stroke-dasharray="5.323 31.29" stroke-dashoffset="29.37"/>
    <line x1="-16.765" y1="-82.780" x2="32.732" y2="152.061" stroke-dasharray="5.323 31.29" stroke-dashoffset="44.05"/>
    <line x1="-24.104" y1="-81.233" x2="25.394" y2="153.607" stroke-dasharray="5.323 31.29" stroke-dashoffset="58.73"/>
    <line x1="-31.442" y1="-79.686" x2="18.055" y2="155.154" stroke-dasharray="5.323 31.29" stroke-dashoffset="73.42"/>
    <line x1="-38.781" y1="-78.139" x2="10.716" y2="156.701" stroke-dasharray="5.323 31.29" stroke-dashoffset="88.1"/>
    <line x1="-46.120" y1="-76.593" x2="3.377" y2="158.248" stroke-dasharray="5.323 31.29" stroke-dashoffset="102.8"/>
    <line x1="-53.459" y1="-75.046" x2="-3.962" y2="159.795" stroke-dasharray="5.323 31.29" stroke-dashoffset="117.5"/>
    <line x1="-60.797" y1="-73.499" x2="-11.300" y2="161.341" stroke-dasharray="5.323 31.29" stroke-dashoffset="132.1"/>
    <line x1="-68.136" y1="-71.952" x2="-18.639" y2="162.888" stroke-dasharray="5.323 31.29" stroke-dashoffset="146.8"/>
    <line x1="-75.475" y1="-70.406" x2="-25.978" y2="164.435" stroke-dasharray="5.323 31.29" stroke-dashoffset="161.5"/>
    <line x1="-82.814" y1="-68.859" x2="-33.317" y2="165.982" stroke-dasharray="5.323 31.29" stroke-dashoffset="176.2"/>
    <line x1="-90.153" y1="-67.312" x2="-40.655" y2="167.528" stroke-dasharray="5.323 31.29" stroke-dashoffset="190.9"/>
    <line x1="-97.491" y1="-65.765" x2="-47.994" y2="169.075" stroke-dasharray="5.323 31.29" stroke-dashoffset="205.6"/>
    <line x1="-104.830" y1="-64.218" x2="-55.333" y2="170.622" stroke-dasharray="5.323 31.29" stroke-dashoffset="220.2"/>
    <line x1="-112.169" y1="-62.672" x2="-62.672" y2="172.169" stroke-dasharray="5.323 31.29" stroke-dashoffset="234.9"/>
    <line x1="-119.508" y1="-61.125" x2="-70.010" y2="173.716" stroke-dasharray="5.323 31.29" stroke-dashoffset="249.6"/>
    <line x1="-126.846" y1="-59.578" x2="-77.349" y2="175.262" stroke-dasharray="5.323 31.29" stroke-dashoffset="264.3"/>
    <line x1="208.836" y1="-33.063" x2="127.405" y2="192.700" stroke-dasharray="5.48 33.84" stroke-dashoffset="-75"/>
    <line x1="195.024" y1="-38.045" x2="113.593" y2="187.719" stroke-dasharray="5.48 33.84" stroke-dashoffset="-67.5"/>
    <line x1="181.212" y1="-43.026" x2="99.781" y2="182.737" stroke-dasharray="5.48 33.84" stroke-dashoffset="-60"/>
    <line x1="167.400" y1="-48.008" x2="85.969" y2="177.755" stroke-dasharray="5.48 33.84" stroke-dashoffset="-52.5"/>
    <line x1="153.588" y1="-52.990" x2="72.156" y2="172.773" stroke-dasharray="5.48 33.84" stroke-dashoffset="-45"/>
    <line x1="139.776" y1="-57.972" x2="58.344" y2="167.791" stroke-dasharray="5.48 33.84" stroke-dashoffset="-37.5"/>
    <line x1="125.964" y1="-62.954" x2="44.532" y2="162.809" stroke-dasharray="5.48 33.84" stroke-dashoffset="-30"/>
    <line x1="112.152" y1="-67.936" x2="30.720" y2="157.827" stroke-dasharray="5.48 33.84" stroke-dashoffset="-22.5"/>
    <line x1="98.340" y1="-72.918" x2="16.908" y2="152.845" stroke-dasharray="5.48 33.84" stroke-dashoffset="-15"/>
    <line x1="84.528" y1="-77.900" x2="3.096" y2="147.863" stroke-dasharray="5.48 33.84" stroke-dashoffset="-7.5"/>
    <line x1="70.716" y1="-82.882" x2="-10.716" y2="142.882" stroke-dasharray="5.48 33.84"/>
    <line x1="56.904" y1="-87.863" x2="-24.528" y2="137.900" stroke-dasharray="5.48 33.84" stroke-dashoffset="7.5"/>
    <line x1="43.092" y1="-92.845" x2="-38.340" y2="132.918" stroke-dasharray="5.48 33.84" stroke-dashoffset="15"/>
    <line x1="29.280" y1="-97.827" x2="-52.152" y2="127.936" stroke-dasharray="5.48 33.84" stroke-dashoffset="22.5"/>
    <line x1="15.468" y1="-102.809" x2="-65.964" y2="122.954" stroke-dasharray="5.48 33.84" stroke-dashoffset="30"/>
    <line x1="1.656" y1="-107.791" x2="-79.776" y2="117.972" stroke-dasharray="5.48 33.84" stroke-dashoffset="37.5"/>
    <line x1="-12.156" y1="-112.773" x2="-93.588" y2="112.990" stroke-dasharray="5.48 33.84" stroke-dashoffset="45"/>
    <line x1="-25.969" y1="-117.755" x2="-107.400" y2="108.008" stroke-dasharray="5.48 33.84" stroke-dashoffset="52.5"/>
    <line x1="-39.781" y1="-122.737" x2="-121.212" y2="103.026" stroke-dasharray="5.48 33.84" stroke-dashoffset="60"/>
    <line x1="-53.593" y1="-127.719" x2="-135.024" y2="98.045" stroke-dasharray="5.48 33.84" stroke-dashoffset="67.5"/>
    <line x1="-67.405" y1="-132.700" x2="-148.836" y2="93.063" stroke-dasharray="5.48 33.84" stroke-dashoffset="75"/>
    <line x1="192.545" y1="118.155" x2="-31.418" y2="204.413" stroke-dasharray="4.695 37.53" stroke-dashoffset="-150.2"/>
    <line x1="188.656" y1="108.056" x2="-35.308" y2="194.315" stroke-dasharray="4.695 37.53" stroke-dashoffset="-138.7"/>
    <line x1="184.766" y1="97.957" x2="-39.197" y2="184.216" stroke-dasharray="4.695 37.53" stroke-dashoffset="-127.1"/>
    <line x1="180.877" y1="87.858" x2="-43.087" y2="174.117" stroke-dasharray="4.695 37.53" stroke-dashoffset="-115.6"/>
    <line x1="176.987" y1="77.760" x2="-46.976" y2="164.018" stroke-dasharray="4.695 37.53" stroke-dashoffset="-104"/>
    <line x1="173.098" y1="67.661" x2="-50.866" y2="153.919" stroke-dasharray="4.695 37.53" stroke-dashoffset="-92.44"/>
    <line x1="169.208" y1="57.562" x2="-54.755" y2="143.821" stroke-dasharray="4.695 37.53" stroke-dashoffset="-80.89"/>
    <line x1="165.319" y1="47.463" x2="-58.645" y2="133.722" stroke-dasharray="4.695 37.53" stroke-dashoffset="-69.33"/>
    <line x1="161.429" y1="37.365" x2="-62.534" y2="123.623" stroke-dasharray="4.695 37.53" stroke-dashoffset="-57.78"/>
    <line x1="157.540" y1="27.266" x2="-66.424" y2="113.524" stroke-dasharray="4.695 37.53" stroke-dashoffset="-46.22"/>
    <line x1="153.650" y1="17.167" x2="-70.313" y2="103.426" stroke-dasharray="4.695 37.53" stroke-dashoffset="-34.67"/>
    <line x1="149.761" y1="7.068" x2="-74.203" y2="93.327" stroke-dasharray="4.695 37.53" stroke-dashoffset="-23.11"/>
    <line x1="145.871" y1="-3.030" x2="-78.092" y2="83.228" stroke-dasharray="4.695 37.53" stroke-dashoffset="-11.56"/>
    <line x1="141.982" y1="-13.129" x2="-81.982" y2="73.129" stroke-dasharray="4.695 37.53"/>
    <line x1="138.092" y1="-23.228" x2="-85.871" y2="63.030" stroke-dasharray="4.695 37.53" stroke-dashoffset="11.56"/>
    <line x1="134.203" y1="-33.327" x2="-89.761" y2="52.932" stroke-dasharray="4.695 37.53" stroke-dashoffset="23.11"/>
    <line x1="130.313" y1="-43.426" x2="-93.650" y2="42.833" stroke-dasharray="4.695 37.53" stroke-dashoffset="34.67"/>
    <line x1="126.424" y1="-53.524" x2="-97.540" y2="32.734" stroke-dasharray="4.695 37.53" stroke-dashoffset="46.22"/>
    <line x1="122.534" y1="-63.623" x2="-101.429" y2="22.635" stroke-dasharray="4.695 37.53" stroke-dashoffset="57.78"/>
    <line x1="118.645" y1="-73.722" x2="-105.319" y2="12.537" stroke-dasharray="4.695 37.53" stroke-dashoffset="69.33"/>
    <line x1="114.755" y1="-83.821" x2="-109.208" y2="2.438" stroke-dasharray="4.695 37.53" stroke-dashoffset="80.89"/>
    <line x1="110.866" y1="-93.919" x2="-113.098" y2="-7.661" stroke-dasharray="4.695 37.53" stroke-dashoffset="92.44"/>
    <line x1="106.976" y1="-104.018" x2="-116.987" y2="-17.760" stroke-dasharray="4.695 37.53" stroke-dashoffset="104"/>
    <line x1="103.087" y1="-114.117" x2="-120.877" y2="-27.858" stroke-dasharray="4.695 37.53" stroke-dashoffset="115.6"/>
    <line x1="99.197" y1="-124.216" x2="-124.766" y2="-37.957" stroke-dasharray="4.695 37.53" stroke-dashoffset="127.1"/>
    <line x1="95.308" y1="-134.315" x2="-128.656" y2="-48.056" stroke-dasharray="4.695 37.53" stroke-dashoffset="138.7"/>
    <line x1="91.418" y1="-144.413" x2="-132.545" y2="-58.155" stroke-dasharray="4.695 37.53" stroke-dashoffset="150.2"/>
    <line x1="-60.686" y1="-129.388" x2="174.715" y2="-82.632" stroke-dasharray="4.232 36.41" stroke-dashoffset="-129.9"/>
    <line x1="-62.937" y1="-118.053" x2="172.464" y2="-71.297" stroke-dasharray="4.232 36.41" stroke-dashoffset="-119"/>
    <line x1="-65.189" y1="-106.719" x2="170.213" y2="-59.963" stroke-dasharray="4.232 36.41" stroke-dashoffset="-108.2"/>
    <line x1="-67.440" y1="-95.385" x2="167.962" y2="-48.629" stroke-dasharray="4.232 36.41" stroke-dashoffset="-97.4"/>
    <line x1="-69.691" y1="-84.051" x2="165.710" y2="-37.295" stroke-dasharray="4.232 36.41" stroke-dashoffset="-86.58"/>
    <line x1="-71.942" y1="-72.717" x2="163.459" y2="-25.961" stroke-dasharray="4.232 36.41" stroke-dashoffset="-75.75"/>
    <line x1="-74.194" y1="-61.383" x2="161.208" y2="-14.627" stroke-dasharray="4.232 36.41" stroke-dashoffset="-64.93"/>
    <line x1="-76.445" y1="-50.049" x2="158.957" y2="-3.293" stroke-dasharray="4.232 36.41" stroke-dashoffset="-54.11"/>
    <line x1="-78.696" y1="-38.714" x2="156.706" y2="8.041" stroke-dasharray="4.232 36.41" stroke-dashoffset="-43.29"/>
    <line x1="-80.947" y1="-27.380" x2="154.454" y2="19.376" stroke-dasharray="4.232 36.41" stroke-dashoffset="-32.47"/>
    <line x1="-83.198" y1="-16.046" x2="152.203" y2="30.710" stroke-dasharray="4.232 36.41" stroke-dashoffset="-21.64"/>
    <line x1="-85.450" y1="-4.712" x2="149.952" y2="42.044" stroke-dasharray="4.232 36.41" stroke-dashoffset="-10.82"/>
    <line x1="-87.701" y1="6.622" x2="147.701" y2="53.378" stroke-dasharray="4.232 36.41"/>
    <line x1="-89.952" y1="17.956" x2="145.450" y2="64.712" stroke-dasharray="4.232 36.41" stroke-dashoffset="10.82"/>
    <line x1="-92.203" y1="29.290" x2="143.198" y2="76.046" stroke-dasharray="4.232 36.41" stroke-dashoffset="21.64"/>
    <line x1="-94.454" y1="40.624" x2="140.947" y2="87.380" stroke-dasharray="4.232 36.41" stroke-dashoffset="32.47"/>
    <line x1="-96.706" y1="51.959" x2="138.696" y2="98.714" stroke-dasharray="4.232 36.41" stroke-dashoffset="43.29"/>
    <line x1="-98.957" y1="63.293" x2="136.445" y2="110.049" stroke-dasharray="4.232 36.41" stroke-dashoffset="54.11"/>
    <line x1="-101.208" y1="74.627" x2="134.194" y2="121.383" stroke-dasharray="4.232 36.41" stroke-dashoffset="64.93"/>
    <line x1="-103.459" y1="85.961" x2="131.942" y2="132.717" stroke-dasharray="4.232 36.41" stroke-dashoffset="75.75"/>
    <line x1="-105.710" y1="97.295" x2="129.691" y2="144.051" stroke-dasharray="4.232 36.41" stroke-dashoffset="86.58"/>
    <line x1="-107.962" y1="108.629" x2="127.440" y2="155.385" stroke-dasharray="4.232 36.41" stroke-dashoffset="97.4"/>
    <line x1="-110.213" y1="119.963" x2="125.189" y2="166.719" stroke-dasharray="4.232 36.41" stroke-dashoffset="108.2"/>
    <line x1="-112.464" y1="131.297" x2="122.937" y2="178.053" stroke-dasharray="4.232 36.41" stroke-dashoffset="119"/>
    <line x1="-114.715" y1="142.632" x2="120.686" y2="189.388" stroke-dasharray="4.232 36.41" stroke-dashoffset="129.9"/>
    <line x1="137.349" y1="-115.262" x2="186.846" y2="119.578" stroke-dasharray="5.323 31.29" stroke-dashoffset="-264.3"/>
    <line x1="130.010" y1="-113.716" x2="179.508" y2="121.125" stroke-dasharray="5.323 31.29" stroke-dashoffset="-249.6"/>
    <line x1="122.672" y1="-112.169" x2="172.169" y2="122.672" stroke-dasharray="5.323 31.29" stroke-dashoffset="-234.9"/>
    <line x1="115.333" y1="-110.622" x2="164.830" y2="124.218" stroke-dasharray="5.323 31.29" stroke-dashoffset="-220.2"/>
    <line x1="107.994" y1="-109.075" x2="157.491" y2="125.765" stroke-dasharray="5.323 31.29" stroke-dashoffset="-205.6"/>
    <line x1="100.655" y1="-107.528" x2="150.153" y2="127.312" stroke-dasharray="5.323 31.29" stroke-dashoffset="-190.9"/>
    <line x1="93.317" y1="-105.982" x2="142.814" y2="128.859" stroke-dasharray="5.323 31.29" stroke-dashoffset="-176.2"/>
    <line x1="85.978" y1="-104.435" x2="135.475" y2="130.406" stroke-dasharray="5.323 31.29" stroke-dashoffset="-161.5"/>
    <line x1="78.639" y1="-102.888" x2="128.136" y2="131.952" stroke-dasharray="5.323 31.29" stroke-dashoffset="-146.8"/>
    <line x1="71.300" y1="-101.341" x2="120.797" y2="133.499" stroke-dasharray="5.323 31.29" stroke-dashoffset="-132.1"/>
    <line x1="63.962" y1="-99.795" x2="113.459" y2="135.046" stroke-dasharray="5.323 31.29" stroke-dashoffset="-117.5"/>
    <line x1="56.623" y1="-98.248" x2="106.120" y2="136.593" stroke-dasharray="5.323 31.29" stroke-dashoffset="-102.8"/>
    <line x1="49.284" y1="-96.701" x2="98.781" y2="138.139" stroke-dasharray="5.323 31.29" stroke-dashoffset="-88.1"/>
    <line x1="41.945" y1="-95.154" x2="91.442" y2="139.686" stroke-dasharray="5.323 31.29" stroke-dashoffset="-73.42"/>
    <line x1="34.606" y1="-93.607" x2="84.104" y2="141.233" stroke-dasharray="5.323 31.29" stroke-dashoffset="-58.73"/>
    <line x1="27.268" y1="-92.061" x2="76.765" y2="142.780" stroke-dasharray="5.323 31.29" stroke-dashoffset="-44.05"/>
    <line x1="19.929" y1="-90.514" x2="69.426" y2="144.327" stroke-dasharray="5.323 31.29" stroke-dashoffset="-29.37"/>
    <line x1="12.590" y1="-88.967" x2="62.087" y2="145.873" stroke-dasharray="5.323 31.29" stroke-dashoffset="-14.68"/>
    <line x1="5.251" y1="-87.420" x2="54.749" y2="147.420" stroke-dasharray="5.323 31.29"/>
    <line x1="-2.087" y1="-85.873" x2="47.410" y2="148.967" stroke-dasharray="5.323 31.29" stroke-dashoffset="14.68"/>
    <line x1="-9.426" y1="-84.327" x2="40.071" y2="150.514" stroke-dasharray="5.323 31.29" stroke-dashoffset="29.37"/>
    <line x1="-16.765" y1="-82.780" x2="32.732" y2="152.061" stroke-dasharray="5.323 31.29" stroke-dashoffset="44.05"/>
    <line x1="-24.104" y1="-81.233" x2="25.394" y2="153.607" stroke-dasharray="5.323 31.29" stroke-dashoffset="58.73"/>
    <line x1="-31.442" y1="-79.686" x2="18.055" y2="155.154" stroke-dasharray="5.323 31.29" stroke-dashoffset="73.42"/>
    <line x1="-38.781" y1="-78.139" x2="10.716" y2="156.701" stroke-dasharray="5.323 31.29" stroke-dashoffset="88.1"/>
    <line x1="-46.120" y1="-76.593" x2="3.377" y2="158.248" stroke-dasharray="5.323 31.29" stroke-dashoffset="102.8"/>
    <line x1="-53.459" y1="-75.046" x2="-3.962" y2="159.795" stroke-dasharray="5.323 31.29" stroke-dashoffset="117.5"/>
    <line x1="-60.797" y1="-73.499" x2="-11.300" y2="161.341" stroke-dasharray="5.323 31.29" stroke-dashoffset="132.1"/>
    <line x1="-68.136" y1="-71.952" x2="-18.639" y2="162.888" stroke-dasharray="5.323 31.29" stroke-dashoffset="146.8"/>
    <line x1="-75.475" y1="-70.406" x2="-25.978" y2="164.435" stroke-dasharray="5.323 31.29" stroke-dashoffset="161.5"/>
    <line x1="-82.814" y1="-68.859" x2="-33.317" y2="165.982" stroke-dasharray="5.323 31.29" stroke-dashoffset="176.2"/>
    <line x1="-90.153" y1="-67.312" x2="-40.655" y2="167.528" stroke-dasharray="5.323 31.29" stroke-dashoffset="190.9"/>
    <line x1="-97.491" y1="-65.765" x2="-47.994" y2="169.075" stroke-dasharray="5.323 31.29" stroke-dashoffset="205.6"/>
    <line x1="-104.830" y1="-64.218" x2="-55.333" y2="170.622" stroke-dasharray="5.323 31.29" stroke-dashoffset="220.2"/>
    <line x1="-112.169" y1="-62.672" x2="-62.672" y2="172.169" stroke-dasharray="5.323 31.29" stroke-dashoffset="234.9"/>
    <line x1="-119.508" y1="-61.125" x2="-70.010" y2="173.716" stroke-dasharray="5.323 31.29" stroke-dashoffset="249.6"/>
    <line x1="-126.846" y1="-59.578" x2="-77.349" y2="175.262" stroke-dasharray="5.323 31.29" stroke-dashoffset="264.3"/>
    <line x1="208.836" y1="-33.063" x2="127.405" y2="192.700" stroke-dasharray="5.48 33.84" stroke-dashoffset="-75"/>
    <line x1="195.024" y1="-38.045" x2="113.593" y2="187.719" stroke-dasharray="5.48 33.84" stroke-dashoffset="-67.5"/>
    <line x1="181.212" y1="-43.026" x2="99.781" y2="182.737" stroke-dasharray="5.48 33.84" stroke-dashoffset="-60"/>
    <line x1="167.400" y1="-48.008" x2="85.969" y2="177.755" stroke-dasharray="5.48 33.84" stroke-dashoffset="-52.5"/>
    <line x1="153.588" y1="-52.990" x2="72.156" y2="172.773" stroke-dasharray="5.48 33.84" stroke-dashoffset="-45"/>
    <line x1="139.776" y1="-57.972" x2="58.344" y2="167.791" stroke-dasharray="5.48 33.84" stroke-dashoffset="-37.5"/>
    <line x1="125.964" y1="-62.954" x2="44.532" y2="162.809" stroke-dasharray="5.48 33.84" stroke-dashoffset="-30"/>
    <line x1="112.152" y1="-67.936" x2="30.720" y2="157.827" stroke-dasharray="5.48 33.84" stroke-dashoffset="-22.5"/>
    <line x1="98.340" y1="-72.918" x2="16.908" y2="152.845" stroke-dasharray="5.48 33.84" stroke-dashoffset="-15"/>
    <line x1="84.528" y1="-77.900" x2="3.096" y2="147.863" stroke-dasharray="5.48 33.84" stroke-dashoffset="-7.5"/>
    <line x1="70.716" y1="-82.882" x2="-10.716" y2="142.882" stroke-dasharray="5.48 33.84"/>
    <line x1="56.904" y1="-87.863" x2="-24.528" y2="137.900" stroke-dasharray="5.48 33.84" stroke-dashoffset="7.5"/>
    <line x1="43.092" y1="-92.845" x2="-38.340" y2="132.918" stroke-dasharray="5.48 33.84" stroke-dashoffset="15"/>
    <line x1="29.280" y1="-97.827" x2="-52.152" y2="127.936" stroke-dasharray="5.48 33.84" stroke-dashoffset="22.5"/>
    <line x1="15.468" y1="-102.809" x2="-65.964" y2="122.954" stroke-dasharray="5.48 33.84" stroke-dashoffset="30"/>
    <line x1="1.656" y1="-107.791" x2="-79.776" y2="117.972" stroke-dasharray="5.48 33.84" stroke-dashoffset="37.5"/>
    <line x1="-12.156" y1="-112.773" x2="-93.588" y2="112.990" stroke-dasharray="5.48 33.84" stroke-dashoffset="45"/>
    <line x1="-25.969" y1="-117.755" x2="-107.400" y2="108.008" stroke-dasharray="5.48 33.84" stroke-dashoffset="52.5"/>
    <line x1="-39.781" y1="-122.737" x2="-121.212" y2="103.026" stroke-dasharray="5.48 33.84" stroke-dashoffset="60"/>
    <line x1="-53.593" y1="-127.719" x2="-135.024" y2="98.045" stroke-dasharray="5.48 33.84" stroke-dashoffset="67.5"/>
    <line x1="-67.405" y1="-132.700" x2="-148.836" y2="93.063" stroke-dasharray="5.48 33.84" stroke-dashoffset="75"/>
    <line x1="192.545" y1="118.155" x2="-31.418" y2="204.413" stroke-dasharray="4.695 37.53" stroke-dashoffset="-150.2"/>
    <line x1="188.656" y1="108.056" x2="-35.308" y2="194.315" stroke-dasharray="4.695 37.53" stroke-dashoffset="-138.7"/>
    <line x1="184.766" y1="97.957" x2="-39.197" y2="184.216" stroke-dasharray="4.695 37.53" stroke-dashoffset="-127.1"/>
    <line x1="180.877" y1="87.858" x2="-43.087" y2="174.117" stroke-dasharray="4.695 37.53" stroke-dashoffset="-115.6"/>
    <line x1="176.987" y1="77.760" x2="-46.976" y2="164.018" stroke-dasharray="4.695 37.53" stroke-dashoffset="-104"/>
    <line x1="173.098" y1="67.661" x2="-50.866" y2="153.919" stroke-dasharray="4.695 37.53" stroke-dashoffset="-92.44"/>
    <line x1="169.208" y1="57.562" x2="-54.755" y2="143.821" stroke-dasharray="4.695 37.53" stroke-dashoffset="-80.89"/>
    <line x1="165.319" y1="47.463" x2="-58.645" y2="133.722" stroke-dasharray="4.695 37.53" stroke-dashoffset="-69.33"/>
    <line x1="161.429" y1="37.365" x2="-62.534" y2="123.623" stroke-dasharray="4.695 37.53" stroke-dashoffset="-57.78"/>
    <line x1="157.540" y1="27.266" x2="-66.424" y2="113.524" stroke-dasharray="4.695 37.53" stroke-dashoffset="-46.22"/>
    <line x1="153.650" y1="17.167" x2="-70.313" y2="103.426" stroke-dasharray="4.695 37.53" stroke-dashoffset="-34.67"/>
    <line x1="149.761" y1="7.068" x2="-74.203" y2="93.327" stroke-dasharray="4.695 37.53" stroke-dashoffset="-23.11"/>
    <line x1="145.871" y1="-3.030" x2="-78.092" y2="83.228" stroke-dasharray="4.695 37.53" stroke-dashoffset="-11.56"/>
    <line x1="141.982" y1="-13.129" x2="-81.982" y2="73.129" stroke-dasharray="4.695 37.53"/>
    <line x1="138.092" y1="-23.228" x2="-85.871" y2="63.030" stroke-dasharray="4.695 37.53" stroke-dashoffset="11.56"/>
    <line x1="134.203" y1="-33.327" x2="-89.761" y2="52.932" stroke-dasharray="4.695 37.53" stroke-dashoffset="23.11"/>
    <line x1="130.313" y1="-43.426" x2="-93.650" y2="42.833" stroke-dasharray="4.695 37.53" stroke-dashoffset="34.67"/>
    <line x1="126.424" y1="-53.524" x2="-97.540" y2="32.734" stroke-dasharray="4.695 37.53" stroke-dashoffset="46.22"/>
    <line x1="122.534" y1="-63.623" x2="-101.429" y2="22.635" stroke-dasharray="4.695 37.53" stroke-dashoffset="57.78"/>
    <line x1="118.645" y1="-73.722" x2="-105.319" y2="12.537" stroke-dasharray="4.695 37.53" stroke-dashoffset="69.33"/>
    <line x1="114.755" y1="-83.821" x2="-109.208" y2="2.438" stroke-dasharray="4.695 37.53" stroke-dashoffset="80.89"/>
    <line x1="110.866" y1="-93.919" x2="-113.098" y2="-7.661" stroke-dasharray="4.695 37.53" stroke-dashoffset="92.44"/>
    <line x1="106.976" y1="-104.018" x2="-116.987" y2="-17.760" stroke-dasharray="4.695 37.53" stroke-dashoffset="104"/>
    <line x1="103.087" y1="-114.117" x2="-120.877" y2="-27.858" stroke-dasharray="4.695 37.53" stroke-dashoffset="115.6"/>
    <line x1="99.197" y1="-124.216" x2="-124.766" y2="-37.957" stroke-dasharray="4.695 37.53" stroke-dashoffset="127.1"/>
    <line x1="95.308" y1="-134.315" x2="-128.656" y2="-48.056" stroke-dasharray="4.695 37.53" stroke-dashoffset="138.7"/>
    <line x1="91.418" y1="-144.413" x2="-132.545" y2="-58.155" stroke-dasharray="4.695 37.53" stroke-dashoffset="150.2"/>
  </g>
</svg>
