<?xml version="1.0" encoding="UTF-8" standalone="no"?>
<!DOCTYPE svg PUBLIC "-//W3C//DTD SVG 1.1//EN" "http://www.w3.org/Graphics/SVG/1.1/DTD/svg11-flat.dtd"
[

]>
<svg xmlns="http://www.w3.org/2000/svg"  viewBox="-0.0891147 -0.0891147 7.30741 7.30741"><g fill="none" stroke="black" stroke-width="0.0125" transform="translate(0,7.12918) scale(1, -1)">
<g id="Output" >
<path fill="rgb(241,240,234)" stroke="rgb(241,240,234)" d="M 3.59443,2.22235 l -0.0472399,0.0101479 -0.0531175,0.0162334 -0.0515476,0.0206842 -0.0496056,0.0249857 -0.0502944,-0.00754083 -0.0109655,-0.00267135 -0.0111492,-0.00175335 -0.0112562,-0.000823275 -0.0112857,0.000112461 -0.0112375,0.00104742 -0.0111121,0.00197518 -0.0109101,0.00288934 -0.0106331,0.00378362 -0.010283,0.00465187 -0.00986203,0.00548811 -0.185506,0.113556 -0.0880139,0.0075306 0.110647,-0.269055 0.0528063,0.00755106 0.0261994,-0.0611417 0.444367,0 0,0.12235 z M 3.36132,3.1 l 0.0592567,-0.202087 0.0180223,-0.0440918 0.0215273,-0.0424908 0.0248913,-0.0406118 0.0280925,-0.0384669 0.0311099,-0.0360703 0.0339237,-0.0334377 0.00966338,-0.00802308 0.00662374,-0.00456379 0,0.449844 -0.233111,0 z M 3.04627,2.1 l -0.0229976,0.00832521 -0.191109,0.382219 0.0553233,0.0351974 0.148361,0 0.00849044,-0.000348803 0.00848864,0.000390215 0.00842264,0.00112628 0.00829293,0.00185383 0.00810049,0.00256736 0.00784679,0.00326146 0.00753374,0.00393091 0.00716371,0.00457061 0.0067395,0.00517576 0.00626431,0.00574175 0.00574175,0.00626431 0.00517576,0.0067395 0.00457061,0.00716371 0.00393091,0.00753374 0.00326146,0.00784679 0.00256736,0.00810049 0.00185383,0.00829293 0.00112628,0.00842264 0.000390215,0.00848864 -0.000348803,0.00849044 -0.0251497,0.296722 -0.00188784,0.0109324 -0.00285563,0.0107204 -0.00380066,0.0104229 -0.00471537,0.0100422 -0.00559248,0.0095815 -0.00642498,0.00904436 -0.00720625,0.0084351 -0.00793005,0.00775856 -0.0085906,0.00702015 -0.00918264,0.00622575 -0.00970145,0.0053817 -0.0490267,0.0224772 -0.0503611,0.0193029 -0.0514902,0.0160499 -0.00741198,0.0185289 -0.295705,0 0,-1 0.451843,0 z "/>
<path fill="rgb(241,240,234)" stroke="rgb(241,240,234)" d="M 3.04627,2.1 l -0.451843,0 0,-1 0.970163,0 0.0298374,0 0,1 -0.444367,0 0.0190559,-0.0444709 -0.122846,0.0444709 z "/>
<path fill="rgb(241,240,234)" stroke="rgb(241,240,234)" d="M 2.09443,2.1 l 0.5,0 0,1 -0.5,-1 z "/>
<path fill="rgb(241,240,234)" stroke="rgb(241,240,234)" d="M 2.59443,1.1 l 0,1 -0.5,0 -0.5,-1 1,-4.44089e-16 z "/>
<path fill="rgb(241,240,234)" stroke="rgb(241,240,234)" d="M 3.59443,4.1 l 0.440325,0 -0.440325,0.88065 0,-0.88065 z "/>
<path fill="rgb(241,240,234)" stroke="rgb(241,240,234)" d="M 4.59443,2.1 l 0.440325,0 -0.440325,0.88065 0,-0.88065 z "/>
<path fill="rgb(241,240,234)" stroke="rgb(241,240,234)" d="M 3.09443,4.1 l 0.5,0 0,0.88065 -0.0298374,0.0596748 -0.470163,-0.940325 z "/>
<path fill="rgb(241,240,234)" stroke="rgb(241,240,234)" d="M 4.49277,2.1 l 0.0152731,-0.0191548 0.0218629,-0.0230064 0.0237749,-0.0210246 0.0255079,-0.0188845 0.0152396,-0.00935384 0,0.0914241 -0.101658,0 z M 4.59443,1.1 l 0,0.732998 -0.000936903,0.00205368 -0.00424449,0.00745573 -0.00489411,0.00704636 -0.00550453,0.00658056 -0.00607086,0.00606203 -0.00658856,0.00549495 -0.00705348,0.00488386 -0.0074619,0.00423364 -0.00781054,0.00354951 -0.00809663,0.00283694 -0.00831785,0.00210165 -0.00847245,0.00134953 -0.00855918,0.000586596 -0.00857734,-0.000181037 -0.0392174,-0.000887148 -0.0391474,0.00250433 -0.0387847,0.00587709 -0.0381319,0.0092059 -0.037194,0.0124659 -0.035978,0.0156326 -0.0344929,0.0186825 -0.0327499,0.0215926 -0.0307619,0.0243413 -0.028544,0.0269079 -0.0261125,0.0292733 -0.0234859,0.0314199 -0.00988618,0.0159315 -0.492924,0 0,-1 1,0 z "/>
<path fill="rgb(241,240,234)" stroke="rgb(241,240,234)" d="M 4.08735,2.1 l -0.0107974,0.0173999 -0.0177266,0.0349937 -0.014637,0.0363944 -0.332107,0.0227209 -0.0554947,0.00231014 -0.0550982,0.00701305 -0.00706402,0.00151746 0,-0.12235 0.492924,0 z M 4.53475,3.1 l -0.940325,0 0,-0.449844 0.00371886,-0.00256231 0.0109388,-0.00617194 0.0114473,-0.00516825 0.0118638,-0.00412308 0.0121852,-0.00304483 0.0124088,-0.00194215 0.0125328,-0.000823875 0.130902,-0.00850161 0.129647,-0.0199779 0.127389,-0.0312994 0.124143,-0.0423786 0.119937,-0.0531294 0.114801,-0.0634688 0.0854726,8.29781e-09 0.00311664,-0.000137504 0.00309242,-0.000411443 0.00304417,-0.000682185 0.00297226,-0.000947625 0.00287726,-0.0012057 0.00275989,-0.00145441 0.00262109,-0.00169181 0.00246191,-0.00191607 0.0022836,-0.00212544 0.00208754,-0.00231829 0.00187527,-0.00249313 0.00164842,-0.00264859 0.00140876,-0.00278347 0.00115815,-0.00289672 0.000898547,-0.00298746 0.000631958,-0.00305499 0.000360459,-0.00309877 8.61577e-05,-0.00311848 -0.000188813,-0.00311395 -0.000462316,-0.00308522 -0.000732226,-0.00303252 -0.000996447,-0.00295625 -0.00125292,-0.00285701 -0.00149966,-0.00273557 -0.00173475,-0.00259287 -0.00195636,-0.00243002 -0.00216276,-0.00224829 -0.00235236,-0.00204908 -0.00252367,-0.00183395 -0.00267538,-0.00160458 -0.0028063,-0.00136273 -0.0029154,-0.00111029 -0.00300186,-0.000849225 -0.00306498,-0.00058156 -0.0177318,-0.00173653 -0.0178163,-0.000107234 -0.0177514,0.00152296 -0.0175376,0.00314039 -0.0171768,0.00473148 -0.000673789,-0.0317305 0.00207932,-0.0316695 0.00481678,-0.03137 0.00751798,-0.0308344 0.0101626,-0.0300666 0.0127307,-0.0290725 0.0152029,-0.0278595 0.0175607,-0.0264368 0.0045132,-0.00566024 0.101658,0 0,0.88065 -0.0596748,0.11935 z "/>
<path fill="rgb(241,240,234)" stroke="rgb(241,240,234)" d="M 3.59443,3.70324 l 0.00331659,-0.00903008 0.00975913,-0.0357043 0.0066864,-0.0364051 0.0113556,0.0309121 0.0086077,0.031787 0.00579381,0.0324182 0.00293549,0.0328008 5.466e-05,0.0329318 -0.00282659,0.0328103 -0.00568617,0.0324372 -0.00850214,0.0318154 -0.0112529,0.0309496 -0.0139174,0.0298465 -0.00632418,0.0109456 0,-0.248515 z M 4.53475,3.1 l -0.5,1 -0.440325,0 0,-0.0444124 0.0191063,-0.023353 0.0217883,-0.031922 0.018939,-0.0336906 0.0159471,-0.0352056 0.0128352,-0.0364554 0.00962662,-0.0374309 0.00634557,-0.0381245 0.00301675,-0.038531 -0.000334782,-0.0386475 -0.0036838,-0.038473 -0.00700507,-0.0380088 -0.0102736,-0.0372585 -0.0134648,-0.0362276 -0.0165546,-0.034924 -0.0195198,-0.0333575 -0.022338,-0.0315397 -0.0144304,-0.0170271 0,-0.375411 0.940325,0 z "/>
<path fill="rgb(241,240,234)" stroke="rgb(241,240,234)" d="M 4.59443,2.1 l 0,-0.0914241 0.0118094,-0.00724843 0.0283863,-0.014195 0.0295099,-0.0116809 0.0304114,-0.00907886 0.031084,-0.00640845 7.99361e-14,-2.20535e-12 0.0028915,-0.0776052 0.00282909,-0.0776075 0.00276668,-0.0776097 0.00385902,-0.0491969 0.0080752,-0.0486828 0.0122316,-0.0478081 0.0162973,-0.0465792 0.00368359,-0.00813055 0.00441143,-0.00775977 0.00510232,-0.00732401 0.00575048,-0.00682691 0.00794106,-0.0078784 0.00859651,-0.00715748 0.00918675,-0.00638226 0.00970728,-0.00555861 0.0101542,-0.0046928 0.010524,-0.00379138 0.010814,-0.00286119 0.011022,-0.0019093 0.0352178,-0.115681 -0.0250245,0.0055975 -0.0244792,0.00763745 -0.0237678,0.00962561 -0.0228952,0.0115485 -0.0218674,0.0133931 -0.0206914,0.0151469 -0.019375,0.0167979 -0.0179272,0.0183351 0.00273702,0.00725364 0.00207248,0.0074707 0.00139109,0.00762702 0.000698382,0.00772132 0,0.00775284 -0.000698382,0.00772132 -0.00139109,0.00762702 -0.00207248,0.0074707 -0.00273702,0.00725364 -0.130762,0.304253 -0.00284872,0.00809249 -0.00262396,0.00575169 0,-0.732998 0.940325,4.44089e-16 -0.5,1 -0.440325,0 z "/>
<path fill="rgb(241,240,234)" stroke="rgb(241,240,234)" d="M 3.59443,3.47541 l -0.0105577,-0.0124575 -0.0274499,-0.0272074 -0.0297051,-0.0247254 -0.0317367,-0.0220573 -0.0335293,-0.019223 -0.0350695,-0.0162441 -0.0363457,-0.0131428 -0.0373482,-0.00994263 0.0578301,-0.0201157 -0.0028653,-0.00914359 -0.00367875,-0.00884771 -0.00446218,-0.00847963 -0.0052092,-0.00804235 -0.0059137,-0.00753945 -0.00656995,-0.00697502 -0.00717259,-0.00635367 -0.00771669,-0.00568048 -0.00819783,-0.00496093 -0.00861206,-0.00420089 -0.00895602,-0.00340658 -0.0092269,-0.00258447 -0.00942248,-0.00174127 0.0388048,-0.132339 0.233111,0 0,0.375411 z M 2.59443,3.1 l 0.295705,0 -0.0277956,0.069485 0.104603,0.0625114 0.110147,0.052126 0.114663,0.0412541 -0.0492071,0.0126834 -0.0478668,0.0170583 -0.0461383,0.0212949 -0.0440357,0.0253589 -0.041576,0.0292172 -0.00195721,0.00165207 -0.00180642,0.00181572 -0.001642,0.00196567 -0.00146518,0.00210078 -0.0012773,0.00222003 -0.00107977,0.00232252 -0.0008741,0.00240748 -0.000661829,0.00247427 -0.000444562,0.00252237 -0.000223939,0.00255144 -1.62594e-06,0.00256125 0.0002207,0.00255172 0.000441359,0.00252294 0.000658687,0.0024751 0.000871043,0.00240859 0.00107682,0.00232389 0.00127448,0.00222165 0.00146251,0.00210264 0.0016395,0.00196775 0.00180411,0.00181802 0.00195511,0.00165456 0.00209135,0.0014786 0.0022118,0.00129149 0.00231555,0.00109463 0.00240183,0.000889507 0.00246997,0.000677668 0.00251947,0.000460714 0.00254996,0.000240282 0.00256119,1.80357e-05 0.00255309,-0.000204346 0.00252571,-0.000425186 0.00247927,-0.000642816 0.00241412,-0.000855594 0.00233074,-0.00106191 0.00222977,-0.00126022 0.00211196,-0.00144901 0.00197822,-0.00162686 0.0267234,-0.0219031 0.0285879,-0.0194066 0.03022,-0.0167523 0.0316063,-0.0139617 0.0327355,-0.0110576 0.0335986,-0.00806362 0.0341884,-0.00500402 0.0345002,-0.00190372 0.0345314,0.00121205 0.0342818,0.00431797 0.0337534,0.00738878 0.0329505,0.0103995 0.0318797,0.0133256 0.0305496,0.0161434 -0.00250679,0.0528063 -0.0449655,-0.00239875 -0.0449961,0.00173121 -0.0446482,0.00584661 -0.0439247,0.00991282 -1.02141e-14,3.10862e-15 -0.00237802,0.000765477 -0.00230234,0.000969611 -0.00220918,0.00116638 -0.00209924,0.00135429 -0.00197336,0.00153192 -0.00183249,0.00169791 -0.0016777,0.00185101 -0.00151017,0.00199005 -0.00133118,0.00211398 -0.00114207,0.00222185 -0.000944287,0.00231284 -0.000739334,0.00238628 -0.000528766,0.00244158 -0.000314183,0.00247835 -9.72128e-05,0.00249629 0.000120495,0.00249528 0.000337288,0.00247531 0.00055152,0.00243655 0.000761562,0.00237928 0.000965821,0.00230394 0.00116275,0.0022111 0.00135084,0.00210147 0.00152867,0.00197588 0.0016949,0.00183528 0.00184825,0.00168075 0.00198756,0.00151345 0.00211178,0.00133465 0.00221997,0.00114572 0.00231129,0.000948092 0.00238506,0.00074326 0.00244071,0.000532783 0.00247783,0.00031826 0.00249613,0.00010132 0.00249547,-0.000116389 0.00247586,-0.000333215 0.00243745,-0.000547509 0.0377564,-0.00839708 0.0383653,-0.0049156 0.0386538,-0.00139306 0.0386196,0.0021411 -0.0109617,0.0297407 -0.013376,0.0287359 -0.0156991,0.0275355 -0.0179155,0.0261477 -0.0200098,0.024582 -0.021968,0.0228489 -0.0237767,0.0209603 -0.0254235,0.0189291 -0.0268973,0.016769 -0.00325664,0.00203923 -0.00306839,0.00231281 -0.00285723,0.00256912 -0.00262473,0.00280623 -0.00237262,0.00302238 -0.00210279,0.00321596 -0.00181725,0.00338552 -0.00151813,0.00352979 -0.00120768,0.00364769 -0.000888207,0.00373834 -0.000562098,0.00380108 -0.000231791,0.00383541 0.000100247,0.0038411 0.000431537,0.0038181 0.000759603,0.00376658 0.001082,0.00368692 0.00139631,0.00357973 0.00170019,0.00344579 0.00199137,0.00328612 0.00226767,0.0031019 0.00252704,0.00289451 0.00276753,0.0026655 0.00298735,0.00241658 0.00318486,0.00214961 0.00335857,0.00186658 0.0035072,0.00156961 0.00362963,0.00126092 0.00372495,0.000942802 0.00379245,0.000617647 0.00383161,0.000287877 0.00384216,-4.40423e-05 0.00382401,-0.000375633 0.00377729,-0.000704418 0.00370236,-0.00102794 0.00359977,-0.00134379 0.0034703,-0.00164959 0.0333099,-0.0195523 0.03147,-0.0223937 0.0293884,-0.0250632 0.027081,-0.0275401 0.0245657,-0.0298055 0.0218616,-0.0318419 0.0189896,-0.0336338 0.0159718,-0.0351673 0.0128313,-0.0364307 0.0095922,-0.0374143 0.00627945,-0.0381105 0.00521801,0.0329519 0.00232695,0.0332813 -0.000581823,0.0333574 -0.00348617,0.0331799 -0.00636399,0.0327499 -0.00919341,0.0320708 -0.0119529,0.0311478 -0.0146215,0.0299878 -0.0171788,0.0285998 -0.0196055,0.0269941 -0.00164032,0.00205227 -0.00145628,0.00218672 -0.00126128,0.0023047 -0.00105678,0.00240534 -0.000844339,0.00248788 -0.000625539,0.0025517 -0.000402031,0.00259631 -0.000175497,0.00262139 5.23572e-05,0.00262674 0.000279817,0.00261231 0.000505172,0.00257823 0.000726725,0.00252475 0.000942808,0.00245226 0.0011518,0.00236132 0.00135212,0.00225261 0.00154226,0.00212695 0.0017208,0.00198528 0.00188639,0.00182867 0.00203778,0.0016583 0.00217383,0.00147544 0.00229353,0.00128149 0.00239596,0.00107789 0.00248037,0.000866173 0.0025461,0.000647942 0.00259268,0.000424835 0.00261975,0.00019853 0.00262709,-2.92681e-05 0.00261467,-0.000256846 0.00258257,-0.000482492 0.00253104,-0.000704506 0.00246045,-0.000921218 0.00237135,-0.001131 0.00226441,-0.00133227 0.00214042,-0.00152351 0.00200033,-0.00170328 0.00184518,-0.00187024 0.0236372,-0.0284838 0.0211284,-0.0303913 0.0184664,-0.0320785 0.0156706,-0.0335332 0.00944452,-0.0257146 0,0.248515 -0.010151,0.0175689 -0.0189066,0.0269638 -0.021193,0.0252064 -0.000152137,0.000166893 -0.000150888,0.000168023 -0.000149631,0.000169143 -0.00167657,0.00205069 -0.00149094,0.00218936 -0.0012939,0.00231128 -0.00108696,0.00241552 -0.000871699,0.00250127 -0.00064977,0.00256788 -0.000422869,0.00261484 -0.000192732,0.00264179 3.88797e-05,0.00264853 0.000270194,0.002635 0.00049944,0.0026013 0.000724865,0.0025477 0.000944743,0.0024746 0.00115739,0.00238257 0.00136118,0.00227231 0.00155456,0.00214466 0.00173604,0.00200059 0.00190424,0.00184122 0.00205786,0.00166776 0.00219574,0.00148153 0.00231681,0.00128397 0.00242016,0.00107659 0.00250498,0.000860963 0.00257064,0.000638751 0.00261663,0.00041165 0.00264259,0.0001814 0.00264834,-5.02384e-05 0.00263381,-0.000281492 0.00259913,-0.000510592 0.00254457,-0.000735785 0.00247053,-0.000955348 0.00237759,-0.0011676 0.00226645,-0.00137092 0.00213797,-0.00156374 0.00199313,-0.0017446 0.00183304,-0.00191211 1.33227e-14,-1.5099e-14 0.00536716,-0.00656008 0,0.0444124 -0.5,0 -0.5,-1 z "/>
<path fill="rgb(241,240,234)" stroke="rgb(241,240,234)" d="M 3.56459,0.2 l 3.26459,0 0.00883388,0.000390951 0.00876481,0.0011698 0.0086272,0.0019395 0.00842214,0.00269403 0.00815123,0.0034275 0.00781658,0.00413417 0.00742081,0.00480851 0.00696702,0.00544526 0.00645876,0.00603943 0.00589999,0.00658638 0.00529509,0.00708183 0.00464879,0.0075219 0.00396614,0.00790316 0.00325248,0.00822263 0.00251339,0.0084778 0.00175464,0.00866669 0.000982177,0.00878781 0.000202033,0.00884022 -0.000579691,0.0088235 -0.00135688,0.0087378 -0.00212346,0.00858377 -0.00287344,0.00836263 -0.00360095,0.0080761 -3.26459,6.52918 -0.00412828,0.00744612 -0.0047467,0.00706797 -0.00533072,0.00663859 -0.00587609,0.00616109 -0.00637887,0.00563892 -0.00683541,0.00507588 -0.0072424,0.00447605 -0.0075969,0.00384377 -0.00789632,0.00318363 -0.00813851,0.00250041 -0.00832171,0.00179907 -0.00844458,0.00108468 -0.00850624,0.000362437 0,-0.323607 3.10279,-6.20557 -3.10279,2.66454e-15 0,-0.2 z "/>
<path fill="rgb(241,240,234)" stroke="rgb(241,240,234)" d="M 3.56459,0.2 l 0,0.2 -3.10279,0 3.10279,6.20557 0,0.323607 -0.00850624,-0.000362437 -0.00844458,-0.00108468 -0.00832171,-0.00179907 -0.00813851,-0.00250041 -0.00789632,-0.00318363 -0.0075969,-0.00384377 -0.0072424,-0.00447605 -0.00683541,-0.00507588 -0.00637887,-0.00563892 -0.00587609,-0.00616109 -0.00533072,-0.00663859 -0.0047467,-0.00706797 -0.00412828,-0.00744612 -3.26459,-6.52918 -0.00360095,-0.0080761 -0.00287344,-0.00836263 -0.00212346,-0.00858377 -0.00135688,-0.0087378 -0.000579691,-0.0088235 0.000202033,-0.00884022 0.000982177,-0.00878781 0.00175464,-0.00866669 0.00251339,-0.0084778 0.00325248,-0.00822263 0.00396614,-0.00790316 0.00464879,-0.0075219 0.00529509,-0.00708183 0.00589999,-0.00658638 0.00645876,-0.00603943 0.00696702,-0.00544526 0.00742081,-0.00480851 0.00781658,-0.00413417 0.00815123,-0.0034275 0.00842214,-0.00269403 0.0086272,-0.0019395 0.00876481,-0.0011698 0.00883388,-0.000390951 3.26459,-8.88178e-16 z "/>
<path fill="rgb(42,41,42)" stroke="rgb(42,41,42)" d="M 3.54372,4.022 l -0.00165038,0.00205336 -0.00146566,0.00218904 -0.00126984,0.00230815 -0.00106442,0.00240978 -0.000850933,0.00249318 -0.000631009,0.00255771 -0.000406309,0.00260287 -0.000178534,0.00262834 5.05926e-05,0.00263391 0.000279336,0.00261954 0.000505966,0.00258535 0.000728765,0.00253159 0.000946049,0.00245866 0.00115617,0.00236713 0.00135754,0.00225768 0.00154864,0.00213114 0.00172801,0.00198847 0.00189431,0.00183075 0.00204626,0.00165917 0.00218273,0.00147503 0.00230268,0.00127973 0.0024052,0.00107474 0.00248951,0.000861618 0.00255498,0.000641973 0.00260111,0.000417469 0.00262755,0.000189805 0.0026341,-3.92957e-05 0.00262072,-0.000268099 0.0025875,-0.000494873 0.00253469,-0.000717901 0.0024627,-0.000935495 0.00237207,-0.00114601 0.00226348,-0.00134785 0.00213776,-0.00153948 0.00199586,-0.00171947 0.00183886,-0.00188644 -0.00183304,0.00191211 -0.00199313,0.0017446 -0.00213797,0.00156374 -0.00226645,0.00137092 -0.00237759,0.0011676 -0.00247053,0.000955348 -0.00254457,0.000735785 -0.00259913,0.000510592 -0.00263381,0.000281492 -0.00264834,5.02384e-05 -0.00264259,-0.0001814 -0.00261663,-0.00041165 -0.00257064,-0.000638751 -0.00250498,-0.000860963 -0.00242016,-0.00107659 -0.00231681,-0.00128397 -0.00219574,-0.00148153 -0.00205786,-0.00166776 -0.00190424,-0.00184122 -0.00173604,-0.00200059 -0.00155456,-0.00214466 -0.00136118,-0.00227231 -0.00115739,-0.00238257 -0.000944743,-0.0024746 -0.000724865,-0.0025477 -0.00049944,-0.0026013 -0.000270194,-0.002635 -3.88797e-05,-0.00264853 0.000192732,-0.00264179 0.000422869,-0.00261484 0.00064977,-0.00256788 0.000871699,-0.00250127 0.00108696,-0.00241552 0.0012939,-0.00231128 0.00149094,-0.00218936 0.00167657,-0.00205069 z "/>
<path fill="rgb(42,41,42)" stroke="rgb(42,41,42)" d="M 3.66952,2.62632 l -0.0125328,0.000823875 -0.0124088,0.00194215 -0.0121852,0.00304483 -0.0118638,0.00412308 -0.0114473,0.00516825 -0.0109388,0.00617194 -0.0103426,0.0071261 -0.00966338,0.00802308 -0.0339237,0.0334377 -0.0311099,0.0360703 -0.0280925,0.0384669 -0.0248913,0.0406118 -0.0215273,0.0424908 -0.0180223,0.0440918 -0.0980615,0.334426 0.00942248,0.00174127 0.0092269,0.00258447 0.00895602,0.00340658 0.00861206,0.00420089 0.00819783,0.00496093 0.00771669,0.00568048 0.00717259,0.00635367 0.00656995,0.00697502 0.0059137,0.00753945 0.0052092,0.00804235 0.00446218,0.00847963 0.00367875,0.00884771 0.0028653,0.00914359 -0.0578301,0.0201157 0.0373482,0.00994263 0.0363457,0.0131428 0.0350695,0.0162441 0.0335293,0.019223 0.0317367,0.0220573 0.0297051,0.0247254 0.0274499,0.0272074 0.024988,0.0294846 0.022338,0.0315397 0.0195198,0.0333575 0.0165546,0.034924 0.0134648,0.0362276 0.0102736,0.0372585 0.00700507,0.0380088 0.0036838,0.038473 0.000334782,0.0386475 -0.00301675,0.038531 -0.00634557,0.0381245 -0.00962662,0.0374309 -0.0128352,0.0364554 -0.0159471,0.0352056 -0.018939,0.0336906 -0.0217883,0.031922 -0.0244735,0.029913 -1.33227e-14,1.5099e-14 -0.00183886,0.00188644 -0.00199586,0.00171947 -0.00213776,0.00153948 -0.00226348,0.00134785 -0.00237207,0.00114601 -0.0024627,0.000935495 -0.00253469,0.000717901 -0.0025875,0.000494873 -0.00262072,0.000268099 -0.0026341,3.92957e-05 -0.00262755,-0.000189805 -0.00260111,-0.000417469 -0.00255498,-0.000641973 -0.00248951,-0.000861618 -0.0024052,-0.00107474 -0.00230268,-0.00127973 -0.00218273,-0.00147503 -0.00204626,-0.00165917 -0.00189431,-0.00183075 -0.00172801,-0.00198847 -0.00154864,-0.00213114 -0.00135754,-0.00225768 -0.00115617,-0.00236713 -0.000946049,-0.00245866 -0.000728765,-0.00253159 -0.000505966,-0.00258535 -0.000279336,-0.00261954 -5.05926e-05,-0.00263391 0.000178534,-0.00262834 0.000406309,-0.00260287 0.000631009,-0.00255771 0.000850933,-0.00249318 0.00106442,-0.00240978 0.00126984,-0.00230815 0.00146566,-0.00218904 0.00165038,-0.00205336 0.000151067,-0.000167844 0.000152315,-0.000166713 0.000153554,-0.000165572 0.021193,-0.0252068 0.0189065,-0.0269642 0.016475,-0.0285149 0.0139172,-0.0298469 0.0112527,-0.03095 0.00850185,-0.0318158 0.00568582,-0.0324376 0.00282619,-0.0328106 -5.5108e-05,-0.0329321 -0.00293599,-0.032801 -0.00579435,-0.0324184 -0.00860828,-0.0317872 -0.0113562,-0.0309122 -0.0066864,0.0364051 -0.00975913,0.0357043 -0.0127611,0.0347447 -0.0156706,0.0335332 -0.0184664,0.0320785 -0.0211284,0.0303913 -0.0236372,0.0284838 -0.00188123,0.00185575 -0.00203584,0.0016847 -0.00217494,0.00150082 -0.00229749,0.00130551 -0.00240255,0.00110027 -0.00248932,0.000886644 -0.00255713,0.000666272 -0.00260548,0.000440827 -0.00263399,0.000212026 -0.00264244,-1.83896e-05 -0.00263078,-0.000248665 -0.00259909,-0.000477047 -0.00254761,-0.000701797 -0.00247674,-0.000921204 -0.002387,-0.0011336 -0.0022791,-0.00133736 -0.00215385,-0.00153094 -0.00201219,-0.00171287 -0.00185522,-0.00188175 -0.00168412,-0.00203631 -0.0015002,-0.00217537 -0.00130486,-0.00229786 -0.00109959,-0.00240286 -0.000885941,-0.00248957 -0.000665549,-0.00255732 -0.000440091,-0.0026056 -0.000211282,-0.00263405 1.91358e-05,-0.00264244 0.000249408,-0.00263071 0.000477781,-0.00259895 0.000702516,-0.00254741 0.000921904,-0.00247648 0.00113427,-0.00238668 0.001338,-0.00227872 0.00153155,-0.00215341 0.000268164,-0.000335316 0.000267788,-0.000335617 0.000267411,-0.000335918 0.0196055,-0.0269941 0.0171788,-0.0285998 0.0146215,-0.0299878 0.0119529,-0.0311478 0.00919341,-0.0320708 0.00636399,-0.0327499 0.00348617,-0.0331799 0.000581823,-0.0333574 -0.00232695,-0.0332813 -0.00521801,-0.0329519 -0.00627945,0.0381105 -0.0095922,0.0374143 -0.0128313,0.0364307 -0.0159718,0.0351673 -0.0189896,0.0336338 -0.0218616,0.0318419 -0.0245657,0.0298055 -0.027081,0.0275401 -0.0293884,0.0250632 -0.03147,0.0223937 -0.0333099,0.0195523 -0.0034703,0.00164959 -0.00359977,0.00134379 -0.00370236,0.00102794 -0.00377729,0.000704418 -0.00382401,0.000375633 -0.00384216,4.40423e-05 -0.00383161,-0.000287877 -0.00379245,-0.000617647 -0.00372495,-0.000942802 -0.00362963,-0.00126092 -0.0035072,-0.00156961 -0.00335857,-0.00186658 -0.00318486,-0.00214961 -0.00298735,-0.00241658 -0.00276753,-0.0026655 -0.00252704,-0.00289451 -0.00226767,-0.0031019 -0.00199137,-0.00328612 -0.00170019,-0.00344579 -0.00139631,-0.00357973 -0.001082,-0.00368692 -0.000759603,-0.00376658 -0.000431537,-0.0038181 -0.000100247,-0.0038411 0.000231791,-0.00383541 0.000562098,-0.00380108 0.000888207,-0.00373834 0.00120768,-0.00364769 0.00151813,-0.00352979 0.00181725,-0.00338552 0.00210279,-0.00321596 0.00237262,-0.00302238 0.00262473,-0.00280623 0.00285723,-0.00256912 0.00306839,-0.00231281 0.00325664,-0.00203923 0.0268973,-0.016769 0.0254235,-0.0189291 0.0237767,-0.0209603 0.021968,-0.0228489 0.0200098,-0.024582 0.0179155,-0.0261477 0.0156991,-0.0275355 0.013376,-0.0287359 0.0109617,-0.0297407 -0.0386196,-0.0021411 -0.0386538,0.00139306 -0.0383653,0.0049156 -0.0377564,0.00839708 -0.00243745,0.000547509 -0.00247586,0.000333215 -0.00249547,0.000116389 -0.00249613,-0.00010132 -0.00247783,-0.00031826 -0.00244071,-0.000532783 -0.00238506,-0.00074326 -0.00231129,-0.000948092 -0.00221997,-0.00114572 -0.00211178,-0.00133465 -0.00198756,-0.00151345 -0.00184825,-0.00168075 -0.0016949,-0.00183528 -0.00152867,-0.00197588 -0.00135084,-0.00210147 -0.00116275,-0.0022111 -0.000965821,-0.00230394 -0.000761562,-0.00237928 -0.00055152,-0.00243655 -0.000337288,-0.00247531 -0.000120495,-0.00249528 9.72128e-05,-0.00249629 0.000314183,-0.00247835 0.000528766,-0.00244158 0.000739334,-0.00238628 0.000944287,-0.00231284 0.00114207,-0.00222185 0.00133118,-0.00211398 0.00151017,-0.00199005 0.0016777,-0.00185101 0.00183249,-0.00169791 0.00197336,-0.00153192 0.00209924,-0.00135429 0.00220918,-0.00116638 0.00230234,-0.000969611 0.00237802,-0.000765477 1.02141e-14,-3.10862e-15 0.0439247,-0.00991282 0.0446482,-0.00584661 0.0449961,-0.00173121 0.0449655,0.00239875 0.00250679,-0.0528063 -0.0305496,-0.0161434 -0.0318797,-0.0133256 -0.0329505,-0.0103995 -0.0337534,-0.00738878 -0.0342818,-0.00431797 -0.0345314,-0.00121205 -0.0345002,0.00190372 -0.0341884,0.00500402 -0.0335986,0.00806362 -0.0327355,0.0110576 -0.0316063,0.0139617 -0.03022,0.0167523 -0.0285879,0.0194066 -0.0267234,0.0219031 -0.00197822,0.00162686 -0.00211196,0.00144901 -0.00222977,0.00126022 -0.00233074,0.00106191 -0.00241412,0.000855594 -0.00247927,0.000642816 -0.00252571,0.000425186 -0.00255309,0.000204346 -0.00256119,-1.80357e-05 -0.00254996,-0.000240282 -0.00251947,-0.000460714 -0.00246997,-0.000677668 -0.00240183,-0.000889507 -0.00231555,-0.00109463 -0.0022118,-0.00129149 -0.00209135,-0.0014786 -0.00195511,-0.00165456 -0.00180411,-0.00181802 -0.0016395,-0.00196775 -0.00146251,-0.00210264 -0.00127448,-0.00222165 -0.00107682,-0.00232389 -0.000871043,-0.00240859 -0.000658687,-0.0024751 -0.000441359,-0.00252294 -0.0002207,-0.00255172 1.62594e-06,-0.00256125 0.000223939,-0.00255144 0.000444562,-0.00252237 0.000661829,-0.00247427 0.0008741,-0.00240748 0.00107977,-0.00232252 0.0012773,-0.00222003 0.00146518,-0.00210078 0.001642,-0.00196567 0.00180642,-0.00181572 0.00195721,-0.00165207 0.041576,-0.0292172 0.0440357,-0.0253589 0.0461383,-0.0212949 0.0478668,-0.0170583 0.0492071,-0.0126834 -0.114663,-0.0412541 -0.110147,-0.052126 -0.104603,-0.0625114 0.0352076,-0.0880139 0.0514902,-0.0160499 0.0503611,-0.0193029 0.0490267,-0.0224772 0.00970145,-0.0053817 0.00918264,-0.00622575 0.0085906,-0.00702015 0.00793005,-0.00775856 0.00720625,-0.0084351 0.00642498,-0.00904436 0.00559248,-0.0095815 0.00471537,-0.0100422 0.00380066,-0.0104229 0.00285563,-0.0107204 0.00188784,-0.0109324 0.0251497,-0.296722 0.000348803,-0.00849044 -0.000390215,-0.00848864 -0.00112628,-0.00842264 -0.00185383,-0.00829293 -0.00256736,-0.00810049 -0.00326146,-0.00784679 -0.00393091,-0.00753374 -0.00457061,-0.00716371 -0.00517576,-0.0067395 -0.00574175,-0.00626431 -0.00626431,-0.00574175 -0.0067395,-0.00517576 -0.00716371,-0.00457061 -0.00753374,-0.00393091 -0.00784679,-0.00326146 -0.00810049,-0.00256736 -0.00829293,-0.00185383 -0.00842264,-0.00112628 -0.00848864,-0.000390215 -0.00849044,0.000348803 -0.148361,0 -0.0553233,-0.0351974 0.191109,-0.382219 0.145844,-0.0527961 -0.0452552,0.105613 -0.0528063,-0.00755106 -0.110647,0.269055 0.0880139,-0.0075306 0.185506,-0.113556 0.00986203,-0.00548811 0.010283,-0.00465187 0.0106331,-0.00378362 0.0109101,-0.00288934 0.0111121,-0.00197518 0.0112375,-0.00104742 0.0112857,-0.000112461 0.0112562,0.000823275 0.0111492,0.00175335 0.0109655,0.00267135 0.0502944,0.00754083 0.0496056,-0.0249857 0.0515476,-0.0206842 0.0531175,-0.0162334 0.0543039,-0.0116653 0.0550982,-0.00701305 0.0554947,-0.00231014 0.332107,-0.0227209 0.014637,-0.0363944 0.0177266,-0.0349937 0.0206835,-0.0333314 0.0234859,-0.0314199 0.0261125,-0.0292733 0.028544,-0.0269079 0.0307619,-0.0243413 0.0327499,-0.0215926 0.0344929,-0.0186825 0.035978,-0.0156326 0.037194,-0.0124659 0.0381319,-0.0092059 0.0387847,-0.00587709 0.0391474,-0.00250433 0.0392174,0.000887148 0.00857734,0.000181037 0.00855918,-0.000586596 0.00847245,-0.00134953 0.00831785,-0.00210165 0.00809663,-0.00283694 0.00781054,-0.00354951 0.0074619,-0.00423364 0.00705348,-0.00488386 0.00658856,-0.00549495 0.00607086,-0.00606203 0.00550453,-0.00658056 0.00489411,-0.00704636 0.00424449,-0.00745573 0.00356087,-0.00780537 0.00284872,-0.00809249 0.130762,-0.304253 0.00273702,-0.00725364 0.00207248,-0.0074707 0.00139109,-0.00762702 0.000698382,-0.00772132 0,-0.00775284 -0.000698382,-0.00772132 -0.00139109,-0.00762702 -0.00207248,-0.0074707 -0.00273702,-0.00725364 0.0179272,-0.0183351 0.019375,-0.0167979 0.0206914,-0.0151469 0.0218674,-0.0133931 0.0228952,-0.0115485 0.0237678,-0.00962561 0.0244792,-0.00763745 0.0250245,-0.0055975 -0.0352178,0.115681 -0.011022,0.0019093 -0.010814,0.00286119 -0.010524,0.00379138 -0.0101542,0.0046928 -0.00970728,0.00555861 -0.00918675,0.00638226 -0.00859651,0.00715748 -0.00794106,0.0078784 -0.00575048,0.00682691 -0.00510232,0.00732401 -0.00441143,0.00775977 -0.00368359,0.00813055 -0.0162973,0.0465792 -0.0122316,0.0478081 -0.0080752,0.0486828 -0.00385902,0.0491969 -0.00276668,0.0776097 -0.00282909,0.0776075 -0.0028915,0.0776052 -0.031084,0.00640845 -0.0304114,0.00907886 -0.0295099,0.0116809 -0.0283863,0.014195 -0.0270489,0.0166023 -0.0255079,0.0188845 -0.0237749,0.0210246 -0.0218629,0.0230064 -0.0197863,0.024815 -0.0175607,0.0264368 -0.0152029,0.0278595 -0.0127307,0.0290725 -0.0101626,0.0300666 -0.00751798,0.0308344 -0.00481678,0.03137 -0.00207932,0.0316695 0.000673789,0.0317305 0.0171768,-0.00473148 0.0175376,-0.00314039 0.0177514,-0.00152296 0.0178163,0.000107234 0.0177318,0.00173653 0.00306498,0.00058156 0.00300186,0.000849225 0.0029154,0.00111029 0.0028063,0.00136273 0.00267538,0.00160458 0.00252367,0.00183395 0.00235236,0.00204908 0.00216276,0.00224829 0.00195636,0.00243002 0.00173475,0.00259287 0.00149966,0.00273557 0.00125292,0.00285701 0.000996447,0.00295625 0.000732226,0.00303252 0.000462316,0.00308522 0.000188813,0.00311395 -8.61577e-05,0.00311848 -0.000360459,0.00309877 -0.000631958,0.00305499 -0.000898547,0.00298746 -0.00115815,0.00289672 -0.00140876,0.00278347 -0.00164842,0.00264859 -0.00187527,0.00249313 -0.00208754,0.00231829 -0.0022836,0.00212544 -0.00246191,0.00191607 -0.00262109,0.00169181 -0.00275989,0.00145441 -0.00287726,0.0012057 -0.00297226,0.000947625 -0.00304417,0.000682185 -0.00309242,0.000411443 -0.00311664,0.000137504 -0.0854726,-8.29781e-09 -0.114801,0.0634688 -0.119937,0.0531294 -0.124143,0.0423786 -0.127389,0.0312994 -0.129647,0.0199779 -0.130902,0.00850161 z "/>
<path fill="rgb(187,30,16)" stroke="rgb(187,30,16)" d="M 3.56459,5.04033 l 1.97016,-3.94033 -1.97016,-4.44089e-16 0,-0.7 3.10279,-2.66454e-15 -3.10279,6.20557 0,-1.56525 z "/>
<path fill="rgb(187,30,16)" stroke="rgb(187,30,16)" d="M 3.56459,0.2 l 0,-0.2 3.26459,-1.77636e-15 0.0265016,0.00117285 0.0262944,0.00350939 0.0258816,0.00581849 0.0252664,0.00808209 0.0244537,0.0102825 0.0234497,0.0124025 0.0222624,0.0144255 0.0209011,0.0163358 0.0193763,0.0181183 0.0177,0.0197591 0.0158853,0.0212455 0.0139464,0.0225657 0.0118984,0.0237095 0.00975744,0.0246679 0.00754016,0.0254334 0.00526392,0.0260001 0.00294653,0.0263634 0.000606098,0.0265207 -0.00173907,0.0264705 -0.00407065,0.0262134 -0.00637039,0.0257513 -0.00862033,0.0250879 -0.0108029,0.0242283 -3.26459,6.52918 -0.0123848,0.0223384 -0.0142401,0.0212039 -0.0159921,0.0199158 -0.0176283,0.0184833 -0.0191366,0.0169168 -0.0205062,0.0152277 -0.0217272,0.0134282 -0.0227907,0.0115313 -0.023689,0.00955089 -0.0244155,0.00750124 -0.0249651,0.00539721 -0.0253337,0.00325405 -0.0255187,0.00108731 0,-0.2 0.00850624,-0.000362437 0.00844458,-0.00108468 0.00832171,-0.00179907 0.00813851,-0.00250041 0.00789632,-0.00318363 0.0075969,-0.00384377 0.0072424,-0.00447605 0.00683541,-0.00507588 0.00637887,-0.00563892 0.00587609,-0.00616109 0.00533072,-0.00663859 0.0047467,-0.00706797 0.00412828,-0.00744612 3.26459,-6.52918 0.00360095,-0.0080761 0.00287344,-0.00836263 0.00212346,-0.00858377 0.00135688,-0.0087378 0.000579691,-0.0088235 -0.000202033,-0.00884022 -0.000982177,-0.00878781 -0.00175464,-0.00866669 -0.00251339,-0.0084778 -0.00325248,-0.00822263 -0.00396614,-0.00790316 -0.00464879,-0.0075219 -0.00529509,-0.00708183 -0.00589999,-0.00658638 -0.00645876,-0.00603943 -0.00696702,-0.00544526 -0.00742081,-0.00480851 -0.00781658,-0.00413417 -0.00815123,-0.0034275 -0.00842214,-0.00269403 -0.0086272,-0.0019395 -0.00876481,-0.0011698 -0.00883388,-0.000390951 -3.26459,0 z "/>
<path fill="rgb(187,30,16)" stroke="rgb(187,30,16)" d="M 3.56459,0.2 l -3.26459,8.88178e-16 -0.00883388,0.000390951 -0.00876481,0.0011698 -0.0086272,0.0019395 -0.00842214,0.00269403 -0.00815123,0.0034275 -0.00781658,0.00413417 -0.00742081,0.00480851 -0.00696702,0.00544526 -0.00645876,0.00603943 -0.00589999,0.00658638 -0.00529509,0.00708183 -0.00464879,0.0075219 -0.00396614,0.00790316 -0.00325248,0.00822263 -0.00251339,0.0084778 -0.00175464,0.00866669 -0.000982177,0.00878781 -0.000202033,0.00884022 0.000579691,0.0088235 0.00135688,0.0087378 0.00212346,0.00858377 0.00287344,0.00836263 0.00360095,0.0080761 3.26459,6.52918 0.00412828,0.00744612 0.0047467,0.00706797 0.00533072,0.00663859 0.00587609,0.00616109 0.00637887,0.00563892 0.00683541,0.00507588 0.0072424,0.00447605 0.0075969,0.00384377 0.00789632,0.00318363 0.00813851,0.00250041 0.00832171,0.00179907 0.00844458,0.00108468 0.00850624,0.000362437 0,0.2 -0.0255187,-0.00108731 -0.0253337,-0.00325405 -0.0249651,-0.00539721 -0.0244155,-0.00750124 -0.023689,-0.00955089 -0.0227907,-0.0115313 -0.0217272,-0.0134282 -0.0205062,-0.0152277 -0.0191366,-0.0169168 -0.0176283,-0.0184833 -0.0159921,-0.0199158 -0.0142401,-0.0212039 -0.0123848,-0.0223384 -3.26459,-6.52918 -0.0108029,-0.0242283 -0.00862033,-0.0250879 -0.00637039,-0.0257513 -0.00407065,-0.0262134 -0.00173907,-0.0264705 0.000606098,-0.0265207 0.00294653,-0.0263634 0.00526392,-0.0260001 0.00754016,-0.0254334 0.00975744,-0.0246679 0.0118984,-0.0237095 0.0139464,-0.0225657 0.0158853,-0.0212455 0.0177,-0.0197591 0.0193763,-0.0181183 0.0209011,-0.0163358 0.0222624,-0.0144255 0.0234497,-0.0124025 0.0244537,-0.0102825 0.0252664,-0.00808209 0.0258816,-0.00581849 0.0262944,-0.00350939 0.0265016,-0.00117285 3.26459,0 0,0.2 z "/>
<path fill="rgb(187,30,16)" stroke="rgb(187,30,16)" d="M 3.56459,5.04033 l 0,1.56525 -3.10279,-6.20557 3.10279,0 0,0.7 -1.97016,4.44089e-16 1.97016,3.94033 z "/>
</g></g></svg>
