<?xml version="1.0" encoding="UTF-8" standalone="no"?>
<!DOCTYPE svg PUBLIC "-//W3C//DTD SVG 1.1//EN" "http://www.w3.org/Graphics/SVG/1.1/DTD/svg11-flat.dtd"
[

]>
<svg xmlns="http://www.w3.org/2000/svg"  viewBox="-0.05625 -0.05625 4.6125 7.6125"><g fill="none" stroke="black" stroke-width="0.0125" transform="translate(0,7.5) scale(1, -1)">
<g id="Output" >
<path fill="rgb(0,91,140)" stroke="rgb(0,91,140)" d="M 1.26118,2.4 l -1.77636e-15,1 -0.86118,0 0,-1 0.86118,0 z "/>
<path fill="rgb(0,91,140)" stroke="rgb(0,91,140)" d="M 1.26118,1.4 l -1.55431e-15,1 -0.86118,0 0,-1 0.86118,0 z "/>
<path fill="rgb(0,91,140)" stroke="rgb(0,91,140)" d="M 1.26118,1.4 l -0.86118,0 0,-0.7 0.00114159,-0.0261467 0.00341608,-0.0259477 0.00566458,-0.0255513 0.00786996,-0.0249603 0.0100155,-0.0241794 0.0120847,-0.0232145 0.014062,-0.0220729 0.0159323,-0.0207634 0.0176813,-0.0192958 0.0192958,-0.0176813 0.0207634,-0.0159323 0.0220729,-0.014062 0.0232145,-0.0120847 0.0241794,-0.0100155 0.0249603,-0.00786996 0.0255513,-0.00566458 0.0259477,-0.00341608 0.0261467,-0.00114159 0.7,-8.88178e-16 0,0.85 -0.13882,4.44089e-16 -2.22045e-16,0.15 z "/>
<path fill="rgb(0,91,140)" stroke="rgb(0,91,140)" d="M 1.26118,3.4 l -1.77636e-15,1 -0.86118,0 0,-1 0.86118,0 z "/>
<path fill="rgb(0,91,140)" stroke="rgb(0,91,140)" d="M 2.4,5.4 l 1,0 0,1 -1,0 0,-1 z "/>
<path fill="rgb(0,91,140)" stroke="rgb(0,91,140)" d="M 4.1,1.4 l 8.88178e-16,1 -0.7,0 0,-1 0.7,0 z "/>
<path fill="rgb(0,91,140)" stroke="rgb(0,91,140)" d="M 3.8,0.4 l 0.0261467,0.00114159 0.0259477,0.00341608 0.0255513,0.00566458 0.0249603,0.00786996 0.0241794,0.0100155 0.0232145,0.0120847 0.0220729,0.014062 0.0207634,0.0159323 0.0192958,0.0176813 0.0176813,0.0192958 0.0159323,0.0207634 0.014062,0.0220729 0.0120847,0.0232145 0.0100155,0.0241794 0.00786996,0.0249603 0.00566458,0.0255513 0.00341608,0.0259477 0.00114159,0.0261467 0,0.7 -0.7,0 0,-1 0.4,0 z "/>
<path fill="rgb(0,91,140)" stroke="rgb(0,91,140)" d="M 1.26118,4.4 l -1.55431e-15,1 -0.86118,0 0,-1 0.86118,0 z "/>
<path fill="rgb(0,91,140)" stroke="rgb(0,91,140)" d="M 4.1,4.4 l 0,1 -0.7,0 0,-0.6 0.360349,0 0,-0.4 0.339651,0 z "/>
<path fill="rgb(0,91,140)" stroke="rgb(0,91,140)" d="M 1.4,7.1 l 0,-0.642797 0.00524672,0.00276135 0.00572058,0.00239568 0.00590875,0.00188441 0.00605132,0.00135859 0.00614721,0.000822283 0.00619565,0.000279635 0.00619629,-0.000265171 0.00614911,-0.000807931 0.00605448,-0.00134446 0.00591313,-0.00187061 0.00572615,-0.00238232 0.00549499,-0.00287566 0.00522142,-0.0033468 0.00490756,-0.00379211 0.00455583,-0.00420817 0.00416895,-0.00459175 0.00374989,-0.0049399 0.0251072,-0.0362799 0.881485,0 0,0.7 -0.15,0 -0.85,0 z "/>
<path fill="rgb(0,91,140)" stroke="rgb(0,91,140)" d="M 1.60952,5.4 l 0.790481,0 0,1 -0.881485,0 0.602527,-0.87065 0.00291101,-0.00539162 0.00243346,-0.00562333 0.00193765,-0.00581284 0.0014273,-0.00595872 0.000906245,-0.00605989 0.000378385,-0.00611559 -0.000152314,-0.00612539 -0.00068187,-0.00608922 -0.00120631,-0.00600736 -0.0017217,-0.00588042 -0.00222416,-0.00570935 -0.00270994,-0.00549543 -0.00317538,-0.00524028 -0.00361699,-0.0049458 -0.00403146,-0.00461421 -0.00441567,-0.00424799 -0.00476675,-0.00384989 -0.00508206,-0.0034229 -0.00535923,-0.00297023 -0.00559618,-0.00249526 -0.00579114,-0.00200157 -0.00594264,-0.00149286 -0.00604954,-0.000972951 -0.00611105,-0.000445737 -0.00612669,8.4822e-05 -0.00609636,0.000614745 -0.00602029,0.00114005 -1.11022e-14,0 -0.43464,0.101988 0,-0.126209 z "/>
<path fill="rgb(0,91,140)" stroke="rgb(0,91,140)" d="M 1.60952,4.4 l 0.790481,0 0,1 -0.790481,0 0,-1 z "/>
<path fill="rgb(0,91,140)" stroke="rgb(0,91,140)" d="M 2.4,3.575 l -0.790481,0 4.44089e-16,-0.175 0.790481,0 0,0.175 z M 2.4,3.925 l 0,0.475 -0.790481,0 0,-0.475 0.790481,0 z "/>
<path fill="rgb(0,91,140)" stroke="rgb(0,91,140)" d="M 1.60952,2.4 l 0.790481,0 0,1 -0.790481,0 3.55271e-15,-1 z "/>
<path fill="rgb(0,91,140)" stroke="rgb(0,91,140)" d="M 2.4,7.1 l 0,-0.7 1,0 0,0.7 -1,0 z "/>
<path fill="rgb(0,91,140)" stroke="rgb(0,91,140)" d="M 2.76035,4.4 l 0,0.4 0.639651,0 0,0.6 -1,0 0,-1 0.360349,0 z "/>
<path fill="rgb(0,91,140)" stroke="rgb(0,91,140)" d="M 2.76035,3.4 l -0.360349,0 0,-1 1,0 0,0.3 -0.639651,0 0,0.7 z "/>
<path fill="rgb(0,91,140)" stroke="rgb(0,91,140)" d="M 2.4,0.4 l 0,1 -0.790481,0 4.44089e-16,-0.15 -8.21565e-15,0 -0.209519,8.88178e-16 0,-0.85 0.85,4.44089e-16 0.15,-4.44089e-16 z "/>
<path fill="rgb(0,91,140)" stroke="rgb(0,91,140)" d="M 3.4,6.4 l 0.7,0 0,0.4 -0.00114159,0.0261467 -0.00341608,0.0259477 -0.00566458,0.0255513 -0.00786996,0.0249603 -0.0100155,0.0241794 -0.0120847,0.0232145 -0.014062,0.0220729 -0.0159323,0.0207634 -0.0176813,0.0192958 -0.0192958,0.0176813 -0.0207634,0.0159323 -0.0220729,0.014062 -0.0232145,0.0120847 -0.0241794,0.0100155 -0.0249603,0.00786996 -0.0255513,0.00566458 -0.0259477,0.00341608 -0.0261467,0.00114159 -0.4,0 0,-0.7 z "/>
<path fill="rgb(0,91,140)" stroke="rgb(0,91,140)" d="M 4.1,5.4 l 8.88178e-16,1 -0.7,0 0,-1 0.7,0 z "/>
<path fill="rgb(0,91,140)" stroke="rgb(0,91,140)" d="M 0.4,6.8 l -4.44089e-16,-0.4 0.952253,0 0.024951,0.0361442 5.32907e-15,1.06581e-14 0.00373835,0.00494864 0.00415822,0.00460147 0.004546,0.00421879 0.0048987,0.00380356 0.00521359,0.00335898 0.00024154,0.000127123 0,0.642797 -0.7,0 -0.0261467,-0.00114159 -0.0259477,-0.00341608 -0.0255513,-0.00566458 -0.0249603,-0.00786996 -0.0241794,-0.0100155 -0.0232145,-0.0120847 -0.0220729,-0.014062 -0.0207634,-0.0159323 -0.0192958,-0.0176813 -0.0176813,-0.0192958 -0.0159323,-0.0207634 -0.014062,-0.0220729 -0.0120847,-0.0232145 -0.0100155,-0.0241794 -0.00786996,-0.0249603 -0.00566458,-0.0255513 -0.00341608,-0.0259477 -0.00114159,-0.0261467 z "/>
<path fill="rgb(0,91,140)" stroke="rgb(0,91,140)" d="M 1.26118,5.4 l -2.22045e-16,0.126209 -0.433063,-0.101988 -5.42351e-05,-1.65367e-05 -5.42486e-05,-1.64921e-05 -5.42622e-05,-1.64475e-05 -0.00588772,-0.00150229 -0.00599711,-0.000978168 -0.00605994,-0.000446449 -0.00607571,8.87362e-05 -0.00604431,0.000623233 -0.00596599,0.00115289 -0.00584134,0.0016736 -0.00567133,0.00218131 -0.0054573,0.00267208 -0.00520089,0.00314211 -0.0049041,0.00358775 -0.00456924,0.00400552 -0.0041989,0.0043922 -0.00379595,0.00474477 -0.00336354,0.00506051 -0.00290501,0.00533695 -0.00242392,0.00557196 -0.00192401,0.00576371 -0.00140917,0.0059107 -0.000883383,0.0060118 -0.000350739,0.00606623 0.000184629,0.00607355 0.000718563,0.00603372 0.00124692,0.00594704 0.00176559,0.00581419 0.00227056,0.0056362 0.00275789,0.00541444 0.00322382,0.00515065 1.14363e-05,1.65926e-05 1.14411e-05,1.65892e-05 1.1446e-05,1.65859e-05 -3.9968e-15,7.10543e-15 0.601025,0.87065 -0.952253,0 0,-1 0.86118,0 z "/>
<path fill="rgb(0,91,140)" stroke="rgb(0,91,140)" d="M 2.4,1.4 l 1,0 0,1 -1,0 0,-1 z "/>
<path fill="rgb(0,91,140)" stroke="rgb(0,91,140)" d="M 2.4,0.4 l 1,0 0,1 -1,0 0,-1 z "/>
<path fill="rgb(0,91,140)" stroke="rgb(0,91,140)" d="M 2.76035,3.4 l 0,0.175 -0.360349,0 0,-0.175 0.360349,0 z M 2.4,3.925 l 0.360349,0 0,0.475 -0.360349,0 0,-0.475 z "/>
<path fill="rgb(0,91,140)" stroke="rgb(0,91,140)" d="M 1.60952,1.4 l 0.790481,0 0,1 -0.790481,0 3.55271e-15,-1 z "/>
<path fill="rgb(0,91,140)" stroke="rgb(0,91,140)" d="M 4.1,3.4 l 0,1 -0.339651,0 0,-0.65 0,-0.35 0.339651,0 z "/>
<path fill="rgb(0,91,140)" stroke="rgb(0,91,140)" d="M 4.1,2.4 l 0,1 -0.339651,0 0,-0.7 -0.360349,0 0,-0.3 0.7,0 z "/>
<path fill="rgb(241,240,234)" stroke="rgb(241,240,234)" d="M 1.60952,3.925 l 1.15083,0 0,-0.175 0,-0.175 -1.15083,0 0,0.35 z "/>
<path fill="rgb(241,240,234)" stroke="rgb(241,240,234)" d="M 1.49341,6.43628 l -0.00374989,0.0049399 -0.00416895,0.00459175 -0.00455583,0.00420817 -0.00490756,0.00379211 -0.00522142,0.0033468 -0.00549499,0.00287566 -0.00572615,0.00238232 -0.00591313,0.00187061 -0.00605448,0.00134446 -0.00614911,0.000807931 -0.00619629,0.000265171 -0.00619565,-0.000279635 -0.00614721,-0.000822283 -0.00605132,-0.00135859 -0.00590875,-0.00188441 -0.00572058,-0.00239568 -0.00548826,-0.00288847 -0.00521359,-0.00335898 -0.0048987,-0.00380356 -0.004546,-0.00421879 -0.00415822,-0.00460147 -0.00373835,-0.00494864 -5.32907e-15,-1.06581e-14 -0.625976,-0.906794 3.9968e-15,-7.10543e-15 -1.1446e-05,-1.65859e-05 -1.14411e-05,-1.65892e-05 -1.14363e-05,-1.65926e-05 -0.00322382,-0.00515065 -0.00275789,-0.00541444 -0.00227056,-0.0056362 -0.00176559,-0.00581419 -0.00124692,-0.00594704 -0.000718563,-0.00603372 -0.000184629,-0.00607355 0.000350739,-0.00606623 0.000883383,-0.0060118 0.00140917,-0.0059107 0.00192401,-0.00576371 0.00242392,-0.00557196 0.00290501,-0.00533695 0.00336354,-0.00506051 0.00379595,-0.00474477 0.0041989,-0.0043922 0.00456924,-0.00400552 0.0049041,-0.00358775 0.00520089,-0.00314211 0.0054573,-0.00267208 0.00567133,-0.00218131 0.00584134,-0.0016736 0.00596599,-0.00115289 0.00604431,-0.000623233 0.00607571,-8.87362e-05 0.00605994,0.000446449 0.00599711,0.000978168 0.00588772,0.00150229 5.42622e-05,1.64475e-05 5.42486e-05,1.64921e-05 5.42351e-05,1.65367e-05 0.433063,0.101988 7.10543e-15,-4.27621 0.348339,-1.33227e-15 2.22045e-16,2.325 0,0.35 0,1.60121 0.43464,-0.101988 1.11022e-14,0 0.00602029,-0.00114005 0.00609636,-0.000614745 0.00612669,-8.4822e-05 0.00611105,0.000445737 0.00604954,0.000972951 0.00594264,0.00149286 0.00579114,0.00200157 0.00559618,0.00249526 0.00535923,0.00297023 0.00508206,0.0034229 0.00476675,0.00384989 0.00441567,0.00424799 0.00403146,0.00461421 0.00361699,0.0049458 0.00317538,0.00524028 0.00270994,0.00549543 0.00222416,0.00570935 0.0017217,0.00588042 0.00120631,0.00600736 0.00068187,0.00608922 0.000152314,0.00612539 -0.000378385,0.00611559 -0.000906245,0.00605989 -0.0014273,0.00595872 -0.00193765,0.00581284 -0.00243346,0.00562333 -0.00291101,0.00539162 -0.627634,0.90693 z "/>
<path fill="rgb(241,240,234)" stroke="rgb(241,240,234)" d="M 1.60952,1.25 l 8.21565e-15,0 -7.99361e-15,2.325 -2.22045e-16,-2.325 z "/>
<path fill="rgb(241,240,234)" stroke="rgb(241,240,234)" d="M 3.66035,4.7 l -4.44089e-16,-0.95 0.1,0 0,1.05 -1,0 0,-0.875 0,-0.175 0.1,0 0,0.95 0.8,0 z "/>
<path fill="rgb(241,240,234)" stroke="rgb(241,240,234)" d="M 3.76035,3.75 l -0.1,0 3.10862e-15,-0.95 -0.8,0 4.44089e-16,0.95 -0.1,0 0,-0.175 0,-0.875 1,0 0,1.05 z "/>
<path fill="rgb(0,91,140)" stroke="rgb(0,91,140)" d="M 3.8,7.5 l -1.55,0 -4.44089e-16,-0.2 1.55,0 0.0435779,-0.00190265 0.0432462,-0.00569347 0.0425854,-0.00944096 0.0416005,-0.0131166 0.0402991,-0.0166924 0.0386909,-0.0201412 0.0367882,-0.0234367 0.0346056,-0.0265538 0.0321596,-0.0294688 0.0294688,-0.0321596 0.0265538,-0.0346056 0.0234367,-0.0367882 0.0201412,-0.0386909 0.0166924,-0.0402991 0.0131166,-0.0416005 0.00944096,-0.0425854 0.00569347,-0.0432462 0.00190265,-0.0435779 0,-6.1 -0.00190265,-0.0435779 -0.00569347,-0.0432462 -0.00944096,-0.0425854 -0.0131166,-0.0416005 -0.0166924,-0.0402991 -0.0201412,-0.0386909 -0.0234367,-0.0367882 -0.0265538,-0.0346056 -0.0294688,-0.0321596 -0.0321596,-0.0294688 -0.0346056,-0.0265538 -0.0367882,-0.0234367 -0.0386909,-0.0201412 -0.0402991,-0.0166924 -0.0416005,-0.0131166 -0.0425854,-0.00944096 -0.0432462,-0.00569347 -0.0435779,-0.00190265 -1.55,4.44089e-16 0,-0.2 1.55,-4.44089e-16 0.061009,0.00266371 0.0605447,0.00797086 0.0596196,0.0132173 0.0582408,0.0183632 0.0564187,0.0233694 0.0541672,0.0281977 0.0515035,0.0328114 0.0484478,0.0371753 0.0450234,0.0412564 0.0412564,0.0450234 0.0371753,0.0484478 0.0328114,0.0515035 0.0281977,0.0541672 0.0233694,0.0564187 0.0183632,0.0582408 0.0132173,0.0596196 0.00797086,0.0605447 0.00266371,0.061009 1.77636e-15,6.1 -0.00266371,0.061009 -0.00797086,0.0605447 -0.0132173,0.0596196 -0.0183632,0.0582408 -0.0233694,0.0564187 -0.0281977,0.0541672 -0.0328114,0.0515035 -0.0371753,0.0484478 -0.0412564,0.0450234 -0.0450234,0.0412564 -0.0484478,0.0371753 -0.0515035,0.0328114 -0.0541672,0.0281977 -0.0564187,0.0233694 -0.0582408,0.0183632 -0.0596196,0.0132173 -0.0605447,0.00797086 -0.061009,0.00266371 z "/>
<path fill="rgb(0,91,140)" stroke="rgb(0,91,140)" d="M 0,6.8 l 0,-6.1 0.00266371,-0.061009 0.00797086,-0.0605447 0.0132173,-0.0596196 0.0183632,-0.0582408 0.0233694,-0.0564187 0.0281977,-0.0541672 0.0328114,-0.0515035 0.0371753,-0.0484478 0.0412564,-0.0450234 0.0450234,-0.0412564 0.0484478,-0.0371753 0.0515035,-0.0328114 0.0541672,-0.0281977 0.0564187,-0.0233694 0.0582408,-0.0183632 0.0596196,-0.0132173 0.0605447,-0.00797086 0.061009,-0.00266371 1.55,-8.88178e-16 0,0.2 -1.55,4.44089e-16 -0.0435779,0.00190265 -0.0432462,0.00569347 -0.0425854,0.00944096 -0.0416005,0.0131166 -0.0402991,0.0166924 -0.0386909,0.0201412 -0.0367882,0.0234367 -0.0346056,0.0265538 -0.0321596,0.0294688 -0.0294688,0.0321596 -0.0265538,0.0346056 -0.0234367,0.0367882 -0.0201412,0.0386909 -0.0166924,0.0402991 -0.0131166,0.0416005 -0.00944096,0.0425854 -0.00569347,0.0432462 -0.00190265,0.0435779 0,6.1 0.00190265,0.0435779 0.00569347,0.0432462 0.00944096,0.0425854 0.0131166,0.0416005 0.0166924,0.0402991 0.0201412,0.0386909 0.0234367,0.0367882 0.0265538,0.0346056 0.0294688,0.0321596 0.0321596,0.0294688 0.0346056,0.0265538 0.0367882,0.0234367 0.0386909,0.0201412 0.0402991,0.0166924 0.0416005,0.0131166 0.0425854,0.00944096 0.0432462,0.00569347 0.0435779,0.00190265 1.55,0 4.44089e-16,0.2 -1.55,0 -0.061009,-0.00266371 -0.0605447,-0.00797086 -0.0596196,-0.0132173 -0.0582408,-0.0183632 -0.0564187,-0.0233694 -0.0541672,-0.0281977 -0.0515035,-0.0328114 -0.0484478,-0.0371753 -0.0450234,-0.0412564 -0.0412564,-0.0450234 -0.0371753,-0.0484478 -0.0328114,-0.0515035 -0.0281977,-0.0541672 -0.0233694,-0.0564187 -0.0183632,-0.0582408 -0.0132173,-0.0596196 -0.00797086,-0.0605447 -0.00266371,-0.061009 z "/>
<path fill="rgb(241,240,234)" stroke="rgb(241,240,234)" d="M 2.25,0.4 l 0,-0.2 1.55,-4.44089e-16 0.0435779,0.00190265 0.0432462,0.00569347 0.0425854,0.00944096 0.0416005,0.0131166 0.0402991,0.0166924 0.0386909,0.0201412 0.0367882,0.0234367 0.0346056,0.0265538 0.0321596,0.0294688 0.0294688,0.0321596 0.0265538,0.0346056 0.0234367,0.0367882 0.0201412,0.0386909 0.0166924,0.0402991 0.0131166,0.0416005 0.00944096,0.0425854 0.00569347,0.0432462 0.00190265,0.0435779 0,6.1 -0.00190265,0.0435779 -0.00569347,0.0432462 -0.00944096,0.0425854 -0.0131166,0.0416005 -0.0166924,0.0402991 -0.0201412,0.0386909 -0.0234367,0.0367882 -0.0265538,0.0346056 -0.0294688,0.0321596 -0.0321596,0.0294688 -0.0346056,0.0265538 -0.0367882,0.0234367 -0.0386909,0.0201412 -0.0402991,0.0166924 -0.0416005,0.0131166 -0.0425854,0.00944096 -0.0432462,0.00569347 -0.0435779,0.00190265 -1.55,0 0,-0.2 1.55,0 0.0261467,-0.00114159 0.0259477,-0.00341608 0.0255513,-0.00566458 0.0249603,-0.00786996 0.0241794,-0.0100155 0.0232145,-0.0120847 0.0220729,-0.014062 0.0207634,-0.0159323 0.0192958,-0.0176813 0.0176813,-0.0192958 0.0159323,-0.0207634 0.014062,-0.0220729 0.0120847,-0.0232145 0.0100155,-0.0241794 0.00786996,-0.0249603 0.00566458,-0.0255513 0.00341608,-0.0259477 0.00114159,-0.0261467 -1.77636e-15,-6.1 -0.00114159,-0.0261467 -0.00341608,-0.0259477 -0.00566458,-0.0255513 -0.00786996,-0.0249603 -0.0100155,-0.0241794 -0.0120847,-0.0232145 -0.014062,-0.0220729 -0.0159323,-0.0207634 -0.0176813,-0.0192958 -0.0192958,-0.0176813 -0.0207634,-0.0159323 -0.0220729,-0.014062 -0.0232145,-0.0120847 -0.0241794,-0.0100155 -0.0249603,-0.00786996 -0.0255513,-0.00566458 -0.0259477,-0.00341608 -0.0261467,-0.00114159 -1.55,4.44089e-16 z "/>
<path fill="rgb(241,240,234)" stroke="rgb(241,240,234)" d="M 2.25,0.4 l -1.55,4.44089e-16 -0.0261467,0.00114159 -0.0259477,0.00341608 -0.0255513,0.00566458 -0.0249603,0.00786996 -0.0241794,0.0100155 -0.0232145,0.0120847 -0.0220729,0.014062 -0.0207634,0.0159323 -0.0192958,0.0176813 -0.0176813,0.0192958 -0.0159323,0.0207634 -0.014062,0.0220729 -0.0120847,0.0232145 -0.0100155,0.0241794 -0.00786996,0.0249603 -0.00566458,0.0255513 -0.00341608,0.0259477 -0.00114159,0.0261467 4.44089e-16,6.1 0.00114159,0.0261467 0.00341608,0.0259477 0.00566458,0.0255513 0.00786996,0.0249603 0.0100155,0.0241794 0.0120847,0.0232145 0.014062,0.0220729 0.0159323,0.0207634 0.0176813,0.0192958 0.0192958,0.0176813 0.0207634,0.0159323 0.0220729,0.014062 0.0232145,0.0120847 0.0241794,0.0100155 0.0249603,0.00786996 0.0255513,0.00566458 0.0259477,0.00341608 0.0261467,0.00114159 1.55,0 0,0.2 -1.55,0 -0.0435779,-0.00190265 -0.0432462,-0.00569347 -0.0425854,-0.00944096 -0.0416005,-0.0131166 -0.0402991,-0.0166924 -0.0386909,-0.0201412 -0.0367882,-0.0234367 -0.0346056,-0.0265538 -0.0321596,-0.0294688 -0.0294688,-0.0321596 -0.0265538,-0.0346056 -0.0234367,-0.0367882 -0.0201412,-0.0386909 -0.0166924,-0.0402991 -0.0131166,-0.0416005 -0.00944096,-0.0425854 -0.00569347,-0.0432462 -0.00190265,-0.0435779 0,-6.1 0.00190265,-0.0435779 0.00569347,-0.0432462 0.00944096,-0.0425854 0.0131166,-0.0416005 0.0166924,-0.0402991 0.0201412,-0.0386909 0.0234367,-0.0367882 0.0265538,-0.0346056 0.0294688,-0.0321596 0.0321596,-0.0294688 0.0346056,-0.0265538 0.0367882,-0.0234367 0.0386909,-0.0201412 0.0402991,-0.0166924 0.0416005,-0.0131166 0.0425854,-0.00944096 0.0432462,-0.00569347 0.0435779,-0.00190265 1.55,-4.44089e-16 0,0.2 z "/>
<path fill="rgb(187,30,16)" stroke="rgb(187,30,16)" d="M 3.66035,4.7 l -4.44089e-16,-0.95 3.10862e-15,-0.95 -0.8,0 4.44089e-16,0.95 0,0.95 0.8,0 z "/>
</g></g></svg>
