<?xml version="1.0" encoding="UTF-8" standalone="no"?>
<!DOCTYPE svg PUBLIC "-//W3C//DTD SVG 1.1//EN" "http://www.w3.org/Graphics/SVG/1.1/DTD/svg11-flat.dtd"
[

]>
<svg xmlns="http://www.w3.org/2000/svg"  viewBox="-0.05625 -0.05625 4.6125 7.6125"><g fill="none" stroke="black" stroke-width="0.0125" transform="translate(0,7.5) scale(1, -1)">
<g id="Output" >
<path fill="rgb(0,91,140)" stroke="rgb(0,91,140)" d="M 0.7,0.4 l 1.55,-4.44089e-16 1.55,-4.44089e-16 0.0261467,0.00114159 0.0259477,0.00341608 0.0255513,0.00566458 0.0249603,0.00786996 0.0241794,0.0100155 0.0232145,0.0120847 0.0220729,0.014062 0.0207634,0.0159323 0.0192958,0.0176813 0.0176813,0.0192958 0.0159323,0.0207634 0.014062,0.0220729 0.0120847,0.0232145 0.0100155,0.0241794 0.00786996,0.0249603 0.00566458,0.0255513 0.00341608,0.0259477 0.00114159,0.0261467 0,6.1 -0.00114159,0.0261467 -0.00341608,0.0259477 -0.00566458,0.0255513 -0.00786996,0.0249603 -0.0100155,0.0241794 -0.0120847,0.0232145 -0.014062,0.0220729 -0.0159323,0.0207634 -0.0176813,0.0192958 -0.0192958,0.0176813 -0.0207634,0.0159323 -0.0220729,0.014062 -0.0232145,0.0120847 -0.0241794,0.0100155 -0.0249603,0.00786996 -0.0255513,0.00566458 -0.0259477,0.00341608 -0.0261467,0.00114159 -1.55,0 -1.55,0 -0.0261467,-0.00114159 -0.0259477,-0.00341608 -0.0255513,-0.00566458 -0.0249603,-0.00786996 -0.0241794,-0.0100155 -0.0232145,-0.0120847 -0.0220729,-0.014062 -0.0207634,-0.0159323 -0.0192958,-0.0176813 -0.0176813,-0.0192958 -0.0159323,-0.0207634 -0.014062,-0.0220729 -0.0120847,-0.0232145 -0.0100155,-0.0241794 -0.00786996,-0.0249603 -0.00566458,-0.0255513 -0.00341608,-0.0259477 -0.00114159,-0.0261467 -4.44089e-16,-6.1 0.00114159,-0.0261467 0.00341608,-0.0259477 0.00566458,-0.0255513 0.00786996,-0.0249603 0.0100155,-0.0241794 0.0120847,-0.0232145 0.014062,-0.0220729 0.0159323,-0.0207634 0.0176813,-0.0192958 0.0192958,-0.0176813 0.0207634,-0.0159323 0.0220729,-0.014062 0.0232145,-0.0120847 0.0241794,-0.0100155 0.0249603,-0.00786996 0.0255513,-0.00566458 0.0259477,-0.00341608 0.0261467,-0.00114159 z "/>
<path fill="rgb(0,91,140)" stroke="rgb(0,91,140)" d="M 3.8,7.5 l -1.55,0 -4.44089e-16,-0.2 1.55,0 0.0435779,-0.00190265 0.0432462,-0.00569347 0.0425854,-0.00944096 0.0416005,-0.0131166 0.0402991,-0.0166924 0.0386909,-0.0201412 0.0367882,-0.0234367 0.0346056,-0.0265538 0.0321596,-0.0294688 0.0294688,-0.0321596 0.0265538,-0.0346056 0.0234367,-0.0367882 0.0201412,-0.0386909 0.0166924,-0.0402991 0.0131166,-0.0416005 0.00944096,-0.0425854 0.00569347,-0.0432462 0.00190265,-0.0435779 0,-6.1 -0.00190265,-0.0435779 -0.00569347,-0.0432462 -0.00944096,-0.0425854 -0.0131166,-0.0416005 -0.0166924,-0.0402991 -0.0201412,-0.0386909 -0.0234367,-0.0367882 -0.0265538,-0.0346056 -0.0294688,-0.0321596 -0.0321596,-0.0294688 -0.0346056,-0.0265538 -0.0367882,-0.0234367 -0.0386909,-0.0201412 -0.0402991,-0.0166924 -0.0416005,-0.0131166 -0.0425854,-0.00944096 -0.0432462,-0.00569347 -0.0435779,-0.00190265 -1.55,4.44089e-16 0,-0.2 1.55,-4.44089e-16 0.061009,0.00266371 0.0605447,0.00797086 0.0596196,0.0132173 0.0582408,0.0183632 0.0564187,0.0233694 0.0541672,0.0281977 0.0515035,0.0328114 0.0484478,0.0371753 0.0450234,0.0412564 0.0412564,0.0450234 0.0371753,0.0484478 0.0328114,0.0515035 0.0281977,0.0541672 0.0233694,0.0564187 0.0183632,0.0582408 0.0132173,0.0596196 0.00797086,0.0605447 0.00266371,0.061009 8.88178e-16,6.1 -0.00266371,0.061009 -0.00797086,0.0605447 -0.0132173,0.0596196 -0.0183632,0.0582408 -0.0233694,0.0564187 -0.0281977,0.0541672 -0.0328114,0.0515035 -0.0371753,0.0484478 -0.0412564,0.0450234 -0.0450234,0.0412564 -0.0484478,0.0371753 -0.0515035,0.0328114 -0.0541672,0.0281977 -0.0564187,0.0233694 -0.0582408,0.0183632 -0.0596196,0.0132173 -0.0605447,0.00797086 -0.061009,0.00266371 z "/>
<path fill="rgb(0,91,140)" stroke="rgb(0,91,140)" d="M 0,6.8 l 0,-6.1 0.00266371,-0.061009 0.00797086,-0.0605447 0.0132173,-0.0596196 0.0183632,-0.0582408 0.0233694,-0.0564187 0.0281977,-0.0541672 0.0328114,-0.0515035 0.0371753,-0.0484478 0.0412564,-0.0450234 0.0450234,-0.0412564 0.0484478,-0.0371753 0.0515035,-0.0328114 0.0541672,-0.0281977 0.0564187,-0.0233694 0.0582408,-0.0183632 0.0596196,-0.0132173 0.0605447,-0.00797086 0.061009,-0.00266371 1.55,-8.88178e-16 0,0.2 -1.55,4.44089e-16 -0.0435779,0.00190265 -0.0432462,0.00569347 -0.0425854,0.00944096 -0.0416005,0.0131166 -0.0402991,0.0166924 -0.0386909,0.0201412 -0.0367882,0.0234367 -0.0346056,0.0265538 -0.0321596,0.0294688 -0.0294688,0.0321596 -0.0265538,0.0346056 -0.0234367,0.0367882 -0.0201412,0.0386909 -0.0166924,0.0402991 -0.0131166,0.0416005 -0.00944096,0.0425854 -0.00569347,0.0432462 -0.00190265,0.0435779 0,6.1 0.00190265,0.0435779 0.00569347,0.0432462 0.00944096,0.0425854 0.0131166,0.0416005 0.0166924,0.0402991 0.0201412,0.0386909 0.0234367,0.0367882 0.0265538,0.0346056 0.0294688,0.0321596 0.0321596,0.0294688 0.0346056,0.0265538 0.0367882,0.0234367 0.0386909,0.0201412 0.0402991,0.0166924 0.0416005,0.0131166 0.0425854,0.00944096 0.0432462,0.00569347 0.0435779,0.00190265 1.55,0 4.44089e-16,0.2 -1.55,0 -0.061009,-0.00266371 -0.0605447,-0.00797086 -0.0596196,-0.0132173 -0.0582408,-0.0183632 -0.0564187,-0.0233694 -0.0541672,-0.0281977 -0.0515035,-0.0328114 -0.0484478,-0.0371753 -0.0450234,-0.0412564 -0.0412564,-0.0450234 -0.0371753,-0.0484478 -0.0328114,-0.0515035 -0.0281977,-0.0541672 -0.0233694,-0.0564187 -0.0183632,-0.0582408 -0.0132173,-0.0596196 -0.00797086,-0.0605447 -0.00266371,-0.061009 z "/>
<path fill="rgb(241,240,234)" stroke="rgb(241,240,234)" d="M 2.25,0.4 l 0,-0.2 1.55,-4.44089e-16 0.0435779,0.00190265 0.0432462,0.00569347 0.0425854,0.00944096 0.0416005,0.0131166 0.0402991,0.0166924 0.0386909,0.0201412 0.0367882,0.0234367 0.0346056,0.0265538 0.0321596,0.0294688 0.0294688,0.0321596 0.0265538,0.0346056 0.0234367,0.0367882 0.0201412,0.0386909 0.0166924,0.0402991 0.0131166,0.0416005 0.00944096,0.0425854 0.00569347,0.0432462 0.00190265,0.0435779 0,6.1 -0.00190265,0.0435779 -0.00569347,0.0432462 -0.00944096,0.0425854 -0.0131166,0.0416005 -0.0166924,0.0402991 -0.0201412,0.0386909 -0.0234367,0.0367882 -0.0265538,0.0346056 -0.0294688,0.0321596 -0.0321596,0.0294688 -0.0346056,0.0265538 -0.0367882,0.0234367 -0.0386909,0.0201412 -0.0402991,0.0166924 -0.0416005,0.0131166 -0.0425854,0.00944096 -0.0432462,0.00569347 -0.0435779,0.00190265 -1.55,0 0,-0.2 1.55,0 0.0261467,-0.00114159 0.0259477,-0.00341608 0.0255513,-0.00566458 0.0249603,-0.00786996 0.0241794,-0.0100155 0.0232145,-0.0120847 0.0220729,-0.014062 0.0207634,-0.0159323 0.0192958,-0.0176813 0.0176813,-0.0192958 0.0159323,-0.0207634 0.014062,-0.0220729 0.0120847,-0.0232145 0.0100155,-0.0241794 0.00786996,-0.0249603 0.00566458,-0.0255513 0.00341608,-0.0259477 0.00114159,-0.0261467 0,-6.1 -0.00114159,-0.0261467 -0.00341608,-0.0259477 -0.00566458,-0.0255513 -0.00786996,-0.0249603 -0.0100155,-0.0241794 -0.0120847,-0.0232145 -0.014062,-0.0220729 -0.0159323,-0.0207634 -0.0176813,-0.0192958 -0.0192958,-0.0176813 -0.0207634,-0.0159323 -0.0220729,-0.014062 -0.0232145,-0.0120847 -0.0241794,-0.0100155 -0.0249603,-0.00786996 -0.0255513,-0.00566458 -0.0259477,-0.00341608 -0.0261467,-0.00114159 -1.55,4.44089e-16 z "/>
<path fill="rgb(241,240,234)" stroke="rgb(241,240,234)" d="M 0.7,0.4 l -0.0261467,0.00114159 -0.0259477,0.00341608 -0.0255513,0.00566458 -0.0249603,0.00786996 -0.0241794,0.0100155 -0.0232145,0.0120847 -0.0220729,0.014062 -0.0207634,0.0159323 -0.0192958,0.0176813 -0.0176813,0.0192958 -0.0159323,0.0207634 -0.014062,0.0220729 -0.0120847,0.0232145 -0.0100155,0.0241794 -0.00786996,0.0249603 -0.00566458,0.0255513 -0.00341608,0.0259477 -0.00114159,0.0261467 4.44089e-16,6.1 0.00114159,0.0261467 0.00341608,0.0259477 0.00566458,0.0255513 0.00786996,0.0249603 0.0100155,0.0241794 0.0120847,0.0232145 0.014062,0.0220729 0.0159323,0.0207634 0.0176813,0.0192958 0.0192958,0.0176813 0.0207634,0.0159323 0.0220729,0.014062 0.0232145,0.0120847 0.0241794,0.0100155 0.0249603,0.00786996 0.0255513,0.00566458 0.0259477,0.00341608 0.0261467,0.00114159 1.55,0 0,0.2 -1.55,0 -0.0435779,-0.00190265 -0.0432462,-0.00569347 -0.0425854,-0.00944096 -0.0416005,-0.0131166 -0.0402991,-0.0166924 -0.0386909,-0.0201412 -0.0367882,-0.0234367 -0.0346056,-0.0265538 -0.0321596,-0.0294688 -0.0294688,-0.0321596 -0.0265538,-0.0346056 -0.0234367,-0.0367882 -0.0201412,-0.0386909 -0.0166924,-0.0402991 -0.0131166,-0.0416005 -0.00944096,-0.0425854 -0.00569347,-0.0432462 -0.00190265,-0.0435779 0,-6.1 0.00190265,-0.0435779 0.00569347,-0.0432462 0.00944096,-0.0425854 0.0131166,-0.0416005 0.0166924,-0.0402991 0.0201412,-0.0386909 0.0234367,-0.0367882 0.0265538,-0.0346056 0.0294688,-0.0321596 0.0321596,-0.0294688 0.0346056,-0.0265538 0.0367882,-0.0234367 0.0386909,-0.0201412 0.0402991,-0.0166924 0.0416005,-0.0131166 0.0425854,-0.00944096 0.0432462,-0.00569347 0.0435779,-0.00190265 1.55,-4.44089e-16 0,0.2 -1.55,4.44089e-16 z "/>
<path fill="rgb(241,240,234)" stroke="rgb(241,240,234)" d="M 3.92841,1.80133 l -0.0354145,-0.00751216 -0.0397071,-0.032195 0.0686826,-0.0676094 0.0107317,-0.00107317 0.0397071,-0.0268291 0.0300486,0.10839 -0.0268291,0.0171706 -0.0472193,0.00965849 z "/>
<path fill="rgb(241,240,234)" stroke="rgb(241,240,234)" d="M 3.85329,1.79489 l -0.0955117,0 0,-0.456095 0.0955117,0 0,0.267218 0.00107317,0.019317 0.019317,0.0450729 0.00536583,0.00536583 0.0429266,0.0182438 -0.0686826,0.0676094 0,0.0332681 z "/>
<path fill="rgb(241,240,234)" stroke="rgb(241,240,234)" d="M 3.52597,1.80133 l -0.0418535,-0.00643899 -0.0407803,-0.0225365 -0.0354145,-0.0397071 -0.00643899,-0.00858532 0.127707,-0.0236096 0.0407803,-0.0171706 0.00643899,-0.00858532 0.019317,-0.0558046 -0.137365,0 0.229657,-0.0203901 -0.0118048,0.0558046 -0.00965849,0.0311218 -0.0236096,0.0461461 -0.0311218,0.0364876 -0.0407803,0.0246828 -0.0450729,0.00858532 z "/>
<path fill="rgb(241,240,234)" stroke="rgb(241,240,234)" d="M 3.40149,1.72406 l -0.0225365,-0.0472193 -0.0139512,-0.0525851 -0.00536583,-0.0579509 0.00107317,-0.0160975 0.00643899,-0.0568778 0.0160975,-0.0515119 0.025756,-0.0450729 0.0343413,-0.0375608 0.0397071,-0.0236096 0.0461461,-0.00751216 0.0461461,0.00751216 0.0407803,0.0225365 0.0343413,0.0397071 0.0032195,0.00429266 -0.124487,0.0279023 -0.0032195,0.00107317 -0.0418535,0.0225365 -0.00751216,0.0107317 -0.0203901,0.0515119 -0.0032195,0.0160975 0.23717,0 0,0.032195 -0.00214633,0.0343413 -0.229657,0.0203901 0.00643899,0.025756 0.025756,0.0418535 0.038634,0.0139512 -0.127707,0.0236096 z "/>
<path fill="rgb(241,240,234)" stroke="rgb(241,240,234)" d="M 3.59036,1.46758 l -0.019317,-0.0203901 -0.0418535,-0.0171706 0.124487,-0.0279023 -0.0633168,0.0654631 z "/>
<path fill="rgb(241,240,234)" stroke="rgb(241,240,234)" d="M 3.14393,1.80133 l -0.0407803,-0.00643899 -0.0418535,-0.0225365 -0.0343413,-0.0397071 -0.00643899,-0.00858532 0.127707,-0.0236096 0.0397071,-0.0171706 0.00643899,-0.00858532 0.0203901,-0.0558046 -0.138438,0 0.229657,-0.0203901 -0.0107317,0.0558046 -0.0107317,0.0311218 -0.0225365,0.0461461 -0.032195,0.0364876 -0.0397071,0.0246828 -0.0461461,0.00858532 z "/>
<path fill="rgb(241,240,234)" stroke="rgb(241,240,234)" d="M 3.02051,1.72406 l -0.0236096,-0.0472193 -0.0139512,-0.0525851 -0.00429266,-0.0579509 0,-0.0160975 0.00751216,-0.0568778 0.0160975,-0.0515119 0.0246828,-0.0450729 0.0343413,-0.0375608 0.0407803,-0.0236096 0.0461461,-0.00751216 0.0450729,0.00751216 0.0407803,0.0225365 0.0354145,0.0397071 0.0032195,0.00429266 -0.124487,0.0279023 -0.00429266,0.00107317 -0.0418535,0.0225365 -0.00751216,0.0107317 -0.019317,0.0515119 -0.00429266,0.0160975 0.23717,0 0,0.032195 -0.00214633,0.0343413 -0.229657,0.0203901 0.00751216,0.025756 0.025756,0.0418535 0.038634,0.0139512 -0.127707,0.0236096 z "/>
<path fill="rgb(241,240,234)" stroke="rgb(241,240,234)" d="M 3.20939,1.46758 l -0.0203901,-0.0203901 -0.0407803,-0.0171706 0.124487,-0.0279023 -0.0633168,0.0654631 z "/>
<path fill="rgb(241,240,234)" stroke="rgb(241,240,234)" d="M 2.73291,1.79489 l -0.0504388,-0.180292 0.0547314,-0.275804 0.0482924,0.199609 -0.0525851,0.256487 z "/>
<path fill="rgb(241,240,234)" stroke="rgb(241,240,234)" d="M 2.73291,1.79489 l -0.100878,0 -0.0493656,-0.259706 -0.0450729,-0.196389 0.0912191,0 0.0536583,0.275804 0.0504388,0.180292 z "/>
<path fill="rgb(241,240,234)" stroke="rgb(241,240,234)" d="M 2.52257,1.79489 l -0.0933654,0 0.10839,-0.456095 0.0450729,0.196389 -0.0600973,0.259706 z "/>
<path fill="rgb(241,240,234)" stroke="rgb(241,240,234)" d="M 2.93573,1.79489 l -0.0922922,0 -0.0579509,-0.256487 -0.0482924,-0.199609 0.0901459,0 0.10839,0.456095 z "/>
<path fill="rgb(241,240,234)" stroke="rgb(241,240,234)" d="M 2.37232,1.97304 l -0.0976581,-0.0407803 0,-0.166341 -0.184584,-0.0332681 -0.00536583,-0.00965849 0.130926,-0.0289755 0.025756,-0.00751216 0.0332681,-0.0407803 0,-0.157755 -0.019317,-0.032195 -0.0397071,-0.0182438 -0.12556,-0.0364876 0.184584,-0.0300486 0,-0.032195 0.0976581,0 0,0.634241 z "/>
<path fill="rgb(241,240,234)" stroke="rgb(241,240,234)" d="M 2.19954,1.80562 l -0.0343413,-0.00536583 -0.0397071,-0.0246828 -0.0354145,-0.0429266 0.184584,0.0332681 -0.0343413,0.0311218 -0.0407803,0.00858532 z "/>
<path fill="rgb(241,240,234)" stroke="rgb(241,240,234)" d="M 2.08471,1.72299 l -0.0225365,-0.0472193 -0.012878,-0.0536583 -0.00429266,-0.0579509 0,-0.00751216 0.00536583,-0.0568778 0.0150243,-0.0515119 0.0246828,-0.0472193 0.12556,0.0364876 -0.019317,0.0032195 -0.0364876,0.0343413 -0.0150243,0.0343413 -0.00751216,0.0568778 0.00429266,0.0418535 0.0182438,0.0493656 0.0139512,0.0182438 0.0418535,0.0182438 -0.130926,0.0289755 z "/>
<path fill="rgb(241,240,234)" stroke="rgb(241,240,234)" d="M 2.09008,1.40104 l 0.0268291,-0.032195 0.038634,-0.0279023 0.0439998,-0.00858532 0.0407803,0.00751216 0.0343413,0.0311218 -0.184584,0.0300486 z "/>
<path fill="rgb(241,240,234)" stroke="rgb(241,240,234)" d="M 1.82823,1.80348 l -0.00858532,-0.00107317 -0.0461461,-0.012878 -0.0364876,-0.032195 0.222145,-0.038634 -0.0279023,0.0429266 -0.0118048,0.0107317 -0.0418535,0.0236096 -0.0493656,0.00751216 z "/>
<path fill="rgb(241,240,234)" stroke="rgb(241,240,234)" d="M 1.73701,1.79489 l -0.0944386,0 0,-0.456095 0.0944386,0 0,0.273657 0.00107317,0.00965849 0.019317,0.0493656 0.00536583,0.00751216 0.0429266,0.0182438 0.153463,0.0214633 -0.222145,0.038634 0,0.0375608 z "/>
<path fill="rgb(241,240,234)" stroke="rgb(241,240,234)" d="M 1.95915,1.7187 l -0.153463,-0.0214633 0.0107317,0 0.0407803,-0.0225365 0.00643899,-0.00965849 0.0139512,-0.0525851 0,-0.273657 0.0922922,0 0,0.317657 0,0.00858532 -0.0107317,0.0536583 z "/>
<path fill="rgb(241,240,234)" stroke="rgb(241,240,234)" d="M 1.39896,1.80562 l -0.00429266,0 -0.0450729,-0.00536583 -0.0450729,-0.0160975 -0.0472193,-0.0246828 0.0397071,-0.0965849 0.00643899,0.00429266 0.0439998,0.0225365 0.0461461,0.00751216 0.143804,0.0203901 -0.0214633,0.038634 -0.0300486,0.0279023 -0.038634,0.0160975 -0.0482924,0.00536583 z "/>
<path fill="rgb(241,240,234)" stroke="rgb(241,240,234)" d="M 1.5374,1.71762 l -0.143804,-0.0203901 0.019317,-0.00214633 0.0354145,-0.0236096 0.0160975,-0.0482924 0.0890727,-0.00858532 -0.0032195,0.0547314 -0.012878,0.0482924 z "/>
<path fill="rgb(241,240,234)" stroke="rgb(241,240,234)" d="M 1.3775,1.63928 l -0.0160975,-0.00107317 -0.0482924,-0.00965849 -0.0397071,-0.0225365 -0.0139512,-0.0150243 -0.0236096,-0.0439998 0.145951,-0.00107317 0.0343413,-0.0032195 0.0482924,-0.0171706 0,-0.0708289 -0.0418535,-0.0171706 -0.0429266,-0.00751216 -0.136292,-0.0236096 0.0279023,-0.0397071 0.00643899,-0.00536583 0.186731,-0.0032195 0,-0.019317 0.0890727,0 0,0.275804 -0.0890727,0.00858532 -0.038634,0.0107317 -0.0482924,0.00536583 z "/>
<path fill="rgb(241,240,234)" stroke="rgb(241,240,234)" d="M 1.23584,1.54699 l -0.00751216,-0.0568778 0.00107317,-0.0311218 0.0139512,-0.0525851 0.136292,0.0236096 -0.00536583,0 -0.0429266,0.0182438 -0.0182438,0.0418535 0.0182438,0.0397071 0.00429266,0.0032195 0.0461461,0.012878 -0.145951,0.00107317 z "/>
<path fill="rgb(241,240,234)" stroke="rgb(241,240,234)" d="M 1.27769,1.36133 l 0.0407803,-0.0236096 0.0493656,-0.00751216 0.00429266,0 0.0482924,0.00751216 0.0439998,0.0203901 -0.186731,0.0032195 z "/>
<path fill="rgb(241,240,234)" stroke="rgb(241,240,234)" d="M 1.11672,1.80133 l -0.0354145,-0.00751216 -0.0397071,-0.032195 0.0686826,-0.0676094 0.0118048,-0.00107317 0.038634,-0.0268291 0.0300486,0.10839 -0.0268291,0.0171706 -0.0472193,0.00965849 z "/>
<path fill="rgb(241,240,234)" stroke="rgb(241,240,234)" d="M 1.0416,1.79489 l -0.0955117,0 0,-0.456095 0.0955117,0 0,0.267218 0.00107317,0.019317 0.019317,0.0450729 0.00536583,0.00536583 0.0429266,0.0182438 -0.0686826,0.0676094 0,0.0332681 z "/>
<path fill="rgb(241,240,234)" stroke="rgb(241,240,234)" d="M 0.63594,1.97304 l -0.0955117,-0.0407803 0,-0.59346 0.0955117,0 0,0.0171706 0.145951,0.00107317 0.0364876,0.0418535 0.00536583,0.00858532 -0.127707,0.0300486 -0.0279023,0.00858532 -0.032195,0.0418535 0,0.157755 0.0236096,0.0311218 0.0375608,0.0171706 0.123414,0.0364876 -0.0279023,0.0364876 -0.156682,0.00965849 0,0.196389 z "/>
<path fill="rgb(241,240,234)" stroke="rgb(241,240,234)" d="M 0.709989,1.80348 l -0.0289755,-0.00429266 -0.0450729,-0.0225365 0.156682,-0.00965849 -0.038634,0.0268291 -0.0439998,0.00965849 z "/>
<path fill="rgb(241,240,234)" stroke="rgb(241,240,234)" d="M 0.820525,1.7305 l -0.123414,-0.0364876 0.0225365,-0.0032195 0.0343413,-0.0332681 0.0107317,-0.0311218 0.00643899,-0.0600973 -0.0032195,-0.0429266 -0.0171706,-0.0493656 -0.0139512,-0.0182438 -0.0407803,-0.0182438 0.127707,-0.0300486 0.0236096,0.0482924 0.0150243,0.0525851 0.00429266,0.0558046 0,0.00965849 -0.00643899,0.0558046 -0.0150243,0.0525851 -0.0246828,0.0482924 z "/>
<path fill="rgb(241,240,234)" stroke="rgb(241,240,234)" d="M 0.781891,1.35704 l -0.145951,-0.00107317 0.0246828,-0.0182438 0.0461461,-0.0107317 0.0343413,0.00536583 0.0407803,0.0246828 z "/>
<path fill="rgb(241,240,234)" stroke="rgb(241,240,234)" d="M 2.55798,6.76794 l -1.46809,0 0,-3.49959 0.57307,0 0,1.37258 0.89502,0 0.0912191,0.00214633 0.109463,0.0107317 0.101951,0.0182438 0.0944386,0.0268291 0.0879996,0.0354145 0.0794142,0.0439998 0.0847801,0.0600973 0.0783411,0.0697558 0.0719021,0.0772679 0.0633168,0.0858532 0.0547314,0.0944386 0.0472193,0.0998044 -1.8598,0.00214633 0,0.872484 0.91863,0 0.93902,0.025756 -0.0450729,0.0890727 -0.0536583,0.0847801 -0.0622436,0.0783411 -0.0719021,0.0729753 -0.0804874,0.0676094 -0.0890727,0.0611704 -0.0643899,0.0364876 -0.0890727,0.0397071 -0.0944386,0.0311218 -0.0987312,0.0225365 -0.104097,0.0139512 -0.109463,0.00429266 z "/>
<path fill="rgb(241,240,234)" stroke="rgb(241,240,234)" d="M 3.52061,6.16589 l -0.93902,-0.025756 0.0676094,-0.0032195 0.104097,-0.019317 0.0890727,-0.038634 0.0740484,-0.0558046 0.0246828,-0.0268291 0.0568778,-0.0869264 0.0354145,-0.0998044 0.0107317,-0.112682 0,-0.0289755 -0.0182438,-0.110536 -0.0429266,-0.0944386 -0.0665363,-0.0772679 -0.0450729,-0.0354145 -0.0858532,-0.0450729 -0.0965849,-0.0279023 -0.107317,-0.00965849 -0.91863,0 1.8598,-0.00214633 0.0375608,0.10517 0.0268291,0.107317 0.0160975,0.10839 0.00536583,0.110536 0,0.0515119 -0.00858532,0.112682 -0.0182438,0.107317 -0.025756,0.100878 -0.0354145,0.0965849 z "/>
</g></g></svg>
