<?xml version="1.0" encoding="UTF-8" standalone="no"?>
<!DOCTYPE svg PUBLIC "-//W3C//DTD SVG 1.1//EN" "http://www.w3.org/Graphics/SVG/1.1/DTD/svg11-flat.dtd"
[

]>
<svg xmlns="http://www.w3.org/2000/svg"  viewBox="-0.125044 -0.125044 10.2536 12.7519"><g fill="none" stroke="black" stroke-width="0.0125" transform="translate(0,12.5018) scale(1, -1)">
<g id="Output" >
<path fill="rgb(0,91,140)" stroke="rgb(0,91,140)" d="M 4.41612,5.67088 l 0.108656,-0.211457 0.032024,0.0104294 0.0327948,0.00766888 0.0333281,0.00485281 0.03362,0.00200161 0.0336684,-0.000864096 0.033473,-0.00372354 0.0330352,-0.00655602 0.0323582,-0.00934102 0.0738292,0.218762 -1.91064,1.91064 -0.108818,-0.183025 -0.0925152,-0.191783 -0.0755136,-0.199091 -0.0579416,-0.204896 -0.039932,-0.209153 -0.0216207,-0.21183 -0.0031461,-0.212908 0.0153522,-0.212377 0.0337346,-0.210242 0.0518622,-0.206519 0.069598,-0.201235 0.0868082,-0.194432 0.103363,-0.186161 0.119136,-0.176483 0.0640209,0.0512547 -0.0207643,0.0282645 -0.0181786,0.029993 -0.0154498,0.0314856 -0.0125996,0.0327306 -0.00965021,0.0337181 -0.00662496,0.0344405 -0.00354761,0.034892 -0.000442364,0.0350691 0.00266636,0.0349704 0.00575412,0.0345967 0.00879662,0.0339508 0.0117699,0.033038 0.0146507,0.0318653 0.0174162,0.030442 0.0200448,0.0287793 0.0225157,0.0268902 0.0248095,0.0247897 0.0269082,0.0224941 0.0287953,0.0200217 0.0304559,0.0173918 0.031877,0.0146252 0.0330474,0.0117435 0.0339579,0.00876943 0.0346013,0.00572641 0.0349725,0.00263835 0.0350688,-0.000470454 0.0348892,-0.00357556 0.0344352,-0.00665254 0.140971,0.402358 0.00374878,0.0112323 0.00470019,0.0108686 0.00561682,0.0104245 0.0064919,0.00990324 0.00731894,0.00930871 0.00809183,0.0086453 0.00880485,0.00791793 0.00945272,0.00713197 0.0100307,0.00629324 0.0105344,0.00540795 0.0109601,0.00448265 0.0113048,0.00352418 0.0115659,0.00253964 0.0117413,0.0015363 0.0118299,0.000521601 0.117458,0.000122326 0,-0.0822212 -0.1028,0 -0.00541303,0.000411154 -0.00542817,-7.0486e-05 -0.00540053,-0.000551571 -0.00533034,-0.00102831 -0.00521815,-0.00149695 -0.00506485,-0.00195379 -0.00487163,-0.00239523 -0.00464004,-0.00281781 -0.00437188,-0.00321818 -0.00406927,-0.00359319 -0.0037346,-0.00393989 -0.0033705,-0.00425555 -0.00297984,-0.00453768 -0.00256571,-0.00478405 -0.00213136,-0.00499272 -0.0470182,-0.125266 0.681384,0 0.0381946,0.0822451 -0.117476,0 -0.00358407,0.000156484 -0.00355679,0.00046826 -0.00350244,0.000776473 -0.00342144,0.00107878 -0.0033144,0.00137287 -0.00318213,0.00165651 -0.00302565,0.00192755 -0.00284614,0.00218392 -0.00264497,0.00242367 -0.00242367,0.00264497 -0.00218392,0.00284614 -0.00192755,0.00302565 -0.00165651,0.00318213 -0.00137287,0.0033144 -0.00107878,0.00342144 -0.000776473,0.00350244 -0.00046826,0.00355679 -0.000156484,0.00358407 0.000156484,0.00358407 0.00046826,0.00355679 0.000776473,0.00350244 0.00107878,0.00342144 0.00137287,0.0033144 0.00165651,0.00318213 0.00192755,0.00302565 0.00218392,0.00284614 0.00242367,0.00264497 0.00264497,0.00242367 0.00284614,0.00218392 0.00302565,0.00192755 0.00318213,0.00165651 0.0033144,0.00137287 0.00342144,0.00107878 0.00350244,0.000776473 0.00355679,0.00046826 0.00358407,0.000156484 0.302498,0 0,-0.0822451 -0.0969206,0 -0.0646058,-0.143911 z "/>
<path fill="rgb(0,91,140)" stroke="rgb(0,91,140)" d="M 4.8629,5.68265 l -0.0738292,-0.218762 0.0338542,-0.0131105 0.0325104,-0.0161576 0.030893,-0.0190687 0.0290157,-0.0218194 0.0268942,-0.0243864 0.0245464,-0.0267483 0.0211233,-0.0276613 0.0185846,-0.0294271 0.0158992,-0.0309606 0.0130882,-0.0322496 0.010174,-0.0332841 0.00717938,-0.0340558 0.0041281,-0.0345586 0.00104424,-0.0347886 -0.00204787,-0.034744 -0.00512381,-0.0344251 -0.0081593,-0.0338344 -0.0111304,-0.0329766 -0.0140136,-0.0318584 -0.0167861,-0.0304888 -0.0194262,-0.0288784 -0.0219129,-0.0270401 -0.0242266,-0.0249883 -0.026349,-0.0227392 -0.0282634,-0.0203106 -0.0299547,-0.0177216 -0.0317077,-0.0151422 -0.0329222,-0.0122798 -0.0338789,-0.00932135 -0.0345703,-0.00628988 -0.034991,-0.00320915 -0.0351377,-0.000103293 -0.0350092,0.00300337 -0.0346066,0.00608652 -0.0339331,0.00912201 -0.0329938,0.0120861 -0.0317962,0.0149555 -0.0303496,0.0177078 -0.0286654,0.0203215 -0.0267567,0.022776 -0.0246385,0.0250522 -0.0223273,0.0271322 -0.0198414,0.0289998 -0.0172,0.0306403 -0.014424,0.0320408 -0.011535,0.0331905 -0.00855575,0.0340803 -0.00550947,0.0347032 -0.187985,0 -0.466976,0.516918 -0.0411225,-0.120416 0.029618,-0.0158693 0.0281629,-0.0183278 0.0265044,-0.0206537 0.0246542,-0.0228304 0.0226258,-0.0248421 0.0204339,-0.0266742 0.0180943,-0.0283135 0.0156239,-0.0297481 0.0130406,-0.0309678 0.010363,-0.0319635 0.00761046,-0.0327283 0.00480295,-0.0332564 0.00196072,-0.0335442 -0.000895681,-0.0335895 -0.00374561,-0.033392 -0.00656846,-0.0329532 -0.00934384,-0.0322762 -0.0120517,-0.0313658 -0.0146724,-0.0302288 -0.0178279,-0.0298354 -0.0203927,-0.0281447 -0.0227981,-0.0262342 -0.0250254,-0.0241187 -0.0270573,-0.0218148 -0.0288778,-0.0193405 -0.0304727,-0.0167152 -0.0318296,-0.0139592 -0.0329379,-0.0110943 -0.0337888,-0.00814262 -0.0343758,-0.00512737 -0.0346943,-0.00207206 -0.0347417,0.000999428 -0.0345178,0.00406311 -0.0340242,0.00709506 -0.0332648,0.0100716 -0.0322456,0.0129694 -0.0309745,0.015766 -0.0294614,0.0184393 -0.0277182,0.0209687 -0.0198219,0.0175736 -0.0186009,0.0188612 -0.0172965,0.0200641 -0.0640209,-0.0512547 0.1374,-0.169297 0.151908,-0.15641 0.165212,-0.142285 0.177208,-0.127033 0.1878,-0.110775 0.196905,-0.0936401 0.204451,-0.0757631 0.210377,-0.0572861 0.214637,-0.0383554 0.217197,-0.0191208 0.218037,0.000265126 0.21715,0.019649 0.214543,0.0388772 0.210237,0.0577976 0.204266,0.0762601 0.196677,0.0941187 0.18753,0.111232 -1.48126,1.48126 z "/>
<path fill="rgb(0,91,140)" stroke="rgb(0,91,140)" d="M 6.72898,7.98848 l -0.18073,-0.207353 0.282301,0 0,-0.132522 -0.259781,0 0.00738163,-0.0798489 0.0276858,4.36252e-05 0.0275893,-0.00230914 0.0272933,-0.0046452 0.0267999,-0.00694766 0.0261126,-0.00919986 0.0252364,-0.0113855 0.0241776,-0.0134888 0.0229439,-0.0154945 0.0215443,-0.0173881 0.0199888,-0.019156 0.0182887,-0.0207853 0.0164563,-0.0222642 0.0145049,-0.023582 0.0124486,-0.0247293 0.0103022,-0.0256977 0.00808123,-0.0264801 0.00580184,-0.0270711 0.00348048,-0.0274662 0.00113394,-0.0276626 -0.00131446,-0.0287517 -0.00384289,-0.028524 -0.00634141,-0.0280744 -0.0087906,-0.0274064 -0.0111714,-0.0265252 -0.0134653,-0.0254376 -0.0156544,-0.0241521 -0.0177218,-0.0226787 -0.0196512,-0.0210289 -0.0214278,-0.0192155 -0.0230377,-0.0172526 -0.0244683,-0.0151554 -0.0257086,-0.0129404 -0.0267489,-0.0106247 -0.027581,-0.00822627 -0.0281986,-0.00576388 -0.0285968,-0.00325666 -0.0287726,-0.000724099 -0.0287245,0.0018141 -0.0284529,0.00433818 -0.0279599,0.00682851 -0.0272494,0.00926571 -0.026327,0.0116308 -0.0251997,0.0139055 -0.0238763,0.0160719 -0.0223672,0.0181133 -0.0206841,0.0200138 -0.0188401,0.0217586 -0.0168495,0.0233341 -0.0147278,0.0247281 -0.0124915,0.0259297 -0.010158,0.0269295 -0.00774554,0.0277199 -0.0052728,0.0282946 -0.29423,0 -0.00711412,0.00030084 -0.00706333,0.000900371 -0.0069621,0.00149347 -0.00681116,0.00207591 -0.00661158,0.00264353 -0.0063648,0.00319227 -0.00607257,0.00371822 -0.00573698,0.00421761 -0.00536043,0.0046869 -0.00494561,0.00512272 -0.00449547,0.00552196 -0.00401323,0.00588177 -2.22045e-14,3.37508e-14 -0.267719,0.437354 -0.0662665,-0.153737 0.0232643,-0.0166529 0.02172,-0.0186223 0.0200095,-0.0204492 0.0181458,-0.0221196 0.0161434,-0.0236207 0.0140174,-0.0249411 0.0117841,-0.0260707 0.00946068,-0.0270008 0.00706487,-0.0277242 0.00461499,-0.0282356 0.0021298,-0.0285309 -0.000371682,-0.0286078 -0.00287032,-0.0284659 -0.005347,-0.0281062 -0.00778276,-0.0275313 -0.010159,-0.0267459 -0.0124575,-0.0257557 -0.0146606,-0.0245685 -0.0167516,-0.0231933 -0.0187144,-0.0216407 -0.020534,-0.0199224 -0.0221965,-0.0180517 -0.0236891,-0.0160429 -0.0250005,-0.0139113 -0.0261205,-0.0116732 -0.0270407,-0.00934589 -0.027754,-0.00694702 -0.0282549,-0.004495 -0.0285397,-0.00200858 -0.028606,0.000493215 -0.0284534,0.00299123 -0.0280832,0.00546636 -0.027498,0.00789966 -0.0665572,-0.197215 1.83152,-1.83152 0.107168,0.179959 0.0914056,0.188455 0.0749752,0.195573 0.0579968,0.201262 0.0405946,0.205481 0.0228956,0.208197 0.00502934,0.209392 -0.0128737,0.209056 -0.0306827,0.207193 -0.0482674,0.203815 -0.0654993,0.198947 -0.0822525,0.192626 -0.0984046,0.184896 -0.113837,0.175816 -0.128438,0.16545 -0.1421,0.153875 z "/>
<path fill="rgb(0,91,140)" stroke="rgb(0,91,140)" d="M 3.65937,8.30039 l 1.56038,-1.56038 0.0665572,0.197215 -0.0151653,0.00550426 -0.0148755,0.0062454 -0.0145494,0.00697134 -3.10862e-14,1.33227e-14 -0.0245899,0.012927 -0.0233653,0.0150279 -0.0219616,0.0170136 -0.0203896,0.018869 -0.0186614,0.0205797 -0.0167902,0.0221328 -0.0147904,0.0235163 -0.0126773,0.0247196 -0.010467,0.0257336 -0.00817648,0.0265503 -0.00582335,0.0271636 -0.00342559,0.0275688 -0.00100159,0.0277628 0.00143009,0.027744 0.0038508,0.0275126 0.00624202,0.0270705 0.0085854,0.0264209 0.010863,0.0255689 0.0130574,0.024521 0.0151517,0.0232852 0.0171299,0.021871 0.0189769,0.0202892 0.0206785,0.0185519 0.0222216,0.0166725 0.0235945,0.0146654 0.0247866,0.0125459 0.0257888,0.0103302 -0.0344491,0.0742262 0.0341746,0.0123785 0.0351032,0.00942831 0.0357777,0.00640982 0.0361931,0.00334493 0.0363464,0.000255807 0,-0.0795327 0.06096,-0.0105914 0.185544,0.41615 0.00429398,0.00858427 0.00503859,0.00816949 0.00574347,0.00769028 0.00640306,0.00715044 0.00701215,0.00655421 0.00756595,0.00590629 0.00806009,0.0052118 0.00849067,0.00447621 0.00885429,0.00370532 0.00914809,0.00290522 0.00936976,0.0020822 0.00951753,0.00124277 0.00959026,0.00039353 0.00958736,-0.000458809 0.12989,0 0,-0.100726 -0.10338,0 -0.00592946,-0.000261203 -0.00588352,-0.000781585 -0.00579201,-0.00129591 -0.00565562,-0.0018002 -0.00547541,-0.00229054 -0.00525279,-0.00276314 -0.00498947,-0.00321432 -0.0046875,-0.00364061 -0.00434922,-0.00403869 -0.00397724,-0.00440549 -0.00357444,-0.00473815 -0.00314396,-0.00503411 -0.00268912,-0.00529107 -0.00221344,-0.00550703 -0.0477153,-0.111329 0.188197,0 0.00390881,-0.000177772 0.00387654,-0.000531848 0.00381226,-0.000881532 0.0037165,-0.00122394 0.00359006,-0.00155624 0.00343398,-0.00187569 0.00324954,-0.00217966 0.00303828,-0.00246562 0.00280192,-0.00273123 0.00254244,-0.00297429 0.00226196,-0.0031928 0.0856876,-0.139242 0.0019526,-0.00351397 0.00163276,-0.00367352 0.00130001,-0.00380402 0.00095699,-0.00390446 0.0006064,-0.00397403 0.000251017,-0.00401218 -0.000106351,-0.00401862 -0.000462878,-0.00399329 -0.000815746,-0.00393639 -0.00116216,-0.00384838 -0.0014994,-0.00372994 -2.57572e-14,-5.50671e-14 -0.0821644,-0.177595 0.0477153,-0.0742262 0.00364102,-0.0051348 0.00409234,-0.00478288 0.00450983,-0.00439142 0.00489005,-0.00396366 0.00522984,-0.00350314 0.0055264,-0.00301365 0.00577727,-0.00249926 0.00598039,-0.00196421 0.00613407,-0.00141291 0.00623705,-0.000849943 0.00628847,-0.000279946 3.9968e-14,8.88178e-16 0.249168,-8.88178e-16 0.00564105,0.0271758 0.00793559,0.0265965 0.0101724,0.0258238 0.0123353,0.0248634 0.0144086,0.0237222 0.016377,0.0224085 0.0182264,0.0209319 0.0199433,0.0193032 0.0215152,0.0175341 0.0229307,0.0156375 0.0241794,0.0136273 0.0252524,0.0115179 0.0261418,0.00932486 0.0268412,0.007064 0.0273454,0.00475178 0.0276507,0.00240502 -0.00738163,0.0798489 -0.0385361,-0.00420178 -0.0379986,-0.00766781 -0.03715,-0.0110711 -0.0359972,-0.0143837 -0.0345497,-0.0175785 -0.0328194,-0.0206295 -0.00155001,-0.00122187 -0.00161397,-0.00113605 -0.00167319,-0.00104688 -0.00278234,-0.00147928 -0.00289988,-0.00123304 -0.00299567,-0.000977559 -0.00306901,-0.000714749 -0.00311934,-0.00044658 -0.00314627,-0.000175063 -0.00314962,9.77668e-05 -0.00312936,0.000369863 -0.00308563,0.000639187 -0.00301877,0.000903718 -0.00292928,0.00116147 -0.00281782,0.00141052 -0.00268524,0.00164899 -0.00253252,0.0018751 -0.00236082,0.00208715 -0.00217142,0.00228356 -0.00196574,0.00246284 -0.00174532,0.00262365 -0.00151181,0.0027648 -0.0652278,0.139318 -0.00148378,0.00295997 -0.00122216,0.00307724 -0.000951373,0.00317143 -0.000673455,0.00324184 -0.000390487,0.00328794 -0.000104592,0.0033094 0.000182088,0.00330604 0.000467402,0.00327789 0.000749212,0.00322517 0.0010254,0.00314827 0.00129391,0.00304776 0.00155271,0.0029244 0.00179987,0.00277912 0.00203354,0.002613 0.00225196,0.00242729 0.0024535,0.00222338 0.00263664,0.00200279 0.00280001,0.0017672 0.00294239,0.00151835 0.00306271,0.00125812 0.00316006,0.000988457 0.00323373,0.000711382 0.00328314,0.000428974 0.00330795,0.00014335 0.282301,0 0.18073,0.207353 -0.154021,0.140587 -0.165418,0.12698 -0.175617,0.112453 -0.184544,0.097111 -0.192134,0.0810658 -0.198331,0.0644332 -0.203092,0.0473338 -0.206382,0.0298915 -0.208176,0.0122327 -0.208462,-0.00551482 -0.207238,-0.0232223 -0.204513,-0.0407616 -0.200306,-0.0580056 -0.194647,-0.0748293 -0.187579,-0.0911109 -0.179151,-0.106732 z "/>
<path fill="rgb(0,91,140)" stroke="rgb(0,91,140)" d="M 5.30532,7.03898 l 0.0184152,-0.00640451 0.0188988,-0.00479289 0.0192417,-0.00314557 0.0194413,-0.00147482 0.019496,0.000206907 0.0194056,0.0018871 0.0191706,0.00355323 0.0187929,0.0051929 0.0182751,0.0067939 0.0176213,0.0083443 0.0168362,0.00983254 0.0159258,0.0112476 0.0148967,0.0125788 0.0137567,0.0138164 0.0125142,0.014951 0.0111785,0.0159743 0.00975955,0.0168787 0.00826792,0.0176573 0.00671471,0.0183044 0.00511149,0.0188152 0.00347019,0.0191858 0.00180306,0.0194136 0.00012249,0.0194967 -0.00155899,0.0194347 -0.00322886,0.0192279 -0.00487467,0.0188779 -0.00648419,0.0183873 -0.00804541,0.0177598 -0.00954671,0.017 -0.0109769,0.0161135 -0.0123253,0.0151071 -0.013582,0.0139881 -0.0147375,0.012765 -0.09868,-0.214294 -0.00195732,-0.00380437 -0.00228145,-0.0036193 -0.00258821,-0.00340669 -0.00287527,-0.00316815 -0.00314045,-0.00290549 -0.00338173,-0.00262073 -0.00359728,-0.00231602 -0.00378544,-0.00199368 -0.0039448,-0.00165617 -0.00407413,-0.00130606 -0.00417246,-0.000946006 -0.00423903,-0.000578752 -0.00427334,-0.000207094 -0.00427513,0.000166141 -0.00424438,0.000538111 -0.00418133,0.000905985 -0.00408646,0.00126696 -0.00396048,0.0016183 -0.00380437,0.00195732 -0.0036193,0.00228145 -0.00340669,0.00258821 -0.00316815,0.00287527 -0.00290549,0.00314045 -0.00262073,0.00338173 -0.00231602,0.00359728 -0.00199368,0.00378544 -0.00165617,0.0039448 -0.00130606,0.00407413 -0.000946006,0.00417246 -0.000578752,0.00423903 -0.000207094,0.00427334 0.000166141,0.00427513 0.000538111,0.00424438 0.000905985,0.00418133 0.00126696,0.00408646 0.0016183,0.00396048 0.09868,0.214294 -0.0194637,0.00369772 -0.0197136,0.00197078 -0.0198105,0.000228542 -0.0197538,-0.00151546 -0.0195438,-0.00324772 -0.0191822,-0.00495477 -0.0186719,-0.0066234 -0.0180167,-0.00824064 -0.0172217,-0.00979396 -0.0162931,-0.0112713 -0.0152382,-0.0126612 -0.014065,-0.0139529 -0.0127827,-0.0151364 -0.0114013,-0.0162024 -0.00993145,-0.0171428 -0.00838454,-0.0179501 -0.0067726,-0.0186183 -0.00510811,-0.019142 -0.003404,-0.0195172 -0.00167349,-0.019741 7.00114e-05,-0.0198117 0.00181297,-0.0197287 0.00354186,-0.0194926 0.00524327,-0.0191054 0.00690401,-0.0185699 0.0085112,-0.0178904 0.0100524,-0.0170721 0.0115155,-0.0161214 0.0128894,-0.0150456 0.0141633,-0.0138532 0.0153273,-0.0125532 0.0163724,-0.0111559 0.0172905,-0.009672 0.0180744,-0.0081131 z "/>
<path fill="rgb(0,91,140)" stroke="rgb(0,91,140)" d="M 6.37197,7.29607 l 0.235923,0 0.00427429,-0.000186619 0.00424176,-0.000558438 0.00417694,-0.000926006 0.00408034,-0.00128653 0.00395269,-0.00163726 0.00379495,-0.00197553 0.00360833,-0.00229876 0.00339425,-0.0026045 0.00315434,-0.00289042 0.00289042,-0.00315434 0.0026045,-0.00339425 0.00229876,-0.00360833 0.00197553,-0.00379495 0.00163726,-0.00395269 0.00128653,-0.00408034 0.000926006,-0.00417694 0.000558438,-0.00424176 0.000186619,-0.00427429 -0.000186619,-0.00427429 -0.000558438,-0.00424176 -0.000926006,-0.00417694 -0.00128653,-0.00408034 -0.00163726,-0.00395269 -0.00197553,-0.00379495 -0.00229876,-0.00360833 -0.0026045,-0.00339425 -0.00289042,-0.00315434 -0.00315434,-0.00289042 -0.00339425,-0.0026045 -0.00360833,-0.00229876 -0.00379495,-0.00197553 -0.00395269,-0.00163726 -0.00408034,-0.00128653 -0.00417694,-0.000926006 -0.00424176,-0.000558438 -0.00427429,-0.000186619 -0.235923,0 0.00478238,-0.0192259 0.00645552,-0.0187306 0.00807858,-0.0180899 0.00963897,-0.0173089 0.0111246,-0.0163936 0.0125239,-0.0153512 0.0138261,-0.0141897 0.015021,-0.0129181 0.0160994,-0.0115463 0.0170529,-0.0100849 0.0178742,-0.00854534 0.0185567,-0.00693945 0.0190954,-0.00527973 0.0194859,-0.00357906 0.0197252,-0.00185062 0.0198115,-0.000107832 0.0197442,0.0016358 0.0195237,0.00336674 0.0191517,0.00507156 0.0186312,0.00673704 0.0179661,0.00835026 0.0171617,0.00989871 0.0162241,0.0113704 0.0151607,0.0127538 0.0139797,0.0140383 0.0126903,0.015214 0.0113024,0.0162716 0.00982682,0.017203 0.00827502,0.0180009 0.00665903,0.0186592 0.00499138,0.0191727 0.00328502,0.0195376 0.00155317,0.0197508 -0.000190723,0.0198109 -0.0018852,0.0194058 -0.00355136,0.019171 -0.00519107,0.0187934 -0.00679212,0.0182758 -0.00834257,0.0176221 -0.0098309,0.0168372 -0.011246,0.0159269 -0.0125774,0.0148979 -0.013815,0.013758 -0.0149498,0.0125156 -0.0159732,0.0111801 -0.0168777,0.0097612 -0.0176565,0.00826964 -0.0183037,0.00671649 -0.0188147,0.00511332 -0.0191855,0.00347207 -0.0194134,0.00180495 -0.0194967,0.000124394 -0.0194349,-0.00155709 -0.0192282,-0.00322698 -0.0188784,-0.00487283 -0.0183879,-0.00648239 -0.0177606,-0.00804367 -0.0170009,-0.00954505 -0.0161146,-0.0109753 -0.0151083,-0.0123239 -0.0139895,-0.0135806 -0.0127664,-0.0147362 -0.0114483,-0.0157821 -0.0100449,-0.0167104 -0.00856675,-0.0175142 -0.00702476,-0.0181877 -0.00543045,-0.0187256 z "/>
<path fill="rgb(241,240,234)" stroke="rgb(241,240,234)" d="M 3.57407,5.69749 l 0.435129,0 0,0.0350531 -0.336154,0 0.0470182,0.125266 0.00213136,0.00499272 0.00256571,0.00478405 0.00297984,0.00453768 0.0033705,0.00425555 0.0037346,0.00393989 0.00406927,0.00359319 0.00437188,0.00321818 0.00464004,0.00281781 0.00487163,0.00239523 0.00506485,0.00195379 0.00521815,0.00149695 0.00533034,0.00102831 0.00540053,0.000551571 0.00542817,7.0486e-05 0.00541303,-0.000411154 0.1028,0 0,0.0822212 -0.117458,-0.000122326 -0.0118299,-0.000521601 -0.0117413,-0.0015363 -0.0115659,-0.00253964 -0.0113048,-0.00352418 -0.0109601,-0.00448265 -0.0105344,-0.00540795 -0.0100307,-0.00629324 -0.00945272,-0.00713197 -0.00880485,-0.00791793 -0.00809183,-0.0086453 -0.00731894,-0.00930871 -0.0064919,-0.00990324 -0.00561682,-0.0104245 -0.00470019,-0.0108686 -0.00374878,-0.0112323 -0.0637323,-0.181904 z "/>
<path fill="rgb(241,240,234)" stroke="rgb(241,240,234)" d="M 5.0092,4.90263 l 0.0083376,0.0151436 0.0140136,0.0318584 0.0111304,0.0329766 0.0081593,0.0338344 0.00512381,0.0344251 0.00204787,0.034744 -0.00104424,0.0347886 -0.0041281,0.0345586 -0.00717938,0.0340558 -0.010174,0.0332841 -0.0130882,0.0322496 -0.0131986,0.0257016 0,-0.377621 z "/>
<path fill="rgb(241,240,234)" stroke="rgb(241,240,234)" d="M 4.42806,5.69749 l 0.0526585,0.117298 0.0969206,0 0,0.0822451 -0.302498,0 -0.00358407,-0.000156484 -0.00355679,-0.00046826 -0.00350244,-0.000776473 -0.00342144,-0.00107878 -0.0033144,-0.00137287 -0.00318213,-0.00165651 -0.00302565,-0.00192755 -0.00284614,-0.00218392 -0.00264497,-0.00242367 -0.00242367,-0.00264497 -0.00218392,-0.00284614 -0.00192755,-0.00302565 -0.00165651,-0.00318213 -0.00137287,-0.0033144 -0.00107878,-0.00342144 -0.000776473,-0.00350244 -0.00046826,-0.00355679 -0.000156484,-0.00358407 0.000156484,-0.00358407 0.00046826,-0.00355679 0.000776473,-0.00350244 0.00107878,-0.00342144 0.00137287,-0.0033144 0.00165651,-0.00318213 0.00192755,-0.00302565 0.00218392,-0.00284614 0.00242367,-0.00264497 0.00264497,-0.00242367 0.00284614,-0.00218392 0.00302565,-0.00192755 0.00318213,-0.00165651 0.0033144,-0.00137287 0.00342144,-0.00107878 0.00350244,-0.000776473 0.00355679,-0.00046826 0.00358407,-0.000156484 0.117476,0 -0.0381946,-0.0822451 -0.34523,0 0,-0.0350531 0.418867,0 z "/>
<path fill="rgb(241,240,234)" stroke="rgb(241,240,234)" d="M 4.1694,5.1334 l 0.202661,0.443493 0.0792813,-0.152731 -0.0267891,-0.0180571 -0.0251868,-0.0202321 -0.0234084,-0.0222657 -0.0214663,-0.0241435 -0.0193741,-0.0258526 -0.0171465,-0.0273808 -0.014799,-0.0287177 -0.012348,-0.0298537 -0.00981061,-0.0307809 -0.00720465,-0.031493 -0.00454832,-0.0319848 -0.0998605,0 z M 4.48954,5.3478 l 0.111596,-0.214397 -0.246711,0 0.00465805,0.0256968 0.00682573,0.0252078 0.00894398,0.0245363 0.0109975,0.0236871 0.0129714,0.0226665 0.0148513,0.0214817 0.0166238,0.0201414 0.0182759,0.0186553 0.0197956,0.0170341 0.0211721,0.0152895 z M 4.35443,5.05116 l 0.314257,0 0.00342612,0.000147174 0.00340088,0.000440436 0.00335059,0.000730454 0.0032756,0.00101509 0.00317649,0.00129225 0.00305397,0.00155989 0.00290896,0.00181603 0.00274251,0.0020588 0.00255585,0.00228639 0.00235037,0.00249715 0.00212757,0.0026895 0.0018891,0.00286204 0.00163671,0.0030135 0.00137226,0.00314275 0.0010977,0.00324885 0.000815051,0.00333102 0.000526399,0.00338864 0.000233869,0.0034213 -6.03833e-05,0.00342875 -0.000354191,0.00341094 -0.00064539,0.00336801 -0.000931833,0.00330025 -0.00121141,0.00320819 -0.00148207,0.00309249 -0.140971,0.276086 0.0254816,0.0075369 0.0260328,0.0053302 0.0263932,0.00308444 0.0265603,0.000816092 0.0265328,-0.00145824 0.0263109,-0.00372189 0.0258962,-0.00595827 0.0252918,-0.00815099 0.0245021,-0.010284 0.0235329,-0.0123417 0.0223913,-0.0143089 0.0210856,-0.0161713 0.0196255,-0.0179152 0.0180215,-0.0195279 0.0162856,-0.0209975 0.0144303,-0.0223133 0.0124693,-0.0234656 0.0104169,-0.0244459 0.00828821,-0.0252472 0.0060988,-0.0258635 0.0038647,-0.0262903 0.00160229,-0.0265245 -0.000671854,-0.0265643 -0.00294108,-0.0264096 -0.00544495,-0.0271217 -0.00782921,-0.0265318 -0.0101517,-0.0257327 -0.0123942,-0.0247308 -0.014539,-0.023534 -0.0165692,-0.0221516 -0.0184688,-0.0205946 -0.0202227,-0.0188752 -0.0218173,-0.017007 -0.0232398,-0.0150048 -0.0244791,-0.0128842 -0.0255255,-0.0106621 -0.0263706,-0.00835597 -0.0270079,-0.00598394 -0.0274322,-0.00356473 -0.0276403,-0.00111742 -0.0276304,0.0013387 -0.0276342,0.00383022 -0.0271792,0.00629333 -0.0265052,0.0087057 -0.0256176,0.0110479 -0.0245234,0.013301 -0.0232316,0.015447 -0.0217525,0.0174684 -0.0200981,0.019349 -0.0182817,0.0210736 -0.0163179,0.0226284 -0.0142225,0.0240008 -0.0120125,0.0251797 -0.00970573,0.0261556 -0.00732068,0.0269207 -0.00487663,0.0274688 z M 5.0092,4.90263 l 0,0.377621 -0.00270061,0.00525891 -0.0185846,0.0294271 -0.0211233,0.0276613 -0.0245464,0.0267483 -0.0268942,0.0243864 -0.0290157,0.0218194 -0.030893,0.0190687 -0.0325104,0.0161576 -0.0338542,0.0131105 -0.0323582,0.00934102 -0.0330352,0.00655602 -0.033473,0.00372354 -0.0336684,0.000864096 -0.03362,-0.00200161 -0.0333281,-0.00485281 -0.0327948,-0.00766888 -0.032024,-0.0104294 -0.108656,0.211457 0.0119473,0.0266128 -0.418867,0 0,-0.0442282 0.307059,0 -0.223216,-0.493423 -0.083843,0.0932824 0,-0.12217 0.0720834,-0.0797926 0.187985,0 0.00550947,-0.0347032 0.00855575,-0.0340803 0.011535,-0.0331905 0.014424,-0.0320408 0.0172,-0.0306403 0.0198414,-0.0289998 0.0223273,-0.0271322 0.0246385,-0.0250522 0.0267567,-0.022776 0.0286654,-0.0203215 0.0303496,-0.0177078 0.0317962,-0.0149555 0.0329938,-0.0120861 0.0339331,-0.00912201 0.0346066,-0.00608652 0.0350092,-0.00300337 0.0351377,0.000103293 0.034991,0.00320915 0.0345703,0.00628988 0.0338789,0.00932135 0.0329222,0.0122798 0.0317077,0.0151422 0.0299547,0.0177216 0.0282634,0.0203106 0.026349,0.0227392 0.0242266,0.0249883 0.0219129,0.0270401 0.0194262,0.0288784 0.00844855,0.0153451 z "/>
<path fill="rgb(241,240,234)" stroke="rgb(241,240,234)" d="M 3.54382,5.36835 l 0.0233717,-0.0130774 0.0221558,-0.0150457 0.0207746,-0.0169018 0.0192384,-0.0186317 0.0175586,-0.0202225 0.0157477,-0.0216625 0.0138194,-0.0229408 0.0117879,-0.0240479 0.00966844,-0.0249755 0.00747683,-0.0257168 0.00522942,-0.0262661 0.00294299,-0.0266194 0.000634597,-0.0267741 -0.00167853,-0.026729 -0.00397914,-0.0264844 -0.00625005,-0.0260421 -0.00847431,-0.0254055 -0.0106353,-0.0245794 -0.012717,-0.0235698 -0.0147038,-0.0223843 -0.0165808,-0.0210317 -0.0183341,-0.0195222 -0.0199505,-0.017867 -0.00579047,-0.00463724 -0.00589919,-0.00449811 -0.00600457,-0.00435644 -0.022896,-0.014742 -0.0240953,-0.0126872 -0.0251108,-0.0105357 -0.0259345,-0.00830368 -0.0265603,-0.00600831 -0.0269834,-0.00366708 -0.0272005,-0.00129785 -0.02721,0.00108128 -0.0270117,0.00345215 -0.0266073,0.00579668 -0.0259998,0.00809696 -0.0251939,0.0103354 -0.0241956,0.012495 -0.0230126,0.0145592 -0.021654,0.0165123 -0.0201301,0.0183393 -0.0184525,0.0200264 -0.0166341,0.0215606 -0.0146887,0.0229302 -0.0126312,0.0241248 -0.0104773,0.0251352 -0.00824341,0.0259538 -0.0059466,0.0265742 -0.00360439,0.0269918 -0.00123467,0.0272034 2.22045e-15,5.86198e-14 0.00107885,0.026327 0.00331599,0.0261396 0.00552905,0.0257625 0.00770198,0.0251983 0.009819,0.0244512 0.0118647,0.0235267 0.0138244,0.0224313 0.0156836,0.0211731 0.017429,0.0197612 0.0190479,0.0182059 0.0205285,0.0165184 0.0218601,0.0147109 0.023033,0.0127967 0.0240387,0.0107896 0.0248699,0.0087042 0.0255206,0.00655559 0.025986,0.00435939 0.0262628,0.00213154 0.0263489,-0.00011178 0.0262437,-0.00235429 0.0259481,-0.00457971 -0.1028,-0.290762 -0.0010591,-0.00347311 -0.000750794,-0.00355254 -0.00043672,-0.00360465 -0.000119287,-0.00362905 0.000199062,-0.00362555 0.000515881,-0.00359417 0.000828734,-0.00353517 0.00113522,-0.00344898 0.00143297,-0.00333629 0.00171971,-0.00319794 0.00199323,-0.00303501 0.00225142,-0.00284874 0.0024923,-0.00264057 0.00271403,-0.00241211 0.00291489,-0.0021651 0.00309334,-0.00190144 0.00324801,-0.00162317 0.0033777,-0.00133242 0.00348143,-0.00103142 0.0035584,-0.000722494 0.00360801,-0.000408014 0.00362988,-9.03979e-05 0.00362385,0.000227914 0.00358995,0.000544473 0.00352846,0.000856846 0.00343984,0.00116263 0.00332477,0.00145948 0.00318415,0.00174511 0.00301905,0.00201732 0.00283073,0.00227402 0.00262065,0.00251324 0.00239043,0.00273314 0.00214183,0.00293203 0.00187676,0.00310837 0.00159726,0.00326082 0.00130549,0.0033882 0.00100368,0.00348953 0.0998605,0.287822 z M 4.0092,5.65326 l 0,0.0442282 -0.435129,0 -0.0772388,-0.220454 -0.0344352,0.00665254 -0.0348892,0.00357556 -0.0350688,0.000470454 -0.0349725,-0.00263835 -0.0346013,-0.00572641 -0.0339579,-0.00876943 -0.0330474,-0.0117435 -0.031877,-0.0146252 -0.0304559,-0.0173918 -0.0287953,-0.0200217 -0.0269082,-0.0224941 -0.0248095,-0.0247897 -0.0225157,-0.0268902 -0.0200448,-0.0287793 -0.0174162,-0.030442 -0.0146507,-0.0318653 -0.0117699,-0.033038 -0.00879662,-0.0339508 -0.00575412,-0.0345967 -0.00266636,-0.0349704 0.000442364,-0.0350691 0.00354761,-0.034892 0.00662496,-0.0344405 0.00965021,-0.0337181 0.0125996,-0.0327306 0.0154498,-0.0314856 0.0181786,-0.029993 0.0207643,-0.0282645 0.0172965,-0.0200641 0.0186009,-0.0188612 0.0198219,-0.0175736 0.0277182,-0.0209687 0.0294614,-0.0184393 0.0309745,-0.015766 0.0322456,-0.0129694 0.0332648,-0.0100716 0.0340242,-0.00709506 0.0345178,-0.00406311 0.0347417,-0.000999428 0.0346943,0.00207206 0.0343758,0.00512737 0.0337888,0.00814262 0.0329379,0.0110943 0.0318296,0.0139592 0.0304727,0.0167152 0.0288778,0.0193405 0.0270573,0.0218148 0.0250254,0.0241187 0.0227981,0.0262342 0.0203927,0.0281447 0.0178279,0.0298354 0.0146724,0.0302288 0.0120517,0.0313658 0.00934384,0.0322762 0.00656846,0.0329532 0.00374561,0.033392 0.000895681,0.0335895 -0.00196072,0.0335442 -0.00480295,0.0332564 -0.00761046,0.0327283 -0.010363,0.0319635 -0.0130406,0.0309678 -0.0156239,0.0297481 -0.0180943,0.0283135 -0.0204339,0.0266742 -0.0226258,0.0248421 -0.0246542,0.0228304 -0.0265044,0.0206537 -0.0281629,0.0183278 -0.029618,0.0158693 0.0411225,0.120416 0.394892,-0.437125 0,0.12217 -0.35965,0.40014 0.35965,0 z "/>
<path fill="rgb(241,240,234)" stroke="rgb(241,240,234)" d="M 5.63602,7.91725 l 0.112591,0 0.000164287,0.000181977 0.00434922,0.00403869 0.0046875,0.00364061 0.00498947,0.00321432 0.00525279,0.00276314 0.00547541,0.00229054 0.00565562,0.0018002 0.00579201,0.00129591 0.00588352,0.000781585 0.00592946,0.000261203 0.10338,0 0,0.100726 -0.12989,0 -0.00958736,0.000458809 -0.00959026,-0.00039353 -0.00951753,-0.00124277 -0.00936976,-0.0020822 -0.00914809,-0.00290522 -0.00885429,-0.00370532 -0.00849067,-0.00447621 -0.00806009,-0.0052118 -0.00756595,-0.00590629 -0.00701215,-0.00655421 -0.00640306,-0.00715044 -0.00574347,-0.00769028 -0.00503859,-0.00816949 -0.00429398,-0.00858427 -0.0255839,-0.0573813 z "/>
<path fill="rgb(241,240,234)" stroke="rgb(241,240,234)" d="M 5.30532,7.03898 l -0.0180744,0.0081131 -0.0172905,0.009672 -0.0163724,0.0111559 -0.0153273,0.0125532 -0.0141633,0.0138532 -0.0128894,0.0150456 -0.0115155,0.0161214 -0.0100524,0.0170721 -0.0085112,0.0178904 -0.00690401,0.0185699 -0.00524327,0.0191054 -0.00354186,0.0194926 -0.00181297,0.0197287 -7.00114e-05,0.0198117 0.00167349,0.019741 0.003404,0.0195172 0.00510811,0.019142 0.0067726,0.0186183 0.00838454,0.0179501 0.00993145,0.0171428 0.0114013,0.0162024 0.0127827,0.0151364 0.014065,0.0139529 0.0152382,0.0126612 0.0162931,0.0112713 0.0172217,0.00979396 0.0180167,0.00824064 0.0186719,0.0066234 0.0191822,0.00495477 0.0195438,0.00324772 0.0197538,0.00151546 0.0198105,-0.000228542 0.0197136,-0.00197078 0.0194637,-0.00369772 -0.09868,-0.214294 -0.0016183,-0.00396048 -0.00126696,-0.00408646 -0.000905985,-0.00418133 -0.000538111,-0.00424438 -0.000166141,-0.00427513 0.000207094,-0.00427334 0.000578752,-0.00423903 0.000946006,-0.00417246 0.00130606,-0.00407413 0.00165617,-0.0039448 0.00199368,-0.00378544 0.00231602,-0.00359728 0.00262073,-0.00338173 0.00290549,-0.00314045 0.00316815,-0.00287527 0.00340669,-0.00258821 0.0036193,-0.00228145 0.00380437,-0.00195732 0.00396048,-0.0016183 0.00408646,-0.00126696 0.00418133,-0.000905985 0.00424438,-0.000538111 0.00427513,-0.000166141 0.00427334,0.000207094 0.00423903,0.000578752 0.00417246,0.000946006 0.00407413,0.00130606 0.0039448,0.00165617 0.00378544,0.00199368 0.00359728,0.00231602 0.00338173,0.00262073 0.00314045,0.00290549 0.00287527,0.00316815 0.00258821,0.00340669 0.00228145,0.0036193 0.00195732,0.00380437 0.09868,0.214294 0.0147375,-0.012765 0.013582,-0.0139881 0.0123253,-0.0151071 0.0109769,-0.0161135 0.00954671,-0.017 0.00804541,-0.0177598 0.00648419,-0.0183873 0.00487467,-0.0188779 0.00322886,-0.0192279 0.00155899,-0.0194347 -0.00012249,-0.0194967 -0.00180306,-0.0194136 -0.00347019,-0.0191858 -0.00511149,-0.0188152 -0.00671471,-0.0183044 -0.00826792,-0.0176573 -0.00975955,-0.0168787 -0.0111785,-0.0159743 -0.0125142,-0.014951 -0.0137567,-0.0138164 -0.0148967,-0.0125788 -0.0159258,-0.0112476 -0.0168362,-0.00983254 -0.0176213,-0.0083443 -0.0182751,-0.0067939 -0.0187929,-0.0051929 -0.0191706,-0.00355323 -0.0194056,-0.0018871 -0.019496,-0.000206907 -0.0194413,0.00147482 -0.0192417,0.00314557 -0.0188988,0.00479289 -0.0184152,0.00640451 z M 6.05959,7.19799 l 0,0.0980838 -0.0374979,0 -3.9968e-14,-8.88178e-16 -0.00628847,0.000279946 -0.00623705,0.000849943 -0.00613407,0.00141291 -0.00598039,0.00196421 -0.00577727,0.00249926 -0.0055264,0.00301365 -0.00522984,0.00350314 -0.00489005,0.00396366 -0.00450983,0.00439142 -0.00409234,0.00478288 -0.00364102,0.0051348 -0.0477153,0.0742262 0.0821644,0.177595 2.57572e-14,5.50671e-14 0.0014994,0.00372994 0.00116216,0.00384838 0.000815746,0.00393639 0.000462878,0.00399329 0.000106351,0.00401862 -0.000251017,0.00401218 -0.0006064,0.00397403 -0.00095699,0.00390446 -0.00130001,0.00380402 -0.00163276,0.00367352 -0.0019526,0.00351397 -0.0856876,0.139242 -0.00226196,0.0031928 -0.00254244,0.00297429 -0.00280192,0.00273123 -0.00303828,0.00246562 -0.00324954,0.00217966 -0.00343398,0.00187569 -0.00359006,0.00155624 -0.0037165,0.00122394 -0.00381226,0.000881532 -0.00387654,0.000531848 -0.00390881,0.000177772 -0.188197,0 0.0477153,0.111329 0.00221344,0.00550703 0.00268912,0.00529107 0.00314396,0.00503411 0.00357444,0.00473815 0.00381295,0.00422351 -0.112591,0 -0.15996,-0.358769 -0.06096,0.0105914 0,0.0795327 -0.0363464,-0.000255807 -0.0361931,-0.00334493 -0.0357777,-0.00640982 -0.0351032,-0.00942831 -0.0341746,-0.0123785 0.0344491,-0.0742262 -0.0257888,-0.0103302 -0.0247866,-0.0125459 -0.0235945,-0.0146654 -0.0222216,-0.0166725 -0.0206785,-0.0185519 -0.0189769,-0.0202892 -0.0171299,-0.021871 -0.0151517,-0.0232852 -0.0130574,-0.024521 -0.010863,-0.0255689 -0.0085854,-0.0264209 -0.00624202,-0.0270705 -0.0038508,-0.0275126 -0.00143009,-0.027744 0.00100159,-0.0277628 0.00342559,-0.0275688 0.00582335,-0.0271636 0.00817648,-0.0265503 0.010467,-0.0257336 0.0126773,-0.0247196 0.0147904,-0.0235163 0.0167902,-0.0221328 0.0186614,-0.0205797 0.0203896,-0.018869 0.0219616,-0.0170136 0.0233653,-0.0150279 0.0245899,-0.012927 3.10862e-14,-1.33227e-14 0.0145494,-0.00697134 0.0148755,-0.0062454 0.0151653,-0.00550426 0.027498,-0.00789966 0.0280832,-0.00546636 0.0284534,-0.00299123 0.028606,-0.000493215 0.0285397,0.00200858 0.0282549,0.004495 0.027754,0.00694702 0.0270407,0.00934589 0.0261205,0.0116732 0.0250005,0.0139113 0.0236891,0.0160429 0.0221965,0.0180517 0.020534,0.0199224 0.0187144,0.0216407 0.0167516,0.0231933 0.0146606,0.0245685 0.0124575,0.0257557 0.010159,0.0267459 0.00778276,0.0275313 0.005347,0.0281062 0.00287032,0.0284659 0.000371682,0.0286078 -0.0021298,0.0285309 -0.00461499,0.0282356 -0.00706487,0.0277242 -0.00946068,0.0270008 -0.0117841,0.0260707 -0.0140174,0.0249411 -0.0161434,0.0236207 -0.0181458,0.0221196 -0.0200095,0.0204492 -0.02172,0.0186223 -0.0232643,0.0166529 0.0662665,0.153737 0.267719,-0.437354 2.22045e-14,-3.37508e-14 0.00401323,-0.00588177 0.00449547,-0.00552196 0.00494561,-0.00512272 0.00536043,-0.0046869 0.00573698,-0.00421761 0.00607257,-0.00371822 0.0063648,-0.00319227 0.00661158,-0.00264353 0.00681116,-0.00207591 0.0069621,-0.00149347 0.00706333,-0.000900371 0.00711412,-0.00030084 0.0852132,0 z "/>
<path fill="rgb(241,240,234)" stroke="rgb(241,240,234)" d="M 6.37197,7.29607 l 0.00543045,0.0187256 0.00702476,0.0181877 0.00856675,0.0175142 0.0100449,0.0167104 0.0114483,0.0157821 0.0127664,0.0147362 0.0139895,0.0135806 0.0151083,0.0123239 0.0161146,0.0109753 0.0170009,0.00954505 0.0177606,0.00804367 0.0183879,0.00648239 0.0188784,0.00487283 0.0192282,0.00322698 0.0194349,0.00155709 0.0194967,-0.000124394 0.0194134,-0.00180495 0.0191855,-0.00347207 0.0188147,-0.00511332 0.0183037,-0.00671649 0.0176565,-0.00826964 0.0168777,-0.0097612 0.0159732,-0.0111801 0.0149498,-0.0125156 0.013815,-0.013758 0.0125774,-0.0148979 0.011246,-0.0159269 0.0098309,-0.0168372 0.00834257,-0.0176221 0.00679212,-0.0182758 0.00519107,-0.0187934 0.00355136,-0.019171 0.0018852,-0.0194058 0.000190723,-0.0198109 -0.00155317,-0.0197508 -0.00328502,-0.0195376 -0.00499138,-0.0191727 -0.00665903,-0.0186592 -0.00827502,-0.0180009 -0.00982682,-0.017203 -0.0113024,-0.0162716 -0.0126903,-0.015214 -0.0139797,-0.0140383 -0.0151607,-0.0127538 -0.0162241,-0.0113704 -0.0171617,-0.00989871 -0.0179661,-0.00835026 -0.0186312,-0.00673704 -0.0191517,-0.00507156 -0.0195237,-0.00336674 -0.0197442,-0.0016358 -0.0198115,0.000107832 -0.0197252,0.00185062 -0.0194859,0.00357906 -0.0190954,0.00527973 -0.0185567,0.00693945 -0.0178742,0.00854534 -0.0170529,0.0100849 -0.0160994,0.0115463 -0.015021,0.0129181 -0.0138261,0.0141897 -0.0125239,0.0153512 -0.0111246,0.0163936 -0.00963897,0.0173089 -0.00807858,0.0180899 -0.00645552,0.0187306 -0.00478238,0.0192259 0.235923,0 0.00427429,0.000186619 0.00424176,0.000558438 0.00417694,0.000926006 0.00408034,0.00128653 0.00395269,0.00163726 0.00379495,0.00197553 0.00360833,0.00229876 0.00339425,0.0026045 0.00315434,0.00289042 0.00289042,0.00315434 0.0026045,0.00339425 0.00229876,0.00360833 0.00197553,0.00379495 0.00163726,0.00395269 0.00128653,0.00408034 0.000926006,0.00417694 0.000558438,0.00424176 0.000186619,0.00427429 -0.000186619,0.00427429 -0.000558438,0.00424176 -0.000926006,0.00417694 -0.00128653,0.00408034 -0.00163726,0.00395269 -0.00197553,0.00379495 -0.00229876,0.00360833 -0.0026045,0.00339425 -0.00289042,0.00315434 -0.00315434,0.00289042 -0.00339425,0.0026045 -0.00360833,0.00229876 -0.00379495,0.00197553 -0.00395269,0.00163726 -0.00408034,0.00128653 -0.00417694,0.000926006 -0.00424176,0.000558438 -0.00427429,0.000186619 -0.235923,0 z M 6.05959,7.29607 l 0,-0.0980838 0.209017,0 0.0052728,-0.0282946 0.00774554,-0.0277199 0.010158,-0.0269295 0.0124915,-0.0259297 0.0147278,-0.0247281 0.0168495,-0.0233341 0.0188401,-0.0217586 0.0206841,-0.0200138 0.0223672,-0.0181133 0.0238763,-0.0160719 0.0251997,-0.0139055 0.026327,-0.0116308 0.0272494,-0.00926571 0.0279599,-0.00682851 0.0284529,-0.00433818 0.0287245,-0.0018141 0.0287726,0.000724099 0.0285968,0.00325666 0.0281986,0.00576388 0.027581,0.00822627 0.0267489,0.0106247 0.0257086,0.0129404 0.0244683,0.0151554 0.0230377,0.0172526 0.0214278,0.0192155 0.0196512,0.0210289 0.0177218,0.0226787 0.0156544,0.0241521 0.0134653,0.0254376 0.0111714,0.0265252 0.0087906,0.0274064 0.00634141,0.0280744 0.00384289,0.028524 0.00131446,0.0287517 -0.00113394,0.0276626 -0.00348048,0.0274662 -0.00580184,0.0270711 -0.00808123,0.0264801 -0.0103022,0.0256977 -0.0124486,0.0247293 -0.0145049,0.023582 -0.0164563,0.0222642 -0.0182887,0.0207853 -0.0199888,0.019156 -0.0215443,0.0173881 -0.0229439,0.0154945 -0.0241776,0.0134888 -0.0252364,0.0113855 -0.0261126,0.00919986 -0.0267999,0.00694766 -0.0272933,0.0046452 -0.0275893,0.00230914 -0.0276858,-4.36252e-05 -0.0276507,-0.00240502 -0.0273454,-0.00475178 -0.0268412,-0.007064 -0.0261418,-0.00932486 -0.0252524,-0.0115179 -0.0241794,-0.0136273 -0.0229307,-0.0156375 -0.0215152,-0.0175341 -0.0199433,-0.0193032 -0.0182264,-0.0209319 -0.016377,-0.0224085 -0.0144086,-0.0237222 -0.0123353,-0.0248634 -0.0101724,-0.0258238 -0.00793559,-0.0265965 -0.00564105,-0.0271758 -0.21167,8.88178e-16 z "/>
<path fill="rgb(241,240,234)" stroke="rgb(241,240,234)" d="M 6.57077,7.64861 l 0.259781,0 0,0.132522 -0.282301,0 -0.282301,0 -0.00330795,-0.00014335 -0.00328314,-0.000428974 -0.00323373,-0.000711382 -0.00316006,-0.000988457 -0.00306271,-0.00125812 -0.00294239,-0.00151835 -0.00280001,-0.0017672 -0.00263664,-0.00200279 -0.0024535,-0.00222338 -0.00225196,-0.00242729 -0.00203354,-0.002613 -0.00179987,-0.00277912 -0.00155271,-0.0029244 -0.00129391,-0.00304776 -0.0010254,-0.00314827 -0.000749212,-0.00322517 -0.000467402,-0.00327789 -0.000182088,-0.00330604 0.000104592,-0.0033094 0.000390487,-0.00328794 0.000673455,-0.00324184 0.000951373,-0.00317143 0.00122216,-0.00307724 0.00148378,-0.00295997 0.0652278,-0.139318 0.00151181,-0.0027648 0.00174532,-0.00262365 0.00196574,-0.00246284 0.00217142,-0.00228356 0.00236082,-0.00208715 0.00253252,-0.0018751 0.00268524,-0.00164899 0.00281782,-0.00141052 0.00292928,-0.00116147 0.00301877,-0.000903718 0.00308563,-0.000639187 0.00312936,-0.000369863 0.00314962,-9.77668e-05 0.00314627,0.000175063 0.00311934,0.00044658 0.00306901,0.000714749 0.00299567,0.000977559 0.00289988,0.00123304 0.00278234,0.00147928 0.00160716,0.00114235 0.0016124,0.00113494 0.00161761,0.00112751 0.0328194,0.0206295 0.0345497,0.0175785 0.0359972,0.0143837 0.03715,0.0110711 0.0379986,0.00766781 0.0385361,0.00420178 z "/>
<path fill="rgb(0,91,140)" stroke="rgb(0,91,140)" d="M 3.54382,5.36835 l -0.0998605,-0.287822 -0.00100368,-0.00348953 -0.00130549,-0.0033882 -0.00159726,-0.00326082 -0.00187676,-0.00310837 -0.00214183,-0.00293203 -0.00239043,-0.00273314 -0.00262065,-0.00251324 -0.00283073,-0.00227402 -0.00301905,-0.00201732 -0.00318415,-0.00174511 -0.00332477,-0.00145948 -0.00343984,-0.00116263 -0.00352846,-0.000856846 -0.00358995,-0.000544473 -0.00362385,-0.000227914 -0.00362988,9.03979e-05 -0.00360801,0.000408014 -0.0035584,0.000722494 -0.00348143,0.00103142 -0.0033777,0.00133242 -0.00324801,0.00162317 -0.00309334,0.00190144 -0.00291489,0.0021651 -0.00271403,0.00241211 -0.0024923,0.00264057 -0.00225142,0.00284874 -0.00199323,0.00303501 -0.00171971,0.00319794 -0.00143297,0.00333629 -0.00113522,0.00344898 -0.000828734,0.00353517 -0.000515881,0.00359417 -0.000199062,0.00362555 0.000119287,0.00362905 0.00043672,0.00360465 0.000750794,0.00355254 0.0010591,0.00347311 0.1028,0.290762 -0.0259481,0.00457971 -0.0262437,0.00235429 -0.0263489,0.00011178 -0.0262628,-0.00213154 -0.025986,-0.00435939 -0.0255206,-0.00655559 -0.0248699,-0.0087042 -0.0240387,-0.0107896 -0.023033,-0.0127967 -0.0218601,-0.0147109 -0.0205285,-0.0165184 -0.0190479,-0.0182059 -0.017429,-0.0197612 -0.0156836,-0.0211731 -0.0138244,-0.0224313 -0.0118647,-0.0235267 -0.009819,-0.0244512 -0.00770198,-0.0251983 -0.00552905,-0.0257625 -0.00331599,-0.0261396 -0.00107885,-0.026327 -2.22045e-15,-5.86198e-14 0.00123467,-0.0272034 0.00360439,-0.0269918 0.0059466,-0.0265742 0.00824341,-0.0259538 0.0104773,-0.0251352 0.0126312,-0.0241248 0.0146887,-0.0229302 0.0166341,-0.0215606 0.0184525,-0.0200264 0.0201301,-0.0183393 0.021654,-0.0165123 0.0230126,-0.0145592 0.0241956,-0.012495 0.0251939,-0.0103354 0.0259998,-0.00809696 0.0266073,-0.00579668 0.0270117,-0.00345215 0.02721,-0.00108128 0.0272005,0.00129785 0.0269834,0.00366708 0.0265603,0.00600831 0.0259345,0.00830368 0.0251108,0.0105357 0.0240953,0.0126872 0.022896,0.014742 0.00600457,0.00435644 0.00589919,0.00449811 0.00579047,0.00463724 0.0199505,0.017867 0.0183341,0.0195222 0.0165808,0.0210317 0.0147038,0.0223843 0.012717,0.0235698 0.0106353,0.0245794 0.00847431,0.0254055 0.00625005,0.0260421 0.00397914,0.0264844 0.00167853,0.026729 -0.000634597,0.0267741 -0.00294299,0.0266194 -0.00522942,0.0262661 -0.00747683,0.0257168 -0.00966844,0.0249755 -0.0117879,0.0240479 -0.0138194,0.0229408 -0.0157477,0.0216625 -0.0175586,0.0202225 -0.0192384,0.0186317 -0.0207746,0.0169018 -0.0221558,0.0150457 -0.0233717,0.0130774 z "/>
<path fill="rgb(0,91,140)" stroke="rgb(0,91,140)" d="M 3.64955,5.65326 l 0.666709,0 -0.223216,-0.493423 -0.443493,0.493423 z "/>
<path fill="rgb(0,91,140)" stroke="rgb(0,91,140)" d="M 4.1694,5.1334 l 0.202661,0.443493 0.0792813,-0.152731 -0.0267891,-0.0180571 -0.0251868,-0.0202321 -0.0234084,-0.0222657 -0.0214663,-0.0241435 -0.0193741,-0.0258526 -0.0171465,-0.0273808 -0.014799,-0.0287177 -0.012348,-0.0298537 -0.00981061,-0.0307809 -0.00720465,-0.031493 -0.00454832,-0.0319848 -0.0998605,0 z "/>
<path fill="rgb(0,91,140)" stroke="rgb(0,91,140)" d="M 4.48954,5.3478 l 0.111596,-0.214397 -0.246711,0 0.00465805,0.0256968 0.00682573,0.0252078 0.00894398,0.0245363 0.0109975,0.0236871 0.0129714,0.0226665 0.0148513,0.0214817 0.0166238,0.0201414 0.0182759,0.0186553 0.0197956,0.0170341 0.0211721,0.0152895 z "/>
<path fill="rgb(0,91,140)" stroke="rgb(0,91,140)" d="M 4.35443,5.05116 l 0.00487663,-0.0274688 0.00732068,-0.0269207 0.00970573,-0.0261556 0.0120125,-0.0251797 0.0142225,-0.0240008 0.0163179,-0.0226284 0.0182817,-0.0210736 0.0200981,-0.019349 0.0217525,-0.0174684 0.0232316,-0.015447 0.0245234,-0.013301 0.0256176,-0.0110479 0.0265052,-0.0087057 0.0271792,-0.00629333 0.0276342,-0.00383022 0.0276304,-0.0013387 0.0276403,0.00111742 0.0274322,0.00356473 0.0270079,0.00598394 0.0263706,0.00835597 0.0255255,0.0106621 0.0244791,0.0128842 0.0232398,0.0150048 0.0218173,0.017007 0.0202227,0.0188752 0.0184688,0.0205946 0.0165692,0.0221516 0.014539,0.023534 0.0123942,0.0247308 0.0101517,0.0257327 0.00782921,0.0265318 0.00544495,0.0271217 0.00294108,0.0264096 0.000671854,0.0265643 -0.00160229,0.0265245 -0.0038647,0.0262903 -0.0060988,0.0258635 -0.00828821,0.0252472 -0.0104169,0.0244459 -0.0124693,0.0234656 -0.0144303,0.0223133 -0.0162856,0.0209975 -0.0180215,0.0195279 -0.0196255,0.0179152 -0.0210856,0.0161713 -0.0223913,0.0143089 -0.0235329,0.0123417 -0.0245021,0.010284 -0.0252918,0.00815099 -0.0258962,0.00595827 -0.0263109,0.00372189 -0.0265328,0.00145824 -0.0265603,-0.000816092 -0.0263932,-0.00308444 -0.0260328,-0.0053302 -0.0254816,-0.0075369 0.140971,-0.276086 0.00148207,-0.00309249 0.00121141,-0.00320819 0.000931833,-0.00330025 0.00064539,-0.00336801 0.000354191,-0.00341094 6.03833e-05,-0.00342875 -0.000233869,-0.0034213 -0.000526399,-0.00338864 -0.000815051,-0.00333102 -0.0010977,-0.00324885 -0.00137226,-0.00314275 -0.00163671,-0.0030135 -0.0018891,-0.00286204 -0.00212757,-0.0026895 -0.00235037,-0.00249715 -0.00255585,-0.00228639 -0.00274251,-0.0020588 -0.00290896,-0.00181603 -0.00305397,-0.00155989 -0.00317649,-0.00129225 -0.0032756,-0.00101509 -0.00335059,-0.000730454 -0.00340088,-0.000440436 -0.00342612,-0.000147174 -0.314257,0 z "/>
<path fill="rgb(241,240,234)" stroke="rgb(241,240,234)" d="M 2.95226,7.59329 l 0.0378113,0.0560267 0.0393425,0.0549623 0.0408437,0.0538561 -0.142412,0.142412 -0.131086,-0.179806 -0.115539,-0.19017 -0.0991774,-0.199193 -0.0821166,-0.206811 -0.0644768,-0.212971 -0.0463823,-0.217629 -0.0279609,-0.220753 -0.00934224,-0.222321 0.00985279,-0.228304 0.0294851,-0.226606 0.0488982,-0.223224 0.0679476,-0.218181 0.0864918,-0.211516 0.104393,-0.203278 0.121518,-0.193528 0.137739,-0.18234 0.152936,-0.169795 0.166995,-0.155988 0.179813,-0.141021 0.191294,-0.125006 0.201352,-0.10806 0.209913,-0.0903116 0.216913,-0.0718913 0.222301,-0.0529364 0.226035,-0.0335879 0.228088,-0.0139895 0.228445,0.0057128 0.227104,0.0253727 0.224073,0.0448438 0.219377,0.0639816 0.213049,0.0826435 0.205137,0.100691 0.195699,0.11799 0.184807,0.134411 -0.142412,0.142412 -0.0538561,-0.0408437 -0.0549623,-0.0393425 -0.0560267,-0.0378113 -0.18753,-0.111232 -0.196677,-0.0941187 -0.204266,-0.0762601 -0.210237,-0.0577976 -0.214543,-0.0388772 -0.21715,-0.019649 -0.218037,-0.000265126 -0.217197,0.0191208 -0.214637,0.0383554 -0.210377,0.0572861 -0.204451,0.0757631 -0.196905,0.0936401 -0.1878,0.110775 -0.177208,0.127033 -0.165212,0.142285 -0.151908,0.15641 -0.1374,0.169297 -0.119136,0.176483 -0.103363,0.186161 -0.0868082,0.194432 -0.069598,0.201235 -0.0518622,0.206519 -0.0337346,0.210242 -0.0153522,0.212377 0.0031461,0.212908 0.0216207,0.21183 0.039932,0.209153 0.0579416,0.204896 0.0755136,0.199091 0.0925152,0.191783 0.108818,0.183025 z "/>
<path fill="rgb(241,240,234)" stroke="rgb(241,240,234)" d="M 3.65937,8.30039 l -0.0560267,-0.0378113 -0.0549623,-0.0393425 -0.0538561,-0.0408437 3.43875,-3.43875 0.0408437,0.0538561 0.0393425,0.0549623 0.0378113,0.0560267 -1.83152,1.83152 -1.56038,1.56038 z "/>
<path fill="rgb(241,240,234)" stroke="rgb(241,240,234)" d="M 3.65937,8.30039 l 0.179151,0.106732 0.187579,0.0911109 0.194647,0.0748293 0.200306,0.0580056 0.204513,0.0407616 0.207238,0.0232223 0.208462,0.00551482 0.208176,-0.0122327 0.206382,-0.0298915 0.203092,-0.0473338 0.198331,-0.0644332 0.192134,-0.0810658 0.184544,-0.097111 0.175617,-0.112453 0.165418,-0.12698 0.154021,-0.140587 0.1421,-0.153875 0.128438,-0.16545 0.113837,-0.175816 0.0984046,-0.184896 0.0822525,-0.192626 0.0654993,-0.198947 0.0482674,-0.203815 0.0306827,-0.207193 0.0128737,-0.209056 -0.00502934,-0.209392 -0.0228956,-0.208197 -0.0405946,-0.205481 -0.0579968,-0.201262 -0.0749752,-0.195573 -0.0914056,-0.188455 -0.107168,-0.179959 -0.0378113,-0.0560267 -0.0393425,-0.0549623 -0.0408437,-0.0538561 0.142412,-0.142412 0.131086,0.179806 0.115539,0.19017 0.0991774,0.199193 0.0821166,0.206811 0.0644768,0.212971 0.0463823,0.217629 0.0279609,0.220753 0.00934224,0.222321 -0.00985279,0.228304 -0.0294851,0.226606 -0.0488982,0.223224 -0.0679476,0.218181 -0.0864918,0.211516 -0.104393,0.203278 -0.121518,0.193528 -0.137739,0.18234 -0.152936,0.169795 -0.166995,0.155988 -0.179813,0.141021 -0.191294,0.125006 -0.201352,0.10806 -0.209913,0.0903116 -0.216913,0.0718913 -0.222301,0.0529364 -0.226035,0.0335879 -0.228088,0.0139895 -0.228445,-0.0057128 -0.227104,-0.0253727 -0.224073,-0.0448438 -0.219377,-0.0639816 -0.213049,-0.0826435 -0.205137,-0.100691 -0.195699,-0.11799 -0.184807,-0.134411 0.142412,-0.142412 0.0538561,0.0408437 0.0549623,0.0393425 0.0560267,0.0378113 z "/>
<path fill="rgb(241,240,234)" stroke="rgb(241,240,234)" d="M 2.95226,7.59329 l 1.91064,-1.91064 1.48126,-1.48126 0.0560267,0.0378113 0.0549623,0.0393425 0.0538561,0.0408437 -3.43875,3.43875 -0.0408437,-0.0538561 -0.0393425,-0.0549623 -0.0378113,-0.0560267 z "/>
<path fill="rgb(241,240,234)" stroke="rgb(241,240,234)" d="M 1.45177,6.25089 l 0.0135088,-0.309403 0.0404237,-0.307048 0.0670308,-0.302357 0.0931279,-0.295364 0.118516,-0.286123 0.143002,-0.274705 0.1664,-0.261196 0.188532,-0.2457 0.209229,-0.228333 0.228333,-0.209229 0.2457,-0.188532 0.261196,-0.1664 0.274705,-0.143002 0.286123,-0.118516 0.295364,-0.0931279 0.302357,-0.0670308 0.307048,-0.0404237 0.309403,-0.0135088 0.309403,0.0135088 0.307048,0.0404237 0.302357,0.0670308 0.295364,0.0931279 0.286123,0.118516 0.274705,0.143002 0.261196,0.1664 0.2457,0.188532 0.228333,0.209229 0.209229,0.228333 0.188532,0.2457 0.1664,0.261196 0.143002,0.274705 0.118516,0.286123 0.0931279,0.295364 0.0670308,0.302357 0.0404237,0.307048 0.0135088,0.309403 -0.2,0 -0.0127478,-0.291972 -0.0381463,-0.28975 -0.0632545,-0.285322 -0.0878812,-0.278724 -0.111839,-0.270004 -0.134946,-0.259229 -0.157026,-0.246481 -0.17791,-0.231857 -0.197441,-0.215469 -0.215469,-0.197441 -0.231857,-0.17791 -0.246481,-0.157026 -0.259229,-0.134946 -0.270004,-0.111839 -0.278724,-0.0878812 -0.285322,-0.0632545 -0.28975,-0.0381463 -0.291972,-0.0127478 -0.291972,0.0127478 -0.28975,0.0381463 -0.285322,0.0632545 -0.278724,0.0878812 -0.270004,0.111839 -0.259229,0.134946 -0.246481,0.157026 -0.231857,0.17791 -0.215469,0.197441 -0.197441,0.215469 -0.17791,0.231857 -0.157026,0.246481 -0.134946,0.259229 -0.111839,0.270004 -0.0878812,0.278724 -0.0632545,0.285322 -0.0381463,0.28975 -0.0127478,0.291972 -0.2,0 z "/>
<path fill="rgb(241,240,234)" stroke="rgb(241,240,234)" d="M 1.45177,6.25089 l 0.2,0 0.0127478,0.291972 0.0381463,0.28975 0.0632545,0.285322 0.0878812,0.278724 0.111839,0.270004 0.134946,0.259229 0.157026,0.246481 0.17791,0.231857 0.197441,0.215469 0.215469,0.197441 0.231857,0.17791 0.246481,0.157026 0.259229,0.134946 0.270004,0.111839 0.278724,0.0878812 0.285322,0.0632545 0.28975,0.0381463 0.291972,0.0127478 0.291972,-0.0127478 0.28975,-0.0381463 0.285322,-0.0632545 0.278724,-0.0878812 0.270004,-0.111839 0.259229,-0.134946 0.246481,-0.157026 0.231857,-0.17791 0.215469,-0.197441 0.197441,-0.215469 0.17791,-0.231857 0.157026,-0.246481 0.134946,-0.259229 0.111839,-0.270004 0.0878812,-0.278724 0.0632545,-0.285322 0.0381463,-0.28975 0.0127478,-0.291972 0.2,0 -0.0135088,0.309403 -0.0404237,0.307048 -0.0670308,0.302357 -0.0931279,0.295364 -0.118516,0.286123 -0.143002,0.274705 -0.1664,0.261196 -0.188532,0.2457 -0.209229,0.228333 -0.228333,0.209229 -0.2457,0.188532 -0.261196,0.1664 -0.274705,0.143002 -0.286123,0.118516 -0.295364,0.0931279 -0.302357,0.0670308 -0.307048,0.0404237 -0.309403,0.0135088 -0.309403,-0.0135088 -0.307048,-0.0404237 -0.302357,-0.0670308 -0.295364,-0.0931279 -0.286123,-0.118516 -0.274705,-0.143002 -0.261196,-0.1664 -0.2457,-0.188532 -0.228333,-0.209229 -0.209229,-0.228333 -0.188532,-0.2457 -0.1664,-0.261196 -0.143002,-0.274705 -0.118516,-0.286123 -0.0931279,-0.295364 -0.0670308,-0.302357 -0.0404237,-0.307048 -0.0135088,-0.309403 z "/>
<path fill="rgb(241,240,234)" stroke="rgb(241,240,234)" d="M 0.508116,6.25089 l 0,-5.49085 0.000998892,-0.0228784 0.00298907,-0.0227043 0.00495651,-0.0223574 0.00688622,-0.0218403 0.00876352,-0.021157 0.0105741,-0.0203127 0.0123043,-0.0193138 0.0139407,-0.0181679 0.0154711,-0.0168838 0.0168838,-0.0154711 0.0181679,-0.0139407 0.0193138,-0.0123043 0.0203127,-0.0105741 0.021157,-0.00876352 0.0218403,-0.00688622 0.0223574,-0.00495651 0.0227043,-0.00298907 0.0228784,-0.000998892 8.47818,8.88178e-15 0.0228784,0.000998892 0.0227043,0.00298907 0.0223574,0.00495651 0.0218403,0.00688622 0.021157,0.00876352 0.0203127,0.0105741 0.0193138,0.0123043 0.0181679,0.0139407 0.0168838,0.0154711 0.0154711,0.0168838 0.0139407,0.0181679 0.0123043,0.0193138 0.0105741,0.0203127 0.00876352,0.021157 0.00688622,0.0218403 0.00495651,0.0223574 0.00298907,0.0227043 0.000998892,0.0228784 1.77636e-15,5.49085 -0.759525,-8.88178e-16 -0.0142699,-0.326834 -0.042701,-0.324347 -0.0708072,-0.319391 -0.0983745,-0.312004 -0.125193,-0.302243 -0.151059,-0.290182 -0.175775,-0.275912 -0.199154,-0.259542 -0.221016,-0.241197 -0.241197,-0.221016 -0.259542,-0.199154 -0.275912,-0.175775 -0.290182,-0.151059 -0.302243,-0.125193 -0.312004,-0.0983745 -0.319391,-0.0708072 -0.324347,-0.042701 -0.326834,-0.0142699 -0.326834,0.0142699 -0.324347,0.042701 -0.319391,0.0708072 -0.312004,0.0983745 -0.302243,0.125193 -0.290182,0.151059 -0.275912,0.175775 -0.259542,0.199154 -0.241197,0.221016 -0.221016,0.241197 -0.199154,0.259542 -0.175775,0.275912 -0.151059,0.290182 -0.125193,0.302243 -0.0983745,0.312004 -0.0708072,0.319391 -0.042701,0.324347 -0.0142699,0.326834 -0.743653,0 z "/>
<path fill="rgb(241,240,234)" stroke="rgb(241,240,234)" d="M 10.0035,6.25089 l -0.229744,0 0,-5.49085 -0.00199778,-0.0457568 -0.00597815,-0.0454085 -0.00991301,-0.0447147 -0.0137724,-0.0436806 -0.017527,-0.042314 -0.0211483,-0.0406254 -0.0246085,-0.0386276 -0.0278815,-0.0363359 -0.0309423,-0.0337676 -0.0337676,-0.0309423 -0.0363359,-0.0278815 -0.0386276,-0.0246085 -0.0406254,-0.0211483 -0.042314,-0.017527 -0.0436806,-0.0137724 -0.0447147,-0.00991301 -0.0454085,-0.00597815 -0.0457568,-0.00199778 -8.47818,-7.99361e-15 -0.0457568,0.00199778 -0.0454085,0.00597815 -0.0447147,0.00991301 -0.0436806,0.0137724 -0.042314,0.017527 -0.0406254,0.0211483 -0.0386276,0.0246085 -0.0363359,0.0278815 -0.0337676,0.0309423 -0.0309423,0.0337676 -0.0278815,0.0363359 -0.0246085,0.0386276 -0.0211483,0.0406254 -0.017527,0.042314 -0.0137724,0.0436806 -0.00991301,0.0447147 -0.00597815,0.0454085 -0.00199778,0.0457568 0,5.49085 -0.245616,1.77636e-15 0,-6.25089 10.0035,1.77636e-15 -1.77636e-15,6.25089 z "/>
<path fill="rgb(241,240,234)" stroke="rgb(241,240,234)" d="M 10.0035,6.25089 l -1.77636e-15,6.25089 -10.0035,0 0,-6.25089 0.245616,-1.77636e-15 0,5.48553 0.00199778,0.0457568 0.00597815,0.0454085 0.00991301,0.0447147 0.0137724,0.0436806 0.017527,0.042314 0.0211483,0.0406254 0.0246085,0.0386276 0.0278815,0.0363359 0.0309423,0.0337676 0.0337676,0.0309423 0.0363359,0.0278815 0.0386276,0.0246085 0.0406254,0.0211483 0.042314,0.017527 0.0436806,0.0137724 0.0447147,0.00991301 0.0454085,0.00597815 0.0457568,0.00199778 8.47818,1.06581e-14 0.0457568,-0.00199778 0.0454085,-0.00597815 0.0447147,-0.00991301 0.0436806,-0.0137724 0.042314,-0.017527 0.0406254,-0.0211483 0.0386276,-0.0246085 0.0363359,-0.0278815 0.0337676,-0.0309423 0.0309423,-0.0337676 0.0278815,-0.0363359 0.0246085,-0.0386276 0.0211483,-0.0406254 0.017527,-0.042314 0.0137724,-0.0436806 0.00991301,-0.0447147 0.00597815,-0.0454085 0.00199778,-0.0457568 1.77636e-15,-5.48553 0.229744,0 z "/>
<path fill="rgb(241,240,234)" stroke="rgb(241,240,234)" d="M 0.508116,6.25089 l 0.743653,0 0.0142699,0.326834 0.042701,0.324347 0.0708072,0.319391 0.0983745,0.312004 0.125193,0.302243 0.151059,0.290182 0.175775,0.275912 0.199154,0.259542 0.221016,0.241197 0.241197,0.221016 0.259542,0.199154 0.275912,0.175775 0.290182,0.151059 0.302243,0.125193 0.312004,0.0983745 0.319391,0.0708072 0.324347,0.042701 0.326834,0.0142699 0.326834,-0.0142699 0.324347,-0.042701 0.319391,-0.0708072 0.312004,-0.0983745 0.302243,-0.125193 0.290182,-0.151059 0.275912,-0.175775 0.259542,-0.199154 0.241197,-0.221016 0.221016,-0.241197 0.199154,-0.259542 0.175775,-0.275912 0.151059,-0.290182 0.125193,-0.302243 0.0983745,-0.312004 0.0708072,-0.319391 0.042701,-0.324347 0.0142699,-0.326834 0.759525,8.88178e-16 -1.77636e-15,5.48553 -0.000998892,0.0228784 -0.00298907,0.0227043 -0.00495651,0.0223574 -0.00688622,0.0218403 -0.00876352,0.021157 -0.0105741,0.0203127 -0.0123043,0.0193138 -0.0139407,0.0181679 -0.0154711,0.0168838 -0.0168838,0.0154711 -0.0181679,0.0139407 -0.0193138,0.0123043 -0.0203127,0.0105741 -0.021157,0.00876352 -0.0218403,0.00688622 -0.0223574,0.00495651 -0.0227043,0.00298907 -0.0228784,0.000998892 -8.47818,-8.88178e-15 -0.0228784,-0.000998892 -0.0227043,-0.00298907 -0.0223574,-0.00495651 -0.0218403,-0.00688622 -0.021157,-0.00876352 -0.0203127,-0.0105741 -0.0193138,-0.0123043 -0.0181679,-0.0139407 -0.0168838,-0.0154711 -0.0154711,-0.0168838 -0.0139407,-0.0181679 -0.0123043,-0.0193138 -0.0105741,-0.0203127 -0.00876352,-0.021157 -0.00688622,-0.0218403 -0.00495651,-0.0223574 -0.00298907,-0.0227043 -0.000998892,-0.0228784 0,-5.48553 z "/>
<path fill="rgb(42,41,42)" stroke="rgb(42,41,42)" d="M 6.92647,11.4645 l -0.730234,0 0,-0.999351 0.745972,0 0,0.179411 -0.563413,0 0,0.272264 0.297445,0 0,0.182559 -0.297445,0 0,0.18728 0.547676,0 0,0.177837 z "/>
<path fill="rgb(42,41,42)" stroke="rgb(42,41,42)" d="M 5.93656,11.4645 l -0.171542,0 0,-0.659414 0.0188854,-0.339937 0.152657,0 0,0.999351 z "/>
<path fill="rgb(42,41,42)" stroke="rgb(42,41,42)" d="M 5.30548,11.4645 l 0,-0.311609 0.478429,-0.687742 -0.0188854,0.339937 -0.459544,0.659414 z "/>
<path fill="rgb(42,41,42)" stroke="rgb(42,41,42)" d="M 5.30548,11.4645 l -0.17469,0 0,-0.999351 0.17469,0 0,0.687742 0,0.311609 z "/>
<path fill="rgb(42,41,42)" stroke="rgb(42,41,42)" d="M 4.48554,11.4819 l -0.0110165,0 -0.0897055,-0.0110165 -0.078689,-0.0251805 -0.0708201,-0.0424921 -0.0598037,-0.0582299 -0.0283281,-0.0409183 0.338363,0 0.0377707,-0.00314756 0.078689,-0.0283281 0.0582299,-0.0582299 0.0346232,-0.0660988 0.0204591,-0.0834104 0.00629512,-0.0975744 -0.00314756,-0.0708201 -0.0157378,-0.0865579 -0.0283281,-0.0723939 -0.0377707,-0.0519348 -0.0660988,-0.0440659 -0.0849842,-0.014164 -0.321051,-0.014164 0.0236067,-0.0330494 0.0613774,-0.0582299 0.0692464,-0.0409183 0.078689,-0.0251805 0.0881317,-0.0078689 0.0078689,0 0.0865579,0.00944268 0.078689,0.0283281 0.0692464,0.0440659 0.0598037,0.0629512 0.0283281,0.0409183 0.036197,0.0708201 0.0267543,0.0802628 0.0157378,0.0881317 0.00472134,0.0975744 -0.00157378,0.0566561 -0.0110165,0.0912793 -0.0236067,0.0834104 -0.0330494,0.0739677 -0.0440659,0.0660988 -0.00157378,0.00157378 -0.0613774,0.0598037 -0.0692464,0.0440659 -0.078689,0.0251805 -0.0897055,0.00944268 z "/>
<path fill="rgb(42,41,42)" stroke="rgb(42,41,42)" d="M 4.14717,11.304 l -0.036197,-0.0692464 -0.0267543,-0.0802628 -0.0157378,-0.0881317 -0.00472134,-0.0991482 0,-0.0299018 0.00944268,-0.0928531 0.0188854,-0.0834104 0.0314756,-0.078689 0.0409183,-0.0692464 0.321051,0.014164 -0.0377707,0.00314756 -0.0771153,0.0283281 -0.0613774,0.0582299 0,0.00157378 -0.0346232,0.0676726 -0.0220329,0.0834104 -0.00629512,0.0975744 0.00629512,0.0975744 0.0220329,0.0818366 0.0346232,0.0676726 0.0236067,0.0283281 0.0676726,0.0456396 0.0849842,0.0157378 -0.338363,0 z "/>
<path fill="rgb(42,41,42)" stroke="rgb(42,41,42)" d="M 3.89537,11.4645 l -0.752267,0 0,-0.176263 0.536659,0 -0.568135,-0.62007 0,-0.203018 0.783743,0 0,0.179411 -0.563413,0 0.563413,0.616922 0,0.203018 z "/>
<path fill="rgb(187,30,16)" stroke="rgb(187,30,16)" d="M 3.35211,8.32481 l -0.151993,-0.13058 -0.141691,-0.141691 -0.13058,-0.151993 0.142412,-0.142412 3.43875,-3.43875 0.142412,-0.142412 0.151993,0.13058 0.141691,0.141691 0.13058,0.151993 -0.142412,0.142412 -3.43875,3.43875 -0.142412,0.142412 z "/>
<path fill="rgb(187,30,16)" stroke="rgb(187,30,16)" d="M 1.45177,6.25089 l -0.2,0 0.0142699,-0.326834 0.042701,-0.324347 0.0708072,-0.319391 0.0983745,-0.312004 0.125193,-0.302243 0.151059,-0.290182 0.175775,-0.275912 0.199154,-0.259542 0.221016,-0.241197 0.241197,-0.221016 0.259542,-0.199154 0.275912,-0.175775 0.290182,-0.151059 0.302243,-0.125193 0.312004,-0.0983745 0.319391,-0.0708072 0.324347,-0.042701 0.326834,-0.0142699 0.326834,0.0142699 0.324347,0.042701 0.319391,0.0708072 0.312004,0.0983745 0.302243,0.125193 0.290182,0.151059 0.275912,0.175775 0.259542,0.199154 0.241197,0.221016 0.221016,0.241197 0.199154,0.259542 0.175775,0.275912 0.151059,0.290182 0.125193,0.302243 0.0983745,0.312004 0.0708072,0.319391 0.042701,0.324347 0.0142699,0.326834 -0.2,0 -0.0135088,-0.309403 -0.0404237,-0.307048 -0.0670308,-0.302357 -0.0931279,-0.295364 -0.118516,-0.286123 -0.143002,-0.274705 -0.1664,-0.261196 -0.188532,-0.2457 -0.209229,-0.228333 -0.228333,-0.209229 -0.2457,-0.188532 -0.261196,-0.1664 -0.274705,-0.143002 -0.286123,-0.118516 -0.295364,-0.0931279 -0.302357,-0.0670308 -0.307048,-0.0404237 -0.309403,-0.0135088 -0.309403,0.0135088 -0.307048,0.0404237 -0.302357,0.0670308 -0.295364,0.0931279 -0.286123,0.118516 -0.274705,0.143002 -0.261196,0.1664 -0.2457,0.188532 -0.228333,0.209229 -0.209229,0.228333 -0.188532,0.2457 -0.1664,0.261196 -0.143002,0.274705 -0.118516,0.286123 -0.0931279,0.295364 -0.0670308,0.302357 -0.0404237,0.307048 -0.0135088,0.309403 z "/>
<path fill="rgb(187,30,16)" stroke="rgb(187,30,16)" d="M 1.45177,6.25089 l 0.0135088,0.309403 0.0404237,0.307048 0.0670308,0.302357 0.0931279,0.295364 0.118516,0.286123 0.143002,0.274705 0.1664,0.261196 0.188532,0.2457 0.209229,0.228333 0.228333,0.209229 0.2457,0.188532 0.261196,0.1664 0.274705,0.143002 0.286123,0.118516 0.295364,0.0931279 0.302357,0.0670308 0.307048,0.0404237 0.309403,0.0135088 0.309403,-0.0135088 0.307048,-0.0404237 0.302357,-0.0670308 0.295364,-0.0931279 0.286123,-0.118516 0.274705,-0.143002 0.261196,-0.1664 0.2457,-0.188532 0.228333,-0.209229 0.209229,-0.228333 0.188532,-0.2457 0.1664,-0.261196 0.143002,-0.274705 0.118516,-0.286123 0.0931279,-0.295364 0.0670308,-0.302357 0.0404237,-0.307048 0.0135088,-0.309403 0.2,0 -0.0142699,0.326834 -0.042701,0.324347 -0.0708072,0.319391 -0.0983745,0.312004 -0.125193,0.302243 -0.151059,0.290182 -0.175775,0.275912 -0.199154,0.259542 -0.221016,0.241197 -0.241197,0.221016 -0.259542,0.199154 -0.275912,0.175775 -0.290182,0.151059 -0.302243,0.125193 -0.312004,0.0983745 -0.319391,0.0708072 -0.324347,0.042701 -0.326834,0.0142699 -0.326834,-0.0142699 -0.324347,-0.042701 -0.319391,-0.0708072 -0.312004,-0.0983745 -0.302243,-0.125193 -0.290182,-0.151059 -0.275912,-0.175775 -0.259542,-0.199154 -0.241197,-0.221016 -0.221016,-0.241197 -0.199154,-0.259542 -0.175775,-0.275912 -0.151059,-0.290182 -0.125193,-0.302243 -0.0983745,-0.312004 -0.0708072,-0.319391 -0.042701,-0.324347 -0.0142699,-0.326834 0.2,0 z "/>
<path fill="rgb(187,30,16)" stroke="rgb(187,30,16)" d="M 8.35177,6.25089 l -0.7,0 -0.00934224,-0.222321 -0.0279609,-0.220753 -0.0463823,-0.217629 -0.0644768,-0.212971 -0.0821166,-0.206811 -0.0991774,-0.199193 -0.115539,-0.19017 -0.131086,-0.179806 -0.13058,-0.151993 -0.141691,-0.141691 -0.151993,-0.13058 -0.184807,-0.134411 -0.195699,-0.11799 -0.205137,-0.100691 -0.213049,-0.0826435 -0.219377,-0.0639816 -0.224073,-0.0448438 -0.227104,-0.0253727 -0.228445,-0.0057128 -0.228088,0.0139895 -0.226035,0.0335879 -0.222301,0.0529364 -0.216913,0.0718913 -0.209913,0.0903116 -0.201352,0.10806 -0.191294,0.125006 -0.179813,0.141021 -0.166995,0.155988 -0.152936,0.169795 -0.137739,0.18234 -0.121518,0.193528 -0.104393,0.203278 -0.0864918,0.211516 -0.0679476,0.218181 -0.0488982,0.223224 -0.0294851,0.226606 -0.00985279,0.228304 -0.7,0 0.0127478,-0.291972 0.0381463,-0.28975 0.0632545,-0.285322 0.0878812,-0.278724 0.111839,-0.270004 0.134946,-0.259229 0.157026,-0.246481 0.17791,-0.231857 0.197441,-0.215469 0.215469,-0.197441 0.231857,-0.17791 0.246481,-0.157026 0.259229,-0.134946 0.270004,-0.111839 0.278724,-0.0878812 0.285322,-0.0632545 0.28975,-0.0381463 0.291972,-0.0127478 0.291972,0.0127478 0.28975,0.0381463 0.285322,0.0632545 0.278724,0.0878812 0.270004,0.111839 0.259229,0.134946 0.246481,0.157026 0.231857,0.17791 0.215469,0.197441 0.197441,0.215469 0.17791,0.231857 0.157026,0.246481 0.134946,0.259229 0.111839,0.270004 0.0878812,0.278724 0.0632545,0.285322 0.0381463,0.28975 0.0127478,0.291972 z "/>
<path fill="rgb(187,30,16)" stroke="rgb(187,30,16)" d="M 3.35211,8.32481 l 0.184807,0.134411 0.195699,0.11799 0.205137,0.100691 0.213049,0.0826435 0.219377,0.0639816 0.224073,0.0448438 0.227104,0.0253727 0.228445,0.0057128 0.228088,-0.0139895 0.226035,-0.0335879 0.222301,-0.0529364 0.216913,-0.0718913 0.209913,-0.0903116 0.201352,-0.10806 0.191294,-0.125006 0.179813,-0.141021 0.166995,-0.155988 0.152936,-0.169795 0.137739,-0.18234 0.121518,-0.193528 0.104393,-0.203278 0.0864918,-0.211516 0.0679476,-0.218181 0.0488982,-0.223224 0.0294851,-0.226606 0.00985279,-0.228304 0.7,0 -0.0127478,0.291972 -0.0381463,0.28975 -0.0632545,0.285322 -0.0878812,0.278724 -0.111839,0.270004 -0.134946,0.259229 -0.157026,0.246481 -0.17791,0.231857 -0.197441,0.215469 -0.215469,0.197441 -0.231857,0.17791 -0.246481,0.157026 -0.259229,0.134946 -0.270004,0.111839 -0.278724,0.0878812 -0.285322,0.0632545 -0.28975,0.0381463 -0.291972,0.0127478 -0.291972,-0.0127478 -0.28975,-0.0381463 -0.285322,-0.0632545 -0.278724,-0.0878812 -0.270004,-0.111839 -0.259229,-0.134946 -0.246481,-0.157026 -0.231857,-0.17791 -0.215469,-0.197441 -0.197441,-0.215469 -0.17791,-0.231857 -0.157026,-0.246481 -0.134946,-0.259229 -0.111839,-0.270004 -0.0878812,-0.278724 -0.0632545,-0.285322 -0.0381463,-0.28975 -0.0127478,-0.291972 0.7,0 0.00934224,0.222321 0.0279609,0.220753 0.0463823,0.217629 0.0644768,0.212971 0.0821166,0.206811 0.0991774,0.199193 0.115539,0.19017 0.131086,0.179806 0.13058,0.151993 0.141691,0.141691 0.151993,0.13058 z "/>
<path fill="rgb(42,41,42)" stroke="rgb(42,41,42)" d="M 0.508116,6.25089 l 0,5.48553 0.000998892,0.0228784 0.00298907,0.0227043 0.00495651,0.0223574 0.00688622,0.0218403 0.00876352,0.021157 0.0105741,0.0203127 0.0123043,0.0193138 0.0139407,0.0181679 0.0154711,0.0168838 0.0168838,0.0154711 0.0181679,0.0139407 0.0193138,0.0123043 0.0203127,0.0105741 0.021157,0.00876352 0.0218403,0.00688622 0.0223574,0.00495651 0.0227043,0.00298907 0.0228784,0.000998892 8.47818,8.88178e-15 0.0228784,-0.000998892 0.0227043,-0.00298907 0.0223574,-0.00495651 0.0218403,-0.00688622 0.021157,-0.00876352 0.0203127,-0.0105741 0.0193138,-0.0123043 0.0181679,-0.0139407 0.0168838,-0.0154711 0.0154711,-0.0168838 0.0139407,-0.0181679 0.0123043,-0.0193138 0.0105741,-0.0203127 0.00876352,-0.021157 0.00688622,-0.0218403 0.00495651,-0.0223574 0.00298907,-0.0227043 0.000998892,-0.0228784 1.77636e-15,-5.48553 0.2625,-8.88178e-16 -1.77636e-15,5.48553 -0.00199778,0.0457568 -0.00597815,0.0454085 -0.00991301,0.0447147 -0.0137724,0.0436806 -0.017527,0.042314 -0.0211483,0.0406254 -0.0246085,0.0386276 -0.0278815,0.0363359 -0.0309423,0.0337676 -0.0337676,0.0309423 -0.0363359,0.0278815 -0.0386276,0.0246085 -0.0406254,0.0211483 -0.042314,0.017527 -0.0436806,0.0137724 -0.0447147,0.00991301 -0.0454085,0.00597815 -0.0457568,0.00199778 -8.47818,-1.06581e-14 -0.0457568,-0.00199778 -0.0454085,-0.00597815 -0.0447147,-0.00991301 -0.0436806,-0.0137724 -0.042314,-0.017527 -0.0406254,-0.0211483 -0.0386276,-0.0246085 -0.0363359,-0.0278815 -0.0337676,-0.0309423 -0.0309423,-0.0337676 -0.0278815,-0.0363359 -0.0246085,-0.0386276 -0.0211483,-0.0406254 -0.017527,-0.042314 -0.0137724,-0.0436806 -0.00991301,-0.0447147 -0.00597815,-0.0454085 -0.00199778,-0.0457568 0,-5.48553 0.2625,8.88178e-16 z "/>
<path fill="rgb(42,41,42)" stroke="rgb(42,41,42)" d="M 0.508116,6.25089 l -0.2625,-8.88178e-16 0,-5.49085 0.00199778,-0.0457568 0.00597815,-0.0454085 0.00991301,-0.0447147 0.0137724,-0.0436806 0.017527,-0.042314 0.0211483,-0.0406254 0.0246085,-0.0386276 0.0278815,-0.0363359 0.0309423,-0.0337676 0.0337676,-0.0309423 0.0363359,-0.0278815 0.0386276,-0.0246085 0.0406254,-0.0211483 0.042314,-0.017527 0.0436806,-0.0137724 0.0447147,-0.00991301 0.0454085,-0.00597815 0.0457568,-0.00199778 8.47818,7.99361e-15 0.0457568,0.00199778 0.0454085,0.00597815 0.0447147,0.00991301 0.0436806,0.0137724 0.042314,0.017527 0.0406254,0.0211483 0.0386276,0.0246085 0.0363359,0.0278815 0.0337676,0.0309423 0.0309423,0.0337676 0.0278815,0.0363359 0.0246085,0.0386276 0.0211483,0.0406254 0.017527,0.042314 0.0137724,0.0436806 0.00991301,0.0447147 0.00597815,0.0454085 0.00199778,0.0457568 0,5.49085 -0.2625,8.88178e-16 -1.77636e-15,-5.49085 -0.000998892,-0.0228784 -0.00298907,-0.0227043 -0.00495651,-0.0223574 -0.00688622,-0.0218403 -0.00876352,-0.021157 -0.0105741,-0.0203127 -0.0123043,-0.0193138 -0.0139407,-0.0181679 -0.0154711,-0.0168838 -0.0168838,-0.0154711 -0.0181679,-0.0139407 -0.0193138,-0.0123043 -0.0203127,-0.0105741 -0.021157,-0.00876352 -0.0218403,-0.00688622 -0.0223574,-0.00495651 -0.0227043,-0.00298907 -0.0228784,-0.000998892 -8.47818,-8.88178e-15 -0.0228784,0.000998892 -0.0227043,0.00298907 -0.0223574,0.00495651 -0.0218403,0.00688622 -0.021157,0.00876352 -0.0203127,0.0105741 -0.0193138,0.0123043 -0.0181679,0.0139407 -0.0168838,0.0154711 -0.0154711,0.0168838 -0.0139407,0.0181679 -0.0123043,0.0193138 -0.0105741,0.0203127 -0.00876352,0.021157 -0.00688622,0.0218403 -0.00495651,0.0223574 -0.00298907,0.0227043 -0.000998892,0.0228784 0,5.49085 z "/>
</g></g></svg>
