<?xml version="1.0" encoding="UTF-8" standalone="no"?>
<!DOCTYPE svg PUBLIC "-//W3C//DTD SVG 1.1//EN" "http://www.w3.org/Graphics/SVG/1.1/DTD/svg11-flat.dtd"
[

]>
<svg xmlns="http://www.w3.org/2000/svg"  viewBox="-0.09375 -0.09375 7.6875 7.6875"><g fill="none" stroke="black" stroke-width="0.0125" transform="translate(0,7.5) scale(1, -1)">
<g id="Output" >
<path fill="rgb(241,240,234)" stroke="rgb(241,240,234)" d="M 1.62384,0.907122 l -0.0800831,0.0616906 -0.0782942,0.0639458 -0.0764417,0.0661491 1.50224,2.65109 -2.89126,-4.44089e-16 0.0142699,-0.326834 0.042701,-0.324347 0.0708072,-0.319391 0.0983745,-0.312004 0.125193,-0.302243 0.151059,-0.290182 0.175775,-0.275912 0.199154,-0.259542 0.221016,-0.241197 0.241197,-0.221016 0.259542,-0.199154 0.275912,-0.175775 0.290182,-0.151059 0.302243,-0.125193 0.312004,-0.0983745 0.319391,-0.0708072 0.324347,-0.042701 0.326834,-0.0142699 0.326834,0.0142699 0.324347,0.042701 0.319391,0.0708072 0.312004,0.0983745 0.302243,0.125193 0.290182,0.151059 0.275912,0.175775 0.259542,0.199154 0.241197,0.221016 0.221016,0.241197 0.199154,0.259542 0.175775,0.275912 0.151059,0.290182 0.125193,0.302243 0.0983745,0.312004 0.0708072,0.319391 0.042701,0.324347 0.0142699,0.326834 -2.89126,0 -1.91967,-3.38776 -0.0960294,0.0315816 -0.0950913,0.034303 -0.094076,0.0369966 1.86138,3.28488 -0.343494,0 -1.79035,-3.15953 -0.0880366,0.0466716 -0.086692,0.049124 -0.0852792,0.0515377 1.70686,3.0122 -0.343494,0 -1.61092,-2.84288 z "/>
<path fill="rgb(241,240,234)" stroke="rgb(241,240,234)" d="M 5.3686,6.90953 l 0.0880366,-0.0466716 0.086692,-0.049124 0.0852792,-0.0515377 -1.70686,-3.0122 0.343494,0 1.61092,2.84288 0.0800831,-0.0616906 0.0782942,-0.0639458 0.0764417,-0.0661491 -1.50224,-2.65109 2.89126,0 -0.0142699,0.326834 -0.042701,0.324347 -0.0708072,0.319391 -0.0983745,0.312004 -0.125193,0.302243 -0.151059,0.290182 -0.175775,0.275912 -0.199154,0.259542 -0.221016,0.241197 -0.241197,0.221016 -0.259542,0.199154 -0.275912,0.175775 -0.290182,0.151059 -0.302243,0.125193 -0.312004,0.0983745 -0.319391,0.0708072 -0.324347,0.042701 -0.326834,0.0142699 -0.326834,-0.0142699 -0.324347,-0.042701 -0.319391,-0.0708072 -0.312004,-0.0983745 -0.302243,-0.125193 -0.290182,-0.151059 -0.275912,-0.175775 -0.259542,-0.199154 -0.241197,-0.221016 -0.221016,-0.241197 -0.199154,-0.259542 -0.175775,-0.275912 -0.151059,-0.290182 -0.125193,-0.302243 -0.0983745,-0.312004 -0.0708072,-0.319391 -0.042701,-0.324347 -0.0142699,-0.326834 2.89126,4.44089e-16 1.91967,3.38776 0.0960294,-0.0315816 0.0950913,-0.034303 0.094076,-0.0369966 -1.86138,-3.28488 0.343494,0 1.79035,3.15953 z "/>
<path fill="rgb(142,146,145)" stroke="rgb(142,146,145)" d="M 5.37976,4.8602 l -0.0066262,0 -0.0851941,-0.004733 -0.0814077,-0.0132524 -0.0776213,-0.0208252 -0.0719416,-0.0293446 -0.0681552,-0.037864 -0.0643688,-0.0454368 -0.0596358,-0.0539562 -0.0549028,-0.0624756 -0.0501698,-0.070995 -0.0407038,-0.0681552 -0.0359708,-0.0728882 -0.0312378,-0.0776213 -0.0265048,-0.0814077 -0.0217718,-0.0851941 -0.0170388,-0.0889805 -0.0123058,-0.0937135 -0.0066262,-0.0974999 -0.0028398,-0.102233 0,-0.000946601 0.0028398,-0.101286 0.0066262,-0.0974999 0.0123058,-0.0937135 0.0160922,-0.0899271 0.0217718,-0.0851941 0.0255582,-0.0814077 0.0312378,-0.0776213 0.0350242,-0.0738349 0.0407038,-0.0691018 0.00757281,-0.0123058 0.0501698,-0.0700484 0.0549028,-0.061529 0.0596358,-0.0530096 0.0634222,-0.0454368 0.0691018,-0.0369174 0.0719416,-0.028398 0.0776213,-0.0208252 0.0823543,-0.0123058 0.0861407,-0.0037864 0.0217718,0 0.0842475,0.0056796 0.0804611,0.0151456 0.0766747,0.0227184 0.070995,0.0302912 0.0672086,0.0397572 0.061529,0.04733 0.0577426,0.0558494 0.0539562,0.0643688 0.0482766,0.0728882 -0.622863,0.0312378 -0.0056796,0 -0.0833009,0.00851941 -0.0757281,0.0227184 -0.0672086,0.0388106 -0.0605824,0.0530096 -0.0511164,0.0681552 -0.0132524,0.0208252 -0.0340776,0.0681552 -0.0274514,0.0757281 -0.0217718,0.0833009 -0.0151456,0.0908737 -0.00946601,0.0993931 -0.0028398,0.106966 0.000946601,0.0530096 0.0066262,0.0965533 0.014199,0.0918203 0.0198786,0.0851941 0.0274514,0.0795145 0.0350242,0.0728882 0.0302912,0.0511164 0.052063,0.0672086 0.0605824,0.0530096 0.066262,0.0369174 0.0738349,0.0227184 0.0804611,0.00757281 0.620023,0.037864 -0.0066262,0.0104126 -0.0501698,0.0700484 -0.0539562,0.061529 -0.0586892,0.0539562 -0.0643688,0.0454368 -0.0681552,0.0369174 -0.0719416,0.0293446 -0.0776213,0.0198786 -0.0823543,0.0132524 -0.0861407,0.0037864 z "/>
<path fill="rgb(142,146,145)" stroke="rgb(142,146,145)" d="M 5.99979,4.51564 l -0.620023,-0.037864 0.0018932,0 0.0833009,-0.00757281 0.0757281,-0.023665 0.0681552,-0.037864 0.0596358,-0.0539562 0.052063,-0.0681552 0.00757281,-0.0113592 0.0350242,-0.0672086 0.028398,-0.0757281 0.0217718,-0.0823543 0.0160922,-0.0908737 0.00946601,-0.0984465 0.0028398,-0.106019 0,-0.0179854 -0.004733,-0.102233 -0.0113592,-0.0956067 -0.0170388,-0.0880339 -0.023665,-0.0823543 -0.0302912,-0.0757281 -0.0369174,-0.0681552 -0.0028398,-0.0056796 -0.052063,-0.0700484 -0.0596358,-0.0549028 -0.0672086,-0.0388106 -0.0747815,-0.023665 -0.0814077,-0.00757281 0.622863,-0.0312378 0.0369174,0.066262 0.0350242,0.0728882 0.0302912,0.0785679 0.0255582,0.0814077 0.0208252,0.0851941 0.0160922,0.0899271 0.0123058,0.0937135 0.0066262,0.0974999 0.0018932,0.102233 -0.000946601,0.0842475 -0.0066262,0.0974999 -0.0113592,0.0937135 -0.0160922,0.0899271 -0.0208252,0.0851941 -0.0265048,0.0823543 -0.0302912,0.0776213 -0.0350242,0.0747815 -0.0407038,0.0700484 z "/>
<path fill="rgb(142,146,145)" stroke="rgb(142,146,145)" d="M 3.25749,4.8602 l -0.0066262,0 -0.0861407,-0.004733 -0.0814077,-0.0132524 -0.0766747,-0.0208252 -0.0719416,-0.0293446 -0.0691018,-0.037864 -0.0634222,-0.0454368 -0.0596358,-0.0539562 -0.0549028,-0.0624756 -0.0501698,-0.070995 -0.0407038,-0.0681552 -0.0359708,-0.0728882 -0.0312378,-0.0776213 -0.0265048,-0.0814077 -0.0217718,-0.0851941 -0.0170388,-0.0889805 -0.0123058,-0.0937135 -0.0066262,-0.0974999 -0.0028398,-0.102233 0,-0.000946601 0.0028398,-0.101286 0.0066262,-0.0974999 0.0123058,-0.0937135 0.0160922,-0.0899271 0.0217718,-0.0851941 0.0255582,-0.0814077 0.0312378,-0.0776213 0.0350242,-0.0738349 0.0407038,-0.0691018 0.00757281,-0.0123058 0.0501698,-0.0700484 0.0549028,-0.061529 0.0596358,-0.0530096 0.0634222,-0.0454368 0.0681552,-0.0369174 0.0728882,-0.028398 0.0776213,-0.0208252 0.0823543,-0.0123058 0.0861407,-0.0037864 0.0208252,0 0.0851941,0.0056796 0.0804611,0.0151456 0.0757281,0.0227184 0.0719416,0.0302912 0.066262,0.0397572 0.0624756,0.04733 0.0577426,0.0558494 0.0530096,0.0643688 0.0492232,0.0728882 -0.622863,0.0312378 -0.0056796,0 -0.0833009,0.00851941 -0.0757281,0.0227184 -0.0681552,0.0388106 -0.0596358,0.0530096 -0.052063,0.0681552 -0.0123058,0.0208252 -0.0340776,0.0681552 -0.0274514,0.0757281 -0.0217718,0.0833009 -0.0160922,0.0908737 -0.00851941,0.0993931 -0.0037864,0.106966 0.000946601,0.0530096 0.00757281,0.0965533 0.0132524,0.0918203 0.0208252,0.0851941 0.0274514,0.0795145 0.0350242,0.0728882 0.0293446,0.0511164 0.0530096,0.0672086 0.0596358,0.0530096 0.0672086,0.0369174 0.0738349,0.0227184 0.0804611,0.00757281 0.620023,0.037864 -0.0066262,0.0104126 -0.0501698,0.0700484 -0.0539562,0.061529 -0.0596358,0.0539562 -0.0634222,0.0454368 -0.0681552,0.0369174 -0.0728882,0.0293446 -0.0766747,0.0198786 -0.0823543,0.0132524 -0.0861407,0.0037864 z "/>
<path fill="rgb(142,146,145)" stroke="rgb(142,146,145)" d="M 3.87751,4.51564 l -0.620023,-0.037864 0.0018932,0 0.0833009,-0.00757281 0.0757281,-0.023665 0.0681552,-0.037864 0.0596358,-0.0539562 0.052063,-0.0681552 0.00757281,-0.0113592 0.0340776,-0.0672086 0.0293446,-0.0757281 0.0217718,-0.0823543 0.0160922,-0.0908737 0.00946601,-0.0984465 0.0028398,-0.106019 0,-0.0179854 -0.004733,-0.102233 -0.0113592,-0.0956067 -0.0170388,-0.0880339 -0.023665,-0.0823543 -0.0302912,-0.0757281 -0.0369174,-0.0681552 -0.0028398,-0.0056796 -0.052063,-0.0700484 -0.0596358,-0.0549028 -0.0672086,-0.0388106 -0.0747815,-0.023665 -0.0814077,-0.00757281 0.622863,-0.0312378 0.0369174,0.066262 0.0350242,0.0728882 0.0302912,0.0785679 0.0255582,0.0814077 0.0208252,0.0851941 0.0160922,0.0899271 0.0113592,0.0937135 0.00757281,0.0974999 0.0018932,0.102233 -0.000946601,0.0842475 -0.0066262,0.0974999 -0.0113592,0.0937135 -0.0160922,0.0899271 -0.0208252,0.0851941 -0.0265048,0.0823543 -0.0302912,0.0776213 -0.0359708,0.0747815 -0.0397572,0.0700484 z "/>
<path fill="rgb(142,146,145)" stroke="rgb(142,146,145)" d="M 1.94076,4.82518 l -0.276407,0 -0.0340776,-0.0530096 -0.0539562,-0.0624756 -0.0634222,-0.0511164 -0.0719416,-0.0397572 -0.0804611,-0.028398 0.0056796,-0.306699 0.24517,0 -0.00851941,-1.60827 0.337936,0 0,2.14973 z "/>
<path fill="rgb(42,41,42)" stroke="rgb(42,41,42)" d="M 2.68906,0.362241 l 1.91967,3.38776 1.50224,2.65109 -0.0764417,0.0661491 -0.0782942,0.0639458 -0.0800831,0.0616906 -1.61092,-2.84288 -1.86138,-3.28488 0.094076,-0.0369966 0.0950913,-0.034303 0.0960294,-0.0315816 z "/>
<path fill="rgb(42,41,42)" stroke="rgb(42,41,42)" d="M 5.3686,6.90953 l -1.79035,-3.15953 -1.70686,-3.0122 0.0852792,-0.0515377 0.086692,-0.049124 0.0880366,-0.0466716 1.79035,3.15953 1.70686,3.0122 -0.0852792,0.0515377 -0.086692,0.049124 -0.0880366,0.0466716 z "/>
<path fill="rgb(42,41,42)" stroke="rgb(42,41,42)" d="M 2.89126,3.75 l -1.50224,-2.65109 0.0764417,-0.0661491 0.0782942,-0.0639458 0.0800831,-0.0616906 1.61092,2.84288 1.86138,3.28488 -0.094076,0.0369966 -0.0950913,0.034303 -0.0960294,0.0315816 -1.91967,-3.38776 z "/>
</g></g></svg>
