<?xml version="1.0" encoding="UTF-8" standalone="no"?>
<!DOCTYPE svg PUBLIC "-//W3C//DTD SVG 1.1//EN" "http://www.w3.org/Graphics/SVG/1.1/DTD/svg11-flat.dtd"
[

]>
<svg xmlns="http://www.w3.org/2000/svg"  viewBox="-0.125044 -0.125044 10.2536 14.7519"><g fill="none" stroke="black" stroke-width="0.0125" transform="translate(0,14.5018) scale(1, -1)">
<g id="Output" >
<path fill="rgb(241,240,234)" stroke="rgb(241,240,234)" d="M 9.50568,13.7904 l 0.00311414,-0.0178564 0.00187444,-0.0180288 0.000625809,-0.0181151 1.77636e-15,-0.415756 -1.21965,-1.8396 -0.0158727,0.0193903 -0.0174355,0.017998 -0.0188767,0.0164801 -0.0201862,0.0148472 -0.0213549,0.0131108 -0.0223746,0.0112829 -0.0232381,0.00937626 -0.0239395,0.00740421 -0.024474,0.0053805 -0.0248376,0.00331926 -0.025028,0.00123485 1.45165,2.18954 z "/>
<path fill="rgb(241,240,234)" stroke="rgb(241,240,234)" d="M 9.51129,11.4975 l -0.184615,0 0,1 0.184615,0 0,-1 z "/>
<path fill="rgb(241,240,234)" stroke="rgb(241,240,234)" d="M 9.51129,10.4975 l -0.184615,0 0,1 0.184615,0 0,-1 z "/>
<path fill="rgb(241,240,234)" stroke="rgb(241,240,234)" d="M 9.51129,9.49754 l -0.184615,0 0,1 0.184615,0 0,-1 z "/>
<path fill="rgb(241,240,234)" stroke="rgb(241,240,234)" d="M 9.51129,8.49754 l -0.184615,0 0,1 0.184615,0 0,-1 z "/>
<path fill="rgb(241,240,234)" stroke="rgb(241,240,234)" d="M 9.51129,7.49754 l -0.184615,0 0,1 0.184615,0 0,-0.246652 0,-0.753348 z "/>
<path fill="rgb(241,240,234)" stroke="rgb(241,240,234)" d="M 3.31567,3.49754 l 0.0110122,0.0166098 0,-0.0166098 -0.0110122,0 z "/>
<path fill="rgb(241,240,234)" stroke="rgb(241,240,234)" d="M 2.65267,2.49754 l 0.194979,0.294088 0.167269,0 0,0.252293 0.300747,0.453619 0.0110122,0 0,-1 -0.674008,0 z "/>
<path fill="rgb(241,240,234)" stroke="rgb(241,240,234)" d="M 2.5952,1.49754 l -0.268526,0 0,0.508305 0.325992,0.491695 0.674008,0 0,-0.50483 -0.00941452,0.110986 -0.574836,0 -0.156343,-0.487685 0.00911871,-0.118472 z "/>
<path fill="rgb(241,240,234)" stroke="rgb(241,240,234)" d="M 2.5952,1.49754 l 0.0193072,-0.250843 -0.0473766,0 0,-0.0852264 0.265309,0 0.00274579,0.0268264 0.00506582,0.0264864 0.00734756,0.0259463 0.00957374,0.0252099 0.0117275,0.0242829 0.0137927,0.0231723 0.0157535,0.0218866 0.0175952,0.0204353 0.0193039,0.0188296 0.0208667,0.0170814 0.0222717,0.0152042 0.0235083,0.0132119 0.0245671,0.0111198 0.0254402,0.00894364 0.026121,0.00669983 0.0266043,0.00440537 0.0268864,0.00207759 0.0269652,-0.000265889 0.0268402,-0.00260736 0.0265122,-0.00492912 0.0259838,-0.00721361 0.0252589,-0.00944356 0.0243431,-0.0116021 0.0232432,-0.0136729 0.0159165,-0.0113322 0,-0.0812415 -0.00989212,0.0107954 -0.0159841,0.0146467 -0.0171998,0.0131979 -0.0182847,0.0116486 -0.0192303,0.0100107 -0.0200296,0.00829655 -0.0206765,0.00651928 -0.021166,0.00469239 -0.0214945,0.0028298 -0.0216593,0.000945665 -0.0216593,-0.000945665 -0.0214945,-0.0028298 -0.021166,-0.00469239 -0.0206765,-0.00651928 -0.0200296,-0.00829655 -0.0192303,-0.0100107 -0.0182847,-0.0116486 -0.0171998,-0.0131979 -0.0159841,-0.0146467 -0.0146467,-0.0159841 -0.0131979,-0.0171998 -0.0116486,-0.0182847 -0.0100107,-0.0192303 -0.00829655,-0.0200296 -0.00651928,-0.0206765 -0.00469239,-0.021166 -0.0028298,-0.0214945 -0.000945665,-0.0216593 0.000945665,-0.0216593 0.0028298,-0.0214945 0.00469239,-0.021166 0.00651928,-0.0206765 0.00829655,-0.0200296 0.0100107,-0.0192303 0.0116486,-0.0182847 0.0131979,-0.0171998 0.0146467,-0.0159841 0.0159841,-0.0146467 0.0171998,-0.0131979 0.0182847,-0.0116486 0.0192303,-0.0100107 0.0200296,-0.00829655 0.0206765,-0.00651928 0.021166,-0.00469239 0.0214945,-0.0028298 0.0216593,-0.000945665 0.0216593,0.000945665 0.0214945,0.0028298 0.021166,0.00469239 0.0206765,0.00651928 0.0200296,0.00829655 0.0192303,0.0100107 0.0182847,0.0116486 0.0171998,0.0131979 0.0159841,0.0146467 0.00989212,0.0107954 0,-0.483583 -1,0 0,1 0.268526,0 z "/>
<path fill="rgb(241,240,234)" stroke="rgb(241,240,234)" d="M 1.98967,1.49754 l 0.337004,0.508305 0,-0.508305 -0.337004,0 z "/>
<path fill="rgb(241,240,234)" stroke="rgb(241,240,234)" d="M 2.32668,0.497542 l -1,0 0.662996,1 0.337004,0 0,-1 z "/>
<path fill="rgb(241,240,234)" stroke="rgb(241,240,234)" d="M 9.51129,6.49754 l -0.184615,0 0,1 0.184615,0 -1.77636e-15,-1 z "/>
<path fill="rgb(241,240,234)" stroke="rgb(241,240,234)" d="M 9.51129,5.49754 l -0.184615,0 0,1 0.184615,0 0,-1 z "/>
<path fill="rgb(241,240,234)" stroke="rgb(241,240,234)" d="M 9.51129,4.49754 l -0.184615,0 0,1 0.184615,0 0,-1 z "/>
<path fill="rgb(241,240,234)" stroke="rgb(241,240,234)" d="M 9.51129,3.49754 l -0.184615,0 0,1 0.184615,0 0,-1 z "/>
<path fill="rgb(241,240,234)" stroke="rgb(241,240,234)" d="M 7.32668,3.49754 l 0,1 1,0 0,-1 -1,0 z "/>
<path fill="rgb(241,240,234)" stroke="rgb(241,240,234)" d="M 7.32668,2.49754 l 0,1 1,0 0,-1 -1,0 z "/>
<path fill="rgb(241,240,234)" stroke="rgb(241,240,234)" d="M 7.32668,1.49754 l 0,1 1,0 0,-1 -1,0 z "/>
<path fill="rgb(241,240,234)" stroke="rgb(241,240,234)" d="M 8.32668,0.497542 l -1,0 0,0.522425 0.0929132,0.253244 -0.0929132,0.0503337 0,0.173997 1,0 0,-1 z "/>
<path fill="rgb(241,240,234)" stroke="rgb(241,240,234)" d="M 6.32668,4.90089 l 1,0 0,-0.403348 -1,0 0,0.403348 z "/>
<path fill="rgb(241,240,234)" stroke="rgb(241,240,234)" d="M 6.32668,3.49754 l 0,1 1,0 0,-1 -1,0 z "/>
<path fill="rgb(241,240,234)" stroke="rgb(241,240,234)" d="M 3.19183,2.01099 l -0.343761,0 -0.0936064,-0.279037 0.437368,0 0,0.279037 z "/>
<path fill="rgb(241,240,234)" stroke="rgb(241,240,234)" d="M 5.0325,2.17413 l 0,0.101339 -1.08804,-0.614469 0.535972,0 0.552068,0.51313 z "/>
<path fill="rgb(241,240,234)" stroke="rgb(241,240,234)" d="M 6.37715,1.93715 l -0.003935,0.00124598 -0.00403104,0.000887342 -0.00409447,0.000521523 -0.00412477,0.000151485 -0.0041217,-0.000219778 -0.00408527,-0.000589264 -0.00401579,-0.000953982 -0.00391382,-0.00131098 -0.00378018,-0.00165737 -0.301461,-0.13716 0.575351,-0.195921 0.0801178,0.218369 -0.317906,0.116637 z "/>
<path fill="rgb(241,240,234)" stroke="rgb(241,240,234)" d="M 6.9724,1.70359 l -0.00168054,0.00349177 -0.00197069,0.00333662 -0.00224664,0.00315742 -0.00250638,0.00295545 -0.00274806,0.00273218 -0.00296993,0.00248921 -0.00317039,0.0022283 -0.00334799,0.00195132 -0.00350145,0.00166028 -0.00362967,0.00135726 -0.202036,0.0741255 -0.0795722,-0.216882 0.421246,-0.142755 -0.111866,0.260152 z "/>
<path fill="rgb(241,240,234)" stroke="rgb(241,240,234)" d="M 6.32668,2.49754 l 0,1 1,0 0,-1 -1,0 z "/>
<path fill="rgb(241,240,234)" stroke="rgb(241,240,234)" d="M 9.51129,2.49754 l -0.184615,0 0,1 0.184615,0 0,-1 z "/>
<path fill="rgb(241,240,234)" stroke="rgb(241,240,234)" d="M 6.32668,1.98375 l 0,0.513788 1,0 0,-1 -0.210826,0 -0.106115,0.2453 -0.00197561,0.00396948 -0.00232098,0.00377794 -0.00264794,0.00355643 -0.0029539,0.0033067 -0.00323642,0.00303074 -0.00349326,0.00273074 -0.00372239,0.00240907 -0.00392199,0.00206829 -0.00409047,0.0017111 -0.586784,0.215286 -0.00802899,0.00246848 -0.00821087,0.00177192 -0.00833244,0.00106234 -0.0083928,0.000344965 -0.00839151,-0.000374946 -0.00832859,-0.0010921 -0.00820449,-0.00180124 -0.00802012,-0.00249714 -0.00200174,-0.000817161 z "/>
<path fill="rgb(241,240,234)" stroke="rgb(241,240,234)" d="M 6.77212,1.15007 l -0.00457585,-0.0143834 -0.00330484,-0.0147274 -0.00200868,-0.0149594 -0.000697241,-0.0150776 0.000619509,-0.015081 0.00193154,-0.0149696 0.00322888,-0.0147443 0.00450164,-0.0144068 0.00574014,-0.0139596 0.00693496,-0.0134062 0.00807699,-0.0127507 0.00915756,-0.0119983 0.0101684,-0.0111545 0.0111019,-0.0102258 0.0119509,-0.00921929 0.0127089,-0.00814261 0.0133703,-0.00700397 0.0139298,-0.00581203 0.0143834,-0.00457585 0.0147274,-0.00330484 0.0149594,-0.00200868 0.0150776,-0.000697241 0.015081,0.000619509 0.0149696,0.00193154 0.0147443,0.00322888 0.0144068,0.00450164 0.0139596,0.00574014 0.0134062,0.00693496 0.0127507,0.00807699 0.0119983,0.00915756 0.0111545,0.0101684 0.0102258,0.0111019 0.00921929,0.0119509 0.00814261,0.0127089 0.00700397,0.0133703 0.00581203,0.0139298 0.00457585,0.0143834 0.00330484,0.0147274 0.00200868,0.0149594 0.000697241,0.0150776 -0.000619509,0.015081 -0.00193154,0.0149696 -0.00322888,0.0147443 -0.00450164,0.0144068 -0.00574014,0.0139596 -0.00693496,0.0134062 -0.00807699,0.0127507 -0.00915756,0.0119983 -0.0101684,0.0111545 -0.0111019,0.0102258 -0.0119509,0.00921929 -0.0127089,0.00814261 -0.0133703,0.00700397 -0.0139298,0.00581203 -0.0143834,0.00457585 -0.0147274,0.00330484 -0.0149594,0.00200868 -0.0150776,0.000697241 -0.015081,-0.000619509 -0.0149696,-0.00193154 -0.0147443,-0.00322888 -0.0144068,-0.00450164 -0.0139596,-0.00574014 -0.0134062,-0.00693496 -0.0127507,-0.00807699 -0.0119983,-0.00915756 -0.0111545,-0.0101684 -0.0102258,-0.0111019 -0.00921929,-0.0119509 -0.00814261,-0.0127089 -0.00700397,-0.0133703 -0.00581203,-0.0139298 z M 7.32668,0.497542 l -1,0 0,0.815958 0.398398,-0.146169 0.00744884,0.017719 0.00895225,0.017009 0.0103887,0.0161717 0.0117474,0.0152135 0.0130182,0.0141413 0.0141915,0.0129634 0.0152587,0.0116885 0.0162118,0.0103261 0.0170435,0.00888645 0.0177477,0.00738031 0.0183191,0.00581894 0.0187534,0.00421404 0.0190475,0.00257761 0.019199,0.00092189 0.0192068,-0.000740728 0.0190709,-0.0023978 0.0187924,-0.00403694 0.0183732,-0.00564586 0.0178165,-0.00721255 0.0171266,-0.00872526 0.0163085,-0.0101727 0.0153683,-0.011544 0.0143132,-0.0128289 0.013151,-0.0140179 0.0118904,-0.015102 0.0105408,-0.016073 0.00911231,-0.0169238 0.00761567,-0.017648 0.00606204,-0.0182401 0.00446306,-0.0186957 0.00283068,-0.0190115 0.00117712,-0.019185 -0.000485246,-0.0192149 -0.00214398,-0.0191011 -0.00378667,-0.0188444 0.174459,-0.0252443 0.00301255,0.00821101 0,-0.522425 z M 7.32668,1.32354 l -0.177047,0.0959114 -0.0337793,0.0780857 0.210826,0 0,-0.173997 z "/>
<path fill="rgb(241,240,234)" stroke="rgb(241,240,234)" d="M 6.32668,4.49754 l -1,0 0,0.403348 1,0 0,-0.403348 z "/>
<path fill="rgb(241,240,234)" stroke="rgb(241,240,234)" d="M 5.32668,3.49754 l 0,1 1,0 0,-1 -1,0 z "/>
<path fill="rgb(241,240,234)" stroke="rgb(241,240,234)" d="M 3.01492,4.54676 l -0.198919,0 -0.105316,-0.122836 -0.0102874,0.0090874 -0.0104964,0.0088451 -0.0106998,0.008598 0.298636,0.450433 0.317061,0 -0.279979,-0.422293 0,0.0681655 z "/>
<path fill="rgb(241,240,234)" stroke="rgb(241,240,234)" d="M 5.32668,2.49754 l 0,1 1,0 0,-1 -1,0 z "/>
<path fill="rgb(241,240,234)" stroke="rgb(241,240,234)" d="M 6.32668,1.98375 l -0.0057751,-0.00235755 -0.306065,-0.140532 -0.573984,0.10777 -0.0168451,-0.0459129 -0.0531438,0.534912 -0.000789548,0.00549701 -0.00126561,0.00540728 -0.00173205,0.00527641 -0.0021853,0.00510538 -0.00262193,0.0048955 -0.0030386,0.00464837 -0.00343215,0.00436587 -0.00379958,0.00405014 -0.0041381,0.00370359 -0.00444513,0.00332886 -0.00471833,0.00292879 -0.00495562,0.00250644 -0.00515521,0.00206502 -0.00190922,0.000577512 0,0.00555233 1,0 0,-0.513788 z M 5.95782,1.49754 l -0.0481945,0 0.000432363,0.00192675 0.00200868,0.0149594 0.000697241,0.0150776 -0.000619509,0.015081 -0.00193154,0.0149696 -0.00322888,0.0147443 -0.00450164,0.0144068 -0.00574014,0.0139596 -0.00693496,0.0134062 -0.00807699,0.0127507 -0.00915756,0.0119983 -0.0101684,0.0111545 -0.0111019,0.0102258 -0.0119509,0.00921929 -0.0127089,0.00814261 -0.0133703,0.00700397 -0.0139298,0.00581203 -0.0143834,0.00457585 -0.0147274,0.00330484 -0.0149594,0.00200868 -0.0150776,0.000697241 -0.015081,-0.000619509 -0.0149696,-0.00193154 -0.0147443,-0.00322888 -0.0144068,-0.00450164 -0.0139596,-0.00574014 -0.0134062,-0.00693496 -0.0127507,-0.00807699 -0.0119983,-0.00915756 -0.0111545,-0.0101684 -0.0102258,-0.0111019 -0.00921929,-0.0119509 -0.00814261,-0.0127089 -0.00700397,-0.0133703 -0.00581203,-0.0139298 -0.00457585,-0.0143834 -0.00330484,-0.0147274 -0.00200868,-0.0149594 -0.000697241,-0.0150776 0.000619509,-0.015081 0.00193154,-0.0149696 0.00061429,-0.00280508 -0.243224,0 0,0.818687 0.0214944,-0.00683533 0.0507125,-0.475148 -0.0419684,-0.114389 0.178157,-0.102441 0.00852624,0.0175958 0.0100434,0.0167762 0.0114825,0.015826 0.0128322,0.0147528 0.0140821,0.0135648 0.0152225,0.0122713 0.0162445,0.0108823 0.0171402,0.00940871 0.0179025,0.00786193 0.0185256,0.006254 0.0190046,0.00459742 0.0193357,0.00290509 0.0195165,0.00119016 0.0195454,-0.000534032 0.0194224,-0.00225407 0.0191482,-0.00395657 0.0187252,-0.0056283 0.0181564,-0.00725624 0.0174465,-0.00882775 0.0166008,-0.0103306 0.0156261,-0.0117531 0.0145298,-0.0130842 0.0133204,-0.0143135 0.0120075,-0.0154314 0.0106012,-0.0164294 0.00911237,-0.0172995 0.00755271,-0.0180351 0.00593429,-0.0186304 0.00426972,-0.0190809 0.00257194,-0.0193828 0.000854151,-0.0195341 -0.000870281,-0.0195334 -0.00166449,-0.0124651 z "/>
<path fill="rgb(241,240,234)" stroke="rgb(241,240,234)" d="M 3.92902,4.90089 l -0.9141,-1.37874 0,0.478224 0.597039,0.900518 0.317061,0 z "/>
<path fill="rgb(241,240,234)" stroke="rgb(241,240,234)" d="M 5.5699,1.49754 l 0.00261459,-0.0119392 0.00450164,-0.0144068 0.00574014,-0.0139596 0.00693496,-0.0134062 0.00807699,-0.0127507 0.00915756,-0.0119983 0.0101684,-0.0111545 0.0111019,-0.0102258 0.0119509,-0.00921929 0.0127089,-0.00814261 0.0133703,-0.00700397 0.0139298,-0.00581203 0.0143834,-0.00457585 0.0147274,-0.00330484 0.0149594,-0.00200868 0.0150776,-0.000697241 0.015081,0.000619509 0.0149696,0.00193154 0.0147443,0.00322888 0.0144068,0.00450164 0.0139596,0.00574014 0.0134062,0.00693496 0.0127507,0.00807699 0.0119983,0.00915756 0.0111545,0.0101684 0.0102258,0.0111019 0.00921929,0.0119509 0.00814261,0.0127089 0.00700397,0.0133703 0.00581203,0.0139298 0.00457585,0.0143834 0.00287248,0.0128007 0.0481945,0 -0.000923453,-0.0069156 -0.00428548,-0.0190773 -0.00594967,-0.0186255 0.380014,-0.139424 0,-0.815958 -1,0 0,0.720267 0.251684,0 0,0.162741 -0.251684,0.0621902 0,0.0548021 0.243224,0 z "/>
<path fill="rgb(241,240,234)" stroke="rgb(241,240,234)" d="M 5.32668,4.49754 l -1,0 0,0.403348 1,0 0,-0.403348 z "/>
<path fill="rgb(241,240,234)" stroke="rgb(241,240,234)" d="M 4.32668,3.49754 l 0,1 1,0 0,-1 -1,0 z "/>
<path fill="rgb(241,240,234)" stroke="rgb(241,240,234)" d="M 4.32668,2.49754 l 0,1 1,0 0,-1 -1,0 z "/>
<path fill="rgb(241,240,234)" stroke="rgb(241,240,234)" d="M 5.32668,1.49754 l -0.221785,0 -0.352318,0.0870564 -0.214067,0 0,0.0209112 0.729406,0.729406 0.0587635,-0.0186871 0,-0.818687 z M 4.32668,1.96011 l 0,0.537434 1,0 0,-0.00555233 -0.00340634,0.00103037 -0.00543546,0.0011385 -0.005514,0.000660463 -0.00555058,0.000177397 -0.00554493,-0.000307018 -0.00549707,-0.000789097 -0.00540738,-0.00126517 -0.00527655,-0.00173162 -0.958368,-0.530795 z "/>
<path fill="rgb(241,240,234)" stroke="rgb(241,240,234)" d="M 5.20933,1.14605 l -0.000945665,0.0216593 -0.0028298,0.0214945 -0.00469239,0.021166 -0.00651928,0.0206765 -0.00829655,0.0200296 -0.0100107,0.0192303 -0.0116486,0.0182847 -0.0131979,0.0171998 -0.0146467,0.0159841 -0.0159841,0.0146467 -0.0171998,0.0131979 -0.0182847,0.0116486 -0.0192303,0.0100107 -0.0200296,0.00829655 -0.0206765,0.00651928 -0.021166,0.00469239 -0.0214945,0.0028298 -0.0216593,0.000945665 -0.0216593,-0.000945665 -0.0214945,-0.0028298 -0.021166,-0.00469239 -0.0206765,-0.00651928 -0.0200296,-0.00829655 -0.0192303,-0.0100107 -0.0182847,-0.0116486 -0.0171998,-0.0131979 -0.0159841,-0.0146467 -0.0146467,-0.0159841 -0.0131979,-0.0171998 -0.0116486,-0.0182847 -0.0100107,-0.0192303 -0.00829655,-0.0200296 -0.00651928,-0.0206765 -0.00469239,-0.021166 -0.0028298,-0.0214945 -0.000945665,-0.0216593 0.000945665,-0.0216593 0.0028298,-0.0214945 0.00469239,-0.021166 0.00651928,-0.0206765 0.00829655,-0.0200296 0.0100107,-0.0192303 0.0116486,-0.0182847 0.0131979,-0.0171998 0.0146467,-0.0159841 0.0159841,-0.0146467 0.0171998,-0.0131979 0.0182847,-0.0116486 0.0192303,-0.0100107 0.0200296,-0.00829655 0.0206765,-0.00651928 0.021166,-0.00469239 0.0214945,-0.0028298 0.0216593,-0.000945665 0.0216593,0.000945665 0.0214945,0.0028298 0.021166,0.00469239 0.0206765,0.00651928 0.0200296,0.00829655 0.0192303,0.0100107 0.0182847,0.0116486 0.0171998,0.0131979 0.0159841,0.0146467 0.0146467,0.0159841 0.0131979,0.0171998 0.0116486,0.0182847 0.0100107,0.0192303 0.00829655,0.0200296 0.00651928,0.0206765 0.00469239,0.021166 0.0028298,0.0214945 0.000945665,0.0216593 z M 5.32668,0.497542 l -1,0 0,0.40782 0.0182434,-0.00404447 0.0214945,-0.0028298 0.0216593,-0.000945665 0.0216593,0.000945665 0.0214945,0.0028298 0.021166,0.00469239 0.0206765,0.00651928 0.0200296,0.00829655 0.0192303,0.0100107 0.0182847,0.0116486 0.0171998,0.0131979 0.0159841,0.0146467 0.0146467,0.0159841 0.0131979,0.0171998 0.0116486,0.0182847 0.0100107,0.0192303 0.00829655,0.0200296 0.00651928,0.0206765 0.00469239,0.021166 0.0028298,0.0214945 0.000945665,0.0216593 -0.000945665,0.0216593 -0.0028298,0.0214945 -0.00469239,0.021166 -0.00651928,0.0206765 -0.00829655,0.0200296 -0.0100107,0.0192303 -0.0116486,0.0182847 -0.0131979,0.0171998 -0.0146467,0.0159841 -0.0159841,0.0146467 -0.0171998,0.0131979 -0.0182847,0.0116486 -0.0192303,0.0100107 -0.0200296,0.00829655 -0.0206765,0.00651928 -0.021166,0.00469239 -0.0214945,0.0028298 -0.0216593,0.000945665 -0.0216593,-0.000945665 -0.0214945,-0.0028298 -0.0182434,-0.00404447 0,0.0542447 0.00706579,0.000384064 0.696206,0.000342941 0.021511,-0.000920152 0.0213511,-0.00277477 0.0210317,-0.00460865 0.020555,-0.00640807 0.0199246,-0.0081596 0.0191454,-0.00985013 0.018223,-0.011467 0.0171644,-0.0129982 0.0159775,-0.0144323 0.0146712,-0.0157584 0.0132552,-0.0169668 0.0117401,-0.0180483 0.0101372,-0.0189949 0.00845864,-0.0197995 0.0067168,-0.0204562 0.00492475,-0.0209599 0.00309589,-0.0213069 0.0488446,0 0,-0.720267 z M 5.32668,1.44274 l -0.221785,0.0548021 0.221785,0 0,-0.0548021 z "/>
<path fill="rgb(241,240,234)" stroke="rgb(241,240,234)" d="M 3.97866,4.49754 l 0.267418,0.403348 0.0805986,0 0,-0.403348 -0.348016,0 z "/>
<path fill="rgb(241,240,234)" stroke="rgb(241,240,234)" d="M 4.32668,3.49754 l -1,0 0,0.0166098 0.651984,0.98339 0.348016,0 0,-1 z "/>
<path fill="rgb(241,240,234)" stroke="rgb(241,240,234)" d="M 3.32668,2.49754 l 0,1 1,0 0,-1 -1,0 z "/>
<path fill="rgb(241,240,234)" stroke="rgb(241,240,234)" d="M 9.51129,1.49754 l -0.184615,0 0,1 0.184615,0 0,-1 z "/>
<path fill="rgb(241,240,234)" stroke="rgb(241,240,234)" d="M 9.32668,1.49754 l 0.184615,0 0,-0.7375 -0.000998892,-0.0228784 -0.00298907,-0.0227043 -0.00495651,-0.0223574 -0.00688622,-0.0218403 -0.00876352,-0.021157 -0.0105741,-0.0203127 -0.0123043,-0.0193138 -0.0139407,-0.0181679 -0.0154711,-0.0168838 -0.0168838,-0.0154711 -0.0181679,-0.0139407 -0.0193138,-0.0123043 -0.0203127,-0.0105741 -0.021157,-0.00876352 -0.0118954,-0.00375061 0,0.98792 z "/>
<path fill="rgb(241,240,234)" stroke="rgb(241,240,234)" d="M 4.32668,1.96011 l -0.669485,-0.370796 -0.209718,0 0,-0.0850087 -0.0996882,0 0,0.23955 -0.0211097,0.248859 0,0.50483 1,0 0,-0.537434 z "/>
<path fill="rgb(241,240,234)" stroke="rgb(241,240,234)" d="M 9.00979,13.9989 l 0.239002,1.77636e-15 0.0240982,-0.00110848 0.0238946,-0.00331607 0.0234893,-0.00549566 -1.58331,-2.38811 -0.317061,0 1.58988,2.39803 z "/>
<path fill="rgb(241,240,234)" stroke="rgb(241,240,234)" d="M 9.28263,12.4975 l 0.0440489,0.0664392 0,-0.0664392 -0.0440489,0 z "/>
<path fill="rgb(241,240,234)" stroke="rgb(241,240,234)" d="M 4.32668,1.38675 l -0.00292259,-0.000647924 -0.0206765,-0.00651928 -0.0200296,-0.00829655 -0.0192303,-0.0100107 -0.0182847,-0.0116486 -0.0171998,-0.0131979 -0.0159841,-0.0146467 -0.0146467,-0.0159841 -0.0131979,-0.0171998 -0.0116486,-0.0182847 -0.0100107,-0.0192303 -0.00829655,-0.0200296 -0.00651928,-0.0206765 -0.00469239,-0.021166 -0.0028298,-0.0214945 -0.000945665,-0.0216593 0.000945665,-0.0216593 0.0028298,-0.0214945 0.00469239,-0.021166 0.00651928,-0.0206765 0.00829655,-0.0200296 0.0100107,-0.0192303 0.0116486,-0.0182847 0.0131979,-0.0171998 0.0146467,-0.0159841 0.0159841,-0.0146467 0.0171998,-0.0131979 0.0182847,-0.0116486 0.0192303,-0.0100107 0.0200296,-0.00829655 0.0206765,-0.00651928 0.00292259,-0.000647924 0,-0.40782 -1,0 0,0.483583 0.00475463,0.00518877 0.0131979,0.0171998 0.0116486,0.0182847 0.0100107,0.0192303 0.00829655,0.0200296 0.00651928,0.0206765 0.00469239,0.021166 0.0028298,0.0214945 0.000945665,0.0216593 -0.000945665,0.0216593 -0.0028298,0.0214945 -0.00469239,0.021166 -0.00651928,0.0206765 -0.00829655,0.0200296 -0.0100107,0.0192303 -0.0116486,0.0182847 -0.0131979,0.0171998 -0.00475463,0.00518877 0,0.0812415 0.00605103,-0.00430819 0.0205258,-0.0174896 0.0189289,-0.0192066 0.0171889,-0.0207783 0.0153189,-0.022193 0.013333,-0.0234398 0.0112464,-0.0245094 0.00907476,-0.0253938 0.0068345,-0.0260861 0.64748,0 0.00195859,0.0216278 0.00387609,0.0213676 0.00576281,0.0209377 0.00760378,0.0203416 0.00938437,0.019584 0.0110904,0.0186709 0.0127085,0.0176095 0.0142256,0.0164083 0.0156297,0.0150768 0.0169098,0.0136256 0.0180556,0.0120662 0.019058,0.0104111 0.0199092,0.0086732 0.0206022,0.00686649 0.0211316,0.00500526 0.0214933,0.00310428 0.0146185,0.000794596 0,-0.0542447 z "/>
<path fill="rgb(241,240,234)" stroke="rgb(241,240,234)" d="M 8.61963,11.4975 l 0.662996,1 0.0440489,0 0,-1 -0.707045,0 z "/>
<path fill="rgb(241,240,234)" stroke="rgb(241,240,234)" d="M 8.35177,10.4975 l 0,0.595978 0.267865,0.404022 0.707045,0 0,-1 -0.97491,0 z "/>
<path fill="rgb(241,240,234)" stroke="rgb(241,240,234)" d="M 9.32668,12.4975 l 0,0.0664392 0.184615,0.278456 0,-0.344895 -0.184615,0 z "/>
<path fill="rgb(241,240,234)" stroke="rgb(241,240,234)" d="M 8.35177,9.49754 l 0,1 0.97491,0 0,-1 -0.97491,0 z "/>
<path fill="rgb(241,240,234)" stroke="rgb(241,240,234)" d="M 8.35177,8.49754 l 0,1 0.97491,0 0,-1 -0.97491,0 z "/>
<path fill="rgb(241,240,234)" stroke="rgb(241,240,234)" d="M 8.35177,7.49754 l 0,1 0.97491,0 0,-1 -0.97491,0 z "/>
<path fill="rgb(241,240,234)" stroke="rgb(241,240,234)" d="M 8.35177,6.49754 l 0,1 0.97491,0 0,-1 -0.97491,0 z "/>
<path fill="rgb(241,240,234)" stroke="rgb(241,240,234)" d="M 8.35177,5.49754 l 0,1 0.97491,0 0,-1 -0.97491,0 z "/>
<path fill="rgb(241,240,234)" stroke="rgb(241,240,234)" d="M 1.00962,0.497542 l -0.239002,-2.66454e-15 -0.0240982,0.00110848 -0.0238946,0.00331607 -0.0234893,0.00549566 1.51439,2.28417 0.317061,0 -1.52097,-2.29409 z "/>
<path fill="rgb(241,240,234)" stroke="rgb(241,240,234)" d="M 0.508116,1.1758 l 1.14365,1.72498 0,-0.109144 0.244699,0 -1.38274,-2.08559 -0.00311414,0.0178564 -0.00187444,0.0180288 -0.000625809,0.0181151 1.77636e-15,0.415756 z "/>
<path fill="rgb(241,240,234)" stroke="rgb(241,240,234)" d="M 8.32668,5.08139 l 0.00699779,0.0168941 0.00786996,0.0249603 0.00566458,0.0255513 0.00341608,0.0259477 0.00114159,0.0261467 0,0.296652 0.97491,0 0,-1 -1,0 0,0.583847 z "/>
<path fill="rgb(241,240,234)" stroke="rgb(241,240,234)" d="M 8.32668,3.49754 l 0,1 1,0 0,-1 -1,0 z "/>
<path fill="rgb(241,240,234)" stroke="rgb(241,240,234)" d="M 8.32668,2.49754 l 0,1 1,0 0,-1 -1,0 z "/>
<path fill="rgb(241,240,234)" stroke="rgb(241,240,234)" d="M 8.32668,1.49754 l 0,1 1,0 0,-1 -1,0 z "/>
<path fill="rgb(241,240,234)" stroke="rgb(241,240,234)" d="M 0.770616,13.9989 l 7.92212,5.32907e-15 -1.58988,-2.39803 -5.15108,0 -0.0261467,-0.00114159 -0.0259477,-0.00341608 -0.0255513,-0.00566458 -0.0249603,-0.00786996 -0.0241794,-0.0100155 -0.0232145,-0.0120847 -0.0220729,-0.014062 -0.0207634,-0.0159323 -0.0192958,-0.0176813 -0.0176813,-0.0192958 -0.0159323,-0.0207634 -0.014062,-0.0220729 -0.0120847,-0.0232145 -0.0100155,-0.0241794 -0.00786996,-0.0249603 -0.00566458,-0.0255513 -0.00341608,-0.0259477 -0.00114159,-0.0261467 0,-6.1 0.00114159,-0.0261467 0.00341608,-0.0259477 0.00566458,-0.0255513 0.00786996,-0.0249603 0.0100155,-0.0241794 0.0120847,-0.0232145 0.014062,-0.0220729 0.0159323,-0.0207634 0.0176813,-0.0192958 0.0192958,-0.0176813 0.0207634,-0.0159323 0.0220729,-0.014062 0.0232145,-0.0120847 0.0241794,-0.0100155 0.0249603,-0.00786996 0.0255513,-0.00566458 0.0259477,-0.00341608 0.0261467,-0.00114159 0.709007,0 -0.223763,-0.337503 -0.0400854,0.00699742 -0.040473,0.00421186 -0.0406672,0.00140619 -0.0540303,-0.00248444 -0.0535743,-0.00743234 -0.0526661,-0.0123175 -0.0513135,-0.0170987 -0.0495278,-0.0217357 -0.0473241,-0.0261891 -0.044721,-0.0304216 -0.0417405,-0.0343973 -0.0819147,0.122836 -0.187206,0 0,-1.16776 -1.14365,-1.72498 -1.77636e-15,6.59687 0,5.48553 0.000998892,0.0228784 0.00298907,0.0227043 0.00495651,0.0223574 0.00688622,0.0218403 0.00876352,0.021157 0.0105741,0.0203127 0.0123043,0.0193138 0.0139407,0.0181679 0.0154711,0.0168838 0.0168838,0.0154711 0.0181679,0.0139407 0.0193138,0.0123043 0.0203127,0.0105741 0.021157,0.00876352 0.0218403,0.00688622 0.0223574,0.00495651 0.0227043,0.00298907 0.0228784,0.000998892 z "/>
<path fill="rgb(241,240,234)" stroke="rgb(241,240,234)" d="M 8.32668,1.49754 l 1,0 0,-0.98792 -0.00994488,-0.00313561 -0.0223574,-0.00495651 -0.0227043,-0.00298907 -0.0228784,-0.000998892 -0.922115,-7.10543e-15 0,1 z "/>
<path fill="rgb(241,240,234)" stroke="rgb(241,240,234)" d="M 7.32668,4.90089 l 0.72509,0 0.0261467,0.00114159 0.0259477,0.00341608 0.0255513,0.00566458 0.0249603,0.00786996 0.0241794,0.0100155 0.0232145,0.0120847 0.0220729,0.014062 0.0207634,0.0159323 0.0192958,0.0176813 0.0176813,0.0192958 0.0159323,0.0207634 0.014062,0.0220729 0.0120847,0.0232145 0.00301766,0.00728529 0,-0.583847 -1,0 0,0.403348 z "/>
<path fill="rgb(241,240,234)" stroke="rgb(241,240,234)" d="M 2.64996,4.40636 l 0.0047477,0.00716098 0.00307366,-0.00236591 0.00305729,-0.00238703 0.00304077,-0.00240804 -0.0139194,0 z "/>
<path fill="rgb(241,240,234)" stroke="rgb(241,240,234)" d="M 1.96184,4.40636 l 0.0382379,0.0279479 0.0404518,0.0246349 0.0423793,0.0211475 0.0440069,0.0175104 0.045323,0.0137494 0.0463183,0.00989114 0.0469858,0.00596283 0.0473208,0.00199231 0.0321448,-0.000918459 0.0320399,-0.00275238 0.0318305,-0.00457732 -0.0759715,-0.114588 -0.0200437,0 -0.351024,0 z "/>
<path fill="rgb(241,240,234)" stroke="rgb(241,240,234)" d="M 2.41233,3.86226 l -0.093627,-0.187206 -0.0683263,0.128606 0.0388515,0.0585999 0.0265586,0 0.0965432,0 z "/>
<path fill="rgb(241,240,234)" stroke="rgb(241,240,234)" d="M 2.71069,3.41176 l -0.0355621,-0.0308879 -0.0379511,-0.0279005 -0.0400898,-0.0247292 -0.0419642,-0.0213947 0.102677,0.154868 0.0528907,-0.0499553 z "/>
<path fill="rgb(241,240,234)" stroke="rgb(241,240,234)" d="M 1.96345,3.37089 l 0.15764,0.237769 0.0117752,-0.0166634 0.0132409,-0.0155242 0.014597,-0.0142565 0.0158323,-0.0128709 0.0169366,-0.0113787 0.0179007,-0.00979227 0.0187166,-0.00812482 0.0193775,-0.00639013 0.0198781,-0.00460254 0.0202141,-0.00277685 0.0203829,-0.000928178 0.0224249,0.00112396 0.0222001,0.00336062 0.0217528,0.00556359 -0.16721,-0.252204 -0.0527338,0.0121527 -0.0513717,0.0170143 -0.0495625,0.0217279 -0.0473218,0.0262524 -0.0446693,0.0305483 z "/>
<path fill="rgb(142,146,145)" stroke="rgb(142,146,145)" d="M 3.01492,4.54676 l 0,-0.0681655 -0.638598,-0.963201 -0.0217528,-0.00556359 -0.0222001,-0.00336062 -0.0224249,-0.00112396 0.00876042,0.169705 0.093627,0.187206 -0.0965432,0 -0.00021384,0.0397359 0.33439,0.504362 0.0139194,0 -0.00304077,0.00240804 -0.00305729,0.00238703 -0.00307366,0.00236591 0.0244897,0.036938 0.0106998,-0.008598 0.0104964,-0.0088451 0.0102874,-0.0090874 0.105316,0.122836 0.198919,0 z "/>
<path fill="rgb(142,146,145)" stroke="rgb(142,146,145)" d="M 2.31302,4.37637 l -0.000161384,0.0299885 0.0200437,0 -0.0198823,-0.0299885 z "/>
<path fill="rgb(142,146,145)" stroke="rgb(142,146,145)" d="M 2.31579,4.576 l 0.0406672,-0.00140619 0.040473,-0.00421186 0.0400854,-0.00699742 -0.0281385,-0.0424415 -0.0318305,0.00457732 -0.0320399,0.00275238 -0.0321448,0.000918459 0.00292808,0.0468088 z "/>
<path fill="rgb(142,146,145)" stroke="rgb(142,146,145)" d="M 2.71069,3.41176 l -0.0528907,0.0499553 0.357125,0.538653 0,-0.478224 -0.413511,-0.623701 -0.2707,0.0699262 0.22441,0.338478 0.0419642,0.0213947 0.0400898,0.0247292 0.0379511,0.0279005 0.0355621,0.0308879 z "/>
<path fill="rgb(142,146,145)" stroke="rgb(142,146,145)" d="M 2.87211,2.82852 l 0.142811,0.215402 0,-0.252293 -0.142811,0.0368904 z "/>
<path fill="rgb(142,146,145)" stroke="rgb(142,146,145)" d="M 1.65177,2.90077 l 0.311683,0.470113 0.0446693,-0.0305483 0.0473218,-0.0262524 0.0495625,-0.0217279 0.0513717,-0.0170143 0.0527338,-0.0121527 -0.312643,-0.471561 -0.244699,0 0,0.109144 z "/>
<path fill="rgb(142,146,145)" stroke="rgb(142,146,145)" d="M 2.53059,2.79163 l -0.317061,0 0.11718,0.176743 0.2707,-0.0699262 -0.0708189,-0.106817 z "/>
<path fill="rgb(142,146,145)" stroke="rgb(142,146,145)" d="M 2.31557,3.90199 l 0.00021384,-0.0397359 -0.0265586,0 0.0263447,0.0397359 z "/>
<path fill="rgb(142,146,145)" stroke="rgb(142,146,145)" d="M 1.96184,4.40636 l 0.351024,0 0.000161384,-0.0299885 -0.661252,-0.997369 0,1.16776 0.187206,0 0.0819147,-0.122836 0.0417405,0.0343973 0.044721,0.0304216 0.0473241,0.0261891 0.0495278,0.0217357 0.0513135,0.0170987 0.0526661,0.0123175 0.0535743,0.00743234 0.0540303,0.00248444 -0.00292808,-0.0468088 -0.0473208,-0.00199231 -0.0469858,-0.00596283 -0.0463183,-0.00989114 -0.045323,-0.0137494 -0.0440069,-0.0175104 -0.0423793,-0.0211475 -0.0404518,-0.0246349 -0.0382379,-0.0279479 z "/>
<path fill="rgb(142,146,145)" stroke="rgb(142,146,145)" d="M 2.84765,2.79163 l 0.0244582,0.0368904 0.142811,-0.0368904 -0.167269,0 z "/>
<path fill="rgb(142,146,145)" stroke="rgb(142,146,145)" d="M 2.12109,3.60866 l 0.129286,0.195003 0.0683263,-0.128606 -0.00876042,-0.169705 -0.0203829,0.000928178 -0.0202141,0.00277685 -0.0198781,0.00460254 -0.0193775,0.00639013 -0.0187166,0.00812482 -0.0179007,0.00979227 -0.0169366,0.0113787 -0.0158323,0.0128709 -0.014597,0.0142565 -0.0132409,0.0155242 -0.0117752,0.0166634 z "/>
<path fill="rgb(142,146,145)" stroke="rgb(142,146,145)" d="M 8.29164,11.4811 l -4.36262,-6.58017 -0.317061,0 4.44207,6.69999 0.025028,-0.00123485 0.0248376,-0.00331926 0.024474,-0.0053805 0.0239395,-0.00740421 0.0232381,-0.00937626 0.0223746,-0.0112829 0.0213549,-0.0131108 0.0201862,-0.0148472 0.0188767,-0.0164801 0.0174355,-0.017998 0.0158727,-0.0193903 z "/>
<path fill="rgb(142,146,145)" stroke="rgb(142,146,145)" d="M 8.35177,11.0935 l 0,-5.89263 -0.00114159,-0.0261467 -0.00341608,-0.0259477 -0.00566458,-0.0255513 -0.00786996,-0.0249603 -0.0100155,-0.0241794 -0.0120847,-0.0232145 -0.014062,-0.0220729 -0.0159323,-0.0207634 -0.0176813,-0.0192958 -0.0192958,-0.0176813 -0.0207634,-0.0159323 -0.0220729,-0.014062 -0.0232145,-0.0120847 -0.0241794,-0.0100155 -0.0249603,-0.00786996 -0.0255513,-0.00566458 -0.0259477,-0.00341608 -0.0261467,-0.00114159 -3.80569,0 4.10569,6.19263 z "/>
<path fill="rgb(142,146,145)" stroke="rgb(142,146,145)" d="M 7.41991,11.6009 l 0.317061,0 -4.44207,-6.7 -0.317061,0 4.44207,6.7 z "/>
<path fill="rgb(142,146,145)" stroke="rgb(142,146,145)" d="M 1.95177,4.90089 l -0.0261467,0.00114159 -0.0259477,0.00341608 -0.0255513,0.00566458 -0.0249603,0.00786996 -0.0241794,0.0100155 -0.0232145,0.0120847 -0.0220729,0.014062 -0.0207634,0.0159323 -0.0192958,0.0176813 -0.0176813,0.0192958 -0.0159323,0.0207634 -0.014062,0.0220729 -0.0120847,0.0232145 -0.0100155,0.0241794 -0.00786996,0.0249603 -0.00566458,0.0255513 -0.00341608,0.0259477 -0.00114159,0.0261467 0,6.1 0.00114159,0.0261467 0.00341608,0.0259477 0.00566458,0.0255513 0.00786996,0.0249603 0.0100155,0.0241794 0.0120847,0.0232145 0.014062,0.0220729 0.0159323,0.0207634 0.0176813,0.0192958 0.0192958,0.0176813 0.0207634,0.0159323 0.0220729,0.014062 0.0232145,0.0120847 0.0241794,0.0100155 0.0249603,0.00786996 0.0255513,0.00566458 0.0259477,0.00341608 0.0261467,0.00114159 5.15108,0 -4.44207,-6.7 -0.709007,0 z "/>
<path fill="rgb(241,240,234)" stroke="rgb(241,240,234)" d="M 10.0035,8.25089 l -0.229744,0 0,-7.49085 -0.00199778,-0.0457568 -0.00597815,-0.0454085 -0.00991301,-0.0447147 -0.0137724,-0.0436806 -0.017527,-0.042314 -0.0211483,-0.0406254 -0.0246085,-0.0386276 -0.0278815,-0.0363359 -0.0309423,-0.0337676 -0.0337676,-0.0309423 -0.0363359,-0.0278815 -0.0386276,-0.0246085 -0.0406254,-0.0211483 -0.042314,-0.017527 -0.0436806,-0.0137724 -0.0447147,-0.00991301 -0.0454085,-0.00597815 -0.0457568,-0.00199778 -8.47818,-7.10543e-15 -0.0457568,0.00199778 -0.0454085,0.00597815 -0.0447147,0.00991301 -0.0436806,0.0137724 -0.042314,0.017527 -0.0406254,0.0211483 -0.0386276,0.0246085 -0.0363359,0.0278815 -0.0337676,0.0309423 -0.0309423,0.0337676 -0.0278815,0.0363359 -0.0246085,0.0386276 -0.0211483,0.0406254 -0.017527,0.042314 -0.0137724,0.0436806 -0.00991301,0.0447147 -0.00597815,0.0454085 -0.00199778,0.0457568 0,7.49085 -0.245616,0 0,-8.25089 10.0035,3.55271e-15 -1.77636e-15,8.25089 z "/>
<path fill="rgb(241,240,234)" stroke="rgb(241,240,234)" d="M 10.0035,8.25089 l -1.77636e-15,6.25089 -10.0035,0 0,-6.25089 0.245616,0 0,5.48553 0.00199778,0.0457568 0.00597815,0.0454085 0.00991301,0.0447147 0.0137724,0.0436806 0.017527,0.042314 0.0211483,0.0406254 0.0246085,0.0386276 0.0278815,0.0363359 0.0309423,0.0337676 0.0337676,0.0309423 0.0363359,0.0278815 0.0386276,0.0246085 0.0406254,0.0211483 0.042314,0.017527 0.0436806,0.0137724 0.0447147,0.00991301 0.0454085,0.00597815 0.0457568,0.00199778 8.47818,1.06581e-14 0.0457568,-0.00199778 0.0454085,-0.00597815 0.0447147,-0.00991301 0.0436806,-0.0137724 0.042314,-0.017527 0.0406254,-0.0211483 0.0386276,-0.0246085 0.0363359,-0.0278815 0.0337676,-0.0309423 0.0309423,-0.0337676 0.0278815,-0.0363359 0.0246085,-0.0386276 0.0211483,-0.0406254 0.017527,-0.042314 0.0137724,-0.0436806 0.00991301,-0.0447147 0.00597815,-0.0454085 0.00199778,-0.0457568 1.77636e-15,-5.48553 0.229744,0 z "/>
<path fill="rgb(42,41,42)" stroke="rgb(42,41,42)" d="M 6.92581,13.4655 l -0.729159,0 0,-0.999624 0.745606,0 0,0.179092 -0.56286,0 0,0.272292 0.297877,0 0,0.182747 -0.297877,0 0,0.186402 0.546412,0 0,0.179092 z "/>
<path fill="rgb(42,41,42)" stroke="rgb(42,41,42)" d="M 5.93715,13.4655 l -0.171782,0 0,-0.659715 0.0201021,-0.339909 0.15168,0 0,0.999624 z "/>
<path fill="rgb(42,41,42)" stroke="rgb(42,41,42)" d="M 5.30667,13.4655 l 0,-0.312497 0.478796,-0.687127 -0.0201021,0.339909 -0.458694,0.659715 z "/>
<path fill="rgb(42,41,42)" stroke="rgb(42,41,42)" d="M 5.30667,13.4655 l -0.175437,0 0,-0.999624 0.175437,0 0,0.687127 0,0.312497 z "/>
<path fill="rgb(42,41,42)" stroke="rgb(42,41,42)" d="M 4.48614,13.4819 l -0.0840635,-0.00730987 -0.0858909,-0.0255845 -0.0749261,-0.0438592 -0.0639613,-0.0603064 -0.0201021,-0.0255845 0.328944,-0.0164472 0.027412,0 0.0840635,-0.027412 0.0639613,-0.0603064 0.0310669,-0.0584789 0.0219296,-0.0858909 0.00730987,-0.104166 -0.00182747,-0.0584789 -0.0146197,-0.0932008 -0.0310669,-0.0767536 -0.0310669,-0.0456867 -0.0676163,-0.0493416 -0.0895459,-0.0164472 0.319807,-0.00913733 0.0420317,0.0730987 0.0292395,0.0840635 0.0164472,0.0932008 0.00730987,0.102338 -0.00182747,0.0328944 -0.00913733,0.0986832 -0.0219296,0.0895459 -0.0347219,0.0804085 -0.0456867,0.0694437 -0.0511691,0.0529965 -0.0730987,0.0493416 -0.082236,0.027412 -0.0950283,0.0109648 z "/>
<path fill="rgb(42,41,42)" stroke="rgb(42,41,42)" d="M 4.1572,13.3193 l -0.0402043,-0.0712712 -0.0292395,-0.082236 -0.0182747,-0.0932008 -0.0054824,-0.105993 0,-0.0054824 0.00730987,-0.0986832 0.0182747,-0.0913733 0.0310669,-0.0840635 0.0438592,-0.0749261 0.0109648,-0.0146197 0.0621339,-0.0657888 0.0730987,-0.0456867 0.082236,-0.0292395 0.0932008,-0.00913733 0.0785811,0.00730987 0.0858909,0.0255845 0.0730987,0.0456867 0.0639613,0.0657888 0.0182747,0.0255845 -0.319807,0.00913733 -0.027412,0.00182747 -0.0840635,0.027412 -0.0639613,0.0621339 -0.0328944,0.0584789 -0.0237571,0.0877184 -0.00730987,0.102338 0.0054824,0.0858909 0.0201021,0.0895459 0.0383768,0.0730987 0.0164472,0.0201021 0.0694437,0.0511691 0.0895459,0.0164472 -0.328944,0.0164472 z "/>
<path fill="rgb(42,41,42)" stroke="rgb(42,41,42)" d="M 3.8977,13.4655 l -0.754744,0 0,-0.177264 0.537275,0 -0.568342,-0.619511 0,-0.202849 0.785811,0 0,0.179092 -0.564687,0 0.564687,0.615856 0,0.204676 z "/>
<path fill="rgb(241,240,234)" stroke="rgb(241,240,234)" d="M 5.62465,11.002 l -2.56394,0 0,-5.49885 1.00145,0 0,2.15641 1.56248,0 0.0932008,0 0.206504,0.0146197 0.193711,0.027412 0.179092,0.0438592 0.162645,0.0566515 0.149852,0.0730987 0.109648,0.0676163 0.149852,0.113303 0.133405,0.127923 0.120613,0.142542 0.102338,0.157162 0.0621339,0.11513 -3.22548,0.0456867 0,1.3706 1.60086,0 1.5899,0.13706 -0.0950283,0.14437 -0.113303,0.133405 -0.12975,0.12244 -0.148025,0.113303 -0.166299,0.104166 -0.0621339,0.0328944 -0.164472,0.0712712 -0.171782,0.0566515 -0.182747,0.0402043 -0.193711,0.0237571 -0.201021,0.00730987 z "/>
<path fill="rgb(241,240,234)" stroke="rgb(241,240,234)" d="M 7.25293,10.1523 l -1.5899,-0.13706 0.082236,-0.00182747 0.197366,-0.027412 0.168127,-0.0621339 0.13706,-0.0932008 0.0201021,-0.0164472 0.113303,-0.142542 0.0694437,-0.164472 0.0219296,-0.188229 0,-0.00913733 -0.0255845,-0.190057 -0.0749261,-0.15899 -0.124268,-0.131578 -0.0493416,-0.0365493 -0.157162,-0.082236 -0.177264,-0.0493416 -0.201021,-0.0164472 -1.60086,0 3.22548,-0.0456867 0.0749261,0.175437 0.0529965,0.179092 0.0328944,0.180919 0.00913733,0.184574 -0.0054824,0.157162 -0.0237571,0.184574 -0.0402043,0.173609 -0.0584789,0.164472 -0.0767536,0.153507 z "/>
<path fill="rgb(42,41,42)" stroke="rgb(42,41,42)" d="M 3.38957,1.14605 l -0.000945665,0.0216593 -0.0028298,0.0214945 -0.00469239,0.021166 -0.00651928,0.0206765 -0.00829655,0.0200296 -0.0100107,0.0192303 -0.0116486,0.0182847 -0.0131979,0.0171998 -0.0146467,0.0159841 -0.0159841,0.0146467 -0.0171998,0.0131979 -0.0182847,0.0116486 -0.0192303,0.0100107 -0.0200296,0.00829655 -0.0206765,0.00651928 -0.021166,0.00469239 -0.0214945,0.0028298 -0.0216593,0.000945665 -0.0216593,-0.000945665 -0.0214945,-0.0028298 -0.021166,-0.00469239 -0.0206765,-0.00651928 -0.0200296,-0.00829655 -0.0192303,-0.0100107 -0.0182847,-0.0116486 -0.0171998,-0.0131979 -0.0159841,-0.0146467 -0.0146467,-0.0159841 -0.0131979,-0.0171998 -0.0116486,-0.0182847 -0.0100107,-0.0192303 -0.00829655,-0.0200296 -0.00651928,-0.0206765 -0.00469239,-0.021166 -0.0028298,-0.0214945 -0.000945665,-0.0216593 0.000945665,-0.0216593 0.0028298,-0.0214945 0.00469239,-0.021166 0.00651928,-0.0206765 0.00829655,-0.0200296 0.0100107,-0.0192303 0.0116486,-0.0182847 0.0131979,-0.0171998 0.0146467,-0.0159841 0.0159841,-0.0146467 0.0171998,-0.0131979 0.0182847,-0.0116486 0.0192303,-0.0100107 0.0200296,-0.00829655 0.0206765,-0.00651928 0.021166,-0.00469239 0.0214945,-0.0028298 0.0216593,-0.000945665 0.0216593,0.000945665 0.0214945,0.0028298 0.021166,0.00469239 0.0206765,0.00651928 0.0200296,0.00829655 0.0192303,0.0100107 0.0182847,0.0116486 0.0171998,0.0131979 0.0159841,0.0146467 0.0146467,0.0159841 0.0131979,0.0171998 0.0116486,0.0182847 0.0100107,0.0192303 0.00829655,0.0200296 0.00651928,0.0206765 0.00469239,0.021166 0.0028298,0.0214945 0.000945665,0.0216593 z "/>
<path fill="rgb(42,41,42)" stroke="rgb(42,41,42)" d="M 4.63659,1.14605 l -0.000945665,0.0216593 -0.0028298,0.0214945 -0.00469239,0.021166 -0.00651928,0.0206765 -0.00829655,0.0200296 -0.0100107,0.0192303 -0.0116486,0.0182847 -0.0131979,0.0171998 -0.0146467,0.0159841 -0.0159841,0.0146467 -0.0171998,0.0131979 -0.0182847,0.0116486 -0.0192303,0.0100107 -0.0200296,0.00829655 -0.0206765,0.00651928 -0.021166,0.00469239 -0.0214945,0.0028298 -0.0216593,0.000945665 -0.0216593,-0.000945665 -0.0214945,-0.0028298 -0.021166,-0.00469239 -0.0206765,-0.00651928 -0.0200296,-0.00829655 -0.0192303,-0.0100107 -0.0182847,-0.0116486 -0.0171998,-0.0131979 -0.0159841,-0.0146467 -0.0146467,-0.0159841 -0.0131979,-0.0171998 -0.0116486,-0.0182847 -0.0100107,-0.0192303 -0.00829655,-0.0200296 -0.00651928,-0.0206765 -0.00469239,-0.021166 -0.0028298,-0.0214945 -0.000945665,-0.0216593 0.000945665,-0.0216593 0.0028298,-0.0214945 0.00469239,-0.021166 0.00651928,-0.0206765 0.00829655,-0.0200296 0.0100107,-0.0192303 0.0116486,-0.0182847 0.0131979,-0.0171998 0.0146467,-0.0159841 0.0159841,-0.0146467 0.0171998,-0.0131979 0.0182847,-0.0116486 0.0192303,-0.0100107 0.0200296,-0.00829655 0.0206765,-0.00651928 0.021166,-0.00469239 0.0214945,-0.0028298 0.0216593,-0.000945665 0.0216593,0.000945665 0.0214945,0.0028298 0.021166,0.00469239 0.0206765,0.00651928 0.0200296,0.00829655 0.0192303,0.0100107 0.0182847,0.0116486 0.0171998,0.0131979 0.0159841,0.0146467 0.0146467,0.0159841 0.0131979,0.0171998 0.0116486,0.0182847 0.0100107,0.0192303 0.00829655,0.0200296 0.00651928,0.0206765 0.00469239,0.021166 0.0028298,0.0214945 0.000945665,0.0216593 z "/>
<path fill="rgb(42,41,42)" stroke="rgb(42,41,42)" d="M 5.20933,1.14605 l -0.000945665,0.0216593 -0.0028298,0.0214945 -0.00469239,0.021166 -0.00651928,0.0206765 -0.00829655,0.0200296 -0.0100107,0.0192303 -0.0116486,0.0182847 -0.0131979,0.0171998 -0.0146467,0.0159841 -0.0159841,0.0146467 -0.0171998,0.0131979 -0.0182847,0.0116486 -0.0192303,0.0100107 -0.0200296,0.00829655 -0.0206765,0.00651928 -0.021166,0.00469239 -0.0214945,0.0028298 -0.0216593,0.000945665 -0.0216593,-0.000945665 -0.0214945,-0.0028298 -0.021166,-0.00469239 -0.0206765,-0.00651928 -0.0200296,-0.00829655 -0.0192303,-0.0100107 -0.0182847,-0.0116486 -0.0171998,-0.0131979 -0.0159841,-0.0146467 -0.0146467,-0.0159841 -0.0131979,-0.0171998 -0.0116486,-0.0182847 -0.0100107,-0.0192303 -0.00829655,-0.0200296 -0.00651928,-0.0206765 -0.00469239,-0.021166 -0.0028298,-0.0214945 -0.000945665,-0.0216593 0.000945665,-0.0216593 0.0028298,-0.0214945 0.00469239,-0.021166 0.00651928,-0.0206765 0.00829655,-0.0200296 0.0100107,-0.0192303 0.0116486,-0.0182847 0.0131979,-0.0171998 0.0146467,-0.0159841 0.0159841,-0.0146467 0.0171998,-0.0131979 0.0182847,-0.0116486 0.0192303,-0.0100107 0.0200296,-0.00829655 0.0206765,-0.00651928 0.021166,-0.00469239 0.0214945,-0.0028298 0.0216593,-0.000945665 0.0216593,0.000945665 0.0214945,0.0028298 0.021166,0.00469239 0.0206765,0.00651928 0.0200296,0.00829655 0.0192303,0.0100107 0.0182847,0.0116486 0.0171998,0.0131979 0.0159841,0.0146467 0.0146467,0.0159841 0.0131979,0.0171998 0.0116486,0.0182847 0.0100107,0.0192303 0.00829655,0.0200296 0.00651928,0.0206765 0.00469239,0.021166 0.0028298,0.0214945 0.000945665,0.0216593 z "/>
<path fill="rgb(42,41,42)" stroke="rgb(42,41,42)" d="M 3.19183,2.01099 l 0,-0.279037 -0.437368,0 0.0936064,0.279037 0.343761,0 z M 2.83244,1.16147 l 0.00274579,0.0268264 0.00506582,0.0264864 0.00734756,0.0259463 0.00957374,0.0252099 0.0117275,0.0242829 0.0137927,0.0231723 0.0157535,0.0218866 0.0175952,0.0204353 0.0193039,0.0188296 0.0208667,0.0170814 0.0222717,0.0152042 0.0235083,0.0132119 0.0245671,0.0111198 0.0254402,0.00894364 0.026121,0.00669983 0.0266043,0.00440537 0.0268864,0.00207759 0.0269652,-0.000265889 0.0268402,-0.00260736 0.0265122,-0.00492912 0.0259838,-0.00721361 0.0252589,-0.00944356 0.0243431,-0.0116021 0.0232432,-0.0136729 0.0219675,-0.0156404 0.0205258,-0.0174896 0.0189289,-0.0192066 0.0171889,-0.0207783 0.0153189,-0.022193 0.013333,-0.0234398 0.0112464,-0.0245094 0.00907476,-0.0253938 0.0068345,-0.0260861 0.121954,0 0,0.380491 -0.119659,0 0,-0.0850087 -0.0996882,0 0,0.23955 -0.0305243,0.359845 -0.574836,0 -0.156343,-0.487685 0.0284259,-0.369315 -0.0473766,0 0,-0.0852264 0.265309,0 z "/>
<path fill="rgb(42,41,42)" stroke="rgb(42,41,42)" d="M 4.56714,2.01266 l 0,0.0806249 -0.909941,-0.503974 -0.0900589,0 0,-0.380491 0.525525,0 0.00195859,0.0216278 0.00387609,0.0213676 0.00576281,0.0209377 0.00760378,0.0203416 0.00938437,0.019584 0.0110904,0.0186709 0.0127085,0.0176095 0.0142256,0.0164083 0.0156297,0.0150768 0.0169098,0.0136256 0.0180556,0.0120662 0.019058,0.0104111 0.0199092,0.0086732 0.0206022,0.00686649 0.0211316,0.00500526 0.0214933,0.00310428 0.0216843,0.00117866 0.233391,0.000114965 0,0.143108 -0.0286264,0 0,0.0209112 0.0286264,0.0286264 0,0.107459 -0.0867069,-0.0805914 -0.535972,0 0.622679,0.351657 z "/>
<path fill="rgb(42,41,42)" stroke="rgb(42,41,42)" d="M 5.56714,1.38332 l -0.814559,0.201274 -0.185441,0 0,-0.143108 0.462815,0.000227976 0.021511,-0.000920152 0.0213511,-0.00277477 0.0210317,-0.00460865 0.020555,-0.00640807 0.0199246,-0.0081596 0.0191454,-0.00985013 0.018223,-0.011467 0.0171644,-0.0129982 0.0159775,-0.0144323 0.0146712,-0.0157584 0.0132552,-0.0169668 0.0117401,-0.0180483 0.0101372,-0.0189949 0.00845864,-0.0197995 0.0067168,-0.0204562 0.00492475,-0.0209599 0.00309589,-0.0213069 0.289301,0 0,0.165515 z M 4.83064,2.16147 l -0.140387,0 -0.123114,-0.068187 0,-0.0806249 0.263501,0.148812 z M 5.09447,2.16147 l -0.0755975,0 -0.451739,-0.419878 0,-0.107459 0.527337,0.527337 z M 5.36396,2.16147 l 0.0349249,-0.327227 0.0251233,0.068476 -0.0257071,0.258751 -0.0343411,0 z "/>
<path fill="rgb(42,41,42)" stroke="rgb(42,41,42)" d="M 4.69025,2.16147 l 0.140387,0 0.20186,0.114 0,-0.101339 -0.0136215,-0.0126608 0.0755975,0 0.173443,0.173443 0.080258,-0.0255224 0.0157876,-0.147921 0.0343411,0 -0.0274367,0.276161 -0.000789548,0.00549701 -0.00126561,0.00540728 -0.00173205,0.00527641 -0.0021853,0.00510538 -0.00262193,0.0048955 -0.0030386,0.00464837 -0.00343215,0.00436587 -0.00379958,0.00405014 -0.0041381,0.00370359 -0.00444513,0.00332886 -0.00471833,0.00292879 -0.00495562,0.00250644 -0.00515521,0.00206502 -0.00531556,0.00160788 -0.00543546,0.0011385 -0.005514,0.000660463 -0.00555058,0.000177397 -0.00554493,-0.000307018 -0.00549707,-0.000789097 -0.00540738,-0.00126517 -0.00527655,-0.00173162 -0.594797,-0.329431 z "/>
<path fill="rgb(42,41,42)" stroke="rgb(42,41,42)" d="M 5.56714,1.38332 l 0,-0.165515 0.0112276,0 0,0.162741 -0.0112276,0.0027743 z "/>
<path fill="rgb(42,41,42)" stroke="rgb(42,41,42)" d="M 5.57732,1.58955 l -0.00457585,-0.0143834 -0.00330484,-0.0147274 -0.00200868,-0.0149594 -0.000697241,-0.0150776 0.000619509,-0.015081 0.00193154,-0.0149696 0.00322888,-0.0147443 0.00450164,-0.0144068 0.00574014,-0.0139596 0.00693496,-0.0134062 0.00807699,-0.0127507 0.00915756,-0.0119983 0.0101684,-0.0111545 0.0111019,-0.0102258 0.0119509,-0.00921929 0.0127089,-0.00814261 0.0133703,-0.00700397 0.0139298,-0.00581203 0.0143834,-0.00457585 0.0147274,-0.00330484 0.0149594,-0.00200868 0.0150776,-0.000697241 0.015081,0.000619509 0.0149696,0.00193154 0.0147443,0.00322888 0.0144068,0.00450164 0.0139596,0.00574014 0.0134062,0.00693496 0.0127507,0.00807699 0.0119983,0.00915756 0.0111545,0.0101684 0.0102258,0.0111019 0.00921929,0.0119509 0.00814261,0.0127089 0.00700397,0.0133703 0.00581203,0.0139298 0.00457585,0.0143834 0.00330484,0.0147274 0.00200868,0.0149594 0.000697241,0.0150776 -0.000619509,0.015081 -0.00193154,0.0149696 -0.00322888,0.0147443 -0.00450164,0.0144068 -0.00574014,0.0139596 -0.00693496,0.0134062 -0.00807699,0.0127507 -0.00915756,0.0119983 -0.0101684,0.0111545 -0.0111019,0.0102258 -0.0119509,0.00921929 -0.0127089,0.00814261 -0.0133703,0.00700397 -0.0139298,0.00581203 -0.0143834,0.00457585 -0.0147274,0.00330484 -0.0149594,0.00200868 -0.0150776,0.000697241 -0.015081,-0.000619509 -0.0149696,-0.00193154 -0.0147443,-0.00322888 -0.0144068,-0.00450164 -0.0139596,-0.00574014 -0.0134062,-0.00693496 -0.0127507,-0.00807699 -0.0119983,-0.00915756 -0.0111545,-0.0101684 -0.0102258,-0.0111019 -0.00921929,-0.0119509 -0.00814261,-0.0127089 -0.00700397,-0.0133703 -0.00581203,-0.0139298 z "/>
<path fill="rgb(42,41,42)" stroke="rgb(42,41,42)" d="M 6.77212,1.15007 l -0.00457585,-0.0143834 -0.00330484,-0.0147274 -0.00200868,-0.0149594 -0.000697241,-0.0150776 0.000619509,-0.015081 0.00193154,-0.0149696 0.00322888,-0.0147443 0.00450164,-0.0144068 0.00574014,-0.0139596 0.00693496,-0.0134062 0.00807699,-0.0127507 0.00915756,-0.0119983 0.0101684,-0.0111545 0.0111019,-0.0102258 0.0119509,-0.00921929 0.0127089,-0.00814261 0.0133703,-0.00700397 0.0139298,-0.00581203 0.0143834,-0.00457585 0.0147274,-0.00330484 0.0149594,-0.00200868 0.0150776,-0.000697241 0.015081,0.000619509 0.0149696,0.00193154 0.0147443,0.00322888 0.0144068,0.00450164 0.0139596,0.00574014 0.0134062,0.00693496 0.0127507,0.00807699 0.0119983,0.00915756 0.0111545,0.0101684 0.0102258,0.0111019 0.00921929,0.0119509 0.00814261,0.0127089 0.00700397,0.0133703 0.00581203,0.0139298 0.00457585,0.0143834 0.00330484,0.0147274 0.00200868,0.0149594 0.000697241,0.0150776 -0.000619509,0.015081 -0.00193154,0.0149696 -0.00322888,0.0147443 -0.00450164,0.0144068 -0.00574014,0.0139596 -0.00693496,0.0134062 -0.00807699,0.0127507 -0.00915756,0.0119983 -0.0101684,0.0111545 -0.0111019,0.0102258 -0.0119509,0.00921929 -0.0127089,0.00814261 -0.0133703,0.00700397 -0.0139298,0.00581203 -0.0143834,0.00457585 -0.0147274,0.00330484 -0.0149594,0.00200868 -0.0150776,0.000697241 -0.015081,-0.000619509 -0.0149696,-0.00193154 -0.0147443,-0.00322888 -0.0144068,-0.00450164 -0.0139596,-0.00574014 -0.0134062,-0.00693496 -0.0127507,-0.00807699 -0.0119983,-0.00915756 -0.0111545,-0.0101684 -0.0102258,-0.0111019 -0.00921929,-0.0119509 -0.00814261,-0.0127089 -0.00700397,-0.0133703 -0.00581203,-0.0139298 z "/>
<path fill="rgb(42,41,42)" stroke="rgb(42,41,42)" d="M 6.35692,1.93974 l 0,0.0503819 -0.00368365,-0.000164591 -0.00832859,-0.0010921 -0.00820449,-0.00180124 -0.00802012,-0.00249714 -0.00777684,-0.00317471 -0.306065,-0.140532 -0.573984,0.10777 -0.0168451,-0.0459129 -0.0251233,-0.068476 -0.0419684,-0.114389 0.178157,-0.102441 0.00852624,0.0175958 0.0100434,0.0167762 0.0114825,0.015826 0.0128322,0.0147528 0.0140821,0.0135648 0.0152225,0.0122713 0.0162445,0.0108823 0.0171402,0.00940871 0.0179025,0.00786193 0.0185256,0.006254 0.0190046,0.00459742 0.0193357,0.00290509 0.0195165,0.00119016 0.0195454,-0.000534032 0.0194224,-0.00225407 0.0191482,-0.00395657 0.0187252,-0.0056283 0.0181564,-0.00725624 0.0174465,-0.00882775 0.0166008,-0.0103306 0.0156261,-0.0117531 0.0145298,-0.0130842 0.0133204,-0.0143135 0.0120075,-0.0154314 0.0106012,-0.0164294 0.00911237,-0.0172995 0.00755271,-0.0180351 0.00593429,-0.0186304 0.00426972,-0.0190809 0.00257194,-0.0193828 0.000854151,-0.0195341 -0.000870281,-0.0195334 -0.00258794,-0.0193807 -0.00428548,-0.0190773 -0.00594967,-0.0186255 0.410252,-0.150518 0,0.387605 -0.31733,0.108059 0.301461,0.13716 0.00378018,0.00165737 0.00391382,0.00131098 0.00401579,0.000953982 0.00408527,0.000589264 7.42637e-05,3.95991e-06 z "/>
<path fill="rgb(42,41,42)" stroke="rgb(42,41,42)" d="M 7.35692,1.10239 l 0.0626746,0.170826 -0.0626746,0.0339526 0,-0.204779 z "/>
<path fill="rgb(42,41,42)" stroke="rgb(42,41,42)" d="M 6.9724,1.70359 l 0.111866,-0.260152 -0.421246,0.142755 0.0795722,0.216882 0.202036,-0.0741255 0.00362967,-0.00135726 0.00350145,-0.00166028 0.00334799,-0.00195132 0.00317039,-0.0022283 0.00296993,-0.00248921 0.00274806,-0.00273218 0.00250638,-0.00295545 0.00224664,-0.00315742 0.00197069,-0.00333662 0.00168054,-0.00349177 z M 7.32367,1.01176 l 0.0332511,0.0906293 0,0.204779 -0.207286,0.112293 -0.139894,0.323386 -0.00197561,0.00396948 -0.00232098,0.00377794 -0.00264794,0.00355643 -0.0029539,0.0033067 -0.00323642,0.00303074 -0.00349326,0.00273074 -0.00372239,0.00240907 -0.00392199,0.00206829 -0.00409047,0.0017111 -0.586784,0.215286 -0.00802899,0.00246848 -0.00821087,0.00177192 -0.00833244,0.00106234 -0.0083928,0.000344965 -0.00470786,-0.000210355 0,-0.0503819 0.00404743,0.000215818 0.00412477,-0.000151485 0.00409447,-0.000521523 0.00403104,-0.000887342 0.003935,-0.00124598 0.317906,-0.116637 -0.0801178,-0.218369 -0.258021,0.0878625 0,-0.387605 0.368159,-0.135075 0.00744884,0.017719 0.00895225,0.017009 0.0103887,0.0161717 0.0117474,0.0152135 0.0130182,0.0141413 0.0141915,0.0129634 0.0152587,0.0116885 0.0162118,0.0103261 0.0170435,0.00888645 0.0177477,0.00738031 0.0183191,0.00581894 0.0187534,0.00421404 0.0190475,0.00257761 0.019199,0.00092189 0.0192068,-0.000740728 0.0190709,-0.0023978 0.0187924,-0.00403694 0.0183732,-0.00564586 0.0178165,-0.00721255 0.0171266,-0.00872526 0.0163085,-0.0101727 0.0153683,-0.011544 0.0143132,-0.0128289 0.013151,-0.0140179 0.0118904,-0.015102 0.0105408,-0.016073 0.00911231,-0.0169238 0.00761567,-0.017648 0.00606204,-0.0182401 0.00446306,-0.0186957 0.00283068,-0.0190115 0.00117712,-0.019185 -0.000485246,-0.0192149 -0.00214398,-0.0191011 -0.00378667,-0.0188444 0.174459,-0.0252443 z "/>
<path fill="rgb(42,41,42)" stroke="rgb(42,41,42)" d="M 7.10285,11.6009 l 0.317061,0 -4.44207,-6.7 -0.317061,0 4.44207,6.7 z "/>
<path fill="rgb(42,41,42)" stroke="rgb(42,41,42)" d="M 9.50568,13.7904 l -1.45165,-2.18954 -0.000752248,4.7158e-06 -0.000752258,2.82949e-06 -0.000752262,9.43166e-07 -0.314798,0 1.58331,2.38811 0.0225716,-0.0075081 0.0217993,-0.0095206 0.0208479,-0.0114549 0.0197253,-0.0132952 0.0184408,-0.0150262 0.0170048,-0.0166339 0.0154292,-0.018105 0.0137268,-0.0194274 0.0119118,-0.0205903 0.0099989,-0.0215841 0.00800392,-0.0224006 0.00594321,-0.0230332 z "/>
<path fill="rgb(42,41,42)" stroke="rgb(42,41,42)" d="M 4.24608,4.90089 l -1.23116,-1.85697 0,0.478224 0.9141,1.37874 0.317061,0 z "/>
<path fill="rgb(42,41,42)" stroke="rgb(42,41,42)" d="M 2.87211,2.82852 l -0.2707,0.0699262 0.413511,0.623701 0,-0.478224 -0.142811,-0.215402 z "/>
<path fill="rgb(42,41,42)" stroke="rgb(42,41,42)" d="M 0.513731,0.706042 l 1.38274,2.08559 0.317061,0 -1.51439,-2.28417 -0.0225716,0.0075081 -0.0217993,0.0095206 -0.0208479,0.0114549 -0.0197253,0.0132952 -0.0184408,0.0150262 -0.0170048,0.0166339 -0.0154292,0.018105 -0.0137268,0.0194274 -0.0119118,0.0205903 -0.0099989,0.0215841 -0.00800392,0.0224006 -0.00594321,0.0230332 z "/>
<path fill="rgb(42,41,42)" stroke="rgb(42,41,42)" d="M 2.31302,4.37637 l 0.0198823,0.0299885 0.317061,0 -0.33439,-0.504362 -0.00255285,0.474374 z "/>
<path fill="rgb(42,41,42)" stroke="rgb(42,41,42)" d="M 9.00979,13.9989 l -1.58988,-2.39803 -0.317061,0 1.58988,2.39803 0.317061,1.77636e-15 z "/>
<path fill="rgb(42,41,42)" stroke="rgb(42,41,42)" d="M 2.84765,2.79163 l -0.317061,0 0.0708189,0.106817 0.2707,-0.0699262 -0.0244582,-0.0368904 z "/>
<path fill="rgb(42,41,42)" stroke="rgb(42,41,42)" d="M 1.65177,3.379 l 0.661252,0.997369 0.00255285,-0.474374 -0.0263447,-0.0397359 -0.0699846,0 0.0311331,-0.0585999 -0.129286,-0.195003 -0.000429936,0.000673889 -0.000427532,0.000675417 -0.000425122,0.000676937 -0.204775,-0.198919 0.0156392,-0.0142105 0.0161464,-0.0136314 0.0166322,-0.0130342 -0.311683,-0.470113 0,0.478224 z "/>
<path fill="rgb(42,41,42)" stroke="rgb(42,41,42)" d="M 9.51129,12.8424 l -1.15953,-1.74892 0,0.20737 -0.00126948,0.0275695 -0.00379771,0.0273362 -0.00629379,0.0268715 -0.0087366,0.0261794 -0.0111055,0.0252658 -0.0133804,0.0241383 -0.015542,0.0228065 1.21965,1.8396 0,-0.478224 z "/>
<path fill="rgb(42,41,42)" stroke="rgb(42,41,42)" d="M 1.32668,0.497542 l -0.317061,8.88178e-16 1.52097,2.29409 0.317061,0 -1.52097,-2.29409 z "/>
<path fill="rgb(42,41,42)" stroke="rgb(42,41,42)" d="M 0.508116,1.65402 l 1.14365,1.72498 0,-0.478224 -1.14365,-1.72498 0,0.478224 z "/>
<path fill="rgb(42,41,42)" stroke="rgb(42,41,42)" d="M 8.35177,11.0935 l -4.10569,-6.19263 -0.317061,0 4.36262,6.58017 0.015542,-0.0228065 0.0133804,-0.0241383 0.0111055,-0.0252658 0.0087366,-0.0261794 0.00629379,-0.0268715 0.00379771,-0.0273362 0.00126948,-0.0275695 0,-0.20737 z "/>
<path fill="rgb(42,41,42)" stroke="rgb(42,41,42)" d="M 2.31287,3.06658 l 0.0292331,0 4.38405e-12,0 0.00229471,0.000100189 0.00227725,0.000299805 0.00224245,0.00049714 0.00219059,0.000690691 0.00212206,0.000878985 0.00203737,0.00106059 0.00193719,0.00123412 0.00182225,0.00139826 0.00169345,0.00155176 0.00155176,0.00169345 0.00139826,0.00182225 0.00123412,0.00193719 0.00106059,0.00203737 0.000878985,0.00212206 0.000690691,0.00219059 0.00049714,0.00224245 0.000299805,0.00227725 0.000100189,0.00229471 -0.000100189,0.00229471 -0.000299805,0.00227725 -0.00049714,0.00224245 -0.000690691,0.00219059 -0.000878985,0.00212206 -0.00106059,0.00203737 -0.00123412,0.00193719 -0.00139826,0.00182225 -0.00155176,0.00169345 -0.00169345,0.00155176 -0.00182225,0.00139826 -0.00193719,0.00123412 -0.00203737,0.00106059 -0.00212206,0.000878985 -0.00219059,0.000690691 -0.00224245,0.00049714 -0.00227725,0.000299805 -0.00229471,0.000100189 -0.0292331,0 0,-0.0526578 z M 2.3421,3.14267 l 0.00433423,-0.000189236 0.00430124,-0.000566269 0.00423552,-0.000938992 0.00413756,-0.00130457 0.00400812,-0.00166022 0.00384817,-0.00200323 0.00365893,-0.002331 0.00344185,-0.00264102 0.00319857,-0.00293095 0.00293095,-0.00319857 0.00264102,-0.00344185 0.002331,-0.00365893 0.00200323,-0.00384817 0.00166022,-0.00400812 0.00130457,-0.00413756 0.000938992,-0.00423552 0.000566269,-0.00430124 0.000189236,-0.00433423 -0.000189236,-0.00433423 -0.000566269,-0.00430124 -0.000938992,-0.00423552 -0.00130457,-0.00413756 -0.00166022,-0.00400812 -0.00200323,-0.00384817 -0.002331,-0.00365893 -0.00264102,-0.00344185 -0.00293095,-0.00319857 -0.00319857,-0.00293095 -0.00344185,-0.00264102 -0.00365893,-0.002331 -0.00384817,-0.00200323 -0.00400812,-0.00166022 -0.00413756,-0.00130457 -0.00423552,-0.000938992 -0.00430124,-0.000566269 -0.00433423,-0.000189236 -0.0292331,0 0,-0.0702262 -0.0234008,0 0,0.169686 0.052634,0 z "/>
<path fill="rgb(42,41,42)" stroke="rgb(42,41,42)" d="M 2.31287,3.06658 l 0,0.0526578 0.0292331,0 0.00229471,-0.000100189 0.00227725,-0.000299805 0.00224245,-0.00049714 0.00219059,-0.000690691 0.00212206,-0.000878985 0.00203737,-0.00106059 0.00193719,-0.00123412 0.00182225,-0.00139826 0.00169345,-0.00155176 0.00155176,-0.00169345 0.00139826,-0.00182225 0.00123412,-0.00193719 0.00106059,-0.00203737 0.000878985,-0.00212206 0.000690691,-0.00219059 0.00049714,-0.00224245 0.000299805,-0.00227725 0.000100189,-0.00229471 -0.000100189,-0.00229471 -0.000299805,-0.00227725 -0.00049714,-0.00224245 -0.000690691,-0.00219059 -0.000878985,-0.00212206 -0.00106059,-0.00203737 -0.00123412,-0.00193719 -0.00139826,-0.00182225 -0.00155176,-0.00169345 -0.00169345,-0.00155176 -0.00182225,-0.00139826 -0.00193719,-0.00123412 -0.00203737,-0.00106059 -0.00212206,-0.000878985 -0.00219059,-0.000690691 -0.00224245,-0.00049714 -0.00227725,-0.000299805 -0.00229471,-0.000100189 -4.38405e-12,0 -0.0292331,0 z "/>
<path fill="rgb(42,41,42)" stroke="rgb(42,41,42)" d="M 2.3421,3.11924 l 0.00229471,-0.000100189 0.00227725,-0.000299805 0.00224245,-0.00049714 0.00219059,-0.000690691 0.00212206,-0.000878985 0.00203737,-0.00106059 0.00193719,-0.00123412 0.00182225,-0.00139826 0.00169345,-0.00155176 0.00155176,-0.00169345 0.00139826,-0.00182225 0.00123412,-0.00193719 0.00106059,-0.00203737 0.000878985,-0.00212206 0.000690691,-0.00219059 0.00049714,-0.00224245 0.000299805,-0.00227725 0.000100189,-0.00229471 -0.000100189,-0.00229471 -0.000299805,-0.00227725 -0.00049714,-0.00224245 -0.000690691,-0.00219059 -0.000878985,-0.00212206 -0.00106059,-0.00203737 -0.00123412,-0.00193719 -0.00139826,-0.00182225 -0.00155176,-0.00169345 -0.00169345,-0.00155176 -0.00182225,-0.00139826 -0.00193719,-0.00123412 -0.00203737,-0.00106059 -0.00212206,-0.000878985 -0.00219059,-0.000690691 -0.00224245,-0.00049714 -0.00227725,-0.000299805 -0.00229471,-0.000100189 0.00229471,0.000100189 0.00227725,0.000299805 0.00224245,0.00049714 0.00219059,0.000690691 0.00212206,0.000878985 0.00203737,0.00106059 0.00193719,0.00123412 0.00182225,0.00139826 0.00169345,0.00155176 0.00155176,0.00169345 0.00139826,0.00182225 0.00123412,0.00193719 0.00106059,0.00203737 0.000878985,0.00212206 0.000690691,0.00219059 0.00049714,0.00224245 0.000299805,0.00227725 0.000100189,0.00229471 -0.000100189,0.00229471 -0.000299805,0.00227725 -0.00049714,0.00224245 -0.000690691,0.00219059 -0.000878985,0.00212206 -0.00106059,0.00203737 -0.00123412,0.00193719 -0.00139826,0.00182225 -0.00155176,0.00169345 -0.00169345,0.00155176 -0.00182225,0.00139826 -0.00193719,0.00123412 -0.00203737,0.00106059 -0.00212206,0.000878985 -0.00219059,0.000690691 -0.00224245,0.00049714 -0.00227725,0.000299805 -0.00229471,0.000100189 z "/>
<path fill="rgb(42,41,42)" stroke="rgb(42,41,42)" d="M 2.37632,3.5154 l 0.638598,0.963201 0,-0.478224 -0.357125,-0.538653 -0.157717,0.148963 -0.0113126,-0.0164142 -0.0127255,-0.0153448 -0.0140378,-0.0141542 -0.0152393,-0.0128517 -0.0163203,-0.0114476 -0.0172724,-0.00995316 -0.018088,-0.00838004 -0.0187607,-0.0067407 z "/>
<path fill="rgb(42,41,42)" stroke="rgb(42,41,42)" d="M 3.61196,4.90089 l -0.597039,-0.900518 0,0.478224 0.279979,0.422293 0.317061,0 z "/>
<path fill="rgb(42,41,42)" stroke="rgb(42,41,42)" d="M 2.3421,3.14267 l -0.052634,0 0.0233889,0.111172 0.0499221,0.00215232 0.0495516,0.00644097 0.0488134,0.0106818 0.0477129,0.0148434 0.0462583,0.0188948 -0.22441,-0.338478 -0.0178368,0.00460753 0,0.0702262 0.0292331,0 0.00433423,0.000189236 0.00430124,0.000566269 0.00423552,0.000938992 0.00413756,0.00130457 0.00400812,0.00166022 0.00384817,0.00200323 0.00365893,0.002331 0.00344185,0.00264102 0.00319857,0.00293095 0.00293095,0.00319857 0.00264102,0.00344185 0.002331,0.00365893 0.00200323,0.00384817 0.00166022,0.00400812 0.00130457,0.00413756 0.000938992,0.00423552 0.000566269,0.00430124 0.000189236,0.00433423 -0.000189236,0.00433423 -0.000566269,0.00430124 -0.000938992,0.00423552 -0.00130457,0.00413756 -0.00166022,0.00400812 -0.00200323,0.00384817 -0.002331,0.00365893 -0.00264102,0.00344185 -0.00293095,0.00319857 -0.00319857,0.00293095 -0.00344185,0.00264102 -0.00365893,0.002331 -0.00384817,0.00200323 -0.00400812,0.00166022 -0.00413756,0.00130457 -0.00423552,0.000938992 -0.00430124,0.000566269 -0.00433423,0.000189236 z "/>
<path fill="rgb(42,41,42)" stroke="rgb(42,41,42)" d="M 2.20911,3.26319 l 0.16721,0.252204 0.0187607,0.0067407 0.018088,0.00838004 0.0172724,0.00995316 0.0163203,0.0114476 0.0152393,0.0128517 0.0140378,0.0141542 0.0127255,0.0153448 0.0113126,0.0164142 0.157717,-0.148963 -0.102677,-0.154868 -0.0462583,-0.0188948 -0.0477129,-0.0148434 -0.0488134,-0.0106818 -0.0495516,-0.00644097 -0.0499221,-0.00215232 -0.0347491,0.00104182 -0.0346243,0.00312171 -0.0343751,0.0051904 z "/>
<path fill="rgb(42,41,42)" stroke="rgb(42,41,42)" d="M 2.28923,3.86226 l -0.0388515,-0.0585999 -0.0311331,0.0585999 0.0699846,0 z "/>
<path fill="rgb(42,41,42)" stroke="rgb(42,41,42)" d="M 8.05403,11.6009 l -4.44207,-6.69999 -0.317061,0 4.44207,6.7 0.314798,0 0.000752262,-9.43166e-07 0.000752258,-2.82949e-06 0.000752248,-4.7158e-06 z "/>
<path fill="rgb(42,41,42)" stroke="rgb(42,41,42)" d="M 2.28947,3.14267 l 0,-0.169686 0.0234008,0 0.0178368,-0.00460753 -0.11718,-0.176743 -0.317061,0 0.312643,0.471561 0.0343751,-0.0051904 0.0346243,-0.00312171 0.0347491,-0.00104182 -0.0233889,-0.111172 z "/>
<path fill="rgb(42,41,42)" stroke="rgb(42,41,42)" d="M 1.96345,3.37089 l -0.0166322,0.0130342 -0.0161464,0.0136314 -0.0156392,0.0142105 0.204775,0.198919 0.000425122,-0.000676937 0.000427532,-0.000675417 0.000429936,-0.000673889 -0.15764,-0.237769 z "/>
<path fill="rgb(42,41,42)" stroke="rgb(42,41,42)" d="M 2.3329,4.40636 l 0.0759715,0.114588 0.0441306,-0.00947473 0.0432297,-0.0129796 0.042051,-0.0164011 0.0406019,-0.0197171 0.0388919,-0.0229064 0.0369319,-0.0259484 -0.0047477,-0.00716098 -0.317061,0 z "/>
<path fill="rgb(42,41,42)" stroke="rgb(42,41,42)" d="M 2.43701,4.56339 l 0.223763,0.337503 0.317061,0 -0.298636,-0.450433 -0.0438811,0.0312919 -0.0465588,0.0271481 -0.0488463,0.0227767 -0.0507245,0.0182145 -0.0521776,0.0134996 z "/>
<path fill="rgb(42,41,42)" stroke="rgb(42,41,42)" d="M 2.43701,4.56339 l 0.0521776,-0.0134996 0.0507245,-0.0182145 0.0488463,-0.0227767 0.0465588,-0.0271481 0.0438811,-0.0312919 -0.0244897,-0.036938 -0.0369319,0.0259484 -0.0388919,0.0229064 -0.0406019,0.0197171 -0.042051,0.0164011 -0.0432297,0.0129796 -0.0441306,0.00947473 0.0281385,0.0424415 z "/>
<path fill="rgb(42,41,42)" stroke="rgb(42,41,42)" d="M 0.508116,13.7364 l 0.000998892,0.0228784 0.00298907,0.0227043 0.00495651,0.0223574 0.00688622,0.0218403 0.00876352,0.021157 0.0105741,0.0203127 0.0123043,0.0193138 0.0139407,0.0181679 0.0154711,0.0168838 0.0168838,0.0154711 0.0181679,0.0139407 0.0193138,0.0123043 0.0203127,0.0105741 0.021157,0.00876352 0.0218403,0.00688622 0.0223574,0.00495651 0.0227043,0.00298907 0.0228784,0.000998892 7.92212,5.32907e-15 0.317061,1.77636e-15 0.239002,1.77636e-15 0.0240982,-0.00110848 0.0238946,-0.00331607 0.0234893,-0.00549566 0.0225716,-0.0075081 0.0217993,-0.0095206 0.0208479,-0.0114549 0.0197253,-0.0132952 0.0184408,-0.0150262 0.0170048,-0.0166339 0.0154292,-0.018105 0.0137268,-0.0194274 0.0119118,-0.0205903 0.0099989,-0.0215841 0.00800392,-0.0224006 0.00594321,-0.0230332 0.00311414,-0.0178564 0.00187444,-0.0180288 0.000625809,-0.0181151 1.77636e-15,-0.415756 0,-0.478224 0,-4.59155 0.2625,0 -1.77636e-15,5.48553 -0.00199778,0.0457568 -0.00597815,0.0454085 -0.00991301,0.0447147 -0.0137724,0.0436806 -0.017527,0.042314 -0.0211483,0.0406254 -0.0246085,0.0386276 -0.0278815,0.0363359 -0.0309423,0.0337676 -0.0337676,0.0309423 -0.0363359,0.0278815 -0.0386276,0.0246085 -0.0406254,0.0211483 -0.042314,0.017527 -0.0436806,0.0137724 -0.0447147,0.00991301 -0.0454085,0.00597815 -0.0457568,0.00199778 -8.47818,-1.06581e-14 -0.0457568,-0.00199778 -0.0454085,-0.00597815 -0.0447147,-0.00991301 -0.0436806,-0.0137724 -0.042314,-0.017527 -0.0406254,-0.0211483 -0.0386276,-0.0246085 -0.0363359,-0.0278815 -0.0337676,-0.0309423 -0.0309423,-0.0337676 -0.0278815,-0.0363359 -0.0246085,-0.0386276 -0.0211483,-0.0406254 -0.017527,-0.042314 -0.0137724,-0.0436806 -0.00991301,-0.0447147 -0.00597815,-0.0454085 -0.00199778,-0.0457568 0,-5.48553 0.2625,0 0,5.48553 z "/>
<path fill="rgb(42,41,42)" stroke="rgb(42,41,42)" d="M 0.508116,8.25089 l -0.2625,0 0,-7.49085 0.00199778,-0.0457568 0.00597815,-0.0454085 0.00991301,-0.0447147 0.0137724,-0.0436806 0.017527,-0.042314 0.0211483,-0.0406254 0.0246085,-0.0386276 0.0278815,-0.0363359 0.0309423,-0.0337676 0.0337676,-0.0309423 0.0363359,-0.0278815 0.0386276,-0.0246085 0.0406254,-0.0211483 0.042314,-0.017527 0.0436806,-0.0137724 0.0447147,-0.00991301 0.0454085,-0.00597815 0.0457568,-0.00199778 8.47818,7.10543e-15 0.0457568,0.00199778 0.0454085,0.00597815 0.0447147,0.00991301 0.0436806,0.0137724 0.042314,0.017527 0.0406254,0.0211483 0.0386276,0.0246085 0.0363359,0.0278815 0.0337676,0.0309423 0.0309423,0.0337676 0.0278815,0.0363359 0.0246085,0.0386276 0.0211483,0.0406254 0.017527,0.042314 0.0137724,0.0436806 0.00991301,0.0447147 0.00597815,0.0454085 0.00199778,0.0457568 0,7.49085 -0.2625,0 -1.77636e-15,-7.49085 -0.000998892,-0.0228784 -0.00298907,-0.0227043 -0.00495651,-0.0223574 -0.00688622,-0.0218403 -0.00876352,-0.021157 -0.0105741,-0.0203127 -0.0123043,-0.0193138 -0.0139407,-0.0181679 -0.0154711,-0.0168838 -0.0168838,-0.0154711 -0.0181679,-0.0139407 -0.0193138,-0.0123043 -0.0203127,-0.0105741 -0.021157,-0.00876352 -0.0218403,-0.00688622 -0.0223574,-0.00495651 -0.0227043,-0.00298907 -0.0228784,-0.000998892 -7.92212,-7.10543e-15 -0.317061,8.88178e-16 -0.239002,-2.66454e-15 -0.0240982,0.00110848 -0.0238946,0.00331607 -0.0234893,0.00549566 -0.0225716,0.0075081 -0.0217993,0.0095206 -0.0208479,0.0114549 -0.0197253,0.0132952 -0.0184408,0.0150262 -0.0170048,0.0166339 -0.0154292,0.018105 -0.0137268,0.0194274 -0.0119118,0.0205903 -0.0099989,0.0215841 -0.00800392,0.0224006 -0.00594321,0.0230332 -0.00311414,0.0178564 -0.00187444,0.0180288 -0.000625809,0.0181151 1.77636e-15,0.415756 0,0.478224 -1.77636e-15,6.59687 z "/>
</g></g></svg>
