<?xml version="1.0" encoding="UTF-8" standalone="no"?>
<!DOCTYPE svg PUBLIC "-//W3C//DTD SVG 1.1//EN" "http://www.w3.org/Graphics/SVG/1.1/DTD/svg11-flat.dtd"
[

]>
<svg xmlns="http://www.w3.org/2000/svg"  viewBox="-0.112544 -0.112544 9.22863 9.22687"><g fill="none" stroke="black" stroke-width="0.0125" transform="translate(0,9.00178) scale(1, -1)">
<g id="Output" >
<path fill="rgb(200,225,100)" stroke="rgb(200,225,100)" d="M 8.90354,8.75178 l -0.000570795,0.0130734 -0.00170804,0.0129739 -0.00283229,0.0127756 -0.00393498,0.0124802 -0.00500773,0.0120897 -0.00604236,0.0116073 -0.007031,0.0110365 -0.00796614,0.0103817 -0.00884065,0.00964788 -0.00964788,0.00884065 -0.0103817,0.00796614 -0.0110365,0.007031 -0.0116073,0.00604236 -0.0120897,0.00500773 -0.0124802,0.00393498 -0.0127756,0.00283229 -0.0129739,0.00170804 -0.0130734,0.000570795 -8.50354,0 -0.0130734,-0.000570795 -0.0129739,-0.00170804 -0.0127756,-0.00283229 -0.0124802,-0.00393498 -0.0120897,-0.00500773 -0.0116073,-0.00604236 -0.0110365,-0.007031 -0.0103817,-0.00796614 -0.00964788,-0.00884065 -0.00884065,-0.00964788 -0.00796614,-0.0103817 -0.007031,-0.0110365 -0.00604236,-0.0116073 -0.00500773,-0.0120897 -0.00393498,-0.0124802 -0.00283229,-0.0127756 -0.00170804,-0.0129739 -0.000570795,-0.0130734 0,-4.25089 0.651769,0 -4.44089e-16,3.05 0.00266371,0.061009 0.00797086,0.0605447 0.0132173,0.0596196 0.0183632,0.0582408 0.0233694,0.0564187 0.0281977,0.0541672 0.0328114,0.0515035 0.0371753,0.0484478 0.0412564,0.0450234 0.0450234,0.0412564 0.0484478,0.0371753 0.0515035,0.0328114 0.0541672,0.0281977 0.0564187,0.0233694 0.0582408,0.0183632 0.0596196,0.0132173 0.0605447,0.00797086 0.061009,0.00266371 6.1,0 0.061009,-0.00266371 0.0605447,-0.00797086 0.0596196,-0.0132173 0.0582408,-0.0183632 0.0564187,-0.0233694 0.0541672,-0.0281977 0.0515035,-0.0328114 0.0484478,-0.0371753 0.0450234,-0.0412564 0.0412564,-0.0450234 0.0371753,-0.0484478 0.0328114,-0.0515035 0.0281977,-0.0541672 0.0233694,-0.0564187 0.0183632,-0.0582408 0.0132173,-0.0596196 0.00797086,-0.0605447 0.00266371,-0.061009 0,-3.05 0.651769,0 0,4.25089 z "/>
<path fill="rgb(200,225,100)" stroke="rgb(200,225,100)" d="M 0.751769,4.50089 l -0.651769,0 0,-4.25089 0.000570795,-0.0130734 0.00170804,-0.0129739 0.00283229,-0.0127756 0.00393498,-0.0124802 0.00500773,-0.0120897 0.00604236,-0.0116073 0.007031,-0.0110365 0.00796614,-0.0103817 0.00884065,-0.00964788 0.00964788,-0.00884065 0.0103817,-0.00796614 0.0110365,-0.007031 0.0116073,-0.00604236 0.0120897,-0.00500773 0.0124802,-0.00393498 0.0127756,-0.00283229 0.0129739,-0.00170804 0.0130734,-0.000570795 8.50354,0 0.0130734,0.000570795 0.0129739,0.00170804 0.0127756,0.00283229 0.0124802,0.00393498 0.0120897,0.00500773 0.0116073,0.00604236 0.0110365,0.007031 0.0103817,0.00796614 0.00964788,0.00884065 0.00884065,0.00964788 0.00796614,0.0103817 0.007031,0.0110365 0.00604236,0.0116073 0.00500773,0.0120897 0.00393498,0.0124802 0.00283229,0.0127756 0.00170804,0.0129739 0.000570795,0.0130734 0,4.25089 -0.651769,0 0,-3.05 -0.00266371,-0.061009 -0.00797086,-0.0605447 -0.0132173,-0.0596196 -0.0183632,-0.0582408 -0.0233694,-0.0564187 -0.0281977,-0.0541672 -0.0328114,-0.0515035 -0.0371753,-0.0484478 -0.0412564,-0.0450234 -0.0450234,-0.0412564 -0.0484478,-0.0371753 -0.0515035,-0.0328114 -0.0541672,-0.0281977 -0.0564187,-0.0233694 -0.0582408,-0.0183632 -0.0596196,-0.0132173 -0.0605447,-0.00797086 -0.061009,-0.00266371 -6.1,8.88178e-16 -0.061009,0.00266371 -0.0605447,0.00797086 -0.0596196,0.0132173 -0.0582408,0.0183632 -0.0564187,0.0233694 -0.0541672,0.0281977 -0.0515035,0.0328114 -0.0484478,0.0371753 -0.0450234,0.0412564 -0.0412564,0.0450234 -0.0371753,0.0484478 -0.0328114,0.0515035 -0.0281977,0.0541672 -0.0233694,0.0564187 -0.0183632,0.0582408 -0.0132173,0.0596196 -0.00797086,0.0605447 -0.00266371,0.061009 -4.44089e-16,3.05 z "/>
<path fill="rgb(241,240,234)" stroke="rgb(241,240,234)" d="M 1.15177,4.50089 l -0.2,0 4.44089e-16,-3.05 0.00190265,-0.0435779 0.00569347,-0.0432462 0.00944096,-0.0425854 0.0131166,-0.0416005 0.0166924,-0.0402991 0.0201412,-0.0386909 0.0234367,-0.0367882 0.0265538,-0.0346056 0.0294688,-0.0321596 0.0321596,-0.0294688 0.0346056,-0.0265538 0.0367882,-0.0234367 0.0386909,-0.0201412 0.0402991,-0.0166924 0.0416005,-0.0131166 0.0425854,-0.00944096 0.0432462,-0.00569347 0.0435779,-0.00190265 6.1,0 0.0435779,0.00190265 0.0432462,0.00569347 0.0425854,0.00944096 0.0416005,0.0131166 0.0402991,0.0166924 0.0386909,0.0201412 0.0367882,0.0234367 0.0346056,0.0265538 0.0321596,0.0294688 0.0294688,0.0321596 0.0265538,0.0346056 0.0234367,0.0367882 0.0201412,0.0386909 0.0166924,0.0402991 0.0131166,0.0416005 0.00944096,0.0425854 0.00569347,0.0432462 0.00190265,0.0435779 0,3.05 -0.2,0 0,-3.05 -0.00114159,-0.0261467 -0.00341608,-0.0259477 -0.00566458,-0.0255513 -0.00786996,-0.0249603 -0.0100155,-0.0241794 -0.0120847,-0.0232145 -0.014062,-0.0220729 -0.0159323,-0.0207634 -0.0176813,-0.0192958 -0.0192958,-0.0176813 -0.0207634,-0.0159323 -0.0220729,-0.014062 -0.0232145,-0.0120847 -0.0241794,-0.0100155 -0.0249603,-0.00786996 -0.0255513,-0.00566458 -0.0259477,-0.00341608 -0.0261467,-0.00114159 -6.1,0 -0.0261467,0.00114159 -0.0259477,0.00341608 -0.0255513,0.00566458 -0.0249603,0.00786996 -0.0241794,0.0100155 -0.0232145,0.0120847 -0.0220729,0.014062 -0.0207634,0.0159323 -0.0192958,0.0176813 -0.0176813,0.0192958 -0.0159323,0.0207634 -0.014062,0.0220729 -0.0120847,0.0232145 -0.0100155,0.0241794 -0.00786996,0.0249603 -0.00566458,0.0255513 -0.00341608,0.0259477 -0.00114159,0.0261467 -4.44089e-16,3.05 z "/>
<path fill="rgb(241,240,234)" stroke="rgb(241,240,234)" d="M 1.15177,4.50089 l -4.44089e-16,3.05 0.00114159,0.0261467 0.00341608,0.0259477 0.00566458,0.0255513 0.00786996,0.0249603 0.0100155,0.0241794 0.0120847,0.0232145 0.014062,0.0220729 0.0159323,0.0207634 0.0176813,0.0192958 0.0192958,0.0176813 0.0207634,0.0159323 0.0220729,0.014062 0.0232145,0.0120847 0.0241794,0.0100155 0.0249603,0.00786996 0.0255513,0.00566458 0.0259477,0.00341608 0.0261467,0.00114159 6.1,8.88178e-16 0.0261467,-0.00114159 0.0259477,-0.00341608 0.0255513,-0.00566458 0.0249603,-0.00786996 0.0241794,-0.0100155 0.0232145,-0.0120847 0.0220729,-0.014062 0.0207634,-0.0159323 0.0192958,-0.0176813 0.0176813,-0.0192958 0.0159323,-0.0207634 0.014062,-0.0220729 0.0120847,-0.0232145 0.0100155,-0.0241794 0.00786996,-0.0249603 0.00566458,-0.0255513 0.00341608,-0.0259477 0.00114159,-0.0261467 1.77636e-15,-3.05 0.2,0 0,3.05 -0.00190265,0.0435779 -0.00569347,0.0432462 -0.00944096,0.0425854 -0.0131166,0.0416005 -0.0166924,0.0402991 -0.0201412,0.0386909 -0.0234367,0.0367882 -0.0265538,0.0346056 -0.0294688,0.0321596 -0.0321596,0.0294688 -0.0346056,0.0265538 -0.0367882,0.0234367 -0.0386909,0.0201412 -0.0402991,0.0166924 -0.0416005,0.0131166 -0.0425854,0.00944096 -0.0432462,0.00569347 -0.0435779,0.00190265 -6.1,0 -0.0435779,-0.00190265 -0.0432462,-0.00569347 -0.0425854,-0.00944096 -0.0416005,-0.0131166 -0.0402991,-0.0166924 -0.0386909,-0.0201412 -0.0367882,-0.0234367 -0.0346056,-0.0265538 -0.0321596,-0.0294688 -0.0294688,-0.0321596 -0.0265538,-0.0346056 -0.0234367,-0.0367882 -0.0201412,-0.0386909 -0.0166924,-0.0402991 -0.0131166,-0.0416005 -0.00944096,-0.0425854 -0.00569347,-0.0432462 -0.00190265,-0.0435779 4.44089e-16,-3.05 0.2,0 z "/>
<path fill="rgb(0,91,140)" stroke="rgb(0,91,140)" d="M 1.15177,4.50089 l 6.7,0 -1.77636e-15,3.05 -0.00114159,0.0261467 -0.00341608,0.0259477 -0.00566458,0.0255513 -0.00786996,0.0249603 -0.0100155,0.0241794 -0.0120847,0.0232145 -0.014062,0.0220729 -0.0159323,0.0207634 -0.0176813,0.0192958 -0.0192958,0.0176813 -0.0207634,0.0159323 -0.0220729,0.014062 -0.0232145,0.0120847 -0.0241794,0.0100155 -0.0249603,0.00786996 -0.0255513,0.00566458 -0.0259477,0.00341608 -0.0261467,0.00114159 -6.1,-8.88178e-16 -0.0261467,-0.00114159 -0.0259477,-0.00341608 -0.0255513,-0.00566458 -0.0249603,-0.00786996 -0.0241794,-0.0100155 -0.0232145,-0.0120847 -0.0220729,-0.014062 -0.0207634,-0.0159323 -0.0192958,-0.0176813 -0.0176813,-0.0192958 -0.0159323,-0.0207634 -0.014062,-0.0220729 -0.0120847,-0.0232145 -0.0100155,-0.0241794 -0.00786996,-0.0249603 -0.00566458,-0.0255513 -0.00341608,-0.0259477 -0.00114159,-0.0261467 4.44089e-16,-3.05 z "/>
<path fill="rgb(0,91,140)" stroke="rgb(0,91,140)" d="M 1.15177,4.50089 l 4.44089e-16,-3.05 0.00114159,-0.0261467 0.00341608,-0.0259477 0.00566458,-0.0255513 0.00786996,-0.0249603 0.0100155,-0.0241794 0.0120847,-0.0232145 0.014062,-0.0220729 0.0159323,-0.0207634 0.0176813,-0.0192958 0.0192958,-0.0176813 0.0207634,-0.0159323 0.0220729,-0.014062 0.0232145,-0.0120847 0.0241794,-0.0100155 0.0249603,-0.00786996 0.0255513,-0.00566458 0.0259477,-0.00341608 0.0261467,-0.00114159 6.1,0 0.0261467,0.00114159 0.0259477,0.00341608 0.0255513,0.00566458 0.0249603,0.00786996 0.0241794,0.0100155 0.0232145,0.0120847 0.0220729,0.014062 0.0207634,0.0159323 0.0192958,0.0176813 0.0176813,0.0192958 0.0159323,0.0207634 0.014062,0.0220729 0.0120847,0.0232145 0.0100155,0.0241794 0.00786996,0.0249603 0.00566458,0.0255513 0.00341608,0.0259477 0.00114159,0.0261467 0,3.05 -6.7,0 z "/>
<path fill="rgb(0,91,140)" stroke="rgb(0,91,140)" d="M 0.751769,4.50089 l 4.44089e-16,-3.05 0.00266371,-0.061009 0.00797086,-0.0605447 0.0132173,-0.0596196 0.0183632,-0.0582408 0.0233694,-0.0564187 0.0281977,-0.0541672 0.0328114,-0.0515035 0.0371753,-0.0484478 0.0412564,-0.0450234 0.0450234,-0.0412564 0.0484478,-0.0371753 0.0515035,-0.0328114 0.0541672,-0.0281977 0.0564187,-0.0233694 0.0582408,-0.0183632 0.0596196,-0.0132173 0.0605447,-0.00797086 0.061009,-0.00266371 6.1,-8.88178e-16 0.061009,0.00266371 0.0605447,0.00797086 0.0596196,0.0132173 0.0582408,0.0183632 0.0564187,0.0233694 0.0541672,0.0281977 0.0515035,0.0328114 0.0484478,0.0371753 0.0450234,0.0412564 0.0412564,0.0450234 0.0371753,0.0484478 0.0328114,0.0515035 0.0281977,0.0541672 0.0233694,0.0564187 0.0183632,0.0582408 0.0132173,0.0596196 0.00797086,0.0605447 0.00266371,0.061009 0,3.05 -0.2,0 0,-3.05 -0.00190265,-0.0435779 -0.00569347,-0.0432462 -0.00944096,-0.0425854 -0.0131166,-0.0416005 -0.0166924,-0.0402991 -0.0201412,-0.0386909 -0.0234367,-0.0367882 -0.0265538,-0.0346056 -0.0294688,-0.0321596 -0.0321596,-0.0294688 -0.0346056,-0.0265538 -0.0367882,-0.0234367 -0.0386909,-0.0201412 -0.0402991,-0.0166924 -0.0416005,-0.0131166 -0.0425854,-0.00944096 -0.0432462,-0.00569347 -0.0435779,-0.00190265 -6.1,0 -0.0435779,0.00190265 -0.0432462,0.00569347 -0.0425854,0.00944096 -0.0416005,0.0131166 -0.0402991,0.0166924 -0.0386909,0.0201412 -0.0367882,0.0234367 -0.0346056,0.0265538 -0.0321596,0.0294688 -0.0294688,0.0321596 -0.0265538,0.0346056 -0.0234367,0.0367882 -0.0201412,0.0386909 -0.0166924,0.0402991 -0.0131166,0.0416005 -0.00944096,0.0425854 -0.00569347,0.0432462 -0.00190265,0.0435779 -4.44089e-16,3.05 -0.2,0 z "/>
<path fill="rgb(0,91,140)" stroke="rgb(0,91,140)" d="M 0.751769,4.50089 l 0.2,0 -4.44089e-16,3.05 0.00190265,0.0435779 0.00569347,0.0432462 0.00944096,0.0425854 0.0131166,0.0416005 0.0166924,0.0402991 0.0201412,0.0386909 0.0234367,0.0367882 0.0265538,0.0346056 0.0294688,0.0321596 0.0321596,0.0294688 0.0346056,0.0265538 0.0367882,0.0234367 0.0386909,0.0201412 0.0402991,0.0166924 0.0416005,0.0131166 0.0425854,0.00944096 0.0432462,0.00569347 0.0435779,0.00190265 6.1,0 0.0435779,-0.00190265 0.0432462,-0.00569347 0.0425854,-0.00944096 0.0416005,-0.0131166 0.0402991,-0.0166924 0.0386909,-0.0201412 0.0367882,-0.0234367 0.0346056,-0.0265538 0.0321596,-0.0294688 0.0294688,-0.0321596 0.0265538,-0.0346056 0.0234367,-0.0367882 0.0201412,-0.0386909 0.0166924,-0.0402991 0.0131166,-0.0416005 0.00944096,-0.0425854 0.00569347,-0.0432462 0.00190265,-0.0435779 0,-3.05 0.2,0 0,3.05 -0.00266371,0.061009 -0.00797086,0.0605447 -0.0132173,0.0596196 -0.0183632,0.0582408 -0.0233694,0.0564187 -0.0281977,0.0541672 -0.0328114,0.0515035 -0.0371753,0.0484478 -0.0412564,0.0450234 -0.0450234,0.0412564 -0.0484478,0.0371753 -0.0515035,0.0328114 -0.0541672,0.0281977 -0.0564187,0.0233694 -0.0582408,0.0183632 -0.0596196,0.0132173 -0.0605447,0.00797086 -0.061009,0.00266371 -6.1,0 -0.061009,-0.00266371 -0.0605447,-0.00797086 -0.0596196,-0.0132173 -0.0582408,-0.0183632 -0.0564187,-0.0233694 -0.0541672,-0.0281977 -0.0515035,-0.0328114 -0.0484478,-0.0371753 -0.0450234,-0.0412564 -0.0412564,-0.0450234 -0.0371753,-0.0484478 -0.0328114,-0.0515035 -0.0281977,-0.0541672 -0.0233694,-0.0564187 -0.0183632,-0.0582408 -0.0132173,-0.0596196 -0.00797086,-0.0605447 -0.00266371,-0.061009 4.44089e-16,-3.05 z "/>
<path fill="rgb(241,240,234)" stroke="rgb(241,240,234)" d="M 6.23915,7.27652 l -0.0646453,-0.00113413 -0.117949,-0.00907302 -0.113413,-0.018146 -0.107742,-0.0272191 -0.102071,-0.035158 -0.097535,-0.0453651 -0.0918643,-0.0544381 -0.0861937,-0.062377 -0.0816572,-0.07145 -0.0759866,-0.0816572 -0.0703159,-0.0895961 -0.0260849,-0.0374262 1.03546,-0.0260849 0.0986691,-0.00567064 0.11001,-0.0226826 0.100937,-0.0385603 0.0907302,-0.0544381 0.0816572,-0.07145 0.0725842,-0.0873278 0.0102071,-0.0147437 0.0499016,-0.0839255 0.0419627,-0.0918643 0.0340238,-0.100937 0.0272191,-0.11001 0.0192802,-0.117949 0.0113413,-0.125888 0.00340238,-0.133827 0,-0.0215484 -0.00567064,-0.130425 -0.0136095,-0.122486 -0.0204143,-0.114547 -0.0283532,-0.107742 -0.0374262,-0.100937 -0.044231,-0.0941326 -0.0521699,-0.0861937 -0.062377,-0.0805231 -0.0793889,-0.0771207 -0.088462,-0.0589746 -0.097535,-0.0430969 -0.106608,-0.0249508 -0.115681,-0.00907302 1.03546,-0.0136095 0.053304,0.0895961 0.0476334,0.0941326 0.0419627,0.0986691 0.0374262,0.103206 0.0306214,0.106608 0.0249508,0.111145 0.0204143,0.115681 0.0136095,0.120218 0.00793889,0.124754 0.00340238,0.128156 0,0.0317556 -0.00453651,0.127022 -0.0102071,0.122486 -0.0158778,0.117949 -0.0226826,0.114547 -0.0272191,0.108876 -0.0340238,0.105474 -0.0396945,0.100937 -0.0453651,0.097535 -0.0510357,0.0918643 -0.0567064,0.088462 -0.0408286,0.0555723 -0.07145,0.0850596 -0.0782548,0.0771207 -0.0827913,0.0669135 -0.088462,0.0589746 -0.0941326,0.0487675 -0.0998032,0.0408286 -0.105474,0.0317556 -0.11001,0.0226826 -0.116815,0.0136095 -0.121352,0.00340238 z "/>
<path fill="rgb(241,240,234)" stroke="rgb(241,240,234)" d="M 5.20369,6.74348 l -0.0555723,-0.088462 -0.0487675,-0.0929985 -0.044231,-0.097535 -0.0374262,-0.102071 -0.0317556,-0.106608 -0.0260849,-0.111145 -0.0204143,-0.115681 -0.0147437,-0.119083 -0.00907302,-0.124754 -0.00226826,-0.129291 0,-0.0578405 0.00567064,-0.127022 0.0113413,-0.122486 0.0170119,-0.117949 0.0215484,-0.113413 0.0283532,-0.11001 0.0340238,-0.10434 0.0396945,-0.100937 0.0453651,-0.0964009 0.0521699,-0.0918643 0.0567064,-0.0873278 0.0419627,-0.0578405 0.0725842,-0.0850596 0.0782548,-0.0759866 0.0839255,-0.0669135 0.088462,-0.0578405 0.0952667,-0.0487675 0.0998032,-0.0408286 0.10434,-0.0306214 0.111145,-0.0226826 0.116815,-0.0136095 0.121352,-0.00453651 0.088462,0.00226826 0.116815,0.0113413 0.112279,0.0204143 0.105474,0.0283532 0.100937,0.0385603 0.0952667,0.0464992 0.0907302,0.0567064 0.0839255,0.0646453 0.0782548,0.0748524 0.0737183,0.0827913 0.0680477,0.0929985 0.0215484,0.0317556 -1.03546,0.0136095 -0.10434,0.00567064 -0.11001,0.0226826 -0.100937,0.0385603 -0.0907302,0.0544381 -0.0816572,0.07145 -0.0725842,0.0873278 -0.018146,0.0272191 -0.0487675,0.0850596 -0.0408286,0.0929985 -0.0340238,0.102071 -0.0260849,0.11001 -0.0192802,0.119083 -0.0113413,0.127022 -0.00340238,0.134961 0.00113413,0.0521699 0.00680477,0.124754 0.0158778,0.117949 0.0238167,0.112279 0.0328897,0.105474 0.0408286,0.0986691 0.0487675,0.0918643 0.035158,0.0555723 0.07145,0.0895961 0.0805231,0.0725842 0.088462,0.0578405 0.097535,0.0408286 0.105474,0.0238167 0.113413,0.00907302 -1.03546,0.0260849 z "/>
<path fill="rgb(241,240,234)" stroke="rgb(241,240,234)" d="M 3.65561,7.27652 l -0.097535,-0.00113413 -0.125888,-0.00567064 -0.121352,-0.0113413 -0.117949,-0.0170119 -0.114547,-0.0215484 -0.11001,-0.0260849 -0.106608,-0.0317556 -0.103206,-0.0362921 -0.0998032,-0.0419627 -0.0952667,-0.0464992 -0.0907302,-0.0521699 -0.088462,-0.0567064 -0.0873278,-0.0635112 -0.088462,-0.0725842 -0.0839255,-0.0759866 -0.0782548,-0.0782548 -0.0725842,-0.0816572 -0.0657794,-0.0850596 -0.0612429,-0.088462 -0.0544381,-0.0918643 -0.0487675,-0.0941326 -0.0430969,-0.097535 -0.0374262,-0.100937 -0.0317556,-0.10434 -0.0260849,-0.107742 -0.0204143,-0.11001 -0.0147437,-0.113413 -0.00793889,-0.116815 -0.00340238,-0.120218 0.00113413,-0.0680477 0.00907302,-0.127022 0.0158778,-0.119083 0.0249508,-0.113413 0.0340238,-0.105474 0.0419627,-0.0998032 0.0499016,-0.0929985 0.0578405,-0.0861937 0.0669135,-0.0793889 0.0748524,-0.0725842 0.0170119,-0.0147437 0.0861937,-0.0680477 0.0918643,-0.0612429 0.0952667,-0.0521699 0.100937,-0.0430969 0.10434,-0.0362921 0.108876,-0.0283532 0.113413,-0.0204143 0.117949,-0.0113413 0.122486,-0.00453651 0.0249508,0 0.125888,0.00567064 0.120218,0.0136095 0.114547,0.0226826 0.107742,0.0306214 0.102071,0.0385603 0.0964009,0.0464992 0.0907302,0.0544381 0.0850596,0.0635112 0.0147437,0.0124754 0.0850596,0.0805231 0.0725842,0.0873278 0.0578405,0.0918643 -1.11598,0.0260849 -0.0464992,0.00113413 -0.125888,0.00907302 -0.114547,0.0215484 -0.100937,0.0340238 -0.0895961,0.044231 -0.0238167,0.0158778 -0.0861937,0.0782548 -0.0510357,0.0907302 -0.0170119,0.10434 0,0.0215484 0.0249508,0.0998032 0.0612429,0.0861937 0.0964009,0.0725842 0.0249508,0.0136095 0.0952667,0.0408286 0.105474,0.0283532 0.117949,0.0170119 0.129291,0.00567064 1.11145,0.0374262 -0.062377,0.0918643 -0.0748524,0.0850596 -0.088462,0.0805231 -0.0850596,0.0612429 -0.0918643,0.0555723 -0.097535,0.0476334 -1.27589,0.00453651 0.0102071,0.0226826 0.0544381,0.105474 0.0601088,0.0986691 0.0657794,0.0929985 0.0725842,0.0861937 0.0782548,0.0805231 0.0827913,0.0737183 0.0895961,0.0680477 0.0964009,0.0612429 0.0113413,0.00680477 0.0918643,0.0464992 0.097535,0.0396945 0.10434,0.0328897 0.11001,0.0249508 0.116815,0.018146 0.122486,0.0102071 0.129291,0.00453651 0.0510357,0 0,0.559125 z "/>
<path fill="rgb(241,240,234)" stroke="rgb(241,240,234)" d="M 2.91729,5.94505 l -0.0238167,0 -0.11001,-0.00340238 -0.112279,-0.00907302 -0.112279,-0.0136095 -0.114547,-0.0204143 -0.116815,-0.0238167 -0.116815,-0.0306214 1.27589,-0.00453651 -0.103206,0.0374262 -0.107742,0.0306214 -0.114547,0.0204143 -0.119083,0.0136095 -0.124754,0.00340238 z "/>
<path fill="rgb(241,240,234)" stroke="rgb(241,240,234)" d="M 3.98677,5.41768 l -1.11145,-0.0374262 0.0453651,0 0.125888,-0.0102071 0.113413,-0.0215484 0.102071,-0.0328897 0.0907302,-0.0453651 0.0238167,-0.0147437 0.088462,-0.0771207 0.053304,-0.0907302 0.018146,-0.102071 -0.00113413,-0.0226826 -0.0249508,-0.0998032 -0.0612429,-0.0873278 -0.0964009,-0.0748524 -0.0272191,-0.0147437 -0.0941326,-0.0396945 -0.105474,-0.0283532 -0.119083,-0.0170119 -0.131559,-0.00567064 1.11598,-0.0260849 0.0464992,0.097535 0.0317556,0.103206 0.0204143,0.11001 0.00567064,0.114547 0,0.00226826 -0.00680477,0.114547 -0.0204143,0.107742 -0.0340238,0.102071 -0.0476334,0.0964009 z "/>
<path fill="rgb(241,240,234)" stroke="rgb(241,240,234)" d="M 6.54537,3.22541 l -0.268788,-0.097535 0,-1.4256 0.268788,0 0,0.641916 0,0.00567064 0.0136095,0.0895961 0.0374262,0.0635112 0.062377,0.0385603 0.0861937,0.0136095 0.434371,0.018146 -0.0374262,0.0771207 -0.596551,0.0680477 0,0.506955 z "/>
<path fill="rgb(241,240,234)" stroke="rgb(241,240,234)" d="M 6.79941,2.82393 l -0.0249508,-0.00113413 -0.0941326,-0.0147437 -0.0759866,-0.0340238 -0.0589746,-0.0555723 0.596551,-0.0680477 -0.0567064,0.0680477 -0.0340238,0.0283532 -0.0737183,0.0430969 -0.0839255,0.0249508 -0.0941326,0.00907302 z "/>
<path fill="rgb(241,240,234)" stroke="rgb(241,240,234)" d="M 7.17934,2.57329 l -0.434371,-0.018146 0.0703159,-0.0124754 0.0737183,-0.0476334 0.0396945,-0.0555723 0.0192802,-0.0861937 0,-0.650989 0.248374,0 0,0.751927 -0.00113413,0.0317556 -0.0158778,0.0873278 z "/>
<path fill="rgb(241,240,234)" stroke="rgb(241,240,234)" d="M 5.96923,3.2016 l -0.959472,-1.80553 -0.268788,0 0.959472,1.80553 0.268788,0 z "/>
<path fill="rgb(241,240,234)" stroke="rgb(241,240,234)" d="M 3.43219,2.82393 l -0.0340238,-0.00226826 -0.0850596,-0.0170119 -0.0782548,-0.0385603 -0.07145,-0.0589746 0.55232,-0.0147437 -0.0419627,0.0430969 -0.0725842,0.0487675 -0.0805231,0.0294873 -0.088462,0.0102071 z "/>
<path fill="rgb(241,240,234)" stroke="rgb(241,240,234)" d="M 4.04802,2.82393 l -0.00567064,0 -0.0816572,-0.00907302 -0.0816572,-0.0249508 -0.0816572,-0.0408286 -0.0816572,-0.0567064 0.674806,-0.0419627 -0.0578405,0.0680477 -0.0328897,0.0272191 -0.0737183,0.0430969 -0.0839255,0.0260849 -0.0941326,0.00907302 z "/>
<path fill="rgb(241,240,234)" stroke="rgb(241,240,234)" d="M 3.1634,2.79785 l -0.268788,0 0,-1.09557 0.268788,0 0,0.657794 0.00907302,0.0646453 0.0408286,0.0748524 0.0430969,0.0340238 0.0861937,0.0215484 1.08536,0.0170119 -0.0374262,0.0782548 -0.674806,0.0419627 -0.55232,0.0147437 0,0.0907302 z "/>
<path fill="rgb(241,240,234)" stroke="rgb(241,240,234)" d="M 4.42795,2.57215 l -1.08536,-0.0170119 0.646453,0 0.0680477,-0.0102071 0.0703159,-0.0453651 0.0340238,-0.0555723 0.0158778,-0.0907302 0,-0.650989 0.268788,0 0,0.751927 -0.00113413,0.0317556 -0.0170119,0.0861937 z "/>
<path fill="rgb(241,240,234)" stroke="rgb(241,240,234)" d="M 3.34259,2.55514 l 0.0657794,-0.0113413 0.0759866,-0.0464992 0.0396945,-0.0544381 0.0170119,-0.0895961 0,-0.650989 0.258581,0 0,0.662331 0.00907302,0.0578405 0.0476334,0.0748524 0.0487675,0.0374262 0.0839255,0.0204143 -0.646453,0 z "/>
<path fill="rgb(241,240,234)" stroke="rgb(241,240,234)" d="M 2.09732,3.22541 l -0.268788,-0.097535 0,-1.4256 0.268788,0 0,0.31869 0.148571,0.203009 -0.148571,0.19507 0,0.806365 z "/>
<path fill="rgb(241,240,234)" stroke="rgb(241,240,234)" d="M 2.71769,2.79104 l -0.332299,0 -0.288068,-0.371994 0.148571,-0.19507 0.21435,-0.521699 0.268788,0 -0.29941,0.740585 0.288068,0.348177 z "/>
<path fill="rgb(42,41,42)" stroke="rgb(42,41,42)" d="M 8.90354,4.50089 l 0.1,0 0,-4.25089 -0.000951325,-0.0217889 -0.00284674,-0.0216231 -0.00472048,-0.0212927 -0.0065583,-0.0208003 -0.00834621,-0.0201495 -0.0100706,-0.0193454 -0.0117183,-0.0183941 -0.0132769,-0.0173028 -0.0147344,-0.0160798 -0.0160798,-0.0147344 -0.0173028,-0.0132769 -0.0183941,-0.0117183 -0.0193454,-0.0100706 -0.0201495,-0.00834621 -0.0208003,-0.0065583 -0.0212927,-0.00472048 -0.0216231,-0.00284674 -0.0217889,-0.000951325 -8.50354,0 -0.0217889,0.000951325 -0.0216231,0.00284674 -0.0212927,0.00472048 -0.0208003,0.0065583 -0.0201495,0.00834621 -0.0193454,0.0100706 -0.0183941,0.0117183 -0.0173028,0.0132769 -0.0160798,0.0147344 -0.0147344,0.0160798 -0.0132769,0.0173028 -0.0117183,0.0183941 -0.0100706,0.0193454 -0.00834621,0.0201495 -0.0065583,0.0208003 -0.00472048,0.0212927 -0.00284674,0.0216231 -0.000951325,0.0217889 0,4.25089 0.1,0 0,-4.25089 0.000570795,-0.0130734 0.00170804,-0.0129739 0.00283229,-0.0127756 0.00393498,-0.0124802 0.00500773,-0.0120897 0.00604236,-0.0116073 0.007031,-0.0110365 0.00796614,-0.0103817 0.00884065,-0.00964788 0.00964788,-0.00884065 0.0103817,-0.00796614 0.0110365,-0.007031 0.0116073,-0.00604236 0.0120897,-0.00500773 0.0124802,-0.00393498 0.0127756,-0.00283229 0.0129739,-0.00170804 0.0130734,-0.000570795 8.50354,0 0.0130734,0.000570795 0.0129739,0.00170804 0.0127756,0.00283229 0.0124802,0.00393498 0.0120897,0.00500773 0.0116073,0.00604236 0.0110365,0.007031 0.0103817,0.00796614 0.00964788,0.00884065 0.00884065,0.00964788 0.00796614,0.0103817 0.007031,0.0110365 0.00604236,0.0116073 0.00500773,0.0120897 0.00393498,0.0124802 0.00283229,0.0127756 0.00170804,0.0129739 0.000570795,0.0130734 0,4.25089 z "/>
<path fill="rgb(42,41,42)" stroke="rgb(42,41,42)" d="M 8.90354,8.75178 l 0,-4.25089 0.1,0 0,4.25089 -0.000951325,0.0217889 -0.00284674,0.0216231 -0.00472048,0.0212927 -0.0065583,0.0208003 -0.00834621,0.0201495 -0.0100706,0.0193454 -0.0117183,0.0183941 -0.0132769,0.0173028 -0.0147344,0.0160798 -0.0160798,0.0147344 -0.0173028,0.0132769 -0.0183941,0.0117183 -0.0193454,0.0100706 -0.0201495,0.00834621 -0.0208003,0.0065583 -0.0212927,0.00472048 -0.0216231,0.00284674 -0.0217889,0.000951325 -8.50354,0 -0.0217889,-0.000951325 -0.0216231,-0.00284674 -0.0212927,-0.00472048 -0.0208003,-0.0065583 -0.0201495,-0.00834621 -0.0193454,-0.0100706 -0.0183941,-0.0117183 -0.0173028,-0.0132769 -0.0160798,-0.0147344 -0.0147344,-0.0160798 -0.0132769,-0.0173028 -0.0117183,-0.0183941 -0.0100706,-0.0193454 -0.00834621,-0.0201495 -0.0065583,-0.0208003 -0.00472048,-0.0212927 -0.00284674,-0.0216231 -0.000951325,-0.0217889 0,-4.25089 0.1,0 0,4.25089 0.000570795,0.0130734 0.00170804,0.0129739 0.00283229,0.0127756 0.00393498,0.0124802 0.00500773,0.0120897 0.00604236,0.0116073 0.007031,0.0110365 0.00796614,0.0103817 0.00884065,0.00964788 0.00964788,0.00884065 0.0103817,0.00796614 0.0110365,0.007031 0.0116073,0.00604236 0.0120897,0.00500773 0.0124802,0.00393498 0.0127756,0.00283229 0.0129739,0.00170804 0.0130734,0.000570795 8.50354,0 0.0130734,-0.000570795 0.0129739,-0.00170804 0.0127756,-0.00283229 0.0124802,-0.00393498 0.0120897,-0.00500773 0.0116073,-0.00604236 0.0110365,-0.007031 0.0103817,-0.00796614 0.00964788,-0.00884065 0.00884065,-0.00964788 0.00796614,-0.0103817 0.007031,-0.0110365 0.00604236,-0.0116073 0.00500773,-0.0120897 0.00393498,-0.0124802 0.00283229,-0.0127756 0.00170804,-0.0129739 0.000570795,-0.0130734 z "/>
</g></g></svg>
