<?xml version="1.0" encoding="UTF-8" standalone="no"?>
<!DOCTYPE svg PUBLIC "-//W3C//DTD SVG 1.1//EN" "http://www.w3.org/Graphics/SVG/1.1/DTD/svg11-flat.dtd"
[

]>
<svg xmlns="http://www.w3.org/2000/svg"  viewBox="-0.05625 -0.05625 4.6125 7.6125"><g fill="none" stroke="black" stroke-width="0.0125" transform="translate(0,7.5) scale(1, -1)">
<g id="Output" >
<path fill="rgb(0,91,140)" stroke="rgb(0,91,140)" d="M 3.44447,1.07032 l -0.363004,-0.184087 0.930668,-0.398367 0.0176813,0.0192958 0.0159323,0.0207634 0.014062,0.0220729 0.0120847,0.0232145 0.0100155,0.0241794 0.00786996,0.0249603 0.00566458,0.0255513 0.00341608,0.0259477 0.00114159,0.0261467 0,6.1 -0.00114159,0.0261467 -0.00341608,0.0259477 -0.00566458,0.0255513 -0.00786996,0.0249603 -0.0100155,0.0241794 -0.0120847,0.0232145 -0.014062,0.0220729 -0.0159323,0.0207634 -0.0176813,0.0192958 -0.0192958,0.0176813 -0.0207634,0.0159323 -0.0220729,0.014062 -0.0232145,0.0120847 -0.0241794,0.0100155 -0.0249603,0.00786996 -0.0255513,0.00566458 -0.0259477,0.00341608 -0.0261467,0.00114159 -1.55,0 -0.209867,-4.02047 0.0193397,-0.00185747 0.0191045,-0.00353465 0.0187241,-0.00518496 0.0182014,-0.00679588 0.0175405,-0.00835516 0.0167462,-0.00985095 0.0158247,-0.0112719 0.0147829,-0.0126072 0.0136289,-0.0138467 0.0123712,-0.014981 0.0110196,-0.0160014 0.00958421,-0.0169003 0.00807601,-0.0176707 0.00650645,-0.0183069 0.00488745,-0.018804 0.00323131,-0.0191582 0.00155062,-0.0193668 -0.000141854,-0.0194282 -0.00183325,-0.0193421 -0.00351072,-0.0191089 -0.00516151,-0.0187306 -0.00677308,-0.0182099 -0.00833318,-0.0175509 -0.00982997,-0.0167585 -0.0112521,-0.0158388 -0.0125887,-0.0147987 -0.0138296,-0.0136462 -0.0149654,-0.01239 -0.0159876,-0.0110396 -0.0168883,-0.00960537 -0.0176606,-0.00809814 -0.0182987,-0.00652938 -0.0187978,-0.004911 0,-0.394128 0.521179,0 0,-0.189278 -0.521179,0 0,-0.184108 0.69231,-0.00259545 0.396724,-0.738964 0.191873,0.108903 0.0881609,-0.168556 z "/>
<path fill="rgb(0,91,140)" stroke="rgb(0,91,140)" d="M 2.74697,1.36593 l 0.0570471,-0.102425 0.0648229,0.0194448 -0.212626,0.396713 -0.770089,0 0,0.503032 -0.0648229,-0.125753 0,-0.10501 -0.0416295,-0.0314733 -0.0387233,-0.034987 -0.0355215,-0.0382336 -0.0320485,-0.0411884 -0.0283308,-0.0438286 -0.0243969,-0.0461343 -0.0202767,-0.0480878 -0.0160017,-0.0496742 -0.0116046,-0.0508814 -0.00711887,-0.0517002 -0.00257879,-0.0521242 0.00198097,-0.0521504 0.00652561,-0.0517784 0.0110204,-0.0510111 0.0154311,-0.0498545 0.019724,-0.0483172 0.0238663,-0.046411 0.0278264,-0.0441506 0.0315741,-0.0415531 0.0350808,-0.0386384 0.0383196,-0.0354287 0.0412659,-0.0319486 0.0438972,-0.0282245 0.0461933,-0.024285 0.0481368,-0.0201601 0.0497129,-0.0158813 0.0509094,-0.0114813 0.0517173,-0.00699355 0.0521303,-0.00245246 0.0526538,0.00216509 0.0522543,0.00682669 0.0514429,0.0114345 0.0502259,0.0159521 0.0486131,0.020344 0.0466171,0.0245756 0.0442536,0.0286135 0.0415414,0.0324258 0.0385016,0.0359825 0.0351584,0.0392556 0.0315381,0.0422192 0.0276692,0.0448501 0.0235821,0.0471275 0.0193092,0.0490333 0.0148841,0.0505527 0.0103417,0.0516736 z "/>
<path fill="rgb(0,91,140)" stroke="rgb(0,91,140)" d="M 0.7,0.4 l 1.55,-4.44089e-16 1.55,-4.44089e-16 0.0261467,0.00114159 0.0259477,0.00341608 0.0255513,0.00566458 0.0249603,0.00786996 0.0241794,0.0100155 0.0232145,0.0120847 0.0220729,0.014062 0.0207634,0.0159323 0.0192958,0.0176813 -0.930668,0.398367 -0.212626,0.396713 -0.0648229,-0.0194448 0.0570471,-0.102425 -0.0295969,-0.0620062 -0.035042,-0.0591 -0.0402042,-0.0557169 -0.045042,-0.0518842 -0.0495164,-0.0476327 -0.0535912,-0.0429969 -0.0572335,-0.0380142 -0.060414,-0.0327246 -0.0631069,-0.027171 -0.0652907,-0.0213982 -0.0669475,-0.0154527 -0.0680641,-0.00938242 -0.0686315,-0.00323648 -0.0670323,0.00276778 -0.066539,0.00857628 -0.0655434,0.01432 -0.0640528,0.0199557 -0.0620787,0.0254406 -0.0596359,0.0307335 -0.0567429,0.0357944 -0.0534215,0.040585 -0.0496967,0.0450692 -0.0455967,0.0492132 -0.0411525,0.0529855 -0.0363976,0.0563579 -0.0313679,0.0593047 -0.0261013,0.0618039 -0.0206377,0.0638364 -0.0150183,0.0653869 -0.0092855,0.0664438 -0.0034826,0.066999 0.0023466,0.0670484 0.00815809,0.0665916 0.013908,0.065632 0.0195529,0.064177 0.0250501,0.0622373 0.0303583,0.0598278 0.0354372,0.0569667 0.0402486,0.0536754 0.0447561,0.0499789 0.0489257,0.045905 0.052726,0.0414846 0.0561281,0.0367509 0.0591065,0.0317398 0,-0.10501 0.0648229,0.125753 0,0.503032 -0.0144229,0.0130942 -0.0132238,0.0143041 -0.0119237,0.0154046 -0.0105324,0.0163874 -0.00906051,0.0172448 -0.00751939,0.0179704 -0.00592077,0.0185586 -0.00427688,0.0190049 -0.00260029,0.0193058 -0.000903812,0.0194592 0.000799574,0.0194637 0.00249685,0.0193195 0.00417503,0.0190275 0.00582128,0.01859 0.00742303,0.0180104 0.00896802,0.0172931 0.0104444,0.0164435 0.011841,0.0154683 0.013147,0.0143747 0.0143525,0.0131712 0.0154483,0.0118671 0.0164259,0.0104722 0.0172779,0.00899718 0.0179979,0.0074534 0.0185802,0.00585264 0.0190204,0.00420712 0.0193152,0.00252944 0.0194624,0.00083241 4.25114e-08,-4.21312e-11 4.25114e-08,-4.21392e-11 4.25114e-08,-4.21476e-11 0.00380077,-3.61781e-05 0.0037996,-0.000100986 0.00379733,-0.000165766 0.209867,4.02047 -1.55,0 -0.0261467,-0.00114159 -0.0259477,-0.00341608 -0.0255513,-0.00566458 -0.0249603,-0.00786996 -0.0241794,-0.0100155 -0.0232145,-0.0120847 -0.0220729,-0.014062 -0.0207634,-0.0159323 -0.0192958,-0.0176813 -0.0176813,-0.0192958 -0.0159323,-0.0207634 -0.014062,-0.0220729 -0.0120847,-0.0232145 -0.0100155,-0.0241794 -0.00786996,-0.0249603 -0.00566458,-0.0255513 -0.00341608,-0.0259477 -0.00114159,-0.0261467 -4.44089e-16,-6.1 0.00114159,-0.0261467 0.00341608,-0.0259477 0.00566458,-0.0255513 0.00786996,-0.0249603 0.0100155,-0.0241794 0.0120847,-0.0232145 0.014062,-0.0220729 0.0159323,-0.0207634 0.0176813,-0.0192958 0.0192958,-0.0176813 0.0207634,-0.0159323 0.0220729,-0.014062 0.0232145,-0.0120847 0.0241794,-0.0100155 0.0249603,-0.00786996 0.0255513,-0.00566458 0.0259477,-0.00341608 0.0261467,-0.00114159 z "/>
<path fill="rgb(241,240,234)" stroke="rgb(241,240,234)" d="M 2.04013,3.07953 l -0.00379733,0.000165766 -0.0037996,0.000100986 -0.00380077,3.61781e-05 0.00380077,-3.61938e-05 0.0037996,-0.000101034 0.00379733,-0.000165844 7.39568e-09,1.41681e-07 z "/>
<path fill="rgb(241,240,234)" stroke="rgb(241,240,234)" d="M 3.44447,1.07032 l -0.363004,-0.184087 -0.212626,0.396713 -0.212626,0.396713 -0.770089,0 0,0.503032 0,0.503032 -0.0144229,0.0130942 -0.0132238,0.0143041 -0.0119237,0.0154046 -0.0105324,0.0163874 -0.00906051,0.0172448 -0.00751939,0.0179704 -0.00592077,0.0185586 -0.00427688,0.0190049 -0.00260029,0.0193058 -0.000903812,0.0194592 0.000799574,0.0194637 0.00249685,0.0193195 0.00417503,0.0190275 0.00582128,0.01859 0.00742303,0.0180104 0.00896802,0.0172931 0.0104444,0.0164435 0.011841,0.0154683 0.013147,0.0143747 0.0143525,0.0131712 0.0154483,0.0118671 0.0164259,0.0104722 0.0172779,0.00899718 0.0179979,0.0074534 0.0185802,0.00585264 0.0190204,0.00420712 0.0193152,0.00252944 0.0194624,0.00083241 4.25114e-08,-4.21312e-11 4.25114e-08,-4.21392e-11 4.25114e-08,-4.21476e-11 0.00380077,-3.61938e-05 0.0037996,-0.000101034 0.00379733,-0.000165844 7.39568e-09,1.41681e-07 0.0193397,-0.00185747 0.0191045,-0.00353465 0.0187241,-0.00518496 0.0182014,-0.00679588 0.0175405,-0.00835516 0.0167462,-0.00985095 0.0158247,-0.0112719 0.0147829,-0.0126072 0.0136289,-0.0138467 0.0123712,-0.014981 0.0110196,-0.0160014 0.00958421,-0.0169003 0.00807601,-0.0176707 0.00650645,-0.0183069 0.00488745,-0.018804 0.00323131,-0.0191582 0.00155062,-0.0193668 -0.000141854,-0.0194282 -0.00183325,-0.0193421 -0.00351072,-0.0191089 -0.00516151,-0.0187306 -0.00677308,-0.0182099 -0.00833318,-0.0175509 -0.00982997,-0.0167585 -0.0112521,-0.0158388 -0.0125887,-0.0147987 -0.0138296,-0.0136462 -0.0149654,-0.01239 -0.0159876,-0.0110396 -0.0168883,-0.00960537 -0.0176606,-0.00809814 -0.0182987,-0.00652938 -0.0187978,-0.004911 0,-0.394128 0.521179,0 0,-0.189278 -0.521179,0 0,-0.184108 0.69231,-0.00259545 0.396724,-0.738964 0.191873,0.108903 0.0881609,-0.168556 z "/>
<path fill="rgb(241,240,234)" stroke="rgb(241,240,234)" d="M 2.74697,1.36593 l 0.0570471,-0.102425 0.0570471,-0.102425 -0.0295969,-0.0620062 -0.035042,-0.0591 -0.0402042,-0.0557169 -0.045042,-0.0518842 -0.0495164,-0.0476327 -0.0535912,-0.0429969 -0.0572335,-0.0380142 -0.060414,-0.0327246 -0.0631069,-0.027171 -0.0652907,-0.0213982 -0.0669475,-0.0154527 -0.0680641,-0.00938242 -0.0686315,-0.00323648 -0.0670323,0.00276778 -0.066539,0.00857628 -0.0655434,0.01432 -0.0640528,0.0199557 -0.0620787,0.0254406 -0.0596359,0.0307335 -0.0567429,0.0357944 -0.0534215,0.040585 -0.0496967,0.0450692 -0.0455967,0.0492132 -0.0411525,0.0529855 -0.0363976,0.0563579 -0.0313679,0.0593047 -0.0261013,0.0618039 -0.0206377,0.0638364 -0.0150183,0.0653869 -0.0092855,0.0664438 -0.0034826,0.066999 0.0023466,0.0670484 0.00815809,0.0665916 0.013908,0.065632 0.0195529,0.064177 0.0250501,0.0622373 0.0303583,0.0598278 0.0354372,0.0569667 0.0402486,0.0536754 0.0447561,0.0499789 0.0489257,0.045905 0.052726,0.0414846 0.0561281,0.0367509 0.0591065,0.0317398 0,-0.10501 0,-0.10501 -0.0416295,-0.0314733 -0.0387233,-0.034987 -0.0355215,-0.0382336 -0.0320485,-0.0411884 -0.0283308,-0.0438286 -0.0243969,-0.0461343 -0.0202767,-0.0480878 -0.0160017,-0.0496742 -0.0116046,-0.0508814 -0.00711887,-0.0517002 -0.00257879,-0.0521242 0.00198097,-0.0521504 0.00652561,-0.0517784 0.0110204,-0.0510111 0.0154311,-0.0498545 0.019724,-0.0483172 0.0238663,-0.046411 0.0278264,-0.0441506 0.0315741,-0.0415531 0.0350808,-0.0386384 0.0383196,-0.0354287 0.0412659,-0.0319486 0.0438972,-0.0282245 0.0461933,-0.024285 0.0481368,-0.0201601 0.0497129,-0.0158813 0.0509094,-0.0114813 0.0517173,-0.00699355 0.0521303,-0.00245246 0.0526538,0.00216509 0.0522543,0.00682669 0.0514429,0.0114345 0.0502259,0.0159521 0.0486131,0.020344 0.0466171,0.0245756 0.0442536,0.0286135 0.0415414,0.0324258 0.0385016,0.0359825 0.0351584,0.0392556 0.0315381,0.0422192 0.0276692,0.0448501 0.0235821,0.0471275 0.0193092,0.0490333 0.0148841,0.0505527 0.0103417,0.0516736 z "/>
<path fill="rgb(0,91,140)" stroke="rgb(0,91,140)" d="M 3.8,7.5 l -1.55,0 -4.44089e-16,-0.2 1.55,0 0.0435779,-0.00190265 0.0432462,-0.00569347 0.0425854,-0.00944096 0.0416005,-0.0131166 0.0402991,-0.0166924 0.0386909,-0.0201412 0.0367882,-0.0234367 0.0346056,-0.0265538 0.0321596,-0.0294688 0.0294688,-0.0321596 0.0265538,-0.0346056 0.0234367,-0.0367882 0.0201412,-0.0386909 0.0166924,-0.0402991 0.0131166,-0.0416005 0.00944096,-0.0425854 0.00569347,-0.0432462 0.00190265,-0.0435779 0,-6.1 -0.00190265,-0.0435779 -0.00569347,-0.0432462 -0.00944096,-0.0425854 -0.0131166,-0.0416005 -0.0166924,-0.0402991 -0.0201412,-0.0386909 -0.0234367,-0.0367882 -0.0265538,-0.0346056 -0.0294688,-0.0321596 -0.0321596,-0.0294688 -0.0346056,-0.0265538 -0.0367882,-0.0234367 -0.0386909,-0.0201412 -0.0402991,-0.0166924 -0.0416005,-0.0131166 -0.0425854,-0.00944096 -0.0432462,-0.00569347 -0.0435779,-0.00190265 -1.55,4.44089e-16 0,-0.2 1.55,-4.44089e-16 0.061009,0.00266371 0.0605447,0.00797086 0.0596196,0.0132173 0.0582408,0.0183632 0.0564187,0.0233694 0.0541672,0.0281977 0.0515035,0.0328114 0.0484478,0.0371753 0.0450234,0.0412564 0.0412564,0.0450234 0.0371753,0.0484478 0.0328114,0.0515035 0.0281977,0.0541672 0.0233694,0.0564187 0.0183632,0.0582408 0.0132173,0.0596196 0.00797086,0.0605447 0.00266371,0.061009 8.88178e-16,6.1 -0.00266371,0.061009 -0.00797086,0.0605447 -0.0132173,0.0596196 -0.0183632,0.0582408 -0.0233694,0.0564187 -0.0281977,0.0541672 -0.0328114,0.0515035 -0.0371753,0.0484478 -0.0412564,0.0450234 -0.0450234,0.0412564 -0.0484478,0.0371753 -0.0515035,0.0328114 -0.0541672,0.0281977 -0.0564187,0.0233694 -0.0582408,0.0183632 -0.0596196,0.0132173 -0.0605447,0.00797086 -0.061009,0.00266371 z "/>
<path fill="rgb(0,91,140)" stroke="rgb(0,91,140)" d="M 0,6.8 l 0,-6.1 0.00266371,-0.061009 0.00797086,-0.0605447 0.0132173,-0.0596196 0.0183632,-0.0582408 0.0233694,-0.0564187 0.0281977,-0.0541672 0.0328114,-0.0515035 0.0371753,-0.0484478 0.0412564,-0.0450234 0.0450234,-0.0412564 0.0484478,-0.0371753 0.0515035,-0.0328114 0.0541672,-0.0281977 0.0564187,-0.0233694 0.0582408,-0.0183632 0.0596196,-0.0132173 0.0605447,-0.00797086 0.061009,-0.00266371 1.55,-8.88178e-16 0,0.2 -1.55,4.44089e-16 -0.0435779,0.00190265 -0.0432462,0.00569347 -0.0425854,0.00944096 -0.0416005,0.0131166 -0.0402991,0.0166924 -0.0386909,0.0201412 -0.0367882,0.0234367 -0.0346056,0.0265538 -0.0321596,0.0294688 -0.0294688,0.0321596 -0.0265538,0.0346056 -0.0234367,0.0367882 -0.0201412,0.0386909 -0.0166924,0.0402991 -0.0131166,0.0416005 -0.00944096,0.0425854 -0.00569347,0.0432462 -0.00190265,0.0435779 0,6.1 0.00190265,0.0435779 0.00569347,0.0432462 0.00944096,0.0425854 0.0131166,0.0416005 0.0166924,0.0402991 0.0201412,0.0386909 0.0234367,0.0367882 0.0265538,0.0346056 0.0294688,0.0321596 0.0321596,0.0294688 0.0346056,0.0265538 0.0367882,0.0234367 0.0386909,0.0201412 0.0402991,0.0166924 0.0416005,0.0131166 0.0425854,0.00944096 0.0432462,0.00569347 0.0435779,0.00190265 1.55,0 4.44089e-16,0.2 -1.55,0 -0.061009,-0.00266371 -0.0605447,-0.00797086 -0.0596196,-0.0132173 -0.0582408,-0.0183632 -0.0564187,-0.0233694 -0.0541672,-0.0281977 -0.0515035,-0.0328114 -0.0484478,-0.0371753 -0.0450234,-0.0412564 -0.0412564,-0.0450234 -0.0371753,-0.0484478 -0.0328114,-0.0515035 -0.0281977,-0.0541672 -0.0233694,-0.0564187 -0.0183632,-0.0582408 -0.0132173,-0.0596196 -0.00797086,-0.0605447 -0.00266371,-0.061009 z "/>
<path fill="rgb(241,240,234)" stroke="rgb(241,240,234)" d="M 2.25,0.4 l 0,-0.2 1.55,-4.44089e-16 0.0435779,0.00190265 0.0432462,0.00569347 0.0425854,0.00944096 0.0416005,0.0131166 0.0402991,0.0166924 0.0386909,0.0201412 0.0367882,0.0234367 0.0346056,0.0265538 0.0321596,0.0294688 0.0294688,0.0321596 0.0265538,0.0346056 0.0234367,0.0367882 0.0201412,0.0386909 0.0166924,0.0402991 0.0131166,0.0416005 0.00944096,0.0425854 0.00569347,0.0432462 0.00190265,0.0435779 0,6.1 -0.00190265,0.0435779 -0.00569347,0.0432462 -0.00944096,0.0425854 -0.0131166,0.0416005 -0.0166924,0.0402991 -0.0201412,0.0386909 -0.0234367,0.0367882 -0.0265538,0.0346056 -0.0294688,0.0321596 -0.0321596,0.0294688 -0.0346056,0.0265538 -0.0367882,0.0234367 -0.0386909,0.0201412 -0.0402991,0.0166924 -0.0416005,0.0131166 -0.0425854,0.00944096 -0.0432462,0.00569347 -0.0435779,0.00190265 -1.55,0 0,-0.2 1.55,0 0.0261467,-0.00114159 0.0259477,-0.00341608 0.0255513,-0.00566458 0.0249603,-0.00786996 0.0241794,-0.0100155 0.0232145,-0.0120847 0.0220729,-0.014062 0.0207634,-0.0159323 0.0192958,-0.0176813 0.0176813,-0.0192958 0.0159323,-0.0207634 0.014062,-0.0220729 0.0120847,-0.0232145 0.0100155,-0.0241794 0.00786996,-0.0249603 0.00566458,-0.0255513 0.00341608,-0.0259477 0.00114159,-0.0261467 0,-6.1 -0.00114159,-0.0261467 -0.00341608,-0.0259477 -0.00566458,-0.0255513 -0.00786996,-0.0249603 -0.0100155,-0.0241794 -0.0120847,-0.0232145 -0.014062,-0.0220729 -0.0159323,-0.0207634 -0.0176813,-0.0192958 -0.0192958,-0.0176813 -0.0207634,-0.0159323 -0.0220729,-0.014062 -0.0232145,-0.0120847 -0.0241794,-0.0100155 -0.0249603,-0.00786996 -0.0255513,-0.00566458 -0.0259477,-0.00341608 -0.0261467,-0.00114159 -1.55,4.44089e-16 z "/>
<path fill="rgb(241,240,234)" stroke="rgb(241,240,234)" d="M 0.7,0.4 l -0.0261467,0.00114159 -0.0259477,0.00341608 -0.0255513,0.00566458 -0.0249603,0.00786996 -0.0241794,0.0100155 -0.0232145,0.0120847 -0.0220729,0.014062 -0.0207634,0.0159323 -0.0192958,0.0176813 -0.0176813,0.0192958 -0.0159323,0.0207634 -0.014062,0.0220729 -0.0120847,0.0232145 -0.0100155,0.0241794 -0.00786996,0.0249603 -0.00566458,0.0255513 -0.00341608,0.0259477 -0.00114159,0.0261467 4.44089e-16,6.1 0.00114159,0.0261467 0.00341608,0.0259477 0.00566458,0.0255513 0.00786996,0.0249603 0.0100155,0.0241794 0.0120847,0.0232145 0.014062,0.0220729 0.0159323,0.0207634 0.0176813,0.0192958 0.0192958,0.0176813 0.0207634,0.0159323 0.0220729,0.014062 0.0232145,0.0120847 0.0241794,0.0100155 0.0249603,0.00786996 0.0255513,0.00566458 0.0259477,0.00341608 0.0261467,0.00114159 1.55,0 0,0.2 -1.55,0 -0.0435779,-0.00190265 -0.0432462,-0.00569347 -0.0425854,-0.00944096 -0.0416005,-0.0131166 -0.0402991,-0.0166924 -0.0386909,-0.0201412 -0.0367882,-0.0234367 -0.0346056,-0.0265538 -0.0321596,-0.0294688 -0.0294688,-0.0321596 -0.0265538,-0.0346056 -0.0234367,-0.0367882 -0.0201412,-0.0386909 -0.0166924,-0.0402991 -0.0131166,-0.0416005 -0.00944096,-0.0425854 -0.00569347,-0.0432462 -0.00190265,-0.0435779 0,-6.1 0.00190265,-0.0435779 0.00569347,-0.0432462 0.00944096,-0.0425854 0.0131166,-0.0416005 0.0166924,-0.0402991 0.0201412,-0.0386909 0.0234367,-0.0367882 0.0265538,-0.0346056 0.0294688,-0.0321596 0.0321596,-0.0294688 0.0346056,-0.0265538 0.0367882,-0.0234367 0.0386909,-0.0201412 0.0402991,-0.0166924 0.0416005,-0.0131166 0.0425854,-0.00944096 0.0432462,-0.00569347 0.0435779,-0.00190265 1.55,-4.44089e-16 0,0.2 -1.55,4.44089e-16 z "/>
<path fill="rgb(241,240,234)" stroke="rgb(241,240,234)" d="M 2.55816,6.7675 l -1.46852,0 0,-3.49954 0.574312,0 0,1.37298 0.894208,0 0.0901723,0.00214696 0.109495,0.0107348 0.103054,0.0182492 0.0944662,0.026837 0.0869518,0.0354248 0.080511,0.0440127 0.0837314,0.0601149 0.0794375,0.0687027 0.0708496,0.078364 0.0633353,0.0858784 0.0558209,0.0944662 0.0461596,0.0998336 -1.85819,0.00214696 0,0.872739 0.916752,0 0.939295,0.02469 -0.0440127,0.0901723 -0.053674,0.0837314 -0.0622618,0.0794375 -0.0719231,0.0729966 -0.080511,0.0665557 -0.0890988,0.0622618 -0.0644088,0.0354248 -0.0890988,0.0407922 -0.0944662,0.0311309 -0.0987601,0.0225431 -0.104128,0.0128818 -0.109495,0.00429392 z "/>
<path fill="rgb(241,240,234)" stroke="rgb(241,240,234)" d="M 3.51999,6.16528 l -0.939295,-0.02469 0.0687027,-0.00322044 0.104128,-0.0203961 0.0890988,-0.0375718 0.0729966,-0.0568944 0.02469,-0.0257635 0.0579679,-0.0869518 0.0343513,-0.100907 0.0118083,-0.112715 0,-0.0289839 -0.0182492,-0.110568 -0.0429392,-0.0933927 -0.0676292,-0.078364 -0.0440127,-0.0343513 -0.0858784,-0.0461596 -0.0966132,-0.026837 -0.108421,-0.00966132 -0.916752,0 1.85819,-0.00214696 0.0386453,0.105201 0.026837,0.107348 0.0161022,0.108421 0.0053674,0.109495 -0.00107348,0.051527 -0.00858784,0.113789 -0.0171757,0.106274 -0.026837,0.101981 -0.0354248,0.0955397 z "/>
</g></g></svg>
