<?xml version="1.0" encoding="UTF-8" standalone="no"?>
<!DOCTYPE svg PUBLIC "-//W3C//DTD SVG 1.1//EN" "http://www.w3.org/Graphics/SVG/1.1/DTD/svg11-flat.dtd"
[

]>
<svg xmlns="http://www.w3.org/2000/svg"  viewBox="-0.09375 -0.09375 7.6875 7.6875"><g fill="none" stroke="black" stroke-width="0.0125" transform="translate(0,7.5) scale(1, -1)">
<g id="Output" >
<path fill="rgb(241,240,234)" stroke="rgb(241,240,234)" d="M 1.2,6.3 l 0,-0.1 1,0 0,0.1 -1,0 z "/>
<path fill="rgb(241,240,234)" stroke="rgb(241,240,234)" d="M 2.2,1.2 l 1,0 0,1 -1,0 0,-1 z "/>
<path fill="rgb(241,240,234)" stroke="rgb(241,240,234)" d="M 2.2,2.2 l 1,0 0,1 -1,0 0,-1 z "/>
<path fill="rgb(241,240,234)" stroke="rgb(241,240,234)" d="M 6.2,1.2 l 0,1 -0.638095,0 -0.0396568,-0.0592098 -0.124133,-0.129985 -0.165908,-0.119252 -0.0322077,-0.0130676 0,-0.678485 1,0 z "/>
<path fill="rgb(241,240,234)" stroke="rgb(241,240,234)" d="M 4.2,6.3 l 0,-0.1 1,0 0,0.1 -1,0 z "/>
<path fill="rgb(241,240,234)" stroke="rgb(241,240,234)" d="M 4.2,5.2 l 1,0 0,1 -1,0 0,-1 z "/>
<path fill="rgb(241,240,234)" stroke="rgb(241,240,234)" d="M 4.2,4.88525 l 0.0543603,-0.0406883 0.271341,-0.246281 0.236946,-0.246281 0.127785,-0.151999 0.309567,0 0,1 -1,0 0,-0.31475 z "/>
<path fill="rgb(241,240,234)" stroke="rgb(241,240,234)" d="M 2.88865,4.2 l -0.688646,0 0,-1 1,0 0,1 -0.154351,0 -0.0529752,-0.0595098 -0.104027,0.0595098 z "/>
<path fill="rgb(241,240,234)" stroke="rgb(241,240,234)" d="M 4.2,3.2 l 0.0718942,0 0.265811,0.222928 -0.337705,0.386301 0,-0.609228 z M 5.2,3.78211 l 0,0.417886 -0.309567,0 0.166705,-0.198294 0.142862,-0.219592 z "/>
<path fill="rgb(241,240,234)" stroke="rgb(241,240,234)" d="M 2.88865,4.2 l -0.688646,0.393947 0,-0.393947 0.688646,0 z M 3.04565,4.2 l 0.154351,0 0,0.173391 -0.154351,-0.173391 z "/>
<path fill="rgb(241,240,234)" stroke="rgb(241,240,234)" d="M 5.2,6.3 l 0,-0.1 1,0 0,0.1 -1,-8.88178e-16 z "/>
<path fill="rgb(241,240,234)" stroke="rgb(241,240,234)" d="M 6.2,2.2 l 0,-1 0.1,8.88178e-16 0,1 -0.1,0 z "/>
<path fill="rgb(241,240,234)" stroke="rgb(241,240,234)" d="M 2.2,5.63091 l 0.060426,0.0381323 0.175862,0.0620801 0.12986,0.0119518 0.146223,-0.0307406 0.246474,-0.0634992 0.241155,-0.104589 0,0.655749 -1,0 0,-0.569085 z "/>
<path fill="rgb(241,240,234)" stroke="rgb(241,240,234)" d="M 2.2,6.3 l 0,-0.1 1,0 0,0.1 -1,0 z "/>
<path fill="rgb(241,240,234)" stroke="rgb(241,240,234)" d="M 4.2,3.2 l 0,-0.0602955 0.0718942,0.0602955 -0.0718942,0 z M 4.58874,2.2 l -0.388739,0.724586 0,-0.724586 0.388739,0 z "/>
<path fill="rgb(241,240,234)" stroke="rgb(241,240,234)" d="M 5.2,1.2 l 0,0.678485 -0.202928,-0.0823342 -0.0942931,-0.0143103 -0.0549048,0.0119252 -0.0942931,0.0989794 -0.164841,0.307254 -0.388739,0 0,-1 1,0 z "/>
<path fill="rgb(241,240,234)" stroke="rgb(241,240,234)" d="M 3.2,6.3 l 0,-0.1 1,0 0,0.1 -0.45,0 -0.55,0 z "/>
<path fill="rgb(241,240,234)" stroke="rgb(241,240,234)" d="M 3.2,5.54425 l 0.0508071,-0.0220349 0.38775,-0.23376 0.1279,-0.0884557 0.433544,0 0,1 -1,0 0,-0.655749 z "/>
<path fill="rgb(241,240,234)" stroke="rgb(241,240,234)" d="M 6.2,6.2 l 0.1,0 0,0.1 -0.1,0 0,-0.1 z "/>
<path fill="rgb(241,240,234)" stroke="rgb(241,240,234)" d="M 6.3,5.2 l 8.88178e-16,1 -0.1,0 0,-1 0.1,0 z "/>
<path fill="rgb(241,240,234)" stroke="rgb(241,240,234)" d="M 3.81908,4.2 l -0.619077,0 0,-1 1,0 0,0.609228 -0.231902,0.265273 -0.149021,0.125499 z "/>
<path fill="rgb(241,240,234)" stroke="rgb(241,240,234)" d="M 6.3,4.2 l 0,1 -0.1,0 0,-1 0.1,0 z "/>
<path fill="rgb(241,240,234)" stroke="rgb(241,240,234)" d="M 6.3,3.2 l 0,1 -0.1,0 0,-1 0.1,0 z "/>
<path fill="rgb(241,240,234)" stroke="rgb(241,240,234)" d="M 4.2,3.1397 l 0,0.0602955 -1,0 0,-1 1,0 0,0.724586 -0.0795967,0.148363 0.0795967,0.0667553 z "/>
<path fill="rgb(241,240,234)" stroke="rgb(241,240,234)" d="M 3.2,1.2 l 0.55,0 0.45,0 0,1 -1,0 0,-1 z "/>
<path fill="rgb(241,240,234)" stroke="rgb(241,240,234)" d="M 5.2,5.2 l 1,0 0,1 -1,0 0,-1 z "/>
<path fill="rgb(241,240,234)" stroke="rgb(241,240,234)" d="M 1.2,1.2 l 1,0 0,1 -1,0 8.88178e-16,-1 z "/>
<path fill="rgb(241,240,234)" stroke="rgb(241,240,234)" d="M 1.2,2.2 l 1,0 0,1 -1,0 0,-1 z "/>
<path fill="rgb(241,240,234)" stroke="rgb(241,240,234)" d="M 1.2,3.2 l 1,0 0,1 -1,0 0,-1 z "/>
<path fill="rgb(241,240,234)" stroke="rgb(241,240,234)" d="M 2.2,4.59395 l -0.369871,0.211588 -0.0963779,0.0969504 -0.0104274,0.0552089 0.0168698,0.093869 0.0649816,0.148437 -0.605175,0 0,-1 1,0 0,0.393947 z "/>
<path fill="rgb(241,240,234)" stroke="rgb(241,240,234)" d="M 5.56191,2.2 l 0.638095,0 0,1 -0.680996,0 0.088608,-0.199905 0.0764342,-0.250099 0.026752,-0.147005 -0.0154796,-0.129487 -0.0668407,-0.174108 -0.0665721,-0.0993957 z "/>
<path fill="rgb(241,240,234)" stroke="rgb(241,240,234)" d="M 5.2,3.78211 l 0.055867,-0.0858729 0.233272,-0.428864 0.029865,-0.0673771 0.680996,0 0,1 -1,0 0,-0.417886 z "/>
<path fill="rgb(241,240,234)" stroke="rgb(241,240,234)" d="M 5.2,4.2 l 1,0 0,1 -1,0 0,-1 z "/>
<path fill="rgb(241,240,234)" stroke="rgb(241,240,234)" d="M 6.3,2.2 l 0,1 -0.1,0 0,-1 0.1,0 z "/>
<path fill="rgb(241,240,234)" stroke="rgb(241,240,234)" d="M 1.80517,5.2 l 0.0367806,0.0840174 0.123721,0.162603 0.133313,0.120551 0.10101,0.0637433 0,0.569085 -1,0 0,-1 0.605175,0 z "/>
<path fill="rgb(241,240,234)" stroke="rgb(241,240,234)" d="M 3.81908,4.2 l -0.442039,0.372267 -0.177038,-0.198876 0,-0.173391 0.619077,0 z M 4.2,4.88525 l 0,0.31475 -0.433544,0 0.171456,-0.11858 0.262087,-0.196171 z "/>
<path fill="rgb(0,91,140)" stroke="rgb(0,91,140)" d="M 7.1,6.8 l -0.00114159,0.0261467 -0.00341608,0.0259477 -0.00566458,0.0255513 -0.00786996,0.0249603 -0.0100155,0.0241794 -0.0120847,0.0232145 -0.014062,0.0220729 -0.0159323,0.0207634 -0.0176813,0.0192958 -0.0192958,0.0176813 -0.0207634,0.0159323 -0.0220729,0.014062 -0.0232145,0.0120847 -0.0241794,0.0100155 -0.0249603,0.00786996 -0.0255513,0.00566458 -0.0259477,0.00341608 -0.0261467,0.00114159 -3.05,0 -4.44089e-16,-0.8 2.55,8.88178e-16 -8.88178e-16,-5.1 -2.55,-8.88178e-16 0,-0.8 3.05,-8.88178e-16 0.0261467,0.00114159 0.0259477,0.00341608 0.0255513,0.00566458 0.0249603,0.00786996 0.0241794,0.0100155 0.0232145,0.0120847 0.0220729,0.014062 0.0207634,0.0159323 0.0192958,0.0176813 0.0176813,0.0192958 0.0159323,0.0207634 0.014062,0.0220729 0.0120847,0.0232145 0.0100155,0.0241794 0.00786996,0.0249603 0.00566458,0.0255513 0.00341608,0.0259477 0.00114159,0.0261467 0,3.05 -8.88178e-16,3.05 z "/>
<path fill="rgb(0,91,140)" stroke="rgb(0,91,140)" d="M 0.4,3.75 l 4.44089e-16,-3.05 0.00114159,-0.0261467 0.00341608,-0.0259477 0.00566458,-0.0255513 0.00786996,-0.0249603 0.0100155,-0.0241794 0.0120847,-0.0232145 0.014062,-0.0220729 0.0159323,-0.0207634 0.0176813,-0.0192958 0.0192958,-0.0176813 0.0207634,-0.0159323 0.0220729,-0.014062 0.0232145,-0.0120847 0.0241794,-0.0100155 0.0249603,-0.00786996 0.0255513,-0.00566458 0.0259477,-0.00341608 0.0261467,-0.00114159 3.05,8.88178e-16 0,0.8 -2.55,0 -8.88178e-16,5.1 2.55,0 4.44089e-16,0.8 -3.05,-8.88178e-16 -0.0261467,-0.00114159 -0.0259477,-0.00341608 -0.0255513,-0.00566458 -0.0249603,-0.00786996 -0.0241794,-0.0100155 -0.0232145,-0.0120847 -0.0220729,-0.014062 -0.0207634,-0.0159323 -0.0192958,-0.0176813 -0.0176813,-0.0192958 -0.0159323,-0.0207634 -0.014062,-0.0220729 -0.0120847,-0.0232145 -0.0100155,-0.0241794 -0.00786996,-0.0249603 -0.00566458,-0.0255513 -0.00341608,-0.0259477 -0.00114159,-0.0261467 4.44089e-16,-3.05 z "/>
<path fill="rgb(241,240,234)" stroke="rgb(241,240,234)" d="M 0.4,3.75 l -0.2,-4.44089e-16 4.44089e-16,-3.05 0.00190265,-0.0435779 0.00569347,-0.0432462 0.00944096,-0.0425854 0.0131166,-0.0416005 0.0166924,-0.0402991 0.0201412,-0.0386909 0.0234367,-0.0367882 0.0265538,-0.0346056 0.0294688,-0.0321596 0.0321596,-0.0294688 0.0346056,-0.0265538 0.0367882,-0.0234367 0.0386909,-0.0201412 0.0402991,-0.0166924 0.0416005,-0.0131166 0.0425854,-0.00944096 0.0432462,-0.00569347 0.0435779,-0.00190265 6.1,0 0.0435779,0.00190265 0.0432462,0.00569347 0.0425854,0.00944096 0.0416005,0.0131166 0.0402991,0.0166924 0.0386909,0.0201412 0.0367882,0.0234367 0.0346056,0.0265538 0.0321596,0.0294688 0.0294688,0.0321596 0.0265538,0.0346056 0.0234367,0.0367882 0.0201412,0.0386909 0.0166924,0.0402991 0.0131166,0.0416005 0.00944096,0.0425854 0.00569347,0.0432462 0.00190265,0.0435779 0,3.05 -0.2,4.44089e-16 0,-3.05 -0.00114159,-0.0261467 -0.00341608,-0.0259477 -0.00566458,-0.0255513 -0.00786996,-0.0249603 -0.0100155,-0.0241794 -0.0120847,-0.0232145 -0.014062,-0.0220729 -0.0159323,-0.0207634 -0.0176813,-0.0192958 -0.0192958,-0.0176813 -0.0207634,-0.0159323 -0.0220729,-0.014062 -0.0232145,-0.0120847 -0.0241794,-0.0100155 -0.0249603,-0.00786996 -0.0255513,-0.00566458 -0.0259477,-0.00341608 -0.0261467,-0.00114159 -3.05,8.88178e-16 -3.05,-8.88178e-16 -0.0261467,0.00114159 -0.0259477,0.00341608 -0.0255513,0.00566458 -0.0249603,0.00786996 -0.0241794,0.0100155 -0.0232145,0.0120847 -0.0220729,0.014062 -0.0207634,0.0159323 -0.0192958,0.0176813 -0.0176813,0.0192958 -0.0159323,0.0207634 -0.014062,0.0220729 -0.0120847,0.0232145 -0.0100155,0.0241794 -0.00786996,0.0249603 -0.00566458,0.0255513 -0.00341608,0.0259477 -0.00114159,0.0261467 -4.44089e-16,3.05 z "/>
<path fill="rgb(241,240,234)" stroke="rgb(241,240,234)" d="M 7.1,6.8 l 8.88178e-16,-3.05 0.2,-4.44089e-16 -8.88178e-16,3.05 -0.00190265,0.0435779 -0.00569347,0.0432462 -0.00944096,0.0425854 -0.0131166,0.0416005 -0.0166924,0.0402991 -0.0201412,0.0386909 -0.0234367,0.0367882 -0.0265538,0.0346056 -0.0294688,0.0321596 -0.0321596,0.0294688 -0.0346056,0.0265538 -0.0367882,0.0234367 -0.0386909,0.0201412 -0.0402991,0.0166924 -0.0416005,0.0131166 -0.0425854,0.00944096 -0.0432462,0.00569347 -0.0435779,0.00190265 -6.1,-8.88178e-16 -0.0435779,-0.00190265 -0.0432462,-0.00569347 -0.0425854,-0.00944096 -0.0416005,-0.0131166 -0.0402991,-0.0166924 -0.0386909,-0.0201412 -0.0367882,-0.0234367 -0.0346056,-0.0265538 -0.0321596,-0.0294688 -0.0294688,-0.0321596 -0.0265538,-0.0346056 -0.0234367,-0.0367882 -0.0201412,-0.0386909 -0.0166924,-0.0402991 -0.0131166,-0.0416005 -0.00944096,-0.0425854 -0.00569347,-0.0432462 -0.00190265,-0.0435779 4.44089e-16,-3.05 0.2,4.44089e-16 -4.44089e-16,3.05 0.00114159,0.0261467 0.00341608,0.0259477 0.00566458,0.0255513 0.00786996,0.0249603 0.0100155,0.0241794 0.0120847,0.0232145 0.014062,0.0220729 0.0159323,0.0207634 0.0176813,0.0192958 0.0192958,0.0176813 0.0207634,0.0159323 0.0220729,0.014062 0.0232145,0.0120847 0.0241794,0.0100155 0.0249603,0.00786996 0.0255513,0.00566458 0.0259477,0.00341608 0.0261467,0.00114159 3.05,8.88178e-16 3.05,0 0.0261467,-0.00114159 0.0259477,-0.00341608 0.0255513,-0.00566458 0.0249603,-0.00786996 0.0241794,-0.0100155 0.0232145,-0.0120847 0.0220729,-0.014062 0.0207634,-0.0159323 0.0192958,-0.0176813 0.0176813,-0.0192958 0.0159323,-0.0207634 0.014062,-0.0220729 0.0120847,-0.0232145 0.0100155,-0.0241794 0.00786996,-0.0249603 0.00566458,-0.0255513 0.00341608,-0.0259477 0.00114159,-0.0261467 z "/>
<path fill="rgb(0,91,140)" stroke="rgb(0,91,140)" d="M 0.2,3.75 l -0.2,0 4.44089e-16,-3.05 0.00266371,-0.061009 0.00797086,-0.0605447 0.0132173,-0.0596196 0.0183632,-0.0582408 0.0233694,-0.0564187 0.0281977,-0.0541672 0.0328114,-0.0515035 0.0371753,-0.0484478 0.0412564,-0.0450234 0.0450234,-0.0412564 0.0484478,-0.0371753 0.0515035,-0.0328114 0.0541672,-0.0281977 0.0564187,-0.0233694 0.0582408,-0.0183632 0.0596196,-0.0132173 0.0605447,-0.00797086 0.061009,-0.00266371 6.1,-8.88178e-16 0.061009,0.00266371 0.0605447,0.00797086 0.0596196,0.0132173 0.0582408,0.0183632 0.0564187,0.0233694 0.0541672,0.0281977 0.0515035,0.0328114 0.0484478,0.0371753 0.0450234,0.0412564 0.0412564,0.0450234 0.0371753,0.0484478 0.0328114,0.0515035 0.0281977,0.0541672 0.0233694,0.0564187 0.0183632,0.0582408 0.0132173,0.0596196 0.00797086,0.0605447 0.00266371,0.061009 -1.77636e-15,3.05 -0.2,-8.88178e-16 0,-3.05 -0.00190265,-0.0435779 -0.00569347,-0.0432462 -0.00944096,-0.0425854 -0.0131166,-0.0416005 -0.0166924,-0.0402991 -0.0201412,-0.0386909 -0.0234367,-0.0367882 -0.0265538,-0.0346056 -0.0294688,-0.0321596 -0.0321596,-0.0294688 -0.0346056,-0.0265538 -0.0367882,-0.0234367 -0.0386909,-0.0201412 -0.0402991,-0.0166924 -0.0416005,-0.0131166 -0.0425854,-0.00944096 -0.0432462,-0.00569347 -0.0435779,-0.00190265 -6.1,0 -0.0435779,0.00190265 -0.0432462,0.00569347 -0.0425854,0.00944096 -0.0416005,0.0131166 -0.0402991,0.0166924 -0.0386909,0.0201412 -0.0367882,0.0234367 -0.0346056,0.0265538 -0.0321596,0.0294688 -0.0294688,0.0321596 -0.0265538,0.0346056 -0.0234367,0.0367882 -0.0201412,0.0386909 -0.0166924,0.0402991 -0.0131166,0.0416005 -0.00944096,0.0425854 -0.00569347,0.0432462 -0.00190265,0.0435779 -4.44089e-16,3.05 z "/>
<path fill="rgb(0,91,140)" stroke="rgb(0,91,140)" d="M 6.8,7.3 l 0.0435779,-0.00190265 0.0432462,-0.00569347 0.0425854,-0.00944096 0.0416005,-0.0131166 0.0402991,-0.0166924 0.0386909,-0.0201412 0.0367882,-0.0234367 0.0346056,-0.0265538 0.0321596,-0.0294688 0.0294688,-0.0321596 0.0265538,-0.0346056 0.0234367,-0.0367882 0.0201412,-0.0386909 0.0166924,-0.0402991 0.0131166,-0.0416005 0.00944096,-0.0425854 0.00569347,-0.0432462 0.00190265,-0.0435779 8.88178e-16,-3.05 0.2,8.88178e-16 1.77636e-15,3.05 -0.00266371,0.061009 -0.00797086,0.0605447 -0.0132173,0.0596196 -0.0183632,0.0582408 -0.0233694,0.0564187 -0.0281977,0.0541672 -0.0328114,0.0515035 -0.0371753,0.0484478 -0.0412564,0.0450234 -0.0450234,0.0412564 -0.0484478,0.0371753 -0.0515035,0.0328114 -0.0541672,0.0281977 -0.0564187,0.0233694 -0.0582408,0.0183632 -0.0596196,0.0132173 -0.0605447,0.00797086 -0.061009,0.00266371 -6.1,-8.88178e-16 -0.061009,-0.00266371 -0.0605447,-0.00797086 -0.0596196,-0.0132173 -0.0582408,-0.0183632 -0.0564187,-0.0233694 -0.0541672,-0.0281977 -0.0515035,-0.0328114 -0.0484478,-0.0371753 -0.0450234,-0.0412564 -0.0412564,-0.0450234 -0.0371753,-0.0484478 -0.0328114,-0.0515035 -0.0281977,-0.0541672 -0.0233694,-0.0564187 -0.0183632,-0.0582408 -0.0132173,-0.0596196 -0.00797086,-0.0605447 -0.00266371,-0.061009 4.44089e-16,-3.05 0.2,0 -4.44089e-16,3.05 0.00190265,0.0435779 0.00569347,0.0432462 0.00944096,0.0425854 0.0131166,0.0416005 0.0166924,0.0402991 0.0201412,0.0386909 0.0234367,0.0367882 0.0265538,0.0346056 0.0294688,0.0321596 0.0321596,0.0294688 0.0346056,0.0265538 0.0367882,0.0234367 0.0386909,0.0201412 0.0402991,0.0166924 0.0416005,0.0131166 0.0425854,0.00944096 0.0432462,0.00569347 0.0435779,0.00190265 6.1,8.88178e-16 z "/>
<path fill="rgb(42,41,42)" stroke="rgb(42,41,42)" d="M 4.33943,1.68843 l -0.0189246,-0.0615051 -0.0028387,-0.0028387 -0.0492041,-0.0264945 -0.00567739,0 -0.0492041,0.0236558 -0.00378493,0.00378493 -0.0217633,0.0596126 0,0.00378493 0.0179784,0.0615051 0.00378493,0.00473116 0.0482578,0.0274407 0.00473116,0.000946232 0.0492041,-0.0217633 0.00567739,-0.00662362 0.0217633,-0.0596126 0,-0.00662362 z "/>
<path fill="rgb(42,41,42)" stroke="rgb(42,41,42)" d="M 3.76696,2.61763 l -0.0539352,-0.00378493 -0.0548815,-0.0141935 -0.0473116,-0.0236558 -0.0416342,-0.0340643 -0.0179784,-0.0208171 -0.0321719,-0.0520428 -0.0189246,-0.0605588 -0.00662362,-0.0671825 0.00378493,-0.0510965 0.0160859,-0.0624513 0.0302794,-0.0558277 0.00567739,-0.00756986 0.0359568,-0.0321719 0.0501503,-0.0293332 0.0643438,-0.0274407 0.0397417,-0.0160859 0.036903,-0.00946232 0.0350106,-0.0132472 0.0633975,-0.024602 0.0321719,-0.0151397 0.0359568,-0.0321719 0.0151397,-0.0577201 -0.00946232,-0.0463654 -0.0387955,-0.0473116 -0.0160859,-0.0104086 -0.0492041,-0.0198709 -0.0596126,-0.00662362 0.292386,-0.00189246 0.0170322,0.0586664 0.00662362,0.0662362 -0.000946232,0.0198709 -0.00946232,0.0681287 -0.0217633,0.0605588 -0.00378493,0.00851609 -0.0350106,0.0539352 -0.0435267,0.0378493 -0.00662362,0.00473116 -0.0378493,0.0189246 -0.0482578,0.0189246 -0.0596126,0.0198709 -0.0700212,0.0208171 -0.0605588,0.0217633 -0.0387955,0.0217633 -0.00567739,0.00662362 -0.0198709,0.0596126 0.00189246,0.0236558 0.0198709,0.0425804 0.0425804,0.0255483 0.0633975,0.00851609 0.297117,0.0217633 -0.00567739,0.00851609 -0.040688,0.0444729 -0.0444729,0.036903 -0.0463654,0.028387 -0.0501503,0.0198709 -0.052989,0.012301 -0.0567739,0.00378493 z "/>
<path fill="rgb(42,41,42)" stroke="rgb(42,41,42)" d="M 4.06408,2.46339 l -0.297117,-0.0217633 0.0539352,-0.00567739 0.0510965,-0.0179784 0.0463654,-0.0312257 0.0397417,-0.0425804 0.105978,0.119225 z "/>
<path fill="rgb(42,41,42)" stroke="rgb(42,41,42)" d="M 3.57015,1.90228 l -0.114494,-0.112602 0.00189246,-0.00189246 0.0397417,-0.0510965 0.0416342,-0.0425804 0.0444729,-0.0340643 0.0463654,-0.0274407 0.0501503,-0.0198709 0.0520428,-0.0113548 0.0548815,-0.00378493 0.0501503,0.00378493 0.0539352,0.012301 0.0501503,0.0208171 0.0473116,0.0302794 0.0179784,0.0141935 0.040688,0.0435267 0.0302794,0.0520428 -0.292386,0.00189246 -0.0321719,0.0028387 -0.052989,0.012301 -0.0473116,0.0255483 -0.0435267,0.0359568 -0.0387955,0.0492041 z "/>
<path fill="rgb(42,41,42)" stroke="rgb(42,41,42)" d="M 3.36954,1.68843 l -0.0189246,-0.0615051 -0.0028387,-0.0028387 -0.0482578,-0.0264945 -0.00662362,0 -0.0492041,0.0236558 -0.0028387,0.00378493 -0.0227096,0.0596126 0,0.00378493 0.0179784,0.0615051 0.00473116,0.00473116 0.0473116,0.0274407 0.00473116,0.000946232 0.0501503,-0.0217633 0.00473116,-0.00662362 0.0217633,-0.0596126 0,-0.00662362 z "/>
<path fill="rgb(42,41,42)" stroke="rgb(42,41,42)" d="M 2.77436,2.62425 l -0.0151397,-0.000946232 -0.0558277,-0.00756986 -0.0520428,-0.0170322 -0.0463654,-0.0274407 -0.0416342,-0.036903 -0.036903,-0.0473116 -0.0264945,-0.0454191 -0.0227096,-0.0548815 -0.0179784,-0.0596126 -0.012301,-0.0671825 -0.00756986,-0.0719136 -0.0028387,-0.0785372 0.000946232,-0.0378493 0.00473116,-0.0719136 0.0104086,-0.0681287 0.0160859,-0.0633975 0.0217633,-0.0586664 0.0264945,-0.0548815 0.257375,0.0151397 -0.00662362,0 -0.0520428,0.0113548 -0.0454191,0.0302794 -0.036903,0.0482578 -0.0198709,0.0435267 -0.0170322,0.0596126 -0.0104086,0.0681287 -0.00378493,0.0785372 0.00189246,0.0643438 0.00946232,0.0700212 0.0160859,0.0615051 0.0236558,0.0520428 0.0028387,0.00567739 0.0378493,0.0454191 0.0463654,0.028387 0.0539352,0.00946232 0.240343,0.0378493 -0.00567739,0.00756986 -0.0378493,0.0473116 -0.0416342,0.036903 -0.0473116,0.0264945 -0.0520428,0.0160859 -0.0558277,0.00567739 z "/>
<path fill="rgb(42,41,42)" stroke="rgb(42,41,42)" d="M 3.01471,2.48421 l -0.240343,-0.0378493 0.00473116,-0.000946232 0.0539352,-0.0104086 0.0454191,-0.0293332 0.0359568,-0.0482578 0.0179784,-0.0416342 0.0170322,-0.0596126 0.0104086,-0.0690749 0.00378493,-0.077591 -0.000946232,-0.036903 -0.00662362,-0.0728599 -0.012301,-0.0643438 -0.0189246,-0.0548815 -0.0151397,-0.0302794 -0.0359568,-0.0444729 -0.0444729,-0.0274407 -0.0548815,-0.00851609 -0.257375,-0.0151397 0.0227096,-0.036903 0.0378493,-0.0454191 0.0425804,-0.0359568 0.0473116,-0.0255483 0.0510965,-0.0151397 0.0558277,-0.00567739 0.0113548,0.000946232 0.0548815,0.00662362 0.0501503,0.0189246 0.0463654,0.028387 0.0416342,0.0397417 0.036903,0.0501503 0.0255483,0.0463654 0.0227096,0.0558277 0.0179784,0.0605588 0.0132472,0.0662362 0.00756986,0.0719136 0.0028387,0.0766448 -0.00189246,0.0643438 -0.00756986,0.0719136 -0.012301,0.0671825 -0.0179784,0.0605588 -0.0227096,0.0567739 -0.028387,0.0510965 z "/>
<path fill="rgb(42,41,42)" stroke="rgb(42,41,42)" d="M 2.3268,1.68843 l -0.0189246,-0.0615051 -0.0028387,-0.0028387 -0.0492041,-0.0264945 -0.00567739,0 -0.0492041,0.0236558 -0.00378493,0.00378493 -0.0217633,0.0596126 0,0.00378493 0.0179784,0.0615051 0.00378493,0.00473116 0.0482578,0.0274407 0.00473116,0.000946232 0.0492041,-0.0217633 0.00567739,-0.00662362 0.0217633,-0.0596126 0,-0.00662362 z "/>
<path fill="rgb(42,41,42)" stroke="rgb(42,41,42)" d="M 1.75433,2.61763 l -0.0539352,-0.00378493 -0.0539352,-0.0141935 -0.0482578,-0.0236558 -0.0416342,-0.0340643 -0.0179784,-0.0208171 -0.0321719,-0.0520428 -0.0189246,-0.0605588 -0.00662362,-0.0671825 0.00378493,-0.0510965 0.0160859,-0.0624513 0.0302794,-0.0558277 0.00567739,-0.00756986 0.0359568,-0.0321719 0.0501503,-0.0293332 0.0643438,-0.0274407 0.0397417,-0.0160859 0.036903,-0.00946232 0.0350106,-0.0132472 0.0633975,-0.024602 0.0321719,-0.0151397 0.0359568,-0.0321719 0.0151397,-0.0577201 -0.00851609,-0.0463654 -0.0397417,-0.0473116 -0.0160859,-0.0104086 -0.0492041,-0.0198709 -0.0596126,-0.00662362 0.292386,-0.00189246 0.0170322,0.0586664 0.00662362,0.0662362 -0.000946232,0.0198709 -0.00946232,0.0681287 -0.0217633,0.0605588 -0.00378493,0.00851609 -0.0350106,0.0539352 -0.0435267,0.0378493 -0.00662362,0.00473116 -0.0378493,0.0189246 -0.0482578,0.0189246 -0.0596126,0.0198709 -0.0700212,0.0208171 -0.0605588,0.0217633 -0.0387955,0.0217633 -0.00567739,0.00662362 -0.0198709,0.0596126 0.00189246,0.0236558 0.0208171,0.0425804 0.0416342,0.0255483 0.0633975,0.00851609 0.297117,0.0217633 -0.00567739,0.00851609 -0.040688,0.0444729 -0.0435267,0.036903 -0.0473116,0.028387 -0.0501503,0.0198709 -0.052989,0.012301 -0.0567739,0.00378493 z "/>
<path fill="rgb(42,41,42)" stroke="rgb(42,41,42)" d="M 2.05144,2.46339 l -0.297117,-0.0217633 0.0539352,-0.00567739 0.0510965,-0.0179784 0.0463654,-0.0312257 0.0397417,-0.0425804 0.105978,0.119225 z "/>
<path fill="rgb(42,41,42)" stroke="rgb(42,41,42)" d="M 1.55751,1.90228 l -0.113548,-0.112602 0.000946232,-0.00189246 0.0397417,-0.0510965 0.0416342,-0.0425804 0.0444729,-0.0340643 0.0473116,-0.0274407 0.0492041,-0.0198709 0.0520428,-0.0113548 0.0548815,-0.00378493 0.0501503,0.00378493 0.0539352,0.012301 0.0501503,0.0208171 0.0473116,0.0302794 0.0179784,0.0141935 0.040688,0.0435267 0.0302794,0.0520428 -0.292386,0.00189246 -0.0321719,0.0028387 -0.0520428,0.012301 -0.0482578,0.0255483 -0.0435267,0.0359568 -0.0387955,0.0492041 z "/>
<path fill="rgb(42,41,42)" stroke="rgb(42,41,42)" d="M 4.25436,4.84456 l 0.271341,-0.246281 0.236946,-0.246281 0.294491,-0.350293 0.198729,-0.305465 0.233272,-0.428864 0.118473,-0.267282 0.0764342,-0.250099 0.026752,-0.147005 -0.0154796,-0.129487 -0.0668407,-0.174108 -0.106229,-0.158605 -0.124133,-0.129985 -0.165908,-0.119252 -0.235136,-0.0954018 -0.0942931,-0.0143103 -0.0549048,0.0119252 -0.0942931,0.0989794 -0.633177,1.1802 0.417302,0.349978 -0.569607,0.651573 -0.59106,0.497766 -0.384365,-0.431777 -1.16254,0.665045 -0.0963779,0.0969504 -0.0104274,0.0552089 0.0168698,0.093869 0.101762,0.232454 0.123721,0.162603 0.133313,0.120551 0.161436,0.101876 0.175862,0.0620801 0.12986,0.0119518 0.146223,-0.0307406 0.246474,-0.0634992 0.291962,-0.126623 0.38775,-0.23376 0.299356,-0.207035 0.316448,-0.236859 z "/>
</g></g></svg>
