<?xml version="1.0" encoding="UTF-8" standalone="no"?>
<!DOCTYPE svg PUBLIC "-//W3C//DTD SVG 1.1//EN" "http://www.w3.org/Graphics/SVG/1.1/DTD/svg11-flat.dtd"
[

]>
<svg xmlns="http://www.w3.org/2000/svg"  viewBox="-0.108333 -0.108333 15.7167 6.71667"><g fill="none" stroke="black" stroke-width="0.0125" transform="translate(0,6.5) scale(1, -1)">
<g id="Output" >
<path fill="rgb(241,240,234)" stroke="rgb(241,240,234)" d="M 13.8538,6.1 l -0.534405,-1.77636e-15 -5.56937,-2.24767 0,-0.215673 6.10377,2.46334 z "/>
<path fill="rgb(241,240,234)" stroke="rgb(241,240,234)" d="M 7.75,3.85233 l -7.35,-2.96629 -1.77636e-15,-0.186045 0.000156847,-0.00969968 0.000470378,-0.00968954 0.000783417,-0.00966926 7.34859,2.96572 0,0.215673 z "/>
<path fill="rgb(241,240,234)" stroke="rgb(241,240,234)" d="M 15.0986,5.82906 l -7.34859,-2.96572 0,-0.215673 7.35,2.96629 -3.55271e-15,0.186045 -0.000156847,0.00969968 -0.000470378,0.00968954 -0.000783417,0.00966926 z "/>
<path fill="rgb(241,240,234)" stroke="rgb(241,240,234)" d="M 2.18063,0.4 l 5.56937,2.24767 0,0.215673 -6.10377,-2.46334 0.534405,4.44089e-16 z "/>
<path fill="rgb(241,240,234)" stroke="rgb(241,240,234)" d="M 0.7,6.3 l 7.05,0 -1.77636e-15,-0.2 -7.05,8.88178e-16 -0.0261467,-0.00114159 -0.0259477,-0.00341608 -0.0255513,-0.00566458 -0.0249603,-0.00786996 -0.0241794,-0.0100155 -0.0232145,-0.0120847 -0.0220729,-0.014062 -0.0207634,-0.0159323 -0.0192958,-0.0176813 -0.0176813,-0.0192958 -0.0159323,-0.0207634 -0.014062,-0.0220729 -0.0120847,-0.0232145 -0.0100155,-0.0241794 -0.00786996,-0.0249603 -0.00566458,-0.0255513 -0.00341608,-0.0259477 -0.00114159,-0.0261467 -8.88178e-16,-4.91395 -1.77636e-15,-0.186045 0.000156847,-0.00969968 0.000470378,-0.00968954 0.000783417,-0.00966926 0.00363737,-0.0257441 0.00585275,-0.0253325 0.00802417,-0.0247306 0.0101353,-0.0239429 0.0121703,-0.0229755 0.014114,-0.0218354 0.0159516,-0.0205314 0.0176694,-0.0190731 0.0192544,-0.0174716 0.0206949,-0.0157388 0.0219799,-0.0138879 0.0230998,-0.0119326 0.0240463,-0.00988768 0.0248121,-0.00776851 0.0253915,-0.00559099 0.0257803,-0.00337148 0.0259754,-0.00112665 0.946225,4.44089e-16 0.534405,4.44089e-16 5.56937,4.44089e-16 0,-0.2 -7.05,0 -0.0435779,0.00190265 -0.0432462,0.00569347 -0.0425854,0.00944096 -0.0416005,0.0131166 -0.0402991,0.0166924 -0.0386909,0.0201412 -0.0367882,0.0234367 -0.0346056,0.0265538 -0.0321596,0.0294688 -0.0294688,0.0321596 -0.0265538,0.0346056 -0.0234367,0.0367882 -0.0201412,0.0386909 -0.0166924,0.0402991 -0.0131166,0.0416005 -0.00944096,0.0425854 -0.00569347,0.0432462 -0.00190265,0.0435779 -1.77636e-15,5.1 0.00190265,0.0435779 0.00569347,0.0432462 0.00944096,0.0425854 0.0131166,0.0416005 0.0166924,0.0402991 0.0201412,0.0386909 0.0234367,0.0367882 0.0265538,0.0346056 0.0294688,0.0321596 0.0321596,0.0294688 0.0346056,0.0265538 0.0367882,0.0234367 0.0386909,0.0201412 0.0402991,0.0166924 0.0416005,0.0131166 0.0425854,0.00944096 0.0432462,0.00569347 0.0435779,0.00190265 z "/>
<path fill="rgb(0,91,140)" stroke="rgb(0,91,140)" d="M 0.7,6.3 l -0.0435779,-0.00190265 -0.0432462,-0.00569347 -0.0425854,-0.00944096 -0.0416005,-0.0131166 -0.0402991,-0.0166924 -0.0386909,-0.0201412 -0.0367882,-0.0234367 -0.0346056,-0.0265538 -0.0321596,-0.0294688 -0.0294688,-0.0321596 -0.0265538,-0.0346056 -0.0234367,-0.0367882 -0.0201412,-0.0386909 -0.0166924,-0.0402991 -0.0131166,-0.0416005 -0.00944096,-0.0425854 -0.00569347,-0.0432462 -0.00190265,-0.0435779 1.77636e-15,-5.1 0.00190265,-0.0435779 0.00569347,-0.0432462 0.00944096,-0.0425854 0.0131166,-0.0416005 0.0166924,-0.0402991 0.0201412,-0.0386909 0.0234367,-0.0367882 0.0265538,-0.0346056 0.0294688,-0.0321596 0.0321596,-0.0294688 0.0346056,-0.0265538 0.0367882,-0.0234367 0.0386909,-0.0201412 0.0402991,-0.0166924 0.0416005,-0.0131166 0.0425854,-0.00944096 0.0432462,-0.00569347 0.0435779,-0.00190265 7.05,0 -8.88178e-16,-0.2 -7.05,-3.55271e-15 -0.061009,0.00266371 -0.0605447,0.00797086 -0.0596196,0.0132173 -0.0582408,0.0183632 -0.0564187,0.0233694 -0.0541672,0.0281977 -0.0515035,0.0328114 -0.0484478,0.0371753 -0.0450234,0.0412564 -0.0412564,0.0450234 -0.0371753,0.0484478 -0.0328114,0.0515035 -0.0281977,0.0541672 -0.0233694,0.0564187 -0.0183632,0.0582408 -0.0132173,0.0596196 -0.00797086,0.0605447 -0.00266371,0.061009 8.88178e-16,5.1 0.00266371,0.061009 0.00797086,0.0605447 0.0132173,0.0596196 0.0183632,0.0582408 0.0233694,0.0564187 0.0281977,0.0541672 0.0328114,0.0515035 0.0371753,0.0484478 0.0412564,0.0450234 0.0450234,0.0412564 0.0484478,0.0371753 0.0515035,0.0328114 0.0541672,0.0281977 0.0564187,0.0233694 0.0582408,0.0183632 0.0596196,0.0132173 0.0605447,0.00797086 0.061009,0.00266371 7.05,-8.88178e-16 0,-0.2 -7.05,0 z "/>
<path fill="rgb(0,91,140)" stroke="rgb(0,91,140)" d="M 7.75,0.4 l -5.56937,-4.44089e-16 5.56937,2.24767 8.88178e-16,-2.24767 z "/>
<path fill="rgb(0,91,140)" stroke="rgb(0,91,140)" d="M 0.4,5.8 l 0.00114159,0.0261467 0.00341608,0.0259477 0.00566458,0.0255513 0.00786996,0.0249603 0.0100155,0.0241794 0.0120847,0.0232145 0.014062,0.0220729 0.0159323,0.0207634 0.0176813,0.0192958 0.0192958,0.0176813 0.0207634,0.0159323 0.0220729,0.014062 0.0232145,0.0120847 0.0241794,0.0100155 0.0249603,0.00786996 0.0255513,0.00566458 0.0259477,0.00341608 0.0261467,0.00114159 7.05,-8.88178e-16 8.88178e-16,-2.24767 -7.35,-2.96629 8.88178e-16,4.91395 z "/>
<path fill="rgb(241,240,234)" stroke="rgb(241,240,234)" d="M 15.1,5.8 l 3.55271e-15,-0.186045 1.77636e-15,-4.91395 -0.00114159,-0.0261467 -0.00341608,-0.0259477 -0.00566458,-0.0255513 -0.00786996,-0.0249603 -0.0100155,-0.0241794 -0.0120847,-0.0232145 -0.014062,-0.0220729 -0.0159323,-0.0207634 -0.0176813,-0.0192958 -0.0192958,-0.0176813 -0.0207634,-0.0159323 -0.0220729,-0.014062 -0.0232145,-0.0120847 -0.0241794,-0.0100155 -0.0249603,-0.00786996 -0.0255513,-0.00566458 -0.0259477,-0.00341608 -0.0261467,-0.00114159 -7.05,1.33227e-15 0,-0.2 7.05,0 0.0435779,0.00190265 0.0432462,0.00569347 0.0425854,0.00944096 0.0416005,0.0131166 0.0402991,0.0166924 0.0386909,0.0201412 0.0367882,0.0234367 0.0346056,0.0265538 0.0321596,0.0294688 0.0294688,0.0321596 0.0265538,0.0346056 0.0234367,0.0367882 0.0201412,0.0386909 0.0166924,0.0402991 0.0131166,0.0416005 0.00944096,0.0425854 0.00569347,0.0432462 0.00190265,0.0435779 1.77636e-15,5.1 -0.00190265,0.0435779 -0.00569347,0.0432462 -0.00944096,0.0425854 -0.0131166,0.0416005 -0.0166924,0.0402991 -0.0201412,0.0386909 -0.0234367,0.0367882 -0.0265538,0.0346056 -0.0294688,0.0321596 -0.0321596,0.0294688 -0.0346056,0.0265538 -0.0367882,0.0234367 -0.0386909,0.0201412 -0.0402991,0.0166924 -0.0416005,0.0131166 -0.0425854,0.00944096 -0.0432462,0.00569347 -0.0435779,0.00190265 -7.05,0 -1.77636e-15,-0.2 5.56937,0 0.534405,1.77636e-15 0.946225,-8.88178e-16 0.0259754,-0.00112665 0.0257803,-0.00337148 0.0253915,-0.00559099 0.0248121,-0.00776851 0.0240463,-0.00988768 0.0230998,-0.0119326 0.0219799,-0.0138879 0.0206949,-0.0157388 0.0192544,-0.0174716 0.0176694,-0.0190731 0.0159516,-0.0205314 0.014114,-0.0218354 0.0121703,-0.0229755 0.0101353,-0.0239429 0.00802417,-0.0247306 0.00585275,-0.0253325 0.00363737,-0.0257441 0.000783417,-0.00966926 0.000470378,-0.00968954 0.000156847,-0.00969968 z "/>
<path fill="rgb(0,91,140)" stroke="rgb(0,91,140)" d="M 14.8,6.3 l 0.0435779,-0.00190265 0.0432462,-0.00569347 0.0425854,-0.00944096 0.0416005,-0.0131166 0.0402991,-0.0166924 0.0386909,-0.0201412 0.0367882,-0.0234367 0.0346056,-0.0265538 0.0321596,-0.0294688 0.0294688,-0.0321596 0.0265538,-0.0346056 0.0234367,-0.0367882 0.0201412,-0.0386909 0.0166924,-0.0402991 0.0131166,-0.0416005 0.00944096,-0.0425854 0.00569347,-0.0432462 0.00190265,-0.0435779 -1.77636e-15,-5.1 -0.00190265,-0.0435779 -0.00569347,-0.0432462 -0.00944096,-0.0425854 -0.0131166,-0.0416005 -0.0166924,-0.0402991 -0.0201412,-0.0386909 -0.0234367,-0.0367882 -0.0265538,-0.0346056 -0.0294688,-0.0321596 -0.0321596,-0.0294688 -0.0346056,-0.0265538 -0.0367882,-0.0234367 -0.0386909,-0.0201412 -0.0402991,-0.0166924 -0.0416005,-0.0131166 -0.0425854,-0.00944096 -0.0432462,-0.00569347 -0.0435779,-0.00190265 -7.05,0 -8.88178e-16,-0.2 7.05,-3.55271e-15 0.061009,0.00266371 0.0605447,0.00797086 0.0596196,0.0132173 0.0582408,0.0183632 0.0564187,0.0233694 0.0541672,0.0281977 0.0515035,0.0328114 0.0484478,0.0371753 0.0450234,0.0412564 0.0412564,0.0450234 0.0371753,0.0484478 0.0328114,0.0515035 0.0281977,0.0541672 0.0233694,0.0564187 0.0183632,0.0582408 0.0132173,0.0596196 0.00797086,0.0605447 0.00266371,0.061009 -1.77636e-15,5.1 -0.00266371,0.061009 -0.00797086,0.0605447 -0.0132173,0.0596196 -0.0183632,0.0582408 -0.0233694,0.0564187 -0.0281977,0.0541672 -0.0328114,0.0515035 -0.0371753,0.0484478 -0.0412564,0.0450234 -0.0450234,0.0412564 -0.0484478,0.0371753 -0.0515035,0.0328114 -0.0541672,0.0281977 -0.0564187,0.0233694 -0.0582408,0.0183632 -0.0596196,0.0132173 -0.0605447,0.00797086 -0.061009,0.00266371 -7.05,-8.88178e-16 0,-0.2 7.05,0 z "/>
<path fill="rgb(0,91,140)" stroke="rgb(0,91,140)" d="M 7.75,6.1 l 8.88178e-16,-2.24767 5.56937,2.24767 -5.56937,0 z "/>
<path fill="rgb(0,91,140)" stroke="rgb(0,91,140)" d="M 15.1,5.61395 l -7.35,-2.96629 8.88178e-16,-2.24767 7.05,-1.33227e-15 0.0261467,0.00114159 0.0259477,0.00341608 0.0255513,0.00566458 0.0249603,0.00786996 0.0241794,0.0100155 0.0232145,0.0120847 0.0220729,0.014062 0.0207634,0.0159323 0.0192958,0.0176813 0.0176813,0.0192958 0.0159323,0.0207634 0.014062,0.0220729 0.0120847,0.0232145 0.0100155,0.0241794 0.00786996,0.0249603 0.00566458,0.0255513 0.00341608,0.0259477 0.00114159,0.0261467 -1.77636e-15,4.91395 z "/>
<path fill="rgb(241,240,234)" stroke="rgb(241,240,234)" d="M 11.9074,1.99816 l -0.0303763,-0.00164196 -0.040228,-0.0082098 -0.0385861,-0.0155986 -0.0361231,-0.0221665 -0.0336602,-0.0295553 0.365336,-0.00656784 -0.0311972,0.0303763 -0.0344812,0.0229874 -0.0369441,0.0172406 -0.040228,0.00985176 -0.043512,0.00328392 z "/>
<path fill="rgb(241,240,234)" stroke="rgb(241,240,234)" d="M 12.3179,1.99816 l -0.0254504,-0.00082098 -0.0394071,-0.00656784 -0.0385861,-0.0114937 -0.0394071,-0.0172406 -0.0394071,-0.0229874 -0.0385861,-0.0279133 0.439224,-0.0147776 -0.0287343,0.0320182 -0.0270923,0.0229874 -0.0353022,0.0205245 -0.0394071,0.0147776 -0.04187,0.00903078 -0.0459749,0.00246294 z "/>
<path fill="rgb(241,240,234)" stroke="rgb(241,240,234)" d="M 11.7284,1.98092 l -0.178974,0 0,-0.729851 0.178974,0 0,0.438403 0.00082098,0.0172406 0.00985176,0.041049 0.0229874,0.0353022 0.00738882,0.0082098 0.0353022,0.0205245 0.042691,0.00738882 0.726568,0.00328392 -0.0155986,0.0385861 -0.0221665,0.0353022 -0.439224,0.0147776 -0.00328392,0.00328392 -0.365336,0.00656784 0,0.0599316 z "/>
<path fill="rgb(241,240,234)" stroke="rgb(241,240,234)" d="M 12.574,1.82247 l -0.726568,-0.00328392 0.431015,0 0.0197035,-0.00082098 0.041049,-0.0114937 0.0311972,-0.0238084 0.0114937,-0.0155986 0.0164196,-0.0377651 0.00574686,-0.0443329 0,-0.434299 0.178974,0 0,0.500798 -0.00164196,0.0295553 -0.00738882,0.041049 z "/>
<path fill="rgb(241,240,234)" stroke="rgb(241,240,234)" d="M 11.8475,1.81919 l 0.0197035,-0.00164196 0.0394071,-0.0114937 0.0361231,-0.0246294 0.0131357,-0.0155986 0.0180616,-0.0369441 0.00656784,-0.043512 0,-0.434299 0.171585,0 0,0.441687 0.00082098,0.0139567 0.0114937,0.0394071 0.0254504,0.0353022 0.0114937,0.00985176 0.0361231,0.0213455 0.041049,0.00656784 -0.431015,0 z "/>
<path fill="rgb(241,240,234)" stroke="rgb(241,240,234)" d="M 11.0913,1.99816 l -0.0188825,0 -0.040228,-0.00328392 -0.040228,-0.00738882 -0.04187,-0.0106727 -0.041049,-0.0139567 -0.04187,-0.0172406 -0.04187,-0.0213455 0.0738882,-0.154344 0.0188825,0.0106727 0.0394071,0.0197035 0.040228,0.0139567 0.041049,0.0082098 0.042691,0.00246294 0.279954,0.0106727 -0.0147776,0.0344812 -0.0180616,0.0303763 -0.0221665,0.0254504 -0.0262714,0.0221665 -0.0303763,0.0180616 -0.0336602,0.0139567 -0.0377651,0.0106727 -0.041049,0.00574686 -0.0459749,0.00164196 z "/>
<path fill="rgb(241,240,234)" stroke="rgb(241,240,234)" d="M 11.3614,1.83561 l -0.279954,-0.0106727 0.00082098,0 0.043512,-0.00492588 0.0344812,-0.0139567 0.0262714,-0.0246294 0.0180616,-0.0328392 0.00903078,-0.042691 -0.325108,-0.00656784 -0.0328392,-0.0197035 -0.00246294,-0.00246294 -0.0303763,-0.0270923 -0.0229874,-0.0328392 0.25943,-0.0344812 0.0262714,-0.00082098 0.041049,-0.00574686 0.042691,-0.0106727 0.0443329,-0.0155986 0,-0.112474 -0.0377651,-0.0155986 -0.0443329,-0.0139567 -0.040228,-0.0082098 -0.0361231,-0.00328392 -0.270923,-0.00246294 0.0164196,-0.0377651 0.0221665,-0.0320182 0.0287343,-0.0279133 0.362052,-0.0131357 0,-0.0320182 0.169122,0 0,0.441687 0,0.0164196 -0.00328392,0.0459749 -0.00738882,0.042691 -0.0106727,0.0377651 z "/>
<path fill="rgb(241,240,234)" stroke="rgb(241,240,234)" d="M 11.0511,1.73134 l -0.0385861,-0.00082098 -0.0451539,-0.00574686 -0.041049,-0.0106727 -0.0377651,-0.0147776 0.325108,0.00656784 -0.0336602,0.00985176 -0.04187,0.00903078 -0.043512,0.00492588 -0.043512,0.00164196 z "/>
<path fill="rgb(241,240,234)" stroke="rgb(241,240,234)" d="M 10.7999,1.61723 l -0.0164196,-0.0361231 -0.0106727,-0.04187 -0.00328392,-0.0467959 0,-0.0106727 0.00492588,-0.0459749 0.00985176,-0.04187 0.270923,0.00246294 -0.0147776,0.00082098 -0.043512,0.0082098 -0.0336602,0.0205245 -0.0229874,0.0279133 -0.0106727,0.0385861 0.00738882,0.0320182 0.0279133,0.0320182 0.0106727,0.00738882 0.0369441,0.0139567 0.0467959,0.00492588 -0.25943,0.0344812 z "/>
<path fill="rgb(241,240,234)" stroke="rgb(241,240,234)" d="M 10.8516,1.29622 l 0.0180616,-0.0139567 0.0353022,-0.0197035 0.0385861,-0.0139567 0.043512,-0.0082098 0.0459749,-0.00246294 0.0164196,0 0.0443329,0.0041049 0.04187,0.00903078 0.040228,0.0131357 0.0377651,0.0188825 -0.362052,0.0131357 z "/>
<path fill="rgb(241,240,234)" stroke="rgb(241,240,234)" d="M 10.3533,1.99816 l -0.0188825,0 -0.040228,-0.00328392 -0.041049,-0.00738882 -0.041049,-0.0106727 -0.04187,-0.0139567 -0.041049,-0.0172406 -0.042691,-0.0213455 0.0747092,-0.154344 0.0180616,0.0106727 0.0394071,0.0197035 0.040228,0.0139567 0.04187,0.0082098 0.04187,0.00246294 0.280775,0.0106727 -0.0147776,0.0344812 -0.0188825,0.0303763 -0.0221665,0.0254504 -0.0262714,0.0221665 -0.0295553,0.0180616 -0.0344812,0.0139567 -0.0369441,0.0106727 -0.04187,0.00574686 -0.0451539,0.00164196 z "/>
<path fill="rgb(241,240,234)" stroke="rgb(241,240,234)" d="M 10.6234,1.83561 l -0.280775,-0.0106727 0.00164196,0 0.042691,-0.00492588 0.0353022,-0.0139567 0.0262714,-0.0246294 0.0172406,-0.0328392 0.00985176,-0.042691 -0.325108,-0.00656784 -0.0336602,-0.0197035 -0.00246294,-0.00246294 -0.0295553,-0.0270923 -0.0238084,-0.0328392 0.260251,-0.0344812 0.0262714,-0.00082098 0.041049,-0.00574686 0.042691,-0.0106727 0.0443329,-0.0155986 0,-0.112474 -0.0385861,-0.0155986 -0.043512,-0.0139567 -0.040228,-0.0082098 -0.0361231,-0.00328392 -0.270923,-0.00246294 0.0164196,-0.0377651 0.0221665,-0.0320182 0.0279133,-0.0279133 0.362873,-0.0131357 0,-0.0320182 0.169122,0 0,0.441687 -0.00082098,0.0164196 -0.00246294,0.0459749 -0.00738882,0.042691 -0.0106727,0.0377651 z "/>
<path fill="rgb(241,240,234)" stroke="rgb(241,240,234)" d="M 10.3122,1.73134 l -0.0377651,-0.00082098 -0.0459749,-0.00574686 -0.041049,-0.0106727 -0.0369441,-0.0147776 0.325108,0.00656784 -0.0336602,0.00985176 -0.042691,0.00903078 -0.042691,0.00492588 -0.0443329,0.00164196 z "/>
<path fill="rgb(241,240,234)" stroke="rgb(241,240,234)" d="M 10.061,1.61723 l -0.0164196,-0.0361231 -0.00985176,-0.04187 -0.00328392,-0.0467959 0,-0.0106727 0.0041049,-0.0459749 0.0106727,-0.04187 0.270923,0.00246294 -0.0155986,0.00082098 -0.042691,0.0082098 -0.0336602,0.0205245 -0.0238084,0.0279133 -0.00985176,0.0385861 0.00656784,0.0320182 0.0287343,0.0320182 0.00985176,0.00738882 0.0377651,0.0139567 0.0467959,0.00492588 -0.260251,0.0344812 z "/>
<path fill="rgb(241,240,234)" stroke="rgb(241,240,234)" d="M 10.1127,1.29622 l 0.0180616,-0.0139567 0.0353022,-0.0197035 0.0394071,-0.0139567 0.042691,-0.0082098 0.0467959,-0.00246294 0.0164196,0 0.043512,0.0041049 0.04187,0.00903078 0.040228,0.0131357 0.0385861,0.0188825 -0.362873,0.0131357 z "/>
<path fill="rgb(241,240,234)" stroke="rgb(241,240,234)" d="M 9.63492,1.99406 l -0.0254504,-0.00082098 -0.042691,-0.00738882 -0.0385861,-0.0147776 -0.0344812,-0.0213455 -0.0303763,-0.0287343 0.39325,-0.0238084 -0.0295553,0.0311972 -0.0279133,0.0213455 -0.0353022,0.0197035 -0.0394071,0.0139567 -0.042691,0.0082098 -0.0467959,0.00246294 z "/>
<path fill="rgb(241,240,234)" stroke="rgb(241,240,234)" d="M 9.46333,1.98092 l -0.178974,0 0,-0.729851 0.178974,0 0,0.438403 0.00082098,0.0188825 0.0123147,0.0394071 0.0246294,0.0361231 0.0139567,0.0139567 0.0353022,0.0205245 0.042691,0.00656784 0.285701,0.0377651 -0.0221665,0.0344812 -0.39325,0.0238084 0,0.0599316 z "/>
<path fill="rgb(241,240,234)" stroke="rgb(241,240,234)" d="M 9.87875,1.8627 l -0.285701,-0.0377651 0.0221665,-0.00164196 0.040228,-0.0114937 0.0336602,-0.0229874 0.0147776,-0.0180616 0.0172406,-0.0369441 0.00574686,-0.0443329 0,-0.438403 0.174869,0 0,0.508187 -0.00082098,0.0229874 -0.00738882,0.04187 -0.0147776,0.0385861 z "/>
<path fill="rgb(241,240,234)" stroke="rgb(241,240,234)" d="M 8.84677,1.99159 l -0.00903078,-0.00082098 -0.0607525,-0.0082098 -0.0558267,-0.0205245 -0.0500798,-0.0336602 -0.0451539,-0.0467959 -0.0221665,-0.0287343 -0.0303763,-0.0533637 -0.0213455,-0.0574686 -0.0123147,-0.0607525 -0.0041049,-0.0664994 0.00164196,-0.0451539 0.00985176,-0.0632155 0.0180616,-0.0582896 0.0270923,-0.0541847 0.261893,0.0041049 -0.0328392,0.00492588 -0.0533637,0.0328392 -0.0287343,0.0385861 -0.0221665,0.0607525 -0.00738882,0.0246294 0.445792,0 0,0.0525427 0,0.0197035 -0.00738882,0.0615735 -0.427731,0.00574686 0.00903078,0.0320182 0.0295553,0.0541847 0.04187,0.0328392 0.0533637,0.0106727 0.245473,0.00246294 -0.0311972,0.0476169 -0.0082098,0.00985176 -0.0451539,0.0443329 -0.0509008,0.0320182 -0.0558267,0.0197035 -0.0615735,0.00656784 z "/>
<path fill="rgb(241,240,234)" stroke="rgb(241,240,234)" d="M 9.09964,1.8315 l -0.245473,-0.00246294 0.0229874,-0.00082098 0.0525427,-0.0254504 0.0246294,-0.0344812 0.0254504,-0.0689623 -0.25943,0 0.427731,-0.00574686 -0.0172406,0.0632155 -0.0041049,0.0123147 -0.0270923,0.0623945 z "/>
<path fill="rgb(241,240,234)" stroke="rgb(241,240,234)" d="M 8.9691,1.45796 l -0.00738882,-0.0082098 -0.0525427,-0.0385861 -0.0550057,-0.0131357 -0.261893,-0.0041049 0.0344812,-0.0500798 0.0106727,-0.0123147 0.0467959,-0.042691 0.0517218,-0.0311972 0.0566476,-0.0180616 0.0615735,-0.00656784 0.0172406,0.00082098 0.0607525,0.00903078 0.0550057,0.0221665 0.0500798,0.0344812 0.0459749,0.0459749 0.00574686,0.00738882 -0.119863,0.105085 z "/>
<path fill="rgb(241,240,234)" stroke="rgb(241,240,234)" d="M 8.30493,2.26662 l -0.182258,-0.0656784 0,-0.224128 -0.119042,0 0,-0.16748 0.119042,0 0,-0.35138 0,-0.0041049 0.0041049,-0.0476169 0.258609,0.00656784 -0.0328392,0.00574686 -0.0262714,0.0197035 -0.0155986,0.0336602 -0.00574686,0.0484378 0,0.288985 0.150239,0 0,0.16748 -0.150239,0 0,0.289806 z "/>
<path fill="rgb(241,240,234)" stroke="rgb(241,240,234)" d="M 8.46666,1.45057 l -0.00574686,-0.00574686 -0.0385861,-0.0238084 -0.0369441,-0.0082098 -0.258609,-0.00656784 0.00903078,-0.042691 0.0147776,-0.0377651 0.0205245,-0.0328392 0.0172406,-0.0188825 0.0328392,-0.0221665 0.0385861,-0.0139567 0.0451539,-0.00492588 0.00903078,0 0.0394071,0.00574686 0.04187,0.0123147 0.042691,0.0197035 0.0287343,0.179795 z "/>
<path fill="rgb(241,240,234)" stroke="rgb(241,240,234)" d="M 7.6465,1.99406 l -0.0254504,-0.00082098 -0.042691,-0.00738882 -0.0385861,-0.0147776 -0.0344812,-0.0213455 -0.0303763,-0.0287343 0.39325,-0.0238084 -0.0295553,0.0311972 -0.0270923,0.0213455 -0.0361231,0.0197035 -0.0394071,0.0139567 -0.042691,0.0082098 -0.0467959,0.00246294 z "/>
<path fill="rgb(241,240,234)" stroke="rgb(241,240,234)" d="M 7.47492,1.98092 l -0.178974,0 0,-0.729851 0.178974,0 0,0.438403 0.00082098,0.0188825 0.0123147,0.0394071 0.0246294,0.0361231 0.0139567,0.0139567 0.0361231,0.0205245 0.04187,0.00656784 0.285701,0.0377651 -0.0221665,0.0344812 -0.39325,0.0238084 0,0.0599316 z "/>
<path fill="rgb(241,240,234)" stroke="rgb(241,240,234)" d="M 7.89033,1.8627 l -0.285701,-0.0377651 0.0221665,-0.00164196 0.041049,-0.0114937 0.0328392,-0.0229874 0.0147776,-0.0180616 0.0172406,-0.0369441 0.00574686,-0.0443329 0,-0.438403 0.174869,0 0,0.508187 -0.00082098,0.0229874 -0.00738882,0.04187 -0.0147776,0.0385861 z "/>
<path fill="rgb(241,240,234)" stroke="rgb(241,240,234)" d="M 6.85836,1.99159 l -0.00903078,-0.00082098 -0.0607525,-0.0082098 -0.0558267,-0.0205245 -0.0500798,-0.0336602 -0.0451539,-0.0467959 -0.0221665,-0.0287343 -0.0295553,-0.0533637 -0.0213455,-0.0574686 -0.0131357,-0.0607525 -0.0041049,-0.0664994 0.00164196,-0.0451539 0.00985176,-0.0632155 0.0180616,-0.0582896 0.0270923,-0.0541847 0.261893,0.0041049 -0.0328392,0.00492588 -0.0525427,0.0328392 -0.0287343,0.0385861 -0.0229874,0.0607525 -0.00656784,0.0246294 0.445792,0 0,0.0525427 -0.00082098,0.0197035 -0.00738882,0.0615735 -0.427731,0.00574686 0.00903078,0.0320182 0.0295553,0.0541847 0.04187,0.0328392 0.0533637,0.0106727 0.245473,0.00246294 -0.0311972,0.0476169 -0.00738882,0.00985176 -0.0459749,0.0443329 -0.0509008,0.0320182 -0.0558267,0.0197035 -0.0615735,0.00656784 z "/>
<path fill="rgb(241,240,234)" stroke="rgb(241,240,234)" d="M 7.11122,1.8315 l -0.245473,-0.00246294 0.0229874,-0.00082098 0.0533637,-0.0254504 0.0238084,-0.0344812 0.0254504,-0.0689623 -0.25943,0 0.427731,-0.00574686 -0.0172406,0.0632155 -0.0041049,0.0123147 -0.0270923,0.0623945 z "/>
<path fill="rgb(241,240,234)" stroke="rgb(241,240,234)" d="M 6.98069,1.45796 l -0.00738882,-0.0082098 -0.0525427,-0.0385861 -0.0550057,-0.0131357 -0.261893,-0.0041049 0.0344812,-0.0500798 0.0106727,-0.0123147 0.0467959,-0.042691 0.0517218,-0.0311972 0.0566476,-0.0180616 0.0615735,-0.00656784 0.0180616,0.00082098 0.0599316,0.00903078 0.0550057,0.0221665 0.0509008,0.0344812 0.0451539,0.0459749 0.00574686,0.00738882 -0.119863,0.105085 z "/>
<path fill="rgb(241,240,234)" stroke="rgb(241,240,234)" d="M 6.14082,1.99159 l -0.00985176,-0.00082098 -0.0607525,-0.0082098 -0.0550057,-0.0205245 -0.0509008,-0.0336602 -0.0451539,-0.0467959 -0.0221665,-0.0287343 -0.0295553,-0.0533637 -0.0213455,-0.0574686 -0.0131357,-0.0607525 -0.0041049,-0.0664994 0.00164196,-0.0451539 0.00985176,-0.0632155 0.0188825,-0.0582896 0.0262714,-0.0541847 0.262714,0.0041049 -0.0336602,0.00492588 -0.0525427,0.0328392 -0.0287343,0.0385861 -0.0221665,0.0607525 -0.00738882,0.0246294 0.445792,0 0,0.0525427 -0.00082098,0.0197035 -0.00738882,0.0615735 -0.427731,0.00574686 0.00903078,0.0320182 0.0295553,0.0541847 0.04187,0.0328392 0.0541847,0.0106727 0.244652,0.00246294 -0.0311972,0.0476169 -0.00738882,0.00985176 -0.0451539,0.0443329 -0.0509008,0.0320182 -0.0566476,0.0197035 -0.0607525,0.00656784 z "/>
<path fill="rgb(241,240,234)" stroke="rgb(241,240,234)" d="M 6.39287,1.8315 l -0.244652,-0.00246294 0.0221665,-0.00082098 0.0533637,-0.0254504 0.0238084,-0.0344812 0.0254504,-0.0689623 -0.25943,0 0.427731,-0.00574686 -0.0164196,0.0632155 -0.00492588,0.0123147 -0.0270923,0.0623945 z "/>
<path fill="rgb(241,240,234)" stroke="rgb(241,240,234)" d="M 6.26315,1.45796 l -0.0082098,-0.0082098 -0.0525427,-0.0385861 -0.0541847,-0.0131357 -0.262714,-0.0041049 0.0353022,-0.0500798 0.0106727,-0.0123147 0.0467959,-0.042691 0.0517218,-0.0311972 0.0566476,-0.0180616 0.0615735,-0.00656784 0.0172406,0.00082098 0.0599316,0.00903078 0.0558267,0.0221665 0.0500798,0.0344812 0.0451539,0.0459749 0.00574686,0.00738882 -0.119042,0.105085 z "/>
<path fill="rgb(241,240,234)" stroke="rgb(241,240,234)" d="M 5.0128,1.99816 l -0.0303763,-0.00164196 -0.040228,-0.0082098 -0.0385861,-0.0155986 -0.0361231,-0.0221665 -0.0336602,-0.0295553 0.366157,-0.00656784 -0.0320182,0.0303763 -0.0344812,0.0229874 -0.0369441,0.0172406 -0.040228,0.00985176 -0.043512,0.00328392 z "/>
<path fill="rgb(241,240,234)" stroke="rgb(241,240,234)" d="M 5.42411,1.99816 l -0.0262714,-0.00082098 -0.0385861,-0.00656784 -0.0394071,-0.0114937 -0.0394071,-0.0172406 -0.0385861,-0.0229874 -0.0394071,-0.0279133 0.440045,-0.0147776 -0.0295553,0.0320182 -0.0270923,0.0229874 -0.0353022,0.0205245 -0.0385861,0.0147776 -0.042691,0.00903078 -0.0451539,0.00246294 z "/>
<path fill="rgb(241,240,234)" stroke="rgb(241,240,234)" d="M 4.83382,1.98092 l -0.178974,0 0,-0.729851 0.178974,0 0,0.438403 0.00082098,0.0172406 0.0106727,0.041049 0.0221665,0.0353022 0.0082098,0.0082098 0.0344812,0.0205245 0.043512,0.00738882 0.725747,0.00328392 -0.0147776,0.0385861 -0.0221665,0.0353022 -0.440045,0.0147776 -0.00246294,0.00328392 -0.366157,0.00656784 0,0.0599316 z "/>
<path fill="rgb(241,240,234)" stroke="rgb(241,240,234)" d="M 5.67943,1.82247 l -0.725747,-0.00328392 0.431015,0 0.0188825,-0.00082098 0.041049,-0.0114937 0.0320182,-0.0238084 0.0114937,-0.0155986 0.0164196,-0.0377651 0.00492588,-0.0443329 0,-0.434299 0.179795,0 0,0.500798 -0.00164196,0.0295553 -0.0082098,0.041049 z "/>
<path fill="rgb(241,240,234)" stroke="rgb(241,240,234)" d="M 4.95369,1.81919 l 0.0188825,-0.00164196 0.040228,-0.0114937 0.0353022,-0.0246294 0.0139567,-0.0155986 0.0180616,-0.0369441 0.00574686,-0.043512 0,-0.434299 0.171585,0 0,0.441687 0.00082098,0.0139567 0.0123147,0.0394071 0.0254504,0.0353022 0.0106727,0.00985176 0.0369441,0.0213455 0.041049,0.00656784 -0.431015,0 z "/>
<path fill="rgb(241,240,234)" stroke="rgb(241,240,234)" d="M 4.21809,1.99159 l -0.00985176,-0.00082098 -0.0607525,-0.0082098 -0.0550057,-0.0205245 -0.0509008,-0.0336602 -0.0451539,-0.0467959 -0.0221665,-0.0287343 -0.0295553,-0.0533637 -0.0213455,-0.0574686 -0.0131357,-0.0607525 -0.0041049,-0.0664994 0.00164196,-0.0451539 0.00985176,-0.0632155 0.0180616,-0.0582896 0.0270923,-0.0541847 0.261893,0.0041049 -0.0328392,0.00492588 -0.0525427,0.0328392 -0.0287343,0.0385861 -0.0221665,0.0607525 -0.00738882,0.0246294 0.445792,0 0,0.0525427 -0.00082098,0.0197035 -0.00738882,0.0615735 -0.427731,0.00574686 0.00903078,0.0320182 0.0295553,0.0541847 0.04187,0.0328392 0.0533637,0.0106727 0.245473,0.00246294 -0.0311972,0.0476169 -0.00738882,0.00985176 -0.0459749,0.0443329 -0.0500798,0.0320182 -0.0566476,0.0197035 -0.0607525,0.00656784 z "/>
<path fill="rgb(241,240,234)" stroke="rgb(241,240,234)" d="M 4.47013,1.8315 l -0.245473,-0.00246294 0.0229874,-0.00082098 0.0533637,-0.0254504 0.0238084,-0.0344812 0.0254504,-0.0689623 -0.25943,0 0.427731,-0.00574686 -0.0164196,0.0632155 -0.00492588,0.0123147 -0.0270923,0.0623945 z "/>
<path fill="rgb(241,240,234)" stroke="rgb(241,240,234)" d="M 4.34041,1.45796 l -0.0082098,-0.0082098 -0.0525427,-0.0385861 -0.0550057,-0.0131357 -0.261893,-0.0041049 0.0353022,-0.0500798 0.00985176,-0.0123147 0.0476169,-0.042691 0.0517218,-0.0311972 0.0566476,-0.0180616 0.0607525,-0.00656784 0.0180616,0.00082098 0.0599316,0.00903078 0.0550057,0.0221665 0.0509008,0.0344812 0.0451539,0.0459749 0.00574686,0.00738882 -0.119042,0.105085 z "/>
<path fill="rgb(241,240,234)" stroke="rgb(241,240,234)" d="M 3.35278,2.26662 l -0.0377651,-0.00164196 -0.0623945,-0.00985176 -0.0566476,-0.0188825 -0.0525427,-0.0279133 -0.0476169,-0.0369441 -0.043512,-0.0459749 -0.0114937,-0.0155986 0.311972,-0.0213455 0.00574686,0 0.0574686,-0.00903078 0.0500798,-0.0254504 0.04187,-0.04187 0.0336602,-0.0574686 0.182258,0.0640365 -0.0270923,0.0525427 -0.0353022,0.0517218 -0.0394071,0.043512 -0.0451539,0.0361231 -0.0492588,0.0279133 -0.0533637,0.0205245 -0.0582896,0.0114937 -0.0632155,0.0041049 z "/>
<path fill="rgb(241,240,234)" stroke="rgb(241,240,234)" d="M 3.0408,2.10982 l -0.0311972,-0.0476169 -0.0246294,-0.0533637 -0.0197035,-0.0566476 -0.0139567,-0.0623945 -0.0082098,-0.0664994 -0.00246294,-0.0714253 0.00246294,-0.0681414 0.00738882,-0.0673204 0.0131357,-0.0615735 0.0188825,-0.0582896 0.0229874,-0.0525427 0.0295553,-0.0492588 0.317719,0.0180616 -0.0492588,0.0041049 -0.0558267,0.0197035 -0.0459749,0.0344812 -0.0353022,0.0509008 -0.0180616,0.0377651 -0.0164196,0.0558267 -0.0106727,0.0648574 -0.00328392,0.0714253 0,0.0041049 0.0041049,0.0697833 0.0131357,0.0632155 0.0197035,0.0558267 0.0287343,0.0492588 0.0123147,0.0164196 0.0451539,0.043512 0.0517218,0.0262714 0.0599316,0.0082098 -0.311972,0.0213455 z "/>
<path fill="rgb(241,240,234)" stroke="rgb(241,240,234)" d="M 3.75013,1.7494 l -0.35138,0 0,-0.179795 0.165017,0 -0.00492588,-0.0147776 -0.0279133,-0.0541847 -0.0459749,-0.0443329 -0.0139567,-0.00985176 -0.0558267,-0.0254504 -0.0623945,-0.0082098 -0.317719,-0.0180616 0.00246294,-0.00328392 0.0394071,-0.0484378 0.0451539,-0.0394071 0.0500798,-0.0311972 0.0550057,-0.0213455 0.0599316,-0.0131357 0.0656784,-0.00492588 0.0632155,0.00492588 0.0599316,0.0131357 0.0566476,0.0221665 0.0525427,0.0320182 0.0484378,0.040228 0.040228,0.0443329 0.0336602,0.0509008 0.0238084,0.0558267 0.0139567,0.0591106 0.00492588,0.0640365 0,0.129715 z "/>
<path fill="rgb(241,240,234)" stroke="rgb(241,240,234)" d="M 13.0797,4.69672 l -0.0541847,-0.00328392 -0.0730672,-0.0155986 -0.0689623,-0.0270923 -0.0648574,-0.040228 -0.0607525,-0.0533637 0.658426,-0.0123147 -0.0566476,0.0550057 -0.0623945,0.04187 -0.0673204,0.0303763 -0.0722463,0.0180616 -0.0779931,0.00656784 z "/>
<path fill="rgb(241,240,234)" stroke="rgb(241,240,234)" d="M 13.8195,4.69672 l -0.0467959,-0.00246294 -0.0697833,-0.0114937 -0.0706043,-0.0213455 -0.0706043,-0.0303763 -0.0706043,-0.041049 -0.0697833,-0.0509008 0.791425,-0.0262714 -0.0525427,0.0574686 -0.0492588,0.041049 -0.0632155,0.0369441 -0.0697833,0.0270923 -0.0763512,0.0155986 -0.082098,0.00574686 z "/>
<path fill="rgb(241,240,234)" stroke="rgb(241,240,234)" d="M 12.7579,4.66471 l -0.322645,0 0,-1.31439 0.322645,0 0,0.789783 0.00082098,0.0311972 0.0188825,0.0738882 0.040228,0.0632155 0.0147776,0.0147776 0.0623945,0.0377651 0.0779931,0.0131357 1.30618,0.00574686 -0.0270923,0.0689623 -0.0394071,0.0640365 -0.791425,0.0262714 -0.00492588,0.00574686 -0.658426,0.0123147 0,0.107548 z "/>
<path fill="rgb(241,240,234)" stroke="rgb(241,240,234)" d="M 14.2792,4.37983 l -1.30618,-0.00574686 0.775826,0 0.0344812,-0.00246294 0.0738882,-0.0205245 0.0566476,-0.042691 0.0205245,-0.0279133 0.0303763,-0.0673204 0.00985176,-0.0804561 0,-0.782394 0.321824,0 0,0.903078 -0.00246294,0.0517218 -0.0147776,0.0747092 z "/>
<path fill="rgb(241,240,234)" stroke="rgb(241,240,234)" d="M 12.973,4.37408 l 0.0344812,-0.00246294 0.0714253,-0.0213455 0.0640365,-0.0443329 0.0246294,-0.0287343 0.0328392,-0.0656784 0.0106727,-0.0788141 0,-0.782394 0.30951,0 0,0.79553 0.00164196,0.0254504 0.0205245,0.0714253 0.0459749,0.0632155 0.0197035,0.0180616 0.0656784,0.0369441 0.0747092,0.0131357 -0.775826,0 z "/>
<path fill="rgb(241,240,234)" stroke="rgb(241,240,234)" d="M 11.6118,4.69672 l -0.0336602,-0.00082098 -0.0730672,-0.00656784 -0.0730672,-0.0123147 -0.0747092,-0.0188825 -0.0738882,-0.0254504 -0.0755302,-0.0320182 -0.0755302,-0.0377651 0.132999,-0.278312 0.0336602,0.0205245 0.0714253,0.0344812 0.0722463,0.0246294 0.0747092,0.0147776 0.0763512,0.00574686 0.504082,0.0188825 -0.0262714,0.0615735 -0.0336602,0.0541847 -0.040228,0.0467959 -0.0467959,0.040228 -0.0541847,0.0320182 -0.0607525,0.0254504 -0.0681414,0.0180616 -0.0747092,0.0106727 -0.081277,0.0041049 z "/>
<path fill="rgb(241,240,234)" stroke="rgb(241,240,234)" d="M 12.0979,4.40363 l -0.504082,-0.0188825 0.00164196,0 0.0779931,-0.00903078 0.0623945,-0.0262714 0.0467959,-0.042691 0.0328392,-0.0607525 0.0164196,-0.0771721 -0.585359,-0.0114937 -0.0591106,-0.0353022 -0.00492588,-0.0041049 -0.0541847,-0.0492588 -0.04187,-0.0574686 0.467959,-0.0623945 0.0467959,-0.00164196 0.0738882,-0.0106727 0.0771721,-0.0197035 0.0796351,-0.0287343 0,-0.201961 -0.0689623,-0.0270923 -0.0788141,-0.0254504 -0.0722463,-0.0155986 -0.0656784,-0.00492588 -0.486841,-0.00492588 0.0287343,-0.0673204 0.040228,-0.0582896 0.0509008,-0.0509008 0.652679,-0.0229874 0,-0.0582896 0.304584,0 0,0.79553 -0.00082098,0.0303763 -0.00574686,0.082919 -0.0123147,0.0755302 -0.0197035,0.0689623 z "/>
<path fill="rgb(241,240,234)" stroke="rgb(241,240,234)" d="M 11.5388,4.21645 l -0.0689623,-0.00246294 -0.082098,-0.0106727 -0.0738882,-0.0188825 -0.0673204,-0.0270923 0.585359,0.0114937 -0.0607525,0.0180616 -0.0763512,0.0164196 -0.0771721,0.00985176 -0.0788141,0.00328392 z "/>
<path fill="rgb(241,240,234)" stroke="rgb(241,240,234)" d="M 11.0864,4.01121 l -0.0303763,-0.0664994 -0.0172406,-0.0747092 -0.00656784,-0.08374 0.00082098,-0.0197035 0.00738882,-0.082919 0.0188825,-0.0755302 0.486841,0.00492588 -0.0262714,0.00082098 -0.0779931,0.0155986 -0.0607525,0.0361231 -0.042691,0.0509008 -0.0172406,0.0697833 0.0123147,0.0566476 0.0500798,0.0582896 0.0188825,0.0131357 0.0673204,0.0254504 0.084561,0.00903078 -0.467959,0.0623945 z "/>
<path fill="rgb(241,240,234)" stroke="rgb(241,240,234)" d="M 11.1792,3.43159 l 0.0328392,-0.0238084 0.0632155,-0.0353022 0.0706043,-0.0254504 0.0771721,-0.0147776 0.08374,-0.00492588 0.0295553,0 0.0788141,0.00738882 0.0755302,0.0164196 0.0722463,0.0238084 0.0689623,0.0336602 -0.652679,0.0229874 z "/>
<path fill="rgb(241,240,234)" stroke="rgb(241,240,234)" d="M 10.2827,4.69672 l -0.0344812,-0.00082098 -0.0722463,-0.00656784 -0.0738882,-0.0123147 -0.0738882,-0.0188825 -0.0747092,-0.0254504 -0.0747092,-0.0320182 -0.0763512,-0.0377651 0.13382,-0.278312 0.0336602,0.0205245 0.0706043,0.0344812 0.0730672,0.0246294 0.0747092,0.0147776 0.0755302,0.00574686 0.504903,0.0188825 -0.0270923,0.0615735 -0.0328392,0.0541847 -0.040228,0.0467959 -0.0476169,0.040228 -0.0533637,0.0320182 -0.0607525,0.0254504 -0.0681414,0.0180616 -0.0747092,0.0106727 -0.081277,0.0041049 z "/>
<path fill="rgb(241,240,234)" stroke="rgb(241,240,234)" d="M 10.7687,4.40363 l -0.504903,-0.0188825 0.00246294,0 0.0771721,-0.00903078 0.0632155,-0.0262714 0.0467959,-0.042691 0.0320182,-0.0607525 0.0172406,-0.0771721 -0.585359,-0.0114937 -0.0599316,-0.0353022 -0.00492588,-0.0041049 -0.0533637,-0.0492588 -0.04187,-0.0574686 0.467959,-0.0623945 0.0467959,-0.00164196 0.0738882,-0.0106727 0.0771721,-0.0197035 0.0796351,-0.0287343 0,-0.201961 -0.0689623,-0.0270923 -0.0788141,-0.0254504 -0.0722463,-0.0155986 -0.0656784,-0.00492588 -0.487662,-0.00492588 0.0295553,-0.0673204 0.040228,-0.0582896 0.0509008,-0.0509008 0.652679,-0.0229874 0,-0.0582896 0.304584,0 0,0.79553 -0.00082098,0.0303763 -0.00574686,0.082919 -0.0123147,0.0755302 -0.0197035,0.0689623 z "/>
<path fill="rgb(241,240,234)" stroke="rgb(241,240,234)" d="M 10.2088,4.21645 l -0.0681414,-0.00246294 -0.082098,-0.0106727 -0.0738882,-0.0188825 -0.0673204,-0.0270923 0.585359,0.0114937 -0.0607525,0.0180616 -0.0763512,0.0164196 -0.0771721,0.00985176 -0.0796351,0.00328392 z "/>
<path fill="rgb(241,240,234)" stroke="rgb(241,240,234)" d="M 9.75724,4.01121 l -0.0303763,-0.0664994 -0.0180616,-0.0747092 -0.00574686,-0.08374 0,-0.0197035 0.0082098,-0.082919 0.0180616,-0.0755302 0.487662,0.00492588 -0.0270923,0.00082098 -0.0771721,0.0155986 -0.0607525,0.0361231 -0.042691,0.0509008 -0.0180616,0.0697833 0.0131357,0.0566476 0.0500798,0.0582896 0.0188825,0.0131357 0.0673204,0.0254504 0.084561,0.00903078 -0.467959,0.0623945 z "/>
<path fill="rgb(241,240,234)" stroke="rgb(241,240,234)" d="M 9.85001,3.43159 l 0.0320182,-0.0238084 0.0640365,-0.0353022 0.0706043,-0.0254504 0.0771721,-0.0147776 0.08374,-0.00492588 0.0287343,0 0.0796351,0.00738882 0.0755302,0.0164196 0.0722463,0.0238084 0.0689623,0.0336602 -0.652679,0.0229874 z "/>
<path fill="rgb(241,240,234)" stroke="rgb(241,240,234)" d="M 8.98963,4.68851 l -0.0459749,-0.00164196 -0.0771721,-0.0131357 -0.0697833,-0.0262714 -0.0615735,-0.0385861 -0.0550057,-0.0517218 0.708506,-0.042691 -0.0525427,0.0558267 -0.0500798,0.0385861 -0.0640365,0.0353022 -0.0706043,0.0246294 -0.0771721,0.0147776 -0.084561,0.00492588 z "/>
<path fill="rgb(241,240,234)" stroke="rgb(241,240,234)" d="M 8.68012,4.66471 l -0.321824,0 0,-1.31439 0.321824,0 0,0.789783 0.00246294,0.0336602 0.0213455,0.0714253 0.0443329,0.0656784 0.0254504,0.0246294 0.0640365,0.0369441 0.0763512,0.0123147 0.513934,0.0673204 -0.0394071,0.0623945 -0.708506,0.042691 0,0.107548 z "/>
<path fill="rgb(241,240,234)" stroke="rgb(241,240,234)" d="M 9.42803,4.45207 l -0.513934,-0.0673204 0.040228,-0.00328392 0.0730672,-0.0205245 0.0591106,-0.04187 0.0270923,-0.0320182 0.0311972,-0.0673204 0.0106727,-0.0796351 0,-0.789783 0.314435,0 0,0.916214 -0.00164196,0.040228 -0.0131357,0.0763512 -0.0270923,0.0689623 z "/>
<path fill="rgb(241,240,234)" stroke="rgb(241,240,234)" d="M 7.58411,4.68851 l -0.00164196,0 -0.0886659,-0.0041049 -0.081277,-0.0114937 -0.0738882,-0.0197035 -0.0656784,-0.0270923 -0.0582896,-0.0344812 -0.00985176,-0.00738882 -0.0566476,-0.0533637 -0.040228,-0.0607525 -0.0238084,-0.0689623 0.508187,-0.0221665 0.0164196,0 0.0755302,-0.00574686 0.0747092,-0.0131357 0.0738882,-0.0221665 0.0730672,-0.0287343 0.0722463,-0.0377651 0.1174,0.285701 -0.0615735,0.0311972 -0.0738882,0.0303763 -0.0738882,0.0254504 -0.0747092,0.0197035 -0.0747092,0.0139567 -0.0763512,0.0082098 -0.0763512,0.00246294 z "/>
<path fill="rgb(241,240,234)" stroke="rgb(241,240,234)" d="M 7.08413,4.40117 l -0.0082098,-0.0771721 0.00164196,-0.0353022 0.0131357,-0.0738882 0.0287343,-0.0673204 0.042691,-0.0607525 0.0582896,-0.0541847 0.0123147,-0.00903078 0.0500798,-0.0311972 0.0615735,-0.0303763 0.0738882,-0.0295553 0.084561,-0.0287343 0.0976966,-0.0279133 0.10016,-0.0295553 0.041049,-0.0131357 0.0615735,-0.04187 0.0221665,-0.0623945 -0.0106727,-0.0353022 -0.04187,-0.0320182 -0.0747092,-0.0188825 -0.105906,-0.00574686 0.541026,-0.00246294 0.00738882,0.081277 -0.00082098,0.0197035 -0.0082098,0.0640365 -0.0172406,0.0582896 -0.0270923,0.0550057 -0.0369441,0.0492588 -0.0467959,0.0451539 -0.0566476,0.041049 -0.0664994,0.0353022 -0.0755302,0.0311972 -0.0853819,0.0270923 -0.0960547,0.0221665 -0.0467959,0.0106727 -0.08374,0.0213455 -0.0525427,0.0205245 -0.0147776,0.00903078 -0.0295553,0.0640365 0.00164196,0.0172406 0.0295553,0.040228 0.0648574,0.0238084 0.10016,0.0082098 -0.508187,0.0221665 z "/>
<path fill="rgb(241,240,234)" stroke="rgb(241,240,234)" d="M 7.16212,3.72879 l -0.1174,-0.284059 0.0270923,-0.0131357 0.0673204,-0.0279133 0.0697833,-0.0229874 0.0738882,-0.0197035 0.0755302,-0.0147776 0.0796351,-0.0106727 0.082098,-0.00656784 0.0853819,-0.00164196 0.0344812,0 0.0878449,0.00656784 0.0804561,0.0131357 0.0722463,0.0205245 0.0640365,0.0270923 0.0566476,0.0344812 0.0229874,0.0180616 0.0509008,0.0533637 0.0361231,0.0623945 0.0221665,0.0714253 -0.541026,0.00246294 -0.0164196,0 -0.0689623,0.00574686 -0.0779931,0.0139567 -0.0886659,0.0221665 -0.0295553,0.00738882 -0.0788141,0.0221665 -0.0697833,0.0205245 z "/>
<path fill="rgb(241,240,234)" stroke="rgb(241,240,234)" d="M 6.66707,5.17946 l -0.328392,-0.118221 0,-0.403922 -0.214276,0 0,-0.302121 0.214276,0 0,-0.632155 0.00082098,-0.00656784 0.00574686,-0.0862029 0.465496,0.0114937 -0.0582896,0.0106727 -0.0476169,0.0353022 -0.0287343,0.0615735 -0.00903078,0.0870239 0,0.51886 0.270103,0 0,0.302121 -0.270103,0 0,0.522143 z "/>
<path fill="rgb(241,240,234)" stroke="rgb(241,240,234)" d="M 6.9577,3.70991 l -0.0106727,-0.00903078 -0.0689623,-0.0443329 -0.0673204,-0.0147776 -0.465496,-0.0114937 0.0164196,-0.0771721 0.0270923,-0.0681414 0.0369441,-0.0582896 0.0303763,-0.0336602 0.0591106,-0.041049 0.0697833,-0.0246294 0.082098,-0.0082098 0.0155986,0 0.0714253,0.00985176 0.0747092,0.0229874 0.0763512,0.0353022 0.0525427,0.322645 z "/>
<path fill="rgb(241,240,234)" stroke="rgb(241,240,234)" d="M 5.44463,4.69672 l -0.0336602,-0.00082098 -0.0730672,-0.00656784 -0.0730672,-0.0123147 -0.0738882,-0.0188825 -0.0747092,-0.0254504 -0.0755302,-0.0320182 -0.0755302,-0.0377651 0.13382,-0.278312 0.0336602,0.0205245 0.0706043,0.0344812 0.0722463,0.0246294 0.0747092,0.0147776 0.0763512,0.00574686 0.504082,0.0188825 -0.0262714,0.0615735 -0.0336602,0.0541847 -0.040228,0.0467959 -0.0467959,0.040228 -0.0541847,0.0320182 -0.0607525,0.0254504 -0.0673204,0.0180616 -0.0747092,0.0106727 -0.082098,0.0041049 z "/>
<path fill="rgb(241,240,234)" stroke="rgb(241,240,234)" d="M 5.93065,4.40363 l -0.504082,-0.0188825 0.00164196,0 0.0779931,-0.00903078 0.0623945,-0.0262714 0.0476169,-0.042691 0.0320182,-0.0607525 0.0172406,-0.0771721 -0.585359,-0.0114937 -0.0599316,-0.0353022 -0.00492588,-0.0041049 -0.0541847,-0.0492588 -0.04187,-0.0574686 0.467959,-0.0623945 0.0476169,-0.00164196 0.0738882,-0.0106727 0.0763512,-0.0197035 0.0804561,-0.0287343 0,-0.201961 -0.0689623,-0.0270923 -0.0796351,-0.0254504 -0.0722463,-0.0155986 -0.0648574,-0.00492588 -0.487662,-0.00492588 0.0295553,-0.0673204 0.0394071,-0.0582896 0.0509008,-0.0509008 0.6535,-0.0229874 0,-0.0582896 0.303763,0 0,0.79553 0,0.0303763 -0.00574686,0.082919 -0.0131357,0.0755302 -0.0197035,0.0689623 z "/>
<path fill="rgb(241,240,234)" stroke="rgb(241,240,234)" d="M 5.37157,4.21645 l -0.0689623,-0.00246294 -0.081277,-0.0106727 -0.0747092,-0.0188825 -0.0664994,-0.0270923 0.585359,0.0114937 -0.0615735,0.0180616 -0.0755302,0.0164196 -0.0779931,0.00985176 -0.0788141,0.00328392 z "/>
<path fill="rgb(241,240,234)" stroke="rgb(241,240,234)" d="M 4.91921,4.01121 l -0.0295553,-0.0664994 -0.0180616,-0.0747092 -0.00574686,-0.08374 0,-0.0197035 0.00738882,-0.082919 0.0188825,-0.0755302 0.487662,0.00492588 -0.0270923,0.00082098 -0.0779931,0.0155986 -0.0607525,0.0361231 -0.04187,0.0509008 -0.0180616,0.0697833 0.0123147,0.0566476 0.0509008,0.0582896 0.0180616,0.0131357 0.0681414,0.0254504 0.08374,0.00903078 -0.467959,0.0623945 z "/>
<path fill="rgb(241,240,234)" stroke="rgb(241,240,234)" d="M 5.01198,3.43159 l 0.0328392,-0.0238084 0.0632155,-0.0353022 0.0706043,-0.0254504 0.0771721,-0.0147776 0.084561,-0.00492588 0.0287343,0 0.0788141,0.00738882 0.0755302,0.0164196 0.0730672,0.0238084 0.0689623,0.0336602 -0.6535,0.0229874 z "/>
<path fill="rgb(241,240,234)" stroke="rgb(241,240,234)" d="M 4.11547,4.69672 l -0.0336602,-0.00082098 -0.0730672,-0.00656784 -0.0730672,-0.0123147 -0.0738882,-0.0188825 -0.0747092,-0.0254504 -0.0755302,-0.0320182 -0.0755302,-0.0377651 0.13382,-0.278312 0.0328392,0.0205245 0.0714253,0.0344812 0.0722463,0.0246294 0.0747092,0.0147776 0.0763512,0.00574686 0.504082,0.0188825 -0.0262714,0.0615735 -0.0336602,0.0541847 -0.040228,0.0467959 -0.0467959,0.040228 -0.0541847,0.0320182 -0.0607525,0.0254504 -0.0681414,0.0180616 -0.0738882,0.0106727 -0.082098,0.0041049 z "/>
<path fill="rgb(241,240,234)" stroke="rgb(241,240,234)" d="M 4.60149,4.40363 l -0.504082,-0.0188825 0.00164196,0 0.0779931,-0.00903078 0.0623945,-0.0262714 0.0476169,-0.042691 0.0320182,-0.0607525 0.0164196,-0.0771721 -0.585359,-0.0114937 -0.0591106,-0.0353022 -0.00492588,-0.0041049 -0.0541847,-0.0492588 -0.04187,-0.0574686 0.467959,-0.0623945 0.0467959,-0.00164196 0.0738882,-0.0106727 0.0771721,-0.0197035 0.0796351,-0.0287343 0,-0.201961 -0.0681414,-0.0270923 -0.0796351,-0.0254504 -0.0722463,-0.0155986 -0.0656784,-0.00492588 -0.486841,-0.00492588 0.0287343,-0.0673204 0.040228,-0.0582896 0.0509008,-0.0509008 0.652679,-0.0229874 0,-0.0582896 0.304584,0 0,0.79553 -0.00082098,0.0303763 -0.00574686,0.082919 -0.0123147,0.0755302 -0.0197035,0.0689623 z "/>
<path fill="rgb(241,240,234)" stroke="rgb(241,240,234)" d="M 4.0424,4.21645 l -0.0689623,-0.00246294 -0.081277,-0.0106727 -0.0747092,-0.0188825 -0.0673204,-0.0270923 0.585359,0.0114937 -0.0607525,0.0180616 -0.0763512,0.0164196 -0.0771721,0.00985176 -0.0788141,0.00328392 z "/>
<path fill="rgb(241,240,234)" stroke="rgb(241,240,234)" d="M 3.59004,4.01121 l -0.0295553,-0.0664994 -0.0180616,-0.0747092 -0.00656784,-0.08374 0.00082098,-0.0197035 0.00738882,-0.082919 0.0188825,-0.0755302 0.486841,0.00492588 -0.0262714,0.00082098 -0.0779931,0.0155986 -0.0607525,0.0361231 -0.04187,0.0509008 -0.0180616,0.0697833 0.0123147,0.0566476 0.0500798,0.0582896 0.0188825,0.0131357 0.0681414,0.0254504 0.08374,0.00903078 -0.467959,0.0623945 z "/>
<path fill="rgb(241,240,234)" stroke="rgb(241,240,234)" d="M 3.68281,3.43159 l 0.0328392,-0.0238084 0.0632155,-0.0353022 0.0706043,-0.0254504 0.0771721,-0.0147776 0.08374,-0.00492588 0.0295553,0 0.0788141,0.00738882 0.0755302,0.0164196 0.0722463,0.0238084 0.0689623,0.0336602 -0.652679,0.0229874 z "/>
<path fill="rgb(241,240,234)" stroke="rgb(241,240,234)" d="M 3.28956,3.35032 l -0.322645,0 0,1.69779 0.322645,0.131357 0,-1.82914 z "/>
<path fill="rgb(241,240,234)" stroke="rgb(241,240,234)" d="M 2.13608,5.15073 l -0.839042,0 0,-1.80041 0.327571,0 0,0.706043 0.511471,0 0.0262714,0 0.0853819,0.00656784 0.0779931,0.0139567 0.0706043,0.0213455 0.0623945,0.0287343 0.0459749,0.0295553 0.0599316,0.0492588 0.0517218,0.0566476 0.0443329,0.0640365 0.0254504,0.0492588 -1.06153,0.00328392 0,0.449076 0.524606,0 0.521322,0.041049 -0.0394071,0.0599316 -0.0492588,0.0533637 -0.0582896,0.0484378 -0.0673204,0.043512 -0.0180616,0.00985176 -0.0681414,0.0287343 -0.0722463,0.0205245 -0.0788141,0.0131357 -0.082919,0.0041049 z "/>
<path fill="rgb(241,240,234)" stroke="rgb(241,240,234)" d="M 2.67054,4.86913 l -0.521322,-0.041049 0.0582896,-0.0041049 0.0738882,-0.0197035 0.0591106,-0.0369441 0.0254504,-0.0262714 0.0361231,-0.0648574 0.0123147,-0.0763512 -0.00246294,-0.0336602 -0.0229874,-0.0714253 -0.0484378,-0.0550057 -0.0394071,-0.0262714 -0.0706043,-0.0254504 -0.081277,-0.00903078 -0.524606,0 1.06153,-0.00328392 0.0279133,0.0730672 0.0172406,0.0747092 0.00492588,0.0763512 -0.00246294,0.0599316 -0.0114937,0.0755302 -0.0213455,0.0697833 -0.0303763,0.0640365 z "/>
<path fill="rgb(187,30,16)" stroke="rgb(187,30,16)" d="M 15.0986,5.82906 l -0.00363737,0.0257441 -0.00585275,0.0253325 -0.00802417,0.0247306 -0.0101353,0.0239429 -0.0121703,0.0229755 -0.014114,0.0218354 -0.0159516,0.0205314 -0.0176694,0.0190731 -0.0192544,0.0174716 -0.0206949,0.0157388 -0.0219799,0.0138879 -0.0230998,0.0119326 -0.0240463,0.00988768 -0.0248121,0.00776851 -0.0253915,0.00559099 -0.0257803,0.00337148 -0.0259754,0.00112665 -0.946225,8.88178e-16 -6.10377,-2.46334 8.88178e-16,-0.773319 7.34859,2.96572 z "/>
<path fill="rgb(187,30,16)" stroke="rgb(187,30,16)" d="M 1.64623,0.4 l 6.10377,2.46334 -8.88178e-16,0.773319 -7.34859,-2.96572 0.00363737,-0.0257441 0.00585275,-0.0253325 0.00802417,-0.0247306 0.0101353,-0.0239429 0.0121703,-0.0229755 0.014114,-0.0218354 0.0159516,-0.0205314 0.0176694,-0.0190731 0.0192544,-0.0174716 0.0206949,-0.0157388 0.0219799,-0.0138879 0.0230998,-0.0119326 0.0240463,-0.00988768 0.0248121,-0.00776851 0.0253915,-0.00559099 0.0257803,-0.00337148 0.0259754,-0.00112665 0.946225,4.44089e-16 z "/>
</g></g></svg>
