<?xml version="1.0" encoding="UTF-8" standalone="no"?>
<!DOCTYPE svg PUBLIC "-//W3C//DTD SVG 1.1//EN" "http://www.w3.org/Graphics/SVG/1.1/DTD/svg11-flat.dtd"
[

]>
<svg xmlns="http://www.w3.org/2000/svg"  viewBox="-0.05625 -0.05625 4.6125 7.6125"><g fill="none" stroke="black" stroke-width="0.0125" transform="translate(0,7.5) scale(1, -1)">
<g id="Output" >
<path fill="rgb(241,240,234)" stroke="rgb(241,240,234)" d="M 0.823037,0.7424 l 2.8436,0 0,0.282633 -1.41395,0 0,-0.180571 -1.42966,0 0,-0.102062 z "/>
<path fill="rgb(241,240,234)" stroke="rgb(241,240,234)" d="M 3.22249,2.0644 l -0.118523,0.112082 -0.268365,0.481073 -0.25169,0.010855 -0.251882,-0.00461108 -0.251124,-0.0200598 0.0158317,-0.137894 0.216616,0.0165589 0.217238,0.00217896 0.216905,-0.0122106 0.136003,-0.250784 -0.748848,-0.0859757 0.0493319,-0.42968 0.269808,0.0309769 0.00864472,-0.0752954 0.610506,0.0700926 -0.02337,0.203552 0.0769802,0.00883815 0.02337,-0.203552 0.103787,0.0119159 -0.0312216,0.27194 z "/>
<path fill="rgb(241,240,234)" stroke="rgb(241,240,234)" d="M 3.25371,1.79246 l -0.103787,-0.0119159 0.00939411,-0.0818226 -0.0769802,-0.00883815 -0.00939411,0.0818226 -0.610506,-0.0700926 0.00939411,-0.0818226 -0.269808,-0.0309769 0.0301875,-0.262933 0.642162,0.0737271 0.0381885,-0.332622 0.00044702,-0.00280668 0.000689936,-0.00275704 0.000927603,-0.00268641 0.00115821,-0.00259534 0.00138,-0.00248452 0.00159129,-0.00235479 0.00179047,-0.00220714 0.00197602,-0.0020427 0.00214653,-0.0018627 0.00230071,-0.00166853 0.00243738,-0.00146166 0.00255549,-0.00124367 0.00265416,-0.00101621 0.00273263,-0.000781016 0.0027903,-0.000539879 0.00282674,-0.000294634 0.00284166,-4.7146e-05 0.00283496,0.0002007 0.213959,0.0245648 0.00280668,0.00044702 0.00275704,0.000689936 0.00268641,0.000927603 0.00259534,0.00115821 0.00248452,0.00138 0.00235479,0.00159129 0.00220714,0.00179047 0.0020427,0.00197602 0.0018627,0.00214653 0.00166853,0.00230071 0.00146166,0.00243738 0.00124367,0.00255549 0.00101621,0.00265416 0.000781016,0.00273263 0.000539879,0.0027903 0.000294634,0.00282674 4.7146e-05,0.00284166 -0.0002007,0.00283496 -0.0381885,0.332622 0.055732,0.00639863 0.0690162,0.144547 -0.0240999,0.20991 z "/>
<path fill="rgb(241,240,234)" stroke="rgb(241,240,234)" d="M 2.20202,1.58882 l -0.300942,-0.0345513 -0.00939411,0.0818226 -0.610312,-0.0700704 0.00895593,-0.0796939 -0.0770012,-0.00865333 -0.00893516,0.0795091 -0.104612,-0.0120106 0.0240999,-0.20991 0.0999869,-0.125143 0.0557393,0.00639947 0.0381885,-0.332622 0.000447101,-0.00280708 0.000690088,-0.00275742 0.00092782,-0.00268677 0.00115849,-0.00259567 0.00138034,-0.0024848 0.00159168,-0.00235502 0.00179091,-0.00220731 0.0019765,-0.0020428 0.00214704,-0.00186274 0.00230124,-0.0016685 0.00243792,-0.00146155 0.00255604,-0.00124348 0.0026547,-0.00101594 0.00273316,-0.000780665 0.0027908,-0.000539449 0.0028272,-0.000294126 0.00284208,-4.65639e-05 0.00283532,0.000201353 0.213944,0.0245631 0.00280644,0.000447 0.0027568,0.000689932 0.00268616,0.000927611 0.00259508,0.00115823 0.00248424,0.00138003 0.00235449,0.00159132 0.00220682,0.0017905 0.00204234,0.00197605 0.00186232,0.00214656 0.00166812,0.00230072 0.00146122,0.00243737 0.0012432,0.00255546 0.00101571,0.0026541 0.000780488,0.00273254 0.000539327,0.00279017 0.000294059,0.00282656 4.65533e-05,0.00284144 -0.000201307,0.00283468 -0.0381885,0.332622 0.673927,0.077374 -0.0301875,0.262933 z "/>
<path fill="rgb(241,240,234)" stroke="rgb(241,240,234)" d="M 2.13465,2.17562 l -0.777475,-0.0892624 0.0724441,0.274716 0.218835,0.0636925 0.222731,0.0483375 0.22555,0.0327489 -0.0158317,0.137894 -0.259918,-0.0372688 -0.257002,-0.0538168 -0.253034,-0.0701445 -0.152354,-0.529376 -0.0900371,-0.136027 0.0312216,-0.27194 0.104612,0.0120106 -0.0231438,0.205944 0.0770012,0.00865333 0.023123,-0.205759 0.610312,0.0700704 -0.00864472,0.0752954 0.300942,0.0345513 -0.0493319,0.42968 z "/>
<path fill="rgb(0,91,140)" stroke="rgb(0,91,140)" d="M 2.4,2.66505 l 0.183911,0.00336677 0.25169,-0.010855 0.143678,-0.257558 0.420722,0 0,1 -1,0 0,-0.734953 z "/>
<path fill="rgb(0,91,140)" stroke="rgb(0,91,140)" d="M 2.13465,2.17562 l 0.748848,0.0859757 -0.136003,0.250784 -0.216905,0.0122106 -0.217238,-0.00217896 -0.216616,-0.0165589 -0.22555,-0.0327489 -0.222731,-0.0483375 -0.218835,-0.0636925 -0.0724441,-0.274716 0.777475,0.0892624 z "/>
<path fill="rgb(0,91,140)" stroke="rgb(0,91,140)" d="M 1.20439,1.55718 l 0.00893516,-0.0795091 0.0770012,0.00865333 -0.00895593,0.0796939 -0.023123,0.205759 -0.0770012,-0.00865333 0.0231438,-0.205944 z "/>
<path fill="rgb(0,91,140)" stroke="rgb(0,91,140)" d="M 0.4,5.4 l 1,0 0,1 -1,0 0,-1 z "/>
<path fill="rgb(0,91,140)" stroke="rgb(0,91,140)" d="M 0.4,4.4 l 1,0 0,1 -1,0 0,-1 z "/>
<path fill="rgb(0,91,140)" stroke="rgb(0,91,140)" d="M 1.4,4.4 l 1,0 0,1 -1,0 0,-1 z "/>
<path fill="rgb(0,91,140)" stroke="rgb(0,91,140)" d="M 3.14992,1.78055 l -0.02337,0.203552 -0.0769802,-0.00883815 0.02337,-0.203552 0.00939411,-0.0818226 0.0769802,0.00883815 -0.00939411,0.0818226 z "/>
<path fill="rgb(0,91,140)" stroke="rgb(0,91,140)" d="M 2.20202,1.58882 l 0.269808,0.0309769 -0.00939411,0.0818226 -0.00864472,0.0752954 -0.269808,-0.0309769 -0.300942,-0.0345513 0.00864472,-0.0752954 0.00939411,-0.0818226 0.300942,0.0345513 z "/>
<path fill="rgb(0,91,140)" stroke="rgb(0,91,140)" d="M 0.4,3.4 l 1,0 0,1 -1,0 0,-1 z "/>
<path fill="rgb(0,91,140)" stroke="rgb(0,91,140)" d="M 1.4,5.4 l 1,0 0,1 -1,0 0,-1 z "/>
<path fill="rgb(0,91,140)" stroke="rgb(0,91,140)" d="M 1.4,7.1 l 0,-0.7 1,0 0,0.7 -0.15,0 -0.85,0 z "/>
<path fill="rgb(0,91,140)" stroke="rgb(0,91,140)" d="M 3.15669,1.4 l 0.0345596,-0.301013 0.0002007,-0.00283496 -4.7146e-05,-0.00284166 -0.000294634,-0.00282674 -0.000539879,-0.0027903 -0.000781016,-0.00273263 -0.00101621,-0.00265416 -0.00124367,-0.00255549 -0.00146166,-0.00243738 -0.00166853,-0.00230071 -0.0018627,-0.00214653 -0.0020427,-0.00197602 -0.00220714,-0.00179047 -0.00235479,-0.00159129 -0.00248452,-0.00138 -0.00259534,-0.00115821 -0.00268641,-0.000927603 -0.00275704,-0.000689936 -0.00280668,-0.00044702 -0.213959,-0.0245648 -0.00283496,-0.0002007 -0.00284166,4.7146e-05 -0.00282674,0.000294634 -0.0027903,0.000539879 -0.00273263,0.000781016 -0.00265416,0.00101621 -0.00255549,0.00124367 -0.00243738,0.00146166 -0.00230071,0.00166853 -0.00214653,0.0018627 -0.00197602,0.0020427 -0.00179047,0.00220714 -0.00159129,0.00235479 -0.00138,0.00248452 -0.00115821,0.00259534 -0.000927603,0.00268641 -0.000689936,0.00275704 -0.00044702,0.00280668 -0.0381885,0.332622 -0.474372,-0.054463 0,-0.320116 1,0 0,0.374967 -0.24331,0 z M 3.4,0.4 l 0,0.3424 -1,0 0,-0.3424 1,0 z "/>
<path fill="rgb(0,91,140)" stroke="rgb(0,91,140)" d="M 3.15669,1.4 l 0.24331,0 0,1 -0.420722,0 0.124687,-0.223514 0.118523,-0.112082 0.0312216,-0.27194 0.0240999,-0.20991 -0.0690162,-0.144547 -0.055732,-0.00639863 0.00362897,-0.0316083 z "/>
<path fill="rgb(0,91,140)" stroke="rgb(0,91,140)" d="M 3.4,6.4 l 0.7,0 0,0.4 -0.00114159,0.0261467 -0.00341608,0.0259477 -0.00566458,0.0255513 -0.00786996,0.0249603 -0.0100155,0.0241794 -0.0120847,0.0232145 -0.014062,0.0220729 -0.0159323,0.0207634 -0.0176813,0.0192958 -0.0192958,0.0176813 -0.0207634,0.0159323 -0.0220729,0.014062 -0.0232145,0.0120847 -0.0241794,0.0100155 -0.0249603,0.00786996 -0.0255513,0.00566458 -0.0259477,0.00341608 -0.0261467,0.00114159 -0.4,0 0,-0.7 z "/>
<path fill="rgb(0,91,140)" stroke="rgb(0,91,140)" d="M 1.4,3.4 l 1,0 0,1 -1,0 0,-1 z "/>
<path fill="rgb(0,91,140)" stroke="rgb(0,91,140)" d="M 2.4,3.4 l 1,0 0,1 -1,0 0,-1 z "/>
<path fill="rgb(0,91,140)" stroke="rgb(0,91,140)" d="M 1.4,2.5072 l 0.163985,0.0454591 0.257002,0.0538168 0.259918,0.0372688 0.251124,0.0200598 0.0679708,0.00124431 0,0.734953 -1,0 0,-0.892802 z "/>
<path fill="rgb(0,91,140)" stroke="rgb(0,91,140)" d="M 2.4,1.34515 l -0.16779,-0.0192641 -0.673927,-0.077374 0.0381885,-0.332622 0.000201307,-0.00283468 -4.65533e-05,-0.00284144 -0.000294059,-0.00282656 -0.000539327,-0.00279017 -0.000780488,-0.00273254 -0.00101571,-0.0026541 -0.0012432,-0.00255546 -0.00146122,-0.00243737 -0.00166812,-0.00230072 -0.00186232,-0.00214656 -0.00204234,-0.00197605 -0.00220682,-0.0017905 -0.00235449,-0.00159132 -0.00248424,-0.00138003 -0.00259508,-0.00115823 -0.00268616,-0.000927611 -0.0027568,-0.000689932 -0.00280644,-0.000447 -0.167829,-0.0192686 0,-0.0160785 0.852694,0 0,0.180571 0.147306,0 0,0.320116 z M 2.4,0.4 l 0,0.3424 -1,0 0,-0.3424 0.85,4.44089e-16 0.15,-4.44089e-16 z "/>
<path fill="rgb(0,91,140)" stroke="rgb(0,91,140)" d="M 0.4,6.8 l -4.44089e-16,-0.4 1,0 0,0.7 -0.7,0 -0.0261467,-0.00114159 -0.0259477,-0.00341608 -0.0255513,-0.00566458 -0.0249603,-0.00786996 -0.0241794,-0.0100155 -0.0232145,-0.0120847 -0.0220729,-0.014062 -0.0207634,-0.0159323 -0.0192958,-0.0176813 -0.0176813,-0.0192958 -0.0159323,-0.0207634 -0.014062,-0.0220729 -0.0120847,-0.0232145 -0.0100155,-0.0241794 -0.00786996,-0.0249603 -0.00566458,-0.0255513 -0.00341608,-0.0259477 -0.00114159,-0.0261467 z "/>
<path fill="rgb(0,91,140)" stroke="rgb(0,91,140)" d="M 2.4,4.4 l 1,0 0,1 -1,0 0,-1 z "/>
<path fill="rgb(0,91,140)" stroke="rgb(0,91,140)" d="M 2.4,5.4 l 1,0 0,1 -1,0 0,-1 z "/>
<path fill="rgb(0,91,140)" stroke="rgb(0,91,140)" d="M 2.4,7.1 l 0,-0.7 1,0 0,0.7 -1,0 z "/>
<path fill="rgb(0,91,140)" stroke="rgb(0,91,140)" d="M 3.8,0.4 l 0.0261467,0.00114159 0.0259477,0.00341608 0.0255513,0.00566458 0.0249603,0.00786996 0.0241794,0.0100155 0.0232145,0.0120847 0.0220729,0.014062 0.0207634,0.0159323 0.0192958,0.0176813 0.0176813,0.0192958 0.0159323,0.0207634 0.014062,0.0220729 0.0120847,0.0232145 0.0100155,0.0241794 0.00786996,0.0249603 0.00566458,0.0255513 0.00341608,0.0259477 0.00114159,0.0261467 0,0.7 -0.7,0 0,-0.374967 0.266641,0 0,-0.282633 -0.266641,0 0,-0.3424 0.4,0 z "/>
<path fill="rgb(0,91,140)" stroke="rgb(0,91,140)" d="M 4.1,1.4 l 0,1 -0.7,0 0,-1 0.7,0 z "/>
<path fill="rgb(0,91,140)" stroke="rgb(0,91,140)" d="M 4.1,2.4 l 0,1 -0.7,0 0,-1 0.7,0 z "/>
<path fill="rgb(0,91,140)" stroke="rgb(0,91,140)" d="M 4.1,3.4 l 0,1 -0.7,0 0,-1 0.7,0 z "/>
<path fill="rgb(0,91,140)" stroke="rgb(0,91,140)" d="M 4.1,4.4 l 0,1 -0.7,0 0,-1 0.7,0 z "/>
<path fill="rgb(0,91,140)" stroke="rgb(0,91,140)" d="M 4.1,5.4 l 0,1 -0.7,0 0,-1 0.7,0 z "/>
<path fill="rgb(0,91,140)" stroke="rgb(0,91,140)" d="M 1.2872,2.4 l 0.023747,0.0825123 0.0890483,0.0246855 0,0.892802 -1,0 0,-1 0.887205,0 z "/>
<path fill="rgb(0,91,140)" stroke="rgb(0,91,140)" d="M 1.11645,1.4 l -0.0166671,0.14517 -0.0312216,0.27194 0.0900371,0.136027 0.128607,0.446863 -0.887205,0 0,-1 0.716449,0 z "/>
<path fill="rgb(0,91,140)" stroke="rgb(0,91,140)" d="M 1.11645,1.4 l -0.716449,0 0,-0.7 0.00114159,-0.0261467 0.00341608,-0.0259477 0.00566458,-0.0255513 0.00786996,-0.0249603 0.0100155,-0.0241794 0.0120847,-0.0232145 0.014062,-0.0220729 0.0159323,-0.0207634 0.0176813,-0.0192958 0.0192958,-0.0176813 0.0207634,-0.0159323 0.0220729,-0.014062 0.0232145,-0.0120847 0.0241794,-0.0100155 0.0249603,-0.00786996 0.0255513,-0.00566458 0.0259477,-0.00341608 0.0261467,-0.00114159 0.7,-8.88178e-16 0,0.3424 -0.576963,0 0,0.102062 0.576963,0 0,0.0160785 -0.046115,-0.0052945 -0.00283532,-0.000201353 -0.00284208,4.65639e-05 -0.0028272,0.000294126 -0.0027908,0.000539449 -0.00273316,0.000780665 -0.0026547,0.00101594 -0.00255604,0.00124348 -0.00243792,0.00146155 -0.00230124,0.0016685 -0.00214704,0.00186274 -0.0019765,0.0020428 -0.00179091,0.00220731 -0.00159168,0.00235502 -0.00138034,0.0024848 -0.00115849,0.00259567 -0.00092782,0.00268677 -0.000690088,0.00275742 -0.000447101,0.00280708 -0.0381885,0.332622 -0.0557393,-0.00639947 -0.0999869,0.125143 -0.00743288,0.0647403 z "/>
<path fill="rgb(0,91,140)" stroke="rgb(0,91,140)" d="M 3.8,7.5 l -1.55,0 -4.44089e-16,-0.2 1.55,0 0.0435779,-0.00190265 0.0432462,-0.00569347 0.0425854,-0.00944096 0.0416005,-0.0131166 0.0402991,-0.0166924 0.0386909,-0.0201412 0.0367882,-0.0234367 0.0346056,-0.0265538 0.0321596,-0.0294688 0.0294688,-0.0321596 0.0265538,-0.0346056 0.0234367,-0.0367882 0.0201412,-0.0386909 0.0166924,-0.0402991 0.0131166,-0.0416005 0.00944096,-0.0425854 0.00569347,-0.0432462 0.00190265,-0.0435779 0,-6.1 -0.00190265,-0.0435779 -0.00569347,-0.0432462 -0.00944096,-0.0425854 -0.0131166,-0.0416005 -0.0166924,-0.0402991 -0.0201412,-0.0386909 -0.0234367,-0.0367882 -0.0265538,-0.0346056 -0.0294688,-0.0321596 -0.0321596,-0.0294688 -0.0346056,-0.0265538 -0.0367882,-0.0234367 -0.0386909,-0.0201412 -0.0402991,-0.0166924 -0.0416005,-0.0131166 -0.0425854,-0.00944096 -0.0432462,-0.00569347 -0.0435779,-0.00190265 -1.55,4.44089e-16 0,-0.2 1.55,-4.44089e-16 0.061009,0.00266371 0.0605447,0.00797086 0.0596196,0.0132173 0.0582408,0.0183632 0.0564187,0.0233694 0.0541672,0.0281977 0.0515035,0.0328114 0.0484478,0.0371753 0.0450234,0.0412564 0.0412564,0.0450234 0.0371753,0.0484478 0.0328114,0.0515035 0.0281977,0.0541672 0.0233694,0.0564187 0.0183632,0.0582408 0.0132173,0.0596196 0.00797086,0.0605447 0.00266371,0.061009 8.88178e-16,6.1 -0.00266371,0.061009 -0.00797086,0.0605447 -0.0132173,0.0596196 -0.0183632,0.0582408 -0.0233694,0.0564187 -0.0281977,0.0541672 -0.0328114,0.0515035 -0.0371753,0.0484478 -0.0412564,0.0450234 -0.0450234,0.0412564 -0.0484478,0.0371753 -0.0515035,0.0328114 -0.0541672,0.0281977 -0.0564187,0.0233694 -0.0582408,0.0183632 -0.0596196,0.0132173 -0.0605447,0.00797086 -0.061009,0.00266371 z "/>
<path fill="rgb(0,91,140)" stroke="rgb(0,91,140)" d="M 0,6.8 l 0,-6.1 0.00266371,-0.061009 0.00797086,-0.0605447 0.0132173,-0.0596196 0.0183632,-0.0582408 0.0233694,-0.0564187 0.0281977,-0.0541672 0.0328114,-0.0515035 0.0371753,-0.0484478 0.0412564,-0.0450234 0.0450234,-0.0412564 0.0484478,-0.0371753 0.0515035,-0.0328114 0.0541672,-0.0281977 0.0564187,-0.0233694 0.0582408,-0.0183632 0.0596196,-0.0132173 0.0605447,-0.00797086 0.061009,-0.00266371 1.55,-8.88178e-16 0,0.2 -1.55,4.44089e-16 -0.0435779,0.00190265 -0.0432462,0.00569347 -0.0425854,0.00944096 -0.0416005,0.0131166 -0.0402991,0.0166924 -0.0386909,0.0201412 -0.0367882,0.0234367 -0.0346056,0.0265538 -0.0321596,0.0294688 -0.0294688,0.0321596 -0.0265538,0.0346056 -0.0234367,0.0367882 -0.0201412,0.0386909 -0.0166924,0.0402991 -0.0131166,0.0416005 -0.00944096,0.0425854 -0.00569347,0.0432462 -0.00190265,0.0435779 0,6.1 0.00190265,0.0435779 0.00569347,0.0432462 0.00944096,0.0425854 0.0131166,0.0416005 0.0166924,0.0402991 0.0201412,0.0386909 0.0234367,0.0367882 0.0265538,0.0346056 0.0294688,0.0321596 0.0321596,0.0294688 0.0346056,0.0265538 0.0367882,0.0234367 0.0386909,0.0201412 0.0402991,0.0166924 0.0416005,0.0131166 0.0425854,0.00944096 0.0432462,0.00569347 0.0435779,0.00190265 1.55,0 4.44089e-16,0.2 -1.55,0 -0.061009,-0.00266371 -0.0605447,-0.00797086 -0.0596196,-0.0132173 -0.0582408,-0.0183632 -0.0564187,-0.0233694 -0.0541672,-0.0281977 -0.0515035,-0.0328114 -0.0484478,-0.0371753 -0.0450234,-0.0412564 -0.0412564,-0.0450234 -0.0371753,-0.0484478 -0.0328114,-0.0515035 -0.0281977,-0.0541672 -0.0233694,-0.0564187 -0.0183632,-0.0582408 -0.0132173,-0.0596196 -0.00797086,-0.0605447 -0.00266371,-0.061009 z "/>
<path fill="rgb(241,240,234)" stroke="rgb(241,240,234)" d="M 2.25,0.4 l 0,-0.2 1.55,-4.44089e-16 0.0435779,0.00190265 0.0432462,0.00569347 0.0425854,0.00944096 0.0416005,0.0131166 0.0402991,0.0166924 0.0386909,0.0201412 0.0367882,0.0234367 0.0346056,0.0265538 0.0321596,0.0294688 0.0294688,0.0321596 0.0265538,0.0346056 0.0234367,0.0367882 0.0201412,0.0386909 0.0166924,0.0402991 0.0131166,0.0416005 0.00944096,0.0425854 0.00569347,0.0432462 0.00190265,0.0435779 0,6.1 -0.00190265,0.0435779 -0.00569347,0.0432462 -0.00944096,0.0425854 -0.0131166,0.0416005 -0.0166924,0.0402991 -0.0201412,0.0386909 -0.0234367,0.0367882 -0.0265538,0.0346056 -0.0294688,0.0321596 -0.0321596,0.0294688 -0.0346056,0.0265538 -0.0367882,0.0234367 -0.0386909,0.0201412 -0.0402991,0.0166924 -0.0416005,0.0131166 -0.0425854,0.00944096 -0.0432462,0.00569347 -0.0435779,0.00190265 -1.55,0 0,-0.2 1.55,0 0.0261467,-0.00114159 0.0259477,-0.00341608 0.0255513,-0.00566458 0.0249603,-0.00786996 0.0241794,-0.0100155 0.0232145,-0.0120847 0.0220729,-0.014062 0.0207634,-0.0159323 0.0192958,-0.0176813 0.0176813,-0.0192958 0.0159323,-0.0207634 0.014062,-0.0220729 0.0120847,-0.0232145 0.0100155,-0.0241794 0.00786996,-0.0249603 0.00566458,-0.0255513 0.00341608,-0.0259477 0.00114159,-0.0261467 0,-6.1 -0.00114159,-0.0261467 -0.00341608,-0.0259477 -0.00566458,-0.0255513 -0.00786996,-0.0249603 -0.0100155,-0.0241794 -0.0120847,-0.0232145 -0.014062,-0.0220729 -0.0159323,-0.0207634 -0.0176813,-0.0192958 -0.0192958,-0.0176813 -0.0207634,-0.0159323 -0.0220729,-0.014062 -0.0232145,-0.0120847 -0.0241794,-0.0100155 -0.0249603,-0.00786996 -0.0255513,-0.00566458 -0.0259477,-0.00341608 -0.0261467,-0.00114159 -1.55,4.44089e-16 z "/>
<path fill="rgb(241,240,234)" stroke="rgb(241,240,234)" d="M 0.7,0.4 l -0.0261467,0.00114159 -0.0259477,0.00341608 -0.0255513,0.00566458 -0.0249603,0.00786996 -0.0241794,0.0100155 -0.0232145,0.0120847 -0.0220729,0.014062 -0.0207634,0.0159323 -0.0192958,0.0176813 -0.0176813,0.0192958 -0.0159323,0.0207634 -0.014062,0.0220729 -0.0120847,0.0232145 -0.0100155,0.0241794 -0.00786996,0.0249603 -0.00566458,0.0255513 -0.00341608,0.0259477 -0.00114159,0.0261467 4.44089e-16,6.1 0.00114159,0.0261467 0.00341608,0.0259477 0.00566458,0.0255513 0.00786996,0.0249603 0.0100155,0.0241794 0.0120847,0.0232145 0.014062,0.0220729 0.0159323,0.0207634 0.0176813,0.0192958 0.0192958,0.0176813 0.0207634,0.0159323 0.0220729,0.014062 0.0232145,0.0120847 0.0241794,0.0100155 0.0249603,0.00786996 0.0255513,0.00566458 0.0259477,0.00341608 0.0261467,0.00114159 1.55,0 0,0.2 -1.55,0 -0.0435779,-0.00190265 -0.0432462,-0.00569347 -0.0425854,-0.00944096 -0.0416005,-0.0131166 -0.0402991,-0.0166924 -0.0386909,-0.0201412 -0.0367882,-0.0234367 -0.0346056,-0.0265538 -0.0321596,-0.0294688 -0.0294688,-0.0321596 -0.0265538,-0.0346056 -0.0234367,-0.0367882 -0.0201412,-0.0386909 -0.0166924,-0.0402991 -0.0131166,-0.0416005 -0.00944096,-0.0425854 -0.00569347,-0.0432462 -0.00190265,-0.0435779 0,-6.1 0.00190265,-0.0435779 0.00569347,-0.0432462 0.00944096,-0.0425854 0.0131166,-0.0416005 0.0166924,-0.0402991 0.0201412,-0.0386909 0.0234367,-0.0367882 0.0265538,-0.0346056 0.0294688,-0.0321596 0.0321596,-0.0294688 0.0346056,-0.0265538 0.0367882,-0.0234367 0.0386909,-0.0201412 0.0402991,-0.0166924 0.0416005,-0.0131166 0.0425854,-0.00944096 0.0432462,-0.00569347 0.0435779,-0.00190265 1.55,-4.44089e-16 0,0.2 -1.55,4.44089e-16 z "/>
<path fill="rgb(241,240,234)" stroke="rgb(241,240,234)" d="M 2.55829,6.76809 l -1.46794,0 0,-3.50031 0.573012,0 0,1.37244 0.894928,0 0.0901367,0.00321917 0.110525,0.0096575 0.10194,0.019315 0.0944289,0.0268264 0.0869175,0.0354108 0.0804792,0.0439953 0.0836983,0.0590181 0.0794061,0.0697486 0.0708217,0.0783331 0.0633103,0.0858444 0.0557989,0.0944289 0.0472144,0.0997942 -1.85961,0.00214611 0,0.872394 0.917463,0 0.938924,0.0246803 -0.0439953,0.0901367 -0.0536528,0.0847714 -0.0622372,0.0783331 -0.0718947,0.0729678 -0.0804792,0.0676025 -0.0890636,0.0611642 -0.0643833,0.0364839 -0.0890636,0.0397031 -0.0944289,0.0311186 -0.0987211,0.0225342 -0.104086,0.0139497 -0.109452,0.00429222 z "/>
<path fill="rgb(241,240,234)" stroke="rgb(241,240,234)" d="M 3.51975,6.16503 l -0.938924,-0.0246803 0.0686756,-0.00321917 0.104086,-0.019315 0.0890636,-0.03863 0.0729678,-0.0557989 0.0246803,-0.0268264 0.057945,-0.0869175 0.0343378,-0.100867 0.0118036,-0.112671 0,-0.0289725 -0.0182419,-0.110525 -0.0429222,-0.0933558 -0.0676025,-0.0783331 -0.0439953,-0.0343378 -0.0858444,-0.0461414 -0.096575,-0.0268264 -0.108379,-0.0096575 -0.917463,0 1.85961,-0.00214611 0.0375569,0.105159 0.0268264,0.107306 0.0160958,0.108379 0.00536528,0.109452 -0.00107306,0.0525797 -0.00858444,0.112671 -0.0171689,0.107306 -0.0268264,0.100867 -0.0354108,0.0955019 z "/>
</g></g></svg>
