<?xml version="1.0" encoding="UTF-8" standalone="no"?>
<!DOCTYPE svg PUBLIC "-//W3C//DTD SVG 1.1//EN" "http://www.w3.org/Graphics/SVG/1.1/DTD/svg11-flat.dtd"
[

]>
<svg xmlns="http://www.w3.org/2000/svg"  viewBox="-0.09375 -0.09375 7.6875 7.6875"><g fill="none" stroke="black" stroke-width="0.0125" transform="translate(0,7.5) scale(1, -1)">
<g id="Output" >
<path fill="rgb(241,240,234)" stroke="rgb(241,240,234)" d="M 3.26588,3.05284 l 0.537881,-0.00405889 0,-0.171146 -6.45957e-05,-0.00147736 -0.000193294,-0.00146609 -0.000320517,-0.00144362 -0.000445294,-0.00141014 -0.000566672,-0.00136589 -0.000683725,-0.00131122 -0.00079556,-0.00124654 -0.000901322,-0.00117234 -0.00100021,-0.0010892 -0.00109145,-0.000997747 -0.00117437,-0.000898677 -0.00124833,-0.000792747 -0.00131276,-0.000680767 -0.00136716,-0.000563591 -0.00141114,-0.000442114 -0.00144434,-0.000317262 -0.00146652,-0.000189988 -0.0014775,-6.12645e-05 -0.00147721,6.79266e-05 -0.00146565,0.000196599 -0.501341,-1.85405e-05 -0.00144798,6.31484e-05 -0.00143698,0.000188966 -0.00141508,0.000313348 -0.00138242,0.000435351 -0.00133928,0.000554049 -0.00128596,0.000668539 -0.00122287,0.000777953 -0.0011505,0.000881459 -0.0010694,0.000978272 -0.000980172,0.00106766 -0.000883503,0.00114893 -0.000780125,0.00122149 -0.000670824,0.00128477 -0.000556429,0.00133829 -0.000437808,0.00138165 -0.000315863,0.00141452 -0.00019152,0.00143664 -6.57225e-05,0.00144786 0,5.91376e-05 0,0.175224 z "/>
<path fill="rgb(241,240,234)" stroke="rgb(241,240,234)" d="M 3.26588,3.40889 l -6.73501e-05,0.00133362 4.92653e-05,0.00133441 0.000165505,0.00132503 0.000280482,0.00130553 0.00039332,0.00127608 0.000503158,0.0012369 0.000609159,0.00118828 0.000710513,0.0011306 0.000806449,0.0010643 0.000896233,0.000989874 0.000979182,0.000907902 0.00105466,0.000819006 0.0011221,0.000723864 0.00118098,0.0006232 0.00123085,0.000517783 0.00127133,0.000408417 0.00130212,0.000295936 0.00132297,0.000181198 0.00282152,1.04345e-07 8.35776e-13,-7.72715e-14 0.501341,1.85405e-05 0.00175946,-7.66816e-05 0.00174612,-0.000229463 0.00171953,-0.000380505 0.00167991,-0.000528661 0.00162755,-0.000672808 0.00156284,-0.000811854 0.00148628,-0.000944742 0.00139846,-0.00107047 0.00130002,-0.00118807 0.00119173,-0.00129667 0.0010744,-0.00139543 0.000948927,-0.00148362 0.000816255,-0.00156055 0.000677393,-0.00162564 0.000533394,-0.00167841 0.00038535,-0.00171845 0,-0.360135 -0.537881,0.00405889 0,0.356057 z "/>
<path fill="rgb(241,240,234)" stroke="rgb(241,240,234)" d="M 3.26588,2.87761 l 0,-5.91376e-05 -2.3363e-08,1.97125e-05 0,1.97125e-05 2.3363e-08,1.97125e-05 z "/>
<path fill="rgb(241,240,234)" stroke="rgb(241,240,234)" d="M 3.27969,3.42556 l 0.000939909,5.80057e-05 0.000941697,3.48257e-08 0.000939913,-5.79362e-05 -0.00282152,-1.04345e-07 z "/>
<path fill="rgb(241,240,234)" stroke="rgb(241,240,234)" d="M 3.88022,3.0482 l 0.537881,-0.00405889 0,-0.16651 -6.45957e-05,-0.00147736 -0.000193294,-0.00146609 -0.000320517,-0.00144362 -0.000445294,-0.00141014 -0.000566672,-0.00136589 -0.000683725,-0.00131122 -0.00079556,-0.00124654 -0.000901322,-0.00117234 -0.00100021,-0.0010892 -0.00109145,-0.000997747 -0.00117437,-0.000898677 -0.00124833,-0.000792747 -0.00131276,-0.000680767 -0.00136716,-0.000563591 -0.00141114,-0.000442114 -0.00144434,-0.000317262 -0.00146652,-0.000189988 -0.0014775,-6.12645e-05 -0.00147721,6.79266e-05 -0.00146565,0.000196599 -0.501341,-1.85405e-05 -0.00144798,6.31484e-05 -0.00143698,0.000188966 -0.00141508,0.000313348 -0.00138242,0.000435351 -0.00133928,0.000554049 -0.00128596,0.000668539 -0.00122287,0.000777953 -0.0011505,0.000881459 -0.0010694,0.000978272 -0.000980172,0.00106766 -0.000883503,0.00114893 -0.000780125,0.00122149 -0.000670824,0.00128477 -0.000556429,0.00133829 -0.000437808,0.00138165 -0.000315863,0.00141452 -0.00019152,0.00143664 -6.57225e-05,0.00144786 0,5.91376e-05 0,0.170588 z "/>
<path fill="rgb(241,240,234)" stroke="rgb(241,240,234)" d="M 3.88022,3.40889 l -6.73501e-05,0.00133362 4.92653e-05,0.00133441 0.000165505,0.00132503 0.000280482,0.00130553 0.00039332,0.00127608 0.000503158,0.0012369 0.000609159,0.00118828 0.000710513,0.0011306 0.000806449,0.0010643 0.000896233,0.000989874 0.000979182,0.000907902 0.00105466,0.000819006 0.0011221,0.000723864 0.00118098,0.0006232 0.00123085,0.000517783 0.00127133,0.000408417 0.00130212,0.000295936 0.00132297,0.000181198 0.00282152,1.04345e-07 8.35776e-13,-7.77156e-14 0.501341,1.85405e-05 0.00175946,-7.66816e-05 0.00174612,-0.000229463 0.00171953,-0.000380505 0.00167991,-0.000528661 0.00162755,-0.000672808 0.00156284,-0.000811854 0.00148628,-0.000944742 0.00139846,-0.00107047 0.00130002,-0.00118807 0.00119173,-0.00129667 0.0010744,-0.00139543 0.000948927,-0.00148362 0.000816255,-0.00156055 0.000677393,-0.00162564 0.000533394,-0.00167841 0.00038535,-0.00171845 0,-0.364771 -0.537881,0.00405889 0,0.360693 z "/>
<path fill="rgb(241,240,234)" stroke="rgb(241,240,234)" d="M 3.89403,3.42556 l 0.000939909,5.80057e-05 0.000941697,3.48257e-08 0.000939913,-5.79362e-05 -0.00282152,-1.04345e-07 z "/>
<path fill="rgb(241,240,234)" stroke="rgb(241,240,234)" d="M 3.88022,2.87761 l 0,-5.91376e-05 -2.3363e-08,1.97125e-05 0,1.97125e-05 2.3363e-08,1.97125e-05 z "/>
<path fill="rgb(241,240,234)" stroke="rgb(241,240,234)" d="M 4.49781,3.4089 l -6.73506e-05,0.00133368 4.92758e-05,0.00133447 0.000165526,0.00132509 0.000280514,0.00130559 0.000393362,0.00127613 0.00050321,0.00123694 0.000609219,0.00118832 0.000710582,0.00113063 0.000806524,0.00106432 0.000896314,0.000989885 0.000979267,0.000907903 0.00105475,0.000818995 0.00112219,0.00072384 0.00118107,0.000623164 0.00123094,0.000517734 0.00127142,0.000408356 0.0013022,0.000295862 0.00132305,0.000181111 0.00282039,0 0.431674,0 0.00175946,-7.66816e-05 0.00174612,-0.000229463 0.00171953,-0.000380505 0.00167991,-0.000528661 0.00162755,-0.000672808 0.00156284,-0.000811854 0.00148628,-0.000944742 0.00139846,-0.00107047 0.00130002,-0.00118807 0.00119173,-0.00129667 0.0010744,-0.00139543 0.000948927,-0.00148362 0.000816255,-0.00156055 0.000677393,-0.00162564 0.000533394,-0.00167841 0.00038535,-0.00171845 0,-0.368896 -0.468214,0.00353318 -8.88178e-16,0.365363 z "/>
<path fill="rgb(241,240,234)" stroke="rgb(241,240,234)" d="M 4.96602,3.04001 l 0,-0.162385 -6.45957e-05,-0.00147736 -0.000193294,-0.00146609 -0.000320517,-0.00144362 -0.000445294,-0.00141014 -0.000566672,-0.00136589 -0.000683725,-0.00131122 -0.00079556,-0.00124654 -0.000901322,-0.00117234 -0.00100021,-0.0010892 -0.00109145,-0.000997747 -0.00117437,-0.000898677 -0.00124833,-0.000792747 -0.00131276,-0.000680767 -0.00136716,-0.000563591 -0.00141114,-0.000442114 -0.00144434,-0.000317262 -0.00146652,-0.000189988 -0.0014775,-6.12645e-05 -0.00147721,6.79266e-05 -0.00146565,0.000196599 -0.431674,0 -0.00145125,6.34348e-05 -0.00144018,0.00018982 -0.00141813,0.000314758 -0.00138525,0.000437295 -0.00134181,0.000556496 -0.00128814,0.000671453 -0.00122464,0.000781287 -0.0011518,0.000885163 -0.00107017,0.000982286 -0.000980382,0.00107192 -0.000883114,0.00115337 -0.000779109,0.00122603 -0.000669162,0.00128933 -0.00055411,0.0013428 -0.000434832,0.00138603 -0.000312237,0.00141868 -0.00018726,0.00144052 -6.08547e-05,0.00145136 8.88178e-16,0.165918 0.468214,-0.00353318 z "/>
<path fill="rgb(241,240,234)" stroke="rgb(241,240,234)" d="M 4.51444,3.42557 l -0.00282039,0 0.000939536,5.79246e-05 0.00094132,0 0.000939536,-5.79246e-05 z "/>
<path fill="rgb(241,240,234)" stroke="rgb(241,240,234)" d="M 5.05901,3.42557 l -0.00344335,0 0.00114665,8.81347e-05 0.00115004,0 0.00114665,-8.81347e-05 z "/>
<path fill="rgb(241,240,234)" stroke="rgb(241,240,234)" d="M 5.0424,2.87752 l -6.48972e-08,3.28347e-05 0,3.28348e-05 6.48972e-08,3.28347e-05 0,-9.85042e-05 z "/>
<path fill="rgb(241,240,234)" stroke="rgb(241,240,234)" d="M 5.25824,3.4089 l -0.000750069,0.00500185 0.00033067,-0.00122525 0.000236062,-0.00124693 0.000140073,-0.00126133 4.32641e-05,-0.00126834 z "/>
<path fill="rgb(241,240,234)" stroke="rgb(241,240,234)" d="M 5.32553,2.86096 l -0.0013938,-0.000133755 -0.00140021,0 -0.0013938,0.000133755 0.00418781,0 z "/>
<path fill="rgb(241,240,234)" stroke="rgb(241,240,234)" d="M 5.0424,3.4089 l -9.7313e-05,0.00130703 1.71881e-05,0.00131053 0.000131558,0.00130403 0.000244923,0.00128756 0.000356416,0.00126125 0.000465187,0.00122531 0.000570404,0.00118001 0.000671264,0.0011257 0.000766996,0.00106278 0.000856868,0.000991749 0.000940194,0.00091314 0.00101634,0.000827554 0.00108472,0.000735647 0.00114481,0.000638119 0.00119616,0.000535717 0.00123837,0.000429222 0.00127112,0.000319449 0.00129416,0.000207235 0.00344335,0 0.182641,0 0.00140204,-5.93393e-05 0.00139202,-0.000177593 0.00137203,-0.000294577 0.00134223,-0.000409454 0.00130284,-0.000521403 0.00125412,-0.000629622 0.00119644,-0.000733338 0.00113019,-0.000831809 0.00105587,-0.000924331 0.000973991,-0.00101024 0.000885147,-0.00108893 0.000789972,-0.00115982 0.000689148,-0.00122242 0.000583394,-0.00127628 0.000473467,-0.00132101 0.000750069,-0.00500185 0.0557127,-0.371522 0.0239572,-0.159759 0.000134409,-0.00127456 2.24326e-05,-0.00128143 -8.97161e-05,-0.00127848 -0.000201177,-0.00126574 -0.000311097,-0.00124329 -0.000418633,-0.00121133 -0.000522961,-0.00117007 -0.000623283,-0.00111986 -0.000718828,-0.00106106 -0.000808865,-0.000994133 -0.000892705,-0.000919588 -0.000969704,-0.000837996 -0.00103927,-0.000749984 -0.00110088,-0.000656225 -0.00115405,-0.000557437 -0.00119838,-0.000454378 -0.00123352,-0.000347838 -0.00125921,-0.000238632 -0.00418781,0 -0.262331,0 -0.00144517,6.29784e-05 -0.00143422,0.000188458 -0.00141238,0.000312508 -0.00137984,0.000434189 -0.00133684,0.000552578 -0.00128371,0.000666777 -0.00122083,0.000775921 -0.00114871,0.000879182 -0.00106787,0.000975777 -0.000978939,0.00106497 -0.000882584,0.0011461 -0.000779537,0.00121853 -0.00067058,0.00128172 -0.000556539,0.0013352 -0.000438278,0.00137855 -0.000316694,0.00141145 -0.000192709,0.00143365 -6.72626e-05,0.00144498 0,9.85042e-05 0,0.161809 0,0.369472 z "/>
<path fill="rgb(241,240,234)" stroke="rgb(241,240,234)" d="M 2.66373,3.42556 l 0.000939909,5.80057e-05 0.000941697,3.48257e-08 0.000939913,-5.79362e-05 -0.00282152,-1.04345e-07 z "/>
<path fill="rgb(241,240,234)" stroke="rgb(241,240,234)" d="M 2.64992,2.87761 l 0,-5.91376e-05 -2.3363e-08,1.97125e-05 0,1.97125e-05 2.3363e-08,1.97125e-05 z "/>
<path fill="rgb(241,240,234)" stroke="rgb(241,240,234)" d="M 2.64992,3.40889 l -6.73501e-05,0.00133362 4.92653e-05,0.00133441 0.000165505,0.00132503 0.000280482,0.00130553 0.00039332,0.00127608 0.000503158,0.0012369 0.000609159,0.00118828 0.000710513,0.0011306 0.000806449,0.0010643 0.000896233,0.000989874 0.000979182,0.000907902 0.00105466,0.000819006 0.0011221,0.000723864 0.00118098,0.0006232 0.00123085,0.000517783 0.00127133,0.000408417 0.00130212,0.000295936 0.00132297,0.000181198 0.00282152,1.04345e-07 8.35776e-13,-7.72715e-14 0.501341,1.85405e-05 0.00175946,-7.66816e-05 0.00174612,-0.000229463 0.00171953,-0.000380505 0.00167991,-0.000528661 0.00162755,-0.000672808 0.00156284,-0.000811854 0.00148628,-0.000944742 0.00139846,-0.00107047 0.00130002,-0.00118807 0.00119173,-0.00129667 0.0010744,-0.00139543 0.000948927,-0.00148362 0.000816255,-0.00156055 0.000677393,-0.00162564 0.000533394,-0.00167841 0.00038535,-0.00171845 0,-0.355487 -0.537881,0.00405889 0,0.351409 z "/>
<path fill="rgb(241,240,234)" stroke="rgb(241,240,234)" d="M 2.64992,3.05748 l 0.537881,-0.00405889 0,-0.175794 -6.45957e-05,-0.00147736 -0.000193294,-0.00146609 -0.000320517,-0.00144362 -0.000445294,-0.00141014 -0.000566672,-0.00136589 -0.000683725,-0.00131122 -0.00079556,-0.00124654 -0.000901322,-0.00117234 -0.00100021,-0.0010892 -0.00109145,-0.000997747 -0.00117437,-0.000898677 -0.00124833,-0.000792747 -0.00131276,-0.000680767 -0.00136716,-0.000563591 -0.00141114,-0.000442114 -0.00144434,-0.000317262 -0.00146652,-0.000189988 -0.0014775,-6.12645e-05 -0.00147721,6.79266e-05 -0.00146565,0.000196599 -0.501341,-1.85405e-05 -0.00144798,6.31484e-05 -0.00143698,0.000188966 -0.00141508,0.000313348 -0.00138242,0.000435351 -0.00133928,0.000554049 -0.00128596,0.000668539 -0.00122287,0.000777953 -0.0011505,0.000881459 -0.0010694,0.000978272 -0.000980172,0.00106766 -0.000883503,0.00114893 -0.000780125,0.00122149 -0.000670824,0.00128477 -0.000556429,0.00133829 -0.000437808,0.00138165 -0.000315863,0.00141452 -0.00019152,0.00143664 -6.57225e-05,0.00144786 0,5.91376e-05 0,0.179872 z "/>
<path fill="rgb(241,240,234)" stroke="rgb(241,240,234)" d="M 5.04744,4.12663 l 0.072354,0.0186217 -0.00871178,0.0285808 -0.0111879,0.0277054 -0.0135776,0.026616 -0.0158624,0.0253209 -0.0180246,0.0238301 -0.0200475,0.0221553 -0.0219156,0.0203092 -0.0236144,0.0183063 -0.0251307,0.0161619 -0.0264528,0.0138927 -0.0275706,0.0115161 -0.0284754,0.0090506 -0.0291601,0.00651513 -0.0296196,0.00392932 -0.0298502,0.00131316 -0.599395,0 -0.0297213,-0.001405 -0.0294831,-0.00400937 -0.0290171,-0.00658276 -0.028327,-0.0091053 -0.0274181,-0.0115575 -0.0262973,-0.0139204 -0.0249734,-0.0161758 -0.0234566,-0.0183062 -0.0217585,-0.0202952 -0.0198924,-0.0221274 -0.0178726,-0.0237886 -0.0157147,-0.0252661 -0.0134354,-0.0265484 -0.0110523,-0.0276256 -0.00858382,-0.0284894 0.0734816,-0.0187152 0.00672099,0.0222614 0.00864374,0.0215876 0.0105001,0.0207482 0.0122759,0.0197495 0.0139575,0.0185991 0.0155319,0.0173061 0.0169871,0.0158801 0.0183119,0.0143323 0.0194961,0.0126744 0.0205307,0.0109193 0.0214077,0.00908031 0.0221203,0.00717164 0.0226631,0.00520791 0.023032,0.00320421 0.0232241,0.00117592 0.0232378,-0.000861407 0.0230733,-0.00289212 0.0227316,-0.00490063 0.0222154,-0.00687152 0.0215286,-0.00878967 0.0206766,-0.0106403 0.0196659,-0.0124093 0.0185042,-0.0140831 0.0172005,-0.0156487 0.0157648,-0.0170942 0.014208,-0.0184085 0.0125422,-0.0195815 0.0107801,-0.0206041 0.00893519,-0.0214686 0.00702174,-0.0221683 0.00505439,-0.0226979 0.00304824,-0.0230532 0.00101869,-0.0232315 -1.05744e-08,-7.49206e-05 -3.17231e-08,-7.49206e-05 -5.28718e-08,-7.49206e-05 0.0645687,-5.46797e-05 0.000995052,0.0232378 0.0030257,0.0230614 0.00503312,0.022708 0.00700188,0.0221801 0.00891687,0.021482 0.0107634,0.0206188 0.0125272,0.0195973 0.0141949,0.0184253 0.0157535,0.0171118 0.0171912,0.0156668 0.0184968,0.0141016 0.0196603,0.012428 0.0206729,0.010659 0.0215267,0.0088082 0.0222152,0.0068897 0.0227331,0.0049183 0.0230764,0.00290912 0.0232425,0.000877605 0.0232301,-0.00116065 0.0230393,-0.00319 0.0226715,-0.00519484 0.0221297,-0.00715979 0.0214179,-0.00906976 0.0205416,-0.0109101 0.0195075,-0.0126666 0.0183236,-0.0143258 0.016999,-0.0158751 0.0155439,-0.0173024 0.0139694,-0.0185968 0.0122876,-0.0197484 0.0105114,-0.0207484 0.00865454,-0.021589 0.00673119,-0.0222638 z "/>
<path fill="rgb(241,240,234)" stroke="rgb(241,240,234)" d="M 2.54529,3.35912 l -6.39903e-05,0.00144645 -0.000189766,0.00143537 -0.000314098,0.00141338 -0.000436042,0.00138064 -0.00055467,0.00133741 -0.000669079,0.001284 -0.0007784,0.00122082 -0.000881802,0.00114836 -0.000978497,0.00106717 -0.00106775,0.000977863 -0.00114889,0.00088112 -0.00122128,0.000777675 -0.00128439,0.000668316 -0.00133773,0.000553875 -0.0013809,0.000435222 -0.00141357,0.000313259 -0.00143549,0.000188913 -0.00144649,6.31311e-05 -0.259781,0 -0.00148505,-0.000101017 -0.00146994,-0.000234259 -0.00144289,-0.000365599 -0.00140413,-0.000493973 -0.00135397,-0.000618337 -0.00129283,-0.000737683 -0.00122119,-0.000851042 -0.00113965,-0.000957494 -0.00104885,-0.00105617 -0.000949538,-0.00114628 -0.000842522,-0.00122709 -0.000728667,-0.00129793 -0.000608899,-0.00135824 -0.000484188,-0.00140753 -0.000355548,-0.0014454 -0.12084,-0.301028 -0.0684506,-0.17052 0.0464939,-0.0797094 0.418405,0 4.66294e-14,0 0.00144731,6.40283e-05 0.00143623,0.000189879 0.00141422,0.000314285 0.00138146,0.000436301 0.0013382,0.000554999 0.00128476,0.000669477 0.00122155,0.000778863 0.00114904,0.000882326 0.0010678,0.000979079 0.000978444,0.00106839 0.000881643,0.00114957 0.000778137,0.00122201 0.000668713,0.00128516 0.000554204,0.00133853 0.00043548,0.00138172 0.000313445,0.00141441 0.000189025,0.00143634 6.31686e-05,0.00144735 0,0.2305 0,0.30085 0,1.39888e-13 z "/>
<path fill="rgb(241,240,234)" stroke="rgb(241,240,234)" d="M 2.50652,4.71179 l 0.00311393,0.000135982 0.00309023,0.000406912 0.00304299,0.000674744 0.00297259,0.000937438 0.00287955,0.001193 0.0027646,0.00143947 0.00262859,0.00167499 0.00247257,0.00189775 0.00229773,0.00210606 0.00210539,0.00229834 0.00189703,0.00247313 0.00167422,0.00262908 0.00143867,0.00276501 0.00119216,0.0028799 0.000936574,0.00297286 0.000673859,0.00304319 0.000406014,0.00309034 0.000135077,0.00311397 0,4.08562e-14 0,0.275618 -0.000124552,0.00287606 -0.000372722,0.00285452 -0.000618102,0.00281161 -0.000858853,0.00274765 -0.00109317,0.00266312 -0.00131931,0.00255864 -0.00153557,0.00243501 -0.00174032,0.00229314 -0.00193205,0.0021341 -0.00210931,0.00195909 -0.00227078,0.0017694 -0.00241524,0.00156647 -0.00254162,0.0013518 -0.00264897,0.00112702 -0.00273649,0.000893791 -0.00280351,0.000653874 -0.00284954,0.000409061 -0.00287424,0.000161185 -0.00287741,-8.78976e-05 -0.165153,0 -0.143643,0 -0.00333496,-0.000147488 -0.00330892,-0.000441313 -0.00325704,-0.000731691 -0.00317973,-0.00101636 -0.0030776,-0.00129309 -0.00295143,-0.00155972 -0.00280222,-0.00181417 -0.00263113,-0.00205446 -0.0024395,-0.00227871 -0.00222882,-0.00248517 -0.00200073,-0.00267222 -0.00175703,-0.00283841 -0.0014996,-0.00298243 -0.00123047,-0.00310317 -0.000951723,-0.00319967 -0.0935051,-0.31591 0.30291,0 0.136042,0 z "/>
<path fill="rgb(241,240,234)" stroke="rgb(241,240,234)" d="M 2.13392,4.06103 l 0.0764051,-2.28061e-06 0.00101868,0.0232235 0.00304683,0.0230453 0.00505162,0.0226903 0.00701765,0.0221612 0.00892985,0.0214622 0.0107735,0.0205985 0.0125346,0.0195768 0.0141995,0.0184049 0.0157555,0.0170919 0.0171906,0.0156477 0.0184938,0.0140835 0.0196552,0.0124113 0.0206658,0.0106439 0.0215179,0.00879476 0.0222049,0.00687821 0.0227216,0.00490889 0.023064,0.00290191 0.0232294,0.000872679 0.0232167,-0.00116325 0.0230259,-0.00319026 0.0226584,-0.00519279 0.0221171,-0.00715549 0.0214062,-0.0090633 0.020531,-0.0109016 0.0194984,-0.0126562 0.0183162,-0.0143138 0.0169935,-0.0158616 0.0155404,-0.0172877 0.0139681,-0.0185812 0.0122887,-0.0197321 0.010515,-0.0207317 0.00866062,-0.0215722 0.00673982,-0.0222473 0.0722332,0.0184715 -0.00874974,0.0284663 -0.0111994,0.0275946 -0.0135637,0.0265125 -0.0158247,0.0252284 -0.0179649,0.0237519 -0.0199683,0.0220943 -0.0218194,0.0202683 -0.0235042,0.0182878 -0.0250098,0.0161679 -0.0263247,0.0139247 -0.027439,0.0115754 -0.0283441,0.00913787 -0.0290332,0.00663066 -0.0295009,0.00407291 -0.0297437,0.0014841 -0.0297598,-0.00111602 -0.029549,-0.00370763 -0.029113,-0.00627097 -0.028455,-0.00878651 -0.0275801,-0.0112351 -0.026495,-0.013598 -0.0252079,-0.0158572 -0.0237286,-0.0179956 -0.0220685,-0.0199968 -0.0202401,-0.0218456 -0.0182574,-0.0235278 -0.0161356,-0.0250307 -0.0138907,-0.0263427 -0.01154,-0.0274539 -0.00910124,-0.0283559 -0.00659314,-0.0290417 -0.00403479,-0.0295061 -0.00144567,-0.0297456 z "/>
<path fill="rgb(241,240,234)" stroke="rgb(241,240,234)" d="M 2.46557,2.27988 l 0.0684727,0.000361028 -5.29037e-07,0.000103454 -4.85775e-07,0.000103454 -4.42513e-07,0.000103454 0.000854489,0.0215752 0.00273247,0.0214185 0.00458965,0.0210986 0.00641186,0.0206181 0.00818522,0.0199805 0.00989624,0.0191907 0.0115319,0.0182547 0.0130797,0.0171796 0.0145278,0.0159737 0.0158653,0.0146461 0.017082,0.013207 0.0181685,0.0116672 0.0191166,0.0100386 0.0199191,0.0083335 0.0205699,0.00656492 0.021064,0.00474633 0.0213976,0.00289159 0.0215682,0.00101482 0.0215746,-0.000869682 0.0214166,-0.00274756 0.0210954,-0.0046045 0.0206136,-0.00642637 0.0199747,-0.00819929 0.0191837,-0.00990975 0.0182466,-0.0115447 0.0171704,-0.0130918 0.0159635,-0.0145391 0.014635,-0.0158756 0.013195,-0.0170913 0.0116544,-0.0181767 0.0100251,-0.0191237 0.00831947,-0.019925 0.00655043,-0.0205745 0.00473149,-0.0210673 0.00287652,-0.0213996 0.000999629,-0.0215689 4.86184e-07,-0.000219343 2.9171e-07,-0.000219344 9.72369e-08,-0.000219344 -3.81571e-07,-0.000434508 -1.14471e-06,-0.000434507 -1.90785e-06,-0.000434504 0.070997,-0.000374337 -0.00106865,0.0277383 -0.0034902,0.0275386 -0.00588502,0.0271279 -0.00823474,0.0265093 -0.0105214,0.0256877 -0.0127274,0.0246692 -0.0148359,0.0234617 -0.0168307,0.0220745 -0.0186966,0.0205181 -0.0204192,0.0188045 -0.0219854,0.0169469 -0.0233832,0.0149594 -0.0246017,0.0128573 -0.0256318,0.0106567 -0.0264655,0.00837439 -0.0270965,0.00602796 -0.0275198,0.00363535 -0.0277323,0.00121489 -0.0277323,-0.00121489 -0.0275198,-0.00363535 -0.0270965,-0.00602796 -0.0264655,-0.00837439 -0.0256318,-0.0106567 -0.0246017,-0.0128573 -0.0233832,-0.0149594 -0.0219854,-0.0169469 -0.0204192,-0.0188045 -0.0186966,-0.0205181 -0.0168307,-0.0220745 -0.0148359,-0.0234617 -0.0127274,-0.0246692 -0.0105214,-0.0256877 -0.00823474,-0.0265093 -0.00588502,-0.0271279 -0.0034902,-0.0275386 -0.00106865,-0.0277383 z "/>
<path fill="rgb(241,240,234)" stroke="rgb(241,240,234)" d="M 4.87641,2.27988 l -0.00121227,0.0277848 -0.00362931,0.0275734 -0.00601873,0.0271522 -0.00836234,0.0265243 -0.0106423,0.0256945 -0.0128413,0.0246692 -0.0149425,0.0234561 -0.01693,0.0220645 -0.0187887,0.0205049 -0.0205043,0.0187893 -0.0220639,0.0169307 -0.0234556,0.0149432 -0.0246688,0.012842 -0.0256942,0.0106431 -0.026524,0.00836316 -0.027152,0.00601957 -0.0275733,0.00363017 -0.0277848,0.00121313 -0.0277848,-0.00121313 -0.0275733,-0.00363017 -0.027152,-0.00601957 -0.026524,-0.00836316 -0.0256942,-0.0106431 -0.0246688,-0.012842 -0.0234556,-0.0149432 -0.0220639,-0.0169307 -0.0205043,-0.0187893 -0.0187887,-0.0205049 -0.01693,-0.0220645 -0.0149425,-0.0234561 -0.0128413,-0.0246692 -0.0106423,-0.0256945 -0.00836234,-0.0265243 -0.00601873,-0.0271522 -0.00362931,-0.0275734 -0.00121227,-0.0277848 0.00121227,0.0277848 0.00362931,0.0275734 0.00601873,0.0271522 0.00836234,0.0265243 0.0106423,0.0256945 0.0128413,0.0246692 0.0149425,0.0234561 0.01693,0.0220645 0.0187887,0.0205049 0.0205043,0.0187893 0.0220639,0.0169307 0.0234556,0.0149432 0.0246688,0.012842 0.0256942,0.0106431 0.026524,0.00836316 0.027152,0.00601957 0.0275733,0.00363017 0.0277848,0.00121313 0.0277848,-0.00121313 0.0275733,-0.00363017 0.027152,-0.00601957 0.026524,-0.00836316 0.0256942,-0.0106431 0.0246688,-0.012842 0.0234556,-0.0149432 0.0220639,-0.0169307 0.0205043,-0.0187893 0.0187887,-0.0205049 0.01693,-0.0220645 0.0149425,-0.0234561 0.0128413,-0.0246692 0.0106423,-0.0256945 0.00836234,-0.0265243 0.00601873,-0.0271522 0.00362931,-0.0275734 0.00121227,-0.0277848 z "/>
<path fill="rgb(241,240,234)" stroke="rgb(241,240,234)" d="M 4.87641,2.27988 l -0.00121227,0.0277848 -0.00362931,0.0275734 -0.00601873,0.0271522 -0.00836234,0.0265243 -0.0106423,0.0256945 -0.0128413,0.0246692 -0.0149425,0.0234561 -0.01693,0.0220645 -0.0187887,0.0205049 -0.0205043,0.0187893 -0.0220639,0.0169307 -0.0234556,0.0149432 -0.0246688,0.012842 -0.0256942,0.0106431 -0.026524,0.00836316 -0.027152,0.00601957 -0.0275733,0.00363017 -0.0277848,0.00121313 -0.0277848,-0.00121313 -0.0275733,-0.00363017 -0.027152,-0.00601957 -0.026524,-0.00836316 -0.0256942,-0.0106431 -0.0246688,-0.012842 -0.0234556,-0.0149432 -0.0220639,-0.0169307 -0.0205043,-0.0187893 -0.0187887,-0.0205049 -0.01693,-0.0220645 -0.0149425,-0.0234561 -0.0128413,-0.0246692 -0.0106423,-0.0256945 -0.00836234,-0.0265243 -0.00601873,-0.0271522 -0.00362931,-0.0275734 -0.00121227,-0.0277848 0.0713913,2.20923e-06 0.000799163,0.0216141 0.00268395,0.0214617 0.00454823,0.0211453 0.00637774,0.0206672 0.0081585,0.0200312 0.0098769,0.019242 0.0115198,0.0183058 0.0130747,0.0172297 0.0145296,0.0160218 0.0158735,0.0146915 0.017096,0.013249 0.0181879,0.0117051 0.0191407,0.0100718 0.0199473,0.00836149 0.0206014,0.00658728 0.021098,0.00476272 0.0214333,0.00290175 0.0216049,0.00101861 0.0216113,-0.000872322 0.0214525,-0.00275658 0.0211297,-0.00461978 0.0206455,-0.00644766 0.0200034,-0.00822626 0.0192085,-0.00994198 0.0182667,-0.0115817 0.0171853,-0.0131329 0.0159726,-0.0145838 0.0146377,-0.0159231 0.013191,-0.0171408 0.0116435,-0.0182274 0.0100069,-0.0191747 0.00829392,-0.0199755 0.00651751,-0.0206235 0.00469127,-0.021114 0.00282918,-0.021443 0.00094547,-0.0216082 -6.29931e-07,-0.000558286 -1.88979e-06,-0.000558283 -3.14964e-06,-0.000558277 0.0714074,-2.20973e-06 z "/>
<path fill="rgb(241,240,234)" stroke="rgb(241,240,234)" d="M 4.23883,2.27988 l -1.13901,0 -0.070997,0.000374337 -3.00724e-06,-0.000481721 -3.94525e-06,-0.000481714 -4.88324e-06,-0.000481706 -0.00116985,-0.0214377 -0.00302411,-0.0212555 -0.0048556,-0.0209133 -0.00665052,-0.0204136 -0.00839535,-0.0197601 -0.010077,-0.0189578 -0.0116827,-0.0180127 -0.0132004,-0.016932 -0.0146187,-0.0157237 -0.0159269,-0.0143971 -0.0171152,-0.012962 -0.0181746,-0.0114293 -0.0190971,-0.00981048 -0.0198757,-0.00811781 -0.0205047,-0.00636399 -0.0209792,-0.00456225 -0.0212958,-0.00272615 -0.021452,-0.000869518 -0.0214466,0.000993663 -0.0212797,0.00284936 -0.0209525,0.0046836 -0.0204675,0.00648256 -0.0198284,0.00823271 -0.0190399,0.00992085 -0.0181081,0.0115343 -0.0170399,0.0130608 -0.0158433,0.014489 -0.0145275,0.0158081 -0.0131022,0.0170081 -0.0115782,0.01808 -0.00996706,0.0190158 -0.00828084,0.0198083 -0.00653226,0.0204517 -0.00473448,0.0209411 -0.00290104,0.0212727 -0.00104575,0.0214441 -0.0684727,-0.000361028 -0.50141,0 0,0.0996368 0.0498085,0 8.88178e-16,0.431644 -0.0498085,0.07309 0.072938,0.177857 -0.847975,0.00639889 0.0687901,-0.219632 0.0875877,-0.212835 0.105725,-0.204432 0.123064,-0.194488 0.139475,-0.183076 0.154835,-0.170284 0.169026,-0.156207 0.181942,-0.140952 0.193486,-0.124633 0.20357,-0.107375 0.212119,-0.0893064 0.219068,-0.0705644 0.224365,-0.0512901 0.227969,-0.0316289 0.229854,-0.0117292 0.230005,0.00825905 0.22842,0.028185 0.225113,0.0478983 0.220108,0.0672503 0.213443,0.0860951 0.205168,0.10429 0.195345,0.121699 0.184048,0.13819 0.171364,0.153638 0.157387,0.167928 0.142222,0.180951 0.125985,0.192608 0.108798,0.202814 0.0907897,0.211489 0.0720968,0.218569 -0.884165,0.00667198 0.0213807,-0.139061 0,-0.401822 0.0531922,-0.0332254 0,-0.0829846 -0.614295,-0.0996368 -0.0714074,2.20973e-06 -0.00107864,-0.0214624 -0.0029371,-0.0212878 -0.0047734,-0.0209526 -0.00657368,-0.0204593 -0.00832436,-0.0198116 -0.0100122,-0.0190145 -0.0116246,-0.0180739 -0.0131492,-0.0169969 -0.0145746,-0.0157917 -0.01589,-0.0144673 -0.0170856,-0.0130338 -0.0181522,-0.0115019 -0.0190819,-0.00988327 -0.0198675,-0.00819004 -0.0205033,-0.00643502 -0.0209844,-0.00463144 -0.0213072,-0.00279292 -0.0214692,-0.000933319 -0.0214692,0.000933319 -0.0213072,0.00279292 -0.0209844,0.00463144 -0.0205033,0.00643502 -0.0198675,0.00819004 -0.0190819,0.00988327 -0.0181522,0.0115019 -0.0170856,0.0130338 -0.01589,0.0144673 -0.0145746,0.0157917 -0.0131492,0.0169969 -0.0116246,0.0180739 -0.0100122,0.0190145 -0.00832436,0.0198116 -0.00657368,0.0204593 -0.0047734,0.0209526 -0.0029371,0.0212878 -0.00107864,0.0214624 -0.0713913,-2.20923e-06 z "/>
<path fill="rgb(241,240,234)" stroke="rgb(241,240,234)" d="M 5.47708,4.85391 l 0,-0.708664 -0.35728,0 -0.072354,-0.0186217 0.00456486,-0.021614 0.00275163,-0.0219187 0.000919332,-0.0220716 -6.45228e-08,-0.000185068 -1.93569e-07,-0.000185068 -3.22614e-07,-0.000185068 -1.38167e-08,-6.56613e-06 -1.39792e-08,-6.56613e-06 -1.41416e-08,-6.56613e-06 -2.73077e-08,-1.24716e-05 -2.78937e-08,-1.24716e-05 -2.84797e-08,-1.24716e-05 -1.64615e-08,-7.09418e-06 -1.66511e-08,-7.09418e-06 -1.68407e-08,-7.09418e-06 -1.74725e-08,-7.27729e-06 -1.7672e-08,-7.27729e-06 -1.78715e-08,-7.27729e-06 -2.29034e-08,-9.2098e-06 -2.3223e-08,-9.2098e-06 -2.35426e-08,-9.2098e-06 -1.52443e-07,-5.68662e-05 -1.64627e-07,-5.68661e-05 -1.76811e-07,-5.68661e-05 -0.00108008,-0.0230815 -0.00308356,-0.0229 -0.00506367,-0.0225451 -0.0070054,-0.0220192 -0.00889403,-0.0213264 -0.0107152,-0.020472 -0.0124552,-0.0194625 -0.0141008,-0.0183054 -0.0156396,-0.0170095 -0.0170597,-0.0155848 -0.0183506,-0.0140419 -0.0195024,-0.0123926 -0.0205064,-0.0106493 -0.0213549,-0.00882539 -0.0220416,-0.00693454 -0.0225612,-0.00499113 -0.0229098,-0.00300989 -0.0230848,-0.00100584 -0.0230848,0.00100584 -0.0229098,0.00300989 -0.0225612,0.00499113 -0.0220416,0.00693454 -0.0213549,0.00882539 -0.0205064,0.0106493 -0.0195024,0.0123926 -0.0183506,0.0140419 -0.0170597,0.0155848 -0.0156396,0.0170095 -0.0141008,0.0183054 -0.0124552,0.0194625 -0.0107152,0.020472 -0.00889403,0.0213264 -0.0070054,0.0220192 -0.00506367,0.0225451 -0.00308356,0.0229 -0.00108008,0.0230815 -1.76811e-07,5.68661e-05 -1.64627e-07,5.68661e-05 -1.52443e-07,5.68662e-05 -2.35426e-08,9.2098e-06 -2.3223e-08,9.2098e-06 -2.29034e-08,9.2098e-06 -1.78715e-08,7.27729e-06 -1.7672e-08,7.27729e-06 -1.74725e-08,7.27729e-06 -1.68407e-08,7.09418e-06 -1.66511e-08,7.09418e-06 -1.64615e-08,7.09418e-06 -2.84797e-08,1.24716e-05 -2.78937e-08,1.24716e-05 -2.73077e-08,1.24716e-05 -1.41416e-08,6.56613e-06 -1.39792e-08,6.56613e-06 -1.38167e-08,6.56613e-06 -1.7882e-07,9.33275e-05 -1.46003e-07,9.33276e-05 -1.13186e-07,9.33276e-05 -0.0645687,5.46797e-05 -0.00102901,-0.023125 -0.00304003,-0.0229474 -0.00502792,-0.0225952 -0.00697757,-0.0220712 -0.00887415,-0.0213793 -0.0107032,-0.0205247 -0.0124509,-0.0195141 -0.0141038,-0.018355 -0.0156495,-0.0170563 -0.0170761,-0.0156278 -0.0183729,-0.0140805 -0.0195299,-0.0124261 -0.0205383,-0.0106771 -0.0213905,-0.00884698 -0.02208,-0.00694953 -0.0226016,-0.00499921 -0.0229512,-0.00301087 -0.0231263,-0.000999631 -0.0231254,0.00101922 -0.0229487,0.00303031 -0.0225973,0.00501835 -0.0220741,0.00696822 -0.021383,0.00886509 -0.0205293,0.0106945 -0.0195193,0.0124426 -0.0183609,0.0140961 -0.0170629,0.0156423 -0.0156351,0.0170695 -0.0140883,0.0183669 -0.0124343,0.0195246 -0.0106858,0.0205338 -0.00885604,0.0213868 -0.00695888,0.0220771 -0.00500878,0.0225995 -0.00302059,0.0229499 -0.00100942,0.0231258 0.000916541,0.0220381 0.00274329,0.0218859 0.0045511,0.0215826 -0.0734816,0.0187152 -1.05909,0 -0.0722332,-0.0184715 0.00458613,-0.0216624 0.00276451,-0.0219693 0.000923647,-0.0221232 -0.00100999,-0.0231323 -0.00302227,-0.0229562 -0.00501156,-0.0226055 -0.0069627,-0.0220826 -0.00886085,-0.0213918 -0.0106916,-0.0205381 -0.0124409,-0.0195281 -0.0140956,-0.0183695 -0.0156429,-0.017071 -0.0170713,-0.0156427 -0.0183697,-0.0140953 -0.0195283,-0.0124406 -0.0205382,-0.0106913 -0.0213919,-0.00886053 -0.0220827,-0.00696237 -0.0226055,-0.00501122 -0.0229563,-0.00302193 -0.0231323,-0.00100964 -0.0231323,0.00101033 -0.0229562,0.00302262 -0.0226054,0.0050119 -0.0220825,0.00696303 -0.0213916,0.00886117 -0.0205379,0.0106919 -0.0195279,0.0124412 -0.0183693,0.0140958 -0.0170708,0.0156432 -0.0156424,0.0170715 -0.014095,0.0183699 -0.0124403,0.0195285 -0.010691,0.0205384 -0.00886021,0.021392 -0.00696204,0.0220829 -0.00501088,0.0226056 -0.00302159,0.0229563 -0.0010093,0.0231323 -0.0764051,2.28061e-06 -0.273064,0 2.22045e-16,0.117383 0.0535931,0.033188 -0.0306335,0.413417 0.166811,0.497883 2.66454e-15,7.10543e-15 0.00196406,0.00573713 0.00244728,0.00554824 0.00291258,0.00531874 0.00335656,0.00505031 0.00377597,0.00474491 0.00416774,0.00440478 0.004529,0.00403241 0.00485711,0.00363051 0.00514967,0.00320204 0.00540453,0.00275014 0.00561982,0.0022781 0.00579399,0.00178938 0.00592573,0.00128757 0.00601411,0.000776331 0.00605845,0.00025941 0.212841,0 -0.065225,0.771939 -0.188818,-0.140194 -0.175645,-0.156382 -0.161089,-0.171338 -0.145265,-0.184945 -0.128296,-0.197096 -0.110317,-0.207694 -0.0914686,-0.216656 -0.0719003,-0.223913 -0.0517657,-0.229405 -0.0312234,-0.233091 -0.0104352,-0.234942 0.00995282,-0.229458 0.0297837,-0.227734 0.0493909,-0.2243 0.847975,-0.00639889 0.116342,0.283698 -0.046484,0.149485 -9.84808e-05,0.00401521 0.000247701,0.00400877 0.000592043,0.00397254 0.000931984,0.00390679 0.001265,0.003812 0.00158861,0.00368889 0.00190042,0.00353836 0.00219811,0.00336154 0.00247946,0.00315973 0.00274238,0.00293444 0.00298492,0.00268735 0.00320529,0.00242028 0.00340183,0.00213523 0.00357308,0.0018343 0.00371779,0.00151975 0.00383487,0.0011939 0.00392344,0.000859182 0.00398286,0.000518077 0.00401268,0.000173121 3.23097,0 0.00455801,-0.0012148 0.00443646,-0.00160281 0.00428195,-0.00197891 0.00409562,-0.00234031 0.00387886,-0.00268432 0.00363328,-0.00300839 0.00336071,-0.0033101 0.00306317,-0.00358722 0.00274287,-0.00383769 0.00240218,-0.00405964 0.00204365,-0.00425143 0.00166994,-0.00441163 0.00128381,-0.00453905 0.000888153,-0.00463275 0.000485893,-0.00469202 8.00219e-05,-0.00471644 -0.000326443,-0.00470581 -0.000730483,-0.00466021 -0.0011291,-0.00457999 -0.00151932,-0.00446574 -0.00189825,-0.00431831 -0.00226308,-0.00413879 -0.0549455,-0.090941 0.0516205,-0.335743 0.884165,-0.00667198 0.0552351,0.23663 0.0333279,0.240695 0.0111405,0.242736 -0.0102673,0.233048 -0.0307224,0.231242 -0.0509394,0.227644 -0.0707617,0.222283 -0.0900357,0.215198 -0.670197,-0.0255011 z "/>
<path fill="rgb(241,240,234)" stroke="rgb(241,240,234)" d="M 5.47708,4.85391 l 0.670197,0.0255011 -0.106189,0.202287 -0.123218,0.192389 -0.139331,0.181061 -0.154409,0.168387 -0.168339,0.154461 -0.181017,0.139388 -0.192351,0.123278 -0.202254,0.106252 -0.210654,0.0884368 -0.217489,0.0699638 -0.222707,0.0509709 -0.226269,0.031599 -0.22815,0.0119923 -0.228335,-0.0077035 -0.226823,-0.0273421 -0.223625,-0.0467774 -0.218765,-0.0658651 -0.212279,-0.0844632 -0.204215,-0.102434 -0.194633,-0.119642 0.065225,-0.771939 0.293933,0 0.00351141,0.000228342 0.00351795,-7.86237e-05 0.00349771,-0.000384991 0.00345083,-0.000688427 0.00337768,-0.000986621 0.00327882,-0.0012773 0.00315499,-0.00155826 0.00300715,-0.00182736 0.00283641,-0.00208254 0.00264407,-0.00232187 0.0024316,-0.00254352 0.00220062,-0.0027458 0.00195289,-0.00292718 0.00169029,-0.00308627 0.00141482,-0.00322187 0.00112857,-0.00333294 0.00083374,-0.00341863 0.000532558,-0.0034783 0.0510489,-0.469575 0,-0.196491 0.0740085,0 0,0.93914 2.68218,0 8.88178e-16,-0.557144 z "/>
<path fill="rgb(241,240,234)" stroke="rgb(241,240,234)" d="M 0.2,3.75 l 0.0135088,-0.309403 0.0404237,-0.307048 0.0670308,-0.302357 0.0931279,-0.295364 0.118516,-0.286123 0.143002,-0.274705 0.1664,-0.261196 0.188532,-0.2457 0.209229,-0.228333 0.228333,-0.209229 0.2457,-0.188532 0.261196,-0.1664 0.274705,-0.143002 0.286123,-0.118516 0.295364,-0.0931279 0.302357,-0.0670308 0.307048,-0.0404237 0.309403,-0.0135088 0.309403,0.0135088 0.307048,0.0404237 0.302357,0.0670308 0.295364,0.0931279 0.286123,0.118516 0.274705,0.143002 0.261196,0.1664 0.2457,0.188532 0.228333,0.209229 0.209229,0.228333 0.188532,0.2457 0.1664,0.261196 0.143002,0.274705 0.118516,0.286123 0.0931279,0.295364 0.0670308,0.302357 0.0404237,0.307048 0.0135088,0.309403 -0.2,0 -0.0127478,-0.291972 -0.0381463,-0.28975 -0.0632545,-0.285322 -0.0878812,-0.278724 -0.111839,-0.270004 -0.134946,-0.259229 -0.157026,-0.246481 -0.17791,-0.231857 -0.197441,-0.215469 -0.215469,-0.197441 -0.231857,-0.17791 -0.246481,-0.157026 -0.259229,-0.134946 -0.270004,-0.111839 -0.278724,-0.0878812 -0.285322,-0.0632545 -0.28975,-0.0381463 -0.291972,-0.0127478 -0.291972,0.0127478 -0.28975,0.0381463 -0.285322,0.0632545 -0.278724,0.0878812 -0.270004,0.111839 -0.259229,0.134946 -0.246481,0.157026 -0.231857,0.17791 -0.215469,0.197441 -0.197441,0.215469 -0.17791,0.231857 -0.157026,0.246481 -0.134946,0.259229 -0.111839,0.270004 -0.0878812,0.278724 -0.0632545,0.285322 -0.0381463,0.28975 -0.0127478,0.291972 -0.2,0 z "/>
<path fill="rgb(241,240,234)" stroke="rgb(241,240,234)" d="M 0.2,3.75 l 0.2,0 0.0127478,0.291972 0.0381463,0.28975 0.0632545,0.285322 0.0878812,0.278724 0.111839,0.270004 0.134946,0.259229 0.157026,0.246481 0.17791,0.231857 0.197441,0.215469 0.215469,0.197441 0.231857,0.17791 0.246481,0.157026 0.259229,0.134946 0.270004,0.111839 0.278724,0.0878812 0.285322,0.0632545 0.28975,0.0381463 0.291972,0.0127478 0.291972,-0.0127478 0.28975,-0.0381463 0.285322,-0.0632545 0.278724,-0.0878812 0.270004,-0.111839 0.259229,-0.134946 0.246481,-0.157026 0.231857,-0.17791 0.215469,-0.197441 0.197441,-0.215469 0.17791,-0.231857 0.157026,-0.246481 0.134946,-0.259229 0.111839,-0.270004 0.0878812,-0.278724 0.0632545,-0.285322 0.0381463,-0.28975 0.0127478,-0.291972 0.2,0 -0.0135088,0.309403 -0.0404237,0.307048 -0.0670308,0.302357 -0.0931279,0.295364 -0.118516,0.286123 -0.143002,0.274705 -0.1664,0.261196 -0.188532,0.2457 -0.209229,0.228333 -0.228333,0.209229 -0.2457,0.188532 -0.261196,0.1664 -0.274705,0.143002 -0.286123,0.118516 -0.295364,0.0931279 -0.302357,0.0670308 -0.307048,0.0404237 -0.309403,0.0135088 -0.309403,-0.0135088 -0.307048,-0.0404237 -0.302357,-0.0670308 -0.295364,-0.0931279 -0.286123,-0.118516 -0.274705,-0.143002 -0.261196,-0.1664 -0.2457,-0.188532 -0.228333,-0.209229 -0.209229,-0.228333 -0.188532,-0.2457 -0.1664,-0.261196 -0.143002,-0.274705 -0.118516,-0.286123 -0.0931279,-0.295364 -0.0670308,-0.302357 -0.0404237,-0.307048 -0.0135088,-0.309403 z "/>
<path fill="rgb(42,41,42)" stroke="rgb(42,41,42)" d="M 3.02883,2.28156 l -9.72369e-08,0.000219344 -2.9171e-07,0.000219344 -4.86184e-07,0.000219343 -0.000999629,0.0215689 -0.00287652,0.0213996 -0.00473149,0.0210673 -0.00655043,0.0205745 -0.00831947,0.019925 -0.0100251,0.0191237 -0.0116544,0.0181767 -0.013195,0.0170913 -0.014635,0.0158756 -0.0159635,0.0145391 -0.0171704,0.0130918 -0.0182466,0.0115447 -0.0191837,0.00990975 -0.0199747,0.00819929 -0.0206136,0.00642637 -0.0210954,0.0046045 -0.0214166,0.00274756 -0.0215746,0.000869682 -0.0215682,-0.00101482 -0.0213976,-0.00289159 -0.021064,-0.00474633 -0.0205699,-0.00656492 -0.0199191,-0.0083335 -0.0191166,-0.0100386 -0.0181685,-0.0116672 -0.017082,-0.013207 -0.0158653,-0.0146461 -0.0145278,-0.0159737 -0.0130797,-0.0171796 -0.0115319,-0.0182547 -0.00989624,-0.0191907 -0.00818522,-0.0199805 -0.00641186,-0.0206181 -0.00458965,-0.0210986 -0.00273247,-0.0214185 -0.000854489,-0.0215752 4.42513e-07,-0.000103454 4.85775e-07,-0.000103454 5.29037e-07,-0.000103454 0.00104575,-0.0214441 0.00290104,-0.0212727 0.00473448,-0.0209411 0.00653226,-0.0204517 0.00828084,-0.0198083 0.00996706,-0.0190158 0.0115782,-0.01808 0.0131022,-0.0170081 0.0145275,-0.0158081 0.0158433,-0.014489 0.0170399,-0.0130608 0.0181081,-0.0115343 0.0190399,-0.00992085 0.0198284,-0.00823271 0.0204675,-0.00648256 0.0209525,-0.0046836 0.0212797,-0.00284936 0.0214466,-0.000993663 0.021452,0.000869518 0.0212958,0.00272615 0.0209792,0.00456225 0.0205047,0.00636399 0.0198757,0.00811781 0.0190971,0.00981048 0.0181746,0.0114293 0.0171152,0.012962 0.0159269,0.0143971 0.0146187,0.0157237 0.0132004,0.016932 0.0116827,0.0180127 0.010077,0.0189578 0.00839535,0.0197601 0.00665052,0.0204136 0.0048556,0.0209133 0.00302411,0.0212555 0.00116985,0.0214377 4.88324e-06,0.000481706 3.94525e-06,0.000481714 3.00724e-06,0.000481721 1.90785e-06,0.000434504 1.14471e-06,0.000434507 3.81571e-07,0.000434508 z "/>
<path fill="rgb(42,41,42)" stroke="rgb(42,41,42)" d="M 4.80501,2.28156 l -0.00094547,0.0216082 -0.00282918,0.021443 -0.00469127,0.021114 -0.00651751,0.0206235 -0.00829392,0.0199755 -0.0100069,0.0191747 -0.0116435,0.0182274 -0.013191,0.0171408 -0.0146377,0.0159231 -0.0159726,0.0145838 -0.0171853,0.0131329 -0.0182667,0.0115817 -0.0192085,0.00994198 -0.0200034,0.00822626 -0.0206455,0.00644766 -0.0211297,0.00461978 -0.0214525,0.00275658 -0.0216113,0.000872322 -0.0216049,-0.00101861 -0.0214333,-0.00290175 -0.021098,-0.00476272 -0.0206014,-0.00658728 -0.0199473,-0.00836149 -0.0191407,-0.0100718 -0.0181879,-0.0117051 -0.017096,-0.013249 -0.0158735,-0.0146915 -0.0145296,-0.0160218 -0.0130747,-0.0172297 -0.0115198,-0.0183058 -0.0098769,-0.019242 -0.0081585,-0.0200312 -0.00637774,-0.0206672 -0.00454823,-0.0211453 -0.00268395,-0.0214617 -0.000799163,-0.0216141 0.00107864,-0.0214624 0.0029371,-0.0212878 0.0047734,-0.0209526 0.00657368,-0.0204593 0.00832436,-0.0198116 0.0100122,-0.0190145 0.0116246,-0.0180739 0.0131492,-0.0169969 0.0145746,-0.0157917 0.01589,-0.0144673 0.0170856,-0.0130338 0.0181522,-0.0115019 0.0190819,-0.00988327 0.0198675,-0.00819004 0.0205033,-0.00643502 0.0209844,-0.00463144 0.0213072,-0.00279292 0.0214692,-0.000933319 0.0214692,0.000933319 0.0213072,0.00279292 0.0209844,0.00463144 0.0205033,0.00643502 0.0198675,0.00819004 0.0190819,0.00988327 0.0181522,0.0115019 0.0170856,0.0130338 0.01589,0.0144673 0.0145746,0.0157917 0.0131492,0.0169969 0.0116246,0.0180739 0.0100122,0.0190145 0.00832436,0.0198116 0.00657368,0.0204593 0.0047734,0.0209526 0.0029371,0.0212878 0.00107864,0.0214624 3.14964e-06,0.000558277 1.88979e-06,0.000558283 6.29931e-07,0.000558286 z "/>
<path fill="rgb(42,41,42)" stroke="rgb(42,41,42)" d="M 4.46029,4.06103 l -0.00100997,0.0231321 -0.00302222,0.022956 -0.00501146,0.0226053 -0.00696257,0.0220825 -0.00886069,0.0213916 -0.0106914,0.0205379 -0.0124407,0.019528 -0.0140953,0.0183694 -0.0156427,0.017071 -0.017071,0.0156427 -0.0183694,0.0140953 -0.019528,0.0124407 -0.0205379,0.0106914 -0.0213916,0.00886069 -0.0220825,0.00696257 -0.0226053,0.00501146 -0.022956,0.00302222 -0.0231321,0.00100997 -0.0231321,-0.00100997 -0.022956,-0.00302222 -0.0226053,-0.00501146 -0.0220825,-0.00696257 -0.0213916,-0.00886069 -0.0205379,-0.0106914 -0.019528,-0.0124407 -0.0183694,-0.0140953 -0.017071,-0.0156427 -0.0156427,-0.017071 -0.0140953,-0.0183694 -0.0124407,-0.019528 -0.0106914,-0.0205379 -0.00886069,-0.0213916 -0.00696257,-0.0220825 -0.00501146,-0.0226053 -0.00302222,-0.022956 -0.00100997,-0.0231321 0.00100942,-0.0231258 0.00302059,-0.0229499 0.00500878,-0.0225995 0.00695888,-0.0220771 0.00885604,-0.0213868 0.0106858,-0.0205338 0.0124343,-0.0195246 0.0140883,-0.0183669 0.0156351,-0.0170695 0.0170629,-0.0156423 0.0183609,-0.0140961 0.0195193,-0.0124426 0.0205293,-0.0106945 0.021383,-0.00886509 0.0220741,-0.00696822 0.0225973,-0.00501835 0.0229487,-0.00303031 0.0231254,-0.00101922 0.0231263,0.000999631 0.0229512,0.00301087 0.0226016,0.00499921 0.02208,0.00694953 0.0213905,0.00884698 0.0205383,0.0106771 0.0195299,0.0124261 0.0183729,0.0140805 0.0170761,0.0156278 0.0156495,0.0170563 0.0141038,0.018355 0.0124509,0.0195141 0.0107032,0.0205247 0.00887415,0.0213793 0.00697757,0.0220712 0.00502792,0.0225952 0.00304003,0.0229474 0.00102901,0.023125 5.28718e-08,7.49206e-05 3.17231e-08,7.49206e-05 1.05744e-08,7.49206e-05 z "/>
<path fill="rgb(42,41,42)" stroke="rgb(42,41,42)" d="M 5.05568,4.06017 l -0.00108008,-0.0230815 -0.00308356,-0.0229 -0.00506367,-0.0225451 -0.0070054,-0.0220192 -0.00889403,-0.0213264 -0.0107152,-0.020472 -0.0124552,-0.0194625 -0.0141008,-0.0183054 -0.0156396,-0.0170095 -0.0170597,-0.0155848 -0.0183506,-0.0140419 -0.0195024,-0.0123926 -0.0205064,-0.0106493 -0.0213549,-0.00882539 -0.0220416,-0.00693454 -0.0225612,-0.00499113 -0.0229098,-0.00300989 -0.0230848,-0.00100584 -0.0230848,0.00100584 -0.0229098,0.00300989 -0.0225612,0.00499113 -0.0220416,0.00693454 -0.0213549,0.00882539 -0.0205064,0.0106493 -0.0195024,0.0123926 -0.0183506,0.0140419 -0.0170597,0.0155848 -0.0156396,0.0170095 -0.0141008,0.0183054 -0.0124552,0.0194625 -0.0107152,0.020472 -0.00889403,0.0213264 -0.0070054,0.0220192 -0.00506367,0.0225451 -0.00308356,0.0229 -0.00108008,0.0230815 0.00108008,-0.0230815 0.00308356,-0.0229 0.00506367,-0.0225451 0.0070054,-0.0220192 0.00889403,-0.0213264 0.0107152,-0.020472 0.0124552,-0.0194625 0.0141008,-0.0183054 0.0156396,-0.0170095 0.0170597,-0.0155848 0.0183506,-0.0140419 0.0195024,-0.0123926 0.0205064,-0.0106493 0.0213549,-0.00882539 0.0220416,-0.00693454 0.0225612,-0.00499113 0.0229098,-0.00300989 0.0230848,-0.00100584 0.0230848,0.00100584 0.0229098,0.00300989 0.0225612,0.00499113 0.0220416,0.00693454 0.0213549,0.00882539 0.0205064,0.0106493 0.0195024,0.0123926 0.0183506,0.0140419 0.0170597,0.0155848 0.0156396,0.0170095 0.0141008,0.0183054 0.0124552,0.0194625 0.0107152,0.020472 0.00889403,0.0213264 0.0070054,0.0220192 0.00506367,0.0225451 0.00308356,0.0229 0.00108008,0.0230815 z "/>
<path fill="rgb(42,41,42)" stroke="rgb(42,41,42)" d="M 5.04744,4.12663 l -0.00673119,0.0222638 -0.00865454,0.021589 -0.0105114,0.0207484 -0.0122876,0.0197484 -0.0139694,0.0185968 -0.0155439,0.0173024 -0.016999,0.0158751 -0.0183236,0.0143258 -0.0195075,0.0126666 -0.0205416,0.0109101 -0.0214179,0.00906976 -0.0221297,0.00715979 -0.0226715,0.00519484 -0.0230393,0.00319 -0.0232301,0.00116065 -0.0232425,-0.000877605 -0.0230764,-0.00290912 -0.0227331,-0.0049183 -0.0222152,-0.0068897 -0.0215267,-0.0088082 -0.0206729,-0.010659 -0.0196603,-0.012428 -0.0184968,-0.0141016 -0.0171912,-0.0156668 -0.0157535,-0.0171118 -0.0141949,-0.0184253 -0.0125272,-0.0195973 -0.0107634,-0.0206188 -0.00891687,-0.021482 -0.00700188,-0.0221801 -0.00503312,-0.022708 -0.0030257,-0.0230614 -0.000995052,-0.0232378 1.13186e-07,-9.33276e-05 1.46003e-07,-9.33276e-05 1.7882e-07,-9.33275e-05 1.38167e-08,-6.56613e-06 1.39792e-08,-6.56613e-06 1.41416e-08,-6.56613e-06 2.73077e-08,-1.24716e-05 2.78937e-08,-1.24716e-05 2.84797e-08,-1.24716e-05 1.64615e-08,-7.09418e-06 1.66511e-08,-7.09418e-06 1.68407e-08,-7.09418e-06 1.74725e-08,-7.27729e-06 1.7672e-08,-7.27729e-06 1.78715e-08,-7.27729e-06 2.29034e-08,-9.2098e-06 2.3223e-08,-9.2098e-06 2.35426e-08,-9.2098e-06 1.52443e-07,-5.68662e-05 1.64627e-07,-5.68661e-05 1.76811e-07,-5.68661e-05 0.00108008,-0.0230815 0.00308356,-0.0229 0.00506367,-0.0225451 0.0070054,-0.0220192 0.00889403,-0.0213264 0.0107152,-0.020472 0.0124552,-0.0194625 0.0141008,-0.0183054 0.0156396,-0.0170095 0.0170597,-0.0155848 0.0183506,-0.0140419 0.0195024,-0.0123926 0.0205064,-0.0106493 0.0213549,-0.00882539 0.0220416,-0.00693454 0.0225612,-0.00499113 0.0229098,-0.00300989 0.0230848,-0.00100584 0.0230848,0.00100584 0.0229098,0.00300989 0.0225612,0.00499113 0.0220416,0.00693454 0.0213549,0.00882539 0.0205064,0.0106493 0.0195024,0.0123926 0.0183506,0.0140419 0.0170597,0.0155848 0.0156396,0.0170095 0.0141008,0.0183054 0.0124552,0.0194625 0.0107152,0.020472 0.00889403,0.0213264 0.0070054,0.0220192 0.00506367,0.0225451 0.00308356,0.0229 0.00108008,0.0230815 1.76811e-07,5.68661e-05 1.64627e-07,5.68661e-05 1.52443e-07,5.68662e-05 2.35426e-08,9.2098e-06 2.3223e-08,9.2098e-06 2.29034e-08,9.2098e-06 1.78715e-08,7.27729e-06 1.7672e-08,7.27729e-06 1.74725e-08,7.27729e-06 1.68407e-08,7.09418e-06 1.66511e-08,7.09418e-06 1.64615e-08,7.09418e-06 2.84797e-08,1.24716e-05 2.78937e-08,1.24716e-05 2.73077e-08,1.24716e-05 1.41416e-08,6.56613e-06 1.39792e-08,6.56613e-06 1.38167e-08,6.56613e-06 3.22614e-07,0.000185068 1.93569e-07,0.000185068 6.45228e-08,0.000185068 -0.000919332,0.0220716 -0.00275163,0.0219187 -0.00456486,0.021614 z "/>
<path fill="rgb(42,41,42)" stroke="rgb(42,41,42)" d="M 2.74115,4.06102 l -0.000923647,0.0221232 -0.00276451,0.0219693 -0.00458613,0.0216624 -0.00673982,0.0222473 -0.00866062,0.0215722 -0.010515,0.0207317 -0.0122887,0.0197321 -0.0139681,0.0185812 -0.0155404,0.0172877 -0.0169935,0.0158616 -0.0183162,0.0143138 -0.0194984,0.0126562 -0.020531,0.0109016 -0.0214062,0.0090633 -0.0221171,0.00715549 -0.0226584,0.00519279 -0.0230259,0.00319026 -0.0232167,0.00116325 -0.0232294,-0.000872679 -0.023064,-0.00290191 -0.0227216,-0.00490889 -0.0222049,-0.00687821 -0.0215179,-0.00879476 -0.0206658,-0.0106439 -0.0196552,-0.0124113 -0.0184938,-0.0140835 -0.0171906,-0.0156477 -0.0157555,-0.0170919 -0.0141995,-0.0184049 -0.0125346,-0.0195768 -0.0107735,-0.0205985 -0.00892985,-0.0214622 -0.00701765,-0.0221612 -0.00505162,-0.0226903 -0.00304683,-0.0230453 -0.00101868,-0.0232235 0.0010093,-0.0231323 0.00302159,-0.0229563 0.00501088,-0.0226056 0.00696204,-0.0220829 0.00886021,-0.021392 0.010691,-0.0205384 0.0124403,-0.0195285 0.014095,-0.0183699 0.0156424,-0.0170715 0.0170708,-0.0156432 0.0183693,-0.0140958 0.0195279,-0.0124412 0.0205379,-0.0106919 0.0213916,-0.00886117 0.0220825,-0.00696303 0.0226054,-0.0050119 0.0229562,-0.00302262 0.0231323,-0.00101033 0.0231323,0.00100964 0.0229563,0.00302193 0.0226055,0.00501122 0.0220827,0.00696237 0.0213919,0.00886053 0.0205382,0.0106913 0.0195283,0.0124406 0.0183697,0.0140953 0.0170713,0.0156427 0.0156429,0.017071 0.0140956,0.0183695 0.0124409,0.0195281 0.0106916,0.0205381 0.00886085,0.0213918 0.0069627,0.0220826 0.00501156,0.0226055 0.00302227,0.0229562 0.00100999,0.0231323 z "/>
<path fill="rgb(42,41,42)" stroke="rgb(42,41,42)" d="M 4.96416,2.86995 l 0,-0.575831 0.52654,0.0854031 0,0.0829846 -0.0531922,0.0332254 0,0.401822 -0.0213807,0.139061 -0.102174,0.000771012 0.0239572,-0.159759 0.000134409,-0.00127456 2.24326e-05,-0.00128143 -8.97161e-05,-0.00127848 -0.000201177,-0.00126574 -0.000311097,-0.00124329 -0.000418633,-0.00121133 -0.000522961,-0.00117007 -0.000623283,-0.00111986 -0.000718828,-0.00106106 -0.000808865,-0.000994133 -0.000892705,-0.000919588 -0.000969704,-0.000837996 -0.00103927,-0.000749984 -0.00110088,-0.000656225 -0.00115405,-0.000557437 -0.00119838,-0.000454378 -0.00123352,-0.000347838 -0.00125921,-0.000238632 -0.0013938,-0.000133755 -0.00140021,0 -0.0013938,0.000133755 -0.262331,0 -0.00144517,6.29784e-05 -0.00143422,0.000188458 -0.00141238,0.000312508 -0.00137984,0.000434189 -0.00133684,0.000552578 -0.00128371,0.000666777 -0.00122083,0.000775921 -0.00114871,0.000879182 -0.00106787,0.000975777 -0.000978939,0.00106497 -0.000882584,0.0011461 -0.000779537,0.00121853 -0.00067058,0.00128172 -0.000556539,0.0013352 -0.000438278,0.00137855 -0.000316694,0.00141145 -0.000192709,0.00143365 -6.72626e-05,0.00144498 -6.48972e-08,3.28347e-05 0,3.28348e-05 6.48972e-08,3.28347e-05 0,0.161809 -0.076375,0.000576332 0,-0.162385 -6.45957e-05,-0.00147736 -0.000193294,-0.00146609 -0.000320517,-0.00144362 -0.000445294,-0.00141014 -0.000566672,-0.00136589 -0.000267945,-0.000513853 z "/>
<path fill="rgb(42,41,42)" stroke="rgb(42,41,42)" d="M 2.66655,2.86095 l 3.07549e-07,8.53007e-12 -1.02516e-07,-3.47544e-12 -1.02516e-07,-2.84306e-12 -1.02516e-07,-2.21156e-12 z M 1.96416,2.27988 l 0.50141,0 0.00106865,0.0277383 0.0034902,0.0275386 0.00588502,0.0271279 0.00823474,0.0265093 0.0105214,0.0256877 0.0127274,0.0246692 0.0148359,0.0234617 0.0168307,0.0220745 0.0186966,0.0205181 0.0204192,0.0188045 0.0219854,0.0169469 0.0233832,0.0149594 0.0246017,0.0128573 0.0256318,0.0106567 0.0264655,0.00837439 0.0270965,0.00602796 0.0275198,0.00363535 0.0277323,0.00121489 0.0277323,-0.00121489 0.0275198,-0.00363535 0.0270965,-0.00602796 0.0264655,-0.00837439 0.0256318,-0.0106567 0.0246017,-0.0128573 0.0224166,-0.014341 0,0.319386 -0.297616,-1.10064e-05 -0.00144798,6.31484e-05 -0.00143698,0.000188966 -0.00141508,0.000313348 -0.00138242,0.000435351 -0.00133928,0.000554049 -0.00128596,0.000668539 -0.00122287,0.000777953 -0.0011505,0.000881459 -0.0010694,0.000978272 -0.000980172,0.00106766 -0.000883503,0.00114893 -0.000780125,0.00122149 -0.000670824,0.00128477 -0.000556429,0.00133829 -0.000437808,0.00138165 -0.000315863,0.00141452 -0.00019152,0.00143664 -6.57225e-05,0.00144786 -2.3363e-08,1.97125e-05 0,1.97125e-05 2.3363e-08,1.97125e-05 0,0.179872 -0.104622,0.000789489 0,-0.2305 -6.31686e-05,-0.00144735 -0.000189025,-0.00143634 -0.000313445,-0.00141441 -0.00043548,-0.00138172 -0.000554204,-0.00133853 -0.000668713,-0.00128516 -0.000778137,-0.00122201 -0.000881643,-0.00114957 -0.000978444,-0.00106839 -0.0010678,-0.000979079 -0.00114904,-0.000882326 -0.00122155,-0.000778863 -0.00128476,-0.000669477 -0.0013382,-0.000554999 -0.00138146,-0.000436301 -0.00141422,-0.000314285 -0.00143623,-0.000189879 -0.00144731,-6.40283e-05 -4.66294e-14,0 -0.418405,0 -0.0464939,0.0797094 0.0684506,0.17052 -0.0951395,0.00071793 -0.072938,-0.177857 0.0498085,-0.07309 -8.88178e-16,-0.431644 -0.0498085,0 0,-0.0996368 z "/>
<path fill="rgb(42,41,42)" stroke="rgb(42,41,42)" d="M 4.96416,2.86995 l -0.00041578,-0.000797365 -0.00079556,-0.00124654 -0.000901322,-0.00117234 -0.00100021,-0.0010892 -0.00109145,-0.000997747 -0.00117437,-0.000898677 -0.00124833,-0.000792747 -0.00131276,-0.000680767 -0.00136716,-0.000563591 -0.00141114,-0.000442114 -0.00144434,-0.000317262 -0.00146652,-0.000189988 -0.0014775,-6.12645e-05 -0.00147721,6.79266e-05 -0.00146565,0.000196599 -0.431674,0 -0.00145125,6.34348e-05 -0.00144018,0.00018982 -0.00141813,0.000314758 -0.00138525,0.000437295 -0.00134181,0.000556496 -0.00128814,0.000671453 -0.00122464,0.000781287 -0.0011518,0.000885163 -0.00107017,0.000982286 -0.000980382,0.00107192 -0.000883114,0.00115337 -0.000779109,0.00122603 -0.000669162,0.00128933 -0.00055411,0.0013428 -0.000434832,0.00138603 -0.000312237,0.00141868 -0.00018726,0.00144052 -6.08547e-05,0.00145136 8.88178e-16,0.165918 -0.0797094,0.000601494 0,-0.16651 -6.45957e-05,-0.00147736 -0.000193294,-0.00146609 -0.000320517,-0.00144362 -0.000445294,-0.00141014 -0.000566672,-0.00136589 -0.000683725,-0.00131122 -0.00079556,-0.00124654 -0.000901322,-0.00117234 -0.00100021,-0.0010892 -0.00109145,-0.000997747 -0.00117437,-0.000898677 -0.00124833,-0.000792747 -0.00131276,-0.000680767 -0.00136716,-0.000563591 -0.00141114,-0.000442114 -0.00144434,-0.000317262 -0.00146652,-0.000189988 -0.0014775,-6.12645e-05 -0.00147721,6.79266e-05 -0.00146565,0.000196599 -0.434027,-1.60511e-05 0,-0.581073 0.274668,1.77636e-15 0.00121227,0.0277848 0.00362931,0.0275734 0.00601873,0.0271522 0.00836234,0.0265243 0.0106423,0.0256945 0.0128413,0.0246692 0.0149425,0.0234561 0.01693,0.0220645 0.0187887,0.0205049 0.0205043,0.0187893 0.0220639,0.0169307 0.0234556,0.0149432 0.0246688,0.012842 0.0256942,0.0106431 0.026524,0.00836316 0.027152,0.00601957 0.0275733,0.00363017 0.0277848,0.00121313 0.0277848,-0.00121313 0.0275733,-0.00363017 0.027152,-0.00601957 0.026524,-0.00836316 0.0256942,-0.0106431 0.0246688,-0.012842 0.0234556,-0.0149432 0.0220639,-0.0169307 0.0205043,-0.0187893 0.0187887,-0.0205049 0.01693,-0.0220645 0.0149425,-0.0234561 0.0128413,-0.0246692 0.0106423,-0.0256945 0.00836234,-0.0265243 0.00601873,-0.0271522 0.00362931,-0.0275734 0.00121227,-0.0277848 0.0877556,0.0142337 0,0.575831 z "/>
<path fill="rgb(42,41,42)" stroke="rgb(42,41,42)" d="M 3.89685,2.86095 l 3.07549e-07,8.53007e-12 -1.02516e-07,-3.47544e-12 -1.02516e-07,-2.84306e-12 -1.02516e-07,-2.21156e-12 z M 3.28252,2.86095 l 3.0755e-07,8.53007e-12 -1.02517e-07,-3.47544e-12 -1.02517e-07,-2.84306e-12 -1.02517e-07,-2.21156e-12 z M 3.96416,2.27988 l 0,0.581073 -0.0673132,-2.48936e-06 -0.00144798,6.31484e-05 -0.00143698,0.000188966 -0.00141508,0.000313348 -0.00138242,0.000435351 -0.00133928,0.000554049 -0.00128596,0.000668539 -0.00122287,0.000777953 -0.0011505,0.000881459 -0.0010694,0.000978272 -0.000980172,0.00106766 -0.000883503,0.00114893 -0.000780125,0.00122149 -0.000670824,0.00128477 -0.000556429,0.00133829 -0.000437808,0.00138165 -0.000315863,0.00141452 -0.00019152,0.00143664 -6.57225e-05,0.00144786 -2.3363e-08,1.97125e-05 0,1.97125e-05 2.3363e-08,1.97125e-05 0,0.170588 -0.0764551,0.000576936 0,-0.171146 -6.45957e-05,-0.00147736 -0.000193294,-0.00146609 -0.000320517,-0.00144362 -0.000445294,-0.00141014 -0.000566672,-0.00136589 -0.000683725,-0.00131122 -0.00079556,-0.00124654 -0.000901322,-0.00117234 -0.00100021,-0.0010892 -0.00109145,-0.000997747 -0.00117437,-0.000898677 -0.00124833,-0.000792747 -0.00131276,-0.000680767 -0.00136716,-0.000563591 -0.00141114,-0.000442114 -0.00144434,-0.000317262 -0.00146652,-0.000189988 -0.0014775,-6.12645e-05 -0.00147721,6.79266e-05 -0.00146565,0.000196599 -0.501341,-1.85405e-05 -0.00144798,6.31484e-05 -0.00143698,0.000188966 -0.00141508,0.000313348 -0.00138242,0.000435351 -0.00133928,0.000554049 -0.00128596,0.000668539 -0.00122287,0.000777953 -0.0011505,0.000881459 -0.0010694,0.000978272 -0.000980172,0.00106766 -0.000883503,0.00114893 -0.000780125,0.00122149 -0.000670824,0.00128477 -0.000556429,0.00133829 -0.000437808,0.00138165 -0.000315863,0.00141452 -0.00019152,0.00143664 -6.57225e-05,0.00144786 -2.3363e-08,1.97125e-05 0,1.97125e-05 2.3363e-08,1.97125e-05 0,0.175224 -0.0780867,0.000589248 0,-0.175794 -6.45957e-05,-0.00147736 -0.000193294,-0.00146609 -0.000320517,-0.00144362 -0.000445294,-0.00141014 -0.000566672,-0.00136589 -0.000683725,-0.00131122 -0.00079556,-0.00124654 -0.000901322,-0.00117234 -0.00100021,-0.0010892 -0.00109145,-0.000997747 -0.00117437,-0.000898677 -0.00124833,-0.000792747 -0.00131276,-0.000680767 -0.00136716,-0.000563591 -0.00141114,-0.000442114 -0.00144434,-0.000317262 -0.00146652,-0.000189988 -0.0014775,-6.12645e-05 -0.00147721,6.79266e-05 -0.00146565,0.000196599 -0.203724,-7.53409e-06 0,-0.319386 0.000966558,-0.000618356 0.0219854,-0.0169469 0.0204192,-0.0188045 0.0186966,-0.0205181 0.0168307,-0.0220745 0.0148359,-0.0234617 0.0127274,-0.0246692 0.0105214,-0.0256877 0.00823474,-0.0265093 0.00588502,-0.0271279 0.0034902,-0.0275386 0.00106865,-0.0277383 0.864338,-1.77636e-15 z "/>
<path fill="rgb(42,41,42)" stroke="rgb(42,41,42)" d="M 3.88022,3.40889 l -6.73501e-05,0.00133362 4.92653e-05,0.00133441 0.000165505,0.00132503 0.000280482,0.00130553 0.00039332,0.00127608 0.000503158,0.0012369 0.000609159,0.00118828 0.000710513,0.0011306 0.000806449,0.0010643 0.000896233,0.000989874 0.000979182,0.000907902 0.00105466,0.000819006 0.0011221,0.000723864 0.00118098,0.0006232 0.00123085,0.000517783 0.00127133,0.000408417 0.00130212,0.000295936 0.00132297,0.000181198 0.000939909,5.80057e-05 0.000941697,3.48257e-08 0.000939913,-5.79362e-05 0.50134,1.85405e-05 2.49303e-07,7.68319e-12 2.49303e-07,4.60965e-12 2.49303e-07,1.53655e-12 0.00175946,-7.66816e-05 0.00174612,-0.000229463 0.00171953,-0.000380505 0.00167991,-0.000528661 0.00162755,-0.000672808 0.00156284,-0.000811854 0.00148628,-0.000944742 0.00139846,-0.00107047 0.00130002,-0.00118807 0.00119173,-0.00129667 0.0010744,-0.00139543 0.000948927,-0.00148362 0.000816255,-0.00156055 0.000677393,-0.00162564 0.000533394,-0.00167841 0.00038535,-0.00171845 0,-0.364771 0.0797094,-0.000601494 -8.88178e-16,0.365363 -6.73506e-05,0.00133368 4.92758e-05,0.00133447 0.000165526,0.00132509 0.000280514,0.00130559 0.000393362,0.00127613 0.00050321,0.00123694 0.000609219,0.00118832 0.000710582,0.00113063 0.000806524,0.00106432 0.000896314,0.000989885 0.000979267,0.000907903 0.00105475,0.000818995 0.00112219,0.00072384 0.00118107,0.000623164 0.00123094,0.000517734 0.00127142,0.000408356 0.0013022,0.000295862 0.00132305,0.000181111 0.000939536,5.79246e-05 0.00094132,0 0.000939536,-5.79246e-05 0.431674,0 0.00175946,-7.66816e-05 0.00174612,-0.000229463 0.00171953,-0.000380505 0.00167991,-0.000528661 0.00162755,-0.000672808 0.00156284,-0.000811854 0.00148628,-0.000944742 0.00139846,-0.00107047 0.00130002,-0.00118807 0.00119173,-0.00129667 0.0010744,-0.00139543 0.000948927,-0.00148362 0.000816255,-0.00156055 0.000677393,-0.00162564 0.000533394,-0.00167841 0.00038535,-0.00171845 0,-0.368896 0.076375,-0.000576332 0,0.369472 -9.7313e-05,0.00130703 1.71881e-05,0.00131053 0.000131558,0.00130403 0.000244923,0.00128756 0.000356416,0.00126125 0.000465187,0.00122531 0.000570404,0.00118001 0.000671264,0.0011257 0.000766996,0.00106278 0.000856868,0.000991749 0.000940194,0.00091314 0.00101634,0.000827554 0.00108472,0.000735647 0.00114481,0.000638119 0.00119616,0.000535717 0.00123837,0.000429222 0.00127112,0.000319449 0.00129416,0.000207235 0.00114665,8.81347e-05 0.00115004,0 0.00114665,-8.81347e-05 0.182641,0 0.00140204,-5.93393e-05 0.00139202,-0.000177593 0.00137203,-0.000294577 0.00134223,-0.000409454 0.00130284,-0.000521403 0.00125412,-0.000629622 0.00119644,-0.000733338 0.00113019,-0.000831809 0.00105587,-0.000924331 0.000973991,-0.00101024 0.000885147,-0.00108893 0.000789972,-0.00115982 0.000689148,-0.00122242 0.000583394,-0.00127628 0.000473467,-0.00132101 0.00033067,-0.00122525 0.000236062,-0.00124693 0.000140073,-0.00126133 4.32641e-05,-0.00126834 0.0557127,-0.371522 0.102174,-0.000771012 -0.0516205,0.335743 0.0549455,0.090941 0.00226308,0.00413879 0.00189825,0.00431831 0.00151932,0.00446574 0.0011291,0.00457999 0.000730483,0.00466021 0.000326443,0.00470581 -8.00219e-05,0.00471644 -0.000485893,0.00469202 -0.000888153,0.00463275 -0.00128381,0.00453905 -0.00166994,0.00441163 -0.00204365,0.00425143 -0.00240218,0.00405964 -0.00274287,0.00383769 -0.00306317,0.00358722 -0.00336071,0.0033101 -0.00363328,0.00300839 -0.00387886,0.00268432 -0.00409562,0.00234031 -0.00428195,0.00197891 -0.00443646,0.00160281 -0.00455801,0.0012148 -3.23097,0 -0.00401268,-0.000173121 -0.00398286,-0.000518077 -0.00392344,-0.000859182 -0.00383487,-0.0011939 -0.00371779,-0.00151975 -0.00357308,-0.0018343 -0.00340183,-0.00213523 -0.00320529,-0.00242028 -0.00298492,-0.00268735 -0.00274238,-0.00293444 -0.00247946,-0.00315973 -0.00219811,-0.00336154 -0.00190042,-0.00353836 -0.00158861,-0.00368889 -0.001265,-0.003812 -0.000931984,-0.00390679 -0.000592043,-0.00397254 -0.000247701,-0.00400877 9.84808e-05,-0.00401521 0.046484,-0.149485 -0.116342,-0.283698 0.0951395,-0.00071793 0.12084,0.301028 0.000355548,0.0014454 0.000484188,0.00140753 0.000608899,0.00135824 0.000728667,0.00129793 0.000842522,0.00122709 0.000949538,0.00114628 0.00104885,0.00105617 0.00113965,0.000957494 0.00122119,0.000851042 0.00129283,0.000737683 0.00135397,0.000618337 0.00140413,0.000493973 0.00144289,0.000365599 0.00146994,0.000234259 0.00148505,0.000101017 0.259781,0 0.00144649,-6.31311e-05 0.00143549,-0.000188913 0.00141357,-0.000313259 0.0013809,-0.000435222 0.00133773,-0.000553875 0.00128439,-0.000668316 0.00122128,-0.000777675 0.00114889,-0.00088112 0.00106775,-0.000977863 0.000978497,-0.00106717 0.000881802,-0.00114836 0.0007784,-0.00122082 0.000669079,-0.001284 0.00055467,-0.00133741 0.000436042,-0.00138064 0.000314098,-0.00141338 0.000189766,-0.00143537 6.39903e-05,-0.00144645 0,-1.39888e-13 0,-0.30085 0.104622,-0.000789489 0,0.351409 -6.73501e-05,0.00133362 4.92653e-05,0.00133441 0.000165505,0.00132503 0.000280482,0.00130553 0.00039332,0.00127608 0.000503158,0.0012369 0.000609159,0.00118828 0.000710513,0.0011306 0.000806449,0.0010643 0.000896233,0.000989874 0.000979182,0.000907902 0.00105466,0.000819006 0.0011221,0.000723864 0.00118098,0.0006232 0.00123085,0.000517783 0.00127133,0.000408417 0.00130212,0.000295936 0.00132297,0.000181198 0.000939909,5.80057e-05 0.000941697,3.48257e-08 0.000939913,-5.79362e-05 0.50134,1.85405e-05 2.49303e-07,7.68363e-12 2.49303e-07,4.60965e-12 2.49303e-07,1.53655e-12 0.00175946,-7.66816e-05 0.00174612,-0.000229463 0.00171953,-0.000380505 0.00167991,-0.000528661 0.00162755,-0.000672808 0.00156284,-0.000811854 0.00148628,-0.000944742 0.00139846,-0.00107047 0.00130002,-0.00118807 0.00119173,-0.00129667 0.0010744,-0.00139543 0.000948927,-0.00148362 0.000816255,-0.00156055 0.000677393,-0.00162564 0.000533394,-0.00167841 0.00038535,-0.00171845 0,-0.355487 0.0780867,-0.000589248 0,0.356057 -6.73501e-05,0.00133362 4.92653e-05,0.00133441 0.000165505,0.00132503 0.000280482,0.00130553 0.00039332,0.00127608 0.000503158,0.0012369 0.000609159,0.00118828 0.000710513,0.0011306 0.000806449,0.0010643 0.000896233,0.000989874 0.000979182,0.000907902 0.00105466,0.000819006 0.0011221,0.000723864 0.00118098,0.0006232 0.00123085,0.000517783 0.00127133,0.000408417 0.00130212,0.000295936 0.00132297,0.000181198 0.000939909,5.80057e-05 0.000941697,3.48257e-08 0.000939913,-5.79362e-05 0.50134,1.85405e-05 2.49303e-07,7.68363e-12 2.49303e-07,4.60965e-12 2.49303e-07,1.53655e-12 0.00175946,-7.66816e-05 0.00174612,-0.000229463 0.00171953,-0.000380505 0.00167991,-0.000528661 0.00162755,-0.000672808 0.00156284,-0.000811854 0.00148628,-0.000944742 0.00139846,-0.00107047 0.00130002,-0.00118807 0.00119173,-0.00129667 0.0010744,-0.00139543 0.000948927,-0.00148362 0.000816255,-0.00156055 0.000677393,-0.00162564 0.000533394,-0.00167841 0.00038535,-0.00171845 0,-0.360135 0.0764551,-0.000576936 0,0.360693 z "/>
<path fill="rgb(42,41,42)" stroke="rgb(42,41,42)" d="M 2.72089,4.66841 l -0.0510489,0.469575 -0.000532558,0.0034783 -0.00083374,0.00341863 -0.00112857,0.00333294 -0.00141482,0.00322187 -0.00169029,0.00308627 -0.00195289,0.00292718 -0.00220062,0.0027458 -0.0024316,0.00254352 -0.00264407,0.00232187 -0.00283641,0.00208254 -0.00300715,0.00182736 -0.00315499,0.00155826 -0.00327882,0.0012773 -0.00337768,0.000986621 -0.00345083,0.000688427 -0.00349771,0.000384991 -0.00351795,7.86237e-05 -0.00351141,-0.000228342 -0.293933,0 0.00991918,-0.117394 0.165153,0 0.00287741,8.78976e-05 0.00287424,-0.000161185 0.00284954,-0.000409061 0.00280351,-0.000653874 0.00273649,-0.000893791 0.00264897,-0.00112702 0.00254162,-0.0013518 0.00241524,-0.00156647 0.00227078,-0.0017694 0.00210931,-0.00195909 0.00193205,-0.0021341 0.00174032,-0.00229314 0.00153557,-0.00243501 0.00131931,-0.00255864 0.00109317,-0.00266312 0.000858853,-0.00274765 0.000618102,-0.00281161 0.000372722,-0.00285452 0.000124552,-0.00287606 0,-0.275618 0,-4.08562e-14 -0.000135077,-0.00311397 -0.000406014,-0.00309034 -0.000673859,-0.00304319 -0.000936574,-0.00297286 -0.00119216,-0.0028799 -0.00143867,-0.00276501 -0.00167422,-0.00262908 -0.00189703,-0.00247313 -0.00210539,-0.00229834 -0.00229773,-0.00210606 -0.00247257,-0.00189775 -0.00262859,-0.00167499 -0.0027646,-0.00143947 -0.00287955,-0.001193 -0.00297259,-0.000937438 -0.00304299,-0.000674744 -0.00309023,-0.000406912 -0.00311393,-0.000135982 -0.136042,0 0.00993332,-0.117561 0.340481,-0.122315 0,0.196491 z "/>
<path fill="rgb(42,41,42)" stroke="rgb(42,41,42)" d="M 5.47708,4.85391 l -2.10182,-0.0799747 -0.580351,-0.302022 -0.0740085,0 -0.340481,0.122315 -0.00993332,0.117561 -0.30291,0 0.0935051,0.31591 0.000951723,0.00319967 0.00123047,0.00310317 0.0014996,0.00298243 0.00175703,0.00283841 0.00200073,0.00267222 0.00222882,0.00248517 0.0024395,0.00227871 0.00263113,0.00205446 0.00280222,0.00181417 0.00295143,0.00155972 0.0030776,0.00129309 0.00317973,0.00101636 0.00325704,0.000731691 0.00330892,0.000441313 0.00333496,0.000147488 0.143643,0 -0.00991918,0.117394 -0.212841,0 -0.00605845,-0.00025941 -0.00601411,-0.000776331 -0.00592573,-0.00128757 -0.00579399,-0.00178938 -0.00561982,-0.0022781 -0.00540453,-0.00275014 -0.00514967,-0.00320204 -0.00485711,-0.00363051 -0.004529,-0.00403241 -0.00416774,-0.00440478 -0.00377597,-0.00474491 -0.00335656,-0.00505031 -0.00291258,-0.00531874 -0.00244728,-0.00554824 -0.00196406,-0.00573713 -2.66454e-15,-7.10543e-15 -0.166811,-0.497883 0.0306335,-0.413417 -0.0535931,-0.033188 -2.22045e-16,-0.117383 0.273064,0 0.00144567,0.0297456 0.00403479,0.0295061 0.00659314,0.0290417 0.00910124,0.0283559 0.01154,0.0274539 0.0138907,0.0263427 0.0161356,0.0250307 0.0182574,0.0235278 0.0202401,0.0218456 0.0220685,0.0199968 0.0237286,0.0179956 0.0252079,0.0158572 0.026495,0.013598 0.0275801,0.0112351 0.028455,0.00878651 0.029113,0.00627097 0.029549,0.00370763 0.0297598,0.00111602 0.0297437,-0.0014841 0.0295009,-0.00407291 0.0290332,-0.00663066 0.0283441,-0.00913787 0.027439,-0.0115754 0.0263247,-0.0139247 0.0250098,-0.0161679 0.0235042,-0.0182878 0.0218194,-0.0202683 0.0199683,-0.0220943 0.0179649,-0.0237519 0.0158247,-0.0252284 0.0135637,-0.0265125 0.0111994,-0.0275946 0.00874974,-0.0284663 1.05909,0 0.00858382,0.0284894 0.0110523,0.0276256 0.0134354,0.0265484 0.0157147,0.0252661 0.0178726,0.0237886 0.0198924,0.0221274 0.0217585,0.0202952 0.0234566,0.0183062 0.0249734,0.0161758 0.0262973,0.0139204 0.0274181,0.0115575 0.028327,0.0091053 0.0290171,0.00658276 0.0294831,0.00400937 0.0297213,0.001405 0.599395,0 0.0298502,-0.00131316 0.0296196,-0.00392932 0.0291601,-0.00651513 0.0284754,-0.0090506 0.0275706,-0.0115161 0.0264528,-0.0138927 0.0251307,-0.0161619 0.0236144,-0.0183063 0.0219156,-0.0203092 0.0200475,-0.0221553 0.0180246,-0.0238301 0.0158624,-0.0253209 0.0135776,-0.026616 0.0111879,-0.0277054 0.00871178,-0.0285808 0.35728,0 0,0.708664 z "/>
<path fill="rgb(42,41,42)" stroke="rgb(42,41,42)" d="M 5.47708,4.85391 l -8.88178e-16,0.557144 -2.68218,0 0,-0.93914 0.580351,0.302022 2.10182,0.0799747 z "/>
<path fill="rgb(187,30,16)" stroke="rgb(187,30,16)" d="M 0.2,3.75 l -0.2,0 0.0142699,-0.326834 0.042701,-0.324347 0.0708072,-0.319391 0.0983745,-0.312004 0.125193,-0.302243 0.151059,-0.290182 0.175775,-0.275912 0.199154,-0.259542 0.221016,-0.241197 0.241197,-0.221016 0.259542,-0.199154 0.275912,-0.175775 0.290182,-0.151059 0.302243,-0.125193 0.312004,-0.0983745 0.319391,-0.0708072 0.324347,-0.042701 0.326834,-0.0142699 0.326834,0.0142699 0.324347,0.042701 0.319391,0.0708072 0.312004,0.0983745 0.302243,0.125193 0.290182,0.151059 0.275912,0.175775 0.259542,0.199154 0.241197,0.221016 0.221016,0.241197 0.199154,0.259542 0.175775,0.275912 0.151059,0.290182 0.125193,0.302243 0.0983745,0.312004 0.0708072,0.319391 0.042701,0.324347 0.0142699,0.326834 -0.2,0 -0.0135088,-0.309403 -0.0404237,-0.307048 -0.0670308,-0.302357 -0.0931279,-0.295364 -0.118516,-0.286123 -0.143002,-0.274705 -0.1664,-0.261196 -0.188532,-0.2457 -0.209229,-0.228333 -0.228333,-0.209229 -0.2457,-0.188532 -0.261196,-0.1664 -0.274705,-0.143002 -0.286123,-0.118516 -0.295364,-0.0931279 -0.302357,-0.0670308 -0.307048,-0.0404237 -0.309403,-0.0135088 -0.309403,0.0135088 -0.307048,0.0404237 -0.302357,0.0670308 -0.295364,0.0931279 -0.286123,0.118516 -0.274705,0.143002 -0.261196,0.1664 -0.2457,0.188532 -0.228333,0.209229 -0.209229,0.228333 -0.188532,0.2457 -0.1664,0.261196 -0.143002,0.274705 -0.118516,0.286123 -0.0931279,0.295364 -0.0670308,0.302357 -0.0404237,0.307048 -0.0135088,0.309403 z "/>
<path fill="rgb(187,30,16)" stroke="rgb(187,30,16)" d="M 0.2,3.75 l 0.0135088,0.309403 0.0404237,0.307048 0.0670308,0.302357 0.0931279,0.295364 0.118516,0.286123 0.143002,0.274705 0.1664,0.261196 0.188532,0.2457 0.209229,0.228333 0.228333,0.209229 0.2457,0.188532 0.261196,0.1664 0.274705,0.143002 0.286123,0.118516 0.295364,0.0931279 0.302357,0.0670308 0.307048,0.0404237 0.309403,0.0135088 0.309403,-0.0135088 0.307048,-0.0404237 0.302357,-0.0670308 0.295364,-0.0931279 0.286123,-0.118516 0.274705,-0.143002 0.261196,-0.1664 0.2457,-0.188532 0.228333,-0.209229 0.209229,-0.228333 0.188532,-0.2457 0.1664,-0.261196 0.143002,-0.274705 0.118516,-0.286123 0.0931279,-0.295364 0.0670308,-0.302357 0.0404237,-0.307048 0.0135088,-0.309403 0.2,0 -0.0142699,0.326834 -0.042701,0.324347 -0.0708072,0.319391 -0.0983745,0.312004 -0.125193,0.302243 -0.151059,0.290182 -0.175775,0.275912 -0.199154,0.259542 -0.221016,0.241197 -0.241197,0.221016 -0.259542,0.199154 -0.275912,0.175775 -0.290182,0.151059 -0.302243,0.125193 -0.312004,0.0983745 -0.319391,0.0708072 -0.324347,0.042701 -0.326834,0.0142699 -0.326834,-0.0142699 -0.324347,-0.042701 -0.319391,-0.0708072 -0.312004,-0.0983745 -0.302243,-0.125193 -0.290182,-0.151059 -0.275912,-0.175775 -0.259542,-0.199154 -0.241197,-0.221016 -0.221016,-0.241197 -0.199154,-0.259542 -0.175775,-0.275912 -0.151059,-0.290182 -0.125193,-0.302243 -0.0983745,-0.312004 -0.0708072,-0.319391 -0.042701,-0.324347 -0.0142699,-0.326834 0.2,0 z "/>
<path fill="rgb(187,30,16)" stroke="rgb(187,30,16)" d="M 7.1,3.75 l -0.7,0 -0.0111405,-0.242736 -0.0333279,-0.240695 -0.0552351,-0.23663 -0.0720968,-0.218569 -0.0907897,-0.211489 -0.108798,-0.202814 -0.125985,-0.192608 -0.142222,-0.180951 -0.157387,-0.167928 -0.171364,-0.153638 -0.184048,-0.13819 -0.195345,-0.121699 -0.205168,-0.10429 -0.213443,-0.0860951 -0.220108,-0.0672503 -0.225113,-0.0478983 -0.22842,-0.028185 -0.230005,-0.00825905 -0.229854,0.0117292 -0.227969,0.0316289 -0.224365,0.0512901 -0.219068,0.0705644 -0.212119,0.0893064 -0.20357,0.107375 -0.193486,0.124633 -0.181942,0.140952 -0.169026,0.156207 -0.154835,0.170284 -0.139475,0.183076 -0.123064,0.194488 -0.105725,0.204432 -0.0875877,0.212835 -0.0687901,0.219632 -0.0493909,0.2243 -0.0297837,0.227734 -0.00995282,0.229458 -0.7,0 0.0127478,-0.291972 0.0381463,-0.28975 0.0632545,-0.285322 0.0878812,-0.278724 0.111839,-0.270004 0.134946,-0.259229 0.157026,-0.246481 0.17791,-0.231857 0.197441,-0.215469 0.215469,-0.197441 0.231857,-0.17791 0.246481,-0.157026 0.259229,-0.134946 0.270004,-0.111839 0.278724,-0.0878812 0.285322,-0.0632545 0.28975,-0.0381463 0.291972,-0.0127478 0.291972,0.0127478 0.28975,0.0381463 0.285322,0.0632545 0.278724,0.0878812 0.270004,0.111839 0.259229,0.134946 0.246481,0.157026 0.231857,0.17791 0.215469,0.197441 0.197441,0.215469 0.17791,0.231857 0.157026,0.246481 0.134946,0.259229 0.111839,0.270004 0.0878812,0.278724 0.0632545,0.285322 0.0381463,0.28975 0.0127478,0.291972 z "/>
<path fill="rgb(187,30,16)" stroke="rgb(187,30,16)" d="M 7.1,3.75 l -0.0127478,0.291972 -0.0381463,0.28975 -0.0632545,0.285322 -0.0878812,0.278724 -0.111839,0.270004 -0.134946,0.259229 -0.157026,0.246481 -0.17791,0.231857 -0.197441,0.215469 -0.215469,0.197441 -0.231857,0.17791 -0.246481,0.157026 -0.259229,0.134946 -0.270004,0.111839 -0.278724,0.0878812 -0.285322,0.0632545 -0.28975,0.0381463 -0.291972,0.0127478 -0.291972,-0.0127478 -0.28975,-0.0381463 -0.285322,-0.0632545 -0.278724,-0.0878812 -0.270004,-0.111839 -0.259229,-0.134946 -0.246481,-0.157026 -0.231857,-0.17791 -0.215469,-0.197441 -0.197441,-0.215469 -0.17791,-0.231857 -0.157026,-0.246481 -0.134946,-0.259229 -0.111839,-0.270004 -0.0878812,-0.278724 -0.0632545,-0.285322 -0.0381463,-0.28975 -0.0127478,-0.291972 0.7,0 0.0104352,0.234942 0.0312234,0.233091 0.0517657,0.229405 0.0719003,0.223913 0.0914686,0.216656 0.110317,0.207694 0.128296,0.197096 0.145265,0.184945 0.161089,0.171338 0.175645,0.156382 0.188818,0.140194 0.194633,0.119642 0.204215,0.102434 0.212279,0.0844632 0.218765,0.0658651 0.223625,0.0467774 0.226823,0.0273421 0.228335,0.0077035 0.22815,-0.0119923 0.226269,-0.031599 0.222707,-0.0509709 0.217489,-0.0699638 0.210654,-0.0884368 0.202254,-0.106252 0.192351,-0.123278 0.181017,-0.139388 0.168339,-0.154461 0.154409,-0.168387 0.139331,-0.181061 0.123218,-0.192389 0.106189,-0.202287 0.0900357,-0.215198 0.0707617,-0.222283 0.0509394,-0.227644 0.0307224,-0.231242 0.0102673,-0.233048 0.7,0 z "/>
</g></g></svg>
