<?xml version="1.0" encoding="UTF-8" standalone="no"?>
<!DOCTYPE svg PUBLIC "-//W3C//DTD SVG 1.1//EN" "http://www.w3.org/Graphics/SVG/1.1/DTD/svg11-flat.dtd"
[

]>
<svg xmlns="http://www.w3.org/2000/svg"  viewBox="-0.09375 -0.09375 7.6875 7.6875"><g fill="none" stroke="black" stroke-width="0.0125" transform="translate(0,7.5) scale(1, -1)">
<g id="Output" >
<path fill="rgb(0,91,140)" stroke="rgb(0,91,140)" d="M 5.0924,5.7995 l -0.187935,0.111448 -0.197116,0.094261 -0.204731,0.0763245 -0.210716,0.057781 -0.215026,0.0387779 -0.217626,0.0194663 -0.218495,0 -0.217626,-0.0194663 -0.215026,-0.0387779 -0.210716,-0.057781 -0.204731,-0.0763245 -0.197116,-0.094261 -0.187935,-0.111448 1.3424,-1.3424 1.3424,1.3424 z "/>
<path fill="rgb(0,91,140)" stroke="rgb(0,91,140)" d="M 4.45711,3.75 l 1.3424,-1.3424 0.111448,0.187935 0.094261,0.197116 0.0763245,0.204731 0.057781,0.210716 0.0387779,0.215026 0.0194663,0.217626 0,0.218495 -0.0194663,0.217626 -0.0387779,0.215026 -0.057781,0.210716 -0.0763245,0.204731 -0.094261,0.197116 -0.111448,0.187935 -1.3424,-1.3424 z "/>
<path fill="rgb(0,91,140)" stroke="rgb(0,91,140)" d="M 3.75,3.04289 l -1.3424,-1.3424 0.187935,-0.111448 0.197116,-0.094261 0.204731,-0.0763245 0.210716,-0.057781 0.215026,-0.0387779 0.217626,-0.0194663 0.218495,4.44089e-16 0.217626,0.0194663 0.215026,0.0387779 0.210716,0.057781 0.204731,0.0763245 0.197116,0.094261 0.187935,0.111448 -1.3424,1.3424 z "/>
<path fill="rgb(0,91,140)" stroke="rgb(0,91,140)" d="M 3.04289,3.75 l -1.3424,1.3424 -0.111448,-0.187935 -0.094261,-0.197116 -0.0763245,-0.204731 -0.057781,-0.210716 -0.0387779,-0.215026 -0.0194663,-0.217626 -4.44089e-16,-0.218495 0.0194663,-0.217626 0.0387779,-0.215026 0.057781,-0.210716 0.0763245,-0.204731 0.094261,-0.197116 0.111448,-0.187935 1.3424,1.3424 z "/>
<path fill="rgb(241,240,234)" stroke="rgb(241,240,234)" d="M 1.81849,5.25724 l -0.0408437,-0.0538561 -0.0393425,-0.0549623 -0.0378113,-0.0560267 1.3424,-1.3424 -1.3424,-1.3424 0.0378113,-0.0560267 0.0393425,-0.0549623 0.0408437,-0.0538561 1.50724,1.50724 -1.50724,1.50724 z "/>
<path fill="rgb(241,240,234)" stroke="rgb(241,240,234)" d="M 3.75,3.04289 l 1.3424,-1.3424 0.0560267,0.0378113 0.0549623,0.0393425 0.0538561,0.0408437 -1.50724,1.50724 -1.50724,-1.50724 0.0538561,-0.0408437 0.0549623,-0.0393425 0.0560267,-0.0378113 1.3424,1.3424 z "/>
<path fill="rgb(241,240,234)" stroke="rgb(241,240,234)" d="M 4.45711,3.75 l 1.3424,1.3424 -0.0378113,0.0560267 -0.0393425,0.0549623 -0.0408437,0.0538561 -1.50724,-1.50724 1.50724,-1.50724 0.0408437,0.0538561 0.0393425,0.0549623 0.0378113,0.0560267 -1.3424,1.3424 z "/>
<path fill="rgb(241,240,234)" stroke="rgb(241,240,234)" d="M 5.7995,5.0924 l 0.111448,-0.187935 0.094261,-0.197116 0.0763245,-0.204731 0.057781,-0.210716 0.0387779,-0.215026 0.0194663,-0.217626 0,-0.218495 -0.0194663,-0.217626 -0.0387779,-0.215026 -0.057781,-0.210716 -0.0763245,-0.204731 -0.094261,-0.197116 -0.111448,-0.187935 -0.0378113,-0.0560267 -0.0393425,-0.0549623 -0.0408437,-0.0538561 0.142412,-0.142412 0.131086,0.179806 0.115539,0.19017 0.0991774,0.199193 0.0821166,0.206811 0.0644768,0.212971 0.0463823,0.217629 0.0279609,0.220753 0.00934224,0.222321 -0.00934224,0.222321 -0.0279609,0.220753 -0.0463823,0.217629 -0.0644768,0.212971 -0.0821166,0.206811 -0.0991774,0.199193 -0.115539,0.19017 -0.131086,0.179806 -0.142412,-0.142412 0.0408437,-0.0538561 0.0393425,-0.0549623 0.0378113,-0.0560267 z "/>
<path fill="rgb(241,240,234)" stroke="rgb(241,240,234)" d="M 5.0924,5.7995 l 0.0560267,-0.0378113 0.0549623,-0.0393425 0.0538561,-0.0408437 0.142412,0.142412 -0.192176,0.139282 -0.203868,0.121529 -0.213924,0.1028 -0.222263,0.0832477 -0.22882,0.0630272 -0.233542,0.0423011 -0.23639,0.0212357 -0.237342,0 -0.23639,-0.0212357 -0.233542,-0.0423011 -0.22882,-0.0630272 -0.222263,-0.0832477 -0.213924,-0.1028 -0.203868,-0.121529 -0.192176,-0.139282 0.142412,-0.142412 0.0538561,0.0408437 0.0549623,0.0393425 0.0560267,0.0378113 0.187935,0.111448 0.197116,0.094261 0.204731,0.0763245 0.210716,0.057781 0.215026,0.0387779 0.217626,0.0194663 0.218495,0 0.217626,-0.0194663 0.215026,-0.0387779 0.210716,-0.057781 0.204731,-0.0763245 0.197116,-0.094261 0.187935,-0.111448 z "/>
<path fill="rgb(241,240,234)" stroke="rgb(241,240,234)" d="M 1.81849,5.25724 l -0.142412,0.142412 -0.131086,-0.179806 -0.115539,-0.19017 -0.0991774,-0.199193 -0.0821166,-0.206811 -0.0644768,-0.212971 -0.0463823,-0.217629 -0.0279609,-0.220753 -0.00934224,-0.222321 0.00934224,-0.222321 0.0279609,-0.220753 0.0463823,-0.217629 0.0644768,-0.212971 0.0821166,-0.206811 0.0991774,-0.199193 0.115539,-0.19017 0.131086,-0.179806 0.142412,0.142412 -0.0408437,0.0538561 -0.0393425,0.0549623 -0.0378113,0.0560267 -0.111448,0.187935 -0.094261,0.197116 -0.0763245,0.204731 -0.057781,0.210716 -0.0387779,0.215026 -0.0194663,0.217626 4.44089e-16,0.218495 0.0194663,0.217626 0.0387779,0.215026 0.057781,0.210716 0.0763245,0.204731 0.094261,0.197116 0.111448,0.187935 0.0378113,0.0560267 0.0393425,0.0549623 0.0408437,0.0538561 z "/>
<path fill="rgb(241,240,234)" stroke="rgb(241,240,234)" d="M 2.24276,1.81849 l -0.142412,-0.142412 0.192176,-0.139282 0.203868,-0.121529 0.213924,-0.1028 0.222263,-0.0832477 0.22882,-0.0630272 0.233542,-0.0423011 0.23639,-0.0212357 0.237342,-4.44089e-16 0.23639,0.0212357 0.233542,0.0423011 0.22882,0.0630272 0.222263,0.0832477 0.213924,0.1028 0.203868,0.121529 0.192176,0.139282 -0.142412,0.142412 -0.0538561,-0.0408437 -0.0549623,-0.0393425 -0.0560267,-0.0378113 -0.187935,-0.111448 -0.197116,-0.094261 -0.204731,-0.0763245 -0.210716,-0.057781 -0.215026,-0.0387779 -0.217626,-0.0194663 -0.218495,-4.44089e-16 -0.217626,0.0194663 -0.215026,0.0387779 -0.210716,0.057781 -0.204731,0.0763245 -0.197116,0.094261 -0.187935,0.111448 -0.0560267,0.0378113 -0.0549623,0.0393425 -0.0538561,0.0408437 z "/>
<path fill="rgb(241,240,234)" stroke="rgb(241,240,234)" d="M 5.0924,5.7995 l -1.3424,-1.3424 -1.3424,1.3424 -0.0560267,-0.0378113 -0.0549623,-0.0393425 -0.0538561,-0.0408437 1.50724,-1.50724 1.50724,1.50724 -0.0538561,0.0408437 -0.0549623,0.0393425 -0.0560267,0.0378113 z "/>
<path fill="rgb(241,240,234)" stroke="rgb(241,240,234)" d="M 0.2,3.75 l 0.0135088,-0.309403 0.0404237,-0.307048 0.0670308,-0.302357 0.0931279,-0.295364 0.118516,-0.286123 0.143002,-0.274705 0.1664,-0.261196 0.188532,-0.2457 0.209229,-0.228333 0.228333,-0.209229 0.2457,-0.188532 0.261196,-0.1664 0.274705,-0.143002 0.286123,-0.118516 0.295364,-0.0931279 0.302357,-0.0670308 0.307048,-0.0404237 0.309403,-0.0135088 0.309403,0.0135088 0.307048,0.0404237 0.302357,0.0670308 0.295364,0.0931279 0.286123,0.118516 0.274705,0.143002 0.261196,0.1664 0.2457,0.188532 0.228333,0.209229 0.209229,0.228333 0.188532,0.2457 0.1664,0.261196 0.143002,0.274705 0.118516,0.286123 0.0931279,0.295364 0.0670308,0.302357 0.0404237,0.307048 0.0135088,0.309403 -0.2,0 -0.0127478,-0.291972 -0.0381463,-0.28975 -0.0632545,-0.285322 -0.0878812,-0.278724 -0.111839,-0.270004 -0.134946,-0.259229 -0.157026,-0.246481 -0.17791,-0.231857 -0.197441,-0.215469 -0.215469,-0.197441 -0.231857,-0.17791 -0.246481,-0.157026 -0.259229,-0.134946 -0.270004,-0.111839 -0.278724,-0.0878812 -0.285322,-0.0632545 -0.28975,-0.0381463 -0.291972,-0.0127478 -0.291972,0.0127478 -0.28975,0.0381463 -0.285322,0.0632545 -0.278724,0.0878812 -0.270004,0.111839 -0.259229,0.134946 -0.246481,0.157026 -0.231857,0.17791 -0.215469,0.197441 -0.197441,0.215469 -0.17791,0.231857 -0.157026,0.246481 -0.134946,0.259229 -0.111839,0.270004 -0.0878812,0.278724 -0.0632545,0.285322 -0.0381463,0.28975 -0.0127478,0.291972 -0.2,0 z "/>
<path fill="rgb(241,240,234)" stroke="rgb(241,240,234)" d="M 0.2,3.75 l 0.2,0 0.0127478,0.291972 0.0381463,0.28975 0.0632545,0.285322 0.0878812,0.278724 0.111839,0.270004 0.134946,0.259229 0.157026,0.246481 0.17791,0.231857 0.197441,0.215469 0.215469,0.197441 0.231857,0.17791 0.246481,0.157026 0.259229,0.134946 0.270004,0.111839 0.278724,0.0878812 0.285322,0.0632545 0.28975,0.0381463 0.291972,0.0127478 0.291972,-0.0127478 0.28975,-0.0381463 0.285322,-0.0632545 0.278724,-0.0878812 0.270004,-0.111839 0.259229,-0.134946 0.246481,-0.157026 0.231857,-0.17791 0.215469,-0.197441 0.197441,-0.215469 0.17791,-0.231857 0.157026,-0.246481 0.134946,-0.259229 0.111839,-0.270004 0.0878812,-0.278724 0.0632545,-0.285322 0.0381463,-0.28975 0.0127478,-0.291972 0.2,0 -0.0135088,0.309403 -0.0404237,0.307048 -0.0670308,0.302357 -0.0931279,0.295364 -0.118516,0.286123 -0.143002,0.274705 -0.1664,0.261196 -0.188532,0.2457 -0.209229,0.228333 -0.228333,0.209229 -0.2457,0.188532 -0.261196,0.1664 -0.274705,0.143002 -0.286123,0.118516 -0.295364,0.0931279 -0.302357,0.0670308 -0.307048,0.0404237 -0.309403,0.0135088 -0.309403,-0.0135088 -0.307048,-0.0404237 -0.302357,-0.0670308 -0.295364,-0.0931279 -0.286123,-0.118516 -0.274705,-0.143002 -0.261196,-0.1664 -0.2457,-0.188532 -0.228333,-0.209229 -0.209229,-0.228333 -0.188532,-0.2457 -0.1664,-0.261196 -0.143002,-0.274705 -0.118516,-0.286123 -0.0931279,-0.295364 -0.0670308,-0.302357 -0.0404237,-0.307048 -0.0135088,-0.309403 z "/>
<path fill="rgb(187,30,16)" stroke="rgb(187,30,16)" d="M 2.24276,1.81849 l 1.50724,1.50724 1.50724,-1.50724 0.142412,-0.142412 0.151993,0.13058 0.141691,0.141691 0.13058,0.151993 -0.142412,0.142412 -1.50724,1.50724 1.50724,1.50724 0.142412,0.142412 -0.13058,0.151993 -0.141691,0.141691 -0.151993,0.13058 -0.142412,-0.142412 -1.50724,-1.50724 -1.50724,1.50724 -0.142412,0.142412 -0.151993,-0.13058 -0.141691,-0.141691 -0.13058,-0.151993 0.142412,-0.142412 1.50724,-1.50724 -1.50724,-1.50724 -0.142412,-0.142412 0.13058,-0.151993 0.141691,-0.141691 0.151993,-0.13058 0.142412,0.142412 z "/>
<path fill="rgb(187,30,16)" stroke="rgb(187,30,16)" d="M 0.2,3.75 l -0.2,0 0.0142699,-0.326834 0.042701,-0.324347 0.0708072,-0.319391 0.0983745,-0.312004 0.125193,-0.302243 0.151059,-0.290182 0.175775,-0.275912 0.199154,-0.259542 0.221016,-0.241197 0.241197,-0.221016 0.259542,-0.199154 0.275912,-0.175775 0.290182,-0.151059 0.302243,-0.125193 0.312004,-0.0983745 0.319391,-0.0708072 0.324347,-0.042701 0.326834,-0.0142699 0.326834,0.0142699 0.324347,0.042701 0.319391,0.0708072 0.312004,0.0983745 0.302243,0.125193 0.290182,0.151059 0.275912,0.175775 0.259542,0.199154 0.241197,0.221016 0.221016,0.241197 0.199154,0.259542 0.175775,0.275912 0.151059,0.290182 0.125193,0.302243 0.0983745,0.312004 0.0708072,0.319391 0.042701,0.324347 0.0142699,0.326834 -0.2,0 -0.0135088,-0.309403 -0.0404237,-0.307048 -0.0670308,-0.302357 -0.0931279,-0.295364 -0.118516,-0.286123 -0.143002,-0.274705 -0.1664,-0.261196 -0.188532,-0.2457 -0.209229,-0.228333 -0.228333,-0.209229 -0.2457,-0.188532 -0.261196,-0.1664 -0.274705,-0.143002 -0.286123,-0.118516 -0.295364,-0.0931279 -0.302357,-0.0670308 -0.307048,-0.0404237 -0.309403,-0.0135088 -0.309403,0.0135088 -0.307048,0.0404237 -0.302357,0.0670308 -0.295364,0.0931279 -0.286123,0.118516 -0.274705,0.143002 -0.261196,0.1664 -0.2457,0.188532 -0.228333,0.209229 -0.209229,0.228333 -0.188532,0.2457 -0.1664,0.261196 -0.143002,0.274705 -0.118516,0.286123 -0.0931279,0.295364 -0.0670308,0.302357 -0.0404237,0.307048 -0.0135088,0.309403 z "/>
<path fill="rgb(187,30,16)" stroke="rgb(187,30,16)" d="M 0.2,3.75 l 0.0135088,0.309403 0.0404237,0.307048 0.0670308,0.302357 0.0931279,0.295364 0.118516,0.286123 0.143002,0.274705 0.1664,0.261196 0.188532,0.2457 0.209229,0.228333 0.228333,0.209229 0.2457,0.188532 0.261196,0.1664 0.274705,0.143002 0.286123,0.118516 0.295364,0.0931279 0.302357,0.0670308 0.307048,0.0404237 0.309403,0.0135088 0.309403,-0.0135088 0.307048,-0.0404237 0.302357,-0.0670308 0.295364,-0.0931279 0.286123,-0.118516 0.274705,-0.143002 0.261196,-0.1664 0.2457,-0.188532 0.228333,-0.209229 0.209229,-0.228333 0.188532,-0.2457 0.1664,-0.261196 0.143002,-0.274705 0.118516,-0.286123 0.0931279,-0.295364 0.0670308,-0.302357 0.0404237,-0.307048 0.0135088,-0.309403 0.2,0 -0.0142699,0.326834 -0.042701,0.324347 -0.0708072,0.319391 -0.0983745,0.312004 -0.125193,0.302243 -0.151059,0.290182 -0.175775,0.275912 -0.199154,0.259542 -0.221016,0.241197 -0.241197,0.221016 -0.259542,0.199154 -0.275912,0.175775 -0.290182,0.151059 -0.302243,0.125193 -0.312004,0.0983745 -0.319391,0.0708072 -0.324347,0.042701 -0.326834,0.0142699 -0.326834,-0.0142699 -0.324347,-0.042701 -0.319391,-0.0708072 -0.312004,-0.0983745 -0.302243,-0.125193 -0.290182,-0.151059 -0.275912,-0.175775 -0.259542,-0.199154 -0.241197,-0.221016 -0.221016,-0.241197 -0.199154,-0.259542 -0.175775,-0.275912 -0.151059,-0.290182 -0.125193,-0.302243 -0.0983745,-0.312004 -0.0708072,-0.319391 -0.042701,-0.324347 -0.0142699,-0.326834 0.2,0 z "/>
<path fill="rgb(187,30,16)" stroke="rgb(187,30,16)" d="M 7.1,3.75 l -0.7,0 -0.00934224,-0.222321 -0.0279609,-0.220753 -0.0463823,-0.217629 -0.0644768,-0.212971 -0.0821166,-0.206811 -0.0991774,-0.199193 -0.115539,-0.19017 -0.131086,-0.179806 -0.13058,-0.151993 -0.141691,-0.141691 -0.151993,-0.13058 -0.192176,-0.139282 -0.203868,-0.121529 -0.213924,-0.1028 -0.222263,-0.0832477 -0.22882,-0.0630272 -0.233542,-0.0423011 -0.23639,-0.0212357 -0.237342,4.44089e-16 -0.23639,0.0212357 -0.233542,0.0423011 -0.22882,0.0630272 -0.222263,0.0832477 -0.213924,0.1028 -0.203868,0.121529 -0.192176,0.139282 -0.151993,0.13058 -0.141691,0.141691 -0.13058,0.151993 -0.131086,0.179806 -0.115539,0.19017 -0.0991774,0.199193 -0.0821166,0.206811 -0.0644768,0.212971 -0.0463823,0.217629 -0.0279609,0.220753 -0.00934224,0.222321 -0.7,0 0.0127478,-0.291972 0.0381463,-0.28975 0.0632545,-0.285322 0.0878812,-0.278724 0.111839,-0.270004 0.134946,-0.259229 0.157026,-0.246481 0.17791,-0.231857 0.197441,-0.215469 0.215469,-0.197441 0.231857,-0.17791 0.246481,-0.157026 0.259229,-0.134946 0.270004,-0.111839 0.278724,-0.0878812 0.285322,-0.0632545 0.28975,-0.0381463 0.291972,-0.0127478 0.291972,0.0127478 0.28975,0.0381463 0.285322,0.0632545 0.278724,0.0878812 0.270004,0.111839 0.259229,0.134946 0.246481,0.157026 0.231857,0.17791 0.215469,0.197441 0.197441,0.215469 0.17791,0.231857 0.157026,0.246481 0.134946,0.259229 0.111839,0.270004 0.0878812,0.278724 0.0632545,0.285322 0.0381463,0.28975 0.0127478,0.291972 z "/>
<path fill="rgb(187,30,16)" stroke="rgb(187,30,16)" d="M 7.1,3.75 l -0.0127478,0.291972 -0.0381463,0.28975 -0.0632545,0.285322 -0.0878812,0.278724 -0.111839,0.270004 -0.134946,0.259229 -0.157026,0.246481 -0.17791,0.231857 -0.197441,0.215469 -0.215469,0.197441 -0.231857,0.17791 -0.246481,0.157026 -0.259229,0.134946 -0.270004,0.111839 -0.278724,0.0878812 -0.285322,0.0632545 -0.28975,0.0381463 -0.291972,0.0127478 -0.291972,-0.0127478 -0.28975,-0.0381463 -0.285322,-0.0632545 -0.278724,-0.0878812 -0.270004,-0.111839 -0.259229,-0.134946 -0.246481,-0.157026 -0.231857,-0.17791 -0.215469,-0.197441 -0.197441,-0.215469 -0.17791,-0.231857 -0.157026,-0.246481 -0.134946,-0.259229 -0.111839,-0.270004 -0.0878812,-0.278724 -0.0632545,-0.285322 -0.0381463,-0.28975 -0.0127478,-0.291972 0.7,0 0.00934224,0.222321 0.0279609,0.220753 0.0463823,0.217629 0.0644768,0.212971 0.0821166,0.206811 0.0991774,0.199193 0.115539,0.19017 0.131086,0.179806 0.13058,0.151993 0.141691,0.141691 0.151993,0.13058 0.192176,0.139282 0.203868,0.121529 0.213924,0.1028 0.222263,0.0832477 0.22882,0.0630272 0.233542,0.0423011 0.23639,0.0212357 0.237342,0 0.23639,-0.0212357 0.233542,-0.0423011 0.22882,-0.0630272 0.222263,-0.0832477 0.213924,-0.1028 0.203868,-0.121529 0.192176,-0.139282 0.151993,-0.13058 0.141691,-0.141691 0.13058,-0.151993 0.131086,-0.179806 0.115539,-0.19017 0.0991774,-0.199193 0.0821166,-0.206811 0.0644768,-0.212971 0.0463823,-0.217629 0.0279609,-0.220753 0.00934224,-0.222321 0.7,0 z "/>
</g></g></svg>
