<?xml version="1.0" encoding="UTF-8" standalone="no"?>
<!DOCTYPE svg PUBLIC "-//W3C//DTD SVG 1.1//EN" "http://www.w3.org/Graphics/SVG/1.1/DTD/svg11-flat.dtd"
[

]>
<svg xmlns="http://www.w3.org/2000/svg"  viewBox="-0.09375 -0.09375 7.6875 7.6875"><g fill="none" stroke="black" stroke-width="0.0125" transform="translate(0,7.5) scale(1, -1)">
<g id="Output" >
<path fill="rgb(241,240,234)" stroke="rgb(241,240,234)" d="M 1.95485,3 l 0.0283424,0.0845939 0.0168104,0.0501741 0,0.615232 -1,-4.44089e-16 0,-0.75 0.954847,0 z "/>
<path fill="rgb(241,240,234)" stroke="rgb(241,240,234)" d="M 1.89963,2 l 0.100373,0.177133 0,0.129207 -0.11234,0 0,0.11683 0.0533404,0.0330316 -0.0304891,0.411468 0.0443358,0.13233 -0.954847,0 0,-1 0.899627,0 z "/>
<path fill="rgb(241,240,234)" stroke="rgb(241,240,234)" d="M 1.67647,1 l 0.323528,0 0,0.570949 -0.323528,-0.570949 z M 1.50557,1 l -0.0401089,0.0327584 -0.0764417,0.0661491 0.510604,0.901092 -0.899627,0 0,-0.794321 0.0983496,-0.10733 0.10733,-0.0983496 0.299895,0 z "/>
<path fill="rgb(241,240,234)" stroke="rgb(241,240,234)" d="M 2,0.437334 l 0,0.224379 -0.0433286,0.0245522 -0.0852792,0.0515377 0.128608,0.226962 0,0.0352355 -0.323528,0 -0.0526293,-0.092878 -0.0800831,0.0616906 -0.0381853,0.0311874 -0.299895,0 0.133867,-0.122667 0.259542,-0.199154 0.275912,-0.175775 0.125,-0.0650709 z "/>
<path fill="rgb(241,240,234)" stroke="rgb(241,240,234)" d="M 0.0788786,3 l 0.921121,0 0,0.75 -1,0 0.0142699,-0.326834 0.042701,-0.324347 0.0219077,-0.0988193 z "/>
<path fill="rgb(241,240,234)" stroke="rgb(241,240,234)" d="M 2.70695,1 l 0.293045,0.517154 0,0.482846 -0.0698899,0 -0.56665,-1 0.343494,0 z M 2.01997,1 l 0.56665,1 -0.343494,0 -0.243122,-0.429051 0,-0.570949 0.0199662,0 z "/>
<path fill="rgb(241,240,234)" stroke="rgb(241,240,234)" d="M 0.437334,2 l 0.562666,0 0,1 -0.921121,0 0.0488995,-0.220571 0.0983745,-0.312004 0.125193,-0.302243 0.0859881,-0.165182 z "/>
<path fill="rgb(241,240,234)" stroke="rgb(241,240,234)" d="M 2.93011,2 l 0.0698899,0 0,0.123339 -0.0698899,-0.123339 z M 2.24312,2 l 0.343494,0 0.0433958,0.0765832 -0.0205096,-0.0104836 -0.0213449,-0.00865709 -0.0220179,-0.00676476 -0.0225235,-0.00482099 -0.0228579,-0.00284056 -0.0230184,-0.000838538 -0.023004,0.00116986 -0.0228146,0.00316936 -0.0224518,0.00514477 -0.0219182,0.00708106 -0.0212181,0.00896351 -0.0203566,0.0107778 -0.0193403,0.0125102 -0.018177,0.0141474 -0.0168754,0.0156771 -0.0684618,-0.120819 z M 2,2.30634 l 0,-0.129207 0.0732152,0.129207 -0.0732152,0 z "/>
<path fill="rgb(241,240,234)" stroke="rgb(241,240,234)" d="M 2,3.75 l 0,-0.615232 0.0765361,0.228438 0.0019548,0.00571008 0.00243574,0.00552209 0.00289885,0.00529367 0.00334074,0.00502651 0.00375817,0.00472255 0.00414809,0.00438402 0.00450765,0.0040134 0.00483421,0.0036134 0.00512539,0.00318695 0.00537905,0.00273717 0.00559333,0.00226736 0.00576667,0.00178095 0.0058978,0.0012815 0.00598575,0.000772671 0.00602989,0.000258187 0.513085,0 0.00355069,-0.000548805 0.00348739,-0.000864119 0.00339615,-0.00117251 0.00327769,-0.0014715 0.00313297,-0.00175871 0.00296315,-0.00203182 0.00276959,-0.00228865 0.00255384,-0.00252715 0.00231762,-0.0027454 0.00206284,-0.00294165 0.00179152,-0.00311433 0.128718,0.227156 0,0.0305321 0.017301,0 0.056665,0.1 -0.891264,0 z "/>
<path fill="rgb(241,240,234)" stroke="rgb(241,240,234)" d="M 3.75,0 l 0.25,0.0109152 0,0.989085 -0.949551,0 -0.0504489,-0.0890301 0,-0.832091 0.0988193,-0.0219077 0.324347,-0.042701 0.326834,-0.0142699 z "/>
<path fill="rgb(241,240,234)" stroke="rgb(241,240,234)" d="M 3.05045,1 l 0.949551,0 0,1 -0.382901,0 -0.56665,-1 z M 3,2 l 0,-0.482846 0.273604,0.482846 -0.273604,0 z "/>
<path fill="rgb(241,240,234)" stroke="rgb(241,240,234)" d="M 4,2.46529 l 0,0.106496 -0.0106471,-0.00830927 -0.021656,-0.0201995 -0.0197986,-0.0220231 -0.0177883,-0.0236765 -0.0156406,-0.025147 -0.013372,-0.0264233 -0.0110002,-0.0274954 -0.00854336,-0.0283551 -0.0433715,0 -0.221084,-0.39016 0.382901,0 0,0.147377 -0.00571041,0.00744195 -0.012382,0.0194359 -0.010641,0.0204411 -0.00881892,0.0212908 -0.00692975,0.0219784 -0.00498784,0.0224987 -0.00300797,0.0228478 -0.00100521,0.023023 0.00100521,0.023023 0.00300797,0.0228478 0.00498784,0.0224987 0.00692975,0.0219784 0.00881892,0.0212908 0.010641,0.0204411 0.012382,0.0194359 0.00571041,0.00744195 z M 3,2 l 0.273604,0 0.221084,0.39016 -0.343494,0 -0.151194,-0.266821 0,-0.123339 z "/>
<path fill="rgb(241,240,234)" stroke="rgb(241,240,234)" d="M 1,1.20568 l 0,0.794321 -0.562666,0 0.0650709,-0.125 0.175775,-0.275912 0.199154,-0.259542 0.122667,-0.133867 z "/>
<path fill="rgb(241,240,234)" stroke="rgb(241,240,234)" d="M 6,2 l 1,0 0,1 -1,0 0,-1 z "/>
<path fill="rgb(241,240,234)" stroke="rgb(241,240,234)" d="M 3,0.0788786 l 0,0.832091 -0.310937,-0.548729 -0.0960294,0.0315816 -0.0950913,0.034303 -0.094076,0.0369966 0.303088,0.534878 -0.343494,0 -0.23206,-0.409531 -0.0880366,0.0466716 -0.0433634,0.0245719 0,-0.224379 0.165182,-0.0859881 0.302243,-0.125193 0.312004,-0.0983745 0.220571,-0.0488995 z M 2,1 l 0,-0.0352355 0.0199662,0.0352355 -0.0199662,0 z "/>
<path fill="rgb(241,240,234)" stroke="rgb(241,240,234)" d="M 7,2 l 0,-0.120381 0.0626661,0.120381 -0.0626661,0 z "/>
<path fill="rgb(241,240,234)" stroke="rgb(241,240,234)" d="M 7.06267,2 l 0.0859881,0.165182 0.125193,0.302243 0.0983745,0.312004 0.0488995,0.220571 -0.421121,0 0,-1 0.0626661,0 z "/>
<path fill="rgb(241,240,234)" stroke="rgb(241,240,234)" d="M 7,3 l 0.421121,0 0.0219077,0.0988193 0.042701,0.324347 0.0142699,0.326834 -0.5,0 0,-0.75 z "/>
<path fill="rgb(241,240,234)" stroke="rgb(241,240,234)" d="M 4,0.0109152 l 0.076834,0.00335465 0.324347,0.042701 0.319391,0.0708072 0.279429,0.0881035 0,0.784118 -1,0 0,-0.989085 z "/>
<path fill="rgb(241,240,234)" stroke="rgb(241,240,234)" d="M 2.36909,2.95403 l 0.0711409,0 0.125601,0.221656 0,0.0882273 -0.000123964,0.0028625 -0.000370965,0.00284107 -0.000615188,0.00279836 -0.000854805,0.0027347 -0.00108802,0.00265056 -0.00131309,0.00254658 -0.00152833,0.00242353 -0.00173212,0.00228233 -0.00192294,0.00212404 -0.00209937,0.00194985 -0.00226008,0.00176106 -0.00240386,0.00155908 -0.00252964,0.00134543 -0.00263649,0.0011217 -0.00272359,0.000889578 -0.00279029,0.000650792 -0.00283611,0.000407133 -0.00286069,0.000160426 -0.00286385,-8.74832e-05 -0.30734,0 -0.00331924,-0.000146793 -0.00329332,-0.000439232 -0.00324169,-0.000728242 -0.00316474,-0.00101157 -0.00306309,-0.00128699 -0.00293752,-0.00155237 -0.00278901,-0.00180562 -0.00261873,-0.00204478 -0.002428,-0.00226797 -0.00221831,-0.00247345 -0.0019913,-0.00265962 -0.00174874,-0.00282503 -0.00149253,-0.00296837 -0.00122466,-0.00308854 -0.000947237,-0.00318459 -0.0544198,-0.183859 -0.0386445,-0.130562 0.275694,0 z "/>
<path fill="rgb(241,240,234)" stroke="rgb(241,240,234)" d="M 4,1 l 1,0 0,1 -1,0 0,-1 z "/>
<path fill="rgb(241,240,234)" stroke="rgb(241,240,234)" d="M 2.8173,3.01328 l -0.0736596,-0.129991 0,-0.168005 0.0736596,0 0,0.297996 z "/>
<path fill="rgb(241,240,234)" stroke="rgb(241,240,234)" d="M 3.17809,3.65 l 0.343494,0 0.056665,0.1 -0.343494,0 -0.056665,-0.1 z "/>
<path fill="rgb(241,240,234)" stroke="rgb(241,240,234)" d="M 6,3.75 l 0,-0.75 1,0 0,0.75 -1,0 z "/>
<path fill="rgb(241,240,234)" stroke="rgb(241,240,234)" d="M 5,1 l 0,-0.784118 0.0325755,0.010271 0.302243,0.125193 0.290182,0.151059 0.275912,0.175775 0.0990884,0.0760332 0,0.245787 -1,0 z "/>
<path fill="rgb(241,240,234)" stroke="rgb(241,240,234)" d="M 4.20858,3.65 l 0.056665,0.1 -0.343494,0 -0.056665,-0.1 0.343494,0 z "/>
<path fill="rgb(241,240,234)" stroke="rgb(241,240,234)" d="M 2.82065,2.41301 l -0.0104842,0.0272122 -0.012781,0.0262121 -0.0149834,0.0250185 -0.0170753,0.0236402 -0.0190411,0.0220876 -0.0208665,0.0203719 -0.0225379,0.0185059 -0.0240429,0.0165034 -0.0253706,0.0143791 -0.026511,0.0121487 -0.0274559,0.00982861 -0.0373581,-0.065928 0.0221209,-0.00642017 0.0214775,-0.00832278 0.0206708,-0.0101621 0.019707,-0.0119242 0.0185933,-0.0135956 0.0173383,-0.0151636 0.0159514,-0.0166164 0.0144432,-0.0179428 0.0128253,-0.0191328 0.0111098,-0.0201773 0.00930987,-0.0210684 0.00743914,-0.0217993 0.00551185,-0.0223645 0.00354265,-0.0227596 0.00154652,-0.0229817 0.0569206,0.100451 z "/>
<path fill="rgb(241,240,234)" stroke="rgb(241,240,234)" d="M 5,2.48226 l 0,0.098978 -0.00108029,0.000837461 -0.0250122,0.0160858 -0.0263281,0.0138272 -0.0274406,0.0114619 -0.0283411,0.00900793 -0.0290227,0.00648441 -0.02948,0.0039108 -0.0297095,0.00130696 -0.596569,0 -0.0295812,-0.00139838 -0.0293441,-0.00399047 -0.0288804,-0.00655173 -0.0281935,-0.00906238 -0.0272888,-0.011503 -0.0261734,-0.0138548 -0.0248557,-0.0160995 -0.012699,-0.00991063 0,-0.106496 0.00831846,0.0108408 0.0155689,0.0169905 0.0169905,0.0155689 0.0182828,0.0140289 0.0194359,0.012382 0.0204411,0.010641 0.0212908,0.00881892 0.0219784,0.00692975 0.0224987,0.00498784 0.0228478,0.00300797 0.023023,0.00100521 0.023023,-0.00100521 0.0228478,-0.00300797 0.0224987,-0.00498784 0.0219784,-0.00692975 0.0212908,-0.00881892 0.0204411,-0.010641 0.0194359,-0.012382 0.0182828,-0.0140289 0.0169905,-0.0155689 0.0155689,-0.0169905 0.0140289,-0.0182828 0.012382,-0.0194359 0.010641,-0.0204411 0.00881892,-0.0212908 0.00692975,-0.0219784 0.00498784,-0.0224987 0.00300797,-0.0228478 0.00100521,-0.023023 -0.00100521,-0.023023 -0.00300797,-0.0228478 -0.00498784,-0.0224987 -0.00692975,-0.0219784 -0.00881892,-0.0212908 -0.010641,-0.0204411 -0.012382,-0.0194359 -0.0140289,-0.0182828 -0.0155689,-0.0169905 -0.0169905,-0.0155689 -0.0182828,-0.0140289 -0.0194359,-0.012382 -0.0204411,-0.010641 -0.0212908,-0.00881892 -0.0219784,-0.00692975 -0.0224987,-0.00498784 -0.0228478,-0.00300797 -0.023023,-0.00100521 -0.023023,0.00100521 -0.0228478,0.00300797 -0.0224987,0.00498784 -0.0219784,0.00692975 -0.0212908,0.00881892 -0.0204411,0.010641 -0.0194359,0.012382 -0.0182828,0.0140289 -0.0169905,0.0155689 -0.0155689,0.0169905 -0.00831846,0.0108408 0,-0.147377 1,0 0,0.130402 -0.00995174,-0.0108604 -0.0169905,-0.0155689 -0.0182828,-0.0140289 -0.0194359,-0.012382 -0.0204411,-0.010641 -0.0212908,-0.00881892 -0.0219784,-0.00692975 -0.0224987,-0.00498784 -0.0228478,-0.00300797 -0.023023,-0.00100521 -0.023023,0.00100521 -0.0228478,0.00300797 -0.0224987,0.00498784 -0.0219784,0.00692975 -0.0212908,0.00881892 -0.0204411,0.010641 -0.0194359,0.012382 -0.0182828,0.0140289 -0.0169905,0.0155689 -0.0155689,0.0169905 -0.0140289,0.0182828 -0.012382,0.0194359 -0.010641,0.0204411 -0.00881892,0.0212908 -0.00692975,0.0219784 -0.00498784,0.0224987 -0.00300797,0.0228478 -0.00100521,0.023023 0.00100521,0.023023 0.00300797,0.0228478 0.00498784,0.0224987 0.00692975,0.0219784 0.00881892,0.0212908 0.010641,0.0204411 0.012382,0.0194359 0.0140289,0.0182828 0.0155689,0.0169905 0.0169905,0.0155689 0.0182828,0.0140289 0.0194359,0.012382 0.0204411,0.010641 0.0212908,0.00881892 0.0219784,0.00692975 0.0224987,0.00498784 0.0228478,0.00300797 0.023023,0.00100521 0.023023,-0.00100521 0.0228478,-0.00300797 0.0224987,-0.00498784 0.0219784,-0.00692975 0.0212908,-0.00881892 0.0204411,-0.010641 0.0194359,-0.012382 0.0182828,-0.0140289 0.0169905,-0.0155689 0.00995174,-0.0108604 z "/>
<path fill="rgb(241,240,234)" stroke="rgb(241,240,234)" d="M 5,3.65 l 0,0.1 -0.391264,0 -0.056665,-0.1 0.447929,0 z "/>
<path fill="rgb(241,240,234)" stroke="rgb(241,240,234)" d="M 5,1 l 1,0 0,1 -1,0 0,-1 z "/>
<path fill="rgb(241,240,234)" stroke="rgb(241,240,234)" d="M 5,2.58124 l 0,-0.098978 0.0056172,-0.0061301 0.0140289,-0.0182828 0.012382,-0.0194359 0.010641,-0.0204411 0.00881892,-0.0212908 0.00692975,-0.0219784 0.00498784,-0.0224987 0.00300797,-0.0228478 0.00100521,-0.023023 -0.00100521,-0.023023 -0.00300797,-0.0228478 -0.00498784,-0.0224987 -0.00692975,-0.0219784 -0.00881892,-0.0212908 -0.010641,-0.0204411 -0.012382,-0.0194359 -0.0140289,-0.0182828 -0.0056172,-0.0061301 0,-0.130402 1,0 0,1 -0.513169,0 0,-0.60984 -0.355596,0 -0.00867071,0.0284461 -0.0111352,0.0275748 -0.0135136,0.0264905 -0.0157876,0.0252015 -0.0179396,0.0237178 -0.019953,0.0220508 -0.0218123,0.0202135 -0.0224228,0.0173826 z "/>
<path fill="rgb(241,240,234)" stroke="rgb(241,240,234)" d="M 5,3.75 l 0,-0.1 0.486831,0 0,-0.65 0.513169,0 0,0.75 -1,0 z "/>
<path fill="rgb(241,240,234)" stroke="rgb(241,240,234)" d="M 6,1 l 0,-0.245787 0.160454,0.12312 0.133867,0.122667 -0.294321,0 z "/>
<path fill="rgb(241,240,234)" stroke="rgb(241,240,234)" d="M 6.29432,1 l 0.10733,0.0983496 0.221016,0.241197 0.199154,0.259542 0.175775,0.275912 0.00240474,0.00461945 0,0.120381 -1,0 0,-1 0.294321,0 z "/>
<path fill="rgb(241,240,234)" stroke="rgb(241,240,234)" d="M 0,3.75 l 1,0 0,1 -0.862943,0 -0.0092788,-0.0294286 -0.0708072,-0.319391 -0.042701,-0.324347 -0.0142699,-0.326834 z "/>
<path fill="rgb(241,240,234)" stroke="rgb(241,240,234)" d="M 0.137057,4.75 l 0.862943,0 0,1 -0.417961,0 -0.0796338,-0.125 -0.151059,-0.290182 -0.125193,-0.302243 -0.0890957,-0.282576 z "/>
<path fill="rgb(241,240,234)" stroke="rgb(241,240,234)" d="M 0.582039,5.75 l 0.417961,0 0,0.544321 -0.122667,-0.133867 -0.199154,-0.259542 -0.0961413,-0.150912 z "/>
<path fill="rgb(241,240,234)" stroke="rgb(241,240,234)" d="M 1,3.75 l 1,0 0,1 -1,0 0,-1 z "/>
<path fill="rgb(241,240,234)" stroke="rgb(241,240,234)" d="M 1,4.75 l 1,0 0,1 -1,0 0,-1 z "/>
<path fill="rgb(241,240,234)" stroke="rgb(241,240,234)" d="M 1,5.75 l 1,0 0,1 -0.494509,0 -0.165944,-0.127333 -0.241197,-0.221016 -0.0983496,-0.10733 0,-0.544321 z "/>
<path fill="rgb(241,240,234)" stroke="rgb(241,240,234)" d="M 3,5.21926 l 0.235256,0.250853 0.00454562,0.00442592 0.00492834,0.00399537 0.00527042,0.00353187 0.00556906,0.00303926 0.00582178,0.00252158 0.0060265,0.00198312 0.00618154,0.00142831 0.00628561,0.000861724 0.00633786,0.000288033 0.592252,0 0.121525,0.214463 0,0.0433492 -1,0 0,-0.53074 z "/>
<path fill="rgb(241,240,234)" stroke="rgb(241,240,234)" d="M 1.50549,6.75 l 0.494509,0 0,0.312666 -0.125,-0.0650709 -0.275912,-0.175775 -0.0935979,-0.0718202 z "/>
<path fill="rgb(241,240,234)" stroke="rgb(241,240,234)" d="M 2.98232,4.25776 l -0.000768121,-0.0175929 -0.00229852,-0.017459 -0.00381142,-0.0171922 -0.00529532,-0.0167946 -0.00673891,-0.0162692 -0.00813122,-0.0156199 -0.00946165,-0.0148518 -0.0107201,-0.0139707 -0.0118969,-0.0129832 -0.0129832,-0.0118969 -0.0139707,-0.0107201 -0.0148518,-0.00946165 -0.0156199,-0.00813122 -0.0162692,-0.00673891 -0.0167946,-0.00529532 -0.0171922,-0.00381142 -0.017459,-0.00229852 -0.0175929,-0.000768121 -0.0175929,0.000768121 -0.017459,0.00229852 -0.0171922,0.00381142 -0.0167946,0.00529532 -0.0162692,0.00673891 -0.0156199,0.00813122 -0.0148518,0.00946165 -0.0139707,0.0107201 -0.0129832,0.0118969 -0.0118969,0.0129832 -0.0107201,0.0139707 -0.00946165,0.0148518 -0.00813122,0.0156199 -0.00673891,0.0162692 -0.00529532,0.0167946 -0.00381142,0.0171922 -0.00229852,0.017459 -0.000768121,0.0175929 0.000768121,0.0175929 0.00229852,0.017459 0.00381142,0.0171922 0.00529532,0.0167946 0.00673891,0.0162692 0.00813122,0.0156199 0.00946165,0.0148518 0.0107201,0.0139707 0.0118969,0.0129832 0.0129832,0.0118969 0.0139707,0.0107201 0.0148518,0.00946165 0.0156199,0.00813122 0.0162692,0.00673891 0.0167946,0.00529532 0.0171922,0.00381142 0.017459,0.00229852 0.0175929,0.000768121 0.0175929,-0.000768121 0.017459,-0.00229852 0.0171922,-0.00381142 0.0167946,-0.00529532 0.0162692,-0.00673891 0.0156199,-0.00813122 0.0148518,-0.00946165 0.0139707,-0.0107201 0.0129832,-0.0118969 0.0118969,-0.0129832 0.0107201,-0.0139707 0.00946165,-0.0148518 0.00813122,-0.0156199 0.00673891,-0.0162692 0.00529532,-0.0167946 0.00381142,-0.0171922 0.00229852,-0.017459 0.000768121,-0.0175929 z M 2,3.75 l 0.891264,4.44089e-16 0.108736,0.191892 0,0.488783 -0.0150119,0.0175823 -0.017203,0.0169397 -0.0186008,0.0153919 -0.0198597,0.0137292 -0.0209705,0.011964 -0.0219248,0.0101096 -0.0227154,0.00817969 -0.0233366,0.00618878 -0.0237837,0.00415169 -0.0240532,0.00208362 -0.0241433,8.88178e-16 -0.0240532,-0.00208362 -0.0237837,-0.00415169 -0.0233366,-0.00618878 -0.0227154,-0.00817969 -0.0219248,-0.0101096 -0.0209705,-0.011964 -0.0198597,-0.0137292 -0.0186008,-0.0153919 -0.017203,-0.0169397 -0.0156769,-0.0183612 -0.0140338,-0.0196456 -0.012286,-0.0207835 -0.0104465,-0.0217662 -0.00852905,-0.0225866 -0.00654796,-0.0232384 -0.00451801,-0.0237168 -0.00245434,-0.0240182 -0.000372358,-0.0241404 -0.19057,0 -0.00608984,0.000265888 -0.00604349,0.000795641 -0.00595115,0.00131934 -0.00581351,0.00183299 -0.00563164,0.0023327 -0.0054069,0.00281465 -0.00514101,0.00327518 -0.004836,0.00371079 -0.00449418,0.00411815 -0.00411815,0.00449418 -0.00371079,0.004836 -0.00327518,0.00514101 -0.00281465,0.0054069 -0.0023327,0.00563164 -0.00183299,0.00581351 -0.00131934,0.00595115 -0.000795641,0.00604349 -0.000265888,0.00608984 0,0.379809 0.000279422,0.0062426 0.000836032,0.00619267 0.00138595,0.00609322 0.00192479,0.00594503 0.00244824,0.00574929 0.0029521,0.00550757 0.00343235,0.00522179 0.00388515,0.00489426 0.0042531,0.00447104 -0.262038,0 0,-1 z "/>
<path fill="rgb(241,240,234)" stroke="rgb(241,240,234)" d="M 5.74203,5.75 l -0.386707,-0.682444 0,-0.317556 0.644672,0 0,1 -0.257965,0 z M 5,5.65286 l 0,-0.160669 0.200055,0 0.0122065,-0.00048054 0.012131,-0.00143865 0.0119803,-0.00238785 0.0117555,-0.00332227 0.150412,0.265442 -0.343494,0 -0.0550465,-0.0971438 z "/>
<path fill="rgb(241,240,234)" stroke="rgb(241,240,234)" d="M 5,6.86523 l -0.0652922,-0.115225 0.0652922,0 0,0.115225 z M 4,7.48908 l 0,-0.739085 0.591214,0 0.219724,0.387759 0.0960294,-0.0315816 0.0930334,-0.0335607 0,0.211501 -0.279429,0.0881035 -0.319391,0.0708072 -0.324347,0.042701 -0.076834,0.00335465 z "/>
<path fill="rgb(241,240,234)" stroke="rgb(241,240,234)" d="M 3.40051,4.8794 l 0,0.316027 -0.000147716,0.00338324 -0.000442023,0.00335749 -0.000732966,0.00330619 -0.00101833,0.00322973 -0.00129594,0.00312869 -0.0015637,0.00300383 -0.00181955,0.00285612 -0.00206155,0.00268666 -0.00228786,0.00249677 -0.00249677,0.00228786 -0.00268666,0.00206155 -0.00285612,0.00181955 -0.00300383,0.0015637 -0.00312869,0.00129594 -0.00322973,0.00101833 -0.00330619,0.000732966 -0.00335749,0.000442023 -0.00338324,0.000147716 -0.210938,0 -0.00633786,-0.000288033 -0.00628561,-0.000861724 -0.00618154,-0.00142831 -0.0060265,-0.00198312 -0.00582178,-0.00252158 -0.00556906,-0.00303926 -0.00527042,-0.00353187 -0.00492834,-0.00399537 -0.00454562,-0.00442592 -0.32093,-0.342207 -0.00396336,-0.00461304 -0.0035472,-0.00494021 -0.00310417,-0.00522996 -0.00263762,-0.00548008 -0.00215109,-0.00568868 -0.00164827,-0.00585419 -0.00113295,-0.00597534 -0.000609057,-0.00605123 -8.05451e-05,-0.00608127 0.000448577,-0.00606524 0.0009743,-0.00600325 0.00149264,-0.00589579 0.00199968,-0.00574366 0.00249156,-0.00554801 0.00296457,-0.00531034 0.00341511,-0.00503243 0.00383979,-0.00471639 0.00423537,-0.00436462 0.00459887,-0.00397979 0.00492752,-0.0035648 0.00521885,-0.00312281 0.00547063,-0.00265716 0.00568097,-0.00217138 0.00584827,-0.00166914 0.00597126,-0.00115427 0.00604902,-0.000630643 0.00608094,-0.000102242 0.0060668,0.000426933 0.500814,0.0572351 0.00591342,0.000933951 0.00581177,0.00143672 0.00566745,0.00192894 0.00548153,0.002407 0.00525537,0.00286739 0.00499063,0.00330674 0.00468925,0.0037218 0.00435344,0.00410955 0.00398568,0.00446712 0.00358866,0.00479191 0.00316529,0.00508151 0.00271869,0.00533381 0.00225213,0.00554696 0.00176904,0.00571939 0.00127296,0.00584982 0.000767531,0.00593732 0.000256471,0.00598123 z "/>
<path fill="rgb(241,240,234)" stroke="rgb(241,240,234)" d="M 6,3.75 l 0,1 -0.644672,0 0,-0.430127 -0.000265888,-0.00608984 -0.000795641,-0.00604349 -0.00131934,-0.00595115 -0.00183299,-0.00581351 -0.0023327,-0.00563164 -0.00281465,-0.0054069 -0.00327518,-0.00514101 -0.00371079,-0.004836 -0.00411815,-0.00449418 -0.00449418,-0.00411815 -0.004836,-0.00371079 -0.00514101,-0.00327518 -0.0054069,-0.00281465 -0.00563164,-0.0023327 -0.00581351,-0.00183299 -0.00595115,-0.00131934 -0.00604349,-0.000795641 -0.00608984,-0.000265888 -0.285455,0 0,-0.5 1,0 z "/>
<path fill="rgb(241,240,234)" stroke="rgb(241,240,234)" d="M 6.91796,5.75 l -0.0961413,0.150912 -0.199154,0.259542 -0.221016,0.241197 -0.241197,0.221016 -0.160454,0.12312 0,-0.25034 0.0345346,-0.0282057 0.0764417,-0.0661491 -0.110976,-0.195846 0,-0.455246 0.917961,0 z "/>
<path fill="rgb(241,240,234)" stroke="rgb(241,240,234)" d="M 6.91796,5.75 l -0.917961,0 0,-1 1,0 0,0.870381 -0.00240474,0.00461945 -0.0796338,0.125 z "/>
<path fill="rgb(241,240,234)" stroke="rgb(241,240,234)" d="M 5,6.75 l 0,-0.490959 0.278202,0.490959 -0.278202,0 z M 6,6.20525 l -0.257965,-0.455246 0.257965,0 0,0.455246 z M 5.99451,6.75 l -0.372813,0 -0.56665,-1 0.343494,0 0.477617,0.842878 0.0800831,-0.0616906 0.0437596,-0.0357401 0,0.25034 -0.0054905,0.00421301 z "/>
<path fill="rgb(241,240,234)" stroke="rgb(241,240,234)" d="M 6,3.75 l 1,0 0,1 -1,0 0,-1 z "/>
<path fill="rgb(241,240,234)" stroke="rgb(241,240,234)" d="M 4.93471,6.75 l -0.56665,-1 0.343494,0 0.288448,0.509041 0,0.490959 -0.0652922,0 z M 4.02456,5.75 l 0.56665,1 -0.591214,0 0,-1 0.0245638,0 z "/>
<path fill="rgb(241,240,234)" stroke="rgb(241,240,234)" d="M 5,5.65286 l -0.0910428,-0.160669 0.0910428,0 0,0.160669 z M 4.36806,5.75 l -0.146089,-0.257812 0.343494,0 0.146089,0.257812 -0.343494,0 z M 4,5.70665 l 0.0245638,0.0433492 -0.0245638,0 0,-0.0433492 z "/>
<path fill="rgb(241,240,234)" stroke="rgb(241,240,234)" d="M 5,3.75 l 0,0.5 -0.10794,0 -0.283325,-0.5 0.391264,0 z "/>
<path fill="rgb(241,240,234)" stroke="rgb(241,240,234)" d="M 3,7.42112 l 0,-0.671121 1,0 0,0.739085 -0.25,0.0109152 -0.326834,-0.0142699 -0.324347,-0.042701 -0.0988193,-0.0219077 z "/>
<path fill="rgb(241,240,234)" stroke="rgb(241,240,234)" d="M 3,5.75 l 1,0 0,1 -1,0 0,-1 z "/>
<path fill="rgb(241,240,234)" stroke="rgb(241,240,234)" d="M 3,3.94189 l 0.174589,0.308108 -0.114736,0 -0.000372358,0.0241404 -0.00245434,0.0240182 -0.00451801,0.0237168 -0.00654796,0.0232384 -0.00852905,0.0225866 -0.0104465,0.0217662 -0.012286,0.0207835 -0.0140338,0.0196456 -0.000664992,0.000778855 0,-0.488783 z "/>
<path fill="rgb(241,240,234)" stroke="rgb(241,240,234)" d="M 2,7.06267 l 0,-0.312666 1,0 0,0.671121 -0.220571,-0.0488995 -0.312004,-0.0983745 -0.302243,-0.125193 -0.165182,-0.0859881 z "/>
<path fill="rgb(241,240,234)" stroke="rgb(241,240,234)" d="M 5.99451,6.75 l -0.0935979,0.0718202 -0.275912,0.175775 -0.290182,0.151059 -0.302243,0.125193 -0.0325755,0.010271 0,-0.211501 0.00205783,-0.000742335 0.094076,-0.0369966 -0.0961338,-0.169653 0,-0.115225 0.278202,0 0.090398,0.159531 0.0880366,-0.0466716 0.086692,-0.049124 0.0852792,-0.0515377 -0.0069116,-0.0121973 0.372813,0 z "/>
<path fill="rgb(241,240,234)" stroke="rgb(241,240,234)" d="M 4.31768,4.25776 l 0.000742633,0.0172991 0.00222243,0.0171718 0.00368588,0.0169181 0.00512221,0.01654 0.00652085,0.0160402 0.0078715,0.0154223 0.00916424,0.014691 0.0103895,0.0138516 0.0115384,0.0129102 0.0126024,0.0118739 0.0135736,0.0107502 0.014445,0.00954737 0.01521,0.00827431 0.0158632,0.00694037 0.0163996,0.00555535 0.0168154,0.00412947 0.0171074,0.00267319 0.0172736,0.00119725 0.0173126,-0.0002875 0.0172243,-0.00177014 0.0170092,-0.00323975 0.016669,-0.00468552 0.0162061,-0.00609682 0.015624,-0.00746325 0.0149269,-0.00877478 0.01412,-0.0100217 0.0385654,0.0680587 -0.0206591,0.0134093 -0.0217594,0.0115385 -0.0226907,0.0095781 -0.0234458,0.00754331 -0.0240189,0.00544994 -0.0244054,0.00331425 -0.0246024,0.00115282 -0.0246084,-0.00101756 -0.0244232,-0.00318004 -0.0240484,-0.00531783 -0.0234869,-0.00741432 -0.022743,-0.00945323 -0.0218225,-0.0114187 -0.0207325,-0.0132956 -0.0194815,-0.0150692 -0.0180792,-0.0167257 -0.072085,-0.127213 -0.00526871,-0.0254116 -0.00288896,-0.0257908 -0.000484303,-0.0259475 -0.035075,0 -0.283325,-0.5 0.343494,0 0.181122,0.319636 -0.0158352,0.00695373 -0.0151818,0.0082837 -0.014417,0.00955286 -0.0135464,0.0107519 -0.0125763,0.011872 -0.0115139,0.012905 -0.010367,0.0138432 -0.00914393,0.0146798 -0.00785378,0.0154086 -0.00650597,0.0160244 -0.0051104,0.0165225 -0.00367732,0.0168993 -0.00221725,0.017152 -0.000740896,0.0172789 z "/>
<path fill="rgb(241,240,234)" stroke="rgb(241,240,234)" d="M 2,5.75 l 1,0 0,1 -1,0 0,-1 z "/>
<path fill="rgb(241,240,234)" stroke="rgb(241,240,234)" d="M 2.26204,4.75 l 5.378e-05,5.65359e-05 0.00469416,0.00412469 0.00504389,0.00368881 0.00535329,0.00322342 0.00561987,0.00273226 0.0058415,0.00221924 0.397473,0.130985 0.00543864,0.0020467 0.00524976,0.00249153 0.00502458,0.00291914 0.00476464,0.00332655 0.00447175,0.00371096 0.00414793,0.00406969 0.284784,0.303665 0,0.53074 -1,0 0,-1 0.262038,0 z "/>
<path fill="rgb(241,240,234)" stroke="rgb(241,240,234)" d="M 7,4.75 l 0.362943,0 -0.0890957,0.282576 -0.125193,0.302243 -0.148654,0.285562 0,-0.870381 z "/>
<path fill="rgb(241,240,234)" stroke="rgb(241,240,234)" d="M 3.51808,4.25 l -0.283325,-0.5 0.343494,0 0.283325,0.5 -0.343494,0 z "/>
<path fill="rgb(241,240,234)" stroke="rgb(241,240,234)" d="M 7.5,3.75 l -0.0142699,0.326834 -0.042701,0.324347 -0.0708072,0.319391 -0.0092788,0.0294286 -0.362943,0 0,-1 0.5,0 z "/>
<path fill="rgb(142,146,145)" stroke="rgb(142,146,145)" d="M 2.98232,4.25776 l -0.000768121,0.0175929 -0.00229852,0.017459 -0.00381142,0.0171922 -0.00529532,0.0167946 -0.00673891,0.0162692 -0.00813122,0.0156199 -0.00946165,0.0148518 -0.0107201,0.0139707 -0.0118969,0.0129832 -0.0129832,0.0118969 -0.0139707,0.0107201 -0.0148518,0.00946165 -0.0156199,0.00813122 -0.0162692,0.00673891 -0.0167946,0.00529532 -0.0171922,0.00381142 -0.017459,0.00229852 -0.0175929,0.000768121 -0.0175929,-0.000768121 -0.017459,-0.00229852 -0.0171922,-0.00381142 -0.0167946,-0.00529532 -0.0162692,-0.00673891 -0.0156199,-0.00813122 -0.0148518,-0.00946165 -0.0139707,-0.0107201 -0.0129832,-0.0118969 -0.0118969,-0.0129832 -0.0107201,-0.0139707 -0.00946165,-0.0148518 -0.00813122,-0.0156199 -0.00673891,-0.0162692 -0.00529532,-0.0167946 -0.00381142,-0.0171922 -0.00229852,-0.017459 -0.000768121,-0.0175929 0.000768121,-0.0175929 0.00229852,-0.017459 0.00381142,-0.0171922 0.00529532,-0.0167946 0.00673891,-0.0162692 0.00813122,-0.0156199 0.00946165,-0.0148518 0.0107201,-0.0139707 0.0118969,-0.0129832 0.0129832,-0.0118969 0.0139707,-0.0107201 0.0148518,-0.00946165 0.0156199,-0.00813122 0.0162692,-0.00673891 0.0167946,-0.00529532 0.0171922,-0.00381142 0.017459,-0.00229852 0.0175929,-0.000768121 0.0175929,0.000768121 0.017459,0.00229852 0.0171922,0.00381142 0.0167946,0.00529532 0.0162692,0.00673891 0.0156199,0.00813122 0.0148518,0.00946165 0.0139707,0.0107201 0.0129832,0.0118969 0.0118969,0.0129832 0.0107201,0.0139707 0.00946165,0.0148518 0.00813122,0.0156199 0.00673891,0.0162692 0.00529532,0.0167946 0.00381142,0.0171922 0.00229852,0.017459 0.000768121,0.0175929 z "/>
<path fill="rgb(142,146,145)" stroke="rgb(142,146,145)" d="M 4.31768,4.25776 l 0.000740896,-0.0172789 0.00221725,-0.017152 0.00367732,-0.0168993 0.0051104,-0.0165225 0.00650597,-0.0160244 0.00785378,-0.0154086 0.00914393,-0.0146798 0.010367,-0.0138432 0.0115139,-0.012905 0.0125763,-0.011872 0.0135464,-0.0107519 0.014417,-0.00955286 0.0151818,-0.0082837 0.0158352,-0.00695373 0.196953,0.347574 -0.01412,0.0100217 -0.0149269,0.00877478 -0.015624,0.00746325 -0.0162061,0.00609682 -0.016669,0.00468552 -0.0170092,0.00323975 -0.0172243,0.00177014 -0.0173126,0.0002875 -0.0172736,-0.00119725 -0.0171074,-0.00267319 -0.0168154,-0.00412947 -0.0163996,-0.00555535 -0.0158632,-0.00694037 -0.01521,-0.00827431 -0.014445,-0.00954737 -0.0135736,-0.0107502 -0.0126024,-0.0118739 -0.0115384,-0.0129102 -0.0103895,-0.0138516 -0.00916424,-0.014691 -0.0078715,-0.0154223 -0.00652085,-0.0160402 -0.00512221,-0.01654 -0.00368588,-0.0169181 -0.00222243,-0.0171718 -0.000742633,-0.0172991 z "/>
<path fill="rgb(142,146,145)" stroke="rgb(142,146,145)" d="M 3.24064,5.25 l 0,-0.0157567 0.121049,0 0.00338324,-0.000147716 0.00335749,-0.000442023 0.00330619,-0.000732966 0.00322973,-0.00101833 0.00312869,-0.00129594 0.00300383,-0.0015637 0.00285612,-0.00181955 0.00268666,-0.00206155 0.00249677,-0.00228786 0.00228786,-0.00249677 0.00206155,-0.00268666 0.00181955,-0.00285612 0.0015637,-0.00300383 0.00129594,-0.00312869 0.00101833,-0.00322973 0.000732966,-0.00330619 0.000442023,-0.00335749 0.000147716,-0.00338324 0,-0.316027 -0.000256471,-0.00598123 -0.000767531,-0.00593732 -0.00127296,-0.00584982 -0.00176904,-0.00571939 -0.00225213,-0.00554696 -0.00271869,-0.00533381 -0.00316529,-0.00508151 -0.00358866,-0.00479191 -0.00398568,-0.00446712 -0.00435344,-0.00410955 -0.00468925,-0.0037218 -0.00499063,-0.00330674 -0.00525537,-0.00286739 -0.00548153,-0.002407 -0.00566745,-0.00192894 -0.00581177,-0.00143672 -0.00591342,-0.000933951 -0.0979282,-0.0111916 0,-0.432219 0.500598,0.883434 -0.500598,0 z "/>
<path fill="rgb(142,146,145)" stroke="rgb(142,146,145)" d="M 3.24064,5.25 l 0.500598,0 0.137236,0.242188 -0.592252,0 -0.00633786,-0.000288033 -0.00628561,-0.000861724 -0.00618154,-0.00142831 -0.0060265,-0.00198312 -0.00582178,-0.00252158 -0.00556906,-0.00303926 -0.00527042,-0.00353187 -0.00408836,-0.00331441 0,-0.225219 z "/>
<path fill="rgb(142,146,145)" stroke="rgb(142,146,145)" d="M 4.20507,4.25 l 0.035075,0 0.000484303,0.0259475 0.00288896,0.0257908 0.00526871,0.0254116 -0.043717,-0.0771499 z "/>
<path fill="rgb(142,146,145)" stroke="rgb(142,146,145)" d="M 4.68188,4.48527 l 0.566247,0.99929 -0.0117555,0.00332227 -0.0119803,0.00238785 -0.012131,0.00143865 -0.0122065,0.00048054 -0.291098,0 -0.588083,-1.03783 0.0180792,0.0167257 0.0194815,0.0150692 0.0207325,0.0132956 0.0218225,0.0114187 0.022743,0.00945323 0.0234869,0.00741432 0.0240484,0.00531783 0.0244232,0.00318004 0.0246084,0.00101756 0.0246024,-0.00115282 0.0244054,-0.00331425 0.0240189,-0.00544994 0.0234458,-0.00754331 0.0226907,-0.0095781 0.0217594,-0.0115385 0.0206591,-0.0134093 z "/>
<path fill="rgb(142,146,145)" stroke="rgb(142,146,145)" d="M 3.51808,4.25 l 0.343494,0 0.703885,1.24219 -0.343494,0 -0.703885,-1.24219 z "/>
<path fill="rgb(142,146,145)" stroke="rgb(142,146,145)" d="M 4.89206,4.25 l 0.393395,0 0.00608984,0.000265888 0.00604349,0.000795641 0.00595115,0.00131934 0.00581351,0.00183299 0.00563164,0.0023327 0.0054069,0.00281465 0.00514101,0.00327518 0.004836,0.00371079 0.00449418,0.00411815 0.00411815,0.00449418 0.00371079,0.004836 0.00327518,0.00514101 0.00281465,0.0054069 0.0023327,0.00563164 0.00183299,0.00581351 0.00131934,0.00595115 0.000795641,0.00604349 0.000265888,0.00608984 0,0.747683 -0.463268,-0.817556 z "/>
<path fill="rgb(142,146,145)" stroke="rgb(142,146,145)" d="M 3.24064,5.23424 l 0,0.0157567 -0.211812,0 -0.313613,-0.334405 -0.00414793,-0.00406969 -0.00447175,-0.00371096 -0.00476464,-0.00332655 -0.00502458,-0.00291914 -0.00524976,-0.00249153 -0.00543864,-0.0020467 -0.397473,-0.130985 -0.0058415,-0.00221924 -0.00561987,-0.00273226 -0.00535329,-0.00322342 -0.00504389,-0.00368881 -0.00469416,-0.00412469 -0.00430688,-0.00452758 -0.00388515,-0.00489426 -0.00343235,-0.00522179 -0.0029521,-0.00550757 -0.00244824,-0.00574929 -0.00192479,-0.00594503 -0.00138595,-0.00609322 -0.000836032,-0.00619267 -0.000279422,-0.0062426 0,-0.379809 0.000265888,-0.00608984 0.000795641,-0.00604349 0.00131934,-0.00595115 0.00183299,-0.00581351 0.0023327,-0.00563164 0.00281465,-0.0054069 0.00327518,-0.00514101 0.00371079,-0.004836 0.00411815,-0.00449418 0.00449418,-0.00411815 0.004836,-0.00371079 0.00514101,-0.00327518 0.0054069,-0.00281465 0.00563164,-0.0023327 0.00581351,-0.00183299 0.00595115,-0.00131934 0.00604349,-0.000795641 0.00608984,-0.000265888 0.19057,0 0.000372358,0.0241404 0.00245434,0.0240182 0.00451801,0.0237168 0.00654796,0.0232384 0.00852905,0.0225866 0.0104465,0.0217662 0.012286,0.0207835 0.0140338,0.0196456 0.0156769,0.0183612 0.017203,0.0169397 0.0186008,0.0153919 0.0198597,0.0137292 0.0209705,0.011964 0.0219248,0.0101096 0.0227154,0.00817969 0.0233366,0.00618878 0.0237837,0.00415169 0.0240532,0.00208362 0.0241433,-8.88178e-16 0.0240532,-0.00208362 0.0237837,-0.00415169 0.0233366,-0.00618878 0.0227154,-0.00817969 0.0219248,-0.0101096 0.0209705,-0.011964 0.0198597,-0.0137292 0.0186008,-0.0153919 0.017203,-0.0169397 0.0156769,-0.0183612 0.0140338,-0.0196456 0.012286,-0.0207835 0.0104465,-0.0217662 0.00852905,-0.0225866 0.00654796,-0.0232384 0.00451801,-0.0237168 0.00245434,-0.0240182 0.000372358,-0.0241404 0.114736,0 0.066052,0.116566 0,0.432219 -0.402886,-0.0460434 -0.0060668,-0.000426933 -0.00608094,0.000102242 -0.00604902,0.000630643 -0.00597126,0.00115427 -0.00584827,0.00166914 -0.00568097,0.00217138 -0.00547063,0.00265716 -0.00521885,0.00312281 -0.00492752,0.0035648 -0.00459887,0.00397979 -0.00423537,0.00436462 -0.00383979,0.00471639 -0.00341511,0.00503243 -0.00296457,0.00531034 -0.00249156,0.00554801 -0.00199968,0.00574366 -0.00149264,0.00589579 -0.0009743,0.00600325 -0.000448577,0.00606524 8.05451e-05,0.00608127 0.000609057,0.00605123 0.00113295,0.00597534 0.00164827,0.00585419 0.00215109,0.00568868 0.00263762,0.00548008 0.00310417,0.00522996 0.0035472,0.00494021 0.00396336,0.00461304 0.32093,0.342207 0.00454562,0.00442592 0.00492834,0.00399537 0.00527042,0.00353187 0.00556906,0.00303926 0.00582178,0.00252158 0.0060265,0.00198312 0.00618154,0.00142831 0.00628561,0.000861724 0.00633786,0.000288033 0.089889,0 z "/>
<path fill="rgb(142,146,145)" stroke="rgb(142,146,145)" d="M 3.02883,5.25 l 0.211812,0 0,0.225219 -0.000839975,-0.000680962 -0.00454562,-0.00442592 -0.206427,-0.220112 z "/>
<path fill="rgb(142,146,145)" stroke="rgb(142,146,145)" d="M 4.20858,3.65 l -0.343494,0 -0.713888,-1.25984 0.343494,0 0.713888,1.25984 z "/>
<path fill="rgb(142,146,145)" stroke="rgb(142,146,145)" d="M 2.8346,3.65 l -0.017301,0 0,-0.0305321 0.017301,0.0305321 z "/>
<path fill="rgb(142,146,145)" stroke="rgb(142,146,145)" d="M 2.68858,3.39231 l -0.00179152,0.00311433 -0.00206284,0.00294165 -0.00231762,0.0027454 -0.00255384,0.00252715 -0.00276959,0.00228865 -0.00296315,0.00203182 -0.00313297,0.00175871 -0.00327769,0.0014715 -0.00339615,0.00117251 -0.00348739,0.000864119 -0.00355069,0.000548805 -0.513085,0 -0.00602989,-0.000258187 -0.00598575,-0.000772671 -0.0058978,-0.0012815 -0.00576667,-0.00178095 -0.00559333,-0.00226736 -0.00537905,-0.00273717 -0.00512539,-0.00318695 -0.00483421,-0.0036134 -0.00450765,-0.0040134 -0.00414809,-0.00438402 -0.00375817,-0.00472255 -0.00334074,-0.00502651 -0.00289885,-0.00529367 -0.00243574,-0.00552209 -0.0019548,-0.00571008 -0.0933465,-0.278612 0.148849,0 0.0544198,0.183859 0.000947237,0.00318459 0.00122466,0.00308854 0.00149253,0.00296837 0.00174874,0.00282503 0.0019913,0.00265962 0.00221831,0.00247345 0.002428,0.00226797 0.00261873,0.00204478 0.00278901,0.00180562 0.00293752,0.00155237 0.00306309,0.00128699 0.00316474,0.00101157 0.00324169,0.000728242 0.00329332,0.000439232 0.00331924,0.000146793 0.30734,0 0.00286385,8.74832e-05 0.00286069,-0.000160426 0.00283611,-0.000407133 0.00279029,-0.000650792 0.00272359,-0.000889578 0.00263649,-0.0011217 0.00252964,-0.00134543 0.00240386,-0.00155908 0.00226008,-0.00176106 0.00209937,-0.00194985 0.00192294,-0.00212404 0.00173212,-0.00228233 0.00152833,-0.00242353 0.00131309,-0.00254658 0.00108802,-0.00265056 0.000854805,-0.0027347 0.000615188,-0.00279836 0.000370965,-0.00284107 0.000123964,-0.0028625 0,-0.0882273 0.12275,0.216624 z "/>
<path fill="rgb(142,146,145)" stroke="rgb(142,146,145)" d="M 4.55207,3.65 l -0.713888,-1.25984 0.0433715,0 0.00854336,0.0283551 0.0110002,0.0274954 0.013372,0.0264233 0.0156406,0.025147 0.0177883,0.0236765 0.0197986,0.0220231 0.021656,0.0201995 0.023346,0.0182199 0.0248557,0.0160995 0.0261734,0.0138548 0.0272888,0.011503 0.0281935,0.00906238 0.0288804,0.00655173 0.0293441,0.00399047 0.0295812,0.00139838 0.596569,0 0.0297095,-0.00130696 0.02948,-0.0039108 0.0290227,-0.00648441 0.0283411,-0.00900793 0.0274406,-0.0114619 0.0263281,-0.0138272 0.0250122,-0.0160858 0.0235031,-0.01822 0.0218123,-0.0202135 0.019953,-0.0220508 0.0179396,-0.0237178 0.0157876,-0.0252015 0.0135136,-0.0264905 0.0111352,-0.0275748 0.00867071,-0.0284461 0.355596,0 0,1.25984 -0.93476,0 z "/>
<path fill="rgb(142,146,145)" stroke="rgb(142,146,145)" d="M 2.36909,2.95403 l 0.0186659,-0.0926057 0.052475,0.0926057 -0.0711409,0 z "/>
<path fill="rgb(142,146,145)" stroke="rgb(142,146,145)" d="M 3.17809,3.65 l -0.360795,-0.636717 0,-0.297996 -0.0736596,0 0,0.168005 -0.144141,-0.254374 0.0274559,-0.00982861 0.026511,-0.0121487 0.0253706,-0.0143791 0.0240429,-0.0165034 0.0225379,-0.0185059 0.0208665,-0.0203719 0.0190411,-0.0220876 0.0170753,-0.0236402 0.0149834,-0.0250185 0.012781,-0.0262121 0.0104842,-0.0272122 0.70094,1.23699 -0.343494,0 z "/>
<path fill="rgb(142,146,145)" stroke="rgb(142,146,145)" d="M 2.36909,2.95403 l -0.275694,0 0.0386445,0.130562 -0.148849,0 -0.0726782,-0.216923 0.0304891,-0.411468 -0.0533404,-0.0330316 0,-0.11683 0.185555,0 0.314539,0.555086 -0.0186659,0.0926057 z "/>
<path fill="rgb(142,146,145)" stroke="rgb(142,146,145)" d="M 4.47484,2.30633 l -0.00100521,0.023023 -0.00300797,0.0228478 -0.00498784,0.0224987 -0.00692975,0.0219784 -0.00881892,0.0212908 -0.010641,0.0204411 -0.012382,0.0194359 -0.0140289,0.0182828 -0.0155689,0.0169905 -0.0169905,0.0155689 -0.0182828,0.0140289 -0.0194359,0.012382 -0.0204411,0.010641 -0.0212908,0.00881892 -0.0219784,0.00692975 -0.0224987,0.00498784 -0.0228478,0.00300797 -0.023023,0.00100521 -0.023023,-0.00100521 -0.0228478,-0.00300797 -0.0224987,-0.00498784 -0.0219784,-0.00692975 -0.0212908,-0.00881892 -0.0204411,-0.010641 -0.0194359,-0.012382 -0.0182828,-0.0140289 -0.0169905,-0.0155689 -0.0155689,-0.0169905 -0.0140289,-0.0182828 -0.012382,-0.0194359 -0.010641,-0.0204411 -0.00881892,-0.0212908 -0.00692975,-0.0219784 -0.00498784,-0.0224987 -0.00300797,-0.0228478 -0.00100521,-0.023023 0.00100521,-0.023023 0.00300797,-0.0228478 0.00498784,-0.0224987 0.00692975,-0.0219784 0.00881892,-0.0212908 0.010641,-0.0204411 0.012382,-0.0194359 0.0140289,-0.0182828 0.0155689,-0.0169905 0.0169905,-0.0155689 0.0182828,-0.0140289 0.0194359,-0.012382 0.0204411,-0.010641 0.0212908,-0.00881892 0.0219784,-0.00692975 0.0224987,-0.00498784 0.0228478,-0.00300797 0.023023,-0.00100521 0.023023,0.00100521 0.0228478,0.00300797 0.0224987,0.00498784 0.0219784,0.00692975 0.0212908,0.00881892 0.0204411,0.010641 0.0194359,0.012382 0.0182828,0.0140289 0.0169905,0.0155689 0.0155689,0.0169905 0.0140289,0.0182828 0.012382,0.0194359 0.010641,0.0204411 0.00881892,0.0212908 0.00692975,0.0219784 0.00498784,0.0224987 0.00300797,0.0228478 0.00100521,0.023023 z "/>
<path fill="rgb(142,146,145)" stroke="rgb(142,146,145)" d="M 4.5391,2.30633 l 0.00100521,-0.023023 0.00300797,-0.0228478 0.00498784,-0.0224987 0.00692975,-0.0219784 0.00881892,-0.0212908 0.010641,-0.0204411 0.012382,-0.0194359 0.0140289,-0.0182828 0.0155689,-0.0169905 0.0169905,-0.0155689 0.0182828,-0.0140289 0.0194359,-0.012382 0.0204411,-0.010641 0.0212908,-0.00881892 0.0219784,-0.00692975 0.0224987,-0.00498784 0.0228478,-0.00300797 0.023023,-0.00100521 0.023023,0.00100521 0.0228478,0.00300797 0.0224987,0.00498784 0.0219784,0.00692975 0.0212908,0.00881892 0.0204411,0.010641 0.0194359,0.012382 0.0182828,0.0140289 0.0169905,0.0155689 0.0155689,0.0169905 0.0140289,0.0182828 0.012382,0.0194359 0.010641,0.0204411 0.00881892,0.0212908 0.00692975,0.0219784 0.00498784,0.0224987 0.00300797,0.0228478 0.00100521,0.023023 -0.00100521,0.023023 -0.00300797,0.0228478 -0.00498784,0.0224987 -0.00692975,0.0219784 -0.00881892,0.0212908 -0.010641,0.0204411 -0.012382,0.0194359 -0.0140289,0.0182828 -0.0155689,0.0169905 -0.0169905,0.0155689 -0.0182828,0.0140289 -0.0194359,0.012382 -0.0204411,0.010641 -0.0212908,0.00881892 -0.0219784,0.00692975 -0.0224987,0.00498784 -0.0228478,0.00300797 -0.023023,0.00100521 -0.023023,-0.00100521 -0.0228478,-0.00300797 -0.0224987,-0.00498784 -0.0219784,-0.00692975 -0.0212908,-0.00881892 -0.0204411,-0.010641 -0.0194359,-0.012382 -0.0182828,-0.0140289 -0.0169905,-0.0155689 -0.0155689,-0.0169905 -0.0140289,-0.0182828 -0.012382,-0.0194359 -0.010641,-0.0204411 -0.00881892,-0.0212908 -0.00692975,-0.0219784 -0.00498784,-0.0224987 -0.00300797,-0.0228478 -0.00100521,-0.023023 z "/>
<path fill="rgb(142,146,145)" stroke="rgb(142,146,145)" d="M 2.76373,2.31256 l -0.00154652,0.0229817 -0.00354265,0.0227596 -0.00551185,0.0223645 -0.00743914,0.0217993 -0.00930987,0.0210684 -0.0111098,0.0201773 -0.0128253,0.0191328 -0.0144432,0.0179428 -0.0159514,0.0166164 -0.0173383,0.0151636 -0.0185933,0.0135956 -0.019707,0.0119242 -0.0206708,0.0101621 -0.0214775,0.00832278 -0.0221209,0.00642017 -0.250556,-0.442171 0.0168754,-0.0156771 0.018177,-0.0141474 0.0193403,-0.0125102 0.0203566,-0.0107778 0.0212181,-0.00896351 0.0219182,-0.00708106 0.0224518,-0.00514477 0.0228146,-0.00316936 0.023004,-0.00116986 0.0230184,0.000838538 0.0228579,0.00284056 0.0225235,0.00482099 0.0220179,0.00676476 0.0213449,0.00865709 0.0205096,0.0104836 0.133715,0.235975 z "/>
<path fill="rgb(42,41,42)" stroke="rgb(42,41,42)" d="M 2.68906,0.362241 l 1.14912,2.02792 -0.343494,0 -1.09082,-1.92504 0.094076,-0.0369966 0.0950913,-0.034303 0.0960294,-0.0315816 z "/>
<path fill="rgb(42,41,42)" stroke="rgb(42,41,42)" d="M 4.64332,4.41721 l -0.196953,-0.347574 0.0168674,-0.0057172 0.0173057,-0.00420816 0.0176093,-0.00266636 0.0177758,-0.0011038 0.0178039,0.000467355 0.0176934,0.00203487 0.0174451,0.00358654 0.0170611,0.00511029 0.0165442,0.00659426 0.0158986,0.0080269 0.0151292,0.00939705 0.014242,0.010694 0.0132439,0.0119078 0.0121427,0.0130288 0.010947,0.0140484 0.00966613,0.0149587 0.00830996,0.0157525 0.0068891,0.0164237 0.00541461,0.016967 0.00389797,0.0173782 0.00235099,0.0176542 0.000785702,0.0177927 -0.0008364,0.0183566 -0.00250227,0.0182045 -0.0041474,0.0179015 -0.00575816,0.0174501 -0.0073212,0.0168542 -0.00882357,0.0161186 -0.0102528,0.0152494 -0.0115971,0.0142538 -0.0128453,0.0131401 -0.013987,0.0119175 z "/>
<path fill="rgb(42,41,42)" stroke="rgb(42,41,42)" d="M 4.60874,3.75 l 0.283325,0.5 -0.0931447,0 -0.000415368,0.0248574 -0.00262261,0.0247222 -0.00480911,0.0243913 -0.00695755,0.0238675 -0.00905095,0.0231548 -0.0110727,0.0222589 -0.0130069,0.0211869 -0.0148382,0.0199473 -0.016552,0.0185498 -0.0181349,0.0170056 -0.0195743,0.0153268 -0.0385654,-0.0680587 0.013987,-0.0119175 0.0128453,-0.0131401 0.0115971,-0.0142538 0.0102528,-0.0152494 0.00882357,-0.0161186 0.0073212,-0.0168542 0.00575816,-0.0174501 0.0041474,-0.0179015 0.00250227,-0.0182045 0.0008364,-0.0183566 -0.000785702,-0.0177927 -0.00235099,-0.0176542 -0.00389797,-0.0173782 -0.00541461,-0.016967 -0.0068891,-0.0164237 -0.00830996,-0.0157525 -0.00966613,-0.0149587 -0.010947,-0.0140484 -0.0121427,-0.0130288 -0.0132439,-0.0119078 -0.014242,-0.010694 -0.0151292,-0.00939705 -0.0158986,-0.0080269 -0.0165442,-0.00659426 -0.0170611,-0.00511029 -0.0174451,-0.00358654 -0.0176934,-0.00203487 -0.0178039,-0.000467355 -0.0177758,0.0011038 -0.0176093,0.00266636 -0.0173057,0.00420816 -0.0168674,0.0057172 -0.181122,-0.319636 -0.056665,-0.1 0.343494,0 0.056665,0.1 z "/>
<path fill="rgb(42,41,42)" stroke="rgb(42,41,42)" d="M 5.35533,5.33691 l 0,-0.269358 0.755648,1.33354 -0.0764417,0.0661491 -0.0782942,0.0639458 -0.0800831,0.0616906 -0.628029,-1.10832 0.0130349,-0.00490094 0.0125434,-0.00604909 0.0119509,-0.00714859 0.0112624,-0.00819059 0.0104833,-0.00916671 0.00961981,-0.0100691 0.00867898,-0.0108905 0.00766834,-0.0116243 0.00659602,-0.0122646 0.00547064,-0.0128062 0.00430126,-0.0132449 0.00309728,-0.013577 0.00186839,-0.0137999 0.000624471,-0.0139118 z "/>
<path fill="rgb(42,41,42)" stroke="rgb(42,41,42)" d="M 5.35533,5.33691 l -0.000624471,0.0139118 -0.00186839,0.0137999 -0.00309728,0.013577 -0.00430126,0.0132449 -0.00547064,0.0128062 -0.00659602,0.0122646 -0.00766834,0.0116243 -0.00867898,0.0108905 -0.00961981,0.0100691 -0.0104833,0.00916671 -0.0112624,0.00819059 -0.0119509,0.00714859 -0.0125434,0.00604909 -0.0130349,0.00490094 -0.566247,-0.99929 0.0195743,-0.0153268 0.0181349,-0.0170056 0.016552,-0.0185498 0.0148382,-0.0199473 0.0130069,-0.0211869 0.0110727,-0.0222589 0.00905095,-0.0231548 0.00695755,-0.0238675 0.00480911,-0.0243913 0.00262261,-0.0247222 0.000415368,-0.0248574 0.0931447,0 0.463268,0.817556 0,0.269358 z "/>
<path fill="rgb(42,41,42)" stroke="rgb(42,41,42)" d="M 4.55207,3.65 l -0.343494,0 -0.713888,-1.25984 0.343494,0 0.713888,1.25984 z "/>
<path fill="rgb(42,41,42)" stroke="rgb(42,41,42)" d="M 2.7638,2.30633 l -8.15986e-06,0.00207628 -2.44791e-05,0.00207615 -4.07968e-05,0.0020759 -0.133715,-0.235975 0.0196628,0.01233 0.0185046,0.0140083 0.0172036,0.0155784 0.0157698,0.0170284 0.0142143,0.0183468 0.0125491,0.0195237 0.010787,0.0205498 0.00894157,0.0214173 0.00702716,0.0221195 0.00505851,0.0226509 0.00305081,0.0230075 0.00101956,0.0231865 z "/>
<path fill="rgb(42,41,42)" stroke="rgb(42,41,42)" d="M 3.86158,4.25 l 0.343494,0 0.043717,0.0771499 0.00716602,0.0235836 0.00921596,0.0228605 0.0111942,0.0219597 0.0130854,0.020888 0.0148748,0.0196539 0.0165486,0.018267 0.588083,1.03783 -0.343494,0 -0.703885,-1.24219 z "/>
<path fill="rgb(42,41,42)" stroke="rgb(42,41,42)" d="M 3.52159,3.65 l -0.70094,-1.23699 0.00244827,-0.00756283 0.00227052,-0.00761808 0.00209153,-0.00766915 0.323736,0 0.713888,1.25984 -0.343494,0 z "/>
<path fill="rgb(42,41,42)" stroke="rgb(42,41,42)" d="M 3.86158,4.25 l -0.283325,-0.5 -0.056665,-0.1 0.343494,0 0.056665,0.1 0.283325,0.5 -0.343494,0 z "/>
<path fill="rgb(42,41,42)" stroke="rgb(42,41,42)" d="M 2.7638,2.30633 l -0.00101956,-0.0231865 -0.00305081,-0.0230075 -0.00505851,-0.0226509 -0.00702716,-0.0221195 -0.00894157,-0.0214173 -0.010787,-0.0205498 -0.0125491,-0.0195237 -0.0142143,-0.0183468 -0.0157698,-0.0170284 -0.0172036,-0.0155784 -0.0185046,-0.0140083 -0.0196628,-0.01233 -0.75862,-1.33878 0.0852792,-0.0515377 0.086692,-0.049124 0.0880366,-0.0466716 1.01979,1.79969 -0.323736,0 -0.00209153,0.00766915 -0.00227052,0.00761808 -0.00244827,0.00756283 -0.0569206,-0.100451 4.07968e-05,-0.0020759 2.44791e-05,-0.00207615 8.15986e-06,-0.00207628 z "/>
<path fill="rgb(42,41,42)" stroke="rgb(42,41,42)" d="M 4.32087,4.45436 l -0.0165486,-0.018267 -0.0148748,-0.0196539 -0.0130854,-0.020888 -0.0111942,-0.0219597 -0.00921596,-0.0228605 -0.00716602,-0.0235836 0.072085,0.127213 z "/>
<path fill="rgb(42,41,42)" stroke="rgb(42,41,42)" d="M 5.3686,6.90953 l -0.803137,-1.41734 0.343494,0 0.719651,1.27001 -0.0852792,0.0515377 -0.086692,0.049124 -0.0880366,0.0466716 z "/>
<path fill="rgb(42,41,42)" stroke="rgb(42,41,42)" d="M 4.81094,7.13776 l -0.932463,-1.64557 0.343494,0 0.874165,1.54269 -0.094076,0.0369966 -0.0950913,0.034303 -0.0960294,0.0315816 z "/>
<path fill="rgb(42,41,42)" stroke="rgb(42,41,42)" d="M 2.56214,2.56299 l -0.0223219,0.00442671 -0.0226201,0.00248909 -0.0227504,0.000532999 -0.0227119,-0.00142705 -0.0225048,-0.0033765 -0.0221306,-0.0053009 -0.0215923,-0.00718596 -0.0208937,-0.00901769 -0.02004,-0.0107825 -0.0190376,-0.0124673 -0.017894,-0.0140595 -0.0166175,-0.0155475 -0.0152177,-0.01692 -0.013705,-0.018167 -0.0120906,-0.0192791 -0.0103864,-0.0202482 -0.00860514,-0.021067 -0.00676003,-0.0217294 -0.00486475,-0.0222306 -0.00293336,-0.0225668 -0.000980213,-0.0227355 0.000987848,-0.0228237 0.00295616,-0.022653 0.00490235,-0.0223129 0.00681189,-0.0218059 0.00867047,-0.0211358 0.0104642,-0.0203076 0.0121797,-0.0193275 0.0138041,-0.0182029 0.0153252,-0.0169422 0.250556,0.442171 z "/>
<path fill="rgb(42,41,42)" stroke="rgb(42,41,42)" d="M 2.74364,2.91085 l 0,-0.0275593 0.0736596,0.129991 0,0.606184 -0.128718,-0.227156 0.00154668,-0.0033624 0.00123039,-0.00349057 0.000903641,-0.00358907 0.000569209,-0.00365704 0.0508083,-0.467362 z "/>
<path fill="rgb(42,41,42)" stroke="rgb(42,41,42)" d="M 2.74364,2.91085 l -0.0508083,0.467362 -0.000569209,0.00365704 -0.000903641,0.00358907 -0.00123039,0.00349057 -0.00154668,0.0033624 -0.12275,-0.216624 0,-0.186092 -0.000134441,-0.00309929 -0.0004041,-0.00307578 -0.000670683,-0.00302884 -0.000932159,-0.00295885 -0.00118654,-0.00286632 -0.00143188,-0.00275198 -0.00166633,-0.00261668 -0.00188809,-0.00246147 -0.00209547,-0.00228751 -0.0022869,-0.00209613 -0.00246092,-0.0018888 -0.0026162,-0.00166709 -0.00275156,-0.00143268 -0.00286598,-0.00118737 -0.00295858,-0.000933019 -0.00302865,-0.000671563 -0.00307566,-0.000404994 -0.00309925,-0.000135341 -0.0900477,0 -0.052475,-0.0926057 0.0451006,-0.223755 0.0277575,0.00432162 0.0280198,0.00201186 0.0280902,-0.000311666 0.0279683,-0.00263306 0.0276548,-0.00493643 0.027152,-0.00720599 0.144141,0.254374 0,0.0275593 z "/>
<path fill="rgb(42,41,42)" stroke="rgb(42,41,42)" d="M 2.89126,3.75 l -0.056665,-0.1 0.343494,0 0.056665,0.1 0.283325,0.5 -0.343494,0 -0.283325,-0.5 z "/>
<path fill="rgb(42,41,42)" stroke="rgb(42,41,42)" d="M 2.56583,3.17569 l -0.125601,-0.221656 0.0900477,0 0.00309925,0.000135341 0.00307566,0.000404994 0.00302865,0.000671563 0.00295858,0.000933019 0.00286598,0.00118737 0.00275156,0.00143268 0.0026162,0.00166709 0.00246092,0.0018888 0.0022869,0.00209613 0.00209547,0.00228751 0.00188809,0.00246147 0.00166633,0.00261668 0.00143188,0.00275198 0.00118654,0.00286632 0.000932159,0.00295885 0.000670683,0.00302884 0.0004041,0.00307578 0.000134441,0.00309929 0,0.186092 z "/>
<path fill="rgb(42,41,42)" stroke="rgb(42,41,42)" d="M 1.62384,0.907122 l 0.687741,1.2137 -0.0153252,0.0169422 -0.0138041,0.0182029 -0.0121797,0.0193275 -0.0104642,0.0203076 -0.00867047,0.0211358 -0.00681189,0.0218059 -0.00490235,0.0223129 -0.00295616,0.022653 -0.000987848,0.0228237 0.000980213,0.0227355 0.00293336,0.0225668 0.00486475,0.0222306 0.00676003,0.0217294 0.00860514,0.021067 0.0103864,0.0202482 0.0120906,0.0192791 0.013705,0.018167 0.0152177,0.01692 0.0166175,0.0155475 0.017894,0.0140595 0.0190376,0.0124673 0.02004,0.0107825 0.0208937,0.00901769 0.0215923,0.00718596 0.0221306,0.0053009 0.0225048,0.0033765 0.0227119,0.00142705 0.0227504,-0.000532999 0.0226201,-0.00248909 0.0223219,-0.00442671 0.0373581,0.065928 -0.027152,0.00720599 -0.0276548,0.00493643 -0.0279683,0.00263306 -0.0280902,0.000311666 -0.0280198,-0.00201186 -0.0277575,-0.00432162 -0.0282369,-0.00686974 -0.027546,-0.00925952 -0.0266531,-0.0115814 -0.025565,-0.0138185 -0.0242895,-0.0159543 -0.022836,-0.0179732 -0.0212152,-0.0198604 -0.0194389,-0.021602 -0.0175202,-0.0231854 -0.0154731,-0.0245988 -0.0133126,-0.025832 -0.0110545,-0.0268759 -0.00871549,-0.0277229 -0.00631257,-0.0283667 -0.00386339,-0.0288027 -0.00138591,-0.0290275 -0.0862216,0 -0.684191,-1.20743 0.0764417,-0.0661491 0.0782942,-0.0639458 0.0800831,-0.0616906 z "/>
<path fill="rgb(42,41,42)" stroke="rgb(42,41,42)" d="M 2.07322,2.30634 l 0.0862216,0 0.00138591,0.0290275 0.00386339,0.0288027 0.00631257,0.0283667 0.00871549,0.0277229 0.0110545,0.0268759 0.0133126,0.025832 0.0154731,0.0245988 0.0175202,0.0231854 0.0194389,0.021602 0.0212152,0.0198604 0.022836,0.0179732 0.0242895,0.0159543 0.025565,0.0138185 0.0266531,0.0115814 0.027546,0.00925952 0.0282369,0.00686974 -0.0451006,0.223755 -0.314539,-0.555086 z "/>
<path fill="rgb(42,41,42)" stroke="rgb(42,41,42)" d="M 2.8346,3.65 l -0.017301,-0.0305321 0,-0.606184 0.360795,0.636717 -0.343494,0 z "/>
<path fill="rgb(42,41,42)" stroke="rgb(42,41,42)" d="M 3.17459,4.25 l 0.343494,0 0.703885,1.24219 -0.343494,0 -0.703885,-1.24219 z "/>
</g></g></svg>
