<?xml version="1.0" encoding="UTF-8" standalone="no"?>
<!DOCTYPE svg PUBLIC "-//W3C//DTD SVG 1.1//EN" "http://www.w3.org/Graphics/SVG/1.1/DTD/svg11-flat.dtd"
[

]>
<svg xmlns="http://www.w3.org/2000/svg"  viewBox="-0.112544 -0.112544 9.22863 12.226"><g fill="none" stroke="black" stroke-width="0.0125" transform="translate(0,12.0009) scale(1, -1)">
<g id="Output" >
<path fill="rgb(200,225,100)" stroke="rgb(200,225,100)" d="M 1.1,0.1 l 0,1 -1,0 0,-0.85 0.000570795,-0.0130734 0.00170804,-0.0129739 0.00283229,-0.0127756 0.00393498,-0.0124802 0.00500773,-0.0120897 0.00604236,-0.0116073 0.007031,-0.0110365 0.00796614,-0.0103817 0.00884065,-0.00964788 0.00964788,-0.00884065 0.0103817,-0.00796614 0.0110365,-0.007031 0.0116073,-0.00604236 0.0120897,-0.00500773 0.0124802,-0.00393498 0.0127756,-0.00283229 0.0129739,-0.00170804 0.0130734,-0.000570795 0.85,0 z "/>
<path fill="rgb(200,225,100)" stroke="rgb(200,225,100)" d="M 2.1,7.1 l 0.234064,0 0.2,0.4 -0.434064,0 0,-0.4 z "/>
<path fill="rgb(200,225,100)" stroke="rgb(200,225,100)" d="M 4.1,0.1 l 0,0.873326 -1,0 0,-0.873326 1,0 z "/>
<path fill="rgb(200,225,100)" stroke="rgb(200,225,100)" d="M 3.1,3.93541 l 0,-0.462084 1,0 0,0.462084 -1,0 z "/>
<path fill="rgb(200,225,100)" stroke="rgb(200,225,100)" d="M 5.1,0.1 l 0,0.873326 -1,0 0,-0.873326 1,0 z "/>
<path fill="rgb(200,225,100)" stroke="rgb(200,225,100)" d="M 6.1,0.1 l 0,0.873326 -1,-8.88178e-16 0,-0.873326 1,0 z "/>
<path fill="rgb(200,225,100)" stroke="rgb(200,225,100)" d="M 5.1,3.93541 l 0,-0.462084 1,8.88178e-16 0,0.462084 -1,4.44089e-16 z "/>
<path fill="rgb(200,225,100)" stroke="rgb(200,225,100)" d="M 2.07255,1.1 l -0.972549,0 0,-1 1,0 0,0.982512 -0.0274508,0.0174881 z "/>
<path fill="rgb(200,225,100)" stroke="rgb(200,225,100)" d="M 0.1,7.5 l 0,-0.4 1,0 0,0.4 -1,0 z "/>
<path fill="rgb(200,225,100)" stroke="rgb(200,225,100)" d="M 0.1,6.1 l 1,0 0,1 -1,0 0,-1 z "/>
<path fill="rgb(200,225,100)" stroke="rgb(200,225,100)" d="M 0.1,5.1 l 1,0 0,1 -1,0 0,-1 z "/>
<path fill="rgb(200,225,100)" stroke="rgb(200,225,100)" d="M 0.969804,4.1 l -0.00644236,0.0128374 -0.00975744,0.0246679 -0.00754016,0.0254334 -0.00526392,0.0260001 -0.00294653,0.0263634 -0.000606098,0.0265207 0.00173907,0.0264705 0.00407065,0.0262134 0.00637039,0.0257513 0.00862033,0.0250879 0.0108029,0.0242283 0.131149,0.262298 0,0.468128 -1,0 0,-1 0.869804,0 z "/>
<path fill="rgb(200,225,100)" stroke="rgb(200,225,100)" d="M 0.1,3.1 l 1,0 0,0.86892 -0.0146683,0.00775805 -0.0222624,0.0144255 -0.0209011,0.0163358 -0.0193763,0.0181183 -0.0177,0.0197591 -0.0158853,0.0212455 -0.0139464,0.0225657 -0.00545606,0.0108721 -0.869804,0 0,-1 z "/>
<path fill="rgb(200,225,100)" stroke="rgb(200,225,100)" d="M 0.1,2.1 l 1,0 0,1 -1,0 0,-1 z "/>
<path fill="rgb(200,225,100)" stroke="rgb(200,225,100)" d="M 0.1,1.1 l 1,0 0,1 -1,0 0,-1 z "/>
<path fill="rgb(200,225,100)" stroke="rgb(200,225,100)" d="M 2.1,7.1 l 0,-0.468128 0.234064,0.468128 -0.234064,0 z "/>
<path fill="rgb(200,225,100)" stroke="rgb(200,225,100)" d="M 4.1,3.93541 l 0,-0.462084 1,0 0,0.462084 -0.598231,4.44089e-16 -0.401769,0 z "/>
<path fill="rgb(200,225,100)" stroke="rgb(200,225,100)" d="M 2.1,3.93541 l 0,-0.57127 0.0187186,0.0119251 0.0561763,0.0292435 0.0585112,0.0242362 0.0604009,0.0190443 0.0618309,0.0137076 0.0627903,0.0082665 0.0632718,0.00276251 0.6183,0 0,0.462084 -1,0 z "/>
<path fill="rgb(200,225,100)" stroke="rgb(200,225,100)" d="M 3.1,0.1 l 0,0.873326 -0.6183,0 -0.0632718,0.00276251 -0.0627903,0.0082665 -0.0618309,0.0137076 -0.0604009,0.0190443 -0.0585112,0.0242362 -0.0561763,0.0292435 -0.0187186,0.0119251 0,-0.982512 1,0 z "/>
<path fill="rgb(200,225,100)" stroke="rgb(200,225,100)" d="M 8.1,7.1 l 0.803538,0 0,0.4 -0.803538,0 0,-0.4 z "/>
<path fill="rgb(200,225,100)" stroke="rgb(200,225,100)" d="M 8.90354,6.1 l 0,1 -0.803538,0 0,-1 0.803538,0 z "/>
<path fill="rgb(200,225,100)" stroke="rgb(200,225,100)" d="M 8.90354,5.1 l 0,1 -0.803538,0 0,-1 0.803538,0 z "/>
<path fill="rgb(200,225,100)" stroke="rgb(200,225,100)" d="M 8.90354,4.1 l 0,1 -0.803538,0 0,-1 0.803538,0 z "/>
<path fill="rgb(200,225,100)" stroke="rgb(200,225,100)" d="M 8.90354,3.1 l 0,1 -0.803538,0 0,-1 0.803538,0 z "/>
<path fill="rgb(200,225,100)" stroke="rgb(200,225,100)" d="M 8.90354,2.1 l 0,1 -0.803538,0 0,-1 0.803538,0 z "/>
<path fill="rgb(200,225,100)" stroke="rgb(200,225,100)" d="M 8.90354,1.1 l 0,1 -0.803538,0 0,-1 0.803538,0 z "/>
<path fill="rgb(200,225,100)" stroke="rgb(200,225,100)" d="M 8.1,1.1 l 0,-1 0.653538,8.88178e-16 0.0130734,0.000570795 0.0129739,0.00170804 0.0127756,0.00283229 0.0124802,0.00393498 0.0120897,0.00500773 0.0116073,0.00604236 0.0110365,0.007031 0.0103817,0.00796614 0.00964788,0.00884065 0.00884065,0.00964788 0.00796614,0.0103817 0.007031,0.0110365 0.00604236,0.0116073 0.00500773,0.0120897 0.00393498,0.0124802 0.00283229,0.0127756 0.00170804,0.0129739 0.000570795,0.0130734 0,0.85 -0.803538,0 z "/>
<path fill="rgb(200,225,100)" stroke="rgb(200,225,100)" d="M 7.1,7.5 l 0,-0.4 1,0 0,0.4 -1,0 z "/>
<path fill="rgb(200,225,100)" stroke="rgb(200,225,100)" d="M 7.1,6.23895 l 0.0694741,-0.138948 0.930526,0 0,1 -1,0 0,-0.861052 z "/>
<path fill="rgb(200,225,100)" stroke="rgb(200,225,100)" d="M 7.66947,5.1 l 0.430526,0 0,1 -0.930526,0 0.5,-1 z "/>
<path fill="rgb(200,225,100)" stroke="rgb(200,225,100)" d="M 1.1,7.5 l 0,-0.4 1,0 0,0.4 -1,0 z "/>
<path fill="rgb(200,225,100)" stroke="rgb(200,225,100)" d="M 1.83406,6.1 l 0.265936,0.531872 0,0.468128 -1,0 0,-1 0.734064,0 z "/>
<path fill="rgb(200,225,100)" stroke="rgb(200,225,100)" d="M 8.03373,4.1 l 0.0662663,0 0,1 -0.430526,0 0.365213,-0.730426 0.0108029,-0.0242283 0.00862033,-0.0250879 0.00637039,-0.0257513 0.00407065,-0.0262134 0.00173907,-0.0264705 -0.000606098,-0.0265207 -0.00294653,-0.0263634 -0.00526392,-0.0260001 -0.00754016,-0.0254334 -0.00975744,-0.0246679 -0.00644236,-0.0128374 z "/>
<path fill="rgb(200,225,100)" stroke="rgb(200,225,100)" d="M 7.1,3.93541 l 0,-0.73979 0.0244482,-0.0318615 0.0340283,-0.0534138 0.00538514,-0.0103448 0.936138,0 0,1 -0.0662663,0 -0.00545606,-0.0108721 -0.0139464,-0.0225657 -0.0158853,-0.0212455 -0.0177,-0.0197591 -0.0193763,-0.0181183 -0.0209011,-0.0163358 -0.0222624,-0.0144255 -0.0234497,-0.0124025 -0.0244537,-0.0102825 -0.0252664,-0.00808209 -0.0258816,-0.00581849 -0.0262944,-0.00350939 -0.0265016,-0.00117285 -0.666359,4.44089e-16 z "/>
<path fill="rgb(200,225,100)" stroke="rgb(200,225,100)" d="M 1.33406,5.1 l 0.5,1 -0.734064,0 0,-1 0.234064,0 z "/>
<path fill="rgb(200,225,100)" stroke="rgb(200,225,100)" d="M 1.1,5.1 l 0,-0.468128 0.234064,0.468128 -0.234064,0 z "/>
<path fill="rgb(200,225,100)" stroke="rgb(200,225,100)" d="M 7.25574,2.1 l 0.844263,0 0,1 -0.936138,0 0.0238584,-0.0458315 0.0242362,-0.0585112 0.0190443,-0.0604009 0.0137076,-0.0618309 0.0082665,-0.0627903 0.00276251,-0.0632718 0,-0.647363 z "/>
<path fill="rgb(200,225,100)" stroke="rgb(200,225,100)" d="M 7.1,1.25103 l 0,-0.151032 1,0 0,1 -0.844263,0 0,-0.400711 -0.00276251,-0.0632718 -0.0082665,-0.0627903 -0.0137076,-0.0618309 -0.0190443,-0.0604009 -0.0242362,-0.0585112 -0.0292435,-0.0561763 -0.0340283,-0.0534138 -0.0244482,-0.0318615 z "/>
<path fill="rgb(200,225,100)" stroke="rgb(200,225,100)" d="M 7.1,0.1 l 1,0 0,1 -1,0 0,-1 z "/>
<path fill="rgb(200,225,100)" stroke="rgb(200,225,100)" d="M 6.66947,7.1 l 0.430526,0 0,0.4 -0.630526,0 0.2,-0.4 z "/>
<path fill="rgb(200,225,100)" stroke="rgb(200,225,100)" d="M 7.1,6.23895 l 0,0.861052 -0.430526,0 0.430526,-0.861052 z "/>
<path fill="rgb(200,225,100)" stroke="rgb(200,225,100)" d="M 6.1,3.93541 l 0,-0.462084 0.429774,0 0.0632718,-0.00276251 0.0627903,-0.0082665 0.0618309,-0.0137076 0.0604009,-0.0190443 0.0585112,-0.0242362 0.0561763,-0.0292435 0.0534138,-0.0340283 0.0502447,-0.0385542 0.0466933,-0.0427866 0.0427866,-0.0466933 0.014106,-0.0183832 0,0.73979 -1,4.44089e-16 z "/>
<path fill="rgb(200,225,100)" stroke="rgb(200,225,100)" d="M 6.93893,1.1 l 0.161075,0 0,0.151032 -0.014106,-0.0183832 -0.0427866,-0.0466933 -0.0466933,-0.0427866 -0.0502447,-0.0385542 -0.00724436,-0.00461516 z "/>
<path fill="rgb(200,225,100)" stroke="rgb(200,225,100)" d="M 7.1,0.1 l 0,1 -0.161075,0 -0.0461694,-0.0294132 -0.0561763,-0.0292435 -0.0585112,-0.0242362 -0.0604009,-0.0190443 -0.0618309,-0.0137076 -0.0627903,-0.0082665 -0.0632718,-0.00276251 -0.429774,0 0,-0.873326 1,0 z "/>
<path fill="rgb(200,225,100)" stroke="rgb(200,225,100)" d="M 1.1,3.96892 l 0,-0.86892 0.747613,0 0.00538514,0.0103448 0.0340283,0.0534138 0.0385542,0.0502447 0.0427866,0.0466933 0.0466933,0.0427866 0.0502447,0.0385542 0.0346952,0.0221033 0,0.57127 -0.862821,0 -0.0265016,0.00117285 -0.0262944,0.00350939 -0.0258816,0.00581849 -0.0252664,0.00808209 -0.0244537,0.0102825 -0.0087814,0.00464446 z "/>
<path fill="rgb(200,225,100)" stroke="rgb(200,225,100)" d="M 1.75574,2.1 l -4.44089e-16,0.647363 0.00276251,0.0632718 0.0082665,0.0627903 0.0137076,0.0618309 0.0190443,0.0604009 0.0242362,0.0585112 0.0238584,0.0458315 -0.747613,0 0,-1 0.655737,0 z "/>
<path fill="rgb(200,225,100)" stroke="rgb(200,225,100)" d="M 2.07255,1.1 l -0.00724436,0.00461516 -0.0502447,0.0385542 -0.0466933,0.0427866 -0.0427866,0.0466933 -0.0385542,0.0502447 -0.0340283,0.0534138 -0.0292435,0.0561763 -0.0242362,0.0585112 -0.0190443,0.0604009 -0.0137076,0.0618309 -0.0082665,0.0627903 -0.00276251,0.0632718 -4.44089e-16,0.400711 -0.655737,0 0,-1 0.972549,0 z "/>
<path fill="rgb(200,225,100)" stroke="rgb(200,225,100)" d="M 8.90354,7.5 l 0,4.25089 -0.000570795,0.0130734 -0.00170804,0.0129739 -0.00283229,0.0127756 -0.00393498,0.0124802 -0.00500773,0.0120897 -0.00604236,0.0116073 -0.007031,0.0110365 -0.00796614,0.0103817 -0.00884065,0.00964788 -0.00964788,0.00884065 -0.0103817,0.00796614 -0.0110365,0.007031 -0.0116073,0.00604236 -0.0120897,0.00500773 -0.0124802,0.00393498 -0.0127756,0.00283229 -0.0129739,0.00170804 -0.0130734,0.000570795 -8.50354,0 -0.0130734,-0.000570795 -0.0129739,-0.00170804 -0.0127756,-0.00283229 -0.0124802,-0.00393498 -0.0120897,-0.00500773 -0.0116073,-0.00604236 -0.0110365,-0.007031 -0.0103817,-0.00796614 -0.00964788,-0.00884065 -0.00884065,-0.00964788 -0.00796614,-0.0103817 -0.007031,-0.0110365 -0.00604236,-0.0116073 -0.00500773,-0.0120897 -0.00393498,-0.0124802 -0.00283229,-0.0127756 -0.00170804,-0.0129739 -0.000570795,-0.0130734 0,-4.25089 2.43406,0 1.69938,3.39875 0.0123848,0.0223384 0.0142401,0.0212039 0.0159921,0.0199158 0.0176283,0.0184833 0.0191366,0.0169168 0.0205062,0.0152277 0.0217272,0.0134282 0.0227907,0.0115313 0.023689,0.00955089 0.0244155,0.00750124 0.0249651,0.00539721 0.0253337,0.00325405 0.0255187,0.00108731 0.0255187,-0.00108731 0.0253337,-0.00325405 0.0249651,-0.00539721 0.0244155,-0.00750124 0.023689,-0.00955089 0.0227907,-0.0115313 0.0217272,-0.0134282 0.0205062,-0.0152277 0.0191366,-0.0169168 0.0176283,-0.0184833 0.0159921,-0.0199158 0.0142401,-0.0212039 0.0123848,-0.0223384 1.69938,-3.39875 2.43406,0 z "/>
<path fill="rgb(241,240,234)" stroke="rgb(241,240,234)" d="M 2.75574,3.47333 l 0,-0.5 0.382726,0 0,0.235523 0.617274,0 0,0.264477 -1,0 z "/>
<path fill="rgb(241,240,234)" stroke="rgb(241,240,234)" d="M 1.79248,2.97333 l 0.96326,0 0,0.5 -0.274037,0 -0.0632718,-0.00276251 -0.0627903,-0.0082665 -0.0618309,-0.0137076 -0.0604009,-0.0190443 -0.0585112,-0.0242362 -0.0561763,-0.0292435 -0.0534138,-0.0340283 -0.0502447,-0.0385542 -0.0466933,-0.0427866 -0.0427866,-0.0466933 -0.0385542,-0.0502447 -0.0340283,-0.0534138 -0.0292435,-0.0561763 -0.0242362,-0.0585112 -0.00704094,-0.022331 z "/>
<path fill="rgb(241,240,234)" stroke="rgb(241,240,234)" d="M 3.13846,2.27867 l 2.73455,0 0,0.930175 -2.73455,0 0,-0.930175 z "/>
<path fill="rgb(241,240,234)" stroke="rgb(241,240,234)" d="M 3.50319,1.21773 l 2.0051,0 0,0.688776 -2.0051,0 0,-0.688776 z "/>
<path fill="rgb(241,240,234)" stroke="rgb(241,240,234)" d="M 3.75574,1.9065 l 0,0.0668234 -1,0 0,-1 1,0 0,0.244401 -0.252551,0 0,0.688776 0.252551,0 z "/>
<path fill="rgb(241,240,234)" stroke="rgb(241,240,234)" d="M 3.13846,2.97333 l -0.382726,0 0,-1 1,0 0,0.305348 -0.617274,0 0,0.694652 z "/>
<path fill="rgb(241,240,234)" stroke="rgb(241,240,234)" d="M 3.75574,1.97333 l 0,-0.0668234 1,0 0,0.0668234 -1,0 z M 4.75574,0.973326 l 0,0.244401 -1,0 0,-0.244401 1,0 z "/>
<path fill="rgb(241,240,234)" stroke="rgb(241,240,234)" d="M 5.75574,1.97333 l 0,-1 0.774037,2.66454e-15 0.0632718,0.00276251 0.0627903,0.0082665 0.0618309,0.0137076 0.0380699,0.0120034 0,0.96326 -1,0 z "/>
<path fill="rgb(241,240,234)" stroke="rgb(241,240,234)" d="M 3.75574,2.27867 l 0,-0.305348 1,0 0,0.305348 -1,0 z "/>
<path fill="rgb(241,240,234)" stroke="rgb(241,240,234)" d="M 3.75574,3.47333 l 0,-0.264477 1,0 0,0.264477 -1,0 z "/>
<path fill="rgb(241,240,234)" stroke="rgb(241,240,234)" d="M 5.75574,0.973326 l 0,1 -1,0 0,-0.0668234 0.752551,0 0,-0.688776 -0.752551,0 0,-0.244401 1,0 z "/>
<path fill="rgb(241,240,234)" stroke="rgb(241,240,234)" d="M 5.75574,2.27867 l 0,-0.305348 1,0 0,1 -0.882726,0 0,-0.694652 -0.117274,0 z "/>
<path fill="rgb(241,240,234)" stroke="rgb(241,240,234)" d="M 2.75574,0.973326 l 0,1 -1,0 8.88178e-16,-0.274037 0.00276251,-0.0632718 0.0082665,-0.0627903 0.0137076,-0.0618309 0.0190443,-0.0604009 0.0242362,-0.0585112 0.0292435,-0.0561763 0.0340283,-0.0534138 0.0385542,-0.0502447 0.0427866,-0.0466933 0.0466933,-0.0427866 0.0502447,-0.0385542 0.0534138,-0.0340283 0.0561763,-0.0292435 0.0585112,-0.0242362 0.0604009,-0.0190443 0.0618309,-0.0137076 0.0627903,-0.0082665 0.0632718,-0.00276251 0.274037,-1.77636e-15 z "/>
<path fill="rgb(241,240,234)" stroke="rgb(241,240,234)" d="M 4.75574,2.27867 l 0,-0.305348 1,0 0,0.305348 -1,0 z "/>
<path fill="rgb(241,240,234)" stroke="rgb(241,240,234)" d="M 4.75574,3.47333 l 0,-0.264477 1,0 0,0.264477 -1,-8.88178e-16 z "/>
<path fill="rgb(241,240,234)" stroke="rgb(241,240,234)" d="M 5.75574,3.47333 l 0,-0.264477 0.117274,0 0,-0.235523 0.882726,0 0,0.46326 -0.0380699,0.0120034 -0.0618309,0.0137076 -0.0627903,0.0082665 -0.0632718,0.00276251 -0.774037,0 z "/>
<path fill="rgb(241,240,234)" stroke="rgb(241,240,234)" d="M 6.75574,1.97333 l 0,-0.96326 0.022331,0.00704094 0.0585112,0.0242362 0.0561763,0.0292435 0.0534138,0.0340283 0.0502447,0.0385542 0.0466933,0.0427866 0.0427866,0.0466933 0.0385542,0.0502447 0.0340283,0.0534138 0.0292435,0.0561763 0.0242362,0.0585112 0.0190443,0.0604009 0.0137076,0.0618309 0.0082665,0.0627903 0.00276251,0.0632718 0,0.274037 -0.5,0 z "/>
<path fill="rgb(241,240,234)" stroke="rgb(241,240,234)" d="M 7.25574,1.97333 l 0,0.774037 -0.00276251,0.0632718 -0.0082665,0.0627903 -0.0137076,0.0618309 -0.0120034,0.0380699 -0.46326,0 0,-1 0.5,0 z "/>
<path fill="rgb(241,240,234)" stroke="rgb(241,240,234)" d="M 6.75574,2.97333 l 0.46326,0 -0.00704094,0.022331 -0.0242362,0.0585112 -0.0292435,0.0561763 -0.0340283,0.0534138 -0.0385542,0.0502447 -0.0427866,0.0466933 -0.0466933,0.0427866 -0.0502447,0.0385542 -0.0534138,0.0340283 -0.0561763,0.0292435 -0.0585112,0.0242362 -0.022331,0.00704094 0,-0.46326 z "/>
<path fill="rgb(241,240,234)" stroke="rgb(241,240,234)" d="M 1.75574,1.97333 l 1,0 0,1 -0.96326,0 -0.0120034,-0.0380699 -0.0137076,-0.0618309 -0.0082665,-0.0627903 -0.00276251,-0.0632718 0,-0.774037 z "/>
<path fill="rgb(241,240,234)" stroke="rgb(241,240,234)" d="M 3.53161,5.03541 l 0,1 -0.5,0 -0.5,-1 1,-8.88178e-16 z "/>
<path fill="rgb(241,240,234)" stroke="rgb(241,240,234)" d="M 3.53161,6.15961 l -0.0494869,-0.0422231 -0.0528063,0.0327008 0.102293,0.137455 0,0.747871 -0.5,-1 0.5,0 0,0.124196 z "/>
<path fill="rgb(241,240,234)" stroke="rgb(241,240,234)" d="M 4.53161,5.03541 l 0,1 -0.387423,0 0.0772139,-0.237361 0.296712,-0.133279 -0.0150817,-0.110647 -0.402324,0.113164 -0.123221,0.201157 -0.208708,-0.56326 -0.108119,-8.88178e-16 0.122053,0.730227 -0.2511,0 0,-1 0.970163,0 0.0298374,0 z "/>
<path fill="rgb(241,240,234)" stroke="rgb(241,240,234)" d="M 3.53161,6.03541 l 0.2511,0 0.0237914,0.142341 -0.0502893,0.17349 -0.224602,-0.191635 0,-0.124196 z M 3.97497,6.8441 l -0.000593254,-0.0135877 -0.00177525,-0.0134843 -0.00294373,-0.0132783 -0.00408981,-0.0129712 -0.00520476,-0.0125654 -0.0062801,-0.012064 -0.00730764,-0.0114707 -0.00827957,-0.0107901 -0.00918849,-0.0100275 -0.0100275,-0.00918849 -0.0107901,-0.00827957 -0.0114707,-0.00730764 -0.012064,-0.0062801 -0.0125654,-0.00520476 -0.0129712,-0.00408981 -0.0132783,-0.00294373 -0.0134843,-0.00177525 -0.0135877,-0.000593254 -0.0135877,0.000593254 -0.0134843,0.00177525 -0.0132783,0.00294373 -0.0129712,0.00408981 -0.0125654,0.00520476 -0.012064,0.0062801 -0.0114707,0.00730764 -0.0107901,0.00827957 -0.0100275,0.00918849 -0.00918849,0.0100275 -0.00827957,0.0107901 -0.00730764,0.0114707 -0.0062801,0.012064 -0.00520476,0.0125654 -0.00408981,0.0129712 -0.00294373,0.0132783 -0.00177525,0.0134843 -0.000593254,0.0135877 0.000593254,0.0135877 0.00177525,0.0134843 0.00294373,0.0132783 0.00408981,0.0129712 0.00520476,0.0125654 0.0062801,0.012064 0.00730764,0.0114707 0.00827957,0.0107901 0.00918849,0.0100275 0.0100275,0.00918849 0.0107901,0.00827957 0.0114707,0.00730764 0.012064,0.0062801 0.0125654,0.00520476 0.0129712,0.00408981 0.0132783,0.00294373 0.0134843,0.00177525 0.0135877,0.000593254 0.0135877,-0.000593254 0.0134843,-0.00177525 0.0132783,-0.00294373 0.0129712,-0.00408981 0.0125654,-0.00520476 0.012064,-0.0062801 0.0114707,-0.00730764 0.0107901,-0.00827957 0.0100275,-0.00918849 0.00918849,-0.0100275 0.00827957,-0.0107901 0.00730764,-0.0114707 0.0062801,-0.012064 0.00520476,-0.0125654 0.00408981,-0.0129712 0.00294373,-0.0132783 0.00177525,-0.0134843 0.000593254,-0.0135877 z M 4.53161,6.56829 l -0.149273,-0.16675 -0.0880139,0.050279 0.237287,0.369834 0,0.213756 -1,0 0,-0.747871 0.219568,0.295043 0.0158236,0.0108987 0.016688,0.00952239 0.0174331,0.00807797 0.0180534,0.00657576 0.0185446,0.00502649 0.018903,0.00344126 0.0191262,0.0018314 0.0192126,0.000208444 0.0191615,-0.00141601 0.0189732,-0.00303032 0.0186493,-0.00462296 0.0181918,-0.00618252 0.0176043,-0.00769784 0.221283,-0.10813 0.120704,-0.186075 -0.0528063,-0.0628641 -0.110647,0.120694 -0.103096,0.0528165 0.0226327,-0.206191 0.0585722,-0.180055 0.387423,0 0,0.532881 z "/>
<path fill="rgb(241,240,234)" stroke="rgb(241,240,234)" d="M 5.53161,6.03541 l 0.440325,0 -0.440325,0.88065 0,-0.88065 z "/>
<path fill="rgb(241,240,234)" stroke="rgb(241,240,234)" d="M 4.75031,6.03541 l 0.0343626,0.393797 -0.123211,0.284137 -0.12985,-0.145053 0,-0.532881 0.218699,0 z M 5.07295,6.03541 l -0.0544271,0.0844903 -0.0221662,-0.0844903 0.0765933,0 z M 4.53161,7.03541 l 0,-0.213756 0.127333,0.19846 0.0130439,0.0150221 0.000283434,0.000273886 -0.14066,0 z M 5.47193,7.03541 l -0.460006,0 0.192675,-0.128439 0.186075,-0.367137 -0.0905309,-0.0226327 -0.150878,0.238892 -0.0703947,0.0351974 0.0326804,-0.299219 0.202407,-0.456662 0.217646,0 0,0.88065 -0.0596748,0.11935 z "/>
<path fill="rgb(241,240,234)" stroke="rgb(241,240,234)" d="M 5.31396,6.03541 l 0.00378395,-0.00853717 0.213862,-0.143331 0,0.151868 -0.217646,0 z M 5.53161,5.03541 l 0,0.667601 -0.344624,0.155385 -0.114029,0.177014 -0.0765933,0 -0.191576,-0.730227 -0.118198,8.88178e-16 0.0637193,0.730227 -0.218699,0 0,-1 1,0 z "/>
<path fill="rgb(241,240,234)" stroke="rgb(241,240,234)" d="M 4.67227,7.03541 l 0.0140233,0.0135509 0.0154601,0.0125217 0.0164952,0.0111227 0.0174041,0.00963872 0.0181798,0.00808095 0.0188164,0.00646136 0.0193091,0.00479233 0.019654,0.00308663 0.0198485,0.00135732 0.0198912,-0.000382382 0.0197817,-0.00211915 0.0195208,-0.00383971 0.0191106,-0.0055309 0.0185542,-0.00717976 0.0178558,-0.00877369 0.0170208,-0.0103005 0.0487339,-0.0324865 0.460006,0 -0.5,1 -0.440325,0 0,-0.652486 0.00462133,0.0111569 0.00724229,0.0139123 0.00842727,0.0132282 0.00954811,0.0124433 0.0105963,0.0115638 0.0115638,0.0105963 0.0124433,0.00954811 0.0132282,0.00842727 0.0139123,0.00724229 0.0144906,0.00600219 0.0149586,0.00471641 0.0153127,0.00339474 0.0155503,0.00204724 0.0156696,0.000684148 0.0156696,-0.000684148 0.0155503,-0.00204724 0.0153127,-0.00339474 0.0149586,-0.00471641 0.0144906,-0.00600219 0.0139123,-0.00724229 0.0132282,-0.00842727 0.0124433,-0.00954811 0.0115638,-0.0105963 0.0105963,-0.0115638 0.00954811,-0.0124433 0.00842727,-0.0132282 0.00724229,-0.0139123 0.00600219,-0.0144906 0.00471641,-0.0149586 0.00339474,-0.0153127 0.00204724,-0.0155503 0.000684148,-0.0156696 -0.000684148,-0.0156696 -0.00204724,-0.0155503 -0.00339474,-0.0153127 -0.00471641,-0.0149586 -0.00600219,-0.0144906 -0.00724229,-0.0139123 -0.00842727,-0.0132282 -0.00954811,-0.0124433 -0.0105963,-0.0115638 -0.0115638,-0.0105963 -0.0124433,-0.00954811 -0.0132282,-0.00842727 -0.0139123,-0.00724229 -0.0144906,-0.00600219 -0.0149586,-0.00471641 -0.0153127,-0.00339474 -0.0155503,-0.00204724 -0.0156696,-0.000684148 -0.0156696,0.000684148 -0.0155503,0.00204724 -0.0153127,0.00339474 -0.0149586,0.00471641 -0.0144906,0.00600219 -0.0139123,0.00724229 -0.0132282,0.00842727 -0.0124433,0.00954811 -0.0115638,0.0105963 -0.0105963,0.0115638 -0.00954811,0.0124433 -0.00842727,0.0132282 -0.00724229,0.0139123 -0.00462133,0.0111569 0,-0.217865 0.14066,0 z "/>
<path fill="rgb(241,240,234)" stroke="rgb(241,240,234)" d="M 4.03161,8.03541 l 0.5,0 0,0.88065 -0.0298374,0.0596748 -0.470163,-0.940325 z "/>
<path fill="rgb(241,240,234)" stroke="rgb(241,240,234)" d="M 4.53161,8.03541 l 0.440325,0 -0.440325,0.88065 0,-0.88065 z "/>
<path fill="rgb(241,240,234)" stroke="rgb(241,240,234)" d="M 5.53161,6.03541 l 0,-0.151868 0.258888,-0.173507 -0.0402314,-0.105613 -0.218656,0.0985884 0,-0.667601 0.940325,8.88178e-16 -0.5,1 -0.440325,0 z "/>
<path fill="rgb(241,240,234)" stroke="rgb(241,240,234)" d="M 4.53161,7.38292 l 0,0.652486 -0.5,0 -0.5,-1 1,0 0,0.217865 -0.00138086,0.00333368 -0.00471641,0.0149586 -0.00339474,0.0153127 -0.00204724,0.0155503 -0.000684148,0.0156696 0.000684148,0.0156696 0.00204724,0.0155503 0.00339474,0.0153127 0.00471641,0.0149586 0.00138086,0.00333368 z "/>
<path fill="rgb(241,240,234)" stroke="rgb(241,240,234)" d="M 4.50177,4.13541 l 3.26459,0 0.00883388,0.000390951 0.00876481,0.0011698 0.0086272,0.0019395 0.00842214,0.00269403 0.00815123,0.0034275 0.00781658,0.00413417 0.00742081,0.00480851 0.00696702,0.00544526 0.00645876,0.00603943 0.00589999,0.00658638 0.00529509,0.00708183 0.00464879,0.0075219 0.00396614,0.00790316 0.00325248,0.00822263 0.00251339,0.0084778 0.00175464,0.00866669 0.000982177,0.00878781 0.000202033,0.00884022 -0.000579691,0.0088235 -0.00135688,0.0087378 -0.00212346,0.00858377 -0.00287344,0.00836263 -0.00360095,0.0080761 -3.26459,6.52918 -0.00412828,0.00744612 -0.0047467,0.00706797 -0.00533072,0.00663859 -0.00587609,0.00616109 -0.00637887,0.00563892 -0.00683541,0.00507588 -0.0072424,0.00447605 -0.0075969,0.00384377 -0.00789632,0.00318363 -0.00813851,0.00250041 -0.00832171,0.00179907 -0.00844458,0.00108468 -0.00850624,0.000362437 0,-0.323607 3.10279,-6.20557 -3.10279,2.66454e-15 0,-0.2 z "/>
<path fill="rgb(241,240,234)" stroke="rgb(241,240,234)" d="M 4.50177,4.13541 l 0,0.2 -3.10279,0 3.10279,6.20557 0,0.323607 -0.00850624,-0.000362437 -0.00844458,-0.00108468 -0.00832171,-0.00179907 -0.00813851,-0.00250041 -0.00789632,-0.00318363 -0.0075969,-0.00384377 -0.0072424,-0.00447605 -0.00683541,-0.00507588 -0.00637887,-0.00563892 -0.00587609,-0.00616109 -0.00533072,-0.00663859 -0.0047467,-0.00706797 -0.00412828,-0.00744612 -3.26459,-6.52918 -0.00360095,-0.0080761 -0.00287344,-0.00836263 -0.00212346,-0.00858377 -0.00135688,-0.0087378 -0.000579691,-0.0088235 0.000202033,-0.00884022 0.000982177,-0.00878781 0.00175464,-0.00866669 0.00251339,-0.0084778 0.00325248,-0.00822263 0.00396614,-0.00790316 0.00464879,-0.0075219 0.00529509,-0.00708183 0.00589999,-0.00658638 0.00645876,-0.00603943 0.00696702,-0.00544526 0.00742081,-0.00480851 0.00781658,-0.00413417 0.00815123,-0.0034275 0.00842214,-0.00269403 0.0086272,-0.0019395 0.00876481,-0.0011698 0.00883388,-0.000390951 3.26459,-8.88178e-16 z "/>
<path fill="rgb(42,41,42)" stroke="rgb(42,41,42)" d="M 5.18874,1.78815 l -0.0317054,-0.00301956 -0.0543521,-0.0211369 -0.0468032,-0.0407641 -0.0256663,-0.0407641 -0.0211369,-0.0558618 -0.0075489,-0.0634107 0.00603912,-0.0558618 0.0181174,-0.0573716 0.0317054,-0.0498227 0.0256663,-0.027176 0.0513325,-0.0286858 0.0588814,-0.0105685 0.0377445,0.00452934 0.0543521,0.0211369 0.0452934,0.0422738 0.00301956,0.00452934 -0.14041,0.027176 -0.0513325,0.0226467 -0.00452934,0.00301956 -0.0256663,0.0558618 -0.00452934,0.0150978 0.267231,0 0,0.0317054 -0.00150978,0.0241565 -0.259682,0.0286858 0.00150978,0.0075489 0.0301956,0.0513325 0.0483129,0.0181174 0.128331,0.0301956 -0.0241565,0.0256663 -0.0498227,0.0317054 -0.0588814,0.00905868 z "/>
<path fill="rgb(42,41,42)" stroke="rgb(42,41,42)" d="M 5.3216,1.72172 l -0.128331,-0.0301956 0.0452934,-0.0150978 0.00452934,-0.00452934 0.0256663,-0.0573716 -0.155507,0 0.259682,-0.0286858 -0.013588,0.061901 -0.0075489,0.0226467 -0.0301956,0.0513325 z "/>
<path fill="rgb(42,41,42)" stroke="rgb(42,41,42)" d="M 5.26272,1.46808 l -0.0166076,-0.0150978 -0.0528423,-0.0196271 0.14041,-0.027176 -0.0709596,0.061901 z "/>
<path fill="rgb(42,41,42)" stroke="rgb(42,41,42)" d="M 4.75845,1.79117 l -0.0558618,-0.0105685 -0.0468032,-0.0332152 0.252133,-0.0437836 -0.0347249,0.0468032 -0.00150978,0.00150978 -0.0498227,0.0286858 -0.0634107,0.0105685 z "/>
<path fill="rgb(42,41,42)" stroke="rgb(42,41,42)" d="M 4.65579,1.78211 l -0.108704,0 0,-0.437836 0.108704,0 0,0.262702 0,0.00150978 0.0226467,0.0558618 0,0.00150978 0.0543521,0.0226467 0.175134,0.0150978 -0.252133,0.0437836 0,0.0347249 z "/>
<path fill="rgb(42,41,42)" stroke="rgb(42,41,42)" d="M 4.90792,1.7036 l -0.175134,-0.0150978 0.00301956,0 0.0543521,-0.0211369 0.00301956,-0.00301956 0.0196271,-0.0573716 0,-0.262702 0.105685,0 0,0.304975 -0.0105685,0.0543521 z "/>
<path fill="rgb(42,41,42)" stroke="rgb(42,41,42)" d="M 4.26627,1.79268 l -0.0362347,-0.00301956 -0.0543521,-0.0226467 -0.0452934,-0.0407641 -0.0286858,-0.0437836 -0.0196271,-0.0558618 -0.0075489,-0.0634107 0.00452934,-0.0543521 0.0181174,-0.0573716 0.0332152,-0.0498227 0.13588,0.0377445 -0.013588,0.00150978 -0.0483129,0.0332152 -0.0120782,0.0256663 -0.0105685,0.0634107 0.00301956,0.0332152 0.0196271,0.0543521 0.00905868,0.0120782 0.0528423,0.0226467 0.13588,0.0407641 -0.027176,0.027176 -0.0513325,0.0301956 -0.0573716,0.00905868 z "/>
<path fill="rgb(42,41,42)" stroke="rgb(42,41,42)" d="M 4.40215,1.72625 l -0.13588,-0.0407641 0.0120782,-0.00150978 0.0468032,-0.0332152 0.0120782,-0.0241565 0.0105685,-0.0634107 -0.00301956,-0.0332152 -0.0196271,-0.0558618 -0.0075489,-0.0105685 -0.0513325,-0.0241565 -0.13588,-0.0377445 0.0256663,-0.0286858 0.0513325,-0.0286858 0.0588814,-0.0105685 0.0347249,0.00301956 0.0528423,0.0226467 0.0483129,0.0422738 0.027176,0.0422738 0.0211369,0.0558618 0.0075489,0.0634107 -0.00603912,0.0558618 -0.0181174,0.0573716 -0.0317054,0.0498227 z "/>
<path fill="rgb(42,41,42)" stroke="rgb(42,41,42)" d="M 4.02168,1.78211 l -0.368386,0 0,-0.105685 0.20835,0 -0.218918,-0.237035 0,-0.0951161 0.378955,0 0,0.102665 -0.232506,0 0.232506,0.247604 0,0.0875672 z "/>
<path fill="rgb(42,41,42)" stroke="rgb(42,41,42)" d="M 5.66885,2.44491 l -0.107194,0 0,0.566167 0.107194,0.0437836 0,-0.609951 z "/>
<path fill="rgb(42,41,42)" stroke="rgb(42,41,42)" d="M 5.27933,2.89482 l -0.0362347,-0.00452934 -0.0528423,-0.0211369 -0.0468032,-0.0422738 -0.027176,-0.0422738 -0.0211369,-0.0573716 -0.00603912,-0.0634107 0.00452934,-0.0528423 0.0181174,-0.0573716 0.0317054,-0.0513325 0.13588,0.0392543 -0.0120782,0 -0.0483129,0.0347249 -0.0120782,0.0241565 -0.0105685,0.0634107 0.00150978,0.0332152 0.0211369,0.0543521 0.00905868,0.0120782 0.0513325,0.0226467 0.13588,0.0407641 -0.027176,0.027176 -0.0498227,0.0301956 -0.0588814,0.0105685 z "/>
<path fill="rgb(42,41,42)" stroke="rgb(42,41,42)" d="M 5.41521,2.82688 l -0.13588,-0.0407641 0.0120782,0 0.0483129,-0.0332152 0.0120782,-0.0241565 0.00905868,-0.0649205 -0.00150978,-0.0332152 -0.0196271,-0.0543521 -0.0075489,-0.0120782 -0.0528423,-0.0226467 -0.13588,-0.0392543 0.027176,-0.027176 0.0513325,-0.0301956 0.0573716,-0.0105685 0.0347249,0.00452934 0.0543521,0.0211369 0.0468032,0.0422738 0.0286858,0.0422738 0.0211369,0.0558618 0.00603912,0.0634107 -0.00452934,0.0558618 -0.0196271,0.0573716 -0.0317054,0.0498227 z "/>
<path fill="rgb(42,41,42)" stroke="rgb(42,41,42)" d="M 4.82489,2.89482 l -0.0362347,-0.00452934 -0.0528423,-0.0211369 -0.0468032,-0.0422738 -0.0286858,-0.0422738 -0.0196271,-0.0573716 -0.00603912,-0.0634107 0.00452934,-0.0528423 0.0181174,-0.0573716 0.0317054,-0.0513325 0.13588,0.0392543 -0.0120782,0 -0.0483129,0.0347249 -0.0120782,0.0241565 -0.0105685,0.0634107 0.00150978,0.0332152 0.0211369,0.0543521 0.00905868,0.0120782 0.0513325,0.0226467 0.13588,0.0407641 -0.027176,0.027176 -0.0498227,0.0301956 -0.0588814,0.0105685 z "/>
<path fill="rgb(42,41,42)" stroke="rgb(42,41,42)" d="M 4.96077,2.82688 l -0.13588,-0.0407641 0.0120782,0 0.0483129,-0.0332152 0.0120782,-0.0241565 0.00905868,-0.0649205 -0.00150978,-0.0332152 -0.0196271,-0.0543521 -0.00905868,-0.0120782 -0.0513325,-0.0226467 -0.13588,-0.0392543 0.027176,-0.027176 0.0513325,-0.0301956 0.0573716,-0.0105685 0.0347249,0.00452934 0.0543521,0.0211369 0.0468032,0.0422738 0.0286858,0.0422738 0.0211369,0.0558618 0.00603912,0.0634107 -0.00452934,0.0558618 -0.0196271,0.0573716 -0.0317054,0.0498227 z "/>
<path fill="rgb(42,41,42)" stroke="rgb(42,41,42)" d="M 4.29042,3.05486 l -0.108704,-0.0392543 0,-0.570697 0.108704,0 0,0.258172 0.00150978,0.0226467 0.0241565,0.0452934 0.0528423,0.0150978 0.170605,0.0166076 -0.249114,0.0498227 0,0.20231 z "/>
<path fill="rgb(42,41,42)" stroke="rgb(42,41,42)" d="M 4.39158,2.89482 l -0.0573716,-0.0105685 -0.0437836,-0.0317054 0.249114,-0.0498227 -0.0332152,0.0498227 -0.00301956,0.00150978 -0.0498227,0.0301956 -0.061901,0.0105685 z "/>
<path fill="rgb(42,41,42)" stroke="rgb(42,41,42)" d="M 4.53954,2.80272 l -0.170605,-0.0166076 0.00301956,0 0.0543521,-0.0226467 0.00301956,-0.00150978 0.0211369,-0.0558618 0,-0.261192 0.0996455,0 0,0.301956 -0.0105685,0.0558618 z "/>
<path fill="rgb(42,41,42)" stroke="rgb(42,41,42)" d="M 3.95072,2.89482 l -0.0483129,-0.00603912 -0.0543521,-0.0211369 -0.0468032,-0.0392543 -0.0317054,-0.0452934 -0.0211369,-0.0558618 -0.00603912,-0.0634107 0.00603912,-0.0588814 0.0196271,-0.0573716 0.0332152,-0.0483129 0.0347249,-0.0301956 0.0528423,-0.0256663 0.061901,-0.00905868 0.00603912,0.00150978 0.0573716,0.00905868 0.0528423,0.027176 0.0452934,0.0452934 -0.160037,0.0196271 -0.0286858,0.00452934 -0.0483129,0.0317054 -0.0181174,0.0286858 -0.0120782,0.061901 0.00452934,0.0392543 0.0256663,0.0513325 0.0196271,0.0196271 0.0573716,0.0166076 0.160037,0.0211369 -0.00452934,0.00603912 -0.0468032,0.0422738 -0.0513325,0.0256663 -0.0588814,0.00905868 z "/>
<path fill="rgb(42,41,42)" stroke="rgb(42,41,42)" d="M 4.11227,2.81178 l -0.160037,-0.0211369 0.00301956,0 0.0513325,-0.0181174 0.0377445,-0.0498227 0.0679401,0.089077 z "/>
<path fill="rgb(42,41,42)" stroke="rgb(42,41,42)" d="M 4.03829,2.59286 l -0.0332152,-0.0377445 -0.0528423,-0.0181174 0.160037,-0.0196271 -0.0739792,0.075489 z "/>
<path fill="rgb(42,41,42)" stroke="rgb(42,41,42)" d="M 3.50232,2.8918 l -0.0075489,0 -0.0649205,-0.00905868 -0.0513325,-0.0241565 -0.0301956,-0.0317054 0.157017,-0.0392543 0.0105685,0 0.0603912,-0.00905868 0.0573716,-0.0256663 0.0392543,0.0951161 -0.0513325,0.0226467 -0.0588814,0.0150978 -0.0603912,0.00603912 z "/>
<path fill="rgb(42,41,42)" stroke="rgb(42,41,42)" d="M 3.34832,2.82688 l -0.0150978,-0.0573716 0.00905868,-0.0498227 0.0392543,-0.0468032 0.0075489,-0.00603912 0.0483129,-0.0241565 0.0694499,-0.0226467 0.0483129,-0.013588 0.027176,-0.0347249 -0.0105685,-0.0196271 -0.0664303,-0.0105685 0.169095,-0.0332152 0.013588,0.0588814 -0.00150978,0.0166076 -0.0150978,0.0468032 -0.0332152,0.0362347 -0.0528423,0.0301956 -0.0694499,0.0196271 -0.00301956,0 -0.0588814,0.0181174 -0.0150978,0.0241565 0.00603912,0.013588 0.0603912,0.0150978 -0.157017,0.0392543 z "/>
<path fill="rgb(42,41,42)" stroke="rgb(42,41,42)" d="M 3.36191,2.57173 l -0.0392543,-0.0951161 0.00452934,-0.00301956 0.0558618,-0.0196271 0.0603912,-0.0120782 0.0664303,-0.00452934 0.0181174,0 0.0634107,0.0105685 0.0498227,0.0241565 0.0332152,0.0362347 -0.169095,0.0332152 -0.0196271,0 -0.0649205,0.013588 -0.0588814,0.0166076 z "/>
<path fill="rgb(42,41,42)" stroke="rgb(42,41,42)" d="M 8.90354,7.5 l 0.1,0 0,-7.25 -0.000951325,-0.0217889 -0.00284674,-0.0216231 -0.00472048,-0.0212927 -0.0065583,-0.0208003 -0.00834621,-0.0201495 -0.0100706,-0.0193454 -0.0117183,-0.0183941 -0.0132769,-0.0173028 -0.0147344,-0.0160798 -0.0160798,-0.0147344 -0.0173028,-0.0132769 -0.0183941,-0.0117183 -0.0193454,-0.0100706 -0.0201495,-0.00834621 -0.0208003,-0.0065583 -0.0212927,-0.00472048 -0.0216231,-0.00284674 -0.0217889,-0.000951325 -8.50354,0 -0.0217889,0.000951325 -0.0216231,0.00284674 -0.0212927,0.00472048 -0.0208003,0.0065583 -0.0201495,0.00834621 -0.0193454,0.0100706 -0.0183941,0.0117183 -0.0173028,0.0132769 -0.0160798,0.0147344 -0.0147344,0.0160798 -0.0132769,0.0173028 -0.0117183,0.0183941 -0.0100706,0.0193454 -0.00834621,0.0201495 -0.0065583,0.0208003 -0.00472048,0.0212927 -0.00284674,0.0216231 -0.000951325,0.0217889 0,7.25 0.1,0 0,-7.25 0.000570795,-0.0130734 0.00170804,-0.0129739 0.00283229,-0.0127756 0.00393498,-0.0124802 0.00500773,-0.0120897 0.00604236,-0.0116073 0.007031,-0.0110365 0.00796614,-0.0103817 0.00884065,-0.00964788 0.00964788,-0.00884065 0.0103817,-0.00796614 0.0110365,-0.007031 0.0116073,-0.00604236 0.0120897,-0.00500773 0.0124802,-0.00393498 0.0127756,-0.00283229 0.0129739,-0.00170804 0.0130734,-0.000570795 8.50354,8.88178e-16 0.0130734,0.000570795 0.0129739,0.00170804 0.0127756,0.00283229 0.0124802,0.00393498 0.0120897,0.00500773 0.0116073,0.00604236 0.0110365,0.007031 0.0103817,0.00796614 0.00964788,0.00884065 0.00884065,0.00964788 0.00796614,0.0103817 0.007031,0.0110365 0.00604236,0.0116073 0.00500773,0.0120897 0.00393498,0.0124802 0.00283229,0.0127756 0.00170804,0.0129739 0.000570795,0.0130734 0,7.25 z "/>
<path fill="rgb(42,41,42)" stroke="rgb(42,41,42)" d="M 8.90354,7.5 l 0.1,0 0,4.25089 -0.000951325,0.0217889 -0.00284674,0.0216231 -0.00472048,0.0212927 -0.0065583,0.0208003 -0.00834621,0.0201495 -0.0100706,0.0193454 -0.0117183,0.0183941 -0.0132769,0.0173028 -0.0147344,0.0160798 -0.0160798,0.0147344 -0.0173028,0.0132769 -0.0183941,0.0117183 -0.0193454,0.0100706 -0.0201495,0.00834621 -0.0208003,0.0065583 -0.0212927,0.00472048 -0.0216231,0.00284674 -0.0217889,0.000951325 -8.50354,0 -0.0217889,-0.000951325 -0.0216231,-0.00284674 -0.0212927,-0.00472048 -0.0208003,-0.0065583 -0.0201495,-0.00834621 -0.0193454,-0.0100706 -0.0183941,-0.0117183 -0.0173028,-0.0132769 -0.0160798,-0.0147344 -0.0147344,-0.0160798 -0.0132769,-0.0173028 -0.0117183,-0.0183941 -0.0100706,-0.0193454 -0.00834621,-0.0201495 -0.0065583,-0.0208003 -0.00472048,-0.0212927 -0.00284674,-0.0216231 -0.000951325,-0.0217889 0,-4.25089 0.1,0 0,4.25089 0.000570795,0.0130734 0.00170804,0.0129739 0.00283229,0.0127756 0.00393498,0.0124802 0.00500773,0.0120897 0.00604236,0.0116073 0.007031,0.0110365 0.00796614,0.0103817 0.00884065,0.00964788 0.00964788,0.00884065 0.0103817,0.00796614 0.0110365,0.007031 0.0116073,0.00604236 0.0120897,0.00500773 0.0124802,0.00393498 0.0127756,0.00283229 0.0129739,0.00170804 0.0130734,0.000570795 8.50354,0 0.0130734,-0.000570795 0.0129739,-0.00170804 0.0127756,-0.00283229 0.0124802,-0.00393498 0.0120897,-0.00500773 0.0116073,-0.00604236 0.0110365,-0.007031 0.0103817,-0.00796614 0.00964788,-0.00884065 0.00884065,-0.00964788 0.00796614,-0.0103817 0.007031,-0.0110365 0.00604236,-0.0116073 0.00500773,-0.0120897 0.00393498,-0.0124802 0.00283229,-0.0127756 0.00170804,-0.0129739 0.000570795,-0.0130734 0,-4.25089 z "/>
<path fill="rgb(42,41,42)" stroke="rgb(42,41,42)" d="M 3.98754,6.60521 l -0.0176043,0.00769784 -0.0181918,0.00618252 -0.0186493,0.00462296 -0.0189732,0.00303032 -0.0191615,0.00141601 -0.0192126,-0.000208444 -0.0191262,-0.0018314 -0.018903,-0.00344126 -0.0185446,-0.00502649 -0.0180534,-0.00657576 -0.0174331,-0.00807797 -0.016688,-0.00952239 -0.0158236,-0.0108987 -0.321862,-0.432498 0.0528063,-0.0327008 0.274089,0.233858 0.0502893,-0.17349 -0.145844,-0.872567 0.108119,8.88178e-16 0.208708,0.56326 0.123221,-0.201157 0.402324,-0.113164 0.0150817,0.110647 -0.296712,0.133279 -0.135786,0.417416 -0.0226327,0.206191 0.103096,-0.0528165 0.110647,-0.120694 0.0528063,0.0628641 -0.120704,0.186075 -0.221283,0.10813 z "/>
<path fill="rgb(42,41,42)" stroke="rgb(42,41,42)" d="M 5.07887,6.79129 l 0.0703947,-0.0351974 0.150878,-0.238892 0.0905309,0.0226327 -0.186075,0.367137 -0.241409,0.160926 -0.0170208,0.0103005 -0.0178558,0.00877369 -0.0185542,0.00717976 -0.0191106,0.0055309 -0.0195208,0.00383971 -0.0197817,0.00211915 -0.0198912,0.000382382 -0.0198485,-0.00135732 -0.019654,-0.00308663 -0.0193091,-0.00479233 -0.0188164,-0.00646136 -0.0181798,-0.00808095 -0.0174041,-0.00963872 -0.0164952,-0.0111227 -0.0154601,-0.0125217 -0.0143067,-0.0138248 -0.0130439,-0.0150221 -0.36462,-0.568294 0.0880139,-0.050279 0.279123,0.311804 0.123211,-0.284137 -0.098082,-1.12402 0.118198,-8.88178e-16 0.213742,0.814717 0.168456,-0.261504 0.563281,-0.253974 0.0402314,0.105613 -0.47275,0.316838 -0.206191,0.465199 -0.0326804,0.299219 z "/>
<path fill="rgb(42,41,42)" stroke="rgb(42,41,42)" d="M 4.51938,7.3181 l 0.000684148,-0.0156696 0.00204724,-0.0155503 0.00339474,-0.0153127 0.00471641,-0.0149586 0.00600219,-0.0144906 0.00724229,-0.0139123 0.00842727,-0.0132282 0.00954811,-0.0124433 0.0105963,-0.0115638 0.0115638,-0.0105963 0.0124433,-0.00954811 0.0132282,-0.00842727 0.0139123,-0.00724229 0.0144906,-0.00600219 0.0149586,-0.00471641 0.0153127,-0.00339474 0.0155503,-0.00204724 0.0156696,-0.000684148 0.0156696,0.000684148 0.0155503,0.00204724 0.0153127,0.00339474 0.0149586,0.00471641 0.0144906,0.00600219 0.0139123,0.00724229 0.0132282,0.00842727 0.0124433,0.00954811 0.0115638,0.0105963 0.0105963,0.0115638 0.00954811,0.0124433 0.00842727,0.0132282 0.00724229,0.0139123 0.00600219,0.0144906 0.00471641,0.0149586 0.00339474,0.0153127 0.00204724,0.0155503 0.000684148,0.0156696 -0.000684148,0.0156696 -0.00204724,0.0155503 -0.00339474,0.0153127 -0.00471641,0.0149586 -0.00600219,0.0144906 -0.00724229,0.0139123 -0.00842727,0.0132282 -0.00954811,0.0124433 -0.0105963,0.0115638 -0.0115638,0.0105963 -0.0124433,0.00954811 -0.0132282,0.00842727 -0.0139123,0.00724229 -0.0144906,0.00600219 -0.0149586,0.00471641 -0.0153127,0.00339474 -0.0155503,0.00204724 -0.0156696,0.000684148 -0.0156696,-0.000684148 -0.0155503,-0.00204724 -0.0153127,-0.00339474 -0.0149586,-0.00471641 -0.0144906,-0.00600219 -0.0139123,-0.00724229 -0.0132282,-0.00842727 -0.0124433,-0.00954811 -0.0115638,-0.0105963 -0.0105963,-0.0115638 -0.00954811,-0.0124433 -0.00842727,-0.0132282 -0.00724229,-0.0139123 -0.00600219,-0.0144906 -0.00471641,-0.0149586 -0.00339474,-0.0153127 -0.00204724,-0.0155503 -0.000684148,-0.0156696 z "/>
<path fill="rgb(42,41,42)" stroke="rgb(42,41,42)" d="M 3.97497,6.8441 l -0.000593254,0.0135877 -0.00177525,0.0134843 -0.00294373,0.0132783 -0.00408981,0.0129712 -0.00520476,0.0125654 -0.0062801,0.012064 -0.00730764,0.0114707 -0.00827957,0.0107901 -0.00918849,0.0100275 -0.0100275,0.00918849 -0.0107901,0.00827957 -0.0114707,0.00730764 -0.012064,0.0062801 -0.0125654,0.00520476 -0.0129712,0.00408981 -0.0132783,0.00294373 -0.0134843,0.00177525 -0.0135877,0.000593254 -0.0135877,-0.000593254 -0.0134843,-0.00177525 -0.0132783,-0.00294373 -0.0129712,-0.00408981 -0.0125654,-0.00520476 -0.012064,-0.0062801 -0.0114707,-0.00730764 -0.0107901,-0.00827957 -0.0100275,-0.00918849 -0.00918849,-0.0100275 -0.00827957,-0.0107901 -0.00730764,-0.0114707 -0.0062801,-0.012064 -0.00520476,-0.0125654 -0.00408981,-0.0129712 -0.00294373,-0.0132783 -0.00177525,-0.0134843 -0.000593254,-0.0135877 0.000593254,-0.0135877 0.00177525,-0.0134843 0.00294373,-0.0132783 0.00408981,-0.0129712 0.00520476,-0.0125654 0.0062801,-0.012064 0.00730764,-0.0114707 0.00827957,-0.0107901 0.00918849,-0.0100275 0.0100275,-0.00918849 0.0107901,-0.00827957 0.0114707,-0.00730764 0.012064,-0.0062801 0.0125654,-0.00520476 0.0129712,-0.00408981 0.0132783,-0.00294373 0.0134843,-0.00177525 0.0135877,-0.000593254 0.0135877,0.000593254 0.0134843,0.00177525 0.0132783,0.00294373 0.0129712,0.00408981 0.0125654,0.00520476 0.012064,0.0062801 0.0114707,0.00730764 0.0107901,0.00827957 0.0100275,0.00918849 0.00918849,0.0100275 0.00827957,0.0107901 0.00730764,0.0114707 0.0062801,0.012064 0.00520476,0.0125654 0.00408981,0.0129712 0.00294373,0.0132783 0.00177525,0.0134843 0.000593254,0.0135877 z "/>
<path fill="rgb(187,30,16)" stroke="rgb(187,30,16)" d="M 4.50177,8.97574 l 1.97016,-3.94033 -1.97016,-8.88178e-16 0,-0.7 3.10279,-2.66454e-15 -3.10279,6.20557 0,-1.56525 z "/>
<path fill="rgb(187,30,16)" stroke="rgb(187,30,16)" d="M 4.50177,4.13541 l 0,-0.2 3.26459,-1.77636e-15 0.0265016,0.00117285 0.0262944,0.00350939 0.0258816,0.00581849 0.0252664,0.00808209 0.0244537,0.0102825 0.0234497,0.0124025 0.0222624,0.0144255 0.0209011,0.0163358 0.0193763,0.0181183 0.0177,0.0197591 0.0158853,0.0212455 0.0139464,0.0225657 0.0118984,0.0237095 0.00975744,0.0246679 0.00754016,0.0254334 0.00526392,0.0260001 0.00294653,0.0263634 0.000606098,0.0265207 -0.00173907,0.0264705 -0.00407065,0.0262134 -0.00637039,0.0257513 -0.00862033,0.0250879 -0.0108029,0.0242283 -1.56521,3.13043 -1.69938,3.39875 -0.0123848,0.0223384 -0.0142401,0.0212039 -0.0159921,0.0199158 -0.0176283,0.0184833 -0.0191366,0.0169168 -0.0205062,0.0152277 -0.0217272,0.0134282 -0.0227907,0.0115313 -0.023689,0.00955089 -0.0244155,0.00750124 -0.0249651,0.00539721 -0.0253337,0.00325405 -0.0255187,0.00108731 0,-0.2 0.00850624,-0.000362437 0.00844458,-0.00108468 0.00832171,-0.00179907 0.00813851,-0.00250041 0.00789632,-0.00318363 0.0075969,-0.00384377 0.0072424,-0.00447605 0.00683541,-0.00507588 0.00637887,-0.00563892 0.00587609,-0.00616109 0.00533072,-0.00663859 0.0047467,-0.00706797 0.00412828,-0.00744612 3.26459,-6.52918 0.00360095,-0.0080761 0.00287344,-0.00836263 0.00212346,-0.00858377 0.00135688,-0.0087378 0.000579691,-0.0088235 -0.000202033,-0.00884022 -0.000982177,-0.00878781 -0.00175464,-0.00866669 -0.00251339,-0.0084778 -0.00325248,-0.00822263 -0.00396614,-0.00790316 -0.00464879,-0.0075219 -0.00529509,-0.00708183 -0.00589999,-0.00658638 -0.00645876,-0.00603943 -0.00696702,-0.00544526 -0.00742081,-0.00480851 -0.00781658,-0.00413417 -0.00815123,-0.0034275 -0.00842214,-0.00269403 -0.0086272,-0.0019395 -0.00876481,-0.0011698 -0.00883388,-0.000390951 -3.26459,0 z "/>
<path fill="rgb(187,30,16)" stroke="rgb(187,30,16)" d="M 4.50177,4.13541 l -3.26459,8.88178e-16 -0.00883388,0.000390951 -0.00876481,0.0011698 -0.0086272,0.0019395 -0.00842214,0.00269403 -0.00815123,0.0034275 -0.00781658,0.00413417 -0.00742081,0.00480851 -0.00696702,0.00544526 -0.00645876,0.00603943 -0.00589999,0.00658638 -0.00529509,0.00708183 -0.00464879,0.0075219 -0.00396614,0.00790316 -0.00325248,0.00822263 -0.00251339,0.0084778 -0.00175464,0.00866669 -0.000982177,0.00878781 -0.000202033,0.00884022 0.000579691,0.0088235 0.00135688,0.0087378 0.00212346,0.00858377 0.00287344,0.00836263 0.00360095,0.0080761 3.26459,6.52918 0.00412828,0.00744612 0.0047467,0.00706797 0.00533072,0.00663859 0.00587609,0.00616109 0.00637887,0.00563892 0.00683541,0.00507588 0.0072424,0.00447605 0.0075969,0.00384377 0.00789632,0.00318363 0.00813851,0.00250041 0.00832171,0.00179907 0.00844458,0.00108468 0.00850624,0.000362437 0,0.2 -0.0255187,-0.00108731 -0.0253337,-0.00325405 -0.0249651,-0.00539721 -0.0244155,-0.00750124 -0.023689,-0.00955089 -0.0227907,-0.0115313 -0.0217272,-0.0134282 -0.0205062,-0.0152277 -0.0191366,-0.0169168 -0.0176283,-0.0184833 -0.0159921,-0.0199158 -0.0142401,-0.0212039 -0.0123848,-0.0223384 -1.69938,-3.39875 -1.56521,-3.13043 -0.0108029,-0.0242283 -0.00862033,-0.0250879 -0.00637039,-0.0257513 -0.00407065,-0.0262134 -0.00173907,-0.0264705 0.000606098,-0.0265207 0.00294653,-0.0263634 0.00526392,-0.0260001 0.00754016,-0.0254334 0.00975744,-0.0246679 0.0118984,-0.0237095 0.0139464,-0.0225657 0.0158853,-0.0212455 0.0177,-0.0197591 0.0193763,-0.0181183 0.0209011,-0.0163358 0.0222624,-0.0144255 0.0234497,-0.0124025 0.0244537,-0.0102825 0.0252664,-0.00808209 0.0258816,-0.00581849 0.0262944,-0.00350939 0.0265016,-0.00117285 3.26459,0 0,0.2 z "/>
<path fill="rgb(187,30,16)" stroke="rgb(187,30,16)" d="M 4.50177,8.97574 l 0,1.56525 -3.10279,-6.20557 3.10279,0 0,0.7 -1.97016,8.88178e-16 1.97016,3.94033 z "/>
</g></g></svg>
