<?xml version="1.0" encoding="UTF-8" standalone="no"?>
<!DOCTYPE svg PUBLIC "-//W3C//DTD SVG 1.1//EN" "http://www.w3.org/Graphics/SVG/1.1/DTD/svg11-flat.dtd"
[

]>
<svg xmlns="http://www.w3.org/2000/svg"  viewBox="-0.05625 -0.05625 4.6125 7.6125"><g fill="none" stroke="black" stroke-width="0.0125" transform="translate(0,7.5) scale(1, -1)">
<g id="Output" >
<path fill="rgb(0,91,140)" stroke="rgb(0,91,140)" d="M 0.7,0.4 l 1.55,-4.44089e-16 1.55,-4.44089e-16 0.0261467,0.00114159 0.0259477,0.00341608 0.0255513,0.00566458 0.0249603,0.00786996 0.0241794,0.0100155 0.0232145,0.0120847 0.0220729,0.014062 0.0207634,0.0159323 0.0192958,0.0176813 0.0176813,0.0192958 0.0159323,0.0207634 0.014062,0.0220729 0.0120847,0.0232145 0.0100155,0.0241794 0.00786996,0.0249603 0.00566458,0.0255513 0.00341608,0.0259477 0.00114159,0.0261467 0,6.1 -0.00114159,0.0261467 -0.00341608,0.0259477 -0.00566458,0.0255513 -0.00786996,0.0249603 -0.0100155,0.0241794 -0.0120847,0.0232145 -0.014062,0.0220729 -0.0159323,0.0207634 -0.0176813,0.0192958 -0.0192958,0.0176813 -0.0207634,0.0159323 -0.0220729,0.014062 -0.0232145,0.0120847 -0.0241794,0.0100155 -0.0249603,0.00786996 -0.0255513,0.00566458 -0.0259477,0.00341608 -0.0261467,0.00114159 -1.55,0 -1.55,0 -0.0261467,-0.00114159 -0.0259477,-0.00341608 -0.0255513,-0.00566458 -0.0249603,-0.00786996 -0.0241794,-0.0100155 -0.0232145,-0.0120847 -0.0220729,-0.014062 -0.0207634,-0.0159323 -0.0192958,-0.0176813 -0.0176813,-0.0192958 -0.0159323,-0.0207634 -0.014062,-0.0220729 -0.0120847,-0.0232145 -0.0100155,-0.0241794 -0.00786996,-0.0249603 -0.00566458,-0.0255513 -0.00341608,-0.0259477 -0.00114159,-0.0261467 -4.44089e-16,-6.1 0.00114159,-0.0261467 0.00341608,-0.0259477 0.00566458,-0.0255513 0.00786996,-0.0249603 0.0100155,-0.0241794 0.0120847,-0.0232145 0.014062,-0.0220729 0.0159323,-0.0207634 0.0176813,-0.0192958 0.0192958,-0.0176813 0.0207634,-0.0159323 0.0220729,-0.014062 0.0232145,-0.0120847 0.0241794,-0.0100155 0.0249603,-0.00786996 0.0255513,-0.00566458 0.0259477,-0.00341608 0.0261467,-0.00114159 z "/>
<path fill="rgb(0,91,140)" stroke="rgb(0,91,140)" d="M 3.8,7.5 l -1.55,0 -4.44089e-16,-0.2 1.55,0 0.0435779,-0.00190265 0.0432462,-0.00569347 0.0425854,-0.00944096 0.0416005,-0.0131166 0.0402991,-0.0166924 0.0386909,-0.0201412 0.0367882,-0.0234367 0.0346056,-0.0265538 0.0321596,-0.0294688 0.0294688,-0.0321596 0.0265538,-0.0346056 0.0234367,-0.0367882 0.0201412,-0.0386909 0.0166924,-0.0402991 0.0131166,-0.0416005 0.00944096,-0.0425854 0.00569347,-0.0432462 0.00190265,-0.0435779 0,-6.1 -0.00190265,-0.0435779 -0.00569347,-0.0432462 -0.00944096,-0.0425854 -0.0131166,-0.0416005 -0.0166924,-0.0402991 -0.0201412,-0.0386909 -0.0234367,-0.0367882 -0.0265538,-0.0346056 -0.0294688,-0.0321596 -0.0321596,-0.0294688 -0.0346056,-0.0265538 -0.0367882,-0.0234367 -0.0386909,-0.0201412 -0.0402991,-0.0166924 -0.0416005,-0.0131166 -0.0425854,-0.00944096 -0.0432462,-0.00569347 -0.0435779,-0.00190265 -1.55,4.44089e-16 0,-0.2 1.55,-4.44089e-16 0.061009,0.00266371 0.0605447,0.00797086 0.0596196,0.0132173 0.0582408,0.0183632 0.0564187,0.0233694 0.0541672,0.0281977 0.0515035,0.0328114 0.0484478,0.0371753 0.0450234,0.0412564 0.0412564,0.0450234 0.0371753,0.0484478 0.0328114,0.0515035 0.0281977,0.0541672 0.0233694,0.0564187 0.0183632,0.0582408 0.0132173,0.0596196 0.00797086,0.0605447 0.00266371,0.061009 8.88178e-16,6.1 -0.00266371,0.061009 -0.00797086,0.0605447 -0.0132173,0.0596196 -0.0183632,0.0582408 -0.0233694,0.0564187 -0.0281977,0.0541672 -0.0328114,0.0515035 -0.0371753,0.0484478 -0.0412564,0.0450234 -0.0450234,0.0412564 -0.0484478,0.0371753 -0.0515035,0.0328114 -0.0541672,0.0281977 -0.0564187,0.0233694 -0.0582408,0.0183632 -0.0596196,0.0132173 -0.0605447,0.00797086 -0.061009,0.00266371 z "/>
<path fill="rgb(0,91,140)" stroke="rgb(0,91,140)" d="M 0,6.8 l 0,-6.1 0.00266371,-0.061009 0.00797086,-0.0605447 0.0132173,-0.0596196 0.0183632,-0.0582408 0.0233694,-0.0564187 0.0281977,-0.0541672 0.0328114,-0.0515035 0.0371753,-0.0484478 0.0412564,-0.0450234 0.0450234,-0.0412564 0.0484478,-0.0371753 0.0515035,-0.0328114 0.0541672,-0.0281977 0.0564187,-0.0233694 0.0582408,-0.0183632 0.0596196,-0.0132173 0.0605447,-0.00797086 0.061009,-0.00266371 1.55,-8.88178e-16 0,0.2 -1.55,4.44089e-16 -0.0435779,0.00190265 -0.0432462,0.00569347 -0.0425854,0.00944096 -0.0416005,0.0131166 -0.0402991,0.0166924 -0.0386909,0.0201412 -0.0367882,0.0234367 -0.0346056,0.0265538 -0.0321596,0.0294688 -0.0294688,0.0321596 -0.0265538,0.0346056 -0.0234367,0.0367882 -0.0201412,0.0386909 -0.0166924,0.0402991 -0.0131166,0.0416005 -0.00944096,0.0425854 -0.00569347,0.0432462 -0.00190265,0.0435779 0,6.1 0.00190265,0.0435779 0.00569347,0.0432462 0.00944096,0.0425854 0.0131166,0.0416005 0.0166924,0.0402991 0.0201412,0.0386909 0.0234367,0.0367882 0.0265538,0.0346056 0.0294688,0.0321596 0.0321596,0.0294688 0.0346056,0.0265538 0.0367882,0.0234367 0.0386909,0.0201412 0.0402991,0.0166924 0.0416005,0.0131166 0.0425854,0.00944096 0.0432462,0.00569347 0.0435779,0.00190265 1.55,0 4.44089e-16,0.2 -1.55,0 -0.061009,-0.00266371 -0.0605447,-0.00797086 -0.0596196,-0.0132173 -0.0582408,-0.0183632 -0.0564187,-0.0233694 -0.0541672,-0.0281977 -0.0515035,-0.0328114 -0.0484478,-0.0371753 -0.0450234,-0.0412564 -0.0412564,-0.0450234 -0.0371753,-0.0484478 -0.0328114,-0.0515035 -0.0281977,-0.0541672 -0.0233694,-0.0564187 -0.0183632,-0.0582408 -0.0132173,-0.0596196 -0.00797086,-0.0605447 -0.00266371,-0.061009 z "/>
<path fill="rgb(241,240,234)" stroke="rgb(241,240,234)" d="M 2.25,0.4 l 0,-0.2 1.55,-4.44089e-16 0.0435779,0.00190265 0.0432462,0.00569347 0.0425854,0.00944096 0.0416005,0.0131166 0.0402991,0.0166924 0.0386909,0.0201412 0.0367882,0.0234367 0.0346056,0.0265538 0.0321596,0.0294688 0.0294688,0.0321596 0.0265538,0.0346056 0.0234367,0.0367882 0.0201412,0.0386909 0.0166924,0.0402991 0.0131166,0.0416005 0.00944096,0.0425854 0.00569347,0.0432462 0.00190265,0.0435779 0,6.1 -0.00190265,0.0435779 -0.00569347,0.0432462 -0.00944096,0.0425854 -0.0131166,0.0416005 -0.0166924,0.0402991 -0.0201412,0.0386909 -0.0234367,0.0367882 -0.0265538,0.0346056 -0.0294688,0.0321596 -0.0321596,0.0294688 -0.0346056,0.0265538 -0.0367882,0.0234367 -0.0386909,0.0201412 -0.0402991,0.0166924 -0.0416005,0.0131166 -0.0425854,0.00944096 -0.0432462,0.00569347 -0.0435779,0.00190265 -1.55,0 0,-0.2 1.55,0 0.0261467,-0.00114159 0.0259477,-0.00341608 0.0255513,-0.00566458 0.0249603,-0.00786996 0.0241794,-0.0100155 0.0232145,-0.0120847 0.0220729,-0.014062 0.0207634,-0.0159323 0.0192958,-0.0176813 0.0176813,-0.0192958 0.0159323,-0.0207634 0.014062,-0.0220729 0.0120847,-0.0232145 0.0100155,-0.0241794 0.00786996,-0.0249603 0.00566458,-0.0255513 0.00341608,-0.0259477 0.00114159,-0.0261467 0,-6.1 -0.00114159,-0.0261467 -0.00341608,-0.0259477 -0.00566458,-0.0255513 -0.00786996,-0.0249603 -0.0100155,-0.0241794 -0.0120847,-0.0232145 -0.014062,-0.0220729 -0.0159323,-0.0207634 -0.0176813,-0.0192958 -0.0192958,-0.0176813 -0.0207634,-0.0159323 -0.0220729,-0.014062 -0.0232145,-0.0120847 -0.0241794,-0.0100155 -0.0249603,-0.00786996 -0.0255513,-0.00566458 -0.0259477,-0.00341608 -0.0261467,-0.00114159 -1.55,4.44089e-16 z "/>
<path fill="rgb(241,240,234)" stroke="rgb(241,240,234)" d="M 0.7,0.4 l -0.0261467,0.00114159 -0.0259477,0.00341608 -0.0255513,0.00566458 -0.0249603,0.00786996 -0.0241794,0.0100155 -0.0232145,0.0120847 -0.0220729,0.014062 -0.0207634,0.0159323 -0.0192958,0.0176813 -0.0176813,0.0192958 -0.0159323,0.0207634 -0.014062,0.0220729 -0.0120847,0.0232145 -0.0100155,0.0241794 -0.00786996,0.0249603 -0.00566458,0.0255513 -0.00341608,0.0259477 -0.00114159,0.0261467 4.44089e-16,6.1 0.00114159,0.0261467 0.00341608,0.0259477 0.00566458,0.0255513 0.00786996,0.0249603 0.0100155,0.0241794 0.0120847,0.0232145 0.014062,0.0220729 0.0159323,0.0207634 0.0176813,0.0192958 0.0192958,0.0176813 0.0207634,0.0159323 0.0220729,0.014062 0.0232145,0.0120847 0.0241794,0.0100155 0.0249603,0.00786996 0.0255513,0.00566458 0.0259477,0.00341608 0.0261467,0.00114159 1.55,0 0,0.2 -1.55,0 -0.0435779,-0.00190265 -0.0432462,-0.00569347 -0.0425854,-0.00944096 -0.0416005,-0.0131166 -0.0402991,-0.0166924 -0.0386909,-0.0201412 -0.0367882,-0.0234367 -0.0346056,-0.0265538 -0.0321596,-0.0294688 -0.0294688,-0.0321596 -0.0265538,-0.0346056 -0.0234367,-0.0367882 -0.0201412,-0.0386909 -0.0166924,-0.0402991 -0.0131166,-0.0416005 -0.00944096,-0.0425854 -0.00569347,-0.0432462 -0.00190265,-0.0435779 0,-6.1 0.00190265,-0.0435779 0.00569347,-0.0432462 0.00944096,-0.0425854 0.0131166,-0.0416005 0.0166924,-0.0402991 0.0201412,-0.0386909 0.0234367,-0.0367882 0.0265538,-0.0346056 0.0294688,-0.0321596 0.0321596,-0.0294688 0.0346056,-0.0265538 0.0367882,-0.0234367 0.0386909,-0.0201412 0.0402991,-0.0166924 0.0416005,-0.0131166 0.0425854,-0.00944096 0.0432462,-0.00569347 0.0435779,-0.00190265 1.55,-4.44089e-16 0,0.2 -1.55,4.44089e-16 z "/>
<path fill="rgb(241,240,234)" stroke="rgb(241,240,234)" d="M 3.76226,1.5509 l -0.0118036,0 -0.0450683,-0.00751139 -0.0364839,-0.019315 -0.0236072,-0.0289725 0.118036,-0.0300456 0.0128767,0 0.0429222,-0.0096575 0.0407761,-0.0203881 0.0300456,0.0804792 -0.00107306,0 -0.0418492,0.0203881 -0.0418492,0.0118036 -0.0429222,0.00321917 z "/>
<path fill="rgb(241,240,234)" stroke="rgb(241,240,234)" d="M 3.6453,1.4951 l -0.0107306,-0.0450683 0.00858444,-0.0439953 0.0278994,-0.0364839 0.00858444,-0.00751139 0.0354108,-0.0182419 0.0504336,-0.0182419 0.0354108,-0.0118036 0.0214611,-0.0289725 -0.0096575,-0.0171689 -0.0493606,-0.00858444 0.127694,-0.0246803 0.0096575,0.0461414 -0.00214611,0.0225342 -0.0128767,0.0354108 -0.0257533,0.0289725 -0.0375569,0.0225342 -0.0504336,0.0160958 -0.00536528,0.00107306 -0.0407761,0.0128767 -0.0107306,0.0203881 0.00429222,0.0139497 0.0439953,0.0107306 -0.118036,0.0300456 z "/>
<path fill="rgb(241,240,234)" stroke="rgb(241,240,234)" d="M 3.65603,1.28478 l -0.0289725,-0.0783331 0.0096575,-0.00536528 0.0397031,-0.0160958 0.0429222,-0.00858444 0.0472144,-0.00321917 0.019315,0.00107306 0.0450683,0.00858444 0.0354108,0.0182419 0.0246803,0.0332647 -0.127694,0.0246803 -0.0160958,0.00107306 -0.0461414,0.0107306 -0.00214611,0 -0.0429222,0.0139497 z "/>
<path fill="rgb(241,240,234)" stroke="rgb(241,240,234)" d="M 3.53692,1.54982 l -0.0268264,-0.00429222 -0.0364839,-0.0268264 0.057945,-0.0547258 0.00643833,0 0.0364839,-0.0214611 0.0257533,0.0858444 -0.019315,0.0128767 -0.0439953,0.00858444 z "/>
<path fill="rgb(241,240,234)" stroke="rgb(241,240,234)" d="M 3.47361,1.54446 l -0.0804792,0 0,-0.364839 0.0804792,0 0,0.214611 0,0.0107306 0.0171689,0.0397031 0.00214611,0.00214611 0.03863,0.0171689 -0.057945,0.0547258 0,0.0257533 z "/>
<path fill="rgb(241,240,234)" stroke="rgb(241,240,234)" d="M 3.19569,1.54982 l -0.0278994,-0.00321917 -0.03863,-0.0182419 -0.0321917,-0.0332647 -0.0225342,-0.0375569 -0.0139497,-0.0450683 -0.00429222,-0.0504336 0,-0.00107306 0.00429222,-0.0504336 0.0139497,-0.0450683 0.0225342,-0.03863 0.0236072,-0.0257533 0.0364839,-0.0225342 0.0418492,-0.00751139 0.0332647,0.00429222 0.0375569,0.0182419 0.0321917,0.0332647 0.00321917,0.00429222 -0.106233,0.0225342 -0.03863,0.0182419 -0.00429222,0.00536528 -0.0182419,0.0450683 -0.00321917,0.0118036 0.200661,0 0,0.0268264 -0.00107306,0.0236072 -0.195296,0.019315 0.00321917,0.0128767 0.0225342,0.03863 0.0343378,0.0139497 0.096575,0.0246803 -0.0214611,0.0246803 -0.0364839,0.0236072 -0.0418492,0.00751139 z "/>
<path fill="rgb(241,240,234)" stroke="rgb(241,240,234)" d="M 3.29548,1.49402 l -0.096575,-0.0246803 0.0343378,-0.0139497 0.00429222,-0.00429222 0.0182419,-0.0472144 -0.116963,0 0.195296,-0.019315 -0.0096575,0.0482875 -0.00751139,0.0214611 -0.0214611,0.0397031 z "/>
<path fill="rgb(241,240,234)" stroke="rgb(241,240,234)" d="M 3.25149,1.2837 l -0.0139497,-0.0150228 -0.03863,-0.0150228 0.106233,-0.0225342 -0.0536528,0.0525797 z "/>
<path fill="rgb(241,240,234)" stroke="rgb(241,240,234)" d="M 2.99074,1.68717 l -0.0826253,-0.0321917 0,-0.133059 -0.156666,-0.0268264 0.106233,-0.0311186 0.0182419,-0.00429222 0.0321917,-0.0343378 0,-0.126621 -0.0150228,-0.0225342 -0.0354108,-0.0171689 -0.106233,-0.0289725 0.0171689,-0.0203881 0.139497,-0.00321917 0,-0.0268264 0.0826253,0 0,0.507555 z "/>
<path fill="rgb(241,240,234)" stroke="rgb(241,240,234)" d="M 2.84373,1.55411 l -0.0236072,-0.00321917 -0.0364839,-0.019315 -0.0321917,-0.0364839 0.156666,0.0268264 -0.0300456,0.0246803 -0.0343378,0.00751139 z "/>
<path fill="rgb(241,240,234)" stroke="rgb(241,240,234)" d="M 2.75144,1.4951 l -0.0214611,-0.03863 -0.0128767,-0.0461414 -0.00429222,-0.0493606 0.00321917,-0.0450683 0.0128767,-0.0450683 0.0225342,-0.0407761 0.106233,0.0289725 -0.0139497,0.00214611 -0.0332647,0.0278994 -0.0118036,0.0236072 -0.00751139,0.0493606 0.00214611,0.0300456 0.0171689,0.0429222 0.00858444,0.0118036 0.03863,0.0171689 -0.106233,0.0311186 z "/>
<path fill="rgb(241,240,234)" stroke="rgb(241,240,234)" d="M 2.76861,1.20966 l 0.0354108,-0.0268264 0.0397031,-0.00858444 0.0343378,0.00643833 0.0300456,0.0257533 -0.139497,0.00321917 z "/>
<path fill="rgb(241,240,234)" stroke="rgb(241,240,234)" d="M 2.44992,1.54231 l -0.0804792,0 0,-0.250022 0.00751139,-0.0472144 0.130913,0.0139497 -0.00429222,0 -0.03863,0.0182419 -0.00214611,0.00321917 -0.0128767,0.0450683 0,0.216757 z "/>
<path fill="rgb(241,240,234)" stroke="rgb(241,240,234)" d="M 2.64521,1.54231 l -0.0761869,0 0,-0.21783 0,-0.00321917 -0.0182419,-0.0429222 -0.00321917,-0.00214611 -0.0397031,-0.0171689 -0.130913,-0.0139497 0.192077,-0.0364839 0,-0.0289725 0.0761869,0 0,0.362693 z "/>
<path fill="rgb(241,240,234)" stroke="rgb(241,240,234)" d="M 2.37695,1.24507 l 0.0257533,-0.0375569 0.00429222,-0.00429222 0.0375569,-0.0214611 0.0450683,-0.00751139 0.0354108,0.00536528 0.00429222,0.00214611 0.0397031,0.0268264 -0.192077,0.0364839 z "/>
<path fill="rgb(241,240,234)" stroke="rgb(241,240,234)" d="M 2.16234,1.55411 l -0.0311186,-0.00429222 -0.03863,-0.019315 -0.0321917,-0.0332647 0.10194,-0.0332647 0.0107306,-0.00107306 0.0343378,-0.0278994 0.0096575,-0.0225342 0.00643833,-0.0504336 -0.00214611,-0.0300456 -0.0139497,-0.0439953 -0.00751139,-0.0107306 -0.0375569,-0.0182419 0.10194,-0.0321917 0.0236072,0.0397031 0.0139497,0.0450683 0.00429222,0.0504336 0,0.00107306 -0.00536528,0.0504336 -0.0139497,0.0439953 -0.0225342,0.0397031 -0.0236072,0.0257533 -0.0375569,0.0225342 -0.0407761,0.00858444 z "/>
<path fill="rgb(241,240,234)" stroke="rgb(241,240,234)" d="M 2.0604,1.49724 l -0.0236072,-0.0397031 -0.0128767,-0.0450683 -0.00536528,-0.0504336 0.00536528,-0.0493606 0.0128767,-0.0450683 0.0236072,-0.0407761 0.0236072,-0.0257533 0.0364839,-0.0225342 0.0418492,-0.00751139 0.0300456,0.00429222 0.0375569,0.0182419 0.0343378,0.0332647 -0.10194,0.0321917 -0.0118036,0.00107306 -0.0343378,0.0278994 -0.0096575,0.0236072 -0.00751139,0.0504336 0.00321917,0.0300456 0.0139497,0.0429222 0.00858444,0.0118036 0.0375569,0.0171689 -0.10194,0.0332647 z "/>
<path fill="rgb(241,240,234)" stroke="rgb(241,240,234)" d="M 1.76101,1.68717 l -0.0815522,-0.0321917 0,-0.475364 0.0815522,0 0,0.214611 0.00214611,0.0246803 0.0182419,0.0332647 0.03863,0.0118036 0.127694,0.0160958 -0.186712,0.03863 0,0.16847 z "/>
<path fill="rgb(241,240,234)" stroke="rgb(241,240,234)" d="M 1.83613,1.55411 l -0.0439953,-0.0096575 -0.0311186,-0.0257533 0.186712,-0.03863 -0.0246803,0.03863 -0.00536528,0.00429222 -0.0364839,0.0225342 -0.0450683,0.00858444 z "/>
<path fill="rgb(241,240,234)" stroke="rgb(241,240,234)" d="M 1.94773,1.48007 l -0.127694,-0.0160958 0.00536528,0 0.03863,-0.019315 0.00214611,-0.00429222 0.0150228,-0.0439953 0,-0.216757 0.0751139,0 0,0.251095 0,0.00214611 -0.00858444,0.0472144 z "/>
<path fill="rgb(241,240,234)" stroke="rgb(241,240,234)" d="M 3.90069,2.27521 l -0.157739,0 0,0.0890636 0.157739,0 0,-0.0890636 z "/>
<path fill="rgb(241,240,234)" stroke="rgb(241,240,234)" d="M 3.54014,2.44797 l -0.0225342,-0.00107306 -0.0364839,-0.0160958 -0.0321917,-0.0375569 0.159885,0.019315 -0.0321917,0.0257533 -0.0364839,0.0096575 z "/>
<path fill="rgb(241,240,234)" stroke="rgb(241,240,234)" d="M 3.68822,2.43939 l -0.0794061,0 0,-0.0268264 -0.159885,-0.019315 -0.00107306,-0.00107306 0.105159,-0.0343378 0.0225342,-0.00536528 0.0332647,-0.0332647 0,-0.12984 -0.0203881,-0.0236072 -0.0354108,-0.0150228 -0.106233,-0.0300456 0.162031,-0.0171689 0,-0.03863 0,-0.00643833 -0.0118036,-0.0343378 -0.0289725,-0.0332647 -0.0450683,-0.0311186 0.0311186,-0.0783331 0.00751139,0.00321917 0.0343378,0.0160958 0.0343378,0.0236072 0.00858444,0.00858444 0.0289725,0.0397031 0.00321917,0.00751139 0.0128767,0.0418492 0.00429222,0.0557989 0,0.36162 z "/>
<path fill="rgb(241,240,234)" stroke="rgb(241,240,234)" d="M 3.44786,2.39217 l -0.0214611,-0.0418492 -0.0128767,-0.0461414 -0.00429222,-0.0493606 0.00429222,-0.0482875 0.0118036,-0.0450683 0.0214611,-0.0407761 0.106233,0.0300456 -0.0128767,0.00107306 -0.0332647,0.0278994 -0.0107306,0.0236072 -0.00643833,0.0515067 0.00214611,0.0311186 0.0150228,0.0429222 0.00858444,0.0118036 0.0375569,0.0171689 -0.105159,0.0343378 z "/>
<path fill="rgb(241,240,234)" stroke="rgb(241,240,234)" d="M 3.44678,2.12069 l 0.0171689,-0.0214611 0.0354108,-0.0268264 0.0397031,-0.00751139 0.0343378,0.00858444 0.0354108,0.0300456 -0.162031,0.0171689 z "/>
<path fill="rgb(241,240,234)" stroke="rgb(241,240,234)" d="M 3.22681,2.44582 l -0.00107306,0 -0.0429222,-0.0096575 -0.0343378,-0.0268264 0.189931,-0.0343378 -0.0257533,0.0375569 -0.00429222,0.00429222 -0.0364839,0.0214611 -0.0450683,0.00751139 z "/>
<path fill="rgb(241,240,234)" stroke="rgb(241,240,234)" d="M 3.14847,2.43939 l -0.0804792,0 0,-0.365912 0.0804792,0 0,0.219976 0.00107306,0.00321917 0.0160958,0.0439953 0.00321917,0.00321917 0.03863,0.0171689 0.130913,0.0139497 -0.189931,0.0343378 0,0.0300456 z "/>
<path fill="rgb(241,240,234)" stroke="rgb(241,240,234)" d="M 3.33841,2.375 l -0.130913,-0.0139497 0.00429222,0 0.03863,-0.0182419 0.00429222,-0.00429222 0.0128767,-0.0450683 0,-0.219976 0.0783331,0 0,0.254314 -0.00751139,0.0472144 z "/>
<path fill="rgb(241,240,234)" stroke="rgb(241,240,234)" d="M 2.94674,2.5821 l -0.0300456,-0.0128767 -0.0118036,-0.0300456 0.0118036,-0.0332647 0.0300456,-0.0128767 0.0289725,0.0139497 0.0118036,0.0321917 -0.0118036,0.0300456 -0.0289725,0.0128767 z "/>
<path fill="rgb(241,240,234)" stroke="rgb(241,240,234)" d="M 2.98752,2.43939 l -0.0804792,0 0,-0.365912 0.0804792,0 0,0.365912 z "/>
<path fill="rgb(241,240,234)" stroke="rgb(241,240,234)" d="M 2.70852,2.44582 l -0.0439953,-0.0096575 -0.0332647,-0.0268264 0.188858,-0.0343378 -0.0246803,0.0375569 -0.00536528,0.00429222 -0.0364839,0.0214611 -0.0450683,0.00751139 z "/>
<path fill="rgb(241,240,234)" stroke="rgb(241,240,234)" d="M 2.63126,2.43939 l -0.0804792,0 0,-0.365912 0.0804792,0 0,0.219976 0,0.00321917 0.0171689,0.0439953 0.00214611,0.00321917 0.03863,0.0171689 0.130913,0.0139497 -0.188858,0.0343378 0,0.0300456 z "/>
<path fill="rgb(241,240,234)" stroke="rgb(241,240,234)" d="M 2.82012,2.375 l -0.130913,-0.0139497 0.00429222,0 0.0397031,-0.0182419 0.00321917,-0.00429222 0.0128767,-0.0450683 0,-0.219976 0.0794061,0 0,0.254314 -0.00858444,0.0472144 z "/>
<path fill="rgb(241,240,234)" stroke="rgb(241,240,234)" d="M 2.35334,2.44582 l -0.0429222,-0.0096575 -0.0343378,-0.0268264 0.189931,-0.0343378 -0.0257533,0.0375569 -0.00429222,0.00429222 -0.0364839,0.0214611 -0.0461414,0.00751139 z "/>
<path fill="rgb(241,240,234)" stroke="rgb(241,240,234)" d="M 2.27608,2.43939 l -0.0804792,0 0,-0.365912 0.0804792,0 0,0.219976 0,0.00321917 0.0171689,0.0439953 0.00321917,0.00321917 0.03863,0.0171689 0.130913,0.0139497 -0.189931,0.0343378 0,0.0300456 z "/>
<path fill="rgb(241,240,234)" stroke="rgb(241,240,234)" d="M 2.46601,2.375 l -0.130913,-0.0139497 0.00429222,0 0.03863,-0.0182419 0.00321917,-0.00429222 0.0139497,-0.0450683 0,-0.219976 0.0783331,0 0,0.254314 -0.00751139,0.0472144 z "/>
<path fill="rgb(241,240,234)" stroke="rgb(241,240,234)" d="M 1.91875,2.43724 l -0.0804792,0 0,-0.251095 0.00858444,-0.0472144 0.130913,0.0139497 -0.00429222,0 -0.03863,0.0182419 -0.00214611,0.00321917 -0.0139497,0.0450683 0,0.21783 z "/>
<path fill="rgb(241,240,234)" stroke="rgb(241,240,234)" d="M 2.11405,2.43724 l -0.0751139,0 0,-0.218903 0,-0.00321917 -0.0182419,-0.0418492 -0.00321917,-0.00321917 -0.0397031,-0.0171689 -0.130913,-0.0139497 0.192077,-0.0364839 0,-0.0289725 0.0751139,0 0,0.363766 z "/>
<path fill="rgb(241,240,234)" stroke="rgb(241,240,234)" d="M 1.84686,2.13893 l 0.0246803,-0.0375569 0.00536528,-0.00429222 0.0364839,-0.0214611 0.0461414,-0.00643833 0.0354108,0.00429222 0.00321917,0.00214611 0.0407761,0.0268264 -0.192077,0.0364839 z "/>
<path fill="rgb(241,240,234)" stroke="rgb(241,240,234)" d="M 1.614,2.44797 l -0.0225342,-0.00107306 -0.0375569,-0.0160958 -0.0321917,-0.0375569 0.160958,0.019315 -0.0332647,0.0257533 -0.0354108,0.0096575 z "/>
<path fill="rgb(241,240,234)" stroke="rgb(241,240,234)" d="M 1.76209,2.43939 l -0.0794061,0 0,-0.0268264 -0.160958,-0.019315 -0.00107306,-0.00107306 0.105159,-0.0343378 0.0225342,-0.00536528 0.0343378,-0.0332647 0,-0.12984 -0.0203881,-0.0236072 -0.0364839,-0.0150228 -0.105159,-0.0300456 0.162031,-0.0171689 0,-0.03863 0,-0.00643833 -0.0118036,-0.0343378 -0.0289725,-0.0332647 -0.0461414,-0.0311186 0.0321917,-0.0783331 0.00751139,0.00321917 0.0343378,0.0160958 0.0332647,0.0236072 0.0096575,0.00858444 0.0278994,0.0397031 0.00429222,0.00751139 0.0128767,0.0418492 0.00429222,0.0557989 0,0.36162 z "/>
<path fill="rgb(241,240,234)" stroke="rgb(241,240,234)" d="M 1.52065,2.39217 l -0.0214611,-0.0418492 -0.0118036,-0.0461414 -0.00429222,-0.0493606 0.00321917,-0.0482875 0.0128767,-0.0450683 0.0214611,-0.0407761 0.105159,0.0300456 -0.0118036,0.00107306 -0.0332647,0.0278994 -0.0107306,0.0236072 -0.00643833,0.0515067 0.00214611,0.0311186 0.0150228,0.0429222 0.00858444,0.0118036 0.0364839,0.0171689 -0.105159,0.0343378 z "/>
<path fill="rgb(241,240,234)" stroke="rgb(241,240,234)" d="M 1.52065,2.12069 l 0.0171689,-0.0214611 0.0343378,-0.0268264 0.0407761,-0.00751139 0.0343378,0.00858444 0.0354108,0.0300456 -0.162031,0.0171689 z "/>
<path fill="rgb(241,240,234)" stroke="rgb(241,240,234)" d="M 1.3833,2.44368 l -0.0257533,-0.00429222 -0.0375569,-0.0268264 0.057945,-0.0547258 0.00643833,0 0.0364839,-0.0214611 0.0257533,0.0869175 -0.019315,0.0118036 -0.0439953,0.00858444 z "/>
<path fill="rgb(241,240,234)" stroke="rgb(241,240,234)" d="M 1.31999,2.43939 l -0.0804792,0 0,-0.365912 0.0804792,0 0,0.214611 0.00107306,0.0107306 0.0171689,0.0397031 0.00107306,0.00214611 0.03863,0.0171689 -0.057945,0.0547258 0,0.0268264 z "/>
<path fill="rgb(241,240,234)" stroke="rgb(241,240,234)" d="M 1.04314,2.44368 l -0.0289725,-0.00321917 -0.03863,-0.0182419 -0.0321917,-0.0332647 -0.0225342,-0.0375569 -0.0139497,-0.0450683 -0.00429222,-0.0504336 0.00429222,-0.0504336 0.0139497,-0.0450683 0.0225342,-0.0397031 0.0236072,-0.0257533 0.0375569,-0.0225342 0.0418492,-0.00751139 0.0321917,0.00429222 0.0375569,0.0182419 0.0332647,0.0332647 0.00214611,0.00429222 -0.105159,0.0225342 -0.03863,0.019315 -0.00429222,0.00536528 -0.019315,0.0439953 -0.00321917,0.0118036 0.200661,0 0,0.0268264 -0.00107306,0.0236072 -0.194223,0.019315 0.00214611,0.0128767 0.0225342,0.0397031 0.0354108,0.0128767 0.096575,0.0246803 -0.0225342,0.0246803 -0.0354108,0.0236072 -0.0418492,0.00751139 z "/>
<path fill="rgb(241,240,234)" stroke="rgb(241,240,234)" d="M 1.14293,2.38788 l -0.096575,-0.0246803 0.0343378,-0.0128767 0.00321917,-0.00536528 0.0182419,-0.0472144 -0.11589,0 0.194223,-0.019315 -0.0096575,0.0482875 -0.00751139,0.0214611 -0.0203881,0.0397031 z "/>
<path fill="rgb(241,240,234)" stroke="rgb(241,240,234)" d="M 1.09786,2.17756 l -0.0139497,-0.0150228 -0.0375569,-0.0150228 0.105159,-0.0225342 -0.0536528,0.0525797 z "/>
<path fill="rgb(241,240,234)" stroke="rgb(241,240,234)" d="M 0.627867,2.43939 l -0.0804792,0 0.116963,-0.365912 0.0418492,0.118036 -0.0783331,0.247876 z "/>
<path fill="rgb(241,240,234)" stroke="rgb(241,240,234)" d="M 0.866085,2.43939 l -0.0804792,0 -0.0794061,-0.247876 -0.0418492,-0.118036 0.0858444,0 0.11589,0.365912 z "/>
<path fill="rgb(241,240,234)" stroke="rgb(241,240,234)" d="M 2.55829,6.76809 l -1.46794,0 0,-3.50031 0.573012,0 0,1.37244 0.894928,0 0.0901367,0.00321917 0.110525,0.0096575 0.10194,0.019315 0.0944289,0.0268264 0.0869175,0.0354108 0.0804792,0.0439953 0.0836983,0.0590181 0.0794061,0.0697486 0.0708217,0.0783331 0.0633103,0.0858444 0.0557989,0.0944289 0.0472144,0.0997942 -1.85961,0.00214611 0,0.872394 0.917463,0 0.938924,0.0246803 -0.0439953,0.0901367 -0.0536528,0.0847714 -0.0622372,0.0783331 -0.0718947,0.0729678 -0.0804792,0.0676025 -0.0890636,0.0611642 -0.0643833,0.0364839 -0.0890636,0.0397031 -0.0944289,0.0311186 -0.0987211,0.0225342 -0.104086,0.0139497 -0.109452,0.00429222 z "/>
<path fill="rgb(241,240,234)" stroke="rgb(241,240,234)" d="M 3.51975,6.16503 l -0.938924,-0.0246803 0.0686756,-0.00321917 0.104086,-0.019315 0.0890636,-0.03863 0.0729678,-0.0557989 0.0246803,-0.0268264 0.057945,-0.0869175 0.0343378,-0.100867 0.0118036,-0.112671 0,-0.0289725 -0.0182419,-0.110525 -0.0429222,-0.0933558 -0.0676025,-0.0783331 -0.0439953,-0.0343378 -0.0858444,-0.0461414 -0.096575,-0.0268264 -0.108379,-0.0096575 -0.917463,0 1.85961,-0.00214611 0.0375569,0.105159 0.0268264,0.107306 0.0160958,0.108379 0.00536528,0.109452 -0.00107306,0.0525797 -0.00858444,0.112671 -0.0171689,0.107306 -0.0268264,0.100867 -0.0354108,0.0955019 z "/>
</g></g></svg>
