<?xml version="1.0" encoding="UTF-8" standalone="no"?>
<!DOCTYPE svg PUBLIC "-//W3C//DTD SVG 1.1//EN" "http://www.w3.org/Graphics/SVG/1.1/DTD/svg11-flat.dtd"
[

]>
<svg xmlns="http://www.w3.org/2000/svg"  viewBox="-0.0891147 -0.0891147 7.30741 7.30741"><g fill="none" stroke="black" stroke-width="0.0125" transform="translate(0,7.12918) scale(1, -1)">
<g id="Output" >
<path fill="rgb(241,240,234)" stroke="rgb(241,240,234)" d="M 3.09443,4.1 l 0.5,0 0,0.88065 -0.0298374,0.0596748 -0.470163,-0.940325 z "/>
<path fill="rgb(241,240,234)" stroke="rgb(241,240,234)" d="M 4.59443,1.1 l 0,0.173509 -1,0 0,-0.173509 1,0 z M 4.59443,1.67941 l 0,0.0752848 -0.0117621,0.00766183 -0.0207619,0.0110429 -0.021657,0.00916396 -0.0223824,0.00721324 -0.0229325,0.00520602 -0.023303,0.00315803 -0.0234909,0.0010853 -0.0234949,-0.000995928 -0.0233148,-0.00306936 -0.0229521,-0.00511874 -0.0224097,-0.00712804 -0.0216917,-0.0090815 -0.0208038,-0.0109638 -0.0197529,-0.0127603 -0.0185473,-0.0144568 -0.0171965,-0.0160401 -0.0157109,-0.0174977 -0.0141023,-0.0188183 -0.0123833,-0.0199914 -0.0105672,-0.021008 -0.00866837,-0.0218601 -0.00670164,-0.0225409 -0.595413,0.138916 0,-0.420793 1,0 0,0.0759043 -0.0101256,-0.00985517 -0.0140956,-0.0114795 -0.015054,-0.0101902 -0.0158949,-0.00882137 -0.0166116,-0.00738361 -0.0171987,-0.00588818 -0.0176513,-0.00434676 -0.0179662,-0.0027714 -0.0181407,-0.00117439 -0.0181736,0.000431789 -0.0180645,0.0020346 -0.0178143,0.00362151 -0.017425,0.00518015 -0.0168996,0.00669833 -0.0162422,0.00816419 -0.015458,0.00956629 -0.0145531,0.0108937 -0.0135345,0.012136 -0.0124102,0.0132835 -0.0111889,0.0143273 -0.00988033,0.0152592 -0.00849456,0.0160719 -0.00704244,0.0167591 -0.00553532,0.0173154 -0.00398497,0.0177365 -0.0024035,0.0180191 -0.000803258,0.0181609 0.000722856,0.0172297 0.00216349,0.0171087 0.00358891,0.0168673 0.00498912,0.0165074 0.00635426,0.0160315 0.00767473,0.015443 0.00894128,0.0147459 0.010145,0.0139451 0.0112774,0.0130464 0.013027,0.0126792 0.0140956,0.0114795 0.015054,0.0101902 0.0158949,0.00882137 0.0166116,0.00738361 0.0171987,0.00588818 0.0176513,0.00434676 0.0179662,0.0027714 0.0181407,0.00117439 0.0181736,-0.000431789 0.0180645,-0.0020346 0.0178143,-0.00362151 0.017425,-0.00518015 0.0168996,-0.00669833 0.0162422,-0.00816419 0.015458,-0.00956629 0.0145531,-0.0108937 0.0135345,-0.012136 0.00298504,-0.00319511 z M 4.59443,2.06222 l 0,0.0377811 -0.022273,0 0.022273,-0.0377811 z "/>
<path fill="rgb(241,240,234)" stroke="rgb(241,240,234)" d="M 4.53475,3.1 l -0.940325,0 0,-0.598045 0.00687893,0.00381709 0.00938805,0.00419461 0.009715,0.00336883 0.00996948,0.00251792 0.0101496,0.00164822 0.0102539,0.00076622 0.0102818,-0.000121494 0.010233,-0.0010083 0.0101078,-0.00188759 0.725575,-0.168221 0.00563684,-0.00206187 0.00542445,-0.00256916 0.00516652,-0.00305488 0.00486522,-0.00351495 0.00452306,-0.00394552 0.00414294,-0.00434296 0.00372803,-0.00470393 0.00328183,-0.00502542 0.128405,-0.21781 0.022273,0 0,0.88065 -0.0596748,0.11935 z "/>
<path fill="rgb(241,240,234)" stroke="rgb(241,240,234)" d="M 2.09443,2.1 l 0.407997,0 0.0527657,0.237141 0.039237,-0.00252427 0,0.765383 -0.5,-1 z "/>
<path fill="rgb(241,240,234)" stroke="rgb(241,240,234)" d="M 3.59443,1.1 l 0,0.173509 -1,0 0,-0.173509 0.970163,0 0.0298374,0 z M 3.59443,1.31602 l 0,0.420793 -0.153984,0.0359262 0.0108966,-0.0117092 0.00982316,-0.0126232 0.00867342,-0.0134392 0.00745629,-0.0141508 0.00618123,-0.0147524 0.00485815,-0.0152394 0.00349732,-0.015608 0.00210932,-0.0158553 0.000704932,-0.0159795 -4.44089e-16,-0.327362 0.0997836,0 z M 3.17533,1.88357 l -0.000722856,-0.0172297 -0.00216349,-0.0171087 -0.00358891,-0.0168673 -0.00498912,-0.0165074 -0.00635426,-0.0160315 -0.00767473,-0.015443 -0.00894128,-0.0147459 -0.010145,-0.0139451 -0.0112774,-0.0130464 -0.013027,-0.0126792 -0.0140956,-0.0114795 -0.015054,-0.0101902 -0.0158949,-0.00882137 -0.0166116,-0.00738361 -0.0171987,-0.00588818 -0.0176513,-0.00434676 -0.0179662,-0.0027714 -0.0181407,-0.00117439 -0.0181736,0.000431789 -0.0180645,0.0020346 -0.0178143,0.00362151 -0.017425,0.00518015 -0.0168996,0.00669833 -0.0162422,0.00816419 -0.015458,0.00956629 -0.0145531,0.0108937 -0.0135345,0.012136 -0.0124102,0.0132835 -0.0111889,0.0143273 -0.00988033,0.0152592 -0.00849456,0.0160719 -0.00704244,0.0167591 -0.00553532,0.0173154 -0.00398497,0.0177365 -0.0024035,0.0180191 -0.000803258,0.0181609 0.000722856,0.0172297 0.00216349,0.0171087 0.00358891,0.0168673 0.00498912,0.0165074 0.00635426,0.0160315 0.00767473,0.015443 0.00894128,0.0147459 0.010145,0.0139451 0.0112774,0.0130464 0.013027,0.0126792 0.0140956,0.0114795 0.015054,0.0101902 0.0158949,0.00882137 0.0166116,0.00738361 0.0171987,0.00588818 0.0176513,0.00434676 0.0179662,0.0027714 0.0181407,0.00117439 0.0181736,-0.000431789 0.0180645,-0.0020346 0.0178143,-0.00362151 0.017425,-0.00518015 0.0168996,-0.00669833 0.0162422,-0.00816419 0.015458,-0.00956629 0.0145531,-0.0108937 0.0135345,-0.012136 0.0124102,-0.0132835 0.0111889,-0.0143273 0.00988033,-0.0152592 0.00849456,-0.0160719 0.00704244,-0.0167591 0.00553532,-0.0173154 0.00398497,-0.0177365 0.0024035,-0.0180191 0.000803258,-0.0181609 z M 2.59443,1.31602 l 0.537287,0 0,0.327362 0.000725116,0.0162062 0.00216955,0.0160767 0.00359665,0.0158187 0.00499501,0.0154343 0.00635345,0.0149265 0.00766111,0.0142994 0.00890754,0.0135581 0.0100828,0.0127084 0.0111775,0.0117572 0.0121828,0.0107119 0.0130908,0.00958113 0.0138941,0.00837374 0.0145864,0.00709942 0.0151622,0.00576837 -0.0283787,0.00662107 0.00438087,0.0229195 0.00235116,0.0232156 0.000303286,0.0233324 -0.00174693,0.0232689 -0.00378365,0.0230256 -0.00579113,0.0226043 -0.00775386,0.0220084 -0.00965668,0.0212425 -0.0114849,0.0203123 -0.0132243,0.0192253 -0.0148616,0.0179896 -0.016384,0.016615 -0.0177798,0.0151119 -0.00960547,0.00680725 -0.306503,0 -0.00918521,-0.00648186 -0.01781,-0.0150763 -0.0164172,-0.0165822 -0.0148976,-0.0179599 -0.0132628,-0.0191988 -0.0115255,-0.0202893 -0.00969916,-0.0212231 -0.00779788,-0.0219929 -0.121357,0.0501833 0,-0.695361 z "/>
<path fill="rgb(241,240,234)" stroke="rgb(241,240,234)" d="M 3.59232,2.50078 l 0.00211214,0.00117202 0,0.598045 -1,0 0,-0.765383 0.65771,-0.0423131 0.340178,0.208479 z M 3.12288,2.1 l -0.0094328,0.00668489 -0.0201496,0.0117681 -0.0211052,0.00995308 -0.0218977,0.00806117 -0.0225211,0.00610697 -0.0229704,0.00410558 -0.0232422,0.00207247 -0.0233344,2.33416e-05 -0.0232463,-0.00202597 -0.0229785,-0.00405962 -0.0225332,-0.0060619 -0.0219138,-0.00801734 -0.0211251,-0.00991083 -0.0201731,-0.0117277 -0.00988001,-0.00697216 0.306503,0 z "/>
<path fill="rgb(241,240,234)" stroke="rgb(241,240,234)" d="M 4.59443,2.1 l 0.440325,0 -0.440325,0.88065 0,-0.88065 z "/>
<path fill="rgb(241,240,234)" stroke="rgb(241,240,234)" d="M 4.59443,2.1 l 0,-0.0377811 0.0618945,-0.10499 0.338152,-0.135912 -0.0729267,-0.322439 -0.209907,0.00462293 0.00162,0.0234601 -0.000460602,0.0235115 -0.00253759,0.0233787 -0.00459471,0.0230628 -0.00661584,0.0225662 -0.00858514,0.0218929 -0.0104872,0.0210481 -0.0123071,0.0200384 -0.0140306,0.0188718 -0.0156443,0.0175573 -0.0171353,0.0161054 -0.0184922,0.0145272 -0.00794214,0.00517351 0,-0.0752848 0.00942514,-0.0100884 0.0111889,-0.0143273 0.00988033,-0.0152592 0.00849456,-0.0160719 0.00704244,-0.0167591 0.00553532,-0.0173154 0.00398497,-0.0177365 0.0024035,-0.0180191 0.000803258,-0.0181609 -0.000722856,-0.0172297 -0.00216349,-0.0171087 -0.00358891,-0.0168673 -0.00498912,-0.0165074 -0.00635426,-0.0160315 -0.00767473,-0.015443 -0.00894128,-0.0147459 -0.010145,-0.0139451 -0.0112774,-0.0130464 -0.00290147,-0.00282399 0,-0.0759043 0.550452,0 0,-0.042509 -0.550452,0 0,-0.173509 0.940325,4.44089e-16 -0.5,1 -0.440325,0 z "/>
<path fill="rgb(241,240,234)" stroke="rgb(241,240,234)" d="M 3.59443,4.1 l 0.440325,0 -0.440325,0.88065 0,-0.88065 z "/>
<path fill="rgb(241,240,234)" stroke="rgb(241,240,234)" d="M 4.53475,3.1 l -0.5,1 -0.440325,0 0,-1 0.940325,0 z "/>
<path fill="rgb(241,240,234)" stroke="rgb(241,240,234)" d="M 2.59443,3.1 l 1,0 0,1 -0.5,0 -0.5,-1 z "/>
<path fill="rgb(241,240,234)" stroke="rgb(241,240,234)" d="M 2.50242,2.1 l -0.407997,0 -0.5,-1 1,-4.44089e-16 0,0.173509 -0.393787,0 0,0.042509 0.393787,0 0,0.695361 -0.102308,0.0423061 0.0103054,0.0463149 z "/>
<path fill="rgb(241,240,234)" stroke="rgb(241,240,234)" d="M 4.5729,1.97675 l -0.516618,0.105605 0.0607112,0.269592 0.250209,-0.0585654 0.00440739,-0.000757498 0.00432846,-0.00112397 0.00421911,-0.00148255 0.00408012,-0.00183071 0.00391245,-0.00216601 0.00371729,-0.00248608 0.00349601,-0.00278869 0.00325016,-0.00307169 0.00298148,-0.00333312 0.00269184,-0.00357112 0.00238328,-0.00378402 0.166231,-0.290236 z "/>
<path fill="rgb(241,240,234)" stroke="rgb(241,240,234)" d="M 3.62259,2.45271 l 0.00639003,0.00239716 0.00657957,0.00181331 0.00671588,0.0012148 0.00679787,0.000606454 0.00682486,-6.79494e-06 0.00679665,-0.000619988 0.00671345,-0.00122817 0.391948,-0.0900894 -0.0633868,-0.272437 -0.711203,0.149299 0.335824,0.20905 z "/>
<path fill="rgb(241,240,234)" stroke="rgb(241,240,234)" d="M 3.56459,0.2 l 3.26459,0 0.00883388,0.000390951 0.00876481,0.0011698 0.0086272,0.0019395 0.00842214,0.00269403 0.00815123,0.0034275 0.00781658,0.00413417 0.00742081,0.00480851 0.00696702,0.00544526 0.00645876,0.00603943 0.00589999,0.00658638 0.00529509,0.00708183 0.00464879,0.0075219 0.00396614,0.00790316 0.00325248,0.00822263 0.00251339,0.0084778 0.00175464,0.00866669 0.000982177,0.00878781 0.000202033,0.00884022 -0.000579691,0.0088235 -0.00135688,0.0087378 -0.00212346,0.00858377 -0.00287344,0.00836263 -0.00360095,0.0080761 -3.26459,6.52918 -0.00412828,0.00744612 -0.0047467,0.00706797 -0.00533072,0.00663859 -0.00587609,0.00616109 -0.00637887,0.00563892 -0.00683541,0.00507588 -0.0072424,0.00447605 -0.0075969,0.00384377 -0.00789632,0.00318363 -0.00813851,0.00250041 -0.00832171,0.00179907 -0.00844458,0.00108468 -0.00850624,0.000362437 0,-0.323607 3.10279,-6.20557 -3.10279,2.66454e-15 0,-0.2 z "/>
<path fill="rgb(241,240,234)" stroke="rgb(241,240,234)" d="M 3.56459,0.2 l 0,0.2 -3.10279,0 3.10279,6.20557 0,0.323607 -0.00850624,-0.000362437 -0.00844458,-0.00108468 -0.00832171,-0.00179907 -0.00813851,-0.00250041 -0.00789632,-0.00318363 -0.0075969,-0.00384377 -0.0072424,-0.00447605 -0.00683541,-0.00507588 -0.00637887,-0.00563892 -0.00587609,-0.00616109 -0.00533072,-0.00663859 -0.0047467,-0.00706797 -0.00412828,-0.00744612 -3.26459,-6.52918 -0.00360095,-0.0080761 -0.00287344,-0.00836263 -0.00212346,-0.00858377 -0.00135688,-0.0087378 -0.000579691,-0.0088235 0.000202033,-0.00884022 0.000982177,-0.00878781 0.00175464,-0.00866669 0.00251339,-0.0084778 0.00325248,-0.00822263 0.00396614,-0.00790316 0.00464879,-0.0075219 0.00529509,-0.00708183 0.00589999,-0.00658638 0.00645876,-0.00603943 0.00696702,-0.00544526 0.00742081,-0.00480851 0.00781658,-0.00413417 0.00815123,-0.0034275 0.00842214,-0.00269403 0.0086272,-0.0019395 0.00876481,-0.0011698 0.00883388,-0.000390951 3.26459,-8.88178e-16 z "/>
<path fill="rgb(42,41,42)" stroke="rgb(42,41,42)" d="M 3.49464,1.64338 l -0.000704932,0.0159795 -0.00210932,0.0158553 -0.00349732,0.015608 -0.00485815,0.0152394 -0.00618123,0.0147524 -0.00745629,0.0141508 -0.00867342,0.0134392 -0.00982316,0.0126232 -0.0108966,0.0117092 -0.184144,0.0429629 -0.0151622,-0.00576837 -0.0145864,-0.00709942 -0.0138941,-0.00837374 -0.0130908,-0.00958113 -0.0121828,-0.0107119 -0.0111775,-0.0117572 -0.0100828,-0.0127084 -0.00890754,-0.0135581 -0.00766111,-0.0142994 -0.00635345,-0.0149265 -0.00499501,-0.0154343 -0.00359665,-0.0158187 -0.00216955,-0.0160767 -0.000725116,-0.0162062 0,-0.327362 -0.931074,0 0,-0.042509 2.94424,0 0,0.042509 -1.65024,0 4.44089e-16,0.327362 z "/>
<path fill="rgb(42,41,42)" stroke="rgb(42,41,42)" d="M 4.65319,1.53567 l -0.000722856,-0.0172297 -0.00216349,-0.0171087 -0.00358891,-0.0168673 -0.00498912,-0.0165074 -0.00635426,-0.0160315 -0.00767473,-0.015443 -0.00894128,-0.0147459 -0.010145,-0.0139451 -0.0112774,-0.0130464 -0.013027,-0.0126792 -0.0140956,-0.0114795 -0.015054,-0.0101902 -0.0158949,-0.00882137 -0.0166116,-0.00738361 -0.0171987,-0.00588818 -0.0176513,-0.00434676 -0.0179662,-0.0027714 -0.0181407,-0.00117439 -0.0181736,0.000431789 -0.0180645,0.0020346 -0.0178143,0.00362151 -0.017425,0.00518015 -0.0168996,0.00669833 -0.0162422,0.00816419 -0.015458,0.00956629 -0.0145531,0.0108937 -0.0135345,0.012136 -0.0124102,0.0132835 -0.0111889,0.0143273 -0.00988033,0.0152592 -0.00849456,0.0160719 -0.00704244,0.0167591 -0.00553532,0.0173154 -0.00398497,0.0177365 -0.0024035,0.0180191 -0.000803258,0.0181609 0.000722856,0.0172297 0.00216349,0.0171087 0.00358891,0.0168673 0.00498912,0.0165074 0.00635426,0.0160315 0.00767473,0.015443 0.00894128,0.0147459 0.010145,0.0139451 0.0112774,0.0130464 0.013027,0.0126792 0.0140956,0.0114795 0.015054,0.0101902 0.0158949,0.00882137 0.0166116,0.00738361 0.0171987,0.00588818 0.0176513,0.00434676 0.0179662,0.0027714 0.0181407,0.00117439 0.0181736,-0.000431789 0.0180645,-0.0020346 0.0178143,-0.00362151 0.017425,-0.00518015 0.0168996,-0.00669833 0.0162422,-0.00816419 0.015458,-0.00956629 0.0145531,-0.0108937 0.0135345,-0.012136 0.0124102,-0.0132835 0.0111889,-0.0143273 0.00988033,-0.0152592 0.00849456,-0.0160719 0.00704244,-0.0167591 0.00553532,-0.0173154 0.00398497,-0.0177365 0.0024035,-0.0180191 0.000803258,-0.0181609 z "/>
<path fill="rgb(42,41,42)" stroke="rgb(42,41,42)" d="M 3.17533,1.88357 l -0.000722856,-0.0172297 -0.00216349,-0.0171087 -0.00358891,-0.0168673 -0.00498912,-0.0165074 -0.00635426,-0.0160315 -0.00767473,-0.015443 -0.00894128,-0.0147459 -0.010145,-0.0139451 -0.0112774,-0.0130464 -0.013027,-0.0126792 -0.0140956,-0.0114795 -0.015054,-0.0101902 -0.0158949,-0.00882137 -0.0166116,-0.00738361 -0.0171987,-0.00588818 -0.0176513,-0.00434676 -0.0179662,-0.0027714 -0.0181407,-0.00117439 -0.0181736,0.000431789 -0.0180645,0.0020346 -0.0178143,0.00362151 -0.017425,0.00518015 -0.0168996,0.00669833 -0.0162422,0.00816419 -0.015458,0.00956629 -0.0145531,0.0108937 -0.0135345,0.012136 -0.0124102,0.0132835 -0.0111889,0.0143273 -0.00988033,0.0152592 -0.00849456,0.0160719 -0.00704244,0.0167591 -0.00553532,0.0173154 -0.00398497,0.0177365 -0.0024035,0.0180191 -0.000803258,0.0181609 0.000722856,0.0172297 0.00216349,0.0171087 0.00358891,0.0168673 0.00498912,0.0165074 0.00635426,0.0160315 0.00767473,0.015443 0.00894128,0.0147459 0.010145,0.0139451 0.0112774,0.0130464 0.013027,0.0126792 0.0140956,0.0114795 0.015054,0.0101902 0.0158949,0.00882137 0.0166116,0.00738361 0.0171987,0.00588818 0.0176513,0.00434676 0.0179662,0.0027714 0.0181407,0.00117439 0.0181736,-0.000431789 0.0180645,-0.0020346 0.0178143,-0.00362151 0.017425,-0.00518015 0.0168996,-0.00669833 0.0162422,-0.00816419 0.015458,-0.00956629 0.0145531,-0.0108937 0.0135345,-0.012136 0.0124102,-0.0132835 0.0111889,-0.0143273 0.00988033,-0.0152592 0.00849456,-0.0160719 0.00704244,-0.0167591 0.00553532,-0.0173154 0.00398497,-0.0177365 0.0024035,-0.0180191 0.000803258,-0.0181609 z "/>
<path fill="rgb(42,41,42)" stroke="rgb(42,41,42)" d="M 4.49212,1.79536 l 0,0.1979 0.0807848,-0.0165137 -0.0807848,0.141049 0,0.117963 0.164203,-0.278533 0.338152,-0.135912 -0.0729267,-0.322439 -0.209907,0.00462293 0.00162,0.0234601 -0.000460602,0.0235115 -0.00253759,0.0233787 -0.00459471,0.0230628 -0.00661584,0.0225662 -0.00858514,0.0218929 -0.0104872,0.0210481 -0.0123071,0.0200384 -0.0140306,0.0188718 -0.0156443,0.0175573 -0.0171353,0.0161054 -0.0184922,0.0145272 -0.0197042,0.0128353 -0.0207619,0.0110429 -0.021657,0.00916396 -0.0223824,0.00721324 -0.0229325,0.00520602 -0.00281225,0.000381117 z "/>
<path fill="rgb(42,41,42)" stroke="rgb(42,41,42)" d="M 3.49212,2.37149 l -0.205358,-0.127835 0.205358,-0.0431098 0,-0.439866 -0.0516758,0.0120565 -0.184144,0.0429629 -0.0283787,0.00662107 0.00438087,0.0229195 0.00235116,0.0232156 0.000303286,0.0233324 -0.00174693,0.0232689 -0.00378365,0.0230256 -0.00579113,0.0226043 -0.00775386,0.0220084 -0.00965668,0.0212425 -0.0114849,0.0203123 -0.0132243,0.0192253 -0.0148616,0.0179896 -0.016384,0.016615 -0.0177798,0.0151119 -0.0190383,0.0134921 -0.0201496,0.0117681 -0.0211052,0.00995308 -0.0218977,0.00806117 -0.0225211,0.00610697 -0.0229704,0.00410558 -0.0232422,0.00207247 -0.0233344,2.33416e-05 -0.0232463,-0.00202597 -0.0229785,-0.00405962 -0.0225332,-0.0060619 -0.0219138,-0.00801734 -0.0211251,-0.00991083 -0.0201731,-0.0117277 -0.0190652,-0.013454 -0.01781,-0.0150763 -0.0164172,-0.0165822 -0.0148976,-0.0179599 -0.0132628,-0.0191988 -0.0115255,-0.0202893 -0.00969916,-0.0212231 -0.00779788,-0.0219929 -0.223665,0.0924893 0.0630711,0.283456 0.696947,-0.0448373 0.239982,0.147073 0,-0.0678853 z "/>
<path fill="rgb(42,41,42)" stroke="rgb(42,41,42)" d="M 3.75202,2.49888 l -0.162817,0 0.00310847,0.00190503 0.00899106,0.0049891 0.00938805,0.00419461 0.009715,0.00336883 0.00996948,0.00251792 0.0101496,0.00164822 0.0102539,0.00076622 0.0102818,-0.000121494 0.010233,-0.0010083 0.0101078,-0.00188759 0.0706185,-0.0163726 z "/>
<path fill="rgb(42,41,42)" stroke="rgb(42,41,42)" d="M 4.49212,2.1178 l -0.0854462,0.149187 -0.00238328,0.00378402 -0.00269184,0.00357112 -0.00298148,0.00333312 -0.00325016,0.00307169 -0.00349601,0.00278869 -0.00371729,0.00248608 -0.00391245,0.00216601 -0.00408012,0.00183071 -0.00421911,0.00148255 -0.00432846,0.00112397 -0.00440739,0.000757498 -0.250209,0.0585654 -0.0607112,-0.269592 0.435833,-0.0890911 0,-0.1979 -0.0204907,0.00277691 -0.0234909,0.0010853 -0.0234949,-0.000995928 -0.0233148,-0.00306936 -0.0229521,-0.00511874 -0.0224097,-0.00712804 -0.0216917,-0.0090815 -0.0208038,-0.0109638 -0.0197529,-0.0127603 -0.0185473,-0.0144568 -0.0171965,-0.0160401 -0.0157109,-0.0174977 -0.0141023,-0.0188183 -0.0123833,-0.0199914 -0.0105672,-0.021008 -0.00866837,-0.0218601 -0.00670164,-0.0225409 -0.697721,0.162786 0,0.439866 0.505845,-0.10619 0.0633868,0.272437 -0.391948,0.0900894 -0.00671345,0.00122817 -0.00679665,0.000619988 -0.00682486,6.79494e-06 -0.00679787,-0.000606454 -0.00671588,-0.0012148 -0.00657957,-0.00181331 -0.00639003,-0.00239716 -0.130466,-0.0812151 0,0.0678853 0.0970875,0.0595002 0.162817,0 0.654957,-0.151849 0.00563684,-0.00206187 0.00542445,-0.00256916 0.00516652,-0.00305488 0.00486522,-0.00351495 0.00452306,-0.00394552 0.00414294,-0.00434296 0.00372803,-0.00470393 0.00328183,-0.00502542 0.0483701,-0.0820489 0,-0.117963 z "/>
<path fill="rgb(187,30,16)" stroke="rgb(187,30,16)" d="M 3.56459,5.04033 l 1.97016,-3.94033 -1.97016,-4.44089e-16 0,-0.7 3.10279,-2.66454e-15 -3.10279,6.20557 0,-1.56525 z "/>
<path fill="rgb(187,30,16)" stroke="rgb(187,30,16)" d="M 3.56459,0.2 l 0,-0.2 3.26459,-1.77636e-15 0.0265016,0.00117285 0.0262944,0.00350939 0.0258816,0.00581849 0.0252664,0.00808209 0.0244537,0.0102825 0.0234497,0.0124025 0.0222624,0.0144255 0.0209011,0.0163358 0.0193763,0.0181183 0.0177,0.0197591 0.0158853,0.0212455 0.0139464,0.0225657 0.0118984,0.0237095 0.00975744,0.0246679 0.00754016,0.0254334 0.00526392,0.0260001 0.00294653,0.0263634 0.000606098,0.0265207 -0.00173907,0.0264705 -0.00407065,0.0262134 -0.00637039,0.0257513 -0.00862033,0.0250879 -0.0108029,0.0242283 -3.26459,6.52918 -0.0123848,0.0223384 -0.0142401,0.0212039 -0.0159921,0.0199158 -0.0176283,0.0184833 -0.0191366,0.0169168 -0.0205062,0.0152277 -0.0217272,0.0134282 -0.0227907,0.0115313 -0.023689,0.00955089 -0.0244155,0.00750124 -0.0249651,0.00539721 -0.0253337,0.00325405 -0.0255187,0.00108731 0,-0.2 0.00850624,-0.000362437 0.00844458,-0.00108468 0.00832171,-0.00179907 0.00813851,-0.00250041 0.00789632,-0.00318363 0.0075969,-0.00384377 0.0072424,-0.00447605 0.00683541,-0.00507588 0.00637887,-0.00563892 0.00587609,-0.00616109 0.00533072,-0.00663859 0.0047467,-0.00706797 0.00412828,-0.00744612 3.26459,-6.52918 0.00360095,-0.0080761 0.00287344,-0.00836263 0.00212346,-0.00858377 0.00135688,-0.0087378 0.000579691,-0.0088235 -0.000202033,-0.00884022 -0.000982177,-0.00878781 -0.00175464,-0.00866669 -0.00251339,-0.0084778 -0.00325248,-0.00822263 -0.00396614,-0.00790316 -0.00464879,-0.0075219 -0.00529509,-0.00708183 -0.00589999,-0.00658638 -0.00645876,-0.00603943 -0.00696702,-0.00544526 -0.00742081,-0.00480851 -0.00781658,-0.00413417 -0.00815123,-0.0034275 -0.00842214,-0.00269403 -0.0086272,-0.0019395 -0.00876481,-0.0011698 -0.00883388,-0.000390951 -3.26459,0 z "/>
<path fill="rgb(187,30,16)" stroke="rgb(187,30,16)" d="M 3.56459,0.2 l -3.26459,8.88178e-16 -0.00883388,0.000390951 -0.00876481,0.0011698 -0.0086272,0.0019395 -0.00842214,0.00269403 -0.00815123,0.0034275 -0.00781658,0.00413417 -0.00742081,0.00480851 -0.00696702,0.00544526 -0.00645876,0.00603943 -0.00589999,0.00658638 -0.00529509,0.00708183 -0.00464879,0.0075219 -0.00396614,0.00790316 -0.00325248,0.00822263 -0.00251339,0.0084778 -0.00175464,0.00866669 -0.000982177,0.00878781 -0.000202033,0.00884022 0.000579691,0.0088235 0.00135688,0.0087378 0.00212346,0.00858377 0.00287344,0.00836263 0.00360095,0.0080761 3.26459,6.52918 0.00412828,0.00744612 0.0047467,0.00706797 0.00533072,0.00663859 0.00587609,0.00616109 0.00637887,0.00563892 0.00683541,0.00507588 0.0072424,0.00447605 0.0075969,0.00384377 0.00789632,0.00318363 0.00813851,0.00250041 0.00832171,0.00179907 0.00844458,0.00108468 0.00850624,0.000362437 0,0.2 -0.0255187,-0.00108731 -0.0253337,-0.00325405 -0.0249651,-0.00539721 -0.0244155,-0.00750124 -0.023689,-0.00955089 -0.0227907,-0.0115313 -0.0217272,-0.0134282 -0.0205062,-0.0152277 -0.0191366,-0.0169168 -0.0176283,-0.0184833 -0.0159921,-0.0199158 -0.0142401,-0.0212039 -0.0123848,-0.0223384 -3.26459,-6.52918 -0.0108029,-0.0242283 -0.00862033,-0.0250879 -0.00637039,-0.0257513 -0.00407065,-0.0262134 -0.00173907,-0.0264705 0.000606098,-0.0265207 0.00294653,-0.0263634 0.00526392,-0.0260001 0.00754016,-0.0254334 0.00975744,-0.0246679 0.0118984,-0.0237095 0.0139464,-0.0225657 0.0158853,-0.0212455 0.0177,-0.0197591 0.0193763,-0.0181183 0.0209011,-0.0163358 0.0222624,-0.0144255 0.0234497,-0.0124025 0.0244537,-0.0102825 0.0252664,-0.00808209 0.0258816,-0.00581849 0.0262944,-0.00350939 0.0265016,-0.00117285 3.26459,0 0,0.2 z "/>
<path fill="rgb(187,30,16)" stroke="rgb(187,30,16)" d="M 3.56459,5.04033 l 0,1.56525 -3.10279,-6.20557 3.10279,0 0,0.7 -1.97016,4.44089e-16 1.97016,3.94033 z "/>
</g></g></svg>
