<?xml version="1.0" encoding="UTF-8" standalone="no"?>
<!DOCTYPE svg PUBLIC "-//W3C//DTD SVG 1.1//EN" "http://www.w3.org/Graphics/SVG/1.1/DTD/svg11-flat.dtd"
[

]>
<svg xmlns="http://www.w3.org/2000/svg"  viewBox="-0.125044 -0.125044 10.2536 12.7519"><g fill="none" stroke="black" stroke-width="0.0125" transform="translate(0,12.5018) scale(1, -1)">
<g id="Output" >
<path fill="rgb(241,240,234)" stroke="rgb(241,240,234)" d="M 5.38176,4.47986 l 1.94213e-05,0.00424177 5.82622e-05,0.00424142 9.70982e-05,0.00424071 -0.10571,0.0029047 -0.0656082,-0.109986 -0.559886,0.0517349 -0.00548249,-0.0401085 -0.00896327,-0.0394767 -0.0123756,-0.0385434 -0.0156934,-0.0373157 -0.0188914,-0.0358031 -0.0219451,-0.0340171 -0.0248312,-0.0319713 -0.0275276,-0.0296813 -0.0300139,-0.0271646 -0.0322709,-0.0244405 -0.0342815,-0.0215297 -0.0360302,-0.0184545 -0.0375039,-0.0152384 -0.0386911,-0.0119059 -0.0395828,-0.00848247 -0.0401722,-0.00499427 -0.0404548,-0.00146792 -0.0404285,0.00206963 -0.0400934,0.00559138 -0.0394522,0.00907043 -0.0385096,0.0124802 -0.037273,0.0157947 -0.0357517,0.0189885 -0.122248,-0.207717 0.20987,-0.0921689 0.21705,-0.0736879 0.222606,-0.0546556 0.226496,-0.0352144 0.228692,-0.0155097 0.229177,0.00431103 0.227947,0.0240995 0.225012,0.0437077 0.220393,0.0629888 0.214125,0.0817987 0.206255,0.0999966 -0.139539,0.188769 -0.0339199,-0.02283 -0.0358009,-0.01975 -0.037403,-0.0165161 -0.0387137,-0.0131536 -0.0397228,-0.00968862 -0.0404224,-0.00614815 -0.0408071,-0.00255977 -0.0408738,0.00104855 -0.0406221,0.0046487 -0.040054,0.00821263 -0.0391738,0.0117126 -0.0379884,0.0151213 -0.036507,0.0184122 -0.0347412,0.0215596 -0.0327048,0.0245391 -0.0304135,0.0273274 -0.0278853,0.0299028 -0.0251399,0.0322452 -0.0221986,0.0343364 -0.0190843,0.0361601 -0.0158214,0.0377021 -0.0124352,0.0389504 -0.00895216,0.0398952 -0.00539935,0.0405292 -0.00180447,0.0408474 z "/>
<path fill="rgb(241,240,234)" stroke="rgb(241,240,234)" d="M 6.25988,3.91858 l 0.203815,0.122042 0.192066,0.139805 0.178774,0.156443 0.164046,0.171825 0.147999,0.185826 0.130762,0.198333 0.112475,0.209247 0.0932841,0.218479 0.0733434,0.225955 0.0528133,0.231615 0.0318587,0.235414 0.0106481,0.237321 -0.0100841,0.230963 -0.0301754,0.229205 -0.0500371,0.225703 -0.069518,0.220483 -0.0884698,0.213585 -0.106748,0.205062 -0.124214,0.194978 -0.140735,0.18341 -0.156185,0.170446 -0.170446,0.156185 -0.18341,0.140735 -0.194978,0.124214 -0.205062,0.106748 -0.213585,0.0884698 -0.220483,0.069518 -0.225703,0.0500371 -0.229205,0.0301754 -0.230963,0.0100841 0,-0.33675 0.33032,-0.0089284 0.32906,-0.03018 0.326433,-0.0513062 0.264677,-0.635679 0.131206,-0.156087 0,-0.176457 0,-0.429812 -0.106316,-0.169664 -0.0701227,0 0,-0.418508 -0.000154961,-0.00354918 -0.000463703,-0.00352217 -0.000768916,-0.00346836 -0.00106828,-0.00338814 -0.00135951,-0.00328214 -0.00164039,-0.00315116 -0.00190879,-0.0029962 -0.00216266,-0.00281844 -0.00240008,-0.00261923 -0.00261923,-0.00240008 -0.00281844,-0.00216266 -0.0029962,-0.00190879 -0.00315116,-0.00164039 -0.00328214,-0.00135951 -0.00338814,-0.00106828 -0.00346836,-0.000768916 -0.00352217,-0.000463703 -0.00354918,-0.000154961 -0.269205,0 -0.00354918,0.000154961 -0.00352217,0.000463703 -0.00346836,0.000768916 -0.00338814,0.00106828 -0.00328214,0.00135951 -0.00315116,0.00164039 -0.0029962,0.00190879 -0.00281844,0.00216266 -0.00261923,0.00240008 -0.00240008,0.00261923 -0.00216266,0.00281844 -0.00190879,0.0029962 -0.00164039,0.00315116 -0.00135951,0.00328214 -0.00106828,0.00338814 -0.000768916,0.00346836 -0.000463703,0.00352217 -0.000154961,0.00354918 0,0.418508 -0.854607,0 0,-0.655136 -0.0217647,-0.0369515 0.0139284,-0.0142464 0.0126019,-0.0154322 0.0111749,-0.0164949 0.00965884,-0.017426 0.00806573,-0.0182182 0.00640829,-0.0188651 0.00469976,-0.0193616 0.00295374,-0.0197037 0.00119896,-0.0203112 -0.000638513,-0.0203366 -0.00247078,-0.020196 -0.00428289,-0.0198907 -0.00606006,-0.0194232 -0.0077878,-0.0187972 -0.00945202,-0.0180179 -0.0110391,-0.0170916 -0.0125362,-0.0160258 0.0191733,-0.044891 0.0166955,-0.00186796 0.0164582,-0.00337023 0.0160859,-0.00484489 0.0155818,-0.00627983 0.01495,-0.0076633 0.0141957,-0.00898397 0.013325,-0.010231 0.0123451,-0.0113942 0.0112641,-0.012464 0.0100907,-0.0134316 0.385923,-0.546081 0.00863476,-0.0133761 0.00748235,-0.0140533 0.00627721,-0.0146314 0.00502783,-0.0151063 0.00374301,-0.0154748 0.00243181,-0.0157343 0.00110346,-0.0158828 -0.000232655,-0.0159194 -0.00156713,-0.0158438 -0.00289057,-0.0156565 -0.00419363,-0.0153588 -0.00546713,-0.014953 -0.0067021,-0.0144417 0.0753759,-0.145183 0.0374362,0.0173649 0.0388331,0.0139642 0.0399218,0.0104527 0.0406937,0.00685828 0.0411426,0.00320941 0.0412649,-0.000464939 0.0410598,-0.00413559 0.0405288,-0.00777343 0.0396762,-0.0113496 0.0385086,-0.0148356 0.0370355,-0.018204 0.0352684,-0.0214278 0.0332214,-0.0244816 0.0309108,-0.0273411 0.0283548,-0.0299836 0.0255738,-0.0323881 0.0225898,-0.0345356 0.0194266,-0.036409 0.0161092,-0.0379935 0.0126639,-0.0392764 0.00911813,-0.0402476 0.00549998,-0.0408994 0.00183819,-0.0412266 -0.00166969,-0.0392952 -0.00499702,-0.0390119 -0.00828834,-0.0384474 -0.0115199,-0.0376057 -0.0146684,-0.036493 -0.0177112,-0.0351171 -0.0206263,-0.0334881 -0.0233927,-0.0316177 -0.0259905,-0.0295194 -0.0284009,-0.0272083 -0.0306065,-0.024701 0.139539,-0.188769 z "/>
<path fill="rgb(241,240,234)" stroke="rgb(241,240,234)" d="M 3.72623,4.47986 l 0.00173969,0.040109 0.00520601,0.0398077 0.00863322,0.0392074 0.0119956,0.0383127 0.0152679,0.0371302 0.0184254,0.0356687 0.0214446,0.0339394 0.0243028,0.0319551 0.0269783,0.0297309 0.0294513,0.0272833 0.031703,0.0246308 0.0337166,0.0217933 0.035477,0.018792 0.0369708,0.0156497 0.038187,0.0123898 0.0391164,0.0090368 0.0397519,0.00561596 0.0400889,0.00215293 0.0401248,-0.00132627 0.0398592,-0.00479551 0.0392943,-0.00822872 0.0384343,-0.0116001 0.0867238,0.247945 -0.0694712,0.0694712 0.505566,0.563449 -0.0578901,0.00192365 -0.167876,0 0,0.127361 0.162081,0 0,0.125422 -0.162081,0 -0.000244445,0.0184583 0.00141118,0.0184059 0.00305544,0.0182053 0.0046751,0.0178581 0.00625711,0.0173671 0.00778875,0.0167363 0.00925767,0.0159707 0.010652,0.0150766 0.0119607,0.014061 0.013173,0.0129322 0.0142792,0.0116993 0.0152705,0.0103722 0.0161388,0.00896153 0.0168771,0.00747874 2.22045e-14,8.88178e-15 0.0163258,0.00556573 0.0167492,0.00411991 0.0170449,0.00264265 0.0172104,0.00114524 0.0172447,-0.000360915 0.0171474,-0.00186431 0.0169194,-0.00335349 0.0165622,-0.00481708 0.0160787,-0.00624393 0.0154725,-0.00762314 0.0147483,-0.00894419 1.24345e-14,-8.88178e-15 0.00990373,-0.00701125 0.0095079,-0.00753932 0.00908395,-0.00804509 0.0217647,0.0369515 0,0.655136 -0.801312,0 0,-0.418508 0,-1.40332e-13 -0.000154168,-0.00354893 -0.000462935,-0.00352198 -0.000768178,-0.00346822 -0.00106757,-0.00338806 -0.00135884,-0.0032821 -0.00163976,-0.00315116 -0.0019082,-0.00299623 -0.00216212,-0.00281849 -0.00239957,-0.0026193 -0.00261875,-0.00240016 -0.002818,-0.00216275 -0.0029958,-0.00190888 -0.00315079,-0.00164047 -0.0032818,-0.00135958 -0.00338782,-0.00106834 -0.00346805,-0.000768962 -0.00352187,-0.000463731 -0.00354889,-0.00015497 -0.269187,0 -3.79252e-13,0 -0.00354973,0.000154203 -0.00352278,0.00046304 -0.003469,0.000768351 -0.00338882,0.00106781 -0.00328285,0.00135915 -0.00315187,0.00164013 -0.00299691,0.00190863 -0.00281913,0.0021626 -0.00261989,0.00240011 -0.0024007,0.00261935 -0.00216324,0.00281864 -0.00190931,0.00299648 -0.00164085,0.0031515 -0.00135989,0.00328254 -0.00106858,0.00338858 -0.000769135,0.00346883 -0.000463836,0.00352267 -0.000155005,0.00354969 0,0.418508 -0.0701319,0 -0.106325,0.169664 0,0.429812 0,0.176457 0.131206,0.156087 0.264677,0.635679 0.308808,0.0490841 0.311225,0.0301756 0.312485,0.0111549 0,0.33675 -0.230963,-0.0100841 -0.229205,-0.0301754 -0.225703,-0.0500371 -0.220483,-0.069518 -0.213585,-0.0884698 -0.205062,-0.106748 -0.194978,-0.124214 -0.18341,-0.140735 -0.170446,-0.156185 -0.156185,-0.170446 -0.140735,-0.18341 -0.124214,-0.194978 -0.106748,-0.205062 -0.0884698,-0.213585 -0.069518,-0.220483 -0.0500371,-0.225703 -0.0301754,-0.229205 -0.0100841,-0.230963 0.0097189,-0.22675 0.0290854,-0.225087 0.0482386,-0.221773 0.0670379,-0.216832 0.0853456,-0.210301 0.103027,-0.202227 0.119953,-0.192669 0.135999,-0.181699 0.151048,-0.169395 0.164988,-0.15585 0.177719,-0.141161 0.189145,-0.125436 0.199185,-0.108792 0.122248,0.207717 -0.0336381,0.0218099 -0.0316264,0.0246367 -0.0293778,0.027279 -0.0269091,0.0297169 -0.0242389,0.0319322 -0.0213872,0.0339084 -0.0183753,0.0356307 -0.0152257,0.037086 -0.0119622,0.0382636 -0.00860898,0.0391546 -0.00519131,0.0397523 -0.00173477,0.0400523 z "/>
<path fill="rgb(241,240,234)" stroke="rgb(241,240,234)" d="M 5.0156,5.85921 l -0.0191733,0.044891 -0.0204264,-0.00105511 -0.0202477,-0.00289494 -0.0199037,-0.00471112 -0.0193971,-0.00648883 -0.0187321,-0.00821353 -0.017914,-0.00987116 -0.0169497,-0.0114482 -0.0158469,-0.0129317 -0.0146147,-0.0143095 -0.0132631,-0.0155705 -0.0118032,-0.0167044 0.0578901,-0.00192365 0.0117741,0.0119834 0.0128096,0.0108694 0.0137401,0.00966641 0.014558,0.00838415 0.0152566,0.00703318 0.0158302,0.00562456 0.016274,0.00416984 0.0165844,0.00268095 0.0167589,0.00117008 0.016796,-0.000350373 z "/>
<path fill="rgb(241,240,234)" stroke="rgb(241,240,234)" d="M 5.63154,4.89098 l -0.0753759,0.145183 -0.00788984,-0.0138286 -0.00902196,-0.0131181 -0.0100905,-0.0123151 -0.0110879,-0.0114253 -0.0120072,-0.010455 -0.0128418,-0.00941104 -0.013586,-0.00830072 -0.0142343,-0.00713189 -0.0147824,-0.00591279 -0.0152263,-0.00465203 -0.0155628,-0.00335847 -0.0157897,-0.00204124 -0.0159052,-0.000709631 -0.486259,0 0.374342,-0.438019 0.10571,-0.0029047 0.00294777,0.0409712 0.00656574,0.040549 0.0101321,0.0398079 0.0136188,0.0387538 0.0169984,0.037395 0.0202443,0.0357421 0.023331,0.0338082 0.0262343,0.0316084 0.0289313,0.0291601 0.0314008,0.0264825 0.0336234,0.0235966 0.0355815,0.0205252 z "/>
<path fill="rgb(241,240,234)" stroke="rgb(241,240,234)" d="M 4.85171,5.53554 l -0.422582,-0.370487 -0.0867238,-0.247945 0.0379071,-0.0151649 0.0364246,-0.0184438 0.0346591,-0.0215794 0.0326244,-0.0245474 0.0303362,-0.0273247 0.0278124,-0.0298897 0.0250725,-0.0322226 0.0221379,-0.0343051 0.0190312,-0.0361211 0.0157768,-0.0376566 0.0123998,-0.0388995 0.00892643,-0.0398402 0.00538374,-0.0404715 0.00179924,-0.0407883 -0.000218472,-0.0142253 -0.00065521,-0.0142118 -0.00109133,-0.014185 0.559886,-0.0517349 -0.54704,0.547265 -0.00624936,0.00683207 -0.00562017,0.00735835 -0.00494688,0.00782688 -0.00423476,0.00823398 -0.00348941,0.00857646 -0.00271667,0.00885163 -0.0019226,0.00905733 -0.00111345,0.00919194 -0.000295566,0.00925442 0.000524642,0.00924426 0.00134073,0.00916155 0.0021463,0.00900694 0.00293502,0.00878164 0.00370071,0.00848742 0.00443736,0.00812659 0.00513918,0.00770198 0.00580066,0.00721692 0.00641662,0.00667522 0.00698222,0.00608113 0.00749303,0.00543932 0.00794502,0.00475481 0.00833466,0.00403299 0.00865889,0.00327952 0.00891516,0.00250031 0.00910146,0.00170147 0.00921633,0.000889286 0.409086,0.0984123 -0.28945,0.326102 z "/>
<path fill="rgb(241,240,234)" stroke="rgb(241,240,234)" d="M 5.6957,7.37882 l -0.0006376,-0.00393197 -0.000617478,-0.00664529 -4.90425e-05,-0.00667373 0.000519749,-0.00665365 0.00108476,-0.00658517 0.00164188,-0.0064688 0.00218707,-0.00630538 0.00271634,-0.00609611 0.00322587,-0.00584251 0.00371193,-0.00554642 0.00417099,-0.00520999 0.00459973,-0.00483567 0.00499501,-0.00442618 0.00535396,-0.0039845 0.00567398,-0.00351384 0.00595273,-0.00301763 0.00618819,-0.00249948 0.00637865,-0.00196314 0.00652272,-0.00141253 0.00661935,-0.00085165 0.00666784,-0.000284573 0.395901,0 1.03029e-13,0 0.008083,0.000353693 0.00802142,0.00105678 0.0078988,0.00175183 0.00771607,0.00243355 0.00747463,0.00309674 0.00717631,0.00373638 0.00682338,0.00434758 0.00641852,0.0049257 0.00596483,0.00546633 0.00546574,0.00596537 0.00492506,0.00641901 0.0043469,0.00682381 0.00373567,0.00717668 0.003096,0.00747494 0.00243278,0.00771631 0.00175105,0.00789897 0.00105599,0.00802152 0.00035289,0.00808303 0,0.126677 0,0.0407223 -0.000496638,0.00727879 -0.00112651,0.00720822 -0.00174789,0.00708324 -0.00235607,0.00690481 -0.00294647,0.00667426 -0.00351463,0.00639334 -0.00405626,0.00606417 -0.00456728,0.00568923 -0.00504383,0.00527135 -0.00548232,0.00481369 -0.00587942,0.0043197 -0.00623216,0.0037931 -0.00653785,0.00323788 -0.00679421,0.00265822 -0.00699928,0.0020585 -0.00715154,0.00144324 -0.00724981,0.000817089 -0.00729337,0.000184772 -0.00728189,-0.00044894 -0.35516,0 -0.008181,-0.000804543 -0.00808369,-0.00149332 -0.0079285,-0.00217141 -0.00771653,-0.00283395 -0.0074493,-0.00347619 -0.00712874,-0.00409355 -0.00675713,-0.00468159 -0.00633713,-0.00523611 -0.00587176,-0.00575313 -0.00536434,-0.00622896 -0.0048185,-0.00666019 -0.00423817,-0.00704372 -0.00362748,-0.00737682 -0.00299083,-0.00765709 -0.00233275,-0.00788253 -0.00165797,-0.00805153 -0.00660344,-0.0407223 -0.0205417,-0.126677 z "/>
<path fill="rgb(241,240,234)" stroke="rgb(241,240,234)" d="M 3.88828,7.62767 l -0.00728189,0.00044894 -0.00729337,-0.000184772 -0.00724981,-0.000817089 -0.00715154,-0.00144324 -0.00699928,-0.0020585 -0.00679421,-0.00265822 -0.00653785,-0.00323788 -0.00623216,-0.0037931 -0.00587942,-0.0043197 -0.00548232,-0.00481369 -0.00504383,-0.00527135 -0.00456728,-0.00568923 -0.00405626,-0.00606417 -0.00351463,-0.00639334 -0.00294647,-0.00667426 -0.00235607,-0.00690481 -0.00174789,-0.00708324 -0.00112651,-0.00720822 -0.000496638,-0.00727879 0,-0.0041438 0,-0.0365785 0,-0.126677 0.00035298,-0.00808405 0.00105625,-0.00802252 0.00175148,-0.00789992 0.00243339,-0.00771719 0.00309676,-0.00747573 0.00373657,-0.00717736 0.00434794,-0.00682436 0.00492621,-0.00641941 0.00546699,-0.00596561 0.00596615,-0.0054664 0.0064199,-0.00492557 0.00682479,-0.00434726 0.00717773,-0.00373586 0.00747603,-0.00309602 0.00771744,-0.00243262 0.00790009,-0.0017507 0.00802262,-0.00105546 0.00808408,-0.000352177 3.11307e-13,0 0.395883,0 0.00686629,0.000301797 0.00681333,0.000903063 0.00670782,0.00149736 0.00655058,0.00208012 0.00634281,0.00264683 0.00608613,0.00319312 0.0057825,0.00371479 0.00543428,0.0042078 0.00504414,0.00466837 0.0046151,0.00509292 0.00415046,0.0054782 0.00365381,0.00582122 0.00312898,0.00611935 0.00258002,0.00637028 0.00201116,0.00657208 0.00142678,0.00672319 0.000831407,0.00682244 0.000229617,0.00686908 -0.000373943,0.00686274 -0.00097462,0.00680346 -0.0205417,0.126677 -0.00660344,0.0407223 -0.00165797,0.00805153 -0.00233275,0.00788253 -0.00299083,0.00765709 -0.00362748,0.00737682 -0.00423817,0.00704372 -0.0048185,0.00666019 -0.00536434,0.00622896 -0.00587176,0.00575313 -0.00633713,0.00523611 -0.00675713,0.00468159 -0.00712874,0.00409355 -0.0074493,0.00347619 -0.00771653,0.00283395 -0.0079285,0.00217141 -0.00808369,0.00149332 -0.008181,0.000804543 -0.0108173,0 -0.344343,0 z "/>
<path fill="rgb(241,240,234)" stroke="rgb(241,240,234)" d="M 4.01723,7.84031 l 0.673558,0.0482529 0.675284,0 0.673558,-0.0482529 -0.18325,0.46375 -0.328905,0.0549463 -0.332322,0.0275675 -0.333463,0 -0.332322,-0.0275675 -0.328905,-0.0549463 -0.183232,-0.46375 z "/>
<path fill="rgb(241,240,234)" stroke="rgb(241,240,234)" d="M 4.48294,4.47986 l -0.00111679,0.0255788 -0.00334188,0.0253841 -0.00554153,0.0249962 -0.00769901,0.0244181 -0.00979789,0.0236542 -0.0118222,0.0227103 -0.0137566,0.0215935 -0.0155862,0.0203123 -0.0172972,0.0188766 -0.0188766,0.0172972 -0.0203123,0.0155862 -0.0215935,0.0137566 -0.0227103,0.0118222 -0.0236542,0.00979789 -0.0244181,0.00769901 -0.0249962,0.00554153 -0.0253841,0.00334188 -0.0255788,0.00111679 -0.0255788,-0.00111679 -0.0253841,-0.00334188 -0.0249962,-0.00554153 -0.0244181,-0.00769901 -0.0236542,-0.00979789 -0.0227103,-0.0118222 -0.0215935,-0.0137566 -0.0203123,-0.0155862 -0.0188766,-0.0172972 -0.0172972,-0.0188766 -0.0155862,-0.0203123 -0.0137566,-0.0215935 -0.0118222,-0.0227103 -0.00979789,-0.0236542 -0.00769901,-0.0244181 -0.00554153,-0.0249962 -0.00334188,-0.0253841 -0.00111679,-0.0255788 0.00111679,-0.0255788 0.00334188,-0.0253841 0.00554153,-0.0249962 0.00769901,-0.0244181 0.00979789,-0.0236542 0.0118222,-0.0227103 0.0137566,-0.0215935 0.0155862,-0.0203123 0.0172972,-0.0188766 0.0188766,-0.0172972 0.0203123,-0.0155862 0.0215935,-0.0137566 0.0227103,-0.0118222 0.0236542,-0.00979789 0.0244181,-0.00769901 0.0249962,-0.00554153 0.0253841,-0.00334188 0.0255788,-0.00111679 0.0255788,0.00111679 0.0253841,0.00334188 0.0249962,0.00554153 0.0244181,0.00769901 0.0236542,0.00979789 0.0227103,0.0118222 0.0215935,0.0137566 0.0203123,0.0155862 0.0188766,0.0172972 0.0172972,0.0188766 0.0155862,0.0203123 0.0137566,0.0215935 0.0118222,0.0227103 0.00979789,0.0236542 0.00769901,0.0244181 0.00554153,0.0249962 0.00334188,0.0253841 0.00111679,0.0255788 z "/>
<path fill="rgb(241,240,234)" stroke="rgb(241,240,234)" d="M 6.13847,4.47986 l -0.00111679,0.0255788 -0.00334188,0.0253841 -0.00554153,0.0249962 -0.00769901,0.0244181 -0.00979789,0.0236542 -0.0118222,0.0227103 -0.0137566,0.0215935 -0.0155862,0.0203123 -0.0172972,0.0188766 -0.0188766,0.0172972 -0.0203123,0.0155862 -0.0215935,0.0137566 -0.0227103,0.0118222 -0.0236542,0.00979789 -0.0244181,0.00769901 -0.0249962,0.00554153 -0.0253841,0.00334188 -0.0255788,0.00111679 -0.0255788,-0.00111679 -0.0253841,-0.00334188 -0.0249962,-0.00554153 -0.0244181,-0.00769901 -0.0236542,-0.00979789 -0.0227103,-0.0118222 -0.0215935,-0.0137566 -0.0203123,-0.0155862 -0.0188766,-0.0172972 -0.0172972,-0.0188766 -0.0155862,-0.0203123 -0.0137566,-0.0215935 -0.0118222,-0.0227103 -0.00979789,-0.0236542 -0.00769901,-0.0244181 -0.00554153,-0.0249962 -0.00334188,-0.0253841 -0.00111679,-0.0255788 0.00111679,-0.0255788 0.00334188,-0.0253841 0.00554153,-0.0249962 0.00769901,-0.0244181 0.00979789,-0.0236542 0.0118222,-0.0227103 0.0137566,-0.0215935 0.0155862,-0.0203123 0.0172972,-0.0188766 0.0188766,-0.0172972 0.0203123,-0.0155862 0.0215935,-0.0137566 0.0227103,-0.0118222 0.0236542,-0.00979789 0.0244181,-0.00769901 0.0249962,-0.00554153 0.0253841,-0.00334188 0.0255788,-0.00111679 0.0255788,0.00111679 0.0253841,0.00334188 0.0249962,0.00554153 0.0244181,0.00769901 0.0236542,0.00979789 0.0227103,0.0118222 0.0215935,0.0137566 0.0203123,0.0155862 0.0188766,0.0172972 0.0172972,0.0188766 0.0155862,0.0203123 0.0137566,0.0215935 0.0118222,0.0227103 0.00979789,0.0236542 0.00769901,0.0244181 0.00554153,0.0249962 0.00334188,0.0253841 0.00111679,0.0255788 z "/>
<path fill="rgb(241,240,234)" stroke="rgb(241,240,234)" d="M 1.45177,6.25089 l 0.0135088,-0.309403 0.0404237,-0.307048 0.0670308,-0.302357 0.0931279,-0.295364 0.118516,-0.286123 0.143002,-0.274705 0.1664,-0.261196 0.188532,-0.2457 0.209229,-0.228333 0.228333,-0.209229 0.2457,-0.188532 0.261196,-0.1664 0.274705,-0.143002 0.286123,-0.118516 0.295364,-0.0931279 0.302357,-0.0670308 0.307048,-0.0404237 0.309403,-0.0135088 0.309403,0.0135088 0.307048,0.0404237 0.302357,0.0670308 0.295364,0.0931279 0.286123,0.118516 0.274705,0.143002 0.261196,0.1664 0.2457,0.188532 0.228333,0.209229 0.209229,0.228333 0.188532,0.2457 0.1664,0.261196 0.143002,0.274705 0.118516,0.286123 0.0931279,0.295364 0.0670308,0.302357 0.0404237,0.307048 0.0135088,0.309403 -0.2,0 -0.0127478,-0.291972 -0.0381463,-0.28975 -0.0632545,-0.285322 -0.0878812,-0.278724 -0.111839,-0.270004 -0.134946,-0.259229 -0.157026,-0.246481 -0.17791,-0.231857 -0.197441,-0.215469 -0.215469,-0.197441 -0.231857,-0.17791 -0.246481,-0.157026 -0.259229,-0.134946 -0.270004,-0.111839 -0.278724,-0.0878812 -0.285322,-0.0632545 -0.28975,-0.0381463 -0.291972,-0.0127478 -0.291972,0.0127478 -0.28975,0.0381463 -0.285322,0.0632545 -0.278724,0.0878812 -0.270004,0.111839 -0.259229,0.134946 -0.246481,0.157026 -0.231857,0.17791 -0.215469,0.197441 -0.197441,0.215469 -0.17791,0.231857 -0.157026,0.246481 -0.134946,0.259229 -0.111839,0.270004 -0.0878812,0.278724 -0.0632545,0.285322 -0.0381463,0.28975 -0.0127478,0.291972 -0.2,0 z "/>
<path fill="rgb(241,240,234)" stroke="rgb(241,240,234)" d="M 1.45177,6.25089 l 0.2,0 0.0127478,0.291972 0.0381463,0.28975 0.0632545,0.285322 0.0878812,0.278724 0.111839,0.270004 0.134946,0.259229 0.157026,0.246481 0.17791,0.231857 0.197441,0.215469 0.215469,0.197441 0.231857,0.17791 0.246481,0.157026 0.259229,0.134946 0.270004,0.111839 0.278724,0.0878812 0.285322,0.0632545 0.28975,0.0381463 0.291972,0.0127478 0.291972,-0.0127478 0.28975,-0.0381463 0.285322,-0.0632545 0.278724,-0.0878812 0.270004,-0.111839 0.259229,-0.134946 0.246481,-0.157026 0.231857,-0.17791 0.215469,-0.197441 0.197441,-0.215469 0.17791,-0.231857 0.157026,-0.246481 0.134946,-0.259229 0.111839,-0.270004 0.0878812,-0.278724 0.0632545,-0.285322 0.0381463,-0.28975 0.0127478,-0.291972 0.2,0 -0.0135088,0.309403 -0.0404237,0.307048 -0.0670308,0.302357 -0.0931279,0.295364 -0.118516,0.286123 -0.143002,0.274705 -0.1664,0.261196 -0.188532,0.2457 -0.209229,0.228333 -0.228333,0.209229 -0.2457,0.188532 -0.261196,0.1664 -0.274705,0.143002 -0.286123,0.118516 -0.295364,0.0931279 -0.302357,0.0670308 -0.307048,0.0404237 -0.309403,0.0135088 -0.309403,-0.0135088 -0.307048,-0.0404237 -0.302357,-0.0670308 -0.295364,-0.0931279 -0.286123,-0.118516 -0.274705,-0.143002 -0.261196,-0.1664 -0.2457,-0.188532 -0.228333,-0.209229 -0.209229,-0.228333 -0.188532,-0.2457 -0.1664,-0.261196 -0.143002,-0.274705 -0.118516,-0.286123 -0.0931279,-0.295364 -0.0670308,-0.302357 -0.0404237,-0.307048 -0.0135088,-0.309403 z "/>
<path fill="rgb(241,240,234)" stroke="rgb(241,240,234)" d="M 0.508116,6.25089 l 0,-5.49085 0.000998892,-0.0228784 0.00298907,-0.0227043 0.00495651,-0.0223574 0.00688622,-0.0218403 0.00876352,-0.021157 0.0105741,-0.0203127 0.0123043,-0.0193138 0.0139407,-0.0181679 0.0154711,-0.0168838 0.0168838,-0.0154711 0.0181679,-0.0139407 0.0193138,-0.0123043 0.0203127,-0.0105741 0.021157,-0.00876352 0.0218403,-0.00688622 0.0223574,-0.00495651 0.0227043,-0.00298907 0.0228784,-0.000998892 8.47818,8.88178e-15 0.0228784,0.000998892 0.0227043,0.00298907 0.0223574,0.00495651 0.0218403,0.00688622 0.021157,0.00876352 0.0203127,0.0105741 0.0193138,0.0123043 0.0181679,0.0139407 0.0168838,0.0154711 0.0154711,0.0168838 0.0139407,0.0181679 0.0123043,0.0193138 0.0105741,0.0203127 0.00876352,0.021157 0.00688622,0.0218403 0.00495651,0.0223574 0.00298907,0.0227043 0.000998892,0.0228784 1.77636e-15,5.49085 -0.759525,-8.88178e-16 -0.0142699,-0.326834 -0.042701,-0.324347 -0.0708072,-0.319391 -0.0983745,-0.312004 -0.125193,-0.302243 -0.151059,-0.290182 -0.175775,-0.275912 -0.199154,-0.259542 -0.221016,-0.241197 -0.241197,-0.221016 -0.259542,-0.199154 -0.275912,-0.175775 -0.290182,-0.151059 -0.302243,-0.125193 -0.312004,-0.0983745 -0.319391,-0.0708072 -0.324347,-0.042701 -0.326834,-0.0142699 -0.326834,0.0142699 -0.324347,0.042701 -0.319391,0.0708072 -0.312004,0.0983745 -0.302243,0.125193 -0.290182,0.151059 -0.275912,0.175775 -0.259542,0.199154 -0.241197,0.221016 -0.221016,0.241197 -0.199154,0.259542 -0.175775,0.275912 -0.151059,0.290182 -0.125193,0.302243 -0.0983745,0.312004 -0.0708072,0.319391 -0.042701,0.324347 -0.0142699,0.326834 -0.743653,0 z "/>
<path fill="rgb(241,240,234)" stroke="rgb(241,240,234)" d="M 10.0035,6.25089 l -0.229744,0 0,-5.49085 -0.00199778,-0.0457568 -0.00597815,-0.0454085 -0.00991301,-0.0447147 -0.0137724,-0.0436806 -0.017527,-0.042314 -0.0211483,-0.0406254 -0.0246085,-0.0386276 -0.0278815,-0.0363359 -0.0309423,-0.0337676 -0.0337676,-0.0309423 -0.0363359,-0.0278815 -0.0386276,-0.0246085 -0.0406254,-0.0211483 -0.042314,-0.017527 -0.0436806,-0.0137724 -0.0447147,-0.00991301 -0.0454085,-0.00597815 -0.0457568,-0.00199778 -8.47818,-7.99361e-15 -0.0457568,0.00199778 -0.0454085,0.00597815 -0.0447147,0.00991301 -0.0436806,0.0137724 -0.042314,0.017527 -0.0406254,0.0211483 -0.0386276,0.0246085 -0.0363359,0.0278815 -0.0337676,0.0309423 -0.0309423,0.0337676 -0.0278815,0.0363359 -0.0246085,0.0386276 -0.0211483,0.0406254 -0.017527,0.042314 -0.0137724,0.0436806 -0.00991301,0.0447147 -0.00597815,0.0454085 -0.00199778,0.0457568 0,5.49085 -0.245616,1.77636e-15 0,-6.25089 10.0035,1.77636e-15 -1.77636e-15,6.25089 z "/>
<path fill="rgb(241,240,234)" stroke="rgb(241,240,234)" d="M 10.0035,6.25089 l -1.77636e-15,6.25089 -10.0035,0 0,-6.25089 0.245616,-1.77636e-15 0,5.48553 0.00199778,0.0457568 0.00597815,0.0454085 0.00991301,0.0447147 0.0137724,0.0436806 0.017527,0.042314 0.0211483,0.0406254 0.0246085,0.0386276 0.0278815,0.0363359 0.0309423,0.0337676 0.0337676,0.0309423 0.0363359,0.0278815 0.0386276,0.0246085 0.0406254,0.0211483 0.042314,0.017527 0.0436806,0.0137724 0.0447147,0.00991301 0.0454085,0.00597815 0.0457568,0.00199778 8.47818,1.06581e-14 0.0457568,-0.00199778 0.0454085,-0.00597815 0.0447147,-0.00991301 0.0436806,-0.0137724 0.042314,-0.017527 0.0406254,-0.0211483 0.0386276,-0.0246085 0.0363359,-0.0278815 0.0337676,-0.0309423 0.0309423,-0.0337676 0.0278815,-0.0363359 0.0246085,-0.0386276 0.0211483,-0.0406254 0.017527,-0.042314 0.0137724,-0.0436806 0.00991301,-0.0447147 0.00597815,-0.0454085 0.00199778,-0.0457568 1.77636e-15,-5.48553 0.229744,0 z "/>
<path fill="rgb(241,240,234)" stroke="rgb(241,240,234)" d="M 0.508116,6.25089 l 0.743653,0 0.0142699,0.326834 0.042701,0.324347 0.0708072,0.319391 0.0983745,0.312004 0.125193,0.302243 0.151059,0.290182 0.175775,0.275912 0.199154,0.259542 0.221016,0.241197 0.241197,0.221016 0.259542,0.199154 0.275912,0.175775 0.290182,0.151059 0.302243,0.125193 0.312004,0.0983745 0.319391,0.0708072 0.324347,0.042701 0.326834,0.0142699 0.326834,-0.0142699 0.324347,-0.042701 0.319391,-0.0708072 0.312004,-0.0983745 0.302243,-0.125193 0.290182,-0.151059 0.275912,-0.175775 0.259542,-0.199154 0.241197,-0.221016 0.221016,-0.241197 0.199154,-0.259542 0.175775,-0.275912 0.151059,-0.290182 0.125193,-0.302243 0.0983745,-0.312004 0.0708072,-0.319391 0.042701,-0.324347 0.0142699,-0.326834 0.759525,8.88178e-16 -1.77636e-15,5.48553 -0.000998892,0.0228784 -0.00298907,0.0227043 -0.00495651,0.0223574 -0.00688622,0.0218403 -0.00876352,0.021157 -0.0105741,0.0203127 -0.0123043,0.0193138 -0.0139407,0.0181679 -0.0154711,0.0168838 -0.0168838,0.0154711 -0.0181679,0.0139407 -0.0193138,0.0123043 -0.0203127,0.0105741 -0.021157,0.00876352 -0.0218403,0.00688622 -0.0223574,0.00495651 -0.0227043,0.00298907 -0.0228784,0.000998892 -8.47818,-8.88178e-15 -0.0228784,-0.000998892 -0.0227043,-0.00298907 -0.0223574,-0.00495651 -0.0218403,-0.00688622 -0.021157,-0.00876352 -0.0203127,-0.0105741 -0.0193138,-0.0123043 -0.0181679,-0.0139407 -0.0168838,-0.0154711 -0.0154711,-0.0168838 -0.0139407,-0.0181679 -0.0123043,-0.0193138 -0.0105741,-0.0203127 -0.00876352,-0.021157 -0.00688622,-0.0218403 -0.00495651,-0.0223574 -0.00298907,-0.0227043 -0.000998892,-0.0228784 0,-5.48553 z "/>
<path fill="rgb(42,41,42)" stroke="rgb(42,41,42)" d="M 6.92519,11.4647 l -0.728541,0 0,-0.999187 0.74585,0 0,0.179382 -0.564895,0 0,0.272219 0.298969,0 0,0.182529 -0.298969,0 0,0.185676 0.547586,0 0,0.179382 z "/>
<path fill="rgb(42,41,42)" stroke="rgb(42,41,42)" d="M 5.93702,11.4647 l -0.171514,0 0,-0.659306 0.0188823,-0.339881 0.152632,0 0,0.999187 z "/>
<path fill="rgb(42,41,42)" stroke="rgb(42,41,42)" d="M 5.30604,11.4647 l 0,-0.311557 0.478351,-0.687629 -0.0188823,0.339881 -0.459469,0.659306 z "/>
<path fill="rgb(42,41,42)" stroke="rgb(42,41,42)" d="M 5.30604,11.4647 l -0.174661,0 0,-0.999187 0.174661,0 0,0.687629 0,0.311557 z "/>
<path fill="rgb(42,41,42)" stroke="rgb(42,41,42)" d="M 4.48623,11.482 l -0.0110147,0 -0.0896908,-0.0110147 -0.0802497,-0.0251764 -0.069235,-0.0424851 -0.0597939,-0.0582203 -0.0298969,-0.0409116 0.339881,0 0.0377645,-0.00314705 0.0771026,-0.0283234 0.0597939,-0.0582203 0.033044,-0.066088 0.0204558,-0.0833967 0.00786761,-0.0975584 -0.00314705,-0.0708085 -0.0157352,-0.0865437 -0.0298969,-0.072382 -0.036191,-0.0519262 -0.066088,-0.0440586 -0.0849702,-0.0141617 -0.322572,-0.0157352 0.0251764,-0.0314705 0.0597939,-0.0582203 0.0708085,-0.0409116 0.0786761,-0.0251764 0.0881173,-0.00786761 0.00629409,0 0.0881173,0.00944114 0.0771026,0.0283234 0.069235,0.0440586 0.0597939,0.0629409 0.0298969,0.0409116 0.036191,0.0708085 0.0267499,0.0802497 0.0141617,0.0881173 0.00629409,0.0959849 -0.00157352,0.0582203 -0.0125882,0.0912643 -0.0220293,0.0833967 -0.033044,0.0739556 -0.0440586,0.066088 -0.00314705,0.00157352 -0.0597939,0.0597939 -0.0708085,0.0440586 -0.0786761,0.0251764 -0.0881173,0.00944114 z "/>
<path fill="rgb(42,41,42)" stroke="rgb(42,41,42)" d="M 4.14635,11.3042 l -0.036191,-0.069235 -0.0251764,-0.0802497 -0.0157352,-0.0881173 -0.00629409,-0.0991319 0.00157352,-0.0314705 0.00786761,-0.0912643 0.0204558,-0.0833967 0.0298969,-0.0786761 0.0409116,-0.0708085 0.322572,0.0157352 -0.0393381,0.00314705 -0.0771026,0.0283234 -0.0597939,0.0582203 -0.00157352,0.00157352 -0.0346175,0.0676615 -0.0204558,0.0818232 -0.00786761,0.0991319 0.00786761,0.0959849 0.0204558,0.0833967 0.036191,0.0676615 0.0236028,0.0283234 0.0676615,0.0456322 0.0849702,0.0157352 -0.339881,0 z "/>
<path fill="rgb(42,41,42)" stroke="rgb(42,41,42)" d="M 3.89616,11.4647 l -0.753717,0 0,-0.176235 0.536571,0 -0.568042,-0.619968 0,-0.202984 0.785188,0 0,0.179382 -0.563321,0 0.563321,0.616821 0,0.202984 z "/>
<path fill="rgb(187,30,16)" stroke="rgb(187,30,16)" d="M 1.45177,6.25089 l -0.2,0 0.0142699,-0.326834 0.042701,-0.324347 0.0708072,-0.319391 0.0983745,-0.312004 0.125193,-0.302243 0.151059,-0.290182 0.175775,-0.275912 0.199154,-0.259542 0.221016,-0.241197 0.241197,-0.221016 0.259542,-0.199154 0.275912,-0.175775 0.290182,-0.151059 0.302243,-0.125193 0.312004,-0.0983745 0.319391,-0.0708072 0.324347,-0.042701 0.326834,-0.0142699 0.326834,0.0142699 0.324347,0.042701 0.319391,0.0708072 0.312004,0.0983745 0.302243,0.125193 0.290182,0.151059 0.275912,0.175775 0.259542,0.199154 0.241197,0.221016 0.221016,0.241197 0.199154,0.259542 0.175775,0.275912 0.151059,0.290182 0.125193,0.302243 0.0983745,0.312004 0.0708072,0.319391 0.042701,0.324347 0.0142699,0.326834 -0.2,0 -0.0135088,-0.309403 -0.0404237,-0.307048 -0.0670308,-0.302357 -0.0931279,-0.295364 -0.118516,-0.286123 -0.143002,-0.274705 -0.1664,-0.261196 -0.188532,-0.2457 -0.209229,-0.228333 -0.228333,-0.209229 -0.2457,-0.188532 -0.261196,-0.1664 -0.274705,-0.143002 -0.286123,-0.118516 -0.295364,-0.0931279 -0.302357,-0.0670308 -0.307048,-0.0404237 -0.309403,-0.0135088 -0.309403,0.0135088 -0.307048,0.0404237 -0.302357,0.0670308 -0.295364,0.0931279 -0.286123,0.118516 -0.274705,0.143002 -0.261196,0.1664 -0.2457,0.188532 -0.228333,0.209229 -0.209229,0.228333 -0.188532,0.2457 -0.1664,0.261196 -0.143002,0.274705 -0.118516,0.286123 -0.0931279,0.295364 -0.0670308,0.302357 -0.0404237,0.307048 -0.0135088,0.309403 z "/>
<path fill="rgb(187,30,16)" stroke="rgb(187,30,16)" d="M 1.45177,6.25089 l 0.0135088,0.309403 0.0404237,0.307048 0.0670308,0.302357 0.0931279,0.295364 0.118516,0.286123 0.143002,0.274705 0.1664,0.261196 0.188532,0.2457 0.209229,0.228333 0.228333,0.209229 0.2457,0.188532 0.261196,0.1664 0.274705,0.143002 0.286123,0.118516 0.295364,0.0931279 0.302357,0.0670308 0.307048,0.0404237 0.309403,0.0135088 0.309403,-0.0135088 0.307048,-0.0404237 0.302357,-0.0670308 0.295364,-0.0931279 0.286123,-0.118516 0.274705,-0.143002 0.261196,-0.1664 0.2457,-0.188532 0.228333,-0.209229 0.209229,-0.228333 0.188532,-0.2457 0.1664,-0.261196 0.143002,-0.274705 0.118516,-0.286123 0.0931279,-0.295364 0.0670308,-0.302357 0.0404237,-0.307048 0.0135088,-0.309403 0.2,0 -0.0142699,0.326834 -0.042701,0.324347 -0.0708072,0.319391 -0.0983745,0.312004 -0.125193,0.302243 -0.151059,0.290182 -0.175775,0.275912 -0.199154,0.259542 -0.221016,0.241197 -0.241197,0.221016 -0.259542,0.199154 -0.275912,0.175775 -0.290182,0.151059 -0.302243,0.125193 -0.312004,0.0983745 -0.319391,0.0708072 -0.324347,0.042701 -0.326834,0.0142699 -0.326834,-0.0142699 -0.324347,-0.042701 -0.319391,-0.0708072 -0.312004,-0.0983745 -0.302243,-0.125193 -0.290182,-0.151059 -0.275912,-0.175775 -0.259542,-0.199154 -0.241197,-0.221016 -0.221016,-0.241197 -0.199154,-0.259542 -0.175775,-0.275912 -0.151059,-0.290182 -0.125193,-0.302243 -0.0983745,-0.312004 -0.0708072,-0.319391 -0.042701,-0.324347 -0.0142699,-0.326834 0.2,0 z "/>
<path fill="rgb(187,30,16)" stroke="rgb(187,30,16)" d="M 6.25988,3.91858 l -0.206255,-0.0999966 -0.214125,-0.0817987 -0.220393,-0.0629888 -0.225012,-0.0437077 -0.227947,-0.0240995 -0.229177,-0.00431103 -0.228692,0.0155097 -0.226496,0.0352144 -0.222606,0.0546556 -0.21705,0.0736879 -0.20987,0.0921689 -0.199185,0.108792 -0.189145,0.125436 -0.177719,0.141161 -0.164988,0.15585 -0.151048,0.169395 -0.135999,0.181699 -0.119953,0.192669 -0.103027,0.202227 -0.0853456,0.210301 -0.0670379,0.216832 -0.0482386,0.221773 -0.0290854,0.225087 -0.0097189,0.22675 -0.7,0 0.0127478,-0.291972 0.0381463,-0.28975 0.0632545,-0.285322 0.0878812,-0.278724 0.111839,-0.270004 0.134946,-0.259229 0.157026,-0.246481 0.17791,-0.231857 0.197441,-0.215469 0.215469,-0.197441 0.231857,-0.17791 0.246481,-0.157026 0.259229,-0.134946 0.270004,-0.111839 0.278724,-0.0878812 0.285322,-0.0632545 0.28975,-0.0381463 0.291972,-0.0127478 0.291972,0.0127478 0.28975,0.0381463 0.285322,0.0632545 0.278724,0.0878812 0.270004,0.111839 0.259229,0.134946 0.246481,0.157026 0.231857,0.17791 0.215469,0.197441 0.197441,0.215469 0.17791,0.231857 0.157026,0.246481 0.134946,0.259229 0.111839,0.270004 0.0878812,0.278724 0.0632545,0.285322 0.0381463,0.28975 0.0127478,0.291972 -0.7,0 -0.0106481,-0.237321 -0.0318587,-0.235414 -0.0528133,-0.231615 -0.0733434,-0.225955 -0.0932841,-0.218479 -0.112475,-0.209247 -0.130762,-0.198333 -0.147999,-0.185826 -0.164046,-0.171825 -0.178774,-0.156443 -0.192066,-0.139805 -0.203815,-0.122042 z "/>
<path fill="rgb(187,30,16)" stroke="rgb(187,30,16)" d="M 7.65177,6.25089 l 0.7,0 -0.0127478,0.291972 -0.0381463,0.28975 -0.0632545,0.285322 -0.0878812,0.278724 -0.111839,0.270004 -0.134946,0.259229 -0.157026,0.246481 -0.17791,0.231857 -0.197441,0.215469 -0.215469,0.197441 -0.231857,0.17791 -0.246481,0.157026 -0.259229,0.134946 -0.270004,0.111839 -0.278724,0.0878812 -0.285322,0.0632545 -0.28975,0.0381463 -0.291972,0.0127478 -0.291972,-0.0127478 -0.28975,-0.0381463 -0.285322,-0.0632545 -0.278724,-0.0878812 -0.270004,-0.111839 -0.259229,-0.134946 -0.246481,-0.157026 -0.231857,-0.17791 -0.215469,-0.197441 -0.197441,-0.215469 -0.17791,-0.231857 -0.157026,-0.246481 -0.134946,-0.259229 -0.111839,-0.270004 -0.0878812,-0.278724 -0.0632545,-0.285322 -0.0381463,-0.28975 -0.0127478,-0.291972 0.7,0 0.0100841,0.230963 0.0301754,0.229205 0.0500371,0.225703 0.069518,0.220483 0.0884698,0.213585 0.106748,0.205062 0.124214,0.194978 0.140735,0.18341 0.156185,0.170446 0.170446,0.156185 0.18341,0.140735 0.194978,0.124214 0.205062,0.106748 0.213585,0.0884698 0.220483,0.069518 0.225703,0.0500371 0.229205,0.0301754 0.230963,0.0100841 0.230963,-0.0100841 0.229205,-0.0301754 0.225703,-0.0500371 0.220483,-0.069518 0.213585,-0.0884698 0.205062,-0.106748 0.194978,-0.124214 0.18341,-0.140735 0.170446,-0.156185 0.156185,-0.170446 0.140735,-0.18341 0.124214,-0.194978 0.106748,-0.205062 0.0884698,-0.213585 0.069518,-0.220483 0.0500371,-0.225703 0.0301754,-0.229205 0.0100841,-0.230963 z "/>
<path fill="rgb(42,41,42)" stroke="rgb(42,41,42)" d="M 5.6957,7.37882 l 0.0205417,0.126677 -1.37571,0 0.0205417,-0.126677 0.00097462,-0.00680346 0.000373943,-0.00686274 -0.000229617,-0.00686908 -0.000831407,-0.00682244 -0.00142678,-0.00672319 -0.00201116,-0.00657208 -0.00258002,-0.00637028 -0.00312898,-0.00611935 -0.00365381,-0.00582122 -0.00415046,-0.0054782 -0.0046151,-0.00509292 -0.00504414,-0.00466837 -0.00543428,-0.0042078 -0.0057825,-0.00371479 -0.00608613,-0.00319312 -0.00634281,-0.00264683 -0.00655058,-0.00208012 -0.00670782,-0.00149736 -0.00681333,-0.000903063 -0.00686629,-0.000301797 -0.395883,0 -3.11307e-13,0 -0.00808408,0.000352177 -0.00802262,0.00105546 -0.00790009,0.0017507 -0.00771744,0.00243262 -0.00747603,0.00309602 -0.00717773,0.00373586 -0.00682479,0.00434726 -0.0064199,0.00492557 -0.00596615,0.0054664 -0.00546699,0.00596561 -0.00492621,0.00641941 -0.00434794,0.00682436 -0.00373657,0.00717736 -0.00309676,0.00747573 -0.00243339,0.00771719 -0.00175148,0.00789992 -0.00105625,0.00802252 -0.00035298,0.00808405 0,0.126677 -0.122158,0 0,-0.429812 0.106325,-0.169664 0.0701319,0 0,-0.418508 0.000155005,-0.00354969 0.000463836,-0.00352267 0.000769135,-0.00346883 0.00106858,-0.00338858 0.00135989,-0.00328254 0.00164085,-0.0031515 0.00190931,-0.00299648 0.00216324,-0.00281864 0.0024007,-0.00261935 0.00261989,-0.00240011 0.00281913,-0.0021626 0.00299691,-0.00190863 0.00315187,-0.00164013 0.00328285,-0.00135915 0.00338882,-0.00106781 0.003469,-0.000768351 0.00352278,-0.00046304 0.00354973,-0.000154203 3.79252e-13,0 0.269187,0 0.00354889,0.00015497 0.00352187,0.000463731 0.00346805,0.000768962 0.00338782,0.00106834 0.0032818,0.00135958 0.00315079,0.00164047 0.0029958,0.00190888 0.002818,0.00216275 0.00261875,0.00240016 0.00239957,0.0026193 0.00216212,0.00281849 0.0019082,0.00299623 0.00163976,0.00315116 0.00135884,0.0032821 0.00106757,0.00338806 0.000768178,0.00346822 0.000462935,0.00352198 0.000154168,0.00354893 0,1.40332e-13 0,0.418508 0.801312,0 0.854607,0 0,-0.418508 0.000154961,-0.00354918 0.000463703,-0.00352217 0.000768916,-0.00346836 0.00106828,-0.00338814 0.00135951,-0.00328214 0.00164039,-0.00315116 0.00190879,-0.0029962 0.00216266,-0.00281844 0.00240008,-0.00261923 0.00261923,-0.00240008 0.00281844,-0.00216266 0.0029962,-0.00190879 0.00315116,-0.00164039 0.00328214,-0.00135951 0.00338814,-0.00106828 0.00346836,-0.000768916 0.00352217,-0.000463703 0.00354918,-0.000154961 0.269205,0 0.00354918,0.000154961 0.00352217,0.000463703 0.00346836,0.000768916 0.00338814,0.00106828 0.00328214,0.00135951 0.00315116,0.00164039 0.0029962,0.00190879 0.00281844,0.00216266 0.00261923,0.00240008 0.00240008,0.00261923 0.00216266,0.00281844 0.00190879,0.0029962 0.00164039,0.00315116 0.00135951,0.00328214 0.00106828,0.00338814 0.000768916,0.00346836 0.000463703,0.00352217 0.000154961,0.00354918 0,0.418508 0.0701227,0 0.106316,0.169664 0,0.429812 -0.122216,0 0,-0.126677 -0.00035289,-0.00808303 -0.00105599,-0.00802152 -0.00175105,-0.00789897 -0.00243278,-0.00771631 -0.003096,-0.00747494 -0.00373567,-0.00717668 -0.0043469,-0.00682381 -0.00492506,-0.00641901 -0.00546574,-0.00596537 -0.00596483,-0.00546633 -0.00641852,-0.0049257 -0.00682338,-0.00434758 -0.00717631,-0.00373638 -0.00747463,-0.00309674 -0.00771607,-0.00243355 -0.0078988,-0.00175183 -0.00802142,-0.00105678 -0.008083,-0.000353693 -1.03029e-13,0 -0.395901,0 -0.00666784,0.000284573 -0.00661935,0.00085165 -0.00652272,0.00141253 -0.00637865,0.00196314 -0.00618819,0.00249948 -0.00595273,0.00301763 -0.00567398,0.00351384 -0.00535396,0.0039845 -0.00499501,0.00442618 -0.00459973,0.00483567 -0.00417099,0.00520999 -0.00371193,0.00554642 -0.00322587,0.00584251 -0.00271634,0.00609611 -0.00218707,0.00630538 -0.00164188,0.0064688 -0.00108476,0.00658517 -0.000519749,0.00665365 4.90425e-05,0.00667373 0.000617478,0.00664529 0.000190282,0.0013142 0.000212554,0.00131078 0.000234764,0.00130699 z "/>
<path fill="rgb(42,41,42)" stroke="rgb(42,41,42)" d="M 5.67337,8.5055 l 0.112033,0 -0.112033,0.0176085 0,-0.0176085 z "/>
<path fill="rgb(42,41,42)" stroke="rgb(42,41,42)" d="M 5.71624,7.5055 l 0.00660344,0.0407223 0.00165797,0.00805153 0.00233275,0.00788253 0.00299083,0.00765709 0.00362748,0.00737682 0.00423817,0.00704372 0.0048185,0.00666019 0.00536434,0.00622896 0.00587176,0.00575313 0.00633713,0.00523611 0.00675713,0.00468159 0.00712874,0.00409355 0.0074493,0.00347619 0.00771653,0.00283395 0.0079285,0.00217141 0.00808369,0.00149332 0.008181,0.000804543 0.35516,0 0.00728189,0.00044894 0.00729337,-0.000184772 0.00724981,-0.000817089 0.00715154,-0.00144324 0.00699928,-0.0020585 0.00679421,-0.00265822 0.00653785,-0.00323788 0.00623216,-0.0037931 0.00587942,-0.0043197 0.00548232,-0.00481369 0.00504383,-0.00527135 0.00456728,-0.00568923 0.00405626,-0.00606417 0.00351463,-0.00639334 0.00294647,-0.00667426 0.00235607,-0.00690481 0.00174789,-0.00708324 0.00112651,-0.00720822 0.000496638,-0.00727879 0,-0.0407223 0.122216,0 0,0.176457 -0.131206,0.156087 -0.264677,0.635679 -0.20218,0.0317771 -0.112033,0 0,-0.170868 0.183007,-0.0305729 0.18325,-0.46375 -0.366258,0.0262383 0,-0.361047 0.0428755,0 z "/>
<path fill="rgb(42,41,42)" stroke="rgb(42,41,42)" d="M 4.67337,8.55144 l 0,-0.0459395 1,0 0,0.0176085 -0.0122199,0.00192063 -0.32906,0.03018 -0.33032,0.0089284 -0.312485,-0.0111549 -0.0159153,-0.00154311 z "/>
<path fill="rgb(42,41,42)" stroke="rgb(42,41,42)" d="M 4.67337,8.5055 l 0,-0.134549 0.188316,0.0156216 0.333463,0 0.332322,-0.0275675 0.145898,-0.0243735 0,0.170868 -1,0 z M 5.67337,7.5055 l 0,0.361047 -0.307301,0.0220146 -0.675284,0 -0.0174151,-0.0012476 0,-0.381814 1,0 z "/>
<path fill="rgb(42,41,42)" stroke="rgb(42,41,42)" d="M 4.67337,8.37095 l 0,0.134549 -0.404195,0 -0.199922,-0.0317771 -0.264677,-0.635679 -0.131206,-0.156087 0,-0.176457 0.122158,0 0,0.0365785 -2.2722e-05,0.00138121 0,0.00138139 2.2722e-05,0.00138121 0.000496638,0.00727879 0.00112651,0.00720822 0.00174789,0.00708324 0.00235607,0.00690481 0.00294647,0.00667426 0.00351463,0.00639334 0.00405626,0.00606417 0.00456728,0.00568923 0.00504383,0.00527135 0.00548232,0.00481369 0.00587942,0.0043197 0.00623216,0.0037931 0.00653785,0.00323788 0.00679421,0.00265822 0.00699928,0.0020585 0.00715154,0.00144324 0.00724981,0.000817089 0.00729337,0.000184772 0.00728189,-0.00044894 0.344343,0 0.00360493,0.000133936 0.00360741,0 0.00360493,-0.000133936 0.008181,-0.000804543 0.00808369,-0.00149332 0.0079285,-0.00217141 0.00771653,-0.00283395 0.0074493,-0.00347619 0.00712874,-0.00409355 0.00675713,-0.00468159 0.00633713,-0.00523611 0.00587176,-0.00575313 0.00536434,-0.00622896 0.0048185,-0.00666019 0.00423817,-0.00704372 0.00362748,-0.00737682 0.00299083,-0.00765709 0.00233275,-0.00788253 0.00165797,-0.00805153 0.00660344,-0.0407223 0.332837,0 0,0.381814 -0.656143,-0.0470053 0.183232,0.46375 0.328905,0.0549463 0.144006,0.0119459 z "/>
<path fill="rgb(42,41,42)" stroke="rgb(42,41,42)" d="M 3.79553,7.54208 l 0,0.0041438 -2.2722e-05,-0.00138121 0,-0.00138139 2.2722e-05,-0.00138121 z "/>
<path fill="rgb(42,41,42)" stroke="rgb(42,41,42)" d="M 4.26917,8.5055 l 0.404195,0 0,0.0459395 -0.29531,-0.0286325 -0.108885,-0.017307 z "/>
<path fill="rgb(42,41,42)" stroke="rgb(42,41,42)" d="M 4.24344,7.62767 l -0.00360493,0.000133936 -0.00360741,0 -0.00360493,-0.000133936 0.0108173,0 z "/>
<path fill="rgb(42,41,42)" stroke="rgb(42,41,42)" d="M 4.63945,5.92726 l 0,-0.127361 0.167876,0 0.0118032,0.0167044 0.0132631,0.0155705 0.0146147,0.0143095 0.0158469,0.0129317 0.0169497,0.0114482 0.017914,0.00987116 0.0187321,0.00821353 0.0193971,0.00648883 0.0199037,0.00471112 0.0202477,0.00289494 0.0204264,0.00105511 0.0125362,0.0160258 0.0110391,0.0170916 0.00945202,0.0180179 0.0077878,0.0187972 0.00606006,0.0194232 0.00428289,0.0198907 0.00247078,0.020196 0.000638513,0.0203366 -0.00119896,0.0203112 -0.00295374,0.0197037 -0.00469976,0.0193616 -0.00640829,0.0188651 -0.00806573,0.0182182 -0.00965884,0.017426 -0.0111749,0.0164949 -0.0126019,0.0154322 -0.0139284,0.0142464 -0.00908395,0.00804509 -0.0095079,0.00753932 -0.00990373,0.00701125 -1.24345e-14,8.88178e-15 -0.0147483,0.00894419 -0.0154725,0.00762314 -0.0160787,0.00624393 -0.0165622,0.00481708 -0.0169194,0.00335349 -0.0171474,0.00186431 -0.0172447,0.000360915 -0.0172104,-0.00114524 -0.0170449,-0.00264265 -0.0167492,-0.00411991 -0.0163258,-0.00556573 -2.22045e-14,-8.88178e-15 -0.0168771,-0.00747874 -0.0161388,-0.00896153 -0.0152705,-0.0103722 -0.0142792,-0.0116993 -0.013173,-0.0129322 -0.0119607,-0.014061 -0.010652,-0.0150766 -0.00925767,-0.0159707 -0.00778875,-0.0167363 -0.00625711,-0.0173671 -0.0046751,-0.0178581 -0.00305544,-0.0182053 -0.00141118,-0.0184059 0.000244445,-0.0184583 0.162081,0 0,-0.125422 -0.162081,0 z "/>
<path fill="rgb(42,41,42)" stroke="rgb(42,41,42)" d="M 4.85171,5.53554 l -0.422582,-0.370487 -0.0694712,0.0694712 0.505566,0.563449 0.0117741,0.0119834 0.0128096,0.0108694 0.0137401,0.00966641 0.014558,0.00838415 0.0152566,0.00703318 0.0158302,0.00562456 0.016274,0.00416984 0.0165844,0.00268095 0.0167589,0.00117008 0.016796,-0.000350373 0.0166955,-0.00186796 0.0164582,-0.00337023 0.0160859,-0.00484489 0.0155818,-0.00627983 0.01495,-0.0076633 0.0141957,-0.00898397 0.013325,-0.010231 0.0123451,-0.0113942 0.0112641,-0.012464 0.0100907,-0.0134316 0.385923,-0.546081 0.00863476,-0.0133761 0.00748235,-0.0140533 0.00627721,-0.0146314 0.00502783,-0.0151063 0.00374301,-0.0154748 0.00243181,-0.0157343 0.00110346,-0.0158828 -0.000232655,-0.0159194 -0.00156713,-0.0158438 -0.00289057,-0.0156565 -0.00419363,-0.0153588 -0.00546713,-0.014953 -0.0067021,-0.0144417 -0.00788984,-0.0138286 -0.00902196,-0.0131181 -0.0100905,-0.0123151 -0.0110879,-0.0114253 -0.0120072,-0.010455 -0.0128418,-0.00941104 -0.013586,-0.00830072 -0.0142343,-0.00713189 -0.0147824,-0.00591279 -0.0152263,-0.00465203 -0.0155628,-0.00335847 -0.0157897,-0.00204124 -0.0159052,-0.000709631 -0.486259,0 0.374342,-0.438019 -0.0656082,-0.109986 -0.54704,0.547265 -0.00624936,0.00683207 -0.00562017,0.00735835 -0.00494688,0.00782688 -0.00423476,0.00823398 -0.00348941,0.00857646 -0.00271667,0.00885163 -0.0019226,0.00905733 -0.00111345,0.00919194 -0.000295566,0.00925442 0.000524642,0.00924426 0.00134073,0.00916155 0.0021463,0.00900694 0.00293502,0.00878164 0.00370071,0.00848742 0.00443736,0.00812659 0.00513918,0.00770198 0.00580066,0.00721692 0.00641662,0.00667522 0.00698222,0.00608113 0.00749303,0.00543932 0.00794502,0.00475481 0.00833466,0.00403299 0.00865889,0.00327952 0.00891516,0.00250031 0.00910146,0.00170147 0.00921633,0.000889286 0.409086,0.0984123 -0.28945,0.326102 z "/>
<path fill="rgb(42,41,42)" stroke="rgb(42,41,42)" d="M 6.13847,4.47986 l -0.00111679,-0.0255788 -0.00334188,-0.0253841 -0.00554153,-0.0249962 -0.00769901,-0.0244181 -0.00979789,-0.0236542 -0.0118222,-0.0227103 -0.0137566,-0.0215935 -0.0155862,-0.0203123 -0.0172972,-0.0188766 -0.0188766,-0.0172972 -0.0203123,-0.0155862 -0.0215935,-0.0137566 -0.0227103,-0.0118222 -0.0236542,-0.00979789 -0.0244181,-0.00769901 -0.0249962,-0.00554153 -0.0253841,-0.00334188 -0.0255788,-0.00111679 -0.0255788,0.00111679 -0.0253841,0.00334188 -0.0249962,0.00554153 -0.0244181,0.00769901 -0.0236542,0.00979789 -0.0227103,0.0118222 -0.0215935,0.0137566 -0.0203123,0.0155862 -0.0188766,0.0172972 -0.0172972,0.0188766 -0.0155862,0.0203123 -0.0137566,0.0215935 -0.0118222,0.0227103 -0.00979789,0.0236542 -0.00769901,0.0244181 -0.00554153,0.0249962 -0.00334188,0.0253841 -0.00111679,0.0255788 0.00111679,0.0255788 0.00334188,0.0253841 0.00554153,0.0249962 0.00769901,0.0244181 0.00979789,0.0236542 0.0118222,0.0227103 0.0137566,0.0215935 0.0155862,0.0203123 0.0172972,0.0188766 0.0188766,0.0172972 0.0203123,0.0155862 0.0215935,0.0137566 0.0227103,0.0118222 0.0236542,0.00979789 0.0244181,0.00769901 0.0249962,0.00554153 0.0253841,0.00334188 0.0255788,0.00111679 0.0255788,-0.00111679 0.0253841,-0.00334188 0.0249962,-0.00554153 0.0244181,-0.00769901 0.0236542,-0.00979789 0.0227103,-0.0118222 0.0215935,-0.0137566 0.0203123,-0.0155862 0.0188766,-0.0172972 0.0172972,-0.0188766 0.0155862,-0.0203123 0.0137566,-0.0215935 0.0118222,-0.0227103 0.00979789,-0.0236542 0.00769901,-0.0244181 0.00554153,-0.0249962 0.00334188,-0.0253841 0.00111679,-0.0255788 z M 5.63154,4.89098 l -0.0355815,-0.0205252 -0.0336234,-0.0235966 -0.0314008,-0.0264825 -0.0289313,-0.0291601 -0.0262343,-0.0316084 -0.023331,-0.0338082 -0.0202443,-0.0357421 -0.0169984,-0.037395 -0.0136188,-0.0387538 -0.0101321,-0.0398079 -0.00656574,-0.040549 -0.00294777,-0.0409712 -9.70982e-05,-0.00424071 -5.82622e-05,-0.00424142 -1.94213e-05,-0.00424177 0.00180447,-0.0408474 0.00539935,-0.0405292 0.00895216,-0.0398952 0.0124352,-0.0389504 0.0158214,-0.0377021 0.0190843,-0.0361601 0.0221986,-0.0343364 0.0251399,-0.0322452 0.0278853,-0.0299028 0.0304135,-0.0273274 0.0327048,-0.0245391 0.0347412,-0.0215596 0.036507,-0.0184122 0.0379884,-0.0151213 0.0391738,-0.0117126 0.040054,-0.00821263 0.0406221,-0.0046487 0.0408738,-0.00104855 0.0408071,0.00255977 0.0404224,0.00614815 0.0397228,0.00968862 0.0387137,0.0131536 0.037403,0.0165161 0.0358009,0.01975 0.0339199,0.02283 0.0306065,0.024701 0.0284009,0.0272083 0.0259905,0.0295194 0.0233927,0.0316177 0.0206263,0.0334881 0.0177112,0.0351171 0.0146684,0.036493 0.0115199,0.0376057 0.00828834,0.0384474 0.00499702,0.0390119 0.00166969,0.0392952 -0.00183819,0.0412266 -0.00549998,0.0408994 -0.00911813,0.0402476 -0.0126639,0.0392764 -0.0161092,0.0379935 -0.0194266,0.036409 -0.0225898,0.0345356 -0.0255738,0.0323881 -0.0283548,0.0299836 -0.0309108,0.0273411 -0.0332214,0.0244816 -0.0352684,0.0214278 -0.0370355,0.018204 -0.0385086,0.0148356 -0.0396762,0.0113496 -0.0405288,0.00777343 -0.0410598,0.00413559 -0.0412649,0.000464939 -0.0411426,-0.00320941 -0.0406937,-0.00685828 -0.0399218,-0.0104527 -0.0388331,-0.0139642 -0.0374362,-0.0173649 z "/>
<path fill="rgb(42,41,42)" stroke="rgb(42,41,42)" d="M 4.48294,4.47986 l -0.00111679,-0.0255788 -0.00334188,-0.0253841 -0.00554153,-0.0249962 -0.00769901,-0.0244181 -0.00979789,-0.0236542 -0.0118222,-0.0227103 -0.0137566,-0.0215935 -0.0155862,-0.0203123 -0.0172972,-0.0188766 -0.0188766,-0.0172972 -0.0203123,-0.0155862 -0.0215935,-0.0137566 -0.0227103,-0.0118222 -0.0236542,-0.00979789 -0.0244181,-0.00769901 -0.0249962,-0.00554153 -0.0253841,-0.00334188 -0.0255788,-0.00111679 -0.0255788,0.00111679 -0.0253841,0.00334188 -0.0249962,0.00554153 -0.0244181,0.00769901 -0.0236542,0.00979789 -0.0227103,0.0118222 -0.0215935,0.0137566 -0.0203123,0.0155862 -0.0188766,0.0172972 -0.0172972,0.0188766 -0.0155862,0.0203123 -0.0137566,0.0215935 -0.0118222,0.0227103 -0.00979789,0.0236542 -0.00769901,0.0244181 -0.00554153,0.0249962 -0.00334188,0.0253841 -0.00111679,0.0255788 0.00111679,0.0255788 0.00334188,0.0253841 0.00554153,0.0249962 0.00769901,0.0244181 0.00979789,0.0236542 0.0118222,0.0227103 0.0137566,0.0215935 0.0155862,0.0203123 0.0172972,0.0188766 0.0188766,0.0172972 0.0203123,0.0155862 0.0215935,0.0137566 0.0227103,0.0118222 0.0236542,0.00979789 0.0244181,0.00769901 0.0249962,0.00554153 0.0253841,0.00334188 0.0255788,0.00111679 0.0255788,-0.00111679 0.0253841,-0.00334188 0.0249962,-0.00554153 0.0244181,-0.00769901 0.0236542,-0.00979789 0.0227103,-0.0118222 0.0215935,-0.0137566 0.0203123,-0.0155862 0.0188766,-0.0172972 0.0172972,-0.0188766 0.0155862,-0.0203123 0.0137566,-0.0215935 0.0118222,-0.0227103 0.00979789,-0.0236542 0.00769901,-0.0244181 0.00554153,-0.0249962 0.00334188,-0.0253841 0.00111679,-0.0255788 z M 3.72623,4.47986 l 0.00173477,-0.0400523 0.00519131,-0.0397523 0.00860898,-0.0391546 0.0119622,-0.0382636 0.0152257,-0.037086 0.0183753,-0.0356307 0.0213872,-0.0339084 0.0242389,-0.0319322 0.0269091,-0.0297169 0.0293778,-0.027279 0.0316264,-0.0246367 0.0336381,-0.0218099 0.0357517,-0.0189885 0.037273,-0.0157947 0.0385096,-0.0124802 0.0394522,-0.00907043 0.0400934,-0.00559138 0.0404285,-0.00206963 0.0404548,0.00146792 0.0401722,0.00499427 0.0395828,0.00848247 0.0386911,0.0119059 0.0375039,0.0152384 0.0360302,0.0184545 0.0342815,0.0215297 0.0322709,0.0244405 0.0300139,0.0271646 0.0275276,0.0296813 0.0248312,0.0319713 0.0219451,0.0340171 0.0188914,0.0358031 0.0156934,0.0373157 0.0123756,0.0385434 0.00896327,0.0394767 0.00548249,0.0401085 0.00109133,0.014185 0.00065521,0.0142118 0.000218472,0.0142253 -0.00179924,0.0407883 -0.00538374,0.0404715 -0.00892643,0.0398402 -0.0123998,0.0388995 -0.0157768,0.0376566 -0.0190312,0.0361211 -0.0221379,0.0343051 -0.0250725,0.0322226 -0.0278124,0.0298897 -0.0303362,0.0273247 -0.0326244,0.0245474 -0.0346591,0.0215794 -0.0364246,0.0184438 -0.0379071,0.0151649 -0.0384343,0.0116001 -0.0392943,0.00822872 -0.0398592,0.00479551 -0.0401248,0.00132627 -0.0400889,-0.00215293 -0.0397519,-0.00561596 -0.0391164,-0.0090368 -0.038187,-0.0123898 -0.0369708,-0.0156497 -0.035477,-0.018792 -0.0337166,-0.0217933 -0.031703,-0.0246308 -0.0294513,-0.0272833 -0.0269783,-0.0297309 -0.0243028,-0.0319551 -0.0214446,-0.0339394 -0.0184254,-0.0356687 -0.0152679,-0.0371302 -0.0119956,-0.0383127 -0.00863322,-0.0392074 -0.00520601,-0.0398077 -0.00173969,-0.040109 z "/>
<path fill="rgb(42,41,42)" stroke="rgb(42,41,42)" d="M 0.508116,6.25089 l 0,5.48553 0.000998892,0.0228784 0.00298907,0.0227043 0.00495651,0.0223574 0.00688622,0.0218403 0.00876352,0.021157 0.0105741,0.0203127 0.0123043,0.0193138 0.0139407,0.0181679 0.0154711,0.0168838 0.0168838,0.0154711 0.0181679,0.0139407 0.0193138,0.0123043 0.0203127,0.0105741 0.021157,0.00876352 0.0218403,0.00688622 0.0223574,0.00495651 0.0227043,0.00298907 0.0228784,0.000998892 8.47818,8.88178e-15 0.0228784,-0.000998892 0.0227043,-0.00298907 0.0223574,-0.00495651 0.0218403,-0.00688622 0.021157,-0.00876352 0.0203127,-0.0105741 0.0193138,-0.0123043 0.0181679,-0.0139407 0.0168838,-0.0154711 0.0154711,-0.0168838 0.0139407,-0.0181679 0.0123043,-0.0193138 0.0105741,-0.0203127 0.00876352,-0.021157 0.00688622,-0.0218403 0.00495651,-0.0223574 0.00298907,-0.0227043 0.000998892,-0.0228784 1.77636e-15,-5.48553 0.2625,-8.88178e-16 -1.77636e-15,5.48553 -0.00199778,0.0457568 -0.00597815,0.0454085 -0.00991301,0.0447147 -0.0137724,0.0436806 -0.017527,0.042314 -0.0211483,0.0406254 -0.0246085,0.0386276 -0.0278815,0.0363359 -0.0309423,0.0337676 -0.0337676,0.0309423 -0.0363359,0.0278815 -0.0386276,0.0246085 -0.0406254,0.0211483 -0.042314,0.017527 -0.0436806,0.0137724 -0.0447147,0.00991301 -0.0454085,0.00597815 -0.0457568,0.00199778 -8.47818,-1.06581e-14 -0.0457568,-0.00199778 -0.0454085,-0.00597815 -0.0447147,-0.00991301 -0.0436806,-0.0137724 -0.042314,-0.017527 -0.0406254,-0.0211483 -0.0386276,-0.0246085 -0.0363359,-0.0278815 -0.0337676,-0.0309423 -0.0309423,-0.0337676 -0.0278815,-0.0363359 -0.0246085,-0.0386276 -0.0211483,-0.0406254 -0.017527,-0.042314 -0.0137724,-0.0436806 -0.00991301,-0.0447147 -0.00597815,-0.0454085 -0.00199778,-0.0457568 0,-5.48553 0.2625,8.88178e-16 z "/>
<path fill="rgb(42,41,42)" stroke="rgb(42,41,42)" d="M 0.508116,6.25089 l -0.2625,-8.88178e-16 0,-5.49085 0.00199778,-0.0457568 0.00597815,-0.0454085 0.00991301,-0.0447147 0.0137724,-0.0436806 0.017527,-0.042314 0.0211483,-0.0406254 0.0246085,-0.0386276 0.0278815,-0.0363359 0.0309423,-0.0337676 0.0337676,-0.0309423 0.0363359,-0.0278815 0.0386276,-0.0246085 0.0406254,-0.0211483 0.042314,-0.017527 0.0436806,-0.0137724 0.0447147,-0.00991301 0.0454085,-0.00597815 0.0457568,-0.00199778 8.47818,7.99361e-15 0.0457568,0.00199778 0.0454085,0.00597815 0.0447147,0.00991301 0.0436806,0.0137724 0.042314,0.017527 0.0406254,0.0211483 0.0386276,0.0246085 0.0363359,0.0278815 0.0337676,0.0309423 0.0309423,0.0337676 0.0278815,0.0363359 0.0246085,0.0386276 0.0211483,0.0406254 0.017527,0.042314 0.0137724,0.0436806 0.00991301,0.0447147 0.00597815,0.0454085 0.00199778,0.0457568 0,5.49085 -0.2625,8.88178e-16 -1.77636e-15,-5.49085 -0.000998892,-0.0228784 -0.00298907,-0.0227043 -0.00495651,-0.0223574 -0.00688622,-0.0218403 -0.00876352,-0.021157 -0.0105741,-0.0203127 -0.0123043,-0.0193138 -0.0139407,-0.0181679 -0.0154711,-0.0168838 -0.0168838,-0.0154711 -0.0181679,-0.0139407 -0.0193138,-0.0123043 -0.0203127,-0.0105741 -0.021157,-0.00876352 -0.0218403,-0.00688622 -0.0223574,-0.00495651 -0.0227043,-0.00298907 -0.0228784,-0.000998892 -8.47818,-8.88178e-15 -0.0228784,0.000998892 -0.0227043,0.00298907 -0.0223574,0.00495651 -0.0218403,0.00688622 -0.021157,0.00876352 -0.0203127,0.0105741 -0.0193138,0.0123043 -0.0181679,0.0139407 -0.0168838,0.0154711 -0.0154711,0.0168838 -0.0139407,0.0181679 -0.0123043,0.0193138 -0.0105741,0.0203127 -0.00876352,0.021157 -0.00688622,0.0218403 -0.00495651,0.0223574 -0.00298907,0.0227043 -0.000998892,0.0228784 0,5.49085 z "/>
</g></g></svg>
