<?xml version="1.0" encoding="UTF-8" standalone="no"?>
<!DOCTYPE svg PUBLIC "-//W3C//DTD SVG 1.1//EN" "http://www.w3.org/Graphics/SVG/1.1/DTD/svg11-flat.dtd"
[

]>
<svg xmlns="http://www.w3.org/2000/svg"  viewBox="-0.09375 -0.09375 7.6875 7.6875"><g fill="none" stroke="black" stroke-width="0.0125" transform="translate(0,7.5) scale(1, -1)">
<g id="Output" >
<path fill="rgb(241,240,234)" stroke="rgb(241,240,234)" d="M 6.31199,4.76207 l 0.00973532,0.00738928 0.00905015,0.00821417 0.00829531,0.00897583 0.00747662,0.0096684 0.00660037,0.0102865 0.00567331,0.0108255 0.00470258,0.0112811 0.00369565,0.0116499 0.00266027,0.011929 0.00160441,0.0121163 0.000536198,0.0122103 -0.00053614,0.0122103 -0.00160435,0.0121163 -0.00266021,0.011929 -0.00369559,0.0116499 -0.00470253,0.0112811 -0.00567326,0.0108255 -0.00660032,0.0102866 -0.00747657,0.00966844 -0.00829527,0.00897587 -0.00905011,0.00821421 -0.00973528,0.00738932 -1.81385,1.25527 -8.17124e-14,5.68434e-14 -0.0103735,0.0065246 -0.0109059,0.00558938 -0.0113542,0.00461105 -0.011715,0.00359717 -0.0119854,0.00255554 -0.0121634,0.00149422 -0.0122475,0.000421363 -0.0122373,-0.000654738 -0.0121327,-0.00172579 -0.0119345,-0.00278353 -0.0116443,-0.00381981 -0.0112643,-0.00482664 -0.0107974,-0.00579624 -0.0102473,-0.00672115 -0.0096181,-0.00759422 -0.00891477,-0.00840874 -0.0081427,-0.00915841 -0.00730784,-0.00983745 -0.00641662,-0.0104406 -0.00547593,-0.0109633 -0.004493,-0.0114014 -0.00347543,-0.0117517 -0.00243106,-0.0120112 -0.00136794,-0.0121782 -0.000294271,-0.0122513 0.000781666,-0.0122298 0.00185158,-0.0121141 0.00290721,-0.011905 0.203976,-0.869267 -0.699806,0 -0.0127902,-5.87049e-05 -0.0127892,-0.00017611 -0.012787,-0.0002935 -0.119129,-0.0084014 -0.117972,-0.0185717 -0.115948,-0.0286056 -0.113073,-0.0384294 -0.109367,-0.0479708 -0.104857,-0.0571599 -0.0995774,-0.065929 -0.093566,-0.0742138 -0.0868673,-0.0819534 -0.0795304,-0.089091 -0.0716093,-0.0955741 -0.0631621,-0.101355 -0.0542509,-0.106391 -0.0449412,-0.110646 -0.0353013,-0.114088 -0.0254021,-0.116692 -0.0153163,-0.118439 -0.00511797,-0.119315 4.44089e-16,-2.67373 0.696678,8.88178e-16 4.44089e-16,2.67373 0.00276278,0.0621232 0.00826652,0.0616327 0.013705,0.0606556 0.0190353,0.0591995 0.0242152,0.0572761 0.029204,0.0549004 0.0339622,0.0520912 0.0384522,0.0488708 0.0426387,0.0452645 0.0464884,0.0413007 0.0499711,0.0370109 0.0530593,0.0324289 0.0557285,0.0275908 0.0579578,0.0225349 0.0597294,0.0173011 0.0610294,0.0119306 0.0618475,0.00646598 0.0128664,0.000650576 0.0128762,0.000413623 0.0128816,0.00017653 3.4639e-14,0 0.699806,0 -0.203976,-0.869267 -0.00230624,-0.0121958 -0.00123564,-0.0123503 -0.000155653,-0.0124109 0.000925515,-0.0123774 0.00199965,-0.0122498 0.0030586,-0.0120291 0.00409432,-0.0117172 0.00509895,-0.0113162 0.00606485,-0.0108293 0.00698468,-0.0102601 0.00785147,-0.00961301 0.00865862,-0.0088929 0.00940002,-0.00810526 0.01007,-0.00725605 0.0106635,-0.00635174 0.0111761,-0.00539918 0.0116037,-0.00440561 0.0119432,-0.00337859 0.012192,-0.00232591 0.0123482,-0.00125556 0.0124107,-0.00017567 0.0123788,0.00090555 0.012253,0.00197989 0.0120341,0.0030392 0.0117238,0.00407542 0.0113244,0.00508069 0.010839,0.00604737 1.81385,1.25526 z "/>
<path fill="rgb(0,91,140)" stroke="rgb(0,91,140)" d="M 3.75055,5.22285 l 0.012787,0.0002935 0.0127892,0.00017611 0.0127902,5.87049e-05 0.699806,0 -0.203976,0.869267 -0.00290721,0.011905 -0.00185158,0.0121141 -0.000781666,0.0122298 0.000294271,0.0122513 0.00136794,0.0121782 0.00243106,0.0120112 0.00347543,0.0117517 0.004493,0.0114014 0.00547593,0.0109633 0.00641662,0.0104406 0.00730784,0.00983745 0.0081427,0.00915841 0.00891477,0.00840874 0.0096181,0.00759422 0.0102473,0.00672115 0.0107974,0.00579624 0.0112643,0.00482664 0.0116443,0.00381981 0.0119345,0.00278353 0.0121327,0.00172579 0.0122373,0.000654738 0.0122475,-0.000421363 0.0121634,-0.00149422 0.0119854,-0.00255554 0.011715,-0.00359717 0.0113542,-0.00461105 0.0109059,-0.00558938 0.0103735,-0.0065246 8.17124e-14,-5.68434e-14 1.81385,-1.25527 0.00973528,-0.00738932 0.00905011,-0.00821421 0.00829527,-0.00897587 0.00747657,-0.00966844 0.00660032,-0.0102866 0.00567326,-0.0108255 0.00470253,-0.0112811 0.00369559,-0.0116499 0.00266021,-0.011929 0.00160435,-0.0121163 0.00053614,-0.0122103 -0.000536198,-0.0122103 -0.00160441,-0.0121163 -0.00266027,-0.011929 -0.00369565,-0.0116499 -0.00470258,-0.0112811 -0.00567331,-0.0108255 -0.00660037,-0.0102865 -0.00747662,-0.0096684 -0.00829531,-0.00897583 -0.00905015,-0.00821417 -0.00973532,-0.00738928 -1.81385,-1.25526 -0.010839,-0.00604737 -0.0113244,-0.00508069 -0.0117238,-0.00407542 -0.0120341,-0.0030392 -0.012253,-0.00197989 -0.0123788,-0.00090555 -0.0124107,0.00017567 -0.0123482,0.00125556 -0.012192,0.00232591 -0.0119432,0.00337859 -0.0116037,0.00440561 -0.0111761,0.00539918 -0.0106635,0.00635174 -0.01007,0.00725605 -0.00940002,0.00810526 -0.00865862,0.0088929 -0.00785147,0.00961301 -0.00698468,0.0102601 -0.00606485,0.0108293 -0.00509895,0.0113162 -0.00409432,0.0117172 -0.0030586,0.0120291 -0.00199965,0.0122498 -0.000925515,0.0123774 0.000155653,0.0124109 0.00123564,0.0123503 0.00230624,0.0121958 0.203976,0.869267 -0.699806,0 -3.4639e-14,0 -0.0128816,-0.00017653 -0.0128762,-0.000413623 -0.0128664,-0.000650576 -0.00153322,-4.1286 0.00041469,-1.28334e-07 0.00041469,-7.70006e-08 0.00041469,-2.56669e-08 0.291972,0.0127478 0.28975,0.0381463 0.285322,0.0632545 0.278724,0.0878812 0.270004,0.111839 0.259229,0.134946 0.246481,0.157026 0.231857,0.17791 0.215469,0.197441 0.197441,0.215469 0.17791,0.231857 0.157026,0.246481 0.134946,0.259229 0.111839,0.270004 0.0878812,0.278724 0.0632545,0.285322 0.0381463,0.28975 0.0127478,0.291972 -0.0114859,0.277171 -0.034379,0.27527 -0.0570363,0.271482 -0.0793025,0.265832 -0.108724,0.27574 -0.132672,0.265051 -0.155581,0.252286 -0.177272,0.237547 -0.197575,0.220948 -0.216331,0.202619 -0.233394,0.182704 -0.24863,0.161359 -0.26192,0.138751 -0.273159,0.115056 -0.28226,0.0904608 -0.289151,0.0651574 -0.293778,0.0393439 -0.296106,0.0132225 -0.000697106,-1.87715 z "/>
<path fill="rgb(0,91,140)" stroke="rgb(0,91,140)" d="M 3.75055,5.22285 l 0.000697106,1.87715 -0.286708,-0.0121846 -0.284614,-0.0366773 -0.280431,-0.0609009 -0.27419,-0.0846777 -0.265937,-0.107833 -0.255732,-0.130197 -0.243651,-0.151606 -0.229782,-0.171902 -0.214227,-0.190937 -0.1971,-0.208571 -0.185597,-0.234435 -0.163953,-0.250051 -0.141004,-0.263674 -0.116931,-0.275196 -0.0919268,-0.284527 -0.0661902,-0.29159 -0.0399262,-0.296331 -0.0133442,-0.29871 0.0127417,-0.291903 0.0381283,-0.289682 0.0632248,-0.285258 0.0878404,-0.278664 0.111788,-0.26995 0.134885,-0.259183 0.156956,-0.246444 0.177833,-0.23183 0.197357,-0.215453 0.21538,-0.197437 0.231764,-0.177919 0.246386,-0.157047 0.259133,-0.134981 0.269909,-0.111888 0.278632,-0.0879438 0.285235,-0.0633307 0.289668,-0.0382359 0.291898,-0.0128501 0.00153322,4.1286 -0.0618475,-0.00646598 -0.0610294,-0.0119306 -0.0597294,-0.0173011 -0.0579578,-0.0225349 -0.0557285,-0.0275908 -0.0530593,-0.0324289 -0.0499711,-0.0370109 -0.0464884,-0.0413007 -0.0426387,-0.0452645 -0.0384522,-0.0488708 -0.0339622,-0.0520912 -0.029204,-0.0549004 -0.0242152,-0.0572761 -0.0190353,-0.0591995 -0.013705,-0.0606556 -0.00826652,-0.0616327 -0.00276278,-0.0621232 -4.44089e-16,-2.67373 -0.696678,-8.88178e-16 -4.44089e-16,2.67373 0.00511797,0.119315 0.0153163,0.118439 0.0254021,0.116692 0.0353013,0.114088 0.0449412,0.110646 0.0542509,0.106391 0.0631621,0.101355 0.0716093,0.0955741 0.0795304,0.089091 0.0868673,0.0819534 0.093566,0.0742138 0.0995774,0.065929 0.104857,0.0571599 0.109367,0.0479708 0.113073,0.0384294 0.115948,0.0286056 0.117972,0.0185717 0.119129,0.0084014 z "/>
<path fill="rgb(0,91,140)" stroke="rgb(0,91,140)" d="M 1.06776,6.07553 l -0.151112,0.131016 -0.207757,-0.262428 -0.18353,-0.279907 -0.15784,-0.295157 -0.130893,-0.308056 -0.102903,-0.3185 -0.0740935,-0.326407 -0.0446935,-0.331713 -0.0149375,-0.334377 0.0142699,-0.326834 0.042701,-0.324347 0.0708072,-0.319391 0.0983745,-0.312004 0.125193,-0.302243 0.151059,-0.290182 0.175775,-0.275912 0.199154,-0.259542 0.221016,-0.241197 0.241197,-0.221016 0.259542,-0.199154 0.275912,-0.175775 0.290182,-0.151059 0.302243,-0.125193 0.312004,-0.0983745 0.319391,-0.0708072 0.324347,-0.042701 0.326834,-0.0142699 0,0.2 -0.309403,0.0135088 -0.307048,0.0404237 -0.302357,0.0670308 -0.295364,0.0931279 -0.286123,0.118516 -0.274705,0.143002 -0.261196,0.1664 -0.2457,0.188532 -0.228333,0.209229 -0.209229,0.228333 -0.188532,0.2457 -0.1664,0.261196 -0.143002,0.274705 -0.118516,0.286123 -0.0931279,0.295364 -0.0670308,0.302357 -0.0404237,0.307048 -0.0135088,0.309403 0.0141408,0.316544 0.0423099,0.314022 0.0701418,0.308999 0.097415,0.301513 0.123912,0.291626 0.149422,0.279416 0.173742,0.264979 0.196677,0.248431 z "/>
<path fill="rgb(0,91,140)" stroke="rgb(0,91,140)" d="M 7.5,3.75 l -0.0128574,0.310266 -0.0384839,0.308138 -0.0638466,0.303898 -0.0887715,0.297573 -0.189122,-0.06506 0.084037,-0.281703 0.0604415,-0.28769 0.0364315,-0.291704 0.0121716,-0.293718 -0.0135088,-0.309403 -0.0404237,-0.307048 -0.0670308,-0.302357 -0.0931279,-0.295364 -0.118516,-0.286123 -0.143002,-0.274705 -0.1664,-0.261196 -0.188532,-0.2457 -0.209229,-0.228333 -0.228333,-0.209229 -0.2457,-0.188532 -0.261196,-0.1664 -0.274705,-0.143002 -0.286123,-0.118516 -0.295364,-0.0931279 -0.302357,-0.0670308 -0.307048,-0.0404237 -0.309403,-0.0135088 0,-0.2 0.326834,0.0142699 0.324347,0.042701 0.319391,0.0708072 0.312004,0.0983745 0.302243,0.125193 0.290182,0.151059 0.275912,0.175775 0.259542,0.199154 0.241197,0.221016 0.221016,0.241197 0.199154,0.259542 0.175775,0.275912 0.151059,0.290182 0.125193,0.302243 0.0983745,0.312004 0.0708072,0.319391 0.042701,0.324347 0.0142699,0.326834 z "/>
<path fill="rgb(0,91,140)" stroke="rgb(0,91,140)" d="M 1.06776,6.07553 l 0.213058,0.225086 0.231878,0.205645 0.248931,0.184636 0.264087,0.162221 0.27723,0.138568 0.288259,0.11386 0.297092,0.0882837 0.30366,0.0620345 0.307913,0.0353125 0.30982,0.00832127 0.309365,-0.0187333 0.306552,-0.0456452 0.301402,-0.0722091 0.293955,-0.0982226 0.284268,-0.123487 0.272414,-0.147811 0.258483,-0.171008 0.242583,-0.192902 0.224833,-0.213325 0.20537,-0.232122 0.184341,-0.24915 0.161907,-0.264279 0.138239,-0.277394 0.113518,-0.288394 0.189122,0.06506 -0.119913,0.304642 -0.146028,0.293022 -0.171029,0.279168 -0.194726,0.263187 -0.21694,0.245199 -0.2375,0.225343 -0.256249,0.203769 -0.273046,0.180642 -0.287761,0.156138 -0.300283,0.130445 -0.310516,0.103756 -0.318383,0.0762772 -0.323822,0.0482167 -0.326794,0.0197887 -0.327274,-0.00879008 -0.32526,-0.0373019 -0.320767,-0.0655294 -0.313829,-0.0932574 -0.304499,-0.120275 -0.292848,-0.146375 -0.278965,-0.17136 -0.262956,-0.195039 -0.244942,-0.217231 -0.225061,-0.237767 0.151112,-0.131016 z "/>
<path fill="rgb(241,240,234)" stroke="rgb(241,240,234)" d="M 7.10692,4.90482 l -0.189122,-0.06506 0.0793025,-0.265832 0.0570363,-0.271482 0.034379,-0.27527 0.0114859,-0.277171 -0.0127478,-0.291972 -0.0381463,-0.28975 -0.0632545,-0.285322 -0.0878812,-0.278724 -0.111839,-0.270004 -0.134946,-0.259229 -0.157026,-0.246481 -0.17791,-0.231857 -0.197441,-0.215469 -0.215469,-0.197441 -0.231857,-0.17791 -0.246481,-0.157026 -0.259229,-0.134946 -0.270004,-0.111839 -0.278724,-0.0878812 -0.285322,-0.0632545 -0.28975,-0.0381463 -0.291972,-0.0127478 0,-0.2 0.309403,0.0135088 0.307048,0.0404237 0.302357,0.0670308 0.295364,0.0931279 0.286123,0.118516 0.274705,0.143002 0.261196,0.1664 0.2457,0.188532 0.228333,0.209229 0.209229,0.228333 0.188532,0.2457 0.1664,0.261196 0.143002,0.274705 0.118516,0.286123 0.0931279,0.295364 0.0670308,0.302357 0.0404237,0.307048 0.0135088,0.309403 -0.0121716,0.293718 -0.0364315,0.291704 -0.0604415,0.28769 -0.084037,0.281703 z "/>
<path fill="rgb(241,240,234)" stroke="rgb(241,240,234)" d="M 1.06776,6.07553 l -0.196677,-0.248431 -0.173742,-0.264979 -0.149422,-0.279416 -0.123912,-0.291626 -0.097415,-0.301513 -0.0701418,-0.308999 -0.0423099,-0.314022 -0.0141408,-0.316544 0.0135088,-0.309403 0.0404237,-0.307048 0.0670308,-0.302357 0.0931279,-0.295364 0.118516,-0.286123 0.143002,-0.274705 0.1664,-0.261196 0.188532,-0.2457 0.209229,-0.228333 0.228333,-0.209229 0.2457,-0.188532 0.261196,-0.1664 0.274705,-0.143002 0.286123,-0.118516 0.295364,-0.0931279 0.302357,-0.0670308 0.307048,-0.0404237 0.309403,-0.0135088 0,0.2 -0.00041469,2.56669e-08 -0.00041469,7.70006e-08 -0.00041469,1.28334e-07 -0.291898,0.0128501 -0.289668,0.0382359 -0.285235,0.0633307 -0.278632,0.0879438 -0.269909,0.111888 -0.259133,0.134981 -0.246386,0.157047 -0.231764,0.177919 -0.21538,0.197437 -0.197357,0.215453 -0.177833,0.23183 -0.156956,0.246444 -0.134885,0.259183 -0.111788,0.26995 -0.0878404,0.278664 -0.0632248,0.285258 -0.0381283,0.289682 -0.0127417,0.291903 0.0133442,0.29871 0.0399262,0.296331 0.0661902,0.29159 0.0919268,0.284527 0.116931,0.275196 0.141004,0.263674 0.163953,0.250051 0.185597,0.234435 -0.151112,0.131016 z "/>
<path fill="rgb(241,240,234)" stroke="rgb(241,240,234)" d="M 3.75124,7.1 l 0.296106,-0.0132225 0.293778,-0.0393439 0.289151,-0.0651574 0.28226,-0.0904608 0.273159,-0.115056 0.26192,-0.138751 0.24863,-0.161359 0.233394,-0.182704 0.216331,-0.202619 0.197575,-0.220948 0.177272,-0.237547 0.155581,-0.252286 0.132672,-0.265051 0.108724,-0.27574 0.189122,0.06506 -0.113518,0.288394 -0.138239,0.277394 -0.161907,0.264279 -0.184341,0.24915 -0.20537,0.232122 -0.224833,0.213325 -0.242583,0.192902 -0.258483,0.171008 -0.272414,0.147811 -0.284268,0.123487 -0.293955,0.0982226 -0.301402,0.0722091 -0.306552,0.0456452 -0.309365,0.0187333 -0.30982,-0.00832127 -0.307913,-0.0353125 -0.30366,-0.0620345 -0.297092,-0.0882837 -0.288259,-0.11386 -0.27723,-0.138568 -0.264087,-0.162221 -0.248931,-0.184636 -0.231878,-0.205645 -0.213058,-0.225086 0.151112,-0.131016 0.1971,0.208571 0.214227,0.190937 0.229782,0.171902 0.243651,0.151606 0.255732,0.130197 0.265937,0.107833 0.27419,0.0846777 0.280431,0.0609009 0.284614,0.0366773 0.286708,0.0121846 z "/>
</g></g></svg>
