<?xml version="1.0" encoding="UTF-8" standalone="no"?>
<!DOCTYPE svg PUBLIC "-//W3C//DTD SVG 1.1//EN" "http://www.w3.org/Graphics/SVG/1.1/DTD/svg11-flat.dtd"
[

]>
<svg xmlns="http://www.w3.org/2000/svg"  viewBox="-0.09375 -0.09375 7.6875 6.04074"><g fill="none" stroke="black" stroke-width="0.0125" transform="translate(0,5.85324) scale(1, -1)">
<g id="Output" >
<path fill="rgb(241,240,234)" stroke="rgb(241,240,234)" d="M 5.41683,2.96115 l -0.72724,0.316786 -0.649159,-0.282774 0,-0.25302 0.436813,-0.190275 0.939587,0.409284 z "/>
<path fill="rgb(241,240,234)" stroke="rgb(241,240,234)" d="M 5.41683,2.96115 l 0.0761181,-0.033157 0.231968,0.532526 -0.308086,0.134202 -0.939587,0.409284 -0.436813,0.190275 -0.580855,0.25302 -1.45252,0.632716 -0.231968,-0.532526 1.24767,-0.543486 0.436813,-0.190275 0.580855,-0.25302 0.649159,-0.282774 0.72724,-0.316786 z "/>
<path fill="rgb(241,240,234)" stroke="rgb(241,240,234)" d="M 5.72491,4.54749 l -0.231968,0.532526 -1.45252,-0.632716 0,-0.25302 0.436813,-0.190275 1.24767,0.543486 z "/>
<path fill="rgb(241,240,234)" stroke="rgb(241,240,234)" d="M 3.45957,3.81373 l 0,-0.25302 0,-0.565547 0.580855,-0.25302 0,0.25302 0,0.565547 -0.580855,0.25302 z "/>
<path fill="rgb(241,240,234)" stroke="rgb(241,240,234)" d="M 3.45957,3.81373 l -0.436813,0.190275 -0.939587,-0.409284 0.72724,-0.316786 0.649159,0.282774 0,0.25302 z "/>
<path fill="rgb(241,240,234)" stroke="rgb(241,240,234)" d="M 3.45957,2.36159 l -0.436813,0.190275 -1.24767,-0.543486 0.231968,-0.532526 1.45252,0.632716 0,0.25302 z "/>
<path fill="rgb(241,240,234)" stroke="rgb(241,240,234)" d="M 3.45957,2.36159 l 0,-0.25302 0,-0.260779 0.552969,0.272926 -0.552969,0.240873 z "/>
<path fill="rgb(241,240,234)" stroke="rgb(241,240,234)" d="M 4.04043,0.290433 l -0.580855,-0.28669 0,-0.00374263 0.580855,2.22045e-15 0,0.290433 z "/>
<path fill="rgb(241,240,234)" stroke="rgb(241,240,234)" d="M 5.72491,2.00838 l -1.24767,0.543486 -0.436813,0.190275 -0.580855,0.25302 -0.649159,0.282774 -0.72724,0.316786 -0.0761181,0.033157 -0.231968,-0.532526 0.308086,-0.134202 0.939587,-0.409284 0.436813,-0.190275 0.552969,-0.240873 0.0278864,-0.0121473 1.45252,-0.632716 0.231968,0.532526 z "/>
<path fill="rgb(187,30,16)" stroke="rgb(187,30,16)" d="M 5.72491,3.46052 l -0.231968,-0.532526 1.77509,-0.773227 0.204738,0.227602 0.0272297,0.304924 -1.35593,0.590644 -0.419154,0.182583 z "/>
<path fill="rgb(187,30,16)" stroke="rgb(187,30,16)" d="M 5.72491,3.46052 l 0.419154,-0.182583 1.35593,0.590644 -0.0272297,0.304924 -0.204738,0.227602 -1.8512,-0.806384 0.308086,-0.134202 z "/>
<path fill="rgb(187,30,16)" stroke="rgb(187,30,16)" d="M 5.72491,4.54749 l 1.77509,0.773227 -0.0272297,0.304924 -0.204738,0.227602 -1.77509,-0.773227 0.231968,-0.532526 z "/>
<path fill="rgb(187,30,16)" stroke="rgb(187,30,16)" d="M 4.04043,5.13089 l -0.580855,-1.77636e-15 8.88178e-16,-0.683589 0.580855,-0.25302 0,0.25302 0,0.683589 z "/>
<path fill="rgb(187,30,16)" stroke="rgb(187,30,16)" d="M 2.00705,5.08002 l -1.77509,0.773227 -0.204738,-0.227602 -0.0272297,-0.304924 1.77509,-0.773227 0.231968,0.532526 z "/>
<path fill="rgb(187,30,16)" stroke="rgb(187,30,16)" d="M 2.00705,3.62788 l -1.77509,0.773227 -0.204738,-0.227602 -0.0272297,-0.304924 1.35593,-0.590644 0.419154,-0.182583 0.231968,0.532526 z "/>
<path fill="rgb(187,30,16)" stroke="rgb(187,30,16)" d="M 1.35593,3.27794 l -1.35593,-0.590644 0.0272297,-0.304924 0.204738,-0.227602 1.8512,0.806384 -0.308086,0.134202 -0.419154,0.182583 z "/>
<path fill="rgb(187,30,16)" stroke="rgb(187,30,16)" d="M 1.77509,2.00838 l -1.77509,-0.773227 0.0272297,-0.304924 0.204738,-0.227602 1.77509,0.773227 -0.231968,0.532526 z "/>
<path fill="rgb(187,30,16)" stroke="rgb(187,30,16)" d="M 4.04043,2.10857 l -0.0278864,0.0121473 -0.552969,-0.272926 0,-1.84405 0.580855,0.28669 0,1.81814 z "/>
<path fill="rgb(187,30,16)" stroke="rgb(187,30,16)" d="M 5.72491,2.00838 l -0.231968,-0.532526 1.77509,-0.773227 0.204738,0.227602 0.0272297,0.304924 -1.77509,0.773227 z "/>
</g></g></svg>
