<?xml version="1.0" encoding="UTF-8" standalone="no"?>
<!DOCTYPE svg PUBLIC "-//W3C//DTD SVG 1.1//EN" "http://www.w3.org/Graphics/SVG/1.1/DTD/svg11-flat.dtd"
[

]>
<svg xmlns="http://www.w3.org/2000/svg"  viewBox="-0.125044 -0.125044 10.2536 12.7519"><g fill="none" stroke="black" stroke-width="0.0125" transform="translate(0,12.5018) scale(1, -1)">
<g id="Output" >
<path fill="rgb(241,240,234)" stroke="rgb(241,240,234)" d="M 5.48212,6.63971 l -0.117044,-0.146274 0.0226855,-0.0338507 0.0753258,0.0298098 0.0753258,0.0298098 -0.0562931,0.120505 z "/>
<path fill="rgb(241,240,234)" stroke="rgb(241,240,234)" d="M 5.23261,7.17383 l -0.176056,-0.220024 0.154259,-0.230181 0.14655,0.183149 -0.124753,0.267056 z "/>
<path fill="rgb(241,240,234)" stroke="rgb(241,240,234)" d="M 3.62132,5.16013 l -0.0873654,-0.532147 0.628997,0.78608 0.139016,0.421019 0.0578,-0.175051 0.439573,0.54935 -0.0548928,0.341213 0.000771941,0.0141139 -1.1239,-1.40458 z "/>
<path fill="rgb(241,240,234)" stroke="rgb(241,240,234)" d="M 5.18064,3.8392 l -0.211342,1.3137 -0.312947,-0.391101 0.304633,-0.922599 0.219657,-4.44089e-16 z "/>
<path fill="rgb(241,240,234)" stroke="rgb(241,240,234)" d="M 4.13564,8.10085 l -0.0456698,-0.00202303 -0.045312,-0.00605323 -0.0445993,-0.010036 -0.0435372,-0.0139402 -0.0421341,-0.0177351 -0.0404009,-0.0213912 -0.0383513,-0.0248797 -0.0360012,-0.0281732 -0.0333691,-0.0312461 -0.0304756,-0.0340743 -0.0273434,-0.0366355 -0.023997,-0.0389097 -0.0204626,-0.0408791 -0.016768,-0.0425283 -0.0129419,-0.0438443 -1.74024e-06,-7.0274e-06 -0.000251082,-0.00101838 -0.000249014,-0.00101888 -0.000246944,-0.00101939 -0.32951,-1.33058 0.147498,-0.0282456 0.392271,1.00735 0.00941094,-0.781401 -0.14452,-0.88028 1.06137,1.32643 0.0183363,0.335255 0.113913,-0.169978 0.205562,0.256898 -0.193954,0.415192 -0.0172852,0.0331177 -0.0201303,0.0314695 -0.0228195,0.0295775 -0.0253319,0.0274564 -0.027648,0.0251226 -0.02975,0.0225942 -0.0316214,0.0198908 -0.033248,0.0170332 -0.0346169,0.0140437 -0.0357177,0.0109455 -0.0365418,0.00776239 -0.0370828,0.00451918 -0.0373366,0.00124096 -0.194565,0 -0.194565,0 z "/>
<path fill="rgb(241,240,234)" stroke="rgb(241,240,234)" d="M 3.57967,3.8392 l 0.10772,0.134621 0.237777,0.720122 -0.478585,-0.598105 -0.0421336,-0.256638 0.175222,0 z "/>
<path fill="rgb(241,240,234)" stroke="rgb(241,240,234)" d="M 4.55749,5.06121 l 0.355156,0.443851 -0.0566541,0.352161 -0.397364,-0.4966 0.0988627,-0.299412 z "/>
<path fill="rgb(241,240,234)" stroke="rgb(241,240,234)" d="M 6.63217,6.43605 l -0.00100839,0.0235163 -0.00301778,0.0233437 -0.00500501,0.0229997 -0.00695549,0.0224868 -0.00885491,0.0218088 -0.0106893,0.0209708 -0.0124453,0.0199788 -0.0141098,0.0188401 -0.0156708,0.017563 -0.0171168,0.0161571 -0.0189169,0.0149802 -0.0201585,0.0132624 -0.0212445,0.0114422 -0.0221667,0.00953384 -0.0229178,0.00755188 -0.0234921,0.00551165 -0.0238851,0.0034289 -0.0240939,0.00131969 -0.0241167,-0.000799699 -0.0239535,-0.00291292 -0.0236055,-0.00500367 -0.0230753,-0.00705581 -0.0223672,-0.00905351 -0.0214864,-0.0109814 -0.0204399,-0.0128245 -0.0192356,-0.0145687 -0.017883,-0.0162004 -0.0163924,-0.0177072 -0.0147753,-0.0190774 -0.0130442,-0.0203004 -0.0112125,-0.0213667 -0.00929422,-0.0222682 -0.00730427,-0.0229979 -0.00525797,-0.0235501 -0.00317109,-0.0239207 -0.00105976,-0.0241067 0.0011063,-0.0246294 0.00331,-0.024431 0.00548704,-0.0240359 0.00761989,-0.0234471 0.00969136,-0.0226695 0.0116848,-0.0217094 0.0135841,-0.0205743 0.015374,-0.0192736 0.01704,-0.0178176 0.0185689,-0.0162181 0.0199481,-0.014488 0.0211667,-0.0126412 0.0222148,-0.0106926 0.023084,-0.00865786 0.0237673,-0.00655339 0.0242591,-0.00439614 0.0233161,-0.00214534 0.0234141,-0.000152056 0.023342,0.00184234 0.0231003,0.00382334 0.0226908,0.00577658 0.0221165,0.00768785 0.0213815,0.00954326 0.0204911,0.0113294 0.019452,0.0130331 0.0182714,0.0146422 0.0169582,0.016145 0.0155218,0.0175304 0.0139726,0.0187885 0.0123219,0.0199101 0.0105817,0.0208871 0.00876457,0.0217123 0.00688381,0.0223798 0.00495304,0.0228847 0.00298629,0.0232233 0.000997848,0.0233933 z "/>
<path fill="rgb(241,240,234)" stroke="rgb(241,240,234)" d="M 5.60552,6.37097 l -0.0482886,0.0478193 -0.0564912,-0.0235401 -0.0564912,-0.0235401 0.0740751,-0.109711 0.0871958,0.108972 z "/>
<path fill="rgb(241,240,234)" stroke="rgb(241,240,234)" d="M 6.82818,3.96789 l 0.185154,0.0721718 -0.517793,1.23016 0.112982,0.370308 0.439339,-0.373449 0.0909937,0.0909937 -0.627634,0.665303 -0.0157006,0.0152134 -0.0170012,0.0137445 -0.018165,0.012165 -0.0191824,0.0104876 -0.0200454,0.00872564 -0.0207469,0.00689344 -0.0212814,0.00500572 -0.0216444,0.00307769 -0.0456098,0 -0.431373,0 -0.0861306,0.0852936 -0.121132,-0.151383 0.103704,-0.153593 0.235363,-0.0596069 0.00625693,-0.517793 -0.260467,-1.46241 0.172615,-4.44089e-16 0.382848,1.04504 0.514652,-0.916347 z "/>
<path fill="rgb(241,240,234)" stroke="rgb(241,240,234)" d="M 4.7366,8.56373 l -0.0014744,0.0334986 -0.00441181,0.0332396 -0.0073151,0.0327234 -0.0101618,0.0319542 -0.0129299,0.0309378 -0.0155981,0.0296822 -0.0181455,0.028197 -0.0205527,0.0264938 -0.0228009,0.0245856 -0.0248728,0.0224873 -0.0267523,0.0202151 -0.0284249,0.0177865 -0.0298776,0.0152204 -0.0310993,0.0125366 -0.0320805,0.00975578 -0.0328135,0.00689954 -0.0332928,0.00398994 -0.0335146,0.00104949 -0.0334772,-0.00189909 -0.0331809,-0.00483297 -0.032628,-0.00772948 -0.0318228,-0.0105662 -0.0307714,-0.0133212 -0.029482,-0.0159732 -0.0279646,-0.0185017 -0.026231,-0.020887 -0.0236229,-0.022415 -0.0216241,-0.024349 -0.0194675,-0.0261054 -0.0171689,-0.0276714 -0.014745,-0.0290355 -0.0122136,-0.0301878 -0.00959314,-0.0311199 -0.00690267,-0.031825 -0.00416185,-0.0322979 -0.00139066,-0.0325352 0.00151629,-0.0339702 0.00453681,-0.0337 0.00752125,-0.0331618 0.0104459,-0.0323598 0.0132874,-0.0313004 0.0160232,-0.0299921 0.0186316,-0.0284453 0.0210919,-0.0266722 0.0233843,-0.024687 0.0254908,-0.0225054 0.0273945,-0.0201448 0.0290804,-0.017624 0.0305349,-0.014963 0.0317466,-0.012183 0.0327058,-0.00930611 0.0334048,-0.0063552 0.0338382,-0.00335374 0.0325973,-0.000372263 0.0325099,0.00241359 0.0321849,0.0051818 0.0316247,0.00791212 0.0308332,0.0105846 0.0298164,0.0131797 0.0285816,0.0156785 0.0271378,0.0180627 0.0254957,0.0203148 0.0236672,0.0224184 0.0216657,0.0243581 0.0195058,0.0261198 0.0172033,0.0276905 0.0147751,0.0290589 0.0122389,0.0302147 0.00961317,0.0311498 0.00691719,0.0318571 0.00417064,0.0323315 0.00139361,0.0325696 z "/>
<path fill="rgb(142,146,145)" stroke="rgb(142,146,145)" d="M 7.38956,8.60056 l -0.0628162,0.0621733 -0.0644345,0.0604945 -0.066008,0.0587737 -1.71419,-2.14228 0.0562931,-0.120505 -0.0753258,-0.0298098 0.0376565,-0.0941477 0.0564912,0.0235401 0.0482886,-0.0478193 1.78404,2.22958 z "/>
<path fill="rgb(142,146,145)" stroke="rgb(142,146,145)" d="M 3.68642,9.33186 l 0.418499,-0.480588 0.026231,0.020887 0.0279646,0.0185017 0.029482,0.0159732 0.0307714,0.0133212 0.0318228,0.0105662 0.032628,0.00772948 0.0331809,0.00483297 0.0334772,0.00189909 0.0335146,-0.00104949 0.0332928,-0.00398994 0.0328135,-0.00689954 0.0320805,-0.00975578 0.0310993,-0.0125366 0.0298776,-0.0152204 0.0284249,-0.0177865 0.0267523,-0.0202151 0.0248728,-0.0224873 0.0228009,-0.0245856 0.0205527,-0.0264938 0.0181455,-0.028197 0.0155981,-0.0296822 0.0129299,-0.0309378 0.0101618,-0.0319542 0.0073151,-0.0327234 0.00441181,-0.0332396 0.0014744,-0.0334986 -0.00139361,-0.0325696 -0.00417064,-0.0323315 -0.00691719,-0.0318571 -0.00961317,-0.0311498 -0.0122389,-0.0302147 -0.0147751,-0.0290589 -0.0172033,-0.0276905 -0.0195058,-0.0261198 -0.0216657,-0.0243581 -0.0236672,-0.0224184 -0.0254957,-0.0203148 -0.0271378,-0.0180627 -0.0285816,-0.0156785 -0.0298164,-0.0131797 -0.0308332,-0.0105846 -0.0316247,-0.00791212 -0.0321849,-0.0051818 -0.0325099,-0.00241359 -0.0325973,0.000372263 -0.0044557,-0.082155 0.194565,0 0.0373366,-0.00124096 0.0370828,-0.00451918 0.0365418,-0.00776239 0.0357177,-0.0109455 0.0346169,-0.0140437 0.033248,-0.0170332 0.0316214,-0.0198908 0.02975,-0.0225942 0.027648,-0.0251226 0.0253319,-0.0274564 0.0228195,-0.0295775 0.0201303,-0.0314695 0.0172852,-0.0331177 0.193954,-0.415192 1.42997,1.78709 -0.267539,0.123459 -0.277352,0.0994724 -0.28502,0.0747166 -0.290483,0.0493828 -0.293699,0.023667 -0.294642,-0.0022319 -0.293306,-0.0281136 -0.289701,-0.0537777 -0.283855,-0.0790258 -0.275813,-0.103663 z "/>
<path fill="rgb(142,146,145)" stroke="rgb(142,146,145)" d="M 6.77056,9.09586 l -1.53795,-1.92204 0.124753,-0.267056 1.63261,2.04033 -0.0718191,0.0515113 -0.073153,0.0495987 -0.074436,0.0476517 z "/>
<path fill="rgb(142,146,145)" stroke="rgb(142,146,145)" d="M 7.5695,8.40246 l -1.77516,-2.21848 0.0861306,-0.0852936 0.431373,0 0.00880433,0.0651221 -0.0242591,0.00439614 -0.0237673,0.00655339 -0.023084,0.00865786 -0.0222148,0.0106926 -0.0211667,0.0126412 -0.0199481,0.014488 -0.0185689,0.0162181 -0.01704,0.0178176 -0.015374,0.0192736 -0.0135841,0.0205743 -0.0116848,0.0217094 -0.00969136,0.0226695 -0.00761989,0.0234471 -0.00548704,0.0240359 -0.00331,0.024431 -0.0011063,0.0246294 0.00105976,0.0241067 0.00317109,0.0239207 0.00525797,0.0235501 0.00730427,0.0229979 0.00929422,0.0222682 0.0112125,0.0213667 0.0130442,0.0203004 0.0147753,0.0190774 0.0163924,0.0177072 0.017883,0.0162004 0.0192356,0.0145687 0.0204399,0.0128245 0.0214864,0.0109814 0.0223672,0.00905351 0.0230753,0.00705581 0.0236055,0.00500367 0.0239535,0.00291292 0.0241167,0.000799699 0.0240939,-0.00131969 0.0238851,-0.0034289 0.0234921,-0.00551165 0.0229178,-0.00755188 0.0221667,-0.00953384 0.0212445,-0.0114422 0.0201585,-0.0132624 0.0189169,-0.0149802 1.25931,1.45417 -0.0718434,0.104366 -0.0757386,0.101575 -0.0795255,0.0986379 z "/>
<path fill="rgb(142,146,145)" stroke="rgb(142,146,145)" d="M 4.91264,5.50506 l 0.60568,0.75694 -0.0740751,0.109711 0.0564912,0.0235401 -0.0376565,0.0941477 -0.0753258,-0.0298098 -0.0226855,0.0338507 -0.509082,-0.636218 0.0566541,-0.352161 z "/>
<path fill="rgb(142,146,145)" stroke="rgb(142,146,145)" d="M 4.77005,7.01871 l 0.13225,0.165277 -0.113913,0.169978 -0.0183363,-0.335255 z "/>
<path fill="rgb(142,146,145)" stroke="rgb(142,146,145)" d="M 4.74521,6.56471 l -0.000771941,-0.0141139 0.0548928,-0.341213 0.411477,0.514238 -0.154259,0.230181 -0.311339,-0.389092 z "/>
<path fill="rgb(142,146,145)" stroke="rgb(142,146,145)" d="M 3.63428,7.70849 l 1.74024e-06,7.0274e-06 -5.80091e-07,-2.34246e-06 -5.8008e-07,-2.34247e-06 -5.80069e-07,-2.34247e-06 z "/>
<path fill="rgb(142,146,145)" stroke="rgb(142,146,145)" d="M 3.23297,3.40592 l 0.346699,0.433282 -0.175222,0 0.0421336,0.256638 -0.433018,-0.541158 0.0718191,-0.0515113 0.073153,-0.0495987 0.074436,-0.0476517 z "/>
<path fill="rgb(142,146,145)" stroke="rgb(142,146,145)" d="M 2.61397,3.90122 l 0.0628162,-0.0621733 0.0644345,-0.0604945 0.066008,-0.0587737 0.726717,0.908204 0.0873654,0.532147 -1.00734,-1.25891 z "/>
<path fill="rgb(142,146,145)" stroke="rgb(142,146,145)" d="M 4.16295,5.41407 l 0.196816,0.245968 -0.0578,0.175051 -0.139016,-0.421019 z "/>
<path fill="rgb(142,146,145)" stroke="rgb(142,146,145)" d="M 4.55749,5.06121 l -0.0988627,0.299412 -0.533456,-0.666679 -0.237777,-0.720122 0.870096,1.08739 z "/>
<path fill="rgb(142,146,145)" stroke="rgb(142,146,145)" d="M 6.82818,3.96789 l -0.514652,0.916347 -0.382848,-1.04504 -0.172615,4.44089e-16 0.260467,1.46241 -0.00625693,0.517793 -0.235363,0.0596069 -0.103704,0.153593 -0.703912,-0.879703 0.211342,-1.3137 -0.219657,4.44089e-16 -0.304633,0.922599 -1.19064,-1.48799 0.290155,-0.132616 0.301454,-0.104414 0.310019,-0.0752651 0.315773,-0.0454338 0.318663,-0.0151905 0.291972,0.0127478 0.28975,0.0381463 0.285322,0.0632545 0.278724,0.0878812 0.270004,0.111839 0.259229,0.134946 0.246481,0.157026 0.231857,0.17791 0.215469,0.197441 0.197441,0.215469 0.17791,0.231857 0.157026,0.246481 0.134946,0.259229 0.111839,0.270004 0.0878812,0.278724 0.0632545,0.285322 0.0381463,0.28975 0.0127478,0.291972 -0.0114859,0.277171 -0.034379,0.27527 -0.0570363,0.271482 -0.0793025,0.265832 -0.102891,0.262596 -0.124614,0.253011 -0.145455,0.241632 -1.25931,-1.45417 0.0171168,-0.0161571 0.0156708,-0.017563 0.0141098,-0.0188401 0.0124453,-0.0199788 0.0106893,-0.0209708 0.00885491,-0.0218088 0.00695549,-0.0224868 0.00500501,-0.0229997 0.00301778,-0.0233437 0.00100839,-0.0235163 -0.000997848,-0.0233933 -0.00298629,-0.0232233 -0.00495304,-0.0228847 -0.00688381,-0.0223798 -0.00876457,-0.0217123 -0.0105817,-0.0208871 -0.0123219,-0.0199101 -0.0139726,-0.0187885 -0.0155218,-0.0175304 -0.0169582,-0.016145 -0.0182714,-0.0146422 -0.019452,-0.0130331 -0.0204911,-0.0113294 -0.0213815,-0.00954326 -0.0221165,-0.00768785 -0.0226908,-0.00577658 -0.0231003,-0.00382334 -0.023342,-0.00184234 -0.0234141,0.000152056 -0.0233161,0.00214534 -0.00880433,-0.0651221 0.0456098,0 0.0216444,-0.00307769 0.0212814,-0.00500572 0.0207469,-0.00689344 0.0200454,-0.00872564 0.0191824,-0.0104876 0.018165,-0.012165 0.0170012,-0.0137445 0.0157006,-0.0152134 0.627634,-0.665303 -0.0909937,-0.0909937 -0.439339,0.373449 -0.112982,-0.370308 0.517793,-1.23016 -0.185154,-0.0721718 z "/>
<path fill="rgb(142,146,145)" stroke="rgb(142,146,145)" d="M 3.68642,9.33186 l -0.273364,-0.131646 -0.260331,-0.15584 -0.245164,-0.178755 -0.227985,-0.200203 -0.208936,-0.22001 -0.185597,-0.234435 -0.163953,-0.250051 -0.141004,-0.263674 -0.116931,-0.275196 -0.0919268,-0.284527 -0.0661902,-0.29159 -0.0399262,-0.296331 -0.0133442,-0.29871 0.0127227,-0.291685 0.0380714,-0.289469 0.0631309,-0.285055 0.087711,-0.278476 0.111625,-0.269781 0.134691,-0.259037 0.156734,-0.246326 0.177586,-0.231744 1.27464,1.59296 0.14452,0.88028 -0.00941094,0.781401 -0.392271,-1.00735 -0.147498,0.0282456 0.330258,1.33364 5.80069e-07,2.34247e-06 5.8008e-07,2.34247e-06 5.80091e-07,2.34246e-06 0.0129419,0.0438443 0.016768,0.0425283 0.0204626,0.0408791 0.023997,0.0389097 0.0273434,0.0366355 0.0304756,0.0340743 0.0333691,0.0312461 0.0360012,0.0281732 0.0383513,0.0248797 0.0404009,0.0213912 0.0421341,0.0177351 0.0435372,0.0139402 0.0445993,0.010036 0.045312,0.00605323 0.0456698,0.00202303 0.194565,0 0.0044557,0.082155 -0.0338382,0.00335374 -0.0334048,0.0063552 -0.0327058,0.00930611 -0.0317466,0.012183 -0.0305349,0.014963 -0.0290804,0.017624 -0.0273945,0.0201448 -0.0254908,0.0225054 -0.0233843,0.024687 -0.0210919,0.0266722 -0.0186316,0.0284453 -0.0160232,0.0299921 -0.0132874,0.0313004 -0.0104459,0.0323598 -0.00752125,0.0331618 -0.00453681,0.0337 -0.00151629,0.0339702 0.00139066,0.0325352 0.00416185,0.0322979 0.00690267,0.031825 0.00959314,0.0311199 0.0122136,0.0301878 0.014745,0.0290355 0.0171689,0.0276714 0.0194675,0.0261054 0.0216241,0.024349 0.0236229,0.022415 -0.418499,0.480588 z "/>
<path fill="rgb(142,146,145)" stroke="rgb(142,146,145)" d="M 2.31953,8.57642 l -0.151112,0.131016 -0.207757,-0.262428 -0.18353,-0.279907 -0.15784,-0.295157 -0.130893,-0.308056 -0.102903,-0.3185 -0.0740935,-0.326407 -0.0446935,-0.331713 -0.0149375,-0.334377 0.0151291,-0.336511 0.0452652,-0.333795 0.0750361,-0.328387 0.104202,-0.320328 0.132526,-0.309685 0.159782,-0.296544 0.185748,-0.281009 0.210215,-0.263207 0.127055,0.158786 -0.193878,0.247519 -0.171218,0.263702 -0.147214,0.277818 -0.122055,0.289753 -0.0959391,0.299416 -0.0690706,0.306731 -0.0416603,0.311639 -0.0139232,0.314103 0.0141408,0.316544 0.0423099,0.314022 0.0701418,0.308999 0.097415,0.301513 0.123912,0.291626 0.149422,0.279416 0.173742,0.264979 0.196677,0.248431 z "/>
<path fill="rgb(142,146,145)" stroke="rgb(142,146,145)" d="M 2.55715,3.40724 l 0.125037,0.156263 -0.0661579,0.0585556 -0.0646802,0.0601839 -0.0631625,0.0617748 -0.125699,-0.157091 0.0634707,-0.0614186 0.0648995,-0.0599067 0.0662924,-0.0583617 z "/>
<path fill="rgb(142,146,145)" stroke="rgb(142,146,145)" d="M 2.98149,3.09162 l 0.125699,0.157091 -0.0741231,0.0480769 -0.0729038,0.0499066 -0.0716393,0.0517054 -0.125037,-0.156263 0.0714795,-0.0518791 0.0726815,-0.0501813 0.0738431,-0.0484557 z "/>
<path fill="rgb(142,146,145)" stroke="rgb(142,146,145)" d="M 3.21134,2.95591 l 0.279189,-0.137029 0.289583,-0.113423 0.297986,-0.0890374 0.304339,-0.0640392 0.308599,-0.0386006 0.310736,-0.0128964 0,0.2 -0.288212,0.0117188 -0.286309,0.0350791 -0.282516,0.0582078 -0.276858,0.0809522 -0.269372,0.103162 -0.260107,0.124691 -0.127055,-0.158786 z "/>
<path fill="rgb(142,146,145)" stroke="rgb(142,146,145)" d="M 8.75177,6.25089 l -0.0128574,0.310266 -0.0384839,0.308138 -0.0638466,0.303898 -0.0887715,0.297573 -0.189122,-0.06506 0.084037,-0.281703 0.0604415,-0.28769 0.0364315,-0.291704 0.0121716,-0.293718 -0.0135088,-0.309403 -0.0404237,-0.307048 -0.0670308,-0.302357 -0.0931279,-0.295364 -0.118516,-0.286123 -0.143002,-0.274705 -0.1664,-0.261196 -0.188532,-0.2457 -0.209229,-0.228333 -0.228333,-0.209229 -0.2457,-0.188532 -0.261196,-0.1664 -0.274705,-0.143002 -0.286123,-0.118516 -0.295364,-0.0931279 -0.302357,-0.0670308 -0.307048,-0.0404237 -0.309403,-0.0135088 0,-0.2 0.326834,0.0142699 0.324347,0.042701 0.319391,0.0708072 0.312004,0.0983745 0.302243,0.125193 0.290182,0.151059 0.275912,0.175775 0.259542,0.199154 0.241197,0.221016 0.221016,0.241197 0.199154,0.259542 0.175775,0.275912 0.151059,0.290182 0.125193,0.302243 0.0983745,0.312004 0.0708072,0.319391 0.042701,0.324347 0.0142699,0.326834 z "/>
<path fill="rgb(142,146,145)" stroke="rgb(142,146,145)" d="M 7.64105,8.91485 l -0.0634707,0.0614186 -0.0648995,0.0599067 -0.0662924,0.0583617 -0.125037,-0.156263 0.0661579,-0.0585556 0.0646802,-0.0601839 0.0631625,-0.0617748 0.125699,0.157091 z "/>
<path fill="rgb(142,146,145)" stroke="rgb(142,146,145)" d="M 2.31953,8.57642 l 0.218876,0.230706 0.238644,0.210193 0.256497,0.187993 0.272292,0.164284 0.285901,0.139257 0.297216,0.113113 0.306146,0.0860608 0.31262,0.0583181 0.316584,0.0301074 0.318008,0.00165513 0.316881,-0.0268105 0.31321,-0.0550609 0.307026,-0.0828695 0.298378,-0.110013 0.287335,-0.136274 0.127055,0.158786 -0.284967,0.139567 -0.295746,0.114977 -0.304407,0.0895626 -0.310889,0.0635074 -0.315145,0.0369975 -0.317145,0.0102226 -0.316874,-0.0166254 -0.314334,-0.0433544 -0.309543,-0.069773 -0.302536,-0.095692 -0.293364,-0.120926 -0.28209,-0.145294 -0.268797,-0.168622 -0.25358,-0.190742 -0.236547,-0.211497 -0.21782,-0.230738 0.151112,-0.131016 z "/>
<path fill="rgb(142,146,145)" stroke="rgb(142,146,145)" d="M 7.02205,9.41015 l -0.125699,-0.157091 0.0741231,-0.0480769 0.0729038,-0.0499066 0.0716393,-0.0517054 0.125037,0.156263 -0.0714795,0.0518791 -0.0726815,0.0501813 -0.0738431,0.0484557 z "/>
<path fill="rgb(142,146,145)" stroke="rgb(142,146,145)" d="M 8.35869,7.4057 l 0.189122,0.06506 -0.134628,0.337289 -0.166622,0.322685 -0.197055,0.305054 -0.225638,0.284563 -0.127055,-0.158786 0.205721,-0.264203 0.179913,-0.28241 0.152504,-0.298105 0.123739,-0.311148 z "/>
<path fill="rgb(241,240,234)" stroke="rgb(241,240,234)" d="M 8.35869,7.4057 l -0.189122,-0.06506 0.0793025,-0.265832 0.0570363,-0.271482 0.034379,-0.27527 0.0114859,-0.277171 -0.0127478,-0.291972 -0.0381463,-0.28975 -0.0632545,-0.285322 -0.0878812,-0.278724 -0.111839,-0.270004 -0.134946,-0.259229 -0.157026,-0.246481 -0.17791,-0.231857 -0.197441,-0.215469 -0.215469,-0.197441 -0.231857,-0.17791 -0.246481,-0.157026 -0.259229,-0.134946 -0.270004,-0.111839 -0.278724,-0.0878812 -0.285322,-0.0632545 -0.28975,-0.0381463 -0.291972,-0.0127478 0,-0.2 0.309403,0.0135088 0.307048,0.0404237 0.302357,0.0670308 0.295364,0.0931279 0.286123,0.118516 0.274705,0.143002 0.261196,0.1664 0.2457,0.188532 0.228333,0.209229 0.209229,0.228333 0.188532,0.2457 0.1664,0.261196 0.143002,0.274705 0.118516,0.286123 0.0931279,0.295364 0.0670308,0.302357 0.0404237,0.307048 0.0135088,0.309403 -0.0121716,0.293718 -0.0364315,0.291704 -0.0604415,0.28769 -0.084037,0.281703 z "/>
<path fill="rgb(241,240,234)" stroke="rgb(241,240,234)" d="M 3.33839,3.1147 l 0.260107,-0.124691 0.269372,-0.103162 0.276858,-0.0809522 0.282516,-0.0582078 0.286309,-0.0350791 0.288212,-0.0117188 0,0.2 -0.318663,0.0151905 -0.315773,0.0454338 -0.310019,0.0752651 -0.301454,0.104414 -0.290155,0.132616 -0.127313,-0.159108 z "/>
<path fill="rgb(241,240,234)" stroke="rgb(241,240,234)" d="M 2.31953,8.57642 l -0.196677,-0.248431 -0.173742,-0.264979 -0.149422,-0.279416 -0.123912,-0.291626 -0.097415,-0.301513 -0.0701418,-0.308999 -0.0423099,-0.314022 -0.0141408,-0.316544 0.0139232,-0.314103 0.0416603,-0.311639 0.0690706,-0.306731 0.0959391,-0.299416 0.122055,-0.289753 0.147214,-0.277818 0.171218,-0.263702 0.193878,-0.247519 0.127313,0.159108 -0.177586,0.231744 -0.156734,0.246326 -0.134691,0.259037 -0.111625,0.269781 -0.087711,0.278476 -0.0631309,0.285055 -0.0380714,0.289469 -0.0127227,0.291685 0.0133442,0.29871 0.0399262,0.296331 0.0661902,0.29159 0.0919268,0.284527 0.116931,0.275196 0.141004,0.263674 0.163953,0.250051 0.185597,0.234435 -0.151112,0.131016 z "/>
<path fill="rgb(241,240,234)" stroke="rgb(241,240,234)" d="M 3.10719,3.24871 l 0.125789,0.157203 -0.074436,0.0476517 -0.073153,0.0495987 -0.0718191,0.0515113 -0.125047,-0.156276 0.0716393,-0.0517054 0.0729038,-0.0499066 0.0741231,-0.0480769 z "/>
<path fill="rgb(241,240,234)" stroke="rgb(241,240,234)" d="M 2.48819,3.74402 l 0.0631625,-0.0617748 0.0646802,-0.0601839 0.0661579,-0.0585556 0.125047,0.156276 -0.066008,0.0587737 -0.0644345,0.0604945 -0.0628162,0.0621733 -0.125789,-0.157203 z "/>
<path fill="rgb(241,240,234)" stroke="rgb(241,240,234)" d="M 3.68642,9.33186 l 0.275813,0.103663 0.283855,0.0790258 0.289701,0.0537777 0.293306,0.0281136 0.294642,0.0022319 0.293699,-0.023667 0.290483,-0.0493828 0.28502,-0.0747166 0.277352,-0.0994724 0.267539,-0.123459 0.127313,0.159108 -0.287335,0.136274 -0.298378,0.110013 -0.307026,0.0828695 -0.31321,0.0550609 -0.316881,0.0268105 -0.318008,-0.00165513 -0.316584,-0.0301074 -0.31262,-0.0583181 -0.306146,-0.0860608 -0.297216,-0.113113 -0.285901,-0.139257 -0.272292,-0.164284 -0.256497,-0.187993 -0.238644,-0.210193 -0.218876,-0.230706 0.151112,-0.131016 0.208936,0.22001 0.227985,0.200203 0.245164,0.178755 0.260331,0.15584 0.273364,0.131646 z "/>
<path fill="rgb(241,240,234)" stroke="rgb(241,240,234)" d="M 6.89635,9.25306 l -0.125789,-0.157203 0.074436,-0.0476517 0.073153,-0.0495987 0.0718191,-0.0515113 0.125047,0.156276 -0.0716393,0.0517054 -0.0729038,0.0499066 -0.0741231,0.0480769 z "/>
<path fill="rgb(241,240,234)" stroke="rgb(241,240,234)" d="M 7.51535,8.75776 l -0.0631625,0.0617748 -0.0646802,0.0601839 -0.0661579,0.0585556 -0.125047,-0.156276 0.066008,-0.0587737 0.0644345,-0.0604945 0.0628162,-0.0621733 0.125789,0.157203 z "/>
<path fill="rgb(241,240,234)" stroke="rgb(241,240,234)" d="M 8.35869,7.4057 l -0.123739,0.311148 -0.152504,0.298105 -0.179913,0.28241 -0.205721,0.264203 -0.127313,-0.159108 0.0795255,-0.0986379 0.0757386,-0.101575 0.0718434,-0.104366 0.145455,-0.241632 0.124614,-0.253011 0.102891,-0.262596 0.189122,0.06506 z "/>
<path fill="rgb(241,240,234)" stroke="rgb(241,240,234)" d="M 10.0035,6.25089 l -0.229744,0 0,-5.49085 -0.00199778,-0.0457568 -0.00597815,-0.0454085 -0.00991301,-0.0447147 -0.0137724,-0.0436806 -0.017527,-0.042314 -0.0211483,-0.0406254 -0.0246085,-0.0386276 -0.0278815,-0.0363359 -0.0309423,-0.0337676 -0.0337676,-0.0309423 -0.0363359,-0.0278815 -0.0386276,-0.0246085 -0.0406254,-0.0211483 -0.042314,-0.017527 -0.0436806,-0.0137724 -0.0447147,-0.00991301 -0.0454085,-0.00597815 -0.0457568,-0.00199778 -8.47818,-7.99361e-15 -0.0457568,0.00199778 -0.0454085,0.00597815 -0.0447147,0.00991301 -0.0436806,0.0137724 -0.042314,0.017527 -0.0406254,0.0211483 -0.0386276,0.0246085 -0.0363359,0.0278815 -0.0337676,0.0309423 -0.0309423,0.0337676 -0.0278815,0.0363359 -0.0246085,0.0386276 -0.0211483,0.0406254 -0.017527,0.042314 -0.0137724,0.0436806 -0.00991301,0.0447147 -0.00597815,0.0454085 -0.00199778,0.0457568 0,5.49085 -0.245616,1.77636e-15 0,-6.25089 10.0035,1.77636e-15 -1.77636e-15,6.25089 z "/>
<path fill="rgb(241,240,234)" stroke="rgb(241,240,234)" d="M 10.0035,6.25089 l -1.77636e-15,6.25089 -10.0035,0 0,-6.25089 0.245616,-1.77636e-15 0,5.48553 0.00199778,0.0457568 0.00597815,0.0454085 0.00991301,0.0447147 0.0137724,0.0436806 0.017527,0.042314 0.0211483,0.0406254 0.0246085,0.0386276 0.0278815,0.0363359 0.0309423,0.0337676 0.0337676,0.0309423 0.0363359,0.0278815 0.0386276,0.0246085 0.0406254,0.0211483 0.042314,0.017527 0.0436806,0.0137724 0.0447147,0.00991301 0.0454085,0.00597815 0.0457568,0.00199778 8.47818,1.06581e-14 0.0457568,-0.00199778 0.0454085,-0.00597815 0.0447147,-0.00991301 0.0436806,-0.0137724 0.042314,-0.017527 0.0406254,-0.0211483 0.0386276,-0.0246085 0.0363359,-0.0278815 0.0337676,-0.0309423 0.0309423,-0.0337676 0.0278815,-0.0363359 0.0246085,-0.0386276 0.0211483,-0.0406254 0.017527,-0.042314 0.0137724,-0.0436806 0.00991301,-0.0447147 0.00597815,-0.0454085 0.00199778,-0.0457568 1.77636e-15,-5.48553 0.229744,0 z "/>
<path fill="rgb(241,240,234)" stroke="rgb(241,240,234)" d="M 0.508116,6.25089 l 0,-4.55847 1.67156,2.089 -0.210215,0.263207 -0.185748,0.281009 -0.159782,0.296544 -0.132526,0.309685 -0.104202,0.320328 -0.0750361,0.328387 -0.0452652,0.333795 -0.0151291,0.336511 -0.743653,0 z "/>
<path fill="rgb(241,240,234)" stroke="rgb(241,240,234)" d="M 0.508116,1.26946 l 0,-0.422964 2.04903,2.56075 -0.0662924,0.0583617 -0.0648995,0.0599067 -0.0634707,0.0614186 -1.85437,-2.31747 z "/>
<path fill="rgb(241,240,234)" stroke="rgb(241,240,234)" d="M 0.905782,0.497542 l 2.0757,2.59408 -0.0738431,0.0484557 -0.0726815,0.0501813 -0.0714795,0.0518791 -2.15271,-2.69032 0.0175566,-0.0123701 0.0185091,-0.0108935 0.0193377,-0.00934393 0.0200368,-0.00773184 0.0206018,-0.00606799 0.0210289,-0.00436353 0.0213152,-0.00262986 0.0214588,-0.000878579 0.135165,1.77636e-15 z "/>
<path fill="rgb(241,240,234)" stroke="rgb(241,240,234)" d="M 9.51129,6.25089 l -0.759525,0 -0.0142699,-0.326834 -0.042701,-0.324347 -0.0708072,-0.319391 -0.0983745,-0.312004 -0.125193,-0.302243 -0.151059,-0.290182 -0.175775,-0.275912 -0.199154,-0.259542 -0.221016,-0.241197 -0.241197,-0.221016 -0.259542,-0.199154 -0.275912,-0.175775 -0.290182,-0.151059 -0.302243,-0.125193 -0.312004,-0.0983745 -0.319391,-0.0708072 -0.324347,-0.042701 -0.326834,-0.0142699 -0.310736,0.0128964 -0.308599,0.0386006 -0.304339,0.0640392 -0.297986,0.0890374 -0.289583,0.113423 -0.279189,0.137029 -1.96711,-2.45837 8.00457,9.76996e-15 0.0228784,0.000998892 0.0227043,0.00298907 0.0223574,0.00495651 0.0218403,0.00688622 0.021157,0.00876352 0.0203127,0.0105741 0.0193138,0.0123043 0.0181679,0.0139407 0.0168838,0.0154711 0.0154711,0.0168838 0.0139407,0.0181679 0.0123043,0.0193138 0.0105741,0.0203127 0.00876352,0.021157 0.00688622,0.0218403 0.00495651,0.0223574 0.00298907,0.0227043 0.000998892,0.0228784 0,5.49085 z "/>
<path fill="rgb(241,240,234)" stroke="rgb(241,240,234)" d="M 9.51129,10.8292 l -1.68743,-2.10884 0.225638,-0.284563 0.197055,-0.305054 0.166622,-0.322685 0.134628,-0.337289 0.0887715,-0.297573 0.0638466,-0.303898 0.0384839,-0.308138 0.0128574,-0.310266 0.759525,0 0,4.57831 z "/>
<path fill="rgb(241,240,234)" stroke="rgb(241,240,234)" d="M 0.508116,6.25089 l 0.743653,0 0.0149375,0.334377 0.0446935,0.331713 0.0740935,0.326407 0.102903,0.3185 0.130893,0.308056 0.15784,0.295157 0.18353,0.279907 0.207757,0.262428 0.21782,0.230738 0.236547,0.211497 0.25358,0.190742 0.268797,0.168622 0.28209,0.145294 0.293364,0.120926 0.302536,0.095692 0.309543,0.069773 0.314334,0.0433544 0.316874,0.0166254 0.317145,-0.0102226 0.315145,-0.0369975 0.310889,-0.0635074 0.304407,-0.0895626 0.295746,-0.114977 0.284967,-0.139567 1.96286,2.45305 -7.98444,-8.88178e-15 -0.0228784,-0.000998892 -0.0227043,-0.00298907 -0.0223574,-0.00495651 -0.0218403,-0.00688622 -0.021157,-0.00876352 -0.0203127,-0.0105741 -0.0193138,-0.0123043 -0.0181679,-0.0139407 -0.0168838,-0.0154711 -0.0154711,-0.0168838 -0.0139407,-0.0181679 -0.0123043,-0.0193138 -0.0105741,-0.0203127 -0.00876352,-0.021157 -0.00688622,-0.0218403 -0.00495651,-0.0223574 -0.00298907,-0.0227043 -0.000998892,-0.0228784 0,-5.48553 z "/>
<path fill="rgb(241,240,234)" stroke="rgb(241,240,234)" d="M 9.51129,11.2522 l 0,0.422964 -2.0649,-2.58059 0.0662924,-0.0583617 0.0648995,-0.0599067 0.0634707,-0.0614186 1.87024,2.33731 z "/>
<path fill="rgb(241,240,234)" stroke="rgb(241,240,234)" d="M 9.39587,11.9538 l -0.0189819,0.0116974 -0.0199061,0.0100443 -0.0206867,0.00831879 -0.021318,0.00653324 -0.0217955,0.00470057 -0.0221158,0.00283397 -0.0222765,0.000946935 -0.155294,0 -2.07145,-2.58876 0.0738431,-0.0484557 0.0726815,-0.0501813 0.0714795,-0.0518791 2.15582,2.6942 z "/>
<path fill="rgb(42,41,42)" stroke="rgb(42,41,42)" d="M 6.9254,11.4647 l -0.728541,0 0,-0.999187 0.74585,0 0,0.179382 -0.564895,0 0,0.272219 0.298969,0 0,0.182529 -0.298969,0 0,0.185676 0.547586,0 0,0.179382 z "/>
<path fill="rgb(42,41,42)" stroke="rgb(42,41,42)" d="M 5.93722,11.4647 l -0.171514,0 0,-0.659306 0.0188823,-0.339881 0.152632,0 0,0.999187 z "/>
<path fill="rgb(42,41,42)" stroke="rgb(42,41,42)" d="M 5.30624,11.4647 l 0,-0.311557 0.478351,-0.687629 -0.0188823,0.339881 -0.459469,0.659306 z "/>
<path fill="rgb(42,41,42)" stroke="rgb(42,41,42)" d="M 5.30624,11.4647 l -0.174661,0 0,-0.999187 0.174661,0 0,0.687629 0,0.311557 z "/>
<path fill="rgb(42,41,42)" stroke="rgb(42,41,42)" d="M 4.48644,11.482 l -0.0110147,0 -0.0896908,-0.0110147 -0.0802497,-0.0251764 -0.069235,-0.0424851 -0.0597939,-0.0582203 -0.0298969,-0.0409116 0.339881,0 0.0377645,-0.00314705 0.0771026,-0.0283234 0.0597939,-0.0582203 0.033044,-0.066088 0.0204558,-0.0833967 0.00786761,-0.0975584 -0.00314705,-0.0708085 -0.0157352,-0.0865437 -0.0298969,-0.072382 -0.0377645,-0.0519262 -0.0645144,-0.0440586 -0.0849702,-0.0141617 -0.322572,-0.0157352 0.0251764,-0.0314705 0.0597939,-0.0582203 0.069235,-0.0409116 0.0802497,-0.0251764 0.0881173,-0.00786761 0.00629409,0 0.0881173,0.00944114 0.0771026,0.0283234 0.069235,0.0440586 0.0597939,0.0629409 0.0298969,0.0409116 0.036191,0.0708085 0.0251764,0.0802497 0.0157352,0.0881173 0.00629409,0.0959849 -0.00314705,0.0582203 -0.0110147,0.0912643 -0.0220293,0.0833967 -0.033044,0.0739556 -0.0456322,0.066088 -0.00157352,0.00157352 -0.0597939,0.0597939 -0.0708085,0.0440586 -0.0786761,0.0251764 -0.0881173,0.00944114 z "/>
<path fill="rgb(42,41,42)" stroke="rgb(42,41,42)" d="M 4.14655,11.3042 l -0.036191,-0.069235 -0.0267499,-0.0802497 -0.0141617,-0.0881173 -0.00629409,-0.0991319 0.00157352,-0.0314705 0.00786761,-0.0912643 0.0204558,-0.0833967 0.0298969,-0.0786761 0.0409116,-0.0708085 0.322572,0.0157352 -0.0393381,0.00314705 -0.0771026,0.0283234 -0.0597939,0.0582203 -0.00157352,0.00157352 -0.0346175,0.0676615 -0.0220293,0.0818232 -0.00629409,0.0991319 0.00786761,0.0959849 0.0204558,0.0833967 0.036191,0.0676615 0.0236028,0.0283234 0.0676615,0.0456322 0.0849702,0.0157352 -0.339881,0 z "/>
<path fill="rgb(42,41,42)" stroke="rgb(42,41,42)" d="M 3.89636,11.4647 l -0.753717,0 0,-0.176235 0.536571,0 -0.568042,-0.619968 0,-0.202984 0.785188,0 0,0.179382 -0.563321,0 0.563321,0.616821 0,0.202984 z "/>
<path fill="rgb(42,41,42)" stroke="rgb(42,41,42)" d="M 2.68219,3.56351 l 0.0674047,-0.0567354 0.0687919,-0.0550452 0.0701367,-0.0533211 0.125047,0.156276 -0.0702175,0.0532184 -0.0687936,0.0550466 -0.0673222,0.0568367 -0.125047,-0.156276 z "/>
<path fill="rgb(42,41,42)" stroke="rgb(42,41,42)" d="M 7.44639,9.09454 l -0.0674784,0.0566448 -0.0687904,0.055044 -0.0700646,0.0534128 -0.125037,-0.156263 0.0701367,-0.0533211 0.0687919,-0.0550452 0.0674047,-0.0567354 0.125037,0.156263 z "/>
<path fill="rgb(42,41,42)" stroke="rgb(42,41,42)" d="M 3.53395,4.62799 l -0.0873654,-0.532147 0.478585,0.598105 0.237777,0.720122 -0.628997,-0.78608 z "/>
<path fill="rgb(42,41,42)" stroke="rgb(42,41,42)" d="M 7.19631,8.782 l -0.0673222,0.0568367 -0.0687936,0.0550466 -0.0702175,0.0532184 -1.63261,-2.04033 0.124753,-0.267056 1.71419,2.14228 z "/>
<path fill="rgb(42,41,42)" stroke="rgb(42,41,42)" d="M 2.55715,3.40724 l 0.0674784,-0.0566448 0.0687904,-0.055044 0.0700646,-0.0534128 0.125037,0.156263 -0.0701367,0.0533211 -0.0687919,0.0550452 -0.0674047,0.0567354 -0.125037,-0.156263 z "/>
<path fill="rgb(42,41,42)" stroke="rgb(42,41,42)" d="M 9.39587,11.9538 l 0.0186884,-0.0138888 0.0173841,-0.0154902 0.0159431,-0.0169698 0.0143766,-0.0183158 0.012697,-0.0195177 0.0109175,-0.0205661 0.00905205,-0.0214526 0.00711543,-0.0221704 0.00512282,-0.0227137 0.0030899,-0.0230783 0.00103268,-0.0232613 0,-0.0612952 -2.0649,-2.58059 -0.0674784,0.0566448 -0.0687904,0.055044 -0.0700646,0.0534128 2.15582,2.6942 z "/>
<path fill="rgb(42,41,42)" stroke="rgb(42,41,42)" d="M 2.80723,3.71978 l 0.0673222,-0.0568367 0.0687936,-0.0550466 0.0702175,-0.0532184 0.433018,0.541158 0.0873654,0.532147 -0.726717,-0.908204 z "/>
<path fill="rgb(42,41,42)" stroke="rgb(42,41,42)" d="M 2.55715,3.40724 l 0.0674784,-0.0566448 0.0687904,-0.055044 0.0700646,-0.0534128 -2.15271,-2.69032 -0.0183778,0.0154957 -0.0168832,0.0171119 -0.015247,0.0185847 -0.0134829,0.0199015 -0.0116058,0.0210515 -0.00963136,0.0220249 -0.00757613,0.0228137 -0.00545736,0.0234111 -0.00329283,0.0238121 -0.00110069,0.0240135 0,0.0864512 2.04903,2.56075 z "/>
<path fill="rgb(42,41,42)" stroke="rgb(42,41,42)" d="M 5.48212,6.63971 l -0.124753,0.267056 -0.14655,-0.183149 0.154259,-0.230181 0.117044,0.146274 z "/>
<path fill="rgb(42,41,42)" stroke="rgb(42,41,42)" d="M 7.32135,8.93827 l -0.0674047,0.0567354 -0.0687919,0.0550452 -0.0701367,0.0533211 -0.125047,-0.156276 0.0702175,-0.0532184 0.0687936,-0.0550466 0.0673222,-0.0568367 0.125047,0.156276 z "/>
<path fill="rgb(42,41,42)" stroke="rgb(42,41,42)" d="M 4.79934,6.20938 l 0.0566541,-0.352161 0.509082,0.636218 -0.154259,0.230181 -0.411477,-0.514238 z "/>
<path fill="rgb(42,41,42)" stroke="rgb(42,41,42)" d="M 4.45863,5.36062 l -0.0988627,0.299412 -0.196816,-0.245968 -0.237777,-0.720122 0.533456,0.666679 z "/>
<path fill="rgb(42,41,42)" stroke="rgb(42,41,42)" d="M 4.45863,5.36062 l 0.397364,0.4966 -0.0566541,0.352161 -0.439573,-0.54935 0.0988627,-0.299412 z "/>
<path fill="rgb(42,41,42)" stroke="rgb(42,41,42)" d="M 7.69681,8.56157 l -0.0588382,0.0669077 -0.0604988,0.06541 -0.0621213,0.0638711 -0.125789,-0.157203 0.0617299,-0.0644257 0.0599922,-0.0660469 0.058212,-0.0676212 0.127313,0.159108 z "/>
<path fill="rgb(42,41,42)" stroke="rgb(42,41,42)" d="M 4.9693,5.1529 l 0.703912,0.879703 -0.154886,0.229398 -0.60568,-0.75694 0.0566541,-0.352161 z "/>
<path fill="rgb(42,41,42)" stroke="rgb(42,41,42)" d="M 3.57967,3.8392 l 0.0632691,0 0.0444505,0.134621 -0.10772,-0.134621 z "/>
<path fill="rgb(42,41,42)" stroke="rgb(42,41,42)" d="M 5.79434,6.18399 l -0.188822,0.186987 -0.0871958,-0.108972 0.154886,-0.229398 0.121132,0.151383 z "/>
<path fill="rgb(42,41,42)" stroke="rgb(42,41,42)" d="M 4.65635,4.7618 l 0.312947,0.391101 -0.0566541,0.352161 -0.355156,-0.443851 0.0988627,-0.299412 z "/>
<path fill="rgb(42,41,42)" stroke="rgb(42,41,42)" d="M 9.51129,10.8292 l -1.68743,-2.10884 -0.0593938,0.0662715 -0.0609496,0.0648435 -0.0624712,0.0633789 1.87024,2.33731 0,-0.422964 z "/>
<path fill="rgb(42,41,42)" stroke="rgb(42,41,42)" d="M 0.905782,0.497542 l 2.0757,2.59408 0.0755365,-0.0470506 0.0766318,-0.0452449 0.0776838,-0.0434138 -1.96711,-2.45837 -0.338443,2.66454e-15 z "/>
<path fill="rgb(42,41,42)" stroke="rgb(42,41,42)" d="M 3.33839,3.1147 l 0.127313,0.159108 -0.0787414,0.0419647 -0.0775959,0.0440469 -0.0763953,0.0460978 -0.125789,-0.157203 0.07594,-0.0466014 0.0770856,-0.0446809 0.0781827,-0.0427322 z "/>
<path fill="rgb(42,41,42)" stroke="rgb(42,41,42)" d="M 3.46571,3.27381 l 1.19064,1.48799 -0.0988627,0.299412 -0.870096,-1.08739 -0.0444505,-0.134621 -0.0632691,0 -0.346699,-0.433282 0.0763953,-0.0460978 0.0775959,-0.0440469 0.0787414,-0.0419647 z "/>
<path fill="rgb(42,41,42)" stroke="rgb(42,41,42)" d="M 7.5695,8.40246 l -0.058212,0.0676212 -0.0599922,0.0660469 -0.0617299,0.0644257 -1.78404,-2.22958 0.188822,-0.186987 1.77516,2.21848 z "/>
<path fill="rgb(42,41,42)" stroke="rgb(42,41,42)" d="M 2.98149,3.09162 l 0.0755365,-0.0470506 0.0766318,-0.0452449 0.0776838,-0.0434138 0.127055,0.158786 -0.0781827,0.0427322 -0.0770856,0.0446809 -0.07594,0.0466014 -0.125699,-0.157091 z "/>
<path fill="rgb(42,41,42)" stroke="rgb(42,41,42)" d="M 7.82387,8.72036 l -0.0593938,0.0662715 -0.0609496,0.0648435 -0.0624712,0.0633789 -0.125699,-0.157091 0.0621213,-0.0638711 0.0604988,-0.06541 0.0588382,-0.0669077 0.127055,0.158786 z "/>
<path fill="rgb(42,41,42)" stroke="rgb(42,41,42)" d="M 4.77005,7.01871 l -0.0248307,-0.453996 0.311339,0.389092 -0.154259,0.230181 -0.13225,-0.165277 z "/>
<path fill="rgb(42,41,42)" stroke="rgb(42,41,42)" d="M 5.10786,7.44088 l -0.205562,-0.256898 0.154259,-0.230181 0.176056,0.220024 -0.124753,0.267056 z "/>
<path fill="rgb(42,41,42)" stroke="rgb(42,41,42)" d="M 0.508116,1.26946 l 1.85437,2.31747 -0.0624712,0.0633789 -0.0609496,0.0648435 -0.0593938,0.0662715 -1.67156,-2.089 0,-0.422964 z "/>
<path fill="rgb(42,41,42)" stroke="rgb(42,41,42)" d="M 2.43404,4.09932 l 0.058212,-0.0676212 0.0599922,-0.0660469 0.0617299,-0.0644257 1.00734,1.25891 0.0873654,0.532147 -1.27464,-1.59296 z "/>
<path fill="rgb(42,41,42)" stroke="rgb(42,41,42)" d="M 6.66514,9.38708 l -0.127313,-0.159108 0.0787414,-0.0419647 0.0775959,-0.0440469 0.0763953,-0.0460978 0.125789,0.157203 -0.07594,0.0466014 -0.0770856,0.0446809 -0.0781827,0.0427322 z "/>
<path fill="rgb(42,41,42)" stroke="rgb(42,41,42)" d="M 6.7922,9.54586 l -0.127055,-0.158786 0.0781827,-0.0427322 0.0770856,-0.0446809 0.07594,-0.0466014 0.125699,0.157091 -0.0755365,0.0470506 -0.0766318,0.0452449 -0.0776838,0.0434138 z "/>
<path fill="rgb(42,41,42)" stroke="rgb(42,41,42)" d="M 2.30673,3.94021 l 0.0588382,-0.0669077 0.0604988,-0.06541 0.0621213,-0.0638711 0.125789,0.157203 -0.0617299,0.0644257 -0.0599922,0.0660469 -0.058212,0.0676212 -0.127313,-0.159108 z "/>
<path fill="rgb(42,41,42)" stroke="rgb(42,41,42)" d="M 6.53783,9.22797 l -1.42997,-1.78709 0.124753,-0.267056 1.53795,1.92204 -0.0763953,0.0460978 -0.0775959,0.0440469 -0.0787414,0.0419647 z "/>
<path fill="rgb(42,41,42)" stroke="rgb(42,41,42)" d="M 3.70868,5.69228 l -0.0873654,-0.532147 1.1239,1.40458 0.0248307,0.453996 -1.06137,-1.32643 z "/>
<path fill="rgb(42,41,42)" stroke="rgb(42,41,42)" d="M 2.17967,3.78142 l 0.0593938,-0.0662715 0.0609496,-0.0648435 0.0624712,-0.0633789 0.125699,0.157091 -0.0621213,0.0638711 -0.0604988,0.06541 -0.0588382,0.0669077 -0.127055,-0.158786 z "/>
<path fill="rgb(42,41,42)" stroke="rgb(42,41,42)" d="M 8.75506,11.9989 l -1.96286,-2.45305 0.0776838,-0.0434138 0.0766318,-0.0452449 0.0755365,-0.0470506 2.07145,2.58876 -0.338443,0 z "/>
<path fill="rgb(42,41,42)" stroke="rgb(42,41,42)" d="M 9.51129,10.8292 l 0,-4.57831 0.2625,0 -1.77636e-15,5.48553 -0.00199778,0.0457568 -0.00597815,0.0454085 -0.00991301,0.0447147 -0.0137724,0.0436806 -0.017527,0.042314 -0.0211483,0.0406254 -0.0246085,0.0386276 -0.0278815,0.0363359 -0.0309423,0.0337676 -0.0337676,0.0309423 -0.0363359,0.0278815 -0.0386276,0.0246085 -0.0406254,0.0211483 -0.042314,0.017527 -0.0436806,0.0137724 -0.0447147,0.00991301 -0.0454085,0.00597815 -0.0457568,0.00199778 -8.47818,-1.06581e-14 -0.0457568,-0.00199778 -0.0454085,-0.00597815 -0.0447147,-0.00991301 -0.0436806,-0.0137724 -0.042314,-0.017527 -0.0406254,-0.0211483 -0.0386276,-0.0246085 -0.0363359,-0.0278815 -0.0337676,-0.0309423 -0.0309423,-0.0337676 -0.0278815,-0.0363359 -0.0246085,-0.0386276 -0.0211483,-0.0406254 -0.017527,-0.042314 -0.0137724,-0.0436806 -0.00991301,-0.0447147 -0.00597815,-0.0454085 -0.00199778,-0.0457568 0,-5.48553 0.2625,8.88178e-16 0,5.48553 0.000998892,0.0228784 0.00298907,0.0227043 0.00495651,0.0223574 0.00688622,0.0218403 0.00876352,0.021157 0.0105741,0.0203127 0.0123043,0.0193138 0.0139407,0.0181679 0.0154711,0.0168838 0.0168838,0.0154711 0.0181679,0.0139407 0.0193138,0.0123043 0.0203127,0.0105741 0.021157,0.00876352 0.0218403,0.00688622 0.0223574,0.00495651 0.0227043,0.00298907 0.0228784,0.000998892 7.98444,8.88178e-15 0.338443,0 0.155294,0 0.0222765,-0.000946935 0.0221158,-0.00283397 0.0217955,-0.00470057 0.021318,-0.00653324 0.0206867,-0.00831879 0.0199061,-0.0100443 0.0189819,-0.0116974 0.0186884,-0.0138888 0.0173841,-0.0154902 0.0159431,-0.0169698 0.0143766,-0.0183158 0.012697,-0.0195177 0.0109175,-0.0205661 0.00905205,-0.0214526 0.00711543,-0.0221704 0.00512282,-0.0227137 0.0030899,-0.0230783 0.00103268,-0.0232613 0,-0.0612952 0,-0.422964 0,-0.422964 z "/>
<path fill="rgb(42,41,42)" stroke="rgb(42,41,42)" d="M 0.508116,1.26946 l 0,0.422964 0,4.55847 -0.2625,-8.88178e-16 0,-5.49085 0.00199778,-0.0457568 0.00597815,-0.0454085 0.00991301,-0.0447147 0.0137724,-0.0436806 0.017527,-0.042314 0.0211483,-0.0406254 0.0246085,-0.0386276 0.0278815,-0.0363359 0.0309423,-0.0337676 0.0337676,-0.0309423 0.0363359,-0.0278815 0.0386276,-0.0246085 0.0406254,-0.0211483 0.042314,-0.017527 0.0436806,-0.0137724 0.0447147,-0.00991301 0.0454085,-0.00597815 0.0457568,-0.00199778 8.47818,7.99361e-15 0.0457568,0.00199778 0.0454085,0.00597815 0.0447147,0.00991301 0.0436806,0.0137724 0.042314,0.017527 0.0406254,0.0211483 0.0386276,0.0246085 0.0363359,0.0278815 0.0337676,0.0309423 0.0309423,0.0337676 0.0278815,0.0363359 0.0246085,0.0386276 0.0211483,0.0406254 0.017527,0.042314 0.0137724,0.0436806 0.00991301,0.0447147 0.00597815,0.0454085 0.00199778,0.0457568 0,5.49085 -0.2625,0 0,-5.49085 -0.000998892,-0.0228784 -0.00298907,-0.0227043 -0.00495651,-0.0223574 -0.00688622,-0.0218403 -0.00876352,-0.021157 -0.0105741,-0.0203127 -0.0123043,-0.0193138 -0.0139407,-0.0181679 -0.0154711,-0.0168838 -0.0168838,-0.0154711 -0.0181679,-0.0139407 -0.0193138,-0.0123043 -0.0203127,-0.0105741 -0.021157,-0.00876352 -0.0218403,-0.00688622 -0.0223574,-0.00495651 -0.0227043,-0.00298907 -0.0228784,-0.000998892 -8.00457,-9.76996e-15 -0.338443,2.66454e-15 -0.135165,-1.77636e-15 -0.0214588,0.000878579 -0.0213152,0.00262986 -0.0210289,0.00436353 -0.0206018,0.00606799 -0.0200368,0.00773184 -0.0193377,0.00934393 -0.0185091,0.0108935 -0.0175566,0.0123701 -0.0183778,0.0154957 -0.0168832,0.0171119 -0.015247,0.0185847 -0.0134829,0.0199015 -0.0116058,0.0210515 -0.00963136,0.0220249 -0.00757613,0.0228137 -0.00545736,0.0234111 -0.00329283,0.0238121 -0.00110069,0.0240135 0,0.0864512 0,0.422964 z "/>
</g></g></svg>
