<?xml version="1.0" encoding="UTF-8" standalone="no"?>
<!DOCTYPE svg PUBLIC "-//W3C//DTD SVG 1.1//EN" "http://www.w3.org/Graphics/SVG/1.1/DTD/svg11-flat.dtd"
[

]>
<svg xmlns="http://www.w3.org/2000/svg"  viewBox="-0.0891147 -0.0891147 7.30741 7.30741"><g fill="none" stroke="black" stroke-width="0.0125" transform="translate(0,7.12918) scale(1, -1)">
<g id="Output" >
<path fill="rgb(241,240,234)" stroke="rgb(241,240,234)" d="M 3.83239,3.07644 l -0.100579,0.0352076 -0.00462856,0.00126654 -0.00472143,0.000857781 -0.00477827,0.000442477 -0.00479866,2.37962e-05 -0.00478243,-0.000395066 -0.00472971,-0.000810913 -0.00464089,-0.00122057 -0.00451667,-0.00162092 -0.00435798,-0.0020089 -0.00416604,-0.00238155 -0.00394232,-0.00273603 -0.00368851,-0.00306963 -0.00340655,-0.00337981 -0.00309861,-0.0036642 -0.00276702,-0.00392063 -0.00241431,-0.00414714 -0.00204319,-0.00434201 -0.00165647,-0.00450375 -0.00125712,-0.00463113 -0.0754492,-0.216249 -0.00132732,-0.0055212 -0.000826979,-0.00561797 -0.000319973,-0.00566948 0.00018961,-0.00567534 0.000697666,-0.00563548 0.0012001,-0.00555024 0.00169287,-0.0054203 0.00217201,-0.00524669 0.00263365,-0.00503083 0.00307408,-0.00477446 0.00348976,-0.00447962 0.00387732,-0.00414871 0.00423366,-0.00378439 0.00455589,-0.00338958 0.00484144,-0.00296747 0.0955558,-0.0528228 0.00397029,-0.00197501 0.00412651,-0.00162351 0.00425168,-0.0012598 0.00434486,-0.000886605 0.00440535,-0.000506743 0.00443269,-0.000123067 0.00442668,0.000261534 0.00438736,0.000644167 0.00431503,0.00102195 0.00421023,0.00139205 0.00407376,0.00175167 0.00390663,0.00209812 0.00371011,0.00242877 0.00348568,0.00274116 0.00323501,0.00303291 0.00296001,0.00330185 0.00266274,0.00354594 0.00234543,0.00376336 0.00201047,0.00395245 0.00166039,0.00411181 0.085336,0.240928 0.00156883,0.00513217 0.00111449,0.0052496 0.000651629,0.00532689 0.000183783,0.00536345 -0.000285467,0.005359 -0.000752535,0.00531357 -0.00121385,0.00522752 -0.00166588,0.00510149 -0.00210518,0.00493646 -0.00252837,0.00473368 -0.00293224,0.0044947 -0.00331368,0.00422136 -0.00366979,0.00391574 -0.00399784,0.00358018 -0.00429532,0.00321724 -0.00455995,0.00282971 -0.00478972,0.00242053 -0.00498286,0.00199285 z "/>
<path fill="rgb(241,240,234)" stroke="rgb(241,240,234)" d="M 3.24632,1.88789 l 0.00231259,0.00654476 -0.000850524,-0.00215289 -0.000771207,-0.00218256 -0.000690858,-0.00220931 z "/>
<path fill="rgb(241,240,234)" stroke="rgb(241,240,234)" d="M 3.30262,1.56767 l -0.0978239,0.0344532 -0.0044073,0.00163631 -0.00425126,0.00200714 -0.00406409,0.00236327 -0.00384715,0.0027021 -0.00360203,0.00302113 -0.00333054,0.00331804 -0.00303465,0.00359065 -0.00271654,0.00383696 -0.00237854,0.00405517 -0.00202311,0.00424369 -0.00165287,0.00440112 -0.00127053,0.00452633 -0.000878876,0.00461838 -0.00048079,0.00467661 -7.9182e-05,0.00470059 0.000323006,0.00469015 0.000722828,0.00464536 0.00111736,0.00456655 0.0015037,0.00445429 0.00187903,0.00430942 0.0739927,0.209404 0.00231259,0.00654476 0.00241573,0.00513903 0.00286674,0.00490176 0.00329466,0.004625 0.00369604,0.004311 0.00406766,0.00396227 0.00440651,0.00358163 0.00470988,0.00317214 0.00497531,0.0027371 0.00520067,0.00228002 0.00538414,0.00180458 0.00552424,0.0013146 0.00561986,0.000814033 0.00567021,0.00030691 0.00567489,-0.000202686 0.00563386,-0.000710648 0.107603,-0.0185111 0.00433348,-0.000940643 0.00423566,-0.00131265 0.00410597,-0.00167477 0.00394539,-0.00202429 0.00375512,-0.00235859 0.0035366,-0.00267513 0.00329147,-0.00297155 0.00302157,-0.00324561 0.00272894,-0.00349525 0.00241577,-0.00371859 0.00208443,-0.00391396 0.0017374,-0.00407987 0.0013773,-0.00421508 0.00100684,-0.00431858 0.000628803,-0.00438959 0.000246034,-0.00442757 -0.000138586,-0.00443223 -0.000522163,-0.00440355 -0.000901811,-0.00434173 -0.00127467,-0.00424724 -0.0840176,-0.241391 -0.00198403,-0.00498638 -0.00241205,-0.004794 -0.00282163,-0.00456495 -0.00320963,-0.00430101 -0.00357309,-0.00400417 -0.00390924,-0.00367672 -0.00421549,-0.00332115 -0.0044895,-0.00294019 -0.00472919,-0.00253675 -0.00493272,-0.00211391 -0.00509853,-0.00167491 -0.00522536,-0.0012231 -0.00531223,-0.000761943 -0.00535849,-0.000294956 -0.00536377,0.000174286 -0.00532804,0.000642195 -0.00525156,0.00110519 -0.00513494,0.00155974 z "/>
<path fill="rgb(241,240,234)" stroke="rgb(241,240,234)" d="M 3.50298,3.03872 l -0.321862,-0.0125646 -0.10472,-0.189356 -0.0886217,-0.197404 -0.0719106,-0.204085 -0.0547021,-0.209355 -0.0371151,-0.213177 0.243916,-0.211225 0.114523,0.422689 0.145267,0.413133 0.175225,0.401345 z "/>
<path fill="rgb(241,240,234)" stroke="rgb(241,240,234)" d="M 4.59443,2.1 l 0,-0.675632 0.299119,0 1.77636e-15,-0.100579 -0.299119,0 0,-0.22379 0.940325,4.44089e-16 -0.5,1 -0.440325,0 z "/>
<path fill="rgb(241,240,234)" stroke="rgb(241,240,234)" d="M 4.53475,3.1 l -0.5,1 -0.440325,0 0,-0.914477 0.0795507,0.0292254 0.326574,-0.114748 0.5342,0 z "/>
<path fill="rgb(241,240,234)" stroke="rgb(241,240,234)" d="M 3.59443,4.1 l 0.440325,0 -0.440325,0.88065 0,-0.88065 z "/>
<path fill="rgb(241,240,234)" stroke="rgb(241,240,234)" d="M 4.59443,2.1 l 0.440325,0 -0.440325,0.88065 0,-0.88065 z "/>
<path fill="rgb(241,240,234)" stroke="rgb(241,240,234)" d="M 2.59443,1.42437 l 0,0.675632 -0.5,0 -0.5,-1 1,-4.44089e-16 0,0.22379 -0.331117,0 0,0.100579 0.331117,0 z "/>
<path fill="rgb(241,240,234)" stroke="rgb(241,240,234)" d="M 2.09443,2.1 l 0.5,0 0,1 -0.5,-1 z "/>
<path fill="rgb(241,240,234)" stroke="rgb(241,240,234)" d="M 2.59443,2.1 l 0,-0.675632 1,8.88178e-16 0,0.0485627 -0.00594619,-0.0158619 -0.125728,-0.0301838 -0.369644,0.130762 -0.067888,0.113164 -0.331919,0.299219 0.0258945,0.12997 -0.124769,0 z M 3.59443,1.1 l 0,0.22379 -1,0 0,-0.22379 0.970163,0 0.0298374,0 z "/>
<path fill="rgb(241,240,234)" stroke="rgb(241,240,234)" d="M 2.7192,2.1 l 0.0351271,0.176311 0.0896454,0.299158 0.11747,0.289366 0.122464,0.235166 -0.489475,0 0,-1 0.124769,0 z "/>
<path fill="rgb(241,240,234)" stroke="rgb(241,240,234)" d="M 2.59443,3.1 l 0.489475,0 0.0217813,0.0418262 0.445083,0.0276565 0.0436606,0.0160401 0,0.914477 -0.5,0 -0.5,-1 z "/>
<path fill="rgb(241,240,234)" stroke="rgb(241,240,234)" d="M 3.09443,4.1 l 0.5,0 0,0.88065 -0.0298374,0.0596748 -0.470163,-0.940325 z "/>
<path fill="rgb(241,240,234)" stroke="rgb(241,240,234)" d="M 3.59443,1.42437 l 0.217844,0 -0.208708,0.0729322 -0.00913547,-0.0243695 0,-0.0485627 z M 3.81518,2.1 l -0.136167,-0.38644 0.254961,-0.0899982 0.00215866,-0.000794937 0.0020797,-0.000983153 0.00198437,-0.00116363 0.00187341,-0.00133495 0.00174771,-0.00149575 0.00160824,-0.00164478 0.00145612,-0.00178086 0.00129253,-0.00190292 0.00111876,-0.00201 0.000936189,-0.00210126 0.000746247,-0.00217597 0.000550429,-0.00223356 0.000350278,-0.00227355 0.000147369,-0.00229565 -5.66994e-05,-0.00229968 -0.000260322,-0.0022856 -0.000461895,-0.00225353 -0.000659832,-0.00220372 -0.0578301,-0.16596 0.701673,0 0,0.675632 -0.779248,0 z M 4.59443,1.1 l 0,0.22379 -1,0 0,-0.22379 1,0 z "/>
<path fill="rgb(241,240,234)" stroke="rgb(241,240,234)" d="M 4.53475,3.1 l -0.5342,0 0.0455765,-0.0160142 0.0804628,-0.100579 -0.0150817,-0.0427484 0.254954,-0.0899885 0.00215894,-0.000793596 0.00208006,-0.000981913 0.0019848,-0.00116249 0.0018739,-0.00133391 0.00174823,-0.00149483 0.00160879,-0.00164396 0.00145668,-0.00178014 0.00129309,-0.0019023 0.00111931,-0.00200947 0.000936708,-0.00210081 0.00074673,-0.00217559 0.000550869,-0.00223324 0.000350668,-0.00227329 0.000147704,-0.00229543 -5.64236e-05,-0.00229949 -0.000260107,-0.00228542 -0.000461741,-0.00225336 -0.000659737,-0.00220353 -0.0573057,-0.164455 -0.000787396,-0.00216356 -0.000977011,-0.00208481 -0.00115886,-0.00198948 -0.00133149,-0.00187833 -0.00149353,-0.00175225 -0.00164369,-0.00161223 -0.00178078,-0.00145938 -0.00190372,-0.00129494 -0.00201151,-0.00112019 -0.00210331,-0.000936536 -0.00217838,-0.000745435 -0.00223612,-0.000548405 -0.00227609,-0.000347014 -0.00229795,-0.000142864 -0.00230154,6.24219e-05 -0.00228683,0.000267212 -0.00225393,0.000469877 -0.00220311,0.000668805 -0.25647,0.0905309 -0.220902,-0.626917 0.779248,0 0,0.88065 -0.0596748,0.11935 z "/>
<path fill="rgb(241,240,234)" stroke="rgb(241,240,234)" d="M 3.56459,0.2 l 3.26459,0 0.00883388,0.000390951 0.00876481,0.0011698 0.0086272,0.0019395 0.00842214,0.00269403 0.00815123,0.0034275 0.00781658,0.00413417 0.00742081,0.00480851 0.00696702,0.00544526 0.00645876,0.00603943 0.00589999,0.00658638 0.00529509,0.00708183 0.00464879,0.0075219 0.00396614,0.00790316 0.00325248,0.00822263 0.00251339,0.0084778 0.00175464,0.00866669 0.000982177,0.00878781 0.000202033,0.00884022 -0.000579691,0.0088235 -0.00135688,0.0087378 -0.00212346,0.00858377 -0.00287344,0.00836263 -0.00360095,0.0080761 -3.26459,6.52918 -0.00412828,0.00744612 -0.0047467,0.00706797 -0.00533072,0.00663859 -0.00587609,0.00616109 -0.00637887,0.00563892 -0.00683541,0.00507588 -0.0072424,0.00447605 -0.0075969,0.00384377 -0.00789632,0.00318363 -0.00813851,0.00250041 -0.00832171,0.00179907 -0.00844458,0.00108468 -0.00850624,0.000362437 0,-0.323607 3.10279,-6.20557 -3.10279,2.66454e-15 0,-0.2 z "/>
<path fill="rgb(241,240,234)" stroke="rgb(241,240,234)" d="M 3.56459,0.2 l 0,0.2 -3.10279,0 3.10279,6.20557 0,0.323607 -0.00850624,-0.000362437 -0.00844458,-0.00108468 -0.00832171,-0.00179907 -0.00813851,-0.00250041 -0.00789632,-0.00318363 -0.0075969,-0.00384377 -0.0072424,-0.00447605 -0.00683541,-0.00507588 -0.00637887,-0.00563892 -0.00587609,-0.00616109 -0.00533072,-0.00663859 -0.0047467,-0.00706797 -0.00412828,-0.00744612 -3.26459,-6.52918 -0.00360095,-0.0080761 -0.00287344,-0.00836263 -0.00212346,-0.00858377 -0.00135688,-0.0087378 -0.000579691,-0.0088235 0.000202033,-0.00884022 0.000982177,-0.00878781 0.00175464,-0.00866669 0.00251339,-0.0084778 0.00325248,-0.00822263 0.00396614,-0.00790316 0.00464879,-0.0075219 0.00529509,-0.00708183 0.00589999,-0.00658638 0.00645876,-0.00603943 0.00696702,-0.00544526 0.00742081,-0.00480851 0.00781658,-0.00413417 0.00815123,-0.0034275 0.00842214,-0.00269403 0.0086272,-0.0019395 0.00876481,-0.0011698 0.00883388,-0.000390951 3.26459,-8.88178e-16 z "/>
<path fill="rgb(42,41,42)" stroke="rgb(42,41,42)" d="M 3.26331,1.32379 l 0,0.100579 -1,-4.44089e-16 0,-0.100579 1,0 z M 2.88673,2.32379 l -0.118181,0 -0.0142276,-0.0474791 -0.0610216,-0.306281 0.331919,-0.299219 0.067888,-0.113164 0.170201,-0.0602091 0,0.0840797 -0.0585125,0.0206079 -0.0044073,0.00163631 -0.00425126,0.00200714 -0.00406409,0.00236327 -0.00384715,0.0027021 -0.00360203,0.00302113 -0.00333054,0.00331804 -0.00303465,0.00359065 -0.00271654,0.00383696 -0.00237854,0.00405517 -0.00202311,0.00424369 -0.00165287,0.00440112 -0.00127053,0.00452633 -0.000878876,0.00461838 -0.00048079,0.00467661 -7.9182e-05,0.00470059 0.000323006,0.00469015 0.000722828,0.00464536 0.00111736,0.00456655 0.0015037,0.00445429 0.00187903,0.00430942 0.0739927,0.209404 0.000690858,0.00220931 0.000771207,0.00218256 0.000850524,0.00215289 0.00241573,0.00513903 0.00286674,0.00490176 0.00329466,0.004625 0.00369604,0.004311 0.00240555,0.00234322 0,0.408032 -0.0458147,0 -0.0350031,-0.0995476 -0.114523,-0.422689 -0.243916,0.211225 0.0371151,0.213177 0.025563,0.0978344 z "/>
<path fill="rgb(42,41,42)" stroke="rgb(42,41,42)" d="M 3.2175,2.32379 l 0.0458147,0 0,0.130295 -0.0458147,-0.130295 z M 2.76855,2.32379 l 0.118181,0 0.0291391,0.111521 0.0719106,0.204085 0.0886217,0.197404 0.10472,0.189356 0.0821876,0.00320839 0,0.122257 -0.157627,-0.00979459 -0.144246,-0.276992 -0.11747,-0.289366 -0.0754178,-0.251678 z "/>
<path fill="rgb(42,41,42)" stroke="rgb(42,41,42)" d="M 4.26331,1.32379 l 0,0.100579 -0.370556,0 0.0578301,0.16596 0.000659832,0.00220372 0.000461895,0.00225353 0.000260322,0.0022856 5.66994e-05,0.00229968 -0.000147369,0.00229565 -0.000350278,0.00227355 -0.000550429,0.00223356 -0.000746247,0.00217597 -0.000936189,0.00210126 -0.00111876,0.00201 -0.00129253,0.00190292 -0.00145612,0.00178086 -0.00160824,0.00164478 -0.00174771,0.00149575 -0.00187341,0.00133495 -0.00198437,0.00116363 -0.0020797,0.000983153 -0.00215866,0.000794937 -0.254961,0.0899982 0.215022,0.61023 -0.630724,0 0,-0.408032 0.00166211,0.00161905 0.00440651,0.00358163 0.00470988,0.00317214 0.00497531,0.0027371 0.00520067,0.00228002 0.00538414,0.00180458 0.00552424,0.0013146 0.00561986,0.000814033 0.00567021,0.00030691 0.00567489,-0.000202686 0.00563386,-0.000710648 0.107603,-0.0185111 0.00433348,-0.000940643 0.00423566,-0.00131265 0.00410597,-0.00167477 0.00394539,-0.00202429 0.00375512,-0.00235859 0.0035366,-0.00267513 0.00329147,-0.00297155 0.00302157,-0.00324561 0.00272894,-0.00349525 0.00241577,-0.00371859 0.00208443,-0.00391396 0.0017374,-0.00407987 0.0013773,-0.00421508 0.00100684,-0.00431858 0.000628803,-0.00438959 0.000246034,-0.00442757 -0.000138586,-0.00443223 -0.000522163,-0.00440355 -0.000901811,-0.00434173 -0.00127467,-0.00424724 -0.0840176,-0.241391 -0.00198403,-0.00498638 -0.00241205,-0.004794 -0.00282163,-0.00456495 -0.00320963,-0.00430101 -0.00357309,-0.00400417 -0.00390924,-0.00367672 -0.00421549,-0.00332115 -0.0044895,-0.00294019 -0.00472919,-0.00253675 -0.00493272,-0.00211391 -0.00509853,-0.00167491 -0.00522536,-0.0012231 -0.00531223,-0.000761943 -0.00535849,-0.000294956 -0.00536377,0.000174286 -0.00532804,0.000642195 -0.00525156,0.00110519 -0.00513494,0.00155974 -0.0393115,0.0138454 0,-0.0840797 0.199443,-0.0705532 0.125728,0.0301838 0.0150817,0.0402314 0.208708,-0.0729322 -0.548961,-4.44089e-16 0,-0.100579 1,0 z "/>
<path fill="rgb(42,41,42)" stroke="rgb(42,41,42)" d="M 3.83239,3.07644 l 0.00498286,-0.00199285 0.00478972,-0.00242053 0.00455995,-0.00282971 0.00429532,-0.00321724 0.00399784,-0.00358018 0.00366979,-0.00391574 0.00331368,-0.00422136 0.00293224,-0.0044947 0.00252837,-0.00473368 0.00210518,-0.00493646 0.00166588,-0.00510149 0.00121385,-0.00522752 0.000752535,-0.00531357 0.000285467,-0.005359 -0.000183783,-0.00536345 -0.000651629,-0.00532689 -0.00111449,-0.0052496 -0.00156883,-0.00513217 -0.085336,-0.240928 -0.00166039,-0.00411181 -0.00201047,-0.00395245 -0.00234543,-0.00376336 -0.00266274,-0.00354594 -0.00296001,-0.00330185 -0.00323501,-0.00303291 -0.00348568,-0.00274116 -0.00371011,-0.00242877 -0.00390663,-0.00209812 -0.00407376,-0.00175167 -0.00421023,-0.00139205 -0.00431503,-0.00102195 -0.00438736,-0.000644167 -0.00442668,-0.000261534 -0.00443269,0.000123067 -0.00440535,0.000506743 -0.00434486,0.000886605 -0.00425168,0.0012598 -0.00412651,0.00162351 -0.00397029,0.00197501 -0.0955558,0.0528228 -0.00484144,0.00296747 -0.00455589,0.00338958 -0.00423366,0.00378439 -0.00387732,0.00414871 -0.00348976,0.00447962 -0.00307408,0.00477446 -0.00263365,0.00503083 -0.00217201,0.00524669 -0.00169287,0.0054203 -0.0012001,0.00555024 -0.000697666,0.00563548 -0.00018961,0.00567534 0.000319973,0.00566948 0.000826979,0.00561797 0.00132732,0.0055212 0.0754492,0.216249 0.00125712,0.00463113 0.00165647,0.00450375 0.00204319,0.00434201 0.00241431,0.00414714 0.00276702,0.00392063 0.00309861,0.0036642 0.00340655,0.00337981 0.00368851,0.00306963 0.00394232,0.00273603 0.00416604,0.00238155 0.00435798,0.0020089 0.00451667,0.00162092 0.00464089,0.00122057 0.00472971,0.000810913 0.00478243,0.000395066 0.00479866,-2.37962e-05 0.00477827,-0.000442477 0.00472143,-0.000857781 0.00462856,-0.00126654 0.100579,-0.0352076 z M 3.89403,2.32379 l 0.142047,0.403127 0.227229,-0.0802092 0,0.240372 -0.1518,0.0535794 0.0150817,0.0427484 -0.0804628,0.100579 -0.372151,0.130762 -0.123211,-0.0452655 -0.287456,-0.0178619 0,-0.122257 0.239674,0.00935625 -0.175225,-0.401345 -0.0644489,-0.18329 0,-0.130295 0.630724,0 z "/>
<path fill="rgb(42,41,42)" stroke="rgb(42,41,42)" d="M 4.26331,1.32379 l 0.630236,0 -1.77636e-15,0.100579 -0.630236,0 0,-0.100579 z "/>
<path fill="rgb(42,41,42)" stroke="rgb(42,41,42)" d="M 4.26331,2.64671 l 0.029241,-0.0103217 0.00220311,-0.000668805 0.00225393,-0.000469877 0.00228683,-0.000267212 0.00230154,-6.24219e-05 0.00229795,0.000142864 0.00227609,0.000347014 0.00223612,0.000548405 0.00217838,0.000745435 0.00210331,0.000936536 0.00201151,0.00112019 0.00190372,0.00129494 0.00178078,0.00145938 0.00164369,0.00161223 0.00149353,0.00175225 0.00133149,0.00187833 0.00115886,0.00198948 0.000977011,0.00208481 0.000787396,0.00216356 0.0573057,0.164455 0.000659737,0.00220353 0.000461741,0.00225336 0.000260107,0.00228542 5.64236e-05,0.00229949 -0.000147704,0.00229543 -0.000350668,0.00227329 -0.000550869,0.00223324 -0.00074673,0.00217559 -0.000936708,0.00210081 -0.00111931,0.00200947 -0.00129309,0.0019023 -0.00145668,0.00178014 -0.00160879,0.00164396 -0.00174823,0.00149483 -0.0018739,0.00133391 -0.0019848,0.00116249 -0.00208006,0.000981913 -0.00215894,0.000793596 -0.103153,0.036409 0,-0.240372 z "/>
<path fill="rgb(187,30,16)" stroke="rgb(187,30,16)" d="M 3.56459,5.04033 l 1.97016,-3.94033 -1.97016,-4.44089e-16 0,-0.7 3.10279,-2.66454e-15 -3.10279,6.20557 0,-1.56525 z "/>
<path fill="rgb(187,30,16)" stroke="rgb(187,30,16)" d="M 3.56459,0.2 l 0,-0.2 3.26459,-1.77636e-15 0.0265016,0.00117285 0.0262944,0.00350939 0.0258816,0.00581849 0.0252664,0.00808209 0.0244537,0.0102825 0.0234497,0.0124025 0.0222624,0.0144255 0.0209011,0.0163358 0.0193763,0.0181183 0.0177,0.0197591 0.0158853,0.0212455 0.0139464,0.0225657 0.0118984,0.0237095 0.00975744,0.0246679 0.00754016,0.0254334 0.00526392,0.0260001 0.00294653,0.0263634 0.000606098,0.0265207 -0.00173907,0.0264705 -0.00407065,0.0262134 -0.00637039,0.0257513 -0.00862033,0.0250879 -0.0108029,0.0242283 -3.26459,6.52918 -0.0123848,0.0223384 -0.0142401,0.0212039 -0.0159921,0.0199158 -0.0176283,0.0184833 -0.0191366,0.0169168 -0.0205062,0.0152277 -0.0217272,0.0134282 -0.0227907,0.0115313 -0.023689,0.00955089 -0.0244155,0.00750124 -0.0249651,0.00539721 -0.0253337,0.00325405 -0.0255187,0.00108731 0,-0.2 0.00850624,-0.000362437 0.00844458,-0.00108468 0.00832171,-0.00179907 0.00813851,-0.00250041 0.00789632,-0.00318363 0.0075969,-0.00384377 0.0072424,-0.00447605 0.00683541,-0.00507588 0.00637887,-0.00563892 0.00587609,-0.00616109 0.00533072,-0.00663859 0.0047467,-0.00706797 0.00412828,-0.00744612 3.26459,-6.52918 0.00360095,-0.0080761 0.00287344,-0.00836263 0.00212346,-0.00858377 0.00135688,-0.0087378 0.000579691,-0.0088235 -0.000202033,-0.00884022 -0.000982177,-0.00878781 -0.00175464,-0.00866669 -0.00251339,-0.0084778 -0.00325248,-0.00822263 -0.00396614,-0.00790316 -0.00464879,-0.0075219 -0.00529509,-0.00708183 -0.00589999,-0.00658638 -0.00645876,-0.00603943 -0.00696702,-0.00544526 -0.00742081,-0.00480851 -0.00781658,-0.00413417 -0.00815123,-0.0034275 -0.00842214,-0.00269403 -0.0086272,-0.0019395 -0.00876481,-0.0011698 -0.00883388,-0.000390951 -3.26459,0 z "/>
<path fill="rgb(187,30,16)" stroke="rgb(187,30,16)" d="M 3.56459,0.2 l -3.26459,8.88178e-16 -0.00883388,0.000390951 -0.00876481,0.0011698 -0.0086272,0.0019395 -0.00842214,0.00269403 -0.00815123,0.0034275 -0.00781658,0.00413417 -0.00742081,0.00480851 -0.00696702,0.00544526 -0.00645876,0.00603943 -0.00589999,0.00658638 -0.00529509,0.00708183 -0.00464879,0.0075219 -0.00396614,0.00790316 -0.00325248,0.00822263 -0.00251339,0.0084778 -0.00175464,0.00866669 -0.000982177,0.00878781 -0.000202033,0.00884022 0.000579691,0.0088235 0.00135688,0.0087378 0.00212346,0.00858377 0.00287344,0.00836263 0.00360095,0.0080761 3.26459,6.52918 0.00412828,0.00744612 0.0047467,0.00706797 0.00533072,0.00663859 0.00587609,0.00616109 0.00637887,0.00563892 0.00683541,0.00507588 0.0072424,0.00447605 0.0075969,0.00384377 0.00789632,0.00318363 0.00813851,0.00250041 0.00832171,0.00179907 0.00844458,0.00108468 0.00850624,0.000362437 0,0.2 -0.0255187,-0.00108731 -0.0253337,-0.00325405 -0.0249651,-0.00539721 -0.0244155,-0.00750124 -0.023689,-0.00955089 -0.0227907,-0.0115313 -0.0217272,-0.0134282 -0.0205062,-0.0152277 -0.0191366,-0.0169168 -0.0176283,-0.0184833 -0.0159921,-0.0199158 -0.0142401,-0.0212039 -0.0123848,-0.0223384 -3.26459,-6.52918 -0.0108029,-0.0242283 -0.00862033,-0.0250879 -0.00637039,-0.0257513 -0.00407065,-0.0262134 -0.00173907,-0.0264705 0.000606098,-0.0265207 0.00294653,-0.0263634 0.00526392,-0.0260001 0.00754016,-0.0254334 0.00975744,-0.0246679 0.0118984,-0.0237095 0.0139464,-0.0225657 0.0158853,-0.0212455 0.0177,-0.0197591 0.0193763,-0.0181183 0.0209011,-0.0163358 0.0222624,-0.0144255 0.0234497,-0.0124025 0.0244537,-0.0102825 0.0252664,-0.00808209 0.0258816,-0.00581849 0.0262944,-0.00350939 0.0265016,-0.00117285 3.26459,0 0,0.2 z "/>
<path fill="rgb(187,30,16)" stroke="rgb(187,30,16)" d="M 3.56459,5.04033 l 0,1.56525 -3.10279,-6.20557 3.10279,0 0,0.7 -1.97016,4.44089e-16 1.97016,3.94033 z "/>
</g></g></svg>
