<?xml version="1.0" encoding="UTF-8" standalone="no"?>
<!DOCTYPE svg PUBLIC "-//W3C//DTD SVG 1.1//EN" "http://www.w3.org/Graphics/SVG/1.1/DTD/svg11-flat.dtd"
[

]>
<svg xmlns="http://www.w3.org/2000/svg"  viewBox="-0.0583333 -0.0583333 7.61667 3.61667"><g fill="none" stroke="black" stroke-width="0.0125" transform="translate(0,3.5) scale(1, -1)">
<g id="Output" >
<path fill="rgb(241,240,234)" stroke="rgb(241,240,234)" d="M 3.75,3.3 l 0,-0.2 3.05,4.44089e-16 0.0261467,-0.00114159 0.0259477,-0.00341608 0.0255513,-0.00566458 0.0249603,-0.00786996 0.0241794,-0.0100155 0.0232145,-0.0120847 0.0220729,-0.014062 0.0207634,-0.0159323 0.0192958,-0.0176813 0.0176813,-0.0192958 0.0159323,-0.0207634 0.014062,-0.0220729 0.0120847,-0.0232145 0.0100155,-0.0241794 0.00786996,-0.0249603 0.00566458,-0.0255513 0.00341608,-0.0259477 0.00114159,-0.0261467 8.88178e-16,-2.1 -0.00114159,-0.0261467 -0.00341608,-0.0259477 -0.00566458,-0.0255513 -0.00786996,-0.0249603 -0.0100155,-0.0241794 -0.0120847,-0.0232145 -0.014062,-0.0220729 -0.0159323,-0.0207634 -0.0176813,-0.0192958 -0.0192958,-0.0176813 -0.0207634,-0.0159323 -0.0220729,-0.014062 -0.0232145,-0.0120847 -0.0241794,-0.0100155 -0.0249603,-0.00786996 -0.0255513,-0.00566458 -0.0259477,-0.00341608 -0.0261467,-0.00114159 -3.05,-4.44089e-16 -4.44089e-16,-0.2 3.05,4.44089e-16 0.0435779,0.00190265 0.0432462,0.00569347 0.0425854,0.00944096 0.0416005,0.0131166 0.0402991,0.0166924 0.0386909,0.0201412 0.0367882,0.0234367 0.0346056,0.0265538 0.0321596,0.0294688 0.0294688,0.0321596 0.0265538,0.0346056 0.0234367,0.0367882 0.0201412,0.0386909 0.0166924,0.0402991 0.0131166,0.0416005 0.00944096,0.0425854 0.00569347,0.0432462 0.00190265,0.0435779 -8.88178e-16,2.1 -0.00190265,0.0435779 -0.00569347,0.0432462 -0.00944096,0.0425854 -0.0131166,0.0416005 -0.0166924,0.0402991 -0.0201412,0.0386909 -0.0234367,0.0367882 -0.0265538,0.0346056 -0.0294688,0.0321596 -0.0321596,0.0294688 -0.0346056,0.0265538 -0.0367882,0.0234367 -0.0386909,0.0201412 -0.0402991,0.0166924 -0.0416005,0.0131166 -0.0425854,0.00944096 -0.0432462,0.00569347 -0.0435779,0.00190265 -3.05,-4.44089e-16 z "/>
<path fill="rgb(241,240,234)" stroke="rgb(241,240,234)" d="M 0.7,0.4 l -0.0261467,0.00114159 -0.0259477,0.00341608 -0.0255513,0.00566458 -0.0249603,0.00786996 -0.0241794,0.0100155 -0.0232145,0.0120847 -0.0220729,0.014062 -0.0207634,0.0159323 -0.0192958,0.0176813 -0.0176813,0.0192958 -0.0159323,0.0207634 -0.014062,0.0220729 -0.0120847,0.0232145 -0.0100155,0.0241794 -0.00786996,0.0249603 -0.00566458,0.0255513 -0.00341608,0.0259477 -0.00114159,0.0261467 -8.88178e-16,2.1 0.00114159,0.0261467 0.00341608,0.0259477 0.00566458,0.0255513 0.00786996,0.0249603 0.0100155,0.0241794 0.0120847,0.0232145 0.014062,0.0220729 0.0159323,0.0207634 0.0176813,0.0192958 0.0192958,0.0176813 0.0207634,0.0159323 0.0220729,0.014062 0.0232145,0.0120847 0.0241794,0.0100155 0.0249603,0.00786996 0.0255513,0.00566458 0.0259477,0.00341608 0.0261467,0.00114159 3.05,4.44089e-16 0,0.2 -3.05,-4.44089e-16 -0.0435779,-0.00190265 -0.0432462,-0.00569347 -0.0425854,-0.00944096 -0.0416005,-0.0131166 -0.0402991,-0.0166924 -0.0386909,-0.0201412 -0.0367882,-0.0234367 -0.0346056,-0.0265538 -0.0321596,-0.0294688 -0.0294688,-0.0321596 -0.0265538,-0.0346056 -0.0234367,-0.0367882 -0.0201412,-0.0386909 -0.0166924,-0.0402991 -0.0131166,-0.0416005 -0.00944096,-0.0425854 -0.00569347,-0.0432462 -0.00190265,-0.0435779 8.88178e-16,-2.1 0.00190265,-0.0435779 0.00569347,-0.0432462 0.00944096,-0.0425854 0.0131166,-0.0416005 0.0166924,-0.0402991 0.0201412,-0.0386909 0.0234367,-0.0367882 0.0265538,-0.0346056 0.0294688,-0.0321596 0.0321596,-0.0294688 0.0346056,-0.0265538 0.0367882,-0.0234367 0.0386909,-0.0201412 0.0402991,-0.0166924 0.0416005,-0.0131166 0.0425854,-0.00944096 0.0432462,-0.00569347 0.0435779,-0.00190265 3.05,-4.44089e-16 4.44089e-16,0.2 -3.05,4.44089e-16 z "/>
<path fill="rgb(0,91,140)" stroke="rgb(0,91,140)" d="M 0.7,0.4 l 3.05,-4.44089e-16 3.05,4.44089e-16 0.0261467,0.00114159 0.0259477,0.00341608 0.0255513,0.00566458 0.0249603,0.00786996 0.0241794,0.0100155 0.0232145,0.0120847 0.0220729,0.014062 0.0207634,0.0159323 0.0192958,0.0176813 0.0176813,0.0192958 0.0159323,0.0207634 0.014062,0.0220729 0.0120847,0.0232145 0.0100155,0.0241794 0.00786996,0.0249603 0.00566458,0.0255513 0.00341608,0.0259477 0.00114159,0.0261467 -8.88178e-16,2.1 -0.00114159,0.0261467 -0.00341608,0.0259477 -0.00566458,0.0255513 -0.00786996,0.0249603 -0.0100155,0.0241794 -0.0120847,0.0232145 -0.014062,0.0220729 -0.0159323,0.0207634 -0.0176813,0.0192958 -0.0192958,0.0176813 -0.0207634,0.0159323 -0.0220729,0.014062 -0.0232145,0.0120847 -0.0241794,0.0100155 -0.0249603,0.00786996 -0.0255513,0.00566458 -0.0259477,0.00341608 -0.0261467,0.00114159 -3.05,-4.44089e-16 -3.05,-4.44089e-16 -0.0261467,-0.00114159 -0.0259477,-0.00341608 -0.0255513,-0.00566458 -0.0249603,-0.00786996 -0.0241794,-0.0100155 -0.0232145,-0.0120847 -0.0220729,-0.014062 -0.0207634,-0.0159323 -0.0192958,-0.0176813 -0.0176813,-0.0192958 -0.0159323,-0.0207634 -0.014062,-0.0220729 -0.0120847,-0.0232145 -0.0100155,-0.0241794 -0.00786996,-0.0249603 -0.00566458,-0.0255513 -0.00341608,-0.0259477 -0.00114159,-0.0261467 8.88178e-16,-2.1 0.00114159,-0.0261467 0.00341608,-0.0259477 0.00566458,-0.0255513 0.00786996,-0.0249603 0.0100155,-0.0241794 0.0120847,-0.0232145 0.014062,-0.0220729 0.0159323,-0.0207634 0.0176813,-0.0192958 0.0192958,-0.0176813 0.0207634,-0.0159323 0.0220729,-0.014062 0.0232145,-0.0120847 0.0241794,-0.0100155 0.0249603,-0.00786996 0.0255513,-0.00566458 0.0259477,-0.00341608 0.0261467,-0.00114159 z "/>
<path fill="rgb(0,91,140)" stroke="rgb(0,91,140)" d="M 3.75,3.5 l 0,-0.2 3.05,4.44089e-16 0.0435779,-0.00190265 0.0432462,-0.00569347 0.0425854,-0.00944096 0.0416005,-0.0131166 0.0402991,-0.0166924 0.0386909,-0.0201412 0.0367882,-0.0234367 0.0346056,-0.0265538 0.0321596,-0.0294688 0.0294688,-0.0321596 0.0265538,-0.0346056 0.0234367,-0.0367882 0.0201412,-0.0386909 0.0166924,-0.0402991 0.0131166,-0.0416005 0.00944096,-0.0425854 0.00569347,-0.0432462 0.00190265,-0.0435779 8.88178e-16,-2.1 -0.00190265,-0.0435779 -0.00569347,-0.0432462 -0.00944096,-0.0425854 -0.0131166,-0.0416005 -0.0166924,-0.0402991 -0.0201412,-0.0386909 -0.0234367,-0.0367882 -0.0265538,-0.0346056 -0.0294688,-0.0321596 -0.0321596,-0.0294688 -0.0346056,-0.0265538 -0.0367882,-0.0234367 -0.0386909,-0.0201412 -0.0402991,-0.0166924 -0.0416005,-0.0131166 -0.0425854,-0.00944096 -0.0432462,-0.00569347 -0.0435779,-0.00190265 -3.05,-4.44089e-16 0,-0.2 3.05,0 0.061009,0.00266371 0.0605447,0.00797086 0.0596196,0.0132173 0.0582408,0.0183632 0.0564187,0.0233694 0.0541672,0.0281977 0.0515035,0.0328114 0.0484478,0.0371753 0.0450234,0.0412564 0.0412564,0.0450234 0.0371753,0.0484478 0.0328114,0.0515035 0.0281977,0.0541672 0.0233694,0.0564187 0.0183632,0.0582408 0.0132173,0.0596196 0.00797086,0.0605447 0.00266371,0.061009 0,2.1 -0.00266371,0.061009 -0.00797086,0.0605447 -0.0132173,0.0596196 -0.0183632,0.0582408 -0.0233694,0.0564187 -0.0281977,0.0541672 -0.0328114,0.0515035 -0.0371753,0.0484478 -0.0412564,0.0450234 -0.0450234,0.0412564 -0.0484478,0.0371753 -0.0515035,0.0328114 -0.0541672,0.0281977 -0.0564187,0.0233694 -0.0582408,0.0183632 -0.0596196,0.0132173 -0.0605447,0.00797086 -0.061009,0.00266371 -3.05,-4.44089e-16 z "/>
<path fill="rgb(0,91,140)" stroke="rgb(0,91,140)" d="M 3.75,3.5 l -3.05,-4.44089e-16 -0.061009,-0.00266371 -0.0605447,-0.00797086 -0.0596196,-0.0132173 -0.0582408,-0.0183632 -0.0564187,-0.0233694 -0.0541672,-0.0281977 -0.0515035,-0.0328114 -0.0484478,-0.0371753 -0.0450234,-0.0412564 -0.0412564,-0.0450234 -0.0371753,-0.0484478 -0.0328114,-0.0515035 -0.0281977,-0.0541672 -0.0233694,-0.0564187 -0.0183632,-0.0582408 -0.0132173,-0.0596196 -0.00797086,-0.0605447 -0.00266371,-0.061009 8.88178e-16,-2.1 0.00266371,-0.061009 0.00797086,-0.0605447 0.0132173,-0.0596196 0.0183632,-0.0582408 0.0233694,-0.0564187 0.0281977,-0.0541672 0.0328114,-0.0515035 0.0371753,-0.0484478 0.0412564,-0.0450234 0.0450234,-0.0412564 0.0484478,-0.0371753 0.0515035,-0.0328114 0.0541672,-0.0281977 0.0564187,-0.0233694 0.0582408,-0.0183632 0.0596196,-0.0132173 0.0605447,-0.00797086 0.061009,-0.00266371 3.05,0 0,0.2 -3.05,4.44089e-16 -0.0435779,0.00190265 -0.0432462,0.00569347 -0.0425854,0.00944096 -0.0416005,0.0131166 -0.0402991,0.0166924 -0.0386909,0.0201412 -0.0367882,0.0234367 -0.0346056,0.0265538 -0.0321596,0.0294688 -0.0294688,0.0321596 -0.0265538,0.0346056 -0.0234367,0.0367882 -0.0201412,0.0386909 -0.0166924,0.0402991 -0.0131166,0.0416005 -0.00944096,0.0425854 -0.00569347,0.0432462 -0.00190265,0.0435779 -8.88178e-16,2.1 0.00190265,0.0435779 0.00569347,0.0432462 0.00944096,0.0425854 0.0131166,0.0416005 0.0166924,0.0402991 0.0201412,0.0386909 0.0234367,0.0367882 0.0265538,0.0346056 0.0294688,0.0321596 0.0321596,0.0294688 0.0346056,0.0265538 0.0367882,0.0234367 0.0386909,0.0201412 0.0402991,0.0166924 0.0416005,0.0131166 0.0425854,0.00944096 0.0432462,0.00569347 0.0435779,0.00190265 3.05,4.44089e-16 0,0.2 z "/>
<path fill="rgb(241,240,234)" stroke="rgb(241,240,234)" d="M 6.6196,2.36964 l -0.220301,-0.0790258 0,-0.320077 -0.386299,-0.0247232 -0.0313454,-0.0379677 -0.0211913,-0.0304625 -0.0216328,-0.0370847 0.325816,-0.00794673 0.0379677,-0.0057393 0.0353188,-0.0172179 0.0322284,-0.029138 0.029138,-0.0406166 0,-0.302417 -0.00264891,-0.00529782 -0.0264891,-0.0397336 -0.0309039,-0.028255 -0.0348773,-0.0172179 -0.0397336,-0.0057393 -0.308157,-0.0348773 0.0251646,-0.0348773 0.0225157,-0.0269306 0.395129,-0.0309039 0,-0.0631324 0.220301,0 0,1.21938 z "/>
<path fill="rgb(241,240,234)" stroke="rgb(241,240,234)" d="M 6.22801,2.04779 l -0.0335529,-0.00220742 -0.0392922,-0.00794673 -0.0379677,-0.013686 -0.0362018,-0.0203083 -0.0348773,-0.0260476 -0.0331114,-0.0317869 0.386299,0.0247232 -0.00927118,0.0088297 -0.0392922,0.0317869 -0.030021,0.0189839 -0.00441485,0.00220742 -0.0384092,0.0114786 -0.0498878,0.00397336 z "/>
<path fill="rgb(241,240,234)" stroke="rgb(241,240,234)" d="M 5.93883,1.8403 l -0.0185424,-0.0384092 -0.0150105,-0.0401751 -0.0119201,-0.0419411 -0.00794673,-0.043707 -0.00529782,-0.0450315 -0.00176594,-0.0467974 0.00088297,-0.0304625 0.00397336,-0.045473 0.00750524,-0.043707 0.0114786,-0.0423826 0.014569,-0.0401751 0.0181009,-0.0388507 0.0216328,-0.0370847 0.308157,0.0348773 -0.0207498,0.00132445 -0.0392922,0.0119201 -0.0348773,0.0233987 -0.0309039,0.0353188 -0.00441485,0.00662227 -0.0203083,0.0366433 -0.0141275,0.0401751 -0.0088297,0.043707 -0.00264891,0.0476804 0,0.00971267 0.00397336,0.0463559 0.00971267,0.0432655 0.015452,0.0392922 0.0211913,0.0362018 0.014569,0.0181009 0.0322284,0.0286965 0.0375262,0.0172179 0.0414996,0.0057393 -0.325816,0.00794673 z "/>
<path fill="rgb(241,240,234)" stroke="rgb(241,240,234)" d="M 6.00417,1.24429 l 0.0335529,-0.0322284 0.0348773,-0.0269306 0.0362018,-0.0203083 0.0384092,-0.0150105 0.0397336,-0.0088297 0.0410581,-0.00264891 0.00706376,0 0.0476804,0.00441485 0.0379677,0.0110371 0.00441485,0.00220742 0.0295795,0.0207498 0.04459,0.0366433 -0.395129,0.0309039 z "/>
<path fill="rgb(241,240,234)" stroke="rgb(241,240,234)" d="M 5.36623,2.04779 l -0.0233987,-0.000441485 -0.0414996,-0.00353188 -0.0414996,-0.00662227 -0.0423826,-0.00927118 -0.0419411,-0.0128031 -0.042824,-0.0158935 -0.042824,-0.0185424 -0.0432655,-0.0220742 0.08918,-0.185424 0.00971267,0.0057393 0.0397336,0.0220742 0.0410581,0.0167764 0.0414996,0.0119201 0.042824,0.00750524 0.043707,0.00220742 0.328465,0.0322284 -0.0163349,0.0335529 -0.0198668,0.030021 -0.0233987,0.0260476 -0.0264891,0.0229572 -0.030021,0.0194253 -0.0335529,0.0158935 -0.0366433,0.0123616 -0.0401751,0.0088297 -0.0432655,0.00529782 -0.0467974,0.00176594 z "/>
<path fill="rgb(241,240,234)" stroke="rgb(241,240,234)" d="M 5.68277,1.87164 l -0.328465,-0.0322284 0.0397336,-0.00309039 0.0384092,-0.0114786 0.0313454,-0.0198668 0.0238402,-0.0278136 0.0163349,-0.0362018 0.00927118,-0.0450315 -0.396454,-0.0105956 -0.0335529,-0.0207498 -0.0304625,-0.0256061 -0.0260476,-0.0313454 -0.0203083,-0.0357603 0.321401,-0.0225157 0.0114786,-0.000441485 0.0414996,-0.00353188 0.0423826,-0.00750524 0.0441485,-0.0123616 0.0459144,-0.0167764 0,-0.134653 -0.0225157,-0.00927118 -0.0472389,-0.0172179 -0.0432655,-0.0123616 -0.0406166,-0.00750524 -0.0370847,-0.00264891 -0.316986,-0.0233987 0.0189839,-0.0362018 0.0238402,-0.0326699 0.0295795,-0.028255 0.0110371,-0.00838821 0.424267,-0.00750524 0,-0.0384092 0.202642,0 0,0.530223 -0.000441485,0.0220742 -0.00309039,0.0476804 -0.00618079,0.0441485 -0.0101542,0.0401751 -0.0132445,0.0370847 z "/>
<path fill="rgb(241,240,234)" stroke="rgb(241,240,234)" d="M 5.31722,1.72772 l -0.030021,-0.00088297 -0.0476804,-0.00441485 -0.04459,-0.00838821 -0.0406166,-0.0123616 -0.0375262,-0.0163349 0.396454,0.0105956 -0.0198668,0.00662227 -0.042824,0.0110371 -0.043707,0.00750524 -0.04459,0.00485633 -0.0450315,0.00176594 z "/>
<path fill="rgb(241,240,234)" stroke="rgb(241,240,234)" d="M 5.00642,1.57187 l -0.014569,-0.0392922 -0.0088297,-0.0441485 -0.00309039,-0.0476804 0,-0.00529782 0.00353188,-0.0485633 0.00838821,-0.04459 0.013686,-0.0406166 0.316986,0.0233987 -0.0339943,0.00264891 -0.0419411,0.0114786 -0.0339943,0.0211913 -0.00529782,0.00441485 -0.0260476,0.0357603 -0.0088297,0.0401751 0,0.00485633 0.0114786,0.0392922 0.0304625,0.0326699 0.0242817,0.014569 0.0406166,0.0128031 0.0485633,0.00441485 -0.321401,0.0225157 z "/>
<path fill="rgb(241,240,234)" stroke="rgb(241,240,234)" d="M 5.08897,1.19617 l 0.0348773,-0.0220742 0.0379677,-0.0172179 0.0414996,-0.0123616 0.0450315,-0.00750524 0.0481219,-0.00220742 0.00441485,0 0.0459144,0.00220742 0.0441485,0.00662227 0.0423826,0.0110371 0.0406166,0.0150105 0.0392922,0.0189839 -0.424267,0.00750524 z "/>
<path fill="rgb(241,240,234)" stroke="rgb(241,240,234)" d="M 4.49783,2.03896 l -0.0141275,-0.000441485 -0.0476804,-0.00485633 -0.0362018,-0.0123616 -0.0057393,-0.00264891 -0.0317869,-0.0207498 -0.042824,-0.0339943 0.40131,-0.0317869 -0.0331114,0.0326699 -0.0348773,0.0264891 -0.0362018,0.0207498 -0.0379677,0.0150105 -0.0397336,0.0088297 -0.0410581,0.00309039 z "/>
<path fill="rgb(241,240,234)" stroke="rgb(241,240,234)" d="M 4.31947,2.0266 l -0.215003,0 0,-1.23483 0.215003,0.0803503 0,0.341268 0.393363,0.0189839 0.0313454,0.0370847 0.0194253,0.0269306 0.0225157,0.0370847 -0.328906,0.00750524 -0.0366433,0.00353188 -0.0366433,0.0158935 -0.00618079,0.00485633 -0.0269306,0.0286965 -0.0313454,0.0432655 0,0.286965 0.0105956,0.0229572 0.0251646,0.0388507 0.030021,0.0278136 0.0339943,0.0167764 0.0379677,0.00529782 0.31213,0.0326699 -0.0251646,0.0357603 -0.0233987,0.0278136 -0.40131,0.0317869 0,0.0626909 z "/>
<path fill="rgb(241,240,234)" stroke="rgb(241,240,234)" d="M 4.76934,1.86855 l -0.31213,-0.0326699 0.0242817,-0.00176594 0.0388507,-0.0119201 0.0353188,-0.0233987 0.0309039,-0.0344358 0.00662227,-0.00927118 0.0211913,-0.0370847 0.014569,-0.0401751 0.0088297,-0.0432655 0.00309039,-0.0467974 0,-0.0110371 -0.00441485,-0.0459144 -0.0105956,-0.0423826 -0.0163349,-0.0392922 -0.0229572,-0.0362018 -0.0172179,-0.0211913 -0.0335529,-0.028255 -0.0370847,-0.0167764 -0.0414996,-0.0057393 0.328906,-0.00750524 0.0194253,0.0388507 0.015452,0.0397336 0.0123616,0.0419411 0.0088297,0.042824 0.00485633,0.04459 0.00176594,0.0463559 -0.00088297,0.0339943 -0.00441485,0.0450315 -0.00750524,0.0432655 -0.0114786,0.0419411 -0.0150105,0.0406166 -0.0181009,0.0388507 -0.0220742,0.0370847 z "/>
<path fill="rgb(241,240,234)" stroke="rgb(241,240,234)" d="M 4.71283,1.23237 l -0.393363,-0.0189839 0.013686,-0.0110371 0.0423826,-0.0331114 0.0242817,-0.0172179 0.00838821,-0.00353188 0.0392922,-0.0105956 0.0503293,-0.00309039 0.0313454,0.00132445 0.0401751,0.00750524 0.0384092,0.0132445 0.0366433,0.0194253 0.0348773,0.0251646 0.0335529,0.0309039 z "/>
<path fill="rgb(241,240,234)" stroke="rgb(241,240,234)" d="M 3.58881,2.0425 l -0.0450315,-0.00132445 -0.0476804,-0.00529782 -0.0441485,-0.0088297 -0.0401751,-0.0128031 -0.0366433,-0.0163349 -0.0331114,-0.0203083 -0.0295795,-0.0247232 -0.0273721,-0.0326699 -0.0198668,-0.0366433 -0.0119201,-0.0401751 0.340826,-0.00750524 0.00397336,0 0.0432655,-0.00220742 0.042824,-0.00618079 0.0423826,-0.0101542 0.0419411,-0.013686 0.0414996,-0.0176594 0.0410581,-0.0216328 0.0785843,0.190722 -0.00088297,0.000441485 -0.0414996,0.0203083 -0.0419411,0.0176594 -0.0419411,0.0150105 -0.0423826,0.0123616 -0.042824,0.00927118 -0.042824,0.00706376 -0.0432655,0.00397336 -0.0432655,0.00132445 z "/>
<path fill="rgb(241,240,234)" stroke="rgb(241,240,234)" d="M 3.25328,1.84339 l -0.00353188,-0.0441485 0,-0.0088297 0.00485633,-0.043707 0.0123616,-0.0401751 0.0189839,-0.0370847 0.0264891,-0.0335529 0.0331114,-0.0309039 0.00485633,-0.00353188 0.0273721,-0.0176594 0.0326699,-0.0176594 0.0384092,-0.0167764 0.04459,-0.0167764 0.0498878,-0.0163349 0.0556271,-0.0158935 0.0163349,-0.00485633 0.0578345,-0.0167764 0.0203083,-0.00662227 0.0119201,-0.0057393 0.0331114,-0.0278136 0.0110371,-0.0362018 -0.00176594,-0.0123616 -0.0150105,-0.0216328 -0.0309039,-0.0150105 -0.0459144,-0.00927118 -0.0618079,-0.00309039 0.350981,-0.0357603 0.0105956,0.0419411 0.00353188,0.0463559 0,0.00220742 -0.00264891,0.0370847 -0.00750524,0.0348773 -0.0119201,0.0326699 -0.0167764,0.030021 -0.0216328,0.028255 -0.0264891,0.0256061 -0.0309039,0.0238402 -0.0357603,0.0211913 -0.0406166,0.0194253 -0.045473,0.0167764 -0.0498878,0.014569 -0.0547441,0.0123616 -0.0498878,0.0114786 -0.043707,0.0123616 -0.0286965,0.0114786 -0.0150105,0.0105956 -0.014569,0.0384092 0.00706376,0.0242817 0.0238402,0.0194253 0.0414996,0.0119201 0.0587175,0.00353188 -0.340826,0.00750524 z "/>
<path fill="rgb(241,240,234)" stroke="rgb(241,240,234)" d="M 3.30714,1.40234 l -0.0785843,-0.188956 0.0256061,-0.0119201 0.0384092,-0.0158935 0.0397336,-0.0132445 0.0414996,-0.0114786 0.042824,-0.00971267 0.0441485,-0.00706376 0.0459144,-0.00529782 0.0472389,-0.00309039 0.0485633,-0.00088297 0.015452,0 0.0512123,0.00264891 0.0467974,0.00618079 0.0432655,0.00971267 0.0397336,0.0128031 0.0357603,0.0167764 0.0317869,0.0198668 0.00441485,0.00309039 0.0317869,0.0286965 0.0247232,0.0331114 0.0176594,0.0375262 -0.350981,0.0357603 -0.0304625,0.00132445 -0.0410581,0.00485633 -0.0459144,0.00927118 -0.0503293,0.0123616 -0.0362018,0.00971267 -0.043707,0.0119201 -0.0392922,0.0119201 z "/>
<path fill="rgb(241,240,234)" stroke="rgb(241,240,234)" d="M 2.97691,2.36964 l -0.218535,-0.0790258 0,-0.269306 -0.143483,0 0,-0.200876 0.143483,0 0,-0.421618 0.00132445,-0.0388507 0.00662227,-0.0463559 0.306832,0.0309039 -0.0220742,0.00176594 -0.0326699,0.0132445 -0.0229572,0.0256061 -0.0141275,0.0384092 -0.00441485,0.0503293 0,0.346566 0.180126,0 0,0.200876 -0.180126,0 0,0.348332 z "/>
<path fill="rgb(241,240,234)" stroke="rgb(241,240,234)" d="M 3.17072,1.38998 l -0.0207498,-0.0167764 -0.0388507,-0.0216328 -0.0379677,-0.00706376 -0.306832,-0.0309039 0.0114786,-0.0419411 0.0167764,-0.0375262 0.0216328,-0.0331114 0.00618079,-0.00750524 0.0304625,-0.0278136 0.0357603,-0.0203083 0.0414996,-0.0119201 0.0467974,-0.00397336 0.0309039,0.00176594 0.0414996,0.00794673 0.042824,0.014569 0.043707,0.0211913 0.0348773,0.215003 z "/>
<path fill="rgb(241,240,234)" stroke="rgb(241,240,234)" d="M 2.18665,2.03896 l -0.00397336,0 -0.043707,-0.00309039 -0.0414996,-0.00838821 -0.0392922,-0.013686 -0.0375262,-0.0185424 -0.0353188,-0.0238402 -0.0331114,-0.029138 -0.0309039,-0.0344358 -0.0225157,-0.0295795 -0.0229572,-0.0362018 -0.0189839,-0.0379677 -0.0158935,-0.0397336 -0.0123616,-0.0414996 -0.0088297,-0.0432655 0.215003,0.00971267 0.0132445,0.0432655 0.0194253,0.0406166 0.0242817,0.0313454 0.0295795,0.0225157 0.0344358,0.0132445 0.0397336,0.00441485 0.27946,0.028255 -0.0225157,0.0313454 -0.00441485,0.0057393 -0.0309039,0.0339943 -0.0326699,0.029138 -0.0353188,0.0238402 -0.0370847,0.0181009 -0.0397336,0.0132445 -0.0414996,0.00794673 -0.0441485,0.00264891 z "/>
<path fill="rgb(241,240,234)" stroke="rgb(241,240,234)" d="M 2.47494,1.87297 l -0.27946,-0.028255 0.013686,-0.000441485 0.0441485,-0.00927118 0.0331114,-0.0216328 0.00264891,-0.00309039 0.0203083,-0.0286965 0.0189839,-0.0401751 0.0176594,-0.0520952 -0.311247,0 -0.215003,-0.00971267 -0.00529782,-0.0450315 -0.00176594,-0.0467974 0.00176594,-0.0467974 0.00529782,-0.045473 0.00838821,-0.0432655 0.0119201,-0.0419411 0.015452,-0.0397336 0.0189839,-0.0379677 0.0225157,-0.0362018 0.298444,0.0304625 -0.0278136,0.00309039 -0.0392922,0.014569 -0.0357603,0.0278136 -0.00220742,0.00220742 -0.0260476,0.0331114 -0.0198668,0.0388507 -0.0132445,0.0450315 -0.0088297,0.0295795 0.53508,0 0,0.0631324 -0.00176594,0.0414996 -0.0057393,0.043707 -0.00927118,0.043707 -0.0132445,0.0441485 -0.0123616,0.0353188 -0.0194253,0.0432655 -0.0207498,0.0370847 z "/>
<path fill="rgb(241,240,234)" stroke="rgb(241,240,234)" d="M 2.33367,1.39881 l -0.0247232,-0.0242817 -0.0370847,-0.0264891 -0.0379677,-0.0158935 -0.0384092,-0.00529782 -0.298444,-0.0304625 0.0256061,-0.0339943 0.00794673,-0.0088297 0.0317869,-0.0331114 0.0339943,-0.0278136 0.0357603,-0.0229572 0.0379677,-0.0176594 0.0397336,-0.0123616 0.0419411,-0.00794673 0.043707,-0.00220742 0.0141275,0 0.0432655,0.00441485 0.0410581,0.0088297 0.0392922,0.0141275 0.0370847,0.0194253 0.0353188,0.0242817 0.0331114,0.029138 0.0313454,0.0344358 0.00706376,0.0088297 -0.143483,0.125823 z "/>
<path fill="rgb(241,240,234)" stroke="rgb(241,240,234)" d="M 1.52442,2.36964 l -0.0419411,-0.00750524 -0.0366433,-0.0225157 -0.0229572,-0.030021 -0.0088297,-0.0432655 0.00794673,-0.0432655 0.0238402,-0.0353188 0.0353188,-0.0238402 0.0432655,-0.00794673 0.0406166,0.00838821 0.0362018,0.0251646 0.0233987,0.0339943 0.00794673,0.042824 -0.00662227,0.0370847 -0.0247232,0.0362018 -0.0331114,0.0220742 -0.043707,0.00794673 z "/>
<path fill="rgb(241,240,234)" stroke="rgb(241,240,234)" d="M 1.63259,2.0266 l -0.213237,0 0,-0.876348 0.213237,0 0,0.876348 z "/>
<path fill="rgb(241,240,234)" stroke="rgb(241,240,234)" d="M 1.15358,2.35021 l -0.0344358,-0.00132445 -0.0423826,-0.00706376 -0.0366433,-0.0128031 -0.0309039,-0.0185424 -0.0256061,-0.0242817 -0.0194253,-0.030021 -0.0141275,-0.0357603 -0.00838821,-0.0414996 0.275045,-0.0229572 0.0198668,-0.000441485 0.04459,-0.00485633 0,0.190722 -0.042824,0.00441485 -0.0450315,0.00353188 -0.0397336,0.00088297 z "/>
<path fill="rgb(241,240,234)" stroke="rgb(241,240,234)" d="M 0.941664,2.17891 l -0.00309039,-0.0472389 0,-0.110371 -0.111696,0 0,-0.206173 0.111696,0 0,-0.664876 0.211471,0 0,0.664876 0.131121,0 0,0.206173 -0.131121,0 0,0.0543027 0.00706376,0.043707 0.0225157,0.0278136 0.0370847,0.0088297 -0.275045,0.0229572 z "/>
</g></g></svg>
