<?xml version="1.0" encoding="UTF-8" standalone="no"?>
<!DOCTYPE svg PUBLIC "-//W3C//DTD SVG 1.1//EN" "http://www.w3.org/Graphics/SVG/1.1/DTD/svg11-flat.dtd"
[

]>
<svg xmlns="http://www.w3.org/2000/svg"  viewBox="-0.125 -0.125 10.25 7.75"><g fill="none" stroke="black" stroke-width="0.0125" transform="translate(0,7.5) scale(1, -1)">
<g id="Output" >
<path fill="rgb(0,91,140)" stroke="rgb(0,91,140)" d="M 5,7.5 l 0,-0.2 4.3,8.88178e-16 0.0435779,-0.00190265 0.0432462,-0.00569347 0.0425854,-0.00944096 0.0416005,-0.0131166 0.0402991,-0.0166924 0.0386909,-0.0201412 0.0367882,-0.0234367 0.0346056,-0.0265538 0.0321596,-0.0294688 0.0294688,-0.0321596 0.0265538,-0.0346056 0.0234367,-0.0367882 0.0201412,-0.0386909 0.0166924,-0.0402991 0.0131166,-0.0416005 0.00944096,-0.0425854 0.00569347,-0.0432462 0.00190265,-0.0435779 0,-6.1 -0.00190265,-0.0435779 -0.00569347,-0.0432462 -0.00944096,-0.0425854 -0.0131166,-0.0416005 -0.0166924,-0.0402991 -0.0201412,-0.0386909 -0.0234367,-0.0367882 -0.0265538,-0.0346056 -0.0294688,-0.0321596 -0.0321596,-0.0294688 -0.0346056,-0.0265538 -0.0367882,-0.0234367 -0.0386909,-0.0201412 -0.0402991,-0.0166924 -0.0416005,-0.0131166 -0.0425854,-0.00944096 -0.0432462,-0.00569347 -0.0435779,-0.00190265 -4.3,0 0,-0.2 4.3,0 0.061009,0.00266371 0.0605447,0.00797086 0.0596196,0.0132173 0.0582408,0.0183632 0.0564187,0.0233694 0.0541672,0.0281977 0.0515035,0.0328114 0.0484478,0.0371753 0.0450234,0.0412564 0.0412564,0.0450234 0.0371753,0.0484478 0.0328114,0.0515035 0.0281977,0.0541672 0.0233694,0.0564187 0.0183632,0.0582408 0.0132173,0.0596196 0.00797086,0.0605447 0.00266371,0.061009 0,6.1 -0.00266371,0.061009 -0.00797086,0.0605447 -0.0132173,0.0596196 -0.0183632,0.0582408 -0.0233694,0.0564187 -0.0281977,0.0541672 -0.0328114,0.0515035 -0.0371753,0.0484478 -0.0412564,0.0450234 -0.0450234,0.0412564 -0.0484478,0.0371753 -0.0515035,0.0328114 -0.0541672,0.0281977 -0.0564187,0.0233694 -0.0582408,0.0183632 -0.0596196,0.0132173 -0.0605447,0.00797086 -0.061009,0.00266371 -4.3,0 z "/>
<path fill="rgb(0,91,140)" stroke="rgb(0,91,140)" d="M 5,7.5 l -4.3,-8.88178e-16 -0.061009,-0.00266371 -0.0605447,-0.00797086 -0.0596196,-0.0132173 -0.0582408,-0.0183632 -0.0564187,-0.0233694 -0.0541672,-0.0281977 -0.0515035,-0.0328114 -0.0484478,-0.0371753 -0.0450234,-0.0412564 -0.0412564,-0.0450234 -0.0371753,-0.0484478 -0.0328114,-0.0515035 -0.0281977,-0.0541672 -0.0233694,-0.0564187 -0.0183632,-0.0582408 -0.0132173,-0.0596196 -0.00797086,-0.0605447 -0.00266371,-0.061009 8.88178e-16,-6.1 0.00266371,-0.061009 0.00797086,-0.0605447 0.0132173,-0.0596196 0.0183632,-0.0582408 0.0233694,-0.0564187 0.0281977,-0.0541672 0.0328114,-0.0515035 0.0371753,-0.0484478 0.0412564,-0.0450234 0.0450234,-0.0412564 0.0484478,-0.0371753 0.0515035,-0.0328114 0.0541672,-0.0281977 0.0564187,-0.0233694 0.0582408,-0.0183632 0.0596196,-0.0132173 0.0605447,-0.00797086 0.061009,-0.00266371 4.3,-8.88178e-16 0,0.2 -4.3,0 -0.0435779,0.00190265 -0.0432462,0.00569347 -0.0425854,0.00944096 -0.0416005,0.0131166 -0.0402991,0.0166924 -0.0386909,0.0201412 -0.0367882,0.0234367 -0.0346056,0.0265538 -0.0321596,0.0294688 -0.0294688,0.0321596 -0.0265538,0.0346056 -0.0234367,0.0367882 -0.0201412,0.0386909 -0.0166924,0.0402991 -0.0131166,0.0416005 -0.00944096,0.0425854 -0.00569347,0.0432462 -0.00190265,0.0435779 -8.88178e-16,6.1 0.00190265,0.0435779 0.00569347,0.0432462 0.00944096,0.0425854 0.0131166,0.0416005 0.0166924,0.0402991 0.0201412,0.0386909 0.0234367,0.0367882 0.0265538,0.0346056 0.0294688,0.0321596 0.0321596,0.0294688 0.0346056,0.0265538 0.0367882,0.0234367 0.0386909,0.0201412 0.0402991,0.0166924 0.0416005,0.0131166 0.0425854,0.00944096 0.0432462,0.00569347 0.0435779,0.00190265 4.3,0 0,0.2 z "/>
<path fill="rgb(241,240,234)" stroke="rgb(241,240,234)" d="M 9.6,6.8 l 1.77636e-15,-6.1 -0.00114159,-0.0261467 -0.00341608,-0.0259477 -0.00566458,-0.0255513 -0.00786996,-0.0249603 -0.0100155,-0.0241794 -0.0120847,-0.0232145 -0.014062,-0.0220729 -0.0159323,-0.0207634 -0.0176813,-0.0192958 -0.0192958,-0.0176813 -0.0207634,-0.0159323 -0.0220729,-0.014062 -0.0232145,-0.0120847 -0.0241794,-0.0100155 -0.0249603,-0.00786996 -0.0255513,-0.00566458 -0.0259477,-0.00341608 -0.0261467,-0.00114159 -4.3,-8.88178e-16 -8.88178e-16,-0.2 4.3,0 0.0435779,0.00190265 0.0432462,0.00569347 0.0425854,0.00944096 0.0416005,0.0131166 0.0402991,0.0166924 0.0386909,0.0201412 0.0367882,0.0234367 0.0346056,0.0265538 0.0321596,0.0294688 0.0294688,0.0321596 0.0265538,0.0346056 0.0234367,0.0367882 0.0201412,0.0386909 0.0166924,0.0402991 0.0131166,0.0416005 0.00944096,0.0425854 0.00569347,0.0432462 0.00190265,0.0435779 0,6.1 -0.00190265,0.0435779 -0.00569347,0.0432462 -0.00944096,0.0425854 -0.0131166,0.0416005 -0.0166924,0.0402991 -0.0201412,0.0386909 -0.0234367,0.0367882 -0.0265538,0.0346056 -0.0294688,0.0321596 -0.0321596,0.0294688 -0.0346056,0.0265538 -0.0367882,0.0234367 -0.0386909,0.0201412 -0.0402991,0.0166924 -0.0416005,0.0131166 -0.0425854,0.00944096 -0.0432462,0.00569347 -0.0435779,0.00190265 -4.3,-8.88178e-16 0,-0.2 4.3,0 0.0261467,-0.00114159 0.0259477,-0.00341608 0.0255513,-0.00566458 0.0249603,-0.00786996 0.0241794,-0.0100155 0.0232145,-0.0120847 0.0220729,-0.014062 0.0207634,-0.0159323 0.0192958,-0.0176813 0.0176813,-0.0192958 0.0159323,-0.0207634 0.014062,-0.0220729 0.0120847,-0.0232145 0.0100155,-0.0241794 0.00786996,-0.0249603 0.00566458,-0.0255513 0.00341608,-0.0259477 0.00114159,-0.0261467 z "/>
<path fill="rgb(241,240,234)" stroke="rgb(241,240,234)" d="M 5,0.4 l -4.3,0 -0.0261467,0.00114159 -0.0259477,0.00341608 -0.0255513,0.00566458 -0.0249603,0.00786996 -0.0241794,0.0100155 -0.0232145,0.0120847 -0.0220729,0.014062 -0.0207634,0.0159323 -0.0192958,0.0176813 -0.0176813,0.0192958 -0.0159323,0.0207634 -0.014062,0.0220729 -0.0120847,0.0232145 -0.0100155,0.0241794 -0.00786996,0.0249603 -0.00566458,0.0255513 -0.00341608,0.0259477 -0.00114159,0.0261467 -8.88178e-16,6.1 0.00114159,0.0261467 0.00341608,0.0259477 0.00566458,0.0255513 0.00786996,0.0249603 0.0100155,0.0241794 0.0120847,0.0232145 0.014062,0.0220729 0.0159323,0.0207634 0.0176813,0.0192958 0.0192958,0.0176813 0.0207634,0.0159323 0.0220729,0.014062 0.0232145,0.0120847 0.0241794,0.0100155 0.0249603,0.00786996 0.0255513,0.00566458 0.0259477,0.00341608 0.0261467,0.00114159 4.3,8.88178e-16 0,0.2 -4.3,0 -0.0435779,-0.00190265 -0.0432462,-0.00569347 -0.0425854,-0.00944096 -0.0416005,-0.0131166 -0.0402991,-0.0166924 -0.0386909,-0.0201412 -0.0367882,-0.0234367 -0.0346056,-0.0265538 -0.0321596,-0.0294688 -0.0294688,-0.0321596 -0.0265538,-0.0346056 -0.0234367,-0.0367882 -0.0201412,-0.0386909 -0.0166924,-0.0402991 -0.0131166,-0.0416005 -0.00944096,-0.0425854 -0.00569347,-0.0432462 -0.00190265,-0.0435779 8.88178e-16,-6.1 0.00190265,-0.0435779 0.00569347,-0.0432462 0.00944096,-0.0425854 0.0131166,-0.0416005 0.0166924,-0.0402991 0.0201412,-0.0386909 0.0234367,-0.0367882 0.0265538,-0.0346056 0.0294688,-0.0321596 0.0321596,-0.0294688 0.0346056,-0.0265538 0.0367882,-0.0234367 0.0386909,-0.0201412 0.0402991,-0.0166924 0.0416005,-0.0131166 0.0425854,-0.00944096 0.0432462,-0.00569347 0.0435779,-0.00190265 4.3,0 8.88178e-16,0.2 z "/>
<path fill="rgb(0,91,140)" stroke="rgb(0,91,140)" d="M 0.4,1.4 l 1,0 0,1 -1,0 0,-1 z "/>
<path fill="rgb(0,91,140)" stroke="rgb(0,91,140)" d="M 0.4,2.4 l 1,0 0,1 -1,0 0,-1 z "/>
<path fill="rgb(0,91,140)" stroke="rgb(0,91,140)" d="M 8.4,5.4 l 1,0 0,1 -1,0 0,-1 z "/>
<path fill="rgb(0,91,140)" stroke="rgb(0,91,140)" d="M 0.4,3.4 l 1,0 0,1 -1,0 0,-1 z "/>
<path fill="rgb(0,91,140)" stroke="rgb(0,91,140)" d="M 1.91639,4.4 l -0.00408387,-0.00160443 -0.00583729,-0.00171704 -0.00596592,-0.00119581 -0.00604811,-0.00066527 -0.00608321,-0.00012955 -0.00607095,0.000407178 -0.00601142,0.000940737 -0.0059051,0.00146697 -0.0057528,0.00198178 -0.00115413,0.000515431 -0.463479,0 0,-1 1,0 0,1 -0.483609,0 z "/>
<path fill="rgb(0,91,140)" stroke="rgb(0,91,140)" d="M 1.4,2.4 l 1,0 0,1 -1,0 0,-1 z "/>
<path fill="rgb(0,91,140)" stroke="rgb(0,91,140)" d="M 8.4,4.4 l 1,0 0,1 -1,0 0,-1 z "/>
<path fill="rgb(0,91,140)" stroke="rgb(0,91,140)" d="M 1.4,1.4 l 1,0 0,1 -1,0 0,-1 z "/>
<path fill="rgb(0,91,140)" stroke="rgb(0,91,140)" d="M 0.4,4.4 l 1,0 0,1 -1,0 0,-1 z "/>
<path fill="rgb(0,91,140)" stroke="rgb(0,91,140)" d="M 8.4,1.4 l 0,-1 0.9,8.88178e-16 0.0261467,0.00114159 0.0259477,0.00341608 0.0255513,0.00566458 0.0223543,0.00704828 0,0.982729 -1,0 z "/>
<path fill="rgb(0,91,140)" stroke="rgb(0,91,140)" d="M 1.4,0.4 l 1,0 0,1 -1,0 0,-1 z "/>
<path fill="rgb(0,91,140)" stroke="rgb(0,91,140)" d="M 0.4,6.4 l 1,0 0,0.7 -0.7,0 -0.0261467,-0.00114159 -0.0259477,-0.00341608 -0.0255513,-0.00566458 -0.0249603,-0.00786996 -0.0241794,-0.0100155 -0.0232145,-0.0120847 -0.0220729,-0.014062 -0.0207634,-0.0159323 -0.0192958,-0.0176813 -0.0176813,-0.0192958 -0.0159323,-0.0207634 -0.014062,-0.0220729 -0.0120847,-0.0232145 -0.0100155,-0.0241794 -0.00786996,-0.0249603 -0.00566458,-0.0255513 -0.00341608,-0.0259477 -0.00114159,-0.0261467 -8.88178e-16,-0.4 z "/>
<path fill="rgb(0,91,140)" stroke="rgb(0,91,140)" d="M 1.4,0.4 l 0,1 -1,0 1.77636e-15,-0.7 0.00114159,-0.0261467 0.00341608,-0.0259477 0.00566458,-0.0255513 0.00786996,-0.0249603 0.0100155,-0.0241794 0.0120847,-0.0232145 0.014062,-0.0220729 0.0159323,-0.0207634 0.0176813,-0.0192958 0.0192958,-0.0176813 0.0207634,-0.0159323 0.0220729,-0.014062 0.0232145,-0.0120847 0.0241794,-0.0100155 0.0249603,-0.00786996 0.0255513,-0.00566458 0.0259477,-0.00341608 0.0261467,-0.00114159 0.7,0 z "/>
<path fill="rgb(0,91,140)" stroke="rgb(0,91,140)" d="M 8.4,4.1734 l 0.443592,0.0612532 0.00616751,0.000577313 0.00619438,3.4485e-05 0.00617356,-0.000508609 0.00610522,-0.00104779 0.00598987,-0.0015789 0.00582842,-0.00209786 0.0056221,-0.00260067 0.00537251,-0.00308345 0.00508155,-0.00354251 0.00475148,-0.00397429 0.00438483,-0.00437548 0.00398442,-0.00474298 0.00355335,-0.00507398 0.00309492,-0.00536591 0.00261266,-0.00561654 0.00211029,-0.00582393 0.00159168,-0.00598649 0.00106082,-0.00610296 0.000521787,-0.00617246 -2.12611e-05,-0.00619444 -0.000564145,-0.00616873 -0.00110269,-0.00609554 -2.84217e-14,-1.26121e-13 -0.170678,-0.749116 0.648573,0 0,1 -1,0 0,-0.226595 z "/>
<path fill="rgb(0,91,140)" stroke="rgb(0,91,140)" d="M 8.4,3.32369 l 0,-0.923692 1,0 0,1 -0.648573,0 -0.0741354,-0.325384 -0.00157929,-0.00576531 -0.00207265,-0.00560688 -0.00255043,-0.00540631 -0.00300905,-0.00516513 -0.00344506,-0.00488513 -0.00385519,-0.00456842 -0.00423634,-0.00421739 -0.00458566,-0.00383466 -0.00490053,-0.00342313 -0.00517857,-0.00298587 -0.00541769,-0.00252617 -0.00561611,-0.00204749 -0.00577233,-0.00155343 -0.00588518,-0.00104769 -0.0059538,-0.000534081 -0.00597768,-1.64586e-05 -0.00595665,0.000501287 -0.00589086,0.00101527 -0.0057808,0.00152162 -0.0056273,0.00201653 -0.00543152,0.0024963 -0.00519493,0.0029573 -0.0049193,0.00339609 -0.00460671,0.00380936 -0.0042595,0.004194 -0.00388028,0.00454712 -0.00347191,0.00486608 -0.00157551,0.00254296 -0.00146374,0.00260889 -0.00134921,0.00266992 -0.147848,0.263517 z "/>
<path fill="rgb(0,91,140)" stroke="rgb(0,91,140)" d="M 8.4,1.4 l 1,0 0,1 -1,0 0,-1 z "/>
<path fill="rgb(0,91,140)" stroke="rgb(0,91,140)" d="M 7.4,7.1 l 0,-0.7 1,0 0,0.7 -1,0 z "/>
<path fill="rgb(0,91,140)" stroke="rgb(0,91,140)" d="M 7.4,5.90501 l 0.334124,-0.484014 0.00317954,-0.00506196 0.00272921,-0.0053183 0.00225838,-0.00553468 0.00157628,-0.00508294 0.656133,0 0,1 -1,0 0,-0.494988 z "/>
<path fill="rgb(0,91,140)" stroke="rgb(0,91,140)" d="M 7.4,5.37645 l 0,-0.976448 1,0 0,1 -0.656133,0 0.000194292,-0.000626522 0.00126947,-0.00584135 0.000758822,-0.00592935 0.000242473,-0.00597278 -0.000275698,-0.00597134 -0.000791797,-0.00592503 -0.00130195,-0.0058342 -0.00180231,-0.00569953 -0.00228914,-0.00552203 -0.00275876,-0.00530304 -0.00320765,-0.0050442 -0.00363244,-0.00474745 -0.00402994,-0.00441504 -0.00439715,-0.00404944 -0.00473133,-0.00365342 -0.00502995,-0.00322995 -0.00529077,-0.00278221 -0.00551184,-0.00231356 -0.00569149,-0.00182753 -0.00582838,-0.00132776 -0.00592147,-0.000818019 -0.00597006,-0.000302129 -0.0059738,0.00021603 -0.00593265,0.000732567 -0.00293881,0.000558812 -0.00291181,0.000685742 -0.00287933,0.000811381 -0.257234,0.0605796 z "/>
<path fill="rgb(0,91,140)" stroke="rgb(0,91,140)" d="M 8.35719,3.4 l -0.0270354,0.0481864 -0.0525,-0.0481864 0.0795354,0 z M 7.7625,3.4 l 0.332103,0.304816 -0.369037,0.251246 -0.00491078,0.0036644 -0.00457521,0.00407566 -0.00420532,0.00445633 -0.00380386,0.00480356 -0.00337386,0.00511475 -0.00291854,0.00538755 -0.00244132,0.00561992 -0.00194577,0.00581012 -0.00143563,0.00595672 -0.000914712,0.00605862 -0.000386931,0.00611505 0.000143754,0.00612559 0.00067336,0.00609017 0.00119791,0.00600904 0.00171348,0.00588282 0.00221618,0.00571245 0.00270226,0.00549922 0.00316805,0.00524471 0.00361007,0.00495085 0.00402501,0.00461984 0.00440973,0.00425416 0.00476137,0.00385655 0.00507727,0.00343 0.00535507,0.00297771 0.00559269,0.00250308 0.00578833,0.00200966 0.00594054,0.00150117 0.648967,0.0896122 0,0.226595 -1,0 0,-1 0.362504,0 z "/>
<path fill="rgb(0,91,140)" stroke="rgb(0,91,140)" d="M 8.4,3.32369 l -0.0428133,0.0763083 -0.0795354,0 -0.877651,-0.80554 0,-0.19446 1,0 0,0.923692 z M 7.4,3.06728 l 0.362504,0.332719 -0.362504,0 0,-0.332719 z "/>
<path fill="rgb(0,91,140)" stroke="rgb(0,91,140)" d="M 7.4,1.4 l 1,0 0,1 -1,0 0,-1 z "/>
<path fill="rgb(0,91,140)" stroke="rgb(0,91,140)" d="M 7.4,0.4 l 1,0 0,1 -1,0 0,-1 z "/>
<path fill="rgb(0,91,140)" stroke="rgb(0,91,140)" d="M 6.4,7.1 l 0,-0.7 1,0 0,0.7 -1,0 z "/>
<path fill="rgb(0,91,140)" stroke="rgb(0,91,140)" d="M 6.79973,5.4 l 0.0760992,0 0,0.0178567 -0.0760992,-0.0178567 z M 7.29999,5.4 l -0.0758231,0.0178567 0,-0.0178567 0.0758231,0 z M 6.4,5.47257 l 0.591943,0.855356 0.00374511,0.00493413 0.00416319,0.00458687 0.00454922,0.0042043 0.00490023,0.00378936 0.00521352,0.00334525 0.00548668,0.00287539 0.0057176,0.00238339 0.00590451,0.00187305 0.00604596,0.00134829 0.00614087,0.000813147 0.00618851,0.000271746 0.00618851,-0.000271746 0.00614087,-0.000813147 0.00604596,-0.00134829 0.00590451,-0.00187305 0.0057176,-0.00238339 0.00548668,-0.00287539 0.00521352,-0.00334525 0.00490023,-0.00378936 0.00454922,-0.0042043 0.00416319,-0.00458687 0.00374511,-0.00493413 3.12444e-05,-4.51857e-05 3.12093e-05,-4.521e-05 3.11741e-05,-4.52343e-05 0.291853,-0.42278 0,0.494988 -1,0 0,-0.927428 z "/>
<path fill="rgb(0,91,140)" stroke="rgb(0,91,140)" d="M 6.87583,4.4 l 0,1 -0.0760992,0 -0.35854,-0.0841313 -0.00602029,-0.00114005 -0.00609636,-0.000614745 -0.00612669,-8.4822e-05 -0.00611105,0.000445737 -0.00604954,0.000972951 -0.00594264,0.00149286 -0.00484592,0.00167488 0,-0.918615 0.475832,0 z M 7.29999,5.4 l -0.0758231,0 0,-1 0.175829,0 0,0.976448 -0.100006,0.0235518 z "/>
<path fill="rgb(0,91,140)" stroke="rgb(0,91,140)" d="M 6.87583,3.4 l 0,1 -0.475832,0 0,-1 0.475832,0 z M 7.22417,3.4 l 0.175829,0 0,1 -0.175829,0 0,-1 z "/>
<path fill="rgb(0,91,140)" stroke="rgb(0,91,140)" d="M 6.87583,2.4 l 0,1 -0.475832,0 0,-1 0.475832,0 z M 7.4,2.59446 l -0.175829,-0.161382 0,-0.0330778 0.175829,0 0,0.19446 z M 7.4,3.06728 l 0,0.332719 -0.175829,0 0,-0.494102 0.175829,0.161382 z "/>
<path fill="rgb(0,91,140)" stroke="rgb(0,91,140)" d="M 6.87583,1.4 l 0,1 -0.475832,0 0,-1 0.475832,0 z M 7.22417,1.4 l 0.175829,0 0,1 -0.175829,0 0,-1 z "/>
<path fill="rgb(0,91,140)" stroke="rgb(0,91,140)" d="M 7.4,0.4 l 0,1 -0.175829,0 0,-0.258352 -0.348339,-4.44089e-16 0,0.258352 -0.475832,0 0,-1 1,0 z "/>
<path fill="rgb(0,91,140)" stroke="rgb(0,91,140)" d="M 5.4,7.1 l 0,-0.7 1,0 0,0.7 -1,0 z "/>
<path fill="rgb(0,91,140)" stroke="rgb(0,91,140)" d="M 5.4,5.83258 l 0.284124,-0.411584 0.00317954,-0.00506196 0.00272921,-0.0053183 0.00225838,-0.00553468 0.00157628,-0.00508294 0.662161,0 0.000998871,0.0041701 0.00193765,0.00581284 0.00243346,0.00562333 0.00291101,0.00539162 0.0356912,0.0515736 0,0.927428 -1,0 0,-0.567418 z "/>
<path fill="rgb(0,91,140)" stroke="rgb(0,91,140)" d="M 6.4,5.31862 l -0.000945213,0.000326691 -0.00559618,0.00249526 -0.00535923,0.00297023 -0.00508206,0.0034229 -0.00476675,0.00384989 -0.00441567,0.00424799 -0.00403146,0.00461421 -0.00361699,0.0049458 -0.00317538,0.00524028 -0.00270994,0.00549543 -0.00222416,0.00570935 -0.0017217,0.00588042 -0.00120631,0.00600736 -0.00068187,0.00608922 -0.000152314,0.00612539 0.000378385,0.00611559 0.000906245,0.00605989 0.000428433,0.00178863 -0.662161,0 0.000194292,-0.000626522 0.00126947,-0.00584135 0.000758822,-0.00592935 0.000242473,-0.00597278 -0.000275698,-0.00597134 -0.000791797,-0.00592503 -0.00130195,-0.0058342 -0.00180231,-0.00569953 -0.00228914,-0.00552203 -0.00275876,-0.00530304 -0.00320765,-0.0050442 -0.00363244,-0.00474745 -0.00402994,-0.00441504 -0.00439715,-0.00404944 -0.00473133,-0.00365342 -0.00502995,-0.00322995 -0.00529077,-0.00278221 -0.00551184,-0.00231356 -0.00569149,-0.00182753 -0.00582838,-0.00132776 -0.00592147,-0.000818019 -0.00597006,-0.000302129 -0.0059738,0.00021603 -0.00593265,0.000732567 -0.00293881,0.000558812 -0.00291181,0.000685742 -0.00287933,0.000811381 -0.207234,0.0488044 0,-0.964673 1,0 0,0.918615 z "/>
<path fill="rgb(0,91,140)" stroke="rgb(0,91,140)" d="M 5.4,3.4 l 1,0 0,1 -1,0 0,-1 z "/>
<path fill="rgb(0,91,140)" stroke="rgb(0,91,140)" d="M 5.4,2.4 l 1,0 0,1 -1,0 0,-1 z "/>
<path fill="rgb(0,91,140)" stroke="rgb(0,91,140)" d="M 5.4,1.4 l 1,0 0,1 -1,0 0,-1 z "/>
<path fill="rgb(0,91,140)" stroke="rgb(0,91,140)" d="M 5.4,0.4 l 1,0 0,1 -1,0 0,-1 z "/>
<path fill="rgb(0,91,140)" stroke="rgb(0,91,140)" d="M 4.4,6.4 l 1,0 0,0.7 -0.4,0 -0.6,0 0,-0.7 z "/>
<path fill="rgb(0,91,140)" stroke="rgb(0,91,140)" d="M 4.74973,5.4 l 0.0760992,0 0,0.0178567 -0.0760992,-0.0178567 z M 4.4,5.54482 l 0.541943,0.783106 0.00374511,0.00493413 0.00416319,0.00458687 0.00454922,0.0042043 0.00490023,0.00378936 0.00521352,0.00334525 0.00548668,0.00287539 0.0057176,0.00238339 0.00590451,0.00187305 0.00604596,0.00134829 0.00614087,0.000813147 0.00618851,0.000271746 0.00618851,-0.000271746 0.00614087,-0.000813147 0.00604596,-0.00134829 0.00590451,-0.00187305 0.0057176,-0.00238339 0.00548668,-0.00287539 0.00521352,-0.00334525 0.00490023,-0.00378936 0.00454922,-0.0042043 0.00416319,-0.00458687 0.00374511,-0.00493413 3.12444e-05,-4.51857e-05 3.12093e-05,-4.521e-05 3.11741e-05,-4.52343e-05 0.341853,-0.49521 0,0.567418 -1,0 0,-0.855179 z M 5.24999,5.4 l -0.0758231,0.0178567 0,-0.0178567 0.0758231,0 z "/>
<path fill="rgb(0,91,140)" stroke="rgb(0,91,140)" d="M 4.82583,4.4 l 0,1 -0.0760992,0 -0.349733,-0.0820647 0,-0.917935 0.425832,0 z M 5.17417,4.4 l 0.225829,0 0,0.964673 -0.150006,0.035327 -0.0758231,0 0,-1 z "/>
<path fill="rgb(0,91,140)" stroke="rgb(0,91,140)" d="M 4.82583,3.4 l 0,1 -0.425832,0 0,-1 0.425832,0 z M 5.17417,3.4 l 0.225829,0 0,1 -0.225829,0 0,-1 z "/>
<path fill="rgb(0,91,140)" stroke="rgb(0,91,140)" d="M 4.82583,2.4 l 0,1 -0.425832,0 0,-1 0.425832,0 z M 5.17417,2.4 l 0.225829,0 0,1 -0.225829,0 0,-1 z "/>
<path fill="rgb(0,91,140)" stroke="rgb(0,91,140)" d="M 4.82583,1.4 l 0,1 -0.425832,0 0,-1 0.425832,0 z M 5.17417,1.4 l 0.225829,0 0,1 -0.225829,0 0,-1 z "/>
<path fill="rgb(0,91,140)" stroke="rgb(0,91,140)" d="M 5.4,0.4 l 0,1 -0.225829,0 0,-0.258352 -0.348339,-4.44089e-16 0,0.258352 -0.425832,0 0,-1 0.6,0 0.4,0 z "/>
<path fill="rgb(0,91,140)" stroke="rgb(0,91,140)" d="M 3.4,6.4 l 1,0 0,0.7 -1,0 0,-0.7 z "/>
<path fill="rgb(0,91,140)" stroke="rgb(0,91,140)" d="M 4.30603,5.4 l 0.000998871,0.0041701 0.00193765,0.00581284 0.00243346,0.00562333 0.00291101,0.00539162 0.0856912,0.123823 0,0.855179 -1,0 0,-1 0.906028,0 z "/>
<path fill="rgb(0,91,140)" stroke="rgb(0,91,140)" d="M 4.4,5.31794 l -0.00880751,-0.00206668 -0.00602029,-0.00114005 -0.00609636,-0.000614745 -0.00612669,-8.4822e-05 -0.00611105,0.000445737 -0.00604954,0.000972951 -0.00594264,0.00149286 -0.00579114,0.00200157 -0.00559618,0.00249526 -0.00535923,0.00297023 -0.00508206,0.0034229 -0.00476675,0.00384989 -0.00441567,0.00424799 -0.00403146,0.00461421 -0.00361699,0.0049458 -0.00317538,0.00524028 -0.00270994,0.00549543 -0.00222416,0.00570935 -0.0017217,0.00588042 -0.00120631,0.00600736 -0.00068187,0.00608922 -0.000152314,0.00612539 0.000378385,0.00611559 0.000906245,0.00605989 0.000428433,0.00178863 -0.906028,0 0,-1 1,0 0,0.917935 z "/>
<path fill="rgb(0,91,140)" stroke="rgb(0,91,140)" d="M 3.4,3.4 l 1,0 0,1 -1,0 0,-1 z "/>
<path fill="rgb(0,91,140)" stroke="rgb(0,91,140)" d="M 3.4,2.4 l 1,0 0,1 -1,0 0,-1 z "/>
<path fill="rgb(0,91,140)" stroke="rgb(0,91,140)" d="M 3.4,1.4 l 1,0 0,1 -1,0 0,-1 z "/>
<path fill="rgb(0,91,140)" stroke="rgb(0,91,140)" d="M 3.4,0.4 l 1,0 0,1 -1,0 0,-1 z "/>
<path fill="rgb(0,91,140)" stroke="rgb(0,91,140)" d="M 2.4,6.4 l 1,0 0,0.7 -1,0 0,-0.7 z "/>
<path fill="rgb(0,91,140)" stroke="rgb(0,91,140)" d="M 2.80434,5.4 l 0.595664,0 0,1 -1,0 0,-0.894326 0.339592,-0.0468924 0.00314428,-0.000291894 0.00312812,-0.000431945 0.00310572,-0.000571134 0.00594054,-0.00150117 0.00578833,-0.00200966 0.00559269,-0.00250308 0.00535507,-0.00297771 0.00507727,-0.00343 0.00476137,-0.00385655 0.00440973,-0.00425416 0.00402501,-0.00461984 0.00361007,-0.00495085 0.00316805,-0.00524471 0.00270226,-0.00549922 0.00221618,-0.00571245 0.00171348,-0.00588282 0.00100568,-0.00504475 z "/>
<path fill="rgb(0,91,140)" stroke="rgb(0,91,140)" d="M 2.4,4.4 l 0.229499,0 -0.229499,0.210643 0,-0.210643 z M 3.12417,4.4 l 0.275829,0 0,1 -0.595664,0 0.000192234,-0.000964295 0.00067336,-0.00609017 0.000143754,-0.00612559 -0.000386931,-0.00611505 -0.000914712,-0.00605862 -0.00143563,-0.00595672 -0.00194577,-0.00581012 -0.00244132,-0.00561992 -0.00291854,-0.00538755 -0.00337386,-0.00511475 -0.00380386,-0.00480356 -0.00420532,-0.00445633 -0.00457521,-0.00407566 -0.00491078,-0.0036644 -0.369037,-0.251246 0.718775,-0.659718 0,-0.0187933 z "/>
<path fill="rgb(0,91,140)" stroke="rgb(0,91,140)" d="M 2.77583,3.4 l 0,0.86569 -0.146333,0.13431 -0.229499,0 0,-1 0.375832,0 z M 3.12417,3.4 l 0.275829,0 0,1 -0.275829,0 0,-1 z "/>
<path fill="rgb(0,91,140)" stroke="rgb(0,91,140)" d="M 2.77583,2.4 l 0,1 -0.375832,0 0,-1 0.375832,0 z M 3.12417,2.4 l 0.275829,0 0,1 -0.275829,0 0,-1 z "/>
<path fill="rgb(0,91,140)" stroke="rgb(0,91,140)" d="M 2.77583,1.4 l 0,1 -0.375832,0 0,-1 0.375832,0 z M 3.12417,1.4 l 0.275829,0 0,1 -0.275829,0 0,-1 z "/>
<path fill="rgb(0,91,140)" stroke="rgb(0,91,140)" d="M 3.4,0.4 l 0,1 -0.275829,0 0,-0.258352 -0.348339,8.88178e-16 0,0.258352 -0.375832,0 0,-1 1,0 z "/>
<path fill="rgb(0,91,140)" stroke="rgb(0,91,140)" d="M 1.4,6.4 l 1,0 0,0.7 -1,-8.88178e-16 0,-0.7 z "/>
<path fill="rgb(0,91,140)" stroke="rgb(0,91,140)" d="M 1.60588,5.4 l -0.0279445,0.12265 -1.22455e-05,5.35538e-05 -1.22038e-05,5.35633e-05 -1.21622e-05,5.35728e-05 -0.00110269,0.00609554 -0.000564145,0.00616873 -2.12611e-05,0.00619444 0.000521787,0.00617246 0.00106082,0.00610296 0.00159168,0.00598649 0.00211029,0.00582393 0.00261266,0.00561654 0.00309492,0.00536591 0.00355335,0.00507398 0.00398442,0.00474298 0.00438483,0.00437548 0.00475148,0.00397429 0.00508155,0.00354251 0.00537251,0.00308345 0.0056221,0.00260067 0.00582842,0.00209786 0.00598987,0.0015789 0.00610522,0.00104779 0.00617356,0.000508609 0.00619438,-3.4485e-05 0.00616751,-0.000577313 0.743589,-0.102678 0,0.894326 -1,0 0,-1 0.205879,0 z "/>
<path fill="rgb(0,91,140)" stroke="rgb(0,91,140)" d="M 1.91639,4.4 l 0.483609,0 0,0.210643 -0.230148,0.211238 -0.217697,-0.388012 -0.00286544,-0.00536763 -0.00332743,-0.00509415 -0.00376352,-0.00478101 -0.00417031,-0.00443066 -0.00454463,-0.0040458 -0.00488357,-0.00362945 -0.00518449,-0.00318485 -0.00544505,-0.00271545 -0.00157934,-0.000620475 z M 1.86348,4.4 l -0.00440159,0.00196574 -0.00531538,0.00296124 -0.00503366,0.00341825 -0.00471275,0.00384866 -0.00435515,0.00424909 -0.00396365,0.00461645 -0.00354129,0.00494787 -0.00309136,0.00524077 -0.00261736,0.00549287 -0.00212298,0.0057022 -0.00161208,0.00586714 -0.216833,0.95169 -0.205879,0 0,-1 0.463479,0 z "/>
<path fill="rgb(0,91,140)" stroke="rgb(0,91,140)" d="M 0.4,5.4 l 1,0 0,1 -1,0 0,-1 z "/>
<path fill="rgb(0,91,140)" stroke="rgb(0,91,140)" d="M 9.4,6.4 l 0.2,0 0,0.4 -0.00114159,0.0261467 -0.00341608,0.0259477 -0.00566458,0.0255513 -0.00786996,0.0249603 -0.0100155,0.0241794 -0.0120847,0.0232145 -0.014062,0.0220729 -0.0159323,0.0207634 -0.0176813,0.0192958 -0.0192958,0.0176813 -0.0207634,0.0159323 -0.0220729,0.014062 -0.0232145,0.0120847 -0.0241794,0.0100155 -0.00260604,0.000821682 0,-0.682729 z "/>
<path fill="rgb(0,91,140)" stroke="rgb(0,91,140)" d="M 9.6,5.4 l -1.77636e-15,1 -0.2,0 0,-1 0.2,0 z "/>
<path fill="rgb(0,91,140)" stroke="rgb(0,91,140)" d="M 9.6,4.4 l 0,1 -0.2,0 0,-1 0.2,0 z "/>
<path fill="rgb(0,91,140)" stroke="rgb(0,91,140)" d="M 9.6,3.4 l 0,1 -0.2,0 0,-1 0.2,0 z "/>
<path fill="rgb(0,91,140)" stroke="rgb(0,91,140)" d="M 9.6,2.4 l 0,1 -0.2,0 0,-1 0.2,0 z "/>
<path fill="rgb(0,91,140)" stroke="rgb(0,91,140)" d="M 9.6,1.4 l 0,1 -0.2,0 0,-1 0.2,0 z "/>
<path fill="rgb(0,91,140)" stroke="rgb(0,91,140)" d="M 9.4,1.4 l 0,-0.982729 0.00260604,0.000821682 0.0241794,0.0100155 0.0232145,0.0120847 0.0220729,0.014062 0.0207634,0.0159323 0.0192958,0.0176813 0.0176813,0.0192958 0.0159323,0.0207634 0.014062,0.0220729 0.0120847,0.0232145 0.0100155,0.0241794 0.00786996,0.0249603 0.00566458,0.0255513 0.00341608,0.0259477 0.00114159,0.0261467 0,0.7 -0.2,0 z "/>
<path fill="rgb(0,91,140)" stroke="rgb(0,91,140)" d="M 8.4,7.1 l 0,-0.7 1,0 0,0.682729 -0.0223543,0.00704828 -0.0255513,0.00566458 -0.0259477,0.00341608 -0.0261467,0.00114159 -0.9,0 z "/>
<path fill="rgb(241,240,234)" stroke="rgb(241,240,234)" d="M 8.55224,3.05235 l -0.00438846,0.00782177 0.00134921,-0.00266992 0.00146374,-0.00260889 0.00157551,-0.00254296 z "/>
<path fill="rgb(241,240,234)" stroke="rgb(241,240,234)" d="M 7.22417,2.9059 l 0.870436,0.798918 -0.369037,0.251246 -0.00491078,0.0036644 -0.00457521,0.00407566 -0.00420532,0.00445633 -0.00380386,0.00480356 -0.00337386,0.00511475 -0.00291854,0.00538755 -0.00244132,0.00561992 -0.00194577,0.00581012 -0.00143563,0.00595672 -0.000914712,0.00605862 -0.000386931,0.00611505 0.000143754,0.00612559 0.00067336,0.00609017 0.00119791,0.00600904 0.00171348,0.00588282 0.00221618,0.00571245 0.00270226,0.00549922 0.00316805,0.00524471 0.00361007,0.00495085 0.00402501,0.00461984 0.00440973,0.00425416 0.00476137,0.00385655 0.00507727,0.00343 0.00535507,0.00297771 0.00559269,0.00250308 0.00578833,0.00200966 0.00594054,0.00150117 1.09256,0.150865 0.00616751,0.000577313 0.00619438,3.4485e-05 0.00617356,-0.000508609 0.00610522,-0.00104779 0.00598987,-0.0015789 0.00582842,-0.00209786 0.0056221,-0.00260067 0.00537251,-0.00308345 0.00508155,-0.00354251 0.00475148,-0.00397429 0.00438483,-0.00437548 0.00398442,-0.00474298 0.00355335,-0.00507398 0.00309492,-0.00536591 0.00261266,-0.00561654 0.00211029,-0.00582393 0.00159168,-0.00598649 0.00106082,-0.00610296 0.000521787,-0.00617246 -2.12611e-05,-0.00619444 -0.000564145,-0.00616873 -0.00110269,-0.00609554 -2.84217e-14,-1.26121e-13 -0.244814,-1.0745 -0.00157929,-0.00576531 -0.00207265,-0.00560688 -0.00255043,-0.00540631 -0.00300905,-0.00516513 -0.00344506,-0.00488513 -0.00385519,-0.00456842 -0.00423634,-0.00421739 -0.00458566,-0.00383466 -0.00490053,-0.00342313 -0.00517857,-0.00298587 -0.00541769,-0.00252617 -0.00561611,-0.00204749 -0.00577233,-0.00155343 -0.00588518,-0.00104769 -0.0059538,-0.000534081 -0.00597768,-1.64586e-05 -0.00595665,0.000501287 -0.00589086,0.00101527 -0.0057808,0.00152162 -0.0056273,0.00201653 -0.00543152,0.0024963 -0.00519493,0.0029573 -0.0049193,0.00339609 -0.00460671,0.00380936 -0.0042595,0.004194 -0.00388028,0.00454712 -0.00347191,0.00486608 -0.00438846,0.00782177 -0.217697,0.388012 -1.10598,-1.01511 0,0.472821 z "/>
<path fill="rgb(241,240,234)" stroke="rgb(241,240,234)" d="M 2.73959,5.45878 l -1.08318,0.14957 -0.00616751,0.000577313 -0.00619438,3.4485e-05 -0.00617356,-0.000508609 -0.00610522,-0.00104779 -0.00598987,-0.0015789 -0.00582842,-0.00209786 -0.0056221,-0.00260067 -0.00537251,-0.00308345 -0.00508155,-0.00354251 -0.00475148,-0.00397429 -0.00438483,-0.00437548 -0.00398442,-0.00474298 -0.00355335,-0.00507398 -0.00309492,-0.00536591 -0.00261266,-0.00561654 -0.00211029,-0.00582393 -0.00159168,-0.00598649 -0.00106082,-0.00610296 -0.000521787,-0.00617246 2.12611e-05,-0.00619444 0.000564145,-0.00616873 0.00110269,-0.00609554 3.66115e-05,-0.00016069 0.244777,-1.07434 0.00161208,-0.00586714 0.00212298,-0.0057022 0.00261736,-0.00549287 0.00309136,-0.00524077 0.00354129,-0.00494787 0.00396365,-0.00461645 0.00435515,-0.00424909 0.00471275,-0.00384866 0.00503366,-0.00341825 0.00531538,-0.00296124 0.00555571,-0.00248117 0.0057528,-0.00198178 0.0059051,-0.00146697 0.00601142,-0.000940737 0.00607095,-0.000407178 0.00608321,0.00012955 0.00604811,0.00066527 0.00596592,0.00119581 0.00583729,0.00171704 0.00566321,0.0022249 0.00544505,0.00271545 0.00518449,0.00318485 0.00488357,0.00362945 0.00454463,0.0040458 0.00417031,0.00443066 0.00376352,0.00478101 0.00332743,0.00509415 0.00286544,0.00536763 0.217697,0.388012 0.60598,-0.556191 0,-3.12404 0.348339,-8.88178e-16 0,3.27715 -0.718775,0.659718 0.369037,0.251246 0.00491078,0.0036644 0.00457521,0.00407566 0.00420532,0.00445633 0.00380386,0.00480356 0.00337386,0.00511475 0.00291854,0.00538755 0.00244132,0.00561992 0.00194577,0.00581012 0.00143563,0.00595672 0.000914712,0.00605862 0.000386931,0.00611505 -0.000143754,0.00612559 -0.00067336,0.00609017 -0.00119791,0.00600904 -0.00171348,0.00588282 -0.00221618,0.00571245 -0.00270226,0.00549922 -0.00316805,0.00524471 -0.00361007,0.00495085 -0.00402501,0.00461984 -0.00440973,0.00425416 -0.00476137,0.00385655 -0.00507727,0.00343 -0.00535507,0.00297771 -0.00559269,0.00250308 -0.00578833,0.00200966 -0.00594054,0.00150117 -0.00937812,0.00129497 z "/>
<path fill="rgb(241,240,234)" stroke="rgb(241,240,234)" d="M 7.10805,6.32793 l 9.36278e-05,-0.00013563 -3.11741e-05,4.52343e-05 -3.12093e-05,4.521e-05 -3.12444e-05,4.51857e-05 z "/>
<path fill="rgb(241,240,234)" stroke="rgb(241,240,234)" d="M 6.36431,5.421 l 0.627634,0.90693 0.00374511,0.00493413 0.00416319,0.00458687 0.00454922,0.0042043 0.00490023,0.00378936 0.00521352,0.00334525 0.00548668,0.00287539 0.0057176,0.00238339 0.00590451,0.00187305 0.00604596,0.00134829 0.00614087,0.000813147 0.00618851,0.000271746 0.00618851,-0.000271746 0.00614087,-0.000813147 0.00604596,-0.00134829 0.00590451,-0.00187305 0.0057176,-0.00238339 0.00548668,-0.00287539 0.00521352,-0.00334525 0.00490023,-0.00378936 0.00454922,-0.0042043 0.00416319,-0.00458687 0.00374511,-0.00493413 9.36278e-05,-0.00013563 0.625976,-0.906794 0.00317954,-0.00506196 0.00272921,-0.0053183 0.00225838,-0.00553468 0.00177058,-0.00570947 0.00126947,-0.00584135 0.000758822,-0.00592935 0.000242473,-0.00597278 -0.000275698,-0.00597134 -0.000791797,-0.00592503 -0.00130195,-0.0058342 -0.00180231,-0.00569953 -0.00228914,-0.00552203 -0.00275876,-0.00530304 -0.00320765,-0.0050442 -0.00363244,-0.00474745 -0.00402994,-0.00441504 -0.00439715,-0.00404944 -0.00473133,-0.00365342 -0.00502995,-0.00322995 -0.00529077,-0.00278221 -0.00551184,-0.00231356 -0.00569149,-0.00182753 -0.00582838,-0.00132776 -0.00592147,-0.000818019 -0.00597006,-0.000302129 -0.0059738,0.00021603 -0.00593265,0.000732567 -0.00872994,0.00205594 -0.433063,0.101988 0,-2.51196 0,-0.472821 0,-1.29143 -0.348339,-4.44089e-16 0,4.27621 -0.43464,-0.101988 -0.00602029,-0.00114005 -0.00609636,-0.000614745 -0.00612669,-8.4822e-05 -0.00611105,0.000445737 -0.00604954,0.000972951 -0.00594264,0.00149286 -0.00579114,0.00200157 -0.00559618,0.00249526 -0.00535923,0.00297023 -0.00508206,0.0034229 -0.00476675,0.00384989 -0.00441567,0.00424799 -0.00403146,0.00461421 -0.00361699,0.0049458 -0.00317538,0.00524028 -0.00270994,0.00549543 -0.00222416,0.00570935 -0.0017217,0.00588042 -0.00120631,0.00600736 -0.00068187,0.00608922 -0.000152314,0.00612539 0.000378385,0.00611559 0.000906245,0.00605989 0.0014273,0.00595872 0.00193765,0.00581284 0.00243346,0.00562333 0.00291101,0.00539162 z "/>
<path fill="rgb(241,240,234)" stroke="rgb(241,240,234)" d="M 7.66596,5.31381 l -0.00872994,0.00205594 0.00287933,-0.000811381 0.00291181,-0.000685742 0.00293881,-0.000558812 z "/>
<path fill="rgb(241,240,234)" stroke="rgb(241,240,234)" d="M 4.94194,6.32793 l 0.00374511,0.00493413 0.00416319,0.00458687 0.00454922,0.0042043 0.00490023,0.00378936 0.00521352,0.00334525 0.00548668,0.00287539 0.0057176,0.00238339 0.00590451,0.00187305 0.00604596,0.00134829 0.00614087,0.000813147 0.00618851,0.000271746 0.00618851,-0.000271746 0.00614087,-0.000813147 0.00604596,-0.00134829 0.00590451,-0.00187305 0.0057176,-0.00238339 0.00548668,-0.00287539 0.00521352,-0.00334525 0.00490023,-0.00378936 0.00454922,-0.0042043 0.00416319,-0.00458687 0.00374511,-0.00493413 9.36278e-05,-0.00013563 0.625976,-0.906794 0.00317954,-0.00506196 0.00272921,-0.0053183 0.00225838,-0.00553468 0.00177058,-0.00570947 0.00126947,-0.00584135 0.000758822,-0.00592935 0.000242473,-0.00597278 -0.000275698,-0.00597134 -0.000791797,-0.00592503 -0.00130195,-0.0058342 -0.00180231,-0.00569953 -0.00228914,-0.00552203 -0.00275876,-0.00530304 -0.00320765,-0.0050442 -0.00363244,-0.00474745 -0.00402994,-0.00441504 -0.00439715,-0.00404944 -0.00473133,-0.00365342 -0.00502995,-0.00322995 -0.00529077,-0.00278221 -0.00551184,-0.00231356 -0.00569149,-0.00182753 -0.00582838,-0.00132776 -0.00592147,-0.000818019 -0.00597006,-0.000302129 -0.0059738,0.00021603 -0.00593265,0.000732567 -0.00872994,0.00205594 -0.433063,0.101988 0,-4.27621 -0.348339,-4.44089e-16 0,4.27621 -0.43464,-0.101988 -0.00602029,-0.00114005 -0.00609636,-0.000614745 -0.00612669,-8.4822e-05 -0.00611105,0.000445737 -0.00604954,0.000972951 -0.00594264,0.00149286 -0.00579114,0.00200157 -0.00559618,0.00249526 -0.00535923,0.00297023 -0.00508206,0.0034229 -0.00476675,0.00384989 -0.00441567,0.00424799 -0.00403146,0.00461421 -0.00361699,0.0049458 -0.00317538,0.00524028 -0.00270994,0.00549543 -0.00222416,0.00570935 -0.0017217,0.00588042 -0.00120631,0.00600736 -0.00068187,0.00608922 -0.000152314,0.00612539 0.000378385,0.00611559 0.000906245,0.00605989 0.0014273,0.00595872 0.00193765,0.00581284 0.00243346,0.00562333 0.00291101,0.00539162 0.627634,0.90693 z "/>
<path fill="rgb(241,240,234)" stroke="rgb(241,240,234)" d="M 5.05805,6.32793 l 9.36278e-05,-0.00013563 -3.11741e-05,4.52343e-05 -3.12093e-05,4.521e-05 -3.12444e-05,4.51857e-05 z "/>
<path fill="rgb(241,240,234)" stroke="rgb(241,240,234)" d="M 5.61596,5.31381 l -0.00872994,0.00205594 0.00287933,-0.000811381 0.00291181,-0.000685742 0.00293881,-0.000558812 z "/>
</g></g></svg>
