<?xml version="1.0" encoding="UTF-8" standalone="no"?>
<!DOCTYPE svg PUBLIC "-//W3C//DTD SVG 1.1//EN" "http://www.w3.org/Graphics/SVG/1.1/DTD/svg11-flat.dtd"
[

]>
<svg xmlns="http://www.w3.org/2000/svg"  viewBox="-0.112544 -0.112544 9.22863 12.226"><g fill="none" stroke="black" stroke-width="0.0125" transform="translate(0,12.0009) scale(1, -1)">
<g id="Output" >
<path fill="rgb(200,225,100)" stroke="rgb(200,225,100)" d="M 2.9202,4.1 l -0.00324905,0.0013458 -0.290182,0.151059 -0.275912,0.175775 -0.250857,0.19249 0,-0.520669 0.8202,0 z "/>
<path fill="rgb(200,225,100)" stroke="rgb(200,225,100)" d="M 0.751769,2.1 l -4.44089e-16,0.674037 0.00276251,0.0632718 0.0082665,0.0627903 0.0137076,0.0618309 0.0190443,0.0604009 0.0242362,0.0585112 0.0099729,0.0191578 -0.729759,0 0,-1 0.651769,0 z "/>
<path fill="rgb(200,225,100)" stroke="rgb(200,225,100)" d="M 0.829759,3.1 l 0.0192706,0.0370185 0.0340283,0.0534138 0.0385542,0.0502447 0.0427866,0.0466933 0.0466933,0.0427866 0.0502447,0.0385542 0.0386633,0.0246313 0,0.706658 -1,0 0,-1 0.729759,0 z "/>
<path fill="rgb(200,225,100)" stroke="rgb(200,225,100)" d="M 0.1,4.1 l 1,0 0,1 -1,0 0,-1 z "/>
<path fill="rgb(200,225,100)" stroke="rgb(200,225,100)" d="M 1.02656,6.1 l -0.92656,0 0,-1 1,0 0,0.822701 -0.0734396,0.177299 z "/>
<path fill="rgb(200,225,100)" stroke="rgb(200,225,100)" d="M 1.02656,6.1 l -0.0486388,0.117424 -0.0983745,0.312004 -0.0708072,0.319391 -0.0330686,0.251181 -0.675671,0 0,-1 0.92656,0 z "/>
<path fill="rgb(200,225,100)" stroke="rgb(200,225,100)" d="M 0.1,7.1 l 0.675671,0 -0.00963248,0.073166 -0.0142699,0.326834 -0.651769,0 0,-0.4 z "/>
<path fill="rgb(200,225,100)" stroke="rgb(200,225,100)" d="M 2.1,0.1 l 0,0.9 -0.622268,0 -0.0632718,0.00276251 -0.0627903,0.0082665 -0.0618309,0.0137076 -0.0604009,0.0190443 -0.0585112,0.0242362 -0.0561763,0.0292435 -0.0043,0.00273941 -0.0104504,0 0,-1 1,0 z "/>
<path fill="rgb(200,225,100)" stroke="rgb(200,225,100)" d="M 1.11045,1.1 l -0.0104504,0.00665766 0,-0.00665766 0.0104504,0 z "/>
<path fill="rgb(200,225,100)" stroke="rgb(200,225,100)" d="M 1.62108,5.1 l -0.191132,0.249088 -0.175775,0.275912 -0.151059,0.290182 -0.00311476,0.0075197 0,-0.822701 0.521081,0 z "/>
<path fill="rgb(200,225,100)" stroke="rgb(200,225,100)" d="M 1.1,3.39334 l 0.0147504,0.00939707 0.0561763,0.0292435 0.0585112,0.0242362 0.0604009,0.0190443 0.0618309,0.0137076 0.0627903,0.0082665 0.0632718,0.00276251 0.622268,0 0,0.6 -1,0 0,-0.706658 z "/>
<path fill="rgb(200,225,100)" stroke="rgb(200,225,100)" d="M 8.1,0.1 l 0,1 -0.206913,0 -0.0043,-0.00273941 -0.0561763,-0.0292435 -0.0585112,-0.0242362 -0.0604009,-0.0190443 -0.0618309,-0.0137076 -0.0627903,-0.0082665 -0.0632718,-0.00276251 -0.425806,0 0,-0.9 1,0 z "/>
<path fill="rgb(200,225,100)" stroke="rgb(200,225,100)" d="M 8.90354,2.1 l 0,1 -0.729759,0 0.0099729,-0.0191578 0.0242362,-0.0585112 0.0190443,-0.0604009 0.0137076,-0.0618309 0.0082665,-0.0627903 0.00276251,-0.0632718 0,-0.674037 0.651769,0 z "/>
<path fill="rgb(200,225,100)" stroke="rgb(200,225,100)" d="M 1.62108,5.1 l -0.521081,0 0,-1 1,0 0,0.520669 -0.00868457,0.00666391 -0.241197,0.221016 -0.221016,0.241197 -0.00802128,0.0104535 z "/>
<path fill="rgb(200,225,100)" stroke="rgb(200,225,100)" d="M 6.1,4.10833 l 0,-0.00832793 1,0 0,0.6994 -0.187778,-0.172066 -0.259542,-0.199154 -0.275912,-0.175775 -0.276769,-0.144077 z "/>
<path fill="rgb(200,225,100)" stroke="rgb(200,225,100)" d="M 2.9202,4.1 l -0.8202,0 0,-0.6 1,0 0,0.525524 -0.1798,0.0744758 z "/>
<path fill="rgb(200,225,100)" stroke="rgb(200,225,100)" d="M 7.1,3.5 l 0.425806,0 0.0632718,-0.00276251 0.0627903,-0.0082665 0.0618309,-0.0137076 0.0604009,-0.0190443 0.0585112,-0.0242362 0.0561763,-0.0292435 0.0534138,-0.0340283 0.0502447,-0.0385542 0.0466933,-0.0427866 0.0427866,-0.0466933 0.0180741,-0.0235546 0,0.882878 -1,0 0,-0.6 z "/>
<path fill="rgb(200,225,100)" stroke="rgb(200,225,100)" d="M 7.1,4.7994 l 0,-0.6994 1,0 0,1 -0.717543,0 -0.00802128,-0.0104535 -0.221016,-0.241197 -0.0534194,-0.0489499 z "/>
<path fill="rgb(200,225,100)" stroke="rgb(200,225,100)" d="M 7.89309,1.1 l 0.206913,0 0,0.182878 -0.0180741,-0.0235546 -0.0427866,-0.0466933 -0.0466933,-0.0427866 -0.0502447,-0.0385542 -0.0491138,-0.0312889 z "/>
<path fill="rgb(200,225,100)" stroke="rgb(200,225,100)" d="M 3.1,0.1 l 0,0.9 -1,0 0,-0.9 1,0 z "/>
<path fill="rgb(200,225,100)" stroke="rgb(200,225,100)" d="M 7.97698,6.1 l 0.123023,0 0,0.353339 -0.0743837,-0.235915 -0.0486388,-0.117424 z "/>
<path fill="rgb(200,225,100)" stroke="rgb(200,225,100)" d="M 8.1,1.1 l 0,-1 0.653538,8.88178e-16 0.0130734,0.000570795 0.0129739,0.00170804 0.0127756,0.00283229 0.0124802,0.00393498 0.0120897,0.00500773 0.0116073,0.00604236 0.0110365,0.007031 0.0103817,0.00796614 0.00964788,0.00884065 0.00884065,0.00964788 0.00796614,0.0103817 0.007031,0.0110365 0.00604236,0.0116073 0.00500773,0.0120897 0.00393498,0.0124802 0.00283229,0.0127756 0.00170804,0.0129739 0.000570795,0.0130734 0,0.85 -0.803538,0 z "/>
<path fill="rgb(200,225,100)" stroke="rgb(200,225,100)" d="M 8.90354,1.1 l 0,1 -0.651769,0 0,-0.374037 -0.00276251,-0.0632718 -0.0082665,-0.0627903 -0.0137076,-0.0618309 -0.0190443,-0.0604009 -0.0242362,-0.0585112 -0.0292435,-0.0561763 -0.0340283,-0.0534138 -0.02048,-0.0266901 0,-0.182878 0.803538,0 z "/>
<path fill="rgb(200,225,100)" stroke="rgb(200,225,100)" d="M 1.1,0.1 l 0,1 -1,0 0,-0.85 0.000570795,-0.0130734 0.00170804,-0.0129739 0.00283229,-0.0127756 0.00393498,-0.0124802 0.00500773,-0.0120897 0.00604236,-0.0116073 0.007031,-0.0110365 0.00796614,-0.0103817 0.00884065,-0.00964788 0.00964788,-0.00884065 0.0103817,-0.00796614 0.0110365,-0.007031 0.0116073,-0.00604236 0.0120897,-0.00500773 0.0124802,-0.00393498 0.0127756,-0.00283229 0.0129739,-0.00170804 0.0130734,-0.000570795 0.85,0 z "/>
<path fill="rgb(200,225,100)" stroke="rgb(200,225,100)" d="M 1.1,1.10666 l -0.0386633,0.0246313 -0.0502447,0.0385542 -0.0466933,0.0427866 -0.0427866,0.0466933 -0.0385542,0.0502447 -0.0340283,0.0534138 -0.0292435,0.0561763 -0.0242362,0.0585112 -0.0190443,0.0604009 -0.0137076,0.0618309 -0.0082665,0.0627903 -0.00276251,0.0632718 -4.44089e-16,0.374037 -0.651769,0 0,-1 1,0 0,0.00665766 z "/>
<path fill="rgb(200,225,100)" stroke="rgb(200,225,100)" d="M 6.1,3.5 l 1,4.44089e-16 0,0.6 -1,0 0,-0.6 z "/>
<path fill="rgb(200,225,100)" stroke="rgb(200,225,100)" d="M 7.1,0.1 l 0,0.9 -1,-8.88178e-16 0,-0.9 1,0 z "/>
<path fill="rgb(200,225,100)" stroke="rgb(200,225,100)" d="M 6.08334,4.1 l 0.0166616,0 0,0.00832793 -0.0134126,-0.00698214 -0.00324905,-0.0013458 z "/>
<path fill="rgb(200,225,100)" stroke="rgb(200,225,100)" d="M 5.1,3.8 l 0,-0.3 1,0 0,0.6 -0.0166616,0 -0.298994,-0.123847 -0.312004,-0.0983745 -0.319391,-0.0708072 -0.0529496,-0.00697095 z "/>
<path fill="rgb(200,225,100)" stroke="rgb(200,225,100)" d="M 6.1,0.1 l 0,0.9 -1,0 0,-0.9 1,0 z "/>
<path fill="rgb(200,225,100)" stroke="rgb(200,225,100)" d="M 4.1,3.77414 l 0,-0.274135 1,4.44089e-16 0,0.3 -0.271397,-0.0357301 -0.326834,-0.0142699 -0.326834,0.0142699 -0.0749349,0.00986537 z "/>
<path fill="rgb(200,225,100)" stroke="rgb(200,225,100)" d="M 8.90354,3.1 l 0,1 -0.803538,0 0,-0.882878 0.02048,-0.0266901 0.0340283,-0.0534138 0.0192706,-0.0370185 0.729759,0 z "/>
<path fill="rgb(200,225,100)" stroke="rgb(200,225,100)" d="M 8.90354,4.1 l 0,1 -0.803538,0 0,-1 0.803538,0 z "/>
<path fill="rgb(200,225,100)" stroke="rgb(200,225,100)" d="M 5.1,0.1 l 0,0.9 -1,0 0,-0.9 1,0 z "/>
<path fill="rgb(200,225,100)" stroke="rgb(200,225,100)" d="M 8.90354,5.1 l 0,1 -0.803538,0 0,-1 0.803538,0 z "/>
<path fill="rgb(200,225,100)" stroke="rgb(200,225,100)" d="M 7.38246,5.1 l 0.717543,0 0,1 -0.123023,0 -0.0765543,-0.184818 -0.151059,-0.290182 -0.175775,-0.275912 -0.191132,-0.249088 z "/>
<path fill="rgb(200,225,100)" stroke="rgb(200,225,100)" d="M 3.1,4.02552 l 0,-0.525524 1,0 0,0.274135 -0.249412,0.0328357 -0.319391,0.0708072 -0.312004,0.0983745 -0.119193,0.0493715 z "/>
<path fill="rgb(200,225,100)" stroke="rgb(200,225,100)" d="M 4.1,0.1 l 0,0.9 -1,0 0,-0.9 1,0 z "/>
<path fill="rgb(200,225,100)" stroke="rgb(200,225,100)" d="M 8.90354,6.1 l 0,1 -0.675671,0 -0.0330686,-0.251181 -0.0708072,-0.319391 -0.0239908,-0.0760891 0,-0.353339 0.803538,0 z "/>
<path fill="rgb(200,225,100)" stroke="rgb(200,225,100)" d="M 8.22787,7.1 l 0.675671,0 0,0.4 -0.651769,0 -0.0142699,-0.326834 -0.00963248,-0.073166 z "/>
<path fill="rgb(200,225,100)" stroke="rgb(200,225,100)" d="M 8.25177,7.5 l 0.651769,0 0,4.25089 -0.000570795,0.0130734 -0.00170804,0.0129739 -0.00283229,0.0127756 -0.00393498,0.0124802 -0.00500773,0.0120897 -0.00604236,0.0116073 -0.007031,0.0110365 -0.00796614,0.0103817 -0.00884065,0.00964788 -0.00964788,0.00884065 -0.0103817,0.00796614 -0.0110365,0.007031 -0.0116073,0.00604236 -0.0120897,0.00500773 -0.0124802,0.00393498 -0.0127756,0.00283229 -0.0129739,0.00170804 -0.0130734,0.000570795 -8.50354,0 -0.0130734,-0.000570795 -0.0129739,-0.00170804 -0.0127756,-0.00283229 -0.0124802,-0.00393498 -0.0120897,-0.00500773 -0.0116073,-0.00604236 -0.0110365,-0.007031 -0.0103817,-0.00796614 -0.00964788,-0.00884065 -0.00884065,-0.00964788 -0.00796614,-0.0103817 -0.007031,-0.0110365 -0.00604236,-0.0116073 -0.00500773,-0.0120897 -0.00393498,-0.0124802 -0.00283229,-0.0127756 -0.00170804,-0.0129739 -0.000570795,-0.0130734 0,-4.25089 0.651769,0 0.0142699,0.326834 0.042701,0.324347 0.0708072,0.319391 0.0983745,0.312004 0.125193,0.302243 0.151059,0.290182 0.175775,0.275912 0.199154,0.259542 0.221016,0.241197 0.241197,0.221016 0.259542,0.199154 0.275912,0.175775 0.290182,0.151059 0.302243,0.125193 0.312004,0.0983745 0.319391,0.0708072 0.324347,0.042701 0.326834,0.0142699 0.326834,-0.0142699 0.324347,-0.042701 0.319391,-0.0708072 0.312004,-0.0983745 0.302243,-0.125193 0.290182,-0.151059 0.275912,-0.175775 0.259542,-0.199154 0.241197,-0.221016 0.221016,-0.241197 0.199154,-0.259542 0.175775,-0.275912 0.151059,-0.290182 0.125193,-0.302243 0.0983745,-0.312004 0.0708072,-0.319391 0.042701,-0.324347 0.0142699,-0.326834 z "/>
<path fill="rgb(241,240,234)" stroke="rgb(241,240,234)" d="M 3.75177,1 l 0,0.152831 -1,0 0,-0.152831 1,0 z "/>
<path fill="rgb(241,240,234)" stroke="rgb(241,240,234)" d="M 4.75177,1 l 0,0.152831 -1,0 0,-0.152831 1,0 z "/>
<path fill="rgb(241,240,234)" stroke="rgb(241,240,234)" d="M 3.75177,3.5 l 0,-0.245857 1,0 0,0.245857 -1,-4.44089e-16 z "/>
<path fill="rgb(241,240,234)" stroke="rgb(241,240,234)" d="M 4.75177,3.5 l 0,-0.245857 1,0 0,0.245857 -1,0 z "/>
<path fill="rgb(241,240,234)" stroke="rgb(241,240,234)" d="M 1.55591,1.15283 l 5.93222,0 0,2.10131 -5.93222,0 0,-2.10131 z "/>
<path fill="rgb(241,240,234)" stroke="rgb(241,240,234)" d="M 5.75177,1 l 0,0.152831 -1,0 0,-0.152831 1,0 z "/>
<path fill="rgb(241,240,234)" stroke="rgb(241,240,234)" d="M 1.55591,2 l -0.804146,0 1.33227e-15,-0.274037 0.00276251,-0.0632718 0.0082665,-0.0627903 0.0137076,-0.0618309 0.0190443,-0.0604009 0.0242362,-0.0585112 0.0292435,-0.0561763 0.0340283,-0.0534138 0.0385542,-0.0502447 0.0427866,-0.0466933 0.0466933,-0.0427866 0.0502447,-0.0385542 0.0534138,-0.0340283 0.0561763,-0.0292435 0.0585112,-0.0242362 0.0604009,-0.0190443 0.0618309,-0.0137076 0.0627903,-0.0082665 0.0632718,-0.00276251 0.274037,-8.88178e-16 0,0.152831 -0.195854,0 0,0.847169 z "/>
<path fill="rgb(241,240,234)" stroke="rgb(241,240,234)" d="M 0.751769,2.77404 l -4.44089e-16,-0.774037 0.804146,0 0,1 -0.767406,0 -0.0120034,-0.0380699 -0.0137076,-0.0618309 -0.0082665,-0.0627903 -0.00276251,-0.0632718 z "/>
<path fill="rgb(241,240,234)" stroke="rgb(241,240,234)" d="M 0.788509,3 l 0.767406,0 0,0.254143 0.195854,0 0,0.245857 -0.274037,0 -0.0632718,-0.00276251 -0.0627903,-0.0082665 -0.0618309,-0.0137076 -0.0604009,-0.0190443 -0.0585112,-0.0242362 -0.0561763,-0.0292435 -0.0534138,-0.0340283 -0.0502447,-0.0385542 -0.0466933,-0.0427866 -0.0427866,-0.0466933 -0.0385542,-0.0502447 -0.0340283,-0.0534138 -0.0292435,-0.0561763 -0.0242362,-0.0585112 -0.00704094,-0.022331 z "/>
<path fill="rgb(241,240,234)" stroke="rgb(241,240,234)" d="M 2.75177,3.5 l 0,-0.245857 1,0 0,0.245857 -1,0 z "/>
<path fill="rgb(241,240,234)" stroke="rgb(241,240,234)" d="M 2.75177,1 l 0,0.152831 -1,0 0,-0.152831 1,0 z "/>
<path fill="rgb(241,240,234)" stroke="rgb(241,240,234)" d="M 1.75177,3.5 l 0,-0.245857 1,0 0,0.245857 -1,0 z "/>
<path fill="rgb(241,240,234)" stroke="rgb(241,240,234)" d="M 7.75177,3 l 0.46326,0 -0.00704094,0.022331 -0.0242362,0.0585112 -0.0292435,0.0561763 -0.0340283,0.0534138 -0.0385542,0.0502447 -0.0427866,0.0466933 -0.0466933,0.0427866 -0.0502447,0.0385542 -0.0534138,0.0340283 -0.0561763,0.0292435 -0.0585112,0.0242362 -0.022331,0.00704094 0,-0.46326 z "/>
<path fill="rgb(241,240,234)" stroke="rgb(241,240,234)" d="M 8.25177,2 l 0,0.774037 -0.00276251,0.0632718 -0.0082665,0.0627903 -0.0137076,0.0618309 -0.0120034,0.0380699 -0.46326,0 0,-1 0.5,0 z "/>
<path fill="rgb(241,240,234)" stroke="rgb(241,240,234)" d="M 7.75177,2 l 0,-0.96326 0.022331,0.00704094 0.0585112,0.0242362 0.0561763,0.0292435 0.0534138,0.0340283 0.0502447,0.0385542 0.0466933,0.0427866 0.0427866,0.0466933 0.0385542,0.0502447 0.0340283,0.0534138 0.0292435,0.0561763 0.0242362,0.0585112 0.0190443,0.0604009 0.0137076,0.0618309 0.0082665,0.0627903 0.00276251,0.0632718 0,0.274037 -0.5,0 z "/>
<path fill="rgb(241,240,234)" stroke="rgb(241,240,234)" d="M 6.75177,3.5 l 0,-0.245857 0.736361,0 0,-0.254143 0.263639,0 0,0.46326 -0.0380699,0.0120034 -0.0618309,0.0137076 -0.0627903,0.0082665 -0.0632718,0.00276251 -0.774037,0 z "/>
<path fill="rgb(241,240,234)" stroke="rgb(241,240,234)" d="M 7.48813,2 l 0.263639,0 0,1 -0.263639,0 0,-1 z "/>
<path fill="rgb(241,240,234)" stroke="rgb(241,240,234)" d="M 7.48813,2 l 0,-0.847169 -0.736361,0 0,-0.152831 0.774037,1.77636e-15 0.0632718,0.00276251 0.0627903,0.0082665 0.0618309,0.0137076 0.0380699,0.0120034 0,0.96326 -0.263639,0 z "/>
<path fill="rgb(241,240,234)" stroke="rgb(241,240,234)" d="M 5.75177,3.5 l 0,-0.245857 1,0 0,0.245857 -1,-4.44089e-16 z "/>
<path fill="rgb(241,240,234)" stroke="rgb(241,240,234)" d="M 6.75177,1 l 0,0.152831 -1,0 0,-0.152831 1,0 z "/>
<path fill="rgb(241,240,234)" stroke="rgb(241,240,234)" d="M 7.56118,6.75 l 0.0502189,0.24731 0.0302608,0.250536 0.0101086,0.252154 -0.0101086,0.252154 -0.0302608,0.250536 -0.0502189,0.24731 -6.11882,0 -0.0502189,-0.24731 -0.0302608,-0.250536 -0.0101086,-0.252154 0.0101086,-0.252154 0.0302608,-0.250536 0.0502189,-0.24731 6.11882,0 z "/>
<path fill="rgb(241,240,234)" stroke="rgb(241,240,234)" d="M 0.951769,7.5 l 0.0135088,-0.309403 0.0404237,-0.307048 0.0670308,-0.302357 0.0931279,-0.295364 0.118516,-0.286123 0.143002,-0.274705 0.1664,-0.261196 0.188532,-0.2457 0.209229,-0.228333 0.228333,-0.209229 0.2457,-0.188532 0.261196,-0.1664 0.274705,-0.143002 0.286123,-0.118516 0.295364,-0.0931279 0.302357,-0.0670308 0.307048,-0.0404237 0.309403,-0.0135088 0.309403,0.0135088 0.307048,0.0404237 0.302357,0.0670308 0.295364,0.0931279 0.286123,0.118516 0.274705,0.143002 0.261196,0.1664 0.2457,0.188532 0.228333,0.209229 0.209229,0.228333 0.188532,0.2457 0.1664,0.261196 0.143002,0.274705 0.118516,0.286123 0.0931279,0.295364 0.0670308,0.302357 0.0404237,0.307048 0.0135088,0.309403 -0.2,0 -0.0127478,-0.291972 -0.0381463,-0.28975 -0.0632545,-0.285322 -0.0878812,-0.278724 -0.111839,-0.270004 -0.134946,-0.259229 -0.157026,-0.246481 -0.17791,-0.231857 -0.197441,-0.215469 -0.215469,-0.197441 -0.231857,-0.17791 -0.246481,-0.157026 -0.259229,-0.134946 -0.270004,-0.111839 -0.278724,-0.0878812 -0.285322,-0.0632545 -0.28975,-0.0381463 -0.291972,-0.0127478 -0.291972,0.0127478 -0.28975,0.0381463 -0.285322,0.0632545 -0.278724,0.0878812 -0.270004,0.111839 -0.259229,0.134946 -0.246481,0.157026 -0.231857,0.17791 -0.215469,0.197441 -0.197441,0.215469 -0.17791,0.231857 -0.157026,0.246481 -0.134946,0.259229 -0.111839,0.270004 -0.0878812,0.278724 -0.0632545,0.285322 -0.0381463,0.28975 -0.0127478,0.291972 -0.2,0 z "/>
<path fill="rgb(241,240,234)" stroke="rgb(241,240,234)" d="M 0.951769,7.5 l 0.2,0 0.0127478,0.291972 0.0381463,0.28975 0.0632545,0.285322 0.0878812,0.278724 0.111839,0.270004 0.134946,0.259229 0.157026,0.246481 0.17791,0.231857 0.197441,0.215469 0.215469,0.197441 0.231857,0.17791 0.246481,0.157026 0.259229,0.134946 0.270004,0.111839 0.278724,0.0878812 0.285322,0.0632545 0.28975,0.0381463 0.291972,0.0127478 0.291972,-0.0127478 0.28975,-0.0381463 0.285322,-0.0632545 0.278724,-0.0878812 0.270004,-0.111839 0.259229,-0.134946 0.246481,-0.157026 0.231857,-0.17791 0.215469,-0.197441 0.197441,-0.215469 0.17791,-0.231857 0.157026,-0.246481 0.134946,-0.259229 0.111839,-0.270004 0.0878812,-0.278724 0.0632545,-0.285322 0.0381463,-0.28975 0.0127478,-0.291972 0.2,0 -0.0135088,0.309403 -0.0404237,0.307048 -0.0670308,0.302357 -0.0931279,0.295364 -0.118516,0.286123 -0.143002,0.274705 -0.1664,0.261196 -0.188532,0.2457 -0.209229,0.228333 -0.228333,0.209229 -0.2457,0.188532 -0.261196,0.1664 -0.274705,0.143002 -0.286123,0.118516 -0.295364,0.0931279 -0.302357,0.0670308 -0.307048,0.0404237 -0.309403,0.0135088 -0.309403,-0.0135088 -0.307048,-0.0404237 -0.302357,-0.0670308 -0.295364,-0.0931279 -0.286123,-0.118516 -0.274705,-0.143002 -0.261196,-0.1664 -0.2457,-0.188532 -0.228333,-0.209229 -0.209229,-0.228333 -0.188532,-0.2457 -0.1664,-0.261196 -0.143002,-0.274705 -0.118516,-0.286123 -0.0931279,-0.295364 -0.0670308,-0.302357 -0.0404237,-0.307048 -0.0135088,-0.309403 z "/>
<path fill="rgb(42,41,42)" stroke="rgb(42,41,42)" d="M 6.72069,2.63645 l -0.0724832,-0.00604026 -0.069463,-0.0347315 -0.0619127,-0.0664429 0.356376,0.0377517 -0.00302013,0.00302013 -0.069463,0.0483221 -0.0800335,0.0181208 z "/>
<path fill="rgb(42,41,42)" stroke="rgb(42,41,42)" d="M 7.04988,2.61984 l -0.176678,0 0,-0.0528523 -0.356376,-0.0377517 -0.022651,-0.0347315 0.253691,-0.0362416 0.0604026,-0.0166107 0.0649328,-0.0619127 0,-0.258221 -0.0543624,-0.0558724 -0.0709731,-0.022651 -0.23406,-0.0604026 0.359396,-0.0332215 0,-0.0770134 -0.00604026,-0.0392617 -0.0317114,-0.0604026 -0.0634228,-0.0573825 -0.090604,-0.0543624 0.069463,-0.157047 0.0181208,0.00604026 0.0860738,0.0392617 0.0649328,0.0407718 0.0286913,0.0256711 0.0543624,0.0709731 0.0181208,0.0347315 0.0211409,0.0770134 0.00755033,0.0981543 0,0.723322 z "/>
<path fill="rgb(42,41,42)" stroke="rgb(42,41,42)" d="M 6.49418,2.49451 l -0.0362416,-0.0755033 -0.0211409,-0.0815436 -0.00755033,-0.0860738 0.00151007,-0.0332215 0.0120805,-0.0860738 0.0286913,-0.0785234 0.0422819,-0.0709731 0.23406,0.0604026 -0.0377517,0.00604026 -0.0634228,0.0528523 -0.0271812,0.0588926 -0.0105705,0.090604 0.00755033,0.0755033 0.0302013,0.0724832 0.0271812,0.0317114 0.0739932,0.0271812 -0.253691,0.0362416 z "/>
<path fill="rgb(42,41,42)" stroke="rgb(42,41,42)" d="M 6.51381,1.98259 l 0.0558724,-0.0588926 0.069463,-0.0407718 0.0785234,-0.0105705 0.0105705,0 0.0770134,0.0211409 0.067953,0.0558724 -0.359396,0.0332215 z "/>
<path fill="rgb(42,41,42)" stroke="rgb(42,41,42)" d="M 5.84485,2.61531 l -0.178188,0 0,-0.501342 0,-0.0241611 0.022651,-0.0800335 0.285402,0.0377517 -0.022651,0.00151007 -0.0724832,0.0362416 -0.0120805,0.0151007 -0.022651,0.0800335 0,0.434899 z "/>
<path fill="rgb(42,41,42)" stroke="rgb(42,41,42)" d="M 6.27975,2.61531 l -0.169127,0 0,-0.437919 -0.00151007,-0.0166107 -0.0392617,-0.0739932 -0.0166107,-0.0135906 -0.0785234,-0.0256711 -0.285402,-0.0377517 0.421308,-0.0634228 0,-0.0573825 0.169127,0 0,0.726342 z "/>
<path fill="rgb(42,41,42)" stroke="rgb(42,41,42)" d="M 5.68931,2.00977 l 0.0513422,-0.0649328 0.0302013,-0.022651 0.0739932,-0.0317114 0.0890939,-0.0120805 0.0800335,0.0105705 0.0151007,0.00755033 0.0815436,0.0498322 -0.421308,0.0634228 z "/>
<path fill="rgb(42,41,42)" stroke="rgb(42,41,42)" d="M 5.42505,2.63041 l -0.069463,-0.0151007 -0.0709731,-0.0483221 0.129866,-0.108725 0.0256711,-0.00302013 0.067953,-0.0407718 0.0573825,0.173658 -0.0543624,0.0271812 -0.0860738,0.0151007 z "/>
<path fill="rgb(42,41,42)" stroke="rgb(42,41,42)" d="M 5.28462,2.61984 l -0.179698,0 0,-0.730872 0.179698,0 0,0.428859 0.00302013,0.0347315 0.0362416,0.067953 0.0120805,0.0105705 0.0785234,0.0271812 -0.129866,0.108725 0,0.0528523 z "/>
<path fill="rgb(42,41,42)" stroke="rgb(42,41,42)" d="M 4.66851,2.63041 l -0.0045302,0 -0.0815436,-0.0135906 -0.0724832,-0.0362416 -0.0634228,-0.0604026 -0.0196309,-0.0256711 0.249161,-0.0271812 0.0755033,-0.0256711 0.0135906,-0.0181208 0.0362416,-0.0860738 -0.259731,0 0.431879,-0.0271812 -0.0211409,0.0845637 -0.0211409,0.0543624 -0.0422819,0.067953 -0.0045302,0.00604026 -0.0619127,0.0588926 -0.0724832,0.0362416 -0.0815436,0.0120805 z "/>
<path fill="rgb(42,41,42)" stroke="rgb(42,41,42)" d="M 4.4269,2.49451 l -0.0392617,-0.0724832 -0.022651,-0.0800335 -0.0090604,-0.0890939 0.00151007,-0.0392617 0.0151007,-0.0860738 0.0302013,-0.0770134 0.045302,-0.067953 0.00755033,-0.0090604 0.0649328,-0.0558724 0.0724832,-0.0347315 0.0830536,-0.0105705 0.0120805,0 0.0815436,0.0151007 0.0724832,0.0362416 0.0619127,0.0604026 0.00604026,0.00755033 -0.23406,0.045302 -0.0120805,0 -0.0739932,0.0377517 -0.0181208,0.0196309 -0.0332215,0.0785234 -0.00755033,0.0256711 0.445469,0 0,0.0528523 -0.00302013,0.0588926 -0.431879,0.0271812 0.0166107,0.0498322 0.046812,0.0604026 0.0709731,0.0196309 -0.249161,0.0271812 z "/>
<path fill="rgb(42,41,42)" stroke="rgb(42,41,42)" d="M 4.79083,2.09585 l -0.0422819,-0.0362416 -0.0724832,-0.022651 0.23406,-0.045302 -0.119295,0.104195 z "/>
<path fill="rgb(42,41,42)" stroke="rgb(42,41,42)" d="M 4.1264,2.90524 l -0.182718,-0.0649328 0,-0.225 -0.119295,0 0,-0.167617 0.119295,0 0,-0.351845 0,-0.00604026 0.0135906,-0.0890939 0.249161,0.0498322 -0.0588926,0.0271812 -0.0211409,0.0815436 0,0.288423 0.149497,0 0,0.167617 -0.149497,0 0,0.289933 z "/>
<path fill="rgb(42,41,42)" stroke="rgb(42,41,42)" d="M 4.28797,2.0883 l -0.00604026,-0.0045302 -0.0755033,-0.0332215 -0.249161,-0.0498322 0.0347315,-0.069463 0.0513422,-0.0407718 0.0830536,-0.0181208 0.0498322,0.0045302 0.0830536,0.0332215 0.0286913,0.178188 z "/>
<path fill="rgb(42,41,42)" stroke="rgb(42,41,42)" d="M 3.05425,2.63645 l -0.0211409,0 -0.0800335,-0.0105705 -0.0815436,-0.0241611 -0.0830536,-0.0392617 0.0739932,-0.154027 0.0196309,0.0120805 0.0785234,0.0317114 0.0830536,0.0105705 0.264262,0.0483221 -0.0407718,0.0543624 -0.0558724,0.0392617 -0.0709731,0.0241611 -0.0860738,0.00755033 z "/>
<path fill="rgb(42,41,42)" stroke="rgb(42,41,42)" d="M 3.30794,2.51112 l -0.264262,-0.0483221 0.045302,-0.0045302 0.0604026,-0.0377517 0.0271812,-0.0770134 0.169127,-0.0120805 0,0.0211409 -0.0120805,0.0875838 -0.0256711,0.0709731 z "/>
<path fill="rgb(42,41,42)" stroke="rgb(42,41,42)" d="M 3.01348,2.37068 l -0.0392617,-0.00151007 -0.0860738,-0.0166107 -0.069463,-0.0347315 -0.0347315,-0.0302013 0.23859,-0.0664429 0.067953,-0.00604026 0.0860738,-0.0271812 0,-0.111745 -0.0830536,-0.0302013 -0.0755033,-0.0105705 -0.253691,-0.0407718 0.0498322,-0.0604026 0.362416,-0.0135906 0,-0.0317114 0.169127,0 0,0.442449 -0.169127,0.0120805 -0.0770134,0.0196309 -0.0860738,0.00755033 z "/>
<path fill="rgb(42,41,42)" stroke="rgb(42,41,42)" d="M 2.78395,2.28763 l -0.0377517,-0.069463 -0.0135906,-0.0875838 0.0045302,-0.0573825 0.0271812,-0.0785234 0.253691,0.0407718 -0.0151007,0 -0.0770134,0.0286913 -0.0332215,0.0664429 0.0347315,0.0649328 0.0105705,0.00755033 0.0845637,0.0181208 -0.23859,0.0664429 z "/>
<path fill="rgb(42,41,42)" stroke="rgb(42,41,42)" d="M 2.81415,1.93427 l 0.0196309,-0.0135906 0.0739932,-0.0332215 0.0875838,-0.0120805 0.0181208,0.00151007 0.0860738,0.0120805 0.0770134,0.0317114 -0.362416,0.0135906 z "/>
<path fill="rgb(42,41,42)" stroke="rgb(42,41,42)" d="M 2.26297,2.63645 l -0.0709731,-0.00604026 -0.0709731,-0.0347315 -0.0619127,-0.0664429 0.357886,0.0377517 -0.0045302,0.00302013 -0.069463,0.0483221 -0.0800335,0.0181208 z "/>
<path fill="rgb(42,41,42)" stroke="rgb(42,41,42)" d="M 2.59217,2.61984 l -0.175168,0 0,-0.0528523 -0.357886,-0.0377517 -0.022651,-0.0347315 0.255201,-0.0362416 0.0588926,-0.0166107 0.0664429,-0.0619127 0,-0.258221 -0.0558724,-0.0558724 -0.069463,-0.022651 -0.23557,-0.0604026 0.360906,-0.0332215 0,-0.0770134 -0.00604026,-0.0392617 -0.0332215,-0.0604026 -0.0619127,-0.0573825 -0.092114,-0.0543624 0.0709731,-0.157047 0.0166107,0.00604026 0.0860738,0.0392617 0.0649328,0.0407718 0.0286913,0.0256711 0.0543624,0.0709731 0.0181208,0.0347315 0.022651,0.0770134 0.00604026,0.0981543 0,0.723322 z "/>
<path fill="rgb(42,41,42)" stroke="rgb(42,41,42)" d="M 2.03646,2.49451 l -0.0362416,-0.0755033 -0.0211409,-0.0815436 -0.00755033,-0.0860738 0.00151007,-0.0332215 0.0135906,-0.0860738 0.0271812,-0.0785234 0.0422819,-0.0709731 0.23557,0.0604026 -0.0392617,0.00604026 -0.0634228,0.0528523 -0.0256711,0.0588926 -0.0120805,0.090604 0.00755033,0.0755033 0.0302013,0.0724832 0.0271812,0.0317114 0.0755033,0.0271812 -0.255201,0.0362416 z "/>
<path fill="rgb(42,41,42)" stroke="rgb(42,41,42)" d="M 2.0561,1.98259 l 0.0558724,-0.0588926 0.0709731,-0.0407718 0.0770134,-0.0105705 0.0105705,0 0.0770134,0.0211409 0.069463,0.0558724 -0.360906,0.0332215 z "/>
<path fill="rgb(42,41,42)" stroke="rgb(42,41,42)" d="M 8.90354,7.5 l 0.1,0 0,-7.25 -0.000951325,-0.0217889 -0.00284674,-0.0216231 -0.00472048,-0.0212927 -0.0065583,-0.0208003 -0.00834621,-0.0201495 -0.0100706,-0.0193454 -0.0117183,-0.0183941 -0.0132769,-0.0173028 -0.0147344,-0.0160798 -0.0160798,-0.0147344 -0.0173028,-0.0132769 -0.0183941,-0.0117183 -0.0193454,-0.0100706 -0.0201495,-0.00834621 -0.0208003,-0.0065583 -0.0212927,-0.00472048 -0.0216231,-0.00284674 -0.0217889,-0.000951325 -8.50354,0 -0.0217889,0.000951325 -0.0216231,0.00284674 -0.0212927,0.00472048 -0.0208003,0.0065583 -0.0201495,0.00834621 -0.0193454,0.0100706 -0.0183941,0.0117183 -0.0173028,0.0132769 -0.0160798,0.0147344 -0.0147344,0.0160798 -0.0132769,0.0173028 -0.0117183,0.0183941 -0.0100706,0.0193454 -0.00834621,0.0201495 -0.0065583,0.0208003 -0.00472048,0.0212927 -0.00284674,0.0216231 -0.000951325,0.0217889 0,7.25 0.1,0 0,-7.25 0.000570795,-0.0130734 0.00170804,-0.0129739 0.00283229,-0.0127756 0.00393498,-0.0124802 0.00500773,-0.0120897 0.00604236,-0.0116073 0.007031,-0.0110365 0.00796614,-0.0103817 0.00884065,-0.00964788 0.00964788,-0.00884065 0.0103817,-0.00796614 0.0110365,-0.007031 0.0116073,-0.00604236 0.0120897,-0.00500773 0.0124802,-0.00393498 0.0127756,-0.00283229 0.0129739,-0.00170804 0.0130734,-0.000570795 8.50354,8.88178e-16 0.0130734,0.000570795 0.0129739,0.00170804 0.0127756,0.00283229 0.0124802,0.00393498 0.0120897,0.00500773 0.0116073,0.00604236 0.0110365,0.007031 0.0103817,0.00796614 0.00964788,0.00884065 0.00884065,0.00964788 0.00796614,0.0103817 0.007031,0.0110365 0.00604236,0.0116073 0.00500773,0.0120897 0.00393498,0.0124802 0.00283229,0.0127756 0.00170804,0.0129739 0.000570795,0.0130734 0,7.25 z "/>
<path fill="rgb(42,41,42)" stroke="rgb(42,41,42)" d="M 8.90354,7.5 l 0.1,0 0,4.25089 -0.000951325,0.0217889 -0.00284674,0.0216231 -0.00472048,0.0212927 -0.0065583,0.0208003 -0.00834621,0.0201495 -0.0100706,0.0193454 -0.0117183,0.0183941 -0.0132769,0.0173028 -0.0147344,0.0160798 -0.0160798,0.0147344 -0.0173028,0.0132769 -0.0183941,0.0117183 -0.0193454,0.0100706 -0.0201495,0.00834621 -0.0208003,0.0065583 -0.0212927,0.00472048 -0.0216231,0.00284674 -0.0217889,0.000951325 -8.50354,0 -0.0217889,-0.000951325 -0.0216231,-0.00284674 -0.0212927,-0.00472048 -0.0208003,-0.0065583 -0.0201495,-0.00834621 -0.0193454,-0.0100706 -0.0183941,-0.0117183 -0.0173028,-0.0132769 -0.0160798,-0.0147344 -0.0147344,-0.0160798 -0.0132769,-0.0173028 -0.0117183,-0.0183941 -0.0100706,-0.0193454 -0.00834621,-0.0201495 -0.0065583,-0.0208003 -0.00472048,-0.0212927 -0.00284674,-0.0216231 -0.000951325,-0.0217889 0,-4.25089 0.1,0 0,4.25089 0.000570795,0.0130734 0.00170804,0.0129739 0.00283229,0.0127756 0.00393498,0.0124802 0.00500773,0.0120897 0.00604236,0.0116073 0.007031,0.0110365 0.00796614,0.0103817 0.00884065,0.00964788 0.00964788,0.00884065 0.0103817,0.00796614 0.0110365,0.007031 0.0116073,0.00604236 0.0120897,0.00500773 0.0124802,0.00393498 0.0127756,0.00283229 0.0129739,0.00170804 0.0130734,0.000570795 8.50354,0 0.0130734,-0.000570795 0.0129739,-0.00170804 0.0127756,-0.00283229 0.0124802,-0.00393498 0.0120897,-0.00500773 0.0116073,-0.00604236 0.0110365,-0.007031 0.0103817,-0.00796614 0.00964788,-0.00884065 0.00884065,-0.00964788 0.00796614,-0.0103817 0.007031,-0.0110365 0.00604236,-0.0116073 0.00500773,-0.0120897 0.00393498,-0.0124802 0.00283229,-0.0127756 0.00170804,-0.0129739 0.000570795,-0.0130734 0,-4.25089 z "/>
<path fill="rgb(187,30,16)" stroke="rgb(187,30,16)" d="M 7.56118,6.75 l -6.11882,0 -0.0502189,0.24731 -0.0302608,0.250536 -0.0101086,0.252154 -0.2,0 0.0127478,-0.291972 0.0381463,-0.28975 0.0632545,-0.285322 0.0878812,-0.278724 0.111839,-0.270004 0.134946,-0.259229 0.157026,-0.246481 0.17791,-0.231857 0.197441,-0.215469 0.215469,-0.197441 0.231857,-0.17791 0.246481,-0.157026 0.259229,-0.134946 0.270004,-0.111839 0.278724,-0.0878812 0.285322,-0.0632545 0.28975,-0.0381463 0.291972,-0.0127478 0.291972,0.0127478 0.28975,0.0381463 0.285322,0.0632545 0.278724,0.0878812 0.270004,0.111839 0.259229,0.134946 0.246481,0.157026 0.231857,0.17791 0.215469,0.197441 0.197441,0.215469 0.17791,0.231857 0.157026,0.246481 0.134946,0.259229 0.111839,0.270004 0.0878812,0.278724 0.0632545,0.285322 0.0381463,0.28975 0.0127478,0.291972 -0.2,0 -0.0101086,-0.252154 -0.0302608,-0.250536 -0.0502189,-0.24731 z "/>
<path fill="rgb(187,30,16)" stroke="rgb(187,30,16)" d="M 0.951769,7.5 l -0.2,0 0.0142699,-0.326834 0.042701,-0.324347 0.0708072,-0.319391 0.0983745,-0.312004 0.125193,-0.302243 0.151059,-0.290182 0.175775,-0.275912 0.199154,-0.259542 0.221016,-0.241197 0.241197,-0.221016 0.259542,-0.199154 0.275912,-0.175775 0.290182,-0.151059 0.302243,-0.125193 0.312004,-0.0983745 0.319391,-0.0708072 0.324347,-0.042701 0.326834,-0.0142699 0.326834,0.0142699 0.324347,0.042701 0.319391,0.0708072 0.312004,0.0983745 0.302243,0.125193 0.290182,0.151059 0.275912,0.175775 0.259542,0.199154 0.241197,0.221016 0.221016,0.241197 0.199154,0.259542 0.175775,0.275912 0.151059,0.290182 0.125193,0.302243 0.0983745,0.312004 0.0708072,0.319391 0.042701,0.324347 0.0142699,0.326834 -0.2,0 -0.0135088,-0.309403 -0.0404237,-0.307048 -0.0670308,-0.302357 -0.0931279,-0.295364 -0.118516,-0.286123 -0.143002,-0.274705 -0.1664,-0.261196 -0.188532,-0.2457 -0.209229,-0.228333 -0.228333,-0.209229 -0.2457,-0.188532 -0.261196,-0.1664 -0.274705,-0.143002 -0.286123,-0.118516 -0.295364,-0.0931279 -0.302357,-0.0670308 -0.307048,-0.0404237 -0.309403,-0.0135088 -0.309403,0.0135088 -0.307048,0.0404237 -0.302357,0.0670308 -0.295364,0.0931279 -0.286123,0.118516 -0.274705,0.143002 -0.261196,0.1664 -0.2457,0.188532 -0.228333,0.209229 -0.209229,0.228333 -0.188532,0.2457 -0.1664,0.261196 -0.143002,0.274705 -0.118516,0.286123 -0.0931279,0.295364 -0.0670308,0.302357 -0.0404237,0.307048 -0.0135088,0.309403 z "/>
<path fill="rgb(187,30,16)" stroke="rgb(187,30,16)" d="M 0.951769,7.5 l 0.0135088,0.309403 0.0404237,0.307048 0.0670308,0.302357 0.0931279,0.295364 0.118516,0.286123 0.143002,0.274705 0.1664,0.261196 0.188532,0.2457 0.209229,0.228333 0.228333,0.209229 0.2457,0.188532 0.261196,0.1664 0.274705,0.143002 0.286123,0.118516 0.295364,0.0931279 0.302357,0.0670308 0.307048,0.0404237 0.309403,0.0135088 0.309403,-0.0135088 0.307048,-0.0404237 0.302357,-0.0670308 0.295364,-0.0931279 0.286123,-0.118516 0.274705,-0.143002 0.261196,-0.1664 0.2457,-0.188532 0.228333,-0.209229 0.209229,-0.228333 0.188532,-0.2457 0.1664,-0.261196 0.143002,-0.274705 0.118516,-0.286123 0.0931279,-0.295364 0.0670308,-0.302357 0.0404237,-0.307048 0.0135088,-0.309403 0.2,0 -0.0142699,0.326834 -0.042701,0.324347 -0.0708072,0.319391 -0.0983745,0.312004 -0.125193,0.302243 -0.151059,0.290182 -0.175775,0.275912 -0.199154,0.259542 -0.221016,0.241197 -0.241197,0.221016 -0.259542,0.199154 -0.275912,0.175775 -0.290182,0.151059 -0.302243,0.125193 -0.312004,0.0983745 -0.319391,0.0708072 -0.324347,0.042701 -0.326834,0.0142699 -0.326834,-0.0142699 -0.324347,-0.042701 -0.319391,-0.0708072 -0.312004,-0.0983745 -0.302243,-0.125193 -0.290182,-0.151059 -0.275912,-0.175775 -0.259542,-0.199154 -0.241197,-0.221016 -0.221016,-0.241197 -0.199154,-0.259542 -0.175775,-0.275912 -0.151059,-0.290182 -0.125193,-0.302243 -0.0983745,-0.312004 -0.0708072,-0.319391 -0.042701,-0.324347 -0.0142699,-0.326834 0.2,0 z "/>
<path fill="rgb(187,30,16)" stroke="rgb(187,30,16)" d="M 7.85177,7.5 l -0.0127478,0.291972 -0.0381463,0.28975 -0.0632545,0.285322 -0.0878812,0.278724 -0.111839,0.270004 -0.134946,0.259229 -0.157026,0.246481 -0.17791,0.231857 -0.197441,0.215469 -0.215469,0.197441 -0.231857,0.17791 -0.246481,0.157026 -0.259229,0.134946 -0.270004,0.111839 -0.278724,0.0878812 -0.285322,0.0632545 -0.28975,0.0381463 -0.291972,0.0127478 -0.291972,-0.0127478 -0.28975,-0.0381463 -0.285322,-0.0632545 -0.278724,-0.0878812 -0.270004,-0.111839 -0.259229,-0.134946 -0.246481,-0.157026 -0.231857,-0.17791 -0.215469,-0.197441 -0.197441,-0.215469 -0.17791,-0.231857 -0.157026,-0.246481 -0.134946,-0.259229 -0.111839,-0.270004 -0.0878812,-0.278724 -0.0632545,-0.285322 -0.0381463,-0.28975 -0.0127478,-0.291972 0.2,0 0.0101086,0.252154 0.0302608,0.250536 0.0502189,0.24731 6.11882,0 0.0502189,-0.24731 0.0302608,-0.250536 0.0101086,-0.252154 0.2,0 z "/>
</g></g></svg>
