<?xml version="1.0" encoding="UTF-8" standalone="no"?>
<!DOCTYPE svg PUBLIC "-//W3C//DTD SVG 1.1//EN" "http://www.w3.org/Graphics/SVG/1.1/DTD/svg11-flat.dtd"
[

]>
<svg xmlns="http://www.w3.org/2000/svg"  viewBox="-0.108333 -0.108333 15.7167 6.71667"><g fill="none" stroke="black" stroke-width="0.0125" transform="translate(0,6.5) scale(1, -1)">
<g id="Output" >
<path fill="rgb(0,91,140)" stroke="rgb(0,91,140)" d="M 14.8,6.3 l -7.05,0 -1.77636e-15,-0.2 7.05,8.88178e-16 0.0261467,-0.00114159 0.0259477,-0.00341608 0.0255513,-0.00566458 0.0249603,-0.00786996 0.0241794,-0.0100155 0.0232145,-0.0120847 0.0220729,-0.014062 0.0207634,-0.0159323 0.0192958,-0.0176813 0.0176813,-0.0192958 0.0159323,-0.0207634 0.014062,-0.0220729 0.0120847,-0.0232145 0.0100155,-0.0241794 0.00786996,-0.0249603 0.00566458,-0.0255513 0.00341608,-0.0259477 0.00114159,-0.0261467 1.77636e-15,-5.1 -0.00114159,-0.0261467 -0.00341608,-0.0259477 -0.00566458,-0.0255513 -0.00786996,-0.0249603 -0.0100155,-0.0241794 -0.0120847,-0.0232145 -0.014062,-0.0220729 -0.0159323,-0.0207634 -0.0176813,-0.0192958 -0.0192958,-0.0176813 -0.0207634,-0.0159323 -0.0220729,-0.014062 -0.0232145,-0.0120847 -0.0241794,-0.0100155 -0.0249603,-0.00786996 -0.0255513,-0.00566458 -0.0259477,-0.00341608 -0.0261467,-0.00114159 -7.05,1.33227e-15 -8.88178e-16,-0.2 7.05,0 0.0435779,0.00190265 0.0432462,0.00569347 0.0425854,0.00944096 0.0416005,0.0131166 0.0402991,0.0166924 0.0386909,0.0201412 0.0367882,0.0234367 0.0346056,0.0265538 0.0321596,0.0294688 0.0294688,0.0321596 0.0265538,0.0346056 0.0234367,0.0367882 0.0201412,0.0386909 0.0166924,0.0402991 0.0131166,0.0416005 0.00944096,0.0425854 0.00569347,0.0432462 0.00190265,0.0435779 1.77636e-15,5.1 -0.00190265,0.0435779 -0.00569347,0.0432462 -0.00944096,0.0425854 -0.0131166,0.0416005 -0.0166924,0.0402991 -0.0201412,0.0386909 -0.0234367,0.0367882 -0.0265538,0.0346056 -0.0294688,0.0321596 -0.0321596,0.0294688 -0.0346056,0.0265538 -0.0367882,0.0234367 -0.0386909,0.0201412 -0.0402991,0.0166924 -0.0416005,0.0131166 -0.0425854,0.00944096 -0.0432462,0.00569347 -0.0435779,0.00190265 z "/>
<path fill="rgb(241,240,234)" stroke="rgb(241,240,234)" d="M 14.8,6.3 l 0.0435779,-0.00190265 0.0432462,-0.00569347 0.0425854,-0.00944096 0.0416005,-0.0131166 0.0402991,-0.0166924 0.0386909,-0.0201412 0.0367882,-0.0234367 0.0346056,-0.0265538 0.0321596,-0.0294688 0.0294688,-0.0321596 0.0265538,-0.0346056 0.0234367,-0.0367882 0.0201412,-0.0386909 0.0166924,-0.0402991 0.0131166,-0.0416005 0.00944096,-0.0425854 0.00569347,-0.0432462 0.00190265,-0.0435779 -1.77636e-15,-5.1 -0.00190265,-0.0435779 -0.00569347,-0.0432462 -0.00944096,-0.0425854 -0.0131166,-0.0416005 -0.0166924,-0.0402991 -0.0201412,-0.0386909 -0.0234367,-0.0367882 -0.0265538,-0.0346056 -0.0294688,-0.0321596 -0.0321596,-0.0294688 -0.0346056,-0.0265538 -0.0367882,-0.0234367 -0.0386909,-0.0201412 -0.0402991,-0.0166924 -0.0416005,-0.0131166 -0.0425854,-0.00944096 -0.0432462,-0.00569347 -0.0435779,-0.00190265 -7.05,0 8.88178e-16,-0.2 7.05,-3.55271e-15 0.061009,0.00266371 0.0605447,0.00797086 0.0596196,0.0132173 0.0582408,0.0183632 0.0564187,0.0233694 0.0541672,0.0281977 0.0515035,0.0328114 0.0484478,0.0371753 0.0450234,0.0412564 0.0412564,0.0450234 0.0371753,0.0484478 0.0328114,0.0515035 0.0281977,0.0541672 0.0233694,0.0564187 0.0183632,0.0582408 0.0132173,0.0596196 0.00797086,0.0605447 0.00266371,0.061009 -1.77636e-15,5.1 -0.00266371,0.061009 -0.00797086,0.0605447 -0.0132173,0.0596196 -0.0183632,0.0582408 -0.0233694,0.0564187 -0.0281977,0.0541672 -0.0328114,0.0515035 -0.0371753,0.0484478 -0.0412564,0.0450234 -0.0450234,0.0412564 -0.0484478,0.0371753 -0.0515035,0.0328114 -0.0541672,0.0281977 -0.0564187,0.0233694 -0.0582408,0.0183632 -0.0596196,0.0132173 -0.0605447,0.00797086 -0.061009,0.00266371 -7.05,-8.88178e-16 8.88178e-16,-0.2 7.05,0 z "/>
<path fill="rgb(241,240,234)" stroke="rgb(241,240,234)" d="M 15.1,5.8 l -0.00114159,0.0261467 -0.00341608,0.0259477 -0.00566458,0.0255513 -0.00786996,0.0249603 -0.0100155,0.0241794 -0.0120847,0.0232145 -0.014062,0.0220729 -0.0159323,0.0207634 -0.0176813,0.0192958 -0.0192958,0.0176813 -0.0207634,0.0159323 -0.0220729,0.014062 -0.0232145,0.0120847 -0.0241794,0.0100155 -0.0249603,0.00786996 -0.0255513,0.00566458 -0.0259477,0.00341608 -0.0261467,0.00114159 -7.05,-8.88178e-16 8.88178e-16,-5.7 7.05,-1.33227e-15 0.0261467,0.00114159 0.0259477,0.00341608 0.0255513,0.00566458 0.0249603,0.00786996 0.0241794,0.0100155 0.0232145,0.0120847 0.0220729,0.014062 0.0207634,0.0159323 0.0192958,0.0176813 0.0176813,0.0192958 0.0159323,0.0207634 0.014062,0.0220729 0.0120847,0.0232145 0.0100155,0.0241794 0.00786996,0.0249603 0.00566458,0.0255513 0.00341608,0.0259477 0.00114159,0.0261467 -1.77636e-15,5.1 z "/>
<path fill="rgb(0,91,140)" stroke="rgb(0,91,140)" d="M 0.4,5.8 l -2.66454e-15,-5.1 0.00114159,-0.0261467 0.00341608,-0.0259477 0.00566458,-0.0255513 0.00786996,-0.0249603 0.0100155,-0.0241794 0.0120847,-0.0232145 0.014062,-0.0220729 0.0159323,-0.0207634 0.0176813,-0.0192958 0.0192958,-0.0176813 0.0207634,-0.0159323 0.0220729,-0.014062 0.0232145,-0.0120847 0.0241794,-0.0100155 0.0249603,-0.00786996 0.0255513,-0.00566458 0.0259477,-0.00341608 0.0261467,-0.00114159 7.05,1.33227e-15 -8.88178e-16,-0.2 -7.05,0 -0.0435779,0.00190265 -0.0432462,0.00569347 -0.0425854,0.00944096 -0.0416005,0.0131166 -0.0402991,0.0166924 -0.0386909,0.0201412 -0.0367882,0.0234367 -0.0346056,0.0265538 -0.0321596,0.0294688 -0.0294688,0.0321596 -0.0265538,0.0346056 -0.0234367,0.0367882 -0.0201412,0.0386909 -0.0166924,0.0402991 -0.0131166,0.0416005 -0.00944096,0.0425854 -0.00569347,0.0432462 -0.00190265,0.0435779 -1.77636e-15,5.1 0.00190265,0.0435779 0.00569347,0.0432462 0.00944096,0.0425854 0.0131166,0.0416005 0.0166924,0.0402991 0.0201412,0.0386909 0.0234367,0.0367882 0.0265538,0.0346056 0.0294688,0.0321596 0.0321596,0.0294688 0.0346056,0.0265538 0.0367882,0.0234367 0.0386909,0.0201412 0.0402991,0.0166924 0.0416005,0.0131166 0.0425854,0.00944096 0.0432462,0.00569347 0.0435779,0.00190265 7.05,0 -1.77636e-15,-0.2 -7.05,8.88178e-16 -0.0261467,-0.00114159 -0.0259477,-0.00341608 -0.0255513,-0.00566458 -0.0249603,-0.00786996 -0.0241794,-0.0100155 -0.0232145,-0.0120847 -0.0220729,-0.014062 -0.0207634,-0.0159323 -0.0192958,-0.0176813 -0.0176813,-0.0192958 -0.0159323,-0.0207634 -0.014062,-0.0220729 -0.0120847,-0.0232145 -0.0100155,-0.0241794 -0.00786996,-0.0249603 -0.00566458,-0.0255513 -0.00341608,-0.0259477 -0.00114159,-0.0261467 z "/>
<path fill="rgb(241,240,234)" stroke="rgb(241,240,234)" d="M 0.7,6.3 l -0.0435779,-0.00190265 -0.0432462,-0.00569347 -0.0425854,-0.00944096 -0.0416005,-0.0131166 -0.0402991,-0.0166924 -0.0386909,-0.0201412 -0.0367882,-0.0234367 -0.0346056,-0.0265538 -0.0321596,-0.0294688 -0.0294688,-0.0321596 -0.0265538,-0.0346056 -0.0234367,-0.0367882 -0.0201412,-0.0386909 -0.0166924,-0.0402991 -0.0131166,-0.0416005 -0.00944096,-0.0425854 -0.00569347,-0.0432462 -0.00190265,-0.0435779 1.77636e-15,-5.1 0.00190265,-0.0435779 0.00569347,-0.0432462 0.00944096,-0.0425854 0.0131166,-0.0416005 0.0166924,-0.0402991 0.0201412,-0.0386909 0.0234367,-0.0367882 0.0265538,-0.0346056 0.0294688,-0.0321596 0.0321596,-0.0294688 0.0346056,-0.0265538 0.0367882,-0.0234367 0.0386909,-0.0201412 0.0402991,-0.0166924 0.0416005,-0.0131166 0.0425854,-0.00944096 0.0432462,-0.00569347 0.0435779,-0.00190265 7.05,0 8.88178e-16,-0.2 -7.05,-3.55271e-15 -0.061009,0.00266371 -0.0605447,0.00797086 -0.0596196,0.0132173 -0.0582408,0.0183632 -0.0564187,0.0233694 -0.0541672,0.0281977 -0.0515035,0.0328114 -0.0484478,0.0371753 -0.0450234,0.0412564 -0.0412564,0.0450234 -0.0371753,0.0484478 -0.0328114,0.0515035 -0.0281977,0.0541672 -0.0233694,0.0564187 -0.0183632,0.0582408 -0.0132173,0.0596196 -0.00797086,0.0605447 -0.00266371,0.061009 8.88178e-16,5.1 0.00266371,0.061009 0.00797086,0.0605447 0.0132173,0.0596196 0.0183632,0.0582408 0.0233694,0.0564187 0.0281977,0.0541672 0.0328114,0.0515035 0.0371753,0.0484478 0.0412564,0.0450234 0.0450234,0.0412564 0.0484478,0.0371753 0.0515035,0.0328114 0.0541672,0.0281977 0.0564187,0.0233694 0.0582408,0.0183632 0.0596196,0.0132173 0.0605447,0.00797086 0.061009,0.00266371 7.05,-8.88178e-16 8.88178e-16,-0.2 -7.05,0 z "/>
<path fill="rgb(241,240,234)" stroke="rgb(241,240,234)" d="M 0.4,5.8 l 0.00114159,0.0261467 0.00341608,0.0259477 0.00566458,0.0255513 0.00786996,0.0249603 0.0100155,0.0241794 0.0120847,0.0232145 0.014062,0.0220729 0.0159323,0.0207634 0.0176813,0.0192958 0.0192958,0.0176813 0.0207634,0.0159323 0.0220729,0.014062 0.0232145,0.0120847 0.0241794,0.0100155 0.0249603,0.00786996 0.0255513,0.00566458 0.0259477,0.00341608 0.0261467,0.00114159 7.05,-8.88178e-16 8.88178e-16,-5.7 -7.05,-1.33227e-15 -0.0261467,0.00114159 -0.0259477,0.00341608 -0.0255513,0.00566458 -0.0249603,0.00786996 -0.0241794,0.0100155 -0.0232145,0.0120847 -0.0220729,0.014062 -0.0207634,0.0159323 -0.0192958,0.0176813 -0.0176813,0.0192958 -0.0159323,0.0207634 -0.014062,0.0220729 -0.0120847,0.0232145 -0.0100155,0.0241794 -0.00786996,0.0249603 -0.00566458,0.0255513 -0.00341608,0.0259477 -0.00114159,0.0261467 2.66454e-15,5.1 z "/>
<path fill="rgb(0,91,140)" stroke="rgb(0,91,140)" d="M 11.9077,1.99876 l -0.0303663,-0.00164142 -0.0410356,-0.00902782 -0.0377527,-0.0155935 -0.0361113,-0.0221592 -0.0344699,-0.0287249 0.366037,-0.0073864 -0.031187,0.0303663 -0.0344699,0.0238006 -0.0377527,0.0164142 -0.0402148,0.0106692 -0.042677,0.00328284 z "/>
<path fill="rgb(0,91,140)" stroke="rgb(0,91,140)" d="M 12.318,1.99876 l -0.025442,-0.00164142 -0.0393941,-0.00656569 -0.0393941,-0.01149 -0.0385734,-0.0172349 -0.0393941,-0.0229799 -0.0393941,-0.0279042 0.439901,-0.0147728 -0.0287249,0.0320077 -0.0279042,0.0229799 -0.0352906,0.0205178 -0.0385734,0.0147728 -0.0418563,0.00902782 -0.0459598,0.00328284 z "/>
<path fill="rgb(0,91,140)" stroke="rgb(0,91,140)" d="M 11.728,1.9807 l -0.178915,0 0,-0.729612 0.178915,0 0,0.43826 0.000820711,0.0172349 0.0106692,0.0410356 0.0221592,0.0352906 0.00820711,0.00820711 0.0344699,0.0213385 0.0434977,0.00656569 0.726329,0.00328284 -0.0155935,0.0385734 -0.0221592,0.0352906 -0.439901,0.0147728 -0.00246213,0.00328284 -0.366037,0.0073864 0,0.0590912 z "/>
<path fill="rgb(0,91,140)" stroke="rgb(0,91,140)" d="M 12.5741,1.8223 l -0.726329,-0.00328284 0.430873,0 0.0196971,-0.000820711 0.0410356,-0.01149 0.031187,-0.0238006 0.01149,-0.0155935 0.0164142,-0.0377527 0.00574498,-0.0443184 0,-0.434156 0.178915,0 0,0.501454 -0.00164142,0.0287249 -0.0073864,0.0410356 z "/>
<path fill="rgb(0,91,140)" stroke="rgb(0,91,140)" d="M 11.8478,1.81902 l 0.0196971,-0.000820711 0.0393941,-0.0123107 0.0352906,-0.0246213 0.0139521,-0.0155935 0.0180556,-0.036932 0.00574498,-0.0434977 0,-0.434156 0.172349,0 0,0.441543 0.000820711,0.0139521 0.01149,0.0402148 0.025442,0.0344699 0.01149,0.00984853 0.0361113,0.0213385 0.0410356,0.00656569 -0.430873,0 z "/>
<path fill="rgb(0,91,140)" stroke="rgb(0,91,140)" d="M 11.0919,1.99876 l -0.0188764,-0.000820711 -0.0410356,-0.00328284 -0.0402148,-0.0073864 -0.0410356,-0.00984853 -0.0418563,-0.0147728 -0.0418563,-0.0172349 -0.0418563,-0.0213385 0.073864,-0.154294 0.0188764,0.01149 0.0393941,0.0188764 0.0402148,0.0139521 0.0418563,0.00820711 0.0418563,0.00246213 0.280683,0.01149 -0.0147728,0.0336492 -0.0188764,0.0303663 -0.0221592,0.0262628 -0.0262628,0.0221592 -0.0303663,0.0180556 -0.0336492,0.0139521 -0.0377527,0.00984853 -0.0410356,0.00574498 -0.0451391,0.00246213 z "/>
<path fill="rgb(0,91,140)" stroke="rgb(0,91,140)" d="M 11.3619,1.83626 l -0.280683,-0.01149 0.00164142,0 0.042677,-0.00492427 0.0352906,-0.0139521 0.0262628,-0.0238006 0.0172349,-0.0336492 0.00984853,-0.042677 -0.325002,-0.00656569 -0.0336492,-0.0196971 -0.00246213,-0.00246213 -0.0303663,-0.0270835 -0.0229799,-0.0320077 0.260165,-0.0352906 0.0262628,-0.000820711 0.0410356,-0.00574498 0.042677,-0.0106692 0.0443184,-0.0155935 0,-0.112437 -0.0385734,-0.0155935 -0.0434977,-0.0139521 -0.0402148,-0.00820711 -0.036932,-0.00328284 -0.270835,-0.00246213 0.0164142,-0.0377527 0.0221592,-0.0320077 0.0287249,-0.0279042 0.362754,-0.0131314 0,-0.0320077 0.169066,0 0,0.441543 -0.000820711,0.0164142 -0.00328284,0.0467805 -0.00656569,0.0418563 -0.0106692,0.0385734 z "/>
<path fill="rgb(0,91,140)" stroke="rgb(0,91,140)" d="M 11.0509,1.73203 l -0.0377527,-0.00164142 -0.0459598,-0.00574498 -0.0410356,-0.0106692 -0.036932,-0.0147728 0.325002,0.00656569 -0.0344699,0.00984853 -0.0418563,0.00902782 -0.0434977,0.00492427 -0.0434977,0.00246213 z "/>
<path fill="rgb(0,91,140)" stroke="rgb(0,91,140)" d="M 10.7997,1.61795 l -0.0164142,-0.036932 -0.00984853,-0.0418563 -0.00410356,-0.0467805 0.000820711,-0.0106692 0.00410356,-0.0459598 0.00984853,-0.0418563 0.270835,0.00246213 -0.0147728,0.000820711 -0.042677,0.00902782 -0.0336492,0.0196971 -0.0238006,0.0279042 -0.00984853,0.0385734 0.00656569,0.0320077 0.0279042,0.0328284 0.0106692,0.00656569 0.0377527,0.0147728 0.0467805,0.00410356 -0.260165,0.0352906 z "/>
<path fill="rgb(0,91,140)" stroke="rgb(0,91,140)" d="M 10.8514,1.29623 l 0.0180556,-0.0139521 0.0352906,-0.0196971 0.0393941,-0.0139521 0.042677,-0.00820711 0.0467805,-0.00246213 0.0155935,0 0.0443184,0.00410356 0.0418563,0.00902782 0.0402148,0.0131314 0.0385734,0.0188764 -0.362754,0.0131314 z "/>
<path fill="rgb(0,91,140)" stroke="rgb(0,91,140)" d="M 10.3533,1.99876 l -0.0188764,-0.000820711 -0.0402148,-0.00328284 -0.0410356,-0.0073864 -0.0410356,-0.00984853 -0.0418563,-0.0147728 -0.0418563,-0.0172349 -0.0418563,-0.0213385 0.0746847,-0.154294 0.0180556,0.01149 0.0393941,0.0188764 0.0402148,0.0139521 0.0418563,0.00820711 0.0418563,0.00246213 0.280683,0.01149 -0.0147728,0.0336492 -0.0188764,0.0303663 -0.0221592,0.0262628 -0.0262628,0.0221592 -0.0295456,0.0180556 -0.0344699,0.0139521 -0.036932,0.00984853 -0.0418563,0.00574498 -0.0451391,0.00246213 z "/>
<path fill="rgb(0,91,140)" stroke="rgb(0,91,140)" d="M 10.6233,1.83626 l -0.280683,-0.01149 0.00164142,0 0.042677,-0.00492427 0.0352906,-0.0139521 0.0262628,-0.0238006 0.0172349,-0.0336492 0.00984853,-0.042677 -0.325002,-0.00656569 -0.0336492,-0.0196971 -0.00246213,-0.00246213 -0.0303663,-0.0270835 -0.0229799,-0.0320077 0.260165,-0.0352906 0.0262628,-0.000820711 0.0410356,-0.00574498 0.042677,-0.0106692 0.0443184,-0.0155935 0,-0.112437 -0.0385734,-0.0155935 -0.0434977,-0.0139521 -0.0402148,-0.00820711 -0.0361113,-0.00328284 -0.270835,-0.00246213 0.0155935,-0.0377527 0.0229799,-0.0320077 0.0279042,-0.0279042 0.362754,-0.0131314 0,-0.0320077 0.169066,0 0,0.441543 0,0.0164142 -0.00328284,0.0467805 -0.0073864,0.0418563 -0.0106692,0.0385734 z "/>
<path fill="rgb(0,91,140)" stroke="rgb(0,91,140)" d="M 10.3122,1.73203 l -0.0377527,-0.00164142 -0.0459598,-0.00574498 -0.0410356,-0.0106692 -0.036932,-0.0147728 0.325002,0.00656569 -0.0336492,0.00984853 -0.042677,0.00902782 -0.042677,0.00492427 -0.0443184,0.00246213 z "/>
<path fill="rgb(0,91,140)" stroke="rgb(0,91,140)" d="M 10.0611,1.61795 l -0.0164142,-0.036932 -0.00984853,-0.0418563 -0.00328284,-0.0467805 0,-0.0106692 0.00410356,-0.0459598 0.0106692,-0.0418563 0.270835,0.00246213 -0.0155935,0.000820711 -0.042677,0.00902782 -0.0336492,0.0196971 -0.0238006,0.0279042 -0.00984853,0.0385734 0.00656569,0.0320077 0.0279042,0.0328284 0.0106692,0.00656569 0.0377527,0.0147728 0.0467805,0.00410356 -0.260165,0.0352906 z "/>
<path fill="rgb(0,91,140)" stroke="rgb(0,91,140)" d="M 10.1128,1.29623 l 0.0180556,-0.0139521 0.0352906,-0.0196971 0.0393941,-0.0139521 0.042677,-0.00820711 0.0467805,-0.00246213 0.0164142,0 0.0434977,0.00410356 0.0418563,0.00902782 0.0402148,0.0131314 0.0385734,0.0188764 -0.362754,0.0131314 z "/>
<path fill="rgb(0,91,140)" stroke="rgb(0,91,140)" d="M 9.63514,1.99383 l -0.025442,-0.000820711 -0.0434977,-0.0073864 -0.0385734,-0.0147728 -0.0344699,-0.0213385 -0.0303663,-0.0279042 0.393941,-0.0238006 -0.0295456,0.0303663 -0.0279042,0.0213385 -0.0352906,0.0196971 -0.0393941,0.0139521 -0.042677,0.00820711 -0.0467805,0.00246213 z "/>
<path fill="rgb(0,91,140)" stroke="rgb(0,91,140)" d="M 9.46279,1.9807 l -0.178915,0 0,-0.729612 0.178915,0 0,0.43826 0.00164142,0.0188764 0.0123107,0.0393941 0.0246213,0.036932 0.0139521,0.0131314 0.0352906,0.0205178 0.0418563,0.00656569 0.286428,0.0377527 -0.0221592,0.0352906 -0.393941,0.0238006 0,0.0590912 z "/>
<path fill="rgb(0,91,140)" stroke="rgb(0,91,140)" d="M 9.87889,1.86252 l -0.286428,-0.0377527 0.0229799,-0.000820711 0.0402148,-0.0123107 0.0336492,-0.0229799 0.0147728,-0.0180556 0.0172349,-0.036932 0.00574498,-0.0443184 0,-0.43826 0.174811,0 0,0.50802 -0.000820711,0.0229799 -0.0073864,0.0418563 -0.0147728,0.0385734 z "/>
<path fill="rgb(0,91,140)" stroke="rgb(0,91,140)" d="M 8.84726,1.99137 l -0.00984853,0 -0.0607326,-0.00820711 -0.0549876,-0.0213385 -0.0508841,-0.0336492 -0.0451391,-0.0459598 -0.0221592,-0.0295456 -0.0295456,-0.0533462 -0.0213385,-0.0566291 -0.0131314,-0.0615533 -0.00410356,-0.0656569 0.00164142,-0.0451391 0.00984853,-0.0640155 0.0180556,-0.0582705 0.0270835,-0.0541669 0.262628,0.00410356 -0.0336492,0.00492427 -0.0525255,0.0328284 -0.0287249,0.0385734 -0.0221592,0.0607326 -0.0073864,0.0246213 0.445646,0 0,0.0525255 -0.000820711,0.0196971 -0.0073864,0.0615533 -0.42759,0.00656569 0.00902782,0.031187 0.0295456,0.0541669 0.0418563,0.0328284 0.0541669,0.01149 0.245393,0.00164142 -0.0320077,0.0476012 -0.0073864,0.00984853 -0.0451391,0.0451391 -0.0508841,0.0320077 -0.0566291,0.0188764 -0.0607326,0.00656569 z "/>
<path fill="rgb(0,91,140)" stroke="rgb(0,91,140)" d="M 9.10004,1.83133 l -0.245393,-0.00164142 0.0221592,-0.00164142 0.0533462,-0.0246213 0.0238006,-0.0352906 0.025442,-0.068119 -0.259345,0 0.42759,-0.00656569 -0.0164142,0.0631947 -0.00492427,0.0123107 -0.0262628,0.062374 z "/>
<path fill="rgb(0,91,140)" stroke="rgb(0,91,140)" d="M 8.96955,1.45791 l -0.00820711,-0.00820711 -0.0525255,-0.0385734 -0.0541669,-0.0131314 -0.262628,-0.00410356 0.0352906,-0.0500634 0.0106692,-0.0123107 0.0467805,-0.042677 0.0517048,-0.031187 0.0566291,-0.0180556 0.0615533,-0.00656569 0.0172349,0.000820711 0.0599119,0.00902782 0.0558083,0.0221592 0.0500634,0.0344699 0.0451391,0.0459598 0.00574498,0.0073864 -0.119003,0.105051 z "/>
<path fill="rgb(0,91,140)" stroke="rgb(0,91,140)" d="M 8.30477,2.26631 l -0.181377,-0.0648362 0,-0.224875 -0.119824,0 0,-0.167425 0.119824,0 0,-0.351264 0,-0.00410356 0.00328284,-0.0476012 0.258524,0.00656569 -0.0328284,0.00574498 -0.0262628,0.0196971 -0.0155935,0.0336492 -0.00574498,0.0484219 0,0.28889 0.15019,0 0,0.167425 -0.15019,0 0,0.289711 z "/>
<path fill="rgb(0,91,140)" stroke="rgb(0,91,140)" d="M 8.46645,1.45052 l -0.00574498,-0.00492427 -0.0385734,-0.0246213 -0.036932,-0.00820711 -0.258524,-0.00656569 0.00902782,-0.042677 0.0147728,-0.0377527 0.0205178,-0.0328284 0.0172349,-0.0188764 0.0328284,-0.0221592 0.0385734,-0.0139521 0.0451391,-0.00492427 0.00902782,0 0.0402148,0.00574498 0.0410356,0.0123107 0.042677,0.0196971 0.0287249,0.179736 z "/>
<path fill="rgb(0,91,140)" stroke="rgb(0,91,140)" d="M 7.64656,1.99383 l -0.025442,-0.000820711 -0.042677,-0.0073864 -0.0385734,-0.0147728 -0.0344699,-0.0213385 -0.0303663,-0.0279042 0.393121,-0.0238006 -0.0295456,0.0303663 -0.0270835,0.0213385 -0.0361113,0.0196971 -0.0393941,0.0139521 -0.042677,0.00820711 -0.0467805,0.00246213 z "/>
<path fill="rgb(0,91,140)" stroke="rgb(0,91,140)" d="M 7.47503,1.9807 l -0.179736,0 0,-0.729612 0.179736,0 0,0.43826 0.000820711,0.0188764 0.0123107,0.0393941 0.0246213,0.036932 0.0139521,0.0131314 0.0352906,0.0205178 0.042677,0.00656569 0.285607,0.0377527 -0.0221592,0.0352906 -0.393121,0.0238006 0,0.0590912 z "/>
<path fill="rgb(0,91,140)" stroke="rgb(0,91,140)" d="M 7.89031,1.86252 l -0.285607,-0.0377527 0.0221592,-0.000820711 0.0410356,-0.0123107 0.0328284,-0.0229799 0.0147728,-0.0180556 0.0172349,-0.036932 0.00574498,-0.0443184 0,-0.43826 0.174811,0 0,0.50802 -0.000820711,0.0229799 -0.0073864,0.0418563 -0.0147728,0.0385734 z "/>
<path fill="rgb(0,91,140)" stroke="rgb(0,91,140)" d="M 6.85868,1.99137 l -0.00984853,0 -0.0599119,-0.00820711 -0.0558083,-0.0213385 -0.0508841,-0.0336492 -0.0451391,-0.0459598 -0.0213385,-0.0295456 -0.0303663,-0.0533462 -0.0213385,-0.0566291 -0.0131314,-0.0615533 -0.00410356,-0.0656569 0.00164142,-0.0451391 0.00984853,-0.0640155 0.0188764,-0.0582705 0.0262628,-0.0541669 0.262628,0.00410356 -0.0328284,0.00492427 -0.0533462,0.0328284 -0.0287249,0.0385734 -0.0221592,0.0607326 -0.0073864,0.0246213 0.445646,0 0,0.0525255 0,0.0196971 -0.0073864,0.0615533 -0.42759,0.00656569 0.00902782,0.031187 0.0295456,0.0541669 0.0410356,0.0328284 0.0541669,0.01149 0.245393,0.00164142 -0.031187,0.0476012 -0.00820711,0.00984853 -0.0451391,0.0451391 -0.0508841,0.0320077 -0.0558083,0.0188764 -0.0615533,0.00656569 z "/>
<path fill="rgb(0,91,140)" stroke="rgb(0,91,140)" d="M 7.11146,1.83133 l -0.245393,-0.00164142 0.0229799,-0.00164142 0.0525255,-0.0246213 0.0238006,-0.0352906 0.025442,-0.068119 -0.258524,0 0.42759,-0.00656569 -0.0172349,0.0631947 -0.00410356,0.0123107 -0.0270835,0.062374 z "/>
<path fill="rgb(0,91,140)" stroke="rgb(0,91,140)" d="M 6.98096,1.45791 l -0.00820711,-0.00820711 -0.0525255,-0.0385734 -0.0541669,-0.0131314 -0.262628,-0.00410356 0.0352906,-0.0500634 0.0106692,-0.0123107 0.0467805,-0.042677 0.0517048,-0.031187 0.0566291,-0.0180556 0.0615533,-0.00656569 0.0172349,0.000820711 0.0607326,0.00902782 0.0549876,0.0221592 0.0500634,0.0344699 0.0459598,0.0459598 0.00574498,0.0073864 -0.119824,0.105051 z "/>
<path fill="rgb(0,91,140)" stroke="rgb(0,91,140)" d="M 6.14056,1.99137 l -0.00984853,0 -0.0599119,-0.00820711 -0.0558083,-0.0213385 -0.0508841,-0.0336492 -0.0451391,-0.0459598 -0.0213385,-0.0295456 -0.0303663,-0.0533462 -0.0213385,-0.0566291 -0.0131314,-0.0615533 -0.00410356,-0.0656569 0.00164142,-0.0451391 0.00984853,-0.0640155 0.0188764,-0.0582705 0.0262628,-0.0541669 0.262628,0.00410356 -0.0328284,0.00492427 -0.0533462,0.0328284 -0.0287249,0.0385734 -0.0221592,0.0607326 -0.0073864,0.0246213 0.445646,0 0,0.0525255 0,0.0196971 -0.0073864,0.0615533 -0.42759,0.00656569 0.00902782,0.031187 0.0295456,0.0541669 0.0410356,0.0328284 0.0541669,0.01149 0.245393,0.00164142 -0.031187,0.0476012 -0.00820711,0.00984853 -0.0451391,0.0451391 -0.0508841,0.0320077 -0.0558083,0.0188764 -0.0615533,0.00656569 z "/>
<path fill="rgb(0,91,140)" stroke="rgb(0,91,140)" d="M 6.39334,1.83133 l -0.245393,-0.00164142 0.0229799,-0.00164142 0.0525255,-0.0246213 0.0238006,-0.0352906 0.025442,-0.068119 -0.258524,0 0.42759,-0.00656569 -0.0172349,0.0631947 -0.00410356,0.0123107 -0.0270835,0.062374 z "/>
<path fill="rgb(0,91,140)" stroke="rgb(0,91,140)" d="M 6.26284,1.45791 l -0.00820711,-0.00820711 -0.0525255,-0.0385734 -0.0541669,-0.0131314 -0.262628,-0.00410356 0.0352906,-0.0500634 0.0106692,-0.0123107 0.0467805,-0.042677 0.0517048,-0.031187 0.0566291,-0.0180556 0.0615533,-0.00656569 0.0172349,0.000820711 0.0607326,0.00902782 0.0549876,0.0221592 0.0500634,0.0344699 0.0459598,0.0459598 0.00574498,0.0073864 -0.119824,0.105051 z "/>
<path fill="rgb(0,91,140)" stroke="rgb(0,91,140)" d="M 5.0129,1.99876 l -0.0303663,-0.00164142 -0.0402148,-0.00902782 -0.0385734,-0.0155935 -0.0361113,-0.0221592 -0.0336492,-0.0287249 0.366037,-0.0073864 -0.0320077,0.0303663 -0.0344699,0.0238006 -0.036932,0.0164142 -0.0402148,0.0106692 -0.0434977,0.00328284 z "/>
<path fill="rgb(0,91,140)" stroke="rgb(0,91,140)" d="M 5.42408,1.99876 l -0.0262628,-0.00164142 -0.0385734,-0.00656569 -0.0393941,-0.01149 -0.0393941,-0.0172349 -0.0385734,-0.0229799 -0.0393941,-0.0279042 0.439901,-0.0147728 -0.0295456,0.0320077 -0.0270835,0.0229799 -0.0352906,0.0205178 -0.0385734,0.0147728 -0.042677,0.00902782 -0.0451391,0.00328284 z "/>
<path fill="rgb(0,91,140)" stroke="rgb(0,91,140)" d="M 4.83398,1.9807 l -0.178915,0 0,-0.729612 0.178915,0 0,0.43826 0.000820711,0.0172349 0.0106692,0.0410356 0.0221592,0.0352906 0.00820711,0.00820711 0.0344699,0.0213385 0.042677,0.00656569 0.726329,0.00328284 -0.0147728,0.0385734 -0.0221592,0.0352906 -0.439901,0.0147728 -0.00246213,0.00328284 -0.366037,0.0073864 0,0.0590912 z "/>
<path fill="rgb(0,91,140)" stroke="rgb(0,91,140)" d="M 5.67932,1.8223 l -0.726329,-0.00328284 0.431694,0 0.0188764,-0.000820711 0.0410356,-0.01149 0.0320077,-0.0238006 0.01149,-0.0155935 0.0164142,-0.0377527 0.00492427,-0.0443184 0,-0.434156 0.179736,0 0,0.501454 -0.00164142,0.0287249 -0.00820711,0.0410356 z "/>
<path fill="rgb(0,91,140)" stroke="rgb(0,91,140)" d="M 4.95299,1.81902 l 0.0196971,-0.000820711 0.0402148,-0.0123107 0.0352906,-0.0246213 0.0139521,-0.0155935 0.0180556,-0.036932 0.00574498,-0.0434977 0,-0.434156 0.171529,0 0,0.441543 0.000820711,0.0139521 0.01149,0.0402148 0.0262628,0.0344699 0.0106692,0.00984853 0.036932,0.0213385 0.0410356,0.00656569 -0.431694,0 z "/>
<path fill="rgb(0,91,140)" stroke="rgb(0,91,140)" d="M 4.21763,1.99137 l -0.00902782,0 -0.0607326,-0.00820711 -0.0558083,-0.0213385 -0.0500634,-0.0336492 -0.0459598,-0.0459598 -0.0213385,-0.0295456 -0.0303663,-0.0533462 -0.0213385,-0.0566291 -0.0123107,-0.0615533 -0.00492427,-0.0656569 0.00246213,-0.0451391 0.00984853,-0.0640155 0.0180556,-0.0582705 0.0262628,-0.0541669 0.262628,0.00410356 -0.0328284,0.00492427 -0.0533462,0.0328284 -0.0287249,0.0385734 -0.0221592,0.0607326 -0.0073864,0.0246213 0.445646,0 0,0.0525255 0,0.0196971 -0.0073864,0.0615533 -0.42759,0.00656569 0.00902782,0.031187 0.0295456,0.0541669 0.0410356,0.0328284 0.0541669,0.01149 0.245393,0.00164142 -0.031187,0.0476012 -0.00820711,0.00984853 -0.0451391,0.0451391 -0.0508841,0.0320077 -0.0558083,0.0188764 -0.0615533,0.00656569 z "/>
<path fill="rgb(0,91,140)" stroke="rgb(0,91,140)" d="M 4.47041,1.83133 l -0.245393,-0.00164142 0.0229799,-0.00164142 0.0525255,-0.0246213 0.0246213,-0.0352906 0.025442,-0.068119 -0.259345,0 0.42759,-0.00656569 -0.0172349,0.0631947 -0.00410356,0.0123107 -0.0270835,0.062374 z "/>
<path fill="rgb(0,91,140)" stroke="rgb(0,91,140)" d="M 4.33992,1.45791 l -0.0073864,-0.00820711 -0.0533462,-0.0385734 -0.0541669,-0.0131314 -0.262628,-0.00410356 0.0352906,-0.0500634 0.0106692,-0.0123107 0.0467805,-0.042677 0.0517048,-0.031187 0.0566291,-0.0180556 0.0615533,-0.00656569 0.0172349,0.000820711 0.0607326,0.00902782 0.0549876,0.0221592 0.0500634,0.0344699 0.0459598,0.0459598 0.00574498,0.0073864 -0.119824,0.105051 z "/>
<path fill="rgb(0,91,140)" stroke="rgb(0,91,140)" d="M 3.3526,2.26631 l -0.0377527,-0.000820711 -0.062374,-0.00984853 -0.0566291,-0.0188764 -0.0525255,-0.0279042 -0.0476012,-0.0377527 -0.0434977,-0.0459598 -0.01149,-0.0155935 0.31187,-0.0205178 0.00574498,0 0.0574498,-0.00984853 0.0500634,-0.025442 0.0418563,-0.0418563 0.0344699,-0.0574498 0.181377,0.0648362 -0.0270835,0.0517048 -0.0344699,0.0517048 -0.0402148,0.0443184 -0.0443184,0.0361113 -0.0492427,0.0279042 -0.0541669,0.0196971 -0.0582705,0.0123107 -0.0631947,0.00328284 z "/>
<path fill="rgb(0,91,140)" stroke="rgb(0,91,140)" d="M 3.04073,2.10955 l -0.031187,-0.0476012 -0.0246213,-0.0525255 -0.0196971,-0.0574498 -0.0139521,-0.062374 -0.00820711,-0.0664776 -0.00246213,-0.0705811 0.00246213,-0.0689397 0.0073864,-0.0672983 0.0131314,-0.0615533 0.0188764,-0.0582705 0.0238006,-0.0525255 0.0287249,-0.0492427 0.317615,0.0180556 -0.0492427,0.00410356 -0.0558083,0.0196971 -0.0459598,0.0352906 -0.0352906,0.0500634 -0.0180556,0.0377527 -0.0164142,0.0566291 -0.0106692,0.0640155 -0.00328284,0.0722226 0,0.00328284 0.00492427,0.0697604 0.0123107,0.0631947 0.0196971,0.0558083 0.0287249,0.0492427 0.0123107,0.0164142 0.0451391,0.0434977 0.0525255,0.0262628 0.0590912,0.00902782 -0.31187,0.0205178 z "/>
<path fill="rgb(0,91,140)" stroke="rgb(0,91,140)" d="M 3.74982,1.74926 l -0.350444,0 0,-0.178915 0.164142,0 -0.00410356,-0.0155935 -0.0287249,-0.0541669 -0.0459598,-0.0443184 -0.0139521,-0.00984853 -0.0558083,-0.025442 -0.062374,-0.00820711 -0.317615,-0.0180556 0.00246213,-0.00328284 0.0402148,-0.0484219 0.0443184,-0.0393941 0.0500634,-0.031187 0.0549876,-0.0213385 0.0599119,-0.0131314 0.0656569,-0.00492427 0.0631947,0.00492427 0.0607326,0.0131314 0.0558083,0.0221592 0.0525255,0.0320077 0.0484219,0.0402148 0.0402148,0.0443184 0.0336492,0.0517048 0.0238006,0.0549876 0.0147728,0.0599119 0.00410356,0.0631947 0,0.129672 z "/>
<path fill="rgb(0,91,140)" stroke="rgb(0,91,140)" d="M 12.7776,4.69643 l -0.0549876,-0.00328284 -0.0730433,-0.0147728 -0.0689397,-0.0279042 -0.0648362,-0.0402148 -0.0607326,-0.0525255 0.65821,-0.0131314 -0.0566291,0.0549876 -0.062374,0.042677 -0.0672983,0.0303663 -0.0722226,0.0180556 -0.0771468,0.00574498 z "/>
<path fill="rgb(0,91,140)" stroke="rgb(0,91,140)" d="M 13.5171,4.69643 l -0.0467805,-0.00164142 -0.0705811,-0.01149 -0.0705811,-0.0213385 -0.0705811,-0.031187 -0.0697604,-0.0410356 -0.0705811,-0.0508841 0.791986,-0.0262628 -0.0525255,0.0582705 -0.0492427,0.0402148 -0.0640155,0.0377527 -0.0697604,0.0262628 -0.0755054,0.0164142 -0.0820711,0.00492427 z "/>
<path fill="rgb(0,91,140)" stroke="rgb(0,91,140)" d="M 12.4551,4.66525 l -0.322539,0 0,-1.31478 0.322539,0 0,0.789524 0.000820711,0.031187 0.0188764,0.073864 0.0402148,0.0631947 0.0147728,0.0147728 0.062374,0.0385734 0.0779675,0.0123107 1.30657,0.00574498 -0.0270835,0.0697604 -0.0393941,0.0631947 -0.791986,0.0262628 -0.00492427,0.00574498 -0.65821,0.0131314 0,0.107513 z "/>
<path fill="rgb(0,91,140)" stroke="rgb(0,91,140)" d="M 13.9767,4.37964 l -1.30657,-0.00574498 0.775572,0 0.0352906,-0.00164142 0.073864,-0.0205178 0.0566291,-0.0434977 0.0205178,-0.0270835 0.0295456,-0.068119 0.00984853,-0.0804297 0,-0.782138 0.322539,0 0,0.902782 -0.00246213,0.0517048 -0.0147728,0.0746847 z "/>
<path fill="rgb(0,91,140)" stroke="rgb(0,91,140)" d="M 12.6701,4.37389 l 0.0344699,-0.00246213 0.0722226,-0.0213385 0.0631947,-0.0443184 0.0246213,-0.0279042 0.0328284,-0.0664776 0.0106692,-0.0787883 0,-0.782138 0.309408,0 0,0.795269 0.00164142,0.025442 0.0205178,0.0714019 0.0459598,0.0631947 0.0205178,0.0180556 0.0656569,0.0377527 0.073864,0.0123107 -0.775572,0 z "/>
<path fill="rgb(0,91,140)" stroke="rgb(0,91,140)" d="M 11.3094,4.69643 l -0.0344699,-0.000820711 -0.0730433,-0.00574498 -0.0730433,-0.0131314 -0.073864,-0.0188764 -0.0746847,-0.025442 -0.0755054,-0.031187 -0.0755054,-0.0385734 0.133776,-0.278221 0.0336492,0.0205178 0.0705811,0.0344699 0.0722226,0.025442 0.0746847,0.0147728 0.0763261,0.00492427 0.504737,0.0196971 -0.0270835,0.0607326 -0.0328284,0.0541669 -0.0402148,0.0476012 -0.0476012,0.0393941 -0.0541669,0.0328284 -0.0607326,0.025442 -0.0672983,0.0180556 -0.0746847,0.0106692 -0.0812504,0.00328284 z "/>
<path fill="rgb(0,91,140)" stroke="rgb(0,91,140)" d="M 11.7953,4.40426 l -0.504737,-0.0196971 0.00164142,0 0.0779675,-0.00902782 0.062374,-0.0262628 0.0476012,-0.042677 0.0320077,-0.0599119 0.0172349,-0.0771468 -0.585167,-0.0123107 -0.0599119,-0.0352906 -0.00492427,-0.00328284 -0.0541669,-0.0500634 -0.0418563,-0.0574498 0.467805,-0.062374 0.0476012,-0.00164142 0.073864,-0.0106692 0.0763261,-0.0196971 0.0804297,-0.0279042 0,-0.202716 -0.0689397,-0.0279042 -0.079609,-0.0246213 -0.0722226,-0.0155935 -0.0648362,-0.00492427 -0.487502,-0.00492427 0.0295456,-0.0672983 0.0393941,-0.0582705 0.0508841,-0.0508841 0.653286,-0.0238006 0,-0.0574498 0.303663,0 0,0.795269 0,0.0303663 -0.00574498,0.0828918 -0.0131314,0.0763261 -0.0188764,0.0689397 z "/>
<path fill="rgb(0,91,140)" stroke="rgb(0,91,140)" d="M 11.2355,4.21632 l -0.0689397,-0.00246213 -0.0812504,-0.0106692 -0.0746847,-0.0188764 -0.0664776,-0.0270835 0.585167,0.0123107 -0.0615533,0.0180556 -0.0755054,0.0155935 -0.0779675,0.00984853 -0.0787883,0.00328284 z "/>
<path fill="rgb(0,91,140)" stroke="rgb(0,91,140)" d="M 10.7833,4.01114 l -0.0295456,-0.0664776 -0.0180556,-0.0746847 -0.00656569,-0.0837125 0.000820711,-0.0196971 0.0073864,-0.0837125 0.0188764,-0.0746847 0.487502,0.00492427 -0.0270835,0.000820711 -0.0779675,0.0155935 -0.0607326,0.0361113 -0.0418563,0.0508841 -0.0180556,0.0697604 0.0123107,0.0566291 0.0508841,0.0590912 0.0180556,0.0123107 0.068119,0.025442 0.0837125,0.00902782 -0.467805,0.062374 z "/>
<path fill="rgb(0,91,140)" stroke="rgb(0,91,140)" d="M 10.8761,3.43172 l 0.0328284,-0.0238006 0.0640155,-0.0352906 0.0697604,-0.025442 0.0771468,-0.0147728 0.0845332,-0.00574498 0.0287249,0.000820711 0.0787883,0.0073864 0.0763261,0.0155935 0.0722226,0.0246213 0.0689397,0.0328284 -0.653286,0.0238006 z "/>
<path fill="rgb(0,91,140)" stroke="rgb(0,91,140)" d="M 9.97984,4.69643 l -0.0344699,-0.000820711 -0.0722226,-0.00574498 -0.073864,-0.0131314 -0.073864,-0.0188764 -0.0746847,-0.025442 -0.0746847,-0.031187 -0.0763261,-0.0385734 0.133776,-0.278221 0.0336492,0.0205178 0.0705811,0.0344699 0.0730433,0.025442 0.073864,0.0147728 0.0763261,0.00492427 0.504737,0.0196971 -0.0262628,0.0607326 -0.0336492,0.0541669 -0.0402148,0.0476012 -0.0476012,0.0393941 -0.0533462,0.0328284 -0.0607326,0.025442 -0.068119,0.0180556 -0.0746847,0.0106692 -0.0812504,0.00328284 z "/>
<path fill="rgb(0,91,140)" stroke="rgb(0,91,140)" d="M 10.4657,4.40426 l -0.504737,-0.0196971 0.00246213,0 0.0771468,-0.00902782 0.0631947,-0.0262628 0.0467805,-0.042677 0.0320077,-0.0599119 0.0172349,-0.0771468 -0.585167,-0.0123107 -0.0599119,-0.0352906 -0.00492427,-0.00328284 -0.0541669,-0.0500634 -0.0418563,-0.0574498 0.468626,-0.062374 0.0467805,-0.00164142 0.073864,-0.0106692 0.0771468,-0.0196971 0.079609,-0.0279042 0,-0.202716 -0.0689397,-0.0279042 -0.0787883,-0.0246213 -0.0722226,-0.0155935 -0.0656569,-0.00492427 -0.487502,-0.00492427 0.0295456,-0.0672983 0.0402148,-0.0582705 0.0508841,-0.0508841 0.652465,-0.0238006 0,-0.0574498 0.304484,0 0,0.795269 -0.000820711,0.0303663 -0.00574498,0.0828918 -0.0123107,0.0763261 -0.0196971,0.0689397 z "/>
<path fill="rgb(0,91,140)" stroke="rgb(0,91,140)" d="M 9.90598,4.21632 l -0.068119,-0.00246213 -0.0820711,-0.0106692 -0.073864,-0.0188764 -0.0672983,-0.0270835 0.585167,0.0123107 -0.0607326,0.0180556 -0.0763261,0.0155935 -0.0771468,0.00984853 -0.079609,0.00328284 z "/>
<path fill="rgb(0,91,140)" stroke="rgb(0,91,140)" d="M 9.45377,4.01114 l -0.0295456,-0.0664776 -0.0180556,-0.0746847 -0.00574498,-0.0837125 0,-0.0196971 0.00820711,-0.0837125 0.0180556,-0.0746847 0.487502,0.00492427 -0.0270835,0.000820711 -0.0771468,0.0155935 -0.0607326,0.0361113 -0.042677,0.0508841 -0.0180556,0.0697604 0.0123107,0.0566291 0.0508841,0.0590912 0.0188764,0.0123107 0.0672983,0.025442 0.0845332,0.00902782 -0.468626,0.062374 z "/>
<path fill="rgb(0,91,140)" stroke="rgb(0,91,140)" d="M 9.54733,3.43172 l 0.0320077,-0.0238006 0.0640155,-0.0352906 0.0705811,-0.025442 0.0771468,-0.0147728 0.0837125,-0.00574498 0.0295456,0.000820711 0.0787883,0.0073864 0.0755054,0.0155935 0.0722226,0.0246213 0.0689397,0.0328284 -0.652465,0.0238006 z "/>
<path fill="rgb(0,91,140)" stroke="rgb(0,91,140)" d="M 8.68722,4.68905 l -0.0459598,-0.00246213 -0.0771468,-0.0131314 -0.0697604,-0.0262628 -0.062374,-0.0385734 -0.0541669,-0.0508841 0.708274,-0.042677 -0.0533462,0.0558083 -0.0500634,0.0377527 -0.0640155,0.0352906 -0.0705811,0.0246213 -0.0771468,0.0155935 -0.0837125,0.00492427 z "/>
<path fill="rgb(0,91,140)" stroke="rgb(0,91,140)" d="M 8.37781,4.66525 l -0.322539,0 0,-1.31478 0.322539,0 0,0.789524 0.00246213,0.0344699 0.0213385,0.0714019 0.0443184,0.0648362 0.0246213,0.0246213 0.0648362,0.036932 0.0755054,0.0123107 0.514586,0.068119 -0.0393941,0.062374 -0.708274,0.042677 0,0.107513 z "/>
<path fill="rgb(0,91,140)" stroke="rgb(0,91,140)" d="M 9.12548,4.45268 l -0.514586,-0.068119 0.0402148,-0.00246213 0.0730433,-0.0213385 0.0599119,-0.0418563 0.0262628,-0.0320077 0.031187,-0.0672983 0.0106692,-0.079609 0,-0.789524 0.314332,0 0,0.915913 -0.00164142,0.0410356 -0.0131314,0.0755054 -0.0262628,0.0697604 z "/>
<path fill="rgb(0,91,140)" stroke="rgb(0,91,140)" d="M 7.58583,5.17901 l -0.327464,-0.117362 0,-0.404611 -0.215026,0 0,-0.301201 0.215026,0 0,-0.632768 0,-0.00656569 0.00574498,-0.0861747 0.466164,0.01149 -0.0590912,0.0106692 -0.0476012,0.0352906 -0.0279042,0.0615533 -0.00984853,0.0869954 0,0.51951 0.270014,0 0,0.301201 -0.270014,0 0,0.521972 z "/>
<path fill="rgb(0,91,140)" stroke="rgb(0,91,140)" d="M 7.87718,3.70994 l -0.01149,-0.00902782 -0.0689397,-0.0443184 -0.0664776,-0.0147728 -0.466164,-0.01149 0.0164142,-0.0771468 0.0270835,-0.068119 0.036932,-0.0582705 0.0303663,-0.0336492 0.0590912,-0.0410356 0.0705811,-0.0246213 0.0812504,-0.00820711 0.0155935,0 0.0722226,0.00984853 0.073864,0.0221592 0.0771468,0.0361113 0.0525255,0.322539 z "/>
<path fill="rgb(0,91,140)" stroke="rgb(0,91,140)" d="M 6.73639,4.6833 l -0.0549876,-0.00410356 -0.0705811,-0.0196971 -0.0664776,-0.036932 -0.062374,-0.0517048 0.233082,-0.196971 0.0451391,-0.00410356 0.0697604,-0.025442 0.0558083,-0.0492427 0.102589,0.31187 -0.0287249,0.0196971 -0.0672983,0.031187 -0.0746847,0.0188764 -0.0812504,0.00656569 z "/>
<path fill="rgb(0,91,140)" stroke="rgb(0,91,140)" d="M 6.48197,4.66525 l -0.322539,0 0,-1.31478 0.322539,0 0,0.771468 0.00492427,0.0607326 0.0229799,0.0714019 0.042677,0.0517048 0.0221592,0.0196971 0.0656569,0.0361113 0.0746847,0.0123107 -0.233082,0.196971 0,0.0943818 z "/>
<path fill="rgb(0,91,140)" stroke="rgb(0,91,140)" d="M 5.83443,4.65704 l -0.304484,0 0,-0.787062 -0.00164142,-0.0303663 -0.0229799,-0.0697604 -0.0484219,-0.062374 -0.0287249,-0.0246213 -0.0672983,-0.0344699 -0.0746847,-0.01149 -0.514586,-0.068119 0.0402148,-0.062374 0.718122,-0.0533462 0,-0.102589 0.304484,0 0,1.30657 z "/>
<path fill="rgb(0,91,140)" stroke="rgb(0,91,140)" d="M 5.05311,4.65704 l -0.322539,0 0,-0.902782 0.00164142,-0.0402148 0.0131314,-0.0763261 0.0262628,-0.0689397 0.514586,0.068119 -0.0385734,0.00164142 -0.0730433,0.0213385 -0.0582705,0.042677 -0.0213385,0.0262628 -0.031187,0.0672983 -0.0106692,0.079609 0,0.781317 z "/>
<path fill="rgb(0,91,140)" stroke="rgb(0,91,140)" d="M 4.81182,3.5064 l 0.0525255,-0.0558083 0.0517048,-0.0393941 0.0640155,-0.0344699 0.0705811,-0.0246213 0.0779675,-0.0147728 0.0845332,-0.00492427 0.079609,0.00410356 0.0640155,0.0139521 0.0270835,0.0123107 0.062374,0.0361113 0.0837125,0.0541669 -0.718122,0.0533462 z "/>
<path fill="rgb(0,91,140)" stroke="rgb(0,91,140)" d="M 4.42363,4.65704 l -0.303663,0 0,-0.787062 -0.00246213,-0.0303663 -0.0229799,-0.0697604 -0.0484219,-0.062374 -0.0287249,-0.0246213 -0.0672983,-0.0344699 -0.0746847,-0.01149 -0.514586,-0.068119 0.0402148,-0.062374 0.718943,-0.0533462 0,-0.102589 0.303663,0 0,1.30657 z "/>
<path fill="rgb(0,91,140)" stroke="rgb(0,91,140)" d="M 3.64231,4.65704 l -0.322539,0 0,-0.902782 0.00164142,-0.0402148 0.0131314,-0.0763261 0.0262628,-0.0689397 0.514586,0.068119 -0.0385734,0.00164142 -0.0730433,0.0213385 -0.0582705,0.042677 -0.0213385,0.0262628 -0.031187,0.0672983 -0.0106692,0.079609 0,0.781317 z "/>
<path fill="rgb(0,91,140)" stroke="rgb(0,91,140)" d="M 3.40102,3.5064 l 0.0525255,-0.0558083 0.0517048,-0.0393941 0.0640155,-0.0344699 0.0714019,-0.0246213 0.0771468,-0.0147728 0.0845332,-0.00492427 0.079609,0.00410356 0.0648362,0.0139521 0.0262628,0.0123107 0.0631947,0.0361113 0.0837125,0.0541669 -0.718943,0.0533462 z "/>
<path fill="rgb(0,91,140)" stroke="rgb(0,91,140)" d="M 2.43915,5.15029 l -0.839587,0 0,-1.79982 0.901961,0 0.0558083,0.00328284 0.073864,0.0131314 0.0746847,0.0246213 0.073864,0.0352906 0.0385734,0.0229799 0.0607326,0.0476012 0.0525255,0.0558083 0.0451391,0.0648362 0.0205178,0.0385734 -1.06939,0.0164142 0,0.47273 0.511303,0 0.49653,0.0500634 -0.0541669,0.0566291 -0.0648362,0.0533462 0.0352906,0.0320077 0.0517048,0.0582705 0.0393941,0.0631947 -1.01522,0.00902782 0,0.359471 0.511303,0 0.514586,0.0476012 -0.0352906,0.062374 -0.0459598,0.0558083 -0.0566291,0.0500634 -0.0672983,0.0443184 -0.00574498,0.00246213 -0.0615533,0.0262628 -0.0705811,0.0188764 -0.0812504,0.01149 -0.0902782,0.00328284 z "/>
<path fill="rgb(0,91,140)" stroke="rgb(0,91,140)" d="M 2.95374,4.87535 l -0.514586,-0.0476012 0.0295456,-0.000820711 0.0787883,-0.0147728 0.0615533,-0.0320077 0.0467805,-0.0541669 0.0164142,-0.073864 0,-0.00246213 -0.0172349,-0.0730433 -0.0484219,-0.0582705 -0.0172349,-0.0131314 -0.0664776,-0.0279042 -0.0837125,-0.00902782 -0.511303,0 1.01522,-0.00902782 0.0287249,0.0672983 0.0172349,0.0722226 0.00574498,0.0771468 -0.00328284,0.0582705 -0.0131314,0.073864 -0.0246213,0.0672983 z "/>
<path fill="rgb(0,91,140)" stroke="rgb(0,91,140)" d="M 2.93568,4.1958 l -0.49653,-0.0500634 0.0714019,-0.0073864 0.0714019,-0.0229799 0.0640155,-0.0402148 0.0361113,-0.0361113 0.0361113,-0.0648362 0.01149,-0.0755054 -0.00328284,-0.0377527 -0.025442,-0.068119 -0.0525255,-0.0566291 -0.0541669,-0.0328284 -0.0722226,-0.0221592 -0.0828918,-0.00820711 -0.511303,0 1.06939,-0.0164142 0.0295456,0.0722226 0.0172349,0.0746847 0.00574498,0.0771468 -0.00246213,0.0500634 -0.0123107,0.0722226 -0.0221592,0.068119 -0.0336492,0.0640155 -0.0434977,0.0607326 z "/>
</g></g></svg>
