<?xml version="1.0" encoding="UTF-8" standalone="no"?>
<!DOCTYPE svg PUBLIC "-//W3C//DTD SVG 1.1//EN" "http://www.w3.org/Graphics/SVG/1.1/DTD/svg11-flat.dtd"
[

]>
<svg xmlns="http://www.w3.org/2000/svg"  viewBox="-0.09375 -0.09375 7.6875 7.6875"><g fill="none" stroke="black" stroke-width="0.0125" transform="translate(0,7.5) scale(1, -1)">
<g id="Output" >
<path fill="rgb(241,240,234)" stroke="rgb(241,240,234)" d="M 5.2,2.2 l 1,0 0,1 -1,0 0,-1 z "/>
<path fill="rgb(241,240,234)" stroke="rgb(241,240,234)" d="M 6.2,2.2 l 0,-1 0.1,8.88178e-16 0,1 -0.1,0 z "/>
<path fill="rgb(241,240,234)" stroke="rgb(241,240,234)" d="M 5.2,3.2 l 1,0 0,1 -1,0 0,-1 z "/>
<path fill="rgb(241,240,234)" stroke="rgb(241,240,234)" d="M 5.2,4.2 l 1,0 0,1 -1,0 0,-1 z "/>
<path fill="rgb(241,240,234)" stroke="rgb(241,240,234)" d="M 3.2,5.2 l 0.352224,0 0,0.293087 -0.254822,0 -0.0974026,-0.0569051 0,-0.236181 z M 4.2,5.49351 l -0.00961052,-0.000419604 -0.283988,0 0,-0.293087 0.293599,0 0,0.293506 z M 3.2,5.8273 l 0.0417131,0.0293399 0.310511,0 0,0.140575 0.354177,0 0,-0.140575 0.283988,0 0.00961052,-0.000419604 0,0.343776 -1,0 0,-0.372697 z "/>
<path fill="rgb(241,240,234)" stroke="rgb(241,240,234)" d="M 4.53116,3.2 l 0.668842,0 0,1 -0.668842,0 0,-1 z "/>
<path fill="rgb(241,240,234)" stroke="rgb(241,240,234)" d="M 4.2,5.85622 l 0.00623251,-0.000272117 0.0157225,-0.0020699 0.0154822,-0.00343233 0.0151242,-0.00476863 0.014651,-0.00606864 0.0140663,-0.00732247 0.0133746,-0.00852056 0.0125811,-0.00965381 0.0116918,-0.0107136 0.0107136,-0.0116918 0.00965381,-0.0125811 0.00852056,-0.0133746 0.00732247,-0.0140663 0.00606864,-0.014651 0.00476863,-0.0151242 0.00343233,-0.0154822 0.0020699,-0.0157225 0.000691722,-0.015843 -0.000691722,-0.015843 -0.0020699,-0.0157225 -0.00343233,-0.0154822 -0.00476863,-0.0151242 -0.00606864,-0.014651 -0.00732247,-0.0140663 -0.00852056,-0.0133746 -0.00965381,-0.0125811 -0.0107136,-0.0116918 -0.0116918,-0.0107136 -0.0125811,-0.00965381 -0.0133746,-0.00852056 -0.0140663,-0.00732247 -0.014651,-0.00606864 -0.0151242,-0.00476863 -0.0154822,-0.00343233 -0.0157225,-0.0020699 -0.00623251,-0.000272117 0,-0.293506 1,0 0,1 -1,0 0,-0.343776 z "/>
<path fill="rgb(241,240,234)" stroke="rgb(241,240,234)" d="M 5.2,5.2 l 1,0 0,1 -1,0 0,-1 z "/>
<path fill="rgb(241,240,234)" stroke="rgb(241,240,234)" d="M 5.2,6.3 l 0,-0.1 1,0 0,0.1 -1,-8.88178e-16 z "/>
<path fill="rgb(241,240,234)" stroke="rgb(241,240,234)" d="M 6.3,2.2 l 0,1 -0.1,0 0,-1 0.1,0 z "/>
<path fill="rgb(241,240,234)" stroke="rgb(241,240,234)" d="M 6.3,3.2 l 0,1 -0.1,0 0,-1 0.1,0 z "/>
<path fill="rgb(241,240,234)" stroke="rgb(241,240,234)" d="M 4.2,1.2 l 0,0.299964 -1,0 0,-0.299964 0.55,0 0.45,0 z "/>
<path fill="rgb(241,240,234)" stroke="rgb(241,240,234)" d="M 3.2,5.2 l 0,-0.00831995 0.352224,0 0,0.00831995 -0.352224,0 z M 4.2,5.19168 l 0,0.00831995 -0.293599,0 0,-0.00831995 0.293599,0 z "/>
<path fill="rgb(241,240,234)" stroke="rgb(241,240,234)" d="M 1.2,2.2 l 1,0 0,1 -1,0 0,-1 z "/>
<path fill="rgb(241,240,234)" stroke="rgb(241,240,234)" d="M 3.2,6.3 l 0,-0.1 1,0 0,0.1 -0.45,0 -0.55,0 z "/>
<path fill="rgb(241,240,234)" stroke="rgb(241,240,234)" d="M 5.2,1.2 l 0,1 -0.668842,0 0,-0.700036 -0.331158,0 0,-0.299964 1,0 z "/>
<path fill="rgb(241,240,234)" stroke="rgb(241,240,234)" d="M 6.3,4.2 l 0,1 -0.1,0 0,-1 0.1,0 z "/>
<path fill="rgb(241,240,234)" stroke="rgb(241,240,234)" d="M 6.3,5.2 l 8.88178e-16,1 -0.1,0 0,-1 0.1,0 z "/>
<path fill="rgb(241,240,234)" stroke="rgb(241,240,234)" d="M 6.2,6.2 l 0.1,0 0,0.1 -0.1,0 0,-0.1 z "/>
<path fill="rgb(241,240,234)" stroke="rgb(241,240,234)" d="M 1.2,1.2 l 1,0 0,1 -1,0 8.88178e-16,-1 z "/>
<path fill="rgb(241,240,234)" stroke="rgb(241,240,234)" d="M 4.53116,2.2 l 0.668842,0 0,1 -0.668842,0 0,-1 z "/>
<path fill="rgb(241,240,234)" stroke="rgb(241,240,234)" d="M 4.2,5.19168 l 0.231158,0 0.00871557,-0.00038053 0.00864924,-0.00113869 0.00851709,-0.00188819 0.00832011,-0.00262332 0.00805981,-0.00333848 0.00773817,-0.00402824 0.00735764,-0.00468734 0.00692112,-0.00531076 0.00643192,-0.00589377 0.00589377,-0.00643192 0.00531076,-0.00692112 0.00468734,-0.00735764 0.00402824,-0.00773817 0.00333848,-0.00805981 0.00262332,-0.00832011 0.00188819,-0.00851709 0.00113869,-0.00864924 0.00038053,-0.00871557 0,-0.89168 0.668842,0 0,1 -1,0 0,-0.00831995 z "/>
<path fill="rgb(241,240,234)" stroke="rgb(241,240,234)" d="M 4.2,6.3 l 0,-0.1 1,0 0,0.1 -1,0 z "/>
<path fill="rgb(241,240,234)" stroke="rgb(241,240,234)" d="M 5.2,1.2 l 1,0 0,1 -1,0 0,-1 z "/>
<path fill="rgb(241,240,234)" stroke="rgb(241,240,234)" d="M 2.2,6.3 l 0,-0.1 1,0 0,0.1 -1,0 z "/>
<path fill="rgb(241,240,234)" stroke="rgb(241,240,234)" d="M 2.82041,5.2 l 0.379591,0 0,0.236181 -0.375536,-0.219398 -0.00405478,-0.0167834 z M 2.63525,5.2 l 0,0.23007 0.564754,0.397233 0,0.372697 -1,0 0,-1 0.435246,0 z "/>
<path fill="rgb(241,240,234)" stroke="rgb(241,240,234)" d="M 2.96884,4.2 l 0,0.89168 0.00038053,0.00871557 0.00113869,0.00864924 0.00188819,0.00851709 0.00262332,0.00832011 0.00333848,0.00805981 0.00402824,0.00773817 0.00468734,0.00735764 0.00531076,0.00692112 0.00589377,0.00643192 0.00643192,0.00589377 0.00692112,0.00531076 0.00735764,0.00468734 0.00773817,0.00402824 0.00805981,0.00333848 0.00832011,0.00262332 0.00851709,0.00188819 0.00864924,0.00113869 0.00871557,0.00038053 0.131158,0 0,0.00831995 -0.379591,0 -0.0638695,-0.264367 -0.121293,0 0,0.264367 -0.435246,0 0,-1 0.768842,0 z "/>
<path fill="rgb(241,240,234)" stroke="rgb(241,240,234)" d="M 2.96884,3.2 l 0,1 -0.768842,0 0,-1 0.768842,0 z "/>
<path fill="rgb(241,240,234)" stroke="rgb(241,240,234)" d="M 2.96884,2.2 l 0,1 -0.768842,0 0,-1 0.768842,0 z "/>
<path fill="rgb(241,240,234)" stroke="rgb(241,240,234)" d="M 2.96884,2.2 l -0.768842,0 0,-1 1,0 0,0.299964 -0.231158,0 0,0.700036 z "/>
<path fill="rgb(241,240,234)" stroke="rgb(241,240,234)" d="M 1.2,6.2 l 1,0 0,0.1 -1,0 0,-0.1 z "/>
<path fill="rgb(241,240,234)" stroke="rgb(241,240,234)" d="M 1.2,5.2 l 1,0 0,1 -1,0 0,-1 z "/>
<path fill="rgb(241,240,234)" stroke="rgb(241,240,234)" d="M 1.2,4.2 l 1,0 0,1 -1,0 0,-1 z "/>
<path fill="rgb(241,240,234)" stroke="rgb(241,240,234)" d="M 1.2,3.2 l 1,0 0,1 -1,0 0,-1 z "/>
<path fill="rgb(0,91,140)" stroke="rgb(0,91,140)" d="M 7.1,6.8 l -0.00114159,0.0261467 -0.00341608,0.0259477 -0.00566458,0.0255513 -0.00786996,0.0249603 -0.0100155,0.0241794 -0.0120847,0.0232145 -0.014062,0.0220729 -0.0159323,0.0207634 -0.0176813,0.0192958 -0.0192958,0.0176813 -0.0207634,0.0159323 -0.0220729,0.014062 -0.0232145,0.0120847 -0.0241794,0.0100155 -0.0249603,0.00786996 -0.0255513,0.00566458 -0.0259477,0.00341608 -0.0261467,0.00114159 -3.05,0 -4.44089e-16,-0.8 2.55,8.88178e-16 -8.88178e-16,-5.1 -2.55,-8.88178e-16 0,-0.8 3.05,-8.88178e-16 0.0261467,0.00114159 0.0259477,0.00341608 0.0255513,0.00566458 0.0249603,0.00786996 0.0241794,0.0100155 0.0232145,0.0120847 0.0220729,0.014062 0.0207634,0.0159323 0.0192958,0.0176813 0.0176813,0.0192958 0.0159323,0.0207634 0.014062,0.0220729 0.0120847,0.0232145 0.0100155,0.0241794 0.00786996,0.0249603 0.00566458,0.0255513 0.00341608,0.0259477 0.00114159,0.0261467 0,3.05 -8.88178e-16,3.05 z "/>
<path fill="rgb(0,91,140)" stroke="rgb(0,91,140)" d="M 0.4,3.75 l 4.44089e-16,-3.05 0.00114159,-0.0261467 0.00341608,-0.0259477 0.00566458,-0.0255513 0.00786996,-0.0249603 0.0100155,-0.0241794 0.0120847,-0.0232145 0.014062,-0.0220729 0.0159323,-0.0207634 0.0176813,-0.0192958 0.0192958,-0.0176813 0.0207634,-0.0159323 0.0220729,-0.014062 0.0232145,-0.0120847 0.0241794,-0.0100155 0.0249603,-0.00786996 0.0255513,-0.00566458 0.0259477,-0.00341608 0.0261467,-0.00114159 3.05,8.88178e-16 0,0.8 -2.55,0 -8.88178e-16,5.1 2.55,0 4.44089e-16,0.8 -3.05,-8.88178e-16 -0.0261467,-0.00114159 -0.0259477,-0.00341608 -0.0255513,-0.00566458 -0.0249603,-0.00786996 -0.0241794,-0.0100155 -0.0232145,-0.0120847 -0.0220729,-0.014062 -0.0207634,-0.0159323 -0.0192958,-0.0176813 -0.0176813,-0.0192958 -0.0159323,-0.0207634 -0.014062,-0.0220729 -0.0120847,-0.0232145 -0.0100155,-0.0241794 -0.00786996,-0.0249603 -0.00566458,-0.0255513 -0.00341608,-0.0259477 -0.00114159,-0.0261467 4.44089e-16,-3.05 z "/>
<path fill="rgb(241,240,234)" stroke="rgb(241,240,234)" d="M 0.4,3.75 l -0.2,-4.44089e-16 4.44089e-16,-3.05 0.00190265,-0.0435779 0.00569347,-0.0432462 0.00944096,-0.0425854 0.0131166,-0.0416005 0.0166924,-0.0402991 0.0201412,-0.0386909 0.0234367,-0.0367882 0.0265538,-0.0346056 0.0294688,-0.0321596 0.0321596,-0.0294688 0.0346056,-0.0265538 0.0367882,-0.0234367 0.0386909,-0.0201412 0.0402991,-0.0166924 0.0416005,-0.0131166 0.0425854,-0.00944096 0.0432462,-0.00569347 0.0435779,-0.00190265 6.1,0 0.0435779,0.00190265 0.0432462,0.00569347 0.0425854,0.00944096 0.0416005,0.0131166 0.0402991,0.0166924 0.0386909,0.0201412 0.0367882,0.0234367 0.0346056,0.0265538 0.0321596,0.0294688 0.0294688,0.0321596 0.0265538,0.0346056 0.0234367,0.0367882 0.0201412,0.0386909 0.0166924,0.0402991 0.0131166,0.0416005 0.00944096,0.0425854 0.00569347,0.0432462 0.00190265,0.0435779 0,3.05 -0.2,4.44089e-16 0,-3.05 -0.00114159,-0.0261467 -0.00341608,-0.0259477 -0.00566458,-0.0255513 -0.00786996,-0.0249603 -0.0100155,-0.0241794 -0.0120847,-0.0232145 -0.014062,-0.0220729 -0.0159323,-0.0207634 -0.0176813,-0.0192958 -0.0192958,-0.0176813 -0.0207634,-0.0159323 -0.0220729,-0.014062 -0.0232145,-0.0120847 -0.0241794,-0.0100155 -0.0249603,-0.00786996 -0.0255513,-0.00566458 -0.0259477,-0.00341608 -0.0261467,-0.00114159 -3.05,8.88178e-16 -3.05,-8.88178e-16 -0.0261467,0.00114159 -0.0259477,0.00341608 -0.0255513,0.00566458 -0.0249603,0.00786996 -0.0241794,0.0100155 -0.0232145,0.0120847 -0.0220729,0.014062 -0.0207634,0.0159323 -0.0192958,0.0176813 -0.0176813,0.0192958 -0.0159323,0.0207634 -0.014062,0.0220729 -0.0120847,0.0232145 -0.0100155,0.0241794 -0.00786996,0.0249603 -0.00566458,0.0255513 -0.00341608,0.0259477 -0.00114159,0.0261467 -4.44089e-16,3.05 z "/>
<path fill="rgb(241,240,234)" stroke="rgb(241,240,234)" d="M 7.1,6.8 l 8.88178e-16,-3.05 0.2,-4.44089e-16 -8.88178e-16,3.05 -0.00190265,0.0435779 -0.00569347,0.0432462 -0.00944096,0.0425854 -0.0131166,0.0416005 -0.0166924,0.0402991 -0.0201412,0.0386909 -0.0234367,0.0367882 -0.0265538,0.0346056 -0.0294688,0.0321596 -0.0321596,0.0294688 -0.0346056,0.0265538 -0.0367882,0.0234367 -0.0386909,0.0201412 -0.0402991,0.0166924 -0.0416005,0.0131166 -0.0425854,0.00944096 -0.0432462,0.00569347 -0.0435779,0.00190265 -6.1,-8.88178e-16 -0.0435779,-0.00190265 -0.0432462,-0.00569347 -0.0425854,-0.00944096 -0.0416005,-0.0131166 -0.0402991,-0.0166924 -0.0386909,-0.0201412 -0.0367882,-0.0234367 -0.0346056,-0.0265538 -0.0321596,-0.0294688 -0.0294688,-0.0321596 -0.0265538,-0.0346056 -0.0234367,-0.0367882 -0.0201412,-0.0386909 -0.0166924,-0.0402991 -0.0131166,-0.0416005 -0.00944096,-0.0425854 -0.00569347,-0.0432462 -0.00190265,-0.0435779 4.44089e-16,-3.05 0.2,4.44089e-16 -4.44089e-16,3.05 0.00114159,0.0261467 0.00341608,0.0259477 0.00566458,0.0255513 0.00786996,0.0249603 0.0100155,0.0241794 0.0120847,0.0232145 0.014062,0.0220729 0.0159323,0.0207634 0.0176813,0.0192958 0.0192958,0.0176813 0.0207634,0.0159323 0.0220729,0.014062 0.0232145,0.0120847 0.0241794,0.0100155 0.0249603,0.00786996 0.0255513,0.00566458 0.0259477,0.00341608 0.0261467,0.00114159 3.05,8.88178e-16 3.05,0 0.0261467,-0.00114159 0.0259477,-0.00341608 0.0255513,-0.00566458 0.0249603,-0.00786996 0.0241794,-0.0100155 0.0232145,-0.0120847 0.0220729,-0.014062 0.0207634,-0.0159323 0.0192958,-0.0176813 0.0176813,-0.0192958 0.0159323,-0.0207634 0.014062,-0.0220729 0.0120847,-0.0232145 0.0100155,-0.0241794 0.00786996,-0.0249603 0.00566458,-0.0255513 0.00341608,-0.0259477 0.00114159,-0.0261467 z "/>
<path fill="rgb(0,91,140)" stroke="rgb(0,91,140)" d="M 0.2,3.75 l -0.2,0 4.44089e-16,-3.05 0.00266371,-0.061009 0.00797086,-0.0605447 0.0132173,-0.0596196 0.0183632,-0.0582408 0.0233694,-0.0564187 0.0281977,-0.0541672 0.0328114,-0.0515035 0.0371753,-0.0484478 0.0412564,-0.0450234 0.0450234,-0.0412564 0.0484478,-0.0371753 0.0515035,-0.0328114 0.0541672,-0.0281977 0.0564187,-0.0233694 0.0582408,-0.0183632 0.0596196,-0.0132173 0.0605447,-0.00797086 0.061009,-0.00266371 6.1,-8.88178e-16 0.061009,0.00266371 0.0605447,0.00797086 0.0596196,0.0132173 0.0582408,0.0183632 0.0564187,0.0233694 0.0541672,0.0281977 0.0515035,0.0328114 0.0484478,0.0371753 0.0450234,0.0412564 0.0412564,0.0450234 0.0371753,0.0484478 0.0328114,0.0515035 0.0281977,0.0541672 0.0233694,0.0564187 0.0183632,0.0582408 0.0132173,0.0596196 0.00797086,0.0605447 0.00266371,0.061009 -1.77636e-15,3.05 -0.2,-8.88178e-16 0,-3.05 -0.00190265,-0.0435779 -0.00569347,-0.0432462 -0.00944096,-0.0425854 -0.0131166,-0.0416005 -0.0166924,-0.0402991 -0.0201412,-0.0386909 -0.0234367,-0.0367882 -0.0265538,-0.0346056 -0.0294688,-0.0321596 -0.0321596,-0.0294688 -0.0346056,-0.0265538 -0.0367882,-0.0234367 -0.0386909,-0.0201412 -0.0402991,-0.0166924 -0.0416005,-0.0131166 -0.0425854,-0.00944096 -0.0432462,-0.00569347 -0.0435779,-0.00190265 -6.1,0 -0.0435779,0.00190265 -0.0432462,0.00569347 -0.0425854,0.00944096 -0.0416005,0.0131166 -0.0402991,0.0166924 -0.0386909,0.0201412 -0.0367882,0.0234367 -0.0346056,0.0265538 -0.0321596,0.0294688 -0.0294688,0.0321596 -0.0265538,0.0346056 -0.0234367,0.0367882 -0.0201412,0.0386909 -0.0166924,0.0402991 -0.0131166,0.0416005 -0.00944096,0.0425854 -0.00569347,0.0432462 -0.00190265,0.0435779 -4.44089e-16,3.05 z "/>
<path fill="rgb(0,91,140)" stroke="rgb(0,91,140)" d="M 6.8,7.3 l 0.0435779,-0.00190265 0.0432462,-0.00569347 0.0425854,-0.00944096 0.0416005,-0.0131166 0.0402991,-0.0166924 0.0386909,-0.0201412 0.0367882,-0.0234367 0.0346056,-0.0265538 0.0321596,-0.0294688 0.0294688,-0.0321596 0.0265538,-0.0346056 0.0234367,-0.0367882 0.0201412,-0.0386909 0.0166924,-0.0402991 0.0131166,-0.0416005 0.00944096,-0.0425854 0.00569347,-0.0432462 0.00190265,-0.0435779 8.88178e-16,-3.05 0.2,8.88178e-16 1.77636e-15,3.05 -0.00266371,0.061009 -0.00797086,0.0605447 -0.0132173,0.0596196 -0.0183632,0.0582408 -0.0233694,0.0564187 -0.0281977,0.0541672 -0.0328114,0.0515035 -0.0371753,0.0484478 -0.0412564,0.0450234 -0.0450234,0.0412564 -0.0484478,0.0371753 -0.0515035,0.0328114 -0.0541672,0.0281977 -0.0564187,0.0233694 -0.0582408,0.0183632 -0.0596196,0.0132173 -0.0605447,0.00797086 -0.061009,0.00266371 -6.1,-8.88178e-16 -0.061009,-0.00266371 -0.0605447,-0.00797086 -0.0596196,-0.0132173 -0.0582408,-0.0183632 -0.0564187,-0.0233694 -0.0541672,-0.0281977 -0.0515035,-0.0328114 -0.0484478,-0.0371753 -0.0450234,-0.0412564 -0.0412564,-0.0450234 -0.0371753,-0.0484478 -0.0328114,-0.0515035 -0.0281977,-0.0541672 -0.0233694,-0.0564187 -0.0183632,-0.0582408 -0.0132173,-0.0596196 -0.00797086,-0.0605447 -0.00266371,-0.061009 4.44089e-16,-3.05 0.2,0 -4.44089e-16,3.05 0.00190265,0.0435779 0.00569347,0.0432462 0.00944096,0.0425854 0.0131166,0.0416005 0.0166924,0.0402991 0.0201412,0.0386909 0.0234367,0.0367882 0.0265538,0.0346056 0.0294688,0.0321596 0.0321596,0.0294688 0.0346056,0.0265538 0.0367882,0.0234367 0.0386909,0.0201412 0.0402991,0.0166924 0.0416005,0.0131166 0.0425854,0.00944096 0.0432462,0.00569347 0.0435779,0.00190265 6.1,8.88178e-16 z "/>
<path fill="rgb(187,30,16)" stroke="rgb(187,30,16)" d="M 4.19039,5.85664 l -0.283988,0 0,0.140575 -0.354177,0 0,-0.140575 -0.310511,0 -0.606467,-0.426573 0,-0.494437 0.121293,0 0.0679243,0.281151 0.472939,0.276303 0.254822,0 0,-0.301406 -0.483382,0 -0.00871557,-0.00038053 -0.00864924,-0.00113869 -0.00851709,-0.00188819 -0.00832011,-0.00262332 -0.00805981,-0.00333848 -0.00773817,-0.00402824 -0.00735764,-0.00468734 -0.00692112,-0.00531076 -0.00643192,-0.00589377 -0.00589377,-0.00643192 -0.00531076,-0.00692112 -0.00468734,-0.00735764 -0.00402824,-0.00773817 -0.00333848,-0.00805981 -0.00262332,-0.00832011 -0.00188819,-0.00851709 -0.00113869,-0.00864924 -0.00038053,-0.00871557 0,-3.59172 1.56232,0 0,3.59172 -0.00038053,0.00871557 -0.00113869,0.00864924 -0.00188819,0.00851709 -0.00262332,0.00832011 -0.00333848,0.00805981 -0.00402824,0.00773817 -0.00468734,0.00735764 -0.00531076,0.00692112 -0.00589377,0.00643192 -0.00643192,0.00589377 -0.00692112,0.00531076 -0.00735764,0.00468734 -0.00773817,0.00402824 -0.00805981,0.00333848 -0.00832011,0.00262332 -0.00851709,0.00188819 -0.00864924,0.00113869 -0.00871557,0.00038053 -0.524757,0 0,0.301406 0.283988,0 0.015843,0.000691722 0.0157225,0.0020699 0.0154822,0.00343233 0.0151242,0.00476863 0.014651,0.00606864 0.0140663,0.00732247 0.0133746,0.00852056 0.0125811,0.00965381 0.0116918,0.0107136 0.0107136,0.0116918 0.00965381,0.0125811 0.00852056,0.0133746 0.00732247,0.0140663 0.00606864,0.014651 0.00476863,0.0151242 0.00343233,0.0154822 0.0020699,0.0157225 0.000691722,0.015843 -0.000691722,0.015843 -0.0020699,0.0157225 -0.00343233,0.0154822 -0.00476863,0.0151242 -0.00606864,0.014651 -0.00732247,0.0140663 -0.00852056,0.0133746 -0.00965381,0.0125811 -0.0107136,0.0116918 -0.0116918,0.0107136 -0.0125811,0.00965381 -0.0133746,0.00852056 -0.0140663,0.00732247 -0.014651,0.00606864 -0.0151242,0.00476863 -0.0154822,0.00343233 -0.0157225,0.0020699 -0.015843,0.000691722 z "/>
</g></g></svg>
