<?xml version="1.0" encoding="UTF-8" standalone="no"?>
<!DOCTYPE svg PUBLIC "-//W3C//DTD SVG 1.1//EN" "http://www.w3.org/Graphics/SVG/1.1/DTD/svg11-flat.dtd"
[

]>
<svg xmlns="http://www.w3.org/2000/svg"  viewBox="-0.09375 -0.09375 7.6875 7.6875"><g fill="none" stroke="black" stroke-width="0.0125" transform="translate(0,7.5) scale(1, -1)">
<g id="Output" >
<path fill="rgb(0,91,140)" stroke="rgb(0,91,140)" d="M 7.05703,3.21515 l -0.586519,-0.186622 -0.955312,-0.154949 -0.111048,-4.44089e-16 -0.00167771,-0.0333766 -0.00456783,-0.0331051 -0.00742348,-0.0325838 -0.0102231,-0.0318167 -0.0129456,-0.0308095 -0.0155705,-0.0295699 -0.0180778,-0.0281071 -0.0204487,-0.0264322 -0.0226654,-0.024558 -0.0247111,-0.0224984 -0.0265703,-0.0202691 -0.028229,-0.0178869 -0.0296747,-0.0153696 -0.0308966,-0.0127365 -0.0318853,-0.0100072 -0.0326334,-0.00720243 -0.0331353,-0.00434331 -0.0333873,-0.00145142 -0.0333873,0.00145142 -0.0331353,0.00434331 -0.0326334,0.00720243 -0.0318853,0.0100072 -0.0308966,0.0127365 -0.0296747,0.0153696 -0.028229,0.0178869 -0.0265703,0.0202691 -0.0247111,0.0224984 -0.0226654,0.024558 -0.0204487,0.0264322 -0.0180778,0.0281071 -0.0155705,0.0295699 -0.0129456,0.0308095 -0.0102231,0.0318167 -0.00742348,0.0325838 -0.00456783,0.0331051 -0.00167771,0.0333766 -0.111023,0 -0.803077,0 -1.88143,-1.87518 0.245477,-0.155146 0.257991,-0.133304 0.268566,-0.11046 0.277124,-0.0867861 0.283598,-0.0624601 0.287942,-0.0376648 0.290122,-0.0125865 0.294932,0.013008 0.292641,0.0389231 0.288078,0.0645359 0.281278,0.0896474 0.272293,0.114063 0.261194,0.137592 0.248066,0.160053 0.233012,0.181271 0.216148,0.201082 0.197606,0.219331 0.177529,0.235876 0.156073,0.250589 0.133405,0.263357 0.109701,0.274079 0.0851457,0.282673 0.0599287,0.289072 z "/>
<path fill="rgb(0,91,140)" stroke="rgb(0,91,140)" d="M 1.76603,2.87358 l -0.779759,0 -0.410298,-0.195044 0.112809,-0.289209 0.139096,-0.277525 0.164189,-0.263458 0.902485,0.899487 -0.00942648,0.030638 -0.00684327,0.0313163 -0.00421255,0.0317773 -0.00155258,0.0320177 -0.106488,0 z "/>
<path fill="rgb(0,91,140)" stroke="rgb(0,91,140)" d="M 7.05703,3.21515 l 0.0238502,0.177431 0.0143374,0.178452 0.00478369,0.178963 -0.0114859,0.277171 -0.034379,0.27527 -0.0570363,0.271482 -0.0793025,0.265832 -0.111831,0.282679 -0.136996,0.271378 -0.161033,0.257841 -0.813295,-0.810593 0.61058,0 0.00708831,-0.00188918 0.00689929,-0.00249259 0.006659,-0.00307748 0.00636924,-0.0036395 0.00603215,-0.00417448 0.00565025,-0.00467845 0.00522636,-0.00514766 0.00476364,-0.00557861 0.00426552,-0.00596812 0.00373572,-0.00631329 0.00317815,-0.00661154 0.00259698,-0.00686068 0.0019965,-0.00705883 0.0013812,-0.00720455 0.000755628,-0.00729673 0.000124445,-0.00733469 -0.000507663,-0.00731816 -0.001136,-0.00724725 -0.0017559,-0.0071225 -0.00236274,-0.00694483 -0.00295204,-0.00671555 -0.0035194,-0.00643638 -0.0854477,-0.141426 0.0794558,-0.516785 0.0340709,-0.221599 0,-0.624888 0.082721,-0.05167 0,-0.129052 0.586519,0.186622 z "/>
<path fill="rgb(0,91,140)" stroke="rgb(0,91,140)" d="M 0.4,3.75 l 0.0110896,-0.272355 0.0331954,-0.270552 0.0550815,-0.266958 0.0766028,-0.261596 0.410298,0.195044 0,0.154949 0.0774589,0 0,0.671265 -0.0774589,0.113665 0.0993569,0.242279 0.194999,0.475501 -0.0722889,0.232469 -0.000153151,0.00624419 0.000385209,0.00623418 0.000920706,0.00617784 0.00144936,0.00607558 0.00196724,0.00592818 0.00247051,0.00573672 0.00295541,0.00550263 0.00341835,0.00522764 0.00385589,0.0049138 0.00426477,0.00456345 0.00464196,0.00417918 0.00498465,0.00376386 0.0052903,0.00332056 0.00555663,0.00285259 0.00578166,0.00236342 0.00596373,0.00185668 0.00610148,0.00133614 0.00619389,0.000805679 0.00624026,0.000269226 2.71413,0 1.66607,1.66053 -0.243663,0.154106 -0.256011,0.132584 -0.266462,0.110081 -0.274941,0.0867626 -0.281382,0.0628015 -0.28574,0.0383752 -0.287982,0.0136646 -0.28809,-0.0111471 -0.286065,-0.0358763 -0.281921,-0.0603397 -0.275688,-0.0843563 -0.267414,-0.107748 -0.25716,-0.130342 -0.245,-0.15197 -0.231026,-0.172473 -0.215341,-0.191698 -0.198061,-0.209504 -0.185597,-0.234435 -0.163953,-0.250051 -0.141004,-0.263674 -0.116931,-0.275196 -0.0919268,-0.284527 -0.0661902,-0.29159 -0.0399262,-0.296331 -0.0133442,-0.29871 z "/>
<path fill="rgb(0,91,140)" stroke="rgb(0,91,140)" d="M 5.65456,4.62936 l -0.000599271,0.00267243 -0.000829499,0.00261016 -0.00105344,0.00252809 -0.00126939,0.00242686 -0.00147571,0.00230722 -0.00167084,0.00217009 -0.0018533,0.0020165 -0.00202171,0.00184761 -0.00217479,0.00166472 -0.00231137,0.0014692 -0.00243043,0.00126254 -0.00253105,0.00104631 -0.00261248,0.000822139 -0.0026741,0.000591737 -0.00271545,0.000356846 -0.0027362,0.00011925 -0.115364,0 -0.581812,-0.579879 0,-0.0196569 0,-0.252681 0,-7.99361e-14 0.000102207,-0.00225162 0.00029784,-0.00223418 0.00049121,-0.00219976 0.000680851,-0.00214865 0.000865321,-0.00208122 0.00104322,-0.00199798 0.0012132,-0.00189958 0.00137397,-0.00178675 0.0015243,-0.00166035 0.00166306,-0.00152134 0.00178919,-0.00137079 0.00190173,-0.00120982 0.00199983,-0.00103967 0.00208275,-0.00086162 0.00214986,-0.00067703 0.00220063,-0.000487299 0.0022347,-0.000293867 0.0022518,-9.82043e-05 0.680583,0 0.00223673,0.00050157 0.00218462,0.000694264 0.00211593,0.000881692 0.0020312,0.00106243 0.00193107,0.00123512 0.00181629,0.00139844 0.00168774,0.00155115 0.00154639,0.00169211 0.00139332,0.00182023 0.00122967,0.00193454 0.00105671,0.00203419 0.000875725,0.00211841 0.000688104,0.00218656 0.000495264,0.00223814 0.000298669,0.00227274 9.98086e-05,0.00229011 0,0.252589 0,0.573625 z "/>
<path fill="rgb(0,91,140)" stroke="rgb(0,91,140)" d="M 4.62728,3.77725 l 0.153498,5.67663e-06 0.00223658,0.000501704 0.00218445,0.000694373 0.00211576,0.000881778 0.00203103,0.0010625 0.0019309,0.00123516 0.00181613,0.00139845 0.00168758,0.00155115 0.00154624,0.00169208 0.00139318,0.00182018 0.00122955,0.00193448 0.0010566,0.00203411 0.000875635,0.00211831 0.000688032,0.00218646 0.000495212,0.00223803 0.000298637,0.00227262 9.9798e-05,0.00228999 0,0.148684 -0.175183,-0.174601 z "/>
<path fill="rgb(0,91,140)" stroke="rgb(0,91,140)" d="M 3.80836,4.65529 l -0.776272,-2.87079e-05 -0.0020574,-0.000281787 -0.00202496,-0.000460221 -0.00197709,-0.000635144 -0.00191413,-0.000805223 -0.00183658,-0.00096916 -0.00174501,-0.00112571 -0.00164014,-0.00127367 -0.00152276,-0.00141191 -0.00139376,-0.00153939 -0.00125414,-0.00165512 -0.00110494,-0.00175823 -0.000947324,-0.00184793 -0.000782479,-0.00192354 -0.000611666,-0.00198448 -0.000436188,-0.00203028 -0.000257382,-0.00206059 -7.66141e-05,-0.00207519 0.000104739,-0.00207396 0,-0.57361 0,-0.195549 0.79775,0.795099 z "/>
<path fill="rgb(0,91,140)" stroke="rgb(0,91,140)" d="M 2.88918,4.62938 l -0.00059929,0.0026725 -0.00082953,0.00261022 -0.00105348,0.00252815 -0.00126944,0.00242691 -0.00147577,0.00230727 -0.00167091,0.00217012 -0.00185338,0.00201652 -0.0020218,0.00184763 -0.00217488,0.00166472 -0.00231146,0.00146919 -0.00243052,0.00126252 -0.00253115,0.00104627 -0.00261258,0.000822086 -0.00267419,0.000591669 -0.00271553,0.000356765 -0.00273627,0.000119155 -0.784039,-2.89952e-05 -0.0020574,-0.000281787 -0.00202496,-0.000460221 -0.00197709,-0.000635144 -0.00191413,-0.000805223 -0.00183658,-0.00096916 -0.00174501,-0.00112571 -0.00164014,-0.00127367 -0.00152276,-0.00141191 -0.00139376,-0.00153939 -0.00125414,-0.00165512 -0.00110494,-0.00175823 -0.000947324,-0.00184793 -0.000782479,-0.00192354 -0.000611666,-0.00198448 -0.000436188,-0.00203028 -0.000257382,-0.00206059 -7.66141e-05,-0.00207519 0.000104739,-0.00207396 0,-0.57361 0,-0.252695 0.000102212,-0.00225168 0.000297853,-0.00223423 0.000491233,-0.00219981 0.000680882,-0.00214869 0.000865361,-0.00208126 0.00104327,-0.00199802 0.00121325,-0.00189961 0.00137403,-0.00178677 0.00152436,-0.00166036 0.00166313,-0.00152135 0.00178926,-0.00137078 0.0019018,-0.0012098 0.00199991,-0.00103964 0.00208283,-0.000861583 0.00214993,-0.000676982 0.0022007,-0.00048724 0.00223476,-0.000293798 0.00225186,-9.81257e-05 0.788925,2.91759e-05 0.00223658,0.000501704 0.00218445,0.000694373 0.00211576,0.000881778 0.00203103,0.0010625 0.0019309,0.00123516 0.00181613,0.00139845 0.00168758,0.00155115 0.00154624,0.00169208 0.00139318,0.00182018 0.00122955,0.00193448 0.0010566,0.00203411 0.000875635,0.00211831 0.000688032,0.00218646 0.000495212,0.00223803 0.000298637,0.00227262 9.9798e-05,0.00228999 0,0.252574 0,0.573639 z "/>
<path fill="rgb(0,91,140)" stroke="rgb(0,91,140)" d="M 1.89,4.55195 l -9.95135e-05,0.00224942 -0.000295111,0.0022322 -0.000488465,0.002198 -0.000678104,0.00214709 -0.000862586,0.00207984 -0.00104051,0.00199679 -0.00121052,0.00189854 -0.00137132,0.00178586 -0.0015217,0.00165959 -0.0016605,0.00152071 -0.00178667,0.00137026 -0.00189926,0.00120939 -0.0019974,0.00103932 -0.00208036,0.00086135 -0.00214749,0.000676828 -0.00219829,0.000487159 -0.00223237,0.000293785 -0.00224948,9.81773e-05 -0.403995,0 -0.00230946,-0.000157094 -0.00228595,-0.000364304 -0.00224388,-0.000568556 -0.00218361,-0.000768194 -0.00210561,-0.000961598 -0.00201052,-0.0011472 -0.00189912,-0.00132348 -0.0017723,-0.00148903 -0.0016311,-0.00164249 -0.00147666,-0.00178262 -0.00131023,-0.00190829 -0.00113318,-0.00201846 -0.000946919,-0.00211225 -0.000752978,-0.0021889 -0.000552925,-0.00224779 -0.201247,-0.501336 -0.0931241,-0.231985 0.0723042,-0.123959 0.650677,0 5.77316e-14,0 0.00225076,9.95726e-05 0.00223353,0.000295287 0.00219931,0.000488755 0.00214836,0.000678507 0.00208108,0.000863098 0.00199797,0.00104113 0.00189967,0.00121124 0.00178692,0.00137214 0.00166058,0.0015226 0.00152161,0.00166148 0.00137107,0.00178773 0.00121011,0.00190039 0.00103994,0.00199859 0.000861862,0.00208159 0.00067723,0.00214877 0.000487449,0.0021996 0.00029396,0.0022337 9.82356e-05,0.00225082 0,0.330109 0,0.496212 z "/>
<path fill="rgb(0,91,140)" stroke="rgb(0,91,140)" d="M 6.10784,4.63714 l -0.000736305,0.00205435 -0.000907256,0.00198479 -0.00107172,0.00190103 -0.00122851,0.00180368 -0.00137652,0.00169343 -0.00151469,0.00157106 -0.00164202,0.00143746 -0.0017576,0.00129357 -0.00186062,0.00114044 -0.00195033,0.000979147 -0.00202609,0.000810851 -0.00208736,0.000636756 -0.00213369,0.000458107 -0.00216477,0.000276182 -0.00218037,9.22805e-05 -0.289386,0 -0.00201259,-0.000322278 -0.00197676,-0.000496786 -0.00192583,-0.000667499 -0.00186019,-0.000833112 -0.00178034,-0.000992361 -0.00168688,-0.00114403 -0.00158054,-0.00128696 -0.00146213,-0.00142005 -0.00133255,-0.0015423 -0.00119278,-0.00165277 -0.00104391,-0.00175061 -0.000887056,-0.00183508 -0.000723429,-0.00190553 -0.000554275,-0.00196142 -0.000380888,-0.00200232 -0.00020459,-0.00202793 -2.67298e-05,-0.00203805 0.000151335,-0.0020326 0,-0.573625 0,-0.252742 0,-7.01661e-14 0.000104602,-0.00224714 0.000299688,-0.00222952 0.000492502,-0.002195 0.000681581,-0.00214383 0.000865493,-0.00207641 0.00104284,-0.00199325 0.00121229,-0.00189498 0.00137254,-0.00178233 0.00152238,-0.00165618 0.00166068,-0.00151746 0.0017864,-0.00136725 0.00189856,-0.00120666 0.00199633,-0.00103693 0.00207897,-0.000859333 0.00214584,-0.000675222 0.00219645,-0.000485992 0.0022304,-0.000293077 0.00224744,-9.79398e-05 0.414472,0 0.00195825,0.000371105 0.00191829,0.000540935 0.00186363,0.000706619 0.0017947,0.00086689 0.00171201,0.00102052 0.00161621,0.00116633 0.00150802,0.0013032 0.00138828,0.00143008 0.00125789,0.00154601 0.00111787,0.00165009 0.000969288,0.00174153 0.000813275,0.00181962 0.000651031,0.00188377 0.000483798,0.00193349 0.000312858,0.00196839 0.000139521,0.00198821 -3.48857e-05,0.00199279 -0.000209025,0.00198211 -0.0378778,0.252589 -0.0871862,0.581403 z "/>
<path fill="rgb(0,91,140)" stroke="rgb(0,91,140)" d="M 5.40415,2.87417 l 0.111045,-0.000584159 -0.00188525,0.0432091 -0.00564407,0.0428804 -0.00935994,0.0422253 -0.0130046,0.0412488 -0.0165502,0.0399584 -0.0199699,0.0383639 -0.0232376,0.0364773 -0.0263285,0.0343132 -0.0292189,0.0318879 -0.031887,0.0292199 -0.0343124,0.0263295 -0.0364766,0.0232387 -0.0383632,0.0199711 -0.0399579,0.0165515 -0.0412484,0.0130058 -0.042225,0.00936124 -0.0428802,0.0056454 -0.0432091,0.00188659 -0.0432091,-0.00188659 -0.0428802,-0.0056454 -0.042225,-0.00936124 -0.0412484,-0.0130058 -0.0399579,-0.0165515 -0.0383632,-0.0199711 -0.0364766,-0.0232387 -0.0343124,-0.0263295 -0.031887,-0.0292199 -0.0292189,-0.0318879 -0.0263285,-0.0343132 -0.0232376,-0.0364773 -0.0199699,-0.0383639 -0.0165502,-0.0399584 -0.0130046,-0.0412488 -0.00935994,-0.0422253 -0.00564407,-0.0428804 -0.00188525,-0.0432091 0.11102,0.000584057 -2.95773e-06,0.00067466 -1.77464e-06,0.000674664 -5.91547e-07,0.000674666 0.00146402,0.0335316 0.00438092,0.0332764 0.00726448,0.032768 0.0100928,0.0320101 0.0128442,0.0310087 0.0154979,0.0297712 0.0180337,0.0283072 0.0204322,0.0266277 0.0226752,0.0247456 0.0247456,0.0226752 0.0266277,0.0204322 0.0283072,0.0180337 0.0297712,0.0154979 0.0310087,0.0128442 0.0320101,0.0100928 0.032768,0.00726448 0.0332764,0.00438092 0.0335316,0.00146402 0.0335316,-0.00146402 0.0332764,-0.00438092 0.032768,-0.00726448 0.0320101,-0.0100928 0.0310087,-0.0128442 0.0297712,-0.0154979 0.0283072,-0.0180337 0.0266277,-0.0204322 0.0247456,-0.0226752 0.0226752,-0.0247456 0.0204322,-0.0266277 0.0180337,-0.0283072 0.0154979,-0.0297712 0.0128442,-0.0310087 0.0100928,-0.0320101 0.00726448,-0.032768 0.00438092,-0.0332764 0.00146402,-0.0335316 -5.91488e-07,-0.000674632 -1.77446e-06,-0.00067463 -2.95743e-06,-0.000674625 z "/>
<path fill="rgb(0,91,140)" stroke="rgb(0,91,140)" d="M 1.76603,2.87358 l 0.106484,0.00056564 -2.60899e-06,0.000570895 -1.76184e-06,0.000570898 -9.14683e-07,0.0005709 -7.90832e-08,0.000110319 -4.74499e-08,0.000110319 -1.58166e-08,0.000110319 0.00145552,0.0334343 0.00435555,0.0331813 0.00722262,0.0326773 0.010035,0.031926 0.0127715,0.0309331 0.0154114,0.0297062 0.0179346,0.0282545 0.0203222,0.0265891 0.022556,0.0247224 0.0246191,0.0226687 0.0264959,0.0204435 0.0281723,0.0180636 0.0296355,0.015547 0.0308744,0.0129128 0.0318798,0.0101808 0.0326439,0.00737187 0.0331611,0.00450713 0.0334273,0.00160829 0.0334406,-0.00130272 0.0332009,-0.00420387 0.0327099,-0.00707322 0.0319715,-0.00988905 0.0836534,0.0833755 -0.0398777,0.0168029 -0.0411971,0.0132426 -0.0421993,0.00958032 -0.0428767,0.0058443 -0.0432239,0.0020633 -0.0432384,-0.0017336 -0.04292,-0.00551714 -0.0422712,-0.00925821 -0.0412969,-0.012928 -0.0400047,-0.0164983 -0.0384045,-0.0199415 -0.0365086,-0.0232312 -0.0343316,-0.0263421 -0.0318904,-0.0292501 -0.0292036,-0.031933 -0.026292,-0.03437 -0.0231779,-0.0365424 -0.0198854,-0.0384335 -0.0164399,-0.0400287 -0.0128677,-0.0413157 -0.00919651,-0.0422846 -0.0054545,-0.042928 -0.0016705,-0.0432409 z "/>
<path fill="rgb(0,91,140)" stroke="rgb(0,91,140)" d="M 1.06776,6.07553 l -0.151112,0.131016 -0.207757,-0.262428 -0.18353,-0.279907 -0.15784,-0.295157 -0.130893,-0.308056 -0.102903,-0.3185 -0.0740935,-0.326407 -0.0446935,-0.331713 -0.0149375,-0.334377 0.0142699,-0.326834 0.042701,-0.324347 0.0708072,-0.319391 0.0983745,-0.312004 0.125193,-0.302243 0.151059,-0.290182 0.175775,-0.275912 0.199154,-0.259542 0.221016,-0.241197 0.241197,-0.221016 0.259542,-0.199154 0.275912,-0.175775 0.290182,-0.151059 0.302243,-0.125193 0.312004,-0.0983745 0.319391,-0.0708072 0.324347,-0.042701 0.326834,-0.0142699 0,0.2 -0.309403,0.0135088 -0.307048,0.0404237 -0.302357,0.0670308 -0.295364,0.0931279 -0.286123,0.118516 -0.274705,0.143002 -0.261196,0.1664 -0.2457,0.188532 -0.228333,0.209229 -0.209229,0.228333 -0.188532,0.2457 -0.1664,0.261196 -0.143002,0.274705 -0.118516,0.286123 -0.0931279,0.295364 -0.0670308,0.302357 -0.0404237,0.307048 -0.0135088,0.309403 0.0141408,0.316544 0.0423099,0.314022 0.0701418,0.308999 0.097415,0.301513 0.123912,0.291626 0.149422,0.279416 0.173742,0.264979 0.196677,0.248431 z "/>
<path fill="rgb(0,91,140)" stroke="rgb(0,91,140)" d="M 7.5,3.75 l -0.0128574,0.310266 -0.0384839,0.308138 -0.0638466,0.303898 -0.0887715,0.297573 -0.189122,-0.06506 0.084037,-0.281703 0.0604415,-0.28769 0.0364315,-0.291704 0.0121716,-0.293718 -0.0135088,-0.309403 -0.0404237,-0.307048 -0.0670308,-0.302357 -0.0931279,-0.295364 -0.118516,-0.286123 -0.143002,-0.274705 -0.1664,-0.261196 -0.188532,-0.2457 -0.209229,-0.228333 -0.228333,-0.209229 -0.2457,-0.188532 -0.261196,-0.1664 -0.274705,-0.143002 -0.286123,-0.118516 -0.295364,-0.0931279 -0.302357,-0.0670308 -0.307048,-0.0404237 -0.309403,-0.0135088 0,-0.2 0.326834,0.0142699 0.324347,0.042701 0.319391,0.0708072 0.312004,0.0983745 0.302243,0.125193 0.290182,0.151059 0.275912,0.175775 0.259542,0.199154 0.241197,0.221016 0.221016,0.241197 0.199154,0.259542 0.175775,0.275912 0.151059,0.290182 0.125193,0.302243 0.0983745,0.312004 0.0708072,0.319391 0.042701,0.324347 0.0142699,0.326834 z "/>
<path fill="rgb(0,91,140)" stroke="rgb(0,91,140)" d="M 1.06776,6.07553 l 0.213058,0.225086 0.231878,0.205645 0.248931,0.184636 0.264087,0.162221 0.27723,0.138568 0.288259,0.11386 0.297092,0.0882837 0.30366,0.0620345 0.307913,0.0353125 0.30982,0.00832127 0.309365,-0.0187333 0.306552,-0.0456452 0.301402,-0.0722091 0.293955,-0.0982226 0.284268,-0.123487 0.272414,-0.147811 0.258483,-0.171008 0.242583,-0.192902 0.224833,-0.213325 0.20537,-0.232122 0.184341,-0.24915 0.161907,-0.264279 0.138239,-0.277394 0.113518,-0.288394 0.189122,0.06506 -0.119913,0.304642 -0.146028,0.293022 -0.171029,0.279168 -0.194726,0.263187 -0.21694,0.245199 -0.2375,0.225343 -0.256249,0.203769 -0.273046,0.180642 -0.287761,0.156138 -0.300283,0.130445 -0.310516,0.103756 -0.318383,0.0762772 -0.323822,0.0482167 -0.326794,0.0197887 -0.327274,-0.00879008 -0.32526,-0.0373019 -0.320767,-0.0655294 -0.313829,-0.0932574 -0.304499,-0.120275 -0.292848,-0.146375 -0.278965,-0.17136 -0.262956,-0.195039 -0.244942,-0.217231 -0.225061,-0.237767 0.151112,-0.131016 z "/>
<path fill="rgb(241,240,234)" stroke="rgb(241,240,234)" d="M 2.3868,3.23845 l 1.86517e-14,1.86517e-14 -0.0319715,0.00988905 -0.0327099,0.00707322 -0.0332009,0.00420387 -0.0334406,0.00130272 -0.0334273,-0.00160829 -0.0331611,-0.00450713 -0.0326439,-0.00737187 -0.0318798,-0.0101808 -0.0308744,-0.0129128 -0.0296355,-0.015547 -0.0281723,-0.0180636 -0.0264959,-0.0204435 -0.0246191,-0.0226687 -0.022556,-0.0247224 -0.0203222,-0.0265891 -0.0179346,-0.0282545 -0.0154114,-0.0297062 -0.0127715,-0.0309331 -0.010035,-0.031926 -0.00722262,-0.0326773 -0.00435555,-0.0331813 -0.00145552,-0.0334343 0.00145552,0.0334343 0.00435555,0.0331813 0.00722262,0.0326773 0.010035,0.031926 0.0127715,0.0309331 0.0154114,0.0297062 0.0179346,0.0282545 0.0203222,0.0265891 0.022556,0.0247224 0.0246191,0.0226687 0.0264959,0.0204435 0.0281723,0.0180636 0.0296355,0.015547 0.0308744,0.0129128 0.0318798,0.0101808 0.0326439,0.00737187 0.0331611,0.00450713 0.0334273,0.00160829 0.0334406,-0.00130272 0.0332009,-0.00420387 0.0327099,-0.00707322 0.0319715,-0.00988905 z "/>
<path fill="rgb(241,240,234)" stroke="rgb(241,240,234)" d="M 1.89455,2.74783 l 0.492253,0.490618 -0.0319715,0.00988905 -0.0327099,0.00707322 -0.0332009,0.00420387 -0.0334406,0.00130272 -0.0334273,-0.00160829 -0.0331611,-0.00450713 -0.0326439,-0.00737187 -0.0318798,-0.0101808 -0.0308744,-0.0129128 -0.0296355,-0.015547 -0.0281723,-0.0180636 -0.0264959,-0.0204435 -0.0246191,-0.0226687 -0.022556,-0.0247224 -0.0203222,-0.0265891 -0.0179346,-0.0282545 -0.0154114,-0.0297062 -0.0127715,-0.0309331 -0.010035,-0.031926 -0.00722262,-0.0326773 -0.00435555,-0.0331813 -0.00145552,-0.0334343 1.58166e-08,-0.000110319 4.74499e-08,-0.000110319 7.90832e-08,-0.000110319 9.14683e-07,-0.0005709 1.76184e-06,-0.000570898 2.60899e-06,-0.000570895 1.04776e-06,-0.000188547 1.14016e-06,-0.000188547 1.23256e-06,-0.000188546 0.00155258,-0.0320177 0.00421255,-0.0317773 0.00684327,-0.0313163 0.00942648,-0.030638 z "/>
<path fill="rgb(241,240,234)" stroke="rgb(241,240,234)" d="M 4.6347,2.87358 l 0.00167771,-0.0333766 0.00456783,-0.0331051 0.00742348,-0.0325838 0.0102231,-0.0318167 0.0129456,-0.0308095 0.0155705,-0.0295699 0.0180778,-0.0281071 0.0204487,-0.0264322 0.0226654,-0.024558 0.0247111,-0.0224984 0.0265703,-0.0202691 0.028229,-0.0178869 0.0296747,-0.0153696 0.0308966,-0.0127365 0.0318853,-0.0100072 0.0326334,-0.00720243 0.0331353,-0.00434331 0.0333873,-0.00145142 0.0333873,0.00145142 0.0331353,0.00434331 0.0326334,0.00720243 0.0318853,0.0100072 0.0308966,0.0127365 0.0296747,0.0153696 0.028229,0.0178869 0.0265703,0.0202691 0.0247111,0.0224984 0.0226654,0.024558 0.0204487,0.0264322 0.0180778,0.0281071 0.0155705,0.0295699 0.0129456,0.0308095 0.0102231,0.0318167 0.00742348,0.0325838 0.00456783,0.0331051 0.00167771,0.0333766 -0.00167771,-0.0333766 -0.00456783,-0.0331051 -0.00742348,-0.0325838 -0.0102231,-0.0318167 -0.0129456,-0.0308095 -0.0155705,-0.0295699 -0.0180778,-0.0281071 -0.0204487,-0.0264322 -0.0226654,-0.024558 -0.0247111,-0.0224984 -0.0265703,-0.0202691 -0.028229,-0.0178869 -0.0296747,-0.0153696 -0.0308966,-0.0127365 -0.0318853,-0.0100072 -0.0326334,-0.00720243 -0.0331353,-0.00434331 -0.0333873,-0.00145142 -0.0333873,0.00145142 -0.0331353,0.00434331 -0.0326334,0.00720243 -0.0318853,0.0100072 -0.0308966,0.0127365 -0.0296747,0.0153696 -0.028229,0.0178869 -0.0265703,0.0202691 -0.0247111,0.0224984 -0.0226654,0.024558 -0.0204487,0.0264322 -0.0180778,0.0281071 -0.0155705,0.0295699 -0.0129456,0.0308095 -0.0102231,0.0318167 -0.00742348,0.0325838 -0.00456783,0.0331051 -0.00167771,0.0333766 z "/>
<path fill="rgb(241,240,234)" stroke="rgb(241,240,234)" d="M 5.40415,2.87417 l 2.95743e-06,0.000674625 1.77446e-06,0.00067463 5.91488e-07,0.000674632 -0.00146402,0.0335316 -0.00438092,0.0332764 -0.00726448,0.0327679 -0.0100928,0.0320101 -0.0128442,0.0310087 -0.0154979,0.0297712 -0.0180337,0.0283072 -0.0204322,0.0266277 -0.0226752,0.0247456 -0.0247456,0.0226752 -0.0266277,0.0204322 -0.0283072,0.0180337 -0.0297712,0.0154979 -0.0310087,0.0128442 -0.0320101,0.0100928 -0.0327679,0.00726448 -0.0332764,0.00438092 -0.0335316,0.00146402 -0.0335316,-0.00146402 -0.0332764,-0.00438092 -0.0327679,-0.00726448 -0.0320101,-0.0100928 -0.0310087,-0.0128442 -0.0297712,-0.0154979 -0.0283072,-0.0180337 -0.0266277,-0.0204322 -0.0247456,-0.0226752 -0.0226752,-0.0247456 -0.0204322,-0.0266277 -0.0180337,-0.0283072 -0.0154979,-0.0297712 -0.0128442,-0.0310087 -0.0100928,-0.0320101 -0.00726448,-0.0327679 -0.00438092,-0.0332764 -0.00146402,-0.0335316 5.91547e-07,-0.000674666 1.77464e-06,-0.000674664 2.95773e-06,-0.00067466 1.07348e-06,-0.000194686 1.172e-06,-0.000194686 1.27051e-06,-0.000194685 0.00167771,-0.0333766 0.00456783,-0.0331051 0.00742348,-0.0325838 0.0102231,-0.0318167 0.0129456,-0.0308095 0.0155705,-0.0295699 0.0180778,-0.0281071 0.0204487,-0.0264322 0.0226654,-0.024558 0.0247111,-0.0224984 0.0265703,-0.0202691 0.028229,-0.0178869 0.0296747,-0.0153696 0.0308966,-0.0127365 0.0318853,-0.0100072 0.0326334,-0.00720243 0.0331353,-0.00434331 0.0333873,-0.00145142 0.0333873,0.00145142 0.0331353,0.00434331 0.0326334,0.00720243 0.0318853,0.0100072 0.0308966,0.0127365 0.0296747,0.0153696 0.028229,0.0178869 0.0265703,0.0202691 0.0247111,0.0224984 0.0226654,0.024558 0.0204487,0.0264322 0.0180778,0.0281071 0.0155705,0.0295699 0.0129456,0.0308095 0.0102231,0.0318167 0.00742348,0.0325838 0.00456783,0.0331051 0.00167771,0.0333766 1.27073e-06,0.000194719 1.17217e-06,0.00019472 1.07362e-06,0.00019472 z "/>
<path fill="rgb(241,240,234)" stroke="rgb(241,240,234)" d="M 5.40416,2.87619 l -0.00146402,0.0335316 -0.00438092,0.0332764 -0.00726448,0.032768 -0.0100928,0.0320101 -0.0128442,0.0310087 -0.0154979,0.0297712 -0.0180337,0.0283072 -0.0204322,0.0266277 -0.0226752,0.0247456 -0.0247456,0.0226752 -0.0266277,0.0204322 -0.0283072,0.0180337 -0.0297712,0.0154979 -0.0310087,0.0128442 -0.0320101,0.0100928 -0.032768,0.00726448 -0.0332764,0.00438092 -0.0335316,0.00146402 -0.0335316,-0.00146402 -0.0332764,-0.00438092 -0.032768,-0.00726448 -0.0320101,-0.0100928 -0.0310087,-0.0128442 -0.0297712,-0.0154979 -0.0283072,-0.0180337 -0.0266277,-0.0204322 -0.0247456,-0.0226752 -0.0226752,-0.0247456 -0.0204322,-0.0266277 -0.0180337,-0.0283072 -0.0154979,-0.0297712 -0.0128442,-0.0310087 -0.0100928,-0.0320101 -0.00726448,-0.032768 -0.00438092,-0.0332764 -0.00146402,-0.0335316 0.00146402,0.0335316 0.00438092,0.0332764 0.00726448,0.0327679 0.0100928,0.0320101 0.0128442,0.0310087 0.0154979,0.0297712 0.0180337,0.0283072 0.0204322,0.0266277 0.0226752,0.0247456 0.0247456,0.0226752 0.0266277,0.0204322 0.0283072,0.0180337 0.0297712,0.0154979 0.0310087,0.0128442 0.0320101,0.0100928 0.0327679,0.00726448 0.0332764,0.00438092 0.0335316,0.00146402 0.0335316,-0.00146402 0.0332764,-0.00438092 0.0327679,-0.00726448 0.0320101,-0.0100928 0.0310087,-0.0128442 0.0297712,-0.0154979 0.0283072,-0.0180337 0.0266277,-0.0204322 0.0247456,-0.0226752 0.0226752,-0.0247456 0.0204322,-0.0266277 0.0180337,-0.0283072 0.0154979,-0.0297712 0.0128442,-0.0310087 0.0100928,-0.0320101 0.00726448,-0.0327679 0.00438092,-0.0332764 0.00146402,-0.0335316 z "/>
<path fill="rgb(241,240,234)" stroke="rgb(241,240,234)" d="M 1.89,4.55195 l 0,-0.496212 0.162702,0 0,0.57361 -0.000104739,0.00207396 7.66141e-05,0.00207519 0.000257382,0.00206059 0.000436188,0.00203028 0.000611666,0.00198448 0.000782479,0.00192354 0.000947324,0.00184793 0.00110494,0.00175823 0.00125414,0.00165512 0.00139376,0.00153939 0.00152276,0.00141191 0.00164014,0.00127367 0.00174501,0.00112571 0.00183658,0.00096916 0.00191413,0.000805223 0.00197709,0.000635144 0.00202496,0.000460221 0.0020574,0.000281787 1.30562e-12,1.2168e-13 0.784039,2.89952e-05 0.00273627,-0.000119155 0.00271553,-0.000356765 0.00267419,-0.000591669 0.00261258,-0.000822086 0.00253115,-0.00104627 0.00243052,-0.00126252 0.00231146,-0.00146919 0.00217488,-0.00166472 0.0020218,-0.00184763 0.00185338,-0.00201652 0.00167091,-0.00217012 0.00147577,-0.00230727 0.00126944,-0.00242691 0.00105348,-0.00252815 0.00082953,-0.00261022 0.00059929,-0.0026725 0,-0.573639 0.121435,0 0,0.57361 -0.000104739,0.00207396 7.66141e-05,0.00207519 0.000257382,0.00206059 0.000436188,0.00203028 0.000611666,0.00198448 0.000782479,0.00192354 0.000947324,0.00184793 0.00110494,0.00175823 0.00125414,0.00165512 0.00139376,0.00153939 0.00152276,0.00141191 0.00164014,0.00127367 0.00174501,0.00112571 0.00183658,0.00096916 0.00191413,0.000805223 0.00197709,0.000635144 0.00202496,0.000460221 0.0020574,0.000281787 1.30562e-12,1.2168e-13 0.776272,2.87079e-05 0.18639,0.185771 -2.71413,0 -0.00624026,-0.000269226 -0.00619389,-0.000805679 -0.00610148,-0.00133614 -0.00596373,-0.00185668 -0.00578166,-0.00236342 -0.00555663,-0.00285259 -0.0052903,-0.00332056 -0.00498465,-0.00376386 -0.00464196,-0.00417918 -0.00426477,-0.00456345 -0.00385589,-0.0049138 -0.00341835,-0.00522764 -0.00295541,-0.00550263 -0.00247051,-0.00573672 -0.00196724,-0.00592818 -0.00144936,-0.00607558 -0.000920706,-0.00617784 -0.000385209,-0.00623418 0.000153151,-0.00624419 0.0722889,-0.232469 -0.194999,-0.475501 0.1487,0 0.201247,0.501336 0.000552925,0.00224779 0.000752978,0.0021889 0.000946919,0.00211225 0.00113318,0.00201846 0.00131023,0.00190829 0.00147666,0.00178262 0.0016311,0.00164249 0.0017723,0.00148903 0.00189912,0.00132348 0.00201052,0.0011472 0.00210561,0.000961598 0.00218361,0.000768194 0.00224388,0.000568556 0.00228595,0.000364304 0.00230946,0.000157094 0.403995,0 0.00224948,-9.81773e-05 0.00223237,-0.000293785 0.00219829,-0.000487159 0.00214749,-0.000676828 0.00208036,-0.00086135 0.0019974,-0.00103932 0.00189926,-0.00120939 0.00178667,-0.00137026 0.0016605,-0.00152071 0.0015217,-0.00165959 0.00137132,-0.00178586 0.00121052,-0.00189854 0.00104051,-0.00199679 0.000862586,-0.00207984 0.000678104,-0.00214709 0.000488465,-0.002198 0.000295111,-0.0022322 9.95135e-05,-0.00224942 z "/>
<path fill="rgb(241,240,234)" stroke="rgb(241,240,234)" d="M 6.30522,4.84106 l -0.61058,0 -0.186404,-0.185785 0.115364,0 0.0027362,-0.00011925 0.00271545,-0.000356846 0.0026741,-0.000591737 0.00261248,-0.000822139 0.00253105,-0.00104631 0.00243043,-0.00126254 0.00231137,-0.0014692 0.00217479,-0.00166472 0.00202171,-0.00184761 0.0018533,-0.0020165 0.00167084,-0.00217009 0.00147571,-0.00230722 0.00126939,-0.00242686 0.00105344,-0.00252809 0.000829499,-0.00261016 0.000599271,-0.00267243 0,-0.573625 0.118773,0 0,0.573625 -0.000151335,0.0020326 2.67298e-05,0.00203805 0.00020459,0.00202793 0.000380888,0.00200232 0.000554275,0.00196142 0.000723429,0.00190553 0.000887056,0.00183508 0.00104391,0.00175061 0.00119278,0.00165277 0.00133255,0.0015423 0.00146213,0.00142005 0.00158054,0.00128696 0.00168688,0.00114403 0.00178034,0.000992361 0.00186019,0.000833112 0.00192583,0.000667499 0.00197676,0.000496786 0.00201259,0.000322278 0.289386,0 0.00218037,-9.22805e-05 0.00216477,-0.000276182 0.00213369,-0.000458107 0.00208736,-0.000636756 0.00202609,-0.000810851 0.00195033,-0.000979147 0.00186062,-0.00114044 0.0017576,-0.00129357 0.00164202,-0.00143746 0.00151469,-0.00157106 0.00137652,-0.00169343 0.00122851,-0.00180368 0.00107172,-0.00190103 0.000907256,-0.00198479 0.000736305,-0.00205435 0.0871862,-0.581403 0.158694,0 -0.0794558,0.516785 0.0854477,0.141426 0.0035194,0.00643638 0.00295204,0.00671555 0.00236274,0.00694483 0.0017559,0.0071225 0.001136,0.00724725 0.000507663,0.00731816 -0.000124445,0.00733469 -0.000755628,0.00729673 -0.0013812,0.00720455 -0.0019965,0.00705883 -0.00259698,0.00686068 -0.00317815,0.00661154 -0.00373572,0.00631329 -0.00426552,0.00596812 -0.00476364,0.00557861 -0.00522636,0.00514766 -0.00565025,0.00467845 -0.00603215,0.00417448 -0.00636924,0.0036395 -0.006659,0.00307748 -0.00689929,0.00249259 -0.00708831,0.00188918 z "/>
<path fill="rgb(241,240,234)" stroke="rgb(241,240,234)" d="M 4.92642,4.0754 l -0.0197225,-0.0196569 0.0197225,0 0,0.0196569 z "/>
<path fill="rgb(241,240,234)" stroke="rgb(241,240,234)" d="M 1.76603,2.87358 l 0.0016705,0.0432409 0.0054545,0.042928 0.00919651,0.0422846 0.0128677,0.0413157 0.0164399,0.0400287 0.0198854,0.0384335 0.0231779,0.0365424 0.026292,0.03437 0.0292036,0.031933 0.0318904,0.0292501 0.0343316,0.0263421 0.0365086,0.0232312 0.0384045,0.0199415 0.0400047,0.0164983 0.0412969,0.012928 0.0422712,0.00925821 0.04292,0.00551714 0.0432384,0.0017336 0.0432239,-0.0020633 0.0428767,-0.0058443 0.0421993,-0.00958032 0.0411971,-0.0132426 0.0398777,-0.0168029 0.540159,0.538365 0,0.195549 -0.121435,0 0,-0.252574 -9.9798e-05,-0.00228999 -0.000298637,-0.00227262 -0.000495212,-0.00223803 -0.000688032,-0.00218646 -0.000875635,-0.00211831 -0.0010566,-0.00203411 -0.00122955,-0.00193448 -0.00139318,-0.00182018 -0.00154624,-0.00169208 -0.00168758,-0.00155115 -0.00181613,-0.00139845 -0.0019309,-0.00123516 -0.00203103,-0.0010625 -0.00211576,-0.000881778 -0.00218445,-0.000694373 -0.00223658,-0.000501704 -1.17684e-12,-2.10054e-13 -0.788925,-2.91759e-05 -0.00225186,9.81257e-05 -0.00223476,0.000293798 -0.0022007,0.00048724 -0.00214993,0.000676982 -0.00208283,0.000861583 -0.00199991,0.00103964 -0.0019018,0.0012098 -0.00178926,0.00137078 -0.00166313,0.00152135 -0.00152436,0.00166036 -0.00137403,0.00178677 -0.00121325,0.00189961 -0.00104327,0.00199802 -0.000865361,0.00208126 -0.000680882,0.00214869 -0.000491233,0.00219981 -0.000297853,0.00223423 -0.000102212,0.00225168 0,0.252695 -0.162702,0 0,-0.330109 -9.82356e-05,-0.00225082 -0.00029396,-0.0022337 -0.000487449,-0.0021996 -0.00067723,-0.00214877 -0.000861862,-0.00208159 -0.00103994,-0.00199859 -0.00121011,-0.00190039 -0.00137107,-0.00178773 -0.00152161,-0.00166148 -0.00166058,-0.0015226 -0.00178692,-0.00137214 -0.00189967,-0.00121124 -0.00199797,-0.00104113 -0.00208108,-0.000863098 -0.00214836,-0.000678507 -0.00219931,-0.000488755 -0.00223353,-0.000295287 -0.00225076,-9.95726e-05 -5.77316e-14,0 -0.650677,0 -0.0723042,0.123959 0.0931241,0.231985 -0.1487,0 -0.0993569,-0.242279 0.0774589,-0.113665 0,-0.671265 -0.0774589,0 0,-0.154949 0.779759,0 z "/>
<path fill="rgb(241,240,234)" stroke="rgb(241,240,234)" d="M 6.38779,3.83414 l -0.0340709,0.221599 -0.158694,0 0.0378778,-0.252589 0.000209025,-0.00198211 3.48857e-05,-0.00199279 -0.000139521,-0.00198821 -0.000312858,-0.00196839 -0.000483798,-0.00193349 -0.000651031,-0.00188377 -0.000813275,-0.00181962 -0.000969288,-0.00174153 -0.00111787,-0.00165009 -0.00125789,-0.00154601 -0.00138828,-0.00143008 -0.00150802,-0.0013032 -0.00161621,-0.00116633 -0.00171201,-0.00102052 -0.0017947,-0.00086689 -0.00186363,-0.000706619 -0.00191829,-0.000540935 -0.00195825,-0.000371105 -0.414472,0 -0.00224744,9.79398e-05 -0.0022304,0.000293077 -0.00219645,0.000485992 -0.00214584,0.000675222 -0.00207897,0.000859333 -0.00199633,0.00103693 -0.00189856,0.00120666 -0.0017864,0.00136725 -0.00166068,0.00151746 -0.00152238,0.00165618 -0.00137254,0.00178233 -0.00121229,0.00189498 -0.00104284,0.00199325 -0.000865493,0.00207641 -0.000681581,0.00214383 -0.000492502,0.002195 -0.000299688,0.00222952 -0.000104602,0.00224714 0,7.01661e-14 0,0.252742 -0.118773,0 0,-0.252589 -9.98086e-05,-0.00229011 -0.000298669,-0.00227274 -0.000495264,-0.00223814 -0.000688104,-0.00218656 -0.000875725,-0.00211841 -0.00105671,-0.00203419 -0.00122967,-0.00193454 -0.00139332,-0.00182023 -0.00154639,-0.00169211 -0.00168774,-0.00155115 -0.00181629,-0.00139844 -0.00193107,-0.00123512 -0.0020312,-0.00106243 -0.00211593,-0.000881692 -0.00218462,-0.000694264 -0.00223673,-0.00050157 -0.680583,0 -0.0022518,9.82043e-05 -0.0022347,0.000293867 -0.00220063,0.000487299 -0.00214986,0.00067703 -0.00208275,0.00086162 -0.00199983,0.00103967 -0.00190173,0.00120982 -0.00178919,0.00137079 -0.00166306,0.00152134 -0.0015243,0.00166035 -0.00137397,0.00178675 -0.0012132,0.00189958 -0.00104322,0.00199798 -0.000865321,0.00208122 -0.000680851,0.00214865 -0.00049121,0.00219976 -0.00029784,0.00223418 -0.000102207,0.00225162 0,7.99361e-14 0,0.252681 -0.0197225,0 -0.104236,-0.10389 0,-0.148684 -9.9798e-05,-0.00228999 -0.000298637,-0.00227262 -0.000495212,-0.00223803 -0.000688032,-0.00218646 -0.000875635,-0.00211831 -0.0010566,-0.00203411 -0.00122955,-0.00193448 -0.00139318,-0.00182018 -0.00154624,-0.00169208 -0.00168758,-0.00155115 -0.00181613,-0.00139845 -0.0019309,-0.00123516 -0.00203103,-0.0010625 -0.00211576,-0.000881778 -0.00218445,-0.000694373 -0.00223658,-0.000501704 -1.17595e-12,-2.0961e-13 -0.153498,-5.67663e-06 -0.906678,-0.903666 0.803077,0 0.00188525,0.0432091 0.00564407,0.0428804 0.00935994,0.0422253 0.0130046,0.0412488 0.0165502,0.0399584 0.0199699,0.0383639 0.0232376,0.0364773 0.0263285,0.0343132 0.0292189,0.0318879 0.031887,0.0292199 0.0343124,0.0263295 0.0364766,0.0232387 0.0383632,0.0199711 0.0399579,0.0165515 0.0412484,0.0130058 0.042225,0.00936124 0.0428802,0.0056454 0.0432091,0.00188659 0.0432091,-0.00188659 0.0428802,-0.0056454 0.042225,-0.00936124 0.0412484,-0.0130058 0.0399579,-0.0165515 0.0383632,-0.0199711 0.0364766,-0.0232387 0.0343124,-0.0263295 0.031887,-0.0292199 0.0292189,-0.0318879 0.0263285,-0.0343132 0.0232376,-0.0364773 0.0199699,-0.0383639 0.0165502,-0.0399584 0.0130046,-0.0412488 0.00935994,-0.0422253 0.00564407,-0.0428804 0.00188525,-0.0432091 0.955312,0.154949 0,0.129052 -0.082721,0.05167 0,0.624888 z "/>
<path fill="rgb(241,240,234)" stroke="rgb(241,240,234)" d="M 4.52368,2.87358 l 0.00188525,0.0432091 0.00564407,0.0428804 0.00935994,0.0422253 0.0130046,0.0412488 0.0165502,0.0399584 0.0199699,0.0383639 0.0232376,0.0364773 0.0263285,0.0343132 0.0292189,0.0318879 0.031887,0.0292199 0.0343124,0.0263295 0.0364766,0.0232387 0.0383632,0.0199711 0.0399579,0.0165515 0.0412484,0.0130058 0.042225,0.00936124 0.0428802,0.0056454 0.0432091,0.00188659 0.0432091,-0.00188659 0.0428802,-0.0056454 0.042225,-0.00936124 0.0412484,-0.0130058 0.0399579,-0.0165515 0.0383632,-0.0199711 0.0364766,-0.0232387 0.0343124,-0.0263295 0.031887,-0.0292199 0.0292189,-0.0318879 0.0263285,-0.0343132 0.0232376,-0.0364773 0.0199699,-0.0383639 0.0165502,-0.0399584 0.0130046,-0.0412488 0.00935994,-0.0422253 0.00564407,-0.0428804 0.00188525,-0.0432091 -0.00188525,0.0432091 -0.00564407,0.0428804 -0.00935994,0.0422253 -0.0130046,0.0412488 -0.0165502,0.0399584 -0.0199699,0.0383639 -0.0232376,0.0364773 -0.0263285,0.0343132 -0.0292189,0.0318879 -0.031887,0.0292199 -0.0343124,0.0263295 -0.0364766,0.0232387 -0.0383632,0.0199711 -0.0399579,0.0165515 -0.0412484,0.0130058 -0.042225,0.00936124 -0.0428802,0.0056454 -0.0432091,0.00188659 -0.0432091,-0.00188659 -0.0428802,-0.0056454 -0.042225,-0.00936124 -0.0412484,-0.0130058 -0.0399579,-0.0165515 -0.0383632,-0.0199711 -0.0364766,-0.0232387 -0.0343124,-0.0263295 -0.031887,-0.0292199 -0.0292189,-0.0318879 -0.0263285,-0.0343132 -0.0232376,-0.0364773 -0.0199699,-0.0383639 -0.0165502,-0.0399584 -0.0130046,-0.0412488 -0.00935994,-0.0422253 -0.00564407,-0.0428804 -0.00188525,-0.0432091 z "/>
<path fill="rgb(241,240,234)" stroke="rgb(241,240,234)" d="M 4.80247,3.95185 l 0.104236,0.10389 -0.104236,0 0,-0.10389 z "/>
<path fill="rgb(241,240,234)" stroke="rgb(241,240,234)" d="M 4.62728,3.77725 l 1.68754e-13,1.68754e-13 -0.283325,-1.04779e-05 -9.41469e-14,-9.32587e-14 0.283325,1.04779e-05 z "/>
<path fill="rgb(241,240,234)" stroke="rgb(241,240,234)" d="M 6.50794,5.65165 l -0.0388349,0.055126 -0.0399366,0.0543332 -0.0410221,0.0535184 -0.976816,-0.973571 0.283314,0 0.813295,0.810593 z "/>
<path fill="rgb(241,240,234)" stroke="rgb(241,240,234)" d="M 3.7206,2.87358 l 0.906678,0.903666 -0.283325,-1.04779e-05 -0.906668,-0.903655 0.283314,0 z "/>
<path fill="rgb(241,240,234)" stroke="rgb(241,240,234)" d="M 5.50824,4.65528 l -0.283314,0 -0.298498,-0.297506 0,-0.282373 0.581812,0.579879 z "/>
<path fill="rgb(241,240,234)" stroke="rgb(241,240,234)" d="M 4.62728,3.77725 l 0.175183,0.174601 0,0.10389 0,0.178483 -0.458508,-0.456985 0.283325,1.04779e-05 z "/>
<path fill="rgb(241,240,234)" stroke="rgb(241,240,234)" d="M 1.83918,0.998407 l 1.88143,1.87518 -0.283314,0 -1.76069,-1.75484 0.0533816,-0.0412 0.0542,-0.0401172 0.0549965,-0.0390181 z "/>
<path fill="rgb(241,240,234)" stroke="rgb(241,240,234)" d="M 5.69464,4.84106 l -0.283314,0 -0.186404,-0.185785 0.283314,0 0.186404,0.185785 z "/>
<path fill="rgb(241,240,234)" stroke="rgb(241,240,234)" d="M 4.92642,4.0754 l 0,0.282373 -0.123959,-0.123547 0,-0.178483 0.104236,0 0.0197225,0.0196569 z "/>
<path fill="rgb(241,240,234)" stroke="rgb(241,240,234)" d="M 3.84709,4.62938 l -0.00059929,0.0026725 -0.00082953,0.00261022 -0.00105348,0.00252815 -0.00126944,0.00242691 -0.00147577,0.00230727 -0.00167091,0.00217012 -0.00185338,0.00201652 -0.0020218,0.00184763 -0.00217488,0.00166472 -0.00231146,0.00146919 -0.00243052,0.00126252 -0.00253115,0.00104627 -0.00261258,0.000822086 -0.00267419,0.000591669 -0.00271553,0.000356765 -0.00273627,0.000119155 -0.00776692,-2.87235e-07 -0.79775,-0.795099 0,-0.0571462 0,-7.63833e-14 0.000102212,-0.00225168 0.000297853,-0.00223423 0.000491233,-0.00219981 0.000680882,-0.00214869 0.000865361,-0.00208126 0.00104327,-0.00199802 0.00121325,-0.00189961 0.00137403,-0.00178677 0.00152436,-0.00166036 0.00166313,-0.00152135 0.00178926,-0.00137078 0.0019018,-0.0012098 0.00199991,-0.00103964 0.00208283,-0.000861583 0.00214993,-0.000676982 0.0022007,-0.00048724 0.00223476,-0.000293798 0.00225186,-9.81257e-05 0.174212,6.44267e-06 0.636398,0.634284 0,0.217863 z "/>
<path fill="rgb(241,240,234)" stroke="rgb(241,240,234)" d="M 2.01048,2.58101 l 0.542753,0.54095 -0.0230329,0.0253535 -0.0251966,0.0232043 -0.0271607,0.0208713 -0.0289094,0.0183728 -0.030429,0.0157286 -0.0317073,0.0129598 -0.492253,-0.490618 0.0128542,-0.0317503 0.0156273,-0.0304811 0.0182765,-0.0289704 0.0207808,-0.02723 0.0231204,-0.0252737 0.0252767,-0.0231171 z "/>
<path fill="rgb(241,240,234)" stroke="rgb(241,240,234)" d="M 3.01061,3.86019 l -0.540159,-0.538365 0.0359927,-0.0189172 0.034312,-0.0218178 0.0323981,-0.0245702 0.030264,-0.0271555 0.0279241,-0.0295563 0.579347,0.577422 -0.174212,-6.44267e-06 -0.00225186,9.81257e-05 -0.00223476,0.000293798 -0.0022007,0.00048724 -0.00214993,0.000676982 -0.00208283,0.000861583 -0.00199991,0.00103964 -0.0019018,0.0012098 -0.00178926,0.00137078 -0.00166313,0.00152135 -0.00152436,0.00166036 -0.00137403,0.00178677 -0.00121325,0.00189961 -0.00104327,0.00199802 -0.000865361,0.00208126 -0.000680882,0.00214869 -0.000491233,0.00219981 -0.000297853,0.00223423 -0.000102212,0.00225168 0,7.63833e-14 0,0.0571462 z "/>
<path fill="rgb(241,240,234)" stroke="rgb(241,240,234)" d="M 4.09165,4.65527 l -0.104187,-3.85302e-06 -0.0020574,-0.000281787 -0.00202496,-0.000460221 -0.00197709,-0.000635144 -0.00191413,-0.000805223 -0.00183658,-0.00096916 -0.00174501,-0.00112571 -0.00164014,-0.00127367 -0.00152276,-0.00141191 -0.00139376,-0.00153939 -0.00125414,-0.00165512 -0.00110494,-0.00175823 -0.000947324,-0.00184793 -0.000782479,-0.00192354 -0.000611666,-0.00198448 -0.000436188,-0.00203028 -0.000257382,-0.00206059 -7.66141e-05,-0.00207519 0.000104739,-0.00207396 0,-0.0993317 0.125665,0.125247 z "/>
<path fill="rgb(241,240,234)" stroke="rgb(241,240,234)" d="M 3.03648,3.77722 l 0.174212,6.44267e-06 -4.66294e-14,-4.66294e-14 -0.174212,-6.44267e-06 z "/>
<path fill="rgb(241,240,234)" stroke="rgb(241,240,234)" d="M 1.11186,1.68537 l 0.898628,0.895642 -0.0252767,0.0231171 -0.0231204,0.0252737 -0.0207808,0.02723 -0.0182765,0.0289704 -0.0156273,0.0304811 -0.0128542,0.0317503 -0.902485,-0.899487 0.0388349,-0.055126 0.0399366,-0.0543332 0.0410221,-0.0535184 z "/>
<path fill="rgb(241,240,234)" stroke="rgb(241,240,234)" d="M 2.55324,3.12196 l 1.11022e-14,1.11022e-14 -0.0230329,0.0253535 -0.0251966,0.0232043 -0.0271607,0.0208713 -0.0289094,0.0183728 -0.030429,0.0157286 -0.0317073,0.0129598 -1.86517e-14,-1.86517e-14 0.0317073,-0.0129598 0.030429,-0.0157286 0.0289094,-0.0183728 0.0271607,-0.0208713 0.0251966,-0.0232043 0.0230329,-0.0253535 z "/>
<path fill="rgb(241,240,234)" stroke="rgb(241,240,234)" d="M 2.63135,3.19981 l -0.0279241,0.0295563 -0.030264,0.0271555 -0.0323981,0.0245702 -0.034312,0.0218178 -0.0359927,0.0189172 -0.0836534,-0.0833755 0.0317073,-0.0129598 0.030429,-0.0157286 0.0289094,-0.0183728 0.0271607,-0.0208713 0.0251966,-0.0232043 0.0230329,-0.0253535 0.0781084,0.0778489 z "/>
<path fill="rgb(241,240,234)" stroke="rgb(241,240,234)" d="M 5.8234,6.38126 l -0.0533816,0.0412 -0.0542,0.0401172 -0.0549965,0.0390181 -1.66607,-1.66053 0.283314,0 1.54533,1.5402 z "/>
<path fill="rgb(241,240,234)" stroke="rgb(241,240,234)" d="M 4.09165,4.65527 l -1.05693e-13,-1.04805e-13 -0.104187,-3.85302e-06 1.30562e-12,1.20792e-13 0.104187,3.85302e-06 z "/>
<path fill="rgb(241,240,234)" stroke="rgb(241,240,234)" d="M 3.84709,4.62938 l 0,-0.217863 0.118898,0.118503 0,0.0993317 -0.000104739,0.00207396 7.66141e-05,0.00207519 0.000257382,0.00206059 0.000436188,0.00203028 0.000611666,0.00198448 0.000782479,0.00192354 0.000947324,0.00184793 0.00110494,0.00175823 0.00125414,0.00165512 0.00139376,0.00153939 0.00152276,0.00141191 0.00164014,0.00127367 0.00174501,0.00112571 0.00183658,0.00096916 0.00191413,0.000805223 0.00197709,0.000635144 0.00202496,0.000460221 0.0020574,0.000281787 1.30562e-12,1.20792e-13 0.104187,3.85302e-06 0.186415,0.185796 -0.283314,0 -0.18639,-0.185771 0.00776692,2.87235e-07 0.00273627,-0.000119155 0.00271553,-0.000356765 0.00267419,-0.000591669 0.00261258,-0.000822086 0.00253115,-0.00104627 0.00243052,-0.00126252 0.00231146,-0.00146919 0.00217488,-0.00166472 0.0020218,-0.00184763 0.00185338,-0.00201652 0.00167091,-0.00217012 0.00147577,-0.00230727 0.00126944,-0.00242691 0.00105348,-0.00252815 0.00082953,-0.00261022 0.00059929,-0.0026725 z "/>
<path fill="rgb(241,240,234)" stroke="rgb(241,240,234)" d="M 7.05703,3.21515 l -0.0599287,-0.289072 -0.0851457,-0.282673 -0.109701,-0.274079 -0.133405,-0.263357 -0.156073,-0.250589 -0.177529,-0.235876 -0.197606,-0.219331 -0.216148,-0.201082 -0.233012,-0.181271 -0.248066,-0.160053 -0.261194,-0.137592 -0.272293,-0.114063 -0.281278,-0.0896474 -0.288078,-0.0645359 -0.292641,-0.0389231 -0.294932,-0.013008 0,-0.2 0.309403,0.0135088 0.307048,0.0404237 0.302357,0.0670308 0.295364,0.0931279 0.286123,0.118516 0.274705,0.143002 0.261196,0.1664 0.2457,0.188532 0.228333,0.209229 0.209229,0.228333 0.188532,0.2457 0.1664,0.261196 0.143002,0.274705 0.118516,0.286123 0.0931279,0.295364 0.0670308,0.302357 0.0404237,0.307048 0.0135088,0.309403 -0.0121716,0.293718 -0.0364315,0.291704 -0.0604415,0.28769 -0.084037,0.281703 -0.189122,-0.06506 0.0793025,-0.265832 0.0570363,-0.271482 0.034379,-0.27527 0.0114859,-0.277171 -0.00478369,-0.178963 -0.0143374,-0.178452 -0.0238502,-0.177431 z "/>
<path fill="rgb(241,240,234)" stroke="rgb(241,240,234)" d="M 1.06776,6.07553 l -0.196677,-0.248431 -0.173742,-0.264979 -0.149422,-0.279416 -0.123912,-0.291626 -0.097415,-0.301513 -0.0701418,-0.308999 -0.0423099,-0.314022 -0.0141408,-0.316544 0.0135088,-0.309403 0.0404237,-0.307048 0.0670308,-0.302357 0.0931279,-0.295364 0.118516,-0.286123 0.143002,-0.274705 0.1664,-0.261196 0.188532,-0.2457 0.209229,-0.228333 0.228333,-0.209229 0.2457,-0.188532 0.261196,-0.1664 0.274705,-0.143002 0.286123,-0.118516 0.295364,-0.0931279 0.302357,-0.0670308 0.307048,-0.0404237 0.309403,-0.0135088 0,0.2 -0.290122,0.0125865 -0.287942,0.0376648 -0.283598,0.0624601 -0.277124,0.0867861 -0.268566,0.11046 -0.257991,0.133304 -0.245477,0.155146 -0.0549965,0.0390181 -0.0542,0.0401172 -0.0533816,0.0412 -0.203135,0.173638 -0.188648,0.189277 -0.172961,0.203711 -0.0410221,0.0535184 -0.0399366,0.0543332 -0.0388349,0.055126 -0.164189,0.263458 -0.139096,0.277525 -0.112809,0.289209 -0.0766028,0.261596 -0.0550815,0.266958 -0.0331954,0.270552 -0.0110896,0.272355 0.0133442,0.29871 0.0399262,0.296331 0.0661902,0.29159 0.0919268,0.284527 0.116931,0.275196 0.141004,0.263674 0.163953,0.250051 0.185597,0.234435 -0.151112,0.131016 z "/>
<path fill="rgb(241,240,234)" stroke="rgb(241,240,234)" d="M 5.8234,6.38126 l 0.203135,-0.173638 0.188648,-0.189277 0.172961,-0.203711 0.0410221,-0.0535184 0.0399366,-0.0543332 0.0388349,-0.055126 0.161033,-0.257841 0.136996,-0.271378 0.111831,-0.282679 0.189122,0.06506 -0.113518,0.288394 -0.138239,0.277394 -0.161907,0.264279 -0.184341,0.24915 -0.20537,0.232122 -0.224833,0.213325 -0.242583,0.192902 -0.258483,0.171008 -0.272414,0.147811 -0.284268,0.123487 -0.293955,0.0982226 -0.301402,0.0722091 -0.306552,0.0456452 -0.309365,0.0187333 -0.30982,-0.00832127 -0.307913,-0.0353125 -0.30366,-0.0620345 -0.297092,-0.0882837 -0.288259,-0.11386 -0.27723,-0.138568 -0.264087,-0.162221 -0.248931,-0.184636 -0.231878,-0.205645 -0.213058,-0.225086 0.151112,-0.131016 0.198061,0.209504 0.215341,0.191698 0.231026,0.172473 0.245,0.15197 0.25716,0.130342 0.267414,0.107748 0.275688,0.0843563 0.281921,0.0603397 0.286065,0.0358763 0.28809,0.0111471 0.287982,-0.0136646 0.28574,-0.0383752 0.281382,-0.0628015 0.274941,-0.0867626 0.266462,-0.110081 0.256011,-0.132584 0.243663,-0.154106 0.0549965,-0.0390181 0.0542,-0.0401172 0.0533816,-0.0412 z "/>
<path fill="rgb(187,30,16)" stroke="rgb(187,30,16)" d="M 1.11186,1.68537 l 0.172961,-0.203711 0.188648,-0.189277 0.203135,-0.173638 1.76069,1.75484 -0.684916,0 -0.110413,0 -0.00167941,-0.0333936 -0.00457246,-0.0331217 -0.00743096,-0.0325996 -0.0102333,-0.0318313 -0.0129584,-0.0308226 -0.0155857,-0.0295811 -0.0180952,-0.0281161 -0.020468,-0.0264388 -0.0226863,-0.0245619 -0.0247332,-0.0224994 -0.0265933,-0.020267 -0.0282525,-0.0178815 -0.0296984,-0.015361 -0.0309199,-0.0127244 -0.0319079,-0.00999173 -0.032655,-0.0071836 -0.0331554,-0.00432122 -0.0334054,-0.0014262 -0.033403,0.00147959 -0.0331484,0.00437421 -0.0326435,0.00723579 -0.0318919,0.0100427 -0.0308995,0.0127738 -0.0296738,0.0154084 -0.0282239,0.0179266 -0.0265608,0.0203095 -0.898628,-0.895642 z "/>
<path fill="rgb(187,30,16)" stroke="rgb(187,30,16)" d="M 5.8234,6.38126 l -1.54533,-1.5402 1.13326,0 0.976816,0.973571 -0.172961,0.203711 -0.188648,0.189277 -0.203135,0.173638 z "/>
<path fill="rgb(187,30,16)" stroke="rgb(187,30,16)" d="M 4.80247,4.62938 l 0,-0.395156 0.123959,0.123547 0,0.271594 -0.000104739,0.00207406 7.66305e-05,0.00207529 0.000257416,0.00206069 0.000436237,0.00203037 0.000611731,0.00198456 0.000782559,0.00192361 0.000947418,0.001848 0.00110505,0.00175828 0.00125425,0.00165516 0.00139389,0.0015394 0.00152289,0.00141191 0.00164028,0.00127365 0.00174515,0.00112567 0.00183672,0.000969104 0.00191427,0.000805146 0.00197722,0.000635048 0.00202509,0.000460105 0.00205751,0.000281653 0.277018,0 0.186404,0.185785 -1.13326,0 -0.186415,-0.185796 0.679852,2.51422e-05 0.00273627,-0.000119155 0.00271553,-0.000356765 0.00267419,-0.000591669 0.00261258,-0.000822086 0.00253115,-0.00104627 0.00243052,-0.00126252 0.00231146,-0.00146919 0.00217488,-0.00166472 0.0020218,-0.00184763 0.00185338,-0.00201652 0.00167091,-0.00217012 0.00147577,-0.00230727 0.00126944,-0.00242691 0.00105348,-0.00252815 0.00082953,-0.00261022 0.00059929,-0.0026725 z "/>
<path fill="rgb(187,30,16)" stroke="rgb(187,30,16)" d="M 2.64197,2.87619 l -0.00144236,0.0332831 -0.00431626,0.0330335 -0.0071578,0.0325363 -0.00994567,0.0317951 -0.012659,0.0308155 -0.0152773,0.0296048 -0.0177812,0.0281722 -0.0201517,0.0265283 -0.542753,-0.54095 0.0265608,-0.0203095 0.0282239,-0.0179266 0.0296738,-0.0154084 0.0308995,-0.0127738 0.0318919,-0.0100427 0.0326435,-0.00723579 0.0331484,-0.00437421 0.033403,-0.00147959 0.0334054,0.0014262 0.0331554,0.00432122 0.032655,0.0071836 0.0319079,0.00999173 0.0309199,0.0127244 0.0296984,0.015361 0.0282525,0.0178815 0.0265933,0.020267 0.0247332,0.0224994 0.0226863,0.0245619 0.020468,0.0264388 0.0180952,0.0281161 0.0155857,0.0295811 0.0129584,0.0308226 0.0102333,0.0318313 0.00743096,0.0325996 0.00457246,0.0331217 0.00167941,0.0333936 1.26651e-06,0.000193947 1.16874e-06,0.000193948 1.07096e-06,0.000193948 2.96785e-06,0.000675812 1.78071e-06,0.000675817 5.93571e-07,0.000675819 z "/>
<path fill="rgb(187,30,16)" stroke="rgb(187,30,16)" d="M 3.43729,2.87358 l 0.906668,0.903655 -0.352102,-1.30214e-05 -0.00225186,9.81257e-05 -0.00223476,0.000293798 -0.0022007,0.00048724 -0.00214993,0.000676982 -0.00208283,0.000861583 -0.00199991,0.00103964 -0.0019018,0.0012098 -0.00178926,0.00137078 -0.00166313,0.00152135 -0.00152436,0.00166036 -0.00137403,0.00178677 -0.00121325,0.00189961 -0.00104327,0.00199802 -0.000865361,0.00208126 -0.000680882,0.00214869 -0.000491233,0.00219981 -0.000297853,0.00223423 -0.000102212,0.00225168 0,4.88498e-14 0,0.252695 -0.118898,0 0,-0.252574 -9.9798e-05,-0.00228999 -0.000298637,-0.00227262 -0.000495212,-0.00223803 -0.000688032,-0.00218646 -0.000875635,-0.00211831 -0.0010566,-0.00203411 -0.00122955,-0.00193448 -0.00139318,-0.00182018 -0.00154624,-0.00169208 -0.00168758,-0.00155115 -0.00181613,-0.00139845 -0.0019309,-0.00123516 -0.00203103,-0.0010625 -0.00211576,-0.000881778 -0.00218445,-0.000694373 -0.00223658,-0.000501704 -1.17684e-12,-2.10054e-13 -0.614713,-2.27332e-05 -0.579347,-0.577422 0.0276188,-0.0348102 0.0243734,-0.0371548 0.0209302,-0.0391978 0.0173171,-0.0409226 0.0135634,-0.0423152 0.00969961,-0.0433643 0.00575706,-0.0440613 0.00176777,-0.0444007 0.684916,0 z "/>
<path fill="rgb(187,30,16)" stroke="rgb(187,30,16)" d="M 2.64197,2.87619 l -5.93571e-07,-0.000675819 -1.78071e-06,-0.000675817 -2.96785e-06,-0.000675812 0.11041,-0.000581843 -0.00176777,0.0444007 -0.00575706,0.0440613 -0.00969961,0.0433643 -0.0135634,0.0423152 -0.0173171,0.0409226 -0.0209302,0.0391978 -0.0243734,0.0371548 -0.0276188,0.0348102 -0.0781084,-0.0778489 0.0201517,-0.0265283 0.0177812,-0.0281722 0.0152773,-0.0296048 0.012659,-0.0308155 0.00994567,-0.0317951 0.0071578,-0.0325363 0.00431626,-0.0330335 0.00144236,-0.0332831 z "/>
<path fill="rgb(187,30,16)" stroke="rgb(187,30,16)" d="M 2.75237,2.87358 l -0.110413,0 1.26651e-06,0.000193947 1.16874e-06,0.000193948 1.07096e-06,0.000193948 0.11041,-0.000581843 z "/>
<path fill="rgb(187,30,16)" stroke="rgb(187,30,16)" d="M 4.09165,4.65527 l 0.679852,2.51422e-05 -0.679852,-2.51422e-05 1.05693e-13,1.04805e-13 z "/>
<path fill="rgb(187,30,16)" stroke="rgb(187,30,16)" d="M 2.64197,2.87619 l -0.00144236,0.0332831 -0.00431626,0.0330335 -0.0071578,0.0325363 -0.00994567,0.0317951 -0.012659,0.0308155 -0.0152773,0.0296048 -0.0177812,0.0281722 -0.0201517,0.0265283 -1.11022e-14,-1.11022e-14 0.0201517,-0.0265283 0.0177812,-0.0281722 0.0152773,-0.0296048 0.012659,-0.0308155 0.00994567,-0.0317951 0.0071578,-0.0325363 0.00431626,-0.0330335 0.00144236,-0.0332831 z "/>
<path fill="rgb(187,30,16)" stroke="rgb(187,30,16)" d="M 4.80247,4.62938 l -0.00059929,0.0026725 -0.00082953,0.00261022 -0.00105348,0.00252815 -0.00126944,0.00242691 -0.00147577,0.00230727 -0.00167091,0.00217012 -0.00185338,0.00201652 -0.0020218,0.00184763 -0.00217488,0.00166472 -0.00231146,0.00146919 -0.00243052,0.00126252 -0.00253115,0.00104627 -0.00261258,0.000822086 -0.00267419,0.000591669 -0.00271553,0.000356765 -0.00273627,0.000119155 -0.679852,-2.51422e-05 -0.125665,-0.125247 0,-0.474278 0,-0.252695 0,-4.88498e-14 0.000102212,-0.00225168 0.000297853,-0.00223423 0.000491233,-0.00219981 0.000680882,-0.00214869 0.000865361,-0.00208126 0.00104327,-0.00199802 0.00121325,-0.00189961 0.00137403,-0.00178677 0.00152436,-0.00166036 0.00166313,-0.00152135 0.00178926,-0.00137078 0.0019018,-0.0012098 0.00199991,-0.00103964 0.00208283,-0.000861583 0.00214993,-0.000676982 0.0022007,-0.00048724 0.00223476,-0.000293798 0.00225186,-9.81257e-05 0.352102,1.30214e-05 0.458508,0.456985 0,0.395156 z "/>
<path fill="rgb(187,30,16)" stroke="rgb(187,30,16)" d="M 5.22492,4.65528 l -0.277018,0 -0.00205751,-0.000281653 -0.00202509,-0.000460105 -0.00197722,-0.000635048 -0.00191427,-0.000805146 -0.00183672,-0.000969104 -0.00174515,-0.00112567 -0.00164028,-0.00127365 -0.00152289,-0.00141191 -0.00139389,-0.0015394 -0.00125425,-0.00165516 -0.00110505,-0.00175828 -0.000947418,-0.001848 -0.000782559,-0.00192361 -0.000611731,-0.00198456 -0.000436237,-0.00203037 -0.000257416,-0.00206069 -7.66305e-05,-0.00207529 0.000104739,-0.00207406 0,-0.271594 0.298498,0.297506 z "/>
<path fill="rgb(187,30,16)" stroke="rgb(187,30,16)" d="M 4.34396,3.77724 l -0.352102,-1.30214e-05 0.352102,1.30214e-05 -9.41469e-14,-9.32587e-14 z "/>
<path fill="rgb(187,30,16)" stroke="rgb(187,30,16)" d="M 3.84709,4.41152 l -0.636398,-0.634284 0.614713,2.27332e-05 0.00223658,0.000501704 0.00218445,0.000694373 0.00211576,0.000881778 0.00203103,0.0010625 0.0019309,0.00123516 0.00181613,0.00139845 0.00168758,0.00155115 0.00154624,0.00169208 0.00139318,0.00182018 0.00122955,0.00193448 0.0010566,0.00203411 0.000875635,0.00211831 0.000688032,0.00218646 0.000495212,0.00223803 0.000298637,0.00227262 9.9798e-05,0.00228999 0,0.252574 0,0.355776 z "/>
<path fill="rgb(187,30,16)" stroke="rgb(187,30,16)" d="M 3.84709,4.41152 l 0,-0.355776 0.118898,0 0,0.474278 -0.118898,-0.118503 z "/>
<path fill="rgb(187,30,16)" stroke="rgb(187,30,16)" d="M 3.21069,3.77723 l 4.66294e-14,4.66294e-14 0.614713,2.27332e-05 -1.17684e-12,-2.10054e-13 -0.614713,-2.27332e-05 z "/>
</g></g></svg>
