<?xml version="1.0" encoding="UTF-8" standalone="no"?>
<!DOCTYPE svg PUBLIC "-//W3C//DTD SVG 1.1//EN" "http://www.w3.org/Graphics/SVG/1.1/DTD/svg11-flat.dtd"
[

]>
<svg xmlns="http://www.w3.org/2000/svg"  viewBox="-0.0891147 -0.0891147 7.30741 7.30741"><g fill="none" stroke="black" stroke-width="0.0125" transform="translate(0,7.12918) scale(1, -1)">
<g id="Output" >
<path fill="rgb(241,240,234)" stroke="rgb(241,240,234)" d="M 3.09443,4.1 l 0.470163,0.940325 0.0298374,-0.0596748 0,-0.88065 -0.5,0 z "/>
<path fill="rgb(241,240,234)" stroke="rgb(241,240,234)" d="M 3.59443,2.37781 l -0.853115,0.568744 -0.146885,-0.293769 0,0.447214 1,0 0,-0.722188 z "/>
<path fill="rgb(241,240,234)" stroke="rgb(241,240,234)" d="M 2.59443,3.1 l 0.5,1 0.5,0 0,-1 -1,0 z "/>
<path fill="rgb(241,240,234)" stroke="rgb(241,240,234)" d="M 4.59443,2.1 l 0.440325,0 0.5,-1 -0.940325,-4.44089e-16 0,0.2 0.616718,0 -0.616718,0.411146 0,0.388854 z "/>
<path fill="rgb(241,240,234)" stroke="rgb(241,240,234)" d="M 4.05796,2.84845 l -0.00463676,0.0036549 -0.00431083,0.00403418 -0.00395396,0.00438452 -0.00356873,0.0047034 -0.0031579,0.00498854 -0.0027244,0.00523789 -0.00227137,0.00544965 -0.00180203,0.00562232 -0.00131977,0.00575465 -0.000828038,0.0058457 -0.000330366,0.0058948 0.000169677,0.00590161 0.000668502,0.00586608 0.0015936,0.0126389 0.00270965,0.0124474 0.00380429,0.0121576 0.00486887,0.0117718 0.00589498,0.0112929 0.00687451,0.0107248 0.00759775,0.0102252 0.00847574,0.00951014 0.00928677,0.00871992 0.0100244,0.0078608 0.0106829,0.00693957 0.0112569,0.00596351 0.00524983,0.00270131 0.0054596,0.00224734 0.0056302,0.00177725 0.00576041,0.00129441 0.00584929,0.000802284 0.0058962,0.0003044 0.00590081,-0.000195668 0.00586308,-0.000694332 0.00578329,-0.00118801 0.00566201,-0.00167317 0.0055001,-0.00214633 0.00529873,-0.00260408 0.00505935,-0.00304316 0.00463676,-0.0036549 0.00431083,-0.00403418 0.00395396,-0.00438452 0.00356873,-0.0047034 0.0031579,-0.00498854 0.0027244,-0.00523789 0.00227137,-0.00544965 0.00180203,-0.00562232 0.00131977,-0.00575465 0.000828038,-0.0058457 0.000330366,-0.0058948 -0.000169677,-0.00590161 -0.000668502,-0.00586608 -0.0015936,-0.0126389 -0.00270965,-0.0124474 -0.00380429,-0.0121576 -0.00486887,-0.0117718 -0.00589498,-0.0112929 -0.00687451,-0.0107248 -0.00759775,-0.0102252 -0.00847574,-0.00951014 -0.00928677,-0.00871992 -0.0100244,-0.0078608 -0.0106829,-0.00693957 -0.0112569,-0.00596351 -0.00524983,-0.00270131 -0.0054596,-0.00224734 -0.0056302,-0.00177725 -0.00576041,-0.00129441 -0.00584929,-0.000802284 -0.0058962,-0.0003044 -0.00590081,0.000195668 -0.00586308,0.000694332 -0.00578329,0.00118801 -0.00566201,0.00167317 -0.0055001,0.00214633 -0.00529873,0.00260408 -0.00505935,0.00304316 z "/>
<path fill="rgb(241,240,234)" stroke="rgb(241,240,234)" d="M 4.59443,1.1 l -1,0 0,0.2 1,0 0,-0.2 z M 4.59443,1.71115 l -0.583282,0.388854 0.583282,0 0,-0.388854 z "/>
<path fill="rgb(241,240,234)" stroke="rgb(241,240,234)" d="M 2.09443,2.1 l 0.5,1 0,-0.447214 -0.276393,-0.552786 -0.223607,0 z "/>
<path fill="rgb(241,240,234)" stroke="rgb(241,240,234)" d="M 4.59443,2.1 l 0,0.88065 0.440325,-0.88065 -0.440325,0 z "/>
<path fill="rgb(241,240,234)" stroke="rgb(241,240,234)" d="M 2.31803,2.1 l -0.4,-0.8 0.676393,0 0,-0.2 -1,4.44089e-16 0.5,1 0.223607,0 z "/>
<path fill="rgb(241,240,234)" stroke="rgb(241,240,234)" d="M 3.59443,1.1 l -0.0298374,0 -0.970163,0 0,0.2 1,0 0,-0.2 z "/>
<path fill="rgb(241,240,234)" stroke="rgb(241,240,234)" d="M 4.57659,2.84755 l -0.0616512,0.0411365 -0.839847,-0.407447 0.0616612,-0.0411074 0.839837,0.407418 z M 4.04172,2.2542 l 0.00985605,-0.00607124 0.0103306,-0.00522305 0.0107323,-0.00433804 0.0110584,-0.00342246 0.0113065,-0.00248275 0.0114749,-0.00152553 0.0115625,-0.000557564 0.0115685,0.000414335 0.011493,0.00138331 0.0113364,0.00234254 0.0110999,0.00328525 0.0107852,0.00420481 0.0103945,0.00509472 0.0160772,0.0087239 0.0152633,0.0100805 0.0143351,0.0113617 0.0132997,0.0125579 0.0121648,0.0136602 0.0109389,0.0146603 0.00984004,0.0154194 0.00847083,0.016212 0.00703825,0.0168833 0.00555302,0.0174284 0.00402625,0.017843 0.00246936,0.0181242 0.00108626,0.0115248 0.000115651,0.0115753 -0.000855768,0.0115442 -0.00182116,0.0114318 -0.0027737,0.0112387 -0.0037067,0.0109664 -0.00461357,0.0106168 -0.00548791,0.0101924 -0.00632357,0.00969609 -0.00711465,0.00913145 -0.00785558,0.00850244 -0.00854113,0.0078135 -0.00916647,0.00706948 -0.00985605,0.00607124 -0.0103306,0.00522305 -0.0107323,0.00433804 -0.0110584,0.00342246 -0.0113065,0.00248275 -0.0114749,0.00152553 -0.0115625,0.000557564 -0.0115685,-0.000414335 -0.011493,-0.00138331 -0.0113364,-0.00234254 -0.0110999,-0.00328525 -0.0107852,-0.00420481 -0.0103945,-0.00509472 -0.0160772,-0.0087239 -0.0152633,-0.0100805 -0.0143351,-0.0113617 -0.0132997,-0.0125579 -0.0121648,-0.0136602 -0.0109389,-0.0146603 -0.00984004,-0.0154194 -0.00847083,-0.016212 -0.00703825,-0.0168833 -0.00555302,-0.0174284 -0.00402625,-0.017843 -0.00246936,-0.0181242 -0.00108626,-0.0115248 -0.000115651,-0.0115753 0.000855768,-0.0115442 0.00182116,-0.0114318 0.0027737,-0.0112387 0.0037067,-0.0109664 0.00461357,-0.0106168 0.00548791,-0.0101924 0.00632357,-0.00969609 0.00711465,-0.00913145 0.00785558,-0.00850244 0.00854113,-0.0078135 0.00916647,-0.00706948 z M 4.08854,3.1 l -0.00691652,-0.00339004 -0.0160772,-0.0087239 -0.0152633,-0.0100805 -0.0143351,-0.0113617 -0.0132997,-0.0125579 -0.0121648,-0.0136602 -0.0109389,-0.0146603 -0.00984004,-0.0154194 -0.00847083,-0.016212 -0.00703825,-0.0168833 -0.00555302,-0.0174284 -0.00402625,-0.017843 -0.00246936,-0.0181242 -0.00108626,-0.0115248 -0.000115651,-0.0115753 0.000855768,-0.0115442 0.00182116,-0.0114318 0.0027737,-0.0112387 0.0037067,-0.0109664 0.00461357,-0.0106168 0.00548791,-0.0101924 0.00632357,-0.00969609 0.00711465,-0.00913145 0.00785558,-0.00850244 0.00854113,-0.0078135 0.00916647,-0.00706948 0.00985605,-0.00607124 0.0103306,-0.00522305 0.0107323,-0.00433804 0.0110584,-0.00342246 0.0113065,-0.00248275 0.0114749,-0.00152553 0.0115625,-0.000557564 0.0115685,0.000414335 0.011493,0.00138331 0.0113364,0.00234254 0.0110999,0.00328525 0.0107852,0.00420481 0.0103945,0.00509472 0.0160772,0.0087239 0.0152633,0.0100805 0.0143351,0.0113617 0.0132997,0.0125579 0.0121648,0.0136602 0.0109389,0.0146603 0.00984004,0.0154194 0.00847083,0.016212 0.00703825,0.0168833 0.00555302,0.0174284 0.00402625,0.017843 0.00246936,0.0181242 0.00108626,0.0115248 0.000115651,0.0115753 -0.000855768,0.0115442 -0.00182116,0.0114318 -0.0027737,0.0112387 -0.0037067,0.0109664 -0.00461357,0.0106168 -0.00548791,0.0101924 -0.00632357,0.00969609 -0.00711465,0.00913145 -0.00785558,0.00850244 -0.00854113,0.0078135 -0.00916647,0.00706948 -0.00985605,0.00607124 -0.00833574,0.00421447 0.32832,0 0.0596748,-0.11935 0,-0.88065 -0.583282,0 -0.416718,0.277812 0,0.722188 0.494115,0 z "/>
<path fill="rgb(241,240,234)" stroke="rgb(241,240,234)" d="M 4.08854,3.1 l -0.494115,0 0,1 0.440325,0 0.5,-1 -0.32832,0 -0.00199486,0.00100858 -0.0107323,0.00433804 -0.0110584,0.00342246 -0.0113065,0.00248275 -0.0114749,0.00152553 -0.0115625,0.000557564 -0.0115685,-0.000414335 -0.011493,-0.00138331 -0.0113364,-0.00234254 -0.0110999,-0.00328525 -0.0107852,-0.00420481 -0.00347798,-0.00170468 z "/>
<path fill="rgb(241,240,234)" stroke="rgb(241,240,234)" d="M 4.05241,2.37763 l 0.0015936,0.0126389 0.00270965,0.0124474 0.00380429,0.0121576 0.00486887,0.0117718 0.00589498,0.0112929 0.00687451,0.0107248 0.00759775,0.0102252 0.00847574,0.00951014 0.00928677,0.00871992 0.0100244,0.0078608 0.0106829,0.00693957 0.0112569,0.00596351 0.00524983,0.00270131 0.0054596,0.00224734 0.0056302,0.00177725 0.00576041,0.00129441 0.00584929,0.000802284 0.0058962,0.0003044 0.00590081,-0.000195668 0.00586308,-0.000694332 0.00578329,-0.00118801 0.00566201,-0.00167317 0.0055001,-0.00214633 0.00529873,-0.00260408 0.00505935,-0.00304316 0.00463676,-0.0036549 0.00431083,-0.00403418 0.00395396,-0.00438452 0.00356873,-0.0047034 0.0031579,-0.00498854 0.0027244,-0.00523789 0.00227137,-0.00544965 0.00180203,-0.00562232 0.00131977,-0.00575465 0.000828038,-0.0058457 0.000330366,-0.0058948 -0.000169677,-0.00590161 -0.000668502,-0.00586608 -0.0015936,-0.0126389 -0.00270965,-0.0124474 -0.00380429,-0.0121576 -0.00486887,-0.0117718 -0.00589498,-0.0112929 -0.00687451,-0.0107248 -0.00759775,-0.0102252 -0.00847574,-0.00951014 -0.00928677,-0.00871992 -0.0100244,-0.0078608 -0.0106829,-0.00693957 -0.0112569,-0.00596351 -0.00524983,-0.00270131 -0.0054596,-0.00224734 -0.0056302,-0.00177725 -0.00576041,-0.00129441 -0.00584929,-0.000802284 -0.0058962,-0.0003044 -0.00590081,0.000195668 -0.00586308,0.000694332 -0.00578329,0.00118801 -0.00566201,0.00167317 -0.0055001,0.00214633 -0.00529873,0.00260408 -0.00505935,0.00304316 -0.00463676,0.0036549 -0.00431083,0.00403418 -0.00395396,0.00438452 -0.00356873,0.0047034 -0.0031579,0.00498854 -0.0027244,0.00523789 -0.00227137,0.00544965 -0.00180203,0.00562232 -0.00131977,0.00575465 -0.000828038,0.0058457 -0.000330366,0.0058948 0.000169677,0.00590161 0.000668502,0.00586608 z "/>
<path fill="rgb(241,240,234)" stroke="rgb(241,240,234)" d="M 3.59443,4.1 l 0,0.88065 0.440325,-0.88065 -0.440325,0 z "/>
<path fill="rgb(241,240,234)" stroke="rgb(241,240,234)" d="M 3.56459,0.2 l 3.26459,0 0.00883388,0.000390951 0.00876481,0.0011698 0.0086272,0.0019395 0.00842214,0.00269403 0.00815123,0.0034275 0.00781658,0.00413417 0.00742081,0.00480851 0.00696702,0.00544526 0.00645876,0.00603943 0.00589999,0.00658638 0.00529509,0.00708183 0.00464879,0.0075219 0.00396614,0.00790316 0.00325248,0.00822263 0.00251339,0.0084778 0.00175464,0.00866669 0.000982177,0.00878781 0.000202033,0.00884022 -0.000579691,0.0088235 -0.00135688,0.0087378 -0.00212346,0.00858377 -0.00287344,0.00836263 -0.00360095,0.0080761 -3.26459,6.52918 -0.00412828,0.00744612 -0.0047467,0.00706797 -0.00533072,0.00663859 -0.00587609,0.00616109 -0.00637887,0.00563892 -0.00683541,0.00507588 -0.0072424,0.00447605 -0.0075969,0.00384377 -0.00789632,0.00318363 -0.00813851,0.00250041 -0.00832171,0.00179907 -0.00844458,0.00108468 -0.00850624,0.000362437 0,-0.323607 3.10279,-6.20557 -3.10279,2.66454e-15 0,-0.2 z "/>
<path fill="rgb(241,240,234)" stroke="rgb(241,240,234)" d="M 3.56459,0.2 l 0,0.2 -3.10279,0 3.10279,6.20557 0,0.323607 -0.00850624,-0.000362437 -0.00844458,-0.00108468 -0.00832171,-0.00179907 -0.00813851,-0.00250041 -0.00789632,-0.00318363 -0.0075969,-0.00384377 -0.0072424,-0.00447605 -0.00683541,-0.00507588 -0.00637887,-0.00563892 -0.00587609,-0.00616109 -0.00533072,-0.00663859 -0.0047467,-0.00706797 -0.00412828,-0.00744612 -3.26459,-6.52918 -0.00360095,-0.0080761 -0.00287344,-0.00836263 -0.00212346,-0.00858377 -0.00135688,-0.0087378 -0.000579691,-0.0088235 0.000202033,-0.00884022 0.000982177,-0.00878781 0.00175464,-0.00866669 0.00251339,-0.0084778 0.00325248,-0.00822263 0.00396614,-0.00790316 0.00464879,-0.0075219 0.00529509,-0.00708183 0.00589999,-0.00658638 0.00645876,-0.00603943 0.00696702,-0.00544526 0.00742081,-0.00480851 0.00781658,-0.00413417 0.00815123,-0.0034275 0.00842214,-0.00269403 0.0086272,-0.0019395 0.00876481,-0.0011698 0.00883388,-0.000390951 3.26459,-8.88178e-16 z "/>
<path fill="rgb(42,41,42)" stroke="rgb(42,41,42)" d="M 2.74131,2.94656 l 2.46983,-1.64656 -3.29311,0 0.823278,1.64656 z "/>
<path fill="rgb(42,41,42)" stroke="rgb(42,41,42)" d="M 4.05796,2.84845 l 0.00505935,-0.00304316 0.00529873,-0.00260408 0.0055001,-0.00214633 0.00566201,-0.00167317 0.00578329,-0.00118801 0.00586308,-0.000694332 0.00590081,-0.000195668 0.0058962,0.0003044 0.00584929,0.000802284 0.00576041,0.00129441 0.0056302,0.00177725 0.0054596,0.00224734 0.00524983,0.00270131 0.0112569,0.00596351 0.0106829,0.00693957 0.0100244,0.0078608 0.00928677,0.00871992 0.00847574,0.00951014 0.00759775,0.0102252 0.00687451,0.0107248 0.00589498,0.0112929 0.00486887,0.0117718 0.00380429,0.0121576 0.00270965,0.0124474 0.0015936,0.0126389 0.000668502,0.00586608 0.000169677,0.00590161 -0.000330366,0.0058948 -0.000828038,0.0058457 -0.00131977,0.00575465 -0.00180203,0.00562232 -0.00227137,0.00544965 -0.0027244,0.00523789 -0.0031579,0.00498854 -0.00356873,0.0047034 -0.00395396,0.00438452 -0.00431083,0.00403418 -0.00463676,0.0036549 -0.00505935,0.00304316 -0.00529873,0.00260408 -0.0055001,0.00214633 -0.00566201,0.00167317 -0.00578329,0.00118801 -0.00586308,0.000694332 -0.00590081,0.000195668 -0.0058962,-0.0003044 -0.00584929,-0.000802284 -0.00576041,-0.00129441 -0.0056302,-0.00177725 -0.0054596,-0.00224734 -0.00524983,-0.00270131 -0.0112569,-0.00596351 -0.0106829,-0.00693957 -0.0100244,-0.0078608 -0.00928677,-0.00871992 -0.00847574,-0.00951014 -0.00759775,-0.0102252 -0.00687451,-0.0107248 -0.00589498,-0.0112929 -0.00486887,-0.0117718 -0.00380429,-0.0121576 -0.00270965,-0.0124474 -0.0015936,-0.0126389 -0.000668502,-0.00586608 -0.000169677,-0.00590161 0.000330366,-0.0058948 0.000828038,-0.0058457 0.00131977,-0.00575465 0.00180203,-0.00562232 0.00227137,-0.00544965 0.0027244,-0.00523789 0.0031579,-0.00498854 0.00356873,-0.0047034 0.00395396,-0.00438452 0.00431083,-0.00403418 0.00463676,-0.0036549 z M 4.16221,2.78546 l -0.0103945,-0.00509472 -0.0107852,-0.00420481 -0.0110999,-0.00328525 -0.0113364,-0.00234254 -0.011493,-0.00138331 -0.0115685,-0.000414335 -0.0115625,0.000557564 -0.0114749,0.00152553 -0.0113065,0.00248275 -0.0110584,0.00342246 -0.0107323,0.00433804 -0.0103306,0.00522305 -0.00985605,0.00607124 -0.00916647,0.00706948 -0.00854113,0.0078135 -0.00785558,0.00850244 -0.00711465,0.00913145 -0.00632357,0.00969609 -0.00548791,0.0101924 -0.00461357,0.0106168 -0.0037067,0.0109664 -0.0027737,0.0112387 -0.00182116,0.0114318 -0.000855768,0.0115442 0.000115651,0.0115753 0.00108626,0.0115248 0.00246936,0.0181242 0.00402625,0.017843 0.00555302,0.0174284 0.00703825,0.0168833 0.00847083,0.016212 0.00984004,0.0154194 0.0109389,0.0146603 0.0121648,0.0136602 0.0132997,0.0125579 0.0143351,0.0113617 0.0152633,0.0100805 0.0160772,0.0087239 0.0103945,0.00509472 0.0107852,0.00420481 0.0110999,0.00328525 0.0113364,0.00234254 0.011493,0.00138331 0.0115685,0.000414335 0.0115625,-0.000557564 0.0114749,-0.00152553 0.0113065,-0.00248275 0.0110584,-0.00342246 0.0107323,-0.00433804 0.0103306,-0.00522305 0.00985605,-0.00607124 0.00916647,-0.00706948 0.00854113,-0.0078135 0.00785558,-0.00850244 0.00711465,-0.00913145 0.00632357,-0.00969609 0.00548791,-0.0101924 0.00461357,-0.0106168 0.0037067,-0.0109664 0.0027737,-0.0112387 0.00182116,-0.0114318 0.000855768,-0.0115442 -0.000115651,-0.0115753 -0.00108626,-0.0115248 -0.00246936,-0.0181242 -0.00402625,-0.017843 -0.00555302,-0.0174284 -0.00703825,-0.0168833 -0.00847083,-0.016212 -0.00984004,-0.0154194 -0.0109389,-0.0146603 -0.0121648,-0.0136602 -0.0132997,-0.0125579 -0.0143351,-0.0113617 -0.0152633,-0.0100805 -0.0160772,-0.0087239 z "/>
<path fill="rgb(42,41,42)" stroke="rgb(42,41,42)" d="M 4.05241,2.37763 l -0.000668502,-0.00586608 -0.000169677,-0.00590161 0.000330366,-0.0058948 0.000828038,-0.0058457 0.00131977,-0.00575465 0.00180203,-0.00562232 0.00227137,-0.00544965 0.0027244,-0.00523789 0.0031579,-0.00498854 0.00356873,-0.0047034 0.00395396,-0.00438452 0.00431083,-0.00403418 0.00463676,-0.0036549 0.00505935,-0.00304316 0.00529873,-0.00260408 0.0055001,-0.00214633 0.00566201,-0.00167317 0.00578329,-0.00118801 0.00586308,-0.000694332 0.00590081,-0.000195668 0.0058962,0.0003044 0.00584929,0.000802284 0.00576041,0.00129441 0.0056302,0.00177725 0.0054596,0.00224734 0.00524983,0.00270131 0.0112569,0.00596351 0.0106829,0.00693957 0.0100244,0.0078608 0.00928677,0.00871992 0.00847574,0.00951014 0.00759775,0.0102252 0.00687451,0.0107248 0.00589498,0.0112929 0.00486887,0.0117718 0.00380429,0.0121576 0.00270965,0.0124474 0.0015936,0.0126389 0.000668502,0.00586608 0.000169677,0.00590161 -0.000330366,0.0058948 -0.000828038,0.0058457 -0.00131977,0.00575465 -0.00180203,0.00562232 -0.00227137,0.00544965 -0.0027244,0.00523789 -0.0031579,0.00498854 -0.00356873,0.0047034 -0.00395396,0.00438452 -0.00431083,0.00403418 -0.00463676,0.0036549 -0.00505935,0.00304316 -0.00529873,0.00260408 -0.0055001,0.00214633 -0.00566201,0.00167317 -0.00578329,0.00118801 -0.00586308,0.000694332 -0.00590081,0.000195668 -0.0058962,-0.0003044 -0.00584929,-0.000802284 -0.00576041,-0.00129441 -0.0056302,-0.00177725 -0.0054596,-0.00224734 -0.00524983,-0.00270131 -0.0112569,-0.00596351 -0.0106829,-0.00693957 -0.0100244,-0.0078608 -0.00928677,-0.00871992 -0.00847574,-0.00951014 -0.00759775,-0.0102252 -0.00687451,-0.0107248 -0.00589498,-0.0112929 -0.00486887,-0.0117718 -0.00380429,-0.0121576 -0.00270965,-0.0124474 -0.0015936,-0.0126389 z M 4.04172,2.2542 l -0.00916647,0.00706948 -0.00854113,0.0078135 -0.00785558,0.00850244 -0.00711465,0.00913145 -0.00632357,0.00969609 -0.00548791,0.0101924 -0.00461357,0.0106168 -0.0037067,0.0109664 -0.0027737,0.0112387 -0.00182116,0.0114318 -0.000855768,0.0115442 0.000115651,0.0115753 0.00108626,0.0115248 0.00246936,0.0181242 0.00402625,0.017843 0.00555302,0.0174284 0.00703825,0.0168833 0.00847083,0.016212 0.00984004,0.0154194 0.0109389,0.0146603 0.0121648,0.0136602 0.0132997,0.0125579 0.0143351,0.0113617 0.0152633,0.0100805 0.0160772,0.0087239 0.0103945,0.00509472 0.0107852,0.00420481 0.0110999,0.00328525 0.0113364,0.00234254 0.011493,0.00138331 0.0115685,0.000414335 0.0115625,-0.000557564 0.0114749,-0.00152553 0.0113065,-0.00248275 0.0110584,-0.00342246 0.0107323,-0.00433804 0.0103306,-0.00522305 0.00985605,-0.00607124 0.00916647,-0.00706948 0.00854113,-0.0078135 0.00785558,-0.00850244 0.00711465,-0.00913145 0.00632357,-0.00969609 0.00548791,-0.0101924 0.00461357,-0.0106168 0.0037067,-0.0109664 0.0027737,-0.0112387 0.00182116,-0.0114318 0.000855768,-0.0115442 -0.000115651,-0.0115753 -0.00108626,-0.0115248 -0.00246936,-0.0181242 -0.00402625,-0.017843 -0.00555302,-0.0174284 -0.00703825,-0.0168833 -0.00847083,-0.016212 -0.00984004,-0.0154194 -0.0109389,-0.0146603 -0.0121648,-0.0136602 -0.0132997,-0.0125579 -0.0143351,-0.0113617 -0.0152633,-0.0100805 -0.0160772,-0.0087239 -0.0103945,-0.00509472 -0.0107852,-0.00420481 -0.0110999,-0.00328525 -0.0113364,-0.00234254 -0.011493,-0.00138331 -0.0115685,-0.000414335 -0.0115625,0.000557564 -0.0114749,0.00152553 -0.0113065,0.00248275 -0.0110584,0.00342246 -0.0107323,0.00433804 -0.0103306,0.00522305 -0.00985605,0.00607124 z "/>
<path fill="rgb(42,41,42)" stroke="rgb(42,41,42)" d="M 4.57659,2.84755 l -0.839837,-0.407418 -0.0616612,0.0411074 0.839847,0.407447 0.0616512,-0.0411365 z "/>
<path fill="rgb(187,30,16)" stroke="rgb(187,30,16)" d="M 3.56459,5.04033 l 1.97016,-3.94033 -1.97016,-4.44089e-16 0,-0.7 3.10279,-2.66454e-15 -3.10279,6.20557 0,-1.56525 z "/>
<path fill="rgb(187,30,16)" stroke="rgb(187,30,16)" d="M 3.56459,0.2 l 0,-0.2 3.26459,-1.77636e-15 0.0265016,0.00117285 0.0262944,0.00350939 0.0258816,0.00581849 0.0252664,0.00808209 0.0244537,0.0102825 0.0234497,0.0124025 0.0222624,0.0144255 0.0209011,0.0163358 0.0193763,0.0181183 0.0177,0.0197591 0.0158853,0.0212455 0.0139464,0.0225657 0.0118984,0.0237095 0.00975744,0.0246679 0.00754016,0.0254334 0.00526392,0.0260001 0.00294653,0.0263634 0.000606098,0.0265207 -0.00173907,0.0264705 -0.00407065,0.0262134 -0.00637039,0.0257513 -0.00862033,0.0250879 -0.0108029,0.0242283 -3.26459,6.52918 -0.0123848,0.0223384 -0.0142401,0.0212039 -0.0159921,0.0199158 -0.0176283,0.0184833 -0.0191366,0.0169168 -0.0205062,0.0152277 -0.0217272,0.0134282 -0.0227907,0.0115313 -0.023689,0.00955089 -0.0244155,0.00750124 -0.0249651,0.00539721 -0.0253337,0.00325405 -0.0255187,0.00108731 0,-0.2 0.00850624,-0.000362437 0.00844458,-0.00108468 0.00832171,-0.00179907 0.00813851,-0.00250041 0.00789632,-0.00318363 0.0075969,-0.00384377 0.0072424,-0.00447605 0.00683541,-0.00507588 0.00637887,-0.00563892 0.00587609,-0.00616109 0.00533072,-0.00663859 0.0047467,-0.00706797 0.00412828,-0.00744612 3.26459,-6.52918 0.00360095,-0.0080761 0.00287344,-0.00836263 0.00212346,-0.00858377 0.00135688,-0.0087378 0.000579691,-0.0088235 -0.000202033,-0.00884022 -0.000982177,-0.00878781 -0.00175464,-0.00866669 -0.00251339,-0.0084778 -0.00325248,-0.00822263 -0.00396614,-0.00790316 -0.00464879,-0.0075219 -0.00529509,-0.00708183 -0.00589999,-0.00658638 -0.00645876,-0.00603943 -0.00696702,-0.00544526 -0.00742081,-0.00480851 -0.00781658,-0.00413417 -0.00815123,-0.0034275 -0.00842214,-0.00269403 -0.0086272,-0.0019395 -0.00876481,-0.0011698 -0.00883388,-0.000390951 -3.26459,0 z "/>
<path fill="rgb(187,30,16)" stroke="rgb(187,30,16)" d="M 3.56459,0.2 l -3.26459,8.88178e-16 -0.00883388,0.000390951 -0.00876481,0.0011698 -0.0086272,0.0019395 -0.00842214,0.00269403 -0.00815123,0.0034275 -0.00781658,0.00413417 -0.00742081,0.00480851 -0.00696702,0.00544526 -0.00645876,0.00603943 -0.00589999,0.00658638 -0.00529509,0.00708183 -0.00464879,0.0075219 -0.00396614,0.00790316 -0.00325248,0.00822263 -0.00251339,0.0084778 -0.00175464,0.00866669 -0.000982177,0.00878781 -0.000202033,0.00884022 0.000579691,0.0088235 0.00135688,0.0087378 0.00212346,0.00858377 0.00287344,0.00836263 0.00360095,0.0080761 3.26459,6.52918 0.00412828,0.00744612 0.0047467,0.00706797 0.00533072,0.00663859 0.00587609,0.00616109 0.00637887,0.00563892 0.00683541,0.00507588 0.0072424,0.00447605 0.0075969,0.00384377 0.00789632,0.00318363 0.00813851,0.00250041 0.00832171,0.00179907 0.00844458,0.00108468 0.00850624,0.000362437 0,0.2 -0.0255187,-0.00108731 -0.0253337,-0.00325405 -0.0249651,-0.00539721 -0.0244155,-0.00750124 -0.023689,-0.00955089 -0.0227907,-0.0115313 -0.0217272,-0.0134282 -0.0205062,-0.0152277 -0.0191366,-0.0169168 -0.0176283,-0.0184833 -0.0159921,-0.0199158 -0.0142401,-0.0212039 -0.0123848,-0.0223384 -3.26459,-6.52918 -0.0108029,-0.0242283 -0.00862033,-0.0250879 -0.00637039,-0.0257513 -0.00407065,-0.0262134 -0.00173907,-0.0264705 0.000606098,-0.0265207 0.00294653,-0.0263634 0.00526392,-0.0260001 0.00754016,-0.0254334 0.00975744,-0.0246679 0.0118984,-0.0237095 0.0139464,-0.0225657 0.0158853,-0.0212455 0.0177,-0.0197591 0.0193763,-0.0181183 0.0209011,-0.0163358 0.0222624,-0.0144255 0.0234497,-0.0124025 0.0244537,-0.0102825 0.0252664,-0.00808209 0.0258816,-0.00581849 0.0262944,-0.00350939 0.0265016,-0.00117285 3.26459,0 0,0.2 z "/>
<path fill="rgb(187,30,16)" stroke="rgb(187,30,16)" d="M 3.56459,5.04033 l 0,1.56525 -3.10279,-6.20557 3.10279,0 0,0.7 -1.97016,4.44089e-16 1.97016,3.94033 z "/>
</g></g></svg>
