<?xml version="1.0" encoding="UTF-8" standalone="no"?>
<!DOCTYPE svg PUBLIC "-//W3C//DTD SVG 1.1//EN" "http://www.w3.org/Graphics/SVG/1.1/DTD/svg11-flat.dtd"
[

]>
<svg xmlns="http://www.w3.org/2000/svg"  viewBox="-0.0891147 -0.0891147 7.30741 7.30741"><g fill="none" stroke="black" stroke-width="0.0125" transform="translate(0,7.12918) scale(1, -1)">
<g id="Output" >
<path fill="rgb(241,240,234)" stroke="rgb(241,240,234)" d="M 4.81831,2.1 l 0.413442,-0.8 -0.394784,0 -0.242537,0.628838 0,-0.828838 0.940325,4.44089e-16 -0.5,1 -0.216446,0 z "/>
<path fill="rgb(241,240,234)" stroke="rgb(241,240,234)" d="M 4.81831,2.1 l 0.216446,0 -0.440325,0.88065 0,-0.855934 0.211105,0 0.0127738,-0.0247169 z "/>
<path fill="rgb(241,240,234)" stroke="rgb(241,240,234)" d="M 3.59443,4.1 l 0.440325,0 -0.440325,0.88065 0,-0.88065 z "/>
<path fill="rgb(241,240,234)" stroke="rgb(241,240,234)" d="M 3.87036,3.1 l -0.00275108,0.0154615 -0.0880139,0.0704152 0,-0.0858767 0.090765,0 z M 4.53475,3.1 l -0.5,1 -0.440325,0 0,-0.231263 0.00902507,-0.00200081 0.0137033,-0.00432064 0.0132746,-0.00549852 0.0127449,-0.00663456 0.0121181,-0.0077201 0.0113992,-0.00874689 0.0105934,-0.0097071 0.0097071,-0.0105934 0.00874689,-0.0113992 0.0077201,-0.0121181 0.00663456,-0.0127449 0.00549852,-0.0132746 0.00432064,-0.0137033 0.00310988,-0.0140277 0.00187544,-0.0142454 0.000626738,-0.0143547 -0.000626738,-0.0143547 -0.00187544,-0.0142454 -0.00310988,-0.0140277 -0.00432064,-0.0137033 -0.00549852,-0.0132746 -0.00663456,-0.0127449 -0.0077201,-0.0121181 -0.00874689,-0.0113992 -0.0097071,-0.0105934 -0.0105934,-0.0097071 -0.0113992,-0.00874689 -0.0121181,-0.0077201 -0.0127449,-0.00663456 -0.0132746,-0.00549852 -0.0137033,-0.00432064 -0.00902507,-0.00200081 0,-0.0408122 6.65718e-05,-2.34139e-06 0.0177247,-0.00218898 0.0174648,-0.00373339 0.0170705,-0.00524909 0.0165451,-0.00672442 0.0158923,-0.00814804 0.0151174,-0.00950901 0.0142262,-0.0107968 0.0132256,-0.0120017 0.261504,-0.291698 0.0033248,-0.0556929 0.548163,0 z "/>
<path fill="rgb(241,240,234)" stroke="rgb(241,240,234)" d="M 4.53475,3.1 l -0.548163,0 0.0167909,-0.281261 -0.0829799,0 -0.050045,0.281261 -0.090765,0 0,-0.256111 0.105613,-0.490328 0.112292,-0.253561 0.0518398,0 -0.0107369,0.0247169 0.228824,0 0.0068953,-0.0247169 0.254094,0 -0.00953309,0.0247169 0.0755487,0 0,0.855934 -0.0596748,0.11935 z M 3.82128,2.1 l -0.0894741,0.140398 -0.125728,0.336953 -0.0116525,-0.0255732 0,-0.427061 0.1047,0 0.00192146,-0.0247169 0.120233,0 z "/>
<path fill="rgb(241,240,234)" stroke="rgb(241,240,234)" d="M 4.04933,2.1 l -0.0518398,0 0.121566,-0.274502 -0.0779663,-0.0704152 -0.219813,0.344917 -0.120233,0 0.062191,-0.8 -0.168813,0 0,-0.2 1,0 0,0.828838 -0.0660156,0.171162 -0.254094,0 0.223177,-0.8 -0.397301,0 -0.0590989,0.394736 0.130762,0.123211 -0.122522,0.282053 z "/>
<path fill="rgb(241,240,234)" stroke="rgb(241,240,234)" d="M 3.09443,4.1 l 0.5,0 0,0.88065 -0.0298374,0.0596748 -0.470163,-0.940325 z "/>
<path fill="rgb(241,240,234)" stroke="rgb(241,240,234)" d="M 3.59443,3.86874 l 0,0.231263 -0.5,0 -0.5,-1 0.501988,0 0.336164,0.344874 0.0130147,0.0122301 0.0140361,0.0110428 0.0149496,0.00977071 0.0157481,0.00842344 0.0164255,0.0070114 0.0169766,0.00554543 0.0173971,0.00403683 0.0176839,0.00249718 0.0178347,0.000938326 0.0177817,-0.000625401 0,0.0408122 -0.00500267,-0.00110907 -0.0142454,-0.00187544 -0.0143547,-0.000626738 -0.0143547,0.000626738 -0.0142454,0.00187544 -0.0140277,0.00310988 -0.0137033,0.00432064 -0.0132746,0.00549852 -0.0127449,0.00663456 -0.0121181,0.0077201 -0.0113992,0.00874689 -0.0105934,0.0097071 -0.0097071,0.0105934 -0.00874689,0.0113992 -0.0077201,0.0121181 -0.00663456,0.0127449 -0.00549852,0.0132746 -0.00432064,0.0137033 -0.00310988,0.0140277 -0.00187544,0.0142454 -0.000626738,0.0143547 0.000626738,0.0143547 0.00187544,0.0142454 0.00310988,0.0140277 0.00432064,0.0137033 0.00549852,0.0132746 0.00663456,0.0127449 0.0077201,0.0121181 0.00874689,0.0113992 0.0097071,0.0105934 0.0105934,0.0097071 0.0113992,0.00874689 0.0121181,0.0077201 0.0127449,0.00663456 0.0132746,0.00549852 0.0137033,0.00432064 0.0140277,0.00310988 0.0142454,0.00187544 0.0143547,0.000626738 0.0143547,-0.000626738 0.0142454,-0.00187544 0.00500267,-0.00110907 z M 3.40319,3.1 l -0.0158754,0.0959346 -0.120928,-0.0959346 0.136803,0 z "/>
<path fill="rgb(241,240,234)" stroke="rgb(241,240,234)" d="M 3.38857,2.1 l 0.048886,0 0.0102112,0.0247169 0.146756,0 0,0.427061 -0.205853,-0.451778 z M 2.59598,2.1 l 0.268648,0 0.00719704,0.0247169 0.274089,0 -0.00350407,-0.0247169 0.0843217,0 0.218421,0.746406 -0.041965,0.253594 -0.136803,0 -0.256257,-0.203294 -0.0628641,0.050279 0.149151,0.153015 -0.501988,0 0,-0.975283 0.0108602,0 -0.00930709,-0.0247169 z "/>
<path fill="rgb(241,240,234)" stroke="rgb(241,240,234)" d="M 2.86463,2.1 l -0.268648,0 -0.00155316,-0.00412473 0,-0.995875 0.970163,0 0.0298374,0 0,0.2 -0.228488,0 0.033949,0.709057 0.0375712,0.0909433 -0.048886,0 -0.157162,-0.344917 -0.105613,0 0.100933,0.344917 -0.0843217,0 -0.113415,-0.8 -0.397311,0 0.232943,0.8 z "/>
<path fill="rgb(241,240,234)" stroke="rgb(241,240,234)" d="M 2.09443,2.1 l 0.199375,0 0.012246,0.0247169 0.288379,-4.44089e-16 0,0.975283 -0.5,-1 z "/>
<path fill="rgb(241,240,234)" stroke="rgb(241,240,234)" d="M 2.2938,2.1 l -0.199375,0 -0.5,-1 1,-4.44089e-16 0,0.995875 -0.299685,-0.795875 -0.397301,4.44089e-16 0.396361,0.8 z "/>
<path fill="rgb(241,240,234)" stroke="rgb(241,240,234)" d="M 3.56459,0.2 l 3.26459,0 0.00883388,0.000390951 0.00876481,0.0011698 0.0086272,0.0019395 0.00842214,0.00269403 0.00815123,0.0034275 0.00781658,0.00413417 0.00742081,0.00480851 0.00696702,0.00544526 0.00645876,0.00603943 0.00589999,0.00658638 0.00529509,0.00708183 0.00464879,0.0075219 0.00396614,0.00790316 0.00325248,0.00822263 0.00251339,0.0084778 0.00175464,0.00866669 0.000982177,0.00878781 0.000202033,0.00884022 -0.000579691,0.0088235 -0.00135688,0.0087378 -0.00212346,0.00858377 -0.00287344,0.00836263 -0.00360095,0.0080761 -3.26459,6.52918 -0.00412828,0.00744612 -0.0047467,0.00706797 -0.00533072,0.00663859 -0.00587609,0.00616109 -0.00637887,0.00563892 -0.00683541,0.00507588 -0.0072424,0.00447605 -0.0075969,0.00384377 -0.00789632,0.00318363 -0.00813851,0.00250041 -0.00832171,0.00179907 -0.00844458,0.00108468 -0.00850624,0.000362437 0,-0.323607 3.10279,-6.20557 -3.10279,2.66454e-15 0,-0.2 z "/>
<path fill="rgb(241,240,234)" stroke="rgb(241,240,234)" d="M 3.56459,0.2 l 0,0.2 -3.10279,0 3.10279,6.20557 0,0.323607 -0.00850624,-0.000362437 -0.00844458,-0.00108468 -0.00832171,-0.00179907 -0.00813851,-0.00250041 -0.00789632,-0.00318363 -0.0075969,-0.00384377 -0.0072424,-0.00447605 -0.00683541,-0.00507588 -0.00637887,-0.00563892 -0.00587609,-0.00616109 -0.00533072,-0.00663859 -0.0047467,-0.00706797 -0.00412828,-0.00744612 -3.26459,-6.52918 -0.00360095,-0.0080761 -0.00287344,-0.00836263 -0.00212346,-0.00858377 -0.00135688,-0.0087378 -0.000579691,-0.0088235 0.000202033,-0.00884022 0.000982177,-0.00878781 0.00175464,-0.00866669 0.00251339,-0.0084778 0.00325248,-0.00822263 0.00396614,-0.00790316 0.00464879,-0.0075219 0.00529509,-0.00708183 0.00589999,-0.00658638 0.00645876,-0.00603943 0.00696702,-0.00544526 0.00742081,-0.00480851 0.00781658,-0.00413417 0.00815123,-0.0034275 0.00842214,-0.00269403 0.0086272,-0.0019395 0.00876481,-0.0011698 0.00883388,-0.000390951 3.26459,-8.88178e-16 z "/>
<path fill="rgb(42,41,42)" stroke="rgb(42,41,42)" d="M 3.77959,3.18588 l 0.0880139,-0.0704152 0.0527961,-0.296722 0.0829799,0 -0.0201157,0.336953 -0.261504,0.291698 -0.0132256,0.0120017 -0.0142262,0.0107968 -0.0151174,0.00950901 -0.0158923,0.00814804 -0.0165451,0.00672442 -0.0170705,0.00524909 -0.0174648,0.00373339 -0.0177247,0.00218898 -0.0178483,0.000627742 -0.0178347,-0.000938326 -0.0176839,-0.00249718 -0.0173971,-0.00403683 -0.0169766,-0.00554543 -0.0164255,-0.0070114 -0.0157481,-0.00842344 -0.0149496,-0.00977071 -0.0140361,-0.0110428 -0.0130147,-0.0122301 -0.485314,-0.497889 0.0628641,-0.050279 0.377185,0.299229 0.0578403,-0.349528 -0.319355,-1.09132 0.105613,0 0.374668,0.822268 0.125728,-0.336953 0.309287,-0.485314 0.0779663,0.0704152 -0.233858,0.528063 -0.105613,0.490328 0,0.341987 z "/>
<path fill="rgb(42,41,42)" stroke="rgb(42,41,42)" d="M 2.60529,2.12472 l -0.299239,4.44089e-16 -0.408607,-0.824717 0.397301,-4.44089e-16 0.310545,0.824717 z "/>
<path fill="rgb(42,41,42)" stroke="rgb(42,41,42)" d="M 3.14591,2.12472 l -0.274089,0 -0.24014,-0.824717 0.397311,0 0.116919,0.824717 z "/>
<path fill="rgb(42,41,42)" stroke="rgb(42,41,42)" d="M 3.44767,2.12472 l -0.0477825,-0.11566 -0.033949,-0.709057 0.397301,0 -0.0641125,0.824717 -0.251457,0 z "/>
<path fill="rgb(42,41,42)" stroke="rgb(42,41,42)" d="M 4.26742,2.12472 l -0.228824,0 0.133259,-0.30677 -0.130762,-0.123211 0.0590989,-0.394736 0.397301,0 -0.230072,0.824717 z "/>
<path fill="rgb(42,41,42)" stroke="rgb(42,41,42)" d="M 4.80553,2.12472 l -0.286654,0 0.318086,-0.824717 0.394784,0 -0.426216,0.824717 z "/>
<path fill="rgb(42,41,42)" stroke="rgb(42,41,42)" d="M 3.39612,3.70765 l 0.000626738,-0.0143547 0.00187544,-0.0142454 0.00310988,-0.0140277 0.00432064,-0.0137033 0.00549852,-0.0132746 0.00663456,-0.0127449 0.0077201,-0.0121181 0.00874689,-0.0113992 0.0097071,-0.0105934 0.0105934,-0.0097071 0.0113992,-0.00874689 0.0121181,-0.0077201 0.0127449,-0.00663456 0.0132746,-0.00549852 0.0137033,-0.00432064 0.0140277,-0.00310988 0.0142454,-0.00187544 0.0143547,-0.000626738 0.0143547,0.000626738 0.0142454,0.00187544 0.0140277,0.00310988 0.0137033,0.00432064 0.0132746,0.00549852 0.0127449,0.00663456 0.0121181,0.0077201 0.0113992,0.00874689 0.0105934,0.0097071 0.0097071,0.0105934 0.00874689,0.0113992 0.0077201,0.0121181 0.00663456,0.0127449 0.00549852,0.0132746 0.00432064,0.0137033 0.00310988,0.0140277 0.00187544,0.0142454 0.000626738,0.0143547 -0.000626738,0.0143547 -0.00187544,0.0142454 -0.00310988,0.0140277 -0.00432064,0.0137033 -0.00549852,0.0132746 -0.00663456,0.0127449 -0.0077201,0.0121181 -0.00874689,0.0113992 -0.0097071,0.0105934 -0.0105934,0.0097071 -0.0113992,0.00874689 -0.0121181,0.0077201 -0.0127449,0.00663456 -0.0132746,0.00549852 -0.0137033,0.00432064 -0.0140277,0.00310988 -0.0142454,0.00187544 -0.0143547,0.000626738 -0.0143547,-0.000626738 -0.0142454,-0.00187544 -0.0140277,-0.00310988 -0.0137033,-0.00432064 -0.0132746,-0.00549852 -0.0127449,-0.00663456 -0.0121181,-0.0077201 -0.0113992,-0.00874689 -0.0105934,-0.0097071 -0.0097071,-0.0105934 -0.00874689,-0.0113992 -0.0077201,-0.0121181 -0.00663456,-0.0127449 -0.00549852,-0.0132746 -0.00432064,-0.0137033 -0.00310988,-0.0140277 -0.00187544,-0.0142454 -0.000626738,-0.0143547 z "/>
<path fill="rgb(187,30,16)" stroke="rgb(187,30,16)" d="M 3.56459,5.04033 l 1.97016,-3.94033 -1.97016,-4.44089e-16 0,-0.7 3.10279,-2.66454e-15 -3.10279,6.20557 0,-1.56525 z "/>
<path fill="rgb(187,30,16)" stroke="rgb(187,30,16)" d="M 3.56459,0.2 l 0,-0.2 3.26459,-1.77636e-15 0.0265016,0.00117285 0.0262944,0.00350939 0.0258816,0.00581849 0.0252664,0.00808209 0.0244537,0.0102825 0.0234497,0.0124025 0.0222624,0.0144255 0.0209011,0.0163358 0.0193763,0.0181183 0.0177,0.0197591 0.0158853,0.0212455 0.0139464,0.0225657 0.0118984,0.0237095 0.00975744,0.0246679 0.00754016,0.0254334 0.00526392,0.0260001 0.00294653,0.0263634 0.000606098,0.0265207 -0.00173907,0.0264705 -0.00407065,0.0262134 -0.00637039,0.0257513 -0.00862033,0.0250879 -0.0108029,0.0242283 -3.26459,6.52918 -0.0123848,0.0223384 -0.0142401,0.0212039 -0.0159921,0.0199158 -0.0176283,0.0184833 -0.0191366,0.0169168 -0.0205062,0.0152277 -0.0217272,0.0134282 -0.0227907,0.0115313 -0.023689,0.00955089 -0.0244155,0.00750124 -0.0249651,0.00539721 -0.0253337,0.00325405 -0.0255187,0.00108731 0,-0.2 0.00850624,-0.000362437 0.00844458,-0.00108468 0.00832171,-0.00179907 0.00813851,-0.00250041 0.00789632,-0.00318363 0.0075969,-0.00384377 0.0072424,-0.00447605 0.00683541,-0.00507588 0.00637887,-0.00563892 0.00587609,-0.00616109 0.00533072,-0.00663859 0.0047467,-0.00706797 0.00412828,-0.00744612 3.26459,-6.52918 0.00360095,-0.0080761 0.00287344,-0.00836263 0.00212346,-0.00858377 0.00135688,-0.0087378 0.000579691,-0.0088235 -0.000202033,-0.00884022 -0.000982177,-0.00878781 -0.00175464,-0.00866669 -0.00251339,-0.0084778 -0.00325248,-0.00822263 -0.00396614,-0.00790316 -0.00464879,-0.0075219 -0.00529509,-0.00708183 -0.00589999,-0.00658638 -0.00645876,-0.00603943 -0.00696702,-0.00544526 -0.00742081,-0.00480851 -0.00781658,-0.00413417 -0.00815123,-0.0034275 -0.00842214,-0.00269403 -0.0086272,-0.0019395 -0.00876481,-0.0011698 -0.00883388,-0.000390951 -3.26459,0 z "/>
<path fill="rgb(187,30,16)" stroke="rgb(187,30,16)" d="M 3.56459,0.2 l -3.26459,8.88178e-16 -0.00883388,0.000390951 -0.00876481,0.0011698 -0.0086272,0.0019395 -0.00842214,0.00269403 -0.00815123,0.0034275 -0.00781658,0.00413417 -0.00742081,0.00480851 -0.00696702,0.00544526 -0.00645876,0.00603943 -0.00589999,0.00658638 -0.00529509,0.00708183 -0.00464879,0.0075219 -0.00396614,0.00790316 -0.00325248,0.00822263 -0.00251339,0.0084778 -0.00175464,0.00866669 -0.000982177,0.00878781 -0.000202033,0.00884022 0.000579691,0.0088235 0.00135688,0.0087378 0.00212346,0.00858377 0.00287344,0.00836263 0.00360095,0.0080761 3.26459,6.52918 0.00412828,0.00744612 0.0047467,0.00706797 0.00533072,0.00663859 0.00587609,0.00616109 0.00637887,0.00563892 0.00683541,0.00507588 0.0072424,0.00447605 0.0075969,0.00384377 0.00789632,0.00318363 0.00813851,0.00250041 0.00832171,0.00179907 0.00844458,0.00108468 0.00850624,0.000362437 0,0.2 -0.0255187,-0.00108731 -0.0253337,-0.00325405 -0.0249651,-0.00539721 -0.0244155,-0.00750124 -0.023689,-0.00955089 -0.0227907,-0.0115313 -0.0217272,-0.0134282 -0.0205062,-0.0152277 -0.0191366,-0.0169168 -0.0176283,-0.0184833 -0.0159921,-0.0199158 -0.0142401,-0.0212039 -0.0123848,-0.0223384 -3.26459,-6.52918 -0.0108029,-0.0242283 -0.00862033,-0.0250879 -0.00637039,-0.0257513 -0.00407065,-0.0262134 -0.00173907,-0.0264705 0.000606098,-0.0265207 0.00294653,-0.0263634 0.00526392,-0.0260001 0.00754016,-0.0254334 0.00975744,-0.0246679 0.0118984,-0.0237095 0.0139464,-0.0225657 0.0158853,-0.0212455 0.0177,-0.0197591 0.0193763,-0.0181183 0.0209011,-0.0163358 0.0222624,-0.0144255 0.0234497,-0.0124025 0.0244537,-0.0102825 0.0252664,-0.00808209 0.0258816,-0.00581849 0.0262944,-0.00350939 0.0265016,-0.00117285 3.26459,0 0,0.2 z "/>
<path fill="rgb(187,30,16)" stroke="rgb(187,30,16)" d="M 3.56459,5.04033 l 0,1.56525 -3.10279,-6.20557 3.10279,0 0,0.7 -1.97016,4.44089e-16 1.97016,3.94033 z "/>
</g></g></svg>
