<?xml version="1.0" encoding="UTF-8" standalone="no"?>
<!DOCTYPE svg PUBLIC "-//W3C//DTD SVG 1.1//EN" "http://www.w3.org/Graphics/SVG/1.1/DTD/svg11-flat.dtd"
[

]>
<svg xmlns="http://www.w3.org/2000/svg"  viewBox="-0.09375 -0.09375 7.6875 7.6875"><g fill="none" stroke="black" stroke-width="0.0125" transform="translate(0,7.5) scale(1, -1)">
<g id="Output" >
<path fill="rgb(241,240,234)" stroke="rgb(241,240,234)" d="M 0.4,3.75 l -0.2,-8.88178e-16 4.44089e-16,-3.05 0.00190265,-0.0435779 0.00569347,-0.0432462 0.00944096,-0.0425854 0.0131166,-0.0416005 0.0166924,-0.0402991 0.0201412,-0.0386909 0.0234367,-0.0367882 0.0265538,-0.0346056 0.0294688,-0.0321596 0.0321596,-0.0294688 0.0346056,-0.0265538 0.0367882,-0.0234367 0.0386909,-0.0201412 0.0402991,-0.0166924 0.0416005,-0.0131166 0.0425854,-0.00944096 0.0432462,-0.00569347 0.0435779,-0.00190265 6.1,0 0.0435779,0.00190265 0.0432462,0.00569347 0.0425854,0.00944096 0.0416005,0.0131166 0.0402991,0.0166924 0.0386909,0.0201412 0.0367882,0.0234367 0.0346056,0.0265538 0.0321596,0.0294688 0.0294688,0.0321596 0.0265538,0.0346056 0.0234367,0.0367882 0.0201412,0.0386909 0.0166924,0.0402991 0.0131166,0.0416005 0.00944096,0.0425854 0.00569347,0.0432462 0.00190265,0.0435779 0,3.05 -0.2,4.44089e-16 0,-3.05 -0.00114159,-0.0261467 -0.00341608,-0.0259477 -0.00566458,-0.0255513 -0.00786996,-0.0249603 -0.0100155,-0.0241794 -0.0120847,-0.0232145 -0.014062,-0.0220729 -0.0159323,-0.0207634 -0.0176813,-0.0192958 -0.0192958,-0.0176813 -0.0207634,-0.0159323 -0.0220729,-0.014062 -0.0232145,-0.0120847 -0.0241794,-0.0100155 -0.0249603,-0.00786996 -0.0255513,-0.00566458 -0.0259477,-0.00341608 -0.0261467,-0.00114159 -6.1,0 -0.0261467,0.00114159 -0.0259477,0.00341608 -0.0255513,0.00566458 -0.0249603,0.00786996 -0.0241794,0.0100155 -0.0232145,0.0120847 -0.0220729,0.014062 -0.0207634,0.0159323 -0.0192958,0.0176813 -0.0176813,0.0192958 -0.0159323,0.0207634 -0.014062,0.0220729 -0.0120847,0.0232145 -0.0100155,0.0241794 -0.00786996,0.0249603 -0.00566458,0.0255513 -0.00341608,0.0259477 -0.00114159,0.0261467 -4.44089e-16,3.05 z "/>
<path fill="rgb(241,240,234)" stroke="rgb(241,240,234)" d="M 0.2,3.75 l 0.2,8.88178e-16 -4.44089e-16,3.05 0.00114159,0.0261467 0.00341608,0.0259477 0.00566458,0.0255513 0.00786996,0.0249603 0.0100155,0.0241794 0.0120847,0.0232145 0.014062,0.0220729 0.0159323,0.0207634 0.0176813,0.0192958 0.0192958,0.0176813 0.0207634,0.0159323 0.0220729,0.014062 0.0232145,0.0120847 0.0241794,0.0100155 0.0249603,0.00786996 0.0255513,0.00566458 0.0259477,0.00341608 0.0261467,0.00114159 6.1,8.88178e-16 0.0261467,-0.00114159 0.0259477,-0.00341608 0.0255513,-0.00566458 0.0249603,-0.00786996 0.0241794,-0.0100155 0.0232145,-0.0120847 0.0220729,-0.014062 0.0207634,-0.0159323 0.0192958,-0.0176813 0.0176813,-0.0192958 0.0159323,-0.0207634 0.014062,-0.0220729 0.0120847,-0.0232145 0.0100155,-0.0241794 0.00786996,-0.0249603 0.00566458,-0.0255513 0.00341608,-0.0259477 0.00114159,-0.0261467 1.77636e-15,-3.05 0.2,-4.44089e-16 -8.88178e-16,3.05 -0.00190265,0.0435779 -0.00569347,0.0432462 -0.00944096,0.0425854 -0.0131166,0.0416005 -0.0166924,0.0402991 -0.0201412,0.0386909 -0.0234367,0.0367882 -0.0265538,0.0346056 -0.0294688,0.0321596 -0.0321596,0.0294688 -0.0346056,0.0265538 -0.0367882,0.0234367 -0.0386909,0.0201412 -0.0402991,0.0166924 -0.0416005,0.0131166 -0.0425854,0.00944096 -0.0432462,0.00569347 -0.0435779,0.00190265 -6.1,-8.88178e-16 -0.0435779,-0.00190265 -0.0432462,-0.00569347 -0.0425854,-0.00944096 -0.0416005,-0.0131166 -0.0402991,-0.0166924 -0.0386909,-0.0201412 -0.0367882,-0.0234367 -0.0346056,-0.0265538 -0.0321596,-0.0294688 -0.0294688,-0.0321596 -0.0265538,-0.0346056 -0.0234367,-0.0367882 -0.0201412,-0.0386909 -0.0166924,-0.0402991 -0.0131166,-0.0416005 -0.00944096,-0.0425854 -0.00569347,-0.0432462 -0.00190265,-0.0435779 4.44089e-16,-3.05 z "/>
<path fill="rgb(0,91,140)" stroke="rgb(0,91,140)" d="M 0.4,3.75 l 6.7,-4.44089e-16 -1.77636e-15,3.05 -0.00114159,0.0261467 -0.00341608,0.0259477 -0.00566458,0.0255513 -0.00786996,0.0249603 -0.0100155,0.0241794 -0.0120847,0.0232145 -0.014062,0.0220729 -0.0159323,0.0207634 -0.0176813,0.0192958 -0.0192958,0.0176813 -0.0207634,0.0159323 -0.0220729,0.014062 -0.0232145,0.0120847 -0.0241794,0.0100155 -0.0249603,0.00786996 -0.0255513,0.00566458 -0.0259477,0.00341608 -0.0261467,0.00114159 -6.1,-8.88178e-16 -0.0261467,-0.00114159 -0.0259477,-0.00341608 -0.0255513,-0.00566458 -0.0249603,-0.00786996 -0.0241794,-0.0100155 -0.0232145,-0.0120847 -0.0220729,-0.014062 -0.0207634,-0.0159323 -0.0192958,-0.0176813 -0.0176813,-0.0192958 -0.0159323,-0.0207634 -0.014062,-0.0220729 -0.0120847,-0.0232145 -0.0100155,-0.0241794 -0.00786996,-0.0249603 -0.00566458,-0.0255513 -0.00341608,-0.0259477 -0.00114159,-0.0261467 4.44089e-16,-3.05 z "/>
<path fill="rgb(0,91,140)" stroke="rgb(0,91,140)" d="M 0.4,3.75 l 4.44089e-16,-3.05 0.00114159,-0.0261467 0.00341608,-0.0259477 0.00566458,-0.0255513 0.00786996,-0.0249603 0.0100155,-0.0241794 0.0120847,-0.0232145 0.014062,-0.0220729 0.0159323,-0.0207634 0.0176813,-0.0192958 0.0192958,-0.0176813 0.0207634,-0.0159323 0.0220729,-0.014062 0.0232145,-0.0120847 0.0241794,-0.0100155 0.0249603,-0.00786996 0.0255513,-0.00566458 0.0259477,-0.00341608 0.0261467,-0.00114159 6.1,0 0.0261467,0.00114159 0.0259477,0.00341608 0.0255513,0.00566458 0.0249603,0.00786996 0.0241794,0.0100155 0.0232145,0.0120847 0.0220729,0.014062 0.0207634,0.0159323 0.0192958,0.0176813 0.0176813,0.0192958 0.0159323,0.0207634 0.014062,0.0220729 0.0120847,0.0232145 0.0100155,0.0241794 0.00786996,0.0249603 0.00566458,0.0255513 0.00341608,0.0259477 0.00114159,0.0261467 0,3.05 -6.7,4.44089e-16 z "/>
<path fill="rgb(0,91,140)" stroke="rgb(0,91,140)" d="M 0.2,3.75 l -0.2,0 4.44089e-16,-3.05 0.00266371,-0.061009 0.00797086,-0.0605447 0.0132173,-0.0596196 0.0183632,-0.0582408 0.0233694,-0.0564187 0.0281977,-0.0541672 0.0328114,-0.0515035 0.0371753,-0.0484478 0.0412564,-0.0450234 0.0450234,-0.0412564 0.0484478,-0.0371753 0.0515035,-0.0328114 0.0541672,-0.0281977 0.0564187,-0.0233694 0.0582408,-0.0183632 0.0596196,-0.0132173 0.0605447,-0.00797086 0.061009,-0.00266371 6.1,-8.88178e-16 0.061009,0.00266371 0.0605447,0.00797086 0.0596196,0.0132173 0.0582408,0.0183632 0.0564187,0.0233694 0.0541672,0.0281977 0.0515035,0.0328114 0.0484478,0.0371753 0.0450234,0.0412564 0.0412564,0.0450234 0.0371753,0.0484478 0.0328114,0.0515035 0.0281977,0.0541672 0.0233694,0.0564187 0.0183632,0.0582408 0.0132173,0.0596196 0.00797086,0.0605447 0.00266371,0.061009 -1.77636e-15,3.05 -0.2,-8.88178e-16 0,-3.05 -0.00190265,-0.0435779 -0.00569347,-0.0432462 -0.00944096,-0.0425854 -0.0131166,-0.0416005 -0.0166924,-0.0402991 -0.0201412,-0.0386909 -0.0234367,-0.0367882 -0.0265538,-0.0346056 -0.0294688,-0.0321596 -0.0321596,-0.0294688 -0.0346056,-0.0265538 -0.0367882,-0.0234367 -0.0386909,-0.0201412 -0.0402991,-0.0166924 -0.0416005,-0.0131166 -0.0425854,-0.00944096 -0.0432462,-0.00569347 -0.0435779,-0.00190265 -6.1,0 -0.0435779,0.00190265 -0.0432462,0.00569347 -0.0425854,0.00944096 -0.0416005,0.0131166 -0.0402991,0.0166924 -0.0386909,0.0201412 -0.0367882,0.0234367 -0.0346056,0.0265538 -0.0321596,0.0294688 -0.0294688,0.0321596 -0.0265538,0.0346056 -0.0234367,0.0367882 -0.0201412,0.0386909 -0.0166924,0.0402991 -0.0131166,0.0416005 -0.00944096,0.0425854 -0.00569347,0.0432462 -0.00190265,0.0435779 -4.44089e-16,3.05 z "/>
<path fill="rgb(0,91,140)" stroke="rgb(0,91,140)" d="M 6.8,7.5 l -6.1,-8.88178e-16 -0.061009,-0.00266371 -0.0605447,-0.00797086 -0.0596196,-0.0132173 -0.0582408,-0.0183632 -0.0564187,-0.0233694 -0.0541672,-0.0281977 -0.0515035,-0.0328114 -0.0484478,-0.0371753 -0.0450234,-0.0412564 -0.0412564,-0.0450234 -0.0371753,-0.0484478 -0.0328114,-0.0515035 -0.0281977,-0.0541672 -0.0233694,-0.0564187 -0.0183632,-0.0582408 -0.0132173,-0.0596196 -0.00797086,-0.0605447 -0.00266371,-0.061009 4.44089e-16,-3.05 0.2,0 -4.44089e-16,3.05 0.00190265,0.0435779 0.00569347,0.0432462 0.00944096,0.0425854 0.0131166,0.0416005 0.0166924,0.0402991 0.0201412,0.0386909 0.0234367,0.0367882 0.0265538,0.0346056 0.0294688,0.0321596 0.0321596,0.0294688 0.0346056,0.0265538 0.0367882,0.0234367 0.0386909,0.0201412 0.0402991,0.0166924 0.0416005,0.0131166 0.0425854,0.00944096 0.0432462,0.00569347 0.0435779,0.00190265 6.1,8.88178e-16 0.0435779,-0.00190265 0.0432462,-0.00569347 0.0425854,-0.00944096 0.0416005,-0.0131166 0.0402991,-0.0166924 0.0386909,-0.0201412 0.0367882,-0.0234367 0.0346056,-0.0265538 0.0321596,-0.0294688 0.0294688,-0.0321596 0.0265538,-0.0346056 0.0234367,-0.0367882 0.0201412,-0.0386909 0.0166924,-0.0402991 0.0131166,-0.0416005 0.00944096,-0.0425854 0.00569347,-0.0432462 0.00190265,-0.0435779 8.88178e-16,-3.05 0.2,8.88178e-16 1.77636e-15,3.05 -0.00266371,0.061009 -0.00797086,0.0605447 -0.0132173,0.0596196 -0.0183632,0.0582408 -0.0233694,0.0564187 -0.0281977,0.0541672 -0.0328114,0.0515035 -0.0371753,0.0484478 -0.0412564,0.0450234 -0.0450234,0.0412564 -0.0484478,0.0371753 -0.0515035,0.0328114 -0.0541672,0.0281977 -0.0564187,0.0233694 -0.0582408,0.0183632 -0.0596196,0.0132173 -0.0605447,0.00797086 -0.061009,0.00266371 z "/>
<path fill="rgb(241,240,234)" stroke="rgb(241,240,234)" d="M 5.29816,6.52637 l -0.0507765,-0.00101553 -0.109677,-0.00710872 -0.1046,-0.015233 -0.100538,-0.0223417 -0.0964754,-0.0294504 -0.0913978,-0.0375746 -0.0873357,-0.0446834 -0.082258,-0.0528076 -0.0781959,-0.0599163 -0.0741338,-0.0680406 -0.0690561,-0.0751493 -0.064994,-0.0832735 -0.0192951,-0.0274193 1.02873,-0.0365591 0.0385902,-0.00101553 0.106631,-0.0111708 0.097491,-0.0264038 0.0903823,-0.0396057 0.082258,-0.0528076 0.0741338,-0.0680406 0.0660095,-0.0812425 0.0385902,-0.0599163 0.0426523,-0.0812425 0.0355436,-0.0883512 0.0294504,-0.0954599 0.0223417,-0.103584 0.0162485,-0.109677 0.00913978,-0.117802 0.00304659,-0.119833 -0.00203106,-0.0985065 -0.00913978,-0.115771 -0.015233,-0.109677 -0.0213262,-0.103584 -0.0284349,-0.097491 -0.0355436,-0.0913978 -0.0416368,-0.0853046 -0.04773,-0.0781959 -0.0253883,-0.0355436 -0.0680406,-0.0792114 -0.0761648,-0.064994 -0.0842891,-0.049761 -0.0913978,-0.0355436 -0.0985065,-0.0223417 -0.107646,-0.00710872 1.02975,-0.0223417 0.049761,0.0812425 0.0456989,0.0863201 0.0406212,0.0883512 0.0355436,0.0934288 0.0304659,0.0964754 0.0264038,0.099522 0.0213262,0.1046 0.0162485,0.106631 0.0121864,0.111708 0.00710872,0.114755 0.00203106,0.118817 0,0.017264 -0.00304659,0.116786 -0.00812425,0.113739 -0.0132019,0.109677 -0.0182796,0.106631 -0.0223417,0.102569 -0.0284349,0.0985065 -0.032497,0.0954599 -0.0375746,0.0924133 -0.0436678,0.0873357 -0.04773,0.0853046 -0.0517921,0.0802269 -0.0335125,0.0467144 -0.064994,0.0792114 -0.0700716,0.0721027 -0.0751493,0.064994 -0.0792114,0.0568697 -0.0842891,0.0487455 -0.0883512,0.0416368 -0.0934288,0.0345281 -0.0985065,0.0264038 -0.102569,0.0192951 -0.107646,0.0111708 -0.112724,0.00406212 z "/>
<path fill="rgb(241,240,234)" stroke="rgb(241,240,234)" d="M 4.26943,6.00236 l -0.0517921,-0.0812425 -0.0467144,-0.0842891 -0.0416368,-0.0883512 -0.0365591,-0.0924133 -0.0314815,-0.0954599 -0.0274193,-0.100538 -0.0223417,-0.103584 -0.017264,-0.106631 -0.0121864,-0.110693 -0.00710872,-0.115771 -0.00203106,-0.117802 0,-0.0446834 0.00406212,-0.117802 0.00913978,-0.112724 0.0142174,-0.109677 0.0182796,-0.106631 0.0233572,-0.101553 0.0284349,-0.099522 0.0335125,-0.0944444 0.0375746,-0.0913978 0.0426523,-0.0873357 0.04773,-0.0842891 0.0528076,-0.0802269 0.0355436,-0.04773 0.0660095,-0.0792114 0.0700716,-0.0721027 0.0751493,-0.0639785 0.0802269,-0.0568697 0.0842891,-0.0487455 0.0893667,-0.0416368 0.0934288,-0.0335125 0.097491,-0.0264038 0.103584,-0.0192951 0.106631,-0.0111708 0.111708,-0.00406212 0.0761648,0.00203106 0.108662,0.00913978 0.103584,0.0162485 0.099522,0.0243727 0.0944444,0.0314815 0.0893667,0.0396057 0.0863201,0.0467144 0.0802269,0.0548387 0.0761648,0.0619474 0.0710872,0.0700716 0.067025,0.0771804 0.0619474,0.0853046 0.015233,0.0233572 -1.02975,0.0223417 -0.0426523,0.00101553 -0.106631,0.0121864 -0.0985065,0.0264038 -0.0893667,0.0396057 -0.082258,0.0528076 -0.0741338,0.067025 -0.0660095,0.0812425 -0.0467144,0.0741338 -0.0416368,0.082258 -0.0345281,0.0893667 -0.0284349,0.0964754 -0.0223417,0.103584 -0.015233,0.110693 -0.00913978,0.117802 -0.00406212,0.12491 0.00406212,0.112724 0.0101553,0.111708 0.017264,0.106631 0.0243727,0.101553 0.0304659,0.0954599 0.0385902,0.0893667 0.0456989,0.0853046 0.00609319,0.0111708 0.0629629,0.0893667 0.0690561,0.0761648 0.0771804,0.0619474 0.0832735,0.04773 0.0903823,0.0345281 0.097491,0.0203106 0.1046,0.00710872 -1.02873,0.0365591 z "/>
<path fill="rgb(241,240,234)" stroke="rgb(241,240,234)" d="M 2.07791,6.52637 l -0.0690561,-0.00101553 -0.117802,-0.00710872 -0.110693,-0.0132019 -0.106631,-0.0192951 -0.100538,-0.0264038 -0.0944444,-0.032497 -0.0883512,-0.0385902 -0.0842891,-0.0446834 -0.0771804,-0.0517921 -0.0132019,-0.00913978 -0.0812425,-0.0700716 -0.0700716,-0.0751493 -0.0558542,-0.082258 -0.0446834,-0.0873357 1.11404,-0.00203106 0.102569,-0.00203106 0.13405,-0.0111708 0.112724,-0.0213262 0.0924133,-0.0304659 0.0710872,-0.0406212 0.0517921,-0.049761 0.0304659,-0.0599163 0.0101553,-0.0690561 -0.00710872,-0.0609319 -0.0253883,-0.0639785 -0.0467144,-0.0548387 -0.064994,-0.0446834 -0.0863201,-0.0345281 -0.1046,-0.0243727 -0.125926,-0.015233 -0.144205,-0.00507765 -1.10388,-0.00101553 0.0487455,-0.0934288 0.0619474,-0.0944444 0.0751493,-0.0954599 -0.0335125,-0.0304659 -0.0751493,-0.0792114 -0.064994,-0.082258 -0.0548387,-0.0853046 -0.0446834,-0.0903823 -0.0355436,-0.0924133 -0.0243727,-0.097491 -0.015233,-0.100538 -0.00507765,-0.103584 0.00101553,-0.0558542 0.0101553,-0.107646 0.0182796,-0.103584 0.0284349,-0.097491 0.0385902,-0.0924133 0.04773,-0.0863201 0.0568697,-0.0812425 0.067025,-0.0761648 0.0761648,-0.0710872 0.0385902,-0.0304659 0.0771804,-0.0548387 0.0832735,-0.04773 0.0883512,-0.0416368 0.0934288,-0.0345281 0.0985065,-0.0294504 0.103584,-0.0223417 0.109677,-0.015233 0.114755,-0.0101553 0.119833,-0.00304659 0.100538,0.00203106 0.113739,0.00913978 0.109677,0.015233 0.103584,0.0203106 0.099522,0.0284349 0.0944444,0.0335125 0.0893667,0.0396057 0.0853046,0.0467144 0.0802269,0.0528076 0.0142174,0.0111708 0.0792114,0.064994 0.0690561,0.0710872 0.0609319,0.0771804 0.0507765,0.0832735 -1.1506,0.0182796 -0.0924133,0.00203106 -0.122879,0.00913978 -0.1046,0.017264 -0.0883512,0.0253883 -0.0690561,0.0335125 -0.0660095,0.0487455 -0.0721027,0.0731182 -0.0507765,0.0832735 -0.0304659,0.0924133 -0.0101553,0.102569 0,0.0162485 0.00913978,0.0893667 0.0233572,0.0802269 0.0365591,0.0700716 0.049761,0.0609319 0.0639785,0.0517921 0.0771804,0.0426523 0.0913978,0.032497 0.1046,0.0233572 0.118817,0.0142174 0.132019,0.00507765 1.12724,0.032497 -0.0568697,0.0853046 -0.067025,0.0802269 -0.0771804,0.0771804 0.00710872,0.00812425 0.0721027,0.100538 0.0589008,0.097491 0.0467144,0.0954599 0.032497,0.0924133 0.0192951,0.0913978 0.00710872,0.0883512 0,0.0142174 -0.00812425,0.1046 -0.0203106,0.0985065 -0.0335125,0.0934288 -0.0456989,0.0873357 -0.0589008,0.0812425 -0.0710872,0.0751493 -0.0832735,0.0700716 -0.0436678,0.0304659 -0.0802269,0.04773 -0.0863201,0.0416368 -0.0913978,0.0345281 -0.097491,0.0294504 -0.1046,0.0213262 -0.108662,0.0162485 -0.115771,0.0101553 -0.120848,0.00304659 z "/>
<path fill="rgb(241,240,234)" stroke="rgb(241,240,234)" d="M 0.963873,5.96783 l -0.0314815,-0.0944444 -0.0182796,-0.099522 -0.00609319,-0.106631 0,-0.0132019 0.00812425,-0.0924133 0.0223417,-0.0913978 0.0355436,-0.0934288 1.10388,0.00101553 -0.121864,0.00406212 -0.127957,0.0132019 -0.108662,0.0223417 -0.0893667,0.0335125 -0.0690561,0.0426523 -0.049761,0.0528076 -0.0294504,0.0619474 -0.0101553,0.0731182 0.00507765,0.0487455 0.0243727,0.0619474 0.0446834,0.0528076 0.064994,0.0436678 0.0863201,0.0335125 0.106631,0.0243727 0.126941,0.0142174 0.147252,0.00507765 -1.11404,0.00203106 z "/>
<path fill="rgb(241,240,234)" stroke="rgb(241,240,234)" d="M 3.20515,4.85074 l -1.12724,-0.032497 0.0243727,0 0.128972,-0.00710872 0.116786,-0.015233 0.101553,-0.0253883 0.0893667,-0.0345281 0.0751493,-0.0436678 0.0609319,-0.0538231 0.04773,-0.0629629 0.0345281,-0.0721027 0.0203106,-0.0812425 0.00609319,-0.0903823 -0.00913978,-0.097491 -0.0314815,-0.0944444 -0.0538231,-0.0853046 -0.0751493,-0.0771804 -0.0233572,-0.0203106 -0.0680406,-0.0406212 -0.0842891,-0.0314815 -0.102569,-0.0223417 -0.120848,-0.0132019 -0.137097,-0.00507765 1.1506,-0.0182796 0.0416368,0.0893667 0.032497,0.0944444 0.0223417,0.101553 0.0142174,0.106631 0.00507765,0.113739 -0.00101553,0.0355436 -0.00812425,0.1046 -0.017264,0.100538 -0.0284349,0.0964754 -0.0375746,0.0934288 -0.0467144,0.0883512 z "/>
<path fill="rgb(241,240,234)" stroke="rgb(241,240,234)" d="M 5.79374,2.4744 l -0.269116,-0.097491 0,-1.42581 0.269116,0 0,0.642831 0.00101553,0.0304659 0.017264,0.0781959 0.0385902,0.0558542 0.0609319,0.0335125 0.0812425,0.0121864 0.430585,0.0284349 -0.0365591,0.0721027 -0.59307,0.0629629 0,0.50675 z "/>
<path fill="rgb(241,240,234)" stroke="rgb(241,240,234)" d="M 6.04661,2.07225 l -0.0436678,-0.00101553 -0.0853046,-0.017264 -0.0700716,-0.0345281 -0.0538231,-0.0517921 0.59307,-0.0629629 -0.0538231,0.0629629 -0.0467144,0.0375746 -0.0710872,0.0375746 -0.0792114,0.0223417 -0.0893667,0.00710872 z "/>
<path fill="rgb(241,240,234)" stroke="rgb(241,240,234)" d="M 6.42337,1.83259 l -0.430585,-0.0284349 0.0751493,-0.0142174 0.0690561,-0.0456989 0.0426523,-0.0609319 0.0162485,-0.0812425 0,-0.650955 0.248805,0 0,0.751493 -0.00304659,0.049761 -0.0182796,0.0802269 z "/>
<path fill="rgb(241,240,234)" stroke="rgb(241,240,234)" d="M 5.21692,2.45104 l -0.959677,-1.80663 -0.2681,0 0.958661,1.80663 0.269116,0 z "/>
<path fill="rgb(241,240,234)" stroke="rgb(241,240,234)" d="M 2.68012,2.07225 l -0.0517921,-0.00304659 -0.0781959,-0.0203106 -0.0721027,-0.0365591 -0.067025,-0.0558542 0.553464,-0.015233 -0.0568697,0.0538231 -0.0680406,0.0436678 -0.0761648,0.0253883 -0.0832735,0.00812425 z "/>
<path fill="rgb(241,240,234)" stroke="rgb(241,240,234)" d="M 3.29655,2.07225 l -0.0274193,-0.00101553 -0.0761648,-0.0111708 -0.0761648,-0.0253883 -0.0761648,-0.0396057 -0.0761648,-0.0538231 0.67025,-0.0375746 -0.0548387,0.0639785 -0.0456989,0.0375746 -0.0700716,0.0375746 -0.0802269,0.0223417 -0.0873357,0.00710872 z "/>
<path fill="rgb(241,240,234)" stroke="rgb(241,240,234)" d="M 2.411,2.04585 l -0.2681,0 0,-1.09474 0.2681,0 0,0.658064 0.0101553,0.0700716 0.0406212,0.0700716 0.0467144,0.0365591 0.082258,0.0182796 0.646893,0 0.433632,0.0284349 -0.0365591,0.0710872 -0.67025,0.0375746 -0.553464,0.015233 0,0.0893667 z "/>
<path fill="rgb(241,240,234)" stroke="rgb(241,240,234)" d="M 3.67128,1.83259 l -0.433632,-0.0284349 0.0731182,-0.0121864 0.0639785,-0.0426523 0.0365591,-0.0619474 0.0142174,-0.0853046 0,-0.650955 0.2681,0 0,0.751493 -0.00304659,0.049761 -0.0192951,0.0802269 z "/>
<path fill="rgb(241,240,234)" stroke="rgb(241,240,234)" d="M 3.23765,1.80415 l -0.646893,0 0.0710872,-0.0132019 0.0710872,-0.0436678 0.0406212,-0.0609319 0.0162485,-0.0842891 0,-0.650955 0.256929,0 0,0.662126 0.0111708,0.0639785 0.0456989,0.0700716 0.0548387,0.0385902 0.0792114,0.0182796 z "/>
<path fill="rgb(241,240,234)" stroke="rgb(241,240,234)" d="M 1.3447,2.4744 l -0.2681,-0.097491 0,-1.42581 0.2681,0 0,0.318877 0.149283,0.203106 -0.149283,0.194982 0,0.806332 z "/>
<path fill="rgb(241,240,234)" stroke="rgb(241,240,234)" d="M 1.96519,2.03975 l -0.332079,0 -0.288411,-0.371684 0.149283,-0.194982 0.213262,-0.521983 0.269116,0 -0.299582,0.741338 0.288411,0.347312 z "/>
</g></g></svg>
