<?xml version="1.0" encoding="UTF-8" standalone="no"?>
<!DOCTYPE svg PUBLIC "-//W3C//DTD SVG 1.1//EN" "http://www.w3.org/Graphics/SVG/1.1/DTD/svg11-flat.dtd"
[

]>
<svg xmlns="http://www.w3.org/2000/svg"  viewBox="-0.09375 -0.09375 7.6875 7.6875"><g fill="none" stroke="black" stroke-width="0.0125" transform="translate(0,7.5) scale(1, -1)">
<g id="Output" >
<path fill="rgb(0,91,140)" stroke="rgb(0,91,140)" d="M 5.44551,2.70519 l -0.0130147,0.0222975 -0.141303,0.0260137 -0.194006,0.0114727 0.152423,-0.152462 0.195901,0.0926782 z "/>
<path fill="rgb(0,91,140)" stroke="rgb(0,91,140)" d="M 0.4,3.75 l 4.44089e-16,-3.05 0.00114159,-0.0261467 0.00341608,-0.0259477 0.00566458,-0.0255513 0.00786996,-0.0249603 0.0100155,-0.0241794 0.0120847,-0.0232145 0.014062,-0.0220729 0.0159323,-0.0207634 0.0176813,-0.0192958 0.0192958,-0.0176813 0.0207634,-0.0159323 0.0220729,-0.014062 0.0232145,-0.0120847 0.0241794,-0.0100155 0.0249603,-0.00786996 0.0255513,-0.00566458 0.0259477,-0.00341608 0.0261467,-0.00114159 6.1,0 0.0261467,0.00114159 0.0259477,0.00341608 0.0255513,0.00566458 0.0249603,0.00786996 0.0241794,0.0100155 0.0232145,0.0120847 0.0220729,0.014062 0.0207634,0.0159323 0.0192958,0.0176813 0.0176813,0.0192958 0.0159323,0.0207634 0.014062,0.0220729 0.0120847,0.0232145 0.0100155,0.0241794 0.00786996,0.0249603 0.00566458,0.0255513 0.00341608,0.0259477 0.00114159,0.0261467 0,1.38851 -0.403544,-0.173249 0,-0.111229 -0.0128707,-0.0237001 -0.0148463,-0.0225153 -0.0167135,-0.0211663 -0.0184588,-0.0196628 -0.0200694,-0.0180158 -0.0215336,-0.0162375 -0.0228407,-0.0143406 -0.0239812,-0.0123392 -0.0249467,-0.0102477 -0.246022,-0.0889829 0.481184,-0.462821 -0.242754,-0.242214 -0.644938,0.645105 1.99682e-05,-0.026227 -0.189643,-0.0130069 -0.249139,0.0167231 -0.0133613,-0.000554726 -0.0133583,0.000624058 -0.0132514,0.00179799 -0.0130416,0.00295796 -0.0127304,0.00409494 -0.0123204,0.0052001 -0.0118146,0.00626486 -0.011217,0.00728094 -0.0105322,0.00824045 -0.00976562,0.00913592 -0.00892315,0.00996041 -0.00801135,0.0107075 -0.00703729,0.0113714 -0.00600856,0.011947 -0.00493314,0.0124297 -0.00381939,0.0128158 -0.00267596,0.0131024 -0.00151174,0.0132871 -0.00033577,0.0133686 0.000842806,0.0133462 0.00201483,0.0132202 0.00317121,0.0129914 0.00430294,0.0126616 -0.0594958,-0.0185812 -0.0125979,-0.00431889 -0.0129278,-0.00319879 -0.0131583,-0.00205411 -0.0132877,-0.000893633 -0.0133149,0.000273711 -0.0132397,0.00143895 -0.0130628,0.00259313 -0.0127854,0.00372737 -0.0124098,0.00483296 -0.0119388,0.0059014 -0.011376,0.00692447 -0.0107257,0.00789432 -0.00999297,0.00880347 -0.00918344,0.00964495 -0.00830331,0.0104123 -0.00735935,0.0110996 -0.00635881,0.0117015 -0.0053094,0.0122136 -0.00421917,0.0126317 -0.0030965,0.0129527 -0.00195003,0.0131741 -0.000788567,0.0132943 0.000378956,0.0133123 0.00154357,0.0132279 0.00269631,0.0130419 0.00382833,0.0127556 -0.0123083,-0.00495753 -0.0126909,-0.00387481 -0.0129783,-0.00276308 -0.0131686,-0.00163065 -0.0132603,-0.000486009 -0.0132527,0.000662271 -0.0131458,0.00180559 -0.0129405,0.00293539 -0.0126382,0.0040432 -0.0122413,0.00512074 -0.0117528,0.00615992 -0.0111762,0.00715298 -0.0105159,0.00809246 -0.00977686,0.00897134 -0.00896461,0.00978304 -0.00808522,0.0105215 -0.00714528,0.0111811 -0.00615183,0.011757 -0.00511231,0.0122448 -0.0040345,0.012641 -0.00292648,0.0129425 -0.00179654,0.013147 -0.000653145,0.0132531 0.00049514,0.01326 0.00163972,0.0131675 0.00277201,0.0129764 0.00388355,0.0126882 0.004966,0.0123049 0.00601126,0.0118295 0.00701151,0.0112655 0.00795924,0.0106171 0.00884737,0.00988919 0.00966924,0.00908723 0.0104187,0.00821722 0.0110901,0.00728567 0.0116785,0.00629956 -0.0128784,-1.18532e-05 -0.012829,0.00112702 -0.0126791,0.00225707 -0.0124298,0.00336943 -0.0120832,0.00445539 -0.0116418,0.00550644 -0.0111093,0.00651435 -0.0104897,0.00747122 -0.00978794,0.00836955 -0.00900948,0.00920231 -0.00816043,0.00996296 -0.00724744,0.0106456 -0.00627767,0.0112447 -0.00525871,0.0117558 -0.00419855,0.0121748 -0.00310549,0.0124984 -0.0019881,0.012724 -0.000855136,0.01285 0.000284531,0.0128753 0.00142197,0.0127997 0.00254826,0.0126238 0.0036546,0.012349 0.00473229,0.0119774 0.00577291,0.011512 0.0067683,0.0109564 0.00771065,0.010315 0.00859259,0.00959273 0.00940721,0.00879532 0.0101481,0.00792898 0.0108095,0.00700053 0.0113862,0.00601722 0.0949225,0.0449067 -0.977981,0.978234 -0.013295,-0.0110485 -0.01339,-0.0109331 -0.013484,-0.010817 -0.139484,-0.101409 -0.147701,-0.0890159 -0.15482,-0.0759613 -0.160788,-0.0623418 -0.165561,-0.0482589 -0.169103,-0.0338172 -0.171388,-0.019124 -0.172398,-0.00428869 -0.172126,0.0105785 -0.170575,0.0253671 -0.167756,0.0399671 -0.163689,0.0542699 -0.158406,0.0681692 -0.151944,0.0815618 -0.144353,0.0943479 -0.135689,0.106433 -0.126016,0.117726 -0.115406,0.128144 -0.103938,0.137609 -0.0916972,0.146051 -0.0787746,0.153408 -0.0652664,0.159624 -0.051273,0.164653 -0.0368983,0.168457 -0.0222493,0.17101 -0.00743485,0.172291 0.00710057,0.16838 0.0212513,0.167185 0.0352511,0.164802 0.0490007,0.161249 0.0624023,0.156551 0.0753608,0.150742 0.0877842,0.143862 0.0995842,0.135961 0.110677,0.127094 0.126921,0.122594 0.137233,0.110929 0.146476,0.0984013 0.15458,0.0851073 0.16148,0.0711507 0.167123,0.0566403 0.171465,0.041689 0.174472,0.0264131 0.176121,0.0109316 0.176399,-0.00463501 0.175304,-0.0201655 0.172844,-0.0355391 0.169039,-0.0506359 0.163918,-0.0653386 0.15752,-0.0795327 0.149897,-0.0931076 0.141107,-0.105958 0.131218,-0.117983 0.120308,-0.12909 0.108461,-0.139192 0.0957698,-0.14821 0.0823331,-0.156075 0.0682556,-0.162725 0.0536467,-0.168108 0.0386202,-0.172182 0.023293,-0.174916 0.00778454,-0.176288 -0.00758682,-0.174039 -0.0227029,-0.172719 -0.0376467,-0.170088 -0.0523049,-0.166167 -0.0665663,-0.160985 -0.0803227,-0.154582 -0.0934696,-0.147006 -0.105907,-0.138314 0.570563,-0.57071 0.00116581,0.0545545 1.10362,-0.163071 0.412374,-0.192721 0.829661,0.351765 0,0.590403 -8.88178e-16,3.05 -0.00114159,0.0261467 -0.00341608,0.0259477 -0.00566458,0.0255513 -0.00786996,0.0249603 -0.0100155,0.0241794 -0.0120847,0.0232145 -0.014062,0.0220729 -0.0159323,0.0207634 -0.0176813,0.0192958 -0.0192958,0.0176813 -0.0207634,0.0159323 -0.0220729,0.014062 -0.0232145,0.0120847 -0.0241794,0.0100155 -0.0249603,0.00786996 -0.0255513,0.00566458 -0.0259477,0.00341608 -0.0261467,0.00114159 -6.1,-8.88178e-16 -0.0261467,-0.00114159 -0.0259477,-0.00341608 -0.0255513,-0.00566458 -0.0249603,-0.00786996 -0.0241794,-0.0100155 -0.0232145,-0.0120847 -0.0220729,-0.014062 -0.0207634,-0.0159323 -0.0192958,-0.0176813 -0.0176813,-0.0192958 -0.0159323,-0.0207634 -0.014062,-0.0220729 -0.0120847,-0.0232145 -0.0100155,-0.0241794 -0.00786996,-0.0249603 -0.00566458,-0.0255513 -0.00341608,-0.0259477 -0.00114159,-0.0261467 4.44089e-16,-3.05 z "/>
<path fill="rgb(241,240,234)" stroke="rgb(241,240,234)" d="M 1.19754,6.3395 l -2.10432e-08,1.99449e-08 -0.110677,-0.127094 -0.0995842,-0.135961 -0.0877842,-0.143862 -0.0753608,-0.150742 -0.0624023,-0.156551 -0.0490007,-0.161249 -0.0352511,-0.164802 -0.0212513,-0.167185 -0.00710057,-0.16838 0.00710058,0.16838 0.0212513,0.167185 0.0352511,0.164802 0.0490007,0.161249 0.0624023,0.156551 0.0753608,0.150742 0.0877842,0.143862 0.0995842,0.135961 0.110677,0.127094 z "/>
<path fill="rgb(241,240,234)" stroke="rgb(241,240,234)" d="M 1.3493,6.19566 l -0.151765,0.143844 -0.110677,-0.127094 -0.0995842,-0.135961 -0.0877842,-0.143862 -0.0753608,-0.150742 -0.0624023,-0.156551 -0.0490007,-0.161249 -0.0352511,-0.164802 -0.0212513,-0.167185 -0.00710058,-0.16838 0.00743485,-0.172291 0.0222493,-0.17101 0.0368983,-0.168457 0.051273,-0.164653 0.0652664,-0.159624 0.0787746,-0.153408 0.0916972,-0.146051 0.103938,-0.137609 0.115406,-0.128144 0.126016,-0.117726 0.135689,-0.106433 0.144353,-0.0943479 0.151944,-0.0815618 0.158406,-0.0681692 0.163689,-0.0542699 0.167756,-0.0399671 0.170575,-0.0253671 0.172126,-0.0105785 0.172398,0.00428869 0.171388,0.019124 0.169103,0.0338172 0.165561,0.0482589 0.160788,0.0623418 0.15482,0.0759613 0.147701,0.0890159 0.139484,0.101409 -0.130138,0.163669 -0.1249,-0.0908064 -0.132259,-0.0797092 -0.138634,-0.0680194 -0.143978,-0.0558239 -0.148252,-0.0432134 -0.151423,-0.0302816 -0.153469,-0.0171246 -0.154373,-0.0038403 -0.15413,0.00947254 -0.152741,0.022715 -0.150217,0.0357885 -0.146575,0.0485959 -0.141844,0.0610421 -0.136058,0.0730344 -0.129261,0.0844837 -0.121503,0.0953049 -0.112841,0.105417 -0.10334,0.114746 -0.0930711,0.123222 -0.0821101,0.130782 -0.0705387,0.137369 -0.0584427,0.142935 -0.0459123,0.147438 -0.0330405,0.150845 -0.0199231,0.153131 -0.00665753,0.154278 0.0063582,0.150776 0.0190295,0.149705 0.0315656,0.147572 0.0438776,0.14439 0.055878,0.140184 0.0674817,0.134981 0.0786062,0.128821 0.0891726,0.121746 0.0991058,0.113806 z "/>
<path fill="rgb(241,240,234)" stroke="rgb(241,240,234)" d="M 4.64912,4.96368 l -0.00778454,0.176288 -0.023293,0.174916 -0.0386202,0.172182 -0.0536467,0.168108 -0.0682556,0.162725 -0.0823331,0.156075 -0.0957698,0.14821 -0.108461,0.139192 -0.120308,0.12909 -0.131218,0.117983 -0.141107,0.105958 -0.149897,0.0931076 -0.15752,0.0795327 -0.163918,0.0653386 -0.169039,0.0506359 -0.172844,0.0355391 -0.175304,0.0201655 -0.176399,0.00463501 -0.176121,-0.0109316 -0.174472,-0.0264131 -0.171465,-0.041689 -0.167123,-0.0566403 -0.16148,-0.0711507 -0.15458,-0.0851073 -0.146476,-0.0984013 -0.137233,-0.110929 -0.126921,-0.122594 2.10432e-08,-1.99449e-08 0.126921,0.122594 0.137233,0.110929 0.146476,0.0984013 0.15458,0.0851073 0.16148,0.0711507 0.167123,0.0566403 0.171465,0.041689 0.174472,0.0264131 0.176121,0.0109316 0.176399,-0.00463501 0.175304,-0.0201655 0.172844,-0.035539 0.169039,-0.0506359 0.163918,-0.0653386 0.15752,-0.0795327 0.149897,-0.0931076 0.141107,-0.105958 0.131218,-0.117983 0.120308,-0.12909 0.108461,-0.139192 0.0957698,-0.14821 0.0823331,-0.156075 0.0682556,-0.162725 0.0536467,-0.168108 0.0386202,-0.172182 0.023293,-0.174916 0.00778454,-0.176288 z "/>
<path fill="rgb(241,240,234)" stroke="rgb(241,240,234)" d="M 4.44002,4.96368 l -0.00659321,-0.153532 -0.0197311,-0.152402 -0.0327237,-0.150149 -0.0454753,-0.146791 -0.0578922,-0.142352 -0.0698827,-0.136865 -0.0813587,-0.13037 -0.0922357,-0.122915 0.148487,-0.148526 0.105907,0.138314 0.0934696,0.147006 0.0803227,0.154582 0.0665663,0.160985 0.0523049,0.166167 0.0376467,0.170088 0.0227029,0.172719 0.00758682,0.174039 -0.00778454,0.176288 -0.023293,0.174916 -0.0386202,0.172182 -0.0536467,0.168108 -0.0682556,0.162725 -0.0823331,0.156075 -0.0957698,0.14821 -0.108461,0.139192 -0.120308,0.12909 -0.131218,0.117983 -0.141107,0.105958 -0.149897,0.0931076 -0.15752,0.0795327 -0.163918,0.0653386 -0.169039,0.0506359 -0.172844,0.035539 -0.175304,0.0201655 -0.176399,0.00463501 -0.176121,-0.0109316 -0.174472,-0.0264131 -0.171465,-0.041689 -0.167123,-0.0566403 -0.16148,-0.0711507 -0.15458,-0.0851073 -0.146476,-0.0984013 -0.137233,-0.110929 -0.126921,-0.122594 0.151765,-0.143844 0.113651,0.109777 0.122885,0.0993316 0.131162,0.0881134 0.138418,0.0762092 0.144597,0.0637119 0.14965,0.0507185 0.153538,0.0373303 0.156231,0.0236516 0.157707,0.00978867 0.157956,-0.00415041 0.156976,-0.0180572 0.154773,-0.0318234 0.151366,-0.0453419 0.14678,-0.0585074 0.141052,-0.0712175 0.134225,-0.0833731 0.126354,-0.0948798 0.117499,-0.105648 0.107729,-0.115593 0.0971212,-0.124639 0.0857569,-0.132715 0.0737251,-0.139757 0.0611194,-0.145712 0.0480379,-0.150532 0.0345824,-0.15418 0.0208577,-0.156628 0.00697066,-0.157857 z "/>
<path fill="rgb(241,240,234)" stroke="rgb(241,240,234)" d="M 3.93403,3.43103 l -0.148474,0.148512 -0.00724707,-0.0059185 -0.0072779,-0.00588055 -0.00730852,-0.00584245 0.130138,-0.163669 0.013484,0.010817 0.01339,0.0109331 0.013295,0.0110485 z "/>
<path fill="rgb(241,240,234)" stroke="rgb(241,240,234)" d="M 3.57216,4.88672 l 0.15046,0 0.00346184,0.0769608 -0.00419182,0.0949278 -0.0125428,0.0941888 -0.0207962,0.0927166 -0.0288877,0.0905227 -0.0367543,0.0876241 -0.0443348,0.0840433 -0.00641401,0.00992613 0,-0.63091 z "/>
<path fill="rgb(241,240,234)" stroke="rgb(241,240,234)" d="M 3.57216,4.88672 l 0,-0.47772 0.00100075,0.001513 0.0459328,0.0851963 0.0380982,0.0889762 0.0299559,0.0920374 0.0215716,0.0943552 0.013013,0.0959109 0.000887542,0.0197311 -0.15046,0 z "/>
<path fill="rgb(241,240,234)" stroke="rgb(241,240,234)" d="M 3.20219,5.88672 l -0.0257289,0.0159814 -0.0848217,0.0428268 -0.0882665,0.0351836 -0.0910241,0.0272665 -0.0930732,0.0191371 -0.0943978,0.0108587 -0.0949875,0.00249586 -0.0577276,-0.00358307 0,-0.150167 0.630027,0 z "/>
<path fill="rgb(241,240,234)" stroke="rgb(241,240,234)" d="M 1.57216,4.96368 l 0.00332108,-0.0769608 0.694193,0 0.302486,0.293788 0,0.706212 -0.477309,0 -0.00626583,-0.00344979 -0.0788747,-0.0529872 -0.0738971,-0.0597333 -0.0683444,-0.0660144 -0.0595975,-0.0684375 -0.0536242,-0.0732121 -0.04727,-0.0774668 -0.0405803,-0.0811714 -0.0336024,-0.0842997 -0.0263859,-0.0868294 -0.018982,-0.0887426 -0.0114434,-0.0900256 -0.00382352,-0.0906694 z "/>
<path fill="rgb(241,240,234)" stroke="rgb(241,240,234)" d="M 2.83499,4.88672 l -0.262824,-0.255267 0,-0.741032 0.0573024,-0.00352169 0.0928329,0.00230937 0.0922888,0.0102979 0.0910586,0.0182099 0.0891514,0.0259865 0.0865814,0.0335699 0.0833676,0.0409037 0.0795341,0.0479333 0.0751092,0.0546066 0.0729762,0.0635823 0.066973,0.0698775 0.0604287,0.0756082 0.0523957,0.0792153 0,0.47772 -0.737176,0 z "/>
<path fill="rgb(241,240,234)" stroke="rgb(241,240,234)" d="M 3.20219,5.88672 l -0.630027,0 0,-0.706212 0.331547,0.322014 0.0128344,0.0114207 0.0137809,0.0102586 0.0146226,0.0090185 0.0153529,0.00770974 0.0159665,0.0063423 0.0164585,0.0049266 0.0168252,0.0034734 0.0170639,0.00199377 0.0171728,0.000498963 0.0171509,-0.000999641 0.0169985,-0.00249064 0.0167168,-0.00396268 0.0163078,-0.00540456 0.0157747,-0.00680531 0.0151215,-0.00815427 0.0143533,-0.00944117 0.0134758,-0.0106562 0.0124958,-0.0117902 0.0114207,-0.0128344 0.0102586,-0.0137809 0.0090185,-0.0146226 0.00770974,-0.0153529 0.0063423,-0.0159665 0.0049266,-0.0164585 0.0034734,-0.0168252 0.00199377,-0.0170639 0.000498963,-0.0171728 -0.000999641,-0.0171509 -0.00249064,-0.0169985 -0.00396268,-0.0167168 -0.00540456,-0.0163078 -0.00680531,-0.0157747 -0.00815427,-0.0151215 -0.00944117,-0.0143533 -0.0106562,-0.0134758 -0.0117902,-0.0124958 -0.343134,-0.333267 0.737176,0 0,0.63091 -0.0451561,0.0698822 -0.0584041,0.0749521 -0.0647833,0.0695124 -0.0706583,0.0635316 -0.0759832,0.0570562 -0.0549877,0.0341553 z "/>
<path fill="rgb(241,240,234)" stroke="rgb(241,240,234)" d="M 2.09485,5.88672 l 0.477309,0 0,0.150167 -0.0371101,-0.00230337 -0.0939498,-0.0142229 -0.0923304,-0.0224487 -0.0899923,-0.0304997 -0.0869537,-0.0383133 -0.0769723,-0.0423788 z "/>
<path fill="rgb(241,240,234)" stroke="rgb(241,240,234)" d="M 2.26968,4.88672 l -0.694193,0 0.000682439,-0.0158144 0.0119808,-0.0920855 0.019869,-0.0907111 0.0276095,-0.0886622 0.0351447,-0.0859542 0.0424186,-0.0826071 0.0493771,-0.0786459 0.0559686,-0.0740999 0.0621439,-0.069003 0.0678571,-0.0633931 0.0730659,-0.0573118 0.0777314,-0.0508045 0.0818191,-0.0439194 0.0852984,-0.0367078 0.0881435,-0.0292233 0.0903333,-0.0215215 0.0918514,-0.0136597 0.0353843,-0.00217465 0,0.741032 -0.272212,-0.264385 -0.0128344,-0.0114207 -0.0137809,-0.0102586 -0.0146226,-0.0090185 -0.0153529,-0.00770974 -0.0159665,-0.0063423 -0.0164585,-0.0049266 -0.0168252,-0.0034734 -0.0170639,-0.00199377 -0.0171728,-0.000498963 -0.0171509,0.000999641 -0.0169985,0.00249064 -0.0167168,0.00396268 -0.0163078,0.00540456 -0.0157747,0.00680531 -0.0151215,0.00815427 -0.0143533,0.00944117 -0.0134758,0.0106562 -0.0124958,0.0117902 -0.0114207,0.0128344 -0.0102586,0.0137809 -0.0090185,0.0146226 -0.00770974,0.0153529 -0.0063423,0.0159665 -0.0049266,0.0164585 -0.0034734,0.0168252 -0.00199377,0.0170639 -0.000498963,0.0171728 0.000999641,0.0171509 0.00249064,0.0169985 0.00396268,0.0167168 0.00540456,0.0163078 0.00680531,0.0157747 0.00815427,0.0151215 0.00944117,0.0143533 0.0106562,0.0134758 0.0117902,0.0124958 0.244137,0.237117 z "/>
<path fill="rgb(241,240,234)" stroke="rgb(241,240,234)" d="M 6.065,2.13209 l 0.00672776,0.00504361 0.00626705,0.00560579 0.00575951,0.00612608 0.00520894,0.00660059 0.00461944,0.00702578 0.00399543,0.00739847 0.00334156,0.00771588 0.00266272,0.00797563 0.00196399,0.00817579 0.00125058,0.00831486 0.000527821,0.00839179 -0.000198877,0.00840602 -0.00092409,0.00835744 -0.0016424,0.00824641 -0.00234843,0.00807376 -0.00303692,0.00784079 -0.00370271,0.00754922 -0.00434084,0.00720124 -0.00494653,0.00679946 -0.00551526,0.00634686 -0.00604278,0.00584685 -0.00652514,0.00530314 -0.00695875,0.00471981 -0.00734036,0.00410121 -0.00766712,0.00345196 -0.00793659,0.00277692 -0.00814676,0.00208113 -0.00829605,0.00136979 -0.00838335,0.000648214 -0.00840801,-7.82051e-05 -0.00836985,-0.00080404 -0.00826914,-0.00152387 -0.00810664,-0.00223231 -0.00788357,-0.00292407 -0.00760159,-0.00359398 -0.877131,-0.416109 -0.014835,-0.0486218 -0.00233476,-0.00779026 -0.00163716,-0.00796611 -0.000926757,-0.00807963 -0.000209098,-0.00812991 0.000510197,-0.00811658 0.0012255,-0.00803974 0.00193121,-0.00789998 0.00262181,-0.0076984 0.00329189,-0.00743658 0.00393622,-0.00711656 0.00454974,-0.00674085 0.00512766,-0.0063124 0.00566545,-0.00583455 0.00615891,-0.00531104 0.00660417,-0.00474597 0.00699775,-0.00414376 0.00733657,-0.00350912 0.00761798,-0.00284702 0.00783978,-0.00216265 0.00800023,-0.00146135 0.00809807,-0.000748618 0.00813255,-3.0026e-05 0.00810338,0.000688801 0.0080108,0.00140224 0.00785554,0.0021047 0.0076388,0.0027907 0.110975,0.0346589 0.714523,0.350336 0.0445882,0.0285324 z "/>
<path fill="rgb(241,240,234)" stroke="rgb(241,240,234)" d="M 5.85196,2.30948 l 0.00636489,0.00794786 0.00565626,0.00846682 0.00490555,0.00892277 0.00411834,0.00931234 0.00330048,0.00963261 0.00245807,0.00988121 0.00159736,0.0100563 0.000724769,0.0101565 -0.000153215,0.0101812 -0.00103006,0.0101301 -0.00189924,0.0100037 -0.00275429,0.00980277 -0.00358884,0.00952893 -0.00439669,0.00918419 -0.00517182,0.00877112 -0.00590848,0.00829278 -0.00660116,0.00775274 -0.00724474,0.00715501 -0.0078344,0.00650404 -0.00836577,0.00580467 -0.00883489,0.00506212 -0.00923827,0.00428189 -0.00957292,0.00346981 -0.00983633,0.00263191 -0.0100266,0.00177442 -0.0101422,0.000903737 -0.0101823,2.63245e-05 -0.0101467,-0.000851284 -0.0100356,-0.00172256 -0.792447,-0.375935 -0.0259669,-0.0240941 -0.0238331,-0.0262067 -0.021528,-0.028131 -1.86517e-14,-2.66454e-14 -0.00435185,-0.00744794 -0.00368693,-0.00779853 -0.00299402,-0.00808989 -0.00227837,-0.00831983 -0.00154542,-0.00848659 -0.000800735,-0.00858891 -4.99706e-05,-0.00862601 0.000701173,-0.00859761 0.00144699,-0.00850392 0.00218182,-0.00834566 0.00290009,-0.00812404 0.00359633,-0.00784072 0.00426527,-0.00749786 0.00490182,-0.00709807 0.00550114,-0.00664439 0.0060587,-0.00614025 0.00657025,-0.00558948 0.0070319,-0.00499628 0.00744017,-0.00436513 0.00779193,-0.00370084 0.00808454,-0.00300845 0.00831575,-0.00229321 0.00848382,-0.00156056 0.00858746,-0.000816058 0.0086259,-6.53615e-05 0.00859884,0.000685832 0.00850649,0.00143182 0.00834954,0.00216693 0.0081292,0.00288559 0.857252,0.406678 z "/>
<path fill="rgb(241,240,234)" stroke="rgb(241,240,234)" d="M 5.64154,2.52127 l 0.00587107,0.00735682 0.00521322,0.00783675 0.00451635,0.00825802 0.00378567,0.00861748 0.00302666,0.00891244 0.002245,0.00914069 0.00144653,0.00930053 0.000637238,0.00939075 -0.000176826,0.00941069 -0.000989566,0.00936018 -0.0017949,0.00923962 -0.0025868,0.0090499 -0.00335934,0.00879245 -0.00410673,0.00846918 -0.00482339,0.00808253 -0.00550394,0.00763537 -0.0061433,0.00713107 -0.00673667,0.0065734 -0.00727962,0.00596652 -0.00776809,0.00531498 -0.00819841,0.00462367 -0.00856737,0.00389774 -0.00887221,0.00314264 -0.00911063,0.00236402 -0.00928087,0.00156771 -0.0621389,0.0114884 0.019408,-0.0332508 -0.687525,-0.32526 -0.00670338,-0.00354306 -0.00636327,-0.00412278 -0.00597316,-0.00467011 -0.00553611,-0.00518074 -0.00505556,-0.00565065 -0.00453528,-0.00607617 -0.00397936,-0.00645393 -0.00339217,-0.00678098 -0.00277832,-0.00705475 -0.00214265,-0.00727307 -0.00149013,-0.00743425 -0.000825906,-0.007537 -0.000155191,-0.00758053 0.000516743,-0.00756449 0.00118462,-0.00748901 0.00184318,-0.00735467 0.00248726,-0.00716255 0.0031118,-0.00691413 0.00371188,-0.00661139 0.00428279,-0.00625669 0.00482005,-0.00585283 0.00531944,-0.00540297 0.00577702,-0.00491066 0.0061892,-0.00437976 0.00655275,-0.00381444 0.00686481,-0.00321915 0.00162505,-0.000639453 0.00163221,-0.000620939 0.00163916,-0.000602346 0.0123114,-0.00386857 0.0125926,-0.00282167 0.012785,-0.00175486 0.0128872,-0.000675675 0.0128984,0.000408281 0.0128186,0.00148936 0.0126484,0.00255992 0.0123889,0.00361243 0.688855,0.326791 z "/>
<path fill="rgb(241,240,234)" stroke="rgb(241,240,234)" d="M 5.68797,1.63167 l 0.377149,0.182987 0.0061527,0.00902151 0.00533823,0.00952611 0.00448267,0.00995736 0.00359259,0.010312 0.00267486,0.0105872 0.00173654,0.0107809 0.00078485,0.0108916 -0.000172883,0.0109185 -0.00112928,0.0108613 -0.00207699,0.0107205 -0.00300871,0.0104972 -0.00391727,0.0101931 -0.00479567,0.00981045 -0.00563715,0.00935232 -0.00643523,0.0088222 -0.00718378,0.00822415 -0.00787702,0.0075628 -0.00850962,0.00684322 -0.00907671,0.00607097 -0.00957393,0.00525197 -0.00999744,0.00439255 -0.010344,0.00349931 -0.0106109,0.00257913 -0.0107961,0.0016391 -0.0108983,0.000686447 -0.622013,-0.306197 -0.0153718,-0.0486072 -0.00255464,-0.0074944 -0.00189897,-0.00768675 -0.00122916,-0.00782185 -0.000550194,-0.0078987 0.000132868,-0.00791673 0.000814941,-0.00787579 0.00149095,-0.0077762 0.00215585,-0.0076187 0.00280469,-0.00740445 0.00343265,-0.00713506 0.00403504,-0.00681254 0.00460738,-0.00643927 0.00514541,-0.00601806 0.00564511,-0.00555202 0.00610278,-0.00504463 0.00651499,-0.00449967 0.00687869,-0.0039212 0.00719115,-0.00331353 0.00745006,-0.00268118 0.00765349,-0.00202887 0.00779992,-0.00136144 0.00788825,-0.000683873 0.00791784,-1.21325e-06 0.00788846,0.000681455 0.250229,-0.0167963 0.102568,0.00703472 -0.0926,0.106882 z "/>
<path fill="rgb(241,240,234)" stroke="rgb(241,240,234)" d="M 7.1,3.09447 l -0.830848,-0.352269 -0.428628,0.200317 -1.02769,0.151851 -0.00087907,-0.0411363 0.00040766,-0.0190185 0.00203209,-0.0189141 0.00364164,-0.0186711 0.00522453,-0.0182914 0.00676916,-0.0177778 0.00826423,-0.017134 0.00969879,-0.0163647 0.0110623,-0.0154756 0.0123449,-0.0144733 0.013537,-0.0133649 0.01463,-0.0121587 0.0156159,-0.0108634 0.0164875,-0.00948859 0.0172383,-0.00804431 0.0178629,-0.00654113 0.0183567,-0.00499005 0.313286,-0.0185265 0.171992,-0.0316636 0.11206,-0.0207179 0.014565,-0.00264172 0.0142791,-0.00390195 0.0138844,-0.00513244 0.0133839,-0.00632382 0.0127813,-0.007467 0.0120814,-0.00855327 0.0112894,-0.00957436 0.0104113,-0.0105225 0.00945392,-0.0113904 0.00842448,-0.0121715 0.00733083,-0.0128599 0.00618131,-0.0134503 0.00498469,-0.0139381 0.00375008,-0.0143197 0.00248688,-0.0145922 0.00120474,-0.0147535 -8.65855e-05,-0.0148024 -0.00137725,-0.0147384 -0.00265742,-0.0145622 0.0146368,0.00335712 0.0148738,0.00206781 0.0149975,0.000762736 0.0150069,-0.000548146 0.0149019,-0.00185485 0.0146833,-0.00314742 0.0143529,-0.00441601 0.0139131,-0.00565094 0.0133672,-0.00684281 0.0127195,-0.00798253 0.0119749,-0.00906142 0.011139,-0.0100713 0.0102182,-0.0110043 0.00921951,-0.0118536 0.0081506,-0.0126125 0.00701957,-0.0132752 0.00583505,-0.0138369 0.00460606,-0.014293 0.00334197,-0.0146403 0.00205242,-0.014876 0.000747219,-0.0149983 -0.000563672,-0.0150063 -0.00187027,-0.0149 -0.00316261,-0.0146801 0.0121591,0.00629628 0.0126676,0.0051981 0.0130771,0.00405931 0.0133844,0.00288882 0.0135872,0.00169576 0.0136839,0.000489461 0.0136736,-0.000720666 0.0135566,-0.00192516 0.0133337,-0.00311462 0.0130066,-0.00427975 0.0125779,-0.00541145 0.012051,-0.00650088 0.0114299,-0.00753953 0.0107196,-0.00851929 0.00992549,-0.0094325 0.00905388,-0.010272 0.00811155,-0.0110313 0.00710586,-0.0117045 0.00604466,-0.0122861 0.00493625,-0.0127719 0.00378928,-0.0131578 0.0026127,-0.013441 0.00141573,-0.0136192 0.000207688,-0.013691 -0.00100197,-0.0136559 -0.00220381,-0.0135141 -0.00338842,-0.0132667 -0.00454658,-0.0129157 -0.00566921,-0.0124638 -0.00674757,-0.0119146 -0.00777321,-0.0112723 -0.00873814,-0.0105419 -0.00963481,-0.00972922 -0.0104562,-0.00884052 -0.011196,-0.00788276 -0.0222941,-0.0142662 -0.0255301,-0.0125677 0.0137257,-0.00778799 0.013013,-0.00892809 0.0122057,-0.0100034 0.0113099,-0.0110061 0.010332,-0.0119288 0.00927909,-0.012765 0.00815882,-0.0135086 0.00697932,-0.014154 0.00574915,-0.0146968 0.00447726,-0.0151328 0.00317286,-0.015459 0.00184543,-0.015673 0.00050461,-0.0157732 -0.000839877,-0.0157589 -0.00217827,-0.0156302 -0.00350085,-0.015388 -0.00479801,-0.0150342 -0.00606035,-0.0145712 -0.00727869,-0.0140024 -0.0084442,-0.013332 0.170534,-0.157913 0.211683,0.0765629 0.0211923,0.00875797 0.0203228,0.0106207 0.01929,0.0123981 0.0181021,0.0140758 0.0167688,0.0156404 0.0153007,0.0170793 0.0137097,0.018381 0.0120084,0.0195349 0,0.136091 0.463503,0.198991 0,0.940713 z "/>
<path fill="rgb(187,30,16)" stroke="rgb(187,30,16)" d="M 3.85889,4.00359 l -0.0764574,-0.0891564 -0.0830115,-0.0830885 -0.0890855,-0.07654 0.175217,-0.175262 0.0882392,0.0774258 0.0829771,0.0830404 0.0773585,0.0882982 -0.175237,0.175283 z "/>
<path fill="rgb(241,240,234)" stroke="rgb(241,240,234)" d="M 4.75318,3.10907 l -0.570563,0.57071 -0.0779461,-0.0877352 -0.082958,-0.0830123 -0.0876841,-0.0780036 0.977981,-0.978234 0.337601,0.159715 -0.152423,0.152462 -0.120206,0.00710851 -0.0237324,0.00599819 -0.0231235,0.00803181 -0.0223407,0.010005 -0.0213898,0.011903 -0.0202781,0.0137115 -0.0190139,0.0154168 -0.0176067,0.0170062 -0.0160671,0.0184677 -0.0144066,0.0197903 -0.0126378,0.0209641 -0.010774,0.0219802 -0.0088291,0.022831 -0.00681783,0.0235101 -0.00475528,0.0240124 -0.00265697,0.0243341 -0.000538681,0.0244728 0.00116581,0.0545545 z "/>
<path fill="rgb(241,240,234)" stroke="rgb(241,240,234)" d="M 4.18262,3.67978 l -0.148487,0.148526 -0.0773585,-0.0882982 -0.0829771,-0.0830404 -0.0882392,-0.0774258 0.148474,-0.148512 0.0876841,0.0780036 0.082958,0.0830123 0.0779461,0.0877352 z "/>
<path fill="rgb(241,240,234)" stroke="rgb(241,240,234)" d="M 6.27417,1.55682 l -0.207361,0.192016 -0.28234,-0.136987 0.0831789,-0.0960079 1.44287e-05,-0.0189512 0.644938,-0.645105 0.242754,0.242214 -0.481184,0.462821 z "/>
<path fill="rgb(241,240,234)" stroke="rgb(241,240,234)" d="M 7.1,3.09447 l 0,-0.940713 0,-0.0652518 0,-1.38851 -0.00114159,-0.0261467 -0.00341608,-0.0259477 -0.00566458,-0.0255513 -0.00786996,-0.0249603 -0.0100155,-0.0241794 -0.0120847,-0.0232145 -0.014062,-0.0220729 -0.0159323,-0.0207634 -0.0176813,-0.0192958 -0.0192958,-0.0176813 -0.0207634,-0.0159323 -0.0220729,-0.014062 -0.0232145,-0.0120847 -0.0241794,-0.0100155 -0.0249603,-0.00786996 -0.0255513,-0.00566458 -0.0259477,-0.00341608 -0.0261467,-0.00114159 -6.1,0 -0.0261467,0.00114159 -0.0259477,0.00341608 -0.0255513,0.00566458 -0.0249603,0.00786996 -0.0241794,0.0100155 -0.0232145,0.0120847 -0.0220729,0.014062 -0.0207634,0.0159323 -0.0192958,0.0176813 -0.0176813,0.0192958 -0.0159323,0.0207634 -0.014062,0.0220729 -0.0120847,0.0232145 -0.0100155,0.0241794 -0.00786996,0.0249603 -0.00566458,0.0255513 -0.00341608,0.0259477 -0.00114159,0.0261467 -4.44089e-16,3.05 -0.2,-4.44089e-16 4.44089e-16,-3.05 0.00190265,-0.0435779 0.00569347,-0.0432462 0.00944096,-0.0425854 0.0131166,-0.0416005 0.0166924,-0.0402991 0.0201412,-0.0386909 0.0234367,-0.0367882 0.0265538,-0.0346056 0.0294688,-0.0321596 0.0321596,-0.0294688 0.0346056,-0.0265538 0.0367882,-0.0234367 0.0386909,-0.0201412 0.0402991,-0.0166924 0.0416005,-0.0131166 0.0425854,-0.00944096 0.0432462,-0.00569347 0.0435779,-0.00190265 6.1,0 0.0435779,0.00190265 0.0432462,0.00569347 0.0425854,0.00944096 0.0416005,0.0131166 0.0402991,0.0166924 0.0386909,0.0201412 0.0367882,0.0234367 0.0346056,0.0265538 0.0321596,0.0294688 0.0294688,0.0321596 0.0265538,0.0346056 0.0234367,0.0367882 0.0201412,0.0386909 0.0166924,0.0402991 0.0131166,0.0416005 0.00944096,0.0425854 0.00569347,0.0432462 0.00190265,0.0435779 0,3.05 -0.2,4.44089e-16 0,-0.590403 0,-0.0651263 z "/>
<path fill="rgb(241,240,234)" stroke="rgb(241,240,234)" d="M 7.1,6.8 l 8.88178e-16,-3.05 0.2,-4.44089e-16 -8.88178e-16,3.05 -0.00190265,0.0435779 -0.00569347,0.0432462 -0.00944096,0.0425854 -0.0131166,0.0416005 -0.0166924,0.0402991 -0.0201412,0.0386909 -0.0234367,0.0367882 -0.0265538,0.0346056 -0.0294688,0.0321596 -0.0321596,0.0294688 -0.0346056,0.0265538 -0.0367882,0.0234367 -0.0386909,0.0201412 -0.0402991,0.0166924 -0.0416005,0.0131166 -0.0425854,0.00944096 -0.0432462,0.00569347 -0.0435779,0.00190265 -6.1,-8.88178e-16 -0.0435779,-0.00190265 -0.0432462,-0.00569347 -0.0425854,-0.00944096 -0.0416005,-0.0131166 -0.0402991,-0.0166924 -0.0386909,-0.0201412 -0.0367882,-0.0234367 -0.0346056,-0.0265538 -0.0321596,-0.0294688 -0.0294688,-0.0321596 -0.0265538,-0.0346056 -0.0234367,-0.0367882 -0.0201412,-0.0386909 -0.0166924,-0.0402991 -0.0131166,-0.0416005 -0.00944096,-0.0425854 -0.00569347,-0.0432462 -0.00190265,-0.0435779 4.44089e-16,-3.05 0.2,4.44089e-16 -4.44089e-16,3.05 0.00114159,0.0261467 0.00341608,0.0259477 0.00566458,0.0255513 0.00786996,0.0249603 0.0100155,0.0241794 0.0120847,0.0232145 0.014062,0.0220729 0.0159323,0.0207634 0.0176813,0.0192958 0.0192958,0.0176813 0.0207634,0.0159323 0.0220729,0.014062 0.0232145,0.0120847 0.0241794,0.0100155 0.0249603,0.00786996 0.0255513,0.00566458 0.0259477,0.00341608 0.0261467,0.00114159 6.1,8.88178e-16 0.0261467,-0.00114159 0.0259477,-0.00341608 0.0255513,-0.00566458 0.0249603,-0.00786996 0.0241794,-0.0100155 0.0232145,-0.0120847 0.0220729,-0.014062 0.0207634,-0.0159323 0.0192958,-0.0176813 0.0176813,-0.0192958 0.0159323,-0.0207634 0.014062,-0.0220729 0.0120847,-0.0232145 0.0100155,-0.0241794 0.00786996,-0.0249603 0.00566458,-0.0255513 0.00341608,-0.0259477 0.00114159,-0.0261467 z "/>
<path fill="rgb(0,91,140)" stroke="rgb(0,91,140)" d="M 0.2,3.75 l -0.2,0 4.44089e-16,-3.05 0.00266371,-0.061009 0.00797086,-0.0605447 0.0132173,-0.0596196 0.0183632,-0.0582408 0.0233694,-0.0564187 0.0281977,-0.0541672 0.0328114,-0.0515035 0.0371753,-0.0484478 0.0412564,-0.0450234 0.0450234,-0.0412564 0.0484478,-0.0371753 0.0515035,-0.0328114 0.0541672,-0.0281977 0.0564187,-0.0233694 0.0582408,-0.0183632 0.0596196,-0.0132173 0.0605447,-0.00797086 0.061009,-0.00266371 6.1,-8.88178e-16 0.061009,0.00266371 0.0605447,0.00797086 0.0596196,0.0132173 0.0582408,0.0183632 0.0564187,0.0233694 0.0541672,0.0281977 0.0515035,0.0328114 0.0484478,0.0371753 0.0450234,0.0412564 0.0412564,0.0450234 0.0371753,0.0484478 0.0328114,0.0515035 0.0281977,0.0541672 0.0233694,0.0564187 0.0183632,0.0582408 0.0132173,0.0596196 0.00797086,0.0605447 0.00266371,0.061009 -1.77636e-15,3.05 -0.2,-8.88178e-16 0,-3.05 -0.00190265,-0.0435779 -0.00569347,-0.0432462 -0.00944096,-0.0425854 -0.0131166,-0.0416005 -0.0166924,-0.0402991 -0.0201412,-0.0386909 -0.0234367,-0.0367882 -0.0265538,-0.0346056 -0.0294688,-0.0321596 -0.0321596,-0.0294688 -0.0346056,-0.0265538 -0.0367882,-0.0234367 -0.0386909,-0.0201412 -0.0402991,-0.0166924 -0.0416005,-0.0131166 -0.0425854,-0.00944096 -0.0432462,-0.00569347 -0.0435779,-0.00190265 -6.1,0 -0.0435779,0.00190265 -0.0432462,0.00569347 -0.0425854,0.00944096 -0.0416005,0.0131166 -0.0402991,0.0166924 -0.0386909,0.0201412 -0.0367882,0.0234367 -0.0346056,0.0265538 -0.0321596,0.0294688 -0.0294688,0.0321596 -0.0265538,0.0346056 -0.0234367,0.0367882 -0.0201412,0.0386909 -0.0166924,0.0402991 -0.0131166,0.0416005 -0.00944096,0.0425854 -0.00569347,0.0432462 -0.00190265,0.0435779 -4.44089e-16,3.05 z "/>
<path fill="rgb(0,91,140)" stroke="rgb(0,91,140)" d="M 6.8,7.3 l 0.0435779,-0.00190265 0.0432462,-0.00569347 0.0425854,-0.00944096 0.0416005,-0.0131166 0.0402991,-0.0166924 0.0386909,-0.0201412 0.0367882,-0.0234367 0.0346056,-0.0265538 0.0321596,-0.0294688 0.0294688,-0.0321596 0.0265538,-0.0346056 0.0234367,-0.0367882 0.0201412,-0.0386909 0.0166924,-0.0402991 0.0131166,-0.0416005 0.00944096,-0.0425854 0.00569347,-0.0432462 0.00190265,-0.0435779 8.88178e-16,-3.05 0.2,8.88178e-16 1.77636e-15,3.05 -0.00266371,0.061009 -0.00797086,0.0605447 -0.0132173,0.0596196 -0.0183632,0.0582408 -0.0233694,0.0564187 -0.0281977,0.0541672 -0.0328114,0.0515035 -0.0371753,0.0484478 -0.0412564,0.0450234 -0.0450234,0.0412564 -0.0484478,0.0371753 -0.0515035,0.0328114 -0.0541672,0.0281977 -0.0564187,0.0233694 -0.0582408,0.0183632 -0.0596196,0.0132173 -0.0605447,0.00797086 -0.061009,0.00266371 -6.1,-8.88178e-16 -0.061009,-0.00266371 -0.0605447,-0.00797086 -0.0596196,-0.0132173 -0.0582408,-0.0183632 -0.0564187,-0.0233694 -0.0541672,-0.0281977 -0.0515035,-0.0328114 -0.0484478,-0.0371753 -0.0450234,-0.0412564 -0.0412564,-0.0450234 -0.0371753,-0.0484478 -0.0328114,-0.0515035 -0.0281977,-0.0541672 -0.0233694,-0.0564187 -0.0183632,-0.0582408 -0.0132173,-0.0596196 -0.00797086,-0.0605447 -0.00266371,-0.061009 4.44089e-16,-3.05 0.2,0 -4.44089e-16,3.05 0.00190265,0.0435779 0.00569347,0.0432462 0.00944096,0.0425854 0.0131166,0.0416005 0.0166924,0.0402991 0.0201412,0.0386909 0.0234367,0.0367882 0.0265538,0.0346056 0.0294688,0.0321596 0.0321596,0.0294688 0.0346056,0.0265538 0.0367882,0.0234367 0.0386909,0.0201412 0.0402991,0.0166924 0.0416005,0.0131166 0.0425854,0.00944096 0.0432462,0.00569347 0.0435779,0.00190265 6.1,8.88178e-16 z "/>
<path fill="rgb(187,30,16)" stroke="rgb(187,30,16)" d="M 1.86747,5.70453 l -0.518171,0.491126 -0.0991058,-0.113806 -0.0891726,-0.121746 -0.0786062,-0.128821 -0.0674817,-0.134981 -0.055878,-0.140184 -0.0438776,-0.14439 -0.0315656,-0.147572 -0.0190295,-0.149705 -0.0063582,-0.150776 0.00665753,-0.154278 0.0199231,-0.153131 0.0330405,-0.150845 0.0459123,-0.147438 0.0584427,-0.142935 0.0705387,-0.137369 0.0821101,-0.130782 0.0930711,-0.123222 0.10334,-0.114746 0.112841,-0.105417 0.121503,-0.0953049 0.129261,-0.0844837 0.136058,-0.0730344 0.141844,-0.0610421 0.146575,-0.0485959 0.150217,-0.0357885 0.152741,-0.022715 0.15413,-0.00947254 0.154373,0.0038403 0.153469,0.0171246 0.151423,0.0302816 0.148252,0.0432134 0.143978,0.0558239 0.138634,0.0680194 0.132259,0.0797092 0.1249,0.0908064 -0.153383,0.192904 -0.290948,0.365913 -0.0751092,-0.0546066 -0.0795341,-0.0479333 -0.0833676,-0.0409037 -0.0865814,-0.0335699 -0.0891514,-0.0259865 -0.0910586,-0.0182099 -0.0922888,-0.0102979 -0.0928329,-0.00230937 -0.0926867,0.00569633 -0.0918514,0.0136597 -0.0903333,0.0215215 -0.0881435,0.0292233 -0.0852984,0.0367078 -0.0818191,0.0439194 -0.0777314,0.0508045 -0.0730659,0.0573118 -0.0678571,0.0633931 -0.0621439,0.069003 -0.0559686,0.0740999 -0.0493771,0.0786459 -0.0424186,0.0826071 -0.0351447,0.0859542 -0.0276095,0.0886622 -0.019869,0.0907111 -0.0119808,0.0920855 -0.00400352,0.0927752 0.00382352,0.0906694 0.0114434,0.0900256 0.018982,0.0887426 0.0263859,0.0868294 0.0336024,0.0842997 0.0405803,0.0811714 0.04727,0.0774668 0.0536242,0.0732121 0.0595975,0.0684375 z "/>
<path fill="rgb(187,30,16)" stroke="rgb(187,30,16)" d="M 3.78555,3.57954 l -0.175217,0.175262 0.153383,-0.192904 0.00730852,0.00584245 0.0072779,0.00588055 0.00724707,0.0059185 z "/>
<path fill="rgb(187,30,16)" stroke="rgb(187,30,16)" d="M 3.72608,4.96368 l -0.00434939,-0.0966919 -0.013013,-0.0959109 -0.0215716,-0.0943552 -0.0299559,-0.0920374 -0.0380982,-0.0889762 -0.0459328,-0.0851963 -0.0533964,-0.0807283 -0.0604287,-0.0756082 -0.066973,-0.0698775 -0.0729762,-0.0635823 0.290948,-0.365913 0.0890855,0.07654 0.0830115,0.0830885 0.0764574,0.0891564 0.175237,-0.175283 0.0922357,0.122915 0.0813587,0.13037 0.0698827,0.136865 0.0578922,0.142352 0.0454753,0.146791 0.0327237,0.150149 0.0197311,0.152402 0.00659321,0.153532 -0.00697066,0.157857 -0.0208577,0.156628 -0.0345824,0.15418 -0.0480379,0.150532 -0.0611194,0.145712 -0.0737251,0.139757 -0.0857569,0.132715 -0.0971212,0.124639 -0.107729,0.115593 -0.117499,0.105648 -0.126354,0.0948798 -0.134225,0.0833731 -0.141052,0.0712175 -0.14678,0.0585074 -0.151366,0.0453419 -0.154773,0.0318234 -0.156976,0.0180572 -0.157956,0.00415041 -0.157707,-0.00978867 -0.156231,-0.0236516 -0.153538,-0.0373303 -0.14965,-0.0507185 -0.144597,-0.0637119 -0.138418,-0.0762092 -0.131162,-0.0881134 -0.122885,-0.0993316 -0.113651,-0.109777 0.518171,-0.491126 0.0683444,0.0660144 0.0738971,0.0597333 0.0788747,0.0529872 0.0832382,0.0458286 0.0869537,0.0383133 0.0899923,0.0304997 0.0923304,0.0224487 0.0939498,0.0142229 0.0948378,0.00588644 0.0949875,-0.00249586 0.0943978,-0.0108587 0.0930732,-0.0191371 0.0910241,-0.0272665 0.0882665,-0.0351836 0.0848217,-0.0428268 0.0807166,-0.0501366 0.0759832,-0.0570562 0.0706583,-0.0635316 0.0647833,-0.0695124 0.0584041,-0.0749521 0.0515701,-0.0798084 0.0443348,-0.0840433 0.0367543,-0.0876241 0.0288877,-0.0905227 0.0207962,-0.0927166 0.0125428,-0.0941888 0.00419182,-0.0949278 z "/>
<path fill="rgb(42,41,42)" stroke="rgb(42,41,42)" d="M 3.17812,5.21999 l 0.0117902,0.0124958 0.0106562,0.0134758 0.00944117,0.0143533 0.00815427,0.0151215 0.00680531,0.0157747 0.00540456,0.0163078 0.00396268,0.0167168 0.00249064,0.0169985 0.000999641,0.0171509 -0.000498963,0.0171728 -0.00199377,0.0170639 -0.0034734,0.0168252 -0.0049266,0.0164585 -0.0063423,0.0159665 -0.00770974,0.0153529 -0.0090185,0.0146226 -0.0102586,0.0137809 -0.0114207,0.0128344 -0.0124958,0.0117902 -0.0134758,0.0106562 -0.0143533,0.00944117 -0.0151215,0.00815427 -0.0157747,0.00680531 -0.0163078,0.00540456 -0.0167168,0.00396268 -0.0169985,0.00249064 -0.0171509,0.000999641 -0.0171728,-0.000498963 -0.0170639,-0.00199377 -0.0168252,-0.0034734 -0.0164585,-0.0049266 -0.0159665,-0.0063423 -0.0153529,-0.00770974 -0.0146226,-0.0090185 -0.0137809,-0.0102586 -0.0128344,-0.0114207 -0.87817,-0.852918 -0.0117902,-0.0124958 -0.0106562,-0.0134758 -0.00944117,-0.0143533 -0.00815427,-0.0151215 -0.00680531,-0.0157747 -0.00540456,-0.0163078 -0.00396268,-0.0167168 -0.00249064,-0.0169985 -0.000999641,-0.0171509 0.000498963,-0.0171728 0.00199377,-0.0170639 0.0034734,-0.0168252 0.0049266,-0.0164585 0.0063423,-0.0159665 0.00770974,-0.0153529 0.0090185,-0.0146226 0.0102586,-0.0137809 0.0114207,-0.0128344 0.0124958,-0.0117902 0.0134758,-0.0106562 0.0143533,-0.00944117 0.0151215,-0.00815427 0.0157747,-0.00680531 0.0163078,-0.00540456 0.0167168,-0.00396268 0.0169985,-0.00249064 0.0171509,-0.000999641 0.0171728,0.000498963 0.0170639,0.00199377 0.0168252,0.0034734 0.0164585,0.0049266 0.0159665,0.0063423 0.0153529,0.00770974 0.0146226,0.0090185 0.0137809,0.0102586 0.0128344,0.0114207 0.87817,0.852918 z "/>
<path fill="rgb(42,41,42)" stroke="rgb(42,41,42)" d="M 6.04993,2.05407 l -0.0820954,-0.040413 0.0108983,-0.000686447 0.0107961,-0.0016391 0.0106109,-0.00257913 0.010344,-0.00349931 0.00999744,-0.00439255 0.00957393,-0.00525197 0.00907671,-0.00607097 0.00850962,-0.00684322 0.00787702,-0.0075628 0.00718378,-0.00822415 0.00643523,-0.0088222 0.00563715,-0.00935232 0.00479567,-0.00981045 0.00391727,-0.0101931 0.00300871,-0.0104972 0.00207699,-0.0107205 0.00112928,-0.0108613 0.000172883,-0.0109185 -0.00078485,-0.0108916 -0.00173654,-0.0107809 -0.00267486,-0.0105872 -0.00359259,-0.010312 -0.00448267,-0.00995736 -0.00533823,-0.00952611 -0.0061527,-0.00902151 0.012378,0.00600562 0.0400914,-0.0371245 0.0084442,0.013332 0.00727869,0.0140024 0.00606035,0.0145712 0.00479801,0.0150342 0.00350085,0.015388 0.00217827,0.0156302 0.000839877,0.0157589 -0.00050461,0.0157732 -0.00184543,0.015673 -0.00317286,0.015459 -0.00447726,0.0151328 -0.00574915,0.0146968 -0.00697932,0.014154 -0.00815882,0.0135086 -0.00927909,0.012765 -0.010332,0.0119288 -0.0113099,0.0110061 -0.0122057,0.0100034 -0.013013,0.00892809 -0.0137257,0.00778799 z "/>
<path fill="rgb(42,41,42)" stroke="rgb(42,41,42)" d="M 5.06249,2.45766 l -0.140209,0 -0.0102764,-0.00486162 -0.0949225,-0.0449067 -0.0113862,-0.00601722 -0.0108095,-0.00700053 -0.0101481,-0.00792898 -0.00940721,-0.00879532 -0.00859259,-0.00959273 -0.00771065,-0.010315 -0.0067683,-0.0109564 -0.00577291,-0.011512 -0.00473229,-0.0119774 -0.0036546,-0.012349 -0.00254826,-0.0126238 -0.00142197,-0.0127997 -0.000284531,-0.0128753 0.000855136,-0.01285 0.0019881,-0.012724 0.00310549,-0.0124984 0.00419855,-0.0121748 0.00525871,-0.0117558 0.00627767,-0.0112447 0.00724744,-0.0106456 0.00816043,-0.00996296 0.00900948,-0.00920231 0.00978794,-0.00836955 0.0104897,-0.00747122 0.0111093,-0.00651435 0.0116418,-0.00550644 0.0120832,-0.00445539 0.0124298,-0.00336943 0.0126791,-0.00225707 0.012829,-0.00112702 0.0128784,1.18532e-05 -0.0116785,-0.00629956 -0.0110901,-0.00728567 -0.0104187,-0.00821722 -0.00966924,-0.00908723 -0.00884737,-0.00988919 -0.00795924,-0.0106171 -0.00701151,-0.0112655 -0.00601126,-0.0118295 -0.004966,-0.0123049 -0.00388355,-0.0126882 -0.00277201,-0.0129764 -0.00163972,-0.0131675 -0.00049514,-0.01326 0.000653145,-0.0132531 0.00179654,-0.013147 0.00292648,-0.0129425 0.0040345,-0.012641 0.00511231,-0.0122448 0.00615183,-0.011757 0.00714528,-0.0111811 0.00808522,-0.0105215 0.00896461,-0.00978304 0.00977686,-0.00897134 0.0105159,-0.00809246 0.0111762,-0.00715298 0.0117528,-0.00615992 0.0122413,-0.00512074 0.0126382,-0.0040432 0.0129405,-0.00293539 0.0131458,-0.00180559 0.0132527,-0.000662271 0.0132603,0.000486009 0.0131686,0.00163065 0.0129783,0.00276308 0.0126909,0.00387481 0.0123083,0.00495753 -0.00382833,-0.0127556 -0.00269631,-0.0130419 -0.00154357,-0.0132279 -0.000378956,-0.0133123 0.000788567,-0.0132943 0.00195003,-0.0131741 0.0030965,-0.0129527 0.00421917,-0.0126317 0.0053094,-0.0122136 0.00635881,-0.0117015 0.00735935,-0.0110996 0.00830331,-0.0104123 0.00918344,-0.00964495 0.00999297,-0.00880347 0.0107257,-0.00789432 0.011376,-0.00692447 0.0119388,-0.0059014 0.0124098,-0.00483296 0.0127854,-0.00372737 0.0130628,-0.00259313 0.0132397,-0.00143895 0.0133149,-0.000273711 0.0132877,0.000893633 0.0131583,0.00205411 0.0129278,0.00319879 0.0125979,0.00431889 0.0594958,0.0185812 -0.00430294,-0.0126616 -0.00317121,-0.0129914 -0.00201483,-0.0132202 -0.000842806,-0.0133462 0.00033577,-0.0133686 0.00151174,-0.0132871 0.00267596,-0.0131024 0.00381939,-0.0128158 0.00493314,-0.0124297 0.00600856,-0.011947 0.00703729,-0.0113714 0.00801135,-0.0107075 0.00892315,-0.00996041 0.00976562,-0.00913592 0.0105322,-0.00824045 0.011217,-0.00728094 0.0118146,-0.00626486 0.0123204,-0.0052001 0.0127304,-0.00409494 0.0130416,-0.00295796 0.0132514,-0.00179799 0.0133583,-0.000624058 0.0133613,0.000554726 0.249139,-0.0167231 0.05577,0.00382504 0,0.0601005 -0.0558137,-0.00382804 -0.250229,0.0167963 -0.00788846,-0.000681455 -0.00791784,1.21325e-06 -0.00788825,0.000683873 -0.00779992,0.00136144 -0.00765349,0.00202887 -0.00745006,0.00268118 -0.00719115,0.00331353 -0.00687869,0.0039212 -0.00651499,0.00449967 -0.00610278,0.00504463 -0.00564511,0.00555202 -0.00514541,0.00601806 -0.00460738,0.00643927 -0.00403504,0.00681254 -0.00343265,0.00713506 -0.00280469,0.00740445 -0.00215585,0.0076187 -0.00149095,0.0077762 -0.000814941,0.00787579 -0.000132868,0.00791673 0.000550194,0.0078987 0.00122916,0.00782185 0.00189897,0.00768675 0.00255464,0.0074944 0.0153718,0.0486072 0.387989,0.190995 0,0.0645802 -0.427921,-0.209813 -0.110975,-0.0346589 -0.0076388,-0.0027907 -0.00785554,-0.0021047 -0.0080108,-0.00140224 -0.00810338,-0.000688801 -0.00813255,3.0026e-05 -0.00809807,0.000748618 -0.00800023,0.00146135 -0.00783978,0.00216265 -0.00761798,0.00284702 -0.00733657,0.00350912 -0.00699775,0.00414376 -0.00660417,0.00474597 -0.00615891,0.00531104 -0.00566545,0.00583455 -0.00512766,0.0063124 -0.00454974,0.00674085 -0.00393622,0.00711656 -0.00329189,0.00743658 -0.00262181,0.0076984 -0.00193121,0.00789998 -0.0012255,0.00803974 -0.000510197,0.00811658 0.000209098,0.00812991 0.000926757,0.00807963 0.00163716,0.00796611 0.00233476,0.00779026 0.014835,0.0486218 0.646208,0.306559 0,0.0645494 -0.739105,-0.350629 -0.0081292,-0.00288559 -0.00834954,-0.00216693 -0.00850649,-0.00143182 -0.00859884,-0.000685832 -0.0086259,6.53615e-05 -0.00858746,0.000816058 -0.00848382,0.00156056 -0.00831575,0.00229321 -0.00808454,0.00300845 -0.00779193,0.00370084 -0.00744017,0.00436513 -0.0070319,0.00499628 -0.00657025,0.00558948 -0.0060587,0.00614025 -0.00550114,0.00664439 -0.00490182,0.00709807 -0.00426527,0.00749786 -0.00359633,0.00784072 -0.00290009,0.00812404 -0.00218182,0.00834566 -0.00144699,0.00850392 -0.000701173,0.00859761 4.99706e-05,0.00862601 0.000800735,0.00858891 0.00154542,0.00848659 0.00227837,0.00831983 0.00299402,0.00808989 0.00368693,0.00779853 0.00435185,0.00744794 1.86517e-14,2.66454e-14 0.021528,0.028131 0.0238331,0.0262067 0.0259669,0.0240941 0.697829,0.331048 -0.136066,0 -0.554752,-0.263173 -0.0123889,-0.00361243 -0.0126484,-0.00255992 -0.0128186,-0.00148936 -0.0128984,-0.000408281 -0.0128872,0.000675675 -0.012785,0.00175486 -0.0125926,0.00282167 -0.0123114,0.00386857 -0.00164471,0.00058754 -0.00163237,0.000620999 -0.00161935,0.000654199 -0.00686481,0.00321915 -0.00655275,0.00381444 -0.0061892,0.00437976 -0.00577702,0.00491066 -0.00531944,0.00540297 -0.00482005,0.00585283 -0.00428279,0.00625669 -0.00371188,0.00661139 -0.0031118,0.00691413 -0.00248726,0.00716255 -0.00184318,0.00735467 -0.00118462,0.00748901 -0.000516743,0.00756449 0.000155191,0.00758053 0.000825906,0.007537 0.00149013,0.00743425 0.00214265,0.00727307 0.00277832,0.00705475 0.00339217,0.00678098 0.00397936,0.00645393 0.00453528,0.00607617 0.00505556,0.00565065 0.00553611,0.00518074 0.00597316,0.00467011 0.00636327,0.00412278 0.00670338,0.00354306 0.219766,0.103969 z M 5.73381,1.57875 l 0,0.0751607 -0.045846,-0.0222438 0.045846,-0.052917 z "/>
<path fill="rgb(42,41,42)" stroke="rgb(42,41,42)" d="M 6.73381,3.00434 l 0,-0.0651263 0.366187,0.155259 0,0.0651263 -0.366187,-0.155259 z "/>
<path fill="rgb(42,41,42)" stroke="rgb(42,41,42)" d="M 6.73381,1.99655 l 0,-0.0652518 0.366187,0.157211 0,0.0652518 -0.366187,-0.157211 z "/>
<path fill="rgb(42,41,42)" stroke="rgb(42,41,42)" d="M 6.73381,3.00434 l -0.463474,-0.196507 -0.412374,0.192721 -0.124152,0.0183447 0,-0.0606106 0.106711,-0.0157677 0.428628,-0.200317 0.464661,0.19701 0,0.0651263 z M 5.85767,2.45766 l 0.0705628,0 -0.00222203,0.00526919 -0.00701957,0.0132752 -0.0081506,0.0126125 -0.00921951,0.0118536 -0.0102182,0.0110043 -0.011139,0.0100713 -0.0119749,0.00906142 -0.0127195,0.00798253 -0.0133672,0.00684281 -0.0139131,0.00565094 -0.0143529,0.00441601 -0.0146833,0.00314742 -0.0149019,0.00185485 -0.0150069,0.000548146 -0.0149975,-0.000762736 -0.0148738,-0.00206781 -0.00566501,-0.00129933 0,-0.0566176 0.00430837,0.00204388 0.0100356,0.00172256 0.0101467,0.000851284 0.0101823,-2.63245e-05 0.0101422,-0.000903737 0.0100266,-0.00177442 0.00983633,-0.00263191 0.00957292,-0.00346981 0.00923827,-0.00428189 0.00883489,-0.00506212 0.00836577,-0.00580467 0.0078344,-0.00650404 0.00724474,-0.00715501 0.00660116,-0.00775274 0.0014918,-0.0020938 z "/>
<path fill="rgb(42,41,42)" stroke="rgb(42,41,42)" d="M 5.85767,2.45766 l 0.00441668,-0.00619898 0.00517182,-0.00877112 0.00439669,-0.00918419 0.00358884,-0.00952893 0.00275429,-0.00980277 0.00189924,-0.0100037 0.00103006,-0.0101301 0.000153215,-0.0101812 -0.000724769,-0.0101565 -0.00159736,-0.0100563 -0.00245807,-0.00988121 -0.00330048,-0.00963261 -0.00411834,-0.00931234 -0.00490555,-0.00892277 -0.00565626,-0.00846682 -0.00636489,-0.00794786 -0.118147,-0.0560487 0,-0.0645494 0.230923,0.109549 0.00760159,0.00359398 0.00788357,0.00292407 0.00810664,0.00223231 0.00826914,0.00152387 0.00836985,0.00080404 0.00840801,7.82051e-05 0.00838335,-0.000648214 0.00829605,-0.00136979 0.00814676,-0.00208113 0.00793659,-0.00277692 0.00766712,-0.00345196 0.00734036,-0.00410121 0.00695875,-0.00471981 0.00652514,-0.00530314 0.00604278,-0.00584685 0.00551526,-0.00634686 0.00494653,-0.00679946 0.00434084,-0.00720124 0.00370271,-0.00754922 0.00303692,-0.00784079 0.00234843,-0.00807376 0.0016424,-0.00824641 0.00092409,-0.00835744 0.000198877,-0.00840602 -0.000527821,-0.00839179 -0.00125058,-0.00831486 -0.00196399,-0.00817579 -0.00266272,-0.00797563 -0.00334156,-0.00771588 -0.00399543,-0.00739847 -0.00461944,-0.00702578 -0.00520894,-0.00660059 -0.00575951,-0.00612608 -0.00626705,-0.00560579 -0.00672776,-0.00504361 -0.0445882,-0.0285324 -0.286601,-0.140523 0,-0.0645802 0.234024,0.115203 0.0820954,0.040413 0.0255301,0.0125677 0.0222941,0.0142662 0.011196,0.00788276 0.0104562,0.00884052 0.00963481,0.00972922 0.00873814,0.0105419 0.00777321,0.0112723 0.00674757,0.0119146 0.00566921,0.0124638 0.00454658,0.0129157 0.00338842,0.0132667 0.00220381,0.0135141 0.00100197,0.0136559 -0.000207688,0.013691 -0.00141573,0.0136192 -0.0026127,0.013441 -0.00378928,0.0131578 -0.00493625,0.0127719 -0.00604466,0.0122861 -0.00710586,0.0117045 -0.00811155,0.0110313 -0.00905388,0.010272 -0.00992549,0.0094325 -0.0107196,0.00851929 -0.0114299,0.00753953 -0.012051,0.00650088 -0.0125779,0.00541145 -0.0130066,0.00427975 -0.0133337,0.00311462 -0.0135566,0.00192516 -0.0136736,0.000720666 -0.0136839,-0.000489461 -0.0135872,-0.00169576 -0.0133844,-0.00288882 -0.0130771,-0.00405931 -0.0126676,-0.0051981 -0.0121591,-0.00629628 0.00316261,0.0146801 0.00187027,0.0149 0.000563672,0.0150063 -0.000747219,0.0149983 -0.00205242,0.014876 -0.00334197,0.0146403 -0.00460606,0.014293 -0.00361302,0.00856767 -0.0705628,0 z M 6.73381,1.99655 l -0.0973162,-0.0417797 0,-0.136091 -0.0120084,-0.0195349 -0.0137097,-0.018381 -0.0153007,-0.0170793 -0.0167688,-0.0156404 -0.0181021,-0.0140758 -0.01929,-0.0123981 -0.0203228,-0.0106207 -0.0211923,-0.00875797 -0.211683,-0.0765629 -0.170534,0.157913 -0.0400914,0.0371245 -0.012378,-0.00600562 -0.331303,-0.160743 0,-0.0751607 0.046754,-0.0539651 -0.046754,-0.00320667 0,-0.0601005 0.133873,0.00918181 -1.99682e-05,0.026227 -1.44287e-05,0.0189512 -0.0831789,0.0960079 0.28234,0.136987 0.207361,-0.192016 0.246022,0.0889829 0.0249467,0.0102477 0.0239812,0.0123392 0.0228407,0.0143406 0.0215336,0.0162375 0.0200694,0.0180158 0.0184588,0.0196628 0.0167135,0.0211663 0.0148463,0.0225153 0.0128707,0.0237001 0,0.111229 0.0373566,0.0160379 0,0.0652518 z "/>
<path fill="rgb(42,41,42)" stroke="rgb(42,41,42)" d="M 5.73381,2.95829 l 0,0.0606106 -0.979469,0.144727 -0.00116581,-0.0545545 -0.00116581,-0.0545545 0.000538681,-0.0244728 0.00265697,-0.0243341 0.00475528,-0.0240124 0.00681783,-0.0235101 0.0088291,-0.022831 0.010774,-0.0219802 0.0126378,-0.0209641 0.0144066,-0.0197903 0.0160671,-0.0184677 0.0176067,-0.0170062 0.0190139,-0.0154168 0.0202781,-0.0137115 0.0213898,-0.011903 0.0223407,-0.010005 0.0231235,-0.00803181 0.0237324,-0.00599819 0.120206,-0.00710851 0.194006,-0.0114727 0.141303,-0.0260137 0.0130147,-0.0222975 -0.195901,-0.0926782 -0.327325,-0.154853 0.140209,0 0.467759,0.221291 -0.019408,0.0332508 0.0621389,-0.0114884 0.00928087,-0.00156771 0.00911063,-0.00236402 0.00887221,-0.00314264 0.00856737,-0.00389774 0.00819841,-0.00462367 0.00776809,-0.00531498 0.00727962,-0.00596652 0.00673667,-0.0065734 0.0061433,-0.00713107 0.00550394,-0.00763537 0.00482339,-0.00808253 0.00410673,-0.00846918 0.00335934,-0.00879245 0.0025868,-0.0090499 0.0017949,-0.00923962 0.000989566,-0.00936018 0.000176826,-0.00941069 -0.000637238,-0.00939075 -0.00144653,-0.00930053 -0.002245,-0.00914069 -0.00302666,-0.00891244 -0.00378567,-0.00861748 -0.00451635,-0.00825802 -0.00521322,-0.00783675 -0.00587107,-0.00735682 -0.134103,-0.0636183 0.136066,0 0.0903098,0.0428427 0,0.0566176 -0.0089718,-0.00205778 0.00265742,0.0145622 0.00137725,0.0147384 8.65855e-05,0.0148024 -0.00120474,0.0147535 -0.00248688,0.0145922 -0.00375008,0.0143197 -0.00498469,0.0139381 -0.00618131,0.0134503 -0.00733083,0.0128599 -0.00842448,0.0121715 -0.00945392,0.0113904 -0.0104113,0.0105225 -0.0112894,0.00957436 -0.0120814,0.00855327 -0.0127813,0.007467 -0.0133839,0.00632382 -0.0138844,0.00513244 -0.0142791,0.00390195 -0.014565,0.00264172 -0.11206,0.0207179 -0.171992,0.0316636 -0.313286,0.0185265 -0.0183567,0.00499005 -0.0178629,0.00654113 -0.0172383,0.00804431 -0.0164875,0.00948859 -0.0156159,0.0108634 -0.01463,0.0121587 -0.013537,0.0133649 -0.0123449,0.0144733 -0.0110623,0.0154756 -0.00969879,0.0163647 -0.00826423,0.017134 -0.00676916,0.0177778 -0.00522453,0.0182914 -0.00364164,0.0186711 -0.00203209,0.0189141 -0.00040766,0.0190185 0.00087907,0.0411363 0.920976,-0.136084 z "/>
</g></g></svg>
