<?xml version="1.0" encoding="UTF-8" standalone="no"?>
<!DOCTYPE svg PUBLIC "-//W3C//DTD SVG 1.1//EN" "http://www.w3.org/Graphics/SVG/1.1/DTD/svg11-flat.dtd"
[

]>
<svg xmlns="http://www.w3.org/2000/svg"  viewBox="-0.09375 -0.09375 7.6875 7.6875"><g fill="none" stroke="black" stroke-width="0.0125" transform="translate(0,7.5) scale(1, -1)">
<g id="Output" >
<path fill="rgb(241,240,234)" stroke="rgb(241,240,234)" d="M 6.1,3.1 l 0,-0.569283 0.0517156,0.0993448 0.0884698,0.213585 0.069518,0.220483 0.00795229,0.0358705 -0.217656,0 z "/>
<path fill="rgb(241,240,234)" stroke="rgb(241,240,234)" d="M 6.31766,3.1 l 0.0420848,0.189832 0.0301754,0.229205 0.0100841,0.230963 -0.0100841,0.230963 -0.0156716,0.119037 -0.274244,0 0,-1 0.217656,0 z "/>
<path fill="rgb(241,240,234)" stroke="rgb(241,240,234)" d="M 6.1,4.1 l 0.274244,0 -0.0145038,0.110168 -0.0500371,0.225703 -0.069518,0.220483 -0.0884698,0.213585 -0.0517156,0.0993448 0,-0.869283 z "/>
<path fill="rgb(241,240,234)" stroke="rgb(241,240,234)" d="M 5.0063,4.08738 l -0.22234,-0.0075698 -0.221315,-0.0226283 -0.219271,-0.0375827 -0.0226558,-0.056296 0.0219742,0.056296 0.219496,0.0376135 0.221543,0.0226284 0.222568,0.00753897 z "/>
<path fill="rgb(241,240,234)" stroke="rgb(241,240,234)" d="M 5.90806,3.16645 l 0.0774831,0.000186004 -0.000683922,0.284899 0.000686744,0 0,-0.204889 0,-0.0823601 -0.0774859,0 0,0.00216476 z "/>
<path fill="rgb(241,240,234)" stroke="rgb(241,240,234)" d="M 5.69188,3.9633 l 0.0838545,-0.208364 -0.00252287,0 -0.0813316,0.208364 z "/>
<path fill="rgb(241,240,234)" stroke="rgb(241,240,234)" d="M 4.10453,3.45153 l -0.0767992,0 5.64122e-06,0.00234994 0.0774857,-0.000186011 -0.000497048,-0.207053 -0.000192515,-0.0801953 -2.59833e-06,6.23751e-09 0,0.285085 z "/>
<path fill="rgb(241,240,234)" stroke="rgb(241,240,234)" d="M 3.92194,3.1 l -0.821942,0 0,-0.213773 0.2336,-0.012744 0,0.147596 0.000233964,0.00535865 0.000700111,0.00531787 0.00116093,0.00523662 0.00161291,0.00511551 0.00205262,0.00495547 0.00247671,0.00475771 0.00288195,0.00452375 0.00326525,0.00425536 0.0036237,0.00395458 0.00395458,0.0036237 0.00425536,0.00326525 0.00452375,0.00288195 0.00475771,0.00247671 0.00495547,0.00205262 0.00511551,0.00161291 0.00523662,0.00116093 0.00531787,0.000700111 0.00535865,0.000233964 0.132206,0 0.00535865,-0.000233964 0.00531787,-0.000700111 0.00523662,-0.00116093 0.00511551,-0.00161291 0.00495547,-0.00205262 0.00475771,-0.00247671 0.00452375,-0.00288195 0.00425536,-0.00326525 0.00395458,-0.0036237 0.0036237,-0.00395458 0.00326525,-0.00425536 0.00288195,-0.00452375 0.00247671,-0.00475771 0.00205262,-0.00495547 0.00161291,-0.00511551 0.00116093,-0.00523662 0.000700111,-0.00531787 0.000233964,-0.00535865 0,-0.424293 3.16353e-05,-0.00524502 -0.000414992,-0.00522867 -0.000858606,-0.00517436 -0.00129599,-0.00508248 -0.00172396,-0.0049537 -0.00213941,-0.00478896 -0.00253933,-0.00458944 -0.00292082,-0.00435661 -0.0032811,-0.00409214 -0.00361755,-0.00379796 -0.00392774,-0.00347621 -0.00420942,-0.00312922 -0.00446053,-0.00275951 -0.00467925,-0.00236976 -0.00486401,-0.00196281 -0.00501345,-0.00154161 -0.00512648,-0.00110922 -0.0052023,-0.000668767 -0.00524035,-0.000223463 -0.12592,0 -0.00209479,-6.79624e-05 -0.00209589,0 -0.00209479,6.79624e-05 -0.00575937,0.000539596 -0.00568805,0.00105243 -0.00557116,0.00155683 -0.00540963,0.00204876 -0.00520476,0.00252427 -0.0049582,0.00297956 -0.00467191,0.00341098 -0.00434819,0.00381507 -0.00398963,0.0041886 -0.00359911,0.00452857 -0.00317975,0.00483225 -0.00273492,0.00509722 -0.00226818,0.00532136 -0.00178327,0.00550286 -0.00128407,0.00564027 -0.000774578,0.0057325 -0.000258884,0.0057788 0,0.147577 -0.2336,-0.012744 0,-0.63162 1,0 0,0.432237 -0.00430686,0 -3.68594e-13,0 -0.00283978,0.000123362 -0.00281822,0.000370432 -0.0027752,0.000614681 -0.00271106,0.000854251 -0.00262628,0.00108732 -0.0025215,0.00131211 -0.00239753,0.00152691 -0.0022553,0.00173008 -0.00209591,0.00192009 -0.00192056,0.00209548 -0.00173059,0.00225491 -0.00152745,0.00239718 -0.00131268,0.0025212 -0.00108791,0.00262603 -0.000854864,0.00271087 -0.000615308,0.00277506 -0.000371069,0.00281814 -0.000124004,0.00283975 -8.88178e-16,0.334807 -0.0561055,0 -0.0850603,0.135731 0,0.064647 z "/>
<path fill="rgb(241,240,234)" stroke="rgb(241,240,234)" d="M 2.1,1.67902 l 0,0.420983 -0.420983,0 0.0409654,-0.0533872 0.156185,-0.170446 0.170446,-0.156185 0.0533872,-0.0409654 z "/>
<path fill="rgb(241,240,234)" stroke="rgb(241,240,234)" d="M 2.1,2.87915 l 0,0.220853 -0.917656,0 0.00795229,-0.0358705 0.069518,-0.220483 0.0884698,-0.213585 0.106748,-0.205062 0.124214,-0.194978 0.0997697,-0.130022 0.420983,0 0,0.6387 -0.103818,0.00566386 0,-0.147577 3.16353e-05,-0.00524502 -0.000414992,-0.00522867 -0.000858606,-0.00517436 -0.00129599,-0.00508248 -0.00172396,-0.0049537 -0.00213941,-0.00478896 -0.00253933,-0.00458944 -0.00292082,-0.00435661 -0.0032811,-0.00409214 -0.00361755,-0.00379796 -0.00392774,-0.00347621 -0.00420942,-0.00312922 -0.00446053,-0.00275951 -0.00467925,-0.00236976 -0.00486401,-0.00196281 -0.00501345,-0.00154161 -0.00512648,-0.00110922 -0.0052023,-0.000668767 -0.00524035,-0.000223463 -0.130537,0 -0.000559429,-5.01886e-06 -0.000559452,0 -0.000559429,5.01886e-06 -0.0055724,0.000324824 -0.00552103,0.000821799 -0.00542543,0.00131219 -0.00528636,0.00179207 -0.00510494,0.00225759 -0.00488262,0.00270502 -0.00462119,0.00313078 -0.00432272,0.00353146 -0.00398963,0.00390384 -0.00362457,0.00424495 -0.00323047,0.00455205 -0.0028105,0.00482268 -0.002368,0.00505467 -0.00190653,0.00524617 -0.00142979,0.00539563 -0.000941595,0.00550187 -0.000445854,0.00556402 -3.43212e-05,0.00146263 0,0.00146303 3.43212e-05,0.00146263 0,0.424293 0.000233964,0.00535865 0.000700111,0.00531787 0.00116093,0.00523662 0.00161291,0.00511551 0.00205262,0.00495547 0.00247671,0.00475771 0.00288195,0.00452375 0.00326525,0.00425536 0.0036237,0.00395458 0.00395458,0.0036237 0.00425536,0.00326525 0.00452375,0.00288195 0.00475771,0.00247671 0.00495547,0.00205262 0.00511551,0.00161291 0.00523662,0.00116093 0.00531787,0.000700111 0.00535865,0.000233964 0.132216,0 0.00535865,-0.000233964 0.00531787,-0.000700111 0.00523662,-0.00116093 0.00511551,-0.00161291 0.00495547,-0.00205262 0.00475771,-0.00247671 0.00452375,-0.00288195 0.00425536,-0.00326525 0.00395458,-0.0036237 0.0036237,-0.00395458 0.00326525,-0.00425536 0.00288195,-0.00452375 0.00247671,-0.00475771 0.00205262,-0.00495547 0.00161291,-0.00511551 0.00116093,-0.00523662 0.000700111,-0.00531787 0.000233964,-0.00535865 0,-0.147596 0.103818,0.00566386 z "/>
<path fill="rgb(241,240,234)" stroke="rgb(241,240,234)" d="M 1.741,4.1 l -0.615244,0 -0.0156716,-0.119037 -0.0100841,-0.230963 0.0100841,-0.230963 0.0301754,-0.229205 0.0420848,-0.189832 0.917656,0 0,0.062504 -0.359001,0 0,0.110682 0.359001,0 0,0.110682 -0.359001,4.44089e-16 0,0.716131 z "/>
<path fill="rgb(241,240,234)" stroke="rgb(241,240,234)" d="M 1.12576,4.1 l 0.615244,0 0,1 -0.27004,0 -0.0159268,-0.025 -0.106748,-0.205062 -0.0884698,-0.213585 -0.069518,-0.220483 -0.0500371,-0.225703 -0.0145038,-0.110168 z "/>
<path fill="rgb(241,240,234)" stroke="rgb(241,240,234)" d="M 1.47096,5.1 l 0.27004,0 0,0.00867517 0.000350983,0.00803884 0.00105028,0.00797766 0.00174158,0.00785577 0.00241963,0.00767408 0.00307926,0.007434 0.00371546,0.00713733 0.00432338,0.00678635 0.0048984,0.00638372 0.00543614,0.0059325 0.0059325,0.00543614 0.00638372,0.0048984 0.00678635,0.00432338 0.00713733,0.00371546 0.007434,0.00307926 0.00767408,0.00241963 0.00785577,0.00174158 0.00797766,0.00105028 0.00803884,0.000350983 0.266765,0 0,0.620073 -0.0533872,-0.0409654 -0.170446,-0.156185 -0.156185,-0.170446 -0.140735,-0.18341 -0.108288,-0.169978 z "/>
<path fill="rgb(241,240,234)" stroke="rgb(241,240,234)" d="M 3.1,1.18234 l 0,0.917656 -1,0 0,-0.420983 0.130022,-0.0997697 0.194978,-0.124214 0.205062,-0.106748 0.213585,-0.0884698 0.220483,-0.069518 0.0358705,-0.00795229 z "/>
<path fill="rgb(241,240,234)" stroke="rgb(241,240,234)" d="M 2.1,2.1 l 1,0 0,0.63162 -0.2737,-0.0149316 -0.00854056,-0.0139798 -0.00974804,-0.0131663 -0.0108785,-0.0122488 -0.0119231,-0.0112346 -0.0128735,-0.0101316 -0.0137222,-0.00894861 -0.0144625,-0.00769494 -0.0150886,-0.00638048 -0.0155955,-0.00501563 -0.0159792,-0.00361116 -0.0162367,-0.00217817 -0.016366,-0.000727973 -0.016366,0.000727973 -0.0162367,0.00217817 -0.0159792,0.00361116 -0.0155955,0.00501563 -0.0150886,0.00638048 -0.0144625,0.00769494 -0.0137222,0.00894861 -0.0128735,0.0101316 -0.0119231,0.0112346 -0.0108785,0.0122488 -0.00974804,0.0131663 -0.00854056,0.0139798 -0.403472,0.0220117 0,-0.6387 z M 2.1,2.87915 l 0.403472,0.0220117 0.00854056,0.0139798 0.00974804,0.0131663 0.0108785,0.0122488 0.0119231,0.0112346 0.0128735,0.0101316 0.0137222,0.00894861 0.0144625,0.00769494 0.0150886,0.00638048 0.0155955,0.00501563 0.0159792,0.00361116 0.0162367,0.00217817 0.016366,0.000727973 0.016366,-0.000727973 0.0162367,-0.00217817 0.0159792,-0.00361116 0.0155955,-0.00501563 0.0150886,-0.00638048 0.0144625,-0.00769494 0.0137222,-0.00894861 0.0128735,-0.0101316 0.0119231,-0.0112346 0.0108785,-0.0122488 0.00974804,-0.0131663 0.00854056,-0.0139798 0.2737,-0.0149316 0,0.213773 -1,0 0,-0.220853 z "/>
<path fill="rgb(241,240,234)" stroke="rgb(241,240,234)" d="M 2.1,3.1 l 1,0 0,0.062504 -1,0 0,-0.062504 z M 3.1,3.27319 l 0,0.110682 -1,0 0,-0.110682 1,-4.44089e-16 z "/>
<path fill="rgb(241,240,234)" stroke="rgb(241,240,234)" d="M 2.1,5.20091 l 1,0 0,0.899089 -0.569283,0 -0.105717,-0.0550327 -0.194978,-0.124214 -0.130022,-0.0997697 0,-0.620073 z "/>
<path fill="rgb(241,240,234)" stroke="rgb(241,240,234)" d="M 3.75,1.1 l 0.230963,0.0100841 0.119037,0.0156716 0,0.974244 -1,0 0,-0.917656 0.189832,-0.0420848 0.229205,-0.0301754 0.230963,-0.0100841 z "/>
<path fill="rgb(241,240,234)" stroke="rgb(241,240,234)" d="M 3.1,3.38387 l 0,-0.110682 0.488773,0 4.44089e-16,-0.110682 -0.488773,0 0,-0.062504 0.821942,0 0,0.146642 -4.44089e-16,0.273726 0.104965,0.12487 0.073093,0.175549 0,0.279213 -0.511227,0 0,-0.716131 -0.488773,0 z "/>
<path fill="rgb(241,240,234)" stroke="rgb(241,240,234)" d="M 3.58877,4.1 l 0.511227,0 0,1 -0.511227,0 0,-1 z "/>
<path fill="rgb(241,240,234)" stroke="rgb(241,240,234)" d="M 3.1,5.20091 l 0.393334,0 0.00822559,-8.59286e-05 0.00818526,-0.000818033 0.00807991,-0.00154364 0.00791036,-0.00225698 0.00767796,-0.00295239 0.00738457,-0.00362434 0.0070325,-0.0042675 0.00662457,-0.00487676 0.006164,-0.00544727 0.00565447,-0.0059745 0.00510001,-0.00645427 0.00450503,-0.00688276 0.00387426,-0.00725657 0.00321271,-0.00757273 0.00252564,-0.00782872 0.0018185,-0.00802252 0.00109691,-0.00815258 0.000366607,-0.00821786 0,-0.00867517 0.511227,0 0,1 -1,0 0,-0.899089 z "/>
<path fill="rgb(241,240,234)" stroke="rgb(241,240,234)" d="M 3.1,6.31766 l 0,-0.217656 1,0 0,0.274244 -0.119037,0.0156716 -0.230963,0.0100841 -0.230963,-0.0100841 -0.229205,-0.0301754 -0.189832,-0.0420848 z "/>
<path fill="rgb(241,240,234)" stroke="rgb(241,240,234)" d="M 4.1,2.1 l 0,-0.974244 0.110168,0.0145038 0.225703,0.0500371 0.220483,0.069518 0.213585,0.0884698 0.205062,0.106748 0.025,0.0159268 0,0.629041 -1,0 z "/>
<path fill="rgb(241,240,234)" stroke="rgb(241,240,234)" d="M 4.1,2.53224 l 0,-0.432237 1,0 0,0.799622 -0.0780327,0 -0.678354,0 0,-0.334807 0,-9.54792e-14 -0.000123334,-0.00283914 -0.000370348,-0.00281758 -0.000614542,-0.00277458 -0.000854058,-0.00271045 -0.00108707,-0.00262568 -0.00131181,-0.00252093 -0.00152656,-0.00239699 -0.00172969,-0.00225479 -0.00191965,-0.00209544 -0.002095,-0.00192013 -0.0022544,-0.0017302 -0.00239664,-0.0015271 -0.00252063,-0.00131238 -0.00262544,-0.00108767 -0.00271025,-0.00085467 -0.00277444,-0.000615169 -0.0028175,-0.000370985 -0.00283911,-0.000123976 -0.211043,0 z "/>
<path fill="rgb(241,240,234)" stroke="rgb(241,240,234)" d="M 4.1,3.82079 l 0.116256,0.279213 -0.116256,0 0,-0.279213 z "/>
<path fill="rgb(241,240,234)" stroke="rgb(241,240,234)" d="M 4.21626,4.1 l 0.0223927,0.0537809 0.259383,0.0408254 0.261463,0.0241516 0.262473,0.00737893 0.0780327,-0.00270096 0,0.876564 -1,0 0,-1 0.116256,0 z "/>
<path fill="rgb(241,240,234)" stroke="rgb(241,240,234)" d="M 4.96928,6.1 l -0.869283,0 0,-1 1,0 0,0.929041 -0.025,0.0159268 -0.105717,0.0550327 z "/>
<path fill="rgb(241,240,234)" stroke="rgb(241,240,234)" d="M 4.96928,6.1 l -0.0993448,0.0517156 -0.213585,0.0884698 -0.220483,0.069518 -0.225703,0.0500371 -0.110168,0.0145038 0,-0.274244 0.869283,0 z "/>
<path fill="rgb(241,240,234)" stroke="rgb(241,240,234)" d="M 5.1,2.1 l 0,-0.629041 0.169978,0.108288 0.18341,0.140735 0.170446,0.156185 0.156185,0.170446 0.0409654,0.0533872 -0.720983,0 z "/>
<path fill="rgb(241,240,234)" stroke="rgb(241,240,234)" d="M 5.82098,2.1 l 0.0997697,0.130022 0.124214,0.194978 0.0550327,0.105717 0,0.569283 -0.00998092,0 0,-0.064647 -0.0850529,-0.135731 -0.0560981,0 0,-0.334807 -0.000123969,-0.00283935 -0.000370962,-0.00281774 -0.000615133,-0.00277468 -0.000854622,-0.00271051 -0.00108761,-0.00262571 -0.00131231,-0.00252093 -0.00152703,-0.00239696 -0.00173013,-0.00225475 -0.00192006,-0.00209538 -0.00209538,-0.00192006 -0.00225475,-0.00173013 -0.00239696,-0.00152703 -0.00252093,-0.00131231 -0.00262571,-0.00108761 -0.00271051,-0.000854622 -0.00277468,-0.000615133 -0.00281774,-0.000370962 -0.00283935,-0.000123969 -0.215364,0 -0.00283935,0.000123969 -0.00281774,0.000370962 -0.00277468,0.000615133 -0.00271051,0.000854622 -0.00262571,0.00108761 -0.00252093,0.00131231 -0.00239696,0.00152703 -0.00225475,0.00173013 -0.00209538,0.00192006 -0.00192006,0.00209538 -0.00173013,0.00225475 -0.00152703,0.00239696 -0.00131231,0.00252093 -0.00108761,0.00262571 -0.000854622,0.00271051 -0.000615133,0.00277468 -0.000370962,0.00281774 -0.000123969,0.00283935 0,0.334807 -0.568348,0 0,-0.799622 0.720983,0 z "/>
<path fill="rgb(241,240,234)" stroke="rgb(241,240,234)" d="M 6.09002,3.1 l 0.00998092,0 0,1 -0.304294,0 0.189349,-0.454762 0.104965,-0.12487 0,-0.273726 0,-0.146642 z "/>
<path fill="rgb(241,240,234)" stroke="rgb(241,240,234)" d="M 6.02904,5.1 l -0.929041,0 0,-0.876564 0.17374,-0.0060137 0.250764,-0.024149 0.248809,-0.0394923 0.0223927,-0.0537809 0.304294,0 0,0.869283 -0.0550327,0.105717 -0.0159268,0.025 z "/>
<path fill="rgb(241,240,234)" stroke="rgb(241,240,234)" d="M 6.02904,5.1 l -0.108288,0.169978 -0.140735,0.18341 -0.156185,0.170446 -0.170446,0.156185 -0.18341,0.140735 -0.169978,0.108288 0,-0.929041 0.929041,0 z "/>
<path fill="rgb(241,240,234)" stroke="rgb(241,240,234)" d="M 2.53072,6.1 l 0.569283,0 0,0.217656 -0.0358705,-0.00795229 -0.220483,-0.069518 -0.213585,-0.0884698 -0.0993448,-0.0517156 z "/>
<path fill="rgb(241,240,234)" stroke="rgb(241,240,234)" d="M 5.02197,3.16428 l -0.302919,0 0,0.0823601 0,0.07579 0.302919,0 0.27158,0 0,-0.07579 0,-0.0823601 -0.27158,0 z "/>
<path fill="rgb(241,240,234)" stroke="rgb(241,240,234)" d="M 4.02705,3.24664 l 0.00019489,0 0.000491854,0.204889 -0.000686744,0 0,-0.204889 z "/>
<path fill="rgb(241,240,234)" stroke="rgb(241,240,234)" d="M 4.02705,3.24664 l 0,-0.0823601 0.0774859,0 0,0.00216476 -0.0774831,0.000186004 0.000192069,0.0800093 -0.00019489,0 z "/>
<path fill="rgb(241,240,234)" stroke="rgb(241,240,234)" d="M 4.10453,3.45153 l 0,-0.285085 -0.0774831,0.000186004 0.000192069,0.0800093 0.000491854,0.204889 0.0767992,0 z "/>
<path fill="rgb(241,240,234)" stroke="rgb(241,240,234)" d="M 5.90787,3.24664 l 0.000192515,-0.0801953 2.59833e-06,6.23751e-09 0,0.0801953 -0.000195114,0 z "/>
<path fill="rgb(241,240,234)" stroke="rgb(241,240,234)" d="M 5.90806,3.45153 l 0.0767992,0 0.000683922,-0.284899 -0.0774831,-0.000186004 0,0.0801953 8.88178e-16,0.204889 z "/>
<path fill="rgb(241,240,234)" stroke="rgb(241,240,234)" d="M 5.90806,3.45153 l 0.0767992,0 -5.64122e-06,0.00234994 -0.0774857,-0.000186011 0.000497048,-0.207053 0.000195114,0 8.88178e-16,0.204889 z "/>
<path fill="rgb(241,240,234)" stroke="rgb(241,240,234)" d="M 5.66922,4.0196 l 0.0226558,-0.056296 0.0813316,-0.208364 -0.751244,0 -0.782582,0 0.0813316,0.208364 0.0226558,0.056296 0.219271,0.0375827 0.221315,0.0226283 0.22234,0.0075698 0.00522302,-4.70258e-06 0.00522301,-1.3022e-05 0.00522298,-2.13414e-05 0.217092,-0.00825672 0.216068,-0.0226137 0.214097,-0.0368714 z "/>
<path fill="rgb(241,240,234)" stroke="rgb(241,240,234)" d="M 5.02197,4.08734 l -0.00522298,2.02556e-05 -0.00522301,1.19363e-05 -0.00522302,3.61685e-06 0.00522302,-4.70258e-06 0.00522301,-1.3022e-05 0.00522298,-2.13414e-05 0,3.2572e-06 z "/>
<path fill="rgb(241,240,234)" stroke="rgb(241,240,234)" d="M 5.66922,4.0196 l 0.0226558,-0.056296 -0.0219742,0.056296 -0.214322,0.0369025 -0.216297,0.0226148 -0.21732,0.00822771 0,-3.2572e-06 0.217092,-0.00825672 0.216068,-0.0226137 0.214097,-0.0368714 z "/>
<path fill="rgb(241,240,234)" stroke="rgb(241,240,234)" d="M 4.32072,3.9633 l -0.0838545,-0.208364 0.00252287,0 0.0813316,0.208364 z "/>
<path fill="rgb(241,240,234)" stroke="rgb(241,240,234)" d="M 0.2,3.75 l 0.0135088,-0.309403 0.0404237,-0.307048 0.0670308,-0.302357 0.0931279,-0.295364 0.118516,-0.286123 0.143002,-0.274705 0.1664,-0.261196 0.188532,-0.2457 0.209229,-0.228333 0.228333,-0.209229 0.2457,-0.188532 0.261196,-0.1664 0.274705,-0.143002 0.286123,-0.118516 0.295364,-0.0931279 0.302357,-0.0670308 0.307048,-0.0404237 0.309403,-0.0135088 0.309403,0.0135088 0.307048,0.0404237 0.302357,0.0670308 0.295364,0.0931279 0.286123,0.118516 0.274705,0.143002 0.261196,0.1664 0.2457,0.188532 0.228333,0.209229 0.209229,0.228333 0.188532,0.2457 0.1664,0.261196 0.143002,0.274705 0.118516,0.286123 0.0931279,0.295364 0.0670308,0.302357 0.0404237,0.307048 0.0135088,0.309403 -0.2,0 -0.0127478,-0.291972 -0.0381463,-0.28975 -0.0632545,-0.285322 -0.0878812,-0.278724 -0.111839,-0.270004 -0.134946,-0.259229 -0.157026,-0.246481 -0.17791,-0.231857 -0.197441,-0.215469 -0.215469,-0.197441 -0.231857,-0.17791 -0.246481,-0.157026 -0.259229,-0.134946 -0.270004,-0.111839 -0.278724,-0.0878812 -0.285322,-0.0632545 -0.28975,-0.0381463 -0.291972,-0.0127478 -0.291972,0.0127478 -0.28975,0.0381463 -0.285322,0.0632545 -0.278724,0.0878812 -0.270004,0.111839 -0.259229,0.134946 -0.246481,0.157026 -0.231857,0.17791 -0.215469,0.197441 -0.197441,0.215469 -0.17791,0.231857 -0.157026,0.246481 -0.134946,0.259229 -0.111839,0.270004 -0.0878812,0.278724 -0.0632545,0.285322 -0.0381463,0.28975 -0.0127478,0.291972 -0.2,0 z "/>
<path fill="rgb(241,240,234)" stroke="rgb(241,240,234)" d="M 0.2,3.75 l 0.2,0 0.0127478,0.291972 0.0381463,0.28975 0.0632545,0.285322 0.0878812,0.278724 0.111839,0.270004 0.134946,0.259229 0.157026,0.246481 0.17791,0.231857 0.197441,0.215469 0.215469,0.197441 0.231857,0.17791 0.246481,0.157026 0.259229,0.134946 0.270004,0.111839 0.278724,0.0878812 0.285322,0.0632545 0.28975,0.0381463 0.291972,0.0127478 0.291972,-0.0127478 0.28975,-0.0381463 0.285322,-0.0632545 0.278724,-0.0878812 0.270004,-0.111839 0.259229,-0.134946 0.246481,-0.157026 0.231857,-0.17791 0.215469,-0.197441 0.197441,-0.215469 0.17791,-0.231857 0.157026,-0.246481 0.134946,-0.259229 0.111839,-0.270004 0.0878812,-0.278724 0.0632545,-0.285322 0.0381463,-0.28975 0.0127478,-0.291972 0.2,0 -0.0135088,0.309403 -0.0404237,0.307048 -0.0670308,0.302357 -0.0931279,0.295364 -0.118516,0.286123 -0.143002,0.274705 -0.1664,0.261196 -0.188532,0.2457 -0.209229,0.228333 -0.228333,0.209229 -0.2457,0.188532 -0.261196,0.1664 -0.274705,0.143002 -0.286123,0.118516 -0.295364,0.0931279 -0.302357,0.0670308 -0.307048,0.0404237 -0.309403,0.0135088 -0.309403,-0.0135088 -0.307048,-0.0404237 -0.302357,-0.0670308 -0.295364,-0.0931279 -0.286123,-0.118516 -0.274705,-0.143002 -0.261196,-0.1664 -0.2457,-0.188532 -0.228333,-0.209229 -0.209229,-0.228333 -0.188532,-0.2457 -0.1664,-0.261196 -0.143002,-0.274705 -0.118516,-0.286123 -0.0931279,-0.295364 -0.0670308,-0.302357 -0.0404237,-0.307048 -0.0135088,-0.309403 z "/>
<path fill="rgb(187,30,16)" stroke="rgb(187,30,16)" d="M 3.58877,3.02108 l -0.000233964,0.00535865 -0.000700111,0.00531787 -0.00116093,0.00523662 -0.00161291,0.00511551 -0.00205262,0.00495547 -0.00247671,0.00475771 -0.00288195,0.00452375 -0.00326525,0.00425536 -0.0036237,0.00395458 -0.00395458,0.0036237 -0.00425536,0.00326525 -0.00452375,0.00288195 -0.00475771,0.00247671 -0.00495547,0.00205262 -0.00511551,0.00161291 -0.00523662,0.00116093 -0.00531787,0.000700111 -0.00535865,0.000233964 -0.132206,0 -0.00535865,-0.000233964 -0.00531787,-0.000700111 -0.00523662,-0.00116093 -0.00511551,-0.00161291 -0.00495547,-0.00205262 -0.00475771,-0.00247671 -0.00452375,-0.00288195 -0.00425536,-0.00326525 -0.00395458,-0.0036237 -0.0036237,-0.00395458 -0.00326525,-0.00425536 -0.00288195,-0.00452375 -0.00247671,-0.00475771 -0.00205262,-0.00495547 -0.00161291,-0.00511551 -0.00116093,-0.00523662 -0.000700111,-0.00531787 -0.000233964,-0.00535865 0,-0.147596 -0.507299,0.0276756 -0.00854056,0.0139798 -0.00974804,0.0131663 -0.0108785,0.0122488 -0.0119231,0.0112346 -0.0128735,0.0101316 -0.0137222,0.00894861 -0.0144625,0.00769494 -0.0150886,0.00638048 -0.0155955,0.00501563 -0.0159792,0.00361116 -0.0162367,0.00217817 -0.016366,0.000727973 -0.016366,-0.000727973 -0.0162367,-0.00217817 -0.0159792,-0.00361116 -0.0155955,-0.00501563 -0.0150886,-0.00638048 -0.0144625,-0.00769494 -0.0137222,-0.00894861 -0.0128735,-0.0101316 -0.0119231,-0.0112346 -0.0108785,-0.0122488 -0.00974804,-0.0131663 -0.00854056,-0.0139798 -0.50729,-0.0276756 0,0.147596 -0.000233964,0.00535865 -0.000700111,0.00531787 -0.00116093,0.00523662 -0.00161291,0.00511551 -0.00205262,0.00495547 -0.00247671,0.00475771 -0.00288195,0.00452375 -0.00326525,0.00425536 -0.0036237,0.00395458 -0.00395458,0.0036237 -0.00425536,0.00326525 -0.00452375,0.00288195 -0.00475771,0.00247671 -0.00495547,0.00205262 -0.00511551,0.00161291 -0.00523662,0.00116093 -0.00531787,0.000700111 -0.00535865,0.000233964 -0.132216,0 -0.00535865,-0.000233964 -0.00531787,-0.000700111 -0.00523662,-0.00116093 -0.00511551,-0.00161291 -0.00495547,-0.00205262 -0.00475771,-0.00247671 -0.00452375,-0.00288195 -0.00425536,-0.00326525 -0.00395458,-0.0036237 -0.0036237,-0.00395458 -0.00326525,-0.00425536 -0.00288195,-0.00452375 -0.00247671,-0.00475771 -0.00205262,-0.00495547 -0.00161291,-0.00511551 -0.00116093,-0.00523662 -0.000700111,-0.00531787 -0.000233964,-0.00535865 0,-0.424293 0,-0.0043883 0.000445854,-0.00556402 0.000941595,-0.00550187 0.00142979,-0.00539563 0.00190653,-0.00524617 0.002368,-0.00505467 0.0028105,-0.00482268 0.00323047,-0.00455205 0.00362457,-0.00424495 0.00398963,-0.00390384 0.00432272,-0.00353146 0.00462119,-0.00313078 0.00488262,-0.00270502 0.00510494,-0.00225759 0.00528636,-0.00179207 0.00542543,-0.00131219 0.00552103,-0.000821799 0.0055724,-0.000324824 0.00167831,0 0.130537,0 0.00524035,0.000223463 0.0052023,0.000668767 0.00512648,0.00110922 0.00501345,0.00154161 0.00486401,0.00196281 0.00467925,0.00236976 0.00446053,0.00275951 0.00420942,0.00312922 0.00392774,0.00347621 0.00361755,0.00379796 0.0032811,0.00409214 0.00292082,0.00435661 0.00253933,0.00458944 0.00213941,0.00478896 0.00172396,0.0049537 0.00129599,0.00508248 0.000858606,0.00517436 0.000414992,0.00522867 -3.16353e-05,0.00524502 0,0.147577 0.50729,-0.0276756 0.00854056,-0.0139798 0.00974804,-0.0131663 0.0108785,-0.0122488 0.0119231,-0.0112346 0.0128735,-0.0101316 0.0137222,-0.00894861 0.0144625,-0.00769494 0.0150886,-0.00638048 0.0155955,-0.00501563 0.0159792,-0.00361116 0.0162367,-0.00217817 0.016366,-0.000727973 0.016366,0.000727973 0.0162367,0.00217817 0.0159792,0.00361116 0.0155955,0.00501563 0.0150886,0.00638048 0.0144625,0.00769494 0.0137222,0.00894861 0.0128735,0.0101316 0.0119231,0.0112346 0.0108785,0.0122488 0.00974804,0.0131663 0.00854056,0.0139798 0.507299,0.0276756 0,-0.147577 0.000258884,-0.0057788 0.000774578,-0.0057325 0.00128407,-0.00564027 0.00178327,-0.00550286 0.00226818,-0.00532136 0.00273492,-0.00509722 0.00317975,-0.00483225 0.00359911,-0.00452857 0.00398963,-0.0041886 0.00434819,-0.00381507 0.00467191,-0.00341098 0.0049582,-0.00297956 0.00520476,-0.00252427 0.00540963,-0.00204876 0.00557116,-0.00155683 0.00568805,-0.00105243 0.00575937,-0.000539596 0.00628546,0 0.12592,0 0.00524035,0.000223463 0.0052023,0.000668767 0.00512648,0.00110922 0.00501345,0.00154161 0.00486401,0.00196281 0.00467925,0.00236976 0.00446053,0.00275951 0.00420942,0.00312922 0.00392774,0.00347621 0.00361755,0.00379796 0.0032811,0.00409214 0.00292082,0.00435661 0.00253933,0.00458944 0.00213941,0.00478896 0.00172396,0.0049537 0.00129599,0.00508248 0.000858606,0.00517436 0.000414992,0.00522867 -3.16353e-05,0.00524502 0,0.424293 z "/>
<path fill="rgb(187,30,16)" stroke="rgb(187,30,16)" d="M 1.741,2.59679 l -3.43212e-05,-0.00146263 0,-0.00146303 3.43212e-05,-0.00146263 0,0.0043883 z "/>
<path fill="rgb(187,30,16)" stroke="rgb(187,30,16)" d="M 3.58877,3.27319 l -1.84777,4.44089e-16 0,-0.110682 1.84777,0 -4.44089e-16,0.110682 z "/>
<path fill="rgb(187,30,16)" stroke="rgb(187,30,16)" d="M 3.58877,5.10868 l -0.000366607,0.00821786 -0.00109691,0.00815258 -0.0018185,0.00802252 -0.00252564,0.00782872 -0.00321271,0.00757273 -0.00387426,0.00725657 -0.00450503,0.00688276 -0.00510001,0.00645427 -0.00565447,0.0059745 -0.006164,0.00544727 -0.00662457,0.00487676 -0.0070325,0.0042675 -0.00738457,0.00362434 -0.00767796,0.00295239 -0.00791036,0.00225698 -0.00807991,0.00154364 -0.00818526,0.000818033 -0.00822559,8.59286e-05 -1.6601,0 -0.00803884,-0.000350983 -0.00797766,-0.00105028 -0.00785577,-0.00174158 -0.00767408,-0.00241963 -0.007434,-0.00307926 -0.00713733,-0.00371546 -0.00678635,-0.00432338 -0.00638372,-0.0048984 -0.0059325,-0.00543614 -0.00543614,-0.0059325 -0.0048984,-0.00638372 -0.00432338,-0.00678635 -0.00371546,-0.00713733 -0.00307926,-0.007434 -0.00241963,-0.00767408 -0.00174158,-0.00785577 -0.00105028,-0.00797766 -0.000350983,-0.00803884 0,-1.72481 1.84777,-4.44089e-16 0,1.72481 z "/>
<path fill="rgb(42,41,42)" stroke="rgb(42,41,42)" d="M 5.02197,3.75494 l 0,-0.432503 0.27158,0 0,-0.07579 0.614321,0 -0.000497048,0.207053 0.0774857,0.000186011 5.64122e-06,-0.00234994 0.000686744,0 0,-0.204889 0.104469,0 0,0.273726 -0.104965,0.12487 -0.211741,0.508543 -0.248809,0.0394923 -0.250764,0.024149 -0.251773,0.00871466 0,-0.138796 0.21732,-0.00822771 0.216297,-0.0226148 0.214322,-0.0369025 0.0219742,-0.056296 0.0838545,-0.208364 -0.00252287,0 -0.751244,0 z "/>
<path fill="rgb(42,41,42)" stroke="rgb(42,41,42)" d="M 5.02197,3.16428 l 0,-0.26466 0.646381,0 0,-0.334807 0.000123969,-0.00283935 0.000370962,-0.00281774 0.000615133,-0.00277468 0.000854622,-0.00271051 0.00108761,-0.00262571 0.00131231,-0.00252093 0.00152703,-0.00239696 0.00173013,-0.00225475 0.00192006,-0.00209538 0.00209538,-0.00192006 0.00225475,-0.00173013 0.00239696,-0.00152703 0.00252093,-0.00131231 0.00262571,-0.00108761 0.00271051,-0.000854622 0.00277468,-0.000615133 0.00281774,-0.000370962 0.00283935,-0.000123969 0.215364,0 0.00283935,0.000123969 0.00281774,0.000370962 0.00277468,0.000615133 0.00271051,0.000854622 0.00262571,0.00108761 0.00252093,0.00131231 0.00239696,0.00152703 0.00225475,0.00173013 0.00209538,0.00192006 0.00192006,0.00209538 0.00173013,0.00225475 0.00152703,0.00239696 0.00131231,0.00252093 0.00108761,0.00262571 0.000854622,0.00271051 0.000615133,0.00277468 0.000370962,0.00281774 0.000123969,0.00283935 0,0.334807 0.0560981,0 0.0850529,0.135731 0,0.211289 -0.104469,0 0,-0.0823601 -0.0774859,0 0,0.00216476 -2.59833e-06,-6.23751e-09 -0.000192515,0.0801953 -0.614321,0 0,-0.0823601 -0.27158,0 z "/>
<path fill="rgb(42,41,42)" stroke="rgb(42,41,42)" d="M 5.02197,3.16428 l -0.302919,0 0,0.0823601 -0.614321,0 -0.000192515,-0.0801953 -2.59833e-06,6.23751e-09 0,-0.00216476 -0.0774859,0 0,0.0823601 -0.105104,0 0,-0.211289 0.0850603,-0.135731 0.0561055,0 8.88178e-16,-0.334807 0.000124004,-0.00283975 0.000371069,-0.00281814 0.000615308,-0.00277506 0.000854864,-0.00271087 0.00108791,-0.00262603 0.00131268,-0.0025212 0.00152745,-0.00239718 0.00173059,-0.00225491 0.00192056,-0.00209548 0.00209591,-0.00192009 0.0022553,-0.00173008 0.00239753,-0.00152691 0.0025215,-0.00131211 0.00262628,-0.00108732 0.00271106,-0.000854251 0.0027752,-0.000614681 0.00281822,-0.000370432 0.00283978,-0.000123362 3.68594e-13,0 0.21535,0 0.00283911,0.000123976 0.0028175,0.000370985 0.00277444,0.000615169 0.00271025,0.00085467 0.00262544,0.00108767 0.00252063,0.00131238 0.00239664,0.0015271 0.0022544,0.0017302 0.002095,0.00192013 0.00191965,0.00209544 0.00172969,0.00225479 0.00152656,0.00239699 0.00131181,0.00252093 0.00108707,0.00262568 0.000854058,0.00271045 0.000614542,0.00277458 0.000370348,0.00281758 0.000123334,0.00283914 0,9.54792e-14 0,0.334807 0.678354,0 0,0.26466 z "/>
<path fill="rgb(42,41,42)" stroke="rgb(42,41,42)" d="M 4.71905,3.32243 l 0.302919,0 0,0.432503 -0.782582,0 -0.00252287,0 0.0838545,0.208364 0.0219742,0.056296 0.219496,0.0376135 0.221543,0.0226284 0.222568,0.00753897 0.00522302,-3.61685e-06 0.00522301,-1.19363e-05 0.00522298,-2.02556e-05 0,0.138796 -0.262473,-0.00737893 -0.261463,-0.0241516 -0.259383,-0.0408254 -0.211741,-0.508543 -0.104965,-0.12487 4.44089e-16,-0.273726 0.105104,0 0,0.204889 0.000686744,0 5.64122e-06,0.00234994 0.0774857,-0.000186011 -0.000497048,-0.207053 0.614321,0 0,0.07579 z "/>
<path fill="rgb(187,30,16)" stroke="rgb(187,30,16)" d="M 0.2,3.75 l -0.2,0 0.0142699,-0.326834 0.042701,-0.324347 0.0708072,-0.319391 0.0983745,-0.312004 0.125193,-0.302243 0.151059,-0.290182 0.175775,-0.275912 0.199154,-0.259542 0.221016,-0.241197 0.241197,-0.221016 0.259542,-0.199154 0.275912,-0.175775 0.290182,-0.151059 0.302243,-0.125193 0.312004,-0.0983745 0.319391,-0.0708072 0.324347,-0.042701 0.326834,-0.0142699 0.326834,0.0142699 0.324347,0.042701 0.319391,0.0708072 0.312004,0.0983745 0.302243,0.125193 0.290182,0.151059 0.275912,0.175775 0.259542,0.199154 0.241197,0.221016 0.221016,0.241197 0.199154,0.259542 0.175775,0.275912 0.151059,0.290182 0.125193,0.302243 0.0983745,0.312004 0.0708072,0.319391 0.042701,0.324347 0.0142699,0.326834 -0.2,0 -0.0135088,-0.309403 -0.0404237,-0.307048 -0.0670308,-0.302357 -0.0931279,-0.295364 -0.118516,-0.286123 -0.143002,-0.274705 -0.1664,-0.261196 -0.188532,-0.2457 -0.209229,-0.228333 -0.228333,-0.209229 -0.2457,-0.188532 -0.261196,-0.1664 -0.274705,-0.143002 -0.286123,-0.118516 -0.295364,-0.0931279 -0.302357,-0.0670308 -0.307048,-0.0404237 -0.309403,-0.0135088 -0.309403,0.0135088 -0.307048,0.0404237 -0.302357,0.0670308 -0.295364,0.0931279 -0.286123,0.118516 -0.274705,0.143002 -0.261196,0.1664 -0.2457,0.188532 -0.228333,0.209229 -0.209229,0.228333 -0.188532,0.2457 -0.1664,0.261196 -0.143002,0.274705 -0.118516,0.286123 -0.0931279,0.295364 -0.0670308,0.302357 -0.0404237,0.307048 -0.0135088,0.309403 z "/>
<path fill="rgb(187,30,16)" stroke="rgb(187,30,16)" d="M 0.2,3.75 l 0.0135088,0.309403 0.0404237,0.307048 0.0670308,0.302357 0.0931279,0.295364 0.118516,0.286123 0.143002,0.274705 0.1664,0.261196 0.188532,0.2457 0.209229,0.228333 0.228333,0.209229 0.2457,0.188532 0.261196,0.1664 0.274705,0.143002 0.286123,0.118516 0.295364,0.0931279 0.302357,0.0670308 0.307048,0.0404237 0.309403,0.0135088 0.309403,-0.0135088 0.307048,-0.0404237 0.302357,-0.0670308 0.295364,-0.0931279 0.286123,-0.118516 0.274705,-0.143002 0.261196,-0.1664 0.2457,-0.188532 0.228333,-0.209229 0.209229,-0.228333 0.188532,-0.2457 0.1664,-0.261196 0.143002,-0.274705 0.118516,-0.286123 0.0931279,-0.295364 0.0670308,-0.302357 0.0404237,-0.307048 0.0135088,-0.309403 0.2,0 -0.0142699,0.326834 -0.042701,0.324347 -0.0708072,0.319391 -0.0983745,0.312004 -0.125193,0.302243 -0.151059,0.290182 -0.175775,0.275912 -0.199154,0.259542 -0.221016,0.241197 -0.241197,0.221016 -0.259542,0.199154 -0.275912,0.175775 -0.290182,0.151059 -0.302243,0.125193 -0.312004,0.0983745 -0.319391,0.0708072 -0.324347,0.042701 -0.326834,0.0142699 -0.326834,-0.0142699 -0.324347,-0.042701 -0.319391,-0.0708072 -0.312004,-0.0983745 -0.302243,-0.125193 -0.290182,-0.151059 -0.275912,-0.175775 -0.259542,-0.199154 -0.241197,-0.221016 -0.221016,-0.241197 -0.199154,-0.259542 -0.175775,-0.275912 -0.151059,-0.290182 -0.125193,-0.302243 -0.0983745,-0.312004 -0.0708072,-0.319391 -0.042701,-0.324347 -0.0142699,-0.326834 0.2,0 z "/>
<path fill="rgb(187,30,16)" stroke="rgb(187,30,16)" d="M 7.1,3.75 l -0.7,0 -0.0100841,-0.230963 -0.0301754,-0.229205 -0.0500371,-0.225703 -0.069518,-0.220483 -0.0884698,-0.213585 -0.106748,-0.205062 -0.124214,-0.194978 -0.140735,-0.18341 -0.156185,-0.170446 -0.170446,-0.156185 -0.18341,-0.140735 -0.194978,-0.124214 -0.205062,-0.106748 -0.213585,-0.0884698 -0.220483,-0.069518 -0.225703,-0.0500371 -0.229205,-0.0301754 -0.230963,-0.0100841 -0.230963,0.0100841 -0.229205,0.0301754 -0.225703,0.0500371 -0.220483,0.069518 -0.213585,0.0884698 -0.205062,0.106748 -0.194978,0.124214 -0.18341,0.140735 -0.170446,0.156185 -0.156185,0.170446 -0.140735,0.18341 -0.124214,0.194978 -0.106748,0.205062 -0.0884698,0.213585 -0.069518,0.220483 -0.0500371,0.225703 -0.0301754,0.229205 -0.0100841,0.230963 -0.7,0 0.0127478,-0.291972 0.0381463,-0.28975 0.0632545,-0.285322 0.0878812,-0.278724 0.111839,-0.270004 0.134946,-0.259229 0.157026,-0.246481 0.17791,-0.231857 0.197441,-0.215469 0.215469,-0.197441 0.231857,-0.17791 0.246481,-0.157026 0.259229,-0.134946 0.270004,-0.111839 0.278724,-0.0878812 0.285322,-0.0632545 0.28975,-0.0381463 0.291972,-0.0127478 0.291972,0.0127478 0.28975,0.0381463 0.285322,0.0632545 0.278724,0.0878812 0.270004,0.111839 0.259229,0.134946 0.246481,0.157026 0.231857,0.17791 0.215469,0.197441 0.197441,0.215469 0.17791,0.231857 0.157026,0.246481 0.134946,0.259229 0.111839,0.270004 0.0878812,0.278724 0.0632545,0.285322 0.0381463,0.28975 0.0127478,0.291972 z "/>
<path fill="rgb(187,30,16)" stroke="rgb(187,30,16)" d="M 7.1,3.75 l -0.0127478,0.291972 -0.0381463,0.28975 -0.0632545,0.285322 -0.0878812,0.278724 -0.111839,0.270004 -0.134946,0.259229 -0.157026,0.246481 -0.17791,0.231857 -0.197441,0.215469 -0.215469,0.197441 -0.231857,0.17791 -0.246481,0.157026 -0.259229,0.134946 -0.270004,0.111839 -0.278724,0.0878812 -0.285322,0.0632545 -0.28975,0.0381463 -0.291972,0.0127478 -0.291972,-0.0127478 -0.28975,-0.0381463 -0.285322,-0.0632545 -0.278724,-0.0878812 -0.270004,-0.111839 -0.259229,-0.134946 -0.246481,-0.157026 -0.231857,-0.17791 -0.215469,-0.197441 -0.197441,-0.215469 -0.17791,-0.231857 -0.157026,-0.246481 -0.134946,-0.259229 -0.111839,-0.270004 -0.0878812,-0.278724 -0.0632545,-0.285322 -0.0381463,-0.28975 -0.0127478,-0.291972 0.7,0 0.0100841,0.230963 0.0301754,0.229205 0.0500371,0.225703 0.069518,0.220483 0.0884698,0.213585 0.106748,0.205062 0.124214,0.194978 0.140735,0.18341 0.156185,0.170446 0.170446,0.156185 0.18341,0.140735 0.194978,0.124214 0.205062,0.106748 0.213585,0.0884698 0.220483,0.069518 0.225703,0.0500371 0.229205,0.0301754 0.230963,0.0100841 0.230963,-0.0100841 0.229205,-0.0301754 0.225703,-0.0500371 0.220483,-0.069518 0.213585,-0.0884698 0.205062,-0.106748 0.194978,-0.124214 0.18341,-0.140735 0.170446,-0.156185 0.156185,-0.170446 0.140735,-0.18341 0.124214,-0.194978 0.106748,-0.205062 0.0884698,-0.213585 0.069518,-0.220483 0.0500371,-0.225703 0.0301754,-0.229205 0.0100841,-0.230963 0.7,0 z "/>
</g></g></svg>
