<?xml version="1.0" encoding="UTF-8" standalone="no"?>
<!DOCTYPE svg PUBLIC "-//W3C//DTD SVG 1.1//EN" "http://www.w3.org/Graphics/SVG/1.1/DTD/svg11-flat.dtd"
[

]>
<svg xmlns="http://www.w3.org/2000/svg"  viewBox="-0.0333333 -0.0333333 4.56667 2.06667"><g fill="none" stroke="black" stroke-width="0.0125" transform="translate(0,2) scale(1, -1)">
<g id="Output" >
<path fill="rgb(0,131,145)" stroke="rgb(0,131,145)" d="M 3.57752,0.32302 l 0.614984,0 0,0.298024 0.307492,0 0,-0.621043 -4.1837,-1.33227e-15 0.280377,0.57582 0.18156,0 0.093702,0.190202 0.213758,-0.190202 0,-0.298471 0.147236,0 0,0.358534 -0.28974,0.274774 0.0480831,0.0976021 0.228549,-0.218933 0.045877,0.0523951 0.435967,-0.220677 2.22045e-16,-0.144038 0.811971,0 0,-0.139237 0.576548,0.283276 0.487337,0 0,-0.298024 z "/>
<path fill="rgb(0,131,145)" stroke="rgb(0,131,145)" d="M 0,2 l 4.5,4.44089e-16 0,-1.37896 -0.307492,0 0,1.05594 -0.614984,0 0,-1.05594 -0.487337,0 -0.576548,0.283276 0,-0.139237 -0.811971,0 -2.22045e-16,-0.144038 -0.435967,0.220677 0.045877,0.0523951 -0.252236,0.25231 0.0302646,0.061433 -0.0273364,0.0263526 0.0150783,0.000238144 0.0150003,0.00154925 0.0148086,0.0028486 0.0145046,0.00412634 0.0140906,0.00537279 0.0135696,0.00657847 0.0129457,0.00773426 0.0122236,0.00883137 0.0114088,0.00986149 0.0105075,0.0108168 0.00952642,0.0116901 0.00847309,0.0124747 0.0073555,0.0131646 0.0061821,0.0137547 0.00496181,0.0142405 0.00370388,0.0146182 0.00241786,0.014885 0.00111349,0.015039 -0.000199321,0.0150788 -0.00151062,0.0150043 -0.00281046,0.0148159 -0.00408899,0.0145152 -0.00533649,0.0141043 -0.00654351,0.0135865 -0.0077009,0.0129656 -0.00879987,0.0122463 -0.00983209,0.0114342 -0.0107897,0.0105353 -0.0116655,0.00955648 -0.0124528,0.00850518 -0.0131456,0.00738937 -0.0137387,0.0062175 -0.0142276,0.00499846 -0.0146086,0.00374151 -0.0148788,0.00245617 -0.0150361,0.00115221 -0.0150793,-0.000160497 -0.0150081,-0.00147199 -0.0148231,-0.00277231 -0.0145257,-0.0040516 -0.014118,-0.00530016 -0.0136033,-0.00650851 -0.0129854,-0.00766749 -0.012269,-0.00876831 -0.0114595,-0.00980262 -0.010563,-0.0107626 -0.00958649,-0.0116409 -0.00853722,-0.0124309 -0.00742319,-0.0131266 -0.00625285,-0.0137227 -0.00503508,-0.0142147 -0.00377911,-0.0145989 -0.00249448,-0.0148724 -0.00119092,-0.015033 0.000121671,-0.0150796 0.00143334,-0.0150119 0.00273413,-0.0148302 0.00401419,-0.0145361 0.00526379,-0.0141316 0.00647347,-0.01362 0.00763403,-0.0130051 -0.345526,0 -0.155194,-0.289692 0.12884,-0.0643761 0.105415,0.210685 0.0849174,0 -0.216686,-0.418445 -0.310388,0 0,-0.175571 0.38358,0 -0.280377,-0.57582 -0.316299,2.22045e-16 0,2 z "/>
<path fill="rgb(241,240,234)" stroke="rgb(241,240,234)" d="M 2.51364,0.477005 l -0.811971,0 -2.22045e-16,0.144038 2.22045e-16,0.144038 0.811971,0 0,0.139237 0.576548,-0.283276 -0.576548,-0.283276 0,0.139237 z "/>
<path fill="rgb(241,240,234)" stroke="rgb(241,240,234)" d="M 1.0857,0.277349 l 0,0.298471 -0.213758,0.190202 -0.093702,-0.190202 -0.18156,0 -0.38358,0 0,0.175571 0.310388,0 0.216686,0.418445 -0.0849174,0 -0.105415,-0.210685 -0.12884,0.0643761 0.155194,0.289692 0.345526,0 -0.00763403,0.0130051 -0.00647347,0.01362 -0.00526379,0.0141316 -0.00401419,0.0145361 -0.00273413,0.0148302 -0.00143334,0.0150119 -0.000121671,0.0150796 0.00119092,0.015033 0.00249448,0.0148724 0.00377911,0.0145989 0.00503508,0.0142147 0.00625285,0.0137227 0.00742319,0.0131266 0.00853722,0.0124309 0.00958649,0.0116409 0.010563,0.0107626 0.0114595,0.00980262 0.012269,0.00876831 0.0129854,0.00766749 0.0136033,0.00650851 0.014118,0.00530016 0.0145257,0.0040516 0.0148231,0.00277231 0.0150081,0.00147199 0.0150793,0.000160497 0.0150361,-0.00115221 0.0148788,-0.00245617 0.0146086,-0.00374151 0.0142276,-0.00499846 0.0137387,-0.0062175 0.0131456,-0.00738937 0.0124528,-0.00850518 0.0116655,-0.00955648 0.0107897,-0.0105353 0.00983209,-0.0114342 0.00879987,-0.0122463 0.0077009,-0.0129656 0.00654351,-0.0135865 0.00533649,-0.0141043 0.00408899,-0.0145152 0.00281046,-0.0148159 0.00151062,-0.0150043 0.000199321,-0.0150788 -0.00111349,-0.015039 -0.00241786,-0.014885 -0.00370388,-0.0146182 -0.00496181,-0.0142405 -0.0061821,-0.0137547 -0.0073555,-0.0131646 -0.00847309,-0.0124747 -0.00952642,-0.0116901 -0.0105075,-0.0108168 -0.0114088,-0.00986149 -0.0122236,-0.00883137 -0.0129457,-0.00773426 -0.0135696,-0.00657847 -0.0140906,-0.00537279 -0.0145046,-0.00412634 -0.0148086,-0.0028486 -0.0150003,-0.00154925 -0.0150783,-0.000238144 0.0273364,-0.0263526 -0.0302646,-0.061433 0.252236,-0.25231 -0.045877,-0.0523951 -0.045877,-0.0523951 -0.228549,0.218933 -0.0480831,-0.0976021 0.28974,-0.274774 0,-0.358534 -0.147236,0 z "/>
<path fill="rgb(241,240,234)" stroke="rgb(241,240,234)" d="M 3.57752,0.32302 l 0.614984,0 0,0.298024 0,1.05594 -0.614984,0 0,-1.05594 0,-0.298024 z "/>
<path fill="rgb(241,240,234)" stroke="rgb(241,240,234)" d="M 3.13596,1.45655 l -0.00458157,-0.000254531 -0.0190899,-0.00229078 -0.0190899,-0.00559969 -0.0188353,-0.00865407 -0.0190899,-0.011963 -0.0190899,-0.0150174 0.198789,-0.00865407 -0.0139992,0.0173081 -0.00738141,0.00738141 -0.0167991,0.0122175 -0.0185808,0.00839954 -0.020108,0.00534516 -0.0221442,0.00178172 z "/>
<path fill="rgb(241,240,234)" stroke="rgb(241,240,234)" d="M 2.95091,1.45655 l -0.00738141,-0.000254531 -0.020108,-0.00356344 -0.0188353,-0.00763594 -0.0175627,-0.0117084 -0.0165445,-0.0155264 0.1657,-0.00509063 -0.0106903,0.0122175 -0.01629,0.0137447 -0.0178172,0.00992673 -0.0193444,0.00585422 -0.0211261,0.00203625 z "/>
<path fill="rgb(241,240,234)" stroke="rgb(241,240,234)" d="M 2.87048,1.44765 l -0.0806865,0 0,-0.364998 0.0806865,0 0,0.219406 0,0.0048361 0.00432703,0.0226533 0.0106903,0.0190899 0.00152719,0.00178172 0.01629,0.0122175 0.0208716,0.0040725 0.193953,0 0.127266,0.0180717 -0.0104358,0.0193444 -0.198789,0.00865407 -0.1657,0.00509063 0,0.0297802 z "/>
<path fill="rgb(241,240,234)" stroke="rgb(241,240,234)" d="M 3.24541,1.38478 l -0.127266,-0.0180717 0.00534516,0 0.020617,-0.00534516 0.0152719,-0.0127266 0.00356344,-0.00509063 0.00865407,-0.0198535 0.00305438,-0.023926 0,-0.217115 0.0804319,0 0,0.250713 0,0.00738141 -0.00305438,0.0229078 -0.00661782,0.0211261 z "/>
<path fill="rgb(241,240,234)" stroke="rgb(241,240,234)" d="M 3.11814,1.36671 l -0.193953,0 0.00559969,-0.000254531 0.0195989,-0.00559969 0.0173081,-0.0129811 0.00432703,-0.00534516 0.00967219,-0.0190899 0.00305438,-0.0236714 0,-0.217115 0.0773775,0 0,0.220679 0,0.00381797 0.0048361,0.0218897 0.0122175,0.0188353 0.00254531,0.00279985 0.0175627,0.0122175 0.0198535,0.00381797 z "/>
</g></g></svg>
