<?xml version="1.0" encoding="UTF-8" standalone="no"?>
<!DOCTYPE svg PUBLIC "-//W3C//DTD SVG 1.1//EN" "http://www.w3.org/Graphics/SVG/1.1/DTD/svg11-flat.dtd"
[

]>
<svg xmlns="http://www.w3.org/2000/svg"  viewBox="-0.09375 -0.09375 7.6875 7.6875"><g fill="none" stroke="black" stroke-width="0.0125" transform="translate(0,7.5) scale(1, -1)">
<g id="Output" >
<path fill="rgb(241,240,234)" stroke="rgb(241,240,234)" d="M 6.4,3.75 l -5.3,0 0.0100841,-0.230963 0.0301754,-0.229205 0.0500371,-0.225703 0.069518,-0.220483 0.0884698,-0.213585 0.106748,-0.205062 0.124214,-0.194978 0.140735,-0.18341 0.156185,-0.170446 0.170446,-0.156185 0.18341,-0.140735 0.194978,-0.124214 0.205062,-0.106748 0.213585,-0.0884698 0.220483,-0.069518 0.225703,-0.0500371 0.229205,-0.0301754 0.230963,-0.0100841 0.230963,0.0100841 0.229205,0.0301754 0.225703,0.0500371 0.220483,0.069518 0.213585,0.0884698 0.205062,0.106748 0.194978,0.124214 0.18341,0.140735 0.170446,0.156185 0.156185,0.170446 0.140735,0.18341 0.124214,0.194978 0.106748,0.205062 0.0884698,0.213585 0.069518,0.220483 0.0500371,0.225703 0.0301754,0.229205 0.0100841,0.230963 z "/>
<path fill="rgb(241,240,234)" stroke="rgb(241,240,234)" d="M 6.4,3.75 l -0.0100841,0.230963 -0.0301754,0.229205 -0.0500371,0.225703 -0.069518,0.220483 -0.0884698,0.213585 -0.106748,0.205062 -0.124214,0.194978 -0.140735,0.18341 -0.156185,0.170446 -0.170446,0.156185 -0.18341,0.140735 -0.194978,0.124214 -0.205062,0.106748 -0.213585,0.0884698 -0.220483,0.069518 -0.225703,0.0500371 -0.229205,0.0301754 -0.230963,0.0100841 -0.230963,-0.0100841 -0.229205,-0.0301754 -0.225703,-0.0500371 -0.220483,-0.069518 -0.213585,-0.0884698 -0.205062,-0.106748 -0.194978,-0.124214 -0.18341,-0.140735 -0.170446,-0.156185 -0.156185,-0.170446 -0.140735,-0.18341 -0.124214,-0.194978 -0.106748,-0.205062 -0.0884698,-0.213585 -0.069518,-0.220483 -0.0500371,-0.225703 -0.0301754,-0.229205 -0.0100841,-0.230963 5.3,0 z "/>
<path fill="rgb(241,240,234)" stroke="rgb(241,240,234)" d="M 0.2,3.75 l 0.0135088,-0.309403 0.0404237,-0.307048 0.0670308,-0.302357 0.0931279,-0.295364 0.118516,-0.286123 0.143002,-0.274705 0.1664,-0.261196 0.188532,-0.2457 0.209229,-0.228333 0.228333,-0.209229 0.2457,-0.188532 0.261196,-0.1664 0.274705,-0.143002 0.286123,-0.118516 0.295364,-0.0931279 0.302357,-0.0670308 0.307048,-0.0404237 0.309403,-0.0135088 0.309403,0.0135088 0.307048,0.0404237 0.302357,0.0670308 0.295364,0.0931279 0.286123,0.118516 0.274705,0.143002 0.261196,0.1664 0.2457,0.188532 0.228333,0.209229 0.209229,0.228333 0.188532,0.2457 0.1664,0.261196 0.143002,0.274705 0.118516,0.286123 0.0931279,0.295364 0.0670308,0.302357 0.0404237,0.307048 0.0135088,0.309403 -0.2,0 -0.0127478,-0.291972 -0.0381463,-0.28975 -0.0632545,-0.285322 -0.0878812,-0.278724 -0.111839,-0.270004 -0.134946,-0.259229 -0.157026,-0.246481 -0.17791,-0.231857 -0.197441,-0.215469 -0.215469,-0.197441 -0.231857,-0.17791 -0.246481,-0.157026 -0.259229,-0.134946 -0.270004,-0.111839 -0.278724,-0.0878812 -0.285322,-0.0632545 -0.28975,-0.0381463 -0.291972,-0.0127478 -0.291972,0.0127478 -0.28975,0.0381463 -0.285322,0.0632545 -0.278724,0.0878812 -0.270004,0.111839 -0.259229,0.134946 -0.246481,0.157026 -0.231857,0.17791 -0.215469,0.197441 -0.197441,0.215469 -0.17791,0.231857 -0.157026,0.246481 -0.134946,0.259229 -0.111839,0.270004 -0.0878812,0.278724 -0.0632545,0.285322 -0.0381463,0.28975 -0.0127478,0.291972 -0.2,0 z "/>
<path fill="rgb(241,240,234)" stroke="rgb(241,240,234)" d="M 0.2,3.75 l 0.2,0 0.0127478,0.291972 0.0381463,0.28975 0.0632545,0.285322 0.0878812,0.278724 0.111839,0.270004 0.134946,0.259229 0.157026,0.246481 0.17791,0.231857 0.197441,0.215469 0.215469,0.197441 0.231857,0.17791 0.246481,0.157026 0.259229,0.134946 0.270004,0.111839 0.278724,0.0878812 0.285322,0.0632545 0.28975,0.0381463 0.291972,0.0127478 0.291972,-0.0127478 0.28975,-0.0381463 0.285322,-0.0632545 0.278724,-0.0878812 0.270004,-0.111839 0.259229,-0.134946 0.246481,-0.157026 0.231857,-0.17791 0.215469,-0.197441 0.197441,-0.215469 0.17791,-0.231857 0.157026,-0.246481 0.134946,-0.259229 0.111839,-0.270004 0.0878812,-0.278724 0.0632545,-0.285322 0.0381463,-0.28975 0.0127478,-0.291972 0.2,0 -0.0135088,0.309403 -0.0404237,0.307048 -0.0670308,0.302357 -0.0931279,0.295364 -0.118516,0.286123 -0.143002,0.274705 -0.1664,0.261196 -0.188532,0.2457 -0.209229,0.228333 -0.228333,0.209229 -0.2457,0.188532 -0.261196,0.1664 -0.274705,0.143002 -0.286123,0.118516 -0.295364,0.0931279 -0.302357,0.0670308 -0.307048,0.0404237 -0.309403,0.0135088 -0.309403,-0.0135088 -0.307048,-0.0404237 -0.302357,-0.0670308 -0.295364,-0.0931279 -0.286123,-0.118516 -0.274705,-0.143002 -0.261196,-0.1664 -0.2457,-0.188532 -0.228333,-0.209229 -0.209229,-0.228333 -0.188532,-0.2457 -0.1664,-0.261196 -0.143002,-0.274705 -0.118516,-0.286123 -0.0931279,-0.295364 -0.0670308,-0.302357 -0.0404237,-0.307048 -0.0135088,-0.309403 z "/>
<path fill="rgb(42,41,42)" stroke="rgb(42,41,42)" d="M 5.43006,4.86044 l -0.00662556,0 -0.0861323,-0.00473254 -0.0813998,-0.0132511 -0.0766672,-0.0208232 -0.0728812,-0.0293418 -0.0681486,-0.0378604 -0.0634161,-0.0463789 -0.0596301,-0.053951 -0.0548975,-0.0615231 -0.0511115,-0.0709882 -0.0406999,-0.0690951 -0.0359673,-0.0728812 -0.0312348,-0.0766672 -0.0265022,-0.0813998 -0.0208232,-0.0851858 -0.0170372,-0.0899183 -0.0123046,-0.0937044 -0.00757207,-0.0974904 -0.00189302,-0.101276 0,-0.00189302 0.00189302,-0.101276 0.00757207,-0.0974904 0.0123046,-0.0937044 0.0160906,-0.0889718 0.0217697,-0.0861323 0.0255557,-0.0813998 0.0312348,-0.0776137 0.0350208,-0.0728812 0.0397534,-0.0700417 0.00851858,-0.0123046 0.050165,-0.0690951 0.0548975,-0.0615231 0.0596301,-0.053951 0.0634161,-0.0444859 0.0681486,-0.0369138 0.0728812,-0.0293418 0.0776137,-0.0208232 0.0813998,-0.0123046 0.0870788,-0.00378604 0.0208232,0 0.0851858,0.00662556 0.0804532,0.0141976 0.0757207,0.0227162 0.0719347,0.0312348 0.0662556,0.0397534 0.0624696,0.0473254 0.057737,0.055844 0.0530045,0.0643626 0.0492185,0.0719347 -0.622803,0.0312348 -0.00567905,0 -0.0832928,0.00851858 -0.0757207,0.0236627 -0.0681486,0.0378604 -0.0596301,0.0530045 -0.052058,0.0681486 -0.0123046,0.0217697 -0.0340743,0.0672021 -0.0283953,0.0757207 -0.0208232,0.0832928 -0.0160906,0.0918114 -0.00946509,0.0993834 -0.00283953,0.106009 0.000946509,0.0530045 0.00757207,0.0974904 0.0132511,0.0908648 0.0208232,0.0861323 0.0274488,0.0795067 0.0340743,0.0728812 0.0302883,0.0511115 0.0530045,0.0672021 0.0596301,0.052058 0.0672021,0.0378604 0.0728812,0.0227162 0.0813998,0.00757207 0.619963,0.0369138 -0.00662556,0.0113581 -0.050165,0.0700417 -0.053951,0.0615231 -0.0596301,0.053951 -0.0634161,0.0454324 -0.0681486,0.0369138 -0.0728812,0.0283953 -0.0776137,0.0208232 -0.0813998,0.0123046 -0.0861323,0.00473254 z "/>
<path fill="rgb(42,41,42)" stroke="rgb(42,41,42)" d="M 6.05002,4.51496 l -0.619963,-0.0369138 0.00189302,0 0.0832928,-0.00851858 0.0757207,-0.0227162 0.0672021,-0.0388069 0.0605766,-0.0530045 0.052058,-0.0681486 0.00757207,-0.0123046 0.0340743,-0.0672021 0.0283953,-0.0747742 0.0227162,-0.0832928 0.0160906,-0.0908648 0.00946509,-0.0984369 0.00283953,-0.105062 0,-0.0179837 -0.00473254,-0.102223 -0.0113581,-0.0955974 -0.0170372,-0.0889718 -0.0236627,-0.0813998 -0.0302883,-0.0757207 -0.0369138,-0.0690951 -0.00378604,-0.00473254 -0.052058,-0.0709882 -0.0586835,-0.053951 -0.0672021,-0.0397534 -0.0747742,-0.0227162 -0.0813998,-0.00851858 0.622803,-0.0312348 0.0369138,0.0662556 0.0350208,0.0738277 0.0302883,0.0776137 0.0255557,0.0813998 0.0208232,0.0861323 0.0160906,0.0899183 0.0113581,0.0937044 0.00757207,0.0974904 0.00189302,0.101276 -0.00189302,0.0842393 -0.00567905,0.0984369 -0.0113581,0.0937044 -0.0160906,0.0899183 -0.0217697,0.0851858 -0.0255557,0.0823463 -0.0302883,0.0776137 -0.0359673,0.0738277 -0.0397534,0.0700417 z "/>
<path fill="rgb(42,41,42)" stroke="rgb(42,41,42)" d="M 3.30704,4.86044 l -0.00662556,0 -0.0851858,-0.00473254 -0.0813998,-0.0132511 -0.0766672,-0.0208232 -0.0728812,-0.0293418 -0.0681486,-0.0378604 -0.0643626,-0.0463789 -0.0586835,-0.053951 -0.0548975,-0.0615231 -0.0511115,-0.0709882 -0.0406999,-0.0690951 -0.0359673,-0.0728812 -0.0312348,-0.0766672 -0.0265022,-0.0813998 -0.0217697,-0.0851858 -0.0170372,-0.0899183 -0.0113581,-0.0937044 -0.00757207,-0.0974904 -0.00189302,-0.101276 0,-0.00189302 0.00189302,-0.101276 0.00757207,-0.0974904 0.0113581,-0.0937044 0.0170372,-0.0889718 0.0208232,-0.0861323 0.0265022,-0.0813998 0.0302883,-0.0776137 0.0359673,-0.0728812 0.0397534,-0.0700417 0.00757207,-0.0123046 0.050165,-0.0690951 0.0548975,-0.0615231 0.0596301,-0.053951 0.0643626,-0.0444859 0.0681486,-0.0369138 0.0728812,-0.0293418 0.0766672,-0.0208232 0.0823463,-0.0123046 0.0861323,-0.00378604 0.0217697,0 0.0851858,0.00662556 0.0804532,0.0141976 0.0757207,0.0227162 0.0709882,0.0312348 0.0672021,0.0397534 0.0624696,0.0473254 0.057737,0.055844 0.0530045,0.0643626 0.0482719,0.0719347 -0.622803,0.0312348 -0.00473254,0 -0.0842393,0.00851858 -0.0757207,0.0236627 -0.0672021,0.0378604 -0.0596301,0.0530045 -0.052058,0.0681486 -0.0132511,0.0217697 -0.0340743,0.0672021 -0.0274488,0.0757207 -0.0217697,0.0832928 -0.0151441,0.0918114 -0.00946509,0.0993834 -0.00283953,0.106009 0.000946509,0.0530045 0.00662556,0.0974904 0.0141976,0.0908648 0.0208232,0.0861323 0.0274488,0.0795067 0.0340743,0.0728812 0.0302883,0.0511115 0.0530045,0.0672021 0.0596301,0.052058 0.0662556,0.0378604 0.0738277,0.0227162 0.0804532,0.00757207 0.619963,0.0369138 -0.00662556,0.0113581 -0.0492185,0.0700417 -0.0548975,0.0615231 -0.0586835,0.053951 -0.0634161,0.0454324 -0.0681486,0.0369138 -0.0728812,0.0283953 -0.0776137,0.0208232 -0.0813998,0.0123046 -0.0870788,0.00473254 z "/>
<path fill="rgb(42,41,42)" stroke="rgb(42,41,42)" d="M 3.927,4.51496 l -0.619963,-0.0369138 0.00283953,0 0.0832928,-0.00851858 0.0757207,-0.0227162 0.0672021,-0.0388069 0.0596301,-0.0530045 0.052058,-0.0681486 0.00757207,-0.0123046 0.0350208,-0.0672021 0.0283953,-0.0747742 0.0217697,-0.0832928 0.0160906,-0.0908648 0.00946509,-0.0984369 0.00378604,-0.105062 -0.000946509,-0.0179837 -0.00473254,-0.102223 -0.0104116,-0.0955974 -0.0179837,-0.0889718 -0.0236627,-0.0813998 -0.0302883,-0.0757207 -0.0359673,-0.0690951 -0.00378604,-0.00473254 -0.052058,-0.0709882 -0.0596301,-0.053951 -0.0672021,-0.0397534 -0.0738277,-0.0227162 -0.0823463,-0.00851858 0.622803,-0.0312348 0.0378604,0.0662556 0.0350208,0.0738277 0.0293418,0.0776137 0.0255557,0.0813998 0.0217697,0.0861323 0.0160906,0.0899183 0.0113581,0.0937044 0.00662556,0.0974904 0.00283953,0.101276 -0.00189302,0.0842393 -0.00662556,0.0984369 -0.0113581,0.0937044 -0.0160906,0.0899183 -0.0208232,0.0851858 -0.0255557,0.0823463 -0.0312348,0.0776137 -0.0350208,0.0738277 -0.0406999,0.0700417 z "/>
<path fill="rgb(42,41,42)" stroke="rgb(42,41,42)" d="M 1.99045,4.82542 l -0.275434,0 -0.0350208,-0.053951 -0.053951,-0.0624696 -0.0624696,-0.0511115 -0.0719347,-0.0388069 -0.0813998,-0.0283953 0.00567905,-0.307615 0.245146,0 -0.00851858,-1.60717 0.337904,0 0,2.14952 z "/>
<path fill="rgb(187,30,16)" stroke="rgb(187,30,16)" d="M 0.2,3.75 l -0.2,0 0.0142699,-0.326834 0.042701,-0.324347 0.0708072,-0.319391 0.0983745,-0.312004 0.125193,-0.302243 0.151059,-0.290182 0.175775,-0.275912 0.199154,-0.259542 0.221016,-0.241197 0.241197,-0.221016 0.259542,-0.199154 0.275912,-0.175775 0.290182,-0.151059 0.302243,-0.125193 0.312004,-0.0983745 0.319391,-0.0708072 0.324347,-0.042701 0.326834,-0.0142699 0.326834,0.0142699 0.324347,0.042701 0.319391,0.0708072 0.312004,0.0983745 0.302243,0.125193 0.290182,0.151059 0.275912,0.175775 0.259542,0.199154 0.241197,0.221016 0.221016,0.241197 0.199154,0.259542 0.175775,0.275912 0.151059,0.290182 0.125193,0.302243 0.0983745,0.312004 0.0708072,0.319391 0.042701,0.324347 0.0142699,0.326834 -0.2,0 -0.0135088,-0.309403 -0.0404237,-0.307048 -0.0670308,-0.302357 -0.0931279,-0.295364 -0.118516,-0.286123 -0.143002,-0.274705 -0.1664,-0.261196 -0.188532,-0.2457 -0.209229,-0.228333 -0.228333,-0.209229 -0.2457,-0.188532 -0.261196,-0.1664 -0.274705,-0.143002 -0.286123,-0.118516 -0.295364,-0.0931279 -0.302357,-0.0670308 -0.307048,-0.0404237 -0.309403,-0.0135088 -0.309403,0.0135088 -0.307048,0.0404237 -0.302357,0.0670308 -0.295364,0.0931279 -0.286123,0.118516 -0.274705,0.143002 -0.261196,0.1664 -0.2457,0.188532 -0.228333,0.209229 -0.209229,0.228333 -0.188532,0.2457 -0.1664,0.261196 -0.143002,0.274705 -0.118516,0.286123 -0.0931279,0.295364 -0.0670308,0.302357 -0.0404237,0.307048 -0.0135088,0.309403 z "/>
<path fill="rgb(187,30,16)" stroke="rgb(187,30,16)" d="M 0.2,3.75 l 0.0135088,0.309403 0.0404237,0.307048 0.0670308,0.302357 0.0931279,0.295364 0.118516,0.286123 0.143002,0.274705 0.1664,0.261196 0.188532,0.2457 0.209229,0.228333 0.228333,0.209229 0.2457,0.188532 0.261196,0.1664 0.274705,0.143002 0.286123,0.118516 0.295364,0.0931279 0.302357,0.0670308 0.307048,0.0404237 0.309403,0.0135088 0.309403,-0.0135088 0.307048,-0.0404237 0.302357,-0.0670308 0.295364,-0.0931279 0.286123,-0.118516 0.274705,-0.143002 0.261196,-0.1664 0.2457,-0.188532 0.228333,-0.209229 0.209229,-0.228333 0.188532,-0.2457 0.1664,-0.261196 0.143002,-0.274705 0.118516,-0.286123 0.0931279,-0.295364 0.0670308,-0.302357 0.0404237,-0.307048 0.0135088,-0.309403 0.2,0 -0.0142699,0.326834 -0.042701,0.324347 -0.0708072,0.319391 -0.0983745,0.312004 -0.125193,0.302243 -0.151059,0.290182 -0.175775,0.275912 -0.199154,0.259542 -0.221016,0.241197 -0.241197,0.221016 -0.259542,0.199154 -0.275912,0.175775 -0.290182,0.151059 -0.302243,0.125193 -0.312004,0.0983745 -0.319391,0.0708072 -0.324347,0.042701 -0.326834,0.0142699 -0.326834,-0.0142699 -0.324347,-0.042701 -0.319391,-0.0708072 -0.312004,-0.0983745 -0.302243,-0.125193 -0.290182,-0.151059 -0.275912,-0.175775 -0.259542,-0.199154 -0.241197,-0.221016 -0.221016,-0.241197 -0.199154,-0.259542 -0.175775,-0.275912 -0.151059,-0.290182 -0.125193,-0.302243 -0.0983745,-0.312004 -0.0708072,-0.319391 -0.042701,-0.324347 -0.0142699,-0.326834 0.2,0 z "/>
<path fill="rgb(187,30,16)" stroke="rgb(187,30,16)" d="M 6.4,3.75 l -0.0100841,-0.230963 -0.0301754,-0.229205 -0.0500371,-0.225703 -0.069518,-0.220483 -0.0884698,-0.213585 -0.106748,-0.205062 -0.124214,-0.194978 -0.140735,-0.18341 -0.156185,-0.170446 -0.170446,-0.156185 -0.18341,-0.140735 -0.194978,-0.124214 -0.205062,-0.106748 -0.213585,-0.0884698 -0.220483,-0.069518 -0.225703,-0.0500371 -0.229205,-0.0301754 -0.230963,-0.0100841 -0.230963,0.0100841 -0.229205,0.0301754 -0.225703,0.0500371 -0.220483,0.069518 -0.213585,0.0884698 -0.205062,0.106748 -0.194978,0.124214 -0.18341,0.140735 -0.170446,0.156185 -0.156185,0.170446 -0.140735,0.18341 -0.124214,0.194978 -0.106748,0.205062 -0.0884698,0.213585 -0.069518,0.220483 -0.0500371,0.225703 -0.0301754,0.229205 -0.0100841,0.230963 -0.7,0 0.0127478,-0.291972 0.0381463,-0.28975 0.0632545,-0.285322 0.0878812,-0.278724 0.111839,-0.270004 0.134946,-0.259229 0.157026,-0.246481 0.17791,-0.231857 0.197441,-0.215469 0.215469,-0.197441 0.231857,-0.17791 0.246481,-0.157026 0.259229,-0.134946 0.270004,-0.111839 0.278724,-0.0878812 0.285322,-0.0632545 0.28975,-0.0381463 0.291972,-0.0127478 0.291972,0.0127478 0.28975,0.0381463 0.285322,0.0632545 0.278724,0.0878812 0.270004,0.111839 0.259229,0.134946 0.246481,0.157026 0.231857,0.17791 0.215469,0.197441 0.197441,0.215469 0.17791,0.231857 0.157026,0.246481 0.134946,0.259229 0.111839,0.270004 0.0878812,0.278724 0.0632545,0.285322 0.0381463,0.28975 0.0127478,0.291972 -0.7,0 z "/>
<path fill="rgb(187,30,16)" stroke="rgb(187,30,16)" d="M 6.4,3.75 l 0.7,0 -0.0127478,0.291972 -0.0381463,0.28975 -0.0632545,0.285322 -0.0878812,0.278724 -0.111839,0.270004 -0.134946,0.259229 -0.157026,0.246481 -0.17791,0.231857 -0.197441,0.215469 -0.215469,0.197441 -0.231857,0.17791 -0.246481,0.157026 -0.259229,0.134946 -0.270004,0.111839 -0.278724,0.0878812 -0.285322,0.0632545 -0.28975,0.0381463 -0.291972,0.0127478 -0.291972,-0.0127478 -0.28975,-0.0381463 -0.285322,-0.0632545 -0.278724,-0.0878812 -0.270004,-0.111839 -0.259229,-0.134946 -0.246481,-0.157026 -0.231857,-0.17791 -0.215469,-0.197441 -0.197441,-0.215469 -0.17791,-0.231857 -0.157026,-0.246481 -0.134946,-0.259229 -0.111839,-0.270004 -0.0878812,-0.278724 -0.0632545,-0.285322 -0.0381463,-0.28975 -0.0127478,-0.291972 0.7,0 0.0100841,0.230963 0.0301754,0.229205 0.0500371,0.225703 0.069518,0.220483 0.0884698,0.213585 0.106748,0.205062 0.124214,0.194978 0.140735,0.18341 0.156185,0.170446 0.170446,0.156185 0.18341,0.140735 0.194978,0.124214 0.205062,0.106748 0.213585,0.0884698 0.220483,0.069518 0.225703,0.0500371 0.229205,0.0301754 0.230963,0.0100841 0.230963,-0.0100841 0.229205,-0.0301754 0.225703,-0.0500371 0.220483,-0.069518 0.213585,-0.0884698 0.205062,-0.106748 0.194978,-0.124214 0.18341,-0.140735 0.170446,-0.156185 0.156185,-0.170446 0.140735,-0.18341 0.124214,-0.194978 0.106748,-0.205062 0.0884698,-0.213585 0.069518,-0.220483 0.0500371,-0.225703 0.0301754,-0.229205 0.0100841,-0.230963 z "/>
</g></g></svg>
