<?xml version="1.0" encoding="UTF-8" standalone="no"?>
<!DOCTYPE svg PUBLIC "-//W3C//DTD SVG 1.1//EN" "http://www.w3.org/Graphics/SVG/1.1/DTD/svg11-flat.dtd"
[

]>
<svg xmlns="http://www.w3.org/2000/svg"  viewBox="-0.125044 -0.125044 10.2536 12.7519"><g fill="none" stroke="black" stroke-width="0.0125" transform="translate(0,12.5018) scale(1, -1)">
<g id="Output" >
<path fill="rgb(241,240,234)" stroke="rgb(241,240,234)" d="M 0.508116,6.25089 l 0,-0.00265976 2.24365,0 0,3.05266 0.00266371,0.061009 0.00797086,0.0605447 0.0132173,0.0596196 0.0183632,0.0582408 0.0233694,0.0564187 0.0281977,0.0541672 0.0328114,0.0515035 0.0371753,0.0484478 0.0412564,0.0450234 0.0450234,0.0412564 0.0484478,0.0371753 0.0515035,0.0328114 0.0541672,0.0281977 0.0564187,0.0233694 0.0582408,0.0183632 0.0596196,0.0132173 0.0605447,0.00797086 0.061009,0.00266371 1.55,0 1.55,0 0.061009,-0.00266371 0.0605447,-0.00797086 0.0596196,-0.0132173 0.0582408,-0.0183632 0.0564187,-0.0233694 0.0541672,-0.0281977 0.0515035,-0.0328114 0.0484478,-0.0371753 0.0450234,-0.0412564 0.0412564,-0.0450234 0.0371753,-0.0484478 0.0328114,-0.0515035 0.0281977,-0.0541672 0.0233694,-0.0564187 0.0183632,-0.0582408 0.0132173,-0.0596196 0.00797086,-0.0605447 0.00266371,-0.061009 -8.88178e-16,-3.05266 2.25953,0 1.77636e-15,0.00265976 -1.77636e-15,5.48553 -0.000998892,0.0228784 -0.00298907,0.0227043 -0.00495651,0.0223574 -0.00688622,0.0218403 -0.00876352,0.021157 -0.0105741,0.0203127 -0.0123043,0.0193138 -0.0139407,0.0181679 -0.0154711,0.0168838 -0.0168838,0.0154711 -0.0181679,0.0139407 -0.0193138,0.0123043 -0.0203127,0.0105741 -0.021157,0.00876352 -0.0218403,0.00688622 -0.0223574,0.00495651 -0.0227043,0.00298907 -0.0228784,0.000998892 -8.47818,-8.88178e-15 -0.0228784,-0.000998892 -0.0227043,-0.00298907 -0.0223574,-0.00495651 -0.0218403,-0.00688622 -0.021157,-0.00876352 -0.0203127,-0.0105741 -0.0193138,-0.0123043 -0.0181679,-0.0139407 -0.0168838,-0.0154711 -0.0154711,-0.0168838 -0.0139407,-0.0181679 -0.0123043,-0.0193138 -0.0105741,-0.0203127 -0.00876352,-0.021157 -0.00688622,-0.0218403 -0.00495651,-0.0223574 -0.00298907,-0.0227043 -0.000998892,-0.0228784 0,-5.48553 z "/>
<path fill="rgb(241,240,234)" stroke="rgb(241,240,234)" d="M 2.75177,6.24823 l -2.24365,0 0,-5.48819 0.000998892,-0.0228784 0.00298907,-0.0227043 0.00495651,-0.0223574 0.00688622,-0.0218403 0.00876352,-0.021157 0.0105741,-0.0203127 0.0123043,-0.0193138 0.0139407,-0.0181679 0.0154711,-0.0168838 0.0168838,-0.0154711 0.0181679,-0.0139407 0.0193138,-0.0123043 0.0203127,-0.0105741 0.021157,-0.00876352 0.0218403,-0.00688622 0.0223574,-0.00495651 0.0227043,-0.00298907 0.0228784,-0.000998892 8.47818,8.88178e-15 0.0228784,0.000998892 0.0227043,0.00298907 0.0223574,0.00495651 0.0218403,0.00688622 0.021157,0.00876352 0.0203127,0.0105741 0.0193138,0.0123043 0.0181679,0.0139407 0.0168838,0.0154711 0.0154711,0.0168838 0.0139407,0.0181679 0.0123043,0.0193138 0.0105741,0.0203127 0.00876352,0.021157 0.00688622,0.0218403 0.00495651,0.0223574 0.00298907,0.0227043 0.000998892,0.0228784 0,5.48819 -2.25953,0 -8.88178e-16,-3.04734 -0.00266371,-0.061009 -0.00797086,-0.0605447 -0.0132173,-0.0596196 -0.0183632,-0.0582408 -0.0233694,-0.0564187 -0.0281977,-0.0541672 -0.0328114,-0.0515035 -0.0371753,-0.0484478 -0.0412564,-0.0450234 -0.0450234,-0.0412564 -0.0484478,-0.0371753 -0.0515035,-0.0328114 -0.0541672,-0.0281977 -0.0564187,-0.0233694 -0.0582408,-0.0183632 -0.0596196,-0.0132173 -0.0605447,-0.00797086 -0.061009,-0.00266371 -1.55,4.44089e-16 -1.55,8.88178e-16 -0.061009,0.00266371 -0.0605447,0.00797086 -0.0596196,0.0132173 -0.0582408,0.0183632 -0.0564187,0.0233694 -0.0541672,0.0281977 -0.0515035,0.0328114 -0.0484478,0.0371753 -0.0450234,0.0412564 -0.0412564,0.0450234 -0.0371753,0.0484478 -0.0328114,0.0515035 -0.0281977,0.0541672 -0.0233694,0.0564187 -0.0183632,0.0582408 -0.0132173,0.0596196 -0.00797086,0.0605447 -0.00266371,0.061009 0,3.04734 z "/>
<path fill="rgb(0,91,140)" stroke="rgb(0,91,140)" d="M 5.00177,2.90089 l 1.55,-4.44089e-16 0.0261467,0.00114159 0.0259477,0.00341608 0.0255513,0.00566458 0.0249603,0.00786996 0.0241794,0.0100155 0.0232145,0.0120847 0.0220729,0.014062 0.0207634,0.0159323 0.0192958,0.0176813 0.0176813,0.0192958 0.0159323,0.0207634 0.014062,0.0220729 0.0120847,0.0232145 0.0100155,0.0241794 0.00786996,0.0249603 0.00566458,0.0255513 0.00341608,0.0259477 0.00114159,0.0261467 1.77636e-15,6.1 -0.00114159,0.0261467 -0.00341608,0.0259477 -0.00566458,0.0255513 -0.00786996,0.0249603 -0.0100155,0.0241794 -0.0120847,0.0232145 -0.014062,0.0220729 -0.0159323,0.0207634 -0.0176813,0.0192958 -0.0192958,0.0176813 -0.0207634,0.0159323 -0.0220729,0.014062 -0.0232145,0.0120847 -0.0241794,0.0100155 -0.0249603,0.00786996 -0.0255513,0.00566458 -0.0259477,0.00341608 -0.0261467,0.00114159 -1.55,0 -1.55,0 -0.0261467,-0.00114159 -0.0259477,-0.00341608 -0.0255513,-0.00566458 -0.0249603,-0.00786996 -0.0241794,-0.0100155 -0.0232145,-0.0120847 -0.0220729,-0.014062 -0.0207634,-0.0159323 -0.0192958,-0.0176813 -0.0176813,-0.0192958 -0.0159323,-0.0207634 -0.014062,-0.0220729 -0.0120847,-0.0232145 -0.0100155,-0.0241794 -0.00786996,-0.0249603 -0.00566458,-0.0255513 -0.00341608,-0.0259477 -0.00114159,-0.0261467 -4.44089e-16,-6.1 0.00114159,-0.0261467 0.00341608,-0.0259477 0.00566458,-0.0255513 0.00786996,-0.0249603 0.0100155,-0.0241794 0.0120847,-0.0232145 0.014062,-0.0220729 0.0159323,-0.0207634 0.0176813,-0.0192958 0.0192958,-0.0176813 0.0207634,-0.0159323 0.0220729,-0.014062 0.0232145,-0.0120847 0.0241794,-0.0100155 0.0249603,-0.00786996 0.0255513,-0.00566458 0.0259477,-0.00341608 0.0261467,-0.00114159 1.55,-4.44089e-16 z "/>
<path fill="rgb(0,91,140)" stroke="rgb(0,91,140)" d="M 6.55177,10.0009 l -1.55,0 -8.88178e-16,-0.2 1.55,0 0.0435779,-0.00190265 0.0432462,-0.00569347 0.0425854,-0.00944096 0.0416005,-0.0131166 0.0402991,-0.0166924 0.0386909,-0.0201412 0.0367882,-0.0234367 0.0346056,-0.0265538 0.0321596,-0.0294688 0.0294688,-0.0321596 0.0265538,-0.0346056 0.0234367,-0.0367882 0.0201412,-0.0386909 0.0166924,-0.0402991 0.0131166,-0.0416005 0.00944096,-0.0425854 0.00569347,-0.0432462 0.00190265,-0.0435779 0,-6.1 -0.00190265,-0.0435779 -0.00569347,-0.0432462 -0.00944096,-0.0425854 -0.0131166,-0.0416005 -0.0166924,-0.0402991 -0.0201412,-0.0386909 -0.0234367,-0.0367882 -0.0265538,-0.0346056 -0.0294688,-0.0321596 -0.0321596,-0.0294688 -0.0346056,-0.0265538 -0.0367882,-0.0234367 -0.0386909,-0.0201412 -0.0402991,-0.0166924 -0.0416005,-0.0131166 -0.0425854,-0.00944096 -0.0432462,-0.00569347 -0.0435779,-0.00190265 -1.55,4.44089e-16 0,-0.2 1.55,-4.44089e-16 0.061009,0.00266371 0.0605447,0.00797086 0.0596196,0.0132173 0.0582408,0.0183632 0.0564187,0.0233694 0.0541672,0.0281977 0.0515035,0.0328114 0.0484478,0.0371753 0.0450234,0.0412564 0.0412564,0.0450234 0.0371753,0.0484478 0.0328114,0.0515035 0.0281977,0.0541672 0.0233694,0.0564187 0.0183632,0.0582408 0.0132173,0.0596196 0.00797086,0.0605447 0.00266371,0.061009 8.88178e-16,3.04734 8.88178e-16,3.05266 -0.00266371,0.061009 -0.00797086,0.0605447 -0.0132173,0.0596196 -0.0183632,0.0582408 -0.0233694,0.0564187 -0.0281977,0.0541672 -0.0328114,0.0515035 -0.0371753,0.0484478 -0.0412564,0.0450234 -0.0450234,0.0412564 -0.0484478,0.0371753 -0.0515035,0.0328114 -0.0541672,0.0281977 -0.0564187,0.0233694 -0.0582408,0.0183632 -0.0596196,0.0132173 -0.0605447,0.00797086 -0.061009,0.00266371 z "/>
<path fill="rgb(0,91,140)" stroke="rgb(0,91,140)" d="M 2.75177,6.24823 l 0,-3.04734 0.00266371,-0.061009 0.00797086,-0.0605447 0.0132173,-0.0596196 0.0183632,-0.0582408 0.0233694,-0.0564187 0.0281977,-0.0541672 0.0328114,-0.0515035 0.0371753,-0.0484478 0.0412564,-0.0450234 0.0450234,-0.0412564 0.0484478,-0.0371753 0.0515035,-0.0328114 0.0541672,-0.0281977 0.0564187,-0.0233694 0.0582408,-0.0183632 0.0596196,-0.0132173 0.0605447,-0.00797086 0.061009,-0.00266371 1.55,-8.88178e-16 0,0.2 -1.55,4.44089e-16 -0.0435779,0.00190265 -0.0432462,0.00569347 -0.0425854,0.00944096 -0.0416005,0.0131166 -0.0402991,0.0166924 -0.0386909,0.0201412 -0.0367882,0.0234367 -0.0346056,0.0265538 -0.0321596,0.0294688 -0.0294688,0.0321596 -0.0265538,0.0346056 -0.0234367,0.0367882 -0.0201412,0.0386909 -0.0166924,0.0402991 -0.0131166,0.0416005 -0.00944096,0.0425854 -0.00569347,0.0432462 -0.00190265,0.0435779 0,6.1 0.00190265,0.0435779 0.00569347,0.0432462 0.00944096,0.0425854 0.0131166,0.0416005 0.0166924,0.0402991 0.0201412,0.0386909 0.0234367,0.0367882 0.0265538,0.0346056 0.0294688,0.0321596 0.0321596,0.0294688 0.0346056,0.0265538 0.0367882,0.0234367 0.0386909,0.0201412 0.0402991,0.0166924 0.0416005,0.0131166 0.0425854,0.00944096 0.0432462,0.00569347 0.0435779,0.00190265 1.55,0 8.88178e-16,0.2 -1.55,0 -0.061009,-0.00266371 -0.0605447,-0.00797086 -0.0596196,-0.0132173 -0.0582408,-0.0183632 -0.0564187,-0.0233694 -0.0541672,-0.0281977 -0.0515035,-0.0328114 -0.0484478,-0.0371753 -0.0450234,-0.0412564 -0.0412564,-0.0450234 -0.0371753,-0.0484478 -0.0328114,-0.0515035 -0.0281977,-0.0541672 -0.0233694,-0.0564187 -0.0183632,-0.0582408 -0.0132173,-0.0596196 -0.00797086,-0.0605447 -0.00266371,-0.061009 0,-3.05266 z "/>
<path fill="rgb(241,240,234)" stroke="rgb(241,240,234)" d="M 5.00177,2.90089 l 0,-0.2 1.55,-4.44089e-16 0.0435779,0.00190265 0.0432462,0.00569347 0.0425854,0.00944096 0.0416005,0.0131166 0.0402991,0.0166924 0.0386909,0.0201412 0.0367882,0.0234367 0.0346056,0.0265538 0.0321596,0.0294688 0.0294688,0.0321596 0.0265538,0.0346056 0.0234367,0.0367882 0.0201412,0.0386909 0.0166924,0.0402991 0.0131166,0.0416005 0.00944096,0.0425854 0.00569347,0.0432462 0.00190265,0.0435779 0,6.1 -0.00190265,0.0435779 -0.00569347,0.0432462 -0.00944096,0.0425854 -0.0131166,0.0416005 -0.0166924,0.0402991 -0.0201412,0.0386909 -0.0234367,0.0367882 -0.0265538,0.0346056 -0.0294688,0.0321596 -0.0321596,0.0294688 -0.0346056,0.0265538 -0.0367882,0.0234367 -0.0386909,0.0201412 -0.0402991,0.0166924 -0.0416005,0.0131166 -0.0425854,0.00944096 -0.0432462,0.00569347 -0.0435779,0.00190265 -1.55,0 0,-0.2 1.55,0 0.0261467,-0.00114159 0.0259477,-0.00341608 0.0255513,-0.00566458 0.0249603,-0.00786996 0.0241794,-0.0100155 0.0232145,-0.0120847 0.0220729,-0.014062 0.0207634,-0.0159323 0.0192958,-0.0176813 0.0176813,-0.0192958 0.0159323,-0.0207634 0.014062,-0.0220729 0.0120847,-0.0232145 0.0100155,-0.0241794 0.00786996,-0.0249603 0.00566458,-0.0255513 0.00341608,-0.0259477 0.00114159,-0.0261467 -1.77636e-15,-6.1 -0.00114159,-0.0261467 -0.00341608,-0.0259477 -0.00566458,-0.0255513 -0.00786996,-0.0249603 -0.0100155,-0.0241794 -0.0120847,-0.0232145 -0.014062,-0.0220729 -0.0159323,-0.0207634 -0.0176813,-0.0192958 -0.0192958,-0.0176813 -0.0207634,-0.0159323 -0.0220729,-0.014062 -0.0232145,-0.0120847 -0.0241794,-0.0100155 -0.0249603,-0.00786996 -0.0255513,-0.00566458 -0.0259477,-0.00341608 -0.0261467,-0.00114159 -1.55,4.44089e-16 z "/>
<path fill="rgb(241,240,234)" stroke="rgb(241,240,234)" d="M 5.00177,2.90089 l -1.55,4.44089e-16 -0.0261467,0.00114159 -0.0259477,0.00341608 -0.0255513,0.00566458 -0.0249603,0.00786996 -0.0241794,0.0100155 -0.0232145,0.0120847 -0.0220729,0.014062 -0.0207634,0.0159323 -0.0192958,0.0176813 -0.0176813,0.0192958 -0.0159323,0.0207634 -0.014062,0.0220729 -0.0120847,0.0232145 -0.0100155,0.0241794 -0.00786996,0.0249603 -0.00566458,0.0255513 -0.00341608,0.0259477 -0.00114159,0.0261467 4.44089e-16,6.1 0.00114159,0.0261467 0.00341608,0.0259477 0.00566458,0.0255513 0.00786996,0.0249603 0.0100155,0.0241794 0.0120847,0.0232145 0.014062,0.0220729 0.0159323,0.0207634 0.0176813,0.0192958 0.0192958,0.0176813 0.0207634,0.0159323 0.0220729,0.014062 0.0232145,0.0120847 0.0241794,0.0100155 0.0249603,0.00786996 0.0255513,0.00566458 0.0259477,0.00341608 0.0261467,0.00114159 1.55,0 0,0.2 -1.55,0 -0.0435779,-0.00190265 -0.0432462,-0.00569347 -0.0425854,-0.00944096 -0.0416005,-0.0131166 -0.0402991,-0.0166924 -0.0386909,-0.0201412 -0.0367882,-0.0234367 -0.0346056,-0.0265538 -0.0321596,-0.0294688 -0.0294688,-0.0321596 -0.0265538,-0.0346056 -0.0234367,-0.0367882 -0.0201412,-0.0386909 -0.0166924,-0.0402991 -0.0131166,-0.0416005 -0.00944096,-0.0425854 -0.00569347,-0.0432462 -0.00190265,-0.0435779 0,-6.1 0.00190265,-0.0435779 0.00569347,-0.0432462 0.00944096,-0.0425854 0.0131166,-0.0416005 0.0166924,-0.0402991 0.0201412,-0.0386909 0.0234367,-0.0367882 0.0265538,-0.0346056 0.0294688,-0.0321596 0.0321596,-0.0294688 0.0346056,-0.0265538 0.0367882,-0.0234367 0.0386909,-0.0201412 0.0402991,-0.0166924 0.0416005,-0.0131166 0.0425854,-0.00944096 0.0432462,-0.00569347 0.0435779,-0.00190265 1.55,-4.44089e-16 0,0.2 z "/>
<path fill="rgb(241,240,234)" stroke="rgb(241,240,234)" d="M 10.0035,6.25089 l -0.229744,0 0,-5.49085 -0.00199778,-0.0457568 -0.00597815,-0.0454085 -0.00991301,-0.0447147 -0.0137724,-0.0436806 -0.017527,-0.042314 -0.0211483,-0.0406254 -0.0246085,-0.0386276 -0.0278815,-0.0363359 -0.0309423,-0.0337676 -0.0337676,-0.0309423 -0.0363359,-0.0278815 -0.0386276,-0.0246085 -0.0406254,-0.0211483 -0.042314,-0.017527 -0.0436806,-0.0137724 -0.0447147,-0.00991301 -0.0454085,-0.00597815 -0.0457568,-0.00199778 -8.47818,-7.99361e-15 -0.0457568,0.00199778 -0.0454085,0.00597815 -0.0447147,0.00991301 -0.0436806,0.0137724 -0.042314,0.017527 -0.0406254,0.0211483 -0.0386276,0.0246085 -0.0363359,0.0278815 -0.0337676,0.0309423 -0.0309423,0.0337676 -0.0278815,0.0363359 -0.0246085,0.0386276 -0.0211483,0.0406254 -0.017527,0.042314 -0.0137724,0.0436806 -0.00991301,0.0447147 -0.00597815,0.0454085 -0.00199778,0.0457568 0,5.49085 -0.245616,1.77636e-15 0,-6.25089 10.0035,1.77636e-15 -1.77636e-15,6.25089 z "/>
<path fill="rgb(241,240,234)" stroke="rgb(241,240,234)" d="M 10.0035,6.25089 l -1.77636e-15,6.25089 -10.0035,0 0,-6.25089 0.245616,-1.77636e-15 0,5.48553 0.00199778,0.0457568 0.00597815,0.0454085 0.00991301,0.0447147 0.0137724,0.0436806 0.017527,0.042314 0.0211483,0.0406254 0.0246085,0.0386276 0.0278815,0.0363359 0.0309423,0.0337676 0.0337676,0.0309423 0.0363359,0.0278815 0.0386276,0.0246085 0.0406254,0.0211483 0.042314,0.017527 0.0436806,0.0137724 0.0447147,0.00991301 0.0454085,0.00597815 0.0457568,0.00199778 8.47818,1.06581e-14 0.0457568,-0.00199778 0.0454085,-0.00597815 0.0447147,-0.00991301 0.0436806,-0.0137724 0.042314,-0.017527 0.0406254,-0.0211483 0.0386276,-0.0246085 0.0363359,-0.0278815 0.0337676,-0.0309423 0.0309423,-0.0337676 0.0278815,-0.0363359 0.0246085,-0.0386276 0.0211483,-0.0406254 0.017527,-0.042314 0.0137724,-0.0436806 0.00991301,-0.0447147 0.00597815,-0.0454085 0.00199778,-0.0457568 1.77636e-15,-5.48553 0.229744,0 z "/>
<path fill="rgb(241,240,234)" stroke="rgb(241,240,234)" d="M 6.51573,4.05254 l -0.0519316,-0.00629474 -0.0409158,-0.0204579 -0.0220316,-0.0251789 0.116453,-0.034621 0.00157368,0 0.0487842,-0.00786842 0.0456368,-0.0220316 0.0299,0.0802579 -0.0330474,0.0157368 -0.0472105,0.0157368 -0.0472105,0.00472105 z "/>
<path fill="rgb(241,240,234)" stroke="rgb(241,240,234)" d="M 6.40085,4.00061 l -0.0125895,-0.0487842 0.00629474,-0.0393421 0.0299,-0.0424895 0.00157368,-0.00157368 0.0361947,-0.0220316 0.0566526,-0.0204579 0.0361947,-0.0110158 0.0204579,-0.0283263 -0.00629474,-0.0141632 -0.0519316,-0.0125895 0.124321,-0.0299 0.0125895,0.0519316 0,0.00314737 -0.0094421,0.0424895 -0.0236053,0.034621 -0.0409158,0.0267526 -0.0550789,0.0173105 -0.0456368,0.0157368 -0.0110158,0.0204579 0.00157368,0.0094421 0.0472105,0.0141632 -0.116453,0.034621 z "/>
<path fill="rgb(241,240,234)" stroke="rgb(241,240,234)" d="M 6.40872,3.78658 l -0.0283263,-0.0786842 0.0393421,-0.0188842 0.0472105,-0.0110158 0.0535052,-0.00314737 0.00629474,0 0.0519316,0.00786842 0.0409158,0.0204579 0.0220316,0.0267526 -0.124321,0.0299 -0.0125895,0.00157368 -0.0503579,0.0110158 -0.0456368,0.0141632 z "/>
<path fill="rgb(241,240,234)" stroke="rgb(241,240,234)" d="M 6.29069,4.05096 l -0.0220316,-0.00314737 -0.0424895,-0.0283263 0.0582263,-0.0550789 0.00157368,0 0.0409158,-0.0204579 0.0267526,0.0865526 -0.0157368,0.0094421 -0.0472105,0.0110158 z "/>
<path fill="rgb(241,240,234)" stroke="rgb(241,240,234)" d="M 6.22617,4.04624 l -0.0802579,0 0,-0.365095 0.0802579,0 0,0.214021 0,0.00314737 0.0188842,0.0472105 0.0393421,0.0188842 -0.0582263,0.0550789 0,0.0267526 z "/>
<path fill="rgb(241,240,234)" stroke="rgb(241,240,234)" d="M 5.9492,4.05096 l -0.0188842,-0.00157368 -0.0440631,-0.0173105 -0.0361947,-0.0361947 -0.0173105,-0.0267526 -0.0173105,-0.0503579 -0.00629474,-0.0550789 0.00314737,-0.0393421 0.0125895,-0.0519316 0.0251789,-0.0440631 0.0157368,-0.0188842 0.0393421,-0.0283263 0.0472105,-0.0094421 0.0220316,0.00314737 0.0440631,0.0173105 0.0377684,0.0361947 0.00157368,0.00314737 -0.105437,0.0236053 -0.0377684,0.0188842 -0.00157368,0 -0.0220316,0.0487842 -0.00314737,0.0125895 0.199858,0 0,0.0267526 0,0.0173105 -0.195137,0.0267526 0.0220316,0.0472105 0.0377684,0.0173105 0.0959947,0.0236053 -0.0125895,0.0173105 -0.0393421,0.0299 -0.0472105,0.0094421 z "/>
<path fill="rgb(241,240,234)" stroke="rgb(241,240,234)" d="M 6.04834,3.99431 l -0.0959947,-0.0236053 0.034621,-0.0141632 0.00157368,-0.00157368 0.0204579,-0.0487842 -0.116453,0 0.195137,-0.0267526 -0.0110158,0.0550789 -0.00472105,0.0141632 -0.0236053,0.0456368 z "/>
<path fill="rgb(241,240,234)" stroke="rgb(241,240,234)" d="M 6.00428,3.78501 l -0.0094421,-0.0110158 -0.0424895,-0.0188842 0.105437,-0.0236053 -0.0535052,0.0535052 z "/>
<path fill="rgb(241,240,234)" stroke="rgb(241,240,234)" d="M 5.74305,4.18945 l -0.0818316,-0.0330474 0,-0.133763 -0.157368,-0.0267526 -0.0157368,-0.0283263 0.122747,-0.00314737 0.0141632,-0.00157368 0.0361947,-0.0361947 0,-0.125895 -0.0110158,-0.0188842 -0.0393421,-0.0220316 -0.10701,-0.0283263 0.0094421,-0.0125895 0.147926,-0.0110158 0,-0.0267526 0.0818316,0 0,0.5083 z "/>
<path fill="rgb(241,240,234)" stroke="rgb(241,240,234)" d="M 5.5967,4.05411 l -0.0125895,0 -0.0424895,-0.0173105 -0.0377684,-0.0409158 0.157368,0.0267526 -0.0299,0.0251789 -0.034621,0.00629474 z "/>
<path fill="rgb(241,240,234)" stroke="rgb(241,240,234)" d="M 5.48811,3.96756 l -0.0173105,-0.0503579 -0.00472105,-0.0550789 0.00157368,-0.0330474 0.0125895,-0.0519316 0.0236053,-0.0456368 0.10701,0.0283263 -0.0094421,0.00157368 -0.0377684,0.0283263 -0.0094421,0.0188842 -0.0094421,0.0550789 0.00157368,0.0236053 0.0173105,0.0487842 0.00472105,0.00786842 0.0424895,0.0204579 -0.122747,0.00314737 z "/>
<path fill="rgb(241,240,234)" stroke="rgb(241,240,234)" d="M 5.51329,3.71892 l 0.0393421,-0.0314737 0.0440631,-0.0110158 0.034621,0.00629474 0.0299,0.0251789 -0.147926,0.0110158 z "/>
<path fill="rgb(241,240,234)" stroke="rgb(241,240,234)" d="M 5.20327,4.04309 l -0.0818316,0 0,-0.250216 0.00629474,-0.0409158 0.133763,0.00786842 -0.0424895,0.0188842 -0.0157368,0.0472105 0,0.217168 z "/>
<path fill="rgb(241,240,234)" stroke="rgb(241,240,234)" d="M 5.39841,4.04309 l -0.0771105,0 0,-0.217168 -0.0173105,-0.0456368 -0.0424895,-0.0204579 -0.133763,-0.00786842 0.193563,-0.0424895 0,-0.0283263 0.0771105,0 0,0.361947 z "/>
<path fill="rgb(241,240,234)" stroke="rgb(241,240,234)" d="M 5.12774,3.75196 l 0.0283263,-0.0440631 0.0361947,-0.0236053 0.0503579,-0.00786842 0.0361947,0.00472105 0.0424895,0.0283263 -0.193563,0.0424895 z "/>
<path fill="rgb(241,240,234)" stroke="rgb(241,240,234)" d="M 4.91529,4.05411 l -0.0204579,-0.00157368 -0.0440631,-0.0173105 -0.0377684,-0.0361947 -0.0173105,-0.0299 0.1196,-0.00472105 0.00629474,0 0.0393421,-0.0283263 0.00786842,-0.0173105 0.00786842,-0.0550789 -0.00157368,-0.0251789 -0.0141632,-0.0487842 -0.00472105,-0.00629474 -0.0409158,-0.0236053 0.121174,-0.00157368 0.0173105,0.0487842 0.00472105,0.0566526 -0.00157368,0.0393421 -0.0141632,0.0503579 -0.0251789,0.0456368 -0.0157368,0.0173105 -0.0409158,0.0283263 -0.0456368,0.0094421 z "/>
<path fill="rgb(241,240,234)" stroke="rgb(241,240,234)" d="M 4.79569,3.96913 l -0.0173105,-0.0503579 -0.00629474,-0.0550789 0.00314737,-0.0377684 0.0125895,-0.0519316 0.0251789,-0.0456368 0.0157368,-0.0188842 0.0409158,-0.0283263 0.0456368,-0.0094421 0.0204579,0.00157368 0.0440631,0.0188842 0.0377684,0.0361947 0.0188842,0.0299 -0.121174,0.00157368 -0.00629474,0.00157368 -0.0393421,0.0283263 -0.00786842,0.0173105 -0.0094421,0.0566526 0.00157368,0.0236053 0.0157368,0.0487842 0.00472105,0.00629474 0.0409158,0.0220316 -0.1196,0.00472105 z "/>
<path fill="rgb(241,240,234)" stroke="rgb(241,240,234)" d="M 4.514,4.18945 l -0.0802579,-0.0330474 0,-0.475252 0.0802579,0 0,0.214021 0,0.0125895 0.0173105,0.0424895 0.0424895,0.0141632 0.129042,0.0110158 -0.188842,0.0440631 0,0.169958 z "/>
<path fill="rgb(241,240,234)" stroke="rgb(241,240,234)" d="M 4.58954,4.05411 l -0.0393421,-0.00629474 -0.0361947,-0.0283263 0.188842,-0.0440631 -0.0267526,0.0440631 -0.0361947,0.0251789 -0.0503579,0.0094421 z "/>
<path fill="rgb(241,240,234)" stroke="rgb(241,240,234)" d="M 4.70284,3.97543 l -0.129042,-0.0110158 0.0424895,-0.0188842 0.0173105,-0.0472105 0,-0.217168 0.0755368,0 0,0.250216 -0.00629474,0.0440631 z "/>
<path fill="rgb(241,240,234)" stroke="rgb(241,240,234)" d="M 6.65421,4.77643 l -0.157368,0 0,0.0897 0.157368,0 0,-0.0897 z "/>
<path fill="rgb(241,240,234)" stroke="rgb(241,240,234)" d="M 6.27967,4.94954 l -0.0409158,-0.0141632 -0.0377684,-0.0409158 0.160516,0.0188842 -0.0314737,0.0267526 -0.0361947,0.0094421 -0.0141632,0 z "/>
<path fill="rgb(241,240,234)" stroke="rgb(241,240,234)" d="M 6.44176,4.94009 l -0.0802579,0 0,-0.0267526 -0.160516,-0.0188842 -0.0173105,-0.0330474 0.122747,-0.00157368 0.0173105,-0.00472105 0.0377684,-0.034621 0,-0.129042 -0.0157368,-0.0204579 -0.0393421,-0.0188842 -0.105437,-0.0299 0.00786842,-0.0125895 0.152647,-0.00472105 0,-0.0393421 -0.00629474,-0.0314737 -0.0299,-0.0377684 -0.0503579,-0.0361947 0.0314737,-0.0771105 0.00786842,0.00314737 0.0299,0.0125895 0.0393421,0.0267526 0.00472105,0.00472105 0.0330474,0.0440631 0.0141632,0.0440631 0.00629474,0.0598 0,0.361947 z "/>
<path fill="rgb(241,240,234)" stroke="rgb(241,240,234)" d="M 6.18368,4.86141 l -0.0157368,-0.0503579 -0.00629474,-0.0550789 0.00314737,-0.0361947 0.0125895,-0.0519316 0.0236053,-0.0456368 0.105437,0.0299 -0.00786842,0 -0.0393421,0.0299 -0.00786842,0.0173105 -0.00786842,0.0566526 0.00157368,0.0251789 0.0141632,0.0487842 0.00629474,0.00786842 0.0409158,0.0220316 -0.122747,0.00157368 z "/>
<path fill="rgb(241,240,234)" stroke="rgb(241,240,234)" d="M 6.20886,4.60962 l 0.0393421,-0.0330474 0.0440631,-0.0110158 0.0299,0.00786842 0.0393421,0.0314737 -0.152647,0.00472105 z "/>
<path fill="rgb(241,240,234)" stroke="rgb(241,240,234)" d="M 5.9791,4.94639 l -0.0393421,-0.00629474 -0.0377684,-0.0299 0.190416,-0.0393421 -0.0267526,0.0424895 -0.0361947,0.0236053 -0.0503579,0.0094421 z "/>
<path fill="rgb(241,240,234)" stroke="rgb(241,240,234)" d="M 5.90199,4.94009 l -0.0802579,0 0,-0.365095 0.0802579,0 0,0.218742 0.0173105,0.0472105 0.0409158,0.0204579 0.132189,0.0094421 -0.190416,0.0393421 0,0.0299 z "/>
<path fill="rgb(241,240,234)" stroke="rgb(241,240,234)" d="M 6.09241,4.87085 l -0.132189,-0.0094421 0.0440631,-0.0173105 0.0157368,-0.0503579 0,-0.218742 0.0786842,0 0,0.254937 -0.00629474,0.0409158 z "/>
<path fill="rgb(241,240,234)" stroke="rgb(241,240,234)" d="M 5.69899,5.0833 l -0.0283263,-0.0125895 -0.0125895,-0.0314737 0.0125895,-0.0314737 0.0283263,-0.0141632 0.0299,0.0141632 0.0110158,0.0314737 -0.0110158,0.0314737 -0.0299,0.0125895 z "/>
<path fill="rgb(241,240,234)" stroke="rgb(241,240,234)" d="M 5.7399,4.94009 l -0.0802579,0 0,-0.365095 0.0802579,0 0,0.365095 z "/>
<path fill="rgb(241,240,234)" stroke="rgb(241,240,234)" d="M 5.46136,4.94639 l -0.0393421,-0.00629474 -0.0377684,-0.0299 0.190416,-0.0393421 -0.0267526,0.0424895 -0.0361947,0.0236053 -0.0503579,0.0094421 z "/>
<path fill="rgb(241,240,234)" stroke="rgb(241,240,234)" d="M 5.38425,4.94009 l -0.0802579,0 0,-0.365095 0.0802579,0 0,0.218742 0.0173105,0.0472105 0.0409158,0.0204579 0.132189,0.0094421 -0.190416,0.0393421 0,0.0299 z "/>
<path fill="rgb(241,240,234)" stroke="rgb(241,240,234)" d="M 5.57466,4.87085 l -0.132189,-0.0094421 0.0440631,-0.0173105 0.0157368,-0.0503579 0,-0.218742 0.0786842,0 0,0.254937 -0.00629474,0.0409158 z "/>
<path fill="rgb(241,240,234)" stroke="rgb(241,240,234)" d="M 5.10728,4.94639 l -0.0393421,-0.00629474 -0.0377684,-0.0299 0.190416,-0.0393421 -0.0267526,0.0424895 -0.0361947,0.0236053 -0.0503579,0.0094421 z "/>
<path fill="rgb(241,240,234)" stroke="rgb(241,240,234)" d="M 5.03017,4.94009 l -0.0818316,0 0,-0.365095 0.0818316,0 0,0.218742 0.0157368,0.0472105 0.0424895,0.0204579 0.132189,0.0094421 -0.190416,0.0393421 0,0.0299 z "/>
<path fill="rgb(241,240,234)" stroke="rgb(241,240,234)" d="M 5.22059,4.87085 l -0.132189,-0.0094421 0.0424895,-0.0173105 0.0173105,-0.0503579 0,-0.218742 0.0786842,0 0,0.254937 -0.00629474,0.0409158 z "/>
<path fill="rgb(241,240,234)" stroke="rgb(241,240,234)" d="M 4.67294,4.93852 l -0.0818316,0 0,-0.251789 0.00629474,-0.0409158 0.133763,0.00786842 -0.0424895,0.0188842 -0.0157368,0.0487842 0,0.217168 z "/>
<path fill="rgb(241,240,234)" stroke="rgb(241,240,234)" d="M 4.86808,4.93852 l -0.0771105,0 0,-0.218742 -0.0173105,-0.0456368 -0.0424895,-0.0204579 -0.133763,-0.00786842 0.193563,-0.0424895 0,-0.0283263 0.0771105,0 0,0.363521 z "/>
<path fill="rgb(241,240,234)" stroke="rgb(241,240,234)" d="M 4.59741,4.64582 l 0.0283263,-0.0424895 0.0361947,-0.0251789 0.0503579,-0.00786842 0.0361947,0.00472105 0.0424895,0.0283263 -0.193563,0.0424895 z "/>
<path fill="rgb(241,240,234)" stroke="rgb(241,240,234)" d="M 4.35349,4.94954 l -0.0424895,-0.0141632 -0.0361947,-0.0409158 0.160516,0.0188842 -0.0330474,0.0267526 -0.034621,0.0094421 -0.0141632,0 z "/>
<path fill="rgb(241,240,234)" stroke="rgb(241,240,234)" d="M 4.51557,4.94009 l -0.0802579,0 0,-0.0267526 -0.160516,-0.0188842 -0.0173105,-0.0330474 0.121174,-0.00157368 0.0188842,-0.00472105 0.0377684,-0.034621 0,-0.129042 -0.0157368,-0.0204579 -0.0409158,-0.0188842 -0.105437,-0.0299 0.0094421,-0.0125895 0.152647,-0.00472105 0,-0.0393421 -0.00629474,-0.0314737 -0.0299,-0.0377684 -0.0503579,-0.0361947 0.0314737,-0.0771105 0.00786842,0.00314737 0.0299,0.0125895 0.0393421,0.0267526 0.00472105,0.00472105 0.0314737,0.0440631 0.0157368,0.0440631 0.00629474,0.0598 0,0.361947 z "/>
<path fill="rgb(241,240,234)" stroke="rgb(241,240,234)" d="M 4.25749,4.86141 l -0.0157368,-0.0503579 -0.00629474,-0.0550789 0.00314737,-0.0361947 0.0110158,-0.0519316 0.0236053,-0.0456368 0.105437,0.0299 -0.00629474,0 -0.0393421,0.0299 -0.00786842,0.0173105 -0.0094421,0.0566526 0.00157368,0.0251789 0.0157368,0.0487842 0.00472105,0.00786842 0.0409158,0.0220316 -0.121174,0.00157368 z "/>
<path fill="rgb(241,240,234)" stroke="rgb(241,240,234)" d="M 4.28267,4.60962 l 0.0377684,-0.0330474 0.0456368,-0.0110158 0.0299,0.00786842 0.0393421,0.0314737 -0.152647,0.00472105 z "/>
<path fill="rgb(241,240,234)" stroke="rgb(241,240,234)" d="M 4.13632,4.94482 l -0.0220316,-0.00314737 -0.0409158,-0.0283263 0.0582263,-0.0535052 0.0424895,-0.0220316 0.0251789,0.0865526 -0.0141632,0.0094421 -0.0487842,0.0110158 z "/>
<path fill="rgb(241,240,234)" stroke="rgb(241,240,234)" d="M 4.07337,4.94009 l -0.0802579,0 0,-0.365095 0.0802579,0 0,0.214021 0,0.00314737 0.0173105,0.0487842 0.0409158,0.0188842 -0.0582263,0.0535052 0,0.0267526 z "/>
<path fill="rgb(241,240,234)" stroke="rgb(241,240,234)" d="M 3.7964,4.94482 l -0.0188842,-0.00157368 -0.0440631,-0.0157368 -0.0377684,-0.0361947 -0.0173105,-0.0283263 -0.0173105,-0.0503579 -0.00472105,-0.0550789 0.00157368,-0.0393421 0.0141632,-0.0519316 0.0251789,-0.0440631 0.0157368,-0.0188842 0.0393421,-0.0283263 0.0472105,-0.0094421 0.0220316,0.00314737 0.0440631,0.0173105 0.0361947,0.0361947 0.00314737,0.00314737 -0.105437,0.0236053 -0.0393421,0.0188842 0,0.00157368 -0.0220316,0.0472105 -0.00314737,0.0125895 0.199858,0 0,0.0267526 0,0.0173105 -0.195137,0.0267526 0.0204579,0.0472105 0.0393421,0.0173105 0.0959947,0.0251789 -0.0141632,0.0173105 -0.0393421,0.0283263 -0.0456368,0.0094421 z "/>
<path fill="rgb(241,240,234)" stroke="rgb(241,240,234)" d="M 3.89554,4.88974 l -0.0959947,-0.0251789 0.0330474,-0.0125895 0.00157368,-0.00157368 0.0220316,-0.0503579 -0.116453,0 0.195137,-0.0267526 -0.0110158,0.0550789 -0.00472105,0.0141632 -0.0236053,0.0472105 z "/>
<path fill="rgb(241,240,234)" stroke="rgb(241,240,234)" d="M 3.85148,4.67886 l -0.0094421,-0.0110158 -0.0424895,-0.0188842 0.105437,-0.0236053 -0.0535052,0.0535052 z "/>
<path fill="rgb(241,240,234)" stroke="rgb(241,240,234)" d="M 3.38095,4.94009 l -0.0802579,0 0.116453,-0.365095 0.0424895,0.118026 -0.0786842,0.247068 z "/>
<path fill="rgb(241,240,234)" stroke="rgb(241,240,234)" d="M 3.62015,4.94009 l -0.0818316,0 -0.0786842,-0.247068 -0.0424895,-0.118026 0.0865526,0 0.116453,0.365095 z "/>
<path fill="rgb(241,240,234)" stroke="rgb(241,240,234)" d="M 5.31186,9.2693 l -1.46825,0 0,-3.49987 0.572821,0 0,1.37225 0.895426,0 0.0519316,0.00157368 0.147926,0.0110158 0.135337,0.0267526 0.121174,0.0424895 0.10701,0.0566526 0.0849789,0.0598 0.103863,0.094421 0.0897,0.108584 0.0755368,0.124321 0.0472105,0.100716 -1.86009,0.00157368 0,0.871821 0.917458,0 0.911163,0.0865526 -0.0692421,0.113305 -0.0865526,0.103863 -0.100716,0.0928473 -0.118026,0.0834052 -0.034621,0.0204579 -0.118026,0.0566526 -0.127468,0.0393421 -0.135337,0.0236053 -0.143205,0.00786842 z "/>
<path fill="rgb(241,240,234)" stroke="rgb(241,240,234)" d="M 6.24505,8.72795 l -0.911163,-0.0865526 0.105437,-0.00786842 0.127468,-0.0377684 0.102289,-0.0708158 0.0472105,-0.0550789 0.0613737,-0.124321 0.0204579,-0.147926 -0.00472105,-0.0676684 -0.0409158,-0.13691 -0.0834052,-0.10701 -0.0723895,-0.0519316 -0.121174,-0.0487842 -0.141632,-0.0157368 -0.917458,0 1.86009,-0.00157368 0.0472105,0.140058 0.0283263,0.143205 0.0094421,0.146353 -0.00472105,0.129042 -0.0220316,0.143205 -0.0361947,0.133763 -0.0535052,0.124321 z "/>
<path fill="rgb(42,41,42)" stroke="rgb(42,41,42)" d="M 6.92646,11.4646 l -0.730189,0 0,-0.999289 0.745926,0 0,0.1794 -0.563379,0 0,0.272247 0.297426,0 0,0.182547 -0.297426,0 0,0.187268 0.547642,0 0,0.177826 z "/>
<path fill="rgb(42,41,42)" stroke="rgb(42,41,42)" d="M 5.93661,11.4646 l -0.171532,0 0,-0.659373 0.0188842,-0.339916 0.152647,0 0,0.999289 z "/>
<path fill="rgb(42,41,42)" stroke="rgb(42,41,42)" d="M 5.30556,11.4646 l 0,-0.311589 0.4784,-0.6877 -0.0188842,0.339916 -0.459516,0.659373 z "/>
<path fill="rgb(42,41,42)" stroke="rgb(42,41,42)" d="M 5.30556,11.4646 l -0.174679,0 0,-0.999289 0.174679,0 0,0.6877 0,0.311589 z "/>
<path fill="rgb(42,41,42)" stroke="rgb(42,41,42)" d="M 4.48567,11.4819 l -0.0110158,0 -0.0897,-0.0110158 -0.0786842,-0.0251789 -0.0708158,-0.0424895 -0.0598,-0.0582263 -0.0299,-0.0409158 0.339916,0 0.0377684,-0.00314737 0.0771105,-0.0283263 0.0598,-0.0582263 0.034621,-0.0660947 0.0204579,-0.0834052 0.00629474,-0.0975684 -0.00314737,-0.0708158 -0.0157368,-0.0865526 -0.0283263,-0.0723895 -0.0377684,-0.0519316 -0.0660947,-0.0440631 -0.0849789,-0.0141632 -0.321031,-0.0141632 0.0236053,-0.0330474 0.0613737,-0.0582263 0.0692421,-0.0409158 0.0786842,-0.0251789 0.0881263,-0.00786842 0.00786842,0 0.0865526,0.0094421 0.0786842,0.0283263 0.0692421,0.0440631 0.0598,0.0629474 0.0283263,0.0409158 0.0361947,0.0708158 0.0267526,0.0802579 0.0157368,0.0881263 0.00472105,0.0975684 -0.00157368,0.0566526 -0.0125895,0.0912737 -0.0220316,0.0834052 -0.0330474,0.0739631 -0.0440631,0.0660947 -0.00157368,0.00157368 -0.0613737,0.0598 -0.0692421,0.0440631 -0.0802579,0.0251789 -0.0881263,0.0094421 z "/>
<path fill="rgb(42,41,42)" stroke="rgb(42,41,42)" d="M 4.14576,11.3041 l -0.0361947,-0.0692421 -0.0251789,-0.0802579 -0.0157368,-0.0881263 -0.00472105,-0.0991421 0,-0.0299 0.0094421,-0.0928473 0.0188842,-0.0834052 0.0299,-0.0786842 0.0424895,-0.0692421 0.321031,0.0141632 -0.0377684,0.00314737 -0.0771105,0.0283263 -0.0613737,0.0582263 0,0.00157368 -0.0361947,0.0676684 -0.0204579,0.0818316 -0.00786842,0.0991421 0.00786842,0.0975684 0.0220316,0.0818316 0.034621,0.0676684 0.0236053,0.0283263 0.0676684,0.0456368 0.0849789,0.0157368 -0.339916,0 z "/>
<path fill="rgb(42,41,42)" stroke="rgb(42,41,42)" d="M 3.89554,11.4646 l -0.752221,0 0,-0.176253 0.535052,0 -0.5681,-0.620031 0,-0.203005 0.785268,0 0,0.1794 -0.563379,0 0.563379,0.616884 0,0.203005 z "/>
<path fill="rgb(42,41,42)" stroke="rgb(42,41,42)" d="M 0.508116,6.25089 l 0,5.48553 0.000998892,0.0228784 0.00298907,0.0227043 0.00495651,0.0223574 0.00688622,0.0218403 0.00876352,0.021157 0.0105741,0.0203127 0.0123043,0.0193138 0.0139407,0.0181679 0.0154711,0.0168838 0.0168838,0.0154711 0.0181679,0.0139407 0.0193138,0.0123043 0.0203127,0.0105741 0.021157,0.00876352 0.0218403,0.00688622 0.0223574,0.00495651 0.0227043,0.00298907 0.0228784,0.000998892 8.47818,8.88178e-15 0.0228784,-0.000998892 0.0227043,-0.00298907 0.0223574,-0.00495651 0.0218403,-0.00688622 0.021157,-0.00876352 0.0203127,-0.0105741 0.0193138,-0.0123043 0.0181679,-0.0139407 0.0168838,-0.0154711 0.0154711,-0.0168838 0.0139407,-0.0181679 0.0123043,-0.0193138 0.0105741,-0.0203127 0.00876352,-0.021157 0.00688622,-0.0218403 0.00495651,-0.0223574 0.00298907,-0.0227043 0.000998892,-0.0228784 1.77636e-15,-5.48553 0.2625,-8.88178e-16 -1.77636e-15,5.48553 -0.00199778,0.0457568 -0.00597815,0.0454085 -0.00991301,0.0447147 -0.0137724,0.0436806 -0.017527,0.042314 -0.0211483,0.0406254 -0.0246085,0.0386276 -0.0278815,0.0363359 -0.0309423,0.0337676 -0.0337676,0.0309423 -0.0363359,0.0278815 -0.0386276,0.0246085 -0.0406254,0.0211483 -0.042314,0.017527 -0.0436806,0.0137724 -0.0447147,0.00991301 -0.0454085,0.00597815 -0.0457568,0.00199778 -8.47818,-1.06581e-14 -0.0457568,-0.00199778 -0.0454085,-0.00597815 -0.0447147,-0.00991301 -0.0436806,-0.0137724 -0.042314,-0.017527 -0.0406254,-0.0211483 -0.0386276,-0.0246085 -0.0363359,-0.0278815 -0.0337676,-0.0309423 -0.0309423,-0.0337676 -0.0278815,-0.0363359 -0.0246085,-0.0386276 -0.0211483,-0.0406254 -0.017527,-0.042314 -0.0137724,-0.0436806 -0.00991301,-0.0447147 -0.00597815,-0.0454085 -0.00199778,-0.0457568 0,-5.48553 0.2625,8.88178e-16 z "/>
<path fill="rgb(42,41,42)" stroke="rgb(42,41,42)" d="M 0.508116,6.25089 l -0.2625,-8.88178e-16 0,-5.49085 0.00199778,-0.0457568 0.00597815,-0.0454085 0.00991301,-0.0447147 0.0137724,-0.0436806 0.017527,-0.042314 0.0211483,-0.0406254 0.0246085,-0.0386276 0.0278815,-0.0363359 0.0309423,-0.0337676 0.0337676,-0.0309423 0.0363359,-0.0278815 0.0386276,-0.0246085 0.0406254,-0.0211483 0.042314,-0.017527 0.0436806,-0.0137724 0.0447147,-0.00991301 0.0454085,-0.00597815 0.0457568,-0.00199778 8.47818,7.99361e-15 0.0457568,0.00199778 0.0454085,0.00597815 0.0447147,0.00991301 0.0436806,0.0137724 0.042314,0.017527 0.0406254,0.0211483 0.0386276,0.0246085 0.0363359,0.0278815 0.0337676,0.0309423 0.0309423,0.0337676 0.0278815,0.0363359 0.0246085,0.0386276 0.0211483,0.0406254 0.017527,0.042314 0.0137724,0.0436806 0.00991301,0.0447147 0.00597815,0.0454085 0.00199778,0.0457568 0,5.49085 -0.2625,8.88178e-16 -1.77636e-15,-0.00265976 0,-5.48819 -0.000998892,-0.0228784 -0.00298907,-0.0227043 -0.00495651,-0.0223574 -0.00688622,-0.0218403 -0.00876352,-0.021157 -0.0105741,-0.0203127 -0.0123043,-0.0193138 -0.0139407,-0.0181679 -0.0154711,-0.0168838 -0.0168838,-0.0154711 -0.0181679,-0.0139407 -0.0193138,-0.0123043 -0.0203127,-0.0105741 -0.021157,-0.00876352 -0.0218403,-0.00688622 -0.0223574,-0.00495651 -0.0227043,-0.00298907 -0.0228784,-0.000998892 -8.47818,-8.88178e-15 -0.0228784,0.000998892 -0.0227043,0.00298907 -0.0223574,0.00495651 -0.0218403,0.00688622 -0.021157,0.00876352 -0.0203127,0.0105741 -0.0193138,0.0123043 -0.0181679,0.0139407 -0.0168838,0.0154711 -0.0154711,0.0168838 -0.0139407,0.0181679 -0.0123043,0.0193138 -0.0105741,0.0203127 -0.00876352,0.021157 -0.00688622,0.0218403 -0.00495651,0.0223574 -0.00298907,0.0227043 -0.000998892,0.0228784 0,5.48819 0,0.00265976 z "/>
</g></g></svg>
