<?xml version="1.0" encoding="UTF-8" standalone="no"?>
<!DOCTYPE svg PUBLIC "-//W3C//DTD SVG 1.1//EN" "http://www.w3.org/Graphics/SVG/1.1/DTD/svg11-flat.dtd"
[

]>
<svg xmlns="http://www.w3.org/2000/svg"  viewBox="-0.05625 -0.05625 4.6125 7.6125"><g fill="none" stroke="black" stroke-width="0.0125" transform="translate(0,7.5) scale(1, -1)">
<g id="Output" >
<path fill="rgb(0,91,140)" stroke="rgb(0,91,140)" d="M 0.4,5.4 l 1,0 0,1 -1,0 0,-1 z "/>
<path fill="rgb(0,91,140)" stroke="rgb(0,91,140)" d="M 0.4,3.4 l 1,0 0,1 -1,0 0,-1 z "/>
<path fill="rgb(0,91,140)" stroke="rgb(0,91,140)" d="M 0.4,4.4 l 1,0 0,1 -1,0 0,-1 z "/>
<path fill="rgb(0,91,140)" stroke="rgb(0,91,140)" d="M 0.951722,2.4 l -0.00764802,0.103215 0.125108,0.373412 0.00147305,0.00430284 0.00183546,0.00416118 0.00218443,0.00398906 0.00251742,0.00378774 0.00283198,0.00355869 0.0031258,0.00330359 0.00339675,0.0030243 0.00364283,0.00272288 0.00386225,0.00240153 0.00405339,0.0020626 0.00421487,0.00170857 0.00434549,0.00134204 0.0044443,0.000965677 0.00451058,0.000582248 0.00454384,0.000194557 0.159631,0 0.120204,0 0,0.485266 -1,0 0,-1 0.551722,0 z "/>
<path fill="rgb(0,91,140)" stroke="rgb(0,91,140)" d="M 1.28724,2.82669 l -0.107732,0 -0.00250122,-0.000110616 -0.00248169,-0.000330984 -0.00244278,-0.000548768 -0.0023848,-0.000762268 -0.0023082,-0.000969815 -0.00221358,-0.00116979 -0.00210167,-0.00136063 -0.00197335,-0.00154085 -0.00182962,-0.00170903 -0.00167161,-0.00186388 -0.00150055,-0.00200416 -0.00131777,-0.0021288 -0.0011247,-0.00223682 -0.000922849,-0.00232738 -0.000713792,-0.00239976 -0.0701288,-0.236933 0.227183,0 0.102032,0 0.00233545,0.000101987 0.00231767,0.000305184 0.00228224,0.000506058 0.00222944,0.000703079 0.00215967,0.000894747 0.00207345,0.0010796 0.00197144,0.00125624 0.00185443,0.00142331 0.0017233,0.00157955 0.00157905,0.00172376 0.00142277,0.00185484 0.00125567,0.00197181 0.001079,0.00207376 0.000894119,0.00215993 0.000702431,0.00222965 0.000505394,0.00228239 0.00030451,0.00231776 0.000101308,0.00233548 0,0.206714 -9.34137e-05,0.00215704 -0.000279542,0.00214089 -0.000463576,0.00210871 -0.00064414,0.00206074 -0.00081988,0.00199734 -0.000989482,0.00191898 -0.00115167,0.00182626 -0.00130524,0.00171986 -0.00144904,0.00160058 -0.00158199,0.00146931 -0.00170309,0.00132705 -0.00181143,0.00117485 -0.00190622,0.00101385 -0.00198673,0.000845262 -0.00205236,0.000670344 -0.00210263,0.000490406 -0.00213716,0.000306796 -0.00215568,0.000120889 -0.00215806,-6.59232e-05 -0.123865,0 z "/>
<path fill="rgb(0,91,140)" stroke="rgb(0,91,140)" d="M 1.42773,1.14282 l 0.00108548,4.80212e-05 0.00107717,0.000142409 0.00106067,0.000235714 0.0010361,0.000327226 0.00100365,0.000416249 0.000963569,0.000502107 0.00091616,0.000584147 0.000861784,0.000661744 0.000800854,0.000734309 0.000733833,0.00080129 0.000661232,0.000862176 0.000583603,0.000916507 0.000501535,0.000963867 0.000415653,0.0010039 0.00032661,0.00103629 0.000235084,0.00106081 0.000141769,0.00107725 4.73764e-05,0.00108551 0,0.398513 -4.79927e-05,0.00108484 -0.000142324,0.00107653 -0.000235574,0.00106004 -0.000327031,0.00103548 -0.000416002,0.00100305 -0.000501809,0.000962996 -0.0005838,0.000915616 -0.000661351,0.000861272 -0.000733873,0.000800378 -0.000800814,0.000733398 -0.000861664,0.00066084 -0.000915962,0.000583256 -0.000963294,0.000501237 -0.0010033,0.000415406 -0.00103568,0.000326416 -0.00106018,0.000234944 -0.00107662,0.000141685 -0.00108487,4.73483e-05 -0.194836,0 -0.00111379,-7.57625e-05 -0.00110245,-0.000175694 -0.00108217,-0.0002742 -0.0010531,-0.00037048 -0.00101548,-0.000463753 -0.000969623,-0.000553262 -0.000915895,-0.000638281 -0.000854734,-0.00071812 -0.000786636,-0.00079213 -0.000712154,-0.000859712 -0.000631891,-0.000920316 -0.0005465,-0.00097345 -0.000456674,-0.00101868 -0.000363141,-0.00105565 -0.000266661,-0.00108405 -0.141968,-0.353661 0.0348704,-0.0597821 0.313804,0 z "/>
<path fill="rgb(0,91,140)" stroke="rgb(0,91,140)" d="M 0.951722,2.4 l -0.551722,0 0,-1 0.687322,0 0.058972,0.143802 -0.034863,0.112114 -7.38606e-05,0.00301141 0.000185776,0.00300658 0.000444032,0.00297941 0.000698988,0.00293009 0.00094875,0.002859 0.00119146,0.00276667 0.00142532,0.00265377 0.00164858,0.00252115 0.00185959,0.0023698 0.00205679,0.00220083 0.00223869,0.00201551 0.00240396,0.00181521 0.00255137,0.00160142 0.00267981,0.00137573 0.00278834,0.00113981 0.00287615,0.000895427 0.00294258,0.000644386 0.00298715,0.000388557 0.00300951,0.000129841 0.253706,0 0,0.188461 -0.0119857,-0.000523308 -0.017349,0.000757476 -0.017217,0.00226666 -0.0169539,0.0037586 -0.0165618,0.00522193 -0.0160437,0.00664552 -0.0154035,0.00801853 -0.014646,0.00933051 -0.013777,0.0105715 -0.0128032,0.011732 -0.011732,0.0128032 -0.0105715,0.013777 -0.00933051,0.014646 -0.00801853,0.0154035 -0.00664552,0.0160437 -0.00522193,0.0165618 -0.0037586,0.0169539 -0.00226666,0.017217 -0.000757476,0.017349 0.000757476,0.017349 0.00226666,0.017217 0.0037586,0.0169539 0.00522193,0.0165618 0.00664552,0.0160437 0.00801853,0.0154035 0.00933051,0.014646 0.0105715,0.013777 0.011732,0.0128032 0.0128032,0.011732 0.013777,0.0105715 0.014646,0.00933051 0.0154035,0.00801853 0.0160437,0.00664552 0.0165618,0.00522193 0.0169539,0.0037586 0.017217,0.00226666 0.017349,0.000757476 0.0119857,-0.000523308 0,0.055487 -0.0109509,0.000546409 -0.0223198,-0.000837012 -0.0221618,-0.00278072 -0.0218347,-0.00470323 -0.0213413,-0.00658989 -0.0206851,-0.00842631 -0.0198712,-0.0101985 -0.0189059,-0.0118929 -0.0177965,-0.0134967 -0.0165514,-0.0149976 -0.0151801,-0.0163842 -0.0136931,-0.0176458 -0.0121017,-0.018773 -0.010418,-0.019757 -0.00865497,-0.0205905 -0.00682593,-0.0212669 -0.00494486,-0.0217813 -0.00302609,-0.0221296 -0.00108425,-0.0223092 -0.204798,0 0,0.0880376 0.0401948,0.024891 -0.0153271,0.206848 z "/>
<path fill="rgb(0,91,140)" stroke="rgb(0,91,140)" d="M 3.4,6.4 l 0.7,0 0,0.4 -0.00114159,0.0261467 -0.00341608,0.0259477 -0.00566458,0.0255513 -0.00786996,0.0249603 -0.0100155,0.0241794 -0.0120847,0.0232145 -0.014062,0.0220729 -0.0159323,0.0207634 -0.0176813,0.0192958 -0.0192958,0.0176813 -0.0207634,0.0159323 -0.0220729,0.014062 -0.0232145,0.0120847 -0.0241794,0.0100155 -0.0249603,0.00786996 -0.0255513,0.00566458 -0.0259477,0.00341608 -0.0261467,0.00114159 -0.4,0 0,-0.7 z "/>
<path fill="rgb(0,91,140)" stroke="rgb(0,91,140)" d="M 1.08732,1.4 l -0.687322,0 0,-0.7 0.00114159,-0.0261467 0.00341608,-0.0259477 0.00566458,-0.0255513 0.00786996,-0.0249603 0.0100155,-0.0241794 0.0120847,-0.0232145 0.014062,-0.0220729 0.0159323,-0.0207634 0.0176813,-0.0192958 0.0192958,-0.0176813 0.0207634,-0.0159323 0.0220729,-0.014062 0.0232145,-0.0120847 0.0241794,-0.0100155 0.0249603,-0.00786996 0.0255513,-0.00566458 0.0259477,-0.00341608 0.0261467,-0.00114159 0.7,-8.88178e-16 0,0.439715 -0.00559976,-0.0136717 -0.00617605,-0.019882 -0.00441376,-0.0203459 -0.00261765,-0.0206539 -0.000801489,-0.0208037 -0.376057,0 0,0.0747276 0.0373564,0 0,0.323733 -0.0373564,0.0548175 0.0829881,0.202364 z "/>
<path fill="rgb(0,91,140)" stroke="rgb(0,91,140)" d="M 2.4,5.4 l 1,0 0,1 -1,0 0,-1 z "/>
<path fill="rgb(0,91,140)" stroke="rgb(0,91,140)" d="M 2.90457,1.19262 l 4.92919e-05,-0.0010859 0.00014364,-0.00107748 0.000236898,-0.00106089 0.000328356,-0.00103624 0.000417322,-0.00100372 0.000503118,-0.000963574 0.000585094,-0.000916116 0.000662627,-0.000861701 0.000735129,-0.000800743 0.000802048,-0.000733704 0.000862877,-0.000661094 0.000917155,-0.000583464 0.000964467,-0.000501404 0.00100446,-0.000415537 0.00103682,-0.000326514 0.00106131,-0.000235011 0.00107774,-0.000141724 0.00108598,-4.73613e-05 0.323755,0 0.00109924,-0.000147449 0.00110791,-5.0945e-05 0.00110813,4.59484e-05 0.00109989,0.000142491 0.00108325,0.000237946 0.00105835,0.000331585 0.00102537,0.000422693 0.000984567,0.000510575 0.000936246,0.00059456 0.00088078,0.000674008 0.000818591,0.00074831 0.000750154,0.000816902 0.000675992,0.000879258 0.00059667,0.000934903 0.000512794,0.000983413 0.000425004,0.00102442 0.000333971,0.0010576 0.000240388,0.00108272 0.000144971,0.00109956 4.84468e-05,0.00110802 0,0.398461 -0.000289012,0.00128884 -0.000400045,0.00125881 -0.000508045,0.00121923 -0.000612191,0.00117041 -0.000711695,0.00111271 -0.000805803,0.00104658 -0.000893799,0.000972502 -0.000975017,0.000891055 -0.00104884,0.00080285 -0.00111471,0.000708557 -0.00117213,0.00060889 -0.00122066,0.000504606 -0.00125993,0.000396496 -0.00128965,0.000285379 -0.00130959,0.000172098 -0.00131959,5.75112e-05 -0.323755,0 -0.00100608,4.87618e-05 -0.00100648,-3.97118e-05 -0.000999112,-0.000127879 -0.000984036,-0.00021506 -0.000961368,-0.000300581 -0.000931283,-0.000383783 -0.000894013,-0.000464025 -0.000849845,-0.000540686 -0.00079912,-0.000613175 -0.00074223,-0.000680934 -0.000679614,-0.00074344 -0.000611754,-0.000800209 -0.000539174,-0.000850805 -0.000462434,-0.000894836 -0.000382127,-0.000931964 -0.000298871,-0.000961901 -0.00021331,-0.000984417 -0.000126103,-0.000999337 -3.79224e-05,-0.00100655 5.05503e-05,-0.00100599 0,-0.398505 z "/>
<path fill="rgb(0,91,140)" stroke="rgb(0,91,140)" d="M 4.1,4.4 l 0,1 -0.7,0 0,-1 0.7,0 z "/>
<path fill="rgb(0,91,140)" stroke="rgb(0,91,140)" d="M 4.1,3.4 l 0,1 -0.7,0 0,-1 0.7,0 z "/>
<path fill="rgb(0,91,140)" stroke="rgb(0,91,140)" d="M 4.1,2.4 l 0,1 -0.7,0 0,-0.307259 0.239018,0 0,-0.417858 0,-0.274883 0.460982,0 z "/>
<path fill="rgb(0,91,140)" stroke="rgb(0,91,140)" d="M 1.9931,1.18016 l 0.376005,1.39053e-05 0.00109924,-0.000147449 0.00110791,-5.0945e-05 0.00110813,4.59484e-05 0.00109989,0.000142491 0.00108325,0.000237946 0.00105835,0.000331585 0.00102537,0.000422693 0.000984567,0.000510575 0.000936246,0.00059456 0.00088078,0.000674008 0.000818591,0.00074831 0.000750154,0.000816902 0.000675992,0.000879258 0.00059667,0.000934903 0.000512794,0.000983413 0.000425004,0.00102442 0.000333971,0.0010576 0.000240388,0.00108272 0.000144971,0.00109956 4.84468e-05,0.00110802 0,0.398461 -0.000289022,0.00128887 -0.00040006,0.00125884 -0.000508065,0.00121926 -0.000612217,0.00117044 -0.000711726,0.00111273 -0.000805837,0.00104659 -0.000893837,0.000972515 -0.000975059,0.000891061 -0.00104889,0.00080285 -0.00111476,0.000708551 -0.00117218,0.000608878 -0.00122071,0.000504587 -0.00125998,0.00039647 -0.00128969,0.000285346 -0.00130963,0.000172058 -0.00131963,5.74655e-05 -0.376005,-1.39053e-05 -0.00100608,4.87618e-05 -0.00100648,-3.97118e-05 -0.000999112,-0.000127879 -0.000984036,-0.00021506 -0.000961368,-0.000300581 -0.000931283,-0.000383783 -0.000894013,-0.000464025 -0.000849845,-0.000540686 -0.00079912,-0.000613175 -0.00074223,-0.000680934 -0.000679614,-0.00074344 -0.000611754,-0.000800209 -0.000539174,-0.000850805 -0.000462434,-0.000894836 -0.000382127,-0.000931964 -0.000298871,-0.000961901 -0.00021331,-0.000984417 -0.000126103,-0.000999337 -3.79224e-05,-0.00100655 5.05503e-05,-0.00100599 0,-0.398505 4.92942e-05,-0.00108592 0.000143647,-0.00107751 0.000236909,-0.00106091 0.000328371,-0.00103626 0.000417341,-0.00100374 0.000503141,-0.000963591 0.00058512,-0.00091613 0.000662656,-0.000861711 0.00073516,-0.000800749 0.000802081,-0.000733706 0.000862912,-0.000661091 0.00091719,-0.000583457 0.000964503,-0.000501391 0.00100449,-0.000415518 0.00103685,-0.00032649 0.00106134,-0.000234983 0.00107777,-0.000141691 0.00108601,-4.73234e-05 z "/>
<path fill="rgb(0,91,140)" stroke="rgb(0,91,140)" d="M 1.90713,1.18017 l 0.00109924,-0.000147449 0.00110791,-5.0945e-05 0.00110813,4.59484e-05 0.00109989,0.000142491 0.00108325,0.000237946 0.00105835,0.000331585 0.00102537,0.000422693 0.000984567,0.000510575 0.000936246,0.00059456 0.00088078,0.000674008 0.000818591,0.00074831 0.000750154,0.000816902 0.000675992,0.000879258 0.00059667,0.000934903 0.000512794,0.000983413 0.000425004,0.00102442 0.000333971,0.0010576 0.000240388,0.00108272 0.000144971,0.00109956 4.84468e-05,0.00110802 0,0.398461 -0.000289022,0.00128887 -0.00040006,0.00125884 -0.000508065,0.00121926 -0.000612217,0.00117044 -0.000711726,0.00111273 -0.000805837,0.00104659 -0.000893837,0.000972515 -0.000975059,0.000891061 -0.00104889,0.00080285 -0.00111476,0.000708551 -0.00117218,0.000608878 -0.00122071,0.000504587 -0.00125998,0.00039647 -0.00128969,0.000285346 -0.00130963,0.000172058 -0.00131963,5.74655e-05 -0.376005,-1.39053e-05 -0.00100608,4.87618e-05 -0.00100648,-3.97118e-05 -0.000999112,-0.000127879 -0.000984036,-0.00021506 -0.000961368,-0.000300581 -0.000931283,-0.000383783 -0.000894013,-0.000464025 -0.000849845,-0.000540686 -0.00079912,-0.000613175 -0.00074223,-0.000680934 -0.000679614,-0.00074344 -0.000611754,-0.000800209 -0.000539174,-0.000850805 -0.000462434,-0.000894836 -0.000382127,-0.000931964 -0.000298871,-0.000961901 -0.00021331,-0.000984417 -0.000126103,-0.000999337 -3.79224e-05,-0.00100655 5.05503e-05,-0.00100599 0,-0.398505 4.92942e-05,-0.00108592 0.000143647,-0.00107751 0.000236909,-0.00106091 0.000328371,-0.00103626 0.000417341,-0.00100374 0.000503141,-0.000963591 0.00058512,-0.00091613 0.000662656,-0.000861711 0.00073516,-0.000800749 0.000802081,-0.000733706 0.000862912,-0.000661091 0.00091719,-0.000583457 0.000964503,-0.000501391 0.00100449,-0.000415518 0.00103685,-0.00032649 0.00106134,-0.000234983 0.00107777,-0.000141691 0.00108601,-4.73234e-05 0.376005,1.39053e-05 z "/>
<path fill="rgb(0,91,140)" stroke="rgb(0,91,140)" d="M 2.44137,1.19261 l 4.92942e-05,-0.00108592 0.000143647,-0.00107751 0.000236909,-0.00106091 0.000328371,-0.00103626 0.000417341,-0.00100374 0.000503141,-0.000963591 0.00058512,-0.00091613 0.000662656,-0.000861711 0.00073516,-0.000800749 0.000802081,-0.000733706 0.000862912,-0.000661091 0.00091719,-0.000583457 0.000964503,-0.000501391 0.00100449,-0.000415518 0.00103685,-0.00032649 0.00106134,-0.000234983 0.00107777,-0.000141691 0.00108601,-4.73234e-05 0.376005,1.39053e-05 0.00109924,-0.000147449 0.00110791,-5.0945e-05 0.00110813,4.59484e-05 0.00109989,0.000142491 0.00108325,0.000237946 0.00105835,0.000331585 0.00102537,0.000422693 0.000984567,0.000510575 0.000936246,0.00059456 0.00088078,0.000674008 0.000818591,0.00074831 0.000750154,0.000816902 0.000675992,0.000879258 0.00059667,0.000934903 0.000512794,0.000983413 0.000425004,0.00102442 0.000333971,0.0010576 0.000240388,0.00108272 0.000144971,0.00109956 4.84468e-05,0.00110802 0,0.398461 -0.000289022,0.00128887 -0.00040006,0.00125884 -0.000508065,0.00121926 -0.000612217,0.00117044 -0.000711726,0.00111273 -0.000805837,0.00104659 -0.000893837,0.000972515 -0.000975059,0.000891061 -0.00104889,0.00080285 -0.00111476,0.000708551 -0.00117218,0.000608878 -0.00122071,0.000504587 -0.00125998,0.00039647 -0.00128969,0.000285346 -0.00130963,0.000172058 -0.00131963,5.74655e-05 -0.376005,-1.39053e-05 -0.00100608,4.87618e-05 -0.00100648,-3.97118e-05 -0.000999112,-0.000127879 -0.000984036,-0.00021506 -0.000961368,-0.000300581 -0.000931283,-0.000383783 -0.000894013,-0.000464025 -0.000849845,-0.000540686 -0.00079912,-0.000613175 -0.00074223,-0.000680934 -0.000679614,-0.00074344 -0.000611754,-0.000800209 -0.000539174,-0.000850805 -0.000462434,-0.000894836 -0.000382127,-0.000931964 -0.000298871,-0.000961901 -0.00021331,-0.000984417 -0.000126103,-0.000999337 -3.79224e-05,-0.00100655 5.05503e-05,-0.00100599 0,-0.398505 z "/>
<path fill="rgb(0,91,140)" stroke="rgb(0,91,140)" d="M 4.1,5.4 l 0,1 -0.7,0 0,-1 0.7,0 z "/>
<path fill="rgb(0,91,140)" stroke="rgb(0,91,140)" d="M 4.1,1.4 l 0,1 -0.460982,0 0,-0.256615 -0.239018,0 0,-0.450165 0.169524,0 0.00341851,-0.0009111 0.00332734,-0.00120211 0.00321146,-0.00148419 0.00307171,-0.00175524 0.00290915,-0.00201324 0.00272496,-0.00225629 0.00252053,-0.00248258 0.00229738,-0.00269042 0.00205715,-0.00287827 0.00180164,-0.00304473 0.00153274,-0.00318857 0.00125245,-0.00330872 0.000962861,-0.00340429 0.000666115,-0.00347456 0.00036442,-0.00351902 6.00164e-05,-0.00353733 -0.000244833,-0.00352935 -0.000547862,-0.00349516 -0.000846822,-0.00343499 -0.00113949,-0.00334931 -0.00142369,-0.00323873 -0.00169731,-0.0031041 -0.0412091,-0.0682058 0.0251707,-0.163712 0.520236,0 z "/>
<path fill="rgb(0,91,140)" stroke="rgb(0,91,140)" d="M 3.8,0.4 l 0.0261467,0.00114159 0.0259477,0.00341608 0.0255513,0.00566458 0.0249603,0.00786996 0.0241794,0.0100155 0.0232145,0.0120847 0.0220729,0.014062 0.0207634,0.0159323 0.0192958,0.0176813 0.0176813,0.0192958 0.0159323,0.0207634 0.014062,0.0220729 0.0120847,0.0232145 0.0100155,0.0241794 0.00786996,0.0249603 0.00566458,0.0255513 0.00341608,0.0259477 0.00114159,0.0261467 0,0.7 -0.520236,0 0.0295801,-0.192391 0,-0.301367 0.0398942,-0.0249191 0,-0.0622384 -0.249239,-0.0404257 0,-0.378659 0.4,0 z "/>
<path fill="rgb(0,91,140)" stroke="rgb(0,91,140)" d="M 2.4,4.4 l 1,0 0,1 -1,0 0,-1 z "/>
<path fill="rgb(0,91,140)" stroke="rgb(0,91,140)" d="M 2.4,7.1 l 0,-0.7 1,0 0,0.7 -1,0 z "/>
<path fill="rgb(0,91,140)" stroke="rgb(0,91,140)" d="M 2.4,3.4 l 1,0 0,1 -1,0 0,-1 z "/>
<path fill="rgb(0,91,140)" stroke="rgb(0,91,140)" d="M 2.4,3.09274 l 1,0 0,0.307259 -1,0 0,-0.307259 z "/>
<path fill="rgb(0,91,140)" stroke="rgb(0,91,140)" d="M 2.87643,2.08022 l -0.000757476,-0.017349 -0.00226666,-0.017217 -0.0037586,-0.0169539 -0.00522193,-0.0165618 -0.00664552,-0.0160437 -0.00801853,-0.0154035 -0.00933051,-0.014646 -0.0105715,-0.013777 -0.011732,-0.0128032 -0.0128032,-0.011732 -0.013777,-0.0105715 -0.014646,-0.00933051 -0.0154035,-0.00801853 -0.0160437,-0.00664552 -0.0165618,-0.00522193 -0.0169539,-0.0037586 -0.017217,-0.00226666 -0.017349,-0.000757476 -0.017349,0.000757476 -0.017217,0.00226666 -0.0169539,0.0037586 -0.0165618,0.00522193 -0.0160437,0.00664552 -0.0154035,0.00801853 -0.014646,0.00933051 -0.013777,0.0105715 -0.0128032,0.011732 -0.011732,0.0128032 -0.0105715,0.013777 -0.00933051,0.014646 -0.00801853,0.0154035 -0.00664552,0.0160437 -0.00522193,0.0165618 -0.0037586,0.0169539 -0.00226666,0.017217 -0.000757476,0.017349 0.000757476,0.017349 0.00226666,0.017217 0.0037586,0.0169539 0.00522193,0.0165618 0.00664552,0.0160437 0.00801853,0.0154035 0.00933051,0.014646 0.0105715,0.013777 0.011732,0.0128032 0.0128032,0.011732 0.013777,0.0105715 0.014646,0.00933051 0.0154035,0.00801853 0.0160437,0.00664552 0.0165618,0.00522193 0.0169539,0.0037586 0.017217,0.00226666 0.017349,0.000757476 0.017349,-0.000757476 0.017217,-0.00226666 0.0169539,-0.0037586 0.0165618,-0.00522193 0.0160437,-0.00664552 0.0154035,-0.00801853 0.014646,-0.00933051 0.013777,-0.0105715 0.0128032,-0.011732 0.011732,-0.0128032 0.0105715,-0.013777 0.00933051,-0.014646 0.00801853,-0.0154035 0.00664552,-0.0160437 0.00522193,-0.0165618 0.0037586,-0.0169539 0.00226666,-0.017217 0.000757476,-0.017349 z M 3.32297,2.08022 l -0.000757476,-0.017349 -0.00226666,-0.017217 -0.0037586,-0.0169539 -0.00522193,-0.0165618 -0.00664552,-0.0160437 -0.00801853,-0.0154035 -0.00933051,-0.014646 -0.0105715,-0.013777 -0.011732,-0.0128032 -0.0128032,-0.011732 -0.013777,-0.0105715 -0.014646,-0.00933051 -0.0154035,-0.00801853 -0.0160437,-0.00664552 -0.0165618,-0.00522193 -0.0169539,-0.0037586 -0.017217,-0.00226666 -0.017349,-0.000757476 -0.017349,0.000757476 -0.017217,0.00226666 -0.0169539,0.0037586 -0.0165618,0.00522193 -0.0160437,0.00664552 -0.0154035,0.00801853 -0.014646,0.00933051 -0.013777,0.0105715 -0.0128032,0.011732 -0.011732,0.0128032 -0.0105715,0.013777 -0.00933051,0.014646 -0.00801853,0.0154035 -0.00664552,0.0160437 -0.00522193,0.0165618 -0.0037586,0.0169539 -0.00226666,0.017217 -0.000757476,0.017349 0.000757476,0.017349 0.00226666,0.017217 0.0037586,0.0169539 0.00522193,0.0165618 0.00664552,0.0160437 0.00801853,0.0154035 0.00933051,0.014646 0.0105715,0.013777 0.011732,0.0128032 0.0128032,0.011732 0.013777,0.0105715 0.014646,0.00933051 0.0154035,0.00801853 0.0160437,0.00664552 0.0165618,0.00522193 0.0169539,0.0037586 0.017217,0.00226666 0.017349,0.000757476 0.017349,-0.000757476 0.017217,-0.00226666 0.0169539,-0.0037586 0.0165618,-0.00522193 0.0160437,-0.00664552 0.0154035,-0.00801853 0.014646,-0.00933051 0.013777,-0.0105715 0.0128032,-0.011732 0.011732,-0.0128032 0.0105715,-0.013777 0.00933051,-0.014646 0.00801853,-0.0154035 0.00664552,-0.0160437 0.00522193,-0.0165618 0.0037586,-0.0169539 0.00226666,-0.017217 0.000757476,-0.017349 z M 2.4,1.69322 l 1,0 0,0.450165 -0.0289424,0 -0.00653383,0.0214356 -0.00839092,0.0207791 -0.0101832,0.019962 -0.0118968,0.0189906 -0.0135184,0.0178726 -0.0150357,0.0166165 -0.0164367,0.0152319 -0.0177108,0.0137297 -0.018848,0.0121215 -0.0198396,0.0104195 -0.020678,0.00863711 -0.0213565,0.00678795 -0.0218701,0.00488634 -0.0222147,0.00294699 -0.0223877,0.000984866 -0.449546,0 -0.0222909,-0.00105375 -0.0221123,-0.00300703 -0.0217629,-0.00493707 -0.0212453,-0.00682898 -0.0205636,-0.00866812 -0.019723,-0.0104403 -0.0187301,-0.0121318 -0.0175924,-0.0137296 -0.0163189,-0.0152214 -0.0149193,-0.0165955 -0.0134044,-0.0178415 -0.011786,-0.0189496 -0.0100765,-0.0199113 -0.00828922,-0.0207192 -0.00643787,-0.021367 -0.0293578,0 0,-0.450165 z "/>
<path fill="rgb(0,91,140)" stroke="rgb(0,91,140)" d="M 3.13497,0.745615 l -0.000706058,-0.0161714 -0.0021128,-0.0160483 -0.00350347,-0.0158031 -0.00486747,-0.0154376 -0.00619442,-0.0149547 -0.00747423,-0.0143579 -0.00869716,-0.0136518 -0.0098539,-0.0128419 -0.0109356,-0.0119342 -0.0119342,-0.0109356 -0.0128419,-0.0098539 -0.0136518,-0.00869716 -0.0143579,-0.00747423 -0.0149547,-0.00619442 -0.0154376,-0.00486747 -0.0158031,-0.00350347 -0.0160483,-0.0021128 -0.0161714,-0.000706058 -0.0161714,0.000706058 -0.0160483,0.0021128 -0.0158031,0.00350347 -0.0154376,0.00486747 -0.0149547,0.00619442 -0.0143579,0.00747423 -0.0136518,0.00869716 -0.0128419,0.0098539 -0.0119342,0.0109356 -0.0109356,0.0119342 -0.0098539,0.0128419 -0.00869716,0.0136518 -0.00747423,0.0143579 -0.00619442,0.0149547 -0.00486747,0.0154376 -0.00350347,0.0158031 -0.0021128,0.0160483 -0.000706058,0.0161714 0.000706058,0.0161714 0.0021128,0.0160483 0.00350347,0.0158031 0.00486747,0.0154376 0.00619442,0.0149547 0.00747423,0.0143579 0.00869716,0.0136518 0.0098539,0.0128419 0.0109356,0.0119342 0.0119342,0.0109356 0.0128419,0.0098539 0.0136518,0.00869716 0.0143579,0.00747423 0.0149547,0.00619442 0.0154376,0.00486747 0.0158031,0.00350347 0.0160483,0.0021128 0.0161714,0.000706058 0.0161714,-0.000706058 0.0160483,-0.0021128 0.0158031,-0.00350347 0.0154376,-0.00486747 0.0149547,-0.00619442 0.0143579,-0.00747423 0.0136518,-0.00869716 0.0128419,-0.0098539 0.0119342,-0.0109356 0.0109356,-0.0119342 0.0098539,-0.0128419 0.00869716,-0.0136518 0.00747423,-0.0143579 0.00619442,-0.0149547 0.00486747,-0.0154376 0.00350347,-0.0158031 0.0021128,-0.0160483 0.000706058,-0.0161714 z M 3.4,0.4 l 0,0.378659 -0.211483,-0.0343018 -0.000909205,0.0208386 -0.00272199,0.0206801 -0.00451405,0.0203641 -0.00627176,0.0198932 -0.00798173,0.0192709 -0.00963096,0.0185019 -0.0112069,0.017592 -0.0126975,0.0165483 -0.0140915,0.0153787 -0.0153782,0.014092 -0.0165479,0.012698 -0.0175917,0.0112074 -0.0185016,0.00963153 -0.0192706,0.00798233 -0.019893,0.00627237 -0.020364,0.00451468 -0.02068,0.00272263 -0.0208386,0.00090985 -0.0208386,-0.00090985 -0.02068,-0.00272263 -0.020364,-0.00451468 -0.019893,-0.00627237 -0.0192706,-0.00798233 -0.0185016,-0.00963153 -0.0175917,-0.0112074 -0.0165479,-0.012698 -0.0153782,-0.014092 -0.0140915,-0.0153787 -0.0126975,-0.0165483 -0.0112069,-0.017592 -0.00963096,-0.0185019 -0.00798173,-0.0192709 -0.00627176,-0.0198932 -0.00451405,-0.0203641 -0.00272199,-0.0206801 -0.000909205,-0.0208386 -0.310335,0 0,-0.344357 1,0 z "/>
<path fill="rgb(0,91,140)" stroke="rgb(0,91,140)" d="M 1.4,6.4 l 1,0 0,0.7 -0.15,0 -0.85,0 0,-0.7 z "/>
<path fill="rgb(0,91,140)" stroke="rgb(0,91,140)" d="M 3.31301,1.59112 l 0,-0.398535 5.0447e-05,-0.00108373 0.000144532,-0.00107524 0.00023752,-0.00105859 0.000328708,-0.00103391 0.000417404,-0.0010014 0.000502935,-0.000961292 0.000584653,-0.000913897 0.000661938,-0.000859572 0.000734204,-0.000798731 0.000800904,-0.000731833 0.000861531,-0.000659387 0.000915626,-0.000581941 0.000962779,-0.000500083 0.00100263,-0.000414433 0.00103488,-0.000325642 0.00105929,-0.000234381 0.00107566,-0.000141343 0.00108388,-4.72338e-05 0.196748,0 0.000969142,-9.64022e-05 0.000973872,-1.0152e-05 0.000970941,7.6178e-05 0.000960372,0.000161909 0.000942249,0.000246366 0.000916714,0.000328885 0.000883967,0.000408817 0.000844267,0.000485533 0.000797926,0.00055843 0.000745308,0.000626934 0.000686827,0.000690506 0.000622943,0.000748647 0.000554159,0.000800898 0.000481015,0.000846849 0.000404088,0.000886139 0.000323983,0.000918458 0.000241328,0.000943552 0.000156775,0.000961224 7.09894e-05,0.000971334 -1.53551e-05,0.000973804 -0.000101579,0.000968613 -0.0597525,0.398461 -4.30901e-05,0.00108769 -0.000137973,0.00107976 -0.000231801,0.00106357 -0.000323856,0.00103925 -0.000413432,0.00100697 -0.000499845,0.000966993 -0.000582435,0.000919615 -0.000660568,0.0008652 -0.000733647,0.000804167 -0.000801113,0.00073698 -0.00086245,0.000664155 -0.000917188,0.000586249 -0.000964909,0.000503857 -0.00100525,0.000417611 -0.0010379,0.000328169 -0.0010626,0.000236216 -0.00107918,0.000142457 -0.0010875,4.76069e-05 -0.136981,0 -0.000963267,6.95891e-05 -0.000965685,-1.33102e-05 -0.000960983,-9.61113e-05 -0.000949194,-0.000178204 -0.000930405,-0.000258982 -0.000904756,-0.00033785 -0.000872434,-0.000414228 -0.000833679,-0.00048755 -0.000788776,-0.000557277 -0.000738057,-0.000622895 -0.000681895,-0.000683919 -0.000620704,-0.0007399 -0.000554936,-0.000790425 -0.000485076,-0.000835121 -0.000411639,-0.000873658 -0.000335167,-0.000905753 -0.000256222,-0.000931169 -0.000175389,-0.000949718 -9.32619e-05,-0.000961264 -1.04472e-05,-0.000965721 7.24446e-05,-0.000963056 z "/>
<path fill="rgb(0,91,140)" stroke="rgb(0,91,140)" d="M 1.4,5.4 l 1,0 0,1 -1,0 0,-1 z "/>
<path fill="rgb(0,91,140)" stroke="rgb(0,91,140)" d="M 1.4,4.4 l 1,0 0,1 -1,0 0,-1 z "/>
<path fill="rgb(0,91,140)" stroke="rgb(0,91,140)" d="M 1.4,3.4 l 1,0 0,1 -1,0 0,-1 z "/>
<path fill="rgb(0,91,140)" stroke="rgb(0,91,140)" d="M 1.57188,2.4 l 0.0555063,0 0,0.692741 0.772614,0 0,0.307259 -1,0 0,-0.485266 0.100246,0 0.00263356,0.000171256 0.00263846,-5.89678e-05 0.00262328,-0.000288743 0.00258812,-0.00051632 0.00253326,-0.000739966 0.00245911,-0.000957978 0.00236624,-0.0011687 0.00225536,-0.00137052 0.0021273,-0.0015619 0.00198305,-0.0017414 0.0018237,-0.00190764 0.00165047,-0.00205935 0.00146467,-0.00219539 0.00126772,-0.00231471 0.00106111,-0.0024164 0.000846431,-0.0024997 0.000625305,-0.00256397 0.000399419,-0.00260872 0.0382867,-0.352181 0,-0.135754 z "/>
<path fill="rgb(0,91,140)" stroke="rgb(0,91,140)" d="M 1.4,1.69322 l 1,0 0,0.450165 -0.764959,0 -0.00656231,0.0213497 -0.00839957,0.020696 -0.0101728,0.0198844 -0.0118685,0.0189213 -0.0134737,0.0178139 -0.0149762,0.0165707 -0.0163645,0.0152012 -0.0176281,0.0137158 -0.0187573,0.0121259 -0.0197436,0.0104435 -0.0205793,0.00868157 -0.0212581,0.0068534 -0.0217749,0.004973 -0.0221257,0.00305468 -0.0113569,0.000566667 0,-0.055487 0.00536333,-0.000234168 0.017217,-0.00226666 0.0169539,-0.0037586 0.0165618,-0.00522193 0.0160437,-0.00664552 0.0154035,-0.00801853 0.014646,-0.00933051 0.013777,-0.0105715 0.0128032,-0.011732 0.011732,-0.0128032 0.0105715,-0.013777 0.00933051,-0.014646 0.00801853,-0.0154035 0.00664552,-0.0160437 0.00522193,-0.0165618 0.0037586,-0.0169539 0.00226666,-0.017217 0.000757476,-0.017349 -0.000757476,-0.017349 -0.00226666,-0.017217 -0.0037586,-0.0169539 -0.00522193,-0.0165618 -0.00664552,-0.0160437 -0.00801853,-0.0154035 -0.00933051,-0.014646 -0.0105715,-0.013777 -0.011732,-0.0128032 -0.0128032,-0.011732 -0.013777,-0.0105715 -0.014646,-0.00933051 -0.0154035,-0.00801853 -0.0160437,-0.00664552 -0.0165618,-0.00522193 -0.0169539,-0.0037586 -0.017217,-0.00226666 -0.00536333,-0.000234168 0,-0.188461 z M 1.62739,2.4 l -0.0555063,0 0,-0.0116143 0.0555063,0 0,0.0116143 z "/>
<path fill="rgb(0,91,140)" stroke="rgb(0,91,140)" d="M 1.80284,0.745616 l -0.000706058,-0.0161714 -0.0021128,-0.0160483 -0.00350347,-0.0158031 -0.00486747,-0.0154376 -0.00619442,-0.0149547 -0.00747423,-0.0143579 -0.00869716,-0.0136518 -0.0098539,-0.0128419 -0.0109356,-0.0119342 -0.0119342,-0.0109356 -0.0128419,-0.0098539 -0.0136518,-0.00869716 -0.0143579,-0.00747423 -0.0149547,-0.00619442 -0.0154376,-0.00486747 -0.0158031,-0.00350347 -0.0160483,-0.0021128 -0.0161714,-0.000706058 -0.0161714,0.000706058 -0.0160483,0.0021128 -0.0158031,0.00350347 -0.0154376,0.00486747 -0.0149547,0.00619442 -0.0143579,0.00747423 -0.0136518,0.00869716 -0.0128419,0.0098539 -0.0119342,0.0109356 -0.0109356,0.0119342 -0.0098539,0.0128419 -0.00869716,0.0136518 -0.00747423,0.0143579 -0.00619442,0.0149547 -0.00486747,0.0154376 -0.00350347,0.0158031 -0.0021128,0.0160483 -0.000706058,0.0161714 0.000706058,0.0161714 0.0021128,0.0160483 0.00350347,0.0158031 0.00486747,0.0154376 0.00619442,0.0149547 0.00747423,0.0143579 0.00869716,0.0136518 0.0098539,0.0128419 0.0109356,0.0119342 0.0119342,0.0109356 0.0128419,0.0098539 0.0136518,0.00869716 0.0143579,0.00747423 0.0149547,0.00619442 0.0154376,0.00486747 0.0158031,0.00350347 0.0160483,0.0021128 0.0161714,0.000706058 0.0161714,-0.000706058 0.0160483,-0.0021128 0.0158031,-0.00350347 0.0154376,-0.00486747 0.0149547,-0.00619442 0.0143579,-0.00747423 0.0136518,-0.00869716 0.0128419,-0.0098539 0.0119342,-0.0109356 0.0109356,-0.0119342 0.0098539,-0.0128419 0.00869716,-0.0136518 0.00747423,-0.0143579 0.00619442,-0.0149547 0.00486747,-0.0154376 0.00350347,-0.0158031 0.0021128,-0.0160483 0.000706058,-0.0161714 z M 2.4,0.4 l 0,0.344357 -0.54392,0 -0.000801489,0.0208037 -0.00261765,0.0206539 -0.00441376,0.0203459 -0.00617605,0.019882 -0.00789102,0.0192657 -0.00954554,0.0185019 -0.0111269,0.0175963 -0.012623,0.0165559 -0.0140225,0.0153886 -0.0153144,0.0141034 -0.0164891,0.0127102 -0.0175374,0.0112195 -0.0184513,0.00964296 -0.0192239,0.00799249 -0.0198492,0.00628079 -0.0203224,0.00452097 -0.0206399,0.00272651 -0.0207992,0.000911165 -0.0207992,-0.000911165 -0.0206399,-0.00272651 -0.0203224,-0.00452097 -0.0198492,-0.00628079 -0.0192239,-0.00799249 -0.0184513,-0.00964296 -0.0175374,-0.0112195 -0.0164891,-0.0127102 -0.0153144,-0.0141034 -0.0140225,-0.0153886 -0.012623,-0.0165559 -0.0111269,-0.0175963 -0.00954554,-0.0185019 -0.00229127,-0.00559408 0,-0.439715 0.85,4.44089e-16 0.15,-4.44089e-16 z "/>
<path fill="rgb(0,91,140)" stroke="rgb(0,91,140)" d="M 0.4,6.4 l 1,0 0,0.7 -0.7,0 -0.0261467,-0.00114159 -0.0259477,-0.00341608 -0.0255513,-0.00566458 -0.0249603,-0.00786996 -0.0241794,-0.0100155 -0.0232145,-0.0120847 -0.0220729,-0.014062 -0.0207634,-0.0159323 -0.0192958,-0.0176813 -0.0176813,-0.0192958 -0.0159323,-0.0207634 -0.014062,-0.0220729 -0.0120847,-0.0232145 -0.0100155,-0.0241794 -0.00786996,-0.0249603 -0.00566458,-0.0255513 -0.00341608,-0.0259477 -0.00114159,-0.0261467 -4.44089e-16,-0.4 z "/>
<path fill="rgb(241,240,234)" stroke="rgb(241,240,234)" d="M 3.31301,1.59112 l -7.24446e-05,0.000963056 1.04472e-05,0.000965721 9.32619e-05,0.000961264 0.000175389,0.000949718 0.000256222,0.000931169 0.000335167,0.000905753 0.000411639,0.000873658 0.000485076,0.000835121 0.000554936,0.000790425 0.000620704,0.0007399 0.000681895,0.000683919 0.000738057,0.000622895 0.000788776,0.000557277 0.000833679,0.00048755 0.000872434,0.000414228 0.000904756,0.00033785 0.000930405,0.000258982 0.000949194,0.000178204 0.000960983,9.61113e-05 0.000965685,1.33102e-05 0.000963267,-6.95891e-05 0.136981,0 0.0010875,-4.76069e-05 0.00107918,-0.000142457 0.0010626,-0.000236216 0.0010379,-0.000328169 0.00100525,-0.000417611 0.000964909,-0.000503857 0.000917188,-0.000586249 0.00086245,-0.000664155 0.000801113,-0.00073698 0.000733647,-0.000804167 0.000660568,-0.0008652 0.000582435,-0.000919615 0.000499845,-0.000966993 0.000413432,-0.00100697 0.000323856,-0.00103925 0.000231801,-0.00106357 0.000137973,-0.00107976 4.30901e-05,-0.00108769 0.0597525,-0.398461 0.000101579,-0.000968613 1.53551e-05,-0.000973804 -7.09894e-05,-0.000971334 -0.000156775,-0.000961224 -0.000241328,-0.000943552 -0.000323983,-0.000918458 -0.000404088,-0.000886139 -0.000481015,-0.000846849 -0.000554159,-0.000800898 -0.000622943,-0.000748647 -0.000686827,-0.000690506 -0.000745308,-0.000626934 -0.000797926,-0.00055843 -0.000844267,-0.000485533 -0.000883967,-0.000408817 -0.000916714,-0.000328885 -0.000942249,-0.000246366 -0.000960372,-0.000161909 -0.000970941,-7.6178e-05 -0.000973872,1.0152e-05 -0.000969142,9.64022e-05 -0.196748,0 -0.00108388,4.72338e-05 -0.00107566,0.000141343 -0.00105929,0.000234381 -0.00103488,0.000325642 -0.00100263,0.000414433 -0.000962779,0.000500083 -0.000915626,0.000581941 -0.000861531,0.000659387 -0.000800904,0.000731833 -0.000734204,0.000798731 -0.000661938,0.000859572 -0.000584653,0.000913897 -0.000502935,0.000961292 -0.000417404,0.0010014 -0.000328708,0.00103391 -0.00023752,0.00105859 -0.000144532,0.00107524 -5.0447e-05,0.00108373 0,0.398535 z M 3.60934,1.20761 l -0.0547509,0.356103 0.0412091,0.0682058 0.00169731,0.0031041 0.00142369,0.00323873 0.00113949,0.00334931 0.000846822,0.00343499 0.000547862,0.00349516 0.000244833,0.00352935 -6.00164e-05,0.00353733 -0.00036442,0.00351902 -0.000666115,0.00347456 -0.000962861,0.00340429 -0.00125245,0.00330872 -0.00153274,0.00318857 -0.00180164,0.00304473 -0.00205715,0.00287827 -0.00229738,0.00269042 -0.00252053,0.00248258 -0.00272496,0.00225629 -0.00290915,0.00201324 -0.00307171,0.00175524 -0.00321146,0.00148419 -0.00332734,0.00120211 -0.00341851,0.0009111 -0.56519,0 0,-0.0895991 0.236463,0 0.00131959,-5.75112e-05 0.00130959,-0.000172098 0.00128965,-0.000285379 0.00125993,-0.000396496 0.00122066,-0.000504606 0.00117213,-0.00060889 0.00111471,-0.000708557 0.00104884,-0.00080285 0.000975017,-0.000891055 0.000893799,-0.000972502 0.000805803,-0.00104658 0.000711695,-0.00111271 0.000612191,-0.00117041 0.000508045,-0.00121923 0.000400045,-0.00125881 0.000289012,-0.00128884 0,-0.398461 -4.84468e-05,-0.00110802 -0.000144971,-0.00109956 -0.000240388,-0.00108272 -0.000333971,-0.0010576 -0.000425004,-0.00102442 -0.000512794,-0.000983413 -0.00059667,-0.000934903 -0.000675992,-0.000879258 -0.000750154,-0.000816902 -0.000818591,-0.00074831 -0.00088078,-0.000674008 -0.000936246,-0.00059456 -0.000984567,-0.000510575 -0.00102537,-0.000422693 -0.00105835,-0.000331585 -0.00108325,-0.000237946 -0.00109989,-0.000142491 -0.00110813,-4.59484e-05 -0.00110791,5.0945e-05 -0.00109924,0.000147449 -0.236463,0 0,-0.203312 0.00697464,-0.00154627 0.019893,-0.00627237 0.0192706,-0.00798233 0.0185016,-0.00963153 0.0175917,-0.0112074 0.0165479,-0.012698 0.0153782,-0.014092 0.0140915,-0.0153787 0.0126975,-0.0165483 0.0112069,-0.017592 0.00963096,-0.0185019 0.00798173,-0.0192709 0.00627176,-0.0198932 0.00451405,-0.0203641 0.00272199,-0.0206801 0.000909205,-0.0208386 0.460721,0.0747276 0,0.0622384 -0.0398942,0.0249191 0,0.301367 z "/>
<path fill="rgb(241,240,234)" stroke="rgb(241,240,234)" d="M 2.44137,1.19261 l 0,0.398505 -5.05503e-05,0.00100599 3.79224e-05,0.00100655 0.000126103,0.000999337 0.00021331,0.000984417 0.000298871,0.000961901 0.000382127,0.000931964 0.000462434,0.000894836 0.000539174,0.000850805 0.000611754,0.000800209 0.000679614,0.00074344 0.00074223,0.000680934 0.00079912,0.000613175 0.000849845,0.000540686 0.000894013,0.000464025 0.000931283,0.000383783 0.000961368,0.000300581 0.000984036,0.00021506 0.000999112,0.000127879 0.00100648,3.97118e-05 0.00100608,-4.87618e-05 0.376005,1.39053e-05 0.00131963,-5.74655e-05 0.00130963,-0.000172058 0.00128969,-0.000285346 0.00125998,-0.00039647 0.00122071,-0.000504587 0.00117218,-0.000608878 0.00111476,-0.000708551 0.00104889,-0.00080285 0.000975059,-0.000891061 0.000893837,-0.000972515 0.000805837,-0.00104659 0.000711726,-0.00111273 0.000612217,-0.00117044 0.000508065,-0.00121926 0.00040006,-0.00125884 0.000289022,-0.00128887 0,-0.398461 -4.84468e-05,-0.00110802 -0.000144971,-0.00109956 -0.000240388,-0.00108272 -0.000333971,-0.0010576 -0.000425004,-0.00102442 -0.000512794,-0.000983413 -0.00059667,-0.000934903 -0.000675992,-0.000879258 -0.000750154,-0.000816902 -0.000818591,-0.00074831 -0.00088078,-0.000674008 -0.000936246,-0.00059456 -0.000984567,-0.000510575 -0.00102537,-0.000422693 -0.00105835,-0.000331585 -0.00108325,-0.000237946 -0.00109989,-0.000142491 -0.00110813,-4.59484e-05 -0.00110791,5.0945e-05 -0.00109924,0.000147449 -0.376005,-1.39053e-05 -0.00108601,4.73234e-05 -0.00107777,0.000141691 -0.00106134,0.000234983 -0.00103685,0.00032649 -0.00100449,0.000415518 -0.000964503,0.000501391 -0.00091719,0.000583457 -0.000862912,0.000661091 -0.000802081,0.000733706 -0.00073516,0.000800749 -0.000662656,0.000861711 -0.00058512,0.00091613 -0.000503141,0.000963591 -0.000417341,0.00100374 -0.000328371,0.00103626 -0.000236909,0.00106091 -0.000143647,0.00107751 -4.92942e-05,0.00108592 z M 3.00433,1.60362 l 0,0.0895991 -1,0 0,-0.0896056 0.364768,1.34898e-05 0.00131963,-5.74655e-05 0.00130963,-0.000172058 0.00128969,-0.000285346 0.00125998,-0.00039647 0.00122071,-0.000504587 0.00117218,-0.000608878 0.00111476,-0.000708551 0.00104889,-0.00080285 0.000975059,-0.000891061 0.000893837,-0.000972515 0.000805837,-0.00104659 0.000711726,-0.00111273 0.000612217,-0.00117044 0.000508065,-0.00121926 0.00040006,-0.00125884 0.000289022,-0.00128887 0,-0.398461 -4.84468e-05,-0.00110802 -0.000144971,-0.00109956 -0.000240388,-0.00108272 -0.000333971,-0.0010576 -0.000425004,-0.00102442 -0.000512794,-0.000983413 -0.00059667,-0.000934903 -0.000675992,-0.000879258 -0.000750154,-0.000816902 -0.000818591,-0.00074831 -0.00088078,-0.000674008 -0.000936246,-0.00059456 -0.000984567,-0.000510575 -0.00102537,-0.000422693 -0.00105835,-0.000331585 -0.00108325,-0.000237946 -0.00109989,-0.000142491 -0.00110813,-4.59484e-05 -0.00110791,5.0945e-05 -0.00109924,0.000147449 -0.364769,-1.34898e-05 0,-0.435803 0.706001,0 0.000909205,0.0208386 0.00272199,0.0206801 0.00451405,0.0203641 0.00627176,0.0198932 0.00798173,0.0192709 0.00963096,0.0185019 0.0112069,0.017592 0.0126975,0.0165483 0.0140915,0.0153787 0.0153782,0.014092 0.0165479,0.012698 0.0175917,0.0112074 0.0185016,0.00963153 0.0192706,0.00798233 0.019893,0.00627237 0.020364,0.00451468 0.02068,0.00272263 0.0208386,0.00090985 0.0208386,-0.00090985 0.02068,-0.00272263 0.0133893,-0.00296841 0,0.203312 -0.0872923,0 -0.00108598,4.73613e-05 -0.00107774,0.000141724 -0.00106131,0.000235011 -0.00103682,0.000326514 -0.00100446,0.000415537 -0.000964467,0.000501404 -0.000917155,0.000583464 -0.000862877,0.000661094 -0.000802048,0.000733704 -0.000735129,0.000800743 -0.000662627,0.000861701 -0.000585094,0.000916116 -0.000503118,0.000963574 -0.000417322,0.00100372 -0.000328356,0.00103624 -0.000236898,0.00106089 -0.00014364,0.00107748 -4.92919e-05,0.0010859 0,0.398505 -5.05503e-05,0.00100599 3.79224e-05,0.00100655 0.000126103,0.000999337 0.00021331,0.000984417 0.000298871,0.000961901 0.000382127,0.000931964 0.000462434,0.000894836 0.000539174,0.000850805 0.000611754,0.000800209 0.000679614,0.00074344 0.00074223,0.000680934 0.00079912,0.000613175 0.000849845,0.000540686 0.000894013,0.000464025 0.000931283,0.000383783 0.000961368,0.000300581 0.000984036,0.00021506 0.000999112,0.000127879 0.00100648,3.97118e-05 0.00100608,-4.87618e-05 0.0872923,0 z "/>
<path fill="rgb(241,240,234)" stroke="rgb(241,240,234)" d="M 1.90713,1.18017 l -0.376005,-1.39053e-05 -0.00108601,4.73234e-05 -0.00107777,0.000141691 -0.00106134,0.000234983 -0.00103685,0.00032649 -0.00100449,0.000415518 -0.000964503,0.000501391 -0.00091719,0.000583457 -0.000862912,0.000661091 -0.000802081,0.000733706 -0.00073516,0.000800749 -0.000662656,0.000861711 -0.00058512,0.00091613 -0.000503141,0.000963591 -0.000417341,0.00100374 -0.000328371,0.00103626 -0.000236909,0.00106091 -0.000143647,0.00107751 -4.92942e-05,0.00108592 0,0.398505 -5.05503e-05,0.00100599 3.79224e-05,0.00100655 0.000126103,0.000999337 0.00021331,0.000984417 0.000298871,0.000961901 0.000382127,0.000931964 0.000462434,0.000894836 0.000539174,0.000850805 0.000611754,0.000800209 0.000679614,0.00074344 0.00074223,0.000680934 0.00079912,0.000613175 0.000849845,0.000540686 0.000894013,0.000464025 0.000931283,0.000383783 0.000961368,0.000300581 0.000984036,0.00021506 0.000999112,0.000127879 0.00100648,3.97118e-05 0.00100608,-4.87618e-05 0.376005,1.39053e-05 0.00131963,-5.74655e-05 0.00130963,-0.000172058 0.00128969,-0.000285346 0.00125998,-0.00039647 0.00122071,-0.000504587 0.00117218,-0.000608878 0.00111476,-0.000708551 0.00104889,-0.00080285 0.000975059,-0.000891061 0.000893837,-0.000972515 0.000805837,-0.00104659 0.000711726,-0.00111273 0.000612217,-0.00117044 0.000508065,-0.00121926 0.00040006,-0.00125884 0.000289022,-0.00128887 0,-0.398461 -4.84468e-05,-0.00110802 -0.000144971,-0.00109956 -0.000240388,-0.00108272 -0.000333971,-0.0010576 -0.000425004,-0.00102442 -0.000512794,-0.000983413 -0.00059667,-0.000934903 -0.000675992,-0.000879258 -0.000750154,-0.000816902 -0.000818591,-0.00074831 -0.00088078,-0.000674008 -0.000936246,-0.00059456 -0.000984567,-0.000510575 -0.00102537,-0.000422693 -0.00105835,-0.000331585 -0.00108325,-0.000237946 -0.00109989,-0.000142491 -0.00110813,-4.59484e-05 -0.00110791,5.0945e-05 -0.00109924,0.000147449 z M 1.42773,1.14282 l -0.313804,0 -0.0348704,0.0597821 0.141968,0.353661 0.000266661,0.00108405 0.000363141,0.00105565 0.000456674,0.00101868 0.0005465,0.00097345 0.000631891,0.000920316 0.000712154,0.000859712 0.000786636,0.00079213 0.000854734,0.00071812 0.000915895,0.000638281 0.000969623,0.000553262 0.00101548,0.000463753 0.0010531,0.00037048 0.00108217,0.0002742 0.00110245,0.000175694 0.00111379,7.57625e-05 0.194836,0 0.00108487,-4.73483e-05 0.00107662,-0.000141685 0.00106018,-0.000234944 0.00103568,-0.000326416 0.0010033,-0.000415406 0.000963294,-0.000501237 0.000915962,-0.000583256 0.000861664,-0.00066084 0.000800814,-0.000733398 0.000733873,-0.000800378 0.000661351,-0.000861272 0.0005838,-0.000915616 0.000501809,-0.000962996 0.000416002,-0.00100305 0.000327031,-0.00103548 0.000235574,-0.00106004 0.000142324,-0.00107653 4.79927e-05,-0.00108484 0,-0.398513 -4.73764e-05,-0.00108551 -0.000141769,-0.00107725 -0.000235084,-0.00106081 -0.00032661,-0.00103629 -0.000415653,-0.0010039 -0.000501535,-0.000963867 -0.000583603,-0.000916507 -0.000661232,-0.000862176 -0.000733833,-0.00080129 -0.000800854,-0.000734309 -0.000861784,-0.000661744 -0.00091616,-0.000584147 -0.000963569,-0.000502107 -0.00100365,-0.000416249 -0.0010361,-0.000327226 -0.00106067,-0.000235714 -0.00107717,-0.000142409 -0.00108548,-4.80212e-05 z M 2.00433,1.60361 l 0,0.0896056 -0.85804,0 -0.00300951,-0.000129841 -0.00298715,-0.000388557 -0.00294258,-0.000644386 -0.00287615,-0.000895427 -0.00278834,-0.00113981 -0.00267981,-0.00137573 -0.00255137,-0.00160142 -0.00240396,-0.00181521 -0.00223869,-0.00201551 -0.00205679,-0.00220083 -0.00185959,-0.0023698 -0.00164858,-0.00252115 -0.00142532,-0.00265377 -0.00119146,-0.00276667 -0.00094875,-0.002859 -0.000698988,-0.00293009 -0.000444032,-0.00297941 -0.000185776,-0.00300658 7.38606e-05,-0.00301141 0.034863,-0.112114 -0.14196,-0.346166 0.0373564,-0.0548175 0,-0.323733 -0.0373564,0 0,-0.0747276 0.376057,0 0.000801489,0.0208037 0.00261765,0.0206539 0.00441376,0.0203459 0.00617605,0.019882 0.00789102,0.0192657 0.00954554,0.0185019 0.0111269,0.0175963 0.012623,0.0165559 0.0140225,0.0153886 0.0153144,0.0141034 0.0164891,0.0127102 0.0175374,0.0112195 0.0184513,0.00964296 0.0192239,0.00799249 0.0198492,0.00628079 0.0203224,0.00452097 0.0206399,0.00272651 0.0207992,0.000911165 0.0207992,-0.000911165 0.0206399,-0.00272651 0.0203224,-0.00452097 0.0198492,-0.00628079 0.0192239,-0.00799249 0.0184513,-0.00964296 0.0175374,-0.0112195 0.0164891,-0.0127102 0.0153144,-0.0141034 0.0140225,-0.0153886 0.012623,-0.0165559 0.0111269,-0.0175963 0.00954554,-0.0185019 0.00789102,-0.0192657 0.00617605,-0.019882 0.00441376,-0.0203459 0.00261765,-0.0206539 0.000801489,-0.0208037 0.148254,0 0,0.435803 -0.0112362,-4.15536e-07 -0.00108601,4.73234e-05 -0.00107777,0.000141691 -0.00106134,0.000234983 -0.00103685,0.00032649 -0.00100449,0.000415518 -0.000964503,0.000501391 -0.00091719,0.000583457 -0.000862912,0.000661091 -0.000802081,0.000733706 -0.00073516,0.000800749 -0.000662656,0.000861711 -0.00058512,0.00091613 -0.000503141,0.000963591 -0.000417341,0.00100374 -0.000328371,0.00103626 -0.000236909,0.00106091 -0.000143647,0.00107751 -4.92942e-05,0.00108592 0,0.398505 -5.05503e-05,0.00100599 3.79224e-05,0.00100655 0.000126103,0.000999337 0.00021331,0.000984417 0.000298871,0.000961901 0.000382127,0.000931964 0.000462434,0.000894836 0.000539174,0.000850805 0.000611754,0.000800209 0.000679614,0.00074344 0.00074223,0.000680934 0.00079912,0.000613175 0.000849845,0.000540686 0.000894013,0.000464025 0.000931283,0.000383783 0.000961368,0.000300581 0.000984036,0.00021506 0.000999112,0.000127879 0.00100648,3.97118e-05 0.00100608,-4.87618e-05 0.0112367,4.15553e-07 z "/>
<path fill="rgb(241,240,234)" stroke="rgb(241,240,234)" d="M 1.80284,0.745616 l -0.000706058,0.0161714 -0.0021128,0.0160483 -0.00350347,0.0158031 -0.00486747,0.0154376 -0.00619442,0.0149547 -0.00747423,0.0143579 -0.00869716,0.0136518 -0.0098539,0.0128419 -0.0109356,0.0119342 -0.0119342,0.0109356 -0.0128419,0.0098539 -0.0136518,0.00869716 -0.0143579,0.00747423 -0.0149547,0.00619442 -0.0154376,0.00486747 -0.0158031,0.00350347 -0.0160483,0.0021128 -0.0161714,0.000706058 -0.0161714,-0.000706058 -0.0160483,-0.0021128 -0.0158031,-0.00350347 -0.0154376,-0.00486747 -0.0149547,-0.00619442 -0.0143579,-0.00747423 -0.0136518,-0.00869716 -0.0128419,-0.0098539 -0.0119342,-0.0109356 -0.0109356,-0.0119342 -0.0098539,-0.0128419 -0.00869716,-0.0136518 -0.00747423,-0.0143579 -0.00619442,-0.0149547 -0.00486747,-0.0154376 -0.00350347,-0.0158031 -0.0021128,-0.0160483 -0.000706058,-0.0161714 0.000706058,-0.0161714 0.0021128,-0.0160483 0.00350347,-0.0158031 0.00486747,-0.0154376 0.00619442,-0.0149547 0.00747423,-0.0143579 0.00869716,-0.0136518 0.0098539,-0.0128419 0.0109356,-0.0119342 0.0119342,-0.0109356 0.0128419,-0.0098539 0.0136518,-0.00869716 0.0143579,-0.00747423 0.0149547,-0.00619442 0.0154376,-0.00486747 0.0158031,-0.00350347 0.0160483,-0.0021128 0.0161714,-0.000706058 0.0161714,0.000706058 0.0160483,0.0021128 0.0158031,0.00350347 0.0154376,0.00486747 0.0149547,0.00619442 0.0143579,0.00747423 0.0136518,0.00869716 0.0128419,0.0098539 0.0119342,0.0109356 0.0109356,0.0119342 0.0098539,0.0128419 0.00869716,0.0136518 0.00747423,0.0143579 0.00619442,0.0149547 0.00486747,0.0154376 0.00350347,0.0158031 0.0021128,0.0160483 0.000706058,0.0161714 z "/>
<path fill="rgb(241,240,234)" stroke="rgb(241,240,234)" d="M 3.13497,0.745615 l -0.000706058,0.0161714 -0.0021128,0.0160483 -0.00350347,0.0158031 -0.00486747,0.0154376 -0.00619442,0.0149547 -0.00747423,0.0143579 -0.00869716,0.0136518 -0.0098539,0.0128419 -0.0109356,0.0119342 -0.0119342,0.0109356 -0.0128419,0.0098539 -0.0136518,0.00869716 -0.0143579,0.00747423 -0.0149547,0.00619442 -0.0154376,0.00486747 -0.0158031,0.00350347 -0.0160483,0.0021128 -0.0161714,0.000706058 -0.0161714,-0.000706058 -0.0160483,-0.0021128 -0.0158031,-0.00350347 -0.0154376,-0.00486747 -0.0149547,-0.00619442 -0.0143579,-0.00747423 -0.0136518,-0.00869716 -0.0128419,-0.0098539 -0.0119342,-0.0109356 -0.0109356,-0.0119342 -0.0098539,-0.0128419 -0.00869716,-0.0136518 -0.00747423,-0.0143579 -0.00619442,-0.0149547 -0.00486747,-0.0154376 -0.00350347,-0.0158031 -0.0021128,-0.0160483 -0.000706058,-0.0161714 0.000706058,-0.0161714 0.0021128,-0.0160483 0.00350347,-0.0158031 0.00486747,-0.0154376 0.00619442,-0.0149547 0.00747423,-0.0143579 0.00869716,-0.0136518 0.0098539,-0.0128419 0.0109356,-0.0119342 0.0119342,-0.0109356 0.0128419,-0.0098539 0.0136518,-0.00869716 0.0143579,-0.00747423 0.0149547,-0.00619442 0.0154376,-0.00486747 0.0158031,-0.00350347 0.0160483,-0.0021128 0.0161714,-0.000706058 0.0161714,0.000706058 0.0160483,0.0021128 0.0158031,0.00350347 0.0154376,0.00486747 0.0149547,0.00619442 0.0143579,0.00747423 0.0136518,0.00869716 0.0128419,0.0098539 0.0119342,0.0109356 0.0109356,0.0119342 0.0098539,0.0128419 0.00869716,0.0136518 0.00747423,0.0143579 0.00619442,0.0149547 0.00486747,0.0154376 0.00350347,0.0158031 0.0021128,0.0160483 0.000706058,0.0161714 z "/>
<path fill="rgb(241,240,234)" stroke="rgb(241,240,234)" d="M 2.87643,2.08022 l -0.000757476,0.017349 -0.00226666,0.017217 -0.0037586,0.0169539 -0.00522193,0.0165618 -0.00664552,0.0160437 -0.00801853,0.0154035 -0.00933051,0.014646 -0.0105715,0.013777 -0.011732,0.0128032 -0.0128032,0.011732 -0.013777,0.0105715 -0.014646,0.00933051 -0.0154035,0.00801853 -0.0160437,0.00664552 -0.0165618,0.00522193 -0.0169539,0.0037586 -0.017217,0.00226666 -0.017349,0.000757476 -0.017349,-0.000757476 -0.017217,-0.00226666 -0.0169539,-0.0037586 -0.0165618,-0.00522193 -0.0160437,-0.00664552 -0.0154035,-0.00801853 -0.014646,-0.00933051 -0.013777,-0.0105715 -0.0128032,-0.011732 -0.011732,-0.0128032 -0.0105715,-0.013777 -0.00933051,-0.014646 -0.00801853,-0.0154035 -0.00664552,-0.0160437 -0.00522193,-0.0165618 -0.0037586,-0.0169539 -0.00226666,-0.017217 -0.000757476,-0.017349 0.000757476,-0.017349 0.00226666,-0.017217 0.0037586,-0.0169539 0.00522193,-0.0165618 0.00664552,-0.0160437 0.00801853,-0.0154035 0.00933051,-0.014646 0.0105715,-0.013777 0.011732,-0.0128032 0.0128032,-0.011732 0.013777,-0.0105715 0.014646,-0.00933051 0.0154035,-0.00801853 0.0160437,-0.00664552 0.0165618,-0.00522193 0.0169539,-0.0037586 0.017217,-0.00226666 0.017349,-0.000757476 0.017349,0.000757476 0.017217,0.00226666 0.0169539,0.0037586 0.0165618,0.00522193 0.0160437,0.00664552 0.0154035,0.00801853 0.014646,0.00933051 0.013777,0.0105715 0.0128032,0.011732 0.011732,0.0128032 0.0105715,0.013777 0.00933051,0.014646 0.00801853,0.0154035 0.00664552,0.0160437 0.00522193,0.0165618 0.0037586,0.0169539 0.00226666,0.017217 0.000757476,0.017349 z "/>
<path fill="rgb(241,240,234)" stroke="rgb(241,240,234)" d="M 3.32297,2.08022 l -0.000757476,0.017349 -0.00226666,0.017217 -0.0037586,0.0169539 -0.00522193,0.0165618 -0.00664552,0.0160437 -0.00801853,0.0154035 -0.00933051,0.014646 -0.0105715,0.013777 -0.011732,0.0128032 -0.0128032,0.011732 -0.013777,0.0105715 -0.014646,0.00933051 -0.0154035,0.00801853 -0.0160437,0.00664552 -0.0165618,0.00522193 -0.0169539,0.0037586 -0.017217,0.00226666 -0.017349,0.000757476 -0.017349,-0.000757476 -0.017217,-0.00226666 -0.0169539,-0.0037586 -0.0165618,-0.00522193 -0.0160437,-0.00664552 -0.0154035,-0.00801853 -0.014646,-0.00933051 -0.013777,-0.0105715 -0.0128032,-0.011732 -0.011732,-0.0128032 -0.0105715,-0.013777 -0.00933051,-0.014646 -0.00801853,-0.0154035 -0.00664552,-0.0160437 -0.00522193,-0.0165618 -0.0037586,-0.0169539 -0.00226666,-0.017217 -0.000757476,-0.017349 0.000757476,-0.017349 0.00226666,-0.017217 0.0037586,-0.0169539 0.00522193,-0.0165618 0.00664552,-0.0160437 0.00801853,-0.0154035 0.00933051,-0.014646 0.0105715,-0.013777 0.011732,-0.0128032 0.0128032,-0.011732 0.013777,-0.0105715 0.014646,-0.00933051 0.0154035,-0.00801853 0.0160437,-0.00664552 0.0165618,-0.00522193 0.0169539,-0.0037586 0.017217,-0.00226666 0.017349,-0.000757476 0.017349,0.000757476 0.017217,0.00226666 0.0169539,0.0037586 0.0165618,0.00522193 0.0160437,0.00664552 0.0154035,0.00801853 0.014646,0.00933051 0.013777,0.0105715 0.0128032,0.011732 0.011732,0.0128032 0.0105715,0.013777 0.00933051,0.014646 0.00801853,0.0154035 0.00664552,0.0160437 0.00522193,0.0165618 0.0037586,0.0169539 0.00226666,0.017217 0.000757476,0.017349 z "/>
<path fill="rgb(241,240,234)" stroke="rgb(241,240,234)" d="M 1.58707,2.08022 l -0.000757476,0.017349 -0.00226666,0.017217 -0.0037586,0.0169539 -0.00522193,0.0165618 -0.00664552,0.0160437 -0.00801853,0.0154035 -0.00933051,0.014646 -0.0105715,0.013777 -0.011732,0.0128032 -0.0128032,0.011732 -0.013777,0.0105715 -0.014646,0.00933051 -0.0154035,0.00801853 -0.0160437,0.00664552 -0.0165618,0.00522193 -0.0169539,0.0037586 -0.017217,0.00226666 -0.017349,0.000757476 -0.017349,-0.000757476 -0.017217,-0.00226666 -0.0169539,-0.0037586 -0.0165618,-0.00522193 -0.0160437,-0.00664552 -0.0154035,-0.00801853 -0.014646,-0.00933051 -0.013777,-0.0105715 -0.0128032,-0.011732 -0.011732,-0.0128032 -0.0105715,-0.013777 -0.00933051,-0.014646 -0.00801853,-0.0154035 -0.00664552,-0.0160437 -0.00522193,-0.0165618 -0.0037586,-0.0169539 -0.00226666,-0.017217 -0.000757476,-0.017349 0.000757476,-0.017349 0.00226666,-0.017217 0.0037586,-0.0169539 0.00522193,-0.0165618 0.00664552,-0.0160437 0.00801853,-0.0154035 0.00933051,-0.014646 0.0105715,-0.013777 0.011732,-0.0128032 0.0128032,-0.011732 0.013777,-0.0105715 0.014646,-0.00933051 0.0154035,-0.00801853 0.0160437,-0.00664552 0.0165618,-0.00522193 0.0169539,-0.0037586 0.017217,-0.00226666 0.017349,-0.000757476 0.017349,0.000757476 0.017217,0.00226666 0.0169539,0.0037586 0.0165618,0.00522193 0.0160437,0.00664552 0.0154035,0.00801853 0.014646,0.00933051 0.013777,0.0105715 0.0128032,0.011732 0.011732,0.0128032 0.0105715,0.013777 0.00933051,0.014646 0.00801853,0.0154035 0.00664552,0.0160437 0.00522193,0.0165618 0.0037586,0.0169539 0.00226666,0.017217 0.000757476,0.017349 z "/>
<path fill="rgb(241,240,234)" stroke="rgb(241,240,234)" d="M 1.57188,2.53575 l -0.0382867,0.352181 -0.000399419,0.00260872 -0.000625305,0.00256397 -0.000846431,0.0024997 -0.00106111,0.0024164 -0.00126772,0.00231471 -0.00146467,0.00219539 -0.00165047,0.00205935 -0.0018237,0.00190764 -0.00198305,0.0017414 -0.0021273,0.0015619 -0.00225536,0.00137052 -0.00236624,0.0011687 -0.00245911,0.000957978 -0.00253326,0.000739966 -0.00258812,0.00051632 -0.00262328,0.000288743 -0.00263846,5.89678e-05 -0.00263356,-0.000171256 -0.22045,0 0.00743939,-0.0880454 0.123865,0 0.00215806,6.59232e-05 0.00215568,-0.000120889 0.00213716,-0.000306796 0.00210263,-0.000490406 0.00205236,-0.000670344 0.00198673,-0.000845262 0.00190622,-0.00101385 0.00181143,-0.00117485 0.00170309,-0.00132705 0.00158199,-0.00146931 0.00144904,-0.00160058 0.00130524,-0.00171986 0.00115167,-0.00182626 0.000989482,-0.00191898 0.00081988,-0.00199734 0.00064414,-0.00206074 0.000463576,-0.00210871 0.000279542,-0.00214089 9.34137e-05,-0.00215704 0,-0.206714 -0.000101308,-0.00233548 -0.00030451,-0.00231776 -0.000505394,-0.00228239 -0.000702431,-0.00222965 -0.000894119,-0.00215993 -0.001079,-0.00207376 -0.00125567,-0.00197181 -0.00142277,-0.00185484 -0.00157905,-0.00172376 -0.0017233,-0.00157955 -0.00185443,-0.00142331 -0.00197144,-0.00125624 -0.00207345,-0.0010796 -0.00215967,-0.000894747 -0.00222944,-0.000703079 -0.00228224,-0.000506058 -0.00231767,-0.000305184 -0.00233545,-0.000101987 -0.102032,0 0.00744999,-0.0881709 0.255361,-0.0917361 0,0.147368 z "/>
<path fill="rgb(241,240,234)" stroke="rgb(241,240,234)" d="M 3.63902,2.67488 l -1.57637,-0.059981 -0.435263,-0.226516 -0.0555063,0 -0.255361,0.0917361 -0.00744999,0.0881709 -0.227183,0 0.0701288,0.236933 0.000713792,0.00239976 0.000922849,0.00232738 0.0011247,0.00223682 0.00131777,0.0021288 0.00150055,0.00200416 0.00167161,0.00186388 0.00182962,0.00170903 0.00197335,0.00154085 0.00210167,0.00136063 0.00221358,0.00116979 0.0023082,0.000969815 0.0023848,0.000762268 0.00244278,0.000548768 0.00248169,0.000330984 0.00250122,0.000110616 0.107732,0 -0.00743939,0.0880454 -0.159631,0 -0.00454384,-0.000194557 -0.00451058,-0.000582248 -0.0044443,-0.000965677 -0.00434549,-0.00134204 -0.00421487,-0.00170857 -0.00405339,-0.0020626 -0.00386225,-0.00240153 -0.00364283,-0.00272288 -0.00339675,-0.0030243 -0.0031258,-0.00330359 -0.00283198,-0.00355869 -0.00251742,-0.00378774 -0.00218443,-0.00398906 -0.00183546,-0.00416118 -0.00147305,-0.00430284 -0.125108,-0.373412 0.0229751,-0.310063 -0.0401948,-0.024891 0,-0.0880376 0.204798,0 0.00108425,0.0223092 0.00302609,0.0221296 0.00494486,0.0217813 0.00682593,0.0212669 0.00865497,0.0205905 0.010418,0.019757 0.0121017,0.018773 0.0136931,0.0176458 0.0151801,0.0163842 0.0165514,0.0149976 0.0177965,0.0134967 0.0189059,0.0118929 0.0198712,0.0101985 0.0206851,0.00842631 0.0213413,0.00658989 0.0218347,0.00470323 0.0221618,0.00278072 0.0223198,0.000837012 0.0223078,-0.00111308 0.0221257,-0.00305468 0.0217749,-0.004973 0.0212581,-0.0068534 0.0205793,-0.00868157 0.0197436,-0.0104435 0.0187573,-0.0121259 0.0176281,-0.0137158 0.0163645,-0.0152012 0.0149762,-0.0165707 0.0134737,-0.0178139 0.0118685,-0.0189213 0.0101728,-0.0198844 0.00839957,-0.020696 0.00656231,-0.0213497 0.794316,0 0.00643787,0.021367 0.00828922,0.0207192 0.0100765,0.0199113 0.011786,0.0189496 0.0134044,0.0178415 0.0149193,0.0165955 0.0163189,0.0152214 0.0175924,0.0137296 0.0187301,0.0121318 0.019723,0.0104403 0.0205636,0.00866812 0.0212453,0.00682898 0.0217629,0.00493707 0.0221123,0.00300703 0.0222909,0.00105375 0.449546,0 0.0223877,-0.000984866 0.0222147,-0.00294699 0.0218701,-0.00488634 0.0213565,-0.00678795 0.020678,-0.00863711 0.0198396,-0.0104195 0.018848,-0.0121215 0.0177108,-0.0137297 0.0164367,-0.0152319 0.0150357,-0.0166165 0.0135184,-0.0178726 0.0118968,-0.0189906 0.0101832,-0.019962 0.00839092,-0.0207791 0.00653383,-0.0214356 0.26796,0 0,0.531498 z "/>
<path fill="rgb(241,240,234)" stroke="rgb(241,240,234)" d="M 3.63902,2.67488 l 0,0.417858 -2.01163,0 0,-0.704355 0.435263,0.226516 1.57637,0.059981 z "/>
<path fill="rgb(0,91,140)" stroke="rgb(0,91,140)" d="M 3.8,7.5 l -1.55,0 -4.44089e-16,-0.2 1.55,0 0.0435779,-0.00190265 0.0432462,-0.00569347 0.0425854,-0.00944096 0.0416005,-0.0131166 0.0402991,-0.0166924 0.0386909,-0.0201412 0.0367882,-0.0234367 0.0346056,-0.0265538 0.0321596,-0.0294688 0.0294688,-0.0321596 0.0265538,-0.0346056 0.0234367,-0.0367882 0.0201412,-0.0386909 0.0166924,-0.0402991 0.0131166,-0.0416005 0.00944096,-0.0425854 0.00569347,-0.0432462 0.00190265,-0.0435779 0,-6.1 -0.00190265,-0.0435779 -0.00569347,-0.0432462 -0.00944096,-0.0425854 -0.0131166,-0.0416005 -0.0166924,-0.0402991 -0.0201412,-0.0386909 -0.0234367,-0.0367882 -0.0265538,-0.0346056 -0.0294688,-0.0321596 -0.0321596,-0.0294688 -0.0346056,-0.0265538 -0.0367882,-0.0234367 -0.0386909,-0.0201412 -0.0402991,-0.0166924 -0.0416005,-0.0131166 -0.0425854,-0.00944096 -0.0432462,-0.00569347 -0.0435779,-0.00190265 -1.55,4.44089e-16 0,-0.2 1.55,-4.44089e-16 0.061009,0.00266371 0.0605447,0.00797086 0.0596196,0.0132173 0.0582408,0.0183632 0.0564187,0.0233694 0.0541672,0.0281977 0.0515035,0.0328114 0.0484478,0.0371753 0.0450234,0.0412564 0.0412564,0.0450234 0.0371753,0.0484478 0.0328114,0.0515035 0.0281977,0.0541672 0.0233694,0.0564187 0.0183632,0.0582408 0.0132173,0.0596196 0.00797086,0.0605447 0.00266371,0.061009 8.88178e-16,6.1 -0.00266371,0.061009 -0.00797086,0.0605447 -0.0132173,0.0596196 -0.0183632,0.0582408 -0.0233694,0.0564187 -0.0281977,0.0541672 -0.0328114,0.0515035 -0.0371753,0.0484478 -0.0412564,0.0450234 -0.0450234,0.0412564 -0.0484478,0.0371753 -0.0515035,0.0328114 -0.0541672,0.0281977 -0.0564187,0.0233694 -0.0582408,0.0183632 -0.0596196,0.0132173 -0.0605447,0.00797086 -0.061009,0.00266371 z "/>
<path fill="rgb(0,91,140)" stroke="rgb(0,91,140)" d="M 0,6.8 l 0,-6.1 0.00266371,-0.061009 0.00797086,-0.0605447 0.0132173,-0.0596196 0.0183632,-0.0582408 0.0233694,-0.0564187 0.0281977,-0.0541672 0.0328114,-0.0515035 0.0371753,-0.0484478 0.0412564,-0.0450234 0.0450234,-0.0412564 0.0484478,-0.0371753 0.0515035,-0.0328114 0.0541672,-0.0281977 0.0564187,-0.0233694 0.0582408,-0.0183632 0.0596196,-0.0132173 0.0605447,-0.00797086 0.061009,-0.00266371 1.55,-8.88178e-16 0,0.2 -1.55,4.44089e-16 -0.0435779,0.00190265 -0.0432462,0.00569347 -0.0425854,0.00944096 -0.0416005,0.0131166 -0.0402991,0.0166924 -0.0386909,0.0201412 -0.0367882,0.0234367 -0.0346056,0.0265538 -0.0321596,0.0294688 -0.0294688,0.0321596 -0.0265538,0.0346056 -0.0234367,0.0367882 -0.0201412,0.0386909 -0.0166924,0.0402991 -0.0131166,0.0416005 -0.00944096,0.0425854 -0.00569347,0.0432462 -0.00190265,0.0435779 0,6.1 0.00190265,0.0435779 0.00569347,0.0432462 0.00944096,0.0425854 0.0131166,0.0416005 0.0166924,0.0402991 0.0201412,0.0386909 0.0234367,0.0367882 0.0265538,0.0346056 0.0294688,0.0321596 0.0321596,0.0294688 0.0346056,0.0265538 0.0367882,0.0234367 0.0386909,0.0201412 0.0402991,0.0166924 0.0416005,0.0131166 0.0425854,0.00944096 0.0432462,0.00569347 0.0435779,0.00190265 1.55,0 4.44089e-16,0.2 -1.55,0 -0.061009,-0.00266371 -0.0605447,-0.00797086 -0.0596196,-0.0132173 -0.0582408,-0.0183632 -0.0564187,-0.0233694 -0.0541672,-0.0281977 -0.0515035,-0.0328114 -0.0484478,-0.0371753 -0.0450234,-0.0412564 -0.0412564,-0.0450234 -0.0371753,-0.0484478 -0.0328114,-0.0515035 -0.0281977,-0.0541672 -0.0233694,-0.0564187 -0.0183632,-0.0582408 -0.0132173,-0.0596196 -0.00797086,-0.0605447 -0.00266371,-0.061009 z "/>
<path fill="rgb(241,240,234)" stroke="rgb(241,240,234)" d="M 2.25,0.4 l 0,-0.2 1.55,-4.44089e-16 0.0435779,0.00190265 0.0432462,0.00569347 0.0425854,0.00944096 0.0416005,0.0131166 0.0402991,0.0166924 0.0386909,0.0201412 0.0367882,0.0234367 0.0346056,0.0265538 0.0321596,0.0294688 0.0294688,0.0321596 0.0265538,0.0346056 0.0234367,0.0367882 0.0201412,0.0386909 0.0166924,0.0402991 0.0131166,0.0416005 0.00944096,0.0425854 0.00569347,0.0432462 0.00190265,0.0435779 0,6.1 -0.00190265,0.0435779 -0.00569347,0.0432462 -0.00944096,0.0425854 -0.0131166,0.0416005 -0.0166924,0.0402991 -0.0201412,0.0386909 -0.0234367,0.0367882 -0.0265538,0.0346056 -0.0294688,0.0321596 -0.0321596,0.0294688 -0.0346056,0.0265538 -0.0367882,0.0234367 -0.0386909,0.0201412 -0.0402991,0.0166924 -0.0416005,0.0131166 -0.0425854,0.00944096 -0.0432462,0.00569347 -0.0435779,0.00190265 -1.55,0 0,-0.2 1.55,0 0.0261467,-0.00114159 0.0259477,-0.00341608 0.0255513,-0.00566458 0.0249603,-0.00786996 0.0241794,-0.0100155 0.0232145,-0.0120847 0.0220729,-0.014062 0.0207634,-0.0159323 0.0192958,-0.0176813 0.0176813,-0.0192958 0.0159323,-0.0207634 0.014062,-0.0220729 0.0120847,-0.0232145 0.0100155,-0.0241794 0.00786996,-0.0249603 0.00566458,-0.0255513 0.00341608,-0.0259477 0.00114159,-0.0261467 0,-6.1 -0.00114159,-0.0261467 -0.00341608,-0.0259477 -0.00566458,-0.0255513 -0.00786996,-0.0249603 -0.0100155,-0.0241794 -0.0120847,-0.0232145 -0.014062,-0.0220729 -0.0159323,-0.0207634 -0.0176813,-0.0192958 -0.0192958,-0.0176813 -0.0207634,-0.0159323 -0.0220729,-0.014062 -0.0232145,-0.0120847 -0.0241794,-0.0100155 -0.0249603,-0.00786996 -0.0255513,-0.00566458 -0.0259477,-0.00341608 -0.0261467,-0.00114159 -1.55,4.44089e-16 z "/>
<path fill="rgb(241,240,234)" stroke="rgb(241,240,234)" d="M 0.7,0.4 l -0.0261467,0.00114159 -0.0259477,0.00341608 -0.0255513,0.00566458 -0.0249603,0.00786996 -0.0241794,0.0100155 -0.0232145,0.0120847 -0.0220729,0.014062 -0.0207634,0.0159323 -0.0192958,0.0176813 -0.0176813,0.0192958 -0.0159323,0.0207634 -0.014062,0.0220729 -0.0120847,0.0232145 -0.0100155,0.0241794 -0.00786996,0.0249603 -0.00566458,0.0255513 -0.00341608,0.0259477 -0.00114159,0.0261467 4.44089e-16,6.1 0.00114159,0.0261467 0.00341608,0.0259477 0.00566458,0.0255513 0.00786996,0.0249603 0.0100155,0.0241794 0.0120847,0.0232145 0.014062,0.0220729 0.0159323,0.0207634 0.0176813,0.0192958 0.0192958,0.0176813 0.0207634,0.0159323 0.0220729,0.014062 0.0232145,0.0120847 0.0241794,0.0100155 0.0249603,0.00786996 0.0255513,0.00566458 0.0259477,0.00341608 0.0261467,0.00114159 1.55,0 0,0.2 -1.55,0 -0.0435779,-0.00190265 -0.0432462,-0.00569347 -0.0425854,-0.00944096 -0.0416005,-0.0131166 -0.0402991,-0.0166924 -0.0386909,-0.0201412 -0.0367882,-0.0234367 -0.0346056,-0.0265538 -0.0321596,-0.0294688 -0.0294688,-0.0321596 -0.0265538,-0.0346056 -0.0234367,-0.0367882 -0.0201412,-0.0386909 -0.0166924,-0.0402991 -0.0131166,-0.0416005 -0.00944096,-0.0425854 -0.00569347,-0.0432462 -0.00190265,-0.0435779 0,-6.1 0.00190265,-0.0435779 0.00569347,-0.0432462 0.00944096,-0.0425854 0.0131166,-0.0416005 0.0166924,-0.0402991 0.0201412,-0.0386909 0.0234367,-0.0367882 0.0265538,-0.0346056 0.0294688,-0.0321596 0.0321596,-0.0294688 0.0346056,-0.0265538 0.0367882,-0.0234367 0.0386909,-0.0201412 0.0402991,-0.0166924 0.0416005,-0.0131166 0.0425854,-0.00944096 0.0432462,-0.00569347 0.0435779,-0.00190265 1.55,-4.44089e-16 0,0.2 -1.55,4.44089e-16 z "/>
<path fill="rgb(241,240,234)" stroke="rgb(241,240,234)" d="M 2.55798,6.76794 l -1.46809,0 0,-3.49959 0.57307,0 0,1.37258 0.89502,0 0.0912191,0.00214633 0.109463,0.0107317 0.101951,0.0182438 0.0944386,0.0268291 0.0879996,0.0354145 0.0794142,0.0439998 0.0847801,0.0600973 0.0783411,0.0697558 0.0719021,0.0772679 0.0633168,0.0858532 0.0547314,0.0944386 0.0472193,0.0998044 -1.8598,0.00214633 0,0.872484 0.91863,0 0.93902,0.025756 -0.0450729,0.0890727 -0.0536583,0.0847801 -0.0622436,0.0783411 -0.0719021,0.0729753 -0.0804874,0.0676094 -0.0890727,0.0611704 -0.0643899,0.0364876 -0.0890727,0.0397071 -0.0944386,0.0311218 -0.0987312,0.0225365 -0.104097,0.0139512 -0.109463,0.00429266 z "/>
<path fill="rgb(241,240,234)" stroke="rgb(241,240,234)" d="M 3.52061,6.16589 l -0.93902,-0.025756 0.0676094,-0.0032195 0.104097,-0.019317 0.0890727,-0.038634 0.0740484,-0.0558046 0.0246828,-0.0268291 0.0568778,-0.0869264 0.0354145,-0.0998044 0.0107317,-0.112682 0,-0.0289755 -0.0182438,-0.110536 -0.0429266,-0.0944386 -0.0665363,-0.0772679 -0.0450729,-0.0354145 -0.0858532,-0.0450729 -0.0965849,-0.0279023 -0.107317,-0.00965849 -0.91863,0 1.8598,-0.00214633 0.0375608,0.10517 0.0268291,0.107317 0.0160975,0.10839 0.00536583,0.110536 0,0.0515119 -0.00858532,0.112682 -0.0182438,0.107317 -0.025756,0.100878 -0.0354145,0.0965849 z "/>
</g></g></svg>
