<?xml version="1.0" encoding="UTF-8" standalone="no"?>
<!DOCTYPE svg PUBLIC "-//W3C//DTD SVG 1.1//EN" "http://www.w3.org/Graphics/SVG/1.1/DTD/svg11-flat.dtd"
[

]>
<svg xmlns="http://www.w3.org/2000/svg"  viewBox="-0.09375 -0.09375 7.6875 7.6875"><g fill="none" stroke="black" stroke-width="0.0125" transform="translate(0,7.5) scale(1, -1)">
<g id="Output" >
<path fill="rgb(241,240,234)" stroke="rgb(241,240,234)" d="M 6.4,3.75 l -5.3,0 0.0100841,-0.230963 0.0301754,-0.229205 0.0500371,-0.225703 0.069518,-0.220483 0.0884698,-0.213585 0.106748,-0.205062 0.124214,-0.194978 0.140735,-0.18341 0.156185,-0.170446 0.170446,-0.156185 0.18341,-0.140735 0.194978,-0.124214 0.205062,-0.106748 0.213585,-0.0884698 0.220483,-0.069518 0.225703,-0.0500371 0.229205,-0.0301754 0.230963,-0.0100841 0.230963,0.0100841 0.229205,0.0301754 0.225703,0.0500371 0.220483,0.069518 0.213585,0.0884698 0.205062,0.106748 0.194978,0.124214 0.18341,0.140735 0.170446,0.156185 0.156185,0.170446 0.140735,0.18341 0.124214,0.194978 0.106748,0.205062 0.0884698,0.213585 0.069518,0.220483 0.0500371,0.225703 0.0301754,0.229205 0.0100841,0.230963 z "/>
<path fill="rgb(241,240,234)" stroke="rgb(241,240,234)" d="M 6.4,3.75 l -0.0100841,0.230963 -0.0301754,0.229205 -0.0500371,0.225703 -0.069518,0.220483 -0.0884698,0.213585 -0.106748,0.205062 -0.124214,0.194978 -0.140735,0.18341 -0.156185,0.170446 -0.170446,0.156185 -0.18341,0.140735 -0.194978,0.124214 -0.205062,0.106748 -0.213585,0.0884698 -0.220483,0.069518 -0.225703,0.0500371 -0.229205,0.0301754 -0.230963,0.0100841 -0.230963,-0.0100841 -0.229205,-0.0301754 -0.225703,-0.0500371 -0.220483,-0.069518 -0.213585,-0.0884698 -0.205062,-0.106748 -0.194978,-0.124214 -0.18341,-0.140735 -0.170446,-0.156185 -0.156185,-0.170446 -0.140735,-0.18341 -0.124214,-0.194978 -0.106748,-0.205062 -0.0884698,-0.213585 -0.069518,-0.220483 -0.0500371,-0.225703 -0.0301754,-0.229205 -0.0100841,-0.230963 5.3,0 z "/>
<path fill="rgb(241,240,234)" stroke="rgb(241,240,234)" d="M 0.2,3.75 l 0.0135088,-0.309403 0.0404237,-0.307048 0.0670308,-0.302357 0.0931279,-0.295364 0.118516,-0.286123 0.143002,-0.274705 0.1664,-0.261196 0.188532,-0.2457 0.209229,-0.228333 0.228333,-0.209229 0.2457,-0.188532 0.261196,-0.1664 0.274705,-0.143002 0.286123,-0.118516 0.295364,-0.0931279 0.302357,-0.0670308 0.307048,-0.0404237 0.309403,-0.0135088 0.309403,0.0135088 0.307048,0.0404237 0.302357,0.0670308 0.295364,0.0931279 0.286123,0.118516 0.274705,0.143002 0.261196,0.1664 0.2457,0.188532 0.228333,0.209229 0.209229,0.228333 0.188532,0.2457 0.1664,0.261196 0.143002,0.274705 0.118516,0.286123 0.0931279,0.295364 0.0670308,0.302357 0.0404237,0.307048 0.0135088,0.309403 -0.2,0 -0.0127478,-0.291972 -0.0381463,-0.28975 -0.0632545,-0.285322 -0.0878812,-0.278724 -0.111839,-0.270004 -0.134946,-0.259229 -0.157026,-0.246481 -0.17791,-0.231857 -0.197441,-0.215469 -0.215469,-0.197441 -0.231857,-0.17791 -0.246481,-0.157026 -0.259229,-0.134946 -0.270004,-0.111839 -0.278724,-0.0878812 -0.285322,-0.0632545 -0.28975,-0.0381463 -0.291972,-0.0127478 -0.291972,0.0127478 -0.28975,0.0381463 -0.285322,0.0632545 -0.278724,0.0878812 -0.270004,0.111839 -0.259229,0.134946 -0.246481,0.157026 -0.231857,0.17791 -0.215469,0.197441 -0.197441,0.215469 -0.17791,0.231857 -0.157026,0.246481 -0.134946,0.259229 -0.111839,0.270004 -0.0878812,0.278724 -0.0632545,0.285322 -0.0381463,0.28975 -0.0127478,0.291972 -0.2,0 z "/>
<path fill="rgb(241,240,234)" stroke="rgb(241,240,234)" d="M 0.2,3.75 l 0.2,0 0.0127478,0.291972 0.0381463,0.28975 0.0632545,0.285322 0.0878812,0.278724 0.111839,0.270004 0.134946,0.259229 0.157026,0.246481 0.17791,0.231857 0.197441,0.215469 0.215469,0.197441 0.231857,0.17791 0.246481,0.157026 0.259229,0.134946 0.270004,0.111839 0.278724,0.0878812 0.285322,0.0632545 0.28975,0.0381463 0.291972,0.0127478 0.291972,-0.0127478 0.28975,-0.0381463 0.285322,-0.0632545 0.278724,-0.0878812 0.270004,-0.111839 0.259229,-0.134946 0.246481,-0.157026 0.231857,-0.17791 0.215469,-0.197441 0.197441,-0.215469 0.17791,-0.231857 0.157026,-0.246481 0.134946,-0.259229 0.111839,-0.270004 0.0878812,-0.278724 0.0632545,-0.285322 0.0381463,-0.28975 0.0127478,-0.291972 0.2,0 -0.0135088,0.309403 -0.0404237,0.307048 -0.0670308,0.302357 -0.0931279,0.295364 -0.118516,0.286123 -0.143002,0.274705 -0.1664,0.261196 -0.188532,0.2457 -0.209229,0.228333 -0.228333,0.209229 -0.2457,0.188532 -0.261196,0.1664 -0.274705,0.143002 -0.286123,0.118516 -0.295364,0.0931279 -0.302357,0.0670308 -0.307048,0.0404237 -0.309403,0.0135088 -0.309403,-0.0135088 -0.307048,-0.0404237 -0.302357,-0.0670308 -0.295364,-0.0931279 -0.286123,-0.118516 -0.274705,-0.143002 -0.261196,-0.1664 -0.2457,-0.188532 -0.228333,-0.209229 -0.209229,-0.228333 -0.188532,-0.2457 -0.1664,-0.261196 -0.143002,-0.274705 -0.118516,-0.286123 -0.0931279,-0.295364 -0.0670308,-0.302357 -0.0404237,-0.307048 -0.0135088,-0.309403 z "/>
<path fill="rgb(42,41,42)" stroke="rgb(42,41,42)" d="M 5.03982,5.04116 l -0.014192,-0.000946135 -0.098398,-0.00473068 -0.0946135,-0.0122998 -0.090829,-0.0198688 -0.0851522,-0.0283841 -0.0813676,-0.035007 -0.0766369,-0.0435222 -0.0719063,-0.0510913 -0.0671756,-0.0577142 -0.0624449,-0.0662295 -0.0586604,-0.0737985 -0.00283841,-0.00378454 -0.0473068,-0.0719063 -0.0416299,-0.0756908 -0.0378454,-0.0794753 -0.0321686,-0.0832599 -0.0274379,-0.0870444 -0.0217611,-0.090829 -0.0179766,-0.0946135 -0.0122998,-0.098398 -0.00756908,-0.102183 -0.00189227,-0.105967 0,-0.00756908 0.00283841,-0.105967 0.00756908,-0.101236 0.0122998,-0.098398 0.0170304,-0.0946135 0.0227072,-0.090829 0.0274379,-0.0870444 0.0321686,-0.0832599 0.0368993,-0.0794753 0.0416299,-0.0756908 0.0463606,-0.0728524 0.0132459,-0.0179766 0.0586604,-0.0728524 0.0624449,-0.0643372 0.0681217,-0.0577142 0.0719063,-0.0501452 0.0766369,-0.0416299 0.0813676,-0.035007 0.0860983,-0.0264918 0.090829,-0.0189227 0.0955596,-0.0113536 0.10029,-0.00378454 0.0331147,0 0.098398,0.00662295 0.0936674,0.014192 0.0889367,0.0217611 0.084206,0.0293302 0.0794753,0.0378454 0.0747447,0.0444683 0.070014,0.0529836 0.0652833,0.0605526 0.0605526,0.0681217 0.0567681,0.0756908 -0.805161,0.0368993 -0.0643372,0.00283841 -0.0927212,0.0160843 -0.084206,0.0293302 -0.0756908,0.0444683 -0.0681217,0.0577142 -0.0596065,0.0709601 -0.00283841,0.00567681 -0.0416299,0.0681217 -0.035007,0.0747447 -0.0293302,0.0832599 -0.0227072,0.0898828 -0.0151382,0.0965058 -0.0104075,0.105021 -0.00283841,0.111644 0,0.0170304 0.00473068,0.104075 0.0122998,0.098398 0.0189227,0.0927212 0.0255456,0.0870444 0.0331147,0.0813676 0.0397377,0.0766369 0.0160843,0.0255456 0.0577142,0.0766369 0.0652833,0.063391 0.0719063,0.0482529 0.0794753,0.035007 0.0860983,0.020815 0.0936674,0.00756908 0.801376,0.0435222 -0.0113536,0.0160843 -0.0577142,0.0728524 -0.0624449,0.0652833 -0.0671756,0.0577142 -0.0719063,0.0501452 -0.0766369,0.0425761 -0.0813676,0.0340609 -0.0860983,0.0274379 -0.090829,0.0189227 -0.0955596,0.0113536 -0.10029,0.00473068 z "/>
<path fill="rgb(42,41,42)" stroke="rgb(42,41,42)" d="M 5.84119,4.64 l -0.801376,-0.0435222 0.0605526,-0.00283841 0.0927212,-0.0160843 0.0832599,-0.0293302 0.0766369,-0.0444683 0.0671756,-0.0577142 0.0605526,-0.0719063 0.0387915,-0.0624449 0.0359531,-0.0747447 0.0293302,-0.0813676 0.0227072,-0.0898828 0.0160843,-0.0965058 0.0104075,-0.104075 0.00283841,-0.106913 -0.00283841,-0.0993442 -0.00946135,-0.102183 -0.0160843,-0.0965058 -0.0236534,-0.0889367 -0.0293302,-0.084206 -0.0359531,-0.0775831 -0.0425761,-0.0709601 -0.0387915,-0.0510913 -0.0643372,-0.0652833 -0.0719063,-0.0510913 -0.0794753,-0.0368993 -0.0870444,-0.0217611 -0.0955596,-0.00662295 0.805161,-0.0368993 0.0454145,0.0719063 0.0406838,0.0766369 0.0359531,0.0794753 0.0312225,0.084206 0.0264918,0.0870444 0.0217611,0.0917751 0.0170304,0.0946135 0.0113536,0.098398 0.00756908,0.103129 0.00283841,0.105967 -0.00189227,0.090829 -0.00756908,0.102183 -0.0113536,0.098398 -0.0170304,0.0946135 -0.0217611,0.0917751 -0.0274379,0.0870444 -0.0312225,0.084206 -0.0368993,0.0794753 -0.0425761,0.0766369 -0.0463606,0.0728524 z "/>
<path fill="rgb(42,41,42)" stroke="rgb(42,41,42)" d="M 2.5089,5.04116 l -0.0927212,-0.00378454 -0.0946135,-0.00851522 -0.0917751,-0.0160843 -0.0879906,-0.0217611 -0.0860983,-0.0283841 -0.0832599,-0.035007 -0.0804215,-0.0416299 -0.0775831,-0.0473068 -0.0747447,-0.0539297 -0.0719063,-0.0596065 -0.0690679,-0.0671756 0.331147,-0.305602 0.0510913,0.049199 0.0728524,0.0596065 0.0775831,0.0482529 0.0813676,0.0378454 0.0860983,0.0274379 0.0898828,0.0160843 0.0946135,0.00567681 0.82503,0.035007 -0.0463606,0.0766369 -0.0586604,0.070014 -0.0719063,0.0662295 -0.00851522,0.00662295 -0.0719063,0.0501452 -0.0775831,0.0425761 -0.0823137,0.035007 -0.0870444,0.0274379 -0.0936674,0.0189227 -0.098398,0.0113536 -0.103129,0.00473068 z "/>
<path fill="rgb(42,41,42)" stroke="rgb(42,41,42)" d="M 3.30839,4.63148 l -0.82503,-0.035007 0.0539297,-0.00189227 0.10029,-0.0113536 0.0879906,-0.0245995 0.0747447,-0.035007 0.0482529,-0.0359531 0.0539297,-0.070014 0.0179766,-0.084206 -0.000946135,-0.0217611 -0.0283841,-0.0823137 -0.0652833,-0.0709601 -0.0548758,-0.0331147 -0.0860983,-0.0293302 -0.0993442,-0.0104075 -0.102183,0 0,-0.447522 0.120159,0 0.0775831,-0.00378454 0.0936674,-0.0170304 0.0766369,-0.0302763 0.00567681,-0.00378454 0.0728524,-0.0548758 0.0596065,-0.0766369 0.00567681,-0.0104075 0.0368993,-0.0879906 0.0122998,-0.090829 -0.00189227,-0.0302763 -0.020815,-0.0851522 -0.0473068,-0.0756908 -0.0719063,-0.0643372 -0.0122998,-0.00756908 -0.0737985,-0.0378454 -0.0851522,-0.0274379 -0.0965058,-0.0160843 -0.107859,-0.00567681 -0.990603,-0.014192 0.0652833,-0.0690679 0.0662295,-0.0662295 0.0539297,-0.0463606 0.0719063,-0.0548758 0.0766369,-0.0482529 0.0794753,-0.0406838 0.0823137,-0.0359531 0.0870444,-0.0283841 0.0898828,-0.0227072 0.0946135,-0.0160843 0.0974519,-0.00946135 0.10029,-0.00283841 0.0122998,0 0.101236,0.00473068 0.0974519,0.0113536 0.0927212,0.0189227 0.0889367,0.0255456 0.084206,0.0331147 0.0794753,0.0406838 0.0756908,0.0473068 0.0709601,0.0548758 0.0236534,0.0198688 0.0690679,0.0690679 0.0586604,0.0737985 0.0473068,0.0766369 0.0378454,0.0804215 0.0264918,0.0851522 0.0160843,0.0889367 0.00473068,0.0927212 0,0.0321686 -0.0104075,0.0993442 -0.020815,0.0898828 -0.0340609,0.0813676 -0.000946135,0.000946135 -0.0387915,0.063391 -0.0539297,0.0681217 -0.0690679,0.0747447 -0.0851522,0.0804215 0.0378454,0.0510913 0.0586604,0.0898828 0.0454145,0.0870444 0.0331147,0.084206 0.0189227,0.0804215 0.00662295,0.0775831 -0.000946135,0.0274379 -0.00946135,0.0936674 -0.0217611,0.0870444 -0.035007,0.0823137 z "/>
<path fill="rgb(42,41,42)" stroke="rgb(42,41,42)" d="M 1.83147,3.23688 l -0.356693,-0.269648 0.0614988,-0.0690679 0.990603,0.014192 -0.0671756,0.00189227 -0.0965058,0.0104075 -0.090829,0.0189227 -0.0860983,0.0264918 -0.0813676,0.0368993 -0.0766369,0.0444683 -0.070014,0.0529836 -0.0662295,0.0614988 -0.0605526,0.0709601 z "/>
<path fill="rgb(187,30,16)" stroke="rgb(187,30,16)" d="M 0.2,3.75 l -0.2,0 0.0142699,-0.326834 0.042701,-0.324347 0.0708072,-0.319391 0.0983745,-0.312004 0.125193,-0.302243 0.151059,-0.290182 0.175775,-0.275912 0.199154,-0.259542 0.221016,-0.241197 0.241197,-0.221016 0.259542,-0.199154 0.275912,-0.175775 0.290182,-0.151059 0.302243,-0.125193 0.312004,-0.0983745 0.319391,-0.0708072 0.324347,-0.042701 0.326834,-0.0142699 0.326834,0.0142699 0.324347,0.042701 0.319391,0.0708072 0.312004,0.0983745 0.302243,0.125193 0.290182,0.151059 0.275912,0.175775 0.259542,0.199154 0.241197,0.221016 0.221016,0.241197 0.199154,0.259542 0.175775,0.275912 0.151059,0.290182 0.125193,0.302243 0.0983745,0.312004 0.0708072,0.319391 0.042701,0.324347 0.0142699,0.326834 -0.2,0 -0.0135088,-0.309403 -0.0404237,-0.307048 -0.0670308,-0.302357 -0.0931279,-0.295364 -0.118516,-0.286123 -0.143002,-0.274705 -0.1664,-0.261196 -0.188532,-0.2457 -0.209229,-0.228333 -0.228333,-0.209229 -0.2457,-0.188532 -0.261196,-0.1664 -0.274705,-0.143002 -0.286123,-0.118516 -0.295364,-0.0931279 -0.302357,-0.0670308 -0.307048,-0.0404237 -0.309403,-0.0135088 -0.309403,0.0135088 -0.307048,0.0404237 -0.302357,0.0670308 -0.295364,0.0931279 -0.286123,0.118516 -0.274705,0.143002 -0.261196,0.1664 -0.2457,0.188532 -0.228333,0.209229 -0.209229,0.228333 -0.188532,0.2457 -0.1664,0.261196 -0.143002,0.274705 -0.118516,0.286123 -0.0931279,0.295364 -0.0670308,0.302357 -0.0404237,0.307048 -0.0135088,0.309403 z "/>
<path fill="rgb(187,30,16)" stroke="rgb(187,30,16)" d="M 0.2,3.75 l 0.0135088,0.309403 0.0404237,0.307048 0.0670308,0.302357 0.0931279,0.295364 0.118516,0.286123 0.143002,0.274705 0.1664,0.261196 0.188532,0.2457 0.209229,0.228333 0.228333,0.209229 0.2457,0.188532 0.261196,0.1664 0.274705,0.143002 0.286123,0.118516 0.295364,0.0931279 0.302357,0.0670308 0.307048,0.0404237 0.309403,0.0135088 0.309403,-0.0135088 0.307048,-0.0404237 0.302357,-0.0670308 0.295364,-0.0931279 0.286123,-0.118516 0.274705,-0.143002 0.261196,-0.1664 0.2457,-0.188532 0.228333,-0.209229 0.209229,-0.228333 0.188532,-0.2457 0.1664,-0.261196 0.143002,-0.274705 0.118516,-0.286123 0.0931279,-0.295364 0.0670308,-0.302357 0.0404237,-0.307048 0.0135088,-0.309403 0.2,0 -0.0142699,0.326834 -0.042701,0.324347 -0.0708072,0.319391 -0.0983745,0.312004 -0.125193,0.302243 -0.151059,0.290182 -0.175775,0.275912 -0.199154,0.259542 -0.221016,0.241197 -0.241197,0.221016 -0.259542,0.199154 -0.275912,0.175775 -0.290182,0.151059 -0.302243,0.125193 -0.312004,0.0983745 -0.319391,0.0708072 -0.324347,0.042701 -0.326834,0.0142699 -0.326834,-0.0142699 -0.324347,-0.042701 -0.319391,-0.0708072 -0.312004,-0.0983745 -0.302243,-0.125193 -0.290182,-0.151059 -0.275912,-0.175775 -0.259542,-0.199154 -0.241197,-0.221016 -0.221016,-0.241197 -0.199154,-0.259542 -0.175775,-0.275912 -0.151059,-0.290182 -0.125193,-0.302243 -0.0983745,-0.312004 -0.0708072,-0.319391 -0.042701,-0.324347 -0.0142699,-0.326834 0.2,0 z "/>
<path fill="rgb(187,30,16)" stroke="rgb(187,30,16)" d="M 6.4,3.75 l -0.0100841,-0.230963 -0.0301754,-0.229205 -0.0500371,-0.225703 -0.069518,-0.220483 -0.0884698,-0.213585 -0.106748,-0.205062 -0.124214,-0.194978 -0.140735,-0.18341 -0.156185,-0.170446 -0.170446,-0.156185 -0.18341,-0.140735 -0.194978,-0.124214 -0.205062,-0.106748 -0.213585,-0.0884698 -0.220483,-0.069518 -0.225703,-0.0500371 -0.229205,-0.0301754 -0.230963,-0.0100841 -0.230963,0.0100841 -0.229205,0.0301754 -0.225703,0.0500371 -0.220483,0.069518 -0.213585,0.0884698 -0.205062,0.106748 -0.194978,0.124214 -0.18341,0.140735 -0.170446,0.156185 -0.156185,0.170446 -0.140735,0.18341 -0.124214,0.194978 -0.106748,0.205062 -0.0884698,0.213585 -0.069518,0.220483 -0.0500371,0.225703 -0.0301754,0.229205 -0.0100841,0.230963 -0.7,0 0.0127478,-0.291972 0.0381463,-0.28975 0.0632545,-0.285322 0.0878812,-0.278724 0.111839,-0.270004 0.134946,-0.259229 0.157026,-0.246481 0.17791,-0.231857 0.197441,-0.215469 0.215469,-0.197441 0.231857,-0.17791 0.246481,-0.157026 0.259229,-0.134946 0.270004,-0.111839 0.278724,-0.0878812 0.285322,-0.0632545 0.28975,-0.0381463 0.291972,-0.0127478 0.291972,0.0127478 0.28975,0.0381463 0.285322,0.0632545 0.278724,0.0878812 0.270004,0.111839 0.259229,0.134946 0.246481,0.157026 0.231857,0.17791 0.215469,0.197441 0.197441,0.215469 0.17791,0.231857 0.157026,0.246481 0.134946,0.259229 0.111839,0.270004 0.0878812,0.278724 0.0632545,0.285322 0.0381463,0.28975 0.0127478,0.291972 -0.7,0 z "/>
<path fill="rgb(187,30,16)" stroke="rgb(187,30,16)" d="M 6.4,3.75 l 0.7,0 -0.0127478,0.291972 -0.0381463,0.28975 -0.0632545,0.285322 -0.0878812,0.278724 -0.111839,0.270004 -0.134946,0.259229 -0.157026,0.246481 -0.17791,0.231857 -0.197441,0.215469 -0.215469,0.197441 -0.231857,0.17791 -0.246481,0.157026 -0.259229,0.134946 -0.270004,0.111839 -0.278724,0.0878812 -0.285322,0.0632545 -0.28975,0.0381463 -0.291972,0.0127478 -0.291972,-0.0127478 -0.28975,-0.0381463 -0.285322,-0.0632545 -0.278724,-0.0878812 -0.270004,-0.111839 -0.259229,-0.134946 -0.246481,-0.157026 -0.231857,-0.17791 -0.215469,-0.197441 -0.197441,-0.215469 -0.17791,-0.231857 -0.157026,-0.246481 -0.134946,-0.259229 -0.111839,-0.270004 -0.0878812,-0.278724 -0.0632545,-0.285322 -0.0381463,-0.28975 -0.0127478,-0.291972 0.7,0 0.0100841,0.230963 0.0301754,0.229205 0.0500371,0.225703 0.069518,0.220483 0.0884698,0.213585 0.106748,0.205062 0.124214,0.194978 0.140735,0.18341 0.156185,0.170446 0.170446,0.156185 0.18341,0.140735 0.194978,0.124214 0.205062,0.106748 0.213585,0.0884698 0.220483,0.069518 0.225703,0.0500371 0.229205,0.0301754 0.230963,0.0100841 0.230963,-0.0100841 0.229205,-0.0301754 0.225703,-0.0500371 0.220483,-0.069518 0.213585,-0.0884698 0.205062,-0.106748 0.194978,-0.124214 0.18341,-0.140735 0.170446,-0.156185 0.156185,-0.170446 0.140735,-0.18341 0.124214,-0.194978 0.106748,-0.205062 0.0884698,-0.213585 0.069518,-0.220483 0.0500371,-0.225703 0.0301754,-0.229205 0.0100841,-0.230963 z "/>
</g></g></svg>
