<?xml version="1.0" encoding="UTF-8" standalone="no"?>
<!DOCTYPE svg PUBLIC "-//W3C//DTD SVG 1.1//EN" "http://www.w3.org/Graphics/SVG/1.1/DTD/svg11-flat.dtd"
[

]>
<svg xmlns="http://www.w3.org/2000/svg"  viewBox="-0.112544 -0.112544 9.22863 12.226"><g fill="none" stroke="black" stroke-width="0.0125" transform="translate(0,12.0009) scale(1, -1)">
<g id="Output" >
<path fill="rgb(241,240,234)" stroke="rgb(241,240,234)" d="M 4.50177,6.02426 l 1.97016,3.94033 -1.97016,0 -1.97016,0 1.97016,-3.94033 z "/>
<path fill="rgb(241,240,234)" stroke="rgb(241,240,234)" d="M 4.50177,10.8646 l -3.26459,0 -0.00883388,-0.000390951 -0.00876481,-0.0011698 -0.0086272,-0.0019395 -0.00842214,-0.00269403 -0.00815123,-0.0034275 -0.00781658,-0.00413417 -0.00742081,-0.00480851 -0.00696702,-0.00544526 -0.00645876,-0.00603943 -0.00589999,-0.00658638 -0.00529509,-0.00708183 -0.00464879,-0.0075219 -0.00396614,-0.00790316 -0.00325248,-0.00822263 -0.00251339,-0.0084778 -0.00175464,-0.00866669 -0.000982177,-0.00878781 -0.000202033,-0.00884022 0.000579691,-0.0088235 0.00135688,-0.0087378 0.00212346,-0.00858377 0.00287344,-0.00836263 0.00360095,-0.0080761 3.26459,-6.52918 0.00412828,-0.00744612 0.0047467,-0.00706797 0.00533072,-0.00663859 0.00587609,-0.00616109 0.00637887,-0.00563892 0.00683541,-0.00507588 0.0072424,-0.00447605 0.0075969,-0.00384377 0.00789632,-0.00318363 0.00813851,-0.00250041 0.00832171,-0.00179907 0.00844458,-0.00108468 0.00850624,-0.000362437 0,0.323607 -3.10279,6.20557 3.10279,0 0,0.2 z "/>
<path fill="rgb(241,240,234)" stroke="rgb(241,240,234)" d="M 4.50177,10.8646 l 0,-0.2 3.10279,0 -3.10279,-6.20557 0,-0.323607 0.00850624,0.000362437 0.00844458,0.00108468 0.00832171,0.00179907 0.00813851,0.00250041 0.00789632,0.00318363 0.0075969,0.00384377 0.0072424,0.00447605 0.00683541,0.00507588 0.00637887,0.00563892 0.00587609,0.00616109 0.00533072,0.00663859 0.0047467,0.00706797 0.00412828,0.00744612 3.26459,6.52918 0.00360095,0.0080761 0.00287344,0.00836263 0.00212346,0.00858377 0.00135688,0.0087378 0.000579691,0.0088235 -0.000202033,0.00884022 -0.000982177,0.00878781 -0.00175464,0.00866669 -0.00251339,0.0084778 -0.00325248,0.00822263 -0.00396614,0.00790316 -0.00464879,0.0075219 -0.00529509,0.00708183 -0.00589999,0.00658638 -0.00645876,0.00603943 -0.00696702,0.00544526 -0.00742081,0.00480851 -0.00781658,0.00413417 -0.00815123,0.0034275 -0.00842214,0.00269403 -0.0086272,0.0019395 -0.00876481,0.0011698 -0.00883388,0.000390951 -3.26459,0 z "/>
<path fill="rgb(200,225,100)" stroke="rgb(200,225,100)" d="M 0.1,3.1 l 1,0 0,1 -1,0 0,-1 z "/>
<path fill="rgb(200,225,100)" stroke="rgb(200,225,100)" d="M 8.1,7.1 l 0.803538,0 0,0.4 -0.803538,0 0,-0.4 z "/>
<path fill="rgb(200,225,100)" stroke="rgb(200,225,100)" d="M 8.90354,6.1 l 0,1 -0.803538,0 0,-1 0.803538,0 z "/>
<path fill="rgb(200,225,100)" stroke="rgb(200,225,100)" d="M 8.90354,5.1 l 0,1 -0.803538,0 0,-1 0.803538,0 z "/>
<path fill="rgb(200,225,100)" stroke="rgb(200,225,100)" d="M 8.90354,4.1 l 0,1 -0.803538,0 0,-1 0.803538,0 z "/>
<path fill="rgb(200,225,100)" stroke="rgb(200,225,100)" d="M 8.90354,3.1 l 0,1 -0.803538,0 0,-1 0.803538,0 z "/>
<path fill="rgb(200,225,100)" stroke="rgb(200,225,100)" d="M 8.90354,2.1 l 0,1 -0.803538,0 0,-1 0.803538,0 z "/>
<path fill="rgb(200,225,100)" stroke="rgb(200,225,100)" d="M 8.90354,1.1 l 0,1 -0.803538,0 0,-1 0.803538,0 z "/>
<path fill="rgb(200,225,100)" stroke="rgb(200,225,100)" d="M 8.75354,0.1 l 0.0130734,0.000570795 0.0129739,0.00170804 0.0127756,0.00283229 0.0124802,0.00393498 0.0120897,0.00500773 0.0116073,0.00604236 0.0110365,0.007031 0.0103817,0.00796614 0.00964788,0.00884065 0.00884065,0.00964788 0.00796614,0.0103817 0.007031,0.0110365 0.00604236,0.0116073 0.00500773,0.0120897 0.00393498,0.0124802 0.00283229,0.0127756 0.00170804,0.0129739 0.000570795,0.0130734 0,0.85 -0.803538,0 0,-1 0.653538,0 z "/>
<path fill="rgb(200,225,100)" stroke="rgb(200,225,100)" d="M 7.1,7.5 l 0,-0.4 1,0 0,0.4 -1,0 z "/>
<path fill="rgb(200,225,100)" stroke="rgb(200,225,100)" d="M 7.1,6.1 l 1,0 0,1 -1,0 0,-1 z "/>
<path fill="rgb(200,225,100)" stroke="rgb(200,225,100)" d="M 7.1,5.1 l 1,0 0,1 -1,0 0,-1 z "/>
<path fill="rgb(200,225,100)" stroke="rgb(200,225,100)" d="M 7.1,4.1 l 1,0 0,1 -1,0 0,-1 z "/>
<path fill="rgb(200,225,100)" stroke="rgb(200,225,100)" d="M 7.1,3.19562 l 0.0244482,-0.0318615 0.0340283,-0.0534138 0.00538514,-0.0103448 0.936138,0 0,1 -1,0 0,-0.90438 z "/>
<path fill="rgb(200,225,100)" stroke="rgb(200,225,100)" d="M 7.25574,2.1 l 0.844263,0 0,1 -0.936138,0 0.0238584,-0.0458315 0.0242362,-0.0585112 0.0190443,-0.0604009 0.0137076,-0.0618309 0.0082665,-0.0627903 0.00276251,-0.0632718 0,-0.647363 z "/>
<path fill="rgb(200,225,100)" stroke="rgb(200,225,100)" d="M 7.1,1.25103 l 0,-0.151032 1,0 0,1 -0.844263,0 0,-0.400711 -0.00276251,-0.0632718 -0.0082665,-0.0627903 -0.0137076,-0.0618309 -0.0190443,-0.0604009 -0.0242362,-0.0585112 -0.0292435,-0.0561763 -0.0340283,-0.0534138 -0.0244482,-0.0318615 z "/>
<path fill="rgb(200,225,100)" stroke="rgb(200,225,100)" d="M 7.1,0.1 l 1,0 0,1 -1,0 0,-1 z "/>
<path fill="rgb(200,225,100)" stroke="rgb(200,225,100)" d="M 6.26947,7.1 l 0.830526,0 0,0.4 -0.630526,0 -0.2,-0.4 z "/>
<path fill="rgb(200,225,100)" stroke="rgb(200,225,100)" d="M 6.1,6.76105 l 0,-0.661052 1,0 0,1 -0.830526,0 -0.169474,-0.338948 z "/>
<path fill="rgb(200,225,100)" stroke="rgb(200,225,100)" d="M 6.1,5.1 l 1,0 0,1 -1,0 0,-1 z "/>
<path fill="rgb(200,225,100)" stroke="rgb(200,225,100)" d="M 6.1,4.1 l 1,0 0,1 -1,0 0,-1 z "/>
<path fill="rgb(200,225,100)" stroke="rgb(200,225,100)" d="M 2.1,3.36667 l 0.0147504,0.00939707 0.0561763,0.0292435 0.0585112,0.0242362 0.0604009,0.0190443 0.0618309,0.0137076 0.0627903,0.0082665 0.0632718,0.00276251 0.00396815,0 0.6183,0 0,0.626674 -1,0 0,-0.733331 z "/>
<path fill="rgb(200,225,100)" stroke="rgb(200,225,100)" d="M 3.1,0.1 l 0,0.873326 -0.6183,0 -0.00396815,0 -0.0632718,0.00276251 -0.0627903,0.0082665 -0.0618309,0.0137076 -0.0604009,0.0190443 -0.0585112,0.0242362 -0.0561763,0.0292435 -0.0147504,0.00939707 0,-0.979984 1,0 z "/>
<path fill="rgb(200,225,100)" stroke="rgb(200,225,100)" d="M 1.1,7.5 l 0,-0.4 1,0 0,0.4 -1,0 z "/>
<path fill="rgb(200,225,100)" stroke="rgb(200,225,100)" d="M 1.1,6.1 l 1,0 0,1 -1,0 0,-1 z "/>
<path fill="rgb(200,225,100)" stroke="rgb(200,225,100)" d="M 1.1,5.1 l 1,0 0,1 -1,0 0,-1 z "/>
<path fill="rgb(200,225,100)" stroke="rgb(200,225,100)" d="M 6.1,3.47333 l 0.425806,0 2.53699e-08,0 0.00396812,-8.88178e-16 0.0632718,-0.00276251 0.0627903,-0.0082665 0.0618309,-0.0137076 0.0604009,-0.0190443 0.0585112,-0.0242362 0.0561763,-0.0292435 0.0534138,-0.0340283 0.0502447,-0.0385542 0.0466933,-0.0427866 0.0427866,-0.0466933 0.014106,-0.0183832 0,0.90438 -1,0 0,-0.626674 z "/>
<path fill="rgb(200,225,100)" stroke="rgb(200,225,100)" d="M 1.1,4.1 l 1,0 0,1 -1,0 0,-1 z "/>
<path fill="rgb(200,225,100)" stroke="rgb(200,225,100)" d="M 6.93893,1.1 l 0.161075,0 0,0.151032 -0.014106,-0.0183832 -0.0427866,-0.0466933 -0.0466933,-0.0427866 -0.0502447,-0.0385542 -0.00724436,-0.00461516 z "/>
<path fill="rgb(200,225,100)" stroke="rgb(200,225,100)" d="M 7.1,0.1 l 0,1 -0.161075,0 -0.0461694,-0.0294132 -0.0561763,-0.0292435 -0.0585112,-0.0242362 -0.0604009,-0.0190443 -0.0618309,-0.0137076 -0.0627903,-0.0082665 -0.0632718,-0.00276251 -0.00396811,8.88178e-16 -3.15386e-08,0 -0.425806,0 0,-0.873326 1,0 z "/>
<path fill="rgb(200,225,100)" stroke="rgb(200,225,100)" d="M 5.76947,6.1 l 0.330526,0 0,0.661052 -0.330526,-0.661052 z "/>
<path fill="rgb(200,225,100)" stroke="rgb(200,225,100)" d="M 5.26947,5.1 l 0.830526,0 0,1 -0.330526,0 -0.5,-1 z "/>
<path fill="rgb(200,225,100)" stroke="rgb(200,225,100)" d="M 5.1,4.76105 l 0,-0.661052 1,0 0,1 -0.830526,0 -0.169474,-0.338948 z "/>
<path fill="rgb(200,225,100)" stroke="rgb(200,225,100)" d="M 5.1,3.47333 l 1,8.88178e-16 0,0.626674 -1,0 0,-0.626674 z "/>
<path fill="rgb(200,225,100)" stroke="rgb(200,225,100)" d="M 6.1,0.1 l 0,0.873326 -1,-8.88178e-16 0,-0.873326 1,0 z "/>
<path fill="rgb(200,225,100)" stroke="rgb(200,225,100)" d="M 4.23413,4.1 l -0.000690873,0.00124612 -0.133441,0.266882 0,-0.268128 0.134132,0 z M 4.76941,4.1 l 0.330594,0 0,0.661052 -0.329903,-0.659806 -0.000690873,-0.00124612 z "/>
<path fill="rgb(200,225,100)" stroke="rgb(200,225,100)" d="M 4.23413,4.1 l -0.134132,0 0,-0.626674 1,0 0,0.626674 -0.330594,0 -0.011694,-0.0210923 -0.0142401,-0.0212039 -0.0159921,-0.0199158 -0.0176283,-0.0184833 -0.0191366,-0.0169168 -0.0205062,-0.0152277 -0.0217272,-0.0134282 -0.0227907,-0.0115313 -0.023689,-0.00955089 -0.0244155,-0.00750124 -0.0249651,-0.00539721 -0.0253337,-0.00325405 -0.0255187,-0.00108731 -0.0255187,0.00108731 -0.0253337,0.00325405 -0.0249651,0.00539721 -0.0244155,0.00750124 -0.023689,0.00955089 -0.0227907,0.0115313 -0.0217272,0.0134282 -0.0205062,0.0152277 -0.0191366,0.0169168 -0.0176283,0.0184833 -0.0159921,0.0199158 -0.0142401,0.0212039 -0.011694,0.0210923 z "/>
<path fill="rgb(200,225,100)" stroke="rgb(200,225,100)" d="M 5.1,0.1 l 0,0.873326 -1,0 0,-0.873326 1,0 z "/>
<path fill="rgb(200,225,100)" stroke="rgb(200,225,100)" d="M 3.1,6.1 l 0.134064,0 -0.134064,0.268128 0,-0.268128 z "/>
<path fill="rgb(200,225,100)" stroke="rgb(200,225,100)" d="M 3.73406,5.1 l -0.5,1 -0.134064,0 0,-1 0.634064,0 z "/>
<path fill="rgb(200,225,100)" stroke="rgb(200,225,100)" d="M 3.73406,5.1 l -0.634064,0 0,-1 1,0 0,0.268128 -0.365936,0.731872 z "/>
<path fill="rgb(200,225,100)" stroke="rgb(200,225,100)" d="M 3.1,3.47333 l 1,0 0,0.626674 -1,0 0,-0.626674 z "/>
<path fill="rgb(200,225,100)" stroke="rgb(200,225,100)" d="M 4.1,0.1 l 0,0.873326 -1,0 0,-0.873326 1,0 z "/>
<path fill="rgb(200,225,100)" stroke="rgb(200,225,100)" d="M 2.73406,7.1 l -0.2,0.4 -0.434064,0 0,-0.4 0.634064,0 z "/>
<path fill="rgb(200,225,100)" stroke="rgb(200,225,100)" d="M 2.73406,7.1 l -0.634064,0 0,-1 1,0 0,0.268128 -0.365936,0.731872 z "/>
<path fill="rgb(200,225,100)" stroke="rgb(200,225,100)" d="M 2.1,5.1 l 1,0 0,1 -1,0 0,-1 z "/>
<path fill="rgb(200,225,100)" stroke="rgb(200,225,100)" d="M 1.84364,3.1 l 0.00538514,0.0103448 0.0340283,0.0534138 0.0385542,0.0502447 0.0427866,0.0466933 0.0466933,0.0427866 0.0502447,0.0385542 0.0386633,0.0246313 0,0.733331 -1,0 0,-1 0.743644,0 z "/>
<path fill="rgb(200,225,100)" stroke="rgb(200,225,100)" d="M 1.75177,2.1 l -4.44089e-16,0.647363 0.00276251,0.0632718 0.0082665,0.0627903 0.0137076,0.0618309 0.0190443,0.0604009 0.0242362,0.0585112 0.0238584,0.0458315 -0.743644,0 0,-1 0.651769,0 z "/>
<path fill="rgb(200,225,100)" stroke="rgb(200,225,100)" d="M 2.06858,1.1 l -0.00724436,0.00461516 -0.0502447,0.0385542 -0.0466933,0.0427866 -0.0427866,0.0466933 -0.0385542,0.0502447 -0.0340283,0.0534138 -0.0292435,0.0561763 -0.0242362,0.0585112 -0.0190443,0.0604009 -0.0137076,0.0618309 -0.0082665,0.0627903 -0.00276251,0.0632718 -4.44089e-16,0.400711 -0.651769,0 0,-1 0.968581,0 z "/>
<path fill="rgb(200,225,100)" stroke="rgb(200,225,100)" d="M 2.06858,1.1 l -0.968581,0 0,-1 1,0 0,0.979984 -0.031419,0.0200161 z "/>
<path fill="rgb(200,225,100)" stroke="rgb(200,225,100)" d="M 0.1,7.1 l 1,0 0,0.4 -1,0 0,-0.4 z "/>
<path fill="rgb(200,225,100)" stroke="rgb(200,225,100)" d="M 0.1,6.1 l 1,0 0,1 -1,0 0,-1 z "/>
<path fill="rgb(200,225,100)" stroke="rgb(200,225,100)" d="M 0.1,5.1 l 1,0 0,1 -1,0 0,-1 z "/>
<path fill="rgb(200,225,100)" stroke="rgb(200,225,100)" d="M 0.1,4.1 l 1,0 0,1 -1,0 0,-1 z "/>
<path fill="rgb(200,225,100)" stroke="rgb(200,225,100)" d="M 0.1,2.1 l 1,0 0,1 -1,0 0,-1 z "/>
<path fill="rgb(200,225,100)" stroke="rgb(200,225,100)" d="M 0.1,1.1 l 1,0 0,1 -1,0 0,-1 z "/>
<path fill="rgb(200,225,100)" stroke="rgb(200,225,100)" d="M 1.1,0.1 l 0,1 -1,0 0,-0.85 0.000570795,-0.0130734 0.00170804,-0.0129739 0.00283229,-0.0127756 0.00393498,-0.0124802 0.00500773,-0.0120897 0.00604236,-0.0116073 0.007031,-0.0110365 0.00796614,-0.0103817 0.00884065,-0.00964788 0.00964788,-0.00884065 0.0103817,-0.00796614 0.0110365,-0.007031 0.0116073,-0.00604236 0.0120897,-0.00500773 0.0124802,-0.00393498 0.0127756,-0.00283229 0.0129739,-0.00170804 0.0130734,-0.000570795 0.85,0 z "/>
<path fill="rgb(200,225,100)" stroke="rgb(200,225,100)" d="M 2.1,4.1 l 1,0 0,1 -1,0 0,-1 z "/>
<path fill="rgb(200,225,100)" stroke="rgb(200,225,100)" d="M 0.968851,10.6304 l -0.0108029,0.0242283 -0.00862033,0.0250879 -0.00637039,0.0257513 -0.00407065,0.0262134 -0.00173907,0.0264705 0.000606098,0.0265207 0.00294653,0.0263634 0.00526392,0.0260001 0.00754016,0.0254334 0.00975744,0.0246679 0.0118984,0.0237095 0.0139464,0.0225657 0.0158853,0.0212455 0.0177,0.0197591 0.0193763,0.0181183 0.0209011,0.0163358 0.0222624,0.0144255 0.0234497,0.0124025 0.0244537,0.0102825 0.0252664,0.00808209 0.0258816,0.00581849 0.0262944,0.00350939 0.0265016,0.00117285 1.85185e-12,0 3.26459,0 3.26459,0 3.28626e-14,0 0.0265016,-0.00117285 0.0262944,-0.00350939 0.0258816,-0.00581849 0.0252664,-0.00808209 0.0244537,-0.0102825 0.0234497,-0.0124025 0.0222624,-0.0144255 0.0209011,-0.0163358 0.0193763,-0.0181183 0.0177,-0.0197591 0.0158853,-0.0212455 0.0139464,-0.0225657 0.0118984,-0.0237095 0.00975744,-0.0246679 0.00754016,-0.0254334 0.00526392,-0.0260001 0.00294653,-0.0263634 0.000606098,-0.0265207 -0.00173907,-0.0264705 -0.00407065,-0.0262134 -0.00637039,-0.0257513 -0.00862033,-0.0250879 -0.0108029,-0.0242283 -1.42109e-14,-2.84217e-14 -1.56521,-3.13043 2.43406,0 0,4.25089 -0.000570795,0.0130734 -0.00170804,0.0129739 -0.00283229,0.0127756 -0.00393498,0.0124802 -0.00500773,0.0120897 -0.00604236,0.0116073 -0.007031,0.0110365 -0.00796614,0.0103817 -0.00884065,0.00964788 -0.00964788,0.00884065 -0.0103817,0.00796614 -0.0110365,0.007031 -0.0116073,0.00604236 -0.0120897,0.00500773 -0.0124802,0.00393498 -0.0127756,0.00283229 -0.0129739,0.00170804 -0.0130734,0.000570795 -8.50354,0 -0.0130734,-0.000570795 -0.0129739,-0.00170804 -0.0127756,-0.00283229 -0.0124802,-0.00393498 -0.0120897,-0.00500773 -0.0116073,-0.00604236 -0.0110365,-0.007031 -0.0103817,-0.00796614 -0.00964788,-0.00884065 -0.00884065,-0.00964788 -0.00796614,-0.0103817 -0.007031,-0.0110365 -0.00604236,-0.0116073 -0.00500773,-0.0120897 -0.00393498,-0.0124802 -0.00283229,-0.0127756 -0.00170804,-0.0129739 -0.000570795,-0.0130734 0,-4.25089 2.43406,0 -1.56521,3.13043 -8.27782e-13,1.65556e-12 z "/>
<path fill="rgb(241,240,234)" stroke="rgb(241,240,234)" d="M 2.4817,3.47333 l -0.0632718,-0.00276251 -0.0627903,-0.0082665 -0.0618309,-0.0137076 -0.0604009,-0.0190443 -0.0585112,-0.0242362 -0.0561763,-0.0292435 -0.0534138,-0.0340283 -0.0502447,-0.0385542 -0.0466933,-0.0427866 -0.0427866,-0.0466933 -0.0385542,-0.0502447 -0.0340283,-0.0534138 -0.0292435,-0.0561763 -0.0242362,-0.0585112 -0.0190443,-0.0604009 -0.0137076,-0.0618309 -0.0082665,-0.0627903 -0.00276251,-0.0632718 0,-1.04807 0.00276251,-0.0632718 0.0082665,-0.0627903 0.0137076,-0.0618309 0.0190443,-0.0604009 0.0242362,-0.0585112 0.0292435,-0.0561763 0.0340283,-0.0534138 0.0385542,-0.0502447 0.0427866,-0.0466933 0.0466933,-0.0427866 0.0502447,-0.0385542 0.0534138,-0.0340283 0.0561763,-0.0292435 0.0585112,-0.0242362 0.0604009,-0.0190443 0.0618309,-0.0137076 0.0627903,-0.0082665 0.0632718,-0.00276251 4.04411,8.88178e-16 3.15386e-08,0 0.0632718,0.00276251 0.0627903,0.0082665 0.0618309,0.0137076 0.0604009,0.0190443 0.0585112,0.0242362 0.0561763,0.0292435 0.0534138,0.0340283 0.0502447,0.0385542 0.0466933,0.0427866 0.0427866,0.0466933 0.0385541,0.0502447 0.0340283,0.0534138 0.0292435,0.0561763 0.0242362,0.0585112 0.0190443,0.0604009 0.0137076,0.0618309 0.0082665,0.0627903 0.00276251,0.0632718 0,1.04807 -0.00276251,0.0632718 -0.0082665,0.0627903 -0.0137076,0.0618309 -0.0190443,0.0604009 -0.0242362,0.0585112 -0.0292435,0.0561763 -0.0340283,0.0534138 -0.0385541,0.0502447 -0.0427866,0.0466933 -0.0466933,0.0427866 -0.0502447,0.0385542 -0.0534138,0.0340283 -0.0561763,0.0292435 -0.0585112,0.0242362 -0.0604009,0.0190443 -0.0618309,0.0137076 -0.0627903,0.0082665 -0.0632718,0.00276251 -2.53699e-08,0 -4.04411,-8.88178e-16 z "/>
<path fill="rgb(241,240,234)" stroke="rgb(241,240,234)" d="M 2.4817,3.47333 l -0.00396815,0 -0.0632718,-0.00276251 -0.0627903,-0.0082665 -0.0618309,-0.0137076 -0.0604009,-0.0190443 -0.0585112,-0.0242362 -0.0561763,-0.0292435 -0.0534138,-0.0340283 -0.0502447,-0.0385542 -0.0466933,-0.0427866 -0.0427866,-0.0466933 -0.0385542,-0.0502447 -0.0340283,-0.0534138 -0.0292435,-0.0561763 -0.0242362,-0.0585112 -0.0190443,-0.0604009 -0.0137076,-0.0618309 -0.0082665,-0.0627903 -0.00276251,-0.0632718 8.88178e-16,-1.04807 0.00276251,-0.0632718 0.0082665,-0.0627903 0.0137076,-0.0618309 0.0190443,-0.0604009 0.0242362,-0.0585112 0.0292435,-0.0561763 0.0340283,-0.0534138 0.0385542,-0.0502447 0.0427866,-0.0466933 0.0466933,-0.0427866 0.0502447,-0.0385542 0.0534138,-0.0340283 0.0561763,-0.0292435 0.0585112,-0.0242362 0.0604009,-0.0190443 0.0618309,-0.0137076 0.0627903,-0.0082665 0.0632718,-0.00276251 0.00396815,0 -0.0632718,0.00276251 -0.0627903,0.0082665 -0.0618309,0.0137076 -0.0604009,0.0190443 -0.0585112,0.0242362 -0.0561763,0.0292435 -0.0534138,0.0340283 -0.0502447,0.0385542 -0.0466933,0.0427866 -0.0427866,0.0466933 -0.0385542,0.0502447 -0.0340283,0.0534138 -0.0292435,0.0561763 -0.0242362,0.0585112 -0.0190443,0.0604009 -0.0137076,0.0618309 -0.0082665,0.0627903 -0.00276251,0.0632718 0,1.04807 0.00276251,0.0632718 0.0082665,0.0627903 0.0137076,0.0618309 0.0190443,0.0604009 0.0242362,0.0585112 0.0292435,0.0561763 0.0340283,0.0534138 0.0385542,0.0502447 0.0427866,0.0466933 0.0466933,0.0427866 0.0502447,0.0385542 0.0534138,0.0340283 0.0561763,0.0292435 0.0585112,0.0242362 0.0604009,0.0190443 0.0618309,0.0137076 0.0627903,0.0082665 0.0632718,0.00276251 z "/>
<path fill="rgb(42,41,42)" stroke="rgb(42,41,42)" d="M 8.90354,7.5 l 0.1,0 0,-7.25 -0.000951325,-0.0217889 -0.00284674,-0.0216231 -0.00472048,-0.0212927 -0.0065583,-0.0208003 -0.00834621,-0.0201495 -0.0100706,-0.0193454 -0.0117183,-0.0183941 -0.0132769,-0.0173028 -0.0147344,-0.0160798 -0.0160798,-0.0147344 -0.0173028,-0.0132769 -0.0183941,-0.0117183 -0.0193454,-0.0100706 -0.0201495,-0.00834621 -0.0208003,-0.0065583 -0.0212927,-0.00472048 -0.0216231,-0.00284674 -0.0217889,-0.000951325 -8.50354,0 -0.0217889,0.000951325 -0.0216231,0.00284674 -0.0212927,0.00472048 -0.0208003,0.0065583 -0.0201495,0.00834621 -0.0193454,0.0100706 -0.0183941,0.0117183 -0.0173028,0.0132769 -0.0160798,0.0147344 -0.0147344,0.0160798 -0.0132769,0.0173028 -0.0117183,0.0183941 -0.0100706,0.0193454 -0.00834621,0.0201495 -0.0065583,0.0208003 -0.00472048,0.0212927 -0.00284674,0.0216231 -0.000951325,0.0217889 0,7.25 0.1,0 0,-7.25 0.000570795,-0.0130734 0.00170804,-0.0129739 0.00283229,-0.0127756 0.00393498,-0.0124802 0.00500773,-0.0120897 0.00604236,-0.0116073 0.007031,-0.0110365 0.00796614,-0.0103817 0.00884065,-0.00964788 0.00964788,-0.00884065 0.0103817,-0.00796614 0.0110365,-0.007031 0.0116073,-0.00604236 0.0120897,-0.00500773 0.0124802,-0.00393498 0.0127756,-0.00283229 0.0129739,-0.00170804 0.0130734,-0.000570795 8.50354,0 0.0130734,0.000570795 0.0129739,0.00170804 0.0127756,0.00283229 0.0124802,0.00393498 0.0120897,0.00500773 0.0116073,0.00604236 0.0110365,0.007031 0.0103817,0.00796614 0.00964788,0.00884065 0.00884065,0.00964788 0.00796614,0.0103817 0.007031,0.0110365 0.00604236,0.0116073 0.00500773,0.0120897 0.00393498,0.0124802 0.00283229,0.0127756 0.00170804,0.0129739 0.000570795,0.0130734 0,7.25 z "/>
<path fill="rgb(42,41,42)" stroke="rgb(42,41,42)" d="M 8.90354,7.5 l 0.1,0 0,4.25089 -0.000951325,0.0217889 -0.00284674,0.0216231 -0.00472048,0.0212927 -0.0065583,0.0208003 -0.00834621,0.0201495 -0.0100706,0.0193454 -0.0117183,0.0183941 -0.0132769,0.0173028 -0.0147344,0.0160798 -0.0160798,0.0147344 -0.0173028,0.0132769 -0.0183941,0.0117183 -0.0193454,0.0100706 -0.0201495,0.00834621 -0.0208003,0.0065583 -0.0212927,0.00472048 -0.0216231,0.00284674 -0.0217889,0.000951325 -8.50354,0 -0.0217889,-0.000951325 -0.0216231,-0.00284674 -0.0212927,-0.00472048 -0.0208003,-0.0065583 -0.0201495,-0.00834621 -0.0193454,-0.0100706 -0.0183941,-0.0117183 -0.0173028,-0.0132769 -0.0160798,-0.0147344 -0.0147344,-0.0160798 -0.0132769,-0.0173028 -0.0117183,-0.0183941 -0.0100706,-0.0193454 -0.00834621,-0.0201495 -0.0065583,-0.0208003 -0.00472048,-0.0212927 -0.00284674,-0.0216231 -0.000951325,-0.0217889 0,-4.25089 0.1,0 0,4.25089 0.000570795,0.0130734 0.00170804,0.0129739 0.00283229,0.0127756 0.00393498,0.0124802 0.00500773,0.0120897 0.00604236,0.0116073 0.007031,0.0110365 0.00796614,0.0103817 0.00884065,0.00964788 0.00964788,0.00884065 0.0103817,0.00796614 0.0110365,0.007031 0.0116073,0.00604236 0.0120897,0.00500773 0.0124802,0.00393498 0.0127756,0.00283229 0.0129739,0.00170804 0.0130734,0.000570795 8.50354,0 0.0130734,-0.000570795 0.0129739,-0.00170804 0.0127756,-0.00283229 0.0124802,-0.00393498 0.0120897,-0.00500773 0.0116073,-0.00604236 0.0110365,-0.007031 0.0103817,-0.00796614 0.00964788,-0.00884065 0.00884065,-0.00964788 0.00796614,-0.0103817 0.007031,-0.0110365 0.00604236,-0.0116073 0.00500773,-0.0120897 0.00393498,-0.0124802 0.00283229,-0.0127756 0.00170804,-0.0129739 0.000570795,-0.0130734 0,-4.25089 z "/>
<path fill="rgb(187,30,16)" stroke="rgb(187,30,16)" d="M 4.50177,4.45902 l 0,1.56525 -1.97016,3.94033 1.97016,0 0,0.7 -3.10279,0 3.10279,-6.20557 z "/>
<path fill="rgb(187,30,16)" stroke="rgb(187,30,16)" d="M 0.968851,10.6304 l 1.56521,-3.13043 1.69938,-3.39875 0.0123848,-0.0223384 0.0142401,-0.0212039 0.0159921,-0.0199158 0.0176283,-0.0184833 0.0191366,-0.0169168 0.0205062,-0.0152277 0.0217272,-0.0134282 0.0227907,-0.0115313 0.023689,-0.00955089 0.0244155,-0.00750124 0.0249651,-0.00539721 0.0253337,-0.00325405 0.0255187,-0.00108731 0,0.2 -0.00850624,0.000362437 -0.00844458,0.00108468 -0.00832171,0.00179907 -0.00813851,0.00250041 -0.00789632,0.00318363 -0.0075969,0.00384377 -0.0072424,0.00447605 -0.00683541,0.00507588 -0.00637887,0.00563892 -0.00587609,0.00616109 -0.00533072,0.00663859 -0.0047467,0.00706797 -0.00412828,0.00744612 -3.26459,6.52918 -0.00360095,0.0080761 -0.00287344,0.00836263 -0.00212346,0.00858377 -0.00135688,0.0087378 -0.000579691,0.0088235 0.000202033,0.00884022 0.000982177,0.00878781 0.00175464,0.00866669 0.00251339,0.0084778 0.00325248,0.00822263 0.00396614,0.00790316 0.00464879,0.0075219 0.00529509,0.00708183 0.00589999,0.00658638 0.00645876,0.00603943 0.00696702,0.00544526 0.00742081,0.00480851 0.00781658,0.00413417 0.00815123,0.0034275 0.00842214,0.00269403 0.0086272,0.0019395 0.00876481,0.0011698 0.00883388,0.000390951 3.26459,0 0,0.2 -3.26459,0 -1.85185e-12,0 -0.0265016,-0.00117285 -0.0262944,-0.00350939 -0.0258816,-0.00581849 -0.0252664,-0.00808209 -0.0244537,-0.0102825 -0.0234497,-0.0124025 -0.0222624,-0.0144255 -0.0209011,-0.0163358 -0.0193763,-0.0181183 -0.0177,-0.0197591 -0.0158853,-0.0212455 -0.0139464,-0.0225657 -0.0118984,-0.0237095 -0.00975744,-0.0246679 -0.00754016,-0.0254334 -0.00526392,-0.0260001 -0.00294653,-0.0263634 -0.000606098,-0.0265207 0.00173907,-0.0264705 0.00407065,-0.0262134 0.00637039,-0.0257513 0.00862033,-0.0250879 0.0108029,-0.0242283 8.27782e-13,-1.65556e-12 z "/>
<path fill="rgb(187,30,16)" stroke="rgb(187,30,16)" d="M 4.23344,4.10125 l 0.0123848,-0.0223384 0.0142401,-0.0212039 0.0159921,-0.0199158 0.0176283,-0.0184833 0.0191366,-0.0169168 0.0205062,-0.0152277 0.0217272,-0.0134282 0.0227907,-0.0115313 0.023689,-0.00955089 0.0244155,-0.00750124 0.0249651,-0.00539721 0.0253337,-0.00325405 0.0255187,-0.00108731 0,3.74278e-12 -0.0255187,0.00108731 -0.0253337,0.00325405 -0.0249651,0.00539721 -0.0244155,0.00750124 -0.023689,0.00955089 -0.0227907,0.0115313 -0.0217272,0.0134282 -0.0205062,0.0152277 -0.0191366,0.0169168 -0.0176283,0.0184833 -0.0159921,0.0199158 -0.0142401,0.0212039 -0.0123848,0.0223384 z "/>
<path fill="rgb(187,30,16)" stroke="rgb(187,30,16)" d="M 4.50177,10.8646 l 3.26459,0 0.00883388,-0.000390951 0.00876481,-0.0011698 0.0086272,-0.0019395 0.00842214,-0.00269403 0.00815123,-0.0034275 0.00781658,-0.00413417 0.00742081,-0.00480851 0.00696702,-0.00544526 0.00645876,-0.00603943 0.00589999,-0.00658638 0.00529509,-0.00708183 0.00464879,-0.0075219 0.00396614,-0.00790316 0.00325248,-0.00822263 0.00251339,-0.0084778 0.00175464,-0.00866669 0.000982177,-0.00878781 0.000202033,-0.00884022 -0.000579691,-0.0088235 -0.00135688,-0.0087378 -0.00212346,-0.00858377 -0.00287344,-0.00836263 -0.00360095,-0.0080761 -3.26459,-6.52918 -0.00412828,-0.00744612 -0.0047467,-0.00706797 -0.00533072,-0.00663859 -0.00587609,-0.00616109 -0.00637887,-0.00563892 -0.00683541,-0.00507588 -0.0072424,-0.00447605 -0.0075969,-0.00384377 -0.00789632,-0.00318363 -0.00813851,-0.00250041 -0.00832171,-0.00179907 -0.00844458,-0.00108468 -0.00850624,-0.000362437 0,-0.2 0.0255187,0.00108731 0.0253337,0.00325405 0.0249651,0.00539721 0.0244155,0.00750124 0.023689,0.00955089 0.0227907,0.0115313 0.0217272,0.0134282 0.0205062,0.0152277 0.0191366,0.0169168 0.0176283,0.0184833 0.0159921,0.0199158 0.0142401,0.0212039 0.0123848,0.0223384 1.69938,3.39875 1.56521,3.13043 1.42109e-14,2.84217e-14 0.0108029,0.0242283 0.00862033,0.0250879 0.00637039,0.0257513 0.00407065,0.0262134 0.00173907,0.0264705 -0.000606098,0.0265207 -0.00294653,0.0263634 -0.00526392,0.0260001 -0.00754016,0.0254334 -0.00975744,0.0246679 -0.0118984,0.0237095 -0.0139464,0.0225657 -0.0158853,0.0212455 -0.0177,0.0197591 -0.0193763,0.0181183 -0.0209011,0.0163358 -0.0222624,0.0144255 -0.0234497,0.0124025 -0.0244537,0.0102825 -0.0252664,0.00808209 -0.0258816,0.00581849 -0.0262944,0.00350939 -0.0265016,0.00117285 -3.28626e-14,0 -3.26459,0 0,-0.2 z "/>
<path fill="rgb(187,30,16)" stroke="rgb(187,30,16)" d="M 4.7701,4.10125 l -0.0123848,-0.0223384 -0.0142401,-0.0212039 -0.0159921,-0.0199158 -0.0176283,-0.0184833 -0.0191366,-0.0169168 -0.0205062,-0.0152277 -0.0217272,-0.0134282 -0.0227907,-0.0115313 -0.023689,-0.00955089 -0.0244155,-0.00750124 -0.0249651,-0.00539721 -0.0253337,-0.00325405 -0.0255187,-0.00108731 0,-3.74278e-12 0.0255187,0.00108731 0.0253337,0.00325405 0.0249651,0.00539721 0.0244155,0.00750124 0.023689,0.00955089 0.0227907,0.0115313 0.0217272,0.0134282 0.0205062,0.0152277 0.0191366,0.0169168 0.0176283,0.0184833 0.0159921,0.0199158 0.0142401,0.0212039 0.0123848,0.0223384 z "/>
<path fill="rgb(187,30,16)" stroke="rgb(187,30,16)" d="M 4.50177,4.45902 l 3.10279,6.20557 -3.10279,0 0,-0.7 1.97016,0 -1.97016,-3.94033 0,-1.56525 z "/>
</g></g></svg>
