<?xml version="1.0" encoding="UTF-8" standalone="no"?>
<!DOCTYPE svg PUBLIC "-//W3C//DTD SVG 1.1//EN" "http://www.w3.org/Graphics/SVG/1.1/DTD/svg11-flat.dtd"
[

]>
<svg xmlns="http://www.w3.org/2000/svg"  viewBox="-0.09375 -0.09375 7.6875 7.6875"><g fill="none" stroke="black" stroke-width="0.0125" transform="translate(0,7.5) scale(1, -1)">
<g id="Output" >
<path fill="rgb(241,240,234)" stroke="rgb(241,240,234)" d="M 5.27365,4.45349 l -0.000479417,0.00213794 -0.000663599,0.00208813 -0.00084275,0.00202248 -0.00101551,0.00194149 -0.00118057,0.00184578 -0.00133667,0.00173607 -0.00148264,0.0016132 -0.00161737,0.00147809 -0.00173983,0.00133178 -0.0018491,0.00117536 -0.00194434,0.00101003 -0.00202484,0.000837046 -0.00208999,0.000657712 -0.00213928,0.000473389 -0.00217236,0.000285477 -0.00218896,9.54002e-05 -0.540557,0 -0.00164601,-0.000225322 -0.00162007,-0.000368084 -0.00158178,-0.000508038 -0.00153142,-0.000644117 -0.00146937,-0.000775283 -0.00139612,-0.000900535 -0.00131222,-0.00101892 -0.00121831,-0.00112953 -0.00111511,-0.00123152 -0.0010034,-0.00132412 -0.00088404,-0.00140663 -0.000757934,-0.0014784 -0.000626047,-0.00153889 -0.000489385,-0.00158765 -0.00034899,-0.00162429 -0.000205933,-0.00164855 -6.13044e-05,-0.00166023 8.37914e-05,-0.00165925 0,-0.4589 0,-0.202145 0,-6.39488e-14 8.17659e-05,-0.0018013 0.000238272,-0.00178734 0.000392968,-0.00175981 0.000544681,-0.00171892 0.000692257,-0.00166497 0.000834577,-0.00159839 0.00097056,-0.00151966 0.00109917,-0.0014294 0.00121944,-0.00132828 0.00133045,-0.00121708 0.00143135,-0.00109663 0.00152139,-0.000967857 0.00159987,-0.000831734 0.0016662,-0.000689296 0.00171988,-0.000541624 0.00176051,-0.000389839 0.00178776,-0.000235094 0.00180144,-7.85634e-05 0.544466,0 0.00178939,0.000401256 0.00174769,0.000555411 0.00169275,0.000705354 0.00162496,0.000849948 0.00154485,0.000988096 0.00145303,0.00111875 0.00135019,0.00124092 0.00123711,0.00135368 0.00111465,0.00145618 0.000983738,0.00154763 0.000845365,0.00162735 0.00070058,0.00169473 0.000550483,0.00174925 0.000396211,0.00179051 0.000238935,0.00181819 7.98469e-05,0.00183209 0,0.202071 0,0.4589 z "/>
<path fill="rgb(241,240,234)" stroke="rgb(241,240,234)" d="M 4.59197,4.4535 l -0.000479432,0.002138 -0.000663624,0.00208818 -0.000842784,0.00202252 -0.00101555,0.00194153 -0.00118062,0.00184581 -0.00133673,0.0017361 -0.00148271,0.00161322 -0.00161744,0.0014781 -0.0017399,0.00133178 -0.00184917,0.00117535 -0.00194442,0.00101001 -0.00202492,0.000837014 -0.00209006,0.000657669 -0.00213936,0.000473335 -0.00217242,0.000285412 -0.00218902,9.53243e-05 -0.627231,-2.31961e-05 -0.00164592,-0.00022543 -0.00161997,-0.000368176 -0.00158167,-0.000508115 -0.00153131,-0.000644178 -0.00146926,-0.000775328 -0.00139601,-0.000900564 -0.00131211,-0.00101893 -0.00121821,-0.00112953 -0.00111501,-0.00123151 -0.00100331,-0.0013241 -0.000883955,-0.00140659 -0.000757859,-0.00147835 -0.000625983,-0.00153883 -0.000489333,-0.00158758 -0.00034895,-0.00162422 -0.000205906,-0.00164847 -6.12913e-05,-0.00166015 8.37908e-05,-0.00165917 0,-0.458888 0,-0.202156 0,-3.90799e-14 8.17697e-05,-0.00180134 0.000238283,-0.00178738 0.000392986,-0.00175985 0.000544706,-0.00171896 0.000692289,-0.00166501 0.000834615,-0.00159841 0.000970603,-0.00151968 0.00109922,-0.00142941 0.00121949,-0.00132829 0.0013305,-0.00121708 0.00143141,-0.00109662 0.00152144,-0.000967844 0.00159993,-0.000831713 0.00166626,-0.000689266 0.00171994,-0.000541585 0.00176056,-0.000389792 0.00178781,-0.000235039 0.00180149,-7.85005e-05 0.63114,2.33407e-05 0.00178926,0.000401363 0.00174756,0.000555499 0.00169261,0.000705422 0.00162483,0.000849997 0.00154472,0.000988126 0.0014529,0.00111876 0.00135007,0.00124092 0.00123699,0.00135366 0.00111454,0.00145614 0.00098364,0.00154758 0.000845278,0.00162729 0.000700508,0.00169465 0.000550426,0.00174917 0.00039617,0.00179042 0.00023891,0.0018181 7.98384e-05,0.00183199 0,0.202059 0,0.458911 z "/>
<path fill="rgb(241,240,234)" stroke="rgb(241,240,234)" d="M 3.82767,4.4535 l -0.000479432,0.002138 -0.000663624,0.00208818 -0.000842784,0.00202252 -0.00101555,0.00194153 -0.00118062,0.00184581 -0.00133673,0.0017361 -0.00148271,0.00161322 -0.00161744,0.0014781 -0.0017399,0.00133178 -0.00184917,0.00117535 -0.00194442,0.00101001 -0.00202492,0.000837014 -0.00209006,0.000657669 -0.00213936,0.000473335 -0.00217242,0.000285412 -0.00218902,9.53243e-05 -0.627231,-2.31961e-05 -0.00164592,-0.00022543 -0.00161997,-0.000368176 -0.00158167,-0.000508115 -0.00153131,-0.000644178 -0.00146926,-0.000775328 -0.00139601,-0.000900564 -0.00131211,-0.00101893 -0.00121821,-0.00112953 -0.00111501,-0.00123151 -0.00100331,-0.0013241 -0.000883955,-0.00140659 -0.000757859,-0.00147835 -0.000625983,-0.00153883 -0.000489333,-0.00158758 -0.00034895,-0.00162422 -0.000205906,-0.00164847 -6.12913e-05,-0.00166015 8.37908e-05,-0.00165917 0,-0.458888 0,-0.202156 0,-6.12843e-14 8.17697e-05,-0.00180134 0.000238283,-0.00178738 0.000392986,-0.00175985 0.000544706,-0.00171896 0.000692289,-0.00166501 0.000834615,-0.00159841 0.000970603,-0.00151968 0.00109922,-0.00142941 0.00121949,-0.00132829 0.0013305,-0.00121708 0.00143141,-0.00109662 0.00152144,-0.000967844 0.00159993,-0.000831713 0.00166626,-0.000689266 0.00171994,-0.000541585 0.00176056,-0.000389792 0.00178781,-0.000235039 0.00180149,-7.85005e-05 0.63114,2.33407e-05 0.00178926,0.000401363 0.00174756,0.000555499 0.00169261,0.000705422 0.00162483,0.000849997 0.00154472,0.000988126 0.0014529,0.00111876 0.00135007,0.00124092 0.00123699,0.00135366 0.00111454,0.00145614 0.00098364,0.00154758 0.000845278,0.00162729 0.000700508,0.00169465 0.000550426,0.00174917 0.00039617,0.00179042 0.00023891,0.0018181 7.98384e-05,0.00183199 0,0.202059 0,0.458911 z "/>
<path fill="rgb(241,240,234)" stroke="rgb(241,240,234)" d="M 3.06134,4.4535 l -0.000479432,0.002138 -0.000663624,0.00208818 -0.000842784,0.00202252 -0.00101555,0.00194153 -0.00118062,0.00184581 -0.00133673,0.0017361 -0.00148271,0.00161322 -0.00161744,0.0014781 -0.0017399,0.00133178 -0.00184917,0.00117535 -0.00194442,0.00101001 -0.00202492,0.000837014 -0.00209006,0.000657669 -0.00213936,0.000473335 -0.00217242,0.000285412 -0.00218902,9.53243e-05 -0.627231,-2.31961e-05 -0.00164592,-0.00022543 -0.00161997,-0.000368176 -0.00158167,-0.000508115 -0.00153131,-0.000644178 -0.00146926,-0.000775328 -0.00139601,-0.000900564 -0.00131211,-0.00101893 -0.00121821,-0.00112953 -0.00111501,-0.00123151 -0.00100331,-0.0013241 -0.000883955,-0.00140659 -0.000757859,-0.00147835 -0.000625983,-0.00153883 -0.000489333,-0.00158758 -0.00034895,-0.00162422 -0.000205906,-0.00164847 -6.12913e-05,-0.00166015 8.37908e-05,-0.00165917 0,-0.458888 0,-0.202156 8.17697e-05,-0.00180134 0.000238283,-0.00178738 0.000392986,-0.00175985 0.000544706,-0.00171896 0.000692289,-0.00166501 0.000834615,-0.00159841 0.000970603,-0.00151968 0.00109922,-0.00142941 0.00121949,-0.00132829 0.0013305,-0.00121708 0.00143141,-0.00109662 0.00152144,-0.000967844 0.00159993,-0.000831713 0.00166626,-0.000689266 0.00171994,-0.000541585 0.00176056,-0.000389792 0.00178781,-0.000235039 0.00180149,-7.85005e-05 0.63114,2.33407e-05 0.00178926,0.000401363 0.00174756,0.000555499 0.00169261,0.000705422 0.00162483,0.000849997 0.00154472,0.000988126 0.0014529,0.00111876 0.00135007,0.00124092 0.00123699,0.00135366 0.00111454,0.00145614 0.00098364,0.00154758 0.000845278,0.00162729 0.000700508,0.00169465 0.000550426,0.00174917 0.00039617,0.00179042 0.00023891,0.0018181 7.98384e-05,0.00183199 0,0.202059 0,0.458911 z "/>
<path fill="rgb(241,240,234)" stroke="rgb(241,240,234)" d="M 2.262,4.39156 l -7.96108e-05,0.00179954 -0.000236089,0.00178576 -0.000390772,0.0017584 -0.000542483,0.00171767 -0.000690068,0.00166388 -0.000832406,0.00159743 -0.000968414,0.00151883 -0.00109706,0.00142869 -0.00121736,0.00132768 -0.0013284,0.00121657 -0.00142934,0.00109621 -0.00151941,0.000967511 -0.00159792,0.000831457 -0.00166429,0.00068908 -0.00171799,0.000541463 -0.00175863,0.000389727 -0.0017859,0.000235028 -0.00179959,7.85419e-05 -0.323196,0 -0.00184757,-0.000125676 -0.00182876,-0.000291443 -0.00179511,-0.000454845 -0.00174689,-0.000614556 -0.00168449,-0.000769278 -0.00160842,-0.000917757 -0.0015193,-0.00105879 -0.00141784,-0.00119122 -0.00130488,-0.00131399 -0.00118133,-0.0014261 -0.00104819,-0.00152663 -0.00090654,-0.00161477 -0.000757535,-0.0016898 -0.000602382,-0.00175112 -0.00044234,-0.00179823 -0.160998,-0.401069 -0.0744993,-0.185588 0.0578434,-0.0991671 0.520541,0 4.61853e-14,0 0.00180061,7.96581e-05 0.00178682,0.000236229 0.00175945,0.000391004 0.00171869,0.000542805 0.00166486,0.000690479 0.00159838,0.000832901 0.00151973,0.000968989 0.00142954,0.00109771 0.00132846,0.00121808 0.00121729,0.00132919 0.00109686,0.00143019 0.000968086,0.00152031 0.000831951,0.00159887 0.000689489,0.00166527 0.000541784,0.00171901 0.000389959,0.00175968 0.000235168,0.00178696 7.85885e-05,0.00180065 0,0.264087 0,0.396969 z "/>
<path fill="rgb(241,240,234)" stroke="rgb(241,240,234)" d="M 5.63627,4.45971 l -0.000589044,0.00164348 -0.000725805,0.00158783 -0.000857374,0.00152083 -0.000982811,0.00144294 -0.00110122,0.00135474 -0.00121175,0.00125685 -0.00131361,0.00114997 -0.00140608,0.00103486 -0.0014885,0.000912351 -0.00156026,0.000783317 -0.00162087,0.000648681 -0.00166988,0.000509405 -0.00170695,0.000366486 -0.00173182,0.000220945 -0.00174429,7.38244e-05 -0.231509,0 -0.00161007,-0.000257822 -0.00158141,-0.000397429 -0.00154066,-0.000533999 -0.00148815,-0.00066649 -0.00142427,-0.000793889 -0.00134951,-0.000915223 -0.00126443,-0.00102957 -0.0011697,-0.00113604 -0.00106604,-0.00123384 -0.000954225,-0.00132222 -0.000835125,-0.00140049 -0.000709644,-0.00146806 -0.000578743,-0.00152442 -0.00044342,-0.00156913 -0.00030471,-0.00160186 -0.000163672,-0.00162235 -2.13838e-05,-0.00163044 0.000121068,-0.00162608 0,-0.4589 0,-0.202194 0,-5.59552e-14 8.36819e-05,-0.00179771 0.000239751,-0.00178362 0.000394001,-0.001756 0.000545265,-0.00171507 0.000692394,-0.00166113 0.000834274,-0.0015946 0.000969828,-0.00151598 0.00109803,-0.00142587 0.00121791,-0.00132494 0.00132855,-0.00121397 0.00142912,-0.0010938 0.00151885,-0.00096533 0.00159707,-0.000829543 0.00166318,-0.000687466 0.00171668,-0.000540178 0.00175716,-0.000388794 0.00178432,-0.000234462 0.00179795,-7.83519e-05 0.331578,0 0.0015666,0.000296884 0.00153463,0.000432748 0.00149091,0.000565295 0.00143576,0.000693512 0.00136961,0.000816414 0.00129297,0.00093306 0.00120642,0.00104256 0.00111062,0.00114407 0.00100632,0.00123681 0.000894299,0.00132007 0.000775431,0.00139322 0.00065062,0.0014557 0.000520825,0.00150702 0.000387038,0.00154679 0.000250286,0.00157471 0.000111616,0.00159057 -2.79086e-05,0.00159424 -0.00016722,0.00158569 -0.0303022,0.202071 -0.0697489,0.465123 z "/>
<path fill="rgb(241,240,234)" stroke="rgb(241,240,234)" d="M 4.45776,3.04933 l -2.36618e-06,0.000539728 -1.41971e-06,0.000539731 -4.73238e-07,0.000539733 4.73238e-07,-0.000539733 1.41971e-06,-0.000539731 2.36618e-06,-0.000539728 z "/>
<path fill="rgb(241,240,234)" stroke="rgb(241,240,234)" d="M 5.16216,3.04887 l -0.0015082,0.0345673 -0.00451526,0.0343043 -0.00748795,0.0337802 -0.0104037,0.032999 -0.0132402,0.0319667 -0.0159759,0.0306911 -0.0185901,0.0291819 -0.0210628,0.0274506 -0.0233751,0.0255103 -0.0255096,0.0233759 -0.0274499,0.0210636 -0.0291813,0.018591 -0.0306906,0.0159769 -0.0319663,0.0132412 -0.0329987,0.0104047 -0.03378,0.007489 -0.0343042,0.00451632 -0.0345673,0.00150927 -0.0345673,-0.00150927 -0.0343042,-0.00451632 -0.03378,-0.007489 -0.0329987,-0.0104047 -0.0319663,-0.0132412 -0.0306906,-0.0159769 -0.0291813,-0.018591 -0.0274499,-0.0210636 -0.0255096,-0.0233759 -0.0233751,-0.0255103 -0.0210628,-0.0274506 -0.0185901,-0.0291819 -0.0159759,-0.0306911 -0.0132402,-0.0319667 -0.0104037,-0.032999 -0.00748795,-0.0337802 -0.00451526,-0.0343043 -0.0015082,-0.0345673 0.0015082,0.0345673 0.00451526,0.0343043 0.00748795,0.0337802 0.0104037,0.032999 0.0132402,0.0319667 0.0159759,0.0306911 0.0185901,0.0291819 0.0210628,0.0274506 0.0233751,0.0255103 0.0255096,0.0233759 0.0274499,0.0210636 0.0291813,0.018591 0.0306906,0.0159769 0.0319663,0.0132412 0.0329987,0.0104047 0.03378,0.007489 0.0343042,0.00451632 0.0345673,0.00150927 0.0345673,-0.00150927 0.0343042,-0.00451632 0.03378,-0.007489 0.0329987,-0.0104047 0.0319663,-0.0132412 0.0306906,-0.0159769 0.0291813,-0.018591 0.0274499,-0.0210636 0.0255096,-0.0233759 0.0233751,-0.0255103 0.0210628,-0.0274506 0.0185901,-0.0291819 0.0159759,-0.0306911 0.0132402,-0.0319667 0.0104037,-0.032999 0.00748795,-0.0337802 0.00451526,-0.0343043 0.0015082,-0.0345673 z "/>
<path fill="rgb(241,240,234)" stroke="rgb(241,240,234)" d="M 5.07333,3.05095 l -4.7319e-07,-0.000539705 -1.41957e-06,-0.000539704 -2.36594e-06,-0.0005397 0.0888357,-0.000467328 -0.0015082,0.0345673 -0.00451526,0.0343043 -0.00748795,0.0337802 -0.0104037,0.032999 -0.0132402,0.0319667 -0.0159759,0.0306911 -0.0185901,0.0291819 -0.0210628,0.0274506 -0.0233751,0.0255103 -0.0255096,0.0233759 -0.0274499,0.0210636 -0.0291813,0.018591 -0.0306906,0.0159769 -0.0319663,0.0132412 -0.0329987,0.0104047 -0.03378,0.007489 -0.0343042,0.00451632 -0.0345673,0.00150927 -0.0345673,-0.00150927 -0.0343042,-0.00451632 -0.03378,-0.007489 -0.0329987,-0.0104047 -0.0319663,-0.0132412 -0.0306906,-0.0159769 -0.0291813,-0.018591 -0.0274499,-0.0210636 -0.0255096,-0.0233759 -0.0233751,-0.0255103 -0.0210628,-0.0274506 -0.0185901,-0.0291819 -0.0159759,-0.0306911 -0.0132402,-0.0319667 -0.0104037,-0.032999 -0.00748795,-0.0337802 -0.00451526,-0.0343043 -0.0015082,-0.0345673 4.61853e-14,0 0.0888156,0.000467246 -2.36618e-06,0.000539728 -1.41971e-06,0.000539731 -4.73238e-07,0.000539733 0.00117122,0.0268253 0.00350474,0.0266211 0.00581158,0.0262144 0.0080742,0.0256081 0.0102754,0.0248069 0.0123983,0.023817 0.0144269,0.0226458 0.0163458,0.0213022 0.0181402,0.0197965 0.0197965,0.0181402 0.0213022,0.0163458 0.0226458,0.0144269 0.023817,0.0123983 0.0248069,0.0102754 0.0256081,0.0080742 0.0262144,0.00581158 0.0266211,0.00350474 0.0268253,0.00117122 0.0268253,-0.00117122 0.0266211,-0.00350474 0.0262144,-0.00581158 0.0256081,-0.0080742 0.0248069,-0.0102754 0.023817,-0.0123983 0.0226458,-0.0144269 0.0213022,-0.0163458 0.0197965,-0.0181402 0.0181402,-0.0197965 0.0163458,-0.0213022 0.0144269,-0.0226458 0.0123983,-0.023817 0.0102754,-0.0248069 0.0080742,-0.0256081 0.00581158,-0.0262144 0.00350474,-0.0266211 0.00117122,-0.0268253 z "/>
<path fill="rgb(241,240,234)" stroke="rgb(241,240,234)" d="M 2.16282,3.04887 l 0.0851874,0.000452512 -2.41238e-06,0.000544971 -1.44743e-06,0.000544974 -4.82477e-07,0.000544976 0.00117122,0.0268253 0.00350474,0.0266211 0.00581158,0.0262144 0.0080742,0.0256081 0.0102754,0.0248069 0.0123983,0.023817 0.0144269,0.0226458 0.0163458,0.0213022 0.0181402,0.0197965 0.0197965,0.0181402 0.0213022,0.0163458 0.0226458,0.0144269 0.023817,0.0123983 0.0248069,0.0102754 0.0256081,0.0080742 0.0262144,0.00581158 0.0266211,0.00350474 0.0268253,0.00117122 0.0268253,-0.00117122 0.0266211,-0.00350474 0.0262144,-0.00581158 0.0256081,-0.0080742 0.0248069,-0.0102754 0.023817,-0.0123983 0.0226458,-0.0144269 0.0213022,-0.0163458 0.0197965,-0.0181402 0.0181402,-0.0197965 0.0163458,-0.0213022 0.0144269,-0.0226458 0.0123983,-0.023817 0.0102754,-0.0248069 0.0080742,-0.0256081 0.00581158,-0.0262144 0.00350474,-0.0266211 0.00117122,-0.0268253 -4.74857e-07,-0.000540655 -1.42457e-06,-0.000540653 -2.37428e-06,-0.00054065 0.0883279,-0.000465474 -0.00132952,0.0345094 -0.00434219,0.034261 -0.00732159,0.03375 -0.0102449,0.0329805 -0.0130897,0.0319582 -0.0158342,0.0306911 -0.0184574,0.0291889 -0.0209392,0.027463 -0.0232606,0.0255267 -0.0254037,0.0233948 -0.0273522,0.0210837 -0.0290912,0.0186111 -0.0306072,0.0159958 -0.0318888,0.013258 -0.032926,0.0104186 -0.0337109,0.00749944 -0.0342376,0.00452277 -0.0345019,0.00151145 -0.0345019,-0.00151145 -0.0342376,-0.00452277 -0.0337109,-0.00749944 -0.032926,-0.0104186 -0.0318888,-0.013258 -0.0306072,-0.0159958 -0.0290912,-0.0186111 -0.0273522,-0.0210837 -0.0254037,-0.0233948 -0.0232606,-0.0255267 -0.0209392,-0.027463 -0.0184574,-0.0291889 -0.0158342,-0.0306911 -0.0130897,-0.0319582 -0.0102449,-0.0329805 -0.00732159,-0.03375 -0.00434219,-0.034261 -0.00132952,-0.0345094 z "/>
<path fill="rgb(241,240,234)" stroke="rgb(241,240,234)" d="M 2.16282,3.04887 l 0.00132952,0.0345094 0.00434219,0.034261 0.00732159,0.03375 0.0102449,0.0329805 0.0130897,0.0319582 0.0158342,0.0306911 0.0184574,0.0291889 0.0209392,0.027463 0.0232606,0.0255267 0.0254037,0.0233948 0.0273522,0.0210837 0.0290912,0.0186111 0.0306072,0.0159958 0.0318888,0.013258 0.032926,0.0104186 0.0337109,0.00749944 0.0342376,0.00452277 0.0345019,0.00151145 0.0345019,-0.00151145 0.0342376,-0.00452277 0.0337109,-0.00749944 0.032926,-0.0104186 0.0318888,-0.013258 0.0306072,-0.0159958 0.0290912,-0.0186111 0.0273522,-0.0210837 0.0254037,-0.0233948 0.0232606,-0.0255267 0.0209392,-0.027463 0.0184574,-0.0291889 0.0158342,-0.0306911 0.0130897,-0.0319582 0.0102449,-0.0329805 0.00732159,-0.03375 0.00434219,-0.034261 0.00132952,-0.0345094 -0.00132952,0.0345094 -0.00434219,0.034261 -0.00732159,0.03375 -0.0102449,0.0329805 -0.0130897,0.0319582 -0.0158342,0.0306911 -0.0184574,0.0291889 -0.0209392,0.027463 -0.0232606,0.0255267 -0.0254037,0.0233948 -0.0273522,0.0210837 -0.0290912,0.0186111 -0.0306072,0.0159958 -0.0318888,0.013258 -0.032926,0.0104186 -0.0337109,0.00749944 -0.0342376,0.00452277 -0.0345019,0.00151145 -0.0345019,-0.00151145 -0.0342376,-0.00452277 -0.0337109,-0.00749944 -0.032926,-0.0104186 -0.0318888,-0.013258 -0.0306072,-0.0159958 -0.0290912,-0.0186111 -0.0273522,-0.0210837 -0.0254037,-0.0233948 -0.0232606,-0.0255267 -0.0209392,-0.027463 -0.0184574,-0.0291889 -0.0158342,-0.0306911 -0.0130897,-0.0319582 -0.0102449,-0.0329805 -0.00732159,-0.03375 -0.00434219,-0.034261 -0.00132952,-0.0345094 z "/>
<path fill="rgb(241,240,234)" stroke="rgb(241,240,234)" d="M 2.16282,3.04887 l -3.06422e-14,0 -0.623808,0 0,0.123959 0.0619671,0 4.44089e-16,0.537012 -0.0619671,0.0909318 0.0794855,0.193823 -0.507187,0 -0.0062824,-0.0814015 -0.00377183,-0.0815564 -0.00125767,-0.0816339 0.0100841,-0.230963 0.0301754,-0.229205 0.0500371,-0.225703 0.069518,-0.220483 0.0884698,-0.213585 0.106748,-0.205062 0.124214,-0.194978 0.140735,-0.18341 0.156185,-0.170446 0.170446,-0.156185 0.18341,-0.140735 0.194978,-0.124214 0.205062,-0.106748 0.213585,-0.0884698 0.220483,-0.069518 0.225703,-0.0500371 0.229205,-0.0301754 0.230963,-0.0100841 0.230963,0.0100841 0.229205,0.0301754 0.225703,0.0500371 0.220483,0.069518 0.213585,0.0884698 0.205062,0.106748 0.194978,0.124214 0.18341,0.140735 0.170446,0.156185 0.156185,0.170446 0.140735,0.18341 0.124214,0.194978 0.106748,0.205062 0.0884698,0.213585 0.069518,0.220483 0.0500371,0.225703 0.0301754,0.229205 0.0100841,0.230963 -0.00125767,0.0816339 -0.00377183,0.0815564 -0.0062824,0.0814015 -0.555714,0 0.0272567,-0.177279 8.88178e-16,-0.49991 0.0661768,-0.041336 -8.88178e-16,-0.103242 -0.764249,-0.123959 -0.0888357,0.000467328 -0.00130402,-0.0267292 -0.00362091,-0.0265149 -0.00591042,-0.0261001 -0.00815526,-0.0254881 -0.0103384,-0.0246833 -0.0124435,-0.023692 -0.0144544,-0.0225215 -0.0163561,-0.0211808 -0.0181342,-0.01968 -0.0197751,-0.0180304 -0.0212666,-0.0162445 -0.0225972,-0.0143358 -0.0237571,-0.0123187 -0.0247374,-0.0102085 -0.0255306,-0.00802107 -0.0261308,-0.00577305 -0.0265335,-0.00348138 -0.0267357,-0.00116339 -0.0267357,0.00116339 -0.0265335,0.00348137 -0.0261308,0.00577304 -0.0255306,0.00802106 -0.0247374,0.0102084 -0.0237571,0.0123187 -0.0225972,0.0143358 -0.0212666,0.0162445 -0.0197751,0.0180304 -0.0181342,0.01968 -0.0163561,0.0211808 -0.0144544,0.0225215 -0.0124435,0.023692 -0.0103384,0.0246833 -0.00815527,0.0254881 -0.00591043,0.0261001 -0.00362091,0.0265149 -0.00130402,0.0267292 -0.0888156,-0.000467246 -4.61853e-14,0 -1.41705,0 -2.9754e-14,0 -0.0883279,0.000465474 -0.00130422,-0.0267286 -0.00362102,-0.0265143 -0.00591044,-0.0260996 -0.00815519,-0.0254875 -0.0103383,-0.0246828 -0.0124432,-0.0236915 -0.0144541,-0.0225211 -0.0163557,-0.0211805 -0.0181337,-0.0196797 -0.0197746,-0.0180302 -0.021266,-0.0162443 -0.0225967,-0.0143357 -0.0237565,-0.0123187 -0.0247367,-0.0102086 -0.02553,-0.0080213 -0.0261302,-0.00577337 -0.026533,-0.0034818 -0.0267351,-0.00116391 -0.0267352,0.00116278 -0.0265331,0.00348068 -0.0261305,0.00577227 -0.0255303,0.00802022 -0.0247372,0.0102075 -0.023757,0.0123177 -0.0225973,0.0143348 -0.0212667,0.0162434 -0.0197754,0.0180293 -0.0181345,0.0196789 -0.0163566,0.0211798 -0.0144551,0.0225205 -0.0124442,0.023691 -0.0103393,0.0246824 -0.00815626,0.0254872 -0.00591154,0.0260993 -0.00362213,0.0265142 -0.00130534,0.0267286 -0.0851874,-0.000452512 z "/>
<path fill="rgb(241,240,234)" stroke="rgb(241,240,234)" d="M 5.79418,4.62285 l 0.00567065,-0.00151134 0.00551943,-0.00199407 0.0053272,-0.00246198 0.00509539,-0.0029116 0.00482572,-0.00333959 0.0045202,-0.00374276 0.00418109,-0.00411812 0.00381091,-0.00446289 0.00341242,-0.0047745 0.00298857,-0.00505063 0.00254252,-0.00528924 0.00207758,-0.00548854 0.0015972,-0.00564707 0.00110496,-0.00576364 0.000604503,-0.00583738 9.95559e-05,-0.00586775 -0.000406131,-0.00585453 -0.0009088,-0.0057978 -0.00140472,-0.005698 -0.0018902,-0.00555586 -0.00236163,-0.00537244 -0.00281552,-0.00514911 -0.0683581,-0.11314 0.0635646,-0.413428 0.555714,0 -0.0312148,0.228254 -0.0509215,0.22468 -0.0702432,0.219409 -0.0890341,0.212479 -0.107152,0.203943 -0.12446,0.193866 -0.140828,0.182323 -0.156131,0.169403 -0.170254,0.155202 -0.183091,0.139829 -0.194543,0.123398 -0.204526,0.106035 -0.212962,0.087871 -0.219789,0.0690425 -0.224955,0.0496922 -0.228421,0.0299664 -0.230161,0.010014 -0.230161,-0.010014 -0.228421,-0.0299664 -0.224955,-0.0496922 -0.219789,-0.0690425 -0.212962,-0.087871 -0.204526,-0.106035 -0.194543,-0.123398 -0.183091,-0.139829 -0.170254,-0.155202 -0.156131,-0.169403 -0.140828,-0.182323 -0.12446,-0.193866 -0.107152,-0.203943 -0.0890341,-0.212479 -0.0702432,-0.219409 -0.0509215,-0.22468 -0.0312148,-0.228254 0.507187,0 0.155999,0.380401 -0.0578311,0.185975 -0.000122521,0.00499535 0.000308167,0.00498734 0.000736565,0.00494227 0.00115949,0.00486047 0.0015738,0.00474254 0.00197641,0.00458938 0.00236433,0.0044021 0.00273468,0.00418211 0.00308471,0.00393104 0.00341182,0.00365076 0.00371357,0.00334335 0.00398772,0.00301109 0.00423224,0.00265645 0.0044453,0.00228207 0.00462533,0.00189073 0.00477099,0.00148534 0.00488119,0.00106891 0.00495511,0.000644543 0.00499221,0.000215381 4.01968,0 z "/>
<path fill="rgb(241,240,234)" stroke="rgb(241,240,234)" d="M 0.2,3.75 l 0.0135088,-0.309403 0.0404237,-0.307048 0.0670308,-0.302357 0.0931279,-0.295364 0.118516,-0.286123 0.143002,-0.274705 0.1664,-0.261196 0.188532,-0.2457 0.209229,-0.228333 0.228333,-0.209229 0.2457,-0.188532 0.261196,-0.1664 0.274705,-0.143002 0.286123,-0.118516 0.295364,-0.0931279 0.302357,-0.0670308 0.307048,-0.0404237 0.309403,-0.0135088 0.309403,0.0135088 0.307048,0.0404237 0.302357,0.0670308 0.295364,0.0931279 0.286123,0.118516 0.274705,0.143002 0.261196,0.1664 0.2457,0.188532 0.228333,0.209229 0.209229,0.228333 0.188532,0.2457 0.1664,0.261196 0.143002,0.274705 0.118516,0.286123 0.0931279,0.295364 0.0670308,0.302357 0.0404237,0.307048 0.0135088,0.309403 -0.2,0 -0.0127478,-0.291972 -0.0381463,-0.28975 -0.0632545,-0.285322 -0.0878812,-0.278724 -0.111839,-0.270004 -0.134946,-0.259229 -0.157026,-0.246481 -0.17791,-0.231857 -0.197441,-0.215469 -0.215469,-0.197441 -0.231857,-0.17791 -0.246481,-0.157026 -0.259229,-0.134946 -0.270004,-0.111839 -0.278724,-0.0878812 -0.285322,-0.0632545 -0.28975,-0.0381463 -0.291972,-0.0127478 -0.291972,0.0127478 -0.28975,0.0381463 -0.285322,0.0632545 -0.278724,0.0878812 -0.270004,0.111839 -0.259229,0.134946 -0.246481,0.157026 -0.231857,0.17791 -0.215469,0.197441 -0.197441,0.215469 -0.17791,0.231857 -0.157026,0.246481 -0.134946,0.259229 -0.111839,0.270004 -0.0878812,0.278724 -0.0632545,0.285322 -0.0381463,0.28975 -0.0127478,0.291972 -0.2,0 z "/>
<path fill="rgb(241,240,234)" stroke="rgb(241,240,234)" d="M 0.2,3.75 l 0.2,0 0.0127478,0.291972 0.0381463,0.28975 0.0632545,0.285322 0.0878812,0.278724 0.111839,0.270004 0.134946,0.259229 0.157026,0.246481 0.17791,0.231857 0.197441,0.215469 0.215469,0.197441 0.231857,0.17791 0.246481,0.157026 0.259229,0.134946 0.270004,0.111839 0.278724,0.0878812 0.285322,0.0632545 0.28975,0.0381463 0.291972,0.0127478 0.291972,-0.0127478 0.28975,-0.0381463 0.285322,-0.0632545 0.278724,-0.0878812 0.270004,-0.111839 0.259229,-0.134946 0.246481,-0.157026 0.231857,-0.17791 0.215469,-0.197441 0.197441,-0.215469 0.17791,-0.231857 0.157026,-0.246481 0.134946,-0.259229 0.111839,-0.270004 0.0878812,-0.278724 0.0632545,-0.285322 0.0381463,-0.28975 0.0127478,-0.291972 0.2,0 -0.0135088,0.309403 -0.0404237,0.307048 -0.0670308,0.302357 -0.0931279,0.295364 -0.118516,0.286123 -0.143002,0.274705 -0.1664,0.261196 -0.188532,0.2457 -0.209229,0.228333 -0.228333,0.209229 -0.2457,0.188532 -0.261196,0.1664 -0.274705,0.143002 -0.286123,0.118516 -0.295364,0.0931279 -0.302357,0.0670308 -0.307048,0.0404237 -0.309403,0.0135088 -0.309403,-0.0135088 -0.307048,-0.0404237 -0.302357,-0.0670308 -0.295364,-0.0931279 -0.286123,-0.118516 -0.274705,-0.143002 -0.261196,-0.1664 -0.2457,-0.188532 -0.228333,-0.209229 -0.209229,-0.228333 -0.188532,-0.2457 -0.1664,-0.261196 -0.143002,-0.274705 -0.118516,-0.286123 -0.0931279,-0.295364 -0.0670308,-0.302357 -0.0404237,-0.307048 -0.0135088,-0.309403 z "/>
<path fill="rgb(42,41,42)" stroke="rgb(42,41,42)" d="M 2.86358,3.05095 l -0.00117122,0.0268253 -0.00350474,0.0266211 -0.00581158,0.0262144 -0.0080742,0.0256081 -0.0102754,0.0248069 -0.0123983,0.023817 -0.0144269,0.0226458 -0.0163458,0.0213022 -0.0181402,0.0197965 -0.0197965,0.0181402 -0.0213022,0.0163458 -0.0226458,0.0144269 -0.023817,0.0123983 -0.0248069,0.0102754 -0.0256081,0.0080742 -0.0262144,0.00581158 -0.0266211,0.00350474 -0.0268253,0.00117122 -0.0268253,-0.00117122 -0.0266211,-0.00350474 -0.0262144,-0.00581158 -0.0256081,-0.0080742 -0.0248069,-0.0102754 -0.023817,-0.0123983 -0.0226458,-0.0144269 -0.0213022,-0.0163458 -0.0197965,-0.0181402 -0.0181402,-0.0197965 -0.0163458,-0.0213022 -0.0144269,-0.0226458 -0.0123983,-0.023817 -0.0102754,-0.0248069 -0.0080742,-0.0256081 -0.00581158,-0.0262144 -0.00350474,-0.0266211 -0.00117122,-0.0268253 4.82477e-07,-0.000544976 1.44743e-06,-0.000544974 2.41238e-06,-0.000544971 0.00130534,-0.0267286 0.00362213,-0.0265142 0.00591154,-0.0260993 0.00815626,-0.0254872 0.0103393,-0.0246824 0.0124442,-0.023691 0.0144551,-0.0225205 0.0163566,-0.0211798 0.0181345,-0.0196789 0.0197754,-0.0180293 0.0212667,-0.0162434 0.0225973,-0.0143348 0.023757,-0.0123177 0.0247372,-0.0102075 0.0255303,-0.00802022 0.0261305,-0.00577227 0.0265331,-0.00348068 0.0267352,-0.00116278 0.0267351,0.00116391 0.026533,0.0034818 0.0261302,0.00577337 0.02553,0.0080213 0.0247367,0.0102086 0.0237565,0.0123187 0.0225967,0.0143357 0.021266,0.0162443 0.0197746,0.0180302 0.0181337,0.0196797 0.0163557,0.0211805 0.0144541,0.0225211 0.0124432,0.0236915 0.0103383,0.0246828 0.00815519,0.0254875 0.00591044,0.0260996 0.00362102,0.0265143 0.00130422,0.0267286 2.37428e-06,0.00054065 1.42457e-06,0.000540653 4.74857e-07,0.000540655 z "/>
<path fill="rgb(42,41,42)" stroke="rgb(42,41,42)" d="M 5.07333,3.05095 l -0.00117122,0.0268253 -0.00350474,0.0266211 -0.00581158,0.0262144 -0.0080742,0.0256081 -0.0102754,0.0248069 -0.0123983,0.023817 -0.0144269,0.0226458 -0.0163458,0.0213022 -0.0181402,0.0197965 -0.0197965,0.0181402 -0.0213022,0.0163458 -0.0226458,0.0144269 -0.023817,0.0123983 -0.0248069,0.0102754 -0.0256081,0.0080742 -0.0262144,0.00581158 -0.0266211,0.00350474 -0.0268253,0.00117122 -0.0268253,-0.00117122 -0.0266211,-0.00350474 -0.0262144,-0.00581158 -0.0256081,-0.0080742 -0.0248069,-0.0102754 -0.023817,-0.0123983 -0.0226458,-0.0144269 -0.0213022,-0.0163458 -0.0197965,-0.0181402 -0.0181402,-0.0197965 -0.0163458,-0.0213022 -0.0144269,-0.0226458 -0.0123983,-0.023817 -0.0102754,-0.0248069 -0.0080742,-0.0256081 -0.00581158,-0.0262144 -0.00350474,-0.0266211 -0.00117122,-0.0268253 4.73238e-07,-0.000539733 1.41971e-06,-0.000539731 2.36618e-06,-0.000539728 0.00130402,-0.0267292 0.00362091,-0.0265149 0.00591043,-0.0261001 0.00815527,-0.0254881 0.0103384,-0.0246833 0.0124435,-0.023692 0.0144544,-0.0225215 0.0163561,-0.0211808 0.0181342,-0.01968 0.0197751,-0.0180304 0.0212666,-0.0162445 0.0225972,-0.0143358 0.0237571,-0.0123187 0.0247374,-0.0102084 0.0255306,-0.00802106 0.0261308,-0.00577304 0.0265335,-0.00348137 0.0267357,-0.00116339 0.0267357,0.00116339 0.0265335,0.00348138 0.0261308,0.00577305 0.0255306,0.00802107 0.0247374,0.0102085 0.0237571,0.0123187 0.0225972,0.0143358 0.0212666,0.0162445 0.0197751,0.0180304 0.0181342,0.01968 0.0163561,0.0211808 0.0144544,0.0225215 0.0124435,0.023692 0.0103384,0.0246833 0.00815526,0.0254881 0.00591042,0.0261001 0.00362091,0.0265149 0.00130402,0.0267292 2.36594e-06,0.0005397 1.41957e-06,0.000539704 4.7319e-07,0.000539705 z "/>
<path fill="rgb(42,41,42)" stroke="rgb(42,41,42)" d="M 5.27365,4.45349 l 0,-0.4589 0.0950187,0 0,0.4589 -0.000121068,0.00162608 2.13838e-05,0.00163044 0.000163672,0.00162235 0.00030471,0.00160186 0.00044342,0.00156913 0.000578743,0.00152442 0.000709644,0.00146806 0.000835125,0.00140049 0.000954225,0.00132222 0.00106604,0.00123384 0.0011697,0.00113604 0.00126443,0.00102957 0.00134951,0.000915223 0.00142427,0.000793889 0.00148815,0.00066649 0.00154066,0.000533999 0.00158141,0.000397429 0.00161007,0.000257822 0.231509,0 0.00174429,-7.38244e-05 0.00173182,-0.000220945 0.00170695,-0.000366486 0.00166988,-0.000509405 0.00162087,-0.000648681 0.00156026,-0.000783317 0.0014885,-0.000912351 0.00140608,-0.00103486 0.00131361,-0.00114997 0.00121175,-0.00125685 0.00110122,-0.00135474 0.000982811,-0.00144294 0.000857374,-0.00152083 0.000725805,-0.00158783 0.000589044,-0.00164348 0.0697489,-0.465123 0.126955,0 -0.0635646,0.413428 0.0683581,0.11314 0.00281552,0.00514911 0.00236163,0.00537244 0.0018902,0.00555586 0.00140472,0.005698 0.0009088,0.0057978 0.000406131,0.00585453 -9.95559e-05,0.00586775 -0.000604503,0.00583738 -0.00110496,0.00576364 -0.0015972,0.00564707 -0.00207758,0.00548854 -0.00254252,0.00528924 -0.00298857,0.00505063 -0.00341242,0.0047745 -0.00381091,0.00446289 -0.00418109,0.00411812 -0.0045202,0.00374276 -0.00482572,0.00333959 -0.00509539,0.0029116 -0.0053272,0.00246198 -0.00551943,0.00199407 -0.00567065,0.00151134 -4.01968,0 -0.00499221,-0.000215381 -0.00495511,-0.000644543 -0.00488119,-0.00106891 -0.00477099,-0.00148534 -0.00462533,-0.00189073 -0.0044453,-0.00228207 -0.00423224,-0.00265645 -0.00398772,-0.00301109 -0.00371357,-0.00334335 -0.00341182,-0.00365076 -0.00308471,-0.00393104 -0.00273468,-0.00418211 -0.00236433,-0.0044021 -0.00197641,-0.00458938 -0.0015738,-0.00474254 -0.00115949,-0.00486047 -0.000736565,-0.00494227 -0.000308167,-0.00498734 0.000122521,-0.00499535 0.0578311,-0.185975 -0.155999,-0.380401 0.11896,0 0.160998,0.401069 0.00044234,0.00179823 0.000602382,0.00175112 0.000757535,0.0016898 0.00090654,0.00161477 0.00104819,0.00152663 0.00118133,0.0014261 0.00130488,0.00131399 0.00141784,0.00119122 0.0015193,0.00105879 0.00160842,0.000917757 0.00168449,0.000769278 0.00174689,0.000614556 0.00179511,0.000454845 0.00182876,0.000291443 0.00184757,0.000125676 0.323196,0 0.00179959,-7.85419e-05 0.0017859,-0.000235028 0.00175863,-0.000389727 0.00171799,-0.000541463 0.00166429,-0.00068908 0.00159792,-0.000831457 0.00151941,-0.000967511 0.00142934,-0.00109621 0.0013284,-0.00121657 0.00121736,-0.00132768 0.00109706,-0.00142869 0.000968414,-0.00151883 0.000832406,-0.00159743 0.000690068,-0.00166388 0.000542483,-0.00171767 0.000390772,-0.0017584 0.000236089,-0.00178576 7.96108e-05,-0.00179954 0,-0.396969 0.130161,0 0,0.458888 -8.37908e-05,0.00165917 6.12913e-05,0.00166015 0.000205906,0.00164847 0.00034895,0.00162422 0.000489333,0.00158758 0.000625983,0.00153883 0.000757859,0.00147835 0.000883955,0.00140659 0.00100331,0.0013241 0.00111501,0.00123151 0.00121821,0.00112953 0.00131211,0.00101893 0.00139601,0.000900564 0.00146926,0.000775328 0.00153131,0.000644178 0.00158167,0.000508115 0.00161997,0.000368176 0.00164592,0.00022543 1.0445e-12,9.68114e-14 0.627231,2.31961e-05 0.00218902,-9.53243e-05 0.00217242,-0.000285412 0.00213936,-0.000473335 0.00209006,-0.000657669 0.00202492,-0.000837014 0.00194442,-0.00101001 0.00184917,-0.00117535 0.0017399,-0.00133178 0.00161744,-0.0014781 0.00148271,-0.00161322 0.00133673,-0.0017361 0.00118062,-0.00184581 0.00101555,-0.00194153 0.000842784,-0.00202252 0.000663624,-0.00208818 0.000479432,-0.002138 0,-0.458911 0.0971482,0 0,0.458888 -8.37908e-05,0.00165917 6.12913e-05,0.00166015 0.000205906,0.00164847 0.00034895,0.00162422 0.000489333,0.00158758 0.000625983,0.00153883 0.000757859,0.00147835 0.000883955,0.00140659 0.00100331,0.0013241 0.00111501,0.00123151 0.00121821,0.00112953 0.00131211,0.00101893 0.00139601,0.000900564 0.00146926,0.000775328 0.00153131,0.000644178 0.00158167,0.000508115 0.00161997,0.000368176 0.00164592,0.00022543 1.0445e-12,9.68114e-14 0.627231,2.31961e-05 0.00218902,-9.53243e-05 0.00217242,-0.000285412 0.00213936,-0.000473335 0.00209006,-0.000657669 0.00202492,-0.000837014 0.00194442,-0.00101001 0.00184917,-0.00117535 0.0017399,-0.00133178 0.00161744,-0.0014781 0.00148271,-0.00161322 0.00133673,-0.0017361 0.00118062,-0.00184581 0.00101555,-0.00194153 0.000842784,-0.00202252 0.000663624,-0.00208818 0.000479432,-0.002138 0,-0.458911 0.0951183,0 0,0.458888 -8.37908e-05,0.00165917 6.12913e-05,0.00166015 0.000205906,0.00164847 0.00034895,0.00162422 0.000489333,0.00158758 0.000625983,0.00153883 0.000757859,0.00147835 0.000883955,0.00140659 0.00100331,0.0013241 0.00111501,0.00123151 0.00121821,0.00112953 0.00131211,0.00101893 0.00139601,0.000900564 0.00146926,0.000775328 0.00153131,0.000644178 0.00158167,0.000508115 0.00161997,0.000368176 0.00164592,0.00022543 1.0445e-12,9.68114e-14 0.627231,2.31961e-05 0.00218902,-9.53243e-05 0.00217242,-0.000285412 0.00213936,-0.000473335 0.00209006,-0.000657669 0.00202492,-0.000837014 0.00194442,-0.00101001 0.00184917,-0.00117535 0.0017399,-0.00133178 0.00161744,-0.0014781 0.00148271,-0.00161322 0.00133673,-0.0017361 0.00118062,-0.00184581 0.00101555,-0.00194153 0.000842784,-0.00202252 0.000663624,-0.00208818 0.000479432,-0.002138 0,-0.458911 0.0991671,0 0,0.4589 -8.37914e-05,0.00165925 6.13044e-05,0.00166023 0.000205933,0.00164855 0.00034899,0.00162429 0.000489385,0.00158765 0.000626047,0.00153889 0.000757934,0.0014784 0.00088404,0.00140663 0.0010034,0.00132412 0.00111511,0.00123152 0.00121831,0.00112953 0.00131222,0.00101892 0.00139612,0.000900535 0.00146937,0.000775283 0.00153142,0.000644117 0.00158178,0.000508038 0.00162007,0.000368084 0.00164601,0.000225322 0.540557,0 0.00218896,-9.54002e-05 0.00217236,-0.000285477 0.00213928,-0.000473389 0.00208999,-0.000657712 0.00202484,-0.000837046 0.00194434,-0.00101003 0.0018491,-0.00117536 0.00173983,-0.00133178 0.00161737,-0.00147809 0.00148264,-0.0016132 0.00133667,-0.00173607 0.00118057,-0.00184578 0.00101551,-0.00194149 0.00084275,-0.00202248 0.000663599,-0.00208813 0.000479417,-0.00213794 z "/>
<path fill="rgb(42,41,42)" stroke="rgb(42,41,42)" d="M 2.16282,3.04887 l 0.00132952,0.0345094 0.00434219,0.034261 0.00732159,0.03375 0.0102449,0.0329805 0.0130897,0.0319582 0.0158342,0.0306911 0.0184574,0.0291889 0.0209392,0.027463 0.0232606,0.0255267 0.0254037,0.0233948 0.0273522,0.0210837 0.0290912,0.0186111 0.0306072,0.0159958 0.0318888,0.013258 0.032926,0.0104186 0.0337109,0.00749944 0.0342376,0.00452277 0.0345019,0.00151145 0.0345019,-0.00151145 0.0342376,-0.00452277 0.0337109,-0.00749944 0.032926,-0.0104186 0.0318888,-0.013258 0.0306072,-0.0159958 0.0290912,-0.0186111 0.0273522,-0.0210837 0.0254037,-0.0233948 0.0232606,-0.0255267 0.0209392,-0.027463 0.0184574,-0.0291889 0.0158342,-0.0306911 0.0130897,-0.0319582 0.0102449,-0.0329805 0.00732159,-0.03375 0.00434219,-0.034261 0.00132952,-0.0345094 2.9754e-14,0 1.41705,0 0.0015082,0.0345673 0.00451526,0.0343043 0.00748795,0.0337802 0.0104037,0.032999 0.0132402,0.0319667 0.0159759,0.0306911 0.0185901,0.0291819 0.0210628,0.0274506 0.0233751,0.0255103 0.0255096,0.0233759 0.0274499,0.0210636 0.0291813,0.018591 0.0306906,0.0159769 0.0319663,0.0132412 0.0329987,0.0104047 0.03378,0.007489 0.0343042,0.00451632 0.0345673,0.00150927 0.0345673,-0.00150927 0.0343042,-0.00451632 0.03378,-0.007489 0.0329987,-0.0104047 0.0319663,-0.0132412 0.0306906,-0.0159769 0.0291813,-0.018591 0.0274499,-0.0210636 0.0255096,-0.0233759 0.0233751,-0.0255103 0.0210628,-0.0274506 0.0185901,-0.0291819 0.0159759,-0.0306911 0.0132402,-0.0319667 0.0104037,-0.032999 0.00748795,-0.0337802 0.00451526,-0.0343043 0.0015082,-0.0345673 0.764249,0.123959 8.88178e-16,0.103242 -0.0661768,0.041336 -8.88178e-16,0.49991 -0.0272567,0.177279 -0.126955,0 0.0303022,-0.202071 0.00016722,-0.00158569 2.79086e-05,-0.00159424 -0.000111616,-0.00159057 -0.000250286,-0.00157471 -0.000387038,-0.00154679 -0.000520825,-0.00150702 -0.00065062,-0.0014557 -0.000775431,-0.00139322 -0.000894299,-0.00132007 -0.00100632,-0.00123681 -0.00111062,-0.00114407 -0.00120642,-0.00104256 -0.00129297,-0.00093306 -0.00136961,-0.000816414 -0.00143576,-0.000693512 -0.00149091,-0.000565295 -0.00153463,-0.000432748 -0.0015666,-0.000296884 -0.331578,0 -0.00179795,7.83519e-05 -0.00178432,0.000234462 -0.00175716,0.000388794 -0.00171668,0.000540178 -0.00166318,0.000687466 -0.00159707,0.000829543 -0.00151885,0.00096533 -0.00142912,0.0010938 -0.00132855,0.00121397 -0.00121791,0.00132494 -0.00109803,0.00142587 -0.000969828,0.00151598 -0.000834274,0.0015946 -0.000692394,0.00166113 -0.000545265,0.00171507 -0.000394001,0.001756 -0.000239751,0.00178362 -8.36819e-05,0.00179771 0,5.59552e-14 0,0.202194 -0.0950187,0 0,-0.202071 -7.98469e-05,-0.00183209 -0.000238935,-0.00181819 -0.000396211,-0.00179051 -0.000550483,-0.00174925 -0.00070058,-0.00169473 -0.000845365,-0.00162735 -0.000983738,-0.00154763 -0.00111465,-0.00145618 -0.00123711,-0.00135368 -0.00135019,-0.00124092 -0.00145303,-0.00111875 -0.00154485,-0.000988096 -0.00162496,-0.000849948 -0.00169275,-0.000705354 -0.00174769,-0.000555411 -0.00178939,-0.000401256 -0.544466,0 -0.00180144,7.85634e-05 -0.00178776,0.000235094 -0.00176051,0.000389839 -0.00171988,0.000541624 -0.0016662,0.000689296 -0.00159987,0.000831734 -0.00152139,0.000967857 -0.00143135,0.00109663 -0.00133045,0.00121708 -0.00121944,0.00132828 -0.00109917,0.0014294 -0.00097056,0.00151966 -0.000834577,0.00159839 -0.000692257,0.00166497 -0.000544681,0.00171892 -0.000392968,0.00175981 -0.000238272,0.00178734 -8.17659e-05,0.0018013 0,6.39488e-14 0,0.202145 -0.0991671,0 0,-0.202059 -7.98384e-05,-0.00183199 -0.00023891,-0.0018181 -0.00039617,-0.00179042 -0.000550426,-0.00174917 -0.000700508,-0.00169465 -0.000845278,-0.00162729 -0.00098364,-0.00154758 -0.00111454,-0.00145614 -0.00123699,-0.00135366 -0.00135007,-0.00124092 -0.0014529,-0.00111876 -0.00154472,-0.000988126 -0.00162483,-0.000849997 -0.00169261,-0.000705422 -0.00174756,-0.000555499 -0.00178926,-0.000401363 -9.41469e-13,-1.67866e-13 -0.63114,-2.33407e-05 -0.00180149,7.85005e-05 -0.00178781,0.000235039 -0.00176056,0.000389792 -0.00171994,0.000541585 -0.00166626,0.000689266 -0.00159993,0.000831713 -0.00152144,0.000967844 -0.00143141,0.00109662 -0.0013305,0.00121708 -0.00121949,0.00132829 -0.00109922,0.00142941 -0.000970603,0.00151968 -0.000834615,0.00159841 -0.000692289,0.00166501 -0.000544706,0.00171896 -0.000392986,0.00175985 -0.000238283,0.00178738 -8.17697e-05,0.00180134 0,3.90799e-14 0,0.202156 -0.0951183,0 0,-0.202059 -7.98384e-05,-0.00183199 -0.00023891,-0.0018181 -0.00039617,-0.00179042 -0.000550426,-0.00174917 -0.000700508,-0.00169465 -0.000845278,-0.00162729 -0.00098364,-0.00154758 -0.00111454,-0.00145614 -0.00123699,-0.00135366 -0.00135007,-0.00124092 -0.0014529,-0.00111876 -0.00154472,-0.000988126 -0.00162483,-0.000849997 -0.00169261,-0.000705422 -0.00174756,-0.000555499 -0.00178926,-0.000401363 -9.41469e-13,-1.67866e-13 -0.63114,-2.33407e-05 -0.00180149,7.85005e-05 -0.00178781,0.000235039 -0.00176056,0.000389792 -0.00171994,0.000541585 -0.00166626,0.000689266 -0.00159993,0.000831713 -0.00152144,0.000967844 -0.00143141,0.00109662 -0.0013305,0.00121708 -0.00121949,0.00132829 -0.00109922,0.00142941 -0.000970603,0.00151968 -0.000834615,0.00159841 -0.000692289,0.00166501 -0.000544706,0.00171896 -0.000392986,0.00175985 -0.000238283,0.00178738 -8.17697e-05,0.00180134 0,6.12843e-14 0,0.202156 -0.0971482,0 0,-0.202059 -7.98384e-05,-0.00183199 -0.00023891,-0.0018181 -0.00039617,-0.00179042 -0.000550426,-0.00174917 -0.000700508,-0.00169465 -0.000845278,-0.00162729 -0.00098364,-0.00154758 -0.00111454,-0.00145614 -0.00123699,-0.00135366 -0.00135007,-0.00124092 -0.0014529,-0.00111876 -0.00154472,-0.000988126 -0.00162483,-0.000849997 -0.00169261,-0.000705422 -0.00174756,-0.000555499 -0.00178926,-0.000401363 -9.41469e-13,-1.67866e-13 -0.63114,-2.33407e-05 -0.00180149,7.85005e-05 -0.00178781,0.000235039 -0.00176056,0.000389792 -0.00171994,0.000541585 -0.00166626,0.000689266 -0.00159993,0.000831713 -0.00152144,0.000967844 -0.00143141,0.00109662 -0.0013305,0.00121708 -0.00121949,0.00132829 -0.00109922,0.00142941 -0.000970603,0.00151968 -0.000834615,0.00159841 -0.000692289,0.00166501 -0.000544706,0.00171896 -0.000392986,0.00175985 -0.000238283,0.00178738 -8.17697e-05,0.00180134 0,0.202156 -0.130161,0 0,-0.264087 -7.85885e-05,-0.00180065 -0.000235168,-0.00178696 -0.000389959,-0.00175968 -0.000541784,-0.00171901 -0.000689489,-0.00166527 -0.000831951,-0.00159887 -0.000968086,-0.00152031 -0.00109686,-0.00143019 -0.00121729,-0.00132919 -0.00132846,-0.00121808 -0.00142954,-0.00109771 -0.00151973,-0.000968989 -0.00159838,-0.000832901 -0.00166486,-0.000690479 -0.00171869,-0.000542805 -0.00175945,-0.000391004 -0.00178682,-0.000236229 -0.00180061,-7.96581e-05 -4.61853e-14,0 -0.520541,0 -0.0578434,0.0991671 0.0744993,0.185588 -0.11896,0 -0.0794855,-0.193823 0.0619671,-0.0909318 -4.44089e-16,-0.537012 -0.0619671,0 0,-0.123959 0.623808,0 3.06422e-14,0 z "/>
<path fill="rgb(187,30,16)" stroke="rgb(187,30,16)" d="M 0.2,3.75 l -0.2,0 0.0142699,-0.326834 0.042701,-0.324347 0.0708072,-0.319391 0.0983745,-0.312004 0.125193,-0.302243 0.151059,-0.290182 0.175775,-0.275912 0.199154,-0.259542 0.221016,-0.241197 0.241197,-0.221016 0.259542,-0.199154 0.275912,-0.175775 0.290182,-0.151059 0.302243,-0.125193 0.312004,-0.0983745 0.319391,-0.0708072 0.324347,-0.042701 0.326834,-0.0142699 0.326834,0.0142699 0.324347,0.042701 0.319391,0.0708072 0.312004,0.0983745 0.302243,0.125193 0.290182,0.151059 0.275912,0.175775 0.259542,0.199154 0.241197,0.221016 0.221016,0.241197 0.199154,0.259542 0.175775,0.275912 0.151059,0.290182 0.125193,0.302243 0.0983745,0.312004 0.0708072,0.319391 0.042701,0.324347 0.0142699,0.326834 -0.2,0 -0.0135088,-0.309403 -0.0404237,-0.307048 -0.0670308,-0.302357 -0.0931279,-0.295364 -0.118516,-0.286123 -0.143002,-0.274705 -0.1664,-0.261196 -0.188532,-0.2457 -0.209229,-0.228333 -0.228333,-0.209229 -0.2457,-0.188532 -0.261196,-0.1664 -0.274705,-0.143002 -0.286123,-0.118516 -0.295364,-0.0931279 -0.302357,-0.0670308 -0.307048,-0.0404237 -0.309403,-0.0135088 -0.309403,0.0135088 -0.307048,0.0404237 -0.302357,0.0670308 -0.295364,0.0931279 -0.286123,0.118516 -0.274705,0.143002 -0.261196,0.1664 -0.2457,0.188532 -0.228333,0.209229 -0.209229,0.228333 -0.188532,0.2457 -0.1664,0.261196 -0.143002,0.274705 -0.118516,0.286123 -0.0931279,0.295364 -0.0670308,0.302357 -0.0404237,0.307048 -0.0135088,0.309403 z "/>
<path fill="rgb(187,30,16)" stroke="rgb(187,30,16)" d="M 0.2,3.75 l 0.0135088,0.309403 0.0404237,0.307048 0.0670308,0.302357 0.0931279,0.295364 0.118516,0.286123 0.143002,0.274705 0.1664,0.261196 0.188532,0.2457 0.209229,0.228333 0.228333,0.209229 0.2457,0.188532 0.261196,0.1664 0.274705,0.143002 0.286123,0.118516 0.295364,0.0931279 0.302357,0.0670308 0.307048,0.0404237 0.309403,0.0135088 0.309403,-0.0135088 0.307048,-0.0404237 0.302357,-0.0670308 0.295364,-0.0931279 0.286123,-0.118516 0.274705,-0.143002 0.261196,-0.1664 0.2457,-0.188532 0.228333,-0.209229 0.209229,-0.228333 0.188532,-0.2457 0.1664,-0.261196 0.143002,-0.274705 0.118516,-0.286123 0.0931279,-0.295364 0.0670308,-0.302357 0.0404237,-0.307048 0.0135088,-0.309403 0.2,0 -0.0142699,0.326834 -0.042701,0.324347 -0.0708072,0.319391 -0.0983745,0.312004 -0.125193,0.302243 -0.151059,0.290182 -0.175775,0.275912 -0.199154,0.259542 -0.221016,0.241197 -0.241197,0.221016 -0.259542,0.199154 -0.275912,0.175775 -0.290182,0.151059 -0.302243,0.125193 -0.312004,0.0983745 -0.319391,0.0708072 -0.324347,0.042701 -0.326834,0.0142699 -0.326834,-0.0142699 -0.324347,-0.042701 -0.319391,-0.0708072 -0.312004,-0.0983745 -0.302243,-0.125193 -0.290182,-0.151059 -0.275912,-0.175775 -0.259542,-0.199154 -0.241197,-0.221016 -0.221016,-0.241197 -0.199154,-0.259542 -0.175775,-0.275912 -0.151059,-0.290182 -0.125193,-0.302243 -0.0983745,-0.312004 -0.0708072,-0.319391 -0.042701,-0.324347 -0.0142699,-0.326834 0.2,0 z "/>
<path fill="rgb(187,30,16)" stroke="rgb(187,30,16)" d="M 6.4,3.75 l -0.0100841,-0.230963 -0.0301754,-0.229205 -0.0500371,-0.225703 -0.069518,-0.220483 -0.0884698,-0.213585 -0.106748,-0.205062 -0.124214,-0.194978 -0.140735,-0.18341 -0.156185,-0.170446 -0.170446,-0.156185 -0.18341,-0.140735 -0.194978,-0.124214 -0.205062,-0.106748 -0.213585,-0.0884698 -0.220483,-0.069518 -0.225703,-0.0500371 -0.229205,-0.0301754 -0.230963,-0.0100841 -0.230963,0.0100841 -0.229205,0.0301754 -0.225703,0.0500371 -0.220483,0.069518 -0.213585,0.0884698 -0.205062,0.106748 -0.194978,0.124214 -0.18341,0.140735 -0.170446,0.156185 -0.156185,0.170446 -0.140735,0.18341 -0.124214,0.194978 -0.106748,0.205062 -0.0884698,0.213585 -0.069518,0.220483 -0.0500371,0.225703 -0.0301754,0.229205 -0.0100841,0.230963 -0.7,0 0.0127478,-0.291972 0.0381463,-0.28975 0.0632545,-0.285322 0.0878812,-0.278724 0.111839,-0.270004 0.134946,-0.259229 0.157026,-0.246481 0.17791,-0.231857 0.197441,-0.215469 0.215469,-0.197441 0.231857,-0.17791 0.246481,-0.157026 0.259229,-0.134946 0.270004,-0.111839 0.278724,-0.0878812 0.285322,-0.0632545 0.28975,-0.0381463 0.291972,-0.0127478 0.291972,0.0127478 0.28975,0.0381463 0.285322,0.0632545 0.278724,0.0878812 0.270004,0.111839 0.259229,0.134946 0.246481,0.157026 0.231857,0.17791 0.215469,0.197441 0.197441,0.215469 0.17791,0.231857 0.157026,0.246481 0.134946,0.259229 0.111839,0.270004 0.0878812,0.278724 0.0632545,0.285322 0.0381463,0.28975 0.0127478,0.291972 -0.7,0 z "/>
<path fill="rgb(187,30,16)" stroke="rgb(187,30,16)" d="M 6.4,3.75 l 0.7,0 -0.0127478,0.291972 -0.0381463,0.28975 -0.0632545,0.285322 -0.0878812,0.278724 -0.111839,0.270004 -0.134946,0.259229 -0.157026,0.246481 -0.17791,0.231857 -0.197441,0.215469 -0.215469,0.197441 -0.231857,0.17791 -0.246481,0.157026 -0.259229,0.134946 -0.270004,0.111839 -0.278724,0.0878812 -0.285322,0.0632545 -0.28975,0.0381463 -0.291972,0.0127478 -0.291972,-0.0127478 -0.28975,-0.0381463 -0.285322,-0.0632545 -0.278724,-0.0878812 -0.270004,-0.111839 -0.259229,-0.134946 -0.246481,-0.157026 -0.231857,-0.17791 -0.215469,-0.197441 -0.197441,-0.215469 -0.17791,-0.231857 -0.157026,-0.246481 -0.134946,-0.259229 -0.111839,-0.270004 -0.0878812,-0.278724 -0.0632545,-0.285322 -0.0381463,-0.28975 -0.0127478,-0.291972 0.7,0 0.00125767,0.0816339 0.00377183,0.0815564 0.0062824,0.0814015 0.0312148,0.228254 0.0509215,0.22468 0.0702432,0.219409 0.0890341,0.212479 0.107152,0.203943 0.12446,0.193866 0.140828,0.182323 0.156131,0.169403 0.170254,0.155202 0.183091,0.139829 0.194543,0.123398 0.204526,0.106035 0.212962,0.087871 0.219789,0.0690425 0.224955,0.0496922 0.228421,0.0299664 0.230161,0.010014 0.230161,-0.010014 0.228421,-0.0299664 0.224955,-0.0496922 0.219789,-0.0690425 0.212962,-0.087871 0.204526,-0.106035 0.194543,-0.123398 0.183091,-0.139829 0.170254,-0.155202 0.156131,-0.169403 0.140828,-0.182323 0.12446,-0.193866 0.107152,-0.203943 0.0890341,-0.212479 0.0702432,-0.219409 0.0509215,-0.22468 0.0312148,-0.228254 0.0062824,-0.0814015 0.00377183,-0.0815564 0.00125767,-0.0816339 z "/>
</g></g></svg>
