<?xml version="1.0" encoding="UTF-8" standalone="no"?>
<!DOCTYPE svg PUBLIC "-//W3C//DTD SVG 1.1//EN" "http://www.w3.org/Graphics/SVG/1.1/DTD/svg11-flat.dtd"
[

]>
<svg xmlns="http://www.w3.org/2000/svg"  viewBox="-0.125044 -0.125044 10.2536 12.7519"><g fill="none" stroke="black" stroke-width="0.0125" transform="translate(0,12.5018) scale(1, -1)">
<g id="Output" >
<path fill="rgb(241,240,234)" stroke="rgb(241,240,234)" d="M 7.65177,6.25089 l -5.3,0 0.0100841,-0.230963 0.0301754,-0.229205 0.0500371,-0.225703 0.069518,-0.220483 0.0884698,-0.213585 0.106748,-0.205062 0.124214,-0.194978 0.140735,-0.18341 0.156185,-0.170446 0.170446,-0.156185 0.18341,-0.140735 0.194978,-0.124214 0.205062,-0.106748 0.213585,-0.0884698 0.220483,-0.069518 0.225703,-0.0500371 0.229205,-0.0301754 0.230963,-0.0100841 0.230963,0.0100841 0.229205,0.0301754 0.225703,0.0500371 0.220483,0.069518 0.213585,0.0884698 0.205062,0.106748 0.194978,0.124214 0.18341,0.140735 0.170446,0.156185 0.156185,0.170446 0.140735,0.18341 0.124214,0.194978 0.106748,0.205062 0.0884698,0.213585 0.069518,0.220483 0.0500371,0.225703 0.0301754,0.229205 0.0100841,0.230963 z "/>
<path fill="rgb(241,240,234)" stroke="rgb(241,240,234)" d="M 7.65177,6.25089 l -0.0100841,0.230963 -0.0301754,0.229205 -0.0500371,0.225703 -0.069518,0.220483 -0.0884698,0.213585 -0.106748,0.205062 -0.124214,0.194978 -0.140735,0.18341 -0.156185,0.170446 -0.170446,0.156185 -0.18341,0.140735 -0.194978,0.124214 -0.205062,0.106748 -0.213585,0.0884698 -0.220483,0.069518 -0.225703,0.0500371 -0.229205,0.0301754 -0.230963,0.0100841 -0.230963,-0.0100841 -0.229205,-0.0301754 -0.225703,-0.0500371 -0.220483,-0.069518 -0.213585,-0.0884698 -0.205062,-0.106748 -0.194978,-0.124214 -0.18341,-0.140735 -0.170446,-0.156185 -0.156185,-0.170446 -0.140735,-0.18341 -0.124214,-0.194978 -0.106748,-0.205062 -0.0884698,-0.213585 -0.069518,-0.220483 -0.0500371,-0.225703 -0.0301754,-0.229205 -0.0100841,-0.230963 5.3,0 z "/>
<path fill="rgb(241,240,234)" stroke="rgb(241,240,234)" d="M 1.45177,6.25089 l 0.0135088,-0.309403 0.0404237,-0.307048 0.0670308,-0.302357 0.0931279,-0.295364 0.118516,-0.286123 0.143002,-0.274705 0.1664,-0.261196 0.188532,-0.2457 0.209229,-0.228333 0.228333,-0.209229 0.2457,-0.188532 0.261196,-0.1664 0.274705,-0.143002 0.286123,-0.118516 0.295364,-0.0931279 0.302357,-0.0670308 0.307048,-0.0404237 0.309403,-0.0135088 0.309403,0.0135088 0.307048,0.0404237 0.302357,0.0670308 0.295364,0.0931279 0.286123,0.118516 0.274705,0.143002 0.261196,0.1664 0.2457,0.188532 0.228333,0.209229 0.209229,0.228333 0.188532,0.2457 0.1664,0.261196 0.143002,0.274705 0.118516,0.286123 0.0931279,0.295364 0.0670308,0.302357 0.0404237,0.307048 0.0135088,0.309403 -0.2,0 -0.0127478,-0.291972 -0.0381463,-0.28975 -0.0632545,-0.285322 -0.0878812,-0.278724 -0.111839,-0.270004 -0.134946,-0.259229 -0.157026,-0.246481 -0.17791,-0.231857 -0.197441,-0.215469 -0.215469,-0.197441 -0.231857,-0.17791 -0.246481,-0.157026 -0.259229,-0.134946 -0.270004,-0.111839 -0.278724,-0.0878812 -0.285322,-0.0632545 -0.28975,-0.0381463 -0.291972,-0.0127478 -0.291972,0.0127478 -0.28975,0.0381463 -0.285322,0.0632545 -0.278724,0.0878812 -0.270004,0.111839 -0.259229,0.134946 -0.246481,0.157026 -0.231857,0.17791 -0.215469,0.197441 -0.197441,0.215469 -0.17791,0.231857 -0.157026,0.246481 -0.134946,0.259229 -0.111839,0.270004 -0.0878812,0.278724 -0.0632545,0.285322 -0.0381463,0.28975 -0.0127478,0.291972 -0.2,0 z "/>
<path fill="rgb(241,240,234)" stroke="rgb(241,240,234)" d="M 1.45177,6.25089 l 0.2,0 0.0127478,0.291972 0.0381463,0.28975 0.0632545,0.285322 0.0878812,0.278724 0.111839,0.270004 0.134946,0.259229 0.157026,0.246481 0.17791,0.231857 0.197441,0.215469 0.215469,0.197441 0.231857,0.17791 0.246481,0.157026 0.259229,0.134946 0.270004,0.111839 0.278724,0.0878812 0.285322,0.0632545 0.28975,0.0381463 0.291972,0.0127478 0.291972,-0.0127478 0.28975,-0.0381463 0.285322,-0.0632545 0.278724,-0.0878812 0.270004,-0.111839 0.259229,-0.134946 0.246481,-0.157026 0.231857,-0.17791 0.215469,-0.197441 0.197441,-0.215469 0.17791,-0.231857 0.157026,-0.246481 0.134946,-0.259229 0.111839,-0.270004 0.0878812,-0.278724 0.0632545,-0.285322 0.0381463,-0.28975 0.0127478,-0.291972 0.2,0 -0.0135088,0.309403 -0.0404237,0.307048 -0.0670308,0.302357 -0.0931279,0.295364 -0.118516,0.286123 -0.143002,0.274705 -0.1664,0.261196 -0.188532,0.2457 -0.209229,0.228333 -0.228333,0.209229 -0.2457,0.188532 -0.261196,0.1664 -0.274705,0.143002 -0.286123,0.118516 -0.295364,0.0931279 -0.302357,0.0670308 -0.307048,0.0404237 -0.309403,0.0135088 -0.309403,-0.0135088 -0.307048,-0.0404237 -0.302357,-0.0670308 -0.295364,-0.0931279 -0.286123,-0.118516 -0.274705,-0.143002 -0.261196,-0.1664 -0.2457,-0.188532 -0.228333,-0.209229 -0.209229,-0.228333 -0.188532,-0.2457 -0.1664,-0.261196 -0.143002,-0.274705 -0.118516,-0.286123 -0.0931279,-0.295364 -0.0670308,-0.302357 -0.0404237,-0.307048 -0.0135088,-0.309403 z "/>
<path fill="rgb(241,240,234)" stroke="rgb(241,240,234)" d="M 0.508116,6.25089 l 0,-5.49085 0.000998892,-0.0228784 0.00298907,-0.0227043 0.00495651,-0.0223574 0.00688622,-0.0218403 0.00876352,-0.021157 0.0105741,-0.0203127 0.0123043,-0.0193138 0.0139407,-0.0181679 0.0154711,-0.0168838 0.0168838,-0.0154711 0.0181679,-0.0139407 0.0193138,-0.0123043 0.0203127,-0.0105741 0.021157,-0.00876352 0.0218403,-0.00688622 0.0223574,-0.00495651 0.0227043,-0.00298907 0.0228784,-0.000998892 8.47818,8.88178e-15 0.0228784,0.000998892 0.0227043,0.00298907 0.0223574,0.00495651 0.0218403,0.00688622 0.021157,0.00876352 0.0203127,0.0105741 0.0193138,0.0123043 0.0181679,0.0139407 0.0168838,0.0154711 0.0154711,0.0168838 0.0139407,0.0181679 0.0123043,0.0193138 0.0105741,0.0203127 0.00876352,0.021157 0.00688622,0.0218403 0.00495651,0.0223574 0.00298907,0.0227043 0.000998892,0.0228784 1.77636e-15,5.49085 -0.759525,-8.88178e-16 -0.0142699,-0.326834 -0.042701,-0.324347 -0.0708072,-0.319391 -0.0983745,-0.312004 -0.125193,-0.302243 -0.151059,-0.290182 -0.175775,-0.275912 -0.199154,-0.259542 -0.221016,-0.241197 -0.241197,-0.221016 -0.259542,-0.199154 -0.275912,-0.175775 -0.290182,-0.151059 -0.302243,-0.125193 -0.312004,-0.0983745 -0.319391,-0.0708072 -0.324347,-0.042701 -0.326834,-0.0142699 -0.326834,0.0142699 -0.324347,0.042701 -0.319391,0.0708072 -0.312004,0.0983745 -0.302243,0.125193 -0.290182,0.151059 -0.275912,0.175775 -0.259542,0.199154 -0.241197,0.221016 -0.221016,0.241197 -0.199154,0.259542 -0.175775,0.275912 -0.151059,0.290182 -0.125193,0.302243 -0.0983745,0.312004 -0.0708072,0.319391 -0.042701,0.324347 -0.0142699,0.326834 -0.743653,0 z "/>
<path fill="rgb(241,240,234)" stroke="rgb(241,240,234)" d="M 10.0035,6.25089 l -0.229744,0 0,-5.49085 -0.00199778,-0.0457568 -0.00597815,-0.0454085 -0.00991301,-0.0447147 -0.0137724,-0.0436806 -0.017527,-0.042314 -0.0211483,-0.0406254 -0.0246085,-0.0386276 -0.0278815,-0.0363359 -0.0309423,-0.0337676 -0.0337676,-0.0309423 -0.0363359,-0.0278815 -0.0386276,-0.0246085 -0.0406254,-0.0211483 -0.042314,-0.017527 -0.0436806,-0.0137724 -0.0447147,-0.00991301 -0.0454085,-0.00597815 -0.0457568,-0.00199778 -8.47818,-7.99361e-15 -0.0457568,0.00199778 -0.0454085,0.00597815 -0.0447147,0.00991301 -0.0436806,0.0137724 -0.042314,0.017527 -0.0406254,0.0211483 -0.0386276,0.0246085 -0.0363359,0.0278815 -0.0337676,0.0309423 -0.0309423,0.0337676 -0.0278815,0.0363359 -0.0246085,0.0386276 -0.0211483,0.0406254 -0.017527,0.042314 -0.0137724,0.0436806 -0.00991301,0.0447147 -0.00597815,0.0454085 -0.00199778,0.0457568 0,5.49085 -0.245616,1.77636e-15 0,-6.25089 10.0035,1.77636e-15 -1.77636e-15,6.25089 z "/>
<path fill="rgb(241,240,234)" stroke="rgb(241,240,234)" d="M 10.0035,6.25089 l -1.77636e-15,6.25089 -10.0035,0 0,-6.25089 0.245616,-1.77636e-15 0,5.48553 0.00199778,0.0457568 0.00597815,0.0454085 0.00991301,0.0447147 0.0137724,0.0436806 0.017527,0.042314 0.0211483,0.0406254 0.0246085,0.0386276 0.0278815,0.0363359 0.0309423,0.0337676 0.0337676,0.0309423 0.0363359,0.0278815 0.0386276,0.0246085 0.0406254,0.0211483 0.042314,0.017527 0.0436806,0.0137724 0.0447147,0.00991301 0.0454085,0.00597815 0.0457568,0.00199778 8.47818,1.06581e-14 0.0457568,-0.00199778 0.0454085,-0.00597815 0.0447147,-0.00991301 0.0436806,-0.0137724 0.042314,-0.017527 0.0406254,-0.0211483 0.0386276,-0.0246085 0.0363359,-0.0278815 0.0337676,-0.0309423 0.0309423,-0.0337676 0.0278815,-0.0363359 0.0246085,-0.0386276 0.0211483,-0.0406254 0.017527,-0.042314 0.0137724,-0.0436806 0.00991301,-0.0447147 0.00597815,-0.0454085 0.00199778,-0.0457568 1.77636e-15,-5.48553 0.229744,0 z "/>
<path fill="rgb(241,240,234)" stroke="rgb(241,240,234)" d="M 0.508116,6.25089 l 0.743653,0 0.0142699,0.326834 0.042701,0.324347 0.0708072,0.319391 0.0983745,0.312004 0.125193,0.302243 0.151059,0.290182 0.175775,0.275912 0.199154,0.259542 0.221016,0.241197 0.241197,0.221016 0.259542,0.199154 0.275912,0.175775 0.290182,0.151059 0.302243,0.125193 0.312004,0.0983745 0.319391,0.0708072 0.324347,0.042701 0.326834,0.0142699 0.326834,-0.0142699 0.324347,-0.042701 0.319391,-0.0708072 0.312004,-0.0983745 0.302243,-0.125193 0.290182,-0.151059 0.275912,-0.175775 0.259542,-0.199154 0.241197,-0.221016 0.221016,-0.241197 0.199154,-0.259542 0.175775,-0.275912 0.151059,-0.290182 0.125193,-0.302243 0.0983745,-0.312004 0.0708072,-0.319391 0.042701,-0.324347 0.0142699,-0.326834 0.759525,8.88178e-16 -1.77636e-15,5.48553 -0.000998892,0.0228784 -0.00298907,0.0227043 -0.00495651,0.0223574 -0.00688622,0.0218403 -0.00876352,0.021157 -0.0105741,0.0203127 -0.0123043,0.0193138 -0.0139407,0.0181679 -0.0154711,0.0168838 -0.0168838,0.0154711 -0.0181679,0.0139407 -0.0193138,0.0123043 -0.0203127,0.0105741 -0.021157,0.00876352 -0.0218403,0.00688622 -0.0223574,0.00495651 -0.0227043,0.00298907 -0.0228784,0.000998892 -8.47818,-8.88178e-15 -0.0228784,-0.000998892 -0.0227043,-0.00298907 -0.0223574,-0.00495651 -0.0218403,-0.00688622 -0.021157,-0.00876352 -0.0203127,-0.0105741 -0.0193138,-0.0123043 -0.0181679,-0.0139407 -0.0168838,-0.0154711 -0.0154711,-0.0168838 -0.0139407,-0.0181679 -0.0123043,-0.0193138 -0.0105741,-0.0203127 -0.00876352,-0.021157 -0.00688622,-0.0218403 -0.00495651,-0.0223574 -0.00298907,-0.0227043 -0.000998892,-0.0228784 0,-5.48553 z "/>
<path fill="rgb(42,41,42)" stroke="rgb(42,41,42)" d="M 6.29356,7.54237 l -0.0173128,0 -0.140076,-0.00944333 -0.130633,-0.0251822 -0.121189,-0.0409211 -0.111746,-0.05666 -0.102303,-0.070825 -0.0944333,-0.0881378 -0.0834161,-0.102303 -0.00472167,-0.00629555 -0.0645294,-0.103877 -0.05666,-0.110172 -0.0456428,-0.119616 -0.0346255,-0.125911 -0.0251822,-0.135354 -0.0157389,-0.14165 -0.00472167,-0.151093 0,-0.00944333 0.00629555,-0.149519 0.0157389,-0.14165 0.0251822,-0.133781 0.0346255,-0.127485 0.0456428,-0.118042 0.0550861,-0.111746 0.0661033,-0.103877 0.014165,-0.0204606 0.08499,-0.100729 0.0928594,-0.0865639 0.103877,-0.0692511 0.11332,-0.0535122 0.121189,-0.0393472 0.132207,-0.0236083 0.14165,-0.00786944 0.0361994,0.00157389 0.138502,0.0110172 0.129059,0.0267561 0.119616,0.0440689 0.108598,0.0582339 0.100729,0.0739728 0.0912855,0.0912855 0.0802683,0.105451 0.00157389,0.00157389 -0.805831,0.0346255 -0.132207,0.0125911 -0.121189,0.042495 -0.103877,0.0692511 -0.0865639,0.0975811 -0.05666,0.0960072 -0.0456428,0.111746 -0.0330517,0.127485 -0.0188867,0.14165 -0.00629555,0.157389 0,0.0503644 0.0125911,0.143224 0.0267561,0.132207 0.0393472,0.121189 0.0550861,0.110172 0.0330517,0.0503644 0.0881378,0.099155 0.102303,0.070825 0.116468,0.042495 0.130633,0.014165 0.801109,0.0440689 -0.014165,0.0188867 -0.0834161,0.100729 -0.0928594,0.0865639 -0.102303,0.070825 -0.11332,0.0535122 -0.121189,0.0393472 -0.132207,0.0236083 -0.14165,0.00786944 z "/>
<path fill="rgb(42,41,42)" stroke="rgb(42,41,42)" d="M 7.09467,7.14103 l -0.801109,-0.0440689 0.129059,-0.0125911 0.119616,-0.0409211 0.103877,-0.0692511 0.0881378,-0.099155 0.0503644,-0.0834161 0.0456428,-0.111746 0.0330517,-0.125911 0.0204606,-0.14165 0.00629555,-0.152667 -0.00472167,-0.130633 -0.0188867,-0.14165 -0.0314778,-0.129059 -0.0456428,-0.114894 -0.0582339,-0.103877 -0.08499,-0.100729 -0.102303,-0.0723989 -0.116468,-0.0456428 -0.133781,-0.014165 0.805831,-0.0346255 0.0629555,0.103877 0.0535122,0.11332 0.0440689,0.119616 0.0346255,0.127485 0.0236083,0.133781 0.0157389,0.143224 0.00472167,0.149519 -0.00472167,0.138502 -0.014165,0.14165 -0.0251822,0.135354 -0.0346255,0.125911 -0.0456428,0.119616 -0.0550861,0.11332 -0.0645294,0.103877 z "/>
<path fill="rgb(42,41,42)" stroke="rgb(42,41,42)" d="M 4.55284,7.50145 l -1.66832,0 -0.0755467,-1.17255 0.928594,-0.0220344 0.0267561,0 0.155815,-0.014165 0.124337,-0.0330517 0.0928594,-0.0550861 0.0881378,-0.0944333 0.0550861,-0.11332 0.0173128,-0.135354 -0.0157389,-0.125911 -0.0535122,-0.11332 -0.0912855,-0.0912855 -0.0503644,-0.0330517 -0.111746,-0.0472167 -0.132207,-0.0267561 -0.154241,-0.00944333 0.901838,-0.0440689 0.0661033,0.110172 0.0472167,0.118042 0.02833,0.127485 0.00944333,0.135354 -0.00157389,0.0692511 -0.0188867,0.132207 -0.0361994,0.124337 -0.0550861,0.116468 -0.0723989,0.105451 -0.0928594,0.0975811 -0.0771205,0.0645294 -0.107024,0.0692511 -0.116468,0.0535122 -0.882951,0.00944333 0.0267561,0.357273 1.23393,0 0.0110172,0.440689 z "/>
<path fill="rgb(42,41,42)" stroke="rgb(42,41,42)" d="M 3.76275,6.76172 l -0.0676772,-0.00157389 -0.127485,-0.00944333 -0.136928,-0.0188867 -0.149519,-0.02833 0.882951,-0.00944333 -0.124337,0.0377733 -0.133781,0.0220344 -0.143224,0.00786944 z "/>
<path fill="rgb(42,41,42)" stroke="rgb(42,41,42)" d="M 2.80897,6.3289 l 0.446984,-0.116468 0.0865639,0.0299039 0.130633,0.0361994 0.132207,0.0204606 0.132207,0.00786944 -0.928594,0.0220344 z "/>
<path fill="rgb(42,41,42)" stroke="rgb(42,41,42)" d="M 2.96478,5.61436 l -0.236083,-0.376159 0.0692511,-0.0393472 0.122763,-0.0645294 0.125911,-0.0535122 0.125911,-0.0440689 0.127485,-0.0346255 0.129059,-0.0236083 0.129059,-0.0157389 0.130633,-0.00472167 0.0236083,0 0.146372,0.00944333 0.135354,0.0220344 0.127485,0.0361994 0.118042,0.0487905 0.108598,0.0629555 0.099155,0.0755467 0.0598078,0.05666 0.0834161,0.100729 -0.901838,0.0440689 -0.0912855,0.00157389 -0.133781,0.0157389 -0.129059,0.0267561 -0.127485,0.0393472 -0.122763,0.0519383 -0.119616,0.0645294 z "/>
<path fill="rgb(42,41,42)" stroke="rgb(42,41,42)" d="M 6.92626,11.4645 l -0.730284,0 0,-0.999419 0.746023,0 0,0.179423 -0.563452,0 0,0.272283 0.299039,0 0,0.182571 -0.299039,0 0,0.187293 0.547713,0 0,0.177849 z "/>
<path fill="rgb(42,41,42)" stroke="rgb(42,41,42)" d="M 5.93629,11.4645 l -0.171554,0 0,-0.659459 0.0188867,-0.33996 0.152667,0 0,0.999419 z "/>
<path fill="rgb(42,41,42)" stroke="rgb(42,41,42)" d="M 5.30673,11.4645 l 0,-0.31163 0.476888,-0.687789 -0.0188867,0.33996 -0.458002,0.659459 z "/>
<path fill="rgb(42,41,42)" stroke="rgb(42,41,42)" d="M 5.30673,11.4645 l -0.174702,0 0,-0.999419 0.174702,0 0,0.687789 0,0.31163 z "/>
<path fill="rgb(42,41,42)" stroke="rgb(42,41,42)" d="M 4.48674,11.4818 l -0.0125911,0 -0.0881378,-0.0110172 -0.0802683,-0.0251822 -0.0692511,-0.042495 -0.0613817,-0.0582339 -0.02833,-0.0409211 0.33996,0 0.0377733,-0.00314778 0.0771205,-0.02833 0.0598078,-0.0582339 0.0330517,-0.0661033 0.0204606,-0.0834161 0.00629555,-0.0975811 -0.00314778,-0.070825 -0.0157389,-0.0865639 -0.02833,-0.0723989 -0.0377733,-0.0519383 -0.0661033,-0.0440689 -0.0834161,-0.014165 -0.322647,-0.014165 0.0251822,-0.0330517 0.0598078,-0.05666 0.0692511,-0.042495 0.0802683,-0.0251822 0.0881378,-0.00786944 0.00629555,0 0.0865639,0.00944333 0.0786944,0.02833 0.0692511,0.0440689 0.0598078,0.0629555 0.02833,0.0409211 0.0377733,0.070825 0.0251822,0.0802683 0.0157389,0.0881378 0.00472167,0.0975811 -0.00157389,0.05666 -0.0110172,0.0912855 -0.0236083,0.0834161 -0.0330517,0.0739728 -0.0440689,0.0661033 -0.00157389,0.00157389 -0.0598078,0.0598078 -0.070825,0.0440689 -0.0786944,0.0251822 -0.0881378,0.00944333 z "/>
<path fill="rgb(42,41,42)" stroke="rgb(42,41,42)" d="M 4.14678,11.304 l -0.0361994,-0.0692511 -0.0267561,-0.0802683 -0.0157389,-0.0881378 -0.00472167,-0.099155 0,-0.0299039 0.00944333,-0.0928594 0.0204606,-0.0834161 0.0299039,-0.0786944 0.0409211,-0.0692511 0.322647,0.014165 -0.0393472,0.00314778 -0.0771205,0.02833 -0.0598078,0.0582339 -0.00157389,0.00157389 -0.0346255,0.0676772 -0.0220344,0.0834161 -0.00629555,0.0975811 0.00629555,0.0975811 0.0220344,0.0818422 0.0361994,0.0676772 0.0236083,0.02833 0.0676772,0.0456428 0.08499,0.0157389 -0.33996,0 z "/>
<path fill="rgb(42,41,42)" stroke="rgb(42,41,42)" d="M 3.89653,11.4645 l -0.753893,0 0,-0.176276 0.536696,0 -0.568174,-0.620112 0,-0.203032 0.78537,0 0,0.179423 -0.563452,0 0.563452,0.616964 0,0.203032 z "/>
<path fill="rgb(187,30,16)" stroke="rgb(187,30,16)" d="M 1.45177,6.25089 l -0.2,0 0.0142699,-0.326834 0.042701,-0.324347 0.0708072,-0.319391 0.0983745,-0.312004 0.125193,-0.302243 0.151059,-0.290182 0.175775,-0.275912 0.199154,-0.259542 0.221016,-0.241197 0.241197,-0.221016 0.259542,-0.199154 0.275912,-0.175775 0.290182,-0.151059 0.302243,-0.125193 0.312004,-0.0983745 0.319391,-0.0708072 0.324347,-0.042701 0.326834,-0.0142699 0.326834,0.0142699 0.324347,0.042701 0.319391,0.0708072 0.312004,0.0983745 0.302243,0.125193 0.290182,0.151059 0.275912,0.175775 0.259542,0.199154 0.241197,0.221016 0.221016,0.241197 0.199154,0.259542 0.175775,0.275912 0.151059,0.290182 0.125193,0.302243 0.0983745,0.312004 0.0708072,0.319391 0.042701,0.324347 0.0142699,0.326834 -0.2,0 -0.0135088,-0.309403 -0.0404237,-0.307048 -0.0670308,-0.302357 -0.0931279,-0.295364 -0.118516,-0.286123 -0.143002,-0.274705 -0.1664,-0.261196 -0.188532,-0.2457 -0.209229,-0.228333 -0.228333,-0.209229 -0.2457,-0.188532 -0.261196,-0.1664 -0.274705,-0.143002 -0.286123,-0.118516 -0.295364,-0.0931279 -0.302357,-0.0670308 -0.307048,-0.0404237 -0.309403,-0.0135088 -0.309403,0.0135088 -0.307048,0.0404237 -0.302357,0.0670308 -0.295364,0.0931279 -0.286123,0.118516 -0.274705,0.143002 -0.261196,0.1664 -0.2457,0.188532 -0.228333,0.209229 -0.209229,0.228333 -0.188532,0.2457 -0.1664,0.261196 -0.143002,0.274705 -0.118516,0.286123 -0.0931279,0.295364 -0.0670308,0.302357 -0.0404237,0.307048 -0.0135088,0.309403 z "/>
<path fill="rgb(187,30,16)" stroke="rgb(187,30,16)" d="M 1.45177,6.25089 l 0.0135088,0.309403 0.0404237,0.307048 0.0670308,0.302357 0.0931279,0.295364 0.118516,0.286123 0.143002,0.274705 0.1664,0.261196 0.188532,0.2457 0.209229,0.228333 0.228333,0.209229 0.2457,0.188532 0.261196,0.1664 0.274705,0.143002 0.286123,0.118516 0.295364,0.0931279 0.302357,0.0670308 0.307048,0.0404237 0.309403,0.0135088 0.309403,-0.0135088 0.307048,-0.0404237 0.302357,-0.0670308 0.295364,-0.0931279 0.286123,-0.118516 0.274705,-0.143002 0.261196,-0.1664 0.2457,-0.188532 0.228333,-0.209229 0.209229,-0.228333 0.188532,-0.2457 0.1664,-0.261196 0.143002,-0.274705 0.118516,-0.286123 0.0931279,-0.295364 0.0670308,-0.302357 0.0404237,-0.307048 0.0135088,-0.309403 0.2,0 -0.0142699,0.326834 -0.042701,0.324347 -0.0708072,0.319391 -0.0983745,0.312004 -0.125193,0.302243 -0.151059,0.290182 -0.175775,0.275912 -0.199154,0.259542 -0.221016,0.241197 -0.241197,0.221016 -0.259542,0.199154 -0.275912,0.175775 -0.290182,0.151059 -0.302243,0.125193 -0.312004,0.0983745 -0.319391,0.0708072 -0.324347,0.042701 -0.326834,0.0142699 -0.326834,-0.0142699 -0.324347,-0.042701 -0.319391,-0.0708072 -0.312004,-0.0983745 -0.302243,-0.125193 -0.290182,-0.151059 -0.275912,-0.175775 -0.259542,-0.199154 -0.241197,-0.221016 -0.221016,-0.241197 -0.199154,-0.259542 -0.175775,-0.275912 -0.151059,-0.290182 -0.125193,-0.302243 -0.0983745,-0.312004 -0.0708072,-0.319391 -0.042701,-0.324347 -0.0142699,-0.326834 0.2,0 z "/>
<path fill="rgb(187,30,16)" stroke="rgb(187,30,16)" d="M 7.65177,6.25089 l -0.0100841,-0.230963 -0.0301754,-0.229205 -0.0500371,-0.225703 -0.069518,-0.220483 -0.0884698,-0.213585 -0.106748,-0.205062 -0.124214,-0.194978 -0.140735,-0.18341 -0.156185,-0.170446 -0.170446,-0.156185 -0.18341,-0.140735 -0.194978,-0.124214 -0.205062,-0.106748 -0.213585,-0.0884698 -0.220483,-0.069518 -0.225703,-0.0500371 -0.229205,-0.0301754 -0.230963,-0.0100841 -0.230963,0.0100841 -0.229205,0.0301754 -0.225703,0.0500371 -0.220483,0.069518 -0.213585,0.0884698 -0.205062,0.106748 -0.194978,0.124214 -0.18341,0.140735 -0.170446,0.156185 -0.156185,0.170446 -0.140735,0.18341 -0.124214,0.194978 -0.106748,0.205062 -0.0884698,0.213585 -0.069518,0.220483 -0.0500371,0.225703 -0.0301754,0.229205 -0.0100841,0.230963 -0.7,0 0.0127478,-0.291972 0.0381463,-0.28975 0.0632545,-0.285322 0.0878812,-0.278724 0.111839,-0.270004 0.134946,-0.259229 0.157026,-0.246481 0.17791,-0.231857 0.197441,-0.215469 0.215469,-0.197441 0.231857,-0.17791 0.246481,-0.157026 0.259229,-0.134946 0.270004,-0.111839 0.278724,-0.0878812 0.285322,-0.0632545 0.28975,-0.0381463 0.291972,-0.0127478 0.291972,0.0127478 0.28975,0.0381463 0.285322,0.0632545 0.278724,0.0878812 0.270004,0.111839 0.259229,0.134946 0.246481,0.157026 0.231857,0.17791 0.215469,0.197441 0.197441,0.215469 0.17791,0.231857 0.157026,0.246481 0.134946,0.259229 0.111839,0.270004 0.0878812,0.278724 0.0632545,0.285322 0.0381463,0.28975 0.0127478,0.291972 -0.7,0 z "/>
<path fill="rgb(187,30,16)" stroke="rgb(187,30,16)" d="M 7.65177,6.25089 l 0.7,0 -0.0127478,0.291972 -0.0381463,0.28975 -0.0632545,0.285322 -0.0878812,0.278724 -0.111839,0.270004 -0.134946,0.259229 -0.157026,0.246481 -0.17791,0.231857 -0.197441,0.215469 -0.215469,0.197441 -0.231857,0.17791 -0.246481,0.157026 -0.259229,0.134946 -0.270004,0.111839 -0.278724,0.0878812 -0.285322,0.0632545 -0.28975,0.0381463 -0.291972,0.0127478 -0.291972,-0.0127478 -0.28975,-0.0381463 -0.285322,-0.0632545 -0.278724,-0.0878812 -0.270004,-0.111839 -0.259229,-0.134946 -0.246481,-0.157026 -0.231857,-0.17791 -0.215469,-0.197441 -0.197441,-0.215469 -0.17791,-0.231857 -0.157026,-0.246481 -0.134946,-0.259229 -0.111839,-0.270004 -0.0878812,-0.278724 -0.0632545,-0.285322 -0.0381463,-0.28975 -0.0127478,-0.291972 0.7,0 0.0100841,0.230963 0.0301754,0.229205 0.0500371,0.225703 0.069518,0.220483 0.0884698,0.213585 0.106748,0.205062 0.124214,0.194978 0.140735,0.18341 0.156185,0.170446 0.170446,0.156185 0.18341,0.140735 0.194978,0.124214 0.205062,0.106748 0.213585,0.0884698 0.220483,0.069518 0.225703,0.0500371 0.229205,0.0301754 0.230963,0.0100841 0.230963,-0.0100841 0.229205,-0.0301754 0.225703,-0.0500371 0.220483,-0.069518 0.213585,-0.0884698 0.205062,-0.106748 0.194978,-0.124214 0.18341,-0.140735 0.170446,-0.156185 0.156185,-0.170446 0.140735,-0.18341 0.124214,-0.194978 0.106748,-0.205062 0.0884698,-0.213585 0.069518,-0.220483 0.0500371,-0.225703 0.0301754,-0.229205 0.0100841,-0.230963 z "/>
<path fill="rgb(42,41,42)" stroke="rgb(42,41,42)" d="M 0.508116,6.25089 l 0,5.48553 0.000998892,0.0228784 0.00298907,0.0227043 0.00495651,0.0223574 0.00688622,0.0218403 0.00876352,0.021157 0.0105741,0.0203127 0.0123043,0.0193138 0.0139407,0.0181679 0.0154711,0.0168838 0.0168838,0.0154711 0.0181679,0.0139407 0.0193138,0.0123043 0.0203127,0.0105741 0.021157,0.00876352 0.0218403,0.00688622 0.0223574,0.00495651 0.0227043,0.00298907 0.0228784,0.000998892 8.47818,8.88178e-15 0.0228784,-0.000998892 0.0227043,-0.00298907 0.0223574,-0.00495651 0.0218403,-0.00688622 0.021157,-0.00876352 0.0203127,-0.0105741 0.0193138,-0.0123043 0.0181679,-0.0139407 0.0168838,-0.0154711 0.0154711,-0.0168838 0.0139407,-0.0181679 0.0123043,-0.0193138 0.0105741,-0.0203127 0.00876352,-0.021157 0.00688622,-0.0218403 0.00495651,-0.0223574 0.00298907,-0.0227043 0.000998892,-0.0228784 1.77636e-15,-5.48553 0.2625,-8.88178e-16 -1.77636e-15,5.48553 -0.00199778,0.0457568 -0.00597815,0.0454085 -0.00991301,0.0447147 -0.0137724,0.0436806 -0.017527,0.042314 -0.0211483,0.0406254 -0.0246085,0.0386276 -0.0278815,0.0363359 -0.0309423,0.0337676 -0.0337676,0.0309423 -0.0363359,0.0278815 -0.0386276,0.0246085 -0.0406254,0.0211483 -0.042314,0.017527 -0.0436806,0.0137724 -0.0447147,0.00991301 -0.0454085,0.00597815 -0.0457568,0.00199778 -8.47818,-1.06581e-14 -0.0457568,-0.00199778 -0.0454085,-0.00597815 -0.0447147,-0.00991301 -0.0436806,-0.0137724 -0.042314,-0.017527 -0.0406254,-0.0211483 -0.0386276,-0.0246085 -0.0363359,-0.0278815 -0.0337676,-0.0309423 -0.0309423,-0.0337676 -0.0278815,-0.0363359 -0.0246085,-0.0386276 -0.0211483,-0.0406254 -0.017527,-0.042314 -0.0137724,-0.0436806 -0.00991301,-0.0447147 -0.00597815,-0.0454085 -0.00199778,-0.0457568 0,-5.48553 0.2625,8.88178e-16 z "/>
<path fill="rgb(42,41,42)" stroke="rgb(42,41,42)" d="M 0.508116,6.25089 l -0.2625,-8.88178e-16 0,-5.49085 0.00199778,-0.0457568 0.00597815,-0.0454085 0.00991301,-0.0447147 0.0137724,-0.0436806 0.017527,-0.042314 0.0211483,-0.0406254 0.0246085,-0.0386276 0.0278815,-0.0363359 0.0309423,-0.0337676 0.0337676,-0.0309423 0.0363359,-0.0278815 0.0386276,-0.0246085 0.0406254,-0.0211483 0.042314,-0.017527 0.0436806,-0.0137724 0.0447147,-0.00991301 0.0454085,-0.00597815 0.0457568,-0.00199778 8.47818,7.99361e-15 0.0457568,0.00199778 0.0454085,0.00597815 0.0447147,0.00991301 0.0436806,0.0137724 0.042314,0.017527 0.0406254,0.0211483 0.0386276,0.0246085 0.0363359,0.0278815 0.0337676,0.0309423 0.0309423,0.0337676 0.0278815,0.0363359 0.0246085,0.0386276 0.0211483,0.0406254 0.017527,0.042314 0.0137724,0.0436806 0.00991301,0.0447147 0.00597815,0.0454085 0.00199778,0.0457568 0,5.49085 -0.2625,8.88178e-16 -1.77636e-15,-5.49085 -0.000998892,-0.0228784 -0.00298907,-0.0227043 -0.00495651,-0.0223574 -0.00688622,-0.0218403 -0.00876352,-0.021157 -0.0105741,-0.0203127 -0.0123043,-0.0193138 -0.0139407,-0.0181679 -0.0154711,-0.0168838 -0.0168838,-0.0154711 -0.0181679,-0.0139407 -0.0193138,-0.0123043 -0.0203127,-0.0105741 -0.021157,-0.00876352 -0.0218403,-0.00688622 -0.0223574,-0.00495651 -0.0227043,-0.00298907 -0.0228784,-0.000998892 -8.47818,-8.88178e-15 -0.0228784,0.000998892 -0.0227043,0.00298907 -0.0223574,0.00495651 -0.0218403,0.00688622 -0.021157,0.00876352 -0.0203127,0.0105741 -0.0193138,0.0123043 -0.0181679,0.0139407 -0.0168838,0.0154711 -0.0154711,0.0168838 -0.0139407,0.0181679 -0.0123043,0.0193138 -0.0105741,0.0203127 -0.00876352,0.021157 -0.00688622,0.0218403 -0.00495651,0.0223574 -0.00298907,0.0227043 -0.000998892,0.0228784 0,5.49085 z "/>
</g></g></svg>
