<?xml version="1.0" encoding="UTF-8" standalone="no"?>
<!DOCTYPE svg PUBLIC "-//W3C//DTD SVG 1.1//EN" "http://www.w3.org/Graphics/SVG/1.1/DTD/svg11-flat.dtd"
[

]>
<svg xmlns="http://www.w3.org/2000/svg"  viewBox="-0.112544 -0.112544 9.22863 11.9769"><g fill="none" stroke="black" stroke-width="0.0125" transform="translate(0,11.7518) scale(1, -1)">
<g id="Output" >
<path fill="rgb(241,240,234)" stroke="rgb(241,240,234)" d="M 8.25177,1.0918 l 0,1.36364 -0.00129726,0.0297122 -0.00388191,0.0294861 -0.00643702,0.0290355 -0.00894314,0.028364 -0.0113812,0.0274766 -0.0137326,0.0263801 -0.0159796,0.0250829 -0.0181049,0.0235947 -0.0200924,0.021927 -0.021927,0.0200924 -0.0235947,0.0181049 -0.0250829,0.0159796 -0.0263801,0.0137326 -0.0274766,0.0113812 -0.028364,0.00894314 -0.0290355,0.00643702 -0.0294861,0.00388191 -0.0297122,0.00129726 -6.81818,-8.88178e-16 -0.0297122,-0.00129726 -0.0294861,-0.00388191 -0.0290355,-0.00643702 -0.028364,-0.00894314 -0.0274766,-0.0113812 -0.0263801,-0.0137326 -0.0250829,-0.0159796 -0.0235947,-0.0181049 -0.021927,-0.0200924 -0.0200924,-0.021927 -0.0181049,-0.0235947 -0.0159796,-0.0250829 -0.0137326,-0.0263801 -0.0113812,-0.0274766 -0.00894314,-0.028364 -0.00643702,-0.0290355 -0.00388191,-0.0294861 -0.00129726,-0.0297122 1.33227e-15,-1.36364 0.00129726,-0.0297122 0.00388191,-0.0294861 0.00643702,-0.0290355 0.00894314,-0.028364 0.0113812,-0.0274766 0.0137326,-0.0263801 0.0159796,-0.0250829 0.0181049,-0.0235947 0.0200924,-0.021927 0.021927,-0.0200924 0.0235947,-0.0181049 0.0250829,-0.0159796 0.0263801,-0.0137326 0.0274766,-0.0113812 0.028364,-0.00894314 0.0290355,-0.00643702 0.0294861,-0.00388191 0.0297122,-0.00129726 6.81818,2.66454e-15 0.0297122,0.00129726 0.0294861,0.00388191 0.0290355,0.00643702 0.028364,0.00894314 0.0274766,0.0113812 0.0263801,0.0137326 0.0250829,0.0159796 0.0235947,0.0181049 0.021927,0.0200924 0.0200924,0.021927 0.0181049,0.0235947 0.0159796,0.0250829 0.0137326,0.0263801 0.0113812,0.0274766 0.00894314,0.028364 0.00643702,0.0290355 0.00388191,0.0294861 0.00129726,0.0297122 z "/>
<path fill="rgb(241,240,234)" stroke="rgb(241,240,234)" d="M 0.508116,7.25089 l -0.2625,-8.88178e-16 1.77636e-15,-6.49085 0.00199778,-0.0457568 0.00597815,-0.0454085 0.00991301,-0.0447147 0.0137724,-0.0436806 0.017527,-0.042314 0.0211483,-0.0406254 0.0246085,-0.0386276 0.0278815,-0.0363359 0.0309423,-0.0337676 0.0337676,-0.0309423 0.0363359,-0.0278815 0.0386276,-0.0246085 0.0406254,-0.0211483 0.042314,-0.017527 0.0436806,-0.0137724 0.0447147,-0.00991301 0.0454085,-0.00597815 0.0457568,-0.00199778 7.47818,5.32907e-15 0.0457568,0.00199778 0.0454085,0.00597815 0.0447147,0.00991301 0.0436806,0.0137724 0.042314,0.017527 0.0406254,0.0211483 0.0386276,0.0246085 0.0363359,0.0278815 0.0337676,0.0309423 0.0309423,0.0337676 0.0278815,0.0363359 0.0246085,0.0386276 0.0211483,0.0406254 0.017527,0.042314 0.0137724,0.0436806 0.00991301,0.0447147 0.00597815,0.0454085 0.00199778,0.0457568 -1.77636e-15,6.49085 -0.2625,0 1.77636e-15,-6.49085 -0.000998892,-0.0228784 -0.00298907,-0.0227043 -0.00495651,-0.0223574 -0.00688622,-0.0218403 -0.00876352,-0.021157 -0.0105741,-0.0203127 -0.0123043,-0.0193138 -0.0139407,-0.0181679 -0.0154711,-0.0168838 -0.0168838,-0.0154711 -0.0181679,-0.0139407 -0.0193138,-0.0123043 -0.0203127,-0.0105741 -0.021157,-0.00876352 -0.0218403,-0.00688622 -0.0223574,-0.00495651 -0.0227043,-0.00298907 -0.0228784,-0.000998892 -7.47818,-7.10543e-15 -0.0228784,0.000998892 -0.0227043,0.00298907 -0.0223574,0.00495651 -0.0218403,0.00688622 -0.021157,0.00876352 -0.0203127,0.0105741 -0.0193138,0.0123043 -0.0181679,0.0139407 -0.0168838,0.0154711 -0.0154711,0.0168838 -0.0139407,0.0181679 -0.0123043,0.0193138 -0.0105741,0.0203127 -0.00876352,0.021157 -0.00688622,0.0218403 -0.00495651,0.0223574 -0.00298907,0.0227043 -0.000998892,0.0228784 0,6.49085 z "/>
<path fill="rgb(241,240,234)" stroke="rgb(241,240,234)" d="M 0.770616,11.5114 l -0.0457568,-0.00199778 -0.0454085,-0.00597815 -0.0447147,-0.00991301 -0.0436806,-0.0137724 -0.042314,-0.017527 -0.0406254,-0.0211483 -0.0386276,-0.0246085 -0.0363359,-0.0278815 -0.0337676,-0.0309423 -0.0309423,-0.0337676 -0.0278815,-0.0363359 -0.0246085,-0.0386276 -0.0211483,-0.0406254 -0.017527,-0.042314 -0.0137724,-0.0436806 -0.00991301,-0.0447147 -0.00597815,-0.0454085 -0.00199778,-0.0457568 0,-3.73553 0.2625,8.88178e-16 0,3.73553 0.000998892,0.0228784 0.00298907,0.0227043 0.00495651,0.0223574 0.00688622,0.0218403 0.00876352,0.021157 0.0105741,0.0203127 0.0123043,0.0193138 0.0139407,0.0181679 0.0154711,0.0168838 0.0168838,0.0154711 0.0181679,0.0139407 0.0193138,0.0123043 0.0203127,0.0105741 0.021157,0.00876352 0.0218403,0.00688622 0.0223574,0.00495651 0.0227043,0.00298907 0.0228784,0.000998892 7.47818,1.06581e-14 0.0228784,-0.000998892 0.0227043,-0.00298907 0.0223574,-0.00495651 0.0218403,-0.00688622 0.021157,-0.00876352 0.0203127,-0.0105741 0.0193138,-0.0123043 0.0181679,-0.0139407 0.0168838,-0.0154711 0.0154711,-0.0168838 0.0139407,-0.0181679 0.0123043,-0.0193138 0.0105741,-0.0203127 0.00876352,-0.021157 0.00688622,-0.0218403 0.00495651,-0.0223574 0.00298907,-0.0227043 0.000998892,-0.0228784 -1.77636e-15,-3.73553 0.2625,0 0,3.73553 -0.00199778,0.0457568 -0.00597815,0.0454085 -0.00991301,0.0447147 -0.0137724,0.0436806 -0.017527,0.042314 -0.0211483,0.0406254 -0.0246085,0.0386276 -0.0278815,0.0363359 -0.0309423,0.0337676 -0.0337676,0.0309423 -0.0363359,0.0278815 -0.0386276,0.0246085 -0.0406254,0.0211483 -0.042314,0.017527 -0.0436806,0.0137724 -0.0447147,0.00991301 -0.0454085,0.00597815 -0.0457568,0.00199778 -7.47818,-8.88178e-15 z "/>
<path fill="rgb(241,240,234)" stroke="rgb(241,240,234)" d="M 7.15177,7.25089 l -5.3,0 0.0100841,-0.230963 0.0301754,-0.229205 0.0500371,-0.225703 0.069518,-0.220483 0.0884698,-0.213585 0.106748,-0.205062 0.124214,-0.194978 0.140735,-0.18341 0.156185,-0.170446 0.170446,-0.156185 0.18341,-0.140735 0.194978,-0.124214 0.205062,-0.106748 0.213585,-0.0884698 0.220483,-0.069518 0.225703,-0.0500371 0.229205,-0.0301754 0.230963,-0.0100841 0.230963,0.0100841 0.229205,0.0301754 0.225703,0.0500371 0.220483,0.069518 0.213585,0.0884698 0.205062,0.106748 0.194978,0.124214 0.18341,0.140735 0.170446,0.156185 0.156185,0.170446 0.140735,0.18341 0.124214,0.194978 0.106748,0.205062 0.0884698,0.213585 0.069518,0.220483 0.0500371,0.225703 0.0301754,0.229205 0.0100841,0.230963 z "/>
<path fill="rgb(241,240,234)" stroke="rgb(241,240,234)" d="M 7.15177,7.25089 l -0.0100841,0.230963 -0.0301754,0.229205 -0.0500371,0.225703 -0.069518,0.220483 -0.0884698,0.213585 -0.106748,0.205062 -0.124214,0.194978 -0.140735,0.18341 -0.156185,0.170446 -0.170446,0.156185 -0.18341,0.140735 -0.194978,0.124214 -0.205062,0.106748 -0.213585,0.0884698 -0.220483,0.069518 -0.225703,0.0500371 -0.229205,0.0301754 -0.230963,0.0100841 -0.230963,-0.0100841 -0.229205,-0.0301754 -0.225703,-0.0500371 -0.220483,-0.069518 -0.213585,-0.0884698 -0.205062,-0.106748 -0.194978,-0.124214 -0.18341,-0.140735 -0.170446,-0.156185 -0.156185,-0.170446 -0.140735,-0.18341 -0.124214,-0.194978 -0.106748,-0.205062 -0.0884698,-0.213585 -0.069518,-0.220483 -0.0500371,-0.225703 -0.0301754,-0.229205 -0.0100841,-0.230963 5.3,0 z "/>
<path fill="rgb(241,240,234)" stroke="rgb(241,240,234)" d="M 0.951769,7.25089 l 0.0135088,-0.309403 0.0404237,-0.307048 0.0670308,-0.302357 0.0931279,-0.295364 0.118516,-0.286123 0.143002,-0.274705 0.1664,-0.261196 0.188532,-0.2457 0.209229,-0.228333 0.228333,-0.209229 0.2457,-0.188532 0.261196,-0.1664 0.274705,-0.143002 0.286123,-0.118516 0.295364,-0.0931279 0.302357,-0.0670308 0.307048,-0.0404237 0.309403,-0.0135088 0.309403,0.0135088 0.307048,0.0404237 0.302357,0.0670308 0.295364,0.0931279 0.286123,0.118516 0.274705,0.143002 0.261196,0.1664 0.2457,0.188532 0.228333,0.209229 0.209229,0.228333 0.188532,0.2457 0.1664,0.261196 0.143002,0.274705 0.118516,0.286123 0.0931279,0.295364 0.0670308,0.302357 0.0404237,0.307048 0.0135088,0.309403 -0.2,0 -0.0127478,-0.291972 -0.0381463,-0.28975 -0.0632545,-0.285322 -0.0878812,-0.278724 -0.111839,-0.270004 -0.134946,-0.259229 -0.157026,-0.246481 -0.17791,-0.231857 -0.197441,-0.215469 -0.215469,-0.197441 -0.231857,-0.17791 -0.246481,-0.157026 -0.259229,-0.134946 -0.270004,-0.111839 -0.278724,-0.0878812 -0.285322,-0.0632545 -0.28975,-0.0381463 -0.291972,-0.0127478 -0.291972,0.0127478 -0.28975,0.0381463 -0.285322,0.0632545 -0.278724,0.0878812 -0.270004,0.111839 -0.259229,0.134946 -0.246481,0.157026 -0.231857,0.17791 -0.215469,0.197441 -0.197441,0.215469 -0.17791,0.231857 -0.157026,0.246481 -0.134946,0.259229 -0.111839,0.270004 -0.0878812,0.278724 -0.0632545,0.285322 -0.0381463,0.28975 -0.0127478,0.291972 -0.2,0 z "/>
<path fill="rgb(241,240,234)" stroke="rgb(241,240,234)" d="M 0.951769,7.25089 l 0.2,0 0.0127478,0.291972 0.0381463,0.28975 0.0632545,0.285322 0.0878812,0.278724 0.111839,0.270004 0.134946,0.259229 0.157026,0.246481 0.17791,0.231857 0.197441,0.215469 0.215469,0.197441 0.231857,0.17791 0.246481,0.157026 0.259229,0.134946 0.270004,0.111839 0.278724,0.0878812 0.285322,0.0632545 0.28975,0.0381463 0.291972,0.0127478 0.291972,-0.0127478 0.28975,-0.0381463 0.285322,-0.0632545 0.278724,-0.0878812 0.270004,-0.111839 0.259229,-0.134946 0.246481,-0.157026 0.231857,-0.17791 0.215469,-0.197441 0.197441,-0.215469 0.17791,-0.231857 0.157026,-0.246481 0.134946,-0.259229 0.111839,-0.270004 0.0878812,-0.278724 0.0632545,-0.285322 0.0381463,-0.28975 0.0127478,-0.291972 0.2,0 -0.0135088,0.309403 -0.0404237,0.307048 -0.0670308,0.302357 -0.0931279,0.295364 -0.118516,0.286123 -0.143002,0.274705 -0.1664,0.261196 -0.188532,0.2457 -0.209229,0.228333 -0.228333,0.209229 -0.2457,0.188532 -0.261196,0.1664 -0.274705,0.143002 -0.286123,0.118516 -0.295364,0.0931279 -0.302357,0.0670308 -0.307048,0.0404237 -0.309403,0.0135088 -0.309403,-0.0135088 -0.307048,-0.0404237 -0.302357,-0.0670308 -0.295364,-0.0931279 -0.286123,-0.118516 -0.274705,-0.143002 -0.261196,-0.1664 -0.2457,-0.188532 -0.228333,-0.209229 -0.209229,-0.228333 -0.188532,-0.2457 -0.1664,-0.261196 -0.143002,-0.274705 -0.118516,-0.286123 -0.0931279,-0.295364 -0.0670308,-0.302357 -0.0404237,-0.307048 -0.0135088,-0.309403 z "/>
<path fill="rgb(42,41,42)" stroke="rgb(42,41,42)" d="M 6.03677,8.36115 l -0.084382,-0.00444116 -0.109549,-0.0177646 -0.100666,-0.0325685 -0.0932643,-0.0488527 -0.0858624,-0.0636566 -0.0769801,-0.0784605 -0.0695781,-0.0932643 -0.0370097,-0.0621762 -0.0488527,-0.0977055 -0.03849,-0.106588 -0.0310881,-0.11399 -0.0222058,-0.121392 -0.0133235,-0.128794 -0.00444116,-0.136196 0.00296077,-0.0932643 0.0103627,-0.131754 0.0177646,-0.124352 0.0281273,-0.11547 0.0355293,-0.109549 0.0444116,-0.102147 0.0532939,-0.0947447 0.0532939,-0.0754997 0.0740193,-0.0829016 0.0829016,-0.0666174 0.0903036,-0.0518135 0.0991859,-0.03849 0.108068,-0.0222058 0.11547,-0.00740193 0.0977055,0.00592154 0.108068,0.0207254 0.100666,0.0355293 0.0917839,0.0503331 0.0829016,0.065137 0.0740193,0.0814212 0.0666174,0.0947447 -0.621762,0.0325685 -0.0858624,0.00740193 -0.100666,0.0340489 -0.0858624,0.0606958 -0.0725389,0.0888232 -0.0340489,0.0606958 -0.03849,0.0991859 -0.0281273,0.11399 -0.0177646,0.128794 -0.00444116,0.142117 0,0.0133235 0.00740193,0.131754 0.019245,0.122872 0.0325685,0.111029 0.0444116,0.100666 0.0118431,0.0207254 0.0680978,0.0947447 0.0829016,0.0680978 0.0932643,0.0414508 0.108068,0.0133235 0.620282,0.0370097 -0.0518135,0.0754997 -0.0740193,0.0814212 -0.0829016,0.0680978 -0.0903036,0.0518135 -0.0991859,0.03849 -0.106588,0.0222058 -0.11547,0.00740193 z "/>
<path fill="rgb(42,41,42)" stroke="rgb(42,41,42)" d="M 6.65706,8.01622 l -0.620282,-0.0370097 0.0814212,-0.00740193 0.100666,-0.0340489 0.0858624,-0.0606958 0.0725389,-0.0888232 0.0296077,-0.0518135 0.0399704,-0.0991859 0.0281273,-0.112509 0.0177646,-0.127313 0.00592154,-0.140637 -0.00296077,-0.0814212 -0.0118431,-0.130274 -0.0251666,-0.118431 -0.0355293,-0.106588 -0.0488527,-0.0947447 -0.0518135,-0.0725389 -0.0829016,-0.0710585 -0.0947447,-0.0429312 -0.108068,-0.0133235 0.621762,-0.0325685 0.0340489,0.0606958 0.0473724,0.0991859 0.0370097,0.106588 0.0296077,0.11547 0.0222058,0.121392 0.0118431,0.128794 0.00444116,0.136196 -0.00148039,0.0754997 -0.00888232,0.130274 -0.0177646,0.124352 -0.0266469,0.116951 -0.0355293,0.109549 -0.0444116,0.103627 -0.0532939,0.0947447 z "/>
<path fill="rgb(42,41,42)" stroke="rgb(42,41,42)" d="M 4.09155,8.36115 l -0.0162842,0 -0.11399,-0.00592154 -0.109549,-0.0162842 -0.105107,-0.0266469 -0.102147,-0.0355293 -0.0977055,-0.0473724 -0.0932643,-0.0547743 -0.0903036,-0.0666174 -0.0858624,-0.0754997 0.236862,-0.294597 0.0769801,0.0695781 0.0888232,0.0577351 0.0962251,0.045892 0.103627,0.0325685 0.111029,0.019245 0.119911,0.00592154 0.661733,0.0414508 -0.0592154,0.0947447 -0.0799408,0.084382 -0.0207254,0.0162842 -0.0829016,0.0562547 -0.0947447,0.0429312 -0.103627,0.0310881 -0.11547,0.019245 -0.124352,0.00592154 z "/>
<path fill="rgb(42,41,42)" stroke="rgb(42,41,42)" d="M 4.77252,8.0103 l -0.661733,-0.0414508 0.128794,-0.00740193 0.111029,-0.0296077 0.0784605,-0.0488527 0.0473724,-0.0680978 0.0148039,-0.0903036 -0.0162842,-0.0829016 -0.0532939,-0.0754997 -0.0917839,-0.0636566 -0.128794,-0.0503331 -0.00148039,0 -0.11399,-0.0399704 -0.106588,-0.045892 -0.0991859,-0.0547743 -0.0932643,-0.0606958 -0.084382,-0.0695781 -0.0784605,-0.0754997 -0.0710585,-0.084382 -0.0636566,-0.0903036 -0.0577351,-0.0991859 -0.0310881,-0.065137 -0.0444116,-0.109549 -0.0340489,-0.11399 -0.0251666,-0.118431 -0.0148039,-0.121392 -0.00444116,-0.125833 1.55885,0 0,0.3849 -1.13694,0 0.00888232,0.019245 0.0621762,0.11399 0.0666174,0.0947447 0.0710585,0.0784605 0.0784605,0.0695781 0.0903036,0.0592154 0.0414508,0.019245 0.0977055,0.03849 0.140637,0.0488527 0.102147,0.03849 0.100666,0.0518135 0.0784605,0.0606958 0.0414508,0.0414508 0.0680978,0.0903036 0.0488527,0.102147 0.0296077,0.112509 0.0103627,0.122872 -0.00296077,0.0621762 -0.0207254,0.116951 -0.0399704,0.106588 z "/>
<path fill="rgb(42,41,42)" stroke="rgb(42,41,42)" d="M 2.89095,8.3271 l -0.276832,0 -0.0310881,-0.0503331 -0.0754997,-0.0829016 -0.0903036,-0.0606958 -0.106588,-0.0414508 0.00444116,-0.30644 0.245744,0 -0.00888232,-1.6077 0.339008,0 0,2.14952 z "/>
<path fill="rgb(42,41,42)" stroke="rgb(42,41,42)" d="M 0.508116,10.9864 l 0,-3.73553 0.243653,0 0.0142699,0.326834 0.042701,0.324347 0.0708072,0.319391 0.0983745,0.312004 0.125193,0.302243 0.151059,0.290182 0.175775,0.275912 0.199154,0.259542 0.221016,0.241197 0.241197,0.221016 0.259542,0.199154 0.275912,0.175775 0.290182,0.151059 0.302243,0.125193 0.312004,0.0983745 0.319391,0.0708072 0.324347,0.042701 0.326834,0.0142699 0.326834,-0.0142699 0.324347,-0.042701 0.319391,-0.0708072 0.312004,-0.0983745 0.302243,-0.125193 0.290182,-0.151059 0.275912,-0.175775 0.259542,-0.199154 0.241197,-0.221016 0.221016,-0.241197 0.199154,-0.259542 0.175775,-0.275912 0.151059,-0.290182 0.125193,-0.302243 0.0983745,-0.312004 0.0708072,-0.319391 0.042701,-0.324347 0.0142699,-0.326834 0.259525,0 1.77636e-15,3.73553 -0.000998892,0.0228784 -0.00298907,0.0227043 -0.00495651,0.0223574 -0.00688622,0.0218403 -0.00876352,0.021157 -0.0105741,0.0203127 -0.0123043,0.0193138 -0.0139407,0.0181679 -0.0154711,0.0168838 -0.0168838,0.0154711 -0.0181679,0.0139407 -0.0193138,0.0123043 -0.0203127,0.0105741 -0.021157,0.00876352 -0.0218403,0.00688622 -0.0223574,0.00495651 -0.0227043,0.00298907 -0.0228784,0.000998892 -7.47818,-1.06581e-14 -0.0228784,-0.000998892 -0.0227043,-0.00298907 -0.0223574,-0.00495651 -0.0218403,-0.00688622 -0.021157,-0.00876352 -0.0203127,-0.0105741 -0.0193138,-0.0123043 -0.0181679,-0.0139407 -0.0168838,-0.0154711 -0.0154711,-0.0168838 -0.0139407,-0.0181679 -0.0123043,-0.0193138 -0.0105741,-0.0203127 -0.00876352,-0.021157 -0.00688622,-0.0218403 -0.00495651,-0.0223574 -0.00298907,-0.0227043 -0.000998892,-0.0228784 z "/>
<path fill="rgb(42,41,42)" stroke="rgb(42,41,42)" d="M 3.50812,0.497542 l 0,0.253348 -1,-8.88178e-16 0,-0.253348 1,0 z "/>
<path fill="rgb(42,41,42)" stroke="rgb(42,41,42)" d="M 1.9611,4.49754 l -0.110983,0.101697 -0.221016,0.241197 -0.120986,0.157672 0,-0.500566 0.452985,0 z "/>
<path fill="rgb(42,41,42)" stroke="rgb(42,41,42)" d="M 6.50812,4.08697 l 0,-0.58943 1,0 0,1 -0.46568,0 -0.130214,-0.119319 -0.259542,-0.199154 -0.144564,-0.0920975 z "/>
<path fill="rgb(42,41,42)" stroke="rgb(42,41,42)" d="M 0.751769,1.49754 l -8.88178e-16,0.957893 0.00129726,0.0297122 0.00163181,0.0123949 -0.246582,0 0,-1 0.243653,0 z "/>
<path fill="rgb(42,41,42)" stroke="rgb(42,41,42)" d="M 0.754698,2.49754 l 0.0022501,0.0170912 0.00643702,0.0290355 0.00894314,0.028364 0.0113812,0.0274766 0.0137326,0.0263801 0.0159796,0.0250829 0.0181049,0.0235947 0.0200924,0.021927 0.021927,0.0200924 0.0235947,0.0181049 0.0250829,0.0159796 0.0263801,0.0137326 0.0274766,0.0113812 0.028364,0.00894314 0.0290355,0.00643702 0.0294861,0.00388191 0.0297122,0.00129726 0.415438,0 0,0.701198 -1,0 0,-1 0.246582,0 z "/>
<path fill="rgb(42,41,42)" stroke="rgb(42,41,42)" d="M 0.508116,3.49754 l 1,0 0,1 -1,0 0,-1 z "/>
<path fill="rgb(42,41,42)" stroke="rgb(42,41,42)" d="M 7.81269,5.49754 l 0.695424,0 0,1 -0.335968,0 -0.0481574,-0.217224 -0.0983745,-0.312004 -0.125193,-0.302243 -0.0877307,-0.168529 z "/>
<path fill="rgb(42,41,42)" stroke="rgb(42,41,42)" d="M 1.9611,4.49754 l -0.452985,0 0,-1 1,0 0,0.581342 -0.157259,0.100185 -0.259542,0.199154 -0.130214,0.119319 z "/>
<path fill="rgb(42,41,42)" stroke="rgb(42,41,42)" d="M 8.50812,6.49754 l 0.00317767,0 0,0.753348 -0.00317767,0 0,-0.753348 z "/>
<path fill="rgb(42,41,42)" stroke="rgb(42,41,42)" d="M 5.50812,0.497542 l 0,0.253348 -1,-8.88178e-16 0,-0.253348 1,0 z "/>
<path fill="rgb(42,41,42)" stroke="rgb(42,41,42)" d="M 7.50812,3.49754 l 1,0 0,1 -1,0 0,-1 z "/>
<path fill="rgb(42,41,42)" stroke="rgb(42,41,42)" d="M 1.19085,5.49754 l -0.0877307,0.168529 -0.125193,0.302243 -0.0983745,0.312004 -0.0481574,0.217224 -0.323273,0 0,-1 0.682729,0 z "/>
<path fill="rgb(42,41,42)" stroke="rgb(42,41,42)" d="M 1.19085,5.49754 l -0.682729,0 0,-1 1,0 0,0.500566 -0.0781676,0.10187 -0.175775,0.275912 -0.0633283,0.121652 z "/>
<path fill="rgb(42,41,42)" stroke="rgb(42,41,42)" d="M 2.50812,0.497542 l 0,0.253348 -1,0 0,-0.253348 1,0 z "/>
<path fill="rgb(42,41,42)" stroke="rgb(42,41,42)" d="M 3.50812,2.79634 l 1,0 0,0.701198 -1,0 0,-0.701198 z "/>
<path fill="rgb(42,41,42)" stroke="rgb(42,41,42)" d="M 1.50812,2.79634 l 1,0 0,0.701198 -1,0 0,-0.701198 z "/>
<path fill="rgb(42,41,42)" stroke="rgb(42,41,42)" d="M 8.51129,1.49754 l 0,1 -0.00317767,0 0,-1 0.00317767,0 z "/>
<path fill="rgb(42,41,42)" stroke="rgb(42,41,42)" d="M 8.51129,2.49754 l 0,1 -0.00317767,0 0,-1 0.00317767,0 z "/>
<path fill="rgb(42,41,42)" stroke="rgb(42,41,42)" d="M 8.51129,3.49754 l 0,1 -0.00317767,0 0,-1 0.00317767,0 z "/>
<path fill="rgb(42,41,42)" stroke="rgb(42,41,42)" d="M 0.508116,6.49754 l 0.323273,0 -0.0226498,0.102167 -0.042701,0.324347 -0.0142699,0.326834 -0.243653,0 0,-0.753348 z "/>
<path fill="rgb(42,41,42)" stroke="rgb(42,41,42)" d="M 4.50812,2.79634 l 1,0 0,0.701198 -1,0 0,-0.701198 z "/>
<path fill="rgb(42,41,42)" stroke="rgb(42,41,42)" d="M 8.25177,1.49754 l 0,-0.405743 -0.00129726,-0.0297122 -0.00388191,-0.0294861 -0.00643702,-0.0290355 -0.00894314,-0.028364 -0.0113812,-0.0274766 -0.0137326,-0.0263801 -0.0159796,-0.0250829 -0.0181049,-0.0235947 -0.0200924,-0.021927 -0.021927,-0.0200924 -0.0235947,-0.0181049 -0.0250829,-0.0159796 -0.0263801,-0.0137326 -0.0274766,-0.0113812 -0.028364,-0.00894314 -0.0290355,-0.00643702 -0.0294861,-0.00388191 -0.0297122,-0.00129726 -0.402743,0 0,-0.253348 0.740678,7.10543e-15 0.0228784,0.000998892 0.0227043,0.00298907 0.0223574,0.00495651 0.0218403,0.00688622 0.021157,0.00876352 0.0203127,0.0105741 0.0193138,0.0123043 0.0181679,0.0139407 0.0168838,0.0154711 0.0154711,0.0168838 0.0139407,0.0181679 0.0123043,0.0193138 0.0105741,0.0203127 0.00876352,0.021157 0.00688622,0.0218403 0.00495651,0.0223574 0.000810295,0.0061548 0,0.776928 -0.256347,0 z "/>
<path fill="rgb(42,41,42)" stroke="rgb(42,41,42)" d="M 7.50812,0.497542 l 0,0.253348 -1,-8.88178e-16 0,-0.253348 1,0 z "/>
<path fill="rgb(42,41,42)" stroke="rgb(42,41,42)" d="M 6.50812,2.79634 l 1,8.88178e-16 0,0.701198 -1,0 0,-0.701198 z "/>
<path fill="rgb(42,41,42)" stroke="rgb(42,41,42)" d="M 7.50812,2.79634 l 0.402743,0 0.0297122,-0.00129726 0.0294861,-0.00388191 0.0290355,-0.00643702 0.028364,-0.00894314 0.0274766,-0.0113812 0.0263801,-0.0137326 0.0250829,-0.0159796 0.0235947,-0.0181049 0.021927,-0.0200924 0.0200924,-0.021927 0.0181049,-0.0235947 0.0159796,-0.0250829 0.0137326,-0.0263801 0.0113812,-0.0274766 0.00894314,-0.028364 0.00643702,-0.0290355 0.0022501,-0.0170912 0.259277,0 0,1 -1,0 0,-0.701198 z "/>
<path fill="rgb(42,41,42)" stroke="rgb(42,41,42)" d="M 4.50812,3.50117 l 0,-0.00362464 1,0 0,0.142406 -0.035776,-0.0112801 -0.319391,-0.0708072 -0.324347,-0.042701 -0.320487,-0.0139927 z "/>
<path fill="rgb(42,41,42)" stroke="rgb(42,41,42)" d="M 8.17215,6.49754 l 0.335968,0 0,0.753348 -0.256347,0 -0.0142699,-0.326834 -0.042701,-0.324347 -0.0226498,-0.102167 z "/>
<path fill="rgb(42,41,42)" stroke="rgb(42,41,42)" d="M 6.50812,0.497542 l 0,0.253348 -1,0 0,-0.253348 1,0 z "/>
<path fill="rgb(42,41,42)" stroke="rgb(42,41,42)" d="M 5.50812,2.79634 l 1,0 0,0.701198 -1,0 0,-0.701198 z "/>
<path fill="rgb(42,41,42)" stroke="rgb(42,41,42)" d="M 5.50812,3.63995 l 0,-0.142406 1,0 0,0.58943 -0.131347,-0.0836776 -0.290182,-0.151059 -0.302243,-0.125193 -0.276228,-0.0870944 z "/>
<path fill="rgb(42,41,42)" stroke="rgb(42,41,42)" d="M 8.25177,1.49754 l 0.256347,0 0,1 -0.259277,0 0.00163181,-0.0123949 0.00129726,-0.0297122 0,-0.957893 z "/>
<path fill="rgb(42,41,42)" stroke="rgb(42,41,42)" d="M 0.751769,1.49754 l -0.243653,0 0,-0.7375 0.000998892,-0.0228784 0.00298907,-0.0227043 0.00495651,-0.0223574 0.00688622,-0.0218403 0.00876352,-0.021157 0.0105741,-0.0203127 0.0123043,-0.0193138 0.0139407,-0.0181679 0.0154711,-0.0168838 0.0168838,-0.0154711 0.0181679,-0.0139407 0.0193138,-0.0123043 0.0203127,-0.0105741 0.021157,-0.00876352 0.0218403,-0.00688622 0.0223574,-0.00495651 0.0227043,-0.00298907 0.0228784,-0.000998892 0.7375,0 0,0.253348 -0.415438,0 -0.0297122,0.00129726 -0.0294861,0.00388191 -0.0290355,0.00643702 -0.028364,0.00894314 -0.0274766,0.0113812 -0.0263801,0.0137326 -0.0250829,0.0159796 -0.0235947,0.0181049 -0.021927,0.0200924 -0.0200924,0.021927 -0.0181049,0.0235947 -0.0159796,0.0250829 -0.0137326,0.0263801 -0.0113812,0.0274766 -0.00894314,0.028364 -0.00643702,0.0290355 -0.00388191,0.0294861 -0.00129726,0.0297122 -4.44089e-16,0.405743 z "/>
<path fill="rgb(42,41,42)" stroke="rgb(42,41,42)" d="M 8.51129,4.49754 l 0,1 -0.00317767,0 0,-1 0.00317767,0 z "/>
<path fill="rgb(42,41,42)" stroke="rgb(42,41,42)" d="M 7.04244,4.49754 l 0.46568,0 0,0.51711 -0.133681,-0.174216 -0.221016,-0.241197 -0.110983,-0.101697 z "/>
<path fill="rgb(42,41,42)" stroke="rgb(42,41,42)" d="M 4.50812,0.497542 l 0,0.253348 -1,0 0,-0.253348 1,0 z "/>
<path fill="rgb(42,41,42)" stroke="rgb(42,41,42)" d="M 2.50812,4.07888 l 0,-0.581342 1,0 0,0.138403 -0.288923,0.0910971 -0.302243,0.125193 -0.290182,0.151059 -0.118653,0.07559 z "/>
<path fill="rgb(42,41,42)" stroke="rgb(42,41,42)" d="M 8.51129,5.49754 l -1.77636e-15,1 -0.00317767,0 0,-1 0.00317767,0 z "/>
<path fill="rgb(42,41,42)" stroke="rgb(42,41,42)" d="M 7.50812,5.01465 l 0,-0.51711 1,0 0,1 -0.695424,0 -0.0633283,-0.121652 -0.175775,-0.275912 -0.0654727,-0.0853257 z "/>
<path fill="rgb(42,41,42)" stroke="rgb(42,41,42)" d="M 2.50812,2.79634 l 1,0 0,0.701198 -1,0 0,-0.701198 z "/>
<path fill="rgb(42,41,42)" stroke="rgb(42,41,42)" d="M 8.50812,1.49754 l 0,-0.776928 0.00217878,0.0165495 0.000998892,0.0228784 0,0.7375 -0.00317767,0 z "/>
<path fill="rgb(42,41,42)" stroke="rgb(42,41,42)" d="M 3.50812,3.63594 l 0,-0.138403 1,0 0,0.00362464 -0.00634746,-0.000277136 -0.326834,0.0142699 -0.324347,0.042701 -0.319391,0.0708072 -0.0230811,0.00727745 z "/>
<path fill="rgb(42,41,42)" stroke="rgb(42,41,42)" d="M 0.245616,7.25089 l -0.245616,8.88178e-16 0,-7.25089 9.00354,0 0,7.25089 -0.229744,0 1.77636e-15,-6.49085 -0.00199778,-0.0457568 -0.00597815,-0.0454085 -0.00991301,-0.0447147 -0.0137724,-0.0436806 -0.017527,-0.042314 -0.0211483,-0.0406254 -0.0246085,-0.0386276 -0.0278815,-0.0363359 -0.0309423,-0.0337676 -0.0337676,-0.0309423 -0.0363359,-0.0278815 -0.0386276,-0.0246085 -0.0406254,-0.0211483 -0.042314,-0.017527 -0.0436806,-0.0137724 -0.0447147,-0.00991301 -0.0454085,-0.00597815 -0.0457568,-0.00199778 -7.47818,-5.32907e-15 -0.0457568,0.00199778 -0.0454085,0.00597815 -0.0447147,0.00991301 -0.0436806,0.0137724 -0.042314,0.017527 -0.0406254,0.0211483 -0.0386276,0.0246085 -0.0363359,0.0278815 -0.0337676,0.0309423 -0.0309423,0.0337676 -0.0278815,0.0363359 -0.0246085,0.0386276 -0.0211483,0.0406254 -0.017527,0.042314 -0.0137724,0.0436806 -0.00991301,0.0447147 -0.00597815,0.0454085 -0.00199778,0.0457568 -1.77636e-15,6.49085 z "/>
<path fill="rgb(42,41,42)" stroke="rgb(42,41,42)" d="M 0.770616,11.5114 l 7.47818,8.88178e-15 0.0457568,-0.00199778 0.0454085,-0.00597815 0.0447147,-0.00991301 0.0436806,-0.0137724 0.042314,-0.017527 0.0406254,-0.0211483 0.0386276,-0.0246085 0.0363359,-0.0278815 0.0337676,-0.0309423 0.0309423,-0.0337676 0.0278815,-0.0363359 0.0246085,-0.0386276 0.0211483,-0.0406254 0.017527,-0.042314 0.0137724,-0.0436806 0.00991301,-0.0447147 0.00597815,-0.0454085 0.00199778,-0.0457568 0,-3.73553 0.229744,0 0,4.50089 -9.00354,0 0,-4.50089 0.245616,-8.88178e-16 0,3.73553 0.00199778,0.0457568 0.00597815,0.0454085 0.00991301,0.0447147 0.0137724,0.0436806 0.017527,0.042314 0.0211483,0.0406254 0.0246085,0.0386276 0.0278815,0.0363359 0.0309423,0.0337676 0.0337676,0.0309423 0.0363359,0.0278815 0.0386276,0.0246085 0.0406254,0.0211483 0.042314,0.017527 0.0436806,0.0137724 0.0447147,0.00991301 0.0454085,0.00597815 0.0457568,0.00199778 z "/>
<path fill="rgb(187,30,16)" stroke="rgb(187,30,16)" d="M 0.951769,7.25089 l -0.2,0 0.0142699,-0.326834 0.042701,-0.324347 0.0708072,-0.319391 0.0983745,-0.312004 0.125193,-0.302243 0.151059,-0.290182 0.175775,-0.275912 0.199154,-0.259542 0.221016,-0.241197 0.241197,-0.221016 0.259542,-0.199154 0.275912,-0.175775 0.290182,-0.151059 0.302243,-0.125193 0.312004,-0.0983745 0.319391,-0.0708072 0.324347,-0.042701 0.326834,-0.0142699 0.326834,0.0142699 0.324347,0.042701 0.319391,0.0708072 0.312004,0.0983745 0.302243,0.125193 0.290182,0.151059 0.275912,0.175775 0.259542,0.199154 0.241197,0.221016 0.221016,0.241197 0.199154,0.259542 0.175775,0.275912 0.151059,0.290182 0.125193,0.302243 0.0983745,0.312004 0.0708072,0.319391 0.042701,0.324347 0.0142699,0.326834 -0.2,0 -0.0135088,-0.309403 -0.0404237,-0.307048 -0.0670308,-0.302357 -0.0931279,-0.295364 -0.118516,-0.286123 -0.143002,-0.274705 -0.1664,-0.261196 -0.188532,-0.2457 -0.209229,-0.228333 -0.228333,-0.209229 -0.2457,-0.188532 -0.261196,-0.1664 -0.274705,-0.143002 -0.286123,-0.118516 -0.295364,-0.0931279 -0.302357,-0.0670308 -0.307048,-0.0404237 -0.309403,-0.0135088 -0.309403,0.0135088 -0.307048,0.0404237 -0.302357,0.0670308 -0.295364,0.0931279 -0.286123,0.118516 -0.274705,0.143002 -0.261196,0.1664 -0.2457,0.188532 -0.228333,0.209229 -0.209229,0.228333 -0.188532,0.2457 -0.1664,0.261196 -0.143002,0.274705 -0.118516,0.286123 -0.0931279,0.295364 -0.0670308,0.302357 -0.0404237,0.307048 -0.0135088,0.309403 z "/>
<path fill="rgb(187,30,16)" stroke="rgb(187,30,16)" d="M 0.951769,7.25089 l 0.0135088,0.309403 0.0404237,0.307048 0.0670308,0.302357 0.0931279,0.295364 0.118516,0.286123 0.143002,0.274705 0.1664,0.261196 0.188532,0.2457 0.209229,0.228333 0.228333,0.209229 0.2457,0.188532 0.261196,0.1664 0.274705,0.143002 0.286123,0.118516 0.295364,0.0931279 0.302357,0.0670308 0.307048,0.0404237 0.309403,0.0135088 0.309403,-0.0135088 0.307048,-0.0404237 0.302357,-0.0670308 0.295364,-0.0931279 0.286123,-0.118516 0.274705,-0.143002 0.261196,-0.1664 0.2457,-0.188532 0.228333,-0.209229 0.209229,-0.228333 0.188532,-0.2457 0.1664,-0.261196 0.143002,-0.274705 0.118516,-0.286123 0.0931279,-0.295364 0.0670308,-0.302357 0.0404237,-0.307048 0.0135088,-0.309403 0.2,0 -0.0142699,0.326834 -0.042701,0.324347 -0.0708072,0.319391 -0.0983745,0.312004 -0.125193,0.302243 -0.151059,0.290182 -0.175775,0.275912 -0.199154,0.259542 -0.221016,0.241197 -0.241197,0.221016 -0.259542,0.199154 -0.275912,0.175775 -0.290182,0.151059 -0.302243,0.125193 -0.312004,0.0983745 -0.319391,0.0708072 -0.324347,0.042701 -0.326834,0.0142699 -0.326834,-0.0142699 -0.324347,-0.042701 -0.319391,-0.0708072 -0.312004,-0.0983745 -0.302243,-0.125193 -0.290182,-0.151059 -0.275912,-0.175775 -0.259542,-0.199154 -0.241197,-0.221016 -0.221016,-0.241197 -0.199154,-0.259542 -0.175775,-0.275912 -0.151059,-0.290182 -0.125193,-0.302243 -0.0983745,-0.312004 -0.0708072,-0.319391 -0.042701,-0.324347 -0.0142699,-0.326834 0.2,0 z "/>
<path fill="rgb(187,30,16)" stroke="rgb(187,30,16)" d="M 7.15177,7.25089 l -0.0100841,-0.230963 -0.0301754,-0.229205 -0.0500371,-0.225703 -0.069518,-0.220483 -0.0884698,-0.213585 -0.106748,-0.205062 -0.124214,-0.194978 -0.140735,-0.18341 -0.156185,-0.170446 -0.170446,-0.156185 -0.18341,-0.140735 -0.194978,-0.124214 -0.205062,-0.106748 -0.213585,-0.0884698 -0.220483,-0.069518 -0.225703,-0.0500371 -0.229205,-0.0301754 -0.230963,-0.0100841 -0.230963,0.0100841 -0.229205,0.0301754 -0.225703,0.0500371 -0.220483,0.069518 -0.213585,0.0884698 -0.205062,0.106748 -0.194978,0.124214 -0.18341,0.140735 -0.170446,0.156185 -0.156185,0.170446 -0.140735,0.18341 -0.124214,0.194978 -0.106748,0.205062 -0.0884698,0.213585 -0.069518,0.220483 -0.0500371,0.225703 -0.0301754,0.229205 -0.0100841,0.230963 -0.7,0 0.0127478,-0.291972 0.0381463,-0.28975 0.0632545,-0.285322 0.0878812,-0.278724 0.111839,-0.270004 0.134946,-0.259229 0.157026,-0.246481 0.17791,-0.231857 0.197441,-0.215469 0.215469,-0.197441 0.231857,-0.17791 0.246481,-0.157026 0.259229,-0.134946 0.270004,-0.111839 0.278724,-0.0878812 0.285322,-0.0632545 0.28975,-0.0381463 0.291972,-0.0127478 0.291972,0.0127478 0.28975,0.0381463 0.285322,0.0632545 0.278724,0.0878812 0.270004,0.111839 0.259229,0.134946 0.246481,0.157026 0.231857,0.17791 0.215469,0.197441 0.197441,0.215469 0.17791,0.231857 0.157026,0.246481 0.134946,0.259229 0.111839,0.270004 0.0878812,0.278724 0.0632545,0.285322 0.0381463,0.28975 0.0127478,0.291972 -0.7,0 z "/>
<path fill="rgb(187,30,16)" stroke="rgb(187,30,16)" d="M 7.15177,7.25089 l 0.7,0 -0.0127478,0.291972 -0.0381463,0.28975 -0.0632545,0.285322 -0.0878812,0.278724 -0.111839,0.270004 -0.134946,0.259229 -0.157026,0.246481 -0.17791,0.231857 -0.197441,0.215469 -0.215469,0.197441 -0.231857,0.17791 -0.246481,0.157026 -0.259229,0.134946 -0.270004,0.111839 -0.278724,0.0878812 -0.285322,0.0632545 -0.28975,0.0381463 -0.291972,0.0127478 -0.291972,-0.0127478 -0.28975,-0.0381463 -0.285322,-0.0632545 -0.278724,-0.0878812 -0.270004,-0.111839 -0.259229,-0.134946 -0.246481,-0.157026 -0.231857,-0.17791 -0.215469,-0.197441 -0.197441,-0.215469 -0.17791,-0.231857 -0.157026,-0.246481 -0.134946,-0.259229 -0.111839,-0.270004 -0.0878812,-0.278724 -0.0632545,-0.285322 -0.0381463,-0.28975 -0.0127478,-0.291972 0.7,0 0.0100841,0.230963 0.0301754,0.229205 0.0500371,0.225703 0.069518,0.220483 0.0884698,0.213585 0.106748,0.205062 0.124214,0.194978 0.140735,0.18341 0.156185,0.170446 0.170446,0.156185 0.18341,0.140735 0.194978,0.124214 0.205062,0.106748 0.213585,0.0884698 0.220483,0.069518 0.225703,0.0500371 0.229205,0.0301754 0.230963,0.0100841 0.230963,-0.0100841 0.229205,-0.0301754 0.225703,-0.0500371 0.220483,-0.069518 0.213585,-0.0884698 0.205062,-0.106748 0.194978,-0.124214 0.18341,-0.140735 0.170446,-0.156185 0.156185,-0.170446 0.140735,-0.18341 0.124214,-0.194978 0.106748,-0.205062 0.0884698,-0.213585 0.069518,-0.220483 0.0500371,-0.225703 0.0301754,-0.229205 0.0100841,-0.230963 z "/>
</g></g></svg>
