<?xml version="1.0" encoding="UTF-8" standalone="no"?>
<!DOCTYPE svg PUBLIC "-//W3C//DTD SVG 1.1//EN" "http://www.w3.org/Graphics/SVG/1.1/DTD/svg11-flat.dtd"
[

]>
<svg xmlns="http://www.w3.org/2000/svg"  viewBox="-0.0891147 -0.0891147 7.30741 7.30741"><g fill="none" stroke="black" stroke-width="0.0125" transform="translate(0,7.12918) scale(1, -1)">
<g id="Output" >
<path fill="rgb(241,240,234)" stroke="rgb(241,240,234)" d="M 3.59443,3.1 l 0,-0.596524 0.000773515,-0.000326312 0.0101528,-0.00327069 0.0103999,-0.00237036 0.0105674,-0.00145188 0.0106538,-0.000522265 0.0106587,0.000411347 0.0105819,0.00134181 0.010424,0.00226199 0.0101863,0.00316484 0.00987054,0.00404345 0.00947916,0.00489108 0.00901515,0.00570123 0.00848208,0.00646771 0.00788403,0.00718464 0.00722558,0.00784653 0.00651177,0.00844831 0.00574807,0.00898536 0.00494034,0.00945357 0.00409476,0.00984936 0.00321781,0.0101697 0.00231621,0.0104121 0.00139686,0.0105748 0.000466812,0.0106564 -4.44089e-16,0.414899 0.0388402,0.0677022 -0.203888,0 z M 4.53475,3.1 l -0.262892,0 0.0408061,-0.0702192 7.27773e-08,-0.412695 -0.00253631,-0.0584077 -0.00758983,-0.057968 -0.0125862,-0.0570919 -0.0174878,-0.055786 -0.0222578,-0.05406 -0.0268602,-0.0519271 -0.0312604,-0.0494033 -0.0354253,-0.0465075 -0.0393234,-0.0432616 -0.0429255,-0.03969 -0.00384689,-0.00298226 0.52386,0 0,0.88065 -0.0596748,0.11935 z "/>
<path fill="rgb(241,240,234)" stroke="rgb(241,240,234)" d="M 4.59443,1.1 l 0,1 -0.52386,0 -0.0423576,-0.0328373 -0.0491356,-0.0316795 -0.0516968,-0.027301 -0.0538687,-0.0227169 -0.0556352,-0.0179618 -0.0569828,-0.0130714 -0.0579014,-0.00808266 -0.0583841,-0.00303306 -0.050178,0.00175144 0,-0.845068 1,0 z "/>
<path fill="rgb(241,240,234)" stroke="rgb(241,240,234)" d="M 3.09443,4.1 l 0.5,0 0,0.88065 -0.0298374,0.0596748 -0.470163,-0.940325 z "/>
<path fill="rgb(241,240,234)" stroke="rgb(241,240,234)" d="M 3.79831,3.1 l 0.235249,0.410061 0.238297,-0.410061 0.262892,0 -0.5,1 -0.440325,0 0,-1 0.203888,0 z "/>
<path fill="rgb(241,240,234)" stroke="rgb(241,240,234)" d="M 4.59443,2.1 l 0.440325,0 -0.440325,0.88065 0,-0.88065 z "/>
<path fill="rgb(241,240,234)" stroke="rgb(241,240,234)" d="M 2.59443,3.1 l 1,0 0,1 -0.5,0 -0.5,-1 z "/>
<path fill="rgb(241,240,234)" stroke="rgb(241,240,234)" d="M 3.20727,2.1 l -0.0387231,0.0346011 -0.00795243,0.00710592 -0.00853848,0.00638981 -0.00906024,0.0056256 -0.00951379,0.00481904 -0.00989571,0.0039762 -0.0102031,0.00310342 -0.0104338,0.00220728 -0.0105858,0.00129452 -0.0106582,0.000372019 -0.0106503,-0.000553285 -0.0105623,-0.00147442 -0.0103947,-0.00238446 -0.0101489,-0.00327655 -0.00982664,-0.00414397 -0.00943043,-0.00498019 -0.00896322,-0.00577892 -0.00842853,-0.00653415 -0.0078304,-0.00724018 -0.00717331,-0.0078917 -0.00646221,-0.00848381 -0.00570247,-0.00901205 -0.00400429,-0.00774122 0.235142,0 z M 2.59443,2.52553 l 0.00156448,0.0017708 0.0429004,0.0406533 0.0463319,0.0366946 0.0493993,0.0324476 0.0520785,0.0279457 0.0543486,0.0232241 0.0561917,0.0183202 0.0575932,0.0132722 0.0585423,0.00812002 0.0590314,0.00290401 0.0590566,-0.00233482 0.0586178,-0.0075553 0.0577185,-0.0127164 0.0563657,-0.0177776 0.05457,-0.0226991 0.0523455,-0.0274423 0.0497098,-0.0319699 0.0466834,-0.0362462 0.0432903,-0.0402378 0.00780882,-0.00726631 0.0084143,-0.00655565 0.00895532,-0.00579476 0.00942773,-0.00498947 0.0090544,-0.00381965 0,0.596524 -1,0 0,-0.574471 z "/>
<path fill="rgb(241,240,234)" stroke="rgb(241,240,234)" d="M 2.09443,2.1 l 0.315525,0 4.51691e-05,0.00316693 0.00607278,0.0587899 0.011255,0.0580212 0.0163487,0.0567966 0.021314,0.0551257 0.0261118,0.0530217 0.0307045,0.0505012 0.0350559,0.0475838 0.0375674,0.0425217 0,0.574471 -0.5,-1 z "/>
<path fill="rgb(241,240,234)" stroke="rgb(241,240,234)" d="M 2.40995,2.1 l -0.315525,0 -0.5,-1 1,-4.44089e-16 0,0.387545 -0.185273,-0.18528 0,0.741805 0.000797711,0.0559298 z "/>
<path fill="rgb(241,240,234)" stroke="rgb(241,240,234)" d="M 3.59443,1.1 l 0,0.845068 -0.00824919,0.000287934 -0.0580305,0.00709646 -0.0571969,0.0121001 -0.0559327,0.0170127 -0.0542474,0.0217972 -0.0521537,0.0264175 -0.0496674,0.030839 -0.0468072,0.0350284 -0.00487143,0.00435288 -0.235142,0 -0.000895507,-0.00173122 -0.00406023,-0.00986153 -0.0031901,-0.0101764 -0.00229595,-0.0104146 -0.00138452,-0.0105744 -0.000462669,-0.0106546 0,-0.744322 -0.274089,0.276606 -0.0913231,-0.0913265 0,-0.387545 0.970163,0 0.0298374,0 z "/>
<path fill="rgb(241,240,234)" stroke="rgb(241,240,234)" d="M 3.59443,4.1 l 0.440325,0 -0.440325,0.88065 0,-0.88065 z "/>
<path fill="rgb(241,240,234)" stroke="rgb(241,240,234)" d="M 4.59443,2.1 l 0,-1 0.940325,4.44089e-16 -0.5,1 -0.440325,0 z "/>
<path fill="rgb(241,240,234)" stroke="rgb(241,240,234)" d="M 3.56459,0.2 l 3.26459,0 0.00883388,0.000390951 0.00876481,0.0011698 0.0086272,0.0019395 0.00842214,0.00269403 0.00815123,0.0034275 0.00781658,0.00413417 0.00742081,0.00480851 0.00696702,0.00544526 0.00645876,0.00603943 0.00589999,0.00658638 0.00529509,0.00708183 0.00464879,0.0075219 0.00396614,0.00790316 0.00325248,0.00822263 0.00251339,0.0084778 0.00175464,0.00866669 0.000982177,0.00878781 0.000202033,0.00884022 -0.000579691,0.0088235 -0.00135688,0.0087378 -0.00212346,0.00858377 -0.00287344,0.00836263 -0.00360095,0.0080761 -3.26459,6.52918 -0.00412828,0.00744612 -0.0047467,0.00706797 -0.00533072,0.00663859 -0.00587609,0.00616109 -0.00637887,0.00563892 -0.00683541,0.00507588 -0.0072424,0.00447605 -0.0075969,0.00384377 -0.00789632,0.00318363 -0.00813851,0.00250041 -0.00832171,0.00179907 -0.00844458,0.00108468 -0.00850624,0.000362437 0,-0.323607 3.10279,-6.20557 -3.10279,2.66454e-15 0,-0.2 z "/>
<path fill="rgb(241,240,234)" stroke="rgb(241,240,234)" d="M 3.56459,0.2 l 0,0.2 -3.10279,0 3.10279,6.20557 0,0.323607 -0.00850624,-0.000362437 -0.00844458,-0.00108468 -0.00832171,-0.00179907 -0.00813851,-0.00250041 -0.00789632,-0.00318363 -0.0075969,-0.00384377 -0.0072424,-0.00447605 -0.00683541,-0.00507588 -0.00637887,-0.00563892 -0.00587609,-0.00616109 -0.00533072,-0.00663859 -0.0047467,-0.00706797 -0.00412828,-0.00744612 -3.26459,-6.52918 -0.00360095,-0.0080761 -0.00287344,-0.00836263 -0.00212346,-0.00858377 -0.00135688,-0.0087378 -0.000579691,-0.0088235 0.000202033,-0.00884022 0.000982177,-0.00878781 0.00175464,-0.00866669 0.00251339,-0.0084778 0.00325248,-0.00822263 0.00396614,-0.00790316 0.00464879,-0.0075219 0.00529509,-0.00708183 0.00589999,-0.00658638 0.00645876,-0.00603943 0.00696702,-0.00544526 0.00742081,-0.00480851 0.00781658,-0.00413417 0.00815123,-0.0034275 0.00842214,-0.00269403 0.0086272,-0.0019395 0.00876481,-0.0011698 0.00883388,-0.000390951 3.26459,-8.88178e-16 z "/>
<path fill="rgb(42,41,42)" stroke="rgb(42,41,42)" d="M 3.55077,2.5319 l 0.00780882,-0.00726631 0.0084143,-0.00655565 0.00895532,-0.00579476 0.00942773,-0.00498947 0.00982792,-0.00414596 0.0101528,-0.00327069 0.0103999,-0.00237036 0.0105674,-0.00145188 0.0106538,-0.000522265 0.0106587,0.000411347 0.0105819,0.00134181 0.010424,0.00226199 0.0101863,0.00316484 0.00987054,0.00404345 0.00947916,0.00489108 0.00901515,0.00570123 0.00848208,0.00646771 0.00788403,0.00718464 0.00722558,0.00784653 0.00651177,0.00844831 0.00574807,0.00898536 0.00494034,0.00945357 0.00409476,0.00984936 0.00321781,0.0101697 0.00231621,0.0104121 0.00139686,0.0105748 0.000466812,0.0106564 -4.44089e-16,0.414899 0.274089,0.477763 0.279103,-0.48028 7.27773e-08,-0.412695 -0.00253631,-0.0584077 -0.00758983,-0.057968 -0.0125862,-0.0570919 -0.0174878,-0.055786 -0.0222578,-0.05406 -0.0268602,-0.0519271 -0.0312604,-0.0494033 -0.0354253,-0.0465075 -0.0393234,-0.0432616 -0.0429255,-0.03969 -0.0462045,-0.0358196 -0.0491356,-0.0316795 -0.0516968,-0.027301 -0.0538687,-0.0227169 -0.0556352,-0.0179618 -0.0569828,-0.0130714 -0.0579014,-0.00808266 -0.0583841,-0.00303306 -0.0584272,0.00203937 -0.0580305,0.00709646 -0.0571969,0.0121001 -0.0559327,0.0170127 -0.0542474,0.0217972 -0.0521537,0.0264175 -0.0496674,0.030839 -0.0468072,0.0350284 -0.0435945,0.038954 -0.00795243,0.00710592 -0.00853848,0.00638981 -0.00906024,0.0056256 -0.00951379,0.00481904 -0.00989571,0.0039762 -0.0102031,0.00310342 -0.0104338,0.00220728 -0.0105858,0.00129452 -0.0106582,0.000372019 -0.0106503,-0.000553285 -0.0105623,-0.00147442 -0.0103947,-0.00238446 -0.0101489,-0.00327655 -0.00982664,-0.00414397 -0.00943043,-0.00498019 -0.00896322,-0.00577892 -0.00842853,-0.00653415 -0.0078304,-0.00724018 -0.00717331,-0.0078917 -0.00646221,-0.00848381 -0.00570247,-0.00901205 -0.00489979,-0.00947245 -0.00406023,-0.00986153 -0.0031901,-0.0101764 -0.00229595,-0.0104146 -0.00138452,-0.0105744 -0.000462669,-0.0106546 0,-0.744322 -0.274089,0.276606 -0.276596,-0.276606 0,0.741805 0.00084288,0.0590967 0.00607278,0.0587899 0.011255,0.0580212 0.0163487,0.0567966 0.021314,0.0551257 0.0261118,0.0530217 0.0307045,0.0505012 0.0350559,0.0475838 0.0391319,0.0442925 0.0429004,0.0406533 0.0463319,0.0366946 0.0493993,0.0324476 0.0520785,0.0279457 0.0543486,0.0232241 0.0561917,0.0183202 0.0575932,0.0132722 0.0585423,0.00812002 0.0590314,0.00290401 0.0590566,-0.00233482 0.0586178,-0.0075553 0.0577185,-0.0127164 0.0563657,-0.0177776 0.05457,-0.0226991 0.0523455,-0.0274423 0.0497098,-0.0319699 0.0466834,-0.0362462 0.0432903,-0.0402378 z "/>
<path fill="rgb(187,30,16)" stroke="rgb(187,30,16)" d="M 3.56459,5.04033 l 1.97016,-3.94033 -1.97016,-4.44089e-16 0,-0.7 3.10279,-2.66454e-15 -3.10279,6.20557 0,-1.56525 z "/>
<path fill="rgb(187,30,16)" stroke="rgb(187,30,16)" d="M 3.56459,0.2 l 0,-0.2 3.26459,-1.77636e-15 0.0265016,0.00117285 0.0262944,0.00350939 0.0258816,0.00581849 0.0252664,0.00808209 0.0244537,0.0102825 0.0234497,0.0124025 0.0222624,0.0144255 0.0209011,0.0163358 0.0193763,0.0181183 0.0177,0.0197591 0.0158853,0.0212455 0.0139464,0.0225657 0.0118984,0.0237095 0.00975744,0.0246679 0.00754016,0.0254334 0.00526392,0.0260001 0.00294653,0.0263634 0.000606098,0.0265207 -0.00173907,0.0264705 -0.00407065,0.0262134 -0.00637039,0.0257513 -0.00862033,0.0250879 -0.0108029,0.0242283 -3.26459,6.52918 -0.0123848,0.0223384 -0.0142401,0.0212039 -0.0159921,0.0199158 -0.0176283,0.0184833 -0.0191366,0.0169168 -0.0205062,0.0152277 -0.0217272,0.0134282 -0.0227907,0.0115313 -0.023689,0.00955089 -0.0244155,0.00750124 -0.0249651,0.00539721 -0.0253337,0.00325405 -0.0255187,0.00108731 0,-0.2 0.00850624,-0.000362437 0.00844458,-0.00108468 0.00832171,-0.00179907 0.00813851,-0.00250041 0.00789632,-0.00318363 0.0075969,-0.00384377 0.0072424,-0.00447605 0.00683541,-0.00507588 0.00637887,-0.00563892 0.00587609,-0.00616109 0.00533072,-0.00663859 0.0047467,-0.00706797 0.00412828,-0.00744612 3.26459,-6.52918 0.00360095,-0.0080761 0.00287344,-0.00836263 0.00212346,-0.00858377 0.00135688,-0.0087378 0.000579691,-0.0088235 -0.000202033,-0.00884022 -0.000982177,-0.00878781 -0.00175464,-0.00866669 -0.00251339,-0.0084778 -0.00325248,-0.00822263 -0.00396614,-0.00790316 -0.00464879,-0.0075219 -0.00529509,-0.00708183 -0.00589999,-0.00658638 -0.00645876,-0.00603943 -0.00696702,-0.00544526 -0.00742081,-0.00480851 -0.00781658,-0.00413417 -0.00815123,-0.0034275 -0.00842214,-0.00269403 -0.0086272,-0.0019395 -0.00876481,-0.0011698 -0.00883388,-0.000390951 -3.26459,0 z "/>
<path fill="rgb(187,30,16)" stroke="rgb(187,30,16)" d="M 3.56459,0.2 l -3.26459,8.88178e-16 -0.00883388,0.000390951 -0.00876481,0.0011698 -0.0086272,0.0019395 -0.00842214,0.00269403 -0.00815123,0.0034275 -0.00781658,0.00413417 -0.00742081,0.00480851 -0.00696702,0.00544526 -0.00645876,0.00603943 -0.00589999,0.00658638 -0.00529509,0.00708183 -0.00464879,0.0075219 -0.00396614,0.00790316 -0.00325248,0.00822263 -0.00251339,0.0084778 -0.00175464,0.00866669 -0.000982177,0.00878781 -0.000202033,0.00884022 0.000579691,0.0088235 0.00135688,0.0087378 0.00212346,0.00858377 0.00287344,0.00836263 0.00360095,0.0080761 3.26459,6.52918 0.00412828,0.00744612 0.0047467,0.00706797 0.00533072,0.00663859 0.00587609,0.00616109 0.00637887,0.00563892 0.00683541,0.00507588 0.0072424,0.00447605 0.0075969,0.00384377 0.00789632,0.00318363 0.00813851,0.00250041 0.00832171,0.00179907 0.00844458,0.00108468 0.00850624,0.000362437 0,0.2 -0.0255187,-0.00108731 -0.0253337,-0.00325405 -0.0249651,-0.00539721 -0.0244155,-0.00750124 -0.023689,-0.00955089 -0.0227907,-0.0115313 -0.0217272,-0.0134282 -0.0205062,-0.0152277 -0.0191366,-0.0169168 -0.0176283,-0.0184833 -0.0159921,-0.0199158 -0.0142401,-0.0212039 -0.0123848,-0.0223384 -3.26459,-6.52918 -0.0108029,-0.0242283 -0.00862033,-0.0250879 -0.00637039,-0.0257513 -0.00407065,-0.0262134 -0.00173907,-0.0264705 0.000606098,-0.0265207 0.00294653,-0.0263634 0.00526392,-0.0260001 0.00754016,-0.0254334 0.00975744,-0.0246679 0.0118984,-0.0237095 0.0139464,-0.0225657 0.0158853,-0.0212455 0.0177,-0.0197591 0.0193763,-0.0181183 0.0209011,-0.0163358 0.0222624,-0.0144255 0.0234497,-0.0124025 0.0244537,-0.0102825 0.0252664,-0.00808209 0.0258816,-0.00581849 0.0262944,-0.00350939 0.0265016,-0.00117285 3.26459,0 0,0.2 z "/>
<path fill="rgb(187,30,16)" stroke="rgb(187,30,16)" d="M 3.56459,5.04033 l 0,1.56525 -3.10279,-6.20557 3.10279,0 0,0.7 -1.97016,4.44089e-16 1.97016,3.94033 z "/>
</g></g></svg>
