<?xml version="1.0" encoding="UTF-8" standalone="no"?>
<!DOCTYPE svg PUBLIC "-//W3C//DTD SVG 1.1//EN" "http://www.w3.org/Graphics/SVG/1.1/DTD/svg11-flat.dtd"
[

]>
<svg xmlns="http://www.w3.org/2000/svg"  viewBox="-0.125044 -0.125044 10.2536 12.7519"><g fill="none" stroke="black" stroke-width="0.0125" transform="translate(0,12.5018) scale(1, -1)">
<g id="Output" >
<path fill="rgb(241,240,234)" stroke="rgb(241,240,234)" d="M 9.51129,6.24823 l -0.759525,8.88178e-16 0,-2.04734 -0.00266371,-0.061009 -0.00797086,-0.0605447 -0.0132173,-0.0596196 -0.0183632,-0.0582408 -0.0233694,-0.0564187 -0.0281977,-0.0541672 -0.0328114,-0.0515035 -0.0371753,-0.0484478 -0.0412564,-0.0450234 -0.0450234,-0.0412564 -0.0484478,-0.0371753 -0.0515035,-0.0328114 -0.0541672,-0.0281977 -0.0564187,-0.0233694 -0.0582408,-0.0183632 -0.0596196,-0.0132173 -0.0605447,-0.00797086 -0.061009,-0.00266371 -6.1,0 -0.061009,0.00266371 -0.0605447,0.00797086 -0.0596196,0.0132173 -0.0582408,0.0183632 -0.0564187,0.0233694 -0.0541672,0.0281977 -0.0515035,0.0328114 -0.0484478,0.0371753 -0.0450234,0.0412564 -0.0412564,0.0450234 -0.0371753,0.0484478 -0.0328114,0.0515035 -0.0281977,0.0541672 -0.0233694,0.0564187 -0.0183632,0.0582408 -0.0132173,0.0596196 -0.00797086,0.0605447 -0.00266371,0.061009 1.33227e-15,2.04734 -0.743653,0 -8.88178e-16,-5.48819 0.000998892,-0.0228784 0.00298907,-0.0227043 0.00495651,-0.0223574 0.00688622,-0.0218403 0.00876352,-0.021157 0.0105741,-0.0203127 0.0123043,-0.0193138 0.0139407,-0.0181679 0.0154711,-0.0168838 0.0168838,-0.0154711 0.0181679,-0.0139407 0.0193138,-0.0123043 0.0203127,-0.0105741 0.021157,-0.00876352 0.0218403,-0.00688622 0.0223574,-0.00495651 0.0227043,-0.00298907 0.0228784,-0.000998892 8.47818,8.88178e-15 0.0228784,0.000998892 0.0227043,0.00298907 0.0223574,0.00495651 0.0218403,0.00688622 0.021157,0.00876352 0.0203127,0.0105741 0.0193138,0.0123043 0.0181679,0.0139407 0.0168838,0.0154711 0.0154711,0.0168838 0.0139407,0.0181679 0.0123043,0.0193138 0.0105741,0.0203127 0.00876352,0.021157 0.00688622,0.0218403 0.00495651,0.0223574 0.00298907,0.0227043 0.000998892,0.0228784 0,5.48819 z "/>
<path fill="rgb(241,240,234)" stroke="rgb(241,240,234)" d="M 1.25177,6.25089 l 0,2.05 0.00266371,0.061009 0.00797086,0.0605447 0.0132173,0.0596196 0.0183632,0.0582408 0.0233694,0.0564187 0.0281977,0.0541672 0.0328114,0.0515035 0.0371753,0.0484478 0.0412564,0.0450234 0.0450234,0.0412564 0.0484478,0.0371753 0.0515035,0.0328114 0.0541672,0.0281977 0.0564187,0.0233694 0.0582408,0.0183632 0.0596196,0.0132173 0.0605447,0.00797086 0.061009,0.00266371 6.1,0 0.061009,-0.00266371 0.0605447,-0.00797086 0.0596196,-0.0132173 0.0582408,-0.0183632 0.0564187,-0.0233694 0.0541672,-0.0281977 0.0515035,-0.0328114 0.0484478,-0.0371753 0.0450234,-0.0412564 0.0412564,-0.0450234 0.0371753,-0.0484478 0.0328114,-0.0515035 0.0281977,-0.0541672 0.0233694,-0.0564187 0.0183632,-0.0582408 0.0132173,-0.0596196 0.00797086,-0.0605447 0.00266371,-0.061009 1.77636e-15,-2.05 -1.77636e-15,-0.00265976 0.759525,-8.88178e-16 1.77636e-15,0.00265976 -1.77636e-15,5.48553 -0.000998892,0.0228784 -0.00298907,0.0227043 -0.00495651,0.0223574 -0.00688622,0.0218403 -0.00876352,0.021157 -0.0105741,0.0203127 -0.0123043,0.0193138 -0.0139407,0.0181679 -0.0154711,0.0168838 -0.0168838,0.0154711 -0.0181679,0.0139407 -0.0193138,0.0123043 -0.0203127,0.0105741 -0.021157,0.00876352 -0.0218403,0.00688622 -0.0223574,0.00495651 -0.0227043,0.00298907 -0.0228784,0.000998892 -8.47818,-8.88178e-15 -0.0228784,-0.000998892 -0.0227043,-0.00298907 -0.0223574,-0.00495651 -0.0218403,-0.00688622 -0.021157,-0.00876352 -0.0203127,-0.0105741 -0.0193138,-0.0123043 -0.0181679,-0.0139407 -0.0168838,-0.0154711 -0.0154711,-0.0168838 -0.0139407,-0.0181679 -0.0123043,-0.0193138 -0.0105741,-0.0203127 -0.00876352,-0.021157 -0.00688622,-0.0218403 -0.00495651,-0.0223574 -0.00298907,-0.0227043 -0.000998892,-0.0228784 0,-5.48553 8.88178e-16,-0.00265976 0.743653,0 -1.33227e-15,0.00265976 z "/>
<path fill="rgb(241,240,234)" stroke="rgb(241,240,234)" d="M 5.30514,6.24468 l -0.000673147,0.0154568 -0.00201434,0.0153397 -0.00334029,0.0151065 -0.00464094,0.014759 -0.00590645,0.0142996 -0.00712724,0.013732 -0.00829405,0.0130604 -0.00939806,0.0122899 -0.0104309,0.0114263 -0.0113848,0.0104762 -0.0122524,0.00944684 -0.0130273,0.0083459 -0.0137035,0.00718176 -0.014276,0.00596324 -0.0147404,0.00469957 -0.0150931,0.00340031 -0.0153316,0.0020753 -0.015454,0.000734582 -0.0154593,-0.000611702 -0.0153476,-0.00195335 -0.0151197,-0.00328022 -0.0147773,-0.00458224 -0.014323,-0.00584956 -0.0138546,-0.00712649 -0.0131776,-0.00831203 -0.0123993,-0.00943375 -0.0115258,-0.010483 -0.0105638,-0.0114518 -0.00952071,-0.0123326 -0.0084045,-0.0131188 -0.00722375,-0.0138042 -0.00598752,-0.0143836 -0.00470533,-0.0148525 -0.003387,-0.0152074 -0.00204266,-0.0154456 -0.000682633,-0.0155651 0.000665037,-0.0153636 0.00199014,-0.0152486 0.00330035,-0.0150196 0.00458587,-0.0146782 0.00583708,-0.0142271 0.00704463,-0.0136695 0.00819948,-0.0130096 0.00929299,-0.0122524 0.010317,-0.0114036 0.0112638,-0.0104694 0.0121263,-0.00945692 0.0128982,-0.00837369 0.0135735,-0.00722782 0.0141473,-0.00602788 0.0146152,-0.00478284 0.0149739,-0.00350203 0.0152205,-0.00219502 0.0153532,-0.000871584 0.0153711,0.00045837 0.015274,0.00178489 0.0153524,0.00317113 0.0150134,0.00451114 0.0145577,0.00581608 0.0139888,0.0070758 0.0133112,0.00828052 0.01253,0.00942085 0.0116515,0.010488 0.0106823,0.0114735 0.00963015,0.0123699 0.0085031,0.0131701 0.00730995,0.0138679 0.00605996,0.0144579 0.00476287,0.0149355 0.00342875,0.015297 0.00206797,0.0155395 0.000691114,0.0156613 z "/>
<path fill="rgb(241,240,234)" stroke="rgb(241,240,234)" d="M 4.65496,4.67927 l -0.000785396,0.0179885 -0.00235021,0.0178516 -0.00389714,0.0175788 -0.0054144,0.0171723 -0.00689046,0.016635 -0.00831408,0.0159712 -0.00967443,0.0151858 -0.0109611,0.0142848 -0.0121644,0.0132752 -0.0132752,0.0121644 -0.0142848,0.0109611 -0.0151858,0.00967443 -0.0159712,0.00831408 -0.016635,0.00689046 -0.0171723,0.0054144 -0.0175788,0.00389714 -0.0178516,0.00235021 -0.0179885,0.000785395 -0.0179885,-0.000785395 -0.0178516,-0.00235021 -0.0175788,-0.00389714 -0.0171723,-0.0054144 -0.016635,-0.00689046 -0.0159712,-0.00831408 -0.0151858,-0.00967443 -0.0142848,-0.0109611 -0.0132752,-0.0121644 -0.0121644,-0.0132752 -0.0109611,-0.0142848 -0.00967443,-0.0151858 -0.00831408,-0.0159712 -0.00689046,-0.016635 -0.0054144,-0.0171723 -0.00389714,-0.0175788 -0.00235021,-0.0178516 -0.000785396,-0.0179885 0.000509175,-0.0144887 0.00152501,-0.0144172 0.00253333,-0.0142746 0.00459977,-0.0176481 0.00613972,-0.0171731 0.00763173,-0.0165641 0.00906416,-0.0158257 0.0104258,-0.0149638 0.0117061,-0.013985 0.0128949,-0.012897 0.0139831,-0.0117084 0.0149621,-0.0104283 0.0158242,-0.00906676 0.0165628,-0.00763446 0.0171721,-0.00614254 0.0176473,-0.00460267 0.0179847,-0.00302686 0.0181817,-0.00142741 0.0182367,0.000183181 0.0181494,0.00179234 0.0179203,0.00338751 0.0175513,0.00495622 0.0170453,0.00648624 0.0164061,0.00796562 0.0156389,0.0093828 0.0147496,0.0107267 0.0137451,0.0119869 0.0126332,0.0131534 0.0114228,0.0142173 0.0101231,0.0151702 0.00874444,0.0160046 0.00729747,0.016714 0.00598987,0.0179827 0.00431493,0.0184564 0.0026036,0.0187744 0.000870314,0.0189341 z "/>
<path fill="rgb(241,240,234)" stroke="rgb(241,240,234)" d="M 3.55336,4.48774 l -0.477532,1.64367 0.0845219,0.524704 0.566998,-0.450057 0.0944817,0.0746079 -0.728634,0.750939 -0.0184615,0.0175025 -0.0198564,0.0159024 -0.0211131,0.0141916 -0.0222227,0.012382 -0.0231777,0.0104862 -0.0239712,0.00851732 -0.0245978,0.00648918 -0.0250532,0.00441586 -0.0253341,0.00231179 -0.0279986,9.32625e-05 -0.0278891,-0.00247575 -0.0275443,-0.00502389 -0.0269673,-0.00752965 -0.0261628,-0.00997191 -0.0251376,-0.0123301 -0.0239004,-0.0145842 -0.0224617,-0.0167154 -0.0208335,-0.0187055 -0.392884,-0.440171 -0.0322915,-0.509766 0.124335,6.49507e-06 0.0795477,0.447601 0.131786,0.106938 2.68894e-05,-0.514743 -0.156625,-0.73857 -0.350581,-0.790771 0.116883,-0.106925 0.464973,0.731099 0.186476,0.507306 0.567029,-1.24083 0.154174,8.05382e-06 z "/>
<path fill="rgb(241,240,234)" stroke="rgb(241,240,234)" d="M 3.14912,7.42325 l -0.000941527,0.0215645 -0.00281742,0.0214004 -0.00467186,0.0210734 -0.00649075,0.020586 -0.00826025,0.019942 -0.00996687,0.0191462 -0.0115976,0.0182047 -0.0131402,0.0171246 -0.0145827,0.0159142 -0.0159142,0.0145827 -0.0171246,0.0131402 -0.0182047,0.0115976 -0.0191462,0.00996687 -0.019942,0.00826025 -0.020586,0.00649075 -0.0210734,0.00467186 -0.0214004,0.00281742 -0.0215645,0.000941527 -0.0215645,-0.000941527 -0.0214004,-0.00281742 -0.0210734,-0.00467186 -0.020586,-0.00649075 -0.019942,-0.00826025 -0.0191462,-0.00996687 -0.0182047,-0.0115976 -0.0171246,-0.0131402 -0.0159142,-0.0145827 -0.0145827,-0.0159142 -0.0131402,-0.0171246 -0.0115976,-0.0182047 -0.00996687,-0.0191462 -0.00826025,-0.019942 -0.00649075,-0.020586 -0.00467186,-0.0210734 -0.00281742,-0.0214004 -0.000941527,-0.0215645 0.000893037,-0.0210029 0.00267266,-0.0208513 0.004433,-0.0205492 0.00616133,-0.0200987 0.00784519,-0.0195031 0.00947242,-0.0187668 0.0110313,-0.017895 0.0125105,-0.016894 0.0138994,-0.0157711 0.015188,-0.0145343 0.0163669,-0.0131926 0.0174277,-0.0117556 0.0183627,-0.0102338 0.0191651,-0.00863817 0.0198292,-0.00698015 0.0203501,-0.00527174 0.0207242,-0.00352527 0.0209486,-0.00175335 0.0219748,7.49962e-05 0.0218814,0.00202445 0.0216155,0.00395793 0.0211791,0.00586019 0.0205756,0.00771623 0.0198098,0.00951141 0.0188878,0.0112316 0.0178167,0.0128631 0.0166052,0.0143932 0.0152626,0.0158097 0.0137997,0.0171016 0.0122279,0.0182585 0.0105596,0.0192715 0.00880809,0.0201324 0.00698707,0.0208345 0.00511094,0.0213723 0.00319449,0.0217415 0.000706705,0.00833806 0.000424347,0.00835719 0.000141503,0.00836676 z "/>
<path fill="rgb(241,240,234)" stroke="rgb(241,240,234)" d="M 5.04779,5.9475 l -0.365521,-0.497358 0.0596902,-0.0348042 0.313312,0.268579 0.0571996,-0.198925 -0.166557,-0.997176 0.124335,6.49507e-06 0.236211,0.644068 0.14175,-0.228769 0.46005,-0.129289 0.0173971,0.124336 -0.340694,0.154166 -0.154189,0.474949 -0.0273723,0.233733 0.11936,-0.0571829 0.124342,-0.141732 0.0646528,0.0721071 -0.139261,0.213855 -0.332817,0.158362 -0.0120276,0.00508714 -0.012428,0.00401087 -0.0127323,0.00290358 -0.0129381,0.00177385 -0.0130439,0.000630398 -0.0130489,-0.000517927 -0.0128036,-0.00163644 -0.0126131,-0.00274201 -0.0123274,-0.00382687 -0.0119485,-0.00488282 -0.0114794,-0.00590188 -0.0109236,-0.00687637 -0.0102852,-0.0077989 -0.00956921,-0.00866253 -0.00878088,-0.00946072 -0.00792623,-0.0101874 -0.0070117,-0.0108372 z "/>
<path fill="rgb(0,91,140)" stroke="rgb(0,91,140)" d="M 4.07789,7.60609 l -0.00404196,0.000223682 -0.00404579,-0.000138014 -0.00401732,-0.000498608 -0.00395677,-0.000855221 -0.00386463,-0.00120501 -0.00374164,-0.00154517 -0.00358878,-0.001873 -0.00340726,-0.00218587 -0.00319854,-0.00248129 -0.00296428,-0.0027569 -0.00270635,-0.0030105 -0.00242681,-0.00324006 -0.0021279,-0.00344376 -0.001812,-0.00361996 -0.00148164,-0.00376725 -0.00113944,-0.00388447 -0.000788148,-0.00397068 -0.000430561,-0.00402518 4.67679e-06,-0.0895276 0.000236019,-0.00431915 0.000606117,-0.00428292 0.000971736,-0.00421504 0.00133017,-0.004116 0.00167878,-0.00398654 0.00201498,-0.00382762 0.00233628,-0.00364041 0.00264032,-0.00342629 0.00292485,-0.00318686 0.00318776,-0.00292387 0.00342711,-0.00263927 0.00364113,-0.00233516 0.00382824,-0.0020138 0.00398706,-0.00167755 0.00411641,-0.0013289 0.00421534,-0.000970438 0.00428311,-0.000604798 0.00431923,-0.000234689 0.206395,1.07818e-05 0.00370592,0.000160811 0.00367811,0.000480841 0.00362272,0.000797265 0.00354016,0.00110771 0.00343104,0.00140985 0.0032962,0.00170141 0.00313664,0.00198021 0.00295355,0.00224417 0.00274831,0.00249129 0.00252246,0.00271973 0.00227769,0.00292777 0.00201585,0.00311386 0.00173888,0.00327659 0.00144887,0.00341475 0.001148,0.0035273 0.000838514,0.0036134 0.000522743,0.00367239 0.000203051,0.00370385 -0.000118164,0.00370753 -0.000438492,0.0036834 -0.0149192,0.0895268 -0.000952484,0.0044647 -0.00135042,0.00436087 -0.00173739,0.00422164 -0.00211026,0.00404816 -0.00246601,0.00384182 -0.00280175,0.0036043 -0.00311474,0.00333754 -0.00340246,0.00304368 -0.00366257,0.00272513 -0.00389296,0.00238446 -0.00409175,0.00202444 -0.00425733,0.00164799 -0.00438837,0.00125817 -0.00448379,0.000858139 -0.00454282,0.000451141 -0.186502,-9.7426e-06 z "/>
<path fill="rgb(0,91,140)" stroke="rgb(0,91,140)" d="M 5.27648,7.60615 l 0.00404193,0.000224104 0.0040458,-0.000137591 0.00401737,-0.000498188 0.00395686,-0.000854808 0.00386476,-0.0012046 0.0037418,-0.00154478 0.00358897,-0.00187262 0.00340749,-0.00218551 0.0031988,-0.00248096 0.00296456,-0.00275659 0.00270666,-0.00301022 0.00242715,-0.00323981 0.00212826,-0.00344353 0.00181238,-0.00361977 0.00148203,-0.0037671 0.00113985,-0.00388435 0.000788563,-0.00397059 0.000430982,-0.00402513 4.67679e-06,-0.0895276 -0.000235568,-0.00431918 -0.00060567,-0.00428299 -0.000971295,-0.00421514 -0.00132974,-0.00411614 -0.00167836,-0.00398672 -0.00201458,-0.00382783 -0.0023359,-0.00364065 -0.00263996,-0.00342657 -0.00292452,-0.00318716 -0.00318745,-0.0029242 -0.00342683,-0.00263963 -0.00364088,-0.00233554 -0.00382803,-0.0020142 -0.00398688,-0.00167797 -0.00411627,-0.00132933 -0.00421523,-0.000970878 -0.00428305,-0.000605246 -0.0043192,-0.000235141 -0.206395,-1.07818e-05 -0.00370594,0.000160424 -0.00367816,0.000480457 -0.0036228,0.000796886 -0.00354027,0.00110734 -0.00343119,0.00140949 -0.00329638,0.00170107 -0.00313684,0.00197989 -0.00295378,0.00224386 -0.00274857,0.002491 -0.00252274,0.00271947 -0.002278,0.00292753 -0.00201617,0.00311365 -0.00173922,0.00327641 -0.00144923,0.0034146 -0.00114837,0.00352718 -0.000838892,0.00361331 -0.000523127,0.00367234 -0.000203438,0.00370383 0.000117776,0.00370754 0.000438107,0.00368345 0.0149098,0.0895283 0.000952017,0.0044648 0.00134996,0.00436101 0.00173695,0.00422182 0.00210984,0.00404838 0.00246561,0.00384208 0.00280137,0.00360459 0.0031144,0.00333786 0.00340215,0.00304404 0.00366229,0.00272551 0.00389271,0.00238487 0.00409154,0.00202487 0.00425716,0.00164844 0.00438824,0.00125863 0.0044837,0.000858607 0.00454278,0.000451616 0.186502,9.7426e-06 z "/>
<path fill="rgb(0,91,140)" stroke="rgb(0,91,140)" d="M 5.20933,7.71805 l -0.355266,0.0265022 -0.356253,-1.86101e-05 -0.355263,-0.0265393 0.096962,0.243696 0.173393,0.0286221 0.175151,0.0143637 0.175739,9.18037e-06 0.175153,-0.0143454 0.173396,-0.028604 0.0969874,-0.243686 z "/>
<path fill="rgb(241,240,234)" stroke="rgb(241,240,234)" d="M 4.14312,7.98193 l 0.0292511,0.0692866 0.167177,0.0262208 0.168484,0.0157767 0.169139,0.0052716 0.169139,-0.00525393 0.117199,-0.0109621 0,-0.0959791 -0.0245605,0.00405159 -0.175153,0.0143454 -0.175739,-9.18037e-06 -0.175151,-0.0143637 -0.0507945,-0.00838469 -0.21899,0 z "/>
<path fill="rgb(241,240,234)" stroke="rgb(241,240,234)" d="M 4.07789,7.60609 l -0.00404196,0.000223682 -0.00404579,-0.000138014 -0.00401732,-0.000498608 -0.00395677,-0.000855221 -0.00386463,-0.00120501 -0.00374164,-0.00154517 -0.00358878,-0.001873 -0.00340726,-0.00218587 -0.00319854,-0.00248129 -0.00296428,-0.0027569 -0.00270635,-0.0030105 -0.00242681,-0.00324006 -0.0021279,-0.00344376 -0.001812,-0.00361996 -0.00148164,-0.00376725 -0.00113944,-0.00388447 -0.000788148,-0.00397068 -0.000430561,-0.00402518 4.67679e-06,-0.0895276 0.000236019,-0.00431915 0.000606117,-0.00428292 0.000971736,-0.00421504 0.00133017,-0.004116 0.00167878,-0.00398654 0.00201498,-0.00382762 0.00233628,-0.00364041 0.00264032,-0.00342629 0.00292485,-0.00318686 0.00318776,-0.00292387 0.00342711,-0.00263927 0.00364113,-0.00233516 0.00382824,-0.0020138 0.00398706,-0.00167755 0.00411641,-0.0013289 0.00421534,-0.000970438 0.00428311,-0.000604798 0.00431923,-0.000234689 0.206395,1.07818e-05 0.00370592,0.000160811 0.00367811,0.000480841 0.00362272,0.000797265 0.00354016,0.00110771 0.00343104,0.00140985 0.0032962,0.00170141 0.00313664,0.00198021 0.00295355,0.00224417 0.00274831,0.00249129 0.00252246,0.00271973 0.00227769,0.00292777 0.00201585,0.00311386 0.00173888,0.00327659 0.00144887,0.00341475 0.001148,0.0035273 0.000838514,0.0036134 0.000522743,0.00367239 0.000203051,0.00370385 -0.000118164,0.00370753 -0.000438492,0.0036834 -0.0149192,0.0895268 -0.000952484,0.0044647 -0.00135042,0.00436087 -0.00173739,0.00422164 -0.00211026,0.00404816 -0.00246601,0.00384182 -0.00280175,0.0036043 -0.00311474,0.00333754 -0.00340246,0.00304368 -0.00366257,0.00272513 -0.00389296,0.00238446 -0.00409175,0.00202444 -0.00425733,0.00164799 -0.00438837,0.00125817 -0.00448379,0.000858139 -0.00454282,0.000451141 -0.186502,-9.7426e-06 z M 4.36211,7.98193 l -0.122599,-0.0202374 -0.096962,-0.243696 0.355263,0.0265393 0.356253,1.86101e-05 0.109443,-0.00816426 0,-0.510722 -0.287543,-1.50208e-05 -0.436416,-2.27978e-05 1.15609e-05,-0.22131 -8.219e-05,-0.00192419 -0.000246171,-0.00191015 -0.000408354,-0.00188216 -0.000567555,-0.00184042 -0.000722612,-0.00178524 -0.000872392,-0.00171703 -0.0010158,-0.00163628 -0.00115179,-0.00154358 -0.00127937,-0.00143961 -0.00139761,-0.00132512 -0.00150564,-0.00120096 -0.00160268,-0.00106803 -0.00168801,-0.000927299 -0.00176102,-0.000779796 -0.00182116,-0.000626599 -0.00186801,-0.000468826 -0.00190122,-0.00030763 -0.144228,-7.53424e-06 -0.00177772,7.89467e-05 -0.0017637,0.000236403 -0.00173576,0.000391993 -0.00169412,0.00054449 -0.00163911,0.00069269 -0.00157117,0.000835424 -0.00149083,0.000971565 -0.00139872,0.00110004 -0.00129558,0.00121983 -0.00118221,0.00133 -0.00105951,0.00142967 -0.000928452,0.00151805 -0.000790065,0.00159446 -0.000645443,0.00165829 -0.000495728,0.00170902 -0.000342101,0.00174628 -0.000185774,0.00176975 -2.79804e-05,0.00177925 0.000130034,0.00177471 -1.15609e-05,0.22131 -0.0372964,-1.94831e-06 -0.0547148,0.0895247 -1.66272e-05,0.318294 0.0671313,0.0820637 0.11248,0.266429 0.21899,0 z "/>
<path fill="rgb(241,240,234)" stroke="rgb(241,240,234)" d="M 5.27648,7.60615 l -0.186502,-9.7426e-06 -0.00454278,-0.000451616 -0.0044837,-0.000858607 -0.00438824,-0.00125863 -0.00425716,-0.00164844 -0.00409154,-0.00202487 -0.00389271,-0.00238487 -0.00366229,-0.00272551 -0.00340215,-0.00304404 -0.0031144,-0.00333786 -0.00280137,-0.00360459 -0.00246561,-0.00384208 -0.00210984,-0.00404838 -0.00173695,-0.00422182 -0.00134996,-0.00436101 -0.000952017,-0.0044648 -0.0149098,-0.0895283 -0.000438107,-0.00368345 -0.000117776,-0.00370754 0.000203438,-0.00370383 0.000523127,-0.00367234 0.000838892,-0.00361331 0.00114837,-0.00352718 0.00144923,-0.0034146 0.00173922,-0.00327641 0.00201617,-0.00311365 0.002278,-0.00292753 0.00252274,-0.00271947 0.00274857,-0.002491 0.00295378,-0.00224386 0.00313684,-0.00197989 0.00329638,-0.00170107 0.00343119,-0.00140949 0.00354027,-0.00110734 0.0036228,-0.000796886 0.00367816,-0.000480457 0.00370594,-0.000160424 0.206395,1.07818e-05 0.0043192,0.000235141 0.00428305,0.000605246 0.00421523,0.000970878 0.00411627,0.00132933 0.00398688,0.00167797 0.00382803,0.0020142 0.00364088,0.00233554 0.00342683,0.00263963 0.00318745,0.0029242 0.00292452,0.00318716 0.00263996,0.00342657 0.0023359,0.00364065 0.00201458,0.00382783 0.00167836,0.00398672 0.00132974,0.00411614 0.000971295,0.00421514 0.00060567,0.00428299 0.000235568,0.00431918 -4.67679e-06,0.0895276 -0.000430982,0.00402513 -0.000788563,0.00397059 -0.00113985,0.00388435 -0.00148203,0.0037671 -0.00181238,0.00361977 -0.00212826,0.00344353 -0.00242715,0.00323981 -0.00270666,0.00301022 -0.00296456,0.00275659 -0.0031988,0.00248096 -0.00340749,0.00218551 -0.00358897,0.00187262 -0.0037418,0.00154478 -0.00386476,0.0012046 -0.00395686,0.000854808 -0.00401737,0.000498188 -0.0040458,0.000137591 -0.00404193,-0.000224104 z M 5.29639,7.22568 l 1.15609e-05,-0.22131 -8.219e-05,-0.00192419 -0.000246171,-0.00191015 -0.000408354,-0.00188216 -0.000567555,-0.00184042 -0.000722612,-0.00178524 -0.000872392,-0.00171703 -0.0010158,-0.00163628 -0.00115179,-0.00154358 -0.00127937,-0.00143961 -0.00139761,-0.00132512 -0.00150564,-0.00120096 -0.00160268,-0.00106803 -0.00168801,-0.000927299 -0.00176102,-0.000779796 -0.00182116,-0.000626599 -0.00186801,-0.000468826 -0.00190122,-0.00030763 -0.141738,-7.40421e-06 -0.00195071,8.50679e-05 -0.00193588,0.00025476 -0.00190631,0.000422514 -0.00186223,0.000587051 -0.00180398,0.000747121 -0.001732,0.000901505 -0.00164683,0.00104903 -0.00154914,0.00118857 -0.00143965,0.00131906 -0.00131921,0.00143952 -0.00118873,0.00154901 -0.0010492,0.00164672 -0.000901686,0.0017319 -0.00074731,0.0018039 -0.000587246,0.00186217 -0.000422713,0.00190626 -0.000254962,0.00193585 -8.52717e-05,0.00195071 -1.15609e-05,0.22131 -0.148874,-7.77695e-06 0,0.510722 0.245823,-0.0183379 -0.0969874,0.243686 -0.122402,0.0201918 0.220798,0 0.110501,-0.266361 0.0696391,-0.0820565 1.66272e-05,-0.318294 -0.0572047,-0.0895305 -0.0372964,-1.94831e-06 z "/>
<path fill="rgb(241,240,234)" stroke="rgb(241,240,234)" d="M 5.21074,7.98193 l -0.220798,0 -0.0264336,0.00436057 0,0.0959791 0.0512859,-0.00479698 0.16718,-0.0262034 0.0287657,-0.0693393 z "/>
<path fill="rgb(241,240,234)" stroke="rgb(241,240,234)" d="M 6.31596,6.78808 l -0.258637,0.216328 6.28729e-05,-1.20357 1.20605,6.30024e-05 -0.238728,0.276017 -0.708713,-3.70221e-05 -3.71521e-05,0.711202 z "/>
<path fill="rgb(241,240,234)" stroke="rgb(241,240,234)" d="M 6.31596,6.78808 l 0.708713,3.70221e-05 3.71521e-05,-0.711202 0.238728,-0.276017 -5.15715e-05,0.987231 0.537125,2.80586e-05 5.15715e-05,-0.987231 0.19397,1.01327e-05 -6.28729e-05,1.20357 -0.944995,0.736013 -0.502278,-0.373031 -7.27418e-06,0.139249 -0.223799,-1.16909e-05 1.59776e-05,-0.305859 -0.266083,-0.196463 0.258637,-0.216328 z "/>
<path fill="rgb(0,91,140)" stroke="rgb(0,91,140)" d="M 6.31596,6.78808 l 3.71521e-05,-0.711202 0.708713,3.70221e-05 -3.71521e-05,0.711202 -0.708713,-3.70221e-05 z "/>
<path fill="rgb(0,91,140)" stroke="rgb(0,91,140)" d="M 4.65496,4.67927 l -0.000870314,-0.0189341 -0.0026036,-0.0187744 -0.00431493,-0.0184564 -0.00598987,-0.0179827 0.304733,-0.117307 0.166557,0.997176 -0.0571996,0.198925 -0.313312,-0.268579 -0.0596902,0.0348042 0.365521,0.497358 0.0070117,0.0108372 0.00792623,0.0101874 0.00878088,0.00946072 0.00956921,0.00866253 0.0102852,0.0077989 0.0109236,0.00687637 0.0114794,0.00590188 0.0119485,0.00488282 0.0123274,0.00382687 0.0126131,0.00274201 0.0128036,0.00163644 -0.00785918,0.0488271 -0.015274,-0.00178489 -0.0153711,-0.00045837 -0.0153532,0.000871584 -0.0152205,0.00219502 -0.0149739,0.00350203 -0.0146152,0.00478284 -0.0141473,0.00602788 -0.0135735,0.00722782 -0.0128982,0.00837369 -0.0121263,0.00945692 -0.0112638,0.0104694 -0.010317,0.0114036 -0.00929299,0.0122524 -0.00819948,0.0130096 -0.00704463,0.0136695 -0.00583708,0.0142271 -0.00458587,0.0146782 -0.00330035,0.0150196 -0.00199014,0.0152486 -0.000665037,0.0153636 0.000682633,0.0155651 0.00204266,0.0154456 0.003387,0.0152074 0.00470533,0.0148525 0.00598752,0.0143836 0.00722375,0.0138042 0.0084045,0.0131188 0.00952071,0.0123326 0.0105638,0.0114518 0.0115258,0.010483 0.0123993,0.00943375 0.0131776,0.00831203 0.0138546,0.00712649 -0.377062,0.819453 -0.436416,-2.27978e-05 1.15609e-05,-0.22131 -8.219e-05,-0.00192419 -0.000246171,-0.00191015 -0.000408354,-0.00188216 -0.000567555,-0.00184042 -0.000722612,-0.00178524 -0.000872392,-0.00171703 -0.0010158,-0.00163628 -0.00115179,-0.00154358 -0.00127937,-0.00143961 -0.00139761,-0.00132512 -0.00150564,-0.00120096 -0.00160268,-0.00106803 -0.00168801,-0.000927299 -0.00176102,-0.000779796 -0.00182116,-0.000626599 -0.00186801,-0.000468826 -0.00190122,-0.00030763 -0.144228,-7.53424e-06 -0.00177772,7.89467e-05 -0.0017637,0.000236403 -0.00173576,0.000391993 -0.00169412,0.00054449 -0.00163911,0.00069269 -0.00157117,0.000835424 -0.00149083,0.000971565 -0.00139872,0.00110004 -0.00129558,0.00121983 -0.00118221,0.00133 -0.00105951,0.00142967 -0.000928452,0.00151805 -0.000790065,0.00159446 -0.000645443,0.00165829 -0.000495728,0.00170902 -0.000342101,0.00174628 -0.000185774,0.00176975 -2.79804e-05,0.00177925 0.000130034,0.00177471 -1.15609e-05,0.22131 -0.0372964,-1.94831e-06 -0.0547148,0.0895247 -0.815677,0.0830482 -0.00319449,-0.0217415 -0.00511094,-0.0213723 -0.00698707,-0.0208345 -0.00880809,-0.0201324 -0.0105596,-0.0192715 -0.0122279,-0.0182585 -0.0137997,-0.0171016 -0.0152626,-0.0158097 -0.0166052,-0.0143932 -0.0178167,-0.0128631 -0.0188878,-0.0112316 -0.0198098,-0.00951141 -0.0205756,-0.00771623 -0.0211791,-0.00586019 -0.0216155,-0.00395793 -0.0218814,-0.00202445 -0.0219748,-7.49962e-05 -0.00214297,-0.0522269 0.0253341,-0.00231179 0.0250532,-0.00441586 0.0245978,-0.00648918 0.0239712,-0.00851732 0.0231777,-0.0104862 0.0222227,-0.012382 0.0211131,-0.0141916 0.0198564,-0.0159024 0.0184615,-0.0175025 0.728634,-0.750939 -0.0944817,-0.0746079 -0.566998,0.450057 -0.0845219,-0.524704 0.477532,-1.64367 0.693377,0.148347 -0.00253333,0.0142746 -0.00152501,0.0144172 -0.000509175,0.0144887 0.000785395,0.0179885 0.00235021,0.0178516 0.00389714,0.0175788 0.0054144,0.0171723 0.00689046,0.016635 0.00831408,0.0159712 0.00967443,0.0151858 0.0109611,0.0142848 0.0121644,0.0132752 0.0132752,0.0121644 0.0142848,0.0109611 0.0151858,0.00967443 0.0159712,0.00831408 0.016635,0.00689046 0.0171723,0.0054144 0.0175788,0.00389714 0.0178516,0.00235021 0.0179885,0.000785395 0.0179885,-0.000785395 0.0178516,-0.00235021 0.0175788,-0.00389714 0.0171723,-0.0054144 0.016635,-0.00689046 0.0159712,-0.00831408 0.0151858,-0.00967443 0.0142848,-0.0109611 0.0132752,-0.0121644 0.0121644,-0.0132752 0.0109611,-0.0142848 0.00967443,-0.0151858 0.00831408,-0.0159712 0.00689046,-0.016635 0.0054144,-0.0171723 0.00389714,-0.0175788 0.00235021,-0.0178516 0.000785395,-0.0179885 z "/>
<path fill="rgb(0,91,140)" stroke="rgb(0,91,140)" d="M 5.29639,7.22568 l 1.15609e-05,-0.22131 -8.219e-05,-0.00192419 -0.000246171,-0.00191015 -0.000408354,-0.00188216 -0.000567555,-0.00184042 -0.000722612,-0.00178524 -0.000872392,-0.00171703 -0.0010158,-0.00163628 -0.00115179,-0.00154358 -0.00127937,-0.00143961 -0.00139761,-0.00132512 -0.00150564,-0.00120096 -0.00160268,-0.00106803 -0.00168801,-0.000927299 -0.00176102,-0.000779796 -0.00182116,-0.000626599 -0.00186801,-0.000468826 -0.00190122,-0.00030763 -0.141738,-7.40421e-06 -0.00195071,8.50679e-05 -0.00193588,0.00025476 -0.00190631,0.000422514 -0.00186223,0.000587051 -0.00180398,0.000747121 -0.001732,0.000901505 -0.00164683,0.00104903 -0.00154914,0.00118857 -0.00143965,0.00131906 -0.00131921,0.00143952 -0.00118873,0.00154901 -0.0010492,0.00164672 -0.000901686,0.0017319 -0.00074731,0.0018039 -0.000587246,0.00186217 -0.000422713,0.00190626 -0.000254962,0.00193585 -8.52717e-05,0.00195071 -1.15609e-05,0.22131 -0.436416,-2.27978e-05 0.377062,-0.819453 0.014323,0.00584956 0.0147773,0.00458224 0.0151197,0.00328022 0.0153476,0.00195335 0.0154593,0.000611702 0.015454,-0.000734582 0.0153316,-0.0020753 0.0150931,-0.00340031 0.0147404,-0.00469957 0.014276,-0.00596324 0.0137035,-0.00718176 0.0130273,-0.0083459 0.0122524,-0.00944684 0.0113848,-0.0104762 0.0104309,-0.0114263 0.00939806,-0.0122899 0.00829405,-0.0130604 0.00712724,-0.013732 0.00590645,-0.0142996 0.00464094,-0.014759 0.00334029,-0.0151065 0.00201434,-0.0153397 0.000673147,-0.0154568 -0.000691114,-0.0156613 -0.00206797,-0.0155395 -0.00342875,-0.015297 -0.00476287,-0.0149355 -0.00605996,-0.0144579 -0.00730995,-0.0138679 -0.0085031,-0.0131701 -0.00963015,-0.0123699 -0.0106823,-0.0114735 -0.0116515,-0.010488 -0.01253,-0.00942085 -0.0133112,-0.00828052 -0.0139888,-0.0070758 -0.0145577,-0.00581608 -0.0150134,-0.00451114 -0.0153524,-0.00317113 0.00785918,-0.0488271 0.0130489,0.000517927 0.0130439,-0.000630398 0.0129381,-0.00177385 0.0127323,-0.00290358 0.012428,-0.00401087 0.0120276,-0.00508714 0.332817,-0.158362 0.139261,-0.213855 -0.0646528,-0.0721071 -0.124342,0.141732 -0.11936,0.0571829 0.0273723,-0.233733 0.154189,-0.474949 0.340694,-0.154166 -0.0173971,-0.124336 -0.46005,0.129289 -0.14175,0.228769 0.102738,-1.231 2.64257,-4.44089e-16 0.0261467,0.00114159 0.0259477,0.00341608 0.0255513,0.00566458 0.0249603,0.00786996 0.0241794,0.0100155 0.0232145,0.0120847 0.0220729,0.014062 0.0207634,0.0159323 0.0192958,0.0176813 -1.00046,1.81214 -1.20605,-6.30024e-05 -6.28729e-05,1.20357 -0.666434,0.310802 -0.0572047,-0.0895305 -0.0372964,-1.94831e-06 z "/>
<path fill="rgb(0,91,140)" stroke="rgb(0,91,140)" d="M 7.04948,7.74053 l 0.944995,-0.736013 6.28729e-05,-1.20357 -0.19397,-1.01327e-05 -5.15715e-05,0.987231 -0.537125,-2.80586e-05 5.15715e-05,-0.987231 1.00046,-1.81214 0.0176813,0.0192958 0.0159323,0.0207634 0.014062,0.0220729 0.0120847,0.0232145 0.0100155,0.0241794 0.00786996,0.0249603 0.00566458,0.0255513 0.00341608,0.0259477 0.00114159,0.0261467 0,2.05 0,2.05 -0.00114159,0.0261467 -0.00341608,0.0259477 -0.00566458,0.0255513 -0.00786996,0.0249603 -0.0100155,0.0241794 -0.0120847,0.0232145 -0.014062,0.0220729 -0.0159323,0.0207634 -0.0176813,0.0192958 -0.0192958,0.0176813 -0.0207634,0.0159323 -0.0220729,0.014062 -0.0232145,0.0120847 -0.0241794,0.0100155 -0.0249603,0.00786996 -0.0255513,0.00566458 -0.0259477,0.00341608 -0.0261467,0.00114159 -3.3746,0 0,-0.502408 0.169139,-0.00525393 0.168485,-0.0157591 0.16718,-0.0262034 0.139267,-0.335701 0.0696391,-0.0820565 1.66272e-05,-0.318294 0.666434,-0.310802 0.266083,0.196463 -1.59776e-05,0.305859 0.223799,1.16909e-05 7.27418e-06,-0.139249 0.502278,0.373031 z "/>
<path fill="rgb(0,91,140)" stroke="rgb(0,91,140)" d="M 3.14912,7.42325 l -0.000141503,-0.00836676 -0.000424347,-0.00835719 -0.000706705,-0.00833806 0.815677,-0.0830482 -1.66272e-05,0.318294 0.0671313,0.0820637 0.141731,0.335715 0.167177,0.0262208 0.168484,0.0157767 0.169139,0.0052716 0,0.502408 -2.7254,0 -0.0261467,-0.00114159 -0.0259477,-0.00341608 -0.0255513,-0.00566458 -0.0249603,-0.00786996 -0.0241794,-0.0100155 -0.0232145,-0.0120847 -0.0220729,-0.014062 -0.0207634,-0.0159323 -0.0192958,-0.0176813 -0.0176813,-0.0192958 -0.0159323,-0.0207634 -0.014062,-0.0220729 -0.0120847,-0.0232145 -0.0100155,-0.0241794 -0.00786996,-0.0249603 -0.00566458,-0.0255513 -0.00341608,-0.0259477 -0.00114159,-0.0261467 0,-2.05 0,-2.05 0.00114159,-0.0261467 0.00341608,-0.0259477 0.00566458,-0.0255513 0.00786996,-0.0249603 0.0100155,-0.0241794 0.0120847,-0.0232145 0.014062,-0.0220729 0.0159323,-0.0207634 0.0176813,-0.0192958 0.0192958,-0.0176813 0.0207634,-0.0159323 0.0220729,-0.014062 0.0232145,-0.0120847 0.0241794,-0.0100155 0.0249603,-0.00786996 0.0255513,-0.00566458 0.0259477,-0.00341608 0.0261467,-0.00114159 0.880386,0 0,1.82768 -0.186476,-0.507306 -0.464973,-0.731099 -0.116883,0.106925 0.350581,0.790771 0.156625,0.73857 -2.68894e-05,0.514743 -0.131786,-0.106938 -0.0795477,-0.447601 -0.124335,-6.49507e-06 0.0322915,0.509766 0.392884,0.440171 0.0208335,0.0187055 0.0224617,0.0167154 0.0239004,0.0145842 0.0251376,0.0123301 0.0261628,0.00997191 0.0269673,0.00752965 0.0275443,0.00502389 0.0278891,0.00247575 0.0279986,-9.32625e-05 0.00214297,0.0522269 -0.0209486,0.00175335 -0.0207242,0.00352527 -0.0203501,0.00527174 -0.0198292,0.00698015 -0.0191651,0.00863817 -0.0183627,0.0102338 -0.0174277,0.0117556 -0.0163669,0.0131926 -0.015188,0.0145343 -0.0138994,0.0157711 -0.0125105,0.016894 -0.0110313,0.017895 -0.00947242,0.0187668 -0.00784519,0.0195031 -0.00616133,0.0200987 -0.004433,0.0205492 -0.00267266,0.0208513 -0.000893037,0.0210029 0.000941527,0.0215645 0.00281742,0.0214004 0.00467186,0.0210734 0.00649075,0.020586 0.00826025,0.019942 0.00996687,0.0191462 0.0115976,0.0182047 0.0131402,0.0171246 0.0145827,0.0159142 0.0159142,0.0145827 0.0171246,0.0131402 0.0182047,0.0115976 0.0191462,0.00996687 0.019942,0.00826025 0.020586,0.00649075 0.0210734,0.00467186 0.0214004,0.00281742 0.0215645,0.000941527 0.0215645,-0.000941527 0.0214004,-0.00281742 0.0210734,-0.00467186 0.020586,-0.00649075 0.019942,-0.00826025 0.0191462,-0.00996687 0.0182047,-0.0115976 0.0171246,-0.0131402 0.0159142,-0.0145827 0.0145827,-0.0159142 0.0131402,-0.0171246 0.0115976,-0.0182047 0.00996687,-0.0191462 0.00826025,-0.019942 0.00649075,-0.020586 0.00467186,-0.0210734 0.00281742,-0.0214004 0.000941527,-0.0215645 z "/>
<path fill="rgb(0,91,140)" stroke="rgb(0,91,140)" d="M 5.30646,5.13189 l -0.236211,-0.644068 -0.124335,-6.49507e-06 -0.304733,0.117307 -0.00729747,-0.016714 -0.00874444,-0.0160046 -0.0101231,-0.0151702 -0.0114228,-0.0142173 -0.0126332,-0.0131534 -0.0137451,-0.0119869 -0.0147496,-0.0107267 -0.0156389,-0.0093828 -0.0164061,-0.00796562 -0.0170453,-0.00648624 -0.0175513,-0.00495622 -0.0179203,-0.00338751 -0.0181494,-0.00179234 -0.0182367,-0.000183181 -0.0181817,0.00142741 -0.0179847,0.00302686 -0.0176473,0.00460267 -0.0171721,0.00614254 -0.0165628,0.00763446 -0.0158242,0.00906676 -0.0149621,0.0104283 -0.0139831,0.0117084 -0.0128949,0.012897 -0.0117061,0.013985 -0.0104258,0.0149638 -0.00906416,0.0158257 -0.00763173,0.0165641 -0.00613972,0.0171731 -0.00459977,0.0176481 -0.693377,-0.148347 -0.154174,-8.05382e-06 -0.567029,1.24083 0,-1.82768 2.57704,0 -0.102738,1.231 z "/>
<path fill="rgb(0,91,140)" stroke="rgb(0,91,140)" d="M 1.25177,6.25089 l 0.2,-8.88178e-16 0,2.05 0.00190265,0.0435779 0.00569347,0.0432462 0.00944096,0.0425854 0.0131166,0.0416005 0.0166924,0.0402991 0.0201412,0.0386909 0.0234367,0.0367882 0.0265538,0.0346056 0.0294688,0.0321596 0.0321596,0.0294688 0.0346056,0.0265538 0.0367882,0.0234367 0.0386909,0.0201412 0.0402991,0.0166924 0.0416005,0.0131166 0.0425854,0.00944096 0.0432462,0.00569347 0.0435779,0.00190265 6.1,0 0.0435779,-0.00190265 0.0432462,-0.00569347 0.0425854,-0.00944096 0.0416005,-0.0131166 0.0402991,-0.0166924 0.0386909,-0.0201412 0.0367882,-0.0234367 0.0346056,-0.0265538 0.0321596,-0.0294688 0.0294688,-0.0321596 0.0265538,-0.0346056 0.0234367,-0.0367882 0.0201412,-0.0386909 0.0166924,-0.0402991 0.0131166,-0.0416005 0.00944096,-0.0425854 0.00569347,-0.0432462 0.00190265,-0.0435779 -1.77636e-15,-2.05 0.2,0 -1.77636e-15,2.05 -0.00266371,0.061009 -0.00797086,0.0605447 -0.0132173,0.0596196 -0.0183632,0.0582408 -0.0233694,0.0564187 -0.0281977,0.0541672 -0.0328114,0.0515035 -0.0371753,0.0484478 -0.0412564,0.0450234 -0.0450234,0.0412564 -0.0484478,0.0371753 -0.0515035,0.0328114 -0.0541672,0.0281977 -0.0564187,0.0233694 -0.0582408,0.0183632 -0.0596196,0.0132173 -0.0605447,0.00797086 -0.061009,0.00266371 -6.1,0 -0.061009,-0.00266371 -0.0605447,-0.00797086 -0.0596196,-0.0132173 -0.0582408,-0.0183632 -0.0564187,-0.0233694 -0.0541672,-0.0281977 -0.0515035,-0.0328114 -0.0484478,-0.0371753 -0.0450234,-0.0412564 -0.0412564,-0.0450234 -0.0371753,-0.0484478 -0.0328114,-0.0515035 -0.0281977,-0.0541672 -0.0233694,-0.0564187 -0.0183632,-0.0582408 -0.0132173,-0.0596196 -0.00797086,-0.0605447 -0.00266371,-0.061009 0,-2.05 z "/>
<path fill="rgb(0,91,140)" stroke="rgb(0,91,140)" d="M 1.25177,6.25089 l 1.33227e-15,-0.00265976 -1.33227e-15,-2.04734 0.00266371,-0.061009 0.00797086,-0.0605447 0.0132173,-0.0596196 0.0183632,-0.0582408 0.0233694,-0.0564187 0.0281977,-0.0541672 0.0328114,-0.0515035 0.0371753,-0.0484478 0.0412564,-0.0450234 0.0450234,-0.0412564 0.0484478,-0.0371753 0.0515035,-0.0328114 0.0541672,-0.0281977 0.0564187,-0.0233694 0.0582408,-0.0183632 0.0596196,-0.0132173 0.0605447,-0.00797086 0.061009,-0.00266371 6.1,0 0.061009,0.00266371 0.0605447,0.00797086 0.0596196,0.0132173 0.0582408,0.0183632 0.0564187,0.0233694 0.0541672,0.0281977 0.0515035,0.0328114 0.0484478,0.0371753 0.0450234,0.0412564 0.0412564,0.0450234 0.0371753,0.0484478 0.0328114,0.0515035 0.0281977,0.0541672 0.0233694,0.0564187 0.0183632,0.0582408 0.0132173,0.0596196 0.00797086,0.0605447 0.00266371,0.061009 0,2.04734 1.77636e-15,0.00265976 -0.2,0 0,-2.05 -0.00190265,-0.0435779 -0.00569347,-0.0432462 -0.00944096,-0.0425854 -0.0131166,-0.0416005 -0.0166924,-0.0402991 -0.0201412,-0.0386909 -0.0234367,-0.0367882 -0.0265538,-0.0346056 -0.0294688,-0.0321596 -0.0321596,-0.0294688 -0.0346056,-0.0265538 -0.0367882,-0.0234367 -0.0386909,-0.0201412 -0.0402991,-0.0166924 -0.0416005,-0.0131166 -0.0425854,-0.00944096 -0.0432462,-0.00569347 -0.0435779,-0.00190265 -6.1,0 -0.0435779,0.00190265 -0.0432462,0.00569347 -0.0425854,0.00944096 -0.0416005,0.0131166 -0.0402991,0.0166924 -0.0386909,0.0201412 -0.0367882,0.0234367 -0.0346056,0.0265538 -0.0321596,0.0294688 -0.0294688,0.0321596 -0.0265538,0.0346056 -0.0234367,0.0367882 -0.0201412,0.0386909 -0.0166924,0.0402991 -0.0131166,0.0416005 -0.00944096,0.0425854 -0.00569347,0.0432462 -0.00190265,0.0435779 0,2.05 -0.2,8.88178e-16 z "/>
<path fill="rgb(241,240,234)" stroke="rgb(241,240,234)" d="M 1.45177,8.30089 l 0,-2.05 0.2,8.88178e-16 0,2.05 0.00114159,0.0261467 0.00341608,0.0259477 0.00566458,0.0255513 0.00786996,0.0249603 0.0100155,0.0241794 0.0120847,0.0232145 0.014062,0.0220729 0.0159323,0.0207634 0.0176813,0.0192958 0.0192958,0.0176813 0.0207634,0.0159323 0.0220729,0.014062 0.0232145,0.0120847 0.0241794,0.0100155 0.0249603,0.00786996 0.0255513,0.00566458 0.0259477,0.00341608 0.0261467,0.00114159 2.7254,0 3.3746,0 0.0261467,-0.00114159 0.0259477,-0.00341608 0.0255513,-0.00566458 0.0249603,-0.00786996 0.0241794,-0.0100155 0.0232145,-0.0120847 0.0220729,-0.014062 0.0207634,-0.0159323 0.0192958,-0.0176813 0.0176813,-0.0192958 0.0159323,-0.0207634 0.014062,-0.0220729 0.0120847,-0.0232145 0.0100155,-0.0241794 0.00786996,-0.0249603 0.00566458,-0.0255513 0.00341608,-0.0259477 0.00114159,-0.0261467 0,-2.05 0.2,0 1.77636e-15,2.05 -0.00190265,0.0435779 -0.00569347,0.0432462 -0.00944096,0.0425854 -0.0131166,0.0416005 -0.0166924,0.0402991 -0.0201412,0.0386909 -0.0234367,0.0367882 -0.0265538,0.0346056 -0.0294688,0.0321596 -0.0321596,0.0294688 -0.0346056,0.0265538 -0.0367882,0.0234367 -0.0386909,0.0201412 -0.0402991,0.0166924 -0.0416005,0.0131166 -0.0425854,0.00944096 -0.0432462,0.00569347 -0.0435779,0.00190265 -6.1,0 -0.0435779,-0.00190265 -0.0432462,-0.00569347 -0.0425854,-0.00944096 -0.0416005,-0.0131166 -0.0402991,-0.0166924 -0.0386909,-0.0201412 -0.0367882,-0.0234367 -0.0346056,-0.0265538 -0.0321596,-0.0294688 -0.0294688,-0.0321596 -0.0265538,-0.0346056 -0.0234367,-0.0367882 -0.0201412,-0.0386909 -0.0166924,-0.0402991 -0.0131166,-0.0416005 -0.00944096,-0.0425854 -0.00569347,-0.0432462 -0.00190265,-0.0435779 z "/>
<path fill="rgb(241,240,234)" stroke="rgb(241,240,234)" d="M 1.45177,6.25089 l 0,-2.05 0.00190265,-0.0435779 0.00569347,-0.0432462 0.00944096,-0.0425854 0.0131166,-0.0416005 0.0166924,-0.0402991 0.0201412,-0.0386909 0.0234367,-0.0367882 0.0265538,-0.0346056 0.0294688,-0.0321596 0.0321596,-0.0294688 0.0346056,-0.0265538 0.0367882,-0.0234367 0.0386909,-0.0201412 0.0402991,-0.0166924 0.0416005,-0.0131166 0.0425854,-0.00944096 0.0432462,-0.00569347 0.0435779,-0.00190265 6.1,0 0.0435779,0.00190265 0.0432462,0.00569347 0.0425854,0.00944096 0.0416005,0.0131166 0.0402991,0.0166924 0.0386909,0.0201412 0.0367882,0.0234367 0.0346056,0.0265538 0.0321596,0.0294688 0.0294688,0.0321596 0.0265538,0.0346056 0.0234367,0.0367882 0.0201412,0.0386909 0.0166924,0.0402991 0.0131166,0.0416005 0.00944096,0.0425854 0.00569347,0.0432462 0.00190265,0.0435779 0,2.05 -0.2,0 0,-2.05 -0.00114159,-0.0261467 -0.00341608,-0.0259477 -0.00566458,-0.0255513 -0.00786996,-0.0249603 -0.0100155,-0.0241794 -0.0120847,-0.0232145 -0.014062,-0.0220729 -0.0159323,-0.0207634 -0.0176813,-0.0192958 -0.0192958,-0.0176813 -0.0207634,-0.0159323 -0.0220729,-0.014062 -0.0232145,-0.0120847 -0.0241794,-0.0100155 -0.0249603,-0.00786996 -0.0255513,-0.00566458 -0.0259477,-0.00341608 -0.0261467,-0.00114159 -2.64257,4.44089e-16 -2.57704,0 -0.880386,0 -0.0261467,0.00114159 -0.0259477,0.00341608 -0.0255513,0.00566458 -0.0249603,0.00786996 -0.0241794,0.0100155 -0.0232145,0.0120847 -0.0220729,0.014062 -0.0207634,0.0159323 -0.0192958,0.0176813 -0.0176813,0.0192958 -0.0159323,0.0207634 -0.014062,0.0220729 -0.0120847,0.0232145 -0.0100155,0.0241794 -0.00786996,0.0249603 -0.00566458,0.0255513 -0.00341608,0.0259477 -0.00114159,0.0261467 0,2.05 -0.2,-8.88178e-16 z "/>
<path fill="rgb(241,240,234)" stroke="rgb(241,240,234)" d="M 10.0035,6.25089 l -0.229744,0 0,-5.49085 -0.00199778,-0.0457568 -0.00597815,-0.0454085 -0.00991301,-0.0447147 -0.0137724,-0.0436806 -0.017527,-0.042314 -0.0211483,-0.0406254 -0.0246085,-0.0386276 -0.0278815,-0.0363359 -0.0309423,-0.0337676 -0.0337676,-0.0309423 -0.0363359,-0.0278815 -0.0386276,-0.0246085 -0.0406254,-0.0211483 -0.042314,-0.017527 -0.0436806,-0.0137724 -0.0447147,-0.00991301 -0.0454085,-0.00597815 -0.0457568,-0.00199778 -8.47818,-7.99361e-15 -0.0457568,0.00199778 -0.0454085,0.00597815 -0.0447147,0.00991301 -0.0436806,0.0137724 -0.042314,0.017527 -0.0406254,0.0211483 -0.0386276,0.0246085 -0.0363359,0.0278815 -0.0337676,0.0309423 -0.0309423,0.0337676 -0.0278815,0.0363359 -0.0246085,0.0386276 -0.0211483,0.0406254 -0.017527,0.042314 -0.0137724,0.0436806 -0.00991301,0.0447147 -0.00597815,0.0454085 -0.00199778,0.0457568 0,5.49085 -0.245616,1.77636e-15 0,-6.25089 10.0035,1.77636e-15 -1.77636e-15,6.25089 z "/>
<path fill="rgb(241,240,234)" stroke="rgb(241,240,234)" d="M 10.0035,6.25089 l -1.77636e-15,6.25089 -10.0035,0 0,-6.25089 0.245616,-1.77636e-15 0,5.48553 0.00199778,0.0457568 0.00597815,0.0454085 0.00991301,0.0447147 0.0137724,0.0436806 0.017527,0.042314 0.0211483,0.0406254 0.0246085,0.0386276 0.0278815,0.0363359 0.0309423,0.0337676 0.0337676,0.0309423 0.0363359,0.0278815 0.0386276,0.0246085 0.0406254,0.0211483 0.042314,0.017527 0.0436806,0.0137724 0.0447147,0.00991301 0.0454085,0.00597815 0.0457568,0.00199778 8.47818,1.06581e-14 0.0457568,-0.00199778 0.0454085,-0.00597815 0.0447147,-0.00991301 0.0436806,-0.0137724 0.042314,-0.017527 0.0406254,-0.0211483 0.0386276,-0.0246085 0.0363359,-0.0278815 0.0337676,-0.0309423 0.0309423,-0.0337676 0.0278815,-0.0363359 0.0246085,-0.0386276 0.0211483,-0.0406254 0.017527,-0.042314 0.0137724,-0.0436806 0.00991301,-0.0447147 0.00597815,-0.0454085 0.00199778,-0.0457568 1.77636e-15,-5.48553 0.229744,0 z "/>
<path fill="rgb(42,41,42)" stroke="rgb(42,41,42)" d="M 6.92566,11.4647 l -0.730051,0 0,-0.9991 0.745785,0 0,0.179366 -0.563272,0 0,0.272196 0.298943,0 0,0.182513 -0.298943,0 0,0.185659 0.547538,0 0,0.179366 z "/>
<path fill="rgb(42,41,42)" stroke="rgb(42,41,42)" d="M 5.93758,11.4647 l -0.173072,0 0,-0.659248 0.0188806,-0.339851 0.154192,0 0,0.9991 z "/>
<path fill="rgb(42,41,42)" stroke="rgb(42,41,42)" d="M 5.30665,11.4647 l 0,-0.31153 0.476736,-0.687569 -0.0188806,0.339851 -0.457855,0.659248 z "/>
<path fill="rgb(42,41,42)" stroke="rgb(42,41,42)" d="M 5.30665,11.4647 l -0.174646,0 0,-0.9991 0.174646,0 0,0.687569 0,0.31153 z "/>
<path fill="rgb(42,41,42)" stroke="rgb(42,41,42)" d="M 4.48534,11.482 l -0.0110137,-0.00157339 -0.089683,-0.00944031 -0.0786693,-0.0267475 -0.0708023,-0.040908 -0.0597886,-0.0597886 -0.0283209,-0.0393346 0.338278,0 0.0377612,-0.00314677 0.0786693,-0.0283209 0.0597886,-0.0582153 0.0330411,-0.0660822 0.020454,-0.0833894 0.00629354,-0.0975499 -0.00314677,-0.0708023 -0.0157339,-0.0865362 -0.0283209,-0.0723757 -0.0377612,-0.0519217 -0.0660822,-0.0440548 -0.0849628,-0.0141605 -0.320971,-0.0157339 0.0236008,-0.0314677 0.061362,-0.0582153 0.069229,-0.040908 0.0786693,-0.0251742 0.0881096,-0.00786693 0.00786693,0 0.0865362,0.00944031 0.0786693,0.0283209 0.069229,0.0440548 0.0597886,0.061362 0.0283209,0.0424814 0.0377612,0.0708023 0.0251742,0.0802426 0.0157339,0.0881096 0.00472016,0.0959765 -0.00157339,0.0582153 -0.0110137,0.0912563 -0.0236008,0.081816 -0.0330411,0.0755225 -0.0440548,0.0660822 -0.00157339,0.00157339 -0.061362,0.0597886 -0.069229,0.0440548 -0.0786693,0.0251742 -0.089683,0.00944031 z "/>
<path fill="rgb(42,41,42)" stroke="rgb(42,41,42)" d="M 4.14706,11.3042 l -0.0361879,-0.069229 -0.0267475,-0.0802426 -0.0157339,-0.0881096 -0.00472016,-0.0991233 0,-0.0314677 0.00944031,-0.0912563 0.0188806,-0.0849628 0.0314677,-0.0770959 0.040908,-0.0708023 0.320971,0.0157339 -0.0377612,0.00314677 -0.0770959,0.0283209 -0.061362,0.0582153 0,0.00157339 -0.0346145,0.0676556 -0.0220274,0.081816 -0.00629354,0.0991233 0.00629354,0.0959765 0.0220274,0.0833894 0.0346145,0.0676556 0.0251742,0.0283209 0.0676556,0.0456282 0.0833894,0.0157339 -0.338278,0 z "/>
<path fill="rgb(42,41,42)" stroke="rgb(42,41,42)" d="M 3.89532,11.4647 l -0.752078,0 0,-0.176219 0.536524,0 -0.569565,-0.619914 0,-0.202967 0.785119,0 0,0.179366 -0.563272,0 0.563272,0.616767 0,0.202967 z "/>
<path fill="rgb(42,41,42)" stroke="rgb(42,41,42)" d="M 0.508116,6.25089 l 0,5.48553 0.000998892,0.0228784 0.00298907,0.0227043 0.00495651,0.0223574 0.00688622,0.0218403 0.00876352,0.021157 0.0105741,0.0203127 0.0123043,0.0193138 0.0139407,0.0181679 0.0154711,0.0168838 0.0168838,0.0154711 0.0181679,0.0139407 0.0193138,0.0123043 0.0203127,0.0105741 0.021157,0.00876352 0.0218403,0.00688622 0.0223574,0.00495651 0.0227043,0.00298907 0.0228784,0.000998892 8.47818,8.88178e-15 0.0228784,-0.000998892 0.0227043,-0.00298907 0.0223574,-0.00495651 0.0218403,-0.00688622 0.021157,-0.00876352 0.0203127,-0.0105741 0.0193138,-0.0123043 0.0181679,-0.0139407 0.0168838,-0.0154711 0.0154711,-0.0168838 0.0139407,-0.0181679 0.0123043,-0.0193138 0.0105741,-0.0203127 0.00876352,-0.021157 0.00688622,-0.0218403 0.00495651,-0.0223574 0.00298907,-0.0227043 0.000998892,-0.0228784 1.77636e-15,-5.48553 0.2625,-8.88178e-16 -1.77636e-15,5.48553 -0.00199778,0.0457568 -0.00597815,0.0454085 -0.00991301,0.0447147 -0.0137724,0.0436806 -0.017527,0.042314 -0.0211483,0.0406254 -0.0246085,0.0386276 -0.0278815,0.0363359 -0.0309423,0.0337676 -0.0337676,0.0309423 -0.0363359,0.0278815 -0.0386276,0.0246085 -0.0406254,0.0211483 -0.042314,0.017527 -0.0436806,0.0137724 -0.0447147,0.00991301 -0.0454085,0.00597815 -0.0457568,0.00199778 -8.47818,-1.06581e-14 -0.0457568,-0.00199778 -0.0454085,-0.00597815 -0.0447147,-0.00991301 -0.0436806,-0.0137724 -0.042314,-0.017527 -0.0406254,-0.0211483 -0.0386276,-0.0246085 -0.0363359,-0.0278815 -0.0337676,-0.0309423 -0.0309423,-0.0337676 -0.0278815,-0.0363359 -0.0246085,-0.0386276 -0.0211483,-0.0406254 -0.017527,-0.042314 -0.0137724,-0.0436806 -0.00991301,-0.0447147 -0.00597815,-0.0454085 -0.00199778,-0.0457568 0,-5.48553 0.2625,8.88178e-16 z "/>
<path fill="rgb(42,41,42)" stroke="rgb(42,41,42)" d="M 0.508116,6.25089 l -0.2625,-8.88178e-16 0,-5.49085 0.00199778,-0.0457568 0.00597815,-0.0454085 0.00991301,-0.0447147 0.0137724,-0.0436806 0.017527,-0.042314 0.0211483,-0.0406254 0.0246085,-0.0386276 0.0278815,-0.0363359 0.0309423,-0.0337676 0.0337676,-0.0309423 0.0363359,-0.0278815 0.0386276,-0.0246085 0.0406254,-0.0211483 0.042314,-0.017527 0.0436806,-0.0137724 0.0447147,-0.00991301 0.0454085,-0.00597815 0.0457568,-0.00199778 8.47818,7.99361e-15 0.0457568,0.00199778 0.0454085,0.00597815 0.0447147,0.00991301 0.0436806,0.0137724 0.042314,0.017527 0.0406254,0.0211483 0.0386276,0.0246085 0.0363359,0.0278815 0.0337676,0.0309423 0.0309423,0.0337676 0.0278815,0.0363359 0.0246085,0.0386276 0.0211483,0.0406254 0.017527,0.042314 0.0137724,0.0436806 0.00991301,0.0447147 0.00597815,0.0454085 0.00199778,0.0457568 0,5.49085 -0.2625,8.88178e-16 -1.77636e-15,-0.00265976 0,-5.48819 -0.000998892,-0.0228784 -0.00298907,-0.0227043 -0.00495651,-0.0223574 -0.00688622,-0.0218403 -0.00876352,-0.021157 -0.0105741,-0.0203127 -0.0123043,-0.0193138 -0.0139407,-0.0181679 -0.0154711,-0.0168838 -0.0168838,-0.0154711 -0.0181679,-0.0139407 -0.0193138,-0.0123043 -0.0203127,-0.0105741 -0.021157,-0.00876352 -0.0218403,-0.00688622 -0.0223574,-0.00495651 -0.0227043,-0.00298907 -0.0228784,-0.000998892 -8.47818,-8.88178e-15 -0.0228784,0.000998892 -0.0227043,0.00298907 -0.0223574,0.00495651 -0.0218403,0.00688622 -0.021157,0.00876352 -0.0203127,0.0105741 -0.0193138,0.0123043 -0.0181679,0.0139407 -0.0168838,0.0154711 -0.0154711,0.0168838 -0.0139407,0.0181679 -0.0123043,0.0193138 -0.0105741,0.0203127 -0.00876352,0.021157 -0.00688622,0.0218403 -0.00495651,0.0223574 -0.00298907,0.0227043 -0.000998892,0.0228784 8.88178e-16,5.48819 -8.88178e-16,0.00265976 z "/>
</g></g></svg>
