<?xml version="1.0" encoding="UTF-8" standalone="no"?>
<!DOCTYPE svg PUBLIC "-//W3C//DTD SVG 1.1//EN" "http://www.w3.org/Graphics/SVG/1.1/DTD/svg11-flat.dtd"
[

]>
<svg xmlns="http://www.w3.org/2000/svg"  viewBox="-0.0865013 -0.0865013 7.0931 7.0931"><g fill="none" stroke="black" stroke-width="0.0125" transform="translate(0,6.9201) scale(1, -1)">
<g id="Output" >
<path fill="rgb(241,240,234)" stroke="rgb(241,240,234)" d="M 4.3451,4.76937 l 0.141421,-0.141421 0.636396,0.636396 -0.141421,0.141421 -0.636396,-0.636396 z "/>
<path fill="rgb(241,240,234)" stroke="rgb(241,240,234)" d="M 5.40576,4.9815 l -0.141421,0.141421 -0.636396,-0.636396 0.141421,-0.141421 0.636396,0.636396 z "/>
<path fill="rgb(241,240,234)" stroke="rgb(241,240,234)" d="M 4.91079,4.20368 l 0.743629,-0.743629 1.06569,4.44089e-16 -0.00190265,0.0435779 -0.00569347,0.0432462 -0.00944096,0.0425854 -0.0131166,0.0416005 -0.0166924,0.0402991 -0.0201412,0.0386909 -0.0234367,0.0367882 -0.0265538,0.0346056 -0.0294688,0.0321596 -1.02647,1.02647 -0.636396,-0.636396 z "/>
<path fill="rgb(241,240,234)" stroke="rgb(241,240,234)" d="M 2.71642,2.00931 l -0.636396,-0.636396 1.02647,-1.02647 0.0321596,-0.0294688 0.0346056,-0.0265538 0.0367882,-0.0234367 0.0386909,-0.0201412 0.0402991,-0.0166924 0.0416005,-0.0131166 0.0425854,-0.00944096 0.0432462,-0.00569347 0.0435779,-0.00190265 0.0435779,0.00190265 0.0432462,0.00569347 0.0425854,0.00944096 0.0416005,0.0131166 0.0402991,0.0166924 0.0386909,0.0201412 0.0367882,0.0234367 0.0346056,0.0265538 0.0321596,0.0294688 2.76005,2.76005 0.0294688,0.0321596 0.0265538,0.0346056 0.0234367,0.0367882 0.0201412,0.0386909 0.0166924,0.0402991 0.0131166,0.0416005 0.00944096,0.0425854 0.00569347,0.0432462 0.00190265,0.0435779 -1.06569,-4.44089e-16 -2.19437,-2.19437 -0.743629,0.743629 z "/>
<path fill="rgb(241,240,234)" stroke="rgb(241,240,234)" d="M 2.575,2.15074 l -0.141421,0.141421 -0.636396,-0.636396 0.141421,-0.141421 0.636396,0.636396 z "/>
<path fill="rgb(241,240,234)" stroke="rgb(241,240,234)" d="M 2.29216,2.43358 l -0.141421,0.141421 -0.636396,-0.636396 0.141421,-0.141421 0.636396,0.636396 z "/>
<path fill="rgb(241,240,234)" stroke="rgb(241,240,234)" d="M 0.346447,3.1065 l 1.02647,-1.02647 0.636396,0.636396 -0.743629,0.743629 -1.06569,4.44089e-16 0.00190265,-0.0435779 0.00569347,-0.0432462 0.00944096,-0.0425854 0.0131166,-0.0416005 0.0166924,-0.0402991 0.0201412,-0.0386909 0.0234367,-0.0367882 0.0265538,-0.0346056 0.0294688,-0.0321596 z "/>
<path fill="rgb(241,240,234)" stroke="rgb(241,240,234)" d="M 3.8136,6.57365 l -0.0321596,0.0294688 -0.0346056,0.0265538 -0.0367882,0.0234367 -0.0386909,0.0201412 -0.0402991,0.0166924 -0.0416005,0.0131166 -0.0425854,0.00944096 -0.0432462,0.00569347 -0.0435779,0.00190265 -0.0435779,-0.00190265 -0.0432462,-0.00569347 -0.0425854,-0.00944096 -0.0416005,-0.0131166 -0.0402991,-0.0166924 -0.0386909,-0.0201412 -0.0367882,-0.0234367 -0.0346056,-0.0265538 -0.0321596,-0.0294688 -2.76005,-2.76005 -0.0294688,-0.0321596 -0.0265538,-0.0346056 -0.0234367,-0.0367882 -0.0201412,-0.0386909 -0.0166924,-0.0402991 -0.0131166,-0.0416005 -0.00944096,-0.0425854 -0.00569347,-0.0432462 -0.00190265,-0.0435779 1.06569,-4.44089e-16 2.19437,2.19437 0.743629,-0.743629 0.636396,0.636396 -1.02647,1.02647 z "/>
<path fill="rgb(247,181,0)" stroke="rgb(247,181,0)" d="M 4.3451,4.76937 l -2.19437,-2.19437 0.141421,-0.141421 2.19437,2.19437 -0.141421,0.141421 z "/>
<path fill="rgb(247,181,0)" stroke="rgb(247,181,0)" d="M 2.575,2.15074 l 2.19437,2.19437 -0.141421,0.141421 -2.19437,-2.19437 0.141421,-0.141421 z "/>
<path fill="rgb(247,181,0)" stroke="rgb(247,181,0)" d="M 2.71642,2.00931 l 0.743629,-0.743629 2.19437,2.19437 -0.743629,0.743629 -2.19437,-2.19437 z "/>
<path fill="rgb(247,181,0)" stroke="rgb(247,181,0)" d="M 4.20368,4.91079 l -0.743629,0.743629 -2.19437,-2.19437 0.743629,-0.743629 2.19437,2.19437 z "/>
<path fill="rgb(42,41,42)" stroke="rgb(42,41,42)" d="M 4.48652,4.62794 l 0.141421,-0.141421 0.636396,0.636396 -0.141421,0.141421 -0.636396,-0.636396 z "/>
<path fill="rgb(42,41,42)" stroke="rgb(42,41,42)" d="M 4.20368,4.91079 l 0.141421,-0.141421 0.636396,0.636396 -0.141421,0.141421 -0.636396,-0.636396 z "/>
<path fill="rgb(42,41,42)" stroke="rgb(42,41,42)" d="M 4.20368,4.91079 l -2.19437,-2.19437 0.141421,-0.141421 2.19437,2.19437 -0.141421,0.141421 z "/>
<path fill="rgb(42,41,42)" stroke="rgb(42,41,42)" d="M 2.43358,2.29216 l 2.19437,2.19437 -0.141421,0.141421 -2.19437,-2.19437 0.141421,-0.141421 z "/>
<path fill="rgb(42,41,42)" stroke="rgb(42,41,42)" d="M 2.71642,2.00931 l 2.19437,2.19437 -0.141421,0.141421 -2.19437,-2.19437 0.141421,-0.141421 z "/>
<path fill="rgb(42,41,42)" stroke="rgb(42,41,42)" d="M 2.71642,2.00931 l -0.141421,0.141421 -0.636396,-0.636396 0.141421,-0.141421 0.636396,0.636396 z "/>
<path fill="rgb(42,41,42)" stroke="rgb(42,41,42)" d="M 2.43358,2.29216 l -0.141421,0.141421 -0.636396,-0.636396 0.141421,-0.141421 0.636396,0.636396 z "/>
<path fill="rgb(42,41,42)" stroke="rgb(42,41,42)" d="M 1.37292,2.08003 l 0.141421,-0.141421 0.636396,0.636396 -0.141421,0.141421 -0.636396,-0.636396 z "/>
<path fill="rgb(42,41,42)" stroke="rgb(42,41,42)" d="M 1.51434,1.9386 l -0.141421,0.141421 -1.02647,1.02647 -0.0294688,0.0321596 -0.0265538,0.0346056 -0.0234367,0.0367882 -0.0201412,0.0386909 -0.0166924,0.0402991 -0.0131166,0.0416005 -0.00944096,0.0425854 -0.00569347,0.0432462 -0.00190265,0.0435779 -0.2,0 0.00266371,-0.061009 0.00797086,-0.0605447 0.0132173,-0.0596196 0.0183632,-0.0582408 0.0233694,-0.0564187 0.0281977,-0.0541672 0.0328114,-0.0515035 0.0371753,-0.0484478 0.0412564,-0.0450234 2.76005,-2.76005 0.0450234,-0.0412564 0.0484478,-0.0371753 0.0515035,-0.0328114 0.0541672,-0.0281977 0.0564187,-0.0233694 0.0582408,-0.0183632 0.0596196,-0.0132173 0.0605447,-0.00797086 0.061009,-0.00266371 0.061009,0.00266371 0.0605447,0.00797086 0.0596196,0.0132173 0.0582408,0.0183632 0.0564187,0.0233694 0.0541672,0.0281977 0.0515035,0.0328114 0.0484478,0.0371753 0.0450234,0.0412564 2.76005,2.76005 0.0412564,0.0450234 0.0371753,0.0484478 0.0328114,0.0515035 0.0281977,0.0541672 0.0233694,0.0564187 0.0183632,0.0582408 0.0132173,0.0596196 0.00797086,0.0605447 0.00266371,0.061009 -0.2,0 -0.00190265,-0.0435779 -0.00569347,-0.0432462 -0.00944096,-0.0425854 -0.0131166,-0.0416005 -0.0166924,-0.0402991 -0.0201412,-0.0386909 -0.0234367,-0.0367882 -0.0265538,-0.0346056 -0.0294688,-0.0321596 -2.76005,-2.76005 -0.0321596,-0.0294688 -0.0346056,-0.0265538 -0.0367882,-0.0234367 -0.0386909,-0.0201412 -0.0402991,-0.0166924 -0.0416005,-0.0131166 -0.0425854,-0.00944096 -0.0432462,-0.00569347 -0.0435779,-0.00190265 -0.0435779,0.00190265 -0.0432462,0.00569347 -0.0425854,0.00944096 -0.0416005,0.0131166 -0.0402991,0.0166924 -0.0386909,0.0201412 -0.0367882,0.0234367 -0.0346056,0.0265538 -0.0321596,0.0294688 -1.02647,1.02647 -0.141421,0.141421 -0.141421,0.141421 -0.141421,0.141421 -0.141421,0.141421 z "/>
<path fill="rgb(42,41,42)" stroke="rgb(42,41,42)" d="M 5.54718,4.84008 l 1.02647,-1.02647 0.0294688,-0.0321596 0.0265538,-0.0346056 0.0234367,-0.0367882 0.0201412,-0.0386909 0.0166924,-0.0402991 0.0131166,-0.0416005 0.00944096,-0.0425854 0.00569347,-0.0432462 0.00190265,-0.0435779 0.2,0 -0.00266371,0.061009 -0.00797086,0.0605447 -0.0132173,0.0596196 -0.0183632,0.0582408 -0.0233694,0.0564187 -0.0281977,0.0541672 -0.0328114,0.0515035 -0.0371753,0.0484478 -0.0412564,0.0450234 -2.76005,2.76005 -0.0450234,0.0412564 -0.0484478,0.0371753 -0.0515035,0.0328114 -0.0541672,0.0281977 -0.0564187,0.0233694 -0.0582408,0.0183632 -0.0596196,0.0132173 -0.0605447,0.00797086 -0.061009,0.00266371 -0.061009,-0.00266371 -0.0605447,-0.00797086 -0.0596196,-0.0132173 -0.0582408,-0.0183632 -0.0564187,-0.0233694 -0.0541672,-0.0281977 -0.0515035,-0.0328114 -0.0484478,-0.0371753 -0.0450234,-0.0412564 -2.76005,-2.76005 -0.0412564,-0.0450234 -0.0371753,-0.0484478 -0.0328114,-0.0515035 -0.0281977,-0.0541672 -0.0233694,-0.0564187 -0.0183632,-0.0582408 -0.0132173,-0.0596196 -0.00797086,-0.0605447 -0.00266371,-0.061009 0.2,0 0.00190265,0.0435779 0.00569347,0.0432462 0.00944096,0.0425854 0.0131166,0.0416005 0.0166924,0.0402991 0.0201412,0.0386909 0.0234367,0.0367882 0.0265538,0.0346056 0.0294688,0.0321596 2.76005,2.76005 0.0321596,0.0294688 0.0346056,0.0265538 0.0367882,0.0234367 0.0386909,0.0201412 0.0402991,0.0166924 0.0416005,0.0131166 0.0425854,0.00944096 0.0432462,0.00569347 0.0435779,0.00190265 0.0435779,-0.00190265 0.0432462,-0.00569347 0.0425854,-0.00944096 0.0416005,-0.0131166 0.0402991,-0.0166924 0.0386909,-0.0201412 0.0367882,-0.0234367 0.0346056,-0.0265538 0.0321596,-0.0294688 1.02647,-1.02647 0.141421,-0.141421 0.141421,-0.141421 0.141421,-0.141421 0.141421,-0.141421 0.141421,-0.141421 z "/>
<path fill="rgb(42,41,42)" stroke="rgb(42,41,42)" d="M 4.91079,4.20368 l 0.636396,0.636396 -0.141421,0.141421 -0.636396,-0.636396 0.141421,-0.141421 z "/>
</g></g></svg>
