<?xml version="1.0" encoding="UTF-8" standalone="no"?>
<!DOCTYPE svg PUBLIC "-//W3C//DTD SVG 1.1//EN" "http://www.w3.org/Graphics/SVG/1.1/DTD/svg11-flat.dtd"
[

]>
<svg xmlns="http://www.w3.org/2000/svg"  viewBox="-0.0333333 -0.0333333 4.56667 2.06667"><g fill="none" stroke="black" stroke-width="0.0125" transform="translate(0,2) scale(1, -1)">
<g id="Output" >
<path fill="rgb(0,131,81)" stroke="rgb(0,131,81)" d="M 0.922476,0.32302 l -0.614984,0 0,0.298024 -0.307492,0 0,-0.621043 4.1837,-1.33227e-15 -0.280377,0.57582 -0.18156,0 -0.093702,0.190202 -0.213758,-0.190202 0,-0.298471 -0.147236,0 0,0.358534 0.28974,0.274774 -0.0480831,0.0976021 -0.228549,-0.218933 -0.045877,0.0523951 -0.435967,-0.220677 0,-0.144038 -0.811971,0 0,-0.139237 -0.576548,0.283276 -0.487337,0 0,-0.298024 z "/>
<path fill="rgb(0,131,81)" stroke="rgb(0,131,81)" d="M 4.5,2 l -4.5,4.44089e-16 0,-1.37896 0.307492,0 0,1.05594 0.614984,0 0,-1.05594 0.487337,0 0.576548,0.283276 0,-0.139237 0.811971,0 0,-0.144038 0.435967,0.220677 -0.045877,0.0523951 0.252236,0.25231 -0.0302646,0.061433 0.0273364,0.0263526 -0.0150783,0.000238144 -0.0150003,0.00154925 -0.0148086,0.0028486 -0.0145046,0.00412634 -0.0140906,0.00537279 -0.0135696,0.00657847 -0.0129457,0.00773426 -0.0122236,0.00883137 -0.0114088,0.00986149 -0.0105075,0.0108168 -0.00952642,0.0116901 -0.00847309,0.0124747 -0.0073555,0.0131646 -0.0061821,0.0137547 -0.00496181,0.0142405 -0.00370388,0.0146182 -0.00241786,0.014885 -0.00111349,0.015039 0.000199321,0.0150788 0.00151062,0.0150043 0.00281046,0.0148159 0.00408899,0.0145152 0.00533649,0.0141043 0.00654351,0.0135865 0.0077009,0.0129656 0.00879987,0.0122463 0.00983209,0.0114342 0.0107897,0.0105353 0.0116655,0.00955648 0.0124528,0.00850518 0.0131456,0.00738937 0.0137387,0.0062175 0.0142276,0.00499846 0.0146086,0.00374151 0.0148788,0.00245617 0.0150361,0.00115221 0.0150793,-0.000160497 0.0150081,-0.00147199 0.0148231,-0.00277231 0.0145257,-0.0040516 0.014118,-0.00530016 0.0136033,-0.00650851 0.0129854,-0.00766749 0.012269,-0.00876831 0.0114595,-0.00980262 0.010563,-0.0107626 0.00958649,-0.0116409 0.00853722,-0.0124309 0.00742319,-0.0131266 0.00625285,-0.0137227 0.00503508,-0.0142147 0.00377911,-0.0145989 0.00249448,-0.0148724 0.00119092,-0.015033 -0.000121671,-0.0150796 -0.00143334,-0.0150119 -0.00273413,-0.0148302 -0.00401419,-0.0145361 -0.00526379,-0.0141316 -0.00647347,-0.01362 -0.00763403,-0.0130051 0.345526,0 0.155194,-0.289692 -0.12884,-0.0643761 -0.105415,0.210685 -0.0849174,0 0.216686,-0.418445 0.310388,0 0,-0.175571 -0.38358,0 0.280377,-0.57582 0.316299,2.22045e-16 0,2 z "/>
<path fill="rgb(241,240,234)" stroke="rgb(241,240,234)" d="M 1.98636,0.477005 l 0.811971,0 0,0.144038 0,0.144038 -0.811971,0 0,0.139237 -0.576548,-0.283276 0.576548,-0.283276 0,0.139237 z "/>
<path fill="rgb(241,240,234)" stroke="rgb(241,240,234)" d="M 3.4143,0.277349 l 0,0.298471 0.213758,0.190202 0.093702,-0.190202 0.18156,0 0.38358,0 0,0.175571 -0.310388,0 -0.216686,0.418445 0.0849174,0 0.105415,-0.210685 0.12884,0.0643761 -0.155194,0.289692 -0.345526,0 0.00763403,0.0130051 0.00647347,0.01362 0.00526379,0.0141316 0.00401419,0.0145361 0.00273413,0.0148302 0.00143334,0.0150119 0.000121671,0.0150796 -0.00119092,0.015033 -0.00249448,0.0148724 -0.00377911,0.0145989 -0.00503508,0.0142147 -0.00625285,0.0137227 -0.00742319,0.0131266 -0.00853722,0.0124309 -0.00958649,0.0116409 -0.010563,0.0107626 -0.0114595,0.00980262 -0.012269,0.00876831 -0.0129854,0.00766749 -0.0136033,0.00650851 -0.014118,0.00530016 -0.0145257,0.0040516 -0.0148231,0.00277231 -0.0150081,0.00147199 -0.0150793,0.000160497 -0.0150361,-0.00115221 -0.0148788,-0.00245617 -0.0146086,-0.00374151 -0.0142276,-0.00499846 -0.0137387,-0.0062175 -0.0131456,-0.00738937 -0.0124528,-0.00850518 -0.0116655,-0.00955648 -0.0107897,-0.0105353 -0.00983209,-0.0114342 -0.00879987,-0.0122463 -0.0077009,-0.0129656 -0.00654351,-0.0135865 -0.00533649,-0.0141043 -0.00408899,-0.0145152 -0.00281046,-0.0148159 -0.00151062,-0.0150043 -0.000199321,-0.0150788 0.00111349,-0.015039 0.00241786,-0.014885 0.00370388,-0.0146182 0.00496181,-0.0142405 0.0061821,-0.0137547 0.0073555,-0.0131646 0.00847309,-0.0124747 0.00952642,-0.0116901 0.0105075,-0.0108168 0.0114088,-0.00986149 0.0122236,-0.00883137 0.0129457,-0.00773426 0.0135696,-0.00657847 0.0140906,-0.00537279 0.0145046,-0.00412634 0.0148086,-0.0028486 0.0150003,-0.00154925 0.0150783,-0.000238144 -0.0273364,-0.0263526 0.0302646,-0.061433 -0.252236,-0.25231 0.045877,-0.0523951 0.045877,-0.0523951 0.228549,0.218933 0.0480831,-0.0976021 -0.28974,-0.274774 0,-0.358534 0.147236,0 z "/>
<path fill="rgb(241,240,234)" stroke="rgb(241,240,234)" d="M 0.922476,0.32302 l -0.614984,0 0,0.298024 0,1.05594 0.614984,0 0,-1.05594 0,-0.298024 z "/>
<path fill="rgb(241,240,234)" stroke="rgb(241,240,234)" d="M 2.68148,1.38842 l -0.00457881,0 -0.0190784,-0.00254378 -0.0190784,-0.00559632 -0.018824,-0.00864886 -0.0190784,-0.0119558 -0.0190784,-0.0150083 0.198924,-0.00864886 -0.0139908,0.0172977 -0.00763135,0.00737697 -0.016789,0.0122102 -0.0183152,0.00864886 -0.0203503,0.00508756 -0.0221309,0.00178065 z "/>
<path fill="rgb(241,240,234)" stroke="rgb(241,240,234)" d="M 2.49655,1.38842 l -0.00763135,-0.000254378 -0.0198415,-0.00356129 -0.018824,-0.00763135 -0.0178065,-0.011447 -0.0165346,-0.0157714 0.165855,-0.00508756 -0.0106839,0.0122102 -0.0162802,0.0137364 -0.0178065,0.00992075 -0.0193327,0.0058507 -0.0211134,0.00203503 z "/>
<path fill="rgb(241,240,234)" stroke="rgb(241,240,234)" d="M 2.41591,1.37978 l -0.0803835,0 0,-0.365287 0.0803835,0 0,0.219528 0.000254378,0.00483319 0.00432443,0.0226397 0.0106839,0.0190784 0.00152627,0.00178065 0.0162802,0.0122102 0.020859,0.00432443 0.194091,0 0.127189,0.0178065 -0.0104295,0.0193327 -0.198924,0.00864886 -0.165855,0.00508756 0,0.0300166 z "/>
<path fill="rgb(241,240,234)" stroke="rgb(241,240,234)" d="M 2.79112,1.31669 l -0.127189,-0.0178065 0.00534194,-0.000254378 0.0203503,-0.00534194 0.0155171,-0.0127189 0.00356129,-0.00508756 0.00864886,-0.0198415 0.00279816,-0.0239115 0,-0.217239 0.0806379,0 0,0.250817 -0.000254378,0.00737697 -0.00279816,0.022894 -0.00661383,0.0211134 z "/>
<path fill="rgb(241,240,234)" stroke="rgb(241,240,234)" d="M 2.66393,1.29888 l -0.194091,0 0.00559632,-0.000508756 0.0195871,-0.00559632 0.0172977,-0.0129733 0.00432443,-0.00534194 0.00966637,-0.0190784 0.00305254,-0.0236572 0,-0.217239 0.077331,0 0,0.2208 0.000254378,0.00381567 0.00483319,0.0218765 0.0119558,0.018824 0.00279816,0.00279816 0.0172977,0.0122102 0.0200959,0.00407005 z "/>
</g></g></svg>
