<?xml version="1.0" encoding="UTF-8" standalone="no"?>
<!DOCTYPE svg PUBLIC "-//W3C//DTD SVG 1.1//EN" "http://www.w3.org/Graphics/SVG/1.1/DTD/svg11-flat.dtd"
[

]>
<svg xmlns="http://www.w3.org/2000/svg"  viewBox="-0.09375 -0.09375 7.6875 7.6875"><g fill="none" stroke="black" stroke-width="0.0125" transform="translate(0,7.5) scale(1, -1)">
<g id="Output" >
<path fill="rgb(241,240,234)" stroke="rgb(241,240,234)" d="M 1.62384,0.907122 l -0.0800831,0.0616906 -0.0782942,0.0639458 -0.0764417,0.0661491 1.50224,2.65109 -2.89126,-4.44089e-16 0.0142699,-0.326834 0.042701,-0.324347 0.0708072,-0.319391 0.0983745,-0.312004 0.125193,-0.302243 0.151059,-0.290182 0.175775,-0.275912 0.199154,-0.259542 0.221016,-0.241197 0.241197,-0.221016 0.259542,-0.199154 0.275912,-0.175775 0.290182,-0.151059 0.302243,-0.125193 0.312004,-0.0983745 0.319391,-0.0708072 0.324347,-0.042701 0.326834,-0.0142699 0.326834,0.0142699 0.324347,0.042701 0.319391,0.0708072 0.312004,0.0983745 0.302243,0.125193 0.290182,0.151059 0.275912,0.175775 0.259542,0.199154 0.241197,0.221016 0.221016,0.241197 0.199154,0.259542 0.175775,0.275912 0.151059,0.290182 0.125193,0.302243 0.0983745,0.312004 0.0708072,0.319391 0.042701,0.324347 0.0142699,0.326834 -2.89126,0 -1.91967,-3.38776 -0.0960294,0.0315816 -0.0950913,0.034303 -0.094076,0.0369966 1.86138,3.28488 -0.343494,0 -1.79035,-3.15953 -0.0880366,0.0466716 -0.086692,0.049124 -0.0852792,0.0515377 1.70686,3.0122 -0.343494,0 -1.61092,-2.84288 z "/>
<path fill="rgb(241,240,234)" stroke="rgb(241,240,234)" d="M 5.3686,6.90953 l 0.0880366,-0.0466716 0.086692,-0.049124 0.0852792,-0.0515377 -1.70686,-3.0122 0.343494,0 1.61092,2.84288 0.0800831,-0.0616906 0.0782942,-0.0639458 0.0764417,-0.0661491 -1.50224,-2.65109 2.89126,0 -0.0142699,0.326834 -0.042701,0.324347 -0.0708072,0.319391 -0.0983745,0.312004 -0.125193,0.302243 -0.151059,0.290182 -0.175775,0.275912 -0.199154,0.259542 -0.221016,0.241197 -0.241197,0.221016 -0.259542,0.199154 -0.275912,0.175775 -0.290182,0.151059 -0.302243,0.125193 -0.312004,0.0983745 -0.319391,0.0708072 -0.324347,0.042701 -0.326834,0.0142699 -0.326834,-0.0142699 -0.324347,-0.042701 -0.319391,-0.0708072 -0.312004,-0.0983745 -0.302243,-0.125193 -0.290182,-0.151059 -0.275912,-0.175775 -0.259542,-0.199154 -0.241197,-0.221016 -0.221016,-0.241197 -0.199154,-0.259542 -0.175775,-0.275912 -0.151059,-0.290182 -0.125193,-0.302243 -0.0983745,-0.312004 -0.0708072,-0.319391 -0.042701,-0.324347 -0.0142699,-0.326834 2.89126,4.44089e-16 1.91967,3.38776 0.0960294,-0.0315816 0.0950913,-0.034303 0.094076,-0.0369966 -1.86138,-3.28488 0.343494,0 1.79035,3.15953 z "/>
<path fill="rgb(142,146,145)" stroke="rgb(142,146,145)" d="M 5.23283,4.86045 l -0.00662295,0 -0.0851522,-0.00473068 -0.0813676,-0.0132459 -0.0775831,-0.020815 -0.0719063,-0.0302763 -0.0681217,-0.0368993 -0.0643372,-0.0463606 -0.0586604,-0.0539297 -0.055822,-0.0624449 -0.0501452,-0.070014 -0.0406838,-0.0690679 -0.0359531,-0.0728524 -0.0312225,-0.0775831 -0.0264918,-0.0813676 -0.0217611,-0.0851522 -0.0170304,-0.0889367 -0.0122998,-0.0936674 -0.00662295,-0.0974519 -0.00283841,-0.102183 0,-0.000946135 0.00283841,-0.102183 0.00662295,-0.0974519 0.0122998,-0.0927212 0.0160843,-0.0898828 0.0217611,-0.0851522 0.0255456,-0.0823137 0.0312225,-0.0766369 0.035007,-0.0737985 0.0406838,-0.0690679 0.00756908,-0.0132459 0.0501452,-0.0690679 0.0548758,-0.0614988 0.0596065,-0.0539297 0.0643372,-0.0444683 0.0681217,-0.0368993 0.0728524,-0.0293302 0.0775831,-0.0198688 0.0813676,-0.0122998 0.0860983,-0.00473068 0.0217611,0 0.0851522,0.00662295 0.0804215,0.014192 0.0756908,0.0227072 0.0719063,0.0312225 0.0662295,0.0397377 0.0624449,0.0473068 0.0577142,0.055822 0.0529836,0.0643372 0.049199,0.0719063 -0.623503,0.0321686 -0.00473068,0 -0.084206,0.00756908 -0.0756908,0.0236534 -0.0671756,0.0387915 -0.0596065,0.0529836 -0.0520374,0.0681217 -0.0132459,0.020815 -0.0340609,0.0681217 -0.0274379,0.0756908 -0.0217611,0.0832599 -0.0151382,0.090829 -0.00946135,0.0993442 -0.00283841,0.106913 0.000946135,0.0529836 0.00662295,0.0974519 0.014192,0.090829 0.020815,0.0851522 0.0274379,0.0794753 0.0340609,0.0737985 0.0302763,0.0510913 0.0529836,0.0671756 0.0596065,0.0520374 0.0662295,0.0378454 0.0737985,0.0227072 0.0804215,0.00756908 0.620665,0.0368993 -0.00662295,0.0113536 -0.0501452,0.070014 -0.0548758,0.0614988 -0.0586604,0.0539297 -0.063391,0.0454145 -0.0681217,0.0368993 -0.0728524,0.0283841 -0.0775831,0.020815 -0.0813676,0.0122998 -0.0870444,0.00473068 z "/>
<path fill="rgb(142,146,145)" stroke="rgb(142,146,145)" d="M 5.85349,4.51511 l -0.620665,-0.0368993 0.00283841,0 0.0832599,-0.00851522 0.0756908,-0.0227072 0.0671756,-0.0387915 0.0605526,-0.0529836 0.0520374,-0.0690679 0.00756908,-0.0113536 0.0340609,-0.0671756 0.0283841,-0.0747447 0.0227072,-0.0832599 0.0151382,-0.090829 0.00946135,-0.098398 0.00378454,-0.105021 0,-0.0189227 -0.00473068,-0.102183 -0.0113536,-0.0955596 -0.0170304,-0.0879906 -0.0245995,-0.0823137 -0.0302763,-0.0756908 -0.0359531,-0.0681217 -0.00378454,-0.00567681 -0.0520374,-0.070014 -0.0596065,-0.0548758 -0.0662295,-0.0387915 -0.0747447,-0.0236534 -0.0823137,-0.00756908 0.623503,-0.0321686 0.0368993,0.0671756 0.035007,0.0728524 0.0302763,0.0785292 0.0255456,0.0813676 0.020815,0.0860983 0.0160843,0.0889367 0.0113536,0.0936674 0.00756908,0.098398 0.00189227,0.101236 -0.00189227,0.084206 -0.00567681,0.0974519 -0.0113536,0.0936674 -0.0160843,0.0898828 -0.0217611,0.0860983 -0.0255456,0.0823137 -0.0302763,0.0775831 -0.0359531,0.0737985 -0.0397377,0.070014 z "/>
<path fill="rgb(142,146,145)" stroke="rgb(142,146,145)" d="M 3.27433,4.86045 l -0.0681217,-0.00283841 -0.0813676,-0.00851522 -0.0794753,-0.0160843 -0.0756908,-0.0227072 -0.0737985,-0.0293302 -0.070014,-0.0359531 -0.0681217,-0.0435222 -0.0652833,-0.0501452 -0.063391,-0.0567681 -0.0596065,-0.063391 0.256403,-0.263026 0.00189227,0.000946135 0.0605526,0.0643372 0.0652833,0.0520374 0.0690679,0.0397377 0.0728524,0.0293302 0.0775831,0.0170304 0.0813676,0.00662295 0.649049,0.00567681 -0.0368993,0.0747447 -0.049199,0.0690679 -0.0614988,0.063391 -0.0227072,0.0198688 -0.063391,0.0454145 -0.0690679,0.0368993 -0.0737985,0.0293302 -0.0794753,0.020815 -0.084206,0.0122998 -0.0889367,0.00473068 z "/>
<path fill="rgb(142,146,145)" stroke="rgb(142,146,145)" d="M 3.90351,4.48389 l -0.649049,-0.00567681 0.0122998,-0.000946135 0.0898828,-0.00756908 0.0775831,-0.020815 0.0652833,-0.0340609 0.0236534,-0.0170304 0.0520374,-0.0662295 0.0170304,-0.0794753 0,-0.000946135 -0.0179766,-0.0804215 -0.0548758,-0.0690679 -0.0283841,-0.020815 -0.0719063,-0.0312225 -0.0860983,-0.0104075 -0.0785292,0 0,-0.386023 0.0927212,0 0.0416299,-0.000946135 0.0832599,-0.014192 0.0671756,-0.0283841 0.0548758,-0.0435222 0.0520374,-0.0728524 0.0302763,-0.0747447 0.0122998,-0.0879906 -0.0122998,-0.0832599 -0.0368993,-0.0737985 -0.0605526,-0.0624449 -0.0463606,-0.0293302 -0.070014,-0.0283841 -0.0823137,-0.0179766 -0.0917751,-0.00567681 0.661348,-0.0132459 0.0359531,0.0756908 0.0255456,0.0804215 0.0160843,0.0851522 0.00473068,0.0889367 -0.00473068,0.0936674 -0.0170304,0.0879906 -0.0283841,0.0785292 -0.0189227,0.0359531 -0.0435222,0.0643372 -0.0577142,0.070014 -0.0719063,0.0766369 0.0548758,0.0860983 0.0435222,0.084206 0.0312225,0.0813676 0.0189227,0.0785292 0.00662295,0.0747447 -0.00283841,0.0577142 -0.0132459,0.0860983 -0.0255456,0.0813676 z "/>
<path fill="rgb(142,146,145)" stroke="rgb(142,146,145)" d="M 2.75017,3.30879 l -0.276271,-0.231803 0.0359531,-0.0454145 0.055822,-0.0662295 0.0577142,-0.0643372 0.0454145,-0.0435222 0.0624449,-0.0510913 0.0662295,-0.0444683 0.070014,-0.0378454 0.0737985,-0.0312225 0.0766369,-0.0236534 0.0794753,-0.0170304 0.084206,-0.0104075 0.0870444,-0.00378454 0.0236534,0 0.0870444,0.00662295 0.0823137,0.0132459 0.0785292,0.0217611 0.0747447,0.0283841 0.070014,0.0368993 0.0662295,0.0444683 0.0614988,0.0520374 0.035007,0.035007 0.055822,0.0681217 0.0463606,0.0719063 -0.661348,0.0132459 -0.0662295,0.00283841 -0.0823137,0.0113536 -0.0775831,0.020815 -0.0719063,0.0302763 -0.0681217,0.0397377 -0.0624449,0.049199 -0.0577142,0.0577142 -0.0520374,0.0671756 z "/>
<path fill="rgb(142,146,145)" stroke="rgb(142,146,145)" d="M 2.08787,4.82544 l -0.276271,0 -0.035007,-0.0539297 -0.0539297,-0.0624449 -0.0624449,-0.0510913 -0.0719063,-0.0387915 -0.0813676,-0.0283841 0.00567681,-0.307494 0.245049,0 -0.00851522,-1.60748 0.338716,0 0,2.14962 z "/>
<path fill="rgb(42,41,42)" stroke="rgb(42,41,42)" d="M 2.68906,0.362241 l 1.91967,3.38776 1.50224,2.65109 -0.0764417,0.0661491 -0.0782942,0.0639458 -0.0800831,0.0616906 -1.61092,-2.84288 -1.86138,-3.28488 0.094076,-0.0369966 0.0950913,-0.034303 0.0960294,-0.0315816 z "/>
<path fill="rgb(42,41,42)" stroke="rgb(42,41,42)" d="M 5.3686,6.90953 l -1.79035,-3.15953 -1.70686,-3.0122 0.0852792,-0.0515377 0.086692,-0.049124 0.0880366,-0.0466716 1.79035,3.15953 1.70686,3.0122 -0.0852792,0.0515377 -0.086692,0.049124 -0.0880366,0.0466716 z "/>
<path fill="rgb(42,41,42)" stroke="rgb(42,41,42)" d="M 2.89126,3.75 l -1.50224,-2.65109 0.0764417,-0.0661491 0.0782942,-0.0639458 0.0800831,-0.0616906 1.61092,2.84288 1.86138,3.28488 -0.094076,0.0369966 -0.0950913,0.034303 -0.0960294,0.0315816 -1.91967,-3.38776 z "/>
</g></g></svg>
