<?xml version="1.0" encoding="UTF-8" standalone="no"?>
<svg
   viewBox="0 0 23.572353 16.256882"
   width="23.572353mm"
   height="16.256882mm"
   version="1.1"
   id="svg9"
   sodipodi:docname="B-SIW-VRI_DETECTIE_WIFIPANTENNE-SO.dxf"
   xmlns:inkscape="http://www.inkscape.org/namespaces/inkscape"
   xmlns:sodipodi="http://sodipodi.sourceforge.net/DTD/sodipodi-0.dtd"
   xmlns="http://www.w3.org/2000/svg"
   xmlns:svg="http://www.w3.org/2000/svg">
  <sodipodi:namedview
     id="namedview9"
     pagecolor="#ffffff"
     bordercolor="#000000"
     borderopacity="0.25"
     inkscape:showpageshadow="2"
     inkscape:pageopacity="0.0"
     inkscape:pagecheckerboard="0"
     inkscape:deskcolor="#d1d1d1" />
  <desc
     id="desc1">B-SIW-VRI_DETECTIE_WIFIPANTENNE-SO.dxf - scale = 1.000000, origin = (0.000000, 0.000000), method = manual</desc>
  <defs
     id="defs4">
    <marker
       id="DistanceX"
       orient="auto"
       refX="0"
       refY="0"
       style="overflow:visible">
      <path
         d="M 3,-3 -3,3 M 0,-5 V 5"
         style="stroke:#000000;stroke-width:0.5"
         id="path1" />
    </marker>
    <pattern
       id="Hatch"
       patternUnits="userSpaceOnUse"
       width="8"
       height="8"
       x="0"
       y="0">
      <path
         d="M8 4 l-4,4"
         stroke="#000000"
         stroke-width="0.25"
         linecap="square"
         id="path2" />
      <path
         d="M6 2 l-4,4"
         stroke="#000000"
         stroke-width="0.25"
         linecap="square"
         id="path3" />
      <path
         d="M4 0 l-4,4"
         stroke="#000000"
         stroke-width="0.25"
         linecap="square"
         id="path4" />
    </pattern>
    <symbol
       id="*Model_Space" />
    <symbol
       id="*Paper_Space" />
  </defs>
  <g
     inkscape:groupmode="layer"
     inkscape:label="0"
     id="g9"
     transform="translate(0,-1114.3912)">
    <path
       style="fill:none;stroke:#000000"
       d="M 12.5276,1122.52 H 0"
       id="path5" />
    <path
       d="m 17.28984,1122.5197 a 2.3811025,2.3811025 0 0 0 -4.762205,0 2.3811025,2.3811025 0 0 0 4.762205,0 z"
       style="fill:none;stroke:#000000"
       id="path6" />
    <path
       d="m 17.733511,1130.179 a 8.163617,8.163617 0 0 0 0,-15.3186"
       style="fill:none;stroke:#000000"
       id="path7" />
    <path
       d="m 17.001147,1128.1932 a 6.047081,6.047081 0 0 0 0,-11.3471"
       style="fill:none;stroke:#000000"
       id="path8" />
    <path
       d="m 16.347252,1126.4202 a 4.157317,4.157317 0 0 0 0,-7.801"
       style="fill:none;stroke:#000000"
       id="path9" />
  </g>
</svg>
