<?xml version="1.0" encoding="UTF-8" standalone="no"?>
<svg
   viewBox="0 0 27.936992 27.923817"
   width="27.936993mm"
   height="27.923817mm"
   version="1.1"
   id="svg18"
   sodipodi:docname="B-SVW-VERKEERSTEKEN_BORD_J36-SO.dxf"
   xmlns:inkscape="http://www.inkscape.org/namespaces/inkscape"
   xmlns:sodipodi="http://sodipodi.sourceforge.net/DTD/sodipodi-0.dtd"
   xmlns="http://www.w3.org/2000/svg"
   xmlns:svg="http://www.w3.org/2000/svg">
  <sodipodi:namedview
     id="namedview18"
     pagecolor="#ffffff"
     bordercolor="#000000"
     borderopacity="0.25"
     inkscape:showpageshadow="2"
     inkscape:pageopacity="0.0"
     inkscape:pagecheckerboard="0"
     inkscape:deskcolor="#d1d1d1" />
  <desc
     id="desc1">B-SVW-VERKEERSTEKEN_BORD_J36-SO.dxf - scale = 1.000000, origin = (0.000000, 0.000000), method = manual</desc>
  <defs
     id="defs4">
    <marker
       id="DistanceX"
       orient="auto"
       refX="0"
       refY="0"
       style="overflow:visible">
      <path
         d="M 3,-3 -3,3 M 0,-5 V 5"
         style="stroke:#000000;stroke-width:0.5"
         id="path1" />
    </marker>
    <pattern
       id="Hatch"
       patternUnits="userSpaceOnUse"
       width="8"
       height="8"
       x="0"
       y="0">
      <path
         d="M8 4 l-4,4"
         stroke="#000000"
         stroke-width="0.25"
         linecap="square"
         id="path2" />
      <path
         d="M6 2 l-4,4"
         stroke="#000000"
         stroke-width="0.25"
         linecap="square"
         id="path3" />
      <path
         d="M4 0 l-4,4"
         stroke="#000000"
         stroke-width="0.25"
         linecap="square"
         id="path4" />
    </pattern>
    <symbol
       id="*Model_Space" />
    <symbol
       id="*Paper_Space" />
    <symbol
       id="*Paper_Space0" />
  </defs>
  <g
     inkscape:groupmode="layer"
     inkscape:label="0"
     id="g18"
     transform="translate(13.968496,-1108.5683)">
    <path
       d="M 12.676658,1134.6893 0.338051,1110.0121 a 0.377953,0.377953 0 0 0 -0.676102,0 l -12.338607,24.6772 a 0.377953,0.377953 0 0 0 0.338051,0.5469 h 24.677214 a 0.377953,0.377953 0 0 0 0.338051,-0.5469 z"
       style="fill:none;stroke:#333333"
       id="path5" />
    <path
       d="M 13.352761,1134.3512 1.014154,1109.674 a 1.133858,1.133858 0 0 0 -2.028308,0 l -12.338607,24.6772 a 1.133858,1.133858 0 0 0 1.014154,1.641 h 24.677214 a 1.133858,1.133858 0 0 0 1.014154,-1.641 z"
       style="fill:none;stroke:#333333"
       id="path6" />
    <path
       d="M 11.727067,1134.4803 0,1111.0262 l -11.727067,23.4541 z"
       style="fill:none;stroke:#333333"
       id="path7" />
    <path
       d="M 7.446284,1131.8347 0,1116.9421 l -7.446284,14.8926 z"
       style="fill:none;stroke:#333333"
       id="path8" />
    <path
       d="m 0,1111.0262 -11.727067,23.4541 H 0 v -2.6456 H -7.446284 L 0,1116.9421 Z"
       style="fill:#000000"
       id="path9" />
    <path
       d="m 0,1135.2362 h -12.338607 l -0.338051,-0.5469 12.338607,-24.6772 L 0,1109.8031 v -0.7559 l -1.014154,0.6268 -12.338607,24.6772 1.014154,1.641 H 0 Z"
       style="fill:#000000"
       id="path10" />
    <path
       d="M 13.352761,1134.3512 1.014154,1109.674 0,1109.0472 v 0.7559 l 0.338051,0.209 12.338607,24.6772 -0.338051,0.5469 H 0 v 0.756 h 12.338607 z"
       style="fill:#000000"
       id="path11" />
    <path
       d="m 0,1111.0262 v 5.9159 l 7.446284,14.8926 H 0 v 2.6456 h 11.727067 z"
       style="fill:#000000"
       id="path12" />
    <path
       d="m 0,1111.0262 v -1.2231 l -0.338051,0.209 -12.338607,24.6772 0.338051,0.5469 H 0 v -0.7559 h -11.727067 z"
       style="fill:#000000"
       id="path13" />
    <path
       d="M 0.338051,1110.0121 0,1109.8031 v 1.2231 l 11.727067,23.4541 H 0 v 0.7559 h 12.338607 l 0.338051,-0.5469 z"
       style="fill:#000000"
       id="path14" />
    <path
       d="m 4.214983,1127.2116 -0.21857,-0.3802 H 3.160029 l 0.418192,-0.7223 -0.21857,-0.3801 H 2.922432 l -0.636762,1.1024 H 0.641519 l 0.817357,-1.4255 h 1.273525 l 0.218571,-0.3802 -0.218571,-0.3801 H 1.896017 l 0.418192,-0.7223 -0.21857,-0.3802 H 1.658421 l -0.418115,0.7223 -0.418192,-0.7223 H 0.384896 l -0.218571,0.3802 0.636763,1.1024 -0.826832,1.4256 -0.817319,-1.4256 0.636762,-1.1024 -0.218609,-0.3802 h -0.43718 l -0.418153,0.7223 -0.418192,-0.7223 h -0.446693 l -0.21857,0.3802 0.427666,0.7223 h -0.836345 l -0.21857,0.3801 0.21857,0.3802 h 1.264012 l 0.826871,1.4255 h -1.64419 l -0.636763,-1.1024 h -0.437179 l -0.218571,0.3801 0.418154,0.7223 h -0.836346 l -0.21857,0.3802 0.21857,0.3802 h 0.836346 l -0.418154,0.7222 0.218571,0.3802 h 0.437179 l 0.636763,-1.1024 h 1.64419 l -0.826871,1.4256 h -1.264012 l -0.228083,0.3801 0.228083,0.3706 h 0.836345 l -0.427666,0.7319 0.228084,0.3801 h 0.437179 l 0.418192,-0.7318 0.418153,0.7318 h 0.43718 l 0.218609,-0.3801 -0.636762,-1.1025 0.817319,-1.4256 0.826832,1.4256 -0.636763,1.1025 0.218571,0.3801 h 0.437218 l 0.418192,-0.7318 0.418115,0.7318 h 0.437218 l 0.21857,-0.3801 -0.418192,-0.7319 h 0.836384 l 0.218571,-0.3706 -0.218571,-0.3801 H 1.458876 l -0.817357,-1.4256 H 2.28567 l 0.636762,1.1024 h 0.437219 l 0.21857,-0.3802 -0.418192,-0.7222 h 0.836384 l 0.21857,-0.3802"
       style="fill:none;stroke:#000000"
       id="path15" />
    <path
       d="m 0,1116.9421 -7.446284,14.8926 H 7.446284 Z m -3.397626,11.7521 -0.218571,-0.3802 0.418154,-0.7222 h -0.836346 l -0.21857,-0.3802 0.21857,-0.3802 h 0.836346 l -0.418154,-0.7223 0.218571,-0.3801 h 0.437179 l 0.636763,1.1024 h 1.64419 l -0.826871,-1.4255 h -1.264012 l -0.21857,-0.3802 0.21857,-0.3801 h 0.836345 l -0.427666,-0.7223 0.21857,-0.3802 h 0.446693 l 0.418192,0.7223 0.418153,-0.7223 h 0.43718 l 0.218609,0.3802 -0.636762,1.1024 0.817319,1.4256 0.826832,-1.4256 -0.636763,-1.1024 0.218571,-0.3802 h 0.437218 l 0.418192,0.7223 0.418115,-0.7223 h 0.437218 l 0.21857,0.3802 -0.418192,0.7223 h 0.836384 l 0.218571,0.3801 -0.218571,0.3802 H 1.458876 l -0.817357,1.4255 H 2.28567 l 0.636762,-1.1024 h 0.437219 l 0.21857,0.3801 -0.418192,0.7223 h 0.836384 l 0.21857,0.3802 -0.21857,0.3802 H 3.160029 l 0.418192,0.7222 -0.21857,0.3802 H 2.922432 L 2.28567,1127.5918 H 0.641519 l 0.817357,1.4256 h 1.273525 l 0.218571,0.3801 -0.218571,0.3706 H 1.896017 l 0.418192,0.7319 -0.21857,0.3801 H 1.658421 l -0.418115,-0.7318 -0.418192,0.7318 H 0.384896 l -0.218571,-0.3801 0.636763,-1.1025 -0.826832,-1.4256 -0.817319,1.4256 0.636762,1.1025 -0.218609,0.3801 h -0.43718 l -0.418153,-0.7318 -0.418192,0.7318 h -0.437179 l -0.228084,-0.3801 0.427666,-0.7319 h -0.836345 l -0.228083,-0.3706 0.228083,-0.3801 h 1.264012 l 0.826871,-1.4256 h -1.64419 l -0.636763,1.1024 z"
       style="fill:#000000"
       id="path16" />
    <path
       d="M 3.996413,1126.8314 H 3.160029 l 0.418192,-0.7223 -0.21857,-0.3801 H 2.922432 l -0.636762,1.1024 H 0.641519 l 0.817357,-1.4255 h 1.273525 l 0.218571,-0.3802 -0.218571,-0.3801 H 1.896017 l 0.418192,-0.7223 -0.21857,-0.3802 H 1.658421 l -0.418115,0.7223 -0.418192,-0.7223 H 0.384896 l -0.218571,0.3802 0.636763,1.1024 -0.826832,1.4256 -0.817319,-1.4256 0.636762,-1.1024 -0.218609,-0.3802 h -0.43718 l -0.418153,0.7223 -0.418192,-0.7223 h -0.446693 l -0.21857,0.3802 0.427666,0.7223 h -0.836345 l -0.21857,0.3801 0.21857,0.3802 h 1.264012 l 0.826871,1.4255 h -1.64419 l -0.636763,-1.1024 h -0.437179 l -0.218571,0.3801 0.418154,0.7223 h -0.836346 l -0.21857,0.3802 0.21857,0.3802 h 0.836346 l -0.418154,0.7222 0.218571,0.3802 h 0.437179 l 0.636763,-1.1024 h 1.64419 l -0.826871,1.4256 h -1.264012 l -0.228083,0.3801 0.228083,0.3706 h 0.836345 l -0.427666,0.7319 0.228084,0.3801 h 0.437179 l 0.418192,-0.7318 0.418153,0.7318 h 0.43718 l 0.218609,-0.3801 -0.636762,-1.1025 0.817319,-1.4256 0.826832,1.4256 -0.636763,1.1025 0.218571,0.3801 h 0.437218 l 0.418192,-0.7318 0.418115,0.7318 h 0.437218 l 0.21857,-0.3801 -0.418192,-0.7319 h 0.836384 l 0.218571,-0.3706 -0.218571,-0.3801 H 1.458876 l -0.817357,-1.4256 H 2.28567 l 0.636762,1.1024 h 0.437219 l 0.21857,-0.3802 -0.418192,-0.7222 h 0.836384 l 0.21857,-0.3802 z"
       style="fill:#000000"
       id="path17" />
    <text
       x="-0.0049470002"
       y="1122.2362"
       style="font-size:0.945px;line-height:125%;font-family:Arial;text-anchor:start;fill:#000000"
       transform="rotate(-1,-0.004947,1122.2363)"
       id="text17"><tspan
         sodipodi:role="line"
         dx="0"
         dy="0"
         id="tspan17"
         x="-0.0049470002"
         y="1122.2362">id</tspan></text>
    <text
       x="0.016489999"
       y="1123.4645"
       style="font-size:0.945px;line-height:125%;font-family:Arial;text-anchor:start;fill:#000000"
       transform="rotate(-1,0.01649,1123.4644)"
       id="text18"><tspan
         sodipodi:role="line"
         dx="0"
         dy="0"
         id="tspan18"
         x="0.016489999"
         y="1123.4645">placement</tspan></text>
  </g>
</svg>
