<?xml version="1.0" encoding="UTF-8" standalone="no"?>
<!DOCTYPE svg PUBLIC "-//W3C//DTD SVG 1.1//EN" "http://www.w3.org/Graphics/SVG/1.1/DTD/svg11-flat.dtd"
[

]>
<svg xmlns="http://www.w3.org/2000/svg"  viewBox="-0.05625 -0.05625 4.6125 7.6125"><g fill="none" stroke="black" stroke-width="0.0125" transform="translate(0,7.5) scale(1, -1)">
<g id="Output" >
<path fill="rgb(241,240,234)" stroke="rgb(241,240,234)" d="M 2.01256,2.66411 l 0.012847,0.0181816 0.014436,0.0169475 0.0159071,0.015575 0.0172483,0.0140753 0.0184486,0.0124606 0.0194983,0.0107441 0.0203886,0.0089399 0.0211125,0.00706267 0.0216639,0.00512775 0.0220384,0.00315095 0.0222328,0.00114842 0.0136448,0.0174431 0.0120154,0.0186031 0.0102879,0.0196113 0.00847652,0.0204595 0.00659599,0.0211409 0.00466165,0.0216498 0.00268928,0.0219821 0.00069498,0.022135 -0.00130499,0.0221075 -0.00314297,0.0210772 -0.0049787,0.0207205 -0.0067761,0.0202043 -0.00852131,0.0195324 -0.0102009,0.0187102 -0.0118019,0.0177438 -0.0133121,0.0166408 -0.0147197,0.0154097 -0.016014,0.0140599 -0.017185,0.0126018 -0.0160526,0.00973517 -0.0168408,0.00829729 -0.0175006,0.00679611 -0.0180269,0.00524308 -0.0184156,0.00365006 -0.0186639,0.00202918 -0.0187698,0.000392833 -0.0187324,-0.00124652 -0.0185522,-0.00287636 -0.0182305,-0.00448425 -0.0177696,-0.00605794 -0.0183696,-0.00814013 -0.017566,-0.00975405 -0.0166209,-0.0112894 -0.015542,-0.0127339 -0.0143379,-0.0140759 -0.0130184,-0.0153045 -0.0115941,-0.0164099 -0.0100764,-0.0173831 -0.00847755,-0.0182164 -0.00681046,-0.018903 -0.00508854,-0.0194374 -0.00332565,-0.0198153 -0.00153598,-0.0200336 0.000266063,-0.0200907 0.176415,0 0,-0.136514 -0.176415,0 0,-0.138625 0.182722,0 z "/>
<path fill="rgb(241,240,234)" stroke="rgb(241,240,234)" d="M 1.52529,2.04873 l 0.550276,0.613277 0.0121786,0.0124487 0.0132057,0.0113533 0.0141346,0.0101735 0.0149585,0.00891812 0.0156711,0.00759639 0.0162673,0.00621819 0.0167424,0.00479375 0.0170932,0.00333368 0.0173168,0.00184882 0.0174117,0.000350223 0.0173771,-0.00115098 0.0172134,-0.00264363 0.0169217,-0.00411663 0.0165041,-0.00555902 0.0159639,-0.00696008 0.015305,-0.00830939 0.0145323,-0.00959693 0.0136516,-0.0108131 0.0126694,-0.0119489 0.0115929,-0.0129959 0.0104303,-0.0139462 0.420052,-0.594374 0.00974863,-0.0151575 0.00838936,-0.01595 0.00696613,-0.016621 0.0054898,-0.0171653 0.00397163,-0.0175787 0.00242317,-0.0178581 0.00085625,-0.0180014 -0.0007172,-0.0180075 -0.00228518,-0.0178763 -0.00383575,-0.0176089 -0.00535707,-0.0172072 -0.00683756,-0.0166743 -0.00826593,-0.0160143 -0.00963128,-0.0152323 -0.0109232,-0.0143341 -0.0121319,-0.0133267 -0.0132481,-0.0122177 -0.0142633,-0.0110156 -0.0151698,-0.00972947 -0.0159606,-0.0083692 -0.0166298,-0.00694512 -0.0171722,-0.00546811 -0.0175837,-0.00394941 -0.0178612,-0.0024006 -0.0180025,-0.000833501 -0.529262,0 0.407447,-0.476755 -0.0714103,-0.119712 -0.595418,0.595663 -0.00680202,0.00743626 -0.00611719,0.00800909 -0.00538436,0.00851905 -0.00460926,0.00896215 -0.00379799,0.00933492 -0.00295692,0.00963443 -0.00209263,0.00985832 -0.00121192,0.0100048 -0.000321705,0.0100728 0.000571039,0.0100618 0.0014593,0.00997176 0.00233611,0.00980347 0.00319458,0.00955825 0.00402799,0.00923801 0.00482978,0.00884527 0.00559366,0.00838311 0.00631365,0.00785515 0.00698408,0.00726555 0.0075997,0.00661892 0.00815567,0.00592035 0.00864764,0.00517531 0.00907174,0.00438965 0.00942464,0.00356955 0.00970357,0.00272142 0.00990635,0.00185194 0.0100314,0.000967931 0.445263,0.107115 -0.315048,0.354941 -0.459954,-0.403251 -0.0756149,0.0756149 z "/>
<path fill="rgb(241,240,234)" stroke="rgb(241,240,234)" d="M 3.46142,1.22732 l -0.00121556,-0.0278408 -0.00363742,-0.0276289 -0.0060316,-0.0272068 -0.00837987,-0.0265776 -0.0106644,-0.0257461 -0.0128677,-0.0247186 -0.0149731,-0.0235031 -0.0169646,-0.0221087 -0.0188269,-0.020546 -0.020546,-0.0188269 -0.0221087,-0.0169646 -0.0235031,-0.0149731 -0.0247186,-0.0128677 -0.0257461,-0.0106644 -0.0265776,-0.00837987 -0.0272068,-0.0060316 -0.0276289,-0.00363742 -0.0278408,-0.00121556 -0.0278408,0.00121556 -0.0276289,0.00363742 -0.0272068,0.0060316 -0.0265776,0.00837987 -0.0257461,0.0106644 -0.0247186,0.0128677 -0.0235031,0.0149731 -0.0221087,0.0169646 -0.020546,0.0188269 -0.0188269,0.020546 -0.0169646,0.0221087 -0.0149731,0.0235031 -0.0128677,0.0247186 -0.0106644,0.0257461 -0.00837987,0.0265776 -0.0060316,0.0272068 -0.00363742,0.0276289 -0.00121556,0.0278408 0.00121556,0.0278408 0.00363742,0.0276289 0.0060316,0.0272068 0.00837987,0.0265776 0.0106644,0.0257461 0.0128677,0.0247186 0.0149731,0.0235031 0.0169646,0.0221087 0.0188269,0.020546 0.020546,0.0188269 0.0221087,0.0169646 0.0235031,0.0149731 0.0247186,0.0128677 0.0257461,0.0106644 0.0265776,0.00837987 0.0272068,0.0060316 0.0276289,0.00363742 0.0278408,0.00121556 0.0278408,-0.00121556 0.0276289,-0.00363742 0.0272068,-0.0060316 0.0265776,-0.00837987 0.0257461,-0.0106644 0.0247186,-0.0128677 0.0235031,-0.0149731 0.0221087,-0.0169646 0.020546,-0.0188269 0.0188269,-0.020546 0.0169646,-0.0221087 0.0149731,-0.0235031 0.0128677,-0.0247186 0.0106644,-0.0257461 0.00837987,-0.0265776 0.0060316,-0.0272068 0.00363742,-0.0276289 0.00121556,-0.0278408 z M 3.14198,0.723128 l 0.0439436,0.00191862 0.0436092,0.00574125 0.0429428,0.00952019 0.0419497,0.0132267 0.0406373,0.0168325 0.0390156,0.0203102 0.037097,0.0236334 0.034896,0.0267766 0.0324295,0.0297161 0.0297161,0.0324295 0.0267766,0.034896 0.0236334,0.037097 0.0203102,0.0390156 0.0168325,0.0406373 0.0132267,0.0419497 0.00878779,0.0396392 0,0.181713 -0.00878779,0.0396392 -0.0132267,0.0419497 -0.0168325,0.0406373 -0.0203102,0.0390156 -0.0236334,0.037097 -0.0267766,0.034896 -0.0297161,0.0324295 -0.0324295,0.0297161 -0.034896,0.0267766 -0.037097,0.0236334 -0.0390156,0.0203102 -0.0406373,0.0168325 -0.0419497,0.0132267 -0.0396392,0.00878779 -0.181713,0 -0.0396392,-0.00878779 -0.0419497,-0.0132267 -0.0406373,-0.0168325 -0.0390156,-0.0203102 -0.037097,-0.0236334 -0.034896,-0.0267766 -0.0324295,-0.0297161 -0.0297161,-0.0324295 -0.0267766,-0.034896 -0.0236334,-0.037097 -0.0203102,-0.0390156 -0.0168325,-0.0406373 -0.0132267,-0.0419497 -0.00952019,-0.0429428 -0.00574125,-0.0436092 -0.00191862,-0.0439436 0.00191862,-0.0439436 0.00574125,-0.0436092 0.00952019,-0.0429428 0.0132267,-0.0419497 0.0168325,-0.0406373 0.0203102,-0.0390156 0.0236334,-0.037097 0.0267766,-0.034896 0.0297161,-0.0324295 0.0324295,-0.0297161 0.034896,-0.0267766 0.037097,-0.0236334 0.0390156,-0.0203102 0.0406373,-0.0168325 0.0419497,-0.0132267 0.0429428,-0.00952019 0.0436092,-0.00574125 0.0439436,-0.00191862 z "/>
<path fill="rgb(241,240,234)" stroke="rgb(241,240,234)" d="M 3.63778,1.13647 l 0.000732404,0.00330366 0.00574125,0.0436092 0.00191862,0.0439436 -0.00191862,0.0439436 -0.00574125,0.0436092 -0.000732404,0.00330366 0,-0.181713 z "/>
<path fill="rgb(241,240,234)" stroke="rgb(241,240,234)" d="M 3.23283,1.72313 l -0.00330366,0.000732404 -0.0436092,0.00574125 -0.0439436,0.00191862 -0.0439436,-0.00191862 -0.0436092,-0.00574125 -0.00330366,-0.000732404 0.181713,0 z "/>
<path fill="rgb(241,240,234)" stroke="rgb(241,240,234)" d="M 1.65948,1.22732 l -0.00121556,-0.0278408 -0.00363742,-0.0276289 -0.0060316,-0.0272068 -0.00837987,-0.0265776 -0.0106644,-0.0257461 -0.0128677,-0.0247186 -0.0149731,-0.0235031 -0.0169646,-0.0221087 -0.0188269,-0.020546 -0.020546,-0.0188269 -0.0221087,-0.0169646 -0.0235031,-0.0149731 -0.0247186,-0.0128677 -0.0257461,-0.0106644 -0.0265776,-0.00837987 -0.0272068,-0.0060316 -0.0276289,-0.00363742 -0.0278408,-0.00121556 -0.0278408,0.00121556 -0.0276289,0.00363742 -0.0272068,0.0060316 -0.0265776,0.00837987 -0.0257461,0.0106644 -0.0247186,0.0128677 -0.0235031,0.0149731 -0.0221087,0.0169646 -0.020546,0.0188269 -0.0188269,0.020546 -0.0169646,0.0221087 -0.0149731,0.0235031 -0.0128677,0.0247186 -0.0106644,0.0257461 -0.00837987,0.0265776 -0.0060316,0.0272068 -0.00363742,0.0276289 -0.00121556,0.0278408 0.00121556,0.0278408 0.00363742,0.0276289 0.0060316,0.0272068 0.00837987,0.0265776 0.0106644,0.0257461 0.0128677,0.0247186 0.0149731,0.0235031 0.0169646,0.0221087 0.0188269,0.020546 0.020546,0.0188269 0.0221087,0.0169646 0.0235031,0.0149731 0.0247186,0.0128677 0.0257461,0.0106644 0.0265776,0.00837987 0.0272068,0.0060316 0.0276289,0.00363742 0.0278408,0.00121556 0.0278408,-0.00121556 0.0276289,-0.00363742 0.0272068,-0.0060316 0.0265776,-0.00837987 0.0257461,-0.0106644 0.0247186,-0.0128677 0.0235031,-0.0149731 0.0221087,-0.0169646 0.020546,-0.0188269 0.0188269,-0.020546 0.0169646,-0.0221087 0.0149731,-0.0235031 0.0128677,-0.0247186 0.0106644,-0.0257461 0.00837987,-0.0265776 0.0060316,-0.0272068 0.00363742,-0.0276289 0.00121556,-0.0278408 z M 1.34005,0.723128 l 0.0439436,0.00191862 0.0436092,0.00574125 0.0429428,0.00952019 0.0419497,0.0132267 0.0406373,0.0168325 0.0390156,0.0203102 0.037097,0.0236334 0.034896,0.0267766 0.0324295,0.0297161 0.0297161,0.0324295 0.0267766,0.034896 0.0236334,0.037097 0.0203102,0.0390156 0.0168325,0.0406373 0.0132267,0.0419497 0.00878779,0.0396392 0,0.181713 -0.00878779,0.0396392 -0.0132267,0.0419497 -0.0168325,0.0406373 -0.0203102,0.0390156 -0.0236334,0.037097 -0.0267766,0.034896 -0.0297161,0.0324295 -0.0324295,0.0297161 -0.034896,0.0267766 -0.037097,0.0236334 -0.0390156,0.0203102 -0.0406373,0.0168325 -0.0419497,0.0132267 -0.0396392,0.00878779 -0.181713,0 -0.0396392,-0.00878779 -0.0419497,-0.0132267 -0.0406373,-0.0168325 -0.0390156,-0.0203102 -0.037097,-0.0236334 -0.034896,-0.0267766 -0.0324295,-0.0297161 -0.0297161,-0.0324295 -0.0267766,-0.034896 -0.0236334,-0.037097 -0.0203102,-0.0390156 -0.0168325,-0.0406373 -0.0132267,-0.0419497 -0.00952019,-0.0429428 -0.00574125,-0.0436092 -0.00191862,-0.0439436 0.00191862,-0.0439436 0.00574125,-0.0436092 0.00952019,-0.0429428 0.0132267,-0.0419497 0.0168325,-0.0406373 0.0203102,-0.0390156 0.0236334,-0.037097 0.0267766,-0.034896 0.0297161,-0.0324295 0.0324295,-0.0297161 0.034896,-0.0267766 0.037097,-0.0236334 0.0390156,-0.0203102 0.0406373,-0.0168325 0.0419497,-0.0132267 0.0429428,-0.00952019 0.0436092,-0.00574125 0.0439436,-0.00191862 z "/>
<path fill="rgb(241,240,234)" stroke="rgb(241,240,234)" d="M 1.4309,1.72313 l -0.00330366,0.000732404 -0.0436092,0.00574125 -0.0439436,0.00191862 -0.0439436,-0.00191862 -0.0436092,-0.00574125 -0.00330366,-0.000732404 0.181713,0 z "/>
<path fill="rgb(241,240,234)" stroke="rgb(241,240,234)" d="M 1.83585,1.13647 l 0.000732404,0.00330366 0.00574125,0.0436092 0.00191862,0.0439436 -0.00191862,0.0439436 -0.00574125,0.0436092 -0.000732404,0.00330366 0,-0.181713 z "/>
<path fill="rgb(0,91,140)" stroke="rgb(0,91,140)" d="M 4.1,1.4 l 0,1 -0.7,0 0,-0.739804 0.0311725,-0.0198591 0.034896,-0.0267766 0.0324295,-0.0297161 0.0297161,-0.0324295 0.0267766,-0.034896 0.0236334,-0.037097 0.0203102,-0.0390156 0.0167369,-0.0404064 0.484329,0 z "/>
<path fill="rgb(0,91,140)" stroke="rgb(0,91,140)" d="M 4.1,2.4 l 0,1 -0.7,0 0,-1 0.7,0 z "/>
<path fill="rgb(0,91,140)" stroke="rgb(0,91,140)" d="M 4.1,3.4 l 0,1 -0.7,0 0,-1 0.7,0 z "/>
<path fill="rgb(0,91,140)" stroke="rgb(0,91,140)" d="M 0.866353,1.4 l -0.466353,0 0,-0.7 0.00114159,-0.0261467 0.00341608,-0.0259477 0.00566458,-0.0255513 0.00786996,-0.0249603 0.0100155,-0.0241794 0.0120847,-0.0232145 0.014062,-0.0220729 0.0159323,-0.0207634 0.0176813,-0.0192958 0.0192958,-0.0176813 0.0207634,-0.0159323 0.0220729,-0.014062 0.0232145,-0.0120847 0.0241794,-0.0100155 0.0249603,-0.00786996 0.0255513,-0.00566458 0.0259477,-0.00341608 0.0261467,-0.00114159 0.7,-8.88178e-16 0,0.327154 -0.0160101,-0.00210776 -0.0439436,-0.00191862 -0.0439436,0.00191862 -0.0436092,0.00574125 -0.0429428,0.00952019 -0.0419497,0.0132267 -0.0406373,0.0168325 -0.0390156,0.0203102 -0.037097,0.0236334 -0.034896,0.0267766 -0.0324295,0.0297161 -0.0297161,0.0324295 -0.0267766,0.034896 -0.0236334,0.037097 -0.0203102,0.0390156 -0.0168325,0.0406373 -0.0132267,0.0419497 -0.00952019,0.0429428 -0.00574125,0.0436092 -0.00191862,0.0439436 0.00191862,0.0439436 0.00574125,0.0436092 0.00952019,0.0429428 0.0132267,0.0419497 9.564e-05,0.000230895 z "/>
<path fill="rgb(0,91,140)" stroke="rgb(0,91,140)" d="M 0.866353,1.4 l 0.0167369,0.0404064 0.0203102,0.0390156 0.0236334,0.037097 0.0267766,0.034896 0.0297161,0.0324295 0.0324295,0.0297161 0.034896,0.0267766 0.037097,0.0236334 0.0390156,0.0203102 0.0406373,0.0168325 0.0419497,0.0132267 0.0429428,0.00952019 0.0436092,0.00574125 0.0439436,0.00191862 0.0439436,-0.00191862 0.0160101,-0.00210776 0,0.672506 -1,0 0,-1 0.466353,0 z "/>
<path fill="rgb(0,91,140)" stroke="rgb(0,91,140)" d="M 0.4,2.4 l 1,0 0,1 -1,0 0,-1 z "/>
<path fill="rgb(0,91,140)" stroke="rgb(0,91,140)" d="M 1.65948,1.22732 l -0.00121556,0.0278408 -0.00363742,0.0276289 -0.0060316,0.0272068 -0.00837987,0.0265776 -0.0106644,0.0257461 -0.0128677,0.0247186 -0.0149731,0.0235031 -0.0169646,0.0221087 -0.0188269,0.020546 -0.020546,0.0188269 -0.0221087,0.0169646 -0.0235031,0.0149731 -0.0247186,0.0128677 -0.0257461,0.0106644 -0.0265776,0.00837987 -0.0272068,0.0060316 -0.0276289,0.00363742 -0.0278408,0.00121556 -0.0278408,-0.00121556 -0.0276289,-0.00363742 -0.0272068,-0.0060316 -0.0265776,-0.00837987 -0.0257461,-0.0106644 -0.0247186,-0.0128677 -0.0235031,-0.0149731 -0.0221087,-0.0169646 -0.020546,-0.0188269 -0.0188269,-0.020546 -0.0169646,-0.0221087 -0.0149731,-0.0235031 -0.0128677,-0.0247186 -0.0106644,-0.0257461 -0.00837987,-0.0265776 -0.0060316,-0.0272068 -0.00363742,-0.0276289 -0.00121556,-0.0278408 0.00121556,-0.0278408 0.00363742,-0.0276289 0.0060316,-0.0272068 0.00837987,-0.0265776 0.0106644,-0.0257461 0.0128677,-0.0247186 0.0149731,-0.0235031 0.0169646,-0.0221087 0.0188269,-0.020546 0.020546,-0.0188269 0.0221087,-0.0169646 0.0235031,-0.0149731 0.0247186,-0.0128677 0.0257461,-0.0106644 0.0265776,-0.00837987 0.0272068,-0.0060316 0.0276289,-0.00363742 0.0278408,-0.00121556 0.0278408,0.00121556 0.0276289,0.00363742 0.0272068,0.0060316 0.0265776,0.00837987 0.0257461,0.0106644 0.0247186,0.0128677 0.0235031,0.0149731 0.0221087,0.0169646 0.020546,0.0188269 0.0188269,0.020546 0.0169646,0.0221087 0.0149731,0.0235031 0.0128677,0.0247186 0.0106644,0.0257461 0.00837987,0.0265776 0.0060316,0.0272068 0.00363742,0.0276289 0.00121556,0.0278408 z "/>
<path fill="rgb(0,91,140)" stroke="rgb(0,91,140)" d="M 0.4,3.4 l 1,0 0,1 -1,0 0,-1 z "/>
<path fill="rgb(0,91,140)" stroke="rgb(0,91,140)" d="M 4.1,4.4 l 0,1 -0.7,0 0,-1 0.7,0 z "/>
<path fill="rgb(0,91,140)" stroke="rgb(0,91,140)" d="M 0.4,4.4 l 1,0 0,1 -1,0 0,-1 z "/>
<path fill="rgb(0,91,140)" stroke="rgb(0,91,140)" d="M 4.1,5.4 l 0,1 -0.7,0 0,-1 0.7,0 z "/>
<path fill="rgb(0,91,140)" stroke="rgb(0,91,140)" d="M 2.4,3.4 l 1,0 0,1 -1,0 0,-1 z "/>
<path fill="rgb(0,91,140)" stroke="rgb(0,91,140)" d="M 0.4,5.4 l 1,0 0,1 -1,0 0,-1 z "/>
<path fill="rgb(0,91,140)" stroke="rgb(0,91,140)" d="M 1.4,6.4 l 1,0 0,0.7 -0.15,0 -0.85,0 0,-0.7 z "/>
<path fill="rgb(0,91,140)" stroke="rgb(0,91,140)" d="M 3.4,6.4 l 0.7,0 0,0.4 -0.00114159,0.0261467 -0.00341608,0.0259477 -0.00566458,0.0255513 -0.00786996,0.0249603 -0.0100155,0.0241794 -0.0120847,0.0232145 -0.014062,0.0220729 -0.0159323,0.0207634 -0.0176813,0.0192958 -0.0192958,0.0176813 -0.0207634,0.0159323 -0.0220729,0.014062 -0.0232145,0.0120847 -0.0241794,0.0100155 -0.0249603,0.00786996 -0.0255513,0.00566458 -0.0259477,0.00341608 -0.0261467,0.00114159 -0.4,0 0,-0.7 z "/>
<path fill="rgb(0,91,140)" stroke="rgb(0,91,140)" d="M 0.4,6.4 l 1,0 0,0.7 -0.7,0 -0.0261467,-0.00114159 -0.0259477,-0.00341608 -0.0255513,-0.00566458 -0.0249603,-0.00786996 -0.0241794,-0.0100155 -0.0232145,-0.0120847 -0.0220729,-0.014062 -0.0207634,-0.0159323 -0.0192958,-0.0176813 -0.0176813,-0.0192958 -0.0159323,-0.0207634 -0.014062,-0.0220729 -0.0120847,-0.0232145 -0.0100155,-0.0241794 -0.00786996,-0.0249603 -0.00566458,-0.0255513 -0.00341608,-0.0259477 -0.00114159,-0.0261467 -4.44089e-16,-0.4 z "/>
<path fill="rgb(0,91,140)" stroke="rgb(0,91,140)" d="M 2.17624,1.4 l -0.362499,0 9.564e-05,-0.000230895 0.0132267,-0.0419497 0.00952019,-0.0429428 0.00574125,-0.0436092 0.00191862,-0.0439436 -0.00191862,-0.0439436 -0.00574125,-0.0436092 -0.00952019,-0.0429428 -0.0132267,-0.0419497 -0.0168325,-0.0406373 -0.0203102,-0.0390156 -0.0236334,-0.037097 -0.0267766,-0.034896 -0.0297161,-0.0324295 -0.0324295,-0.0297161 -0.034896,-0.0267766 -0.037097,-0.0236334 -0.0390156,-0.0203102 -0.0406373,-0.0168325 -0.0419497,-0.0132267 -0.0429428,-0.00952019 -0.0275991,-0.00363349 0,-0.327154 0.85,4.44089e-16 0.15,-4.44089e-16 0,0.776147 -0.223761,0.223853 z M 2.4,1.38816 l 0,0.011844 -0.0101222,0 0.0101222,-0.011844 z "/>
<path fill="rgb(0,91,140)" stroke="rgb(0,91,140)" d="M 2.4,4.4 l 1,0 0,1 -1,0 0,-1 z "/>
<path fill="rgb(0,91,140)" stroke="rgb(0,91,140)" d="M 2.38988,1.4 l 0.0101222,0 0,0.32109 -0.284534,0 0.274412,-0.32109 z M 1.81374,1.4 l 0.362499,0 -0.320154,0.320285 -0.00680202,0.00743626 -0.00611719,0.00800909 -0.00538436,0.00851905 -0.00460926,0.00896215 -0.00379799,0.00933492 -0.00295692,0.00963443 -0.00209263,0.00985832 -0.00121192,0.0100048 -0.000321705,0.0100728 0.000571039,0.0100618 0.0014593,0.00997176 0.00233611,0.00980347 0.00319458,0.00955825 0.00402799,0.00923801 0.00482978,0.00884527 0.00559366,0.00838311 0.00631365,0.00785515 0.00698408,0.00726555 0.0075997,0.00661892 0.00815567,0.00592035 0.00864764,0.00517531 0.00907174,0.00438965 0.00942464,0.00356955 0.00970357,0.00272142 0.00990635,0.00185194 0.0100314,0.000967931 0.445263,0.107115 -0.315048,0.354941 -0.459954,-0.403251 -0.0756149,0.0756149 0.315181,0.351266 -0.440469,0 0,-0.672506 0.0275991,-0.00363349 0.0429428,-0.00952019 0.0419497,-0.0132267 0.0406373,-0.0168325 0.0390156,-0.0203102 0.037097,-0.0236334 0.034896,-0.0267766 0.0324295,-0.0297161 0.0297161,-0.0324295 0.0267766,-0.034896 0.0236334,-0.037097 0.0203102,-0.0390156 0.0167369,-0.0404064 z "/>
<path fill="rgb(0,91,140)" stroke="rgb(0,91,140)" d="M 2.4,5.4 l 1,0 0,1 -1,0 0,-1 z "/>
<path fill="rgb(0,91,140)" stroke="rgb(0,91,140)" d="M 2.4,7.1 l 0,-0.7 1,0 0,0.7 -1,0 z "/>
<path fill="rgb(0,91,140)" stroke="rgb(0,91,140)" d="M 2.01256,2.66411 l -0.182722,0 0,0.138625 0.176415,0 0,0.136514 -0.176415,0 -0.000266063,0.0200907 0.00153598,0.0200336 0.00332565,0.0198153 0.00508854,0.0194374 0.00681046,0.018903 0.00847755,0.0182164 0.0100764,0.0173831 0.0115941,0.0164099 0.0130184,0.0153045 0.0143379,0.0140759 0.015542,0.0127339 0.0166209,0.0112894 0.017566,0.00975405 0.0183696,0.00814013 0.0177696,0.00605794 0.0182305,0.00448425 0.0185522,0.00287636 0.0187324,0.00124652 0.0187698,-0.000392833 0.0186639,-0.00202918 0.0184156,-0.00365006 0.0180269,-0.00524308 0.0175006,-0.00679611 0.0168408,-0.00829729 0.0160526,-0.00973517 0.017185,-0.0126018 0.016014,-0.0140599 0.0147197,-0.0154097 0.0133121,-0.0166408 0.0118019,-0.0177438 0.0102009,-0.0187102 0.00852131,-0.0195324 0.0067761,-0.0202043 0.0049787,-0.0207205 0.00314297,-0.0210772 0.00130499,-0.0221075 -0.00069498,-0.022135 -0.00268928,-0.0219821 -0.00466165,-0.0216498 -0.00659599,-0.0211409 -0.00847652,-0.0204595 -0.0102879,-0.0196113 -0.0120154,-0.0186031 -0.0136448,-0.0174431 -0.0222328,-0.00114842 -0.0220384,-0.00315095 -0.0216639,-0.00512775 -0.0211125,-0.00706267 -0.0203886,-0.0089399 -0.0194983,-0.0107441 -0.0184486,-0.0124606 -0.0172483,-0.0140753 -0.0159071,-0.015575 -0.014436,-0.0169475 -0.012847,-0.0181816 z M 1.84047,2.4 l 0.235096,0.262012 0.0121786,0.0124487 0.0132057,0.0113533 0.0141346,0.0101735 0.0149585,0.00891812 0.0156711,0.00759639 0.0162673,0.00621819 0.0167424,0.00479375 0.0170932,0.00333368 0.0173168,0.00184882 0.0174117,0.000350223 0.0173771,-0.00115098 0.0172134,-0.00264363 0.0169217,-0.00411663 0.0165041,-0.00555902 0.0159639,-0.00696008 0.015305,-0.00830939 0.0145323,-0.00959693 0.0136516,-0.0108131 0.0126694,-0.0119489 0.0115929,-0.0129959 0.0104303,-0.0139462 0.00729324,-0.0103199 0,0.769314 -1,0 0,-1 0.440469,0 z "/>
<path fill="rgb(0,91,140)" stroke="rgb(0,91,140)" d="M 1.4,3.4 l 1,0 0,1 -1,0 0,-1 z "/>
<path fill="rgb(0,91,140)" stroke="rgb(0,91,140)" d="M 2.4,1.72109 l 0,-0.32109 0.268284,0 0.0167369,0.0404064 0.0203102,0.0390156 0.0236334,0.037097 0.0267766,0.034896 0.0297161,0.0324295 0.0324295,0.0297161 0.034896,0.0267766 0.037097,0.0236334 0.0390156,0.0203102 0.0406373,0.0168325 0.0419497,0.0132267 0.0429428,0.00952019 0.0436092,0.00574125 0.0439436,0.00191862 0.0439436,-0.00191862 0.0436092,-0.00574125 0.0429428,-0.00952019 0.0419497,-0.0132267 0.0406373,-0.0168325 0.0390156,-0.0203102 0.00592449,-0.00377432 0,0.739804 -0.836971,0 0.24973,-0.353368 0.00974863,-0.0151575 0.00838936,-0.01595 0.00696613,-0.016621 0.0054898,-0.0171653 0.00397163,-0.0175787 0.00242317,-0.0178581 0.00085625,-0.0180014 -0.0007172,-0.0180075 -0.00228518,-0.0178763 -0.00383575,-0.0176089 -0.00535707,-0.0172072 -0.00683756,-0.0166743 -0.00826593,-0.0160143 -0.00963128,-0.0152323 -0.0109232,-0.0143341 -0.0121319,-0.0133267 -0.0132481,-0.0122177 -0.0142633,-0.0110156 -0.0151698,-0.00972947 -0.0159606,-0.0083692 -0.0166298,-0.00694512 -0.0171722,-0.00546811 -0.0175837,-0.00394941 -0.0178612,-0.0024006 -0.0180025,-0.000833501 -0.244728,0 z "/>
<path fill="rgb(0,91,140)" stroke="rgb(0,91,140)" d="M 2.66828,1.4 l -0.268284,0 0,-0.011844 0.122913,-0.143821 -0.0714103,-0.119712 -0.0515032,0.0515244 0,-0.776147 1,0 0,0.394452 -0.00592449,-0.00377432 -0.0390156,-0.0203102 -0.0406373,-0.0168325 -0.0419497,-0.0132267 -0.0429428,-0.00952019 -0.0436092,-0.00574125 -0.0439436,-0.00191862 -0.0439436,0.00191862 -0.0436092,0.00574125 -0.0429428,0.00952019 -0.0419497,0.0132267 -0.0406373,0.0168325 -0.0390156,0.0203102 -0.037097,0.0236334 -0.034896,0.0267766 -0.0324295,0.0297161 -0.0297161,0.0324295 -0.0267766,0.034896 -0.0236334,0.037097 -0.0203102,0.0390156 -0.0168325,0.0406373 -0.0132267,0.0419497 -0.00952019,0.0429428 -0.00574125,0.0436092 -0.00191862,0.0439436 0.00191862,0.0439436 0.00574125,0.0436092 0.00952019,0.0429428 0.0132267,0.0419497 9.564e-05,0.000230895 z "/>
<path fill="rgb(0,91,140)" stroke="rgb(0,91,140)" d="M 1.4,4.4 l 1,0 0,1 -1,0 0,-1 z "/>
<path fill="rgb(0,91,140)" stroke="rgb(0,91,140)" d="M 1.4,5.4 l 1,0 0,1 -1,0 0,-1 z "/>
<path fill="rgb(0,91,140)" stroke="rgb(0,91,140)" d="M 2.4,2.63069 l 0.163029,-0.230686 0.836971,0 0,1 -1,0 0,-0.769314 z "/>
<path fill="rgb(0,91,140)" stroke="rgb(0,91,140)" d="M 3.8,0.4 l 0.0261467,0.00114159 0.0259477,0.00341608 0.0255513,0.00566458 0.0249603,0.00786996 0.0241794,0.0100155 0.0232145,0.0120847 0.0220729,0.014062 0.0207634,0.0159323 0.0192958,0.0176813 0.0176813,0.0192958 0.0159323,0.0207634 0.014062,0.0220729 0.0120847,0.0232145 0.0100155,0.0241794 0.00786996,0.0249603 0.00566458,0.0255513 0.00341608,0.0259477 0.00114159,0.0261467 0,0.7 -0.484329,0 9.564e-05,-0.000230895 0.0132267,-0.0419497 0.00952019,-0.0429428 0.00574125,-0.0436092 0.00191862,-0.0439436 -0.00191862,-0.0439436 -0.00574125,-0.0436092 -0.00952019,-0.0429428 -0.0132267,-0.0419497 -0.0168325,-0.0406373 -0.0203102,-0.0390156 -0.0236334,-0.037097 -0.0267766,-0.034896 -0.0297161,-0.0324295 -0.0324295,-0.0297161 -0.034896,-0.0267766 -0.0311725,-0.0198591 0,-0.394452 0.4,0 z "/>
<path fill="rgb(0,91,140)" stroke="rgb(0,91,140)" d="M 3.46142,1.22732 l -0.00121556,0.0278408 -0.00363742,0.0276289 -0.0060316,0.0272068 -0.00837987,0.0265776 -0.0106644,0.0257461 -0.0128677,0.0247186 -0.0149731,0.0235031 -0.0169646,0.0221087 -0.0188269,0.020546 -0.020546,0.0188269 -0.0221087,0.0169646 -0.0235031,0.0149731 -0.0247186,0.0128677 -0.0257461,0.0106644 -0.0265776,0.00837987 -0.0272068,0.0060316 -0.0276289,0.00363742 -0.0278408,0.00121556 -0.0278408,-0.00121556 -0.0276289,-0.00363742 -0.0272068,-0.0060316 -0.0265776,-0.00837987 -0.0257461,-0.0106644 -0.0247186,-0.0128677 -0.0235031,-0.0149731 -0.0221087,-0.0169646 -0.020546,-0.0188269 -0.0188269,-0.020546 -0.0169646,-0.0221087 -0.0149731,-0.0235031 -0.0128677,-0.0247186 -0.0106644,-0.0257461 -0.00837987,-0.0265776 -0.0060316,-0.0272068 -0.00363742,-0.0276289 -0.00121556,-0.0278408 0.00121556,-0.0278408 0.00363742,-0.0276289 0.0060316,-0.0272068 0.00837987,-0.0265776 0.0106644,-0.0257461 0.0128677,-0.0247186 0.0149731,-0.0235031 0.0169646,-0.0221087 0.0188269,-0.020546 0.020546,-0.0188269 0.0221087,-0.0169646 0.0235031,-0.0149731 0.0247186,-0.0128677 0.0257461,-0.0106644 0.0265776,-0.00837987 0.0272068,-0.0060316 0.0276289,-0.00363742 0.0278408,-0.00121556 0.0278408,0.00121556 0.0276289,0.00363742 0.0272068,0.0060316 0.0265776,0.00837987 0.0257461,0.0106644 0.0247186,0.0128677 0.0235031,0.0149731 0.0221087,0.0169646 0.020546,0.0188269 0.0188269,0.020546 0.0169646,0.0221087 0.0149731,0.0235031 0.0128677,0.0247186 0.0106644,0.0257461 0.00837987,0.0265776 0.0060316,0.0272068 0.00363742,0.0276289 0.00121556,0.0278408 z "/>
<path fill="rgb(0,91,140)" stroke="rgb(0,91,140)" d="M 3.8,7.5 l -1.55,0 -4.44089e-16,-0.2 1.55,0 0.0435779,-0.00190265 0.0432462,-0.00569347 0.0425854,-0.00944096 0.0416005,-0.0131166 0.0402991,-0.0166924 0.0386909,-0.0201412 0.0367882,-0.0234367 0.0346056,-0.0265538 0.0321596,-0.0294688 0.0294688,-0.0321596 0.0265538,-0.0346056 0.0234367,-0.0367882 0.0201412,-0.0386909 0.0166924,-0.0402991 0.0131166,-0.0416005 0.00944096,-0.0425854 0.00569347,-0.0432462 0.00190265,-0.0435779 0,-6.1 -0.00190265,-0.0435779 -0.00569347,-0.0432462 -0.00944096,-0.0425854 -0.0131166,-0.0416005 -0.0166924,-0.0402991 -0.0201412,-0.0386909 -0.0234367,-0.0367882 -0.0265538,-0.0346056 -0.0294688,-0.0321596 -0.0321596,-0.0294688 -0.0346056,-0.0265538 -0.0367882,-0.0234367 -0.0386909,-0.0201412 -0.0402991,-0.0166924 -0.0416005,-0.0131166 -0.0425854,-0.00944096 -0.0432462,-0.00569347 -0.0435779,-0.00190265 -1.55,4.44089e-16 0,-0.2 1.55,-4.44089e-16 0.061009,0.00266371 0.0605447,0.00797086 0.0596196,0.0132173 0.0582408,0.0183632 0.0564187,0.0233694 0.0541672,0.0281977 0.0515035,0.0328114 0.0484478,0.0371753 0.0450234,0.0412564 0.0412564,0.0450234 0.0371753,0.0484478 0.0328114,0.0515035 0.0281977,0.0541672 0.0233694,0.0564187 0.0183632,0.0582408 0.0132173,0.0596196 0.00797086,0.0605447 0.00266371,0.061009 8.88178e-16,6.1 -0.00266371,0.061009 -0.00797086,0.0605447 -0.0132173,0.0596196 -0.0183632,0.0582408 -0.0233694,0.0564187 -0.0281977,0.0541672 -0.0328114,0.0515035 -0.0371753,0.0484478 -0.0412564,0.0450234 -0.0450234,0.0412564 -0.0484478,0.0371753 -0.0515035,0.0328114 -0.0541672,0.0281977 -0.0564187,0.0233694 -0.0582408,0.0183632 -0.0596196,0.0132173 -0.0605447,0.00797086 -0.061009,0.00266371 z "/>
<path fill="rgb(0,91,140)" stroke="rgb(0,91,140)" d="M 0,6.8 l 0,-6.1 0.00266371,-0.061009 0.00797086,-0.0605447 0.0132173,-0.0596196 0.0183632,-0.0582408 0.0233694,-0.0564187 0.0281977,-0.0541672 0.0328114,-0.0515035 0.0371753,-0.0484478 0.0412564,-0.0450234 0.0450234,-0.0412564 0.0484478,-0.0371753 0.0515035,-0.0328114 0.0541672,-0.0281977 0.0564187,-0.0233694 0.0582408,-0.0183632 0.0596196,-0.0132173 0.0605447,-0.00797086 0.061009,-0.00266371 1.55,-8.88178e-16 0,0.2 -1.55,4.44089e-16 -0.0435779,0.00190265 -0.0432462,0.00569347 -0.0425854,0.00944096 -0.0416005,0.0131166 -0.0402991,0.0166924 -0.0386909,0.0201412 -0.0367882,0.0234367 -0.0346056,0.0265538 -0.0321596,0.0294688 -0.0294688,0.0321596 -0.0265538,0.0346056 -0.0234367,0.0367882 -0.0201412,0.0386909 -0.0166924,0.0402991 -0.0131166,0.0416005 -0.00944096,0.0425854 -0.00569347,0.0432462 -0.00190265,0.0435779 0,6.1 0.00190265,0.0435779 0.00569347,0.0432462 0.00944096,0.0425854 0.0131166,0.0416005 0.0166924,0.0402991 0.0201412,0.0386909 0.0234367,0.0367882 0.0265538,0.0346056 0.0294688,0.0321596 0.0321596,0.0294688 0.0346056,0.0265538 0.0367882,0.0234367 0.0386909,0.0201412 0.0402991,0.0166924 0.0416005,0.0131166 0.0425854,0.00944096 0.0432462,0.00569347 0.0435779,0.00190265 1.55,0 4.44089e-16,0.2 -1.55,0 -0.061009,-0.00266371 -0.0605447,-0.00797086 -0.0596196,-0.0132173 -0.0582408,-0.0183632 -0.0564187,-0.0233694 -0.0541672,-0.0281977 -0.0515035,-0.0328114 -0.0484478,-0.0371753 -0.0450234,-0.0412564 -0.0412564,-0.0450234 -0.0371753,-0.0484478 -0.0328114,-0.0515035 -0.0281977,-0.0541672 -0.0233694,-0.0564187 -0.0183632,-0.0582408 -0.0132173,-0.0596196 -0.00797086,-0.0605447 -0.00266371,-0.061009 z "/>
<path fill="rgb(241,240,234)" stroke="rgb(241,240,234)" d="M 2.25,0.4 l 0,-0.2 1.55,-4.44089e-16 0.0435779,0.00190265 0.0432462,0.00569347 0.0425854,0.00944096 0.0416005,0.0131166 0.0402991,0.0166924 0.0386909,0.0201412 0.0367882,0.0234367 0.0346056,0.0265538 0.0321596,0.0294688 0.0294688,0.0321596 0.0265538,0.0346056 0.0234367,0.0367882 0.0201412,0.0386909 0.0166924,0.0402991 0.0131166,0.0416005 0.00944096,0.0425854 0.00569347,0.0432462 0.00190265,0.0435779 0,6.1 -0.00190265,0.0435779 -0.00569347,0.0432462 -0.00944096,0.0425854 -0.0131166,0.0416005 -0.0166924,0.0402991 -0.0201412,0.0386909 -0.0234367,0.0367882 -0.0265538,0.0346056 -0.0294688,0.0321596 -0.0321596,0.0294688 -0.0346056,0.0265538 -0.0367882,0.0234367 -0.0386909,0.0201412 -0.0402991,0.0166924 -0.0416005,0.0131166 -0.0425854,0.00944096 -0.0432462,0.00569347 -0.0435779,0.00190265 -1.55,0 0,-0.2 1.55,0 0.0261467,-0.00114159 0.0259477,-0.00341608 0.0255513,-0.00566458 0.0249603,-0.00786996 0.0241794,-0.0100155 0.0232145,-0.0120847 0.0220729,-0.014062 0.0207634,-0.0159323 0.0192958,-0.0176813 0.0176813,-0.0192958 0.0159323,-0.0207634 0.014062,-0.0220729 0.0120847,-0.0232145 0.0100155,-0.0241794 0.00786996,-0.0249603 0.00566458,-0.0255513 0.00341608,-0.0259477 0.00114159,-0.0261467 0,-6.1 -0.00114159,-0.0261467 -0.00341608,-0.0259477 -0.00566458,-0.0255513 -0.00786996,-0.0249603 -0.0100155,-0.0241794 -0.0120847,-0.0232145 -0.014062,-0.0220729 -0.0159323,-0.0207634 -0.0176813,-0.0192958 -0.0192958,-0.0176813 -0.0207634,-0.0159323 -0.0220729,-0.014062 -0.0232145,-0.0120847 -0.0241794,-0.0100155 -0.0249603,-0.00786996 -0.0255513,-0.00566458 -0.0259477,-0.00341608 -0.0261467,-0.00114159 -1.55,4.44089e-16 z "/>
<path fill="rgb(241,240,234)" stroke="rgb(241,240,234)" d="M 0.7,0.4 l -0.0261467,0.00114159 -0.0259477,0.00341608 -0.0255513,0.00566458 -0.0249603,0.00786996 -0.0241794,0.0100155 -0.0232145,0.0120847 -0.0220729,0.014062 -0.0207634,0.0159323 -0.0192958,0.0176813 -0.0176813,0.0192958 -0.0159323,0.0207634 -0.014062,0.0220729 -0.0120847,0.0232145 -0.0100155,0.0241794 -0.00786996,0.0249603 -0.00566458,0.0255513 -0.00341608,0.0259477 -0.00114159,0.0261467 4.44089e-16,6.1 0.00114159,0.0261467 0.00341608,0.0259477 0.00566458,0.0255513 0.00786996,0.0249603 0.0100155,0.0241794 0.0120847,0.0232145 0.014062,0.0220729 0.0159323,0.0207634 0.0176813,0.0192958 0.0192958,0.0176813 0.0207634,0.0159323 0.0220729,0.014062 0.0232145,0.0120847 0.0241794,0.0100155 0.0249603,0.00786996 0.0255513,0.00566458 0.0259477,0.00341608 0.0261467,0.00114159 1.55,0 0,0.2 -1.55,0 -0.0435779,-0.00190265 -0.0432462,-0.00569347 -0.0425854,-0.00944096 -0.0416005,-0.0131166 -0.0402991,-0.0166924 -0.0386909,-0.0201412 -0.0367882,-0.0234367 -0.0346056,-0.0265538 -0.0321596,-0.0294688 -0.0294688,-0.0321596 -0.0265538,-0.0346056 -0.0234367,-0.0367882 -0.0201412,-0.0386909 -0.0166924,-0.0402991 -0.0131166,-0.0416005 -0.00944096,-0.0425854 -0.00569347,-0.0432462 -0.00190265,-0.0435779 0,-6.1 0.00190265,-0.0435779 0.00569347,-0.0432462 0.00944096,-0.0425854 0.0131166,-0.0416005 0.0166924,-0.0402991 0.0201412,-0.0386909 0.0234367,-0.0367882 0.0265538,-0.0346056 0.0294688,-0.0321596 0.0321596,-0.0294688 0.0346056,-0.0265538 0.0367882,-0.0234367 0.0386909,-0.0201412 0.0402991,-0.0166924 0.0416005,-0.0131166 0.0425854,-0.00944096 0.0432462,-0.00569347 0.0435779,-0.00190265 1.55,-4.44089e-16 0,0.2 -1.55,4.44089e-16 z "/>
<path fill="rgb(241,240,234)" stroke="rgb(241,240,234)" d="M 2.55842,6.76763 l -1.46839,0 0,-3.49924 0.573189,0 0,1.37179 0.895205,0 0.0901645,0.00322016 0.109486,0.00966049 0.101972,0.019321 0.0955315,0.0268347 0.0869444,0.0354218 0.080504,0.0440089 0.0837242,0.0590363 0.0794307,0.0697702 0.0708436,0.0783573 0.0633298,0.085871 0.0558161,0.0944581 0.0461557,0.099825 -1.85911,0.00214677 0,0.872664 0.917746,0 0.939214,0.0246879 -0.0440089,0.0901645 -0.0536694,0.0837242 -0.0633298,0.0794307 -0.0708436,0.0729903 -0.080504,0.06655 -0.0901645,0.0611831 -0.0633298,0.0364952 -0.0890911,0.0407887 -0.0944581,0.0311282 -0.0987516,0.0225411 -0.105192,0.0128806 -0.108412,0.00429355 z "/>
<path fill="rgb(241,240,234)" stroke="rgb(241,240,234)" d="M 3.52017,6.16546 l -0.939214,-0.0246879 0.0686968,-0.00322016 0.104119,-0.0203944 0.0880178,-0.0375686 0.0740637,-0.0568895 0.0246879,-0.0257613 0.0579629,-0.0880178 0.0343484,-0.099825 0.0118073,-0.112706 -0.00107339,-0.0289815 -0.0182476,-0.110559 -0.0418621,-0.0944581 -0.0676234,-0.0772839 -0.0440089,-0.0343484 -0.085871,-0.0461557 -0.0966049,-0.0279081 -0.108412,-0.0085871 -0.917746,0 1.85911,-0.00214677 0.0375686,0.105192 0.0279081,0.106265 0.0161008,0.108412 0.00536694,0.110559 -0.00107339,0.0515226 -0.0085871,0.112706 -0.0171742,0.107339 -0.0268347,0.101972 -0.0354218,0.0955315 z "/>
</g></g></svg>
