<?xml version="1.0" encoding="UTF-8" standalone="no"?>
<!DOCTYPE svg PUBLIC "-//W3C//DTD SVG 1.1//EN" "http://www.w3.org/Graphics/SVG/1.1/DTD/svg11-flat.dtd"
[

]>
<svg xmlns="http://www.w3.org/2000/svg"  viewBox="-0.09375 -0.09375 7.6875 7.6875"><g fill="none" stroke="black" stroke-width="0.0125" transform="translate(0,7.5) scale(1, -1)">
<g id="Output" >
<path fill="rgb(241,240,234)" stroke="rgb(241,240,234)" d="M 2,5 l 1,0 0,1 -1,0 0,-1 z "/>
<path fill="rgb(241,240,234)" stroke="rgb(241,240,234)" d="M 2,6 l 1,0 0,1 -1,0 0,-1 z "/>
<path fill="rgb(241,240,234)" stroke="rgb(241,240,234)" d="M 2,7.06267 l 0,-0.0626661 1,0 0,0.421121 -0.220571,-0.0488995 -0.312004,-0.0983745 -0.302243,-0.125193 -0.165182,-0.0859881 z "/>
<path fill="rgb(241,240,234)" stroke="rgb(241,240,234)" d="M 3.05045,1 l -0.0504489,-0.0890301 0,-0.832091 0.0988193,-0.0219077 0.324347,-0.042701 0.326834,-0.0142699 0.25,0.0109152 0,0.989085 -0.949551,0 z "/>
<path fill="rgb(241,240,234)" stroke="rgb(241,240,234)" d="M 3.6171,2 l -0.56665,-1 0.949551,0 0,1 -0.382901,0 z M 3,1.51715 l 0.273604,0.482846 -0.273604,0 0,-0.482846 z "/>
<path fill="rgb(241,240,234)" stroke="rgb(241,240,234)" d="M 4,1 l 0,-0.989085 0.076834,0.00335465 0.324347,0.042701 0.319391,0.0708072 0.279429,0.0881035 0,0.784118 -1,0 z "/>
<path fill="rgb(241,240,234)" stroke="rgb(241,240,234)" d="M 4,2.67573 l -0.382901,-0.675729 0.382901,0 0,0.675729 z M 3.49676,3 l -0.49676,-0.876661 0,-0.123339 0.273604,0 0.56665,1 -0.343494,0 z M 3,2.72952 l 0.153266,0.270477 -0.153266,0 0,-0.270477 z "/>
<path fill="rgb(241,240,234)" stroke="rgb(241,240,234)" d="M 4,3.8881 l -0.50324,-0.888097 0.343494,0 0.159746,0.281913 0,0.606184 z M 3.37642,4 l -0.376421,-0.664292 0,-0.335708 0.153266,0 0.56665,1 -0.343494,0 z M 3,3.94189 l 0.0329269,0.058108 -0.0329269,0 0,-0.058108 z "/>
<path fill="rgb(241,240,234)" stroke="rgb(241,240,234)" d="M 1,6 l 1,0 0,1 -0.120381,0 -0.00461945,-0.00240474 -0.275912,-0.175775 -0.259542,-0.199154 -0.241197,-0.221016 -0.0983496,-0.10733 0,-0.294321 z "/>
<path fill="rgb(241,240,234)" stroke="rgb(241,240,234)" d="M 4,1 l 1,0 0,1 -1,0 0,-1 z "/>
<path fill="rgb(241,240,234)" stroke="rgb(241,240,234)" d="M 4,2.67573 l 0,-0.675729 1,0 0,1 -0.816252,0 -0.183748,-0.324271 z "/>
<path fill="rgb(241,240,234)" stroke="rgb(241,240,234)" d="M 4.7504,4 l -0.56665,-1 0.816252,0 0,1 -0.249602,0 z M 4,3.8881 l 0,-0.606184 0.406904,0.718087 -0.343494,0 -0.0634095,-0.111903 z "/>
<path fill="rgb(241,240,234)" stroke="rgb(241,240,234)" d="M 5,4.44049 l -0.249602,-0.440487 0.249602,0 0,0.440487 z M 4.63006,5 l -0.56665,-1 0.343494,0 0.56665,1 -0.343494,0 z M 4,4.49428 l 0.286565,0.505718 -0.286565,0 0,-0.505718 z "/>
<path fill="rgb(241,240,234)" stroke="rgb(241,240,234)" d="M 1,5 l 1,0 0,1 -1,0 0,-1 z "/>
<path fill="rgb(241,240,234)" stroke="rgb(241,240,234)" d="M 0.0788786,3 l 0.921121,0 0,1 -0.989085,0 -0.0109152,-0.25 0.0142699,-0.326834 0.042701,-0.324347 0.0219077,-0.0988193 z "/>
<path fill="rgb(241,240,234)" stroke="rgb(241,240,234)" d="M 0.437334,2 l 0.562666,0 0,1 -0.921121,0 0.0488995,-0.220571 0.0983745,-0.312004 0.125193,-0.302243 0.0859881,-0.165182 z "/>
<path fill="rgb(241,240,234)" stroke="rgb(241,240,234)" d="M 1,4 l 1,0 0,1 -1,0 0,-1 z "/>
<path fill="rgb(241,240,234)" stroke="rgb(241,240,234)" d="M 1,3 l 1,0 0,1 -1,0 0,-1 z "/>
<path fill="rgb(241,240,234)" stroke="rgb(241,240,234)" d="M 1,1.20568 l 0,0.794321 -0.562666,0 0.0650709,-0.125 0.175775,-0.275912 0.199154,-0.259542 0.122667,-0.133867 z "/>
<path fill="rgb(241,240,234)" stroke="rgb(241,240,234)" d="M 2.70695,1 l -0.343494,0 -0.23206,-0.409531 -0.0880366,0.0466716 -0.0433634,0.0245719 0,-0.224379 0.165182,-0.0859881 0.302243,-0.125193 0.312004,-0.0983745 0.220571,-0.0488995 0,0.832091 -0.310937,-0.548729 -0.0960294,0.0315816 -0.0950913,0.034303 -0.094076,0.0369966 0.303088,0.534878 z M 2,0.964764 l 0.0199662,0.0352355 -0.0199662,0 0,-0.0352355 z "/>
<path fill="rgb(241,240,234)" stroke="rgb(241,240,234)" d="M 5,3 l 1,0 0,1 -1,0 0,-1 z "/>
<path fill="rgb(241,240,234)" stroke="rgb(241,240,234)" d="M 1.89963,2 l 0.100373,0.177133 0,0.822867 -1,0 0,-1 0.899627,0 z "/>
<path fill="rgb(241,240,234)" stroke="rgb(241,240,234)" d="M 2.93011,2 l -0.56665,-1 0.343494,0 0.293045,0.517154 0,0.482846 -0.0698899,0 z M 2,1.57095 l 0,-0.570949 0.0199662,0 0.56665,1 -0.343494,0 -0.243122,-0.429051 z "/>
<path fill="rgb(241,240,234)" stroke="rgb(241,240,234)" d="M 3,2.12334 l -0.0698899,-0.123339 0.0698899,0 0,0.123339 z M 2.80977,3 l -0.56665,-1 0.343494,0 0.413384,0.729523 0,0.270477 -0.190229,0 z M 2,2.17713 l 0.466277,0.822867 -0.466277,0 0,-0.822867 z "/>
<path fill="rgb(241,240,234)" stroke="rgb(241,240,234)" d="M 3,3.33571 l -0.190229,-0.335708 0.190229,0 0,0.335708 z M 2.46628,3 l 0.533723,0.941892 0,0.058108 -1,0 0,-1 0.466277,0 z "/>
<path fill="rgb(241,240,234)" stroke="rgb(241,240,234)" d="M 1.67647,1 l 0.323528,0 0,0.570949 -0.323528,-0.570949 z M 1.20568,1 l 0.299895,0 -0.0401089,0.0327584 -0.0764417,0.0661491 0.510604,0.901092 -0.899627,0 0,-0.794321 0.0983496,-0.10733 0.10733,-0.0983496 z "/>
<path fill="rgb(241,240,234)" stroke="rgb(241,240,234)" d="M 1.50557,1 l -0.299895,0 0.133867,-0.122667 0.259542,-0.199154 0.275912,-0.175775 0.125,-0.0650709 0,0.224379 -0.0433286,0.0245522 -0.0852792,0.0515377 0.128608,0.226962 0,0.0352355 -0.323528,0 -0.0526293,-0.092878 -0.0800831,0.0616906 -0.0381853,0.0311874 z "/>
<path fill="rgb(241,240,234)" stroke="rgb(241,240,234)" d="M 3.94307,5 l -0.56665,-1 0.343494,0 0.280085,0.494282 0,0.505718 -0.0569292,0 z M 3.03293,4 l 0.56665,1 -0.599577,0 0,-1 0.0329269,0 z "/>
<path fill="rgb(241,240,234)" stroke="rgb(241,240,234)" d="M 5,6.86523 l -0.49028,-0.865225 0.343494,0 0.146785,0.259041 0,0.606184 z M 4.16623,6 l 0.56665,1 -0.732876,0 0,-1 0.166226,0 z "/>
<path fill="rgb(241,240,234)" stroke="rgb(241,240,234)" d="M 4,7.48908 l 0,-0.489085 0.732876,0 0.0780612,0.137759 0.0960294,-0.0315816 0.0930334,-0.0335607 0,0.211501 -0.279429,0.0881035 -0.319391,0.0708072 -0.324347,0.042701 -0.076834,0.00335465 z "/>
<path fill="rgb(241,240,234)" stroke="rgb(241,240,234)" d="M 5,1 l 0,-0.784118 0.0325755,0.010271 0.302243,0.125193 0.290182,0.151059 0.275912,0.175775 0.0990884,0.0760332 0,0.245787 -1,0 z "/>
<path fill="rgb(241,240,234)" stroke="rgb(241,240,234)" d="M 4,5.10047 l -0.0569292,-0.100466 0.0569292,0 0,0.100466 z M 3.59958,5 l 0.400423,0.706651 0,0.293349 -1,0 0,-1 0.599577,0 z "/>
<path fill="rgb(241,240,234)" stroke="rgb(241,240,234)" d="M 5,1 l 1,0 0,1 -1,0 0,-1 z "/>
<path fill="rgb(241,240,234)" stroke="rgb(241,240,234)" d="M 5,2 l 1,0 0,1 -1,0 0,-1 z "/>
<path fill="rgb(241,240,234)" stroke="rgb(241,240,234)" d="M 0.754213,6 l 0.245787,0 0,0.294321 -0.122667,-0.133867 -0.12312,-0.160454 z "/>
<path fill="rgb(241,240,234)" stroke="rgb(241,240,234)" d="M 5,4.44049 l 0,-0.440487 1,0 0,1 -0.682952,0 -0.317048,-0.559513 z "/>
<path fill="rgb(241,240,234)" stroke="rgb(241,240,234)" d="M 3,6 l 1,0 0,1 -1,0 0,-1 z "/>
<path fill="rgb(241,240,234)" stroke="rgb(241,240,234)" d="M 0.215882,5 l 0.784118,0 0,1 -0.245787,0 -0.0760332,-0.0990884 -0.175775,-0.275912 -0.151059,-0.290182 -0.125193,-0.302243 -0.010271,-0.0325755 z "/>
<path fill="rgb(241,240,234)" stroke="rgb(241,240,234)" d="M 5.8837,6 l -0.56665,-1 0.682952,0 0,1 -0.116303,0 z M 5,5.65286 l 0,-0.606184 0.540203,0.953328 -0.343494,0 -0.196709,-0.347144 z "/>
<path fill="rgb(241,240,234)" stroke="rgb(241,240,234)" d="M 6,6.20525 l -0.116303,-0.205246 0.116303,0 0,0.205246 z M 5.62038,7 l -0.54401,0 -0.0763702,-0.134775 0,-0.606184 0.3686,0.65049 0.0880366,-0.0466716 0.086692,-0.049124 0.0852792,-0.0515377 -0.431899,-0.762197 0.343494,0 0.335954,0.592878 0.0800831,-0.0616906 0.0437596,-0.0357401 0,0.25034 -0.0990884,0.0760332 -0.275912,0.175775 -0.00461945,0.00240474 z "/>
<path fill="rgb(241,240,234)" stroke="rgb(241,240,234)" d="M 0.0109152,4 l 0.989085,0 0,1 -0.784118,0 -0.0881035,-0.279429 -0.0708072,-0.319391 -0.042701,-0.324347 -0.00335465,-0.076834 z "/>
<path fill="rgb(241,240,234)" stroke="rgb(241,240,234)" d="M 5.62038,7 l -0.285562,0.148654 -0.302243,0.125193 -0.0325755,0.010271 0,-0.211501 0.00205783,-0.000742335 0.094076,-0.0369966 -0.0197636,-0.034878 0.54401,0 z "/>
<path fill="rgb(241,240,234)" stroke="rgb(241,240,234)" d="M 6,1 l 0,-0.245787 0.160454,0.12312 0.133867,0.122667 -0.294321,0 z "/>
<path fill="rgb(241,240,234)" stroke="rgb(241,240,234)" d="M 6.29432,1 l 0.10733,0.0983496 0.221016,0.241197 0.199154,0.259542 0.175775,0.275912 0.00240474,0.00461945 0,0.120381 -1,0 0,-1 0.294321,0 z "/>
<path fill="rgb(241,240,234)" stroke="rgb(241,240,234)" d="M 3,7.42112 l 0,-0.421121 1,0 0,0.489085 -0.25,0.0109152 -0.326834,-0.0142699 -0.324347,-0.042701 -0.0988193,-0.0219077 z "/>
<path fill="rgb(241,240,234)" stroke="rgb(241,240,234)" d="M 1.87962,7 l 0.120381,0 0,0.0626661 -0.120381,-0.0626661 z "/>
<path fill="rgb(241,240,234)" stroke="rgb(241,240,234)" d="M 6,2 l 1,0 0,1 -1,0 0,-1 z "/>
<path fill="rgb(241,240,234)" stroke="rgb(241,240,234)" d="M 5,5.65286 l -0.369941,-0.652856 0.343494,0 0.0264465,0.0466718 0,0.606184 z M 4.50972,6 l -0.50972,-0.899534 0,-0.100466 0.286565,0 0.56665,1 -0.343494,0 z M 4,5.70665 l 0.166226,0.293349 -0.166226,0 0,-0.293349 z "/>
<path fill="rgb(241,240,234)" stroke="rgb(241,240,234)" d="M 6,3 l 1,0 0,1 -1,0 0,-1 z "/>
<path fill="rgb(241,240,234)" stroke="rgb(241,240,234)" d="M 6,4 l 1,0 0,1 -1,0 0,-1 z "/>
<path fill="rgb(241,240,234)" stroke="rgb(241,240,234)" d="M 6.74579,6 l -0.745787,0 0,-1 1,0 0,0.620381 -0.00240474,0.00461945 -0.175775,0.275912 -0.0760332,0.0990884 z "/>
<path fill="rgb(241,240,234)" stroke="rgb(241,240,234)" d="M 6.74579,6 l -0.12312,0.160454 -0.221016,0.241197 -0.241197,0.221016 -0.160454,0.12312 0,-0.25034 0.0345346,-0.0282057 0.0764417,-0.0661491 -0.110976,-0.195846 0,-0.205246 0.745787,0 z "/>
<path fill="rgb(241,240,234)" stroke="rgb(241,240,234)" d="M 7,2 l 0,-0.120381 0.0626661,0.120381 -0.0626661,0 z "/>
<path fill="rgb(241,240,234)" stroke="rgb(241,240,234)" d="M 2,4 l 1,0 0,1 -1,0 0,-1 z "/>
<path fill="rgb(241,240,234)" stroke="rgb(241,240,234)" d="M 7.06267,2 l 0.0859881,0.165182 0.125193,0.302243 0.0983745,0.312004 0.0488995,0.220571 -0.421121,0 0,-1 0.0626661,0 z "/>
<path fill="rgb(241,240,234)" stroke="rgb(241,240,234)" d="M 7.42112,3 l 0.0219077,0.0988193 0.042701,0.324347 0.0142699,0.326834 -0.0109152,0.25 -0.489085,0 0,-1 0.421121,0 z "/>
<path fill="rgb(241,240,234)" stroke="rgb(241,240,234)" d="M 7.48908,4 l -0.00335465,0.076834 -0.042701,0.324347 -0.0708072,0.319391 -0.0881035,0.279429 -0.284118,0 0,-1 0.489085,0 z "/>
<path fill="rgb(241,240,234)" stroke="rgb(241,240,234)" d="M 7,5 l 0.284118,0 -0.010271,0.0325755 -0.125193,0.302243 -0.148654,0.285562 0,-0.620381 z "/>
<path fill="rgb(42,41,42)" stroke="rgb(42,41,42)" d="M 2.68906,0.362241 l 3.42191,6.03885 -0.0764417,0.0661491 -0.0782942,0.0639458 -0.0800831,0.0616906 -3.47229,-6.12776 0.094076,-0.0369966 0.0950913,-0.034303 0.0960294,-0.0315816 z "/>
<path fill="rgb(42,41,42)" stroke="rgb(42,41,42)" d="M 5.3686,6.90953 l -3.49721,-6.17173 0.0852792,-0.0515377 0.086692,-0.049124 0.0880366,-0.0466716 3.49721,6.17173 -0.0852792,0.0515377 -0.086692,0.049124 -0.0880366,0.0466716 z "/>
<path fill="rgb(42,41,42)" stroke="rgb(42,41,42)" d="M 1.62384,0.907122 l 3.47229,6.12776 -0.094076,0.0369966 -0.0950913,0.034303 -0.0960294,0.0315816 -3.42191,-6.03885 0.0764417,-0.0661491 0.0782942,-0.0639458 0.0800831,-0.0616906 z "/>
</g></g></svg>
