<?xml version="1.0" encoding="UTF-8" standalone="no"?>
<!DOCTYPE svg PUBLIC "-//W3C//DTD SVG 1.1//EN" "http://www.w3.org/Graphics/SVG/1.1/DTD/svg11-flat.dtd"
[

]>
<svg xmlns="http://www.w3.org/2000/svg"  viewBox="-0.09375 -0.09375 7.6875 7.6875"><g fill="none" stroke="black" stroke-width="0.0125" transform="translate(0,7.5) scale(1, -1)">
<g id="Output" >
<path fill="rgb(241,240,234)" stroke="rgb(241,240,234)" d="M 0.4,3.75 l -0.2,-8.88178e-16 4.44089e-16,-3.05 0.00190265,-0.0435779 0.00569347,-0.0432462 0.00944096,-0.0425854 0.0131166,-0.0416005 0.0166924,-0.0402991 0.0201412,-0.0386909 0.0234367,-0.0367882 0.0265538,-0.0346056 0.0294688,-0.0321596 0.0321596,-0.0294688 0.0346056,-0.0265538 0.0367882,-0.0234367 0.0386909,-0.0201412 0.0402991,-0.0166924 0.0416005,-0.0131166 0.0425854,-0.00944096 0.0432462,-0.00569347 0.0435779,-0.00190265 6.1,0 0.0435779,0.00190265 0.0432462,0.00569347 0.0425854,0.00944096 0.0416005,0.0131166 0.0402991,0.0166924 0.0386909,0.0201412 0.0367882,0.0234367 0.0346056,0.0265538 0.0321596,0.0294688 0.0294688,0.0321596 0.0265538,0.0346056 0.0234367,0.0367882 0.0201412,0.0386909 0.0166924,0.0402991 0.0131166,0.0416005 0.00944096,0.0425854 0.00569347,0.0432462 0.00190265,0.0435779 0,3.05 -0.2,4.44089e-16 0,-3.05 -0.00114159,-0.0261467 -0.00341608,-0.0259477 -0.00566458,-0.0255513 -0.00786996,-0.0249603 -0.0100155,-0.0241794 -0.0120847,-0.0232145 -0.014062,-0.0220729 -0.0159323,-0.0207634 -0.0176813,-0.0192958 -0.0192958,-0.0176813 -0.0207634,-0.0159323 -0.0220729,-0.014062 -0.0232145,-0.0120847 -0.0241794,-0.0100155 -0.0249603,-0.00786996 -0.0255513,-0.00566458 -0.0259477,-0.00341608 -0.0261467,-0.00114159 -6.1,0 -0.0261467,0.00114159 -0.0259477,0.00341608 -0.0255513,0.00566458 -0.0249603,0.00786996 -0.0241794,0.0100155 -0.0232145,0.0120847 -0.0220729,0.014062 -0.0207634,0.0159323 -0.0192958,0.0176813 -0.0176813,0.0192958 -0.0159323,0.0207634 -0.014062,0.0220729 -0.0120847,0.0232145 -0.0100155,0.0241794 -0.00786996,0.0249603 -0.00566458,0.0255513 -0.00341608,0.0259477 -0.00114159,0.0261467 -4.44089e-16,3.05 z "/>
<path fill="rgb(241,240,234)" stroke="rgb(241,240,234)" d="M 0.2,3.75 l 0.2,8.88178e-16 -4.44089e-16,3.05 0.00114159,0.0261467 0.00341608,0.0259477 0.00566458,0.0255513 0.00786996,0.0249603 0.0100155,0.0241794 0.0120847,0.0232145 0.014062,0.0220729 0.0159323,0.0207634 0.0176813,0.0192958 0.0192958,0.0176813 0.0207634,0.0159323 0.0220729,0.014062 0.0232145,0.0120847 0.0241794,0.0100155 0.0249603,0.00786996 0.0255513,0.00566458 0.0259477,0.00341608 0.0261467,0.00114159 6.1,8.88178e-16 0.0261467,-0.00114159 0.0259477,-0.00341608 0.0255513,-0.00566458 0.0249603,-0.00786996 0.0241794,-0.0100155 0.0232145,-0.0120847 0.0220729,-0.014062 0.0207634,-0.0159323 0.0192958,-0.0176813 0.0176813,-0.0192958 0.0159323,-0.0207634 0.014062,-0.0220729 0.0120847,-0.0232145 0.0100155,-0.0241794 0.00786996,-0.0249603 0.00566458,-0.0255513 0.00341608,-0.0259477 0.00114159,-0.0261467 1.77636e-15,-3.05 0.2,-4.44089e-16 -8.88178e-16,3.05 -0.00190265,0.0435779 -0.00569347,0.0432462 -0.00944096,0.0425854 -0.0131166,0.0416005 -0.0166924,0.0402991 -0.0201412,0.0386909 -0.0234367,0.0367882 -0.0265538,0.0346056 -0.0294688,0.0321596 -0.0321596,0.0294688 -0.0346056,0.0265538 -0.0367882,0.0234367 -0.0386909,0.0201412 -0.0402991,0.0166924 -0.0416005,0.0131166 -0.0425854,0.00944096 -0.0432462,0.00569347 -0.0435779,0.00190265 -6.1,-8.88178e-16 -0.0435779,-0.00190265 -0.0432462,-0.00569347 -0.0425854,-0.00944096 -0.0416005,-0.0131166 -0.0402991,-0.0166924 -0.0386909,-0.0201412 -0.0367882,-0.0234367 -0.0346056,-0.0265538 -0.0321596,-0.0294688 -0.0294688,-0.0321596 -0.0265538,-0.0346056 -0.0234367,-0.0367882 -0.0201412,-0.0386909 -0.0166924,-0.0402991 -0.0131166,-0.0416005 -0.00944096,-0.0425854 -0.00569347,-0.0432462 -0.00190265,-0.0435779 4.44089e-16,-3.05 z "/>
<path fill="rgb(0,91,140)" stroke="rgb(0,91,140)" d="M 0.4,3.75 l 6.7,-4.44089e-16 -1.77636e-15,3.05 -0.00114159,0.0261467 -0.00341608,0.0259477 -0.00566458,0.0255513 -0.00786996,0.0249603 -0.0100155,0.0241794 -0.0120847,0.0232145 -0.014062,0.0220729 -0.0159323,0.0207634 -0.0176813,0.0192958 -0.0192958,0.0176813 -0.0207634,0.0159323 -0.0220729,0.014062 -0.0232145,0.0120847 -0.0241794,0.0100155 -0.0249603,0.00786996 -0.0255513,0.00566458 -0.0259477,0.00341608 -0.0261467,0.00114159 -6.1,-8.88178e-16 -0.0261467,-0.00114159 -0.0259477,-0.00341608 -0.0255513,-0.00566458 -0.0249603,-0.00786996 -0.0241794,-0.0100155 -0.0232145,-0.0120847 -0.0220729,-0.014062 -0.0207634,-0.0159323 -0.0192958,-0.0176813 -0.0176813,-0.0192958 -0.0159323,-0.0207634 -0.014062,-0.0220729 -0.0120847,-0.0232145 -0.0100155,-0.0241794 -0.00786996,-0.0249603 -0.00566458,-0.0255513 -0.00341608,-0.0259477 -0.00114159,-0.0261467 4.44089e-16,-3.05 z "/>
<path fill="rgb(0,91,140)" stroke="rgb(0,91,140)" d="M 0.4,3.75 l 4.44089e-16,-3.05 0.00114159,-0.0261467 0.00341608,-0.0259477 0.00566458,-0.0255513 0.00786996,-0.0249603 0.0100155,-0.0241794 0.0120847,-0.0232145 0.014062,-0.0220729 0.0159323,-0.0207634 0.0176813,-0.0192958 0.0192958,-0.0176813 0.0207634,-0.0159323 0.0220729,-0.014062 0.0232145,-0.0120847 0.0241794,-0.0100155 0.0249603,-0.00786996 0.0255513,-0.00566458 0.0259477,-0.00341608 0.0261467,-0.00114159 6.1,0 0.0261467,0.00114159 0.0259477,0.00341608 0.0255513,0.00566458 0.0249603,0.00786996 0.0241794,0.0100155 0.0232145,0.0120847 0.0220729,0.014062 0.0207634,0.0159323 0.0192958,0.0176813 0.0176813,0.0192958 0.0159323,0.0207634 0.014062,0.0220729 0.0120847,0.0232145 0.0100155,0.0241794 0.00786996,0.0249603 0.00566458,0.0255513 0.00341608,0.0259477 0.00114159,0.0261467 0,3.05 -6.7,4.44089e-16 z "/>
<path fill="rgb(0,91,140)" stroke="rgb(0,91,140)" d="M 0.2,3.75 l -0.2,0 4.44089e-16,-3.05 0.00266371,-0.061009 0.00797086,-0.0605447 0.0132173,-0.0596196 0.0183632,-0.0582408 0.0233694,-0.0564187 0.0281977,-0.0541672 0.0328114,-0.0515035 0.0371753,-0.0484478 0.0412564,-0.0450234 0.0450234,-0.0412564 0.0484478,-0.0371753 0.0515035,-0.0328114 0.0541672,-0.0281977 0.0564187,-0.0233694 0.0582408,-0.0183632 0.0596196,-0.0132173 0.0605447,-0.00797086 0.061009,-0.00266371 6.1,-8.88178e-16 0.061009,0.00266371 0.0605447,0.00797086 0.0596196,0.0132173 0.0582408,0.0183632 0.0564187,0.0233694 0.0541672,0.0281977 0.0515035,0.0328114 0.0484478,0.0371753 0.0450234,0.0412564 0.0412564,0.0450234 0.0371753,0.0484478 0.0328114,0.0515035 0.0281977,0.0541672 0.0233694,0.0564187 0.0183632,0.0582408 0.0132173,0.0596196 0.00797086,0.0605447 0.00266371,0.061009 -1.77636e-15,3.05 -0.2,-8.88178e-16 0,-3.05 -0.00190265,-0.0435779 -0.00569347,-0.0432462 -0.00944096,-0.0425854 -0.0131166,-0.0416005 -0.0166924,-0.0402991 -0.0201412,-0.0386909 -0.0234367,-0.0367882 -0.0265538,-0.0346056 -0.0294688,-0.0321596 -0.0321596,-0.0294688 -0.0346056,-0.0265538 -0.0367882,-0.0234367 -0.0386909,-0.0201412 -0.0402991,-0.0166924 -0.0416005,-0.0131166 -0.0425854,-0.00944096 -0.0432462,-0.00569347 -0.0435779,-0.00190265 -6.1,0 -0.0435779,0.00190265 -0.0432462,0.00569347 -0.0425854,0.00944096 -0.0416005,0.0131166 -0.0402991,0.0166924 -0.0386909,0.0201412 -0.0367882,0.0234367 -0.0346056,0.0265538 -0.0321596,0.0294688 -0.0294688,0.0321596 -0.0265538,0.0346056 -0.0234367,0.0367882 -0.0201412,0.0386909 -0.0166924,0.0402991 -0.0131166,0.0416005 -0.00944096,0.0425854 -0.00569347,0.0432462 -0.00190265,0.0435779 -4.44089e-16,3.05 z "/>
<path fill="rgb(0,91,140)" stroke="rgb(0,91,140)" d="M 6.8,7.5 l -6.1,-8.88178e-16 -0.061009,-0.00266371 -0.0605447,-0.00797086 -0.0596196,-0.0132173 -0.0582408,-0.0183632 -0.0564187,-0.0233694 -0.0541672,-0.0281977 -0.0515035,-0.0328114 -0.0484478,-0.0371753 -0.0450234,-0.0412564 -0.0412564,-0.0450234 -0.0371753,-0.0484478 -0.0328114,-0.0515035 -0.0281977,-0.0541672 -0.0233694,-0.0564187 -0.0183632,-0.0582408 -0.0132173,-0.0596196 -0.00797086,-0.0605447 -0.00266371,-0.061009 4.44089e-16,-3.05 0.2,0 -4.44089e-16,3.05 0.00190265,0.0435779 0.00569347,0.0432462 0.00944096,0.0425854 0.0131166,0.0416005 0.0166924,0.0402991 0.0201412,0.0386909 0.0234367,0.0367882 0.0265538,0.0346056 0.0294688,0.0321596 0.0321596,0.0294688 0.0346056,0.0265538 0.0367882,0.0234367 0.0386909,0.0201412 0.0402991,0.0166924 0.0416005,0.0131166 0.0425854,0.00944096 0.0432462,0.00569347 0.0435779,0.00190265 6.1,8.88178e-16 0.0435779,-0.00190265 0.0432462,-0.00569347 0.0425854,-0.00944096 0.0416005,-0.0131166 0.0402991,-0.0166924 0.0386909,-0.0201412 0.0367882,-0.0234367 0.0346056,-0.0265538 0.0321596,-0.0294688 0.0294688,-0.0321596 0.0265538,-0.0346056 0.0234367,-0.0367882 0.0201412,-0.0386909 0.0166924,-0.0402991 0.0131166,-0.0416005 0.00944096,-0.0425854 0.00569347,-0.0432462 0.00190265,-0.0435779 8.88178e-16,-3.05 0.2,8.88178e-16 1.77636e-15,3.05 -0.00266371,0.061009 -0.00797086,0.0605447 -0.0132173,0.0596196 -0.0183632,0.0582408 -0.0233694,0.0564187 -0.0281977,0.0541672 -0.0328114,0.0515035 -0.0371753,0.0484478 -0.0412564,0.0450234 -0.0450234,0.0412564 -0.0484478,0.0371753 -0.0515035,0.0328114 -0.0541672,0.0281977 -0.0564187,0.0233694 -0.0582408,0.0183632 -0.0596196,0.0132173 -0.0605447,0.00797086 -0.061009,0.00266371 z "/>
<path fill="rgb(241,240,234)" stroke="rgb(241,240,234)" d="M 5.29894,6.52618 l -0.0507839,-0.00101568 -0.109693,-0.00710975 -0.105631,-0.0142195 -0.100552,-0.0223449 -0.0954738,-0.0304703 -0.0924267,-0.0375801 -0.0863327,-0.0446898 -0.0832856,-0.0528153 -0.0782072,-0.059925 -0.0731288,-0.0680504 -0.0690661,-0.0751602 -0.0650034,-0.0822699 -0.0192979,-0.028439 1.02888,-0.0365644 0.0385958,0 0.105631,-0.0121881 0.0985208,-0.025392 0.0893797,-0.0396115 0.0822699,-0.0538309 0.0741445,-0.0670348 0.0660191,-0.0812543 0.0396115,-0.0609407 0.0416428,-0.0812543 0.0355487,-0.088364 0.0294547,-0.0954738 0.0223449,-0.102584 0.0162509,-0.110709 0.0091411,-0.116803 0.00406271,-0.120866 -0.00304703,-0.0985208 -0.00812543,-0.115787 -0.0162509,-0.109693 -0.0213292,-0.102584 -0.028439,-0.0975051 -0.0355487,-0.091411 -0.0416428,-0.085317 -0.0477369,-0.0792229 -0.025392,-0.0345331 -0.0680504,-0.0792229 -0.0761759,-0.0650034 -0.0843013,-0.0507839 -0.091411,-0.0355487 -0.0985208,-0.0213292 -0.106646,-0.00710975 1.02888,-0.0233606 0.0497682,0.0822699 0.0457055,0.085317 0.0406271,0.0893797 0.0355487,0.0924267 0.0304703,0.0964894 0.0264076,0.100552 0.0213292,0.103599 0.0162509,0.107662 0.0121881,0.110709 0.00710975,0.114772 0.00203136,0.118834 0,0.0172665 -0.00304703,0.117819 -0.00812543,0.11274 -0.0132038,0.109693 -0.0182822,0.106646 -0.0223449,0.102584 -0.028439,0.0995365 -0.0325017,0.0954738 -0.0375801,0.091411 -0.0436742,0.088364 -0.0477369,0.0843013 -0.0517996,0.0812543 -0.0335174,0.0457055 -0.0650034,0.0792229 -0.0700818,0.0721132 -0.0751602,0.0650034 -0.0792229,0.056878 -0.0843013,0.0487526 -0.088364,0.0416428 -0.0934424,0.0345331 -0.0985208,0.0264076 -0.102584,0.0192979 -0.107662,0.0111725 -0.111725,0.00406271 z "/>
<path fill="rgb(241,240,234)" stroke="rgb(241,240,234)" d="M 4.27006,6.00209 l -0.0517996,-0.0802386 -0.0467212,-0.085317 -0.0416428,-0.088364 -0.0365644,-0.0924267 -0.0325017,-0.0954738 -0.0264076,-0.0995365 -0.0223449,-0.103599 -0.0172665,-0.107662 -0.0121881,-0.110709 -0.00710975,-0.114772 -0.00304703,-0.118834 0,-0.0446898 0.00507839,-0.116803 0.0091411,-0.113756 0.0132038,-0.109693 0.0192979,-0.105631 0.0233606,-0.102584 0.028439,-0.0985208 0.0325017,-0.0944581 0.0385958,-0.091411 0.0426585,-0.0873483 0.0477369,-0.0843013 0.0517996,-0.0802386 0.0355487,-0.0477369 0.0660191,-0.0792229 0.0710975,-0.0721132 0.0751602,-0.0639877 0.0792229,-0.056878 0.0843013,-0.0487526 0.0893797,-0.0416428 0.0934424,-0.0345331 0.0985208,-0.0264076 0.102584,-0.0182822 0.106646,-0.0121881 0.11274,-0.00304703 0.0751602,0.00101568 0.108678,0.0091411 0.103599,0.0162509 0.0995365,0.0243763 0.0944581,0.0325017 0.0903954,0.0385958 0.085317,0.0477369 0.0802386,0.0538309 0.0761759,0.0629721 0.0710975,0.0690661 0.0670348,0.0782072 0.0619564,0.085317 0.0152352,0.0223449 -1.02888,0.0233606 -0.0436742,0.00101568 -0.106646,0.0121881 -0.0975051,0.025392 -0.0903954,0.0396115 -0.0822699,0.0538309 -0.0741445,0.0670348 -0.0650034,0.0812543 -0.0477369,0.0741445 -0.0406271,0.0822699 -0.0345331,0.088364 -0.028439,0.0964894 -0.0223449,0.103599 -0.0162509,0.110709 -0.0091411,0.117819 -0.00304703,0.124928 0.00304703,0.113756 0.0101568,0.111725 0.0172665,0.106646 0.0243763,0.100552 0.031486,0.0954738 0.0375801,0.0903954 0.0457055,0.0843013 0.00710975,0.0111725 0.0619564,0.0893797 0.0690661,0.0761759 0.0771915,0.0619564 0.0832856,0.0477369 0.0903954,0.0345331 0.0985208,0.0213292 0.104615,0.00609407 -1.02888,0.0365644 z "/>
<path fill="rgb(241,240,234)" stroke="rgb(241,240,234)" d="M 2.00916,6.52618 l -0.102584,-0.00304703 -0.113756,-0.0091411 -0.107662,-0.0162509 -0.103599,-0.0223449 -0.0975051,-0.0294547 -0.0934424,-0.0365644 -0.088364,-0.0426585 -0.0822699,-0.0497682 -0.0782072,-0.056878 -0.0639877,-0.0548466 -0.0721132,-0.0751602 -0.0609407,-0.0812543 -0.0497682,-0.085317 -0.0385958,-0.091411 -0.0274233,-0.0964894 -0.0172665,-0.101568 -0.00507839,-0.107662 0.00203136,-0.0690661 0.0132038,-0.100552 0.025392,-0.0964894 0.0355487,-0.091411 0.0477369,-0.088364 0.0589093,-0.0832856 0.0700818,-0.0792229 0.0822699,-0.0751602 0.0528153,-0.0416428 0.0812543,-0.0538309 0.0863327,-0.0467212 1.3346,-0.0233606 -0.0477369,-0.0995365 -0.0538309,-0.0964894 -0.0578937,-0.0893797 -0.0629721,-0.0843013 -0.0680504,-0.0771915 -0.0710975,-0.0710975 -0.0771915,-0.0650034 -0.0812543,-0.0578937 -0.085317,-0.0528153 -0.0558623,-0.0294547 -0.088364,-0.0396115 -0.0924267,-0.0335174 -0.0985208,-0.0274233 -0.102584,-0.0213292 -0.107662,-0.0152352 -0.11274,-0.0091411 -0.117819,-0.00304703 -0.0589093,0 0,-0.573858 0.0832856,0.00101568 0.113756,0.00507839 0.111725,0.0101568 0.107662,0.0132038 0.105631,0.0192979 0.102584,0.0223449 0.0995365,0.0274233 0.0975051,0.031486 0.0934424,0.0355487 0.0903954,0.0406271 0.088364,0.0446898 0.085317,0.0487526 0.0822699,0.0538309 0.0467212,0.0335174 0.0843013,0.0650034 0.0792229,0.0670348 0.0751602,0.0700818 0.0690661,0.0731288 0.0650034,0.0751602 0.059925,0.0792229 0.0558623,0.0812543 0.0507839,0.0832856 0.0446898,0.0863327 0.0416428,0.0893797 0.0355487,0.0924267 0.031486,0.0944581 0.0264076,0.0975051 0.0213292,0.100552 0.0172665,0.102584 0.0121881,0.105631 0.00710975,0.108678 -1.30108,0.0375801 -0.0964894,0.00304703 -0.110709,0.0132038 -0.101568,0.0223449 -0.0934424,0.0335174 -0.0843013,0.0426585 -0.0487526,0.0325017 -0.0741445,0.0731288 -0.0457055,0.0843013 -0.0142195,0.0944581 0.00406271,0.0548466 0.0294547,0.091411 0.0589093,0.0802386 0.0863327,0.0670348 0.0578937,0.031486 0.0873483,0.0325017 0.0995365,0.0233606 0.111725,0.0142195 0.124928,0.00406271 1.12334,0.0213292 -0.0558623,0.0771915 -0.0619564,0.0710975 -0.0690661,0.0650034 -0.0751602,0.0589093 -0.0822699,0.0558623 -0.0863327,0.0497682 -0.0903954,0.0426585 -0.0934424,0.0365644 -0.0985208,0.0294547 -0.102584,0.0233606 -0.105631,0.0162509 -0.110709,0.0101568 -0.113756,0.00304703 z "/>
<path fill="rgb(241,240,234)" stroke="rgb(241,240,234)" d="M 3.15484,5.98686 l -1.12334,-0.0213292 0.0782072,-0.00203136 0.11274,-0.0111725 0.102584,-0.0223449 0.0924267,-0.031486 0.0822699,-0.0426585 0.0507839,-0.0355487 0.0741445,-0.0751602 0.0436742,-0.0843013 0.0152352,-0.0944581 -0.00406271,-0.0457055 -0.028439,-0.0903954 -0.0589093,-0.0792229 -0.088364,-0.0690661 -0.0507839,-0.028439 -0.0903954,-0.0375801 -0.0995365,-0.0274233 -0.106646,-0.0162509 -0.115787,-0.00507839 1.30108,-0.0375801 0.00203136,0.110709 0,0.0416428 -0.00609407,0.117819 -0.0132038,0.11274 -0.0192979,0.106646 -0.0274233,0.101568 -0.0345331,0.0944581 -0.0406271,0.088364 -0.0477369,0.0832856 z "/>
<path fill="rgb(241,240,234)" stroke="rgb(241,240,234)" d="M 1.36217,4.74062 l 0.0903954,-0.0396115 0.0964894,-0.0325017 0.101568,-0.0243763 0.106646,-0.0182822 0.111725,-0.0111725 0.116803,-0.00304703 0.0893797,0.00101568 0.108678,0.00609407 0.105631,0.0111725 0.104615,0.0142195 0.102584,0.0203136 0.101568,0.0243763 0.0985208,0.028439 -1.3346,0.0233606 z "/>
<path fill="rgb(241,240,234)" stroke="rgb(241,240,234)" d="M 5.79357,2.47464 l -0.269155,-0.0985208 0,-1.425 0.269155,0 0,0.642924 0.00101568,0.0304703 0.0172665,0.0782072 0.0396115,0.0558623 0.059925,0.0335174 0.0812543,0.0111725 0.430648,0.0294547 -0.0365644,0.0721132 -0.593156,0.0629721 0,0.506823 z "/>
<path fill="rgb(241,240,234)" stroke="rgb(241,240,234)" d="M 6.04749,2.07243 l -0.0446898,-0.00203136 -0.085317,-0.0162509 -0.0690661,-0.0345331 -0.0548466,-0.0517996 0.593156,-0.0629721 -0.0538309,0.0629721 -0.0467212,0.0375801 -0.0710975,0.0375801 -0.0792229,0.0223449 -0.088364,0.00710975 z "/>
<path fill="rgb(241,240,234)" stroke="rgb(241,240,234)" d="M 6.42329,1.83273 l -0.430648,-0.0294547 0.0761759,-0.0132038 0.0680504,-0.0457055 0.0426585,-0.0609407 0.0162509,-0.0812543 0,-0.65105 0.248841,0 0,0.751602 -0.00304703,0.0497682 -0.0182822,0.0802386 z "/>
<path fill="rgb(241,240,234)" stroke="rgb(241,240,234)" d="M 5.21667,2.45128 l -0.9588,-1.80689 -0.269155,0 0.959816,1.80689 0.268139,0 z "/>
<path fill="rgb(241,240,234)" stroke="rgb(241,240,234)" d="M 2.68052,2.07243 l -0.0517996,-0.00304703 -0.0782072,-0.0203136 -0.0721132,-0.0375801 -0.0670348,-0.0548466 0.552529,-0.0152352 -0.0558623,0.0538309 -0.0690661,0.0426585 -0.0751602,0.0264076 -0.0832856,0.00812543 z "/>
<path fill="rgb(241,240,234)" stroke="rgb(241,240,234)" d="M 3.29602,2.07243 l -0.0264076,-0.00101568 -0.0761759,-0.0111725 -0.0761759,-0.0264076 -0.0771915,-0.0385958 -0.0761759,-0.0538309 0.671363,-0.0375801 -0.0548466,0.0639877 -0.0457055,0.0365644 -0.0710975,0.0375801 -0.0792229,0.0233606 -0.088364,0.00710975 z "/>
<path fill="rgb(241,240,234)" stroke="rgb(241,240,234)" d="M 2.41136,2.04603 l -0.269155,0 0,-1.0949 0.269155,0 0,0.65816 0.0101568,0.0690661 0.0396115,0.0710975 0.0477369,0.0365644 0.0812543,0.0172665 0.646987,0 0.43471,0.028439 -0.0365644,0.0721132 -0.671363,0.0375801 -0.552529,0.0152352 0,0.0893797 z "/>
<path fill="rgb(241,240,234)" stroke="rgb(241,240,234)" d="M 3.67182,1.83172 l -0.43471,-0.028439 0.0731288,-0.0111725 0.0650034,-0.0426585 0.0355487,-0.0619564 0.0142195,-0.085317 0,-0.65105 0.269155,0 0,0.751602 -0.00304703,0.0497682 -0.0192979,0.0792229 z "/>
<path fill="rgb(241,240,234)" stroke="rgb(241,240,234)" d="M 3.23711,1.80328 l -0.646987,0 0.0721132,-0.0121881 0.0700818,-0.0446898 0.0416428,-0.059925 0.0152352,-0.0843013 0,-0.65105 0.257982,0 0,0.662222 0.0111725,0.0639877 0.0457055,0.0690661 0.0538309,0.0396115 0.0792229,0.0172665 z "/>
<path fill="rgb(241,240,234)" stroke="rgb(241,240,234)" d="M 1.3449,2.47464 l -0.268139,-0.0985208 0,-1.425 0.268139,0 0,0.318923 0.148289,0.203136 -0.148289,0.19501 0,0.806449 z "/>
<path fill="rgb(241,240,234)" stroke="rgb(241,240,234)" d="M 1.96548,2.03993 l -0.332127,0 -0.288453,-0.371738 0.148289,-0.19501 0.214308,-0.522059 0.269155,0 -0.299625,0.741445 0.288453,0.347362 z "/>
</g></g></svg>
