<?xml version="1.0" encoding="UTF-8" standalone="no"?>
<!DOCTYPE svg PUBLIC "-//W3C//DTD SVG 1.1//EN" "http://www.w3.org/Graphics/SVG/1.1/DTD/svg11-flat.dtd"
[

]>
<svg xmlns="http://www.w3.org/2000/svg"  viewBox="-0.0891147 -0.0891147 7.30741 7.30741"><g fill="none" stroke="black" stroke-width="0.0125" transform="translate(0,7.12918) scale(1, -1)">
<g id="Output" >
<path fill="rgb(241,240,234)" stroke="rgb(241,240,234)" d="M 2.63587,2.1 l 0.00716856,0.00919314 0.0217384,0.0233552 0.0236914,0.0213715 0.0254641,0.0192251 0.0270429,0.0169323 0.0284159,0.0145107 0.0295726,0.0119786 0.0305041,0.00935537 0.0312035,0.00666089 0.0316653,0.0039157 0.0318861,0.00114071 0.0318642,-0.00164296 0.0315997,-0.00441413 0.0310946,-0.0071517 0.0303529,-0.00983482 0.0293802,-0.0124431 0.0281837,-0.0149566 0.0267728,-0.0173563 0.025158,-0.0196239 0.0233518,-0.0217421 0.0213678,-0.0236948 0.00360675,-0.00477879 0.387473,0 0,1 -1,0 0,-1 0.0414416,0 z "/>
<path fill="rgb(241,240,234)" stroke="rgb(241,240,234)" d="M 4.59443,2.1 l 0,-0.137344 0.0212794,-0.0238876 0.0298957,-0.027955 0.0323179,-0.0251156 0.0344713,-0.0220673 0.0363381,-0.0188356 0.0379028,-0.0154473 0.0391523,-0.0119305 0.0400763,-0.00831453 0,-0.31432 -0.271434,0 0,-0.394783 0.940325,4.44089e-16 -0.5,1 -0.440325,0 z "/>
<path fill="rgb(241,240,234)" stroke="rgb(241,240,234)" d="M 2.59443,3.1 l 1,0 0,1 -0.5,0 -0.5,-1 z "/>
<path fill="rgb(241,240,234)" stroke="rgb(241,240,234)" d="M 3.09443,4.1 l 0.5,0 0,0.88065 -0.0298374,0.0596748 -0.470163,-0.940325 z "/>
<path fill="rgb(241,240,234)" stroke="rgb(241,240,234)" d="M 4.49941,2.1 l 0.0071313,-0.00814025 0.0193911,-0.0265103 0.016989,-0.0281102 0.0212286,-0.0349941 0.024328,-0.0329149 0.00594562,-0.00667437 0,0.137344 -0.0950135,0 z M 3.59443,2.1 l 0,-0.276097 0.0294198,0.00363291 0.0293421,0.00625793 0.028685,0.00879135 0.0278097,0.0112579 0.0267227,0.0136387 0.0254324,0.0159158 0.0239485,0.0180717 0.0222824,0.0200901 0.0204467,0.0219557 0.0184554,0.0236541 0.0163236,0.0251725 0.0140677,0.0264994 0.0154101,0.0290058 0.017897,0.027541 0.0192658,0.0246119 -0.335509,0 z M 4.59443,1.1 l 0,0.394783 -1,0 0,-0.394783 1,0 z "/>
<path fill="rgb(241,240,234)" stroke="rgb(241,240,234)" d="M 4.53475,3.1 l -0.940325,0 0,-1 0.335509,0 0.000979836,0.00125173 0.022438,0.0239864 0.024457,0.021924 0.0262873,0.0196924 0.0279145,0.0173087 0.0293262,0.0147913 0.0305115,0.0121597 0.0314612,0.00943425 0.0321679,0.00663593 0.0326263,0.00378638 0.0328327,0.000907585 0.0327856,-0.00197822 0.0324854,-0.00484874 0.0319343,-0.00768183 0.0311366,-0.0104556 0.0300986,-0.0131486 0.0288281,-0.0157401 0.027335,-0.0182101 0.0256308,-0.0205395 0.0237288,-0.0227102 0.0145122,-0.0165654 0.0950135,0 0,0.88065 -0.0596748,0.11935 z "/>
<path fill="rgb(241,240,234)" stroke="rgb(241,240,234)" d="M 4.53475,3.1 l -0.5,1 -0.440325,0 0,-1 0.940325,0 z "/>
<path fill="rgb(241,240,234)" stroke="rgb(241,240,234)" d="M 2.59443,2.03532 l 0,0.0646822 -0.5,0 -0.5,-1 1,-4.44089e-16 0,0.394783 -0.331119,0 0,0.31432 0.0343411,0.00344496 0.0338972,0.00649314 0.0331833,0.00948959 0.032205,0.0124105 0.0309702,0.0152325 0.0294887,0.0179331 0.0277723,0.020491 0.0258347,0.0228856 0.0236913,0.0250979 0.0213592,0.0271103 0.0188569,0.0289067 0.0162045,0.0304729 0.00331411,0.00624735 z "/>
<path fill="rgb(241,240,234)" stroke="rgb(241,240,234)" d="M 4.59443,2.1 l 0.440325,0 -0.440325,0.88065 0,-0.88065 z "/>
<path fill="rgb(241,240,234)" stroke="rgb(241,240,234)" d="M 3.59443,4.1 l 0.440325,0 -0.440325,0.88065 0,-0.88065 z "/>
<path fill="rgb(241,240,234)" stroke="rgb(241,240,234)" d="M 2.09443,2.1 l 0.5,0 0,1 -0.5,-1 z "/>
<path fill="rgb(241,240,234)" stroke="rgb(241,240,234)" d="M 3.20695,2.1 l 0.0156143,-0.0206883 0.0169281,-0.0270456 0.0145063,-0.0284182 0.0136402,-0.0267219 0.0159172,-0.0254315 0.0180731,-0.0239475 0.0200914,-0.0222813 0.0219568,-0.0204455 0.0236551,-0.0184541 0.0251734,-0.0163222 0.0265002,-0.0140662 0.0276253,-0.0117031 0.0285401,-0.00925097 0.0292378,-0.00672843 0.0297129,-0.00415468 0.0299619,-0.00154931 0.029983,0.00106785 0.000356045,4.39664e-05 0,0.276097 -0.387473,0 z M 2.59443,2.1 l 0,-0.0646822 0.0116381,0.0219387 0.0173521,0.0267755 0.0124514,0.015968 -0.0414416,0 z M 3.59443,1.1 l 0,0.394783 -1,0 0,-0.394783 0.970163,0 0.0298374,0 z "/>
<path fill="rgb(241,240,234)" stroke="rgb(241,240,234)" d="M 3.56459,0.2 l 3.26459,0 0.00883388,0.000390951 0.00876481,0.0011698 0.0086272,0.0019395 0.00842214,0.00269403 0.00815123,0.0034275 0.00781658,0.00413417 0.00742081,0.00480851 0.00696702,0.00544526 0.00645876,0.00603943 0.00589999,0.00658638 0.00529509,0.00708183 0.00464879,0.0075219 0.00396614,0.00790316 0.00325248,0.00822263 0.00251339,0.0084778 0.00175464,0.00866669 0.000982177,0.00878781 0.000202033,0.00884022 -0.000579691,0.0088235 -0.00135688,0.0087378 -0.00212346,0.00858377 -0.00287344,0.00836263 -0.00360095,0.0080761 -3.26459,6.52918 -0.00412828,0.00744612 -0.0047467,0.00706797 -0.00533072,0.00663859 -0.00587609,0.00616109 -0.00637887,0.00563892 -0.00683541,0.00507588 -0.0072424,0.00447605 -0.0075969,0.00384377 -0.00789632,0.00318363 -0.00813851,0.00250041 -0.00832171,0.00179907 -0.00844458,0.00108468 -0.00850624,0.000362437 0,-0.323607 3.10279,-6.20557 -3.10279,2.66454e-15 0,-0.2 z "/>
<path fill="rgb(241,240,234)" stroke="rgb(241,240,234)" d="M 3.56459,0.2 l 0,0.2 -3.10279,0 3.10279,6.20557 0,0.323607 -0.00850624,-0.000362437 -0.00844458,-0.00108468 -0.00832171,-0.00179907 -0.00813851,-0.00250041 -0.00789632,-0.00318363 -0.0075969,-0.00384377 -0.0072424,-0.00447605 -0.00683541,-0.00507588 -0.00637887,-0.00563892 -0.00587609,-0.00616109 -0.00533072,-0.00663859 -0.0047467,-0.00706797 -0.00412828,-0.00744612 -3.26459,-6.52918 -0.00360095,-0.0080761 -0.00287344,-0.00836263 -0.00212346,-0.00858377 -0.00135688,-0.0087378 -0.000579691,-0.0088235 0.000202033,-0.00884022 0.000982177,-0.00878781 0.00175464,-0.00866669 0.00251339,-0.0084778 0.00325248,-0.00822263 0.00396614,-0.00790316 0.00464879,-0.0075219 0.00529509,-0.00708183 0.00589999,-0.00658638 0.00645876,-0.00603943 0.00696702,-0.00544526 0.00742081,-0.00480851 0.00781658,-0.00413417 0.00815123,-0.0034275 0.00842214,-0.00269403 0.0086272,-0.0019395 0.00876481,-0.0011698 0.00883388,-0.000390951 3.26459,-8.88178e-16 z "/>
<path fill="rgb(42,41,42)" stroke="rgb(42,41,42)" d="M 4.86586,1.49478 l -2.60255,0 0,0.31432 0.0343411,0.00344496 0.0338972,0.00649314 0.0331833,0.00948959 0.032205,0.0124105 0.0309702,0.0152325 0.0294887,0.0179331 0.0277723,0.020491 0.0258347,0.0228856 0.0236913,0.0250979 0.0213592,0.0271103 0.0188569,0.0289067 0.0162045,0.0304729 0.0149522,0.0281861 0.0173521,0.0267755 0.01962,0.0251611 0.0217384,0.0233552 0.0236914,0.0213715 0.0254641,0.0192251 0.0270429,0.0169323 0.0284159,0.0145107 0.0295726,0.0119786 0.0305041,0.00935537 0.0312035,0.00666089 0.0316653,0.0039157 0.0318861,0.00114071 0.0318642,-0.00164296 0.0315997,-0.00441413 0.0310946,-0.0071517 0.0303529,-0.00983482 0.0293802,-0.0124431 0.0281837,-0.0149566 0.0267728,-0.0173563 0.025158,-0.0196239 0.0233518,-0.0217421 0.0213678,-0.0236948 0.0192211,-0.0254671 0.0169281,-0.0270456 0.0145063,-0.0284182 0.0136402,-0.0267219 0.0159172,-0.0254315 0.0180731,-0.0239475 0.0200914,-0.0222813 0.0219568,-0.0204455 0.0236551,-0.0184541 0.0251734,-0.0163222 0.0265002,-0.0140662 0.0276253,-0.0117031 0.0285401,-0.00925097 0.0292378,-0.00672843 0.0297129,-0.00415468 0.0299619,-0.00154931 0.029983,0.00106785 0.0297758,0.00367688 0.0293421,0.00625793 0.028685,0.00879135 0.0278097,0.0112579 0.0267227,0.0136387 0.0254324,0.0159158 0.0239485,0.0180717 0.0222824,0.0200901 0.0204467,0.0219557 0.0184554,0.0236541 0.0163236,0.0251725 0.0140677,0.0264994 0.0154101,0.0290058 0.017897,0.027541 0.0202456,0.0258636 0.022438,0.0239864 0.024457,0.021924 0.0262873,0.0196924 0.0279145,0.0173087 0.0293262,0.0147913 0.0305115,0.0121597 0.0314612,0.00943425 0.0321679,0.00663593 0.0326263,0.00378638 0.0328327,0.000907585 0.0327856,-0.00197822 0.0324854,-0.00484874 0.0319343,-0.00768183 0.0311366,-0.0104556 0.0300986,-0.0131486 0.0288281,-0.0157401 0.027335,-0.0182101 0.0256308,-0.0205395 0.0237288,-0.0227102 0.0216435,-0.0247057 0.0193911,-0.0265103 0.016989,-0.0281102 0.0212286,-0.0349941 0.024328,-0.0329149 0.027225,-0.030562 0.0298957,-0.027955 0.0323179,-0.0251156 0.0344713,-0.0220673 0.0363381,-0.0188356 0.0379028,-0.0154473 0.0391523,-0.0119305 0.0400763,-0.00831453 0,-0.31432 z "/>
<path fill="rgb(187,30,16)" stroke="rgb(187,30,16)" d="M 3.56459,5.04033 l 1.97016,-3.94033 -1.97016,-4.44089e-16 0,-0.7 3.10279,-2.66454e-15 -3.10279,6.20557 0,-1.56525 z "/>
<path fill="rgb(187,30,16)" stroke="rgb(187,30,16)" d="M 3.56459,0.2 l 0,-0.2 3.26459,-1.77636e-15 0.0265016,0.00117285 0.0262944,0.00350939 0.0258816,0.00581849 0.0252664,0.00808209 0.0244537,0.0102825 0.0234497,0.0124025 0.0222624,0.0144255 0.0209011,0.0163358 0.0193763,0.0181183 0.0177,0.0197591 0.0158853,0.0212455 0.0139464,0.0225657 0.0118984,0.0237095 0.00975744,0.0246679 0.00754016,0.0254334 0.00526392,0.0260001 0.00294653,0.0263634 0.000606098,0.0265207 -0.00173907,0.0264705 -0.00407065,0.0262134 -0.00637039,0.0257513 -0.00862033,0.0250879 -0.0108029,0.0242283 -3.26459,6.52918 -0.0123848,0.0223384 -0.0142401,0.0212039 -0.0159921,0.0199158 -0.0176283,0.0184833 -0.0191366,0.0169168 -0.0205062,0.0152277 -0.0217272,0.0134282 -0.0227907,0.0115313 -0.023689,0.00955089 -0.0244155,0.00750124 -0.0249651,0.00539721 -0.0253337,0.00325405 -0.0255187,0.00108731 0,-0.2 0.00850624,-0.000362437 0.00844458,-0.00108468 0.00832171,-0.00179907 0.00813851,-0.00250041 0.00789632,-0.00318363 0.0075969,-0.00384377 0.0072424,-0.00447605 0.00683541,-0.00507588 0.00637887,-0.00563892 0.00587609,-0.00616109 0.00533072,-0.00663859 0.0047467,-0.00706797 0.00412828,-0.00744612 3.26459,-6.52918 0.00360095,-0.0080761 0.00287344,-0.00836263 0.00212346,-0.00858377 0.00135688,-0.0087378 0.000579691,-0.0088235 -0.000202033,-0.00884022 -0.000982177,-0.00878781 -0.00175464,-0.00866669 -0.00251339,-0.0084778 -0.00325248,-0.00822263 -0.00396614,-0.00790316 -0.00464879,-0.0075219 -0.00529509,-0.00708183 -0.00589999,-0.00658638 -0.00645876,-0.00603943 -0.00696702,-0.00544526 -0.00742081,-0.00480851 -0.00781658,-0.00413417 -0.00815123,-0.0034275 -0.00842214,-0.00269403 -0.0086272,-0.0019395 -0.00876481,-0.0011698 -0.00883388,-0.000390951 -3.26459,0 z "/>
<path fill="rgb(187,30,16)" stroke="rgb(187,30,16)" d="M 3.56459,0.2 l -3.26459,8.88178e-16 -0.00883388,0.000390951 -0.00876481,0.0011698 -0.0086272,0.0019395 -0.00842214,0.00269403 -0.00815123,0.0034275 -0.00781658,0.00413417 -0.00742081,0.00480851 -0.00696702,0.00544526 -0.00645876,0.00603943 -0.00589999,0.00658638 -0.00529509,0.00708183 -0.00464879,0.0075219 -0.00396614,0.00790316 -0.00325248,0.00822263 -0.00251339,0.0084778 -0.00175464,0.00866669 -0.000982177,0.00878781 -0.000202033,0.00884022 0.000579691,0.0088235 0.00135688,0.0087378 0.00212346,0.00858377 0.00287344,0.00836263 0.00360095,0.0080761 3.26459,6.52918 0.00412828,0.00744612 0.0047467,0.00706797 0.00533072,0.00663859 0.00587609,0.00616109 0.00637887,0.00563892 0.00683541,0.00507588 0.0072424,0.00447605 0.0075969,0.00384377 0.00789632,0.00318363 0.00813851,0.00250041 0.00832171,0.00179907 0.00844458,0.00108468 0.00850624,0.000362437 0,0.2 -0.0255187,-0.00108731 -0.0253337,-0.00325405 -0.0249651,-0.00539721 -0.0244155,-0.00750124 -0.023689,-0.00955089 -0.0227907,-0.0115313 -0.0217272,-0.0134282 -0.0205062,-0.0152277 -0.0191366,-0.0169168 -0.0176283,-0.0184833 -0.0159921,-0.0199158 -0.0142401,-0.0212039 -0.0123848,-0.0223384 -3.26459,-6.52918 -0.0108029,-0.0242283 -0.00862033,-0.0250879 -0.00637039,-0.0257513 -0.00407065,-0.0262134 -0.00173907,-0.0264705 0.000606098,-0.0265207 0.00294653,-0.0263634 0.00526392,-0.0260001 0.00754016,-0.0254334 0.00975744,-0.0246679 0.0118984,-0.0237095 0.0139464,-0.0225657 0.0158853,-0.0212455 0.0177,-0.0197591 0.0193763,-0.0181183 0.0209011,-0.0163358 0.0222624,-0.0144255 0.0234497,-0.0124025 0.0244537,-0.0102825 0.0252664,-0.00808209 0.0258816,-0.00581849 0.0262944,-0.00350939 0.0265016,-0.00117285 3.26459,0 0,0.2 z "/>
<path fill="rgb(187,30,16)" stroke="rgb(187,30,16)" d="M 3.56459,5.04033 l 0,1.56525 -3.10279,-6.20557 3.10279,0 0,0.7 -1.97016,4.44089e-16 1.97016,3.94033 z "/>
</g></g></svg>
