<?xml version="1.0" encoding="UTF-8" standalone="no"?>
<!DOCTYPE svg PUBLIC "-//W3C//DTD SVG 1.1//EN" "http://www.w3.org/Graphics/SVG/1.1/DTD/svg11-flat.dtd"
[

]>
<svg xmlns="http://www.w3.org/2000/svg"  viewBox="-0.09375 -0.09375 7.6875 7.6875"><g fill="none" stroke="black" stroke-width="0.0125" transform="translate(0,7.5) scale(1, -1)">
<g id="Output" >
<path fill="rgb(0,91,140)" stroke="rgb(0,91,140)" d="M 7.1,6.25147 l -5.85147,-5.85147 5.55147,0 0.0261467,0.00114159 0.0259477,0.00341608 0.0255513,0.00566458 0.0249603,0.00786996 0.0241794,0.0100155 0.0232145,0.0120847 0.0220729,0.014062 0.0207634,0.0159323 0.0192958,0.0176813 0.0176813,0.0192958 0.0159323,0.0207634 0.014062,0.0220729 0.0120847,0.0232145 0.0100155,0.0241794 0.00786996,0.0249603 0.00566458,0.0255513 0.00341608,0.0259477 0.00114159,0.0261467 0,3.05 -8.88178e-16,2.50147 z "/>
<path fill="rgb(0,91,140)" stroke="rgb(0,91,140)" d="M 0.4,3.75 l 1.33227e-15,-2.50147 5.85147,5.85147 -5.55147,-2.66454e-15 -0.0261467,-0.00114159 -0.0259477,-0.00341608 -0.0255513,-0.00566458 -0.0249603,-0.00786996 -0.0241794,-0.0100155 -0.0232145,-0.0120847 -0.0220729,-0.014062 -0.0207634,-0.0159323 -0.0192958,-0.0176813 -0.0176813,-0.0192958 -0.0159323,-0.0207634 -0.014062,-0.0220729 -0.0120847,-0.0232145 -0.0100155,-0.0241794 -0.00786996,-0.0249603 -0.00566458,-0.0255513 -0.00341608,-0.0259477 -0.00114159,-0.0261467 4.44089e-16,-3.05 z "/>
<path fill="rgb(241,240,234)" stroke="rgb(241,240,234)" d="M 7.1,6.25147 l 0,0.282843 -6.13431,-6.13431 0.282843,0 5.85147,5.85147 z "/>
<path fill="rgb(241,240,234)" stroke="rgb(241,240,234)" d="M 0.4,0.965685 l 6.13431,6.13431 -0.282843,1.77636e-15 -5.85147,-5.85147 -4.44089e-16,-0.282843 z "/>
<path fill="rgb(241,240,234)" stroke="rgb(241,240,234)" d="M 0.4,3.75 l -0.2,-4.44089e-16 4.44089e-16,-3.05 0.00190265,-0.0435779 0.00569347,-0.0432462 0.00944096,-0.0425854 0.0131166,-0.0416005 0.0166924,-0.0402991 0.0201412,-0.0386909 0.0234367,-0.0367882 0.0265538,-0.0346056 0.0294688,-0.0321596 0.0321596,-0.0294688 0.0346056,-0.0265538 0.0367882,-0.0234367 0.0386909,-0.0201412 0.0402991,-0.0166924 0.0416005,-0.0131166 0.0425854,-0.00944096 0.0432462,-0.00569347 0.0435779,-0.00190265 6.1,0 0.0435779,0.00190265 0.0432462,0.00569347 0.0425854,0.00944096 0.0416005,0.0131166 0.0402991,0.0166924 0.0386909,0.0201412 0.0367882,0.0234367 0.0346056,0.0265538 0.0321596,0.0294688 0.0294688,0.0321596 0.0265538,0.0346056 0.0234367,0.0367882 0.0201412,0.0386909 0.0166924,0.0402991 0.0131166,0.0416005 0.00944096,0.0425854 0.00569347,0.0432462 0.00190265,0.0435779 0,3.05 -0.2,4.44089e-16 0,-3.05 -0.00114159,-0.0261467 -0.00341608,-0.0259477 -0.00566458,-0.0255513 -0.00786996,-0.0249603 -0.0100155,-0.0241794 -0.0120847,-0.0232145 -0.014062,-0.0220729 -0.0159323,-0.0207634 -0.0176813,-0.0192958 -0.0192958,-0.0176813 -0.0207634,-0.0159323 -0.0220729,-0.014062 -0.0232145,-0.0120847 -0.0241794,-0.0100155 -0.0249603,-0.00786996 -0.0255513,-0.00566458 -0.0259477,-0.00341608 -0.0261467,-0.00114159 -5.55147,0 -0.282843,0 -0.265685,0 -0.0261467,0.00114159 -0.0259477,0.00341608 -0.0255513,0.00566458 -0.0249603,0.00786996 -0.0241794,0.0100155 -0.0232145,0.0120847 -0.0220729,0.014062 -0.0207634,0.0159323 -0.0192958,0.0176813 -0.0176813,0.0192958 -0.0159323,0.0207634 -0.014062,0.0220729 -0.0120847,0.0232145 -0.0100155,0.0241794 -0.00786996,0.0249603 -0.00566458,0.0255513 -0.00341608,0.0259477 -0.00114159,0.0261467 4.44089e-16,0.265685 4.44089e-16,0.282843 -1.33227e-15,2.50147 z "/>
<path fill="rgb(241,240,234)" stroke="rgb(241,240,234)" d="M 0.2,3.75 l 0.2,4.44089e-16 -4.44089e-16,3.05 0.00114159,0.0261467 0.00341608,0.0259477 0.00566458,0.0255513 0.00786996,0.0249603 0.0100155,0.0241794 0.0120847,0.0232145 0.014062,0.0220729 0.0159323,0.0207634 0.0176813,0.0192958 0.0192958,0.0176813 0.0207634,0.0159323 0.0220729,0.014062 0.0232145,0.0120847 0.0241794,0.0100155 0.0249603,0.00786996 0.0255513,0.00566458 0.0259477,0.00341608 0.0261467,0.00114159 5.55147,2.66454e-15 0.282843,-1.77636e-15 0.265685,0 0.0261467,-0.00114159 0.0259477,-0.00341608 0.0255513,-0.00566458 0.0249603,-0.00786996 0.0241794,-0.0100155 0.0232145,-0.0120847 0.0220729,-0.014062 0.0207634,-0.0159323 0.0192958,-0.0176813 0.0176813,-0.0192958 0.0159323,-0.0207634 0.014062,-0.0220729 0.0120847,-0.0232145 0.0100155,-0.0241794 0.00786996,-0.0249603 0.00566458,-0.0255513 0.00341608,-0.0259477 0.00114159,-0.0261467 0,-0.265685 0,-0.282843 8.88178e-16,-2.50147 0.2,-4.44089e-16 -8.88178e-16,3.05 -0.00190265,0.0435779 -0.00569347,0.0432462 -0.00944096,0.0425854 -0.0131166,0.0416005 -0.0166924,0.0402991 -0.0201412,0.0386909 -0.0234367,0.0367882 -0.0265538,0.0346056 -0.0294688,0.0321596 -0.0321596,0.0294688 -0.0346056,0.0265538 -0.0367882,0.0234367 -0.0386909,0.0201412 -0.0402991,0.0166924 -0.0416005,0.0131166 -0.0425854,0.00944096 -0.0432462,0.00569347 -0.0435779,0.00190265 -6.1,-8.88178e-16 -0.0435779,-0.00190265 -0.0432462,-0.00569347 -0.0425854,-0.00944096 -0.0416005,-0.0131166 -0.0402991,-0.0166924 -0.0386909,-0.0201412 -0.0367882,-0.0234367 -0.0346056,-0.0265538 -0.0321596,-0.0294688 -0.0294688,-0.0321596 -0.0265538,-0.0346056 -0.0234367,-0.0367882 -0.0201412,-0.0386909 -0.0166924,-0.0402991 -0.0131166,-0.0416005 -0.00944096,-0.0425854 -0.00569347,-0.0432462 -0.00190265,-0.0435779 4.44089e-16,-3.05 z "/>
<path fill="rgb(0,91,140)" stroke="rgb(0,91,140)" d="M 0.2,3.75 l -0.2,0 4.44089e-16,-3.05 0.00266371,-0.061009 0.00797086,-0.0605447 0.0132173,-0.0596196 0.0183632,-0.0582408 0.0233694,-0.0564187 0.0281977,-0.0541672 0.0328114,-0.0515035 0.0371753,-0.0484478 0.0412564,-0.0450234 0.0450234,-0.0412564 0.0484478,-0.0371753 0.0515035,-0.0328114 0.0541672,-0.0281977 0.0564187,-0.0233694 0.0582408,-0.0183632 0.0596196,-0.0132173 0.0605447,-0.00797086 0.061009,-0.00266371 6.1,-8.88178e-16 0.061009,0.00266371 0.0605447,0.00797086 0.0596196,0.0132173 0.0582408,0.0183632 0.0564187,0.0233694 0.0541672,0.0281977 0.0515035,0.0328114 0.0484478,0.0371753 0.0450234,0.0412564 0.0412564,0.0450234 0.0371753,0.0484478 0.0328114,0.0515035 0.0281977,0.0541672 0.0233694,0.0564187 0.0183632,0.0582408 0.0132173,0.0596196 0.00797086,0.0605447 0.00266371,0.061009 -1.77636e-15,3.05 -0.2,-8.88178e-16 0,-3.05 -0.00190265,-0.0435779 -0.00569347,-0.0432462 -0.00944096,-0.0425854 -0.0131166,-0.0416005 -0.0166924,-0.0402991 -0.0201412,-0.0386909 -0.0234367,-0.0367882 -0.0265538,-0.0346056 -0.0294688,-0.0321596 -0.0321596,-0.0294688 -0.0346056,-0.0265538 -0.0367882,-0.0234367 -0.0386909,-0.0201412 -0.0402991,-0.0166924 -0.0416005,-0.0131166 -0.0425854,-0.00944096 -0.0432462,-0.00569347 -0.0435779,-0.00190265 -6.1,0 -0.0435779,0.00190265 -0.0432462,0.00569347 -0.0425854,0.00944096 -0.0416005,0.0131166 -0.0402991,0.0166924 -0.0386909,0.0201412 -0.0367882,0.0234367 -0.0346056,0.0265538 -0.0321596,0.0294688 -0.0294688,0.0321596 -0.0265538,0.0346056 -0.0234367,0.0367882 -0.0201412,0.0386909 -0.0166924,0.0402991 -0.0131166,0.0416005 -0.00944096,0.0425854 -0.00569347,0.0432462 -0.00190265,0.0435779 -4.44089e-16,3.05 z "/>
<path fill="rgb(0,91,140)" stroke="rgb(0,91,140)" d="M 6.8,7.3 l 0.0435779,-0.00190265 0.0432462,-0.00569347 0.0425854,-0.00944096 0.0416005,-0.0131166 0.0402991,-0.0166924 0.0386909,-0.0201412 0.0367882,-0.0234367 0.0346056,-0.0265538 0.0321596,-0.0294688 0.0294688,-0.0321596 0.0265538,-0.0346056 0.0234367,-0.0367882 0.0201412,-0.0386909 0.0166924,-0.0402991 0.0131166,-0.0416005 0.00944096,-0.0425854 0.00569347,-0.0432462 0.00190265,-0.0435779 8.88178e-16,-3.05 0.2,8.88178e-16 1.77636e-15,3.05 -0.00266371,0.061009 -0.00797086,0.0605447 -0.0132173,0.0596196 -0.0183632,0.0582408 -0.0233694,0.0564187 -0.0281977,0.0541672 -0.0328114,0.0515035 -0.0371753,0.0484478 -0.0412564,0.0450234 -0.0450234,0.0412564 -0.0484478,0.0371753 -0.0515035,0.0328114 -0.0541672,0.0281977 -0.0564187,0.0233694 -0.0582408,0.0183632 -0.0596196,0.0132173 -0.0605447,0.00797086 -0.061009,0.00266371 -6.1,-8.88178e-16 -0.061009,-0.00266371 -0.0605447,-0.00797086 -0.0596196,-0.0132173 -0.0582408,-0.0183632 -0.0564187,-0.0233694 -0.0541672,-0.0281977 -0.0515035,-0.0328114 -0.0484478,-0.0371753 -0.0450234,-0.0412564 -0.0412564,-0.0450234 -0.0371753,-0.0484478 -0.0328114,-0.0515035 -0.0281977,-0.0541672 -0.0233694,-0.0564187 -0.0183632,-0.0582408 -0.0132173,-0.0596196 -0.00797086,-0.0605447 -0.00266371,-0.061009 4.44089e-16,-3.05 0.2,0 -4.44089e-16,3.05 0.00190265,0.0435779 0.00569347,0.0432462 0.00944096,0.0425854 0.0131166,0.0416005 0.0166924,0.0402991 0.0201412,0.0386909 0.0234367,0.0367882 0.0265538,0.0346056 0.0294688,0.0321596 0.0321596,0.0294688 0.0346056,0.0265538 0.0367882,0.0234367 0.0386909,0.0201412 0.0402991,0.0166924 0.0416005,0.0131166 0.0425854,0.00944096 0.0432462,0.00569347 0.0435779,0.00190265 6.1,8.88178e-16 z "/>
<path fill="rgb(241,240,234)" stroke="rgb(241,240,234)" d="M 5.29835,6.52652 l -0.0507706,-0.00101541 -0.109664,-0.00710788 -0.104587,-0.0152312 -0.100526,-0.0223391 -0.0964641,-0.0294469 -0.0913871,-0.0375702 -0.0873254,-0.0446781 -0.0822484,-0.0528014 -0.0781867,-0.0599093 -0.0741251,-0.0680326 -0.069048,-0.0751405 -0.0649864,-0.0832638 -0.0192928,-0.0274161 1.02861,-0.0365548 0.0385857,-0.00101541 0.106618,-0.0111695 0.0974795,-0.0264007 0.0903717,-0.0396011 0.0822484,-0.0528014 0.0741251,-0.0680326 0.0660018,-0.081233 0.0385857,-0.0609247 0.0426473,-0.081233 0.0355394,-0.0883408 0.0284315,-0.0954487 0.0233545,-0.102557 0.0162466,-0.11068 0.00913871,-0.116772 0.00304624,-0.119819 -0.00203082,-0.0995104 -0.00913871,-0.115757 -0.0152312,-0.109664 -0.0213236,-0.102557 -0.0294469,-0.0974795 -0.034524,-0.0913871 -0.0416319,-0.0852946 -0.0477244,-0.0792021 -0.0253853,-0.0355394 -0.069048,-0.0781867 -0.0761559,-0.0649864 -0.0832638,-0.0507706 -0.0913871,-0.0355394 -0.0995104,-0.0213236 -0.106618,-0.00710788 1.02963,-0.0233545 0.0497552,0.0822484 0.0456935,0.0852946 0.0406165,0.0893562 0.0355394,0.0924025 0.0304624,0.0964641 0.0264007,0.100526 0.0213236,0.103572 0.0162466,0.107634 0.0121849,0.111695 0.00710788,0.114742 0.00203082,0.117788 0,0.0182774 -0.00304624,0.116772 -0.0081233,0.113726 -0.0132004,0.109664 -0.0182774,0.106618 -0.0223391,0.102557 -0.0284315,0.098495 -0.0324932,0.0954487 -0.0385857,0.0913871 -0.0426473,0.0883408 -0.0477244,0.0852946 -0.0528014,0.0802175 -0.0324932,0.0456935 -0.0660018,0.0802175 -0.0700634,0.0720942 -0.0741251,0.0639709 -0.0792021,0.0568631 -0.0842792,0.0497552 -0.0883408,0.0416319 -0.0934179,0.034524 -0.098495,0.0264007 -0.102557,0.0192928 -0.107634,0.0111695 -0.112711,0.00406165 z "/>
<path fill="rgb(241,240,234)" stroke="rgb(241,240,234)" d="M 4.26974,6.00257 l -0.051786,-0.081233 -0.0467089,-0.0842792 -0.0416319,-0.0883408 -0.0365548,-0.0924025 -0.0324932,-0.0964641 -0.0264007,-0.0995104 -0.0223391,-0.103572 -0.017262,-0.106618 -0.0121849,-0.111695 -0.00710788,-0.114742 -0.00304624,-0.118803 0.00101541,-0.0446781 0.00406165,-0.116772 0.00913871,-0.113726 0.0132004,-0.109664 0.0192928,-0.105603 0.0233545,-0.102557 0.0284315,-0.098495 0.0335086,-0.0944333 0.0375702,-0.0913871 0.0426473,-0.0883408 0.0477244,-0.0832638 0.0528014,-0.0802175 0.034524,-0.0487398 0.0660018,-0.0792021 0.0710788,-0.0710788 0.0751405,-0.0639709 0.0802175,-0.0568631 0.0842792,-0.0497552 0.0883408,-0.0406165 0.0934179,-0.034524 0.098495,-0.0264007 0.102557,-0.0192928 0.107634,-0.0111695 0.111695,-0.00304624 0.0761559,0.00101541 0.107634,0.00913871 0.104587,0.0162466 0.0995104,0.0243699 0.0944333,0.0314778 0.0893562,0.0396011 0.0852946,0.0477244 0.081233,0.0538168 0.0761559,0.0629555 0.0710788,0.069048 0.0670172,0.0781867 0.0619401,0.0852946 0.0152312,0.0223391 -1.02963,0.0233545 -0.0426473,0.00101541 -0.106618,0.0121849 -0.098495,0.0253853 -0.0903717,0.0396011 -0.081233,0.0538168 -0.0741251,0.0670172 -0.0660018,0.081233 -0.0477244,0.0741251 -0.0406165,0.0822484 -0.034524,0.0893562 -0.0284315,0.0954487 -0.0223391,0.103572 -0.0152312,0.11068 -0.0101541,0.117788 -0.00304624,0.124896 0.00304624,0.113726 0.0101541,0.111695 0.017262,0.106618 0.0243699,0.100526 0.0314778,0.0954487 0.0385857,0.0903717 0.0446781,0.0842792 0.00710788,0.0121849 0.0629555,0.0893562 0.069048,0.0751405 0.0761559,0.0619401 0.0842792,0.0487398 0.0903717,0.034524 0.0974795,0.0203082 0.104587,0.00710788 -1.02861,0.0365548 z "/>
<path fill="rgb(241,240,234)" stroke="rgb(241,240,234)" d="M 3.26144,6.47575 l -2.55071,0 0.00913871,-0.55543 1.78002,0 -0.0304624,-0.0436627 -0.0619401,-0.0913871 -0.0599093,-0.0893562 -0.0558477,-0.0873254 -0.0538168,-0.0832638 -0.051786,-0.0903717 -0.0507706,-0.0934179 -0.0487398,-0.0934179 -0.0456935,-0.0954487 -0.0436627,-0.0964641 -0.0406165,-0.0974795 -0.0385857,-0.098495 -0.0355394,-0.0995104 -0.034524,-0.100526 -0.0304624,-0.101541 -0.0294469,-0.103572 -0.017262,-0.0710788 -0.0213236,-0.0954487 -0.0192928,-0.098495 -0.017262,-0.0995104 -0.0152312,-0.102557 -0.0142158,-0.105603 -0.0111695,-0.106618 -0.00913871,-0.108649 -0.0081233,-0.111695 -0.00507706,-0.113726 -0.00406165,-0.115757 0.560507,0 0.00406165,0.106618 0.00609247,0.114742 0.00913871,0.111695 0.0121849,0.108649 0.0132004,0.107634 0.0162466,0.104587 0.0192928,0.101541 0.0213236,0.0995104 0.0233545,0.0964641 0.0253853,0.0954487 0.0284315,0.0913871 0.0111695,0.0335086 0.0355394,0.101541 0.0385857,0.100526 0.0406165,0.098495 0.0426473,0.0974795 0.0446781,0.0954487 0.0477244,0.0944333 0.0497552,0.0924025 0.051786,0.0913871 0.0538168,0.0903717 0.0568631,0.0873254 0.0588939,0.0873254 0.0396011,0.0528014 0.0588939,0.0720942 0.0700634,0.0771713 0.0822484,0.0842792 0.0934179,0.0903717 0,0.564569 z "/>
<path fill="rgb(241,240,234)" stroke="rgb(241,240,234)" d="M 5.79387,2.47503 l -0.269084,-0.098495 0,-1.42564 0.269084,0 0,0.642756 0.00101541,0.0304624 0.017262,0.0781867 0.0385857,0.0568631 0.0609247,0.0335086 0.081233,0.0111695 0.430535,0.0284315 -0.0365548,0.0720942 -0.593001,0.0629555 0,0.507706 z "/>
<path fill="rgb(241,240,234)" stroke="rgb(241,240,234)" d="M 6.04671,2.07292 l -0.0436627,-0.00203082 -0.0852946,-0.017262 -0.0700634,-0.034524 -0.0538168,-0.051786 0.593001,-0.0629555 -0.0538168,0.0629555 -0.0467089,0.0385857 -0.0710788,0.0365548 -0.0792021,0.0223391 -0.0893562,0.0081233 z "/>
<path fill="rgb(241,240,234)" stroke="rgb(241,240,234)" d="M 6.42343,1.83227 l -0.430535,-0.0284315 0.0751405,-0.0142158 0.069048,-0.0446781 0.0426473,-0.0619401 0.0162466,-0.0802175 0,-0.651894 0.248776,0 0,0.75242 -0.00304624,0.0487398 -0.0182774,0.0802175 z "/>
<path fill="rgb(241,240,234)" stroke="rgb(241,240,234)" d="M 5.21712,2.45066 l -0.959564,-1.8054 -0.269084,0 0.959564,1.8054 0.269084,0 z "/>
<path fill="rgb(241,240,234)" stroke="rgb(241,240,234)" d="M 2.6796,2.07292 l -0.0507706,-0.00406165 -0.0781867,-0.0192928 -0.0720942,-0.0375702 -0.0670172,-0.0548322 0.552384,-0.0162466 -0.0558477,0.0548322 -0.069048,0.0426473 -0.0751405,0.0253853 -0.0842792,0.00913871 z "/>
<path fill="rgb(241,240,234)" stroke="rgb(241,240,234)" d="M 3.29596,2.07292 l -0.0264007,-0.00101541 -0.0761559,-0.0121849 -0.0761559,-0.0253853 -0.0771713,-0.0396011 -0.0761559,-0.0538168 0.671187,-0.0375702 -0.0548322,0.0639709 -0.0456935,0.0375702 -0.0710788,0.0375702 -0.0792021,0.0223391 -0.0883408,0.0081233 z "/>
<path fill="rgb(241,240,234)" stroke="rgb(241,240,234)" d="M 2.41154,2.04652 l -0.269084,0 0,-1.09563 0.269084,0 0,0.657987 0.0101541,0.0700634 0.0396011,0.0700634 0.0477244,0.0365548 0.081233,0.0182774 0.646817,0 0.434596,0.0284315 -0.0365548,0.0710788 -0.671187,0.0375702 -0.552384,0.0162466 0,0.0893562 z "/>
<path fill="rgb(241,240,234)" stroke="rgb(241,240,234)" d="M 3.67166,1.83227 l -0.434596,-0.0284315 0.0741251,-0.0121849 0.0639709,-0.0426473 0.0355394,-0.0609247 0.0142158,-0.0852946 0,-0.651894 0.269084,0 0,0.75242 -0.00304624,0.0497552 -0.0192928,0.0792021 z "/>
<path fill="rgb(241,240,234)" stroke="rgb(241,240,234)" d="M 3.23707,1.80384 l -0.646817,0 0.0720942,-0.0132004 0.0700634,-0.0436627 0.0416319,-0.0609247 0.0152312,-0.0832638 0,-0.651894 0.257915,0 0,0.662049 0.0111695,0.0639709 0.0456935,0.0700634 0.0538168,0.0385857 0.0792021,0.0182774 z "/>
<path fill="rgb(241,240,234)" stroke="rgb(241,240,234)" d="M 1.34535,2.47503 l -0.269084,-0.098495 0,-1.42564 0.269084,0 0,0.318839 0.14825,0.204098 -0.14825,0.193944 0,0.807252 z "/>
<path fill="rgb(241,240,234)" stroke="rgb(241,240,234)" d="M 1.96577,2.03942 l -0.33204,0 -0.288377,-0.371641 0.14825,-0.193944 0.214252,-0.522937 0.269084,0 -0.299547,0.741251 0.288377,0.347271 z "/>
<path fill="rgb(187,30,16)" stroke="rgb(187,30,16)" d="M 0.4,0.965685 l -4.44089e-16,-0.265685 0.00114159,-0.0261467 0.00341608,-0.0259477 0.00566458,-0.0255513 0.00786996,-0.0249603 0.0100155,-0.0241794 0.0120847,-0.0232145 0.014062,-0.0220729 0.0159323,-0.0207634 0.0176813,-0.0192958 0.0192958,-0.0176813 0.0207634,-0.0159323 0.0220729,-0.014062 0.0232145,-0.0120847 0.0241794,-0.0100155 0.0249603,-0.00786996 0.0255513,-0.00566458 0.0259477,-0.00341608 0.0261467,-0.00114159 0.265685,0 6.13431,6.13431 0,0.265685 -0.00114159,0.0261467 -0.00341608,0.0259477 -0.00566458,0.0255513 -0.00786996,0.0249603 -0.0100155,0.0241794 -0.0120847,0.0232145 -0.014062,0.0220729 -0.0159323,0.0207634 -0.0176813,0.0192958 -0.0192958,0.0176813 -0.0207634,0.0159323 -0.0220729,0.014062 -0.0232145,0.0120847 -0.0241794,0.0100155 -0.0249603,0.00786996 -0.0255513,0.00566458 -0.0259477,0.00341608 -0.0261467,0.00114159 -0.265685,0 -6.13431,-6.13431 z "/>
</g></g></svg>
