<?xml version="1.0" encoding="UTF-8" standalone="no"?>
<!DOCTYPE svg PUBLIC "-//W3C//DTD SVG 1.1//EN" "http://www.w3.org/Graphics/SVG/1.1/DTD/svg11-flat.dtd"
[

]>
<svg xmlns="http://www.w3.org/2000/svg"  viewBox="-0.125044 -0.125044 10.2536 14.7519"><g fill="none" stroke="black" stroke-width="0.0125" transform="translate(0,14.5018) scale(1, -1)">
<g id="Output" >
<path fill="rgb(241,240,234)" stroke="rgb(241,240,234)" d="M 9.51129,8.25089 l -1.77636e-15,5.48553 -0.000998892,0.0228784 -0.00298907,0.0227043 -0.00495651,0.0223574 -0.00688622,0.0218403 -0.00876352,0.021157 -0.0105741,0.0203127 -0.0123043,0.0193138 -0.0139407,0.0181679 -0.0154711,0.0168838 -0.0168838,0.0154711 -0.0181679,0.0139407 -0.0193138,0.0123043 -0.0203127,0.0105741 -0.021157,0.00876352 -0.0218403,0.00688622 -0.0223574,0.00495651 -0.0227043,0.00298907 -0.0228784,0.000998892 -8.47818,-8.88178e-15 -0.0228784,-0.000998892 -0.0227043,-0.00298907 -0.0223574,-0.00495651 -0.0218403,-0.00688622 -0.021157,-0.00876352 -0.0203127,-0.0105741 -0.0193138,-0.0123043 -0.0181679,-0.0139407 -0.0168838,-0.0154711 -0.0154711,-0.0168838 -0.0139407,-0.0181679 -0.0123043,-0.0193138 -0.0105741,-0.0203127 -0.00876352,-0.021157 -0.00688622,-0.0218403 -0.00495651,-0.0223574 -0.00298907,-0.0227043 -0.000998892,-0.0228784 0,-5.48553 2.24365,0 0,3.05 0.00266371,0.061009 0.00797086,0.0605447 0.0132173,0.0596196 0.0183632,0.0582408 0.0233694,0.0564187 0.0281977,0.0541672 0.0328114,0.0515035 0.0371753,0.0484478 0.0412564,0.0450234 0.0450234,0.0412564 0.0484478,0.0371753 0.0515035,0.0328114 0.0541672,0.0281977 0.0564187,0.0233694 0.0582408,0.0183632 0.0596196,0.0132173 0.0605447,0.00797086 0.061009,0.00266371 1.55,0 1.55,0 0.061009,-0.00266371 0.0605447,-0.00797086 0.0596196,-0.0132173 0.0582408,-0.0183632 0.0564187,-0.0233694 0.0541672,-0.0281977 0.0515035,-0.0328114 0.0484478,-0.0371753 0.0450234,-0.0412564 0.0412564,-0.0450234 0.0371753,-0.0484478 0.0328114,-0.0515035 0.0281977,-0.0541672 0.0233694,-0.0564187 0.0183632,-0.0582408 0.0132173,-0.0596196 0.00797086,-0.0605447 0.00266371,-0.061009 0,-3.05 2.25953,0 z "/>
<path fill="rgb(241,240,234)" stroke="rgb(241,240,234)" d="M 4.76183,1.49754 l -0.174767,0 -0.00861574,-0.0112283 -0.0146467,-0.0159841 -0.0159841,-0.0146467 -0.0171998,-0.0131979 -0.0182847,-0.0116486 -0.00421597,-0.00219469 0,-0.9311 1,0 0,1 -0.348312,0 -0.00861574,-0.0112283 -0.0146467,-0.0159841 -0.0159841,-0.0146467 -0.0171998,-0.0131979 -0.0182847,-0.0116486 -0.0192303,-0.0100107 -0.0200296,-0.00829655 -0.0206765,-0.00651928 -0.021166,-0.00469239 -0.0214945,-0.0028298 -0.0216593,-0.000945665 -0.0216593,0.000945665 -0.0214945,0.0028298 -0.021166,0.00469239 -0.0206765,0.00651928 -0.0200296,0.00829655 -0.0192303,0.0100107 -0.0182847,0.0116486 -0.0171998,0.0131979 -0.0159841,0.0146467 -0.0146467,0.0159841 -0.00861574,0.0112283 z "/>
<path fill="rgb(241,240,234)" stroke="rgb(241,240,234)" d="M 4.58706,1.49754 l 0.174767,0 -0.00458216,0.00597159 -0.0116486,0.0182847 -0.0100107,0.0192303 -0.00829655,0.0200296 -0.00651928,0.0206765 -0.00469239,0.021166 -0.0028298,0.0214945 -0.000945665,0.0216593 0.000945665,0.0216593 0.0028298,0.0214945 0.00469239,0.021166 0.00651928,0.0206765 0.00829655,0.0200296 0.0100107,0.0192303 0.0116486,0.0182847 0.0131979,0.0171998 0.0146467,0.0159841 0.0159841,0.0146467 0.0171998,0.0131979 0.0182847,0.0116486 0.0192303,0.0100107 0.0200296,0.00829655 0.0206765,0.00651928 0.021166,0.00469239 0.0214945,0.0028298 0.0216593,0.000945665 0.0216593,-0.000945665 0.0214945,-0.0028298 0.021166,-0.00469239 0.0206765,-0.00651928 0.0200296,-0.00829655 0.0192303,-0.0100107 0.0182847,-0.0116486 0.0171998,-0.0131979 0.0159841,-0.0146467 0.0146467,-0.0159841 0.0131979,-0.0171998 0.0116486,-0.0182847 0.0100107,-0.0192303 0.00829655,-0.0200296 0.00651928,-0.0206765 0.00469239,-0.021166 0.0028298,-0.0214945 0.000945665,-0.0216593 -0.000945665,-0.0216593 -0.0028298,-0.0214945 -0.00469239,-0.021166 -0.00651928,-0.0206765 -0.00829655,-0.0200296 -0.0100107,-0.0192303 -0.0116486,-0.0182847 -0.00458216,-0.00597159 0.348312,0 0,0.220267 -0.230282,0 -0.00309589,0.0213069 -0.00492475,0.0209599 -0.0067168,0.0204562 -0.00845864,0.0197995 -0.0101372,0.0189949 -0.0117401,0.0180483 -0.0132552,0.0169668 -0.0146712,0.0157584 -0.0159775,0.0144323 -0.0171644,0.0129982 -0.018223,0.011467 -0.0191454,0.00985013 -0.0199246,0.0081596 -0.020555,0.00640807 -0.0210317,0.00460865 -0.0213511,0.00277477 -0.021511,0.000920152 -0.521835,-0.000257048 0,-0.0779944 0.00421597,-0.00219469 0.0182847,-0.0116486 0.0171998,-0.0131979 0.0159841,-0.0146467 0.0146467,-0.0159841 0.0131979,-0.0171998 0.0116486,-0.0182847 0.0100107,-0.0192303 0.00829655,-0.0200296 0.00651928,-0.0206765 0.00469239,-0.021166 0.0028298,-0.0214945 0.000945665,-0.0216593 -0.000945665,-0.0216593 -0.0028298,-0.0214945 -0.00469239,-0.021166 -0.00651928,-0.0206765 -0.00829655,-0.0200296 -0.0100107,-0.0192303 -0.0116486,-0.0182847 -0.00458216,-0.00597159 z M 5.50812,1.89791 l 0,0.23501 -0.151199,0.0869394 0.0419684,0.114389 -0.0174286,0.163296 -0.450916,0 -0.392032,-0.392032 0,-0.0209112 0.214067,0 0.75554,-0.186691 z M 5.50812,2.43601 l 0,0.0615365 -0.0935277,0 0.00942047,-0.0948204 0.0168451,0.0459129 0.0672621,-0.012629 z "/>
<path fill="rgb(241,240,234)" stroke="rgb(241,240,234)" d="M 5.41459,2.49754 l 0.0935277,0 0,1 -1,0 0,-0.936944 0.77693,0.430306 0.00527655,0.00173162 0.00540738,0.00126517 0.00549707,0.000789097 0.00554493,0.000307018 0.00555058,-0.000177397 0.005514,-0.000660463 0.00543546,-0.0011385 0.00531556,-0.00160788 0.00515521,-0.00206502 0.00495562,-0.00250644 0.00471833,-0.00292879 0.00444513,-0.00332886 0.0041381,-0.00370359 0.00379958,-0.00405014 0.00343215,-0.00436587 0.0030386,-0.00464837 0.00262193,-0.0048955 0.0021853,-0.00510538 0.00173205,-0.00527641 0.00126561,-0.00540728 0.000789548,-0.00549701 0.0437234,-0.440092 z M 5.38146,2.49754 l -0.0332839,0.311852 -0.080258,0.0255224 -0.337374,-0.337374 0.450916,0 z "/>
<path fill="rgb(241,240,234)" stroke="rgb(241,240,234)" d="M 4.50812,3.49754 l 1,0 0,1 -1,0 0,-1 z "/>
<path fill="rgb(241,240,234)" stroke="rgb(241,240,234)" d="M 4.50812,4.49754 l 1,0 0,0.00334751 -0.506347,0 -0.493653,0 0,-0.00334751 z "/>
<path fill="rgb(241,240,234)" stroke="rgb(241,240,234)" d="M 5.50812,0.497542 l 1,0 0,1 -1,0 0,-1 z "/>
<path fill="rgb(241,240,234)" stroke="rgb(241,240,234)" d="M 5.91277,2.02995 l -0.00066813,-0.0151904 -0.00199923,-0.0150731 -0.00331489,-0.0148393 -0.00460494,-0.014491 -0.0058061,-0.0139172 -0.0069959,-0.0133588 -0.00813255,-0.0126989 -0.00920742,-0.0119425 -0.0102123,-0.0110954 -0.0111397,-0.010164 -0.0119824,-0.00915539 -0.0127341,-0.00807724 -0.0133891,-0.00693773 -0.0139423,-0.00574552 -0.0143897,-0.00450966 -0.0147277,-0.00323954 -0.0149538,-0.00194482 -0.0150664,-0.00063532 -0.0150645,0.000679005 -0.0149481,0.00198817 -0.0147182,0.00328224 -0.0143765,0.00455137 -0.0139256,0.00578592 -0.0133689,0.00697652 -0.0127106,0.00811413 -0.0119558,0.00919009 -0.0111102,0.0101962 -0.0101801,0.0111249 -0.00917275,0.0119691 -0.00809569,0.0127224 -0.00695713,0.013379 -0.00576572,0.013934 -0.00453052,0.0143831 -0.00326089,0.014723 -0.0019665,0.014951 -0.000657163,0.0150654 0.00066813,0.0151904 0.00199923,0.0150731 0.00331489,0.0148393 0.00460494,0.014491 0.0058061,0.0139172 0.0069959,0.0133588 0.00813255,0.0126989 0.00920742,0.0119425 0.0102123,0.0110954 0.0111397,0.010164 0.0119824,0.00915539 0.0127341,0.00807724 0.0133891,0.00693773 0.0139423,0.00574552 0.0143897,0.00450966 0.0147277,0.00323954 0.0149538,0.00194482 0.0150664,0.00063532 0.0150645,-0.000679005 0.0149481,-0.00198817 0.0147182,-0.00328224 0.0143765,-0.00455137 0.0139256,-0.00578592 0.0133689,-0.00697652 0.0127106,-0.00811413 0.0119558,-0.00919009 0.0111102,-0.0101962 0.0101801,-0.0111249 0.00917275,-0.0119691 0.00809569,-0.0127224 0.00695713,-0.013379 0.00576572,-0.013934 0.00453052,-0.0143831 0.00326089,-0.014723 0.0019665,-0.014951 0.000657163,-0.0150654 z M 5.50812,1.49754 l 1,0 0,0.24939 -0.561451,0.205992 0.00594967,0.0186255 0.00428548,0.0190773 0.00258794,0.0193807 0.000870281,0.0195334 -0.000854151,0.0195341 -0.00257194,0.0193828 -0.00426972,0.0190809 -0.00593429,0.0186304 -0.00755271,0.0180351 -0.00911237,0.0172995 -0.0106012,0.0164294 -0.0120075,0.0154314 -0.0133204,0.0143135 -0.0145298,0.0130842 -0.0156261,0.0117531 -0.0166008,0.0103306 -0.0174465,0.00882775 -0.0181564,0.00725624 -0.0187252,0.0056283 -0.0191482,0.00395657 -0.0194224,0.00225407 -0.0195454,0.000534032 -0.0195165,-0.00119016 -0.0193357,-0.00290509 -0.0190046,-0.00459742 -0.0185256,-0.006254 -0.0179025,-0.00786193 -0.0171402,-0.00940871 -0.0162445,-0.0108823 -0.0152225,-0.0122713 -0.0140821,-0.0135648 -0.0128322,-0.0147528 -0.0114825,-0.015826 -0.0100434,-0.0167762 -0.00852624,-0.0175958 -0.0269585,0.0155012 0,-0.23501 0.0702467,-0.0173577 0,-0.162741 -0.0702467,0 0,-0.220267 z M 6.50812,2.44304 l 0,0.0545004 -1,0 0,-0.0615365 0.506722,-0.0951413 0.306065,0.140532 0.00777684,0.00317471 0.00802012,0.00249714 0.00820449,0.00180124 0.00832859,0.0010921 0.00839151,0.000374946 0.0083928,-0.000344965 0.00833244,-0.00106234 0.00821087,-0.00177192 0.00802899,-0.00246848 0.000323195,-0.000115378 0.000322789,-0.000116509 0.000322379,-0.000117638 0.112558,-0.0412976 z "/>
<path fill="rgb(241,240,234)" stroke="rgb(241,240,234)" d="M 5.50812,2.49754 l 1,0 0,1 -1,0 0,-1 z "/>
<path fill="rgb(241,240,234)" stroke="rgb(241,240,234)" d="M 9.50812,7.49754 l 0.00317767,0 0,0.753348 -0.00317767,0 0,-0.753348 z "/>
<path fill="rgb(241,240,234)" stroke="rgb(241,240,234)" d="M 5.50812,3.49754 l 1,0 0,1 -1,0 0,-1 z "/>
<path fill="rgb(241,240,234)" stroke="rgb(241,240,234)" d="M 5.50812,4.49754 l 1,0 0,0.00334751 -1,0 0,-0.00334751 z "/>
<path fill="rgb(241,240,234)" stroke="rgb(241,240,234)" d="M 6.78881,1.49754 l -0.28069,0 0,-1 1,0 0,1 -0.427826,0 -0.00424799,-0.00663318 -0.00920742,-0.0119425 -0.0102123,-0.0110954 -0.0111397,-0.010164 -0.0119824,-0.00915539 -0.0127341,-0.00807724 -0.0133891,-0.00693773 -0.0139423,-0.00574552 -0.0143897,-0.00450966 -0.0147277,-0.00323954 -0.0149538,-0.00194482 -0.0150664,-0.00063532 -0.0150645,0.000679005 -0.0149481,0.00198817 -0.0147182,0.00328224 -0.0143765,0.00455137 -0.0139256,0.00578592 -0.0133689,0.00697652 -0.0127106,0.00811413 -0.0119558,0.00919009 -0.0111102,0.0101962 -0.0101801,0.0111249 -0.00917275,0.0119691 -0.00395958,0.00622248 z "/>
<path fill="rgb(241,240,234)" stroke="rgb(241,240,234)" d="M 6.50812,2.44304 l 0.473258,-0.173639 0.00409047,-0.0017111 0.00392199,-0.00206829 0.00372239,-0.00240907 0.00349326,-0.00273074 0.00323642,-0.00303074 0.0029539,-0.0033067 0.00264794,-0.00355643 0.00232098,-0.00377794 0.00197561,-0.00396948 6.0127e-05,-0.000136189 5.97195e-05,-0.000136368 5.93114e-05,-0.000136546 0.139715,-0.322976 0.26996,-0.146245 -0.0959258,-0.261455 -0.174459,0.0252443 0.00378667,0.0188444 0.00214398,0.0191011 0.000485246,0.0192149 -0.00117712,0.019185 -0.00283068,0.0190115 -0.00446306,0.0186957 -0.00606204,0.0182401 -0.00761567,0.017648 -0.00911231,0.0169238 -0.0105408,0.016073 -0.0118904,0.015102 -0.013151,0.0140179 -0.0143132,0.0128289 -0.0153683,0.011544 -0.0163085,0.0101727 -0.0171266,0.00872526 -0.0178165,0.00721255 -0.0183732,0.00564586 -0.0187924,0.00403694 -0.0190709,0.0023978 -0.0192068,0.000740728 -0.019199,-0.00092189 -0.0190475,-0.00257761 -0.0187534,-0.00421404 -0.0183191,-0.00581894 -0.0177477,-0.00738031 -0.0170435,-0.00888645 -0.0162118,-0.0103261 -0.0152587,-0.0116885 -0.0141915,-0.0129634 -0.0130182,-0.0141413 -0.0117474,-0.0152135 -0.0103887,-0.0161717 -0.00895225,-0.017009 -0.00744884,-0.017719 -0.21696,0.079601 0,-0.24939 0.28069,0 -0.00413611,0.0064999 -0.00695713,0.013379 -0.00576572,0.013934 -0.00453052,0.0143831 -0.00326089,0.014723 -0.0019665,0.014951 -0.000657163,0.0150654 0.00066813,0.0151904 0.00199923,0.0150731 0.00331489,0.0148393 0.00460494,0.014491 0.0058061,0.0139172 0.0069959,0.0133588 0.00813255,0.0126989 0.00920742,0.0119425 0.0102123,0.0110954 0.0111397,0.010164 0.0119824,0.00915539 0.0127341,0.00807724 0.0133891,0.00693773 0.0139423,0.00574552 0.0143897,0.00450966 0.0147277,0.00323954 0.0149538,0.00194482 0.0150664,0.00063532 0.0150645,-0.000679005 0.0149481,-0.00198817 0.0147182,-0.00328224 0.0143765,-0.00455137 0.0139256,-0.00578592 0.0133689,-0.00697652 0.0127106,-0.00811413 0.0119558,-0.00919009 0.0111102,-0.0101962 0.0101801,-0.0111249 0.00917275,-0.0119691 0.00809569,-0.0127224 0.00695713,-0.013379 0.00576572,-0.013934 0.00453052,-0.0143831 0.00326089,-0.014723 0.0019665,-0.014951 0.000657163,-0.0150654 -0.00066813,-0.0151904 -0.00199923,-0.0150731 -0.00331489,-0.0148393 -0.00460494,-0.014491 -0.0058061,-0.0139172 -0.0069959,-0.0133588 -0.00388455,-0.00606567 0.427826,0 0,1 -1,0 0,-0.0545004 z "/>
<path fill="rgb(241,240,234)" stroke="rgb(241,240,234)" d="M 6.50812,2.49754 l 1,0 0,1 -1,0 0,-1 z "/>
<path fill="rgb(241,240,234)" stroke="rgb(241,240,234)" d="M 6.50812,3.49754 l 1,0 0,1 -1,0 0,-1 z "/>
<path fill="rgb(241,240,234)" stroke="rgb(241,240,234)" d="M 6.50812,4.50089 l 0,-0.00334751 1,0 0,1 -0.256347,0 0,-0.296652 -0.00266371,-0.061009 -0.00797086,-0.0605447 -0.0132173,-0.0596196 -0.0183632,-0.0582408 -0.0233694,-0.0564187 -0.0281977,-0.0541672 -0.0328114,-0.0515035 -0.0371753,-0.0484478 -0.0412564,-0.0450234 -0.0450234,-0.0412564 -0.0484478,-0.0371753 -0.0515035,-0.0328114 -0.0541672,-0.0281977 -0.0564187,-0.0233694 -0.0582408,-0.0183632 -0.0596196,-0.0132173 -0.0605447,-0.00797086 -0.061009,-0.00266371 -0.0436525,0 z "/>
<path fill="rgb(241,240,234)" stroke="rgb(241,240,234)" d="M 7.25177,5.49754 l 0.256347,0 0,1 -0.256347,0 0,-1 z "/>
<path fill="rgb(241,240,234)" stroke="rgb(241,240,234)" d="M 7.25177,6.49754 l 0.256347,0 0,1 -0.256347,0 -1.77636e-15,-1 z "/>
<path fill="rgb(241,240,234)" stroke="rgb(241,240,234)" d="M 7.25177,7.49754 l 0.256347,0 0,0.753348 -0.256347,0 0,-0.753348 z "/>
<path fill="rgb(241,240,234)" stroke="rgb(241,240,234)" d="M 7.50812,0.497542 l 1,0 0,1 -1,0 0,-1 z "/>
<path fill="rgb(241,240,234)" stroke="rgb(241,240,234)" d="M 7.50812,1.49754 l 1,0 0,1 -1,0 0,-1 z "/>
<path fill="rgb(241,240,234)" stroke="rgb(241,240,234)" d="M 7.50812,2.49754 l 1,0 0,1 -1,0 0,-1 z "/>
<path fill="rgb(241,240,234)" stroke="rgb(241,240,234)" d="M 7.50812,3.49754 l 1,0 0,1 -1,0 0,-1 z "/>
<path fill="rgb(241,240,234)" stroke="rgb(241,240,234)" d="M 7.50812,4.49754 l 1,0 0,1 -1,0 0,-1 z "/>
<path fill="rgb(241,240,234)" stroke="rgb(241,240,234)" d="M 7.50812,5.49754 l 1,0 0,1 -1,0 0,-1 z "/>
<path fill="rgb(241,240,234)" stroke="rgb(241,240,234)" d="M 7.50812,6.49754 l 1,0 0,1 -1,0 0,-1 z "/>
<path fill="rgb(241,240,234)" stroke="rgb(241,240,234)" d="M 7.50812,8.25089 l 0,-0.753348 1,0 0,0.753348 -1,0 z "/>
<path fill="rgb(241,240,234)" stroke="rgb(241,240,234)" d="M 8.50812,1.49754 l 0,-1 0.740678,8.88178e-15 0.0228784,0.000998892 0.0227043,0.00298907 0.0223574,0.00495651 0.0218403,0.00688622 0.021157,0.00876352 0.0203127,0.0105741 0.0193138,0.0123043 0.0181679,0.0139407 0.0168838,0.0154711 0.0154711,0.0168838 0.0139407,0.0181679 0.0123043,0.0193138 0.0105741,0.0203127 0.00876352,0.021157 0.00688622,0.0218403 0.00495651,0.0223574 0.000810295,0.0061548 0,0.776928 -1,0 z "/>
<path fill="rgb(241,240,234)" stroke="rgb(241,240,234)" d="M 8.50812,1.49754 l 1,0 0,1 -1,0 0,-1 z "/>
<path fill="rgb(241,240,234)" stroke="rgb(241,240,234)" d="M 8.50812,2.49754 l 1,0 0,1 -1,0 0,-1 z "/>
<path fill="rgb(241,240,234)" stroke="rgb(241,240,234)" d="M 8.50812,3.49754 l 1,0 0,1 -1,0 0,-1 z "/>
<path fill="rgb(241,240,234)" stroke="rgb(241,240,234)" d="M 8.50812,4.49754 l 1,0 0,1 -1,0 0,-1 z "/>
<path fill="rgb(241,240,234)" stroke="rgb(241,240,234)" d="M 8.50812,5.49754 l 1,0 0,1 -1,0 0,-1 z "/>
<path fill="rgb(241,240,234)" stroke="rgb(241,240,234)" d="M 8.50812,6.49754 l 1,0 0,1 -1,0 0,-1 z "/>
<path fill="rgb(241,240,234)" stroke="rgb(241,240,234)" d="M 8.50812,8.25089 l 0,-0.753348 1,0 0,0.753348 -1,0 z "/>
<path fill="rgb(241,240,234)" stroke="rgb(241,240,234)" d="M 9.50812,1.49754 l 0,-0.776928 0.00217878,0.0165495 0.000998892,0.0228784 0,0.7375 -0.00317767,0 z "/>
<path fill="rgb(241,240,234)" stroke="rgb(241,240,234)" d="M 9.51129,1.49754 l 0,1 -0.00317767,0 0,-1 0.00317767,0 z "/>
<path fill="rgb(241,240,234)" stroke="rgb(241,240,234)" d="M 9.51129,2.49754 l 0,1 -0.00317767,0 0,-1 0.00317767,0 z "/>
<path fill="rgb(241,240,234)" stroke="rgb(241,240,234)" d="M 9.51129,3.49754 l 0,1 -0.00317767,0 0,-1 0.00317767,0 z "/>
<path fill="rgb(241,240,234)" stroke="rgb(241,240,234)" d="M 9.51129,4.49754 l 0,1 -0.00317767,0 0,-1 0.00317767,0 z "/>
<path fill="rgb(241,240,234)" stroke="rgb(241,240,234)" d="M 9.51129,5.49754 l 0,1 -0.00317767,0 0,-1 0.00317767,0 z "/>
<path fill="rgb(241,240,234)" stroke="rgb(241,240,234)" d="M 9.51129,6.49754 l 1.77636e-15,1 -0.00317767,0 0,-1 0.00317767,0 z "/>
<path fill="rgb(241,240,234)" stroke="rgb(241,240,234)" d="M 1.50812,2.49754 l 1,0 0,1 -1,0 0,-1 z "/>
<path fill="rgb(241,240,234)" stroke="rgb(241,240,234)" d="M 1.50812,0.497542 l 0,1 -1,0 0,-0.7375 0.000998892,-0.0228784 0.00298907,-0.0227043 0.00495651,-0.0223574 0.00688622,-0.0218403 0.00876352,-0.021157 0.0105741,-0.0203127 0.0123043,-0.0193138 0.0139407,-0.0181679 0.0154711,-0.0168838 0.0168838,-0.0154711 0.0181679,-0.0139407 0.0193138,-0.0123043 0.0203127,-0.0105741 0.021157,-0.00876352 0.0218403,-0.00688622 0.0223574,-0.00495651 0.0227043,-0.00298907 0.0228784,-0.000998892 0.7375,0 z "/>
<path fill="rgb(241,240,234)" stroke="rgb(241,240,234)" d="M 0.508116,1.49754 l 1,0 0,1 -1,0 0,-1 z "/>
<path fill="rgb(241,240,234)" stroke="rgb(241,240,234)" d="M 0.508116,2.49754 l 1,0 0,1 -1,0 0,-1 z "/>
<path fill="rgb(241,240,234)" stroke="rgb(241,240,234)" d="M 0.508116,3.49754 l 1,0 0,1 -1,0 0,-1 z "/>
<path fill="rgb(241,240,234)" stroke="rgb(241,240,234)" d="M 0.508116,4.49754 l 1,0 0,1 -1,0 0,-1 z "/>
<path fill="rgb(241,240,234)" stroke="rgb(241,240,234)" d="M 0.508116,5.49754 l 1,0 0,1 -1,0 0,-1 z "/>
<path fill="rgb(241,240,234)" stroke="rgb(241,240,234)" d="M 0.508116,6.49754 l 1,0 0,1 -1,0 0,-1 z "/>
<path fill="rgb(241,240,234)" stroke="rgb(241,240,234)" d="M 0.508116,7.49754 l 1,0 0,0.753348 -1,0 0,-0.753348 z "/>
<path fill="rgb(241,240,234)" stroke="rgb(241,240,234)" d="M 1.50812,0.497542 l 1,0 0,1 -1,0 0,-1 z "/>
<path fill="rgb(241,240,234)" stroke="rgb(241,240,234)" d="M 1.50812,1.49754 l 1,0 0,1 -1,0 0,-1 z "/>
<path fill="rgb(241,240,234)" stroke="rgb(241,240,234)" d="M 1.50812,3.49754 l 1,0 0,1 -1,0 0,-1 z "/>
<path fill="rgb(241,240,234)" stroke="rgb(241,240,234)" d="M 1.50812,4.49754 l 1,0 0,1 -1,0 0,-1 z "/>
<path fill="rgb(241,240,234)" stroke="rgb(241,240,234)" d="M 1.50812,5.49754 l 1,0 0,1 -1,0 0,-1 z "/>
<path fill="rgb(241,240,234)" stroke="rgb(241,240,234)" d="M 1.50812,6.49754 l 1,0 0,1 -1,0 0,-1 z "/>
<path fill="rgb(241,240,234)" stroke="rgb(241,240,234)" d="M 1.50812,7.49754 l 1,0 0,0.753348 -1,0 0,-0.753348 z "/>
<path fill="rgb(241,240,234)" stroke="rgb(241,240,234)" d="M 2.94207,1.49754 l -0.433958,0 0,-1 1,0 0,1 -0.168067,0 -0.00861574,-0.0112283 -0.0146467,-0.0159841 -0.0159841,-0.0146467 -0.0171998,-0.0131979 -0.0182847,-0.0116486 -0.0192303,-0.0100107 -0.0200296,-0.00829655 -0.0206765,-0.00651928 -0.021166,-0.00469239 -0.0214945,-0.0028298 -0.0216593,-0.000945665 -0.0216593,0.000945665 -0.0214945,0.0028298 -0.021166,0.00469239 -0.0206765,0.00651928 -0.0200296,0.00829655 -0.0192303,0.0100107 -0.0182847,0.0116486 -0.0171998,0.0131979 -0.0159841,0.0146467 -0.0146467,0.0159841 -0.00861574,0.0112283 z "/>
<path fill="rgb(241,240,234)" stroke="rgb(241,240,234)" d="M 2.7084,2.49754 l -0.200281,0 0,-1 0.433958,0 -0.00458216,0.00597159 -0.0116486,0.0182847 -0.0100107,0.0192303 -0.00829655,0.0200296 -0.00651928,0.0206765 -0.00469239,0.021166 -0.0028298,0.0214945 -0.000945665,0.0216593 0.000945665,0.0216593 0.0028298,0.0214945 0.00469239,0.021166 0.00651928,0.0206765 0.00829655,0.0200296 0.0100107,0.0192303 0.0116486,0.0182847 0.0131979,0.0171998 0.0146467,0.0159841 0.0159841,0.0146467 0.0171998,0.0131979 0.0182847,0.0116486 0.0192303,0.0100107 0.0200296,0.00829655 0.0206765,0.00651928 0.021166,0.00469239 0.0214945,0.0028298 0.0216593,0.000945665 0.0216593,-0.000945665 0.0214945,-0.0028298 0.021166,-0.00469239 0.0206765,-0.00651928 0.0200296,-0.00829655 0.0192303,-0.0100107 0.0182847,-0.0116486 0.0171998,-0.0131979 0.0159841,-0.0146467 0.0146467,-0.0159841 0.0131979,-0.0171998 0.0116486,-0.0182847 0.0100107,-0.0192303 0.00829655,-0.0200296 0.00651928,-0.0206765 0.00469239,-0.021166 0.0028298,-0.0214945 0.000945665,-0.0216593 -0.000945665,-0.0216593 -0.0028298,-0.0214945 -0.00469239,-0.021166 -0.00651928,-0.0206765 -0.00829655,-0.0200296 -0.0100107,-0.0192303 -0.0116486,-0.0182847 -0.00458216,-0.00597159 0.168067,0 0,0.211279 -0.0629353,0 -0.0068345,0.0260861 -0.00907476,0.0253938 -0.0112464,0.0245094 -0.013333,0.0234398 -0.0153189,0.022193 -0.0171889,0.0207783 -0.0189289,0.0192066 -0.0205258,0.0174896 -0.0219675,0.0156404 -0.0232432,0.0136729 -0.0243431,0.0116021 -0.0252589,0.00944356 -0.0259838,0.00721361 -0.0265122,0.00492912 -0.0268402,0.00260736 -0.0269652,0.000265889 -0.0268864,-0.00207759 -0.0266043,-0.00440537 -0.026121,-0.00669983 -0.0254402,-0.00894364 -0.0245671,-0.0111198 -0.0235083,-0.0132119 -0.0222717,-0.0152042 -0.0208667,-0.0170814 -0.0193039,-0.0188296 -0.0175952,-0.0204353 -0.0157535,-0.0218866 -0.0137927,-0.0231723 -0.0117275,-0.0242829 -0.00957374,-0.0252099 -0.00734756,-0.0259463 -0.00506582,-0.0264864 -0.00274579,-0.0268264 -0.265309,0 0,0.0852264 0.0473766,0 -0.0284259,0.369315 0.122311,0.381528 z M 3.50812,2.08931 l 0,0.40823 -0.181847,0 0.0215194,-0.253689 0,-0.23955 0.0996882,0 0,0.0850087 0.0606395,0 z "/>
<path fill="rgb(241,240,234)" stroke="rgb(241,240,234)" d="M 2.7084,2.49754 l 0.0340318,0.106156 0.574836,0 0.00900484,-0.106156 0.181847,0 0,1 -1,0 0,-1 0.200281,0 z "/>
<path fill="rgb(241,240,234)" stroke="rgb(241,240,234)" d="M 2.50812,3.49754 l 1,0 0,1 -1,0 0,-1 z "/>
<path fill="rgb(241,240,234)" stroke="rgb(241,240,234)" d="M 2.50812,4.49754 l 1,0 0,0.00334751 -0.0563475,0 -0.061009,0.00266371 -0.0605447,0.00797086 -0.0596196,0.0132173 -0.0582408,0.0183632 -0.0564187,0.0233694 -0.0541672,0.0281977 -0.0515035,0.0328114 -0.0484478,0.0371753 -0.0450234,0.0412564 -0.0412564,0.0450234 -0.0371753,0.0484478 -0.0328114,0.0515035 -0.0281977,0.0541672 -0.0233694,0.0564187 -0.0183632,0.0582408 -0.0132173,0.0596196 -0.00797086,0.0605447 -0.00266371,0.061009 0,0.296652 -0.243653,0 0,-1 z "/>
<path fill="rgb(241,240,234)" stroke="rgb(241,240,234)" d="M 2.75177,5.49754 l 0,1 -0.243653,0 0,-1 0.243653,0 z "/>
<path fill="rgb(241,240,234)" stroke="rgb(241,240,234)" d="M 2.75177,6.49754 l 0,1 -0.243653,0 0,-1 0.243653,0 z "/>
<path fill="rgb(241,240,234)" stroke="rgb(241,240,234)" d="M 2.50812,7.49754 l 0.243653,0 0,0.753348 -0.243653,0 0,-0.753348 z "/>
<path fill="rgb(241,240,234)" stroke="rgb(241,240,234)" d="M 4.18909,1.49754 l -0.680972,0 0,-1 1,0 0,0.9311 -0.0150144,-0.00781598 -0.0200296,-0.00829655 -0.0206765,-0.00651928 -0.021166,-0.00469239 -0.0214945,-0.0028298 -0.0216593,-0.000945665 -0.0216593,0.000945665 -0.0214945,0.0028298 -0.021166,0.00469239 -0.0206765,0.00651928 -0.0200296,0.00829655 -0.0192303,0.0100107 -0.0182847,0.0116486 -0.0171998,0.0131979 -0.0159841,0.0146467 -0.0146467,0.0159841 -0.00861574,0.0112283 z "/>
<path fill="rgb(241,240,234)" stroke="rgb(241,240,234)" d="M 3.50812,1.49754 l 0.680972,0 -0.00458216,0.00597159 -0.0116486,0.0182847 -0.0100107,0.0192303 -0.00829655,0.0200296 -0.00651928,0.0206765 -0.00469239,0.021166 -0.0028298,0.0214945 -0.000945665,0.0216593 0.000945665,0.0216593 0.0028298,0.0214945 0.00469239,0.021166 0.00651928,0.0206765 0.00829655,0.0200296 0.0100107,0.0192303 0.0116486,0.0182847 0.0131979,0.0171998 0.0146467,0.0159841 0.0159841,0.0146467 0.0171998,0.0131979 0.0182847,0.0116486 0.0192303,0.0100107 0.0200296,0.00829655 0.0206765,0.00651928 0.021166,0.00469239 0.0214945,0.0028298 0.0216593,0.000945665 0.0216593,-0.000945665 0.0214945,-0.0028298 0.021166,-0.00469239 0.0206765,-0.00651928 0.0200296,-0.00829655 0.0150144,-0.00781598 0,0.0779944 -0.174372,-8.58929e-05 -0.0216843,-0.00117866 -0.0214933,-0.00310428 -0.0211316,-0.00500526 -0.0206022,-0.00686649 -0.0199092,-0.0086732 -0.019058,-0.0104111 -0.0180556,-0.0120662 -0.0169098,-0.0136256 -0.0156297,-0.0150768 -0.0142256,-0.0164083 -0.0127085,-0.0176095 -0.0110904,-0.0186709 -0.00938437,-0.019584 -0.00760378,-0.0203416 -0.00576281,-0.0209377 -0.00387609,-0.0213676 -0.00195859,-0.0216278 -0.584544,0 0,-0.211279 z M 3.50812,2.08931 l 0.149078,0 0.737073,0.40823 -0.886151,0 0,-0.40823 z "/>
<path fill="rgb(241,240,234)" stroke="rgb(241,240,234)" d="M 4.39427,2.49754 l 0.113849,0.0630559 0,0.936944 -1,0 0,-1 0.886151,0 z "/>
<path fill="rgb(241,240,234)" stroke="rgb(241,240,234)" d="M 3.50812,3.49754 l 1,0 0,1 -1,0 0,-1 z "/>
<path fill="rgb(241,240,234)" stroke="rgb(241,240,234)" d="M 3.50812,4.49754 l 1,0 0,0.00334751 -1,8.88178e-16 0,-0.00334751 z "/>
<path fill="rgb(241,240,234)" stroke="rgb(241,240,234)" d="M 6.66302,2.08619 l 0.0795722,0.216882 0.202036,-0.0741255 0.00362967,-0.00135726 0.00350145,-0.00166028 0.00334799,-0.00195132 0.00317039,-0.0022283 0.00296993,-0.00248921 0.00274806,-0.00273218 0.00250638,-0.00295545 0.00224664,-0.00315742 0.00197069,-0.00333662 0.00168054,-0.00349177 0.111866,-0.260152 -0.421246,0.142755 z "/>
<path fill="rgb(241,240,234)" stroke="rgb(241,240,234)" d="M 6.03959,2.29807 l 0.301461,0.13716 0.00378018,0.00165737 0.00391382,0.00131098 0.00401579,0.000953982 0.00408527,0.000589264 0.0041217,0.000219778 0.00412477,-0.000151485 0.00409447,-0.000521523 0.00403104,-0.000887342 0.003935,-0.00124598 0.317906,-0.116637 -0.0801178,-0.218369 -0.575351,0.195921 z "/>
<path fill="rgb(241,240,234)" stroke="rgb(241,240,234)" d="M 5.0325,2.67413 l -0.552068,-0.51313 -0.535972,0 1.08804,0.614469 0,-0.101339 z "/>
<path fill="rgb(241,240,234)" stroke="rgb(241,240,234)" d="M 3.19183,2.23196 l -0.437368,0 0.0936064,0.279037 0.343761,0 0,-0.279037 z "/>
<path fill="rgb(0,91,140)" stroke="rgb(0,91,140)" d="M 5.00177,4.90089 l 1.55,0 0.0261467,0.00114159 0.0259477,0.00341608 0.0255513,0.00566458 0.0249603,0.00786996 0.0241794,0.0100155 0.0232145,0.0120847 0.0220729,0.014062 0.0207634,0.0159323 0.0192958,0.0176813 0.0176813,0.0192958 0.0159323,0.0207634 0.014062,0.0220729 0.0120847,0.0232145 0.0100155,0.0241794 0.00786996,0.0249603 0.00566458,0.0255513 0.00341608,0.0259477 0.00114159,0.0261467 1.77636e-15,6.1 -0.00114159,0.0261467 -0.00341608,0.0259477 -0.00566458,0.0255513 -0.00786996,0.0249603 -0.0100155,0.0241794 -0.0120847,0.0232145 -0.014062,0.0220729 -0.0159323,0.0207634 -0.0176813,0.0192958 -0.0192958,0.0176813 -0.0207634,0.0159323 -0.0220729,0.014062 -0.0232145,0.0120847 -0.0241794,0.0100155 -0.0249603,0.00786996 -0.0255513,0.00566458 -0.0259477,0.00341608 -0.0261467,0.00114159 -1.55,0 -1.55,0 -0.0261467,-0.00114159 -0.0259477,-0.00341608 -0.0255513,-0.00566458 -0.0249603,-0.00786996 -0.0241794,-0.0100155 -0.0232145,-0.0120847 -0.0220729,-0.014062 -0.0207634,-0.0159323 -0.0192958,-0.0176813 -0.0176813,-0.0192958 -0.0159323,-0.0207634 -0.014062,-0.0220729 -0.0120847,-0.0232145 -0.0100155,-0.0241794 -0.00786996,-0.0249603 -0.00566458,-0.0255513 -0.00341608,-0.0259477 -0.00114159,-0.0261467 -4.44089e-16,-6.1 0.00114159,-0.0261467 0.00341608,-0.0259477 0.00566458,-0.0255513 0.00786996,-0.0249603 0.0100155,-0.0241794 0.0120847,-0.0232145 0.014062,-0.0220729 0.0159323,-0.0207634 0.0176813,-0.0192958 0.0192958,-0.0176813 0.0207634,-0.0159323 0.0220729,-0.014062 0.0232145,-0.0120847 0.0241794,-0.0100155 0.0249603,-0.00786996 0.0255513,-0.00566458 0.0259477,-0.00341608 0.0261467,-0.00114159 1.55,0 z "/>
<path fill="rgb(0,91,140)" stroke="rgb(0,91,140)" d="M 6.55177,12.0009 l -1.55,0 -8.88178e-16,-0.2 1.55,0 0.0435779,-0.00190265 0.0432462,-0.00569347 0.0425854,-0.00944096 0.0416005,-0.0131166 0.0402991,-0.0166924 0.0386909,-0.0201412 0.0367882,-0.0234367 0.0346056,-0.0265538 0.0321596,-0.0294688 0.0294688,-0.0321596 0.0265538,-0.0346056 0.0234367,-0.0367882 0.0201412,-0.0386909 0.0166924,-0.0402991 0.0131166,-0.0416005 0.00944096,-0.0425854 0.00569347,-0.0432462 0.00190265,-0.0435779 0,-6.1 -0.00190265,-0.0435779 -0.00569347,-0.0432462 -0.00944096,-0.0425854 -0.0131166,-0.0416005 -0.0166924,-0.0402991 -0.0201412,-0.0386909 -0.0234367,-0.0367882 -0.0265538,-0.0346056 -0.0294688,-0.0321596 -0.0321596,-0.0294688 -0.0346056,-0.0265538 -0.0367882,-0.0234367 -0.0386909,-0.0201412 -0.0402991,-0.0166924 -0.0416005,-0.0131166 -0.0425854,-0.00944096 -0.0432462,-0.00569347 -0.0435779,-0.00190265 -1.55,8.88178e-16 0,-0.2 1.55,0 0.061009,0.00266371 0.0605447,0.00797086 0.0596196,0.0132173 0.0582408,0.0183632 0.0564187,0.0233694 0.0541672,0.0281977 0.0515035,0.0328114 0.0484478,0.0371753 0.0450234,0.0412564 0.0412564,0.0450234 0.0371753,0.0484478 0.0328114,0.0515035 0.0281977,0.0541672 0.0233694,0.0564187 0.0183632,0.0582408 0.0132173,0.0596196 0.00797086,0.0605447 0.00266371,0.061009 1.77636e-15,3.05 0,3.05 -0.00266371,0.061009 -0.00797086,0.0605447 -0.0132173,0.0596196 -0.0183632,0.0582408 -0.0233694,0.0564187 -0.0281977,0.0541672 -0.0328114,0.0515035 -0.0371753,0.0484478 -0.0412564,0.0450234 -0.0450234,0.0412564 -0.0484478,0.0371753 -0.0515035,0.0328114 -0.0541672,0.0281977 -0.0564187,0.0233694 -0.0582408,0.0183632 -0.0596196,0.0132173 -0.0605447,0.00797086 -0.061009,0.00266371 z "/>
<path fill="rgb(0,91,140)" stroke="rgb(0,91,140)" d="M 2.75177,11.3009 l 0,-3.05 0,-3.05 0.00266371,-0.061009 0.00797086,-0.0605447 0.0132173,-0.0596196 0.0183632,-0.0582408 0.0233694,-0.0564187 0.0281977,-0.0541672 0.0328114,-0.0515035 0.0371753,-0.0484478 0.0412564,-0.0450234 0.0450234,-0.0412564 0.0484478,-0.0371753 0.0515035,-0.0328114 0.0541672,-0.0281977 0.0564187,-0.0233694 0.0582408,-0.0183632 0.0596196,-0.0132173 0.0605447,-0.00797086 0.061009,-0.00266371 1.55,-8.88178e-16 0,0.2 -1.55,8.88178e-16 -0.0435779,0.00190265 -0.0432462,0.00569347 -0.0425854,0.00944096 -0.0416005,0.0131166 -0.0402991,0.0166924 -0.0386909,0.0201412 -0.0367882,0.0234367 -0.0346056,0.0265538 -0.0321596,0.0294688 -0.0294688,0.0321596 -0.0265538,0.0346056 -0.0234367,0.0367882 -0.0201412,0.0386909 -0.0166924,0.0402991 -0.0131166,0.0416005 -0.00944096,0.0425854 -0.00569347,0.0432462 -0.00190265,0.0435779 0,6.1 0.00190265,0.0435779 0.00569347,0.0432462 0.00944096,0.0425854 0.0131166,0.0416005 0.0166924,0.0402991 0.0201412,0.0386909 0.0234367,0.0367882 0.0265538,0.0346056 0.0294688,0.0321596 0.0321596,0.0294688 0.0346056,0.0265538 0.0367882,0.0234367 0.0386909,0.0201412 0.0402991,0.0166924 0.0416005,0.0131166 0.0425854,0.00944096 0.0432462,0.00569347 0.0435779,0.00190265 1.55,0 8.88178e-16,0.2 -1.55,0 -0.061009,-0.00266371 -0.0605447,-0.00797086 -0.0596196,-0.0132173 -0.0582408,-0.0183632 -0.0564187,-0.0233694 -0.0541672,-0.0281977 -0.0515035,-0.0328114 -0.0484478,-0.0371753 -0.0450234,-0.0412564 -0.0412564,-0.0450234 -0.0371753,-0.0484478 -0.0328114,-0.0515035 -0.0281977,-0.0541672 -0.0233694,-0.0564187 -0.0183632,-0.0582408 -0.0132173,-0.0596196 -0.00797086,-0.0605447 -0.00266371,-0.061009 z "/>
<path fill="rgb(241,240,234)" stroke="rgb(241,240,234)" d="M 5.00177,4.90089 l 0,-0.2 1.55,-8.88178e-16 0.0435779,0.00190265 0.0432462,0.00569347 0.0425854,0.00944096 0.0416005,0.0131166 0.0402991,0.0166924 0.0386909,0.0201412 0.0367882,0.0234367 0.0346056,0.0265538 0.0321596,0.0294688 0.0294688,0.0321596 0.0265538,0.0346056 0.0234367,0.0367882 0.0201412,0.0386909 0.0166924,0.0402991 0.0131166,0.0416005 0.00944096,0.0425854 0.00569347,0.0432462 0.00190265,0.0435779 0,6.1 -0.00190265,0.0435779 -0.00569347,0.0432462 -0.00944096,0.0425854 -0.0131166,0.0416005 -0.0166924,0.0402991 -0.0201412,0.0386909 -0.0234367,0.0367882 -0.0265538,0.0346056 -0.0294688,0.0321596 -0.0321596,0.0294688 -0.0346056,0.0265538 -0.0367882,0.0234367 -0.0386909,0.0201412 -0.0402991,0.0166924 -0.0416005,0.0131166 -0.0425854,0.00944096 -0.0432462,0.00569347 -0.0435779,0.00190265 -1.55,0 0,-0.2 1.55,0 0.0261467,-0.00114159 0.0259477,-0.00341608 0.0255513,-0.00566458 0.0249603,-0.00786996 0.0241794,-0.0100155 0.0232145,-0.0120847 0.0220729,-0.014062 0.0207634,-0.0159323 0.0192958,-0.0176813 0.0176813,-0.0192958 0.0159323,-0.0207634 0.014062,-0.0220729 0.0120847,-0.0232145 0.0100155,-0.0241794 0.00786996,-0.0249603 0.00566458,-0.0255513 0.00341608,-0.0259477 0.00114159,-0.0261467 -1.77636e-15,-6.1 -0.00114159,-0.0261467 -0.00341608,-0.0259477 -0.00566458,-0.0255513 -0.00786996,-0.0249603 -0.0100155,-0.0241794 -0.0120847,-0.0232145 -0.014062,-0.0220729 -0.0159323,-0.0207634 -0.0176813,-0.0192958 -0.0192958,-0.0176813 -0.0207634,-0.0159323 -0.0220729,-0.014062 -0.0232145,-0.0120847 -0.0241794,-0.0100155 -0.0249603,-0.00786996 -0.0255513,-0.00566458 -0.0259477,-0.00341608 -0.0261467,-0.00114159 -1.55,0 z "/>
<path fill="rgb(241,240,234)" stroke="rgb(241,240,234)" d="M 5.00177,4.90089 l -1.55,0 -0.0261467,0.00114159 -0.0259477,0.00341608 -0.0255513,0.00566458 -0.0249603,0.00786996 -0.0241794,0.0100155 -0.0232145,0.0120847 -0.0220729,0.014062 -0.0207634,0.0159323 -0.0192958,0.0176813 -0.0176813,0.0192958 -0.0159323,0.0207634 -0.014062,0.0220729 -0.0120847,0.0232145 -0.0100155,0.0241794 -0.00786996,0.0249603 -0.00566458,0.0255513 -0.00341608,0.0259477 -0.00114159,0.0261467 4.44089e-16,6.1 0.00114159,0.0261467 0.00341608,0.0259477 0.00566458,0.0255513 0.00786996,0.0249603 0.0100155,0.0241794 0.0120847,0.0232145 0.014062,0.0220729 0.0159323,0.0207634 0.0176813,0.0192958 0.0192958,0.0176813 0.0207634,0.0159323 0.0220729,0.014062 0.0232145,0.0120847 0.0241794,0.0100155 0.0249603,0.00786996 0.0255513,0.00566458 0.0259477,0.00341608 0.0261467,0.00114159 1.55,0 0,0.2 -1.55,0 -0.0435779,-0.00190265 -0.0432462,-0.00569347 -0.0425854,-0.00944096 -0.0416005,-0.0131166 -0.0402991,-0.0166924 -0.0386909,-0.0201412 -0.0367882,-0.0234367 -0.0346056,-0.0265538 -0.0321596,-0.0294688 -0.0294688,-0.0321596 -0.0265538,-0.0346056 -0.0234367,-0.0367882 -0.0201412,-0.0386909 -0.0166924,-0.0402991 -0.0131166,-0.0416005 -0.00944096,-0.0425854 -0.00569347,-0.0432462 -0.00190265,-0.0435779 0,-6.1 0.00190265,-0.0435779 0.00569347,-0.0432462 0.00944096,-0.0425854 0.0131166,-0.0416005 0.0166924,-0.0402991 0.0201412,-0.0386909 0.0234367,-0.0367882 0.0265538,-0.0346056 0.0294688,-0.0321596 0.0321596,-0.0294688 0.0346056,-0.0265538 0.0367882,-0.0234367 0.0386909,-0.0201412 0.0402991,-0.0166924 0.0416005,-0.0131166 0.0425854,-0.00944096 0.0432462,-0.00569347 0.0435779,-0.00190265 1.55,-8.88178e-16 0,0.2 z "/>
<path fill="rgb(241,240,234)" stroke="rgb(241,240,234)" d="M 10.0035,8.25089 l -0.229744,0 0,-7.49085 -0.00199778,-0.0457568 -0.00597815,-0.0454085 -0.00991301,-0.0447147 -0.0137724,-0.0436806 -0.017527,-0.042314 -0.0211483,-0.0406254 -0.0246085,-0.0386276 -0.0278815,-0.0363359 -0.0309423,-0.0337676 -0.0337676,-0.0309423 -0.0363359,-0.0278815 -0.0386276,-0.0246085 -0.0406254,-0.0211483 -0.042314,-0.017527 -0.0436806,-0.0137724 -0.0447147,-0.00991301 -0.0454085,-0.00597815 -0.0457568,-0.00199778 -8.47818,-7.10543e-15 -0.0457568,0.00199778 -0.0454085,0.00597815 -0.0447147,0.00991301 -0.0436806,0.0137724 -0.042314,0.017527 -0.0406254,0.0211483 -0.0386276,0.0246085 -0.0363359,0.0278815 -0.0337676,0.0309423 -0.0309423,0.0337676 -0.0278815,0.0363359 -0.0246085,0.0386276 -0.0211483,0.0406254 -0.017527,0.042314 -0.0137724,0.0436806 -0.00991301,0.0447147 -0.00597815,0.0454085 -0.00199778,0.0457568 0,7.49085 -0.245616,0 0,-8.25089 10.0035,3.55271e-15 -1.77636e-15,8.25089 z "/>
<path fill="rgb(241,240,234)" stroke="rgb(241,240,234)" d="M 10.0035,8.25089 l -1.77636e-15,6.25089 -10.0035,0 0,-6.25089 0.245616,0 0,5.48553 0.00199778,0.0457568 0.00597815,0.0454085 0.00991301,0.0447147 0.0137724,0.0436806 0.017527,0.042314 0.0211483,0.0406254 0.0246085,0.0386276 0.0278815,0.0363359 0.0309423,0.0337676 0.0337676,0.0309423 0.0363359,0.0278815 0.0386276,0.0246085 0.0406254,0.0211483 0.042314,0.017527 0.0436806,0.0137724 0.0447147,0.00991301 0.0454085,0.00597815 0.0457568,0.00199778 8.47818,1.06581e-14 0.0457568,-0.00199778 0.0454085,-0.00597815 0.0447147,-0.00991301 0.0436806,-0.0137724 0.042314,-0.017527 0.0406254,-0.0211483 0.0386276,-0.0246085 0.0363359,-0.0278815 0.0337676,-0.0309423 0.0309423,-0.0337676 0.0278815,-0.0363359 0.0246085,-0.0386276 0.0211483,-0.0406254 0.017527,-0.042314 0.0137724,-0.0436806 0.00991301,-0.0447147 0.00597815,-0.0454085 0.00199778,-0.0457568 1.77636e-15,-5.48553 0.229744,0 z "/>
<path fill="rgb(241,240,234)" stroke="rgb(241,240,234)" d="M 6.51573,6.05354 l -0.0493287,-0.00730795 -0.0438477,-0.0200969 -0.0200969,-0.0237508 0.1151,-0.0365397 0.0493287,-0.00548096 0.0475017,-0.0237508 0.0292318,0.0803874 -0.0292318,0.0146159 -0.0493287,0.0164429 -0.0493287,0.00548096 z "/>
<path fill="rgb(241,240,234)" stroke="rgb(241,240,234)" d="M 6.40246,6.00239 l -0.0146159,-0.0511556 0.00730795,-0.0365397 0.0292318,-0.0438477 0.0383667,-0.0237508 0.0566366,-0.0200969 0.0365397,-0.0109619 0.0200969,-0.0292318 -0.00548096,-0.0146159 -0.0529826,-0.0109619 0.124235,-0.0328858 0.0127889,0.0548096 -0.00730795,0.0401937 -0.0237508,0.0365397 -0.0401937,0.0274048 -0.0584636,0.0200969 -0.0456747,0.0146159 -0.0109619,0.0200969 0.00182699,0.00913494 0.0475017,0.0146159 -0.1151,0.0365397 z "/>
<path fill="rgb(241,240,234)" stroke="rgb(241,240,234)" d="M 6.40977,5.7868 l -0.0292318,-0.0803874 0.0365397,-0.0146159 0.0493287,-0.0127889 0.0548096,-0.00365397 0.00182699,0 0.0548096,0.00730795 0.0420207,0.0200969 0.0219238,0.0255778 -0.124235,0.0328858 -0.00913494,0 -0.0529826,0.0109619 -0.0456747,0.0146159 z "/>
<path fill="rgb(241,240,234)" stroke="rgb(241,240,234)" d="M 6.29102,6.05172 l -0.0200969,-0.00365397 -0.0438477,-0.0274048 0.0584636,-0.0548096 0.0420207,-0.0219238 0.0255778,0.0858684 -0.0127889,0.00913494 -0.0493287,0.0127889 z "/>
<path fill="rgb(241,240,234)" stroke="rgb(241,240,234)" d="M 6.22707,6.04623 l -0.0803874,0 0,-0.365397 0.0803874,0 0,0.213757 0,0.00182699 0.0182699,0.0493287 0.0401937,0.0200969 -0.0584636,0.0548096 0,0.0255778 z "/>
<path fill="rgb(241,240,234)" stroke="rgb(241,240,234)" d="M 5.94937,6.05172 l -0.0146159,-0.00182699 -0.0456747,-0.0164429 -0.0383667,-0.0365397 -0.0164429,-0.0255778 0.118754,-0.00182699 0.0347128,-0.0127889 0.0219238,-0.0511556 -0.116927,0 0.195488,-0.0274048 -0.0109619,0.0566366 -0.00365397,0.0127889 -0.0237508,0.0475017 -0.0109619,0.0146159 -0.0401937,0.0310588 -0.0493287,0.0109619 z "/>
<path fill="rgb(241,240,234)" stroke="rgb(241,240,234)" d="M 5.83427,5.97133 l -0.0182699,-0.0493287 -0.00548096,-0.0584636 0.00182699,-0.0347128 0.0127889,-0.0548096 0.0255778,-0.0456747 0.0127889,-0.0164429 0.0420207,-0.0292318 0.0475017,-0.0109619 0.0182699,0.00182699 0.0456747,0.0182699 0.0383667,0.0365397 0.00365397,0.00365397 -0.105965,0.0219238 -0.0383667,0.0200969 -0.0237508,0.0493287 -0.00182699,0.0127889 0.199142,0 0,0.0255778 0,0.0164429 -0.195488,0.0274048 0.0200969,0.0475017 0.0401937,0.0164429 -0.118754,0.00182699 z "/>
<path fill="rgb(241,240,234)" stroke="rgb(241,240,234)" d="M 6.00418,5.78498 l -0.00730795,-0.00913494 -0.0438477,-0.0219238 0.105965,-0.0219238 -0.0548096,0.0529826 z "/>
<path fill="rgb(241,240,234)" stroke="rgb(241,240,234)" d="M 5.74475,6.18874 l -0.0840414,-0.0328858 0,-0.13337 -0.155294,-0.0255778 -0.0146159,-0.0255778 0.120581,-0.00548096 0.0127889,-0.00182699 0.0365397,-0.0365397 0,-0.126062 -0.00913494,-0.0182699 -0.0401937,-0.0219238 -0.105965,-0.0292318 0.00548096,-0.00913494 0.149813,-0.0164429 0,-0.0255778 0.0840414,0 0,0.507902 z "/>
<path fill="rgb(241,240,234)" stroke="rgb(241,240,234)" d="M 5.59676,6.05537 l -0.00913494,-0.00182699 -0.0438477,-0.0164429 -0.0383667,-0.0401937 0.155294,0.0255778 -0.0292318,0.0255778 -0.0347128,0.00730795 z "/>
<path fill="rgb(241,240,234)" stroke="rgb(241,240,234)" d="M 5.4908,5.97133 l -0.0182699,-0.0511556 -0.00548096,-0.0584636 0,-0.0274048 0.0127889,-0.0548096 0.0255778,-0.0475017 0.105965,0.0292318 -0.00730795,0 -0.0401937,0.0292318 -0.00913494,0.0164429 -0.00913494,0.0566366 0,0.0219238 0.0182699,0.0511556 0.00365397,0.00548096 0.0438477,0.0237508 -0.120581,0.00548096 z "/>
<path fill="rgb(241,240,234)" stroke="rgb(241,240,234)" d="M 5.51089,5.72286 l 0.0401937,-0.0347128 0.0456747,-0.0127889 0.0347128,0.00730795 0.0292318,0.0237508 -0.149813,0.0164429 z "/>
<path fill="rgb(241,240,234)" stroke="rgb(241,240,234)" d="M 5.20396,6.04441 l -0.0803874,0 0,-0.250297 0.00548096,-0.0401937 0.13337,0.00730795 -0.0438477,0.0182699 -0.0146159,0.0475017 0,0.217411 z "/>
<path fill="rgb(241,240,234)" stroke="rgb(241,240,234)" d="M 5.39945,6.04441 l -0.0767335,0 0,-0.219238 -0.0182699,-0.0456747 -0.0420207,-0.0182699 -0.13337,-0.00730795 0.193661,-0.0438477 0,-0.0292318 0.0767335,0 0,0.36357 z "/>
<path fill="rgb(241,240,234)" stroke="rgb(241,240,234)" d="M 5.12905,5.75392 l 0.0274048,-0.0456747 0.0347128,-0.0219238 0.0529826,-0.0109619 0.0347128,0.00548096 0.0438477,0.0292318 -0.193661,0.0438477 z "/>
<path fill="rgb(241,240,234)" stroke="rgb(241,240,234)" d="M 4.91712,6.05537 l -0.0182699,-0.00182699 -0.0456747,-0.0164429 -0.0383667,-0.0383667 -0.0164429,-0.0255778 0.118754,-0.00730795 0.00365397,0 0.0401937,-0.0292318 0.00730795,-0.0146159 0.00913494,-0.0584636 -0.00182699,-0.0219238 -0.0146159,-0.0511556 -0.00365397,-0.00548096 -0.0401937,-0.0237508 0.116927,-0.00730795 0.0200969,0.0511556 0.00548096,0.0584636 -0.00182699,0.0347128 -0.0146159,0.0548096 -0.0255778,0.0456747 -0.0127889,0.0146159 -0.0401937,0.0310588 -0.0475017,0.0109619 z "/>
<path fill="rgb(241,240,234)" stroke="rgb(241,240,234)" d="M 4.79837,5.97316 l -0.0200969,-0.0511556 -0.00548096,-0.0584636 0.00182699,-0.0347128 0.0127889,-0.0529826 0.0274048,-0.0475017 0.0127889,-0.0146159 0.0401937,-0.0310588 0.0493287,-0.0109619 0.0164429,0.00182699 0.0456747,0.0164429 0.0383667,0.0383667 0.0164429,0.0255778 -0.116927,0.00730795 -0.00548096,0 -0.0420207,0.0292318 -0.00730795,0.0146159 -0.00913494,0.0584636 0.00182699,0.0219238 0.0146159,0.0511556 0.00365397,0.00548096 0.0438477,0.0237508 -0.118754,0.00730795 z "/>
<path fill="rgb(241,240,234)" stroke="rgb(241,240,234)" d="M 4.51518,6.18874 l -0.0822144,-0.0328858 0,-0.475017 0.0822144,0 0,0.213757 0,0.00913494 0.0164429,0.0456747 0.0420207,0.0164429 0.129716,0.00913494 -0.18818,0.0456747 0,0.168083 z "/>
<path fill="rgb(241,240,234)" stroke="rgb(241,240,234)" d="M 4.59009,6.05537 l -0.0383667,-0.00730795 -0.0365397,-0.0274048 0.18818,-0.0456747 -0.0274048,0.0456747 -0.0347128,0.0237508 -0.0511556,0.0109619 z "/>
<path fill="rgb(241,240,234)" stroke="rgb(241,240,234)" d="M 4.70336,5.97498 l -0.129716,-0.00913494 0.0438477,-0.0200969 0.0182699,-0.0475017 0,-0.217411 0.0749065,0 0,0.250297 -0.00730795,0.0438477 z "/>
<path fill="rgb(241,240,234)" stroke="rgb(241,240,234)" d="M 6.65459,6.77703 l -0.157121,0 0,0.0895224 0.157121,0 0,-0.0895224 z "/>
<path fill="rgb(241,240,234)" stroke="rgb(241,240,234)" d="M 6.28371,6.94877 l -0.0438477,-0.0127889 -0.0383667,-0.0401937 0.160775,0.0182699 -0.0328858,0.0255778 -0.0347128,0.00913494 -0.0109619,0 z "/>
<path fill="rgb(241,240,234)" stroke="rgb(241,240,234)" d="M 6.44266,6.93963 l -0.0803874,0 0,-0.0255778 -0.160775,-0.0182699 -0.0146159,-0.0310588 0.120581,-0.00548096 0.0164429,-0.00365397 0.0383667,-0.0347128 0,-0.129716 -0.0146159,-0.0182699 -0.0401937,-0.0219238 -0.105965,-0.0292318 0.00548096,-0.00913494 0.155294,-0.00730795 0,-0.0383667 -0.00548096,-0.0310588 -0.0292318,-0.0383667 -0.0511556,-0.0365397 0.0310588,-0.0785604 0.00913494,0.00365397 0.0255778,0.0127889 0.0420207,0.0274048 0.00365397,0.00365397 0.0328858,0.0438477 0.0164429,0.0420207 0.00548096,0.0621176 0,0.361743 z "/>
<path fill="rgb(241,240,234)" stroke="rgb(241,240,234)" d="M 6.18688,6.86472 l -0.0182699,-0.0511556 -0.00548096,-0.0584636 0.00182699,-0.0310588 0.0127889,-0.0548096 0.0237508,-0.0475017 0.105965,0.0292318 -0.00730795,0.00182699 -0.0401937,0.0292318 -0.00730795,0.0164429 -0.00913494,0.0566366 0.00182699,0.0237508 0.0146159,0.0511556 0.00365397,0.00548096 0.0438477,0.0237508 -0.120581,0.00548096 z "/>
<path fill="rgb(241,240,234)" stroke="rgb(241,240,234)" d="M 6.20697,6.6126 l 0.0401937,-0.0347128 0.0456747,-0.0109619 0.0274048,0.00548096 0.0420207,0.0328858 -0.155294,0.00730795 z "/>
<path fill="rgb(241,240,234)" stroke="rgb(241,240,234)" d="M 5.98043,6.94694 l -0.0383667,-0.00730795 -0.0383667,-0.0292318 0.190007,-0.0420207 -0.0274048,0.0456747 -0.0347128,0.0237508 -0.0511556,0.00913494 z "/>
<path fill="rgb(241,240,234)" stroke="rgb(241,240,234)" d="M 5.90369,6.93963 l -0.0822144,0 0,-0.365397 0.0822144,0 0,0.221065 0.0164429,0.0456747 0.0401937,0.0219238 0.13337,0.00548096 -0.190007,0.0420207 0,0.0292318 z "/>
<path fill="rgb(241,240,234)" stroke="rgb(241,240,234)" d="M 6.0937,6.86838 l -0.13337,-0.00548096 0.0438477,-0.0182699 0.0164429,-0.0493287 0,-0.221065 0.0803874,0 0,0.255778 -0.00730795,0.0383667 z "/>
<path fill="rgb(241,240,234)" stroke="rgb(241,240,234)" d="M 5.7009,7.08396 l -0.0292318,-0.0127889 -0.0127889,-0.0310588 0.0127889,-0.0328858 0.0292318,-0.0127889 0.0274048,0.0127889 0.0127889,0.0328858 -0.0127889,0.0310588 -0.0274048,0.0127889 z "/>
<path fill="rgb(241,240,234)" stroke="rgb(241,240,234)" d="M 5.74109,6.93963 l -0.0803874,0 0,-0.365397 0.0803874,0 0,0.365397 z "/>
<path fill="rgb(241,240,234)" stroke="rgb(241,240,234)" d="M 5.46156,6.94694 l -0.0365397,-0.00730795 -0.0401937,-0.0292318 0.191834,-0.0420207 -0.0274048,0.0456747 -0.0347128,0.0237508 -0.0529826,0.00913494 z "/>
<path fill="rgb(241,240,234)" stroke="rgb(241,240,234)" d="M 5.38483,6.93963 l -0.0803874,0 0,-0.365397 0.0803874,0 0,0.221065 0.0164429,0.0456747 0.0420207,0.0219238 0.13337,0.00548096 -0.191834,0.0420207 0,0.0292318 z "/>
<path fill="rgb(241,240,234)" stroke="rgb(241,240,234)" d="M 5.57666,6.86838 l -0.13337,-0.00548096 0.0438477,-0.0182699 0.0164429,-0.0493287 0,-0.221065 0.0785604,0 0,0.255778 -0.00548096,0.0383667 z "/>
<path fill="rgb(241,240,234)" stroke="rgb(241,240,234)" d="M 5.10713,6.94694 l -0.0365397,-0.00730795 -0.0401937,-0.0292318 0.191834,-0.0420207 -0.0274048,0.0456747 -0.0347128,0.0237508 -0.0529826,0.00913494 z "/>
<path fill="rgb(241,240,234)" stroke="rgb(241,240,234)" d="M 5.03039,6.93963 l -0.0803874,0 0,-0.365397 0.0803874,0 0,0.221065 0.0164429,0.0456747 0.0420207,0.0219238 0.13337,0.00548096 -0.191834,0.0420207 0,0.0292318 z "/>
<path fill="rgb(241,240,234)" stroke="rgb(241,240,234)" d="M 5.22223,6.86838 l -0.13337,-0.00548096 0.0438477,-0.0182699 0.0164429,-0.0493287 0,-0.221065 0.0785604,0 0,0.255778 -0.00548096,0.0383667 z "/>
<path fill="rgb(241,240,234)" stroke="rgb(241,240,234)" d="M 4.6723,6.9378 l -0.0803874,0 0,-0.250297 0.00548096,-0.0401937 0.13337,0.00730795 -0.0420207,0.0182699 -0.0164429,0.0475017 0,0.217411 z "/>
<path fill="rgb(241,240,234)" stroke="rgb(241,240,234)" d="M 4.86779,6.9378 l -0.0749065,0 0,-0.219238 -0.0182699,-0.0438477 -0.0438477,-0.0200969 -0.13337,-0.00730795 0.195488,-0.0438477 0,-0.0292318 0.0749065,0 0,0.36357 z "/>
<path fill="rgb(241,240,234)" stroke="rgb(241,240,234)" d="M 4.5974,6.64731 l 0.0292318,-0.0438477 0.0347128,-0.0237508 0.0511556,-0.00913494 0.0365397,0.00365397 0.0438477,0.0292318 -0.195488,0.0438477 z "/>
<path fill="rgb(241,240,234)" stroke="rgb(241,240,234)" d="M 4.35806,6.94877 l -0.0438477,-0.0127889 -0.0383667,-0.0401937 0.160775,0.0182699 -0.0328858,0.0255778 -0.0365397,0.00913494 -0.00913494,0 z "/>
<path fill="rgb(241,240,234)" stroke="rgb(241,240,234)" d="M 4.51518,6.93963 l -0.0785604,0 0,-0.0255778 -0.160775,-0.0182699 -0.0164429,-0.0310588 0.120581,-0.00548096 0.0164429,-0.00365397 0.0401937,-0.0347128 0,-0.129716 -0.0146159,-0.0182699 -0.0420207,-0.0219238 -0.105965,-0.0292318 0.00730795,-0.00913494 0.155294,-0.00730795 0,-0.0383667 -0.00548096,-0.0310588 -0.0292318,-0.0383667 -0.0511556,-0.0365397 0.0310588,-0.0785604 0.00730795,0.00365397 0.0274048,0.0127889 0.0401937,0.0274048 0.00548096,0.00365397 0.0328858,0.0438477 0.0146159,0.0420207 0.00548096,0.0621176 0,0.361743 z "/>
<path fill="rgb(241,240,234)" stroke="rgb(241,240,234)" d="M 4.25941,6.86472 l -0.0164429,-0.0511556 -0.00730795,-0.0584636 0.00182699,-0.0310588 0.0127889,-0.0548096 0.0237508,-0.0475017 0.105965,0.0292318 -0.00548096,0.00182699 -0.0401937,0.0292318 -0.00730795,0.0164429 -0.00913494,0.0566366 0,0.0237508 0.0164429,0.0511556 0.00365397,0.00548096 0.0420207,0.0237508 -0.120581,0.00548096 z "/>
<path fill="rgb(241,240,234)" stroke="rgb(241,240,234)" d="M 4.28133,6.6126 l 0.0383667,-0.0347128 0.0475017,-0.0109619 0.0274048,0.00548096 0.0420207,0.0328858 -0.155294,0.00730795 z "/>
<path fill="rgb(241,240,234)" stroke="rgb(241,240,234)" d="M 4.137,6.94511 l -0.0200969,-0.00182699 -0.0420207,-0.0292318 0.0566366,-0.0548096 0.0438477,-0.0219238 0.0255778,0.0876954 -0.0127889,0.00730795 -0.0511556,0.0127889 z "/>
<path fill="rgb(241,240,234)" stroke="rgb(241,240,234)" d="M 4.07488,6.93963 l -0.0822144,0 0,-0.365397 0.0822144,0 0,0.215584 0.0164429,0.0511556 0.0401937,0.0182699 -0.0566366,0.0548096 0,0.0255778 z "/>
<path fill="rgb(241,240,234)" stroke="rgb(241,240,234)" d="M 3.79718,6.94511 l -0.0146159,0 -0.0475017,-0.0164429 -0.0383667,-0.0383667 -0.0146159,-0.0237508 0.118754,-0.00182699 0.0328858,-0.0127889 0,-0.00182699 0.0219238,-0.0511556 -0.1151,0 0.195488,-0.0274048 -0.0109619,0.0566366 -0.00548096,0.0127889 -0.0237508,0.0475017 -0.0109619,0.0146159 -0.0401937,0.0310588 -0.0475017,0.0109619 z "/>
<path fill="rgb(241,240,234)" stroke="rgb(241,240,234)" d="M 3.68208,6.86655 l -0.0200969,-0.0511556 -0.00548096,-0.0584636 0.00182699,-0.0347128 0.0127889,-0.0548096 0.0274048,-0.0456747 0.0109619,-0.0146159 0.0420207,-0.0310588 0.0493287,-0.00913494 0.0182699,0 0.0456747,0.0182699 0.0383667,0.0365397 0.00182699,0.00365397 -0.104138,0.0237508 -0.0401937,0.0182699 -0.0219238,0.0493287 -0.00365397,0.0127889 0.200969,0 0,0.0255778 0,0.0164429 -0.195488,0.0274048 0.0200969,0.0475017 0.0401937,0.0182699 -0.118754,0.00182699 z "/>
<path fill="rgb(241,240,234)" stroke="rgb(241,240,234)" d="M 3.85199,6.67837 l -0.00913494,-0.00913494 -0.0420207,-0.0200969 0.104138,-0.0237508 -0.0529826,0.0529826 z "/>
<path fill="rgb(241,240,234)" stroke="rgb(241,240,234)" d="M 3.38245,6.93963 l -0.0803874,0 0.116927,-0.365397 0.0420207,0.118754 -0.0785604,0.246643 z "/>
<path fill="rgb(241,240,234)" stroke="rgb(241,240,234)" d="M 3.61996,6.93963 l -0.0803874,0 -0.0785604,-0.246643 -0.0420207,-0.118754 0.0840414,0 0.116927,0.365397 z "/>
<path fill="rgb(241,240,234)" stroke="rgb(241,240,234)" d="M 5.31175,11.2696 l -1.46707,0 0,-3.50051 0.571847,0 0,1.37207 0.895224,0 0.153467,0.00730795 0.153467,0.0255778 0.137024,0.0438477 0.120581,0.0621176 0.0475017,0.0310588 0.118754,0.100484 0.102311,0.118754 0.0840414,0.137024 0.0274048,0.0548096 -1.83978,0.0475017 0,0.871473 0.918975,0 0.935417,0.0328858 -0.0712525,0.131543 -0.0895224,0.116927 -0.109619,0.105965 -0.127889,0.0931763 -0.1151,0.0602906 -0.137024,0.0475017 -0.147986,0.0292318 -0.160775,0.0109619 z "/>
<path fill="rgb(241,240,234)" stroke="rgb(241,240,234)" d="M 6.27092,10.674 l -0.935417,-0.0328858 0.0730795,-0.00365397 0.146159,-0.0365397 0.1151,-0.0767335 0.0274048,-0.0292318 0.0767335,-0.135197 0.0237508,-0.162602 0,-0.0328858 -0.0365397,-0.157121 -0.0913494,-0.120581 -0.0475017,-0.0365397 -0.131543,-0.0602906 -0.155294,-0.0200969 -0.918975,0 1.83978,-0.0475017 0.0584636,0.155294 0.0365397,0.158948 0.0109619,0.160775 0,0.0109619 -0.0109619,0.168083 -0.0310588,0.155294 -0.0493287,0.142505 z "/>
<path fill="rgb(42,41,42)" stroke="rgb(42,41,42)" d="M 6.92681,13.4656 l -0.730795,0 0,-0.999362 0.747238,0 0,0.179045 -0.564539,0 0,0.272221 0.299626,0 0,0.182699 -0.299626,0 0,0.186353 0.548096,0 0,0.179045 z "/>
<path fill="rgb(42,41,42)" stroke="rgb(42,41,42)" d="M 5.93841,13.4656 l -0.173564,0 0,-0.661369 0.0200969,-0.337993 0.153467,0 0,0.999362 z "/>
<path fill="rgb(42,41,42)" stroke="rgb(42,41,42)" d="M 5.30627,13.4656 l 0,-0.312415 0.478671,-0.686947 -0.0200969,0.337993 -0.458574,0.661369 z "/>
<path fill="rgb(42,41,42)" stroke="rgb(42,41,42)" d="M 5.30627,13.4656 l -0.173564,0 0,-0.999362 0.173564,0 0,0.686947 0,0.312415 z "/>
<path fill="rgb(42,41,42)" stroke="rgb(42,41,42)" d="M 4.48595,13.4821 l -0.0840414,-0.00730795 -0.0858684,-0.0255778 -0.0749065,-0.0438477 -0.0639445,-0.0602906 -0.0200969,-0.0255778 0.328858,-0.0164429 0.0274048,0 0.0840414,-0.0274048 0.0639445,-0.0602906 0.0310588,-0.0584636 0.0219238,-0.0858684 0.00913494,-0.104138 -0.00365397,-0.0584636 -0.0146159,-0.0931763 -0.0310588,-0.0767335 -0.0292318,-0.0456747 -0.0694255,-0.0493287 -0.0895224,-0.0164429 0.319723,-0.00913494 0.0420207,0.0730795 0.0292318,0.0840414 0.0182699,0.0913494 0.00548096,0.104138 0,0.0328858 -0.0109619,0.0986573 -0.0219238,0.0895224 -0.0347128,0.0803874 -0.0456747,0.0694255 -0.0511556,0.0529826 -0.0730795,0.0475017 -0.0822144,0.0292318 -0.0950033,0.0109619 z "/>
<path fill="rgb(42,41,42)" stroke="rgb(42,41,42)" d="M 4.15709,13.3195 l -0.0401937,-0.0712525 -0.0292318,-0.0822144 -0.0182699,-0.0950033 -0.00548096,-0.104138 0,-0.00730795 0.00730795,-0.0986573 0.0182699,-0.0895224 0.0310588,-0.0840414 0.0438477,-0.0749065 0.0109619,-0.0146159 0.0621176,-0.0657715 0.0730795,-0.0475017 0.0822144,-0.0274048 0.0931763,-0.00913494 0.0803874,0.00730795 0.0840414,0.0255778 0.0730795,0.0456747 0.0639445,0.0657715 0.0182699,0.0255778 -0.319723,0.00913494 -0.0274048,0.00182699 -0.0840414,0.0274048 -0.0639445,0.0621176 -0.0328858,0.0584636 -0.0237508,0.0858684 -0.00730795,0.104138 0.00548096,0.0858684 0.0219238,0.0895224 0.0365397,0.0730795 0.0164429,0.0200969 0.0694255,0.0511556 0.0895224,0.0164429 -0.328858,0.0164429 z "/>
<path fill="rgb(42,41,42)" stroke="rgb(42,41,42)" d="M 3.89766,13.4656 l -0.754546,0 0,-0.177218 0.537134,0 -0.568193,-0.621176 0,-0.200969 0.785604,0 0,0.179045 -0.564539,0 0.564539,0.615695 0,0.204623 z "/>
<path fill="rgb(42,41,42)" stroke="rgb(42,41,42)" d="M 3.38957,1.64605 l -0.000945665,0.0216593 -0.0028298,0.0214945 -0.00469239,0.021166 -0.00651928,0.0206765 -0.00829655,0.0200296 -0.0100107,0.0192303 -0.0116486,0.0182847 -0.0131979,0.0171998 -0.0146467,0.0159841 -0.0159841,0.0146467 -0.0171998,0.0131979 -0.0182847,0.0116486 -0.0192303,0.0100107 -0.0200296,0.00829655 -0.0206765,0.00651928 -0.021166,0.00469239 -0.0214945,0.0028298 -0.0216593,0.000945665 -0.0216593,-0.000945665 -0.0214945,-0.0028298 -0.021166,-0.00469239 -0.0206765,-0.00651928 -0.0200296,-0.00829655 -0.0192303,-0.0100107 -0.0182847,-0.0116486 -0.0171998,-0.0131979 -0.0159841,-0.0146467 -0.0146467,-0.0159841 -0.0131979,-0.0171998 -0.0116486,-0.0182847 -0.0100107,-0.0192303 -0.00829655,-0.0200296 -0.00651928,-0.0206765 -0.00469239,-0.021166 -0.0028298,-0.0214945 -0.000945665,-0.0216593 0.000945665,-0.0216593 0.0028298,-0.0214945 0.00469239,-0.021166 0.00651928,-0.0206765 0.00829655,-0.0200296 0.0100107,-0.0192303 0.0116486,-0.0182847 0.0131979,-0.0171998 0.0146467,-0.0159841 0.0159841,-0.0146467 0.0171998,-0.0131979 0.0182847,-0.0116486 0.0192303,-0.0100107 0.0200296,-0.00829655 0.0206765,-0.00651928 0.021166,-0.00469239 0.0214945,-0.0028298 0.0216593,-0.000945665 0.0216593,0.000945665 0.0214945,0.0028298 0.021166,0.00469239 0.0206765,0.00651928 0.0200296,0.00829655 0.0192303,0.0100107 0.0182847,0.0116486 0.0171998,0.0131979 0.0159841,0.0146467 0.0146467,0.0159841 0.0131979,0.0171998 0.0116486,0.0182847 0.0100107,0.0192303 0.00829655,0.0200296 0.00651928,0.0206765 0.00469239,0.021166 0.0028298,0.0214945 0.000945665,0.0216593 z "/>
<path fill="rgb(42,41,42)" stroke="rgb(42,41,42)" d="M 4.63659,1.64605 l -0.000945665,0.0216593 -0.0028298,0.0214945 -0.00469239,0.021166 -0.00651928,0.0206765 -0.00829655,0.0200296 -0.0100107,0.0192303 -0.0116486,0.0182847 -0.0131979,0.0171998 -0.0146467,0.0159841 -0.0159841,0.0146467 -0.0171998,0.0131979 -0.0182847,0.0116486 -0.0192303,0.0100107 -0.0200296,0.00829655 -0.0206765,0.00651928 -0.021166,0.00469239 -0.0214945,0.0028298 -0.0216593,0.000945665 -0.0216593,-0.000945665 -0.0214945,-0.0028298 -0.021166,-0.00469239 -0.0206765,-0.00651928 -0.0200296,-0.00829655 -0.0192303,-0.0100107 -0.0182847,-0.0116486 -0.0171998,-0.0131979 -0.0159841,-0.0146467 -0.0146467,-0.0159841 -0.0131979,-0.0171998 -0.0116486,-0.0182847 -0.0100107,-0.0192303 -0.00829655,-0.0200296 -0.00651928,-0.0206765 -0.00469239,-0.021166 -0.0028298,-0.0214945 -0.000945665,-0.0216593 0.000945665,-0.0216593 0.0028298,-0.0214945 0.00469239,-0.021166 0.00651928,-0.0206765 0.00829655,-0.0200296 0.0100107,-0.0192303 0.0116486,-0.0182847 0.0131979,-0.0171998 0.0146467,-0.0159841 0.0159841,-0.0146467 0.0171998,-0.0131979 0.0182847,-0.0116486 0.0192303,-0.0100107 0.0200296,-0.00829655 0.0206765,-0.00651928 0.021166,-0.00469239 0.0214945,-0.0028298 0.0216593,-0.000945665 0.0216593,0.000945665 0.0214945,0.0028298 0.021166,0.00469239 0.0206765,0.00651928 0.0200296,0.00829655 0.0192303,0.0100107 0.0182847,0.0116486 0.0171998,0.0131979 0.0159841,0.0146467 0.0146467,0.0159841 0.0131979,0.0171998 0.0116486,0.0182847 0.0100107,0.0192303 0.00829655,0.0200296 0.00651928,0.0206765 0.00469239,0.021166 0.0028298,0.0214945 0.000945665,0.0216593 z "/>
<path fill="rgb(42,41,42)" stroke="rgb(42,41,42)" d="M 5.20933,1.64605 l -0.000945665,0.0216593 -0.0028298,0.0214945 -0.00469239,0.021166 -0.00651928,0.0206765 -0.00829655,0.0200296 -0.0100107,0.0192303 -0.0116486,0.0182847 -0.0131979,0.0171998 -0.0146467,0.0159841 -0.0159841,0.0146467 -0.0171998,0.0131979 -0.0182847,0.0116486 -0.0192303,0.0100107 -0.0200296,0.00829655 -0.0206765,0.00651928 -0.021166,0.00469239 -0.0214945,0.0028298 -0.0216593,0.000945665 -0.0216593,-0.000945665 -0.0214945,-0.0028298 -0.021166,-0.00469239 -0.0206765,-0.00651928 -0.0200296,-0.00829655 -0.0192303,-0.0100107 -0.0182847,-0.0116486 -0.0171998,-0.0131979 -0.0159841,-0.0146467 -0.0146467,-0.0159841 -0.0131979,-0.0171998 -0.0116486,-0.0182847 -0.0100107,-0.0192303 -0.00829655,-0.0200296 -0.00651928,-0.0206765 -0.00469239,-0.021166 -0.0028298,-0.0214945 -0.000945665,-0.0216593 0.000945665,-0.0216593 0.0028298,-0.0214945 0.00469239,-0.021166 0.00651928,-0.0206765 0.00829655,-0.0200296 0.0100107,-0.0192303 0.0116486,-0.0182847 0.0131979,-0.0171998 0.0146467,-0.0159841 0.0159841,-0.0146467 0.0171998,-0.0131979 0.0182847,-0.0116486 0.0192303,-0.0100107 0.0200296,-0.00829655 0.0206765,-0.00651928 0.021166,-0.00469239 0.0214945,-0.0028298 0.0216593,-0.000945665 0.0216593,0.000945665 0.0214945,0.0028298 0.021166,0.00469239 0.0206765,0.00651928 0.0200296,0.00829655 0.0192303,0.0100107 0.0182847,0.0116486 0.0171998,0.0131979 0.0159841,0.0146467 0.0146467,0.0159841 0.0131979,0.0171998 0.0116486,0.0182847 0.0100107,0.0192303 0.00829655,0.0200296 0.00651928,0.0206765 0.00469239,0.021166 0.0028298,0.0214945 0.000945665,0.0216593 z "/>
<path fill="rgb(42,41,42)" stroke="rgb(42,41,42)" d="M 3.19183,2.23196 l -0.437368,0 0.0936064,0.279037 0.343761,0 0,-0.279037 z M 2.83244,1.66147 l 0.00274579,0.0268264 0.00506582,0.0264864 0.00734756,0.0259463 0.00957374,0.0252099 0.0117275,0.0242829 0.0137927,0.0231723 0.0157535,0.0218866 0.0175952,0.0204353 0.0193039,0.0188296 0.0208667,0.0170814 0.0222717,0.0152042 0.0235083,0.0132119 0.0245671,0.0111198 0.0254402,0.00894364 0.026121,0.00669983 0.0266043,0.00440537 0.0268864,0.00207759 0.0269652,-0.000265889 0.0268402,-0.00260736 0.0265122,-0.00492912 0.0259838,-0.00721361 0.0252589,-0.00944356 0.0243431,-0.0116021 0.0232432,-0.0136729 0.0219675,-0.0156404 0.0205258,-0.0174896 0.0189289,-0.0192066 0.0171889,-0.0207783 0.0153189,-0.022193 0.013333,-0.0234398 0.0112464,-0.0245094 0.00907476,-0.0253938 0.0068345,-0.0260861 0.121954,0 0,0.380491 -0.119659,0 0,-0.0850087 -0.0996882,0 0,0.23955 -0.0305243,0.359845 -0.574836,0 -0.156343,-0.487685 0.0284259,-0.369315 -0.0473766,0 0,-0.0852264 0.265309,0 z "/>
<path fill="rgb(42,41,42)" stroke="rgb(42,41,42)" d="M 5.56714,1.88332 l -0.814559,0.201274 -0.185441,0 0,-0.143108 0.462815,0.000227976 0.021511,-0.000920152 0.0213511,-0.00277477 0.0210317,-0.00460865 0.020555,-0.00640807 0.0199246,-0.0081596 0.0191454,-0.00985013 0.018223,-0.011467 0.0171644,-0.0129982 0.0159775,-0.0144323 0.0146712,-0.0157584 0.0132552,-0.0169668 0.0117401,-0.0180483 0.0101372,-0.0189949 0.00845864,-0.0197995 0.0067168,-0.0204562 0.00492475,-0.0209599 0.00309589,-0.0213069 0.289301,0 0,0.165515 z M 4.83064,2.66147 l -0.140387,0 -0.123114,-0.068187 0,-0.0806249 0.263501,0.148812 z M 5.09447,2.66147 l -0.0755975,0 -0.451739,-0.419878 0,-0.107459 0.527337,0.527337 z M 5.36396,2.66147 l 0.0349249,-0.327227 0.0251233,0.068476 -0.0257071,0.258751 -0.0343411,0 z "/>
<path fill="rgb(42,41,42)" stroke="rgb(42,41,42)" d="M 4.69025,2.66147 l 0.140387,0 0.20186,0.114 0,-0.101339 -0.0136215,-0.0126608 0.0755975,0 0.173443,0.173443 0.080258,-0.0255224 0.0157876,-0.147921 0.0343411,0 -0.0274367,0.276161 -0.000789548,0.00549701 -0.00126561,0.00540728 -0.00173205,0.00527641 -0.0021853,0.00510538 -0.00262193,0.0048955 -0.0030386,0.00464837 -0.00343215,0.00436587 -0.00379958,0.00405014 -0.0041381,0.00370359 -0.00444513,0.00332886 -0.00471833,0.00292879 -0.00495562,0.00250644 -0.00515521,0.00206502 -0.00531556,0.00160788 -0.00543546,0.0011385 -0.005514,0.000660463 -0.00555058,0.000177397 -0.00554493,-0.000307018 -0.00549707,-0.000789097 -0.00540738,-0.00126517 -0.00527655,-0.00173162 -0.594797,-0.329431 z "/>
<path fill="rgb(42,41,42)" stroke="rgb(42,41,42)" d="M 5.56714,1.88332 l 0,-0.165515 0.0112276,0 0,0.162741 -0.0112276,0.0027743 z "/>
<path fill="rgb(42,41,42)" stroke="rgb(42,41,42)" d="M 4.56714,2.51266 l 0,0.0806249 -0.909941,-0.503974 -0.0900589,0 0,-0.380491 0.525525,0 0.00195859,0.0216278 0.00387609,0.0213676 0.00576281,0.0209377 0.00760378,0.0203416 0.00938437,0.019584 0.0110904,0.0186709 0.0127085,0.0176095 0.0142256,0.0164083 0.0156297,0.0150768 0.0169098,0.0136256 0.0180556,0.0120662 0.019058,0.0104111 0.0199092,0.0086732 0.0206022,0.00686649 0.0211316,0.00500526 0.0214933,0.00310428 0.0216843,0.00117866 0.233391,0.000114965 0,0.143108 -0.0286264,0 0,0.0209112 0.0286264,0.0286264 0,0.107459 -0.0867069,-0.0805914 -0.535972,0 0.622679,0.351657 z "/>
<path fill="rgb(42,41,42)" stroke="rgb(42,41,42)" d="M 5.91277,2.02995 l -0.000657163,0.0150654 -0.0019665,0.014951 -0.00326089,0.014723 -0.00453052,0.0143831 -0.00576572,0.013934 -0.00695713,0.013379 -0.00809569,0.0127224 -0.00917275,0.0119691 -0.0101801,0.0111249 -0.0111102,0.0101962 -0.0119558,0.00919009 -0.0127106,0.00811413 -0.0133689,0.00697652 -0.0139256,0.00578592 -0.0143765,0.00455137 -0.0147182,0.00328224 -0.0149481,0.00198817 -0.0150645,0.000679005 -0.0150664,-0.00063532 -0.0149538,-0.00194482 -0.0147277,-0.00323954 -0.0143897,-0.00450966 -0.0139423,-0.00574552 -0.0133891,-0.00693773 -0.0127341,-0.00807724 -0.0119824,-0.00915539 -0.0111397,-0.010164 -0.0102123,-0.0110954 -0.00920742,-0.0119425 -0.00813255,-0.0126989 -0.0069959,-0.0133588 -0.0058061,-0.0139172 -0.00460494,-0.014491 -0.00331489,-0.0148393 -0.00199923,-0.0150731 -0.00066813,-0.0151904 0.000657163,-0.0150654 0.0019665,-0.014951 0.00326089,-0.014723 0.00453052,-0.0143831 0.00576572,-0.013934 0.00695713,-0.013379 0.00809569,-0.0127224 0.00917275,-0.0119691 0.0101801,-0.0111249 0.0111102,-0.0101962 0.0119558,-0.00919009 0.0127106,-0.00811413 0.0133689,-0.00697652 0.0139256,-0.00578592 0.0143765,-0.00455137 0.0147182,-0.00328224 0.0149481,-0.00198817 0.0150645,-0.000679005 0.0150664,0.00063532 0.0149538,0.00194482 0.0147277,0.00323954 0.0143897,0.00450966 0.0139423,0.00574552 0.0133891,0.00693773 0.0127341,0.00807724 0.0119824,0.00915539 0.0111397,0.010164 0.0102123,0.0110954 0.00920742,0.0119425 0.00813255,0.0126989 0.0069959,0.0133588 0.0058061,0.0139172 0.00460494,0.014491 0.00331489,0.0148393 0.00199923,0.0150731 0.00066813,0.0151904 z "/>
<path fill="rgb(42,41,42)" stroke="rgb(42,41,42)" d="M 7.10756,1.59048 l -0.000657163,0.0150654 -0.0019665,0.014951 -0.00326089,0.014723 -0.00453052,0.0143831 -0.00576572,0.013934 -0.00695713,0.013379 -0.00809569,0.0127224 -0.00917275,0.0119691 -0.0101801,0.0111249 -0.0111102,0.0101962 -0.0119558,0.00919009 -0.0127106,0.00811413 -0.0133689,0.00697652 -0.0139256,0.00578592 -0.0143765,0.00455137 -0.0147182,0.00328224 -0.0149481,0.00198817 -0.0150645,0.000679005 -0.0150664,-0.00063532 -0.0149538,-0.00194482 -0.0147277,-0.00323954 -0.0143897,-0.00450966 -0.0139423,-0.00574552 -0.0133891,-0.00693773 -0.0127341,-0.00807724 -0.0119824,-0.00915539 -0.0111397,-0.010164 -0.0102123,-0.0110954 -0.00920742,-0.0119425 -0.00813255,-0.0126989 -0.0069959,-0.0133588 -0.0058061,-0.0139172 -0.00460494,-0.014491 -0.00331489,-0.0148393 -0.00199923,-0.0150731 -0.00066813,-0.0151904 0.000657163,-0.0150654 0.0019665,-0.014951 0.00326089,-0.014723 0.00453052,-0.0143831 0.00576572,-0.013934 0.00695713,-0.013379 0.00809569,-0.0127224 0.00917275,-0.0119691 0.0101801,-0.0111249 0.0111102,-0.0101962 0.0119558,-0.00919009 0.0127106,-0.00811413 0.0133689,-0.00697652 0.0139256,-0.00578592 0.0143765,-0.00455137 0.0147182,-0.00328224 0.0149481,-0.00198817 0.0150645,-0.000679005 0.0150664,0.00063532 0.0149538,0.00194482 0.0147277,0.00323954 0.0143897,0.00450966 0.0139423,0.00574552 0.0133891,0.00693773 0.0127341,0.00807724 0.0119824,0.00915539 0.0111397,0.010164 0.0102123,0.0110954 0.00920742,0.0119425 0.00813255,0.0126989 0.0069959,0.0133588 0.0058061,0.0139172 0.00460494,0.014491 0.00331489,0.0148393 0.00199923,0.0150731 0.00066813,0.0151904 z "/>
<path fill="rgb(42,41,42)" stroke="rgb(42,41,42)" d="M 7.35692,1.60239 l 0.0626746,0.170826 -0.0626746,0.0339526 0,-0.204779 z "/>
<path fill="rgb(42,41,42)" stroke="rgb(42,41,42)" d="M 6.66302,2.08619 l 0.0795722,0.216882 0.202036,-0.0741255 0.00362967,-0.00135726 0.00350145,-0.00166028 0.00334799,-0.00195132 0.00317039,-0.0022283 0.00296993,-0.00248921 0.00274806,-0.00273218 0.00250638,-0.00295545 0.00224664,-0.00315742 0.00197069,-0.00333662 0.00168054,-0.00349177 0.111866,-0.260152 -0.421246,0.142755 z M 7.32367,1.51176 l 0.0332511,0.0906293 0,0.204779 -0.207286,0.112293 -0.139894,0.323386 -0.00197561,0.00396948 -0.00232098,0.00377794 -0.00264794,0.00355643 -0.0029539,0.0033067 -0.00323642,0.00303074 -0.00349326,0.00273074 -0.00372239,0.00240907 -0.00392199,0.00206829 -0.00409047,0.0017111 -0.586784,0.215286 -0.00802899,0.00246848 -0.00821087,0.00177192 -0.00833244,0.00106234 -0.0083928,0.000344965 -0.00470786,-0.000210355 0,-0.0503819 0.00404743,0.000215818 0.00412477,-0.000151485 0.00409447,-0.000521523 0.00403104,-0.000887342 0.003935,-0.00124598 0.317906,-0.116637 -0.0801178,-0.218369 -0.258021,0.0878625 0,-0.387605 0.368159,-0.135075 0.00744884,0.017719 0.00895225,0.017009 0.0103887,0.0161717 0.0117474,0.0152135 0.0130182,0.0141413 0.0141915,0.0129634 0.0152587,0.0116885 0.0162118,0.0103261 0.0170435,0.00888645 0.0177477,0.00738031 0.0183191,0.00581894 0.0187534,0.00421404 0.0190475,0.00257761 0.019199,0.00092189 0.0192068,-0.000740728 0.0190709,-0.0023978 0.0187924,-0.00403694 0.0183732,-0.00564586 0.0178165,-0.00721255 0.0171266,-0.00872526 0.0163085,-0.0101727 0.0153683,-0.011544 0.0143132,-0.0128289 0.013151,-0.0140179 0.0118904,-0.015102 0.0105408,-0.016073 0.00911231,-0.0169238 0.00761567,-0.017648 0.00606204,-0.0182401 0.00446306,-0.0186957 0.00283068,-0.0190115 0.00117712,-0.019185 -0.000485246,-0.0192149 -0.00214398,-0.0191011 -0.00378667,-0.0188444 0.174459,-0.0252443 z "/>
<path fill="rgb(42,41,42)" stroke="rgb(42,41,42)" d="M 6.35692,2.43974 l 0,0.0503819 -0.00368365,-0.000164591 -0.00832859,-0.0010921 -0.00820449,-0.00180124 -0.00802012,-0.00249714 -0.00777684,-0.00317471 -0.306065,-0.140532 -0.573984,0.10777 -0.0168451,-0.0459129 -0.0251233,-0.068476 -0.0419684,-0.114389 0.178157,-0.102441 0.00852624,0.0175958 0.0100434,0.0167762 0.0114825,0.015826 0.0128322,0.0147528 0.0140821,0.0135648 0.0152225,0.0122713 0.0162445,0.0108823 0.0171402,0.00940871 0.0179025,0.00786193 0.0185256,0.006254 0.0190046,0.00459742 0.0193357,0.00290509 0.0195165,0.00119016 0.0195454,-0.000534032 0.0194224,-0.00225407 0.0191482,-0.00395657 0.0187252,-0.0056283 0.0181564,-0.00725624 0.0174465,-0.00882775 0.0166008,-0.0103306 0.0156261,-0.0117531 0.0145298,-0.0130842 0.0133204,-0.0143135 0.0120075,-0.0154314 0.0106012,-0.0164294 0.00911237,-0.0172995 0.00755271,-0.0180351 0.00593429,-0.0186304 0.00426972,-0.0190809 0.00257194,-0.0193828 0.000854151,-0.0195341 -0.000870281,-0.0195334 -0.00258794,-0.0193807 -0.00428548,-0.0190773 -0.00594967,-0.0186255 0.410252,-0.150518 0,0.387605 -0.31733,0.108059 0.301461,0.13716 0.00378018,0.00165737 0.00391382,0.00131098 0.00401579,0.000953982 0.00408527,0.000589264 7.42637e-05,3.95991e-06 z "/>
<path fill="rgb(42,41,42)" stroke="rgb(42,41,42)" d="M 9.51129,8.25089 l 0.2625,0 -1.77636e-15,5.48553 -0.00199778,0.0457568 -0.00597815,0.0454085 -0.00991301,0.0447147 -0.0137724,0.0436806 -0.017527,0.042314 -0.0211483,0.0406254 -0.0246085,0.0386276 -0.0278815,0.0363359 -0.0309423,0.0337676 -0.0337676,0.0309423 -0.0363359,0.0278815 -0.0386276,0.0246085 -0.0406254,0.0211483 -0.042314,0.017527 -0.0436806,0.0137724 -0.0447147,0.00991301 -0.0454085,0.00597815 -0.0457568,0.00199778 -8.47818,-1.06581e-14 -0.0457568,-0.00199778 -0.0454085,-0.00597815 -0.0447147,-0.00991301 -0.0436806,-0.0137724 -0.042314,-0.017527 -0.0406254,-0.0211483 -0.0386276,-0.0246085 -0.0363359,-0.0278815 -0.0337676,-0.0309423 -0.0309423,-0.0337676 -0.0278815,-0.0363359 -0.0246085,-0.0386276 -0.0211483,-0.0406254 -0.017527,-0.042314 -0.0137724,-0.0436806 -0.00991301,-0.0447147 -0.00597815,-0.0454085 -0.00199778,-0.0457568 0,-5.48553 0.2625,0 0,5.48553 0.000998892,0.0228784 0.00298907,0.0227043 0.00495651,0.0223574 0.00688622,0.0218403 0.00876352,0.021157 0.0105741,0.0203127 0.0123043,0.0193138 0.0139407,0.0181679 0.0154711,0.0168838 0.0168838,0.0154711 0.0181679,0.0139407 0.0193138,0.0123043 0.0203127,0.0105741 0.021157,0.00876352 0.0218403,0.00688622 0.0223574,0.00495651 0.0227043,0.00298907 0.0228784,0.000998892 8.47818,8.88178e-15 0.0228784,-0.000998892 0.0227043,-0.00298907 0.0223574,-0.00495651 0.0218403,-0.00688622 0.021157,-0.00876352 0.0203127,-0.0105741 0.0193138,-0.0123043 0.0181679,-0.0139407 0.0168838,-0.0154711 0.0154711,-0.0168838 0.0139407,-0.0181679 0.0123043,-0.0193138 0.0105741,-0.0203127 0.00876352,-0.021157 0.00688622,-0.0218403 0.00495651,-0.0223574 0.00298907,-0.0227043 0.000998892,-0.0228784 1.77636e-15,-5.48553 z "/>
<path fill="rgb(42,41,42)" stroke="rgb(42,41,42)" d="M 9.51129,8.25089 l -1.77636e-15,-7.49085 -0.000998892,-0.0228784 -0.00298907,-0.0227043 -0.00495651,-0.0223574 -0.00688622,-0.0218403 -0.00876352,-0.021157 -0.0105741,-0.0203127 -0.0123043,-0.0193138 -0.0139407,-0.0181679 -0.0154711,-0.0168838 -0.0168838,-0.0154711 -0.0181679,-0.0139407 -0.0193138,-0.0123043 -0.0203127,-0.0105741 -0.021157,-0.00876352 -0.0218403,-0.00688622 -0.0223574,-0.00495651 -0.0227043,-0.00298907 -0.0228784,-0.000998892 -8.47818,-8.88178e-15 -0.0228784,0.000998892 -0.0227043,0.00298907 -0.0223574,0.00495651 -0.0218403,0.00688622 -0.021157,0.00876352 -0.0203127,0.0105741 -0.0193138,0.0123043 -0.0181679,0.0139407 -0.0168838,0.0154711 -0.0154711,0.0168838 -0.0139407,0.0181679 -0.0123043,0.0193138 -0.0105741,0.0203127 -0.00876352,0.021157 -0.00688622,0.0218403 -0.00495651,0.0223574 -0.00298907,0.0227043 -0.000998892,0.0228784 0,7.49085 -0.2625,0 0,-7.49085 0.00199778,-0.0457568 0.00597815,-0.0454085 0.00991301,-0.0447147 0.0137724,-0.0436806 0.017527,-0.042314 0.0211483,-0.0406254 0.0246085,-0.0386276 0.0278815,-0.0363359 0.0309423,-0.0337676 0.0337676,-0.0309423 0.0363359,-0.0278815 0.0386276,-0.0246085 0.0406254,-0.0211483 0.042314,-0.017527 0.0436806,-0.0137724 0.0447147,-0.00991301 0.0454085,-0.00597815 0.0457568,-0.00199778 8.47818,7.10543e-15 0.0457568,0.00199778 0.0454085,0.00597815 0.0447147,0.00991301 0.0436806,0.0137724 0.042314,0.017527 0.0406254,0.0211483 0.0386276,0.0246085 0.0363359,0.0278815 0.0337676,0.0309423 0.0309423,0.0337676 0.0278815,0.0363359 0.0246085,0.0386276 0.0211483,0.0406254 0.017527,0.042314 0.0137724,0.0436806 0.00991301,0.0447147 0.00597815,0.0454085 0.00199778,0.0457568 0,7.49085 -0.2625,0 z "/>
</g></g></svg>
