<?xml version="1.0" encoding="UTF-8" standalone="no"?>
<!DOCTYPE svg PUBLIC "-//W3C//DTD SVG 1.1//EN" "http://www.w3.org/Graphics/SVG/1.1/DTD/svg11-flat.dtd"
[

]>
<svg xmlns="http://www.w3.org/2000/svg"  viewBox="-0.05625 -0.05625 4.6125 7.6125"><g fill="none" stroke="black" stroke-width="0.0125" transform="translate(0,7.5) scale(1, -1)">
<g id="Output" >
<path fill="rgb(241,240,234)" stroke="rgb(241,240,234)" d="M 1.04697,1.09053 l -0.0323126,0.0145042 -0.0309111,0.0172911 -0.0292697,0.0199439 -0.0274013,0.022442 -0.0253204,0.024766 -0.023043,0.0268979 -0.0205869,0.0288211 -0.0179711,0.0305207 -0.0152159,0.0319836 -0.0123427,0.0331984 -0.00937366,0.0341557 -0.00633196,0.034848 -0.00324113,0.03527 -0.000125163,0.0354184 0.00299178,0.035292 0.00608551,0.0348919 0.00913203,0.0342211 0.0121077,0.0332848 0.0149895,0.0320904 0.017755,0.030647 0.0203827,0.0289659 0.0228524,0.0270601 0.0251447,0.0249443 0.0272421,0.0226351 0.029128,0.0201503 0.0307881,0.0175092 0.0322093,0.0147322 0.0333807,0.011841 0.0342931,0.0088579 0.0349395,0.00580611 0.0353148,0.00270927 0.0354162,-0.000408576 0.0352429,-0.00352326 0.0347962,-0.00661061 -0.176415,-0.383105 -0.00289312,-0.00708036 -0.00226502,-0.00730557 -0.00161968,-0.00747518 -0.000962008,-0.0075879 -0.000297018,-0.00764287 0.000370232,-0.00763967 0.00103466,-0.00757833 0.00169122,-0.00745932 0.00233491,-0.00728353 0.00296083,-0.00705232 0.00356421,-0.00676743 0.00414047,-0.00643103 0.00468521,-0.0060457 0.0051943,-0.00561435 0.00566386,-0.00514027 0.00609031,-0.00462707 0.00647041,-0.00407866 0.00680127,-0.00349921 0.00708036,-0.00289312 0.00730557,-0.00226502 0.00747518,-0.00161968 0.0075879,-0.000962008 0.00764287,-0.000297018 0.00763967,0.000370232 0.00757833,0.00103466 0.00745932,0.00169122 0.00728353,0.00233491 0.00705232,0.00296083 0.00676743,0.00356421 0.00643103,0.00414047 0.0060457,0.00468521 0.00561435,0.0051943 0.00514027,0.00566386 0.00462707,0.00609031 0.00407866,0.00647041 0.00349921,0.00680127 0.176415,0.383105 0.0263469,-0.0228206 0.0242812,-0.0250073 0.0220346,-0.0270077 0.019624,-0.028807 0.0170671,-0.0303917 0.0143832,-0.03175 0.0115921,-0.0328719 0.00871471,-0.033749 0.00577239,-0.0343747 0.00278708,-0.0347444 -0.000218982,-0.0348553 -0.00322342,-0.0347066 -0.00620384,-0.0342995 -0.00913806,-0.0336368 -0.0120042,-0.0327237 -0.014781,-0.0315668 -0.0174477,-0.0301748 -0.0199844,-0.0285581 -0.0223723,-0.0267287 -0.0245935,-0.0247002 -0.0266316,-0.0224878 -0.0284713,-0.0201078 -0.030099,-0.0175781 -0.0315025,-0.0149175 -0.0326714,-0.0121458 -0.033597,-0.00928362 -0.0342723,-0.0063523 -0.0346924,-0.00337366 -0.0348541,-0.000369899 -0.0347561,0.00263662 -0.0343994,0.0056235 -0.0337864,0.0085685 -0.0329218,0.0114497 z M 1.60767,1.04568 l 0,0.827235 -0.816051,0 -0.0135821,-0.0121853 -0.033926,-0.036272 -0.0306241,-0.0390998 -0.0270875,-0.0416281 -0.0233433,-0.0438374 -0.0194204,-0.0457108 -0.0153486,-0.047234 -0.0111592,-0.0483953 -0.00688428,-0.0491857 -0.00255664,-0.0495993 0.0017906,-0.0496329 0.00612411,-0.0492862 0.0104107,-0.0485618 0.0146175,-0.0474653 0.0187123,-0.0460052 0.0226638,-0.0441926 0.0264416,-0.0420413 0.0300168,-0.039568 0.033362,-0.0367914 0.0364516,-0.033733 0.0392618,-0.0304161 0.0417713,-0.0268661 0.0439607,-0.0231103 0.0461215,-0.0210479 0.0477713,-0.0169737 0.0490621,-0.0127718 0.049984,-0.00847396 0.0505301,-0.00411239 0.0506964,0.000280094 0.0504816,0.00467047 0.0498873,0.00902574 0.048918,0.0133132 0.0475809,0.0175005 0.0458861,0.0215563 0.0438464,0.02545 0.041477,0.0291524 0.0387959,0.0326357 0.0133597,0.0133786 z "/>
<path fill="rgb(241,240,234)" stroke="rgb(241,240,234)" d="M 1.81812,2.87292 l 0.292305,0 0,0.00405914 -0.232212,0 -0.0171398,0.000820236 -0.017145,-0.000703534 -0.017015,-0.00222175 -0.00879327,-0.00195409 z "/>
<path fill="rgb(241,240,234)" stroke="rgb(241,240,234)" d="M 3.60767,1.87292 l 0,-0.11099 0.0110048,-0.00921298 0.0246978,-0.0245959 0.0224852,-0.0266338 0.0201051,-0.0284733 0.0175752,-0.0301007 0.0149144,-0.031504 0.0121426,-0.0326726 0.00928034,-0.0335979 0.00634895,-0.0342729 0.00337027,-0.0346927 0.000340965,-0.035417 -0.00277669,-0.0353096 -0.0058728,-0.0349283 -0.00892335,-0.0342761 -0.0119047,-0.033358 -0.0147937,-0.0321811 -0.0175679,-0.0307546 -0.0202059,-0.0290895 -0.0226871,-0.0271988 -0.0249923,-0.0250971 -0.0125414,-0.0105503 0,-0.212848 0.0240694,0.0121153 0.0437433,0.0270941 0.0411856,0.0308433 0.0383076,0.0343525 0.0351315,0.0375945 0.0316821,0.0405439 0.0279862,0.043178 0.0240726,0.0454761 0.0199717,0.0474204 0.0157154,0.0489958 0.0113369,0.05019 0.00687012,0.0509938 0.00234994,0.0514008 -0.00215551,0.0509629 -0.00660996,0.0505784 -0.0110136,0.0498053 -0.0153327,0.0486495 -0.0195339,0.04712 -0.0235851,0.0452284 -0.0274551,0.0429894 -0.0311141,0.04042 -0.0345341,0.0375401 -0.00467332,0.00426203 -0.146415,0 z "/>
<path fill="rgb(241,240,234)" stroke="rgb(241,240,234)" d="M 2.20048,1.87292 l 0.0852527,0.18427 0.00268055,0.0066682 0.00207766,0.00687994 0.00145835,0.00703729 0.000827511,0.00713901 0.000190129,0.0071843 -0.000448755,0.00717279 -0.00108409,0.00710458 -0.00171086,0.0069802 -0.0023241,0.00680065 -0.00291897,0.00656733 -0.00349077,0.0062821 -0.153188,0.248931 -0.00404382,0.00570793 -0.00454525,0.0053173 -0.00500914,0.00488277 -0.00543168,0.00440792 -0.00580937,0.00389668 -0.0061391,0.00335327 -0.00641814,0.00278217 -0.00664418,0.0021881 -0.00681537,0.00157596 -0.00693029,0.000950811 -0.00698798,0.000317812 -0.33645,0 0.0853031,0.199028 0.00395708,0.0098452 0.00480747,0.00945911 0.00562062,0.00899974 0.00639021,0.00847064 0.00711031,0.00787592 0.00777532,0.00722018 0.00838009,0.00650851 0.00891994,0.00574641 0.00939068,0.0049398 0.00978868,0.00409491 0.0101108,0.00321831 0.0103547,0.00231677 0.0105183,0.00139728 0.0106004,0.000466966 0.184817,0 0,0.176014 -0.292305,0 -0.00795753,-0.00176837 -0.0163545,-0.0051938 -0.0158293,-0.00662419 -0.0151792,-0.00800235 -0.0144094,-0.0093174 -0.013526,-0.010559 -0.012536,-0.0117173 -0.0114471,-0.0127832 -0.0102679,-0.0137483 -0.00900775,-0.014605 -0.00767657,-0.0153465 -0.0762556,-0.171031 0,-0.431467 0.02888,0.0670011 0.217208,-0.354838 0.346722,0 z M 1.60767,1.87292 l 0.00740947,0 -0.00740947,0.00754312 0,-0.00754312 z "/>
<path fill="rgb(241,240,234)" stroke="rgb(241,240,234)" d="M 0.791618,1.87292 l 0.816051,0 0,0.00754312 -0.00982654,0.0100038 -0.0385258,0.032954 -0.0412356,0.0294929 0.089588,0.207843 0,0.431467 -0.255451,-0.572942 -0.108981,0.0189348 0,0.142185 -0.0649784,-0.000457319 -0.0647042,-0.00597989 -0.0639616,-0.0114592 -0.0627558,-0.0168555 -0.0610956,-0.0221297 0.0615864,-0.132698 -0.0461039,-0.0184679 -0.0443122,-0.0224289 -0.0421811,-0.026218 -0.0397267,-0.0298063 -0.0233859,-0.0209809 z "/>
<path fill="rgb(241,240,234)" stroke="rgb(241,240,234)" d="M 2.60767,1.3748 l 0,0.17535 -0.279286,0 -0.0112422,0.000500474 -0.0111503,0.00151949 -0.0109662,0.00252594 -0.0106914,0.00351151 -0.0103283,0.00446805 -0.00987982,0.00538766 -0.00934965,0.00626274 -0.00874219,0.00708604 -0.00806246,0.00785077 -0.00731608,0.0085506 -0.00650923,0.00917974 -0.0853031,0.132698 0.0616367,0.133225 -0.346722,0 0.261407,-0.427043 0.00717466,-0.0105151 0.00803678,-0.00987188 0.00884151,-0.00915814 0.00958312,-0.00837901 0.0102563,-0.00754004 0.0108562,-0.00664724 0.0113787,-0.00570698 0.0118199,-0.00472597 0.0121767,-0.00371121 0.0124465,-0.00266996 0.0126275,-0.00160964 0.0127183,-0.000537826 0.364589,0 z M 1.60767,1.87292 l 0,-0.827235 0.0224634,0.022495 0.032581,0.0388418 0.029094,0.041518 0.0253882,0.0438822 0.0214917,0.0459164 0.0174335,0.0476055 0.0132443,0.0489367 0.00895551,0.0499 0.0045994,0.0504881 0.000208728,0.0506968 -0.00418352,0.0505243 -0.00854431,0.049972 -0.0128409,0.049044 -0.0170409,0.0477474 -0.0211128,0.0460918 -0.0250261,0.0440897 -0.0287511,0.0417562 -0.0322601,0.0391088 -0.0182905,0.0186204 -0.00740947,0 z "/>
<path fill="rgb(241,240,234)" stroke="rgb(241,240,234)" d="M 3.60767,1.76193 l 0,0.11099 -0.665178,0 -0.00976911,-0.00912221 -0.03409,-0.0379439 -0.0306363,-0.0407833 -0.0269473,-0.0433094 -0.0230513,-0.0455028 -0.0189781,-0.0473466 -0.0147592,-0.0488266 -0.0104268,-0.0499314 -0.166164,0 0,-0.17535 0.161421,0 0.00942645,-0.0505837 0.0138471,-0.0495563 0.01816,-0.0481433 0.0223317,-0.0463558 0.0263296,-0.0442077 0.0301226,-0.0417156 0.0336814,-0.038899 0.036978,-0.0357797 0.039987,-0.0323821 0.0426849,-0.0287326 0.0450507,-0.0248595 0.0470661,-0.020793 0.0487152,-0.0165648 0.0499854,-0.0122077 0.0508666,-0.00775558 0.0513522,-0.00324315 0.0514382,0.00129451 0.051124,0.0058221 0.0504121,0.0103044 0.049308,0.0147065 0.0478203,0.0189942 0.0218912,0.0110189 0,0.212848 -0.0145623,-0.0122504 -0.0290047,-0.0203274 -0.0306808,-0.0176964 -0.0321189,-0.0149282 -0.0333079,-0.0120442 -0.0342385,-0.00906669 -0.0349034,-0.00601889 -0.0352977,-0.0029244 -0.0354181,0.000192777 -0.0352637,0.00330846 -0.0348359,0.00639847 -0.0341377,0.00943885 -0.0331748,0.012406 -0.0319545,0.0152769 -0.0304864,0.0180294 -0.0287817,0.0206419 -0.0268538,0.0230943 -0.0247176,0.0253676 -0.0223896,0.0274441 -0.019888,0.0293078 -0.0172321,0.030944 -0.0144425,0.0323402 -0.0115409,0.0334856 -0.00854971,0.0343712 0.421772,0 0.00764136,0.000333629 0.0075832,0.000998348 0.00746733,0.00165547 0.00729464,0.00229999 0.00706642,0.00292701 0.00678442,0.00353175 0.0064508,0.00410961 0.00606807,0.0046562 0.00563917,0.00516734 0.00516734,0.00563917 0.0046562,0.00606807 0.00410961,0.0064508 0.00353175,0.00678442 0.00292701,0.00706642 0.00229999,0.00729464 0.00165547,0.00746733 0.000998348,0.0075832 0.000333629,0.00764136 -0.000333629,0.00764136 -0.000998348,0.0075832 -0.00165547,0.00746733 -0.00229999,0.00729464 -0.00292701,0.00706642 -0.00353175,0.00678442 -0.00410961,0.0064508 -0.0046562,0.00606807 -0.00516734,0.00563917 -0.00563917,0.00516734 -0.00606807,0.0046562 -0.0064508,0.00410961 -0.00678442,0.00353175 -0.00706642,0.00292701 -0.00729464,0.00229999 -0.00746733,0.00165547 -0.0075832,0.000998348 -0.00764136,0.000333629 -0.421772,0 0.00970829,0.0334767 0.0125585,0.032515 0.0153152,0.0313111 0.0179579,0.029874 0.0204667,0.0282144 0.0228232,0.0263447 0.0250097,0.0242788 0.0270099,0.022032 0.0288089,0.0196212 0.0303934,0.0170642 0.0317515,0.0143801 0.0328731,0.0115889 0.0337499,0.00871141 0.0343753,0.00576903 0.0347447,0.00278369 0.0348553,-0.000222385 0.0347063,-0.0032268 0.0342989,-0.00620719 0.033636,-0.00914135 0.0327225,-0.0120074 0.0315654,-0.0147841 0.0301731,-0.0174506 0.0285562,-0.0199872 0.0157217,-0.0131619 z "/>
<path fill="rgb(241,240,234)" stroke="rgb(241,240,234)" d="M 3.60767,1.87292 l 0.146415,0 -0.0330154,0.0301098 -0.0405539,0.0309395 -0.0431074,0.0272694 -0.0297381,0.0153446 0,-0.103663 z "/>
<path fill="rgb(241,240,234)" stroke="rgb(241,240,234)" d="M 2.94249,1.87292 l 0.665178,0 0,0.103663 -0.0155916,0.00804516 -0.0472038,0.0193305 -0.0487152,0.0151227 -0.0498523,0.0107987 -0.0506064,0.00639171 -0.0509718,0.00193564 -0.0509454,-0.0025353 -0.0505277,-0.00698676 -0.0497218,-0.0113845 -0.0485339,-0.0156949 -0.0469731,-0.0198846 -0.0450514,-0.0239216 -0.0427835,-0.0277747 -0.040187,-0.0314145 -0.0275126,-0.0256907 z "/>
<path fill="rgb(241,240,234)" stroke="rgb(241,240,234)" d="M 3.30929,2.1804 l 0.464424,0 0,0.236917 -1.00937,0 -0.00591378,-0.000256273 -0.00586944,-0.000766899 -0.0057811,-0.00127177 -0.00564941,-0.00176711 -0.00547536,-0.00224921 -0.00526026,-0.00271443 -0.00500572,-0.00315931 -0.00471365,-0.0035805 -0.00438624,-0.00397484 -0.00402595,-0.00433938 -0.00363547,-0.00467139 -0.00321773,-0.00496837 -0.00277586,-0.00522811 -0.00231319,-0.00544864 -0.00183317,-0.00562832 -0.0013394,-0.0057658 -0.000835599,-0.00586006 -0.000325528,-0.00591038 0.000186984,-0.00591638 0.000698094,-0.00587802 0.00120397,-0.0057956 0.00170082,-0.00566972 0.00218492,-0.00550133 0.00265263,-0.0052917 0.116611,-0.249066 0.00270274,-0.00494277 0.00312019,-0.00469044 0.00351425,-0.00440294 0.00388196,-0.00408243 0.00422056,-0.00373131 0.00452752,-0.00335222 0.00480054,-0.00294799 0.00503756,-0.00252166 0.00523682,-0.00207643 0.00539681,-0.00161562 0.00551634,-0.00114271 0.00559452,-0.000661224 0.00563074,-0.000174783 0.00562475,0.000312969 0.0055766,0.000798374 0.00548663,0.00127779 0.00535552,0.00174763 0.00518426,0.00220437 0.00497414,0.00264458 0.0596801,0.0385758 0.0629985,0.0328786 0.0657745,0.0268984 0.0679843,0.0206866 0.069609,0.0142968 0.0706344,0.00778386 z "/>
<path fill="rgb(0,91,140)" stroke="rgb(0,91,140)" d="M 4.1,1.4 l 0,1 -0.326285,0 0,-0.219601 -0.373715,0 0,-0.144673 0.0463064,-0.00584861 0.0498523,-0.0107987 0.0487152,-0.0151227 0.0472038,-0.0193305 0.0453297,-0.0233898 0.0431074,-0.0272694 0.0405539,-0.0309395 0.0376888,-0.0343718 0.0345341,-0.0375401 0.0311141,-0.04042 0.0274551,-0.0429894 0.0235851,-0.0452284 0.0195339,-0.04712 0.0153327,-0.0486495 0.0110136,-0.0498053 0.00660996,-0.0505784 0.00215551,-0.0509629 -0.00234994,-0.0514008 -0.000533612,-0.00396076 0.172792,0 z "/>
<path fill="rgb(0,91,140)" stroke="rgb(0,91,140)" d="M 4.1,3.4 l 0,1 -0.7,0 0,-1 0.7,0 z "/>
<path fill="rgb(0,91,140)" stroke="rgb(0,91,140)" d="M 4.1,4.4 l 0,1 -0.7,0 0,-1 0.7,0 z "/>
<path fill="rgb(0,91,140)" stroke="rgb(0,91,140)" d="M 4.1,5.4 l 0,1 -0.7,0 0,-1 0.7,0 z "/>
<path fill="rgb(0,91,140)" stroke="rgb(0,91,140)" d="M 3.4,6.4 l 0.7,0 0,0.4 -0.00114159,0.0261467 -0.00341608,0.0259477 -0.00566458,0.0255513 -0.00786996,0.0249603 -0.0100155,0.0241794 -0.0120847,0.0232145 -0.014062,0.0220729 -0.0159323,0.0207634 -0.0176813,0.0192958 -0.0192958,0.0176813 -0.0207634,0.0159323 -0.0220729,0.014062 -0.0232145,0.0120847 -0.0241794,0.0100155 -0.0249603,0.00786996 -0.0255513,0.00566458 -0.0259477,0.00341608 -0.0261467,0.00114159 -0.4,0 0,-0.7 z "/>
<path fill="rgb(0,91,140)" stroke="rgb(0,91,140)" d="M 0.4,2.4 l 1,0 0,1 -1,0 0,-1 z "/>
<path fill="rgb(0,91,140)" stroke="rgb(0,91,140)" d="M 0.4,3.4 l 1,0 0,1 -1,0 0,-1 z "/>
<path fill="rgb(0,91,140)" stroke="rgb(0,91,140)" d="M 0.610736,1.4 l -0.00125956,0.0101368 -0.0017906,0.0496329 0.00255664,0.0495993 0.00688428,0.0491857 0.0111592,0.0483953 0.0153486,0.047234 0.0194204,0.0457108 0.0233433,0.0438374 0.0270875,0.0416281 0.0306241,0.0390998 0.033926,0.036272 0.036968,0.0331662 0.0397267,0.0298063 0.0421811,0.026218 0.0443122,0.0224289 0.0461039,0.0184679 -0.0615864,0.132698 0.0610956,0.0221297 0.0627558,0.0168555 0.0639616,0.0114592 0.0647042,0.00597989 0.0649784,0.000457319 0,-0.142185 0.108981,-0.0189348 0.0477814,0.107167 0,0.273553 -1,0 0,-1 0.210736,0 z "/>
<path fill="rgb(0,91,140)" stroke="rgb(0,91,140)" d="M 0.4,5.4 l 1,0 0,1 -1,0 0,-1 z "/>
<path fill="rgb(0,91,140)" stroke="rgb(0,91,140)" d="M 0.610736,1.4 l -0.210736,0 0,-0.7 0.00114159,-0.0261467 0.00341608,-0.0259477 0.00566458,-0.0255513 0.00786996,-0.0249603 0.0100155,-0.0241794 0.0120847,-0.0232145 0.014062,-0.0220729 0.0159323,-0.0207634 0.0176813,-0.0192958 0.0192958,-0.0176813 0.0207634,-0.0159323 0.0220729,-0.014062 0.0232145,-0.0120847 0.0241794,-0.0100155 0.0249603,-0.00786996 0.0255513,-0.00566458 0.0259477,-0.00341608 0.0261467,-0.00114159 0.7,-8.88178e-16 0,0.51457 -0.0232766,-0.00856127 -0.048918,-0.0133132 -0.0498873,-0.00902574 -0.0504816,-0.00467047 -0.0506964,-0.000280094 -0.0505301,0.00411239 -0.049984,0.00847396 -0.0490621,0.0127718 -0.0477713,0.0169737 -0.0461215,0.0210479 -0.0439607,0.0231103 -0.0417713,0.0268661 -0.0392618,0.0304161 -0.0364516,0.033733 -0.033362,0.0367914 -0.0300168,0.039568 -0.0264416,0.0420413 -0.0226638,0.0441926 -0.0187123,0.0460052 -0.0146175,0.0474653 -0.0104107,0.0485618 -0.00486454,0.0391493 z "/>
<path fill="rgb(0,91,140)" stroke="rgb(0,91,140)" d="M 2.4,0.4 l 0,0.974802 -0.15692,0 -0.0127183,0.000537826 -0.0126275,0.00160964 -0.0124465,0.00266996 -0.0121767,0.00371121 -0.0118199,0.00472597 -0.0113787,0.00570698 -0.0101856,0.00623659 -0.38002,0 -0.0013867,-0.015222 -0.00895551,-0.0499 -0.0132443,-0.0489367 -0.0174335,-0.0476055 -0.0214917,-0.0459164 -0.0253882,-0.0438822 -0.029094,-0.041518 -0.032581,-0.0388418 -0.0358231,-0.0358736 -0.0387959,-0.0326357 -0.041477,-0.0291524 -0.0438464,-0.02545 -0.0458861,-0.0215563 -0.0243042,-0.00893922 0,-0.51457 0.85,4.44089e-16 0.15,-4.44089e-16 z "/>
<path fill="rgb(0,91,140)" stroke="rgb(0,91,140)" d="M 0.4,6.4 l 1,0 0,0.7 -0.7,0 -0.0261467,-0.00114159 -0.0259477,-0.00341608 -0.0255513,-0.00566458 -0.0249603,-0.00786996 -0.0241794,-0.0100155 -0.0232145,-0.0120847 -0.0220729,-0.014062 -0.0207634,-0.0159323 -0.0192958,-0.0176813 -0.0176813,-0.0192958 -0.0159323,-0.0207634 -0.014062,-0.0220729 -0.0120847,-0.0232145 -0.0100155,-0.0241794 -0.00786996,-0.0249603 -0.00566458,-0.0255513 -0.00341608,-0.0259477 -0.00114159,-0.0261467 -4.44089e-16,-0.4 z "/>
<path fill="rgb(0,91,140)" stroke="rgb(0,91,140)" d="M 4.1,2.4 l 0,1 -0.7,0 0,-0.982684 0.373715,0 0,-0.0173158 0.326285,0 z "/>
<path fill="rgb(0,91,140)" stroke="rgb(0,91,140)" d="M 2.4,3.4 l 1,0 0,1 -1,0 0,-1 z "/>
<path fill="rgb(0,91,140)" stroke="rgb(0,91,140)" d="M 2.4,7.1 l 0,-0.7 1,0 0,0.7 -1,0 z "/>
<path fill="rgb(0,91,140)" stroke="rgb(0,91,140)" d="M 0.4,4.4 l 1,0 0,1 -1,0 0,-1 z "/>
<path fill="rgb(0,91,140)" stroke="rgb(0,91,140)" d="M 2.4,4.4 l 1,0 0,1 -1,0 0,-1 z "/>
<path fill="rgb(0,91,140)" stroke="rgb(0,91,140)" d="M 2.4,1.55015 l 0,0.849849 -0.288456,0 0.00265792,-0.00215695 0.00500914,-0.00488277 0.00454525,-0.0053173 0.00404382,-0.00570793 0.153188,-0.248931 0.00349077,-0.0062821 0.00291897,-0.00656733 0.0023241,-0.00680065 0.00171086,-0.0069802 0.00108409,-0.00710458 0.000448755,-0.00717279 -0.000190129,-0.0071843 -0.000827511,-0.00713901 -0.00145835,-0.00703729 -0.00207766,-0.00687994 -0.00268055,-0.0066682 -0.146889,-0.317496 0.0853031,-0.132698 0.00650923,-0.00917974 0.00731608,-0.0085506 0.00806246,-0.00785077 0.00874219,-0.00708604 0.00934965,-0.00626274 0.00987982,-0.00538766 0.0103283,-0.00446805 0.0106914,-0.00351151 0.0109662,-0.00252594 0.0111503,-0.00151949 0.0112422,-0.000500474 0.0716164,0 z M 1.4,2.12645 l 0.121966,0.273553 -0.121966,0 0,-0.273553 z M 2.15973,1.4 l -0.000670674,0.000410651 -0.0102563,0.00754004 -0.00958312,0.00837901 -0.00884151,0.00915814 -0.00803678,0.00987188 -0.00717466,0.0105151 -0.478615,0.781881 -0.118468,-0.274844 0.0412356,-0.0294929 0.0385258,-0.032954 0.0355265,-0.0361673 0.0322601,-0.0391088 0.0287511,-0.0417562 0.0250261,-0.0440897 0.0211128,-0.0460918 0.0170409,-0.0477474 0.0128409,-0.049044 0.00854431,-0.049972 0.00418352,-0.0505243 -0.000208728,-0.0506968 -0.0032127,-0.0352662 0.38002,0 z "/>
<path fill="rgb(0,91,140)" stroke="rgb(0,91,140)" d="M 1.52197,2.4 l 0.161959,0.363252 0.00767657,0.0153465 0.00900775,0.014605 0.0102679,0.0137483 0.0114471,0.0127832 0.012536,0.0117173 0.013526,0.010559 0.0144094,0.0093174 0.0151792,0.00800235 0.0158293,0.00662419 0.0163545,0.0051938 0.0167508,0.00372246 0.017015,0.00222175 0.017145,0.000703534 0.0171398,-0.000820236 0.232212,0 0,-0.180074 -0.184817,0 -0.0106004,-0.000466966 -0.0105183,-0.00139728 -0.0103547,-0.00231677 -0.0101108,-0.00321831 -0.00978868,-0.00409491 -0.00939068,-0.0049398 -0.00891994,-0.00574641 -0.00838009,-0.00650851 -0.00777532,-0.00722018 -0.00711031,-0.00787592 -0.00639021,-0.00847064 -0.00562062,-0.00899974 -0.00480747,-0.00945911 -0.00395708,-0.0098452 -0.0853031,-0.199028 0.33645,0 0.00698798,-0.000317812 0.00693029,-0.000950811 0.00681537,-0.00157596 0.00664418,-0.0021881 0.00641814,-0.00278217 0.0061391,-0.00335327 0.00580937,-0.00389668 0.00277377,-0.00225097 0.288456,0 0,1 -1,0 0,-1 0.121966,0 z "/>
<path fill="rgb(0,91,140)" stroke="rgb(0,91,140)" d="M 1.4,3.4 l 1,0 0,1 -1,0 0,-1 z "/>
<path fill="rgb(0,91,140)" stroke="rgb(0,91,140)" d="M 1.4,4.4 l 1,0 0,1 -1,0 0,-1 z "/>
<path fill="rgb(0,91,140)" stroke="rgb(0,91,140)" d="M 2.4,5.4 l 1,0 0,1 -1,0 0,-1 z "/>
<path fill="rgb(0,91,140)" stroke="rgb(0,91,140)" d="M 3.74959,1.47617 l -0.00337027,0.0346927 -0.00634895,0.0342729 -0.00928034,0.0335979 -0.0121426,0.0326726 -0.0149144,0.031504 -0.0175752,0.0301007 -0.0201051,0.0284733 -0.0224852,0.0266338 -0.0246978,0.0245959 -0.0267265,0.0223749 -0.0285562,0.0199872 -0.0301731,0.0174506 -0.0315654,0.0147841 -0.0327225,0.0120074 -0.033636,0.00914135 -0.0342989,0.00620719 -0.0347063,0.0032268 -0.0348553,0.000222385 -0.0347447,-0.00278369 -0.0343753,-0.00576903 -0.0337499,-0.00871141 -0.0328731,-0.0115889 -0.0317515,-0.0143801 -0.0303934,-0.0170642 -0.0288089,-0.0196212 -0.0270099,-0.022032 -0.0250097,-0.0242788 -0.0228232,-0.0263447 -0.0204667,-0.0282144 -0.0179579,-0.029874 -0.0153152,-0.0313111 -0.0125585,-0.032515 -0.00970829,-0.0334767 0.421772,0 0.00764136,-0.000333629 0.0075832,-0.000998348 0.00746733,-0.00165547 0.00729464,-0.00229999 0.00706642,-0.00292701 0.00678442,-0.00353175 0.0064508,-0.00410961 0.00606807,-0.0046562 0.00563917,-0.00516734 0.00516734,-0.00563917 0.0046562,-0.00606807 0.00410961,-0.0064508 0.00353175,-0.00678442 0.00292701,-0.00706642 0.00229999,-0.00729464 0.00165547,-0.00746733 0.000998348,-0.0075832 0.000333629,-0.00764136 -0.000333629,-0.00764136 -0.000998348,-0.0075832 -0.00165547,-0.00746733 -0.00229999,-0.00729464 -0.00292701,-0.00706642 -0.00353175,-0.00678442 -0.00410961,-0.0064508 -0.0046562,-0.00606807 -0.00516734,-0.00563917 -0.00563917,-0.00516734 -0.00606807,-0.0046562 -0.0064508,-0.00410961 -0.00678442,-0.00353175 -0.00706642,-0.00292701 -0.00729464,-0.00229999 -0.00746733,-0.00165547 -0.0075832,-0.000998348 -0.00764136,-0.000333629 -0.421772,0 0.00854971,-0.0343712 0.0115409,-0.0334856 0.0144425,-0.0323402 0.0172321,-0.030944 0.019888,-0.0293078 0.0223896,-0.0274441 0.0247176,-0.0253676 0.0268538,-0.0230943 0.0287817,-0.0206419 0.0304864,-0.0180294 0.0319545,-0.0152769 0.0331748,-0.012406 0.0341377,-0.00943885 0.0348359,-0.00639847 0.0352637,-0.00330846 0.0354181,-0.000192777 0.0352977,0.0029244 0.0349034,0.00601889 0.0342385,0.00906669 0.0333079,0.0120442 0.0321189,0.0149282 0.0306808,0.0176964 0.0290047,0.0203274 0.0271036,0.0228007 0.0249923,0.0250971 0.0226871,0.0271988 0.0202059,0.0290895 0.0175679,0.0307546 0.0147937,0.0321811 0.0119047,0.033358 0.00892335,0.0342761 0.0058728,0.0349283 0.00277669,0.0353096 -0.000340965,0.035417 z "/>
<path fill="rgb(0,91,140)" stroke="rgb(0,91,140)" d="M 1.04697,1.09053 l 0.0329218,-0.0114497 0.0337864,-0.0085685 0.0343994,-0.0056235 0.0347561,-0.00263662 0.0348541,0.000369899 0.0346924,0.00337366 0.0342723,0.0063523 0.033597,0.00928362 0.0326714,0.0121458 0.0315025,0.0149175 0.030099,0.0175781 0.0284713,0.0201078 0.0266316,0.0224878 0.0245935,0.0247002 0.0223723,0.0267287 0.0199844,0.0285581 0.0174477,0.0301748 0.014781,0.0315668 0.0120042,0.0327237 0.00913806,0.0336368 0.00620384,0.0342995 0.00322342,0.0347066 0.000218982,0.0348553 -0.00278708,0.0347444 -0.00577239,0.0343747 -0.00871471,0.033749 -0.0115921,0.0328719 -0.0143832,0.03175 -0.0170671,0.0303917 -0.019624,0.028807 -0.0220346,0.0270077 -0.0242812,0.0250073 -0.0263469,0.0228206 -0.176415,-0.383105 -0.00349921,-0.00680127 -0.00407866,-0.00647041 -0.00462707,-0.00609031 -0.00514027,-0.00566386 -0.00561435,-0.0051943 -0.0060457,-0.00468521 -0.00643103,-0.00414047 -0.00676743,-0.00356421 -0.00705232,-0.00296083 -0.00728353,-0.00233491 -0.00745932,-0.00169122 -0.00757833,-0.00103466 -0.00763967,-0.000370232 -0.00764287,0.000297018 -0.0075879,0.000962008 -0.00747518,0.00161968 -0.00730557,0.00226502 -0.00708036,0.00289312 -0.00680127,0.00349921 -0.00647041,0.00407866 -0.00609031,0.00462707 -0.00566386,0.00514027 -0.0051943,0.00561435 -0.00468521,0.0060457 -0.00414047,0.00643103 -0.00356421,0.00676743 -0.00296083,0.00705232 -0.00233491,0.00728353 -0.00169122,0.00745932 -0.00103466,0.00757833 -0.000370232,0.00763967 0.000297018,0.00764287 0.000962008,0.0075879 0.00161968,0.00747518 0.00226502,0.00730557 0.00289312,0.00708036 0.176415,0.383105 -0.0347962,0.00661061 -0.0352429,0.00352326 -0.0354162,0.000408576 -0.0353148,-0.00270927 -0.0349395,-0.00580611 -0.0342931,-0.0088579 -0.0333807,-0.011841 -0.0322093,-0.0147322 -0.0307881,-0.0175092 -0.029128,-0.0201503 -0.0272421,-0.0226351 -0.0251447,-0.0249443 -0.0228524,-0.0270601 -0.0203827,-0.0289659 -0.017755,-0.030647 -0.0149895,-0.0320904 -0.0121077,-0.0332848 -0.00913203,-0.0342211 -0.00608551,-0.0348919 -0.00299178,-0.035292 0.000125163,-0.0354184 0.00324113,-0.03527 0.00633196,-0.034848 0.00937366,-0.0341557 0.0123427,-0.0331984 0.0152159,-0.0319836 0.0179711,-0.0305207 0.0205869,-0.0288211 0.023043,-0.0268979 0.0253204,-0.024766 0.0274013,-0.022442 0.0292697,-0.0199439 0.0309111,-0.0172911 0.0323126,-0.0145042 z "/>
<path fill="rgb(0,91,140)" stroke="rgb(0,91,140)" d="M 3.8,0.4 l 0.0261467,0.00114159 0.0259477,0.00341608 0.0255513,0.00566458 0.0249603,0.00786996 0.0241794,0.0100155 0.0232145,0.0120847 0.0220729,0.014062 0.0207634,0.0159323 0.0192958,0.0176813 0.0176813,0.0192958 0.0159323,0.0207634 0.014062,0.0220729 0.0120847,0.0232145 0.0100155,0.0241794 0.00786996,0.0249603 0.00566458,0.0255513 0.00341608,0.0259477 0.00114159,0.0261467 0,0.7 -0.172792,0 -0.00633651,-0.047033 -0.0113369,-0.05019 -0.0157154,-0.0489958 -0.0199717,-0.0474204 -0.0240726,-0.0454761 -0.0279862,-0.043178 -0.0316821,-0.0405439 -0.0351315,-0.0375945 -0.0383076,-0.0343525 -0.0411856,-0.0308433 -0.0437433,-0.0270941 -0.0459606,-0.0231342 -0.0478203,-0.0189942 -0.049308,-0.0147065 -0.0504121,-0.0103044 -0.0382377,-0.00435458 0,-0.475784 0.4,0 z "/>
<path fill="rgb(0,91,140)" stroke="rgb(0,91,140)" d="M 1.4,5.4 l 1,0 0,1 -1,0 0,-1 z "/>
<path fill="rgb(0,91,140)" stroke="rgb(0,91,140)" d="M 1.4,6.4 l 1,0 0,0.7 -0.15,0 -0.85,0 0,-0.7 z "/>
<path fill="rgb(0,91,140)" stroke="rgb(0,91,140)" d="M 3.4,0.4 l 0,0.475784 -0.0128863,-0.00146752 -0.0514382,-0.00129451 -0.0513522,0.00324315 -0.0508666,0.00775558 -0.0499854,0.0122077 -0.0487152,0.0165648 -0.0470661,0.020793 -0.0450507,0.0248595 -0.0426849,0.0287326 -0.039987,0.0323821 -0.036978,0.0357797 -0.0336814,0.038899 -0.0301226,0.0417156 -0.0263296,0.0442077 -0.0223317,0.0463558 -0.01816,0.0481433 -0.0138471,0.0495563 -0.00942645,0.0505837 -0.36909,0 0,-0.974802 1,0 z "/>
<path fill="rgb(0,91,140)" stroke="rgb(0,91,140)" d="M 2.71897,2.4 l -0.318968,0 0,-0.849849 0.373834,0 0.0104268,0.0499314 0.0147592,0.0488266 0.0189781,0.0473466 0.0230513,0.0455028 0.0269473,0.0433094 0.0306363,0.0407833 0.03409,0.0379439 0.0372817,0.0348129 0.040187,0.0314145 0.0427835,0.0277747 0.0450514,0.0239216 0.0469731,0.0198846 0.0485339,0.0156949 0.0497218,0.0113845 0.0505277,0.00698676 0.0509454,0.0025353 0.0509718,-0.00193564 0.00430003,-0.000543104 0,0.144673 -0.0907081,0 -0.0706344,-0.00778386 -0.069609,-0.0142968 -0.0679843,-0.0206866 -0.0657745,-0.0268984 -0.0629985,-0.0328786 -0.0596801,-0.0385758 -0.00497414,-0.00264458 -0.00518426,-0.00220437 -0.00535552,-0.00174763 -0.00548663,-0.00127779 -0.0055766,-0.000798374 -0.00562475,-0.000312969 -0.00563074,0.000174783 -0.00559452,0.000661224 -0.00551634,0.00114271 -0.00539681,0.00161562 -0.00523682,0.00207643 -0.00503756,0.00252166 -0.00480054,0.00294799 -0.00452752,0.00335222 -0.00422056,0.00373131 -0.00388196,0.00408243 -0.00351425,0.00440294 -0.00312019,0.00469044 -0.00270274,0.00494277 -0.116611,0.249066 -0.00265263,0.0052917 -0.00218492,0.00550133 -0.00170082,0.00566972 -0.00120397,0.0057956 -0.000698094,0.00587802 -0.000186984,0.00591638 0.000325528,0.00591038 0.000835599,0.00586006 0.0013394,0.0057658 0.00183317,0.00562832 0.00231319,0.00544864 0.00277586,0.00522811 0.00321773,0.00496837 0.00363547,0.00467139 0.00402595,0.00433938 0.00267554,0.00242459 z "/>
<path fill="rgb(0,91,140)" stroke="rgb(0,91,140)" d="M 2.71897,2.4 l 0.00171071,0.00155025 0.00471365,0.0035805 0.00500572,0.00315931 0.00526026,0.00271443 0.00547536,0.00224921 0.00564941,0.00176711 0.0057811,0.00127177 0.00586944,0.000766899 0.00591378,0.000256273 0.635653,0 0,0.982684 -1,0 0,-1 0.318968,0 z "/>
<path fill="rgb(0,91,140)" stroke="rgb(0,91,140)" d="M 3.8,7.5 l -1.55,0 -4.44089e-16,-0.2 1.55,0 0.0435779,-0.00190265 0.0432462,-0.00569347 0.0425854,-0.00944096 0.0416005,-0.0131166 0.0402991,-0.0166924 0.0386909,-0.0201412 0.0367882,-0.0234367 0.0346056,-0.0265538 0.0321596,-0.0294688 0.0294688,-0.0321596 0.0265538,-0.0346056 0.0234367,-0.0367882 0.0201412,-0.0386909 0.0166924,-0.0402991 0.0131166,-0.0416005 0.00944096,-0.0425854 0.00569347,-0.0432462 0.00190265,-0.0435779 0,-6.1 -0.00190265,-0.0435779 -0.00569347,-0.0432462 -0.00944096,-0.0425854 -0.0131166,-0.0416005 -0.0166924,-0.0402991 -0.0201412,-0.0386909 -0.0234367,-0.0367882 -0.0265538,-0.0346056 -0.0294688,-0.0321596 -0.0321596,-0.0294688 -0.0346056,-0.0265538 -0.0367882,-0.0234367 -0.0386909,-0.0201412 -0.0402991,-0.0166924 -0.0416005,-0.0131166 -0.0425854,-0.00944096 -0.0432462,-0.00569347 -0.0435779,-0.00190265 -1.55,4.44089e-16 0,-0.2 1.55,-4.44089e-16 0.061009,0.00266371 0.0605447,0.00797086 0.0596196,0.0132173 0.0582408,0.0183632 0.0564187,0.0233694 0.0541672,0.0281977 0.0515035,0.0328114 0.0484478,0.0371753 0.0450234,0.0412564 0.0412564,0.0450234 0.0371753,0.0484478 0.0328114,0.0515035 0.0281977,0.0541672 0.0233694,0.0564187 0.0183632,0.0582408 0.0132173,0.0596196 0.00797086,0.0605447 0.00266371,0.061009 8.88178e-16,6.1 -0.00266371,0.061009 -0.00797086,0.0605447 -0.0132173,0.0596196 -0.0183632,0.0582408 -0.0233694,0.0564187 -0.0281977,0.0541672 -0.0328114,0.0515035 -0.0371753,0.0484478 -0.0412564,0.0450234 -0.0450234,0.0412564 -0.0484478,0.0371753 -0.0515035,0.0328114 -0.0541672,0.0281977 -0.0564187,0.0233694 -0.0582408,0.0183632 -0.0596196,0.0132173 -0.0605447,0.00797086 -0.061009,0.00266371 z "/>
<path fill="rgb(0,91,140)" stroke="rgb(0,91,140)" d="M 0,6.8 l 0,-6.1 0.00266371,-0.061009 0.00797086,-0.0605447 0.0132173,-0.0596196 0.0183632,-0.0582408 0.0233694,-0.0564187 0.0281977,-0.0541672 0.0328114,-0.0515035 0.0371753,-0.0484478 0.0412564,-0.0450234 0.0450234,-0.0412564 0.0484478,-0.0371753 0.0515035,-0.0328114 0.0541672,-0.0281977 0.0564187,-0.0233694 0.0582408,-0.0183632 0.0596196,-0.0132173 0.0605447,-0.00797086 0.061009,-0.00266371 1.55,-8.88178e-16 0,0.2 -1.55,4.44089e-16 -0.0435779,0.00190265 -0.0432462,0.00569347 -0.0425854,0.00944096 -0.0416005,0.0131166 -0.0402991,0.0166924 -0.0386909,0.0201412 -0.0367882,0.0234367 -0.0346056,0.0265538 -0.0321596,0.0294688 -0.0294688,0.0321596 -0.0265538,0.0346056 -0.0234367,0.0367882 -0.0201412,0.0386909 -0.0166924,0.0402991 -0.0131166,0.0416005 -0.00944096,0.0425854 -0.00569347,0.0432462 -0.00190265,0.0435779 0,6.1 0.00190265,0.0435779 0.00569347,0.0432462 0.00944096,0.0425854 0.0131166,0.0416005 0.0166924,0.0402991 0.0201412,0.0386909 0.0234367,0.0367882 0.0265538,0.0346056 0.0294688,0.0321596 0.0321596,0.0294688 0.0346056,0.0265538 0.0367882,0.0234367 0.0386909,0.0201412 0.0402991,0.0166924 0.0416005,0.0131166 0.0425854,0.00944096 0.0432462,0.00569347 0.0435779,0.00190265 1.55,0 4.44089e-16,0.2 -1.55,0 -0.061009,-0.00266371 -0.0605447,-0.00797086 -0.0596196,-0.0132173 -0.0582408,-0.0183632 -0.0564187,-0.0233694 -0.0541672,-0.0281977 -0.0515035,-0.0328114 -0.0484478,-0.0371753 -0.0450234,-0.0412564 -0.0412564,-0.0450234 -0.0371753,-0.0484478 -0.0328114,-0.0515035 -0.0281977,-0.0541672 -0.0233694,-0.0564187 -0.0183632,-0.0582408 -0.0132173,-0.0596196 -0.00797086,-0.0605447 -0.00266371,-0.061009 z "/>
<path fill="rgb(241,240,234)" stroke="rgb(241,240,234)" d="M 2.25,0.4 l 0,-0.2 1.55,-4.44089e-16 0.0435779,0.00190265 0.0432462,0.00569347 0.0425854,0.00944096 0.0416005,0.0131166 0.0402991,0.0166924 0.0386909,0.0201412 0.0367882,0.0234367 0.0346056,0.0265538 0.0321596,0.0294688 0.0294688,0.0321596 0.0265538,0.0346056 0.0234367,0.0367882 0.0201412,0.0386909 0.0166924,0.0402991 0.0131166,0.0416005 0.00944096,0.0425854 0.00569347,0.0432462 0.00190265,0.0435779 0,6.1 -0.00190265,0.0435779 -0.00569347,0.0432462 -0.00944096,0.0425854 -0.0131166,0.0416005 -0.0166924,0.0402991 -0.0201412,0.0386909 -0.0234367,0.0367882 -0.0265538,0.0346056 -0.0294688,0.0321596 -0.0321596,0.0294688 -0.0346056,0.0265538 -0.0367882,0.0234367 -0.0386909,0.0201412 -0.0402991,0.0166924 -0.0416005,0.0131166 -0.0425854,0.00944096 -0.0432462,0.00569347 -0.0435779,0.00190265 -1.55,0 0,-0.2 1.55,0 0.0261467,-0.00114159 0.0259477,-0.00341608 0.0255513,-0.00566458 0.0249603,-0.00786996 0.0241794,-0.0100155 0.0232145,-0.0120847 0.0220729,-0.014062 0.0207634,-0.0159323 0.0192958,-0.0176813 0.0176813,-0.0192958 0.0159323,-0.0207634 0.014062,-0.0220729 0.0120847,-0.0232145 0.0100155,-0.0241794 0.00786996,-0.0249603 0.00566458,-0.0255513 0.00341608,-0.0259477 0.00114159,-0.0261467 0,-6.1 -0.00114159,-0.0261467 -0.00341608,-0.0259477 -0.00566458,-0.0255513 -0.00786996,-0.0249603 -0.0100155,-0.0241794 -0.0120847,-0.0232145 -0.014062,-0.0220729 -0.0159323,-0.0207634 -0.0176813,-0.0192958 -0.0192958,-0.0176813 -0.0207634,-0.0159323 -0.0220729,-0.014062 -0.0232145,-0.0120847 -0.0241794,-0.0100155 -0.0249603,-0.00786996 -0.0255513,-0.00566458 -0.0259477,-0.00341608 -0.0261467,-0.00114159 -1.55,4.44089e-16 z "/>
<path fill="rgb(241,240,234)" stroke="rgb(241,240,234)" d="M 0.7,0.4 l -0.0261467,0.00114159 -0.0259477,0.00341608 -0.0255513,0.00566458 -0.0249603,0.00786996 -0.0241794,0.0100155 -0.0232145,0.0120847 -0.0220729,0.014062 -0.0207634,0.0159323 -0.0192958,0.0176813 -0.0176813,0.0192958 -0.0159323,0.0207634 -0.014062,0.0220729 -0.0120847,0.0232145 -0.0100155,0.0241794 -0.00786996,0.0249603 -0.00566458,0.0255513 -0.00341608,0.0259477 -0.00114159,0.0261467 4.44089e-16,6.1 0.00114159,0.0261467 0.00341608,0.0259477 0.00566458,0.0255513 0.00786996,0.0249603 0.0100155,0.0241794 0.0120847,0.0232145 0.014062,0.0220729 0.0159323,0.0207634 0.0176813,0.0192958 0.0192958,0.0176813 0.0207634,0.0159323 0.0220729,0.014062 0.0232145,0.0120847 0.0241794,0.0100155 0.0249603,0.00786996 0.0255513,0.00566458 0.0259477,0.00341608 0.0261467,0.00114159 1.55,0 0,0.2 -1.55,0 -0.0435779,-0.00190265 -0.0432462,-0.00569347 -0.0425854,-0.00944096 -0.0416005,-0.0131166 -0.0402991,-0.0166924 -0.0386909,-0.0201412 -0.0367882,-0.0234367 -0.0346056,-0.0265538 -0.0321596,-0.0294688 -0.0294688,-0.0321596 -0.0265538,-0.0346056 -0.0234367,-0.0367882 -0.0201412,-0.0386909 -0.0166924,-0.0402991 -0.0131166,-0.0416005 -0.00944096,-0.0425854 -0.00569347,-0.0432462 -0.00190265,-0.0435779 0,-6.1 0.00190265,-0.0435779 0.00569347,-0.0432462 0.00944096,-0.0425854 0.0131166,-0.0416005 0.0166924,-0.0402991 0.0201412,-0.0386909 0.0234367,-0.0367882 0.0265538,-0.0346056 0.0294688,-0.0321596 0.0321596,-0.0294688 0.0346056,-0.0265538 0.0367882,-0.0234367 0.0386909,-0.0201412 0.0402991,-0.0166924 0.0416005,-0.0131166 0.0425854,-0.00944096 0.0432462,-0.00569347 0.0435779,-0.00190265 1.55,-4.44089e-16 0,0.2 -1.55,4.44089e-16 z "/>
<path fill="rgb(241,240,234)" stroke="rgb(241,240,234)" d="M 2.55816,6.7675 l -1.46852,0 0,-3.49954 0.574312,0 0,1.37298 0.894208,0 0.0901723,0.00214696 0.109495,0.0107348 0.103054,0.0182492 0.0944662,0.026837 0.0869518,0.0354248 0.080511,0.0440127 0.0837314,0.0601149 0.0794375,0.0687027 0.0708496,0.078364 0.0633353,0.0858784 0.0558209,0.0944662 0.0461596,0.0998336 -1.85819,0.00214696 0,0.872739 0.916752,0 0.939295,0.02469 -0.0440127,0.0901723 -0.053674,0.0837314 -0.0622618,0.0794375 -0.0719231,0.0729966 -0.080511,0.0665557 -0.0890988,0.0622618 -0.0644088,0.0354248 -0.0890988,0.0407922 -0.0944662,0.0311309 -0.0987601,0.0225431 -0.104128,0.0128818 -0.109495,0.00429392 z "/>
<path fill="rgb(241,240,234)" stroke="rgb(241,240,234)" d="M 3.51999,6.16528 l -0.939295,-0.02469 0.0687027,-0.00322044 0.104128,-0.0203961 0.0890988,-0.0375718 0.0729966,-0.0568944 0.02469,-0.0257635 0.0579679,-0.0869518 0.0343513,-0.100907 0.0118083,-0.112715 0,-0.0289839 -0.0182492,-0.110568 -0.0429392,-0.0933927 -0.0676292,-0.078364 -0.0440127,-0.0343513 -0.0858784,-0.0461596 -0.0966132,-0.026837 -0.108421,-0.00966132 -0.916752,0 1.85819,-0.00214696 0.0386453,0.105201 0.026837,0.107348 0.0161022,0.108421 0.0053674,0.109495 -0.00107348,0.051527 -0.00858784,0.113789 -0.0171757,0.106274 -0.026837,0.101981 -0.0354248,0.0955397 z "/>
</g></g></svg>
