<?xml version="1.0" encoding="UTF-8" standalone="no"?>
<!DOCTYPE svg PUBLIC "-//W3C//DTD SVG 1.1//EN" "http://www.w3.org/Graphics/SVG/1.1/DTD/svg11-flat.dtd"
[

]>
<svg xmlns="http://www.w3.org/2000/svg"  viewBox="-0.09375 -0.09375 7.6875 7.6875"><g fill="none" stroke="black" stroke-width="0.0125" transform="translate(0,7.5) scale(1, -1)">
<g id="Output" >
<path fill="rgb(0,91,140)" stroke="rgb(0,91,140)" d="M 5.74194,6.32793 l -0.622247,-0.899145 -0.00191109,-0.00251385 -0.00179699,-0.00259664 -0.0016793,-0.00267426 -0.00291101,-0.00539162 -0.00243346,-0.00562333 -0.00193765,-0.00581284 -0.0014273,-0.00595872 -0.000906245,-0.00605989 -0.000378385,-0.00611559 0.000152314,-0.00612539 0.00068187,-0.00608922 0.00120631,-0.00600736 0.0017217,-0.00588042 0.00222416,-0.00570935 0.00270994,-0.00549543 0.00317538,-0.00524028 0.00361699,-0.0049458 0.00403146,-0.00461421 0.00441567,-0.00424799 0.00476675,-0.00384989 0.00508206,-0.0034229 0.00535923,-0.00297023 0.00559618,-0.00249526 0.00579114,-0.00200157 0.00594264,-0.00149286 0.00604954,-0.000972951 0.00611105,-0.000445737 0.00612669,8.4822e-05 0.00609636,0.000614745 0.00602029,0.00114005 0.43464,0.101988 -8.88178e-16,-1.66786 -1.70166,4.44089e-16 0,1.66786 0.433063,-0.101988 0.00582112,-0.0015035 0.00592995,-0.000990756 0.00599371,-0.000470487 0.00601191,5.3359e-05 0.00598442,0.000576799 0.00591143,0.00109586 0.00579352,0.00160658 0.00563156,0.0021051 0.00542681,0.00258761 0.0051808,0.00305046 0.00489541,0.00349011 0.00457281,0.00390325 0.00421546,0.00428671 0.00382606,0.00463759 0.00340758,0.00495321 0.0029632,0.00523119 0.0024963,0.00546941 0.00201042,0.00566605 0.00150926,0.00581963 0.000996631,0.00592897 0.000476425,0.00599324 -4.74026e-05,0.00601196 -0.00057087,0.00598499 -0.00109,0.00591252 -0.00140953,0.00620887 -0.00196215,0.00605697 -0.00249886,0.00585599 -0.00301533,0.00560756 -0.627634,0.90693 -0.00374529,0.00493436 -0.00416341,0.00458706 -0.00454948,0.00420445 -0.00490052,0.00378946 -0.00521383,0.00334531 -0.005487,0.0028754 -0.00571793,0.00238335 -0.00590484,0.00187295 -0.00604629,0.00134814 -0.00614119,0.000812945 -0.00618881,0.000271492 -4.44089e-16,0.741648 2.05,-8.88178e-16 0,-0.741648 -0.00618851,-0.000271746 -0.00614087,-0.000813147 -0.00604596,-0.00134829 -0.00590451,-0.00187305 -0.0057176,-0.00238339 -0.00548668,-0.00287539 -0.00521352,-0.00334525 -0.00490023,-0.00378936 -0.00454922,-0.0042043 -0.00416319,-0.00458687 -0.00374511,-0.00493413 z "/>
<path fill="rgb(0,91,140)" stroke="rgb(0,91,140)" d="M 5.8,7.1 l 3.19231e-06,0 0,-0.741648 -1.0641e-06,4.0095e-11 -1.0641e-06,2.40572e-11 -1.0641e-06,8.01847e-12 0,0.741648 z "/>
<path fill="rgb(0,91,140)" stroke="rgb(0,91,140)" d="M 7.1,3.75 l -1.12583,-4.44089e-16 0,1.66786 0.43306,-0.101987 0.00660352,-0.00166483 0.00673553,-0.00100538 0.00680185,-0.000336113 0.00599197,0.000260678 0.00594665,0.00078034 0.00585636,0.0012941 0.00572176,0.00179807 0.00554388,0.00228844 0.00532407,0.0027615 0.00506399,0.00321367 0.00476559,0.00364153 0.00443115,0.00404184 0.00406319,0.00441158 0.0036645,0.00474795 0.00323809,0.00504841 0.00278718,0.00531067 0.00231519,0.00553277 0.00182568,0.00571301 0.00132237,0.00585004 0.000809052,0.00594281 0.000289614,0.00599064 -0.000232013,0.00599314 -0.000751886,0.00595032 -0.00126607,0.00586248 -0.00177068,0.0057303 -0.00226189,0.00555477 -0.002736,0.00533722 -0.00318941,0.0050793 -0.625976,0.906794 -0.00374294,0.00495419 -0.00416375,0.00460617 -0.00455235,0.00422252 -0.00490574,0.00380622 -0.00522118,0.00336048 -0.00549625,0.00288874 -0.0057288,0.00239466 -0.00591704,0.00188207 -0.00605952,0.00135491 -0.00615513,0.000817273 -0.00620313,0.000273316 0,0.741648 0.999998,8.88178e-16 0.0261467,-0.00114159 0.0259477,-0.00341608 0.0255513,-0.00566458 0.0249603,-0.00786996 0.0241794,-0.0100155 0.0232145,-0.0120847 0.0220729,-0.014062 0.0207634,-0.0159323 0.0192958,-0.0176813 0.0176813,-0.0192958 0.0159323,-0.0207634 0.014062,-0.0220729 0.0120847,-0.0232145 0.0100155,-0.0241794 0.00786996,-0.0249603 0.00566458,-0.0255513 0.00341608,-0.0259477 0.00114159,-0.0261467 8.88178e-16,-3.05 z "/>
<path fill="rgb(0,91,140)" stroke="rgb(0,91,140)" d="M 3.69194,6.32793 l 0.00374529,0.00493436 0.00416341,0.00458706 0.00454948,0.00420445 0.00490052,0.00378946 0.00521383,0.00334531 0.005487,0.0028754 0.00571793,0.00238335 0.00590484,0.00187295 0.00604629,0.00134814 0.00614119,0.000812945 0.00618881,0.000271492 -4.44089e-16,0.741648 -2.05,-8.88178e-16 0,-0.741648 0.00618881,-0.000271492 0.00614119,-0.000812945 0.00604629,-0.00134814 0.00590484,-0.00187295 0.00571793,-0.00238335 0.005487,-0.0028754 0.00521383,-0.00334531 0.00490052,-0.00378946 0.00454948,-0.00420445 0.00416341,-0.00458706 0.00374529,-0.00493436 0.622247,-0.899145 0.00191109,-0.00251385 0.00179699,-0.00259664 0.0016793,-0.00267426 0.00291101,-0.00539162 0.00243346,-0.00562333 0.00193765,-0.00581284 0.0014273,-0.00595872 0.000906245,-0.00605989 0.000378385,-0.00611559 -0.000152314,-0.00612539 -0.00068187,-0.00608922 -0.00120631,-0.00600736 -0.0017217,-0.00588042 -0.00222416,-0.00570935 -0.00270994,-0.00549543 -0.00317538,-0.00524028 -0.00361699,-0.0049458 -0.00403146,-0.00461421 -0.00441567,-0.00424799 -0.00476675,-0.00384989 -0.00508206,-0.0034229 -0.00535923,-0.00297023 -0.00559618,-0.00249526 -0.00579114,-0.00200157 -0.00594264,-0.00149286 -0.00604954,-0.000972951 -0.00611105,-0.000445737 -0.00612669,8.4822e-05 -0.00609636,0.000614745 -0.00602029,0.00114005 -0.43464,0.101988 0,-1.66786 1.70166,-4.44089e-16 0,1.66786 -0.43464,-0.101988 -0.00602029,-0.00114005 -0.00609636,-0.000614745 -0.00612669,-8.4822e-05 -0.00611105,0.000445737 -0.00604954,0.000972951 -0.00594264,0.00149286 -0.00579114,0.00200157 -0.00559618,0.00249526 -0.00535923,0.00297023 -0.00508206,0.0034229 -0.00476675,0.00384989 -0.00441567,0.00424799 -0.00403146,0.00461421 -0.00361699,0.0049458 -0.00317538,0.00524028 -0.00270994,0.00549543 -0.00222416,0.00570935 -0.0017217,0.00588042 -0.00120631,0.00600736 -0.00068187,0.00608922 -0.000152314,0.00612539 0.000378385,0.00611559 0.000906245,0.00605989 0.0014273,0.00595872 0.00193765,0.00581284 0.00243346,0.00562333 0.00291101,0.00539162 0.627634,0.90693 z "/>
<path fill="rgb(0,91,140)" stroke="rgb(0,91,140)" d="M 0.4,3.75 l 1.12583,-4.44089e-16 0,1.66786 -0.433063,-0.101988 -0.00589205,-0.00151851 -0.00600297,-0.000993227 -0.00606716,-0.000460209 -0.00608411,7.63917e-05 -0.00605369,0.000612398 -0.00597614,0.00114364 -0.00585207,0.00166597 -0.00568244,0.00217534 -0.00546856,0.00266777 -0.00521212,0.00313942 -0.0049151,0.00358664 -0.00457981,0.00400594 -0.00420886,0.00439405 -0.00380515,0.00474795 -0.00337181,0.00506488 -0.00291223,0.00534239 -0.00242997,0.0055783 -0.00192879,0.00577078 -0.0014126,0.00591834 -0.000885411,0.00601982 -0.000351328,0.00607443 0.00018549,0.00608176 0.000720865,0.00604173 0.00125063,0.00595467 0.00177065,0.00582125 0.00227689,0.00564251 0.00276541,0.00541984 0.00323239,0.00515498 0.625976,0.906794 1.06581e-14,1.59872e-14 0.00374294,0.00495419 0.00416375,0.00460617 0.00455235,0.00422252 0.00490574,0.00380622 0.00522118,0.00336048 0.00549625,0.00288874 0.0057288,0.00239466 0.00591704,0.00188207 0.00605952,0.00135491 0.00615513,0.000817273 0.00620313,0.000273316 0,0.741648 -1,0 -0.0261467,-0.00114159 -0.0259477,-0.00341608 -0.0255513,-0.00566458 -0.0249603,-0.00786996 -0.0241794,-0.0100155 -0.0232145,-0.0120847 -0.0220729,-0.014062 -0.0207634,-0.0159323 -0.0192958,-0.0176813 -0.0176813,-0.0192958 -0.0159323,-0.0207634 -0.014062,-0.0220729 -0.0120847,-0.0232145 -0.0100155,-0.0241794 -0.00786996,-0.0249603 -0.00566458,-0.0255513 -0.00341608,-0.0259477 -0.00114159,-0.0261467 4.44089e-16,-3.05 z "/>
<path fill="rgb(0,91,140)" stroke="rgb(0,91,140)" d="M 0.4,3.75 l 4.44089e-16,-3.05 0.00114159,-0.0261467 0.00341608,-0.0259477 0.00566458,-0.0255513 0.00786996,-0.0249603 0.0100155,-0.0241794 0.0120847,-0.0232145 0.014062,-0.0220729 0.0159323,-0.0207634 0.0176813,-0.0192958 0.0192958,-0.0176813 0.0207634,-0.0159323 0.0220729,-0.014062 0.0232145,-0.0120847 0.0241794,-0.0100155 0.0249603,-0.00786996 0.0255513,-0.00566458 0.0259477,-0.00341608 0.0261467,-0.00114159 6.1,0 0.0261467,0.00114159 0.0259477,0.00341608 0.0255513,0.00566458 0.0249603,0.00786996 0.0241794,0.0100155 0.0232145,0.0120847 0.0220729,0.014062 0.0207634,0.0159323 0.0192958,0.0176813 0.0176813,0.0192958 0.0159323,0.0207634 0.014062,0.0220729 0.0120847,0.0232145 0.0100155,0.0241794 0.00786996,0.0249603 0.00566458,0.0255513 0.00341608,0.0259477 0.00114159,0.0261467 0,3.05 -1.12583,-4.44089e-16 0,-2.60835 -0.348339,-4.44089e-16 -8.88178e-16,2.60835 -1.70166,4.44089e-16 0,-2.60835 -0.348339,-4.44089e-16 0,2.60835 -1.70166,4.44089e-16 2.22045e-16,-2.60835 -0.348339,4.44089e-16 0,2.60835 -1.12583,4.44089e-16 z "/>
<path fill="rgb(241,240,234)" stroke="rgb(241,240,234)" d="M 1.75806,6.32793 l -0.00374529,0.00493436 -0.00416341,0.00458706 -0.00454948,0.00420445 -0.00490052,0.00378946 -0.00521383,0.00334531 -0.005487,0.0028754 -0.00571793,0.00238335 -0.00590484,0.00187295 -0.00604629,0.00134814 -0.00614119,0.000812945 -0.00618881,0.000271492 -0.00620313,-0.000273316 -0.00615513,-0.000817273 -0.00605952,-0.00135491 -0.00591704,-0.00188207 -0.0057288,-0.00239466 -0.00549625,-0.00288874 -0.00522118,-0.00336048 -0.00490574,-0.00380622 -0.00455235,-0.00422252 -0.00416375,-0.00460617 -0.00374294,-0.00495419 -1.06581e-14,-1.59872e-14 -0.625976,-0.906794 -0.00323239,-0.00515498 -0.00276541,-0.00541984 -0.00227689,-0.00564251 -0.00177065,-0.00582125 -0.00125063,-0.00595467 -0.000720865,-0.00604173 -0.00018549,-0.00608176 0.000351328,-0.00607443 0.000885411,-0.00601982 0.0014126,-0.00591834 0.00192879,-0.00577078 0.00242997,-0.0055783 0.00291223,-0.00534239 0.00337181,-0.00506488 0.00380515,-0.00474795 0.00420886,-0.00439405 0.00457981,-0.00400594 0.0049151,-0.00358664 0.00521212,-0.00313942 0.00546856,-0.00266777 0.00568244,-0.00217534 0.00585207,-0.00166597 0.00597614,-0.00114364 0.00605369,-0.000612398 0.00608411,-7.63917e-05 0.00606716,0.000460209 0.00600297,0.000993227 0.00589205,0.00151851 0.433063,0.101988 0,-1.66786 0,-2.60835 0.348339,-4.44089e-16 -2.22045e-16,2.60835 0,1.66786 0.43464,-0.101988 0.00602029,-0.00114005 0.00609636,-0.000614745 0.00612669,-8.4822e-05 0.00611105,0.000445737 0.00604954,0.000972951 0.00594264,0.00149286 0.00579114,0.00200157 0.00559618,0.00249526 0.00535923,0.00297023 0.00508206,0.0034229 0.00476675,0.00384989 0.00441567,0.00424799 0.00403146,0.00461421 0.00361699,0.0049458 0.00317538,0.00524028 0.00270994,0.00549543 0.00222416,0.00570935 0.0017217,0.00588042 0.00120631,0.00600736 0.00068187,0.00608922 0.000152314,0.00612539 -0.000378385,0.00611559 -0.000906245,0.00605989 -0.0014273,0.00595872 -0.00193765,0.00581284 -0.00243346,0.00562333 -0.00291101,0.00539162 -0.00538738,0.00778475 -0.622247,0.899145 z "/>
<path fill="rgb(241,240,234)" stroke="rgb(241,240,234)" d="M 5.74194,6.32793 l 0.00374511,0.00493413 0.00416319,0.00458687 0.00454922,0.0042043 0.00490023,0.00378936 0.00521352,0.00334525 0.00548668,0.00287539 0.0057176,0.00238339 0.00590451,0.00187305 0.00604596,0.00134829 0.00614087,0.000813147 0.00618851,0.000271746 0,-7.21707e-11 0.00620313,-0.000273316 0.00615513,-0.000817273 0.00605952,-0.00135491 0.00591704,-0.00188207 0.0057288,-0.00239466 0.00549625,-0.00288874 0.00522118,-0.00336048 0.00490574,-0.00380622 0.00455235,-0.00422252 0.00416375,-0.00460617 0.00374294,-0.00495419 0.625976,-0.906794 0.00318934,-0.00507919 0.00273595,-0.0053371 0.00226187,-0.00555464 0.00177068,-0.00573016 0.00126609,-0.00586234 0.000751931,-0.00595018 0.000232081,-0.00599301 -0.000289525,-0.00599051 -0.000808941,-0.0059427 -0.00132224,-0.00584994 -0.00182553,-0.00571292 -0.00231502,-0.0055327 -0.002787,-0.00531062 -0.00323789,-0.00504838 -0.0036643,-0.00474795 -0.00406298,-0.0044116 -0.00443094,-0.00404189 -0.00476537,-0.0036416 -0.00506377,-0.00321377 -0.00532386,-0.00276163 -0.00554368,-0.0022886 -0.00572157,-0.00179826 -0.00585618,-0.00129432 -0.00594649,-0.000780582 -0.00599183,-0.000260945 -0.00680077,0.000336323 -0.00673445,0.00100538 -0.00660247,0.00166463 -0.433063,0.101988 0,-7.51802e-07 -3.19231e-06,7.51802e-07 0,-1.66786 3.19231e-06,0 0,-2.60835 -0.348339,-4.44089e-16 -8.88178e-16,2.60835 8.88178e-16,1.66786 -0.43464,-0.101988 -0.00602029,-0.00114005 -0.00609636,-0.000614745 -0.00612669,-8.4822e-05 -0.00611105,0.000445737 -0.00604954,0.000972951 -0.00594264,0.00149286 -0.00579114,0.00200157 -0.00559618,0.00249526 -0.00535923,0.00297023 -0.00508206,0.0034229 -0.00476675,0.00384989 -0.00441567,0.00424799 -0.00403146,0.00461421 -0.00361699,0.0049458 -0.00317538,0.00524028 -0.00270994,0.00549543 -0.00222416,0.00570935 -0.0017217,0.00588042 -0.00120631,0.00600736 -0.00068187,0.00608922 -0.000152314,0.00612539 0.000378385,0.00611559 0.000906245,0.00605989 0.0014273,0.00595872 0.00193765,0.00581284 0.00243346,0.00562333 0.00291101,0.00539162 0.00538738,0.00778475 0.622247,0.899145 z "/>
<path fill="rgb(241,240,234)" stroke="rgb(241,240,234)" d="M 5.97417,3.75 l -3.19231e-06,0 0,1.66786 3.19231e-06,-7.51802e-07 0,-1.66786 z "/>
<path fill="rgb(241,240,234)" stroke="rgb(241,240,234)" d="M 5.8,6.35835 l 0.00620313,-0.000273316 0.00615513,-0.000817273 0.00605952,-0.00135491 0.00591704,-0.00188207 0.0057288,-0.00239466 0.00549625,-0.00288874 0.00522118,-0.00336048 0.00490574,-0.00380622 0.00455235,-0.00422252 0.00416375,-0.00460617 0.00374294,-0.00495419 0.625976,-0.906794 0.00318941,-0.0050793 0.002736,-0.00533722 0.00226189,-0.00555477 0.00177068,-0.0057303 0.00126607,-0.00586248 0.000751886,-0.00595032 0.000232013,-0.00599314 -0.000289614,-0.00599064 -0.000809052,-0.00594281 -0.00132237,-0.00585004 -0.00182568,-0.00571301 -0.00231519,-0.00553277 -0.00278718,-0.00531067 -0.00323809,-0.00504841 -0.0036645,-0.00474795 -0.00406319,-0.00441158 -0.00443115,-0.00404184 -0.00476559,-0.00364153 -0.00506399,-0.00321367 -0.00532407,-0.0027615 -0.00554388,-0.00228844 -0.00572176,-0.00179807 -0.00585636,-0.0012941 -0.00594665,-0.00078034 -0.00599197,-0.000260678 0.00599183,0.000260945 0.00594649,0.000780582 0.00585618,0.00129432 0.00572157,0.00179826 0.00554368,0.0022886 0.00532386,0.00276163 0.00506377,0.00321377 0.00476537,0.0036416 0.00443094,0.00404189 0.00406298,0.0044116 0.0036643,0.00474795 0.00323789,0.00504838 0.002787,0.00531062 0.00231502,0.0055327 0.00182553,0.00571292 0.00132224,0.00584994 0.000808941,0.0059427 0.000289525,0.00599051 -0.000232081,0.00599301 -0.000751931,0.00595018 -0.00126609,0.00586234 -0.00177068,0.00573016 -0.00226187,0.00555464 -0.00273595,0.0053371 -0.00318934,0.00507919 -0.625976,0.906794 -0.00374294,0.00495419 -0.00416375,0.00460617 -0.00455235,0.00422252 -0.00490574,0.00380622 -0.00522118,0.00336048 -0.00549625,0.00288874 -0.0057288,0.00239466 -0.00591704,0.00188207 -0.00605952,0.00135491 -0.00615513,0.000817273 -0.00620313,0.000273316 0,7.21707e-11 1.0641e-06,-8.01847e-12 1.0641e-06,-2.40572e-11 1.0641e-06,-4.0095e-11 z "/>
<path fill="rgb(241,240,234)" stroke="rgb(241,240,234)" d="M 4.44458,5.39727 l 0.00109,-0.00591252 0.00057087,-0.00598499 4.74026e-05,-0.00601196 -0.000476425,-0.00599324 -0.000996631,-0.00592897 -0.00150926,-0.00581963 -0.00201042,-0.00566605 -0.0024963,-0.00546941 -0.0029632,-0.00523119 -0.00340758,-0.00495321 -0.00382606,-0.00463759 -0.00421546,-0.00428671 -0.00457281,-0.00390325 -0.00489541,-0.00349011 -0.0051808,-0.00305046 -0.00542681,-0.00258761 -0.00563156,-0.0021051 -0.00579352,-0.00160658 -0.00591143,-0.00109586 -0.00598442,-0.000576799 -0.00601191,-5.3359e-05 -0.00599371,0.000470487 -0.00592995,0.000990756 -0.00582112,0.0015035 -0.433063,0.101988 0.43464,-0.101988 0.00597901,-0.00113406 0.00605436,-0.000615919 0.0060849,-9.32152e-05 0.00607039,0.000430179 0.00601094,0.000950389 0.005907,0.00146356 0.00575933,0.0019659 0.00556903,0.00245369 0.0053375,0.00292331 0.00506646,0.0033713 0.00475792,0.00379433 0.00441415,0.00418927 0.00403771,0.00455319 0.00363138,0.00488342 0.00319817,0.00517749 0.00274128,0.00543324 0.0022641,0.00564876 0.00177016,0.00582247 0.00126312,0.00595308 0.000746725,0.00603963 0.000224804,0.00608146 -0.000298781,0.00607827 -0.000820155,0.00603009 z "/>
<path fill="rgb(241,240,234)" stroke="rgb(241,240,234)" d="M 3.69194,6.32793 l 0.00374529,0.00493436 0.00416341,0.00458706 0.00454948,0.00420445 0.00490052,0.00378946 0.00521383,0.00334531 0.005487,0.0028754 0.00571793,0.00238335 0.00590484,0.00187295 0.00604629,0.00134814 0.00614119,0.000812945 0.00618881,0.000271492 0.00620313,-0.000273316 0.00615513,-0.000817273 0.00605952,-0.00135491 0.00591704,-0.00188207 0.0057288,-0.00239466 0.00549625,-0.00288874 0.00522118,-0.00336048 0.00490574,-0.00380622 0.00455235,-0.00422252 0.00416375,-0.00460617 0.00374294,-0.00495419 0.625976,-0.906794 0.00344582,-0.00553406 0.00290784,-0.00583472 0.00234387,-0.00608323 0.00175895,-0.00627738 0.000820155,-0.00603009 0.000298781,-0.00607827 -0.000224804,-0.00608146 -0.000746725,-0.00603963 -0.00126312,-0.00595308 -0.00177016,-0.00582247 -0.0022641,-0.00564876 -0.00274128,-0.00543324 -0.00319817,-0.00517749 -0.00363138,-0.00488342 -0.00403771,-0.00455319 -0.00441415,-0.00418927 -0.00475792,-0.00379433 -0.00506646,-0.0033713 -0.0053375,-0.00292331 -0.00556903,-0.00245369 -0.00575933,-0.0019659 -0.005907,-0.00146356 -0.00601094,-0.000950389 -0.00607039,-0.000430179 -0.0060849,9.32152e-05 -0.00605436,0.000615919 -0.00597901,0.00113406 -0.43464,0.101988 0,-1.66786 0,-2.60835 -0.348339,-4.44089e-16 0,2.60835 0,1.66786 -0.43464,-0.101988 -0.00602029,-0.00114005 -0.00609636,-0.000614745 -0.00612669,-8.4822e-05 -0.00611105,0.000445737 -0.00604954,0.000972951 -0.00594264,0.00149286 -0.00579114,0.00200157 -0.00559618,0.00249526 -0.00535923,0.00297023 -0.00508206,0.0034229 -0.00476675,0.00384989 -0.00441567,0.00424799 -0.00403146,0.00461421 -0.00361699,0.0049458 -0.00317538,0.00524028 -0.00270994,0.00549543 -0.00222416,0.00570935 -0.0017217,0.00588042 -0.00120631,0.00600736 -0.00068187,0.00608922 -0.000152314,0.00612539 0.000378385,0.00611559 0.000906245,0.00605989 0.0014273,0.00595872 0.00193765,0.00581284 0.00243346,0.00562333 0.00291101,0.00539162 0.627634,0.90693 z "/>
<path fill="rgb(241,240,234)" stroke="rgb(241,240,234)" d="M 0.4,3.75 l -0.2,-4.44089e-16 4.44089e-16,-3.05 0.00190265,-0.0435779 0.00569347,-0.0432462 0.00944096,-0.0425854 0.0131166,-0.0416005 0.0166924,-0.0402991 0.0201412,-0.0386909 0.0234367,-0.0367882 0.0265538,-0.0346056 0.0294688,-0.0321596 0.0321596,-0.0294688 0.0346056,-0.0265538 0.0367882,-0.0234367 0.0386909,-0.0201412 0.0402991,-0.0166924 0.0416005,-0.0131166 0.0425854,-0.00944096 0.0432462,-0.00569347 0.0435779,-0.00190265 6.1,0 0.0435779,0.00190265 0.0432462,0.00569347 0.0425854,0.00944096 0.0416005,0.0131166 0.0402991,0.0166924 0.0386909,0.0201412 0.0367882,0.0234367 0.0346056,0.0265538 0.0321596,0.0294688 0.0294688,0.0321596 0.0265538,0.0346056 0.0234367,0.0367882 0.0201412,0.0386909 0.0166924,0.0402991 0.0131166,0.0416005 0.00944096,0.0425854 0.00569347,0.0432462 0.00190265,0.0435779 0,3.05 -0.2,4.44089e-16 0,-3.05 -0.00114159,-0.0261467 -0.00341608,-0.0259477 -0.00566458,-0.0255513 -0.00786996,-0.0249603 -0.0100155,-0.0241794 -0.0120847,-0.0232145 -0.014062,-0.0220729 -0.0159323,-0.0207634 -0.0176813,-0.0192958 -0.0192958,-0.0176813 -0.0207634,-0.0159323 -0.0220729,-0.014062 -0.0232145,-0.0120847 -0.0241794,-0.0100155 -0.0249603,-0.00786996 -0.0255513,-0.00566458 -0.0259477,-0.00341608 -0.0261467,-0.00114159 -6.1,0 -0.0261467,0.00114159 -0.0259477,0.00341608 -0.0255513,0.00566458 -0.0249603,0.00786996 -0.0241794,0.0100155 -0.0232145,0.0120847 -0.0220729,0.014062 -0.0207634,0.0159323 -0.0192958,0.0176813 -0.0176813,0.0192958 -0.0159323,0.0207634 -0.014062,0.0220729 -0.0120847,0.0232145 -0.0100155,0.0241794 -0.00786996,0.0249603 -0.00566458,0.0255513 -0.00341608,0.0259477 -0.00114159,0.0261467 -4.44089e-16,3.05 z "/>
<path fill="rgb(241,240,234)" stroke="rgb(241,240,234)" d="M 1.7,7.1 l 2.05,8.88178e-16 2.05,-8.88178e-16 3.19231e-06,0 0.999998,8.88178e-16 0.0261467,-0.00114159 0.0259477,-0.00341608 0.0255513,-0.00566458 0.0249603,-0.00786996 0.0241794,-0.0100155 0.0232145,-0.0120847 0.0220729,-0.014062 0.0207634,-0.0159323 0.0192958,-0.0176813 0.0176813,-0.0192958 0.0159323,-0.0207634 0.014062,-0.0220729 0.0120847,-0.0232145 0.0100155,-0.0241794 0.00786996,-0.0249603 0.00566458,-0.0255513 0.00341608,-0.0259477 0.00114159,-0.0261467 8.88178e-16,-3.05 0.2,-4.44089e-16 -8.88178e-16,3.05 -0.00190265,0.0435779 -0.00569347,0.0432462 -0.00944096,0.0425854 -0.0131166,0.0416005 -0.0166924,0.0402991 -0.0201412,0.0386909 -0.0234367,0.0367882 -0.0265538,0.0346056 -0.0294688,0.0321596 -0.0321596,0.0294688 -0.0346056,0.0265538 -0.0367882,0.0234367 -0.0386909,0.0201412 -0.0402991,0.0166924 -0.0416005,0.0131166 -0.0425854,0.00944096 -0.0432462,0.00569347 -0.0435779,0.00190265 -6.1,-8.88178e-16 -0.0435779,-0.00190265 -0.0432462,-0.00569347 -0.0425854,-0.00944096 -0.0416005,-0.0131166 -0.0402991,-0.0166924 -0.0386909,-0.0201412 -0.0367882,-0.0234367 -0.0346056,-0.0265538 -0.0321596,-0.0294688 -0.0294688,-0.0321596 -0.0265538,-0.0346056 -0.0234367,-0.0367882 -0.0201412,-0.0386909 -0.0166924,-0.0402991 -0.0131166,-0.0416005 -0.00944096,-0.0425854 -0.00569347,-0.0432462 -0.00190265,-0.0435779 4.44089e-16,-3.05 0.2,4.44089e-16 -4.44089e-16,3.05 0.00114159,0.0261467 0.00341608,0.0259477 0.00566458,0.0255513 0.00786996,0.0249603 0.0100155,0.0241794 0.0120847,0.0232145 0.014062,0.0220729 0.0159323,0.0207634 0.0176813,0.0192958 0.0192958,0.0176813 0.0207634,0.0159323 0.0220729,0.014062 0.0232145,0.0120847 0.0241794,0.0100155 0.0249603,0.00786996 0.0255513,0.00566458 0.0259477,0.00341608 0.0261467,0.00114159 1,0 z "/>
<path fill="rgb(0,91,140)" stroke="rgb(0,91,140)" d="M 0.2,3.75 l -0.2,0 4.44089e-16,-3.05 0.00266371,-0.061009 0.00797086,-0.0605447 0.0132173,-0.0596196 0.0183632,-0.0582408 0.0233694,-0.0564187 0.0281977,-0.0541672 0.0328114,-0.0515035 0.0371753,-0.0484478 0.0412564,-0.0450234 0.0450234,-0.0412564 0.0484478,-0.0371753 0.0515035,-0.0328114 0.0541672,-0.0281977 0.0564187,-0.0233694 0.0582408,-0.0183632 0.0596196,-0.0132173 0.0605447,-0.00797086 0.061009,-0.00266371 6.1,-8.88178e-16 0.061009,0.00266371 0.0605447,0.00797086 0.0596196,0.0132173 0.0582408,0.0183632 0.0564187,0.0233694 0.0541672,0.0281977 0.0515035,0.0328114 0.0484478,0.0371753 0.0450234,0.0412564 0.0412564,0.0450234 0.0371753,0.0484478 0.0328114,0.0515035 0.0281977,0.0541672 0.0233694,0.0564187 0.0183632,0.0582408 0.0132173,0.0596196 0.00797086,0.0605447 0.00266371,0.061009 -1.77636e-15,3.05 -0.2,-8.88178e-16 0,-3.05 -0.00190265,-0.0435779 -0.00569347,-0.0432462 -0.00944096,-0.0425854 -0.0131166,-0.0416005 -0.0166924,-0.0402991 -0.0201412,-0.0386909 -0.0234367,-0.0367882 -0.0265538,-0.0346056 -0.0294688,-0.0321596 -0.0321596,-0.0294688 -0.0346056,-0.0265538 -0.0367882,-0.0234367 -0.0386909,-0.0201412 -0.0402991,-0.0166924 -0.0416005,-0.0131166 -0.0425854,-0.00944096 -0.0432462,-0.00569347 -0.0435779,-0.00190265 -6.1,0 -0.0435779,0.00190265 -0.0432462,0.00569347 -0.0425854,0.00944096 -0.0416005,0.0131166 -0.0402991,0.0166924 -0.0386909,0.0201412 -0.0367882,0.0234367 -0.0346056,0.0265538 -0.0321596,0.0294688 -0.0294688,0.0321596 -0.0265538,0.0346056 -0.0234367,0.0367882 -0.0201412,0.0386909 -0.0166924,0.0402991 -0.0131166,0.0416005 -0.00944096,0.0425854 -0.00569347,0.0432462 -0.00190265,0.0435779 -4.44089e-16,3.05 z "/>
<path fill="rgb(0,91,140)" stroke="rgb(0,91,140)" d="M 6.8,7.3 l 0.0435779,-0.00190265 0.0432462,-0.00569347 0.0425854,-0.00944096 0.0416005,-0.0131166 0.0402991,-0.0166924 0.0386909,-0.0201412 0.0367882,-0.0234367 0.0346056,-0.0265538 0.0321596,-0.0294688 0.0294688,-0.0321596 0.0265538,-0.0346056 0.0234367,-0.0367882 0.0201412,-0.0386909 0.0166924,-0.0402991 0.0131166,-0.0416005 0.00944096,-0.0425854 0.00569347,-0.0432462 0.00190265,-0.0435779 8.88178e-16,-3.05 0.2,8.88178e-16 1.77636e-15,3.05 -0.00266371,0.061009 -0.00797086,0.0605447 -0.0132173,0.0596196 -0.0183632,0.0582408 -0.0233694,0.0564187 -0.0281977,0.0541672 -0.0328114,0.0515035 -0.0371753,0.0484478 -0.0412564,0.0450234 -0.0450234,0.0412564 -0.0484478,0.0371753 -0.0515035,0.0328114 -0.0541672,0.0281977 -0.0564187,0.0233694 -0.0582408,0.0183632 -0.0596196,0.0132173 -0.0605447,0.00797086 -0.061009,0.00266371 -6.1,-8.88178e-16 -0.061009,-0.00266371 -0.0605447,-0.00797086 -0.0596196,-0.0132173 -0.0582408,-0.0183632 -0.0564187,-0.0233694 -0.0541672,-0.0281977 -0.0515035,-0.0328114 -0.0484478,-0.0371753 -0.0450234,-0.0412564 -0.0412564,-0.0450234 -0.0371753,-0.0484478 -0.0328114,-0.0515035 -0.0281977,-0.0541672 -0.0233694,-0.0564187 -0.0183632,-0.0582408 -0.0132173,-0.0596196 -0.00797086,-0.0605447 -0.00266371,-0.061009 4.44089e-16,-3.05 0.2,0 -4.44089e-16,3.05 0.00190265,0.0435779 0.00569347,0.0432462 0.00944096,0.0425854 0.0131166,0.0416005 0.0166924,0.0402991 0.0201412,0.0386909 0.0234367,0.0367882 0.0265538,0.0346056 0.0294688,0.0321596 0.0321596,0.0294688 0.0346056,0.0265538 0.0367882,0.0234367 0.0386909,0.0201412 0.0402991,0.0166924 0.0416005,0.0131166 0.0425854,0.00944096 0.0432462,0.00569347 0.0435779,0.00190265 6.1,8.88178e-16 z "/>
</g></g></svg>
