<?xml version="1.0" encoding="UTF-8" standalone="no"?>
<!DOCTYPE svg PUBLIC "-//W3C//DTD SVG 1.1//EN" "http://www.w3.org/Graphics/SVG/1.1/DTD/svg11-flat.dtd"
[

]>
<svg xmlns="http://www.w3.org/2000/svg"  viewBox="-0.125044 -0.125044 10.2536 14.7519"><g fill="none" stroke="black" stroke-width="0.0125" transform="translate(0,14.5018) scale(1, -1)">
<g id="Output" >
<path fill="rgb(241,240,234)" stroke="rgb(241,240,234)" d="M 6.04139,2.60132 l -0.00622395,0.00604227 -0.00671408,0.00549251 -0.00715581,0.00490315 -0.00754596,0.00427844 -0.0078817,0.00362289 -0.00816062,0.00294122 -0.00838071,0.00223835 -0.00854039,0.00151934 -0.00863849,0.000789378 -0.00867431,5.37237e-05 -0.481736,0 -1.77636e-15,-0.517134 0.995325,0.0247902 -0.435673,0.460463 z "/>
<path fill="rgb(241,240,234)" stroke="rgb(241,240,234)" d="M 5.36839,2.6332 l -0.758017,0 -0.00923016,-0.000415551 -0.00915548,-0.00124329 -0.00900672,-0.00206097 -0.00878508,-0.00286197 -0.00849237,-0.00363982 -0.00813094,-0.00438822 -0.00770372,-0.00510111 -0.00721417,-0.00577273 -0.00666625,-0.00639764 -0.527771,-0.52068 1.36017,0.0318813 0,0.52068 z "/>
<path fill="rgb(241,240,234)" stroke="rgb(241,240,234)" d="M 4.50812,2.71984 l 0.0112834,0.00590338 0.0173458,0.00725807 0.0179036,0.00574615 0.0183299,0.00419203 0.0186215,0.00260711 0.0187763,0.00100305 0.897739,0 0,0.750996 -1,0 0,-0.777706 z "/>
<path fill="rgb(241,240,234)" stroke="rgb(241,240,234)" d="M 7.50812,3.49754 l 1,0 0,1 -1,0 0,-1 z "/>
<path fill="rgb(241,240,234)" stroke="rgb(241,240,234)" d="M 9.51129,3.49754 l 0,1 -0.00317767,0 0,-1 0.00317767,0 z "/>
<path fill="rgb(241,240,234)" stroke="rgb(241,240,234)" d="M 9.51129,4.49754 l 0,1 -0.00317767,0 0,-1 0.00317767,0 z "/>
<path fill="rgb(241,240,234)" stroke="rgb(241,240,234)" d="M 9.51129,5.49754 l 0,1 -0.00317767,0 0,-1 0.00317767,0 z "/>
<path fill="rgb(241,240,234)" stroke="rgb(241,240,234)" d="M 7.50812,4.90089 l 0,-0.403348 1,0 0,1 -0.156347,0 0,-0.296652 -0.00114159,-0.0261467 -0.00341608,-0.0259477 -0.00566458,-0.0255513 -0.00786996,-0.0249603 -0.0100155,-0.0241794 -0.0120847,-0.0232145 -0.014062,-0.0220729 -0.0159323,-0.0207634 -0.0176813,-0.0192958 -0.0192958,-0.0176813 -0.0207634,-0.0159323 -0.0220729,-0.014062 -0.0232145,-0.0120847 -0.0241794,-0.0100155 -0.0249603,-0.00786996 -0.0255513,-0.00566458 -0.0259477,-0.00341608 -0.0261467,-0.00114159 -0.543653,0 z "/>
<path fill="rgb(241,240,234)" stroke="rgb(241,240,234)" d="M 9.51129,6.49754 l 1.77636e-15,1 -0.00317767,0 0,-1 0.00317767,0 z "/>
<path fill="rgb(241,240,234)" stroke="rgb(241,240,234)" d="M 8.35177,5.49754 l 0.156347,0 0,1 -0.156347,0 0,-1 z "/>
<path fill="rgb(241,240,234)" stroke="rgb(241,240,234)" d="M 8.35177,6.49754 l 0.156347,0 0,1 -0.156347,0 0,-1 z "/>
<path fill="rgb(241,240,234)" stroke="rgb(241,240,234)" d="M 1.50812,0.497542 l 0,1 -1,0 0,-0.7375 0.000998892,-0.0228784 0.00298907,-0.0227043 0.00495651,-0.0223574 0.00688622,-0.0218403 0.00876352,-0.021157 0.0105741,-0.0203127 0.0123043,-0.0193138 0.0139407,-0.0181679 0.0154711,-0.0168838 0.0168838,-0.0154711 0.0181679,-0.0139407 0.0193138,-0.0123043 0.0203127,-0.0105741 0.021157,-0.00876352 0.0218403,-0.00688622 0.0223574,-0.00495651 0.0227043,-0.00298907 0.0228784,-0.000998892 0.7375,0 z "/>
<path fill="rgb(241,240,234)" stroke="rgb(241,240,234)" d="M 0.508116,1.49754 l 1,0 0,1 -1,0 0,-1 z "/>
<path fill="rgb(241,240,234)" stroke="rgb(241,240,234)" d="M 0.508116,2.49754 l 1,0 0,1 -1,0 0,-1 z "/>
<path fill="rgb(241,240,234)" stroke="rgb(241,240,234)" d="M 0.508116,3.49754 l 1,0 0,1 -1,0 0,-1 z "/>
<path fill="rgb(241,240,234)" stroke="rgb(241,240,234)" d="M 0.508116,4.49754 l 1,0 0,1 -1,0 0,-1 z "/>
<path fill="rgb(241,240,234)" stroke="rgb(241,240,234)" d="M 0.508116,5.49754 l 1,0 0,1 -1,0 0,-1 z "/>
<path fill="rgb(241,240,234)" stroke="rgb(241,240,234)" d="M 0.508116,6.49754 l 1,0 0,1 -1,0 0,-1 z "/>
<path fill="rgb(241,240,234)" stroke="rgb(241,240,234)" d="M 0.508116,7.49754 l 1,0 0,0.753348 -1,0 0,-0.753348 z "/>
<path fill="rgb(241,240,234)" stroke="rgb(241,240,234)" d="M 1.50812,0.497542 l 1,0 0,1 -1,0 0,-1 z "/>
<path fill="rgb(241,240,234)" stroke="rgb(241,240,234)" d="M 1.50812,1.49754 l 1,0 0,1 -1,0 0,-1 z "/>
<path fill="rgb(241,240,234)" stroke="rgb(241,240,234)" d="M 1.65177,3.49754 l -0.143653,0 0,-1 1,0 0,0.294088 -0.856347,0 0,0.705912 z "/>
<path fill="rgb(241,240,234)" stroke="rgb(241,240,234)" d="M 1.65177,3.49754 l 0,1 -0.143653,0 0,-1 0.143653,0 z M 2.02325,4.49754 l -0.151451,0 0.0490919,-0.0736164 0.0417405,0.0343973 0.044721,0.0304216 0.0158973,0.00879754 z "/>
<path fill="rgb(241,240,234)" stroke="rgb(241,240,234)" d="M 1.50812,4.49754 l 0.143653,0 0,0.0492199 0.187206,0 0.0328228,-0.0492199 0.151451,0 0.0314268,0.0173916 0.0495278,0.0217357 0.0513135,0.0170987 0.0526661,0.0123175 0.0535743,0.00743234 0.0540303,0.00248444 0.0540303,-0.00248444 0.0535743,-0.00743234 0.0526661,-0.0123175 0.0320582,-0.0106825 0,0.357804 -0.556347,0 -0.0261467,0.00114159 -0.0259477,0.00341608 -0.0255513,0.00566458 -0.0249603,0.00786996 -0.0241794,0.0100155 -0.0232145,0.0120847 -0.0220729,0.014062 -0.0207634,0.0159323 -0.0192958,0.0176813 -0.0176813,0.0192958 -0.0159323,0.0207634 -0.014062,0.0220729 -0.0120847,0.0232145 -0.0100155,0.0241794 -0.00786996,0.0249603 -0.00566458,0.0255513 -0.00341608,0.0259477 -0.00114159,0.0261467 0,0.296652 -0.143653,0 0,-1 z "/>
<path fill="rgb(241,240,234)" stroke="rgb(241,240,234)" d="M 1.65177,5.49754 l 0,1 -0.143653,0 0,-1 0.143653,0 z "/>
<path fill="rgb(241,240,234)" stroke="rgb(241,240,234)" d="M 1.65177,6.49754 l -4.44089e-16,1 -0.143653,0 0,-1 0.143653,0 z "/>
<path fill="rgb(241,240,234)" stroke="rgb(241,240,234)" d="M 1.50812,7.49754 l 0.143653,0 0,0.753348 -0.143653,0 0,-0.753348 z "/>
<path fill="rgb(241,240,234)" stroke="rgb(241,240,234)" d="M 2.63388,1.49754 l -0.125765,0 0,-1 1,0 0,0.40117 -0.425336,-8.88178e-16 -0.00562436,0.000243735 -0.00558219,0.000729376 -0.00549817,0.00120955 -0.00537292,0.00168065 -0.00520738,0.00213916 -0.00500281,0.00258162 -0.00476072,0.00300473 -0.00448294,0.00340531 -0.00417154,0.00378035 -0.00382887,0.00412706 -0.00345749,0.00444281 -0.00306019,0.00472526 -0.00263994,0.00497228 -0.0021999,0.00518202 -0.00174336,0.0053529 -0.00127376,0.00548365 -0.000794597,0.00557328 -0.000309482,0.00562113 0.000177954,0.00562683 0.000664056,0.00559034 0.00114518,0.00551193 0.00161771,0.0053922 0.00207812,0.00523204 0.00252295,0.00503265 0.00294886,0.00479553 0.00104132,0.00149425 0.00108277,0.00146449 0.00112336,0.00143359 0.168999,0.228579 -0.00201417,0.0175677 -0.00121018,0.0176414 -0.000403675,0.0176782 0.00150349,0.0340929 0.00449879,0.0338282 0.00745916,0.0333009 0.0103616,0.032515 0.0131836,0.0314766 0.0159033,0.0301939 0.0104037,0.0161271 -0.125779,0 -0.00776728,-0.0159787 -0.0155923,-0.0408972 -0.0119283,-0.042112 -0.0081715,-0.0429992 -0.00435114,-0.0435519 -0.453386,0.077916 0,0.107623 z "/>
<path fill="rgb(241,240,234)" stroke="rgb(241,240,234)" d="M 3.13508,1.49754 l 0.125779,0 0.00809581,0.0125496 0.020952,0.026937 0.0232419,0.024988 0.0253513,0.0228451 0.0272639,0.0205248 0.0289648,0.0180451 0.0304409,0.0154253 0.0316806,0.0126858 0.0326743,0.00984776 0.0185941,0.00385816 0,0.109386 -0.0200319,-0.00298416 -0.0425544,-0.0102383 -0.0414869,-0.0139478 -0.0400966,-0.0175489 -0.0383945,-0.0210135 -0.0363937,-0.0243147 -0.0341098,-0.0274267 -0.0315607,-0.0303254 -0.028766,-0.0329882 -0.0257476,-0.0353944 -0.0225289,-0.0375253 -0.0113678,-0.0233856 z M 2.63388,1.49754 l 0,0.437876 0.874235,0.146512 0,0.415612 -1,0 0,-1 0.125765,0 z "/>
<path fill="rgb(241,240,234)" stroke="rgb(241,240,234)" d="M 2.50812,2.49754 l 1,0 0,1 -0.493197,0 0,-0.705912 -0.506803,0 0,-0.294088 z "/>
<path fill="rgb(241,240,234)" stroke="rgb(241,240,234)" d="M 3.01492,3.49754 l 0.493197,0 0,1 -0.493197,0 0,-1 z M 2.7738,4.49754 l -0.165475,0 0.0158973,-0.00879754 0.044721,-0.0304216 0.0417405,-0.0343973 0.0631161,0.0736164 z "/>
<path fill="rgb(241,240,234)" stroke="rgb(241,240,234)" d="M 2.60833,4.49754 l 0.165475,0 0.0421994,0.0492199 0.198919,0 0,-0.0492199 0.493197,0 0,0.403348 -1,0 0,-0.357804 0.0192552,-0.00641626 0.0495278,-0.0217357 0.0314268,-0.0173916 z "/>
<path fill="rgb(241,240,234)" stroke="rgb(241,240,234)" d="M 4.50812,0.497542 l 0,0.786125 -0.429056,0 -0.0018575,0.0437293 -0.00570318,0.0433956 -0.0095045,0.0427243 -0.0132319,0.0417207 -0.0168564,0.0403926 -0.00100419,0.0019122 -0.12206,0 0.0111761,-0.0174939 0.0156684,-0.0300198 0.0129862,-0.0312737 0.0102048,-0.0322885 0.00734539,-0.0330565 0.00442982,-0.0335718 0.00148038,-0.0338304 -0.00155888,-0.034714 -0.00466409,-0.0344346 -0.00773176,-0.0338779 -0.0107372,-0.0330486 -0.0136562,-0.0319531 -0.0164652,-0.0306005 -0.0191417,-0.0290015 -0.0216642,-0.0271691 0.0272166,0 0,-0.132496 -0.318893,8.88178e-16 -7.43914e-09,0 -2.98248e-08,0 -7.57052e-09,0 -0.0767221,0 0,-0.40117 1,0 z "/>
<path fill="rgb(241,240,234)" stroke="rgb(241,240,234)" d="M 3.50812,2.08193 l 0.415098,0.0695658 0.348346,0.346046 -0.763444,0 0,-0.415612 z M 4.0309,1.49754 l -0.0193455,0.0368382 -0.0236848,0.0368067 -0.0268357,0.0345767 -0.0297778,0.0320778 -0.0324883,0.0293294 -0.0349461,0.0263528 -0.0371321,0.0231713 -0.0390293,0.0198096 -0.0406229,0.0162937 -0.0419005,0.0126512 -0.0428522,0.00891019 -0.0434706,0.00509992 -0.0437509,0.00124997 -0.0436909,-0.0026097 -0.0232591,-0.00346491 0,-0.109386 0.0148202,0.00307511 0.0237757,0.0321578 0.036764,-0.0271813 0.0338354,-0.00136138 0.0335871,-0.00431171 0.0330821,-0.00722908 0.0323242,-0.0100912 0.0313192,-0.0128762 0.0300747,-0.0155627 0.0286004,-0.0181302 0.0269074,-0.0205592 0.0250087,-0.022831 0.0229188,-0.0249282 0.0206537,-0.0268349 0.0070546,-0.0110425 0.12206,0 z "/>
<path fill="rgb(241,240,234)" stroke="rgb(241,240,234)" d="M 4.27156,2.49754 l 0.186501,0.18527 0.0138954,0.0126679 0.0149291,0.0114316 0.0158531,0.0101112 0.00537719,0.00281329 0,0.777706 -1,0 0,-1 0.763444,0 z "/>
<path fill="rgb(241,240,234)" stroke="rgb(241,240,234)" d="M 3.50812,3.49754 l 1,0 0,1 -1,0 0,-1 z "/>
<path fill="rgb(241,240,234)" stroke="rgb(241,240,234)" d="M 3.50812,4.49754 l 1,0 0,0.403348 -1,0 0,-0.403348 z "/>
<path fill="rgb(241,240,234)" stroke="rgb(241,240,234)" d="M 5.50812,0.497542 l 0,0.786125 -1,0 0,-0.786125 1,0 z "/>
<path fill="rgb(241,240,234)" stroke="rgb(241,240,234)" d="M 9.50812,7.49754 l 0.00317767,0 0,0.753348 -0.00317767,0 0,-0.753348 z "/>
<path fill="rgb(241,240,234)" stroke="rgb(241,240,234)" d="M 4.50812,3.49754 l 1,0 0,1 -1,0 0,-1 z "/>
<path fill="rgb(241,240,234)" stroke="rgb(241,240,234)" d="M 4.50812,4.49754 l 1,0 0,0.403348 -1,0 0,-0.403348 z "/>
<path fill="rgb(241,240,234)" stroke="rgb(241,240,234)" d="M 6.11205,1.49754 l -0.127638,0 -0.00283916,-0.00546751 -0.0164545,-0.0397557 -0.0129573,-0.0410289 -0.00936308,-0.0419952 -0.00569884,-0.0426472 -0.00199195,-0.0429802 -0.426992,0 0,-0.786125 1,0 0,0.406109 -0.00629131,-0.00139475 -0.0334981,-0.00441011 -0.033755,-0.00147378 -0.033755,0.00147378 -0.0334981,0.00441011 -0.0329863,0.00731288 -0.0322234,0.01016 -0.0312153,0.0129298 -0.0299696,0.0156012 -0.0284958,0.0181538 -0.0268052,0.0205683 -0.0249105,0.0228263 -0.0228263,0.0249105 -0.0205683,0.0268052 -0.0181538,0.0284958 -0.0156012,0.0299696 -0.0129298,0.0312153 -0.01016,0.0322234 -0.00731288,0.0329863 -0.00441011,0.0334981 -0.00147378,0.033755 0.00147378,0.033755 0.00441011,0.0334981 0.00731288,0.0329863 0.01016,0.0322234 0.0129298,0.0312153 0.0156012,0.0299696 0.0128861,0.0202271 z "/>
<path fill="rgb(241,240,234)" stroke="rgb(241,240,234)" d="M 6.50812,1.77359 l -0.0376957,0.0045278 -0.0430029,0.00142022 -0.0429647,-0.00230139 -0.0426051,-0.00600578 -0.0419267,-0.00966523 -0.0409346,-0.0132524 -0.0396362,-0.0167403 -0.0380412,-0.0201031 -0.0361616,-0.0233154 -0.0340114,-0.0263532 -0.0316067,-0.0291939 -0.0289655,-0.0318161 -0.0261076,-0.0342002 -0.0230544,-0.0363285 -0.0169895,-0.0327174 0.127638,0 0.00526774,0.00826869 0.0205683,0.0268052 0.0228263,0.0249105 0.0249105,0.0228263 0.0268052,0.0205683 0.0284958,0.0181538 0.0299696,0.0156012 0.0312153,0.0129298 0.0322234,0.01016 0.0329863,0.00731288 0.0334981,0.00441011 0.033755,0.00147378 0.033755,-0.00147378 0.0334981,-0.00441011 0.00629131,-0.00139475 0,0.109903 z M 6.50812,2.27219 l 0,0.225352 -0.214155,0 0.214155,-0.225352 z "/>
<path fill="rgb(241,240,234)" stroke="rgb(241,240,234)" d="M 5.50812,2.74655 l 0.501391,0 0.00991551,-0.000442027 0.00983684,-0.00132257 0.00968014,-0.00219263 0.00944663,-0.00304529 0.00913819,-0.00387379 0.00875724,-0.00467155 0.00830682,-0.00543226 0.0077905,-0.00614986 0.00721237,-0.00681868 0.20437,-0.215055 0.214155,0 0,1 -1,0 0,-0.750996 z "/>
<path fill="rgb(241,240,234)" stroke="rgb(241,240,234)" d="M 5.50812,3.49754 l 1,0 0,1 -1,0 0,-1 z "/>
<path fill="rgb(241,240,234)" stroke="rgb(241,240,234)" d="M 5.50812,4.90089 l 0,-0.403348 1,0 0,0.403348 -1,0 z "/>
<path fill="rgb(241,240,234)" stroke="rgb(241,240,234)" d="M 7.50812,0.497542 l 0,1 -0.195108,0 0,-0.0792873 -0.386092,-0.0814616 -0.00657182,0.0425215 -0.0102219,0.0417945 -0.0137956,0.0407547 -0.015631,0.0356782 -0.123602,0 0.0128861,-0.0202271 0.0156012,-0.0299696 0.0129298,-0.0312153 0.01016,-0.0322234 0.00731288,-0.0329863 0.00441011,-0.0334981 0.00147378,-0.033755 -0.00147378,-0.033755 -0.00441011,-0.0334981 -0.00731288,-0.0329863 -0.01016,-0.0322234 -0.0129298,-0.0312153 -0.0156012,-0.0299696 -0.0181538,-0.0284958 -0.0205683,-0.0268052 -0.0228263,-0.0249105 -0.0249105,-0.0228263 -0.0268052,-0.0205683 -0.0284958,-0.0181538 -0.0299696,-0.0156012 -0.0312153,-0.0129298 -0.0322234,-0.01016 -0.026695,-0.00591813 0,-0.406109 1,0 z "/>
<path fill="rgb(241,240,234)" stroke="rgb(241,240,234)" d="M 6.8807,1.49754 l -0.00163494,0.0037318 -0.0206072,0.0377705 -0.0237942,0.0358483 -0.0268032,0.0336579 -0.0296116,0.0312157 -0.0321985,0.0285399 -0.0345444,0.0256505 -0.0366319,0.0225692 -0.0384453,0.0193191 -0.039971,0.0159244 -0.0411976,0.0124105 -0.042116,0.00880379 -0.00502357,0.000603404 0,-0.109903 0.026695,-0.00591813 0.0322234,-0.01016 0.0312153,-0.0129298 0.0299696,-0.0156012 0.0284958,-0.0181538 0.0268052,-0.0205683 0.0249105,-0.0228263 0.0228263,-0.0249105 0.0205683,-0.0268052 0.00526774,-0.00826869 0.123602,0 z M 6.50812,2.27219 l 0.124806,-0.131331 0.680086,-0.0991894 0,-0.544127 0.195108,0 0,1 -1,0 0,-0.225352 z "/>
<path fill="rgb(241,240,234)" stroke="rgb(241,240,234)" d="M 6.50812,2.49754 l 1,0 0,1 -1,0 0,-1 z "/>
<path fill="rgb(241,240,234)" stroke="rgb(241,240,234)" d="M 6.50812,3.49754 l 1,0 0,1 -1,0 0,-1 z "/>
<path fill="rgb(241,240,234)" stroke="rgb(241,240,234)" d="M 6.50812,4.90089 l 0,-0.403348 1,0 0,0.403348 -1,0 z "/>
<path fill="rgb(241,240,234)" stroke="rgb(241,240,234)" d="M 7.50812,0.497542 l 1,0 0,1 -1,0 0,-1 z "/>
<path fill="rgb(241,240,234)" stroke="rgb(241,240,234)" d="M 7.50812,1.49754 l 1,0 0,1 -1,0 0,-1 z "/>
<path fill="rgb(241,240,234)" stroke="rgb(241,240,234)" d="M 9.51129,2.49754 l 0,1 -0.00317767,0 0,-1 0.00317767,0 z "/>
<path fill="rgb(241,240,234)" stroke="rgb(241,240,234)" d="M 8.35177,7.49754 l 0.156347,0 0,0.753348 -0.156347,0 0,-0.753348 z "/>
<path fill="rgb(241,240,234)" stroke="rgb(241,240,234)" d="M 7.50812,2.49754 l 1,0 0,1 -1,0 0,-1 z "/>
<path fill="rgb(241,240,234)" stroke="rgb(241,240,234)" d="M 8.50812,1.49754 l 0,-1 0.740678,8.88178e-15 0.0228784,0.000998892 0.0227043,0.00298907 0.0223574,0.00495651 0.0218403,0.00688622 0.021157,0.00876352 0.0203127,0.0105741 0.0193138,0.0123043 0.0181679,0.0139407 0.0168838,0.0154711 0.0154711,0.0168838 0.0139407,0.0181679 0.0123043,0.0193138 0.0105741,0.0203127 0.00876352,0.021157 0.00688622,0.0218403 0.00495651,0.0223574 0.000810295,0.0061548 0,0.776928 -1,0 z "/>
<path fill="rgb(241,240,234)" stroke="rgb(241,240,234)" d="M 8.50812,1.49754 l 1,0 0,1 -1,0 0,-1 z "/>
<path fill="rgb(241,240,234)" stroke="rgb(241,240,234)" d="M 8.50812,2.49754 l 1,0 0,1 -1,0 0,-1 z "/>
<path fill="rgb(241,240,234)" stroke="rgb(241,240,234)" d="M 8.50812,3.49754 l 1,0 0,1 -1,0 0,-1 z "/>
<path fill="rgb(241,240,234)" stroke="rgb(241,240,234)" d="M 8.50812,4.49754 l 1,0 0,1 -1,0 0,-1 z "/>
<path fill="rgb(241,240,234)" stroke="rgb(241,240,234)" d="M 8.50812,5.49754 l 1,0 0,1 -1,0 0,-1 z "/>
<path fill="rgb(241,240,234)" stroke="rgb(241,240,234)" d="M 8.50812,6.49754 l 1,0 0,1 -1,0 0,-1 z "/>
<path fill="rgb(241,240,234)" stroke="rgb(241,240,234)" d="M 8.50812,8.25089 l 0,-0.753348 1,0 0,0.753348 -1,0 z "/>
<path fill="rgb(241,240,234)" stroke="rgb(241,240,234)" d="M 9.50812,1.49754 l 0,-0.776928 0.00217878,0.0165495 0.000998892,0.0228784 0,0.7375 -0.00317767,0 z "/>
<path fill="rgb(241,240,234)" stroke="rgb(241,240,234)" d="M 9.51129,1.49754 l 0,1 -0.00317767,0 0,-1 0.00317767,0 z "/>
<path fill="rgb(247,181,0)" stroke="rgb(247,181,0)" d="M 3.02893,1.00015 l 0.00324745,0.00439233 -0.00112336,-0.00143359 -0.00108277,-0.00146449 -0.00104132,-0.00149425 z "/>
<path fill="rgb(247,181,0)" stroke="rgb(247,181,0)" d="M 3.58484,0.898712 l -0.502058,-8.88178e-16 -0.00562436,0.000243735 -0.00558219,0.000729376 -0.00549817,0.00120955 -0.00537292,0.00168065 -0.00520738,0.00213916 -0.00500281,0.00258162 -0.00476072,0.00300473 -0.00448294,0.00340531 -0.00417154,0.00378035 -0.00382887,0.00412706 -0.00345749,0.00444281 -0.00306019,0.00472526 -0.00263994,0.00497228 -0.0021999,0.00518202 -0.00174336,0.0053529 -0.00127376,0.00548365 -0.000794597,0.00557328 -0.000309482,0.00562113 0.000177954,0.00562683 0.000664056,0.00559034 0.00114518,0.00551193 0.00161771,0.0053922 0.00207812,0.00523204 0.00252295,0.00503265 0.00294886,0.00479553 0.00324745,0.00439233 0.168999,0.228579 0.00627256,-0.0341235 0.00930122,-0.0334252 0.0122552,-0.0324587 0.0151109,-0.0312317 0.0178453,-0.029754 0.0204365,-0.0280376 0.0228637,-0.0260962 0.0251073,-0.0239453 0.0271495,-0.0216023 0.0289739,-0.0190859 0.0305657,-0.0164163 0.0319122,-0.013615 0.0330026,-0.0107045 0.0338281,-0.00770802 0.0343822,-0.0046497 0.0346604,-0.00155406 z "/>
<path fill="rgb(247,181,0)" stroke="rgb(247,181,0)" d="M 3.69425,1.03121 l 0.182269,0 -0.0227623,-0.0239174 -0.0247167,-0.0218917 -0.0264915,-0.0197069 -0.0280738,-0.0173789 -0.029452,-0.0149246 -0.0306162,-0.0123618 -0.0315578,-0.00970917 -0.0322701,-0.00698597 -0.0327479,-0.004212 -0.0329876,-0.00140741 -7.43914e-09,0 -2.98248e-08,0 -7.57052e-09,0 -0.0346604,0.00155406 -0.0343822,0.0046497 -0.0338281,0.00770802 -0.0330026,0.0107045 -0.0319122,0.013615 -0.0305657,0.0164163 -0.0289739,0.0190859 -0.0271495,0.0216023 -0.0251073,0.0239453 -0.0228637,0.0260962 -0.0204365,0.0280376 -0.0178453,0.029754 -0.0151109,0.0312317 -0.0122552,0.0324587 -0.00930122,0.0334252 -0.00627256,0.0341235 0.321765,0.435204 0.0200838,0.00271467 0.0201983,0.00166036 0.0202575,0.000601506 0.0567216,-0.0419368 -0.0503538,-0.068106 0.0242579,-0.00150326 0.024033,-0.00362159 0.0236236,-0.00571211 0.0230327,-0.00775874 0.0222648,-0.00974577 0.0213259,-0.0116579 0.0202232,-0.0134805 0.0189651,-0.0151996 0.0175614,-0.0168019 0.0160227,-0.0182751 0.0143609,-0.0196079 0.0125888,-0.02079 0.01072,-0.0218125 0.00876881,-0.0226674 0.00675028,-0.0233482 0.0046799,-0.0238496 0.00257356,-0.0241677 0.000447456,-0.0243003 -0.00168209,-0.0242461 -0.00379871,-0.0240057 -0.00588615,-0.0235809 -0.00792837,-0.0229749 -0.00990968,-0.0221924 -0.0118149,-0.0212394 -0.0136293,-0.0201233 -0.015339,-0.0188525 -0.0169309,-0.017437 -0.0183927,-0.0158875 -0.0197132,-0.0142159 -0.0208823,-0.0124351 -0.021891,-0.0105588 z "/>
<path fill="rgb(247,181,0)" stroke="rgb(247,181,0)" d="M 3.58484,0.898712 l 0.0329876,0.00140741 0.0327479,0.004212 0.0322701,0.00698597 0.0315578,0.00970917 0.0306162,0.0123618 0.029452,0.0149246 0.0280738,0.0173789 0.0264915,0.0197069 0.0247167,0.0218917 0.0227623,0.0239174 0.0272166,0 0,-0.132496 -0.318893,8.88178e-16 z "/>
<path fill="rgb(247,181,0)" stroke="rgb(247,181,0)" d="M 3.52294,1.66832 l 0.0237757,0.0321578 0.036764,-0.0271813 -0.0202575,-0.000601506 -0.0201983,-0.00166036 -0.0200838,-0.00271467 z "/>
<path fill="rgb(241,240,234)" stroke="rgb(241,240,234)" d="M 1.96184,4.40636 l 0.351024,0 0.351024,0 -0.0382379,0.0279479 -0.0404518,0.0246349 -0.0423793,0.0211475 -0.0440069,0.0175104 -0.045323,0.0137494 -0.0463183,0.00989114 -0.0469858,0.00596283 -0.0473208,0.00199231 -0.0473208,-0.00199231 -0.0469858,-0.00596283 -0.0463183,-0.00989114 -0.045323,-0.0137494 -0.0440069,-0.0175104 -0.0423793,-0.0211475 -0.0404518,-0.0246349 -0.0382379,-0.0279479 z "/>
<path fill="rgb(241,240,234)" stroke="rgb(241,240,234)" d="M 2.41233,3.86226 l -0.0965432,0 -0.0965432,0 0.0994594,-0.187206 0.093627,0.187206 z "/>
<path fill="rgb(241,240,234)" stroke="rgb(241,240,234)" d="M 2.71069,3.41176 l -0.210607,0.198919 -0.0106919,-0.0155903 -0.0119669,-0.0146344 -0.0131569,-0.0135746 -0.0142534,-0.0124183 -0.0152486,-0.0111738 -0.0161355,-0.00984991 -0.0169077,-0.00845602 -0.0175598,-0.00700204 -0.0180871,-0.0054983 -0.0184859,-0.00395551 -0.0187533,-0.0023846 -0.0188875,-0.000796754 -0.0188875,0.000796754 -0.0187533,0.0023846 -0.0184859,0.00395551 -0.0180871,0.0054983 -0.0175598,0.00700204 -0.0169077,0.00845602 -0.0161355,0.00984991 -0.0152486,0.0111738 -0.0142534,0.0124183 -0.0131569,0.0135746 -0.0119669,0.0146344 -0.0106919,0.0155903 -0.204775,-0.198919 0.0368077,-0.0318812 0.0393521,-0.0286815 0.0416192,-0.0252797 0.0435929,-0.0216997 0.0452594,-0.0179667 0.0466069,-0.0141072 0.0476259,-0.0101482 0.0483093,-0.00611765 0.0486522,-0.00204402 0.0486522,0.00204402 0.0483093,0.00611765 0.0476259,0.0101482 0.0466069,0.0141072 0.0452594,0.0179667 0.0435929,0.0216997 0.0416192,0.0252797 0.0393521,0.0286815 0.0368077,0.0318812 z "/>
<path fill="rgb(241,240,234)" stroke="rgb(241,240,234)" d="M 2.31287,3.06658 l 0,0.0526578 0.0292331,0 0.00229471,-0.000100189 0.00227725,-0.000299805 0.00224245,-0.00049714 0.00219059,-0.000690691 0.00212206,-0.000878985 0.00203737,-0.00106059 0.00193719,-0.00123412 0.00182225,-0.00139826 0.00169345,-0.00155176 0.00155176,-0.00169345 0.00139826,-0.00182225 0.00123412,-0.00193719 0.00106059,-0.00203737 0.000878985,-0.00212206 0.000690691,-0.00219059 0.00049714,-0.00224245 0.000299805,-0.00227725 0.000100189,-0.00229471 -0.000100189,-0.00229471 -0.000299805,-0.00227725 -0.00049714,-0.00224245 -0.000690691,-0.00219059 -0.000878985,-0.00212206 -0.00106059,-0.00203737 -0.00123412,-0.00193719 -0.00139826,-0.00182225 -0.00155176,-0.00169345 -0.00169345,-0.00155176 -0.00182225,-0.00139826 -0.00193719,-0.00123412 -0.00203737,-0.00106059 -0.00212206,-0.000878985 -0.00219059,-0.000690691 -0.00224245,-0.00049714 -0.00227725,-0.000299805 -0.00229471,-0.000100189 -4.3836e-12,0 -0.0292331,0 z M 2.28947,3.14267 l 0,-0.169686 0.0234008,0 0,0.0702262 0.0292331,0 0.00433423,0.000189236 0.00430124,0.000566269 0.00423552,0.000938992 0.00413756,0.00130457 0.00400812,0.00166022 0.00384817,0.00200323 0.00365893,0.002331 0.00344185,0.00264102 0.00319857,0.00293095 0.00293095,0.00319857 0.00264102,0.00344185 0.002331,0.00365893 0.00200323,0.00384817 0.00166022,0.00400812 0.00130457,0.00413756 0.000938992,0.00423552 0.000566269,0.00430124 0.000189236,0.00433423 -0.000189236,0.00433423 -0.000566269,0.00430124 -0.000938992,0.00423552 -0.00130457,0.00413756 -0.00166022,0.00400812 -0.00200323,0.00384817 -0.002331,0.00365893 -0.00264102,0.00344185 -0.00293095,0.00319857 -0.00319857,0.00293095 -0.00344185,0.00264102 -0.00365893,0.002331 -0.00384817,0.00200323 -0.00400812,0.00166022 -0.00413756,0.00130457 -0.00423552,0.000938992 -0.00430124,0.000566269 -0.00433423,0.000189236 -0.052634,0 z "/>
<path fill="rgb(241,240,234)" stroke="rgb(241,240,234)" d="M 9.51129,8.25089 l -1.77636e-15,5.48553 -0.000998892,0.0228784 -0.00298907,0.0227043 -0.00495651,0.0223574 -0.00688622,0.0218403 -0.00876352,0.021157 -0.0105741,0.0203127 -0.0123043,0.0193138 -0.0139407,0.0181679 -0.0154711,0.0168838 -0.0168838,0.0154711 -0.0181679,0.0139407 -0.0193138,0.0123043 -0.0203127,0.0105741 -0.021157,0.00876352 -0.0218403,0.00688622 -0.0223574,0.00495651 -0.0227043,0.00298907 -0.0228784,0.000998892 -8.47818,-8.88178e-15 -0.0228784,-0.000998892 -0.0227043,-0.00298907 -0.0223574,-0.00495651 -0.0218403,-0.00688622 -0.021157,-0.00876352 -0.0203127,-0.0105741 -0.0193138,-0.0123043 -0.0181679,-0.0139407 -0.0168838,-0.0154711 -0.0154711,-0.0168838 -0.0139407,-0.0181679 -0.0123043,-0.0193138 -0.0105741,-0.0203127 -0.00876352,-0.021157 -0.00688622,-0.0218403 -0.00495651,-0.0223574 -0.00298907,-0.0227043 -0.000998892,-0.0228784 0,-5.48553 1.14365,0 -4.44089e-16,3.05 0.00114159,0.0261467 0.00341608,0.0259477 0.00566458,0.0255513 0.00786996,0.0249603 0.0100155,0.0241794 0.0120847,0.0232145 0.014062,0.0220729 0.0159323,0.0207634 0.0176813,0.0192958 0.0192958,0.0176813 0.0207634,0.0159323 0.0220729,0.014062 0.0232145,0.0120847 0.0241794,0.0100155 0.0249603,0.00786996 0.0255513,0.00566458 0.0259477,0.00341608 0.0261467,0.00114159 6.1,0 0.0261467,-0.00114159 0.0259477,-0.00341608 0.0255513,-0.00566458 0.0249603,-0.00786996 0.0241794,-0.0100155 0.0232145,-0.0120847 0.0220729,-0.014062 0.0207634,-0.0159323 0.0192958,-0.0176813 0.0176813,-0.0192958 0.0159323,-0.0207634 0.014062,-0.0220729 0.0120847,-0.0232145 0.0100155,-0.0241794 0.00786996,-0.0249603 0.00566458,-0.0255513 0.00341608,-0.0259477 0.00114159,-0.0261467 0,-3.05 1.15953,0 z "/>
<path fill="rgb(0,91,140)" stroke="rgb(0,91,140)" d="M 3.01492,2.79163 l 0,1.75513 -0.198919,0 -0.105316,-0.122836 -0.0417405,0.0343973 -0.044721,0.0304216 -0.0473241,0.0261891 -0.0495278,0.0217357 -0.0513135,0.0170987 -0.0526661,0.0123175 -0.0535743,0.00743234 -0.0540303,0.00248444 -0.00292808,-0.0468088 0.0473208,-0.00199231 0.0469858,-0.00596283 0.0463183,-0.00989114 0.045323,-0.0137494 0.0440069,-0.0175104 0.0423793,-0.0211475 0.0404518,-0.0246349 0.0382379,-0.0279479 -0.351024,0 0.00292808,-0.544098 0.0965432,0 -0.093627,-0.187206 -0.00876042,-0.169705 0.0188875,0.000796754 0.0187533,0.0023846 0.0184859,0.00395551 0.0180871,0.0054983 0.0175598,0.00700204 0.0169077,0.00845602 0.0161355,0.00984991 0.0152486,0.0111738 0.0142534,0.0124183 0.0131569,0.0135746 0.0119669,0.0146344 0.0106919,0.0155903 0.210607,-0.198919 -0.0368077,-0.0318812 -0.0393521,-0.0286815 -0.0416192,-0.0252797 -0.0435929,-0.0216997 -0.0452594,-0.0179667 -0.0466069,-0.0141072 -0.0476259,-0.0101482 -0.0483093,-0.00611765 -0.0486522,-0.00204402 -0.0233889,-0.111172 0.052634,0 0.00433423,-0.000189236 0.00430124,-0.000566269 0.00423552,-0.000938992 0.00413756,-0.00130457 0.00400812,-0.00166022 0.00384817,-0.00200323 0.00365893,-0.002331 0.00344185,-0.00264102 0.00319857,-0.00293095 0.00293095,-0.00319857 0.00264102,-0.00344185 0.002331,-0.00365893 0.00200323,-0.00384817 0.00166022,-0.00400812 0.00130457,-0.00413756 0.000938992,-0.00423552 0.000566269,-0.00430124 0.000189236,-0.00433423 -0.000189236,-0.00433423 -0.000566269,-0.00430124 -0.000938992,-0.00423552 -0.00130457,-0.00413756 -0.00166022,-0.00400812 -0.00200323,-0.00384817 -0.002331,-0.00365893 -0.00264102,-0.00344185 -0.00293095,-0.00319857 -0.00319857,-0.00293095 -0.00344185,-0.00264102 -0.00365893,-0.002331 -0.00384817,-0.00200323 -0.00400812,-0.00166022 -0.00413756,-0.00130457 -0.00423552,-0.000938992 -0.00430124,-0.000566269 -0.00433423,-0.000189236 -0.0292331,0 0,-0.0702262 0.702048,-0.18135 z "/>
<path fill="rgb(0,91,140)" stroke="rgb(0,91,140)" d="M 2.31287,3.06658 l 0.0292331,0 4.3836e-12,0 0.00229471,0.000100189 0.00227725,0.000299805 0.00224245,0.00049714 0.00219059,0.000690691 0.00212206,0.000878985 0.00203737,0.00106059 0.00193719,0.00123412 0.00182225,0.00139826 0.00169345,0.00155176 0.00155176,0.00169345 0.00139826,0.00182225 0.00123412,0.00193719 0.00106059,0.00203737 0.000878985,0.00212206 0.000690691,0.00219059 0.00049714,0.00224245 0.000299805,0.00227725 0.000100189,0.00229471 -0.000100189,0.00229471 -0.000299805,0.00227725 -0.00049714,0.00224245 -0.000690691,0.00219059 -0.000878985,0.00212206 -0.00106059,0.00203737 -0.00123412,0.00193719 -0.00139826,0.00182225 -0.00155176,0.00169345 -0.00169345,0.00155176 -0.00182225,0.00139826 -0.00193719,0.00123412 -0.00203737,0.00106059 -0.00212206,0.000878985 -0.00219059,0.000690691 -0.00224245,0.00049714 -0.00227725,0.000299805 -0.00229471,0.000100189 -0.0292331,0 0,-0.0526578 z "/>
<path fill="rgb(0,91,140)" stroke="rgb(0,91,140)" d="M 1.96184,4.40636 l 0.0382379,0.0279479 0.0404518,0.0246349 0.0423793,0.0211475 0.0440069,0.0175104 0.045323,0.0137494 0.0463183,0.00989114 0.0469858,0.00596283 0.0473208,0.00199231 0.00292808,0.0468088 -0.0540303,-0.00248444 -0.0535743,-0.00743234 -0.0526661,-0.0123175 -0.0513135,-0.0170987 -0.0495278,-0.0217357 -0.0473241,-0.0261891 -0.044721,-0.0304216 -0.0417405,-0.0343973 -0.0819147,0.122836 -0.187206,0 0,-1.75513 1.36315,0 -0.702048,0.18135 -0.0234008,0 0,0.169686 0.0233889,0.111172 -0.0486522,0.00204402 -0.0483093,0.00611765 -0.0476259,0.0101482 -0.0466069,0.0141072 -0.0452594,0.0179667 -0.0435929,0.0216997 -0.0416192,0.0252797 -0.0393521,0.0286815 -0.0368077,0.0318812 0.204775,0.198919 0.0106919,-0.0155903 0.0119669,-0.0146344 0.0131569,-0.0135746 0.0142534,-0.0124183 0.0152486,-0.0111738 0.0161355,-0.00984991 0.0169077,-0.00845602 0.0175598,-0.00700204 0.0180871,-0.0054983 0.0184859,-0.00395551 0.0187533,-0.0023846 0.0188875,-0.000796754 0.00876042,0.169705 -0.0994594,0.187206 0.0965432,0 -0.00292808,0.544098 -0.351024,0 z "/>
<path fill="rgb(0,91,140)" stroke="rgb(0,91,140)" d="M 1.65177,11.3009 l 4.44089e-16,-3.05 4.44089e-16,-3.05 0.00114159,-0.0261467 0.00341608,-0.0259477 0.00566458,-0.0255513 0.00786996,-0.0249603 0.0100155,-0.0241794 0.0120847,-0.0232145 0.014062,-0.0220729 0.0159323,-0.0207634 0.0176813,-0.0192958 0.0192958,-0.0176813 0.0207634,-0.0159323 0.0220729,-0.014062 0.0232145,-0.0120847 0.0241794,-0.0100155 0.0249603,-0.00786996 0.0255513,-0.00566458 0.0259477,-0.00341608 0.0261467,-0.00114159 6.1,0 0.0261467,0.00114159 0.0259477,0.00341608 0.0255513,0.00566458 0.0249603,0.00786996 0.0241794,0.0100155 0.0232145,0.0120847 0.0220729,0.014062 0.0207634,0.0159323 0.0192958,0.0176813 0.0176813,0.0192958 0.0159323,0.0207634 0.014062,0.0220729 0.0120847,0.0232145 0.0100155,0.0241794 0.00786996,0.0249603 0.00566458,0.0255513 0.00341608,0.0259477 0.00114159,0.0261467 0,3.05 0,3.05 -0.00114159,0.0261467 -0.00341608,0.0259477 -0.00566458,0.0255513 -0.00786996,0.0249603 -0.0100155,0.0241794 -0.0120847,0.0232145 -0.014062,0.0220729 -0.0159323,0.0207634 -0.0176813,0.0192958 -0.0192958,0.0176813 -0.0207634,0.0159323 -0.0220729,0.014062 -0.0232145,0.0120847 -0.0241794,0.0100155 -0.0249603,0.00786996 -0.0255513,0.00566458 -0.0259477,0.00341608 -0.0261467,0.00114159 -6.1,0 -0.0261467,-0.00114159 -0.0259477,-0.00341608 -0.0255513,-0.00566458 -0.0249603,-0.00786996 -0.0241794,-0.0100155 -0.0232145,-0.0120847 -0.0220729,-0.014062 -0.0207634,-0.0159323 -0.0192958,-0.0176813 -0.0176813,-0.0192958 -0.0159323,-0.0207634 -0.014062,-0.0220729 -0.0120847,-0.0232145 -0.0100155,-0.0241794 -0.00786996,-0.0249603 -0.00566458,-0.0255513 -0.00341608,-0.0259477 -0.00114159,-0.0261467 z "/>
<path fill="rgb(241,240,234)" stroke="rgb(241,240,234)" d="M 10.0035,8.25089 l -0.229744,0 0,-7.49085 -0.00199778,-0.0457568 -0.00597815,-0.0454085 -0.00991301,-0.0447147 -0.0137724,-0.0436806 -0.017527,-0.042314 -0.0211483,-0.0406254 -0.0246085,-0.0386276 -0.0278815,-0.0363359 -0.0309423,-0.0337676 -0.0337676,-0.0309423 -0.0363359,-0.0278815 -0.0386276,-0.0246085 -0.0406254,-0.0211483 -0.042314,-0.017527 -0.0436806,-0.0137724 -0.0447147,-0.00991301 -0.0454085,-0.00597815 -0.0457568,-0.00199778 -8.47818,-7.10543e-15 -0.0457568,0.00199778 -0.0454085,0.00597815 -0.0447147,0.00991301 -0.0436806,0.0137724 -0.042314,0.017527 -0.0406254,0.0211483 -0.0386276,0.0246085 -0.0363359,0.0278815 -0.0337676,0.0309423 -0.0309423,0.0337676 -0.0278815,0.0363359 -0.0246085,0.0386276 -0.0211483,0.0406254 -0.017527,0.042314 -0.0137724,0.0436806 -0.00991301,0.0447147 -0.00597815,0.0454085 -0.00199778,0.0457568 0,7.49085 -0.245616,0 0,-8.25089 10.0035,3.55271e-15 -1.77636e-15,8.25089 z "/>
<path fill="rgb(241,240,234)" stroke="rgb(241,240,234)" d="M 10.0035,8.25089 l -1.77636e-15,6.25089 -10.0035,0 0,-6.25089 0.245616,0 0,5.48553 0.00199778,0.0457568 0.00597815,0.0454085 0.00991301,0.0447147 0.0137724,0.0436806 0.017527,0.042314 0.0211483,0.0406254 0.0246085,0.0386276 0.0278815,0.0363359 0.0309423,0.0337676 0.0337676,0.0309423 0.0363359,0.0278815 0.0386276,0.0246085 0.0406254,0.0211483 0.042314,0.017527 0.0436806,0.0137724 0.0447147,0.00991301 0.0454085,0.00597815 0.0457568,0.00199778 8.47818,1.06581e-14 0.0457568,-0.00199778 0.0454085,-0.00597815 0.0447147,-0.00991301 0.0436806,-0.0137724 0.042314,-0.017527 0.0406254,-0.0211483 0.0386276,-0.0246085 0.0363359,-0.0278815 0.0337676,-0.0309423 0.0309423,-0.0337676 0.0278815,-0.0363359 0.0246085,-0.0386276 0.0211483,-0.0406254 0.017527,-0.042314 0.0137724,-0.0436806 0.00991301,-0.0447147 0.00597815,-0.0454085 0.00199778,-0.0457568 1.77636e-15,-5.48553 0.229744,0 z "/>
<path fill="rgb(241,240,234)" stroke="rgb(241,240,234)" d="M 5.62417,11.0029 l -2.56326,0 0,-5.50106 1.00119,0 0,2.15767 1.56207,0 0.0931763,0 0.208277,0.0146159 0.193661,0.0274048 0.177218,0.0438477 0.164429,0.0584636 0.147986,0.0712525 0.109619,0.0675985 0.149813,0.113273 0.135197,0.127889 0.118754,0.144332 0.104138,0.157121 0.0602906,0.1151 -3.22463,0.0438477 0,1.37207 1.60227,0 1.58765,0.135197 -0.0950033,0.144332 -0.111446,0.13337 -0.129716,0.124235 -0.147986,0.113273 -0.166256,0.102311 -0.0639445,0.0347128 -0.162602,0.0712525 -0.173564,0.0548096 -0.182699,0.0401937 -0.191834,0.0237508 -0.202796,0.00913494 z "/>
<path fill="rgb(241,240,234)" stroke="rgb(241,240,234)" d="M 7.25201,10.1515 l -1.58765,-0.135197 0.0803874,-0.00182699 0.197315,-0.0292318 0.168083,-0.0602906 0.138851,-0.0931763 0.0182699,-0.0182699 0.1151,-0.142505 0.0675985,-0.164429 0.0237508,-0.18818 0,-0.00913494 -0.0274048,-0.190007 -0.0749065,-0.158948 -0.122408,-0.131543 -0.0511556,-0.0365397 -0.157121,-0.0822144 -0.177218,-0.0493287 -0.199142,-0.0164429 -1.60227,0 3.22463,-0.0438477 0.0749065,0.173564 0.0548096,0.179045 0.0310588,0.180872 0.0109619,0.184526 -0.00548096,0.157121 -0.0237508,0.184526 -0.0420207,0.173564 -0.0584636,0.164429 -0.0767335,0.153467 z "/>
<path fill="rgb(42,41,42)" stroke="rgb(42,41,42)" d="M 6.92681,13.4656 l -0.730795,0 0,-0.999362 0.747238,0 0,0.179045 -0.564539,0 0,0.272221 0.299626,0 0,0.182699 -0.299626,0 0,0.186353 0.548096,0 0,0.179045 z "/>
<path fill="rgb(42,41,42)" stroke="rgb(42,41,42)" d="M 5.93841,13.4656 l -0.173564,0 0,-0.661369 0.0200969,-0.337993 0.153467,0 0,0.999362 z "/>
<path fill="rgb(42,41,42)" stroke="rgb(42,41,42)" d="M 5.30627,13.4656 l 0,-0.312415 0.478671,-0.686947 -0.0200969,0.337993 -0.458574,0.661369 z "/>
<path fill="rgb(42,41,42)" stroke="rgb(42,41,42)" d="M 5.30627,13.4656 l -0.173564,0 0,-0.999362 0.173564,0 0,0.686947 0,0.312415 z "/>
<path fill="rgb(42,41,42)" stroke="rgb(42,41,42)" d="M 4.48595,13.4821 l -0.0840414,-0.00730795 -0.0858684,-0.0255778 -0.0749065,-0.0438477 -0.0639445,-0.0602906 -0.0200969,-0.0255778 0.328858,-0.0164429 0.0274048,0 0.0840414,-0.0274048 0.0639445,-0.0602906 0.0310588,-0.0584636 0.0219238,-0.0858684 0.00913494,-0.104138 -0.00365397,-0.0584636 -0.0146159,-0.0931763 -0.0310588,-0.0767335 -0.0292318,-0.0456747 -0.0694255,-0.0493287 -0.0895224,-0.0164429 0.319723,-0.00913494 0.0420207,0.0730795 0.0292318,0.0840414 0.0182699,0.0913494 0.00548096,0.104138 0,0.0328858 -0.0109619,0.0986573 -0.0219238,0.0895224 -0.0347128,0.0803874 -0.0456747,0.0694255 -0.0511556,0.0529826 -0.0730795,0.0475017 -0.0822144,0.0292318 -0.0950033,0.0109619 z "/>
<path fill="rgb(42,41,42)" stroke="rgb(42,41,42)" d="M 4.15709,13.3195 l -0.0401937,-0.0712525 -0.0292318,-0.0822144 -0.0182699,-0.0950033 -0.00548096,-0.104138 0,-0.00730795 0.00730795,-0.0986573 0.0182699,-0.0895224 0.0310588,-0.0840414 0.0438477,-0.0749065 0.0109619,-0.0146159 0.0621176,-0.0657715 0.0730795,-0.0475017 0.0822144,-0.0274048 0.0931763,-0.00913494 0.0803874,0.00730795 0.0840414,0.0255778 0.0730795,0.0456747 0.0639445,0.0657715 0.0182699,0.0255778 -0.319723,0.00913494 -0.0274048,0.00182699 -0.0840414,0.0274048 -0.0639445,0.0621176 -0.0328858,0.0584636 -0.0237508,0.0858684 -0.00730795,0.104138 0.00548096,0.0858684 0.0219238,0.0895224 0.0365397,0.0730795 0.0164429,0.0200969 0.0694255,0.0511556 0.0895224,0.0164429 -0.328858,0.0164429 z "/>
<path fill="rgb(42,41,42)" stroke="rgb(42,41,42)" d="M 3.89766,13.4656 l -0.754546,0 0,-0.177218 0.537134,0 -0.568193,-0.621176 0,-0.200969 0.785604,0 0,0.179045 -0.564539,0 0.564539,0.615695 0,0.204623 z "/>
<path fill="rgb(42,41,42)" stroke="rgb(42,41,42)" d="M 3.19754,1.28601 l 0.000403675,-0.0176782 0.00121018,-0.0176414 0.00201417,-0.0175677 0.321765,0.435204 -0.0334143,-0.00693327 -0.0326743,-0.00984776 -0.0316806,-0.0126858 -0.0304409,-0.0154253 -0.0289648,-0.0180451 -0.0272639,-0.0205248 -0.0253513,-0.0228451 -0.0232419,-0.024988 -0.020952,-0.026937 -0.0184995,-0.0286768 -0.0159033,-0.0301939 -0.0131836,-0.0314766 -0.0103616,-0.032515 -0.00745916,-0.0333009 -0.00449879,-0.0338282 -0.00150349,-0.0340929 z "/>
<path fill="rgb(42,41,42)" stroke="rgb(42,41,42)" d="M 3.69425,1.03121 l 0.182269,0 0.0216642,0.0271691 0.0191417,0.0290015 0.0164652,0.0306005 0.0136562,0.0319531 0.0107372,0.0330486 0.00773176,0.0338779 0.00466409,0.0344346 0.00155888,0.034714 -0.00148038,0.0338304 -0.00442982,0.0335718 -0.00734539,0.0330565 -0.0102048,0.0322885 -0.0129862,0.0312737 -0.0156684,0.0300198 -0.0182307,0.0285364 -0.0206537,0.0268349 -0.0229188,0.0249282 -0.0250087,0.022831 -0.0269074,0.0205592 -0.0286004,0.0181302 -0.0300747,0.0155627 -0.0313192,0.0128762 -0.0323242,0.0100912 -0.0330821,0.00722908 -0.0335871,0.00431171 -0.0338354,0.00136138 0.0567216,-0.0419368 -0.0503538,-0.068106 0.0242579,-0.00150326 0.024033,-0.00362159 0.0236236,-0.00571211 0.0230327,-0.00775874 0.0222648,-0.00974577 0.0213259,-0.0116579 0.0202232,-0.0134805 0.0189651,-0.0151996 0.0175614,-0.0168019 0.0160227,-0.0182751 0.0143609,-0.0196079 0.0125888,-0.02079 0.01072,-0.0218125 0.00876881,-0.0226674 0.00675028,-0.0233482 0.0046799,-0.0238496 0.00257356,-0.0241677 0.000447456,-0.0243003 -0.00168209,-0.0242461 -0.00379871,-0.0240057 -0.00588615,-0.0235809 -0.00792837,-0.0229749 -0.00990968,-0.0221924 -0.0118149,-0.0212394 -0.0136293,-0.0201233 -0.015339,-0.0188525 -0.0169309,-0.017437 -0.0183927,-0.0158875 -0.0197132,-0.0142159 -0.0208823,-0.0124351 -0.021891,-0.0105588 z "/>
<path fill="rgb(42,41,42)" stroke="rgb(42,41,42)" d="M 6.04728,1.28367 l 0.00147378,-0.033755 0.00441011,-0.0334981 0.00731288,-0.0329863 0.01016,-0.0322234 0.0129298,-0.0312153 0.0156012,-0.0299696 0.0181538,-0.0284958 0.0205683,-0.0268052 0.0228263,-0.0249105 0.0249105,-0.0228263 0.0268052,-0.0205683 0.0284958,-0.0181538 0.0299696,-0.0156012 0.0312153,-0.0129298 0.0322234,-0.01016 0.0329863,-0.00731288 0.0334981,-0.00441011 0.033755,-0.00147378 0.033755,0.00147378 0.0334981,0.00441011 0.0329863,0.00731288 0.0322234,0.01016 0.0312153,0.0129298 0.0299696,0.0156012 0.0284958,0.0181538 0.0268052,0.0205683 0.0249105,0.0228263 0.0228263,0.0249105 0.0205683,0.0268052 0.0181538,0.0284958 0.0156012,0.0299696 0.0129298,0.0312153 0.01016,0.0322234 0.00731288,0.0329863 0.00441011,0.0334981 0.00147378,0.033755 -0.00147378,-0.033755 -0.00441011,-0.0334981 -0.00731288,-0.0329863 -0.01016,-0.0322234 -0.0129298,-0.0312153 -0.0156012,-0.0299696 -0.0181538,-0.0284958 -0.0205683,-0.0268052 -0.0228263,-0.0249105 -0.0249105,-0.0228263 -0.0268052,-0.0205683 -0.0284958,-0.0181538 -0.0299696,-0.0156012 -0.0312153,-0.0129298 -0.0322234,-0.01016 -0.0329863,-0.00731288 -0.0334981,-0.00441011 -0.033755,-0.00147378 -0.033755,0.00147378 -0.0334981,0.00441011 -0.0329863,0.00731288 -0.0322234,0.01016 -0.0312153,0.0129298 -0.0299696,0.0156012 -0.0284958,0.0181538 -0.0268052,0.0205683 -0.0249105,0.0228263 -0.0228263,0.0249105 -0.0205683,0.0268052 -0.0181538,0.0284958 -0.0156012,0.0299696 -0.0129298,0.0312153 -0.01016,0.0322234 -0.00731288,0.0329863 -0.00441011,0.0334981 -0.00147378,0.033755 z "/>
<path fill="rgb(42,41,42)" stroke="rgb(42,41,42)" d="M 6.04728,1.28367 l 0.00147378,0.033755 0.00441011,0.0334981 0.00731288,0.0329863 0.01016,0.0322234 0.0129298,0.0312153 0.0156012,0.0299696 0.0181538,0.0284958 0.0205683,0.0268052 0.0228263,0.0249105 0.0249105,0.0228263 0.0268052,0.0205683 0.0284958,0.0181538 0.0299696,0.0156012 0.0312153,0.0129298 0.0322234,0.01016 0.0329863,0.00731288 0.0334981,0.00441011 0.033755,0.00147378 0.033755,-0.00147378 0.0334981,-0.00441011 0.0329863,-0.00731288 0.0322234,-0.01016 0.0312153,-0.0129298 0.0299696,-0.0156012 0.0284958,-0.0181538 0.0268052,-0.0205683 0.0249105,-0.0228263 0.0228263,-0.0249105 0.0205683,-0.0268052 0.0181538,-0.0284958 0.0156012,-0.0299696 0.0129298,-0.0312153 0.01016,-0.0322234 0.00731288,-0.0329863 0.00441011,-0.0334981 0.00147378,-0.033755 -0.00147378,0.033755 -0.00441011,0.0334981 -0.00731288,0.0329863 -0.01016,0.0322234 -0.0129298,0.0312153 -0.0156012,0.0299696 -0.0181538,0.0284958 -0.0205683,0.0268052 -0.0228263,0.0249105 -0.0249105,0.0228263 -0.0268052,0.0205683 -0.0284958,0.0181538 -0.0299696,0.0156012 -0.0312153,0.0129298 -0.0322234,0.01016 -0.0329863,0.00731288 -0.0334981,0.00441011 -0.033755,0.00147378 -0.033755,-0.00147378 -0.0334981,-0.00441011 -0.0329863,-0.00731288 -0.0322234,-0.01016 -0.0312153,-0.0129298 -0.0299696,-0.0156012 -0.0284958,-0.0181538 -0.0268052,-0.0205683 -0.0249105,-0.0228263 -0.0228263,-0.0249105 -0.0205683,-0.0268052 -0.0181538,-0.0284958 -0.0156012,-0.0299696 -0.0129298,-0.0312153 -0.01016,-0.0322234 -0.00731288,-0.0329863 -0.00441011,-0.0334981 -0.00147378,-0.033755 z "/>
<path fill="rgb(42,41,42)" stroke="rgb(42,41,42)" d="M 6.04728,1.28367 l 0.00147378,-0.033755 0.00441011,-0.0334981 0.00731288,-0.0329863 0.01016,-0.0322234 0.0129298,-0.0312153 0.0156012,-0.0299696 0.0181538,-0.0284958 0.0205683,-0.0268052 0.0228263,-0.0249105 0.0249105,-0.0228263 0.0268052,-0.0205683 0.0284958,-0.0181538 0.0299696,-0.0156012 0.0312153,-0.0129298 0.0322234,-0.01016 0.0329863,-0.00731288 0.0334981,-0.00441011 0.033755,-0.00147378 0.033755,0.00147378 0.0334981,0.00441011 0.0329863,0.00731288 0.0322234,0.01016 0.0312153,0.0129298 0.0299696,0.0156012 0.0284958,0.0181538 0.0268052,0.0205683 0.0249105,0.0228263 0.0228263,0.0249105 0.0205683,0.0268052 0.0181538,0.0284958 0.0156012,0.0299696 0.0129298,0.0312153 0.01016,0.0322234 0.00731288,0.0329863 0.00441011,0.0334981 0.00147378,0.033755 -0.00147378,0.033755 -0.00441011,0.0334981 -0.00731288,0.0329863 -0.01016,0.0322234 -0.0129298,0.0312153 -0.0156012,0.0299696 -0.0181538,0.0284958 -0.0205683,0.0268052 -0.0228263,0.0249105 -0.0249105,0.0228263 -0.0268052,0.0205683 -0.0284958,0.0181538 -0.0299696,0.0156012 -0.0312153,0.0129298 -0.0322234,0.01016 -0.0329863,0.00731288 -0.0334981,0.00441011 -0.033755,0.00147378 -0.033755,-0.00147378 -0.0334981,-0.00441011 -0.0329863,-0.00731288 -0.0322234,-0.01016 -0.0312153,-0.0129298 -0.0299696,-0.0156012 -0.0284958,-0.0181538 -0.0268052,-0.0205683 -0.0249105,-0.0228263 -0.0228263,-0.0249105 -0.0205683,-0.0268052 -0.0181538,-0.0284958 -0.0156012,-0.0299696 -0.0129298,-0.0312153 -0.01016,-0.0322234 -0.00731288,-0.0329863 -0.00441011,-0.0334981 -0.00147378,-0.033755 z "/>
<path fill="rgb(42,41,42)" stroke="rgb(42,41,42)" d="M 6.49721,2.28367 l -0.407618,0.42893 -0.00721237,0.00681868 -0.0077905,0.00614986 -0.00830682,0.00543226 -0.00875724,0.00467155 -0.00913819,0.00387379 -0.00944663,0.00304529 -0.00968014,0.00219263 -0.00983684,0.00132257 -0.00991551,0.000442027 -0.375626,0 0,-0.113343 0.329591,0 0.00867431,-5.37237e-05 0.00863849,-0.000789378 0.00854039,-0.00151934 0.00838071,-0.00223835 0.00816062,-0.00294122 0.0078817,-0.00362289 0.00754596,-0.00427844 0.00715581,-0.00490315 0.00671408,-0.00549251 0.00622395,-0.00604227 0.300553,-0.317654 0.155268,0 z "/>
<path fill="rgb(42,41,42)" stroke="rgb(42,41,42)" d="M 5.93511,1.28367 l 0.00199195,0.0429802 0.00569884,0.0426472 0.00936308,0.0419952 0.0129573,0.0410289 0.0164545,0.0397557 0.0198286,0.038185 0.0230544,0.0363285 0.0261076,0.0342002 0.0289655,0.0318161 0.0316067,0.0291939 0.0340114,0.0263532 0.0361616,0.0233154 0.0380412,0.0201031 0.0396362,0.0167403 0.0409346,0.0132524 0.0419267,0.00966523 0.0426051,0.00600578 0.0429647,0.00230139 0.0430029,-0.00142022 0.0427193,-0.0051312 0.042116,-0.00880379 0.0411976,-0.0124105 0.0374275,-0.0149111 0,0.403861 -0.000959093,0.000139882 -0.135713,0.142808 -0.155268,0 0.13512,-0.142808 -0.84318,-0.0210007 0,-0.836191 0.301227,0 z "/>
<path fill="rgb(42,41,42)" stroke="rgb(42,41,42)" d="M 4.63388,2.74655 l 0,-0.113343 0.734512,0 0,-0.349536 0.113343,0 8.88178e-16,0.349536 0.152145,0 0,0.113343 -1,0 z "/>
<path fill="rgb(42,41,42)" stroke="rgb(42,41,42)" d="M 3.63388,1.77769 l 0,0.325314 -1,-0.167589 0,-0.545499 0.453386,-0.077916 0.00435114,0.0435519 0.0081715,0.0429992 0.0119283,0.042112 0.0155923,0.0408972 0.019135,0.0393644 0.0225289,0.0375253 0.0257476,0.0353944 0.028766,0.0329882 0.0315607,0.0303254 0.0341098,0.0274267 0.0363937,0.0243147 0.0383945,0.0210135 0.0400966,0.0175489 0.0414869,0.0139478 0.0425544,0.0102383 0.043291,0.00644907 0.0436909,0.0026097 0.0437509,-0.00124997 0.0150639,-0.00176728 z "/>
<path fill="rgb(42,41,42)" stroke="rgb(42,41,42)" d="M 5.48174,2.28367 l -0.113343,0 0,-0.171144 -0.734512,-0.0172164 0,-0.81164 1,0 0,0.836191 -0.152145,-0.00378941 8.88178e-16,0.167599 z "/>
<path fill="rgb(42,41,42)" stroke="rgb(42,41,42)" d="M 6.63388,2.14072 l 0,-0.403861 0.00254345,-0.00101331 0.0384453,-0.0193191 0.0366319,-0.0225692 0.0345444,-0.0256505 0.0321985,-0.0285399 0.0296116,-0.0312157 0.0268032,-0.0336579 0.0237942,-0.0358483 0.0206072,-0.0377705 0.017266,-0.03941 0.0137956,-0.0407547 0.0102219,-0.0417945 0.00657182,-0.0425215 0.386092,0.0814616 0,0.623415 -0.679127,0.0990496 z "/>
<path fill="rgb(42,41,42)" stroke="rgb(42,41,42)" d="M 4.05626,2.28367 l 0.157747,0 0.32198,0.317654 0.00666625,0.00639764 0.00721417,0.00577273 0.00770372,0.00510111 0.00813094,0.00438822 0.00849237,0.00363982 0.00878508,0.00286197 0.00900672,0.00206097 0.00915548,0.00124329 0.00923016,0.000415551 0.0235041,0 0,0.113343 -0.0235041,0 -0.0187763,-0.00100305 -0.0186215,-0.00260711 -0.0183299,-0.00419203 -0.0179036,-0.00574615 -0.0173458,-0.00725807 -0.0166606,-0.00871667 -0.0158531,-0.0101112 -0.0149291,-0.0114316 -0.0138954,-0.0126679 -0.401797,-0.399145 z "/>
<path fill="rgb(42,41,42)" stroke="rgb(42,41,42)" d="M 4.21401,2.28367 l -0.157747,0 -0.13305,-0.132172 -0.289333,-0.048489 0,-0.325314 0.0284067,-0.00333264 0.0428522,-0.00891019 0.0419005,-0.0126512 0.0406229,-0.0162937 0.0390293,-0.0198096 0.0371321,-0.0231713 0.0349461,-0.0263528 0.0324883,-0.0293294 0.0297778,-0.0320778 0.0268357,-0.0345767 0.0236848,-0.0368067 0.0203497,-0.0387504 0.0168564,-0.0403926 0.0132319,-0.0417207 0.0095045,-0.0427243 0.00570318,-0.0433956 0.0018575,-0.0437293 0.554821,0 0,0.81164 -0.62566,-0.0146649 0.20579,0.203025 z "/>
<path fill="rgb(42,41,42)" stroke="rgb(42,41,42)" d="M 9.51129,8.25089 l 0.2625,0 -1.77636e-15,5.48553 -0.00199778,0.0457568 -0.00597815,0.0454085 -0.00991301,0.0447147 -0.0137724,0.0436806 -0.017527,0.042314 -0.0211483,0.0406254 -0.0246085,0.0386276 -0.0278815,0.0363359 -0.0309423,0.0337676 -0.0337676,0.0309423 -0.0363359,0.0278815 -0.0386276,0.0246085 -0.0406254,0.0211483 -0.042314,0.017527 -0.0436806,0.0137724 -0.0447147,0.00991301 -0.0454085,0.00597815 -0.0457568,0.00199778 -8.47818,-1.06581e-14 -0.0457568,-0.00199778 -0.0454085,-0.00597815 -0.0447147,-0.00991301 -0.0436806,-0.0137724 -0.042314,-0.017527 -0.0406254,-0.0211483 -0.0386276,-0.0246085 -0.0363359,-0.0278815 -0.0337676,-0.0309423 -0.0309423,-0.0337676 -0.0278815,-0.0363359 -0.0246085,-0.0386276 -0.0211483,-0.0406254 -0.017527,-0.042314 -0.0137724,-0.0436806 -0.00991301,-0.0447147 -0.00597815,-0.0454085 -0.00199778,-0.0457568 0,-5.48553 0.2625,0 0,5.48553 0.000998892,0.0228784 0.00298907,0.0227043 0.00495651,0.0223574 0.00688622,0.0218403 0.00876352,0.021157 0.0105741,0.0203127 0.0123043,0.0193138 0.0139407,0.0181679 0.0154711,0.0168838 0.0168838,0.0154711 0.0181679,0.0139407 0.0193138,0.0123043 0.0203127,0.0105741 0.021157,0.00876352 0.0218403,0.00688622 0.0223574,0.00495651 0.0227043,0.00298907 0.0228784,0.000998892 8.47818,8.88178e-15 0.0228784,-0.000998892 0.0227043,-0.00298907 0.0223574,-0.00495651 0.0218403,-0.00688622 0.021157,-0.00876352 0.0203127,-0.0105741 0.0193138,-0.0123043 0.0181679,-0.0139407 0.0168838,-0.0154711 0.0154711,-0.0168838 0.0139407,-0.0181679 0.0123043,-0.0193138 0.0105741,-0.0203127 0.00876352,-0.021157 0.00688622,-0.0218403 0.00495651,-0.0223574 0.00298907,-0.0227043 0.000998892,-0.0228784 1.77636e-15,-5.48553 z "/>
<path fill="rgb(42,41,42)" stroke="rgb(42,41,42)" d="M 9.51129,8.25089 l -1.77636e-15,-7.49085 -0.000998892,-0.0228784 -0.00298907,-0.0227043 -0.00495651,-0.0223574 -0.00688622,-0.0218403 -0.00876352,-0.021157 -0.0105741,-0.0203127 -0.0123043,-0.0193138 -0.0139407,-0.0181679 -0.0154711,-0.0168838 -0.0168838,-0.0154711 -0.0181679,-0.0139407 -0.0193138,-0.0123043 -0.0203127,-0.0105741 -0.021157,-0.00876352 -0.0218403,-0.00688622 -0.0223574,-0.00495651 -0.0227043,-0.00298907 -0.0228784,-0.000998892 -8.47818,-8.88178e-15 -0.0228784,0.000998892 -0.0227043,0.00298907 -0.0223574,0.00495651 -0.0218403,0.00688622 -0.021157,0.00876352 -0.0203127,0.0105741 -0.0193138,0.0123043 -0.0181679,0.0139407 -0.0168838,0.0154711 -0.0154711,0.0168838 -0.0139407,0.0181679 -0.0123043,0.0193138 -0.0105741,0.0203127 -0.00876352,0.021157 -0.00688622,0.0218403 -0.00495651,0.0223574 -0.00298907,0.0227043 -0.000998892,0.0228784 0,7.49085 -0.2625,0 0,-7.49085 0.00199778,-0.0457568 0.00597815,-0.0454085 0.00991301,-0.0447147 0.0137724,-0.0436806 0.017527,-0.042314 0.0211483,-0.0406254 0.0246085,-0.0386276 0.0278815,-0.0363359 0.0309423,-0.0337676 0.0337676,-0.0309423 0.0363359,-0.0278815 0.0386276,-0.0246085 0.0406254,-0.0211483 0.042314,-0.017527 0.0436806,-0.0137724 0.0447147,-0.00991301 0.0454085,-0.00597815 0.0457568,-0.00199778 8.47818,7.10543e-15 0.0457568,0.00199778 0.0454085,0.00597815 0.0447147,0.00991301 0.0436806,0.0137724 0.042314,0.017527 0.0406254,0.0211483 0.0386276,0.0246085 0.0363359,0.0278815 0.0337676,0.0309423 0.0309423,0.0337676 0.0278815,0.0363359 0.0246085,0.0386276 0.0211483,0.0406254 0.017527,0.042314 0.0137724,0.0436806 0.00991301,0.0447147 0.00597815,0.0454085 0.00199778,0.0457568 0,7.49085 -0.2625,0 z "/>
</g></g></svg>
