<?xml version="1.0" encoding="UTF-8" standalone="no"?>
<!DOCTYPE svg PUBLIC "-//W3C//DTD SVG 1.1//EN" "http://www.w3.org/Graphics/SVG/1.1/DTD/svg11-flat.dtd"
[

]>
<svg xmlns="http://www.w3.org/2000/svg"  viewBox="-0.09375 -0.09375 7.6875 7.6875"><g fill="none" stroke="black" stroke-width="0.0125" transform="translate(0,7.5) scale(1, -1)">
<g id="Output" >
<path fill="rgb(0,91,140)" stroke="rgb(0,91,140)" d="M 4.32647,3.47743 l -0.158104,-0.157579 0.145753,0 0.0731796,0.157579 -0.0608283,0 z "/>
<path fill="rgb(0,91,140)" stroke="rgb(0,91,140)" d="M 4.2691,5.75083 l 0.638457,0 0.753266,0.750764 -0.243663,0.154106 -0.256011,0.132584 -0.266462,0.110081 -0.274941,0.0867626 -0.281382,0.0628015 -0.28574,0.0383752 -0.287982,0.0136646 -0.28809,-0.0111471 -0.286065,-0.0358763 -0.281921,-0.0603397 -0.275688,-0.0843563 -0.267414,-0.107748 -0.25716,-0.130342 -0.245,-0.15197 -0.231026,-0.172473 -0.215341,-0.191698 -0.198061,-0.209504 -0.185597,-0.234435 -0.163953,-0.250051 -0.141004,-0.263674 -0.116931,-0.275196 -0.0919268,-0.284527 -0.0661902,-0.29159 -0.0399262,-0.296331 -0.0133442,-0.29871 0.0124489,-0.288536 0.0372542,-0.286391 0.0617827,-0.282118 0.0858519,-0.275748 0.109283,-0.267329 0.131902,-0.256923 0.153541,-0.244608 2.67338,2.6645 -0.015349,0 -0.015103,0.000638669 -0.0149951,0.00191145 -0.0147802,0.00317057 -0.0144598,0.00440707 -0.0140361,0.00561209 -0.0135122,0.00677704 -0.0128918,0.0078936 -0.0121794,0.0089538 -0.01138,0.00995007 -0.0104993,0.0108753 -0.00954368,0.0117229 -0.00851991,0.0124867 -0.000226465,0.000365021 -0.000225588,0.000365564 -0.000224709,0.000366104 -0.567679,0.927387 -0.140681,-0.326377 0.0489673,-0.0350229 0.0457494,-0.0391329 0.0421877,-0.0429487 0.0383088,-0.0464416 0.034142,-0.0495855 0.0297184,-0.0523565 0.0250715,-0.054734 0.0202361,-0.0567 0.0152485,-0.0582398 0.0101464,-0.0593418 0.00496793,-0.0599976 -0.000247864,-0.0602024 -0.00546179,-0.0599547 -0.0106347,-0.0592562 -0.0157276,-0.0581123 -0.0207023,-0.0565315 -0.0255213,-0.0545257 -0.0301485,-0.0521101 -0.0345491,-0.0493027 -0.0386899,-0.0461246 -0.0425399,-0.0425999 -0.0460701,-0.0387548 -0.049254,-0.0346185 -0.0520676,-0.0302219 -0.0544897,-0.0255981 -0.0565023,-0.0207818 -0.0580901,-0.0158094 -0.0592412,-0.0107181 -0.0599469,-0.00554619 -0.060202,-0.000332612 -0.0600045,0.00488346 -0.059356,0.0100628 -0.0582612,0.0151665 -0.0567285,0.0201562 -0.0547693,0.0249944 -1.46549e-14,7.99361e-15 -0.0522033,0.0274435 -0.0496034,0.0319035 -0.0466234,0.0361191 -0.0432862,0.0400579 -0.0396173,0.0436898 -0.0356449,0.046987 -0.0313994,0.0499241 -0.0269132,0.0524787 -0.0222209,0.0546312 -0.0173583,0.0563651 -0.0123627,0.0576671 -0.00727238,0.0585273 -0.00212633,0.0589391 0.00303601,0.0588992 0.00817508,0.0584081 0.0132515,0.0574694 0.0182264,0.0560904 0.0230617,0.0542816 0.0277202,0.0520569 0.0321664,0.0494334 0.0363661,0.0464311 0.0402871,0.043073 0.0438995,0.0393849 0.0471755,0.035395 0.05009,0.0311339 0.0526208,0.0266343 0.0547484,0.0219306 -0.0731338,0.157579 0.072551,0.026279 0.0745225,0.0200159 0.0759544,0.0136078 0.0768363,0.00710112 0.0771618,0.000543066 0,-0.168844 0.129415,-0.0224851 0.393901,0.883467 0.00911592,0.018224 0.0106967,0.0173434 0.0121931,0.0163261 0.0135934,0.0151801 0.0148865,0.0139143 0.0160622,0.0125388 0.0171112,0.0110644 0.0180253,0.00950279 0.0187973,0.00786623 0.019421,0.00616764 0.0198916,0.00442042 0.0202053,0.00263833 0.0203597,0.000835446 0.0203535,-0.00097403 0.275752,0 0,-0.213837 -0.21947,0 -0.012588,-0.000554522 -0.0124905,-0.00165927 -0.0122962,-0.00275116 -0.0120066,-0.00382174 -0.0116241,-0.00486271 -0.0111514,-0.00586601 -0.0105924,-0.00682386 -0.00995136,-0.00772885 -0.00923319,-0.00857396 -0.00844349,-0.00935265 -0.00758838,-0.0100589 -0.00667448,-0.0106872 -0.00570887,-0.0112327 -0.00469904,-0.0116912 -0.101297,-0.236345 0.399534,0 0.00829823,-0.000377401 0.00822972,-0.00112909 0.00809325,-0.00187145 0.00788997,-0.00259837 0.00762154,-0.00330382 0.00729018,-0.00398201 0.00689863,-0.00462731 0.00645012,-0.00523441 0.00594836,-0.00579829 0.00539748,-0.00631429 0.00480204,-0.00677816 6.21725e-15,-5.32907e-15 0.181911,-0.295605 0.00414528,-0.00746 0.00346628,-0.00779871 0.00275987,-0.00807577 0.00203165,-0.00828899 0.00128736,-0.00843668 0.000532897,-0.00851768 -0.000225778,-0.00853135 -0.000982669,-0.00847758 -0.00173179,-0.00835678 -0.00246722,-0.00816993 -0.00318315,-0.00791849 -8.805e-05,-0.000193111 -8.84768e-05,-0.000192915 -8.89031e-05,-0.000192719 -0.174166,-0.376447 0.101297,-0.157579 0.0077216,-0.0108905 0.00867791,-0.010145 0.00956264,-0.00931574 0.0103685,-0.00840963 0.0110888,-0.00743414 0.0117176,-0.00639733 0.0122497,-0.00530773 0.0126808,-0.00417434 0.0130072,-0.00300652 0.0132264,-0.00181389 0.0133364,-0.000606298 4.02286e-08,5.32907e-15 4.83659e-05,7.97101e-09 4.83659e-05,2.38865e-08 4.83659e-05,3.98021e-08 0.122973,0 0.60819,0.60617 -0.00911325,-0.00592579 -0.00904178,-0.00603429 -0.00896901,-0.00614192 -0.0032906,-0.00259398 -0.00342639,-0.00241177 -0.0035521,-0.00222247 -0.00590679,-0.00314044 -0.00615631,-0.00261769 -0.00635968,-0.00207531 -0.00651537,-0.00151738 -0.00662221,-0.000948069 -0.0066794,-0.00037165 -0.00668651,0.000207554 -0.00664349,0.000785203 -0.00655066,0.00135696 -0.00640871,0.00191855 -0.00621872,0.00246576 -0.00598211,0.00299447 -0.00570064,0.00350074 -0.00537643,0.00398076 -0.00501192,0.00443093 -0.00460982,0.00484789 -0.00417317,0.00522849 -0.00370522,0.0055699 -0.0032095,0.00586954 -0.138476,0.295766 -0.00176725,0.00335667 -0.00160851,0.00343556 -0.00144625,0.00350695 -0.0022747,0.00677954 -0.00166925,0.00695342 -0.00105085,0.00707334 -0.000424301,0.00713837 0.000205545,0.00714802 0.000833795,0.0071022 0.00145558,0.00700127 0.00206606,0.00684601 0.00266051,0.00663763 0.00323432,0.00637774 0.00378304,0.00606837 0.00430239,0.0057119 0.00478837,0.00531112 0.00523718,0.00486912 0.00564536,0.00438934 0.00600973,0.0038755 0.00632747,0.00333159 0.00659611,0.00276183 0.00681357,0.00217063 0.00697816,0.0015626 0.0070886,0.000942435 0.00714403,0.000314959 z "/>
<path fill="rgb(0,91,140)" stroke="rgb(0,91,140)" d="M 4.43231,3.2017 l 0.208182,-0.405144 0.0634356,0.0205596 0.0649966,0.0149068 0.0660549,0.00913879 0.0666024,0.00330008 0.0666348,-0.00256416 0.0661518,-0.00840857 0.0651573,-0.0141879 0.0636588,-0.0198576 0.061668,-0.0253737 0.0592003,-0.0306935 0.0562747,-0.035776 0.052914,-0.0405818 0.049144,-0.0450737 0.0449939,-0.049217 4.79616e-14,-5.77316e-14 0.0404716,-0.052998 0.0356075,-0.0563813 0.0304623,-0.0593194 0.0250766,-0.0617892 0.019493,-0.0637712 0.0137554,-0.0652497 0.00790931,-0.0662132 0.00200073,-0.0666539 -0.00392365,-0.0665684 -0.00981704,-0.0659573 -0.0156329,-0.0648256 -0.0213254,-0.063182 -0.0268495,-0.0610397 -0.0321617,-0.0584155 -0.0372199,-0.0553301 -0.0419844,-0.0518079 -0.0464173,-0.0478767 -0.0504838,-0.0435675 -0.0541518,-0.0389143 -0.0573922,-0.033954 -5.15143e-14,-2.84217e-14 -0.060751,-0.0290119 -0.0630778,-0.0235278 -0.0649108,-0.0178594 -0.0662355,-0.0120512 -0.0670415,-0.00614862 -0.0673226,-0.000197906 -0.0670765,0.00575436 -0.0663052,0.0116616 -0.0650147,0.0174775 -0.0632151,0.0231565 -0.0609205,0.0286542 -0.0581489,0.0339275 -0.0549219,0.0389352 -0.0512649,0.043638 -0.0472065,0.0479991 -0.0427784,0.0519844 -0.0380154,0.0555626 -0.0329547,0.0587057 -0.0276359,0.0613891 -0.0221007,0.0635919 -0.0163925,0.0652967 -0.010556,0.0664901 -0.360174,0 -0.441703,0.488942 -0.150143,-0.149644 0.019595,-0.0610707 0.0143567,-0.0625098 0.00901542,-0.0635005 0.00360945,-0.0640357 -0.00182242,-0.0641114 -0.00724121,-0.0637272 -0.0126081,-0.0628859 -0.0178844,-0.0615934 -0.0230325,-0.059859 -0.0280154,-0.0576952 -0.0347014,-0.0579873 -0.0397576,-0.0546448 -0.044494,-0.0508626 -0.0488724,-0.0466713 -0.0528576,-0.0421045 -0.0564176,-0.037199 -0.0595238,-0.0319943 -0.0621511,-0.0265321 -0.0642785,-0.0208566 -0.0658887,-0.0150132 -0.0669689,-0.00904908 -0.0675103,-0.00301215 -0.0675087,0.00304901 -0.0669639,0.00908564 -0.0658805,0.0150492 -0.0642671,0.0208917 -0.387681,-0.386393 0.245477,-0.155146 0.257991,-0.133304 0.268566,-0.11046 0.277124,-0.0867861 0.283598,-0.0624601 0.287942,-0.0376648 0.290122,-0.0125865 0.291972,0.0127478 0.28975,0.0381463 0.285322,0.0632545 0.278724,0.0878812 0.270004,0.111839 0.259229,0.134946 0.246481,0.157026 0.231857,0.17791 0.215469,0.197441 0.197441,0.215469 0.17791,0.231857 0.157026,0.246481 0.134946,0.259229 0.111839,0.270004 0.0878812,0.278724 0.0632545,0.285322 0.0381463,0.28975 0.0127478,0.291972 -0.0114859,0.277171 -0.034379,0.27527 -0.0570363,0.271482 -0.0793025,0.265832 -0.111831,0.282679 -0.136996,0.271378 -0.161033,0.257841 -0.875594,-0.872685 0.0117428,-0.0561705 0.00704198,-0.0569511 0.00229259,-0.057339 -0.00269302,-0.0599456 -0.00787062,-0.0594877 -0.0129892,-0.0585834 -0.0180102,-0.0572395 -0.0228962,-0.0554662 -0.0276103,-0.0532766 -0.0321173,-0.0506874 -0.0363833,-0.0477178 -0.0403763,-0.0443901 -0.0440664,-0.0407294 -0.0474258,-0.0367631 -0.0504294,-0.0325209 -0.0530545,-0.0280348 -0.0552816,-0.0233383 -0.0570939,-0.0184666 -0.0584778,-0.0134564 -0.059423,-0.00834527 -0.0599222,-0.00317149 -0.0599719,0.00202609 -0.0595716,0.00720846 -0.0587242,0.0123367 -0.304461,-0.30345 0.257219,0 0,-0.157579 -0.185697,0 -0.123783,-0.275729 z "/>
<path fill="rgb(0,91,140)" stroke="rgb(0,91,140)" d="M 2.5156,5.0839 l -0.209493,-0.454937 -0.00343558,-0.00840793 -0.00268971,-0.00867536 -0.00192337,-0.00887678 -0.00114238,-0.00901063 -0.000352709,-0.00907591 0.00043965,-0.00907211 0.00122866,-0.00899927 0.00200833,-0.00885794 0.0027727,-0.0086492 0.00351598,-0.00837463 0.0042325,-0.00803632 0.0049168,-0.00763685 0.00556369,-0.00717926 0.00616823,-0.00666704 0.00672583,-0.00610407 0.00723224,-0.00549465 0.00768361,-0.00484341 0.0080765,-0.00415531 0.00840793,-0.00343558 0.00867536,-0.00268971 0.00887678,-0.00192337 0.00901063,-0.00114238 0.00907591,-0.000352709 0.00907211,0.00043965 0.00899927,0.00122866 0.00885794,0.00200833 0.0086492,0.0027727 0.00837463,0.00351598 0.00803632,0.0042325 0.00763685,0.0049168 0.00717926,0.00556369 0.00666704,0.00616823 0.00610407,0.00672583 0.00549465,0.00723224 0.00484341,0.00768361 0.00415531,0.0080765 0.209493,0.454937 0.031287,-0.0270995 0.0288339,-0.0296962 0.0261661,-0.0320716 0.0233035,-0.0342083 0.0202672,-0.0360901 0.01708,-0.0377032 0.0137656,-0.0390354 0.0103487,-0.0400769 0.00685471,-0.04082 0.00330966,-0.041259 -0.000260041,-0.0413907 -0.00382781,-0.0412141 -0.00736706,-0.0407306 -0.0108515,-0.0399438 -0.014255,-0.0388594 -0.0175524,-0.0374856 -0.0207191,-0.0358326 -0.0237314,-0.0339128 -0.026567,-0.0317403 -0.0292048,-0.0293315 -0.031625,-0.0267042 -0.0338097,-0.0238781 -0.0357426,-0.020874 -0.0374093,-0.0177146 -0.0387973,-0.0144231 -0.0398964,-0.0110243 -0.0406983,-0.00754335 -0.0411972,-0.00400622 -0.0413892,-0.000439255 -0.0412729,0.00313098 -0.0408493,0.0066779 -0.0401214,0.0101751 -0.0390947,0.0135965 -0.0383712,0.0172237 -0.0367069,0.0205332 -0.0347578,0.0236834 -0.0325391,0.0266499 -0.030068,0.0294096 -0.0273636,0.0319412 -0.024447,0.034225 -0.0213407,0.0362434 -0.0180689,0.0379806 -0.0146569,0.0394231 -0.0111312,0.0405599 -0.0075192,0.041382 -0.00384884,0.0418831 -0.000148631,0.0420593 0.00355273,0.0419093 0.00722654,0.0414341 0.0108443,0.0406375 0.0143779,0.0395257 0.0178,0.0381073 0.021084,0.0363933 0.0242045,0.034397 0.0271372,0.0321338 0.0298594,0.0296214 0.0323499,0.0268792 0.0345896,0.0239285 0.0365609,0.0207921 0.0382485,0.0174945 0.0396395,0.0140612 0.040723,0.0105188 0.0414906,0.00689475 0.0419364,0.00321726 0.0420568,-0.000485184 0.041851,-0.00418387 0.0413205,-0.0078501 z "/>
<path fill="rgb(0,91,140)" stroke="rgb(0,91,140)" d="M 5.4393,4.58657 l -0.00365723,-0.0415699 -0.00727242,-0.0410919 -0.0108321,-0.0403001 -0.014309,-0.0392005 -0.0176767,-0.0378017 -0.0209094,-0.0361141 -0.0239824,-0.0341508 -0.0268723,-0.0319267 -0.0295569,-0.0294587 -0.0320159,-0.0267659 -0.0342304,-0.0238686 -0.0361835,-0.0207891 -0.0378603,-0.0175508 -0.0392479,-0.0141785 -0.0403359,-0.0106979 -0.0411158,-0.00713563 -0.0415818,-0.00351887 0.45764,0.45612 z "/>
<path fill="rgb(0,91,140)" stroke="rgb(0,91,140)" d="M 2.35523,1.51274 l 0.716749,0.714367 0.00946717,-0.0499812 0.00515594,-0.0506079 0.000806894,-0.0508635 -0.00354807,-0.050746 -0.00787701,-0.0502563 -0.0121482,-0.049398 -0.0163302,-0.0481775 -0.0203925,-0.0466035 -0.0243053,-0.0446878 -0.0280397,-0.0424443 -0.0315685,-0.0398895 -0.0348658,-0.0370421 -0.0379074,-0.0339231 -0.0397811,-0.0299569 -0.0421388,-0.0265383 -0.0442034,-0.0229351 -0.0459606,-0.0191725 -0.0473982,-0.0152765 -0.0485062,-0.0112743 -0.0492769,-0.00719366 -0.0497049,-0.00306302 -0.0497873,0.00108892 -0.0495234,0.00523329 -0.0489152,0.00934127 z "/>
<path fill="rgb(0,91,140)" stroke="rgb(0,91,140)" d="M 3.46086,2.6147 l 0.555097,0.553253 0.225026,0 -0.427675,-0.945381 -0.352448,0.392128 z "/>
<path fill="rgb(0,91,140)" stroke="rgb(0,91,140)" d="M 4.34791,3.02164 l 0.1519,-0.292627 -0.0513269,-0.0345968 -0.048257,-0.0387641 -0.0448497,-0.0426603 -0.0411287,-0.0462582 -0.0371202,-0.0495327 -0.0328521,-0.0524608 -0.0283543,-0.0550221 -0.0236583,-0.0571986 -0.0187968,-0.0589752 -0.0138039,-0.0603394 -0.00871444,-0.0612818 -0.191329,0 0.388291,0.849717 z "/>
<path fill="rgb(0,91,140)" stroke="rgb(0,91,140)" d="M 4.57299,2.5827 l 0.213814,-0.410777 -0.472691,0 0.00892466,0.0492343 0.0130779,0.0482974 0.0171364,0.0470107 0.0210708,0.0453838 0.0248527,0.0434282 0.0284547,0.0411582 0.0318506,0.0385902 0.0350159,0.0357428 0.0379277,0.0326367 0.0405649,0.0292942 z "/>
<path fill="rgb(0,91,140)" stroke="rgb(0,91,140)" d="M 4.31411,2.01434 l 0.602106,0 0.00656434,0.00028198 0.00651598,0.000843861 0.00641961,0.00139953 0.00627595,0.00194488 0.00608605,0.0024759 0.00585131,0.00298869 0.00557346,0.00347945 0.00525455,0.00394459 0.00489693,0.00438066 0.00450323,0.00478445 0.00407636,0.005153 0.00361945,0.00548358 0.00313588,0.00577376 0.0026292,0.00602141 0.00210315,0.0062247 0.00156161,0.00638212 0.00100856,0.00649252 0.000448086,0.0065551 -0.000115692,0.00656938 -0.000678618,0.00653525 -0.00123654,0.00645299 -0.00178536,0.00632318 -0.00232102,0.00614678 -0.00283959,0.0059251 -4.44089e-15,9.32587e-15 -5.32907e-15,1.02141e-14 -0.270096,0.528972 0.0488218,0.0144404 0.0498779,0.0102125 0.0505685,0.00590969 0.0508886,0.0015636 0.0508359,-0.00279394 0.0504108,-0.00713101 0.0496163,-0.0114158 0.0484583,-0.015617 0.0469453,-0.0197038 0.0450883,-0.0236462 0.042901,-0.0274154 0.0403994,-0.0309837 0.0376018,-0.034325 0.0345287,-0.0374148 0.0312026,-0.0402305 0.0276479,-0.0427515 0.0238907,-0.0449592 0.0199584,-0.0468376 0.0158799,-0.0483728 0.0116851,-0.0495536 0.00740464,-0.0503713 0.00306994,-0.05082 -0.00128725,-0.0508964 -0.00563501,-0.0505999 -0.0104323,-0.0519642 -0.0150005,-0.050834 -0.0194504,-0.0493031 -0.023747,-0.0473835 -0.0278563,-0.0450903 -0.0317461,-0.0424417 -0.0353855,-0.0394585 -0.0387461,-0.0361643 -0.0418011,-0.0325849 -0.0445267,-0.0287487 -0.0469012,-0.0246858 -0.048906,-0.0204283 -0.0505252,-0.0160098 -0.0517462,-0.011465 -0.0525591,-0.0068299 -0.0529578,-0.00214093 -0.0529389,0.00256491 -0.0529461,0.00733858 -0.0520745,0.0120578 -0.0507832,0.0166798 -0.0490824,0.0211674 -0.0469861,0.0254844 -0.044511,0.0295959 -0.0416771,0.0334688 -0.0385073,0.037072 -0.035027,0.0403764 -0.0312645,0.0433553 -0.0272499,0.0459847 -0.0230156,0.0482434 -0.0185958,0.0501133 -0.0140262,0.0515792 -0.00934345,0.0526293 z "/>
<path fill="rgb(0,91,140)" stroke="rgb(0,91,140)" d="M 1.06776,6.07553 l -0.151112,0.131016 -0.207757,-0.262428 -0.18353,-0.279907 -0.15784,-0.295157 -0.130893,-0.308056 -0.102903,-0.3185 -0.0740935,-0.326407 -0.0446935,-0.331713 -0.0149375,-0.334377 0.0142699,-0.326834 0.042701,-0.324347 0.0708072,-0.319391 0.0983745,-0.312004 0.125193,-0.302243 0.151059,-0.290182 0.175775,-0.275912 0.199154,-0.259542 0.221016,-0.241197 0.241197,-0.221016 0.259542,-0.199154 0.275912,-0.175775 0.290182,-0.151059 0.302243,-0.125193 0.312004,-0.0983745 0.319391,-0.0708072 0.324347,-0.042701 0.326834,-0.0142699 0,0.2 -0.309403,0.0135088 -0.307048,0.0404237 -0.302357,0.0670308 -0.295364,0.0931279 -0.286123,0.118516 -0.274705,0.143002 -0.261196,0.1664 -0.2457,0.188532 -0.228333,0.209229 -0.209229,0.228333 -0.188532,0.2457 -0.1664,0.261196 -0.143002,0.274705 -0.118516,0.286123 -0.0931279,0.295364 -0.0670308,0.302357 -0.0404237,0.307048 -0.0135088,0.309403 0.0141408,0.316544 0.0423099,0.314022 0.0701418,0.308999 0.097415,0.301513 0.123912,0.291626 0.149422,0.279416 0.173742,0.264979 0.196677,0.248431 z "/>
<path fill="rgb(0,91,140)" stroke="rgb(0,91,140)" d="M 7.5,3.75 l -0.0128574,0.310266 -0.0384839,0.308138 -0.0638466,0.303898 -0.0887715,0.297573 -0.189122,-0.06506 0.084037,-0.281703 0.0604415,-0.28769 0.0364315,-0.291704 0.0121716,-0.293718 -0.0135088,-0.309403 -0.0404237,-0.307048 -0.0670308,-0.302357 -0.0931279,-0.295364 -0.118516,-0.286123 -0.143002,-0.274705 -0.1664,-0.261196 -0.188532,-0.2457 -0.209229,-0.228333 -0.228333,-0.209229 -0.2457,-0.188532 -0.261196,-0.1664 -0.274705,-0.143002 -0.286123,-0.118516 -0.295364,-0.0931279 -0.302357,-0.0670308 -0.307048,-0.0404237 -0.309403,-0.0135088 0,-0.2 0.326834,0.0142699 0.324347,0.042701 0.319391,0.0708072 0.312004,0.0983745 0.302243,0.125193 0.290182,0.151059 0.275912,0.175775 0.259542,0.199154 0.241197,0.221016 0.221016,0.241197 0.199154,0.259542 0.175775,0.275912 0.151059,0.290182 0.125193,0.302243 0.0983745,0.312004 0.0708072,0.319391 0.042701,0.324347 0.0142699,0.326834 z "/>
<path fill="rgb(0,91,140)" stroke="rgb(0,91,140)" d="M 1.06776,6.07553 l 0.213058,0.225086 0.231878,0.205645 0.248931,0.184636 0.264087,0.162221 0.27723,0.138568 0.288259,0.11386 0.297092,0.0882837 0.30366,0.0620345 0.307913,0.0353125 0.30982,0.00832127 0.309365,-0.0187333 0.306552,-0.0456452 0.301402,-0.0722091 0.293955,-0.0982226 0.284268,-0.123487 0.272414,-0.147811 0.258483,-0.171008 0.242583,-0.192902 0.224833,-0.213325 0.20537,-0.232122 0.184341,-0.24915 0.161907,-0.264279 0.138239,-0.277394 0.113518,-0.288394 0.189122,0.06506 -0.119913,0.304642 -0.146028,0.293022 -0.171029,0.279168 -0.194726,0.263187 -0.21694,0.245199 -0.2375,0.225343 -0.256249,0.203769 -0.273046,0.180642 -0.287761,0.156138 -0.300283,0.130445 -0.310516,0.103756 -0.318383,0.0762772 -0.323822,0.0482167 -0.326794,0.0197887 -0.327274,-0.00879008 -0.32526,-0.0373019 -0.320767,-0.0655294 -0.313829,-0.0932574 -0.304499,-0.120275 -0.292848,-0.146375 -0.278965,-0.17136 -0.262956,-0.195039 -0.244942,-0.217231 -0.225061,-0.237767 0.151112,-0.131016 z "/>
<path fill="rgb(241,240,234)" stroke="rgb(241,240,234)" d="M 4.34907,1.8789 l -0.0115884,0.031229 -0.0140262,0.0515792 -0.00934345,0.0526293 0.034958,0 0,0.157579 -0.034958,0 0.00892466,0.0492343 0.0130779,0.0482974 0.0129555,0.0355411 0,0.0344746 -0.160968,0 -0.0146378,-0.0459262 -0.0138039,-0.0603394 -0.00871444,-0.0612818 -0.191329,0 0.0765634,0.167547 -0.169994,0 -0.052883,-0.116899 -0.105069,0.116899 -0.211175,0 0.293714,-0.325126 0.360174,0 0.010556,-0.0664901 0.0163925,-0.0652967 0.0221007,-0.0635919 0.0276359,-0.0613891 0.0329547,-0.0587057 0.0380154,-0.0555626 0.0427784,-0.0519844 0.00769014,-0.00781927 0,0.295402 z "/>
<path fill="rgb(241,240,234)" stroke="rgb(241,240,234)" d="M 2.22686,1.3848 l 0.0642671,-0.0208917 0.0658805,-0.0150492 0.0669639,-0.00908564 0.0675087,-0.00304901 0.0675103,0.00301215 0.0669689,0.00904908 0.0658887,0.0150132 0.0642785,0.0208566 0.0621511,0.0265321 0.0595238,0.0319943 0.0564176,0.037199 0.0528576,0.0421045 0.0488724,0.0466713 0.044494,0.0508626 0.0397576,0.0546448 0.0347014,0.0579873 0.0280154,0.0576952 0.0230325,0.059859 0.0178844,0.0615934 0.0126081,0.0628859 0.00724121,0.0637272 0.00182242,0.0641114 -0.00360945,0.0640357 -0.00901542,0.0635005 -0.0143567,0.0625098 -0.019595,0.0610707 -0.126952,-0.126531 0.00946717,-0.0499812 0.00515594,-0.0506079 0.000806894,-0.0508635 -0.00354807,-0.050746 -0.00787701,-0.0502563 -0.0121482,-0.049398 -0.0163302,-0.0481775 -0.0203925,-0.0466035 -0.0243053,-0.0446878 -0.0280397,-0.0424443 -0.0315685,-0.0398895 -0.0348658,-0.0370421 -0.0379074,-0.0339231 -0.0397811,-0.0299569 -0.0421388,-0.0265383 -0.0442034,-0.0229351 -0.0459606,-0.0191725 -0.0473982,-0.0152765 -0.0485062,-0.0112743 -0.0492769,-0.00719366 -0.0497049,-0.00306302 -0.0497873,0.00108892 -0.0495234,0.00523329 -0.0489152,0.00934127 -0.128368,-0.127942 z "/>
<path fill="rgb(241,240,234)" stroke="rgb(241,240,234)" d="M 3.49706,2.33947 l 0.211175,0 -0.247379,0.27523 -0.111785,-0.111414 0.147989,-0.163816 z M 4.34907,2.6059 l -0.0348237,-0.0391668 -0.0371202,-0.0495327 -0.0328521,-0.0524608 -0.0283543,-0.0550221 -0.0236583,-0.0571986 -0.00415904,-0.013049 0.160968,0 0,0.26643 z M 3.86619,2.33947 l 0.169994,0 0.311728,0.682169 0.00116165,-0.00223785 0,0.320068 -0.0258479,0 -0.00911009,-0.0196169 -0.145753,0 -0.152407,-0.1519 0.225026,0 -0.374792,-0.828483 z "/>
<path fill="rgb(241,240,234)" stroke="rgb(241,240,234)" d="M 4.49416,3.33947 l 0.0619351,0.137962 0.185697,0 0,0.157579 -0.257219,0 -0.135497,-0.135047 0,-0.0225316 0.0382216,0 -0.0382216,-0.0823032 0,-0.0556587 0.145085,0 z "/>
<path fill="rgb(241,240,234)" stroke="rgb(241,240,234)" d="M 4.49416,3.33947 l -0.145085,0 0,-0.320068 0.150739,-0.290389 -0.0513269,-0.0345968 -0.048257,-0.0387641 -0.0448497,-0.0426603 -0.00630505,-0.0070914 0,-0.26643 0.0148617,0 0.0103901,0.0223788 0.0248527,0.0434282 0.0284547,0.0411582 0.0318506,0.0385902 0.0350159,0.0357428 0.0379277,0.0326367 0.0405649,0.0292942 0.126604,-0.243229 0.175637,0 -0.16156,0.316409 0.0488218,0.0144404 0.0498779,0.0102125 0.0505685,0.00590969 0.0508886,0.0015636 0.0508359,-0.00279394 0.0504108,-0.00713101 0.0496163,-0.0114158 0.0484583,-0.015617 0.0469453,-0.0197038 0.0450883,-0.0236462 0.042901,-0.0274154 0.0403994,-0.0309837 0.0376018,-0.034325 0.0229871,-0.0249085 0,0.210831 -0.00874562,0.00670736 -0.0562747,0.035776 -0.0592003,0.0306935 -0.061668,0.0253737 -0.0636588,0.0198576 -0.0651573,0.0141879 -0.0661518,0.00840857 -0.0666348,0.00256416 -0.0666024,-0.00330008 -0.0660549,-0.00913879 -0.0649966,-0.0149068 -0.0634356,-0.0205596 -0.208182,0.405144 0.0618474,0.137767 z "/>
<path fill="rgb(241,240,234)" stroke="rgb(241,240,234)" d="M 4.34907,3.39513 l -0.0258479,-0.0556587 0.0258479,0 0,0.0556587 z M 4.34907,3.47743 l 0,0.0225316 -0.0226067,-0.0225316 0.0226067,0 z "/>
<path fill="rgb(241,240,234)" stroke="rgb(241,240,234)" d="M 5.44768,2.33947 l 0.172165,0 -0.000847606,0.00277294 -0.0250766,0.0617892 -0.0304623,0.0593194 -0.0356075,0.0563813 -0.0404716,0.052998 -4.79616e-14,5.77316e-14 -0.0449939,0.049217 -0.049144,0.0450737 -0.0441683,0.0338744 0,-0.210831 0.0115416,-0.0125063 0.0312026,-0.0402305 0.0276479,-0.0427515 0.0238907,-0.0449592 0.00432384,-0.010147 z "/>
<path fill="rgb(241,240,234)" stroke="rgb(241,240,234)" d="M 5.44768,2.33947 l 0.0156346,-0.0366906 0.0158799,-0.0483728 0.0116851,-0.0495536 0.00740464,-0.0503713 0.00306994,-0.05082 -0.00128725,-0.0508964 -0.00563501,-0.0505999 -0.0104323,-0.0519642 -0.0150005,-0.050834 -0.0194504,-0.0493031 -0.023747,-0.0473835 -0.0278563,-0.0450903 -0.0317461,-0.0424417 -0.0171261,-0.0190973 0,-0.213861 0.027267,0.0195945 0.0504838,0.0435675 0.0464173,0.0478767 0.0419844,0.0518079 0.0372199,0.0553301 0.0321617,0.0584155 0.0268495,0.0610397 0.0213254,0.063182 0.0156329,0.0648256 0.00981704,0.0659573 0.00392365,0.0665684 -0.00200073,0.0666539 -0.00790931,0.0662132 -0.0137554,0.0652497 -0.0186454,0.0609983 -0.172165,0 z "/>
<path fill="rgb(241,240,234)" stroke="rgb(241,240,234)" d="M 4.36393,2.33947 l -0.0148617,0 0,-0.0344746 0.00418091,0.0114696 0.0106808,0.023005 z M 4.87523,2.33947 l -0.175637,0 0.0872106,-0.167547 -0.437733,0 0,-0.157579 0.567148,0 0.00656434,0.00028198 0.00651598,0.000843861 0.00641961,0.00139953 0.00627595,0.00194488 0.00608605,0.0024759 0.00585131,0.00298869 0.00557346,0.00347945 0.00525455,0.00394459 0.00489693,0.00438066 0.00450323,0.00478445 0.00407636,0.005153 0.00361945,0.00548358 0.00313588,0.00577376 0.0026292,0.00602141 0.00210315,0.0062247 0.00156161,0.00638212 0.00100856,0.00649252 0.000448086,0.0065551 -0.000115692,0.00656938 -0.000678618,0.00653525 -0.00123654,0.00645299 -0.00178536,0.00632318 -0.00232102,0.00614678 -0.00283959,0.0059251 -4.44089e-15,9.32587e-15 -5.32907e-15,1.02141e-14 -0.108536,0.212563 z M 5.34907,1.69605 l -0.0182595,-0.0203612 -0.0387461,-0.0361643 -0.0418011,-0.0325849 -0.0445267,-0.0287487 -0.0469012,-0.0246858 -0.048906,-0.0204283 -0.0505252,-0.0160098 -0.0517462,-0.011465 -0.0525591,-0.0068299 -0.0529578,-0.00214093 -0.0529389,0.00256491 -0.0529461,0.00733858 -0.0520745,0.0120578 -0.0507832,0.0166798 -0.0490824,0.0211674 -0.0469861,0.0254844 -0.044511,0.0295959 -0.0416771,0.0334688 -0.0385073,0.037072 -0.035027,0.0403764 -0.0312645,0.0433553 -0.0272499,0.0459847 -0.0230156,0.0482434 -0.0070075,0.0188842 0,-0.295402 0.0395163,-0.0401799 0.0512649,-0.043638 0.0549219,-0.0389352 0.0581489,-0.0339275 0.0609205,-0.0286542 0.0632151,-0.0231565 0.0650147,-0.0174775 0.0663052,-0.0116616 0.0670765,-0.00575436 0.0673226,0.000197906 0.0670415,0.00614862 0.0662355,0.0120512 0.0649108,0.0178594 0.0630778,0.0235278 0.060751,0.0290119 5.15143e-14,2.84217e-14 0.0573922,0.033954 0.0268848,0.0193198 0,0.213861 z "/>
<path fill="rgb(241,240,234)" stroke="rgb(241,240,234)" d="M 3.03309,4.92325 l -0.254566,0 0.0124962,-0.0153166 0.0233035,-0.0342083 0.0202672,-0.0360901 0.01708,-0.0377032 0.0137656,-0.0390354 0.0103487,-0.0400769 0.00685471,-0.04082 0.00330966,-0.041259 -0.000260041,-0.0413907 -0.00382781,-0.0412141 -0.00736706,-0.0407306 -0.0108515,-0.0399438 -0.014255,-0.0388594 -0.0175524,-0.0374856 -0.0207191,-0.0358326 -0.0237314,-0.0339128 -0.026567,-0.0317403 -0.0292048,-0.0293315 -0.0235725,-0.0199047 0,-0.25725 0.0242436,0.0113891 0.0520676,0.0302219 0.049254,0.0346185 0.0460701,0.0387548 0.0425399,0.0425999 0.0386899,0.0461246 0.0345491,0.0493027 0.0301485,0.0521101 0.0255213,0.0545257 0.0207023,0.0565315 0.0157276,0.0581123 0.0106347,0.0592562 0.00546179,0.0599547 0.000247864,0.0602024 -0.00496793,0.0599976 -0.0101464,0.0593418 -0.0152485,0.0582398 -0.0202361,0.0567 -0.0202107,0.0441224 z M 3.70804,4.72769 l -0.0090478,0.00297842 -0.0122497,0.00530773 -0.0117176,0.00639733 -0.0110888,0.00743414 -0.0103685,0.00840963 -0.00956264,0.00931574 -0.00867791,0.010145 -0.0077216,0.0108905 -0.0865752,0.134677 -0.242399,0 0.199559,-0.326006 0.00851991,-0.0124867 0.00954368,-0.0117229 0.0104993,-0.0108753 0.01138,-0.00995007 0.0121794,-0.0089538 0.0128918,-0.0078936 0.0135122,-0.00677704 0.0140361,-0.00561209 0.0144598,-0.00440707 0.0147802,-0.00317057 0.0149951,-0.00191145 0.015103,-0.000638669 0.015349,0 0.0426003,0.0424588 0,0.172391 z "/>
<path fill="rgb(241,240,234)" stroke="rgb(241,240,234)" d="M 3.03309,4.92325 l -0.00486077,0.0106116 -0.0297184,0.0523565 -0.034142,0.0495855 -0.0383088,0.0464416 -0.0421877,0.0429487 -0.0457494,0.0391329 -0.0489673,0.0350229 0.140681,0.326377 0.368796,-0.602477 0.242399,0 -0.0147223,0.022902 0.174431,0.377026 0.00318315,0.00791849 0.00246722,0.00816993 0.00165025,0.0079633 0,0.0308817 -0.000530268,0.0034751 -0.00203165,0.00828899 -0.00275987,0.00807577 -0.00346628,0.00779871 -0.00414528,0.00746 -0.181911,0.295605 -6.21725e-15,5.32907e-15 -0.00480204,0.00677816 -0.00539748,0.00631429 -0.00594836,0.00579829 -0.00645012,0.00523441 -0.00689863,0.00462731 -0.00729018,0.00398201 -0.00762154,0.00330382 -0.00788997,0.00259837 -0.00809325,0.00187145 -0.00822972,0.00112909 -0.00829823,0.000377401 -0.399534,0 0.0738991,0.17242 -0.230831,0 -0.17177,-0.385257 0,-0.544057 0.0279791,-0.0242344 0.0288339,-0.0296962 0.0136699,-0.0167551 0.254566,0 z "/>
<path fill="rgb(241,240,234)" stroke="rgb(241,240,234)" d="M 3.11064,5.92325 l 0.0273983,0.0639252 0.00469904,0.0116912 0.00570887,0.0112327 0.00667448,0.0106872 0.00758838,0.0100589 0.00844349,0.00935265 0.00923319,0.00857396 0.00995136,0.00772885 0.0105924,0.00682386 0.0111514,0.00586601 0.0116241,0.00486271 0.0120066,0.00382174 0.0122962,0.00275116 0.0124905,0.00165927 0.012588,0.000554522 0.21947,0 0,0.213837 -0.275752,0 -0.0203535,0.00097403 -0.0203597,-0.000835446 -0.0202053,-0.00263833 -0.0198916,-0.00442042 -0.019421,-0.00616764 -0.0187973,-0.00786623 -0.0180253,-0.00950279 -0.0171112,-0.0110644 -0.0160622,-0.0125388 -0.0148865,-0.0139143 -0.0135934,-0.0151801 -0.0121931,-0.0163261 -0.0106967,-0.0173434 -0.00911592,-0.018224 -0.106283,-0.238379 0.230831,0 z "/>
<path fill="rgb(241,240,234)" stroke="rgb(241,240,234)" d="M 3.70804,4.72769 l 0,-0.172391 0.166321,0.165769 -0.123118,-1.66742e-08 -4.02286e-08,-5.32907e-15 -0.0133364,0.000606298 -0.0132264,0.00181389 -0.0130072,0.00300652 -0.00363296,0.00119592 z "/>
<path fill="rgb(241,240,234)" stroke="rgb(241,240,234)" d="M 3.70804,5.37811 l 0,-0.0308817 8.15415e-05,0.00039348 0.000982669,0.00847758 0.000225778,0.00853135 -0.000532897,0.00851768 -0.000757092,0.00496159 z "/>
<path fill="rgb(241,240,234)" stroke="rgb(241,240,234)" d="M 1.78678,4.92325 l 0.251502,0 0.0166857,0.0197579 0.0298594,0.0296214 0.0323499,0.0268792 0.0345896,0.0239285 0.0365609,0.0207921 0.0382485,0.0174945 0.0396395,0.0140612 0.040723,0.0105188 0.0414906,0.00689475 0.0419364,0.00321726 0.0420568,-0.000485184 0.041851,-0.00418387 0.0413205,-0.0078501 -0.0739758,-0.160646 0.229244,0 0.0338692,0.0735507 0.00330785,-0.00286512 0,0.544057 -0.115848,-0.259831 -0.129415,0.0224851 0,0.168844 -0.0771618,-0.000543066 -0.0768363,-0.00710112 -0.0759544,-0.0136078 -0.0745225,-0.0200159 -0.072551,-0.026279 0.0731338,-0.157579 -0.0547484,-0.0219306 -0.0526208,-0.0266343 -0.05009,-0.0311339 -0.0471755,-0.035395 -0.0438995,-0.0393849 -0.0402871,-0.043073 -0.0363661,-0.0464311 -0.0321664,-0.0494334 -0.01475,-0.0276996 z "/>
<path fill="rgb(241,240,234)" stroke="rgb(241,240,234)" d="M 2.03829,4.92325 l -0.251502,0 -0.0129702,-0.0243574 -0.0230617,-0.0542816 -0.0182264,-0.0560904 -0.0132515,-0.0574694 -0.00817508,-0.0584081 -0.00303601,-0.0588992 0.00212633,-0.0589391 0.00727238,-0.0585273 0.0123627,-0.0576671 0.0173583,-0.0563651 0.0222209,-0.0546312 0.0269132,-0.0524787 0.0313994,-0.0499241 0.0356449,-0.046987 0.0396173,-0.0436898 0.0432862,-0.0400579 0.0466234,-0.0361191 0.0496034,-0.0319035 0.0522033,-0.0274435 1.46549e-14,-7.99361e-15 0.0547693,-0.0249944 0.0567285,-0.0201562 0.0582612,-0.0151665 0.059356,-0.0100628 0.0600045,-0.00488346 0.060202,0.000332612 0.0599469,0.00554619 0.0592412,0.0107181 0.0580901,0.0158094 0.0565023,0.0207818 0.0302461,0.014209 0,0.25725 -0.00805251,-0.00679956 -0.0338097,-0.0238781 -0.0357426,-0.020874 -0.0374093,-0.0177146 -0.0387973,-0.0144231 -0.0398964,-0.0110243 -0.0406983,-0.00754335 -0.0411972,-0.00400622 -0.0413892,-0.000439255 -0.0412729,0.00313098 -0.0408493,0.0066779 -0.0401214,0.0101751 -0.0390947,0.0135965 -0.0383712,0.0172237 -0.0367069,0.0205332 -0.0347578,0.0236834 -0.0325391,0.0266499 -0.030068,0.0294096 -0.0273636,0.0319412 -0.024447,0.034225 -0.0213407,0.0362434 -0.0180689,0.0379806 -0.0146569,0.0394231 -0.0111312,0.0405599 -0.0075192,0.041382 -0.00384884,0.0418831 -0.000148631,0.0420593 0.00355273,0.0419093 0.00722654,0.0414341 0.0108443,0.0406375 0.0143779,0.0395257 0.0178,0.0381073 0.021084,0.0363933 0.0242045,0.034397 0.0104515,0.0123759 z M 2.67087,4.92325 l -0.229244,0 -0.135517,-0.294291 -0.00343558,-0.00840793 -0.00268971,-0.00867536 -0.00192337,-0.00887678 -0.00114238,-0.00901063 -0.000352709,-0.00907591 0.00043965,-0.00907211 0.00122866,-0.00899927 0.00200833,-0.00885794 0.0027727,-0.0086492 0.00351598,-0.00837463 0.0042325,-0.00803632 0.0049168,-0.00763685 0.00556369,-0.00717926 0.00616823,-0.00666704 0.00672583,-0.00610407 0.00723224,-0.00549465 0.00768361,-0.00484341 0.0080765,-0.00415531 0.00840793,-0.00343558 0.00867536,-0.00268971 0.00887678,-0.00192337 0.00901063,-0.00114238 0.00907591,-0.000352709 0.00907211,0.00043965 0.00899927,0.00122866 0.00885794,0.00200833 0.0086492,0.0027727 0.00837463,0.00351598 0.00803632,0.0042325 0.00763685,0.0049168 0.00717926,0.00556369 0.00666704,0.00616823 0.00610407,0.00672583 0.00549465,0.00723224 0.00484341,0.00768361 0.00415531,0.0080765 0.175624,0.381386 z "/>
<path fill="rgb(241,240,234)" stroke="rgb(241,240,234)" d="M 3.87436,4.72107 l -0.122973,0 -4.83659e-05,-3.98021e-08 -4.83659e-05,-2.38865e-08 -4.83659e-05,-7.97101e-09 0.123118,1.66742e-08 5.51687e-08,5.49854e-08 z "/>
<path fill="rgb(241,240,234)" stroke="rgb(241,240,234)" d="M 5.63234,4.77897 l -0.193039,-0.192397 -0.00365723,-0.0415699 -0.00727242,-0.0410919 -0.0108321,-0.0403001 -0.014309,-0.0392005 -0.0176767,-0.0378017 -0.0209094,-0.0361141 -0.0239824,-0.0341508 -0.0268723,-0.0319267 -0.0295569,-0.0294587 -0.0320159,-0.0267659 -0.0342304,-0.0238686 -0.0361835,-0.0207891 -0.0378603,-0.0175508 -0.0392479,-0.0141785 -0.0403359,-0.0106979 -0.0411158,-0.00713563 -0.0415818,-0.00351887 -0.192633,-0.191993 0.0587242,-0.0123367 0.0595716,-0.00720846 0.0599719,-0.00202609 0.0599222,0.00317149 0.059423,0.00834527 0.0584778,0.0134564 0.0570939,0.0184666 0.0552816,0.0233383 0.0530545,0.0280348 0.0504294,0.0325209 0.0474258,0.0367631 0.0440664,0.0407294 0.0403763,0.0443901 0.0363833,0.0477178 0.0321173,0.0506874 0.0276103,0.0532766 0.0228962,0.0554662 0.0180102,0.0572395 0.0129892,0.0585834 0.00787062,0.0594877 0.00269302,0.0599456 -0.00229259,0.057339 -0.00704198,0.0569511 -0.0117428,0.0561705 z "/>
<path fill="rgb(241,240,234)" stroke="rgb(241,240,234)" d="M 4.2691,5.75083 l -0.00714403,-0.000314959 -0.0070886,-0.000942435 -0.00697816,-0.0015626 -0.00681357,-0.00217063 -0.00659611,-0.00276183 -0.00632747,-0.00333159 -0.00600973,-0.0038755 -0.00564536,-0.00438934 -0.00523718,-0.00486912 -0.00478837,-0.00531112 -0.00430239,-0.0057119 -0.00378304,-0.00606837 -0.00323432,-0.00637774 -0.00266051,-0.00663763 -0.00206606,-0.00684601 -0.00145558,-0.00700127 -0.000833795,-0.0071022 -0.000205545,-0.00714802 0.000424301,-0.00713837 0.00105085,-0.00707334 0.00166925,-0.00695342 0.0022747,-0.00677954 0.004822,-0.0102992 0.138476,-0.295766 0.0032095,-0.00586954 0.00370522,-0.0055699 0.00417317,-0.00522849 0.00460982,-0.00484789 0.00501192,-0.00443093 0.00537643,-0.00398076 0.00570064,-0.00350074 0.00598211,-0.00299447 0.00621872,-0.00246576 0.00640871,-0.00191855 0.00655066,-0.00135696 0.00664349,-0.000785203 0.00668651,-0.000207554 0.0066794,0.00037165 0.00662221,0.000948069 0.00651537,0.00151738 0.00635968,0.00207531 0.00615631,0.00261769 0.00590679,0.00314044 0.00341193,0.00242515 0.00342306,0.00240943 0.00343411,0.00239365 0.00896901,0.00614192 0.00904178,0.00603429 0.00911325,0.00592579 0.425,0.423588 -0.638457,0 z "/>
<path fill="rgb(241,240,234)" stroke="rgb(241,240,234)" d="M 4.19335,5.64046 l 0.00144625,-0.00350695 0.00160851,-0.00343556 0.00176725,-0.00335667 -0.004822,0.0102992 z "/>
<path fill="rgb(241,240,234)" stroke="rgb(241,240,234)" d="M 3.19893,2.35364 l -0.0271234,0.0643388 -0.0329343,0.061567 -0.0384652,0.0582717 -0.114347,-0.113967 0.0281075,-0.0460482 0.0238135,-0.0484085 0.0193232,-0.0503695 0.0146734,-0.0519149 0.126952,0.126531 z "/>
<path fill="rgb(241,240,234)" stroke="rgb(241,240,234)" d="M 5.43908,4.63322 l 0.000581489,-0.0155442 7.49263e-05,-0.0155548 -0.000431716,-0.015549 0.193039,0.192397 -0.0152835,0.0518339 -0.0192871,0.0504812 -0.0231727,0.0488198 -0.0269166,0.0468598 -0.157538,-0.157015 0.0157894,-0.0355095 0.0128627,-0.0366713 0.00985157,-0.0375923 0.00677577,-0.0382665 0.00365548,-0.0386894 z "/>
<path fill="rgb(241,240,234)" stroke="rgb(241,240,234)" d="M 3.34907,2.50328 l 0.111785,0.111414 -0.133873,0.148945 -0.112144,-0.111771 0.134232,-0.148588 z "/>
<path fill="rgb(241,240,234)" stroke="rgb(241,240,234)" d="M 4.78903,3.93846 l 0.192633,0.191993 -0.0401463,5.33759e-05 -0.04,0.00342526 -0.0395709,0.00677293 -0.0388622,0.0100727 -0.0378788,0.0133014 -0.0366277,0.016436 -0.157404,-0.156881 0.0468163,-0.0270286 0.0487813,-0.0232958 0.0504493,-0.0194211 0.0518101,-0.0154281 z "/>
<path fill="rgb(241,240,234)" stroke="rgb(241,240,234)" d="M 5.43908,4.63322 l 0.000581489,-0.0155442 7.49263e-05,-0.0155548 -0.000431716,-0.015549 -0.45764,-0.45612 -0.0401463,5.33759e-05 -0.04,0.00342526 -0.0395709,0.00677293 -0.0388622,0.0100727 -0.0378788,0.0133014 -0.0366277,0.016436 0.641566,0.639435 0.0157894,-0.0355095 0.0128627,-0.0366713 0.00985157,-0.0375923 0.00677577,-0.0382665 0.00365548,-0.0386894 z "/>
<path fill="rgb(241,240,234)" stroke="rgb(241,240,234)" d="M 3.19893,2.35364 l 0.150143,0.149644 -0.134232,0.148588 -0.114434,-0.114054 0.0384652,-0.0582717 0.0329343,-0.061567 0.0271234,-0.0643388 z "/>
<path fill="rgb(241,240,234)" stroke="rgb(241,240,234)" d="M 3.46086,2.6147 l -0.133873,0.148945 0.405656,0.404308 0.283314,0 -0.555097,-0.553253 z "/>
<path fill="rgb(241,240,234)" stroke="rgb(241,240,234)" d="M 4.01595,3.16795 l 0.152407,0.1519 -0.283314,0 -0.152407,-0.1519 0.283314,0 z "/>
<path fill="rgb(241,240,234)" stroke="rgb(241,240,234)" d="M 4.32647,3.47743 l -0.164252,0 -0.00698312,0.000310068 -0.00692816,0.000927764 -0.00681867,0.00153816 -0.00665551,0.00213644 -0.00643996,0.00271792 -0.00617373,0.00327799 -0.0058589,0.00381227 -0.00549796,0.00431655 -0.00509375,0.00478684 -0.00464944,0.00521947 -0.00416854,0.00561101 -0.00365483,0.00595838 -0.00311236,0.00625886 -0.205132,-0.204451 0.283314,0 0.158104,0.157579 z "/>
<path fill="rgb(241,240,234)" stroke="rgb(241,240,234)" d="M 6.50794,5.65165 l -0.0388349,0.055126 -0.0399366,0.0543332 -0.0410221,0.0535184 -0.84046,-0.837668 0.0269166,-0.0468598 0.0231727,-0.0488198 0.0192871,-0.0504812 0.0152835,-0.0518339 0.875594,0.872685 z "/>
<path fill="rgb(241,240,234)" stroke="rgb(241,240,234)" d="M 2.35523,1.51274 l -0.0519848,0.014704 -0.0504433,0.0193419 -0.0484889,0.0238214 -0.0461376,0.028106 0.827886,0.825135 0.0281075,-0.0460482 0.0238135,-0.0484085 0.0193232,-0.0503695 0.0146734,-0.0519149 -0.716749,-0.714367 z "/>
<path fill="rgb(241,240,234)" stroke="rgb(241,240,234)" d="M 1.83918,0.998407 l 0.387681,0.386393 -0.0640946,0.0275127 -0.0612757,0.033322 -0.0579316,0.0388457 -0.366957,-0.365738 0.0533816,-0.0412 0.0542,-0.0401172 0.0549965,-0.0390181 z "/>
<path fill="rgb(241,240,234)" stroke="rgb(241,240,234)" d="M 4.48457,3.63501 l -0.283314,0 -0.111076,-0.110707 0.00311236,-0.00625886 0.00365483,-0.00595838 0.00416854,-0.00561101 0.00464944,-0.00521947 0.00509375,-0.00478684 0.00549796,-0.00431655 0.0058589,-0.00381227 0.00617373,-0.00327799 0.00643996,-0.00271792 0.00665551,-0.00213644 0.00681867,-0.00153816 0.00692816,-0.000927764 0.00698312,-0.000310068 0.164252,0 0.158104,0.157579 z "/>
<path fill="rgb(241,240,234)" stroke="rgb(241,240,234)" d="M 4.78903,3.93846 l -0.0518101,0.0154281 -0.0504493,0.0194211 -0.0487813,0.0232958 -0.0468163,0.0270286 -0.389919,-0.388624 0.283314,0 0.304461,0.30345 z "/>
<path fill="rgb(241,240,234)" stroke="rgb(241,240,234)" d="M 2.22686,1.3848 l 0.128368,0.127942 -0.0519848,0.014704 -0.0504433,0.0193419 -0.0484889,0.0238214 -0.0461376,0.028106 -0.114616,-0.114235 0.0579316,-0.0388457 0.0612757,-0.033322 0.0640946,-0.0275127 z "/>
<path fill="rgb(241,240,234)" stroke="rgb(241,240,234)" d="M 4.90755,5.75083 l -0.425,-0.423588 0.0651774,0.0381055 0.0681132,0.0325686 0.0705797,0.0268072 0.0725599,0.0208611 0.07404,0.0147713 0.0750101,0.00857974 0.282834,0.281895 -0.283314,0 z "/>
<path fill="rgb(241,240,234)" stroke="rgb(241,240,234)" d="M 3.19436,3.79231 l 0.0314945,3.27997e-05 0.722905,0.720503 -0.283314,0 -2.67338,-2.6645 0.0388349,-0.055126 0.0399366,-0.0543332 0.0410221,-0.0535184 0.671151,0.668921 0.0253954,0.0609146 0.0305996,0.0584737 0.0355718,0.0555892 0.040274,0.0522831 0.0446708,0.0485802 0.0487286,0.0445089 0.0524168,0.0400998 0.0557073,0.0353866 0.0585752,0.0304049 0.0609988,0.0251925 0.655229,0.653053 0.0499045,0.142437 0.00718254,0.0215208 0.0090054,0.0208239 0.0107616,0.019973 0.0124383,0.0189743 0.0140228,0.0178352 0.0155037,0.0165641 0.0168698,0.0151705 0.0181111,0.0136646 0.0192184,0.0120576 0.0201835,0.0103615 0.0209993,0.00858861 0.0216597,0.00675221 0.0221598,0.00486586 0.022496,0.0029435 0.0226657,0.00099937 z "/>
<path fill="rgb(241,240,234)" stroke="rgb(241,240,234)" d="M 3.66544,4.51284 l 0.283314,0 0.208922,0.208228 -0.283315,-3.837e-08 -0.208922,-0.208227 z "/>
<path fill="rgb(241,240,234)" stroke="rgb(241,240,234)" d="M 4.67757,5.23923 l -0.0552805,-0.0280565 -0.0525437,-0.0328977 -0.0493841,-0.0374741 -0.0458271,-0.041749 -0.0419013,-0.0456879 -0.0376382,-0.0492591 -0.0330723,-0.052434 -0.0282403,-0.0551868 0.343887,0.342745 z "/>
<path fill="rgb(241,240,234)" stroke="rgb(241,240,234)" d="M 5.8234,6.38126 l -0.0533816,0.0412 -0.0542,0.0401172 -0.0549965,0.0390181 -0.753266,-0.750764 0.283314,0 0.63253,0.630429 z "/>
<path fill="rgb(241,240,234)" stroke="rgb(241,240,234)" d="M 3.19436,3.79231 l -0.0226657,-0.00099937 -0.022496,-0.0029435 -0.0221598,-0.00486586 -0.0216597,-0.00675221 -0.0209993,-0.00858861 -0.0201835,-0.0103615 -0.0192184,-0.0120576 -0.0181111,-0.0136646 -0.0168698,-0.0151705 -0.0155037,-0.0165641 -0.0140228,-0.0178352 -0.0124383,-0.0189743 -0.0107616,-0.019973 -0.0090054,-0.0208239 -0.00718254,-0.0215208 -0.0499045,-0.142437 0.334677,0.333565 -0.0314945,-3.27997e-05 z "/>
<path fill="rgb(241,240,234)" stroke="rgb(241,240,234)" d="M 4.48255,5.32724 l -0.60819,-0.60617 0.283314,0 0.176,0.175416 0.0282403,0.0551868 0.0330723,0.052434 0.0376382,0.0492591 0.0419013,0.0456879 0.0458271,0.041749 0.0493841,0.0374741 0.0525437,0.0328977 0.0552805,0.0280565 0.230468,0.229703 -0.0750101,-0.00857974 -0.07404,-0.0147713 -0.0725599,-0.0208611 -0.0705797,-0.0268072 -0.0681132,-0.0325686 -0.0651774,-0.0381055 z "/>
<path fill="rgb(241,240,234)" stroke="rgb(241,240,234)" d="M 3.87436,4.72107 l -5.51687e-08,-5.49854e-08 0.283315,3.837e-08 1.66708e-08,1.66154e-08 -0.283314,0 z "/>
<path fill="rgb(241,240,234)" stroke="rgb(241,240,234)" d="M 1.78301,2.35429 l 0.452938,0.451434 -0.0609988,-0.0251925 -0.0585752,-0.0304049 -0.0557073,-0.0353866 -0.0524168,-0.0400998 -0.0487286,-0.0445089 -0.0446708,-0.0485802 -0.040274,-0.0522831 -0.0355718,-0.0555892 -0.0305996,-0.0584737 -0.0253954,-0.0609146 z "/>
<path fill="rgb(241,240,234)" stroke="rgb(241,240,234)" d="M 7.10692,4.90482 l -0.189122,-0.06506 0.0793025,-0.265832 0.0570363,-0.271482 0.034379,-0.27527 0.0114859,-0.277171 -0.0127478,-0.291972 -0.0381463,-0.28975 -0.0632545,-0.285322 -0.0878812,-0.278724 -0.111839,-0.270004 -0.134946,-0.259229 -0.157026,-0.246481 -0.17791,-0.231857 -0.197441,-0.215469 -0.215469,-0.197441 -0.231857,-0.17791 -0.246481,-0.157026 -0.259229,-0.134946 -0.270004,-0.111839 -0.278724,-0.0878812 -0.285322,-0.0632545 -0.28975,-0.0381463 -0.291972,-0.0127478 0,-0.2 0.309403,0.0135088 0.307048,0.0404237 0.302357,0.0670308 0.295364,0.0931279 0.286123,0.118516 0.274705,0.143002 0.261196,0.1664 0.2457,0.188532 0.228333,0.209229 0.209229,0.228333 0.188532,0.2457 0.1664,0.261196 0.143002,0.274705 0.118516,0.286123 0.0931279,0.295364 0.0670308,0.302357 0.0404237,0.307048 0.0135088,0.309403 -0.0121716,0.293718 -0.0364315,0.291704 -0.0604415,0.28769 -0.084037,0.281703 z "/>
<path fill="rgb(241,240,234)" stroke="rgb(241,240,234)" d="M 1.06776,6.07553 l -0.196677,-0.248431 -0.173742,-0.264979 -0.149422,-0.279416 -0.123912,-0.291626 -0.097415,-0.301513 -0.0701418,-0.308999 -0.0423099,-0.314022 -0.0141408,-0.316544 0.0135088,-0.309403 0.0404237,-0.307048 0.0670308,-0.302357 0.0931279,-0.295364 0.118516,-0.286123 0.143002,-0.274705 0.1664,-0.261196 0.188532,-0.2457 0.209229,-0.228333 0.228333,-0.209229 0.2457,-0.188532 0.261196,-0.1664 0.274705,-0.143002 0.286123,-0.118516 0.295364,-0.0931279 0.302357,-0.0670308 0.307048,-0.0404237 0.309403,-0.0135088 0,0.2 -0.290122,0.0125865 -0.287942,0.0376648 -0.283598,0.0624601 -0.277124,0.0867861 -0.268566,0.11046 -0.257991,0.133304 -0.245477,0.155146 -0.0549965,0.0390181 -0.0542,0.0401172 -0.0533816,0.0412 -0.203135,0.173638 -0.188648,0.189277 -0.172961,0.203711 -0.0410221,0.0535184 -0.0399366,0.0543332 -0.0388349,0.055126 -0.153541,0.244608 -0.131902,0.256923 -0.109283,0.267329 -0.0858519,0.275748 -0.0617827,0.282118 -0.0372542,0.286391 -0.0124489,0.288536 0.0133442,0.29871 0.0399262,0.296331 0.0661902,0.29159 0.0919268,0.284527 0.116931,0.275196 0.141004,0.263674 0.163953,0.250051 0.185597,0.234435 -0.151112,0.131016 z "/>
<path fill="rgb(241,240,234)" stroke="rgb(241,240,234)" d="M 5.8234,6.38126 l 0.203135,-0.173638 0.188648,-0.189277 0.172961,-0.203711 0.0410221,-0.0535184 0.0399366,-0.0543332 0.0388349,-0.055126 0.161033,-0.257841 0.136996,-0.271378 0.111831,-0.282679 0.189122,0.06506 -0.113518,0.288394 -0.138239,0.277394 -0.161907,0.264279 -0.184341,0.24915 -0.20537,0.232122 -0.224833,0.213325 -0.242583,0.192902 -0.258483,0.171008 -0.272414,0.147811 -0.284268,0.123487 -0.293955,0.0982226 -0.301402,0.0722091 -0.306552,0.0456452 -0.309365,0.0187333 -0.30982,-0.00832127 -0.307913,-0.0353125 -0.30366,-0.0620345 -0.297092,-0.0882837 -0.288259,-0.11386 -0.27723,-0.138568 -0.264087,-0.162221 -0.248931,-0.184636 -0.231878,-0.205645 -0.213058,-0.225086 0.151112,-0.131016 0.198061,0.209504 0.215341,0.191698 0.231026,0.172473 0.245,0.15197 0.25716,0.130342 0.267414,0.107748 0.275688,0.0843563 0.281921,0.0603397 0.286065,0.0358763 0.28809,0.0111471 0.287982,-0.0136646 0.28574,-0.0383752 0.281382,-0.0628015 0.274941,-0.0867626 0.266462,-0.110081 0.256011,-0.132584 0.243663,-0.154106 0.0549965,-0.0390181 0.0542,-0.0401172 0.0533816,-0.0412 z "/>
<path fill="rgb(187,30,16)" stroke="rgb(187,30,16)" d="M 2.6147,2.67273 l -0.196962,-0.55709 -0.0020292,-0.00665437 -0.0014385,-0.00680654 -0.00083674,-0.00690638 -0.00022855,-0.00695313 0.000381397,-0.00694642 0.000988411,-0.00688631 0.00158783,-0.00677326 0.00217504,-0.00660814 0.00274552,-0.00639221 0.0032949,-0.00612714 0.00381895,-0.00581497 0.00431364,-0.00545809 0.00477517,-0.00505925 0.00519999,-0.00462152 0.00558483,-0.00414825 0.00592673,-0.0036431 0.00622307,-0.00310994 0.00647157,-0.00255286 0.00667031,-0.00197617 0.00681778,-0.00138427 0.00691283,-0.000781742 0.00695473,-0.000173199 0.00694317,0.000436675 0.00687823,0.00104319 0.00676041,0.00164169 0.00659062,0.00222756 0.00637016,0.00279632 0.00610072,0.00334357 0.00578439,0.00386512 0.00542358,0.00435695 0.00502108,0.00481529 0.00457998,0.00523661 0.00410367,0.00561767 0.00359581,0.00595554 0.0030603,0.00624763 0.00250127,0.00649168 0.00192301,0.00668583 0.191329,0.551457 0.0440995,-0.0246365 0.0418468,-0.0282944 0.0392914,-0.0317477 0.0364518,-0.0349713 0.0333487,-0.037942 0.0300043,-0.0406383 -0.827886,-0.825135 -0.0426204,0.0315204 -0.0396573,0.0351757 -0.0363818,0.0385539 -0.0328195,0.0416283 -0.0289987,0.0443747 -0.0249493,0.0467714 -0.0207034,0.0487997 -0.0162943,0.0504433 -0.0117569,0.0516896 -0.00712677,0.0525285 -0.00244052,0.0529536 0,9.59233e-14 0,1.59872e-14 0.00206704,0.0504417 0.00635332,0.0500827 0.0105935,0.0493601 0.0147567,0.0482792 0.0188129,0.0468478 0.0227324,0.0450763 0.026487,0.0429776 0.0300493,0.040567 0.0333934,0.0378618 0.0364952,0.0348818 0.039332,0.0316486 0.0418832,0.0281857 0.0441305,0.0245181 0.0460574,0.0206726 0.0476499,0.016677 0.0488966,0.0125603 0.0497883,0.00835244 0.0503186,0.00408396 0.0504836,-0.000214167 0.0502821,-0.00451074 0.0497156,-0.00877456 z "/>
<path fill="rgb(187,30,16)" stroke="rgb(187,30,16)" d="M 4.91622,5.46949 l 0.551503,0 0,0.281338 -0.276854,0 -0.282834,-0.281895 0.00272778,0.000193632 0.00272835,0.00018543 0.00272889,0.000177226 z "/>
<path fill="rgb(187,30,16)" stroke="rgb(187,30,16)" d="M 2.6147,2.67273 l -0.196962,-0.55709 -0.0020292,-0.00665437 -0.0014385,-0.00680654 -0.00083674,-0.00690638 -0.00022855,-0.00695313 0.000381397,-0.00694642 0.000988411,-0.00688631 0.00158783,-0.00677326 0.00217504,-0.00660814 0.00274552,-0.00639221 0.0032949,-0.00612714 0.00381895,-0.00581497 0.00431364,-0.00545809 0.00477517,-0.00505925 0.00519999,-0.00462152 0.00558483,-0.00414825 0.00592673,-0.0036431 0.00622307,-0.00310994 0.00647157,-0.00255286 0.00667031,-0.00197617 0.00681778,-0.00138427 0.00691283,-0.000781742 0.00695473,-0.000173199 0.00694317,0.000436675 0.00687823,0.00104319 0.00676041,0.00164169 0.00659062,0.00222756 0.00637016,0.00279632 0.00610072,0.00334357 0.00578439,0.00386512 0.00542358,0.00435695 0.00502108,0.00481529 0.00457998,0.00523661 0.00410367,0.00561767 0.00359581,0.00595554 0.0030603,0.00624763 0.00250127,0.00649168 0.00192301,0.00668583 0.191329,0.551457 0.0440995,-0.0246365 0.0418468,-0.0282944 0.0392914,-0.0317477 0.0364518,-0.0349713 0.0333487,-0.037942 0.0300043,-0.0406383 0.114347,0.113967 -0.0385657,0.0486232 -0.0424178,0.0453018 -0.045985,0.0416761 -0.0492434,0.0377705 -0.052171,0.0336112 -0.0547481,0.0292262 0.0787894,0.230713 0.318776,-0.352868 0.112144,0.111771 -0.363396,0.404308 0.769051,0 0.152407,0.1519 -0.876442,0 0.0900853,0.240005 0.00408361,0.00956589 0.00491581,0.00916608 0.00570928,0.00869404 0.00645776,0.00815349 0.00715536,0.0075487 0.00779658,0.00688444 0.00837637,0.00616592 0.00889015,0.00539883 0.00933389,0.00458919 0.00970408,0.00374339 0.00999781,0.0028681 0.0102128,0.00197021 0.0103472,0.00105679 0.0104002,0.000135049 0.0103712,-0.000787758 0.196962,0 0,0.157533 -0.193551,-0.000201573 -0.334677,-0.333565 -0.220191,-0.628468 -0.0619421,0.0121397 -0.0627375,0.00694203 -0.0630977,0.0016962 -0.0630199,-0.0035614 -0.0625048,-0.00879429 -0.061556,-0.0139661 -0.06018,-0.0190411 -0.452938,-0.451434 -0.0201481,-0.0634471 -0.0145016,-0.0649706 -0.00874306,-0.0659927 -0.00291709,-0.0665054 0.0029314,-0.0665048 0.00875726,-0.0659908 0.0145155,-0.0649675 0.0201618,-0.0634428 0.0256524,-0.0614283 0.030945,-0.0589397 0.0359987,-0.0559962 0.0407746,-0.0526204 0.0452358,-0.0488385 0.0493478,-0.0446797 1.18128e-13,-9.63674e-14 0.0106903,-0.00869281 0.0108475,-0.00849587 0.011001,-0.00829608 0.114616,0.114235 -0.0426204,0.0315204 -0.0396573,0.0351757 -0.0363818,0.0385539 -0.0328195,0.0416283 -0.0289987,0.0443747 -0.0249493,0.0467714 -0.0207034,0.0487997 -0.0162943,0.0504433 -0.0117569,0.0516896 -0.00712677,0.0525285 -0.00244052,0.0529536 0,9.59233e-14 0,1.59872e-14 0.00206704,0.0504417 0.00635332,0.0500827 0.0105935,0.0493601 0.0147567,0.0482792 0.0188129,0.0468478 0.0227324,0.0450763 0.026487,0.0429776 0.0300493,0.040567 0.0333934,0.0378618 0.0364952,0.0348818 0.039332,0.0316486 0.0418832,0.0281857 0.0441305,0.0245181 0.0460574,0.0206726 0.0476499,0.016677 0.0488966,0.0125603 0.0497883,0.00835244 0.0503186,0.00408396 0.0504836,-0.000214167 0.0502821,-0.00451074 0.0497156,-0.00877456 z "/>
<path fill="rgb(187,30,16)" stroke="rgb(187,30,16)" d="M 4.91622,5.46949 l -0.00272889,-0.000177226 -0.00272835,-0.00018543 -0.00272778,-0.000193632 -0.230468,-0.229703 0.057543,0.0229792 0.05937,0.0177326 0.0607197,0.0123434 0.0615813,0.00685499 0.0619478,0.00131146 0.0618162,-0.00424262 0.0611877,-0.0097626 0.0600673,-0.0152041 0.058464,-0.0205233 0.0563907,-0.0256776 0.053864,-0.0306254 0.0509043,-0.035327 0.0475353,-0.0397447 0.0437842,-0.0438427 0.0396811,-0.0475884 0.035259,-0.0509514 0.84046,0.837668 -0.172961,0.203711 -0.188648,0.189277 -0.203135,0.173638 -0.63253,-0.630429 0.276854,0 0,-0.281338 -0.551503,0 z "/>
<path fill="rgb(187,30,16)" stroke="rgb(187,30,16)" d="M 1.11186,1.68537 l 0.172961,-0.203711 0.188648,-0.189277 0.203135,-0.173638 0.366957,0.365738 -0.011001,0.00829608 -0.0108475,0.00849587 -0.0106903,0.00869281 -1.18128e-13,9.63674e-14 -0.0493478,0.0446797 -0.0452358,0.0488385 -0.0407746,0.0526204 -0.0359987,0.0559962 -0.030945,0.0589397 -0.0256524,0.0614283 -0.0201618,0.0634428 -0.0145155,0.0649675 -0.00875726,0.0659908 -0.0029314,0.0665048 0.00291709,0.0665054 0.00874306,0.0659927 0.0145016,0.0649706 0.0201481,0.0634471 -0.671151,-0.668921 z "/>
<path fill="rgb(187,30,16)" stroke="rgb(187,30,16)" d="M 4.15768,4.72107 l -1.66708e-08,-1.66154e-08 0.122684,1.66154e-08 -0.122684,0 z "/>
<path fill="rgb(187,30,16)" stroke="rgb(187,30,16)" d="M 2.96359,3.16795 l 0.769051,0 -0.405656,-0.404308 -0.363396,0.404308 z "/>
<path fill="rgb(187,30,16)" stroke="rgb(187,30,16)" d="M 4.20125,3.63501 l -0.0390412,0 -0.00680128,-0.0002941 -0.00675051,-0.000880104 -0.00664934,-0.00145954 -0.00649852,-0.00202808 -0.0062992,-0.00258147 -0.00605285,-0.0031156 -0.00576131,-0.00362646 -0.00542676,-0.00411026 -0.0050517,-0.00456336 -0.00463892,-0.0049824 -0.00419151,-0.00536425 -0.00371281,-0.00570604 -0.00320639,-0.00600524 -0.00267604,-0.00625961 -0.00212571,-0.00646725 -0.0015595,-0.0066266 -0.00098166,-0.00673649 -0.000396487,-0.00679608 0.000191646,-0.00680494 0.000778348,-0.00676299 0.00135924,-0.00667056 0.00192998,-0.00652833 0.00248632,-0.00633736 0.111076,0.110707 z "/>
<path fill="rgb(187,30,16)" stroke="rgb(187,30,16)" d="M 4.15768,4.72107 l 0.122684,0 0.0125556,0.0599734 0.0178186,0.0586255 0.0229416,0.0568166 -0.176,-0.175416 z "/>
<path fill="rgb(187,30,16)" stroke="rgb(187,30,16)" d="M 4.49418,4.72107 l 0.0116734,0.040182 0.0151312,0.0390116 0.0184738,0.0375443 0.0216759,0.0357912 0.024713,0.0337658 0.0275619,0.0314833 0.0302011,0.0289612 0.0326104,0.0262186 0.0347715,0.0232765 0.036668,0.0201573 0.0382853,0.0168846 0.0396113,0.0134834 0.0406358,0.00997955 0.0413509,0.00639976 0.0417514,0.00277127 0.041834,-0.000878324 0.0415983,-0.00452123 0.0410459,-0.00812972 0.0401811,-0.0116763 0.0390105,-0.0151341 0.0375429,-0.0184766 0.0357896,-0.0216785 0.0337639,-0.0247155 0.0314812,-0.0275643 0.0289589,-0.0302033 0.0262162,-0.0326124 0.023274,-0.0347733 0.0201545,-0.0366695 -0.641566,-0.639435 -0.0378136,0.0211119 -0.0357455,0.0244509 -0.0333833,0.0275887 -0.0307466,0.0304997 -0.027857,0.0331598 -0.0247383,0.0355471 -0.0214162,0.0376422 -0.0179178,0.0394276 -0.0142722,0.0408887 -0.0105091,0.0420136 0.500854,0 0.00907411,0.000396184 0.00900505,0.00118554 0.00886746,0.00196587 0.00866238,0.00273124 0.00839137,0.00347582 0.0080565,0.00419395 0.00766032,0.00488016 0.00720584,0.00552923 0.00669651,0.00613622 0.00613622,0.00669651 0.00552923,0.00720584 0.00488016,0.00766032 0.00419395,0.0080565 0.00347582,0.00839137 0.00273124,0.00866238 0.00196587,0.00886746 0.00118554,0.00900505 0.000396184,0.00907411 -0.000396184,0.00907411 -0.00118554,0.00900505 -0.00196587,0.00886746 -0.00273124,0.00866238 -0.00347582,0.00839137 -0.00419395,0.0080565 -0.00488016,0.00766032 -0.00552923,0.00720584 -0.00613622,0.00669651 -0.00669651,0.00613622 -0.00720584,0.00552923 -0.00766032,0.00488016 -0.0080565,0.00419395 -0.00839137,0.00347582 -0.00866238,0.00273124 -0.00886746,0.00196587 -0.00900505,0.00118554 -0.00907411,0.000396184 -0.500854,0 z "/>
<path fill="rgb(187,30,16)" stroke="rgb(187,30,16)" d="M 2.23595,2.80572 l 0.06018,0.0190411 0.061556,0.0139661 0.0625048,0.00879429 0.0630199,0.0035614 0.0630977,-0.0016962 0.0627375,-0.00694203 0.0619421,-0.0121397 0.220191,0.628468 -0.655229,-0.653053 z "/>
<path fill="rgb(187,30,16)" stroke="rgb(187,30,16)" d="M 3.94876,4.51284 l -0.722905,-0.720503 0.193551,0.000201573 0,-0.157533 -0.196962,0 -0.0103712,0.000787758 -0.0104002,-0.000135049 -0.0103472,-0.00105679 -0.0102128,-0.00197021 -0.00999781,-0.0028681 -0.00970408,-0.00374339 -0.00933389,-0.00458919 -0.00889015,-0.00539883 -0.00837637,-0.00616592 -0.00779658,-0.00688444 -0.00715536,-0.0075487 -0.00645776,-0.00815349 -0.00570928,-0.00869404 -0.00491581,-0.00916608 -0.00408361,-0.00956589 -0.0900853,-0.240005 0.876442,0 0.205132,0.204451 -0.00248632,0.00633736 -0.00192998,0.00652833 -0.00135924,0.00667056 -0.000778348,0.00676299 -0.000191646,0.00680494 0.000396487,0.00679608 0.00098166,0.00673649 0.0015595,0.0066266 0.00212571,0.00646725 0.00267604,0.00625961 0.00320639,0.00600524 0.00371281,0.00570604 0.00419151,0.00536425 0.00463892,0.0049824 0.0050517,0.00456336 0.00542676,0.00411026 0.00576131,0.00362646 0.00605285,0.0031156 0.0062992,0.00258147 0.00649852,0.00202808 0.00664934,0.00145954 0.00675051,0.000880104 0.00680128,0.0002941 0.0390412,0 0.389919,0.388624 -0.0494099,0.0342414 -0.0462552,0.0383961 -0.0427522,0.0422617 -0.0389273,0.0458091 -0.0348092,0.0490115 -0.030429,0.0518448 -0.0258197,0.0542877 -0.0210159,0.0563217 -0.0160538,0.0579317 -0.0109709,0.0591054 -0.325973,0 z "/>
<path fill="rgb(187,30,16)" stroke="rgb(187,30,16)" d="M 4.49418,4.72107 l 0.0116734,0.040182 0.0151312,0.0390116 0.0184738,0.0375443 0.0216759,0.0357912 0.024713,0.0337658 0.0275619,0.0314833 0.0302011,0.0289612 0.0326104,0.0262186 0.0347715,0.0232765 0.036668,0.0201573 0.0382853,0.0168846 0.0396113,0.0134834 0.0406358,0.00997955 0.0413509,0.00639976 0.0417514,0.00277127 0.041834,-0.000878324 0.0415983,-0.00452123 0.0410459,-0.00812972 0.0401811,-0.0116763 0.0390105,-0.0151341 0.0375429,-0.0184766 0.0357896,-0.0216785 0.0337639,-0.0247155 0.0314812,-0.0275643 0.0289589,-0.0302033 0.0262162,-0.0326124 0.023274,-0.0347733 0.0201545,-0.0366695 0.157538,0.157015 -0.035259,0.0509514 -0.0396811,0.0475884 -0.0437842,0.0438427 -0.0475353,0.0397447 -0.0509043,0.035327 -0.053864,0.0306254 -0.0563907,0.0256776 -0.058464,0.0205233 -0.0600673,0.0152041 -0.0611877,0.0097626 -0.0618162,0.00424262 -0.0619478,-0.00131146 -0.0615813,-0.00685499 -0.0607197,-0.0123434 -0.05937,-0.0177326 -0.057543,-0.0229792 -0.343887,-0.342745 -0.0229416,-0.0568166 -0.0178186,-0.0586255 -0.0125556,-0.0599734 -0.122684,-1.66154e-08 -0.208922,-0.208228 0.325973,0 0.0109709,-0.0591054 0.0160538,-0.0579317 0.0210159,-0.0563217 0.0258197,-0.0542877 0.030429,-0.0518448 0.0348092,-0.0490115 0.0389273,-0.0458091 0.0427522,-0.0422617 0.0462552,-0.0383961 0.0494099,-0.0342414 0.157404,0.156881 -0.0378136,0.0211119 -0.0357455,0.0244509 -0.0333833,0.0275887 -0.0307466,0.0304997 -0.027857,0.0331598 -0.0247383,0.0355471 -0.0214162,0.0376422 -0.0179178,0.0394276 -0.0142722,0.0408887 -0.0105091,0.0420136 0.500854,0 0.00907411,0.000396184 0.00900505,0.00118554 0.00886746,0.00196587 0.00866238,0.00273124 0.00839137,0.00347582 0.0080565,0.00419395 0.00766032,0.00488016 0.00720584,0.00552923 0.00669651,0.00613622 0.00613622,0.00669651 0.00552923,0.00720584 0.00488016,0.00766032 0.00419395,0.0080565 0.00347582,0.00839137 0.00273124,0.00866238 0.00196587,0.00886746 0.00118554,0.00900505 0.000396184,0.00907411 -0.000396184,0.00907411 -0.00118554,0.00900505 -0.00196587,0.00886746 -0.00273124,0.00866238 -0.00347582,0.00839137 -0.00419395,0.0080565 -0.00488016,0.00766032 -0.00552923,0.00720584 -0.00613622,0.00669651 -0.00669651,0.00613622 -0.00720584,0.00552923 -0.00766032,0.00488016 -0.0080565,0.00419395 -0.00839137,0.00347582 -0.00866238,0.00273124 -0.00886746,0.00196587 -0.00900505,0.00118554 -0.00907411,0.000396184 -0.500854,0 z "/>
<path fill="rgb(187,30,16)" stroke="rgb(187,30,16)" d="M 3.10041,2.53782 l 0.114434,0.114054 -0.318776,0.352868 -0.0787894,-0.230713 0.0547481,-0.0292262 0.052171,-0.0336112 0.0492434,-0.0377705 0.045985,-0.0416761 0.0424178,-0.0453018 0.0385657,-0.0486232 z "/>
</g></g></svg>
