<?xml version="1.0" encoding="UTF-8" standalone="no"?>
<!DOCTYPE svg PUBLIC "-//W3C//DTD SVG 1.1//EN" "http://www.w3.org/Graphics/SVG/1.1/DTD/svg11-flat.dtd"
[

]>
<svg xmlns="http://www.w3.org/2000/svg"  viewBox="-0.112544 -0.112544 9.22863 19.2269"><g fill="none" stroke="black" stroke-width="0.0125" transform="translate(0,19.0018) scale(1, -1)">
<g id="Output" >
<path fill="rgb(200,225,100)" stroke="rgb(200,225,100)" d="M 1.62176,2.1 l -0.521763,0 0,-1 1,0 0,0.521559 -0.00868457,0.00666391 -0.241197,0.221016 -0.221016,0.241197 -0.00733883,0.00956415 z "/>
<path fill="rgb(200,225,100)" stroke="rgb(200,225,100)" d="M 8.03329,11.1 l 0.0667126,0 0,1 -0.430081,0 0.364768,-0.729536 0.0108029,-0.0242283 0.00862033,-0.0250879 0.00637039,-0.0257513 0.00407065,-0.0262134 0.00173907,-0.0264705 -0.000606098,-0.0265207 -0.00294653,-0.0263634 -0.00526392,-0.0260001 -0.00754016,-0.0254334 -0.00975744,-0.0246679 -0.00688869,-0.0137268 z "/>
<path fill="rgb(200,225,100)" stroke="rgb(200,225,100)" d="M 0.775788,4.1 l -0.00974957,0.0740553 -0.0142699,0.326834 0.0142699,0.326834 0.0358459,0.272277 -0.701885,0 0,-1 0.675788,0 z "/>
<path fill="rgb(200,225,100)" stroke="rgb(200,225,100)" d="M 7.66992,12.1 l 0.430081,0 0,1 -0.930081,0 0.5,-1 z "/>
<path fill="rgb(200,225,100)" stroke="rgb(200,225,100)" d="M 0.801885,5.1 l 0.00685515,0.05207 0.0708072,0.319391 0.0983745,0.312004 0.122078,0.294723 0,0.0218118 -1,0 0,-1 0.701885,0 z "/>
<path fill="rgb(200,225,100)" stroke="rgb(200,225,100)" d="M 0.1,6.1 l 1,0 0,1 -1,0 0,-1 z "/>
<path fill="rgb(200,225,100)" stroke="rgb(200,225,100)" d="M 7.1,13.2398 l 0.0699188,-0.139838 0.930081,0 0,1 -1,0 0,-0.860162 z "/>
<path fill="rgb(200,225,100)" stroke="rgb(200,225,100)" d="M 0.1,7.1 l 1,0 0,1 -1,0 0,-1 z "/>
<path fill="rgb(200,225,100)" stroke="rgb(200,225,100)" d="M 1.1,8.1 l 0,0.150967 -0.02002,0.000874091 -0.0216231,0.00284674 -0.0212927,0.00472048 -0.0208003,0.0065583 -0.0201495,0.00834621 -0.0193454,0.0100706 -0.0183941,0.0117183 -0.0173028,0.0132769 -0.0160798,0.0147344 -0.0147344,0.0160798 -0.0132769,0.0173028 -0.0117183,0.0183941 -0.0100706,0.0193454 -0.00834621,0.0201495 -0.0065583,0.0208003 -0.00472048,0.0212927 -0.00284674,0.0216231 -0.000951325,0.0217889 -4.44089e-16,0.599111 -0.751769,0 0,-1 1,0 z "/>
<path fill="rgb(200,225,100)" stroke="rgb(200,225,100)" d="M 0.851769,9.1 l -8.88178e-16,1 -0.751769,0 0,-1 0.751769,0 z "/>
<path fill="rgb(200,225,100)" stroke="rgb(200,225,100)" d="M 0.970251,11.1 l -0.870251,0 0,-1 0.751769,0 -4.44089e-16,0.400889 0.000951325,0.0217889 0.00284674,0.0216231 0.00472048,0.0212927 0.0065583,0.0208003 0.00834621,0.0201495 0.0100706,0.0193454 0.0117183,0.0183941 0.0132769,0.0173028 0.0147344,0.0160798 0.0160798,0.0147344 0.0173028,0.0132769 0.0183941,0.0117183 0.0193454,0.0100706 0.0201495,0.00834621 0.0208003,0.0065583 0.0212927,0.00472048 0.0216231,0.00284674 0.02002,0.000874091 0,0.218997 -0.0146683,0.00775805 -0.0222624,0.0144255 -0.0209011,0.0163358 -0.0193763,0.0181183 -0.0177,0.0197591 -0.0158853,0.0212455 -0.0139464,0.0225657 -0.00500973,0.00998267 z "/>
<path fill="rgb(200,225,100)" stroke="rgb(200,225,100)" d="M 0.970251,11.1 l -0.00688869,0.0137268 -0.00975744,0.0246679 -0.00754016,0.0254334 -0.00526392,0.0260001 -0.00294653,0.0263634 -0.000606098,0.0265207 0.00173907,0.0264705 0.00407065,0.0262134 0.00637039,0.0257513 0.00862033,0.0250879 0.0108029,0.0242283 0.131149,0.262298 0,0.467238 -1,0 0,-1 0.870251,0 z "/>
<path fill="rgb(200,225,100)" stroke="rgb(200,225,100)" d="M 0.1,12.1 l 1,0 0,1 -1,0 0,-1 z "/>
<path fill="rgb(200,225,100)" stroke="rgb(200,225,100)" d="M 0.1,13.1 l 1,0 0,1 -1,0 0,-1 z "/>
<path fill="rgb(200,225,100)" stroke="rgb(200,225,100)" d="M 0.1,14.1 l 1,0 0,1 -1,0 0,-1 z "/>
<path fill="rgb(200,225,100)" stroke="rgb(200,225,100)" d="M 0.1,15.1 l 1,0 0,1 -1,0 0,-1 z "/>
<path fill="rgb(200,225,100)" stroke="rgb(200,225,100)" d="M 0.1,16.1 l 1,0 0,1 -1,0 0,-1 z "/>
<path fill="rgb(200,225,100)" stroke="rgb(200,225,100)" d="M 0.1,17.1 l 1,0 0,1 -1,0 0,-1 z "/>
<path fill="rgb(200,225,100)" stroke="rgb(200,225,100)" d="M 0.1,18.7518 l -8.88178e-16,-0.651779 1,0 0,0.801779 -0.85,0 -0.0130734,-0.000570795 -0.0129739,-0.00170804 -0.0127756,-0.00283229 -0.0124802,-0.00393498 -0.0120897,-0.00500773 -0.0116073,-0.00604236 -0.0110365,-0.007031 -0.0103817,-0.00796614 -0.00964788,-0.00884065 -0.00884065,-0.00964788 -0.00796614,-0.0103817 -0.007031,-0.0110365 -0.00604236,-0.0116073 -0.00500773,-0.0120897 -0.00393498,-0.0124802 -0.00283229,-0.0127756 -0.00170804,-0.0129739 -0.000570795,-0.0130734 z "/>
<path fill="rgb(200,225,100)" stroke="rgb(200,225,100)" d="M 1.1,0.1 l 1,0 0,1 -1,0 0,-1 z "/>
<path fill="rgb(200,225,100)" stroke="rgb(200,225,100)" d="M 6.1,10.9363 l 0,-0.18541 1,0 0,0.18541 -1,0 z "/>
<path fill="rgb(200,225,100)" stroke="rgb(200,225,100)" d="M 1.62176,2.1 l -0.191815,0.249978 -0.175775,0.275912 -0.151059,0.290182 -0.00311476,0.0075197 0,-0.823591 0.521763,0 z "/>
<path fill="rgb(200,225,100)" stroke="rgb(200,225,100)" d="M 1.1,6.1 l 0,-0.0218118 0.00311475,0.00751967 0.00744002,0.0142922 -0.0105548,0 z "/>
<path fill="rgb(200,225,100)" stroke="rgb(200,225,100)" d="M 1.11055,6.1 l 0.143619,0.275889 0.175775,0.275912 0.199153,0.259542 0.172872,0.188657 -0.701975,0 0,-1 0.0105548,0 z "/>
<path fill="rgb(200,225,100)" stroke="rgb(200,225,100)" d="M 1.80197,7.1 l 0.0481438,0.0525398 0.241197,0.221016 0.00868461,0.00666393 0,0.71978 -1,0 0,-1 0.701975,0 z "/>
<path fill="rgb(200,225,100)" stroke="rgb(200,225,100)" d="M 1.1,8.25097 l 0,-0.150967 1,0 0,0.150889 -0.998231,0 -0.00176896,7.72345e-05 z "/>
<path fill="rgb(200,225,100)" stroke="rgb(200,225,100)" d="M 1.1,10.9698 l 0,-0.218997 0.00176896,7.72345e-05 0.998231,0 0,0.18541 -0.862821,0 -0.0265016,0.00117285 -0.0262944,0.00350939 -0.0258816,0.00581849 -0.0252664,0.00808209 -0.0244537,0.0102825 -0.0087814,0.00464446 z "/>
<path fill="rgb(200,225,100)" stroke="rgb(200,225,100)" d="M 1.1,11.6328 l 0.233619,0.467238 -0.233619,0 0,-0.467238 z "/>
<path fill="rgb(200,225,100)" stroke="rgb(200,225,100)" d="M 1.33362,12.1 l 0.5,1 -0.733619,0 0,-1 0.233619,0 z "/>
<path fill="rgb(200,225,100)" stroke="rgb(200,225,100)" d="M 1.83362,13.1 l 0.266381,0.532762 0,0.467238 -1,0 0,-1 0.733619,0 z "/>
<path fill="rgb(200,225,100)" stroke="rgb(200,225,100)" d="M 1.1,14.1 l 1,0 0,1 -1,0 0,-1 z "/>
<path fill="rgb(200,225,100)" stroke="rgb(200,225,100)" d="M 1.1,15.1 l 1,0 0,1 -1,0 0,-1 z "/>
<path fill="rgb(200,225,100)" stroke="rgb(200,225,100)" d="M 7.1,14.1 l 1,0 0,1 -1,0 0,-1 z "/>
<path fill="rgb(200,225,100)" stroke="rgb(200,225,100)" d="M 7.1,15.1 l 1,0 0,1 -1,0 0,-1 z "/>
<path fill="rgb(200,225,100)" stroke="rgb(200,225,100)" d="M 7.1,16.1 l 1,0 0,1 -1,0 0,-1 z "/>
<path fill="rgb(200,225,100)" stroke="rgb(200,225,100)" d="M 7.1,17.1 l 1,0 0,1 -1,0 0,-1 z "/>
<path fill="rgb(200,225,100)" stroke="rgb(200,225,100)" d="M 7.1,18.9018 l 0,-0.801779 1,0 0,0.801779 -1,0 z "/>
<path fill="rgb(200,225,100)" stroke="rgb(200,225,100)" d="M 8.75354,0.1 l 0.0130734,0.000570795 0.0129739,0.00170804 0.0127756,0.00283229 0.0124802,0.00393498 0.0120897,0.00500773 0.0116073,0.00604236 0.0110365,0.007031 0.0103817,0.00796614 0.00964788,0.00884065 0.00884065,0.00964788 0.00796614,0.0103817 0.007031,0.0110365 0.00604236,0.0116073 0.00500773,0.0120897 0.00393498,0.0124802 0.00283229,0.0127756 0.00170804,0.0129739 0.000570795,0.0130734 0,0.85 -0.803538,0 0,-1 0.653538,0 z "/>
<path fill="rgb(200,225,100)" stroke="rgb(200,225,100)" d="M 8.90354,1.1 l 0,1 -0.803538,0 0,-1 0.803538,0 z "/>
<path fill="rgb(200,225,100)" stroke="rgb(200,225,100)" d="M 8.90354,2.1 l 0,1 -0.803538,0 0,-1 0.803538,0 z "/>
<path fill="rgb(200,225,100)" stroke="rgb(200,225,100)" d="M 8.90354,3.1 l 0,1 -0.675788,0 -0.0329515,-0.250291 -0.0708072,-0.319391 -0.0239908,-0.0760891 0,-0.354229 0.803538,0 z "/>
<path fill="rgb(200,225,100)" stroke="rgb(200,225,100)" d="M 8.90354,4.1 l 0,1 -0.701885,0 0.0358459,-0.272277 0.0142699,-0.326834 -0.0142699,-0.326834 -0.00974957,-0.0740553 0.675788,0 z "/>
<path fill="rgb(200,225,100)" stroke="rgb(200,225,100)" d="M 8.90354,5.1 l 0,1 -0.803538,0 0,-0.55245 0.0239908,-0.0760891 0.0708072,-0.319391 0.00685515,-0.05207 0.701885,0 z "/>
<path fill="rgb(200,225,100)" stroke="rgb(200,225,100)" d="M 1.1,2.92359 l -0.0730712,0.176409 -0.926929,0 0,-1 1,0 0,0.823591 z "/>
<path fill="rgb(200,225,100)" stroke="rgb(200,225,100)" d="M 8.90354,6.1 l 0,1 -0.803538,0 0,-1 0.803538,0 z "/>
<path fill="rgb(200,225,100)" stroke="rgb(200,225,100)" d="M 8.90354,7.1 l 0,1 -0.803538,0 0,-1 0.803538,0 z "/>
<path fill="rgb(200,225,100)" stroke="rgb(200,225,100)" d="M 8.90354,8.1 l 0,1 -0.751769,0 0,-0.599111 -0.000951325,-0.0217889 -0.00284674,-0.0216231 -0.00472048,-0.0212927 -0.0065583,-0.0208003 -0.00834621,-0.0201495 -0.0100706,-0.0193454 -0.0117183,-0.0183941 -0.00655697,-0.00854521 0,-0.24895 0.803538,0 z "/>
<path fill="rgb(200,225,100)" stroke="rgb(200,225,100)" d="M 8.90354,9.1 l 0,1 -0.751769,0 0,-1 0.751769,0 z "/>
<path fill="rgb(200,225,100)" stroke="rgb(200,225,100)" d="M 8.90354,10.1 l 0,1 -0.803538,0 0,-0.447171 0.00655697,-0.00854521 0.0117183,-0.0183941 0.0100706,-0.0193454 0.00834621,-0.0201495 0.0065583,-0.0208003 0.00472048,-0.0212927 0.00284674,-0.0216231 0.000951325,-0.0217889 0,-0.400889 0.751769,0 z "/>
<path fill="rgb(200,225,100)" stroke="rgb(200,225,100)" d="M 8.90354,11.1 l 0,1 -0.803538,0 0,-1 0.803538,0 z "/>
<path fill="rgb(200,225,100)" stroke="rgb(200,225,100)" d="M 1.1,16.1 l 1,0 0,1 -1,0 0,-1 z "/>
<path fill="rgb(200,225,100)" stroke="rgb(200,225,100)" d="M 8.90354,12.1 l 0,1 -0.803538,0 0,-1 0.803538,0 z "/>
<path fill="rgb(200,225,100)" stroke="rgb(200,225,100)" d="M 8.90354,13.1 l 0,1 -0.803538,0 0,-1 0.803538,0 z "/>
<path fill="rgb(200,225,100)" stroke="rgb(200,225,100)" d="M 8.90354,14.1 l 0,1 -0.803538,0 0,-1 0.803538,0 z "/>
<path fill="rgb(200,225,100)" stroke="rgb(200,225,100)" d="M 1.1,17.1 l 1,0 0,1 -1,0 0,-1 z "/>
<path fill="rgb(200,225,100)" stroke="rgb(200,225,100)" d="M 8.90354,16.1 l 0,1 -0.803538,0 0,-1 0.803538,0 z "/>
<path fill="rgb(200,225,100)" stroke="rgb(200,225,100)" d="M 8.90354,17.1 l 0,1 -0.803538,0 0,-1 0.803538,0 z "/>
<path fill="rgb(200,225,100)" stroke="rgb(200,225,100)" d="M 8.1,18.1 l 0.803538,0 0,0.651779 -0.000570795,0.0130734 -0.00170804,0.0129739 -0.00283229,0.0127756 -0.00393498,0.0124802 -0.00500773,0.0120897 -0.00604236,0.0116073 -0.007031,0.0110365 -0.00796614,0.0103817 -0.00884065,0.00964788 -0.00964788,0.00884065 -0.0103817,0.00796614 -0.0110365,0.007031 -0.0116073,0.00604236 -0.0120897,0.00500773 -0.0124802,0.00393498 -0.0127756,0.00283229 -0.0129739,0.00170804 -0.0130734,0.000570795 -0.653538,0 0,-0.801779 z "/>
<path fill="rgb(200,225,100)" stroke="rgb(200,225,100)" d="M 1.1,0.1 l 0,1 -1,0 8.88178e-16,-0.85 0.000570795,-0.0130734 0.00170804,-0.0129739 0.00283229,-0.0127756 0.00393498,-0.0124802 0.00500773,-0.0120897 0.00604236,-0.0116073 0.007031,-0.0110365 0.00796614,-0.0103817 0.00884065,-0.00964788 0.00964788,-0.00884065 0.0103817,-0.00796614 0.0110365,-0.007031 0.0116073,-0.00604236 0.0120897,-0.00500773 0.0124802,-0.00393498 0.0127756,-0.00283229 0.0129739,-0.00170804 0.0130734,-0.000570795 0.85,0 z "/>
<path fill="rgb(200,225,100)" stroke="rgb(200,225,100)" d="M 6.1,1.10922 l 0,-0.00921732 1,0 0,0.700289 -0.187778,-0.172066 -0.259542,-0.199154 -0.275912,-0.175775 -0.276769,-0.144077 z "/>
<path fill="rgb(200,225,100)" stroke="rgb(200,225,100)" d="M 3.33362,16.1 l 0.5,1 -0.733619,0 0,-1 0.233619,0 z "/>
<path fill="rgb(200,225,100)" stroke="rgb(200,225,100)" d="M 0.1,1.1 l 1,0 0,1 -1,0 0,-1 z "/>
<path fill="rgb(200,225,100)" stroke="rgb(200,225,100)" d="M 1.02693,3.1 l -0.0490072,0.118314 -0.0983745,0.312004 -0.0708072,0.319391 -0.0329515,0.250291 -0.675788,0 0,-1 0.926929,0 z "/>
<path fill="rgb(200,225,100)" stroke="rgb(200,225,100)" d="M 1.1,18.9018 l 0,-0.801779 1,0 0,0.801779 -1,0 z "/>
<path fill="rgb(200,225,100)" stroke="rgb(200,225,100)" d="M 3.1,0.1 l 0,0.926414 -0.177653,0.0735864 -0.822347,0 0,-1 1,0 z "/>
<path fill="rgb(200,225,100)" stroke="rgb(200,225,100)" d="M 2.92235,1.1 l -0.00539621,0.00223518 -0.290182,0.151059 -0.275912,0.175775 -0.250857,0.19249 0,-0.521559 0.822347,0 z "/>
<path fill="rgb(200,225,100)" stroke="rgb(200,225,100)" d="M 2.1,8.1 l 0,-0.71978 0.250857,0.19249 0.275912,0.175775 0.290182,0.151059 0.18305,0.0758216 0,0.124635 -1,0 z "/>
<path fill="rgb(200,225,100)" stroke="rgb(200,225,100)" d="M 2.1,8.25089 l 0,-0.150889 1,0 0,0.150889 -1,0 z "/>
<path fill="rgb(200,225,100)" stroke="rgb(200,225,100)" d="M 2.1,10.9363 l 0,-0.18541 1,0 0,0.18541 -1,0 z "/>
<path fill="rgb(200,225,100)" stroke="rgb(200,225,100)" d="M 2.1,13.6328 l 0.233619,0.467238 -0.233619,0 0,-0.467238 z "/>
<path fill="rgb(200,225,100)" stroke="rgb(200,225,100)" d="M 2.33362,14.1 l 0.5,1 -0.733619,0 0,-1 0.233619,0 z "/>
<path fill="rgb(200,225,100)" stroke="rgb(200,225,100)" d="M 2.83362,15.1 l 0.266381,0.532762 0,0.467238 -1,0 0,-1 0.733619,0 z "/>
<path fill="rgb(200,225,100)" stroke="rgb(200,225,100)" d="M 2.1,16.1 l 1,0 0,1 -1,0 0,-1 z "/>
<path fill="rgb(200,225,100)" stroke="rgb(200,225,100)" d="M 2.1,17.1 l 1,0 0,1 -1,0 0,-1 z "/>
<path fill="rgb(200,225,100)" stroke="rgb(200,225,100)" d="M 2.1,18.9018 l 0,-0.801779 1,0 0,0.801779 -1,0 z "/>
<path fill="rgb(200,225,100)" stroke="rgb(200,225,100)" d="M 4.1,0.1 l 0,0.675025 -0.249412,0.0328357 -0.319391,0.0708072 -0.312004,0.0983745 -0.119193,0.0493715 0,-0.926414 1,0 z "/>
<path fill="rgb(200,225,100)" stroke="rgb(200,225,100)" d="M 3.1,8.1 l 0,-0.124635 0.119193,0.0493715 0.238705,0.0752633 -0.357898,0 z "/>
<path fill="rgb(200,225,100)" stroke="rgb(200,225,100)" d="M 3.4579,8.1 l 0.0732994,0.0231112 0.319391,0.0708072 0.249412,0.0328357 0,0.0241353 -1,0 0,-0.150889 0.357898,0 z "/>
<path fill="rgb(200,225,100)" stroke="rgb(200,225,100)" d="M 3.1,10.9363 l 0,-0.18541 1,0 0,0.18541 -1,0 z "/>
<path fill="rgb(200,225,100)" stroke="rgb(200,225,100)" d="M 3.1,15.6328 l 0.233619,0.467238 -0.233619,0 0,-0.467238 z "/>
<path fill="rgb(200,225,100)" stroke="rgb(200,225,100)" d="M 8.90354,15.1 l 0,1 -0.803538,0 0,-1 0.803538,0 z "/>
<path fill="rgb(200,225,100)" stroke="rgb(200,225,100)" d="M 3.83362,17.1 l 0.266381,0.532762 0,0.467238 -1,0 0,-1 0.733619,0 z "/>
<path fill="rgb(200,225,100)" stroke="rgb(200,225,100)" d="M 3.1,18.9018 l 0,-0.801779 1,0 0,0.801779 -1,0 z "/>
<path fill="rgb(200,225,100)" stroke="rgb(200,225,100)" d="M 5.1,0.1 l 0,0.700889 -0.271397,-0.0357301 -0.326834,-0.0142699 -0.326834,0.0142699 -0.0749349,0.00986537 0,-0.675025 1,0 z "/>
<path fill="rgb(200,225,100)" stroke="rgb(200,225,100)" d="M 5.1,8.20089 l 0,0.05 -0.598231,0 0.326834,-0.0142699 0.271397,-0.0357301 z M 4.1,8.25089 l 0,-0.0241353 0.0749349,0.00986536 0.326834,0.0142699 -0.401769,0 z "/>
<path fill="rgb(200,225,100)" stroke="rgb(200,225,100)" d="M 4.1,10.9363 l 0,-0.18541 1,0 0,0.18541 -0.598231,0 -0.401769,0 z "/>
<path fill="rgb(200,225,100)" stroke="rgb(200,225,100)" d="M 4.1,17.6328 l 0.133441,0.266882 0.0123848,0.0223384 0.0142401,0.0212039 0.0159921,0.0199158 0.0176283,0.0184833 0.0191366,0.0169168 0.0205062,0.0152277 0.0217272,0.0134282 0.0227907,0.0115313 0.023689,0.00955089 0.0244155,0.00750124 0.0249651,0.00539721 0.0253337,0.00325405 0.0255187,0.00108731 0.0255187,-0.00108731 0.0253337,-0.00325405 0.0249651,-0.00539721 0.0244155,-0.00750124 0.023689,-0.00955089 0.0227907,-0.0115313 0.0217272,-0.0134282 0.0205062,-0.0152277 0.0191366,-0.0169168 0.0176283,-0.0184833 0.0159921,-0.0199158 0.0142401,-0.0212039 0.0123848,-0.0223384 0.329903,-0.659806 0,0.860162 -1,0 0,-0.467238 z "/>
<path fill="rgb(200,225,100)" stroke="rgb(200,225,100)" d="M 4.1,18.9018 l 0,-0.801779 1,0 0,0.801779 -1,0 z "/>
<path fill="rgb(200,225,100)" stroke="rgb(200,225,100)" d="M 6.1,0.1 l 0,1 -0.0188088,0 -0.296847,-0.122958 -0.312004,-0.0983745 -0.319391,-0.0708072 -0.0529496,-0.00697095 0,-0.700889 1,0 z "/>
<path fill="rgb(200,225,100)" stroke="rgb(200,225,100)" d="M 6.08119,1.1 l 0.0188088,0 0,0.00921732 -0.0134126,-0.00698214 -0.00539621,-0.00223518 z "/>
<path fill="rgb(200,225,100)" stroke="rgb(200,225,100)" d="M 6.1,7.89256 l 0,0.207439 -0.55436,0 0.238705,-0.0752633 0.302243,-0.125193 0.0134125,-0.0069821 z "/>
<path fill="rgb(200,225,100)" stroke="rgb(200,225,100)" d="M 5.1,8.25089 l 0,-0.05 0.0529497,-0.00697097 0.319391,-0.0708072 0.0732994,-0.0231112 0.55436,0 0,0.150889 -1,0 z "/>
<path fill="rgb(200,225,100)" stroke="rgb(200,225,100)" d="M 5.1,10.9363 l 0,-0.18541 1,0 0,0.18541 -1,1.77636e-15 z "/>
<path fill="rgb(200,225,100)" stroke="rgb(200,225,100)" d="M 6.1,15.2398 l 0,0.860162 -0.430081,0 0.430081,-0.860162 z "/>
<path fill="rgb(200,225,100)" stroke="rgb(200,225,100)" d="M 5.66992,16.1 l 0.430081,0 0,1 -0.930081,0 0.5,-1 z "/>
<path fill="rgb(200,225,100)" stroke="rgb(200,225,100)" d="M 5.1,17.2398 l 0.0699188,-0.139838 0.930081,0 0,1 -1,0 0,-0.860162 z "/>
<path fill="rgb(200,225,100)" stroke="rgb(200,225,100)" d="M 5.1,18.9018 l 0,-0.801779 1,0 0,0.801779 -1,0 z "/>
<path fill="rgb(200,225,100)" stroke="rgb(200,225,100)" d="M 6.1,0.1 l 1,0 0,1 -1,0 0,-1 z "/>
<path fill="rgb(200,225,100)" stroke="rgb(200,225,100)" d="M 6.1,7.89256 l 0.276769,-0.144077 0.275912,-0.175775 0.259542,-0.199154 0.187777,-0.172066 0,0.89851 -1,0 0,-0.207439 z "/>
<path fill="rgb(200,225,100)" stroke="rgb(200,225,100)" d="M 6.1,8.25089 l 0,-0.150889 1,0 0,0.150889 -1,0 z "/>
<path fill="rgb(200,225,100)" stroke="rgb(200,225,100)" d="M 7.1,13.2398 l 0,0.860162 -0.430081,0 0.430081,-0.860162 z "/>
<path fill="rgb(200,225,100)" stroke="rgb(200,225,100)" d="M 6.66992,14.1 l 0.430081,0 0,1 -0.930081,0 0.5,-1 z "/>
<path fill="rgb(200,225,100)" stroke="rgb(200,225,100)" d="M 6.1,15.2398 l 0.0699188,-0.139838 0.930081,0 0,1 -1,0 0,-0.860162 z "/>
<path fill="rgb(200,225,100)" stroke="rgb(200,225,100)" d="M 6.1,16.1 l 1,0 0,1 -1,0 0,-1 z "/>
<path fill="rgb(200,225,100)" stroke="rgb(200,225,100)" d="M 6.1,17.1 l 1,0 0,1 -1,0 0,-1 z "/>
<path fill="rgb(200,225,100)" stroke="rgb(200,225,100)" d="M 6.1,18.9018 l 0,-0.801779 1,0 0,0.801779 -1,0 z "/>
<path fill="rgb(200,225,100)" stroke="rgb(200,225,100)" d="M 7.1,0.1 l 1,0 0,1 -1,0 0,-1 z "/>
<path fill="rgb(200,225,100)" stroke="rgb(200,225,100)" d="M 7.1,1.80029 l 0,-0.700289 1,0 0,1 -0.718226,0 -0.00733883,-0.00956415 -0.221016,-0.241197 -0.0534194,-0.0489499 z "/>
<path fill="rgb(200,225,100)" stroke="rgb(200,225,100)" d="M 7.38177,2.1 l 0.718226,0 0,1 -0.123391,0 -0.0761859,-0.183929 -0.151059,-0.290182 -0.175775,-0.275912 -0.191815,-0.249978 z "/>
<path fill="rgb(200,225,100)" stroke="rgb(200,225,100)" d="M 7.97661,3.1 l 0.123391,0 0,0.354229 -0.0743837,-0.235915 -0.0490072,-0.118314 z "/>
<path fill="rgb(200,225,100)" stroke="rgb(200,225,100)" d="M 8.1,5.54755 l 0,0.55245 -0.207017,0 0.00744003,-0.0142922 0.125193,-0.302243 0.0743837,-0.235915 z "/>
<path fill="rgb(200,225,100)" stroke="rgb(200,225,100)" d="M 7.89298,6.1 l 0.207017,0 0,1 -0.898437,0 0.172872,-0.188657 0.199153,-0.259542 0.175775,-0.275912 0.143619,-0.275889 z "/>
<path fill="rgb(200,225,100)" stroke="rgb(200,225,100)" d="M 7.1,7.20149 l 0.0534194,-0.0489499 0.0481438,-0.0525398 0.898437,0 0,1 -1,0 0,-0.89851 z "/>
<path fill="rgb(200,225,100)" stroke="rgb(200,225,100)" d="M 7.1,8.25089 l 0,-0.150889 1,0 0,0.24895 -0.00671993,-0.00875758 -0.0147344,-0.0160798 -0.0160798,-0.0147344 -0.0173028,-0.0132769 -0.0183941,-0.0117183 -0.0193454,-0.0100706 -0.0201495,-0.00834621 -0.0208003,-0.0065583 -0.0212927,-0.00472048 -0.0216231,-0.00284674 -0.0217889,-0.000951325 -0.801769,0 z "/>
<path fill="rgb(200,225,100)" stroke="rgb(200,225,100)" d="M 7.1,10.9363 l 0,-0.18541 0.801769,0 0.0217889,-0.000951325 0.0216231,-0.00284674 0.0212927,-0.00472048 0.0208003,-0.0065583 0.0201495,-0.00834621 0.0193454,-0.0100706 0.0183941,-0.0117183 0.0173028,-0.0132769 0.0160798,-0.0147344 0.0147344,-0.0160798 0.00671993,-0.00875758 0,0.447171 -0.0667126,0 -0.00500973,-0.00998267 -0.0139464,-0.0225657 -0.0158853,-0.0212455 -0.0177,-0.0197591 -0.0193763,-0.0181183 -0.0209011,-0.0163358 -0.0222624,-0.0144255 -0.0234497,-0.0124025 -0.0244537,-0.0102825 -0.0252664,-0.00808209 -0.0258816,-0.00581849 -0.0262944,-0.00350939 -0.0265016,-0.00117285 -0.666359,0 z "/>
<path fill="rgb(241,240,234)" stroke="rgb(241,240,234)" d="M 7.15177,4.50089 l -0.00190943,-0.10058 -0.00572554,-0.100435 -0.0095334,-0.100145 0,0.30116 0.0171684,0 z "/>
<path fill="rgb(241,240,234)" stroke="rgb(241,240,234)" d="M 2.44268,2.83276 l -4.52414e-08,0 0.1564,-0.176397 0.171459,-0.161799 0.18516,-0.145921 0.197396,-0.128888 0.208069,-0.110835 0.217096,-0.0919042 0.224405,-0.0722464 0.229938,-0.0520169 0.233651,-0.0313757 0.235515,-0.0104862 0.235515,0.0104862 0.233651,0.0313757 0.229938,0.0520169 0.224405,0.0722464 0.217096,0.0919042 0.208069,0.110835 0.197396,0.128888 0.18516,0.145921 0.171459,0.161799 0.1564,0.176397 -4.52414e-08,0 -0.1564,-0.176397 -0.171459,-0.161799 -0.18516,-0.145921 -0.197396,-0.128888 -0.208069,-0.110835 -0.217096,-0.0919042 -0.224405,-0.0722464 -0.229938,-0.0520169 -0.233651,-0.0313757 -0.235515,-0.0104862 -0.235515,0.0104862 -0.233651,0.0313757 -0.229938,0.0520169 -0.224405,0.0722464 -0.217096,0.0919042 -0.208069,0.110835 -0.197396,0.128888 -0.18516,0.145921 -0.171459,0.161799 -0.1564,0.176397 z "/>
<path fill="rgb(241,240,234)" stroke="rgb(241,240,234)" d="M 2.06894,3.45026 l 0,-5.58446e-08 0.105637,-0.216909 0.124927,-0.206403 0.143181,-0.194185 4.52414e-08,0 -0.143181,0.194185 -0.124927,0.206403 -0.105637,0.216909 z "/>
<path fill="rgb(241,240,234)" stroke="rgb(241,240,234)" d="M 7.15177,4.50089 l -0.00190943,-0.10058 -0.00572554,-0.100435 -0.0095334,-0.100145 0,-5.58446e-08 0.0095334,0.100145 0.00572554,0.100435 0.00190943,0.10058 z "/>
<path fill="rgb(241,240,234)" stroke="rgb(241,240,234)" d="M 2.06894,4.50089 l -4.44089e-16,-1.05063 0.105637,-0.216909 0.124927,-0.206403 0.143181,-0.194185 4.11817,0 0.148216,0.201736 0.128519,0.214821 0.107675,0.22599 0.0858706,0.235141 0.0632998,0.242195 0.0401642,0.247087 0,0.30116 -5.06566,0 z "/>
<path fill="rgb(241,240,234)" stroke="rgb(241,240,234)" d="M 7.1346,4.19973 l 0,5.58446e-08 -0.0401642,-0.247087 -0.0632998,-0.242195 -0.0858706,-0.235141 -0.107675,-0.22599 -0.128519,-0.214821 -0.148216,-0.201736 4.52414e-08,0 0.148216,0.201736 0.128519,0.214821 0.107675,0.22599 0.0858706,0.235141 0.0632998,0.242195 0.0401642,0.247087 z "/>
<path fill="rgb(241,240,234)" stroke="rgb(241,240,234)" d="M 2.44268,2.83276 l 4.11817,0 -0.1564,-0.176397 -0.171459,-0.161799 -0.18516,-0.145921 -0.197396,-0.128888 -0.208069,-0.110835 -0.217096,-0.0919042 -0.224405,-0.0722464 -0.229938,-0.0520169 -0.233651,-0.0313757 -0.235515,-0.0104862 -0.235515,0.0104862 -0.233651,0.0313757 -0.229938,0.0520169 -0.224405,0.0722464 -0.217096,0.0919042 -0.208069,0.110835 -0.197396,0.128888 -0.18516,0.145921 -0.171459,0.161799 -0.1564,0.176397 z "/>
<path fill="rgb(241,240,234)" stroke="rgb(241,240,234)" d="M 1.85177,4.50089 l 0.217168,0 -4.44089e-16,-1.05063 -0.0774843,0.201626 -0.0608061,0.207266 -0.0437238,0.21153 -0.026351,0.214388 -0.00880317,0.215822 z "/>
<path fill="rgb(241,240,234)" stroke="rgb(241,240,234)" d="M 1.85177,4.50089 l 0.00880317,-0.215822 0.026351,-0.214388 0.0437238,-0.21153 0.0608061,-0.207267 0.0774843,-0.201626 0,5.58446e-08 -0.0774843,0.201626 -0.0608061,0.207266 -0.0437238,0.21153 -0.026351,0.214388 -0.00880317,0.215822 z "/>
<path fill="rgb(241,240,234)" stroke="rgb(241,240,234)" d="M 1.85177,4.50089 l 0.00880317,0.215822 0.026351,0.214388 0.0437238,0.21153 0.0608061,0.207266 0.0774843,0.201626 0,-1.05063 -0.217168,0 z "/>
<path fill="rgb(241,240,234)" stroke="rgb(241,240,234)" d="M 1.85177,4.50089 l 0.00880317,0.215822 0.026351,0.214388 0.0437238,0.21153 0.0608061,0.207266 0.0774843,0.201626 0,5.58446e-08 -0.0774843,-0.201626 -0.0608061,-0.207267 -0.0437238,-0.21153 -0.026351,-0.214388 -0.00880317,-0.215822 z "/>
<path fill="rgb(241,240,234)" stroke="rgb(241,240,234)" d="M 7.15177,4.50089 l -0.0171684,0 0,0.30116 0.0095334,-0.100145 0.00572554,-0.100435 0.00190943,-0.10058 z "/>
<path fill="rgb(241,240,234)" stroke="rgb(241,240,234)" d="M 7.15177,4.50089 l -0.00190943,0.10058 -0.00572554,0.100435 -0.0095334,0.100145 0,-5.58446e-08 0.0095334,-0.100145 0.00572554,-0.100435 0.00190943,-0.10058 z "/>
<path fill="rgb(241,240,234)" stroke="rgb(241,240,234)" d="M 2.06894,5.55152 l 0,-5.58446e-08 0.104994,0.215729 0.124075,0.205349 0.142139,0.193285 -4.51009e-08,0 -0.142139,-0.193285 -0.124075,-0.205349 -0.104994,-0.215729 z "/>
<path fill="rgb(241,240,234)" stroke="rgb(241,240,234)" d="M 2.06894,5.55152 l 0,-1.05063 5.06566,0 0,0.30116 -0.0400253,0.24643 -0.0630383,0.24157 -0.0854918,0.234565 -0.107186,0.225479 -0.12793,0.214391 -0.147538,0.201401 -4.12324,0 -0.142139,-0.193285 -0.124075,-0.205349 -0.104994,-0.215729 z "/>
<path fill="rgb(241,240,234)" stroke="rgb(241,240,234)" d="M 7.1346,4.80205 l 0,5.58446e-08 -0.0400253,0.24643 -0.0630383,0.24157 -0.0854918,0.234565 -0.107186,0.225479 -0.12793,0.214391 -0.147538,0.201401 -4.51009e-08,0 0.147538,-0.201401 0.12793,-0.214391 0.107186,-0.225479 0.0854918,-0.234565 0.0630383,-0.24157 0.0400253,-0.24643 z "/>
<path fill="rgb(241,240,234)" stroke="rgb(241,240,234)" d="M 2.44015,6.16589 l 4.51009e-08,0 0.156412,0.176925 0.171542,0.162298 0.185309,0.146382 0.197605,0.129303 0.208332,0.111198 0.217404,0.09221 0.22475,0.0724895 0.230311,0.0521934 0.234043,0.0314827 0.235916,0.0105221 0.235916,-0.0105221 0.234043,-0.0314827 0.230311,-0.0521934 0.22475,-0.0724895 0.217404,-0.09221 0.208332,-0.111198 0.197605,-0.129303 0.185309,-0.146382 0.171542,-0.162298 0.156412,-0.176925 4.51009e-08,0 -0.156412,0.176925 -0.171542,0.162298 -0.185309,0.146382 -0.197605,0.129303 -0.208332,0.111198 -0.217404,0.09221 -0.22475,0.0724895 -0.230311,0.0521934 -0.234043,0.0314827 -0.235916,0.0105221 -0.235916,-0.0105221 -0.234043,-0.0314827 -0.230311,-0.0521934 -0.22475,-0.0724895 -0.217404,-0.09221 -0.208332,-0.111198 -0.197605,-0.129303 -0.185309,-0.146382 -0.171542,-0.162298 -0.156412,-0.176925 z "/>
<path fill="rgb(241,240,234)" stroke="rgb(241,240,234)" d="M 2.44015,6.16589 l 0.156412,0.176925 0.171542,0.162298 0.185309,0.146382 0.197605,0.129303 0.208332,0.111198 0.217404,0.09221 0.22475,0.0724895 0.230311,0.0521934 0.234043,0.0314827 0.235916,0.0105221 0.235916,-0.0105221 0.234043,-0.0314827 0.230311,-0.0521934 0.22475,-0.0724895 0.217404,-0.09221 0.208332,-0.111198 0.197605,-0.129303 0.185309,-0.146382 0.171542,-0.162298 0.156412,-0.176925 -4.12324,0 z "/>
<path fill="rgb(241,240,234)" stroke="rgb(241,240,234)" d="M 7.85177,4.50089 l 0.2,0 -0.0135088,-0.309403 -0.0404237,-0.307048 -0.0670308,-0.302357 -0.0931279,-0.295364 -0.118516,-0.286123 -0.143002,-0.274705 -0.1664,-0.261196 -0.188532,-0.2457 -0.209229,-0.228333 -0.228333,-0.209229 -0.2457,-0.188532 -0.261196,-0.1664 -0.274705,-0.143002 -0.286123,-0.118516 -0.295364,-0.0931279 -0.302357,-0.0670308 -0.307048,-0.0404237 -0.309403,-0.0135088 -0.309403,0.0135088 -0.307048,0.0404237 -0.302357,0.0670308 -0.295364,0.0931279 -0.286123,0.118516 -0.274705,0.143002 -0.261196,0.1664 -0.2457,0.188532 -0.228333,0.209229 -0.209229,0.228333 -0.188532,0.2457 -0.1664,0.261196 -0.143002,0.274705 -0.118516,0.286123 -0.0931279,0.295364 -0.0670308,0.302357 -0.0404237,0.307048 -0.0135088,0.309403 0.2,0 0.0127478,-0.291972 0.0381463,-0.28975 0.0632545,-0.285322 0.0878812,-0.278724 0.111839,-0.270004 0.134946,-0.259229 0.157026,-0.246481 0.17791,-0.231857 0.197441,-0.215469 0.215469,-0.197441 0.231857,-0.17791 0.246481,-0.157026 0.259229,-0.134946 0.270004,-0.111839 0.278724,-0.0878812 0.285322,-0.0632545 0.28975,-0.0381463 0.291972,-0.0127478 0.291972,0.0127478 0.28975,0.0381463 0.285322,0.0632545 0.278724,0.0878812 0.270004,0.111839 0.259229,0.134946 0.246481,0.157026 0.231857,0.17791 0.215469,0.197441 0.197441,0.215469 0.17791,0.231857 0.157026,0.246481 0.134946,0.259229 0.111839,0.270004 0.0878812,0.278724 0.0632545,0.285322 0.0381463,0.28975 0.0127478,0.291972 z "/>
<path fill="rgb(241,240,234)" stroke="rgb(241,240,234)" d="M 8.05177,4.50089 l -0.2,0 -0.0127478,0.291972 -0.0381463,0.28975 -0.0632545,0.285322 -0.0878812,0.278724 -0.111839,0.270004 -0.134946,0.259229 -0.157026,0.246481 -0.17791,0.231857 -0.197441,0.215469 -0.215469,0.197441 -0.231857,0.17791 -0.246481,0.157026 -0.259229,0.134946 -0.270004,0.111839 -0.278724,0.0878812 -0.285322,0.0632545 -0.28975,0.0381463 -0.291972,0.0127478 -0.291972,-0.0127478 -0.28975,-0.0381463 -0.285322,-0.0632545 -0.278724,-0.0878812 -0.270004,-0.111839 -0.259229,-0.134946 -0.246481,-0.157026 -0.231857,-0.17791 -0.215469,-0.197441 -0.197441,-0.215469 -0.17791,-0.231857 -0.157026,-0.246481 -0.134946,-0.259229 -0.111839,-0.270004 -0.0878812,-0.278724 -0.0632545,-0.285322 -0.0381463,-0.28975 -0.0127478,-0.291972 -0.2,0 0.0135088,0.309403 0.0404237,0.307048 0.0670308,0.302357 0.0931279,0.295364 0.118516,0.286123 0.143002,0.274705 0.1664,0.261196 0.188532,0.2457 0.209229,0.228333 0.228333,0.209229 0.2457,0.188532 0.261196,0.1664 0.274705,0.143002 0.286123,0.118516 0.295364,0.0931279 0.302357,0.0670308 0.307048,0.0404237 0.309403,0.0135088 0.309403,-0.0135088 0.307048,-0.0404237 0.302357,-0.0670308 0.295364,-0.0931279 0.286123,-0.118516 0.274705,-0.143002 0.261196,-0.1664 0.2457,-0.188532 0.228333,-0.209229 0.209229,-0.228333 0.188532,-0.2457 0.1664,-0.261196 0.143002,-0.274705 0.118516,-0.286123 0.0931279,-0.295364 0.0670308,-0.302357 0.0404237,-0.307048 0.0135088,-0.309403 z "/>
<path fill="rgb(241,240,234)" stroke="rgb(241,240,234)" d="M 6.85177,10.7509 l 0,-0.5 1,0 0,0.5 -1,0 z "/>
<path fill="rgb(241,240,234)" stroke="rgb(241,240,234)" d="M 7.85177,9.25089 l 0,-1 0.05,0 0.0217889,0.000951325 0.0216231,0.00284674 0.0212927,0.00472048 0.0208003,0.0065583 0.0201495,0.00834621 0.0193454,0.0100706 0.0183941,0.0117183 0.0173028,0.0132769 0.0160798,0.0147344 0.0147344,0.0160798 0.0132769,0.0173028 0.0117183,0.0183941 0.0100706,0.0193454 0.00834621,0.0201495 0.0065583,0.0208003 0.00472048,0.0212927 0.00284674,0.0216231 0.000951325,0.0217889 0,0.75 -0.3,0 z "/>
<path fill="rgb(241,240,234)" stroke="rgb(241,240,234)" d="M 8.15177,9.25089 l 0,1 -0.3,0 0,-1 0.3,0 z "/>
<path fill="rgb(241,240,234)" stroke="rgb(241,240,234)" d="M 5.85177,8.25089 l 0,1 -1,0 0,-0.0668234 0.652551,0 0,-0.688776 -0.652551,0 0,-0.244401 1,0 z "/>
<path fill="rgb(241,240,234)" stroke="rgb(241,240,234)" d="M 3.85177,9.55624 l 0,-0.305348 1,0 0,0.305348 -1,0 z "/>
<path fill="rgb(241,240,234)" stroke="rgb(241,240,234)" d="M 3.85177,10.7509 l 0,-0.264477 1,0 0,0.264477 -1,0 z "/>
<path fill="rgb(241,240,234)" stroke="rgb(241,240,234)" d="M 4.85177,9.55624 l 0,-0.305348 1,0 0,0.305348 -1,0 z "/>
<path fill="rgb(241,240,234)" stroke="rgb(241,240,234)" d="M 4.85177,10.7509 l 0,-0.264477 1,0 0,0.264477 -1,0 z "/>
<path fill="rgb(241,240,234)" stroke="rgb(241,240,234)" d="M 3.49922,8.49529 l 2.0051,0 0,0.688776 -2.0051,0 0,-0.688776 z "/>
<path fill="rgb(241,240,234)" stroke="rgb(241,240,234)" d="M 3.13449,9.55624 l 2.73455,0 0,0.930175 -2.73455,0 0,-0.930175 z "/>
<path fill="rgb(241,240,234)" stroke="rgb(241,240,234)" d="M 0.851769,9.25089 l 1,0 0,1 -1,0 0,-1 z "/>
<path fill="rgb(241,240,234)" stroke="rgb(241,240,234)" d="M 0.851769,10.2509 l 1,0 0,0.5 -0.75,0 -0.0217889,-0.000951325 -0.0216231,-0.00284674 -0.0212927,-0.00472048 -0.0208003,-0.0065583 -0.0201495,-0.00834621 -0.0193454,-0.0100706 -0.0183941,-0.0117183 -0.0173028,-0.0132769 -0.0160798,-0.0147344 -0.0147344,-0.0160798 -0.0132769,-0.0173028 -0.0117183,-0.0183941 -0.0100706,-0.0193454 -0.00834621,-0.0201495 -0.0065583,-0.0208003 -0.00472048,-0.0212927 -0.00284674,-0.0216231 -0.000951325,-0.0217889 0,-0.25 z "/>
<path fill="rgb(241,240,234)" stroke="rgb(241,240,234)" d="M 1.85177,8.25089 l 1,0 0,1 -1,0 0,-1 z "/>
<path fill="rgb(241,240,234)" stroke="rgb(241,240,234)" d="M 1.85177,9.25089 l 1,0 0,1 -1,0 0,-1 z "/>
<path fill="rgb(241,240,234)" stroke="rgb(241,240,234)" d="M 1.85177,10.2509 l 1,0 0,0.5 -1,0 0,-0.5 z "/>
<path fill="rgb(241,240,234)" stroke="rgb(241,240,234)" d="M 5.85177,8.25089 l 1,0 0,1 -1,0 0,-1 z "/>
<path fill="rgb(241,240,234)" stroke="rgb(241,240,234)" d="M 3.13449,10.2509 l -0.282726,0 0,-1 1,0 0,0.305348 -0.717274,0 0,0.694652 z "/>
<path fill="rgb(241,240,234)" stroke="rgb(241,240,234)" d="M 2.85177,10.7509 l 0,-0.5 0.282726,0 0,0.235523 0.717274,0 0,0.264477 -1,0 z "/>
<path fill="rgb(241,240,234)" stroke="rgb(241,240,234)" d="M 3.85177,9.25089 l 0,-0.0668234 1,0 0,0.0668234 -1,0 z M 4.85177,8.25089 l 0,0.244401 -1,0 0,-0.244401 0.65,0 7.5483e-08,0 7.5483e-08,0 3.62757e-08,0 0.35,0 z "/>
<path fill="rgb(241,240,234)" stroke="rgb(241,240,234)" d="M 5.85177,9.55624 l 0,-0.305348 1,0 0,1 -0.982726,0 0,-0.694652 -0.0172741,0 z "/>
<path fill="rgb(241,240,234)" stroke="rgb(241,240,234)" d="M 7.85177,10.2509 l 0.3,0 0,0.25 -0.000951325,0.0217889 -0.00284674,0.0216231 -0.00472048,0.0212927 -0.0065583,0.0208003 -0.00834621,0.0201495 -0.0100706,0.0193454 -0.0117183,0.0183941 -0.0132769,0.0173028 -0.0147344,0.0160798 -0.0160798,0.0147344 -0.0173028,0.0132769 -0.0183941,0.0117183 -0.0193454,0.0100706 -0.0201495,0.00834621 -0.0208003,0.0065583 -0.0212927,0.00472048 -0.0216231,0.00284674 -0.0217889,0.000951325 -0.05,0 0,-0.5 z "/>
<path fill="rgb(241,240,234)" stroke="rgb(241,240,234)" d="M 1.85177,8.25089 l 0,1 -1,0 1.77636e-15,-0.75 0.000951325,-0.0217889 0.00284674,-0.0216231 0.00472048,-0.0212927 0.0065583,-0.0208003 0.00834621,-0.0201495 0.0100706,-0.0193454 0.0117183,-0.0183941 0.0132769,-0.0173028 0.0147344,-0.0160798 0.0160798,-0.0147344 0.0173028,-0.0132769 0.0183941,-0.0117183 0.0193454,-0.0100706 0.0201495,-0.00834621 0.0208003,-0.0065583 0.0212927,-0.00472048 0.0216231,-0.00284674 0.0217889,-0.000951325 0.75,0 z "/>
<path fill="rgb(241,240,234)" stroke="rgb(241,240,234)" d="M 5.85177,10.7509 l 0,-0.264477 0.0172741,0 0,-0.235523 0.982726,0 0,0.5 -1,0 z "/>
<path fill="rgb(241,240,234)" stroke="rgb(241,240,234)" d="M 6.85177,8.25089 l 1,0 0,1 -1,0 0,-1 z "/>
<path fill="rgb(241,240,234)" stroke="rgb(241,240,234)" d="M 6.85177,9.25089 l 1,0 0,1 -1,0 0,-1 z "/>
<path fill="rgb(241,240,234)" stroke="rgb(241,240,234)" d="M 3.85177,9.18407 l 0,0.0668234 -1,0 0,-1 1,0 0,0.244401 -0.352551,0 0,0.688776 0.352551,0 z "/>
<path fill="rgb(241,240,234)" stroke="rgb(241,240,234)" d="M 4.67227,14.0363 l -0.14066,0 0,0.217865 0.00462133,-0.0111569 0.00724229,-0.0139123 0.00842727,-0.0132282 0.00954811,-0.0124433 0.0105963,-0.0115638 0.0115638,-0.0105963 0.0124433,-0.00954811 0.0132282,-0.00842727 0.0139123,-0.00724229 0.0144906,-0.00600219 0.0149586,-0.00471641 0.0153127,-0.00339474 0.0155503,-0.00204724 0.0156696,-0.000684148 0.0156696,0.000684148 0.0155503,0.00204724 0.0153127,0.00339474 0.0149586,0.00471641 0.0144906,0.00600219 0.0139123,0.00724229 0.0132282,0.00842727 0.0124433,0.00954811 0.0115638,0.0105963 0.0105963,0.0115638 0.00954811,0.0124433 0.00842727,0.0132282 0.00724229,0.0139123 0.00600219,0.0144906 0.00471641,0.0149586 0.00339474,0.0153127 0.00204724,0.0155503 0.000684148,0.0156696 -0.000684148,0.0156696 -0.00204724,0.0155503 -0.00339474,0.0153127 -0.00471641,0.0149586 -0.00600219,0.0144906 -0.00724229,0.0139123 -0.00842727,0.0132282 -0.00954811,0.0124433 -0.0105963,0.0115638 -0.0115638,0.0105963 -0.0124433,0.00954811 -0.0132282,0.00842727 -0.0139123,0.00724229 -0.0144906,0.00600219 -0.0149586,0.00471641 -0.0153127,0.00339474 -0.0155503,0.00204724 -0.0156696,0.000684148 -0.0156696,-0.000684148 -0.0155503,-0.00204724 -0.0153127,-0.00339474 -0.0149586,-0.00471641 -0.0144906,-0.00600219 -0.0139123,-0.00724229 -0.0132282,-0.00842727 -0.0124433,-0.00954811 -0.0115638,-0.0105963 -0.0105963,-0.0115638 -0.00954811,-0.0124433 -0.00842727,-0.0132282 -0.00724229,-0.0139123 -0.00462133,-0.0111569 0,0.652486 0.440325,0 0.5,-1 -0.460006,0 -0.0487339,0.0324865 -0.0170208,0.0103005 -0.0178558,0.00877369 -0.0185542,0.00717976 -0.0191106,0.0055309 -0.0195208,0.00383971 -0.0197817,0.00211915 -0.0198912,0.000382382 -0.0198485,-0.00135732 -0.019654,-0.00308663 -0.0193091,-0.00479233 -0.0188164,-0.00646136 -0.0181798,-0.00808095 -0.0174041,-0.00963872 -0.0164952,-0.0111227 -0.0154601,-0.0125217 -0.0140233,-0.0135509 z "/>
<path fill="rgb(241,240,234)" stroke="rgb(241,240,234)" d="M 5.31396,13.0363 l 0.217646,0 0,-0.151868 -0.213862,0.143331 -0.00378395,0.00853717 z M 5.53161,12.0363 l -1,0 0,1 0.218699,0 -0.0637193,-0.730227 0.118198,0 0.191576,0.730227 0.0765933,0 0.114029,-0.177014 0.344624,-0.155385 0,-0.667601 z "/>
<path fill="rgb(241,240,234)" stroke="rgb(241,240,234)" d="M 4.03161,15.0363 l 0.470163,0.940325 0.0298374,-0.0596748 0,-0.88065 -0.5,0 z "/>
<path fill="rgb(241,240,234)" stroke="rgb(241,240,234)" d="M 4.53161,14.3838 l -0.00138086,-0.00333368 -0.00471641,-0.0149586 -0.00339474,-0.0153127 -0.00204724,-0.0155503 -0.000684148,-0.0156696 0.000684148,-0.0156696 0.00204724,-0.0155503 0.00339474,-0.0153127 0.00471641,-0.0149586 0.00138086,-0.00333368 0,-0.217865 -1,0 0.5,1 0.5,0 0,-0.652486 z "/>
<path fill="rgb(241,240,234)" stroke="rgb(241,240,234)" d="M 3.53161,13.0363 l 0,0.124196 0.224602,0.191635 0.0502893,-0.17349 -0.0237914,-0.142341 -0.2511,0 z M 3.97497,13.845 l -0.000593254,0.0135877 -0.00177525,0.0134843 -0.00294373,0.0132783 -0.00408981,0.0129712 -0.00520476,0.0125654 -0.0062801,0.012064 -0.00730764,0.0114707 -0.00827957,0.0107901 -0.00918849,0.0100275 -0.0100275,0.00918849 -0.0107901,0.00827957 -0.0114707,0.00730764 -0.012064,0.0062801 -0.0125654,0.00520476 -0.0129712,0.00408981 -0.0132783,0.00294373 -0.0134843,0.00177525 -0.0135877,0.000593254 -0.0135877,-0.000593254 -0.0134843,-0.00177525 -0.0132783,-0.00294373 -0.0129712,-0.00408981 -0.0125654,-0.00520476 -0.012064,-0.0062801 -0.0114707,-0.00730764 -0.0107901,-0.00827957 -0.0100275,-0.00918849 -0.00918849,-0.0100275 -0.00827957,-0.0107901 -0.00730764,-0.0114707 -0.0062801,-0.012064 -0.00520476,-0.0125654 -0.00408981,-0.0129712 -0.00294373,-0.0132783 -0.00177525,-0.0134843 -0.000593254,-0.0135877 0.000593254,-0.0135877 0.00177525,-0.0134843 0.00294373,-0.0132783 0.00408981,-0.0129712 0.00520476,-0.0125654 0.0062801,-0.012064 0.00730764,-0.0114707 0.00827957,-0.0107901 0.00918849,-0.0100275 0.0100275,-0.00918849 0.0107901,-0.00827957 0.0114707,-0.00730764 0.012064,-0.0062801 0.0125654,-0.00520476 0.0129712,-0.00408981 0.0132783,-0.00294373 0.0134843,-0.00177525 0.0135877,-0.000593254 0.0135877,0.000593254 0.0134843,0.00177525 0.0132783,0.00294373 0.0129712,0.00408981 0.0125654,0.00520476 0.012064,0.0062801 0.0114707,0.00730764 0.0107901,0.00827957 0.0100275,0.00918849 0.00918849,0.0100275 0.00827957,0.0107901 0.00730764,0.0114707 0.0062801,0.012064 0.00520476,0.0125654 0.00408981,0.0129712 0.00294373,0.0132783 0.00177525,0.0134843 0.000593254,0.0135877 z M 4.53161,13.5692 l 0,-0.532881 -0.387423,0 -0.0585722,0.180055 -0.0226327,0.206191 0.103096,-0.0528165 0.110647,-0.120694 0.0528063,0.0628641 -0.120704,0.186075 -0.221283,0.10813 -0.0176043,0.00769784 -0.0181918,0.00618252 -0.0186493,0.00462296 -0.0189732,0.00303032 -0.0191615,0.00141601 -0.0192126,-0.000208444 -0.0191262,-0.0018314 -0.018903,-0.00344126 -0.0185446,-0.00502649 -0.0180534,-0.00657576 -0.0174331,-0.00807797 -0.016688,-0.00952239 -0.0158236,-0.0108987 -0.219568,-0.295043 0,0.747871 1,0 0,-0.213756 -0.237287,-0.369834 0.0880139,-0.050279 0.149273,0.16675 z "/>
<path fill="rgb(241,240,234)" stroke="rgb(241,240,234)" d="M 4.53161,12.0363 l -0.0298374,0 -0.970163,0 0,1 0.2511,0 -0.122053,-0.730227 0.108119,0 0.208708,0.56326 0.123221,-0.201157 0.402324,-0.113164 0.0150817,0.110647 -0.296712,0.133279 -0.0772139,0.237361 0.387423,0 0,-1 z "/>
<path fill="rgb(241,240,234)" stroke="rgb(241,240,234)" d="M 3.53161,13.1605 l 0,-0.124196 -0.5,0 0.5,1 0,-0.747871 -0.102293,-0.137455 0.0528063,-0.0327008 0.0494869,0.0422231 z "/>
<path fill="rgb(241,240,234)" stroke="rgb(241,240,234)" d="M 3.53161,12.0363 l -1,0 0.5,1 0.5,0 0,-1 z "/>
<path fill="rgb(241,240,234)" stroke="rgb(241,240,234)" d="M 4.75031,13.0363 l -0.218699,0 0,0.532881 0.12985,0.145053 0.123211,-0.284137 -0.0343626,-0.393797 z M 5.07295,13.0363 l -0.0765933,0 0.0221662,0.0844903 0.0544271,-0.0844903 z M 4.53161,14.0363 l 0.14066,0 -0.000283434,-0.000273886 -0.0130439,-0.0150221 -0.127333,-0.19846 0,0.213756 z M 5.47193,14.0363 l 0.0596748,-0.11935 0,-0.88065 -0.217646,0 -0.202407,0.456662 -0.0326804,0.299219 0.0703947,-0.0351974 0.150878,-0.238892 0.0905309,0.0226327 -0.186075,0.367137 -0.192675,0.128439 0.460006,0 z "/>
<path fill="rgb(241,240,234)" stroke="rgb(241,240,234)" d="M 5.53161,13.0363 l 0,0.88065 0.440325,-0.88065 -0.440325,0 z "/>
<path fill="rgb(241,240,234)" stroke="rgb(241,240,234)" d="M 5.53161,13.0363 l 0.440325,0 0.5,-1 -0.940325,0 0,0.667601 0.218656,-0.0985884 0.0402314,0.105613 -0.258888,0.173507 0,0.151868 z "/>
<path fill="rgb(241,240,234)" stroke="rgb(241,240,234)" d="M 4.53161,15.0363 l 0,0.88065 0.440325,-0.88065 -0.440325,0 z "/>
<path fill="rgb(241,240,234)" stroke="rgb(241,240,234)" d="M 4.50177,11.1363 l 0,0.2 3.10279,-1.77636e-15 -3.10279,6.20557 0,0.323607 0.00850624,-0.000362437 0.00844458,-0.00108468 0.00832171,-0.00179907 0.00813851,-0.00250041 0.00789632,-0.00318363 0.0075969,-0.00384377 0.0072424,-0.00447605 0.00683541,-0.00507588 0.00637887,-0.00563892 0.00587609,-0.00616109 0.00533072,-0.00663859 0.0047467,-0.00706797 0.00412828,-0.00744612 3.26459,-6.52918 0.00360095,-0.0080761 0.00287344,-0.00836263 0.00212346,-0.00858377 0.00135688,-0.0087378 0.000579691,-0.0088235 -0.000202033,-0.00884022 -0.000982177,-0.00878781 -0.00175464,-0.00866669 -0.00251339,-0.0084778 -0.00325248,-0.00822263 -0.00396614,-0.00790316 -0.00464879,-0.0075219 -0.00529509,-0.00708183 -0.00589999,-0.00658638 -0.00645876,-0.00603943 -0.00696702,-0.00544526 -0.00742081,-0.00480851 -0.00781658,-0.00413417 -0.00815123,-0.0034275 -0.00842214,-0.00269403 -0.0086272,-0.0019395 -0.00876481,-0.0011698 -0.00883388,-0.000390951 -3.26459,0 z "/>
<path fill="rgb(241,240,234)" stroke="rgb(241,240,234)" d="M 4.50177,11.1363 l -3.26459,1.77636e-15 -0.00883388,0.000390951 -0.00876481,0.0011698 -0.0086272,0.0019395 -0.00842214,0.00269403 -0.00815123,0.0034275 -0.00781658,0.00413417 -0.00742081,0.00480851 -0.00696702,0.00544526 -0.00645876,0.00603943 -0.00589999,0.00658638 -0.00529509,0.00708183 -0.00464879,0.0075219 -0.00396614,0.00790316 -0.00325248,0.00822263 -0.00251339,0.0084778 -0.00175464,0.00866669 -0.000982177,0.00878781 -0.000202033,0.00884022 0.000579691,0.0088235 0.00135688,0.0087378 0.00212346,0.00858377 0.00287344,0.00836263 0.00360095,0.0080761 3.26459,6.52918 0.00412828,0.00744612 0.0047467,0.00706797 0.00533072,0.00663859 0.00587609,0.00616109 0.00637887,0.00563892 0.00683541,0.00507588 0.0072424,0.00447605 0.0075969,0.00384377 0.00789632,0.00318363 0.00813851,0.00250041 0.00832171,0.00179907 0.00844458,0.00108468 0.00850624,0.000362437 0,-0.323607 -3.10279,-6.20557 3.10279,0 0,-0.2 z "/>
<path fill="rgb(42,41,42)" stroke="rgb(42,41,42)" d="M 5.5279,5.61123 l -0.0215242,0 -0.148278,-0.016741 -0.133928,-0.0406568 -0.119579,-0.0669642 -0.105229,-0.0932715 -0.0932715,-0.119579 -0.00717473,-0.0119579 0.628985,-0.0310905 0.12197,-0.0191326 0.12197,-0.062181 0.0956631,-0.110013 0.0334821,-0.0597894 0.0502231,-0.133928 0.0286989,-0.157844 0.00956631,-0.179368 -0.00239158,-0.0932715 -0.0215242,-0.16741 -0.0406568,-0.145886 -0.0597894,-0.126754 -0.0813136,-0.102838 -0.117187,-0.0717473 -0.138711,-0.0239158 0.626593,-0.0239158 0.0669642,0.126754 0.0502231,0.138711 0.0358737,0.153061 0.0215242,0.165019 0.00717473,0.176977 -0.00717473,0.174585 -0.0239158,0.162627 -0.0358737,0.153061 -0.0550063,0.13632 -0.0669642,0.126754 -0.0143495,0.0239158 -0.0932715,0.114796 -0.107621,0.0908799 -0.119579,0.0645726 -0.13632,0.0382652 -0.148278,0.0119579 z "/>
<path fill="rgb(42,41,42)" stroke="rgb(42,41,42)" d="M 4.89891,5.26206 l -0.0669642,-0.126754 -0.0526147,-0.13632 -0.0358737,-0.153061 -0.0239158,-0.162627 -0.00717473,-0.176977 0,-0.0191326 0.00956631,-0.176977 0.0239158,-0.162627 0.0382652,-0.148278 0.0526147,-0.138711 0.0669642,-0.124362 0.016741,-0.0263074 0.0932715,-0.114796 0.107621,-0.0884884 0.12197,-0.0645726 0.133928,-0.0382652 0.150669,-0.0143495 0.0358737,0.00239158 0.145886,0.0191326 0.131537,0.0430484 0.117187,0.0717473 0.102838,0.0956631 0.0884884,0.12197 0.00478316,0.00956631 -0.626593,0.0239158 -0.126754,0.016741 -0.12197,0.062181 -0.0956631,0.112404 -0.0382652,0.0669642 -0.0478316,0.133928 -0.0286989,0.160236 -0.00956631,0.184151 0,0.0215242 0.0143495,0.172194 0.0334821,0.150669 0.0573979,0.133928 0.0143495,0.0286989 0.0956631,0.117187 0.114796,0.0693557 0.138711,0.0239158 -0.628985,0.0310905 z "/>
<path fill="rgb(42,41,42)" stroke="rgb(42,41,42)" d="M 3.56919,5.61123 l -0.0837052,-0.00239158 -0.141103,-0.0215242 -0.131537,-0.04544 -0.124362,-0.0645726 -0.117187,-0.0860968 -0.107621,-0.107621 0.683991,-0.0526147 0.12197,-0.0119579 0.124362,-0.0526147 0.0382652,-0.0310905 0.0550063,-0.131537 -0.00239158,-0.0215242 -0.0717473,-0.129145 -0.0430484,-0.0286989 -0.143495,-0.0334821 -0.0789221,0 0,-0.385044 0.0932715,0 0.062181,-0.00239158 0.129145,-0.0406568 0.00717473,-0.00478316 0.100446,-0.112404 0.00717473,-0.00956631 0.0358737,-0.153061 -0.0191326,-0.100446 -0.0908799,-0.119579 -0.0119579,-0.00956631 -0.12197,-0.0526147 -0.155453,-0.0191326 -0.767696,-0.0143495 0.100446,-0.114796 0.105229,-0.0908799 0.119579,-0.0741389 0.129145,-0.0550063 0.141103,-0.0310905 0.150669,-0.0119579 0.0191326,0 0.150669,0.016741 0.138711,0.0382652 0.124362,0.062181 0.112404,0.0884884 0.0741389,0.0813136 0.0813136,0.126754 0.0478316,0.141103 0.016741,0.155453 -0.00956631,0.114796 -0.0430484,0.143495 0,0.00478316 -0.0717473,0.112404 -0.119579,0.131537 0.0765305,0.124362 0.0597894,0.145886 0.0191326,0.133928 0,0.0310905 -0.0263074,0.153061 -0.062181,0.131537 -0.100446,0.117187 -0.0669642,0.0526147 -0.12197,0.0645726 -0.138711,0.0382652 -0.153061,0.0119579 z "/>
<path fill="rgb(42,41,42)" stroke="rgb(42,41,42)" d="M 2.86368,5.28359 l 0.255899,-0.263074 0.04544,0.0478316 0.114796,0.0884884 0.129145,0.0550063 0.138711,0.0191326 -0.683991,0.0526147 z "/>
<path fill="rgb(42,41,42)" stroke="rgb(42,41,42)" d="M 3.04305,4.06149 l -0.275031,-0.231983 0.0478316,-0.062181 0.767696,0.0143495 -0.062181,0.00239158 -0.141103,0.0263074 -0.129145,0.0550063 -0.110013,0.0837052 -0.0980547,0.112404 z "/>
<path fill="rgb(42,41,42)" stroke="rgb(42,41,42)" d="M 5.18829,9.06706 l -0.0191326,-0.00239158 -0.062181,-0.0191326 -0.0526147,-0.04544 -0.0191326,-0.0263074 0.157844,-0.00478316 0.04544,-0.0143495 0.0286989,-0.062181 -0.155453,0 0.260682,-0.0358737 -0.0143495,0.0693557 -0.00478316,0.0143495 -0.0334821,0.0597894 -0.0119579,0.0143495 -0.0550063,0.0382652 -0.0645726,0.0143495 z "/>
<path fill="rgb(42,41,42)" stroke="rgb(42,41,42)" d="M 5.03523,8.97379 l -0.0263074,-0.062181 -0.00717473,-0.0717473 0.00239158,-0.0382652 0.016741,-0.0669642 0.0358737,-0.0573979 0.0143495,-0.0143495 0.0550063,-0.0382652 0.0669642,-0.0119579 0.0215242,0 0.062181,0.0215242 0.0526147,0.04544 0.00239158,0.00478316 -0.138711,0.0263074 -0.0526147,0.0239158 -0.0310905,0.0573979 -0.00478316,0.016741 0.267857,0 0,0.0310905 0,0.016741 -0.260682,0.0358737 0.0263074,0.0550063 0.0550063,0.0215242 -0.157844,0.00478316 z "/>
<path fill="rgb(42,41,42)" stroke="rgb(42,41,42)" d="M 5.26004,8.74659 l -0.00956631,-0.00956631 -0.0573979,-0.0263074 0.138711,-0.0263074 -0.0717473,0.062181 z "/>
<path fill="rgb(42,41,42)" stroke="rgb(42,41,42)" d="M 4.75781,9.06945 l -0.0502231,-0.00717473 -0.0550063,-0.0382652 0.255899,-0.0502231 -0.0358737,0.0550063 -0.04544,0.0286989 -0.0693557,0.0119579 z "/>
<path fill="rgb(42,41,42)" stroke="rgb(42,41,42)" d="M 4.65258,9.05989 l -0.107621,0 0,-0.437659 0.107621,0 0,0.263074 0.0239158,0.0573979 0.0550063,0.0239158 0.176977,0.00717473 -0.255899,0.0502231 0,0.0358737 z "/>
<path fill="rgb(42,41,42)" stroke="rgb(42,41,42)" d="M 4.90848,8.97379 l -0.176977,-0.00717473 0.0573979,-0.0215242 0.0239158,-0.0597894 0,-0.263074 0.102838,0 0,0.306122 -0.00717473,0.04544 z "/>
<path fill="rgb(42,41,42)" stroke="rgb(42,41,42)" d="M 4.26514,9.07185 l -0.0215242,-0.00239158 -0.062181,-0.0191326 -0.0526147,-0.04544 -0.0215242,-0.0310905 0.157844,-0.00956631 0.00239158,0 0.0573979,-0.0358737 0.00956631,-0.016741 0.0119579,-0.0717473 -0.00239158,-0.0239158 -0.0191326,-0.062181 -0.00478316,-0.00478316 -0.0550063,-0.0310905 0.155453,-0.00956631 0.0263074,0.062181 0.00956631,0.0693557 -0.00239158,0.0406568 -0.0191326,0.0669642 -0.0358737,0.0573979 -0.0143495,0.0143495 -0.0550063,0.0382652 -0.0645726,0.0143495 z "/>
<path fill="rgb(42,41,42)" stroke="rgb(42,41,42)" d="M 4.1073,8.97379 l -0.0263074,-0.062181 -0.00717473,-0.0717473 0.00239158,-0.0358737 0.016741,-0.0669642 0.0358737,-0.0573979 0.0143495,-0.016741 0.0550063,-0.0382652 0.0669642,-0.0119579 0.0191326,0 0.062181,0.0215242 0.0526147,0.04544 0.0215242,0.0286989 -0.155453,0.00956631 -0.00717473,0 -0.0550063,0.0358737 -0.00956631,0.016741 -0.0119579,0.0693557 0,0.0263074 0.0215242,0.062181 0.00478316,0.00478316 0.0573979,0.0310905 -0.157844,0.00956631 z "/>
<path fill="rgb(42,41,42)" stroke="rgb(42,41,42)" d="M 4.0212,9.05989 l -0.370695,0 0,-0.105229 0.210459,0 -0.220025,-0.236766 0,-0.0956631 0.380261,0 0,0.102838 -0.234375,0 0.234375,0.248724 0,0.0860968 z "/>
<path fill="rgb(42,41,42)" stroke="rgb(42,41,42)" d="M 5.66661,9.72235 l -0.107621,0 0,0.566804 0.107621,0.0430484 0,-0.609852 z "/>
<path fill="rgb(42,41,42)" stroke="rgb(42,41,42)" d="M 5.27917,10.172 l -0.0215242,0 -0.062181,-0.0215242 -0.0526147,-0.04544 -0.0215242,-0.0286989 0.157844,-0.0119579 0.00239158,0 0.0573979,-0.0334821 0.00956631,-0.0191326 0.0119579,-0.0693557 -0.00239158,-0.0263074 -0.0191326,-0.062181 -0.00478316,-0.00478316 -0.0550063,-0.0310905 0.155453,-0.00956631 0.0263074,0.062181 0.00956631,0.0717473 -0.00239158,0.0382652 -0.0191326,0.0669642 -0.0358737,0.0573979 -0.0143495,0.016741 -0.0550063,0.0382652 -0.0645726,0.0119579 z "/>
<path fill="rgb(42,41,42)" stroke="rgb(42,41,42)" d="M 5.12133,10.0763 l -0.0263074,-0.062181 -0.00717473,-0.0717473 0.00239158,-0.0382652 0.016741,-0.0669642 0.0358737,-0.0573979 0.0143495,-0.016741 0.0550063,-0.0382652 0.0669642,-0.0119579 0.0191326,0.00239158 0.062181,0.0191326 0.0526147,0.04544 0.0215242,0.0286989 -0.155453,0.00956631 -0.00717473,0 -0.0550063,0.0358737 -0.00956631,0.0191326 -0.0119579,0.0693557 0,0.0239158 0.0215242,0.062181 0.00478316,0.00717473 0.0573979,0.0286989 -0.157844,0.0119579 z "/>
<path fill="rgb(42,41,42)" stroke="rgb(42,41,42)" d="M 4.82477,10.172 l -0.0215242,0 -0.062181,-0.0215242 -0.0526147,-0.04544 -0.0215242,-0.0286989 0.157844,-0.0119579 0.00239158,0 0.0573979,-0.0334821 0.00717473,-0.0191326 0.0143495,-0.0693557 -0.00239158,-0.0263074 -0.0191326,-0.062181 -0.00478316,-0.00478316 -0.0550063,-0.0310905 0.155453,-0.00956631 0.0263074,0.062181 0.00956631,0.0717473 -0.00239158,0.0382652 -0.0191326,0.0669642 -0.0358737,0.0573979 -0.0143495,0.016741 -0.0550063,0.0382652 -0.0645726,0.0119579 z "/>
<path fill="rgb(42,41,42)" stroke="rgb(42,41,42)" d="M 4.66693,10.0763 l -0.0263074,-0.062181 -0.00717473,-0.0717473 0.00239158,-0.0382652 0.016741,-0.0669642 0.0358737,-0.0573979 0.0143495,-0.016741 0.0550063,-0.0382652 0.0669642,-0.0119579 0.0191326,0.00239158 0.062181,0.0191326 0.0526147,0.04544 0.0215242,0.0286989 -0.155453,0.00956631 -0.00717473,0 -0.0550063,0.0358737 -0.00956631,0.0191326 -0.0119579,0.0693557 0,0.0239158 0.0215242,0.062181 0.00478316,0.00717473 0.0573979,0.0286989 -0.157844,0.0119579 z "/>
<path fill="rgb(42,41,42)" stroke="rgb(42,41,42)" d="M 4.28906,10.3322 l -0.107621,-0.0382652 0,-0.571587 0.107621,0 0,0.25829 0,0.00717473 0.0215242,0.0573979 0.0573979,0.0191326 0.172194,0.00956631 -0.251116,0.0573979 0,0.200893 z "/>
<path fill="rgb(42,41,42)" stroke="rgb(42,41,42)" d="M 4.3895,10.172 l -0.0502231,-0.00717473 -0.0502231,-0.0334821 0.251116,-0.0573979 -0.0358737,0.0573979 -0.04544,0.0286989 -0.0693557,0.0119579 z "/>
<path fill="rgb(42,41,42)" stroke="rgb(42,41,42)" d="M 4.54017,10.0739 l -0.172194,-0.00956631 0.0573979,-0.0239158 0.0239158,-0.0573979 0,-0.260682 0.100446,0 0,0.301339 -0.00956631,0.0502231 z "/>
<path fill="rgb(42,41,42)" stroke="rgb(42,41,42)" d="M 3.94945,10.172 l -0.0334821,-0.00239158 -0.062181,-0.0215242 -0.0550063,-0.0406568 -0.0239158,-0.0334821 0.176977,-0.00478316 0.0478316,-0.0143495 0.0430484,-0.0550063 0.0669642,0.0908799 -0.0382652,0.0382652 -0.0573979,0.0334821 -0.0645726,0.00956631 z "/>
<path fill="rgb(42,41,42)" stroke="rgb(42,41,42)" d="M 3.77487,10.0739 l -0.0263074,-0.0597894 -0.00717473,-0.0717473 0.00239158,-0.0430484 0.0191326,-0.0669642 0.0358737,-0.0550063 0.0239158,-0.0215242 0.0573979,-0.0310905 0.0693557,-0.0119579 0.0502231,0.00717473 0.0597894,0.0263074 0.0502231,0.0478316 -0.157844,0.0215242 -0.0215242,0.00239158 -0.0573979,0.0334821 -0.0143495,0.0215242 -0.0143495,0.0693557 0.00239158,0.0310905 0.0263074,0.0597894 0.0143495,0.0143495 0.0645726,0.0215242 -0.176977,0.00478316 z "/>
<path fill="rgb(42,41,42)" stroke="rgb(42,41,42)" d="M 4.03555,9.87063 l -0.0263074,-0.0334821 -0.0573979,-0.0215242 0.157844,-0.0215242 -0.0741389,0.0765305 z "/>
<path fill="rgb(42,41,42)" stroke="rgb(42,41,42)" d="M 3.49984,10.1696 l -0.0645726,-0.00717473 -0.0573979,-0.0263074 -0.0263074,-0.0239158 0.150669,-0.04544 0.0645726,-0.00956631 0.0645726,-0.0263074 0.0406568,0.0956631 -0.0358737,0.016741 -0.0669642,0.0191326 -0.0693557,0.00717473 z "/>
<path fill="rgb(42,41,42)" stroke="rgb(42,41,42)" d="M 3.35156,10.1122 l -0.0191326,-0.0645726 0.00717473,-0.0430484 0.0406568,-0.0526147 0.0478316,-0.0286989 0.0789221,-0.0239158 0.04544,-0.0143495 0.0286989,-0.0358737 -0.00717473,-0.0143495 -0.0717473,-0.016741 0.16741,-0.0382652 0.016741,0.0645726 -0.00717473,0.0478316 -0.0334821,0.04544 -0.0526147,0.0334821 -0.0789221,0.0239158 -0.062181,0.016741 -0.0143495,0.0239158 0.00239158,0.0119579 0.062181,0.0191326 -0.150669,0.04544 z "/>
<path fill="rgb(42,41,42)" stroke="rgb(42,41,42)" d="M 3.36113,9.84911 l -0.0406568,-0.0932715 0.04544,-0.0191326 0.0669642,-0.016741 0.0741389,-0.00478316 0.0765305,0.00956631 0.0573979,0.0239158 0.0286989,0.0310905 -0.16741,0.0382652 -0.0119579,0.00239158 -0.0717473,0.0119579 -0.0573979,0.016741 z "/>
<path fill="rgb(42,41,42)" stroke="rgb(42,41,42)" d="M 9.00354,11 l -0.00353792,0 0,1 0.00353792,0 0,-1 z "/>
<path fill="rgb(42,41,42)" stroke="rgb(42,41,42)" d="M 9.00354,10 l -0.00353792,0 0,1 0.00353792,0 0,-1 z "/>
<path fill="rgb(42,41,42)" stroke="rgb(42,41,42)" d="M 9.00354,9 l -0.00353792,0 0,1 0.00353792,0 0,-1 z "/>
<path fill="rgb(42,41,42)" stroke="rgb(42,41,42)" d="M 9.00354,8 l -0.00353792,0 0,1 0.00353792,0 0,-1 z "/>
<path fill="rgb(42,41,42)" stroke="rgb(42,41,42)" d="M 9.00354,7 l -0.00353792,0 0,1 0.00353792,0 0,-1 z "/>
<path fill="rgb(42,41,42)" stroke="rgb(42,41,42)" d="M 9.00354,6 l -0.00353792,0 0,1 0.00353792,0 0,-1 z "/>
<path fill="rgb(42,41,42)" stroke="rgb(42,41,42)" d="M 9.00354,5 l -0.00353792,0 0,1 0.00353792,0 0,-1 z "/>
<path fill="rgb(42,41,42)" stroke="rgb(42,41,42)" d="M 9.00354,4 l -0.00353792,0 0,1 0.00353792,0 0,-1 z "/>
<path fill="rgb(42,41,42)" stroke="rgb(42,41,42)" d="M 9.00354,3 l -0.00353792,0 0,1 0.00353792,0 0,-1 z "/>
<path fill="rgb(42,41,42)" stroke="rgb(42,41,42)" d="M 9.00354,2 l -0.00353792,0 0,1 0.00353792,0 0,-1 z "/>
<path fill="rgb(42,41,42)" stroke="rgb(42,41,42)" d="M 9.00354,1 l -0.00353792,0 0,1 0.00353792,0 0,-1 z "/>
<path fill="rgb(42,41,42)" stroke="rgb(42,41,42)" d="M 9,1 l 0.00353792,0 0,-0.75 -0.000951325,-0.0217889 -0.0025866,-0.0196472 0,0.791436 z "/>
<path fill="rgb(42,41,42)" stroke="rgb(42,41,42)" d="M 8.78161,19 l -0.781612,0 0,0.00177877 0.753538,0 0.0217889,-0.000951325 0.00628505,-0.000827443 z "/>
<path fill="rgb(42,41,42)" stroke="rgb(42,41,42)" d="M 8.78161,19 l 0.0153381,-0.00201929 0.0212927,-0.00472048 0.0208003,-0.0065583 0.0201495,-0.00834621 0.0193454,-0.0100706 0.0183941,-0.0117183 0.0173028,-0.0132769 0.0160798,-0.0147344 0.0147344,-0.0160798 0.0132769,-0.0173028 0.0117183,-0.0183941 0.0100706,-0.0193454 0.00834621,-0.0201495 0.0065583,-0.0208003 0.00472048,-0.0212927 0.000260139,-0.00197595 0,-0.793215 -0.0964621,0 0,0.751779 -0.000570795,0.0130734 -0.00170804,0.0129739 -0.00283229,0.0127756 -0.00393498,0.0124802 -0.00500773,0.0120897 -0.00604236,0.0116073 -0.007031,0.0110365 -0.00796614,0.0103817 -0.00884065,0.00964788 -0.00964788,0.00884065 -0.0103817,0.00796614 -0.0110365,0.007031 -0.0116073,0.00604236 -0.0120897,0.00500773 -0.0124802,0.00393498 -0.0127756,0.00283229 -0.0129739,0.00170804 -0.0130734,0.000570795 -0.753538,0 0,0.0982212 0.781612,0 z "/>
<path fill="rgb(42,41,42)" stroke="rgb(42,41,42)" d="M 8.90354,17 l 0,1 0.0964621,0 0,-1 -0.0964621,0 z "/>
<path fill="rgb(42,41,42)" stroke="rgb(42,41,42)" d="M 8.90354,16 l 0,1 0.0964621,0 0,-1 -0.0964621,0 z "/>
<path fill="rgb(42,41,42)" stroke="rgb(42,41,42)" d="M 8.90354,15 l 0,1 0.0964621,0 0,-1 -0.0964621,0 z "/>
<path fill="rgb(42,41,42)" stroke="rgb(42,41,42)" d="M 8.90354,14 l 0,1 0.0964621,0 0,-1 -0.0964621,0 z "/>
<path fill="rgb(42,41,42)" stroke="rgb(42,41,42)" d="M 8.90354,13 l 0,1 0.0964621,0 0,-1 -0.0964621,0 z "/>
<path fill="rgb(42,41,42)" stroke="rgb(42,41,42)" d="M 8.90354,12 l 0,1 0.0964621,0 0,-1 -0.0964621,0 z "/>
<path fill="rgb(42,41,42)" stroke="rgb(42,41,42)" d="M 8.90354,11 l 0,1 0.0964621,0 0,-1 -0.0964621,0 z "/>
<path fill="rgb(42,41,42)" stroke="rgb(42,41,42)" d="M 8.90354,10 l 0,1 0.0964621,0 0,-1 -0.0964621,0 z "/>
<path fill="rgb(42,41,42)" stroke="rgb(42,41,42)" d="M 8.90354,9 l 0,1 0.0964621,0 0,-1 -0.0964621,0 z "/>
<path fill="rgb(42,41,42)" stroke="rgb(42,41,42)" d="M 8.90354,8 l 0,1 0.0964621,0 0,-1 -0.0964621,0 z "/>
<path fill="rgb(42,41,42)" stroke="rgb(42,41,42)" d="M 8.90354,7 l 0,1 0.0964621,0 0,-1 -0.0964621,0 z "/>
<path fill="rgb(42,41,42)" stroke="rgb(42,41,42)" d="M 8.90354,6 l 0,1 0.0964621,0 0,-1 -0.0964621,0 z "/>
<path fill="rgb(42,41,42)" stroke="rgb(42,41,42)" d="M 8.90354,5 l 0,1 0.0964621,0 0,-1 -0.0964621,0 z "/>
<path fill="rgb(42,41,42)" stroke="rgb(42,41,42)" d="M 8.90354,4 l 0,1 0.0964621,0 0,-1 -0.0964621,0 z "/>
<path fill="rgb(42,41,42)" stroke="rgb(42,41,42)" d="M 8.90354,3 l 0,1 0.0964621,0 0,-1 -0.0964621,0 z "/>
<path fill="rgb(42,41,42)" stroke="rgb(42,41,42)" d="M 8.90354,2 l 0,1 0.0964621,0 0,-1 -0.0964621,0 z "/>
<path fill="rgb(42,41,42)" stroke="rgb(42,41,42)" d="M 8.90354,1 l 0,1 0.0964621,0 0,-1 -0.0964621,0 z "/>
<path fill="rgb(42,41,42)" stroke="rgb(42,41,42)" d="M 8.75354,0 l -0.753538,0 0,0.1 0.753538,0 0.0130734,0.000570795 0.0129739,0.00170804 0.0127756,0.00283229 0.0124802,0.00393498 0.0120897,0.00500773 0.0116073,0.00604236 0.0110365,0.007031 0.0103817,0.00796614 0.00964788,0.00884065 0.00884065,0.00964788 0.00796614,0.0103817 0.007031,0.0110365 0.00604236,0.0116073 0.00500773,0.0120897 0.00393498,0.0124802 0.00283229,0.0127756 0.00170804,0.0129739 0.000570795,0.0130734 0,0.75 0.0964621,0 0,-0.791436 -0.000260139,-0.00197595 -0.00472048,-0.0212927 -0.0065583,-0.0208003 -0.00834621,-0.0201495 -0.0100706,-0.0193454 -0.0117183,-0.0183941 -0.0132769,-0.0173028 -0.0147344,-0.0160798 -0.0160798,-0.0147344 -0.0173028,-0.0132769 -0.0183941,-0.0117183 -0.0193454,-0.0100706 -0.0201495,-0.00834621 -0.0208003,-0.0065583 -0.0212927,-0.00472048 -0.0216231,-0.00284674 -0.0217889,-0.000951325 z "/>
<path fill="rgb(42,41,42)" stroke="rgb(42,41,42)" d="M 7,19.0018 l 1,0 0,-0.00177877 -1,0 0,0.00177877 z "/>
<path fill="rgb(42,41,42)" stroke="rgb(42,41,42)" d="M 7,18.9018 l 0,0.0982212 1,0 0,-0.0982212 -1,0 z "/>
<path fill="rgb(42,41,42)" stroke="rgb(42,41,42)" d="M 8,0 l -1,0 0,0.1 1,0 0,-0.1 z "/>
<path fill="rgb(42,41,42)" stroke="rgb(42,41,42)" d="M 6,19.0018 l 1,0 0,-0.00177877 -1,0 0,0.00177877 z "/>
<path fill="rgb(42,41,42)" stroke="rgb(42,41,42)" d="M 6,18.9018 l 0,0.0982212 1,0 0,-0.0982212 -1,0 z "/>
<path fill="rgb(42,41,42)" stroke="rgb(42,41,42)" d="M 7,0 l -1,0 0,0.1 1,0 0,-0.1 z "/>
<path fill="rgb(42,41,42)" stroke="rgb(42,41,42)" d="M 5,19.0018 l 1,0 0,-0.00177877 -1,0 0,0.00177877 z "/>
<path fill="rgb(42,41,42)" stroke="rgb(42,41,42)" d="M 5,18.9018 l 0,0.0982212 1,0 0,-0.0982212 -1,0 z "/>
<path fill="rgb(42,41,42)" stroke="rgb(42,41,42)" d="M 6,0 l -1,0 0,0.1 1,0 0,-0.1 z "/>
<path fill="rgb(42,41,42)" stroke="rgb(42,41,42)" d="M 4,19.0018 l 1,0 0,-0.00177877 -1,0 0,0.00177877 z "/>
<path fill="rgb(42,41,42)" stroke="rgb(42,41,42)" d="M 4,18.9018 l 0,0.0982212 1,0 0,-0.0982212 -1,0 z "/>
<path fill="rgb(42,41,42)" stroke="rgb(42,41,42)" d="M 5,0 l -1,0 0,0.1 1,0 0,-0.1 z "/>
<path fill="rgb(42,41,42)" stroke="rgb(42,41,42)" d="M 3,19.0018 l 1,0 0,-0.00177877 -1,0 0,0.00177877 z "/>
<path fill="rgb(42,41,42)" stroke="rgb(42,41,42)" d="M 3,18.9018 l 0,0.0982212 1,0 0,-0.0982212 -1,0 z "/>
<path fill="rgb(42,41,42)" stroke="rgb(42,41,42)" d="M 4,0 l -1,0 0,0.1 1,0 0,-0.1 z "/>
<path fill="rgb(42,41,42)" stroke="rgb(42,41,42)" d="M 2,19.0018 l 1,0 0,-0.00177877 -1,0 0,0.00177877 z "/>
<path fill="rgb(42,41,42)" stroke="rgb(42,41,42)" d="M 2,18.9018 l 0,0.0982212 1,0 0,-0.0982212 -1,0 z "/>
<path fill="rgb(42,41,42)" stroke="rgb(42,41,42)" d="M 3,0 l -1,0 0,0.1 1,0 0,-0.1 z "/>
<path fill="rgb(42,41,42)" stroke="rgb(42,41,42)" d="M 1,19.0018 l 1,0 0,-0.00177877 -1,0 0,0.00177877 z "/>
<path fill="rgb(42,41,42)" stroke="rgb(42,41,42)" d="M 1,18.9018 l 0,0.0982212 1,0 0,-0.0982212 -1,0 z "/>
<path fill="rgb(42,41,42)" stroke="rgb(42,41,42)" d="M 2,0 l -1,0 0,0.1 1,0 0,-0.1 z "/>
<path fill="rgb(42,41,42)" stroke="rgb(42,41,42)" d="M 0.221926,19 l 0.00628505,0.000827443 0.0217889,0.000951325 0.75,0 0,-0.00177877 -0.778074,0 z "/>
<path fill="rgb(42,41,42)" stroke="rgb(42,41,42)" d="M 0,18.7518 l 0.000951325,0.0217889 0.00284674,0.0216231 0.00472048,0.0212927 0.0065583,0.0208003 0.00834621,0.0201495 0.0100706,0.0193454 0.0117183,0.0183941 0.0132769,0.0173028 0.0147344,0.0160798 0.0160798,0.0147344 0.0173028,0.0132769 0.0183941,0.0117183 0.0193454,0.0100706 0.0201495,0.00834621 0.0208003,0.0065583 0.0212927,0.00472048 0.0153381,0.00201929 0.778074,0 0,-0.0982212 -0.75,0 -0.0130734,-0.000570795 -0.0129739,-0.00170804 -0.0127756,-0.00283229 -0.0124802,-0.00393498 -0.0120897,-0.00500773 -0.0116073,-0.00604236 -0.0110365,-0.007031 -0.0103817,-0.00796614 -0.00964788,-0.00884065 -0.00884065,-0.00964788 -0.00796614,-0.0103817 -0.007031,-0.0110365 -0.00604236,-0.0116073 -0.00500773,-0.0120897 -0.00393498,-0.0124802 -0.00283229,-0.0127756 -0.00170804,-0.0129739 -0.000570795,-0.0130734 0,-0.751779 -0.1,0 0,0.751779 z "/>
<path fill="rgb(42,41,42)" stroke="rgb(42,41,42)" d="M 0.1,17 l -0.1,0 0,1 0.1,0 0,-1 z "/>
<path fill="rgb(42,41,42)" stroke="rgb(42,41,42)" d="M 0.1,16 l -0.1,0 0,1 0.1,0 0,-1 z "/>
<path fill="rgb(42,41,42)" stroke="rgb(42,41,42)" d="M 0.1,15 l -0.1,0 0,1 0.1,0 0,-1 z "/>
<path fill="rgb(42,41,42)" stroke="rgb(42,41,42)" d="M 0.1,14 l -0.1,0 0,1 0.1,0 0,-1 z "/>
<path fill="rgb(42,41,42)" stroke="rgb(42,41,42)" d="M 0.1,13 l -0.1,0 0,1 0.1,0 0,-1 z "/>
<path fill="rgb(42,41,42)" stroke="rgb(42,41,42)" d="M 0.1,1 l 0,-0.75 0.000570795,-0.0130734 0.00170804,-0.0129739 0.00283229,-0.0127756 0.00393498,-0.0124802 0.00500773,-0.0120897 0.00604236,-0.0116073 0.007031,-0.0110365 0.00796614,-0.0103817 0.00884065,-0.00964788 0.00964788,-0.00884065 0.0103817,-0.00796614 0.0110365,-0.007031 0.0116073,-0.00604236 0.0120897,-0.00500773 0.0124802,-0.00393498 0.0127756,-0.00283229 0.0129739,-0.00170804 0.0130734,-0.000570795 0.75,0 0,-0.1 -0.75,0 -0.0217889,0.000951325 -0.0216231,0.00284674 -0.0212927,0.00472048 -0.0208003,0.0065583 -0.0201495,0.00834621 -0.0193454,0.0100706 -0.0183941,0.0117183 -0.0173028,0.0132769 -0.0160798,0.0147344 -0.0147344,0.0160798 -0.0132769,0.0173028 -0.0117183,0.0183941 -0.0100706,0.0193454 -0.00834621,0.0201495 -0.0065583,0.0208003 -0.00472048,0.0212927 -0.00284674,0.0216231 -0.000951325,0.0217889 0,0.75 0.1,0 z "/>
<path fill="rgb(42,41,42)" stroke="rgb(42,41,42)" d="M 0.1,1 l -0.1,0 0,1 0.1,0 0,-1 z "/>
<path fill="rgb(42,41,42)" stroke="rgb(42,41,42)" d="M 0.1,12 l -0.1,0 0,1 0.1,0 0,-1 z "/>
<path fill="rgb(42,41,42)" stroke="rgb(42,41,42)" d="M 0.1,11 l -0.1,0 0,1 0.1,0 0,-1 z "/>
<path fill="rgb(42,41,42)" stroke="rgb(42,41,42)" d="M 0.1,2 l -0.1,0 0,1 0.1,0 0,-1 z "/>
<path fill="rgb(42,41,42)" stroke="rgb(42,41,42)" d="M 0.1,3 l -0.1,0 0,1 0.1,0 0,-1 z "/>
<path fill="rgb(42,41,42)" stroke="rgb(42,41,42)" d="M 0.1,10 l -0.1,0 0,1 0.1,0 0,-1 z "/>
<path fill="rgb(42,41,42)" stroke="rgb(42,41,42)" d="M 0.1,9 l -0.1,0 0,1 0.1,0 0,-1 z "/>
<path fill="rgb(42,41,42)" stroke="rgb(42,41,42)" d="M 0.1,4 l -0.1,0 0,1 0.1,0 0,-1 z "/>
<path fill="rgb(42,41,42)" stroke="rgb(42,41,42)" d="M 0.1,5 l -0.1,0 0,1 0.1,0 0,-1 z "/>
<path fill="rgb(42,41,42)" stroke="rgb(42,41,42)" d="M 0.1,8 l -0.1,0 0,1 0.1,0 0,-1 z "/>
<path fill="rgb(42,41,42)" stroke="rgb(42,41,42)" d="M 0.1,7 l -0.1,0 0,1 0.1,0 0,-1 z "/>
<path fill="rgb(42,41,42)" stroke="rgb(42,41,42)" d="M 0.1,6 l -0.1,0 0,1 0.1,0 0,-1 z "/>
<path fill="rgb(42,41,42)" stroke="rgb(42,41,42)" d="M 9,18 l 0,0.793215 0.0025866,-0.0196472 0.000951325,-0.0217889 0,-0.751779 -0.00353792,0 z "/>
<path fill="rgb(42,41,42)" stroke="rgb(42,41,42)" d="M 9.00354,17 l -0.00353792,0 0,1 0.00353792,0 0,-1 z "/>
<path fill="rgb(42,41,42)" stroke="rgb(42,41,42)" d="M 9.00354,16 l -0.00353792,0 0,1 0.00353792,0 0,-1 z "/>
<path fill="rgb(42,41,42)" stroke="rgb(42,41,42)" d="M 9.00354,15 l -0.00353792,0 0,1 0.00353792,0 0,-1 z "/>
<path fill="rgb(42,41,42)" stroke="rgb(42,41,42)" d="M 9.00354,14 l -0.00353792,0 0,1 0.00353792,0 0,-1 z "/>
<path fill="rgb(42,41,42)" stroke="rgb(42,41,42)" d="M 9.00354,13 l -0.00353792,0 0,1 0.00353792,0 0,-1 z "/>
<path fill="rgb(42,41,42)" stroke="rgb(42,41,42)" d="M 9.00354,12 l -0.00353792,0 0,1 0.00353792,0 0,-1 z "/>
<path fill="rgb(187,30,16)" stroke="rgb(187,30,16)" d="M 0.751769,4.50089 l 0.0142699,-0.326834 0.042701,-0.324347 0.0708072,-0.319391 0.0983745,-0.312004 0.125193,-0.302243 0.151059,-0.290182 0.175775,-0.275912 0.199154,-0.259542 0.221016,-0.241197 0.241197,-0.221016 0.259542,-0.199154 0.275912,-0.175775 0.290182,-0.151059 0.302243,-0.125193 0.312004,-0.0983745 0.319391,-0.0708072 0.324347,-0.042701 0.326834,-0.0142699 0.326834,0.0142699 0.324347,0.042701 0.319391,0.0708072 0.312004,0.0983745 0.302243,0.125193 0.290182,0.151059 0.275912,0.175775 0.259542,0.199154 0.241197,0.221016 0.221016,0.241197 0.199154,0.259542 0.175775,0.275912 0.151059,0.290182 0.125193,0.302243 0.0983745,0.312004 0.0708072,0.319391 0.042701,0.324347 0.0142699,0.326834 -0.2,0 -0.0135088,-0.309403 -0.0404237,-0.307048 -0.0670308,-0.302357 -0.0931279,-0.295364 -0.118516,-0.286123 -0.143002,-0.274705 -0.1664,-0.261196 -0.188532,-0.2457 -0.209229,-0.228333 -0.228333,-0.209229 -0.2457,-0.188532 -0.261196,-0.1664 -0.274705,-0.143002 -0.286123,-0.118516 -0.295364,-0.0931279 -0.302357,-0.0670308 -0.307048,-0.0404237 -0.309403,-0.0135088 -0.309403,0.0135088 -0.307048,0.0404237 -0.302357,0.0670308 -0.295364,0.0931279 -0.286123,0.118516 -0.274705,0.143002 -0.261196,0.1664 -0.2457,0.188532 -0.228333,0.209229 -0.209229,0.228333 -0.188532,0.2457 -0.1664,0.261196 -0.143002,0.274705 -0.118516,0.286123 -0.0931279,0.295364 -0.0670308,0.302357 -0.0404237,0.307048 -0.0135088,0.309403 -0.2,0 z "/>
<path fill="rgb(187,30,16)" stroke="rgb(187,30,16)" d="M 0.751769,4.50089 l 0.2,0 0.0135088,0.309403 0.0404237,0.307048 0.0670308,0.302357 0.0931279,0.295364 0.118516,0.286123 0.143002,0.274705 0.1664,0.261196 0.188532,0.2457 0.209229,0.228333 0.228333,0.209229 0.2457,0.188532 0.261196,0.1664 0.274705,0.143002 0.286123,0.118516 0.295364,0.0931279 0.302357,0.0670308 0.307048,0.0404237 0.309403,0.0135088 0.309403,-0.0135088 0.307048,-0.0404237 0.302357,-0.0670308 0.295364,-0.0931279 0.286123,-0.118516 0.274705,-0.143002 0.261196,-0.1664 0.2457,-0.188532 0.228333,-0.209229 0.209229,-0.228333 0.188532,-0.2457 0.1664,-0.261196 0.143002,-0.274705 0.118516,-0.286123 0.0931279,-0.295364 0.0670308,-0.302357 0.0404237,-0.307048 0.0135088,-0.309403 0.2,0 -0.0142699,0.326834 -0.042701,0.324347 -0.0708072,0.319391 -0.0983745,0.312004 -0.125193,0.302243 -0.151059,0.290182 -0.175775,0.275912 -0.199153,0.259542 -0.221016,0.241197 -0.241197,0.221016 -0.259542,0.199154 -0.275912,0.175775 -0.290182,0.151059 -0.302243,0.125193 -0.312004,0.0983745 -0.319391,0.0708072 -0.324347,0.0427011 -0.326834,0.0142699 -3.62757e-08,0 -7.5483e-08,0 -7.5483e-08,0 -0.326834,-0.0142699 -0.324347,-0.042701 -0.319391,-0.0708072 -0.312004,-0.0983745 -0.302243,-0.125193 -0.290182,-0.151059 -0.275912,-0.175775 -0.259542,-0.199154 -0.241197,-0.221016 -0.221016,-0.241197 -0.199153,-0.259542 -0.175775,-0.275912 -0.151059,-0.290182 -0.125193,-0.302243 -0.0983745,-0.312004 -0.0708072,-0.319391 -0.042701,-0.324347 -0.0142699,-0.326834 z "/>
<path fill="rgb(187,30,16)" stroke="rgb(187,30,16)" d="M 2.06894,2.83276 l 0,0.617497 -0.0774843,0.201626 -0.0608061,0.207267 -0.0437238,0.21153 -0.026351,0.214388 -0.00880317,0.215822 -0.7,0 0.0127478,-0.291972 0.0381463,-0.28975 0.0632545,-0.285322 0.0878812,-0.278724 0.111839,-0.270004 0.134946,-0.259229 0.157026,-0.246481 0.17791,-0.231857 0.197441,-0.215469 0.215469,-0.197441 0.231857,-0.17791 0.246481,-0.157026 0.259229,-0.134946 0.270004,-0.111839 0.278724,-0.0878812 0.285322,-0.0632545 0.28975,-0.0381463 0.291972,-0.0127478 0.291972,0.0127478 0.28975,0.0381463 0.285322,0.0632545 0.278724,0.0878812 0.270004,0.111839 0.259229,0.134946 0.246481,0.157026 0.231857,0.17791 0.215469,0.197441 0.197441,0.215469 0.17791,0.231857 0.157026,0.246481 0.134946,0.259229 0.111839,0.270004 0.0878812,0.278724 0.0632545,0.285322 0.0381463,0.28975 0.0127478,0.291972 -0.7,0 -0.00190943,-0.10058 -0.00572554,-0.100435 -0.0095334,-0.100145 -8.88178e-16,-1.36697 -0.573744,0 -0.1564,-0.176397 -0.171459,-0.161799 -0.18516,-0.145921 -0.197396,-0.128888 -0.208069,-0.110835 -0.217096,-0.0919042 -0.224405,-0.0722464 -0.229938,-0.0520169 -0.233651,-0.0313757 -0.235515,-0.0104862 -0.235515,0.0104862 -0.233651,0.0313757 -0.229938,0.0520169 -0.224405,0.0722464 -0.217096,0.0919042 -0.208069,0.110835 -0.197396,0.128888 -0.18516,0.145921 -0.171459,0.161799 -0.1564,0.176397 -0.373744,0 z "/>
<path fill="rgb(187,30,16)" stroke="rgb(187,30,16)" d="M 7.1346,4.19973 l -0.0401642,-0.247087 -0.0632998,-0.242195 -0.0858706,-0.235141 -0.107675,-0.22599 -0.128519,-0.214821 -0.148216,-0.201736 0.573744,0 8.88178e-16,1.36697 z "/>
<path fill="rgb(187,30,16)" stroke="rgb(187,30,16)" d="M 2.06894,2.83276 l 0.373744,0 -0.143181,0.194185 -0.124927,0.206403 -0.105637,0.216909 0,-0.617497 z "/>
<path fill="rgb(187,30,16)" stroke="rgb(187,30,16)" d="M 7.1346,4.80205 l 0,1.36384 -0.571209,0 0.147538,-0.201401 0.12793,-0.214391 0.107186,-0.225479 0.0854918,-0.234565 0.0630383,-0.24157 0.0400253,-0.24643 z "/>
<path fill="rgb(187,30,16)" stroke="rgb(187,30,16)" d="M 2.06894,5.55152 l 0.104994,0.215729 0.124075,0.205349 0.142139,0.193285 -0.371209,0 0,-0.614363 z "/>
<path fill="rgb(187,30,16)" stroke="rgb(187,30,16)" d="M 7.85177,4.50089 l -0.0127478,0.291972 -0.0381463,0.28975 -0.0632545,0.285322 -0.0878812,0.278724 -0.111839,0.270004 -0.134946,0.259229 -0.157026,0.246481 -0.17791,0.231857 -0.197441,0.215469 -0.215469,0.197441 -0.231857,0.17791 -0.246481,0.157026 -0.259229,0.134946 -0.270004,0.111839 -0.278724,0.0878812 -0.285322,0.0632545 -0.28975,0.0381463 -0.291972,0.0127478 -0.291972,-0.0127478 -0.28975,-0.0381463 -0.285322,-0.0632545 -0.278724,-0.0878812 -0.270004,-0.111839 -0.259229,-0.134946 -0.246481,-0.157026 -0.231857,-0.17791 -0.215469,-0.197441 -0.197441,-0.215469 -0.17791,-0.231857 -0.157026,-0.246481 -0.134946,-0.259229 -0.111839,-0.270004 -0.0878812,-0.278724 -0.0632545,-0.285322 -0.0381463,-0.28975 -0.0127478,-0.291972 0.7,0 0.00880317,0.215822 0.026351,0.214388 0.0437238,0.21153 0.0608061,0.207267 0.0774843,0.201626 0,0.614363 0.371209,0 0.156412,0.176925 0.171542,0.162298 0.185309,0.146382 0.197605,0.129303 0.208332,0.111198 0.217404,0.09221 0.22475,0.0724895 0.230311,0.0521934 0.234043,0.0314827 0.235916,0.0105221 0.235916,-0.0105221 0.234043,-0.0314827 0.230311,-0.0521934 0.22475,-0.0724895 0.217404,-0.09221 0.208332,-0.111198 0.197605,-0.129303 0.185309,-0.146382 0.171542,-0.162298 0.156412,-0.176925 0.571209,0 0,-1.36384 0.0095334,-0.100145 0.00572554,-0.100435 0.00190943,-0.10058 0.7,0 z "/>
<path fill="rgb(42,41,42)" stroke="rgb(42,41,42)" d="M 3.98754,13.6061 l -0.0176043,0.00769784 -0.0181918,0.00618252 -0.0186493,0.00462296 -0.0189732,0.00303032 -0.0191615,0.00141601 -0.0192126,-0.000208444 -0.0191262,-0.0018314 -0.018903,-0.00344126 -0.0185446,-0.00502649 -0.0180534,-0.00657576 -0.0174331,-0.00807797 -0.016688,-0.00952239 -0.0158236,-0.0108987 -0.321862,-0.432498 0.0528063,-0.0327008 0.274089,0.233858 0.0502893,-0.17349 -0.145844,-0.872567 0.108119,0 0.208708,0.56326 0.123221,-0.201157 0.402324,-0.113164 0.0150817,0.110647 -0.296712,0.133279 -0.135786,0.417416 -0.0226327,0.206191 0.103096,-0.0528165 0.110647,-0.120694 0.0528063,0.0628641 -0.120704,0.186075 -0.221283,0.10813 z "/>
<path fill="rgb(42,41,42)" stroke="rgb(42,41,42)" d="M 5.07887,13.7922 l 0.0703947,-0.0351974 0.150878,-0.238892 0.0905309,0.0226327 -0.186075,0.367137 -0.241409,0.160926 -0.0170208,0.0103005 -0.0178558,0.00877369 -0.0185542,0.00717976 -0.0191106,0.0055309 -0.0195208,0.00383971 -0.0197817,0.00211915 -0.0198912,0.000382382 -0.0198485,-0.00135732 -0.019654,-0.00308663 -0.0193091,-0.00479233 -0.0188164,-0.00646136 -0.0181798,-0.00808095 -0.0174041,-0.00963872 -0.0164952,-0.0111227 -0.0154601,-0.0125217 -0.0143067,-0.0138248 -0.0130439,-0.0150221 -0.36462,-0.568294 0.0880139,-0.050279 0.279123,0.311804 0.123211,-0.284137 -0.098082,-1.12402 0.118198,0 0.213742,0.814717 0.168456,-0.261504 0.563281,-0.253974 0.0402314,0.105613 -0.47275,0.316838 -0.206191,0.465199 -0.0326804,0.299219 z "/>
<path fill="rgb(42,41,42)" stroke="rgb(42,41,42)" d="M 4.51938,14.319 l 0.000684148,-0.0156696 0.00204724,-0.0155503 0.00339474,-0.0153127 0.00471641,-0.0149586 0.00600219,-0.0144906 0.00724229,-0.0139123 0.00842727,-0.0132282 0.00954811,-0.0124433 0.0105963,-0.0115638 0.0115638,-0.0105963 0.0124433,-0.00954811 0.0132282,-0.00842727 0.0139123,-0.00724229 0.0144906,-0.00600219 0.0149586,-0.00471641 0.0153127,-0.00339474 0.0155503,-0.00204724 0.0156696,-0.000684148 0.0156696,0.000684148 0.0155503,0.00204724 0.0153127,0.00339474 0.0149586,0.00471641 0.0144906,0.00600219 0.0139123,0.00724229 0.0132282,0.00842727 0.0124433,0.00954811 0.0115638,0.0105963 0.0105963,0.0115638 0.00954811,0.0124433 0.00842727,0.0132282 0.00724229,0.0139123 0.00600219,0.0144906 0.00471641,0.0149586 0.00339474,0.0153127 0.00204724,0.0155503 0.000684148,0.0156696 -0.000684148,0.0156696 -0.00204724,0.0155503 -0.00339474,0.0153127 -0.00471641,0.0149586 -0.00600219,0.0144906 -0.00724229,0.0139123 -0.00842727,0.0132282 -0.00954811,0.0124433 -0.0105963,0.0115638 -0.0115638,0.0105963 -0.0124433,0.00954811 -0.0132282,0.00842727 -0.0139123,0.00724229 -0.0144906,0.00600219 -0.0149586,0.00471641 -0.0153127,0.00339474 -0.0155503,0.00204724 -0.0156696,0.000684148 -0.0156696,-0.000684148 -0.0155503,-0.00204724 -0.0153127,-0.00339474 -0.0149586,-0.00471641 -0.0144906,-0.00600219 -0.0139123,-0.00724229 -0.0132282,-0.00842727 -0.0124433,-0.00954811 -0.0115638,-0.0105963 -0.0105963,-0.0115638 -0.00954811,-0.0124433 -0.00842727,-0.0132282 -0.00724229,-0.0139123 -0.00600219,-0.0144906 -0.00471641,-0.0149586 -0.00339474,-0.0153127 -0.00204724,-0.0155503 -0.000684148,-0.0156696 z "/>
<path fill="rgb(42,41,42)" stroke="rgb(42,41,42)" d="M 3.97497,13.845 l -0.000593254,0.0135877 -0.00177525,0.0134843 -0.00294373,0.0132783 -0.00408981,0.0129712 -0.00520476,0.0125654 -0.0062801,0.012064 -0.00730764,0.0114707 -0.00827957,0.0107901 -0.00918849,0.0100275 -0.0100275,0.00918849 -0.0107901,0.00827957 -0.0114707,0.00730764 -0.012064,0.0062801 -0.0125654,0.00520476 -0.0129712,0.00408981 -0.0132783,0.00294373 -0.0134843,0.00177525 -0.0135877,0.000593254 -0.0135877,-0.000593254 -0.0134843,-0.00177525 -0.0132783,-0.00294373 -0.0129712,-0.00408981 -0.0125654,-0.00520476 -0.012064,-0.0062801 -0.0114707,-0.00730764 -0.0107901,-0.00827957 -0.0100275,-0.00918849 -0.00918849,-0.0100275 -0.00827957,-0.0107901 -0.00730764,-0.0114707 -0.0062801,-0.012064 -0.00520476,-0.0125654 -0.00408981,-0.0129712 -0.00294373,-0.0132783 -0.00177525,-0.0134843 -0.000593254,-0.0135877 0.000593254,-0.0135877 0.00177525,-0.0134843 0.00294373,-0.0132783 0.00408981,-0.0129712 0.00520476,-0.0125654 0.0062801,-0.012064 0.00730764,-0.0114707 0.00827957,-0.0107901 0.00918849,-0.0100275 0.0100275,-0.00918849 0.0107901,-0.00827957 0.0114707,-0.00730764 0.012064,-0.0062801 0.0125654,-0.00520476 0.0129712,-0.00408981 0.0132783,-0.00294373 0.0134843,-0.00177525 0.0135877,-0.000593254 0.0135877,0.000593254 0.0134843,0.00177525 0.0132783,0.00294373 0.0129712,0.00408981 0.0125654,0.00520476 0.012064,0.0062801 0.0114707,0.00730764 0.0107901,0.00827957 0.0100275,0.00918849 0.00918849,0.0100275 0.00827957,0.0107901 0.00730764,0.0114707 0.0062801,0.012064 0.00520476,0.0125654 0.00408981,0.0129712 0.00294373,0.0132783 0.00177525,0.0134843 0.000593254,0.0135877 z "/>
<path fill="rgb(187,30,16)" stroke="rgb(187,30,16)" d="M 6.47193,12.0363 l -1.97016,0 0,-0.7 3.10279,-1.77636e-15 -3.10279,6.20557 0,-1.56525 1.97016,-3.94033 z "/>
<path fill="rgb(187,30,16)" stroke="rgb(187,30,16)" d="M 4.50177,11.1363 l 0,-0.2 3.26459,-1.77636e-15 0.0265016,0.00117285 0.0262944,0.00350939 0.0258816,0.00581849 0.0252664,0.00808209 0.0244537,0.0102825 0.0234497,0.0124025 0.0222624,0.0144255 0.0209011,0.0163358 0.0193763,0.0181183 0.0177,0.0197591 0.0158853,0.0212455 0.0139464,0.0225657 0.0118984,0.0237095 0.00975744,0.0246679 0.00754016,0.0254334 0.00526392,0.0260001 0.00294653,0.0263634 0.000606098,0.0265207 -0.00173907,0.0264705 -0.00407065,0.0262134 -0.00637039,0.0257513 -0.00862033,0.0250879 -0.0108029,0.0242283 -3.26459,6.52918 -0.0123848,0.0223384 -0.0142401,0.0212039 -0.0159921,0.0199158 -0.0176283,0.0184833 -0.0191366,0.0169168 -0.0205062,0.0152277 -0.0217272,0.0134282 -0.0227907,0.0115313 -0.023689,0.00955089 -0.0244155,0.00750124 -0.0249651,0.00539721 -0.0253337,0.00325405 -0.0255187,0.00108731 0,-0.2 0.00850624,-0.000362437 0.00844458,-0.00108468 0.00832171,-0.00179907 0.00813851,-0.00250041 0.00789632,-0.00318363 0.0075969,-0.00384377 0.0072424,-0.00447605 0.00683541,-0.00507588 0.00637887,-0.00563892 0.00587609,-0.00616109 0.00533072,-0.00663859 0.0047467,-0.00706797 0.00412828,-0.00744612 3.26459,-6.52918 0.00360095,-0.0080761 0.00287344,-0.00836263 0.00212346,-0.00858377 0.00135688,-0.0087378 0.000579691,-0.0088235 -0.000202033,-0.00884022 -0.000982177,-0.00878781 -0.00175464,-0.00866669 -0.00251339,-0.0084778 -0.00325248,-0.00822263 -0.00396614,-0.00790316 -0.00464879,-0.0075219 -0.00529509,-0.00708183 -0.00589999,-0.00658638 -0.00645876,-0.00603943 -0.00696702,-0.00544526 -0.00742081,-0.00480851 -0.00781658,-0.00413417 -0.00815123,-0.0034275 -0.00842214,-0.00269403 -0.0086272,-0.0019395 -0.00876481,-0.0011698 -0.00883388,-0.000390951 -3.26459,0 z "/>
<path fill="rgb(187,30,16)" stroke="rgb(187,30,16)" d="M 4.50177,11.1363 l -3.26459,1.77636e-15 -0.00883388,0.000390951 -0.00876481,0.0011698 -0.0086272,0.0019395 -0.00842214,0.00269403 -0.00815123,0.0034275 -0.00781658,0.00413417 -0.00742081,0.00480851 -0.00696702,0.00544526 -0.00645876,0.00603943 -0.00589999,0.00658638 -0.00529509,0.00708183 -0.00464879,0.0075219 -0.00396614,0.00790316 -0.00325248,0.00822263 -0.00251339,0.0084778 -0.00175464,0.00866669 -0.000982177,0.00878781 -0.000202033,0.00884022 0.000579691,0.0088235 0.00135688,0.0087378 0.00212346,0.00858377 0.00287344,0.00836263 0.00360095,0.0080761 3.26459,6.52918 0.00412828,0.00744612 0.0047467,0.00706797 0.00533072,0.00663859 0.00587609,0.00616109 0.00637887,0.00563892 0.00683541,0.00507588 0.0072424,0.00447605 0.0075969,0.00384377 0.00789632,0.00318363 0.00813851,0.00250041 0.00832171,0.00179907 0.00844458,0.00108468 0.00850624,0.000362437 0,0.2 -0.0255187,-0.00108731 -0.0253337,-0.00325405 -0.0249651,-0.00539721 -0.0244155,-0.00750124 -0.023689,-0.00955089 -0.0227907,-0.0115313 -0.0217272,-0.0134282 -0.0205062,-0.0152277 -0.0191366,-0.0169168 -0.0176283,-0.0184833 -0.0159921,-0.0199158 -0.0142401,-0.0212039 -0.0123848,-0.0223384 -3.26459,-6.52918 -0.0108029,-0.0242283 -0.00862033,-0.0250879 -0.00637039,-0.0257513 -0.00407065,-0.0262134 -0.00173907,-0.0264705 0.000606098,-0.0265207 0.00294653,-0.0263634 0.00526392,-0.0260001 0.00754016,-0.0254334 0.00975744,-0.0246679 0.0118984,-0.0237095 0.0139464,-0.0225657 0.0158853,-0.0212455 0.0177,-0.0197591 0.0193763,-0.0181183 0.0209011,-0.0163358 0.0222624,-0.0144255 0.0234497,-0.0124025 0.0244537,-0.0102825 0.0252664,-0.00808209 0.0258816,-0.00581849 0.0262944,-0.00350939 0.0265016,-0.00117285 3.26459,0 0,0.2 z "/>
<path fill="rgb(187,30,16)" stroke="rgb(187,30,16)" d="M 4.50177,15.9766 l 0,1.56525 -3.10279,-6.20557 3.10279,0 0,0.7 -1.97016,0 1.97016,3.94033 z "/>
</g></g></svg>
