<?xml version="1.0" encoding="UTF-8" standalone="no"?>
<!DOCTYPE svg PUBLIC "-//W3C//DTD SVG 1.1//EN" "http://www.w3.org/Graphics/SVG/1.1/DTD/svg11-flat.dtd"
[

]>
<svg xmlns="http://www.w3.org/2000/svg"  viewBox="-0.09375 -0.09375 7.6875 7.6875"><g fill="none" stroke="black" stroke-width="0.0125" transform="translate(0,7.5) scale(1, -1)">
<g id="Output" >
<path fill="rgb(241,240,234)" stroke="rgb(241,240,234)" d="M 5.1,2.1 l 0,-0.629041 0.169978,0.108288 0.18341,0.140735 0.170446,0.156185 0.156185,0.170446 0.0409654,0.0533872 -0.720983,0 z "/>
<path fill="rgb(241,240,234)" stroke="rgb(241,240,234)" d="M 5.1,3.36759 l 0,-0.267595 1,0 0,1 -0.510776,0 0.0241638,-0.010016 0.0293249,-0.0152748 0.0278821,-0.0177725 0.026227,-0.0201349 0.0243723,-0.0223442 0.0223321,-0.0243833 0.020122,-0.0262369 0.0177587,-0.0278908 0.0152603,-0.0293325 0.0126458,-0.0305509 0.00993496,-0.0315368 0.00714854,-0.0322826 0.00430772,-0.0327828 0.00143412,-0.0330335 -0.0014504,-0.0330328 -0.00432388,-0.0327807 -0.00716446,-0.0322791 -0.0099505,-0.0315319 -0.0126608,-0.0305446 -0.0152748,-0.0293249 -0.0177725,-0.0278821 -0.0201349,-0.026227 -0.0223442,-0.0243723 -0.0243833,-0.0223321 -0.0262369,-0.020122 -0.0278908,-0.0177587 -0.0293325,-0.0152603 -0.0305509,-0.0126458 -0.0315368,-0.00993496 -0.0322826,-0.00714854 -0.0327828,-0.00430772 -0.0330335,-0.00143412 -1.0834e-11,2.66454e-15 -0.353032,8.70278e-05 z "/>
<path fill="rgb(241,240,234)" stroke="rgb(241,240,234)" d="M 6.02904,5.1 l -0.929041,0 0,-0.974379 0.353218,-8.70739e-05 0.0330328,-0.0014504 0.0327807,-0.00432388 0.0322791,-0.00716446 0.0315319,-0.0099505 0.00638082,-0.00264487 0.510776,0 0,0.869283 -0.0550327,0.105717 -0.0159268,0.025 z "/>
<path fill="rgb(241,240,234)" stroke="rgb(241,240,234)" d="M 3.1,5.1 l 1,0 0,1 -1,0 0,-1 z "/>
<path fill="rgb(241,240,234)" stroke="rgb(241,240,234)" d="M 6.1,4.1 l 0.274244,0 -0.0145038,0.110168 -0.0500371,0.225703 -0.069518,0.220483 -0.0884698,0.213585 -0.0517156,0.0993448 0,-0.869283 z "/>
<path fill="rgb(241,240,234)" stroke="rgb(241,240,234)" d="M 6.02904,5.1 l -0.108288,0.169978 -0.140735,0.18341 -0.156185,0.170446 -0.170446,0.156185 -0.18341,0.140735 -0.169978,0.108288 0,-0.929041 0.929041,0 z "/>
<path fill="rgb(241,240,234)" stroke="rgb(241,240,234)" d="M 6.1,3.1 l 0,-0.569283 0.0517156,0.0993448 0.0884698,0.213585 0.069518,0.220483 0.00795229,0.0358705 -0.217656,0 z "/>
<path fill="rgb(241,240,234)" stroke="rgb(241,240,234)" d="M 6.31766,3.1 l 0.0420848,0.189832 0.0301754,0.229205 0.0100841,0.230963 -0.0100841,0.230963 -0.0156716,0.119037 -0.274244,0 0,-1 0.217656,0 z "/>
<path fill="rgb(241,240,234)" stroke="rgb(241,240,234)" d="M 1.47096,5.1 l 0.629041,0 0,0.720983 -0.0533872,-0.0409654 -0.170446,-0.156185 -0.156185,-0.170446 -0.140735,-0.18341 -0.108288,-0.169978 z "/>
<path fill="rgb(241,240,234)" stroke="rgb(241,240,234)" d="M 2.1,1.67902 l 0,0.420983 -0.420983,0 0.0409654,-0.0533872 0.156185,-0.170446 0.170446,-0.156185 0.0533872,-0.0409654 z "/>
<path fill="rgb(241,240,234)" stroke="rgb(241,240,234)" d="M 1.67902,2.1 l 0.420983,0 0,1 -0.917656,0 0.00795229,-0.0358705 0.069518,-0.220483 0.0884698,-0.213585 0.106748,-0.205062 0.124214,-0.194978 0.0997697,-0.130022 z "/>
<path fill="rgb(241,240,234)" stroke="rgb(241,240,234)" d="M 1.90395,4.1 l -0.778196,0 -0.0156716,-0.119037 -0.0100841,-0.230963 0.0100841,-0.230963 0.0301754,-0.229205 0.0420848,-0.189832 0.917656,0 0,0.268334 -0.058024,1.43038e-05 -7.23421e-13,4.44089e-16 -0.0330328,0.0014504 -0.0327807,0.00432388 -0.0322791,0.00716446 -0.0315319,0.0099505 -0.0305446,0.0126608 -0.0293249,0.0152748 -0.0278821,0.0177725 -0.026227,0.0201349 -0.0243723,0.0223442 -0.0223321,0.0243833 -0.020122,0.0262369 -0.0177587,0.0278908 -0.0152603,0.0293325 -0.0126458,0.0305509 -0.00993496,0.0315368 -0.00714854,0.0322826 -0.00430772,0.0327828 -0.00143412,0.0330335 0.0014504,0.0330328 0.00432388,0.0327807 0.00716446,0.0322791 0.0099505,0.0315319 0.0126608,0.0305446 0.0152748,0.0293249 0.0177725,0.0278821 0.0201349,0.026227 0.0223442,0.0243723 0.0243833,0.0223321 0.0262369,0.020122 0.0278908,0.0177587 0.0293325,0.0152603 0.0219753,0.0090961 z "/>
<path fill="rgb(241,240,234)" stroke="rgb(241,240,234)" d="M 1.12576,4.1 l 0.778196,0 0.00857561,0.00354966 0.0315368,0.00993496 0.0322826,0.00714854 0.0327828,0.00430772 0.0330335,0.00143412 7.22977e-13,0 0.0578372,-1.42578e-05 0,0.973639 -0.629041,0 -0.0159268,-0.025 -0.106748,-0.205062 -0.0884698,-0.213585 -0.069518,-0.220483 -0.0500371,-0.225703 -0.0145038,-0.110168 z "/>
<path fill="rgb(241,240,234)" stroke="rgb(241,240,234)" d="M 2.1,1.67902 l 0.130022,-0.0997697 0.194978,-0.124214 0.205062,-0.106748 0.213585,-0.0884698 0.220483,-0.069518 0.0358705,-0.00795229 0,0.917656 -1,0 0,-0.420983 z "/>
<path fill="rgb(241,240,234)" stroke="rgb(241,240,234)" d="M 2.1,2.1 l 1,0 0,1 -1,0 0,-1 z "/>
<path fill="rgb(241,240,234)" stroke="rgb(241,240,234)" d="M 2.1,3.36833 l 0,-0.268334 1,0 0,0.268088 -1,0.000246516 z "/>
<path fill="rgb(241,240,234)" stroke="rgb(241,240,234)" d="M 2.1,4.12636 l 1,-0.000246516 0,0.973886 -1,0 0,-0.973639 z "/>
<path fill="rgb(241,240,234)" stroke="rgb(241,240,234)" d="M 2.1,5.82098 l 0,-0.720983 1,0 0,1 -0.569283,0 -0.105717,-0.0550327 -0.194978,-0.124214 -0.130022,-0.0997697 z "/>
<path fill="rgb(241,240,234)" stroke="rgb(241,240,234)" d="M 2.53072,6.1 l 0.569283,0 0,0.217656 -0.0358705,-0.00795229 -0.220483,-0.069518 -0.213585,-0.0884698 -0.0993448,-0.0517156 z "/>
<path fill="rgb(241,240,234)" stroke="rgb(241,240,234)" d="M 3.1,2.1 l 0,-0.917656 0.189832,-0.0420848 0.229205,-0.0301754 0.230963,-0.0100841 0.230963,0.0100841 0.119037,0.0156716 0,0.974244 -1,0 z "/>
<path fill="rgb(241,240,234)" stroke="rgb(241,240,234)" d="M 3.1,2.1 l 1,0 0,1 -1,0 0,-1 z "/>
<path fill="rgb(241,240,234)" stroke="rgb(241,240,234)" d="M 3.1,3.36809 l 0,-0.268088 1,0 0,0.267841 -1,0.000246516 z "/>
<path fill="rgb(241,240,234)" stroke="rgb(241,240,234)" d="M 3.1,4.12611 l 1,-0.000246516 0,0.974132 -1,0 0,-0.973886 z "/>
<path fill="rgb(241,240,234)" stroke="rgb(241,240,234)" d="M 3.1,6.31766 l 0,-0.217656 1,0 0,0.274244 -0.119037,0.0156716 -0.230963,0.0100841 -0.230963,-0.0100841 -0.229205,-0.0301754 -0.189832,-0.0420848 z "/>
<path fill="rgb(241,240,234)" stroke="rgb(241,240,234)" d="M 4.1,2.1 l 0,-0.974244 0.110168,0.0145038 0.225703,0.0500371 0.220483,0.069518 0.213585,0.0884698 0.205062,0.106748 0.025,0.0159268 0,0.629041 -1,0 z "/>
<path fill="rgb(241,240,234)" stroke="rgb(241,240,234)" d="M 4.1,2.1 l 1,0 0,1 -1,0 0,-1 z "/>
<path fill="rgb(241,240,234)" stroke="rgb(241,240,234)" d="M 4.1,3.36784 l 0,-0.267841 1,0 0,0.267595 -1,0.000246516 z "/>
<path fill="rgb(241,240,234)" stroke="rgb(241,240,234)" d="M 4.1,4.12587 l 1,-0.000246516 0,0.974379 -1,0 0,-0.974132 z "/>
<path fill="rgb(241,240,234)" stroke="rgb(241,240,234)" d="M 4.96928,6.1 l -0.869283,0 0,-1 1,0 0,0.929041 -0.025,0.0159268 -0.105717,0.0550327 z "/>
<path fill="rgb(241,240,234)" stroke="rgb(241,240,234)" d="M 4.96928,6.1 l -0.0993448,0.0517156 -0.213585,0.0884698 -0.220483,0.069518 -0.225703,0.0500371 -0.110168,0.0145038 0,-0.274244 0.869283,0 z "/>
<path fill="rgb(241,240,234)" stroke="rgb(241,240,234)" d="M 5.82098,2.1 l 0.0997697,0.130022 0.124214,0.194978 0.0550327,0.105717 0,0.569283 -1,0 0,-1 0.720983,0 z "/>
<path fill="rgb(241,240,234)" stroke="rgb(241,240,234)" d="M 0.2,3.75 l 0.0135088,-0.309403 0.0404237,-0.307048 0.0670308,-0.302357 0.0931279,-0.295364 0.118516,-0.286123 0.143002,-0.274705 0.1664,-0.261196 0.188532,-0.2457 0.209229,-0.228333 0.228333,-0.209229 0.2457,-0.188532 0.261196,-0.1664 0.274705,-0.143002 0.286123,-0.118516 0.295364,-0.0931279 0.302357,-0.0670308 0.307048,-0.0404237 0.309403,-0.0135088 0.309403,0.0135088 0.307048,0.0404237 0.302357,0.0670308 0.295364,0.0931279 0.286123,0.118516 0.274705,0.143002 0.261196,0.1664 0.2457,0.188532 0.228333,0.209229 0.209229,0.228333 0.188532,0.2457 0.1664,0.261196 0.143002,0.274705 0.118516,0.286123 0.0931279,0.295364 0.0670308,0.302357 0.0404237,0.307048 0.0135088,0.309403 -0.2,0 -0.0127478,-0.291972 -0.0381463,-0.28975 -0.0632545,-0.285322 -0.0878812,-0.278724 -0.111839,-0.270004 -0.134946,-0.259229 -0.157026,-0.246481 -0.17791,-0.231857 -0.197441,-0.215469 -0.215469,-0.197441 -0.231857,-0.17791 -0.246481,-0.157026 -0.259229,-0.134946 -0.270004,-0.111839 -0.278724,-0.0878812 -0.285322,-0.0632545 -0.28975,-0.0381463 -0.291972,-0.0127478 -0.291972,0.0127478 -0.28975,0.0381463 -0.285322,0.0632545 -0.278724,0.0878812 -0.270004,0.111839 -0.259229,0.134946 -0.246481,0.157026 -0.231857,0.17791 -0.215469,0.197441 -0.197441,0.215469 -0.17791,0.231857 -0.157026,0.246481 -0.134946,0.259229 -0.111839,0.270004 -0.0878812,0.278724 -0.0632545,0.285322 -0.0381463,0.28975 -0.0127478,0.291972 -0.2,0 z "/>
<path fill="rgb(241,240,234)" stroke="rgb(241,240,234)" d="M 0.2,3.75 l 0.2,0 0.0127478,0.291972 0.0381463,0.28975 0.0632545,0.285322 0.0878812,0.278724 0.111839,0.270004 0.134946,0.259229 0.157026,0.246481 0.17791,0.231857 0.197441,0.215469 0.215469,0.197441 0.231857,0.17791 0.246481,0.157026 0.259229,0.134946 0.270004,0.111839 0.278724,0.0878812 0.285322,0.0632545 0.28975,0.0381463 0.291972,0.0127478 0.291972,-0.0127478 0.28975,-0.0381463 0.285322,-0.0632545 0.278724,-0.0878812 0.270004,-0.111839 0.259229,-0.134946 0.246481,-0.157026 0.231857,-0.17791 0.215469,-0.197441 0.197441,-0.215469 0.17791,-0.231857 0.157026,-0.246481 0.134946,-0.259229 0.111839,-0.270004 0.0878812,-0.278724 0.0632545,-0.285322 0.0381463,-0.28975 0.0127478,-0.291972 0.2,0 -0.0135088,0.309403 -0.0404237,0.307048 -0.0670308,0.302357 -0.0931279,0.295364 -0.118516,0.286123 -0.143002,0.274705 -0.1664,0.261196 -0.188532,0.2457 -0.209229,0.228333 -0.228333,0.209229 -0.2457,0.188532 -0.261196,0.1664 -0.274705,0.143002 -0.286123,0.118516 -0.295364,0.0931279 -0.302357,0.0670308 -0.307048,0.0404237 -0.309403,0.0135088 -0.309403,-0.0135088 -0.307048,-0.0404237 -0.302357,-0.0670308 -0.295364,-0.0931279 -0.286123,-0.118516 -0.274705,-0.143002 -0.261196,-0.1664 -0.2457,-0.188532 -0.228333,-0.209229 -0.209229,-0.228333 -0.188532,-0.2457 -0.1664,-0.261196 -0.143002,-0.274705 -0.118516,-0.286123 -0.0931279,-0.295364 -0.0670308,-0.302357 -0.0404237,-0.307048 -0.0135088,-0.309403 z "/>
<path fill="rgb(42,41,42)" stroke="rgb(42,41,42)" d="M 5.45322,4.12553 l -3.41106,0.000840879 -7.22977e-13,0 -0.0330335,-0.00143412 -0.0327828,-0.00430772 -0.0322826,-0.00714854 -0.0315368,-0.00993496 -0.0305509,-0.0126458 -0.0293325,-0.0152603 -0.0278908,-0.0177587 -0.0262369,-0.020122 -0.0243833,-0.0223321 -0.0223442,-0.0243723 -0.0201349,-0.026227 -0.0177725,-0.0278821 -0.0152748,-0.0293249 -0.0126608,-0.0305446 -0.0099505,-0.0315319 -0.00716446,-0.0322791 -0.00432388,-0.0327807 -0.0014504,-0.0330328 0.00143412,-0.0330335 0.00430772,-0.0327828 0.00714854,-0.0322826 0.00993496,-0.0315368 0.0126458,-0.0305509 0.0152603,-0.0293325 0.0177587,-0.0278908 0.020122,-0.0262369 0.0223321,-0.0243833 0.0243723,-0.0223442 0.026227,-0.0201349 0.0278821,-0.0177725 0.0293249,-0.0152748 0.0305446,-0.0126608 0.0315319,-0.0099505 0.0322791,-0.00716446 0.0327807,-0.00432388 0.0330328,-0.0014504 7.23421e-13,-4.44089e-16 3.41106,-0.000840879 1.0834e-11,-2.66454e-15 0.0330335,0.00143412 0.0327828,0.00430772 0.0322826,0.00714854 0.0315368,0.00993496 0.0305509,0.0126458 0.0293325,0.0152603 0.0278908,0.0177587 0.0262369,0.020122 0.0243833,0.0223321 0.0223442,0.0243723 0.0201349,0.026227 0.0177725,0.0278821 0.0152748,0.0293249 0.0126608,0.0305446 0.0099505,0.0315319 0.00716446,0.0322791 0.00432388,0.0327807 0.0014504,0.0330328 -0.00143412,0.0330335 -0.00430772,0.0327828 -0.00714854,0.0322826 -0.00993496,0.0315368 -0.0126458,0.0305509 -0.0152603,0.0293325 -0.0177587,0.0278908 -0.020122,0.0262369 -0.0223321,0.0243833 -0.0243723,0.0223442 -0.026227,0.0201349 -0.0278821,0.0177725 -0.0293249,0.0152748 -0.0305446,0.0126608 -0.0315319,0.0099505 -0.0322791,0.00716446 -0.0327807,0.00432388 -0.0330328,0.0014504 z "/>
<path fill="rgb(42,41,42)" stroke="rgb(42,41,42)" d="M 5.45322,4.12553 l 0.0330328,-0.0014504 0.0327807,-0.00432388 0.0322791,-0.00716446 0.0315319,-0.0099505 0.0305446,-0.0126608 0.0293249,-0.0152748 0.0278821,-0.0177725 0.026227,-0.0201349 0.0243723,-0.0223442 0.0223321,-0.0243833 0.020122,-0.0262369 0.0177587,-0.0278908 0.0152603,-0.0293325 0.0126458,-0.0305509 0.00993496,-0.0315368 0.00714854,-0.0322826 0.00430772,-0.0327828 0.00143412,-0.0330335 -0.0014504,-0.0330328 -0.00432388,-0.0327807 -0.00716446,-0.0322791 -0.0099505,-0.0315319 -0.0126608,-0.0305446 -0.0152748,-0.0293249 -0.0177725,-0.0278821 -0.0201349,-0.026227 -0.0223442,-0.0243723 -0.0243833,-0.0223321 -0.0262369,-0.020122 -0.0278908,-0.0177587 -0.0293325,-0.0152603 -0.0305509,-0.0126458 -0.0315368,-0.00993496 -0.0322826,-0.00714854 -0.0327828,-0.00430772 -0.0330335,-0.00143412 0.0330335,0.00143412 0.0327828,0.00430772 0.0322826,0.00714854 0.0315368,0.00993496 0.0305509,0.0126458 0.0293325,0.0152603 0.0278908,0.0177587 0.0262369,0.020122 0.0243833,0.0223321 0.0223442,0.0243723 0.0201349,0.026227 0.0177725,0.0278821 0.0152748,0.0293249 0.0126608,0.0305446 0.0099505,0.0315319 0.00716446,0.0322791 0.00432388,0.0327807 0.0014504,0.0330328 -0.00143412,0.0330335 -0.00430772,0.0327828 -0.00714854,0.0322826 -0.00993496,0.0315368 -0.0126458,0.0305509 -0.0152603,0.0293325 -0.0177587,0.0278908 -0.020122,0.0262369 -0.0223321,0.0243833 -0.0243723,0.0223442 -0.026227,0.0201349 -0.0278821,0.0177725 -0.0293249,0.0152748 -0.0305446,0.0126608 -0.0315319,0.0099505 -0.0322791,0.00716446 -0.0327807,0.00432388 -0.0330328,0.0014504 z "/>
<path fill="rgb(42,41,42)" stroke="rgb(42,41,42)" d="M 2.04198,3.36835 l -0.0330328,0.0014504 -0.0327807,0.00432388 -0.0322791,0.00716446 -0.0315319,0.0099505 -0.0305446,0.0126608 -0.0293249,0.0152748 -0.0278821,0.0177725 -0.026227,0.0201349 -0.0243723,0.0223442 -0.0223321,0.0243833 -0.020122,0.0262369 -0.0177587,0.0278908 -0.0152603,0.0293325 -0.0126458,0.0305509 -0.00993496,0.0315368 -0.00714854,0.0322826 -0.00430772,0.0327828 -0.00143412,0.0330335 0.0014504,0.0330328 0.00432388,0.0327807 0.00716446,0.0322791 0.0099505,0.0315319 0.0126608,0.0305446 0.0152748,0.0293249 0.0177725,0.0278821 0.0201349,0.026227 0.0223442,0.0243723 0.0243833,0.0223321 0.0262369,0.020122 0.0278908,0.0177587 0.0293325,0.0152603 0.0305509,0.0126458 0.0315368,0.00993496 0.0322826,0.00714854 0.0327828,0.00430772 0.0330335,0.00143412 -0.0330335,-0.00143412 -0.0327828,-0.00430772 -0.0322826,-0.00714854 -0.0315368,-0.00993496 -0.0305509,-0.0126458 -0.0293325,-0.0152603 -0.0278908,-0.0177587 -0.0262369,-0.020122 -0.0243833,-0.0223321 -0.0223442,-0.0243723 -0.0201349,-0.026227 -0.0177725,-0.0278821 -0.0152748,-0.0293249 -0.0126608,-0.0305446 -0.0099505,-0.0315319 -0.00716446,-0.0322791 -0.00432388,-0.0327807 -0.0014504,-0.0330328 0.00143412,-0.0330335 0.00430772,-0.0327828 0.00714854,-0.0322826 0.00993496,-0.0315368 0.0126458,-0.0305509 0.0152603,-0.0293325 0.0177587,-0.0278908 0.020122,-0.0262369 0.0223321,-0.0243833 0.0243723,-0.0223442 0.026227,-0.0201349 0.0278821,-0.0177725 0.0293249,-0.0152748 0.0305446,-0.0126608 0.0315319,-0.0099505 0.0322791,-0.00716446 0.0327807,-0.00432388 0.0330328,-0.0014504 z "/>
<path fill="rgb(187,30,16)" stroke="rgb(187,30,16)" d="M 0.2,3.75 l -0.2,0 0.0142699,-0.326834 0.042701,-0.324347 0.0708072,-0.319391 0.0983745,-0.312004 0.125193,-0.302243 0.151059,-0.290182 0.175775,-0.275912 0.199154,-0.259542 0.221016,-0.241197 0.241197,-0.221016 0.259542,-0.199154 0.275912,-0.175775 0.290182,-0.151059 0.302243,-0.125193 0.312004,-0.0983745 0.319391,-0.0708072 0.324347,-0.042701 0.326834,-0.0142699 0.326834,0.0142699 0.324347,0.042701 0.319391,0.0708072 0.312004,0.0983745 0.302243,0.125193 0.290182,0.151059 0.275912,0.175775 0.259542,0.199154 0.241197,0.221016 0.221016,0.241197 0.199154,0.259542 0.175775,0.275912 0.151059,0.290182 0.125193,0.302243 0.0983745,0.312004 0.0708072,0.319391 0.042701,0.324347 0.0142699,0.326834 -0.2,0 -0.0135088,-0.309403 -0.0404237,-0.307048 -0.0670308,-0.302357 -0.0931279,-0.295364 -0.118516,-0.286123 -0.143002,-0.274705 -0.1664,-0.261196 -0.188532,-0.2457 -0.209229,-0.228333 -0.228333,-0.209229 -0.2457,-0.188532 -0.261196,-0.1664 -0.274705,-0.143002 -0.286123,-0.118516 -0.295364,-0.0931279 -0.302357,-0.0670308 -0.307048,-0.0404237 -0.309403,-0.0135088 -0.309403,0.0135088 -0.307048,0.0404237 -0.302357,0.0670308 -0.295364,0.0931279 -0.286123,0.118516 -0.274705,0.143002 -0.261196,0.1664 -0.2457,0.188532 -0.228333,0.209229 -0.209229,0.228333 -0.188532,0.2457 -0.1664,0.261196 -0.143002,0.274705 -0.118516,0.286123 -0.0931279,0.295364 -0.0670308,0.302357 -0.0404237,0.307048 -0.0135088,0.309403 z "/>
<path fill="rgb(187,30,16)" stroke="rgb(187,30,16)" d="M 0.2,3.75 l 0.0135088,0.309403 0.0404237,0.307048 0.0670308,0.302357 0.0931279,0.295364 0.118516,0.286123 0.143002,0.274705 0.1664,0.261196 0.188532,0.2457 0.209229,0.228333 0.228333,0.209229 0.2457,0.188532 0.261196,0.1664 0.274705,0.143002 0.286123,0.118516 0.295364,0.0931279 0.302357,0.0670308 0.307048,0.0404237 0.309403,0.0135088 0.309403,-0.0135088 0.307048,-0.0404237 0.302357,-0.0670308 0.295364,-0.0931279 0.286123,-0.118516 0.274705,-0.143002 0.261196,-0.1664 0.2457,-0.188532 0.228333,-0.209229 0.209229,-0.228333 0.188532,-0.2457 0.1664,-0.261196 0.143002,-0.274705 0.118516,-0.286123 0.0931279,-0.295364 0.0670308,-0.302357 0.0404237,-0.307048 0.0135088,-0.309403 0.2,0 -0.0142699,0.326834 -0.042701,0.324347 -0.0708072,0.319391 -0.0983745,0.312004 -0.125193,0.302243 -0.151059,0.290182 -0.175775,0.275912 -0.199154,0.259542 -0.221016,0.241197 -0.241197,0.221016 -0.259542,0.199154 -0.275912,0.175775 -0.290182,0.151059 -0.302243,0.125193 -0.312004,0.0983745 -0.319391,0.0708072 -0.324347,0.042701 -0.326834,0.0142699 -0.326834,-0.0142699 -0.324347,-0.042701 -0.319391,-0.0708072 -0.312004,-0.0983745 -0.302243,-0.125193 -0.290182,-0.151059 -0.275912,-0.175775 -0.259542,-0.199154 -0.241197,-0.221016 -0.221016,-0.241197 -0.199154,-0.259542 -0.175775,-0.275912 -0.151059,-0.290182 -0.125193,-0.302243 -0.0983745,-0.312004 -0.0708072,-0.319391 -0.042701,-0.324347 -0.0142699,-0.326834 0.2,0 z "/>
<path fill="rgb(187,30,16)" stroke="rgb(187,30,16)" d="M 7.1,3.75 l -0.7,0 -0.0100841,-0.230963 -0.0301754,-0.229205 -0.0500371,-0.225703 -0.069518,-0.220483 -0.0884698,-0.213585 -0.106748,-0.205062 -0.124214,-0.194978 -0.140735,-0.18341 -0.156185,-0.170446 -0.170446,-0.156185 -0.18341,-0.140735 -0.194978,-0.124214 -0.205062,-0.106748 -0.213585,-0.0884698 -0.220483,-0.069518 -0.225703,-0.0500371 -0.229205,-0.0301754 -0.230963,-0.0100841 -0.230963,0.0100841 -0.229205,0.0301754 -0.225703,0.0500371 -0.220483,0.069518 -0.213585,0.0884698 -0.205062,0.106748 -0.194978,0.124214 -0.18341,0.140735 -0.170446,0.156185 -0.156185,0.170446 -0.140735,0.18341 -0.124214,0.194978 -0.106748,0.205062 -0.0884698,0.213585 -0.069518,0.220483 -0.0500371,0.225703 -0.0301754,0.229205 -0.0100841,0.230963 -0.7,0 0.0127478,-0.291972 0.0381463,-0.28975 0.0632545,-0.285322 0.0878812,-0.278724 0.111839,-0.270004 0.134946,-0.259229 0.157026,-0.246481 0.17791,-0.231857 0.197441,-0.215469 0.215469,-0.197441 0.231857,-0.17791 0.246481,-0.157026 0.259229,-0.134946 0.270004,-0.111839 0.278724,-0.0878812 0.285322,-0.0632545 0.28975,-0.0381463 0.291972,-0.0127478 0.291972,0.0127478 0.28975,0.0381463 0.285322,0.0632545 0.278724,0.0878812 0.270004,0.111839 0.259229,0.134946 0.246481,0.157026 0.231857,0.17791 0.215469,0.197441 0.197441,0.215469 0.17791,0.231857 0.157026,0.246481 0.134946,0.259229 0.111839,0.270004 0.0878812,0.278724 0.0632545,0.285322 0.0381463,0.28975 0.0127478,0.291972 z "/>
<path fill="rgb(187,30,16)" stroke="rgb(187,30,16)" d="M 7.1,3.75 l -0.0127478,0.291972 -0.0381463,0.28975 -0.0632545,0.285322 -0.0878812,0.278724 -0.111839,0.270004 -0.134946,0.259229 -0.157026,0.246481 -0.17791,0.231857 -0.197441,0.215469 -0.215469,0.197441 -0.231857,0.17791 -0.246481,0.157026 -0.259229,0.134946 -0.270004,0.111839 -0.278724,0.0878812 -0.285322,0.0632545 -0.28975,0.0381463 -0.291972,0.0127478 -0.291972,-0.0127478 -0.28975,-0.0381463 -0.285322,-0.0632545 -0.278724,-0.0878812 -0.270004,-0.111839 -0.259229,-0.134946 -0.246481,-0.157026 -0.231857,-0.17791 -0.215469,-0.197441 -0.197441,-0.215469 -0.17791,-0.231857 -0.157026,-0.246481 -0.134946,-0.259229 -0.111839,-0.270004 -0.0878812,-0.278724 -0.0632545,-0.285322 -0.0381463,-0.28975 -0.0127478,-0.291972 0.7,0 0.0100841,0.230963 0.0301754,0.229205 0.0500371,0.225703 0.069518,0.220483 0.0884698,0.213585 0.106748,0.205062 0.124214,0.194978 0.140735,0.18341 0.156185,0.170446 0.170446,0.156185 0.18341,0.140735 0.194978,0.124214 0.205062,0.106748 0.213585,0.0884698 0.220483,0.069518 0.225703,0.0500371 0.229205,0.0301754 0.230963,0.0100841 0.230963,-0.0100841 0.229205,-0.0301754 0.225703,-0.0500371 0.220483,-0.069518 0.213585,-0.0884698 0.205062,-0.106748 0.194978,-0.124214 0.18341,-0.140735 0.170446,-0.156185 0.156185,-0.170446 0.140735,-0.18341 0.124214,-0.194978 0.106748,-0.205062 0.0884698,-0.213585 0.069518,-0.220483 0.0500371,-0.225703 0.0301754,-0.229205 0.0100841,-0.230963 0.7,0 z "/>
</g></g></svg>
