<?xml version="1.0" encoding="UTF-8" standalone="no"?>
<!DOCTYPE svg PUBLIC "-//W3C//DTD SVG 1.1//EN" "http://www.w3.org/Graphics/SVG/1.1/DTD/svg11-flat.dtd"
[

]>
<svg xmlns="http://www.w3.org/2000/svg"  viewBox="-0.108333 -0.108333 15.7167 6.71667"><g fill="none" stroke="black" stroke-width="0.0125" transform="translate(0,6.5) scale(1, -1)">
<g id="Output" >
<path fill="rgb(241,240,234)" stroke="rgb(241,240,234)" d="M 13.8538,6.1 l -0.534405,-1.77636e-15 -5.56937,-2.24767 0,-0.215673 6.10377,2.46334 z "/>
<path fill="rgb(241,240,234)" stroke="rgb(241,240,234)" d="M 7.75,3.85233 l -7.35,-2.96629 -1.77636e-15,-0.186045 0.000156847,-0.00969968 0.000470378,-0.00968954 0.000783417,-0.00966926 7.34859,2.96572 0,0.215673 z "/>
<path fill="rgb(241,240,234)" stroke="rgb(241,240,234)" d="M 2.18063,0.4 l 5.56937,2.24767 0,0.215673 -6.10377,-2.46334 0.534405,4.44089e-16 z "/>
<path fill="rgb(241,240,234)" stroke="rgb(241,240,234)" d="M 15.0986,5.82906 l -7.34859,-2.96572 0,-0.215673 7.35,2.96629 -3.55271e-15,0.186045 -0.000156847,0.00969968 -0.000470378,0.00968954 -0.000783417,0.00966926 z "/>
<path fill="rgb(241,240,234)" stroke="rgb(241,240,234)" d="M 0.7,6.3 l 7.05,0 -1.77636e-15,-0.2 -7.05,8.88178e-16 -0.0261467,-0.00114159 -0.0259477,-0.00341608 -0.0255513,-0.00566458 -0.0249603,-0.00786996 -0.0241794,-0.0100155 -0.0232145,-0.0120847 -0.0220729,-0.014062 -0.0207634,-0.0159323 -0.0192958,-0.0176813 -0.0176813,-0.0192958 -0.0159323,-0.0207634 -0.014062,-0.0220729 -0.0120847,-0.0232145 -0.0100155,-0.0241794 -0.00786996,-0.0249603 -0.00566458,-0.0255513 -0.00341608,-0.0259477 -0.00114159,-0.0261467 -8.88178e-16,-4.91395 -1.77636e-15,-0.186045 0.000156847,-0.00969968 0.000470378,-0.00968954 0.000783417,-0.00966926 0.00363737,-0.0257441 0.00585275,-0.0253325 0.00802417,-0.0247306 0.0101353,-0.0239429 0.0121703,-0.0229755 0.014114,-0.0218354 0.0159516,-0.0205314 0.0176694,-0.0190731 0.0192544,-0.0174716 0.0206949,-0.0157388 0.0219799,-0.0138879 0.0230998,-0.0119326 0.0240463,-0.00988768 0.0248121,-0.00776851 0.0253915,-0.00559099 0.0257803,-0.00337148 0.0259754,-0.00112665 0.946225,4.44089e-16 0.534405,4.44089e-16 5.56937,4.44089e-16 0,-0.2 -7.05,0 -0.0435779,0.00190265 -0.0432462,0.00569347 -0.0425854,0.00944096 -0.0416005,0.0131166 -0.0402991,0.0166924 -0.0386909,0.0201412 -0.0367882,0.0234367 -0.0346056,0.0265538 -0.0321596,0.0294688 -0.0294688,0.0321596 -0.0265538,0.0346056 -0.0234367,0.0367882 -0.0201412,0.0386909 -0.0166924,0.0402991 -0.0131166,0.0416005 -0.00944096,0.0425854 -0.00569347,0.0432462 -0.00190265,0.0435779 -1.77636e-15,5.1 0.00190265,0.0435779 0.00569347,0.0432462 0.00944096,0.0425854 0.0131166,0.0416005 0.0166924,0.0402991 0.0201412,0.0386909 0.0234367,0.0367882 0.0265538,0.0346056 0.0294688,0.0321596 0.0321596,0.0294688 0.0346056,0.0265538 0.0367882,0.0234367 0.0386909,0.0201412 0.0402991,0.0166924 0.0416005,0.0131166 0.0425854,0.00944096 0.0432462,0.00569347 0.0435779,0.00190265 z "/>
<path fill="rgb(0,91,140)" stroke="rgb(0,91,140)" d="M 0.7,6.3 l -0.0435779,-0.00190265 -0.0432462,-0.00569347 -0.0425854,-0.00944096 -0.0416005,-0.0131166 -0.0402991,-0.0166924 -0.0386909,-0.0201412 -0.0367882,-0.0234367 -0.0346056,-0.0265538 -0.0321596,-0.0294688 -0.0294688,-0.0321596 -0.0265538,-0.0346056 -0.0234367,-0.0367882 -0.0201412,-0.0386909 -0.0166924,-0.0402991 -0.0131166,-0.0416005 -0.00944096,-0.0425854 -0.00569347,-0.0432462 -0.00190265,-0.0435779 1.77636e-15,-5.1 0.00190265,-0.0435779 0.00569347,-0.0432462 0.00944096,-0.0425854 0.0131166,-0.0416005 0.0166924,-0.0402991 0.0201412,-0.0386909 0.0234367,-0.0367882 0.0265538,-0.0346056 0.0294688,-0.0321596 0.0321596,-0.0294688 0.0346056,-0.0265538 0.0367882,-0.0234367 0.0386909,-0.0201412 0.0402991,-0.0166924 0.0416005,-0.0131166 0.0425854,-0.00944096 0.0432462,-0.00569347 0.0435779,-0.00190265 7.05,0 -8.88178e-16,-0.2 -7.05,-3.55271e-15 -0.061009,0.00266371 -0.0605447,0.00797086 -0.0596196,0.0132173 -0.0582408,0.0183632 -0.0564187,0.0233694 -0.0541672,0.0281977 -0.0515035,0.0328114 -0.0484478,0.0371753 -0.0450234,0.0412564 -0.0412564,0.0450234 -0.0371753,0.0484478 -0.0328114,0.0515035 -0.0281977,0.0541672 -0.0233694,0.0564187 -0.0183632,0.0582408 -0.0132173,0.0596196 -0.00797086,0.0605447 -0.00266371,0.061009 8.88178e-16,5.1 0.00266371,0.061009 0.00797086,0.0605447 0.0132173,0.0596196 0.0183632,0.0582408 0.0233694,0.0564187 0.0281977,0.0541672 0.0328114,0.0515035 0.0371753,0.0484478 0.0412564,0.0450234 0.0450234,0.0412564 0.0484478,0.0371753 0.0515035,0.0328114 0.0541672,0.0281977 0.0564187,0.0233694 0.0582408,0.0183632 0.0596196,0.0132173 0.0605447,0.00797086 0.061009,0.00266371 7.05,-8.88178e-16 0,-0.2 -7.05,0 z "/>
<path fill="rgb(0,91,140)" stroke="rgb(0,91,140)" d="M 0.4,5.8 l 0.00114159,0.0261467 0.00341608,0.0259477 0.00566458,0.0255513 0.00786996,0.0249603 0.0100155,0.0241794 0.0120847,0.0232145 0.014062,0.0220729 0.0159323,0.0207634 0.0176813,0.0192958 0.0192958,0.0176813 0.0207634,0.0159323 0.0220729,0.014062 0.0232145,0.0120847 0.0241794,0.0100155 0.0249603,0.00786996 0.0255513,0.00566458 0.0259477,0.00341608 0.0261467,0.00114159 7.05,-8.88178e-16 8.88178e-16,-2.24767 -7.35,-2.96629 8.88178e-16,4.91395 z "/>
<path fill="rgb(0,91,140)" stroke="rgb(0,91,140)" d="M 7.75,0.4 l -5.56937,-4.44089e-16 5.56937,2.24767 8.88178e-16,-2.24767 z "/>
<path fill="rgb(241,240,234)" stroke="rgb(241,240,234)" d="M 15.1,5.8 l 3.55271e-15,-0.186045 1.77636e-15,-4.91395 -0.00114159,-0.0261467 -0.00341608,-0.0259477 -0.00566458,-0.0255513 -0.00786996,-0.0249603 -0.0100155,-0.0241794 -0.0120847,-0.0232145 -0.014062,-0.0220729 -0.0159323,-0.0207634 -0.0176813,-0.0192958 -0.0192958,-0.0176813 -0.0207634,-0.0159323 -0.0220729,-0.014062 -0.0232145,-0.0120847 -0.0241794,-0.0100155 -0.0249603,-0.00786996 -0.0255513,-0.00566458 -0.0259477,-0.00341608 -0.0261467,-0.00114159 -7.05,1.33227e-15 0,-0.2 7.05,0 0.0435779,0.00190265 0.0432462,0.00569347 0.0425854,0.00944096 0.0416005,0.0131166 0.0402991,0.0166924 0.0386909,0.0201412 0.0367882,0.0234367 0.0346056,0.0265538 0.0321596,0.0294688 0.0294688,0.0321596 0.0265538,0.0346056 0.0234367,0.0367882 0.0201412,0.0386909 0.0166924,0.0402991 0.0131166,0.0416005 0.00944096,0.0425854 0.00569347,0.0432462 0.00190265,0.0435779 1.77636e-15,5.1 -0.00190265,0.0435779 -0.00569347,0.0432462 -0.00944096,0.0425854 -0.0131166,0.0416005 -0.0166924,0.0402991 -0.0201412,0.0386909 -0.0234367,0.0367882 -0.0265538,0.0346056 -0.0294688,0.0321596 -0.0321596,0.0294688 -0.0346056,0.0265538 -0.0367882,0.0234367 -0.0386909,0.0201412 -0.0402991,0.0166924 -0.0416005,0.0131166 -0.0425854,0.00944096 -0.0432462,0.00569347 -0.0435779,0.00190265 -7.05,0 -1.77636e-15,-0.2 5.56937,0 0.534405,1.77636e-15 0.946225,-8.88178e-16 0.0259754,-0.00112665 0.0257803,-0.00337148 0.0253915,-0.00559099 0.0248121,-0.00776851 0.0240463,-0.00988768 0.0230998,-0.0119326 0.0219799,-0.0138879 0.0206949,-0.0157388 0.0192544,-0.0174716 0.0176694,-0.0190731 0.0159516,-0.0205314 0.014114,-0.0218354 0.0121703,-0.0229755 0.0101353,-0.0239429 0.00802417,-0.0247306 0.00585275,-0.0253325 0.00363737,-0.0257441 0.000783417,-0.00966926 0.000470378,-0.00968954 0.000156847,-0.00969968 z "/>
<path fill="rgb(0,91,140)" stroke="rgb(0,91,140)" d="M 14.8,6.3 l 0.0435779,-0.00190265 0.0432462,-0.00569347 0.0425854,-0.00944096 0.0416005,-0.0131166 0.0402991,-0.0166924 0.0386909,-0.0201412 0.0367882,-0.0234367 0.0346056,-0.0265538 0.0321596,-0.0294688 0.0294688,-0.0321596 0.0265538,-0.0346056 0.0234367,-0.0367882 0.0201412,-0.0386909 0.0166924,-0.0402991 0.0131166,-0.0416005 0.00944096,-0.0425854 0.00569347,-0.0432462 0.00190265,-0.0435779 -1.77636e-15,-5.1 -0.00190265,-0.0435779 -0.00569347,-0.0432462 -0.00944096,-0.0425854 -0.0131166,-0.0416005 -0.0166924,-0.0402991 -0.0201412,-0.0386909 -0.0234367,-0.0367882 -0.0265538,-0.0346056 -0.0294688,-0.0321596 -0.0321596,-0.0294688 -0.0346056,-0.0265538 -0.0367882,-0.0234367 -0.0386909,-0.0201412 -0.0402991,-0.0166924 -0.0416005,-0.0131166 -0.0425854,-0.00944096 -0.0432462,-0.00569347 -0.0435779,-0.00190265 -7.05,0 -8.88178e-16,-0.2 7.05,-3.55271e-15 0.061009,0.00266371 0.0605447,0.00797086 0.0596196,0.0132173 0.0582408,0.0183632 0.0564187,0.0233694 0.0541672,0.0281977 0.0515035,0.0328114 0.0484478,0.0371753 0.0450234,0.0412564 0.0412564,0.0450234 0.0371753,0.0484478 0.0328114,0.0515035 0.0281977,0.0541672 0.0233694,0.0564187 0.0183632,0.0582408 0.0132173,0.0596196 0.00797086,0.0605447 0.00266371,0.061009 -1.77636e-15,5.1 -0.00266371,0.061009 -0.00797086,0.0605447 -0.0132173,0.0596196 -0.0183632,0.0582408 -0.0233694,0.0564187 -0.0281977,0.0541672 -0.0328114,0.0515035 -0.0371753,0.0484478 -0.0412564,0.0450234 -0.0450234,0.0412564 -0.0484478,0.0371753 -0.0515035,0.0328114 -0.0541672,0.0281977 -0.0564187,0.0233694 -0.0582408,0.0183632 -0.0596196,0.0132173 -0.0605447,0.00797086 -0.061009,0.00266371 -7.05,-8.88178e-16 0,-0.2 7.05,0 z "/>
<path fill="rgb(0,91,140)" stroke="rgb(0,91,140)" d="M 15.1,5.61395 l -7.35,-2.96629 8.88178e-16,-2.24767 7.05,-1.33227e-15 0.0261467,0.00114159 0.0259477,0.00341608 0.0255513,0.00566458 0.0249603,0.00786996 0.0241794,0.0100155 0.0232145,0.0120847 0.0220729,0.014062 0.0207634,0.0159323 0.0192958,0.0176813 0.0176813,0.0192958 0.0159323,0.0207634 0.014062,0.0220729 0.0120847,0.0232145 0.0100155,0.0241794 0.00786996,0.0249603 0.00566458,0.0255513 0.00341608,0.0259477 0.00114159,0.0261467 -1.77636e-15,4.91395 z "/>
<path fill="rgb(0,91,140)" stroke="rgb(0,91,140)" d="M 7.75,6.1 l 8.88178e-16,-2.24767 5.56937,2.24767 -5.56937,0 z "/>
<path fill="rgb(241,240,234)" stroke="rgb(241,240,234)" d="M 11.9072,1.99858 l -0.0303733,-0.0016418 -0.0402241,-0.00902991 -0.0385823,-0.0147762 -0.0361196,-0.0229852 -0.0336569,-0.0287315 0.365301,-0.00738811 -0.0311942,0.0303733 -0.0344778,0.0238061 -0.0369405,0.016418 -0.0402241,0.0106717 -0.0435077,0.0032836 z "/>
<path fill="rgb(241,240,234)" stroke="rgb(241,240,234)" d="M 12.3185,1.99858 l -0.0262688,-0.0016418 -0.0394032,-0.0057463 -0.0385823,-0.0123135 -0.0394032,-0.0172389 -0.0385823,-0.0221643 -0.0394032,-0.0287315 0.440003,-0.0147762 -0.0295524,0.032836 -0.0270897,0.0221643 -0.0352987,0.0205225 -0.0385823,0.0147762 -0.0426868,0.00902991 -0.0451495,0.0032836 z "/>
<path fill="rgb(241,240,234)" stroke="rgb(241,240,234)" d="M 11.7283,1.98134 l -0.178956,0 0,-0.730602 0.178956,0 0,0.438361 0.000820901,0.0172389 0.0106717,0.041045 0.0221643,0.0352987 0.00820901,0.00820901 0.0344778,0.0213434 0.0426868,0.0065672 0.726497,0.0041045 -0.0147762,0.0377614 -0.0221643,0.0352987 -0.440003,0.0147762 -0.0032836,0.0032836 -0.365301,0.00738811 0,0.0599257 z "/>
<path fill="rgb(241,240,234)" stroke="rgb(241,240,234)" d="M 12.5738,1.82291 l -0.726497,-0.0041045 0.431794,0 0.0188807,-0.000820901 0.041045,-0.0114926 0.0311942,-0.0238061 0.0123135,-0.0155971 0.016418,-0.0369405 0.0049254,-0.0451495 0,-0.434256 0.179777,0 0,0.50157 -0.0016418,0.0287315 -0.00820901,0.0418659 z "/>
<path fill="rgb(241,240,234)" stroke="rgb(241,240,234)" d="M 11.8473,1.8188 l 0.0197016,-0.000820901 0.0402241,-0.0123135 0.0352987,-0.024627 0.0131344,-0.0155971 0.0188807,-0.0361196 0.0057463,-0.0443286 0,-0.434256 0.171568,0 0,0.441645 0.000820901,0.0139553 0.0114926,0.0402241 0.0254479,0.0344778 0.0114926,0.0106717 0.0361196,0.0205225 0.0418659,0.0065672 -0.431794,0 z "/>
<path fill="rgb(241,240,234)" stroke="rgb(241,240,234)" d="M 11.0921,1.99858 l -0.0197016,-0.000820901 -0.0402241,-0.0032836 -0.0402241,-0.0065672 -0.041045,-0.0106717 -0.0418659,-0.0139553 -0.0418659,-0.0180598 -0.0418659,-0.0213434 0.0738811,-0.154329 0.0188807,0.0114926 0.0394032,0.0188807 0.0402241,0.0139553 0.041045,0.00820901 0.0426868,0.0032836 0.279927,0.0106717 -0.0147762,0.0336569 -0.0180598,0.0303733 -0.0221643,0.0262688 -0.0262688,0.0221643 -0.0303733,0.0180598 -0.0336569,0.0139553 -0.0377614,0.00985081 -0.041045,0.0057463 -0.0451495,0.0024627 z "/>
<path fill="rgb(241,240,234)" stroke="rgb(241,240,234)" d="M 11.3613,1.83604 l -0.279927,-0.0106717 0.000820901,0 0.0435077,-0.0049254 0.0344778,-0.0147762 0.0262688,-0.0238061 0.0180598,-0.0336569 0.00985081,-0.0426868 -0.325898,-0.0065672 -0.032836,-0.0197016 -0.0024627,-0.0016418 -0.0303733,-0.0279106 -0.0229852,-0.0320151 0.259405,-0.0344778 0.0262688,-0.0016418 0.041045,-0.0057463 0.0426868,-0.0106717 0.0451495,-0.0155971 0,-0.112463 -0.0385823,-0.0155971 -0.0443286,-0.0139553 -0.0402241,-0.00820901 -0.0361196,-0.0024627 -0.270897,-0.0032836 0.016418,-0.0369405 0.0221643,-0.032836 0.0287315,-0.0279106 0.362838,-0.0131344 0,-0.0320151 0.168285,0 0,0.441645 0,0.0172389 -0.0032836,0.0459704 -0.0065672,0.0418659 -0.0114926,0.0385823 z "/>
<path fill="rgb(241,240,234)" stroke="rgb(241,240,234)" d="M 11.051,1.73179 l -0.0385823,-0.0016418 -0.0451495,-0.0057463 -0.041045,-0.0106717 -0.0377614,-0.0147762 0.325898,0.0065672 -0.0344778,0.00985081 -0.0418659,0.00902991 -0.0435077,0.0057463 -0.0435077,0.0016418 z "/>
<path fill="rgb(241,240,234)" stroke="rgb(241,240,234)" d="M 10.7998,1.61768 l -0.016418,-0.0369405 -0.0106717,-0.0418659 -0.0032836,-0.0459704 0.000820901,-0.0106717 0.0041045,-0.0467913 0.00985081,-0.0418659 0.270897,0.0032836 -0.0147762,0 -0.0435077,0.00902991 -0.0336569,0.0197016 -0.0229852,0.0279106 -0.00985081,0.0394032 0.0065672,0.0311942 0.0279106,0.032836 0.0106717,0.0065672 0.0377614,0.0147762 0.0459704,0.0049254 -0.259405,0.0344778 z "/>
<path fill="rgb(241,240,234)" stroke="rgb(241,240,234)" d="M 10.8516,1.29589 l 0.0180598,-0.0131344 0.0352987,-0.0197016 0.0385823,-0.0139553 0.0435077,-0.00902991 0.0467913,-0.0024627 0.0155971,0 0.0443286,0.0041045 0.0418659,0.00902991 0.0402241,0.0139553 0.0385823,0.0180598 -0.362838,0.0131344 z "/>
<path fill="rgb(241,240,234)" stroke="rgb(241,240,234)" d="M 10.3533,1.99858 l -0.0188807,-0.000820901 -0.0402241,-0.0032836 -0.041045,-0.0065672 -0.041045,-0.0106717 -0.0418659,-0.0139553 -0.0418659,-0.0180598 -0.0418659,-0.0213434 0.074702,-0.154329 0.0180598,0.0114926 0.0394032,0.0188807 0.0402241,0.0139553 0.0418659,0.00820901 0.0418659,0.0032836 0.280748,0.0106717 -0.0147762,0.0336569 -0.0188807,0.0303733 -0.0221643,0.0262688 -0.0262688,0.0221643 -0.0295524,0.0180598 -0.0344778,0.0139553 -0.0369405,0.00985081 -0.0418659,0.0057463 -0.0451495,0.0024627 z "/>
<path fill="rgb(241,240,234)" stroke="rgb(241,240,234)" d="M 10.6233,1.83604 l -0.280748,-0.0106717 0.0016418,0 0.0426868,-0.0049254 0.0352987,-0.0147762 0.0262688,-0.0238061 0.0172389,-0.0336569 0.00985081,-0.0426868 -0.325077,-0.0065672 -0.0336569,-0.0197016 -0.0024627,-0.0016418 -0.0295524,-0.0279106 -0.0238061,-0.0320151 0.260225,-0.0344778 0.0262688,-0.0016418 0.041045,-0.0057463 0.0426868,-0.0106717 0.0443286,-0.0155971 0,-0.112463 -0.0385823,-0.0155971 -0.0435077,-0.0139553 -0.0402241,-0.00820901 -0.0361196,-0.0024627 -0.270897,-0.0032836 0.016418,-0.0369405 0.0221643,-0.032836 0.0279106,-0.0279106 0.362838,-0.0131344 0,-0.0320151 0.169106,0 0,0.441645 -0.000820901,0.0172389 -0.0024627,0.0459704 -0.00738811,0.0418659 -0.0106717,0.0385823 z "/>
<path fill="rgb(241,240,234)" stroke="rgb(241,240,234)" d="M 10.3122,1.73179 l -0.0377614,-0.0016418 -0.0459704,-0.0057463 -0.041045,-0.0106717 -0.0369405,-0.0147762 0.325077,0.0065672 -0.0336569,0.00985081 -0.0426868,0.00902991 -0.0426868,0.0057463 -0.0443286,0.0016418 z "/>
<path fill="rgb(241,240,234)" stroke="rgb(241,240,234)" d="M 10.061,1.61768 l -0.016418,-0.0369405 -0.00985081,-0.0418659 -0.0032836,-0.0459704 0,-0.0106717 0.0041045,-0.0467913 0.0106717,-0.0418659 0.270897,0.0032836 -0.0155971,0 -0.0426868,0.00902991 -0.0336569,0.0197016 -0.0238061,0.0279106 -0.00985081,0.0394032 0.0065672,0.0311942 0.0279106,0.032836 0.0106717,0.0065672 0.0377614,0.0147762 0.0467913,0.0049254 -0.260225,0.0344778 z "/>
<path fill="rgb(241,240,234)" stroke="rgb(241,240,234)" d="M 10.1127,1.29589 l 0.0180598,-0.0131344 0.0352987,-0.0197016 0.0394032,-0.0139553 0.0426868,-0.00902991 0.0467913,-0.0024627 0.016418,0 0.0435077,0.0041045 0.0418659,0.00902991 0.0402241,0.0139553 0.0385823,0.0180598 -0.362838,0.0131344 z "/>
<path fill="rgb(241,240,234)" stroke="rgb(241,240,234)" d="M 9.63498,1.99448 l -0.0254479,-0.0016418 -0.0426868,-0.00738811 -0.0385823,-0.0139553 -0.0344778,-0.0221643 -0.0303733,-0.0279106 0.393211,-0.0238061 -0.0295524,0.0311942 -0.0279106,0.0213434 -0.0352987,0.0188807 -0.0394032,0.0139553 -0.0426868,0.00820901 -0.0467913,0.0032836 z "/>
<path fill="rgb(241,240,234)" stroke="rgb(241,240,234)" d="M 9.46342,1.98134 l -0.179777,0 0,-0.730602 0.179777,0 0,0.438361 0.000820901,0.0188807 0.0123135,0.0402241 0.024627,0.0361196 0.0139553,0.0131344 0.0352987,0.0205225 0.0426868,0.00738811 0.285673,0.0377614 -0.0221643,0.0344778 -0.393211,0.0238061 0,0.0599257 z "/>
<path fill="rgb(241,240,234)" stroke="rgb(241,240,234)" d="M 9.87879,1.86313 l -0.285673,-0.0377614 0.0221643,-0.0016418 0.0402241,-0.0114926 0.0336569,-0.0238061 0.0147762,-0.0172389 0.0172389,-0.0377614 0.0057463,-0.0443286 0,-0.438361 0.174852,0 0,0.508958 -0.000820901,0.0221643 -0.00738811,0.0426868 -0.0147762,0.0385823 z "/>
<path fill="rgb(241,240,234)" stroke="rgb(241,240,234)" d="M 8.84692,1.99119 l -0.00902991,0 -0.0607466,-0.00820901 -0.0558212,-0.0213434 -0.0500749,-0.0336569 -0.0459704,-0.0459704 -0.0213434,-0.0295524 -0.0303733,-0.0525376 -0.0213434,-0.057463 -0.0123135,-0.0615675 -0.0049254,-0.065672 0.0024627,-0.0451495 0.00985081,-0.0632093 0.0180598,-0.0591048 0.0262688,-0.0541794 0.262688,0.0041045 -0.032836,0.0049254 -0.0533585,0.032836 -0.0287315,0.0385823 -0.0221643,0.0607466 -0.00738811,0.024627 0.445749,0 0,0.0525376 0,0.0197016 -0.00738811,0.0623884 -0.427689,0.0057463 0.00902991,0.0311942 0.0295524,0.0550003 0.041045,0.032836 0.0541794,0.0106717 0.245449,0.0016418 -0.0311942,0.0476122 -0.00820901,0.00985081 -0.0451495,0.0451495 -0.0508958,0.0320151 -0.0558212,0.0188807 -0.0615675,0.0065672 z "/>
<path fill="rgb(241,240,234)" stroke="rgb(241,240,234)" d="M 9.09976,1.83112 l -0.245449,-0.0016418 0.0229852,-0.0016418 0.0525376,-0.024627 0.0238061,-0.0352987 0.0262688,-0.0681348 -0.259405,0 0.427689,-0.0057463 -0.0172389,0.0623884 -0.0041045,0.0131344 -0.0270897,0.0615675 z "/>
<path fill="rgb(241,240,234)" stroke="rgb(241,240,234)" d="M 8.96923,1.45761 l -0.00738811,-0.00820901 -0.0533585,-0.0385823 -0.0541794,-0.0131344 -0.262688,-0.0041045 0.0352987,-0.049254 0.0106717,-0.0123135 0.0467913,-0.0435077 0.0517167,-0.0303733 0.0566421,-0.0188807 0.0615675,-0.0057463 0.0172389,0 0.0607466,0.00985081 0.0550003,0.0213434 0.0500749,0.0344778 0.0459704,0.0459704 0.0057463,0.00738811 -0.119851,0.105075 z "/>
<path fill="rgb(241,240,234)" stroke="rgb(241,240,234)" d="M 8.30512,2.26702 l -0.18224,-0.065672 0,-0.224927 -0.119031,0 0,-0.167464 0.119031,0 0,-0.351345 0,-0.0041045 0.0032836,-0.0476122 0.259405,0.0065672 -0.032836,0.0057463 -0.0262688,0.0197016 -0.016418,0.0344778 -0.0049254,0.0476122 0,0.288957 0.150225,0 0,0.167464 -0.150225,0 0,0.290599 z "/>
<path fill="rgb(241,240,234)" stroke="rgb(241,240,234)" d="M 8.46684,1.45022 l -0.0057463,-0.0049254 -0.0385823,-0.024627 -0.0369405,-0.00820901 -0.259405,-0.0065672 0.00902991,-0.0426868 0.0155971,-0.0377614 0.0205225,-0.032836 0.016418,-0.0180598 0.032836,-0.0229852 0.0394032,-0.0139553 0.0451495,-0.0041045 0.00902991,0 0.0394032,0.0049254 0.041045,0.0131344 0.0426868,0.0197016 0.0295524,0.178956 z "/>
<path fill="rgb(241,240,234)" stroke="rgb(241,240,234)" d="M 7.64676,1.99448 l -0.0254479,-0.0016418 -0.0426868,-0.00738811 -0.0394032,-0.0139553 -0.0344778,-0.0221643 -0.0295524,-0.0279106 0.393211,-0.0238061 -0.0295524,0.0311942 -0.0279106,0.0213434 -0.0352987,0.0188807 -0.0394032,0.0139553 -0.0426868,0.00820901 -0.0467913,0.0032836 z "/>
<path fill="rgb(241,240,234)" stroke="rgb(241,240,234)" d="M 7.47519,1.98134 l -0.179777,0 0,-0.730602 0.179777,0 0,0.438361 0.000820901,0.0188807 0.0123135,0.0402241 0.024627,0.0361196 0.0139553,0.0131344 0.0352987,0.0205225 0.0418659,0.00738811 0.286494,0.0377614 -0.0221643,0.0344778 -0.393211,0.0238061 0,0.0599257 z "/>
<path fill="rgb(241,240,234)" stroke="rgb(241,240,234)" d="M 7.89057,1.86313 l -0.286494,-0.0377614 0.0229852,-0.0016418 0.0402241,-0.0114926 0.0336569,-0.0238061 0.0147762,-0.0172389 0.0172389,-0.0377614 0.0057463,-0.0443286 0,-0.438361 0.174852,0 0,0.508958 -0.000820901,0.0221643 -0.00738811,0.0426868 -0.0147762,0.0385823 z "/>
<path fill="rgb(241,240,234)" stroke="rgb(241,240,234)" d="M 6.8587,1.99119 l -0.00902991,0 -0.0607466,-0.00820901 -0.0558212,-0.0213434 -0.0500749,-0.0336569 -0.0459704,-0.0459704 -0.0213434,-0.0295524 -0.0303733,-0.0525376 -0.0213434,-0.057463 -0.0131344,-0.0615675 -0.0041045,-0.065672 0.0024627,-0.0451495 0.00985081,-0.0632093 0.0180598,-0.0591048 0.0262688,-0.0541794 0.262688,0.0041045 -0.032836,0.0049254 -0.0533585,0.032836 -0.0287315,0.0385823 -0.0221643,0.0607466 -0.00738811,0.024627 0.445749,0 0,0.0525376 0,0.0197016 -0.00820901,0.0623884 -0.426868,0.0057463 0.00902991,0.0311942 0.0295524,0.0550003 0.041045,0.032836 0.0541794,0.0106717 0.245449,0.0016418 -0.0311942,0.0476122 -0.00820901,0.00985081 -0.0451495,0.0451495 -0.0508958,0.0320151 -0.0558212,0.0188807 -0.0615675,0.0065672 z "/>
<path fill="rgb(241,240,234)" stroke="rgb(241,240,234)" d="M 7.11153,1.83112 l -0.245449,-0.0016418 0.0229852,-0.0016418 0.0525376,-0.024627 0.0238061,-0.0352987 0.0254479,-0.0681348 -0.258584,0 0.426868,-0.0057463 -0.016418,0.0623884 -0.0041045,0.0131344 -0.0270897,0.0615675 z "/>
<path fill="rgb(241,240,234)" stroke="rgb(241,240,234)" d="M 6.98101,1.45761 l -0.00820901,-0.00820901 -0.0525376,-0.0385823 -0.0541794,-0.0131344 -0.262688,-0.0041045 0.0352987,-0.049254 0.0106717,-0.0123135 0.0467913,-0.0435077 0.0517167,-0.0303733 0.0566421,-0.0188807 0.0615675,-0.0057463 0.0172389,0 0.0607466,0.00985081 0.0550003,0.0213434 0.0500749,0.0344778 0.0451495,0.0459704 0.0065672,0.00738811 -0.119851,0.105075 z "/>
<path fill="rgb(241,240,234)" stroke="rgb(241,240,234)" d="M 6.14041,1.99119 l -0.00902991,0 -0.0607466,-0.00820901 -0.0558212,-0.0213434 -0.0500749,-0.0336569 -0.0459704,-0.0459704 -0.0213434,-0.0295524 -0.0303733,-0.0525376 -0.0213434,-0.057463 -0.0123135,-0.0615675 -0.0049254,-0.065672 0.0024627,-0.0451495 0.00985081,-0.0632093 0.0180598,-0.0591048 0.0262688,-0.0541794 0.262688,0.0041045 -0.032836,0.0049254 -0.0533585,0.032836 -0.0287315,0.0385823 -0.0221643,0.0607466 -0.00738811,0.024627 0.445749,0 0,0.0525376 0,0.0197016 -0.00738811,0.0623884 -0.427689,0.0057463 0.00902991,0.0311942 0.0295524,0.0550003 0.041045,0.032836 0.0541794,0.0106717 0.245449,0.0016418 -0.0311942,0.0476122 -0.00820901,0.00985081 -0.0451495,0.0451495 -0.0508958,0.0320151 -0.0558212,0.0188807 -0.0615675,0.0065672 z "/>
<path fill="rgb(241,240,234)" stroke="rgb(241,240,234)" d="M 6.39325,1.83112 l -0.245449,-0.0016418 0.0229852,-0.0016418 0.0525376,-0.024627 0.0238061,-0.0352987 0.0262688,-0.0681348 -0.259405,0 0.427689,-0.0057463 -0.0172389,0.0623884 -0.0041045,0.0131344 -0.0270897,0.0615675 z "/>
<path fill="rgb(241,240,234)" stroke="rgb(241,240,234)" d="M 6.26272,1.45761 l -0.00738811,-0.00820901 -0.0533585,-0.0385823 -0.0541794,-0.0131344 -0.262688,-0.0041045 0.0352987,-0.049254 0.0106717,-0.0123135 0.0467913,-0.0435077 0.0517167,-0.0303733 0.0566421,-0.0188807 0.0615675,-0.0057463 0.0172389,0 0.0607466,0.00985081 0.0550003,0.0213434 0.0500749,0.0344778 0.0459704,0.0459704 0.0057463,0.00738811 -0.119851,0.105075 z "/>
<path fill="rgb(241,240,234)" stroke="rgb(241,240,234)" d="M 5.01331,1.99858 l -0.0303733,-0.0016418 -0.041045,-0.00902991 -0.0377614,-0.0147762 -0.0361196,-0.0229852 -0.0344778,-0.0287315 0.366122,-0.00738811 -0.0311942,0.0303733 -0.0344778,0.0238061 -0.0377614,0.016418 -0.0402241,0.0106717 -0.0426868,0.0032836 z "/>
<path fill="rgb(241,240,234)" stroke="rgb(241,240,234)" d="M 5.42376,1.99858 l -0.0254479,-0.0016418 -0.0394032,-0.0057463 -0.0394032,-0.0123135 -0.0385823,-0.0172389 -0.0394032,-0.0221643 -0.0394032,-0.0287315 0.440003,-0.0147762 -0.0287315,0.032836 -0.0279106,0.0221643 -0.0352987,0.0205225 -0.0385823,0.0147762 -0.0418659,0.00902991 -0.0459704,0.0032836 z "/>
<path fill="rgb(241,240,234)" stroke="rgb(241,240,234)" d="M 4.83354,1.98134 l -0.178956,0 0,-0.730602 0.178956,0 0,0.438361 0.000820901,0.0172389 0.0106717,0.041045 0.0221643,0.0352987 0.00820901,0.00820901 0.0344778,0.0213434 0.0435077,0.0065672 0.725676,0.0041045 -0.0147762,0.0377614 -0.0221643,0.0352987 -0.440003,0.0147762 -0.0024627,0.0032836 -0.366122,0.00738811 0,0.0599257 z "/>
<path fill="rgb(241,240,234)" stroke="rgb(241,240,234)" d="M 5.67906,1.82291 l -0.725676,-0.0041045 0.430973,0 0.0197016,-0.000820901 0.041045,-0.0114926 0.0311942,-0.0238061 0.0114926,-0.0155971 0.016418,-0.0369405 0.0057463,-0.0451495 0,-0.434256 0.178956,0 0,0.50157 -0.0016418,0.0287315 -0.00820901,0.0418659 z "/>
<path fill="rgb(241,240,234)" stroke="rgb(241,240,234)" d="M 4.95339,1.8188 l 0.0197016,-0.000820901 0.0394032,-0.0123135 0.0352987,-0.024627 0.0139553,-0.0155971 0.0180598,-0.0361196 0.0057463,-0.0443286 0,-0.434256 0.172389,0 0,0.441645 0.000820901,0.0139553 0.0114926,0.0402241 0.0254479,0.0344778 0.0114926,0.0106717 0.0361196,0.0205225 0.041045,0.0065672 -0.430973,0 z "/>
<path fill="rgb(241,240,234)" stroke="rgb(241,240,234)" d="M 4.21786,1.99119 l -0.00985081,0 -0.0599257,-0.00820901 -0.0558212,-0.0213434 -0.0508958,-0.0336569 -0.0451495,-0.0459704 -0.0213434,-0.0295524 -0.0303733,-0.0525376 -0.0213434,-0.057463 -0.0131344,-0.0615675 -0.0041045,-0.065672 0.0016418,-0.0451495 0.00985081,-0.0632093 0.0188807,-0.0591048 0.0262688,-0.0541794 0.262688,0.0041045 -0.032836,0.0049254 -0.0533585,0.032836 -0.0287315,0.0385823 -0.0221643,0.0607466 -0.00738811,0.024627 0.445749,0 0,0.0525376 0,0.0197016 -0.00820901,0.0623884 -0.427689,0.0057463 0.00985081,0.0311942 0.0287315,0.0550003 0.0418659,0.032836 0.0541794,0.0106717 0.245449,0.0016418 -0.0311942,0.0476122 -0.00820901,0.00985081 -0.0451495,0.0451495 -0.0508958,0.0320151 -0.0558212,0.0188807 -0.0615675,0.0065672 z "/>
<path fill="rgb(241,240,234)" stroke="rgb(241,240,234)" d="M 4.4707,1.83112 l -0.245449,-0.0016418 0.0229852,-0.0016418 0.0525376,-0.024627 0.0238061,-0.0352987 0.0254479,-0.0681348 -0.259405,0 0.427689,-0.0057463 -0.016418,0.0623884 -0.0041045,0.0131344 -0.0270897,0.0615675 z "/>
<path fill="rgb(241,240,234)" stroke="rgb(241,240,234)" d="M 4.34017,1.45761 l -0.00820901,-0.00820901 -0.0525376,-0.0385823 -0.0541794,-0.0131344 -0.262688,-0.0041045 0.0352987,-0.049254 0.0106717,-0.0123135 0.0467913,-0.0435077 0.0517167,-0.0303733 0.0566421,-0.0188807 0.0615675,-0.0057463 0.0172389,0 0.0599257,0.00985081 0.0558212,0.0213434 0.0500749,0.0344778 0.0451495,0.0459704 0.0057463,0.00738811 -0.119031,0.105075 z "/>
<path fill="rgb(241,240,234)" stroke="rgb(241,240,234)" d="M 3.35263,2.26702 l -0.0377614,-0.0016418 -0.0623884,-0.00985081 -0.0566421,-0.0188807 -0.0525376,-0.0279106 -0.0476122,-0.0369405 -0.0435077,-0.0467913 -0.0114926,-0.0155971 0.311942,-0.0205225 0.0057463,0 0.057463,-0.00985081 0.0500749,-0.0254479 0.0418659,-0.041045 0.0344778,-0.057463 0.181419,0.0640302 -0.0270897,0.0517167 -0.0352987,0.0517167 -0.0394032,0.0443286 -0.0443286,0.0361196 -0.049254,0.0279106 -0.0541794,0.0197016 -0.0582839,0.0123135 -0.0632093,0.0041045 z "/>
<path fill="rgb(241,240,234)" stroke="rgb(241,240,234)" d="M 3.04069,2.1094 l -0.0303733,-0.0476122 -0.0254479,-0.0525376 -0.0197016,-0.057463 -0.0139553,-0.0615675 -0.00820901,-0.0664929 -0.0024627,-0.0714184 0.0024627,-0.0689557 0.00738811,-0.0664929 0.0131344,-0.0623884 0.0188807,-0.057463 0.0238061,-0.0533585 0.0287315,-0.0484331 0.317689,0.0172389 -0.049254,0.0049254 -0.0558212,0.0188807 -0.0459704,0.0352987 -0.0352987,0.0500749 -0.0180598,0.0377614 -0.016418,0.0566421 -0.0106717,0.0640302 -0.0032836,0.0722393 0,0.0041045 0.0049254,0.0689557 0.0123135,0.0632093 0.0197016,0.0558212 0.0287315,0.0500749 0.0123135,0.0155971 0.0451495,0.0443286 0.0525376,0.0254479 0.0591048,0.00902991 -0.311942,0.0205225 z "/>
<path fill="rgb(241,240,234)" stroke="rgb(241,240,234)" d="M 3.74995,1.74903 l -0.350525,0 0,-0.178956 0.16418,0 -0.0041045,-0.0155971 -0.0287315,-0.0533585 -0.0459704,-0.0451495 -0.0139553,-0.00902991 -0.0558212,-0.0262688 -0.0623884,-0.00820901 -0.317689,-0.0172389 0.0024627,-0.0032836 0.0402241,-0.0484331 0.0443286,-0.0402241 0.0500749,-0.0303733 0.0550003,-0.0221643 0.0599257,-0.0131344 0.065672,-0.0041045 0.0632093,0.0041045 0.0607466,0.0131344 0.0558212,0.0229852 0.0525376,0.0311942 0.0484331,0.0402241 0.0402241,0.0443286 0.0336569,0.0517167 0.0238061,0.0550003 0.0139553,0.0599257 0.0049254,0.0632093 0,0.129702 z "/>
<path fill="rgb(241,240,234)" stroke="rgb(241,240,234)" d="M 13.0803,4.69688 l -0.0550003,-0.0032836 -0.0730602,-0.0155971 -0.0689557,-0.0279106 -0.0648511,-0.0402241 -0.0607466,-0.0525376 0.658362,-0.0123135 -0.0566421,0.0541794 -0.0623884,0.0426868 -0.0664929,0.0303733 -0.0730602,0.0180598 -0.0771647,0.0065672 z "/>
<path fill="rgb(241,240,234)" stroke="rgb(241,240,234)" d="M 13.8199,4.69688 l -0.0467913,-0.0024627 -0.0705975,-0.0114926 -0.0705975,-0.0213434 -0.0697766,-0.0311942 -0.0705975,-0.0402241 -0.0705975,-0.0508958 0.791348,-0.0262688 -0.0517167,0.057463 -0.049254,0.041045 -0.0640302,0.0369405 -0.0697766,0.0270897 -0.0755229,0.0155971 -0.0820901,0.0057463 z "/>
<path fill="rgb(241,240,234)" stroke="rgb(241,240,234)" d="M 12.7577,4.66487 l -0.322614,0 0,-1.31426 0.322614,0 0,0.789706 0.0016418,0.0303733 0.0188807,0.074702 0.0394032,0.0632093 0.0147762,0.0147762 0.0623884,0.0377614 0.0779856,0.0123135 1.30687,0.0065672 -0.0270897,0.0689557 -0.0402241,0.0640302 -0.791348,0.0262688 -0.0049254,0.0057463 -0.658362,0.0123135 0,0.107538 z "/>
<path fill="rgb(241,240,234)" stroke="rgb(241,240,234)" d="M 14.2796,4.38001 l -1.30687,-0.0065672 0.775751,0 0.0352987,-0.0016418 0.0738811,-0.0205225 0.0566421,-0.0426868 0.0205225,-0.0279106 0.0295524,-0.0673138 0.00985081,-0.0812692 0,-0.781497 0.322614,0 0,0.90217 -0.0024627,0.0525376 -0.0147762,0.074702 z "/>
<path fill="rgb(241,240,234)" stroke="rgb(241,240,234)" d="M 12.9728,4.37345 l 0.0344778,-0.0016418 0.0722393,-0.0221643 0.0632093,-0.0443286 0.0254479,-0.0279106 0.0320151,-0.065672 0.0114926,-0.0796274 0,-0.781497 0.308659,0 0,0.794632 0.0016418,0.0262688 0.0213434,0.0714184 0.0451495,0.0623884 0.0205225,0.0180598 0.065672,0.0377614 0.0738811,0.0123135 -0.775751,0 z "/>
<path fill="rgb(241,240,234)" stroke="rgb(241,240,234)" d="M 11.6117,4.69688 l -0.0336569,-0.000820901 -0.0730602,-0.0065672 -0.0730602,-0.0123135 -0.0738811,-0.0188807 -0.074702,-0.0254479 -0.0755229,-0.0320151 -0.0755229,-0.0377614 0.133807,-0.278285 0.032836,0.0205225 0.0714184,0.0344778 0.0722393,0.024627 0.074702,0.0147762 0.0763438,0.0049254 0.504033,0.0197016 -0.0262688,0.0615675 -0.0336569,0.0541794 -0.0402241,0.0467913 -0.0467913,0.0402241 -0.0541794,0.0320151 -0.0607466,0.0254479 -0.0681348,0.0180598 -0.074702,0.0106717 -0.0812692,0.0041045 z "/>
<path fill="rgb(241,240,234)" stroke="rgb(241,240,234)" d="M 12.0977,4.40382 l -0.504033,-0.0197016 0.0016418,0 0.0779856,-0.00902991 0.0623884,-0.0254479 0.0476122,-0.0435077 0.0320151,-0.0599257 0.016418,-0.0771647 -0.585302,-0.0114926 -0.0591048,-0.0352987 -0.0049254,-0.0041045 -0.0541794,-0.049254 -0.0418659,-0.057463 0.467913,-0.0623884 0.0467913,-0.0024627 0.0738811,-0.00985081 0.0771647,-0.0197016 0.0796274,-0.0287315 0,-0.201942 -0.0681348,-0.0279106 -0.0796274,-0.0254479 -0.0722393,-0.0147762 -0.065672,-0.0049254 -0.486794,-0.0049254 0.0287315,-0.0673138 0.0402241,-0.0591048 0.0508958,-0.0500749 0.652616,-0.0238061 0,-0.057463 0.304554,0 0,0.794632 -0.000820901,0.0303733 -0.0057463,0.0837319 -0.0123135,0.0755229 -0.0197016,0.0689557 z "/>
<path fill="rgb(241,240,234)" stroke="rgb(241,240,234)" d="M 11.5387,4.21665 l -0.0689557,-0.0024627 -0.0812692,-0.0106717 -0.074702,-0.0188807 -0.0673138,-0.0270897 0.585302,0.0114926 -0.0607466,0.0180598 -0.0763438,0.016418 -0.0771647,0.00985081 -0.0788065,0.0032836 z "/>
<path fill="rgb(241,240,234)" stroke="rgb(241,240,234)" d="M 11.0863,4.01143 l -0.0303733,-0.0664929 -0.0172389,-0.0755229 -0.0065672,-0.082911 0.000820901,-0.0197016 0.00738811,-0.0837319 0.0188807,-0.074702 0.486794,0.0049254 -0.0262688,0.000820901 -0.0779856,0.0155971 -0.0607466,0.0361196 -0.0418659,0.0500749 -0.0180598,0.0705975 0.0123135,0.0566421 0.0500749,0.0582839 0.0188807,0.0123135 0.0673138,0.0262688 0.0845528,0.00902991 -0.467913,0.0623884 z "/>
<path fill="rgb(241,240,234)" stroke="rgb(241,240,234)" d="M 11.1791,3.43187 l 0.032836,-0.0238061 0.0632093,-0.0352987 0.0705975,-0.0254479 0.0771647,-0.0155971 0.0837319,-0.0049254 0.0295524,0.000820901 0.0788065,0.00738811 0.0755229,0.0155971 0.0722393,0.024627 0.0689557,0.032836 -0.652616,0.0238061 z "/>
<path fill="rgb(241,240,234)" stroke="rgb(241,240,234)" d="M 10.2827,4.69688 l -0.0344778,-0.000820901 -0.0722393,-0.0065672 -0.0738811,-0.0123135 -0.0738811,-0.0188807 -0.074702,-0.0254479 -0.074702,-0.0320151 -0.0763438,-0.0377614 0.133807,-0.278285 0.0336569,0.0205225 0.0705975,0.0344778 0.0730602,0.024627 0.074702,0.0147762 0.0755229,0.0049254 0.504854,0.0197016 -0.0270897,0.0615675 -0.032836,0.0541794 -0.0402241,0.0467913 -0.0476122,0.0402241 -0.0533585,0.0320151 -0.0607466,0.0254479 -0.0681348,0.0180598 -0.074702,0.0106717 -0.0812692,0.0041045 z "/>
<path fill="rgb(241,240,234)" stroke="rgb(241,240,234)" d="M 10.7686,4.40382 l -0.504854,-0.0197016 0.0024627,0 0.0771647,-0.00902991 0.0632093,-0.0254479 0.0467913,-0.0435077 0.0320151,-0.0599257 0.0172389,-0.0771647 -0.585302,-0.0114926 -0.0599257,-0.0352987 -0.0049254,-0.0041045 -0.0533585,-0.049254 -0.0418659,-0.057463 0.467913,-0.0623884 0.0467913,-0.0024627 0.0738811,-0.00985081 0.0771647,-0.0197016 0.0796274,-0.0287315 0,-0.201942 -0.0689557,-0.0279106 -0.0788065,-0.0254479 -0.0722393,-0.0147762 -0.065672,-0.0049254 -0.487615,-0.0049254 0.0295524,-0.0673138 0.0402241,-0.0591048 0.0508958,-0.0500749 0.652616,-0.0238061 0,-0.057463 0.304554,0 0,0.794632 -0.000820901,0.0303733 -0.0057463,0.0837319 -0.0123135,0.0755229 -0.0197016,0.0689557 z "/>
<path fill="rgb(241,240,234)" stroke="rgb(241,240,234)" d="M 10.2088,4.21665 l -0.0681348,-0.0024627 -0.0820901,-0.0106717 -0.0738811,-0.0188807 -0.0673138,-0.0270897 0.585302,0.0114926 -0.0607466,0.0180598 -0.0763438,0.016418 -0.0771647,0.00985081 -0.0796274,0.0032836 z "/>
<path fill="rgb(241,240,234)" stroke="rgb(241,240,234)" d="M 9.7573,4.01143 l -0.0303733,-0.0664929 -0.0180598,-0.0755229 -0.0057463,-0.082911 0,-0.0197016 0.00820901,-0.0837319 0.0180598,-0.074702 0.487615,0.0049254 -0.0270897,0.000820901 -0.0771647,0.0155971 -0.0607466,0.0361196 -0.0426868,0.0500749 -0.0180598,0.0705975 0.0123135,0.0566421 0.0508958,0.0582839 0.0188807,0.0123135 0.0673138,0.0262688 0.0845528,0.00902991 -0.467913,0.0623884 z "/>
<path fill="rgb(241,240,234)" stroke="rgb(241,240,234)" d="M 9.85006,3.43187 l 0.0320151,-0.0238061 0.0640302,-0.0352987 0.0705975,-0.0254479 0.0771647,-0.0155971 0.0837319,-0.0049254 0.0287315,0.000820901 0.0796274,0.00738811 0.0755229,0.0155971 0.0722393,0.024627 0.0689557,0.032836 -0.652616,0.0238061 z "/>
<path fill="rgb(241,240,234)" stroke="rgb(241,240,234)" d="M 8.98976,4.68867 l -0.0459704,-0.0016418 -0.0771647,-0.0139553 -0.0697766,-0.0254479 -0.0615675,-0.0385823 -0.0550003,-0.0517167 0.708437,-0.0426868 -0.0525376,0.0558212 -0.0500749,0.0385823 -0.0640302,0.0344778 -0.0705975,0.0254479 -0.0779856,0.0147762 -0.0837319,0.0049254 z "/>
<path fill="rgb(241,240,234)" stroke="rgb(241,240,234)" d="M 8.68028,4.66487 l -0.322614,0 0,-1.31426 0.322614,0 0,0.789706 0.0024627,0.0336569 0.0213434,0.0714184 0.0443286,0.065672 0.0254479,0.024627 0.0640302,0.0361196 0.0763438,0.0123135 0.513884,0.0681348 -0.0394032,0.0623884 -0.708437,0.0426868 0,0.107538 z "/>
<path fill="rgb(241,240,234)" stroke="rgb(241,240,234)" d="M 9.42812,4.45225 l -0.513884,-0.0681348 0.0402241,-0.0024627 0.0730602,-0.0205225 0.0591048,-0.0426868 0.0270897,-0.0320151 0.0311942,-0.0664929 0.00985081,-0.0796274 0,-0.789706 0.315226,0 0,0.915304 -0.0016418,0.041045 -0.0131344,0.0763438 -0.0270897,0.0689557 z "/>
<path fill="rgb(241,240,234)" stroke="rgb(241,240,234)" d="M 7.58437,4.68867 l -0.0016418,0 -0.0894782,-0.0041045 -0.0812692,-0.0114926 -0.0730602,-0.0197016 -0.065672,-0.0270897 -0.0582839,-0.0344778 -0.00985081,-0.00738811 -0.0566421,-0.0533585 -0.0402241,-0.0607466 -0.024627,-0.0697766 0.508958,-0.0213434 0.0155971,0 0.0763438,-0.0057463 0.074702,-0.0139553 0.0738811,-0.0213434 0.0730602,-0.0295524 0.0714184,-0.0369405 0.11821,0.285673 -0.0623884,0.0303733 -0.0730602,0.0311942 -0.0738811,0.0254479 -0.074702,0.0188807 -0.0755229,0.0139553 -0.0755229,0.00902991 -0.0763438,0.0024627 z "/>
<path fill="rgb(241,240,234)" stroke="rgb(241,240,234)" d="M 7.08362,4.40054 l -0.00738811,-0.0763438 0.000820901,-0.0352987 0.0139553,-0.0738811 0.0287315,-0.0673138 0.0426868,-0.0607466 0.057463,-0.0541794 0.0131344,-0.00902991 0.049254,-0.0311942 0.0623884,-0.0303733 0.0730602,-0.0295524 0.0853737,-0.0295524 0.0968663,-0.0279106 0.100971,-0.0287315 0.041045,-0.0131344 0.0607466,-0.0426868 0.0229852,-0.0623884 -0.0106717,-0.0352987 -0.0426868,-0.0311942 -0.0738811,-0.0188807 -0.105896,-0.0065672 0.540153,-0.0016418 0.00738811,0.0804483 0,0.0205225 -0.00820901,0.0632093 -0.0172389,0.0591048 -0.0270897,0.0541794 -0.0377614,0.0500749 -0.0459704,0.0451495 -0.0566421,0.0402241 -0.0664929,0.0361196 -0.0755229,0.0311942 -0.0861946,0.0270897 -0.0952245,0.0221643 -0.0467913,0.00985081 -0.0845528,0.0221643 -0.0525376,0.0205225 -0.0139553,0.00902991 -0.0303733,0.0640302 0.0024627,0.0172389 0.0295524,0.0402241 0.0648511,0.0238061 0.10015,0.00820901 -0.508958,0.0213434 z "/>
<path fill="rgb(241,240,234)" stroke="rgb(241,240,234)" d="M 7.16243,3.72822 l -0.11821,-0.283211 0.0279106,-0.0131344 0.0673138,-0.0279106 0.0697766,-0.0238061 0.0730602,-0.0188807 0.0763438,-0.0147762 0.0796274,-0.0106717 0.0820901,-0.0065672 0.0853737,-0.0024627 0.0344778,0.000820901 0.0878364,0.0057463 0.0804483,0.0139553 0.0722393,0.0197016 0.0640302,0.0279106 0.0566421,0.0344778 0.0229852,0.0180598 0.0508958,0.0533585 0.0361196,0.0623884 0.0213434,0.0714184 -0.540153,0.0016418 -0.016418,0.000820901 -0.0689557,0.0057463 -0.0779856,0.0139553 -0.0886573,0.0221643 -0.0303733,0.00738811 -0.0788065,0.0213434 -0.0689557,0.0205225 z "/>
<path fill="rgb(241,240,234)" stroke="rgb(241,240,234)" d="M 6.66661,5.17957 l -0.327539,-0.11821 0,-0.403883 -0.215076,0 0,-0.302091 0.215076,0 0,-0.632093 0,-0.00738811 0.0057463,-0.0861946 0.466272,0.0123135 -0.0591048,0.00985081 -0.0467913,0.0361196 -0.0287315,0.0607466 -0.00985081,0.0870155 0,0.51963 0.270076,0 0,0.302091 -0.270076,0 0,0.522093 z "/>
<path fill="rgb(241,240,234)" stroke="rgb(241,240,234)" d="M 6.95803,3.71016 l -0.0106717,-0.00985081 -0.0697766,-0.0435077 -0.0664929,-0.0147762 -0.466272,-0.0123135 0.016418,-0.0763438 0.0270897,-0.0681348 0.0369405,-0.0582839 0.0311942,-0.0336569 0.0582839,-0.041045 0.0705975,-0.024627 0.0812692,-0.00820901 0.0155971,0 0.0722393,0.00985081 0.0738811,0.0221643 0.0771647,0.0361196 0.0525376,0.322614 z "/>
<path fill="rgb(241,240,234)" stroke="rgb(241,240,234)" d="M 5.44511,4.69688 l -0.0344778,-0.000820901 -0.0722393,-0.0065672 -0.0738811,-0.0123135 -0.0738811,-0.0188807 -0.074702,-0.0254479 -0.074702,-0.0320151 -0.0763438,-0.0377614 0.133807,-0.278285 0.0336569,0.0205225 0.0705975,0.0344778 0.0730602,0.024627 0.074702,0.0147762 0.0755229,0.0049254 0.504854,0.0197016 -0.0262688,0.0615675 -0.0336569,0.0541794 -0.0402241,0.0467913 -0.0467913,0.0402241 -0.0541794,0.0320151 -0.0607466,0.0254479 -0.0681348,0.0180598 -0.074702,0.0106717 -0.0812692,0.0041045 z "/>
<path fill="rgb(241,240,234)" stroke="rgb(241,240,234)" d="M 5.93108,4.40382 l -0.504854,-0.0197016 0.0024627,0 0.0771647,-0.00902991 0.0632093,-0.0254479 0.0467913,-0.0435077 0.0320151,-0.0599257 0.0172389,-0.0771647 -0.585302,-0.0114926 -0.0599257,-0.0352987 -0.0049254,-0.0041045 -0.0533585,-0.049254 -0.0418659,-0.057463 0.467913,-0.0623884 0.0467913,-0.0024627 0.0738811,-0.00985081 0.0771647,-0.0197016 0.0796274,-0.0287315 0,-0.201942 -0.0689557,-0.0279106 -0.0788065,-0.0254479 -0.0722393,-0.0147762 -0.065672,-0.0049254 -0.487615,-0.0049254 0.0295524,-0.0673138 0.0402241,-0.0591048 0.0508958,-0.0500749 0.652616,-0.0238061 0,-0.057463 0.304554,0 0,0.794632 -0.000820901,0.0303733 -0.0057463,0.0837319 -0.0123135,0.0755229 -0.0197016,0.0689557 z "/>
<path fill="rgb(241,240,234)" stroke="rgb(241,240,234)" d="M 5.37123,4.21665 l -0.0681348,-0.0024627 -0.0820901,-0.0106717 -0.0738811,-0.0188807 -0.0673138,-0.0270897 0.585302,0.0114926 -0.0607466,0.0180598 -0.0763438,0.016418 -0.0771647,0.00985081 -0.0796274,0.0032836 z "/>
<path fill="rgb(241,240,234)" stroke="rgb(241,240,234)" d="M 4.91973,4.01143 l -0.0303733,-0.0664929 -0.0180598,-0.0755229 -0.0057463,-0.082911 0,-0.0197016 0.00820901,-0.0837319 0.0180598,-0.074702 0.487615,0.0049254 -0.0270897,0.000820901 -0.0771647,0.0155971 -0.0607466,0.0361196 -0.0426868,0.0500749 -0.0180598,0.0705975 0.0131344,0.0566421 0.0500749,0.0582839 0.0188807,0.0123135 0.0673138,0.0262688 0.0845528,0.00902991 -0.467913,0.0623884 z "/>
<path fill="rgb(241,240,234)" stroke="rgb(241,240,234)" d="M 5.01249,3.43187 l 0.0320151,-0.0238061 0.0640302,-0.0352987 0.0705975,-0.0254479 0.0771647,-0.0155971 0.0837319,-0.0049254 0.0295524,0.000820901 0.0788065,0.00738811 0.0755229,0.0155971 0.0722393,0.024627 0.0689557,0.032836 -0.652616,0.0238061 z "/>
<path fill="rgb(241,240,234)" stroke="rgb(241,240,234)" d="M 4.11525,4.69688 l -0.0336569,-0.000820901 -0.0730602,-0.0065672 -0.0730602,-0.0123135 -0.0738811,-0.0188807 -0.074702,-0.0254479 -0.0755229,-0.0320151 -0.0755229,-0.0377614 0.133807,-0.278285 0.0336569,0.0205225 0.0705975,0.0344778 0.0722393,0.024627 0.074702,0.0147762 0.0763438,0.0049254 0.504033,0.0197016 -0.0262688,0.0615675 -0.032836,0.0541794 -0.0402241,0.0467913 -0.0476122,0.0402241 -0.0541794,0.0320151 -0.0607466,0.0254479 -0.0673138,0.0180598 -0.074702,0.0106717 -0.0820901,0.0041045 z "/>
<path fill="rgb(241,240,234)" stroke="rgb(241,240,234)" d="M 4.60122,4.40382 l -0.504033,-0.0197016 0.0016418,0 0.0779856,-0.00902991 0.0623884,-0.0254479 0.0476122,-0.0435077 0.0320151,-0.0599257 0.0172389,-0.0771647 -0.585302,-0.0114926 -0.0599257,-0.0352987 -0.0049254,-0.0041045 -0.0541794,-0.049254 -0.0418659,-0.057463 0.467913,-0.0623884 0.0476122,-0.0024627 0.0738811,-0.00985081 0.0763438,-0.0197016 0.0804483,-0.0287315 0,-0.201942 -0.0689557,-0.0279106 -0.0796274,-0.0254479 -0.0722393,-0.0147762 -0.0648511,-0.0049254 -0.487615,-0.0049254 0.0295524,-0.0673138 0.0394032,-0.0591048 0.0508958,-0.0500749 0.653437,-0.0238061 0,-0.057463 0.303733,0 0,0.794632 0,0.0303733 -0.0057463,0.0837319 -0.0131344,0.0755229 -0.0197016,0.0689557 z "/>
<path fill="rgb(241,240,234)" stroke="rgb(241,240,234)" d="M 4.04219,4.21665 l -0.0689557,-0.0024627 -0.0812692,-0.0106717 -0.074702,-0.0188807 -0.0664929,-0.0270897 0.585302,0.0114926 -0.0615675,0.0180598 -0.0755229,0.016418 -0.0779856,0.00985081 -0.0788065,0.0032836 z "/>
<path fill="rgb(241,240,234)" stroke="rgb(241,240,234)" d="M 3.58987,4.01143 l -0.0295524,-0.0664929 -0.0180598,-0.0755229 -0.0057463,-0.082911 0,-0.0197016 0.00738811,-0.0837319 0.0188807,-0.074702 0.487615,0.0049254 -0.0270897,0.000820901 -0.0779856,0.0155971 -0.0607466,0.0361196 -0.0418659,0.0500749 -0.0180598,0.0705975 0.0123135,0.0566421 0.0508958,0.0582839 0.0180598,0.0123135 0.0681348,0.0262688 0.0837319,0.00902991 -0.467913,0.0623884 z "/>
<path fill="rgb(241,240,234)" stroke="rgb(241,240,234)" d="M 3.68263,3.43187 l 0.032836,-0.0238061 0.0640302,-0.0352987 0.0697766,-0.0254479 0.0771647,-0.0155971 0.0845528,-0.0049254 0.0287315,0.000820901 0.0788065,0.00738811 0.0763438,0.0155971 0.0722393,0.024627 0.0689557,0.032836 -0.653437,0.0238061 z "/>
<path fill="rgb(241,240,234)" stroke="rgb(241,240,234)" d="M 3.28942,3.3506 l -0.321793,0 0,1.69762 0.321793,0.131344 0,-1.82897 z "/>
<path fill="rgb(241,240,234)" stroke="rgb(241,240,234)" d="M 2.13606,5.15084 l -0.83896,0 0,-1.80024 0.327539,0 0,0.705975 0.511421,0 0.0262688,0 0.0861946,0.0065672 0.0771647,0.0131344 0.0705975,0.0221643 0.0623884,0.0287315 0.0459704,0.0295524 0.0599257,0.049254 0.0517167,0.0566421 0.0443286,0.0640302 0.0254479,0.049254 -1.06142,0.0032836 0,0.448212 0.524555,0 0.521272,0.0418659 -0.0394032,0.0591048 -0.049254,0.0541794 -0.0582839,0.0484331 -0.0673138,0.0435077 -0.0180598,0.00902991 -0.0681348,0.0295524 -0.0722393,0.0205225 -0.0788065,0.0123135 -0.082911,0.0049254 z "/>
<path fill="rgb(241,240,234)" stroke="rgb(241,240,234)" d="M 2.67046,4.86927 l -0.521272,-0.0418659 0.0582839,-0.0032836 0.0738811,-0.0197016 0.0591048,-0.0369405 0.0254479,-0.0270897 0.0361196,-0.0640302 0.0123135,-0.0771647 -0.0024627,-0.032836 -0.0229852,-0.0714184 -0.0484331,-0.0558212 -0.0394032,-0.0254479 -0.0705975,-0.0262688 -0.0812692,-0.00820901 -0.524555,0 1.06142,-0.0032836 0.0279106,0.0730602 0.0172389,0.074702 0.0049254,0.0755229 -0.0024627,0.0607466 -0.0114926,0.0755229 -0.0213434,0.0697766 -0.0303733,0.0640302 z "/>
<path fill="rgb(187,30,16)" stroke="rgb(187,30,16)" d="M 15.0986,5.82906 l -0.00363737,0.0257441 -0.00585275,0.0253325 -0.00802417,0.0247306 -0.0101353,0.0239429 -0.0121703,0.0229755 -0.014114,0.0218354 -0.0159516,0.0205314 -0.0176694,0.0190731 -0.0192544,0.0174716 -0.0206949,0.0157388 -0.0219799,0.0138879 -0.0230998,0.0119326 -0.0240463,0.00988768 -0.0248121,0.00776851 -0.0253915,0.00559099 -0.0257803,0.00337148 -0.0259754,0.00112665 -0.946225,8.88178e-16 -6.10377,-2.46334 8.88178e-16,-0.773319 7.34859,2.96572 z "/>
<path fill="rgb(187,30,16)" stroke="rgb(187,30,16)" d="M 1.64623,0.4 l 6.10377,2.46334 -8.88178e-16,0.773319 -7.34859,-2.96572 0.00363737,-0.0257441 0.00585275,-0.0253325 0.00802417,-0.0247306 0.0101353,-0.0239429 0.0121703,-0.0229755 0.014114,-0.0218354 0.0159516,-0.0205314 0.0176694,-0.0190731 0.0192544,-0.0174716 0.0206949,-0.0157388 0.0219799,-0.0138879 0.0230998,-0.0119326 0.0240463,-0.00988768 0.0248121,-0.00776851 0.0253915,-0.00559099 0.0257803,-0.00337148 0.0259754,-0.00112665 0.946225,4.44089e-16 z "/>
</g></g></svg>
