<?xml version="1.0" encoding="UTF-8" standalone="no"?>
<!DOCTYPE svg PUBLIC "-//W3C//DTD SVG 1.1//EN" "http://www.w3.org/Graphics/SVG/1.1/DTD/svg11-flat.dtd"
[

]>
<svg xmlns="http://www.w3.org/2000/svg"  viewBox="-0.06875 -0.06875 5.6375 7.6375"><g fill="none" stroke="black" stroke-width="0.0125" transform="translate(0,7.5) scale(1, -1)">
<g id="Output" >
<path fill="rgb(0,91,140)" stroke="rgb(0,91,140)" d="M 4.45451,5.11248 l 0,-2.72496 -1.79237,-1.13703 0,-0.850492 0.0878557,8.88178e-16 2.05,-4.44089e-16 0.0261467,0.00114159 0.0259477,0.00341608 0.0255513,0.00566458 0.0249603,0.00786996 0.0241794,0.0100155 0.0232145,0.0120847 0.0220729,0.014062 0.0207634,0.0159323 0.0192958,0.0176813 0.0176813,0.0192958 0.0159323,0.0207634 0.014062,0.0220729 0.0120847,0.0232145 0.0100155,0.0241794 0.00786996,0.0249603 0.00566458,0.0255513 0.00341608,0.0259477 0.00114159,0.0261467 1.77636e-15,6.1 -0.00114159,0.0261467 -0.00341608,0.0259477 -0.00566458,0.0255513 -0.00786996,0.0249603 -0.0100155,0.0241794 -0.0120847,0.0232145 -0.014062,0.0220729 -0.0159323,0.0207634 -0.0176813,0.0192958 -0.0192958,0.0176813 -0.0207634,0.0159323 -0.0220729,0.014062 -0.0232145,0.0120847 -0.0241794,0.0100155 -0.0249603,0.00786996 -0.0255513,0.00566458 -0.0259477,0.00341608 -0.0261467,0.00114159 -2.05,8.88178e-16 -0.0953816,0 0,-0.830767 1.79989,-1.15675 z "/>
<path fill="rgb(0,91,140)" stroke="rgb(0,91,140)" d="M 1.04549,7.1 l -0.345491,0 -0.0261467,-0.00114159 -0.0259477,-0.00341608 -0.0255513,-0.00566458 -0.0249603,-0.00786996 -0.0241794,-0.0100155 -0.0232145,-0.0120847 -0.0220729,-0.014062 -0.0207634,-0.0159323 -0.0192958,-0.0176813 -0.0176813,-0.0192958 -0.0159323,-0.0207634 -0.014062,-0.0220729 -0.0120847,-0.0232145 -0.0100155,-0.0241794 -0.00786996,-0.0249603 -0.00566458,-0.0255513 -0.00341608,-0.0259477 -0.00114159,-0.0261467 -1.33227e-15,-6.1 0.00114159,-0.0261467 0.00341608,-0.0259477 0.00566458,-0.0255513 0.00786996,-0.0249603 0.0100155,-0.0241794 0.0120847,-0.0232145 0.014062,-0.0220729 0.0159323,-0.0207634 0.0176813,-0.0192958 0.0192958,-0.0176813 0.0207634,-0.0159323 0.0220729,-0.014062 0.0232145,-0.0120847 0.0241794,-0.0100155 0.0249603,-0.00786996 0.0255513,-0.00566458 0.0259477,-0.00341608 0.0261467,-0.00114159 0.345491,4.44089e-16 2.22045e-16,6.7 z "/>
<path fill="rgb(241,240,234)" stroke="rgb(241,240,234)" d="M 2.84893,4.13594 l 0,-0.621968 -0.233445,0 0,0.621968 0.233445,0 z M 2.04549,3.4 l 1,0 0,1 -1,0 0,-1 z "/>
<path fill="rgb(241,240,234)" stroke="rgb(241,240,234)" d="M 2.84893,6.03438 l 0,-0.621968 -0.233445,0 0,0.621968 0.233445,0 z M 2.04549,5.4 l 1,0 0,0.618028 -0.390872,0.251205 0,0.130767 -0.609128,0 0,-1 z "/>
<path fill="rgb(241,240,234)" stroke="rgb(241,240,234)" d="M 2.65462,6.4 l 0,0.7 -0.609128,0 0,-0.7 0.609128,0 z "/>
<path fill="rgb(241,240,234)" stroke="rgb(241,240,234)" d="M 2.66214,0.4 l 0,0.850492 0.235678,0.149508 -0.852332,0 0,-1 0.616654,0 z "/>
<path fill="rgb(241,240,234)" stroke="rgb(241,240,234)" d="M 3.04549,2.4 l 0,-0.906323 1,0.634372 0,0.271952 -1,0 z "/>
<path fill="rgb(241,240,234)" stroke="rgb(241,240,234)" d="M 3.04549,2.4 l 1,0 0,1 -1,0 0,-1 z "/>
<path fill="rgb(241,240,234)" stroke="rgb(241,240,234)" d="M 3.04549,3.4 l 1,0 0,1 -1,0 0,-1 z "/>
<path fill="rgb(241,240,234)" stroke="rgb(241,240,234)" d="M 1.04549,5.4 l 1,0 0,1 -1,0 0,-1 z "/>
<path fill="rgb(241,240,234)" stroke="rgb(241,240,234)" d="M 4.00713,5.4 l -0.961644,0 0,-1 1,0 0,0.975349 -0.0383562,0.0246507 z "/>
<path fill="rgb(241,240,234)" stroke="rgb(241,240,234)" d="M 4.00713,5.4 l -0.961644,0.618028 0,-0.618028 0.961644,0 z "/>
<path fill="rgb(241,240,234)" stroke="rgb(241,240,234)" d="M 4.04549,2.4 l 0,-0.271952 0.409019,0.25947 0,0.0124818 -0.409019,0 z "/>
<path fill="rgb(241,240,234)" stroke="rgb(241,240,234)" d="M 4.45451,2.4 l 0,1 -0.409019,0 0,-1 0.409019,0 z "/>
<path fill="rgb(241,240,234)" stroke="rgb(241,240,234)" d="M 4.45451,3.4 l 0,1 -0.409019,0 0,-1 0.409019,0 z "/>
<path fill="rgb(241,240,234)" stroke="rgb(241,240,234)" d="M 4.04549,4.4 l 0.409019,0 0,0.712482 -0.409019,0.262867 0,-0.975349 z "/>
<path fill="rgb(241,240,234)" stroke="rgb(241,240,234)" d="M 1.04549,4.4 l 1,0 0,1 -1,0 0,-1 z "/>
<path fill="rgb(241,240,234)" stroke="rgb(241,240,234)" d="M 1.04549,2.4 l 1,0 0,1 -1,0 0,-1 z "/>
<path fill="rgb(241,240,234)" stroke="rgb(241,240,234)" d="M 2.61548,3.17966 l 0.233445,0 0,-0.621968 -0.233445,0 0,0.621968 z M 2.04549,2.4 l 1,0 0,1 -1,0 0,-1 z "/>
<path fill="rgb(241,240,234)" stroke="rgb(241,240,234)" d="M 2.04549,0.4 l 0,1 -1,0 0,-1 1,-1.77636e-15 z "/>
<path fill="rgb(241,240,234)" stroke="rgb(241,240,234)" d="M 1.04549,1.4 l 1,0 0,1 -1,0 0,-1 z "/>
<path fill="rgb(241,240,234)" stroke="rgb(241,240,234)" d="M 1.04549,3.4 l 1,0 0,1 -1,0 0,-1 z "/>
<path fill="rgb(241,240,234)" stroke="rgb(241,240,234)" d="M 2.61548,5.09221 l 0.233445,0 0,-0.621968 -0.233445,0 0,0.621968 z M 2.04549,4.4 l 1,0 0,1 -1,0 0,-1 z "/>
<path fill="rgb(241,240,234)" stroke="rgb(241,240,234)" d="M 2.61548,2.21561 l 0.233445,0 0,-0.621968 -0.233445,0 0,0.621968 z M 2.89782,1.4 l 0.147668,0.0936765 0,0.906323 -1,0 0,-1 0.852332,0 z "/>
<path fill="rgb(241,240,234)" stroke="rgb(241,240,234)" d="M 1.04549,6.4 l 1,0 0,0.7 -1,0 -2.22045e-16,-0.7 z "/>
<path fill="rgb(0,91,140)" stroke="rgb(0,91,140)" d="M 4.8,7.3 l 0.0435779,-0.00190265 0.0432462,-0.00569347 0.0425854,-0.00944096 0.0416005,-0.0131166 0.0402991,-0.0166924 0.0386909,-0.0201412 0.0367882,-0.0234367 0.0346056,-0.0265538 0.0321596,-0.0294688 0.0294688,-0.0321596 0.0265538,-0.0346056 0.0234367,-0.0367882 0.0201412,-0.0386909 0.0166924,-0.0402991 0.0131166,-0.0416005 0.00944096,-0.0425854 0.00569347,-0.0432462 0.00190265,-0.0435779 -8.88178e-16,-6.1 -0.00190265,-0.0435779 -0.00569347,-0.0432462 -0.00944096,-0.0425854 -0.0131166,-0.0416005 -0.0166924,-0.0402991 -0.0201412,-0.0386909 -0.0234367,-0.0367882 -0.0265538,-0.0346056 -0.0294688,-0.0321596 -0.0321596,-0.0294688 -0.0346056,-0.0265538 -0.0367882,-0.0234367 -0.0386909,-0.0201412 -0.0402991,-0.0166924 -0.0416005,-0.0131166 -0.0425854,-0.00944096 -0.0432462,-0.00569347 -0.0435779,-0.00190265 -2.05,1.33227e-15 0,-0.2 2.05,4.44089e-16 0.061009,0.00266371 0.0605447,0.00797086 0.0596196,0.0132173 0.0582408,0.0183632 0.0564187,0.0233694 0.0541672,0.0281977 0.0515035,0.0328114 0.0484478,0.0371753 0.0450234,0.0412564 0.0412564,0.0450234 0.0371753,0.0484478 0.0328114,0.0515035 0.0281977,0.0541672 0.0233694,0.0564187 0.0183632,0.0582408 0.0132173,0.0596196 0.00797086,0.0605447 0.00266371,0.061009 8.88178e-16,6.1 -0.00266371,0.061009 -0.00797086,0.0605447 -0.0132173,0.0596196 -0.0183632,0.0582408 -0.0233694,0.0564187 -0.0281977,0.0541672 -0.0328114,0.0515035 -0.0371753,0.0484478 -0.0412564,0.0450234 -0.0450234,0.0412564 -0.0484478,0.0371753 -0.0515035,0.0328114 -0.0541672,0.0281977 -0.0564187,0.0233694 -0.0582408,0.0183632 -0.0596196,0.0132173 -0.0605447,0.00797086 -0.061009,0.00266371 -2.05,8.88178e-16 0,-0.2 2.05,0 z "/>
<path fill="rgb(0,91,140)" stroke="rgb(0,91,140)" d="M 2.75,7.3 l 0,0.2 -2.05,0 -0.061009,-0.00266371 -0.0605447,-0.00797086 -0.0596196,-0.0132173 -0.0582408,-0.0183632 -0.0564187,-0.0233694 -0.0541672,-0.0281977 -0.0515035,-0.0328114 -0.0484478,-0.0371753 -0.0450234,-0.0412564 -0.0412564,-0.0450234 -0.0371753,-0.0484478 -0.0328114,-0.0515035 -0.0281977,-0.0541672 -0.0233694,-0.0564187 -0.0183632,-0.0582408 -0.0132173,-0.0596196 -0.00797086,-0.0605447 -0.00266371,-0.061009 -8.88178e-16,-6.1 0.00266371,-0.061009 0.00797086,-0.0605447 0.0132173,-0.0596196 0.0183632,-0.0582408 0.0233694,-0.0564187 0.0281977,-0.0541672 0.0328114,-0.0515035 0.0371753,-0.0484478 0.0412564,-0.0450234 0.0450234,-0.0412564 0.0484478,-0.0371753 0.0515035,-0.0328114 0.0541672,-0.0281977 0.0564187,-0.0233694 0.0582408,-0.0183632 0.0596196,-0.0132173 0.0605447,-0.00797086 0.061009,-0.00266371 2.05,-1.33227e-15 0,0.2 -2.05,1.33227e-15 -0.0435779,0.00190265 -0.0432462,0.00569347 -0.0425854,0.00944096 -0.0416005,0.0131166 -0.0402991,0.0166924 -0.0386909,0.0201412 -0.0367882,0.0234367 -0.0346056,0.0265538 -0.0321596,0.0294688 -0.0294688,0.0321596 -0.0265538,0.0346056 -0.0234367,0.0367882 -0.0201412,0.0386909 -0.0166924,0.0402991 -0.0131166,0.0416005 -0.00944096,0.0425854 -0.00569347,0.0432462 -0.00190265,0.0435779 8.88178e-16,6.1 0.00190265,0.0435779 0.00569347,0.0432462 0.00944096,0.0425854 0.0131166,0.0416005 0.0166924,0.0402991 0.0201412,0.0386909 0.0234367,0.0367882 0.0265538,0.0346056 0.0294688,0.0321596 0.0321596,0.0294688 0.0346056,0.0265538 0.0367882,0.0234367 0.0386909,0.0201412 0.0402991,0.0166924 0.0416005,0.0131166 0.0425854,0.00944096 0.0432462,0.00569347 0.0435779,0.00190265 2.05,-8.88178e-16 z "/>
<path fill="rgb(241,240,234)" stroke="rgb(241,240,234)" d="M 4.8,7.3 l -2.05,0 0,-0.2 2.05,-8.88178e-16 0.0261467,-0.00114159 0.0259477,-0.00341608 0.0255513,-0.00566458 0.0249603,-0.00786996 0.0241794,-0.0100155 0.0232145,-0.0120847 0.0220729,-0.014062 0.0207634,-0.0159323 0.0192958,-0.0176813 0.0176813,-0.0192958 0.0159323,-0.0207634 0.014062,-0.0220729 0.0120847,-0.0232145 0.0100155,-0.0241794 0.00786996,-0.0249603 0.00566458,-0.0255513 0.00341608,-0.0259477 0.00114159,-0.0261467 -1.77636e-15,-6.1 -0.00114159,-0.0261467 -0.00341608,-0.0259477 -0.00566458,-0.0255513 -0.00786996,-0.0249603 -0.0100155,-0.0241794 -0.0120847,-0.0232145 -0.014062,-0.0220729 -0.0159323,-0.0207634 -0.0176813,-0.0192958 -0.0192958,-0.0176813 -0.0207634,-0.0159323 -0.0220729,-0.014062 -0.0232145,-0.0120847 -0.0241794,-0.0100155 -0.0249603,-0.00786996 -0.0255513,-0.00566458 -0.0259477,-0.00341608 -0.0261467,-0.00114159 -2.05,4.44089e-16 0,-0.2 2.05,-1.33227e-15 0.0435779,0.00190265 0.0432462,0.00569347 0.0425854,0.00944096 0.0416005,0.0131166 0.0402991,0.0166924 0.0386909,0.0201412 0.0367882,0.0234367 0.0346056,0.0265538 0.0321596,0.0294688 0.0294688,0.0321596 0.0265538,0.0346056 0.0234367,0.0367882 0.0201412,0.0386909 0.0166924,0.0402991 0.0131166,0.0416005 0.00944096,0.0425854 0.00569347,0.0432462 0.00190265,0.0435779 8.88178e-16,6.1 -0.00190265,0.0435779 -0.00569347,0.0432462 -0.00944096,0.0425854 -0.0131166,0.0416005 -0.0166924,0.0402991 -0.0201412,0.0386909 -0.0234367,0.0367882 -0.0265538,0.0346056 -0.0294688,0.0321596 -0.0321596,0.0294688 -0.0346056,0.0265538 -0.0367882,0.0234367 -0.0386909,0.0201412 -0.0402991,0.0166924 -0.0416005,0.0131166 -0.0425854,0.00944096 -0.0432462,0.00569347 -0.0435779,0.00190265 z "/>
<path fill="rgb(241,240,234)" stroke="rgb(241,240,234)" d="M 1.04549,7.1 l 1.60913,0 0.0953816,0 0,0.2 -2.05,8.88178e-16 -0.0435779,-0.00190265 -0.0432462,-0.00569347 -0.0425854,-0.00944096 -0.0416005,-0.0131166 -0.0402991,-0.0166924 -0.0386909,-0.0201412 -0.0367882,-0.0234367 -0.0346056,-0.0265538 -0.0321596,-0.0294688 -0.0294688,-0.0321596 -0.0265538,-0.0346056 -0.0234367,-0.0367882 -0.0201412,-0.0386909 -0.0166924,-0.0402991 -0.0131166,-0.0416005 -0.00944096,-0.0425854 -0.00569347,-0.0432462 -0.00190265,-0.0435779 -8.88178e-16,-6.1 0.00190265,-0.0435779 0.00569347,-0.0432462 0.00944096,-0.0425854 0.0131166,-0.0416005 0.0166924,-0.0402991 0.0201412,-0.0386909 0.0234367,-0.0367882 0.0265538,-0.0346056 0.0294688,-0.0321596 0.0321596,-0.0294688 0.0346056,-0.0265538 0.0367882,-0.0234367 0.0386909,-0.0201412 0.0402991,-0.0166924 0.0416005,-0.0131166 0.0425854,-0.00944096 0.0432462,-0.00569347 0.0435779,-0.00190265 2.05,-1.33227e-15 0,0.2 -0.0878557,-8.88178e-16 -1.61665,1.77636e-15 -0.345491,-4.44089e-16 -0.0261467,0.00114159 -0.0259477,0.00341608 -0.0255513,0.00566458 -0.0249603,0.00786996 -0.0241794,0.0100155 -0.0232145,0.0120847 -0.0220729,0.014062 -0.0207634,0.0159323 -0.0192958,0.0176813 -0.0176813,0.0192958 -0.0159323,0.0207634 -0.014062,0.0220729 -0.0120847,0.0232145 -0.0100155,0.0241794 -0.00786996,0.0249603 -0.00566458,0.0255513 -0.00341608,0.0259477 -0.00114159,0.0261467 1.33227e-15,6.1 0.00114159,0.0261467 0.00341608,0.0259477 0.00566458,0.0255513 0.00786996,0.0249603 0.0100155,0.0241794 0.0120847,0.0232145 0.014062,0.0220729 0.0159323,0.0207634 0.0176813,0.0192958 0.0192958,0.0176813 0.0207634,0.0159323 0.0220729,0.014062 0.0232145,0.0120847 0.0241794,0.0100155 0.0249603,0.00786996 0.0255513,0.00566458 0.0259477,0.00341608 0.0261467,0.00114159 0.345491,0 z "/>
<path fill="rgb(42,41,42)" stroke="rgb(42,41,42)" d="M 3.73748,3.24 l -0.0246035,-0.00094629 -0.0473145,-0.0094629 -0.0416368,-0.0198721 -0.0350127,-0.0302813 -0.00283887,-0.00283887 -0.0302813,-0.0444756 -0.0179795,-0.0529923 -0.00567774,-0.0605626 0.00094629,-0.0274424 0.0123018,-0.0577237 0.0246035,-0.0501534 0.0236573,-0.0255498 0.0397442,-0.0274424 0.0529923,-0.0236573 0.0302813,-0.0132481 0.0274424,-0.00757032 0.0264961,-0.0113555 0.0425831,-0.0170332 0.029335,-0.0141944 0.0236573,-0.0208184 0.0141944,-0.0510997 -0.00473145,-0.0312276 -0.0312276,-0.0435293 -0.00473145,-0.00283887 -0.0397442,-0.0198721 -0.0492071,-0.00662403 -0.237519,-0.00283887 0.0340664,-0.0425831 0.035959,-0.035959 0.0387979,-0.0264961 0.0406905,-0.0198721 0.0435293,-0.0113555 0.0463682,-0.00378516 0.0217647,0.00094629 0.0463682,0.00851661 0.0425831,0.0170332 0.0397442,0.0264961 0.0340664,0.0331202 0.0283887,0.0444756 0.0160869,0.0510997 0.00567774,0.0596163 0,0.00189258 -0.00567774,0.0615089 -0.0179795,0.0548848 -0.0255498,0.0454219 -0.035959,0.0350127 -0.022711,0.0132481 -0.0378516,0.0170332 -0.0482608,0.0179795 -0.05867,0.0189258 -0.0406905,0.0151406 -0.0331202,0.0198721 -0.00094629,0 -0.0189258,0.052046 0,0.00283887 0.0123018,0.0435293 0.0312276,0.0255498 0.0529923,0.00851661 0.222378,0.0179795 -0.0160869,0.0208184 -0.0350127,0.0369053 -0.0387979,0.0283887 -0.0406905,0.0208184 -0.0444756,0.0123018 -0.0473145,0.00378516 z "/>
<path fill="rgb(42,41,42)" stroke="rgb(42,41,42)" d="M 3.95986,3.11698 l -0.222378,-0.0179795 0.0255498,-0.00189258 0.0444756,-0.0123018 0.0387979,-0.0255498 0.0340664,-0.0387979 0.0794884,0.0965216 z "/>
<path fill="rgb(42,41,42)" stroke="rgb(42,41,42)" d="M 3.58986,2.6675 l -0.0861124,-0.0898976 0.0094629,-0.0132481 0.237519,0.00283887 -0.00378516,0 -0.0463682,0.00757032 -0.0406905,0.0189258 -0.0369053,0.0312276 -0.0331202,0.0425831 z "/>
<path fill="rgb(42,41,42)" stroke="rgb(42,41,42)" d="M 3.74789,4.20143 l -0.0340664,-0.00283887 -0.0444756,-0.0113555 -0.0406905,-0.0217647 -0.035959,-0.0321739 -0.0312276,-0.0416368 -0.00757032,-0.0123018 0.193989,-0.0208184 0.0340664,-0.00473145 0.0397442,-0.0236573 0.0302813,-0.0425831 0.00851661,-0.0170332 0.0160869,-0.0510997 0.0094629,-0.0605626 0.00283887,-0.0690792 0,-0.00662403 -0.00378516,-0.0681329 -0.0094629,-0.05867 -0.0151406,-0.0501534 -0.00283887,-0.00757032 -0.0283887,-0.0444756 -0.0369053,-0.0274424 -0.0444756,-0.0094629 -0.193989,-0.0113555 0.00189258,-0.00378516 0.0302813,-0.0454219 0.0340664,-0.035959 0.0378516,-0.0255498 0.0425831,-0.0160869 0.0473145,-0.00473145 0.029335,0.00189258 0.0444756,0.0123018 0.0397442,0.022711 0.0350127,0.0340664 0.0321739,0.0444756 0.00662403,0.0123018 0.0217647,0.0473145 0.0170332,0.0529923 0.0123018,0.0577237 0.00662403,0.0634014 0.00283887,0.0681329 0,0.0151406 -0.00378516,0.0671866 -0.00851661,0.0615089 -0.0141944,0.0567774 -0.0179795,0.0510997 -0.0236573,0.0454219 -0.0179795,0.0274424 -0.0340664,0.0369053 -0.0387979,0.0264961 -0.0425831,0.0160869 -0.0463682,0.00567774 z "/>
<path fill="rgb(42,41,42)" stroke="rgb(42,41,42)" d="M 3.5539,4.07936 l -0.0217647,-0.0463682 -0.0160869,-0.0510997 -0.0123018,-0.05867 -0.00757032,-0.0634014 -0.00189258,-0.0700255 0.00189258,-0.0605626 0.00662403,-0.0624552 0.0123018,-0.0577237 0.0170332,-0.0539385 0.0217647,-0.0492071 0.193989,0.0113555 -0.035959,0.00567774 -0.0387979,0.0246035 -0.0312276,0.0425831 -0.0094629,0.0189258 -0.0160869,0.0510997 -0.0094629,0.0596163 -0.00378516,0.0700255 0.00094629,0.029335 0.00567774,0.065294 0.0123018,0.0558311 0.0198721,0.0473145 0.022711,0.0340664 0.0378516,0.0274424 0.0454219,0.0094629 -0.193989,0.0208184 z "/>
<path fill="rgb(42,41,42)" stroke="rgb(42,41,42)" d="M 3.73748,5.15245 l -0.0246035,-0.00094629 -0.0473145,-0.0094629 -0.0416368,-0.0198721 -0.0350127,-0.0302813 -0.00283887,-0.00283887 -0.0302813,-0.0444756 -0.0179795,-0.0529923 -0.00567774,-0.0605626 0.00094629,-0.0274424 0.0123018,-0.0577237 0.0246035,-0.0501534 0.0236573,-0.0255498 0.0397442,-0.0274424 0.0529923,-0.0236573 0.0302813,-0.0132481 0.0274424,-0.00757032 0.0264961,-0.0113555 0.0425831,-0.0170332 0.029335,-0.0141944 0.0236573,-0.0208184 0.0141944,-0.0510997 -0.00473145,-0.0312276 -0.0312276,-0.0435293 -0.00473145,-0.00283887 -0.0397442,-0.0198721 -0.0492071,-0.00662403 -0.237519,-0.00283887 0.0340664,-0.0425831 0.035959,-0.035959 0.0387979,-0.0264961 0.0406905,-0.0198721 0.0435293,-0.0113555 0.0463682,-0.00378516 0.0217647,0 0.0463682,0.0094629 0.0425831,0.0170332 0.0397442,0.0264961 0.0340664,0.0331202 0.0283887,0.0444756 0.0160869,0.0510997 0.00567774,0.0596163 0,0.00189258 -0.00567774,0.0615089 -0.0179795,0.0548848 -0.0255498,0.0454219 -0.035959,0.0350127 -0.022711,0.0132481 -0.0378516,0.0170332 -0.0482608,0.0179795 -0.05867,0.0189258 -0.0406905,0.0151406 -0.0331202,0.0198721 -0.00094629,0 -0.0189258,0.052046 0,0.00283887 0.0123018,0.0435293 0.0312276,0.0255498 0.0529923,0.00851661 0.222378,0.0170332 -0.0160869,0.0217647 -0.0350127,0.0369053 -0.0387979,0.0283887 -0.0406905,0.0208184 -0.0444756,0.0123018 -0.0473145,0.00378516 z "/>
<path fill="rgb(42,41,42)" stroke="rgb(42,41,42)" d="M 3.95986,5.02849 l -0.222378,-0.0170332 0.0255498,-0.00189258 0.0444756,-0.0123018 0.0387979,-0.0255498 0.0340664,-0.0387979 0.0794884,0.0955753 z "/>
<path fill="rgb(42,41,42)" stroke="rgb(42,41,42)" d="M 3.58986,4.57995 l -0.0861124,-0.0898976 0.0094629,-0.0132481 0.237519,0.00283887 -0.00378516,0 -0.0463682,0.00757032 -0.0406905,0.0189258 -0.0369053,0.0312276 -0.0331202,0.0425831 z "/>
<path fill="rgb(42,41,42)" stroke="rgb(42,41,42)" d="M 2.61548,5.09221 l 0,-0.621968 0.233445,0 0,0.621968 -0.233445,0 z "/>
<path fill="rgb(42,41,42)" stroke="rgb(42,41,42)" d="M 2.84893,4.13594 l -0.233445,0 0,-0.621968 0.233445,0 0,0.621968 z "/>
<path fill="rgb(42,41,42)" stroke="rgb(42,41,42)" d="M 2.61548,3.17966 l 0,-0.621968 0.233445,0 0,0.621968 -0.233445,0 z "/>
<path fill="rgb(42,41,42)" stroke="rgb(42,41,42)" d="M 2.61548,2.21561 l 0,-0.621968 0.233445,0 0,0.621968 -0.233445,0 z "/>
<path fill="rgb(42,41,42)" stroke="rgb(42,41,42)" d="M 2.84893,6.03438 l -0.233445,0 0,-0.621968 0.233445,0 0,0.621968 z "/>
</g></g></svg>
