<?xml version="1.0" encoding="UTF-8" standalone="no"?>
<!DOCTYPE svg PUBLIC "-//W3C//DTD SVG 1.1//EN" "http://www.w3.org/Graphics/SVG/1.1/DTD/svg11-flat.dtd"
[

]>
<svg xmlns="http://www.w3.org/2000/svg"  viewBox="-0.09375 -0.09375 7.6875 7.6875"><g fill="none" stroke="black" stroke-width="0.0125" transform="translate(0,7.5) scale(1, -1)">
<g id="Output" >
<path fill="rgb(0,91,140)" stroke="rgb(0,91,140)" d="M 5.06888,3.66293 l -0.0242591,0.00439614 -0.0237673,0.00655339 -0.023084,0.00865786 -0.0222148,0.0106926 -0.0211667,0.0126412 -0.0199481,0.014488 -0.0185689,0.0162181 -0.01704,0.0178176 -0.015374,0.0192736 -0.0135841,0.0205743 -0.0116848,0.0217094 -0.00969136,0.0226695 -0.00761989,0.0234471 -0.00548704,0.0240359 -0.00331,0.024431 -0.0011063,0.0246294 0.000502927,0.0166153 0.00150694,0.0165544 0.00250544,0.016433 -0.29781,-0.296821 0.0910239,-0.0901393 0.431373,-4.44089e-16 0.00880433,0.0651221 z "/>
<path fill="rgb(0,91,140)" stroke="rgb(0,91,140)" d="M 6.50794,5.65165 l -1.45095,-1.44613 0.0242762,0.00326357 0.0244704,0.00108817 0.02447,-0.00109588 0.0242751,-0.00327121 0.0238873,-0.00542054 0.0233095,-0.00752677 0.0225464,-0.00957317 0.021604,-0.0115434 0.0204899,-0.013422 0.0192128,-0.0151938 1.25931,1.45417 -0.0121804,0.0183004 -0.0123003,0.01822 -0.0124196,0.0181389 z "/>
<path fill="rgb(0,91,140)" stroke="rgb(0,91,140)" d="M 2.43465,6.83097 l 0.418499,-0.480588 0.026231,0.020887 0.0279646,0.0185017 0.029482,0.0159732 0.0307714,0.0133212 0.0318228,0.0105662 0.032628,0.00772948 0.0331809,0.00483297 0.0334772,0.00189909 0.0335146,-0.00104949 0.0332928,-0.00398994 0.0328135,-0.00689954 0.0320805,-0.00975578 0.0310993,-0.0125366 0.0298776,-0.0152204 0.0284249,-0.0177865 0.0267523,-0.0202151 0.0248728,-0.0224873 0.0228009,-0.0245856 0.0205527,-0.0264938 0.0181455,-0.028197 0.0155981,-0.0296822 0.0129299,-0.0309378 0.0101618,-0.0319542 0.0073151,-0.0327234 0.00441181,-0.0332396 0.0014744,-0.0334986 -0.00139361,-0.0325696 -0.00417064,-0.0323315 -0.00691719,-0.0318571 -0.00961317,-0.0311498 -0.0122389,-0.0302147 -0.0147751,-0.0290589 -0.0172033,-0.0276905 -0.0195058,-0.0261198 -0.0216657,-0.0243581 -0.0236672,-0.0224184 -0.0254957,-0.0203148 -0.0271378,-0.0180627 -0.0285816,-0.0156785 -0.0298164,-0.0131797 -0.0308332,-0.0105846 -0.0316247,-0.00791212 -0.0321849,-0.0051818 -0.0325099,-0.00241359 -0.0325973,0.000372263 -0.0044557,-0.082155 0.194565,0 0.0373366,-0.00124096 0.0370828,-0.00451918 0.0365418,-0.00776239 0.0357177,-0.0109455 0.0346169,-0.0140437 0.033248,-0.0170332 0.0316214,-0.0198908 0.02975,-0.0225942 0.027648,-0.0251226 0.0253319,-0.0274564 0.0228195,-0.0295775 0.0201303,-0.0314695 0.0172852,-0.0331177 0.269539,-0.576994 1.72915,1.7234 -0.238201,0.150965 -0.250054,0.130396 -0.260136,0.108902 -0.268374,0.0866368 -0.274709,0.0637575 -0.279099,0.0404263 -0.28151,0.0168087 -0.281926,-0.006928 -0.280344,-0.0306156 -0.276776,-0.0540863 -0.271246,-0.0771737 -0.263794,-0.0997142 z "/>
<path fill="rgb(0,91,140)" stroke="rgb(0,91,140)" d="M 3.7249,4.57211 l -0.188292,0.280964 -0.0271089,-0.495649 0.215401,0.214685 z "/>
<path fill="rgb(0,91,140)" stroke="rgb(0,91,140)" d="M 0.4,3.75 l 0.0124489,-0.288536 0.0372542,-0.286391 0.0617827,-0.282118 0.0858519,-0.275748 0.109283,-0.267329 0.131902,-0.256923 0.153541,-0.244608 1.4878,1.48286 0.121566,0.740465 -0.00941094,0.781401 -0.392271,-1.00735 -0.147498,0.0282456 0.330258,1.33364 5.8007e-07,2.34247e-06 5.80081e-07,2.34247e-06 5.80092e-07,2.34247e-06 0.0129419,0.0438443 0.016768,0.0425283 0.0204626,0.0408791 0.023997,0.0389097 0.0273434,0.0366355 0.0304756,0.0340743 0.0333691,0.0312461 0.0360012,0.0281732 0.0383513,0.0248797 0.0404009,0.0213912 0.0421341,0.0177351 0.0435372,0.0139402 0.0445993,0.010036 0.045312,0.00605323 0.0456698,0.00202303 0.194565,0 0.0044557,0.082155 -0.0338382,0.00335374 -0.0334048,0.0063552 -0.0327058,0.00930611 -0.0317466,0.012183 -0.0305349,0.014963 -0.0290804,0.017624 -0.0273945,0.0201448 -0.0254908,0.0225054 -0.0233843,0.024687 -0.0210919,0.0266722 -0.0186316,0.0284453 -0.0160232,0.0299921 -0.0132874,0.0313004 -0.0104459,0.0323598 -0.00752125,0.0331618 -0.00453681,0.0337 -0.00151629,0.0339702 0.00139066,0.0325352 0.00416185,0.0322979 0.00690267,0.031825 0.00959314,0.0311199 0.0122136,0.0301878 0.014745,0.0290355 0.0171689,0.0276714 0.0194675,0.0261054 0.0216241,0.024349 0.0236229,0.022415 -0.418499,0.480588 -0.273364,-0.131646 -0.260331,-0.15584 -0.245164,-0.178755 -0.227985,-0.200203 -0.208936,-0.22001 -0.185597,-0.234435 -0.163953,-0.250051 -0.141004,-0.263674 -0.116931,-0.275196 -0.0919268,-0.284527 -0.0661902,-0.29159 -0.0399262,-0.296331 -0.0133442,-0.29871 z "/>
<path fill="rgb(0,91,140)" stroke="rgb(0,91,140)" d="M 3.92887,1.33831 l -0.219657,4.44089e-16 -0.378591,1.14659 -0.835971,-0.833194 -0.103479,-0.313393 -0.210958,0 -0.341036,-0.339903 0.245477,-0.155146 0.257991,-0.133304 0.268566,-0.11046 0.277124,-0.0867861 0.283598,-0.0624601 0.287942,-0.0376648 0.290122,-0.0125865 0.291972,0.0127478 0.28975,0.0381463 0.285322,0.0632545 0.278724,0.0878812 0.270004,0.111839 0.259229,0.134946 0.246481,0.157026 0.231857,0.17791 0.215469,0.197441 0.197441,0.215469 0.17791,0.231857 0.157026,0.246481 0.134946,0.259229 0.111839,0.270004 0.0878812,0.278724 0.0632545,0.285322 0.0381463,0.28975 0.0127478,0.291972 -0.0114859,0.277171 -0.034379,0.27527 -0.0570363,0.271482 -0.0793025,0.265832 -0.102891,0.262596 -0.124614,0.253011 -0.145455,0.241632 -1.25931,-1.45417 0.0171168,-0.0161571 0.0156708,-0.017563 0.0141098,-0.0188401 0.0124453,-0.0199788 0.0106893,-0.0209708 0.00885491,-0.0218088 0.00695549,-0.0224868 0.00500501,-0.0229997 0.00301778,-0.0233437 0.00100839,-0.0235163 -0.000997848,-0.0233933 -0.00298629,-0.0232233 -0.00495304,-0.0228847 -0.00688381,-0.0223798 -0.00876457,-0.0217123 -0.0105817,-0.0208871 -0.0123219,-0.0199101 -0.0139726,-0.0187885 -0.0155218,-0.0175304 -0.0169582,-0.016145 -0.0182714,-0.0146422 -0.019452,-0.0130331 -0.0204911,-0.0113294 -0.0213815,-0.00954326 -0.0221165,-0.00768785 -0.0226908,-0.00577658 -0.0231003,-0.00382334 -0.023342,-0.00184234 -0.0234141,0.000152056 -0.0233161,0.00214534 -0.00880433,-0.0651221 0.0456098,0 0.0216444,-0.00307769 0.0212814,-0.00500572 0.0207469,-0.00689344 0.0200454,-0.00872564 0.0191824,-0.0104876 0.018165,-0.012165 0.0170012,-0.0137445 0.0157006,-0.0152134 0.627634,-0.665303 -0.0909937,-0.0909937 -0.439339,0.373449 -0.112982,-0.370308 0.517793,-1.23016 -0.185154,-0.0721718 -0.514652,0.916347 -0.382848,-1.04504 -0.172615,4.44089e-16 0.260467,1.46241 -0.00625693,0.517793 -0.235363,0.0596069 -0.119999,0.177728 -0.717911,-0.715526 0.241637,-1.50201 z "/>
<path fill="rgb(0,91,140)" stroke="rgb(0,91,140)" d="M 1.06776,6.07553 l -0.151112,0.131016 -0.207757,-0.262428 -0.18353,-0.279907 -0.15784,-0.295157 -0.130893,-0.308056 -0.102903,-0.3185 -0.0740935,-0.326407 -0.0446935,-0.331713 -0.0149375,-0.334377 0.0142699,-0.326834 0.042701,-0.324347 0.0708072,-0.319391 0.0983745,-0.312004 0.125193,-0.302243 0.151059,-0.290182 0.175775,-0.275912 0.199154,-0.259542 0.221016,-0.241197 0.241197,-0.221016 0.259542,-0.199154 0.275912,-0.175775 0.290182,-0.151059 0.302243,-0.125193 0.312004,-0.0983745 0.319391,-0.0708072 0.324347,-0.042701 0.326834,-0.0142699 0,0.2 -0.309403,0.0135088 -0.307048,0.0404237 -0.302357,0.0670308 -0.295364,0.0931279 -0.286123,0.118516 -0.274705,0.143002 -0.261196,0.1664 -0.2457,0.188532 -0.228333,0.209229 -0.209229,0.228333 -0.188532,0.2457 -0.1664,0.261196 -0.143002,0.274705 -0.118516,0.286123 -0.0931279,0.295364 -0.0670308,0.302357 -0.0404237,0.307048 -0.0135088,0.309403 0.0141408,0.316544 0.0423099,0.314022 0.0701418,0.308999 0.097415,0.301513 0.123912,0.291626 0.149422,0.279416 0.173742,0.264979 0.196677,0.248431 z "/>
<path fill="rgb(0,91,140)" stroke="rgb(0,91,140)" d="M 7.5,3.75 l -0.0128574,0.310266 -0.0384839,0.308138 -0.0638466,0.303898 -0.0887715,0.297573 -0.189122,-0.06506 0.084037,-0.281703 0.0604415,-0.28769 0.0364315,-0.291704 0.0121716,-0.293718 -0.0135088,-0.309403 -0.0404237,-0.307048 -0.0670308,-0.302357 -0.0931279,-0.295364 -0.118516,-0.286123 -0.143002,-0.274705 -0.1664,-0.261196 -0.188532,-0.2457 -0.209229,-0.228333 -0.228333,-0.209229 -0.2457,-0.188532 -0.261196,-0.1664 -0.274705,-0.143002 -0.286123,-0.118516 -0.295364,-0.0931279 -0.302357,-0.0670308 -0.307048,-0.0404237 -0.309403,-0.0135088 0,-0.2 0.326834,0.0142699 0.324347,0.042701 0.319391,0.0708072 0.312004,0.0983745 0.302243,0.125193 0.290182,0.151059 0.275912,0.175775 0.259542,0.199154 0.241197,0.221016 0.221016,0.241197 0.199154,0.259542 0.175775,0.275912 0.151059,0.290182 0.125193,0.302243 0.0983745,0.312004 0.0708072,0.319391 0.042701,0.324347 0.0142699,0.326834 z "/>
<path fill="rgb(0,91,140)" stroke="rgb(0,91,140)" d="M 1.06776,6.07553 l 0.213058,0.225086 0.231878,0.205645 0.248931,0.184636 0.264087,0.162221 0.27723,0.138568 0.288259,0.11386 0.297092,0.0882837 0.30366,0.0620345 0.307913,0.0353125 0.30982,0.00832127 0.309365,-0.0187333 0.306552,-0.0456452 0.301402,-0.0722091 0.293955,-0.0982226 0.284268,-0.123487 0.272414,-0.147811 0.258483,-0.171008 0.242583,-0.192902 0.224833,-0.213325 0.20537,-0.232122 0.184341,-0.24915 0.161907,-0.264279 0.138239,-0.277394 0.113518,-0.288394 0.189122,0.06506 -0.119913,0.304642 -0.146028,0.293022 -0.171029,0.279168 -0.194726,0.263187 -0.21694,0.245199 -0.2375,0.225343 -0.256249,0.203769 -0.273046,0.180642 -0.287761,0.156138 -0.300283,0.130445 -0.310516,0.103756 -0.318383,0.0762772 -0.323822,0.0482167 -0.326794,0.0197887 -0.327274,-0.00879008 -0.32526,-0.0373019 -0.320767,-0.0655294 -0.313829,-0.0932574 -0.304499,-0.120275 -0.292848,-0.146375 -0.278965,-0.17136 -0.262956,-0.195039 -0.244942,-0.217231 -0.225061,-0.237767 0.151112,-0.131016 z "/>
<path fill="rgb(241,240,234)" stroke="rgb(241,240,234)" d="M 3.68723,2.84032 l 0.717911,0.715526 -0.113963,0.168788 -0.643097,-0.640961 0.0391497,-0.243354 z "/>
<path fill="rgb(241,240,234)" stroke="rgb(241,240,234)" d="M 1.83918,0.998407 l 0.341036,0.339903 -0.027533,0 0.0500418,0.304807 -0.526123,-0.524375 0.0533816,-0.0412 0.0542,-0.0401172 0.0549965,-0.0390181 z "/>
<path fill="rgb(241,240,234)" stroke="rgb(241,240,234)" d="M 2.49465,1.6517 l 0.835971,0.833194 -0.0701507,0.212456 -0.62685,-0.624767 -0.138971,-0.420883 z "/>
<path fill="rgb(241,240,234)" stroke="rgb(241,240,234)" d="M 6.50794,5.65165 l -0.0388349,0.055126 -0.0399366,0.0543332 -0.0410221,0.0535184 -1.99258,-1.98596 0.142113,-0.140732 0.29781,0.296821 0.00529553,0.0231575 0.00727637,0.0226135 0.00920281,0.0219003 0.0110604,0.0210234 0.0128353,0.0199892 0.0145143,0.0188056 0.0160847,0.0174814 0.0175348,0.0160264 0.0188538,0.0144516 0.0200318,0.0127687 0.02106,0.0109904 0.0219308,0.00912988 0.0226376,0.00720108 0.023175,0.00521844 1.45095,1.44613 z "/>
<path fill="rgb(241,240,234)" stroke="rgb(241,240,234)" d="M 5.8234,6.38126 l -1.80172,-1.79574 -0.0900037,0.192669 1.72915,1.7234 0.0549965,-0.0390181 0.0542,-0.0401172 0.0533816,-0.0412 z "/>
<path fill="rgb(241,240,234)" stroke="rgb(241,240,234)" d="M 3.7249,4.57211 l 0.113455,-0.169295 -0.345191,-0.344044 0.0163345,0.298653 0.215401,0.214685 z "/>
<path fill="rgb(241,240,234)" stroke="rgb(241,240,234)" d="M 1.11186,1.68537 l -0.0410221,0.0535184 -0.0399366,0.0543332 -0.0388349,0.055126 1.4878,1.48286 -0.0554284,-0.337618 -1.31258,-1.30822 z "/>
<path fill="rgb(241,240,234)" stroke="rgb(241,240,234)" d="M 3.92887,1.33831 l -0.241637,1.50201 -0.356611,-0.355426 0.378591,-1.14659 0.219657,-4.44089e-16 z "/>
<path fill="rgb(241,240,234)" stroke="rgb(241,240,234)" d="M 3.33062,2.4849 l 0.356611,0.355426 -0.0391497,0.243354 -0.387612,-0.386324 0.0701507,-0.212456 z "/>
<path fill="rgb(241,240,234)" stroke="rgb(241,240,234)" d="M 2.47987,3.3312 l 1.02964,1.02622 -0.0163345,-0.298653 -1.06873,-1.06518 0.0554284,0.337618 z "/>
<path fill="rgb(241,240,234)" stroke="rgb(241,240,234)" d="M 2.18021,1.33831 l 0.314437,0.313393 0.138971,0.420883 -0.4309,-0.429468 -0.0500418,-0.304807 0.027533,0 z "/>
<path fill="rgb(241,240,234)" stroke="rgb(241,240,234)" d="M 2.18021,1.33831 l 0.210958,0 0.103479,0.313393 -0.314437,-0.313393 z "/>
<path fill="rgb(241,240,234)" stroke="rgb(241,240,234)" d="M 2.88387,5.59996 l -0.0456698,-0.00202303 -0.045312,-0.00605323 -0.0445993,-0.010036 -0.0435372,-0.0139402 -0.0421341,-0.0177351 -0.0404009,-0.0213912 -0.0383513,-0.0248797 -0.0360012,-0.0281732 -0.0333691,-0.0312461 -0.0304756,-0.0340743 -0.0273434,-0.0366355 -0.023997,-0.0389097 -0.0204626,-0.0408791 -0.016768,-0.0425283 -0.0129419,-0.0438443 -1.74024e-06,-7.02741e-06 -0.000251082,-0.00101838 -0.000249014,-0.00101888 -0.000246944,-0.00101939 -0.32951,-1.33058 0.147498,-0.0282456 0.392271,1.00735 0.00941094,-0.781401 -0.121566,-0.740465 1.02964,1.02622 0.0271089,0.495649 0.188292,-0.280964 0.206768,0.206082 -0.269539,0.576994 -0.0172852,0.0331177 -0.0201303,0.0314695 -0.0228195,0.0295775 -0.0253319,0.0274564 -0.027648,0.0251226 -0.02975,0.0225942 -0.0316214,0.0198908 -0.033248,0.0170332 -0.0346169,0.0140437 -0.0357177,0.0109455 -0.0365418,0.00776239 -0.0370828,0.00451918 -0.0373366,0.00124096 -0.194565,0 -0.194565,0 z "/>
<path fill="rgb(241,240,234)" stroke="rgb(241,240,234)" d="M 3.93167,4.77819 l 0.0900037,-0.192669 -0.183317,-0.182708 -0.113455,0.169295 0.206768,0.206082 z "/>
<path fill="rgb(241,240,234)" stroke="rgb(241,240,234)" d="M 2.38251,5.2076 l 1.74024e-06,7.02741e-06 -5.80092e-07,-2.34247e-06 -5.80081e-07,-2.34247e-06 -5.8007e-07,-2.34247e-06 z "/>
<path fill="rgb(241,240,234)" stroke="rgb(241,240,234)" d="M 5.05698,4.20552 l -0.023175,-0.00521844 -0.0226376,-0.00720108 -0.0219308,-0.00912988 -0.02106,-0.0109904 -0.0200318,-0.0127687 -0.0188538,-0.0144516 -0.0175348,-0.0160264 -0.0160847,-0.0174814 -0.0145143,-0.0188056 -0.0128353,-0.0199892 -0.0110604,-0.0210234 -0.00920281,-0.0219003 -0.00727637,-0.0226135 -0.00529553,-0.0231575 0.221493,0.220757 z "/>
<path fill="rgb(241,240,234)" stroke="rgb(241,240,234)" d="M 5.3804,3.93516 l -0.00100839,0.0235163 -0.00301778,0.0233437 -0.00500501,0.0229997 -0.00695549,0.0224868 -0.00885491,0.0218088 -0.0106893,0.0209708 -0.0124453,0.0199788 -0.0141098,0.0188401 -0.0156708,0.017563 -0.0171168,0.0161571 -0.0192128,0.0151938 -0.0204899,0.013422 -0.021604,0.0115434 -0.0225464,0.00957317 -0.0233095,0.00752677 -0.0238873,0.00542054 -0.0242751,0.00327121 -0.02447,0.00109588 -0.0244704,-0.00108817 -0.0242762,-0.00326357 -0.221493,-0.220757 -0.00250544,-0.016433 -0.00150694,-0.0165544 -0.000502927,-0.0166153 0.0011063,-0.0246294 0.00331,-0.024431 0.00548704,-0.0240359 0.00761989,-0.0234471 0.00969136,-0.0226695 0.0116848,-0.0217094 0.0135841,-0.0205743 0.015374,-0.0192736 0.01704,-0.0178176 0.0185689,-0.0162181 0.0199481,-0.014488 0.0211667,-0.0126412 0.0222148,-0.0106926 0.023084,-0.00865786 0.0237673,-0.00655339 0.0242591,-0.00439614 0.0233161,-0.00214534 0.0234141,-0.000152056 0.023342,0.00184234 0.0231003,0.00382334 0.0226908,0.00577658 0.0221165,0.00768785 0.0213815,0.00954326 0.0204911,0.0113294 0.019452,0.0130331 0.0182714,0.0146422 0.0169582,0.016145 0.0155218,0.0175304 0.0139726,0.0187885 0.0123219,0.0199101 0.0105817,0.0208871 0.00876457,0.0217123 0.00688381,0.0223798 0.00495304,0.0228847 0.00298629,0.0232233 0.000997848,0.0233933 z "/>
<path fill="rgb(241,240,234)" stroke="rgb(241,240,234)" d="M 4.39557,3.82867 l -0.104384,-0.104037 0.113963,-0.168788 0.132534,0.132094 -0.142113,0.140732 z "/>
<path fill="rgb(241,240,234)" stroke="rgb(241,240,234)" d="M 5.57641,1.467 l 0.185154,0.0721718 -0.517793,1.23016 0.112982,0.370308 0.439339,-0.373449 0.0909937,0.0909937 -0.627634,0.665303 -0.0157006,0.0152134 -0.0170012,0.0137445 -0.018165,0.012165 -0.0191824,0.0104876 -0.0200454,0.00872564 -0.0207469,0.00689344 -0.0212814,0.00500572 -0.0216444,0.00307769 -0.0456098,0 -0.431373,4.44089e-16 -0.0910239,0.0901393 -0.132534,-0.132094 0.119999,-0.177728 0.235363,-0.0596069 0.00625693,-0.517793 -0.260467,-1.46241 0.172615,-4.44089e-16 0.382848,1.04504 0.514652,-0.916347 z "/>
<path fill="rgb(241,240,234)" stroke="rgb(241,240,234)" d="M 3.48483,6.06284 l -0.0014744,0.0334986 -0.00441181,0.0332396 -0.0073151,0.0327234 -0.0101618,0.0319542 -0.0129299,0.0309378 -0.0155981,0.0296822 -0.0181455,0.028197 -0.0205527,0.0264938 -0.0228009,0.0245856 -0.0248728,0.0224873 -0.0267523,0.0202151 -0.0284249,0.0177865 -0.0298776,0.0152204 -0.0310993,0.0125366 -0.0320805,0.00975578 -0.0328135,0.00689954 -0.0332928,0.00398994 -0.0335146,0.00104949 -0.0334772,-0.00189909 -0.0331809,-0.00483297 -0.032628,-0.00772948 -0.0318228,-0.0105662 -0.0307714,-0.0133212 -0.029482,-0.0159732 -0.0279646,-0.0185017 -0.026231,-0.020887 -0.0236229,-0.022415 -0.0216241,-0.024349 -0.0194675,-0.0261054 -0.0171689,-0.0276714 -0.014745,-0.0290355 -0.0122136,-0.0301878 -0.00959314,-0.0311199 -0.00690267,-0.031825 -0.00416185,-0.0322979 -0.00139066,-0.0325352 0.00151629,-0.0339702 0.00453681,-0.0337 0.00752125,-0.0331618 0.0104459,-0.0323598 0.0132874,-0.0313004 0.0160232,-0.0299921 0.0186316,-0.0284453 0.0210919,-0.0266722 0.0233843,-0.024687 0.0254908,-0.0225054 0.0273945,-0.0201448 0.0290804,-0.017624 0.0305349,-0.014963 0.0317466,-0.012183 0.0327058,-0.00930611 0.0334048,-0.0063552 0.0338382,-0.00335374 0.0325973,-0.000372263 0.0325099,0.00241359 0.0321849,0.0051818 0.0316247,0.00791212 0.0308332,0.0105846 0.0298164,0.0131797 0.0285816,0.0156785 0.0271378,0.0180627 0.0254957,0.0203148 0.0236672,0.0224184 0.0216657,0.0243581 0.0195058,0.0261198 0.0172033,0.0276905 0.0147751,0.0290589 0.0122389,0.0302147 0.00961317,0.0311498 0.00691719,0.0318571 0.00417064,0.0323315 0.00139361,0.0325696 z "/>
<path fill="rgb(241,240,234)" stroke="rgb(241,240,234)" d="M 7.10692,4.90482 l -0.189122,-0.06506 0.0793025,-0.265832 0.0570363,-0.271482 0.034379,-0.27527 0.0114859,-0.277171 -0.0127478,-0.291972 -0.0381463,-0.28975 -0.0632545,-0.285322 -0.0878812,-0.278724 -0.111839,-0.270004 -0.134946,-0.259229 -0.157026,-0.246481 -0.17791,-0.231857 -0.197441,-0.215469 -0.215469,-0.197441 -0.231857,-0.17791 -0.246481,-0.157026 -0.259229,-0.134946 -0.270004,-0.111839 -0.278724,-0.0878812 -0.285322,-0.0632545 -0.28975,-0.0381463 -0.291972,-0.0127478 0,-0.2 0.309403,0.0135088 0.307048,0.0404237 0.302357,0.0670308 0.295364,0.0931279 0.286123,0.118516 0.274705,0.143002 0.261196,0.1664 0.2457,0.188532 0.228333,0.209229 0.209229,0.228333 0.188532,0.2457 0.1664,0.261196 0.143002,0.274705 0.118516,0.286123 0.0931279,0.295364 0.0670308,0.302357 0.0404237,0.307048 0.0135088,0.309403 -0.0121716,0.293718 -0.0364315,0.291704 -0.0604415,0.28769 -0.084037,0.281703 z "/>
<path fill="rgb(241,240,234)" stroke="rgb(241,240,234)" d="M 1.06776,6.07553 l -0.196677,-0.248431 -0.173742,-0.264979 -0.149422,-0.279416 -0.123912,-0.291626 -0.097415,-0.301513 -0.0701418,-0.308999 -0.0423099,-0.314022 -0.0141408,-0.316544 0.0135088,-0.309403 0.0404237,-0.307048 0.0670308,-0.302357 0.0931279,-0.295364 0.118516,-0.286123 0.143002,-0.274705 0.1664,-0.261196 0.188532,-0.2457 0.209229,-0.228333 0.228333,-0.209229 0.2457,-0.188532 0.261196,-0.1664 0.274705,-0.143002 0.286123,-0.118516 0.295364,-0.0931279 0.302357,-0.0670308 0.307048,-0.0404237 0.309403,-0.0135088 0,0.2 -0.290122,0.0125865 -0.287942,0.0376648 -0.283598,0.0624601 -0.277124,0.0867861 -0.268566,0.11046 -0.257991,0.133304 -0.245477,0.155146 -0.0549965,0.0390181 -0.0542,0.0401172 -0.0533816,0.0412 -0.203135,0.173638 -0.188648,0.189277 -0.172961,0.203711 -0.0410221,0.0535184 -0.0399366,0.0543332 -0.0388349,0.055126 -0.153541,0.244608 -0.131902,0.256923 -0.109283,0.267329 -0.0858519,0.275748 -0.0617827,0.282118 -0.0372542,0.286391 -0.0124489,0.288536 0.0133442,0.29871 0.0399262,0.296331 0.0661902,0.29159 0.0919268,0.284527 0.116931,0.275196 0.141004,0.263674 0.163953,0.250051 0.185597,0.234435 -0.151112,0.131016 z "/>
<path fill="rgb(241,240,234)" stroke="rgb(241,240,234)" d="M 5.8234,6.38126 l 0.203135,-0.173638 0.188648,-0.189277 0.172961,-0.203711 0.0410221,-0.0535184 0.0399366,-0.0543332 0.0388349,-0.055126 0.0124196,-0.0181389 0.0123003,-0.01822 0.0121804,-0.0183004 0.145455,-0.241632 0.124614,-0.253011 0.102891,-0.262596 0.189122,0.06506 -0.113518,0.288394 -0.138239,0.277394 -0.161907,0.264279 -0.184341,0.24915 -0.20537,0.232122 -0.224833,0.213325 -0.242583,0.192902 -0.258483,0.171008 -0.272414,0.147811 -0.284268,0.123487 -0.293955,0.0982226 -0.301402,0.0722091 -0.306552,0.0456452 -0.309365,0.0187333 -0.30982,-0.00832127 -0.307913,-0.0353125 -0.30366,-0.0620345 -0.297092,-0.0882837 -0.288259,-0.11386 -0.27723,-0.138568 -0.264087,-0.162221 -0.248931,-0.184636 -0.231878,-0.205645 -0.213058,-0.225086 0.151112,-0.131016 0.208936,0.22001 0.227985,0.200203 0.245164,0.178755 0.260331,0.15584 0.273364,0.131646 0.263794,0.0997142 0.271246,0.0771737 0.276776,0.0540863 0.280344,0.0306156 0.281926,0.006928 0.28151,-0.0168087 0.279099,-0.0404263 0.274709,-0.0637575 0.268374,-0.0866368 0.260136,-0.108902 0.250054,-0.130396 0.238201,-0.150965 0.0549965,-0.0390181 0.0542,-0.0401172 0.0533816,-0.0412 z "/>
<path fill="rgb(187,30,16)" stroke="rgb(187,30,16)" d="M 1.11186,1.68537 l 1.31258,1.30822 -0.221714,-1.35047 -0.526123,-0.524375 -0.203135,0.173638 -0.188648,0.189277 -0.172961,0.203711 z "/>
<path fill="rgb(187,30,16)" stroke="rgb(187,30,16)" d="M 4.39557,3.82867 l -0.104384,-0.104037 -0.0987019,0.146185 0.0564912,0.0235401 0.0564912,0.0235401 0.0901037,-0.0892281 z "/>
<path fill="rgb(187,30,16)" stroke="rgb(187,30,16)" d="M 5.8234,6.38126 l 0.203135,-0.173638 0.188648,-0.189277 0.172961,-0.203711 -1.99258,-1.98596 -0.0901037,0.0892281 -0.0564912,-0.0235401 -0.0376565,0.0941477 0.0753258,0.0298098 -0.264963,0.567201 1.80172,1.79574 z "/>
<path fill="rgb(187,30,16)" stroke="rgb(187,30,16)" d="M 2.20272,1.64312 l 0.221714,1.35047 1.06873,1.06518 -0.000495659,-0.00906245 0.155411,-0.96603 -0.387612,-0.386324 -0.210279,0.636842 -0.416571,-1.26161 -0.4309,-0.429468 z "/>
<path fill="rgb(187,30,16)" stroke="rgb(187,30,16)" d="M 3.49317,4.05877 l 0.345191,0.344044 0.297629,-0.444113 0.0753258,0.0298098 0.0376565,-0.0941477 -0.0564912,-0.0235401 0.0987019,-0.146185 -0.643097,-0.640961 -0.155411,0.96603 0.000495659,0.00906245 z "/>
<path fill="rgb(187,30,16)" stroke="rgb(187,30,16)" d="M 4.02168,4.58552 l 0.264963,-0.567201 -0.0753258,-0.0298098 -0.0753258,-0.0298098 -0.297629,0.444113 0.183317,0.182708 z "/>
<path fill="rgb(187,30,16)" stroke="rgb(187,30,16)" d="M 2.63362,2.07259 l 0.416571,1.26161 0.210279,-0.636842 -0.62685,-0.624767 z "/>
</g></g></svg>
