<?xml version="1.0" encoding="UTF-8" standalone="no"?>
<!DOCTYPE svg PUBLIC "-//W3C//DTD SVG 1.1//EN" "http://www.w3.org/Graphics/SVG/1.1/DTD/svg11-flat.dtd"
[

]>
<svg xmlns="http://www.w3.org/2000/svg"  viewBox="-0.09375 -0.09375 7.6875 7.6875"><g fill="none" stroke="black" stroke-width="0.0125" transform="translate(0,7.5) scale(1, -1)">
<g id="Output" >
<path fill="rgb(0,91,140)" stroke="rgb(0,91,140)" d="M 7.5,6.8 l 0,-6.1 -0.00266371,-0.061009 -0.00797086,-0.0605447 -0.0132173,-0.0596196 -0.0183632,-0.0582408 -0.0233694,-0.0564187 -0.0281977,-0.0541672 -0.0328114,-0.0515035 -0.0371753,-0.0484478 -0.0412564,-0.0450234 -0.0450234,-0.0412564 -0.0484478,-0.0371753 -0.0515035,-0.0328114 -0.0541672,-0.0281977 -0.0564187,-0.0233694 -0.0582408,-0.0183632 -0.0596196,-0.0132173 -0.0605447,-0.00797086 -0.061009,-0.00266371 -3.05,-8.88178e-16 4.44089e-16,0.2 3.05,4.44089e-16 0.0435779,0.00190265 0.0432462,0.00569347 0.0425854,0.00944096 0.0416005,0.0131166 0.0402991,0.0166924 0.0386909,0.0201412 0.0367882,0.0234367 0.0346056,0.0265538 0.0321596,0.0294688 0.0294688,0.0321596 0.0265538,0.0346056 0.0234367,0.0367882 0.0201412,0.0386909 0.0166924,0.0402991 0.0131166,0.0416005 0.00944096,0.0425854 0.00569347,0.0432462 0.00190265,0.0435779 0,6.1 -0.00190265,0.0435779 -0.00569347,0.0432462 -0.00944096,0.0425854 -0.0131166,0.0416005 -0.0166924,0.0402991 -0.0201412,0.0386909 -0.0234367,0.0367882 -0.0265538,0.0346056 -0.0294688,0.0321596 -0.0321596,0.0294688 -0.0346056,0.0265538 -0.0367882,0.0234367 -0.0386909,0.0201412 -0.0402991,0.0166924 -0.0416005,0.0131166 -0.0425854,0.00944096 -0.0432462,0.00569347 -0.0435779,0.00190265 -3.05,0 0,0.2 3.05,0 0.061009,-0.00266371 0.0605447,-0.00797086 0.0596196,-0.0132173 0.0582408,-0.0183632 0.0564187,-0.0233694 0.0541672,-0.0281977 0.0515035,-0.0328114 0.0484478,-0.0371753 0.0450234,-0.0412564 0.0412564,-0.0450234 0.0371753,-0.0484478 0.0328114,-0.0515035 0.0281977,-0.0541672 0.0233694,-0.0564187 0.0183632,-0.0582408 0.0132173,-0.0596196 0.00797086,-0.0605447 0.00266371,-0.061009 z "/>
<path fill="rgb(0,91,140)" stroke="rgb(0,91,140)" d="M 0,6.8 l 0,-6.1 0.00266371,-0.061009 0.00797086,-0.0605447 0.0132173,-0.0596196 0.0183632,-0.0582408 0.0233694,-0.0564187 0.0281977,-0.0541672 0.0328114,-0.0515035 0.0371753,-0.0484478 0.0412564,-0.0450234 0.0450234,-0.0412564 0.0484478,-0.0371753 0.0515035,-0.0328114 0.0541672,-0.0281977 0.0564187,-0.0233694 0.0582408,-0.0183632 0.0596196,-0.0132173 0.0605447,-0.00797086 0.061009,-0.00266371 3.05,-8.88178e-16 4.44089e-16,0.2 -3.05,4.44089e-16 -0.0435779,0.00190265 -0.0432462,0.00569347 -0.0425854,0.00944096 -0.0416005,0.0131166 -0.0402991,0.0166924 -0.0386909,0.0201412 -0.0367882,0.0234367 -0.0346056,0.0265538 -0.0321596,0.0294688 -0.0294688,0.0321596 -0.0265538,0.0346056 -0.0234367,0.0367882 -0.0201412,0.0386909 -0.0166924,0.0402991 -0.0131166,0.0416005 -0.00944096,0.0425854 -0.00569347,0.0432462 -0.00190265,0.0435779 0,6.1 0.00190265,0.0435779 0.00569347,0.0432462 0.00944096,0.0425854 0.0131166,0.0416005 0.0166924,0.0402991 0.0201412,0.0386909 0.0234367,0.0367882 0.0265538,0.0346056 0.0294688,0.0321596 0.0321596,0.0294688 0.0346056,0.0265538 0.0367882,0.0234367 0.0386909,0.0201412 0.0402991,0.0166924 0.0416005,0.0131166 0.0425854,0.00944096 0.0432462,0.00569347 0.0435779,0.00190265 3.05,0 0,0.2 -3.05,0 -0.061009,-0.00266371 -0.0605447,-0.00797086 -0.0596196,-0.0132173 -0.0582408,-0.0183632 -0.0564187,-0.0233694 -0.0541672,-0.0281977 -0.0515035,-0.0328114 -0.0484478,-0.0371753 -0.0450234,-0.0412564 -0.0412564,-0.0450234 -0.0371753,-0.0484478 -0.0328114,-0.0515035 -0.0281977,-0.0541672 -0.0233694,-0.0564187 -0.0183632,-0.0582408 -0.0132173,-0.0596196 -0.00797086,-0.0605447 -0.00266371,-0.061009 z "/>
<path fill="rgb(241,240,234)" stroke="rgb(241,240,234)" d="M 3.95392,3.925 l 1.55044,0 8.88178e-15,-4.44089e-16 0.00039123,4.44089e-16 0,-0.35 -1.55083,-4.44089e-16 0,0.35 z "/>
<path fill="rgb(241,240,234)" stroke="rgb(241,240,234)" d="M 2.05475,3.925 l 1.55083,-4.44089e-16 0,-0.35 -1.55083,0 0,0.175 0,0.175 z "/>
<path fill="rgb(241,240,234)" stroke="rgb(241,240,234)" d="M 3.83781,6.43628 l -0.00374989,0.0049399 -0.00416895,0.00459175 -0.00455583,0.00420817 -0.00490756,0.00379211 -0.00522142,0.0033468 -0.00549499,0.00287566 -0.00572615,0.00238232 -0.00591313,0.00187061 -0.00605448,0.00134446 -0.00614911,0.000807931 -0.00619629,0.000265171 -0.00619565,-0.000279635 -0.00614721,-0.000822283 -0.00605132,-0.00135859 -0.00590875,-0.00188441 -0.00572058,-0.00239568 -0.00548826,-0.00288847 -0.00521359,-0.00335898 -0.0048987,-0.00380356 -0.004546,-0.00421879 -0.00415822,-0.00460147 -0.00373835,-0.00494864 -5.32907e-15,-1.06581e-14 -0.625976,-0.906794 -5.54245e-06,-8.03005e-06 -5.54132e-06,-8.03084e-06 -5.54018e-06,-8.03162e-06 -0.00322969,-0.00515544 -0.00276276,-0.00542002 -0.00227432,-0.00564242 -0.00176819,-0.00582091 -0.00124829,-0.00595409 -0.000718681,-0.00604094 -0.000183477,-0.00608077 0.000353155,-0.00607328 0.000887039,-0.00601852 0.00141402,-0.00591693 0.00192999,-0.00576928 0.00243095,-0.00557673 0.00291298,-0.00534079 0.00337235,-0.00506327 0.00380547,-0.00474635 0.00420897,-0.0043925 0.00457972,-0.00400445 0.00491482,-0.00358525 0.00521168,-0.00313814 0.00546797,-0.0026666 0.00568171,-0.00217432 0.00585123,-0.00166511 0.00597521,-0.00114294 0.00605269,-0.00061188 0.00608306,-7.60558e-05 0.0060661,0.00046036 0.00600192,0.000993193 0.00589103,0.0015183 0.433063,0.101988 0,-1.60121 0,-0.35 0,-2.325 0.348339,0 0,2.325 0,0.35 0,1.60121 0.43464,-0.101988 1.42109e-14,0 0.00602029,-0.00114005 0.00609636,-0.000614745 0.00612669,-8.4822e-05 0.00611105,0.000445737 0.00604954,0.000972951 0.00594264,0.00149286 0.00579114,0.00200157 0.00559618,0.00249526 0.00535923,0.00297023 0.00508206,0.0034229 0.00476675,0.00384989 0.00441567,0.00424799 0.00403146,0.00461421 0.00361699,0.0049458 0.00317538,0.00524028 0.00270994,0.00549543 0.00222416,0.00570935 0.0017217,0.00588042 0.00120631,0.00600736 0.00068187,0.00608922 0.000152314,0.00612539 -0.000378385,0.00611559 -0.000906245,0.00605989 -0.0014273,0.00595872 -0.00193765,0.00581284 -0.00243346,0.00562333 -0.00291101,0.00539162 -0.627634,0.90693 z "/>
<path fill="rgb(241,240,234)" stroke="rgb(241,240,234)" d="M 5.50475,3.925 l -0.00039123,-4.44089e-16 -0.101597,0.431401 -0.00151851,0.00589205 -0.000993227,0.00600297 -0.000460209,0.00606716 7.63917e-05,0.00608411 0.000612398,0.00605369 0.00114364,0.00597614 0.00166597,0.00585207 0.00217534,0.00568244 0.00266777,0.00546856 0.00313942,0.00521212 0.00358664,0.0049151 0.00400594,0.00457981 0.00439405,0.00420886 0.00474795,0.00380515 0.00506488,0.00337181 0.00534239,0.00291223 0.0055783,0.00242997 0.00577078,0.00192879 0.00591834,0.0014126 0.00601982,0.000885411 0.00607443,0.000351328 0.00608176,-0.00018549 0.00604173,-0.000720865 0.00595467,-0.00125063 0.00582125,-0.00177065 0.00564251,-0.00227689 0.00541984,-0.00276541 0.00515498,-0.00323239 0.906794,-0.625976 0.00013563,-9.36278e-05 0.00493413,-0.00374511 0.00458687,-0.00416319 0.0042043,-0.00454922 0.00378936,-0.00490023 0.00334525,-0.00521352 0.00287539,-0.00548668 0.00238339,-0.0057176 0.00187305,-0.00590451 0.00134829,-0.00604596 0.000813147,-0.00614087 0.000271746,-0.00618851 -0.000271746,-0.00618851 -0.000813147,-0.00614087 -0.00134829,-0.00604596 -0.00187305,-0.00590451 -0.00238339,-0.0057176 -0.00287539,-0.00548668 -0.00334525,-0.00521352 -0.00378936,-0.00490023 -0.0042043,-0.00454922 -0.00458687,-0.00416319 -0.00493413,-0.00374511 -0.90693,-0.627634 -0.00539162,-0.00291101 -0.00562333,-0.00243346 -0.00581284,-0.00193765 -0.00595872,-0.0014273 -0.00605989,-0.000906245 -0.00611559,-0.000378385 -0.00612539,0.000152314 -0.00608922,0.00068187 -0.00600736,0.00120631 -0.00588042,0.0017217 -0.00570935,0.00222416 -0.00549543,0.00270994 -0.00524028,0.00317538 -0.0049458,0.00361699 -0.00461421,0.00403146 -0.00424799,0.00441567 -0.00384989,0.00476675 -0.0034229,0.00508206 -0.00297023,0.00535923 -0.00249526,0.00559618 -0.00200157,0.00579114 -0.00149286,0.00594264 -0.000972951,0.00604954 -0.000445737,0.00611105 8.4822e-05,0.00612669 0.000614745,0.00609636 0.00114005,0.00602029 0.101988,0.43464 0,0.35 z "/>
<path fill="rgb(241,240,234)" stroke="rgb(241,240,234)" d="M 5.50436,3.925 l -0.101597,0.431401 0.101597,-0.431401 -8.88178e-15,4.44089e-16 z "/>
<path fill="rgb(241,240,234)" stroke="rgb(241,240,234)" d="M 2.05475,4.8 l 0,-0.875 0,-0.175 -0.1,0 0,0.95 -0.8,0 0,-0.95 -0.1,0 0,1.05 1,0 z "/>
<path fill="rgb(241,240,234)" stroke="rgb(241,240,234)" d="M 1.05475,3.75 l 0.1,0 0,-0.95 0.8,8.88178e-16 0,0.95 0.1,0 0,-0.175 0,-0.875 -1,0 0,1.05 z "/>
<path fill="rgb(241,240,234)" stroke="rgb(241,240,234)" d="M 7.1,6.8 l -0.00114159,0.0261467 -0.00341608,0.0259477 -0.00566458,0.0255513 -0.00786996,0.0249603 -0.0100155,0.0241794 -0.0120847,0.0232145 -0.014062,0.0220729 -0.0159323,0.0207634 -0.0176813,0.0192958 -0.0192958,0.0176813 -0.0207634,0.0159323 -0.0220729,0.014062 -0.0232145,0.0120847 -0.0241794,0.0100155 -0.0249603,0.00786996 -0.0255513,0.00566458 -0.0259477,0.00341608 -0.0261467,0.00114159 -3.05,-8.88178e-16 0,0.2 3.05,0 0.0435779,-0.00190265 0.0432462,-0.00569347 0.0425854,-0.00944096 0.0416005,-0.0131166 0.0402991,-0.0166924 0.0386909,-0.0201412 0.0367882,-0.0234367 0.0346056,-0.0265538 0.0321596,-0.0294688 0.0294688,-0.0321596 0.0265538,-0.0346056 0.0234367,-0.0367882 0.0201412,-0.0386909 0.0166924,-0.0402991 0.0131166,-0.0416005 0.00944096,-0.0425854 0.00569347,-0.0432462 0.00190265,-0.0435779 0,-6.1 -0.00190265,-0.0435779 -0.00569347,-0.0432462 -0.00944096,-0.0425854 -0.0131166,-0.0416005 -0.0166924,-0.0402991 -0.0201412,-0.0386909 -0.0234367,-0.0367882 -0.0265538,-0.0346056 -0.0294688,-0.0321596 -0.0321596,-0.0294688 -0.0346056,-0.0265538 -0.0367882,-0.0234367 -0.0386909,-0.0201412 -0.0402991,-0.0166924 -0.0416005,-0.0131166 -0.0425854,-0.00944096 -0.0432462,-0.00569347 -0.0435779,-0.00190265 -3.05,-4.44089e-16 -4.44089e-16,0.2 3.05,8.88178e-16 0.0261467,0.00114159 0.0259477,0.00341608 0.0255513,0.00566458 0.0249603,0.00786996 0.0241794,0.0100155 0.0232145,0.0120847 0.0220729,0.014062 0.0207634,0.0159323 0.0192958,0.0176813 0.0176813,0.0192958 0.0159323,0.0207634 0.014062,0.0220729 0.0120847,0.0232145 0.0100155,0.0241794 0.00786996,0.0249603 0.00566458,0.0255513 0.00341608,0.0259477 0.00114159,0.0261467 0,6.1 z "/>
<path fill="rgb(241,240,234)" stroke="rgb(241,240,234)" d="M 0.7,0.4 l -0.0261467,0.00114159 -0.0259477,0.00341608 -0.0255513,0.00566458 -0.0249603,0.00786996 -0.0241794,0.0100155 -0.0232145,0.0120847 -0.0220729,0.014062 -0.0207634,0.0159323 -0.0192958,0.0176813 -0.0176813,0.0192958 -0.0159323,0.0207634 -0.014062,0.0220729 -0.0120847,0.0232145 -0.0100155,0.0241794 -0.00786996,0.0249603 -0.00566458,0.0255513 -0.00341608,0.0259477 -0.00114159,0.0261467 0,6.1 0.00114159,0.0261467 0.00341608,0.0259477 0.00566458,0.0255513 0.00786996,0.0249603 0.0100155,0.0241794 0.0120847,0.0232145 0.014062,0.0220729 0.0159323,0.0207634 0.0176813,0.0192958 0.0192958,0.0176813 0.0207634,0.0159323 0.0220729,0.014062 0.0232145,0.0120847 0.0241794,0.0100155 0.0249603,0.00786996 0.0255513,0.00566458 0.0259477,0.00341608 0.0261467,0.00114159 3.05,0 0,0.2 -3.05,0 -0.0435779,-0.00190265 -0.0432462,-0.00569347 -0.0425854,-0.00944096 -0.0416005,-0.0131166 -0.0402991,-0.0166924 -0.0386909,-0.0201412 -0.0367882,-0.0234367 -0.0346056,-0.0265538 -0.0321596,-0.0294688 -0.0294688,-0.0321596 -0.0265538,-0.0346056 -0.0234367,-0.0367882 -0.0201412,-0.0386909 -0.0166924,-0.0402991 -0.0131166,-0.0416005 -0.00944096,-0.0425854 -0.00569347,-0.0432462 -0.00190265,-0.0435779 0,-6.1 0.00190265,-0.0435779 0.00569347,-0.0432462 0.00944096,-0.0425854 0.0131166,-0.0416005 0.0166924,-0.0402991 0.0201412,-0.0386909 0.0234367,-0.0367882 0.0265538,-0.0346056 0.0294688,-0.0321596 0.0321596,-0.0294688 0.0346056,-0.0265538 0.0367882,-0.0234367 0.0386909,-0.0201412 0.0402991,-0.0166924 0.0416005,-0.0131166 0.0425854,-0.00944096 0.0432462,-0.00569347 0.0435779,-0.00190265 3.05,-4.44089e-16 -4.44089e-16,0.2 -3.05,0 z "/>
<path fill="rgb(0,91,140)" stroke="rgb(0,91,140)" d="M 1.4,1.4 l 1,0 0,1 -1,0 0,-1 z "/>
<path fill="rgb(0,91,140)" stroke="rgb(0,91,140)" d="M 1.4,0.4 l 1,0 0,1 -1,0 0,-1 z "/>
<path fill="rgb(0,91,140)" stroke="rgb(0,91,140)" d="M 0.4,6.8 l 0,-0.4 1,0 0,0.7 -0.7,0 -0.0261467,-0.00114159 -0.0259477,-0.00341608 -0.0255513,-0.00566458 -0.0249603,-0.00786996 -0.0241794,-0.0100155 -0.0232145,-0.0120847 -0.0220729,-0.014062 -0.0207634,-0.0159323 -0.0192958,-0.0176813 -0.0176813,-0.0192958 -0.0159323,-0.0207634 -0.014062,-0.0220729 -0.0120847,-0.0232145 -0.0100155,-0.0241794 -0.00786996,-0.0249603 -0.00566458,-0.0255513 -0.00341608,-0.0259477 -0.00114159,-0.0261467 z "/>
<path fill="rgb(0,91,140)" stroke="rgb(0,91,140)" d="M 0.4,5.4 l 1,0 0,1 -1,0 0,-1 z "/>
<path fill="rgb(0,91,140)" stroke="rgb(0,91,140)" d="M 1.4,2.7 l -0.345248,0 0,0.7 -0.654752,0 0,-1 1,0 0,0.3 z "/>
<path fill="rgb(0,91,140)" stroke="rgb(0,91,140)" d="M 1.05475,4.4 l 0,0.4 0.345248,0 0,0.6 -1,0 0,-1 0.654752,0 z "/>
<path fill="rgb(0,91,140)" stroke="rgb(0,91,140)" d="M 6.4,6.4 l 0.7,0 0,0.4 -0.00114159,0.0261467 -0.00341608,0.0259477 -0.00566458,0.0255513 -0.00786996,0.0249603 -0.0100155,0.0241794 -0.0120847,0.0232145 -0.014062,0.0220729 -0.0159323,0.0207634 -0.0176813,0.0192958 -0.0192958,0.0176813 -0.0207634,0.0159323 -0.0220729,0.014062 -0.0232145,0.0120847 -0.0241794,0.0100155 -0.0249603,0.00786996 -0.0255513,0.00566458 -0.0259477,0.00341608 -0.0261467,0.00114159 -0.4,0 0,-0.7 z "/>
<path fill="rgb(0,91,140)" stroke="rgb(0,91,140)" d="M 7.1,5.4 l 0,1 -0.7,0 0,-1 0.7,0 z "/>
<path fill="rgb(0,91,140)" stroke="rgb(0,91,140)" d="M 7.1,4.4 l 0,1 -0.7,0 0,-1 0.7,0 z "/>
<path fill="rgb(0,91,140)" stroke="rgb(0,91,140)" d="M 7.1,3.4 l 0,1 -0.7,0 0,-0.582546 0.0146873,-0.0101389 4.52343e-05,-3.11741e-05 4.521e-05,-3.12093e-05 4.51857e-05,-3.12444e-05 0.00493413,-0.00374511 0.00458687,-0.00416319 0.0042043,-0.00454922 0.00378936,-0.00490023 0.00334525,-0.00521352 0.00287539,-0.00548668 0.00238339,-0.0057176 0.00187305,-0.00590451 0.00134829,-0.00604596 0.000813147,-0.00614087 0.000271746,-0.00618851 -0.000271746,-0.00618851 -0.000813147,-0.00614087 -0.00134829,-0.00604596 -0.00187305,-0.00590451 -0.00238339,-0.0057176 -0.00287539,-0.00548668 -0.00334525,-0.00521352 -0.00378936,-0.00490023 -0.0042043,-0.00454922 -0.00458687,-0.00416319 -0.00493413,-0.00374511 -0.014823,-0.0102581 0,-0.280853 0.7,0 z "/>
<path fill="rgb(0,91,140)" stroke="rgb(0,91,140)" d="M 7.1,2.4 l 0,1 -0.7,0 0,-1 0.7,0 z "/>
<path fill="rgb(0,91,140)" stroke="rgb(0,91,140)" d="M 7.1,1.4 l 0,1 -0.7,0 0,-1 0.7,0 z "/>
<path fill="rgb(0,91,140)" stroke="rgb(0,91,140)" d="M 1.05475,3.4 l 0,0.35 0,0.65 -0.654752,0 0,-1 0.654752,0 z "/>
<path fill="rgb(0,91,140)" stroke="rgb(0,91,140)" d="M 1.4,0.4 l 0,1 -1,0 0,-0.7 0.00114159,-0.0261467 0.00341608,-0.0259477 0.00566458,-0.0255513 0.00786996,-0.0249603 0.0100155,-0.0241794 0.0120847,-0.0232145 0.014062,-0.0220729 0.0159323,-0.0207634 0.0176813,-0.0192958 0.0192958,-0.0176813 0.0207634,-0.0159323 0.0220729,-0.014062 0.0232145,-0.0120847 0.0241794,-0.0100155 0.0249603,-0.00786996 0.0255513,-0.00566458 0.0259477,-0.00341608 0.0261467,-0.00114159 0.7,0 z "/>
<path fill="rgb(0,91,140)" stroke="rgb(0,91,140)" d="M 6.4,1.4 l 0,-1 0.4,8.88178e-16 0.0261467,0.00114159 0.0259477,0.00341608 0.0255513,0.00566458 0.0249603,0.00786996 0.0241794,0.0100155 0.0232145,0.0120847 0.0220729,0.014062 0.0207634,0.0159323 0.0192958,0.0176813 0.0176813,0.0192958 0.0159323,0.0207634 0.014062,0.0220729 0.0120847,0.0232145 0.0100155,0.0241794 0.00786996,0.0249603 0.00566458,0.0255513 0.00341608,0.0259477 0.00114159,0.0261467 0,0.7 -0.7,0 z "/>
<path fill="rgb(0,91,140)" stroke="rgb(0,91,140)" d="M 5.4,7.1 l 0,-0.7 1,0 0,0.7 -1,-8.88178e-16 z "/>
<path fill="rgb(0,91,140)" stroke="rgb(0,91,140)" d="M 5.4,5.4 l 1,0 0,1 -1,0 0,-1 z "/>
<path fill="rgb(0,91,140)" stroke="rgb(0,91,140)" d="M 5.40393,4.4 l 0.0015359,0.0040121 0.00266777,0.00546856 0.00313942,0.00521212 0.00358664,0.0049151 0.00400594,0.00457981 0.00439405,0.00420886 0.00474795,0.00380515 0.00506488,0.00337181 0.00534239,0.00291223 0.0055783,0.00242997 0.00577078,0.00192879 0.00591834,0.0014126 0.00601982,0.000885411 0.00607443,0.000351328 0.00608176,-0.00018549 0.00604173,-0.000720865 0.00595467,-0.00125063 0.00582125,-0.00177065 0.00564251,-0.00227689 0.00541984,-0.00276541 0.00515498,-0.00323239 0.0482263,-0.0332915 0.84388,0 0,1 -1,0 0,-1 0.00393001,0 z "/>
<path fill="rgb(0,91,140)" stroke="rgb(0,91,140)" d="M 5.4,3.925 l 0.104361,0 -0.101597,0.431401 -0.00151851,0.00589205 -0.000993227,0.00600297 -0.000252389,0.00332736 0,-0.446624 z M 5.46369,3.4 l 0.0410637,0.175 -0.104752,0 0,-0.175 0.0636885,0 z M 6.4,3.68085 l -0.405831,-0.280853 0.405831,0 0,0.280853 z M 5.55612,4.4 l 0.84388,-0.582546 0,0.582546 -0.84388,0 z M 5.4,4.38175 l 0.000480969,0.00475449 0.00114364,0.00597614 0.00166597,0.00585207 0.000639434,0.00167034 -0.00393001,0 0,-0.018253 z "/>
<path fill="rgb(0,91,140)" stroke="rgb(0,91,140)" d="M 5.46369,3.4 l -0.0636885,0 0,-1 1,0 0,1 -0.405831,0 -0.486275,-0.336523 -0.00539162,-0.00291101 -0.00562333,-0.00243346 -0.00581284,-0.00193765 -0.00595872,-0.0014273 -0.00605989,-0.000906245 -0.00611559,-0.000378385 -0.00612539,0.000152314 -0.00608922,0.00068187 -0.00600736,0.00120631 -0.00588042,0.0017217 -0.00570935,0.00222416 -0.00549543,0.00270994 -0.00524028,0.00317538 -0.0049458,0.00361699 -0.00461421,0.00403146 -0.00424799,0.00441567 -0.00384989,0.00476675 -0.0034229,0.00508206 -0.00297023,0.00535923 -0.00249526,0.00559618 -0.00200157,0.00579114 -0.00149286,0.00594264 -0.000972951,0.00604954 -0.000445737,0.00611105 8.4822e-05,0.00612669 0.000614745,0.00609636 0.00114005,0.00602029 0.0609243,0.25964 z "/>
<path fill="rgb(0,91,140)" stroke="rgb(0,91,140)" d="M 4.4,4.4 l 1,0 0,1 -1,0 0,-1 z "/>
<path fill="rgb(0,91,140)" stroke="rgb(0,91,140)" d="M 5.4,1.4 l 1,0 0,1 -1,0 0,-1 z "/>
<path fill="rgb(0,91,140)" stroke="rgb(0,91,140)" d="M 0.4,1.4 l 1,0 0,1 -1,0 0,-1 z "/>
<path fill="rgb(0,91,140)" stroke="rgb(0,91,140)" d="M 5.4,0.4 l 1,0 0,1 -1,0 0,-1 z "/>
<path fill="rgb(0,91,140)" stroke="rgb(0,91,140)" d="M 4.4,7.1 l 0,-0.7 1,0 0,0.7 -1,0 z "/>
<path fill="rgb(0,91,140)" stroke="rgb(0,91,140)" d="M 4.4,5.62392 l 0.0654449,-0.0945677 0.00291101,-0.00539162 0.00243346,-0.00562333 0.00193765,-0.00581284 0.0014273,-0.00595872 0.000906245,-0.00605989 0.000378385,-0.00611559 -0.000152314,-0.00612539 -0.00068187,-0.00608922 -0.00120631,-0.00600736 -0.0017217,-0.00588042 -0.00222416,-0.00570935 -0.00270994,-0.00549543 -0.00317538,-0.00524028 -0.00361699,-0.0049458 -0.00403146,-0.00461421 -0.00441567,-0.00424799 -0.00476675,-0.00384989 -0.00508206,-0.0034229 -0.00535923,-0.00297023 -0.00559618,-0.00249526 -0.00579114,-0.00200157 -0.00594264,-0.00149286 -0.00604954,-0.000972951 -0.00611105,-0.000445737 -0.00612669,8.4822e-05 -0.000677883,6.83563e-05 0,-0.0225346 1,0 0,1 -1,0 0,-0.776082 z "/>
<path fill="rgb(0,91,140)" stroke="rgb(0,91,140)" d="M 5.4,3.575 l -1,-4.44089e-16 0,-0.175 1,0 0,0.175 z M 4.4,3.925 l 1,0 0,0.446624 -0.00020782,0.00273979 7.63917e-05,0.00608411 0.000131429,0.0012992 0,0.018253 -1,0 0,-0.475 z "/>
<path fill="rgb(0,91,140)" stroke="rgb(0,91,140)" d="M 4.4,2.4 l 1,0 0,1 -1,0 0,-1 z "/>
<path fill="rgb(0,91,140)" stroke="rgb(0,91,140)" d="M 4.4,1.4 l 1,0 0,1 -1,0 0,-1 z "/>
<path fill="rgb(0,91,140)" stroke="rgb(0,91,140)" d="M 4.4,0.4 l 1,0 0,1 -1,0 0,-1 z "/>
<path fill="rgb(0,91,140)" stroke="rgb(0,91,140)" d="M 3.4,7.1 l 0,-0.7 0.296655,0 0.024951,0.0361442 5.32907e-15,1.06581e-14 0.00373835,0.00494864 0.00415822,0.00460147 0.004546,0.00421879 0.0048987,0.00380356 0.00521359,0.00335898 0.00548826,0.00288847 0.00572058,0.00239568 0.00590875,0.00188441 0.00605132,0.00135859 0.00614721,0.000822283 0.00619565,0.000279635 0.00619629,-0.000265171 0.00614911,-0.000807931 0.00605448,-0.00134446 0.00591313,-0.00187061 0.00572615,-0.00238232 0.00549499,-0.00287566 0.00522142,-0.0033468 0.00490756,-0.00379211 0.00455583,-0.00420817 0.00416895,-0.00459175 0.00374989,-0.0049399 0.0251072,-0.0362799 0.537082,0 0,0.7 -0.65,0 -0.35,0 z "/>
<path fill="rgb(0,91,140)" stroke="rgb(0,91,140)" d="M 3.4,5.4 l 0.205583,0 0,0.126209 -0.205583,-0.0484156 0,-0.0777935 z M 4.4,5.42253 l -0.00541848,0.000546388 -0.00602029,0.00114005 -1.42109e-14,0 -0.43464,0.101988 0,-0.126209 0.446078,0 0,0.0225346 z M 3.86292,6.4 l 0.537082,-0.776082 0,0.776082 -0.537082,0 z M 3.4,5.97026 l 0.296655,0.429737 -0.296655,0 0,-0.429737 z "/>
<path fill="rgb(0,91,140)" stroke="rgb(0,91,140)" d="M 3.60558,4.4 l 0,1 -0.205583,0 0,-1 0.205583,0 z M 3.95392,4.4 l 0.446078,0 0,1 -0.446078,0 0,-1 z "/>
<path fill="rgb(0,91,140)" stroke="rgb(0,91,140)" d="M 3.4,4.4 l 0,-0.475 0.205583,0 0,0.475 -0.205583,0 z M 3.4,3.4 l 0.205583,0 0,0.175 -0.205583,0 0,-0.175 z M 4.4,3.575 l -0.446078,0 0,-0.175 0.446078,0 0,0.175 z M 4.4,3.925 l 0,0.475 -0.446078,0 0,-0.475 0.446078,0 z "/>
<path fill="rgb(0,91,140)" stroke="rgb(0,91,140)" d="M 3.60558,2.4 l 0,1 -0.205583,0 0,-1 0.205583,0 z M 3.95392,2.4 l 0.446078,0 0,1 -0.446078,0 0,-1 z "/>
<path fill="rgb(0,91,140)" stroke="rgb(0,91,140)" d="M 3.60558,1.4 l 0,1 -0.205583,0 0,-1 0.205583,0 z M 3.95392,1.4 l 0.446078,0 0,1 -0.446078,0 0,-1 z "/>
<path fill="rgb(0,91,140)" stroke="rgb(0,91,140)" d="M 4.4,0.4 l 0,1 -0.446078,0 0,-0.15 -0.348339,0 0,0.15 -0.205583,0 0,-1 0.35,0 0.65,0 z "/>
<path fill="rgb(0,91,140)" stroke="rgb(0,91,140)" d="M 2.4,7.1 l 0,-0.7 1,0 0,0.7 -1,0 z "/>
<path fill="rgb(0,91,140)" stroke="rgb(0,91,140)" d="M 3.4,5.4 l 0,0.0777935 -0.22748,-0.0535724 -0.00589103,-0.0015183 -0.00600192,-0.000993193 -0.0060661,-0.00046036 -0.00608306,7.60558e-05 -0.00605269,0.00061188 -0.00597521,0.00114294 -0.00585123,0.00166511 -0.00568171,0.00217432 -0.00546797,0.0026666 -0.00521168,0.00313814 -0.00491482,0.00358525 -0.00457972,0.00400445 -0.00420897,0.0043925 -0.00380547,0.00474635 -0.00337235,0.00506327 -0.00291298,0.00534079 -0.00243095,0.00557673 -0.00192999,0.00576928 -0.00141402,0.00591693 -0.000887039,0.00601852 -0.000353155,0.00607328 0.000183477,0.00608077 0.000718681,0.00604094 0.00124829,0.00595409 0.00176819,0.00582091 0.00227432,0.00564242 0.00276276,0.00542002 0.00322969,0.00515544 5.54018e-06,8.03162e-06 5.54132e-06,8.03084e-06 5.54245e-06,8.03005e-06 0.30437,0.440913 0,0.429737 -1,0 0,-1 1,0 z "/>
<path fill="rgb(0,91,140)" stroke="rgb(0,91,140)" d="M 2.4,4.4 l 1,0 0,1 -1,0 0,-1 z "/>
<path fill="rgb(0,91,140)" stroke="rgb(0,91,140)" d="M 3.4,3.575 l -1,0 0,-0.175 1,0 0,0.175 z M 2.4,3.925 l 1,-4.44089e-16 0,0.475 -1,0 0,-0.475 z "/>
<path fill="rgb(0,91,140)" stroke="rgb(0,91,140)" d="M 2.4,2.4 l 1,0 0,1 -1,0 0,-1 z "/>
<path fill="rgb(0,91,140)" stroke="rgb(0,91,140)" d="M 2.4,1.4 l 1,0 0,1 -1,0 0,-1 z "/>
<path fill="rgb(0,91,140)" stroke="rgb(0,91,140)" d="M 2.4,0.4 l 1,0 0,1 -1,0 0,-1 z "/>
<path fill="rgb(0,91,140)" stroke="rgb(0,91,140)" d="M 1.4,7.1 l 0,-0.7 1,0 0,0.7 -1,0 z "/>
<path fill="rgb(0,91,140)" stroke="rgb(0,91,140)" d="M 1.4,5.4 l 1,0 0,1 -1,0 0,-1 z "/>
<path fill="rgb(0,91,140)" stroke="rgb(0,91,140)" d="M 1.4,4.8 l 0.654752,0 0,-0.4 0.345248,0 0,1 -1,0 0,-0.6 z "/>
<path fill="rgb(0,91,140)" stroke="rgb(0,91,140)" d="M 2.4,3.575 l -0.345248,0 0,-0.175 0.345248,0 0,0.175 z M 2.4,3.925 l 0,0.475 -0.345248,0 0,-0.475 0.345248,0 z "/>
<path fill="rgb(0,91,140)" stroke="rgb(0,91,140)" d="M 1.4,2.7 l 0,-0.3 1,0 0,1 -0.345248,0 0,-0.7 -0.654752,0 z "/>
<path fill="rgb(187,30,16)" stroke="rgb(187,30,16)" d="M 1.95475,4.7 l 0,-0.95 0,-0.95 -0.8,-8.88178e-16 0,0.95 0,0.95 0.8,0 z "/>
</g></g></svg>
