<?xml version="1.0" encoding="UTF-8" standalone="no"?>
<!DOCTYPE svg PUBLIC "-//W3C//DTD SVG 1.1//EN" "http://www.w3.org/Graphics/SVG/1.1/DTD/svg11-flat.dtd"
[

]>
<svg xmlns="http://www.w3.org/2000/svg"  viewBox="-0.09375 -0.09375 7.6875 7.6875"><g fill="none" stroke="black" stroke-width="0.0125" transform="translate(0,7.5) scale(1, -1)">
<g id="Output" >
<path fill="rgb(241,240,234)" stroke="rgb(241,240,234)" d="M 3.55473,6.3928 l 0.0352559,-0.340956 0.0303449,0.00179208 0.0303849,-0.000884691 0.0301893,-0.0035546 0.0297594,-0.00619695 0.0290988,-0.00879123 0.0282125,-0.0113173 0.0271074,-0.0137556 0.025792,-0.0160873 0.0242766,-0.0182941 0.0225729,-0.0203591 0.0206941,-0.0222662 0.0186548,-0.0240005 0.0164708,-0.0255488 0.0141591,-0.0268988 0.0117376,-0.0280403 0.00922498,-0.0289642 0.00664086,-0.0296635 0.00400523,-0.0301328 0.00133854,-0.0303683 -0.00126108,-0.0294782 -0.00377402,-0.0292628 -0.00625938,-0.0288336 -0.008699,-0.0281936 -0.0110751,-0.0273477 -0.0133702,-0.0263019 -0.0155676,-0.025064 -0.0176513,-0.0236429 -0.019606,-0.022049 -0.0214174,-0.020294 -0.0230724,-0.0183908 -0.0245587,-0.0163531 -0.0258656,-0.0141959 -0.0269835,-0.0119351 -0.0279042,-0.00958696 -0.028621,-0.00716881 -0.0291287,-0.00469828 -0.0294235,-0.00219342 0.00211508,-0.0667946 0.0361444,0.000514864 0.0360448,-0.00273042 0.0356544,-0.00595367 0.0349764,-0.0091289 0.0340162,-0.0122305 0.0327815,-0.0152334 0.0312824,-0.0181134 0.0295309,-0.0208473 0.0275412,-0.0234129 0.0253293,-0.0257898 0.547296,-0.609759 0.0392882,-0.714808 -0.16707,0.00101655 -0.132572,0.642317 -0.161926,0.122594 0.00138588,-0.715965 0.215922,-1.02628 0.489515,-1.09698 -0.162113,-0.156139 -0.64887,1.02096 -0.261951,0.705432 -0.788784,-1.7264 -0.217295,0 -0.188793,-0.210101 0.205075,-0.0959078 0.212512,-0.078054 0.218399,-0.0596305 0.222692,-0.0407717 0.225359,-0.0216155 0.226382,-0.00230142 0.225752,0.0170294 0.223474,0.036236 0.219566,0.055178 0.214055,0.0737174 0.206982,0.0917187 0.198398,0.109051 0.188366,0.125587 0.17696,0.141206 0.164262,0.155795 0.150364,0.169247 0.13537,0.181463 0.119387,0.192355 0.102534,0.201843 0.0849314,0.209858 0.0667093,0.216342 0.0480003,0.221246 0.0289411,0.224536 0.00967055,0.226187 -0.00992047,0.229085 -0.0296871,0.22737 -0.0492315,0.223953 -0.0684073,0.218858 -0.0870709,0.212125 -0.105083,0.203804 -0.122308,0.193957 -0.138617,0.182658 -0.153888,0.169991 -0.168007,0.156051 -0.180869,0.140943 -0.192376,0.12478 -0.202442,0.107683 -0.210993,0.089779 -0.217965,0.0712031 -0.223304,0.0520941 -0.226971,0.0325951 -0.22894,0.012852 -0.229194,-0.00698731 z "/>
<path fill="rgb(241,240,234)" stroke="rgb(241,240,234)" d="M 3.28032,5.70851 l 0.00128569,0.0297639 0.00384749,0.0295422 0.00638063,0.0291004 0.00886624,0.0284418 0.0112858,0.0275713 0.0136213,0.0264954 0.0158553,0.0252221 0.0179712,0.023761 0.0199532,0.0221228 0.0217865,0.0203198 0.0234576,0.0183654 0.0249539,0.0162742 0.0262643,0.0140618 0.027379,0.0117446 0.0282898,0.0093399 0.0289898,0.00686564 0.0294738,0.00434023 -0.0352559,0.340956 -0.231671,-0.0274143 -0.228362,-0.0476829 -0.223283,-0.067582 -0.216475,-0.0869574 -0.207988,-0.105659 -0.19789,-0.123541 -0.186258,-0.140467 -0.173182,-0.156303 -0.158765,-0.170929 -0.143117,-0.184229 -0.12636,-0.196102 -0.108623,-0.206455 -0.0900454,-0.215208 -0.0707694,-0.222294 -0.050945,-0.227656 -0.0307258,-0.231255 -0.0102685,-0.233061 0.010937,-0.240513 0.0327206,-0.238527 0.0542342,-0.234573 0.0753001,-0.228683 0.0957445,-0.220905 0.115399,-0.211303 0.1341,-0.199958 0.151695,-0.186962 0.168037,-0.172422 0.182993,-0.15646 0.196438,-0.139206 0.208261,-0.120803 0.188793,0.210101 0.666759,2.29195 -0.11907,0.732235 -0.791764,-0.62805 -0.130963,0.104172 1.01797,1.04776 0.0245341,0.0260093 0.0267457,0.0237292 0.0287462,0.0212617 0.0305198,0.0186264 0.0320526,0.0158441 0.0333323,0.0129368 0.034349,0.00992734 0.0350945,0.00683953 0.0355631,0.00369773 -0.00211508,0.0667946 -0.0307155,0.000394952 -0.0305587,0.00312422 -0.0301599,0.00582875 -0.0295223,0.00848711 -0.0286508,0.0110783 -0.0275524,0.0135817 -0.0262358,0.0159775 -0.0247114,0.0182468 -0.0229912,0.0203715 -0.021089,0.022335 -0.0190197,0.0241215 -0.0167998,0.025717 -0.0144469,0.0271087 -0.0119795,0.0282858 -0.00941723,0.0292389 -0.00678038,0.0299603 -0.00408983,0.0304445 -0.00136688,0.0306876 z "/>
<path fill="rgb(241,240,234)" stroke="rgb(241,240,234)" d="M 0.2,3.75 l 0.0135088,-0.309403 0.0404237,-0.307048 0.0670308,-0.302357 0.0931279,-0.295364 0.118516,-0.286123 0.143002,-0.274705 0.1664,-0.261196 0.188532,-0.2457 0.209229,-0.228333 0.228333,-0.209229 0.2457,-0.188532 0.261196,-0.1664 0.274705,-0.143002 0.286123,-0.118516 0.295364,-0.0931279 0.302357,-0.0670308 0.307048,-0.0404237 0.309403,-0.0135088 0.309403,0.0135088 0.307048,0.0404237 0.302357,0.0670308 0.295364,0.0931279 0.286123,0.118516 0.274705,0.143002 0.261196,0.1664 0.2457,0.188532 0.228333,0.209229 0.209229,0.228333 0.188532,0.2457 0.1664,0.261196 0.143002,0.274705 0.118516,0.286123 0.0931279,0.295364 0.0670308,0.302357 0.0404237,0.307048 0.0135088,0.309403 -0.2,0 -0.0127478,-0.291972 -0.0381463,-0.28975 -0.0632545,-0.285322 -0.0878812,-0.278724 -0.111839,-0.270004 -0.134946,-0.259229 -0.157026,-0.246481 -0.17791,-0.231857 -0.197441,-0.215469 -0.215469,-0.197441 -0.231857,-0.17791 -0.246481,-0.157026 -0.259229,-0.134946 -0.270004,-0.111839 -0.278724,-0.0878812 -0.285322,-0.0632545 -0.28975,-0.0381463 -0.291972,-0.0127478 -0.291972,0.0127478 -0.28975,0.0381463 -0.285322,0.0632545 -0.278724,0.0878812 -0.270004,0.111839 -0.259229,0.134946 -0.246481,0.157026 -0.231857,0.17791 -0.215469,0.197441 -0.197441,0.215469 -0.17791,0.231857 -0.157026,0.246481 -0.134946,0.259229 -0.111839,0.270004 -0.0878812,0.278724 -0.0632545,0.285322 -0.0381463,0.28975 -0.0127478,0.291972 -0.2,0 z "/>
<path fill="rgb(241,240,234)" stroke="rgb(241,240,234)" d="M 0.2,3.75 l 0.2,0 0.0127478,0.291972 0.0381463,0.28975 0.0632545,0.285322 0.0878812,0.278724 0.111839,0.270004 0.134946,0.259229 0.157026,0.246481 0.17791,0.231857 0.197441,0.215469 0.215469,0.197441 0.231857,0.17791 0.246481,0.157026 0.259229,0.134946 0.270004,0.111839 0.278724,0.0878812 0.285322,0.0632545 0.28975,0.0381463 0.291972,0.0127478 0.291972,-0.0127478 0.28975,-0.0381463 0.285322,-0.0632545 0.278724,-0.0878812 0.270004,-0.111839 0.259229,-0.134946 0.246481,-0.157026 0.231857,-0.17791 0.215469,-0.197441 0.197441,-0.215469 0.17791,-0.231857 0.157026,-0.246481 0.134946,-0.259229 0.111839,-0.270004 0.0878812,-0.278724 0.0632545,-0.285322 0.0381463,-0.28975 0.0127478,-0.291972 0.2,0 -0.0135088,0.309403 -0.0404237,0.307048 -0.0670308,0.302357 -0.0931279,0.295364 -0.118516,0.286123 -0.143002,0.274705 -0.1664,0.261196 -0.188532,0.2457 -0.209229,0.228333 -0.228333,0.209229 -0.2457,0.188532 -0.261196,0.1664 -0.274705,0.143002 -0.286123,0.118516 -0.295364,0.0931279 -0.302357,0.0670308 -0.307048,0.0404237 -0.309403,0.0135088 -0.309403,-0.0135088 -0.307048,-0.0404237 -0.302357,-0.0670308 -0.295364,-0.0931279 -0.286123,-0.118516 -0.274705,-0.143002 -0.261196,-0.1664 -0.2457,-0.188532 -0.228333,-0.209229 -0.209229,-0.228333 -0.188532,-0.2457 -0.1664,-0.261196 -0.143002,-0.274705 -0.118516,-0.286123 -0.0931279,-0.295364 -0.0670308,-0.302357 -0.0404237,-0.307048 -0.0135088,-0.309403 z "/>
<path fill="rgb(42,41,42)" stroke="rgb(42,41,42)" d="M 2.33961,4.11009 l 0.130963,-0.104172 0.791764,0.62805 0.11907,-0.732235 -0.666759,-2.29195 0.217295,0 0.788784,1.7264 0.261951,-0.705432 0.64887,-1.02096 0.162113,0.156139 -0.489515,1.09698 -0.215922,1.02628 -0.00138588,0.715965 0.161926,-0.122594 0.132572,-0.642317 0.16707,-0.00101655 -0.0392882,0.714808 -0.547296,0.609759 -0.0253293,0.0257898 -0.0275412,0.0234129 -0.0295309,0.0208473 -0.0312824,0.0181134 -0.0327815,0.0152334 -0.0340162,0.0122305 -0.0349764,0.0091289 -0.0356544,0.00595367 -0.0360448,0.00273042 -0.0361444,-0.000514864 -0.0355631,-0.00369773 -0.0350945,-0.00683953 -0.034349,-0.00992734 -0.0333323,-0.0129368 -0.0320526,-0.0158441 -0.0305198,-0.0186264 -0.0287462,-0.0212617 -0.0267457,-0.0237292 -0.0245341,-0.0260093 -1.01797,-1.04776 z "/>
<path fill="rgb(42,41,42)" stroke="rgb(42,41,42)" d="M 3.28032,5.70851 l 0.00136688,-0.0306876 0.00408983,-0.0304445 0.00678038,-0.0299603 0.00941723,-0.0292389 0.0119795,-0.0282858 0.0144469,-0.0271087 0.0167998,-0.025717 0.0190197,-0.0241215 0.021089,-0.022335 0.0229912,-0.0203715 0.0247114,-0.0182468 0.0262358,-0.0159775 0.0275524,-0.0135817 0.0286508,-0.0110783 0.0295223,-0.00848711 0.0301599,-0.00582875 0.0305587,-0.00312422 0.0307155,-0.000394952 0.0294235,0.00219342 0.0291287,0.00469828 0.028621,0.00716881 0.0279042,0.00958696 0.0269835,0.0119351 0.0258656,0.0141959 0.0245587,0.0163531 0.0230724,0.0183908 0.0214174,0.020294 0.019606,0.022049 0.0176513,0.0236429 0.0155676,0.025064 0.0133702,0.0263019 0.0110751,0.0273477 0.008699,0.0281936 0.00625938,0.0288336 0.00377402,0.0292628 0.00126108,0.0294782 -0.00133854,0.0303683 -0.00400523,0.0301328 -0.00664086,0.0296635 -0.00922498,0.0289642 -0.0117376,0.0280403 -0.0141591,0.0268988 -0.0164708,0.0255488 -0.0186548,0.0240005 -0.0206941,0.0222662 -0.0225729,0.0203591 -0.0242766,0.0182941 -0.025792,0.0160873 -0.0271074,0.0137556 -0.0282125,0.0113173 -0.0290988,0.00879123 -0.0297594,0.00619695 -0.0301893,0.0035546 -0.0303849,0.000884691 -0.0303449,-0.00179208 -0.0294738,-0.00434023 -0.0289898,-0.00686564 -0.0282898,-0.0093399 -0.027379,-0.0117446 -0.0262643,-0.0140618 -0.0249539,-0.0162742 -0.0234576,-0.0183654 -0.0217865,-0.0203198 -0.0199532,-0.0221228 -0.0179712,-0.023761 -0.0158553,-0.0252221 -0.0136213,-0.0264954 -0.0112858,-0.0275713 -0.00886624,-0.0284418 -0.00638063,-0.0291004 -0.00384749,-0.0295422 -0.00128569,-0.0297639 z "/>
<path fill="rgb(187,30,16)" stroke="rgb(187,30,16)" d="M 0.2,3.75 l -0.2,0 0.0142699,-0.326834 0.042701,-0.324347 0.0708072,-0.319391 0.0983745,-0.312004 0.125193,-0.302243 0.151059,-0.290182 0.175775,-0.275912 0.199154,-0.259542 0.221016,-0.241197 0.241197,-0.221016 0.259542,-0.199154 0.275912,-0.175775 0.290182,-0.151059 0.302243,-0.125193 0.312004,-0.0983745 0.319391,-0.0708072 0.324347,-0.042701 0.326834,-0.0142699 0.326834,0.0142699 0.324347,0.042701 0.319391,0.0708072 0.312004,0.0983745 0.302243,0.125193 0.290182,0.151059 0.275912,0.175775 0.259542,0.199154 0.241197,0.221016 0.221016,0.241197 0.199154,0.259542 0.175775,0.275912 0.151059,0.290182 0.125193,0.302243 0.0983745,0.312004 0.0708072,0.319391 0.042701,0.324347 0.0142699,0.326834 -0.2,0 -0.0135088,-0.309403 -0.0404237,-0.307048 -0.0670308,-0.302357 -0.0931279,-0.295364 -0.118516,-0.286123 -0.143002,-0.274705 -0.1664,-0.261196 -0.188532,-0.2457 -0.209229,-0.228333 -0.228333,-0.209229 -0.2457,-0.188532 -0.261196,-0.1664 -0.274705,-0.143002 -0.286123,-0.118516 -0.295364,-0.0931279 -0.302357,-0.0670308 -0.307048,-0.0404237 -0.309403,-0.0135088 -0.309403,0.0135088 -0.307048,0.0404237 -0.302357,0.0670308 -0.295364,0.0931279 -0.286123,0.118516 -0.274705,0.143002 -0.261196,0.1664 -0.2457,0.188532 -0.228333,0.209229 -0.209229,0.228333 -0.188532,0.2457 -0.1664,0.261196 -0.143002,0.274705 -0.118516,0.286123 -0.0931279,0.295364 -0.0670308,0.302357 -0.0404237,0.307048 -0.0135088,0.309403 z "/>
<path fill="rgb(187,30,16)" stroke="rgb(187,30,16)" d="M 0.2,3.75 l 0.0135088,0.309403 0.0404237,0.307048 0.0670308,0.302357 0.0931279,0.295364 0.118516,0.286123 0.143002,0.274705 0.1664,0.261196 0.188532,0.2457 0.209229,0.228333 0.228333,0.209229 0.2457,0.188532 0.261196,0.1664 0.274705,0.143002 0.286123,0.118516 0.295364,0.0931279 0.302357,0.0670308 0.307048,0.0404237 0.309403,0.0135088 0.309403,-0.0135088 0.307048,-0.0404237 0.302357,-0.0670308 0.295364,-0.0931279 0.286123,-0.118516 0.274705,-0.143002 0.261196,-0.1664 0.2457,-0.188532 0.228333,-0.209229 0.209229,-0.228333 0.188532,-0.2457 0.1664,-0.261196 0.143002,-0.274705 0.118516,-0.286123 0.0931279,-0.295364 0.0670308,-0.302357 0.0404237,-0.307048 0.0135088,-0.309403 0.2,0 -0.0142699,0.326834 -0.042701,0.324347 -0.0708072,0.319391 -0.0983745,0.312004 -0.125193,0.302243 -0.151059,0.290182 -0.175775,0.275912 -0.199154,0.259542 -0.221016,0.241197 -0.241197,0.221016 -0.259542,0.199154 -0.275912,0.175775 -0.290182,0.151059 -0.302243,0.125193 -0.312004,0.0983745 -0.319391,0.0708072 -0.324347,0.042701 -0.326834,0.0142699 -0.326834,-0.0142699 -0.324347,-0.042701 -0.319391,-0.0708072 -0.312004,-0.0983745 -0.302243,-0.125193 -0.290182,-0.151059 -0.275912,-0.175775 -0.259542,-0.199154 -0.241197,-0.221016 -0.221016,-0.241197 -0.199154,-0.259542 -0.175775,-0.275912 -0.151059,-0.290182 -0.125193,-0.302243 -0.0983745,-0.312004 -0.0708072,-0.319391 -0.042701,-0.324347 -0.0142699,-0.326834 0.2,0 z "/>
<path fill="rgb(187,30,16)" stroke="rgb(187,30,16)" d="M 7.1,3.75 l -0.7,0 -0.00967055,-0.226187 -0.0289411,-0.224536 -0.0480003,-0.221246 -0.0667093,-0.216342 -0.0849314,-0.209858 -0.102534,-0.201843 -0.119387,-0.192355 -0.13537,-0.181463 -0.150364,-0.169247 -0.164262,-0.155795 -0.17696,-0.141206 -0.188366,-0.125587 -0.198398,-0.109051 -0.206982,-0.0917187 -0.214055,-0.0737174 -0.219566,-0.055178 -0.223474,-0.036236 -0.225752,-0.0170294 -0.226382,0.00230142 -0.225359,0.0216155 -0.222692,0.0407717 -0.218399,0.0596305 -0.212512,0.078054 -0.205075,0.0959078 -0.208261,0.120803 -0.196438,0.139206 -0.182993,0.15646 -0.168037,0.172422 -0.151695,0.186962 -0.1341,0.199958 -0.115399,0.211303 -0.0957445,0.220905 -0.0753001,0.228683 -0.0542342,0.234573 -0.0327206,0.238527 -0.010937,0.240513 -0.7,0 0.0127478,-0.291972 0.0381463,-0.28975 0.0632545,-0.285322 0.0878812,-0.278724 0.111839,-0.270004 0.134946,-0.259229 0.157026,-0.246481 0.17791,-0.231857 0.197441,-0.215469 0.215469,-0.197441 0.231857,-0.17791 0.246481,-0.157026 0.259229,-0.134946 0.270004,-0.111839 0.278724,-0.0878812 0.285322,-0.0632545 0.28975,-0.0381463 0.291972,-0.0127478 0.291972,0.0127478 0.28975,0.0381463 0.285322,0.0632545 0.278724,0.0878812 0.270004,0.111839 0.259229,0.134946 0.246481,0.157026 0.231857,0.17791 0.215469,0.197441 0.197441,0.215469 0.17791,0.231857 0.157026,0.246481 0.134946,0.259229 0.111839,0.270004 0.0878812,0.278724 0.0632545,0.285322 0.0381463,0.28975 0.0127478,0.291972 z "/>
<path fill="rgb(187,30,16)" stroke="rgb(187,30,16)" d="M 7.1,3.75 l -0.0127478,0.291972 -0.0381463,0.28975 -0.0632545,0.285322 -0.0878812,0.278724 -0.111839,0.270004 -0.134946,0.259229 -0.157026,0.246481 -0.17791,0.231857 -0.197441,0.215469 -0.215469,0.197441 -0.231857,0.17791 -0.246481,0.157026 -0.259229,0.134946 -0.270004,0.111839 -0.278724,0.0878812 -0.285322,0.0632545 -0.28975,0.0381463 -0.291972,0.0127478 -0.291972,-0.0127478 -0.28975,-0.0381463 -0.285322,-0.0632545 -0.278724,-0.0878812 -0.270004,-0.111839 -0.259229,-0.134946 -0.246481,-0.157026 -0.231857,-0.17791 -0.215469,-0.197441 -0.197441,-0.215469 -0.17791,-0.231857 -0.157026,-0.246481 -0.134946,-0.259229 -0.111839,-0.270004 -0.0878812,-0.278724 -0.0632545,-0.285322 -0.0381463,-0.28975 -0.0127478,-0.291972 0.7,0 0.0102685,0.233061 0.0307258,0.231255 0.050945,0.227656 0.0707694,0.222294 0.0900454,0.215208 0.108623,0.206455 0.12636,0.196102 0.143117,0.184229 0.158765,0.170929 0.173182,0.156303 0.186258,0.140467 0.19789,0.123541 0.207988,0.105659 0.216475,0.0869574 0.223283,0.067582 0.228362,0.0476829 0.231671,0.0274143 0.229194,0.00698731 0.22894,-0.012852 0.226971,-0.0325951 0.223304,-0.0520941 0.217965,-0.0712031 0.210993,-0.089779 0.202442,-0.107683 0.192376,-0.12478 0.180869,-0.140943 0.168007,-0.156051 0.153888,-0.169991 0.138617,-0.182658 0.122308,-0.193957 0.105083,-0.203804 0.0870709,-0.212125 0.0684073,-0.218858 0.0492315,-0.223953 0.0296871,-0.22737 0.00992047,-0.229085 0.7,0 z "/>
</g></g></svg>
