<?xml version="1.0" encoding="UTF-8" standalone="no"?>
<!DOCTYPE svg PUBLIC "-//W3C//DTD SVG 1.1//EN" "http://www.w3.org/Graphics/SVG/1.1/DTD/svg11-flat.dtd"
[

]>
<svg xmlns="http://www.w3.org/2000/svg"  viewBox="-0.0891147 -0.0891147 7.30741 7.30741"><g fill="none" stroke="black" stroke-width="0.0125" transform="translate(0,7.12918) scale(1, -1)">
<g id="Output" >
<path fill="rgb(241,240,234)" stroke="rgb(241,240,234)" d="M 4.59443,1.1 l 0,1 -0.0632232,0 0,-0.202273 0.00582131,-0.0058311 0.0052872,-0.00631941 0.0047123,-0.00675896 0.00410105,-0.00714638 0.00345816,-0.00747867 0.00278859,-0.00775326 0.00209752,-0.00796805 0.00139026,-0.00812136 0.000672274,-0.00821203 -5.08956e-05,-0.00823934 -0.000773673,-0.0082031 -0.00149048,-0.00810357 -0.00219579,-0.00794153 -0.00288416,-0.00771822 -0.00355029,-0.00743538 -0.00418902,-0.00709517 -0.00479544,-0.00670023 -0.00536486,-0.00625361 -0.0406418,0.0596347 -0.0146713,0.0711276 0,0.20479 -0.0427484,0 0,-0.65239 -0.133279,0 0.0175646,0.0282588 0.0150837,0.0296573 0.0124923,0.0308386 0.00980938,0.0317939 0.00705459,0.0325163 0.00424812,0.0330004 0.00141052,0.0332428 -0.00143741,0.0332417 -0.00427481,0.032997 -0.00708089,0.0325106 -0.00983509,0.031786 -0.0125172,0.0308285 -0.0151077,0.0296451 -0.0175874,0.0282446 -0.0199384,0.0266371 -0.0168789,-0.00176022 -0.0169677,-0.00030694 -0.0169316,0.0011486 -0.0167708,0.00259569 -0.0164866,0.00402367 -0.016081,0.00542203 -0.0155571,0.00678048 -0.0149186,0.00808902 -0.0141703,0.00933802 -0.0133178,0.0105183 -0.0123672,0.0116211 -0.0113255,0.0126384 -0.0102005,0.0135627 -0.00900043,0.0143871 -0.0077341,0.0151057 -0.481646,0 0,-0.925973 1,0 z "/>
<path fill="rgb(241,240,234)" stroke="rgb(241,240,234)" d="M 3.09443,4.1 l 0.5,0 0,0.88065 -0.0298374,0.0596748 -0.470163,-0.940325 z "/>
<path fill="rgb(241,240,234)" stroke="rgb(241,240,234)" d="M 4.48092,2.1 l 0,0.340872 -0.0427484,-0.0125646 -8.88178e-16,-0.328307 0.0427484,0 z M 4.53475,3.1 l -0.940325,0 0,-0.45042 0.843749,0 0.00822097,-0.000358534 0.00815855,-0.00107288 0.00803417,-0.00177908 0.00784878,-0.00247177 0.00760379,-0.00314569 0.00730106,-0.00379572 0.00694289,-0.00441693 0.006532,-0.00500459 0.0060715,-0.00555426 0.0055649,-0.00606175 0.00501605,-0.00652321 0.0044291,-0.00693513 0.00380852,-0.00729439 0.00315902,-0.00759826 0.00248553,-0.00784443 0.00179317,-0.00803103 0.00108719,-0.00815665 0.000372957,-0.00822033 -0.00034411,-0.00822159 -0.00105856,-0.00816042 0,-0.438933 0.0632232,0 0,0.88065 -0.0596748,0.11935 z "/>
<path fill="rgb(241,240,234)" stroke="rgb(241,240,234)" d="M 2.59443,3.1 l 1,0 0,1 -0.5,0 -0.5,-1 z "/>
<path fill="rgb(241,240,234)" stroke="rgb(241,240,234)" d="M 3.59443,1.1 l 0,0.925973 -0.106764,0 -0.0134766,-0.00832056 -0.0127007,-0.00946276 -0.0118282,-0.010533 -0.0108658,-0.0115233 -0.00982082,-0.0124259 -0.00870119,-0.0132341 -0.00751542,-0.0139417 -0.00627253,-0.0145433 -0.00498196,-0.0150343 -0.00365352,-0.0154111 -0.00229731,-0.0156708 -0.000923636,-0.0158113 0,-0.00535676 0,-0.417094 -0.0980717,0 0.0158517,0.0527712 0.0112599,0.0539378 0.00658484,0.0547057 0.00186112,0.0550691 -0.00287636,0.0550254 -0.00759257,0.054575 -0.0122526,0.053721 -0.0168221,0.0524699 -0.0212673,0.0508309 -0.0255552,0.048816 -0.0296542,0.0464403 -0.0262732,0.0141851 -0.0249271,0.0164357 -0.0233888,0.0185596 -0.0216701,0.0205403 -0.00381009,0.00430663 -0.521595,0 0,-1 0.970163,0 0.0298374,0 z "/>
<path fill="rgb(241,240,234)" stroke="rgb(241,240,234)" d="M 3.59443,4.1 l 0.440325,0 -0.440325,0.88065 0,-0.88065 z "/>
<path fill="rgb(241,240,234)" stroke="rgb(241,240,234)" d="M 4.59443,2.1 l 0,-1 0.940325,4.44089e-16 -0.5,1 -0.440325,0 z "/>
<path fill="rgb(241,240,234)" stroke="rgb(241,240,234)" d="M 3.11602,2.1 l -0.0159741,0.0180559 -0.0177457,0.0240122 -0.0155702,0.0254767 -0.0132747,0.0267447 -0.0108768,0.0278063 -0.246423,0.221293 -0.125728,-0.0150817 -0.0276565,-0.0176191 -0.0377246,4.44089e-16 -0.0106211,0.0106232 0,-0.321311 0.521595,0 z M 2.59443,2.54096 l 0.11121,0.204186 -0.0603574,0.0402314 0.0628641,0.0100476 0.100589,-0.0150817 0.070405,-0.0452655 0.369644,-0.100579 0.0930377,0.0150817 0.252608,0 0,0.45042 -1,0 0,-0.559041 z "/>
<path fill="rgb(241,240,234)" stroke="rgb(241,240,234)" d="M 4.53475,3.1 l -0.5,1 -0.440325,0 0,-1 0.940325,0 z "/>
<path fill="rgb(241,240,234)" stroke="rgb(241,240,234)" d="M 2.59443,2.42131 l -0.0421852,0.0421933 0.0421852,0.0774539 0,0.559041 -0.5,-1 0.5,0 0,0.321311 z "/>
<path fill="rgb(241,240,234)" stroke="rgb(241,240,234)" d="M 2.59443,1.1 l 0,1 -0.5,0 -0.5,-1 1,-4.44089e-16 z "/>
<path fill="rgb(241,240,234)" stroke="rgb(241,240,234)" d="M 4.59443,2.1 l 0.440325,0 -0.440325,0.88065 0,-0.88065 z "/>
<path fill="rgb(241,240,234)" stroke="rgb(241,240,234)" d="M 3.56459,0.2 l 3.26459,0 0.00883388,0.000390951 0.00876481,0.0011698 0.0086272,0.0019395 0.00842214,0.00269403 0.00815123,0.0034275 0.00781658,0.00413417 0.00742081,0.00480851 0.00696702,0.00544526 0.00645876,0.00603943 0.00589999,0.00658638 0.00529509,0.00708183 0.00464879,0.0075219 0.00396614,0.00790316 0.00325248,0.00822263 0.00251339,0.0084778 0.00175464,0.00866669 0.000982177,0.00878781 0.000202033,0.00884022 -0.000579691,0.0088235 -0.00135688,0.0087378 -0.00212346,0.00858377 -0.00287344,0.00836263 -0.00360095,0.0080761 -3.26459,6.52918 -0.00412828,0.00744612 -0.0047467,0.00706797 -0.00533072,0.00663859 -0.00587609,0.00616109 -0.00637887,0.00563892 -0.00683541,0.00507588 -0.0072424,0.00447605 -0.0075969,0.00384377 -0.00789632,0.00318363 -0.00813851,0.00250041 -0.00832171,0.00179907 -0.00844458,0.00108468 -0.00850624,0.000362437 0,-0.323607 3.10279,-6.20557 -3.10279,2.66454e-15 0,-0.2 z "/>
<path fill="rgb(241,240,234)" stroke="rgb(241,240,234)" d="M 3.56459,0.2 l 0,0.2 -3.10279,0 3.10279,6.20557 0,0.323607 -0.00850624,-0.000362437 -0.00844458,-0.00108468 -0.00832171,-0.00179907 -0.00813851,-0.00250041 -0.00789632,-0.00318363 -0.0075969,-0.00384377 -0.0072424,-0.00447605 -0.00683541,-0.00507588 -0.00637887,-0.00563892 -0.00587609,-0.00616109 -0.00533072,-0.00663859 -0.0047467,-0.00706797 -0.00412828,-0.00744612 -3.26459,-6.52918 -0.00360095,-0.0080761 -0.00287344,-0.00836263 -0.00212346,-0.00858377 -0.00135688,-0.0087378 -0.000579691,-0.0088235 0.000202033,-0.00884022 0.000982177,-0.00878781 0.00175464,-0.00866669 0.00251339,-0.0084778 0.00325248,-0.00822263 0.00396614,-0.00790316 0.00464879,-0.0075219 0.00529509,-0.00708183 0.00589999,-0.00658638 0.00645876,-0.00603943 0.00696702,-0.00544526 0.00742081,-0.00480851 0.00781658,-0.00413417 0.00815123,-0.0034275 0.00842214,-0.00269403 0.0086272,-0.0019395 0.00876481,-0.0011698 0.00883388,-0.000390951 3.26459,-8.88178e-16 z "/>
<path fill="rgb(42,41,42)" stroke="rgb(42,41,42)" d="M 3.04258,2.2221 l 0.0108768,-0.0278063 0.0132747,-0.0267447 0.0155702,-0.0254767 0.0177457,-0.0240122 0.0197842,-0.0223625 0.0216701,-0.0205403 0.0233888,-0.0185596 0.0249271,-0.0164357 0.0262732,-0.0141851 0.0296542,-0.0464403 0.0255552,-0.048816 0.0212673,-0.0508309 0.0168221,-0.0524699 0.0122526,-0.053721 0.00759257,-0.054575 0.00287636,-0.0550254 -0.00186112,-0.0550691 -0.00658484,-0.0547057 -0.0112599,-0.0539378 -0.0158517,-0.0527712 0.0980717,0 0,0.417094 -1.75514e-05,0.00178556 0,0.00178564 1.75514e-05,0.00178556 0.000923636,0.0158113 0.00229731,0.0156708 0.00365352,0.0154111 0.00498196,0.0150343 0.00627253,0.0145433 0.00751542,0.0139417 0.00870119,0.0132341 0.00982082,0.0124259 0.0108658,0.0115233 0.0118282,0.010533 0.0127007,0.00946276 0.0134766,0.00832056 0.58841,0 0.0077341,-0.0151057 0.00900043,-0.0143871 0.0102005,-0.0135627 0.0113255,-0.0126384 0.0123672,-0.0116211 0.0133178,-0.0105183 0.0141703,-0.00933802 0.0149186,-0.00808902 0.0155571,-0.00678048 0.016081,-0.00542203 0.0164866,-0.00402367 0.0167708,-0.00259569 0.0169316,-0.0011486 0.0169677,0.00030694 0.0168789,0.00176022 0.0199384,-0.0266371 0.0175874,-0.0282446 0.0151077,-0.0296451 0.0125172,-0.0308285 0.00983509,-0.031786 0.00708089,-0.0325106 0.00427481,-0.032997 0.00143741,-0.0332417 -0.00141052,-0.0332428 -0.00424812,-0.0330004 -0.00705459,-0.0325163 -0.00980938,-0.0317939 -0.0124923,-0.0308386 -0.0150837,-0.0296573 -0.0175646,-0.0282588 0.133279,0 8.88178e-16,0.980697 0.0427484,0.0125646 0,-0.545662 0.0146713,-0.0711276 0.0406418,-0.0596347 0.00536486,0.00625361 0.00479544,0.00670023 0.00418902,0.00709517 0.00355029,0.00743538 0.00288416,0.00771822 0.00219579,0.00794153 0.00149048,0.00810357 0.000773673,0.0082031 5.08956e-05,0.00823934 -0.000672274,0.00821203 -0.00139026,0.00812136 -0.00209752,0.00796805 -0.00278859,0.00775326 -0.00345816,0.00747867 -0.00410105,0.00714638 -0.0047123,0.00675896 -0.0052872,0.00631941 -0.00582131,0.0058311 0,0.641206 0.00105856,0.00816042 0.00034411,0.00822159 -0.000372957,0.00822033 -0.00108719,0.00815665 -0.00179317,0.00803103 -0.00248553,0.00784443 -0.00315902,0.00759826 -0.00380852,0.00729439 -0.0044291,0.00693513 -0.00501605,0.00652321 -0.0055649,0.00606175 -0.0060715,0.00555426 -0.006532,0.00500459 -0.00694289,0.00441693 -0.00730106,0.00379572 -0.00760379,0.00314569 -0.00784878,0.00247177 -0.00803417,0.00177908 -0.00815855,0.00107288 -0.00822097,0.000358534 -1.09636,0 -0.0930377,-0.0150817 -0.369644,0.100579 -0.070405,0.0452655 -0.100589,0.0150817 -0.0628641,-0.0100476 0.0603574,-0.0402314 -0.153395,-0.28164 0.0528063,-0.0528165 0.0377246,-4.44089e-16 0.0276565,0.0176191 0.125728,0.0150817 0.246423,-0.221293 z "/>
<path fill="rgb(187,30,16)" stroke="rgb(187,30,16)" d="M 3.56459,5.04033 l 1.97016,-3.94033 -1.97016,-4.44089e-16 0,-0.7 3.10279,-2.66454e-15 -3.10279,6.20557 0,-1.56525 z "/>
<path fill="rgb(187,30,16)" stroke="rgb(187,30,16)" d="M 3.56459,0.2 l 0,-0.2 3.26459,-1.77636e-15 0.0265016,0.00117285 0.0262944,0.00350939 0.0258816,0.00581849 0.0252664,0.00808209 0.0244537,0.0102825 0.0234497,0.0124025 0.0222624,0.0144255 0.0209011,0.0163358 0.0193763,0.0181183 0.0177,0.0197591 0.0158853,0.0212455 0.0139464,0.0225657 0.0118984,0.0237095 0.00975744,0.0246679 0.00754016,0.0254334 0.00526392,0.0260001 0.00294653,0.0263634 0.000606098,0.0265207 -0.00173907,0.0264705 -0.00407065,0.0262134 -0.00637039,0.0257513 -0.00862033,0.0250879 -0.0108029,0.0242283 -3.26459,6.52918 -0.0123848,0.0223384 -0.0142401,0.0212039 -0.0159921,0.0199158 -0.0176283,0.0184833 -0.0191366,0.0169168 -0.0205062,0.0152277 -0.0217272,0.0134282 -0.0227907,0.0115313 -0.023689,0.00955089 -0.0244155,0.00750124 -0.0249651,0.00539721 -0.0253337,0.00325405 -0.0255187,0.00108731 0,-0.2 0.00850624,-0.000362437 0.00844458,-0.00108468 0.00832171,-0.00179907 0.00813851,-0.00250041 0.00789632,-0.00318363 0.0075969,-0.00384377 0.0072424,-0.00447605 0.00683541,-0.00507588 0.00637887,-0.00563892 0.00587609,-0.00616109 0.00533072,-0.00663859 0.0047467,-0.00706797 0.00412828,-0.00744612 3.26459,-6.52918 0.00360095,-0.0080761 0.00287344,-0.00836263 0.00212346,-0.00858377 0.00135688,-0.0087378 0.000579691,-0.0088235 -0.000202033,-0.00884022 -0.000982177,-0.00878781 -0.00175464,-0.00866669 -0.00251339,-0.0084778 -0.00325248,-0.00822263 -0.00396614,-0.00790316 -0.00464879,-0.0075219 -0.00529509,-0.00708183 -0.00589999,-0.00658638 -0.00645876,-0.00603943 -0.00696702,-0.00544526 -0.00742081,-0.00480851 -0.00781658,-0.00413417 -0.00815123,-0.0034275 -0.00842214,-0.00269403 -0.0086272,-0.0019395 -0.00876481,-0.0011698 -0.00883388,-0.000390951 -3.26459,0 z "/>
<path fill="rgb(187,30,16)" stroke="rgb(187,30,16)" d="M 3.56459,0.2 l -3.26459,8.88178e-16 -0.00883388,0.000390951 -0.00876481,0.0011698 -0.0086272,0.0019395 -0.00842214,0.00269403 -0.00815123,0.0034275 -0.00781658,0.00413417 -0.00742081,0.00480851 -0.00696702,0.00544526 -0.00645876,0.00603943 -0.00589999,0.00658638 -0.00529509,0.00708183 -0.00464879,0.0075219 -0.00396614,0.00790316 -0.00325248,0.00822263 -0.00251339,0.0084778 -0.00175464,0.00866669 -0.000982177,0.00878781 -0.000202033,0.00884022 0.000579691,0.0088235 0.00135688,0.0087378 0.00212346,0.00858377 0.00287344,0.00836263 0.00360095,0.0080761 3.26459,6.52918 0.00412828,0.00744612 0.0047467,0.00706797 0.00533072,0.00663859 0.00587609,0.00616109 0.00637887,0.00563892 0.00683541,0.00507588 0.0072424,0.00447605 0.0075969,0.00384377 0.00789632,0.00318363 0.00813851,0.00250041 0.00832171,0.00179907 0.00844458,0.00108468 0.00850624,0.000362437 0,0.2 -0.0255187,-0.00108731 -0.0253337,-0.00325405 -0.0249651,-0.00539721 -0.0244155,-0.00750124 -0.023689,-0.00955089 -0.0227907,-0.0115313 -0.0217272,-0.0134282 -0.0205062,-0.0152277 -0.0191366,-0.0169168 -0.0176283,-0.0184833 -0.0159921,-0.0199158 -0.0142401,-0.0212039 -0.0123848,-0.0223384 -3.26459,-6.52918 -0.0108029,-0.0242283 -0.00862033,-0.0250879 -0.00637039,-0.0257513 -0.00407065,-0.0262134 -0.00173907,-0.0264705 0.000606098,-0.0265207 0.00294653,-0.0263634 0.00526392,-0.0260001 0.00754016,-0.0254334 0.00975744,-0.0246679 0.0118984,-0.0237095 0.0139464,-0.0225657 0.0158853,-0.0212455 0.0177,-0.0197591 0.0193763,-0.0181183 0.0209011,-0.0163358 0.0222624,-0.0144255 0.0234497,-0.0124025 0.0244537,-0.0102825 0.0252664,-0.00808209 0.0258816,-0.00581849 0.0262944,-0.00350939 0.0265016,-0.00117285 3.26459,0 0,0.2 z "/>
<path fill="rgb(187,30,16)" stroke="rgb(187,30,16)" d="M 3.56459,5.04033 l 0,1.56525 -3.10279,-6.20557 3.10279,0 0,0.7 -1.97016,4.44089e-16 1.97016,3.94033 z "/>
</g></g></svg>
