<?xml version="1.0" encoding="UTF-8" standalone="no"?>
<!DOCTYPE svg PUBLIC "-//W3C//DTD SVG 1.1//EN" "http://www.w3.org/Graphics/SVG/1.1/DTD/svg11-flat.dtd"
[

]>
<svg xmlns="http://www.w3.org/2000/svg"  viewBox="-0.0891147 -0.0891147 7.30741 7.30741"><g fill="none" stroke="black" stroke-width="0.0125" transform="translate(0,7.12918) scale(1, -1)">
<g id="Output" >
<path fill="rgb(75,255,0)" stroke="rgb(75,255,0)" d="M 3.5646,1.50999 l -1.69134e-06,-3.78275e-08 -1.69134e-06,-3.78182e-08 -1.69134e-06,-3.78088e-08 -3.14413e-10,7.02771e-12 -3.14414e-10,7.02771e-12 -3.14413e-10,7.02771e-12 5.07496e-06,1.13433e-07 z "/>
<path fill="rgb(75,255,0)" stroke="rgb(75,255,0)" d="M 3.35299,2.02905 l 0.0191603,0.0179772 0.020634,0.0162646 0.0219551,0.0144317 0.0231138,0.012492 0.0241016,0.01046 0.0249111,0.00835059 0.0255365,0.00617944 0.025973,0.0039626 0.0262174,0.00171645 1.69134e-06,-3.77807e-08 1.69134e-06,-3.779e-08 1.69134e-06,-3.77994e-08 -0.026218,-0.00171605 -0.0259736,-0.00396229 -0.0255371,-0.00617924 -0.0249118,-0.00835048 -0.0241022,-0.01046 -0.0231144,-0.0124921 -0.0219556,-0.0144319 -0.0206345,-0.0162649 -0.0191607,-0.0179776 z "/>
<path fill="rgb(75,255,0)" stroke="rgb(75,255,0)" d="M 3.5646,1.50999 l -1.0148e-05,0 -0.0262174,0.00171642 -0.025973,0.00396257 -0.0255365,0.00617941 -0.0249111,0.00835056 -0.0241016,0.0104599 -0.0231138,0.012492 -0.0219551,0.0144316 -0.020634,0.0162646 -0.0191603,0.0179772 -0.0175456,0.0195578 -0.0158003,0.020993 -0.0139382,0.0222729 -0.011973,0.0233881 -0.00991919,0.0243303 -0.00779205,0.0250926 -0.00560729,0.0256693 -0.00338105,0.0260562 -0.00112981,0.0262503 0.00112981,0.0262503 0.00338105,0.0260562 0.00560729,0.0256693 0.00779205,0.0250926 0.00991919,0.0243303 0.011973,0.0233881 0.0139382,0.0222729 0.0158003,0.020993 0.0175456,0.0195578 0.0191607,0.0179776 0.0206345,0.0162649 0.0219556,0.0144319 0.0231144,0.0124921 0.0241022,0.01046 0.0249118,0.00835048 0.0255371,0.00617924 0.0259736,0.00396229 0.026218,0.00171605 0.0262182,-0.00171608 0.0259739,-0.00396237 0.0255374,-0.00617936 0.024912,-0.00835065 0.0241024,-0.0104602 0.0231145,-0.0124924 0.0219557,-0.0144321 0.0206346,-0.0162652 0.0191608,-0.0179779 0.0175453,-0.0195577 0.0158,-0.0209929 0.0139379,-0.0222728 0.0119727,-0.0233879 0.00991898,-0.0243301 0.00779189,-0.0250924 0.00560716,-0.0256691 0.00338097,-0.0260559 0.00112978,-0.02625 -0.00112975,-0.0262498 -0.0033809,-0.0260556 -0.00560704,-0.0256688 -0.00779172,-0.0250921 -0.00991877,-0.0243299 -0.0119725,-0.0233877 -0.0139376,-0.0222726 -0.0157997,-0.0209928 -0.0175449,-0.0195577 -0.0191604,-0.0179779 -0.0206342,-0.0162652 -0.0219554,-0.0144322 -0.0231142,-0.0124925 -0.024102,-0.0104604 -0.0249116,-0.0083509 -0.025537,-0.00617966 -0.0259735,-0.00396273 -0.0262179,-0.00171648 z "/>
<path fill="rgb(75,255,0)" stroke="rgb(75,255,0)" d="M 3.56459,1.50999 l -0.0262174,0.00171645 -0.025973,0.0039626 -0.0255365,0.00617944 -0.0249111,0.00835059 -0.0241016,0.01046 -0.0231138,0.012492 -0.0219551,0.0144317 -0.020634,0.0162646 -0.0191603,0.0179772 0.0191603,-0.0179772 0.020634,-0.0162646 0.0219551,-0.0144316 0.0231138,-0.012492 0.0241016,-0.0104599 0.0249111,-0.00835056 0.0255365,-0.00617941 0.025973,-0.00396257 0.0262174,-0.00171642 8.88178e-16,-2.26825e-07 z "/>
<path fill="rgb(75,255,0)" stroke="rgb(75,255,0)" d="M 3.56459,1.50999 l 5.07307e-06,1.13391e-07 3.14413e-10,-7.02771e-12 3.14414e-10,-7.02771e-12 3.14413e-10,-7.02771e-12 -1.69134e-06,-3.77994e-08 -1.69134e-06,-3.779e-08 -1.69134e-06,-3.77807e-08 z "/>
<path fill="rgb(247,181,0)" stroke="rgb(247,181,0)" d="M 3.5646,2.29452 l -1.0148e-05,0 -0.0262174,0.00171642 -0.025973,0.00396257 -0.0255365,0.00617941 -0.0249111,0.00835056 -0.0241016,0.0104599 -0.0231138,0.012492 -0.0219551,0.0144316 -0.020634,0.0162646 -0.0191603,0.0179772 -0.0175456,0.0195578 -0.0158003,0.020993 -0.0139382,0.0222729 -0.011973,0.0233881 -0.00991919,0.0243303 -0.00779205,0.0250926 -0.00560729,0.0256693 -0.00338105,0.0260562 -0.00112981,0.0262503 0.00112981,0.0262503 0.00338105,0.0260562 0.00560729,0.0256693 0.00779205,0.0250926 0.00991919,0.0243303 0.011973,0.0233881 0.0139382,0.0222729 0.0158003,0.020993 0.0175456,0.0195578 0.0191607,0.0179776 0.0206345,0.0162649 0.0219556,0.0144319 0.0231144,0.0124921 0.0241022,0.01046 0.0249118,0.00835048 0.0255371,0.00617924 0.0259736,0.00396229 0.026218,0.00171605 0.0262182,-0.00171608 0.0259739,-0.00396237 0.0255374,-0.00617936 0.024912,-0.00835065 0.0241024,-0.0104602 0.0231145,-0.0124924 0.0219557,-0.0144321 0.0206346,-0.0162652 0.0191608,-0.0179779 0.0175453,-0.0195577 0.0158,-0.0209929 0.0139379,-0.0222728 0.0119727,-0.0233879 0.00991898,-0.0243301 0.00779189,-0.0250924 0.00560716,-0.0256691 0.00338097,-0.0260559 0.00112978,-0.02625 -0.00112975,-0.0262498 -0.0033809,-0.0260556 -0.00560704,-0.0256688 -0.00779172,-0.0250921 -0.00991877,-0.0243299 -0.0119725,-0.0233877 -0.0139376,-0.0222726 -0.0157997,-0.0209928 -0.0175449,-0.0195577 -0.0191604,-0.0179779 -0.0206342,-0.0162652 -0.0219554,-0.0144322 -0.0231142,-0.0124925 -0.024102,-0.0104604 -0.0249116,-0.0083509 -0.025537,-0.00617966 -0.0259735,-0.00396273 -0.0262179,-0.00171648 z "/>
<path fill="rgb(247,181,0)" stroke="rgb(247,181,0)" d="M 3.5646,2.29452 l -1.69134e-06,-3.78275e-08 -1.69134e-06,-3.78182e-08 -1.69134e-06,-3.78088e-08 -3.14414e-10,7.02771e-12 -3.14414e-10,7.02771e-12 -3.14413e-10,7.02771e-12 5.07496e-06,1.13433e-07 z "/>
<path fill="rgb(247,181,0)" stroke="rgb(247,181,0)" d="M 3.56459,2.29452 l -1.69134e-06,-3.77994e-08 -1.69134e-06,-3.779e-08 -1.69134e-06,-3.77807e-08 5.07307e-06,1.13391e-07 3.14413e-10,-7.02771e-12 3.14414e-10,-7.02771e-12 3.14414e-10,-7.02771e-12 z "/>
<path fill="rgb(247,181,0)" stroke="rgb(247,181,0)" d="M 3.56459,2.29452 l -0.0262174,0.00171645 -0.025973,0.0039626 -0.0255365,0.00617944 -0.0249111,0.00835059 -0.0241016,0.01046 -0.0231138,0.012492 -0.0219551,0.0144317 -0.020634,0.0162646 -0.0191603,0.0179772 0.0191603,-0.0179772 0.020634,-0.0162646 0.0219551,-0.0144316 0.0231138,-0.012492 0.0241016,-0.0104599 0.0249111,-0.00835056 0.0255365,-0.00617941 0.025973,-0.00396257 0.0262174,-0.00171642 8.88178e-16,-2.26825e-07 z "/>
<path fill="rgb(247,181,0)" stroke="rgb(247,181,0)" d="M 3.56459,2.90541 l -0.026218,-0.00171605 -0.0259736,-0.00396229 -0.0255371,-0.00617924 -0.0249118,-0.00835048 -0.0241022,-0.01046 -0.0231144,-0.0124921 -0.0219556,-0.0144319 -0.0206345,-0.0162649 -0.0191607,-0.0179776 0.0191603,0.0179772 0.020634,0.0162646 0.0219551,0.0144317 0.0231138,0.012492 0.0241016,0.01046 0.0249111,0.00835059 0.0255365,0.00617944 0.025973,0.0039626 0.0262174,0.00171645 1.69134e-06,-3.77807e-08 1.69134e-06,-3.779e-08 1.69134e-06,-3.77994e-08 z "/>
<path fill="rgb(241,240,234)" stroke="rgb(241,240,234)" d="M 3.98578,3.3896 l -0.00160273,0.0367087 -0.00479598,0.0364293 -0.00795273,0.0358727 -0.011049,0.0350431 -0.0140611,0.0339468 -0.0169662,0.0325921 -0.0197422,0.0309894 -0.022368,0.0291508 -0.0248235,0.0270904 -0.0270901,0.0248239 -0.0291506,0.0223683 -0.0309892,0.0197426 -0.0325919,0.0169666 -0.0339466,0.0140615 -0.035043,0.0110494 -0.0358726,0.00795316 -0.0364293,0.00479642 -0.0367087,0.00160317 -3.38268e-06,2.71672e-11 -3.38268e-06,0 -3.38268e-06,-2.71672e-11 1.33227e-15,1.22953 1.97016,-3.94033 -1.97016,-4.44089e-16 -1.33227e-15,0.315664 3.38268e-06,-2.71672e-11 3.38268e-06,0 3.38268e-06,2.71672e-11 0.0367085,0.00160316 0.0364291,0.0047964 0.0358725,0.00795313 0.0350428,0.0110493 0.0339465,0.0140614 0.0325918,0.0169665 0.030989,0.0197425 0.0291504,0.0223682 0.02709,0.0248237 0.0248234,0.0270903 0.0223679,0.0291507 0.0197421,0.0309893 0.0169662,0.032592 0.014061,0.0339466 0.0110489,0.035043 0.0079527,0.0358726 0.00479596,0.0364292 0.00160272,0.0367086 1.86487e-06,1.55275 z "/>
<path fill="rgb(241,240,234)" stroke="rgb(241,240,234)" d="M 3.14341,1.83685 l -1.86487e-06,1.55275 0.00160273,0.0367087 0.00479598,0.0364293 0.00795273,0.0358727 0.011049,0.0350431 0.0140611,0.0339468 0.0169662,0.0325921 0.0197422,0.0309894 0.022368,0.0291508 0.0248235,0.0270904 0.0270901,0.0248239 0.0291506,0.0223683 0.0309892,0.0197426 0.0325919,0.0169666 0.0339466,0.0140615 0.035043,0.0110494 0.0358726,0.00795316 0.0364293,0.00479642 0.0367087,0.00160317 1.33227e-15,1.22953 -1.97016,-3.94033 1.97016,-4.44089e-16 -1.33227e-15,0.315664 -0.0367085,0.00160316 -0.0364291,0.0047964 -0.0358725,0.00795313 -0.0350428,0.0110493 -0.0339465,0.0140614 -0.0325918,0.0169665 -0.030989,0.0197425 -0.0291504,0.0223682 -0.02709,0.0248237 -0.0248234,0.0270903 -0.0223679,0.0291507 -0.0197421,0.0309893 -0.0169662,0.032592 -0.014061,0.0339466 -0.0110489,0.035043 -0.0079527,0.0358726 -0.00479596,0.0364292 -0.00160272,0.0367086 z "/>
<path fill="rgb(241,240,234)" stroke="rgb(241,240,234)" d="M 3.56459,0.2 l 3.26459,0 0.00883388,0.000390951 0.00876481,0.0011698 0.0086272,0.0019395 0.00842214,0.00269403 0.00815123,0.0034275 0.00781658,0.00413417 0.00742081,0.00480851 0.00696702,0.00544526 0.00645876,0.00603943 0.00589999,0.00658638 0.00529509,0.00708183 0.00464879,0.0075219 0.00396614,0.00790316 0.00325248,0.00822263 0.00251339,0.0084778 0.00175464,0.00866669 0.000982177,0.00878781 0.000202033,0.00884022 -0.000579691,0.0088235 -0.00135688,0.0087378 -0.00212346,0.00858377 -0.00287344,0.00836263 -0.00360095,0.0080761 -3.26459,6.52918 -0.00412828,0.00744612 -0.0047467,0.00706797 -0.00533072,0.00663859 -0.00587609,0.00616109 -0.00637887,0.00563892 -0.00683541,0.00507588 -0.0072424,0.00447605 -0.0075969,0.00384377 -0.00789632,0.00318363 -0.00813851,0.00250041 -0.00832171,0.00179907 -0.00844458,0.00108468 -0.00850624,0.000362437 0,-0.323607 3.10279,-6.20557 -3.10279,2.66454e-15 0,-0.2 z "/>
<path fill="rgb(241,240,234)" stroke="rgb(241,240,234)" d="M 3.56459,0.2 l 0,0.2 -3.10279,0 3.10279,6.20557 0,0.323607 -0.00850624,-0.000362437 -0.00844458,-0.00108468 -0.00832171,-0.00179907 -0.00813851,-0.00250041 -0.00789632,-0.00318363 -0.0075969,-0.00384377 -0.0072424,-0.00447605 -0.00683541,-0.00507588 -0.00637887,-0.00563892 -0.00587609,-0.00616109 -0.00533072,-0.00663859 -0.0047467,-0.00706797 -0.00412828,-0.00744612 -3.26459,-6.52918 -0.00360095,-0.0080761 -0.00287344,-0.00836263 -0.00212346,-0.00858377 -0.00135688,-0.0087378 -0.000579691,-0.0088235 0.000202033,-0.00884022 0.000982177,-0.00878781 0.00175464,-0.00866669 0.00251339,-0.0084778 0.00325248,-0.00822263 0.00396614,-0.00790316 0.00464879,-0.0075219 0.00529509,-0.00708183 0.00589999,-0.00658638 0.00645876,-0.00603943 0.00696702,-0.00544526 0.00742081,-0.00480851 0.00781658,-0.00413417 0.00815123,-0.0034275 0.00842214,-0.00269403 0.0086272,-0.0019395 0.00876481,-0.0011698 0.00883388,-0.000390951 3.26459,-8.88178e-16 z "/>
<path fill="rgb(187,30,16)" stroke="rgb(187,30,16)" d="M 3.56459,3.09162 l 1.69134e-06,6.97197e-09 1.69134e-06,6.98133e-09 1.69134e-06,6.9907e-09 -1.69791e-09,7.02283e-12 -1.69791e-09,7.02238e-12 -1.69791e-09,7.02283e-12 -5.06892e-06,-2.09651e-08 z "/>
<path fill="rgb(187,30,16)" stroke="rgb(187,30,16)" d="M 3.5646,3.09162 l -1.69134e-06,-7.01879e-09 -1.69134e-06,-7.00942e-09 -1.69134e-06,-7.00006e-09 1.69134e-06,-6.9907e-09 1.69134e-06,-6.98133e-09 1.69134e-06,-6.97197e-09 -8.88178e-16,4.19723e-08 z "/>
<path fill="rgb(187,30,16)" stroke="rgb(187,30,16)" d="M 3.56459,3.70266 l -0.0265527,-0.0012663 -0.0263421,-0.00356962 -0.0259321,-0.00584593 -0.0253258,-0.00807797 -0.0245278,-0.0102489 -0.023544,-0.0123422 -0.0223821,-0.014342 -0.0210506,-0.0162333 -0.0195599,-0.0180017 -0.0179214,-0.0196343 -0.0161468,-0.0211178 -0.0142499,-0.0224415 -0.0122452,-0.0235952 -0.0101478,-0.0245704 -0.00797349,-0.0253595 -0.00573886,-0.0259566 -0.00346079,-0.0263572 -0.00115652,-0.0265583 0.00115649,-0.026558 0.00346072,-0.0263569 0.00573874,-0.0259563 0.00797332,-0.0253592 0.0101475,-0.0245702 0.0122449,-0.0235951 0.0142496,-0.0224413 0.0161464,-0.0211177 0.017921,-0.0196342 0.0195599,-0.0180021 0.0210507,-0.0162336 0.0223822,-0.0143423 0.0235442,-0.0123424 0.024528,-0.0102491 0.0253261,-0.00807814 0.0259324,-0.00584605 0.0263424,-0.0035697 0.026553,-0.00126632 5.07911e-06,2.10072e-08 0.0265527,0.00126674 0.0263421,0.00357006 0.025932,0.00584636 0.0253257,0.00807839 0.0245276,0.0102493 0.0235438,0.0123426 0.0223818,0.0143424 0.0210504,0.0162337 0.0195596,0.0180021 0.0179207,0.0196341 0.0161461,0.0211176 0.0142493,0.0224412 0.0122447,0.0235949 0.0101473,0.0245699 0.00797316,0.025359 0.00573862,0.0259561 0.00346064,0.0263567 0.00115647,0.0265577 -0.00115649,0.026558 -0.00346072,0.0263569 -0.00573874,0.0259563 -0.00797332,0.0253592 -0.0101475,0.0245702 -0.0122449,0.0235951 -0.0142496,0.0224413 -0.0161464,0.0211177 -0.017921,0.0196342 -0.0195599,0.0180021 -0.0210507,0.0162336 -0.0223822,0.0143423 -0.0235442,0.0123424 -0.024528,0.0102491 -0.0253261,0.00807814 -0.0259324,0.00584605 -0.0263424,0.0035697 -0.026553,0.00126632 z "/>
<path fill="rgb(187,30,16)" stroke="rgb(187,30,16)" d="M 3.56459,3.70266 l -0.0265521,-0.00126669 -0.0263415,-0.00356992 -0.0259315,-0.00584612 -0.0253252,-0.00807806 -0.0245272,-0.0102489 -0.0235434,-0.0123421 -0.0223815,-0.0143418 -0.0210501,-0.016233 -0.0195594,-0.0180014 0.0195599,0.0180017 0.0210506,0.0162333 0.0223821,0.014342 0.023544,0.0123422 0.0245278,0.0102489 0.0253258,0.00807797 0.0259321,0.00584593 0.0263421,0.00356962 0.0265527,0.0012663 -1.69134e-06,6.9907e-09 -1.69134e-06,6.98133e-09 -1.69134e-06,6.97197e-09 z "/>
<path fill="rgb(42,41,42)" stroke="rgb(42,41,42)" d="M 3.56459,3.09162 l 1.69134e-06,6.97197e-09 1.69134e-06,6.98133e-09 1.69134e-06,6.9907e-09 1.69134e-06,-6.9907e-09 1.69134e-06,-6.98133e-09 1.69134e-06,-6.97197e-09 0,-0.186205 -1.69134e-06,-3.77807e-08 -1.69134e-06,-3.779e-08 -1.69134e-06,-3.77994e-08 -1.69134e-06,3.77994e-08 -1.69134e-06,3.779e-08 -1.69134e-06,3.77807e-08 0,0.186205 z "/>
<path fill="rgb(42,41,42)" stroke="rgb(42,41,42)" d="M 3.56459,2.29452 l -8.88178e-16,2.26825e-07 1.69102e-06,-3.78205e-08 1.69102e-06,-3.78111e-08 1.69102e-06,-3.78018e-08 -5.07307e-06,-1.13391e-07 z "/>
<path fill="rgb(42,41,42)" stroke="rgb(42,41,42)" d="M 3.56459,1.41566 l 3.38268e-06,5.43345e-11 3.38268e-06,8.15019e-11 3.38268e-06,1.08669e-10 0,-2.44505e-10 -3.38268e-06,-2.71672e-11 -3.38268e-06,0 -3.38268e-06,2.71672e-11 z "/>
<path fill="rgb(42,41,42)" stroke="rgb(42,41,42)" d="M 3.56459,2.12088 l -1.69134e-06,3.77994e-08 -1.69134e-06,3.779e-08 -1.69134e-06,3.77807e-08 0,0.173643 1.69134e-06,3.77807e-08 1.69134e-06,3.779e-08 1.69134e-06,3.77994e-08 1.69134e-06,-3.77994e-08 1.69134e-06,-3.779e-08 1.69134e-06,-3.77807e-08 0,-0.173643 -1.69134e-06,-3.77807e-08 -1.69134e-06,-3.779e-08 -1.69134e-06,-3.77994e-08 z "/>
<path fill="rgb(42,41,42)" stroke="rgb(42,41,42)" d="M 3.56459,1.41566 l 8.88178e-16,0.0943268 1.69134e-06,3.77807e-08 1.69134e-06,3.779e-08 1.69134e-06,3.77994e-08 1.69134e-06,-3.77994e-08 1.69134e-06,-3.779e-08 1.69134e-06,-3.77807e-08 0,-0.0943268 -3.38268e-06,-1.08669e-10 -3.38268e-06,-8.15019e-11 -3.38268e-06,-5.43345e-11 z "/>
<path fill="rgb(42,41,42)" stroke="rgb(42,41,42)" d="M 3.56459,3.81079 l 3.38268e-06,2.71672e-11 3.38268e-06,0 3.38268e-06,-2.71672e-11 0,-2.44504e-10 -3.38268e-06,1.08669e-10 -3.38268e-06,8.15015e-11 -3.38268e-06,5.43343e-11 z "/>
<path fill="rgb(42,41,42)" stroke="rgb(42,41,42)" d="M 3.56459,1.50999 l -8.88178e-16,2.26825e-07 1.69102e-06,-3.78205e-08 1.69102e-06,-3.78111e-08 1.69102e-06,-3.78018e-08 -5.07307e-06,-1.13391e-07 z "/>
<path fill="rgb(42,41,42)" stroke="rgb(42,41,42)" d="M 3.56459,3.81079 l 3.38268e-06,-5.43343e-11 3.38268e-06,-8.15015e-11 3.38268e-06,-1.08669e-10 0,-0.108134 -1.69134e-06,-6.97197e-09 -1.69134e-06,-6.98133e-09 -1.69134e-06,-6.9907e-09 -1.69134e-06,6.9907e-09 -1.69134e-06,6.98133e-09 -1.69134e-06,6.97197e-09 -8.88178e-16,0.108134 z "/>
<path fill="rgb(42,41,42)" stroke="rgb(42,41,42)" d="M 3.14341,1.83685 l -1.86487e-06,1.55275 0.00160273,0.0367087 0.00479598,0.0364293 0.00795273,0.0358727 0.011049,0.0350431 0.0140611,0.0339468 0.0169662,0.0325921 0.0197422,0.0309894 0.022368,0.0291508 0.0248235,0.0270904 0.0270901,0.0248239 0.0291506,0.0223683 0.0309892,0.0197426 0.0325919,0.0169666 0.0339466,0.0140615 0.035043,0.0110494 0.0358726,0.00795316 0.0364293,0.00479642 0.0367087,0.00160317 8.88178e-16,-0.108134 -0.0265521,-0.00126669 -0.0263415,-0.00356992 -0.0259315,-0.00584612 -0.0253252,-0.00807806 -0.0245272,-0.0102489 -0.0235434,-0.0123421 -0.0223815,-0.0143418 -0.0210501,-0.016233 -0.0195594,-0.0180014 -0.0179214,-0.0196343 -0.0161468,-0.0211178 -0.0142499,-0.0224415 -0.0122452,-0.0235952 -0.0101478,-0.0245704 -0.00797349,-0.0253595 -0.00573886,-0.0259566 -0.00346079,-0.0263572 -0.00115652,-0.0265583 0.00115649,-0.026558 0.00346072,-0.0263569 0.00573874,-0.0259563 0.00797332,-0.0253592 0.0101475,-0.0245702 0.0122449,-0.0235951 0.0142496,-0.0224413 0.0161464,-0.0211177 0.017921,-0.0196342 0.0195599,-0.0180021 0.0210507,-0.0162336 0.0223822,-0.0143423 0.0235442,-0.0123424 0.024528,-0.0102491 0.0253261,-0.00807814 0.0259324,-0.00584605 0.0263424,-0.0035697 0.026553,-0.00126632 -5.06892e-06,-2.09651e-08 0,-0.186205 -0.0262174,-0.00171645 -0.025973,-0.0039626 -0.0255365,-0.00617944 -0.0249111,-0.00835059 -0.0241016,-0.01046 -0.0231138,-0.012492 -0.0219551,-0.0144317 -0.020634,-0.0162646 -0.0191603,-0.0179772 -0.0175456,-0.0195578 -0.0158003,-0.020993 -0.0139382,-0.0222729 -0.011973,-0.0233881 -0.00991919,-0.0243303 -0.00779205,-0.0250926 -0.00560728,-0.0256693 -0.00338104,-0.0260562 -0.0011298,-0.0262503 0.0011298,-0.0262503 0.00338104,-0.0260562 0.00560728,-0.0256693 0.00779205,-0.0250926 0.00991919,-0.0243303 0.011973,-0.0233881 0.0139382,-0.0222729 0.0158003,-0.020993 0.0175456,-0.0195578 0.0191603,-0.0179772 0.020634,-0.0162646 0.0219551,-0.0144317 0.0231138,-0.012492 0.0241016,-0.01046 0.0249111,-0.00835059 0.0255365,-0.00617944 0.025973,-0.0039626 0.0262174,-0.00171645 0,-0.173643 -0.0262174,-0.00171645 -0.025973,-0.0039626 -0.0255365,-0.00617944 -0.0249111,-0.00835059 -0.0241016,-0.01046 -0.0231138,-0.012492 -0.0219551,-0.0144317 -0.020634,-0.0162646 -0.0191603,-0.0179772 -0.0175456,-0.0195578 -0.0158003,-0.020993 -0.0139382,-0.0222729 -0.011973,-0.0233881 -0.00991919,-0.0243303 -0.00779205,-0.0250926 -0.00560728,-0.0256693 -0.00338104,-0.0260562 -0.0011298,-0.0262503 0.0011298,-0.0262503 0.00338104,-0.0260562 0.00560728,-0.0256693 0.00779205,-0.0250926 0.00991919,-0.0243303 0.011973,-0.0233881 0.0139382,-0.0222729 0.0158003,-0.020993 0.0175456,-0.0195578 0.0191603,-0.0179772 0.020634,-0.0162646 0.0219551,-0.0144317 0.0231138,-0.012492 0.0241016,-0.01046 0.0249111,-0.00835059 0.0255365,-0.00617944 0.025973,-0.0039626 0.0262174,-0.00171645 -8.88178e-16,-0.0943268 -0.0367085,0.00160316 -0.0364291,0.0047964 -0.0358725,0.00795313 -0.0350428,0.0110493 -0.0339465,0.0140614 -0.0325918,0.0169665 -0.030989,0.0197425 -0.0291504,0.0223682 -0.02709,0.0248237 -0.0248234,0.0270903 -0.0223679,0.0291507 -0.0197421,0.0309893 -0.0169662,0.032592 -0.014061,0.0339466 -0.0110489,0.035043 -0.0079527,0.0358726 -0.00479596,0.0364292 -0.00160272,0.0367086 z "/>
<path fill="rgb(42,41,42)" stroke="rgb(42,41,42)" d="M 3.5646,1.50999 l -1.69134e-06,-3.78275e-08 -1.69134e-06,-3.78182e-08 -1.69134e-06,-3.78088e-08 1.69134e-06,-3.77994e-08 1.69134e-06,-3.779e-08 1.69134e-06,-3.77807e-08 0,-0.0943268 0.0367079,0.001604 0.0364285,0.00479713 0.0358718,0.00795375 0.0350421,0.0110498 0.0339457,0.0140618 0.032591,0.0169668 0.0309882,0.0197427 0.0291497,0.0223683 0.0270893,0.0248237 0.0248227,0.0270902 0.0223673,0.0291505 0.0197416,0.030989 0.0169657,0.0325916 0.0140606,0.0339462 0.0110486,0.0350425 0.00795245,0.0358721 0.00479581,0.0364286 0.00160267,0.036708 1.86487e-06,1.55275 -0.00160268,0.0367082 -0.00479583,0.0364288 -0.00795249,0.0358722 -0.0110486,0.0350426 -0.0140607,0.0339464 -0.0169657,0.0325917 -0.0197417,0.0309891 -0.0223674,0.0291506 -0.0248228,0.0270903 -0.0270894,0.0248238 -0.0291498,0.0223684 -0.0309884,0.0197428 -0.0325911,0.0169669 -0.0339458,0.0140619 -0.0350422,0.0110499 -0.0358719,0.00795378 -0.0364286,0.00479715 -0.0367081,0.001604 0,-0.108134 -1.69134e-06,-6.97197e-09 -1.69134e-06,-6.98133e-09 -1.69134e-06,-6.9907e-09 0.026553,-0.00126632 0.0263424,-0.0035697 0.0259324,-0.00584605 0.0253261,-0.00807814 0.024528,-0.0102491 0.0235442,-0.0123424 0.0223822,-0.0143423 0.0210507,-0.0162336 0.0195599,-0.0180021 0.017921,-0.0196342 0.0161464,-0.0211177 0.0142496,-0.0224413 0.0122449,-0.0235951 0.0101475,-0.0245702 0.00797332,-0.0253592 0.00573874,-0.0259563 0.00346072,-0.0263569 0.00115649,-0.026558 -0.00115647,-0.0265577 -0.00346064,-0.0263567 -0.00573862,-0.0259561 -0.00797316,-0.025359 -0.0101473,-0.0245699 -0.0122447,-0.0235949 -0.0142493,-0.0224412 -0.0161461,-0.0211176 -0.0179207,-0.0196341 -0.0195596,-0.0180021 -0.0210504,-0.0162337 -0.0223818,-0.0143424 -0.0235438,-0.0123426 -0.0245276,-0.0102493 -0.0253257,-0.00807839 -0.025932,-0.00584636 -0.0263421,-0.00357006 -0.0265527,-0.00126674 8.88178e-16,-4.19723e-08 0,-0.186205 -1.69134e-06,-3.77807e-08 -1.69134e-06,-3.779e-08 -1.69134e-06,-3.77994e-08 0.0262182,-0.00171608 0.0259739,-0.00396237 0.0255374,-0.00617936 0.024912,-0.00835065 0.0241024,-0.0104602 0.0231145,-0.0124924 0.0219557,-0.0144321 0.0206346,-0.0162652 0.0191608,-0.0179779 0.0175453,-0.0195577 0.0158,-0.0209929 0.0139379,-0.0222728 0.0119727,-0.0233879 0.00991898,-0.0243301 0.00779189,-0.0250924 0.00560716,-0.0256691 0.00338097,-0.0260559 0.00112978,-0.02625 -0.00112975,-0.0262498 -0.0033809,-0.0260556 -0.00560704,-0.0256688 -0.00779172,-0.0250921 -0.00991877,-0.0243299 -0.0119725,-0.0233877 -0.0139376,-0.0222726 -0.0157997,-0.0209928 -0.0175449,-0.0195577 -0.0191604,-0.0179779 -0.0206342,-0.0162652 -0.0219554,-0.0144322 -0.0231142,-0.0124925 -0.024102,-0.0104604 -0.0249116,-0.0083509 -0.025537,-0.00617966 -0.0259735,-0.00396273 -0.0262179,-0.00171648 -1.69134e-06,-3.78275e-08 -1.69134e-06,-3.78182e-08 -1.69134e-06,-3.78088e-08 1.69134e-06,-3.77994e-08 1.69134e-06,-3.779e-08 1.69134e-06,-3.77807e-08 0,-0.173643 -1.69134e-06,-3.77807e-08 -1.69134e-06,-3.779e-08 -1.69134e-06,-3.77994e-08 0.0262182,-0.00171608 0.0259739,-0.00396237 0.0255374,-0.00617936 0.024912,-0.00835065 0.0241024,-0.0104602 0.0231145,-0.0124924 0.0219557,-0.0144321 0.0206346,-0.0162652 0.0191608,-0.0179779 0.0175453,-0.0195577 0.0158,-0.0209929 0.0139379,-0.0222728 0.0119727,-0.0233879 0.00991898,-0.0243301 0.00779189,-0.0250924 0.00560716,-0.0256691 0.00338097,-0.0260559 0.00112978,-0.02625 -0.00112975,-0.0262498 -0.0033809,-0.0260556 -0.00560704,-0.0256688 -0.00779172,-0.0250921 -0.00991877,-0.0243299 -0.0119725,-0.0233877 -0.0139376,-0.0222726 -0.0157997,-0.0209928 -0.0175449,-0.0195577 -0.0191604,-0.0179779 -0.0206342,-0.0162652 -0.0219554,-0.0144322 -0.0231142,-0.0124925 -0.024102,-0.0104604 -0.0249116,-0.0083509 -0.025537,-0.00617966 -0.0259735,-0.00396273 -0.0262179,-0.00171648 z "/>
<path fill="rgb(42,41,42)" stroke="rgb(42,41,42)" d="M 3.98578,3.3896 l -0.00160273,0.0367087 -0.00479598,0.0364293 -0.00795273,0.0358727 -0.011049,0.0350431 -0.0140611,0.0339468 -0.0169662,0.0325921 -0.0197422,0.0309894 -0.022368,0.0291508 -0.0248235,0.0270904 -0.0270901,0.0248239 -0.0291506,0.0223683 -0.0309892,0.0197426 -0.0325919,0.0169666 -0.0339466,0.0140615 -0.035043,0.0110494 -0.0358726,0.00795316 -0.0364293,0.00479642 -0.0367087,0.00160317 0,-2.44504e-10 0.0367081,-0.001604 0.0364286,-0.00479715 0.0358719,-0.00795378 0.0350422,-0.0110499 0.0339458,-0.0140619 0.0325911,-0.0169669 0.0309884,-0.0197428 0.0291498,-0.0223684 0.0270894,-0.0248238 0.0248228,-0.0270903 0.0223674,-0.0291506 0.0197417,-0.0309891 0.0169657,-0.0325917 0.0140607,-0.0339464 0.0110486,-0.0350426 0.00795249,-0.0358722 0.00479583,-0.0364288 0.00160268,-0.0367082 -1.86487e-06,-1.55275 -0.00160267,-0.036708 -0.00479581,-0.0364286 -0.00795245,-0.0358721 -0.0110486,-0.0350425 -0.0140606,-0.0339462 -0.0169657,-0.0325916 -0.0197416,-0.030989 -0.0223673,-0.0291505 -0.0248227,-0.0270902 -0.0270893,-0.0248237 -0.0291497,-0.0223683 -0.0309882,-0.0197427 -0.032591,-0.0169668 -0.0339457,-0.0140618 -0.0350421,-0.0110498 -0.0358718,-0.00795375 -0.0364285,-0.00479713 -0.0367079,-0.001604 0,-2.44505e-10 0.0367085,0.00160316 0.0364291,0.0047964 0.0358725,0.00795313 0.0350428,0.0110493 0.0339465,0.0140614 0.0325918,0.0169665 0.030989,0.0197425 0.0291504,0.0223682 0.02709,0.0248237 0.0248234,0.0270903 0.0223679,0.0291507 0.0197421,0.0309893 0.0169662,0.032592 0.014061,0.0339466 0.0110489,0.035043 0.0079527,0.0358726 0.00479596,0.0364292 0.00160272,0.0367086 1.86487e-06,1.55275 z "/>
<path fill="rgb(187,30,16)" stroke="rgb(187,30,16)" d="M 3.56459,6.60557 l 0,-1.56525 1.97016,-3.94033 -1.97016,-4.44089e-16 0,-0.7 3.10279,-2.66454e-15 -3.10279,6.20557 z "/>
<path fill="rgb(187,30,16)" stroke="rgb(187,30,16)" d="M 3.56459,0.2 l 0,-0.2 3.26459,-1.77636e-15 0.0265016,0.00117285 0.0262944,0.00350939 0.0258816,0.00581849 0.0252664,0.00808209 0.0244537,0.0102825 0.0234497,0.0124025 0.0222624,0.0144255 0.0209011,0.0163358 0.0193763,0.0181183 0.0177,0.0197591 0.0158853,0.0212455 0.0139464,0.0225657 0.0118984,0.0237095 0.00975744,0.0246679 0.00754016,0.0254334 0.00526392,0.0260001 0.00294653,0.0263634 0.000606098,0.0265207 -0.00173907,0.0264705 -0.00407065,0.0262134 -0.00637039,0.0257513 -0.00862033,0.0250879 -0.0108029,0.0242283 -3.26459,6.52918 -0.0123848,0.0223384 -0.0142401,0.0212039 -0.0159921,0.0199158 -0.0176283,0.0184833 -0.0191366,0.0169168 -0.0205062,0.0152277 -0.0217272,0.0134282 -0.0227907,0.0115313 -0.023689,0.00955089 -0.0244155,0.00750124 -0.0249651,0.00539721 -0.0253337,0.00325405 -0.0255187,0.00108731 0,-0.2 0.00850624,-0.000362437 0.00844458,-0.00108468 0.00832171,-0.00179907 0.00813851,-0.00250041 0.00789632,-0.00318363 0.0075969,-0.00384377 0.0072424,-0.00447605 0.00683541,-0.00507588 0.00637887,-0.00563892 0.00587609,-0.00616109 0.00533072,-0.00663859 0.0047467,-0.00706797 0.00412828,-0.00744612 3.26459,-6.52918 0.00360095,-0.0080761 0.00287344,-0.00836263 0.00212346,-0.00858377 0.00135688,-0.0087378 0.000579691,-0.0088235 -0.000202033,-0.00884022 -0.000982177,-0.00878781 -0.00175464,-0.00866669 -0.00251339,-0.0084778 -0.00325248,-0.00822263 -0.00396614,-0.00790316 -0.00464879,-0.0075219 -0.00529509,-0.00708183 -0.00589999,-0.00658638 -0.00645876,-0.00603943 -0.00696702,-0.00544526 -0.00742081,-0.00480851 -0.00781658,-0.00413417 -0.00815123,-0.0034275 -0.00842214,-0.00269403 -0.0086272,-0.0019395 -0.00876481,-0.0011698 -0.00883388,-0.000390951 -3.26459,0 z "/>
<path fill="rgb(187,30,16)" stroke="rgb(187,30,16)" d="M 3.56459,0.2 l -3.26459,8.88178e-16 -0.00883388,0.000390951 -0.00876481,0.0011698 -0.0086272,0.0019395 -0.00842214,0.00269403 -0.00815123,0.0034275 -0.00781658,0.00413417 -0.00742081,0.00480851 -0.00696702,0.00544526 -0.00645876,0.00603943 -0.00589999,0.00658638 -0.00529509,0.00708183 -0.00464879,0.0075219 -0.00396614,0.00790316 -0.00325248,0.00822263 -0.00251339,0.0084778 -0.00175464,0.00866669 -0.000982177,0.00878781 -0.000202033,0.00884022 0.000579691,0.0088235 0.00135688,0.0087378 0.00212346,0.00858377 0.00287344,0.00836263 0.00360095,0.0080761 3.26459,6.52918 0.00412828,0.00744612 0.0047467,0.00706797 0.00533072,0.00663859 0.00587609,0.00616109 0.00637887,0.00563892 0.00683541,0.00507588 0.0072424,0.00447605 0.0075969,0.00384377 0.00789632,0.00318363 0.00813851,0.00250041 0.00832171,0.00179907 0.00844458,0.00108468 0.00850624,0.000362437 0,0.2 -0.0255187,-0.00108731 -0.0253337,-0.00325405 -0.0249651,-0.00539721 -0.0244155,-0.00750124 -0.023689,-0.00955089 -0.0227907,-0.0115313 -0.0217272,-0.0134282 -0.0205062,-0.0152277 -0.0191366,-0.0169168 -0.0176283,-0.0184833 -0.0159921,-0.0199158 -0.0142401,-0.0212039 -0.0123848,-0.0223384 -3.26459,-6.52918 -0.0108029,-0.0242283 -0.00862033,-0.0250879 -0.00637039,-0.0257513 -0.00407065,-0.0262134 -0.00173907,-0.0264705 0.000606098,-0.0265207 0.00294653,-0.0263634 0.00526392,-0.0260001 0.00754016,-0.0254334 0.00975744,-0.0246679 0.0118984,-0.0237095 0.0139464,-0.0225657 0.0158853,-0.0212455 0.0177,-0.0197591 0.0193763,-0.0181183 0.0209011,-0.0163358 0.0222624,-0.0144255 0.0234497,-0.0124025 0.0244537,-0.0102825 0.0252664,-0.00808209 0.0258816,-0.00581849 0.0262944,-0.00350939 0.0265016,-0.00117285 3.26459,0 0,0.2 z "/>
<path fill="rgb(187,30,16)" stroke="rgb(187,30,16)" d="M 3.56459,6.60557 l -3.10279,-6.20557 3.10279,0 0,0.7 -1.97016,4.44089e-16 1.97016,3.94033 0,1.56525 z "/>
</g></g></svg>
