<?xml version="1.0" encoding="UTF-8" standalone="no"?>
<!DOCTYPE svg PUBLIC "-//W3C//DTD SVG 1.1//EN" "http://www.w3.org/Graphics/SVG/1.1/DTD/svg11-flat.dtd"
[

]>
<svg xmlns="http://www.w3.org/2000/svg"  viewBox="-0.05625 -0.05625 4.6125 7.6125"><g fill="none" stroke="black" stroke-width="0.0125" transform="translate(0,7.5) scale(1, -1)">
<g id="Output" >
<path fill="rgb(241,240,234)" stroke="rgb(241,240,234)" d="M 2.22043,2.83714 l -3.8053e-05,0.000871557 -0.000113869,0.000864924 -0.000188819,0.000851709 -0.000262332,0.000832011 -0.000333848,0.000805981 -0.000402824,0.000773817 -0.000468734,0.000735764 -0.000531076,0.000692112 -0.000589377,0.000643192 -0.000643192,0.000589377 -0.000692112,0.000531076 -0.000735764,0.000468734 -0.000773817,0.000402824 -0.000805981,0.000333848 -0.000832011,0.000262332 -0.000851709,0.000188819 -0.000864924,0.000113869 -0.000871557,3.8053e-05 -0.276204,0 -0.000871557,3.8053e-05 -0.000864924,0.000113869 -0.000851709,0.000188819 -0.000832011,0.000262332 -0.000805981,0.000333848 -0.000773817,0.000402824 -0.000735764,0.000468734 -0.000692112,0.000531076 -0.000643192,0.000589377 -0.000589377,0.000643192 -0.000531076,0.000692112 -0.000468734,0.000735764 -0.000402824,0.000773817 -0.000333848,0.000805981 -0.000262332,0.000832011 -0.000188819,0.000851709 -0.000113869,0.000864924 -3.8053e-05,0.000871557 0,0.0497988 -0.0133545,0.000605658 -0.0133575,-0.000534616 -0.0132634,-0.001671 -0.0130727,-0.00279523 -0.0127869,-0.00389912 -0.0124081,-0.00497464 -0.0119391,-0.00601396 -0.0113831,-0.00700953 -0.0107443,-0.00795411 -0.0100274,-0.0088408 -0.00923752,-0.00966318 -0.00838042,-0.0104153 -0.00746234,-0.0110915 -0.00648997,-0.0116871 -0.00547038,-0.0121977 -0.00441099,-0.0126195 -0.00331951,-0.0129495 -0.00220387,-0.0131853 -0.0010722,-0.0133251 6.72696e-05,-0.013368 0.00120625,-0.0133137 0.00233646,-0.0131624 0.0868228,-0.0491469 0,-0.046559 4.93011e-05,-0.00112918 0.000147528,-0.00112059 0.000244632,-0.00110346 0.000339874,-0.00107794 0.00043253,-0.00104422 0.000521894,-0.00100255 0.000607286,-0.000953248 0.000688056,-0.000896692 0.00076359,-0.000833312 0.000833312,-0.00076359 0.000896692,-0.000688056 0.000953248,-0.000607286 0.00100255,-0.000521894 0.00104422,-0.00043253 0.00107794,-0.000339874 0.00110346,-0.000244632 0.00112059,-0.000147528 0.00112918,-4.93011e-05 0.00112918,4.93011e-05 0.00112059,0.000147528 0.00110346,0.000244632 0.00107794,0.000339874 0.00104422,0.00043253 0.00100255,0.000521894 0.000953248,0.000607286 0.000896692,0.000688056 0.000833312,0.00076359 0.00076359,0.000833312 0.000688056,0.000896692 0.000607286,0.000953248 0.000521894,0.00100255 0.00043253,0.00104422 0.000339874,0.00107794 0.000244632,0.00110346 0.000147528,0.00112059 4.93011e-05,0.00112918 0,0.0968631 3.8053e-05,0.000871557 0.000113869,0.000864924 0.000188819,0.000851709 0.000262332,0.000832011 0.000333848,0.000805981 0.000402824,0.000773817 0.000468734,0.000735764 0.000531076,0.000692112 0.000589377,0.000643192 0.000643192,0.000589377 0.000692112,0.000531076 0.000735764,0.000468734 0.000773817,0.000402824 0.000805981,0.000333848 0.000832011,0.000262332 0.000851709,0.000188819 0.000864924,0.000113869 0.000871557,3.8053e-05 0.330244,0 0.000871557,3.8053e-05 0.000864924,0.000113869 0.000851709,0.000188819 0.000832011,0.000262332 0.000805981,0.000333848 0.000773817,0.000402824 0.000735764,0.000468734 0.000692112,0.000531076 0.000643192,0.000589377 0.000589377,0.000643192 0.000531076,0.000692112 0.000468734,0.000735764 0.000402824,0.000773817 0.000333848,0.000805981 0.000262332,0.000832011 0.000188819,0.000851709 0.000113869,0.000864924 3.8053e-05,0.000871557 0,0.0991097 z "/>
<path fill="rgb(241,240,234)" stroke="rgb(241,240,234)" d="M 3.65834,2.31017 l 0.00079102,0.000386935 0.000753914,0.000455023 0.000710961,0.000519583 0.000662495,0.000580114 0.000608892,0.000636147 0.000550567,0.000687246 0.000487973,0.000733017 0.000421595,0.000773103 0.000351948,0.000807195 0.000279572,0.000835027 0.000205028,0.000856385 0.000128895,0.000871101 5.17613e-05,0.000879063 -2.57734e-05,0.000880209 -0.000103108,0.000874529 -0.000179644,0.000862067 -0.000254786,0.000842921 -0.000327952,0.000817238 -0.000398576,0.000785219 -0.000466109,0.00074711 -0.000530027,0.000703209 -0.000589836,0.000653854 -0.000645071,0.000599429 -0.000695303,0.000540356 -0.000740144,0.000477093 -0.000779246,0.00041013 -0.000812305,0.000339988 -0.000839066,0.000267208 -0.00085932,0.000192357 -0.00087291,0.000116014 -0.000879732,3.87716e-05 -0.868308,0 -0.000871557,3.8053e-05 -0.000864924,0.000113869 -0.000851709,0.000188819 -0.000832011,0.000262332 -0.000805981,0.000333848 -0.000773817,0.000402824 -0.000735764,0.000468734 -0.000692112,0.000531076 -0.000643192,0.000589377 -0.000589377,0.000643192 -0.000531076,0.000692112 -0.000468734,0.000735764 -0.000402824,0.000773817 -0.000333848,0.000805981 -0.000262332,0.000832011 -0.000188819,0.000851709 -0.000113869,0.000864924 -3.8053e-05,0.000871557 0,0.0353762 -3.8053e-05,0.000871557 -0.000113869,0.000864924 -0.000188819,0.000851709 -0.000262332,0.000832011 -0.000333848,0.000805981 -0.000402824,0.000773817 -0.000468734,0.000735764 -0.000531076,0.000692112 -0.000589377,0.000643192 -0.000643192,0.000589377 -0.000692112,0.000531076 -0.000735764,0.000468734 -0.000773817,0.000402824 -0.000805981,0.000333848 -0.000832011,0.000262332 -0.000851709,0.000188819 -0.000864924,0.000113869 -0.000871557,3.8053e-05 -0.113375,0 -0.0267486,-0.0119652 -0.025609,-0.014242 -0.024276,-0.0164112 -0.0227598,-0.0184566 -0.0210717,-0.0203626 -0.0192246,-0.0221149 -0.0172323,-0.0237002 -0.0151099,-0.0251067 -0.0128735,-0.0263235 -0.0105399,-0.0273416 -0.00812665,-0.0281534 -0.00565209,-0.0287525 -0.00313486,-0.0291346 -0.000593964,-0.0292968 0.00195142,-0.0292378 0.00448207,-0.028958 0.00697888,-0.0284596 0.00942301,-0.0277464 0.011796,-0.0268237 0.0140799,-0.0256984 0.0162576,-0.0243792 0.0183125,-0.0228759 0.0202291,-0.0212 0.021993,-0.0193639 0.0235909,-0.0173817 0.0250107,-0.0152682 0.0262417,-0.0130395 0.000846334,-0.000330468 0.000872835,-0.000252289 0.000892131,-0.000172027 0.000904062,-9.03443e-05 0.00090853,-7.9163e-06 0.000905499,7.4577e-05 0.000894993,0.000156455 0.000877099,0.000237041 0.000851964,0.00031567 0.000819796,0.000391694 0.000780861,0.000464484 0.325662,0.20125 0.336608,0.182352 0.346459,0.162861 z "/>
<path fill="rgb(241,240,234)" stroke="rgb(241,240,234)" d="M 1.73347,1.77732 l -0.00654938,0.0212578 -0.0144871,0.0676407 0.0339061,0.0393507 0.030308,0.0421844 0.0264743,0.0446902 0.0224348,0.0468485 0.0182208,0.0486426 0.0138652,0.0500585 0.00940184,0.0510853 0.00486536,0.0517149 0.000291051,0.0519424 -0.00428552,0.0517661 -0.00882877,0.0511874 -0.0133034,0.0502107 -0.0176746,0.0488437 -0.0219084,0.047097 -0.0259718,0.044984 -0.0298334,0.0425214 -0.033463,0.0397282 -0.00625566,0.00622034 -0.00677954,0.0056448 -0.00725065,0.00502533 -0.00766534,0.00436676 -0.00802036,0.00367419 -0.00831297,0.00295304 -0.00854088,0.0022089 -0.00870233,0.00144757 -0.00879604,0.000674971 -0.0088213,-0.000102878 -0.00877791,-0.000879927 -0.0086662,-0.00165013 -0.00848705,-0.00240749 -0.00824184,-0.00314611 -0.00793249,-0.00386024 -0.00756141,-0.00454434 -0.00713148,-0.00519307 -0.00664605,-0.00580138 -0.0395121,-0.0376875 0,-0.858698 0.198639,0 z "/>
<path fill="rgb(241,240,234)" stroke="rgb(241,240,234)" d="M 3.53483,1.52489 l 0,0.150469 -0.0135051,0.00132102 -0.0394507,0.000386855 -0.0393329,-0.00307004 -0.0389129,-0.00650334 -0.0381937,-0.00988665 -0.037181,-0.013194 -0.0358824,-0.0163999 -0.0343081,-0.0194797 -0.0324701,-0.0224098 -0.0303824,-0.0251677 -0.0280613,-0.0277321 -0.0255244,-0.0300834 -0.0227914,-0.0322034 -0.0198832,-0.0340759 -0.0168221,-0.0356864 -0.0136317,-0.0370227 -0.212281,0 0.0144384,0.055586 0.019249,0.0541087 0.0239118,0.0522159 0.028391,0.0499222 0.0326522,0.0472452 0.0366627,0.0442054 0.0403918,0.0408262 0.0438106,0.0371336 0.045163,0.0319325 -0.202404,0 -0.144904,-0.083537 -0.258749,-0.18219 0,-0.459771 0.296945,0 0.000871557,3.8053e-05 0.000864924,0.000113869 0.000851709,0.000188819 0.000832011,0.000262332 0.000805981,0.000333848 0.000773817,0.000402824 0.000735764,0.000468734 0.000692112,0.000531076 0.000643192,0.000589377 0.000589377,0.000643192 0.000531076,0.000692112 0.000468734,0.000735764 0.000402824,0.000773817 0.000333848,0.000805981 0.000262332,0.000832011 0.000188819,0.000851709 0.000113869,0.000864924 3.8053e-05,0.000871557 0,0.0438611 0.222167,0 0.012319,-0.0374799 0.0155545,-0.0362569 0.0186704,-0.0347552 0.0216428,-0.0329863 0.0244488,-0.0309639 0.0270669,-0.0287035 0.0294769,-0.0262224 0.0316604,-0.0235398 0.0336006,-0.0206763 0.0352824,-0.0176538 0.0366931,-0.0144956 0.0378217,-0.011226 0.0386596,-0.00787015 0.0392004,-0.00445378 0.0394398,-0.00100318 0.0293501,0.00183001 0,0.1507 -0.0183746,-0.00198742 -0.0260771,-0.000541773 -0.0260256,0.00172533 -0.0257773,0.00397939 -0.0253343,0.00620337 -0.0246997,0.00838046 -0.0238784,0.0104942 -0.0228766,0.0125286 -0.0217019,0.0144683 -0.0203632,0.0162987 -0.0188705,0.0180058 -0.0172352,0.0195769 -0.0154696,0.0209999 -0.0135871,0.0222643 -0.0116019,0.0233603 0.311873,0 0,0.258461 -0.30462,0 0.0128936,0.0226729 0.0148143,0.0214673 0.0166229,0.0200994 0.0183059,0.0185795 0.0198506,0.0169193 0.0212451,0.0151311 0.0224791,0.0132286 0.0235432,0.011226 0.0244293,0.00913863 0.0251308,0.00698215 0.0256423,0.0047729 0.0259599,0.00252758 0.0260814,0.000263141 0.0260056,-0.00200328 0.00161609,-0.000267192 z "/>
<path fill="rgb(241,240,234)" stroke="rgb(241,240,234)" d="M 3.14089,1.77732 l 0.00173011,0.00122328 0.0496156,0.0289235 0.0519571,0.0244691 0.0538997,0.0198268 0.0554284,0.0150322 0.0565315,0.0101223 0.0572006,0.00513465 0.0574305,0.000107566 0.0101498,-0.000872789 0,0.213571 -0.228469,-0.105456 -0.367878,-0.212082 0.202404,0 z "/>
<path fill="rgb(241,240,234)" stroke="rgb(241,240,234)" d="M 3.53483,0.77923 l 0.010026,0.000625132 0.0390097,0.00589458 0.0383435,0.00928871 0.0373826,0.0126114 0.0361343,0.0158372 0.0346083,0.0189413 0.0328162,0.0218998 0.0307719,0.0246899 0.0284911,0.0272903 0.0259913,0.0296809 0.0232917,0.0318434 0.0204131,0.0337611 0.0173776,0.0354193 0.0142085,0.0368052 0.0109302,0.0379083 0.00756789,0.0387199 0.0041474,0.039234 0.000695037,0.0394464 -0.00276267,0.0393557 -0.00619915,0.0389625 -0.00958797,0.0382698 -0.0129031,0.0372829 -0.0161191,0.0360095 -0.0192111,0.0344592 -0.0221555,0.0326441 -0.0249296,0.0305781 -0.027512,0.0282771 -0.029883,0.0257587 -0.0320244,0.0230423 -0.0339195,0.0201488 -0.0355539,0.0171004 -0.0369151,0.0139206 -0.0379925,0.0106337 -0.0387779,0.00726518 -0.0257601,0.00251976 0,-0.150469 0.0241173,-0.00398737 0.0252665,-0.00647368 0.0246087,-0.00864387 0.0237649,-0.0107487 0.0227415,-0.0127723 0.0215461,-0.0146994 0.0201879,-0.0165153 0.0186771,-0.0182064 0.0170251,-0.0197599 0.0152444,-0.021164 0.0133485,-0.0224082 0.0113516,-0.0234829 0.009269,-0.0243802 0.0071163,-0.0250931 0.00490982,-0.0256164 0.00266622,-0.0259461 0.000402463,-0.0260796 -0.00186433,-0.026016 -0.00411704,-0.0257557 -0.00633862,-0.0253008 -0.00851229,-0.0246546 -0.0106216,-0.023822 -0.0126507,-0.0228094 -0.0145841,-0.0216243 -0.0164072,-0.0202758 -0.0181064,-0.0187741 -0.0196687,-0.0171304 -0.0210823,-0.0153572 -0.0223365,-0.013468 -0.0234219,-0.0114769 -0.0243303,-0.0093991 -0.0250547,-0.00725025 -0.0255898,-0.00504659 -0.00755684,-0.000817358 0,-0.1507 z M 3.53483,1.36415 l 0,-0.258461 0.0112308,0 0.0112632,0.000491762 0.0111775,0.00147154 0.0110067,0.00244012 0.0107521,0.00339013 0.0104157,0.00431434 0.0100001,0.00520572 0.00950833,0.00605747 0.0089442,0.00686313 0.00831201,0.00761655 0.00761655,0.00831201 0.00686313,0.0089442 0.00605747,0.00950833 0.00520572,0.0100001 0.00431434,0.0104157 0.00339013,0.0107521 0.00244012,0.0110067 0.00147154,0.0111775 0.000491762,0.0112632 -0.000491762,0.0112632 -0.00147154,0.0111775 -0.00244012,0.0110067 -0.00339013,0.0107521 -0.00431434,0.0104157 -0.00520572,0.0100001 -0.00605747,0.00950833 -0.00686313,0.0089442 -0.00761655,0.00831201 -0.00831201,0.00761655 -0.0089442,0.00686313 -0.00950833,0.00605747 -0.0100001,0.00520572 -0.0104157,0.00431434 -0.0107521,0.00339013 -0.0110067,0.00244012 -0.0111775,0.00147154 -0.0112632,0.000491762 -0.0112308,0 z "/>
<path fill="rgb(241,240,234)" stroke="rgb(241,240,234)" d="M 3.53483,2.09486 l 0,-0.213571 0.0470696,-0.00404755 0.056569,-0.00991047 0.0554843,-0.0148245 0.234394,0.265908 0.00407271,0.00504401 0.0036219,0.00537688 0.00314402,0.00566957 0.00264266,0.0059199 0.00212155,0.006126 0.00158459,0.00628633 0.00103579,0.00639969 0.000479251,0.00646523 -8.08694e-05,0.00648247 -0.000640386,0.00645127 -0.00119512,0.00637186 -0.00174092,0.00624485 -0.00227371,0.00607117 -0.00278952,0.00585214 -0.00328448,0.00558937 -0.0037549,0.00528485 -0.00419727,0.00494084 -0.00460827,0.00455991 -0.00498484,0.00414491 -0.00532417,0.00369894 -0.00562372,0.00322533 -0.00588124,0.00272762 -0.00609482,0.00220953 -0.00626287,0.00167494 -0.00638412,0.00112783 -0.00645766,0.000572287 -0.00648296,1.24728e-05 -0.00645982,-0.000547435 -0.00638841,-0.00110325 -0.00626927,-0.00165083 -0.00610328,-0.00218607 -0.308937,-0.142597 z "/>
<path fill="rgb(241,240,234)" stroke="rgb(241,240,234)" d="M 1.17694,1.77732 l 0.357893,0 0,0.858698 -0.753527,-0.718729 -0.00305095,-0.00317829 -0.00275933,-0.00343452 -0.00244628,-0.00366408 -0.00211425,-0.0038652 -0.0017658,-0.00403631 -0.00140363,-0.00417608 -0.00103058,-0.00428343 -0.000649515,-0.00435752 -0.000263412,-0.00439778 0.000124737,-0.00440389 0.000511917,-0.00437582 0.000895122,-0.00431377 0.00127138,-0.00421823 0.00163776,-0.00408993 0.00199143,-0.00392989 0.00232964,-0.00373933 0.00264976,-0.00351974 0.00294931,-0.00327283 0.00322596,-0.0030005 0.00347756,-0.00270488 0.00370217,-0.00238826 0.00389803,-0.00205309 0.00406363,-0.00170199 0.00419767,-0.00133767 0.00429913,-0.000962968 0.00436721,-0.000580788 0.00440138,-0.000194098 0.311287,0 0.00430076,-0.000185309 0.00426889,-0.000554554 0.00420536,-0.000919688 0.00411067,-0.00127801 0.00398551,-0.00162685 0.0038308,-0.00196363 0.0036477,-0.00228586 0.00343756,-0.00259115 0.00320195,-0.00287723 0.00294259,-0.00314198 0.00266143,-0.00338345 0.00236054,-0.00359983 0.00204215,-0.00378953 0.00170862,-0.00395114 0.00136243,-0.00408347 0.00100614,-0.00418552 0.000642393,-0.00425655 0.000273883,-0.00429603 -9.66562e-05,-0.00430367 -5.60174e-05,-0.000513895 z "/>
<path fill="rgb(241,240,234)" stroke="rgb(241,240,234)" d="M 1.04345,1.52154 l -0.128789,-0.237933 -0.00190707,-0.00392296 -0.00155791,-0.00407424 -0.00119689,-0.00419452 -0.000826755,-0.00428287 -0.000450332,-0.00433863 -7.04819e-05,-0.00436137 0.000309905,-0.00435092 0.000687933,-0.00430735 0.00106073,-0.004231 0.00142544,-0.00412245 0.00177932,-0.00398253 0.00211965,-0.0038123 0.00244384,-0.00361305 0.00274944,-0.00338631 0.00303412,-0.00313379 0.0032957,-0.00285743 0.0035322,-0.00255931 0.00374182,-0.00224172 0.00392296,-0.00190707 0.00407424,-0.00155791 0.00419452,-0.00119689 0.00428287,-0.000826755 0.00433863,-0.000450332 0.00436137,-7.04819e-05 0.00435092,0.000309905 0.00430735,0.000687933 0.004231,0.00106073 0.00412245,0.00142544 0.00398253,0.00177932 0.0038123,0.00211965 0.00361305,0.00244384 0.00338631,0.00274944 0.00313379,0.00303412 0.00285743,0.0032957 0.00255931,0.0035322 0.00224172,0.00374182 0.135039,0.24948 0.0219591,-0.0143302 0.0206239,-0.016193 0.0191311,-0.017932 0.0174922,-0.0195341 0.0157197,-0.0209869 0.013827,-0.0222794 0.0118288,-0.0234016 0.00974012,-0.0243452 0.00757708,-0.0251027 0.00535615,-0.0256684 0.0030943,-0.0260381 0.000808814,-0.0262088 -0.00148285,-0.0261793 -0.00376319,-0.0259499 -0.00601478,-0.0255221 -0.00822041,-0.0248994 -0.0103633,-0.0240865 -0.0124269,-0.0230896 -0.0143957,-0.0219162 -0.0162544,-0.0205755 -0.017989,-0.0190775 -0.0195861,-0.0174339 -0.0210337,-0.015657 -0.0223205,-0.0137605 -0.0234368,-0.0117589 -0.0243741,-0.00966746 -0.0251252,-0.00750217 -0.0256843,-0.00527956 -0.0260472,-0.00301662 -0.0262111,-0.000730638 -0.0261748,0.00156093 -0.0259385,0.00384057 -0.0255041,0.00609087 -0.0248748,0.00829464 -0.0240555,0.010435 -0.0230524,0.0124957 -0.0218732,0.014461 -0.0205269,0.0163157 -0.0190238,0.0180458 -0.0173754,0.0196381 -0.0155942,0.0210803 -0.0136939,0.0223614 -0.0116889,0.0234718 -0.00959472,0.0244028 -0.00742719,0.0251474 -0.00520293,0.0256999 -0.00293892,0.0260561 -0.000652454,0.0262132 0.00163899,0.02617 0.00391792,0.0259269 0.00616692,0.0254858 0.0083688,0.0248499 0.0105068,0.0240242 0.0125644,0.023015 0.0145261,0.02183 0.0163769,0.0204782 0.0181025,0.0189699 0.0196898,0.0173167 0.0211267,0.0155312 0.0224022,0.0136271 0.0235066,0.0116189 0.0244313,0.00952189 0.0251695,0.00735215 0.0257153,0.00512625 0.0260647,0.00286119 0.026215,0.000574265 0.026165,-0.00171704 0.0259151,-0.00399524 z M 1.53483,1.61964 l 0,0.157687 -0.357893,0 -0.000410462,-0.00376551 -0.000832845,-0.00422342 -0.00119304,-0.00413613 -0.00154439,-0.00401818 -0.00188429,-0.00387045 -0.054043,-0.0998427 -0.0382367,0.00993724 -0.0389609,0.00654526 -0.0393849,0.00310284 -0.0395052,-0.000363507 -0.0393211,-0.00382705 -0.0388339,-0.00726109 -0.0380474,-0.0106392 -0.0369676,-0.0139352 -0.0356029,-0.0171239 -0.0339638,-0.0201806 -0.0320629,-0.0230817 -0.0299148,-0.025805 -0.0275362,-0.0283293 -0.0249454,-0.0306353 -0.0221623,-0.0327051 -0.0192084,-0.0345229 -0.0161064,-0.0360746 -0.0128803,-0.0373483 -0.00955488,-0.038334 -0.00615583,-0.0390244 -0.00270934,-0.0394139 0.000758027,-0.0394996 0.00421956,-0.0392809 0.00764856,-0.0387594 0.0110186,-0.0379392 0.0143037,-0.0368266 0.0174786,-0.0354301 0.0205188,-0.0337605 0.0234008,-0.0318308 0.0261024,-0.0296556 0.0286029,-0.0272519 0.0308829,-0.0246382 0.0329249,-0.0218346 0.034713,-0.0188626 0.0362337,-0.0157453 0.037475,-0.0125066 0.0384276,-0.00917156 0.0390839,-0.00576579 0.039439,-0.00231558 0.0394901,0.00115247 0.0392368,0.00461164 0.0386811,0.00803527 0.0378273,0.011397 0.0366819,0.0146708 0.0352538,0.0178316 0.0335539,0.0208549 0.0315955,0.0237175 0.0293935,0.0263973 0.0269649,0.0288736 0.0243286,0.0311274 0.0215047,0.0331413 0.018515,0.0348997 0.0153827,0.0363891 0.0121317,0.0375981 0.00878732,0.0385172 0.00537517,0.0391395 0.00192159,0.0394601 -0.0015468,0.0394766 -0.00500327,0.0391888 -0.00842118,0.0385989 -0.0117742,0.0377116 -0.0150364,0.0365335 -0.0181828,0.0350739 -0.021189,0.033344 -0.0240319,0.031357 -0.0266895,0.0291284 -0.0291415,0.0266752 -0.0313688,0.0240165 -0.0333544,0.0211726 0.0714815,0.13206 0.00223753,0.00373545 0.00255404,0.00352662 0.00285118,0.00329103 0.00312671,0.00303049 0.00337851,0.00274696 0.0036047,0.0024426 0.00380354,0.00211972 0.00397355,0.00178075 0.00411341,0.00142829 0.00422208,0.00106499 0.00429873,0.000693613 0.00434277,0.000316977 0.00435388,-6.20635e-05 0.00433197,-0.000440633 0.00427721,-0.00081586 0.00419001,-0.0011849 0.029684,-0.0112726 0.0285845,-0.0138252 0.027266,-0.0162719 0.0257386,-0.0185939 0.024014,-0.0207734 0.0221055,-0.0227938 0.0200275,-0.0246395 0.0171834,-0.025391 z "/>
<path fill="rgb(241,240,234)" stroke="rgb(241,240,234)" d="M 2.53483,1.05183 l 0,0.459771 -0.225209,-0.158574 -0.273655,0 -0.0547827,0.0422374 -0.0508645,0.0468823 -0.0465537,0.0511654 -0.0418837,0.0550536 -0.0368905,0.058517 -0.0316126,0.0615288 -0.0260907,0.0640657 -0.0138181,0.0448505 -0.198639,0 0,-0.157687 0.000612761,-0.000905446 0.0154284,-0.027752 0.0129425,-0.0289948 0.0103574,-0.0300155 0.00114442,-0.00466816 0.000690908,-0.00475648 0.000231014,-0.00480084 -1.13687e-13,-0.415918 0.000190265,-0.00435779 0.000569347,-0.00432462 0.000944096,-0.00425854 0.00131166,-0.00416005 0.00166924,-0.00402991 0.00201412,-0.00386909 0.00234367,-0.00367882 0.00265538,-0.00346056 0.00294688,-0.00321596 0.00321596,-0.00294688 0.00346056,-0.00265538 0.00367882,-0.00234367 0.00386909,-0.00201412 0.00402991,-0.00166924 0.00416005,-0.00131166 0.00425854,-0.000944096 0.00432462,-0.000569347 0.00435779,-0.000190265 0.908593,0 z "/>
<path fill="rgb(0,91,140)" stroke="rgb(0,91,140)" d="M 1.04345,1.52154 l -0.0259151,0.00399524 -0.026165,0.00171704 -0.026215,-0.000574265 -0.0260647,-0.00286119 -0.0257153,-0.00512625 -0.0251695,-0.00735215 -0.0244313,-0.00952189 -0.0235066,-0.0116189 -0.0224022,-0.0136271 -0.0211267,-0.0155312 -0.0196898,-0.0173167 -0.0181025,-0.0189699 -0.0163769,-0.0204782 -0.0145261,-0.02183 -0.0125644,-0.023015 -0.0105068,-0.0240242 -0.0083688,-0.0248499 -0.00616692,-0.0254858 -0.00391792,-0.0259269 -0.00163899,-0.02617 0.000652454,-0.0262132 0.00293892,-0.0260561 0.00520293,-0.0256999 0.00742719,-0.0251474 0.00959472,-0.0244028 0.0116889,-0.0234718 0.0136939,-0.0223614 0.0155942,-0.0210803 0.0173754,-0.0196381 0.0190238,-0.0180458 0.0205269,-0.0163157 0.0218732,-0.014461 0.0230524,-0.0124957 0.0240555,-0.010435 0.0248748,-0.00829464 0.0255041,-0.00609087 0.0259385,-0.00384057 0.0261748,-0.00156093 0.0262111,0.000730638 0.0260472,0.00301662 0.0256843,0.00527956 0.0251252,0.00750217 0.0243741,0.00966746 0.0234368,0.0117589 0.0223205,0.0137605 0.0210337,0.015657 0.0195861,0.0174339 0.017989,0.0190775 0.0162544,0.0205755 0.0143957,0.0219162 0.0124269,0.0230896 0.0103633,0.0240865 0.00822041,0.0248994 0.00601478,0.0255221 0.00376319,0.0259499 0.00148285,0.0261793 -0.000808814,0.0262088 -0.0030943,0.0260381 -0.00535615,0.0256684 -0.00757708,0.0251027 -0.00974012,0.0243452 -0.0118288,0.0234016 -0.013827,0.0222794 -0.0157197,0.0209869 -0.0174922,0.0195341 -0.0191311,0.017932 -0.0206239,0.016193 -0.0219591,0.0143302 -0.135039,-0.24948 -0.00224172,-0.00374182 -0.00255931,-0.0035322 -0.00285743,-0.0032957 -0.00313379,-0.00303412 -0.00338631,-0.00274944 -0.00361305,-0.00244384 -0.0038123,-0.00211965 -0.00398253,-0.00177932 -0.00412245,-0.00142544 -0.004231,-0.00106073 -0.00430735,-0.000687933 -0.00435092,-0.000309905 -0.00436137,7.04819e-05 -0.00433863,0.000450332 -0.00428287,0.000826755 -0.00419452,0.00119689 -0.00407424,0.00155791 -0.00392296,0.00190707 -0.00374182,0.00224172 -0.0035322,0.00255931 -0.0032957,0.00285743 -0.00303412,0.00313379 -0.00274944,0.00338631 -0.00244384,0.00361305 -0.00211965,0.0038123 -0.00177932,0.00398253 -0.00142544,0.00412245 -0.00106073,0.004231 -0.000687933,0.00430735 -0.000309905,0.00435092 7.04819e-05,0.00436137 0.000450332,0.00433863 0.000826755,0.00428287 0.00119689,0.00419452 0.00155791,0.00407424 0.00190707,0.00392296 0.128789,0.237933 z "/>
<path fill="rgb(0,91,140)" stroke="rgb(0,91,140)" d="M 1.4,3.4 l 1,0 0,1 -1,0 0,-1 z "/>
<path fill="rgb(0,91,140)" stroke="rgb(0,91,140)" d="M 0.569587,1.4 l -0.169587,0 0,-0.7 0.00114159,-0.0261467 0.00341608,-0.0259477 0.00566458,-0.0255513 0.00786996,-0.0249603 0.0100155,-0.0241794 0.0120847,-0.0232145 0.014062,-0.0220729 0.0159323,-0.0207634 0.0176813,-0.0192958 0.0192958,-0.0176813 0.0207634,-0.0159323 0.0220729,-0.014062 0.0232145,-0.0120847 0.0241794,-0.0100155 0.0249603,-0.00786996 0.0255513,-0.00566458 0.0259477,-0.00341608 0.0261467,-0.00114159 0.7,-8.88178e-16 0,0.654835 -0.00877234,-0.0207518 -0.018515,-0.0348997 -0.0215047,-0.0331413 -0.0243286,-0.0311274 -0.0269649,-0.0288736 -0.0293935,-0.0263973 -0.0315955,-0.0237175 -0.0335539,-0.0208549 -0.0352538,-0.0178316 -0.0366819,-0.0146708 -0.0378273,-0.011397 -0.0386811,-0.00803527 -0.0392368,-0.00461164 -0.0394901,-0.00115247 -0.039439,0.00231558 -0.0390839,0.00576579 -0.0384276,0.00917156 -0.037475,0.0125066 -0.0362337,0.0157453 -0.034713,0.0188626 -0.0329249,0.0218346 -0.0308829,0.0246382 -0.0286029,0.0272519 -0.0261024,0.0296556 -0.0234008,0.0318308 -0.0205188,0.0337605 -0.0174786,0.0354301 -0.0143037,0.0368266 -0.0110186,0.0379392 -0.00764856,0.0387594 -0.00421956,0.0392809 -0.000758027,0.0394996 0.00270934,0.0394139 0.00615583,0.0390244 0.00955488,0.038334 0.0128803,0.0373483 0.00331807,0.00743172 z M 1.4,1.3998 l 0,0.000203309 -8.36777e-05,0 8.36777e-05,-0.000203309 z "/>
<path fill="rgb(0,91,140)" stroke="rgb(0,91,140)" d="M 4.1,1.4 l 0,1 -0.7,0 0,-0.070664 0.25435,0 0.000879732,-3.87716e-05 0.00087291,-0.000116014 0.00085932,-0.000192357 0.000839066,-0.000267208 0.000812305,-0.000339988 0.000779246,-0.00041013 0.000740144,-0.000477093 0.000695303,-0.000540356 0.000645071,-0.000599429 0.000589836,-0.000653854 0.000530027,-0.000703209 0.000466109,-0.00074711 0.000398576,-0.000785219 0.000327952,-0.000817238 0.000254786,-0.000842921 0.000179644,-0.000862067 0.000103108,-0.000874529 2.57734e-05,-0.000880209 -5.17613e-05,-0.000879063 -0.000128895,-0.000871101 -0.000205028,-0.000856385 -0.000279572,-0.000835027 -0.000351948,-0.000807195 -0.000421595,-0.000773103 -0.000487973,-0.000733017 -0.000550567,-0.000687246 -0.000608892,-0.000636147 -0.000662495,-0.000580114 -0.000710961,-0.000519583 -0.000753914,-0.000455023 -0.00079102,-0.000386935 -0.258344,-0.121441 0,-0.156101 0.443768,0.204832 0.00610328,0.00218607 0.00626927,0.00165083 0.00638841,0.00110325 0.00645982,0.000547435 0.00648296,-1.24728e-05 0.00645766,-0.000572287 0.00638412,-0.00112783 0.00626287,-0.00167494 0.00609482,-0.00220953 0.00588124,-0.00272762 0.00562372,-0.00322533 0.00532417,-0.00369894 0.00498484,-0.00414491 0.00460827,-0.00455991 0.00419727,-0.00494084 0.0037549,-0.00528485 0.00328448,-0.00558937 0.00278952,-0.00585214 0.00227371,-0.00607117 0.00174092,-0.00624485 0.00119512,-0.00637186 0.000640386,-0.00645127 8.08694e-05,-0.00648247 -0.000479251,-0.00646523 -0.00103579,-0.00639969 -0.00158459,-0.00628633 -0.00212155,-0.006126 -0.00264266,-0.0059199 -0.00314402,-0.00566957 -0.0036219,-0.00537688 -0.00407271,-0.00504401 -0.234394,-0.265908 -0.0554843,0.0148245 -0.056569,0.00991047 -0.0572194,0.00492034 -0.0574305,-0.000107566 -0.0572006,-0.00513465 -0.0100503,-0.00179957 0,-0.208571 0.00362969,0.000939565 0.0389129,0.00650334 0.0393329,0.00307004 0.0394507,-0.000386855 0.0392652,-0.00384078 0.0387779,-0.00726518 0.0379925,-0.0106337 0.0369151,-0.0139206 0.0355539,-0.0171004 0.0339195,-0.0201488 0.0320244,-0.0230423 0.029883,-0.0257587 0.027512,-0.0282771 0.0249296,-0.0305781 0.0221555,-0.0326441 0.0192111,-0.0344592 0.0129847,-0.0290074 0.18755,0 z "/>
<path fill="rgb(0,91,140)" stroke="rgb(0,91,140)" d="M 2.4,0.4 l 0,0.651826 -0.773761,0 -0.00435779,0.000190265 -0.00432462,0.000569347 -0.00425854,0.000944096 -0.00416005,0.00131166 -0.00402991,0.00166924 -0.00386909,0.00201412 -0.00367882,0.00234367 -0.00346056,0.00265538 -0.00321596,0.00294688 -0.00294688,0.00321596 -0.00265538,0.00346056 -0.00234367,0.00367882 -0.00201412,0.00386909 -0.00166924,0.00402991 -0.00131166,0.00416005 -0.000944096,0.00425854 -0.000569347,0.00432462 -0.000190265,0.00435779 8.14904e-14,0.298174 -0.176239,0 0,-0.000203309 0.00808072,-0.0196335 0.0117742,-0.0377116 0.00842118,-0.0385989 0.00500327,-0.0391888 0.0015468,-0.0394766 -0.00192159,-0.0394601 -0.00537517,-0.0391395 -0.00878732,-0.0385172 -0.0121317,-0.0375981 -0.00661032,-0.0156373 0,-0.654835 0.85,4.44089e-16 0.15,-4.44089e-16 z M 2.37634,1.4 l -0.400297,0 0.00514192,-0.00473936 0.0547827,-0.0422374 0.273655,0 0.0667172,0.0469768 z "/>
<path fill="rgb(0,91,140)" stroke="rgb(0,91,140)" d="M 0.4,6.4 l 1,0 0,0.7 -0.7,0 -0.0261467,-0.00114159 -0.0259477,-0.00341608 -0.0255513,-0.00566458 -0.0249603,-0.00786996 -0.0241794,-0.0100155 -0.0232145,-0.0120847 -0.0220729,-0.014062 -0.0207634,-0.0159323 -0.0192958,-0.0176813 -0.0176813,-0.0192958 -0.0159323,-0.0207634 -0.014062,-0.0220729 -0.0120847,-0.0232145 -0.0100155,-0.0241794 -0.00786996,-0.0249603 -0.00566458,-0.0255513 -0.00341608,-0.0259477 -0.00114159,-0.0261467 -4.44089e-16,-0.4 z "/>
<path fill="rgb(0,91,140)" stroke="rgb(0,91,140)" d="M 1.4,4.4 l 1,0 0,1 -1,0 0,-1 z "/>
<path fill="rgb(0,91,140)" stroke="rgb(0,91,140)" d="M 1.4,6.4 l 1,0 0,0.7 -0.15,0 -0.85,0 0,-0.7 z "/>
<path fill="rgb(0,91,140)" stroke="rgb(0,91,140)" d="M 1.4,5.4 l 1,0 0,1 -1,0 0,-1 z "/>
<path fill="rgb(0,91,140)" stroke="rgb(0,91,140)" d="M 3.4,0.4 l 0,0.388321 -0.0118187,0.00240599 -0.0378217,0.011226 -0.0366931,0.0144956 -0.0352824,0.0176538 -0.0336006,0.0206763 -0.0316604,0.0235398 -0.0294769,0.0262224 -0.0270669,0.0287035 -0.0244488,0.0309639 -0.0216428,0.0329863 -0.0186704,0.0347552 -0.0155545,0.0362569 -0.012319,0.0374799 -0.222167,0 0,-0.0438611 -3.8053e-05,-0.000871557 -0.000113869,-0.000864924 -0.000188819,-0.000851709 -0.000262332,-0.000832011 -0.000333848,-0.000805981 -0.000402824,-0.000773817 -0.000468734,-0.000735764 -0.000531076,-0.000692112 -0.000589377,-0.000643192 -0.000643192,-0.000589377 -0.000692112,-0.000531076 -0.000735764,-0.000468734 -0.000773817,-0.000402824 -0.000805981,-0.000333848 -0.000832011,-0.000262332 -0.000851709,-0.000188819 -0.000864924,-0.000113869 -0.000871557,-3.8053e-05 -0.431777,0 0,-0.651826 1,0 z M 3.0817,1.4 l -0.216169,0 -0.00931247,-0.0358519 0.212281,0 0.0132006,0.0358519 z "/>
<path fill="rgb(0,91,140)" stroke="rgb(0,91,140)" d="M 1.39992,1.4 l 8.36777e-05,0 0,0.347203 -0.00150385,0.000897474 -0.0285845,0.0138252 -0.029684,0.0112726 -0.00419001,0.0011849 -0.00427721,0.00081586 -0.00433197,0.000440633 -0.00435388,6.20635e-05 -0.00434277,-0.000316977 -0.00429873,-0.000693613 -0.00422208,-0.00106499 -0.00411341,-0.00142829 -0.00397355,-0.00178075 -0.00380354,-0.00211972 -0.0036047,-0.0024426 -0.00337851,-0.00274696 -0.00312671,-0.00303049 -0.00285118,-0.00329103 -0.00255404,-0.00352662 -0.00223753,-0.00373545 -0.0714815,-0.13206 0.0333544,-0.0211726 0.0313688,-0.0240165 0.0291415,-0.0266752 0.0266895,-0.0291284 0.0240319,-0.031357 0.021189,-0.033344 0.0181828,-0.0350739 0.00687203,-0.0166968 z M 0.569587,1.4 l 0.0127883,0.0286429 0.0192084,0.0345229 0.0221623,0.0327051 0.0249454,0.0306353 0.0275362,0.0283293 0.0299148,0.025805 0.0320629,0.0230817 0.0339638,0.0201806 0.0356029,0.0171239 0.0369676,0.0139352 0.0380474,0.0106392 0.0388339,0.00726109 0.0393211,0.00382705 0.0395052,0.000363507 0.0393849,-0.00310284 0.0389609,-0.00654526 0.0382367,-0.00993724 0.054043,0.0998427 0.00188429,0.00387045 0.00154439,0.00401818 0.00119304,0.00413613 0.000832845,0.00422342 0.000466479,0.00427941 9.66562e-05,0.00430367 -0.000273883,0.00429603 -0.000642393,0.00425655 -0.00100614,0.00418552 -0.00136243,0.00408347 -0.00170862,0.00395114 -0.00204215,0.00378953 -0.00236054,0.00359983 -0.00266143,0.00338345 -0.00294259,0.00314198 -0.00320195,0.00287723 -0.00343756,0.00259115 -0.0036477,0.00228586 -0.0038308,0.00196363 -0.00398551,0.00162685 -0.00411067,0.00127801 -0.00420536,0.000919688 -0.00426889,0.000554554 -0.00430076,0.000185309 -0.311287,0 -0.00440138,0.000194098 -0.00436721,0.000580788 -0.00429913,0.000962968 -0.00419767,0.00133767 -0.00406363,0.00170199 -0.00389803,0.00205309 -0.00370217,0.00238826 -0.00347756,0.00270488 -0.00322596,0.0030005 -0.00294931,0.00327283 -0.00264976,0.00351974 -0.00232964,0.00373933 -0.00199143,0.00392989 -0.00163776,0.00408993 -0.00127138,0.00421823 -0.000895122,0.00431377 -0.000511917,0.00437582 -0.000124737,0.00440389 0.000263412,0.00439778 0.000649515,0.00435752 0.00103058,0.00428343 0.00140363,0.00417608 0.0017658,0.00403631 0.00211425,0.0038652 0.00244628,0.00366408 0.00275933,0.00343452 0.00305095,0.00317829 0.506079,0.482708 -0.887383,0 0,-1 0.169587,0 z "/>
<path fill="rgb(0,91,140)" stroke="rgb(0,91,140)" d="M 1.28738,2.4 l 0.112617,0.107417 0,0.892583 -1,0 0,-1 0.887383,0 z "/>
<path fill="rgb(0,91,140)" stroke="rgb(0,91,140)" d="M 2.86553,1.4 l 0.216169,0 0.000431101,0.00117083 0.0168221,0.0356864 0.0198832,0.0340759 0.0227914,0.0322034 0.0255244,0.0300834 0.0280613,0.0277321 0.0303824,0.0251677 0.0324701,0.0224098 0.0343081,0.0194797 0.0358824,0.0163999 0.037181,0.013194 0.034564,0.00894708 0,0.208571 -0.0464812,-0.00832274 -0.0554284,-0.0150322 -0.0538997,-0.0198268 -0.0519571,-0.0244691 -0.0496156,-0.0289235 -0.0468931,-0.0331558 -0.0438106,-0.0371336 -0.0403918,-0.0408262 -0.0366627,-0.0442054 -0.0326522,-0.0472452 -0.028391,-0.0499222 -0.0239118,-0.0522159 -0.019249,-0.0541087 -0.00512592,-0.0197342 z M 3.4,2.32934 l 0,0.070664 -1,0 0,-0.98334 0.39358,0.277127 0.512781,0.295619 0.0936381,0.0432209 0,0.156101 -0.0881145,-0.0414203 -0.336608,-0.182352 -0.325662,-0.20125 -0.000780861,-0.000464484 -0.000819796,-0.000391694 -0.000851964,-0.00031567 -0.000877099,-0.000237041 -0.000894993,-0.000156455 -0.000905499,-7.4577e-05 -0.00090853,7.9163e-06 -0.000904062,9.03443e-05 -0.000892131,0.000172027 -0.000872835,0.000252289 -0.000846334,0.000330468 -0.0262417,0.0130395 -0.0250107,0.0152682 -0.0235909,0.0173817 -0.021993,0.0193639 -0.0202291,0.0212 -0.0183125,0.0228759 -0.0162576,0.0243792 -0.0140799,0.0256984 -0.011796,0.0268237 -0.00942301,0.0277464 -0.00697888,0.0284596 -0.00448207,0.028958 -0.00195142,0.0292378 0.000593964,0.0292968 0.00313486,0.0291346 0.00565209,0.0287525 0.00812665,0.0281534 0.0105399,0.0273416 0.0128735,0.0263235 0.0151099,0.0251067 0.0172323,0.0237002 0.0192246,0.0221149 0.0210717,0.0203626 0.0227598,0.0184566 0.024276,0.0164112 0.025609,0.014242 0.0267486,0.0119652 0.113375,0 0.000871557,-3.8053e-05 0.000864924,-0.000113869 0.000851709,-0.000188819 0.000832011,-0.000262332 0.000805981,-0.000333848 0.000773817,-0.000402824 0.000735764,-0.000468734 0.000692112,-0.000531076 0.000643192,-0.000589377 0.000589377,-0.000643192 0.000531076,-0.000692112 0.000468734,-0.000735764 0.000402824,-0.000773817 0.000333848,-0.000805981 0.000262332,-0.000832011 0.000188819,-0.000851709 0.000113869,-0.000864924 3.8053e-05,-0.000871557 0,-0.0353762 3.8053e-05,-0.000871557 0.000113869,-0.000864924 0.000188819,-0.000851709 0.000262332,-0.000832011 0.000333848,-0.000805981 0.000402824,-0.000773817 0.000468734,-0.000735764 0.000531076,-0.000692112 0.000589377,-0.000643192 0.000643192,-0.000589377 0.000692112,-0.000531076 0.000735764,-0.000468734 0.000773817,-0.000402824 0.000805981,-0.000333848 0.000832011,-0.000262332 0.000851709,-0.000188819 0.000864924,-0.000113869 0.000871557,-3.8053e-05 0.613958,0 z "/>
<path fill="rgb(0,91,140)" stroke="rgb(0,91,140)" d="M 2.4,2.4 l 1,0 0,1 -1,0 0,-1 z "/>
<path fill="rgb(0,91,140)" stroke="rgb(0,91,140)" d="M 0.4,3.4 l 1,0 0,1 -1,0 0,-1 z "/>
<path fill="rgb(0,91,140)" stroke="rgb(0,91,140)" d="M 0.4,4.4 l 1,0 0,1 -1,0 0,-1 z "/>
<path fill="rgb(0,91,140)" stroke="rgb(0,91,140)" d="M 3.8,0.4 l 0.0261467,0.00114159 0.0259477,0.00341608 0.0255513,0.00566458 0.0249603,0.00786996 0.0241794,0.0100155 0.0232145,0.0120847 0.0220729,0.014062 0.0207634,0.0159323 0.0192958,0.0176813 0.0176813,0.0192958 0.0159323,0.0207634 0.014062,0.0220729 0.0120847,0.0232145 0.0100155,0.0241794 0.00786996,0.0249603 0.00566458,0.0255513 0.00341608,0.0259477 0.00114159,0.0261467 0,0.7 -0.18755,0 0.00313436,-0.00700206 0.0129031,-0.0372829 0.00958797,-0.0382698 0.00619915,-0.0389625 0.00276267,-0.0393557 -0.000695037,-0.0394464 -0.0041474,-0.039234 -0.00756789,-0.0387199 -0.0109302,-0.0379083 -0.0142085,-0.0368052 -0.0173776,-0.0354193 -0.0204131,-0.0337611 -0.0232917,-0.0318434 -0.0259913,-0.0296809 -0.0284911,-0.0272903 -0.0307719,-0.0246899 -0.0328162,-0.0218998 -0.0346083,-0.0189413 -0.0361343,-0.0158372 -0.0373826,-0.0126114 -0.0383435,-0.00928871 -0.0390097,-0.00589458 -0.0393761,-0.00245514 -0.0394398,0.00100318 -0.0392004,0.00445378 -0.026841,0.00546416 0,-0.388321 0.4,0 z "/>
<path fill="rgb(0,91,140)" stroke="rgb(0,91,140)" d="M 2.4,3.4 l 1,0 0,1 -1,0 0,-1 z "/>
<path fill="rgb(0,91,140)" stroke="rgb(0,91,140)" d="M 4.1,2.4 l 0,1 -0.7,0 0,-1 0.7,0 z "/>
<path fill="rgb(0,91,140)" stroke="rgb(0,91,140)" d="M 4.1,3.4 l 0,1 -0.7,0 0,-1 0.7,0 z "/>
<path fill="rgb(0,91,140)" stroke="rgb(0,91,140)" d="M 4.1,4.4 l 0,1 -0.7,0 0,-1 0.7,0 z "/>
<path fill="rgb(0,91,140)" stroke="rgb(0,91,140)" d="M 4.1,5.4 l 0,1 -0.7,0 0,-1 0.7,0 z "/>
<path fill="rgb(0,91,140)" stroke="rgb(0,91,140)" d="M 3.4,6.4 l 0.7,0 0,0.4 -0.00114159,0.0261467 -0.00341608,0.0259477 -0.00566458,0.0255513 -0.00786996,0.0249603 -0.0100155,0.0241794 -0.0120847,0.0232145 -0.014062,0.0220729 -0.0159323,0.0207634 -0.0176813,0.0192958 -0.0192958,0.0176813 -0.0207634,0.0159323 -0.0220729,0.014062 -0.0232145,0.0120847 -0.0241794,0.0100155 -0.0249603,0.00786996 -0.0255513,0.00566458 -0.0259477,0.00341608 -0.0261467,0.00114159 -0.4,0 0,-0.7 z "/>
<path fill="rgb(0,91,140)" stroke="rgb(0,91,140)" d="M 2.4,4.4 l 1,0 0,1 -1,0 0,-1 z "/>
<path fill="rgb(0,91,140)" stroke="rgb(0,91,140)" d="M 2.4,5.4 l 1,0 0,1 -1,0 0,-1 z "/>
<path fill="rgb(0,91,140)" stroke="rgb(0,91,140)" d="M 2.22043,2.83714 l 0,-0.0991097 -3.8053e-05,-0.000871557 -0.000113869,-0.000864924 -0.000188819,-0.000851709 -0.000262332,-0.000832011 -0.000333848,-0.000805981 -0.000402824,-0.000773817 -0.000468734,-0.000735764 -0.000531076,-0.000692112 -0.000589377,-0.000643192 -0.000643192,-0.000589377 -0.000692112,-0.000531076 -0.000735764,-0.000468734 -0.000773817,-0.000402824 -0.000805981,-0.000333848 -0.000832011,-0.000262332 -0.000851709,-0.000188819 -0.000864924,-0.000113869 -0.000871557,-3.8053e-05 -0.330244,0 -0.000871557,-3.8053e-05 -0.000864924,-0.000113869 -0.000851709,-0.000188819 -0.000832011,-0.000262332 -0.000805981,-0.000333848 -0.000773817,-0.000402824 -0.000735764,-0.000468734 -0.000692112,-0.000531076 -0.000643192,-0.000589377 -0.000589377,-0.000643192 -0.000531076,-0.000692112 -0.000468734,-0.000735764 -0.000402824,-0.000773817 -0.000333848,-0.000805981 -0.000262332,-0.000832011 -0.000188819,-0.000851709 -0.000113869,-0.000864924 -3.8053e-05,-0.000871557 0,-0.0968631 -4.93011e-05,-0.00112918 -0.000147528,-0.00112059 -0.000244632,-0.00110346 -0.000339874,-0.00107794 -0.00043253,-0.00104422 -0.000521894,-0.00100255 -0.000607286,-0.000953248 -0.000688056,-0.000896692 -0.00076359,-0.000833312 -0.000833312,-0.00076359 -0.000896692,-0.000688056 -0.000953248,-0.000607286 -0.00100255,-0.000521894 -0.00104422,-0.00043253 -0.00107794,-0.000339874 -0.00110346,-0.000244632 -0.00112059,-0.000147528 -0.00112918,-4.93011e-05 -0.00112918,4.93011e-05 -0.00112059,0.000147528 -0.00110346,0.000244632 -0.00107794,0.000339874 -0.00104422,0.00043253 -0.00100255,0.000521894 -0.000953248,0.000607286 -0.000896692,0.000688056 -0.000833312,0.00076359 -0.00076359,0.000833312 -0.000688056,0.000896692 -0.000607286,0.000953248 -0.000521894,0.00100255 -0.00043253,0.00104422 -0.000339874,0.00107794 -0.000244632,0.00110346 -0.000147528,0.00112059 -4.93011e-05,0.00112918 0,0.046559 -0.0868228,0.0491469 -0.00233646,0.0131624 -0.00120625,0.0133137 -6.72696e-05,0.013368 0.0010722,0.0133251 0.00220387,0.0131853 0.00331951,0.0129495 0.00441099,0.0126195 0.00547038,0.0121977 0.00648997,0.0116871 0.00746234,0.0110915 0.00838042,0.0104153 0.00923752,0.00966318 0.0100274,0.0088408 0.0107443,0.00795411 0.0113831,0.00700953 0.0119391,0.00601396 0.0124081,0.00497464 0.0127869,0.00389912 0.0130727,0.00279523 0.0132634,0.001671 0.0133575,0.000534616 0.0133545,-0.000605658 0,-0.0497988 3.8053e-05,-0.000871557 0.000113869,-0.000864924 0.000188819,-0.000851709 0.000262332,-0.000832011 0.000333848,-0.000805981 0.000402824,-0.000773817 0.000468734,-0.000735764 0.000531076,-0.000692112 0.000589377,-0.000643192 0.000643192,-0.000589377 0.000692112,-0.000531076 0.000735764,-0.000468734 0.000773817,-0.000402824 0.000805981,-0.000333848 0.000832011,-0.000262332 0.000851709,-0.000188819 0.000864924,-0.000113869 0.000871557,-3.8053e-05 0.276204,0 0.000871557,-3.8053e-05 0.000864924,-0.000113869 0.000851709,-0.000188819 0.000832011,-0.000262332 0.000805981,-0.000333848 0.000773817,-0.000402824 0.000735764,-0.000468734 0.000692112,-0.000531076 0.000643192,-0.000589377 0.000589377,-0.000643192 0.000531076,-0.000692112 0.000468734,-0.000735764 0.000402824,-0.000773817 0.000333848,-0.000805981 0.000262332,-0.000832011 0.000188819,-0.000851709 0.000113869,-0.000864924 3.8053e-05,-0.000871557 z M 1.85795,2.4 l 0.542054,0 0,1 -1,0 0,-0.892583 0.174343,0.166292 0.00664605,0.00580138 0.00713148,0.00519307 0.00756141,0.00454434 0.00793249,0.00386024 0.00824184,0.00314611 0.00848705,0.00240749 0.0086662,0.00165013 0.00877791,0.000879927 0.0088213,0.000102878 0.00879604,-0.000674971 0.00870233,-0.00144757 0.00854088,-0.0022089 0.00831297,-0.00295304 0.00802036,-0.00367419 0.00766534,-0.00436676 0.00725065,-0.00502533 0.00677954,-0.0056448 0.00625566,-0.00622034 0.033463,-0.0397282 0.0298334,-0.0425214 0.0259718,-0.044984 0.0219084,-0.047097 0.0176746,-0.0488437 0.0121624,-0.0459042 z "/>
<path fill="rgb(0,91,140)" stroke="rgb(0,91,140)" d="M 2.4,7.1 l 0,-0.7 1,0 0,0.7 -1,0 z "/>
<path fill="rgb(0,91,140)" stroke="rgb(0,91,140)" d="M 1.97604,1.4 l 0.400297,0 0.0236604,0.0166597 0,0.98334 -0.542054,0 0.00114103,-0.00430658 0.00882877,-0.0511874 0.00428552,-0.0517661 -0.000291051,-0.0519424 -0.00486536,-0.0517149 -0.00940184,-0.0510853 -0.0138652,-0.0500585 -0.0182208,-0.0486426 -0.0224348,-0.0468485 -0.0264743,-0.0446902 -0.030308,-0.0421844 -0.0339061,-0.0393507 0.0144871,-0.0676407 0.0203675,-0.0661083 0.0260907,-0.0640657 0.0316126,-0.0615288 0.0368905,-0.058517 0.0418837,-0.0550536 0.0465537,-0.0511654 0.0457225,-0.0421429 z M 1.57624,1.4 l 3.21965e-14,0.117744 -0.000231014,0.00480084 -0.000690908,0.00475648 -0.00114442,0.00466816 -0.0103574,0.0300155 -0.0129425,0.0289948 -0.0154284,0.027752 -0.0177962,0.0262965 -0.0200275,0.0246395 -0.0221055,0.0227938 -0.024014,0.0207734 -0.0257386,0.0185939 -0.0257621,0.0153744 0,-0.347203 0.176239,0 z "/>
<path fill="rgb(0,91,140)" stroke="rgb(0,91,140)" d="M 3.23021,1.36415 l 0.315851,0 0.0112632,-0.000491762 0.0111775,-0.00147154 0.0110067,-0.00244012 0.0107521,-0.00339013 0.0104157,-0.00431434 0.0100001,-0.00520572 0.00950833,-0.00605747 0.0089442,-0.00686313 0.00831201,-0.00761655 0.00761655,-0.00831201 0.00686313,-0.0089442 0.00605747,-0.00950833 0.00520572,-0.0100001 0.00431434,-0.0104157 0.00339013,-0.0107521 0.00244012,-0.0110067 0.00147154,-0.0111775 0.000491762,-0.0112632 -0.000491762,-0.0112632 -0.00147154,-0.0111775 -0.00244012,-0.0110067 -0.00339013,-0.0107521 -0.00431434,-0.0104157 -0.00520572,-0.0100001 -0.00605747,-0.00950833 -0.00686313,-0.0089442 -0.00761655,-0.00831201 -0.00831201,-0.00761655 -0.0089442,-0.00686313 -0.00950833,-0.00605747 -0.0100001,-0.00520572 -0.0104157,-0.00431434 -0.0107521,-0.00339013 -0.0110067,-0.00244012 -0.0111775,-0.00147154 -0.0112632,-0.000491762 -0.323104,0 0.0116019,-0.0233603 0.0135871,-0.0222643 0.0154696,-0.0209999 0.0172352,-0.0195769 0.0188705,-0.0180058 0.0203632,-0.0162987 0.0217019,-0.0144683 0.0228766,-0.0125286 0.0238784,-0.0104942 0.0246997,-0.00838046 0.0253343,-0.00620337 0.0257773,-0.00397939 0.0260256,-0.00172533 0.0260771,0.000541773 0.0259314,0.00280478 0.0255898,0.00504659 0.0250547,0.00725025 0.0243303,0.0093991 0.0234219,0.0114769 0.0223365,0.013468 0.0210823,0.0153572 0.0196687,0.0171304 0.0181064,0.0187741 0.0164072,0.0202758 0.0145841,0.0216243 0.0126507,0.0228094 0.0106216,0.023822 0.00851229,0.0246546 0.00633862,0.0253008 0.00411704,0.0257557 0.00186433,0.026016 -0.000402463,0.0260796 -0.00266622,0.0259461 -0.00490982,0.0256164 -0.0071163,0.0250931 -0.009269,0.0243802 -0.0113516,0.0234829 -0.0133485,0.0224082 -0.0152444,0.021164 -0.0170251,0.0197599 -0.0186771,0.0182064 -0.0201879,0.0165153 -0.0215461,0.0146994 -0.0227415,0.0127723 -0.0237649,0.0107487 -0.0246087,0.00864387 -0.0252665,0.00647368 -0.0257333,0.00425456 -0.0260056,0.00200328 -0.0260814,-0.000263141 -0.0259599,-0.00252758 -0.0256423,-0.0047729 -0.0251308,-0.00698215 -0.0244293,-0.00913863 -0.0235432,-0.011226 -0.0224791,-0.0132286 -0.0212451,-0.0151311 -0.0198506,-0.0169193 -0.0183059,-0.0185795 -0.0166229,-0.0200994 -0.0148143,-0.0214673 -0.0128936,-0.0226729 z "/>
<path fill="rgb(0,91,140)" stroke="rgb(0,91,140)" d="M 0.4,5.4 l 1,0 0,1 -1,0 0,-1 z "/>
<path fill="rgb(0,91,140)" stroke="rgb(0,91,140)" d="M 3.8,7.5 l -1.55,0 -4.44089e-16,-0.2 1.55,0 0.0435779,-0.00190265 0.0432462,-0.00569347 0.0425854,-0.00944096 0.0416005,-0.0131166 0.0402991,-0.0166924 0.0386909,-0.0201412 0.0367882,-0.0234367 0.0346056,-0.0265538 0.0321596,-0.0294688 0.0294688,-0.0321596 0.0265538,-0.0346056 0.0234367,-0.0367882 0.0201412,-0.0386909 0.0166924,-0.0402991 0.0131166,-0.0416005 0.00944096,-0.0425854 0.00569347,-0.0432462 0.00190265,-0.0435779 0,-6.1 -0.00190265,-0.0435779 -0.00569347,-0.0432462 -0.00944096,-0.0425854 -0.0131166,-0.0416005 -0.0166924,-0.0402991 -0.0201412,-0.0386909 -0.0234367,-0.0367882 -0.0265538,-0.0346056 -0.0294688,-0.0321596 -0.0321596,-0.0294688 -0.0346056,-0.0265538 -0.0367882,-0.0234367 -0.0386909,-0.0201412 -0.0402991,-0.0166924 -0.0416005,-0.0131166 -0.0425854,-0.00944096 -0.0432462,-0.00569347 -0.0435779,-0.00190265 -1.55,4.44089e-16 0,-0.2 1.55,-4.44089e-16 0.061009,0.00266371 0.0605447,0.00797086 0.0596196,0.0132173 0.0582408,0.0183632 0.0564187,0.0233694 0.0541672,0.0281977 0.0515035,0.0328114 0.0484478,0.0371753 0.0450234,0.0412564 0.0412564,0.0450234 0.0371753,0.0484478 0.0328114,0.0515035 0.0281977,0.0541672 0.0233694,0.0564187 0.0183632,0.0582408 0.0132173,0.0596196 0.00797086,0.0605447 0.00266371,0.061009 8.88178e-16,6.1 -0.00266371,0.061009 -0.00797086,0.0605447 -0.0132173,0.0596196 -0.0183632,0.0582408 -0.0233694,0.0564187 -0.0281977,0.0541672 -0.0328114,0.0515035 -0.0371753,0.0484478 -0.0412564,0.0450234 -0.0450234,0.0412564 -0.0484478,0.0371753 -0.0515035,0.0328114 -0.0541672,0.0281977 -0.0564187,0.0233694 -0.0582408,0.0183632 -0.0596196,0.0132173 -0.0605447,0.00797086 -0.061009,0.00266371 z "/>
<path fill="rgb(0,91,140)" stroke="rgb(0,91,140)" d="M 0,6.8 l 0,-6.1 0.00266371,-0.061009 0.00797086,-0.0605447 0.0132173,-0.0596196 0.0183632,-0.0582408 0.0233694,-0.0564187 0.0281977,-0.0541672 0.0328114,-0.0515035 0.0371753,-0.0484478 0.0412564,-0.0450234 0.0450234,-0.0412564 0.0484478,-0.0371753 0.0515035,-0.0328114 0.0541672,-0.0281977 0.0564187,-0.0233694 0.0582408,-0.0183632 0.0596196,-0.0132173 0.0605447,-0.00797086 0.061009,-0.00266371 1.55,-8.88178e-16 0,0.2 -1.55,4.44089e-16 -0.0435779,0.00190265 -0.0432462,0.00569347 -0.0425854,0.00944096 -0.0416005,0.0131166 -0.0402991,0.0166924 -0.0386909,0.0201412 -0.0367882,0.0234367 -0.0346056,0.0265538 -0.0321596,0.0294688 -0.0294688,0.0321596 -0.0265538,0.0346056 -0.0234367,0.0367882 -0.0201412,0.0386909 -0.0166924,0.0402991 -0.0131166,0.0416005 -0.00944096,0.0425854 -0.00569347,0.0432462 -0.00190265,0.0435779 0,6.1 0.00190265,0.0435779 0.00569347,0.0432462 0.00944096,0.0425854 0.0131166,0.0416005 0.0166924,0.0402991 0.0201412,0.0386909 0.0234367,0.0367882 0.0265538,0.0346056 0.0294688,0.0321596 0.0321596,0.0294688 0.0346056,0.0265538 0.0367882,0.0234367 0.0386909,0.0201412 0.0402991,0.0166924 0.0416005,0.0131166 0.0425854,0.00944096 0.0432462,0.00569347 0.0435779,0.00190265 1.55,0 4.44089e-16,0.2 -1.55,0 -0.061009,-0.00266371 -0.0605447,-0.00797086 -0.0596196,-0.0132173 -0.0582408,-0.0183632 -0.0564187,-0.0233694 -0.0541672,-0.0281977 -0.0515035,-0.0328114 -0.0484478,-0.0371753 -0.0450234,-0.0412564 -0.0412564,-0.0450234 -0.0371753,-0.0484478 -0.0328114,-0.0515035 -0.0281977,-0.0541672 -0.0233694,-0.0564187 -0.0183632,-0.0582408 -0.0132173,-0.0596196 -0.00797086,-0.0605447 -0.00266371,-0.061009 z "/>
<path fill="rgb(241,240,234)" stroke="rgb(241,240,234)" d="M 2.25,0.4 l 0,-0.2 1.55,-4.44089e-16 0.0435779,0.00190265 0.0432462,0.00569347 0.0425854,0.00944096 0.0416005,0.0131166 0.0402991,0.0166924 0.0386909,0.0201412 0.0367882,0.0234367 0.0346056,0.0265538 0.0321596,0.0294688 0.0294688,0.0321596 0.0265538,0.0346056 0.0234367,0.0367882 0.0201412,0.0386909 0.0166924,0.0402991 0.0131166,0.0416005 0.00944096,0.0425854 0.00569347,0.0432462 0.00190265,0.0435779 0,6.1 -0.00190265,0.0435779 -0.00569347,0.0432462 -0.00944096,0.0425854 -0.0131166,0.0416005 -0.0166924,0.0402991 -0.0201412,0.0386909 -0.0234367,0.0367882 -0.0265538,0.0346056 -0.0294688,0.0321596 -0.0321596,0.0294688 -0.0346056,0.0265538 -0.0367882,0.0234367 -0.0386909,0.0201412 -0.0402991,0.0166924 -0.0416005,0.0131166 -0.0425854,0.00944096 -0.0432462,0.00569347 -0.0435779,0.00190265 -1.55,0 0,-0.2 1.55,0 0.0261467,-0.00114159 0.0259477,-0.00341608 0.0255513,-0.00566458 0.0249603,-0.00786996 0.0241794,-0.0100155 0.0232145,-0.0120847 0.0220729,-0.014062 0.0207634,-0.0159323 0.0192958,-0.0176813 0.0176813,-0.0192958 0.0159323,-0.0207634 0.014062,-0.0220729 0.0120847,-0.0232145 0.0100155,-0.0241794 0.00786996,-0.0249603 0.00566458,-0.0255513 0.00341608,-0.0259477 0.00114159,-0.0261467 0,-6.1 -0.00114159,-0.0261467 -0.00341608,-0.0259477 -0.00566458,-0.0255513 -0.00786996,-0.0249603 -0.0100155,-0.0241794 -0.0120847,-0.0232145 -0.014062,-0.0220729 -0.0159323,-0.0207634 -0.0176813,-0.0192958 -0.0192958,-0.0176813 -0.0207634,-0.0159323 -0.0220729,-0.014062 -0.0232145,-0.0120847 -0.0241794,-0.0100155 -0.0249603,-0.00786996 -0.0255513,-0.00566458 -0.0259477,-0.00341608 -0.0261467,-0.00114159 -1.55,4.44089e-16 z "/>
<path fill="rgb(241,240,234)" stroke="rgb(241,240,234)" d="M 0.7,0.4 l -0.0261467,0.00114159 -0.0259477,0.00341608 -0.0255513,0.00566458 -0.0249603,0.00786996 -0.0241794,0.0100155 -0.0232145,0.0120847 -0.0220729,0.014062 -0.0207634,0.0159323 -0.0192958,0.0176813 -0.0176813,0.0192958 -0.0159323,0.0207634 -0.014062,0.0220729 -0.0120847,0.0232145 -0.0100155,0.0241794 -0.00786996,0.0249603 -0.00566458,0.0255513 -0.00341608,0.0259477 -0.00114159,0.0261467 4.44089e-16,6.1 0.00114159,0.0261467 0.00341608,0.0259477 0.00566458,0.0255513 0.00786996,0.0249603 0.0100155,0.0241794 0.0120847,0.0232145 0.014062,0.0220729 0.0159323,0.0207634 0.0176813,0.0192958 0.0192958,0.0176813 0.0207634,0.0159323 0.0220729,0.014062 0.0232145,0.0120847 0.0241794,0.0100155 0.0249603,0.00786996 0.0255513,0.00566458 0.0259477,0.00341608 0.0261467,0.00114159 1.55,0 0,0.2 -1.55,0 -0.0435779,-0.00190265 -0.0432462,-0.00569347 -0.0425854,-0.00944096 -0.0416005,-0.0131166 -0.0402991,-0.0166924 -0.0386909,-0.0201412 -0.0367882,-0.0234367 -0.0346056,-0.0265538 -0.0321596,-0.0294688 -0.0294688,-0.0321596 -0.0265538,-0.0346056 -0.0234367,-0.0367882 -0.0201412,-0.0386909 -0.0166924,-0.0402991 -0.0131166,-0.0416005 -0.00944096,-0.0425854 -0.00569347,-0.0432462 -0.00190265,-0.0435779 0,-6.1 0.00190265,-0.0435779 0.00569347,-0.0432462 0.00944096,-0.0425854 0.0131166,-0.0416005 0.0166924,-0.0402991 0.0201412,-0.0386909 0.0234367,-0.0367882 0.0265538,-0.0346056 0.0294688,-0.0321596 0.0321596,-0.0294688 0.0346056,-0.0265538 0.0367882,-0.0234367 0.0386909,-0.0201412 0.0402991,-0.0166924 0.0416005,-0.0131166 0.0425854,-0.00944096 0.0432462,-0.00569347 0.0435779,-0.00190265 1.55,-4.44089e-16 0,0.2 -1.55,4.44089e-16 z "/>
<path fill="rgb(241,240,234)" stroke="rgb(241,240,234)" d="M 2.55786,6.76736 l -1.46759,0 0,-3.49881 0.573294,0 0,1.37204 0.894295,0 0.0912546,0.00214717 0.109506,0.0107358 0.10199,0.0193245 0.0944754,0.0268396 0.0880339,0.0354283 0.0794452,0.0429433 0.0837395,0.0601207 0.0794452,0.0697829 0.0708565,0.077298 0.0633414,0.0858867 0.0558264,0.0944754 0.0472377,0.0998433 -1.85945,0.00214717 0,0.872824 0.917914,0 0.938312,0.0246924 -0.0440169,0.090181 -0.0536792,0.0848131 -0.0622679,0.0783716 -0.0719301,0.0730037 -0.0805188,0.0665622 -0.0891074,0.0622679 -0.064415,0.0354283 -0.0891074,0.0407962 -0.0944754,0.0311339 -0.0987697,0.0225453 -0.104138,0.012883 -0.109506,0.00429433 z "/>
<path fill="rgb(241,240,234)" stroke="rgb(241,240,234)" d="M 3.51979,6.16508 l -0.938312,-0.0246924 0.0676358,-0.00322075 0.104138,-0.0193245 0.0891074,-0.038649 0.0740773,-0.0558264 0.0246924,-0.0268396 0.0568999,-0.0869603 0.0354283,-0.0998433 0.0107358,-0.112726 0,-0.0289868 -0.0182509,-0.110579 -0.0429433,-0.0944754 -0.0665622,-0.077298 -0.0450905,-0.0343547 -0.0858867,-0.0461641 -0.0966225,-0.0279132 -0.107358,-0.00966225 -0.917914,0 1.85945,-0.00214717 0.0375754,0.105211 0.0268396,0.107358 0.0161038,0.108432 0.00536792,0.110579 -0.00107358,0.051532 -0.00858867,0.112726 -0.0171773,0.107358 -0.0268396,0.100917 -0.0354283,0.0955489 z "/>
</g></g></svg>
