<?xml version="1.0" encoding="UTF-8" standalone="no"?>
<!DOCTYPE svg PUBLIC "-//W3C//DTD SVG 1.1//EN" "http://www.w3.org/Graphics/SVG/1.1/DTD/svg11-flat.dtd"
[

]>
<svg xmlns="http://www.w3.org/2000/svg"  viewBox="-0.125044 -0.125044 10.2536 14.7519"><g fill="none" stroke="black" stroke-width="0.0125" transform="translate(0,14.5018) scale(1, -1)">
<g id="Output" >
<path fill="rgb(142,146,145)" stroke="rgb(142,146,145)" d="M 3.92902,4.90089 l 2.92275,4.4084 8.88178e-16,0.478224 -3.23981,-4.88662 0.317061,0 z "/>
<path fill="rgb(142,146,145)" stroke="rgb(142,146,145)" d="M 3.15177,5.64146 l 3.7,5.58073 0,0.0787049 -0.00114159,0.0261467 -0.00341608,0.0259477 -0.00566458,0.0255513 -0.00786996,0.0249603 -0.0100155,0.0241794 -0.0120847,0.0232145 -0.014062,0.0220729 -0.0159323,0.0207634 -0.0176813,0.0192958 -0.0192958,0.0176813 -0.0207634,0.0159323 -0.0220729,0.014062 -0.0232145,0.0120847 -0.0241794,0.0100155 -0.0249603,0.00786996 -0.0255513,0.00566458 -0.0259477,0.00341608 -0.0261467,0.00114159 -1.55,0 -1.55,0 -0.0261467,-0.00114159 -0.0259477,-0.00341608 -0.0255513,-0.00566458 -0.0249603,-0.00786996 -0.0241794,-0.0100155 -0.0232145,-0.0120847 -0.0220729,-0.014062 -0.0207634,-0.0159323 -0.0192958,-0.0176813 -0.0176813,-0.0192958 -0.0159323,-0.0207634 -0.014062,-0.0220729 -0.0120847,-0.0232145 -0.0100155,-0.0241794 -0.00786996,-0.0249603 -0.00566458,-0.0255513 -0.00341608,-0.0259477 -0.00114159,-0.0261467 0,-5.65943 z "/>
<path fill="rgb(142,146,145)" stroke="rgb(142,146,145)" d="M 5.00177,4.90089 l 1.55,0 0.0261467,0.00114159 0.0259477,0.00341608 0.0255513,0.00566458 0.0249603,0.00786996 0.0241794,0.0100155 0.0232145,0.0120847 0.0220729,0.014062 0.0207634,0.0159323 0.0192958,0.0176813 0.0176813,0.0192958 0.0159323,0.0207634 0.014062,0.0220729 0.0120847,0.0232145 0.0100155,0.0241794 0.00786996,0.0249603 0.00566458,0.0255513 0.00341608,0.0259477 0.00114159,0.0261467 8.88178e-16,3.63017 -2.60569,-3.93017 0.755689,0 z "/>
<path fill="rgb(142,146,145)" stroke="rgb(142,146,145)" d="M 3.15377,5.16626 l 0.00430022,-0.0265542 0.00666157,-0.0260622 0.00896936,-0.0253607 0.011205,-0.0244553 0.0133506,-0.0233533 0.0153889,-0.0220635 0.0173034,-0.0205963 0.0190788,-0.0189636 0.0207008,-0.0171783 0.0221563,-0.0152549 0.0234338,-0.0132089 3.53545,5.33253 0,0.478224 -3.69799,-5.5777 z "/>
<path fill="rgb(142,146,145)" stroke="rgb(142,146,145)" d="M 6.55177,12.0009 l -1.55,0 -1.77636e-15,-0.2 1.55,0 0.0432628,-0.00187519 0.0429383,-0.0056115 0.0422918,-0.00930573 0.041328,-0.0129301 0.0400542,-0.0164576 0.03848,-0.0198616 0.0366171,-0.0231166 0.0344796,-0.0261982 0.0320835,-0.0290833 0.0294467,-0.0317503 0.026589,-0.0341791 0.0235319,-0.0363516 0.0202983,-0.0382514 0.0169125,-0.0398642 0.127487,0.192289 -0.0332831,0.0491693 -0.0373302,0.0461718 -0.0411087,0.0428422 -0.0445915,0.0392043 -0.0477534,0.0352844 -0.0505718,0.0311106 -0.0530264,0.0267129 -0.0550994,0.0221231 -0.056776,0.0173742 -0.0580441,0.0125002 -0.0588947,0.00753626 -0.0593215,0.00251813 z "/>
<path fill="rgb(142,146,145)" stroke="rgb(142,146,145)" d="M 7.25037,11.3452 l -0.198598,-0.299547 0,-0.478224 0.2,0.301661 0,0.431832 -0.000155803,0.0147682 -0.000467338,0.0147616 -0.000778666,0.0147485 z "/>
<path fill="rgb(142,146,145)" stroke="rgb(142,146,145)" d="M 7.25177,9.91261 l -8.88178e-16,0.478224 -0.2,-0.301661 0,-0.478224 0.2,0.301661 z "/>
<path fill="rgb(142,146,145)" stroke="rgb(142,146,145)" d="M 7.25177,8.25089 l 0,1.18349 -0.2,-0.301661 0,-3.93183 -0.00190265,-0.0435779 -0.00569347,-0.0432462 -0.00944096,-0.0425854 -0.0131166,-0.0416005 -0.0166924,-0.0402991 -0.0201412,-0.0386909 -0.0234367,-0.0367882 -0.0265538,-0.0346056 -0.0294688,-0.0321596 -0.0321596,-0.0294688 -0.0346056,-0.0265538 -0.0367882,-0.0234367 -0.0386909,-0.0201412 -0.0402991,-0.0166924 -0.0416005,-0.0131166 -0.0425854,-0.00944096 -0.0432462,-0.00569347 -0.0435779,-0.00190265 -1.55,8.88178e-16 0,-0.2 1.55,-8.88178e-16 0.061009,0.00266371 0.0605447,0.00797086 0.0596196,0.0132173 0.0582408,0.0183632 0.0564187,0.0233694 0.0541672,0.0281977 0.0515035,0.0328114 0.0484478,0.0371753 0.0450234,0.0412564 0.0412564,0.0450234 0.0371753,0.0484478 0.0328114,0.0515035 0.0281977,0.0541672 0.0233694,0.0564187 0.0183632,0.0582408 0.0132173,0.0596196 0.00797086,0.0605447 0.00266371,0.061009 0,3.05 z "/>
<path fill="rgb(142,146,145)" stroke="rgb(142,146,145)" d="M 3.66382,4.50089 l 0.132599,0.2 -0.317061,0 -0.127817,-0.192788 0.033281,-0.00400385 0.0334345,-0.00240599 0.0335113,-0.00080261 0.212052,0 z "/>
<path fill="rgb(142,146,145)" stroke="rgb(142,146,145)" d="M 2.89524,4.7763 l 0.0432228,-0.0513498 0.0479421,-0.0469741 0.0522206,-0.0421665 0.0560191,-0.0369712 0.11071,0.166985 -0.038542,0.0242109 -0.0361807,0.0276154 -0.0335195,0.0307911 -0.0305806,0.0337117 -0.0273883,0.0363529 -0.023969,0.0386929 -0.119935,-0.180898 z "/>
<path fill="rgb(142,146,145)" stroke="rgb(142,146,145)" d="M 3.98088,4.50089 l 1.02089,0 0,0.2 -0.888288,8.88178e-16 -0.132599,-0.2 z "/>
<path fill="rgb(142,146,145)" stroke="rgb(142,146,145)" d="M 3.45177,12.0009 l -0.061009,-0.00266371 -0.0605447,-0.00797086 -0.0596196,-0.0132173 -0.0582408,-0.0183632 -0.0564187,-0.0233694 -0.0541672,-0.0281977 -0.0515035,-0.0328114 -0.0484478,-0.0371753 -0.0450234,-0.0412564 -0.0412564,-0.0450234 -0.0371753,-0.0484478 -0.0328114,-0.0515035 -0.0281977,-0.0541672 -0.0233694,-0.0564187 -0.0183632,-0.0582408 -0.0132173,-0.0596196 -0.00797086,-0.0605447 -0.00266371,-0.061009 0,-3.05 8.88178e-16,-3.05 0.00160107,-0.0473173 0.00479587,-0.0471009 0.00796874,-0.046669 0.185634,0.279993 0,5.96109 0.00190265,0.0435779 0.00569347,0.0432462 0.00944096,0.0425854 0.0131166,0.0416005 0.0166924,0.0402991 0.0201412,0.0386909 0.0234367,0.0367882 0.0265538,0.0346056 0.0294688,0.0321596 0.0321596,0.0294688 0.0346056,0.0265538 0.0367882,0.0234367 0.0386909,0.0201412 0.0402991,0.0166924 0.0416005,0.0131166 0.0425854,0.00944096 0.0432462,0.00569347 0.0435779,0.00190265 1.55,0 1.77636e-15,0.2 -1.55,0 z "/>
<path fill="rgb(241,240,234)" stroke="rgb(241,240,234)" d="M 7.02008,11.4761 l -0.0169125,0.0398642 -0.0202983,0.0382514 -0.0235319,0.0363516 -0.026589,0.0341791 -0.0294467,0.0317503 -0.0320835,0.0290833 -0.0344796,0.0261982 -0.0366171,0.0231166 -0.03848,0.0198616 -0.0400542,0.0164576 -0.041328,0.0129301 -0.0422918,0.00930573 -0.0429383,0.0056115 -0.0432628,0.00187519 -1.55,0 0,-0.2 1.55,0 0.0261467,-0.00114159 0.0259477,-0.00341608 0.0255513,-0.00566458 0.0249603,-0.00786996 0.0241794,-0.0100155 0.0232145,-0.0120847 0.0220729,-0.014062 0.0207634,-0.0159323 0.0192958,-0.0176813 0.0176813,-0.0192958 0.0159323,-0.0207634 0.014062,-0.0220729 0.0120847,-0.0232145 0.0100155,-0.0241794 0.00786996,-0.0249603 0.00566458,-0.0255513 0.00341608,-0.0259477 0.00114159,-0.0261467 0,-0.0787049 0.168314,0.253868 z "/>
<path fill="rgb(241,240,234)" stroke="rgb(241,240,234)" d="M 7.05177,11.0456 l -0.2,-0.301661 0,-0.478224 0.2,0.301661 0,0.478224 z "/>
<path fill="rgb(241,240,234)" stroke="rgb(241,240,234)" d="M 7.05177,9.61095 l 0,0.478224 -0.2,-0.301661 -8.88178e-16,-0.478224 0.2,0.301661 z "/>
<path fill="rgb(241,240,234)" stroke="rgb(241,240,234)" d="M 5.00177,4.90089 l 0,-0.2 1.55,-8.88178e-16 0.0435779,0.00190265 0.0432462,0.00569347 0.0425854,0.00944096 0.0416005,0.0131166 0.0402991,0.0166924 0.0386909,0.0201412 0.0367882,0.0234367 0.0346056,0.0265538 0.0321596,0.0294688 0.0294688,0.0321596 0.0265538,0.0346056 0.0234367,0.0367882 0.0201412,0.0386909 0.0166924,0.0402991 0.0131166,0.0416005 0.00944096,0.0425854 0.00569347,0.0432462 0.00190265,0.0435779 0,3.93183 -0.2,-0.301661 -8.88178e-16,-3.63017 -0.00114159,-0.0261467 -0.00341608,-0.0259477 -0.00566458,-0.0255513 -0.00786996,-0.0249603 -0.0100155,-0.0241794 -0.0120847,-0.0232145 -0.014062,-0.0220729 -0.0159323,-0.0207634 -0.0176813,-0.0192958 -0.0192958,-0.0176813 -0.0207634,-0.0159323 -0.0220729,-0.014062 -0.0232145,-0.0120847 -0.0241794,-0.0100155 -0.0249603,-0.00786996 -0.0255513,-0.00566458 -0.0259477,-0.00341608 -0.0261467,-0.00114159 -1.55,0 z "/>
<path fill="rgb(241,240,234)" stroke="rgb(241,240,234)" d="M 2.95177,5.3398 l 0.2,0.301661 0,5.65943 0.00114159,0.0261467 0.00341608,0.0259477 0.00566458,0.0255513 0.00786996,0.0249603 0.0100155,0.0241794 0.0120847,0.0232145 0.014062,0.0220729 0.0159323,0.0207634 0.0176813,0.0192958 0.0192958,0.0176813 0.0207634,0.0159323 0.0220729,0.014062 0.0232145,0.0120847 0.0241794,0.0100155 0.0249603,0.00786996 0.0255513,0.00566458 0.0259477,0.00341608 0.0261467,0.00114159 1.55,0 0,0.2 -1.55,0 -0.0435779,-0.00190265 -0.0432462,-0.00569347 -0.0425854,-0.00944096 -0.0416005,-0.0131166 -0.0402991,-0.0166924 -0.0386909,-0.0201412 -0.0367882,-0.0234367 -0.0346056,-0.0265538 -0.0321596,-0.0294688 -0.0294688,-0.0321596 -0.0265538,-0.0346056 -0.0234367,-0.0367882 -0.0201412,-0.0386909 -0.0166924,-0.0402991 -0.0131166,-0.0416005 -0.00944096,-0.0425854 -0.00569347,-0.0432462 -0.00190265,-0.0435779 0,-5.96109 z "/>
<path fill="rgb(241,240,234)" stroke="rgb(241,240,234)" d="M 3.01517,4.9572 l 0.023969,-0.0386929 0.0273883,-0.0363529 0.0305806,-0.0337117 0.0335195,-0.0307911 0.0361807,-0.0276154 0.038542,-0.0242109 0.110971,0.167378 -0.0234338,0.0132089 -0.0221563,0.0152549 -0.0207008,0.0171783 -0.0190788,0.0189636 -0.0173034,0.0205963 -0.0153889,0.0220635 -0.0133506,0.0233533 -0.011205,0.0244553 -0.00896936,0.0253607 -0.00666157,0.0260622 -0.00430022,0.0265542 -0.138602,-0.209055 z "/>
<path fill="rgb(241,240,234)" stroke="rgb(241,240,234)" d="M 3.79642,4.70089 l 0.132599,0.2 -0.317061,0 -0.132599,-0.2 0.317061,0 z "/>
<path fill="rgb(241,240,234)" stroke="rgb(241,240,234)" d="M 5.00177,4.90089 l -0.755689,0 -0.132599,-0.2 0.888288,-8.88178e-16 0,0.2 z "/>
<path fill="rgb(241,240,234)" stroke="rgb(241,240,234)" d="M 1.98967,1.49754 l 0.337004,0 0,0.508305 -0.337004,-0.508305 z "/>
<path fill="rgb(241,240,234)" stroke="rgb(241,240,234)" d="M 7.25177,6.49754 l 0.07491,0 0,1 -0.07491,0 0,-1 z "/>
<path fill="rgb(241,240,234)" stroke="rgb(241,240,234)" d="M 2.5952,1.49754 l -0.268526,0 0,-1 1,0 0,0.483583 -0.00989212,-0.0107954 -0.0159841,-0.0146467 -0.0171998,-0.0131979 -0.0182847,-0.0116486 -0.0192303,-0.0100107 -0.0200296,-0.00829655 -0.0206765,-0.00651928 -0.021166,-0.00469239 -0.0214945,-0.0028298 -0.0216593,-0.000945665 -0.0216593,0.000945665 -0.0214945,0.0028298 -0.021166,0.00469239 -0.0206765,0.00651928 -0.0200296,0.00829655 -0.0192303,0.0100107 -0.0182847,0.0116486 -0.0171998,0.0131979 -0.0159841,0.0146467 -0.0146467,0.0159841 -0.0131979,0.0171998 -0.0116486,0.0182847 -0.0100107,0.0192303 -0.00829655,0.0200296 -0.00651928,0.0206765 -0.00469239,0.021166 -0.0028298,0.0214945 -0.000945665,0.0216593 0.000945665,0.0216593 0.0028298,0.0214945 0.00469239,0.021166 0.00651928,0.0206765 0.00829655,0.0200296 0.0100107,0.0192303 0.0116486,0.0182847 0.0131979,0.0171998 0.0146467,0.0159841 0.0159841,0.0146467 0.0171998,0.0131979 0.0182847,0.0116486 0.0192303,0.0100107 0.0200296,0.00829655 0.0206765,0.00651928 0.021166,0.00469239 0.0214945,0.0028298 0.0216593,0.000945665 0.0216593,-0.000945665 0.0214945,-0.0028298 0.021166,-0.00469239 0.0206765,-0.00651928 0.0200296,-0.00829655 0.0192303,-0.0100107 0.0182847,-0.0116486 0.0171998,-0.0131979 0.0159841,-0.0146467 0.00989212,-0.0107954 0,0.0812415 -0.0159165,0.0113322 -0.0232432,0.0136729 -0.0243431,0.0116021 -0.0252589,0.00944356 -0.0259838,0.00721361 -0.0265122,0.00492912 -0.0268402,0.00260736 -0.0269652,0.000265889 -0.0268864,-0.00207759 -0.0266043,-0.00440537 -0.026121,-0.00669983 -0.0254402,-0.00894364 -0.0245671,-0.0111198 -0.0235083,-0.0132119 -0.0222717,-0.0152042 -0.0208667,-0.0170814 -0.0193039,-0.0188296 -0.0175952,-0.0204353 -0.0157535,-0.0218866 -0.0137927,-0.0231723 -0.0117275,-0.0242829 -0.00957374,-0.0252099 -0.00734756,-0.0259463 -0.00506582,-0.0264864 -0.00274579,-0.0268264 -0.265309,0 0,0.0852264 0.0473766,0 -0.0193072,0.250843 z "/>
<path fill="rgb(241,240,234)" stroke="rgb(241,240,234)" d="M 2.32668,1.49754 l 0.268526,0 -0.00911871,0.118472 0.156343,0.487685 0.574836,0 0.00941452,-0.110986 0,0.50483 -0.674008,0 -0.325992,-0.491695 0,-0.508305 z "/>
<path fill="rgb(241,240,234)" stroke="rgb(241,240,234)" d="M 2.65267,2.49754 l 0.674008,0 0,1 -0.0110122,0 -0.662996,-1 z "/>
<path fill="rgb(241,240,234)" stroke="rgb(241,240,234)" d="M 3.31567,3.49754 l 0.0110122,0 0,0.0166098 -0.0110122,-0.0166098 z "/>
<path fill="rgb(241,240,234)" stroke="rgb(241,240,234)" d="M 4.32668,1.38675 l 0,0.0542447 -0.0146185,-0.000794596 -0.0214933,-0.00310428 -0.0211316,-0.00500526 -0.0206022,-0.00686649 -0.0199092,-0.0086732 -0.019058,-0.0104111 -0.0180556,-0.0120662 -0.0169098,-0.0136256 -0.0156297,-0.0150768 -0.0142256,-0.0164083 -0.0127085,-0.0176095 -0.0110904,-0.0186709 -0.00938437,-0.019584 -0.00760378,-0.0203416 -0.00576281,-0.0209377 -0.00387609,-0.0213676 -0.00195859,-0.0216278 -0.64748,0 -0.0068345,0.0260861 -0.00907476,0.0253938 -0.0112464,0.0245094 -0.013333,0.0234398 -0.0153189,0.022193 -0.0171889,0.0207783 -0.0189289,0.0192066 -0.0205258,0.0174896 -0.00605103,0.00430819 0,-0.0812415 0.00475463,-0.00518877 0.0131979,-0.0171998 0.0116486,-0.0182847 0.0100107,-0.0192303 0.00829655,-0.0200296 0.00651928,-0.0206765 0.00469239,-0.021166 0.0028298,-0.0214945 0.000945665,-0.0216593 -0.000945665,-0.0216593 -0.0028298,-0.0214945 -0.00469239,-0.021166 -0.00651928,-0.0206765 -0.00829655,-0.0200296 -0.0100107,-0.0192303 -0.0116486,-0.0182847 -0.0131979,-0.0171998 -0.00475463,-0.00518877 0,-0.483583 1,0 0,0.40782 -0.00292259,0.000647924 -0.0206765,0.00651928 -0.0200296,0.00829655 -0.0192303,0.0100107 -0.0182847,0.0116486 -0.0171998,0.0131979 -0.0159841,0.0146467 -0.0146467,0.0159841 -0.0131979,0.0171998 -0.0116486,0.0182847 -0.0100107,0.0192303 -0.00829655,0.0200296 -0.00651928,0.0206765 -0.00469239,0.021166 -0.0028298,0.0214945 -0.000945665,0.0216593 0.000945665,0.0216593 0.0028298,0.0214945 0.00469239,0.021166 0.00651928,0.0206765 0.00829655,0.0200296 0.0100107,0.0192303 0.0116486,0.0182847 0.0131979,0.0171998 0.0146467,0.0159841 0.0159841,0.0146467 0.0171998,0.0131979 0.0182847,0.0116486 0.0192303,0.0100107 0.0200296,0.00829655 0.0206765,0.00651928 0.00292259,0.000647924 z "/>
<path fill="rgb(241,240,234)" stroke="rgb(241,240,234)" d="M 4.32668,1.96011 l 0,0.537434 -1,0 0,-0.50483 0.0211097,-0.248859 0,-0.23955 0.0996882,0 0,0.0850087 0.209718,0 0.669485,0.370796 z "/>
<path fill="rgb(241,240,234)" stroke="rgb(241,240,234)" d="M 3.32668,2.49754 l 1,0 0,1 -1,0 0,-1 z "/>
<path fill="rgb(241,240,234)" stroke="rgb(241,240,234)" d="M 3.32668,3.49754 l 1,0 0,1 -0.348016,0 -0.651984,-0.98339 0,-0.0166098 z "/>
<path fill="rgb(241,240,234)" stroke="rgb(241,240,234)" d="M 3.97866,4.49754 l 0.348016,0 0,0.00334751 -0.345797,0 -0.00221938,-0.00334751 z "/>
<path fill="rgb(241,240,234)" stroke="rgb(241,240,234)" d="M 5.20933,1.14605 l -0.000945665,-0.0216593 -0.0028298,-0.0214945 -0.00469239,-0.021166 -0.00651928,-0.0206765 -0.00829655,-0.0200296 -0.0100107,-0.0192303 -0.0116486,-0.0182847 -0.0131979,-0.0171998 -0.0146467,-0.0159841 -0.0159841,-0.0146467 -0.0171998,-0.0131979 -0.0182847,-0.0116486 -0.0192303,-0.0100107 -0.0200296,-0.00829655 -0.0206765,-0.00651928 -0.021166,-0.00469239 -0.0214945,-0.0028298 -0.0216593,-0.000945665 -0.0216593,0.000945665 -0.0214945,0.0028298 -0.021166,0.00469239 -0.0206765,0.00651928 -0.0200296,0.00829655 -0.0192303,0.0100107 -0.0182847,0.0116486 -0.0171998,0.0131979 -0.0159841,0.0146467 -0.0146467,0.0159841 -0.0131979,0.0171998 -0.0116486,0.0182847 -0.0100107,0.0192303 -0.00829655,0.0200296 -0.00651928,0.0206765 -0.00469239,0.021166 -0.0028298,0.0214945 -0.000945665,0.0216593 0.000945665,0.0216593 0.0028298,0.0214945 0.00469239,0.021166 0.00651928,0.0206765 0.00829655,0.0200296 0.0100107,0.0192303 0.0116486,0.0182847 0.0131979,0.0171998 0.0146467,0.0159841 0.0159841,0.0146467 0.0171998,0.0131979 0.0182847,0.0116486 0.0192303,0.0100107 0.0200296,0.00829655 0.0206765,0.00651928 0.021166,0.00469239 0.0214945,0.0028298 0.0216593,0.000945665 0.0216593,-0.000945665 0.0214945,-0.0028298 0.021166,-0.00469239 0.0206765,-0.00651928 0.0200296,-0.00829655 0.0192303,-0.0100107 0.0182847,-0.0116486 0.0171998,-0.0131979 0.0159841,-0.0146467 0.0146467,-0.0159841 0.0131979,-0.0171998 0.0116486,-0.0182847 0.0100107,-0.0192303 0.00829655,-0.0200296 0.00651928,-0.0206765 0.00469239,-0.021166 0.0028298,-0.0214945 0.000945665,-0.0216593 z M 5.32668,0.497542 l 0,0.720267 -0.0488446,0 -0.00309589,0.0213069 -0.00492475,0.0209599 -0.0067168,0.0204562 -0.00845864,0.0197995 -0.0101372,0.0189949 -0.0117401,0.0180483 -0.0132552,0.0169668 -0.0146712,0.0157584 -0.0159775,0.0144323 -0.0171644,0.0129982 -0.018223,0.011467 -0.0191454,0.00985013 -0.0199246,0.0081596 -0.020555,0.00640807 -0.0210317,0.00460865 -0.0213511,0.00277477 -0.021511,0.000920152 -0.696206,-0.000342941 -0.00706579,-0.000384064 0,-0.0542447 0.0182434,0.00404447 0.0214945,0.0028298 0.0216593,0.000945665 0.0216593,-0.000945665 0.0214945,-0.0028298 0.021166,-0.00469239 0.0206765,-0.00651928 0.0200296,-0.00829655 0.0192303,-0.0100107 0.0182847,-0.0116486 0.0171998,-0.0131979 0.0159841,-0.0146467 0.0146467,-0.0159841 0.0131979,-0.0171998 0.0116486,-0.0182847 0.0100107,-0.0192303 0.00829655,-0.0200296 0.00651928,-0.0206765 0.00469239,-0.021166 0.0028298,-0.0214945 0.000945665,-0.0216593 -0.000945665,-0.0216593 -0.0028298,-0.0214945 -0.00469239,-0.021166 -0.00651928,-0.0206765 -0.00829655,-0.0200296 -0.0100107,-0.0192303 -0.0116486,-0.0182847 -0.0131979,-0.0171998 -0.0146467,-0.0159841 -0.0159841,-0.0146467 -0.0171998,-0.0131979 -0.0182847,-0.0116486 -0.0192303,-0.0100107 -0.0200296,-0.00829655 -0.0206765,-0.00651928 -0.021166,-0.00469239 -0.0214945,-0.0028298 -0.0216593,-0.000945665 -0.0216593,0.000945665 -0.0214945,0.0028298 -0.0182434,0.00404447 0,-0.40782 1,0 z M 5.32668,1.44274 l 0,0.0548021 -0.221785,0 0.221785,-0.0548021 z "/>
<path fill="rgb(241,240,234)" stroke="rgb(241,240,234)" d="M 5.10489,1.49754 l 0.221785,0 0,0.818687 -0.0587635,0.0186871 -0.729406,-0.729406 0,-0.0209112 0.214067,0 0.352318,-0.0870564 z M 4.32668,1.96011 l 0.958368,0.530795 0.00527655,0.00173162 0.00540738,0.00126517 0.00549707,0.000789097 0.00554493,0.000307018 0.00555058,-0.000177397 0.005514,-0.000660463 0.00543546,-0.0011385 0.00340634,-0.00103037 0,0.00555233 -1,0 0,-0.537434 z "/>
<path fill="rgb(241,240,234)" stroke="rgb(241,240,234)" d="M 4.32668,2.49754 l 1,0 0,1 -1,0 0,-1 z "/>
<path fill="rgb(241,240,234)" stroke="rgb(241,240,234)" d="M 4.32668,3.49754 l 1,0 0,1 -1,0 0,-1 z "/>
<path fill="rgb(241,240,234)" stroke="rgb(241,240,234)" d="M 4.32668,4.49754 l 1,0 0,0.00334751 -0.32491,0 -0.67509,0 0,-0.00334751 z "/>
<path fill="rgb(241,240,234)" stroke="rgb(241,240,234)" d="M 5.56989,1.49754 l -0.243211,0 0,-0.0548021 0.251684,-0.0621902 0,-0.162741 -0.251684,0 0,-0.720267 1,0 0,0.815958 -0.380014,0.139424 0.00594967,0.0186255 0.00428548,0.0190773 0.000923453,0.0069156 -0.0482024,0 -0.00283544,-0.0126931 -0.00460494,-0.014491 -0.0058061,-0.0139172 -0.0069959,-0.0133588 -0.00813255,-0.0126989 -0.00920742,-0.0119425 -0.0102123,-0.0110954 -0.0111397,-0.010164 -0.0119824,-0.00915539 -0.0127341,-0.00807724 -0.0133891,-0.00693773 -0.0139423,-0.00574552 -0.0143897,-0.00450966 -0.0147277,-0.00323954 -0.0149538,-0.00194482 -0.0150664,-0.00063532 -0.0150645,0.000679005 -0.0149481,0.00198817 -0.0147182,0.00328224 -0.0143765,0.00455137 -0.0139256,0.00578592 -0.0133689,0.00697652 -0.0127106,0.00811413 -0.0119558,0.00919009 -0.0111102,0.0101962 -0.0101801,0.0111249 -0.00917275,0.0119691 -0.00809569,0.0127224 -0.00695713,0.013379 -0.00576572,0.013934 -0.00453052,0.0143831 -0.00273083,0.0123297 z "/>
<path fill="rgb(241,240,234)" stroke="rgb(241,240,234)" d="M 6.32668,1.98375 l 0,0.513788 -1,0 0,-0.00555233 0.00190922,-0.000577512 0.00515521,-0.00206502 0.00495562,-0.00250644 0.00471833,-0.00292879 0.00444513,-0.00332886 0.0041381,-0.00370359 0.00379958,-0.00405014 0.00343215,-0.00436587 0.0030386,-0.00464837 0.00262193,-0.0048955 0.0021853,-0.00510538 0.00173205,-0.00527641 0.00126561,-0.00540728 0.000789548,-0.00549701 0.0531438,-0.534912 0.0168451,0.0459129 0.573984,-0.10777 0.306065,0.140532 0.0057751,0.00235755 z M 5.95782,1.49754 l 0.00166449,0.0124651 0.000870281,0.0195334 -0.000854151,0.0195341 -0.00257194,0.0193828 -0.00426972,0.0190809 -0.00593429,0.0186304 -0.00755271,0.0180351 -0.00911237,0.0172995 -0.0106012,0.0164294 -0.0120075,0.0154314 -0.0133204,0.0143135 -0.0145298,0.0130842 -0.0156261,0.0117531 -0.0166008,0.0103306 -0.0174465,0.00882775 -0.0181564,0.00725624 -0.0187252,0.0056283 -0.0191482,0.00395657 -0.0194224,0.00225407 -0.0195454,0.000534032 -0.0195165,-0.00119016 -0.0193357,-0.00290509 -0.0190046,-0.00459742 -0.0185256,-0.006254 -0.0179025,-0.00786193 -0.0171402,-0.00940871 -0.0162445,-0.0108823 -0.0152225,-0.0122713 -0.0140821,-0.0135648 -0.0128322,-0.0147528 -0.0114825,-0.015826 -0.0100434,-0.0167762 -0.00852624,-0.0175958 -0.178157,0.102441 0.0419684,0.114389 -0.0507125,0.475148 -0.0214944,0.00683533 0,-0.818687 0.243211,0 -0.000530068,0.00239326 -0.0019665,0.014951 -0.000657163,0.0150654 0.00066813,0.0151904 0.00199923,0.0150731 0.00331489,0.0148393 0.00460494,0.014491 0.0058061,0.0139172 0.0069959,0.0133588 0.00813255,0.0126989 0.00920742,0.0119425 0.0102123,0.0110954 0.0111397,0.010164 0.0119824,0.00915539 0.0127341,0.00807724 0.0133891,0.00693773 0.0139423,0.00574552 0.0143897,0.00450966 0.0147277,0.00323954 0.0149538,0.00194482 0.0150664,0.00063532 0.0150645,-0.000679005 0.0149481,-0.00198817 0.0147182,-0.00328224 0.0143765,-0.00455137 0.0139256,-0.00578592 0.0133689,-0.00697652 0.0127106,-0.00811413 0.0119558,-0.00919009 0.0111102,-0.0101962 0.0101801,-0.0111249 0.00917275,-0.0119691 0.00809569,-0.0127224 0.00695713,-0.013379 0.00576572,-0.013934 0.00453052,-0.0143831 0.00326089,-0.014723 0.0019665,-0.014951 0.000657163,-0.0150654 -0.00066813,-0.0151904 -0.00199923,-0.0150731 -0.000479442,-0.00214626 0.0482024,0 z "/>
<path fill="rgb(241,240,234)" stroke="rgb(241,240,234)" d="M 5.32668,2.49754 l 1,0 0,1 -1,0 0,-1 z "/>
<path fill="rgb(241,240,234)" stroke="rgb(241,240,234)" d="M 5.32668,3.49754 l 1,0 0,1 -1,0 0,-1 z "/>
<path fill="rgb(241,240,234)" stroke="rgb(241,240,234)" d="M 5.32668,4.49754 l 1,0 0,0.00334751 -1,8.88178e-16 0,-0.00334751 z "/>
<path fill="rgb(241,240,234)" stroke="rgb(241,240,234)" d="M 7.10756,1.09048 l -0.00066813,-0.0151904 -0.00199923,-0.0150731 -0.00331489,-0.0148393 -0.00460494,-0.014491 -0.0058061,-0.0139172 -0.0069959,-0.0133588 -0.00813255,-0.0126989 -0.00920742,-0.0119425 -0.0102123,-0.0110954 -0.0111397,-0.010164 -0.0119824,-0.00915539 -0.0127341,-0.00807724 -0.0133891,-0.00693773 -0.0139423,-0.00574552 -0.0143897,-0.00450966 -0.0147277,-0.00323954 -0.0149538,-0.00194482 -0.0150664,-0.00063532 -0.0150645,0.000679005 -0.0149481,0.00198817 -0.0147182,0.00328224 -0.0143765,0.00455137 -0.0139256,0.00578592 -0.0133689,0.00697652 -0.0127106,0.00811413 -0.0119558,0.00919009 -0.0111102,0.0101962 -0.0101801,0.0111249 -0.00917275,0.0119691 -0.00809569,0.0127224 -0.00695713,0.013379 -0.00576572,0.013934 -0.00453052,0.0143831 -0.00326089,0.014723 -0.0019665,0.014951 -0.000657163,0.0150654 0.00066813,0.0151904 0.00199923,0.0150731 0.00331489,0.0148393 0.00460494,0.014491 0.0058061,0.0139172 0.0069959,0.0133588 0.00813255,0.0126989 0.00920742,0.0119425 0.0102123,0.0110954 0.0111397,0.010164 0.0119824,0.00915539 0.0127341,0.00807724 0.0133891,0.00693773 0.0139423,0.00574552 0.0143897,0.00450966 0.0147277,0.00323954 0.0149538,0.00194482 0.0150664,0.00063532 0.0150645,-0.000679005 0.0149481,-0.00198817 0.0147182,-0.00328224 0.0143765,-0.00455137 0.0139256,-0.00578592 0.0133689,-0.00697652 0.0127106,-0.00811413 0.0119558,-0.00919009 0.0111102,-0.0101962 0.0101801,-0.0111249 0.00917275,-0.0119691 0.00809569,-0.0127224 0.00695713,-0.013379 0.00576572,-0.013934 0.00453052,-0.0143831 0.00326089,-0.014723 0.0019665,-0.014951 0.000657163,-0.0150654 z M 7.32668,0.497542 l 0,0.522425 -0.00301255,-0.00821101 -0.174459,0.0252443 0.00378667,0.0188444 0.00214398,0.0191011 0.000485246,0.0192149 -0.00117712,0.019185 -0.00283068,0.0190115 -0.00446306,0.0186957 -0.00606204,0.0182401 -0.00761567,0.017648 -0.00911231,0.0169238 -0.0105408,0.016073 -0.0118904,0.015102 -0.013151,0.0140179 -0.0143132,0.0128289 -0.0153683,0.011544 -0.0163085,0.0101727 -0.0171266,0.00872526 -0.0178165,0.00721255 -0.0183732,0.00564586 -0.0187924,0.00403694 -0.0190709,0.0023978 -0.0192068,0.000740728 -0.019199,-0.00092189 -0.0190475,-0.00257761 -0.0187534,-0.00421404 -0.0183191,-0.00581894 -0.0177477,-0.00738031 -0.0170435,-0.00888645 -0.0162118,-0.0103261 -0.0152587,-0.0116885 -0.0141915,-0.0129634 -0.0130182,-0.0141413 -0.0117474,-0.0152135 -0.0103887,-0.0161717 -0.00895225,-0.017009 -0.00744884,-0.017719 -0.398398,0.146169 0,-0.815958 1,0 z M 7.32668,1.32354 l 0,0.173997 -0.210826,0 0.0337788,-0.0780857 0.177047,-0.0959114 z "/>
<path fill="rgb(241,240,234)" stroke="rgb(241,240,234)" d="M 6.32668,1.98375 l 0.00200174,0.000817161 0.00802012,0.00249714 0.00820449,0.00180124 0.00832859,0.0010921 0.00839151,0.000374946 0.0083928,-0.000344965 0.00833244,-0.00106234 0.00821087,-0.00177192 0.00802899,-0.00246848 0.000323195,-0.000115378 0.000322789,-0.000116509 0.000322379,-0.000117638 0.585816,-0.214937 0.00409047,-0.0017111 0.00392199,-0.00206829 0.00372239,-0.00240907 0.00349326,-0.00273074 0.00323642,-0.00303074 0.0029539,-0.0033067 0.00264794,-0.00355643 0.00232098,-0.00377794 0.00197561,-0.00396948 6.0127e-05,-0.000136189 5.97195e-05,-0.000136368 5.93114e-05,-0.000136546 0.105936,-0.244891 0.210826,0 0,1 -1,0 0,-0.513788 z "/>
<path fill="rgb(241,240,234)" stroke="rgb(241,240,234)" d="M 6.32668,2.49754 l 1,0 0,1 -1,0 0,-1 z "/>
<path fill="rgb(241,240,234)" stroke="rgb(241,240,234)" d="M 6.32668,3.49754 l 1,0 0,1 -1,0 0,-1 z "/>
<path fill="rgb(241,240,234)" stroke="rgb(241,240,234)" d="M 6.32668,4.50089 l 0,-0.00334751 1,0 0,1 -0.07491,0 0,-0.296652 -0.00266371,-0.061009 -0.00797086,-0.0605447 -0.0132173,-0.0596196 -0.0183632,-0.0582408 -0.0233694,-0.0564187 -0.0281977,-0.0541672 -0.0328114,-0.0515035 -0.0371753,-0.0484478 -0.0412564,-0.0450234 -0.0450234,-0.0412564 -0.0484478,-0.0371753 -0.0515035,-0.0328114 -0.0541672,-0.0281977 -0.0564187,-0.0233694 -0.0582408,-0.0183632 -0.0596196,-0.0132173 -0.0605447,-0.00797086 -0.061009,-0.00266371 -0.22509,0 z "/>
<path fill="rgb(241,240,234)" stroke="rgb(241,240,234)" d="M 7.25177,5.49754 l 0.07491,0 0,1 -0.07491,0 0,-1 z "/>
<path fill="rgb(241,240,234)" stroke="rgb(241,240,234)" d="M 7.25177,7.49754 l 0.07491,0 0,0.753348 -0.07491,0 0,-0.753348 z "/>
<path fill="rgb(241,240,234)" stroke="rgb(241,240,234)" d="M 8.32668,0.497542 l 0,1 -1,0 0,-0.173997 0.0929132,-0.0503337 -0.0929132,-0.253244 0,-0.522425 1,0 z "/>
<path fill="rgb(241,240,234)" stroke="rgb(241,240,234)" d="M 7.32668,1.49754 l 1,0 0,1 -1,0 0,-1 z "/>
<path fill="rgb(241,240,234)" stroke="rgb(241,240,234)" d="M 7.32668,2.49754 l 1,0 0,1 -1,0 0,-1 z "/>
<path fill="rgb(241,240,234)" stroke="rgb(241,240,234)" d="M 7.32668,3.49754 l 1,0 0,1 -1,0 0,-1 z "/>
<path fill="rgb(241,240,234)" stroke="rgb(241,240,234)" d="M 7.32668,4.49754 l 1,0 0,1 -1,0 0,-1 z "/>
<path fill="rgb(241,240,234)" stroke="rgb(241,240,234)" d="M 7.32668,5.49754 l 1,0 0,1 -1,0 0,-1 z "/>
<path fill="rgb(241,240,234)" stroke="rgb(241,240,234)" d="M 7.32668,6.49754 l 1,0 0,1 -1,0 0,-1 z "/>
<path fill="rgb(241,240,234)" stroke="rgb(241,240,234)" d="M 7.32668,8.25089 l 0,-0.753348 1,0 0,0.753348 -1,0 z "/>
<path fill="rgb(241,240,234)" stroke="rgb(241,240,234)" d="M 8.32668,1.49754 l 0,-1 0.922115,7.10543e-15 0.0228784,0.000998892 0.0227043,0.00298907 0.0223574,0.00495651 0.00994488,0.00313561 0,0.98792 -1,0 z "/>
<path fill="rgb(241,240,234)" stroke="rgb(241,240,234)" d="M 8.32668,1.49754 l 1,0 0,1 -1,0 0,-1 z "/>
<path fill="rgb(241,240,234)" stroke="rgb(241,240,234)" d="M 8.32668,2.49754 l 1,0 0,1 -1,0 0,-1 z "/>
<path fill="rgb(241,240,234)" stroke="rgb(241,240,234)" d="M 8.32668,3.49754 l 1,0 0,1 -1,0 0,-1 z "/>
<path fill="rgb(241,240,234)" stroke="rgb(241,240,234)" d="M 8.32668,4.49754 l 1,0 0,1 -1,0 0,-1 z "/>
<path fill="rgb(241,240,234)" stroke="rgb(241,240,234)" d="M 8.32668,5.49754 l 1,0 0,1 -1,0 0,-1 z "/>
<path fill="rgb(241,240,234)" stroke="rgb(241,240,234)" d="M 8.32668,6.49754 l 1,0 0,1 -1,0 0,-1 z "/>
<path fill="rgb(241,240,234)" stroke="rgb(241,240,234)" d="M 8.32668,8.25089 l 0,-0.753348 1,0 0,0.753348 -1,0 z "/>
<path fill="rgb(241,240,234)" stroke="rgb(241,240,234)" d="M 9.32668,1.49754 l 0,-0.98792 0.0118954,0.00375061 0.021157,0.00876352 0.0203127,0.0105741 0.0193138,0.0123043 0.0181679,0.0139407 0.0168838,0.0154711 0.0154711,0.0168838 0.0139407,0.0181679 0.0123043,0.0193138 0.0105741,0.0203127 0.00876352,0.021157 0.00688622,0.0218403 0.00495651,0.0223574 0.00298907,0.0227043 0.000998892,0.0228784 0,0.7375 -0.184615,0 z "/>
<path fill="rgb(241,240,234)" stroke="rgb(241,240,234)" d="M 9.51129,1.49754 l 0,1 -0.184615,0 0,-1 0.184615,0 z "/>
<path fill="rgb(241,240,234)" stroke="rgb(241,240,234)" d="M 9.51129,2.49754 l 0,1 -0.184615,0 0,-1 0.184615,0 z "/>
<path fill="rgb(241,240,234)" stroke="rgb(241,240,234)" d="M 9.51129,3.49754 l 0,1 -0.184615,0 0,-1 0.184615,0 z "/>
<path fill="rgb(241,240,234)" stroke="rgb(241,240,234)" d="M 9.51129,4.49754 l 0,1 -0.184615,0 0,-1 0.184615,0 z "/>
<path fill="rgb(241,240,234)" stroke="rgb(241,240,234)" d="M 9.51129,5.49754 l 0,1 -0.184615,0 0,-1 0.184615,0 z "/>
<path fill="rgb(241,240,234)" stroke="rgb(241,240,234)" d="M 9.51129,6.49754 l 1.77636e-15,1 -0.184615,0 0,-1 0.184615,0 z "/>
<path fill="rgb(241,240,234)" stroke="rgb(241,240,234)" d="M 9.32668,7.49754 l 0.184615,0 0,0.753348 -0.184615,0 0,-0.753348 z "/>
<path fill="rgb(241,240,234)" stroke="rgb(241,240,234)" d="M 1.00962,0.497542 l 2.6542,4.00335 -0.212052,0 -0.0335113,0.00080261 -0.0334345,0.00240599 -0.033281,0.00400385 -2.65241,-4.00064 0.0234893,-0.00549566 0.0238946,-0.00331607 0.0240982,-0.00110848 0.239002,2.66454e-15 z "/>
<path fill="rgb(241,240,234)" stroke="rgb(241,240,234)" d="M 0.508116,1.1758 l -1.77636e-15,-0.415756 0.000625809,-0.0181151 0.00187444,-0.0180288 0.00311414,-0.0178564 2.58091,3.8928 -0.0560191,0.0369712 -0.0522206,0.0421665 -0.0479421,0.0469741 -0.0432228,0.0513498 -2.38712,-3.60051 z "/>
<path fill="rgb(241,240,234)" stroke="rgb(241,240,234)" d="M 0.508116,8.25089 l 1.77636e-15,-6.59687 2.25802,3.40578 -0.00796874,0.046669 -0.00479587,0.0471009 -0.00160107,0.0473173 -8.88178e-16,3.05 -2.24365,0 z "/>
<path fill="rgb(241,240,234)" stroke="rgb(241,240,234)" d="M 2.32668,0.497542 l 0,1 -0.337004,0 -0.662996,-1 1,0 z "/>
<path fill="rgb(241,240,234)" stroke="rgb(241,240,234)" d="M 6.55177,12.0009 l 0.0593215,-0.00251813 0.0588947,-0.00753626 0.0580441,-0.0125002 0.056776,-0.0173742 0.0550994,-0.0221231 0.0530264,-0.0267129 0.0505718,-0.0311106 0.0477534,-0.0352844 0.0445915,-0.0392043 0.0411087,-0.0428422 0.0373302,-0.0461718 0.0332831,-0.0491693 1.54516,2.33058 -7.92212,-7.10543e-15 -0.0228784,-0.000998892 -0.0227043,-0.00298907 -0.0223574,-0.00495651 -0.0218403,-0.00688622 -0.021157,-0.00876352 -0.0203127,-0.0105741 -0.0193138,-0.0123043 -0.0181679,-0.0139407 -0.0168838,-0.0154711 -0.0154711,-0.0168838 -0.0139407,-0.0181679 -0.0123043,-0.0193138 -0.0105741,-0.0203127 -0.00876352,-0.021157 -0.00688622,-0.0218403 -0.00495651,-0.0223574 -0.00298907,-0.0227043 -0.000998892,-0.0228784 0,-5.48553 2.24365,0 0,3.05 0.00266371,0.061009 0.00797086,0.0605447 0.0132173,0.0596196 0.0183632,0.0582408 0.0233694,0.0564187 0.0281977,0.0541672 0.0328114,0.0515035 0.0371753,0.0484478 0.0412564,0.0450234 0.0450234,0.0412564 0.0484478,0.0371753 0.0515035,0.0328114 0.0541672,0.0281977 0.0564187,0.0233694 0.0582408,0.0183632 0.0596196,0.0132173 0.0605447,0.00797086 0.061009,0.00266371 1.55,0 1.55,0 z "/>
<path fill="rgb(241,240,234)" stroke="rgb(241,240,234)" d="M 9.51129,8.25089 l 0,4.59155 -2.25953,-3.40805 0,-1.18349 2.25953,0 z "/>
<path fill="rgb(241,240,234)" stroke="rgb(241,240,234)" d="M 9.50568,13.7904 l -2.25391,-3.39958 8.88178e-16,-0.478224 2.25953,3.40805 -1.77636e-15,0.415756 -0.000625809,0.0181151 -0.00187444,0.0180288 -0.00311414,0.0178564 z "/>
<path fill="rgb(241,240,234)" stroke="rgb(241,240,234)" d="M 9.00979,13.9989 l -1.75943,-2.65375 0.000778666,-0.0147485 0.000467338,-0.0147616 0.000155803,-0.0147682 0,-0.431832 2.06851,3.11994 -0.0234893,0.00549566 -0.0238946,0.00331607 -0.0240982,0.00110848 -0.239002,-1.77636e-15 z "/>
<path fill="rgb(241,240,234)" stroke="rgb(241,240,234)" d="M 3.19183,2.01099 l 0,-0.279037 -0.437368,0 0.0936064,0.279037 0.343761,0 z "/>
<path fill="rgb(241,240,234)" stroke="rgb(241,240,234)" d="M 5.0325,2.17413 l -0.552068,-0.51313 -0.535972,0 1.08804,0.614469 0,-0.101339 z "/>
<path fill="rgb(241,240,234)" stroke="rgb(241,240,234)" d="M 6.37715,1.93715 l 0.317906,-0.116637 -0.0801178,-0.218369 -0.575351,0.195921 0.301461,0.13716 0.00378018,0.00165737 0.00391382,0.00131098 0.00401579,0.000953982 0.00408527,0.000589264 0.0041217,0.000219778 0.00412477,-0.000151485 0.00409447,-0.000521523 0.00403104,-0.000887342 0.003935,-0.00124598 z "/>
<path fill="rgb(241,240,234)" stroke="rgb(241,240,234)" d="M 6.9724,1.70359 l 0.111866,-0.260152 -0.421246,0.142755 0.0795722,0.216882 0.202036,-0.0741255 0.00362967,-0.00135726 0.00350145,-0.00166028 0.00334799,-0.00195132 0.00317039,-0.0022283 0.00296993,-0.00248921 0.00274806,-0.00273218 0.00250638,-0.00295545 0.00224664,-0.00315742 0.00197069,-0.00333662 0.00168054,-0.00349177 z "/>
<path fill="rgb(241,240,234)" stroke="rgb(241,240,234)" d="M 10.0035,8.25089 l -0.229744,0 0,-7.49085 -0.00199778,-0.0457568 -0.00597815,-0.0454085 -0.00991301,-0.0447147 -0.0137724,-0.0436806 -0.017527,-0.042314 -0.0211483,-0.0406254 -0.0246085,-0.0386276 -0.0278815,-0.0363359 -0.0309423,-0.0337676 -0.0337676,-0.0309423 -0.0363359,-0.0278815 -0.0386276,-0.0246085 -0.0406254,-0.0211483 -0.042314,-0.017527 -0.0436806,-0.0137724 -0.0447147,-0.00991301 -0.0454085,-0.00597815 -0.0457568,-0.00199778 -8.47818,-7.10543e-15 -0.0457568,0.00199778 -0.0454085,0.00597815 -0.0447147,0.00991301 -0.0436806,0.0137724 -0.042314,0.017527 -0.0406254,0.0211483 -0.0386276,0.0246085 -0.0363359,0.0278815 -0.0337676,0.0309423 -0.0309423,0.0337676 -0.0278815,0.0363359 -0.0246085,0.0386276 -0.0211483,0.0406254 -0.017527,0.042314 -0.0137724,0.0436806 -0.00991301,0.0447147 -0.00597815,0.0454085 -0.00199778,0.0457568 0,7.49085 -0.245616,0 0,-8.25089 10.0035,3.55271e-15 -1.77636e-15,8.25089 z "/>
<path fill="rgb(241,240,234)" stroke="rgb(241,240,234)" d="M 10.0035,8.25089 l -1.77636e-15,6.25089 -10.0035,0 0,-6.25089 0.245616,0 0,5.48553 0.00199778,0.0457568 0.00597815,0.0454085 0.00991301,0.0447147 0.0137724,0.0436806 0.017527,0.042314 0.0211483,0.0406254 0.0246085,0.0386276 0.0278815,0.0363359 0.0309423,0.0337676 0.0337676,0.0309423 0.0363359,0.0278815 0.0386276,0.0246085 0.0406254,0.0211483 0.042314,0.017527 0.0436806,0.0137724 0.0447147,0.00991301 0.0454085,0.00597815 0.0457568,0.00199778 8.47818,1.06581e-14 0.0457568,-0.00199778 0.0454085,-0.00597815 0.0447147,-0.00991301 0.0436806,-0.0137724 0.042314,-0.017527 0.0406254,-0.0211483 0.0386276,-0.0246085 0.0363359,-0.0278815 0.0337676,-0.0309423 0.0309423,-0.0337676 0.0278815,-0.0363359 0.0246085,-0.0386276 0.0211483,-0.0406254 0.017527,-0.042314 0.0137724,-0.0436806 0.00991301,-0.0447147 0.00597815,-0.0454085 0.00199778,-0.0457568 1.77636e-15,-5.48553 0.229744,0 z "/>
<path fill="rgb(241,240,234)" stroke="rgb(241,240,234)" d="M 6.51531,6.05205 l -0.0493378,-0.00548198 -0.0420285,-0.0201006 -0.0219279,-0.0237552 0.115122,-0.0365465 0.0493378,-0.00730931 0.0475105,-0.0219279 0.0292372,0.078575 -0.0292372,0.0164459 -0.0475105,0.0146186 -0.0511651,0.00548198 z "/>
<path fill="rgb(241,240,234)" stroke="rgb(241,240,234)" d="M 6.40201,6.00272 l -0.0127913,-0.0511651 0.00548198,-0.0365465 0.0292372,-0.0438558 0.0383739,-0.0237552 0.0566471,-0.0201006 0.0365465,-0.0127913 0.0201006,-0.0292372 -0.00548198,-0.0127913 -0.0529925,-0.0127913 0.124258,-0.0310646 0.0127913,0.0529925 -0.00548198,0.0420285 -0.0255826,0.0365465 -0.0402012,0.0274099 -0.0566471,0.0201006 -0.0456832,0.0146186 -0.0127913,0.0201006 0.00365465,0.00913663 0.0456832,0.0146186 -0.115122,0.0365465 z "/>
<path fill="rgb(241,240,234)" stroke="rgb(241,240,234)" d="M 6.40932,5.78526 l -0.0292372,-0.078575 0.0365465,-0.0164459 0.0493378,-0.010964 0.0548198,-0.00548198 0.00182733,0 0.0566471,0.00730931 0.0402012,0.0219279 0.0219279,0.0255826 -0.124258,0.0310646 -0.00913663,0.00182733 -0.0529925,0.010964 -0.0456832,0.0127913 z "/>
<path fill="rgb(241,240,234)" stroke="rgb(241,240,234)" d="M 6.29055,6.05205 l -0.0201006,-0.00365465 -0.0438558,-0.0292372 0.0584744,-0.0529925 0.0438558,-0.0219279 0.0255826,0.0858843 -0.0127913,0.00913663 -0.0511651,0.0127913 z "/>
<path fill="rgb(241,240,234)" stroke="rgb(241,240,234)" d="M 6.22659,6.04657 l -0.0804024,0 0,-0.365465 0.0804024,0 0,0.213797 0,0.00182733 0.0182733,0.0493378 0.0402012,0.0201006 -0.0584744,0.0529925 0,0.0274099 z "/>
<path fill="rgb(241,240,234)" stroke="rgb(241,240,234)" d="M 5.95066,6.05205 l -0.0164459,-0.00182733 -0.0456832,-0.0164459 -0.0383739,-0.0365465 -0.0146186,-0.0255826 0.116949,-0.00182733 0.0347192,-0.0127913 0.0219279,-0.0511651 -0.116949,0 0.195524,-0.0292372 -0.00913663,0.0566471 -0.00548198,0.0127913 -0.0237552,0.0493378 -0.010964,0.0146186 -0.0402012,0.0310646 -0.0475105,0.010964 z "/>
<path fill="rgb(241,240,234)" stroke="rgb(241,240,234)" d="M 5.83554,5.97165 l -0.0201006,-0.0511651 -0.00548198,-0.0566471 0.00182733,-0.0347192 0.0127913,-0.0548198 0.0255826,-0.0475105 0.0127913,-0.0146186 0.0420285,-0.0292372 0.0475105,-0.010964 0.0201006,0.00182733 0.0456832,0.0164459 0.0383739,0.0383739 0.00182733,0.00365465 -0.105985,0.0219279 -0.0383739,0.0201006 -0.0219279,0.0493378 -0.00365465,0.0127913 0.201006,0 0,0.0255826 -0.00182733,0.0146186 -0.195524,0.0292372 0.0219279,0.0475105 0.0383739,0.0164459 -0.116949,0.00182733 z "/>
<path fill="rgb(241,240,234)" stroke="rgb(241,240,234)" d="M 6.00548,5.78526 l -0.00913663,-0.00913663 -0.0438558,-0.0219279 0.105985,-0.0219279 -0.0529925,0.0529925 z "/>
<path fill="rgb(241,240,234)" stroke="rgb(241,240,234)" d="M 5.74418,6.1891 l -0.0822297,-0.0328919 0,-0.133395 -0.15715,-0.0255826 -0.0146186,-0.0255826 0.120604,-0.00548198 0.0127913,-0.00365465 0.0383739,-0.0365465 0,-0.126086 -0.010964,-0.0164459 -0.0402012,-0.0237552 -0.105985,-0.0292372 0.00730931,-0.00730931 0.149841,-0.0164459 0,-0.0255826 0.0822297,0 0,0.507997 z "/>
<path fill="rgb(241,240,234)" stroke="rgb(241,240,234)" d="M 5.59799,6.05571 l -0.010964,-0.00182733 -0.0438558,-0.0164459 -0.0383739,-0.0402012 0.15715,0.0255826 -0.0292372,0.0255826 -0.0347192,0.00730931 z "/>
<path fill="rgb(241,240,234)" stroke="rgb(241,240,234)" d="M 5.49018,5.97165 l -0.0182733,-0.0511651 -0.00548198,-0.0584744 0.00182733,-0.0292372 0.010964,-0.0529925 0.0255826,-0.0493378 0.105985,0.0292372 -0.00548198,0.00182733 -0.0420285,0.0292372 -0.00730931,0.0164459 -0.010964,0.0566471 0.00182733,0.0219279 0.0164459,0.0511651 0.00548198,0.00548198 0.0420285,0.0237552 -0.120604,0.00548198 z "/>
<path fill="rgb(241,240,234)" stroke="rgb(241,240,234)" d="M 5.5121,5.72314 l 0.0402012,-0.0347192 0.0456832,-0.0127913 0.0347192,0.00730931 0.0292372,0.0237552 -0.149841,0.0164459 z "/>
<path fill="rgb(241,240,234)" stroke="rgb(241,240,234)" d="M 5.20329,6.04474 l -0.0804024,0 0,-0.252171 0.00548198,-0.0383739 0.133395,0.00548198 -0.0420285,0.0182733 -0.0164459,0.0493378 0,0.217452 z "/>
<path fill="rgb(241,240,234)" stroke="rgb(241,240,234)" d="M 5.39881,6.04474 l -0.0767477,0 0,-0.219279 -0.0182733,-0.0456832 -0.0420285,-0.0201006 -0.133395,-0.00548198 0.193697,-0.0438558 0,-0.0292372 0.0767477,0 0,0.363638 z "/>
<path fill="rgb(241,240,234)" stroke="rgb(241,240,234)" d="M 5.12837,5.7542 l 0.0274099,-0.0456832 0.0347192,-0.0237552 0.0529925,-0.00913663 0.0365465,0.00548198 0.0420285,0.0292372 -0.193697,0.0438558 z "/>
<path fill="rgb(241,240,234)" stroke="rgb(241,240,234)" d="M 4.9164,6.05571 l -0.0182733,-0.00182733 -0.0456832,-0.0182733 -0.0383739,-0.0365465 -0.0164459,-0.0274099 0.118776,-0.00548198 0.00365465,-0.00182733 0.0402012,-0.0274099 0.00730931,-0.0164459 0.00913663,-0.0566471 0,-0.0219279 -0.0164459,-0.0529925 -0.00182733,-0.00365465 -0.0420285,-0.0255826 0.118776,-0.00548198 0.0182733,0.0511651 0.00730931,0.0584744 -0.00365465,0.0347192 -0.0127913,0.0529925 -0.0255826,0.0475105 -0.0127913,0.0146186 -0.0420285,0.0310646 -0.0475105,0.010964 z "/>
<path fill="rgb(241,240,234)" stroke="rgb(241,240,234)" d="M 4.79762,5.97165 l -0.0182733,-0.0493378 -0.00730931,-0.0584744 0.00365465,-0.0347192 0.0127913,-0.0529925 0.0255826,-0.0475105 0.0127913,-0.0164459 0.0420285,-0.0292372 0.0475105,-0.010964 0.0164459,0.00182733 0.0456832,0.0164459 0.0402012,0.0383739 0.0164459,0.0255826 -0.118776,0.00548198 -0.00548198,0.00182733 -0.0402012,0.0274099 -0.00730931,0.0164459 -0.00913663,0.0584744 0,0.0219279 0.0164459,0.0511651 0.00365465,0.00548198 0.0420285,0.0237552 -0.118776,0.00548198 z "/>
<path fill="rgb(241,240,234)" stroke="rgb(241,240,234)" d="M 4.51438,6.1891 l -0.0804024,-0.0328919 0,-0.475105 0.0804024,0 0,0.213797 0,0.00913663 0.0164459,0.0456832 0.0438558,0.0164459 0.12974,0.00730931 -0.190042,0.0456832 0,0.169941 z "/>
<path fill="rgb(241,240,234)" stroke="rgb(241,240,234)" d="M 4.59113,6.05571 l -0.0383739,-0.00730931 -0.0383739,-0.0292372 0.190042,-0.0456832 -0.0274099,0.0456832 -0.0347192,0.0255826 -0.0511651,0.010964 z "/>
<path fill="rgb(241,240,234)" stroke="rgb(241,240,234)" d="M 4.70443,5.97348 l -0.12974,-0.00730931 0.0420285,-0.0201006 0.0182733,-0.0475105 0,-0.217452 0.0749204,0 0,0.250344 -0.00548198,0.0420285 z "/>
<path fill="rgb(241,240,234)" stroke="rgb(241,240,234)" d="M 6.65418,6.77568 l -0.15715,0 0,0.089539 0.15715,0 0,-0.089539 z "/>
<path fill="rgb(241,240,234)" stroke="rgb(241,240,234)" d="M 6.28506,6.94927 l -0.0438558,-0.0127913 -0.0383739,-0.0420285 0.160805,0.0201006 -0.0328919,0.0255826 -0.0365465,0.00913663 -0.00913663,0 z "/>
<path fill="rgb(241,240,234)" stroke="rgb(241,240,234)" d="M 6.44221,6.94013 l -0.078575,0 0,-0.0255826 -0.160805,-0.0201006 -0.0164459,-0.0292372 0.120604,-0.00548198 0.0164459,-0.00365465 0.0402012,-0.0347192 0,-0.12974 -0.0146186,-0.0201006 -0.0420285,-0.0201006 -0.105985,-0.0292372 0.00730931,-0.00913663 0.155323,-0.00730931 0,-0.0402012 -0.00730931,-0.0292372 -0.0274099,-0.0383739 -0.0529925,-0.0365465 0.0328919,-0.078575 0.00730931,0.00365465 0.0274099,0.0127913 0.0402012,0.0255826 0.00365465,0.00365465 0.0347192,0.0456832 0.0146186,0.0420285 0.00548198,0.0621291 0,0.361811 z "/>
<path fill="rgb(241,240,234)" stroke="rgb(241,240,234)" d="M 6.18639,6.86521 l -0.0182733,-0.0511651 -0.00548198,-0.0584744 0.00182733,-0.0310646 0.0127913,-0.0548198 0.0237552,-0.0475105 0.105985,0.0292372 -0.00548198,0 -0.0402012,0.0292372 -0.00913663,0.0182733 -0.00913663,0.0566471 0.00182733,0.0237552 0.0164459,0.0511651 0.00365465,0.00548198 0.0420285,0.0237552 -0.120604,0.00548198 z "/>
<path fill="rgb(241,240,234)" stroke="rgb(241,240,234)" d="M 6.20832,6.61304 l 0.0383739,-0.0365465 0.0456832,-0.010964 0.0292372,0.00730931 0.0420285,0.0328919 -0.155323,0.00730931 z "/>
<path fill="rgb(241,240,234)" stroke="rgb(241,240,234)" d="M 5.9799,6.94744 l -0.0365465,-0.00730931 -0.0402012,-0.0292372 0.191869,-0.0420285 -0.0274099,0.0456832 -0.0347192,0.0219279 -0.0529925,0.010964 z "/>
<path fill="rgb(241,240,234)" stroke="rgb(241,240,234)" d="M 5.90315,6.94013 l -0.0804024,0 0,-0.365465 0.0804024,0 0,0.219279 0.0164459,0.0475105 0.0420285,0.0201006 0.133395,0.00730931 -0.191869,0.0420285 0,0.0292372 z "/>
<path fill="rgb(241,240,234)" stroke="rgb(241,240,234)" d="M 6.09502,6.86887 l -0.133395,-0.00730931 0.0420285,-0.0182733 0.0182733,-0.0493378 0,-0.219279 0.078575,0 0,0.253998 -0.00548198,0.0402012 z "/>
<path fill="rgb(241,240,234)" stroke="rgb(241,240,234)" d="M 5.70032,7.08267 l -0.0292372,-0.0127913 -0.0127913,-0.0292372 0.0127913,-0.0328919 0.0292372,-0.0127913 0.0292372,0.0127913 0.010964,0.0328919 -0.010964,0.0292372 -0.0292372,0.0127913 z "/>
<path fill="rgb(241,240,234)" stroke="rgb(241,240,234)" d="M 5.74052,6.94013 l -0.0804024,0 0,-0.365465 0.0804024,0 0,0.365465 z "/>
<path fill="rgb(241,240,234)" stroke="rgb(241,240,234)" d="M 5.46277,6.94744 l -0.0383739,-0.00730931 -0.0402012,-0.0292372 0.191869,-0.0420285 -0.0274099,0.0456832 -0.0347192,0.0219279 -0.0511651,0.010964 z "/>
<path fill="rgb(241,240,234)" stroke="rgb(241,240,234)" d="M 5.38419,6.94013 l -0.0804024,0 0,-0.365465 0.0804024,0 0,0.219279 0.0182733,0.0475105 0.0402012,0.0201006 0.133395,0.00730931 -0.191869,0.0420285 0,0.0292372 z "/>
<path fill="rgb(241,240,234)" stroke="rgb(241,240,234)" d="M 5.57606,6.86887 l -0.133395,-0.00730931 0.0438558,-0.0182733 0.0164459,-0.0493378 0,-0.219279 0.078575,0 0,0.253998 -0.00548198,0.0402012 z "/>
<path fill="rgb(241,240,234)" stroke="rgb(241,240,234)" d="M 5.10827,6.94744 l -0.0383739,-0.00730931 -0.0402012,-0.0292372 0.191869,-0.0420285 -0.0274099,0.0456832 -0.0347192,0.0219279 -0.0511651,0.010964 z "/>
<path fill="rgb(241,240,234)" stroke="rgb(241,240,234)" d="M 5.02969,6.94013 l -0.0804024,0 0,-0.365465 0.0804024,0 0,0.219279 0.0182733,0.0475105 0.0402012,0.0201006 0.133395,0.00730931 -0.191869,0.0420285 0,0.0292372 z "/>
<path fill="rgb(241,240,234)" stroke="rgb(241,240,234)" d="M 5.22156,6.86887 l -0.133395,-0.00730931 0.0438558,-0.0182733 0.0164459,-0.0493378 0,-0.219279 0.078575,0 0,0.253998 -0.00548198,0.0402012 z "/>
<path fill="rgb(241,240,234)" stroke="rgb(241,240,234)" d="M 4.67336,6.93831 l -0.0804024,0 0,-0.250344 0.00548198,-0.0402012 0.133395,0.00730931 -0.0438558,0.0182733 -0.0146186,0.0475105 0,0.217452 z "/>
<path fill="rgb(241,240,234)" stroke="rgb(241,240,234)" d="M 4.86889,6.93831 l -0.0767477,0 0,-0.219279 -0.0182733,-0.0456832 -0.0420285,-0.0182733 -0.133395,-0.00730931 0.193697,-0.0438558 0,-0.0292372 0.0767477,0 0,0.363638 z "/>
<path fill="rgb(241,240,234)" stroke="rgb(241,240,234)" d="M 4.59844,6.64776 l 0.0274099,-0.0456832 0.0347192,-0.0219279 0.0529925,-0.010964 0.0347192,0.00548198 0.0438558,0.0292372 -0.193697,0.0438558 z "/>
<path fill="rgb(241,240,234)" stroke="rgb(241,240,234)" d="M 4.35723,6.94927 l -0.0438558,-0.0127913 -0.0383739,-0.0420285 0.160805,0.0201006 -0.0328919,0.0255826 -0.0347192,0.00913663 -0.010964,0 z "/>
<path fill="rgb(241,240,234)" stroke="rgb(241,240,234)" d="M 4.51621,6.94013 l -0.0804024,0 0,-0.0255826 -0.160805,-0.0201006 -0.0146186,-0.0292372 0.120604,-0.00548198 0.0164459,-0.00365465 0.0383739,-0.0347192 0,-0.12974 -0.0146186,-0.0201006 -0.0402012,-0.0201006 -0.105985,-0.0292372 0.00548198,-0.00913663 0.155323,-0.00730931 0,-0.0402012 -0.00548198,-0.0292372 -0.0292372,-0.0383739 -0.0511651,-0.0365465 0.0310646,-0.078575 0.00913663,0.00365465 0.0255826,0.0127913 0.0420285,0.0255826 0.00365465,0.00365465 0.0328919,0.0456832 0.0164459,0.0420285 0.00548198,0.0621291 0,0.361811 z "/>
<path fill="rgb(241,240,234)" stroke="rgb(241,240,234)" d="M 4.26039,6.86521 l -0.0182733,-0.0511651 -0.00548198,-0.0584744 0.00182733,-0.0310646 0.0127913,-0.0548198 0.0237552,-0.0475105 0.105985,0.0292372 -0.00730931,0 -0.0402012,0.0292372 -0.00730931,0.0182733 -0.00913663,0.0566471 0.00182733,0.0237552 0.0146186,0.0511651 0.00365465,0.00548198 0.0438558,0.0237552 -0.120604,0.00548198 z "/>
<path fill="rgb(241,240,234)" stroke="rgb(241,240,234)" d="M 4.28049,6.61304 l 0.0402012,-0.0365465 0.0456832,-0.010964 0.0274099,0.00730931 0.0420285,0.0328919 -0.155323,0.00730931 z "/>
<path fill="rgb(241,240,234)" stroke="rgb(241,240,234)" d="M 4.13796,6.94562 l -0.0201006,-0.00365465 -0.0438558,-0.0274099 0.0584744,-0.0548198 0.0420285,-0.0219279 0.0255826,0.0858843 -0.0127913,0.00913663 -0.0493378,0.0127913 z "/>
<path fill="rgb(241,240,234)" stroke="rgb(241,240,234)" d="M 4.074,6.94013 l -0.0804024,0 0,-0.365465 0.0804024,0 0,0.213797 0,0.00182733 0.0182733,0.0493378 0.0402012,0.0201006 -0.0584744,0.0548198 0,0.0255826 z "/>
<path fill="rgb(241,240,234)" stroke="rgb(241,240,234)" d="M 3.79625,6.94562 l -0.0146186,-0.00182733 -0.0456832,-0.0164459 -0.0383739,-0.0365465 -0.0164459,-0.0255826 0.118776,0 0.0347192,-0.0146186 0.0219279,-0.0511651 -0.116949,0 0.195524,-0.0274099 -0.010964,0.0566471 -0.00365465,0.0127913 -0.0237552,0.0475105 -0.010964,0.0146186 -0.0402012,0.0310646 -0.0493378,0.010964 z "/>
<path fill="rgb(241,240,234)" stroke="rgb(241,240,234)" d="M 3.68112,6.86521 l -0.0182733,-0.0493378 -0.00548198,-0.0584744 0.00182733,-0.0347192 0.0127913,-0.0548198 0.0255826,-0.0456832 0.0127913,-0.0164459 0.0420285,-0.0292372 0.0475105,-0.010964 0.0182733,0.00182733 0.0456832,0.0182733 0.0383739,0.0365465 0.00365465,0.00365465 -0.105985,0.0237552 -0.0383739,0.0182733 -0.0237552,0.0493378 -0.00182733,0.0127913 0.199179,0 0,0.0255826 0,0.0164459 -0.195524,0.0274099 0.0201006,0.0475105 0.0402012,0.0182733 -0.118776,0 z "/>
<path fill="rgb(241,240,234)" stroke="rgb(241,240,234)" d="M 3.85107,6.67883 l -0.00730931,-0.00913663 -0.0438558,-0.0201006 0.105985,-0.0237552 -0.0548198,0.0529925 z "/>
<path fill="rgb(241,240,234)" stroke="rgb(241,240,234)" d="M 3.38144,6.94013 l -0.0804024,0 0.116949,-0.365465 0.0420285,0.116949 -0.078575,0.248516 z "/>
<path fill="rgb(241,240,234)" stroke="rgb(241,240,234)" d="M 3.62082,6.94013 l -0.0804024,0 -0.0804024,-0.248516 -0.0420285,-0.116949 0.0858843,0 0.116949,0.365465 z "/>
<path fill="rgb(241,240,234)" stroke="rgb(241,240,234)" d="M 5.31293,11.2691 l -1.46917,0 0,-3.49933 0.573781,0 0,1.37232 0.89539,0 0.151668,0.00730931 0.153495,0.0255826 0.137049,0.0438558 0.120604,0.0603018 0.0475105,0.0328919 0.118776,0.100503 0.10233,0.118776 0.0858843,0.135222 0.0255826,0.0548198 -1.83829,0.0475105 0,0.873462 0.917318,0 0.935591,0.0328919 -0.0694384,0.12974 -0.089539,0.118776 -0.10964,0.104158 -0.12974,0.0931937 -0.113294,0.0603018 -0.138877,0.0493378 -0.148013,0.0292372 -0.158977,0.00913663 z "/>
<path fill="rgb(241,240,234)" stroke="rgb(241,240,234)" d="M 6.27045,10.6752 l -0.935591,-0.0328919 0.0730931,-0.00365465 0.148013,-0.0383739 0.113294,-0.0767477 0.0292372,-0.0292372 0.0749204,-0.133395 0.0255826,-0.162632 -0.00182733,-0.0347192 -0.0365465,-0.15715 -0.0913663,-0.120604 -0.0475105,-0.0365465 -0.131568,-0.0603018 -0.155323,-0.0201006 -0.917318,0 1.83829,-0.0475105 0.0603018,0.155323 0.0347192,0.158977 0.0127913,0.162632 0,0.010964 -0.010964,0.168114 -0.0310646,0.155323 -0.0511651,0.142531 z "/>
<path fill="rgb(42,41,42)" stroke="rgb(42,41,42)" d="M 6.92646,13.4655 l -0.729103,0 0,-0.999548 0.745549,0 0,0.179078 -0.564644,0 0,0.272272 0.299682,0 0,0.182733 -0.299682,0 0,0.186387 0.548198,0 0,0.179078 z "/>
<path fill="rgb(42,41,42)" stroke="rgb(42,41,42)" d="M 5.93787,13.4655 l -0.171769,0 0,-0.659665 0.0182733,-0.339883 0.153495,0 0,0.999548 z "/>
<path fill="rgb(42,41,42)" stroke="rgb(42,41,42)" d="M 5.30744,13.4655 l 0,-0.312473 0.476932,-0.687075 -0.0182733,0.339883 -0.458659,0.659665 z "/>
<path fill="rgb(42,41,42)" stroke="rgb(42,41,42)" d="M 5.30744,13.4655 l -0.175423,0 0,-0.999548 0.175423,0 0,0.687075 0,0.312473 z "/>
<path fill="rgb(42,41,42)" stroke="rgb(42,41,42)" d="M 4.48697,13.482 l -0.0858843,-0.00730931 -0.0858843,-0.0255826 -0.0749204,-0.0438558 -0.0639564,-0.0603018 -0.0182733,-0.0255826 0.328919,-0.0164459 0.0274099,0 0.084057,-0.0274099 0.0639564,-0.0603018 0.0292372,-0.0584744 0.0237552,-0.0858843 0.00730931,-0.104158 -0.00182733,-0.0584744 -0.0164459,-0.0931937 -0.0292372,-0.0767477 -0.0310646,-0.0456832 -0.0676111,-0.0493378 -0.089539,-0.0164459 0.319782,-0.00913663 0.0402012,0.0730931 0.0292372,0.084057 0.0182733,0.0931937 0.00548198,0.10233 0,0.0328919 -0.010964,0.0986756 -0.0219279,0.089539 -0.0328919,0.0804024 -0.0475105,0.0694384 -0.0511651,0.0529925 -0.0712657,0.0493378 -0.084057,0.0274099 -0.0931937,0.010964 z "/>
<path fill="rgb(42,41,42)" stroke="rgb(42,41,42)" d="M 4.15806,13.3193 l -0.0420285,-0.0712657 -0.0292372,-0.0822297 -0.0164459,-0.0931937 -0.00548198,-0.105985 0,-0.00548198 0.00548198,-0.100503 0.0201006,-0.089539 0.0310646,-0.084057 0.0438558,-0.0749204 0.010964,-0.0146186 0.0621291,-0.0657838 0.0712657,-0.0456832 0.084057,-0.0292372 0.0931937,-0.00913663 0.078575,0.00730931 0.084057,0.0255826 0.0749204,0.0456832 0.0639564,0.0657838 0.0182733,0.0255826 -0.319782,0.00913663 -0.0292372,0.00182733 -0.0822297,0.0274099 -0.0657838,0.0621291 -0.0310646,0.0584744 -0.0237552,0.0877117 -0.00913663,0.10233 0.00548198,0.0858843 0.0219279,0.089539 0.0365465,0.0730931 0.0182733,0.0201006 0.0694384,0.0511651 0.089539,0.0164459 -0.328919,0.0164459 z "/>
<path fill="rgb(42,41,42)" stroke="rgb(42,41,42)" d="M 3.89675,13.4655 l -0.752859,0 0,-0.177251 0.535407,0 -0.568299,-0.619464 0,-0.202833 0.78575,0 0,0.179078 -0.562817,0 0.562817,0.615809 0,0.204661 z "/>
<path fill="rgb(42,41,42)" stroke="rgb(42,41,42)" d="M 4.24608,4.90089 l 2.60569,3.93017 0,0.478224 -2.92275,-4.4084 0.317061,0 z "/>
<path fill="rgb(42,41,42)" stroke="rgb(42,41,42)" d="M 3.98088,4.50089 l 0.132599,0.2 -0.317061,0 -0.132599,-0.2 0.317061,0 z "/>
<path fill="rgb(42,41,42)" stroke="rgb(42,41,42)" d="M 3.45177,4.90089 l 0.16019,0 3.23981,4.88662 0,0.478224 -3.53545,-5.33253 0.0256355,-0.0114969 0.0265986,-0.00904831 0.0273284,-0.00652037 0.0278185,-0.00393524 0.0280646,-0.00131559 z "/>
<path fill="rgb(42,41,42)" stroke="rgb(42,41,42)" d="M 2.76613,5.0598 l 0.015406,-0.0608881 0.0208016,-0.0592621 0.0260298,-0.057159 0.0310484,-0.0545958 0.035817,-0.0515931 0.119935,0.180898 -0.0190806,0.0378759 -0.0158022,0.0393567 -0.0124101,0.0405543 -0.00892868,0.0414601 -0.00538303,0.0420676 -0.00179866,0.0423724 0,0.138906 -0.185634,-0.279993 z "/>
<path fill="rgb(42,41,42)" stroke="rgb(42,41,42)" d="M 9.00979,13.9989 l -0.317061,0 -1.54516,-2.33058 0.0279546,-0.0497589 0.023808,-0.0518709 0.0195031,-0.053638 0.0150686,-0.0550486 0.0105339,-0.0560932 0.00592924,-0.0567649 1.75943,2.65375 z "/>
<path fill="rgb(42,41,42)" stroke="rgb(42,41,42)" d="M 9.51129,12.8424 l 0,0.478224 -2.25953,-3.40805 0,-0.478224 2.25953,3.40805 z "/>
<path fill="rgb(42,41,42)" stroke="rgb(42,41,42)" d="M 1.32668,0.497542 l 2.6542,4.00335 -0.317061,0 -2.6542,-4.00335 0.317061,-8.88178e-16 z "/>
<path fill="rgb(42,41,42)" stroke="rgb(42,41,42)" d="M 7.05177,9.13272 l 0,0.478224 -0.2,-0.301661 0,-0.478224 0.2,0.301661 z "/>
<path fill="rgb(42,41,42)" stroke="rgb(42,41,42)" d="M 0.508116,1.65402 l 0,-0.478224 2.38712,3.60051 -0.035817,0.0515931 -0.0310484,0.0545958 -0.0260298,0.057159 -0.0208016,0.0592621 -0.015406,0.0608881 -2.25802,-3.40578 z "/>
<path fill="rgb(42,41,42)" stroke="rgb(42,41,42)" d="M 4.11348,4.70089 l 0.132599,0.2 -0.317061,0 -0.132599,-0.2 0.317061,0 z "/>
<path fill="rgb(42,41,42)" stroke="rgb(42,41,42)" d="M 9.50568,13.7904 l -0.00594321,0.0230332 -0.00800392,0.0224006 -0.0099989,0.0215841 -0.0119118,0.0205903 -0.0137268,0.0194274 -0.0154292,0.018105 -0.0170048,0.0166339 -0.0184408,0.0150262 -0.0197253,0.0132952 -0.0208479,0.0114549 -0.0217993,0.0095206 -0.0225716,0.0075081 -2.06851,-3.11994 0,-0.478224 2.25391,3.39958 z "/>
<path fill="rgb(42,41,42)" stroke="rgb(42,41,42)" d="M 3.45177,4.90089 l -0.0280646,0.00131559 -0.0278185,0.00393524 -0.0273284,0.00652037 -0.0265986,0.00904831 -0.0256355,0.0114969 -0.110971,-0.167378 0.0382301,-0.0195351 0.039765,-0.0161835 0.0410067,-0.0127126 0.0419461,-0.00914796 0.0425762,-0.00551589 0.0428925,-0.00184316 0.0275905,0 0.132599,0.2 -0.16019,0 z "/>
<path fill="rgb(42,41,42)" stroke="rgb(42,41,42)" d="M 3.15177,5.64146 l 0,-0.440567 0.000223076,-0.011567 0.000668897,-0.0115498 0.00111372,-0.0115154 3.69799,5.5777 0,0.478224 -3.7,-5.58073 z "/>
<path fill="rgb(42,41,42)" stroke="rgb(42,41,42)" d="M 7.02008,11.4761 l -0.168314,-0.253868 0,-0.478224 0.2,0.301661 0,0.255268 -0.00200034,0.0446804 -0.005985,0.0443228 -0.00992178,0.0436107 -0.0137792,0.0425496 z "/>
<path fill="rgb(42,41,42)" stroke="rgb(42,41,42)" d="M 2.95177,5.3398 l 0,-0.138906 0.00179866,-0.0423724 0.00538303,-0.0420676 0.00892868,-0.0414601 0.0124101,-0.0405543 0.0158022,-0.0393567 0.0190806,-0.0378759 0.138602,0.209055 -0.00111372,0.0115154 -0.000668897,0.0115498 -0.000223076,0.011567 0,0.440567 -0.2,-0.301661 z "/>
<path fill="rgb(42,41,42)" stroke="rgb(42,41,42)" d="M 7.14757,11.6683 l -0.127487,-0.192289 0.0137792,-0.0425496 0.00992178,-0.0436107 0.005985,-0.0443228 0.00200034,-0.0446804 0,-0.255268 0.198598,0.299547 -0.00592924,0.0567649 -0.0105339,0.0560932 -0.0150686,0.0550486 -0.0195031,0.053638 -0.023808,0.0518709 -0.0279546,0.0497589 z "/>
<path fill="rgb(42,41,42)" stroke="rgb(42,41,42)" d="M 7.25177,10.3908 l 0,0.478224 -0.2,-0.301661 0,-0.478224 0.2,0.301661 z "/>
<path fill="rgb(42,41,42)" stroke="rgb(42,41,42)" d="M 3.09464,4.59884 l 0.0605755,-0.032033 0.0634172,-0.0259569 0.0656513,-0.019632 0.0672562,-0.0131189 0.127817,0.192788 -0.0275905,0 -0.0428925,0.00184316 -0.0425762,0.00551589 -0.0419461,0.00914796 -0.0410067,0.0127126 -0.039765,0.0161835 -0.0382301,0.0195351 -0.11071,-0.166985 z "/>
<path fill="rgb(42,41,42)" stroke="rgb(42,41,42)" d="M 7.05177,10.0892 l 0,0.478224 -0.2,-0.301661 0,-0.478224 0.2,0.301661 z "/>
<path fill="rgb(42,41,42)" stroke="rgb(42,41,42)" d="M 7.25177,9.43438 l 0,0.478224 -0.2,-0.301661 0,-0.478224 0.2,0.301661 z "/>
<path fill="rgb(42,41,42)" stroke="rgb(42,41,42)" d="M 0.513731,0.706042 l 0.00594321,-0.0230332 0.00800392,-0.0224006 0.0099989,-0.0215841 0.0119118,-0.0205903 0.0137268,-0.0194274 0.0154292,-0.018105 0.0170048,-0.0166339 0.0184408,-0.0150262 0.0197253,-0.0132952 0.0208479,-0.0114549 0.0217993,-0.0095206 0.0225716,-0.0075081 2.65241,4.00064 -0.0672562,0.0131189 -0.0656513,0.019632 -0.0634172,0.0259569 -0.0605755,0.032033 -2.58091,-3.8928 z "/>
<path fill="rgb(42,41,42)" stroke="rgb(42,41,42)" d="M 3.38957,1.14605 l -0.000945666,0.0216593 -0.0028298,0.0214945 -0.0046924,0.021166 -0.00651928,0.0206765 -0.00829655,0.0200296 -0.0100107,0.0192303 -0.0116486,0.0182847 -0.0131979,0.0171998 -0.0146467,0.0159841 -0.0159841,0.0146467 -0.0171998,0.0131979 -0.0182847,0.0116486 -0.0192303,0.0100107 -0.0200296,0.00829655 -0.0206765,0.00651928 -0.021166,0.00469239 -0.0214945,0.0028298 -0.0216593,0.000945665 -0.0216593,-0.000945665 -0.0214945,-0.0028298 -0.021166,-0.00469239 -0.0206765,-0.00651928 -0.0200296,-0.00829655 -0.0192303,-0.0100107 -0.0182847,-0.0116486 -0.0171998,-0.0131979 -0.0159841,-0.0146467 -0.0146467,-0.0159841 -0.0131979,-0.0171998 -0.0116486,-0.0182847 -0.0100107,-0.0192303 -0.00829655,-0.0200296 -0.00651928,-0.0206765 -0.0046924,-0.021166 -0.0028298,-0.0214945 -0.000945666,-0.0216593 0.000945666,-0.0216593 0.0028298,-0.0214945 0.0046924,-0.021166 0.00651928,-0.0206765 0.00829655,-0.0200296 0.0100107,-0.0192303 0.0116486,-0.0182847 0.0131979,-0.0171998 0.0146467,-0.0159841 0.0159841,-0.0146467 0.0171998,-0.0131979 0.0182847,-0.0116486 0.0192303,-0.0100107 0.0200296,-0.00829655 0.0206765,-0.00651928 0.021166,-0.00469239 0.0214945,-0.0028298 0.0216593,-0.000945665 0.0216593,0.000945665 0.0214945,0.0028298 0.021166,0.00469239 0.0206765,0.00651928 0.0200296,0.00829655 0.0192303,0.0100107 0.0182847,0.0116486 0.0171998,0.0131979 0.0159841,0.0146467 0.0146467,0.0159841 0.0131979,0.0171998 0.0116486,0.0182847 0.0100107,0.0192303 0.00829655,0.0200296 0.00651928,0.0206765 0.0046924,0.021166 0.0028298,0.0214945 0.000945666,0.0216593 z "/>
<path fill="rgb(42,41,42)" stroke="rgb(42,41,42)" d="M 3.38957,1.14605 l -0.000945665,0.0216593 -0.0028298,0.0214945 -0.00469239,0.021166 -0.00651928,0.0206765 -0.00829655,0.0200296 -0.0100107,0.0192303 -0.0116486,0.0182847 -0.0131979,0.0171998 -0.0146467,0.0159841 -0.0159841,0.0146467 -0.0171998,0.0131979 -0.0182847,0.0116486 -0.0192303,0.0100107 -0.0200296,0.00829655 -0.0206765,0.00651928 -0.021166,0.00469239 -0.0214945,0.0028298 -0.0216593,0.000945665 -0.0216593,-0.000945665 -0.0214945,-0.0028298 -0.021166,-0.00469239 -0.0206765,-0.00651928 -0.0200296,-0.00829655 -0.0192303,-0.0100107 -0.0182847,-0.0116486 -0.0171998,-0.0131979 -0.0159841,-0.0146467 -0.0146467,-0.0159841 -0.0131979,-0.0171998 -0.0116486,-0.0182847 -0.0100107,-0.0192303 -0.00829655,-0.0200296 -0.00651928,-0.0206765 -0.00469239,-0.021166 -0.0028298,-0.0214945 -0.000945665,-0.0216593 0.000945666,0.0216593 0.0028298,0.0214945 0.0046924,0.021166 0.00651928,0.0206765 0.00829655,0.0200296 0.0100107,0.0192303 0.0116486,0.0182847 0.0131979,0.0171998 0.0146467,0.0159841 0.0159841,0.0146467 0.0171998,0.0131979 0.0182847,0.0116486 0.0192303,0.0100107 0.0200296,0.00829655 0.0206765,0.00651928 0.021166,0.00469239 0.0214945,0.0028298 0.0216593,0.000945665 0.0216593,-0.000945665 0.0214945,-0.0028298 0.021166,-0.00469239 0.0206765,-0.00651928 0.0200296,-0.00829655 0.0192303,-0.0100107 0.0182847,-0.0116486 0.0171998,-0.0131979 0.0159841,-0.0146467 0.0146467,-0.0159841 0.0131979,-0.0171998 0.0116486,-0.0182847 0.0100107,-0.0192303 0.00829655,-0.0200296 0.00651928,-0.0206765 0.0046924,-0.021166 0.0028298,-0.0214945 0.000945666,-0.0216593 z "/>
<path fill="rgb(42,41,42)" stroke="rgb(42,41,42)" d="M 3.38957,1.14605 l -0.000945666,-0.0216593 -0.0028298,-0.0214945 -0.0046924,-0.021166 -0.00651928,-0.0206765 -0.00829655,-0.0200296 -0.0100107,-0.0192303 -0.0116486,-0.0182847 -0.0131979,-0.0171998 -0.0146467,-0.0159841 -0.0159841,-0.0146467 -0.0171998,-0.0131979 -0.0182847,-0.0116486 -0.0192303,-0.0100107 -0.0200296,-0.00829655 -0.0206765,-0.00651928 -0.021166,-0.00469239 -0.0214945,-0.0028298 -0.0216593,-0.000945665 -0.0216593,0.000945665 -0.0214945,0.0028298 -0.021166,0.00469239 -0.0206765,0.00651928 -0.0200296,0.00829655 -0.0192303,0.0100107 -0.0182847,0.0116486 -0.0171998,0.0131979 -0.0159841,0.0146467 -0.0146467,0.0159841 -0.0131979,0.0171998 -0.0116486,0.0182847 -0.0100107,0.0192303 -0.00829655,0.0200296 -0.00651928,0.0206765 -0.0046924,0.021166 -0.0028298,0.0214945 -0.000945666,0.0216593 0.000945665,-0.0216593 0.0028298,-0.0214945 0.00469239,-0.021166 0.00651928,-0.0206765 0.00829655,-0.0200296 0.0100107,-0.0192303 0.0116486,-0.0182847 0.0131979,-0.0171998 0.0146467,-0.0159841 0.0159841,-0.0146467 0.0171998,-0.0131979 0.0182847,-0.0116486 0.0192303,-0.0100107 0.0200296,-0.00829655 0.0206765,-0.00651928 0.021166,-0.00469239 0.0214945,-0.0028298 0.0216593,-0.000945665 0.0216593,0.000945665 0.0214945,0.0028298 0.021166,0.00469239 0.0206765,0.00651928 0.0200296,0.00829655 0.0192303,0.0100107 0.0182847,0.0116486 0.0171998,0.0131979 0.0159841,0.0146467 0.0146467,0.0159841 0.0131979,0.0171998 0.0116486,0.0182847 0.0100107,0.0192303 0.00829655,0.0200296 0.00651928,0.0206765 0.00469239,0.021166 0.0028298,0.0214945 0.000945665,0.0216593 z "/>
<path fill="rgb(42,41,42)" stroke="rgb(42,41,42)" d="M 4.63659,1.14605 l -0.000945665,0.0216593 -0.0028298,0.0214945 -0.00469239,0.021166 -0.00651928,0.0206765 -0.00829655,0.0200296 -0.0100107,0.0192303 -0.0116486,0.0182847 -0.0131979,0.0171998 -0.0146467,0.0159841 -0.0159841,0.0146467 -0.0171998,0.0131979 -0.0182847,0.0116486 -0.0192303,0.0100107 -0.0200296,0.00829655 -0.0206765,0.00651928 -0.021166,0.00469239 -0.0214945,0.0028298 -0.0216593,0.000945665 -0.0216593,-0.000945665 -0.0214945,-0.0028298 -0.021166,-0.00469239 -0.0206765,-0.00651928 -0.0200296,-0.00829655 -0.0192303,-0.0100107 -0.0182847,-0.0116486 -0.0171998,-0.0131979 -0.0159841,-0.0146467 -0.0146467,-0.0159841 -0.0131979,-0.0171998 -0.0116486,-0.0182847 -0.0100107,-0.0192303 -0.00829655,-0.0200296 -0.00651928,-0.0206765 -0.00469239,-0.021166 -0.0028298,-0.0214945 -0.000945665,-0.0216593 0.000945665,-0.0216593 0.0028298,-0.0214945 0.00469239,-0.021166 0.00651928,-0.0206765 0.00829655,-0.0200296 0.0100107,-0.0192303 0.0116486,-0.0182847 0.0131979,-0.0171998 0.0146467,-0.0159841 0.0159841,-0.0146467 0.0171998,-0.0131979 0.0182847,-0.0116486 0.0192303,-0.0100107 0.0200296,-0.00829655 0.0206765,-0.00651928 0.021166,-0.00469239 0.0214945,-0.0028298 0.0216593,-0.000945665 0.0216593,0.000945665 0.0214945,0.0028298 0.021166,0.00469239 0.0206765,0.00651928 0.0200296,0.00829655 0.0192303,0.0100107 0.0182847,0.0116486 0.0171998,0.0131979 0.0159841,0.0146467 0.0146467,0.0159841 0.0131979,0.0171998 0.0116486,0.0182847 0.0100107,0.0192303 0.00829655,0.0200296 0.00651928,0.0206765 0.00469239,0.021166 0.0028298,0.0214945 0.000945665,0.0216593 z "/>
<path fill="rgb(42,41,42)" stroke="rgb(42,41,42)" d="M 5.20933,1.14605 l -0.000945665,0.0216593 -0.0028298,0.0214945 -0.00469239,0.021166 -0.00651928,0.0206765 -0.00829655,0.0200296 -0.0100107,0.0192303 -0.0116486,0.0182847 -0.0131979,0.0171998 -0.0146467,0.0159841 -0.0159841,0.0146467 -0.0171998,0.0131979 -0.0182847,0.0116486 -0.0192303,0.0100107 -0.0200296,0.00829655 -0.0206765,0.00651928 -0.021166,0.00469239 -0.0214945,0.0028298 -0.0216593,0.000945665 -0.0216593,-0.000945665 -0.0214945,-0.0028298 -0.021166,-0.00469239 -0.0206765,-0.00651928 -0.0200296,-0.00829655 -0.0192303,-0.0100107 -0.0182847,-0.0116486 -0.0171998,-0.0131979 -0.0159841,-0.0146467 -0.0146467,-0.0159841 -0.0131979,-0.0171998 -0.0116486,-0.0182847 -0.0100107,-0.0192303 -0.00829655,-0.0200296 -0.00651928,-0.0206765 -0.00469239,-0.021166 -0.0028298,-0.0214945 -0.000945665,-0.0216593 0.000945665,-0.0216593 0.0028298,-0.0214945 0.00469239,-0.021166 0.00651928,-0.0206765 0.00829655,-0.0200296 0.0100107,-0.0192303 0.0116486,-0.0182847 0.0131979,-0.0171998 0.0146467,-0.0159841 0.0159841,-0.0146467 0.0171998,-0.0131979 0.0182847,-0.0116486 0.0192303,-0.0100107 0.0200296,-0.00829655 0.0206765,-0.00651928 0.021166,-0.00469239 0.0214945,-0.0028298 0.0216593,-0.000945665 0.0216593,0.000945665 0.0214945,0.0028298 0.021166,0.00469239 0.0206765,0.00651928 0.0200296,0.00829655 0.0192303,0.0100107 0.0182847,0.0116486 0.0171998,0.0131979 0.0159841,0.0146467 0.0146467,0.0159841 0.0131979,0.0171998 0.0116486,0.0182847 0.0100107,0.0192303 0.00829655,0.0200296 0.00651928,0.0206765 0.00469239,0.021166 0.0028298,0.0214945 0.000945665,0.0216593 z "/>
<path fill="rgb(42,41,42)" stroke="rgb(42,41,42)" d="M 5.56714,1.38332 l -0.814559,0.201274 -0.185441,0 0,-0.143108 0.462815,0.000227976 0.021511,-0.000920152 0.0213511,-0.00277477 0.0210317,-0.00460865 0.020555,-0.00640807 0.0199246,-0.0081596 0.0191454,-0.00985013 0.018223,-0.011467 0.0171644,-0.0129982 0.0159775,-0.0144323 0.0146712,-0.0157584 0.0132552,-0.0169668 0.0117401,-0.0180483 0.0101372,-0.0189949 0.00845864,-0.0197995 0.0067168,-0.0204562 0.00492475,-0.0209599 0.00309589,-0.0213069 0.289301,0 0,0.165515 z M 4.83064,2.16147 l -0.140387,0 -0.123114,-0.068187 0,-0.0806249 0.263501,0.148812 z M 5.09447,2.16147 l -0.0755975,0 -0.451739,-0.419878 0,-0.107459 0.527337,0.527337 z M 5.36396,2.16147 l 0.0349249,-0.327227 0.0251233,0.068476 -0.0257071,0.258751 -0.0343411,0 z "/>
<path fill="rgb(42,41,42)" stroke="rgb(42,41,42)" d="M 3.19183,2.01099 l 0,-0.279037 -0.437368,0 0.0936064,0.279037 0.343761,0 z M 2.83244,1.16147 l 0.00274579,0.0268264 0.00506582,0.0264864 0.00734756,0.0259463 0.00957374,0.0252099 0.0117275,0.0242829 0.0137927,0.0231723 0.0157535,0.0218866 0.0175952,0.0204353 0.0193039,0.0188296 0.0208667,0.0170814 0.0222717,0.0152042 0.0235083,0.0132119 0.0245671,0.0111198 0.0254402,0.00894364 0.026121,0.00669983 0.0266043,0.00440537 0.0268864,0.00207759 0.0269652,-0.000265889 0.0268402,-0.00260736 0.0265122,-0.00492912 0.0259838,-0.00721361 0.0252589,-0.00944356 0.0243431,-0.0116021 0.0232432,-0.0136729 0.0219675,-0.0156404 0.0205258,-0.0174896 0.0189289,-0.0192066 0.0171889,-0.0207783 0.0153189,-0.022193 0.013333,-0.0234398 0.0112464,-0.0245094 0.00907476,-0.0253938 0.0068345,-0.0260861 0.121954,0 0,0.380491 -0.119659,0 0,-0.0850087 -0.0996882,0 0,0.23955 -0.0305243,0.359845 -0.574836,0 -0.156343,-0.487685 0.0284259,-0.369315 -0.0473766,0 0,-0.0852264 0.265309,0 z "/>
<path fill="rgb(42,41,42)" stroke="rgb(42,41,42)" d="M 4.69025,2.16147 l 0.140387,0 0.20186,0.114 0,-0.101339 -0.0136215,-0.0126608 0.0755975,0 0.173443,0.173443 0.080258,-0.0255224 0.0157876,-0.147921 0.0343411,0 -0.0274367,0.276161 -0.000789548,0.00549701 -0.00126561,0.00540728 -0.00173205,0.00527641 -0.0021853,0.00510538 -0.00262193,0.0048955 -0.0030386,0.00464837 -0.00343215,0.00436587 -0.00379958,0.00405014 -0.0041381,0.00370359 -0.00444513,0.00332886 -0.00471833,0.00292879 -0.00495562,0.00250644 -0.00515521,0.00206502 -0.00531556,0.00160788 -0.00543546,0.0011385 -0.005514,0.000660463 -0.00555058,0.000177397 -0.00554493,-0.000307018 -0.00549707,-0.000789097 -0.00540738,-0.00126517 -0.00527655,-0.00173162 -0.594797,-0.329431 z "/>
<path fill="rgb(42,41,42)" stroke="rgb(42,41,42)" d="M 5.56714,1.38332 l 0,-0.165515 0.0112276,0 0,0.162741 -0.0112276,0.0027743 z "/>
<path fill="rgb(42,41,42)" stroke="rgb(42,41,42)" d="M 4.56714,2.01266 l 0,0.0806249 -0.909941,-0.503974 -0.0900589,0 0,-0.380491 0.525525,0 0.00195859,0.0216278 0.00387609,0.0213676 0.00576281,0.0209377 0.00760378,0.0203416 0.00938437,0.019584 0.0110904,0.0186709 0.0127085,0.0176095 0.0142256,0.0164083 0.0156297,0.0150768 0.0169098,0.0136256 0.0180556,0.0120662 0.019058,0.0104111 0.0199092,0.0086732 0.0206022,0.00686649 0.0211316,0.00500526 0.0214933,0.00310428 0.0216843,0.00117866 0.233391,0.000114965 0,0.143108 -0.0286264,0 0,0.0209112 0.0286264,0.0286264 0,0.107459 -0.0867069,-0.0805914 -0.535972,0 0.622679,0.351657 z "/>
<path fill="rgb(42,41,42)" stroke="rgb(42,41,42)" d="M 5.57732,1.58955 l -0.00460494,-0.014491 -0.00331489,-0.0148393 -0.00199923,-0.0150731 -0.00066813,-0.0151904 0.000657163,-0.0150654 0.0019665,-0.014951 0.00326089,-0.014723 0.00453052,-0.0143831 0.00576572,-0.013934 0.00695713,-0.013379 0.00809569,-0.0127224 0.00917275,-0.0119691 0.0101801,-0.0111249 0.0111102,-0.0101962 0.0119558,-0.00919009 0.0127106,-0.00811413 0.0133689,-0.00697652 0.0139256,-0.00578592 0.0143765,-0.00455137 0.0147182,-0.00328224 0.0149481,-0.00198817 0.0150645,-0.000679005 0.0150664,0.00063532 0.0149538,0.00194482 0.0147277,0.00323954 0.0143897,0.00450966 0.0139423,0.00574552 0.0133891,0.00693773 0.0127341,0.00807724 0.0119824,0.00915539 0.0111397,0.010164 0.0102123,0.0110954 0.00920742,0.0119425 0.00813255,0.0126989 0.0069959,0.0133588 0.0058061,0.0139172 0.00460494,0.014491 0.00331489,0.0148393 0.00199923,0.0150731 0.00066813,0.0151904 -0.000657163,0.0150654 -0.0019665,0.014951 -0.00326089,0.014723 -0.00453052,0.0143831 -0.00576572,0.013934 -0.00695713,0.013379 -0.00809569,0.0127224 -0.00917275,0.0119691 -0.0101801,0.0111249 -0.0111102,0.0101962 -0.0119558,0.00919009 -0.0127106,0.00811413 -0.0133689,0.00697652 -0.0139256,0.00578592 -0.0143765,0.00455137 -0.0147182,0.00328224 -0.0149481,0.00198817 -0.0150645,0.000679005 -0.0150664,-0.00063532 -0.0149538,-0.00194482 -0.0147277,-0.00323954 -0.0143897,-0.00450966 -0.0139423,-0.00574552 -0.0133891,-0.00693773 -0.0127341,-0.00807724 -0.0119824,-0.00915539 -0.0111397,-0.010164 -0.0102123,-0.0110954 -0.00920742,-0.0119425 -0.00813255,-0.0126989 -0.0069959,-0.0133588 -0.0058061,-0.0139172 z "/>
<path fill="rgb(42,41,42)" stroke="rgb(42,41,42)" d="M 7.10756,1.09048 l -0.000657163,0.0150654 -0.0019665,0.014951 -0.00326089,0.014723 -0.00453052,0.0143831 -0.00576572,0.013934 -0.00695713,0.013379 -0.00809569,0.0127224 -0.00917275,0.0119691 -0.0101801,0.0111249 -0.0111102,0.0101962 -0.0119558,0.00919009 -0.0127106,0.00811413 -0.0133689,0.00697652 -0.0139256,0.00578592 -0.0143765,0.00455137 -0.0147182,0.00328224 -0.0149481,0.00198817 -0.0150645,0.000679005 -0.0150664,-0.00063532 -0.0149538,-0.00194482 -0.0147277,-0.00323954 -0.0143897,-0.00450966 -0.0139423,-0.00574552 -0.0133891,-0.00693773 -0.0127341,-0.00807724 -0.0119824,-0.00915539 -0.0111397,-0.010164 -0.0102123,-0.0110954 -0.00920742,-0.0119425 -0.00813255,-0.0126989 -0.0069959,-0.0133588 -0.0058061,-0.0139172 -0.00460494,-0.014491 -0.00331489,-0.0148393 -0.00199923,-0.0150731 -0.00066813,-0.0151904 0.000657163,-0.0150654 0.0019665,-0.014951 0.00326089,-0.014723 0.00453052,-0.0143831 0.00576572,-0.013934 0.00695713,-0.013379 0.00809569,-0.0127224 0.00917275,-0.0119691 0.0101801,-0.0111249 0.0111102,-0.0101962 0.0119558,-0.00919009 0.0127106,-0.00811413 0.0133689,-0.00697652 0.0139256,-0.00578592 0.0143765,-0.00455137 0.0147182,-0.00328224 0.0149481,-0.00198817 0.0150645,-0.000679005 0.0150664,0.00063532 0.0149538,0.00194482 0.0147277,0.00323954 0.0143897,0.00450966 0.0139423,0.00574552 0.0133891,0.00693773 0.0127341,0.00807724 0.0119824,0.00915539 0.0111397,0.010164 0.0102123,0.0110954 0.00920742,0.0119425 0.00813255,0.0126989 0.0069959,0.0133588 0.0058061,0.0139172 0.00460494,0.014491 0.00331489,0.0148393 0.00199923,0.0150731 0.00066813,0.0151904 z "/>
<path fill="rgb(42,41,42)" stroke="rgb(42,41,42)" d="M 7.35692,1.10239 l 0.0626746,0.170826 -0.0626746,0.0339526 0,-0.204779 z "/>
<path fill="rgb(42,41,42)" stroke="rgb(42,41,42)" d="M 6.9724,1.70359 l 0.111866,-0.260152 -0.421246,0.142755 0.0795722,0.216882 0.202036,-0.0741255 0.00362967,-0.00135726 0.00350145,-0.00166028 0.00334799,-0.00195132 0.00317039,-0.0022283 0.00296993,-0.00248921 0.00274806,-0.00273218 0.00250638,-0.00295545 0.00224664,-0.00315742 0.00197069,-0.00333662 0.00168054,-0.00349177 z M 7.32367,1.01176 l 0.0332511,0.0906293 0,0.204779 -0.207286,0.112293 -0.139894,0.323386 -0.00197561,0.00396948 -0.00232098,0.00377794 -0.00264794,0.00355643 -0.0029539,0.0033067 -0.00323642,0.00303074 -0.00349326,0.00273074 -0.00372239,0.00240907 -0.00392199,0.00206829 -0.00409047,0.0017111 -0.586784,0.215286 -0.00802899,0.00246848 -0.00821087,0.00177192 -0.00833244,0.00106234 -0.0083928,0.000344965 -0.00470786,-0.000210355 0,-0.0503819 0.00404743,0.000215818 0.00412477,-0.000151485 0.00409447,-0.000521523 0.00403104,-0.000887342 0.003935,-0.00124598 0.317906,-0.116637 -0.0801178,-0.218369 -0.258021,0.0878625 0,-0.387605 0.368159,-0.135075 0.00744884,0.017719 0.00895225,0.017009 0.0103887,0.0161717 0.0117474,0.0152135 0.0130182,0.0141413 0.0141915,0.0129634 0.0152587,0.0116885 0.0162118,0.0103261 0.0170435,0.00888645 0.0177477,0.00738031 0.0183191,0.00581894 0.0187534,0.00421404 0.0190475,0.00257761 0.019199,0.00092189 0.0192068,-0.000740728 0.0190709,-0.0023978 0.0187924,-0.00403694 0.0183732,-0.00564586 0.0178165,-0.00721255 0.0171266,-0.00872526 0.0163085,-0.0101727 0.0153683,-0.011544 0.0143132,-0.0128289 0.013151,-0.0140179 0.0118904,-0.015102 0.0105408,-0.016073 0.00911231,-0.0169238 0.00761567,-0.017648 0.00606204,-0.0182401 0.00446306,-0.0186957 0.00283068,-0.0190115 0.00117712,-0.019185 -0.000485246,-0.0192149 -0.00214398,-0.0191011 -0.00378667,-0.0188444 0.174459,-0.0252443 z "/>
<path fill="rgb(42,41,42)" stroke="rgb(42,41,42)" d="M 6.35692,1.93974 l 0,0.0503819 -0.00368365,-0.000164591 -0.00832859,-0.0010921 -0.00820449,-0.00180124 -0.00802012,-0.00249714 -0.00777684,-0.00317471 -0.306065,-0.140532 -0.573984,0.10777 -0.0168451,-0.0459129 -0.0251233,-0.068476 -0.0419684,-0.114389 0.178157,-0.102441 0.00852624,0.0175958 0.0100434,0.0167762 0.0114825,0.015826 0.0128322,0.0147528 0.0140821,0.0135648 0.0152225,0.0122713 0.0162445,0.0108823 0.0171402,0.00940871 0.0179025,0.00786193 0.0185256,0.006254 0.0190046,0.00459742 0.0193357,0.00290509 0.0195165,0.00119016 0.0195454,-0.000534032 0.0194224,-0.00225407 0.0191482,-0.00395657 0.0187252,-0.0056283 0.0181564,-0.00725624 0.0174465,-0.00882775 0.0166008,-0.0103306 0.0156261,-0.0117531 0.0145298,-0.0130842 0.0133204,-0.0143135 0.0120075,-0.0154314 0.0106012,-0.0164294 0.00911237,-0.0172995 0.00755271,-0.0180351 0.00593429,-0.0186304 0.00426972,-0.0190809 0.00257194,-0.0193828 0.000854151,-0.0195341 -0.000870281,-0.0195334 -0.00258794,-0.0193807 -0.00428548,-0.0190773 -0.00594967,-0.0186255 0.410252,-0.150518 0,0.387605 -0.31733,0.108059 0.301461,0.13716 0.00378018,0.00165737 0.00391382,0.00131098 0.00401579,0.000953982 0.00408527,0.000589264 7.42637e-05,3.95991e-06 z "/>
<path fill="rgb(42,41,42)" stroke="rgb(42,41,42)" d="M 9.51129,8.25089 l 0.2625,0 -1.77636e-15,5.48553 -0.00199778,0.0457568 -0.00597815,0.0454085 -0.00991301,0.0447147 -0.0137724,0.0436806 -0.017527,0.042314 -0.0211483,0.0406254 -0.0246085,0.0386276 -0.0278815,0.0363359 -0.0309423,0.0337676 -0.0337676,0.0309423 -0.0363359,0.0278815 -0.0386276,0.0246085 -0.0406254,0.0211483 -0.042314,0.017527 -0.0436806,0.0137724 -0.0447147,0.00991301 -0.0454085,0.00597815 -0.0457568,0.00199778 -8.47818,-1.06581e-14 -0.0457568,-0.00199778 -0.0454085,-0.00597815 -0.0447147,-0.00991301 -0.0436806,-0.0137724 -0.042314,-0.017527 -0.0406254,-0.0211483 -0.0386276,-0.0246085 -0.0363359,-0.0278815 -0.0337676,-0.0309423 -0.0309423,-0.0337676 -0.0278815,-0.0363359 -0.0246085,-0.0386276 -0.0211483,-0.0406254 -0.017527,-0.042314 -0.0137724,-0.0436806 -0.00991301,-0.0447147 -0.00597815,-0.0454085 -0.00199778,-0.0457568 0,-5.48553 0.2625,0 0,5.48553 0.000998892,0.0228784 0.00298907,0.0227043 0.00495651,0.0223574 0.00688622,0.0218403 0.00876352,0.021157 0.0105741,0.0203127 0.0123043,0.0193138 0.0139407,0.0181679 0.0154711,0.0168838 0.0168838,0.0154711 0.0181679,0.0139407 0.0193138,0.0123043 0.0203127,0.0105741 0.021157,0.00876352 0.0218403,0.00688622 0.0223574,0.00495651 0.0227043,0.00298907 0.0228784,0.000998892 7.92212,7.10543e-15 0.317061,0 0.239002,1.77636e-15 0.0240982,-0.00110848 0.0238946,-0.00331607 0.0234893,-0.00549566 0.0225716,-0.0075081 0.0217993,-0.0095206 0.0208479,-0.0114549 0.0197253,-0.0132952 0.0184408,-0.0150262 0.0170048,-0.0166339 0.0154292,-0.018105 0.0137268,-0.0194274 0.0119118,-0.0205903 0.0099989,-0.0215841 0.00800392,-0.0224006 0.00594321,-0.0230332 0.00311414,-0.0178564 0.00187444,-0.0180288 0.000625809,-0.0181151 1.77636e-15,-0.415756 0,-0.478224 0,-4.59155 z "/>
<path fill="rgb(42,41,42)" stroke="rgb(42,41,42)" d="M 9.51129,8.25089 l -1.77636e-15,-7.49085 -0.000998892,-0.0228784 -0.00298907,-0.0227043 -0.00495651,-0.0223574 -0.00688622,-0.0218403 -0.00876352,-0.021157 -0.0105741,-0.0203127 -0.0123043,-0.0193138 -0.0139407,-0.0181679 -0.0154711,-0.0168838 -0.0168838,-0.0154711 -0.0181679,-0.0139407 -0.0193138,-0.0123043 -0.0203127,-0.0105741 -0.021157,-0.00876352 -0.0218403,-0.00688622 -0.0223574,-0.00495651 -0.0227043,-0.00298907 -0.0228784,-0.000998892 -7.92212,-7.10543e-15 -0.317061,8.88178e-16 -0.239002,-2.66454e-15 -0.0240982,0.00110848 -0.0238946,0.00331607 -0.0234893,0.00549566 -0.0225716,0.0075081 -0.0217993,0.0095206 -0.0208479,0.0114549 -0.0197253,0.0132952 -0.0184408,0.0150262 -0.0170048,0.0166339 -0.0154292,0.018105 -0.0137268,0.0194274 -0.0119118,0.0205903 -0.0099989,0.0215841 -0.00800392,0.0224006 -0.00594321,0.0230332 -0.00311414,0.0178564 -0.00187444,0.0180288 -0.000625809,0.0181151 1.77636e-15,0.415756 0,0.478224 -1.77636e-15,6.59687 -0.2625,0 0,-7.49085 0.00199778,-0.0457568 0.00597815,-0.0454085 0.00991301,-0.0447147 0.0137724,-0.0436806 0.017527,-0.042314 0.0211483,-0.0406254 0.0246085,-0.0386276 0.0278815,-0.0363359 0.0309423,-0.0337676 0.0337676,-0.0309423 0.0363359,-0.0278815 0.0386276,-0.0246085 0.0406254,-0.0211483 0.042314,-0.017527 0.0436806,-0.0137724 0.0447147,-0.00991301 0.0454085,-0.00597815 0.0457568,-0.00199778 8.47818,7.10543e-15 0.0457568,0.00199778 0.0454085,0.00597815 0.0447147,0.00991301 0.0436806,0.0137724 0.042314,0.017527 0.0406254,0.0211483 0.0386276,0.0246085 0.0363359,0.0278815 0.0337676,0.0309423 0.0309423,0.0337676 0.0278815,0.0363359 0.0246085,0.0386276 0.0211483,0.0406254 0.017527,0.042314 0.0137724,0.0436806 0.00991301,0.0447147 0.00597815,0.0454085 0.00199778,0.0457568 0,7.49085 -0.2625,0 z "/>
</g></g></svg>
