<?xml version="1.0" encoding="UTF-8" standalone="no"?>
<!DOCTYPE svg PUBLIC "-//W3C//DTD SVG 1.1//EN" "http://www.w3.org/Graphics/SVG/1.1/DTD/svg11-flat.dtd"
[

]>
<svg xmlns="http://www.w3.org/2000/svg"  viewBox="-0.05625 -0.05625 4.6125 7.6125"><g fill="none" stroke="black" stroke-width="0.0125" transform="translate(0,7.5) scale(1, -1)">
<g id="Output" >
<path fill="rgb(241,240,234)" stroke="rgb(241,240,234)" d="M 1.26256,0.902152 l 0.000746045,-0.0170872 0.00223246,-0.0169572 0.00370188,-0.0166981 0.00514313,-0.0163119 0.00654523,-0.0158016 0.00789753,-0.015171 0.00918972,-0.014425 0.010412,-0.0135691 0.011555,-0.01261 0.01261,-0.011555 0.0135691,-0.010412 0.014425,-0.00918972 0.015171,-0.00789753 0.0158016,-0.00654523 0.0163119,-0.00514313 0.0166981,-0.00370188 0.0169572,-0.00223246 0.0170872,-0.000746045 0.0170872,0.000746045 0.0169572,0.00223246 0.0166981,0.00370188 0.0163119,0.00514313 0.0158016,0.00654523 0.015171,0.00789753 0.014425,0.00918972 0.0135691,0.010412 0.01261,0.011555 0.011555,0.01261 0.010412,0.0135691 0.00918972,0.014425 0.00789753,0.015171 0.00654523,0.0158016 0.00514313,0.0163119 0.00370188,0.0166981 0.00223246,0.0169572 0.000746045,0.0170872 -0.000746045,0.0170872 -0.00223246,0.0169572 -0.00370188,0.0166981 -0.00514313,0.0163119 -0.00654523,0.0158016 -0.00789753,0.015171 -0.00918972,0.014425 -0.010412,0.0135691 -0.011555,0.01261 -0.01261,0.011555 -0.0135691,0.010412 -0.014425,0.00918972 -0.015171,0.00789753 -0.0158016,0.00654523 -0.0163119,0.00514313 -0.0166981,0.00370188 -0.0169572,0.00223246 -0.0170872,0.000746045 -0.0170872,-0.000746045 -0.0169572,-0.00223246 -0.0166981,-0.00370188 -0.0163119,-0.00514313 -0.0158016,-0.00654523 -0.015171,-0.00789753 -0.014425,-0.00918972 -0.0135691,-0.010412 -0.01261,-0.011555 -0.011555,-0.01261 -0.010412,-0.0135691 -0.00918972,-0.014425 -0.00789753,-0.015171 -0.00654523,-0.0158016 -0.00514313,-0.0163119 -0.00370188,-0.0166981 -0.00223246,-0.0169572 -0.000746045,-0.0170872 z "/>
<path fill="rgb(241,240,234)" stroke="rgb(241,240,234)" d="M 3.15918,0.902152 l -0.000746045,0.0170872 -0.00223246,0.0169572 -0.00370188,0.0166981 -0.00514313,0.0163119 -0.00654523,0.0158016 -0.00789753,0.015171 -0.00918972,0.014425 -0.010412,0.0135691 -0.011555,0.01261 -0.01261,0.011555 -0.0135691,0.010412 -0.014425,0.00918972 -0.015171,0.00789753 -0.0158016,0.00654523 -0.0163119,0.00514313 -0.0166981,0.00370188 -0.0169572,0.00223246 -0.0170872,0.000746045 -0.0170872,-0.000746045 -0.0169572,-0.00223246 -0.0166981,-0.00370188 -0.0163119,-0.00514313 -0.0158016,-0.00654523 -0.015171,-0.00789753 -0.014425,-0.00918972 -0.0135691,-0.010412 -0.01261,-0.011555 -0.011555,-0.01261 -0.010412,-0.0135691 -0.00918972,-0.014425 -0.00789753,-0.015171 -0.00654523,-0.0158016 -0.00514313,-0.0163119 -0.00370188,-0.0166981 -0.00223246,-0.0169572 -0.000746045,-0.0170872 0.000746045,-0.0170872 0.00223246,-0.0169572 0.00370188,-0.0166981 0.00514313,-0.0163119 0.00654523,-0.0158016 0.00789753,-0.015171 0.00918972,-0.014425 0.010412,-0.0135691 0.011555,-0.01261 0.01261,-0.011555 0.0135691,-0.010412 0.014425,-0.00918972 0.015171,-0.00789753 0.0158016,-0.00654523 0.0163119,-0.00514313 0.0166981,-0.00370188 0.0169572,-0.00223246 0.0170872,-0.000746045 0.0170872,0.000746045 0.0169572,0.00223246 0.0166981,0.00370188 0.0163119,0.00514313 0.0158016,0.00654523 0.015171,0.00789753 0.014425,0.00918972 0.0135691,0.010412 0.01261,0.011555 0.011555,0.01261 0.010412,0.0135691 0.00918972,0.014425 0.00789753,0.015171 0.00654523,0.0158016 0.00514313,0.0163119 0.00370188,0.0166981 0.00223246,0.0169572 0.000746045,0.0170872 z "/>
<path fill="rgb(241,240,234)" stroke="rgb(241,240,234)" d="M 2.04252,1.91067 l -0.223214,0 0,-1 0.858917,4.44089e-16 0.00185299,0.0250208 0.00404608,0.024761 0.00620783,0.0243092 0.00832148,0.0236692 0.0103707,0.0228457 0.0123395,0.0218452 0.0142127,0.0206755 0.0159758,0.0193456 0.0176151,0.0178657 0.0191179,0.0162475 0.0204726,0.0145034 0.0105507,0.00615788 0,0.435862 -0.060758,0 0,0.326891 -0.251462,0 0,-0.855154 -0.464566,0 0,0.855154 z "/>
<path fill="rgb(241,240,234)" stroke="rgb(241,240,234)" d="M 3.47458,1.91067 l 0,-0.326891 -0.65527,0 0,-0.435862 0.011118,0.00648899 0.0226969,0.0106924 0.0235492,0.00865505 0.0242191,0.00655065 0.0247013,0.00439551 0.0249922,0.0022063 0.0250894,0 0.0249922,-0.0022063 0.0247013,-0.00439551 0.0242191,-0.00655065 0.0235492,-0.00865505 0.0226969,-0.0106924 0.0216687,-0.0126469 0.0204726,-0.0145034 0.0191179,-0.0162475 0.0176151,-0.0178657 0.0159758,-0.0193456 0.0142127,-0.0206755 0.0123395,-0.0218452 0.0103707,-0.0228457 0.00832148,-0.0236692 0.00620783,-0.0243092 0.00404608,-0.024761 0.00185299,-0.0250208 0.226544,0 0.294083,0.149106 0,0.850894 -0.294083,0 z "/>
<path fill="rgb(241,240,234)" stroke="rgb(241,240,234)" d="M 3.47458,1.91067 l 0.294083,0 0,0.388819 -0.856676,0 -0.0926766,0.0864598 0,-0.410234 0.65527,0 0,-0.0650456 z "/>
<path fill="rgb(241,240,234)" stroke="rgb(241,240,234)" d="M 1.81931,2.41878 l 0,-0.508105 0.223214,0 0,0.0650456 0.464566,0 0,-0.0650456 0.251462,0 0,0.0650456 0.060758,0 0,0.410234 -0.0351855,0.0328253 -0.964814,0 z "/>
<path fill="rgb(241,240,234)" stroke="rgb(241,240,234)" d="M 1.80385,1.80105 l 0,-0.319514 -0.417683,0 0,0.151094 0.138165,0.168419 0.279518,0 z M 1.81931,0.910672 l 0,1 -0.0197238,0 0,-0.0201581 -0.306869,0 -0.34949,-0.426018 -0.323917,-0.115025 0.00426205,-0.438799 0.350144,0 0.00185299,0.0250208 0.00404608,0.024761 0.00620783,0.0243092 0.00832148,0.0236692 0.0103707,0.0228457 0.0123395,0.0218452 0.0142127,0.0206755 0.0159758,0.0193456 0.0176151,0.0178657 0.0191179,0.0162475 0.0204726,0.0145034 0.0216687,0.0126469 0.0226969,0.0106924 0.0235492,0.00865505 0.0242191,0.00655065 0.0247013,0.00439551 0.0249922,0.0022063 0.0250894,0 0.0249922,-0.0022063 0.0247013,-0.00439551 0.0242191,-0.00655065 0.0235492,-0.00865505 0.0226969,-0.0106924 0.0216687,-0.0126469 0.0204726,-0.0145034 0.0191179,-0.0162475 0.0176151,-0.0178657 0.0159758,-0.0193456 0.0142127,-0.0206755 0.0123395,-0.0218452 0.0103707,-0.0228457 0.00832148,-0.0236692 0.00620783,-0.0243092 0.00404608,-0.024761 0.00185299,-0.0250208 0.0757847,-4.44089e-16 z "/>
<path fill="rgb(241,240,234)" stroke="rgb(241,240,234)" d="M 1.79106,2.08222 l -0.477352,0 0,0.183188 0.477352,0 0,-0.183188 z M 1.79958,1.91067 l 0.0197238,0 0,0.508105 -0.573793,0 -0.272772,-0.255611 0,-0.166147 0.059669,-0.046862 0.767173,0 0,-0.0394845 z "/>
<path fill="rgb(0,91,140)" stroke="rgb(0,91,140)" d="M 3.4,6.4 l 0.7,0 0,0.4 -0.00114159,0.0261467 -0.00341608,0.0259477 -0.00566458,0.0255513 -0.00786996,0.0249603 -0.0100155,0.0241794 -0.0120847,0.0232145 -0.014062,0.0220729 -0.0159323,0.0207634 -0.0176813,0.0192958 -0.0192958,0.0176813 -0.0207634,0.0159323 -0.0220729,0.014062 -0.0232145,0.0120847 -0.0241794,0.0100155 -0.0249603,0.00786996 -0.0255513,0.00566458 -0.0259477,0.00341608 -0.0261467,0.00114159 -0.4,0 0,-0.7 z "/>
<path fill="rgb(0,91,140)" stroke="rgb(0,91,140)" d="M 3.15918,0.902152 l -0.000746045,-0.0170872 -0.00223246,-0.0169572 -0.00370188,-0.0166981 -0.00514313,-0.0163119 -0.00654523,-0.0158016 -0.00789753,-0.015171 -0.00918972,-0.014425 -0.010412,-0.0135691 -0.011555,-0.01261 -0.01261,-0.011555 -0.0135691,-0.010412 -0.014425,-0.00918972 -0.015171,-0.00789753 -0.0158016,-0.00654523 -0.0163119,-0.00514313 -0.0166981,-0.00370188 -0.0169572,-0.00223246 -0.0170872,-0.000746045 -0.0170872,0.000746045 -0.0169572,0.00223246 -0.0166981,0.00370188 -0.0163119,0.00514313 -0.0158016,0.00654523 -0.015171,0.00789753 -0.014425,0.00918972 -0.0135691,0.010412 -0.01261,0.011555 -0.011555,0.01261 -0.010412,0.0135691 -0.00918972,0.014425 -0.00789753,0.015171 -0.00654523,0.0158016 -0.00514313,0.0163119 -0.00370188,0.0166981 -0.00223246,0.0169572 -0.000746045,0.0170872 0.000746045,0.0170872 0.00223246,0.0169572 0.00370188,0.0166981 0.00514313,0.0163119 0.00654523,0.0158016 0.00789753,0.015171 0.00918972,0.014425 0.010412,0.0135691 0.011555,0.01261 0.01261,0.011555 0.0135691,0.010412 0.014425,0.00918972 0.015171,0.00789753 0.0158016,0.00654523 0.0163119,0.00514313 0.0166981,0.00370188 0.0169572,0.00223246 0.0170872,0.000746045 0.0170872,-0.000746045 0.0169572,-0.00223246 0.0166981,-0.00370188 0.0163119,-0.00514313 0.0158016,-0.00654523 0.015171,-0.00789753 0.014425,-0.00918972 0.0135691,-0.010412 0.01261,-0.011555 0.011555,-0.01261 0.010412,-0.0135691 0.00918972,-0.014425 0.00789753,-0.015171 0.00654523,-0.0158016 0.00514313,-0.0163119 0.00370188,-0.0166981 0.00223246,-0.0169572 0.000746045,-0.0170872 z M 3.4,0.4 l 0,0.510672 -0.151966,0 -0.00185299,0.0250208 -0.00404608,0.024761 -0.00620783,0.0243092 -0.00832148,0.0236692 -0.0103707,0.0228457 -0.0123395,0.0218452 -0.0142127,0.0206755 -0.0159758,0.0193456 -0.0176151,0.0178657 -0.0191179,0.0162475 -0.0204726,0.0145034 -0.0216687,0.0126469 -0.0226969,0.0106924 -0.0235492,0.00865505 -0.0242191,0.00655065 -0.0247013,0.00439551 -0.0249922,0.0022063 -0.0250894,0 -0.0249922,-0.0022063 -0.0247013,-0.00439551 -0.0242191,-0.00655065 -0.0235492,-0.00865505 -0.0226969,-0.0106924 -0.0216687,-0.0126469 -0.0204726,-0.0145034 -0.0191179,-0.0162475 -0.0176151,-0.0178657 -0.0159758,-0.0193456 -0.0142127,-0.0206755 -0.0123395,-0.0218452 -0.0103707,-0.0228457 -0.00832148,-0.0236692 -0.00620783,-0.0243092 -0.00404608,-0.024761 -0.00185299,-0.0250208 -0.278224,0 0,-0.510672 1,0 z "/>
<path fill="rgb(0,91,140)" stroke="rgb(0,91,140)" d="M 3.4,2.29949 l 0,0.100509 -0.595751,0 0.107735,-0.100509 0.488016,0 z "/>
<path fill="rgb(0,91,140)" stroke="rgb(0,91,140)" d="M 2.4,2.41878 l 0.384122,0 0.0201267,-0.0187766 0.595751,0 0,1 -1,0 0,-0.981223 z "/>
<path fill="rgb(0,91,140)" stroke="rgb(0,91,140)" d="M 2.4,3.4 l 1,0 0,1 -1,0 0,-1 z "/>
<path fill="rgb(0,91,140)" stroke="rgb(0,91,140)" d="M 2.4,4.4 l 1,0 0,1 -1,0 0,-1 z "/>
<path fill="rgb(0,91,140)" stroke="rgb(0,91,140)" d="M 4.1,2.4 l 0,1 -0.7,0 0,-1 0.7,0 z "/>
<path fill="rgb(0,91,140)" stroke="rgb(0,91,140)" d="M 1.22548,2.4 l 0.0200372,0.0187766 0.154485,0 0,0.981223 -1,0 0,-1 0.825478,0 z "/>
<path fill="rgb(0,91,140)" stroke="rgb(0,91,140)" d="M 0.961601,1.4 l -0.561601,0 0,-0.7 0.00114159,-0.0261467 0.00341608,-0.0259477 0.00566458,-0.0255513 0.00786996,-0.0249603 0.0100155,-0.0241794 0.0120847,-0.0232145 0.014062,-0.0220729 0.0159323,-0.0207634 0.0176813,-0.0192958 0.0192958,-0.0176813 0.0207634,-0.0159323 0.0220729,-0.014062 0.0232145,-0.0120847 0.0241794,-0.0100155 0.0249603,-0.00786996 0.0255513,-0.00566458 0.0259477,-0.00341608 0.0261467,-0.00114159 0.7,-8.88178e-16 0,0.315261 -0.00843613,0.0026599 -0.0158016,0.00654523 -0.015171,0.00789753 -0.014425,0.00918972 -0.0135691,0.010412 -0.01261,0.011555 -0.011555,0.01261 -0.010412,0.0135691 -0.00918972,0.014425 -0.00789753,0.015171 -0.00654523,0.0158016 -0.00514313,0.0163119 -0.00370188,0.0166981 -0.00223246,0.0169572 -0.000746045,0.0170872 0.000746045,0.0170872 0.00223246,0.0169572 0.00370188,0.0166981 0.00514313,0.0163119 0.00654523,0.0158016 0.00789753,0.015171 0.00918972,0.014425 0.010412,0.0135691 0.011555,0.01261 0.01261,0.011555 0.0135691,0.010412 0.014425,0.00918972 0.015171,0.00789753 0.0158016,0.00654523 0.00843613,0.0026599 0,0.0919078 -0.00361986,-0.000644139 -0.0242191,-0.00655065 -0.0235492,-0.00865505 -0.0226969,-0.0106924 -0.0216687,-0.0126469 -0.0204726,-0.0145034 -0.0191179,-0.0162475 -0.0176151,-0.0178657 -0.0159758,-0.0193456 -0.0142127,-0.0206755 -0.0123395,-0.0218452 -0.0103707,-0.0228457 -0.00832148,-0.0236692 -0.00620783,-0.0243092 -0.00404608,-0.024761 -0.00185299,-0.0250208 -0.350144,0 -0.00426205,0.438799 0.142293,0.0505292 z "/>
<path fill="rgb(0,91,140)" stroke="rgb(0,91,140)" d="M 2.4,0.4 l 0,0.510672 -0.656477,0 -0.00185299,0.0250208 -0.00404608,0.024761 -0.00620783,0.0243092 -0.00832148,0.0236692 -0.0103707,0.0228457 -0.0123395,0.0218452 -0.0142127,0.0206755 -0.0159758,0.0193456 -0.0176151,0.0178657 -0.0191179,0.0162475 -0.0204726,0.0145034 -0.0216687,0.0126469 -0.0226969,0.0106924 -0.0235492,0.00865505 -0.0242191,0.00655065 -0.0247013,0.00439551 -0.0249922,0.0022063 -0.0250894,0 -0.0249922,-0.0022063 -0.0210815,-0.00375137 0,-0.0919078 0.00787579,0.00248323 0.0166981,0.00370188 0.0169572,0.00223246 0.0170872,0.000746045 0.0170872,-0.000746045 0.0169572,-0.00223246 0.0166981,-0.00370188 0.0163119,-0.00514313 0.0158016,-0.00654523 0.015171,-0.00789753 0.014425,-0.00918972 0.0135691,-0.010412 0.01261,-0.011555 0.011555,-0.01261 0.010412,-0.0135691 0.00918972,-0.014425 0.00789753,-0.015171 0.00654523,-0.0158016 0.00514313,-0.0163119 0.00370188,-0.0166981 0.00223246,-0.0169572 0.000746045,-0.0170872 -0.000746045,-0.0170872 -0.00223246,-0.0169572 -0.00370188,-0.0166981 -0.00514313,-0.0163119 -0.00654523,-0.0158016 -0.00789753,-0.015171 -0.00918972,-0.014425 -0.010412,-0.0135691 -0.011555,-0.01261 -0.01261,-0.011555 -0.0135691,-0.010412 -0.014425,-0.00918972 -0.015171,-0.00789753 -0.0158016,-0.00654523 -0.0163119,-0.00514313 -0.0166981,-0.00370188 -0.0169572,-0.00223246 -0.0170872,-0.000746045 -0.0170872,0.000746045 -0.0169572,0.00223246 -0.0166981,0.00370188 -0.00787579,0.00248323 0,-0.315261 0.85,4.44089e-16 0.15,-4.44089e-16 z "/>
<path fill="rgb(0,91,140)" stroke="rgb(0,91,140)" d="M 4.1,5.4 l 0,1 -0.7,0 0,-1 0.7,0 z "/>
<path fill="rgb(0,91,140)" stroke="rgb(0,91,140)" d="M 1.4,3.4 l 1,0 0,1 -1,0 0,-1 z "/>
<path fill="rgb(0,91,140)" stroke="rgb(0,91,140)" d="M 1.4,4.4 l 1,0 0,1 -1,0 0,-1 z "/>
<path fill="rgb(0,91,140)" stroke="rgb(0,91,140)" d="M 1.4,5.4 l 1,0 0,1 -1,0 0,-1 z "/>
<path fill="rgb(0,91,140)" stroke="rgb(0,91,140)" d="M 1.4,6.4 l 1,0 0,0.7 -0.15,0 -0.85,0 0,-0.7 z "/>
<path fill="rgb(0,91,140)" stroke="rgb(0,91,140)" d="M 1.4,2.41878 l 1,0 0,0.981223 -1,0 0,-0.981223 z "/>
<path fill="rgb(0,91,140)" stroke="rgb(0,91,140)" d="M 0.961601,1.4 l 0.181624,0.0644957 0.256775,0.313001 0,0.172659 -0.367589,0 -0.059669,0.046862 0,0.166147 0.252735,0.236834 -0.825478,0 0,-1 0.561601,0 z "/>
<path fill="rgb(0,91,140)" stroke="rgb(0,91,140)" d="M 2.4,5.4 l 1,0 0,1 -1,0 0,-1 z "/>
<path fill="rgb(0,91,140)" stroke="rgb(0,91,140)" d="M 2.4,7.1 l 0,-0.7 1,0 0,0.7 -1,0 z "/>
<path fill="rgb(0,91,140)" stroke="rgb(0,91,140)" d="M 4.1,1.4 l 0,1 -0.7,0 0,-0.100509 0.368661,0 0,-0.899491 0.331339,0 z "/>
<path fill="rgb(0,91,140)" stroke="rgb(0,91,140)" d="M 3.8,0.4 l 0.0261467,0.00114159 0.0259477,0.00341608 0.0255513,0.00566458 0.0249603,0.00786996 0.0241794,0.0100155 0.0232145,0.0120847 0.0220729,0.014062 0.0207634,0.0159323 0.0192958,0.0176813 0.0176813,0.0192958 0.0159323,0.0207634 0.014062,0.0220729 0.0120847,0.0232145 0.0100155,0.0241794 0.00786996,0.0249603 0.00566458,0.0255513 0.00341608,0.0259477 0.00114159,0.0261467 0,0.7 -0.331339,0 0,-0.340222 -0.294083,-0.149106 -0.0745777,0 0,-0.510672 0.4,0 z "/>
<path fill="rgb(0,91,140)" stroke="rgb(0,91,140)" d="M 1.4,1.7775 l 0.0927149,0.113017 0.306869,0 0,0.0596425 -0.399584,0 0,-0.172659 z "/>
<path fill="rgb(0,91,140)" stroke="rgb(0,91,140)" d="M 0.4,4.4 l 1,0 0,1 -1,0 0,-1 z "/>
<path fill="rgb(0,91,140)" stroke="rgb(0,91,140)" d="M 0.4,5.4 l 1,0 0,1 -1,0 0,-1 z "/>
<path fill="rgb(0,91,140)" stroke="rgb(0,91,140)" d="M 0.4,6.4 l 1,0 0,0.7 -0.7,0 -0.0261467,-0.00114159 -0.0259477,-0.00341608 -0.0255513,-0.00566458 -0.0249603,-0.00786996 -0.0241794,-0.0100155 -0.0232145,-0.0120847 -0.0220729,-0.014062 -0.0207634,-0.0159323 -0.0192958,-0.0176813 -0.0176813,-0.0192958 -0.0159323,-0.0207634 -0.014062,-0.0220729 -0.0120847,-0.0232145 -0.0100155,-0.0241794 -0.00786996,-0.0249603 -0.00566458,-0.0255513 -0.00341608,-0.0259477 -0.00114159,-0.0261467 -4.44089e-16,-0.4 z "/>
<path fill="rgb(0,91,140)" stroke="rgb(0,91,140)" d="M 0.4,3.4 l 1,0 0,1 -1,0 0,-1 z "/>
<path fill="rgb(0,91,140)" stroke="rgb(0,91,140)" d="M 1.79106,2.08222 l 0,0.183188 -0.477352,0 0,-0.183188 0.477352,0 z "/>
<path fill="rgb(0,91,140)" stroke="rgb(0,91,140)" d="M 2.75855,1.97572 l 0,-0.391937 0.716028,0 0,0.391937 -0.716028,0 z "/>
<path fill="rgb(0,91,140)" stroke="rgb(0,91,140)" d="M 1.80385,1.80105 l -0.279518,0 -0.138165,-0.168419 0,-0.151094 0.417683,0 0,0.319514 z "/>
<path fill="rgb(0,91,140)" stroke="rgb(0,91,140)" d="M 2.50709,1.97572 l -0.464566,0 0,-0.920199 0.464566,0 0,0.920199 z "/>
<path fill="rgb(0,91,140)" stroke="rgb(0,91,140)" d="M 4.1,3.4 l 0,1 -0.7,0 0,-1 0.7,0 z "/>
<path fill="rgb(0,91,140)" stroke="rgb(0,91,140)" d="M 4.1,4.4 l 0,1 -0.7,0 0,-1 0.7,0 z "/>
<path fill="rgb(0,91,140)" stroke="rgb(0,91,140)" d="M 3.8,7.5 l -1.55,0 -4.44089e-16,-0.2 1.55,0 0.0435779,-0.00190265 0.0432462,-0.00569347 0.0425854,-0.00944096 0.0416005,-0.0131166 0.0402991,-0.0166924 0.0386909,-0.0201412 0.0367882,-0.0234367 0.0346056,-0.0265538 0.0321596,-0.0294688 0.0294688,-0.0321596 0.0265538,-0.0346056 0.0234367,-0.0367882 0.0201412,-0.0386909 0.0166924,-0.0402991 0.0131166,-0.0416005 0.00944096,-0.0425854 0.00569347,-0.0432462 0.00190265,-0.0435779 0,-6.1 -0.00190265,-0.0435779 -0.00569347,-0.0432462 -0.00944096,-0.0425854 -0.0131166,-0.0416005 -0.0166924,-0.0402991 -0.0201412,-0.0386909 -0.0234367,-0.0367882 -0.0265538,-0.0346056 -0.0294688,-0.0321596 -0.0321596,-0.0294688 -0.0346056,-0.0265538 -0.0367882,-0.0234367 -0.0386909,-0.0201412 -0.0402991,-0.0166924 -0.0416005,-0.0131166 -0.0425854,-0.00944096 -0.0432462,-0.00569347 -0.0435779,-0.00190265 -1.55,4.44089e-16 0,-0.2 1.55,-4.44089e-16 0.061009,0.00266371 0.0605447,0.00797086 0.0596196,0.0132173 0.0582408,0.0183632 0.0564187,0.0233694 0.0541672,0.0281977 0.0515035,0.0328114 0.0484478,0.0371753 0.0450234,0.0412564 0.0412564,0.0450234 0.0371753,0.0484478 0.0328114,0.0515035 0.0281977,0.0541672 0.0233694,0.0564187 0.0183632,0.0582408 0.0132173,0.0596196 0.00797086,0.0605447 0.00266371,0.061009 8.88178e-16,6.1 -0.00266371,0.061009 -0.00797086,0.0605447 -0.0132173,0.0596196 -0.0183632,0.0582408 -0.0233694,0.0564187 -0.0281977,0.0541672 -0.0328114,0.0515035 -0.0371753,0.0484478 -0.0412564,0.0450234 -0.0450234,0.0412564 -0.0484478,0.0371753 -0.0515035,0.0328114 -0.0541672,0.0281977 -0.0564187,0.0233694 -0.0582408,0.0183632 -0.0596196,0.0132173 -0.0605447,0.00797086 -0.061009,0.00266371 z "/>
<path fill="rgb(0,91,140)" stroke="rgb(0,91,140)" d="M 0,6.8 l 0,-6.1 0.00266371,-0.061009 0.00797086,-0.0605447 0.0132173,-0.0596196 0.0183632,-0.0582408 0.0233694,-0.0564187 0.0281977,-0.0541672 0.0328114,-0.0515035 0.0371753,-0.0484478 0.0412564,-0.0450234 0.0450234,-0.0412564 0.0484478,-0.0371753 0.0515035,-0.0328114 0.0541672,-0.0281977 0.0564187,-0.0233694 0.0582408,-0.0183632 0.0596196,-0.0132173 0.0605447,-0.00797086 0.061009,-0.00266371 1.55,-8.88178e-16 0,0.2 -1.55,4.44089e-16 -0.0435779,0.00190265 -0.0432462,0.00569347 -0.0425854,0.00944096 -0.0416005,0.0131166 -0.0402991,0.0166924 -0.0386909,0.0201412 -0.0367882,0.0234367 -0.0346056,0.0265538 -0.0321596,0.0294688 -0.0294688,0.0321596 -0.0265538,0.0346056 -0.0234367,0.0367882 -0.0201412,0.0386909 -0.0166924,0.0402991 -0.0131166,0.0416005 -0.00944096,0.0425854 -0.00569347,0.0432462 -0.00190265,0.0435779 0,6.1 0.00190265,0.0435779 0.00569347,0.0432462 0.00944096,0.0425854 0.0131166,0.0416005 0.0166924,0.0402991 0.0201412,0.0386909 0.0234367,0.0367882 0.0265538,0.0346056 0.0294688,0.0321596 0.0321596,0.0294688 0.0346056,0.0265538 0.0367882,0.0234367 0.0386909,0.0201412 0.0402991,0.0166924 0.0416005,0.0131166 0.0425854,0.00944096 0.0432462,0.00569347 0.0435779,0.00190265 1.55,0 4.44089e-16,0.2 -1.55,0 -0.061009,-0.00266371 -0.0605447,-0.00797086 -0.0596196,-0.0132173 -0.0582408,-0.0183632 -0.0564187,-0.0233694 -0.0541672,-0.0281977 -0.0515035,-0.0328114 -0.0484478,-0.0371753 -0.0450234,-0.0412564 -0.0412564,-0.0450234 -0.0371753,-0.0484478 -0.0328114,-0.0515035 -0.0281977,-0.0541672 -0.0233694,-0.0564187 -0.0183632,-0.0582408 -0.0132173,-0.0596196 -0.00797086,-0.0605447 -0.00266371,-0.061009 z "/>
<path fill="rgb(241,240,234)" stroke="rgb(241,240,234)" d="M 2.25,0.4 l 0,-0.2 1.55,-4.44089e-16 0.0435779,0.00190265 0.0432462,0.00569347 0.0425854,0.00944096 0.0416005,0.0131166 0.0402991,0.0166924 0.0386909,0.0201412 0.0367882,0.0234367 0.0346056,0.0265538 0.0321596,0.0294688 0.0294688,0.0321596 0.0265538,0.0346056 0.0234367,0.0367882 0.0201412,0.0386909 0.0166924,0.0402991 0.0131166,0.0416005 0.00944096,0.0425854 0.00569347,0.0432462 0.00190265,0.0435779 0,6.1 -0.00190265,0.0435779 -0.00569347,0.0432462 -0.00944096,0.0425854 -0.0131166,0.0416005 -0.0166924,0.0402991 -0.0201412,0.0386909 -0.0234367,0.0367882 -0.0265538,0.0346056 -0.0294688,0.0321596 -0.0321596,0.0294688 -0.0346056,0.0265538 -0.0367882,0.0234367 -0.0386909,0.0201412 -0.0402991,0.0166924 -0.0416005,0.0131166 -0.0425854,0.00944096 -0.0432462,0.00569347 -0.0435779,0.00190265 -1.55,0 0,-0.2 1.55,0 0.0261467,-0.00114159 0.0259477,-0.00341608 0.0255513,-0.00566458 0.0249603,-0.00786996 0.0241794,-0.0100155 0.0232145,-0.0120847 0.0220729,-0.014062 0.0207634,-0.0159323 0.0192958,-0.0176813 0.0176813,-0.0192958 0.0159323,-0.0207634 0.014062,-0.0220729 0.0120847,-0.0232145 0.0100155,-0.0241794 0.00786996,-0.0249603 0.00566458,-0.0255513 0.00341608,-0.0259477 0.00114159,-0.0261467 0,-6.1 -0.00114159,-0.0261467 -0.00341608,-0.0259477 -0.00566458,-0.0255513 -0.00786996,-0.0249603 -0.0100155,-0.0241794 -0.0120847,-0.0232145 -0.014062,-0.0220729 -0.0159323,-0.0207634 -0.0176813,-0.0192958 -0.0192958,-0.0176813 -0.0207634,-0.0159323 -0.0220729,-0.014062 -0.0232145,-0.0120847 -0.0241794,-0.0100155 -0.0249603,-0.00786996 -0.0255513,-0.00566458 -0.0259477,-0.00341608 -0.0261467,-0.00114159 -1.55,4.44089e-16 z "/>
<path fill="rgb(241,240,234)" stroke="rgb(241,240,234)" d="M 0.7,0.4 l -0.0261467,0.00114159 -0.0259477,0.00341608 -0.0255513,0.00566458 -0.0249603,0.00786996 -0.0241794,0.0100155 -0.0232145,0.0120847 -0.0220729,0.014062 -0.0207634,0.0159323 -0.0192958,0.0176813 -0.0176813,0.0192958 -0.0159323,0.0207634 -0.014062,0.0220729 -0.0120847,0.0232145 -0.0100155,0.0241794 -0.00786996,0.0249603 -0.00566458,0.0255513 -0.00341608,0.0259477 -0.00114159,0.0261467 4.44089e-16,6.1 0.00114159,0.0261467 0.00341608,0.0259477 0.00566458,0.0255513 0.00786996,0.0249603 0.0100155,0.0241794 0.0120847,0.0232145 0.014062,0.0220729 0.0159323,0.0207634 0.0176813,0.0192958 0.0192958,0.0176813 0.0207634,0.0159323 0.0220729,0.014062 0.0232145,0.0120847 0.0241794,0.0100155 0.0249603,0.00786996 0.0255513,0.00566458 0.0259477,0.00341608 0.0261467,0.00114159 1.55,0 0,0.2 -1.55,0 -0.0435779,-0.00190265 -0.0432462,-0.00569347 -0.0425854,-0.00944096 -0.0416005,-0.0131166 -0.0402991,-0.0166924 -0.0386909,-0.0201412 -0.0367882,-0.0234367 -0.0346056,-0.0265538 -0.0321596,-0.0294688 -0.0294688,-0.0321596 -0.0265538,-0.0346056 -0.0234367,-0.0367882 -0.0201412,-0.0386909 -0.0166924,-0.0402991 -0.0131166,-0.0416005 -0.00944096,-0.0425854 -0.00569347,-0.0432462 -0.00190265,-0.0435779 0,-6.1 0.00190265,-0.0435779 0.00569347,-0.0432462 0.00944096,-0.0425854 0.0131166,-0.0416005 0.0166924,-0.0402991 0.0201412,-0.0386909 0.0234367,-0.0367882 0.0265538,-0.0346056 0.0294688,-0.0321596 0.0321596,-0.0294688 0.0346056,-0.0265538 0.0367882,-0.0234367 0.0386909,-0.0201412 0.0402991,-0.0166924 0.0416005,-0.0131166 0.0425854,-0.00944096 0.0432462,-0.00569347 0.0435779,-0.00190265 1.55,-4.44089e-16 0,0.2 -1.55,4.44089e-16 z "/>
<path fill="rgb(241,240,234)" stroke="rgb(241,240,234)" d="M 2.55859,6.76827 l -1.46882,0 0,-3.50027 0.573357,0 0,1.37219 0.895467,0 0.090191,0.00322111 0.109518,0.00966332 0.102002,0.0193266 0.0944858,0.0268425 0.0880436,0.0354322 0.0794539,0.0440218 0.0848225,0.0590536 0.0783802,0.0697906 0.071938,0.0783802 0.0633484,0.0858962 0.0547588,0.0944858 0.0472429,0.0987806 -1.85965,0.00322111 0,0.871846 0.918015,0 0.939489,0.0246951 -0.0450955,0.090191 -0.0536851,0.0848225 -0.0622747,0.0783802 -0.071938,0.0730117 -0.0805276,0.0676432 -0.0891173,0.061201 -0.0644221,0.0365059 -0.0891173,0.039727 -0.0934121,0.0311374 -0.0998543,0.0225477 -0.104149,0.0128844 -0.108444,0.00536851 z "/>
<path fill="rgb(241,240,234)" stroke="rgb(241,240,234)" d="M 3.52063,6.16485 l -0.939489,-0.0246951 0.0687169,-0.00322111 0.103075,-0.0193266 0.0891173,-0.0386533 0.0740854,-0.0558325 0.0246951,-0.0268425 0.0579799,-0.0869699 0.0343585,-0.0998543 0.0118107,-0.112739 -0.0010737,-0.02899 -0.0182529,-0.110591 -0.0429481,-0.0944858 -0.0665695,-0.0773065 -0.0440218,-0.0343585 -0.0858962,-0.0461692 -0.0977069,-0.0279163 -0.10737,-0.00858962 -0.918015,0 1.85965,-0.00322111 0.0375796,0.105223 0.0268425,0.10737 0.0161055,0.108444 0.00536851,0.110591 -0.0010737,0.0515377 -0.00751591,0.112739 -0.0182529,0.10737 -0.0257688,0.100928 -0.0354322,0.0955595 z "/>
</g></g></svg>
