<?xml version="1.0" encoding="UTF-8" standalone="no"?>
<!DOCTYPE svg PUBLIC "-//W3C//DTD SVG 1.1//EN" "http://www.w3.org/Graphics/SVG/1.1/DTD/svg11-flat.dtd"
[

]>
<svg xmlns="http://www.w3.org/2000/svg"  viewBox="-0.09375 -0.09375 7.6875 7.6875"><g fill="none" stroke="black" stroke-width="0.0125" transform="translate(0,7.5) scale(1, -1)">
<g id="Output" >
<path fill="rgb(0,91,140)" stroke="rgb(0,91,140)" d="M 7.1,6.25147 l -5.85147,-5.85147 5.55147,0 0.0261467,0.00114159 0.0259477,0.00341608 0.0255513,0.00566458 0.0249603,0.00786996 0.0241794,0.0100155 0.0232145,0.0120847 0.0220729,0.014062 0.0207634,0.0159323 0.0192958,0.0176813 0.0176813,0.0192958 0.0159323,0.0207634 0.014062,0.0220729 0.0120847,0.0232145 0.0100155,0.0241794 0.00786996,0.0249603 0.00566458,0.0255513 0.00341608,0.0259477 0.00114159,0.0261467 0,3.05 -8.88178e-16,2.50147 z "/>
<path fill="rgb(0,91,140)" stroke="rgb(0,91,140)" d="M 0.4,3.75 l 1.33227e-15,-2.50147 5.85147,5.85147 -5.55147,-2.66454e-15 -0.0261467,-0.00114159 -0.0259477,-0.00341608 -0.0255513,-0.00566458 -0.0249603,-0.00786996 -0.0241794,-0.0100155 -0.0232145,-0.0120847 -0.0220729,-0.014062 -0.0207634,-0.0159323 -0.0192958,-0.0176813 -0.0176813,-0.0192958 -0.0159323,-0.0207634 -0.014062,-0.0220729 -0.0120847,-0.0232145 -0.0100155,-0.0241794 -0.00786996,-0.0249603 -0.00566458,-0.0255513 -0.00341608,-0.0259477 -0.00114159,-0.0261467 4.44089e-16,-3.05 z "/>
<path fill="rgb(241,240,234)" stroke="rgb(241,240,234)" d="M 7.1,6.25147 l 0,0.282843 -6.13431,-6.13431 0.282843,0 5.85147,5.85147 z "/>
<path fill="rgb(241,240,234)" stroke="rgb(241,240,234)" d="M 0.4,0.965685 l 6.13431,6.13431 -0.282843,1.77636e-15 -5.85147,-5.85147 -4.44089e-16,-0.282843 z "/>
<path fill="rgb(241,240,234)" stroke="rgb(241,240,234)" d="M 0.4,3.75 l -0.2,-4.44089e-16 4.44089e-16,-3.05 0.00190265,-0.0435779 0.00569347,-0.0432462 0.00944096,-0.0425854 0.0131166,-0.0416005 0.0166924,-0.0402991 0.0201412,-0.0386909 0.0234367,-0.0367882 0.0265538,-0.0346056 0.0294688,-0.0321596 0.0321596,-0.0294688 0.0346056,-0.0265538 0.0367882,-0.0234367 0.0386909,-0.0201412 0.0402991,-0.0166924 0.0416005,-0.0131166 0.0425854,-0.00944096 0.0432462,-0.00569347 0.0435779,-0.00190265 6.1,0 0.0435779,0.00190265 0.0432462,0.00569347 0.0425854,0.00944096 0.0416005,0.0131166 0.0402991,0.0166924 0.0386909,0.0201412 0.0367882,0.0234367 0.0346056,0.0265538 0.0321596,0.0294688 0.0294688,0.0321596 0.0265538,0.0346056 0.0234367,0.0367882 0.0201412,0.0386909 0.0166924,0.0402991 0.0131166,0.0416005 0.00944096,0.0425854 0.00569347,0.0432462 0.00190265,0.0435779 0,3.05 -0.2,4.44089e-16 0,-3.05 -0.00114159,-0.0261467 -0.00341608,-0.0259477 -0.00566458,-0.0255513 -0.00786996,-0.0249603 -0.0100155,-0.0241794 -0.0120847,-0.0232145 -0.014062,-0.0220729 -0.0159323,-0.0207634 -0.0176813,-0.0192958 -0.0192958,-0.0176813 -0.0207634,-0.0159323 -0.0220729,-0.014062 -0.0232145,-0.0120847 -0.0241794,-0.0100155 -0.0249603,-0.00786996 -0.0255513,-0.00566458 -0.0259477,-0.00341608 -0.0261467,-0.00114159 -5.55147,0 -0.282843,0 -0.265685,0 -0.0261467,0.00114159 -0.0259477,0.00341608 -0.0255513,0.00566458 -0.0249603,0.00786996 -0.0241794,0.0100155 -0.0232145,0.0120847 -0.0220729,0.014062 -0.0207634,0.0159323 -0.0192958,0.0176813 -0.0176813,0.0192958 -0.0159323,0.0207634 -0.014062,0.0220729 -0.0120847,0.0232145 -0.0100155,0.0241794 -0.00786996,0.0249603 -0.00566458,0.0255513 -0.00341608,0.0259477 -0.00114159,0.0261467 4.44089e-16,0.265685 4.44089e-16,0.282843 -1.33227e-15,2.50147 z "/>
<path fill="rgb(241,240,234)" stroke="rgb(241,240,234)" d="M 0.2,3.75 l 0.2,4.44089e-16 -4.44089e-16,3.05 0.00114159,0.0261467 0.00341608,0.0259477 0.00566458,0.0255513 0.00786996,0.0249603 0.0100155,0.0241794 0.0120847,0.0232145 0.014062,0.0220729 0.0159323,0.0207634 0.0176813,0.0192958 0.0192958,0.0176813 0.0207634,0.0159323 0.0220729,0.014062 0.0232145,0.0120847 0.0241794,0.0100155 0.0249603,0.00786996 0.0255513,0.00566458 0.0259477,0.00341608 0.0261467,0.00114159 5.55147,2.66454e-15 0.282843,-1.77636e-15 0.265685,0 0.0261467,-0.00114159 0.0259477,-0.00341608 0.0255513,-0.00566458 0.0249603,-0.00786996 0.0241794,-0.0100155 0.0232145,-0.0120847 0.0220729,-0.014062 0.0207634,-0.0159323 0.0192958,-0.0176813 0.0176813,-0.0192958 0.0159323,-0.0207634 0.014062,-0.0220729 0.0120847,-0.0232145 0.0100155,-0.0241794 0.00786996,-0.0249603 0.00566458,-0.0255513 0.00341608,-0.0259477 0.00114159,-0.0261467 0,-0.265685 0,-0.282843 8.88178e-16,-2.50147 0.2,-4.44089e-16 -8.88178e-16,3.05 -0.00190265,0.0435779 -0.00569347,0.0432462 -0.00944096,0.0425854 -0.0131166,0.0416005 -0.0166924,0.0402991 -0.0201412,0.0386909 -0.0234367,0.0367882 -0.0265538,0.0346056 -0.0294688,0.0321596 -0.0321596,0.0294688 -0.0346056,0.0265538 -0.0367882,0.0234367 -0.0386909,0.0201412 -0.0402991,0.0166924 -0.0416005,0.0131166 -0.0425854,0.00944096 -0.0432462,0.00569347 -0.0435779,0.00190265 -6.1,-8.88178e-16 -0.0435779,-0.00190265 -0.0432462,-0.00569347 -0.0425854,-0.00944096 -0.0416005,-0.0131166 -0.0402991,-0.0166924 -0.0386909,-0.0201412 -0.0367882,-0.0234367 -0.0346056,-0.0265538 -0.0321596,-0.0294688 -0.0294688,-0.0321596 -0.0265538,-0.0346056 -0.0234367,-0.0367882 -0.0201412,-0.0386909 -0.0166924,-0.0402991 -0.0131166,-0.0416005 -0.00944096,-0.0425854 -0.00569347,-0.0432462 -0.00190265,-0.0435779 4.44089e-16,-3.05 z "/>
<path fill="rgb(0,91,140)" stroke="rgb(0,91,140)" d="M 0.2,3.75 l -0.2,0 4.44089e-16,-3.05 0.00266371,-0.061009 0.00797086,-0.0605447 0.0132173,-0.0596196 0.0183632,-0.0582408 0.0233694,-0.0564187 0.0281977,-0.0541672 0.0328114,-0.0515035 0.0371753,-0.0484478 0.0412564,-0.0450234 0.0450234,-0.0412564 0.0484478,-0.0371753 0.0515035,-0.0328114 0.0541672,-0.0281977 0.0564187,-0.0233694 0.0582408,-0.0183632 0.0596196,-0.0132173 0.0605447,-0.00797086 0.061009,-0.00266371 6.1,-8.88178e-16 0.061009,0.00266371 0.0605447,0.00797086 0.0596196,0.0132173 0.0582408,0.0183632 0.0564187,0.0233694 0.0541672,0.0281977 0.0515035,0.0328114 0.0484478,0.0371753 0.0450234,0.0412564 0.0412564,0.0450234 0.0371753,0.0484478 0.0328114,0.0515035 0.0281977,0.0541672 0.0233694,0.0564187 0.0183632,0.0582408 0.0132173,0.0596196 0.00797086,0.0605447 0.00266371,0.061009 -1.77636e-15,3.05 -0.2,-8.88178e-16 0,-3.05 -0.00190265,-0.0435779 -0.00569347,-0.0432462 -0.00944096,-0.0425854 -0.0131166,-0.0416005 -0.0166924,-0.0402991 -0.0201412,-0.0386909 -0.0234367,-0.0367882 -0.0265538,-0.0346056 -0.0294688,-0.0321596 -0.0321596,-0.0294688 -0.0346056,-0.0265538 -0.0367882,-0.0234367 -0.0386909,-0.0201412 -0.0402991,-0.0166924 -0.0416005,-0.0131166 -0.0425854,-0.00944096 -0.0432462,-0.00569347 -0.0435779,-0.00190265 -6.1,0 -0.0435779,0.00190265 -0.0432462,0.00569347 -0.0425854,0.00944096 -0.0416005,0.0131166 -0.0402991,0.0166924 -0.0386909,0.0201412 -0.0367882,0.0234367 -0.0346056,0.0265538 -0.0321596,0.0294688 -0.0294688,0.0321596 -0.0265538,0.0346056 -0.0234367,0.0367882 -0.0201412,0.0386909 -0.0166924,0.0402991 -0.0131166,0.0416005 -0.00944096,0.0425854 -0.00569347,0.0432462 -0.00190265,0.0435779 -4.44089e-16,3.05 z "/>
<path fill="rgb(0,91,140)" stroke="rgb(0,91,140)" d="M 6.8,7.3 l 0.0435779,-0.00190265 0.0432462,-0.00569347 0.0425854,-0.00944096 0.0416005,-0.0131166 0.0402991,-0.0166924 0.0386909,-0.0201412 0.0367882,-0.0234367 0.0346056,-0.0265538 0.0321596,-0.0294688 0.0294688,-0.0321596 0.0265538,-0.0346056 0.0234367,-0.0367882 0.0201412,-0.0386909 0.0166924,-0.0402991 0.0131166,-0.0416005 0.00944096,-0.0425854 0.00569347,-0.0432462 0.00190265,-0.0435779 8.88178e-16,-3.05 0.2,8.88178e-16 1.77636e-15,3.05 -0.00266371,0.061009 -0.00797086,0.0605447 -0.0132173,0.0596196 -0.0183632,0.0582408 -0.0233694,0.0564187 -0.0281977,0.0541672 -0.0328114,0.0515035 -0.0371753,0.0484478 -0.0412564,0.0450234 -0.0450234,0.0412564 -0.0484478,0.0371753 -0.0515035,0.0328114 -0.0541672,0.0281977 -0.0564187,0.0233694 -0.0582408,0.0183632 -0.0596196,0.0132173 -0.0605447,0.00797086 -0.061009,0.00266371 -6.1,-8.88178e-16 -0.061009,-0.00266371 -0.0605447,-0.00797086 -0.0596196,-0.0132173 -0.0582408,-0.0183632 -0.0564187,-0.0233694 -0.0541672,-0.0281977 -0.0515035,-0.0328114 -0.0484478,-0.0371753 -0.0450234,-0.0412564 -0.0412564,-0.0450234 -0.0371753,-0.0484478 -0.0328114,-0.0515035 -0.0281977,-0.0541672 -0.0233694,-0.0564187 -0.0183632,-0.0582408 -0.0132173,-0.0596196 -0.00797086,-0.0605447 -0.00266371,-0.061009 4.44089e-16,-3.05 0.2,0 -4.44089e-16,3.05 0.00190265,0.0435779 0.00569347,0.0432462 0.00944096,0.0425854 0.0131166,0.0416005 0.0166924,0.0402991 0.0201412,0.0386909 0.0234367,0.0367882 0.0265538,0.0346056 0.0294688,0.0321596 0.0321596,0.0294688 0.0346056,0.0265538 0.0367882,0.0234367 0.0386909,0.0201412 0.0402991,0.0166924 0.0416005,0.0131166 0.0425854,0.00944096 0.0432462,0.00569347 0.0435779,0.00190265 6.1,8.88178e-16 z "/>
<path fill="rgb(241,240,234)" stroke="rgb(241,240,234)" d="M 5.2982,6.52613 l -0.0465301,-0.000694479 -0.0812541,-0.00486135 -0.0784762,-0.00833375 -0.0763927,-0.0125006 -0.0736148,-0.0166675 -0.0715314,-0.0208344 -0.0694479,-0.0243068 -0.0659755,-0.0291681 -0.0645866,-0.033335 -0.0618087,-0.0368074 -0.0590307,-0.0409743 -0.0569473,-0.0458356 -0.0548639,-0.049308 -0.0520859,-0.0534749 -0.049308,-0.0576418 -0.0472246,-0.0618087 -0.017362,-0.0243068 1.02644,-0.0395853 0.0513915,-0.00138896 0.0777817,-0.00833375 0.0736148,-0.015973 0.0701424,-0.0236123 0.0645866,-0.0312516 0.0611142,-0.0388908 0.0569473,-0.0458356 0.0520859,-0.0534749 0.0479191,-0.0611142 0.0222233,-0.033335 0.033335,-0.0569473 0.0298626,-0.0611142 0.0256957,-0.0652811 0.0229178,-0.0687534 0.0194454,-0.0729203 0.015973,-0.0763927 0.0118061,-0.0805596 0.00902823,-0.0847265 0.00486135,-0.0881989 0.00208344,-0.0888933 -0.000694479,-0.0548639 -0.00416688,-0.0875044 -0.00763927,-0.084032 -0.0111117,-0.0805596 -0.0152785,-0.0777817 -0.0180565,-0.0736148 -0.0222233,-0.0708369 -0.0250013,-0.068059 -0.0291681,-0.0638921 -0.0326405,-0.0611142 -0.0361129,-0.0576418 -0.031946,-0.0444467 -0.050697,-0.0583363 -0.0541694,-0.050697 -0.0583363,-0.0430577 -0.0631976,-0.034724 -0.06667,-0.0270847 -0.0708369,-0.0194454 -0.0750038,-0.0118061 -0.0798651,-0.00416688 -1.05283,-0.000694479 0.0388908,-0.0590307 0.0326405,-0.0444467 0.0486135,-0.0597252 0.0500025,-0.0548639 0.0534749,-0.0513915 0.0548639,-0.0472246 0.0583363,-0.0430577 0.0604197,-0.0388908 0.0625031,-0.034724 0.0659755,-0.0305571 0.0673645,-0.0263902 0.0708369,-0.0222233 0.0729203,-0.0187509 0.0750038,-0.0145841 0.0777817,-0.00972271 0.0805596,-0.00625031 0.082643,-0.00208344 0.0708369,0.00138896 0.0805596,0.00555583 0.0784762,0.00972271 0.0750038,0.0138896 0.0729203,0.0180565 0.0708369,0.0222233 0.068059,0.0263902 0.0652811,0.0298626 0.0625031,0.034724 0.0604197,0.0388908 0.0583363,0.0423632 0.0548639,0.0472246 0.0527804,0.050697 0.050697,0.0548639 0.0472246,0.0597252 0.0458356,0.0631976 0.0131951,0.0201399 0.0375019,0.0597252 0.034724,0.0618087 0.031946,0.0631976 0.0291681,0.0659755 0.0270847,0.068059 0.0250013,0.0694479 0.0215289,0.0715314 0.0194454,0.0736148 0.0166675,0.0756982 0.0138896,0.0777817 0.0118061,0.0798651 0.00902823,0.0812541 0.00625031,0.0833375 0.00416688,0.0861154 0.00138896,0.0875044 0,0.0125006 -0.00208344,0.0868099 -0.00416688,0.0847265 -0.00694479,0.082643 -0.0104172,0.0805596 -0.0118061,0.0791706 -0.0152785,0.0763927 -0.0180565,0.0750038 -0.0201399,0.0729203 -0.0236123,0.0708369 -0.0256957,0.0694479 -0.0284737,0.06667 -0.0312516,0.0652811 -0.0340295,0.0631976 -0.0361129,0.0611142 -0.0395853,0.0590307 -0.0305571,0.0430577 -0.0472246,0.0590307 -0.0500025,0.0555583 -0.0527804,0.0513915 -0.0555583,0.0472246 -0.0569473,0.0437522 -0.0604197,0.0388908 -0.0625031,0.034724 -0.0652811,0.0305571 -0.068059,0.0270847 -0.0701424,0.0229178 -0.0729203,0.0180565 -0.0756982,0.0145841 -0.0777817,0.0104172 -0.0805596,0.00625031 -0.0833375,0.00208344 z "/>
<path fill="rgb(241,240,234)" stroke="rgb(241,240,234)" d="M 4.27176,6.00527 l -0.0388908,-0.0590307 -0.0361129,-0.0611142 -0.0326405,-0.0631976 -0.0305571,-0.0652811 -0.0284737,-0.0673645 -0.0250013,-0.0694479 -0.0222233,-0.0708369 -0.0201399,-0.0736148 -0.017362,-0.0750038 -0.0145841,-0.0777817 -0.0118061,-0.0791706 -0.00972271,-0.0819486 -0.00625031,-0.0833375 -0.00416688,-0.085421 -0.00138896,-0.0875044 0,-0.0402798 0.00277792,-0.0868099 0.00486135,-0.0847265 0.00763927,-0.082643 0.0104172,-0.0805596 0.0131951,-0.0784762 0.0152785,-0.0763927 0.0187509,-0.0750038 0.0201399,-0.0722258 0.0236123,-0.0708369 0.0263902,-0.0687534 0.0284737,-0.06667 0.0312516,-0.0645866 0.0340295,-0.0625031 0.0361129,-0.0604197 1.05283,0.000694479 -0.0555583,0.00208344 -0.0784762,0.00833375 -0.0736148,0.0166675 -0.0694479,0.0236123 -0.0652811,0.0305571 -0.0611142,0.0388908 -0.0562528,0.0458356 -0.0520859,0.0534749 -0.0479191,0.0604197 -0.0305571,0.0472246 -0.0326405,0.0576418 -0.0291681,0.0618087 -0.0256957,0.0652811 -0.0222233,0.0694479 -0.0187509,0.0729203 -0.0152785,0.0770872 -0.0118061,0.0812541 -0.00833375,0.0847265 -0.00555583,0.0888933 -0.00138896,0.0930602 0,0.0402798 0.00416688,0.085421 0.00694479,0.082643 0.0111117,0.0798651 0.0152785,0.0763927 0.0187509,0.0736148 0.0229178,0.0701424 0.0263902,0.068059 0.0298626,0.0645866 0.0340295,0.0611142 0.0298626,0.0472246 0.0465301,0.0631976 0.0513915,0.0562528 0.0548639,0.0479191 0.0583363,0.0416688 0.0625031,0.033335 0.06667,0.0263902 0.0701424,0.0180565 0.0736148,0.0118061 0.0777817,0.0034724 -1.02644,0.0395853 z "/>
<path fill="rgb(241,240,234)" stroke="rgb(241,240,234)" d="M 2.00845,6.52613 l -0.00416688,0 -0.0868099,-0.00208344 -0.0847265,-0.00625031 -0.0812541,-0.00902823 -0.0784762,-0.0131951 -0.0756982,-0.0166675 -0.0736148,-0.0201399 -0.0701424,-0.0243068 -0.068059,-0.0277792 -0.0652811,-0.0312516 -0.0625031,-0.034724 -0.0597252,-0.0388908 -0.0569473,-0.0423632 -0.034724,-0.0291681 -0.0569473,-0.0534749 -0.050697,-0.0562528 -0.0451412,-0.0590307 -0.0388908,-0.0625031 -0.033335,-0.0645866 -0.0270847,-0.068059 -0.0208344,-0.0708369 -0.0152785,-0.0736148 -0.00902823,-0.0763927 -0.00277792,-0.0791706 0.000694479,-0.031946 0.00555583,-0.0756982 0.0118061,-0.0729203 0.0180565,-0.0708369 0.0243068,-0.0687534 0.0298626,-0.06667 0.0368074,-0.0638921 0.0430577,-0.0618087 0.0486135,-0.0597252 0.0548639,-0.0569473 0.0611142,-0.0548639 0.0458356,-0.0361129 0.0590307,-0.0409743 0.0618087,-0.0368074 0.0638921,-0.033335 1.32507,-0.0180565 -0.00625031,-0.0145841 -0.0368074,-0.0756982 -0.0381964,-0.0715314 -0.0416688,-0.0687534 -0.0437522,-0.0652811 -0.0458356,-0.0611142 -0.049308,-0.0583363 -0.050697,-0.0548639 -0.0534749,-0.0513915 -0.0562528,-0.0486135 -0.0590307,-0.0444467 -0.0604197,-0.0409743 -0.0638921,-0.0381964 -0.0250013,-0.0131951 -0.0631976,-0.031946 -0.0659755,-0.0277792 -0.068059,-0.0250013 -0.0715314,-0.0215289 -0.0736148,-0.0180565 -0.0763927,-0.0152785 -0.0791706,-0.0111117 -0.0812541,-0.00833375 -0.084032,-0.00486135 -0.0868099,-0.00208344 -0.0597252,0 0,-0.57364 0.0236123,0 0.085421,0.00208344 0.084032,0.00416688 0.0819486,0.00625031 0.0805596,0.00902823 0.0791706,0.0111117 0.0777817,0.0138896 0.0756982,0.015973 0.0743093,0.0187509 0.0729203,0.0208344 0.0715314,0.0229178 0.0694479,0.0256957 0.068059,0.0277792 0.06667,0.0305571 0.0645866,0.0326405 0.0638921,0.034724 0.0618087,0.0375019 0.0604197,0.0395853 0.0118061,0.00833375 0.0638921,0.0465301 0.0611142,0.0486135 0.0583363,0.049308 0.0562528,0.050697 0.0534749,0.0527804 0.050697,0.0541694 0.0479191,0.0555583 0.0458356,0.0569473 0.0430577,0.0583363 0.0402798,0.0597252 0.0375019,0.0611142 0.0354184,0.0631976 0.0326405,0.0638921 0.0298626,0.0659755 0.0270847,0.0673645 0.0250013,0.0687534 0.0222233,0.0701424 0.0194454,0.0715314 0.0166675,0.0736148 0.0145841,0.0743093 0.0118061,0.0763927 0.00902823,0.0770872 0.00625031,0.0791706 0.00416688,0.0805596 -1.30215,0.00902823 -0.0479191,0.000694479 -0.0847265,0.00555583 -0.0805596,0.0111117 -0.0750038,0.015973 -0.0708369,0.0215289 -0.0659755,0.0270847 -0.0611142,0.0326405 -0.0534749,0.0361129 -0.0569473,0.0541694 -0.0402798,0.0590307 -0.0243068,0.0645866 -0.00833375,0.0708369 0.00486135,0.0604197 0.0208344,0.0673645 0.0354184,0.0618087 0.0513915,0.0548639 0.0659755,0.049308 0.0256957,0.0145841 0.0590307,0.0277792 0.0659755,0.0229178 0.0722258,0.017362 0.0798651,0.0125006 0.0861154,0.00763927 0.0930602,0.00277792 1.1202,0.0256957 -0.0402798,0.0569473 -0.0444467,0.0534749 -0.0479191,0.050697 -0.0513915,0.0472246 -0.0298626,0.0243068 -0.0583363,0.0451412 -0.0604197,0.0409743 -0.0631976,0.0375019 -0.0645866,0.033335 -0.0673645,0.0305571 -0.0694479,0.0270847 -0.0715314,0.0229178 -0.0736148,0.0194454 -0.0756982,0.015973 -0.0777817,0.0125006 -0.0805596,0.00902823 -0.0819486,0.00555583 -0.0847265,0.00208344 z "/>
<path fill="rgb(241,240,234)" stroke="rgb(241,240,234)" d="M 3.15157,5.99138 l -1.1202,-0.0256957 0.0277792,0 0.0875044,-0.00486135 0.0812541,-0.00972271 0.0763927,-0.015973 0.0708369,-0.0208344 0.0645866,-0.0263902 0.0597252,-0.0326405 0.0555583,-0.0395853 0.0562528,-0.0541694 0.0395853,-0.0604197 0.0243068,-0.0645866 0.00763927,-0.0701424 -0.0034724,-0.0513915 -0.0201399,-0.0673645 -0.0354184,-0.0611142 -0.0513915,-0.0555583 -0.068059,-0.049308 -0.015973,-0.00972271 -0.0631976,-0.031946 -0.068059,-0.0263902 -0.0722258,-0.0208344 -0.0770872,-0.0145841 -0.0812541,-0.00833375 -0.0861154,-0.00277792 1.30215,-0.00902823 0.00138896,0.0819486 0,0.00416688 -0.00208344,0.0895878 -0.00625031,0.085421 -0.00972271,0.0833375 -0.0131951,0.0791706 -0.017362,0.0763927 -0.0215289,0.0729203 -0.0250013,0.0701424 -0.0284737,0.0659755 -0.0326405,0.0638921 -0.0361129,0.0604197 z "/>
<path fill="rgb(241,240,234)" stroke="rgb(241,240,234)" d="M 1.37162,4.73507 l 0.0673645,-0.0284737 0.0694479,-0.0256957 0.0729203,-0.0215289 0.0750038,-0.017362 0.0784762,-0.0131951 0.0805596,-0.00972271 0.084032,-0.00625031 0.0861154,-0.00138896 0.0215289,0 0.0805596,0.00138896 0.0798651,0.00486135 0.0784762,0.00625031 0.0770872,0.00972271 0.0770872,0.0118061 0.0756982,0.0138896 0.0743093,0.0166675 0.0736148,0.0194454 0.0729203,0.0215289 -1.32507,0.0180565 z "/>
<path fill="rgb(241,240,234)" stroke="rgb(241,240,234)" d="M 5.79337,2.47454 l -0.268763,-0.0986161 0,-1.42507 0.268763,0 0,0.642393 0.00208344,0.0409743 0.0138896,0.0611142 0.0263902,0.0472246 0.0395853,0.0340295 0.0520859,0.0201399 0.0645866,0.00694479 0.438911,0.0034724 -0.0215289,0.0583363 -0.0326405,0.0534749 -0.583363,0.0486135 0,0.50697 z "/>
<path fill="rgb(241,240,234)" stroke="rgb(241,240,234)" d="M 6.04685,2.07244 l -0.0340295,-0.00138896 -0.0687534,-0.00972271 -0.0597252,-0.0208344 -0.0500025,-0.0312516 -0.0409743,-0.0416688 0.583363,-0.0486135 -0.0437522,0.0486135 -0.0402798,0.0326405 -0.0534749,0.031946 -0.0583363,0.0222233 -0.0645866,0.0131951 -0.0694479,0.00486135 z "/>
<path fill="rgb(241,240,234)" stroke="rgb(241,240,234)" d="M 6.4309,1.80715 l -0.438911,-0.0034724 0.0326405,-0.00277792 0.0604197,-0.0187509 0.0513915,-0.0375019 0.0194454,-0.0229178 0.0298626,-0.0555583 0.00972271,-0.0638921 0,-0.651422 0.249318,0 0,0.752121 -0.00208344,0.0402798 -0.0118061,0.0638921 z "/>
<path fill="rgb(241,240,234)" stroke="rgb(241,240,234)" d="M 5.21695,2.45023 l -0.95977,-1.80565 -0.268763,0 0.95977,1.80565 0.268763,0 z "/>
<path fill="rgb(241,240,234)" stroke="rgb(241,240,234)" d="M 2.68002,2.07244 l -0.0430577,-0.00277792 -0.0618087,-0.0118061 -0.0576418,-0.0236123 -0.0548639,-0.033335 -0.0513915,-0.0444467 0.550722,-0.0131951 -0.0472246,0.0465301 -0.0520859,0.0361129 -0.0562528,0.0256957 -0.0611142,0.0152785 -0.0652811,0.00555583 z "/>
<path fill="rgb(241,240,234)" stroke="rgb(241,240,234)" d="M 3.29602,2.07244 l -0.0354184,-0.00138896 -0.0597252,-0.00972271 -0.0590307,-0.017362 -0.0590307,-0.0256957 -0.0597252,-0.034724 -0.0590307,-0.0423632 0.659755,-0.0229178 -0.0437522,0.049308 -0.0388908,0.031946 -0.0534749,0.031946 -0.0583363,0.0229178 -0.0638921,0.0131951 -0.0694479,0.00486135 z "/>
<path fill="rgb(241,240,234)" stroke="rgb(241,240,234)" d="M 2.41125,2.04605 l -0.268763,0 0,-1.09519 0.268763,0 0,0.657672 0.000694479,0.0243068 0.015973,0.0625031 0.033335,0.0534749 0.0111117,0.0111117 0.0527804,0.0326405 0.0652811,0.0111117 1.08964,0.00277792 -0.0229178,0.0583363 -0.033335,0.0534749 -0.659755,0.0229178 -0.00208344,0.00208344 -0.550722,0.0131951 0,0.0895878 z "/>
<path fill="rgb(241,240,234)" stroke="rgb(241,240,234)" d="M 3.68007,1.80645 l -1.08964,-0.00277792 0.64656,0 0.0277792,-0.00138896 0.0625031,-0.017362 0.0472246,-0.0361129 0.0166675,-0.0222233 0.0256957,-0.0562528 0.00833375,-0.068059 0,-0.651422 0.268763,0 0,0.752121 -0.00208344,0.0402798 -0.0118061,0.0631976 z "/>
<path fill="rgb(241,240,234)" stroke="rgb(241,240,234)" d="M 2.59043,1.80367 l 0.0277792,-0.00208344 0.0604197,-0.0180565 0.0534749,-0.0368074 0.0201399,-0.0229178 0.0277792,-0.0548639 0.00902823,-0.06667 0,-0.651422 0.257652,0 0,0.662533 0.00138896,0.0201399 0.017362,0.0597252 0.0381964,0.0534749 0.015973,0.0138896 0.0548639,0.031946 0.0625031,0.0111117 -0.64656,0 z "/>
<path fill="rgb(241,240,234)" stroke="rgb(241,240,234)" d="M 1.34453,2.47454 l -0.268763,-0.0986161 0,-1.42507 0.268763,0 0,0.318766 0.148619,0.203482 -0.148619,0.194454 0,0.806985 z "/>
<path fill="rgb(241,240,234)" stroke="rgb(241,240,234)" d="M 1.9654,2.0398 l -0.331961,0 -0.288903,-0.372241 0.148619,-0.194454 0.214594,-0.522248 0.268763,0 -0.299321,0.741009 0.288209,0.347934 z "/>
<path fill="rgb(187,30,16)" stroke="rgb(187,30,16)" d="M 0.4,0.965685 l -4.44089e-16,-0.265685 0.00114159,-0.0261467 0.00341608,-0.0259477 0.00566458,-0.0255513 0.00786996,-0.0249603 0.0100155,-0.0241794 0.0120847,-0.0232145 0.014062,-0.0220729 0.0159323,-0.0207634 0.0176813,-0.0192958 0.0192958,-0.0176813 0.0207634,-0.0159323 0.0220729,-0.014062 0.0232145,-0.0120847 0.0241794,-0.0100155 0.0249603,-0.00786996 0.0255513,-0.00566458 0.0259477,-0.00341608 0.0261467,-0.00114159 0.265685,0 6.13431,6.13431 0,0.265685 -0.00114159,0.0261467 -0.00341608,0.0259477 -0.00566458,0.0255513 -0.00786996,0.0249603 -0.0100155,0.0241794 -0.0120847,0.0232145 -0.014062,0.0220729 -0.0159323,0.0207634 -0.0176813,0.0192958 -0.0192958,0.0176813 -0.0207634,0.0159323 -0.0220729,0.014062 -0.0232145,0.0120847 -0.0241794,0.0100155 -0.0249603,0.00786996 -0.0255513,0.00566458 -0.0259477,0.00341608 -0.0261467,0.00114159 -0.265685,0 -6.13431,-6.13431 z "/>
</g></g></svg>
