<?xml version="1.0" encoding="UTF-8" standalone="no"?>
<!DOCTYPE svg PUBLIC "-//W3C//DTD SVG 1.1//EN" "http://www.w3.org/Graphics/SVG/1.1/DTD/svg11-flat.dtd"
[

]>
<svg xmlns="http://www.w3.org/2000/svg"  viewBox="-0.0583333 -0.0583333 5.61667 3.61667"><g fill="none" stroke="black" stroke-width="0.0125" transform="translate(0,3.5) scale(1, -1)">
<g id="Output" >
<path fill="rgb(0,125,55)" stroke="rgb(0,125,55)" d="M 1.5,0.625394 l -0.00171239,0.0392201 -0.00512413,0.0389216 -0.00849687,0.0383269 -0.0118049,0.0374405 -0.0150232,0.0362692 -0.0181271,0.0348218 -0.021093,0.0331094 -0.0238984,0.031145 -0.0265219,0.0289436 -0.0289436,0.0265219 -0.031145,0.0238984 -0.0331094,0.021093 -0.0348218,0.0181271 -0.0362692,0.0150232 -0.0374405,0.0118049 -0.0383269,0.00849687 -0.0389216,0.00512413 -0.0392201,0.00171239 -0.0392201,-0.00171239 -0.0389216,-0.00512413 -0.0383269,-0.00849687 -0.0374405,-0.0118049 -0.0362692,-0.0150232 -0.0348218,-0.0181271 -0.0331094,-0.021093 -0.031145,-0.0238984 -0.0289436,-0.0265219 -0.0265219,-0.0289436 -0.0238984,-0.031145 -0.021093,-0.0331094 -0.0181271,-0.0348218 -0.0150232,-0.0362692 -0.0118049,-0.0374405 -0.00849687,-0.0383269 -0.00512413,-0.0389216 -0.00171239,-0.0392201 0.00171239,-0.0392201 0.00512413,-0.0389216 0.00849687,-0.0383269 0.0118049,-0.0374405 0.0150232,-0.0362692 0.0181271,-0.0348218 0.021093,-0.0331094 0.0238984,-0.031145 0.0265219,-0.0289436 0.0289436,-0.0265219 0.031145,-0.0238984 0.0331094,-0.021093 0.0348218,-0.0181271 0.0362692,-0.0150232 0.0374405,-0.0118049 0.0383269,-0.00849687 0.0389216,-0.00512413 0.0392201,-0.00171239 0.0392201,0.00171239 0.0389216,0.00512413 0.0383269,0.00849687 0.0374405,0.0118049 0.0362692,0.0150232 0.0348218,0.0181271 0.0331094,0.021093 0.031145,0.0238984 0.0289436,0.0265219 0.0265219,0.0289436 0.0238984,0.031145 0.021093,0.0331094 0.0181271,0.0348218 0.0150232,0.0362692 0.0118049,0.0374405 0.00849687,0.0383269 0.00512413,0.0389216 0.00171239,0.0392201 z "/>
<path fill="rgb(241,240,234)" stroke="rgb(241,240,234)" d="M 2,0 l 1,0 0,1 -1,0 0,-1 z "/>
<path fill="rgb(241,240,234)" stroke="rgb(241,240,234)" d="M 1,3 l 1,0 0,0.5 -1,0 0,-0.5 z "/>
<path fill="rgb(241,240,234)" stroke="rgb(241,240,234)" d="M 1.88786,2 l -0.887865,0 0,-0.927737 0.0107799,0.0014192 0.0392201,0.00171239 0.0392201,-0.00171239 0.0389216,-0.00512413 0.0383269,-0.00849687 0.0374405,-0.0118049 0.0362692,-0.0150232 0.0348218,-0.0181271 0.0237115,-0.0151059 0.701288,0 0,0.518199 -0.00321481,-0.0062381 -0.0071509,-0.0173854 -0.00563783,-0.0179332 -0.00408344,-0.0183497 -0.00249913,-0.0186317 -0.00089651,-0.0187772 -0.175806,0 0,0.0755745 0.0345046,0.0213673 -0.0197226,0.266169 0.0470137,0.140322 0.0253572,0.075684 z "/>
<path fill="rgb(241,240,234)" stroke="rgb(241,240,234)" d="M 0.801288,1 l 0.0237115,0.0151059 0.0348218,0.0181271 0.0362692,0.0150232 0.0374405,0.0118049 0.0383269,0.00849687 0.0281417,0.00370492 0,0.927737 -1,0 0,-1 0.801288,0 z "/>
<path fill="rgb(241,240,234)" stroke="rgb(241,240,234)" d="M 1.88786,2 l 0.0350263,0.104543 0.00126451,0.00369371 0.00157562,0.0035721 0.00187519,0.00342434 0.00216104,0.00325152 0.00243107,0.0030549 0.0026833,0.00283591 0.00291589,0.00259617 0.00312713,0.00233742 0.00331549,0.00206156 0.00347957,0.00177061 0.00361819,0.0014667 0.00373032,0.00115205 0.00381514,0.00082897 0.00387204,0.000499822 0.00390059,0.000167015 0.033344,0 0,0.862744 -1,0 0,-1 0.887865,0 z "/>
<path fill="rgb(241,240,234)" stroke="rgb(241,240,234)" d="M 5,1 l 0,-0.96326 0.022331,0.00704094 0.0585112,0.0242362 0.0561763,0.0292435 0.0534138,0.0340283 0.0502447,0.0385542 0.0466933,0.0427866 0.0427866,0.0466933 0.0385542,0.0502447 0.0340283,0.0534138 0.0292435,0.0561763 0.0242362,0.0585112 0.0190443,0.0604009 0.0137076,0.0618309 0.0082665,0.0627903 0.00276251,0.0632718 0,0.274037 -0.5,0 z "/>
<path fill="rgb(241,240,234)" stroke="rgb(241,240,234)" d="M 0.801288,1 l -0.801288,0 8.88178e-16,-0.274037 0.00276251,-0.0632718 0.0082665,-0.0627903 0.0137076,-0.0618309 0.0190443,-0.0604009 0.0242362,-0.0585112 0.0292435,-0.0561763 0.0340283,-0.0534138 0.0385542,-0.0502447 0.0427866,-0.0466933 0.0466933,-0.0427866 0.0502447,-0.0385542 0.0534138,-0.0340283 0.0561763,-0.0292435 0.0585112,-0.0242362 0.0604009,-0.0190443 0.0618309,-0.0137076 0.0627903,-0.0082665 0.0632718,-0.00276251 0.274037,0 0,0.178526 -0.0281417,0.00370492 -0.0383269,0.00849687 -0.0374405,0.0118049 -0.0362692,0.0150232 -0.0348218,0.0181271 -0.0331094,0.021093 -0.031145,0.0238984 -0.0289436,0.0265219 -0.0265219,0.0289436 -0.0238984,0.031145 -0.021093,0.0331094 -0.0181271,0.0348218 -0.0150232,0.0362692 -0.0118049,0.0374405 -0.00849687,0.0383269 -0.00512413,0.0389216 -0.00171239,0.0392201 0.00171239,0.0392201 0.00512413,0.0389216 0.00849687,0.0383269 0.0118049,0.0374405 0.0150232,0.0362692 0.0181271,0.0348218 0.021093,0.0331094 0.0238984,0.031145 0.0265219,0.0289436 0.0289436,0.0265219 0.031145,0.0238984 0.00939786,0.0059871 z "/>
<path fill="rgb(241,240,234)" stroke="rgb(241,240,234)" d="M 0,2 l 1,0 0,1 -0.96326,0 -0.0120034,-0.0380699 -0.0137076,-0.0618309 -0.0082665,-0.0627903 -0.00276251,-0.0632718 0,-0.774037 z "/>
<path fill="rgb(241,240,234)" stroke="rgb(241,240,234)" d="M 2,0 l 0,1 -0.701288,0 0.00939786,-0.0059871 0.031145,-0.0238984 0.0289436,-0.0265219 0.0265219,-0.0289436 0.0238984,-0.031145 0.021093,-0.0331094 0.0181271,-0.0348218 0.0150232,-0.0362692 0.0118049,-0.0374405 0.00849687,-0.0383269 0.00512413,-0.0389216 0.00171239,-0.0392201 -0.00171239,-0.0392201 -0.00512413,-0.0389216 -0.00849687,-0.0383269 -0.0118049,-0.0374405 -0.0150232,-0.0362692 -0.0181271,-0.0348218 -0.021093,-0.0331094 -0.0238984,-0.031145 -0.0265219,-0.0289436 -0.0289436,-0.0265219 -0.031145,-0.0238984 -0.0331094,-0.021093 -0.0348218,-0.0181271 -0.0362692,-0.0150232 -0.0374405,-0.0118049 -0.0383269,-0.00849687 -0.0389216,-0.00512413 -0.0392201,-0.00171239 -0.0392201,0.00171239 -0.0107799,0.0014192 0,-0.178526 1,0 z "/>
<path fill="rgb(241,240,234)" stroke="rgb(241,240,234)" d="M 0.03674,3 l 0.96326,0 0,0.5 -0.274037,0 -0.0632718,-0.00276251 -0.0627903,-0.0082665 -0.0618309,-0.0137076 -0.0604009,-0.0190443 -0.0585112,-0.0242362 -0.0561763,-0.0292435 -0.0534138,-0.0340283 -0.0502447,-0.0385542 -0.0466933,-0.0427866 -0.0427866,-0.0466933 -0.0385542,-0.0502447 -0.0340283,-0.0534138 -0.0292435,-0.0561763 -0.0242362,-0.0585112 -0.00704094,-0.022331 z "/>
<path fill="rgb(241,240,234)" stroke="rgb(241,240,234)" d="M 5,3 l 0.46326,0 -0.00704094,0.022331 -0.0242362,0.0585112 -0.0292435,0.0561763 -0.0340283,0.0534138 -0.0385542,0.0502447 -0.0427866,0.0466933 -0.0466933,0.0427866 -0.0502447,0.0385542 -0.0534138,0.0340283 -0.0561763,0.0292435 -0.0585112,0.0242362 -0.022331,0.00704094 0,-0.46326 z "/>
<path fill="rgb(241,240,234)" stroke="rgb(241,240,234)" d="M 5.5,2 l 0,0.774037 -0.00276251,0.0632718 -0.0082665,0.0627903 -0.0137076,0.0618309 -0.0120034,0.0380699 -0.46326,0 0,-1 0.5,0 z "/>
<path fill="rgb(241,240,234)" stroke="rgb(241,240,234)" d="M 2.11214,1.83986 l 0.104269,0 0.00200483,8.7549e-05 0.00198957,0.00026198 0.00195916,0.000434417 0.00191383,0.000603547 0.00185393,0.000768081 0.00177992,0.000926768 0.00169235,0.0010784 0.00159191,0.00122182 0.00147934,0.00135594 0.00135551,0.00147973 0.00122136,0.00159226 0.00107791,0.00169267 0.00092625,0.00178019 0.000767542,0.00185415 0.00060299,0.001914 0.000433848,0.00195928 0.000261402,0.00198964 8.69663e-05,0.00200486 0,0.17745 -8.01895e-05,0.00185168 -0.000239968,0.00183781 -0.00039795,0.00181019 -0.000552952,0.00176901 -0.000703813,0.00171458 -0.000849405,0.00164732 -0.000988637,0.00156772 -0.00112047,0.00147638 -0.0012439,0.00137399 -0.00135803,0.00126131 -0.00146199,0.00113919 -0.001555,0.00100853 -0.00163636,0.000870325 -0.00170548,0.000725602 -0.00176182,0.000575446 -0.00180497,0.000420981 -0.00183461,0.000263364 -0.00185051,0.000103775 -0.00185255,-5.65907e-05 -0.198811,0 -0.00214713,-9.49566e-05 -0.00213037,-0.000284128 -0.00209697,-0.000471082 -0.00204719,-0.000654357 -0.00198144,-0.000832522 -0.00190021,-0.00100419 -0.00180414,-0.00116801 -0.00169399,-0.00132272 -0.00157061,-0.00146709 -0.00143497,-0.00160002 -0.00128812,-0.00172044 -0.00113122,-0.00182744 -0.000965481,-0.00192016 -0.000792205,-0.0019979 -0.000612744,-0.00206003 -0.0352028,-0.118934 -0.0249982,-0.0844572 0.17834,0 z "/>
<path fill="rgb(241,240,234)" stroke="rgb(241,240,234)" d="M 5.5,1 l 0,1 -0.5,0 0,-1 0.5,0 z "/>
<path fill="rgb(241,240,234)" stroke="rgb(241,240,234)" d="M 4,3.5 l 0,-0.5 1,0 0,0.46326 -0.0380699,0.0120034 -0.0618309,0.0137076 -0.0627903,0.0082665 -0.0632718,0.00276251 -0.774037,0 z "/>
<path fill="rgb(241,240,234)" stroke="rgb(241,240,234)" d="M 4,2.29006 l 0.128925,0 0,-0.290063 0.871075,0 0,1 -1,0 0,-0.709937 z "/>
<path fill="rgb(241,240,234)" stroke="rgb(241,240,234)" d="M 4,1.4751 l 0,-0.475104 1,0 0,1 -0.871075,0 0,-0.524896 -0.128925,0 z "/>
<path fill="rgb(241,240,234)" stroke="rgb(241,240,234)" d="M 4,1 l 0,-1 0.774037,8.88178e-16 0.0632718,0.00276251 0.0627903,0.0082665 0.0618309,0.0137076 0.0380699,0.0120034 0,0.96326 -1,0 z "/>
<path fill="rgb(241,240,234)" stroke="rgb(241,240,234)" d="M 3,3.5 l 0,-0.5 1,0 0,0.5 -1,-4.44089e-16 z "/>
<path fill="rgb(241,240,234)" stroke="rgb(241,240,234)" d="M 3,2.29006 l 1,0 0,0.709937 -1,0 0,-0.709937 z "/>
<path fill="rgb(241,240,234)" stroke="rgb(241,240,234)" d="M 3.47429,1.42088 l -0.000650243,-0.014893 -0.00194578,-0.0147797 -0.00322651,-0.0145538 -0.00448268,-0.0142172 -0.00570474,-0.0137725 -0.00688338,-0.0132228 -0.00800963,-0.0125726 -0.00907493,-0.0118267 -0.0100712,-0.0109907 -0.0109907,-0.0100712 -0.0118267,-0.00907493 -0.0125726,-0.00800963 -0.0132228,-0.00688338 -0.0137725,-0.00570474 -0.0142172,-0.00448268 -0.0145538,-0.00322651 -0.0147797,-0.00194578 -0.014893,-0.000650243 -0.014893,0.000650243 -0.0147797,0.00194578 -0.0145538,0.00322651 -0.0142172,0.00448268 -0.0137725,0.00570474 -0.0132228,0.00688338 -0.0125726,0.00800963 -0.0118267,0.00907493 -0.0109907,0.0100712 -0.0100712,0.0109907 -0.00907493,0.0118267 -0.00800963,0.0125726 -0.00688338,0.0132228 -0.00570474,0.0137725 -0.00448268,0.0142172 -0.00322651,0.0145538 -0.00194578,0.0147797 -0.000650243,0.014893 0.000650243,0.014893 0.00194578,0.0147797 0.00322651,0.0145538 0.00448268,0.0142172 0.00570474,0.0137725 0.00688338,0.0132228 0.00800963,0.0125726 0.00907493,0.0118267 0.0100712,0.0109907 0.0109907,0.0100712 0.0118267,0.00907493 0.0125726,0.00800963 0.0132228,0.00688338 0.0137725,0.00570474 0.0142172,0.00448268 0.0145538,0.00322651 0.0147797,0.00194578 0.014893,0.000650243 0.014893,-0.000650243 0.0147797,-0.00194578 0.0145538,-0.00322651 0.0142172,-0.00448268 0.0137725,-0.00570474 0.0132228,-0.00688338 0.0125726,-0.00800963 0.0118267,-0.00907493 0.0109907,-0.0100712 0.0100712,-0.0109907 0.00907493,-0.0118267 0.00800963,-0.0125726 0.00688338,-0.0132228 0.00570474,-0.0137725 0.00448268,-0.0142172 0.00322651,-0.0145538 0.00194578,-0.0147797 0.000650243,-0.014893 z M 3.51586,1.42088 l 0.000650243,0.014893 0.00194578,0.0147797 0.00322651,0.0145538 0.00448268,0.0142172 0.00570474,0.0137725 0.00688338,0.0132228 0.00800963,0.0125726 0.00907493,0.0118267 0.0100712,0.0109907 0.0109907,0.0100712 0.0118267,0.00907493 0.0125726,0.00800963 0.0132228,0.00688338 0.0137725,0.00570474 0.0142172,0.00448268 0.0145538,0.00322651 0.0147797,0.00194578 0.014893,0.000650243 0.014893,-0.000650243 0.0147797,-0.00194578 0.0145538,-0.00322651 0.0142172,-0.00448268 0.0137725,-0.00570474 0.0132228,-0.00688338 0.0125726,-0.00800963 0.0118267,-0.00907493 0.0109907,-0.0100712 0.0100712,-0.0109907 0.00907493,-0.0118267 0.00800963,-0.0125726 0.00688338,-0.0132228 0.00570474,-0.0137725 0.00448268,-0.0142172 0.00322651,-0.0145538 0.00194578,-0.0147797 0.000650243,-0.014893 -0.000650243,-0.014893 -0.00194578,-0.0147797 -0.00322651,-0.0145538 -0.00448268,-0.0142172 -0.00570474,-0.0137725 -0.00688338,-0.0132228 -0.00800963,-0.0125726 -0.00907493,-0.0118267 -0.0100712,-0.0109907 -0.0109907,-0.0100712 -0.0118267,-0.00907493 -0.0125726,-0.00800963 -0.0132228,-0.00688338 -0.0137725,-0.00570474 -0.0142172,-0.00448268 -0.0145538,-0.00322651 -0.0147797,-0.00194578 -0.014893,-0.000650243 -0.014893,0.000650243 -0.0147797,0.00194578 -0.0145538,0.00322651 -0.0142172,0.00448268 -0.0137725,0.00570474 -0.0132228,0.00688338 -0.0125726,0.00800963 -0.0118267,0.00907493 -0.0109907,0.0100712 -0.0100712,0.0109907 -0.00907493,0.0118267 -0.00800963,0.0125726 -0.00688338,0.0132228 -0.00570474,0.0137725 -0.00448268,0.0142172 -0.00322651,0.0145538 -0.00194578,0.0147797 -0.000650243,0.014893 z M 3,1 l 1,0 0,0.475104 -0.101101,0 -0.00560887,0.0184011 -0.00720305,0.0178375 -0.00874159,0.017136 -0.0102126,0.0163022 -0.0116047,0.0153424 -0.0129071,0.0142641 -0.0141098,0.0130756 -0.0152035,0.0117861 -0.0161798,0.0104055 -0.017031,0.00894448 -0.0177507,0.00741439 -0.0183332,0.00582701 -0.018774,0.00419461 -0.0190699,0.0025298 -0.0192183,0.000845443 -0.385906,0 -0.0191353,-0.000904577 -0.018982,-0.00258133 -0.018682,-0.00423815 -0.0182377,-0.00586223 -0.0176525,-0.00744101 -0.0169309,-0.00896232 -0.0160785,-0.0104144 -0.0151019,-0.011786 -0.0140087,-0.0130666 -0.0128072,-0.0142462 -0.0115068,-0.0153157 -0.0101175,-0.016267 -0.00865004,-0.0170925 -0.00711575,-0.0177861 -0.00552649,-0.0183422 -0.0905119,0 0,-0.475104 z "/>
<path fill="rgb(241,240,234)" stroke="rgb(241,240,234)" d="M 3,0 l 1,0 0,1 -1,0 0,-1 z "/>
<path fill="rgb(241,240,234)" stroke="rgb(241,240,234)" d="M 2,3 l 1,0 0,0.5 -1,-4.44089e-16 0,-0.5 z "/>
<path fill="rgb(241,240,234)" stroke="rgb(241,240,234)" d="M 2.33398,2 l 0.0680946,0 0,0.290063 0.597928,0 0,0.709937 -1,0 0,-0.862744 0.298558,0 0.0021715,-0.000330165 0.00213583,-0.000512518 0.00208487,-0.000691204 0.00201899,-0.000864943 0.00193866,-0.00103249 0.00184446,-0.00119265 0.00173705,-0.00134428 0.00161722,-0.00148628 0.00148581,-0.00161765 0.00134377,-0.00173744 0.00119212,-0.0018448 0.00103193,-0.00193896 0.000864356,-0.00201924 0.000690598,-0.00208507 0.000511898,-0.00213598 0.000329534,-0.0021716 0.0124205,-0.114251 z "/>
<path fill="rgb(241,240,234)" stroke="rgb(241,240,234)" d="M 2.36747,1.42088 l -0.000650243,-0.014893 -0.00194578,-0.0147797 -0.00322651,-0.0145538 -0.00448268,-0.0142172 -0.00570474,-0.0137725 -0.00688338,-0.0132228 -0.00800963,-0.0125726 -0.00907493,-0.0118267 -0.0100712,-0.0109907 -0.0109907,-0.0100712 -0.0118267,-0.00907493 -0.0125726,-0.00800963 -0.0132228,-0.00688338 -0.0137725,-0.00570474 -0.0142172,-0.00448268 -0.0145538,-0.00322651 -0.0147797,-0.00194578 -0.014893,-0.000650243 -0.014893,0.000650243 -0.0147797,0.00194578 -0.0145538,0.00322651 -0.0142172,0.00448268 -0.0137725,0.00570474 -0.0132228,0.00688338 -0.0125726,0.00800963 -0.0118267,0.00907493 -0.0109907,0.0100712 -0.0100712,0.0109907 -0.00907493,0.0118267 -0.00800963,0.0125726 -0.00688338,0.0132228 -0.00570474,0.0137725 -0.00448268,0.0142172 -0.00322651,0.0145538 -0.00194578,0.0147797 -0.000650243,0.014893 0.000650243,0.014893 0.00194578,0.0147797 0.00322651,0.0145538 0.00448268,0.0142172 0.00570474,0.0137725 0.00688338,0.0132228 0.00800963,0.0125726 0.00907493,0.0118267 0.0100712,0.0109907 0.0109907,0.0100712 0.0118267,0.00907493 0.0125726,0.00800963 0.0132228,0.00688338 0.0137725,0.00570474 0.0142172,0.00448268 0.0145538,0.00322651 0.0147797,0.00194578 0.014893,0.000650243 0.014893,-0.000650243 0.0147797,-0.00194578 0.0145538,-0.00322651 0.0142172,-0.00448268 0.0137725,-0.00570474 0.0132228,-0.00688338 0.0125726,-0.00800963 0.0118267,-0.00907493 0.0109907,-0.0100712 0.0100712,-0.0109907 0.00907493,-0.0118267 0.00800963,-0.0125726 0.00688338,-0.0132228 0.00570474,-0.0137725 0.00448268,-0.0142172 0.00322651,-0.0145538 0.00194578,-0.0147797 0.000650243,-0.014893 z M 2,1 l 1,0 0,0.475104 -0.591356,0 -0.00575201,0.0186601 -0.00738684,0.0180754 -0.00896327,0.0173477 -0.0104688,0.016483 -0.0118916,0.0154879 -0.0132204,0.0143703 -0.0144446,0.0131391 -0.0155547,0.0118041 -0.0165417,0.0103757 -0.017398,0.00886528 -0.0181167,0.00728477 -0.0186922,0.00564667 -0.0191199,0.00396392 -0.0193965,0.00224984 -0.0195196,0.00051796 -0.0194885,-0.00121801 -0.0193032,-0.00294435 -0.0182658,-0.00444387 -0.0178188,-0.00598975 -0.0172412,-0.00749175 -0.0165373,-0.00893885 -0.0157123,-0.0103204 -0.014772,-0.0116264 -0.0137236,-0.0128472 -0.0125745,-0.0139738 -0.0113334,-0.014998 -0.0100091,-0.0159124 -0.00539676,-0.010472 0,-0.518199 z M 2.40207,2 l -0.0680946,0 0.0204461,-0.188074 0,-0.126506 0.0476485,0 0,0.314579 z "/>
<path fill="rgb(241,240,234)" stroke="rgb(241,240,234)" d="M 1.19895,0.875306 l -0.08738,-0.117831 0,-0.199915 -0.194619,0 0.281999,0 0,0.317745 z "/>
<path fill="rgb(241,240,234)" stroke="rgb(241,240,234)" d="M 1.19895,0.875306 l -0.08738,0 -0.308036,-0.317745 0,-0.0807603 0.308036,0 0,-0.101502 0.08738,0 0,0.101502 0.0741406,0 0,0.0807603 -0.0741406,0 -0.281999,0 0.194619,0.199915 0.08738,0.117831 z "/>
<path fill="rgb(42,41,42)" stroke="rgb(42,41,42)" d="M 5.00484,0.798077 l -0.0247135,-0.00264788 -0.0313332,-0.0123568 -0.0286853,-0.022507 0.0776711,-0.0657556 0.0300093,-0.00573707 0.0269201,-0.0203004 0.0339811,0.103709 -0.015446,0.00970889 -0.0322158,0.0119155 -0.0361877,0.00397182 z "/>
<path fill="rgb(42,41,42)" stroke="rgb(42,41,42)" d="M 4.9201,0.791898 l -0.10768,0 0,-0.438224 0.10768,0 0,0.257285 0.00529576,0.0361877 0.0180938,0.0251548 0.0207417,0.0150046 0.0335398,0.00750232 -0.0776711,0.0657556 0,0.0313332 z "/>
<path fill="rgb(42,41,42)" stroke="rgb(42,41,42)" d="M 4.55028,0.798077 l -0.0150046,-0.000441313 -0.0335398,-0.00661969 -0.0308919,-0.0127981 -0.028244,-0.0194178 -0.0251548,-0.0264788 -0.0180938,-0.0251548 -0.0158873,-0.0304506 -0.0114741,-0.0326572 -0.00661969,-0.0344224 -0.00220656,-0.0370703 0.00220656,-0.0370703 0.00661969,-0.0348637 0.0110328,-0.0326572 0.015446,-0.0304506 0.156225,0.00441313 -0.0220656,0.0035305 -0.029568,0.0194178 -0.0185351,0.0247135 -0.0119155,0.0348637 -0.00441313,0.0145633 0.267436,0 0,0.0317745 -0.000882626,0.0163286 -0.00441313,0.0348637 -0.255962,0.00132394 0.00794363,0.0260375 0.0176525,0.0286853 0.0242722,0.0172112 0.0304506,0.00573707 0.146075,0.00308919 -0.0176525,0.0264788 -0.0114741,0.0132394 -0.0260375,0.0238309 -0.0291267,0.0167699 -0.0317745,0.0101502 -0.0344224,0.0035305 z "/>
<path fill="rgb(42,41,42)" stroke="rgb(42,41,42)" d="M 4.70077,0.704077 l -0.146075,-0.00308919 0.0158873,-0.00132394 0.029568,-0.0145633 0.015446,-0.0229483 0.014122,-0.0388355 -0.155342,0 0.255962,-0.00132394 -0.00970889,0.035305 -0.00441313,0.0127981 -0.015446,0.0339811 z "/>
<path fill="rgb(42,41,42)" stroke="rgb(42,41,42)" d="M 4.62354,0.478125 l -0.00838495,-0.00882626 -0.0300093,-0.0203004 -0.0304506,-0.00706101 -0.156225,-0.00441313 0.0198591,-0.0278027 0.0127981,-0.0145633 0.0273614,-0.022507 0.0291267,-0.0163286 0.0322158,-0.00970889 0.0348637,-0.0035305 0.0198591,0.00132394 0.0330985,0.00661969 0.0304506,0.0136807 0.028244,0.0194178 0.0255962,0.0264788 0.0035305,0.00441313 -0.071934,0.0631078 z "/>
<path fill="rgb(42,41,42)" stroke="rgb(42,41,42)" d="M 4.06749,0.802931 l -0.0317745,-0.00308919 -0.029568,-0.0119155 -0.0273614,-0.0207417 -0.0255962,-0.029568 0.214037,0.0229483 -0.0194178,0.0150046 -0.0242722,0.015446 -0.00970889,0.0035305 -0.0383942,0.00794363 -0.00794363,0.000441313 z "/>
<path fill="rgb(42,41,42)" stroke="rgb(42,41,42)" d="M 4.27314,0.791898 l -0.105915,0 0,-0.0313332 -0.214037,-0.0229483 -0.000882626,-0.00132394 -0.0185351,-0.029568 0.158431,-0.0119155 0.0198591,-0.00264788 0.0286853,-0.015446 0.0264788,-0.028244 0,-0.155783 -0.0176525,-0.0203004 -0.0278027,-0.0203004 -0.029568,-0.00661969 -0.159314,-0.00706101 0.0185351,-0.0286853 0.00529576,-0.00661969 0.210506,-0.0136807 0,-0.0463379 0,-0.00661969 -0.00661969,-0.0255962 -0.0145633,-0.0247135 -0.0229483,-0.0238309 -0.0313332,-0.0233896 -0.0397182,-0.022507 0.0419247,-0.0935584 0.0105915,0.0035305 0.0335398,0.014122 0.0317745,0.0167699 0.0255962,0.0172112 0.0035305,0.00308919 0.0242722,0.0233896 0.0220656,0.0313332 0.00926757,0.0176525 0.0101502,0.0304506 0.00617838,0.0357464 0.00220656,0.0419247 0,0.433811 z "/>
<path fill="rgb(42,41,42)" stroke="rgb(42,41,42)" d="M 3.93377,0.706725 l -0.0145633,-0.0313332 -0.0101502,-0.0330985 -0.00617838,-0.0348637 -0.00220656,-0.036629 0.00176525,-0.0326572 0.00573707,-0.035305 0.0101502,-0.0335398 0.0145633,-0.0308919 0.159314,0.00706101 -0.00529576,0.000441313 -0.0308919,0.0101502 -0.0251548,0.0255962 -0.00926757,0.0176525 -0.0101502,0.0326572 -0.00308919,0.0388355 0.00132394,0.0251548 0.00750232,0.0348637 0.0136807,0.0291267 0.00308919,0.00441313 0.0260375,0.0229483 0.0322158,0.00750232 -0.158431,0.0119155 z "/>
<path fill="rgb(42,41,42)" stroke="rgb(42,41,42)" d="M 3.95672,0.403102 l 0.0255962,-0.0269201 0.028244,-0.0189765 0.0304506,-0.0110328 0.0326572,-0.00308919 0.00308919,0.000441313 0.0326572,0.00573707 0.0300093,0.015446 0.0278027,0.0247135 -0.210506,0.0136807 z "/>
<path fill="rgb(42,41,42)" stroke="rgb(42,41,42)" d="M 3.63765,0.80249 l -0.0189765,-0.000882626 -0.0330985,-0.00706101 -0.0304506,-0.0132394 -0.028244,-0.0198591 -0.0255962,-0.0264788 -0.0194178,-0.0273614 -0.015446,-0.0300093 -0.0110328,-0.0326572 -0.00661969,-0.035305 -0.00220656,-0.0370703 0.00176525,-0.0357464 0.00661969,-0.0348637 0.0110328,-0.0326572 0.015446,-0.0304506 0.156225,0.0101502 -0.00485444,0.000441313 -0.0308919,0.00970889 -0.0251548,0.0247135 -0.00970889,0.0172112 -0.00970889,0.0326572 -0.0035305,0.0388355 0.00132394,0.0233896 0.00750232,0.0348637 0.014122,0.0291267 0.00308919,0.00441313 0.0255962,0.0229483 0.0322158,0.00750232 0.155783,0.0123568 -0.0203004,0.0278027 -0.0127981,0.014122 -0.0273614,0.0233896 -0.029568,0.0167699 -0.0317745,0.00970889 -0.0339811,0.0035305 z "/>
<path fill="rgb(42,41,42)" stroke="rgb(42,41,42)" d="M 3.79343,0.707166 l -0.155783,-0.0123568 0.00308919,0 0.0313332,-0.00926757 0.0251548,-0.0247135 0.00882626,-0.0167699 0.00970889,-0.0326572 0.00308919,-0.0388355 -0.000882626,-0.0238309 -0.00706101,-0.0348637 -0.0136807,-0.0300093 -0.00220656,-0.00308919 -0.0251548,-0.0238309 -0.0322158,-0.00794363 -0.156225,-0.0101502 0.0198591,-0.028244 0.0136807,-0.0150046 0.0269201,-0.0229483 0.0291267,-0.0163286 0.0322158,-0.00970889 0.0344224,-0.0035305 0.0176525,0.000882626 0.0326572,0.00661969 0.0304506,0.0136807 0.0286853,0.0198591 0.0260375,0.0264788 0.0198591,0.0273614 0.0158873,0.0300093 0.0110328,0.0322158 0.00706101,0.0348637 0.00220656,0.0375116 -0.00220656,0.0370703 -0.00661969,0.0348637 -0.0114741,0.0326572 -0.015446,0.0300093 z "/>
<path fill="rgb(42,41,42)" stroke="rgb(42,41,42)" d="M 3.10189,0.963128 l -0.107239,-0.0392769 0,-0.570176 0.107239,0 0,0.257285 0,0.00441313 0.00573707,0.0348637 0.015446,0.0247135 0.0242722,0.0150046 0.0339811,0.00485444 0.173436,0.00838495 -0.0145633,0.0304506 -0.238309,0.0269201 0,0.202563 z "/>
<path fill="rgb(42,41,42)" stroke="rgb(42,41,42)" d="M 3.2034,0.80249 l -0.0119155,-0.000441313 -0.036629,-0.00617838 -0.029568,-0.0136807 -0.0233896,-0.0216243 0.238309,-0.0269201 -0.022507,0.0269201 -0.0145633,0.0123568 -0.029568,0.0163286 -0.0330985,0.00970889 -0.0370703,0.0035305 z "/>
<path fill="rgb(42,41,42)" stroke="rgb(42,41,42)" d="M 3.35477,0.703194 l -0.173436,-0.00838495 0.0291267,-0.00485444 0.0286853,-0.0185351 0.0163286,-0.0233896 0.00750232,-0.0335398 0,-0.260816 0.0992954,0 0,0.300975 -0.000441313,0.0145633 -0.00706101,0.0339811 z "/>
<path fill="rgb(42,41,42)" stroke="rgb(42,41,42)" d="M 2.49641,0.799842 l -0.0123568,-0.000441313 -0.035305,-0.00661969 -0.0300093,-0.0145633 -0.0255962,-0.0220656 0.241398,-0.0216243 -0.0229483,0.0260375 -0.0145633,0.0110328 -0.0291267,0.0158873 -0.0339811,0.00926757 -0.0375116,0.00308919 z "/>
<path fill="rgb(42,41,42)" stroke="rgb(42,41,42)" d="M 2.39314,0.791898 l -0.107239,0 0,-0.438224 0.107239,0 0,0.263464 0.00441313,0.0264788 0.0185351,0.0300093 0.021183,0.0172112 0.0335398,0.00750232 0.178732,0.00573707 -0.0150046,0.0304506 -0.241398,0.0216243 0,0.0357464 z "/>
<path fill="rgb(42,41,42)" stroke="rgb(42,41,42)" d="M 2.64955,0.704077 l -0.178732,-0.00573707 0.029568,-0.00441313 0.028244,-0.0176525 0.0163286,-0.0238309 0.00661969,-0.035305 0,-0.263464 0.104591,0 0,0.305389 -0.000441313,0.0105915 -0.00617838,0.0344224 z "/>
<path fill="rgb(42,41,42)" stroke="rgb(42,41,42)" d="M 2.02332,0.798077 l -0.0150046,-0.000441313 -0.0335398,-0.00661969 -0.0304506,-0.0127981 -0.028244,-0.0194178 -0.0255962,-0.0264788 -0.0180938,-0.0251548 -0.015446,-0.0304506 -0.0114741,-0.0326572 -0.00661969,-0.0344224 -0.00220656,-0.0370703 0.00176525,-0.0370703 0.00661969,-0.0348637 0.0110328,-0.0326572 0.015446,-0.0304506 0.156225,0.00441313 -0.0216243,0.0035305 -0.0300093,0.0194178 -0.0180938,0.0247135 -0.0123568,0.0348637 -0.00441313,0.0145633 0.267436,0 0,0.0317745 -0.000441313,0.0163286 -0.00485444,0.0348637 -0.255962,0.00132394 0.00838495,0.0260375 0.0176525,0.0286853 0.0238309,0.0172112 0.0304506,0.00573707 0.146075,0.00308919 -0.0176525,0.0264788 -0.0110328,0.0132394 -0.0260375,0.0238309 -0.0291267,0.0167699 -0.0317745,0.0101502 -0.0348637,0.0035305 z "/>
<path fill="rgb(42,41,42)" stroke="rgb(42,41,42)" d="M 2.17381,0.704077 l -0.146075,-0.00308919 0.0163286,-0.00132394 0.0291267,-0.0145633 0.015446,-0.0229483 0.0145633,-0.0388355 -0.155783,0 0.255962,-0.00132394 -0.00926757,0.035305 -0.00485444,0.0127981 -0.015446,0.0339811 z "/>
<path fill="rgb(42,41,42)" stroke="rgb(42,41,42)" d="M 2.09702,0.478125 l -0.00882626,-0.00882626 -0.029568,-0.0203004 -0.0308919,-0.00706101 -0.156225,-0.00441313 0.0198591,-0.0278027 0.0132394,-0.0145633 0.0269201,-0.022507 0.029568,-0.0163286 0.0322158,-0.00970889 0.0344224,-0.0035305 0.0198591,0.00132394 0.0335398,0.00661969 0.0304506,0.0136807 0.028244,0.0194178 0.0251548,0.0264788 0.0035305,0.00441313 -0.0714927,0.0631078 z "/>
<path fill="rgb(42,41,42)" stroke="rgb(42,41,42)" d="M 4.60501,3.04613 l -0.0123568,-0.000441313 -0.0348637,-0.00617838 -0.0304506,-0.0145633 -0.0255962,-0.022507 0.241398,-0.0216243 -0.0229483,0.0260375 -0.0145633,0.0114741 -0.0291267,0.015446 -0.0335398,0.00926757 -0.0379529,0.00308919 z "/>
<path fill="rgb(42,41,42)" stroke="rgb(42,41,42)" d="M 4.50174,3.03862 l -0.107239,0 0,-0.438224 0.107239,0 0,0.263023 0.00441313,0.0264788 0.0185351,0.0304506 0.021183,0.0167699 0.0335398,0.00794363 0.178732,0.00573707 -0.0150046,0.0300093 -0.241398,0.0216243 0,0.0361877 z "/>
<path fill="rgb(42,41,42)" stroke="rgb(42,41,42)" d="M 4.75814,2.9508 l -0.178732,-0.00573707 0.029568,-0.00441313 0.028244,-0.0176525 0.0163286,-0.0242722 0.00661969,-0.035305 0,-0.263023 0.104591,0 0,0.304947 0,0.0110328 -0.00661969,0.0344224 z "/>
<path fill="rgb(42,41,42)" stroke="rgb(42,41,42)" d="M 4.12,3.04877 l -0.0242722,-0.000882626 -0.0330985,-0.00485444 -0.0339811,-0.00882626 -0.0339811,-0.0127981 -0.0348637,-0.0172112 0.0445726,-0.0926757 0.00882626,0.00529576 0.0322158,0.015446 0.0335398,0.00926757 0.0348637,0.0035305 0.161521,0.022507 -0.015446,0.0247135 -0.0194178,0.0203004 -0.0233896,0.0158873 -0.028244,0.0114741 -0.0322158,0.00661969 -0.036629,0.00220656 z "/>
<path fill="rgb(42,41,42)" stroke="rgb(42,41,42)" d="M 4.27534,2.96757 l -0.161521,-0.022507 0.0238309,-0.00264788 0.028244,-0.0123568 0.0185351,-0.0229483 0.00882626,-0.0339811 -0.187117,-0.000441313 -0.0278027,-0.015446 -0.0180938,-0.015446 -0.0185351,-0.0269201 0.158873,-0.0150046 0.0220656,-0.00132394 0.0344224,-0.00661969 0.0361877,-0.0123568 0,-0.0675209 -0.0300093,-0.0114741 -0.0348637,-0.00970889 -0.0304506,-0.00308919 -0.160197,-0.00794363 0.015446,-0.0286853 0.022507,-0.0238309 0.00882626,-0.00661969 0.208741,-0.00132394 0,-0.0189765 0.101502,0 0,0.264788 0,0.000882626 -0.00220656,0.0383942 -0.00661969,0.0335398 -0.0105915,0.029568 z "/>
<path fill="rgb(42,41,42)" stroke="rgb(42,41,42)" d="M 4.09529,2.88902 l -0.0198591,-0.000882626 -0.036629,-0.00485444 -0.0326572,-0.0105915 0.187117,0.000441313 -0.0269201,0.00750232 -0.0348637,0.00617838 -0.0361877,0.00220656 z "/>
<path fill="rgb(42,41,42)" stroke="rgb(42,41,42)" d="M 3.94171,2.81488 l -0.0110328,-0.0322158 -0.00397182,-0.0370703 0.00220656,-0.0313332 0.00882626,-0.0344224 0.160197,0.00794363 -0.0255962,0.00264788 -0.0291267,0.0150046 -0.00882626,0.00882626 -0.0114741,0.0313332 0.00132394,0.0105915 0.0194178,0.0278027 0.0198591,0.0101502 0.0370703,0.00573707 -0.158873,0.0150046 z "/>
<path fill="rgb(42,41,42)" stroke="rgb(42,41,42)" d="M 3.98452,2.6207 l 0.0291267,-0.0158873 0.0335398,-0.00926757 0.0379529,-0.00308919 0.00661969,0 0.0357464,0.0035305 0.0339811,0.00926757 0.0317745,0.014122 -0.208741,0.00132394 z "/>
<path fill="rgb(42,41,42)" stroke="rgb(42,41,42)" d="M 3.67692,3.04877 l -0.0242722,-0.000882626 -0.0330985,-0.00485444 -0.0339811,-0.00882626 -0.0339811,-0.0127981 -0.0348637,-0.0172112 0.0445726,-0.0926757 0.00882626,0.00529576 0.0322158,0.015446 0.0335398,0.00926757 0.0348637,0.0035305 0.161079,0.022507 -0.0150046,0.0247135 -0.0194178,0.0203004 -0.0238309,0.0158873 -0.0278027,0.0114741 -0.0322158,0.00661969 -0.036629,0.00220656 z "/>
<path fill="rgb(42,41,42)" stroke="rgb(42,41,42)" d="M 3.83183,2.96757 l -0.161079,-0.022507 0.0238309,-0.00264788 0.028244,-0.0123568 0.0185351,-0.0229483 0.00882626,-0.0339811 -0.187117,-0.000441313 -0.0278027,-0.015446 -0.0180938,-0.015446 -0.0185351,-0.0269201 0.158873,-0.0150046 0.0220656,-0.00132394 0.0344224,-0.00661969 0.0361877,-0.0123568 0,-0.0675209 -0.0300093,-0.0114741 -0.0348637,-0.00970889 -0.0304506,-0.00308919 -0.160197,-0.00794363 0.015446,-0.0286853 0.022507,-0.0238309 0.00882626,-0.00661969 0.208741,-0.00132394 0,-0.0189765 0.101502,0 0,0.264788 0,0.000882626 -0.00220656,0.0383942 -0.00661969,0.0335398 -0.0110328,0.029568 z "/>
<path fill="rgb(42,41,42)" stroke="rgb(42,41,42)" d="M 3.65221,2.88902 l -0.0198591,-0.000882626 -0.0370703,-0.00485444 -0.0322158,-0.0105915 0.187117,0.000441313 -0.0269201,0.00750232 -0.0348637,0.00617838 -0.0361877,0.00220656 z "/>
<path fill="rgb(42,41,42)" stroke="rgb(42,41,42)" d="M 3.49863,2.81488 l -0.0110328,-0.0322158 -0.00397182,-0.0370703 0.00220656,-0.0313332 0.00882626,-0.0344224 0.160197,0.00794363 -0.0255962,0.00264788 -0.029568,0.0150046 -0.00882626,0.00882626 -0.0110328,0.0313332 0.00132394,0.0105915 0.0194178,0.0278027 0.0198591,0.0101502 0.0370703,0.00573707 -0.158873,0.0150046 z "/>
<path fill="rgb(42,41,42)" stroke="rgb(42,41,42)" d="M 3.54144,2.6207 l 0.0291267,-0.0158873 0.0335398,-0.00926757 0.0375116,-0.00308919 0.00706101,0 0.0357464,0.0035305 0.0339811,0.00926757 0.0317745,0.014122 -0.208741,0.00132394 z "/>
<path fill="rgb(42,41,42)" stroke="rgb(42,41,42)" d="M 3.35168,3.20985 l -0.109446,-0.0392769 0,-0.1346 -0.0714927,0 0,-0.100619 0.0714927,0 0,-0.210948 0.00308919,-0.0379529 0.15446,0.0110328 -0.0242722,0.00573707 -0.0180938,0.021183 -0.00573707,0.0375116 0,0.173436 0.0900279,0 0,0.100619 -0.0900279,0 0,0.173877 z "/>
<path fill="rgb(42,41,42)" stroke="rgb(42,41,42)" d="M 3.44877,2.71999 l -0.0180938,-0.0132394 -0.0308919,-0.00926757 -0.15446,-0.0110328 0.00970889,-0.0330985 0.0163286,-0.0278027 0.0150046,-0.0150046 0.0291267,-0.015446 0.0361877,-0.00529576 0.0114741,0.000441313 0.0330985,0.00706101 0.0348637,0.0150046 0.0176525,0.10768 z "/>
<path fill="rgb(42,41,42)" stroke="rgb(42,41,42)" d="M 2.96111,3.04613 l -0.0273614,-0.000882626 -0.036629,-0.00573707 -0.0322158,-0.0101502 -0.0273614,-0.015446 -0.000882626,-0.000882626 -0.0251548,-0.0242722 -0.0150046,-0.029568 0.167258,-0.0158873 0.0278027,-0.00176525 0.0339811,-0.00661969 0.0335398,-0.0114741 0.0330985,-0.0163286 0.0392769,0.0953236 -0.0335398,0.0158873 -0.0335398,0.0123568 -0.0344224,0.00882626 -0.0339811,0.00485444 -0.0348637,0.00176525 z "/>
<path fill="rgb(42,41,42)" stroke="rgb(42,41,42)" d="M 2.7965,2.95919 l -0.00485444,-0.0344224 0,-0.00882626 0.00706101,-0.0335398 0.0158873,-0.029568 0.0247135,-0.0251548 0.0189765,-0.0123568 0.0286853,-0.0136807 0.0357464,-0.0136807 0.04369,-0.0127981 0.0216243,-0.00617838 0.0255962,-0.00794363 0.0136807,-0.00794363 0.014122,-0.0269201 -0.00617838,-0.0150046 -0.0260375,-0.0114741 -0.0454552,-0.00397182 0.177849,-0.00970889 0.00485444,0.0357464 -0.000882626,0.0158873 -0.00617838,0.0278027 -0.0123568,0.0247135 -0.0185351,0.0220656 -0.0242722,0.0189765 -0.0308919,0.0163286 -0.036629,0.0132394 -0.0428074,0.0105915 -0.0344224,0.00794363 -0.0264788,0.00970889 -0.0150046,0.0242722 0.00220656,0.00970889 0.0207417,0.0150046 0.0428074,0.00529576 -0.167258,0.0158873 z "/>
<path fill="rgb(42,41,42)" stroke="rgb(42,41,42)" d="M 2.82034,2.72617 l -0.0392769,-0.094441 0.0123568,-0.00573707 0.0313332,-0.0123568 0.0326572,-0.00926757 0.035305,-0.00661969 0.036629,-0.00397182 0.0388355,-0.00132394 0.0375116,0.00176525 0.036629,0.00617838 0.0313332,0.0110328 0.0264788,0.0150046 0.00529576,0.00441313 0.0229483,0.0247135 0.0132394,0.0304506 -0.177849,0.00970889 -0.0114741,0.000441313 -0.0330985,0.00397182 -0.0392769,0.00926757 -0.0273614,0.00750232 -0.0322158,0.00926757 z "/>
<path fill="rgb(42,41,42)" stroke="rgb(42,41,42)" d="M 2.54937,3.04436 l -0.0150046,-0.000441313 -0.0335398,-0.00617838 -0.0308919,-0.0127981 -0.0278027,-0.0198591 -0.0255962,-0.0260375 -0.0180938,-0.0255962 -0.0158873,-0.0300093 -0.0110328,-0.0326572 -0.00706101,-0.0348637 -0.00220656,-0.0370703 0.00220656,-0.036629 0.00661969,-0.035305 0.0110328,-0.0326572 0.015446,-0.0300093 0.156225,0.00441313 -0.0220656,0.0035305 -0.029568,0.0189765 -0.0185351,0.0251548 -0.0119155,0.0344224 -0.00441313,0.0150046 0.267436,0 0,0.0313332 -0.000441313,0.0163286 -0.00485444,0.0348637 -0.255962,0.00132394 0.00794363,0.0260375 0.0176525,0.0286853 0.0242722,0.0172112 0.0304506,0.00573707 0.146075,0.0035305 -0.0176525,0.0264788 -0.0110328,0.0132394 -0.0264788,0.0238309 -0.0291267,0.0167699 -0.0317745,0.0101502 -0.0344224,0.00308919 z "/>
<path fill="rgb(42,41,42)" stroke="rgb(42,41,42)" d="M 2.69986,2.9508 l -0.146075,-0.0035305 0.0158873,-0.00132394 0.029568,-0.014122 0.015446,-0.0233896 0.014122,-0.0388355 -0.155342,0 0.255962,-0.00132394 -0.00970889,0.035305 -0.00441313,0.0127981 -0.015446,0.0344224 z "/>
<path fill="rgb(42,41,42)" stroke="rgb(42,41,42)" d="M 2.62263,2.72441 l -0.00838495,-0.00882626 -0.0300093,-0.0203004 -0.0304506,-0.00661969 -0.156225,-0.00441313 0.0198591,-0.0278027 0.0132394,-0.0145633 0.0269201,-0.0229483 0.029568,-0.0163286 0.0317745,-0.00970889 0.0348637,-0.00308919 0.0198591,0.000882626 0.0330985,0.00706101 0.0308919,0.0132394 0.0278027,0.0198591 0.0255962,0.0264788 0.0035305,0.00397182 -0.071934,0.0631078 z "/>
<path fill="rgb(42,41,42)" stroke="rgb(42,41,42)" d="M 2.06657,3.04966 l -0.0317745,-0.0035305 -0.029568,-0.0119155 -0.0273614,-0.0207417 -0.0255962,-0.0291267 0.214478,0.022507 -0.0198591,0.0150046 -0.0238309,0.0158873 -0.0101502,0.0035305 -0.0379529,0.00750232 -0.00838495,0.000882626 z "/>
<path fill="rgb(42,41,42)" stroke="rgb(42,41,42)" d="M 2.27223,3.03862 l -0.105474,0 0,-0.0317745 -0.214478,-0.022507 -0.000882626,-0.00132394 -0.0185351,-0.0300093 0.158431,-0.0114741 0.0198591,-0.00308919 0.0286853,-0.0150046 0.0269201,-0.028244 0,-0.155783 -0.0180938,-0.0207417 -0.0278027,-0.0198591 -0.029568,-0.00661969 -0.159314,-0.00706101 0.0185351,-0.0286853 0.00529576,-0.00661969 0.210948,-0.0136807 0,-0.0463379 -0.000441313,-0.00706101 -0.00661969,-0.0251548 -0.0145633,-0.0247135 -0.0229483,-0.0238309 -0.0313332,-0.0233896 -0.0397182,-0.022507 0.0419247,-0.0935584 0.0105915,0.00308919 0.0335398,0.0145633 0.0317745,0.0163286 0.0255962,0.0172112 0.0035305,0.00308919 0.0242722,0.0238309 0.0220656,0.0308919 0.00926757,0.0176525 0.0105915,0.0304506 0.00573707,0.0361877 0.00220656,0.0419247 0,0.433811 z "/>
<path fill="rgb(42,41,42)" stroke="rgb(42,41,42)" d="M 1.93286,2.95301 l -0.014122,-0.0313332 -0.0105915,-0.0330985 -0.00617838,-0.0348637 -0.00220656,-0.036629 0.00176525,-0.0326572 0.00573707,-0.035305 0.0101502,-0.0330985 0.0145633,-0.0308919 0.159314,0.00706101 -0.00529576,0 -0.0308919,0.0101502 -0.0247135,0.0255962 -0.00970889,0.0176525 -0.0101502,0.0326572 -0.00308919,0.0388355 0.00132394,0.0255962 0.00750232,0.0348637 0.014122,0.0286853 0.00308919,0.00441313 0.0255962,0.0229483 0.0322158,0.00794363 -0.158431,0.0114741 z "/>
<path fill="rgb(42,41,42)" stroke="rgb(42,41,42)" d="M 1.9558,2.64983 l 0.0255962,-0.0269201 0.028244,-0.0189765 0.0304506,-0.0110328 0.0330985,-0.00308919 0.00264788,0 0.0326572,0.00617838 0.0300093,0.015446 0.028244,0.0247135 -0.210948,0.0136807 z "/>
<path fill="rgb(42,41,42)" stroke="rgb(42,41,42)" d="M 1.65615,3.04436 l -0.0150046,-0.000441313 -0.0335398,-0.00617838 -0.0308919,-0.0127981 -0.0278027,-0.0198591 -0.0255962,-0.0260375 -0.0180938,-0.0255962 -0.0158873,-0.0300093 -0.0110328,-0.0326572 -0.00706101,-0.0348637 -0.00220656,-0.0370703 0.00220656,-0.036629 0.00661969,-0.035305 0.0110328,-0.0326572 0.015446,-0.0300093 0.156225,0.00441313 -0.0220656,0.0035305 -0.029568,0.0189765 -0.0185351,0.0251548 -0.0119155,0.0344224 -0.00441313,0.0150046 0.267436,0 0,0.0313332 -0.000441313,0.0163286 -0.00485444,0.0348637 -0.255962,0.00132394 0.00794363,0.0260375 0.0176525,0.0286853 0.0242722,0.0172112 0.0304506,0.00573707 0.146075,0.0035305 -0.0176525,0.0264788 -0.0110328,0.0132394 -0.0264788,0.0238309 -0.0291267,0.0167699 -0.0317745,0.0101502 -0.0344224,0.00308919 z "/>
<path fill="rgb(42,41,42)" stroke="rgb(42,41,42)" d="M 1.80664,2.9508 l -0.146075,-0.0035305 0.0158873,-0.00132394 0.029568,-0.014122 0.015446,-0.0233896 0.014122,-0.0388355 -0.155342,0 0.255962,-0.00132394 -0.00970889,0.035305 -0.00441313,0.0127981 -0.015446,0.0344224 z "/>
<path fill="rgb(42,41,42)" stroke="rgb(42,41,42)" d="M 1.72941,2.72441 l -0.00838495,-0.00882626 -0.0300093,-0.0203004 -0.0304506,-0.00661969 -0.156225,-0.00441313 0.0198591,-0.0278027 0.0132394,-0.0145633 0.0269201,-0.0229483 0.029568,-0.0163286 0.0317745,-0.00970889 0.0348637,-0.00308919 0.0198591,0.000882626 0.0330985,0.00706101 0.0308919,0.0132394 0.0278027,0.0198591 0.0255962,0.0264788 0.0035305,0.00397182 -0.071934,0.0631078 z "/>
<path fill="rgb(42,41,42)" stroke="rgb(42,41,42)" d="M 1.20601,3.04877 l -0.0189765,-0.000882626 -0.0330985,-0.00661969 -0.0304506,-0.0132394 -0.028244,-0.0198591 -0.0255962,-0.0264788 -0.0194178,-0.0273614 -0.0158873,-0.0304506 -0.0110328,-0.0326572 -0.00661969,-0.0348637 -0.00220656,-0.0375116 0.00220656,-0.035305 0.00661969,-0.0348637 0.0110328,-0.0326572 0.015446,-0.0304506 0.156225,0.0101502 -0.00485444,0 -0.0313332,0.00970889 -0.0251548,0.0251548 -0.00926757,0.0172112 -0.0101502,0.0326572 -0.00308919,0.0383942 0.00132394,0.0233896 0.00706101,0.0348637 0.014122,0.0291267 0.00308919,0.00441313 0.0260375,0.0229483 0.0322158,0.00794363 0.155783,0.0123568 -0.0203004,0.0278027 -0.0127981,0.014122 -0.0278027,0.0233896 -0.0291267,0.0163286 -0.0317745,0.0101502 -0.0339811,0.00308919 z "/>
<path fill="rgb(42,41,42)" stroke="rgb(42,41,42)" d="M 1.3618,2.95389 l -0.155783,-0.0123568 0.00264788,-0.000441313 0.0317745,-0.00882626 0.0251548,-0.0251548 0.00882626,-0.0163286 0.00970889,-0.0326572 0.00308919,-0.0392769 -0.000882626,-0.0238309 -0.00750232,-0.0348637 -0.0132394,-0.029568 -0.00220656,-0.0035305 -0.0251548,-0.0233896 -0.0322158,-0.00794363 -0.156225,-0.0101502 0.0198591,-0.028244 0.0136807,-0.015446 0.0269201,-0.022507 0.0291267,-0.0163286 0.0322158,-0.0101502 0.0344224,-0.00308919 0.0172112,0.000882626 0.0330985,0.00661969 0.0304506,0.0132394 0.028244,0.0198591 0.0264788,0.0269201 0.0198591,0.0269201 0.0158873,0.0300093 0.0110328,0.0326572 0.00706101,0.0348637 0.00220656,0.0370703 -0.00220656,0.0375116 -0.00706101,0.0348637 -0.0110328,0.0322158 -0.015446,0.0304506 z "/>
<path fill="rgb(42,41,42)" stroke="rgb(42,41,42)" d="M 0.876352,3.20985 l -0.109004,-0.0392769 0,-0.1346 -0.071934,0 0,-0.100619 0.071934,0 0,-0.210948 0.00308919,-0.0379529 0.154018,0.0110328 -0.0242722,0.00573707 -0.0176525,0.021183 -0.00617838,0.0375116 0,0.173436 0.0900279,0 0,0.100619 -0.0900279,0 0,0.173877 z "/>
<path fill="rgb(42,41,42)" stroke="rgb(42,41,42)" d="M 0.973441,2.71999 l -0.0180938,-0.0132394 -0.0308919,-0.00926757 -0.154018,-0.0110328 0.00970889,-0.0330985 0.0158873,-0.0278027 0.0150046,-0.0150046 0.0291267,-0.015446 0.0361877,-0.00529576 0.0114741,0.000441313 0.0335398,0.00706101 0.0348637,0.0150046 0.0172112,0.10768 z "/>
<path fill="rgb(42,41,42)" stroke="rgb(42,41,42)" d="M 2.11214,1.83986 l 0.0412489,-0.204646 0.0193032,0.00294435 0.0194885,0.00121801 0.0195196,-0.00051796 0.0193965,-0.00224984 0.0191199,-0.00396392 0.0186922,-0.00564667 0.0181167,-0.00728477 0.017398,-0.00886528 0.0165417,-0.0103757 0.0155547,-0.0118041 0.0144446,-0.0131391 0.0132204,-0.0143703 0.0118916,-0.0154879 0.0104688,-0.016483 0.00896327,-0.0173477 0.00738684,-0.0180754 0.00575201,-0.0186601 0.681868,0 0.00552649,0.0183422 0.00711575,0.0177861 0.00865004,0.0170925 0.0101175,0.016267 0.0115068,0.0153157 0.0128072,0.0142462 0.0140087,0.0130666 0.0151019,0.011786 0.0160785,0.0104144 0.0169309,0.00896232 0.0176525,0.00744101 0.0182377,0.00586223 0.018682,0.00423815 0.018982,0.00258133 0.0191353,0.000904577 0.385906,0 0.0192183,-0.000845443 0.0190699,-0.0025298 0.018774,-0.00419461 0.0183332,-0.00582701 0.0177507,-0.00741439 0.017031,-0.00894448 0.0161798,-0.0104055 0.0152035,-0.0117861 0.0141098,-0.0130756 0.0129071,-0.0142641 0.0116047,-0.0153424 0.0102126,-0.0163022 0.00874159,-0.017136 0.00720305,-0.0178375 0.00560887,-0.0184011 0.230026,0 0,0.814959 -1.72685,0 0,-0.604642 -0.0476485,0 0,0.126506 -0.0328666,0.302325 -0.000329534,0.0021716 -0.000511898,0.00213598 -0.000690598,0.00208507 -0.000864356,0.00201924 -0.00103193,0.00193896 -0.00119212,0.0018448 -0.00134377,0.00173744 -0.00148581,0.00161765 -0.00161722,0.00148628 -0.00173705,0.00134428 -0.00184446,0.00119265 -0.00193866,0.00103249 -0.00201899,0.000864943 -0.00208487,0.000691204 -0.00213583,0.000512518 -0.0021715,0.000330165 -0.331902,0 -0.00390059,-0.000167015 -0.00387204,-0.000499822 -0.00381514,-0.00082897 -0.00373032,-0.00115205 -0.00361819,-0.0014667 -0.00347957,-0.00177061 -0.00331549,-0.00206156 -0.00312713,-0.00233742 -0.00291589,-0.00259617 -0.0026833,-0.00283591 -0.00243107,-0.0030549 -0.00216104,-0.00325152 -0.00187519,-0.00342434 -0.00157562,-0.0035721 -0.00126451,-0.00369371 -0.0603835,-0.180227 0.0962868,0 0.0352028,0.118934 0.000612744,0.00206003 0.000792205,0.0019979 0.000965481,0.00192016 0.00113122,0.00182744 0.00128812,0.00172044 0.00143497,0.00160002 0.00157061,0.00146709 0.00169399,0.00132272 0.00180414,0.00116801 0.00190021,0.00100419 0.00198144,0.000832522 0.00204719,0.000654357 0.00209697,0.000471082 0.00213037,0.000284128 0.00214713,9.49566e-05 0.198811,0 0.00185255,5.65907e-05 0.00185051,-0.000103775 0.00183461,-0.000263364 0.00180497,-0.000420981 0.00176182,-0.000575446 0.00170548,-0.000725602 0.00163636,-0.000870325 0.001555,-0.00100853 0.00146199,-0.00113919 0.00135803,-0.00126131 0.0012439,-0.00137399 0.00112047,-0.00147638 0.000988637,-0.00156772 0.000849405,-0.00164732 0.000703813,-0.00171458 0.000552952,-0.00176901 0.00039795,-0.00181019 0.000239968,-0.00183781 8.01895e-05,-0.00185168 0,-0.17745 -8.69663e-05,-0.00200486 -0.000261402,-0.00198964 -0.000433848,-0.00195928 -0.00060299,-0.001914 -0.000767542,-0.00185415 -0.00092625,-0.00178019 -0.00107791,-0.00169267 -0.00122136,-0.00159226 -0.00135551,-0.00147973 -0.00147934,-0.00135594 -0.00159191,-0.00122182 -0.00169235,-0.0010784 -0.00177992,-0.000926768 -0.00185393,-0.000768081 -0.00191383,-0.000603547 -0.00195916,-0.000434417 -0.00198957,-0.00026198 -0.00200483,-8.7549e-05 -0.104269,0 z "/>
<path fill="rgb(42,41,42)" stroke="rgb(42,41,42)" d="M 2.11214,1.83986 l -0.17834,0 0.0249982,0.0844572 -0.0962868,0 -0.0470137,-0.140322 0.0197226,-0.266169 -0.0345046,-0.0213673 0,-0.0755745 0.175806,0 0.00089651,0.0187772 0.00249913,0.0186317 0.00408344,0.0183497 0.00563783,0.0179332 0.0071509,0.0173854 0.00861158,0.0167101 0.0100091,0.0159124 0.0113334,0.014998 0.0125745,0.0139738 0.0137236,0.0128472 0.014772,0.0116264 0.0157123,0.0103204 0.0165373,0.00893885 0.0172412,0.00749175 0.0178188,0.00598975 0.0182658,0.00444387 -0.0412489,0.204646 z "/>
<path fill="rgb(42,41,42)" stroke="rgb(42,41,42)" d="M 3.47429,1.42088 l -0.000650243,0.014893 -0.00194578,0.0147797 -0.00322651,0.0145538 -0.00448268,0.0142172 -0.00570474,0.0137725 -0.00688338,0.0132228 -0.00800963,0.0125726 -0.00907493,0.0118267 -0.0100712,0.0109907 -0.0109907,0.0100712 -0.0118267,0.00907493 -0.0125726,0.00800963 -0.0132228,0.00688338 -0.0137725,0.00570474 -0.0142172,0.00448268 -0.0145538,0.00322651 -0.0147797,0.00194578 -0.014893,0.000650243 -0.014893,-0.000650243 -0.0147797,-0.00194578 -0.0145538,-0.00322651 -0.0142172,-0.00448268 -0.0137725,-0.00570474 -0.0132228,-0.00688338 -0.0125726,-0.00800963 -0.0118267,-0.00907493 -0.0109907,-0.0100712 -0.0100712,-0.0109907 -0.00907493,-0.0118267 -0.00800963,-0.0125726 -0.00688338,-0.0132228 -0.00570474,-0.0137725 -0.00448268,-0.0142172 -0.00322651,-0.0145538 -0.00194578,-0.0147797 -0.000650243,-0.014893 0.000650243,-0.014893 0.00194578,-0.0147797 0.00322651,-0.0145538 0.00448268,-0.0142172 0.00570474,-0.0137725 0.00688338,-0.0132228 0.00800963,-0.0125726 0.00907493,-0.0118267 0.0100712,-0.0109907 0.0109907,-0.0100712 0.0118267,-0.00907493 0.0125726,-0.00800963 0.0132228,-0.00688338 0.0137725,-0.00570474 0.0142172,-0.00448268 0.0145538,-0.00322651 0.0147797,-0.00194578 0.014893,-0.000650243 0.014893,0.000650243 0.0147797,0.00194578 0.0145538,0.00322651 0.0142172,0.00448268 0.0137725,0.00570474 0.0132228,0.00688338 0.0125726,0.00800963 0.0118267,0.00907493 0.0109907,0.0100712 0.0100712,0.0109907 0.00907493,0.0118267 0.00800963,0.0125726 0.00688338,0.0132228 0.00570474,0.0137725 0.00448268,0.0142172 0.00322651,0.0145538 0.00194578,0.0147797 0.000650243,0.014893 z "/>
<path fill="rgb(42,41,42)" stroke="rgb(42,41,42)" d="M 3.51586,1.42088 l 0.000650243,-0.014893 0.00194578,-0.0147797 0.00322651,-0.0145538 0.00448268,-0.0142172 0.00570474,-0.0137725 0.00688338,-0.0132228 0.00800963,-0.0125726 0.00907493,-0.0118267 0.0100712,-0.0109907 0.0109907,-0.0100712 0.0118267,-0.00907493 0.0125726,-0.00800963 0.0132228,-0.00688338 0.0137725,-0.00570474 0.0142172,-0.00448268 0.0145538,-0.00322651 0.0147797,-0.00194578 0.014893,-0.000650243 0.014893,0.000650243 0.0147797,0.00194578 0.0145538,0.00322651 0.0142172,0.00448268 0.0137725,0.00570474 0.0132228,0.00688338 0.0125726,0.00800963 0.0118267,0.00907493 0.0109907,0.0100712 0.0100712,0.0109907 0.00907493,0.0118267 0.00800963,0.0125726 0.00688338,0.0132228 0.00570474,0.0137725 0.00448268,0.0142172 0.00322651,0.0145538 0.00194578,0.0147797 0.000650243,0.014893 -0.000650243,0.014893 -0.00194578,0.0147797 -0.00322651,0.0145538 -0.00448268,0.0142172 -0.00570474,0.0137725 -0.00688338,0.0132228 -0.00800963,0.0125726 -0.00907493,0.0118267 -0.0100712,0.0109907 -0.0109907,0.0100712 -0.0118267,0.00907493 -0.0125726,0.00800963 -0.0132228,0.00688338 -0.0137725,0.00570474 -0.0142172,0.00448268 -0.0145538,0.00322651 -0.0147797,0.00194578 -0.014893,0.000650243 -0.014893,-0.000650243 -0.0147797,-0.00194578 -0.0145538,-0.00322651 -0.0142172,-0.00448268 -0.0137725,-0.00570474 -0.0132228,-0.00688338 -0.0125726,-0.00800963 -0.0118267,-0.00907493 -0.0109907,-0.0100712 -0.0100712,-0.0109907 -0.00907493,-0.0118267 -0.00800963,-0.0125726 -0.00688338,-0.0132228 -0.00570474,-0.0137725 -0.00448268,-0.0142172 -0.00322651,-0.0145538 -0.00194578,-0.0147797 -0.000650243,-0.014893 z "/>
<path fill="rgb(42,41,42)" stroke="rgb(42,41,42)" d="M 2.36747,1.42088 l -0.000650243,0.014893 -0.00194578,0.0147797 -0.00322651,0.0145538 -0.00448268,0.0142172 -0.00570474,0.0137725 -0.00688338,0.0132228 -0.00800963,0.0125726 -0.00907493,0.0118267 -0.0100712,0.0109907 -0.0109907,0.0100712 -0.0118267,0.00907493 -0.0125726,0.00800963 -0.0132228,0.00688338 -0.0137725,0.00570474 -0.0142172,0.00448268 -0.0145538,0.00322651 -0.0147797,0.00194578 -0.014893,0.000650243 -0.014893,-0.000650243 -0.0147797,-0.00194578 -0.0145538,-0.00322651 -0.0142172,-0.00448268 -0.0137725,-0.00570474 -0.0132228,-0.00688338 -0.0125726,-0.00800963 -0.0118267,-0.00907493 -0.0109907,-0.0100712 -0.0100712,-0.0109907 -0.00907493,-0.0118267 -0.00800963,-0.0125726 -0.00688338,-0.0132228 -0.00570474,-0.0137725 -0.00448268,-0.0142172 -0.00322651,-0.0145538 -0.00194578,-0.0147797 -0.000650243,-0.014893 0.000650243,-0.014893 0.00194578,-0.0147797 0.00322651,-0.0145538 0.00448268,-0.0142172 0.00570474,-0.0137725 0.00688338,-0.0132228 0.00800963,-0.0125726 0.00907493,-0.0118267 0.0100712,-0.0109907 0.0109907,-0.0100712 0.0118267,-0.00907493 0.0125726,-0.00800963 0.0132228,-0.00688338 0.0137725,-0.00570474 0.0142172,-0.00448268 0.0145538,-0.00322651 0.0147797,-0.00194578 0.014893,-0.000650243 0.014893,0.000650243 0.0147797,0.00194578 0.0145538,0.00322651 0.0142172,0.00448268 0.0137725,0.00570474 0.0132228,0.00688338 0.0125726,0.00800963 0.0118267,0.00907493 0.0109907,0.0100712 0.0100712,0.0109907 0.00907493,0.0118267 0.00800963,0.0125726 0.00688338,0.0132228 0.00570474,0.0137725 0.00448268,0.0142172 0.00322651,0.0145538 0.00194578,0.0147797 0.000650243,0.014893 z "/>
</g></g></svg>
