<?xml version="1.0" encoding="UTF-8" standalone="no"?>
<!DOCTYPE svg PUBLIC "-//W3C//DTD SVG 1.1//EN" "http://www.w3.org/Graphics/SVG/1.1/DTD/svg11-flat.dtd"
[

]>
<svg xmlns="http://www.w3.org/2000/svg"  viewBox="-0.09375 -0.09375 7.6875 7.6875"><g fill="none" stroke="black" stroke-width="0.0125" transform="translate(0,7.5) scale(1, -1)">
<g id="Output" >
<path fill="rgb(0,91,140)" stroke="rgb(0,91,140)" d="M 7.1,6.25147 l -5.85147,-5.85147 5.55147,0 0.0261467,0.00114159 0.0259477,0.00341608 0.0255513,0.00566458 0.0249603,0.00786996 0.0241794,0.0100155 0.0232145,0.0120847 0.0220729,0.014062 0.0207634,0.0159323 0.0192958,0.0176813 0.0176813,0.0192958 0.0159323,0.0207634 0.014062,0.0220729 0.0120847,0.0232145 0.0100155,0.0241794 0.00786996,0.0249603 0.00566458,0.0255513 0.00341608,0.0259477 0.00114159,0.0261467 0,3.05 -8.88178e-16,2.50147 z "/>
<path fill="rgb(0,91,140)" stroke="rgb(0,91,140)" d="M 0.4,3.75 l 1.33227e-15,-2.50147 5.85147,5.85147 -5.55147,-2.66454e-15 -0.0261467,-0.00114159 -0.0259477,-0.00341608 -0.0255513,-0.00566458 -0.0249603,-0.00786996 -0.0241794,-0.0100155 -0.0232145,-0.0120847 -0.0220729,-0.014062 -0.0207634,-0.0159323 -0.0192958,-0.0176813 -0.0176813,-0.0192958 -0.0159323,-0.0207634 -0.014062,-0.0220729 -0.0120847,-0.0232145 -0.0100155,-0.0241794 -0.00786996,-0.0249603 -0.00566458,-0.0255513 -0.00341608,-0.0259477 -0.00114159,-0.0261467 4.44089e-16,-3.05 z "/>
<path fill="rgb(241,240,234)" stroke="rgb(241,240,234)" d="M 7.1,6.25147 l 0,0.282843 -6.13431,-6.13431 0.282843,0 5.85147,5.85147 z "/>
<path fill="rgb(241,240,234)" stroke="rgb(241,240,234)" d="M 0.4,0.965685 l 6.13431,6.13431 -0.282843,1.77636e-15 -5.85147,-5.85147 -4.44089e-16,-0.282843 z "/>
<path fill="rgb(241,240,234)" stroke="rgb(241,240,234)" d="M 0.4,3.75 l -0.2,-4.44089e-16 4.44089e-16,-3.05 0.00190265,-0.0435779 0.00569347,-0.0432462 0.00944096,-0.0425854 0.0131166,-0.0416005 0.0166924,-0.0402991 0.0201412,-0.0386909 0.0234367,-0.0367882 0.0265538,-0.0346056 0.0294688,-0.0321596 0.0321596,-0.0294688 0.0346056,-0.0265538 0.0367882,-0.0234367 0.0386909,-0.0201412 0.0402991,-0.0166924 0.0416005,-0.0131166 0.0425854,-0.00944096 0.0432462,-0.00569347 0.0435779,-0.00190265 6.1,0 0.0435779,0.00190265 0.0432462,0.00569347 0.0425854,0.00944096 0.0416005,0.0131166 0.0402991,0.0166924 0.0386909,0.0201412 0.0367882,0.0234367 0.0346056,0.0265538 0.0321596,0.0294688 0.0294688,0.0321596 0.0265538,0.0346056 0.0234367,0.0367882 0.0201412,0.0386909 0.0166924,0.0402991 0.0131166,0.0416005 0.00944096,0.0425854 0.00569347,0.0432462 0.00190265,0.0435779 0,3.05 -0.2,4.44089e-16 0,-3.05 -0.00114159,-0.0261467 -0.00341608,-0.0259477 -0.00566458,-0.0255513 -0.00786996,-0.0249603 -0.0100155,-0.0241794 -0.0120847,-0.0232145 -0.014062,-0.0220729 -0.0159323,-0.0207634 -0.0176813,-0.0192958 -0.0192958,-0.0176813 -0.0207634,-0.0159323 -0.0220729,-0.014062 -0.0232145,-0.0120847 -0.0241794,-0.0100155 -0.0249603,-0.00786996 -0.0255513,-0.00566458 -0.0259477,-0.00341608 -0.0261467,-0.00114159 -5.55147,0 -0.282843,0 -0.265685,0 -0.0261467,0.00114159 -0.0259477,0.00341608 -0.0255513,0.00566458 -0.0249603,0.00786996 -0.0241794,0.0100155 -0.0232145,0.0120847 -0.0220729,0.014062 -0.0207634,0.0159323 -0.0192958,0.0176813 -0.0176813,0.0192958 -0.0159323,0.0207634 -0.014062,0.0220729 -0.0120847,0.0232145 -0.0100155,0.0241794 -0.00786996,0.0249603 -0.00566458,0.0255513 -0.00341608,0.0259477 -0.00114159,0.0261467 4.44089e-16,0.265685 4.44089e-16,0.282843 -1.33227e-15,2.50147 z "/>
<path fill="rgb(241,240,234)" stroke="rgb(241,240,234)" d="M 0.2,3.75 l 0.2,4.44089e-16 -4.44089e-16,3.05 0.00114159,0.0261467 0.00341608,0.0259477 0.00566458,0.0255513 0.00786996,0.0249603 0.0100155,0.0241794 0.0120847,0.0232145 0.014062,0.0220729 0.0159323,0.0207634 0.0176813,0.0192958 0.0192958,0.0176813 0.0207634,0.0159323 0.0220729,0.014062 0.0232145,0.0120847 0.0241794,0.0100155 0.0249603,0.00786996 0.0255513,0.00566458 0.0259477,0.00341608 0.0261467,0.00114159 5.55147,2.66454e-15 0.282843,-1.77636e-15 0.265685,0 0.0261467,-0.00114159 0.0259477,-0.00341608 0.0255513,-0.00566458 0.0249603,-0.00786996 0.0241794,-0.0100155 0.0232145,-0.0120847 0.0220729,-0.014062 0.0207634,-0.0159323 0.0192958,-0.0176813 0.0176813,-0.0192958 0.0159323,-0.0207634 0.014062,-0.0220729 0.0120847,-0.0232145 0.0100155,-0.0241794 0.00786996,-0.0249603 0.00566458,-0.0255513 0.00341608,-0.0259477 0.00114159,-0.0261467 0,-0.265685 0,-0.282843 8.88178e-16,-2.50147 0.2,-4.44089e-16 -8.88178e-16,3.05 -0.00190265,0.0435779 -0.00569347,0.0432462 -0.00944096,0.0425854 -0.0131166,0.0416005 -0.0166924,0.0402991 -0.0201412,0.0386909 -0.0234367,0.0367882 -0.0265538,0.0346056 -0.0294688,0.0321596 -0.0321596,0.0294688 -0.0346056,0.0265538 -0.0367882,0.0234367 -0.0386909,0.0201412 -0.0402991,0.0166924 -0.0416005,0.0131166 -0.0425854,0.00944096 -0.0432462,0.00569347 -0.0435779,0.00190265 -6.1,-8.88178e-16 -0.0435779,-0.00190265 -0.0432462,-0.00569347 -0.0425854,-0.00944096 -0.0416005,-0.0131166 -0.0402991,-0.0166924 -0.0386909,-0.0201412 -0.0367882,-0.0234367 -0.0346056,-0.0265538 -0.0321596,-0.0294688 -0.0294688,-0.0321596 -0.0265538,-0.0346056 -0.0234367,-0.0367882 -0.0201412,-0.0386909 -0.0166924,-0.0402991 -0.0131166,-0.0416005 -0.00944096,-0.0425854 -0.00569347,-0.0432462 -0.00190265,-0.0435779 4.44089e-16,-3.05 z "/>
<path fill="rgb(0,91,140)" stroke="rgb(0,91,140)" d="M 0.2,3.75 l -0.2,0 4.44089e-16,-3.05 0.00266371,-0.061009 0.00797086,-0.0605447 0.0132173,-0.0596196 0.0183632,-0.0582408 0.0233694,-0.0564187 0.0281977,-0.0541672 0.0328114,-0.0515035 0.0371753,-0.0484478 0.0412564,-0.0450234 0.0450234,-0.0412564 0.0484478,-0.0371753 0.0515035,-0.0328114 0.0541672,-0.0281977 0.0564187,-0.0233694 0.0582408,-0.0183632 0.0596196,-0.0132173 0.0605447,-0.00797086 0.061009,-0.00266371 6.1,-8.88178e-16 0.061009,0.00266371 0.0605447,0.00797086 0.0596196,0.0132173 0.0582408,0.0183632 0.0564187,0.0233694 0.0541672,0.0281977 0.0515035,0.0328114 0.0484478,0.0371753 0.0450234,0.0412564 0.0412564,0.0450234 0.0371753,0.0484478 0.0328114,0.0515035 0.0281977,0.0541672 0.0233694,0.0564187 0.0183632,0.0582408 0.0132173,0.0596196 0.00797086,0.0605447 0.00266371,0.061009 -1.77636e-15,3.05 -0.2,-8.88178e-16 0,-3.05 -0.00190265,-0.0435779 -0.00569347,-0.0432462 -0.00944096,-0.0425854 -0.0131166,-0.0416005 -0.0166924,-0.0402991 -0.0201412,-0.0386909 -0.0234367,-0.0367882 -0.0265538,-0.0346056 -0.0294688,-0.0321596 -0.0321596,-0.0294688 -0.0346056,-0.0265538 -0.0367882,-0.0234367 -0.0386909,-0.0201412 -0.0402991,-0.0166924 -0.0416005,-0.0131166 -0.0425854,-0.00944096 -0.0432462,-0.00569347 -0.0435779,-0.00190265 -6.1,0 -0.0435779,0.00190265 -0.0432462,0.00569347 -0.0425854,0.00944096 -0.0416005,0.0131166 -0.0402991,0.0166924 -0.0386909,0.0201412 -0.0367882,0.0234367 -0.0346056,0.0265538 -0.0321596,0.0294688 -0.0294688,0.0321596 -0.0265538,0.0346056 -0.0234367,0.0367882 -0.0201412,0.0386909 -0.0166924,0.0402991 -0.0131166,0.0416005 -0.00944096,0.0425854 -0.00569347,0.0432462 -0.00190265,0.0435779 -4.44089e-16,3.05 z "/>
<path fill="rgb(0,91,140)" stroke="rgb(0,91,140)" d="M 6.8,7.3 l 0.0435779,-0.00190265 0.0432462,-0.00569347 0.0425854,-0.00944096 0.0416005,-0.0131166 0.0402991,-0.0166924 0.0386909,-0.0201412 0.0367882,-0.0234367 0.0346056,-0.0265538 0.0321596,-0.0294688 0.0294688,-0.0321596 0.0265538,-0.0346056 0.0234367,-0.0367882 0.0201412,-0.0386909 0.0166924,-0.0402991 0.0131166,-0.0416005 0.00944096,-0.0425854 0.00569347,-0.0432462 0.00190265,-0.0435779 8.88178e-16,-3.05 0.2,8.88178e-16 1.77636e-15,3.05 -0.00266371,0.061009 -0.00797086,0.0605447 -0.0132173,0.0596196 -0.0183632,0.0582408 -0.0233694,0.0564187 -0.0281977,0.0541672 -0.0328114,0.0515035 -0.0371753,0.0484478 -0.0412564,0.0450234 -0.0450234,0.0412564 -0.0484478,0.0371753 -0.0515035,0.0328114 -0.0541672,0.0281977 -0.0564187,0.0233694 -0.0582408,0.0183632 -0.0596196,0.0132173 -0.0605447,0.00797086 -0.061009,0.00266371 -6.1,-8.88178e-16 -0.061009,-0.00266371 -0.0605447,-0.00797086 -0.0596196,-0.0132173 -0.0582408,-0.0183632 -0.0564187,-0.0233694 -0.0541672,-0.0281977 -0.0515035,-0.0328114 -0.0484478,-0.0371753 -0.0450234,-0.0412564 -0.0412564,-0.0450234 -0.0371753,-0.0484478 -0.0328114,-0.0515035 -0.0281977,-0.0541672 -0.0233694,-0.0564187 -0.0183632,-0.0582408 -0.0132173,-0.0596196 -0.00797086,-0.0605447 -0.00266371,-0.061009 4.44089e-16,-3.05 0.2,0 -4.44089e-16,3.05 0.00190265,0.0435779 0.00569347,0.0432462 0.00944096,0.0425854 0.0131166,0.0416005 0.0166924,0.0402991 0.0201412,0.0386909 0.0234367,0.0367882 0.0265538,0.0346056 0.0294688,0.0321596 0.0321596,0.0294688 0.0346056,0.0265538 0.0367882,0.0234367 0.0386909,0.0201412 0.0402991,0.0166924 0.0416005,0.0131166 0.0425854,0.00944096 0.0432462,0.00569347 0.0435779,0.00190265 6.1,8.88178e-16 z "/>
<path fill="rgb(241,240,234)" stroke="rgb(241,240,234)" d="M 5.33318,6.52595 l -0.0457139,-0.00101586 -0.0985388,-0.00711105 -0.0944754,-0.0142221 -0.0914278,-0.022349 -0.0863484,-0.0304759 -0.082285,-0.0365711 -0.0782215,-0.0457139 -0.0741581,-0.0528249 -0.0711105,-0.059936 -0.0660312,-0.067047 -0.0619677,-0.0751739 -0.0589201,-0.0833009 -0.0172697,-0.0274283 0.926468,-0.0365711 0.0345394,-0.00101586 0.0954912,-0.0121904 0.0883802,-0.0253966 0.0802533,-0.0396187 0.0741581,-0.0538408 0.067047,-0.067047 0.059936,-0.0812691 0.0345394,-0.059936 0.037587,-0.0812691 0.0325077,-0.0883802 0.0253966,-0.0965071 0.0213331,-0.102602 0.0142221,-0.109713 0.00812691,-0.11784 0.00304759,-0.119872 -0.00203173,-0.0985388 -0.00812691,-0.115809 -0.0132062,-0.109713 -0.0203173,-0.103618 -0.0253966,-0.097523 -0.0314918,-0.0914278 -0.037587,-0.0843167 -0.0436822,-0.0792374 -0.022349,-0.0355552 -0.0609518,-0.0792374 -0.0690788,-0.0639994 -0.0751739,-0.0507932 -0.082285,-0.0355552 -0.089396,-0.0213331 -0.0954912,-0.00711105 0.926468,-0.0233649 0.044698,0.0812691 0.0406346,0.0863484 0.0365711,0.0883802 0.0314918,0.0934595 0.0284442,0.0965071 0.0233649,0.0995547 0.0193014,0.104634 0.0142221,0.106666 0.0111745,0.111745 0.00609518,0.114793 0.00203173,0.118856 0,0.0172697 -0.00304759,0.116824 -0.00711105,0.113777 -0.0111745,0.109713 -0.0162538,0.10565 -0.0213331,0.103618 -0.0243807,0.0985388 -0.0304759,0.0954912 -0.0335235,0.0914278 -0.0386028,0.0883802 -0.0426663,0.0843167 -0.0477456,0.0812691 -0.0294601,0.0457139 -0.0589201,0.0792374 -0.0629836,0.0721264 -0.067047,0.0650153 -0.0721264,0.0568884 -0.0751739,0.0497773 -0.0802533,0.0416504 -0.0843167,0.0335235 -0.0883802,0.0274283 -0.0924436,0.0182856 -0.0965071,0.0111745 -0.100571,0.00406346 z "/>
<path fill="rgb(241,240,234)" stroke="rgb(241,240,234)" d="M 4.40671,6.00278 l -0.0467297,-0.0812691 -0.0416504,-0.0843167 -0.037587,-0.0883802 -0.0335235,-0.0924436 -0.0284442,-0.0965071 -0.0243807,-0.0995547 -0.0193014,-0.103618 -0.0162538,-0.106666 -0.0101586,-0.111745 -0.00711105,-0.114793 -0.00203173,-0.11784 0,-0.044698 0.00406346,-0.116824 0.00812691,-0.113777 0.0121904,-0.109713 0.0172697,-0.10565 0.0213331,-0.102602 0.0253966,-0.0985388 0.0294601,-0.0954912 0.0345394,-0.0914278 0.0386028,-0.0873643 0.0426663,-0.0833009 0.0467297,-0.0802533 0.0314918,-0.0477456 0.059936,-0.0802533 0.0629836,-0.0711105 0.0680629,-0.0639994 0.0721264,-0.0568884 0.0761898,-0.0497773 0.0792374,-0.0406346 0.0843167,-0.0345394 0.0883802,-0.0264125 0.0924436,-0.0193014 0.0965071,-0.0111745 0.101586,-0.00304759 0.067047,0.00101586 0.097523,0.00914278 0.0934595,0.0162538 0.089396,0.0243807 0.0853326,0.0314918 0.0812691,0.0396187 0.0772057,0.0467297 0.0721264,0.0548567 0.0690788,0.0619677 0.0639994,0.0700946 0.059936,0.0782215 0.0558725,0.0843167 0.0142221,0.0233649 -0.926468,0.0233649 -0.0396187,0.00101586 -0.0954912,0.0111745 -0.0883802,0.0264125 -0.0812691,0.0396187 -0.0731422,0.0538408 -0.067047,0.067047 -0.0589201,0.0802533 -0.0426663,0.0751739 -0.0365711,0.0812691 -0.0314918,0.089396 -0.0253966,0.0965071 -0.0203173,0.103618 -0.0142221,0.110729 -0.00812691,0.11784 -0.00304759,0.124951 0.00304759,0.112761 0.00914278,0.111745 0.015238,0.106666 0.022349,0.100571 0.0274283,0.0954912 0.0345394,0.0904119 0.0406346,0.0843167 0.00609518,0.0111745 0.0568884,0.089396 0.0619677,0.0761898 0.0690788,0.0619677 0.0751739,0.0487615 0.0812691,0.0345394 0.0883802,0.0203173 0.0944754,0.00711105 -0.926468,0.0365711 z "/>
<path fill="rgb(241,240,234)" stroke="rgb(241,240,234)" d="M 3.07796,6.47515 l -0.495742,-0.743613 0,-1.25764 -1.10221,0 1.59795,0 0,2.00125 z "/>
<path fill="rgb(241,240,234)" stroke="rgb(241,240,234)" d="M 3.07796,6.47515 l -0.495742,0 -1.74627,-2.00125 0,-0.509964 1.74627,0 0,-0.637963 0.495742,0 0,0.637963 0.421584,0 0,0.509964 -0.421584,0 -1.59795,0 1.10221,1.25764 0.495742,0.743613 z "/>
<path fill="rgb(241,240,234)" stroke="rgb(241,240,234)" d="M 5.79336,2.47468 l -0.268188,-0.0985388 0,-1.42526 0.268188,0 0,0.643042 0.00101586,0.0304759 0.0182856,0.0782215 0.0386028,0.0558725 0.059936,0.0335235 0.0812691,0.0111745 0.430726,0.0294601 -0.0365711,0.0721264 -0.593265,0.0629836 0,0.506916 z "/>
<path fill="rgb(241,240,234)" stroke="rgb(241,240,234)" d="M 6.04733,2.0724 l -0.044698,-0.00203173 -0.0843167,-0.0162538 -0.0700946,-0.0345394 -0.0548567,-0.0518091 0.593265,-0.0629836 -0.0528249,0.0629836 -0.0477456,0.037587 -0.0711105,0.037587 -0.0792374,0.022349 -0.0883802,0.00711105 z "/>
<path fill="rgb(241,240,234)" stroke="rgb(241,240,234)" d="M 6.4232,1.83266 l -0.430726,-0.0294601 0.0761898,-0.0132062 0.0680629,-0.0457139 0.0426663,-0.0609518 0.0162538,-0.0812691 0,-0.651169 0.248887,0 0,0.751739 -0.00304759,0.0497773 -0.0182856,0.0802533 z "/>
<path fill="rgb(241,240,234)" stroke="rgb(241,240,234)" d="M 5.21635,2.45132 l -0.958976,-1.80621 -0.268188,0 0.958976,1.80621 0.268188,0 z "/>
<path fill="rgb(241,240,234)" stroke="rgb(241,240,234)" d="M 2.67974,2.0724 l -0.0507932,-0.00304759 -0.0782215,-0.0203173 -0.0731422,-0.037587 -0.0660312,-0.0548567 0.55263,-0.015238 -0.0558725,0.0538408 -0.0690788,0.0426663 -0.0761898,0.0264125 -0.0833009,0.00812691 z "/>
<path fill="rgb(241,240,234)" stroke="rgb(241,240,234)" d="M 3.29637,2.0724 l -0.0264125,-0.00101586 -0.0772057,-0.0111745 -0.0761898,-0.0264125 -0.0761898,-0.0386028 -0.0761898,-0.0538408 0.67047,-0.037587 -0.0548567,0.0639994 -0.0457139,0.0365711 -0.0700946,0.037587 -0.0792374,0.0233649 -0.0883802,0.00711105 z "/>
<path fill="rgb(241,240,234)" stroke="rgb(241,240,234)" d="M 2.41155,2.04599 l -0.269204,0 0,-1.0951 0.269204,0 0,0.65828 0.0101586,0.0690788 0.0396187,0.0711105 0.0477456,0.0365711 0.0812691,0.0172697 0.647105,0 0.43479,0.0284442 -0.037587,0.0721264 -0.67047,0.037587 -0.55263,0.015238 0,0.089396 z "/>
<path fill="rgb(241,240,234)" stroke="rgb(241,240,234)" d="M 3.67224,1.83164 l -0.43479,-0.0284442 0.0731422,-0.0111745 0.0639994,-0.0426663 0.0365711,-0.0619677 0.0142221,-0.0853326 0,-0.651169 0.268188,0 0,0.751739 -0.00304759,0.0497773 -0.0182856,0.0792374 z "/>
<path fill="rgb(241,240,234)" stroke="rgb(241,240,234)" d="M 3.23745,1.8032 l -0.647105,0 0.0721264,-0.0121904 0.0700946,-0.044698 0.0416504,-0.059936 0.015238,-0.0843167 0,-0.651169 0.258029,0 0,0.662343 0.0111745,0.0639994 0.0457139,0.0690788 0.0538408,0.0396187 0.0792374,0.0172697 z "/>
<path fill="rgb(241,240,234)" stroke="rgb(241,240,234)" d="M 1.34489,2.47468 l -0.268188,-0.0985388 0,-1.42526 0.268188,0 0,0.318981 0.148316,0.203173 -0.148316,0.195046 0,0.806596 z "/>
<path fill="rgb(241,240,234)" stroke="rgb(241,240,234)" d="M 1.96559,2.03989 l -0.332188,0 -0.288505,-0.371806 0.148316,-0.195046 0.214347,-0.522154 0.269204,0 -0.29968,0.741581 0.288505,0.347426 z "/>
<path fill="rgb(187,30,16)" stroke="rgb(187,30,16)" d="M 0.4,0.965685 l -4.44089e-16,-0.265685 0.00114159,-0.0261467 0.00341608,-0.0259477 0.00566458,-0.0255513 0.00786996,-0.0249603 0.0100155,-0.0241794 0.0120847,-0.0232145 0.014062,-0.0220729 0.0159323,-0.0207634 0.0176813,-0.0192958 0.0192958,-0.0176813 0.0207634,-0.0159323 0.0220729,-0.014062 0.0232145,-0.0120847 0.0241794,-0.0100155 0.0249603,-0.00786996 0.0255513,-0.00566458 0.0259477,-0.00341608 0.0261467,-0.00114159 0.265685,0 6.13431,6.13431 0,0.265685 -0.00114159,0.0261467 -0.00341608,0.0259477 -0.00566458,0.0255513 -0.00786996,0.0249603 -0.0100155,0.0241794 -0.0120847,0.0232145 -0.014062,0.0220729 -0.0159323,0.0207634 -0.0176813,0.0192958 -0.0192958,0.0176813 -0.0207634,0.0159323 -0.0220729,0.014062 -0.0232145,0.0120847 -0.0241794,0.0100155 -0.0249603,0.00786996 -0.0255513,0.00566458 -0.0259477,0.00341608 -0.0261467,0.00114159 -0.265685,0 -6.13431,-6.13431 z "/>
</g></g></svg>
