<?xml version="1.0" encoding="UTF-8" standalone="no"?>
<!DOCTYPE svg PUBLIC "-//W3C//DTD SVG 1.1//EN" "http://www.w3.org/Graphics/SVG/1.1/DTD/svg11-flat.dtd"
[

]>
<svg xmlns="http://www.w3.org/2000/svg"  viewBox="-0.125044 -0.125044 10.2536 12.7519"><g fill="none" stroke="black" stroke-width="0.0125" transform="translate(0,12.5018) scale(1, -1)">
<g id="Output" >
<path fill="rgb(241,240,234)" stroke="rgb(241,240,234)" d="M 9.51129,6.24823 l -0.759525,8.88178e-16 1.77636e-15,-1.04734 -0.00266371,-0.061009 -0.00797086,-0.0605447 -0.0132173,-0.0596196 -0.0183632,-0.0582408 -0.0233694,-0.0564187 -0.0281977,-0.0541672 -0.0328114,-0.0515035 -0.0371753,-0.0484478 -0.0412564,-0.0450234 -0.0450234,-0.0412564 -0.0484478,-0.0371753 -0.0515035,-0.0328114 -0.0541672,-0.0281977 -0.0564187,-0.0233694 -0.0582408,-0.0183632 -0.0596196,-0.0132173 -0.0605447,-0.00797086 -0.061009,-0.00266371 -3.60419,0 -0.246568,-0.308144 0.151218,0.0638984 0.156227,0.0504265 0.160039,0.0365679 0.162625,0.0224291 0.163963,0.00811833 0.164045,-0.00625467 0.162869,-0.0205797 0.160445,-0.034747 0.15679,-0.048648 0.151934,-0.062176 0.145913,-0.0752274 0.138774,-0.0877021 0.130571,-0.0995045 0.121366,-0.110544 0.111232,-0.120736 0.100245,-0.130003 0.0884891,-0.138273 0.0760552,-0.145483 0.0630382,-0.151578 0.049538,-0.156511 0.0356581,-0.160245 0.0215048,-0.162749 0.00718662,-0.164007 -0.00713494,-0.163417 -0.0213505,-0.162173 -0.0354036,-0.159695 -0.0491873,-0.156002 -0.0625966,-0.151121 -0.0755295,-0.145091 -0.0878875,-0.137956 -0.0995768,-0.129771 -0.110508,-0.120598 -0.120598,-0.110508 -0.129771,-0.0995768 -0.137956,-0.0878875 -0.145091,-0.0755295 -0.151121,-0.0625966 -0.156002,-0.0491873 -0.159695,-0.0354036 -0.162173,-0.0213505 -0.163417,-0.00713494 -0.163417,0.00713494 -0.162173,0.0213505 -0.159695,0.0354036 -0.156002,0.0491873 -0.151121,0.0625966 -0.145091,0.0755295 -0.137956,0.0878875 -0.129771,0.0995768 -0.120598,0.110508 -0.110508,0.120598 -0.0995768,0.129771 -0.0878875,0.137956 -0.0755295,0.145091 -0.0625966,0.151121 -0.0491873,0.156002 -0.0354036,0.159695 -0.0213505,0.162173 -0.00713494,0.163417 0.0051538,0.138925 0.0154331,0.138161 0.0256275,0.136638 -1.93273,-2.4154 8.00457,8.88178e-15 0.0228784,0.000998892 0.0227043,0.00298907 0.0223574,0.00495651 0.0218403,0.00688622 0.021157,0.00876352 0.0203127,0.0105741 0.0193138,0.0123043 0.0181679,0.0139407 0.0168838,0.0154711 0.0154711,0.0168838 0.0139407,0.0181679 0.0123043,0.0193138 0.0105741,0.0203127 0.00876352,0.021157 0.00688622,0.0218403 0.00495651,0.0223574 0.00298907,0.0227043 0.000998892,0.0228784 0,5.48819 z "/>
<path fill="rgb(241,240,234)" stroke="rgb(241,240,234)" d="M 0.905782,0.497542 l 3.20336,4.00335 -0.338443,0 -3.15992,-3.94907 0.0175566,-0.0123701 0.0185091,-0.0108935 0.0193377,-0.00934393 0.0200368,-0.00773184 0.0206018,-0.00606799 0.0210289,-0.00436353 0.0213152,-0.00262986 0.0214588,-0.000878579 0.135165,0 z "/>
<path fill="rgb(241,240,234)" stroke="rgb(241,240,234)" d="M 0.508116,6.24823 l 1.77636e-15,-4.55581 2.24725,2.80847 -0.803598,0 -0.061009,0.00266371 -0.0605447,0.00797086 -0.0596196,0.0132173 -0.0582408,0.0183632 -0.0564187,0.0233694 -0.0541672,0.0281977 -0.0515035,0.0328114 -0.0484478,0.0371753 -0.0450234,0.0412564 -0.0412564,0.0450234 -0.0371753,0.0484478 -0.0328114,0.0515035 -0.0281977,0.0541672 -0.0233694,0.0564187 -0.0183632,0.0582408 -0.0132173,0.0596196 -0.00797086,0.0605447 -0.00266371,0.061009 0,1.04734 -0.743653,-8.88178e-16 z "/>
<path fill="rgb(241,240,234)" stroke="rgb(241,240,234)" d="M 0.508116,1.26946 l 1.77636e-15,-0.422964 2.92414,3.6544 -0.338443,0 -2.58569,-3.23143 z "/>
<path fill="rgb(241,240,234)" stroke="rgb(241,240,234)" d="M 0.508116,6.25089 l 0,-0.00265976 0.743653,8.88178e-16 0,1.00266 0,2.05 0.00266371,0.061009 0.00797086,0.0605447 0.0132173,0.0596196 0.0183632,0.0582408 0.0233694,0.0564187 0.0281977,0.0541672 0.0328114,0.0515035 0.0371753,0.0484478 0.0412564,0.0450234 0.0450234,0.0412564 0.0484478,0.0371753 0.0515035,0.0328114 0.0541672,0.0281977 0.0564187,0.0233694 0.0582408,0.0183632 0.0596196,0.0132173 0.0605447,0.00797086 0.061009,0.00266371 5.20453,0 1.59876,1.99803 -7.98444,-7.10543e-15 -0.0228784,-0.000998892 -0.0227043,-0.00298907 -0.0223574,-0.00495651 -0.0218403,-0.00688622 -0.021157,-0.00876352 -0.0203127,-0.0105741 -0.0193138,-0.0123043 -0.0181679,-0.0139407 -0.0168838,-0.0154711 -0.0154711,-0.0168838 -0.0139407,-0.0181679 -0.0123043,-0.0193138 -0.0105741,-0.0203127 -0.00876352,-0.021157 -0.00688622,-0.0218403 -0.00495651,-0.0223574 -0.00298907,-0.0227043 -0.000998892,-0.0228784 0,-5.48553 z "/>
<path fill="rgb(241,240,234)" stroke="rgb(241,240,234)" d="M 9.0935,11.9989 l -1.59876,-1.99803 0.338443,0 1.56269,1.95295 -0.0189819,0.0116974 -0.0199061,0.0100443 -0.0206867,0.00831879 -0.021318,0.00653324 -0.0217955,0.00470057 -0.0221158,0.00283397 -0.0222765,0.000946935 -0.155294,-1.77636e-15 z "/>
<path fill="rgb(241,240,234)" stroke="rgb(241,240,234)" d="M 9.51129,11.2522 l -3.55271e-15,0.422964 -1.34696,-1.68334 0.0547863,-0.0111891 0.0537184,-0.0155263 0.0523077,-0.0197645 0.0505633,-0.0238765 0.0484962,-0.0278362 1.08709,1.35857 z "/>
<path fill="rgb(241,240,234)" stroke="rgb(241,240,234)" d="M 9.51129,6.24823 l 1.77636e-15,0.00265976 0,4.57831 -0.893432,-1.11655 0.0346575,-0.0524474 0.0298124,-0.0553452 0.0247269,-0.0577967 0.0194419,-0.059782 0.0140002,-0.0612851 0.00844553,-0.062294 0.00282277,-0.0628005 1.77636e-15,-2.05 -3.55271e-15,-1.00266 0.759525,-8.88178e-16 z "/>
<path fill="rgb(241,240,234)" stroke="rgb(241,240,234)" d="M 4.09759,1.53438 l -2.09765e-08,0 0.0891845,-0.0767684 0.0956439,-0.0685529 0.101349,-0.0597967 0.106255,-0.0505689 0.110322,-0.0409422 0.11352,-0.0309926 0.115822,-0.0207985 0.11721,-0.0104404 0.117674,-2.22045e-16 0.11721,0.0104404 0.115822,0.0207985 0.11352,0.0309926 0.110322,0.0409422 0.106255,0.0505689 0.101349,0.0597967 0.0956439,0.0685529 0.0891845,0.0767684 -2.09765e-08,0 -0.0891845,-0.0767684 -0.0956439,-0.0685529 -0.101349,-0.0597967 -0.106255,-0.0505689 -0.110322,-0.0409422 -0.11352,-0.0309926 -0.115822,-0.0207985 -0.11721,-0.0104404 -0.117674,0 -0.11721,0.0104404 -0.115822,0.0207985 -0.11352,0.0309926 -0.110322,0.0409422 -0.106255,0.0505689 -0.101349,0.0597967 -0.0956439,0.0685529 -0.0891845,0.0767684 z "/>
<path fill="rgb(241,240,234)" stroke="rgb(241,240,234)" d="M 3.81576,1.91648 l 0,-1.9744e-08 0.0572398,-0.104675 0.0664232,-0.099102 0.075068,-0.0927256 0.0831043,-0.0855974 2.09765e-08,0 -0.0831043,0.0855974 -0.075068,0.0927256 -0.0664232,0.099102 -0.0572398,0.104675 z "/>
<path fill="rgb(241,240,234)" stroke="rgb(241,240,234)" d="M 3.81576,2.49922 l 0,-0.582732 0.0572398,-0.104675 0.0664232,-0.099102 0.075068,-0.0927256 0.0831043,-0.0855974 1.81629,0 0.0773978,0.0792057 0.0705133,0.0853923 0.0631362,0.0909823 0.055318,0.0959368 0.0471135,0.100221 0.0385798,0.103805 0.0297767,0.106664 0,0.302624 -2.47996,0 z "/>
<path fill="rgb(241,240,234)" stroke="rgb(241,240,234)" d="M 3.68074,2.49922 l 0.00549138,-0.120507 0.0164286,-0.119508 0.0272297,-0.117519 0.0378051,-0.114555 0.0480671,-0.110642 0,1.9744e-08 -0.0480671,0.110642 -0.0378051,0.114555 -0.0272297,0.117519 -0.0164286,0.119508 -0.00549138,0.120507 z "/>
<path fill="rgb(241,240,234)" stroke="rgb(241,240,234)" d="M 3.68074,2.49922 l 0.135022,0 0,-0.582732 -0.0480671,0.110642 -0.0378051,0.114555 -0.0272297,0.117519 -0.0164286,0.119508 -0.00549138,0.120507 z "/>
<path fill="rgb(241,240,234)" stroke="rgb(241,240,234)" d="M 6.29572,2.19659 l 0,1.9744e-08 -0.0297767,-0.106664 -0.0385798,-0.103805 -0.0471135,-0.100221 -0.055318,-0.0959368 -0.0631362,-0.0909823 -0.0705133,-0.0853923 -0.0773978,-0.0792057 2.09765e-08,0 0.0773978,0.0792057 0.0705133,0.0853923 0.0631362,0.0909823 0.055318,0.0959368 0.0471135,0.100221 0.0385798,0.103805 0.0297767,0.106664 z "/>
<path fill="rgb(241,240,234)" stroke="rgb(241,240,234)" d="M 6.33074,2.49922 l -0.00390666,-0.101673 -0.0116969,-0.101073 -0.0194183,-0.0998778 0,0.302624 0.0350219,0 z "/>
<path fill="rgb(241,240,234)" stroke="rgb(241,240,234)" d="M 6.33074,2.49922 l -0.00390666,-0.101673 -0.0116969,-0.101073 -0.0194183,-0.0998778 0,-1.9744e-08 0.0194183,0.0998778 0.0116969,0.101073 0.00390666,0.101673 z "/>
<path fill="rgb(241,240,234)" stroke="rgb(241,240,234)" d="M 4.09759,1.53438 l 1.81629,0 -0.0891845,-0.0767684 -0.0956439,-0.0685529 -0.101349,-0.0597967 -0.106255,-0.0505689 -0.110322,-0.0409422 -0.11352,-0.0309926 -0.115822,-0.0207985 -0.11721,-0.0104404 -0.117674,0 -0.11721,0.0104404 -0.115822,0.0207985 -0.11352,0.0309926 -0.110322,0.0409422 -0.106255,0.0505689 -0.101349,0.0597967 -0.0956439,0.0685529 -0.0891845,0.0767684 z "/>
<path fill="rgb(241,240,234)" stroke="rgb(241,240,234)" d="M 4.07491,3.44218 l 2.00015e-08,0 0.0849927,0.0769301 0.0913243,0.0692955 0.0969723,0.0611422 0.101894,0.0525312 0.106054,0.043527 0.109419,0.0341969 0.111966,0.0246109 0.113674,0.0148406 0.114531,0.00495924 0.114531,-0.00495924 0.113674,-0.0148406 0.111966,-0.0246109 0.109419,-0.0341969 0.106054,-0.043527 0.101894,-0.0525312 0.0969723,-0.0611422 0.0913243,-0.0692955 0.0849927,-0.0769301 2.00015e-08,0 -0.0849927,0.0769301 -0.0913243,0.0692955 -0.0969723,0.0611422 -0.101894,0.0525312 -0.106054,0.043527 -0.109419,0.0341969 -0.111966,0.0246109 -0.113674,0.0148406 -0.114531,0.00495924 -0.114531,-0.00495924 -0.113674,-0.0148406 -0.111966,-0.0246109 -0.109419,-0.0341969 -0.106054,-0.043527 -0.101894,-0.0525312 -0.0969723,-0.0611422 -0.0913243,-0.0692955 -0.0849927,-0.0769301 z "/>
<path fill="rgb(241,240,234)" stroke="rgb(241,240,234)" d="M 6.33074,2.49922 l -0.0350219,0 0,0.302624 0.0194183,-0.0998778 0.0116969,-0.101073 0.00390666,-0.101673 z "/>
<path fill="rgb(241,240,234)" stroke="rgb(241,240,234)" d="M 4.07491,3.44218 l 0.0849927,0.0769301 0.0913243,0.0692955 0.0969723,0.0611422 0.101894,0.0525312 0.106054,0.043527 0.109419,0.0341969 0.111966,0.0246109 0.113674,0.0148406 0.114531,0.00495924 0.114531,-0.00495924 0.113674,-0.0148406 0.111966,-0.0246109 0.109419,-0.0341969 0.106054,-0.043527 0.101894,-0.0525312 0.0969723,-0.0611422 0.0913243,-0.0692955 0.0849927,-0.0769301 -1.86165,0 z "/>
<path fill="rgb(241,240,234)" stroke="rgb(241,240,234)" d="M 3.81576,3.08195 l 0,-1.9744e-08 0.0531733,0.0979289 0.0612139,0.0931146 0.0688215,0.0876417 0.0759423,0.0815489 -2.00015e-08,0 -0.0759423,-0.0815489 -0.0688215,-0.0876417 -0.0612139,-0.0931146 -0.0531733,-0.0979289 z "/>
<path fill="rgb(241,240,234)" stroke="rgb(241,240,234)" d="M 3.68074,2.49922 l 0.00549138,0.120507 0.0164286,0.119508 0.0272297,0.117519 0.0378051,0.114555 0.0480671,0.110642 0,-0.582732 -0.135022,0 z "/>
<path fill="rgb(241,240,234)" stroke="rgb(241,240,234)" d="M 3.68074,2.49922 l 0.00549138,0.120507 0.0164286,0.119508 0.0272297,0.117519 0.0378051,0.114555 0.0480671,0.110642 0,1.9744e-08 -0.0480671,-0.110642 -0.0378051,-0.114555 -0.0272297,-0.117519 -0.0164286,-0.119508 -0.00549138,-0.120507 z "/>
<path fill="rgb(241,240,234)" stroke="rgb(241,240,234)" d="M 6.33074,2.49922 l -0.00390666,0.101673 -0.0116969,0.101073 -0.0194183,0.0998778 0,-1.9744e-08 0.0194183,-0.0998778 0.0116969,-0.101073 0.00390666,-0.101673 z "/>
<path fill="rgb(241,240,234)" stroke="rgb(241,240,234)" d="M 3.81576,3.08195 l 0,-0.582732 2.47996,0 0,0.302624 -0.0339201,0.119209 -0.0449104,0.115518 -0.0555077,0.110816 -0.0656193,0.105145 -0.0751568,0.0985537 -0.0840366,0.0911 -1.86165,0 -0.0759423,-0.0815489 -0.0688215,-0.0876417 -0.0612139,-0.0931146 -0.0531733,-0.0979289 z "/>
<path fill="rgb(241,240,234)" stroke="rgb(241,240,234)" d="M 6.29572,2.80184 l 0,1.9744e-08 -0.0339201,0.119209 -0.0449104,0.115518 -0.0555077,0.110816 -0.0656193,0.105145 -0.0751568,0.0985537 -0.0840366,0.0911 -2.00015e-08,0 0.0840366,-0.0911 0.0751568,-0.0985537 0.0656193,-0.105145 0.0555077,-0.110816 0.0449104,-0.115518 0.0339201,-0.119209 z "/>
<path fill="rgb(241,240,234)" stroke="rgb(241,240,234)" d="M 6.68074,2.49922 l 0.1,0 -0.00675441,-0.154701 -0.0202118,-0.153524 -0.0335154,-0.151178 -0.0465639,-0.147682 -0.0592581,-0.143062 -0.0715012,-0.137353 -0.0832002,-0.130598 -0.094266,-0.12285 -0.104614,-0.114167 -0.114167,-0.104614 -0.12285,-0.094266 -0.130598,-0.0832002 -0.137353,-0.0715012 -0.143062,-0.0592581 -0.147682,-0.0465639 -0.151178,-0.0335154 -0.153524,-0.0202118 -0.154701,-0.00675441 -0.154701,0.00675441 -0.153524,0.0202118 -0.151178,0.0335154 -0.147682,0.0465639 -0.143062,0.0592581 -0.137353,0.0715012 -0.130598,0.0832002 -0.12285,0.094266 -0.114167,0.104614 -0.104614,0.114167 -0.094266,0.12285 -0.0832002,0.130598 -0.0715012,0.137353 -0.0592581,0.143062 -0.0465639,0.147682 -0.0335154,0.151178 -0.0202118,0.153524 -0.00675441,0.154701 0.1,0 0.00637388,-0.145986 0.0190731,-0.144875 0.0316272,-0.142661 0.0439406,-0.139362 0.0559196,-0.135002 0.067473,-0.129614 0.0785129,-0.123241 0.0889552,-0.115929 0.0987206,-0.107735 0.107735,-0.0987206 0.115929,-0.0889552 0.123241,-0.0785129 0.129614,-0.067473 0.135002,-0.0559196 0.139362,-0.0439406 0.142661,-0.0316272 0.144875,-0.0190731 0.145986,-0.00637388 0.145986,0.00637388 0.144875,0.0190731 0.142661,0.0316272 0.139362,0.0439406 0.135002,0.0559196 0.129614,0.067473 0.123241,0.0785129 0.115929,0.0889552 0.107735,0.0987206 0.0987206,0.107735 0.0889552,0.115929 0.0785129,0.123241 0.067473,0.129614 0.0559196,0.135002 0.0439406,0.139362 0.0316272,0.142661 0.0190731,0.144875 0.00637388,0.145986 z "/>
<path fill="rgb(241,240,234)" stroke="rgb(241,240,234)" d="M 6.68074,2.49922 l -0.00637388,0.145986 -0.0190731,0.144875 -0.0316272,0.142661 -0.0439406,0.139362 -0.0559196,0.135002 -0.067473,0.129614 -0.0785129,0.123241 -0.0889552,0.115929 -0.0987206,0.107735 -0.107735,0.0987206 -0.115929,0.0889552 -0.123241,0.0785129 -0.129614,0.067473 -0.135002,0.0559196 -0.139362,0.0439406 -0.142661,0.0316272 -0.144875,0.0190731 -0.145986,0.00637388 -0.145986,-0.00637388 -0.144875,-0.0190731 -0.142661,-0.0316272 -0.139362,-0.0439406 -0.135002,-0.0559196 -0.129614,-0.067473 -0.123241,-0.0785129 -0.115929,-0.0889552 -0.107735,-0.0987206 -0.0987206,-0.107735 -0.0889552,-0.115929 -0.0785129,-0.123241 -0.067473,-0.129614 -0.0559196,-0.135002 -0.0439406,-0.139362 -0.0316272,-0.142661 -0.0190731,-0.144875 -0.00637388,-0.145986 -0.1,0 0.00708733,0.158461 0.0212054,0.157195 0.0351541,0.154675 0.0488221,0.150919 0.691951,0.864756 0.131194,0.0778747 0.137397,0.066321 0.142584,0.0542774 0.146719,0.0418327 0.149769,0.029079 0.151713,0.0161105 0.152536,0.00302292 0.152232,-0.010087 0.150803,-0.0231223 0.148261,-0.0359869 0.144623,-0.0485856 0.139916,-0.0608253 0.134176,-0.0726157 0.127445,-0.0838696 0.119772,-0.0945038 0.111214,-0.10444 0.101835,-0.113604 0.0917031,-0.12193 0.0808938,-0.129354 0.069487,-0.135823 0.0575668,-0.141288 0.0452213,-0.14571 0.0325417,-0.149055 0.0196217,-0.151299 0.0065567,-0.152425 -0.1,0 z "/>
<path fill="rgb(142,146,145)" stroke="rgb(142,146,145)" d="M 3.23074,2.49922 l -0.1,0 0.00713494,-0.163417 0.0213505,-0.162173 0.0354036,-0.159695 0.0491873,-0.156002 0.0625966,-0.151121 0.0755295,-0.145091 0.0878875,-0.137956 0.0995768,-0.129771 0.110508,-0.120598 0.120598,-0.110508 0.129771,-0.0995768 0.137956,-0.0878875 0.145091,-0.0755295 0.151121,-0.0625966 0.156002,-0.0491873 0.159695,-0.0354036 0.162173,-0.0213505 0.163417,-0.00713494 0.163417,0.00713494 0.162173,0.0213505 0.159695,0.0354036 0.156002,0.0491873 0.151121,0.0625966 0.145091,0.0755295 0.137956,0.0878875 0.129771,0.0995768 0.120598,0.110508 0.110508,0.120598 0.0995768,0.129771 0.0878875,0.137956 0.0755295,0.145091 0.0625966,0.151121 0.0491873,0.156002 0.0354036,0.159695 0.0213505,0.162173 0.00713494,0.163417 -0.1,0 -0.00675441,-0.154701 -0.0202118,-0.153524 -0.0335154,-0.151178 -0.0465639,-0.147682 -0.0592581,-0.143062 -0.0715012,-0.137353 -0.0832002,-0.130598 -0.094266,-0.12285 -0.104614,-0.114167 -0.114167,-0.104614 -0.12285,-0.094266 -0.130598,-0.0832002 -0.137353,-0.0715012 -0.143062,-0.0592581 -0.147682,-0.0465639 -0.151178,-0.0335154 -0.153524,-0.0202118 -0.154701,-0.00675441 -0.154701,0.00675441 -0.153524,0.0202118 -0.151178,0.0335154 -0.147682,0.0465639 -0.143062,0.0592581 -0.137353,0.0715012 -0.130598,0.0832002 -0.12285,0.094266 -0.114167,0.104614 -0.104614,0.114167 -0.094266,0.12285 -0.0832002,0.130598 -0.0715012,0.137353 -0.0592581,0.143062 -0.0465639,0.147682 -0.0335154,0.151178 -0.0202118,0.153524 -0.00675441,0.154701 z "/>
<path fill="rgb(142,146,145)" stroke="rgb(142,146,145)" d="M 6.88074,2.49922 l -0.00718662,0.164007 -0.0215048,0.162749 -0.0356581,0.160245 -0.049538,0.156511 -0.0630382,0.151578 -0.0760552,0.145483 -0.0884891,0.138273 -0.100245,0.130003 -0.111232,0.120736 -0.121366,0.110544 -0.130571,0.0995045 -0.138774,0.0877021 -0.145913,0.0752274 -0.151934,0.062176 -0.15679,0.048648 -0.160445,0.034747 -0.162869,0.0205797 -0.164045,0.00625467 -0.163963,-0.00811833 -0.162625,-0.0224291 -0.160039,-0.0365679 -0.156227,-0.0504265 -0.151218,-0.0638984 -0.166055,-0.207524 0.131194,0.0778747 0.137397,0.066321 0.142584,0.0542774 0.146719,0.0418327 0.149769,0.029079 0.151713,0.0161105 0.152536,0.00302292 0.152232,-0.010087 0.150803,-0.0231223 0.148261,-0.0359869 0.144623,-0.0485856 0.139916,-0.0608253 0.134176,-0.0726157 0.127445,-0.0838696 0.119772,-0.0945038 0.111214,-0.10444 0.101835,-0.113604 0.0917031,-0.12193 0.0808938,-0.129354 0.069487,-0.135823 0.0575668,-0.141288 0.0452213,-0.14571 0.0325417,-0.149055 0.0196217,-0.151299 0.0065567,-0.152425 0.1,0 z "/>
<path fill="rgb(142,146,145)" stroke="rgb(142,146,145)" d="M 3.23074,2.49922 l 0.00708733,0.158461 0.0212054,0.157195 0.0351541,0.154675 0.0488221,0.150919 -0.166055,-0.207524 -0.0256275,-0.136638 -0.0154331,-0.138161 -0.0051538,-0.138925 0.1,0 z "/>
<path fill="rgb(142,146,145)" stroke="rgb(142,146,145)" d="M 6.29572,2.19659 l -0.0297767,-0.106664 -0.0385798,-0.103805 -0.0471135,-0.100221 -0.055318,-0.0959368 -0.0631362,-0.0909823 -0.0705133,-0.0853923 -0.0773978,-0.0792057 0.381835,0 0,0.662208 z "/>
<path fill="rgb(142,146,145)" stroke="rgb(142,146,145)" d="M 6.68074,2.49922 l -0.35,0 -0.00390666,-0.101673 -0.0116969,-0.101073 -0.0194183,-0.0998778 0,-0.662208 -0.381835,0 -0.0891845,-0.0767684 -0.0956439,-0.0685529 -0.101349,-0.0597967 -0.106255,-0.0505689 -0.110322,-0.0409422 -0.11352,-0.0309926 -0.115822,-0.0207985 -0.11721,-0.0104404 -0.117674,2.22045e-16 -0.11721,0.0104404 -0.115822,0.0207985 -0.11352,0.0309926 -0.110322,0.0409422 -0.106255,0.0505689 -0.101349,0.0597967 -0.0956439,0.0685529 -0.0891845,0.0767684 -0.281835,0 0,0.3821 -0.0480671,0.110642 -0.0378051,0.114555 -0.0272297,0.117519 -0.0164286,0.119508 -0.00549138,0.120507 -0.35,0 0.00637388,-0.145986 0.0190731,-0.144875 0.0316272,-0.142661 0.0439406,-0.139362 0.0559196,-0.135002 0.067473,-0.129614 0.0785129,-0.123241 0.0889552,-0.115929 0.0987206,-0.107735 0.107735,-0.0987206 0.115929,-0.0889552 0.123241,-0.0785129 0.129614,-0.067473 0.135002,-0.0559196 0.139362,-0.0439406 0.142661,-0.0316272 0.144875,-0.0190731 0.145986,-0.00637388 0.145986,0.00637388 0.144875,0.0190731 0.142661,0.0316272 0.139362,0.0439406 0.135002,0.0559196 0.129614,0.067473 0.123241,0.0785129 0.115929,0.0889552 0.107735,0.0987206 0.0987206,0.107735 0.0889552,0.115929 0.0785129,0.123241 0.067473,0.129614 0.0559196,0.135002 0.0439406,0.139362 0.0316272,0.142661 0.0190731,0.144875 0.00637388,0.145986 z "/>
<path fill="rgb(142,146,145)" stroke="rgb(142,146,145)" d="M 3.81576,1.53438 l 0.281835,0 -0.0831043,0.0855974 -0.075068,0.0927256 -0.0664232,0.099102 -0.0572398,0.104675 0,-0.3821 z "/>
<path fill="rgb(142,146,145)" stroke="rgb(142,146,145)" d="M 6.68074,2.49922 l -0.00637388,0.145986 -0.0190731,0.144875 -0.0316272,0.142661 -0.0439406,0.139362 -0.0559196,0.135002 -0.067473,0.129614 -0.0785129,0.123241 -0.0889552,0.115929 -0.0987206,0.107735 -0.107735,0.0987206 -0.115929,0.0889552 -0.123241,0.0785129 -0.129614,0.067473 -0.135002,0.0559196 -0.139362,0.0439406 -0.142661,0.0316272 -0.144875,0.0190731 -0.145986,0.00637388 -0.145986,-0.00637388 -0.144875,-0.0190731 -0.142661,-0.0316272 -0.139362,-0.0439406 -0.135002,-0.0559196 -0.129614,-0.067473 -0.123241,-0.0785129 -0.115929,-0.0889552 -0.107735,-0.0987206 -0.0987206,-0.107735 -0.0889552,-0.115929 -0.0785129,-0.123241 -0.067473,-0.129614 -0.0559196,-0.135002 -0.0439406,-0.139362 -0.0316272,-0.142661 -0.0190731,-0.144875 -0.00637388,-0.145986 0.35,0 0.00549138,0.120507 0.0164286,0.119508 0.0272297,0.117519 0.0378051,0.114555 0.0480671,0.110642 0,0.360234 0.259151,0 0.0849927,0.0769301 0.0913243,0.0692955 0.0969723,0.0611422 0.101894,0.0525312 0.106054,0.043527 0.109419,0.0341969 0.111966,0.0246109 0.113674,0.0148406 0.114531,0.00495924 0.114531,-0.00495924 0.113674,-0.0148406 0.111966,-0.0246109 0.109419,-0.0341969 0.106054,-0.043527 0.101894,-0.0525312 0.0969723,-0.0611422 0.0913243,-0.0692955 0.0849927,-0.0769301 0.359151,0 0,-0.640342 0.0194183,-0.0998778 0.0116969,-0.101073 0.00390666,-0.101673 0.35,0 z "/>
<path fill="rgb(142,146,145)" stroke="rgb(142,146,145)" d="M 3.81576,3.08195 l 0.0531733,0.0979289 0.0612139,0.0931146 0.0688215,0.0876417 0.0759423,0.0815489 -0.259151,0 0,-0.360234 z "/>
<path fill="rgb(142,146,145)" stroke="rgb(142,146,145)" d="M 6.29572,2.80184 l 0,0.640342 -0.359151,0 0.0840366,-0.0911 0.0751568,-0.0985537 0.0656193,-0.105145 0.0555077,-0.110816 0.0449104,-0.115518 0.0339201,-0.119209 z "/>
<path fill="rgb(241,240,234)" stroke="rgb(241,240,234)" d="M 5.08995,7.4185 l -0.0125963,-0.00319601 -0.0123292,-0.00410754 -0.0119962,-0.00499714 -0.0138546,-0.00712649 -0.0131776,-0.00831203 -0.0123993,-0.00943375 -0.0115258,-0.010483 -0.0105638,-0.0114518 -0.00952071,-0.0123326 -0.0084045,-0.0131188 -0.00722375,-0.0138042 -0.00598752,-0.0143836 -0.00470533,-0.0148525 -0.003387,-0.0152074 -0.00204266,-0.0154456 -0.000682633,-0.0155651 8.32376e-07,-0.000544045 2.49712e-06,-0.00054404 4.16184e-06,-0.000544029 0.140389,0.17545 z "/>
<path fill="rgb(241,240,234)" stroke="rgb(241,240,234)" d="M 5.30514,7.24468 l -0.000108177,0.00620121 -0.000324399,0.00619366 -0.000540226,0.00617858 -0.156165,-0.195165 0.00253707,0.000315296 0.00253227,0.000351744 0.00252695,0.000388119 0.0153524,0.00317113 0.0150134,0.00451114 0.0145577,0.00581608 0.0139888,0.0070758 0.0133112,0.00828052 0.01253,0.00942085 0.0116515,0.010488 0.0106823,0.0114735 0.00963015,0.0123699 0.0085031,0.0131701 0.00730995,0.0138679 0.00605996,0.0144579 0.00476287,0.0149355 0.00342875,0.015297 0.00206797,0.0155395 0.000691114,0.0156613 z "/>
<path fill="rgb(241,240,234)" stroke="rgb(241,240,234)" d="M 4.24673,5.63609 l 0.00414113,-0.0161406 0.00542968,-0.0157539 0.00668284,-0.0152646 0.00789245,-0.0146757 0.00905061,-0.0139912 0.247758,0.309631 -0.0165483,0.00605463 -0.0170045,0.00462102 -0.0173367,0.00315373 -0.0175425,0.00166345 -0.0176204,0.000161045 -0.01757,-0.00134253 -0.0173914,-0.00283633 -0.0170861,-0.00430944 -0.0166562,-0.00575115 -0.016105,-0.00715094 -0.0154363,-0.0084986 -0.0146551,-0.00978431 -0.0137671,-0.0109987 -0.0127788,-0.0121329 -0.0116973,-0.0131787 -0.0105306,-0.0141285 -0.00928705,-0.0149752 -0.00797584,-0.0157128 -0.0066065,-0.0163358 -0.00518901,-0.0168398 -0.00373369,-0.0172211 -0.00225115,-0.0174768 -0.000752213,-0.0176051 0.000509175,-0.0144887 0.00152501,-0.0144172 0.00253333,-0.0142746 z "/>
<path fill="rgb(241,240,234)" stroke="rgb(241,240,234)" d="M 2.83215,6.72857 l 0.567029,-1.24083 0.145834,7.61814e-06 0.00611879,0.00764687 -0.475311,1.63602 0.0845219,0.524704 0.566998,-0.450057 0.0944817,0.0746079 -0.728634,0.750939 -0.0184615,0.0175025 -0.0198564,0.0159024 -0.0211131,0.0141916 -0.0222227,0.012382 -0.0231777,0.0104862 -0.0239712,0.00851732 -0.0245978,0.00648918 -0.0250532,0.00441586 -0.0253341,0.00231179 -0.0279986,9.32625e-05 -0.0278891,-0.00247575 -0.0275443,-0.00502389 -0.0269673,-0.00752965 -0.0261628,-0.00997191 -0.0251376,-0.0123301 -0.0239004,-0.0145842 -0.0224617,-0.0167154 -0.0208335,-0.0187055 -0.392884,-0.440171 -0.0322915,-0.509766 0.124335,6.49507e-06 0.0795477,0.447601 0.131786,0.106938 2.68894e-05,-0.514743 -0.156625,-0.73857 -0.350581,-0.790771 0.116883,-0.106925 0.464973,0.731099 0.186476,0.507306 z "/>
<path fill="rgb(241,240,234)" stroke="rgb(241,240,234)" d="M 3.14912,8.42325 l -0.000941527,0.0215645 -0.00281742,0.0214004 -0.00467186,0.0210734 -0.00649075,0.020586 -0.00826025,0.019942 -0.00996687,0.0191462 -0.0115976,0.0182047 -0.0131402,0.0171246 -0.0145827,0.0159142 -0.0159142,0.0145827 -0.0171246,0.0131402 -0.0182047,0.0115976 -0.0191462,0.00996687 -0.019942,0.00826025 -0.020586,0.00649075 -0.0210734,0.00467186 -0.0214004,0.00281742 -0.0215645,0.000941527 -0.0215645,-0.000941527 -0.0214004,-0.00281742 -0.0210734,-0.00467186 -0.020586,-0.00649075 -0.019942,-0.00826025 -0.0191462,-0.00996687 -0.0182047,-0.0115976 -0.0171246,-0.0131402 -0.0159142,-0.0145827 -0.0145827,-0.0159142 -0.0131402,-0.0171246 -0.0115976,-0.0182047 -0.00996687,-0.0191462 -0.00826025,-0.019942 -0.00649075,-0.020586 -0.00467186,-0.0210734 -0.00281742,-0.0214004 -0.000941527,-0.0215645 0.000893037,-0.0210029 0.00267266,-0.0208513 0.004433,-0.0205492 0.00616133,-0.0200987 0.00784519,-0.0195031 0.00947242,-0.0187668 0.0110313,-0.017895 0.0125105,-0.016894 0.0138994,-0.0157711 0.015188,-0.0145343 0.0163669,-0.0131926 0.0174277,-0.0117556 0.0183627,-0.0102338 0.0191651,-0.00863817 0.0198292,-0.00698015 0.0203501,-0.00527174 0.0207242,-0.00352527 0.0209486,-0.00175335 0.0219748,7.49962e-05 0.0218814,0.00202445 0.0216155,0.00395793 0.0211791,0.00586019 0.0205756,0.00771623 0.0198098,0.00951141 0.0188878,0.0112316 0.0178167,0.0128631 0.0166052,0.0143932 0.0152626,0.0158097 0.0137997,0.0171016 0.0122279,0.0182585 0.0105596,0.0192715 0.00880809,0.0201324 0.00698707,0.0208345 0.00511094,0.0213723 0.00319449,0.0217415 0.000706705,0.00833806 0.000424347,0.00835719 0.000141503,0.00836676 z "/>
<path fill="rgb(241,240,234)" stroke="rgb(241,240,234)" d="M 5.60674,6.79547 l -0.0784083,-0.0979896 0.118764,-0.135374 0.0646528,0.0721071 -0.105009,0.161257 z "/>
<path fill="rgb(241,240,234)" stroke="rgb(241,240,234)" d="M 5.30646,6.13189 l 0.0470274,-0.075897 0.163822,0.204734 -0.0865352,0.266556 -0.00493034,0.0421004 -0.378228,-0.472685 -0.0892847,-0.534546 0.256948,0.321117 0.0911813,0.248621 z "/>
<path fill="rgb(241,240,234)" stroke="rgb(241,240,234)" d="M 5.00583,6.89041 l -0.323564,-0.440267 0.0596902,-0.0348042 0.313312,0.268579 0.0327206,-0.113793 0.294675,0.368265 -0.142989,0.0680372 -0.0120276,0.00508714 -0.012428,0.00401087 -0.0127323,0.00290358 -0.0129381,0.00177385 -0.0130439,0.000630398 -0.0130489,-0.000517927 -0.0139086,-0.00183111 -0.0136738,-0.0031353 -0.013317,-0.00441152 -0.0128413,-0.00564838 -0.0122511,-0.00683483 -0.0115515,-0.0079603 -0.0800832,-0.100083 z "/>
<path fill="rgb(241,240,234)" stroke="rgb(241,240,234)" d="M 5.92565,5.89817 l -0.264312,0.119603 -0.114026,-0.142502 0.360941,-0.101436 0.0173971,0.124336 z "/>
<path fill="rgb(142,146,145)" stroke="rgb(142,146,145)" d="M 4.07789,8.60609 l -0.00404196,0.000223682 -0.00404579,-0.000138014 -0.00401732,-0.000498608 -0.00395677,-0.000855221 -0.00386463,-0.00120501 -0.00374164,-0.00154517 -0.00358878,-0.001873 -0.00340726,-0.00218587 -0.00319854,-0.00248129 -0.00296428,-0.0027569 -0.00270635,-0.0030105 -0.00242681,-0.00324006 -0.0021279,-0.00344376 -0.001812,-0.00361996 -0.00148164,-0.00376725 -0.00113944,-0.00388447 -0.000788148,-0.00397068 -0.000430561,-0.00402518 4.67679e-06,-0.0895276 0.000236019,-0.00431915 0.000606117,-0.00428292 0.000971736,-0.00421504 0.00133017,-0.004116 0.00167878,-0.00398654 0.00201498,-0.00382762 0.00233628,-0.00364041 0.00264032,-0.00342629 0.00292485,-0.00318686 0.00318776,-0.00292387 0.00342711,-0.00263927 0.00364113,-0.00233516 0.00382824,-0.0020138 0.00398706,-0.00167755 0.00411641,-0.0013289 0.00421534,-0.000970438 0.00428311,-0.000604798 0.00431923,-0.000234689 0.206395,1.07818e-05 0.00370592,0.000160811 0.00367811,0.000480841 0.00362272,0.000797265 0.00354016,0.00110771 0.00343104,0.00140985 0.0032962,0.00170141 0.00313664,0.00198021 0.00295355,0.00224417 0.00274831,0.00249129 0.00252246,0.00271973 0.00227769,0.00292777 0.00201585,0.00311386 0.00173888,0.00327659 0.00144887,0.00341475 0.001148,0.0035273 0.000838514,0.0036134 0.000522743,0.00367239 0.000203051,0.00370385 -0.000118164,0.00370753 -0.000438492,0.0036834 -0.0149192,0.0895268 -0.000952484,0.0044647 -0.00135042,0.00436087 -0.00173739,0.00422164 -0.00211026,0.00404816 -0.00246601,0.00384182 -0.00280175,0.0036043 -0.00311474,0.00333754 -0.00340246,0.00304368 -0.00366257,0.00272513 -0.00389296,0.00238446 -0.00409175,0.00202444 -0.00425733,0.00164799 -0.00438837,0.00125817 -0.00448379,0.000858139 -0.00454282,0.000451141 -0.186502,-9.7426e-06 z "/>
<path fill="rgb(142,146,145)" stroke="rgb(142,146,145)" d="M 5.27648,8.60615 l 0.00404193,0.000224104 0.0040458,-0.000137591 0.00401737,-0.000498188 0.00395686,-0.000854808 0.00386476,-0.0012046 0.0037418,-0.00154478 0.00358897,-0.00187262 0.00340749,-0.00218551 0.0031988,-0.00248096 0.00296456,-0.00275659 0.00270666,-0.00301022 0.00242715,-0.00323981 0.00212826,-0.00344353 0.00181238,-0.00361977 0.00148203,-0.0037671 0.00113985,-0.00388435 0.000788563,-0.00397059 0.000430982,-0.00402513 4.67679e-06,-0.0895276 -0.000235568,-0.00431918 -0.00060567,-0.00428299 -0.000971295,-0.00421514 -0.00132974,-0.00411614 -0.00167836,-0.00398672 -0.00201458,-0.00382783 -0.0023359,-0.00364065 -0.00263996,-0.00342657 -0.00292452,-0.00318716 -0.00318745,-0.0029242 -0.00342683,-0.00263963 -0.00364088,-0.00233554 -0.00382803,-0.0020142 -0.00398688,-0.00167797 -0.00411627,-0.00132933 -0.00421523,-0.000970878 -0.00428305,-0.000605246 -0.0043192,-0.000235141 -0.206395,-1.07818e-05 -0.00370594,0.000160424 -0.00367816,0.000480457 -0.0036228,0.000796886 -0.00354027,0.00110734 -0.00343119,0.00140949 -0.00329638,0.00170107 -0.00313684,0.00197989 -0.00295378,0.00224386 -0.00274857,0.002491 -0.00252274,0.00271947 -0.002278,0.00292753 -0.00201617,0.00311365 -0.00173922,0.00327641 -0.00144923,0.0034146 -0.00114837,0.00352718 -0.000838892,0.00361331 -0.000523127,0.00367234 -0.000203438,0.00370383 0.000117776,0.00370754 0.000438107,0.00368345 0.0149098,0.0895283 0.000952017,0.0044648 0.00134996,0.00436101 0.00173695,0.00422182 0.00210984,0.00404838 0.00246561,0.00384208 0.00280137,0.00360459 0.0031144,0.00333786 0.00340215,0.00304404 0.00366229,0.00272551 0.00389271,0.00238487 0.00409154,0.00202487 0.00425716,0.00164844 0.00438824,0.00125863 0.0044837,0.000858607 0.00454278,0.000451616 0.186502,9.7426e-06 z "/>
<path fill="rgb(142,146,145)" stroke="rgb(142,146,145)" d="M 5.20933,8.71805 l -0.355266,0.0265022 -0.356253,-1.86101e-05 -0.355263,-0.0265393 0.096962,0.243696 0.173393,0.0286221 0.175151,0.0143637 0.175739,9.18037e-06 0.175153,-0.0143454 0.173396,-0.028604 0.0969874,-0.243686 z "/>
<path fill="rgb(241,240,234)" stroke="rgb(241,240,234)" d="M 5.27648,8.60615 l -0.186502,-9.7426e-06 -0.00454278,-0.000451616 -0.0044837,-0.000858607 -0.00438824,-0.00125863 -0.00425716,-0.00164844 -0.00409154,-0.00202487 -0.00389271,-0.00238487 -0.00366229,-0.00272551 -0.00340215,-0.00304404 -0.0031144,-0.00333786 -0.00280137,-0.00360459 -0.00246561,-0.00384208 -0.00210984,-0.00404838 -0.00173695,-0.00422182 -0.00134996,-0.00436101 -0.000952017,-0.0044648 -0.0149098,-0.0895283 -0.000438107,-0.00368345 -0.000117776,-0.00370754 0.000203438,-0.00370383 0.000523127,-0.00367234 0.000838892,-0.00361331 0.00114837,-0.00352718 0.00144923,-0.0034146 0.00173922,-0.00327641 0.00201617,-0.00311365 0.002278,-0.00292753 0.00252274,-0.00271947 0.00274857,-0.002491 0.00295378,-0.00224386 0.00313684,-0.00197989 0.00329638,-0.00170107 0.00343119,-0.00140949 0.00354027,-0.00110734 0.0036228,-0.000796886 0.00367816,-0.000480457 0.00370594,-0.000160424 0.206395,1.07818e-05 0.0043192,0.000235141 0.00428305,0.000605246 0.00421523,0.000970878 0.00411627,0.00132933 0.00398688,0.00167797 0.00382803,0.0020142 0.00364088,0.00233554 0.00342683,0.00263963 0.00318745,0.0029242 0.00292452,0.00318716 0.00263996,0.00342657 0.0023359,0.00364065 0.00201458,0.00382783 0.00167836,0.00398672 0.00132974,0.00411614 0.000971295,0.00421514 0.00060567,0.00428299 0.000235568,0.00431918 -4.67679e-06,0.0895276 -0.000430982,0.00402513 -0.000788563,0.00397059 -0.00113985,0.00388435 -0.00148203,0.0037671 -0.00181238,0.00361977 -0.00212826,0.00344353 -0.00242715,0.00323981 -0.00270666,0.00301022 -0.00296456,0.00275659 -0.0031988,0.00248096 -0.00340749,0.00218551 -0.00358897,0.00187262 -0.0037418,0.00154478 -0.00386476,0.0012046 -0.00395686,0.000854808 -0.00401737,0.000498188 -0.0040458,0.000137591 -0.00404193,-0.000224104 z M 5.29639,8.22568 l 1.15609e-05,-0.22131 -8.219e-05,-0.00192419 -0.000246171,-0.00191015 -0.000408354,-0.00188216 -0.000567555,-0.00184042 -0.000722612,-0.00178524 -0.000872392,-0.00171703 -0.0010158,-0.00163628 -0.00115179,-0.00154358 -0.00127937,-0.00143961 -0.00139761,-0.00132512 -0.00150564,-0.00120096 -0.00160268,-0.00106803 -0.00168801,-0.000927299 -0.00176102,-0.000779796 -0.00182116,-0.000626599 -0.00186801,-0.000468826 -0.00190122,-0.00030763 -0.141738,-7.40421e-06 -0.00195071,8.50679e-05 -0.00193588,0.00025476 -0.00190631,0.000422514 -0.00186223,0.000587051 -0.00180398,0.000747121 -0.001732,0.000901505 -0.00164683,0.00104903 -0.00154914,0.00118857 -0.00143965,0.00131906 -0.00131921,0.00143952 -0.00118873,0.00154901 -0.0010492,0.00164672 -0.000901686,0.0017319 -0.00074731,0.0018039 -0.000587246,0.00186217 -0.000422713,0.00190626 -0.000254962,0.00193585 -8.52717e-05,0.00195071 -1.15609e-05,0.22131 -0.148874,-7.77695e-06 0,0.510722 0.245823,-0.0183379 -0.0969874,0.243686 -0.122402,0.0201918 0.220798,0 0.110501,-0.266361 0.0696391,-0.0820565 1.66272e-05,-0.318294 -0.0572047,-0.0895305 -0.0372964,-1.94831e-06 z "/>
<path fill="rgb(241,240,234)" stroke="rgb(241,240,234)" d="M 4.14312,8.98193 l 0.0292511,0.0692866 0.167177,0.0262208 0.168484,0.0157767 0.169139,0.0052716 0.169139,-0.00525393 0.117199,-0.0109621 0,-0.0959791 -0.0245605,0.00405159 -0.175153,0.0143454 -0.175739,-9.18037e-06 -0.175151,-0.0143637 -0.0507945,-0.00838469 -0.21899,0 z "/>
<path fill="rgb(241,240,234)" stroke="rgb(241,240,234)" d="M 5.21074,8.98193 l -0.220798,0 -0.0264336,0.00436057 0,0.0959791 0.0512859,-0.00479698 0.16718,-0.0262034 0.0287657,-0.0693393 z "/>
<path fill="rgb(241,240,234)" stroke="rgb(241,240,234)" d="M 4.07789,8.60609 l -0.00404196,0.000223682 -0.00404579,-0.000138014 -0.00401732,-0.000498608 -0.00395677,-0.000855221 -0.00386463,-0.00120501 -0.00374164,-0.00154517 -0.00358878,-0.001873 -0.00340726,-0.00218587 -0.00319854,-0.00248129 -0.00296428,-0.0027569 -0.00270635,-0.0030105 -0.00242681,-0.00324006 -0.0021279,-0.00344376 -0.001812,-0.00361996 -0.00148164,-0.00376725 -0.00113944,-0.00388447 -0.000788148,-0.00397068 -0.000430561,-0.00402518 4.67679e-06,-0.0895276 0.000236019,-0.00431915 0.000606117,-0.00428292 0.000971736,-0.00421504 0.00133017,-0.004116 0.00167878,-0.00398654 0.00201498,-0.00382762 0.00233628,-0.00364041 0.00264032,-0.00342629 0.00292485,-0.00318686 0.00318776,-0.00292387 0.00342711,-0.00263927 0.00364113,-0.00233516 0.00382824,-0.0020138 0.00398706,-0.00167755 0.00411641,-0.0013289 0.00421534,-0.000970438 0.00428311,-0.000604798 0.00431923,-0.000234689 0.206395,1.07818e-05 0.00370592,0.000160811 0.00367811,0.000480841 0.00362272,0.000797265 0.00354016,0.00110771 0.00343104,0.00140985 0.0032962,0.00170141 0.00313664,0.00198021 0.00295355,0.00224417 0.00274831,0.00249129 0.00252246,0.00271973 0.00227769,0.00292777 0.00201585,0.00311386 0.00173888,0.00327659 0.00144887,0.00341475 0.001148,0.0035273 0.000838514,0.0036134 0.000522743,0.00367239 0.000203051,0.00370385 -0.000118164,0.00370753 -0.000438492,0.0036834 -0.0149192,0.0895268 -0.000952484,0.0044647 -0.00135042,0.00436087 -0.00173739,0.00422164 -0.00211026,0.00404816 -0.00246601,0.00384182 -0.00280175,0.0036043 -0.00311474,0.00333754 -0.00340246,0.00304368 -0.00366257,0.00272513 -0.00389296,0.00238446 -0.00409175,0.00202444 -0.00425733,0.00164799 -0.00438837,0.00125817 -0.00448379,0.000858139 -0.00454282,0.000451141 -0.186502,-9.7426e-06 z M 4.36211,8.98193 l -0.122599,-0.0202374 -0.096962,-0.243696 0.355263,0.0265393 0.356253,1.86101e-05 0.109443,-0.00816426 0,-0.510722 -0.287543,-1.50208e-05 -0.436416,-2.27978e-05 1.15609e-05,-0.22131 -8.219e-05,-0.00192419 -0.000246171,-0.00191015 -0.000408354,-0.00188216 -0.000567555,-0.00184042 -0.000722612,-0.00178524 -0.000872392,-0.00171703 -0.0010158,-0.00163628 -0.00115179,-0.00154358 -0.00127937,-0.00143961 -0.00139761,-0.00132512 -0.00150564,-0.00120096 -0.00160268,-0.00106803 -0.00168801,-0.000927299 -0.00176102,-0.000779796 -0.00182116,-0.000626599 -0.00186801,-0.000468826 -0.00190122,-0.00030763 -0.144228,-7.53424e-06 -0.00177772,7.89467e-05 -0.0017637,0.000236403 -0.00173576,0.000391993 -0.00169412,0.00054449 -0.00163911,0.00069269 -0.00157117,0.000835424 -0.00149083,0.000971565 -0.00139872,0.00110004 -0.00129558,0.00121983 -0.00118221,0.00133 -0.00105951,0.00142967 -0.000928452,0.00151805 -0.000790065,0.00159446 -0.000645443,0.00165829 -0.000495728,0.00170902 -0.000342101,0.00174628 -0.000185774,0.00176975 -2.79804e-05,0.00177925 0.000130034,0.00177471 -1.15609e-05,0.22131 -0.0372964,-1.94831e-06 -0.0547148,0.0895247 -1.66272e-05,0.318294 0.0671313,0.0820637 0.11248,0.266429 0.21899,0 z "/>
<path fill="rgb(241,240,234)" stroke="rgb(241,240,234)" d="M 7.02471,7.07692 l -0.515897,-2.69497e-05 -0.22088,-0.276041 0.975504,5.09589e-05 -0.238728,0.276017 z "/>
<path fill="rgb(241,240,234)" stroke="rgb(241,240,234)" d="M 6.05733,8.00441 l 1.16418e-05,-0.222858 0.106823,0.1335 -0.106834,0.0893576 z "/>
<path fill="rgb(241,240,234)" stroke="rgb(241,240,234)" d="M 6.05738,6.93568 l 0.258609,0.323193 -2.20936e-05,0.422936 -0.258609,-0.323193 2.20936e-05,-0.422936 z "/>
<path fill="rgb(241,240,234)" stroke="rgb(241,240,234)" d="M 7.32799,8.5236 l -0.208501,0.162392 -0.718479,-0.897909 0.338457,1.76805e-05 0.588524,0.7355 z "/>
<path fill="rgb(241,240,234)" stroke="rgb(241,240,234)" d="M 7.02471,7.07692 l 0.238728,-0.276017 -5.15715e-05,0.987231 0.537125,2.80586e-05 5.15715e-05,-0.987231 0.19397,1.01327e-05 -6.28729e-05,1.20357 -0.457981,0.356701 -0.511811,-0.639629 3.36764e-05,-0.644665 z "/>
<path fill="rgb(241,240,234)" stroke="rgb(241,240,234)" d="M 6.5472,8.39375 l -5.90268e-06,0.112995 -0.223799,-1.16909e-05 1.59776e-05,-0.305859 -0.266083,-0.196463 0.106834,-0.0893576 0.383038,0.478696 z "/>
<path fill="rgb(142,146,145)" stroke="rgb(142,146,145)" d="M 7.02471,7.07692 l -3.36764e-05,0.644665 -0.515863,-0.644692 0.515897,2.69497e-05 z "/>
<path fill="rgb(142,146,145)" stroke="rgb(142,146,145)" d="M 6.73947,7.7881 l -0.338457,-1.76805e-05 -0.0850396,-0.106277 2.20936e-05,-0.422936 0.423474,0.529231 z "/>
<path fill="rgb(142,146,145)" stroke="rgb(142,146,145)" d="M 5.148,7.06809 l -0.0620878,-0.0775934 0.0115515,0.0079603 0.0122511,0.00683483 0.0128413,0.00564838 0.013317,0.00441152 0.0136738,0.0031353 0.0139086,0.00183111 -0.00785918,0.0488271 -0.00252695,-0.000388119 -0.00253227,-0.000351744 -0.00253707,-0.000315296 z "/>
<path fill="rgb(142,146,145)" stroke="rgb(142,146,145)" d="M 4.90993,5.50167 l 0.0483986,0.0604854 0.0892847,0.534546 -0.396426,-0.495428 0.258743,-0.0996031 z "/>
<path fill="rgb(142,146,145)" stroke="rgb(142,146,145)" d="M 3.55114,5.49539 l 1.39842,1.74766 -4.16184e-06,0.000544029 -2.49712e-06,0.00054404 -8.32376e-07,0.000544045 0.000682633,0.0155651 0.00204266,0.0154456 0.003387,0.0152074 0.00470533,0.0148525 0.00598752,0.0143836 0.00722375,0.0138042 0.0084045,0.0131188 0.00952071,0.0123326 0.0105638,0.0114518 0.0115258,0.010483 0.0123993,0.00943375 0.0131776,0.00831203 0.0138546,0.00712649 -0.377062,0.819453 -0.436416,-2.27978e-05 1.15609e-05,-0.22131 -8.219e-05,-0.00192419 -0.000246171,-0.00191015 -0.000408354,-0.00188216 -0.000567555,-0.00184042 -0.000722612,-0.00178524 -0.000872392,-0.00171703 -0.0010158,-0.00163628 -0.00115179,-0.00154358 -0.00127937,-0.00143961 -0.00139761,-0.00132512 -0.00150564,-0.00120096 -0.00160268,-0.00106803 -0.00168801,-0.000927299 -0.00176102,-0.000779796 -0.00182116,-0.000626599 -0.00186801,-0.000468826 -0.00190122,-0.00030763 -0.144228,-7.53424e-06 -0.00177772,7.89467e-05 -0.0017637,0.000236403 -0.00173576,0.000391993 -0.00169412,0.00054449 -0.00163911,0.00069269 -0.00157117,0.000835424 -0.00149083,0.000971565 -0.00139872,0.00110004 -0.00129558,0.00121983 -0.00118221,0.00133 -0.00105951,0.00142967 -0.000928452,0.00151805 -0.000790065,0.00159446 -0.000645443,0.00165829 -0.000495728,0.00170902 -0.000342101,0.00174628 -0.000185774,0.00176975 -2.79804e-05,0.00177925 0.000130034,0.00177471 -1.15609e-05,0.22131 -0.0372964,-1.94831e-06 -0.0547148,0.0895247 -0.815677,0.0830482 -0.00319449,-0.0217415 -0.00511094,-0.0213723 -0.00698707,-0.0208345 -0.00880809,-0.0201324 -0.0105596,-0.0192715 -0.0122279,-0.0182585 -0.0137997,-0.0171016 -0.0152626,-0.0158097 -0.0166052,-0.0143932 -0.0178167,-0.0128631 -0.0188878,-0.0112316 -0.0198098,-0.00951141 -0.0205756,-0.00771623 -0.0211791,-0.00586019 -0.0216155,-0.00395793 -0.0218814,-0.00202445 -0.0219748,-7.49962e-05 -0.00214297,-0.0522269 0.0253341,-0.00231179 0.0250532,-0.00441586 0.0245978,-0.00648918 0.0239712,-0.00851732 0.0231777,-0.0104862 0.0222227,-0.012382 0.0211131,-0.0141916 0.0198564,-0.0159024 0.0184615,-0.0175025 0.728634,-0.750939 -0.0944817,-0.0746079 -0.566998,0.450057 -0.0845219,-0.524704 0.475311,-1.63602 z "/>
<path fill="rgb(142,146,145)" stroke="rgb(142,146,145)" d="M 3.95164,5.57296 l 0.29509,0.0631339 -0.00253333,0.0142746 -0.00152501,0.0144172 -0.000509175,0.0144887 0.000752213,0.0176051 0.00225115,0.0174768 0.00373369,0.0172211 0.00518901,0.0168398 0.0066065,0.0163358 0.00797584,0.0157128 0.00928705,0.0149752 0.0105306,0.0141285 0.0116973,0.0131787 0.0127788,0.0121329 0.0137671,0.0109987 0.0146551,0.00978431 0.0154363,0.0084986 0.016105,0.00715094 0.0166562,0.00575115 0.0170861,0.00430944 0.0173914,0.00283633 0.01757,0.00134253 0.0176204,-0.000161045 0.0175425,-0.00166345 0.0173367,-0.00315373 0.0170045,-0.00462102 0.0165483,-0.00605463 0.560301,0.700228 -0.0327206,0.113793 -0.313312,-0.268579 -0.0596902,0.0348042 0.323564,0.440267 -1.05419,-1.31745 z "/>
<path fill="rgb(142,146,145)" stroke="rgb(142,146,145)" d="M 5.30514,7.24468 l -0.000691114,-0.0156613 -0.00206797,-0.0155395 -0.00342875,-0.015297 -0.00476287,-0.0149355 -0.00605996,-0.0144579 -0.00730995,-0.0138679 -0.0085031,-0.0131701 -0.00963015,-0.0123699 -0.0106823,-0.0114735 -0.0116515,-0.010488 -0.01253,-0.00942085 -0.0133112,-0.00828052 -0.0139888,-0.0070758 -0.0145577,-0.00581608 -0.0150134,-0.00451114 -0.0153524,-0.00317113 0.00785918,-0.0488271 0.0130489,0.000517927 0.0130439,-0.000630398 0.0129381,-0.00177385 0.0127323,-0.00290358 0.012428,-0.00401087 0.0120276,-0.00508714 0.142989,-0.0680372 0.674673,0.843163 -1.16418e-05,0.222858 -0.116597,0.0543767 -0.636563,-0.795536 0.000540226,-0.00617858 0.000324399,-0.00619366 0.000108177,-0.00620121 z "/>
<path fill="rgb(142,146,145)" stroke="rgb(142,146,145)" d="M 6.05738,6.93568 l -2.20936e-05,0.422936 -0.450615,-0.56315 0.105009,-0.161257 -0.0646528,-0.0721071 -0.118764,0.135374 -0.102495,-0.128092 0.00493034,-0.0421004 0.0865352,-0.266556 0.540076,0.674952 z "/>
<path fill="rgb(142,146,145)" stroke="rgb(142,146,145)" d="M 5.30646,6.13189 l 0.0101777,-0.121949 0.0368497,0.0460523 -0.0470274,0.075897 z "/>
<path fill="rgb(142,146,145)" stroke="rgb(142,146,145)" d="M 5.29639,8.22568 l 1.15609e-05,-0.22131 -8.219e-05,-0.00192419 -0.000246171,-0.00191015 -0.000408354,-0.00188216 -0.000567555,-0.00184042 -0.000722612,-0.00178524 -0.000872392,-0.00171703 -0.0010158,-0.00163628 -0.00115179,-0.00154358 -0.00127937,-0.00143961 -0.00139761,-0.00132512 -0.00150564,-0.00120096 -0.00160268,-0.00106803 -0.00168801,-0.000927299 -0.00176102,-0.000779796 -0.00182116,-0.000626599 -0.00186801,-0.000468826 -0.00190122,-0.00030763 -0.141738,-7.40421e-06 -0.00195071,8.50679e-05 -0.00193588,0.00025476 -0.00190631,0.000422514 -0.00186223,0.000587051 -0.00180398,0.000747121 -0.001732,0.000901505 -0.00164683,0.00104903 -0.00154914,0.00118857 -0.00143965,0.00131906 -0.00131921,0.00143952 -0.00118873,0.00154901 -0.0010492,0.00164672 -0.000901686,0.0017319 -0.00074731,0.0018039 -0.000587246,0.00186217 -0.000422713,0.00190626 -0.000254962,0.00193585 -8.52717e-05,0.00195071 -1.15609e-05,0.22131 -0.436416,-2.27978e-05 0.377062,-0.819453 0.0119962,0.00499714 0.0123292,0.00410754 0.0125963,0.00319601 0.604317,0.755236 -0.30337,0.141481 -0.0572047,-0.0895305 -0.0372964,-1.94831e-06 z "/>
<path fill="rgb(142,146,145)" stroke="rgb(142,146,145)" d="M 7.26344,6.8009 l -0.975504,-5.09589e-05 -0.626595,-0.783078 0.264312,-0.119603 -0.0173971,-0.124336 -0.360941,0.101436 -0.198716,-0.248342 0.0605942,-0.726038 2.64257,0 0.0261467,0.00114159 0.0259477,0.00341608 0.0255513,0.00566458 0.0249603,0.00786996 0.0241794,0.0100155 0.0232145,0.0120847 0.0220729,0.014062 0.0207634,0.0159323 0.0192958,0.0176813 -1.00046,1.81214 z "/>
<path fill="rgb(142,146,145)" stroke="rgb(142,146,145)" d="M 6.83623,9.60089 l -2.15906,0 0,-0.502408 0.169139,-0.00525393 0.168485,-0.0157591 0.16718,-0.0262034 0.139267,-0.335701 0.0696391,-0.0820565 1.66272e-05,-0.318294 0.30337,-0.141481 1.14197,1.42716 z "/>
<path fill="rgb(142,146,145)" stroke="rgb(142,146,145)" d="M 8.17043,9.57643 l -0.0227761,0.00872859 -0.0234099,0.00684948 -0.0238889,0.00492508 -0.0242101,0.00296813 -0.0243712,0.000991563 -0.200212,0 -0.732069,-0.914893 0.208501,-0.162392 0.842436,1.05282 z "/>
<path fill="rgb(142,146,145)" stroke="rgb(142,146,145)" d="M 7.17467,9.60089 l -1.23394,-1.5421 0.116597,-0.0543767 0.266083,0.196463 -1.59776e-05,0.305859 0.223799,1.16909e-05 5.90268e-06,-0.112995 0.965917,1.20714 -0.338443,0 z "/>
<path fill="rgb(142,146,145)" stroke="rgb(142,146,145)" d="M 8.35177,9.30089 l -0.000900367,0.0232252 -0.0026957,0.0230858 -0.00447485,0.0228078 -0.807207,-1.0088 0.457981,-0.356701 6.28729e-05,-1.20357 -0.19397,-1.01327e-05 -5.15715e-05,0.987231 -0.537125,-2.80586e-05 5.15715e-05,-0.987231 1.00046,-1.81214 0.0176813,0.0192958 0.0159323,0.0207634 0.014062,0.0220729 0.0120847,0.0232145 0.0100155,0.0241794 0.00786996,0.0249603 0.00566458,0.0255513 0.00341608,0.0259477 0.00114159,0.0261467 0,2.05 0,2.05 z "/>
<path fill="rgb(142,146,145)" stroke="rgb(142,146,145)" d="M 3.14912,8.42325 l -0.000141503,-0.00836676 -0.000424347,-0.00835719 -0.000706705,-0.00833806 0.815677,-0.0830482 -1.66272e-05,0.318294 0.0671313,0.0820637 0.141731,0.335715 0.167177,0.0262208 0.168484,0.0157767 0.169139,0.0052716 0,0.502408 -2.7254,0 -0.0261467,-0.00114159 -0.0259477,-0.00341608 -0.0255513,-0.00566458 -0.0249603,-0.00786996 -0.0241794,-0.0100155 -0.0232145,-0.0120847 -0.0220729,-0.014062 -0.0207634,-0.0159323 -0.0192958,-0.0176813 -0.0176813,-0.0192958 -0.0159323,-0.0207634 -0.014062,-0.0220729 -0.0120847,-0.0232145 -0.0100155,-0.0241794 -0.00786996,-0.0249603 -0.00566458,-0.0255513 -0.00341608,-0.0259477 -0.00114159,-0.0261467 0,-2.05 0,-2.05 0.00114159,-0.0261467 0.00341608,-0.0259477 0.00566458,-0.0255513 0.00786996,-0.0249603 0.0100155,-0.0241794 0.0120847,-0.0232145 0.014062,-0.0220729 0.0159323,-0.0207634 0.0176813,-0.0192958 0.0192958,-0.0176813 0.0207634,-0.0159323 0.0220729,-0.014062 0.0232145,-0.0120847 0.0241794,-0.0100155 0.0249603,-0.00786996 0.0255513,-0.00566458 0.0259477,-0.00341608 0.0261467,-0.00114159 0.880386,0 0,1.82768 -0.186476,-0.507306 -0.464973,-0.731099 -0.116883,0.106925 0.350581,0.790771 0.156625,0.73857 -2.68894e-05,0.514743 -0.131786,-0.106938 -0.0795477,-0.447601 -0.124335,-6.49507e-06 0.0322915,0.509766 0.392884,0.440171 0.0208335,0.0187055 0.0224617,0.0167154 0.0239004,0.0145842 0.0251376,0.0123301 0.0261628,0.00997191 0.0269673,0.00752965 0.0275443,0.00502389 0.0278891,0.00247575 0.0279986,-9.32625e-05 0.00214297,0.0522269 -0.0209486,0.00175335 -0.0207242,0.00352527 -0.0203501,0.00527174 -0.0198292,0.00698015 -0.0191651,0.00863817 -0.0183627,0.0102338 -0.0174277,0.0117556 -0.0163669,0.0131926 -0.015188,0.0145343 -0.0138994,0.0157711 -0.0125105,0.016894 -0.0110313,0.017895 -0.00947242,0.0187668 -0.00784519,0.0195031 -0.00616133,0.0200987 -0.004433,0.0205492 -0.00267266,0.0208513 -0.000893037,0.0210029 0.000941527,0.0215645 0.00281742,0.0214004 0.00467186,0.0210734 0.00649075,0.020586 0.00826025,0.019942 0.00996687,0.0191462 0.0115976,0.0182047 0.0131402,0.0171246 0.0145827,0.0159142 0.0159142,0.0145827 0.0171246,0.0131402 0.0182047,0.0115976 0.0191462,0.00996687 0.019942,0.00826025 0.020586,0.00649075 0.0210734,0.00467186 0.0214004,0.00281742 0.0215645,0.000941527 0.0215645,-0.000941527 0.0214004,-0.00281742 0.0210734,-0.00467186 0.020586,-0.00649075 0.019942,-0.00826025 0.0191462,-0.00996687 0.0182047,-0.0115976 0.0171246,-0.0131402 0.0159142,-0.0145827 0.0145827,-0.0159142 0.0131402,-0.0171246 0.0115976,-0.0182047 0.00996687,-0.0191462 0.00826025,-0.019942 0.00649075,-0.020586 0.00467186,-0.0210734 0.00281742,-0.0214004 0.000941527,-0.0215645 z "/>
<path fill="rgb(142,146,145)" stroke="rgb(142,146,145)" d="M 2.83215,6.72857 l 0,-1.82768 0.24328,0 0.469583,0.586854 -0.145834,-7.61814e-06 -0.567029,1.24083 z "/>
<path fill="rgb(142,146,145)" stroke="rgb(142,146,145)" d="M 4.76765,4.90089 l 0.641548,0 -0.0605942,0.726038 -0.580953,-0.726038 z "/>
<path fill="rgb(142,146,145)" stroke="rgb(142,146,145)" d="M 5.30646,6.13189 l -0.0911813,-0.248621 0.101359,0.126672 -0.0101777,0.121949 z "/>
<path fill="rgb(142,146,145)" stroke="rgb(142,146,145)" d="M 3.41388,4.90089 l 0.338443,0 0.527612,0.659376 -0.00905061,0.0139912 -0.00789245,0.0146757 -0.00668284,0.0152646 -0.00542968,0.0157539 -0.00414113,0.0161406 -0.29509,-0.0631339 -0.537768,-0.672068 z "/>
<path fill="rgb(142,146,145)" stroke="rgb(142,146,145)" d="M 4.4292,4.90089 l 0.480725,0.600779 -0.258743,0.0996031 -0.560424,-0.700382 0.338443,0 z "/>
<path fill="rgb(142,146,145)" stroke="rgb(142,146,145)" d="M 8.61786,9.71264 l -0.131556,-0.16441 0.0196904,-0.0383494 0.0163138,-0.039903 0.012816,-0.0411599 0.00922298,-0.0421109 0.00556135,-0.0427488 0.00185839,-0.043069 -1.77636e-15,-2.05 0.2,0 -1.77636e-15,2.05 -0.00282277,0.0628005 -0.00844553,0.062294 -0.0140002,0.0612851 -0.0194419,0.059782 -0.0247269,0.0577967 -0.0298124,0.0553452 -0.0346575,0.0524474 z "/>
<path fill="rgb(142,146,145)" stroke="rgb(142,146,145)" d="M 1.45177,9.30089 l 0.00190265,0.0435779 0.00569347,0.0432462 0.00944096,0.0425854 0.0131166,0.0416005 0.0166924,0.0402991 0.0201412,0.0386909 0.0234367,0.0367882 0.0265538,0.0346056 0.0294688,0.0321596 0.0321596,0.0294688 0.0346056,0.0265538 0.0367882,0.0234367 0.0386909,0.0201412 0.0402991,0.0166924 0.0416005,0.0131166 0.0425854,0.00944096 0.0432462,0.00569347 0.0435779,0.00190265 5.04449,0 0.160034,0.2 -5.20453,0 -0.061009,-0.00266371 -0.0605447,-0.00797086 -0.0596196,-0.0132173 -0.0582408,-0.0183632 -0.0564187,-0.0233694 -0.0541672,-0.0281977 -0.0515035,-0.0328114 -0.0484478,-0.0371753 -0.0450234,-0.0412564 -0.0412564,-0.0450234 -0.0371753,-0.0484478 -0.0328114,-0.0515035 -0.0281977,-0.0541672 -0.0233694,-0.0564187 -0.0183632,-0.0582408 -0.0132173,-0.0596196 -0.00797086,-0.0605447 -0.00266371,-0.061009 0,-2.05 0.2,-8.88178e-16 0,2.05 z "/>
<path fill="rgb(142,146,145)" stroke="rgb(142,146,145)" d="M 7.49474,10.0009 l -0.160034,-0.2 0.338443,0 0.160034,0.2 -0.338443,0 z "/>
<path fill="rgb(142,146,145)" stroke="rgb(142,146,145)" d="M 8.42421,9.89359 l -0.0484962,0.0278362 -0.0505633,0.0238765 -0.0523077,0.0197645 -0.0537184,0.0155263 -0.0547863,0.0111891 -0.152744,-0.19089 0.0401782,0 0.0428775,-0.00184187 0.0425616,-0.00551205 0.0419322,-0.00914162 0.0409937,-0.0127038 0.0397533,-0.0161725 0.03822,-0.0195219 0.126099,0.157591 z "/>
<path fill="rgb(142,146,145)" stroke="rgb(142,146,145)" d="M 1.25177,7.25089 l 0,-1.00266 0,-1.04734 0.00266371,-0.061009 0.00797086,-0.0605447 0.0132173,-0.0596196 0.0183632,-0.0582408 0.0233694,-0.0564187 0.0281977,-0.0541672 0.0328114,-0.0515035 0.0371753,-0.0484478 0.0412564,-0.0450234 0.0450234,-0.0412564 0.0484478,-0.0371753 0.0515035,-0.0328114 0.0541672,-0.0281977 0.0564187,-0.0233694 0.0582408,-0.0183632 0.0596196,-0.0132173 0.0605447,-0.00797086 0.061009,-0.00266371 0.803598,0 0.160034,0.2 -0.963631,0 -0.0435779,0.00190265 -0.0432462,0.00569347 -0.0425854,0.00944096 -0.0416005,0.0131166 -0.0402991,0.0166924 -0.0386909,0.0201412 -0.0367882,0.0234367 -0.0346056,0.0265538 -0.0321596,0.0294688 -0.0294688,0.0321596 -0.0265538,0.0346056 -0.0234367,0.0367882 -0.0201412,0.0386909 -0.0166924,0.0402991 -0.0131166,0.0416005 -0.00944096,0.0425854 -0.00569347,0.0432462 -0.00190265,0.0435779 0,2.05 -0.2,8.88178e-16 z "/>
<path fill="rgb(142,146,145)" stroke="rgb(142,146,145)" d="M 4.10914,4.50089 l 0.160034,0.2 -0.338443,0 -0.160034,-0.2 0.338443,0 z "/>
<path fill="rgb(142,146,145)" stroke="rgb(142,146,145)" d="M 3.09381,4.50089 l 0.338443,0 0.160034,0.2 -0.338443,0 -0.160034,-0.2 z "/>
<path fill="rgb(142,146,145)" stroke="rgb(142,146,145)" d="M 8.75177,6.24823 l 3.55271e-15,1.00266 -0.2,0 0,-2.05 -0.00190265,-0.0435779 -0.00569347,-0.0432462 -0.00944096,-0.0425854 -0.0131166,-0.0416005 -0.0166924,-0.0402991 -0.0201412,-0.0386909 -0.0234367,-0.0367882 -0.0265538,-0.0346056 -0.0294688,-0.0321596 -0.0321596,-0.0294688 -0.0346056,-0.0265538 -0.0367882,-0.0234367 -0.0386909,-0.0201412 -0.0402991,-0.0166924 -0.0416005,-0.0131166 -0.0425854,-0.00944096 -0.0432462,-0.00569347 -0.0435779,-0.00190265 -3.44416,0 -0.160034,-0.2 3.60419,0 0.061009,0.00266371 0.0605447,0.00797086 0.0596196,0.0132173 0.0582408,0.0183632 0.0564187,0.0233694 0.0541672,0.0281977 0.0515035,0.0328114 0.0484478,0.0371753 0.0450234,0.0412564 0.0412564,0.0450234 0.0371753,0.0484478 0.0328114,0.0515035 0.0281977,0.0541672 0.0233694,0.0564187 0.0183632,0.0582408 0.0132173,0.0596196 0.00797086,0.0605447 0.00266371,0.061009 -1.77636e-15,1.04734 z "/>
<path fill="rgb(241,240,234)" stroke="rgb(241,240,234)" d="M 7.33471,9.80089 l -0.160034,-0.2 0.338443,0 0.160034,0.2 -0.338443,0 z "/>
<path fill="rgb(241,240,234)" stroke="rgb(241,240,234)" d="M 8.29811,9.736 l -0.03822,0.0195219 -0.0397533,0.0161725 -0.0409937,0.0127038 -0.0419322,0.00914162 -0.0425616,0.00551205 -0.0428775,0.00184187 -0.0401782,0 -0.160034,-0.2 0.200212,0 0.0243712,-0.000991563 0.0242101,-0.00296813 0.0238889,-0.00492508 0.0234099,-0.00684948 0.0227761,-0.00872859 0.127682,0.159569 z "/>
<path fill="rgb(241,240,234)" stroke="rgb(241,240,234)" d="M 8.35177,9.30089 l 0,-2.05 0.2,0 1.77636e-15,2.05 -0.00185839,0.043069 -0.00556135,0.0427488 -0.00922298,0.0421109 -0.012816,0.0411599 -0.0163138,0.039903 -0.0196904,0.0383494 -0.142608,-0.178222 0.00447485,-0.0228078 0.0026957,-0.0230858 0.000900367,-0.0232252 z "/>
<path fill="rgb(241,240,234)" stroke="rgb(241,240,234)" d="M 1.45177,9.30089 l 0,-2.05 0.2,8.88178e-16 0,2.05 0.00114159,0.0261467 0.00341608,0.0259477 0.00566458,0.0255513 0.00786996,0.0249603 0.0100155,0.0241794 0.0120847,0.0232145 0.014062,0.0220729 0.0159323,0.0207634 0.0176813,0.0192958 0.0192958,0.0176813 0.0207634,0.0159323 0.0220729,0.014062 0.0232145,0.0120847 0.0241794,0.0100155 0.0249603,0.00786996 0.0255513,0.00566458 0.0259477,0.00341608 0.0261467,0.00114159 2.7254,0 2.15906,0 0.160034,0.2 -5.04449,0 -0.0435779,-0.00190265 -0.0432462,-0.00569347 -0.0425854,-0.00944096 -0.0416005,-0.0131166 -0.0402991,-0.0166924 -0.0386909,-0.0201412 -0.0367882,-0.0234367 -0.0346056,-0.0265538 -0.0321596,-0.0294688 -0.0294688,-0.0321596 -0.0265538,-0.0346056 -0.0234367,-0.0367882 -0.0201412,-0.0386909 -0.0166924,-0.0402991 -0.0131166,-0.0416005 -0.00944096,-0.0425854 -0.00569347,-0.0432462 -0.00190265,-0.0435779 z "/>
<path fill="rgb(241,240,234)" stroke="rgb(241,240,234)" d="M 1.45177,7.25089 l 0,-2.05 0.00190265,-0.0435779 0.00569347,-0.0432462 0.00944096,-0.0425854 0.0131166,-0.0416005 0.0166924,-0.0402991 0.0201412,-0.0386909 0.0234367,-0.0367882 0.0265538,-0.0346056 0.0294688,-0.0321596 0.0321596,-0.0294688 0.0346056,-0.0265538 0.0367882,-0.0234367 0.0386909,-0.0201412 0.0402991,-0.0166924 0.0416005,-0.0131166 0.0425854,-0.00944096 0.0432462,-0.00569347 0.0435779,-0.00190265 0.963631,0 0.160034,0.2 -0.24328,0 -0.880386,0 -0.0261467,0.00114159 -0.0259477,0.00341608 -0.0255513,0.00566458 -0.0249603,0.00786996 -0.0241794,0.0100155 -0.0232145,0.0120847 -0.0220729,0.014062 -0.0207634,0.0159323 -0.0192958,0.0176813 -0.0176813,0.0192958 -0.0159323,0.0207634 -0.014062,0.0220729 -0.0120847,0.0232145 -0.0100155,0.0241794 -0.00786996,0.0249603 -0.00566458,0.0255513 -0.00341608,0.0259477 -0.00114159,0.0261467 0,2.05 -0.2,-8.88178e-16 z "/>
<path fill="rgb(241,240,234)" stroke="rgb(241,240,234)" d="M 4.60761,4.70089 l 3.44416,0 0.0435779,0.00190265 0.0432462,0.00569347 0.0425854,0.00944096 0.0416005,0.0131166 0.0402991,0.0166924 0.0386909,0.0201412 0.0367882,0.0234367 0.0346056,0.0265538 0.0321596,0.0294688 0.0294688,0.0321596 0.0265538,0.0346056 0.0234367,0.0367882 0.0201412,0.0386909 0.0166924,0.0402991 0.0131166,0.0416005 0.00944096,0.0425854 0.00569347,0.0432462 0.00190265,0.0435779 0,2.05 -0.2,0 0,-2.05 -0.00114159,-0.0261467 -0.00341608,-0.0259477 -0.00566458,-0.0255513 -0.00786996,-0.0249603 -0.0100155,-0.0241794 -0.0120847,-0.0232145 -0.014062,-0.0220729 -0.0159323,-0.0207634 -0.0176813,-0.0192958 -0.0192958,-0.0176813 -0.0207634,-0.0159323 -0.0220729,-0.014062 -0.0232145,-0.0120847 -0.0241794,-0.0100155 -0.0249603,-0.00786996 -0.0255513,-0.00566458 -0.0259477,-0.00341608 -0.0261467,-0.00114159 -2.64257,0 -0.641548,0 -0.160034,-0.2 z "/>
<path fill="rgb(241,240,234)" stroke="rgb(241,240,234)" d="M 3.25384,4.70089 l 0.338443,0 0.160034,0.2 -0.338443,0 -0.160034,-0.2 z "/>
<path fill="rgb(241,240,234)" stroke="rgb(241,240,234)" d="M 4.26917,4.70089 l 0.160034,0.2 -0.338443,0 -0.160034,-0.2 0.338443,0 z "/>
<path fill="rgb(241,240,234)" stroke="rgb(241,240,234)" d="M 10.0035,6.25089 l -0.229744,0 0,-5.49085 -0.00199778,-0.0457568 -0.00597815,-0.0454085 -0.00991301,-0.0447147 -0.0137724,-0.0436806 -0.017527,-0.042314 -0.0211483,-0.0406254 -0.0246085,-0.0386276 -0.0278815,-0.0363359 -0.0309423,-0.0337676 -0.0337676,-0.0309423 -0.0363359,-0.0278815 -0.0386276,-0.0246085 -0.0406254,-0.0211483 -0.042314,-0.017527 -0.0436806,-0.0137724 -0.0447147,-0.00991301 -0.0454085,-0.00597815 -0.0457568,-0.00199778 -8.47818,-7.99361e-15 -0.0457568,0.00199778 -0.0454085,0.00597815 -0.0447147,0.00991301 -0.0436806,0.0137724 -0.042314,0.017527 -0.0406254,0.0211483 -0.0386276,0.0246085 -0.0363359,0.0278815 -0.0337676,0.0309423 -0.0309423,0.0337676 -0.0278815,0.0363359 -0.0246085,0.0386276 -0.0211483,0.0406254 -0.017527,0.042314 -0.0137724,0.0436806 -0.00991301,0.0447147 -0.00597815,0.0454085 -0.00199778,0.0457568 0,5.49085 -0.245616,1.77636e-15 0,-6.25089 10.0035,1.77636e-15 -1.77636e-15,6.25089 z "/>
<path fill="rgb(241,240,234)" stroke="rgb(241,240,234)" d="M 10.0035,6.25089 l -1.77636e-15,6.25089 -10.0035,0 0,-6.25089 0.245616,-1.77636e-15 0,5.48553 0.00199778,0.0457568 0.00597815,0.0454085 0.00991301,0.0447147 0.0137724,0.0436806 0.017527,0.042314 0.0211483,0.0406254 0.0246085,0.0386276 0.0278815,0.0363359 0.0309423,0.0337676 0.0337676,0.0309423 0.0363359,0.0278815 0.0386276,0.0246085 0.0406254,0.0211483 0.042314,0.017527 0.0436806,0.0137724 0.0447147,0.00991301 0.0454085,0.00597815 0.0457568,0.00199778 8.47818,1.06581e-14 0.0457568,-0.00199778 0.0454085,-0.00597815 0.0447147,-0.00991301 0.0436806,-0.0137724 0.042314,-0.017527 0.0406254,-0.0211483 0.0386276,-0.0246085 0.0363359,-0.0278815 0.0337676,-0.0309423 0.0309423,-0.0337676 0.0278815,-0.0363359 0.0246085,-0.0386276 0.0211483,-0.0406254 0.017527,-0.042314 0.0137724,-0.0436806 0.00991301,-0.0447147 0.00597815,-0.0454085 0.00199778,-0.0457568 1.77636e-15,-5.48553 0.229744,0 z "/>
<path fill="rgb(42,41,42)" stroke="rgb(42,41,42)" d="M 5.79884,3.12517 l -0.834088,0 -0.0376685,-0.586552 0.463861,-0.0107624 0.0613459,-0.00322873 0.0807182,-0.0161436 0.0581171,-0.0322873 0.0279823,-0.0258298 0.039821,-0.0656508 0.0129149,-0.079642 -0.00215249,-0.0365923 -0.0258298,-0.0731845 -0.0527359,-0.0559646 -0.0559646,-0.031211 -0.0764133,-0.0204486 -0.0914807,-0.00645746 0.464937,-0.00215249 0.0344398,0.0688796 0.0204486,0.075337 0.00645746,0.0817945 -0.00215249,0.0462784 -0.0139912,0.0785657 -0.0269061,0.0721083 -0.0408972,0.0667271 -0.0538122,0.0591934 -0.0473547,0.0376685 -0.0667271,0.039821 -0.477852,0.0204486 0.0129149,0.178656 0.616687,0 0.00538122,0.22063 z "/>
<path fill="rgb(42,41,42)" stroke="rgb(42,41,42)" d="M 5.40386,2.75494 l -0.0699558,-0.00322873 -0.0807182,-0.00968619 -0.0893282,-0.0161436 0.477852,-0.0204486 -0.0731845,0.0279823 -0.0785657,0.0161436 -0.0860994,0.00538122 z "/>
<path fill="rgb(42,41,42)" stroke="rgb(42,41,42)" d="M 4.92709,2.53862 l 0.223859,-0.0581171 0.00215249,0 0.079642,0.0258298 0.0785657,0.0161436 0.079642,0.00538122 -0.463861,0.0107624 z "/>
<path fill="rgb(42,41,42)" stroke="rgb(42,41,42)" d="M 5.00565,2.1813 l -0.118387,-0.187266 0.0193724,-0.0118387 0.0742608,-0.039821 0.075337,-0.0322873 0.0764133,-0.0247536 0.0774895,-0.0182961 0.0785657,-0.00968619 0.0785657,-0.00430497 0.00968619,0 0.0871757,0.00645746 0.0807182,0.0150674 0.0731845,0.0258298 0.0678033,0.035516 0.0602696,0.0452022 0.0376685,0.035516 0.0484309,0.0624221 -0.464937,0.00215249 -0.0570409,0.00215249 -0.079642,0.0107624 -0.0774895,0.0204486 -0.075337,0.0290586 -0.0721083,0.0376685 z "/>
<path fill="rgb(42,41,42)" stroke="rgb(42,41,42)" d="M 4.63758,3.12517 l -0.178656,0 -0.00322873,-0.00538122 -0.0505834,-0.0591934 -0.0645746,-0.044126 -0.0785657,-0.0279823 0.00430497,-0.178656 0.158208,0 -0.00538122,-0.934179 0.218477,0 0,1.24952 z "/>
<path fill="rgb(42,41,42)" stroke="rgb(42,41,42)" d="M 6.92567,11.465 l -0.729693,0 0,-0.99983 0.745836,0 0,0.178656 -0.563951,0 0,0.273366 0.299196,0 0,0.181885 -0.299196,0 0,0.18619 0.547808,0 0,0.179733 z "/>
<path fill="rgb(42,41,42)" stroke="rgb(42,41,42)" d="M 5.9366,11.465 l -0.172199,0 0,-0.660813 0.0193724,-0.339017 0.152827,0 0,0.99983 z "/>
<path fill="rgb(42,41,42)" stroke="rgb(42,41,42)" d="M 5.30592,11.465 l 0,-0.31211 0.477852,-0.687719 -0.0193724,0.339017 -0.45848,0.660813 z "/>
<path fill="rgb(42,41,42)" stroke="rgb(42,41,42)" d="M 5.30592,11.465 l -0.174351,0 0,-0.99983 0.174351,0 0,0.687719 0,0.31211 z "/>
<path fill="rgb(42,41,42)" stroke="rgb(42,41,42)" d="M 4.48583,11.4811 l -0.0699558,-0.00538122 -0.071032,-0.0161436 -0.0634983,-0.0269061 -0.0559646,-0.0387447 -0.0495072,-0.0505834 -0.0215249,-0.0269061 0.331483,-0.0129149 0.0645746,-0.00860994 0.0613459,-0.0301348 0.0484309,-0.0505834 0.0182961,-0.0301348 0.0236773,-0.0613459 0.0150674,-0.0731845 0.00430497,-0.0828707 0,-0.0204486 -0.00645746,-0.079642 -0.0161436,-0.0699558 -0.0247536,-0.0591934 -0.0107624,-0.0182961 -0.0462784,-0.0516597 -0.0591934,-0.0301348 -0.0721083,-0.0107624 0.321797,-0.00645746 0.0333635,0.0581171 0.0258298,0.0634983 0.0182961,0.0699558 0.0107624,0.075337 0.00322873,0.0817945 0,0.0387447 -0.0075337,0.0785657 -0.0150674,0.0731845 -0.0226011,0.0667271 -0.0301348,0.0602696 -0.0376685,0.0548884 -0.039821,0.0430497 -0.0559646,0.0419735 -0.0613459,0.0301348 -0.0678033,0.0182961 -0.075337,0.00645746 z "/>
<path fill="rgb(42,41,42)" stroke="rgb(42,41,42)" d="M 4.15434,11.3165 l -0.0322873,-0.0559646 -0.0258298,-0.0634983 -0.0182961,-0.0699558 -0.0107624,-0.0764133 -0.00430497,-0.083947 0.00107624,-0.0118387 0.00430497,-0.0785657 0.0129149,-0.0731845 0.0193724,-0.0688796 0.0279823,-0.0634983 0.035516,-0.0581171 0.0139912,-0.0193724 0.0484309,-0.0527359 0.0548884,-0.0408972 0.0613459,-0.0290586 0.0688796,-0.0172199 0.0742608,-0.00645746 0.0645746,0.00538122 0.0678033,0.0161436 0.0634983,0.0290586 0.0559646,0.0408972 0.0495072,0.0538122 0.0204486,0.0279823 -0.321797,0.00645746 -0.0656508,0.00860994 -0.0613459,0.0301348 -0.0495072,0.0516597 -0.0193724,0.031211 -0.0247536,0.0624221 -0.0150674,0.0721083 -0.00430497,0.083947 0.00107624,0.0484309 0.0107624,0.0764133 0.0215249,0.0667271 0.0301348,0.0559646 0.044126,0.0462784 0.0602696,0.0322873 0.0721083,0.0107624 -0.331483,0.0129149 z "/>
<path fill="rgb(42,41,42)" stroke="rgb(42,41,42)" d="M 3.89604,11.465 l -0.75337,0 0,-0.176504 0.535969,0 -0.568256,-0.620992 0,-0.202334 0.785657,0 0,0.178656 -0.563951,0 0.563951,0.616687 0,0.204486 z "/>
<path fill="rgb(42,41,42)" stroke="rgb(42,41,42)" d="M 8.16434,9.99178 l -0.0373403,0.00505626 -0.0375583,0.00303963 -0.0376674,0.00101419 -0.218587,0 -0.160034,-0.2 0.338443,0 0.152744,0.19089 z "/>
<path fill="rgb(42,41,42)" stroke="rgb(42,41,42)" d="M 0.508116,0.846493 l -1.77636e-15,-0.0864512 0.00110069,-0.0240135 0.00329283,-0.0238121 0.00545736,-0.0234111 0.00757613,-0.0228137 0.00963136,-0.0220249 0.0116058,-0.0210515 0.0134829,-0.0199015 0.015247,-0.0185847 0.0168832,-0.0171119 0.0183778,-0.0154957 3.15992,3.94907 -0.338443,0 -2.92414,-3.6544 z "/>
<path fill="rgb(42,41,42)" stroke="rgb(42,41,42)" d="M 9.51129,11.7364 l -0.00103268,0.0232613 -0.0030899,0.0230783 -0.00512282,0.0227137 -0.00711543,0.0221704 -0.00905205,0.0214526 -0.0109175,0.0205661 -0.012697,0.0195177 -0.0143766,0.0183158 -0.0159431,0.0169698 -0.0173841,0.0154902 -0.0186884,0.0138888 -1.56269,-1.95295 0.218587,0 0.0376674,-0.00101419 0.0375583,-0.00303963 0.0373403,-0.00505626 1.34696,1.68334 1.77636e-15,0.0612952 z "/>
<path fill="rgb(42,41,42)" stroke="rgb(42,41,42)" d="M 6.31596,7.78808 l 5.55153e-06,-0.106273 0.0850396,0.106277 -0.0850452,-4.44264e-06 z "/>
<path fill="rgb(42,41,42)" stroke="rgb(42,41,42)" d="M 6.31596,7.78808 l -0.151803,0.12697 -0.106823,-0.1335 2.20936e-05,-0.422936 0.258609,0.323193 -5.55153e-06,0.106273 z "/>
<path fill="rgb(42,41,42)" stroke="rgb(42,41,42)" d="M 6.05734,7.78155 l -0.674673,-0.843163 0.189828,-0.0903245 0.0342517,-0.0525985 0.450615,0.56315 -2.20936e-05,0.422936 z "/>
<path fill="rgb(42,41,42)" stroke="rgb(42,41,42)" d="M 5.08799,6.57012 l 0.0244789,-0.0851312 -0.0648563,-0.388294 0.378228,0.472685 -0.022442,0.191633 0.11936,-0.0571829 0.00557788,-0.00635797 0.0784083,0.0979896 -0.0342517,0.0525985 -0.189828,0.0903245 -0.294675,-0.368265 z "/>
<path fill="rgb(42,41,42)" stroke="rgb(42,41,42)" d="M 5.42584,6.56939 l 0.102495,0.128092 -0.00557788,0.00635797 -0.11936,0.0571829 0.022442,-0.191633 z "/>
<path fill="rgb(42,41,42)" stroke="rgb(42,41,42)" d="M 3.43225,4.50089 l 0.338443,0 0.160034,0.2 -0.338443,0 -0.160034,-0.2 z "/>
<path fill="rgb(42,41,42)" stroke="rgb(42,41,42)" d="M 4.65496,5.67927 l -0.000845854,0.0186667 -0.00253063,0.0185137 -0.00419466,0.0182089 -0.00582431,0.0177549 -0.00740623,0.0171554 -0.00892743,0.0164153 -0.0103755,0.0155406 -0.0117385,0.0145385 -0.0130052,0.0134173 -0.0141654,0.0121861 -0.0152095,0.010855 -0.0161289,0.00943496 -0.0169161,0.00793757 -0.247758,-0.309631 0.0108961,-0.014105 0.0120724,-0.0131123 0.0131587,-0.0120219 0.0141468,-0.0108418 0.0150294,-0.00958082 0.0158,-0.00824842 0.0164527,-0.00685452 0.0169827,-0.0054095 0.0173861,-0.00392414 0.0176598,-0.00240951 0.0178019,-0.000876918 0.0178111,0.000662216 0.0176876,0.00219641 0.0174321,0.00371423 0.0170467,0.00520434 0.0165341,0.00665565 0.0158983,0.00805732 0.0151438,0.00939891 0.0142765,0.0106704 0.0133026,0.0118623 0.0122296,0.0129658 0.0110654,0.0139726 0.00981864,0.0148751 0.00849867,0.0156668 0.00711532,0.0163416 0.00598987,0.0179827 0.00431493,0.0184564 0.0026036,0.0187744 0.000870314,0.0189341 z "/>
<path fill="rgb(42,41,42)" stroke="rgb(42,41,42)" d="M 7.04948,8.74053 l -0.502278,-0.373031 -1.3715e-06,0.0262545 -0.383038,-0.478696 0.151803,-0.12697 0.0850452,4.44264e-06 0.718479,0.897909 -0.0700111,0.0545284 z "/>
<path fill="rgb(42,41,42)" stroke="rgb(42,41,42)" d="M 3.75232,4.90089 l 0.338443,0 0.560424,0.700382 -0.0100076,0.00385244 -0.00711532,-0.0163416 -0.00849867,-0.0156668 -0.00981864,-0.0148751 -0.0110654,-0.0139726 -0.0122296,-0.0129658 -0.0133026,-0.0118623 -0.0142765,-0.0106704 -0.0151438,-0.00939891 -0.0158983,-0.00805732 -0.0165341,-0.00665565 -0.0170467,-0.00520434 -0.0174321,-0.00371423 -0.0176876,-0.00219641 -0.0178111,-0.000662216 -0.0178019,0.000876918 -0.0176598,0.00240951 -0.0173861,0.00392414 -0.0169827,0.0054095 -0.0164527,0.00685452 -0.0158,0.00824842 -0.0150294,0.00958082 -0.0141468,0.0108418 -0.0131587,0.0120219 -0.0120724,0.0131123 -0.0108961,0.014105 -0.527612,-0.659376 z "/>
<path fill="rgb(42,41,42)" stroke="rgb(42,41,42)" d="M 7.04948,8.74053 l 0.0700111,-0.0545284 0.732069,0.914893 -0.338443,0 -0.965917,-1.20714 1.3715e-06,-0.0262545 0.502278,0.373031 z "/>
<path fill="rgb(42,41,42)" stroke="rgb(42,41,42)" d="M 3.59229,4.70089 l 0.338443,0 0.160034,0.2 -0.338443,0 -0.160034,-0.2 z "/>
<path fill="rgb(42,41,42)" stroke="rgb(42,41,42)" d="M 8.01159,9.80089 l -0.338443,0 -0.160034,-0.2 0.338443,0 0.160034,0.2 z "/>
<path fill="rgb(42,41,42)" stroke="rgb(42,41,42)" d="M 4.65496,5.67927 l -0.000870314,-0.0189341 -0.0026036,-0.0187744 -0.00431493,-0.0184564 -0.00598987,-0.0179827 0.0100076,-0.00385244 0.396426,0.495428 0.0648563,0.388294 -0.0244789,0.0851312 -0.560301,-0.700228 0.0169161,-0.00793757 0.0161289,-0.00943496 0.0152095,-0.010855 0.0141654,-0.0121861 0.0130052,-0.0134173 0.0117385,-0.0145385 0.0103755,-0.0155406 0.00892743,-0.0164153 0.00740623,-0.0171554 0.00582431,-0.0177549 0.00419466,-0.0182089 0.00253063,-0.0185137 0.000845854,-0.0186667 z "/>
<path fill="rgb(42,41,42)" stroke="rgb(42,41,42)" d="M 4.60761,4.70089 l 0.160034,0.2 -0.338443,0 -0.160034,-0.2 0.338443,0 z "/>
<path fill="rgb(42,41,42)" stroke="rgb(42,41,42)" d="M 9.51129,10.8292 l 0,0.422964 -1.08709,-1.35857 0.0546699,-0.0380993 0.0507995,-0.043125 0.0464687,-0.0477599 0.0417169,-0.0519621 0.893432,1.11655 z "/>
<path fill="rgb(42,41,42)" stroke="rgb(42,41,42)" d="M 6.28794,6.80085 l -0.230548,-1.20435e-05 -7.044e-06,0.134843 -0.540076,-0.674952 0.0676534,-0.208394 0.0763823,-0.0345634 0.626595,0.783078 z "/>
<path fill="rgb(42,41,42)" stroke="rgb(42,41,42)" d="M 4.44758,4.50089 l 0.160034,0.2 -0.338443,0 -0.160034,-0.2 0.338443,0 z "/>
<path fill="rgb(42,41,42)" stroke="rgb(42,41,42)" d="M 3.17695,2.91294 l 0.166055,0.207524 0.0630658,0.147969 0.0762018,0.141652 0.0887121,0.134172 0.100494,0.125591 0.11145,0.115978 0.121492,0.105413 0.130535,0.0939817 0.166055,0.207524 -0.149717,-0.079632 -0.14191,-0.0928331 -0.132942,-0.105275 -0.122887,-0.116855 -0.111827,-0.12748 -0.0998518,-0.137062 -0.08706,-0.145523 -0.0735562,-0.152794 -0.0594506,-0.158814 -0.0448588,-0.163536 z "/>
<path fill="rgb(42,41,42)" stroke="rgb(42,41,42)" d="M 4.76765,4.90089 l 0.580953,0.726038 -0.0319659,0.383015 -0.101359,-0.126672 -0.145029,-0.395447 -0.124335,-6.49507e-06 -0.0359822,0.0138513 -0.480725,-0.600779 0.338443,0 z "/>
<path fill="rgb(42,41,42)" stroke="rgb(42,41,42)" d="M 4.90993,5.50167 l 0.0359822,-0.0138513 0.0124164,0.0743368 -0.0483986,-0.0604854 z "/>
<path fill="rgb(42,41,42)" stroke="rgb(42,41,42)" d="M 8.61786,9.71264 l -0.0417169,0.0519621 -0.0464687,0.0477599 -0.0507995,0.043125 -0.0546699,0.0380993 -0.126099,-0.157591 0.0379839,-0.0238145 0.0356981,-0.0271212 0.0331252,-0.0302097 0.030286,-0.0330555 0.0272034,-0.0356354 0.023902,-0.0379289 0.131556,0.16441 z "/>
<path fill="rgb(42,41,42)" stroke="rgb(42,41,42)" d="M 0.905782,0.497542 l 0.338443,0 1.93273,2.4154 0.0448588,0.163536 0.0594506,0.158814 0.0735562,0.152794 0.08706,0.145523 0.0998518,0.137062 0.111827,0.12748 0.122887,0.116855 0.132942,0.105275 0.14191,0.0928331 0.149717,0.079632 0.246568,0.308144 -0.338443,0 -3.20336,-4.00335 z "/>
<path fill="rgb(42,41,42)" stroke="rgb(42,41,42)" d="M 6.28794,6.80085 l 0.22088,0.276041 -0.192816,-1.00724e-05 -9.50704e-06,0.181993 -0.258609,-0.323193 7.044e-06,-0.134843 0.230548,1.20435e-05 z "/>
<path fill="rgb(42,41,42)" stroke="rgb(42,41,42)" d="M 5.54732,5.87527 l 0.114026,0.142502 -0.0763823,0.0345634 -0.0676534,0.208394 -0.163822,-0.204734 0.094723,-0.152873 0.0991087,-0.0278528 z "/>
<path fill="rgb(42,41,42)" stroke="rgb(42,41,42)" d="M 8.3437,9.37001 l -0.00689371,0.0244485 -0.00893725,0.0237776 -0.0109167,0.0229363 -0.0128179,0.0219306 -0.0146272,0.0207676 -0.0163317,0.0194558 -0.017919,0.0180044 -0.0193779,0.016424 -0.0206979,0.0147258 -0.0218694,0.012922 -0.0228842,0.0110256 -0.842436,-1.05282 0.208501,-0.162392 0.807207,1.0088 z "/>
<path fill="rgb(42,41,42)" stroke="rgb(42,41,42)" d="M 7.53649,8.36121 l -0.208501,0.162392 -0.588524,-0.7355 0.285211,1.4899e-05 3.47576e-06,-0.0665363 0.511811,0.639629 z "/>
<path fill="rgb(42,41,42)" stroke="rgb(42,41,42)" d="M 3.34301,3.12046 l 0.0630658,0.147969 0.0762018,0.141652 0.0887121,0.134172 0.100494,0.125591 0.11145,0.115978 0.121492,0.105413 0.130535,0.0939817 -0.691951,-0.864756 z "/>
<path fill="rgb(42,41,42)" stroke="rgb(42,41,42)" d="M 8.48631,9.54823 l -0.023902,0.0379289 -0.0272034,0.0356354 -0.030286,0.0330555 -0.0331252,0.0302097 -0.0356981,0.0271212 -0.0379839,0.0238145 -0.127682,-0.159569 0.0228842,-0.0110256 0.0218694,-0.012922 0.0206979,-0.0147258 0.0193779,-0.016424 0.017919,-0.0180044 0.0163317,-0.0194558 0.0146272,-0.0207676 0.0128179,-0.0219306 0.0109167,-0.0229363 0.00893725,-0.0237776 0.00689371,-0.0244485 0.142608,0.178222 z "/>
<path fill="rgb(42,41,42)" stroke="rgb(42,41,42)" d="M 4.95833,5.56215 l -0.0124164,-0.0743368 0.124335,6.49507e-06 0.145029,0.395447 -0.256948,-0.321117 z "/>
<path fill="rgb(42,41,42)" stroke="rgb(42,41,42)" d="M 7.02468,7.72158 l -3.47576e-06,0.0665363 -0.285211,-1.4899e-05 -0.423474,-0.529231 9.50704e-06,-0.181993 0.192816,1.00724e-05 0.515863,0.644692 z "/>
<path fill="rgb(42,41,42)" stroke="rgb(42,41,42)" d="M 5.3486,5.62693 l 0.198716,0.248342 -0.0991087,0.0278528 -0.094723,0.152873 -0.0368497,-0.0460523 0.0319659,-0.383015 z "/>
<path fill="rgb(42,41,42)" stroke="rgb(42,41,42)" d="M 3.55336,5.48774 l -0.0083403,-4.35685e-07 -0.469583,-0.586854 0.338443,0 0.537768,0.672068 -0.398287,-0.0852127 z "/>
<path fill="rgb(42,41,42)" stroke="rgb(42,41,42)" d="M 5.04779,6.9475 l -0.0419577,-0.0570911 0.0800832,0.100083 -0.0110591,-0.00930179 -0.0101027,-0.0103326 -0.0090507,-0.0112655 -0.00791296,-0.0120918 z "/>
<path fill="rgb(42,41,42)" stroke="rgb(42,41,42)" d="M 6.83623,9.60089 l -1.14197,-1.42716 0.246468,-0.114944 1.23394,1.5421 -0.338443,0 z "/>
<path fill="rgb(42,41,42)" stroke="rgb(42,41,42)" d="M 2.9154,4.70089 l 0.338443,0 0.160034,0.2 -0.338443,0 -0.160034,-0.2 z "/>
<path fill="rgb(42,41,42)" stroke="rgb(42,41,42)" d="M 3.55336,5.48774 l -0.00222151,0.00764644 -0.00611879,-0.00764687 0.0083403,4.35685e-07 z "/>
<path fill="rgb(42,41,42)" stroke="rgb(42,41,42)" d="M 8.75506,11.9989 l -1.59876,-1.99803 0.338443,0 1.59876,1.99803 -0.338443,0 z "/>
<path fill="rgb(42,41,42)" stroke="rgb(42,41,42)" d="M 0.508116,1.26946 l 2.58569,3.23143 -0.338443,0 -2.24725,-2.80847 -1.77636e-15,-0.422964 z "/>
<path fill="rgb(42,41,42)" stroke="rgb(42,41,42)" d="M 7.1563,10.0009 l -0.160034,-0.2 0.338443,0 0.160034,0.2 -0.338443,0 z "/>
<path fill="rgb(42,41,42)" stroke="rgb(42,41,42)" d="M 2.75537,4.50089 l 0.338443,0 0.160034,0.2 -0.338443,0 -0.160034,-0.2 z "/>
<path fill="rgb(42,41,42)" stroke="rgb(42,41,42)" d="M 3.55336,5.48774 l 0.398287,0.0852127 1.05419,1.31745 0.0419577,0.0570911 0.00791296,0.0120918 0.0090507,0.0112655 0.0101027,0.0103326 0.0110591,0.00930179 0.0620878,0.0775934 -0.0156567,-0.00113383 -0.0156957,0.000251579 -0.0156123,0.00163503 -0.0154072,0.00300573 -0.0150821,0.004353 -0.0146393,0.00566634 -0.0140825,0.00693551 -0.0134158,0.00815062 -0.0126446,0.00930219 -0.0117748,0.0103812 -0.0108133,0.0113794 -0.00976741,0.0122888 -0.00864541,0.0131024 -0.00745601,0.0138139 -0.0062085,0.0144177 -0.00491259,0.0149092 -0.00357839,0.0152844 -0.00221629,0.0155404 -0.00083691,0.0156753 -1.39842,-1.74766 0.00222151,-0.00764644 z "/>
<path fill="rgb(42,41,42)" stroke="rgb(42,41,42)" d="M 5.08995,7.4185 l -0.140389,-0.17545 0.00083691,-0.0156753 0.00221629,-0.0155404 0.00357839,-0.0152844 0.00491259,-0.0149092 0.0062085,-0.0144177 0.00745601,-0.0138139 0.00864541,-0.0131024 0.00976741,-0.0122888 0.0108133,-0.0113794 0.0117748,-0.0103812 0.0126446,-0.00930219 0.0134158,-0.00815062 0.0140825,-0.00693551 0.0146393,-0.00566634 0.0150821,-0.004353 0.0154072,-0.00300573 0.0156123,-0.00163503 0.0156957,-0.000251579 0.0156567,0.00113383 0.156165,0.195165 -0.00232745,0.0155242 -0.00368768,0.0152584 -0.00501917,0.0148736 -0.00631153,0.0143729 -0.00755469,0.0137602 -0.00873896,0.0130402 -0.00985511,0.0122186 -0.0108944,0.0113017 -0.0118488,0.0102967 -0.0127109,0.00921145 -0.0134738,0.00805439 -0.0141317,0.00683455 -0.0146795,0.00556143 -0.0151128,0.00424495 -0.0154283,0.00289539 -0.0156236,0.00152325 -0.0156971,0.000139239 -0.0156482,-0.00124586 -0.0154773,-0.00262124 z "/>
<path fill="rgb(42,41,42)" stroke="rgb(42,41,42)" d="M 5.69426,8.17373 l -0.604317,-0.755236 0.0154773,0.00262124 0.0156482,0.00124586 0.0156971,-0.000139239 0.0156236,-0.00152325 0.0154283,-0.00289539 0.0151128,-0.00424495 0.0146795,-0.00556143 0.0141317,-0.00683455 0.0134738,-0.00805439 0.0127109,-0.00921145 0.0118488,-0.0102967 0.0108944,-0.0113017 0.00985511,-0.0122186 0.00873896,-0.0130402 0.00755469,-0.0137602 0.00631153,-0.0143729 0.00501917,-0.0148736 0.00368768,-0.0152584 0.00232745,-0.0155242 0.636563,0.795536 -0.246468,0.114944 z "/>
<path fill="rgb(42,41,42)" stroke="rgb(42,41,42)" d="M 6.99626,9.80089 l -0.160034,-0.2 0.338443,0 0.160034,0.2 -0.338443,0 z "/>
<path fill="rgb(42,41,42)" stroke="rgb(42,41,42)" d="M 0.508116,11.7364 l 0.000998892,0.0228784 0.00298907,0.0227043 0.00495651,0.0223574 0.00688622,0.0218403 0.00876352,0.021157 0.0105741,0.0203127 0.0123043,0.0193138 0.0139407,0.0181679 0.0154711,0.0168838 0.0168838,0.0154711 0.0181679,0.0139407 0.0193138,0.0123043 0.0203127,0.0105741 0.021157,0.00876352 0.0218403,0.00688622 0.0223574,0.00495651 0.0227043,0.00298907 0.0228784,0.000998892 7.98444,7.10543e-15 0.338443,0 0.155294,1.77636e-15 0.0222765,-0.000946935 0.0221158,-0.00283397 0.0217955,-0.00470057 0.021318,-0.00653324 0.0206867,-0.00831879 0.0199061,-0.0100443 0.0189819,-0.0116974 0.0186884,-0.0138888 0.0173841,-0.0154902 0.0159431,-0.0169698 0.0143766,-0.0183158 0.012697,-0.0195177 0.0109175,-0.0205661 0.00905205,-0.0214526 0.00711543,-0.0221704 0.00512282,-0.0227137 0.0030899,-0.0230783 0.00103268,-0.0232613 -1.77636e-15,-0.0612952 3.55271e-15,-0.422964 0,-0.422964 0,-4.57831 0.2625,-8.88178e-16 -1.77636e-15,5.48553 -0.00199778,0.0457568 -0.00597815,0.0454085 -0.00991301,0.0447147 -0.0137724,0.0436806 -0.017527,0.042314 -0.0211483,0.0406254 -0.0246085,0.0386276 -0.0278815,0.0363359 -0.0309423,0.0337676 -0.0337676,0.0309423 -0.0363359,0.0278815 -0.0386276,0.0246085 -0.0406254,0.0211483 -0.042314,0.017527 -0.0436806,0.0137724 -0.0447147,0.00991301 -0.0454085,0.00597815 -0.0457568,0.00199778 -8.47818,-1.06581e-14 -0.0457568,-0.00199778 -0.0454085,-0.00597815 -0.0447147,-0.00991301 -0.0436806,-0.0137724 -0.042314,-0.017527 -0.0406254,-0.0211483 -0.0386276,-0.0246085 -0.0363359,-0.0278815 -0.0337676,-0.0309423 -0.0309423,-0.0337676 -0.0278815,-0.0363359 -0.0246085,-0.0386276 -0.0211483,-0.0406254 -0.017527,-0.042314 -0.0137724,-0.0436806 -0.00991301,-0.0447147 -0.00597815,-0.0454085 -0.00199778,-0.0457568 0,-5.48553 0.2625,8.88178e-16 0,5.48553 z "/>
<path fill="rgb(42,41,42)" stroke="rgb(42,41,42)" d="M 0.508116,6.25089 l -0.2625,-8.88178e-16 0,-5.49085 0.00199778,-0.0457568 0.00597815,-0.0454085 0.00991301,-0.0447147 0.0137724,-0.0436806 0.017527,-0.042314 0.0211483,-0.0406254 0.0246085,-0.0386276 0.0278815,-0.0363359 0.0309423,-0.0337676 0.0337676,-0.0309423 0.0363359,-0.0278815 0.0386276,-0.0246085 0.0406254,-0.0211483 0.042314,-0.017527 0.0436806,-0.0137724 0.0447147,-0.00991301 0.0454085,-0.00597815 0.0457568,-0.00199778 8.47818,7.99361e-15 0.0457568,0.00199778 0.0454085,0.00597815 0.0447147,0.00991301 0.0436806,0.0137724 0.042314,0.017527 0.0406254,0.0211483 0.0386276,0.0246085 0.0363359,0.0278815 0.0337676,0.0309423 0.0309423,0.0337676 0.0278815,0.0363359 0.0246085,0.0386276 0.0211483,0.0406254 0.017527,0.042314 0.0137724,0.0436806 0.00991301,0.0447147 0.00597815,0.0454085 0.00199778,0.0457568 0,5.49085 -0.2625,8.88178e-16 -1.77636e-15,-0.00265976 0,-5.48819 -0.000998892,-0.0228784 -0.00298907,-0.0227043 -0.00495651,-0.0223574 -0.00688622,-0.0218403 -0.00876352,-0.021157 -0.0105741,-0.0203127 -0.0123043,-0.0193138 -0.0139407,-0.0181679 -0.0154711,-0.0168838 -0.0168838,-0.0154711 -0.0181679,-0.0139407 -0.0193138,-0.0123043 -0.0203127,-0.0105741 -0.021157,-0.00876352 -0.0218403,-0.00688622 -0.0223574,-0.00495651 -0.0227043,-0.00298907 -0.0228784,-0.000998892 -8.00457,-8.88178e-15 -0.338443,0 -0.135165,0 -0.0214588,0.000878579 -0.0213152,0.00262986 -0.0210289,0.00436353 -0.0206018,0.00606799 -0.0200368,0.00773184 -0.0193377,0.00934393 -0.0185091,0.0108935 -0.0175566,0.0123701 -0.0183778,0.0154957 -0.0168832,0.0171119 -0.015247,0.0185847 -0.0134829,0.0199015 -0.0116058,0.0210515 -0.00963136,0.0220249 -0.00757613,0.0228137 -0.00545736,0.0234111 -0.00329283,0.0238121 -0.00110069,0.0240135 1.77636e-15,0.0864512 -1.77636e-15,0.422964 1.77636e-15,0.422964 -1.77636e-15,4.55581 0,0.00265976 z "/>
</g></g></svg>
