<?xml version="1.0" encoding="UTF-8" standalone="no"?>
<!DOCTYPE svg PUBLIC "-//W3C//DTD SVG 1.1//EN" "http://www.w3.org/Graphics/SVG/1.1/DTD/svg11-flat.dtd"
[

]>
<svg xmlns="http://www.w3.org/2000/svg"  viewBox="-0.112544 -0.112544 9.22863 12.226"><g fill="none" stroke="black" stroke-width="0.0125" transform="translate(0,12.0009) scale(1, -1)">
<g id="Output" >
<path fill="rgb(200,225,100)" stroke="rgb(200,225,100)" d="M 8.90354,7.5 l -2.43406,0 1.56521,-3.13043 0.0108029,-0.0242283 0.00862033,-0.0250879 0.00637039,-0.0257513 0.00407065,-0.0262134 0.00173907,-0.0264705 -0.000606098,-0.0265207 -0.00294653,-0.0263634 -0.00526392,-0.0260001 -0.00754016,-0.0254334 -0.00975744,-0.0246679 -0.0118984,-0.0237095 -0.0139464,-0.0225657 -0.0158853,-0.0212455 -0.0177,-0.0197591 -0.0193763,-0.0181183 -0.0209011,-0.0163358 -0.0222624,-0.0144255 -0.0234497,-0.0124025 -0.0244537,-0.0102825 -0.0252664,-0.00808209 -0.0258816,-0.00581849 -0.0262944,-0.00350939 -0.0265016,-0.00117285 -3.26459,1.77636e-15 -3.26459,0 -0.0265016,0.00117285 -0.0262944,0.00350939 -0.0258816,0.00581849 -0.0252664,0.00808209 -0.0244537,0.0102825 -0.0234497,0.0124025 -0.0222624,0.0144255 -0.0209011,0.0163358 -0.0193763,0.0181183 -0.0177,0.0197591 -0.0158853,0.0212455 -0.0139464,0.0225657 -0.0118984,0.0237095 -0.00975744,0.0246679 -0.00754016,0.0254334 -0.00526392,0.0260001 -0.00294653,0.0263634 -0.000606098,0.0265207 0.00173907,0.0264705 0.00407065,0.0262134 0.00637039,0.0257513 0.00862033,0.0250879 0.0108029,0.0242283 1.56521,3.13043 -2.43406,0 0,-7.25 0.000570795,-0.0130734 0.00170804,-0.0129739 0.00283229,-0.0127756 0.00393498,-0.0124802 0.00500773,-0.0120897 0.00604236,-0.0116073 0.007031,-0.0110365 0.00796614,-0.0103817 0.00884065,-0.00964788 0.00964788,-0.00884065 0.0103817,-0.00796614 0.0110365,-0.007031 0.0116073,-0.00604236 0.0120897,-0.00500773 0.0124802,-0.00393498 0.0127756,-0.00283229 0.0129739,-0.00170804 0.0130734,-0.000570795 8.50354,8.88178e-16 0.0130734,0.000570795 0.0129739,0.00170804 0.0127756,0.00283229 0.0124802,0.00393498 0.0120897,0.00500773 0.0116073,0.00604236 0.0110365,0.007031 0.0103817,0.00796614 0.00964788,0.00884065 0.00884065,0.00964788 0.00796614,0.0103817 0.007031,0.0110365 0.00604236,0.0116073 0.00500773,0.0120897 0.00393498,0.0124802 0.00283229,0.0127756 0.00170804,0.0129739 0.000570795,0.0130734 0,7.25 z "/>
<path fill="rgb(200,225,100)" stroke="rgb(200,225,100)" d="M 8.90354,7.5 l 0,4.25089 -0.000570795,0.0130734 -0.00170804,0.0129739 -0.00283229,0.0127756 -0.00393498,0.0124802 -0.00500773,0.0120897 -0.00604236,0.0116073 -0.007031,0.0110365 -0.00796614,0.0103817 -0.00884065,0.00964788 -0.00964788,0.00884065 -0.0103817,0.00796614 -0.0110365,0.007031 -0.0116073,0.00604236 -0.0120897,0.00500773 -0.0124802,0.00393498 -0.0127756,0.00283229 -0.0129739,0.00170804 -0.0130734,0.000570795 -8.50354,0 -0.0130734,-0.000570795 -0.0129739,-0.00170804 -0.0127756,-0.00283229 -0.0124802,-0.00393498 -0.0120897,-0.00500773 -0.0116073,-0.00604236 -0.0110365,-0.007031 -0.0103817,-0.00796614 -0.00964788,-0.00884065 -0.00884065,-0.00964788 -0.00796614,-0.0103817 -0.007031,-0.0110365 -0.00604236,-0.0116073 -0.00500773,-0.0120897 -0.00393498,-0.0124802 -0.00283229,-0.0127756 -0.00170804,-0.0129739 -0.000570795,-0.0130734 0,-4.25089 2.43406,0 1.69938,3.39875 0.0123848,0.0223384 0.0142401,0.0212039 0.0159921,0.0199158 0.0176283,0.0184833 0.0191366,0.0169168 0.0205062,0.0152277 0.0217272,0.0134282 0.0227907,0.0115313 0.023689,0.00955089 0.0244155,0.00750124 0.0249651,0.00539721 0.0253337,0.00325405 0.0255187,0.00108731 0.0255187,-0.00108731 0.0253337,-0.00325405 0.0249651,-0.00539721 0.0244155,-0.00750124 0.023689,-0.00955089 0.0227907,-0.0115313 0.0217272,-0.0134282 0.0205062,-0.0152277 0.0191366,-0.0169168 0.0176283,-0.0184833 0.0159921,-0.0199158 0.0142401,-0.0212039 0.0123848,-0.0223384 1.69938,-3.39875 2.43406,0 z "/>
<path fill="rgb(241,240,234)" stroke="rgb(241,240,234)" d="M 4.03161,8.03541 l 0.5,0 0,0.88065 -0.0298374,0.0596748 -0.470163,-0.940325 z "/>
<path fill="rgb(241,240,234)" stroke="rgb(241,240,234)" d="M 4.94389,6.03541 l 0.0268541,-0.0553577 0.159538,-0.0366754 0.15599,-0.0496436 0.15139,-0.0622768 0.0939446,-0.048007 0,0.251961 -0.587717,0 z M 4.73443,6.03541 l 0.105554,-0.0226774 -0.00700458,0.0226774 -0.0985496,0 z M 5.53161,5.03541 l 0,0.496536 -0.0163561,0.0236999 -0.0222293,0.0270956 -0.0243987,0.0251599 -0.0731379,0.063572 -0.078411,0.056941 -0.0830847,0.0498747 -0.0871233,0.0424273 -0.0904961,0.0346555 -0.0931772,0.0266189 -0.00598257,-0.0228693 -0.00794535,-0.0222636 -0.00984814,-0.0214898 -0.0116766,-0.0205537 -0.0134168,-0.0194624 -0.0150558,-0.0182242 -0.016581,-0.0168483 -0.0179811,-0.0153453 -0.0192454,-0.0137263 -0.0203644,-0.0120037 -0.0213296,-0.0101905 -0.0221337,-0.00830035 -0.0681089,-0.0191773 -0.0694469,-0.0135544 -0.0703215,-0.00784108 -0.042148,-0.00123679 0,-0.603493 1,0 z M 4.53161,5.74738 l 0.038306,0.0014544 0.069049,0.00746977 0.0683598,0.0122681 0.0144493,0.00380554 0.0140483,0.00509009 0.0135334,0.00633335 0.0129087,0.00752524 0.0121793,0.0086561 0.0113511,0.00971675 0.0104309,0.0106986 0.00942604,0.0115937 0.00834475,0.0123947 0.00719578,0.0130952 0.00598844,0.0136895 0.00473253,0.0141727 0.00343824,0.014541 0.00211606,0.0147914 -0.284693,0.0643219 -0.0211645,0.00456714 0,-0.236185 z "/>
<path fill="rgb(241,240,234)" stroke="rgb(241,240,234)" d="M 5.47193,7.03541 l -0.5,1 -0.440325,0 0,-0.605897 0.14509,-0.0463927 0.200416,-0.0851955 0.191692,-0.103338 0.00642473,-0.159177 0.396702,0 z "/>
<path fill="rgb(241,240,234)" stroke="rgb(241,240,234)" d="M 4.53161,8.03541 l 0.440325,0 -0.440325,0.88065 0,-0.88065 z "/>
<path fill="rgb(241,240,234)" stroke="rgb(241,240,234)" d="M 5.53161,6.03541 l 0,-0.251961 0.0518247,-0.0264831 0.139165,-0.0862008 1.42109e-14,-8.88178e-15 0.0293638,-0.0263929 0.0269595,-0.0288445 0.0243513,-0.0310778 0.021559,-0.0330761 0.0186035,-0.0348242 0.0254281,-0.0605731 0.0192926,-0.0627972 0.0129666,-0.0644015 -0.301736,0 -0.00371446,0.0348499 -0.00659027,0.0344221 -0.00942073,0.0337574 -0.0121864,0.0328604 -0.0148681,0.0317373 -0.0174476,0.0303957 -0.0035508,0.00514507 0,-0.496536 0.940325,8.88178e-16 -0.5,1 -0.440325,0 z "/>
<path fill="rgb(241,240,234)" stroke="rgb(241,240,234)" d="M 5.53161,6.03541 l 0.440325,0 -0.440325,0.88065 0,-0.88065 z "/>
<path fill="rgb(241,240,234)" stroke="rgb(241,240,234)" d="M 4.0479,7.15184 l -0.0402314,0.0150817 -0.0578403,-0.153375 0.0402314,-0.0151021 0.0578403,0.153395 z "/>
<path fill="rgb(241,240,234)" stroke="rgb(241,240,234)" d="M 4.17865,7.28511 l 0.81221,-0.301746 -0.00251702,0.158429 -0.13122,0.0755214 -0.136948,0.0645556 -0.141761,0.0531587 -0.145628,0.0414069 -0.148523,0.0293786 -0.105613,-0.120704 z "/>
<path fill="rgb(241,240,234)" stroke="rgb(241,240,234)" d="M 4.35718,6.95569 l -0.0301736,-0.0829799 0.304263,-0.113143 0.0326804,0.0829799 -0.30677,0.113143 z "/>
<path fill="rgb(241,240,234)" stroke="rgb(241,240,234)" d="M 5.00091,6.79477 l -0.0553131,-0.153395 0.0402314,-0.0150817 0.0553131,0.153395 -0.0402314,0.0150817 z "/>
<path fill="rgb(241,240,234)" stroke="rgb(241,240,234)" d="M 5.47193,7.03541 l -0.396702,0 0.00616037,-0.152627 0.0301633,-0.0880139 -0.0955445,-0.256491 -0.0729322,-0.0553131 -0.0276668,0.0125646 -0.0678777,-0.178524 -0.000598788,-0.00139019 -0.000716979,-0.00133309 -0.000829778,-0.00126596 -0.000936338,-0.00118931 -0.00103586,-0.00110371 -0.00112758,-0.00100982 -0.00121083,-0.000908329 -0.00128497,-0.00080001 -0.00134945,-0.000685675 -0.00140379,-0.000566183 -0.00144756,-0.000442434 -0.00148045,-0.000315357 -0.0015022,-0.000185909 -0.00151266,-5.50624e-05 -0.00151174,7.6198e-05 -0.00149946,0.000206885 -0.0014759,0.000336017 -0.00144123,0.000462622 -0.115948,0.0428498 -5.68958e-10,2.10265e-10 -1.78161e-09,6.58411e-10 -0.00139773,0.000587475 -0.00134084,0.000707761 -0.00127363,0.000822595 -0.0011966,0.000931094 -0.00111036,0.00103242 -0.00101556,0.0011258 -0.000912946,0.0012105 -0.000803298,0.00128589 -0.000687463,0.00135136 -0.000566333,0.00140643 -0.000440841,0.00145067 -0.000311954,0.00148374 -0.000180665,0.00150537 -4.79833e-05,0.00151542 8.50674e-05,0.00151379 0.000217463,0.0015005 0.000348184,0.00147566 0.000476223,0.00143944 0.0680101,0.178832 -0.235463,0.0874525 0,-0.559332 0.20282,-0.0435742 0.0985496,0 -0.00624719,0.0202253 -0.0171527,0.0414974 -0.0209074,0.0397383 -0.0244839,0.0376403 -0.0278515,0.0352213 -0.0309817,0.0325021 -0.0338477,0.0295057 0.14081,-0.0527961 0.0474636,-0.0541689 0.0424444,-0.0581854 0.037087,-0.0617383 0.00458013,-0.00944161 0.587717,0 0,0.88065 -0.0596748,0.11935 z "/>
<path fill="rgb(241,240,234)" stroke="rgb(241,240,234)" d="M 3.53161,5.68231 l 0,0.3531 -0.5,0 -0.5,-1 1,-8.88178e-16 0,0.505495 -0.06695,-0.0272338 -0.101931,-0.0527422 -0.0967066,-0.0618022 -0.0906791,-0.070349 -0.349528,0 0.063531,0.0625856 0.0686793,0.0568884 0.0733185,0.0507695 0.0774141,0.0442741 0.0809358,0.0374505 0.0838574,0.0303493 0.170792,0.0497203 0.087267,0.0214937 z "/>
<path fill="rgb(241,240,234)" stroke="rgb(241,240,234)" d="M 3.03161,6.03541 l 0.5,0 0,1 -0.5,-1 z "/>
<path fill="rgb(241,240,234)" stroke="rgb(241,240,234)" d="M 4.53161,5.03541 l 0,0.603493 -0.0285789,-0.000838617 -0.41311,0.00475885 -3.37508e-14,0 -0.137657,-0.00638931 -0.136684,-0.0175456 -0.134808,-0.028586 -0.109804,-0.0333871 -0.0393591,-0.0160104 0,-0.505495 0.970163,0 0.0298374,0 z M 3.53161,5.68231 l 0.0854531,0.021047 0.174347,0.0352868 0.117376,0.0166893 0.118298,0.00783336 0.118552,-0.00106678 0.277907,-0.012948 3.01981e-14,0 0.0769711,-0.00295678 0.0310959,0.00118065 0,0.236185 -0.240276,0.0518499 -0.759724,0 0,-0.3531 z "/>
<path fill="rgb(241,240,234)" stroke="rgb(241,240,234)" d="M 3.89254,7.03541 l -0.360934,0 0,-1 0.759724,0 -0.023861,0.00514904 -0.285884,0.0588045 -0.0856747,0.0209816 -0.0836042,0.0281195 -0.0809403,0.0350579 -0.0777016,0.0417473 -0.0739114,0.0481403 -0.00651175,0.00508932 -0.00603985,0.00564129 -0.00552133,0.00614971 -0.00496018,0.00661065 -0.00436073,0.00702054 -0.00372762,0.00737624 -0.00306572,0.00767498 -0.00238016,0.00791447 -0.00167622,0.00809286 -0.000959334,0.00820876 -0.000235045,0.00826128 0.000491059,0.00825002 0.00121337,0.00817507 0.00192632,0.008037 0.00262439,0.00783688 0.0033022,0.00757625 0.00395451,0.00725712 0.0045763,0.00688197 0.0208326,0.0259411 0.0231199,0.023925 0.0252131,0.021708 0.0270946,0.0193086 0.0540137,0.0328644 0.0556916,0.0299331 0.0572106,0.0269163 0.118187,-0.0427484 -0.0440238,-0.0139478 -0.0427424,-0.0174848 -0.0411774,-0.0209058 -0.0393392,-0.0241881 -0.0372399,-0.0273098 -0.00333754,-0.00290292 -0.00307989,-0.00317496 -0.00280015,-0.00342421 -0.00250032,-0.0036489 -0.00218255,-0.00384741 -0.00184912,-0.00401831 -0.00150243,-0.00416039 -0.00114495,-0.00427261 -0.000779259,-0.00435418 -0.000407977,-0.0044045 -3.37672e-05,-0.00442323 0.000340684,-0.00441022 0.00159861,-0.00975519 0.00243001,-0.00958198 0.00324348,-0.00933805 0.004033,-0.0090252 0.00479276,-0.00864574 0.00551715,-0.00820246 0.00620082,-0.00769865 0.00683872,-0.00713802 0.00742614,-0.0065247 0.00795876,-0.00586323 0.00843264,-0.00515848 0.0972009,-0.0485764 0.10098,-0.0401327 0.104028,-0.0313982 0.140852,-0.0350759 0.141295,-0.0332454 0.141715,-0.0314093 1.5099e-14,-3.55271e-15 0.0310959,-0.00668069 0,0.559332 -0.468628,0.174052 -0.0653812,-0.178524 -0.000579594,-0.00139109 -0.000698848,-0.00133516 -0.000812763,-0.00126904 -0.00092047,-0.00119322 -0.00102114,-0.00110829 -0.00111402,-0.0010149 -0.00119838,-0.000913744 -0.00127359,-0.000805613 -0.00133907,-0.000691328 -0.00139432,-0.000571761 -0.00143892,-0.000447827 -0.00147253,-0.000320472 -0.00149489,-0.000190669 -0.00150583,-5.94086e-05 -0.00150526,7.23051e-05 -0.0014932,0.000203466 -0.00146973,0.000333073 -0.00143503,0.000460136 -0.116126,0.0429242 -2.19799e-09,8.12452e-10 -0.00138764,0.000582772 -0.00133169,0.000701267 -0.00126564,0.000814446 -0.00119,0.000921451 -0.00110534,0.00102147 -0.00101229,0.00111375 -0.000911577,0.00119758 -0.000803951,0.00127233 -0.000690229,0.00133744 -0.000571276,0.00139241 -0.000447991,0.00143683 -0.000321311,0.00147035 -0.000192195,0.00149273 -6.16214e-05,0.00150379 6.9419e-05,0.00150345 0.000199933,0.00149171 0.000328932,0.00146866 0.000455436,0.00143448 0.065553,0.17902 -0.0301736,0.0100476 -0.0175987,0.0880139 0.0256957,0.0696471 z "/>
<path fill="rgb(241,240,234)" stroke="rgb(241,240,234)" d="M 3.53161,7.03541 l 0.360934,0 0.069859,0.18935 0.0804628,0.0452655 0.213742,0.226307 0.212665,-0.0468874 0.0623366,-0.0199322 0,0.605897 -0.5,0 -0.5,-1 z "/>
<path fill="rgb(241,240,234)" stroke="rgb(241,240,234)" d="M 4.50177,4.13541 l 3.26459,0 0.00883388,0.000390951 0.00876481,0.0011698 0.0086272,0.0019395 0.00842214,0.00269403 0.00815123,0.0034275 0.00781658,0.00413417 0.00742081,0.00480851 0.00696702,0.00544526 0.00645876,0.00603943 0.00589999,0.00658638 0.00529509,0.00708183 0.00464879,0.0075219 0.00396614,0.00790316 0.00325248,0.00822263 0.00251339,0.0084778 0.00175464,0.00866669 0.000982177,0.00878781 0.000202033,0.00884022 -0.000579691,0.0088235 -0.00135688,0.0087378 -0.00212346,0.00858377 -0.00287344,0.00836263 -0.00360095,0.0080761 -3.26459,6.52918 -0.00412828,0.00744612 -0.0047467,0.00706797 -0.00533072,0.00663859 -0.00587609,0.00616109 -0.00637887,0.00563892 -0.00683541,0.00507588 -0.0072424,0.00447605 -0.0075969,0.00384377 -0.00789632,0.00318363 -0.00813851,0.00250041 -0.00832171,0.00179907 -0.00844458,0.00108468 -0.00850624,0.000362437 0,-0.323607 3.10279,-6.20557 -3.10279,2.66454e-15 0,-0.2 z "/>
<path fill="rgb(241,240,234)" stroke="rgb(241,240,234)" d="M 4.50177,4.13541 l 0,0.2 -3.10279,0 3.10279,6.20557 0,0.323607 -0.00850624,-0.000362437 -0.00844458,-0.00108468 -0.00832171,-0.00179907 -0.00813851,-0.00250041 -0.00789632,-0.00318363 -0.0075969,-0.00384377 -0.0072424,-0.00447605 -0.00683541,-0.00507588 -0.00637887,-0.00563892 -0.00587609,-0.00616109 -0.00533072,-0.00663859 -0.0047467,-0.00706797 -0.00412828,-0.00744612 -3.26459,-6.52918 -0.00360095,-0.0080761 -0.00287344,-0.00836263 -0.00212346,-0.00858377 -0.00135688,-0.0087378 -0.000579691,-0.0088235 0.000202033,-0.00884022 0.000982177,-0.00878781 0.00175464,-0.00866669 0.00251339,-0.0084778 0.00325248,-0.00822263 0.00396614,-0.00790316 0.00464879,-0.0075219 0.00529509,-0.00708183 0.00589999,-0.00658638 0.00645876,-0.00603943 0.00696702,-0.00544526 0.00742081,-0.00480851 0.00781658,-0.00413417 0.00815123,-0.0034275 0.00842214,-0.00269403 0.0086272,-0.0019395 0.00876481,-0.0011698 0.00883388,-0.000390951 3.26459,-8.88178e-16 z "/>
<path fill="rgb(187,30,16)" stroke="rgb(187,30,16)" d="M 4.50177,8.97574 l 1.97016,-3.94033 -1.97016,-8.88178e-16 0,-0.7 3.10279,-2.66454e-15 -3.10279,6.20557 0,-1.56525 z "/>
<path fill="rgb(187,30,16)" stroke="rgb(187,30,16)" d="M 4.50177,4.13541 l 0,-0.2 3.26459,-1.77636e-15 0.0265016,0.00117285 0.0262944,0.00350939 0.0258816,0.00581849 0.0252664,0.00808209 0.0244537,0.0102825 0.0234497,0.0124025 0.0222624,0.0144255 0.0209011,0.0163358 0.0193763,0.0181183 0.0177,0.0197591 0.0158853,0.0212455 0.0139464,0.0225657 0.0118984,0.0237095 0.00975744,0.0246679 0.00754016,0.0254334 0.00526392,0.0260001 0.00294653,0.0263634 0.000606098,0.0265207 -0.00173907,0.0264705 -0.00407065,0.0262134 -0.00637039,0.0257513 -0.00862033,0.0250879 -0.0108029,0.0242283 -1.56521,3.13043 -1.69938,3.39875 -0.0123848,0.0223384 -0.0142401,0.0212039 -0.0159921,0.0199158 -0.0176283,0.0184833 -0.0191366,0.0169168 -0.0205062,0.0152277 -0.0217272,0.0134282 -0.0227907,0.0115313 -0.023689,0.00955089 -0.0244155,0.00750124 -0.0249651,0.00539721 -0.0253337,0.00325405 -0.0255187,0.00108731 0,-0.2 0.00850624,-0.000362437 0.00844458,-0.00108468 0.00832171,-0.00179907 0.00813851,-0.00250041 0.00789632,-0.00318363 0.0075969,-0.00384377 0.0072424,-0.00447605 0.00683541,-0.00507588 0.00637887,-0.00563892 0.00587609,-0.00616109 0.00533072,-0.00663859 0.0047467,-0.00706797 0.00412828,-0.00744612 3.26459,-6.52918 0.00360095,-0.0080761 0.00287344,-0.00836263 0.00212346,-0.00858377 0.00135688,-0.0087378 0.000579691,-0.0088235 -0.000202033,-0.00884022 -0.000982177,-0.00878781 -0.00175464,-0.00866669 -0.00251339,-0.0084778 -0.00325248,-0.00822263 -0.00396614,-0.00790316 -0.00464879,-0.0075219 -0.00529509,-0.00708183 -0.00589999,-0.00658638 -0.00645876,-0.00603943 -0.00696702,-0.00544526 -0.00742081,-0.00480851 -0.00781658,-0.00413417 -0.00815123,-0.0034275 -0.00842214,-0.00269403 -0.0086272,-0.0019395 -0.00876481,-0.0011698 -0.00883388,-0.000390951 -3.26459,0 z "/>
<path fill="rgb(187,30,16)" stroke="rgb(187,30,16)" d="M 4.50177,4.13541 l -3.26459,8.88178e-16 -0.00883388,0.000390951 -0.00876481,0.0011698 -0.0086272,0.0019395 -0.00842214,0.00269403 -0.00815123,0.0034275 -0.00781658,0.00413417 -0.00742081,0.00480851 -0.00696702,0.00544526 -0.00645876,0.00603943 -0.00589999,0.00658638 -0.00529509,0.00708183 -0.00464879,0.0075219 -0.00396614,0.00790316 -0.00325248,0.00822263 -0.00251339,0.0084778 -0.00175464,0.00866669 -0.000982177,0.00878781 -0.000202033,0.00884022 0.000579691,0.0088235 0.00135688,0.0087378 0.00212346,0.00858377 0.00287344,0.00836263 0.00360095,0.0080761 3.26459,6.52918 0.00412828,0.00744612 0.0047467,0.00706797 0.00533072,0.00663859 0.00587609,0.00616109 0.00637887,0.00563892 0.00683541,0.00507588 0.0072424,0.00447605 0.0075969,0.00384377 0.00789632,0.00318363 0.00813851,0.00250041 0.00832171,0.00179907 0.00844458,0.00108468 0.00850624,0.000362437 0,0.2 -0.0255187,-0.00108731 -0.0253337,-0.00325405 -0.0249651,-0.00539721 -0.0244155,-0.00750124 -0.023689,-0.00955089 -0.0227907,-0.0115313 -0.0217272,-0.0134282 -0.0205062,-0.0152277 -0.0191366,-0.0169168 -0.0176283,-0.0184833 -0.0159921,-0.0199158 -0.0142401,-0.0212039 -0.0123848,-0.0223384 -1.69938,-3.39875 -1.56521,-3.13043 -0.0108029,-0.0242283 -0.00862033,-0.0250879 -0.00637039,-0.0257513 -0.00407065,-0.0262134 -0.00173907,-0.0264705 0.000606098,-0.0265207 0.00294653,-0.0263634 0.00526392,-0.0260001 0.00754016,-0.0254334 0.00975744,-0.0246679 0.0118984,-0.0237095 0.0139464,-0.0225657 0.0158853,-0.0212455 0.0177,-0.0197591 0.0193763,-0.0181183 0.0209011,-0.0163358 0.0222624,-0.0144255 0.0234497,-0.0124025 0.0244537,-0.0102825 0.0252664,-0.00808209 0.0258816,-0.00581849 0.0262944,-0.00350939 0.0265016,-0.00117285 3.26459,0 0,0.2 z "/>
<path fill="rgb(187,30,16)" stroke="rgb(187,30,16)" d="M 4.50177,8.97574 l 0,1.56525 -3.10279,-6.20557 3.10279,0 0,0.7 -1.97016,8.88178e-16 1.97016,3.94033 z "/>
<path fill="rgb(42,41,42)" stroke="rgb(42,41,42)" d="M 8.90354,7.5 l 0.1,0 0,-7.25 -0.000951325,-0.0217889 -0.00284674,-0.0216231 -0.00472048,-0.0212927 -0.0065583,-0.0208003 -0.00834621,-0.0201495 -0.0100706,-0.0193454 -0.0117183,-0.0183941 -0.0132769,-0.0173028 -0.0147344,-0.0160798 -0.0160798,-0.0147344 -0.0173028,-0.0132769 -0.0183941,-0.0117183 -0.0193454,-0.0100706 -0.0201495,-0.00834621 -0.0208003,-0.0065583 -0.0212927,-0.00472048 -0.0216231,-0.00284674 -0.0217889,-0.000951325 -8.50354,0 -0.0217889,0.000951325 -0.0216231,0.00284674 -0.0212927,0.00472048 -0.0208003,0.0065583 -0.0201495,0.00834621 -0.0193454,0.0100706 -0.0183941,0.0117183 -0.0173028,0.0132769 -0.0160798,0.0147344 -0.0147344,0.0160798 -0.0132769,0.0173028 -0.0117183,0.0183941 -0.0100706,0.0193454 -0.00834621,0.0201495 -0.0065583,0.0208003 -0.00472048,0.0212927 -0.00284674,0.0216231 -0.000951325,0.0217889 0,7.25 0.1,0 0,-7.25 0.000570795,-0.0130734 0.00170804,-0.0129739 0.00283229,-0.0127756 0.00393498,-0.0124802 0.00500773,-0.0120897 0.00604236,-0.0116073 0.007031,-0.0110365 0.00796614,-0.0103817 0.00884065,-0.00964788 0.00964788,-0.00884065 0.0103817,-0.00796614 0.0110365,-0.007031 0.0116073,-0.00604236 0.0120897,-0.00500773 0.0124802,-0.00393498 0.0127756,-0.00283229 0.0129739,-0.00170804 0.0130734,-0.000570795 8.50354,8.88178e-16 0.0130734,0.000570795 0.0129739,0.00170804 0.0127756,0.00283229 0.0124802,0.00393498 0.0120897,0.00500773 0.0116073,0.00604236 0.0110365,0.007031 0.0103817,0.00796614 0.00964788,0.00884065 0.00884065,0.00964788 0.00796614,0.0103817 0.007031,0.0110365 0.00604236,0.0116073 0.00500773,0.0120897 0.00393498,0.0124802 0.00283229,0.0127756 0.00170804,0.0129739 0.000570795,0.0130734 0,7.25 z "/>
<path fill="rgb(42,41,42)" stroke="rgb(42,41,42)" d="M 8.90354,7.5 l 0.1,0 0,4.25089 -0.000951325,0.0217889 -0.00284674,0.0216231 -0.00472048,0.0212927 -0.0065583,0.0208003 -0.00834621,0.0201495 -0.0100706,0.0193454 -0.0117183,0.0183941 -0.0132769,0.0173028 -0.0147344,0.0160798 -0.0160798,0.0147344 -0.0173028,0.0132769 -0.0183941,0.0117183 -0.0193454,0.0100706 -0.0201495,0.00834621 -0.0208003,0.0065583 -0.0212927,0.00472048 -0.0216231,0.00284674 -0.0217889,0.000951325 -8.50354,0 -0.0217889,-0.000951325 -0.0216231,-0.00284674 -0.0212927,-0.00472048 -0.0208003,-0.0065583 -0.0201495,-0.00834621 -0.0193454,-0.0100706 -0.0183941,-0.0117183 -0.0173028,-0.0132769 -0.0160798,-0.0147344 -0.0147344,-0.0160798 -0.0132769,-0.0173028 -0.0117183,-0.0183941 -0.0100706,-0.0193454 -0.00834621,-0.0201495 -0.0065583,-0.0208003 -0.00472048,-0.0212927 -0.00284674,-0.0216231 -0.000951325,-0.0217889 0,-4.25089 0.1,0 0,4.25089 0.000570795,0.0130734 0.00170804,0.0129739 0.00283229,0.0127756 0.00393498,0.0124802 0.00500773,0.0120897 0.00604236,0.0116073 0.007031,0.0110365 0.00796614,0.0103817 0.00884065,0.00964788 0.00964788,0.00884065 0.0103817,0.00796614 0.0110365,0.007031 0.0116073,0.00604236 0.0120897,0.00500773 0.0124802,0.00393498 0.0127756,0.00283229 0.0129739,0.00170804 0.0130734,0.000570795 8.50354,0 0.0130734,-0.000570795 0.0129739,-0.00170804 0.0127756,-0.00283229 0.0124802,-0.00393498 0.0120897,-0.00500773 0.0116073,-0.00604236 0.0110365,-0.007031 0.0103817,-0.00796614 0.00964788,-0.00884065 0.00884065,-0.00964788 0.00796614,-0.0103817 0.007031,-0.0110365 0.00604236,-0.0116073 0.00500773,-0.0120897 0.00393498,-0.0124802 0.00283229,-0.0127756 0.00170804,-0.0129739 0.000570795,-0.0130734 0,-4.25089 z "/>
<path fill="rgb(42,41,42)" stroke="rgb(42,41,42)" d="M 4.70732,5.76857 l 0.0144493,0.00380554 0.0140483,0.00509009 0.0135334,0.00633335 0.0129087,0.00752524 0.0121793,0.0086561 0.0113511,0.00971675 0.0104309,0.0106986 0.00942604,0.0115937 0.00834475,0.0123947 0.00719578,0.0130952 0.00598844,0.0136895 0.00473253,0.0141727 0.00343824,0.014541 0.00211606,0.0147914 -1.21769e-12,2.83329e-13 -0.00211606,-0.0147914 -0.00343824,-0.014541 -0.00473253,-0.0141727 -0.00598844,-0.0136895 -0.00719578,-0.0130952 -0.00834475,-0.0123947 -0.00942604,-0.0115937 -0.0104309,-0.0106986 -0.0113511,-0.00971675 -0.0121793,-0.0086561 -0.0129087,-0.00752524 -0.0135334,-0.00633335 -0.0140483,-0.00509009 -0.0144493,-0.00380554 z "/>
<path fill="rgb(42,41,42)" stroke="rgb(42,41,42)" d="M 4.50051,6.08567 l -0.141715,0.0314093 -0.141295,0.0332454 -0.140852,0.0350759 -0.104028,0.0313982 -0.10098,0.0401327 -0.0972009,0.0485764 -0.00843264,0.00515848 -0.00795876,0.00586323 -0.00742614,0.0065247 -0.00683872,0.00713802 -0.00620082,0.00769865 -0.00551715,0.00820246 -0.00479276,0.00864574 -0.004033,0.0090252 -0.00324348,0.00933805 -0.00243001,0.00958198 -0.00159861,0.00975519 -0.000340684,0.00441022 3.37672e-05,0.00442323 0.000407977,0.0044045 0.000779259,0.00435418 0.00114495,0.00427261 0.00150243,0.00416039 0.00184912,0.00401831 0.00218255,0.00384741 0.00250032,0.0036489 0.00280015,0.00342421 0.00307989,0.00317496 0.00333754,0.00290292 0.0372399,0.0273098 0.0393392,0.0241881 0.0411774,0.0209058 0.0427424,0.0174848 0.0440238,0.0139478 -0.118187,0.0427484 -0.0572106,-0.0269163 -0.0556916,-0.0299331 -0.0540137,-0.0328644 -0.0270946,-0.0193086 -0.0252131,-0.021708 -0.0231199,-0.023925 -0.0208326,-0.0259411 -0.0045763,-0.00688197 -0.00395451,-0.00725712 -0.0033022,-0.00757625 -0.00262439,-0.00783688 -0.00192632,-0.008037 -0.00121337,-0.00817507 -0.000491059,-0.00825002 0.000235045,-0.00826128 0.000959334,-0.00820876 0.00167622,-0.00809286 0.00238016,-0.00791447 0.00306572,-0.00767498 0.00372762,-0.00737624 0.00436073,-0.00702054 0.00496018,-0.00661065 0.00552133,-0.00614971 0.00603985,-0.00564129 0.00651175,-0.00508932 0.0739114,-0.0481403 0.0777016,-0.0417473 0.0809403,-0.0350579 0.0836042,-0.0281195 0.0856747,-0.0209816 0.285884,-0.0588045 0.285302,-0.0615661 0.284693,-0.0643219 1.21769e-12,-2.83329e-13 -0.00211606,-0.0147914 -0.00343824,-0.014541 -0.00473253,-0.0141727 -0.00598844,-0.0136895 -0.00719578,-0.0130952 -0.00834475,-0.0123947 -0.00942604,-0.0115937 -0.0104309,-0.0106986 -0.0113511,-0.00971675 -0.0121793,-0.0086561 -0.0129087,-0.00752524 -0.0135334,-0.00633335 -0.0140483,-0.00509009 -0.0144493,-0.00380554 -0.0683598,-0.0122681 -0.069049,-0.00746977 -0.0694019,-0.00263504 -0.0769711,0.00295678 -3.01981e-14,0 -0.277907,0.012948 -0.118552,0.00106678 -0.118298,-0.00783336 -0.117376,-0.0166893 -0.174347,-0.0352868 -0.17272,-0.0425407 -0.170792,-0.0497203 -0.0838574,-0.0303493 -0.0809358,-0.0374505 -0.0774141,-0.0442741 -0.0733185,-0.0507695 -0.0686793,-0.0568884 -0.063531,-0.0625856 0.349528,0 0.0906791,0.070349 0.0967066,0.0618022 0.101931,0.0527422 0.106309,0.0432442 0.109804,0.0333871 0.134808,0.028586 0.136684,0.0175456 0.137657,0.00638931 3.37508e-14,0 0.41311,-0.00475885 0.0707269,0.0020754 0.0703215,0.00784108 0.0694469,0.0135544 0.0681089,0.0191773 0.0221337,0.00830035 0.0213296,0.0101905 0.0203644,0.0120037 0.0192454,0.0137263 0.0179811,0.0153453 0.016581,0.0168483 0.0150558,0.0182242 0.0134168,0.0194624 0.0116766,0.0205537 0.00984814,0.0214898 0.00794535,0.0222636 0.00598257,0.0228693 0.0931772,-0.0266189 0.0904961,-0.0346555 0.0871233,-0.0424273 0.0830847,-0.0498747 0.078411,-0.056941 0.0731379,-0.063572 0.0243987,-0.0251599 0.0222293,-0.0270956 0.0199069,-0.0288449 0.0174476,-0.0303957 0.0148681,-0.0317373 0.0121864,-0.0328604 0.00942073,-0.0337574 0.00659027,-0.0344221 0.00371446,-0.0348499 0.301736,0 -0.0129666,0.0644015 -0.0192926,0.0627972 -0.0254281,0.0605731 -0.0186035,0.0348242 -0.021559,0.0330761 -0.0243513,0.0310778 -0.0269595,0.0288445 -0.0293638,0.0263929 -1.42109e-14,8.88178e-15 -0.139165,0.0862008 -0.145769,0.0744901 -0.15139,0.0622768 -0.15599,0.0496436 -0.159538,0.0366754 -0.0314342,0.0647993 -0.037087,0.0617383 -0.0424444,0.0581854 -0.0474636,0.0541689 -0.14081,0.0527961 0.0338477,-0.0295057 0.0309817,-0.0325021 0.0278515,-0.0352213 0.0244839,-0.0376403 0.0209074,-0.0397383 0.0171527,-0.0414974 0.0132518,-0.0429027 -0.33947,0.0729322 -1.5099e-14,3.55271e-15 z "/>
<path fill="rgb(42,41,42)" stroke="rgb(42,41,42)" d="M 5.00091,6.79477 l 0.0402314,-0.0150817 -0.0553131,-0.153395 -0.0402314,0.0150817 0.0553131,0.153395 z M 4.84801,6.31826 l 0.067399,0.177265 0.0276668,-0.0125646 0.0729322,0.0553131 0.0955445,0.256491 -0.0301633,0.0880139 -0.0125851,0.311804 -0.191692,0.103338 -0.0184181,0.0078294 -0.0106836,0 0,-0.0841473 0.00911132,-0.00429497 0.13122,-0.0755214 0.00251702,-0.158429 -0.142848,0.0530699 0,-0.718167 z "/>
<path fill="rgb(42,41,42)" stroke="rgb(42,41,42)" d="M 4.07661,7.30575 l 0.120107,0 0.0875472,0.100058 0.148523,-0.0293786 0.145628,-0.0414069 0.0780614,-0.029272 0.191537,0 0,0.00454151 -0.171314,0.0728246 -0.207427,0.0663248 -0.212665,0.0468874 -0.179997,-0.190578 z "/>
<path fill="rgb(42,41,42)" stroke="rgb(42,41,42)" d="M 4.85869,7.30575 l -0.0106836,0.00454151 0,-0.00454151 0.0106836,0 z "/>
<path fill="rgb(42,41,42)" stroke="rgb(42,41,42)" d="M 4.0479,7.15184 l -0.0578403,-0.153395 -0.0402314,0.0151021 0.0578403,0.153375 0.0402314,-0.0150817 z M 4.35718,6.95569 l 0.30677,-0.113143 -0.0326804,-0.0829799 -0.304263,0.113143 0.0301736,0.0829799 z M 4.19671,7.30575 l -0.120107,0 -0.0337449,-0.0357285 -0.0804628,-0.0452655 -0.0955547,-0.258997 0.0175987,-0.0880139 0.0301736,-0.0100476 -0.065553,-0.17902 -0.000455436,-0.00143448 -0.000328932,-0.00146866 -0.000199933,-0.00149171 -6.9419e-05,-0.00150345 6.16214e-05,-0.00150379 0.000192195,-0.00149273 0.000321311,-0.00147035 0.000447991,-0.00143683 0.000571276,-0.00139241 0.000690229,-0.00133744 0.000803951,-0.00127233 0.000911577,-0.00119758 0.00101229,-0.00111375 0.00110534,-0.00102147 0.00119,-0.000921451 0.00126564,-0.000814446 0.00133169,-0.000701267 0.00138764,-0.000582772 2.19799e-09,-8.12452e-10 3.00181e-07,-1.10954e-07 3.00183e-07,-1.10948e-07 3.00185e-07,-1.10943e-07 0.116125,-0.0429239 0.00143503,-0.000460136 0.00146973,-0.000333073 0.0014932,-0.000203466 0.00150526,-7.23051e-05 0.00150583,5.94086e-05 0.00149489,0.000190669 0.00147253,0.000320472 0.00143892,0.000447827 0.00139432,0.000571761 0.00133907,0.000691328 0.00127359,0.000805613 0.00119838,0.000913744 0.00111402,0.0010149 0.00102114,0.00110829 0.00092047,0.00119322 0.000812763,0.00126904 0.000698848,0.00133516 0.000579594,0.00139109 0.0653812,0.178524 0.704091,-0.261504 -0.0680101,-0.178832 -0.000476223,-0.00143944 -0.000348184,-0.00147566 -0.000217463,-0.0015005 -8.50674e-05,-0.00151379 4.79833e-05,-0.00151542 0.000180665,-0.00150537 0.000311954,-0.00148374 0.000440841,-0.00145067 0.000566333,-0.00140643 0.000687463,-0.00135136 0.000803298,-0.00128589 0.000912946,-0.0012105 0.00101556,-0.0011258 0.00111036,-0.00103242 0.0011966,-0.000931094 0.00127363,-0.000822595 0.00134084,-0.000707761 0.00139773,-0.000587475 1.78161e-09,-6.58411e-10 5.68958e-10,-2.10265e-10 1.01384e-07,-3.7467e-08 1.01384e-07,-3.74663e-08 1.01384e-07,-3.74657e-08 0.115948,-0.0428497 0.00144123,-0.000462622 0.0014759,-0.000336017 0.00149946,-0.000206885 0.00151174,-7.6198e-05 0.00151266,5.50624e-05 0.0015022,0.000185909 0.00148045,0.000315357 0.00144756,0.000442434 0.00140379,0.000566183 0.00134945,0.000685675 0.00128497,0.00080001 0.00121083,0.000908329 0.00112758,0.00100982 0.00103586,0.00110371 0.000936338,0.00118931 0.000829778,0.00126596 0.000716979,0.00133309 0.000598788,0.00139019 0.000478689,0.00125899 0,0.718167 -0.669362,0.248676 0.0180654,0.0206469 z M 4.84801,7.22161 l 0,0.0841473 -0.191537,0 0.0637,-0.0238867 0.127837,-0.0602606 z "/>
</g></g></svg>
