<?xml version="1.0" encoding="UTF-8" standalone="no"?>
<!DOCTYPE svg PUBLIC "-//W3C//DTD SVG 1.1//EN" "http://www.w3.org/Graphics/SVG/1.1/DTD/svg11-flat.dtd"
[

]>
<svg xmlns="http://www.w3.org/2000/svg"  viewBox="-0.09375 -0.09375 7.6875 7.6875"><g fill="none" stroke="black" stroke-width="0.0125" transform="translate(0,7.5) scale(1, -1)">
<g id="Output" >
<path fill="rgb(241,240,234)" stroke="rgb(241,240,234)" d="M 1.62384,0.907122 l -0.0800831,0.0616906 -0.0782942,0.0639458 -0.0764417,0.0661491 1.50224,2.65109 -2.89126,-4.44089e-16 0.0142699,-0.326834 0.042701,-0.324347 0.0708072,-0.319391 0.0983745,-0.312004 0.125193,-0.302243 0.151059,-0.290182 0.175775,-0.275912 0.199154,-0.259542 0.221016,-0.241197 0.241197,-0.221016 0.259542,-0.199154 0.275912,-0.175775 0.290182,-0.151059 0.302243,-0.125193 0.312004,-0.0983745 0.319391,-0.0708072 0.324347,-0.042701 0.326834,-0.0142699 0.326834,0.0142699 0.324347,0.042701 0.319391,0.0708072 0.312004,0.0983745 0.302243,0.125193 0.290182,0.151059 0.275912,0.175775 0.259542,0.199154 0.241197,0.221016 0.221016,0.241197 0.199154,0.259542 0.175775,0.275912 0.151059,0.290182 0.125193,0.302243 0.0983745,0.312004 0.0708072,0.319391 0.042701,0.324347 0.0142699,0.326834 -2.89126,0 -1.91967,-3.38776 -0.0960294,0.0315816 -0.0950913,0.034303 -0.094076,0.0369966 1.86138,3.28488 -0.343494,0 -1.79035,-3.15953 -0.0880366,0.0466716 -0.086692,0.049124 -0.0852792,0.0515377 1.70686,3.0122 -0.343494,0 -1.61092,-2.84288 z "/>
<path fill="rgb(241,240,234)" stroke="rgb(241,240,234)" d="M 5.3686,6.90953 l 0.0880366,-0.0466716 0.086692,-0.049124 0.0852792,-0.0515377 -1.70686,-3.0122 0.343494,0 1.61092,2.84288 0.0800831,-0.0616906 0.0782942,-0.0639458 0.0764417,-0.0661491 -1.50224,-2.65109 2.89126,0 -0.0142699,0.326834 -0.042701,0.324347 -0.0708072,0.319391 -0.0983745,0.312004 -0.125193,0.302243 -0.151059,0.290182 -0.175775,0.275912 -0.199154,0.259542 -0.221016,0.241197 -0.241197,0.221016 -0.259542,0.199154 -0.275912,0.175775 -0.290182,0.151059 -0.302243,0.125193 -0.312004,0.0983745 -0.319391,0.0708072 -0.324347,0.042701 -0.326834,0.0142699 -0.326834,-0.0142699 -0.324347,-0.042701 -0.319391,-0.0708072 -0.312004,-0.0983745 -0.302243,-0.125193 -0.290182,-0.151059 -0.275912,-0.175775 -0.259542,-0.199154 -0.241197,-0.221016 -0.221016,-0.241197 -0.199154,-0.259542 -0.175775,-0.275912 -0.151059,-0.290182 -0.125193,-0.302243 -0.0983745,-0.312004 -0.0708072,-0.319391 -0.042701,-0.324347 -0.0142699,-0.326834 2.89126,4.44089e-16 1.91967,3.38776 0.0960294,-0.0315816 0.0950913,-0.034303 0.094076,-0.0369966 -1.86138,-3.28488 0.343494,0 1.79035,3.15953 z "/>
<path fill="rgb(142,146,145)" stroke="rgb(142,146,145)" d="M 4.98957,5.04076 l -0.0132539,0 -0.099404,-0.00473352 -0.0946705,-0.0123072 -0.089937,-0.0208275 -0.0852034,-0.0274544 -0.0814166,-0.0359748 -0.0766831,-0.0426017 -0.0719496,-0.0511221 -0.0672161,-0.0586957 -0.0624825,-0.0662693 -0.0586957,-0.073843 -0.00284011,-0.00284011 -0.0473352,-0.0719496 -0.041655,-0.0757364 -0.0378682,-0.0795232 -0.032188,-0.08331 -0.0274544,-0.0870969 -0.0217742,-0.0908837 -0.0179874,-0.0946705 -0.0123072,-0.0984573 -0.00757364,-0.102244 -0.00189341,-0.106031 0,-0.00662693 0.00189341,-0.106031 0.00852034,-0.102244 0.0123072,-0.0975106 0.0170407,-0.0946705 0.0227209,-0.0908837 0.0274544,-0.0870969 0.0312413,-0.08331 0.0369215,-0.0795232 0.0426017,-0.0766831 0.0463885,-0.0719496 0.0132539,-0.0179874 0.057749,-0.0728963 0.0634292,-0.0643759 0.0672161,-0.057749 0.0719496,-0.0501754 0.0766831,-0.041655 0.0823633,-0.0340814 0.0861502,-0.0274544 0.0908837,-0.0189341 0.0946705,-0.0113605 0.100351,-0.00378682 0.0331347,0 0.0984573,0.00662693 0.0937238,0.0142006 0.0889903,0.0217742 0.0842567,0.0293479 0.0795232,0.0369215 0.0747897,0.0454418 0.0700562,0.0530155 0.0653226,0.0605891 0.0605891,0.0681628 0.0558556,0.0757364 -0.804699,0.0359748 -0.0643759,0.00284011 -0.0918304,0.016094 -0.0842567,0.0302946 -0.0766831,0.0435484 -0.0672161,0.057749 -0.0596424,0.0719496 -0.00378682,0.00473352 -0.041655,0.0681628 -0.0350281,0.0757364 -0.0284011,0.0823633 -0.0227209,0.089937 -0.016094,0.0965639 -0.00946705,0.105084 -0.00284011,0.111711 0,0.0170407 0.00473352,0.104138 0.0113605,0.0984573 0.0189341,0.0927771 0.0265077,0.0870969 0.0331347,0.0814166 0.0397616,0.0766831 0.016094,0.025561 0.057749,0.0766831 0.0643759,0.0624825 0.0719496,0.0492287 0.0795232,0.0350281 0.0861502,0.0208275 0.0937238,0.00662693 0.800912,0.0444951 -0.0104138,0.0151473 -0.057749,0.073843 -0.0624825,0.0653226 -0.0672161,0.057749 -0.0719496,0.0501754 -0.0766831,0.041655 -0.0814166,0.0350281 -0.0861502,0.0265077 -0.0908837,0.0198808 -0.0956172,0.0113605 -0.100351,0.00378682 z "/>
<path fill="rgb(142,146,145)" stroke="rgb(142,146,145)" d="M 5.79049,4.6403 l -0.800912,-0.0444951 0.0605891,-0.00189341 0.0927771,-0.016094 0.08331,-0.0302946 0.0766831,-0.0435484 0.0672161,-0.057749 0.0605891,-0.0719496 0.0378682,-0.0624825 0.0359748,-0.073843 0.0302946,-0.0823633 0.0227209,-0.0889903 0.016094,-0.0965639 0.0104138,-0.104138 0.00284011,-0.107924 -0.00284011,-0.099404 -0.00946705,-0.102244 -0.016094,-0.0956172 -0.0236676,-0.089937 -0.0293479,-0.08331 -0.0359748,-0.0776298 -0.0426017,-0.0710029 -0.0378682,-0.0511221 -0.0643759,-0.0662693 -0.0719496,-0.0501754 -0.0804699,-0.0369215 -0.0870969,-0.0217742 -0.0956172,-0.00757364 0.804699,-0.0359748 0.0454418,0.0719496 0.0407083,0.0757364 0.0369215,0.0804699 0.0312413,0.08331 0.0265077,0.0880436 0.0217742,0.0908837 0.016094,0.0946705 0.0123072,0.099404 0.00757364,0.102244 0.00189341,0.106031 -0.00189341,0.0908837 -0.00662693,0.102244 -0.0113605,0.0984573 -0.0170407,0.0946705 -0.0217742,0.0908837 -0.0274544,0.0880436 -0.032188,0.08331 -0.0369215,0.0804699 -0.041655,0.0766831 -0.0473352,0.0728963 z "/>
<path fill="rgb(142,146,145)" stroke="rgb(142,146,145)" d="M 2.45903,5.04076 l -0.0927771,-0.00284011 -0.0937238,-0.00946705 -0.0918304,-0.0151473 -0.0889903,-0.0227209 -0.0861502,-0.0284011 -0.08331,-0.0340814 -0.0804699,-0.041655 -0.0776298,-0.0473352 -0.0747897,-0.0539622 -0.0719496,-0.0605891 -0.0691095,-0.0662693 0.331347,-0.306732 0.0511221,0.0501754 0.0728963,0.0596424 0.0776298,0.048282 0.0814166,0.0378682 0.0861502,0.0274544 0.089937,0.016094 0.0946705,0.00473352 0.825527,0.0350281 -0.0463885,0.0766831 -0.0596424,0.0710029 -0.0710029,0.0653226 -0.00852034,0.00662693 -0.0719496,0.0511221 -0.0776298,0.0426017 -0.0823633,0.0340814 -0.0880436,0.0274544 -0.0927771,0.0198808 -0.0984573,0.0113605 -0.103191,0.00378682 z "/>
<path fill="rgb(142,146,145)" stroke="rgb(142,146,145)" d="M 3.259,4.63083 l -0.825527,-0.0350281 0.0539622,-0.000946705 0.100351,-0.0123072 0.0870969,-0.0236676 0.0757364,-0.0359748 0.0473352,-0.0350281 0.0539622,-0.0700562 0.0189341,-0.0842567 -0.00189341,-0.0217742 -0.0274544,-0.0823633 -0.0662693,-0.0710029 -0.0539622,-0.0331347 -0.0861502,-0.0293479 -0.099404,-0.0104138 -0.102244,0 0,-0.447791 0.120232,0 0.0776298,-0.00378682 0.0937238,-0.016094 0.0757364,-0.0312413 0.00662693,-0.00284011 0.0728963,-0.0549089 0.0596424,-0.0766831 0.00568023,-0.0104138 0.0359748,-0.0880436 0.0123072,-0.0908837 -0.000946705,-0.0302946 -0.0217742,-0.0861502 -0.0463885,-0.0747897 -0.0728963,-0.0643759 -0.0123072,-0.00757364 -0.073843,-0.0378682 -0.0852034,-0.0274544 -0.0956172,-0.016094 -0.107924,-0.00568023 -0.9912,-0.0142006 0.0653226,-0.0691095 0.0662693,-0.0662693 0.0539622,-0.0463885 0.0719496,-0.0549089 0.0766831,-0.0473352 0.0795232,-0.041655 0.0823633,-0.0359748 0.0870969,-0.0284011 0.089937,-0.0227209 0.0946705,-0.016094 0.0965639,-0.00946705 0.101297,-0.00284011 0.0123072,0 0.101297,0.00473352 0.0975106,0.0113605 0.0927771,0.0189341 0.0880436,0.025561 0.0842567,0.0331347 0.0795232,0.0407083 0.0757364,0.0473352 0.0719496,0.0549089 0.0227209,0.0198808 0.0691095,0.0691095 0.0586957,0.0728963 0.048282,0.0776298 0.0369215,0.0804699 0.0265077,0.0852034 0.016094,0.0889903 0.00568023,0.0927771 -0.000946705,0.032188 -0.00946705,0.0984573 -0.0217742,0.089937 -0.0340814,0.0814166 0,0.00189341 -0.0388149,0.0624825 -0.0539622,0.0691095 -0.0700562,0.073843 -0.0842567,0.0804699 0.0378682,0.0511221 0.057749,0.089937 0.0463885,0.0870969 0.032188,0.0842567 0.0189341,0.0804699 0.00662693,0.0776298 0,0.0274544 -0.00946705,0.0927771 -0.0227209,0.0880436 -0.0340814,0.0814166 z "/>
<path fill="rgb(142,146,145)" stroke="rgb(142,146,145)" d="M 1.78119,3.23728 l -0.356908,-0.269811 0.0615358,-0.0691095 0.9912,0.0142006 -0.0662693,0.00189341 -0.0965639,0.0104138 -0.0918304,0.0179874 -0.0861502,0.0274544 -0.0814166,0.0359748 -0.0757364,0.0444951 -0.0710029,0.0539622 -0.0662693,0.0615358 -0.0605891,0.0710029 z "/>
<path fill="rgb(42,41,42)" stroke="rgb(42,41,42)" d="M 2.68906,0.362241 l 1.91967,3.38776 1.50224,2.65109 -0.0764417,0.0661491 -0.0782942,0.0639458 -0.0800831,0.0616906 -1.61092,-2.84288 -1.86138,-3.28488 0.094076,-0.0369966 0.0950913,-0.034303 0.0960294,-0.0315816 z "/>
<path fill="rgb(42,41,42)" stroke="rgb(42,41,42)" d="M 5.3686,6.90953 l -1.79035,-3.15953 -1.70686,-3.0122 0.0852792,-0.0515377 0.086692,-0.049124 0.0880366,-0.0466716 1.79035,3.15953 1.70686,3.0122 -0.0852792,0.0515377 -0.086692,0.049124 -0.0880366,0.0466716 z "/>
<path fill="rgb(42,41,42)" stroke="rgb(42,41,42)" d="M 2.89126,3.75 l -1.50224,-2.65109 0.0764417,-0.0661491 0.0782942,-0.0639458 0.0800831,-0.0616906 1.61092,2.84288 1.86138,3.28488 -0.094076,0.0369966 -0.0950913,0.034303 -0.0960294,0.0315816 -1.91967,-3.38776 z "/>
</g></g></svg>
