<?xml version="1.0" encoding="UTF-8" standalone="no"?>
<!DOCTYPE svg PUBLIC "-//W3C//DTD SVG 1.1//EN" "http://www.w3.org/Graphics/SVG/1.1/DTD/svg11-flat.dtd"
[

]>
<svg xmlns="http://www.w3.org/2000/svg"  viewBox="-0.09375 -0.09375 7.6875 7.6875"><g fill="none" stroke="black" stroke-width="0.0125" transform="translate(0,7.5) scale(1, -1)">
<g id="Output" >
<path fill="rgb(241,240,234)" stroke="rgb(241,240,234)" d="M 3.39977,4.55181 l 0,-3.55242 0.349208,-8.88178e-16 0.347469,0 0,3.55242 0.869279,-0.203976 0.0120406,-0.00228011 0.0121927,-0.00122949 0.0122534,-0.000169644 0.0122221,0.000891474 0.0120991,0.0019459 0.0118853,0.00298573 0.0115823,0.00400315 0.0111924,0.00499053 0.0107185,0.00594046 0.0101641,0.00684581 0.0095335,0.00769978 0.00883134,0.00849598 0.00806291,0.00922842 0.00723398,0.0098916 0.00635076,0.0104806 0.00541988,0.0109909 0.00444833,0.0114187 0.00344339,0.0117608 0.00241262,0.0120147 0.00136374,0.0121784 0.000304628,0.0122508 -0.000756771,0.0122312 -0.00181249,0.0121198 -0.00285461,0.0119174 -0.0038753,0.0116257 -0.00486692,0.0112467 -0.00582201,0.0107832 -1.25527,1.81386 -0.00732306,0.00966665 -0.00812551,0.00900264 -0.00886802,0.00827221 -0.00954512,0.00748078 -0.0101518,0.00663416 -0.0106836,0.0057386 -0.0111366,0.00480072 -0.0115075,0.00382742 -0.0117935,0.0028259 -0.0119924,0.00180352 -0.012103,0.000767849 -0.0126767,-0.000310824 -0.0125977,-0.00144683 -0.0124171,-0.00257117 -0.0121364,-0.00367478 -0.0117578,-0.00474874 -0.0112843,-0.00578442 -0.0107199,-0.00677344 -0.010069,-0.00770784 -0.00933692,-0.00858007 -0.00852953,-0.00938311 -0.00765335,-0.0101105 -3.77476e-14,-5.50671e-14 -1.25195,-1.81359 -0.00646479,-0.01031 -0.00553082,-0.0108397 -0.00455379,-0.011285 -0.00354131,-0.0116425 -0.00250125,-0.0119093 -0.00144173,-0.0120835 -0.000370981,-0.0121635 0.000702656,-0.0121489 0.00177082,-0.0120396 0.0028252,-0.0118367 0.00385759,-0.0115416 0.00485994,-0.0111566 0.00582446,-0.0106848 0.00674363,-0.0101298 0.0076103,-0.00949589 0.00841772,-0.0087881 0.00915961,-0.00801188 0.00983019,-0.00717329 0.0104242,-0.00627885 0.0109371,-0.00533553 0.0113649,-0.00435067 0.0117041,-0.00333194 0.0119523,-0.00228727 0.0121074,-0.0012248 0.0121682,-0.000152783 0.0121343,0.000920418 0.0120059,0.00198645 0.0117841,0.00303702 0.866125,0.203976 z "/>
<path fill="rgb(0,91,140)" stroke="rgb(0,91,140)" d="M 7.1,3.75 l -0.0114859,0.277171 -0.034379,0.27527 -0.0570363,0.271482 -0.0793025,0.265832 -0.108724,0.27574 -0.132672,0.265051 -0.155581,0.252286 -0.177272,0.237547 -0.197575,0.220948 -0.216331,0.202619 -0.233394,0.182704 -0.24863,0.161359 -0.26192,0.138751 -0.273159,0.115056 -0.28226,0.0904608 -0.289151,0.0651574 -0.293778,0.0393439 -0.296106,0.0132225 -0.000247786,-0.667231 0.012103,-0.000767849 0.0119924,-0.00180352 0.0117935,-0.0028259 0.0115075,-0.00382742 0.0111366,-0.00480072 0.0106836,-0.0057386 0.0101518,-0.00663416 0.00954512,-0.00748078 0.00886802,-0.00827221 0.00812551,-0.00900264 0.00732306,-0.00966665 1.25527,-1.81386 0.00582201,-0.0107832 0.00486692,-0.0112467 0.0038753,-0.0116257 0.00285461,-0.0119174 0.00181249,-0.0121198 0.000756771,-0.0122312 -0.000304628,-0.0122508 -0.00136374,-0.0121784 -0.00241262,-0.0120147 -0.00344339,-0.0117608 -0.00444833,-0.0114187 -0.00541988,-0.0109909 -0.00635076,-0.0104806 -0.00723398,-0.0098916 -0.00806291,-0.00922842 -0.00883134,-0.00849598 -0.0095335,-0.00769978 -0.0101641,-0.00684581 -0.0107185,-0.00594046 -0.0111924,-0.00499053 -0.0115823,-0.00400315 -0.0118853,-0.00298573 -0.0120991,-0.0019459 -0.0122221,-0.000891474 -0.0122534,0.000169644 -0.0121927,0.00122949 -0.0120406,0.00228011 -0.869279,0.203976 0,-3.55242 -0.347469,0 -0.000222591,-0.599388 0.00041469,-1.28334e-07 0.00041469,-7.70006e-08 0.00041469,-2.56669e-08 0.291972,0.0127478 0.28975,0.0381463 0.285322,0.0632545 0.278724,0.0878812 0.270004,0.111839 0.259229,0.134946 0.246481,0.157026 0.231857,0.17791 0.215469,0.197441 0.197441,0.215469 0.17791,0.231857 0.157026,0.246481 0.134946,0.259229 0.111839,0.270004 0.0878812,0.278724 0.0632545,0.285322 0.0381463,0.28975 0.0127478,0.291972 z "/>
<path fill="rgb(0,91,140)" stroke="rgb(0,91,140)" d="M 0.4,3.75 l 0.0127417,-0.291903 0.0381283,-0.289682 0.0632248,-0.285258 0.0878404,-0.278664 0.111788,-0.26995 0.134885,-0.259183 0.156956,-0.246444 0.177833,-0.23183 0.197357,-0.215453 0.21538,-0.197437 0.231764,-0.177919 0.246386,-0.157047 0.259133,-0.134981 0.269909,-0.111888 0.278632,-0.0879438 0.285235,-0.0633307 0.289668,-0.0382359 0.291898,-0.0128501 0.000222591,0.599388 -0.349208,8.88178e-16 0,3.55242 -0.866125,-0.203976 -0.0117841,-0.00303702 -0.0120059,-0.00198645 -0.0121343,-0.000920418 -0.0121682,0.000152783 -0.0121074,0.0012248 -0.0119523,0.00228727 -0.0117041,0.00333194 -0.0113649,0.00435067 -0.0109371,0.00533553 -0.0104242,0.00627885 -0.00983019,0.00717329 -0.00915961,0.00801188 -0.00841772,0.0087881 -0.0076103,0.00949589 -0.00674363,0.0101298 -0.00582446,0.0106848 -0.00485994,0.0111566 -0.00385759,0.0115416 -0.0028252,0.0118367 -0.00177082,0.0120396 -0.000702656,0.0121489 0.000370981,0.0121635 0.00144173,0.0120835 0.00250125,0.0119093 0.00354131,0.0116425 0.00455379,0.011285 0.00553082,0.0108397 0.00646479,0.01031 1.25195,1.81359 3.77476e-14,5.50671e-14 0.00765335,0.0101105 0.00852953,0.00938311 0.00933692,0.00858007 0.010069,0.00770784 0.0107199,0.00677344 0.0112843,0.00578442 0.0117578,0.00474874 0.0121364,0.00367478 0.0124171,0.00257117 0.0125977,0.00144683 0.0126767,0.000310824 0.000247786,0.667231 -0.286708,-0.0121846 -0.284614,-0.0366773 -0.280431,-0.0609009 -0.27419,-0.0846777 -0.265937,-0.107833 -0.255732,-0.130197 -0.243651,-0.151606 -0.229782,-0.171902 -0.214227,-0.190937 -0.1971,-0.208571 -0.185597,-0.234435 -0.163953,-0.250051 -0.141004,-0.263674 -0.116931,-0.275196 -0.0919268,-0.284527 -0.0661902,-0.29159 -0.0399262,-0.296331 -0.0133442,-0.29871 z "/>
<path fill="rgb(0,91,140)" stroke="rgb(0,91,140)" d="M 1.06776,6.07553 l -0.151112,0.131016 -0.207757,-0.262428 -0.18353,-0.279907 -0.15784,-0.295157 -0.130893,-0.308056 -0.102903,-0.3185 -0.0740935,-0.326407 -0.0446935,-0.331713 -0.0149375,-0.334377 0.0142699,-0.326834 0.042701,-0.324347 0.0708072,-0.319391 0.0983745,-0.312004 0.125193,-0.302243 0.151059,-0.290182 0.175775,-0.275912 0.199154,-0.259542 0.221016,-0.241197 0.241197,-0.221016 0.259542,-0.199154 0.275912,-0.175775 0.290182,-0.151059 0.302243,-0.125193 0.312004,-0.0983745 0.319391,-0.0708072 0.324347,-0.042701 0.326834,-0.0142699 0,0.2 -0.309403,0.0135088 -0.307048,0.0404237 -0.302357,0.0670308 -0.295364,0.0931279 -0.286123,0.118516 -0.274705,0.143002 -0.261196,0.1664 -0.2457,0.188532 -0.228333,0.209229 -0.209229,0.228333 -0.188532,0.2457 -0.1664,0.261196 -0.143002,0.274705 -0.118516,0.286123 -0.0931279,0.295364 -0.0670308,0.302357 -0.0404237,0.307048 -0.0135088,0.309403 0.0141408,0.316544 0.0423099,0.314022 0.0701418,0.308999 0.097415,0.301513 0.123912,0.291626 0.149422,0.279416 0.173742,0.264979 0.196677,0.248431 z "/>
<path fill="rgb(0,91,140)" stroke="rgb(0,91,140)" d="M 7.5,3.75 l -0.0128574,0.310266 -0.0384839,0.308138 -0.0638466,0.303898 -0.0887715,0.297573 -0.189122,-0.06506 0.084037,-0.281703 0.0604415,-0.28769 0.0364315,-0.291704 0.0121716,-0.293718 -0.0135088,-0.309403 -0.0404237,-0.307048 -0.0670308,-0.302357 -0.0931279,-0.295364 -0.118516,-0.286123 -0.143002,-0.274705 -0.1664,-0.261196 -0.188532,-0.2457 -0.209229,-0.228333 -0.228333,-0.209229 -0.2457,-0.188532 -0.261196,-0.1664 -0.274705,-0.143002 -0.286123,-0.118516 -0.295364,-0.0931279 -0.302357,-0.0670308 -0.307048,-0.0404237 -0.309403,-0.0135088 0,-0.2 0.326834,0.0142699 0.324347,0.042701 0.319391,0.0708072 0.312004,0.0983745 0.302243,0.125193 0.290182,0.151059 0.275912,0.175775 0.259542,0.199154 0.241197,0.221016 0.221016,0.241197 0.199154,0.259542 0.175775,0.275912 0.151059,0.290182 0.125193,0.302243 0.0983745,0.312004 0.0708072,0.319391 0.042701,0.324347 0.0142699,0.326834 z "/>
<path fill="rgb(0,91,140)" stroke="rgb(0,91,140)" d="M 1.06776,6.07553 l 0.213058,0.225086 0.231878,0.205645 0.248931,0.184636 0.264087,0.162221 0.27723,0.138568 0.288259,0.11386 0.297092,0.0882837 0.30366,0.0620345 0.307913,0.0353125 0.30982,0.00832127 0.309365,-0.0187333 0.306552,-0.0456452 0.301402,-0.0722091 0.293955,-0.0982226 0.284268,-0.123487 0.272414,-0.147811 0.258483,-0.171008 0.242583,-0.192902 0.224833,-0.213325 0.20537,-0.232122 0.184341,-0.24915 0.161907,-0.264279 0.138239,-0.277394 0.113518,-0.288394 0.189122,0.06506 -0.119913,0.304642 -0.146028,0.293022 -0.171029,0.279168 -0.194726,0.263187 -0.21694,0.245199 -0.2375,0.225343 -0.256249,0.203769 -0.273046,0.180642 -0.287761,0.156138 -0.300283,0.130445 -0.310516,0.103756 -0.318383,0.0762772 -0.323822,0.0482167 -0.326794,0.0197887 -0.327274,-0.00879008 -0.32526,-0.0373019 -0.320767,-0.0655294 -0.313829,-0.0932574 -0.304499,-0.120275 -0.292848,-0.146375 -0.278965,-0.17136 -0.262956,-0.195039 -0.244942,-0.217231 -0.225061,-0.237767 0.151112,-0.131016 z "/>
<path fill="rgb(241,240,234)" stroke="rgb(241,240,234)" d="M 7.1,3.75 l -0.0127478,-0.291972 -0.0381463,-0.28975 -0.0632545,-0.285322 -0.0878812,-0.278724 -0.111839,-0.270004 -0.134946,-0.259229 -0.157026,-0.246481 -0.17791,-0.231857 -0.197441,-0.215469 -0.215469,-0.197441 -0.231857,-0.17791 -0.246481,-0.157026 -0.259229,-0.134946 -0.270004,-0.111839 -0.278724,-0.0878812 -0.285322,-0.0632545 -0.28975,-0.0381463 -0.291972,-0.0127478 0,-0.2 0.309403,0.0135088 0.307048,0.0404237 0.302357,0.0670308 0.295364,0.0931279 0.286123,0.118516 0.274705,0.143002 0.261196,0.1664 0.2457,0.188532 0.228333,0.209229 0.209229,0.228333 0.188532,0.2457 0.1664,0.261196 0.143002,0.274705 0.118516,0.286123 0.0931279,0.295364 0.0670308,0.302357 0.0404237,0.307048 0.0135088,0.309403 -0.0121716,0.293718 -0.0364315,0.291704 -0.0604415,0.28769 -0.084037,0.281703 -0.189122,-0.06506 0.0793025,-0.265832 0.0570363,-0.271482 0.034379,-0.27527 0.0114859,-0.277171 z "/>
<path fill="rgb(241,240,234)" stroke="rgb(241,240,234)" d="M 1.06776,6.07553 l -0.196677,-0.248431 -0.173742,-0.264979 -0.149422,-0.279416 -0.123912,-0.291626 -0.097415,-0.301513 -0.0701418,-0.308999 -0.0423099,-0.314022 -0.0141408,-0.316544 0.0135088,-0.309403 0.0404237,-0.307048 0.0670308,-0.302357 0.0931279,-0.295364 0.118516,-0.286123 0.143002,-0.274705 0.1664,-0.261196 0.188532,-0.2457 0.209229,-0.228333 0.228333,-0.209229 0.2457,-0.188532 0.261196,-0.1664 0.274705,-0.143002 0.286123,-0.118516 0.295364,-0.0931279 0.302357,-0.0670308 0.307048,-0.0404237 0.309403,-0.0135088 0,0.2 -0.00041469,2.56669e-08 -0.00041469,7.70006e-08 -0.00041469,1.28334e-07 -0.291898,0.0128501 -0.289668,0.0382359 -0.285235,0.0633307 -0.278632,0.0879438 -0.269909,0.111888 -0.259133,0.134981 -0.246386,0.157047 -0.231764,0.177919 -0.21538,0.197437 -0.197357,0.215453 -0.177833,0.23183 -0.156956,0.246444 -0.134885,0.259183 -0.111788,0.26995 -0.0878404,0.278664 -0.0632248,0.285258 -0.0381283,0.289682 -0.0127417,0.291903 0.0133442,0.29871 0.0399262,0.296331 0.0661902,0.29159 0.0919268,0.284527 0.116931,0.275196 0.141004,0.263674 0.163953,0.250051 0.185597,0.234435 -0.151112,0.131016 z "/>
<path fill="rgb(241,240,234)" stroke="rgb(241,240,234)" d="M 1.06776,6.07553 l 0.151112,-0.131016 0.1971,0.208571 0.214227,0.190937 0.229782,0.171902 0.243651,0.151606 0.255732,0.130197 0.265937,0.107833 0.27419,0.0846777 0.280431,0.0609009 0.284614,0.0366773 0.286708,0.0121846 0.296106,-0.0132225 0.293778,-0.0393439 0.289151,-0.0651574 0.28226,-0.0904608 0.273159,-0.115056 0.26192,-0.138751 0.24863,-0.161359 0.233394,-0.182704 0.216331,-0.202619 0.197575,-0.220948 0.177272,-0.237547 0.155581,-0.252286 0.132672,-0.265051 0.108724,-0.27574 0.189122,0.06506 -0.113518,0.288394 -0.138239,0.277394 -0.161907,0.264279 -0.184341,0.24915 -0.20537,0.232122 -0.224833,0.213325 -0.242583,0.192902 -0.258483,0.171008 -0.272414,0.147811 -0.284268,0.123487 -0.293955,0.0982226 -0.301402,0.0722091 -0.306552,0.0456452 -0.309365,0.0187333 -0.30982,-0.00832127 -0.307913,-0.0353125 -0.30366,-0.0620345 -0.297092,-0.0882837 -0.288259,-0.11386 -0.27723,-0.138568 -0.264087,-0.162221 -0.248931,-0.184636 -0.231878,-0.205645 -0.213058,-0.225086 z "/>
</g></g></svg>
