<?xml version="1.0" encoding="UTF-8" standalone="no"?>
<!DOCTYPE svg PUBLIC "-//W3C//DTD SVG 1.1//EN" "http://www.w3.org/Graphics/SVG/1.1/DTD/svg11-flat.dtd"
[

]>
<svg xmlns="http://www.w3.org/2000/svg"  viewBox="-0.112544 -0.112544 9.22863 9.22687"><g fill="none" stroke="black" stroke-width="0.0125" transform="translate(0,9.00178) scale(1, -1)">
<g id="Output" >
<path fill="rgb(200,225,100)" stroke="rgb(200,225,100)" d="M 8.90354,8.75178 l -0.000570795,0.0130734 -0.00170804,0.0129739 -0.00283229,0.0127756 -0.00393498,0.0124802 -0.00500773,0.0120897 -0.00604236,0.0116073 -0.007031,0.0110365 -0.00796614,0.0103817 -0.00884065,0.00964788 -0.00964788,0.00884065 -0.0103817,0.00796614 -0.0110365,0.007031 -0.0116073,0.00604236 -0.0120897,0.00500773 -0.0124802,0.00393498 -0.0127756,0.00283229 -0.0129739,0.00170804 -0.0130734,0.000570795 -8.50354,0 -0.0130734,-0.000570795 -0.0129739,-0.00170804 -0.0127756,-0.00283229 -0.0124802,-0.00393498 -0.0120897,-0.00500773 -0.0116073,-0.00604236 -0.0110365,-0.007031 -0.0103817,-0.00796614 -0.00964788,-0.00884065 -0.00884065,-0.00964788 -0.00796614,-0.0103817 -0.007031,-0.0110365 -0.00604236,-0.0116073 -0.00500773,-0.0120897 -0.00393498,-0.0124802 -0.00283229,-0.0127756 -0.00170804,-0.0129739 -0.000570795,-0.0130734 0,-4.25089 0.651769,0 -4.44089e-16,3.05 0.00266371,0.061009 0.00797086,0.0605447 0.0132173,0.0596196 0.0183632,0.0582408 0.0233694,0.0564187 0.0281977,0.0541672 0.0328114,0.0515035 0.0371753,0.0484478 0.0412564,0.0450234 0.0450234,0.0412564 0.0484478,0.0371753 0.0515035,0.0328114 0.0541672,0.0281977 0.0564187,0.0233694 0.0582408,0.0183632 0.0596196,0.0132173 0.0605447,0.00797086 0.061009,0.00266371 6.1,0 0.061009,-0.00266371 0.0605447,-0.00797086 0.0596196,-0.0132173 0.0582408,-0.0183632 0.0564187,-0.0233694 0.0541672,-0.0281977 0.0515035,-0.0328114 0.0484478,-0.0371753 0.0450234,-0.0412564 0.0412564,-0.0450234 0.0371753,-0.0484478 0.0328114,-0.0515035 0.0281977,-0.0541672 0.0233694,-0.0564187 0.0183632,-0.0582408 0.0132173,-0.0596196 0.00797086,-0.0605447 0.00266371,-0.061009 0,-3.05 0.651769,0 0,4.25089 z "/>
<path fill="rgb(200,225,100)" stroke="rgb(200,225,100)" d="M 0.751769,4.50089 l -0.651769,0 0,-4.25089 0.000570795,-0.0130734 0.00170804,-0.0129739 0.00283229,-0.0127756 0.00393498,-0.0124802 0.00500773,-0.0120897 0.00604236,-0.0116073 0.007031,-0.0110365 0.00796614,-0.0103817 0.00884065,-0.00964788 0.00964788,-0.00884065 0.0103817,-0.00796614 0.0110365,-0.007031 0.0116073,-0.00604236 0.0120897,-0.00500773 0.0124802,-0.00393498 0.0127756,-0.00283229 0.0129739,-0.00170804 0.0130734,-0.000570795 8.50354,0 0.0130734,0.000570795 0.0129739,0.00170804 0.0127756,0.00283229 0.0124802,0.00393498 0.0120897,0.00500773 0.0116073,0.00604236 0.0110365,0.007031 0.0103817,0.00796614 0.00964788,0.00884065 0.00884065,0.00964788 0.00796614,0.0103817 0.007031,0.0110365 0.00604236,0.0116073 0.00500773,0.0120897 0.00393498,0.0124802 0.00283229,0.0127756 0.00170804,0.0129739 0.000570795,0.0130734 0,4.25089 -0.651769,0 0,-3.05 -0.00266371,-0.061009 -0.00797086,-0.0605447 -0.0132173,-0.0596196 -0.0183632,-0.0582408 -0.0233694,-0.0564187 -0.0281977,-0.0541672 -0.0328114,-0.0515035 -0.0371753,-0.0484478 -0.0412564,-0.0450234 -0.0450234,-0.0412564 -0.0484478,-0.0371753 -0.0515035,-0.0328114 -0.0541672,-0.0281977 -0.0564187,-0.0233694 -0.0582408,-0.0183632 -0.0596196,-0.0132173 -0.0605447,-0.00797086 -0.061009,-0.00266371 -6.1,8.88178e-16 -0.061009,0.00266371 -0.0605447,0.00797086 -0.0596196,0.0132173 -0.0582408,0.0183632 -0.0564187,0.0233694 -0.0541672,0.0281977 -0.0515035,0.0328114 -0.0484478,0.0371753 -0.0450234,0.0412564 -0.0412564,0.0450234 -0.0371753,0.0484478 -0.0328114,0.0515035 -0.0281977,0.0541672 -0.0233694,0.0564187 -0.0183632,0.0582408 -0.0132173,0.0596196 -0.00797086,0.0605447 -0.00266371,0.061009 -4.44089e-16,3.05 z "/>
<path fill="rgb(241,240,234)" stroke="rgb(241,240,234)" d="M 1.15177,4.50089 l -0.2,0 4.44089e-16,-3.05 0.00190265,-0.0435779 0.00569347,-0.0432462 0.00944096,-0.0425854 0.0131166,-0.0416005 0.0166924,-0.0402991 0.0201412,-0.0386909 0.0234367,-0.0367882 0.0265538,-0.0346056 0.0294688,-0.0321596 0.0321596,-0.0294688 0.0346056,-0.0265538 0.0367882,-0.0234367 0.0386909,-0.0201412 0.0402991,-0.0166924 0.0416005,-0.0131166 0.0425854,-0.00944096 0.0432462,-0.00569347 0.0435779,-0.00190265 6.1,0 0.0435779,0.00190265 0.0432462,0.00569347 0.0425854,0.00944096 0.0416005,0.0131166 0.0402991,0.0166924 0.0386909,0.0201412 0.0367882,0.0234367 0.0346056,0.0265538 0.0321596,0.0294688 0.0294688,0.0321596 0.0265538,0.0346056 0.0234367,0.0367882 0.0201412,0.0386909 0.0166924,0.0402991 0.0131166,0.0416005 0.00944096,0.0425854 0.00569347,0.0432462 0.00190265,0.0435779 0,3.05 -0.2,0 0,-3.05 -0.00114159,-0.0261467 -0.00341608,-0.0259477 -0.00566458,-0.0255513 -0.00786996,-0.0249603 -0.0100155,-0.0241794 -0.0120847,-0.0232145 -0.014062,-0.0220729 -0.0159323,-0.0207634 -0.0176813,-0.0192958 -0.0192958,-0.0176813 -0.0207634,-0.0159323 -0.0220729,-0.014062 -0.0232145,-0.0120847 -0.0241794,-0.0100155 -0.0249603,-0.00786996 -0.0255513,-0.00566458 -0.0259477,-0.00341608 -0.0261467,-0.00114159 -6.1,0 -0.0261467,0.00114159 -0.0259477,0.00341608 -0.0255513,0.00566458 -0.0249603,0.00786996 -0.0241794,0.0100155 -0.0232145,0.0120847 -0.0220729,0.014062 -0.0207634,0.0159323 -0.0192958,0.0176813 -0.0176813,0.0192958 -0.0159323,0.0207634 -0.014062,0.0220729 -0.0120847,0.0232145 -0.0100155,0.0241794 -0.00786996,0.0249603 -0.00566458,0.0255513 -0.00341608,0.0259477 -0.00114159,0.0261467 -4.44089e-16,3.05 z "/>
<path fill="rgb(241,240,234)" stroke="rgb(241,240,234)" d="M 1.15177,4.50089 l -4.44089e-16,3.05 0.00114159,0.0261467 0.00341608,0.0259477 0.00566458,0.0255513 0.00786996,0.0249603 0.0100155,0.0241794 0.0120847,0.0232145 0.014062,0.0220729 0.0159323,0.0207634 0.0176813,0.0192958 0.0192958,0.0176813 0.0207634,0.0159323 0.0220729,0.014062 0.0232145,0.0120847 0.0241794,0.0100155 0.0249603,0.00786996 0.0255513,0.00566458 0.0259477,0.00341608 0.0261467,0.00114159 6.1,8.88178e-16 0.0261467,-0.00114159 0.0259477,-0.00341608 0.0255513,-0.00566458 0.0249603,-0.00786996 0.0241794,-0.0100155 0.0232145,-0.0120847 0.0220729,-0.014062 0.0207634,-0.0159323 0.0192958,-0.0176813 0.0176813,-0.0192958 0.0159323,-0.0207634 0.014062,-0.0220729 0.0120847,-0.0232145 0.0100155,-0.0241794 0.00786996,-0.0249603 0.00566458,-0.0255513 0.00341608,-0.0259477 0.00114159,-0.0261467 1.77636e-15,-3.05 0.2,0 0,3.05 -0.00190265,0.0435779 -0.00569347,0.0432462 -0.00944096,0.0425854 -0.0131166,0.0416005 -0.0166924,0.0402991 -0.0201412,0.0386909 -0.0234367,0.0367882 -0.0265538,0.0346056 -0.0294688,0.0321596 -0.0321596,0.0294688 -0.0346056,0.0265538 -0.0367882,0.0234367 -0.0386909,0.0201412 -0.0402991,0.0166924 -0.0416005,0.0131166 -0.0425854,0.00944096 -0.0432462,0.00569347 -0.0435779,0.00190265 -6.1,0 -0.0435779,-0.00190265 -0.0432462,-0.00569347 -0.0425854,-0.00944096 -0.0416005,-0.0131166 -0.0402991,-0.0166924 -0.0386909,-0.0201412 -0.0367882,-0.0234367 -0.0346056,-0.0265538 -0.0321596,-0.0294688 -0.0294688,-0.0321596 -0.0265538,-0.0346056 -0.0234367,-0.0367882 -0.0201412,-0.0386909 -0.0166924,-0.0402991 -0.0131166,-0.0416005 -0.00944096,-0.0425854 -0.00569347,-0.0432462 -0.00190265,-0.0435779 4.44089e-16,-3.05 0.2,0 z "/>
<path fill="rgb(0,91,140)" stroke="rgb(0,91,140)" d="M 1.15177,4.50089 l 6.7,0 -1.77636e-15,3.05 -0.00114159,0.0261467 -0.00341608,0.0259477 -0.00566458,0.0255513 -0.00786996,0.0249603 -0.0100155,0.0241794 -0.0120847,0.0232145 -0.014062,0.0220729 -0.0159323,0.0207634 -0.0176813,0.0192958 -0.0192958,0.0176813 -0.0207634,0.0159323 -0.0220729,0.014062 -0.0232145,0.0120847 -0.0241794,0.0100155 -0.0249603,0.00786996 -0.0255513,0.00566458 -0.0259477,0.00341608 -0.0261467,0.00114159 -6.1,-8.88178e-16 -0.0261467,-0.00114159 -0.0259477,-0.00341608 -0.0255513,-0.00566458 -0.0249603,-0.00786996 -0.0241794,-0.0100155 -0.0232145,-0.0120847 -0.0220729,-0.014062 -0.0207634,-0.0159323 -0.0192958,-0.0176813 -0.0176813,-0.0192958 -0.0159323,-0.0207634 -0.014062,-0.0220729 -0.0120847,-0.0232145 -0.0100155,-0.0241794 -0.00786996,-0.0249603 -0.00566458,-0.0255513 -0.00341608,-0.0259477 -0.00114159,-0.0261467 4.44089e-16,-3.05 z "/>
<path fill="rgb(0,91,140)" stroke="rgb(0,91,140)" d="M 1.15177,4.50089 l 4.44089e-16,-3.05 0.00114159,-0.0261467 0.00341608,-0.0259477 0.00566458,-0.0255513 0.00786996,-0.0249603 0.0100155,-0.0241794 0.0120847,-0.0232145 0.014062,-0.0220729 0.0159323,-0.0207634 0.0176813,-0.0192958 0.0192958,-0.0176813 0.0207634,-0.0159323 0.0220729,-0.014062 0.0232145,-0.0120847 0.0241794,-0.0100155 0.0249603,-0.00786996 0.0255513,-0.00566458 0.0259477,-0.00341608 0.0261467,-0.00114159 6.1,0 0.0261467,0.00114159 0.0259477,0.00341608 0.0255513,0.00566458 0.0249603,0.00786996 0.0241794,0.0100155 0.0232145,0.0120847 0.0220729,0.014062 0.0207634,0.0159323 0.0192958,0.0176813 0.0176813,0.0192958 0.0159323,0.0207634 0.014062,0.0220729 0.0120847,0.0232145 0.0100155,0.0241794 0.00786996,0.0249603 0.00566458,0.0255513 0.00341608,0.0259477 0.00114159,0.0261467 0,3.05 -6.7,0 z "/>
<path fill="rgb(0,91,140)" stroke="rgb(0,91,140)" d="M 0.751769,4.50089 l 4.44089e-16,-3.05 0.00266371,-0.061009 0.00797086,-0.0605447 0.0132173,-0.0596196 0.0183632,-0.0582408 0.0233694,-0.0564187 0.0281977,-0.0541672 0.0328114,-0.0515035 0.0371753,-0.0484478 0.0412564,-0.0450234 0.0450234,-0.0412564 0.0484478,-0.0371753 0.0515035,-0.0328114 0.0541672,-0.0281977 0.0564187,-0.0233694 0.0582408,-0.0183632 0.0596196,-0.0132173 0.0605447,-0.00797086 0.061009,-0.00266371 6.1,-8.88178e-16 0.061009,0.00266371 0.0605447,0.00797086 0.0596196,0.0132173 0.0582408,0.0183632 0.0564187,0.0233694 0.0541672,0.0281977 0.0515035,0.0328114 0.0484478,0.0371753 0.0450234,0.0412564 0.0412564,0.0450234 0.0371753,0.0484478 0.0328114,0.0515035 0.0281977,0.0541672 0.0233694,0.0564187 0.0183632,0.0582408 0.0132173,0.0596196 0.00797086,0.0605447 0.00266371,0.061009 0,3.05 -0.2,0 0,-3.05 -0.00190265,-0.0435779 -0.00569347,-0.0432462 -0.00944096,-0.0425854 -0.0131166,-0.0416005 -0.0166924,-0.0402991 -0.0201412,-0.0386909 -0.0234367,-0.0367882 -0.0265538,-0.0346056 -0.0294688,-0.0321596 -0.0321596,-0.0294688 -0.0346056,-0.0265538 -0.0367882,-0.0234367 -0.0386909,-0.0201412 -0.0402991,-0.0166924 -0.0416005,-0.0131166 -0.0425854,-0.00944096 -0.0432462,-0.00569347 -0.0435779,-0.00190265 -6.1,0 -0.0435779,0.00190265 -0.0432462,0.00569347 -0.0425854,0.00944096 -0.0416005,0.0131166 -0.0402991,0.0166924 -0.0386909,0.0201412 -0.0367882,0.0234367 -0.0346056,0.0265538 -0.0321596,0.0294688 -0.0294688,0.0321596 -0.0265538,0.0346056 -0.0234367,0.0367882 -0.0201412,0.0386909 -0.0166924,0.0402991 -0.0131166,0.0416005 -0.00944096,0.0425854 -0.00569347,0.0432462 -0.00190265,0.0435779 -4.44089e-16,3.05 -0.2,0 z "/>
<path fill="rgb(0,91,140)" stroke="rgb(0,91,140)" d="M 0.751769,4.50089 l 0.2,0 -4.44089e-16,3.05 0.00190265,0.0435779 0.00569347,0.0432462 0.00944096,0.0425854 0.0131166,0.0416005 0.0166924,0.0402991 0.0201412,0.0386909 0.0234367,0.0367882 0.0265538,0.0346056 0.0294688,0.0321596 0.0321596,0.0294688 0.0346056,0.0265538 0.0367882,0.0234367 0.0386909,0.0201412 0.0402991,0.0166924 0.0416005,0.0131166 0.0425854,0.00944096 0.0432462,0.00569347 0.0435779,0.00190265 6.1,0 0.0435779,-0.00190265 0.0432462,-0.00569347 0.0425854,-0.00944096 0.0416005,-0.0131166 0.0402991,-0.0166924 0.0386909,-0.0201412 0.0367882,-0.0234367 0.0346056,-0.0265538 0.0321596,-0.0294688 0.0294688,-0.0321596 0.0265538,-0.0346056 0.0234367,-0.0367882 0.0201412,-0.0386909 0.0166924,-0.0402991 0.0131166,-0.0416005 0.00944096,-0.0425854 0.00569347,-0.0432462 0.00190265,-0.0435779 0,-3.05 0.2,0 0,3.05 -0.00266371,0.061009 -0.00797086,0.0605447 -0.0132173,0.0596196 -0.0183632,0.0582408 -0.0233694,0.0564187 -0.0281977,0.0541672 -0.0328114,0.0515035 -0.0371753,0.0484478 -0.0412564,0.0450234 -0.0450234,0.0412564 -0.0484478,0.0371753 -0.0515035,0.0328114 -0.0541672,0.0281977 -0.0564187,0.0233694 -0.0582408,0.0183632 -0.0596196,0.0132173 -0.0605447,0.00797086 -0.061009,0.00266371 -6.1,0 -0.061009,-0.00266371 -0.0605447,-0.00797086 -0.0596196,-0.0132173 -0.0582408,-0.0183632 -0.0564187,-0.0233694 -0.0541672,-0.0281977 -0.0515035,-0.0328114 -0.0484478,-0.0371753 -0.0450234,-0.0412564 -0.0412564,-0.0450234 -0.0371753,-0.0484478 -0.0328114,-0.0515035 -0.0281977,-0.0541672 -0.0233694,-0.0564187 -0.0183632,-0.0582408 -0.0132173,-0.0596196 -0.00797086,-0.0605447 -0.00266371,-0.061009 4.44089e-16,-3.05 z "/>
<path fill="rgb(241,240,234)" stroke="rgb(241,240,234)" d="M 6.05125,7.27678 l -0.0646335,-0.00113392 -0.117928,-0.00907136 -0.113392,-0.0181427 -0.107722,-0.0272141 -0.103187,-0.0362854 -0.0963832,-0.0442229 -0.0918475,-0.0544282 -0.0873119,-0.0623656 -0.0805083,-0.0725709 -0.0759727,-0.0805083 -0.071437,-0.0895797 -0.0260802,-0.0374194 1.0364,-0.0272141 0.0986511,-0.0056696 0.10999,-0.0215445 0.100919,-0.0385533 0.0907136,-0.0544282 0.0816423,-0.071437 0.0725709,-0.0884458 0.0102053,-0.013607 0.0498925,-0.0839101 0.0419551,-0.0929815 0.0340176,-0.100919 0.0272141,-0.108856 0.0192766,-0.117928 0.0113392,-0.126999 0.00340176,-0.133803 0,-0.0215445 -0.0056696,-0.129267 -0.013607,-0.122463 -0.0204106,-0.11566 -0.0294819,-0.107722 -0.0362854,-0.100919 -0.0442229,-0.0929815 -0.0521603,-0.0861779 -0.0623656,-0.0816423 -0.0793744,-0.0771066 -0.0884458,-0.0589639 -0.0975171,-0.043089 -0.106589,-0.0249462 -0.11566,-0.00907136 1.03527,-0.0124731 0.0532943,0.0895797 0.0476247,0.0941154 0.0419551,0.0975171 0.0374194,0.103187 0.0306158,0.106589 0.0249462,0.112258 0.0204106,0.11566 0.013607,0.120196 0.00793744,0.123597 0.00340176,0.129267 0,0.0317498 -0.00453568,0.126999 -0.0102053,0.122463 -0.0158749,0.117928 -0.0226784,0.113392 -0.0272141,0.10999 -0.0340176,0.105455 -0.0396872,0.100919 -0.0453568,0.0963832 -0.0510264,0.0929815 -0.056696,0.0884458 -0.0408211,0.0555621 -0.071437,0.085044 -0.0782405,0.0771066 -0.0827762,0.0669013 -0.0884458,0.0589639 -0.0941154,0.0487586 -0.099785,0.0408211 -0.105455,0.0317498 -0.10999,0.0215445 -0.116794,0.013607 -0.121329,0.00453568 z "/>
<path fill="rgb(241,240,234)" stroke="rgb(241,240,234)" d="M 5.01485,6.74384 l -0.0544282,-0.0884458 -0.0498925,-0.0929815 -0.043089,-0.0975171 -0.0385533,-0.102053 -0.0317498,-0.106589 -0.0260802,-0.111124 -0.0204106,-0.11566 -0.014741,-0.120196 -0.00793744,-0.124731 -0.00340176,-0.128133 0.00113392,-0.0589639 0.00453568,-0.126999 0.0113392,-0.122463 0.0170088,-0.117928 0.0226784,-0.113392 0.028348,-0.108856 0.0340176,-0.105455 0.0396872,-0.099785 0.0453568,-0.0963832 0.0510264,-0.0918475 0.056696,-0.0873119 0.043089,-0.0578299 0.0725709,-0.085044 0.0782405,-0.0759727 0.0839101,-0.0680352 0.0884458,-0.0578299 0.0941154,-0.0487586 0.099785,-0.0408211 0.105455,-0.0306158 0.111124,-0.0226784 0.11566,-0.013607 0.122463,-0.00453568 0.0884458,0.00226784 0.116794,0.0113392 0.112258,0.0204106 0.105455,0.028348 0.100919,0.0385533 0.0952493,0.0476247 0.0907136,0.0555621 0.0839101,0.0657674 0.0782405,0.0737048 0.0737048,0.0839101 0.0680352,0.0918475 0.0215445,0.0328837 -1.03527,0.0124731 -0.104321,0.00680352 -0.10999,0.0215445 -0.100919,0.0385533 -0.0918475,0.0555621 -0.0816423,0.0703031 -0.071437,0.0873119 -0.0192766,0.028348 -0.0476247,0.0839101 -0.0419551,0.0941154 -0.0328837,0.100919 -0.0260802,0.10999 -0.0192766,0.119062 -0.0113392,0.126999 -0.00340176,0.13607 0,0.0521603 0.00793744,0.124731 0.0158749,0.117928 0.0238123,0.111124 0.0328837,0.105455 0.0396872,0.0986511 0.0498925,0.0918475 0.0351515,0.0555621 0.071437,0.0895797 0.0805083,0.0737048 0.0884458,0.056696 0.0963832,0.0408211 0.105455,0.0249462 0.114526,0.00793744 -1.0364,0.0272141 z "/>
<path fill="rgb(241,240,234)" stroke="rgb(241,240,234)" d="M 3.85712,7.22689 l -2.10115,0 -0.0963832,-1.47863 1.17021,-0.0272141 0.0963832,-0.00340176 0.129267,-0.013607 0.10999,-0.0260802 0.0929815,-0.0374194 0.0759727,-0.0487586 0.0362854,-0.0317498 0.0725709,-0.0827762 0.0521603,-0.0941154 0.0306158,-0.105455 0.0102053,-0.116794 -0.00113392,-0.0419551 -0.0181427,-0.113392 -0.0396872,-0.100919 -0.0600978,-0.0873119 -0.0827762,-0.0748387 -0.0170088,-0.0113392 -0.085044,-0.0487586 -0.0986511,-0.0385533 -0.108856,-0.0260802 -0.121329,-0.0170088 -0.133803,-0.0056696 1.13165,-0.0623656 0.0589639,0.0918475 0.0487586,0.0975171 0.0385533,0.102053 0.0272141,0.106589 0.0158749,0.112258 0.0056696,0.117928 0,0.013607 -0.00680352,0.117928 -0.0170088,0.112258 -0.028348,0.107722 -0.0374194,0.102053 -0.0487586,0.0975171 -0.0600978,0.0918475 -0.0703031,0.0873119 -0.0805083,0.0816423 -0.0453568,0.0396872 -0.0861779,0.0669013 -0.0929815,0.056696 -0.0975171,0.0487586 -1.16907,0.0362854 0.0317498,0.450166 1.55574,0 0.013607,0.555621 z "/>
<path fill="rgb(241,240,234)" stroke="rgb(241,240,234)" d="M 2.86154,6.29481 l -0.028348,-0.00113392 -0.103187,-0.00340176 -0.107722,-0.00907136 -0.11566,-0.014741 -0.122463,-0.0204106 -0.128133,-0.0249462 1.16907,-0.0362854 -0.102053,0.0396872 -0.107722,0.0306158 -0.112258,0.0215445 -0.117928,0.013607 -0.123597,0.00453568 z "/>
<path fill="rgb(241,240,234)" stroke="rgb(241,240,234)" d="M 1.65958,5.74826 l 0.564692,-0.14741 0.0453568,0.0170088 0.111124,0.0374194 0.112258,0.028348 0.112258,0.0204106 0.112258,0.0124731 0.112258,0.00453568 -1.17021,0.0272141 z "/>
<path fill="rgb(241,240,234)" stroke="rgb(241,240,234)" d="M 1.85688,4.84792 l -0.298221,-0.472845 0.0204106,-0.0124731 0.104321,-0.0589639 0.105455,-0.0532943 0.106589,-0.0476247 0.106589,-0.043089 0.107722,-0.0362854 0.107722,-0.0306158 0.108856,-0.0260802 0.10999,-0.0192766 0.10999,-0.014741 0.112258,-0.00793744 0.111124,-0.00340176 0.013607,0 0.125865,0.00453568 0.120196,0.0124731 0.11566,0.0204106 0.10999,0.028348 0.104321,0.0351515 0.099785,0.0442229 0.0929815,0.0510264 0.0895797,0.0589639 0.0827762,0.0669013 0.0249462,0.0215445 0.0805083,0.0816423 0.071437,0.0861779 -1.13165,0.0623656 -0.0464907,0.00113392 -0.114526,0.00680352 -0.113392,0.013607 -0.111124,0.0204106 -0.10999,0.028348 -0.106589,0.0340176 -0.105455,0.043089 -0.103187,0.0487586 -0.102053,0.056696 z "/>
<path fill="rgb(241,240,234)" stroke="rgb(241,240,234)" d="M 6.54564,3.22528 l -0.268739,-0.0975171 0,-1.42534 0.268739,0 0,0.641799 0,0.0056696 0.013607,0.0895797 0.0374194,0.0634995 0.0612317,0.0385533 0.0861779,0.013607 0.435425,0.0181427 -0.0374194,0.0771066 -0.596442,0.0680352 0,0.506862 z "/>
<path fill="rgb(241,240,234)" stroke="rgb(241,240,234)" d="M 6.79964,2.82388 l -0.0249462,-0.00113392 -0.0941154,-0.014741 -0.0759727,-0.0340176 -0.0589639,-0.0555621 0.596442,-0.0680352 -0.056696,0.0680352 -0.0340176,0.028348 -0.0737048,0.043089 -0.0839101,0.0249462 -0.0941154,0.00907136 z "/>
<path fill="rgb(241,240,234)" stroke="rgb(241,240,234)" d="M 7.17951,2.57328 l -0.435425,-0.0181427 0.071437,-0.0124731 0.0737048,-0.0476247 0.0396872,-0.0555621 0.0192766,-0.0861779 0,-0.65087 0.248329,0 0,0.751789 -0.00113392,0.0317498 -0.0158749,0.0873119 z "/>
<path fill="rgb(241,240,234)" stroke="rgb(241,240,234)" d="M 5.96848,3.20147 l -0.959297,-1.8052 -0.268739,0 0.959297,1.8052 0.268739,0 z "/>
<path fill="rgb(241,240,234)" stroke="rgb(241,240,234)" d="M 3.4319,2.82388 l -0.0340176,-0.00226784 -0.085044,-0.0170088 -0.0782405,-0.0385533 -0.071437,-0.0578299 0.553353,-0.0158749 -0.043089,0.043089 -0.071437,0.0487586 -0.0805083,0.0294819 -0.0895797,0.0102053 z "/>
<path fill="rgb(241,240,234)" stroke="rgb(241,240,234)" d="M 4.04875,2.82388 l -0.0056696,0 -0.0816423,-0.00907136 -0.0816423,-0.0249462 -0.0816423,-0.0408211 -0.0816423,-0.056696 0.673549,-0.0419551 -0.0578299,0.0680352 -0.0317498,0.0272141 -0.0748387,0.043089 -0.0839101,0.0260802 -0.0929815,0.00907136 z "/>
<path fill="rgb(241,240,234)" stroke="rgb(241,240,234)" d="M 3.16316,2.7978 l -0.268739,0 0,-1.09537 0.268739,0 0,0.657674 0.00907136,0.0646335 0.0419551,0.0748387 0.0419551,0.0351515 0.0861779,0.0204106 1.08516,0.0170088 -0.0374194,0.0782405 -0.673549,0.0419551 -0.553353,0.0158749 0,0.0895797 z "/>
<path fill="rgb(241,240,234)" stroke="rgb(241,240,234)" d="M 4.42748,2.57215 l -1.08516,-0.0170088 0.647468,0 0.0680352,-0.0102053 0.0691691,-0.0453568 0.0340176,-0.0555621 0.0158749,-0.0907136 0,-0.65087 0.268739,0 0,0.751789 -0.00113392,0.0317498 -0.0170088,0.0861779 z "/>
<path fill="rgb(241,240,234)" stroke="rgb(241,240,234)" d="M 3.34232,2.55514 l 0.0669013,-0.0113392 0.0748387,-0.0464907 0.0396872,-0.0544282 0.0181427,-0.0895797 0,-0.65087 0.2574,0 0,0.662209 0.00907136,0.0578299 0.0476247,0.0748387 0.0487586,0.0374194 0.085044,0.0204106 -0.647468,0 z "/>
<path fill="rgb(241,240,234)" stroke="rgb(241,240,234)" d="M 2.09727,3.22528 l -0.268739,-0.0975171 0,-1.42534 0.268739,0 0,0.318632 0.148544,0.202972 -0.148544,0.195034 0,0.806217 z "/>
<path fill="rgb(241,240,234)" stroke="rgb(241,240,234)" d="M 2.71753,2.79099 l -0.332239,0 -0.288016,-0.371926 0.148544,-0.195034 0.214311,-0.521603 0.268739,0 -0.299355,0.74045 0.288016,0.348114 z "/>
<path fill="rgb(42,41,42)" stroke="rgb(42,41,42)" d="M 8.90354,4.50089 l 0.1,0 0,-4.25089 -0.000951325,-0.0217889 -0.00284674,-0.0216231 -0.00472048,-0.0212927 -0.0065583,-0.0208003 -0.00834621,-0.0201495 -0.0100706,-0.0193454 -0.0117183,-0.0183941 -0.0132769,-0.0173028 -0.0147344,-0.0160798 -0.0160798,-0.0147344 -0.0173028,-0.0132769 -0.0183941,-0.0117183 -0.0193454,-0.0100706 -0.0201495,-0.00834621 -0.0208003,-0.0065583 -0.0212927,-0.00472048 -0.0216231,-0.00284674 -0.0217889,-0.000951325 -8.50354,0 -0.0217889,0.000951325 -0.0216231,0.00284674 -0.0212927,0.00472048 -0.0208003,0.0065583 -0.0201495,0.00834621 -0.0193454,0.0100706 -0.0183941,0.0117183 -0.0173028,0.0132769 -0.0160798,0.0147344 -0.0147344,0.0160798 -0.0132769,0.0173028 -0.0117183,0.0183941 -0.0100706,0.0193454 -0.00834621,0.0201495 -0.0065583,0.0208003 -0.00472048,0.0212927 -0.00284674,0.0216231 -0.000951325,0.0217889 0,4.25089 0.1,0 0,-4.25089 0.000570795,-0.0130734 0.00170804,-0.0129739 0.00283229,-0.0127756 0.00393498,-0.0124802 0.00500773,-0.0120897 0.00604236,-0.0116073 0.007031,-0.0110365 0.00796614,-0.0103817 0.00884065,-0.00964788 0.00964788,-0.00884065 0.0103817,-0.00796614 0.0110365,-0.007031 0.0116073,-0.00604236 0.0120897,-0.00500773 0.0124802,-0.00393498 0.0127756,-0.00283229 0.0129739,-0.00170804 0.0130734,-0.000570795 8.50354,0 0.0130734,0.000570795 0.0129739,0.00170804 0.0127756,0.00283229 0.0124802,0.00393498 0.0120897,0.00500773 0.0116073,0.00604236 0.0110365,0.007031 0.0103817,0.00796614 0.00964788,0.00884065 0.00884065,0.00964788 0.00796614,0.0103817 0.007031,0.0110365 0.00604236,0.0116073 0.00500773,0.0120897 0.00393498,0.0124802 0.00283229,0.0127756 0.00170804,0.0129739 0.000570795,0.0130734 0,4.25089 z "/>
<path fill="rgb(42,41,42)" stroke="rgb(42,41,42)" d="M 8.90354,8.75178 l 0,-4.25089 0.1,0 0,4.25089 -0.000951325,0.0217889 -0.00284674,0.0216231 -0.00472048,0.0212927 -0.0065583,0.0208003 -0.00834621,0.0201495 -0.0100706,0.0193454 -0.0117183,0.0183941 -0.0132769,0.0173028 -0.0147344,0.0160798 -0.0160798,0.0147344 -0.0173028,0.0132769 -0.0183941,0.0117183 -0.0193454,0.0100706 -0.0201495,0.00834621 -0.0208003,0.0065583 -0.0212927,0.00472048 -0.0216231,0.00284674 -0.0217889,0.000951325 -8.50354,0 -0.0217889,-0.000951325 -0.0216231,-0.00284674 -0.0212927,-0.00472048 -0.0208003,-0.0065583 -0.0201495,-0.00834621 -0.0193454,-0.0100706 -0.0183941,-0.0117183 -0.0173028,-0.0132769 -0.0160798,-0.0147344 -0.0147344,-0.0160798 -0.0132769,-0.0173028 -0.0117183,-0.0183941 -0.0100706,-0.0193454 -0.00834621,-0.0201495 -0.0065583,-0.0208003 -0.00472048,-0.0212927 -0.00284674,-0.0216231 -0.000951325,-0.0217889 0,-4.25089 0.1,0 0,4.25089 0.000570795,0.0130734 0.00170804,0.0129739 0.00283229,0.0127756 0.00393498,0.0124802 0.00500773,0.0120897 0.00604236,0.0116073 0.007031,0.0110365 0.00796614,0.0103817 0.00884065,0.00964788 0.00964788,0.00884065 0.0103817,0.00796614 0.0110365,0.007031 0.0116073,0.00604236 0.0120897,0.00500773 0.0124802,0.00393498 0.0127756,0.00283229 0.0129739,0.00170804 0.0130734,0.000570795 8.50354,0 0.0130734,-0.000570795 0.0129739,-0.00170804 0.0127756,-0.00283229 0.0124802,-0.00393498 0.0120897,-0.00500773 0.0116073,-0.00604236 0.0110365,-0.007031 0.0103817,-0.00796614 0.00964788,-0.00884065 0.00884065,-0.00964788 0.00796614,-0.0103817 0.007031,-0.0110365 0.00604236,-0.0116073 0.00500773,-0.0120897 0.00393498,-0.0124802 0.00283229,-0.0127756 0.00170804,-0.0129739 0.000570795,-0.0130734 z "/>
</g></g></svg>
