<?xml version="1.0" encoding="UTF-8" standalone="no"?>
<!DOCTYPE svg PUBLIC "-//W3C//DTD SVG 1.1//EN" "http://www.w3.org/Graphics/SVG/1.1/DTD/svg11-flat.dtd"
[

]>
<svg xmlns="http://www.w3.org/2000/svg"  viewBox="-0.125044 -0.125044 10.2536 14.7519"><g fill="none" stroke="black" stroke-width="0.0125" transform="translate(0,14.5018) scale(1, -1)">
<g id="Output" >
<path fill="rgb(241,240,234)" stroke="rgb(241,240,234)" d="M 9.51129,6.49754 l -0.184615,0 0,1 0.184615,0 -1.77636e-15,-1 z "/>
<path fill="rgb(241,240,234)" stroke="rgb(241,240,234)" d="M 9.51129,7.49754 l -0.184615,0 0,1 0.184615,0 0,-0.246652 0,-0.753348 z "/>
<path fill="rgb(241,240,234)" stroke="rgb(241,240,234)" d="M 9.51129,8.49754 l -0.184615,0 0,1 0.184615,0 0,-1 z "/>
<path fill="rgb(241,240,234)" stroke="rgb(241,240,234)" d="M 2.32668,0.497542 l -1,0 0.662996,1 0.337004,0 0,-1 z "/>
<path fill="rgb(241,240,234)" stroke="rgb(241,240,234)" d="M 9.51129,9.49754 l -0.184615,0 0,1 0.184615,0 0,-1 z "/>
<path fill="rgb(241,240,234)" stroke="rgb(241,240,234)" d="M 6.8807,1.49754 l -0.123602,0 -0.00526774,0.00826869 -0.0205683,0.0268052 -0.0228263,0.0249105 -0.0249105,0.0228263 -0.0268052,0.0205683 -0.0284958,0.0181538 -0.0299696,0.0156012 -0.0312153,0.0129298 -0.0322234,0.01016 -0.0329863,0.00731288 -0.0334981,0.00441011 -0.033755,0.00147378 -0.033755,-0.00147378 -0.0334981,-0.00441011 -0.0329863,-0.00731288 -0.00765363,-0.00241318 0,0.112378 0.0151691,0.00349688 0.0426051,0.00600578 0.0429647,0.00230139 0.0430029,-0.00142022 0.0427193,-0.0051312 0.042116,-0.00880379 0.0411976,-0.0124105 0.039971,-0.0159244 0.0384453,-0.0193191 0.0366319,-0.0225692 0.0345444,-0.0256505 0.0321985,-0.0285399 0.0296116,-0.0312157 0.0268032,-0.0336579 0.0237942,-0.0358483 0.0206072,-0.0377705 0.00163494,-0.0037318 z M 6.32668,2.46311 l 0,0.0344283 1,0 0,-1 -0.0136708,0 0,0.544127 -0.680086,0.0991894 -0.306243,0.322255 z "/>
<path fill="rgb(241,240,234)" stroke="rgb(241,240,234)" d="M 1.98967,1.49754 l 0.337004,0.508305 0,-0.508305 -0.337004,0 z "/>
<path fill="rgb(241,240,234)" stroke="rgb(241,240,234)" d="M 9.51129,10.4975 l -0.184615,0 0,1 0.184615,0 0,-1 z "/>
<path fill="rgb(241,240,234)" stroke="rgb(241,240,234)" d="M 9.32668,12.4975 l 0,0.0664392 0.184615,0.278456 0,-0.344895 -0.184615,0 z "/>
<path fill="rgb(241,240,234)" stroke="rgb(241,240,234)" d="M 9.51129,11.4975 l -0.184615,0 0,1 0.184615,0 0,-1 z "/>
<path fill="rgb(241,240,234)" stroke="rgb(241,240,234)" d="M 2.63388,1.49754 l 0,-0.107623 0.453386,-0.077916 0.00435114,0.0435519 0.0081715,0.0429992 0.0119283,0.042112 0.0155923,0.0408972 0.00776728,0.0159787 0.125779,0 -0.0104037,-0.0161271 -0.0159033,-0.0301939 -0.0131836,-0.0314766 -0.0103616,-0.032515 -0.00745916,-0.0333009 -0.00449879,-0.0338282 -0.00150349,-0.0340929 0.000403675,-0.0176782 0.00121018,-0.0176414 0.00201417,-0.0175677 -0.168999,-0.228579 -0.00333741,-0.00452572 -0.00293386,-0.00479718 -0.00250837,-0.00503275 -0.0020641,-0.00523068 -0.0016044,-0.00538947 -0.0011327,-0.00550795 -0.000652517,-0.00558522 -0.000167458,-0.00562072 0.000318854,-0.00561416 0.000802781,-0.00556561 0.0012807,-0.00547543 0.00174904,-0.00534428 0.0022043,-0.00517316 0.00264307,-0.00496333 0.00306206,-0.00471638 0.00345815,-0.00443415 0.00382837,-0.00411874 0.00416995,-0.00377253 0.00448034,-0.00339809 0.00475721,-0.00299824 0.0049985,-0.00257595 0.00520239,-0.0021344 0.00536736,-0.00167687 0.00549219,-0.00120681 0.00557592,-0.000727715 0.00561795,-0.000243178 0.243898,0 0,-0.40117 -1,0 0,1 0.307202,0 z "/>
<path fill="rgb(241,240,234)" stroke="rgb(241,240,234)" d="M 3.26086,1.49754 l -0.125779,0 0.0113678,0.0233856 0.0225289,0.0375253 0.0257476,0.0353944 0.028766,0.0329882 0.0315607,0.0303254 0.0341098,0.0274267 0.0363937,0.0243147 0.00112685,0.000616734 0,-0.135308 -0.0135324,-0.0121946 -0.0232419,-0.024988 -0.020952,-0.026937 -0.00809581,-0.0125496 z M 2.63388,1.49754 l -0.307202,0 0,0.508305 0.325992,0.491695 0.674008,0 0,-0.446019 -0.692798,-0.116105 0,-0.437876 z "/>
<path fill="rgb(241,240,234)" stroke="rgb(241,240,234)" d="M 2.65267,2.49754 l 0.194979,0.294088 0.167269,0 0,0.252293 0.300747,0.453619 0.0110122,0 0,-1 -0.674008,0 z "/>
<path fill="rgb(241,240,234)" stroke="rgb(241,240,234)" d="M 0.770616,13.9989 l 7.92212,5.32907e-15 -1.58988,-2.39803 -5.15108,0 -0.0261467,-0.00114159 -0.0259477,-0.00341608 -0.0255513,-0.00566458 -0.0249603,-0.00786996 -0.0241794,-0.0100155 -0.0232145,-0.0120847 -0.0220729,-0.014062 -0.0207634,-0.0159323 -0.0192958,-0.0176813 -0.0176813,-0.0192958 -0.0159323,-0.0207634 -0.014062,-0.0220729 -0.0120847,-0.0232145 -0.0100155,-0.0241794 -0.00786996,-0.0249603 -0.00566458,-0.0255513 -0.00341608,-0.0259477 -0.00114159,-0.0261467 0,-6.1 0.00114159,-0.0261467 0.00341608,-0.0259477 0.00566458,-0.0255513 0.00786996,-0.0249603 0.0100155,-0.0241794 0.0120847,-0.0232145 0.014062,-0.0220729 0.0159323,-0.0207634 0.0176813,-0.0192958 0.0192958,-0.0176813 0.0207634,-0.0159323 0.0220729,-0.014062 0.0232145,-0.0120847 0.0241794,-0.0100155 0.0249603,-0.00786996 0.0255513,-0.00566458 0.0259477,-0.00341608 0.0261467,-0.00114159 0.709007,0 -0.223763,-0.337503 -0.0400854,0.00699742 -0.040473,0.00421186 -0.0406672,0.00140619 -0.0540303,-0.00248444 -0.0535743,-0.00743234 -0.0526661,-0.0123175 -0.0513135,-0.0170987 -0.0495278,-0.0217357 -0.0473241,-0.0261891 -0.044721,-0.0304216 -0.0417405,-0.0343973 -0.0819147,0.122836 -0.187206,0 0,-1.16776 -1.14365,-1.72498 -1.77636e-15,6.59687 0,5.48553 0.000998892,0.0228784 0.00298907,0.0227043 0.00495651,0.0223574 0.00688622,0.0218403 0.00876352,0.021157 0.0105741,0.0203127 0.0123043,0.0193138 0.0139407,0.0181679 0.0154711,0.0168838 0.0168838,0.0154711 0.0181679,0.0139407 0.0193138,0.0123043 0.0203127,0.0105741 0.021157,0.00876352 0.0218403,0.00688622 0.0223574,0.00495651 0.0227043,0.00298907 0.0228784,0.000998892 z "/>
<path fill="rgb(241,240,234)" stroke="rgb(241,240,234)" d="M 0.508116,1.1758 l 1.14365,1.72498 0,-0.109144 0.244699,0 -1.38274,-2.08559 -0.00311414,0.0178564 -0.00187444,0.0180288 -0.000625809,0.0181151 1.77636e-15,0.415756 z "/>
<path fill="rgb(241,240,234)" stroke="rgb(241,240,234)" d="M 1.00962,0.497542 l -0.239002,-2.66454e-15 -0.0240982,0.00110848 -0.0238946,0.00331607 -0.0234893,0.00549566 1.51439,2.28417 0.317061,0 -1.52097,-2.29409 z "/>
<path fill="rgb(241,240,234)" stroke="rgb(241,240,234)" d="M 9.32668,1.49754 l 0.184615,0 0,-0.7375 -0.000998892,-0.0228784 -0.00298907,-0.0227043 -0.00495651,-0.0223574 -0.00688622,-0.0218403 -0.00876352,-0.021157 -0.0105741,-0.0203127 -0.0123043,-0.0193138 -0.0139407,-0.0181679 -0.0154711,-0.0168838 -0.0168838,-0.0154711 -0.0181679,-0.0139407 -0.0193138,-0.0123043 -0.0203127,-0.0105741 -0.021157,-0.00876352 -0.0118954,-0.00375061 0,0.98792 z "/>
<path fill="rgb(241,240,234)" stroke="rgb(241,240,234)" d="M 9.00979,13.9989 l 0.239002,1.77636e-15 0.0240982,-0.00110848 0.0238946,-0.00331607 0.0234893,-0.00549566 -1.58331,-2.38811 -0.317061,0 1.58988,2.39803 z "/>
<path fill="rgb(241,240,234)" stroke="rgb(241,240,234)" d="M 3.92902,4.90089 l -0.9141,-1.37874 0,0.478224 0.597039,0.900518 0.317061,0 z "/>
<path fill="rgb(241,240,234)" stroke="rgb(241,240,234)" d="M 3.01492,4.54676 l -0.198919,0 -0.105316,-0.122836 -0.0102874,0.0090874 -0.0104964,0.0088451 -0.0106998,0.008598 0.298636,0.450433 0.317061,0 -0.279979,-0.422293 0,0.0681655 z "/>
<path fill="rgb(241,240,234)" stroke="rgb(241,240,234)" d="M 9.50568,13.7904 l 0.00311414,-0.0178564 0.00187444,-0.0180288 0.000625809,-0.0181151 1.77636e-15,-0.415756 -1.21965,-1.8396 -0.0158727,0.0193903 -0.0174355,0.017998 -0.0188767,0.0164801 -0.0201862,0.0148472 -0.0213549,0.0131108 -0.0223746,0.0112829 -0.0232381,0.00937626 -0.0239395,0.00740421 -0.024474,0.0053805 -0.0248376,0.00331926 -0.025028,0.00123485 1.45165,2.18954 z "/>
<path fill="rgb(241,240,234)" stroke="rgb(241,240,234)" d="M 3.31567,3.49754 l 0.0110122,0.0166098 0,-0.0166098 -0.0110122,0 z "/>
<path fill="rgb(241,240,234)" stroke="rgb(241,240,234)" d="M 4.32668,0.497542 l -1,0 0,0.40117 0.25816,0 0.318893,0 8.88178e-16,0.132496 -0.0272166,0 0.0216642,0.0271691 0.0191417,0.0290015 0.0164652,0.0306005 0.0136562,0.0319531 0.0107372,0.0330486 0.00773176,0.0338779 0.00466409,0.0344346 0.00155888,0.034714 -0.00148038,0.0338304 -0.00442982,0.0335718 -0.00734539,0.0330565 -0.0102048,0.0322885 -0.0129862,0.0312737 -0.0156684,0.0300198 -0.0111761,0.0174939 0.12206,0 0.00100419,-0.0019122 0.0168564,-0.0403926 0.0132319,-0.0417207 0.0095045,-0.0427243 0.00570318,-0.0433956 0.0018575,-0.0437293 0.247618,0 0,-0.786125 z "/>
<path fill="rgb(241,240,234)" stroke="rgb(241,240,234)" d="M 3.32668,2.05152 l 0,0.446019 0.944881,0 -0.348346,-0.346046 -0.596535,-0.0999727 z M 4.0309,1.49754 l -0.12206,0 -0.0070546,0.0110425 -0.0206537,0.0268349 -0.0229188,0.0249282 -0.0250087,0.022831 -0.0269074,0.0205592 -0.0286004,0.0181302 -0.0300747,0.0155627 -0.0313192,0.0128762 -0.0323242,0.0100912 -0.0330821,0.00722908 -0.0335871,0.00431171 -0.0338354,0.00136138 -0.036764,0.0271813 -0.0237757,-0.0321578 -0.0334143,-0.00693327 -0.0326743,-0.00984776 -0.0316806,-0.0126858 -0.0304409,-0.0154253 -0.0289648,-0.0180451 -0.0272639,-0.0205248 -0.0118189,-0.0106505 0,0.135308 0.0372676,0.0203968 0.0400966,0.0175489 0.0414869,0.0139478 0.0425544,0.0102383 0.043291,0.00644907 0.0436909,0.0026097 0.0437509,-0.00124997 0.0434706,-0.00509992 0.0428522,-0.00891019 0.0419005,-0.0126512 0.0406229,-0.0162937 0.0390293,-0.0198096 0.0371321,-0.0231713 0.0349461,-0.0263528 0.0324883,-0.0293294 0.0297778,-0.0320778 0.0268357,-0.0345767 0.0236848,-0.0368067 0.0193455,-0.0368382 z "/>
<path fill="rgb(241,240,234)" stroke="rgb(241,240,234)" d="M 4.27156,2.49754 l -0.944881,0 0,1 1,0 0,-0.945245 -0.0551185,-0.0547546 z "/>
<path fill="rgb(241,240,234)" stroke="rgb(241,240,234)" d="M 4.32668,3.49754 l -1,0 0,0.0166098 0.651984,0.98339 0.348016,0 0,-1 z "/>
<path fill="rgb(241,240,234)" stroke="rgb(241,240,234)" d="M 3.97866,4.49754 l 0.267418,0.403348 0.0805986,0 0,-0.403348 -0.348016,0 z "/>
<path fill="rgb(241,240,234)" stroke="rgb(241,240,234)" d="M 5.32668,0.497542 l -1,0 0,0.786125 1,0 0,-0.786125 z "/>
<path fill="rgb(241,240,234)" stroke="rgb(241,240,234)" d="M 4.32668,2.5523 l 0,0.945245 1,0 0,-0.750996 -0.716302,0 -0.0187763,-0.00100305 -0.0186215,-0.00260711 -0.0183299,-0.00419203 -0.0179036,-0.00574615 -0.0173458,-0.00725807 -0.0166606,-0.00871667 -0.0158531,-0.0101112 -0.0149291,-0.0114316 -0.0138954,-0.0126679 -0.131383,-0.130515 z "/>
<path fill="rgb(241,240,234)" stroke="rgb(241,240,234)" d="M 4.32668,3.49754 l 0,1 1,0 0,-1 -1,0 z "/>
<path fill="rgb(241,240,234)" stroke="rgb(241,240,234)" d="M 5.32668,4.49754 l -1,0 0,0.403348 1,0 0,-0.403348 z "/>
<path fill="rgb(241,240,234)" stroke="rgb(241,240,234)" d="M 6.11205,1.49754 l -0.0128861,-0.0202271 -0.0156012,-0.0299696 -0.0129298,-0.0312153 -0.01016,-0.0322234 -0.00731288,-0.0329863 -0.00441011,-0.0334981 -0.00147378,-0.033755 0.00147378,-0.033755 0.00441011,-0.0334981 0.00731288,-0.0329863 0.01016,-0.0322234 0.0129298,-0.0312153 0.0156012,-0.0299696 0.0181538,-0.0284958 0.0205683,-0.0268052 0.0228263,-0.0249105 0.0249105,-0.0228263 0.0268052,-0.0205683 0.0284958,-0.0181538 0.0299696,-0.0156012 0.0312153,-0.0129298 0.0245698,-0.00774682 0,-0.41444 -1,0 0,0.786125 0.608429,0 0.00199195,0.0429802 0.00569884,0.0426472 0.00936308,0.0419952 0.0129573,0.0410289 0.0164545,0.0397557 0.00283916,0.00546751 0.127638,0 z "/>
<path fill="rgb(241,240,234)" stroke="rgb(241,240,234)" d="M 6.32668,1.76773 l 0,-0.112378 -0.0245698,-0.00774682 -0.0312153,-0.0129298 -0.0299696,-0.0156012 -0.0284958,-0.0181538 -0.0268052,-0.0205683 -0.0249105,-0.0228263 -0.0228263,-0.0249105 -0.0205683,-0.0268052 -0.00526774,-0.00826869 -0.127638,0 0.0169895,0.0327174 0.0230544,0.0363285 0.0261076,0.0342002 0.0289655,0.0318161 0.0316067,0.0291939 0.0340114,0.0263532 0.0361616,0.0233154 0.0380412,0.0201031 0.0396362,0.0167403 0.0409346,0.0132524 0.0267576,0.00616836 z M 6.32668,2.46311 l -0.0327177,0.0344283 0.0327177,0 0,-0.0344283 z "/>
<path fill="rgb(241,240,234)" stroke="rgb(241,240,234)" d="M 5.32668,2.74655 l 0,0.750996 1,0 0,-1 -0.0327177,0 -0.20437,0.215055 -0.00721237,0.00681868 -0.0077905,0.00614986 -0.00830682,0.00543226 -0.00875724,0.00467155 -0.00913819,0.00387379 -0.00944663,0.00304529 -0.00968014,0.00219263 -0.00983684,0.00132257 -0.00991551,0.000442027 -0.682828,0 z "/>
<path fill="rgb(241,240,234)" stroke="rgb(241,240,234)" d="M 5.32668,3.49754 l 0,1 1,0 0,-1 -1,0 z "/>
<path fill="rgb(241,240,234)" stroke="rgb(241,240,234)" d="M 5.32668,4.90089 l 1,0 0,-0.403348 -1,0 0,0.403348 z "/>
<path fill="rgb(241,240,234)" stroke="rgb(241,240,234)" d="M 7.32668,0.497542 l -1,0 0,0.41444 0.00765363,-0.00241318 0.0329863,-0.00731288 0.0334981,-0.00441011 0.033755,-0.00147378 0.033755,0.00147378 0.0334981,0.00441011 0.0329863,0.00731288 0.0322234,0.01016 0.0312153,0.0129298 0.0299696,0.0156012 0.0284958,0.0181538 0.0268052,0.0205683 0.0249105,0.0228263 0.0228263,0.0249105 0.0205683,0.0268052 0.0181538,0.0284958 0.0156012,0.0299696 0.0129298,0.0312153 0.01016,0.0322234 0.00731288,0.0329863 0.00441011,0.0334981 0.00147378,0.033755 -0.00147378,0.033755 -0.00441011,0.0334981 -0.00731288,0.0329863 -0.01016,0.0322234 -0.0129298,0.0312153 -0.0156012,0.0299696 -0.0128861,0.0202271 0.123602,0 0.015631,-0.0356782 0.0137956,-0.0407547 0.0102219,-0.0417945 0.00657182,-0.0425215 0.386092,0.0814616 0,0.0792873 0.0136708,0 0,-1 z "/>
<path fill="rgb(241,240,234)" stroke="rgb(241,240,234)" d="M 6.32668,2.49754 l 0,1 1,0 0,-1 -1,0 z "/>
<path fill="rgb(241,240,234)" stroke="rgb(241,240,234)" d="M 6.32668,3.49754 l 0,1 1,0 0,-1 -1,0 z "/>
<path fill="rgb(241,240,234)" stroke="rgb(241,240,234)" d="M 6.32668,4.90089 l 1,0 0,-0.403348 -1,0 0,0.403348 z "/>
<path fill="rgb(241,240,234)" stroke="rgb(241,240,234)" d="M 7.32668,0.497542 l 0,1 1,0 0,-1 -1,0 z "/>
<path fill="rgb(241,240,234)" stroke="rgb(241,240,234)" d="M 7.32668,1.49754 l 0,1 1,0 0,-1 -1,0 z "/>
<path fill="rgb(241,240,234)" stroke="rgb(241,240,234)" d="M 7.32668,2.49754 l 0,1 1,0 0,-1 -1,0 z "/>
<path fill="rgb(241,240,234)" stroke="rgb(241,240,234)" d="M 7.32668,3.49754 l 0,1 1,0 0,-1 -1,0 z "/>
<path fill="rgb(241,240,234)" stroke="rgb(241,240,234)" d="M 7.32668,4.90089 l 0.72509,0 0.0261467,0.00114159 0.0259477,0.00341608 0.0255513,0.00566458 0.0249603,0.00786996 0.0241794,0.0100155 0.0232145,0.0120847 0.0220729,0.014062 0.0207634,0.0159323 0.0192958,0.0176813 0.0176813,0.0192958 0.0159323,0.0207634 0.014062,0.0220729 0.0120847,0.0232145 0.00301766,0.00728529 0,-0.583847 -1,0 0,0.403348 z "/>
<path fill="rgb(241,240,234)" stroke="rgb(241,240,234)" d="M 8.32668,1.49754 l 1,0 0,-0.98792 -0.00994488,-0.00313561 -0.0223574,-0.00495651 -0.0227043,-0.00298907 -0.0228784,-0.000998892 -0.922115,-7.10543e-15 0,1 z "/>
<path fill="rgb(241,240,234)" stroke="rgb(241,240,234)" d="M 8.32668,1.49754 l 0,1 1,0 0,-1 -1,0 z "/>
<path fill="rgb(241,240,234)" stroke="rgb(241,240,234)" d="M 8.32668,2.49754 l 0,1 1,0 0,-1 -1,0 z "/>
<path fill="rgb(241,240,234)" stroke="rgb(241,240,234)" d="M 8.32668,3.49754 l 0,1 1,0 0,-1 -1,0 z "/>
<path fill="rgb(241,240,234)" stroke="rgb(241,240,234)" d="M 8.32668,5.08139 l 0.00699779,0.0168941 0.00786996,0.0249603 0.00566458,0.0255513 0.00341608,0.0259477 0.00114159,0.0261467 0,0.296652 0.97491,0 0,-1 -1,0 0,0.583847 z "/>
<path fill="rgb(241,240,234)" stroke="rgb(241,240,234)" d="M 8.35177,5.49754 l 0,1 0.97491,0 0,-1 -0.97491,0 z "/>
<path fill="rgb(241,240,234)" stroke="rgb(241,240,234)" d="M 8.35177,6.49754 l 0,1 0.97491,0 0,-1 -0.97491,0 z "/>
<path fill="rgb(241,240,234)" stroke="rgb(241,240,234)" d="M 8.35177,7.49754 l 0,1 0.97491,0 0,-1 -0.97491,0 z "/>
<path fill="rgb(241,240,234)" stroke="rgb(241,240,234)" d="M 8.35177,8.49754 l 0,1 0.97491,0 0,-1 -0.97491,0 z "/>
<path fill="rgb(241,240,234)" stroke="rgb(241,240,234)" d="M 8.35177,9.49754 l 0,1 0.97491,0 0,-1 -0.97491,0 z "/>
<path fill="rgb(241,240,234)" stroke="rgb(241,240,234)" d="M 8.35177,10.4975 l 0,0.595978 0.267865,0.404022 0.707045,0 0,-1 -0.97491,0 z "/>
<path fill="rgb(241,240,234)" stroke="rgb(241,240,234)" d="M 8.61963,11.4975 l 0.662996,1 0.0440489,0 0,-1 -0.707045,0 z "/>
<path fill="rgb(241,240,234)" stroke="rgb(241,240,234)" d="M 9.28263,12.4975 l 0.0440489,0.0664392 0,-0.0664392 -0.0440489,0 z "/>
<path fill="rgb(241,240,234)" stroke="rgb(241,240,234)" d="M 9.51129,1.49754 l -0.184615,0 0,1 0.184615,0 0,-1 z "/>
<path fill="rgb(241,240,234)" stroke="rgb(241,240,234)" d="M 9.51129,2.49754 l -0.184615,0 0,1 0.184615,0 0,-1 z "/>
<path fill="rgb(241,240,234)" stroke="rgb(241,240,234)" d="M 9.51129,3.49754 l -0.184615,0 0,1 0.184615,0 0,-1 z "/>
<path fill="rgb(241,240,234)" stroke="rgb(241,240,234)" d="M 9.51129,4.49754 l -0.184615,0 0,1 0.184615,0 0,-1 z "/>
<path fill="rgb(241,240,234)" stroke="rgb(241,240,234)" d="M 9.51129,5.49754 l -0.184615,0 0,1 0.184615,0 0,-1 z "/>
<path fill="rgb(241,240,234)" stroke="rgb(241,240,234)" d="M 1.96184,4.40636 l 0.0382379,0.0279479 0.0404518,0.0246349 0.0423793,0.0211475 0.0440069,0.0175104 0.045323,0.0137494 0.0463183,0.00989114 0.0469858,0.00596283 0.0473208,0.00199231 0.0321448,-0.000918459 0.0320399,-0.00275238 0.0318305,-0.00457732 -0.0759715,-0.114588 -0.0200437,0 -0.351024,0 z "/>
<path fill="rgb(241,240,234)" stroke="rgb(241,240,234)" d="M 2.64996,4.40636 l 0.0047477,0.00716098 0.00307366,-0.00236591 0.00305729,-0.00238703 0.00304077,-0.00240804 -0.0139194,0 z "/>
<path fill="rgb(241,240,234)" stroke="rgb(241,240,234)" d="M 2.41233,3.86226 l -0.093627,-0.187206 -0.0683263,0.128606 0.0388515,0.0585999 0.0265586,0 0.0965432,0 z "/>
<path fill="rgb(241,240,234)" stroke="rgb(241,240,234)" d="M 2.71069,3.41176 l -0.0355621,-0.0308879 -0.0379511,-0.0279005 -0.0400898,-0.0247292 -0.0419642,-0.0213947 0.102677,0.154868 0.0528907,-0.0499553 z "/>
<path fill="rgb(241,240,234)" stroke="rgb(241,240,234)" d="M 1.96345,3.37089 l 0.15764,0.237769 0.0117752,-0.0166634 0.0132409,-0.0155242 0.014597,-0.0142565 0.0158323,-0.0128709 0.0169366,-0.0113787 0.0179007,-0.00979227 0.0187166,-0.00812482 0.0193775,-0.00639013 0.0198781,-0.00460254 0.0202141,-0.00277685 0.0203829,-0.000928178 0.0224249,0.00112396 0.0222001,0.00336062 0.0217528,0.00556359 -0.16721,-0.252204 -0.0527338,0.0121527 -0.0513717,0.0170143 -0.0495625,0.0217279 -0.0473218,0.0262524 -0.0446693,0.0305483 z "/>
<path fill="rgb(241,240,234)" stroke="rgb(241,240,234)" d="M 5.36839,2.6332 l 0,-0.52068 -1.36017,-0.0318813 0.527771,0.52068 0.00666625,0.00639764 0.00721417,0.00577273 0.00770372,0.00510111 0.00813094,0.00438822 0.00849237,0.00363982 0.00878508,0.00286197 0.00900672,0.00206097 0.00915548,0.00124329 0.00923016,0.000415551 0.758017,0 z "/>
<path fill="rgb(241,240,234)" stroke="rgb(241,240,234)" d="M 6.04139,2.60132 l 0.435673,-0.460463 -0.995325,-0.0247902 3.55271e-15,0.517134 0.481736,0 0.00867431,-5.37237e-05 0.00863849,-0.000789378 0.00854039,-0.00151934 0.00838071,-0.00223835 0.00816062,-0.00294122 0.0078817,-0.00362289 0.00754596,-0.00427844 0.00715581,-0.00490315 0.00671408,-0.00549251 0.00622395,-0.00604227 z "/>
<path fill="rgb(241,240,234)" stroke="rgb(241,240,234)" d="M 10.0035,8.25089 l -0.229744,0 0,-7.49085 -0.00199778,-0.0457568 -0.00597815,-0.0454085 -0.00991301,-0.0447147 -0.0137724,-0.0436806 -0.017527,-0.042314 -0.0211483,-0.0406254 -0.0246085,-0.0386276 -0.0278815,-0.0363359 -0.0309423,-0.0337676 -0.0337676,-0.0309423 -0.0363359,-0.0278815 -0.0386276,-0.0246085 -0.0406254,-0.0211483 -0.042314,-0.017527 -0.0436806,-0.0137724 -0.0447147,-0.00991301 -0.0454085,-0.00597815 -0.0457568,-0.00199778 -8.47818,-7.10543e-15 -0.0457568,0.00199778 -0.0454085,0.00597815 -0.0447147,0.00991301 -0.0436806,0.0137724 -0.042314,0.017527 -0.0406254,0.0211483 -0.0386276,0.0246085 -0.0363359,0.0278815 -0.0337676,0.0309423 -0.0309423,0.0337676 -0.0278815,0.0363359 -0.0246085,0.0386276 -0.0211483,0.0406254 -0.017527,0.042314 -0.0137724,0.0436806 -0.00991301,0.0447147 -0.00597815,0.0454085 -0.00199778,0.0457568 0,7.49085 -0.245616,0 0,-8.25089 10.0035,3.55271e-15 -1.77636e-15,8.25089 z "/>
<path fill="rgb(241,240,234)" stroke="rgb(241,240,234)" d="M 10.0035,8.25089 l -1.77636e-15,6.25089 -10.0035,0 0,-6.25089 0.245616,0 0,5.48553 0.00199778,0.0457568 0.00597815,0.0454085 0.00991301,0.0447147 0.0137724,0.0436806 0.017527,0.042314 0.0211483,0.0406254 0.0246085,0.0386276 0.0278815,0.0363359 0.0309423,0.0337676 0.0337676,0.0309423 0.0363359,0.0278815 0.0386276,0.0246085 0.0406254,0.0211483 0.042314,0.017527 0.0436806,0.0137724 0.0447147,0.00991301 0.0454085,0.00597815 0.0457568,0.00199778 8.47818,1.06581e-14 0.0457568,-0.00199778 0.0454085,-0.00597815 0.0447147,-0.00991301 0.0436806,-0.0137724 0.042314,-0.017527 0.0406254,-0.0211483 0.0386276,-0.0246085 0.0363359,-0.0278815 0.0337676,-0.0309423 0.0309423,-0.0337676 0.0278815,-0.0363359 0.0246085,-0.0386276 0.0211483,-0.0406254 0.017527,-0.042314 0.0137724,-0.0436806 0.00991301,-0.0447147 0.00597815,-0.0454085 0.00199778,-0.0457568 1.77636e-15,-5.48553 0.229744,0 z "/>
<path fill="rgb(142,146,145)" stroke="rgb(142,146,145)" d="M 2.31302,4.37637 l -0.000161384,0.0299885 0.0200437,0 -0.0198823,-0.0299885 z "/>
<path fill="rgb(142,146,145)" stroke="rgb(142,146,145)" d="M 2.87211,2.82852 l 0.142811,0.215402 0,-0.252293 -0.142811,0.0368904 z "/>
<path fill="rgb(142,146,145)" stroke="rgb(142,146,145)" d="M 3.01492,4.54676 l 0,-0.0681655 -0.638598,-0.963201 -0.0217528,-0.00556359 -0.0222001,-0.00336062 -0.0224249,-0.00112396 0.00876042,0.169705 0.093627,0.187206 -0.0965432,0 -0.00021384,0.0397359 0.33439,0.504362 0.0139194,0 -0.00304077,0.00240804 -0.00305729,0.00238703 -0.00307366,0.00236591 0.0244897,0.036938 0.0106998,-0.008598 0.0104964,-0.0088451 0.0102874,-0.0090874 0.105316,0.122836 0.198919,0 z "/>
<path fill="rgb(142,146,145)" stroke="rgb(142,146,145)" d="M 2.71069,3.41176 l -0.0528907,0.0499553 0.357125,0.538653 0,-0.478224 -0.413511,-0.623701 -0.2707,0.0699262 0.22441,0.338478 0.0419642,0.0213947 0.0400898,0.0247292 0.0379511,0.0279005 0.0355621,0.0308879 z "/>
<path fill="rgb(142,146,145)" stroke="rgb(142,146,145)" d="M 2.31579,4.576 l 0.0406672,-0.00140619 0.040473,-0.00421186 0.0400854,-0.00699742 -0.0281385,-0.0424415 -0.0318305,0.00457732 -0.0320399,0.00275238 -0.0321448,0.000918459 0.00292808,0.0468088 z "/>
<path fill="rgb(142,146,145)" stroke="rgb(142,146,145)" d="M 1.96184,4.40636 l 0.351024,0 0.000161384,-0.0299885 -0.661252,-0.997369 0,1.16776 0.187206,0 0.0819147,-0.122836 0.0417405,0.0343973 0.044721,0.0304216 0.0473241,0.0261891 0.0495278,0.0217357 0.0513135,0.0170987 0.0526661,0.0123175 0.0535743,0.00743234 0.0540303,0.00248444 -0.00292808,-0.0468088 -0.0473208,-0.00199231 -0.0469858,-0.00596283 -0.0463183,-0.00989114 -0.045323,-0.0137494 -0.0440069,-0.0175104 -0.0423793,-0.0211475 -0.0404518,-0.0246349 -0.0382379,-0.0279479 z "/>
<path fill="rgb(142,146,145)" stroke="rgb(142,146,145)" d="M 2.84765,2.79163 l 0.0244582,0.0368904 0.142811,-0.0368904 -0.167269,0 z "/>
<path fill="rgb(142,146,145)" stroke="rgb(142,146,145)" d="M 1.65177,2.90077 l 0.311683,0.470113 0.0446693,-0.0305483 0.0473218,-0.0262524 0.0495625,-0.0217279 0.0513717,-0.0170143 0.0527338,-0.0121527 -0.312643,-0.471561 -0.244699,0 0,0.109144 z "/>
<path fill="rgb(142,146,145)" stroke="rgb(142,146,145)" d="M 2.53059,2.79163 l -0.317061,0 0.11718,0.176743 0.2707,-0.0699262 -0.0708189,-0.106817 z "/>
<path fill="rgb(142,146,145)" stroke="rgb(142,146,145)" d="M 2.12109,3.60866 l 0.129286,0.195003 0.0683263,-0.128606 -0.00876042,-0.169705 -0.0203829,0.000928178 -0.0202141,0.00277685 -0.0198781,0.00460254 -0.0193775,0.00639013 -0.0187166,0.00812482 -0.0179007,0.00979227 -0.0169366,0.0113787 -0.0158323,0.0128709 -0.014597,0.0142565 -0.0132409,0.0155242 -0.0117752,0.0166634 z "/>
<path fill="rgb(142,146,145)" stroke="rgb(142,146,145)" d="M 2.31557,3.90199 l 0.00021384,-0.0397359 -0.0265586,0 0.0263447,0.0397359 z "/>
<path fill="rgb(142,146,145)" stroke="rgb(142,146,145)" d="M 8.29164,11.4811 l -4.36262,-6.58017 -0.317061,0 4.44207,6.69999 0.025028,-0.00123485 0.0248376,-0.00331926 0.024474,-0.0053805 0.0239395,-0.00740421 0.0232381,-0.00937626 0.0223746,-0.0112829 0.0213549,-0.0131108 0.0201862,-0.0148472 0.0188767,-0.0164801 0.0174355,-0.017998 0.0158727,-0.0193903 z "/>
<path fill="rgb(142,146,145)" stroke="rgb(142,146,145)" d="M 8.35177,11.0935 l 0,-5.89263 -0.00114159,-0.0261467 -0.00341608,-0.0259477 -0.00566458,-0.0255513 -0.00786996,-0.0249603 -0.0100155,-0.0241794 -0.0120847,-0.0232145 -0.014062,-0.0220729 -0.0159323,-0.0207634 -0.0176813,-0.0192958 -0.0192958,-0.0176813 -0.0207634,-0.0159323 -0.0220729,-0.014062 -0.0232145,-0.0120847 -0.0241794,-0.0100155 -0.0249603,-0.00786996 -0.0255513,-0.00566458 -0.0259477,-0.00341608 -0.0261467,-0.00114159 -3.80569,0 4.10569,6.19263 z "/>
<path fill="rgb(142,146,145)" stroke="rgb(142,146,145)" d="M 7.41991,11.6009 l 0.317061,0 -4.44207,-6.7 -0.317061,0 4.44207,6.7 z "/>
<path fill="rgb(142,146,145)" stroke="rgb(142,146,145)" d="M 1.95177,4.90089 l -0.0261467,0.00114159 -0.0259477,0.00341608 -0.0255513,0.00566458 -0.0249603,0.00786996 -0.0241794,0.0100155 -0.0232145,0.0120847 -0.0220729,0.014062 -0.0207634,0.0159323 -0.0192958,0.0176813 -0.0176813,0.0192958 -0.0159323,0.0207634 -0.014062,0.0220729 -0.0120847,0.0232145 -0.0100155,0.0241794 -0.00786996,0.0249603 -0.00566458,0.0255513 -0.00341608,0.0259477 -0.00114159,0.0261467 0,6.1 0.00114159,0.0261467 0.00341608,0.0259477 0.00566458,0.0255513 0.00786996,0.0249603 0.0100155,0.0241794 0.0120847,0.0232145 0.014062,0.0220729 0.0159323,0.0207634 0.0176813,0.0192958 0.0192958,0.0176813 0.0207634,0.0159323 0.0220729,0.014062 0.0232145,0.0120847 0.0241794,0.0100155 0.0249603,0.00786996 0.0255513,0.00566458 0.0259477,0.00341608 0.0261467,0.00114159 5.15108,0 -4.44207,-6.7 -0.709007,0 z "/>
<path fill="rgb(42,41,42)" stroke="rgb(42,41,42)" d="M 6.9261,13.4655 l -0.729103,0 0,-0.999548 0.745549,0 0,0.179078 -0.562817,0 0,0.272272 0.297854,0 0,0.182733 -0.297854,0 0,0.186387 0.546371,0 0,0.179078 z "/>
<path fill="rgb(42,41,42)" stroke="rgb(42,41,42)" d="M 5.93752,13.4655 l -0.171769,0 0,-0.659665 0.0182733,-0.339883 0.153495,0 0,0.999548 z "/>
<path fill="rgb(42,41,42)" stroke="rgb(42,41,42)" d="M 5.30709,13.4655 l 0,-0.312473 0.476932,-0.687075 -0.0182733,0.339883 -0.458659,0.659665 z "/>
<path fill="rgb(42,41,42)" stroke="rgb(42,41,42)" d="M 5.30709,13.4655 l -0.175423,0 0,-0.999548 0.175423,0 0,0.687075 0,0.312473 z "/>
<path fill="rgb(42,41,42)" stroke="rgb(42,41,42)" d="M 4.48662,13.482 l -0.0858843,-0.00730931 -0.0858843,-0.0255826 -0.0749204,-0.0438558 -0.0639564,-0.0603018 -0.0182733,-0.0255826 0.328919,-0.0164459 0.0274099,0 0.084057,-0.0274099 0.0639564,-0.0603018 0.0292372,-0.0584744 0.0237552,-0.0858843 0.00730931,-0.104158 -0.00182733,-0.0584744 -0.0164459,-0.0931937 -0.0292372,-0.0767477 -0.0310646,-0.0456832 -0.0676111,-0.0493378 -0.089539,-0.0164459 0.319782,-0.00913663 0.0420285,0.0730931 0.0292372,0.084057 0.0164459,0.0931937 0.00548198,0.10233 0,0.0328919 -0.00913663,0.0986756 -0.0219279,0.089539 -0.0347192,0.0804024 -0.0475105,0.0694384 -0.0493378,0.0529925 -0.0730931,0.0493378 -0.084057,0.0274099 -0.0931937,0.010964 z "/>
<path fill="rgb(42,41,42)" stroke="rgb(42,41,42)" d="M 4.1577,13.3193 l -0.0402012,-0.0712657 -0.0292372,-0.0822297 -0.0182733,-0.0931937 -0.00548198,-0.105985 0,-0.00548198 0.00730931,-0.100503 0.0182733,-0.089539 0.0310646,-0.084057 0.0438558,-0.0749204 0.010964,-0.0146186 0.0621291,-0.0657838 0.0730931,-0.0456832 0.0822297,-0.0292372 0.0931937,-0.00913663 0.078575,0.00730931 0.084057,0.0255826 0.0749204,0.0456832 0.0639564,0.0657838 0.0182733,0.0255826 -0.319782,0.00913663 -0.0274099,0.00182733 -0.084057,0.0274099 -0.0639564,0.0621291 -0.0328919,0.0584744 -0.0237552,0.0877117 -0.00730931,0.10233 0.00548198,0.0858843 0.0201006,0.089539 0.0383739,0.0730931 0.0164459,0.0201006 0.0694384,0.0511651 0.089539,0.0164459 -0.328919,0.0164459 z "/>
<path fill="rgb(42,41,42)" stroke="rgb(42,41,42)" d="M 3.89639,13.4655 l -0.752859,0 0,-0.177251 0.535407,0 -0.566471,-0.619464 0,-0.202833 0.783923,0 0,0.179078 -0.562817,0 0.562817,0.615809 0,0.204661 z "/>
<path fill="rgb(241,240,234)" stroke="rgb(241,240,234)" d="M 5.62322,11.0023 l -2.56374,0 0,-5.50025 1.00137,0 0,2.15625 1.56236,0 0.095021,0.00182733 0.206488,0.0146186 0.193697,0.0274099 0.179078,0.0438558 0.162632,0.0566471 0.149841,0.0730931 0.10964,0.0676111 0.149841,0.113294 0.133395,0.127913 0.118776,0.142531 0.104158,0.15715 0.0621291,0.115122 -3.22706,0.0456832 0,1.37049 1.60257,0 1.58977,0.137049 -0.095021,0.144359 -0.113294,0.133395 -0.12974,0.122431 -0.148013,0.113294 -0.166287,0.104158 -0.0639564,0.0328919 -0.162632,0.0712657 -0.171769,0.0566471 -0.182733,0.0383739 -0.193697,0.0237552 -0.202833,0.00913663 z "/>
<path fill="rgb(241,240,234)" stroke="rgb(241,240,234)" d="M 7.25319,10.1526 l -1.58977,-0.137049 0.0822297,-0.00182733 0.197351,-0.0292372 0.168114,-0.0603018 0.137049,-0.0931937 0.0201006,-0.0164459 0.113294,-0.142531 0.0694384,-0.166287 0.0219279,-0.186387 0,-0.00913663 -0.0255826,-0.190042 -0.0749204,-0.160805 -0.124258,-0.12974 -0.0493378,-0.0365465 -0.15715,-0.0822297 -0.179078,-0.0493378 -0.199179,-0.0164459 -1.60257,0 3.22706,-0.0456832 0.0749204,0.175423 0.0529925,0.179078 0.0310646,0.180905 0.010964,0.18456 -0.00548198,0.15715 -0.0237552,0.182733 -0.0402012,0.175423 -0.0584744,0.164459 -0.0767477,0.153495 z "/>
<path fill="rgb(247,181,0)" stroke="rgb(247,181,0)" d="M 3.52294,1.66832 l 0.0237757,0.0321578 0.036764,-0.0271813 -0.0202575,-0.000601506 -0.0201983,-0.00166036 -0.0200838,-0.00271467 z "/>
<path fill="rgb(247,181,0)" stroke="rgb(247,181,0)" d="M 3.58484,0.898712 l -0.502058,0 -0.00561795,0.000243178 -0.00557592,0.000727715 -0.00549219,0.00120681 -0.00536736,0.00167687 -0.00520239,0.0021344 -0.0049985,0.00257595 -0.00475721,0.00299824 -0.00448034,0.00339809 -0.00416995,0.00377253 -0.00382837,0.00411874 -0.00345815,0.00443415 -0.00306206,0.00471638 -0.00264307,0.00496333 -0.0022043,0.00517316 -0.00174904,0.00534428 -0.0012807,0.00547543 -0.000802781,0.00556561 -0.000318854,0.00561416 0.000167458,0.00562072 0.000652517,0.00558522 0.0011327,0.00550795 0.0016044,0.00538947 0.0020641,0.00523068 0.00250837,0.00503275 0.00293386,0.00479718 0.00333741,0.00452572 0.168999,0.228579 0.00627257,-0.0341235 0.00930122,-0.0334252 0.0122552,-0.0324587 0.0151109,-0.0312317 0.0178453,-0.029754 0.0204365,-0.0280376 0.0228637,-0.0260962 0.0251073,-0.0239453 0.0271495,-0.0216023 0.0289739,-0.0190859 0.0305657,-0.0164163 0.0319122,-0.013615 0.0330026,-0.0107045 0.0338281,-0.00770802 0.0343822,-0.00464969 0.0346604,-0.00155406 z "/>
<path fill="rgb(247,181,0)" stroke="rgb(247,181,0)" d="M 3.58484,0.898712 l 0.0329876,0.00140741 0.0327479,0.004212 0.0322701,0.00698597 0.0315578,0.00970917 0.0306162,0.0123618 0.029452,0.0149246 0.0280738,0.0173789 0.0264915,0.0197069 0.0247167,0.0218917 0.0227623,0.0239174 0.0272166,0 -8.88178e-16,-0.132496 -0.318893,0 z "/>
<path fill="rgb(42,41,42)" stroke="rgb(42,41,42)" d="M 2.37632,3.5154 l 0.638598,0.963201 0,-0.478224 -0.357125,-0.538653 -0.157717,0.148963 -0.0113126,-0.0164142 -0.0127255,-0.0153448 -0.0140378,-0.0141542 -0.0152393,-0.0128517 -0.0163203,-0.0114476 -0.0172724,-0.00995316 -0.018088,-0.00838004 -0.0187607,-0.0067407 z "/>
<path fill="rgb(42,41,42)" stroke="rgb(42,41,42)" d="M 8.05403,11.6009 l -4.44207,-6.69999 -0.317061,0 4.44207,6.7 0.314798,0 0.000752262,-9.43166e-07 0.000752258,-2.82949e-06 0.000752248,-4.7158e-06 z "/>
<path fill="rgb(42,41,42)" stroke="rgb(42,41,42)" d="M 2.28947,3.14267 l 0,-0.169686 0.0234008,0 0.0178368,-0.00460753 -0.11718,-0.176743 -0.317061,0 0.312643,0.471561 0.0343751,-0.0051904 0.0346243,-0.00312171 0.0347491,-0.00104182 -0.0233889,-0.111172 z "/>
<path fill="rgb(42,41,42)" stroke="rgb(42,41,42)" d="M 1.96345,3.37089 l -0.0166322,0.0130342 -0.0161464,0.0136314 -0.0156392,0.0142105 0.204775,0.198919 0.000425122,-0.000676937 0.000427532,-0.000675417 0.000429936,-0.000673889 -0.15764,-0.237769 z "/>
<path fill="rgb(42,41,42)" stroke="rgb(42,41,42)" d="M 2.3329,4.40636 l 0.0759715,0.114588 0.0441306,-0.00947473 0.0432297,-0.0129796 0.042051,-0.0164011 0.0406019,-0.0197171 0.0388919,-0.0229064 0.0369319,-0.0259484 -0.0047477,-0.00716098 -0.317061,0 z "/>
<path fill="rgb(42,41,42)" stroke="rgb(42,41,42)" d="M 2.43701,4.56339 l 0.223763,0.337503 0.317061,0 -0.298636,-0.450433 -0.0438811,0.0312919 -0.0465588,0.0271481 -0.0488463,0.0227767 -0.0507245,0.0182145 -0.0521776,0.0134996 z "/>
<path fill="rgb(42,41,42)" stroke="rgb(42,41,42)" d="M 2.43701,4.56339 l 0.0521776,-0.0134996 0.0507245,-0.0182145 0.0488463,-0.0227767 0.0465588,-0.0271481 0.0438811,-0.0312919 -0.0244897,-0.036938 -0.0369319,0.0259484 -0.0388919,0.0229064 -0.0406019,0.0197171 -0.042051,0.0164011 -0.0432297,0.0129796 -0.0441306,0.00947473 0.0281385,0.0424415 z "/>
<path fill="rgb(42,41,42)" stroke="rgb(42,41,42)" d="M 7.10285,11.6009 l 0.317061,0 -4.44207,-6.7 -0.317061,0 4.44207,6.7 z "/>
<path fill="rgb(42,41,42)" stroke="rgb(42,41,42)" d="M 9.50568,13.7904 l -1.45165,-2.18954 -0.000752248,4.7158e-06 -0.000752258,2.82949e-06 -0.000752262,9.43166e-07 -0.314798,0 1.58331,2.38811 0.0225716,-0.0075081 0.0217993,-0.0095206 0.0208479,-0.0114549 0.0197253,-0.0132952 0.0184408,-0.0150262 0.0170048,-0.0166339 0.0154292,-0.018105 0.0137268,-0.0194274 0.0119118,-0.0205903 0.0099989,-0.0215841 0.00800392,-0.0224006 0.00594321,-0.0230332 z "/>
<path fill="rgb(42,41,42)" stroke="rgb(42,41,42)" d="M 4.24608,4.90089 l -1.23116,-1.85697 0,0.478224 0.9141,1.37874 0.317061,0 z "/>
<path fill="rgb(42,41,42)" stroke="rgb(42,41,42)" d="M 2.31287,3.06658 l 0,0.0526578 0.0292331,0 0.00229471,-0.000100189 0.00227725,-0.000299805 0.00224245,-0.00049714 0.00219059,-0.000690691 0.00212206,-0.000878985 0.00203737,-0.00106059 0.00193719,-0.00123412 0.00182225,-0.00139826 0.00169345,-0.00155176 0.00155176,-0.00169345 0.00139826,-0.00182225 0.00123412,-0.00193719 0.00106059,-0.00203737 0.000878985,-0.00212206 0.000690691,-0.00219059 0.00049714,-0.00224245 0.000299805,-0.00227725 0.000100189,-0.00229471 -0.000100189,-0.00229471 -0.000299805,-0.00227725 -0.00049714,-0.00224245 -0.000690691,-0.00219059 -0.000878985,-0.00212206 -0.00106059,-0.00203737 -0.00123412,-0.00193719 -0.00139826,-0.00182225 -0.00155176,-0.00169345 -0.00169345,-0.00155176 -0.00182225,-0.00139826 -0.00193719,-0.00123412 -0.00203737,-0.00106059 -0.00212206,-0.000878985 -0.00219059,-0.000690691 -0.00224245,-0.00049714 -0.00227725,-0.000299805 -0.00229471,-0.000100189 -4.38405e-12,0 -0.0292331,0 z "/>
<path fill="rgb(42,41,42)" stroke="rgb(42,41,42)" d="M 2.87211,2.82852 l -0.2707,0.0699262 0.413511,0.623701 0,-0.478224 -0.142811,-0.215402 z "/>
<path fill="rgb(42,41,42)" stroke="rgb(42,41,42)" d="M 2.3421,3.11924 l 0.00229471,-0.000100189 0.00227725,-0.000299805 0.00224245,-0.00049714 0.00219059,-0.000690691 0.00212206,-0.000878985 0.00203737,-0.00106059 0.00193719,-0.00123412 0.00182225,-0.00139826 0.00169345,-0.00155176 0.00155176,-0.00169345 0.00139826,-0.00182225 0.00123412,-0.00193719 0.00106059,-0.00203737 0.000878985,-0.00212206 0.000690691,-0.00219059 0.00049714,-0.00224245 0.000299805,-0.00227725 0.000100189,-0.00229471 -0.000100189,-0.00229471 -0.000299805,-0.00227725 -0.00049714,-0.00224245 -0.000690691,-0.00219059 -0.000878985,-0.00212206 -0.00106059,-0.00203737 -0.00123412,-0.00193719 -0.00139826,-0.00182225 -0.00155176,-0.00169345 -0.00169345,-0.00155176 -0.00182225,-0.00139826 -0.00193719,-0.00123412 -0.00203737,-0.00106059 -0.00212206,-0.000878985 -0.00219059,-0.000690691 -0.00224245,-0.00049714 -0.00227725,-0.000299805 -0.00229471,-0.000100189 0.00229471,0.000100189 0.00227725,0.000299805 0.00224245,0.00049714 0.00219059,0.000690691 0.00212206,0.000878985 0.00203737,0.00106059 0.00193719,0.00123412 0.00182225,0.00139826 0.00169345,0.00155176 0.00155176,0.00169345 0.00139826,0.00182225 0.00123412,0.00193719 0.00106059,0.00203737 0.000878985,0.00212206 0.000690691,0.00219059 0.00049714,0.00224245 0.000299805,0.00227725 0.000100189,0.00229471 -0.000100189,0.00229471 -0.000299805,0.00227725 -0.00049714,0.00224245 -0.000690691,0.00219059 -0.000878985,0.00212206 -0.00106059,0.00203737 -0.00123412,0.00193719 -0.00139826,0.00182225 -0.00155176,0.00169345 -0.00169345,0.00155176 -0.00182225,0.00139826 -0.00193719,0.00123412 -0.00203737,0.00106059 -0.00212206,0.000878985 -0.00219059,0.000690691 -0.00224245,0.00049714 -0.00227725,0.000299805 -0.00229471,0.000100189 z "/>
<path fill="rgb(42,41,42)" stroke="rgb(42,41,42)" d="M 2.31302,4.37637 l 0.0198823,0.0299885 0.317061,0 -0.33439,-0.504362 -0.00255285,0.474374 z "/>
<path fill="rgb(42,41,42)" stroke="rgb(42,41,42)" d="M 9.00979,13.9989 l -1.58988,-2.39803 -0.317061,0 1.58988,2.39803 0.317061,1.77636e-15 z "/>
<path fill="rgb(42,41,42)" stroke="rgb(42,41,42)" d="M 2.31287,3.06658 l 0.0292331,0 4.38405e-12,0 0.00229471,0.000100189 0.00227725,0.000299805 0.00224245,0.00049714 0.00219059,0.000690691 0.00212206,0.000878985 0.00203737,0.00106059 0.00193719,0.00123412 0.00182225,0.00139826 0.00169345,0.00155176 0.00155176,0.00169345 0.00139826,0.00182225 0.00123412,0.00193719 0.00106059,0.00203737 0.000878985,0.00212206 0.000690691,0.00219059 0.00049714,0.00224245 0.000299805,0.00227725 0.000100189,0.00229471 -0.000100189,0.00229471 -0.000299805,0.00227725 -0.00049714,0.00224245 -0.000690691,0.00219059 -0.000878985,0.00212206 -0.00106059,0.00203737 -0.00123412,0.00193719 -0.00139826,0.00182225 -0.00155176,0.00169345 -0.00169345,0.00155176 -0.00182225,0.00139826 -0.00193719,0.00123412 -0.00203737,0.00106059 -0.00212206,0.000878985 -0.00219059,0.000690691 -0.00224245,0.00049714 -0.00227725,0.000299805 -0.00229471,0.000100189 -0.0292331,0 0,-0.0526578 z M 2.3421,3.14267 l 0.00433423,-0.000189236 0.00430124,-0.000566269 0.00423552,-0.000938992 0.00413756,-0.00130457 0.00400812,-0.00166022 0.00384817,-0.00200323 0.00365893,-0.002331 0.00344185,-0.00264102 0.00319857,-0.00293095 0.00293095,-0.00319857 0.00264102,-0.00344185 0.002331,-0.00365893 0.00200323,-0.00384817 0.00166022,-0.00400812 0.00130457,-0.00413756 0.000938992,-0.00423552 0.000566269,-0.00430124 0.000189236,-0.00433423 -0.000189236,-0.00433423 -0.000566269,-0.00430124 -0.000938992,-0.00423552 -0.00130457,-0.00413756 -0.00166022,-0.00400812 -0.00200323,-0.00384817 -0.002331,-0.00365893 -0.00264102,-0.00344185 -0.00293095,-0.00319857 -0.00319857,-0.00293095 -0.00344185,-0.00264102 -0.00365893,-0.002331 -0.00384817,-0.00200323 -0.00400812,-0.00166022 -0.00413756,-0.00130457 -0.00423552,-0.000938992 -0.00430124,-0.000566269 -0.00433423,-0.000189236 -0.0292331,0 0,-0.0702262 -0.0234008,0 0,0.169686 0.052634,0 z "/>
<path fill="rgb(42,41,42)" stroke="rgb(42,41,42)" d="M 8.35177,11.0935 l -4.10569,-6.19263 -0.317061,0 4.36262,6.58017 0.015542,-0.0228065 0.0133804,-0.0241383 0.0111055,-0.0252658 0.0087366,-0.0261794 0.00629379,-0.0268715 0.00379771,-0.0273362 0.00126948,-0.0275695 0,-0.20737 z "/>
<path fill="rgb(42,41,42)" stroke="rgb(42,41,42)" d="M 2.84765,2.79163 l -0.317061,0 0.0708189,0.106817 0.2707,-0.0699262 -0.0244582,-0.0368904 z "/>
<path fill="rgb(42,41,42)" stroke="rgb(42,41,42)" d="M 1.65177,3.379 l 0.661252,0.997369 0.00255285,-0.474374 -0.0263447,-0.0397359 -0.0699846,0 0.0311331,-0.0585999 -0.129286,-0.195003 -0.000429936,0.000673889 -0.000427532,0.000675417 -0.000425122,0.000676937 -0.204775,-0.198919 0.0156392,-0.0142105 0.0161464,-0.0136314 0.0166322,-0.0130342 -0.311683,-0.470113 0,0.478224 z "/>
<path fill="rgb(42,41,42)" stroke="rgb(42,41,42)" d="M 0.513731,0.706042 l 1.38274,2.08559 0.317061,0 -1.51439,-2.28417 -0.0225716,0.0075081 -0.0217993,0.0095206 -0.0208479,0.0114549 -0.0197253,0.0132952 -0.0184408,0.0150262 -0.0170048,0.0166339 -0.0154292,0.018105 -0.0137268,0.0194274 -0.0119118,0.0205903 -0.0099989,0.0215841 -0.00800392,0.0224006 -0.00594321,0.0230332 z "/>
<path fill="rgb(42,41,42)" stroke="rgb(42,41,42)" d="M 1.32668,0.497542 l -0.317061,8.88178e-16 1.52097,2.29409 0.317061,0 -1.52097,-2.29409 z "/>
<path fill="rgb(42,41,42)" stroke="rgb(42,41,42)" d="M 0.508116,1.65402 l 1.14365,1.72498 0,-0.478224 -1.14365,-1.72498 0,0.478224 z "/>
<path fill="rgb(42,41,42)" stroke="rgb(42,41,42)" d="M 3.61196,4.90089 l -0.597039,-0.900518 0,0.478224 0.279979,0.422293 0.317061,0 z "/>
<path fill="rgb(42,41,42)" stroke="rgb(42,41,42)" d="M 2.3421,3.14267 l -0.052634,0 0.0233889,0.111172 0.0499221,0.00215232 0.0495516,0.00644097 0.0488134,0.0106818 0.0477129,0.0148434 0.0462583,0.0188948 -0.22441,-0.338478 -0.0178368,0.00460753 0,0.0702262 0.0292331,0 0.00433423,0.000189236 0.00430124,0.000566269 0.00423552,0.000938992 0.00413756,0.00130457 0.00400812,0.00166022 0.00384817,0.00200323 0.00365893,0.002331 0.00344185,0.00264102 0.00319857,0.00293095 0.00293095,0.00319857 0.00264102,0.00344185 0.002331,0.00365893 0.00200323,0.00384817 0.00166022,0.00400812 0.00130457,0.00413756 0.000938992,0.00423552 0.000566269,0.00430124 0.000189236,0.00433423 -0.000189236,0.00433423 -0.000566269,0.00430124 -0.000938992,0.00423552 -0.00130457,0.00413756 -0.00166022,0.00400812 -0.00200323,0.00384817 -0.002331,0.00365893 -0.00264102,0.00344185 -0.00293095,0.00319857 -0.00319857,0.00293095 -0.00344185,0.00264102 -0.00365893,0.002331 -0.00384817,0.00200323 -0.00400812,0.00166022 -0.00413756,0.00130457 -0.00423552,0.000938992 -0.00430124,0.000566269 -0.00433423,0.000189236 z "/>
<path fill="rgb(42,41,42)" stroke="rgb(42,41,42)" d="M 2.20911,3.26319 l 0.16721,0.252204 0.0187607,0.0067407 0.018088,0.00838004 0.0172724,0.00995316 0.0163203,0.0114476 0.0152393,0.0128517 0.0140378,0.0141542 0.0127255,0.0153448 0.0113126,0.0164142 0.157717,-0.148963 -0.102677,-0.154868 -0.0462583,-0.0188948 -0.0477129,-0.0148434 -0.0488134,-0.0106818 -0.0495516,-0.00644097 -0.0499221,-0.00215232 -0.0347491,0.00104182 -0.0346243,0.00312171 -0.0343751,0.0051904 z "/>
<path fill="rgb(42,41,42)" stroke="rgb(42,41,42)" d="M 2.28923,3.86226 l -0.0388515,-0.0585999 -0.0311331,0.0585999 0.0699846,0 z "/>
<path fill="rgb(42,41,42)" stroke="rgb(42,41,42)" d="M 9.51129,12.8424 l -1.15953,-1.74892 0,0.20737 -0.00126948,0.0275695 -0.00379771,0.0273362 -0.00629379,0.0268715 -0.0087366,0.0261794 -0.0111055,0.0252658 -0.0133804,0.0241383 -0.015542,0.0228065 1.21965,1.8396 0,-0.478224 z "/>
<path fill="rgb(247,181,0)" stroke="rgb(247,181,0)" d="M 3.69425,1.03121 l 0.182269,0 -0.0227623,-0.0239174 -0.0247167,-0.0218917 -0.0264915,-0.0197069 -0.0280738,-0.0173789 -0.029452,-0.0149246 -0.0306162,-0.0123618 -0.0315578,-0.00970917 -0.0322701,-0.00698597 -0.0327479,-0.004212 -0.0329876,-0.00140741 -0.0346604,0.00155406 -0.0343822,0.00464969 -0.0338281,0.00770802 -0.0330026,0.0107045 -0.0319122,0.013615 -0.0305657,0.0164163 -0.0289739,0.0190859 -0.0271495,0.0216023 -0.0251073,0.0239453 -0.0228637,0.0260962 -0.0204365,0.0280376 -0.0178453,0.029754 -0.0151109,0.0312317 -0.0122552,0.0324587 -0.00930122,0.0334252 -0.00627257,0.0341235 0.321765,0.435204 0.0200838,0.00271467 0.0201983,0.00166036 0.0202575,0.000601506 0.0567216,-0.0419368 -0.0503538,-0.068106 0.0242579,-0.00150326 0.024033,-0.00362159 0.0236236,-0.00571211 0.0230327,-0.00775874 0.0222648,-0.00974577 0.0213259,-0.0116579 0.0202232,-0.0134805 0.0189651,-0.0151996 0.0175614,-0.0168019 0.0160227,-0.0182751 0.0143609,-0.0196079 0.0125888,-0.02079 0.01072,-0.0218125 0.00876881,-0.0226674 0.00675028,-0.0233482 0.0046799,-0.0238496 0.00257356,-0.0241677 0.000447456,-0.0243003 -0.00168209,-0.0242461 -0.00379871,-0.0240057 -0.00588615,-0.0235809 -0.00792837,-0.0229749 -0.00990968,-0.0221924 -0.0118149,-0.0212394 -0.0136293,-0.0201233 -0.015339,-0.0188525 -0.0169309,-0.017437 -0.0183927,-0.0158875 -0.0197132,-0.0142159 -0.0208823,-0.0124351 -0.021891,-0.0105588 z "/>
<path fill="rgb(42,41,42)" stroke="rgb(42,41,42)" d="M 3.19754,1.28601 l 0.00150349,0.0340929 0.00449879,0.0338282 0.00745916,0.0333009 0.0103616,0.032515 0.0131836,0.0314766 0.0159033,0.0301939 0.0184995,0.0286768 0.020952,0.026937 0.0232419,0.024988 0.0253513,0.0228451 0.0272639,0.0205248 0.0289648,0.0180451 0.0304409,0.0154253 0.0316806,0.0126858 0.0326743,0.00984776 0.0334143,0.00693327 -0.321765,-0.435204 -0.00201417,0.0175677 -0.00121018,0.0176414 -0.000403675,0.0176782 z "/>
<path fill="rgb(42,41,42)" stroke="rgb(42,41,42)" d="M 3.69425,1.03121 l 0.021891,0.0105588 0.0208823,0.0124351 0.0197132,0.0142159 0.0183927,0.0158875 0.0169309,0.017437 0.015339,0.0188525 0.0136293,0.0201233 0.0118149,0.0212394 0.00990968,0.0221924 0.00792837,0.0229749 0.00588615,0.0235809 0.00379871,0.0240057 0.00168209,0.0242461 -0.000447456,0.0243003 -0.00257356,0.0241677 -0.0046799,0.0238496 -0.00675028,0.0233482 -0.00876881,0.0226674 -0.01072,0.0218125 -0.0125888,0.02079 -0.0143609,0.0196079 -0.0160227,0.0182751 -0.0175614,0.0168019 -0.0189651,0.0151996 -0.0202232,0.0134805 -0.0213259,0.0116579 -0.0222648,0.00974577 -0.0230327,0.00775874 -0.0236236,0.00571211 -0.024033,0.00362159 -0.0242579,0.00150326 0.0503538,0.068106 -0.0567216,0.0419368 0.0338354,-0.00136138 0.0335871,-0.00431171 0.0330821,-0.00722908 0.0323242,-0.0100912 0.0313192,-0.0128762 0.0300747,-0.0155627 0.0286004,-0.0181302 0.0269074,-0.0205592 0.0250087,-0.022831 0.0229188,-0.0249282 0.0206537,-0.0268349 0.0182307,-0.0285364 0.0156684,-0.0300198 0.0129862,-0.0312737 0.0102048,-0.0322885 0.00734539,-0.0330565 0.00442982,-0.0335718 0.00148038,-0.0338304 -0.00155888,-0.034714 -0.00466409,-0.0344346 -0.00773176,-0.0338779 -0.0107372,-0.0330486 -0.0136562,-0.0319531 -0.0164652,-0.0306005 -0.0191417,-0.0290015 -0.0216642,-0.0271691 -0.182269,0 z "/>
<path fill="rgb(42,41,42)" stroke="rgb(42,41,42)" d="M 6.04728,1.28367 l 0.00147378,0.033755 0.00441011,0.0334981 0.00731288,0.0329863 0.01016,0.0322234 0.0129298,0.0312153 0.0156012,0.0299696 0.0181538,0.0284958 0.0205683,0.0268052 0.0228263,0.0249105 0.0249105,0.0228263 0.0268052,0.0205683 0.0284958,0.0181538 0.0299696,0.0156012 0.0312153,0.0129298 0.0322234,0.01016 0.0329863,0.00731288 0.0334981,0.00441011 0.033755,0.00147378 0.033755,-0.00147378 0.0334981,-0.00441011 0.0329863,-0.00731288 0.0322234,-0.01016 0.0312153,-0.0129298 0.0299696,-0.0156012 0.0284958,-0.0181538 0.0268052,-0.0205683 0.0249105,-0.0228263 0.0228263,-0.0249105 0.0205683,-0.0268052 0.0181538,-0.0284958 0.0156012,-0.0299696 0.0129298,-0.0312153 0.01016,-0.0322234 0.00731288,-0.0329863 0.00441011,-0.0334981 0.00147378,-0.033755 -0.00147378,-0.033755 -0.00441011,-0.0334981 -0.00731288,-0.0329863 -0.01016,-0.0322234 -0.0129298,-0.0312153 -0.0156012,-0.0299696 -0.0181538,-0.0284958 -0.0205683,-0.0268052 -0.0228263,-0.0249105 -0.0249105,-0.0228263 -0.0268052,-0.0205683 -0.0284958,-0.0181538 -0.0299696,-0.0156012 -0.0312153,-0.0129298 -0.0322234,-0.01016 -0.0329863,-0.00731288 -0.0334981,-0.00441011 -0.033755,-0.00147378 -0.033755,0.00147378 -0.0334981,0.00441011 -0.0329863,0.00731288 -0.0322234,0.01016 -0.0312153,0.0129298 -0.0299696,0.0156012 -0.0284958,0.0181538 -0.0268052,0.0205683 -0.0249105,0.0228263 -0.0228263,0.0249105 -0.0205683,0.0268052 -0.0181538,0.0284958 -0.0156012,0.0299696 -0.0129298,0.0312153 -0.01016,0.0322234 -0.00731288,0.0329863 -0.00441011,0.0334981 -0.00147378,0.033755 z "/>
<path fill="rgb(42,41,42)" stroke="rgb(42,41,42)" d="M 6.63388,2.14072 l 0.679127,-0.0990496 0,-0.623415 -0.386092,-0.0814616 -0.00657182,0.0425215 -0.0102219,0.0417945 -0.0137956,0.0407547 -0.017266,0.03941 -0.0206072,0.0377705 -0.0237942,0.0358483 -0.0268032,0.0336579 -0.0296116,0.0312157 -0.0321985,0.0285399 -0.0345444,0.0256505 -0.0366319,0.0225692 -0.0384453,0.0193191 -0.00254345,0.00101331 0,0.403861 z "/>
<path fill="rgb(42,41,42)" stroke="rgb(42,41,42)" d="M 3.63388,1.77769 l -0.0150639,0.00176728 -0.0437509,0.00124997 -0.0436909,-0.0026097 -0.043291,-0.00644907 -0.0425544,-0.0102383 -0.0414869,-0.0139478 -0.0400966,-0.0175489 -0.0383945,-0.0210135 -0.0363937,-0.0243147 -0.0341098,-0.0274267 -0.0315607,-0.0303254 -0.028766,-0.0329882 -0.0257476,-0.0353944 -0.0225289,-0.0375253 -0.019135,-0.0393644 -0.0155923,-0.0408972 -0.0119283,-0.042112 -0.0081715,-0.0429992 -0.00435114,-0.0435519 -0.453386,0.077916 0,0.545499 1,0.167589 0,-0.325314 z "/>
<path fill="rgb(42,41,42)" stroke="rgb(42,41,42)" d="M 4.21401,2.28367 l -0.20579,-0.203025 0.62566,0.0146649 0,-0.81164 -0.554821,0 -0.0018575,0.0437293 -0.00570318,0.0433956 -0.0095045,0.0427243 -0.0132319,0.0417207 -0.0168564,0.0403926 -0.0203497,0.0387504 -0.0236848,0.0368067 -0.0268357,0.0345767 -0.0297778,0.0320778 -0.0324883,0.0293294 -0.0349461,0.0263528 -0.0371321,0.0231713 -0.0390293,0.0198096 -0.0406229,0.0162937 -0.0419005,0.0126512 -0.0428522,0.00891019 -0.0284067,0.00333264 0,0.325314 0.289333,0.048489 0.13305,0.132172 0.157747,0 z "/>
<path fill="rgb(42,41,42)" stroke="rgb(42,41,42)" d="M 4.05626,2.28367 l 0.401797,0.399145 0.0138954,0.0126679 0.0149291,0.0114316 0.0158531,0.0101112 0.0166606,0.00871667 0.0173458,0.00725807 0.0179036,0.00574615 0.0183299,0.00419203 0.0186215,0.00260711 0.0187763,0.00100305 0.0235041,0 0,-0.113343 -0.0235041,0 -0.00923016,-0.000415551 -0.00915548,-0.00124329 -0.00900672,-0.00206097 -0.00878508,-0.00286197 -0.00849237,-0.00363982 -0.00813094,-0.00438822 -0.00770372,-0.00510111 -0.00721417,-0.00577273 -0.00666625,-0.00639764 -0.32198,-0.317654 -0.157747,0 z "/>
<path fill="rgb(42,41,42)" stroke="rgb(42,41,42)" d="M 5.48174,2.28367 l -8.88178e-16,-0.167599 0.152145,0.00378941 0,-0.836191 -1,0 0,0.81164 0.734512,0.0172164 0,0.171144 0.113343,0 z "/>
<path fill="rgb(42,41,42)" stroke="rgb(42,41,42)" d="M 4.63388,2.74655 l 1,0 0,-0.113343 -0.152145,0 -2.66454e-15,-0.349536 -0.113343,0 0,0.349536 -0.734512,0 0,0.113343 z "/>
<path fill="rgb(42,41,42)" stroke="rgb(42,41,42)" d="M 5.93511,1.28367 l -0.301227,0 0,0.836191 0.84318,0.0210007 -0.13512,0.142808 0.155268,0 0.135713,-0.142808 0.000959093,-0.000139882 0,-0.403861 -0.0374275,0.0149111 -0.0411976,0.0124105 -0.042116,0.00880379 -0.0427193,0.0051312 -0.0430029,0.00142022 -0.0429647,-0.00230139 -0.0426051,-0.00600578 -0.0419267,-0.00966523 -0.0409346,-0.0132524 -0.0396362,-0.0167403 -0.0380412,-0.0201031 -0.0361616,-0.0233154 -0.0340114,-0.0263532 -0.0316067,-0.0291939 -0.0289655,-0.0318161 -0.0261076,-0.0342002 -0.0230544,-0.0363285 -0.0198286,-0.038185 -0.0164545,-0.0397557 -0.0129573,-0.0410289 -0.00936308,-0.0419952 -0.00569884,-0.0426472 -0.00199195,-0.0429802 z "/>
<path fill="rgb(42,41,42)" stroke="rgb(42,41,42)" d="M 6.49721,2.28367 l -0.155268,0 -0.300553,0.317654 -0.00622395,0.00604227 -0.00671408,0.00549251 -0.00715581,0.00490315 -0.00754596,0.00427844 -0.0078817,0.00362289 -0.00816062,0.00294122 -0.00838071,0.00223835 -0.00854039,0.00151934 -0.00863849,0.000789378 -0.00867431,5.37237e-05 -0.329591,0 0,0.113343 0.375626,0 0.00991551,-0.000442027 0.00983684,-0.00132257 0.00968014,-0.00219263 0.00944663,-0.00304529 0.00913819,-0.00387379 0.00875724,-0.00467155 0.00830682,-0.00543226 0.0077905,-0.00614986 0.00721237,-0.00681868 0.407618,-0.42893 z "/>
<path fill="rgb(42,41,42)" stroke="rgb(42,41,42)" d="M 0.508116,13.7364 l 0.000998892,0.0228784 0.00298907,0.0227043 0.00495651,0.0223574 0.00688622,0.0218403 0.00876352,0.021157 0.0105741,0.0203127 0.0123043,0.0193138 0.0139407,0.0181679 0.0154711,0.0168838 0.0168838,0.0154711 0.0181679,0.0139407 0.0193138,0.0123043 0.0203127,0.0105741 0.021157,0.00876352 0.0218403,0.00688622 0.0223574,0.00495651 0.0227043,0.00298907 0.0228784,0.000998892 7.92212,5.32907e-15 0.317061,1.77636e-15 0.239002,1.77636e-15 0.0240982,-0.00110848 0.0238946,-0.00331607 0.0234893,-0.00549566 0.0225716,-0.0075081 0.0217993,-0.0095206 0.0208479,-0.0114549 0.0197253,-0.0132952 0.0184408,-0.0150262 0.0170048,-0.0166339 0.0154292,-0.018105 0.0137268,-0.0194274 0.0119118,-0.0205903 0.0099989,-0.0215841 0.00800392,-0.0224006 0.00594321,-0.0230332 0.00311414,-0.0178564 0.00187444,-0.0180288 0.000625809,-0.0181151 1.77636e-15,-0.415756 0,-0.478224 0,-4.59155 0.2625,0 -1.77636e-15,5.48553 -0.00199778,0.0457568 -0.00597815,0.0454085 -0.00991301,0.0447147 -0.0137724,0.0436806 -0.017527,0.042314 -0.0211483,0.0406254 -0.0246085,0.0386276 -0.0278815,0.0363359 -0.0309423,0.0337676 -0.0337676,0.0309423 -0.0363359,0.0278815 -0.0386276,0.0246085 -0.0406254,0.0211483 -0.042314,0.017527 -0.0436806,0.0137724 -0.0447147,0.00991301 -0.0454085,0.00597815 -0.0457568,0.00199778 -8.47818,-1.06581e-14 -0.0457568,-0.00199778 -0.0454085,-0.00597815 -0.0447147,-0.00991301 -0.0436806,-0.0137724 -0.042314,-0.017527 -0.0406254,-0.0211483 -0.0386276,-0.0246085 -0.0363359,-0.0278815 -0.0337676,-0.0309423 -0.0309423,-0.0337676 -0.0278815,-0.0363359 -0.0246085,-0.0386276 -0.0211483,-0.0406254 -0.017527,-0.042314 -0.0137724,-0.0436806 -0.00991301,-0.0447147 -0.00597815,-0.0454085 -0.00199778,-0.0457568 0,-5.48553 0.2625,0 0,5.48553 z "/>
<path fill="rgb(42,41,42)" stroke="rgb(42,41,42)" d="M 0.508116,8.25089 l -0.2625,0 0,-7.49085 0.00199778,-0.0457568 0.00597815,-0.0454085 0.00991301,-0.0447147 0.0137724,-0.0436806 0.017527,-0.042314 0.0211483,-0.0406254 0.0246085,-0.0386276 0.0278815,-0.0363359 0.0309423,-0.0337676 0.0337676,-0.0309423 0.0363359,-0.0278815 0.0386276,-0.0246085 0.0406254,-0.0211483 0.042314,-0.017527 0.0436806,-0.0137724 0.0447147,-0.00991301 0.0454085,-0.00597815 0.0457568,-0.00199778 8.47818,7.10543e-15 0.0457568,0.00199778 0.0454085,0.00597815 0.0447147,0.00991301 0.0436806,0.0137724 0.042314,0.017527 0.0406254,0.0211483 0.0386276,0.0246085 0.0363359,0.0278815 0.0337676,0.0309423 0.0309423,0.0337676 0.0278815,0.0363359 0.0246085,0.0386276 0.0211483,0.0406254 0.017527,0.042314 0.0137724,0.0436806 0.00991301,0.0447147 0.00597815,0.0454085 0.00199778,0.0457568 0,7.49085 -0.2625,0 -1.77636e-15,-7.49085 -0.000998892,-0.0228784 -0.00298907,-0.0227043 -0.00495651,-0.0223574 -0.00688622,-0.0218403 -0.00876352,-0.021157 -0.0105741,-0.0203127 -0.0123043,-0.0193138 -0.0139407,-0.0181679 -0.0154711,-0.0168838 -0.0168838,-0.0154711 -0.0181679,-0.0139407 -0.0193138,-0.0123043 -0.0203127,-0.0105741 -0.021157,-0.00876352 -0.0218403,-0.00688622 -0.0223574,-0.00495651 -0.0227043,-0.00298907 -0.0228784,-0.000998892 -7.92212,-7.10543e-15 -0.317061,8.88178e-16 -0.239002,-2.66454e-15 -0.0240982,0.00110848 -0.0238946,0.00331607 -0.0234893,0.00549566 -0.0225716,0.0075081 -0.0217993,0.0095206 -0.0208479,0.0114549 -0.0197253,0.0132952 -0.0184408,0.0150262 -0.0170048,0.0166339 -0.0154292,0.018105 -0.0137268,0.0194274 -0.0119118,0.0205903 -0.0099989,0.0215841 -0.00800392,0.0224006 -0.00594321,0.0230332 -0.00311414,0.0178564 -0.00187444,0.0180288 -0.000625809,0.0181151 1.77636e-15,0.415756 0,0.478224 -1.77636e-15,6.59687 z "/>
</g></g></svg>
