<?xml version="1.0" encoding="UTF-8" standalone="no"?>
<!DOCTYPE svg PUBLIC "-//W3C//DTD SVG 1.1//EN" "http://www.w3.org/Graphics/SVG/1.1/DTD/svg11-flat.dtd"
[

]>
<svg xmlns="http://www.w3.org/2000/svg"  viewBox="-0.0583333 -0.0583333 5.61667 3.61667"><g fill="none" stroke="black" stroke-width="0.0125" transform="translate(0,3.5) scale(1, -1)">
<g id="Output" >
<path fill="rgb(125,50,125)" stroke="rgb(125,50,125)" d="M 1.5,0.625394 l -0.00171239,0.0392201 -0.00512413,0.0389216 -0.00849687,0.0383269 -0.0118049,0.0374405 -0.0150232,0.0362692 -0.0181271,0.0348218 -0.021093,0.0331094 -0.0238984,0.031145 -0.0265219,0.0289436 -0.0289436,0.0265219 -0.031145,0.0238984 -0.0331094,0.021093 -0.0348218,0.0181271 -0.0362692,0.0150232 -0.0374405,0.0118049 -0.0383269,0.00849687 -0.0389216,0.00512413 -0.0392201,0.00171239 -0.0392201,-0.00171239 -0.0389216,-0.00512413 -0.0383269,-0.00849687 -0.0374405,-0.0118049 -0.0362692,-0.0150232 -0.0348218,-0.0181271 -0.0331094,-0.021093 -0.031145,-0.0238984 -0.0289436,-0.0265219 -0.0265219,-0.0289436 -0.0238984,-0.031145 -0.021093,-0.0331094 -0.0181271,-0.0348218 -0.0150232,-0.0362692 -0.0118049,-0.0374405 -0.00849687,-0.0383269 -0.00512413,-0.0389216 -0.00171239,-0.0392201 0.00171239,-0.0392201 0.00512413,-0.0389216 0.00849687,-0.0383269 0.0118049,-0.0374405 0.0150232,-0.0362692 0.0181271,-0.0348218 0.021093,-0.0331094 0.0238984,-0.031145 0.0265219,-0.0289436 0.0289436,-0.0265219 0.031145,-0.0238984 0.0331094,-0.021093 0.0348218,-0.0181271 0.0362692,-0.0150232 0.0374405,-0.0118049 0.0383269,-0.00849687 0.0389216,-0.00512413 0.0392201,-0.00171239 0.0392201,0.00171239 0.0389216,0.00512413 0.0383269,0.00849687 0.0374405,0.0118049 0.0362692,0.0150232 0.0348218,0.0181271 0.0331094,0.021093 0.031145,0.0238984 0.0289436,0.0265219 0.0265219,0.0289436 0.0238984,0.031145 0.021093,0.0331094 0.0181271,0.0348218 0.0150232,0.0362692 0.0118049,0.0374405 0.00849687,0.0383269 0.00512413,0.0389216 0.00171239,0.0392201 z "/>
<path fill="rgb(241,240,234)" stroke="rgb(241,240,234)" d="M 5.5,2 l 0,0.774037 -0.00276251,0.0632718 -0.0082665,0.0627903 -0.0137076,0.0618309 -0.0120034,0.0380699 -0.46326,0 0,-1 0.5,0 z "/>
<path fill="rgb(241,240,234)" stroke="rgb(241,240,234)" d="M 3.67746,1.96957 l 0,0.263867 -0.000275665,0.00122932 -0.00038157,0.00120067 -0.000484581,0.00116292 -0.000583918,0.00111636 -0.000678826,0.00106132 -0.000768587,0.00099824 -0.00085252,0.000927588 -0.000929987,0.000849902 -0.0010004,0.000765771 -0.00106323,0.000675832 -0.001118,0.000580769 -0.00116428,0.000481302 -0.00120174,0.000378184 -0.00123009,0.000272199 -0.00124911,0.000164149 -0.00125865,5.48551e-05 -0.310821,0 -0.000946456,-0.00012956 -0.000931542,-0.000211648 -0.000909522,-0.000292122 -0.000880564,-0.000370367 -0.00084489,-0.000445788 -0.000802771,-0.000517808 -0.000754528,-0.000585878 -0.00070053,-0.000649479 -0.000641189,-0.000708126 -0.000576956,-0.000761372 -0.000508323,-0.00080881 -0.000435812,-0.000850078 -0.000359977,-0.000884863 -0.000281396,-0.000912897 -0.000200669,-0.000933969 -0.000118411,-0.000947916 -3.525e-05,-0.000954632 4.818e-05,-0.000954067 0,-0.263867 0,-0.116233 4.70154e-05,-0.00103575 0.000137006,-0.00102772 0.000225957,-0.00101189 0.000313191,-0.000988378 0.000398048,-0.00095736 0.000479882,-0.000919072 0.000558072,-0.000873806 0.000632024,-0.000821904 0.000701177,-0.000763761 0.000765006,-0.000699819 0.000823026,-0.000630562 0.000874796,-0.000556518 0.000919924,-0.000478247 0.000958066,-0.000396345 0.000988934,-0.000311434 0.00101229,-0.000224157 0.00102796,-0.000135179 0.00103583,-4.5174e-05 0.313068,0 0.0010289,0.000230722 0.00100492,0.000319361 0.000973329,0.000405578 0.000934353,0.00048872 0.000888292,0.000568155 0.000835494,0.000643282 0.000776361,0.000713531 0.00071134,0.000778369 0.000640925,0.000837304 0.00056565,0.000889889 0.000486085,0.000935727 0.000402834,0.000974468 0.000316528,0.00100582 0.000227822,0.00102954 0.000137388,0.00104546 4.59119e-05,0.00105345 0,0.116191 z "/>
<path fill="rgb(241,240,234)" stroke="rgb(241,240,234)" d="M 2.02061,1.96957 l 0,-0.11624 4.70176e-05,-0.00103577 0.000137013,-0.00102774 0.000225967,-0.00101191 0.000313206,-0.000988399 0.000398066,-0.000957379 0.000479904,-0.000919089 0.000558097,-0.000873819 0.000632052,-0.000821913 0.000701207,-0.000763767 0.000765038,-0.00069982 0.000823059,-0.000630559 0.00087483,-0.00055651 0.000919958,-0.000478235 0.0009581,-0.000396328 0.000988966,-0.000311412 0.00101232,-0.00022413 0.00102799,-0.000135147 0.00103585,-4.51378e-05 0.362905,1.34209e-05 0.00102883,0.000230784 0.00100485,0.000319412 0.000973252,0.000405618 0.000934275,0.000488748 0.000888214,0.000568172 0.000835419,0.000643289 0.000776288,0.000713527 0.000711272,0.000778355 0.000640862,0.000837282 0.000565593,0.000889859 0.000486035,0.000935689 0.000402792,0.000974425 0.000316495,0.00100577 0.000227798,0.00102949 0.000137373,0.00104541 4.59071e-05,0.00105339 0,0.116184 0,0.263874 -0.000275673,0.00122935 -0.000381584,0.0012007 -0.000484601,0.00116295 -0.000583942,0.00111638 -0.000678855,0.00106134 -0.00076862,0.000998257 -0.000852556,0.0009276 -0.000930026,0.000849908 -0.00100044,0.000765771 -0.00106327,0.000675827 -0.00111804,0.000580757 -0.00116433,0.000481283 -0.00120179,0.000378159 -0.00123013,0.000272168 -0.00124914,0.000164112 -0.00125869,5.48115e-05 -0.360658,-1.33378e-05 -0.000946402,-0.000129622 -0.000931484,-0.000211701 -0.000909461,-0.000292166 -0.000880501,-0.000370402 -0.000844825,-0.000445814 -0.000802706,-0.000517825 -0.000754465,-0.000585886 -0.000700469,-0.000649479 -0.000641131,-0.000708118 -0.000576903,-0.000761356 -0.000508274,-0.000808787 -0.000435769,-0.00085005 -0.00035994,-0.000884829 -0.000281366,-0.00091286 -0.000200646,-0.000933928 -0.000118396,-0.000947872 -3.52425e-05,-0.000954588 4.81797e-05,-0.000954022 0,-0.263861 z "/>
<path fill="rgb(241,240,234)" stroke="rgb(241,240,234)" d="M 0,2 l 1,0 0,1 -0.96326,0 -0.0120034,-0.0380699 -0.0137076,-0.0618309 -0.0082665,-0.0627903 -0.00276251,-0.0632718 0,-0.774037 z "/>
<path fill="rgb(241,240,234)" stroke="rgb(241,240,234)" d="M 4,1 l 0,-1 0.774037,8.88178e-16 0.0632718,0.00276251 0.0627903,0.0082665 0.0618309,0.0137076 0.0380699,0.0120034 0,0.96326 -1,0 z "/>
<path fill="rgb(241,240,234)" stroke="rgb(241,240,234)" d="M 4,1.96357 l 0.0147501,-0.0959352 0,-0.287448 0.0380517,-0.0237682 0,-0.059364 -0.0528018,-0.00856428 0,-0.488487 1,0 0,1 -1,0 0,-0.0364326 z "/>
<path fill="rgb(241,240,234)" stroke="rgb(241,240,234)" d="M 4,2.31554 l 0.00112769,-0.00157781 0.00171843,-0.00290411 0.00146195,-0.00304131 0.00119461,-0.00315591 0.000918392,-0.00324706 0.000635351,-0.00331409 0.000347589,-0.00335649 5.72446e-05,-0.00337396 -0.000233525,-0.00336635 -0.00052256,-0.00333374 -0.000807712,-0.00327635 -0.00108686,-0.00319462 -0.00135794,-0.00308915 -0.00161892,-0.00296074 -0.00183373,-0.00303504 0,-0.269309 1,0 0,1 -1,0 0,-0.684464 z "/>
<path fill="rgb(241,240,234)" stroke="rgb(241,240,234)" d="M 3.92608,1.96957 l -0.0401056,0.267445 -0.0003387,0.000945002 -0.000417338,0.000913004 -0.00049299,0.000874476 -0.000565116,0.000829693 -0.000633201,0.000778976 -0.000696756,0.000722688 -0.000755328,0.000661231 -0.000808498,0.000595044 -0.000855885,0.000524602 -0.000897151,0.000450408 -0.000932,0.000372992 -0.000960183,0.000292908 -0.000981499,0.000210729 -0.000995795,0.000127044 -0.00100297,4.2449e-05 -0.133118,0 -0.000925791,-0.000148248 -0.00090931,-0.000228521 -0.000885882,-0.000307049 -0.000855687,-0.000383232 -0.000818954,-0.000456486 -0.000775966,-0.000526253 -0.00072705,-0.000592001 -0.000672579,-0.000653225 -0.000612971,-0.00070946 -0.000548679,-0.000760274 -0.000480197,-0.000805281 -0.000408046,-0.000844136 -0.000332777,-0.000876542 -0.000254967,-0.000902252 -0.000175208,-0.000921069 -9.41115e-05,-0.00093285 -1.22957e-05,-0.000937505 6.9614e-05,-0.000934997 0,-0.263867 0,-0.116261 4.81171e-05,-0.00103368 0.000137857,-0.00102558 0.000226551,-0.0010097 0.000313527,-0.000986163 0.000398127,-0.00095515 0.000479708,-0.000916896 0.000557651,-0.000871689 0.000631367,-0.000819874 0.000700296,-0.000761842 0.000763915,-0.000698034 0.000821742,-0.000628933 0.000873339,-0.000555064 0.000918314,-0.000476987 0.000956326,-0.000395293 0.000987088,-0.000310602 0.00101037,-0.000223556 0.00102598,-0.000134815 0.00103382,-4.50523e-05 0.190657,0 0.000900793,0.000170708 0.000882413,0.00024883 0.000857272,0.000325045 0.000825562,0.000398769 0.000787526,0.000469438 0.000743456,0.00053651 0.000693689,0.000599471 0.000638607,0.000657838 0.000578631,0.000711165 0.000514222,0.000759042 0.000445873,0.000801104 0.000374107,0.000837027 0.000299474,0.000866536 0.000222547,0.000889406 0.000143915,0.00090546 6.41795e-05,0.000914577 -1.60474e-05,0.000916685 -9.61514e-05,0.00091177 -0.0174238,0.116191 z "/>
<path fill="rgb(241,240,234)" stroke="rgb(241,240,234)" d="M 4,3.5 l 0,-0.5 1,0 0,0.46326 -0.0380699,0.0120034 -0.0618309,0.0137076 -0.0627903,0.0082665 -0.0632718,0.00276251 -0.774037,0 z "/>
<path fill="rgb(241,240,234)" stroke="rgb(241,240,234)" d="M 5,1 l 0,-0.96326 0.022331,0.00704094 0.0585112,0.0242362 0.0561763,0.0292435 0.0534138,0.0340283 0.0502447,0.0385542 0.0466933,0.0427866 0.0427866,0.0466933 0.0385542,0.0502447 0.0340283,0.0534138 0.0292435,0.0561763 0.0242362,0.0585112 0.0190443,0.0604009 0.0137076,0.0618309 0.0082665,0.0627903 0.00276251,0.0632718 0,0.274037 -0.5,0 z "/>
<path fill="rgb(241,240,234)" stroke="rgb(241,240,234)" d="M 2,1 l 1,0 0,0.425775 -0.657541,0 -0.000764473,0.0198429 -0.00249676,0.0197001 -0.00420992,0.0194062 -0.00589082,0.0189638 -0.00752658,0.018376 -0.00910468,0.0176474 -0.010613,0.0167836 -0.0120401,0.0157912 -0.0133748,0.0146779 -0.0146071,0.013452 -0.0157275,0.0121231 -0.0167274,0.0107014 -0.0175991,0.0091976 -0.018336,0.00762337 -0.0189324,0.00599072 -0.0193838,0.00431218 -0.0196866,0.00260059 -0.0198386,0.000869084 -0.0198386,-0.000869084 -0.0196866,-0.00260059 -0.0193838,-0.00431218 -0.0189324,-0.00599072 -0.018336,-0.00762337 -0.0175991,-0.0091976 -0.00182257,-0.00116599 0,-0.0603868 0.000937871,0.000859401 0.0122488,0.00939881 0.0130213,0.00829549 0.0136948,0.00712904 0.014264,0.00590834 0.0147247,0.00464267 0.0150733,0.00334166 0.0153071,0.00201522 0.0154245,0.00067345 0.0154245,-0.00067345 0.0153071,-0.00201522 0.0150733,-0.00334166 0.0147247,-0.00464267 0.014264,-0.00590834 0.0136948,-0.00712904 0.0130213,-0.00829549 0.0122488,-0.00939881 0.011383,-0.0104306 0.0104306,-0.011383 0.00939881,-0.0122488 0.00829549,-0.0130213 0.00712904,-0.0136948 0.00590834,-0.014264 0.00464267,-0.0147247 0.00334166,-0.0150733 0.00201522,-0.0153071 0.00067345,-0.0154245 -0.00067345,-0.0154245 -0.00201522,-0.0153071 -0.00334166,-0.0150733 -0.00464267,-0.0147247 -0.00590834,-0.014264 -0.00712904,-0.0136948 -0.00829549,-0.0130213 -0.00939881,-0.0122488 -0.0104306,-0.011383 -0.011383,-0.0104306 -0.0122488,-0.00939881 -0.0130213,-0.00829549 -0.0136948,-0.00712904 -0.014264,-0.00590834 -0.0147247,-0.00464267 -0.0150733,-0.00334166 -0.0153071,-0.00201522 -0.0154245,-0.00067345 -0.0154245,0.00067345 -0.0153071,0.00201522 -0.0150733,0.00334166 -0.0147247,0.00464267 -0.014264,0.00590834 -0.0136948,0.00712904 -0.0130213,0.00829549 -0.0122488,0.00939881 -0.000937871,0.000859401 0,-0.292263 z "/>
<path fill="rgb(241,240,234)" stroke="rgb(241,240,234)" d="M 2,2.33082 l 1,0 0,0.669185 -1,0 0,-0.669185 z "/>
<path fill="rgb(241,240,234)" stroke="rgb(241,240,234)" d="M 2,3 l 1,0 0,0.5 -1,-4.44089e-16 0,-0.5 z "/>
<path fill="rgb(241,240,234)" stroke="rgb(241,240,234)" d="M 3,0 l 1,0 0,1 -1,0 0,-1 z "/>
<path fill="rgb(241,240,234)" stroke="rgb(241,240,234)" d="M 3.56228,1.42698 l -0.00067345,-0.0154245 -0.00201522,-0.0153071 -0.00334166,-0.0150733 -0.00464267,-0.0147247 -0.00590834,-0.014264 -0.00712904,-0.0136948 -0.00829549,-0.0130213 -0.00939881,-0.0122488 -0.0104306,-0.011383 -0.011383,-0.0104306 -0.0122488,-0.00939881 -0.0130213,-0.00829549 -0.0136948,-0.00712904 -0.014264,-0.00590834 -0.0147247,-0.00464267 -0.0150733,-0.00334166 -0.0153071,-0.00201522 -0.0154245,-0.00067345 -0.0154245,0.00067345 -0.0153071,0.00201522 -0.0150733,0.00334166 -0.0147247,0.00464267 -0.014264,0.00590834 -0.0136948,0.00712904 -0.0130213,0.00829549 -0.0122488,0.00939881 -0.011383,0.0104306 -0.0104306,0.011383 -0.00939881,0.0122488 -0.00829549,0.0130213 -0.00712904,0.0136948 -0.00590834,0.014264 -0.00464267,0.0147247 -0.00334166,0.0150733 -0.00201522,0.0153071 -0.00067345,0.0154245 0.00067345,0.0154245 0.00201522,0.0153071 0.00334166,0.0150733 0.00464267,0.0147247 0.00590834,0.014264 0.00712904,0.0136948 0.00829549,0.0130213 0.00939881,0.0122488 0.0104306,0.011383 0.011383,0.0104306 0.0122488,0.00939881 0.0130213,0.00829549 0.0136948,0.00712904 0.014264,0.00590834 0.0147247,0.00464267 0.0150733,0.00334166 0.0153071,0.00201522 0.0154245,0.00067345 0.0154245,-0.00067345 0.0153071,-0.00201522 0.0150733,-0.00334166 0.0147247,-0.00464267 0.014264,-0.00590834 0.0136948,-0.00712904 0.0130213,-0.00829549 0.0122488,-0.00939881 0.011383,-0.0104306 0.0104306,-0.011383 0.00939881,-0.0122488 0.00829549,-0.0130213 0.00712904,-0.0136948 0.00590834,-0.014264 0.00464267,-0.0147247 0.00334166,-0.0150733 0.00201522,-0.0153071 0.00067345,-0.0154245 z M 3,1 l 1,0 0,0.488487 -0.386642,-0.0627121 -0.000867214,0.0198762 -0.00259627,0.019725 -0.00430557,0.0194236 -0.0059821,0.0189744 -0.0076131,0.0183809 -0.00918616,0.0176474 -0.0106893,0.0167796 -0.0121111,0.0157841 -0.0134407,0.0146684 -0.014668,0.0134412 -0.0157837,0.0121116 -0.0167792,0.0106898 -0.0176471,0.0091867 -0.0183806,0.00761367 -0.0189743,0.00598269 -0.0194235,0.00430617 -0.0197249,0.00259688 -0.0198762,0.000867829 -0.0198762,-0.000867829 -0.0197249,-0.00259688 -0.0194235,-0.00430617 -0.0189743,-0.00598269 -0.0183806,-0.00761367 -0.0176471,-0.0091867 -0.0167792,-0.0106898 -0.0157837,-0.0121116 -0.014668,-0.0134412 -0.0134407,-0.0146684 -0.0121111,-0.0157841 -0.0106893,-0.0167796 -0.00918616,-0.0176474 -0.0076131,-0.0183809 -0.0059821,-0.0189744 -0.00430557,-0.0194236 -0.00259627,-0.019725 -0.000867214,-0.0198762 -0.15726,0 0,-0.425775 z M 4,1.96357 l 0,0.0364326 -0.00560153,0 0.00467898,-0.0304323 0.000922546,-0.00600029 z "/>
<path fill="rgb(241,240,234)" stroke="rgb(241,240,234)" d="M 1.64416,1.96957 l -0.0428371,-0.106713 0.0332599,-0.0570211 0.299311,0 0.00103535,4.58034e-05 0.00102742,0.000135832 0.00101168,0.000224827 0.000988247,0.000312113 0.000957297,0.000397025 0.000919067,0.000478918 0.000873848,0.000557169 0.000821983,0.000631182 0.000763867,0.000700396 0.000699942,0.000764283 0.000630694,0.000822358 0.000556649,0.000874178 0.000478372,0.000919351 0.000396456,0.000957533 0.000311526,0.000988432 0.000224226,0.00101181 0.000135222,0.0010275 4.51884e-05,0.00103538 0,0.15185 0,0.228257 -4.57762e-05,0.00103473 -0.000135751,0.00102681 -0.000224694,0.00101108 -0.000311928,0.00098766 -0.000396789,0.000956729 -0.000478634,0.000918521 -0.000556838,0.000873329 -0.000630807,0.000821495 -0.00069998,0.000763413 -0.000763829,0.000699526 -0.000821869,0.000630319 -0.000873659,0.000556319 -0.000918805,0.000478088 -0.000956964,0.000396221 -0.000987845,0.000311341 -0.00101121,0.000224093 -0.00102689,0.000135141 -0.00103476,4.51616e-05 -0.185838,0 -0.00106235,-7.22634e-05 -0.00105154,-0.00016758 -0.00103219,-0.000261536 -0.00100446,-0.000353369 -0.000968581,-0.000442335 -0.000924841,-0.00052771 -0.000873595,-0.000608803 -0.000815259,-0.000684954 -0.000750306,-0.000755547 -0.000679263,-0.000820007 -0.000602708,-0.000877811 -0.000521261,-0.000928492 -0.000435583,-0.000971636 -0.00034637,-0.0010069 -0.000254345,-0.00103398 -0.0925738,-0.230614 z "/>
<path fill="rgb(241,240,234)" stroke="rgb(241,240,234)" d="M 3,3.5 l 0,-0.5 1,0 0,0.5 -1,-4.44089e-16 z "/>
<path fill="rgb(241,240,234)" stroke="rgb(241,240,234)" d="M 1,3 l 1,0 0,0.5 -1,0 0,-0.5 z "/>
<path fill="rgb(241,240,234)" stroke="rgb(241,240,234)" d="M 2,0 l 1,0 0,1 -1,0 0,-1 z "/>
<path fill="rgb(241,240,234)" stroke="rgb(241,240,234)" d="M 5.5,1 l 0,1 -0.5,0 0,-1 0.5,0 z "/>
<path fill="rgb(241,240,234)" stroke="rgb(241,240,234)" d="M 4,2.26931 l -0.0374722,-0.0620207 0.0318707,-0.207289 0.00560153,0 0,0.269309 z M 3,2.33082 l 0.976769,0 0.00326062,-0.000869022 0.00317367,-0.00114659 0.00306314,-0.00141564 0.00292985,-0.00167417 0.00277479,-0.00192026 0.00259911,-0.00215209 0.00240412,-0.00236792 0.00219127,-0.00256616 0.000834454,-0.00116753 0,0.684464 -1,0 0,-0.669185 z "/>
<path fill="rgb(241,240,234)" stroke="rgb(241,240,234)" d="M 0.801288,1 l 0.0237115,0.0151059 0.0348218,0.0181271 0.0362692,0.0150232 0.0374405,0.0118049 0.0383269,0.00849687 0.0281417,0.00370492 0,0.927737 -1,0 0,-1 0.801288,0 z "/>
<path fill="rgb(241,240,234)" stroke="rgb(241,240,234)" d="M 5,3 l 0.46326,0 -0.00704094,0.022331 -0.0242362,0.0585112 -0.0292435,0.0561763 -0.0340283,0.0534138 -0.0385542,0.0502447 -0.0427866,0.0466933 -0.0466933,0.0427866 -0.0502447,0.0385542 -0.0534138,0.0340283 -0.0561763,0.0292435 -0.0585112,0.0242362 -0.022331,0.00704094 0,-0.46326 z "/>
<path fill="rgb(241,240,234)" stroke="rgb(241,240,234)" d="M 3.2855,1.96957 l 0,0.263874 -0.000275673,0.00122935 -0.000381584,0.0012007 -0.000484601,0.00116295 -0.000583942,0.00111638 -0.000678855,0.00106134 -0.00076862,0.000998257 -0.000852556,0.0009276 -0.000930026,0.000849908 -0.00100044,0.000765771 -0.00106327,0.000675827 -0.00111804,0.000580757 -0.00116433,0.000481283 -0.00120179,0.000378159 -0.00123013,0.000272168 -0.00124914,0.000164112 -0.00125869,5.48115e-05 -0.360658,-1.33378e-05 -0.000946402,-0.000129622 -0.000931484,-0.000211701 -0.000909461,-0.000292166 -0.000880501,-0.000370402 -0.000844825,-0.000445814 -0.000802706,-0.000517825 -0.000754465,-0.000585886 -0.000700469,-0.000649479 -0.000641131,-0.000708118 -0.000576903,-0.000761356 -0.000508274,-0.000808787 -0.000435769,-0.00085005 -0.00035994,-0.000884829 -0.000281366,-0.00091286 -0.000200646,-0.000933928 -0.000118396,-0.000947872 -3.52425e-05,-0.000954588 4.81797e-05,-0.000954022 0,-0.263861 0,-0.11624 4.70176e-05,-0.00103577 0.000137013,-0.00102774 0.000225967,-0.00101191 0.000313206,-0.000988399 0.000398066,-0.000957379 0.000479904,-0.000919089 0.000558097,-0.000873819 0.000632052,-0.000821913 0.000701207,-0.000763767 0.000765038,-0.00069982 0.000823059,-0.000630559 0.00087483,-0.00055651 0.000919958,-0.000478235 0.0009581,-0.000396328 0.000988966,-0.000311412 0.00101232,-0.00022413 0.00102799,-0.000135147 0.00103585,-4.51378e-05 0.362905,1.34209e-05 0.00102883,0.000230784 0.00100485,0.000319412 0.000973252,0.000405618 0.000934275,0.000488748 0.000888214,0.000568172 0.000835419,0.000643289 0.000776288,0.000713527 0.000711272,0.000778355 0.000640862,0.000837282 0.000565593,0.000889859 0.000486035,0.000935689 0.000402792,0.000974425 0.000316495,0.00100577 0.000227798,0.00102949 0.000137373,0.00104541 4.59071e-05,0.00105339 0,0.116184 z "/>
<path fill="rgb(241,240,234)" stroke="rgb(241,240,234)" d="M 2.46125,1.96957 l 0,-0.11624 4.70176e-05,-0.00103577 0.000137013,-0.00102774 0.000225967,-0.00101191 0.000313206,-0.000988399 0.000398066,-0.000957379 0.000479904,-0.000919089 0.000558097,-0.000873819 0.000632052,-0.000821913 0.000701207,-0.000763767 0.000765038,-0.00069982 0.000823059,-0.000630559 0.00087483,-0.00055651 0.000919958,-0.000478235 0.0009581,-0.000396328 0.000988966,-0.000311412 0.00101232,-0.00022413 0.00102799,-0.000135147 0.00103585,-4.51378e-05 0.362905,1.34209e-05 0.00102883,0.000230784 0.00100485,0.000319412 0.000973252,0.000405618 0.000934275,0.000488748 0.000888214,0.000568172 0.000835419,0.000643289 0.000776288,0.000713527 0.000711272,0.000778355 0.000640862,0.000837282 0.000565593,0.000889859 0.000486035,0.000935689 0.000402792,0.000974425 0.000316495,0.00100577 0.000227798,0.00102949 0.000137373,0.00104541 4.59071e-05,0.00105339 0,0.116184 0,0.263874 -0.000275673,0.00122935 -0.000381584,0.0012007 -0.000484601,0.00116295 -0.000583942,0.00111638 -0.000678855,0.00106134 -0.00076862,0.000998257 -0.000852556,0.0009276 -0.000930026,0.000849908 -0.00100044,0.000765771 -0.00106327,0.000675827 -0.00111804,0.000580757 -0.00116433,0.000481283 -0.00120179,0.000378159 -0.00123013,0.000272168 -0.00124914,0.000164112 -0.00125869,5.48115e-05 -0.360658,-1.33378e-05 -0.000946402,-0.000129622 -0.000931484,-0.000211701 -0.000909461,-0.000292166 -0.000880501,-0.000370402 -0.000844825,-0.000445814 -0.000802706,-0.000517825 -0.000754465,-0.000585886 -0.000700469,-0.000649479 -0.000641131,-0.000708118 -0.000576903,-0.000761356 -0.000508274,-0.000808787 -0.000435769,-0.00085005 -0.00035994,-0.000884829 -0.000281366,-0.00091286 -0.000200646,-0.000933928 -0.000118396,-0.000947872 -3.52425e-05,-0.000954588 4.81797e-05,-0.000954022 0,-0.263861 z "/>
<path fill="rgb(241,240,234)" stroke="rgb(241,240,234)" d="M 1.58823,2 l 0.0772196,0.188298 -0.0332529,0.106936 -7.04494e-05,0.00287233 0.000177196,0.00286772 0.000423525,0.0028418 0.000666706,0.00279477 0.000904933,0.00272696 0.00113643,0.00263889 0.00135949,0.00253121 0.00157244,0.00240471 0.00177371,0.00226035 0.0019618,0.00209919 0.0021353,0.00192242 0.00229294,0.00173137 0.00243354,0.00152746 0.00255605,0.00131219 0.00265957,0.00108717 0.00274332,0.000854072 0.00280668,0.000614626 0.00284919,0.000370612 0.00287052,0.000123844 0.334546,0 0,0.669185 -1,0 0,-1 0.588234,0 z "/>
<path fill="rgb(241,240,234)" stroke="rgb(241,240,234)" d="M 1.58823,2 l -0.588234,0 0,-0.927737 0.0107799,0.0014192 0.0392201,0.00171239 0.0392201,-0.00171239 0.0389216,-0.00512413 0.0383269,-0.00849687 0.0374405,-0.0118049 0.0362692,-0.0150232 0.0348218,-0.0181271 0.0237115,-0.0151059 0.701288,0 0,0.292263 -0.0104451,0.00957119 -0.0104306,0.011383 -0.00939881,0.0122488 -0.00829549,0.0130213 -0.00712904,0.0136948 -0.00590834,0.014264 -0.00464267,0.0147247 -0.00334166,0.0150733 -0.00201522,0.0153071 -0.00067345,0.0154245 0.00067345,0.0154245 0.00201522,0.0153071 0.00334166,0.0150733 0.00464267,0.0147247 0.00590834,0.014264 0.00712904,0.0136948 0.00829549,0.0130213 0.00939881,0.0122488 0.0104306,0.011383 0.0104451,0.00957119 0,0.0603868 -0.0149048,-0.00953538 -0.0157275,-0.0121231 -0.0146071,-0.013452 -0.0133748,-0.0146779 -0.0120401,-0.0157912 -0.010613,-0.0167836 -0.00910468,-0.0176474 -0.00752658,-0.018376 -0.00589082,-0.0189638 -0.00420992,-0.0194062 -0.00249676,-0.0197001 -0.000764473,-0.0198429 -0.358689,0 0,0.0712763 0.0356311,0 0,0.308782 -0.0356311,0.0522858 0.0457042,0.111448 0.0124801,0.0304323 z "/>
<path fill="rgb(241,240,234)" stroke="rgb(241,240,234)" d="M 2,0 l 0,1 -0.701288,0 0.00939786,-0.0059871 0.031145,-0.0238984 0.0289436,-0.0265219 0.0265219,-0.0289436 0.0238984,-0.031145 0.021093,-0.0331094 0.0181271,-0.0348218 0.0150232,-0.0362692 0.0118049,-0.0374405 0.00849687,-0.0383269 0.00512413,-0.0389216 0.00171239,-0.0392201 -0.00171239,-0.0392201 -0.00512413,-0.0389216 -0.00849687,-0.0383269 -0.0118049,-0.0374405 -0.0150232,-0.0362692 -0.0181271,-0.0348218 -0.021093,-0.0331094 -0.0238984,-0.031145 -0.0265219,-0.0289436 -0.0289436,-0.0265219 -0.031145,-0.0238984 -0.0331094,-0.021093 -0.0348218,-0.0181271 -0.0362692,-0.0150232 -0.0374405,-0.0118049 -0.0383269,-0.00849687 -0.0389216,-0.00512413 -0.0392201,-0.00171239 -0.0392201,0.00171239 -0.0107799,0.0014192 0,-0.178526 1,0 z "/>
<path fill="rgb(241,240,234)" stroke="rgb(241,240,234)" d="M 0.03674,3 l 0.96326,0 0,0.5 -0.274037,0 -0.0632718,-0.00276251 -0.0627903,-0.0082665 -0.0618309,-0.0137076 -0.0604009,-0.0190443 -0.0585112,-0.0242362 -0.0561763,-0.0292435 -0.0534138,-0.0340283 -0.0502447,-0.0385542 -0.0466933,-0.0427866 -0.0427866,-0.0466933 -0.0385542,-0.0502447 -0.0340283,-0.0534138 -0.0292435,-0.0561763 -0.0242362,-0.0585112 -0.00704094,-0.022331 z "/>
<path fill="rgb(241,240,234)" stroke="rgb(241,240,234)" d="M 0.801288,1 l -0.801288,0 8.88178e-16,-0.274037 0.00276251,-0.0632718 0.0082665,-0.0627903 0.0137076,-0.0618309 0.0190443,-0.0604009 0.0242362,-0.0585112 0.0292435,-0.0561763 0.0340283,-0.0534138 0.0385542,-0.0502447 0.0427866,-0.0466933 0.0466933,-0.0427866 0.0502447,-0.0385542 0.0534138,-0.0340283 0.0561763,-0.0292435 0.0585112,-0.0242362 0.0604009,-0.0190443 0.0618309,-0.0137076 0.0627903,-0.0082665 0.0632718,-0.00276251 0.274037,0 0,0.178526 -0.0281417,0.00370492 -0.0383269,0.00849687 -0.0374405,0.0118049 -0.0362692,0.0150232 -0.0348218,0.0181271 -0.0331094,0.021093 -0.031145,0.0238984 -0.0289436,0.0265219 -0.0265219,0.0289436 -0.0238984,0.031145 -0.021093,0.0331094 -0.0181271,0.0348218 -0.0150232,0.0362692 -0.0118049,0.0374405 -0.00849687,0.0383269 -0.00512413,0.0389216 -0.00171239,0.0392201 0.00171239,0.0392201 0.00512413,0.0389216 0.00849687,0.0383269 0.0118049,0.0374405 0.0150232,0.0362692 0.0181271,0.0348218 0.021093,0.0331094 0.0238984,0.031145 0.0265219,0.0289436 0.0289436,0.0265219 0.031145,0.0238984 0.00939786,0.0059871 z "/>
<path fill="rgb(241,240,234)" stroke="rgb(241,240,234)" d="M 1.18378,0.883173 l -0.0180976,0 -0.0353123,-0.00264843 -0.0335467,-0.00529685 -0.0317811,-0.00794528 -0.0295741,-0.0105937 -0.0273671,-0.0128007 -0.0260428,-0.0158906 -0.00926949,-0.00662106 -0.0256014,-0.0211874 -0.0225116,-0.0225116 -0.0194218,-0.0242772 -0.0167734,-0.0256014 -0.0132421,-0.0278085 -0.0105937,-0.0291327 -0.00750387,-0.0304569 -0.00441404,-0.0326639 -0.00176562,-0.0339881 0.000441404,-0.00971089 0.00308983,-0.0357537 0.00750387,-0.0322225 0.0119179,-0.0286913 0.016332,-0.02516 0.169941,0.0154491 -0.0154491,0.000441404 -0.0335467,0.00573825 -0.0269257,0.0114765 -0.0194218,0.0172148 -0.00882808,0.0286913 0.00529685,0.0220702 0.0238358,0.0225116 0.00926949,0.00441404 0.0300155,0.00926949 0.0357537,0.00308983 0.164202,0.022953 -0.0238358,0.0233944 -0.00971089,0.00750387 -0.0269257,0.0154491 -0.209226,0.00397264 0.00794528,0.016332 0.0176562,0.0282499 0.020746,0.0247186 0.0233944,0.0216288 0.0269257,0.018539 0.02516,0.0123593 0.0300155,0.00926949 0.0331053,0.00573825 0.0361951,0.00176562 0.00794528,0 0,0.0887222 z "/>
<path fill="rgb(241,240,234)" stroke="rgb(241,240,234)" d="M 1.06681,0.672182 l -0.0136835,-0.000441404 -0.0322225,-0.00264843 -0.0326639,-0.00529685 -0.0335467,-0.00794528 0.209226,-0.00397264 -0.0295741,0.0114765 -0.0322225,0.00662106 -0.0353123,0.00220702 z "/>
<path fill="rgb(241,240,234)" stroke="rgb(241,240,234)" d="M 1.22439,0.60553 l -0.164202,-0.022953 0.0150077,-0.000882808 0.0335467,-0.00529685 0.0273671,-0.0114765 0.0198632,-0.0172148 0.00926949,-0.0278085 -0.00573825,-0.0225116 -0.0233944,-0.022953 -0.0101523,-0.00485545 -0.0295741,-0.00882808 -0.0361951,-0.00308983 -0.169941,-0.0154491 0.020746,-0.0216288 0.00176562,-0.00176562 0.0256014,-0.018539 0.0278085,-0.0150077 0.0300155,-0.0101523 0.0322225,-0.00617966 0.0348709,-0.00220702 0.0189804,0.000441404 0.0339881,0.00441404 0.0313397,0.00882808 0.0282499,0.0128007 0.0247186,0.0172148 0.022953,0.0225116 0.0167734,0.0264843 0.0101523,0.0291327 0.00353123,0.0326639 -0.00264843,0.0282499 -0.00971089,0.0295741 -0.0172148,0.0264843 z "/>
<path fill="rgb(42,41,42)" stroke="rgb(42,41,42)" d="M 5.00457,0.797982 l -0.0242772,-0.00264843 -0.0313397,-0.0123593 -0.0291327,-0.0225116 0.0776871,-0.0657692 0.0304569,-0.00573825 0.0264843,-0.0203046 0.0339881,0.104171 -0.0150077,0.00926949 -0.0322225,0.0119179 -0.0366365,0.00397264 z "/>
<path fill="rgb(42,41,42)" stroke="rgb(42,41,42)" d="M 4.91983,0.791803 l -0.107261,0 0,-0.437873 0.107261,0 0,0.256897 0.00573825,0.0361951 0.0180976,0.02516 0.020746,0.0150077 0.0331053,0.00750387 -0.0776871,0.0657692 0,0.0313397 z "/>
<path fill="rgb(42,41,42)" stroke="rgb(42,41,42)" d="M 4.55037,0.797982 l -0.0150077,-0.000441404 -0.0335467,-0.00617966 -0.0308983,-0.0132421 -0.0282499,-0.0194218 -0.02516,-0.0260428 -0.0180976,-0.0256014 -0.0158906,-0.0300155 -0.0114765,-0.0326639 -0.00662106,-0.0348709 -0.00220702,-0.037078 0.00220702,-0.037078 0.00662106,-0.0348709 0.0110351,-0.0326639 0.0154491,-0.0300155 0.156257,0.00441404 -0.0220702,0.00353123 -0.0295741,0.0189804 -0.018539,0.02516 -0.0123593,0.0344295 -0.00441404,0.0150077 0.267491,0 0,0.0313397 -0.000441404,0.016332 -0.00485545,0.0348709 -0.256014,0.00132421 0.00838668,0.0260428 0.0176562,0.0286913 0.0238358,0.0172148 0.0308983,0.00573825 0.146105,0.00353123 -0.0176562,0.0264843 -0.0114765,0.0132421 -0.0260428,0.0233944 -0.0291327,0.0167734 -0.0317811,0.0101523 -0.0344295,0.00353123 z "/>
<path fill="rgb(42,41,42)" stroke="rgb(42,41,42)" d="M 4.70089,0.704404 l -0.146105,-0.00353123 0.0158906,-0.00132421 0.0291327,-0.0141249 0.0154491,-0.0233944 0.0145663,-0.0388436 -0.155816,0 0.256014,-0.00132421 -0.00926949,0.0353123 -0.00485545,0.0128007 -0.0150077,0.0344295 z "/>
<path fill="rgb(42,41,42)" stroke="rgb(42,41,42)" d="M 4.62364,0.477964 l -0.00882808,-0.00882808 -0.0295741,-0.0203046 -0.0304569,-0.00662106 -0.156257,-0.00441404 0.0198632,-0.0282499 0.0128007,-0.0141249 0.0269257,-0.022953 0.0295741,-0.016332 0.0322225,-0.00971089 0.0348709,-0.00308983 0.0194218,0.000882808 0.0335467,0.00706247 0.0304569,0.0132421 0.0282499,0.0198632 0.02516,0.0260428 0.00353123,0.00441404 -0.0715075,0.0631208 z "/>
<path fill="rgb(42,41,42)" stroke="rgb(42,41,42)" d="M 4.06747,0.802838 l -0.0317811,-0.00308983 -0.0295741,-0.0119179 -0.0273671,-0.020746 -0.0256014,-0.0295741 0.214081,0.022953 -0.0194218,0.0150077 -0.0242772,0.0154491 -0.00971089,0.00397264 -0.0384022,0.00750387 -0.00794528,0.000441404 z "/>
<path fill="rgb(42,41,42)" stroke="rgb(42,41,42)" d="M 4.27317,0.791803 l -0.105937,0 0,-0.0313397 -0.214081,-0.022953 -0.000882808,-0.000882808 -0.018539,-0.0300155 0.158464,-0.0119179 0.0198632,-0.00264843 0.0286913,-0.0150077 0.0264843,-0.0286913 0,-0.155374 -0.0176562,-0.020746 -0.0278085,-0.0198632 -0.0295741,-0.00662106 -0.159347,-0.00706247 0.018539,-0.0291327 0.00529685,-0.00617966 0.21055,-0.0136835 0,-0.0463474 0,-0.00706247 -0.00662106,-0.02516 -0.0145663,-0.0247186 -0.022953,-0.0238358 -0.0313397,-0.0233944 -0.0397264,-0.0225116 0.0419334,-0.0935777 0.0105937,0.00308983 0.0335467,0.0145663 0.0317811,0.016332 0.0256014,0.0172148 0.00353123,0.00308983 0.0242772,0.0238358 0.0220702,0.0308983 0.00926949,0.0176562 0.0101523,0.0304569 0.00617966,0.0361951 0.00220702,0.041492 0,0.4339 z "/>
<path fill="rgb(42,41,42)" stroke="rgb(42,41,42)" d="M 3.93373,0.706612 l -0.0145663,-0.0313397 -0.0101523,-0.0331053 -0.00617966,-0.0348709 -0.00220702,-0.0366365 0.00176562,-0.0326639 0.00573825,-0.0353123 0.0101523,-0.0331053 0.0145663,-0.0308983 0.159347,0.00706247 -0.00529685,0 -0.0308983,0.0101523 -0.02516,0.0256014 -0.00926949,0.0176562 -0.0101523,0.0326639 -0.00308983,0.0388436 0.00132421,0.0256014 0.00750387,0.0348709 0.0136835,0.0286913 0.00308983,0.00441404 0.0260428,0.022953 0.0322225,0.00750387 -0.158464,0.0119179 z "/>
<path fill="rgb(42,41,42)" stroke="rgb(42,41,42)" d="M 3.95668,0.403367 l 0.0256014,-0.0269257 0.0282499,-0.0189804 0.0304569,-0.0110351 0.0331053,-0.00308983 0.00264843,0 0.0326639,0.00617966 0.0300155,0.0154491 0.0278085,0.0247186 -0.21055,0.0136835 z "/>
<path fill="rgb(42,41,42)" stroke="rgb(42,41,42)" d="M 3.63755,0.802396 l -0.018539,-0.000882808 -0.0335467,-0.00706247 -0.0304569,-0.0132421 -0.0282499,-0.0198632 -0.02516,-0.0264843 -0.0198632,-0.0273671 -0.0154491,-0.0300155 -0.0110351,-0.0326639 -0.00662106,-0.0348709 -0.00220702,-0.0375194 0.00220702,-0.0353123 0.00617966,-0.0348709 0.0110351,-0.0331053 0.0154491,-0.0304569 0.156257,0.0105937 -0.00441404,0 -0.0313397,0.00971089 -0.02516,0.02516 -0.00926949,0.0172148 -0.0101523,0.0326639 -0.00353123,0.0384022 0.00132421,0.0233944 0.00750387,0.0348709 0.0141249,0.0291327 0.00308983,0.00441404 0.0260428,0.022953 0.0317811,0.00750387 0.155816,0.0128007 -0.0203046,0.0273671 -0.0128007,0.0145663 -0.0273671,0.022953 -0.0295741,0.0167734 -0.0317811,0.0101523 -0.0339881,0.00308983 z "/>
<path fill="rgb(42,41,42)" stroke="rgb(42,41,42)" d="M 3.79336,0.707494 l -0.155816,-0.0128007 0.00308983,0 0.0313397,-0.00926949 0.02516,-0.0247186 0.00882808,-0.0167734 0.00971089,-0.0326639 0.00353123,-0.0388436 -0.00132421,-0.0238358 -0.00706247,-0.0348709 -0.0136835,-0.0295741 -0.00220702,-0.00353123 -0.02516,-0.0238358 -0.0322225,-0.00750387 -0.156257,-0.0105937 0.0203046,-0.0282499 0.0132421,-0.0150077 0.0269257,-0.022953 0.0295741,-0.016332 0.0317811,-0.00971089 0.0344295,-0.00308983 0.0176562,0.000882808 0.0326639,0.00662106 0.0304569,0.0132421 0.0286913,0.0198632 0.0260428,0.0264843 0.0198632,0.0273671 0.0158906,0.0300155 0.0114765,0.0326639 0.00662106,0.0348709 0.00220702,0.037078 -0.00220702,0.037078 -0.00662106,0.0348709 -0.0110351,0.0326639 -0.0158906,0.0304569 z "/>
<path fill="rgb(42,41,42)" stroke="rgb(42,41,42)" d="M 3.10212,0.963509 l -0.107703,-0.0397264 0,-0.569853 0.107703,0 0,0.256897 0,0.00441404 0.00573825,0.0348709 0.0150077,0.0247186 0.0247186,0.0150077 0.0339881,0.00485545 0.173472,0.00838668 -0.0145663,0.0304569 -0.238358,0.0269257 0,0.203046 z "/>
<path fill="rgb(42,41,42)" stroke="rgb(42,41,42)" d="M 3.2032,0.802396 l -0.0114765,-0.000441404 -0.0366365,-0.00617966 -0.0300155,-0.0136835 -0.022953,-0.0216288 0.238358,-0.0269257 -0.0225116,0.0269257 -0.0150077,0.0123593 -0.0291327,0.016332 -0.0331053,0.0101523 -0.0375194,0.00308983 z "/>
<path fill="rgb(42,41,42)" stroke="rgb(42,41,42)" d="M 3.35505,0.70308 l -0.173472,-0.00838668 0.0286913,-0.00485545 0.0291327,-0.018539 0.016332,-0.022953 0.00706247,-0.0339881 0,-0.260428 0.0997574,0 0,0.300596 -0.000882808,0.0145663 -0.00662106,0.0339881 z "/>
<path fill="rgb(42,41,42)" stroke="rgb(42,41,42)" d="M 2.49652,0.799748 l -0.0123593,-0.000441404 -0.0353123,-0.00662106 -0.0300155,-0.0141249 -0.0256014,-0.0225116 0.241448,-0.0216288 -0.022953,0.0260428 -0.0145663,0.0114765 -0.0295741,0.0154491 -0.0335467,0.00926949 -0.0375194,0.00308983 z "/>
<path fill="rgb(42,41,42)" stroke="rgb(42,41,42)" d="M 2.39323,0.791803 l -0.107703,0 0,-0.437873 0.107703,0 0,0.263077 0.00441404,0.0264843 0.0180976,0.0304569 0.0216288,0.0167734 0.0335467,0.00750387 0.178327,0.00573825 -0.0145663,0.0304569 -0.241448,0.0216288 0,0.0357537 z "/>
<path fill="rgb(42,41,42)" stroke="rgb(42,41,42)" d="M 2.64924,0.703963 l -0.178327,-0.00573825 0.0295741,-0.00441404 0.0282499,-0.0172148 0.016332,-0.0242772 0.00617966,-0.0353123 0,-0.263077 0.105054,0 0,0.30501 -0.000441404,0.0105937 -0.00662106,0.0344295 z "/>
<path fill="rgb(42,41,42)" stroke="rgb(42,41,42)" d="M 2.02333,0.797982 l -0.0150077,-0.000441404 -0.0331053,-0.00617966 -0.0308983,-0.0132421 -0.0282499,-0.0194218 -0.0256014,-0.0260428 -0.0180976,-0.0256014 -0.0154491,-0.0300155 -0.0114765,-0.0326639 -0.00662106,-0.0348709 -0.00220702,-0.037078 0.00220702,-0.037078 0.00617966,-0.0348709 0.0110351,-0.0326639 0.0154491,-0.0300155 0.156257,0.00441404 -0.0216288,0.00353123 -0.0300155,0.0189804 -0.0180976,0.02516 -0.0123593,0.0344295 -0.00441404,0.0150077 0.267491,0 0,0.0313397 -0.000441404,0.016332 -0.00485545,0.0348709 -0.256014,0.00132421 0.00838668,0.0260428 0.0176562,0.0286913 0.0238358,0.0172148 0.0304569,0.00573825 0.146105,0.00353123 -0.0176562,0.0264843 -0.0110351,0.0132421 -0.0260428,0.0233944 -0.0291327,0.0167734 -0.0317811,0.0101523 -0.0348709,0.00353123 z "/>
<path fill="rgb(42,41,42)" stroke="rgb(42,41,42)" d="M 2.17385,0.704404 l -0.146105,-0.00353123 0.016332,-0.00132421 0.0291327,-0.0141249 0.0154491,-0.0233944 0.0145663,-0.0388436 -0.155816,0 0.256014,-0.00132421 -0.00971089,0.0353123 -0.00441404,0.0128007 -0.0154491,0.0344295 z "/>
<path fill="rgb(42,41,42)" stroke="rgb(42,41,42)" d="M 2.09705,0.477964 l -0.00882808,-0.00882808 -0.0295741,-0.0203046 -0.0308983,-0.00662106 -0.156257,-0.00441404 0.0198632,-0.0282499 0.0132421,-0.0141249 0.0269257,-0.022953 0.0295741,-0.016332 0.0322225,-0.00971089 0.0344295,-0.00308983 0.0198632,0.000882808 0.0335467,0.00706247 0.0304569,0.0132421 0.0282499,0.0198632 0.02516,0.0260428 0.00353123,0.00441404 -0.0715075,0.0631208 z "/>
<path fill="rgb(42,41,42)" stroke="rgb(42,41,42)" d="M 4.6051,3.0465 l -0.0123593,-0.000441404 -0.0353123,-0.00662106 -0.0300155,-0.0145663 -0.0256014,-0.0220702 0.241448,-0.0220702 -0.022953,0.0260428 -0.0145663,0.0114765 -0.0295741,0.0154491 -0.0335467,0.00971089 -0.0375194,0.00308983 z "/>
<path fill="rgb(42,41,42)" stroke="rgb(42,41,42)" d="M 4.50182,3.03855 l -0.107261,0 0,-0.438314 0.107261,0 0,0.263077 0.00441404,0.0269257 0.018539,0.0300155 0.0211874,0.0167734 0.0335467,0.00794528 0.178769,0.00573825 -0.0150077,0.0300155 -0.241448,0.0220702 0,0.0357537 z "/>
<path fill="rgb(42,41,42)" stroke="rgb(42,41,42)" d="M 4.75827,2.95071 l -0.178769,-0.00573825 0.0295741,-0.00441404 0.0282499,-0.0176562 0.016332,-0.0242772 0.00617966,-0.0353123 0,-0.263077 0.105054,0 0,0.305452 -0.000441404,0.0105937 -0.00617966,0.0344295 z "/>
<path fill="rgb(42,41,42)" stroke="rgb(42,41,42)" d="M 4.12,3.04914 l -0.0242772,-0.00132421 -0.0331053,-0.00485545 -0.0339881,-0.00882808 -0.0339881,-0.0128007 -0.0348709,-0.0172148 0.0445818,-0.0926949 0.00882808,0.00529685 0.0322225,0.0158906 0.0335467,0.00926949 0.0348709,0.00308983 0.161554,0.0225116 -0.0154491,0.02516 -0.0194218,0.0203046 -0.0233944,0.0154491 -0.0282499,0.0114765 -0.0322225,0.00662106 -0.0366365,0.00264843 z "/>
<path fill="rgb(42,41,42)" stroke="rgb(42,41,42)" d="M 4.27537,2.96748 l -0.161554,-0.0225116 0.0238358,-0.00264843 0.0282499,-0.0123593 0.018539,-0.022953 0.00882808,-0.0339881 -0.187155,0 -0.0278085,-0.0154491 -0.0176562,-0.0158906 -0.0189804,-0.0269257 0.158906,-0.0150077 0.0220702,-0.00132421 0.0344295,-0.00662106 0.0361951,-0.0123593 0,-0.0670934 -0.0300155,-0.0119179 -0.0348709,-0.00971089 -0.0304569,-0.00308983 -0.16023,-0.00750387 0.0158906,-0.0291327 0.0220702,-0.0238358 0.00882808,-0.00617966 0.208784,-0.00132421 0,-0.0194218 0.101523,0 0,0.264843 0,0.000882808 -0.00220702,0.0384022 -0.00662106,0.0339881 -0.0105937,0.0291327 z "/>
<path fill="rgb(42,41,42)" stroke="rgb(42,41,42)" d="M 4.09528,2.88891 l -0.0194218,-0.000441404 -0.037078,-0.00529685 -0.0326639,-0.0101523 0.187155,0 -0.0269257,0.00794528 -0.0348709,0.00573825 -0.0361951,0.00220702 z "/>
<path fill="rgb(42,41,42)" stroke="rgb(42,41,42)" d="M 3.94167,2.81476 l -0.0110351,-0.0317811 -0.00397264,-0.0375194 0.00220702,-0.0313397 0.00882808,-0.0339881 0.16023,0.00750387 -0.0256014,0.00308983 -0.0291327,0.0145663 -0.00882808,0.00882808 -0.0114765,0.0313397 0.00132421,0.0105937 0.0198632,0.0278085 0.0194218,0.0101523 0.037078,0.00573825 -0.158906,0.0150077 z "/>
<path fill="rgb(42,41,42)" stroke="rgb(42,41,42)" d="M 3.98449,2.62098 l 0.0291327,-0.0158906 0.0335467,-0.00971089 0.0379608,-0.00308983 0.00662106,0 0.0357537,0.00397264 0.0339881,0.00882808 0.0317811,0.0145663 -0.208784,0.00132421 z "/>
<path fill="rgb(42,41,42)" stroke="rgb(42,41,42)" d="M 3.67683,3.04914 l -0.0238358,-0.00132421 -0.0335467,-0.00485545 -0.0339881,-0.00882808 -0.0339881,-0.0128007 -0.0344295,-0.0172148 0.0445818,-0.0926949 0.00838668,0.00529685 0.0326639,0.0158906 0.0331053,0.00926949 0.0348709,0.00308983 0.161554,0.0225116 -0.0154491,0.02516 -0.0194218,0.0203046 -0.0233944,0.0154491 -0.0282499,0.0114765 -0.0322225,0.00662106 -0.0366365,0.00264843 z "/>
<path fill="rgb(42,41,42)" stroke="rgb(42,41,42)" d="M 3.83221,2.96748 l -0.161554,-0.0225116 0.0238358,-0.00264843 0.0282499,-0.0123593 0.018539,-0.022953 0.00882808,-0.0339881 -0.187155,0 -0.0278085,-0.0154491 -0.0176562,-0.0158906 -0.0189804,-0.0269257 0.158906,-0.0150077 0.0220702,-0.00132421 0.0344295,-0.00662106 0.0361951,-0.0123593 0,-0.0670934 -0.0300155,-0.0119179 -0.0348709,-0.00971089 -0.0304569,-0.00308983 -0.16023,-0.00750387 0.0158906,-0.0291327 0.0220702,-0.0238358 0.00882808,-0.00617966 0.208784,-0.00132421 0,-0.0194218 0.101523,0 0,0.264843 0,0.000882808 -0.00220702,0.0384022 -0.00662106,0.0339881 -0.0105937,0.0291327 z "/>
<path fill="rgb(42,41,42)" stroke="rgb(42,41,42)" d="M 3.65211,2.88891 l -0.0194218,-0.000441404 -0.037078,-0.00529685 -0.0326639,-0.0101523 0.187155,0 -0.0269257,0.00794528 -0.0348709,0.00573825 -0.0361951,0.00220702 z "/>
<path fill="rgb(42,41,42)" stroke="rgb(42,41,42)" d="M 3.4985,2.81476 l -0.0110351,-0.0317811 -0.00397264,-0.0375194 0.00220702,-0.0313397 0.00882808,-0.0339881 0.16023,0.00750387 -0.0256014,0.00308983 -0.0291327,0.0145663 -0.00882808,0.00882808 -0.0114765,0.0313397 0.00132421,0.0105937 0.0198632,0.0278085 0.0198632,0.0101523 0.0366365,0.00573825 -0.158906,0.0150077 z "/>
<path fill="rgb(42,41,42)" stroke="rgb(42,41,42)" d="M 3.54132,2.62098 l 0.0291327,-0.0158906 0.0335467,-0.00971089 0.0379608,-0.00308983 0.00662106,0 0.0357537,0.00397264 0.0339881,0.00882808 0.0317811,0.0145663 -0.208784,0.00132421 z "/>
<path fill="rgb(42,41,42)" stroke="rgb(42,41,42)" d="M 3.35152,3.20981 l -0.109027,-0.039285 0,-0.134628 -0.0719489,0 0,-0.10064 0.0719489,0 0,-0.210991 0.00308983,-0.0379608 0.15405,0.0110351 -0.0242772,0.00573825 -0.0176562,0.0216288 -0.00617966,0.0375194 0,0.17303 0.0900465,0 0,0.10064 -0.0900465,0 0,0.173913 z "/>
<path fill="rgb(42,41,42)" stroke="rgb(42,41,42)" d="M 3.44862,2.7203 l -0.0180976,-0.0136835 -0.0308983,-0.00926949 -0.15405,-0.0110351 0.00971089,-0.0331053 0.0158906,-0.0273671 0.0150077,-0.0154491 0.0291327,-0.0154491 0.0361951,-0.00529685 0.0114765,0.000441404 0.0335467,0.00706247 0.0348709,0.0154491 0.0172148,0.107703 z "/>
<path fill="rgb(42,41,42)" stroke="rgb(42,41,42)" d="M 2.96087,3.0465 l -0.0269257,-0.00132421 -0.037078,-0.00573825 -0.0317811,-0.0101523 -0.0273671,-0.0154491 -0.000882808,-0.000441404 -0.02516,-0.0247186 -0.0150077,-0.0295741 0.166851,-0.0158906 0.0278085,-0.00176562 0.0344295,-0.00662106 0.0335467,-0.0110351 0.0326639,-0.016332 0.039285,0.0953433 -0.0331053,0.0154491 -0.0339881,0.0123593 -0.0339881,0.00882808 -0.0344295,0.00529685 -0.0348709,0.00176562 z "/>
<path fill="rgb(42,41,42)" stroke="rgb(42,41,42)" d="M 2.79667,2.9591 l -0.00529685,-0.0344295 0.000441404,-0.00882808 0.00662106,-0.0335467 0.0158906,-0.0295741 0.02516,-0.02516 0.0189804,-0.0123593 0.0286913,-0.0136835 0.0357537,-0.0132421 0.0432576,-0.0132421 0.0220702,-0.00617966 0.02516,-0.00750387 0.0136835,-0.00794528 0.0141249,-0.0273671 -0.00617966,-0.0145663 -0.0256014,-0.0119179 -0.045906,-0.00397264 0.178327,-0.00971089 0.00441404,0.0357537 -0.000882808,0.0158906 -0.00617966,0.0278085 -0.0123593,0.0247186 -0.018539,0.0220702 -0.0242772,0.0189804 -0.0304569,0.016332 -0.0366365,0.0136835 -0.0428162,0.0101523 -0.0344295,0.00838668 -0.0269257,0.00926949 -0.0145663,0.0242772 0.00220702,0.00971089 0.0203046,0.0150077 0.0428162,0.00529685 -0.166851,0.0158906 z "/>
<path fill="rgb(42,41,42)" stroke="rgb(42,41,42)" d="M 2.82007,2.72604 l -0.039285,-0.0944605 0.0128007,-0.00573825 0.0308983,-0.0119179 0.0331053,-0.00926949 0.0348709,-0.00706247 0.0366365,-0.00397264 0.0388436,-0.00132421 0.0379608,0.00220702 0.0361951,0.00617966 0.0313397,0.0105937 0.0264843,0.0154491 0.00573825,0.00397264 0.0225116,0.0247186 0.0136835,0.0304569 -0.178327,0.00971089 -0.0110351,0.000441404 -0.0335467,0.00441404 -0.039285,0.00926949 -0.0269257,0.00706247 -0.0326639,0.00926949 z "/>
<path fill="rgb(42,41,42)" stroke="rgb(42,41,42)" d="M 2.54948,3.04473 l -0.0150077,-0.000882808 -0.0335467,-0.00617966 -0.0308983,-0.0128007 -0.0282499,-0.0194218 -0.02516,-0.0264843 -0.0180976,-0.02516 -0.0158906,-0.0304569 -0.0114765,-0.0326639 -0.00662106,-0.0348709 -0.00220702,-0.037078 0.00220702,-0.0366365 0.00662106,-0.0348709 0.0110351,-0.0326639 0.0154491,-0.0304569 0.156257,0.00441404 -0.0220702,0.00353123 -0.0295741,0.0194218 -0.018539,0.0247186 -0.0123593,0.0344295 -0.00397264,0.0150077 0.26705,0 0,0.0313397 -0.000441404,0.016332 -0.00441404,0.0353123 -0.256456,0.000882808 0.00838668,0.0260428 0.0176562,0.0291327 0.0238358,0.0172148 0.0308983,0.00573825 0.146105,0.00308983 -0.0176562,0.0264843 -0.0114765,0.0132421 -0.0260428,0.0238358 -0.0291327,0.0167734 -0.0317811,0.0101523 -0.0344295,0.00353123 z "/>
<path fill="rgb(42,41,42)" stroke="rgb(42,41,42)" d="M 2.7,2.95071 l -0.146105,-0.00308983 0.0158906,-0.00132421 0.0295741,-0.0145663 0.0150077,-0.022953 0.0145663,-0.039285 -0.155816,0 0.256456,-0.000882808 -0.00971089,0.0353123 -0.00441404,0.0128007 -0.0154491,0.0339881 z "/>
<path fill="rgb(42,41,42)" stroke="rgb(42,41,42)" d="M 2.62276,2.72427 l -0.00882808,-0.00838668 -0.0295741,-0.0203046 -0.0304569,-0.00706247 -0.156257,-0.00441404 0.0198632,-0.0278085 0.0128007,-0.0145663 0.0269257,-0.0225116 0.0295741,-0.016332 0.0322225,-0.00971089 0.0348709,-0.00353123 0.0198632,0.00132421 0.0331053,0.00662106 0.0304569,0.0132421 0.0282499,0.0198632 0.02516,0.0264843 0.00353123,0.00441404 -0.0715075,0.0626794 z "/>
<path fill="rgb(42,41,42)" stroke="rgb(42,41,42)" d="M 2.06659,3.04959 l -0.0317811,-0.00353123 -0.0295741,-0.0119179 -0.0273671,-0.020746 -0.0256014,-0.0291327 0.214081,0.0225116 -0.0194218,0.0150077 -0.0242772,0.0158906 -0.00971089,0.00353123 -0.0379608,0.00794528 -0.00838668,0.000441404 z "/>
<path fill="rgb(42,41,42)" stroke="rgb(42,41,42)" d="M 2.27228,3.03855 l -0.105937,0 0,-0.0317811 -0.214081,-0.0225116 -0.000882808,-0.00132421 -0.018539,-0.0295741 0.158464,-0.0119179 0.0198632,-0.00308983 0.0286913,-0.0150077 0.0264843,-0.0282499 0,-0.155816 -0.0176562,-0.020746 -0.0278085,-0.0198632 -0.0295741,-0.00662106 -0.159347,-0.00706247 0.018539,-0.0286913 0.00529685,-0.00662106 0.21055,-0.0136835 0,-0.0463474 0,-0.00662106 -0.00662106,-0.0256014 -0.0145663,-0.0247186 -0.022953,-0.0238358 -0.0313397,-0.0233944 -0.0397264,-0.0225116 0.0419334,-0.0935777 0.0105937,0.00353123 0.0335467,0.0141249 0.0317811,0.0167734 0.0256014,0.0172148 0.00353123,0.00308983 0.0242772,0.0233944 0.0220702,0.0313397 0.00926949,0.0176562 0.0101523,0.0304569 0.00617966,0.0357537 0.00220702,0.0419334 0,0.4339 z "/>
<path fill="rgb(42,41,42)" stroke="rgb(42,41,42)" d="M 1.93284,2.95336 l -0.0141249,-0.0313397 -0.0105937,-0.0335467 -0.00617966,-0.0348709 -0.00176562,-0.0366365 0.00132421,-0.0322225 0.00573825,-0.0357537 0.0101523,-0.0331053 0.0145663,-0.0308983 0.159347,0.00706247 -0.00529685,0.000441404 -0.0308983,0.00971089 -0.0247186,0.0256014 -0.00971089,0.0180976 -0.0101523,0.0326639 -0.00308983,0.0384022 0.00132421,0.0256014 0.00750387,0.0348709 0.0141249,0.0291327 0.00308983,0.00397264 0.0256014,0.022953 0.0322225,0.00794528 -0.158464,0.0119179 z "/>
<path fill="rgb(42,41,42)" stroke="rgb(42,41,42)" d="M 1.9558,2.64967 l 0.0256014,-0.0269257 0.0282499,-0.0189804 0.0304569,-0.0110351 0.0331053,-0.00308983 0.00264843,0 0.0326639,0.00617966 0.0300155,0.0154491 0.0278085,0.0247186 -0.21055,0.0136835 z "/>
<path fill="rgb(42,41,42)" stroke="rgb(42,41,42)" d="M 1.65608,3.04473 l -0.0150077,-0.000882808 -0.0335467,-0.00617966 -0.0308983,-0.0128007 -0.0278085,-0.0194218 -0.0256014,-0.0264843 -0.0180976,-0.02516 -0.0158906,-0.0304569 -0.0110351,-0.0326639 -0.00706247,-0.0348709 -0.00220702,-0.037078 0.00220702,-0.0366365 0.00662106,-0.0348709 0.0110351,-0.0326639 0.0154491,-0.0304569 0.156257,0.00441404 -0.0220702,0.00353123 -0.0295741,0.0194218 -0.0180976,0.0247186 -0.0123593,0.0344295 -0.00441404,0.0150077 0.267491,0 0,0.0313397 -0.000441404,0.016332 -0.00485545,0.0353123 -0.256014,0.000882808 0.00838668,0.0260428 0.0172148,0.0291327 0.0242772,0.0172148 0.0304569,0.00573825 0.146105,0.00308983 -0.0176562,0.0264843 -0.0110351,0.0132421 -0.0264843,0.0238358 -0.0286913,0.0167734 -0.0317811,0.0101523 -0.0348709,0.00353123 z "/>
<path fill="rgb(42,41,42)" stroke="rgb(42,41,42)" d="M 1.8066,2.95071 l -0.146105,-0.00308983 0.016332,-0.00132421 0.0291327,-0.0145663 0.0154491,-0.022953 0.0141249,-0.039285 -0.155374,0 0.256014,-0.000882808 -0.00971089,0.0353123 -0.00441404,0.0128007 -0.0154491,0.0339881 z "/>
<path fill="rgb(42,41,42)" stroke="rgb(42,41,42)" d="M 1.72936,2.72427 l -0.00838668,-0.00838668 -0.0295741,-0.0203046 -0.0308983,-0.00706247 -0.156257,-0.00441404 0.0198632,-0.0278085 0.0132421,-0.0145663 0.0269257,-0.0225116 0.0295741,-0.016332 0.0317811,-0.00971089 0.0348709,-0.00353123 0.0198632,0.00132421 0.0331053,0.00662106 0.0308983,0.0132421 0.0278085,0.0198632 0.0256014,0.0264843 0.00353123,0.00441404 -0.0719489,0.0626794 z "/>
<path fill="rgb(42,41,42)" stroke="rgb(42,41,42)" d="M 1.20585,3.04914 l -0.0189804,-0.00132421 -0.0331053,-0.00662106 -0.0304569,-0.0132421 -0.0282499,-0.0198632 -0.02516,-0.0264843 -0.0198632,-0.0273671 -0.0154491,-0.0304569 -0.0110351,-0.0326639 -0.00662106,-0.0348709 -0.00220702,-0.0375194 0.00176562,-0.0353123 0.00662106,-0.0348709 0.0110351,-0.0326639 0.0154491,-0.0304569 0.156257,0.0101523 -0.00441404,0 -0.0313397,0.00971089 -0.02516,0.02516 -0.00971089,0.0172148 -0.00971089,0.0326639 -0.00353123,0.0384022 0.00132421,0.0233944 0.00750387,0.0348709 0.0141249,0.0295741 0.00308983,0.00397264 0.0260428,0.022953 0.0317811,0.00794528 0.155816,0.0123593 -0.0203046,0.0278085 -0.0128007,0.0141249 -0.0273671,0.0233944 -0.0295741,0.016332 -0.0317811,0.0101523 -0.0339881,0.00353123 z "/>
<path fill="rgb(42,41,42)" stroke="rgb(42,41,42)" d="M 1.36167,2.9538 l -0.155816,-0.0123593 0.00308983,0 0.0313397,-0.00926949 0.02516,-0.0247186 0.00882808,-0.0167734 0.00971089,-0.0326639 0.00353123,-0.039285 -0.00132421,-0.0233944 -0.00706247,-0.0353123 -0.0136835,-0.0295741 -0.00220702,-0.00308983 -0.02516,-0.0238358 -0.0322225,-0.00794528 -0.156257,-0.0101523 0.0203046,-0.0282499 0.0132421,-0.0150077 0.0269257,-0.022953 0.0295741,-0.016332 0.0317811,-0.00971089 0.0344295,-0.00353123 0.0176562,0.000882808 0.0326639,0.00662106 0.0304569,0.0132421 0.0286913,0.0203046 0.0260428,0.0264843 0.0198632,0.0269257 0.0158906,0.0304569 0.0114765,0.0322225 0.00662106,0.0348709 0.00220702,0.037078 -0.00220702,0.0375194 -0.00662106,0.0348709 -0.0114765,0.0326639 -0.0154491,0.0300155 z "/>
<path fill="rgb(42,41,42)" stroke="rgb(42,41,42)" d="M 0.876562,3.20981 l -0.109468,-0.039285 0,-0.134628 -0.0715075,0 0,-0.10064 0.0715075,0 0,-0.210991 0.00308983,-0.0379608 0.154491,0.0110351 -0.0242772,0.00573825 -0.0180976,0.0216288 -0.00573825,0.0375194 0,0.17303 0.0900465,0 0,0.10064 -0.0900465,0 0,0.173913 z "/>
<path fill="rgb(42,41,42)" stroke="rgb(42,41,42)" d="M 0.973671,2.7203 l -0.018539,-0.0136835 -0.0304569,-0.00926949 -0.154491,-0.0110351 0.00971089,-0.0331053 0.016332,-0.0273671 0.0150077,-0.0154491 0.0291327,-0.0154491 0.0361951,-0.00529685 0.0114765,0.000441404 0.0331053,0.00706247 0.0348709,0.0154491 0.0176562,0.107703 z "/>
<path fill="rgb(42,41,42)" stroke="rgb(42,41,42)" d="M 2.29167,1.42698 l -0.00067345,0.0154245 -0.00201522,0.0153071 -0.00334166,0.0150733 -0.00464267,0.0147247 -0.00590834,0.014264 -0.00712904,0.0136948 -0.00829549,0.0130213 -0.00939881,0.0122488 -0.0104306,0.011383 -0.011383,0.0104306 -0.0122488,0.00939881 -0.0130213,0.00829549 -0.0136948,0.00712904 -0.014264,0.00590834 -0.0147247,0.00464267 -0.0150733,0.00334166 -0.0153071,0.00201522 -0.0154245,0.00067345 -0.0154245,-0.00067345 -0.0153071,-0.00201522 -0.0150733,-0.00334166 -0.0147247,-0.00464267 -0.014264,-0.00590834 -0.0136948,-0.00712904 -0.0130213,-0.00829549 -0.0122488,-0.00939881 -0.011383,-0.0104306 -0.0104306,-0.011383 -0.00939881,-0.0122488 -0.00829549,-0.0130213 -0.00712904,-0.0136948 -0.00590834,-0.014264 -0.00464267,-0.0147247 -0.00334166,-0.0150733 -0.00201522,-0.0153071 -0.00067345,-0.0154245 0.00067345,-0.0154245 0.00201522,-0.0153071 0.00334166,-0.0150733 0.00464267,-0.0147247 0.00590834,-0.014264 0.00712904,-0.0136948 0.00829549,-0.0130213 0.00939881,-0.0122488 0.0104306,-0.011383 0.011383,-0.0104306 0.0122488,-0.00939881 0.0130213,-0.00829549 0.0136948,-0.00712904 0.014264,-0.00590834 0.0147247,-0.00464267 0.0150733,-0.00334166 0.0153071,-0.00201522 0.0154245,-0.00067345 0.0154245,0.00067345 0.0153071,0.00201522 0.0150733,0.00334166 0.0147247,0.00464267 0.014264,0.00590834 0.0136948,0.00712904 0.0130213,0.00829549 0.0122488,0.00939881 0.011383,0.0104306 0.0104306,0.011383 0.00939881,0.0122488 0.00829549,0.0130213 0.00712904,0.0136948 0.00590834,0.014264 0.00464267,0.0147247 0.00334166,0.0150733 0.00201522,0.0153071 0.00067345,0.0154245 z "/>
<path fill="rgb(42,41,42)" stroke="rgb(42,41,42)" d="M 3.56228,1.42698 l -0.00067345,0.0154245 -0.00201522,0.0153071 -0.00334166,0.0150733 -0.00464267,0.0147247 -0.00590834,0.014264 -0.00712904,0.0136948 -0.00829549,0.0130213 -0.00939881,0.0122488 -0.0104306,0.011383 -0.011383,0.0104306 -0.0122488,0.00939881 -0.0130213,0.00829549 -0.0136948,0.00712904 -0.014264,0.00590834 -0.0147247,0.00464267 -0.0150733,0.00334166 -0.0153071,0.00201522 -0.0154245,0.00067345 -0.0154245,-0.00067345 -0.0153071,-0.00201522 -0.0150733,-0.00334166 -0.0147247,-0.00464267 -0.014264,-0.00590834 -0.0136948,-0.00712904 -0.0130213,-0.00829549 -0.0122488,-0.00939881 -0.011383,-0.0104306 -0.0104306,-0.011383 -0.00939881,-0.0122488 -0.00829549,-0.0130213 -0.00712904,-0.0136948 -0.00590834,-0.014264 -0.00464267,-0.0147247 -0.00334166,-0.0150733 -0.00201522,-0.0153071 -0.00067345,-0.0154245 0.00067345,-0.0154245 0.00201522,-0.0153071 0.00334166,-0.0150733 0.00464267,-0.0147247 0.00590834,-0.014264 0.00712904,-0.0136948 0.00829549,-0.0130213 0.00939881,-0.0122488 0.0104306,-0.011383 0.011383,-0.0104306 0.0122488,-0.00939881 0.0130213,-0.00829549 0.0136948,-0.00712904 0.014264,-0.00590834 0.0147247,-0.00464267 0.0150733,-0.00334166 0.0153071,-0.00201522 0.0154245,-0.00067345 0.0154245,0.00067345 0.0153071,0.00201522 0.0150733,0.00334166 0.0147247,0.00464267 0.014264,0.00590834 0.0136948,0.00712904 0.0130213,0.00829549 0.0122488,0.00939881 0.011383,0.0104306 0.0104306,0.011383 0.00939881,0.0122488 0.00829549,0.0130213 0.00712904,0.0136948 0.00590834,0.014264 0.00464267,0.0147247 0.00334166,0.0150733 0.00201522,0.0153071 0.00067345,0.0154245 z "/>
<path fill="rgb(42,41,42)" stroke="rgb(42,41,42)" d="M 3.97677,2.33082 l -2.31132,0 -0.00287052,-0.000123844 -0.00284919,-0.000370612 -0.00280668,-0.000614626 -0.00274332,-0.000854072 -0.00265957,-0.00108717 -0.00255605,-0.00131219 -0.00243354,-0.00152746 -0.00229294,-0.00173137 -0.0021353,-0.00192242 -0.0019618,-0.00209919 -0.00177371,-0.00226035 -0.00157244,-0.00240471 -0.00135949,-0.00253121 -0.00113643,-0.00263889 -0.000904933,-0.00272696 -0.000666706,-0.00279477 -0.000423525,-0.0028418 -0.000177196,-0.00286772 7.04494e-05,-0.00287233 0.0332529,-0.106936 -0.0896997,-0.21873 0.0684022,0 0.0925738,0.230614 0.000254345,0.00103398 0.00034637,0.0010069 0.000435583,0.000971636 0.000521261,0.000928492 0.000602708,0.000877811 0.000679263,0.000820007 0.000750306,0.000755547 0.000815259,0.000684954 0.000873595,0.000608803 0.000924841,0.00052771 0.000968581,0.000442335 0.00100446,0.000353369 0.00103219,0.000261536 0.00105154,0.00016758 0.00106235,7.22634e-05 0.185838,0 0.00103476,-4.51616e-05 0.00102689,-0.000135141 0.00101121,-0.000224093 0.000987845,-0.000311341 0.000956964,-0.000396221 0.000918805,-0.000478088 0.000873659,-0.000556319 0.000821869,-0.000630319 0.000763829,-0.000699526 0.00069998,-0.000763413 0.000630807,-0.000821495 0.000556838,-0.000873329 0.000478634,-0.000918521 0.000396789,-0.000956729 0.000311928,-0.00098766 0.000224694,-0.00101108 0.000135751,-0.00102681 4.57762e-05,-0.00103473 0,-0.228257 0.0748428,0 0,0.263861 -4.81797e-05,0.000954022 3.52425e-05,0.000954588 0.000118396,0.000947872 0.000200646,0.000933928 0.000281366,0.00091286 0.00035994,0.000884829 0.000435769,0.00085005 0.000508274,0.000808787 0.000576903,0.000761356 0.000641131,0.000708118 0.000700469,0.000649479 0.000754465,0.000585886 0.000802706,0.000517825 0.000844825,0.000445814 0.000880501,0.000370402 0.000909461,0.000292166 0.000931484,0.000211701 0.000946402,0.000129622 0.360658,1.33378e-05 0.00125869,-5.48115e-05 0.00124914,-0.000164112 0.00123013,-0.000272168 0.00120179,-0.000378159 0.00116433,-0.000481283 0.00111804,-0.000580757 0.00106327,-0.000675827 0.00100044,-0.000765771 0.000930026,-0.000849908 0.000852556,-0.0009276 0.00076862,-0.000998257 0.000678855,-0.00106134 0.000583942,-0.00111638 0.000484601,-0.00116295 0.000381584,-0.0012007 0.000275673,-0.00122935 0,-0.263874 0.0558602,0 0,0.263861 -4.81797e-05,0.000954022 3.52425e-05,0.000954588 0.000118396,0.000947872 0.000200646,0.000933928 0.000281366,0.00091286 0.00035994,0.000884829 0.000435769,0.00085005 0.000508274,0.000808787 0.000576903,0.000761356 0.000641131,0.000708118 0.000700469,0.000649479 0.000754465,0.000585886 0.000802706,0.000517825 0.000844825,0.000445814 0.000880501,0.000370402 0.000909461,0.000292166 0.000931484,0.000211701 0.000946402,0.000129622 0.360658,1.33378e-05 0.00125869,-5.48115e-05 0.00124914,-0.000164112 0.00123013,-0.000272168 0.00120179,-0.000378159 0.00116433,-0.000481283 0.00111804,-0.000580757 0.00106327,-0.000675827 0.00100044,-0.000765771 0.000930026,-0.000849908 0.000852556,-0.0009276 0.00076862,-0.000998257 0.000678855,-0.00106134 0.000583942,-0.00111638 0.000484601,-0.00116295 0.000381584,-0.0012007 0.000275673,-0.00122935 0,-0.263874 0.054693,0 0,0.263861 -4.81797e-05,0.000954022 3.52425e-05,0.000954588 0.000118396,0.000947872 0.000200646,0.000933928 0.000281366,0.00091286 0.00035994,0.000884829 0.000435769,0.00085005 0.000508274,0.000808787 0.000576903,0.000761356 0.000641131,0.000708118 0.000700469,0.000649479 0.000754465,0.000585886 0.000802706,0.000517825 0.000844825,0.000445814 0.000880501,0.000370402 0.000909461,0.000292166 0.000931484,0.000211701 0.000946402,0.000129622 0.360658,1.33378e-05 0.00125869,-5.48115e-05 0.00124914,-0.000164112 0.00123013,-0.000272168 0.00120179,-0.000378159 0.00116433,-0.000481283 0.00111804,-0.000580757 0.00106327,-0.000675827 0.00100044,-0.000765771 0.000930026,-0.000849908 0.000852556,-0.0009276 0.00076862,-0.000998257 0.000678855,-0.00106134 0.000583942,-0.00111638 0.000484601,-0.00116295 0.000381584,-0.0012007 0.000275673,-0.00122935 0,-0.263874 0.0570211,0 0,0.263867 -4.818e-05,0.000954067 3.525e-05,0.000954632 0.000118411,0.000947916 0.000200669,0.000933969 0.000281396,0.000912897 0.000359977,0.000884863 0.000435812,0.000850078 0.000508323,0.00080881 0.000576956,0.000761372 0.000641189,0.000708126 0.00070053,0.000649479 0.000754528,0.000585878 0.000802771,0.000517808 0.00084489,0.000445788 0.000880564,0.000370367 0.000909522,0.000292122 0.000931542,0.000211648 0.000946456,0.00012956 0.310821,0 0.00125865,-5.48551e-05 0.00124911,-0.000164149 0.00123009,-0.000272199 0.00120174,-0.000378184 0.00116428,-0.000481302 0.001118,-0.000580769 0.00106323,-0.000675832 0.0010004,-0.000765771 0.000929987,-0.000849902 0.00085252,-0.000927588 0.000768587,-0.00099824 0.000678826,-0.00106132 0.000583918,-0.00111636 0.000484581,-0.00116292 0.00038157,-0.00120067 0.000275665,-0.00122932 0,-0.263867 0.0546358,0 0,0.263867 -6.9614e-05,0.000934997 1.22957e-05,0.000937505 9.41115e-05,0.00093285 0.000175208,0.000921069 0.000254967,0.000902252 0.000332777,0.000876542 0.000408046,0.000844136 0.000480197,0.000805281 0.000548679,0.000760274 0.000612971,0.00070946 0.000672579,0.000653225 0.00072705,0.000592001 0.000775966,0.000526253 0.000818954,0.000456486 0.000855687,0.000383232 0.000885882,0.000307049 0.00090931,0.000228521 0.000925791,0.000148248 0.133118,0 0.00100297,-4.2449e-05 0.000995795,-0.000127044 0.000981499,-0.000210729 0.000960183,-0.000292908 0.000932,-0.000372992 0.000897151,-0.000450408 0.000855885,-0.000524602 0.000808498,-0.000595044 0.000755328,-0.000661231 0.000696756,-0.000722688 0.000633201,-0.000778976 0.000565116,-0.000829693 0.00049299,-0.000874476 0.000417338,-0.000913004 0.0003387,-0.000945002 0.0401056,-0.267445 0.0729993,0 -0.0365496,0.237721 0.0393059,0.0650557 0.00161892,0.00296074 0.00135794,0.00308915 0.00108686,0.00319462 0.000807712,0.00327635 0.00052256,0.00333374 0.000233525,0.00336635 -5.72446e-05,0.00337396 -0.000347589,0.00335649 -0.000635351,0.00331409 -0.000918392,0.00324706 -0.00119461,0.00315591 -0.00146195,0.00304131 -0.00171843,0.00290411 -0.00196214,0.00274534 -0.00219127,0.00256616 -0.00240412,0.00236792 -0.00259911,0.00215209 -0.00277479,0.00192026 -0.00292985,0.00167417 -0.00306314,0.00141564 -0.00317367,0.00114659 -0.00326062,0.000869022 z "/>
<path fill="rgb(42,41,42)" stroke="rgb(42,41,42)" d="M 4.01475,1.86763 l -0.0156726,0.101936 -0.0729993,0 0.0174238,-0.116191 9.61514e-05,-0.00091177 1.60474e-05,-0.000916685 -6.41795e-05,-0.000914577 -0.000143915,-0.00090546 -0.000222547,-0.000889406 -0.000299474,-0.000866536 -0.000374107,-0.000837027 -0.000445873,-0.000801104 -0.000514222,-0.000759042 -0.000578631,-0.000711165 -0.000638607,-0.000657838 -0.000693689,-0.000599471 -0.000743456,-0.00053651 -0.000787526,-0.000469438 -0.000825562,-0.000398769 -0.000857272,-0.000325045 -0.000882413,-0.00024883 -0.000900793,-0.000170708 -0.190657,0 -0.00103382,4.50523e-05 -0.00102598,0.000134815 -0.00101037,0.000223556 -0.000987088,0.000310602 -0.000956326,0.000395293 -0.000918314,0.000476987 -0.000873339,0.000555064 -0.000821742,0.000628933 -0.000763915,0.000698034 -0.000700296,0.000761842 -0.000631367,0.000819874 -0.000557651,0.000871689 -0.000479708,0.000916896 -0.000398127,0.00095515 -0.000313527,0.000986163 -0.000226551,0.0010097 -0.000137857,0.00102558 -4.81171e-05,0.00103368 0,0.116261 -0.0546358,0 0,-0.116191 -4.59119e-05,-0.00105345 -0.000137388,-0.00104546 -0.000227822,-0.00102954 -0.000316528,-0.00100582 -0.000402834,-0.000974468 -0.000486085,-0.000935727 -0.00056565,-0.000889889 -0.000640925,-0.000837304 -0.00071134,-0.000778369 -0.000776361,-0.000713531 -0.000835494,-0.000643282 -0.000888292,-0.000568155 -0.000934353,-0.00048872 -0.000973329,-0.000405578 -0.00100492,-0.000319361 -0.0010289,-0.000230722 -0.313068,0 -0.00103583,4.5174e-05 -0.00102796,0.000135179 -0.00101229,0.000224157 -0.000988934,0.000311434 -0.000958066,0.000396345 -0.000919924,0.000478247 -0.000874796,0.000556518 -0.000823026,0.000630562 -0.000765006,0.000699819 -0.000701177,0.000763761 -0.000632024,0.000821904 -0.000558072,0.000873806 -0.000479882,0.000919072 -0.000398048,0.00095736 -0.000313191,0.000988378 -0.000225957,0.00101189 -0.000137006,0.00102772 -4.70154e-05,0.00103575 0,0.116233 -0.0570211,0 0,-0.116184 -4.59071e-05,-0.00105339 -0.000137373,-0.00104541 -0.000227798,-0.00102949 -0.000316495,-0.00100577 -0.000402792,-0.000974425 -0.000486035,-0.000935689 -0.000565593,-0.000889859 -0.000640862,-0.000837282 -0.000711272,-0.000778355 -0.000776288,-0.000713527 -0.000835419,-0.000643289 -0.000888214,-0.000568172 -0.000934275,-0.000488748 -0.000973252,-0.000405618 -0.00100485,-0.000319412 -0.00102883,-0.000230784 -0.362905,-1.34209e-05 -0.00103585,4.51378e-05 -0.00102799,0.000135147 -0.00101232,0.00022413 -0.000988966,0.000311412 -0.0009581,0.000396328 -0.000919958,0.000478235 -0.00087483,0.00055651 -0.000823059,0.000630559 -0.000765038,0.00069982 -0.000701207,0.000763767 -0.000632052,0.000821913 -0.000558097,0.000873819 -0.000479904,0.000919089 -0.000398066,0.000957379 -0.000313206,0.000988399 -0.000225967,0.00101191 -0.000137013,0.00102774 -4.70176e-05,0.00103577 0,0.11624 -0.054693,0 0,-0.116184 -4.59071e-05,-0.00105339 -0.000137373,-0.00104541 -0.000227798,-0.00102949 -0.000316495,-0.00100577 -0.000402792,-0.000974425 -0.000486035,-0.000935689 -0.000565593,-0.000889859 -0.000640862,-0.000837282 -0.000711272,-0.000778355 -0.000776288,-0.000713527 -0.000835419,-0.000643289 -0.000888214,-0.000568172 -0.000934275,-0.000488748 -0.000973252,-0.000405618 -0.00100485,-0.000319412 -0.00102883,-0.000230784 -0.362905,-1.34209e-05 -0.00103585,4.51378e-05 -0.00102799,0.000135147 -0.00101232,0.00022413 -0.000988966,0.000311412 -0.0009581,0.000396328 -0.000919958,0.000478235 -0.00087483,0.00055651 -0.000823059,0.000630559 -0.000765038,0.00069982 -0.000701207,0.000763767 -0.000632052,0.000821913 -0.000558097,0.000873819 -0.000479904,0.000919089 -0.000398066,0.000957379 -0.000313206,0.000988399 -0.000225967,0.00101191 -0.000137013,0.00102774 -4.70176e-05,0.00103577 0,0.11624 -0.0558602,0 0,-0.116184 -4.59071e-05,-0.00105339 -0.000137373,-0.00104541 -0.000227798,-0.00102949 -0.000316495,-0.00100577 -0.000402792,-0.000974425 -0.000486035,-0.000935689 -0.000565593,-0.000889859 -0.000640862,-0.000837282 -0.000711272,-0.000778355 -0.000776288,-0.000713527 -0.000835419,-0.000643289 -0.000888214,-0.000568172 -0.000934275,-0.000488748 -0.000973252,-0.000405618 -0.00100485,-0.000319412 -0.00102883,-0.000230784 -0.362905,-1.34209e-05 -0.00103585,4.51378e-05 -0.00102799,0.000135147 -0.00101232,0.00022413 -0.000988966,0.000311412 -0.0009581,0.000396328 -0.000919958,0.000478235 -0.00087483,0.00055651 -0.000823059,0.000630559 -0.000765038,0.00069982 -0.000701207,0.000763767 -0.000632052,0.000821913 -0.000558097,0.000873819 -0.000479904,0.000919089 -0.000398066,0.000957379 -0.000313206,0.000988399 -0.000225967,0.00101191 -0.000137013,0.00102774 -4.70176e-05,0.00103577 0,0.11624 -0.0748428,0 0,-0.15185 -4.51884e-05,-0.00103538 -0.000135222,-0.0010275 -0.000224226,-0.00101181 -0.000311526,-0.000988432 -0.000396456,-0.000957533 -0.000478372,-0.000919351 -0.000556649,-0.000874178 -0.000630694,-0.000822358 -0.000699942,-0.000764283 -0.000763867,-0.000700396 -0.000821983,-0.000631182 -0.000873848,-0.000557169 -0.000919067,-0.000478918 -0.000957297,-0.000397025 -0.000988247,-0.000312113 -0.00101168,-0.000224827 -0.00102742,-0.000135832 -0.00103535,-4.58034e-05 -0.299311,0 -0.0332599,0.0570211 0.0428371,0.106713 -0.0684022,0 -0.0457042,-0.111448 0.0356311,-0.0522858 0,-0.308782 -0.0356311,0 0,-0.0712763 0.358689,0 0.000764473,0.0198429 0.00249676,0.0197001 0.00420992,0.0194062 0.00589082,0.0189638 0.00752658,0.018376 0.00910468,0.0176474 0.010613,0.0167836 0.0120401,0.0157912 0.0133748,0.0146779 0.0146071,0.013452 0.0157275,0.0121231 0.0167274,0.0107014 0.0175991,0.0091976 0.018336,0.00762337 0.0189324,0.00599072 0.0193838,0.00431218 0.0196866,0.00260059 0.0198386,0.000869084 0.0198386,-0.000869084 0.0196866,-0.00260059 0.0193838,-0.00431218 0.0189324,-0.00599072 0.018336,-0.00762337 0.0175991,-0.0091976 0.0167274,-0.0107014 0.0157275,-0.0121231 0.0146071,-0.013452 0.0133748,-0.0146779 0.0120401,-0.0157912 0.010613,-0.0167836 0.00910468,-0.0176474 0.00752658,-0.018376 0.00589082,-0.0189638 0.00420992,-0.0194062 0.00249676,-0.0197001 0.000764473,-0.0198429 0.814801,0 0.000867214,0.0198762 0.00259627,0.019725 0.00430557,0.0194236 0.0059821,0.0189744 0.0076131,0.0183809 0.00918616,0.0176474 0.0106893,0.0167796 0.0121111,0.0157841 0.0134407,0.0146684 0.014668,0.0134412 0.0157837,0.0121116 0.0167792,0.0106898 0.0176471,0.0091867 0.0183806,0.00761367 0.0189743,0.00598269 0.0194235,0.00430617 0.0197249,0.00259688 0.0198762,0.000867829 0.0198762,-0.000867829 0.0197249,-0.00259688 0.0194235,-0.00430617 0.0189743,-0.00598269 0.0183806,-0.00761367 0.0176471,-0.0091867 0.0167792,-0.0106898 0.0157837,-0.0121116 0.014668,-0.0134412 0.0134407,-0.0146684 0.0121111,-0.0157841 0.0106893,-0.0167796 0.00918616,-0.0176474 0.0076131,-0.0183809 0.0059821,-0.0189744 0.00430557,-0.0194236 0.00259627,-0.019725 0.000867214,-0.0198762 0.439443,0.0712763 0,0.059364 -0.0380517,0.0237682 0,0.287448 z "/>
</g></g></svg>
