<?xml version="1.0" encoding="UTF-8" standalone="no"?>
<!DOCTYPE svg PUBLIC "-//W3C//DTD SVG 1.1//EN" "http://www.w3.org/Graphics/SVG/1.1/DTD/svg11-flat.dtd"
[

]>
<svg xmlns="http://www.w3.org/2000/svg"  viewBox="-0.09375 -0.09375 7.6875 7.6875"><g fill="none" stroke="black" stroke-width="0.0125" transform="translate(0,7.5) scale(1, -1)">
<g id="Output" >
<path fill="rgb(0,91,140)" stroke="rgb(0,91,140)" d="M 4.60995,1.4 l -0.0570245,0.0268217 -0.0581489,0.0339275 -0.0549219,0.0389352 -0.0398531,0.033924 0,-0.133609 0.209948,0 z M 5.20425,1.4 l 0.195752,0 0,0.122202 -0.0236611,-0.0204195 -0.0541518,-0.0389143 -0.0573922,-0.033954 -5.15143e-14,-2.84217e-14 -0.0605468,-0.0289144 z "/>
<path fill="rgb(0,91,140)" stroke="rgb(0,91,140)" d="M 2.4,6.4 l 1,0 0,0.678605 -0.176606,-0.0202537 -0.286552,-0.0585396 -0.280354,-0.08331 -0.256488,-0.101311 0,-0.415191 z "/>
<path fill="rgb(0,91,140)" stroke="rgb(0,91,140)" d="M 5.20425,1.4 l -0.000204143,-9.74894e-05 -0.0630778,-0.0235278 -0.0649108,-0.0178594 -0.0662355,-0.0120512 -0.0670415,-0.00614862 -0.0673226,-0.000197906 -0.0670765,0.00575436 -0.0663052,0.0116616 -0.0650147,0.0174775 -0.0632151,0.0231565 -0.00389595,0.00183248 -0.209948,0 0,-0.933969 0.217044,0.0481175 0.278724,0.0878812 0.270004,0.111839 0.234229,0.121932 0,0.564199 -0.195752,0 z "/>
<path fill="rgb(0,91,140)" stroke="rgb(0,91,140)" d="M 5.4,4.07398 l 0,-0.673979 1,0 0,1 -0.779753,0 -0.00990107,-0.0308685 -0.0237164,-0.0563118 -0.0285862,-0.0540029 -0.0332336,-0.0512738 -0.0376225,-0.0481459 -0.0417186,-0.0446434 -0.0454688,-0.0407744 z "/>
<path fill="rgb(0,91,140)" stroke="rgb(0,91,140)" d="M 1.8016,2.4 l 0.00101788,0.00257148 0.0293325,0.0586832 0.0342988,0.0559259 0.0390079,0.0527494 0.0434247,0.0491773 0.0475159,0.0452367 0.0512509,0.0409568 0.0546016,0.03637 0.0575431,0.0315105 0.0600531,0.0264147 0.062113,0.021121 0.0637072,0.0156689 0.0545318,0.00849584 0,0.555118 -1,0 0,-1 0.401602,0 z "/>
<path fill="rgb(0,91,140)" stroke="rgb(0,91,140)" d="M 2.1905,1.4 l -0.790495,0 0,-0.0360418 0.196662,-0.180207 0.231857,-0.17791 0.246481,-0.157026 0.259229,-0.134946 0.0657712,-0.0272433 0,0.656431 -0.0293756,0.00345783 -0.0651892,0.0135939 -0.0637343,0.0192968 -0.0512057,0.0205953 z "/>
<path fill="rgb(0,91,140)" stroke="rgb(0,91,140)" d="M 0.420387,3.4 l 0.979613,0 0,1 -0.934254,0 -0.0124755,-0.0549589 -0.0399262,-0.296331 -0.0133442,-0.29871 0.0127478,-0.291972 0.00763957,-0.0580283 z "/>
<path fill="rgb(0,91,140)" stroke="rgb(0,91,140)" d="M 6.4,5.4 l 0.26409,0 -0.136654,0.223058 -0.127437,0.17224 0,-0.395298 z "/>
<path fill="rgb(0,91,140)" stroke="rgb(0,91,140)" d="M 1.4,1.36396 l 0,0.0360418 -0.0360418,0 0.0172341,-0.0188077 0.0188077,-0.0172341 z "/>
<path fill="rgb(0,91,140)" stroke="rgb(0,91,140)" d="M 0.837221,5.4 l 0.562779,0 0,0.735867 -0.181128,-0.191353 -0.185597,-0.234435 -0.163953,-0.250051 -0.032101,-0.0600281 z "/>
<path fill="rgb(0,91,140)" stroke="rgb(0,91,140)" d="M 1.70483,6.4 l 0.695166,0 0,0.415191 -0.0155314,-0.00613476 -0.261611,-0.130762 -0.249209,-0.153081 -0.168815,-0.125213 z "/>
<path fill="rgb(0,91,140)" stroke="rgb(0,91,140)" d="M 0.465746,4.4 l 0.934254,0 0,1 -0.562779,0 -0.108903,-0.203646 -0.116931,-0.275196 -0.0919268,-0.284527 -0.0537146,-0.236631 z "/>
<path fill="rgb(0,91,140)" stroke="rgb(0,91,140)" d="M 0.686626,2.4 l 0.713374,0 0,1 -0.979613,0 0.0305067,-0.231721 0.0632545,-0.285322 0.0878812,-0.278724 0.0845959,-0.204233 z "/>
<path fill="rgb(0,91,140)" stroke="rgb(0,91,140)" d="M 1.4,5.4 l 0.686656,0 -0.000902035,0.00194358 0.072551,0.026279 0.0745225,0.0200159 0.0759544,0.0136078 0.0768363,0.00710112 0.0143817,0.000101219 0,0.930951 -0.695166,0 -0.0660921,-0.0490216 -0.218815,-0.194059 -0.0199269,-0.0210519 0,-0.735867 z "/>
<path fill="rgb(0,91,140)" stroke="rgb(0,91,140)" d="M 2.1905,1.4 l -0.0105758,0.00425366 -0.0593461,0.030207 -0.0564471,0.0353291 -0.0531072,0.0401753 -1.18128e-13,9.63674e-14 -0.0486615,0.044002 -0.0446728,0.0480464 -0.0403492,0.0517306 -0.0357232,0.055027 -0.0308293,0.0579109 -0.0257043,0.0603606 -0.0203866,0.0623579 -0.014916,0.0638876 -0.00933367,0.0649384 -0.00368134,0.0655024 0.00199859,0.0655753 0.00766354,0.0651566 0.013271,0.0642495 0.018779,0.0628607 0.0231284,0.0584291 -0.401602,0 0,-1 0.790495,0 z "/>
<path fill="rgb(0,91,140)" stroke="rgb(0,91,140)" d="M 1.74171,4.4 l -0.0118902,0.0386095 -0.0123627,0.0576671 -0.00727238,0.0585273 -0.00212633,0.0589391 0.00303601,0.0588992 0.00817508,0.0584081 0.0132515,0.0574694 0.0182264,0.0560904 0.0230617,0.0542816 0.0277202,0.0520569 0.0321664,0.0494334 0.0363661,0.0464311 0.0402871,0.043073 0.0438995,0.0393849 0.0471755,0.035395 0.05009,0.0311339 0.0526208,0.0266343 0.0547484,0.0219306 -0.0722318,0.155635 -0.686656,0 0,-1 0.341715,0 z "/>
<path fill="rgb(0,91,140)" stroke="rgb(0,91,140)" d="M 1.74171,4.4 l -0.341715,0 0,-1 1,0 0,0.523836 -0.0161855,-8.94236e-05 -0.0600045,0.00488346 -0.059356,0.0100628 -0.0582612,0.0151665 -0.0567285,0.0201562 -0.0547693,0.0249944 -1.46549e-14,7.99361e-15 -0.0522033,0.0274435 -0.0496034,0.0319035 -0.0466234,0.0361191 -0.0432862,0.0400579 -0.0396173,0.0436898 -0.0356449,0.046987 -0.0313994,0.0499241 -0.0269132,0.0524787 -0.0222209,0.0546312 -0.00546805,0.0177556 z "/>
<path fill="rgb(0,91,140)" stroke="rgb(0,91,140)" d="M 2.79209,1.4 l 0.607914,0 0,1 -0.220477,0 0.0185658,-0.0440887 0.0198551,-0.061241 0.0145814,-0.0627062 0.00920229,-0.0637182 0.00375667,-0.0642696 -0.00171609,-0.0643564 -0.00717646,-0.063978 -0.012585,-0.0631372 -0.0179025,-0.06184 -0.0230906,-0.0600959 -0.0281118,-0.0579173 -0.0341577,-0.0571636 -0.0390716,-0.0539243 -0.0436804,-0.0502638 -0.0479479,-0.0462106 -0.0518409,-0.0417965 -0.0553289,-0.0370558 -0.0583847,-0.0320257 -0.0324034,-0.0142109 z "/>
<path fill="rgb(0,91,140)" stroke="rgb(0,91,140)" d="M 1.36396,1.4 l 0.0360418,0 0,1 -0.713374,0 0.0272433,-0.0657712 0.134946,-0.259229 0.157026,-0.246481 0.17791,-0.231857 0.180207,-0.196662 z "/>
<path fill="rgb(0,91,140)" stroke="rgb(0,91,140)" d="M 3.4,0.420387 l 0,0.979613 -0.607914,0 -0.0285811,-0.0125346 -0.0631078,-0.0212562 -0.0647382,-0.015601 -0.0658629,-0.00982387 -0.066473,-0.00397 -0.0665639,0.00191487 -0.0367592,0.00432696 0,-0.656431 0.204233,-0.0845959 0.278724,-0.0878812 0.285322,-0.0632545 0.231721,-0.0305067 z "/>
<path fill="rgb(0,91,140)" stroke="rgb(0,91,140)" d="M 6.81337,2.4 l 0.0845959,0.204233 0.0878812,0.278724 0.0632545,0.285322 0.0305067,0.231721 -0.679613,0 0,-1 0.413374,0 z "/>
<path fill="rgb(0,91,140)" stroke="rgb(0,91,140)" d="M 6.13604,1.4 l 0.180207,0.196662 0.0837511,0.109147 0,0.694192 -0.804445,0 0.0234409,-0.0577588 0.019493,-0.0637712 0.0137554,-0.0652497 0.00790931,-0.0662132 0.00200073,-0.0666539 -0.00392365,-0.0665684 -0.00981704,-0.0659573 -0.0156329,-0.0648256 -0.0213254,-0.063182 -0.0268495,-0.0610397 -0.0321617,-0.0584155 -0.0372199,-0.0553301 -0.0419844,-0.0518079 -0.0464173,-0.0478767 -0.0268227,-0.0231479 0,-0.122202 0.736042,0 z "/>
<path fill="rgb(0,91,140)" stroke="rgb(0,91,140)" d="M 5.4,1.4 l 0,-0.564199 0.025,0.0130142 0.246481,0.157026 0.231857,0.17791 0.215469,0.197441 0.0172341,0.0188077 -0.736042,0 z "/>
<path fill="rgb(0,91,140)" stroke="rgb(0,91,140)" d="M 4.4,7.03579 l 0,-0.63579 1,0 0,0.262451 -0.182389,0.0989638 -0.268253,0.11653 -0.277395,0.0926889 -0.271964,0.0651563 z "/>
<path fill="rgb(0,91,140)" stroke="rgb(0,91,140)" d="M 5.4,5.46949 l -0.48378,0 -0.0818104,-0.00892019 -0.0806693,-0.0162784 -0.0788677,-0.0235034 -0.0520261,-0.0207885 0.777154,0 0,0.0694905 z M 4.4,5.75083 l 1,0 0,0.649171 -1,0 0,-0.649171 z "/>
<path fill="rgb(0,91,140)" stroke="rgb(0,91,140)" d="M 4.4,5.29147 l 0,-0.281038 0.0284406,0.0378804 0.040447,0.0450468 0.0442344,0.0413339 0.0476823,0.0373038 0.0507642,0.0329874 0.0534566,0.0284178 0.0557386,0.0236301 0.0575929,0.0186611 0.0590051,0.0135488 0.0599645,0.00833256 0.0604637,0.00305236 0.0604988,-0.00225128 0.0600696,-0.00753763 0.0591794,-0.0127661 0.057835,-0.0178967 0.0560467,-0.0228898 0.0538283,-0.0277073 0.0511967,-0.0323122 0.0435555,-0.0331548 0,0.255884 -0.777154,0 -0.0243943,-0.00974741 -0.0733475,-0.0373184 -0.0696741,-0.0437954 -1.24345e-14,-7.99361e-15 -0.00528827,-0.00403378 -0.00561561,-0.003564 -0.00590133,-0.00306781 -0.00614332,-0.00254888 -0.00633978,-0.00201106 -0.00648926,-0.00145833 -0.00659064,-0.0008948 -0.00664318,-0.000324637 -0.00641911,0.000239451 z "/>
<path fill="rgb(0,91,140)" stroke="rgb(0,91,140)" d="M 4.4,4.2039 l 0,-0.568886 0.341789,0 0,-0.157579 -0.185697,0 -0.0347606,-0.0774302 0.878669,0 0,0.673979 -2.13927e-05,-1.91841e-05 -0.0489079,-0.0366264 -0.0519451,-0.0321743 -0.0545782,-0.0274718 -0.0567866,-0.0225556 -0.0585533,-0.017464 -0.0598644,-0.0122365 -0.0607098,-0.00691374 -0.0610829,-0.00153723 -0.0609807,0.00385124 -0.0604041,0.00920975 -0.0593576,0.0144966 -0.0578493,0.0196707 -0.0558909,0.0246917 -0.0534978,0.0295207 -0.0506883,0.0341199 -0.0474846,0.0384538 -0.0439114,0.0424884 -0.0399966,0.0461925 -0.0174889,0.0242196 z "/>
<path fill="rgb(0,91,140)" stroke="rgb(0,91,140)" d="M 5.4,2.66082 l 0,0.73918 -0.878669,0 -0.0890219,-0.198298 0.208182,-0.405144 0.0634356,0.0205596 0.0649966,0.0149068 0.0660549,0.00913879 0.0666024,0.00330008 0.0666348,-0.00256416 0.0661518,-0.00840857 0.0651573,-0.0141879 0.0636588,-0.0198576 0.061668,-0.0253737 0.0592003,-0.0306935 0.0562747,-0.035776 0.052914,-0.0405818 0.00675981,-0.00619994 z "/>
<path fill="rgb(0,91,140)" stroke="rgb(0,91,140)" d="M 7.07961,3.4 l 0.00763957,0.0580283 0.0127478,0.291972 -0.0114859,0.277171 -0.034379,0.27527 -0.0204964,0.0975588 -0.633639,0 0,-1 0.679613,0 z "/>
<path fill="rgb(0,91,140)" stroke="rgb(0,91,140)" d="M 7.03364,4.4 l -0.0365399,0.173923 -0.0793025,0.265832 -0.107123,0.272146 -0.130451,0.261766 -0.0161321,0.0263322 -0.26409,0 0,-1 0.633639,0 z "/>
<path fill="rgb(0,91,140)" stroke="rgb(0,91,140)" d="M 5.4,2.66082 l 0.0423841,-0.0388738 0.0449939,-0.049217 4.79616e-14,-5.77316e-14 0.0404716,-0.052998 0.0356075,-0.0563813 0.0304623,-0.0593194 0.00163571,-0.00403041 0.804445,0 0,1 -1,0 0,-0.73918 z "/>
<path fill="rgb(0,91,140)" stroke="rgb(0,91,140)" d="M 3.4,7.0786 l 0,-0.678605 1,0 0,0.63579 -0.0124582,0.0029847 -0.289281,0.0430736 -0.291936,0.0176779 -0.292365,-0.00785247 -0.11396,-0.0130693 z "/>
<path fill="rgb(0,91,140)" stroke="rgb(0,91,140)" d="M 3.4,6.29668 l 0.0925608,0 0,-0.213837 -0.0925608,0 0,-0.33201 0.0362793,0 0.00829823,-0.000377401 0.00822972,-0.00112909 0.00809325,-0.00187145 0.00788997,-0.00259837 0.00762154,-0.00330382 0.00729018,-0.00398201 0.00689863,-0.00462731 0.00645012,-0.00523441 0.00594836,-0.00579829 0.00539748,-0.00631429 0.00480204,-0.00677816 6.21725e-15,-5.32907e-15 0.181911,-0.295605 0.00414528,-0.00746 0.00255526,-0.00574903 0.604119,0 -0.112583,0.240462 -0.0022747,0.00677954 -0.00166925,0.00695342 -0.00105085,0.00707334 -0.000424301,0.00713837 0.000205545,0.00714802 0.000833795,0.0071022 0.00145558,0.00700127 0.00206606,0.00684601 0.00266051,0.00663763 0.00323432,0.00637774 0.00378304,0.00606837 0.00430239,0.0057119 0.00478837,0.00531112 0.00523718,0.00486912 0.00564536,0.00438934 0.00600973,0.0038755 0.00632747,0.00333159 0.00659611,0.00276183 0.00681357,0.00217063 0.00697816,0.0015626 0.0070886,0.000942435 0.00714403,0.000314959 0.130902,0 0,0.649171 -1,0 0,-0.103324 z "/>
<path fill="rgb(0,91,140)" stroke="rgb(0,91,140)" d="M 3.17952,2.4 l 0.220477,0 0,0.0469092 -0.503935,0.55783 -0.0787894,-0.230713 0.056747,-0.0304051 0.0539592,-0.0351154 0.0507815,-0.0395719 0.0472366,-0.0437424 0.0433503,-0.0475966 0.0391507,-0.0511069 0.0346681,-0.0542477 0.0299349,-0.0569964 0.00641946,-0.0152445 z M 2.87058,3.4 l -0.470583,0 0,-0.555118 0.0102919,0.00160344 0.0654544,0.004454 0.0655943,-0.00122467 0.0652425,-0.00689417 0.0644016,-0.012512 0.199599,0.569692 z M 3.4,3.31985 l 0,0.0801486 -0.361312,0 -0.0300836,-0.0801486 0.391395,0 z "/>
<path fill="rgb(0,91,140)" stroke="rgb(0,91,140)" d="M 3.03869,3.4 l 0.361312,0 0,0.235009 -0.177558,0 -0.0103712,0.000787758 -0.0104002,-0.000135049 -0.0103472,-0.00105679 -0.0102128,-0.00197021 -0.00999781,-0.0028681 -0.00970408,-0.00374339 -0.00933389,-0.00458919 -0.00889015,-0.00539883 -0.00837637,-0.00616592 -0.00779658,-0.00688444 -0.00715536,-0.0075487 -0.00645776,-0.00815349 -0.00570928,-0.00869404 -0.00491581,-0.00916608 -0.00408361,-0.00956589 -0.0600017,-0.159857 z M 2.4,3.4 l 0.470583,0 0.0704974,0.201213 0.00718254,0.0215208 0.0090054,0.0208239 0.0107616,0.019973 0.0124383,0.0189743 0.0140228,0.0178352 0.0155037,0.0165641 0.0168698,0.0151705 0.0181111,0.0136646 0.0192184,0.0120576 0.0201835,0.0103615 0.0209993,0.00858861 0.0216597,0.00675221 0.0221598,0.00486586 0.022496,0.0029435 0.0226657,0.00099937 0.205642,0.000214164 0,0.607478 -0.330852,0 -0.018021,-0.0492096 -0.0255213,-0.0545257 -0.0301485,-0.0521101 -0.0345491,-0.0493027 -0.0386899,-0.0461246 -0.0425399,-0.0425999 -0.0460701,-0.0387548 -0.049254,-0.0346185 -0.0520676,-0.0302219 -0.0544897,-0.0255981 -0.0565023,-0.0207818 -0.0580901,-0.0158094 -0.0592412,-0.0107181 -0.0599469,-0.00554619 -0.0440166,-0.000243189 0,-0.523836 z "/>
<path fill="rgb(0,91,140)" stroke="rgb(0,91,140)" d="M 3.06915,4.4 l 0.330852,0 0,0.357647 -0.393202,0.642353 -0.131153,0 -0.0864881,-0.200651 0.0489673,-0.0350229 0.0457494,-0.0391329 0.0421877,-0.0429487 0.0383088,-0.0464416 0.034142,-0.0495855 0.0297184,-0.0523565 0.0250715,-0.054734 0.0202361,-0.0567 0.0152485,-0.0582398 0.0101464,-0.0593418 0.00496793,-0.0599976 -0.000247864,-0.0602024 -0.00546179,-0.0599547 -0.0106347,-0.0592562 -0.0157276,-0.0581123 -0.00268132,-0.00732184 z M 2.64652,5.4 l -0.183738,0 0,-0.0993538 0.129415,-0.0224851 0.0543229,0.121839 z "/>
<path fill="rgb(0,91,140)" stroke="rgb(0,91,140)" d="M 2.46278,5.4 l 0.183738,0 0.339578,0.761628 0.00911592,0.018224 0.0106967,0.0173434 0.0121931,0.0163261 0.0135934,0.0151801 0.0148865,0.0139143 0.0160622,0.0125388 0.0171112,0.0110644 0.0180253,0.00950279 0.0187973,0.00786623 0.019421,0.00616764 0.0198916,0.00442042 0.0202053,0.00263833 0.0203597,0.000835446 0.0203535,-0.00097403 0.183191,0 0,0.103324 -1,0 0,-0.930951 0.0627801,0.000441847 0,-0.0694905 z M 3.4,5.75083 l 0,0.33201 -0.126909,0 -0.012588,-0.000554522 -0.0124905,-0.00165927 -0.0122962,-0.00275116 -0.0120066,-0.00382174 -0.0116241,-0.00486271 -0.0111514,-0.00586601 -0.0105924,-0.00682386 -0.00995136,-0.00772885 -0.00923319,-0.00857396 -0.00844349,-0.00935265 -0.00758838,-0.0100589 -0.00667448,-0.0106872 -0.00570887,-0.0112327 -0.00469904,-0.0116912 -0.101297,-0.236345 0.363255,0 z M 2.87565,5.4 l 0.131153,0 -0.0769604,0.125726 -0.0541926,-0.125726 z "/>
<path fill="rgb(0,91,140)" stroke="rgb(0,91,140)" d="M 6.4,2.4 l 0,-0.694192 0.0941593,0.122711 0.157026,0.246481 0.134946,0.259229 0.0272433,0.0657712 -0.413374,0 z "/>
<path fill="rgb(0,91,140)" stroke="rgb(0,91,140)" d="M 5.79475,6.4 l -0.0761533,0.060557 -0.243921,0.161374 -0.0746777,0.0405199 0,-0.262451 0.394752,0 z "/>
<path fill="rgb(0,91,140)" stroke="rgb(0,91,140)" d="M 5.79475,6.4 l -0.394752,0 0,-0.649171 0.0677228,0 0,-0.281338 -0.0677228,0 0,-0.0694905 1,0 0,0.395298 -0.0465191,0.0628739 -0.1938,0.219045 -0.212166,0.201307 -0.152763,0.121477 z "/>
<path fill="rgb(0,91,140)" stroke="rgb(0,91,140)" d="M 5.4,5.14412 l 0.00461666,-0.00351423 0.044778,-0.0407444 0.0410401,-0.0445072 0.0369872,-0.0479283 0.0326505,-0.0509816 0.0280632,-0.0536436 0.0232605,-0.0558939 0.0182793,-0.0577152 0.0131578,-0.0590936 0.00793527,-0.0600184 0.00265187,-0.0604826 -9.46224e-08,-0.000361633 -2.83867e-07,-0.000361633 -4.73112e-07,-0.000361633 -0.00279055,-0.0610384 -0.00815827,-0.0605551 -0.0134625,-0.0596007 -0.00876097,-0.027314 0.779753,0 0,1 -1,0 0,-0.255884 z "/>
<path fill="rgb(0,91,140)" stroke="rgb(0,91,140)" d="M 4.30593,5.4 l -0.604119,0 0.000911017,-0.00204968 0.00275987,-0.00807577 0.00203165,-0.00828899 0.00128736,-0.00843668 0.000532897,-0.00851768 -0.000225778,-0.00853135 -0.000982669,-0.00847758 -0.00173179,-0.00835678 -0.00246722,-0.00816993 -0.00318315,-0.00791849 -8.805e-05,-0.000193111 -8.84768e-05,-0.000192915 -8.89031e-05,-0.000192719 -0.174166,-0.376447 0.101297,-0.157579 0.0077216,-0.0108905 0.00867791,-0.010145 0.00956264,-0.00931574 0.0103685,-0.00840963 0.0110888,-0.00743414 0.0117176,-0.00639733 0.0122497,-0.00530773 0.0126808,-0.00417434 0.0130072,-0.00300652 0.0132264,-0.00181389 0.0133364,-0.000606298 4.0229e-08,5.32907e-15 4.83659e-05,7.97101e-09 4.83659e-05,2.38865e-08 4.83659e-05,3.98021e-08 0.528972,0 0.0123739,0.0592627 0.0175133,0.0579522 0.0225182,0.0561971 0.0273502,0.0540106 0.0319724,0.0514095 0.00790862,0.0105336 0,0.281038 -0.00022737,8.48156e-06 -0.00660053,0.000818665 -0.00650566,0.00138333 -0.00636257,0.00193774 -0.00617234,0.0024778 -0.00593635,0.00299948 -0.00565638,0.00349894 -0.00533448,0.00397247 -0.00497305,0.00441656 -0.00457476,0.00482792 -0.00414257,0.00520349 -0.00367967,0.0055405 -0.00318951,0.00583646 -0.030715,0.0656033 z M 4.30067,4.4 l -0.0147466,0.0527755 -0.0111939,0.0600681 -0.624637,0 -0.015103,0.000638669 -0.0149951,0.00191145 -0.0147802,0.00317057 -0.0144598,0.00440707 -0.0140361,0.00561209 -0.0135122,0.00677704 -0.0128918,0.0078936 -0.0121794,0.0089538 -0.01138,0.00995007 -0.0104993,0.0108753 -0.00954368,0.0117229 -0.00851991,0.0124867 -0.000226465,0.000365021 -0.000225588,0.000365564 -0.000224709,0.000366104 -0.0975167,0.159308 0,-0.357647 0.900671,0 z "/>
<path fill="rgb(0,91,140)" stroke="rgb(0,91,140)" d="M 3.4,3.4 l 0.951335,0 0.0359586,0.0774302 -0.22508,0 -0.00686695,0.000299818 -0.00681469,0.000897171 -0.00671056,0.0014877 -0.00655537,0.0020669 -0.00635028,0.00263037 -0.00609686,0.00317383 -0.00579704,0.00369312 -0.00545311,0.00418432 -0.00506767,0.00464366 -0.00464366,0.00506767 -0.00418432,0.00545311 -0.00369312,0.00579704 -0.00317383,0.00609686 -0.00263037,0.00635028 -0.0020669,0.00655537 -0.0014877,0.00671056 -0.000897171,0.00681469 -0.000299818,0.00686695 0.000299818,0.00686695 0.000897171,0.00681469 0.0014877,0.00671056 0.0020669,0.00655537 0.00263037,0.00635028 0.00317383,0.00609686 0.00369312,0.00579704 0.00418432,0.00545311 0.00464366,0.00506767 0.00506767,0.00464366 0.00545311,0.00418432 0.00579704,0.00369312 0.00609686,0.00317383 0.00635028,0.00263037 0.00655537,0.0020669 0.00671056,0.0014877 0.00681469,0.000897171 0.00686695,0.000299818 0.237786,0 0,0.568886 -0.0182817,0.0253176 -0.0312664,0.0524966 -0.0265189,0.0550475 -0.021565,0.0571702 -0.0016968,0.00607255 -0.900671,0 0,-0.607478 0.0194041,2.02082e-05 0,-0.157533 -0.0194041,0 0,-0.235009 z "/>
<path fill="rgb(0,91,140)" stroke="rgb(0,91,140)" d="M 3.4,3.31985 l 0.914114,0 0.037221,0.0801486 -0.951335,0 0,-0.0801486 z M 3.44238,2.4 l -0.042377,0.0469092 0,-0.0469092 0.042377,0 z "/>
<path fill="rgb(0,91,140)" stroke="rgb(0,91,140)" d="M 3.4,1.4 l 1,0 0,0.133609 -0.0114118,0.00971402 -0.0472065,0.0479991 -0.0427784,0.0519844 -0.0380154,0.0555626 -0.0329547,0.0587057 -0.0276359,0.0613891 -0.0221007,0.0635919 -0.0163925,0.0652967 -0.010556,0.0664901 -0.360174,0 -0.348397,0.385658 -0.042377,0 0,-1 z "/>
<path fill="rgb(0,91,140)" stroke="rgb(0,91,140)" d="M 3.75,0.4 l 0.291972,0.0127478 0.28975,0.0381463 0.0682786,0.015137 0,0.933969 -1,0 0,-0.979613 0.0580283,-0.00763957 0.291972,-0.0127478 z "/>
<path fill="rgb(0,91,140)" stroke="rgb(0,91,140)" d="M 2.5156,5.0839 l -0.209493,-0.454937 -0.00343558,-0.00840793 -0.00268971,-0.00867536 -0.00192337,-0.00887678 -0.00114238,-0.00901063 -0.000352709,-0.00907591 0.00043965,-0.00907211 0.00122866,-0.00899927 0.00200833,-0.00885794 0.0027727,-0.0086492 0.00351598,-0.00837463 0.0042325,-0.00803632 0.0049168,-0.00763685 0.00556369,-0.00717926 0.00616823,-0.00666704 0.00672583,-0.00610407 0.00723224,-0.00549465 0.00768361,-0.00484341 0.0080765,-0.00415531 0.00840793,-0.00343558 0.00867536,-0.00268971 0.00887678,-0.00192337 0.00901063,-0.00114238 0.00907591,-0.000352709 0.00907211,0.00043965 0.00899927,0.00122866 0.00885794,0.00200833 0.0086492,0.0027727 0.00837463,0.00351598 0.00803632,0.0042325 0.00763685,0.0049168 0.00717926,0.00556369 0.00666704,0.00616823 0.00610407,0.00672583 0.00549465,0.00723224 0.00484341,0.00768361 0.00415531,0.0080765 0.209493,0.454937 0.031287,-0.0270995 0.0288339,-0.0296962 0.0261661,-0.0320716 0.0233035,-0.0342083 0.0202672,-0.0360901 0.01708,-0.0377032 0.0137656,-0.0390354 0.0103487,-0.0400769 0.00685471,-0.04082 0.00330966,-0.041259 -0.000260041,-0.0413907 -0.00382781,-0.0412141 -0.00736706,-0.0407306 -0.0108515,-0.0399438 -0.014255,-0.0388594 -0.0175524,-0.0374856 -0.0207191,-0.0358326 -0.0237314,-0.0339128 -0.026567,-0.0317403 -0.0292048,-0.0293315 -0.031625,-0.0267042 -0.0338097,-0.0238781 -0.0357426,-0.020874 -0.0374093,-0.0177146 -0.0387973,-0.0144231 -0.0398964,-0.0110243 -0.0406983,-0.00754335 -0.0411972,-0.00400622 -0.0413892,-0.000439255 -0.0412729,0.00313098 -0.0408493,0.0066779 -0.0401214,0.0101751 -0.0390947,0.0135965 -0.00421248,0.00169532 -0.00419617,0.0017353 -0.00417948,0.00177512 -0.0374712,0.0180994 -0.0357532,0.0212929 -0.0337638,0.0243247 -0.0315179,0.0271717 -0.0290327,0.0298124 -0.0263271,0.0322268 -0.0234215,0.0343964 -0.0203381,0.0363049 -0.0171002,0.0379376 -0.0137325,0.0392823 -0.0102605,0.0403287 -0.00671064,0.0410688 -0.00310978,0.0414971 0.000514693,0.0416103 0.00413526,0.0414075 0.00772442,0.0408903 0.0112549,0.0400625 0.0147,0.0389306 0.0180334,0.037503 0.0212299,0.0357907 0.0242651,0.0338066 0.0271161,0.0315657 0.0297612,0.0290852 0.0321804,0.0263838 0.0343551,0.0234821 0.036269,0.020402 0.0379074,0.017167 0.039258,0.0138017 0.0403105,0.0103316 0.0410569,0.00678299 0.0414916,0.00318289 0.0416111,-0.000441373 0.0414147,-0.00406229 0.0409038,-0.00765236 0.000506449,-0.000118086 0.00050632,-0.000118638 0.00050619,-0.000119189 z "/>
<path fill="rgb(0,91,140)" stroke="rgb(0,91,140)" d="M 2.3061,4.62896 l -0.00343558,-0.00840793 -0.00268971,-0.00867536 -0.00192337,-0.00887678 -0.00114238,-0.00901063 -0.000352709,-0.00907591 0.00043965,-0.00907211 0.00122866,-0.00899927 0.00200833,-0.00885794 0.0027727,-0.0086492 0.00351598,-0.00837463 0.0042325,-0.00803632 0.0049168,-0.00763685 0.00556369,-0.00717926 0.00616823,-0.00666704 0.00672583,-0.00610407 0.00723224,-0.00549465 0.00768361,-0.00484341 0.0080765,-0.00415531 0.00840793,-0.00343558 0.00867536,-0.00268971 0.00887678,-0.00192337 0.00901063,-0.00114238 0.00907591,-0.000352709 0.00907211,0.00043965 0.00899927,0.00122866 0.00885794,0.00200833 0.0086492,0.0027727 0.00837463,0.00351598 0.00803632,0.0042325 0.00763685,0.0049168 0.00717926,0.00556369 0.00666704,0.00616823 0.00610407,0.00672583 0.00549465,0.00723224 0.00484341,0.00768361 0.00415531,0.0080765 -0.00415531,-0.0080765 -0.00484341,-0.00768361 -0.00549465,-0.00723224 -0.00610407,-0.00672583 -0.00666704,-0.00616823 -0.00717926,-0.00556369 -0.00763685,-0.0049168 -0.00803632,-0.0042325 -0.00837463,-0.00351598 -0.0086492,-0.0027727 -0.00885794,-0.00200833 -0.00899927,-0.00122866 -0.00907211,-0.00043965 -0.00907591,0.000352709 -0.00901063,0.00114238 -0.00887678,0.00192337 -0.00867536,0.00268971 -0.00840793,0.00343558 -0.0080765,0.00415531 -0.00768361,0.00484341 -0.00723224,0.00549465 -0.00672583,0.00610407 -0.00616823,0.00666704 -0.00556369,0.00717926 -0.0049168,0.00763685 -0.0042325,0.00803632 -0.00351598,0.00837463 -0.0027727,0.0086492 -0.00200833,0.00885794 -0.00122866,0.00899927 -0.000439651,0.00907211 0.000352709,0.00907591 0.00114238,0.00901063 0.00192336,0.00887678 0.00268971,0.00867536 0.00343558,0.00840793 z "/>
<path fill="rgb(0,91,140)" stroke="rgb(0,91,140)" d="M 5.43908,4.63322 l 0.000404896,-0.0420576 -0.00329731,-0.0419301 -0.00697395,-0.0414774 -0.0105965,-0.0407029 -0.0141368,-0.0396126 -0.0175675,-0.0382151 -0.0208619,-0.0365211 -0.0239945,-0.0345438 -0.0269409,-0.0322986 -0.0296783,-0.0298028 -0.0321856,-0.0270758 -0.0344431,-0.0241388 -0.0364335,-0.0210145 -0.0381412,-0.0177272 -0.0395531,-0.0143024 -0.0406582,-0.0107667 -0.0414478,-0.00714743 -0.041916,-0.00347272 -0.042059,0.000228923 -0.0418757,0.00392879 -0.0413676,0.00759818 -0.0405386,0.0112086 -0.0393951,0.0147321 -0.037946,0.0181414 -0.0362026,0.0214099 -0.0341783,0.0245123 -0.0318889,0.0274245 -0.0293522,0.0301241 -0.0265877,0.0325899 -0.023617,0.034803 -0.0204631,0.036746 -0.0171505,0.038404 -0.0137048,0.0397642 -0.0101528,0.0408158 0.500854,0 0.00907411,0.000396184 0.00900505,0.00118554 0.00886746,0.00196587 0.00866238,0.00273124 0.00839137,0.00347582 0.0080565,0.00419395 0.00766032,0.00488016 0.00720584,0.00552923 0.00669651,0.00613622 0.00613622,0.00669651 0.00552923,0.00720584 0.00488016,0.00766032 0.00419395,0.0080565 0.00347582,0.00839137 0.00273124,0.00866238 0.00196587,0.00886746 0.00118554,0.00900505 0.000396184,0.00907411 -0.000396184,0.00907411 -0.00118554,0.00900505 -0.00196587,0.00886746 -0.00273124,0.00866238 -0.00347582,0.00839137 -0.00419395,0.0080565 -0.00488016,0.00766032 -0.00552923,0.00720584 -0.00613622,0.00669651 -0.00669651,0.00613622 -0.00720584,0.00552923 -0.00766032,0.00488016 -0.0080565,0.00419395 -0.00839137,0.00347582 -0.00866238,0.00273124 -0.00886746,0.00196587 -0.00900505,0.00118554 -0.00907411,0.000396184 -0.500854,0 0.0115286,0.0397536 0.0149132,0.0386116 0.0181868,0.0371819 0.021325,0.0354754 0.0243043,0.0335046 0.0271025,0.0312843 0.029699,0.028831 0.0320742,0.026163 0.0342106,0.0233001 0.0360921,0.0202637 0.0377049,0.0170764 0.0390368,0.0137618 0.040078,0.0103448 0.0408206,0.00685073 0.0412593,0.00330563 0.0413907,-0.000264082 0.0412138,-0.00383183 0.0407299,-0.00737104 0.0399427,-0.0108553 0.038858,-0.0142588 0.0374839,-0.0175561 0.0358306,-0.0207226 0.0339105,-0.0237348 0.0317378,-0.0265701 0.0293287,-0.0292077 0.0267011,-0.0316276 0.0238748,-0.033812 0.0208706,-0.0357446 0.0177109,-0.037411 0.0144194,-0.0387987 0.0110204,-0.0398975 0.00753938,-0.0406991 0.0040022,-0.0411976 z "/>
<path fill="rgb(241,240,234)" stroke="rgb(241,240,234)" d="M 3.01494,3.33672 l 0.083752,0.223132 0.00408361,0.00956589 0.00491581,0.00916608 0.00570928,0.00869404 0.00645776,0.00815349 0.00715536,0.0075487 0.00779658,0.00688444 0.00837637,0.00616592 0.00889015,0.00539883 0.00933389,0.00458919 0.00970408,0.00374339 0.00999781,0.0028681 0.0102128,0.00197021 0.0103472,0.00105679 0.0104002,0.000135049 0.0103712,-0.000787758 0.196962,0 0,0.157533 -0.225046,-0.000234373 -0.0226657,-0.00099937 -0.022496,-0.0029435 -0.0221598,-0.00486586 -0.0216597,-0.00675221 -0.0209993,-0.00858861 -0.0201835,-0.0103615 -0.0192184,-0.0120576 -0.0181111,-0.0136646 -0.0168698,-0.0151705 -0.0155037,-0.0165641 -0.0140228,-0.0178352 -0.0124383,-0.0189743 -0.0107616,-0.019973 -0.0090054,-0.0208239 -0.00718254,-0.0215208 -0.0926667,-0.264488 0.166524,0 z "/>
<path fill="rgb(241,240,234)" stroke="rgb(241,240,234)" d="M 1.77703,2.33672 l 0.169404,0 0.000578799,0.00144132 0.0227324,0.0450763 0.026487,0.0429776 0.0300493,0.040567 0.0333934,0.0378618 0.0364952,0.0348818 0.039332,0.0316486 0.0418832,0.0281857 0.0441305,0.0245181 0.0460574,0.0206726 0.0476499,0.016677 0.0488966,0.0125603 0.0497883,0.00835244 0.0503186,0.00408396 0.0504836,-0.000214167 0.0502821,-0.00451074 0.0497156,-0.00877456 -0.118796,-0.336005 0.166105,0 0.074687,0.215266 0,0.465878 -0.0657139,-0.18756 -0.0644016,0.012512 -0.0652425,0.00689417 -0.0655943,0.00122467 -0.0654544,-0.004454 -0.0648238,-0.0100993 -0.0637072,-0.0156689 -0.062113,-0.021121 -0.0600531,-0.0264147 -0.0575431,-0.0315105 -0.0546016,-0.03637 -0.0512509,-0.0409568 -0.0475159,-0.0452367 -0.0434247,-0.0491773 -0.0390079,-0.0527494 -0.0342988,-0.0559259 -0.0293325,-0.0586832 -0.0241463,-0.0610006 -0.00144783,-0.00484643 z "/>
<path fill="rgb(241,240,234)" stroke="rgb(241,240,234)" d="M 1.94643,2.33672 l -0.169404,0 -0.0173312,-0.0580142 -0.013271,-0.0642495 -0.00766354,-0.0651566 -0.00199859,-0.0655753 0.00368134,-0.0655024 0.00933367,-0.0649384 0.014916,-0.0638876 0.0203866,-0.0623579 0.0257043,-0.0603606 0.0308293,-0.0579109 0.0357232,-0.055027 0.0403492,-0.0517306 0.0446728,-0.0480464 0.0486615,-0.044002 1.18128e-13,-9.63674e-14 0.0531072,-0.0401753 0.0564471,-0.0353291 0.0593461,-0.030207 0.0617815,-0.024849 0.0637343,-0.0192968 0.0651892,-0.0135939 0.0661349,-0.00778479 0.0665639,-0.00191487 0.066473,0.00397 0.0658629,0.00982387 0.0647382,0.015601 0.0363014,0.0122272 0,0.171241 -0.0459208,-0.0185238 -0.0495448,-0.0151439 -0.0506709,-0.0107928 -0.0514157,-0.00636041 -0.0517735,-0.0018802 -0.0517416,0.00261417 -0.0513203,0.00708886 -0.0505128,0.0115102 -0.0493251,0.0158449 -0.0477662,0.0200604 -0.0458478,0.0241248 -0.0435843,0.0280078 -0.0409928,0.0316799 -0.0380928,0.0351136 -0.0349061,0.038283 -0.0314567,0.0411643 -0.0277706,0.0437358 -0.0238754,0.0459782 -0.0198006,0.0478745 -0.0155767,0.0494105 -0.0112356,0.0505746 -0.00680994,0.0513581 -0.00233303,0.051755 0,9.59233e-14 0,1.59872e-14 0.00206704,0.0504417 0.00635332,0.0500827 0.0105935,0.0493601 0.0147567,0.0482792 0.0182341,0.0454064 z M 2.66201,2.33672 l -0.166105,0 -0.0781658,-0.221085 -0.0020292,-0.00665437 -0.0014385,-0.00680654 -0.00083674,-0.00690638 -0.00022855,-0.00695313 0.000381397,-0.00694642 0.000988411,-0.00688631 0.00158783,-0.00677326 0.00217504,-0.00660814 0.00274552,-0.00639221 0.0032949,-0.00612714 0.00381895,-0.00581497 0.00431364,-0.00545809 0.00477517,-0.00505925 0.00519999,-0.00462152 0.00558483,-0.00414825 0.00592673,-0.0036431 0.00622307,-0.00310994 0.00647157,-0.00255286 0.00667031,-0.00197617 0.00681778,-0.00138427 0.00691283,-0.000781742 0.00695473,-0.000173199 0.00694317,0.000436675 0.00687823,0.00104319 0.00676041,0.00164169 0.00659062,0.00222756 0.00637016,0.00279632 0.00610072,0.00334357 0.00578439,0.00386512 0.00542358,0.00435695 0.00502108,0.00481529 0.00457998,0.00523661 0.00410367,0.00561767 0.00359581,0.00595554 0.0030603,0.00624763 0.00250127,0.00649168 0.00192301,0.00668583 0.0923243,0.266101 z "/>
<path fill="rgb(241,240,234)" stroke="rgb(241,240,234)" d="M 4.16221,3.47743 l -0.00686695,0.000299818 -0.00681469,0.000897171 -0.00671056,0.0014877 -0.00655537,0.0020669 -0.00635028,0.00263037 -0.00609686,0.00317383 -0.00579704,0.00369312 -0.00545311,0.00418432 -0.00506767,0.00464366 -0.00464366,0.00506767 -0.00418432,0.00545311 -0.00369312,0.00579704 -0.00317383,0.00609686 -0.00263037,0.00635028 -0.0020669,0.00655537 -0.0014877,0.00671056 -0.000897171,0.00681469 -0.000299818,0.00686695 0.000299818,0.00686695 0.000897171,0.00681469 0.0014877,0.00671056 0.0020669,0.00655537 0.00263037,0.00635028 0.00317383,0.00609686 0.00369312,0.00579704 0.00418432,0.00545311 0.00464366,0.00506767 0.00506767,0.00464366 0.00545311,0.00418432 0.00579704,0.00369312 0.00609686,0.00317383 0.00635028,0.00263037 0.00655537,0.0020669 0.00671056,0.0014877 0.00681469,0.000897171 0.00686695,0.000299818 -0.00686695,-0.000299818 -0.00681469,-0.000897171 -0.00671056,-0.0014877 -0.00655537,-0.0020669 -0.00635028,-0.00263037 -0.00609686,-0.00317383 -0.00579704,-0.00369312 -0.00545311,-0.00418432 -0.00506767,-0.00464366 -0.00464366,-0.00506767 -0.00418432,-0.00545311 -0.00369312,-0.00579704 -0.00317383,-0.00609686 -0.00263037,-0.00635028 -0.0020669,-0.00655537 -0.0014877,-0.00671056 -0.000897171,-0.00681469 -0.000299818,-0.00686695 0.000299818,-0.00686695 0.000897171,-0.00681469 0.0014877,-0.00671056 0.0020669,-0.00655537 0.00263037,-0.00635028 0.00317383,-0.00609686 0.00369312,-0.00579704 0.00418432,-0.00545311 0.00464366,-0.00506767 0.00506767,-0.00464366 0.00545311,-0.00418432 0.00579704,-0.00369312 0.00609686,-0.00317383 0.00635028,-0.00263037 0.00655537,-0.0020669 0.00671056,-0.0014877 0.00681469,-0.000897171 0.00686695,-0.000299818 z "/>
<path fill="rgb(241,240,234)" stroke="rgb(241,240,234)" d="M 4.03493,2.33672 l -0.169981,0 -0.0516417,-0.114155 -0.0766067,0.0852314 0,-0.2336 0.0540758,-0.0598591 0.360174,0 0.010556,-0.0664901 0.0163925,-0.0652967 0.0221007,-0.0635919 0.0276359,-0.0613891 0.0329547,-0.0587057 0.0380154,-0.0555626 0.0427784,-0.0519844 0.0472065,-0.0479991 0.0512649,-0.043638 0.0549219,-0.0389352 0.0581489,-0.0339275 0.0609205,-0.0286542 0.0632151,-0.0231565 0.0596392,-0.0160324 0,0.162072 -0.0432984,0.0142215 -0.0490824,0.0211674 -0.0469861,0.0254844 -0.044511,0.0295959 -0.0416771,0.0334688 -0.0385073,0.037072 -0.035027,0.0403764 -0.0312645,0.0433553 -0.0272499,0.0459847 -0.0230156,0.0482434 -0.0185958,0.0501133 -0.0140262,0.0515792 -0.00934345,0.0526293 0.422585,0 0,0.157579 -0.422585,0 0.00892466,0.0492343 0.0130779,0.0482974 0.0171364,0.0470107 0.00940685,0.0202611 -0.17543,0 -0.0137632,-0.0431823 -0.0138039,-0.0603394 -0.00871444,-0.0612818 -0.191329,0 0.0753096,0.164804 z M 4.7367,2.26818 l 0,0.0685409 -0.0356764,0 0.0356764,-0.0685409 z "/>
<path fill="rgb(241,240,234)" stroke="rgb(241,240,234)" d="M 4.49293,3.33672 l -0.170975,0 -0.00783585,-0.0168731 -0.577415,0 0,-0.1519 0.504281,0 -0.376033,-0.831227 0.169981,0 0.312982,0.684913 0.1519,-0.292627 -0.0513269,-0.0345968 -0.048257,-0.0387641 -0.0448497,-0.0426603 -0.0411287,-0.0462582 -0.0371202,-0.0495327 -0.0328521,-0.0524608 -0.0283543,-0.0550221 -0.0236583,-0.0571986 -0.00503357,-0.0157929 0.17543,0 0.011664,0.0251227 0.0248527,0.0434282 0.0284547,0.0411582 0.0318506,0.0385902 0.0350159,0.0357428 0.0379277,0.0326367 0.0405649,0.0292942 0.128032,-0.245973 0.0356764,0 0,0.274053 -0.0230279,0.0450992 0.0230279,0.00681115 0,0.161945 -0.0327719,-0.00751617 -0.0634356,-0.0205596 -0.208182,0.405144 0.0606156,0.135023 z "/>
<path fill="rgb(241,240,234)" stroke="rgb(241,240,234)" d="M 4.7367,2.33672 l 0.139933,0 -0.139933,0.274053 0,-0.274053 z M 5.44885,2.33672 l 0.171835,0 -0.00168632,0.00551678 -0.0250766,0.0617892 -0.0304623,0.0593194 -0.0356075,0.0563813 -0.0404716,0.052998 -4.79616e-14,5.77316e-14 -0.0449939,0.049217 -0.049144,0.0450737 -0.052914,0.0405818 -0.0562747,0.035776 -0.0592003,0.0306935 -0.061668,0.0253737 -0.0636588,0.0198576 -0.0651573,0.0141879 -0.0661518,0.00840857 -0.0666348,0.00256416 -0.0666024,-0.00330008 -0.0660549,-0.00913879 -0.0322247,-0.00739066 0,-0.161945 0.025794,0.0076293 0.0498779,0.0102125 0.0505685,0.00590969 0.0508886,0.0015636 0.0508359,-0.00279394 0.0504108,-0.00713101 0.0496163,-0.0114158 0.0484583,-0.015617 0.0469453,-0.0197038 0.0450883,-0.0236462 0.042901,-0.0274154 0.0403994,-0.0309837 0.0376018,-0.034325 0.0345287,-0.0374148 0.0312026,-0.0402305 0.0276479,-0.0427515 0.0238907,-0.0449592 0.00549305,-0.0128908 z "/>
<path fill="rgb(241,240,234)" stroke="rgb(241,240,234)" d="M 4.7367,3.63501 l 0,-0.157579 0.00508995,0 0,0.157579 -0.00508995,0 z "/>
<path fill="rgb(241,240,234)" stroke="rgb(241,240,234)" d="M 4.49293,3.33672 l 0.0631669,0.140706 0.180607,0 0,0.157579 -0.574485,0 -0.00686695,-0.000299818 -0.00681469,-0.000897171 -0.00671056,-0.0014877 -0.00655537,-0.0020669 -0.00635028,-0.00263037 -0.00609686,-0.00317383 -0.00579704,-0.00369312 -0.00545311,-0.00418432 -0.00506767,-0.00464366 -0.00464366,-0.00506767 -0.00418432,-0.00545311 -0.00369312,-0.00579704 -0.00317383,-0.00609686 -0.00263037,-0.00635028 -0.0020669,-0.00655537 -0.0014877,-0.00671056 -0.000897171,-0.00681469 -0.000299818,-0.00686695 0.000299818,-0.00686695 0.000897171,-0.00681469 0.0014877,-0.00671056 0.0020669,-0.00655537 0.00263037,-0.00635028 0.00317383,-0.00609686 0.00369312,-0.00579704 0.00418432,-0.00545311 0.00464366,-0.00506767 0.00506767,-0.00464366 0.00545311,-0.00418432 0.00579704,-0.00369312 0.00609686,-0.00317383 0.00635028,-0.00263037 0.00655537,-0.0020669 0.00671056,-0.0014877 0.00681469,-0.000897171 0.00686695,-0.000299818 0.22508,0 -0.0653437,-0.140706 0.170975,0 z "/>
<path fill="rgb(241,240,234)" stroke="rgb(241,240,234)" d="M 4.7367,2.33672 l 0,-0.0685409 0.0501059,-0.0962626 -0.0501059,0 0,-0.157579 0.179521,0 0.00656434,0.00028198 0.00651598,0.000843861 0.00641961,0.00139953 0.00627595,0.00194488 0.00608605,0.0024759 0.00585131,0.00298869 0.00557346,0.00347945 0.00525455,0.00394459 0.00489693,0.00438066 0.00450323,0.00478445 0.00407636,0.005153 0.00361945,0.00548358 0.00313588,0.00577376 0.0026292,0.00602141 0.00210315,0.0062247 0.00156161,0.00638212 0.00100856,0.00649252 0.000448086,0.0065551 -0.000115692,0.00656938 -0.000678618,0.00653525 -0.00123654,0.00645299 -0.00178536,0.00632318 -0.00232102,0.00614678 -0.00283959,0.0059251 -4.44089e-15,7.99361e-15 -5.32907e-15,1.15463e-14 -0.107135,0.20982 -0.139933,0 z M 5.44885,2.33672 l 0.0144654,-0.0339467 0.0158799,-0.0483728 0.0116851,-0.0495536 0.00740464,-0.0503713 0.00306994,-0.05082 -0.00128725,-0.0508964 -0.00563501,-0.0505999 -0.0104323,-0.0519642 -0.0150005,-0.050834 -0.0194504,-0.0493031 -0.023747,-0.0473835 -0.0278563,-0.0450903 -0.0317461,-0.0424417 -0.0353855,-0.0394585 -0.0387461,-0.0361643 -0.0418011,-0.0325849 -0.0445267,-0.0287487 -0.0469012,-0.0246858 -0.048906,-0.0204283 -0.0505252,-0.0160098 -0.0517462,-0.011465 -0.0525591,-0.0068299 -0.0529578,-0.00214093 -0.0529389,0.00256491 -0.0529461,0.00733858 -0.0520745,0.0120578 -0.00748475,0.00245838 0,-0.162072 0.00537543,-0.00144504 0.0663052,-0.0116616 0.0670765,-0.00575436 0.0673226,0.000197906 0.0670415,0.00614862 0.0662355,0.0120512 0.0649108,0.0178594 0.0630778,0.0235278 0.060751,0.0290119 5.15143e-14,2.84217e-14 0.0573922,0.033954 0.0541518,0.0389143 0.0504838,0.0435675 0.0464173,0.0478767 0.0419844,0.0518079 0.0372199,0.0553301 0.0321617,0.0584155 0.0268495,0.0610397 0.0213254,0.063182 0.0156329,0.0648256 0.00981704,0.0659573 0.00392365,0.0665684 -0.00200073,0.0666539 -0.00790931,0.0662132 -0.0137554,0.0652497 -0.0178067,0.0582544 -0.171835,0 z "/>
<path fill="rgb(241,240,234)" stroke="rgb(241,240,234)" d="M 3.03441,2.33672 l 0.169899,0 -0.00622061,0.0191868 -0.0249853,0.0593332 -0.0299349,0.0569964 -0.0346681,0.0542477 -0.0391507,0.0511069 -0.0433503,0.0475966 -0.0472366,0.0437424 -0.0507815,0.0395719 -0.0539592,0.0351154 -0.056747,0.0304051 0.0787894,0.230713 0.603475,-0.668015 0.211163,0 -0.747113,0.831227 0.77311,0 0,0.1519 -0.728094,0 0.00633326,0.0168731 -0.166524,0 -0.111715,-0.318856 0,-0.465878 0.024318,0.0700904 0.0447794,-0.0250559 0.0424498,-0.0288271 0.0398035,-0.0323832 0.0368601,-0.0356977 0.0336417,-0.0387457 0.0301722,-0.0415046 0.0264775,-0.0439538 0.0192095,-0.0391883 z "/>
<path fill="rgb(241,240,234)" stroke="rgb(241,240,234)" d="M 2.7367,1.37844 l 0.0268065,0.00902906 0.0609845,0.0267455 0.0583847,0.0320257 0.0553289,0.0370558 0.0518409,0.0417965 0.0479479,0.0462106 0.0436804,0.0502638 0.0390716,0.0539243 0.0341577,0.0571636 0.0281118,0.0579173 0.0230906,0.0600959 0.0179025,0.06184 0.012585,0.0631372 0.00717646,0.063978 0.00171609,0.0643564 -0.00375667,0.0642696 -0.00920229,0.0637182 -0.0145814,0.0627062 -0.0136345,0.0420542 -0.169899,0 0.00337572,-0.00688664 0.0185244,-0.0478523 0.0143254,-0.0492725 0.0100194,-0.050325 0.00563867,-0.0510019 0.00121587,-0.0512983 -0.00321601,-0.0512118 -0.00762389,-0.0507432 -0.0119749,-0.0498958 -0.0162365,-0.0486762 -0.020377,-0.0470932 -0.0243653,-0.0451589 -0.0281719,-0.0428875 -0.0317682,-0.0402961 -0.0351275,-0.0374039 -0.0382246,-0.0342326 -0.0414379,-0.0310954 -0.0439771,-0.0273869 -0.0461853,-0.0234723 -0.00212508,-0.000857227 0,-0.171241 z M 3.7107,2.33672 l -0.211163,0 0.237159,-0.262523 0,0.2336 -0.0259966,0.0289234 z "/>
<path fill="rgb(241,240,234)" stroke="rgb(241,240,234)" d="M 5.32607,4.91686 l 0.0135721,-0.0160762 0.0238748,-0.033812 0.0208706,-0.0357446 0.0177109,-0.037411 0.0144194,-0.0387987 0.0110204,-0.0398975 0.00753938,-0.0406991 0.0040022,-0.0411976 0.000404896,-0.0420576 -0.00329731,-0.0419301 -0.00697395,-0.0414774 -0.0105965,-0.0407029 -0.0141368,-0.0396126 -0.0175675,-0.0382151 -0.0208619,-0.0365211 -0.0239945,-0.0345438 -0.0269409,-0.0322986 -0.0296783,-0.0298028 -0.0321856,-0.0270758 -0.0344431,-0.0241388 -0.0364335,-0.0210145 -0.0381412,-0.0177272 -0.0395531,-0.0143024 -0.0406582,-0.0107667 -0.0414478,-0.00714743 -0.041916,-0.00347272 -0.042059,0.000228923 -0.0418757,0.00392879 -0.0413676,0.00759818 -0.0405386,0.0112086 -0.0393951,0.0147321 -0.037946,0.0181414 -0.0294325,0.0174061 0,-0.239043 0.000915451,-0.000404432 0.0578493,-0.0196707 0.0593576,-0.0144966 0.0604041,-0.00920975 0.0609807,-0.00385124 0.0610829,0.00153723 0.0607098,0.00691374 0.0598644,0.0122365 0.0585533,0.017464 0.0567866,0.0225556 0.0545782,0.0274718 0.0519451,0.0321743 0.0489079,0.0366264 0.0454902,0.0407936 0.0417186,0.0446434 0.0376225,0.0481459 0.0332336,0.0512738 0.0285862,0.0540029 0.0237164,0.0563118 0.018662,0.0581825 0.0134625,0.0596007 0.00815827,0.0605551 0.00279055,0.0610384 4.73112e-07,0.000361633 2.83867e-07,0.000361633 9.46224e-08,0.000361633 -0.00265187,0.0604826 -0.00793527,0.0600184 -0.0131578,0.0590936 -0.0182793,0.0577152 -0.0232605,0.0558939 -0.00735498,0.0140592 -0.254712,0 z M 4.70804,4.72107 l 0,-0.208228 0.286989,0 0.00907411,0.000396184 0.00900505,0.00118554 0.00886746,0.00196587 0.00866238,0.00273124 0.00839137,0.00347582 0.0080565,0.00419395 0.00766032,0.00488016 0.00720584,0.00552923 0.00669651,0.00613622 0.00613622,0.00669651 0.00552923,0.00720584 0.00488016,0.00766032 0.00419395,0.0080565 0.00347582,0.00839137 0.00273124,0.00866238 0.00196587,0.00886746 0.00118554,0.00900505 0.000396184,0.00907411 -0.000396184,0.00907411 -0.00118554,0.00900505 -0.00196587,0.00886746 -0.00273124,0.00866238 -0.00347582,0.00839137 -0.00419395,0.0080565 -0.00488016,0.00766032 -0.00552923,0.00720584 -0.00613622,0.00669651 -0.00669651,0.00613622 -0.00720584,0.00552923 -0.00766032,0.00488016 -0.0080565,0.00419395 -0.00839137,0.00347582 -0.00866238,0.00273124 -0.00886746,0.00196587 -0.00900505,0.00118554 -0.00907411,0.000396184 -0.286989,0 z "/>
<path fill="rgb(241,240,234)" stroke="rgb(241,240,234)" d="M 5.32607,4.91686 l 0.254712,0 -0.0207082,0.0395843 -0.0326505,0.0509816 -0.0369872,0.0479283 -0.0410401,0.0445072 -0.044778,0.0407444 -0.0481722,0.036669 -0.0511967,0.0323122 -0.0538283,0.0277073 -0.0560467,0.0228898 -0.057835,0.0178967 -0.0591794,0.0127661 -0.0600696,0.00753763 -0.0604988,0.00225128 -0.0604637,-0.00305236 -0.0599645,-0.00833256 -0.0590051,-0.0135488 -0.0575929,-0.0186611 -0.0127206,-0.00539283 0,-0.236175 0.0355709,0.0199711 0.0377049,0.0170764 0.0390368,0.0137618 0.040078,0.0103448 0.0408206,0.00685073 0.0412593,0.00330563 0.0413907,-0.000264082 0.0412138,-0.00383183 0.0407299,-0.00737104 0.0399427,-0.0108553 0.038858,-0.0142588 0.0374839,-0.0175561 0.0358306,-0.0207226 0.0339105,-0.0237348 0.0317378,-0.0265701 0.0293287,-0.0292077 0.0131291,-0.0155515 z "/>
<path fill="rgb(241,240,234)" stroke="rgb(241,240,234)" d="M 1.78338,4.91686 l 0.249325,0 0.0248536,0.0289319 0.0297612,0.0290852 0.0321804,0.0263838 0.0343551,0.0234821 0.036269,0.020402 0.0379074,0.017167 0.039258,0.0138017 0.0403105,0.0103316 0.0410569,0.00678299 0.0414916,0.00318289 0.0416111,-0.000441373 0.0414147,-0.00406229 0.0409038,-0.00765236 0.000506449,-0.000118086 0.00050632,-0.000118638 0.00050619,-0.000119189 -0.0769197,-0.167039 0.229244,0 0.0368131,0.0799437 0.00330785,-0.00286512 0,0.544057 -0.115848,-0.259831 -0.129415,0.0224851 0,0.168844 -0.0771618,-0.000543066 -0.0768363,-0.00710112 -0.0759544,-0.0136078 -0.0745225,-0.0200159 -0.072551,-0.026279 0.0731338,-0.157579 -0.0547484,-0.0219306 -0.0526208,-0.0266343 -0.05009,-0.0311339 -0.0471755,-0.035395 -0.0438995,-0.0393849 -0.0402871,-0.043073 -0.0363661,-0.0464311 -0.0321664,-0.0494334 -0.0181542,-0.0340925 z "/>
<path fill="rgb(241,240,234)" stroke="rgb(241,240,234)" d="M 2.70804,3.99114 l 0.0242436,0.0113891 0.0520676,0.0302219 0.049254,0.0346185 0.0460701,0.0387548 0.0425399,0.0425999 0.0386899,0.0461246 0.0345491,0.0493027 0.0301485,0.0521101 0.0255213,0.0545257 0.0207023,0.0565315 0.0157276,0.0581123 0.0106347,0.0592562 0.00546179,0.0599547 0.000247864,0.0602024 -0.00496793,0.0599976 -0.0101464,0.0593418 -0.0152485,0.0582398 -0.0202361,0.0567 -0.0172824,0.0377294 -0.252278,0 0.00728046,-0.00892361 0.0233035,-0.0342083 0.0202672,-0.0360901 0.01708,-0.0377032 0.0137656,-0.0390354 0.0103487,-0.0400769 0.00685471,-0.04082 0.00330966,-0.041259 -0.000260041,-0.0413907 -0.00382781,-0.0412141 -0.00736706,-0.0407306 -0.0108515,-0.0399438 -0.014255,-0.0388594 -0.0175524,-0.0374856 -0.0207191,-0.0358326 -0.0237314,-0.0339128 -0.026567,-0.0317403 -0.0292048,-0.0293315 -0.0235725,-0.0199047 0,-0.25725 z M 3.70804,4.51284 l 0,0.21485 -0.0090478,0.00297842 -0.0122497,0.00530773 -0.0117176,0.00639733 -0.0110888,0.00743414 -0.0103685,0.00840963 -0.00956264,0.00931574 -0.00867791,0.010145 -0.0077216,0.0108905 -0.0824655,0.128284 -0.242596,0 0.195646,-0.319613 0.00851991,-0.0124867 0.00954368,-0.0117229 0.0104993,-0.0108753 0.01138,-0.00995007 0.0121794,-0.0089538 0.0128918,-0.0078936 0.0135122,-0.00677704 0.0140361,-0.00561209 0.0144598,-0.00440707 0.0147802,-0.00317057 0.0149951,-0.00191145 0.015103,-0.000638669 0.0579493,0 z "/>
<path fill="rgb(241,240,234)" stroke="rgb(241,240,234)" d="M 3.75125,4.72107 l 0.529117,7.16596e-08 -0.528972,0 -4.83659e-05,-3.98021e-08 -4.83659e-05,-2.38865e-08 -4.83659e-05,-7.97101e-09 z "/>
<path fill="rgb(241,240,234)" stroke="rgb(241,240,234)" d="M 2.03271,4.91686 l -0.249325,0 -0.00956601,-0.0179644 -0.0230617,-0.0542816 -0.0182264,-0.0560904 -0.0132515,-0.0574694 -0.00817508,-0.0584081 -0.00303601,-0.0588992 0.00212633,-0.0589391 0.00727238,-0.0585273 0.0123627,-0.0576671 0.0173583,-0.0563651 0.0222209,-0.0546312 0.0269132,-0.0524787 0.0313994,-0.0499241 0.0356449,-0.046987 0.0396173,-0.0436898 0.0432862,-0.0400579 0.0466234,-0.0361191 0.0496034,-0.0319035 0.0522033,-0.0274435 1.46549e-14,-7.99361e-15 0.0547693,-0.0249944 0.0567285,-0.0201562 0.0582612,-0.0151665 0.059356,-0.0100628 0.0600045,-0.00488346 0.060202,0.000332612 0.0599469,0.00554619 0.0592412,0.0107181 0.0580901,0.0158094 0.0565023,0.0207818 0.0302461,0.014209 0,0.25725 -0.00805251,-0.00679956 -0.0338097,-0.0238781 -0.0357426,-0.020874 -0.0374093,-0.0177146 -0.0387973,-0.0144231 -0.0398964,-0.0110243 -0.0406983,-0.00754335 -0.0411972,-0.00400622 -0.0413892,-0.000439255 -0.0412729,0.00313098 -0.0408493,0.0066779 -0.0401214,0.0101751 -0.0390947,0.0135965 -0.00421248,0.00169532 -0.00419617,0.0017353 -0.00417948,0.00177512 -0.0374712,0.0180994 -0.0357532,0.0212929 -0.0337638,0.0243247 -0.0315179,0.0271717 -0.0290327,0.0298124 -0.0263271,0.0322268 -0.0234215,0.0343964 -0.0203381,0.0363049 -0.0171002,0.0379376 -0.0137325,0.0392823 -0.0102605,0.0403287 -0.00671064,0.0410688 -0.00310978,0.0414971 0.000514693,0.0416103 0.00413526,0.0414075 0.00772442,0.0408903 0.0112549,0.0400625 0.0147,0.0389306 0.0180334,0.037503 0.0212299,0.0357907 0.0242651,0.0338066 0.00226252,0.00263379 z M 2.66792,4.91686 l -0.229244,0 -0.132573,-0.287898 -0.00343558,-0.00840793 -0.00268971,-0.00867536 -0.00192336,-0.00887678 -0.00114238,-0.00901063 -0.000352709,-0.00907591 0.000439651,-0.00907211 0.00122866,-0.00899927 0.00200833,-0.00885794 0.0027727,-0.0086492 0.00351598,-0.00837463 0.0042325,-0.00803632 0.0049168,-0.00763685 0.00556369,-0.00717926 0.00616823,-0.00666704 0.00672583,-0.00610407 0.00723224,-0.00549465 0.00768361,-0.00484341 0.0080765,-0.00415531 0.00840793,-0.00343558 0.00867536,-0.00268971 0.00887678,-0.00192337 0.00901063,-0.00114238 0.00907591,-0.000352709 0.00907211,0.00043965 0.00899927,0.00122866 0.00885794,0.00200833 0.0086492,0.0027727 0.00837463,0.00351598 0.00803632,0.0042325 0.00763685,0.0049168 0.00717926,0.00556369 0.00666704,0.00616823 0.00610407,0.00672583 0.00549465,0.00723224 0.00484341,0.00768361 0.00415531,0.0080765 0.17268,0.374993 z "/>
<path fill="rgb(241,240,234)" stroke="rgb(241,240,234)" d="M 3.03602,4.91686 l -0.00778913,0.0170046 -0.0297184,0.0523565 -0.034142,0.0495855 -0.0383088,0.0464416 -0.0421877,0.0429487 -0.0457494,0.0391329 -0.0489673,0.0350229 0.140681,0.326377 0.37271,-0.60887 0.242596,0 -0.0188319,0.029295 0.174431,0.377026 0.00318315,0.00791849 0.00246722,0.00816993 0.00165025,0.0079633 0,0.0308817 -0.000530268,0.0034751 -0.00203165,0.00828899 -0.00275987,0.00807577 -0.00346628,0.00779871 -0.00414528,0.00746 -0.181911,0.295605 -6.21725e-15,5.32907e-15 -0.00480204,0.00677816 -0.00539748,0.00631429 -0.00594836,0.00579829 -0.00645012,0.00523441 -0.00689863,0.00462731 -0.00729018,0.00398201 -0.00762154,0.00330382 -0.00788997,0.00259837 -0.00809325,0.00187145 -0.00822972,0.00112909 -0.00829823,0.000377401 -0.399534,0 0.0711591,0.166027 -0.230942,0 -0.16892,-0.378864 0,-0.544057 0.0279791,-0.0242344 0.0288339,-0.0296962 0.0188857,-0.023148 0.252278,0 z "/>
<path fill="rgb(241,240,234)" stroke="rgb(241,240,234)" d="M 3.1079,5.91686 l 0.0301383,0.0703182 0.00469904,0.0116912 0.00570887,0.0112327 0.00667448,0.0106872 0.00758838,0.0100589 0.00844349,0.00935265 0.00923319,0.00857396 0.00995136,0.00772885 0.0105924,0.00682386 0.0111514,0.00586601 0.0116241,0.00486271 0.0120066,0.00382174 0.0122962,0.00275116 0.0124905,0.00165927 0.012588,0.000554522 0.21947,0 0,0.213837 -0.275752,0 -0.0203535,0.00097403 -0.0203597,-0.000835446 -0.0202053,-0.00263833 -0.0198916,-0.00442042 -0.019421,-0.00616764 -0.0187973,-0.00786623 -0.0180253,-0.00950279 -0.0171112,-0.0110644 -0.0160622,-0.0125388 -0.0148865,-0.0139143 -0.0135934,-0.0151801 -0.0121931,-0.0163261 -0.0106967,-0.0173434 -0.00911592,-0.018224 -0.109134,-0.244772 0.230942,0 z "/>
<path fill="rgb(241,240,234)" stroke="rgb(241,240,234)" d="M 4.59419,4.91686 l -0.250091,0 -0.0113294,-0.022373 -0.0225182,-0.0561971 -0.0175133,-0.0579522 -0.0123739,-0.0592627 -0.529117,-7.16596e-08 -4.0229e-08,-5.32907e-15 -0.0133364,0.000606298 -0.0132264,0.00181389 -0.0130072,0.00300652 -0.00363296,0.00119592 0,-0.21485 0.566687,0 0.0111939,-0.0600681 0.0164434,-0.058848 0.021565,-0.0571702 0.0265189,-0.0550475 0.0312664,-0.0524966 0.0357706,-0.0495373 0.0399966,-0.0461925 0.0439114,-0.0424884 0.0474846,-0.0384538 0.0506883,-0.0341199 0.0534978,-0.0295207 0.0549755,-0.0242873 0,0.239043 -0.0067701,0.00400377 -0.0341783,0.0245123 -0.0318889,0.0274245 -0.0293522,0.0301241 -0.0265877,0.0325899 -0.023617,0.034803 -0.0204631,0.036746 -0.0171505,0.038404 -0.0137048,0.0397642 -0.0101528,0.0408158 0.213865,0 0,0.208228 -0.213865,0 0.0115286,0.0397536 0.0149132,0.0386116 0.0181868,0.0371819 0.021325,0.0354754 0.0243043,0.0335046 0.00975295,0.0112578 z "/>
<path fill="rgb(241,240,234)" stroke="rgb(241,240,234)" d="M 4.3441,4.91686 l 0.250091,0 0.0173496,0.0200266 0.029699,0.028831 0.0320742,0.026163 0.0342106,0.0233001 0.000521186,0.000292617 0,0.236175 -0.043018,-0.0182373 -0.0534566,-0.0284178 -0.0507642,-0.0329874 -0.0476823,-0.0373038 -0.0442344,-0.0413339 -0.040447,-0.0450468 -0.0363492,-0.048414 -0.0319724,-0.0514095 -0.0160209,-0.0316376 z M 3.70804,5.37811 l 0,-0.0308817 8.15415e-05,0.00039348 0.000982669,0.00847758 0.000225778,0.00853135 -0.000532897,0.00851768 -0.000757092,0.00496159 z "/>
<path fill="rgb(241,240,234)" stroke="rgb(241,240,234)" d="M 4.91622,5.46949 l 0.551503,0 0,0.281338 -1.19862,0 -0.00714403,-0.000314959 -0.0070886,-0.000942435 -0.00697816,-0.0015626 -0.00681357,-0.00217063 -0.00659611,-0.00276183 -0.00632747,-0.00333159 -0.00600973,-0.0038755 -0.00564536,-0.00438934 -0.00523718,-0.00486912 -0.00478837,-0.00531112 -0.00430239,-0.0057119 -0.00378304,-0.00606837 -0.00323432,-0.00637774 -0.00266051,-0.00663763 -0.00206606,-0.00684601 -0.00145558,-0.00700127 -0.000833795,-0.0071022 -0.000205545,-0.00714802 0.000424301,-0.00713837 0.00105085,-0.00707334 0.00166925,-0.00695342 0.0022747,-0.00677954 0.143298,-0.306065 0.00318951,-0.00583646 0.00367967,-0.0055405 0.00414257,-0.00520349 0.00457476,-0.00482792 0.00497305,-0.00441656 0.00533448,-0.00397247 0.00565638,-0.00349894 0.00593635,-0.00299948 0.00617234,-0.0024778 0.00636257,-0.00193774 0.00650566,-0.00138333 0.00660053,-0.000818665 0.00664648,-0.000247933 0.00664318,0.000324637 0.00659064,0.0008948 0.00648926,0.00145833 0.00633978,0.00201106 0.00614332,0.00254888 0.00590133,0.00306781 0.00561561,0.003564 0.00528827,0.00403378 1.24345e-14,7.99361e-15 0.0696741,0.0437954 0.0733475,0.0373184 0.0764204,0.0305359 0.0788677,0.0235034 0.0806693,0.0162784 0.0818104,0.00892019 z "/>
<path fill="rgb(0,91,140)" stroke="rgb(0,91,140)" d="M 2.6147,2.67273 l -0.196962,-0.55709 -0.0020292,-0.00665437 -0.0014385,-0.00680654 -0.00083674,-0.00690638 -0.00022855,-0.00695313 0.000381397,-0.00694642 0.000988411,-0.00688631 0.00158783,-0.00677326 0.00217504,-0.00660814 0.00274552,-0.00639221 0.0032949,-0.00612714 0.00381895,-0.00581497 0.00431364,-0.00545809 0.00477517,-0.00505925 0.00519999,-0.00462152 0.00558483,-0.00414825 0.00592673,-0.0036431 0.00622307,-0.00310994 0.00647157,-0.00255286 0.00667031,-0.00197617 0.00681778,-0.00138427 0.00691283,-0.000781742 0.00695473,-0.000173199 0.00694317,0.000436675 0.00687823,0.00104319 0.00676041,0.00164169 0.00659062,0.00222756 0.00637016,0.00279632 0.00610072,0.00334357 0.00578439,0.00386512 0.00542358,0.00435695 0.00502108,0.00481529 0.00457998,0.00523661 0.00410367,0.00561767 0.00359581,0.00595554 0.0030603,0.00624763 0.00250127,0.00649168 0.00192301,0.00668583 0.191329,0.551457 0.0447794,-0.0250559 0.0424498,-0.0288271 0.0398035,-0.0323832 0.0368601,-0.0356977 0.0336417,-0.0387457 0.0301722,-0.0415046 0.0264775,-0.0439538 0.0225852,-0.0460749 0.0185244,-0.0478523 0.0143254,-0.0492725 0.0100194,-0.050325 0.00563867,-0.0510019 0.00121587,-0.0512983 -0.00321601,-0.0512118 -0.00762389,-0.0507432 -0.0119749,-0.0498958 -0.0162365,-0.0486762 -0.020377,-0.0470932 -0.0243653,-0.0451589 -0.0281719,-0.0428875 -0.0317682,-0.0402961 -0.0351275,-0.0374039 -0.0382246,-0.0342326 -0.0414379,-0.0310954 -0.0439771,-0.0273869 -0.0461853,-0.0234723 -0.0480458,-0.019381 -0.0495448,-0.0151439 -0.0506709,-0.0107928 -0.0514157,-0.00636041 -0.0517735,-0.0018802 -0.0517416,0.00261417 -0.0513203,0.00708886 -0.0505128,0.0115102 -0.0493251,0.0158449 -0.0477662,0.0200604 -0.0458478,0.0241248 -0.0435843,0.0280078 -0.0409928,0.0316799 -0.0380928,0.0351136 -0.0349061,0.038283 -0.0314567,0.0411643 -0.0277706,0.0437358 -0.0238754,0.0459782 -0.0198006,0.0478745 -0.0155767,0.0494105 -0.0112356,0.0505746 -0.00680994,0.0513581 -0.00233303,0.051755 0,9.59233e-14 0,1.59872e-14 0.00206704,0.0504417 0.00635332,0.0500827 0.0105935,0.0493601 0.0147567,0.0482792 0.0188129,0.0468478 0.0227324,0.0450763 0.026487,0.0429776 0.0300493,0.040567 0.0333934,0.0378618 0.0364952,0.0348818 0.039332,0.0316486 0.0418832,0.0281857 0.0441305,0.0245181 0.0460574,0.0206726 0.0476499,0.016677 0.0488966,0.0125603 0.0497883,0.00835244 0.0503186,0.00408396 0.0504836,-0.000214167 0.0502821,-0.00451074 0.0497156,-0.00877456 z "/>
<path fill="rgb(0,91,140)" stroke="rgb(0,91,140)" d="M 2.96359,3.16795 l 1.27739,0 -0.427675,-0.945381 -0.849717,0.945381 z "/>
<path fill="rgb(0,91,140)" stroke="rgb(0,91,140)" d="M 4.34791,3.02164 l 0.1519,-0.292627 -0.0513269,-0.0345968 -0.048257,-0.0387641 -0.0448497,-0.0426603 -0.0411287,-0.0462582 -0.0371202,-0.0495327 -0.0328521,-0.0524608 -0.0283543,-0.0550221 -0.0236583,-0.0571986 -0.0187968,-0.0589752 -0.0138039,-0.0603394 -0.00871444,-0.0612818 -0.191329,0 0.388291,0.849717 z "/>
<path fill="rgb(0,91,140)" stroke="rgb(0,91,140)" d="M 4.57299,2.5827 l 0.213814,-0.410777 -0.472691,0 0.00892466,0.0492343 0.0130779,0.0482974 0.0171364,0.0470107 0.0210708,0.0453838 0.0248527,0.0434282 0.0284547,0.0411582 0.0318506,0.0385902 0.0350159,0.0357428 0.0379277,0.0326367 0.0405649,0.0292942 z "/>
<path fill="rgb(0,91,140)" stroke="rgb(0,91,140)" d="M 5.49443,2.00216 l -0.0104323,-0.0519642 -0.0150005,-0.050834 -0.0194504,-0.0493031 -0.023747,-0.0473835 -0.0278563,-0.0450903 -0.0317461,-0.0424417 -0.0353855,-0.0394585 -0.0387461,-0.0361643 -0.0418011,-0.0325849 -0.0445267,-0.0287487 -0.0469012,-0.0246858 -0.048906,-0.0204283 -0.0505252,-0.0160098 -0.0517462,-0.011465 -0.0525591,-0.0068299 -0.0529578,-0.00214093 -0.0529389,0.00256491 -0.0529461,0.00733858 -0.0520745,0.0120578 -0.0507832,0.0166798 -0.0490824,0.0211674 -0.0469861,0.0254844 -0.044511,0.0295959 -0.0416771,0.0334688 -0.0385073,0.037072 -0.035027,0.0403764 -0.0312645,0.0433553 -0.0272499,0.0459847 -0.0230156,0.0482434 -0.0185958,0.0501133 -0.0140262,0.0515792 -0.00934345,0.0526293 0.602106,0 0.00656434,0.00028198 0.00651598,0.000843861 0.00641961,0.00139953 0.00627595,0.00194488 0.00608605,0.0024759 0.00585131,0.00298869 0.00557346,0.00347945 0.00525455,0.00394459 0.00489693,0.00438066 0.00450323,0.00478445 0.00407636,0.005153 0.00361945,0.00548358 0.00313588,0.00577376 0.0026292,0.00602141 0.00210315,0.0062247 0.00156161,0.00638212 0.00100856,0.00649252 0.000448086,0.0065551 -0.000115692,0.00656938 -0.000678618,0.00653525 -0.00123654,0.00645299 -0.00178536,0.00632318 -0.00232102,0.00614678 -0.00283959,0.0059251 -4.44089e-15,7.99361e-15 -5.32907e-15,1.15463e-14 -0.270096,0.528972 0.0488218,0.0144404 0.0498779,0.0102125 0.0505685,0.00590969 0.0508886,0.0015636 0.0508359,-0.00279394 0.0504108,-0.00713101 0.0496163,-0.0114158 0.0484583,-0.015617 0.0469453,-0.0197038 0.0450883,-0.0236462 0.042901,-0.0274154 0.0403994,-0.0309837 0.0376018,-0.034325 0.0345287,-0.0374148 0.0312026,-0.0402305 0.0276479,-0.0427515 0.0238907,-0.0449592 0.0199584,-0.0468376 0.0158799,-0.0483728 0.0116851,-0.0495536 0.00740464,-0.0503713 0.00306994,-0.05082 -0.00128725,-0.0508964 -0.00563501,-0.0505999 z "/>
<path fill="rgb(0,91,140)" stroke="rgb(0,91,140)" d="M 1.06776,6.07553 l -0.151112,0.131016 -0.207757,-0.262428 -0.18353,-0.279907 -0.15784,-0.295157 -0.130893,-0.308056 -0.102903,-0.3185 -0.0740935,-0.326407 -0.0446935,-0.331713 -0.0149375,-0.334377 0.0142699,-0.326834 0.042701,-0.324347 0.0708072,-0.319391 0.0983745,-0.312004 0.125193,-0.302243 0.151059,-0.290182 0.175775,-0.275912 0.199154,-0.259542 0.221016,-0.241197 0.241197,-0.221016 0.259542,-0.199154 0.275912,-0.175775 0.290182,-0.151059 0.302243,-0.125193 0.312004,-0.0983745 0.319391,-0.0708072 0.324347,-0.042701 0.326834,-0.0142699 0,0.2 -0.309403,0.0135088 -0.307048,0.0404237 -0.302357,0.0670308 -0.295364,0.0931279 -0.286123,0.118516 -0.274705,0.143002 -0.261196,0.1664 -0.2457,0.188532 -0.228333,0.209229 -0.209229,0.228333 -0.188532,0.2457 -0.1664,0.261196 -0.143002,0.274705 -0.118516,0.286123 -0.0931279,0.295364 -0.0670308,0.302357 -0.0404237,0.307048 -0.0135088,0.309403 0.0141408,0.316544 0.0423099,0.314022 0.0701418,0.308999 0.097415,0.301513 0.123912,0.291626 0.149422,0.279416 0.173742,0.264979 0.196677,0.248431 z "/>
<path fill="rgb(0,91,140)" stroke="rgb(0,91,140)" d="M 7.5,3.75 l -0.0128574,0.310266 -0.0384839,0.308138 -0.0638466,0.303898 -0.0887715,0.297573 -0.189122,-0.06506 0.084037,-0.281703 0.0604415,-0.28769 0.0364315,-0.291704 0.0121716,-0.293718 -0.0135088,-0.309403 -0.0404237,-0.307048 -0.0670308,-0.302357 -0.0931279,-0.295364 -0.118516,-0.286123 -0.143002,-0.274705 -0.1664,-0.261196 -0.188532,-0.2457 -0.209229,-0.228333 -0.228333,-0.209229 -0.2457,-0.188532 -0.261196,-0.1664 -0.274705,-0.143002 -0.286123,-0.118516 -0.295364,-0.0931279 -0.302357,-0.0670308 -0.307048,-0.0404237 -0.309403,-0.0135088 0,-0.2 0.326834,0.0142699 0.324347,0.042701 0.319391,0.0708072 0.312004,0.0983745 0.302243,0.125193 0.290182,0.151059 0.275912,0.175775 0.259542,0.199154 0.241197,0.221016 0.221016,0.241197 0.199154,0.259542 0.175775,0.275912 0.151059,0.290182 0.125193,0.302243 0.0983745,0.312004 0.0708072,0.319391 0.042701,0.324347 0.0142699,0.326834 z "/>
<path fill="rgb(0,91,140)" stroke="rgb(0,91,140)" d="M 1.06776,6.07553 l 0.213058,0.225086 0.231878,0.205645 0.248931,0.184636 0.264087,0.162221 0.27723,0.138568 0.288259,0.11386 0.297092,0.0882837 0.30366,0.0620345 0.307913,0.0353125 0.30982,0.00832127 0.309365,-0.0187333 0.306552,-0.0456452 0.301402,-0.0722091 0.293955,-0.0982226 0.284268,-0.123487 0.272414,-0.147811 0.258483,-0.171008 0.242583,-0.192902 0.224833,-0.213325 0.20537,-0.232122 0.184341,-0.24915 0.161907,-0.264279 0.138239,-0.277394 0.113518,-0.288394 0.189122,0.06506 -0.119913,0.304642 -0.146028,0.293022 -0.171029,0.279168 -0.194726,0.263187 -0.21694,0.245199 -0.2375,0.225343 -0.256249,0.203769 -0.273046,0.180642 -0.287761,0.156138 -0.300283,0.130445 -0.310516,0.103756 -0.318383,0.0762772 -0.323822,0.0482167 -0.326794,0.0197887 -0.327274,-0.00879008 -0.32526,-0.0373019 -0.320767,-0.0655294 -0.313829,-0.0932574 -0.304499,-0.120275 -0.292848,-0.146375 -0.278965,-0.17136 -0.262956,-0.195039 -0.244942,-0.217231 -0.225061,-0.237767 0.151112,-0.131016 z "/>
<path fill="rgb(241,240,234)" stroke="rgb(241,240,234)" d="M 7.10692,4.90482 l -0.189122,-0.06506 0.0793025,-0.265832 0.0570363,-0.271482 0.034379,-0.27527 0.0114859,-0.277171 -0.0127478,-0.291972 -0.0381463,-0.28975 -0.0632545,-0.285322 -0.0878812,-0.278724 -0.111839,-0.270004 -0.134946,-0.259229 -0.157026,-0.246481 -0.17791,-0.231857 -0.197441,-0.215469 -0.215469,-0.197441 -0.231857,-0.17791 -0.246481,-0.157026 -0.259229,-0.134946 -0.270004,-0.111839 -0.278724,-0.0878812 -0.285322,-0.0632545 -0.28975,-0.0381463 -0.291972,-0.0127478 0,-0.2 0.309403,0.0135088 0.307048,0.0404237 0.302357,0.0670308 0.295364,0.0931279 0.286123,0.118516 0.274705,0.143002 0.261196,0.1664 0.2457,0.188532 0.228333,0.209229 0.209229,0.228333 0.188532,0.2457 0.1664,0.261196 0.143002,0.274705 0.118516,0.286123 0.0931279,0.295364 0.0670308,0.302357 0.0404237,0.307048 0.0135088,0.309403 -0.0121716,0.293718 -0.0364315,0.291704 -0.0604415,0.28769 -0.084037,0.281703 z "/>
<path fill="rgb(241,240,234)" stroke="rgb(241,240,234)" d="M 1.06776,6.07553 l -0.196677,-0.248431 -0.173742,-0.264979 -0.149422,-0.279416 -0.123912,-0.291626 -0.097415,-0.301513 -0.0701418,-0.308999 -0.0423099,-0.314022 -0.0141408,-0.316544 0.0135088,-0.309403 0.0404237,-0.307048 0.0670308,-0.302357 0.0931279,-0.295364 0.118516,-0.286123 0.143002,-0.274705 0.1664,-0.261196 0.188532,-0.2457 0.209229,-0.228333 0.228333,-0.209229 0.2457,-0.188532 0.261196,-0.1664 0.274705,-0.143002 0.286123,-0.118516 0.295364,-0.0931279 0.302357,-0.0670308 0.307048,-0.0404237 0.309403,-0.0135088 0,0.2 -0.291972,0.0127478 -0.28975,0.0381463 -0.285322,0.0632545 -0.278724,0.0878812 -0.270004,0.111839 -0.259229,0.134946 -0.246481,0.157026 -0.231857,0.17791 -0.215469,0.197441 -0.197441,0.215469 -0.17791,0.231857 -0.157026,0.246481 -0.134946,0.259229 -0.111839,0.270004 -0.0878812,0.278724 -0.0632545,0.285322 -0.0381463,0.28975 -0.0127478,0.291972 0.0133442,0.29871 0.0399262,0.296331 0.0661902,0.29159 0.0919268,0.284527 0.116931,0.275196 0.141004,0.263674 0.163953,0.250051 0.185597,0.234435 -0.151112,0.131016 z "/>
<path fill="rgb(241,240,234)" stroke="rgb(241,240,234)" d="M 1.06776,6.07553 l 0.151112,-0.131016 0.201055,0.212405 0.218815,0.194059 0.234907,0.174234 0.249209,0.153081 0.261611,0.130762 0.272019,0.107445 0.280354,0.08331 0.286552,0.0585396 0.290566,0.033323 0.292365,0.00785247 0.291936,-0.0176779 0.289281,-0.0430736 0.284422,-0.068141 0.277395,-0.0926889 0.268253,-0.11653 0.257067,-0.139484 0.243921,-0.161374 0.228916,-0.182034 0.212166,-0.201307 0.1938,-0.219045 0.173956,-0.235114 0.152786,-0.24939 0.130451,-0.261766 0.107123,-0.272146 0.189122,0.06506 -0.113518,0.288394 -0.138239,0.277394 -0.161907,0.264279 -0.184341,0.24915 -0.20537,0.232122 -0.224833,0.213325 -0.242583,0.192902 -0.258483,0.171008 -0.272414,0.147811 -0.284268,0.123487 -0.293955,0.0982226 -0.301402,0.0722091 -0.306552,0.0456452 -0.309365,0.0187333 -0.30982,-0.00832127 -0.307913,-0.0353125 -0.30366,-0.0620345 -0.297092,-0.0882837 -0.288259,-0.11386 -0.27723,-0.138568 -0.264087,-0.162221 -0.248931,-0.184636 -0.231878,-0.205645 -0.213058,-0.225086 z "/>
</g></g></svg>
