<?xml version="1.0" encoding="UTF-8" standalone="no"?>
<!DOCTYPE svg PUBLIC "-//W3C//DTD SVG 1.1//EN" "http://www.w3.org/Graphics/SVG/1.1/DTD/svg11-flat.dtd"
[

]>
<svg xmlns="http://www.w3.org/2000/svg"  viewBox="-0.125044 -0.125044 10.2536 12.7519"><g fill="none" stroke="black" stroke-width="0.0125" transform="translate(0,12.5018) scale(1, -1)">
<g id="Output" >
<path fill="rgb(142,146,145)" stroke="rgb(142,146,145)" d="M 6.85177,9.19735 l -3.7,-4.62402 0,-0.422964 3.7,4.62402 0,0.422964 z "/>
<path fill="rgb(142,146,145)" stroke="rgb(142,146,145)" d="M 6.85177,7.92845 l 0,0.422964 -3.7,-4.62402 0,-0.422964 3.7,4.62402 z "/>
<path fill="rgb(142,146,145)" stroke="rgb(142,146,145)" d="M 6.76502,9.5119 l -0.0193364,0.0178971 -0.0208322,0.0161315 -0.0221672,0.0142414 -0.0233313,0.0122415 -0.0243154,0.0101472 -0.025112,0.00797459 -0.0257148,0.00574048 -0.0261193,0.0034621 -0.0263223,0.00115701 -1.55,0 -1.55,0 -0.0261467,-0.00114159 -0.0259477,-0.00341608 -0.0255513,-0.00566458 -0.0249603,-0.00786996 -0.0241794,-0.0100155 -0.0232145,-0.0120847 -0.0220729,-0.014062 -0.0207634,-0.0159323 -0.0192958,-0.0176813 -0.0176813,-0.0192958 -0.0159323,-0.0207634 -0.014062,-0.0220729 -0.0120847,-0.0232145 -0.0100155,-0.0241794 -0.00786996,-0.0249603 -0.00566458,-0.0255513 -0.00341608,-0.0259477 -0.00114159,-0.0261467 0,-4.3046 3.61325,4.51561 z "/>
<path fill="rgb(142,146,145)" stroke="rgb(142,146,145)" d="M 3.45177,2.90089 l 1.55,-4.44089e-16 1.55,-4.44089e-16 0.0261467,0.00114159 0.0259477,0.00341608 0.0255513,0.00566458 0.0249603,0.00786996 0.0241794,0.0100155 0.0232145,0.0120847 0.0220729,0.014062 0.0207634,0.0159323 0.0192958,0.0176813 0.0176813,0.0192958 0.0159323,0.0207634 0.014062,0.0220729 0.0120847,0.0232145 0.0100155,0.0241794 0.00786996,0.0249603 0.00566458,0.0255513 0.00341608,0.0259477 0.00114159,0.0261467 8.88178e-16,4.3046 -3.61325,-4.51561 0.0193364,-0.0178971 0.0208322,-0.0161315 0.0221672,-0.0142414 0.0233313,-0.0122415 0.0243154,-0.0101472 0.025112,-0.00797459 0.0257148,-0.00574048 0.0261193,-0.0034621 0.0263223,-0.00115701 z "/>
<path fill="rgb(142,146,145)" stroke="rgb(142,146,145)" d="M 7.25177,8.42835 l 0,0.422964 -0.2,-0.249947 0,-0.422964 0.2,0.249947 z "/>
<path fill="rgb(142,146,145)" stroke="rgb(142,146,145)" d="M 7.25177,6.24823 l -8.88178e-16,1.75716 -0.2,-0.249947 0,-4.55455 -0.00190265,-0.0435779 -0.00569347,-0.0432462 -0.00944096,-0.0425854 -0.0131166,-0.0416005 -0.0166924,-0.0402991 -0.0201412,-0.0386909 -0.0234367,-0.0367882 -0.0265538,-0.0346056 -0.0294688,-0.0321596 -0.0321596,-0.0294688 -0.0346056,-0.0265538 -0.0367882,-0.0234367 -0.0386909,-0.0201412 -0.0402991,-0.0166924 -0.0416005,-0.0131166 -0.0425854,-0.00944096 -0.0432462,-0.00569347 -0.0435779,-0.00190265 -1.55,4.44089e-16 0,-0.2 1.55,-4.44089e-16 0.061009,0.00266371 0.0605447,0.00797086 0.0596196,0.0132173 0.0582408,0.0183632 0.0564187,0.0233694 0.0541672,0.0281977 0.0515035,0.0328114 0.0484478,0.0371753 0.0450234,0.0412564 0.0412564,0.0450234 0.0371753,0.0484478 0.0328114,0.0515035 0.0281977,0.0541672 0.0233694,0.0564187 0.0183632,0.0582408 0.0132173,0.0596196 0.00797086,0.0605447 0.00266371,0.061009 2.66454e-15,3.04734 z "/>
<path fill="rgb(142,146,145)" stroke="rgb(142,146,145)" d="M 7.18064,9.60834 l -0.145049,-0.181273 0.00896889,-0.0415497 0.0054074,-0.0421613 0.00180682,-0.0424683 0,-0.27656 0.2,0.249947 0,0.0266127 -0.00289289,0.0635742 -0.00865477,0.0630488 -0.0143451,0.0620022 -0.0199169,0.0604431 -0.025324,0.0583845 z "/>
<path fill="rgb(142,146,145)" stroke="rgb(142,146,145)" d="M 6.55177,10.0009 l -1.55,0 -1.77636e-15,-0.2 1.55,0 0.0413001,-0.00170862 0.0410179,-0.00511418 0.0404553,-0.00848479 0.0396162,-0.0117974 0.0385063,-0.0150294 0.0371333,-0.0181587 0.0355065,-0.0211638 0.033637,-0.0240244 0.0315377,-0.0267207 0.12517,0.15643 -0.0493045,0.0397993 -0.0527014,0.0351779 -0.0556665,0.0302682 -0.0581755,0.0251104 -0.0602078,0.019747 -0.0617467,0.0142217 -0.0627798,0.0085799 -0.0632984,0.0028678 z "/>
<path fill="rgb(142,146,145)" stroke="rgb(142,146,145)" d="M 2.75177,9.30089 l 0,-3.05266 0,-1.75184 0.2,0.249947 0,4.55455 0.00190265,0.0435779 0.00569347,0.0432462 0.00944096,0.0425854 0.0131166,0.0416005 0.0166924,0.0402991 0.0201412,0.0386909 0.0234367,0.0367882 0.0265538,0.0346056 0.0294688,0.0321596 0.0321596,0.0294688 0.0346056,0.0265538 0.0367882,0.0234367 0.0386909,0.0201412 0.0402991,0.0166924 0.0416005,0.0131166 0.0425854,0.00944096 0.0432462,0.00569347 0.0435779,0.00190265 1.55,0 1.77636e-15,0.2 -1.55,0 -0.061009,-0.00266371 -0.0605447,-0.00797086 -0.0596196,-0.0132173 -0.0582408,-0.0183632 -0.0564187,-0.0233694 -0.0541672,-0.0281977 -0.0515035,-0.0328114 -0.0484478,-0.0371753 -0.0450234,-0.0412564 -0.0412564,-0.0450234 -0.0371753,-0.0484478 -0.0328114,-0.0515035 -0.0281977,-0.0541672 -0.0233694,-0.0564187 -0.0183632,-0.0582408 -0.0132173,-0.0596196 -0.00797086,-0.0605447 -0.00266371,-0.061009 z "/>
<path fill="rgb(142,146,145)" stroke="rgb(142,146,145)" d="M 2.8229,2.89344 l 0.145049,0.181273 -0.00896889,0.0415497 -0.0054074,0.0421613 -0.00180682,0.0424683 0,0.27656 -0.2,-0.249947 0,-0.0266127 0.00289289,-0.0635742 0.00865477,-0.0630488 0.0143451,-0.0620022 0.0199169,-0.0604431 0.025324,-0.0583845 z "/>
<path fill="rgb(142,146,145)" stroke="rgb(142,146,145)" d="M 2.75177,3.65047 l 0.2,0.249947 0,0.422964 -0.2,-0.249947 0,-0.422964 z "/>
<path fill="rgb(142,146,145)" stroke="rgb(142,146,145)" d="M 2.98789,2.67666 l 0.0493045,-0.0397993 0.0527014,-0.0351779 0.0556665,-0.0302682 0.0581755,-0.0251104 0.0602078,-0.019747 0.0617467,-0.0142217 0.0627798,-0.0085799 0.0632984,-0.0028678 1.55,-8.88178e-16 0,0.2 -1.55,4.44089e-16 -0.0413001,0.00170862 -0.0410179,0.00511418 -0.0404553,0.00848479 -0.0396162,0.0117974 -0.0385063,0.0150294 -0.0371333,0.0181587 -0.0355065,0.0211638 -0.033637,0.0240244 -0.0315377,0.0267207 -0.12517,-0.15643 z "/>
<path fill="rgb(241,240,234)" stroke="rgb(241,240,234)" d="M 9.51129,6.24823 l -2.25953,-8.88178e-16 -2.66454e-15,-3.04734 -0.00266371,-0.061009 -0.00797086,-0.0605447 -0.0132173,-0.0596196 -0.0183632,-0.0582408 -0.0233694,-0.0564187 -0.0281977,-0.0541672 -0.0328114,-0.0515035 -0.0371753,-0.0484478 -0.0412564,-0.0450234 -0.0450234,-0.0412564 -0.0484478,-0.0371753 -0.0515035,-0.0328114 -0.0541672,-0.0281977 -0.0564187,-0.0233694 -0.0582408,-0.0183632 -0.0596196,-0.0132173 -0.0605447,-0.00797086 -0.061009,-0.00266371 -1.55,4.44089e-16 -1.55,8.88178e-16 -0.0632984,0.0028678 -0.0627798,0.0085799 -0.0617467,0.0142217 -0.0602078,0.019747 -0.0581755,0.0251104 -0.0556665,0.0302682 -0.0527014,0.0351779 -0.0493045,0.0397993 -1.74366,-2.17912 8.00457,8.88178e-15 0.0228784,0.000998892 0.0227043,0.00298907 0.0223574,0.00495651 0.0218403,0.00688622 0.021157,0.00876352 0.0203127,0.0105741 0.0193138,0.0123043 0.0181679,0.0139407 0.0168838,0.0154711 0.0154711,0.0168838 0.0139407,0.0181679 0.0123043,0.0193138 0.0105741,0.0203127 0.00876352,0.021157 0.00688622,0.0218403 0.00495651,0.0223574 0.00298907,0.0227043 0.000998892,0.0228784 0,5.48819 z "/>
<path fill="rgb(241,240,234)" stroke="rgb(241,240,234)" d="M 0.508116,1.26946 l 1.77636e-15,-0.422964 2.24365,2.80397 0,0.422964 -2.24365,-2.80397 z "/>
<path fill="rgb(241,240,234)" stroke="rgb(241,240,234)" d="M 2.75177,6.24823 l -2.24365,0 1.77636e-15,-4.55581 2.24365,2.80397 0,1.75184 z "/>
<path fill="rgb(241,240,234)" stroke="rgb(241,240,234)" d="M 0.905782,0.497542 l 1.91712,2.39589 -0.025324,0.0583845 -0.0199169,0.0604431 -0.0143451,0.0620022 -0.00865477,0.0630488 -0.00289289,0.0635742 0,0.0266127 -2.141,-2.67568 0.0175566,-0.0123701 0.0185091,-0.0108935 0.0193377,-0.00934393 0.0200368,-0.00773184 0.0206018,-0.00606799 0.0210289,-0.00436353 0.0213152,-0.00262986 0.0214588,-0.000878579 0.135165,0 z "/>
<path fill="rgb(241,240,234)" stroke="rgb(241,240,234)" d="M 9.51129,11.2522 l -1.77636e-15,0.422964 -2.25953,-2.82381 0,-0.422964 2.25953,2.82381 z "/>
<path fill="rgb(241,240,234)" stroke="rgb(241,240,234)" d="M 9.39587,11.9538 l -0.0189819,0.0116974 -0.0199061,0.0100443 -0.0206867,0.00831879 -0.021318,0.00653324 -0.0217955,0.00470057 -0.0221158,0.00283397 -0.0222765,0.000946935 -0.155294,-1.77636e-15 -1.91286,-2.39058 0.025324,-0.0583845 0.0199169,-0.0604431 0.0143451,-0.0620022 0.00865477,-0.0630488 0.00289289,-0.0635742 0,-0.0266127 2.14411,2.67957 z "/>
<path fill="rgb(241,240,234)" stroke="rgb(241,240,234)" d="M 9.51129,10.8292 l -2.25953,-2.82381 8.88178e-16,-1.75716 2.25953,8.88178e-16 1.77636e-15,0.00265976 -1.77636e-15,4.57831 z "/>
<path fill="rgb(241,240,234)" stroke="rgb(241,240,234)" d="M 6.55177,10.0009 l 0.0632984,-0.0028678 0.0627798,-0.0085799 0.0617467,-0.0142217 0.0602078,-0.019747 0.0581755,-0.0251104 0.0556665,-0.0302682 0.0527014,-0.0351779 0.0493045,-0.0397993 1.73941,2.1738 -7.98444,-7.10543e-15 -0.0228784,-0.000998892 -0.0227043,-0.00298907 -0.0223574,-0.00495651 -0.0218403,-0.00688622 -0.021157,-0.00876352 -0.0203127,-0.0105741 -0.0193138,-0.0123043 -0.0181679,-0.0139407 -0.0168838,-0.0154711 -0.0154711,-0.0168838 -0.0139407,-0.0181679 -0.0123043,-0.0193138 -0.0105741,-0.0203127 -0.00876352,-0.021157 -0.00688622,-0.0218403 -0.00495651,-0.0223574 -0.00298907,-0.0227043 -0.000998892,-0.0228784 0,-5.48553 0,-0.00265976 2.24365,0 0,3.05266 0.00266371,0.061009 0.00797086,0.0605447 0.0132173,0.0596196 0.0183632,0.0582408 0.0233694,0.0564187 0.0281977,0.0541672 0.0328114,0.0515035 0.0371753,0.0484478 0.0412564,0.0450234 0.0450234,0.0412564 0.0484478,0.0371753 0.0515035,0.0328114 0.0541672,0.0281977 0.0564187,0.0233694 0.0582408,0.0183632 0.0596196,0.0132173 0.0605447,0.00797086 0.061009,0.00266371 1.55,0 1.55,0 z "/>
<path fill="rgb(241,240,234)" stroke="rgb(241,240,234)" d="M 7.03559,9.42707 l -0.183817,-0.229723 0,-0.422964 0.2,0.249947 0,0.27656 -0.00180682,0.0424683 -0.0054074,0.0421613 -0.00896889,0.0415497 z "/>
<path fill="rgb(241,240,234)" stroke="rgb(241,240,234)" d="M 7.05177,8.1784 l 0,0.422964 -0.2,-0.249947 0,-0.422964 0.2,0.249947 z "/>
<path fill="rgb(241,240,234)" stroke="rgb(241,240,234)" d="M 6.89048,9.66869 l -0.0315377,0.0267207 -0.033637,0.0240244 -0.0355065,0.0211638 -0.0371333,0.0181587 -0.0385063,0.0150294 -0.0396162,0.0117974 -0.0404553,0.00848479 -0.0410179,0.00511418 -0.0413001,0.00170862 -1.55,0 0,-0.2 1.55,0 0.0263223,-0.00115701 0.0261193,-0.0034621 0.0257148,-0.00574048 0.025112,-0.00797459 0.0243154,-0.0101472 0.0233313,-0.0122415 0.0221672,-0.0142414 0.0208322,-0.0161315 0.0193364,-0.0178971 0.125459,0.156791 z "/>
<path fill="rgb(241,240,234)" stroke="rgb(241,240,234)" d="M 5.00177,2.90089 l 0,-0.2 1.55,-4.44089e-16 0.0435779,0.00190265 0.0432462,0.00569347 0.0425854,0.00944096 0.0416005,0.0131166 0.0402991,0.0166924 0.0386909,0.0201412 0.0367882,0.0234367 0.0346056,0.0265538 0.0321596,0.0294688 0.0294688,0.0321596 0.0265538,0.0346056 0.0234367,0.0367882 0.0201412,0.0386909 0.0166924,0.0402991 0.0131166,0.0416005 0.00944096,0.0425854 0.00569347,0.0432462 0.00190265,0.0435779 0,4.55455 -0.2,-0.249947 -8.88178e-16,-4.3046 -0.00114159,-0.0261467 -0.00341608,-0.0259477 -0.00566458,-0.0255513 -0.00786996,-0.0249603 -0.0100155,-0.0241794 -0.0120847,-0.0232145 -0.014062,-0.0220729 -0.0159323,-0.0207634 -0.0176813,-0.0192958 -0.0192958,-0.0176813 -0.0207634,-0.0159323 -0.0220729,-0.014062 -0.0232145,-0.0120847 -0.0241794,-0.0100155 -0.0249603,-0.00786996 -0.0255513,-0.00566458 -0.0259477,-0.00341608 -0.0261467,-0.00114159 -1.55,4.44089e-16 z "/>
<path fill="rgb(241,240,234)" stroke="rgb(241,240,234)" d="M 2.95177,4.32338 l 0,-0.422964 0.2,0.249947 0,0.422964 -0.2,-0.249947 z "/>
<path fill="rgb(241,240,234)" stroke="rgb(241,240,234)" d="M 2.95177,4.74634 l 0.2,0.249947 0,4.3046 0.00114159,0.0261467 0.00341608,0.0259477 0.00566458,0.0255513 0.00786996,0.0249603 0.0100155,0.0241794 0.0120847,0.0232145 0.014062,0.0220729 0.0159323,0.0207634 0.0176813,0.0192958 0.0192958,0.0176813 0.0207634,0.0159323 0.0220729,0.014062 0.0232145,0.0120847 0.0241794,0.0100155 0.0249603,0.00786996 0.0255513,0.00566458 0.0259477,0.00341608 0.0261467,0.00114159 1.55,0 0,0.2 -1.55,0 -0.0435779,-0.00190265 -0.0432462,-0.00569347 -0.0425854,-0.00944096 -0.0416005,-0.0131166 -0.0402991,-0.0166924 -0.0386909,-0.0201412 -0.0367882,-0.0234367 -0.0346056,-0.0265538 -0.0321596,-0.0294688 -0.0294688,-0.0321596 -0.0265538,-0.0346056 -0.0234367,-0.0367882 -0.0201412,-0.0386909 -0.0166924,-0.0402991 -0.0131166,-0.0416005 -0.00944096,-0.0425854 -0.00569347,-0.0432462 -0.00190265,-0.0435779 0,-4.55455 z "/>
<path fill="rgb(241,240,234)" stroke="rgb(241,240,234)" d="M 2.96795,3.07471 l 0.183817,0.229723 0,0.422964 -0.2,-0.249947 0,-0.27656 0.00180682,-0.0424683 0.0054074,-0.0421613 0.00896889,-0.0415497 z "/>
<path fill="rgb(241,240,234)" stroke="rgb(241,240,234)" d="M 3.45177,2.90089 l -0.0263223,0.00115701 -0.0261193,0.0034621 -0.0257148,0.00574048 -0.025112,0.00797459 -0.0243154,0.0101472 -0.0233313,0.0122415 -0.0221672,0.0142414 -0.0208322,0.0161315 -0.0193364,0.0178971 -0.125459,-0.156791 0.0315377,-0.0267207 0.033637,-0.0240244 0.0355065,-0.0211638 0.0371333,-0.0181587 0.0385063,-0.0150294 0.0396162,-0.0117974 0.0404553,-0.00848479 0.0410179,-0.00511418 0.0413001,-0.00170862 1.55,-4.44089e-16 0,0.2 -1.55,4.44089e-16 z "/>
<path fill="rgb(241,240,234)" stroke="rgb(241,240,234)" d="M 10.0035,6.25089 l -0.229744,0 0,-5.49085 -0.00199778,-0.0457568 -0.00597815,-0.0454085 -0.00991301,-0.0447147 -0.0137724,-0.0436806 -0.017527,-0.042314 -0.0211483,-0.0406254 -0.0246085,-0.0386276 -0.0278815,-0.0363359 -0.0309423,-0.0337676 -0.0337676,-0.0309423 -0.0363359,-0.0278815 -0.0386276,-0.0246085 -0.0406254,-0.0211483 -0.042314,-0.017527 -0.0436806,-0.0137724 -0.0447147,-0.00991301 -0.0454085,-0.00597815 -0.0457568,-0.00199778 -8.47818,-7.99361e-15 -0.0457568,0.00199778 -0.0454085,0.00597815 -0.0447147,0.00991301 -0.0436806,0.0137724 -0.042314,0.017527 -0.0406254,0.0211483 -0.0386276,0.0246085 -0.0363359,0.0278815 -0.0337676,0.0309423 -0.0309423,0.0337676 -0.0278815,0.0363359 -0.0246085,0.0386276 -0.0211483,0.0406254 -0.017527,0.042314 -0.0137724,0.0436806 -0.00991301,0.0447147 -0.00597815,0.0454085 -0.00199778,0.0457568 0,5.49085 -0.245616,1.77636e-15 0,-6.25089 10.0035,1.77636e-15 -1.77636e-15,6.25089 z "/>
<path fill="rgb(241,240,234)" stroke="rgb(241,240,234)" d="M 10.0035,6.25089 l -1.77636e-15,6.25089 -10.0035,0 0,-6.25089 0.245616,-1.77636e-15 0,5.48553 0.00199778,0.0457568 0.00597815,0.0454085 0.00991301,0.0447147 0.0137724,0.0436806 0.017527,0.042314 0.0211483,0.0406254 0.0246085,0.0386276 0.0278815,0.0363359 0.0309423,0.0337676 0.0337676,0.0309423 0.0363359,0.0278815 0.0386276,0.0246085 0.0406254,0.0211483 0.042314,0.017527 0.0436806,0.0137724 0.0447147,0.00991301 0.0454085,0.00597815 0.0457568,0.00199778 8.47818,1.06581e-14 0.0457568,-0.00199778 0.0454085,-0.00597815 0.0447147,-0.00991301 0.0436806,-0.0137724 0.042314,-0.017527 0.0406254,-0.0211483 0.0386276,-0.0246085 0.0363359,-0.0278815 0.0337676,-0.0309423 0.0309423,-0.0337676 0.0278815,-0.0363359 0.0246085,-0.0386276 0.0211483,-0.0406254 0.017527,-0.042314 0.0137724,-0.0436806 0.00991301,-0.0447147 0.00597815,-0.0454085 0.00199778,-0.0457568 1.77636e-15,-5.48553 0.229744,0 z "/>
<path fill="rgb(241,240,234)" stroke="rgb(241,240,234)" d="M 6.51502,4.05244 l -0.0519423,-0.00629604 -0.0409242,-0.0204621 -0.0220361,-0.0236101 0.116477,-0.0362022 0.00314802,0 0.0472203,-0.00629604 0.0456463,-0.0236101 0.0299062,0.0802745 -0.0314802,0.0157401 -0.0472203,0.0157401 -0.0487943,0.00472203 z "/>
<path fill="rgb(241,240,234)" stroke="rgb(241,240,234)" d="M 6.40012,4.00208 l -0.0125921,-0.0503683 0.00629604,-0.0393502 0.0299062,-0.0424982 0.00157401,-0.00157401 0.0377762,-0.0220361 0.0550903,-0.0188881 0.0362022,-0.0125921 0.0204621,-0.0283322 -0.00629604,-0.0141661 -0.0519423,-0.0125921 0.125921,-0.0299062 0.0110181,0.0519423 0,0.00314802 -0.00787005,0.0424982 -0.0251841,0.0346282 -0.0393502,0.0267582 -0.0566643,0.0188881 -0.0456463,0.0141661 -0.0110181,0.0204621 0.00314802,0.00944405 0.0456463,0.0141661 -0.116477,0.0362022 z "/>
<path fill="rgb(241,240,234)" stroke="rgb(241,240,234)" d="M 6.40956,3.78644 l -0.0299062,-0.0787005 0.0393502,-0.0173141 0.0487943,-0.0125921 0.0519423,-0.00314802 0.00787005,0 0.0519423,0.00787005 0.0393502,0.0204621 0.0236101,0.0267582 -0.125921,0.0299062 -0.0110181,0.00157401 -0.0519423,0.0110181 -0.0440723,0.0141661 z "/>
<path fill="rgb(241,240,234)" stroke="rgb(241,240,234)" d="M 6.28994,4.05087 l -0.0220361,-0.00314802 -0.0409242,-0.0283322 0.0582383,-0.0535163 0.0424982,-0.0220361 0.0251841,0.0865705 -0.0141661,0.00944405 -0.0487943,0.0110181 z "/>
<path fill="rgb(241,240,234)" stroke="rgb(241,240,234)" d="M 6.22698,4.04615 l -0.0802745,0 0,-0.36517 0.0802745,0 0,0.214065 0,0.00314802 0.0173141,0.0487943 0.0409242,0.0188881 -0.0582383,0.0535163 0,0.0267582 z "/>
<path fill="rgb(241,240,234)" stroke="rgb(241,240,234)" d="M 5.94995,4.05087 l -0.0188881,-0.00157401 -0.0440723,-0.0157401 -0.0377762,-0.0377762 -0.0173141,-0.0267582 -0.0173141,-0.0503683 -0.00629604,-0.0550903 0.00314802,-0.0393502 0.0141661,-0.0519423 0.0251841,-0.0440723 0.0141661,-0.0188881 0.0409242,-0.0283322 0.0472203,-0.00944405 0.0220361,0.00314802 0.0440723,0.0173141 0.0362022,0.0362022 0.00314802,0.00314802 -0.105459,0.0236101 -0.0393502,0.0188881 -0.00157401,0.00157401 -0.0204621,0.0472203 -0.00472203,0.0125921 0.201473,0 0,0.0267582 -0.00157401,0.0173141 -0.195177,0.0267582 0.0220361,0.0472203 0.0393502,0.0173141 0.0960146,0.0251841 -0.0141661,0.0157401 -0.0393502,0.0299062 -0.0456463,0.00944405 z "/>
<path fill="rgb(241,240,234)" stroke="rgb(241,240,234)" d="M 6.04911,3.99578 l -0.0960146,-0.0251841 0.0330542,-0.0141661 0.00157401,0 0.0204621,-0.0503683 -0.116477,0 0.195177,-0.0267582 -0.00944405,0.0550903 -0.00472203,0.0141661 -0.0236101,0.0472203 z "/>
<path fill="rgb(241,240,234)" stroke="rgb(241,240,234)" d="M 6.00504,3.78486 l -0.0110181,-0.0110181 -0.0409242,-0.0188881 0.105459,-0.0236101 -0.0535163,0.0535163 z "/>
<path fill="rgb(241,240,234)" stroke="rgb(241,240,234)" d="M 5.74376,4.18938 l -0.0834225,-0.0330542 0,-0.133791 -0.155827,-0.0267582 -0.0173141,-0.0283322 0.122773,-0.00157401 0.0141661,-0.00314802 0.0362022,-0.0362022 0,-0.125921 -0.0110181,-0.0188881 -0.0393502,-0.0220361 -0.105459,-0.0283322 0.00944405,-0.0125921 0.146383,-0.0110181 0,-0.0267582 0.0834225,0 0,0.508405 z "/>
<path fill="rgb(241,240,234)" stroke="rgb(241,240,234)" d="M 5.59737,4.05559 l -0.0141661,-0.00157401 -0.0424982,-0.0173141 -0.0362022,-0.0409242 0.155827,0.0267582 -0.0283322,0.0251841 -0.0346282,0.00787005 z "/>
<path fill="rgb(241,240,234)" stroke="rgb(241,240,234)" d="M 5.48719,3.96745 l -0.0157401,-0.0503683 -0.00629604,-0.0550903 0.00157401,-0.0330542 0.0125921,-0.0519423 0.0251841,-0.0456463 0.105459,0.0283322 -0.00787005,0.00157401 -0.0393502,0.0283322 -0.00944405,0.0188881 -0.00944405,0.0550903 0.00157401,0.0236101 0.0173141,0.0487943 0.00629604,0.00787005 0.0409242,0.0220361 -0.122773,0.00157401 z "/>
<path fill="rgb(241,240,234)" stroke="rgb(241,240,234)" d="M 5.51395,3.71875 l 0.0377762,-0.0314802 0.0456463,-0.0110181 0.0346282,0.00629604 0.0283322,0.0251841 -0.146383,0.0110181 z "/>
<path fill="rgb(241,240,234)" stroke="rgb(241,240,234)" d="M 5.2023,4.04457 l -0.0802745,0 0,-0.251841 0.00629604,-0.0409242 0.132217,0.00787005 -0.0424982,0.0188881 -0.0157401,0.0487943 0,0.217213 z "/>
<path fill="rgb(241,240,234)" stroke="rgb(241,240,234)" d="M 5.39747,4.04457 l -0.0755524,0 0,-0.218787 -0.0188881,-0.0456463 -0.0424982,-0.0204621 -0.132217,-0.00787005 0.193603,-0.0424982 0,-0.0283322 0.0755524,0 0,0.363596 z "/>
<path fill="rgb(241,240,234)" stroke="rgb(241,240,234)" d="M 5.12832,3.75181 l 0.0267582,-0.0424982 0.0377762,-0.0251841 0.0503683,-0.00787005 0.0362022,0.00472203 0.0424982,0.0283322 -0.193603,0.0424982 z "/>
<path fill="rgb(241,240,234)" stroke="rgb(241,240,234)" d="M 4.91583,4.05559 l -0.0220361,-0.00314802 -0.0440723,-0.0173141 -0.0362022,-0.0362022 -0.0188881,-0.0299062 0.121199,-0.00314802 0.00629604,-0.00157401 0.0377762,-0.0283322 0.00787005,-0.0173141 0.00944405,-0.0550903 -0.00157401,-0.0251841 -0.0157401,-0.0487943 -0.00314802,-0.00629604 -0.0409242,-0.0236101 0.119625,-0.00157401 0.0173141,0.0487943 0.00629604,0.0566643 -0.00314802,0.0393502 -0.0125921,0.0519423 -0.0267582,0.0440723 -0.0141661,0.0173141 -0.0409242,0.0283322 -0.0456463,0.0110181 z "/>
<path fill="rgb(241,240,234)" stroke="rgb(241,240,234)" d="M 4.79463,3.96902 l -0.0173141,-0.0487943 -0.00472203,-0.0566643 0.00157401,-0.0377762 0.0141661,-0.0519423 0.0251841,-0.0456463 0.0157401,-0.0188881 0.0393502,-0.0283322 0.0472203,-0.00944405 0.0204621,0.00314802 0.0424982,0.0173141 0.0377762,0.0362022 0.0188881,0.0299062 -0.119625,0.00157401 -0.00787005,0.00157401 -0.0377762,0.0283322 -0.00944405,0.0173141 -0.00787005,0.0566643 0.00157401,0.0236101 0.0157401,0.0487943 0.00472203,0.00787005 0.0409242,0.0220361 -0.121199,0.00314802 z "/>
<path fill="rgb(241,240,234)" stroke="rgb(241,240,234)" d="M 4.51446,4.18938 l -0.0818485,-0.0330542 0,-0.475351 0.0818485,0 0,0.214065 0,0.0125921 0.0173141,0.0424982 0.0409242,0.0157401 0.129069,0.00944405 -0.187307,0.0440723 0,0.169993 z "/>
<path fill="rgb(241,240,234)" stroke="rgb(241,240,234)" d="M 4.59001,4.05559 l -0.0393502,-0.00787005 -0.0362022,-0.0283322 0.187307,-0.0440723 -0.0267582,0.0440723 -0.0362022,0.0251841 -0.0487943,0.0110181 z "/>
<path fill="rgb(241,240,234)" stroke="rgb(241,240,234)" d="M 4.70176,3.97532 l -0.129069,-0.00944405 0.0440723,-0.0204621 0.0173141,-0.0472203 0,-0.217213 0.0755524,0 0,0.250267 -0.00787005,0.0440723 z "/>
<path fill="rgb(241,240,234)" stroke="rgb(241,240,234)" d="M 6.65353,4.77649 l -0.157401,0 0,0.0897185 0.157401,0 0,-0.0897185 z "/>
<path fill="rgb(241,240,234)" stroke="rgb(241,240,234)" d="M 6.28049,4.94963 l -0.0424982,-0.0157401 -0.0362022,-0.0393502 0.160549,0.0188881 -0.0330542,0.0251841 -0.0362022,0.0110181 -0.0125921,0 z "/>
<path fill="rgb(241,240,234)" stroke="rgb(241,240,234)" d="M 6.44104,4.94019 l -0.0787005,0 0,-0.0267582 -0.160549,-0.0188881 -0.0173141,-0.0330542 0.121199,-0.00157401 0.0188881,-0.00472203 0.0377762,-0.0346282 0,-0.129069 -0.0157401,-0.0204621 -0.0409242,-0.0188881 -0.105459,-0.0299062 0.00944405,-0.0125921 0.152679,-0.00472203 0,-0.0393502 -0.00787005,-0.0314802 -0.0283322,-0.0377762 -0.0503683,-0.0362022 0.0314802,-0.0771264 0.00787005,0.00314802 0.0283322,0.0125921 0.0393502,0.0267582 0.00629604,0.00472203 0.0314802,0.0440723 0.0157401,0.0440723 0.00472203,0.0598123 0,0.362022 z "/>
<path fill="rgb(241,240,234)" stroke="rgb(241,240,234)" d="M 6.18448,4.86149 l -0.0173141,-0.0503683 -0.00472203,-0.0550903 0.00157401,-0.0362022 0.0125921,-0.0519423 0.0236101,-0.0456463 0.105459,0.0299062 -0.00787005,0 -0.0377762,0.0299062 -0.00787005,0.0173141 -0.00944405,0.0566643 0.00157401,0.0251841 0.0157401,0.0487943 0.00472203,0.00787005 0.0409242,0.0220361 -0.121199,0.00157401 z "/>
<path fill="rgb(241,240,234)" stroke="rgb(241,240,234)" d="M 6.20966,4.60964 l 0.0377762,-0.0330542 0.0440723,-0.0110181 0.0299062,0.00787005 0.0409242,0.0314802 -0.152679,0.00472203 z "/>
<path fill="rgb(241,240,234)" stroke="rgb(241,240,234)" d="M 5.97986,4.94648 l -0.0393502,-0.00629604 -0.0377762,-0.0299062 0.190455,-0.0393502 -0.0267582,0.0424982 -0.0362022,0.0236101 -0.0503683,0.00944405 z "/>
<path fill="rgb(241,240,234)" stroke="rgb(241,240,234)" d="M 5.90273,4.94019 l -0.0818485,0 0,-0.36517 0.0818485,0 0,0.218787 0.0157401,0.0472203 0.0424982,0.0204621 0.132217,0.00944405 -0.190455,0.0393502 0,0.0299062 z "/>
<path fill="rgb(241,240,234)" stroke="rgb(241,240,234)" d="M 6.09319,4.87093 l -0.132217,-0.00944405 0.0424982,-0.0173141 0.0173141,-0.0503683 0,-0.218787 0.0787005,0 0,0.254989 -0.00629604,0.0409242 z "/>
<path fill="rgb(241,240,234)" stroke="rgb(241,240,234)" d="M 5.69968,5.08342 l -0.0299062,-0.0125921 -0.0110181,-0.0314802 0.0110181,-0.0314802 0.0299062,-0.0141661 0.0283322,0.0141661 0.0125921,0.0314802 -0.0125921,0.0314802 -0.0283322,0.0125921 z "/>
<path fill="rgb(241,240,234)" stroke="rgb(241,240,234)" d="M 5.74061,4.94019 l -0.0802745,0 0,-0.36517 0.0802745,0 0,0.36517 z "/>
<path fill="rgb(241,240,234)" stroke="rgb(241,240,234)" d="M 5.46201,4.94648 l -0.0393502,-0.00629604 -0.0377762,-0.0299062 0.190455,-0.0393502 -0.0267582,0.0424982 -0.0362022,0.0236101 -0.0503683,0.00944405 z "/>
<path fill="rgb(241,240,234)" stroke="rgb(241,240,234)" d="M 5.38488,4.94019 l -0.0818485,0 0,-0.36517 0.0818485,0 0,0.218787 0.0157401,0.0472203 0.0424982,0.0204621 0.132217,0.00944405 -0.190455,0.0393502 0,0.0299062 z "/>
<path fill="rgb(241,240,234)" stroke="rgb(241,240,234)" d="M 5.57534,4.87093 l -0.132217,-0.00944405 0.0424982,-0.0173141 0.0173141,-0.0503683 0,-0.218787 0.0787005,0 0,0.254989 -0.00629604,0.0409242 z "/>
<path fill="rgb(241,240,234)" stroke="rgb(241,240,234)" d="M 5.10628,4.94648 l -0.0377762,-0.00629604 -0.0393502,-0.0299062 0.192029,-0.0393502 -0.0283322,0.0424982 -0.0362022,0.0236101 -0.0503683,0.00944405 z "/>
<path fill="rgb(241,240,234)" stroke="rgb(241,240,234)" d="M 5.02916,4.94019 l -0.0802745,0 0,-0.36517 0.0802745,0 0,0.218787 0.0173141,0.0472203 0.0409242,0.0204621 0.133791,0.00944405 -0.192029,0.0393502 0,0.0299062 z "/>
<path fill="rgb(241,240,234)" stroke="rgb(241,240,234)" d="M 5.22119,4.87093 l -0.133791,-0.00944405 0.0440723,-0.0173141 0.0173141,-0.0503683 0,-0.218787 0.0787005,0 0,0.254989 -0.00629604,0.0409242 z "/>
<path fill="rgb(241,240,234)" stroke="rgb(241,240,234)" d="M 4.67186,4.93861 l -0.0802745,0 0,-0.251841 0.00629604,-0.0409242 0.132217,0.00787005 -0.0424982,0.0188881 -0.0157401,0.0487943 0,0.217213 z "/>
<path fill="rgb(241,240,234)" stroke="rgb(241,240,234)" d="M 4.86703,4.93861 l -0.0755524,0 0,-0.218787 -0.0188881,-0.0456463 -0.0424982,-0.0204621 -0.132217,-0.00787005 0.193603,-0.0424982 0,-0.0283322 0.0755524,0 0,0.363596 z "/>
<path fill="rgb(241,240,234)" stroke="rgb(241,240,234)" d="M 4.59788,4.64585 l 0.0267582,-0.0424982 0.0377762,-0.0251841 0.0503683,-0.00787005 0.0362022,0.00472203 0.0424982,0.0283322 -0.193603,0.0424982 z "/>
<path fill="rgb(241,240,234)" stroke="rgb(241,240,234)" d="M 4.35391,4.94963 l -0.0424982,-0.0157401 -0.0362022,-0.0393502 0.160549,0.0188881 -0.0330542,0.0251841 -0.0362022,0.0110181 -0.0125921,0 z "/>
<path fill="rgb(241,240,234)" stroke="rgb(241,240,234)" d="M 4.51446,4.94019 l -0.0787005,0 0,-0.0267582 -0.160549,-0.0188881 -0.0173141,-0.0330542 0.121199,-0.00157401 0.0188881,-0.00472203 0.0377762,-0.0346282 0,-0.129069 -0.0157401,-0.0204621 -0.0409242,-0.0188881 -0.105459,-0.0299062 0.00944405,-0.0125921 0.152679,-0.00472203 0,-0.0393502 -0.00787005,-0.0314802 -0.0283322,-0.0377762 -0.0503683,-0.0362022 0.0314802,-0.0771264 0.00787005,0.00314802 0.0283322,0.0125921 0.0393502,0.0267582 0.00629604,0.00472203 0.0314802,0.0440723 0.0157401,0.0440723 0.00472203,0.0598123 0,0.362022 z "/>
<path fill="rgb(241,240,234)" stroke="rgb(241,240,234)" d="M 4.25789,4.86149 l -0.0173141,-0.0503683 -0.00472203,-0.0550903 0.00157401,-0.0362022 0.0125921,-0.0519423 0.0236101,-0.0456463 0.105459,0.0299062 -0.00787005,0 -0.0377762,0.0299062 -0.00787005,0.0173141 -0.00944405,0.0566643 0.00157401,0.0251841 0.0157401,0.0487943 0.00472203,0.00787005 0.0409242,0.0220361 -0.121199,0.00157401 z "/>
<path fill="rgb(241,240,234)" stroke="rgb(241,240,234)" d="M 4.28308,4.60964 l 0.0377762,-0.0330542 0.0440723,-0.0110181 0.0299062,0.00787005 0.0409242,0.0314802 -0.152679,0.00472203 z "/>
<path fill="rgb(241,240,234)" stroke="rgb(241,240,234)" d="M 4.13669,4.94491 l -0.0220361,-0.00314802 -0.0409242,-0.0283322 0.0582383,-0.0535163 0.0424982,-0.0220361 0.0251841,0.0865705 -0.0141661,0.00944405 -0.0487943,0.0110181 z "/>
<path fill="rgb(241,240,234)" stroke="rgb(241,240,234)" d="M 4.07373,4.94019 l -0.0818485,0 0,-0.36517 0.0818485,0 0,0.214065 0,0.00314802 0.0173141,0.0487943 0.0409242,0.0188881 -0.0582383,0.0535163 0,0.0267582 z "/>
<path fill="rgb(241,240,234)" stroke="rgb(241,240,234)" d="M 3.79671,4.94491 l -0.0188881,-0.00157401 -0.0440723,-0.0157401 -0.0377762,-0.0377762 -0.0173141,-0.0267582 -0.0173141,-0.0503683 -0.00629604,-0.0550903 0.00314802,-0.0393502 0.0141661,-0.0519423 0.0251841,-0.0440723 0.0141661,-0.0188881 0.0409242,-0.0283322 0.0472203,-0.00944405 0.0220361,0.00314802 0.0440723,0.0173141 0.0362022,0.0362022 0.00314802,0.00314802 -0.105459,0.0236101 -0.0393502,0.0188881 -0.00157401,0.00157401 -0.0220361,0.0472203 -0.00314802,0.0125921 0.201473,0 0,0.0267582 -0.00157401,0.0173141 -0.195177,0.0267582 0.0220361,0.0472203 0.0393502,0.0173141 0.0960146,0.0251841 -0.0141661,0.0157401 -0.0393502,0.0299062 -0.0456463,0.00944405 z "/>
<path fill="rgb(241,240,234)" stroke="rgb(241,240,234)" d="M 3.89587,4.88982 l -0.0960146,-0.0251841 0.0330542,-0.0141661 0.00157401,0 0.0204621,-0.0503683 -0.116477,0 0.195177,-0.0267582 -0.00944405,0.0550903 -0.00472203,0.0141661 -0.0236101,0.0472203 z "/>
<path fill="rgb(241,240,234)" stroke="rgb(241,240,234)" d="M 3.8518,4.6789 l -0.0110181,-0.0110181 -0.0409242,-0.0188881 0.105459,-0.0236101 -0.0535163,0.0535163 z "/>
<path fill="rgb(241,240,234)" stroke="rgb(241,240,234)" d="M 3.38117,4.94019 l -0.0802745,0 0.116477,-0.36517 0.0424982,0.118051 -0.0787005,0.247119 z "/>
<path fill="rgb(241,240,234)" stroke="rgb(241,240,234)" d="M 3.62042,4.94019 l -0.0818485,0 -0.0787005,-0.247119 -0.0424982,-0.118051 0.0849965,0 0.118051,0.36517 z "/>
<path fill="rgb(241,240,234)" stroke="rgb(241,240,234)" d="M 5.3109,9.26871 l -1.46855,0 0,-3.49902 0.574513,0 0,1.37254 0.894037,0 0.0535163,0 0.147957,0.0125921 0.133791,0.0267582 0.121199,0.0409242 0.108607,0.0566643 0.0849965,0.0598123 0.102311,0.0944405 0.0897185,0.110181 0.0755524,0.122773 0.0472203,0.100737 -1.8589,0.00157401 0,0.873575 0.917647,0 0.909777,0.0849965 -0.0692564,0.113329 -0.0849965,0.103885 -0.102311,0.0928665 -0.116477,0.0834225 -0.0362022,0.0220361 -0.118051,0.0550903 -0.125921,0.0393502 -0.135365,0.0236101 -0.144809,0.00787005 z "/>
<path fill="rgb(241,240,234)" stroke="rgb(241,240,234)" d="M 6.24429,8.72725 l -0.909777,-0.0849965 0.105459,-0.00787005 0.127495,-0.0393502 0.102311,-0.0708304 0.0456463,-0.0535163 0.0613864,-0.125921 0.0204621,-0.146383 -0.00314802,-0.0676824 -0.0409242,-0.136939 -0.0834225,-0.107033 -0.0724044,-0.0519423 -0.121199,-0.0487943 -0.141661,-0.0173141 -0.917647,0 1.8589,-0.00157401 0.0487943,0.140087 0.0283322,0.144809 0.00944405,0.146383 -0.00629604,0.127495 -0.0204621,0.144809 -0.0377762,0.133791 -0.0535163,0.122773 z "/>
<path fill="rgb(42,41,42)" stroke="rgb(42,41,42)" d="M 6.92584,11.466 l -0.73034,0 0,-1.00107 0.74608,0 0,0.179437 -0.563495,0 0,0.272304 0.299062,0 0,0.182585 -0.299062,0 0,0.187307 0.547755,0 0,0.179437 z "/>
<path fill="rgb(42,41,42)" stroke="rgb(42,41,42)" d="M 5.93736,11.466 l -0.173141,0 0,-0.661084 0.0204621,-0.339986 0.152679,0 0,1.00107 z "/>
<path fill="rgb(42,41,42)" stroke="rgb(42,41,42)" d="M 5.30618,11.466 l 0,-0.313228 0.478499,-0.687842 -0.0204621,0.339986 -0.458037,0.661084 z "/>
<path fill="rgb(42,41,42)" stroke="rgb(42,41,42)" d="M 5.30618,11.466 l -0.174715,0 0,-1.00107 0.174715,0 0,0.687842 0,0.313228 z "/>
<path fill="rgb(42,41,42)" stroke="rgb(42,41,42)" d="M 4.48612,11.4818 l -0.0110181,0 -0.0897185,-0.0110181 -0.0802745,-0.0251841 -0.0692564,-0.0424982 -0.0598123,-0.0582383 -0.0299062,-0.0409242 0.339986,0 0.0377762,-0.00314802 0.0771264,-0.0283322 0.0598123,-0.0582383 0.0330542,-0.0661084 0.0204621,-0.0834225 0.00787005,-0.0975886 -0.00314802,-0.0708304 -0.0157401,-0.0865705 -0.0299062,-0.0724044 -0.0362022,-0.0519423 -0.0661084,-0.0440723 -0.0849965,-0.0141661 -0.322672,-0.0141661 0.0251841,-0.0330542 0.0598123,-0.0566643 0.0708304,-0.0424982 0.0787005,-0.0251841 0.0881445,-0.00787005 0.00629604,0 0.0881445,0.0110181 0.0771264,0.0267582 0.0692564,0.0440723 0.0613864,0.0629604 0.0283322,0.0409242 0.0362022,0.0708304 0.0267582,0.0802745 0.0141661,0.0881445 0.00629604,0.0975886 -0.00157401,0.0566643 -0.0125921,0.0912925 -0.0220361,0.0834225 -0.0330542,0.0739784 -0.0440723,0.0661084 -0.00314802,0.00157401 -0.0598123,0.0613864 -0.0692564,0.0424982 -0.0802745,0.0251841 -0.0881445,0.00944405 z "/>
<path fill="rgb(42,41,42)" stroke="rgb(42,41,42)" d="M 4.14614,11.3039 l -0.0362022,-0.0692564 -0.0251841,-0.0787005 -0.0157401,-0.0897185 -0.00472203,-0.0991626 0,-0.0299062 0.00787005,-0.0912925 0.0204621,-0.0849965 0.0299062,-0.0771264 0.0409242,-0.0708304 0.322672,0.0141661 -0.0393502,0.00314802 -0.0755524,0.0283322 -0.0613864,0.0582383 0,0.00157401 -0.0362022,0.0676824 -0.0204621,0.0834225 -0.00787005,0.0975886 0.00787005,0.0975886 0.0204621,0.0818485 0.0362022,0.0676824 0.0236101,0.0283322 0.0676824,0.0456463 0.0849965,0.0157401 -0.339986,0 z "/>
<path fill="rgb(42,41,42)" stroke="rgb(42,41,42)" d="M 3.89587,11.466 l -0.752376,0 0,-0.177863 0.535163,0 -0.568217,-0.62016 0,-0.203047 0.785431,0 0,0.179437 -0.563495,0 0.563495,0.617012 0,0.204621 z "/>
<path fill="rgb(42,41,42)" stroke="rgb(42,41,42)" d="M 7.25177,8.85131 l -0.2,-0.249947 0,0.422964 0.2,0.249947 0,-0.422964 z "/>
<path fill="rgb(42,41,42)" stroke="rgb(42,41,42)" d="M 2.75177,3.65047 l 0.2,0.249947 0,-0.422964 -0.2,-0.249947 0,0.422964 z "/>
<path fill="rgb(42,41,42)" stroke="rgb(42,41,42)" d="M 0.508116,0.846493 l 2.24365,2.80397 0,-0.422964 -2.141,-2.67568 -0.0183778,0.0154957 -0.0168832,0.0171119 -0.015247,0.0185847 -0.0134829,0.0199015 -0.0116058,0.0210515 -0.00963136,0.0220249 -0.00757613,0.0228137 -0.00545736,0.0234111 -0.00329283,0.0238121 -0.00110069,0.0240135 1.77636e-15,0.0864512 z "/>
<path fill="rgb(42,41,42)" stroke="rgb(42,41,42)" d="M 6.85177,8.35142 l -3.7,-4.62402 0,0.422964 3.7,4.62402 0,-0.422964 z "/>
<path fill="rgb(42,41,42)" stroke="rgb(42,41,42)" d="M 2.95177,3.90041 l 0.2,0.249947 0,-0.422964 -0.2,-0.249947 0,0.422964 z "/>
<path fill="rgb(42,41,42)" stroke="rgb(42,41,42)" d="M 7.05177,8.60137 l -0.2,-0.249947 0,0.422964 0.2,0.249947 0,-0.422964 z "/>
<path fill="rgb(42,41,42)" stroke="rgb(42,41,42)" d="M 9.39587,11.9538 l 0.0186884,-0.0138888 0.0173841,-0.0154902 0.0159431,-0.0169698 0.0143766,-0.0183158 0.012697,-0.0195177 0.0109175,-0.0205661 0.00905205,-0.0214526 0.00711543,-0.0221704 0.00512282,-0.0227137 0.0030899,-0.0230783 0.00103268,-0.0232613 -1.77636e-15,-0.0612952 -2.25953,-2.82381 0,0.422964 2.14411,2.67957 z "/>
<path fill="rgb(42,41,42)" stroke="rgb(42,41,42)" d="M 7.25177,8.00539 l -0.2,-0.249947 0,0.422964 0.2,0.249947 0,-0.422964 z "/>
<path fill="rgb(42,41,42)" stroke="rgb(42,41,42)" d="M 6.85177,7.50549 l -3.61325,-4.51561 -0.0174664,0.0192534 -0.015734,0.0206932 -0.0138835,0.0219776 -0.0119288,0.023097 -0.00988451,0.0240429 -0.00776599,0.0248084 -0.00558917,0.0253875 -0.00337038,0.0257761 -0.00112628,0.0259711 0,0.103543 3.7,4.62402 -8.88178e-16,-0.422964 z "/>
<path fill="rgb(42,41,42)" stroke="rgb(42,41,42)" d="M 3.11306,2.83309 l -0.0288631,0.028844 -0.026415,0.0311015 -0.0237909,0.0331518 -0.0210084,0.0349814 -0.018086,0.036578 -0.0150431,0.0379309 -0.0119001,0.0390313 0.183817,0.229723 0,-0.103543 0.00112628,-0.0259711 0.00337038,-0.0257761 0.00558917,-0.0253875 0.00776599,-0.0248084 0.00988451,-0.0240429 0.0119288,-0.023097 0.0138835,-0.0219776 0.015734,-0.0206932 0.0174664,-0.0192534 -0.125459,-0.156791 z "/>
<path fill="rgb(42,41,42)" stroke="rgb(42,41,42)" d="M 0.905782,0.497542 l 1.91712,2.39589 0.033069,-0.0600056 0.0387768,-0.0564853 0.0441131,-0.0524239 0.0490268,-0.0478603 -1.74366,-2.17912 -0.338443,0 z "/>
<path fill="rgb(42,41,42)" stroke="rgb(42,41,42)" d="M 9.51129,10.8292 l -2.25953,-2.82381 0,0.422964 2.25953,2.82381 0,-0.422964 z "/>
<path fill="rgb(42,41,42)" stroke="rgb(42,41,42)" d="M 2.8229,2.89344 l 0.145049,0.181273 0.0119001,-0.0390313 0.0150431,-0.0379309 0.018086,-0.036578 0.0210084,-0.0349814 0.0237909,-0.0331518 0.026415,-0.0311015 0.0288631,-0.028844 -0.12517,-0.15643 -0.0490268,0.0478603 -0.0441131,0.0524239 -0.0387768,0.0564853 -0.033069,0.0600056 z "/>
<path fill="rgb(42,41,42)" stroke="rgb(42,41,42)" d="M 7.05177,7.75544 l -0.2,-0.249947 8.88178e-16,0.422964 0.2,0.249947 0,-0.422964 z "/>
<path fill="rgb(42,41,42)" stroke="rgb(42,41,42)" d="M 2.75177,4.49639 l 0,-0.422964 0.2,0.249947 0,0.422964 -0.2,-0.249947 z "/>
<path fill="rgb(42,41,42)" stroke="rgb(42,41,42)" d="M 8.75506,11.9989 l -1.73941,-2.1738 0.0490268,-0.0478603 0.0441131,-0.0524239 0.0387768,-0.0564853 0.033069,-0.0600056 1.91286,2.39058 -0.338443,0 z "/>
<path fill="rgb(42,41,42)" stroke="rgb(42,41,42)" d="M 7.01565,9.82512 l -0.12517,-0.15643 0.0288631,-0.028844 0.026415,-0.0311015 0.0237909,-0.0331518 0.0210084,-0.0349814 0.018086,-0.036578 0.0150431,-0.0379309 0.0119001,-0.0390313 0.145049,0.181273 -0.033069,0.0600056 -0.0387768,0.0564853 -0.0441131,0.0524239 -0.0490268,0.0478603 z "/>
<path fill="rgb(42,41,42)" stroke="rgb(42,41,42)" d="M 6.89048,9.66869 l -0.125459,-0.156791 0.0174664,-0.0192534 0.015734,-0.0206932 0.0138835,-0.0219776 0.0119288,-0.023097 0.00988451,-0.0240429 0.00776599,-0.0248084 0.00558917,-0.0253875 0.00337038,-0.0257761 0.00112628,-0.0259711 0,-0.103543 0.183817,0.229723 -0.0119001,0.0390313 -0.0150431,0.0379309 -0.018086,0.036578 -0.0210084,0.0349814 -0.0237909,0.0331518 -0.026415,0.0311015 -0.0288631,0.028844 z "/>
<path fill="rgb(42,41,42)" stroke="rgb(42,41,42)" d="M 2.95177,4.74634 l 0,-0.422964 0.2,0.249947 0,0.422964 -0.2,-0.249947 z "/>
<path fill="rgb(42,41,42)" stroke="rgb(42,41,42)" d="M 6.76502,9.5119 l -3.61325,-4.51561 0,-0.422964 3.7,4.62402 0,0.103543 -0.00112628,0.0259711 -0.00337038,0.0257761 -0.00558917,0.0253875 -0.00776599,0.0248084 -0.00988451,0.0240429 -0.0119288,0.023097 -0.0138835,0.0219776 -0.015734,0.0206932 -0.0174664,0.0192534 z "/>
<path fill="rgb(42,41,42)" stroke="rgb(42,41,42)" d="M 0.508116,1.26946 l 2.24365,2.80397 0,0.422964 -2.24365,-2.80397 -1.77636e-15,-0.422964 z "/>
<path fill="rgb(42,41,42)" stroke="rgb(42,41,42)" d="M 9.51129,10.8292 l 1.77636e-15,-4.57831 0.2625,-8.88178e-16 -1.77636e-15,5.48553 -0.00199778,0.0457568 -0.00597815,0.0454085 -0.00991301,0.0447147 -0.0137724,0.0436806 -0.017527,0.042314 -0.0211483,0.0406254 -0.0246085,0.0386276 -0.0278815,0.0363359 -0.0309423,0.0337676 -0.0337676,0.0309423 -0.0363359,0.0278815 -0.0386276,0.0246085 -0.0406254,0.0211483 -0.042314,0.017527 -0.0436806,0.0137724 -0.0447147,0.00991301 -0.0454085,0.00597815 -0.0457568,0.00199778 -8.47818,-1.06581e-14 -0.0457568,-0.00199778 -0.0454085,-0.00597815 -0.0447147,-0.00991301 -0.0436806,-0.0137724 -0.042314,-0.017527 -0.0406254,-0.0211483 -0.0386276,-0.0246085 -0.0363359,-0.0278815 -0.0337676,-0.0309423 -0.0309423,-0.0337676 -0.0278815,-0.0363359 -0.0246085,-0.0386276 -0.0211483,-0.0406254 -0.017527,-0.042314 -0.0137724,-0.0436806 -0.00991301,-0.0447147 -0.00597815,-0.0454085 -0.00199778,-0.0457568 0,-5.48553 0.2625,8.88178e-16 0,5.48553 0.000998892,0.0228784 0.00298907,0.0227043 0.00495651,0.0223574 0.00688622,0.0218403 0.00876352,0.021157 0.0105741,0.0203127 0.0123043,0.0193138 0.0139407,0.0181679 0.0154711,0.0168838 0.0168838,0.0154711 0.0181679,0.0139407 0.0193138,0.0123043 0.0203127,0.0105741 0.021157,0.00876352 0.0218403,0.00688622 0.0223574,0.00495651 0.0227043,0.00298907 0.0228784,0.000998892 7.98444,7.10543e-15 0.338443,0 0.155294,1.77636e-15 0.0222765,-0.000946935 0.0221158,-0.00283397 0.0217955,-0.00470057 0.021318,-0.00653324 0.0206867,-0.00831879 0.0199061,-0.0100443 0.0189819,-0.0116974 0.0186884,-0.0138888 0.0173841,-0.0154902 0.0159431,-0.0169698 0.0143766,-0.0183158 0.012697,-0.0195177 0.0109175,-0.0205661 0.00905205,-0.0214526 0.00711543,-0.0221704 0.00512282,-0.0227137 0.0030899,-0.0230783 0.00103268,-0.0232613 -1.77636e-15,-0.0612952 1.77636e-15,-0.422964 0,-0.422964 z "/>
<path fill="rgb(42,41,42)" stroke="rgb(42,41,42)" d="M 0.508116,6.25089 l -0.2625,-8.88178e-16 0,-5.49085 0.00199778,-0.0457568 0.00597815,-0.0454085 0.00991301,-0.0447147 0.0137724,-0.0436806 0.017527,-0.042314 0.0211483,-0.0406254 0.0246085,-0.0386276 0.0278815,-0.0363359 0.0309423,-0.0337676 0.0337676,-0.0309423 0.0363359,-0.0278815 0.0386276,-0.0246085 0.0406254,-0.0211483 0.042314,-0.017527 0.0436806,-0.0137724 0.0447147,-0.00991301 0.0454085,-0.00597815 0.0457568,-0.00199778 8.47818,7.99361e-15 0.0457568,0.00199778 0.0454085,0.00597815 0.0447147,0.00991301 0.0436806,0.0137724 0.042314,0.017527 0.0406254,0.0211483 0.0386276,0.0246085 0.0363359,0.0278815 0.0337676,0.0309423 0.0309423,0.0337676 0.0278815,0.0363359 0.0246085,0.0386276 0.0211483,0.0406254 0.017527,0.042314 0.0137724,0.0436806 0.00991301,0.0447147 0.00597815,0.0454085 0.00199778,0.0457568 0,5.49085 -0.2625,8.88178e-16 -1.77636e-15,-0.00265976 0,-5.48819 -0.000998892,-0.0228784 -0.00298907,-0.0227043 -0.00495651,-0.0223574 -0.00688622,-0.0218403 -0.00876352,-0.021157 -0.0105741,-0.0203127 -0.0123043,-0.0193138 -0.0139407,-0.0181679 -0.0154711,-0.0168838 -0.0168838,-0.0154711 -0.0181679,-0.0139407 -0.0193138,-0.0123043 -0.0203127,-0.0105741 -0.021157,-0.00876352 -0.0218403,-0.00688622 -0.0223574,-0.00495651 -0.0227043,-0.00298907 -0.0228784,-0.000998892 -8.00457,-8.88178e-15 -0.338443,0 -0.135165,0 -0.0214588,0.000878579 -0.0213152,0.00262986 -0.0210289,0.00436353 -0.0206018,0.00606799 -0.0200368,0.00773184 -0.0193377,0.00934393 -0.0185091,0.0108935 -0.0175566,0.0123701 -0.0183778,0.0154957 -0.0168832,0.0171119 -0.015247,0.0185847 -0.0134829,0.0199015 -0.0116058,0.0210515 -0.00963136,0.0220249 -0.00757613,0.0228137 -0.00545736,0.0234111 -0.00329283,0.0238121 -0.00110069,0.0240135 1.77636e-15,0.0864512 -1.77636e-15,0.422964 1.77636e-15,0.422964 -1.77636e-15,4.55581 0,0.00265976 z "/>
</g></g></svg>
