<?xml version="1.0" encoding="UTF-8" standalone="no"?>
<!DOCTYPE svg PUBLIC "-//W3C//DTD SVG 1.1//EN" "http://www.w3.org/Graphics/SVG/1.1/DTD/svg11-flat.dtd"
[

]>
<svg xmlns="http://www.w3.org/2000/svg"  viewBox="-0.125044 -0.125044 10.2536 12.7519"><g fill="none" stroke="black" stroke-width="0.0125" transform="translate(0,12.5018) scale(1, -1)">
<g id="Output" >
<path fill="rgb(241,240,234)" stroke="rgb(241,240,234)" d="M 3.07026,7.75813 l -0.142412,0.142412 -0.131086,-0.179806 -0.115539,-0.19017 -0.0991774,-0.199193 -0.0821166,-0.206811 -0.0644768,-0.212971 -0.0463823,-0.217629 -0.0279609,-0.220753 -0.00934224,-0.222321 0.00985279,-0.228304 0.0294851,-0.226606 0.0488982,-0.223224 0.0679476,-0.218181 0.0864918,-0.211516 0.104393,-0.203278 0.121518,-0.193528 0.137739,-0.18234 0.152936,-0.169795 0.166995,-0.155988 0.179813,-0.141021 0.191294,-0.125006 0.201352,-0.10806 0.209913,-0.0903116 0.216913,-0.0718913 0.222301,-0.0529364 0.226035,-0.0335879 0.228088,-0.0139895 0.228445,0.0057128 0.227104,0.0253727 0.224073,0.0448438 0.219377,0.0639816 0.213049,0.0826435 0.205137,0.100691 0.195699,0.11799 0.184807,0.134411 -0.142412,0.142412 -0.0538561,-0.0408437 -0.0549623,-0.0393425 -0.0560267,-0.0378113 -0.181059,-0.107761 -0.189648,-0.0918054 -0.196835,-0.0751712 -0.202566,-0.057981 -0.206799,-0.040362 -0.209502,-0.0224445 -0.210655,-0.00436092 -0.210251,0.0137549 -0.208292,0.0317689 -0.204792,0.049548 -0.199777,0.0669606 -0.193285,0.083878 -0.185364,0.100175 -0.176071,0.115731 -0.165476,0.130431 -0.153658,0.144167 -0.140702,0.156836 -0.126707,0.168345 -0.111774,0.17861 -0.0960141,0.187553 -0.0795444,0.195109 -0.0624864,0.201222 -0.0449662,0.205846 -0.0271134,0.208949 -0.00906015,0.210506 0.0084015,0.202723 0.0251469,0.201333 0.0417198,0.198562 0.0580066,0.194429 0.0738955,0.188962 0.0892777,0.1822 0.104048,0.174188 0.0378113,0.0560267 0.0393425,0.0549623 0.0408437,0.0538561 z "/>
<path fill="rgb(241,240,234)" stroke="rgb(241,240,234)" d="M 3.65937,8.30039 l -0.0560267,-0.0378113 -0.0549623,-0.0393425 -0.0538561,-0.0408437 3.43875,-3.43875 0.0408437,0.0538561 0.0393425,0.0549623 0.0378113,0.0560267 -3.3919,3.3919 z "/>
<path fill="rgb(241,240,234)" stroke="rgb(241,240,234)" d="M 3.65937,8.30039 l 0.181059,0.107761 0.189648,0.0918054 0.196835,0.0751712 0.202566,0.057981 0.206799,0.040362 0.209502,0.0224445 0.210655,0.00436092 0.210251,-0.0137549 0.208292,-0.0317689 0.204792,-0.049548 0.199777,-0.0669606 0.193285,-0.083878 0.185364,-0.100175 0.176071,-0.115731 0.165476,-0.130431 0.153658,-0.144167 0.140702,-0.156836 0.126707,-0.168345 0.111774,-0.17861 0.0960141,-0.187553 0.0795444,-0.195109 0.0624864,-0.201222 0.0449662,-0.205846 0.0271134,-0.208949 0.00906015,-0.210506 -0.0084015,-0.202723 -0.0251469,-0.201333 -0.0417198,-0.198562 -0.0580066,-0.194429 -0.0738955,-0.188962 -0.0892777,-0.1822 -0.104048,-0.174188 -0.0378113,-0.0560267 -0.0393425,-0.0549623 -0.0408437,-0.0538561 0.142412,-0.142412 0.131086,0.179806 0.115539,0.19017 0.0991774,0.199193 0.0821166,0.206811 0.0644768,0.212971 0.0463823,0.217629 0.0279609,0.220753 0.00934224,0.222321 -0.00985279,0.228304 -0.0294851,0.226606 -0.0488982,0.223224 -0.0679476,0.218181 -0.0864918,0.211516 -0.104393,0.203278 -0.121518,0.193528 -0.137739,0.18234 -0.152936,0.169795 -0.166995,0.155988 -0.179813,0.141021 -0.191294,0.125006 -0.201352,0.10806 -0.209913,0.0903116 -0.216913,0.0718913 -0.222301,0.0529364 -0.226035,0.0335879 -0.228088,0.0139895 -0.228445,-0.0057128 -0.227104,-0.0253727 -0.224073,-0.0448438 -0.219377,-0.0639816 -0.213049,-0.0826435 -0.205137,-0.100691 -0.195699,-0.11799 -0.184807,-0.134411 0.142412,-0.142412 0.0538561,0.0408437 0.0549623,0.0393425 0.0560267,0.0378113 z "/>
<path fill="rgb(241,240,234)" stroke="rgb(241,240,234)" d="M 3.07026,7.75813 l -0.0408437,-0.0538561 -0.0393425,-0.0549623 -0.0378113,-0.0560267 3.3919,-3.3919 0.0560267,0.0378113 0.0549623,0.0393425 0.0538561,0.0408437 -3.43875,3.43875 z "/>
<path fill="rgb(0,91,140)" stroke="rgb(0,91,140)" d="M 3.65937,8.30039 l 3.3919,-3.3919 0.104048,0.174188 0.0892777,0.1822 0.0738955,0.188962 0.0580066,0.194429 0.0417198,0.198562 0.0251469,0.201333 0.0084015,0.202723 -0.00906015,0.210506 -0.0271134,0.208949 -0.0449662,0.205846 -0.0624864,0.201222 -0.0795444,0.195109 -0.0960141,0.187553 -0.111774,0.17861 -0.126707,0.168345 -0.140702,0.156836 -0.153658,0.144167 -0.165476,0.130431 -0.176071,0.115731 -0.185364,0.100175 -0.193285,0.083878 -0.199777,0.0669606 -0.204792,0.049548 -0.208292,0.0317689 -0.210251,0.0137549 -0.210655,-0.00436092 -0.209502,-0.0224445 -0.206799,-0.040362 -0.202566,-0.057981 -0.196835,-0.0751712 -0.189648,-0.0918054 -0.181059,-0.107761 z "/>
<path fill="rgb(0,91,140)" stroke="rgb(0,91,140)" d="M 2.95226,7.59329 l -0.104048,-0.174188 -0.0892777,-0.1822 -0.0738955,-0.188962 -0.0580066,-0.194429 -0.0417198,-0.198562 -0.0251469,-0.201333 -0.0084015,-0.202723 0.00906015,-0.210506 0.0271134,-0.208949 0.0449662,-0.205846 0.0624864,-0.201222 0.0795444,-0.195109 0.0960141,-0.187553 0.111774,-0.17861 0.126707,-0.168345 0.140702,-0.156836 0.153658,-0.144167 0.165476,-0.130431 0.176071,-0.115731 0.185364,-0.100175 0.193285,-0.083878 0.199777,-0.0669606 0.204792,-0.049548 0.208292,-0.0317689 0.210251,-0.0137549 0.210655,0.00436092 0.209502,0.0224445 0.206799,0.040362 0.202566,0.057981 0.196835,0.0751712 0.189648,0.0918054 0.181059,0.107761 -3.3919,3.3919 z "/>
<path fill="rgb(241,240,234)" stroke="rgb(241,240,234)" d="M 1.45177,6.25089 l 0.0135088,-0.309403 0.0404237,-0.307048 0.0670308,-0.302357 0.0931279,-0.295364 0.118516,-0.286123 0.143002,-0.274705 0.1664,-0.261196 0.188532,-0.2457 0.209229,-0.228333 0.228333,-0.209229 0.2457,-0.188532 0.261196,-0.1664 0.274705,-0.143002 0.286123,-0.118516 0.295364,-0.0931279 0.302357,-0.0670308 0.307048,-0.0404237 0.309403,-0.0135088 0.309403,0.0135088 0.307048,0.0404237 0.302357,0.0670308 0.295364,0.0931279 0.286123,0.118516 0.274705,0.143002 0.261196,0.1664 0.2457,0.188532 0.228333,0.209229 0.209229,0.228333 0.188532,0.2457 0.1664,0.261196 0.143002,0.274705 0.118516,0.286123 0.0931279,0.295364 0.0670308,0.302357 0.0404237,0.307048 0.0135088,0.309403 -0.2,0 -0.0127478,-0.291972 -0.0381463,-0.28975 -0.0632545,-0.285322 -0.0878812,-0.278724 -0.111839,-0.270004 -0.134946,-0.259229 -0.157026,-0.246481 -0.17791,-0.231857 -0.197441,-0.215469 -0.215469,-0.197441 -0.231857,-0.17791 -0.246481,-0.157026 -0.259229,-0.134946 -0.270004,-0.111839 -0.278724,-0.0878812 -0.285322,-0.0632545 -0.28975,-0.0381463 -0.291972,-0.0127478 -0.291972,0.0127478 -0.28975,0.0381463 -0.285322,0.0632545 -0.278724,0.0878812 -0.270004,0.111839 -0.259229,0.134946 -0.246481,0.157026 -0.231857,0.17791 -0.215469,0.197441 -0.197441,0.215469 -0.17791,0.231857 -0.157026,0.246481 -0.134946,0.259229 -0.111839,0.270004 -0.0878812,0.278724 -0.0632545,0.285322 -0.0381463,0.28975 -0.0127478,0.291972 -0.2,0 z "/>
<path fill="rgb(241,240,234)" stroke="rgb(241,240,234)" d="M 1.45177,6.25089 l 0.2,0 0.0127478,0.291972 0.0381463,0.28975 0.0632545,0.285322 0.0878812,0.278724 0.111839,0.270004 0.134946,0.259229 0.157026,0.246481 0.17791,0.231857 0.197441,0.215469 0.215469,0.197441 0.231857,0.17791 0.246481,0.157026 0.259229,0.134946 0.270004,0.111839 0.278724,0.0878812 0.285322,0.0632545 0.28975,0.0381463 0.291972,0.0127478 0.291972,-0.0127478 0.28975,-0.0381463 0.285322,-0.0632545 0.278724,-0.0878812 0.270004,-0.111839 0.259229,-0.134946 0.246481,-0.157026 0.231857,-0.17791 0.215469,-0.197441 0.197441,-0.215469 0.17791,-0.231857 0.157026,-0.246481 0.134946,-0.259229 0.111839,-0.270004 0.0878812,-0.278724 0.0632545,-0.285322 0.0381463,-0.28975 0.0127478,-0.291972 0.2,0 -0.0135088,0.309403 -0.0404237,0.307048 -0.0670308,0.302357 -0.0931279,0.295364 -0.118516,0.286123 -0.143002,0.274705 -0.1664,0.261196 -0.188532,0.2457 -0.209229,0.228333 -0.228333,0.209229 -0.2457,0.188532 -0.261196,0.1664 -0.274705,0.143002 -0.286123,0.118516 -0.295364,0.0931279 -0.302357,0.0670308 -0.307048,0.0404237 -0.309403,0.0135088 -0.309403,-0.0135088 -0.307048,-0.0404237 -0.302357,-0.0670308 -0.295364,-0.0931279 -0.286123,-0.118516 -0.274705,-0.143002 -0.261196,-0.1664 -0.2457,-0.188532 -0.228333,-0.209229 -0.209229,-0.228333 -0.188532,-0.2457 -0.1664,-0.261196 -0.143002,-0.274705 -0.118516,-0.286123 -0.0931279,-0.295364 -0.0670308,-0.302357 -0.0404237,-0.307048 -0.0135088,-0.309403 z "/>
<path fill="rgb(241,240,234)" stroke="rgb(241,240,234)" d="M 0.508116,6.25089 l 0,-5.49085 0.000998892,-0.0228784 0.00298907,-0.0227043 0.00495651,-0.0223574 0.00688622,-0.0218403 0.00876352,-0.021157 0.0105741,-0.0203127 0.0123043,-0.0193138 0.0139407,-0.0181679 0.0154711,-0.0168838 0.0168838,-0.0154711 0.0181679,-0.0139407 0.0193138,-0.0123043 0.0203127,-0.0105741 0.021157,-0.00876352 0.0218403,-0.00688622 0.0223574,-0.00495651 0.0227043,-0.00298907 0.0228784,-0.000998892 8.47818,8.88178e-15 0.0228784,0.000998892 0.0227043,0.00298907 0.0223574,0.00495651 0.0218403,0.00688622 0.021157,0.00876352 0.0203127,0.0105741 0.0193138,0.0123043 0.0181679,0.0139407 0.0168838,0.0154711 0.0154711,0.0168838 0.0139407,0.0181679 0.0123043,0.0193138 0.0105741,0.0203127 0.00876352,0.021157 0.00688622,0.0218403 0.00495651,0.0223574 0.00298907,0.0227043 0.000998892,0.0228784 1.77636e-15,5.49085 -0.759525,-8.88178e-16 -0.0142699,-0.326834 -0.042701,-0.324347 -0.0708072,-0.319391 -0.0983745,-0.312004 -0.125193,-0.302243 -0.151059,-0.290182 -0.175775,-0.275912 -0.199154,-0.259542 -0.221016,-0.241197 -0.241197,-0.221016 -0.259542,-0.199154 -0.275912,-0.175775 -0.290182,-0.151059 -0.302243,-0.125193 -0.312004,-0.0983745 -0.319391,-0.0708072 -0.324347,-0.042701 -0.326834,-0.0142699 -0.326834,0.0142699 -0.324347,0.042701 -0.319391,0.0708072 -0.312004,0.0983745 -0.302243,0.125193 -0.290182,0.151059 -0.275912,0.175775 -0.259542,0.199154 -0.241197,0.221016 -0.221016,0.241197 -0.199154,0.259542 -0.175775,0.275912 -0.151059,0.290182 -0.125193,0.302243 -0.0983745,0.312004 -0.0708072,0.319391 -0.042701,0.324347 -0.0142699,0.326834 -0.743653,0 z "/>
<path fill="rgb(241,240,234)" stroke="rgb(241,240,234)" d="M 10.0035,6.25089 l -0.229744,0 0,-5.49085 -0.00199778,-0.0457568 -0.00597815,-0.0454085 -0.00991301,-0.0447147 -0.0137724,-0.0436806 -0.017527,-0.042314 -0.0211483,-0.0406254 -0.0246085,-0.0386276 -0.0278815,-0.0363359 -0.0309423,-0.0337676 -0.0337676,-0.0309423 -0.0363359,-0.0278815 -0.0386276,-0.0246085 -0.0406254,-0.0211483 -0.042314,-0.017527 -0.0436806,-0.0137724 -0.0447147,-0.00991301 -0.0454085,-0.00597815 -0.0457568,-0.00199778 -8.47818,-7.99361e-15 -0.0457568,0.00199778 -0.0454085,0.00597815 -0.0447147,0.00991301 -0.0436806,0.0137724 -0.042314,0.017527 -0.0406254,0.0211483 -0.0386276,0.0246085 -0.0363359,0.0278815 -0.0337676,0.0309423 -0.0309423,0.0337676 -0.0278815,0.0363359 -0.0246085,0.0386276 -0.0211483,0.0406254 -0.017527,0.042314 -0.0137724,0.0436806 -0.00991301,0.0447147 -0.00597815,0.0454085 -0.00199778,0.0457568 0,5.49085 -0.245616,1.77636e-15 0,-6.25089 10.0035,1.77636e-15 -1.77636e-15,6.25089 z "/>
<path fill="rgb(241,240,234)" stroke="rgb(241,240,234)" d="M 10.0035,6.25089 l -1.77636e-15,6.25089 -10.0035,0 0,-6.25089 0.245616,-1.77636e-15 0,5.48553 0.00199778,0.0457568 0.00597815,0.0454085 0.00991301,0.0447147 0.0137724,0.0436806 0.017527,0.042314 0.0211483,0.0406254 0.0246085,0.0386276 0.0278815,0.0363359 0.0309423,0.0337676 0.0337676,0.0309423 0.0363359,0.0278815 0.0386276,0.0246085 0.0406254,0.0211483 0.042314,0.017527 0.0436806,0.0137724 0.0447147,0.00991301 0.0454085,0.00597815 0.0457568,0.00199778 8.47818,1.06581e-14 0.0457568,-0.00199778 0.0454085,-0.00597815 0.0447147,-0.00991301 0.0436806,-0.0137724 0.042314,-0.017527 0.0406254,-0.0211483 0.0386276,-0.0246085 0.0363359,-0.0278815 0.0337676,-0.0309423 0.0309423,-0.0337676 0.0278815,-0.0363359 0.0246085,-0.0386276 0.0211483,-0.0406254 0.017527,-0.042314 0.0137724,-0.0436806 0.00991301,-0.0447147 0.00597815,-0.0454085 0.00199778,-0.0457568 1.77636e-15,-5.48553 0.229744,0 z "/>
<path fill="rgb(241,240,234)" stroke="rgb(241,240,234)" d="M 0.508116,6.25089 l 0.743653,0 0.0142699,0.326834 0.042701,0.324347 0.0708072,0.319391 0.0983745,0.312004 0.125193,0.302243 0.151059,0.290182 0.175775,0.275912 0.199154,0.259542 0.221016,0.241197 0.241197,0.221016 0.259542,0.199154 0.275912,0.175775 0.290182,0.151059 0.302243,0.125193 0.312004,0.0983745 0.319391,0.0708072 0.324347,0.042701 0.326834,0.0142699 0.326834,-0.0142699 0.324347,-0.042701 0.319391,-0.0708072 0.312004,-0.0983745 0.302243,-0.125193 0.290182,-0.151059 0.275912,-0.175775 0.259542,-0.199154 0.241197,-0.221016 0.221016,-0.241197 0.199154,-0.259542 0.175775,-0.275912 0.151059,-0.290182 0.125193,-0.302243 0.0983745,-0.312004 0.0708072,-0.319391 0.042701,-0.324347 0.0142699,-0.326834 0.759525,8.88178e-16 -1.77636e-15,5.48553 -0.000998892,0.0228784 -0.00298907,0.0227043 -0.00495651,0.0223574 -0.00688622,0.0218403 -0.00876352,0.021157 -0.0105741,0.0203127 -0.0123043,0.0193138 -0.0139407,0.0181679 -0.0154711,0.0168838 -0.0168838,0.0154711 -0.0181679,0.0139407 -0.0193138,0.0123043 -0.0203127,0.0105741 -0.021157,0.00876352 -0.0218403,0.00688622 -0.0223574,0.00495651 -0.0227043,0.00298907 -0.0228784,0.000998892 -8.47818,-8.88178e-15 -0.0228784,-0.000998892 -0.0227043,-0.00298907 -0.0223574,-0.00495651 -0.0218403,-0.00688622 -0.021157,-0.00876352 -0.0203127,-0.0105741 -0.0193138,-0.0123043 -0.0181679,-0.0139407 -0.0168838,-0.0154711 -0.0154711,-0.0168838 -0.0139407,-0.0181679 -0.0123043,-0.0193138 -0.0105741,-0.0203127 -0.00876352,-0.021157 -0.00688622,-0.0218403 -0.00495651,-0.0223574 -0.00298907,-0.0227043 -0.000998892,-0.0228784 0,-5.48553 z "/>
<path fill="rgb(42,41,42)" stroke="rgb(42,41,42)" d="M 6.92646,11.4646 l -0.730189,0 0,-0.999289 0.745926,0 0,0.1794 -0.563379,0 0,0.272247 0.297426,0 0,0.182547 -0.297426,0 0,0.187268 0.547642,0 0,0.177826 z "/>
<path fill="rgb(42,41,42)" stroke="rgb(42,41,42)" d="M 5.93661,11.4646 l -0.171532,0 0,-0.659373 0.0188842,-0.339916 0.152647,0 0,0.999289 z "/>
<path fill="rgb(42,41,42)" stroke="rgb(42,41,42)" d="M 5.30556,11.4646 l 0,-0.311589 0.4784,-0.6877 -0.0188842,0.339916 -0.459516,0.659373 z "/>
<path fill="rgb(42,41,42)" stroke="rgb(42,41,42)" d="M 5.30556,11.4646 l -0.174679,0 0,-0.999289 0.174679,0 0,0.6877 0,0.311589 z "/>
<path fill="rgb(42,41,42)" stroke="rgb(42,41,42)" d="M 4.48567,11.4819 l -0.0110158,0 -0.0897,-0.0110158 -0.0786842,-0.0251789 -0.0708158,-0.0424895 -0.0598,-0.0582263 -0.0299,-0.0409158 0.339916,0 0.0377684,-0.00314737 0.0771105,-0.0283263 0.0598,-0.0582263 0.034621,-0.0660947 0.0204579,-0.0834052 0.00629474,-0.0975684 -0.00314737,-0.0708158 -0.0157368,-0.0865526 -0.0283263,-0.0723895 -0.0377684,-0.0519316 -0.0660947,-0.0440631 -0.0849789,-0.0141632 -0.321031,-0.0141632 0.0236053,-0.0330474 0.0613737,-0.0582263 0.0692421,-0.0409158 0.0786842,-0.0251789 0.0881263,-0.00786842 0.00786842,0 0.0865526,0.0094421 0.0786842,0.0283263 0.0692421,0.0440631 0.0598,0.0629474 0.0283263,0.0409158 0.0361947,0.0708158 0.0267526,0.0802579 0.0157368,0.0881263 0.00472105,0.0975684 -0.00157368,0.0566526 -0.0125895,0.0912737 -0.0220316,0.0834052 -0.0330474,0.0739631 -0.0440631,0.0660947 -0.00157368,0.00157368 -0.0613737,0.0598 -0.0692421,0.0440631 -0.0802579,0.0251789 -0.0881263,0.0094421 z "/>
<path fill="rgb(42,41,42)" stroke="rgb(42,41,42)" d="M 4.14576,11.3041 l -0.0361947,-0.0692421 -0.0251789,-0.0802579 -0.0157368,-0.0881263 -0.00472105,-0.0991421 0,-0.0299 0.0094421,-0.0928473 0.0188842,-0.0834052 0.0299,-0.0786842 0.0424895,-0.0692421 0.321031,0.0141632 -0.0377684,0.00314737 -0.0771105,0.0283263 -0.0613737,0.0582263 0,0.00157368 -0.0361947,0.0676684 -0.0204579,0.0818316 -0.00786842,0.0991421 0.00786842,0.0975684 0.0220316,0.0818316 0.034621,0.0676684 0.0236053,0.0283263 0.0676684,0.0456368 0.0849789,0.0157368 -0.339916,0 z "/>
<path fill="rgb(42,41,42)" stroke="rgb(42,41,42)" d="M 3.89554,11.4646 l -0.752221,0 0,-0.176253 0.535052,0 -0.5681,-0.620031 0,-0.203005 0.785268,0 0,0.1794 -0.563379,0 0.563379,0.616884 0,0.203005 z "/>
<path fill="rgb(187,30,16)" stroke="rgb(187,30,16)" d="M 3.35211,8.32481 l -0.151993,-0.13058 -0.141691,-0.141691 -0.13058,-0.151993 0.142412,-0.142412 3.43875,-3.43875 0.142412,-0.142412 0.151993,0.13058 0.141691,0.141691 0.13058,0.151993 -0.142412,0.142412 -3.43875,3.43875 -0.142412,0.142412 z "/>
<path fill="rgb(187,30,16)" stroke="rgb(187,30,16)" d="M 1.45177,6.25089 l -0.2,0 0.0142699,-0.326834 0.042701,-0.324347 0.0708072,-0.319391 0.0983745,-0.312004 0.125193,-0.302243 0.151059,-0.290182 0.175775,-0.275912 0.199154,-0.259542 0.221016,-0.241197 0.241197,-0.221016 0.259542,-0.199154 0.275912,-0.175775 0.290182,-0.151059 0.302243,-0.125193 0.312004,-0.0983745 0.319391,-0.0708072 0.324347,-0.042701 0.326834,-0.0142699 0.326834,0.0142699 0.324347,0.042701 0.319391,0.0708072 0.312004,0.0983745 0.302243,0.125193 0.290182,0.151059 0.275912,0.175775 0.259542,0.199154 0.241197,0.221016 0.221016,0.241197 0.199154,0.259542 0.175775,0.275912 0.151059,0.290182 0.125193,0.302243 0.0983745,0.312004 0.0708072,0.319391 0.042701,0.324347 0.0142699,0.326834 -0.2,0 -0.0135088,-0.309403 -0.0404237,-0.307048 -0.0670308,-0.302357 -0.0931279,-0.295364 -0.118516,-0.286123 -0.143002,-0.274705 -0.1664,-0.261196 -0.188532,-0.2457 -0.209229,-0.228333 -0.228333,-0.209229 -0.2457,-0.188532 -0.261196,-0.1664 -0.274705,-0.143002 -0.286123,-0.118516 -0.295364,-0.0931279 -0.302357,-0.0670308 -0.307048,-0.0404237 -0.309403,-0.0135088 -0.309403,0.0135088 -0.307048,0.0404237 -0.302357,0.0670308 -0.295364,0.0931279 -0.286123,0.118516 -0.274705,0.143002 -0.261196,0.1664 -0.2457,0.188532 -0.228333,0.209229 -0.209229,0.228333 -0.188532,0.2457 -0.1664,0.261196 -0.143002,0.274705 -0.118516,0.286123 -0.0931279,0.295364 -0.0670308,0.302357 -0.0404237,0.307048 -0.0135088,0.309403 z "/>
<path fill="rgb(187,30,16)" stroke="rgb(187,30,16)" d="M 1.45177,6.25089 l 0.0135088,0.309403 0.0404237,0.307048 0.0670308,0.302357 0.0931279,0.295364 0.118516,0.286123 0.143002,0.274705 0.1664,0.261196 0.188532,0.2457 0.209229,0.228333 0.228333,0.209229 0.2457,0.188532 0.261196,0.1664 0.274705,0.143002 0.286123,0.118516 0.295364,0.0931279 0.302357,0.0670308 0.307048,0.0404237 0.309403,0.0135088 0.309403,-0.0135088 0.307048,-0.0404237 0.302357,-0.0670308 0.295364,-0.0931279 0.286123,-0.118516 0.274705,-0.143002 0.261196,-0.1664 0.2457,-0.188532 0.228333,-0.209229 0.209229,-0.228333 0.188532,-0.2457 0.1664,-0.261196 0.143002,-0.274705 0.118516,-0.286123 0.0931279,-0.295364 0.0670308,-0.302357 0.0404237,-0.307048 0.0135088,-0.309403 0.2,0 -0.0142699,0.326834 -0.042701,0.324347 -0.0708072,0.319391 -0.0983745,0.312004 -0.125193,0.302243 -0.151059,0.290182 -0.175775,0.275912 -0.199154,0.259542 -0.221016,0.241197 -0.241197,0.221016 -0.259542,0.199154 -0.275912,0.175775 -0.290182,0.151059 -0.302243,0.125193 -0.312004,0.0983745 -0.319391,0.0708072 -0.324347,0.042701 -0.326834,0.0142699 -0.326834,-0.0142699 -0.324347,-0.042701 -0.319391,-0.0708072 -0.312004,-0.0983745 -0.302243,-0.125193 -0.290182,-0.151059 -0.275912,-0.175775 -0.259542,-0.199154 -0.241197,-0.221016 -0.221016,-0.241197 -0.199154,-0.259542 -0.175775,-0.275912 -0.151059,-0.290182 -0.125193,-0.302243 -0.0983745,-0.312004 -0.0708072,-0.319391 -0.042701,-0.324347 -0.0142699,-0.326834 0.2,0 z "/>
<path fill="rgb(187,30,16)" stroke="rgb(187,30,16)" d="M 8.35177,6.25089 l -0.7,0 -0.00934224,-0.222321 -0.0279609,-0.220753 -0.0463823,-0.217629 -0.0644768,-0.212971 -0.0821166,-0.206811 -0.0991774,-0.199193 -0.115539,-0.19017 -0.131086,-0.179806 -0.13058,-0.151993 -0.141691,-0.141691 -0.151993,-0.13058 -0.184807,-0.134411 -0.195699,-0.11799 -0.205137,-0.100691 -0.213049,-0.0826435 -0.219377,-0.0639816 -0.224073,-0.0448438 -0.227104,-0.0253727 -0.228445,-0.0057128 -0.228088,0.0139895 -0.226035,0.0335879 -0.222301,0.0529364 -0.216913,0.0718913 -0.209913,0.0903116 -0.201352,0.10806 -0.191294,0.125006 -0.179813,0.141021 -0.166995,0.155988 -0.152936,0.169795 -0.137739,0.18234 -0.121518,0.193528 -0.104393,0.203278 -0.0864918,0.211516 -0.0679476,0.218181 -0.0488982,0.223224 -0.0294851,0.226606 -0.00985279,0.228304 -0.7,0 0.0127478,-0.291972 0.0381463,-0.28975 0.0632545,-0.285322 0.0878812,-0.278724 0.111839,-0.270004 0.134946,-0.259229 0.157026,-0.246481 0.17791,-0.231857 0.197441,-0.215469 0.215469,-0.197441 0.231857,-0.17791 0.246481,-0.157026 0.259229,-0.134946 0.270004,-0.111839 0.278724,-0.0878812 0.285322,-0.0632545 0.28975,-0.0381463 0.291972,-0.0127478 0.291972,0.0127478 0.28975,0.0381463 0.285322,0.0632545 0.278724,0.0878812 0.270004,0.111839 0.259229,0.134946 0.246481,0.157026 0.231857,0.17791 0.215469,0.197441 0.197441,0.215469 0.17791,0.231857 0.157026,0.246481 0.134946,0.259229 0.111839,0.270004 0.0878812,0.278724 0.0632545,0.285322 0.0381463,0.28975 0.0127478,0.291972 z "/>
<path fill="rgb(187,30,16)" stroke="rgb(187,30,16)" d="M 3.35211,8.32481 l 0.184807,0.134411 0.195699,0.11799 0.205137,0.100691 0.213049,0.0826435 0.219377,0.0639816 0.224073,0.0448438 0.227104,0.0253727 0.228445,0.0057128 0.228088,-0.0139895 0.226035,-0.0335879 0.222301,-0.0529364 0.216913,-0.0718913 0.209913,-0.0903116 0.201352,-0.10806 0.191294,-0.125006 0.179813,-0.141021 0.166995,-0.155988 0.152936,-0.169795 0.137739,-0.18234 0.121518,-0.193528 0.104393,-0.203278 0.0864918,-0.211516 0.0679476,-0.218181 0.0488982,-0.223224 0.0294851,-0.226606 0.00985279,-0.228304 0.7,0 -0.0127478,0.291972 -0.0381463,0.28975 -0.0632545,0.285322 -0.0878812,0.278724 -0.111839,0.270004 -0.134946,0.259229 -0.157026,0.246481 -0.17791,0.231857 -0.197441,0.215469 -0.215469,0.197441 -0.231857,0.17791 -0.246481,0.157026 -0.259229,0.134946 -0.270004,0.111839 -0.278724,0.0878812 -0.285322,0.0632545 -0.28975,0.0381463 -0.291972,0.0127478 -0.291972,-0.0127478 -0.28975,-0.0381463 -0.285322,-0.0632545 -0.278724,-0.0878812 -0.270004,-0.111839 -0.259229,-0.134946 -0.246481,-0.157026 -0.231857,-0.17791 -0.215469,-0.197441 -0.197441,-0.215469 -0.17791,-0.231857 -0.157026,-0.246481 -0.134946,-0.259229 -0.111839,-0.270004 -0.0878812,-0.278724 -0.0632545,-0.285322 -0.0381463,-0.28975 -0.0127478,-0.291972 0.7,0 0.00934224,0.222321 0.0279609,0.220753 0.0463823,0.217629 0.0644768,0.212971 0.0821166,0.206811 0.0991774,0.199193 0.115539,0.19017 0.131086,0.179806 0.13058,0.151993 0.141691,0.141691 0.151993,0.13058 z "/>
<path fill="rgb(42,41,42)" stroke="rgb(42,41,42)" d="M 0.508116,6.25089 l 0,5.48553 0.000998892,0.0228784 0.00298907,0.0227043 0.00495651,0.0223574 0.00688622,0.0218403 0.00876352,0.021157 0.0105741,0.0203127 0.0123043,0.0193138 0.0139407,0.0181679 0.0154711,0.0168838 0.0168838,0.0154711 0.0181679,0.0139407 0.0193138,0.0123043 0.0203127,0.0105741 0.021157,0.00876352 0.0218403,0.00688622 0.0223574,0.00495651 0.0227043,0.00298907 0.0228784,0.000998892 8.47818,8.88178e-15 0.0228784,-0.000998892 0.0227043,-0.00298907 0.0223574,-0.00495651 0.0218403,-0.00688622 0.021157,-0.00876352 0.0203127,-0.0105741 0.0193138,-0.0123043 0.0181679,-0.0139407 0.0168838,-0.0154711 0.0154711,-0.0168838 0.0139407,-0.0181679 0.0123043,-0.0193138 0.0105741,-0.0203127 0.00876352,-0.021157 0.00688622,-0.0218403 0.00495651,-0.0223574 0.00298907,-0.0227043 0.000998892,-0.0228784 1.77636e-15,-5.48553 0.2625,-8.88178e-16 -1.77636e-15,5.48553 -0.00199778,0.0457568 -0.00597815,0.0454085 -0.00991301,0.0447147 -0.0137724,0.0436806 -0.017527,0.042314 -0.0211483,0.0406254 -0.0246085,0.0386276 -0.0278815,0.0363359 -0.0309423,0.0337676 -0.0337676,0.0309423 -0.0363359,0.0278815 -0.0386276,0.0246085 -0.0406254,0.0211483 -0.042314,0.017527 -0.0436806,0.0137724 -0.0447147,0.00991301 -0.0454085,0.00597815 -0.0457568,0.00199778 -8.47818,-1.06581e-14 -0.0457568,-0.00199778 -0.0454085,-0.00597815 -0.0447147,-0.00991301 -0.0436806,-0.0137724 -0.042314,-0.017527 -0.0406254,-0.0211483 -0.0386276,-0.0246085 -0.0363359,-0.0278815 -0.0337676,-0.0309423 -0.0309423,-0.0337676 -0.0278815,-0.0363359 -0.0246085,-0.0386276 -0.0211483,-0.0406254 -0.017527,-0.042314 -0.0137724,-0.0436806 -0.00991301,-0.0447147 -0.00597815,-0.0454085 -0.00199778,-0.0457568 0,-5.48553 0.2625,8.88178e-16 z "/>
<path fill="rgb(42,41,42)" stroke="rgb(42,41,42)" d="M 0.508116,6.25089 l -0.2625,-8.88178e-16 0,-5.49085 0.00199778,-0.0457568 0.00597815,-0.0454085 0.00991301,-0.0447147 0.0137724,-0.0436806 0.017527,-0.042314 0.0211483,-0.0406254 0.0246085,-0.0386276 0.0278815,-0.0363359 0.0309423,-0.0337676 0.0337676,-0.0309423 0.0363359,-0.0278815 0.0386276,-0.0246085 0.0406254,-0.0211483 0.042314,-0.017527 0.0436806,-0.0137724 0.0447147,-0.00991301 0.0454085,-0.00597815 0.0457568,-0.00199778 8.47818,7.99361e-15 0.0457568,0.00199778 0.0454085,0.00597815 0.0447147,0.00991301 0.0436806,0.0137724 0.042314,0.017527 0.0406254,0.0211483 0.0386276,0.0246085 0.0363359,0.0278815 0.0337676,0.0309423 0.0309423,0.0337676 0.0278815,0.0363359 0.0246085,0.0386276 0.0211483,0.0406254 0.017527,0.042314 0.0137724,0.0436806 0.00991301,0.0447147 0.00597815,0.0454085 0.00199778,0.0457568 0,5.49085 -0.2625,8.88178e-16 -1.77636e-15,-5.49085 -0.000998892,-0.0228784 -0.00298907,-0.0227043 -0.00495651,-0.0223574 -0.00688622,-0.0218403 -0.00876352,-0.021157 -0.0105741,-0.0203127 -0.0123043,-0.0193138 -0.0139407,-0.0181679 -0.0154711,-0.0168838 -0.0168838,-0.0154711 -0.0181679,-0.0139407 -0.0193138,-0.0123043 -0.0203127,-0.0105741 -0.021157,-0.00876352 -0.0218403,-0.00688622 -0.0223574,-0.00495651 -0.0227043,-0.00298907 -0.0228784,-0.000998892 -8.47818,-8.88178e-15 -0.0228784,0.000998892 -0.0227043,0.00298907 -0.0223574,0.00495651 -0.0218403,0.00688622 -0.021157,0.00876352 -0.0203127,0.0105741 -0.0193138,0.0123043 -0.0181679,0.0139407 -0.0168838,0.0154711 -0.0154711,0.0168838 -0.0139407,0.0181679 -0.0123043,0.0193138 -0.0105741,0.0203127 -0.00876352,0.021157 -0.00688622,0.0218403 -0.00495651,0.0223574 -0.00298907,0.0227043 -0.000998892,0.0228784 0,5.49085 z "/>
</g></g></svg>
