<?xml version="1.0" encoding="UTF-8" standalone="no"?>
<!DOCTYPE svg PUBLIC "-//W3C//DTD SVG 1.1//EN" "http://www.w3.org/Graphics/SVG/1.1/DTD/svg11-flat.dtd"
[

]>
<svg xmlns="http://www.w3.org/2000/svg"  viewBox="-0.09375 -0.09375 7.6875 7.6875"><g fill="none" stroke="black" stroke-width="0.0125" transform="translate(0,7.5) scale(1, -1)">
<g id="Output" >
<path fill="rgb(241,240,234)" stroke="rgb(241,240,234)" d="M 1.87417,2.892 l 0,-1.75035 -0.348339,-8.88178e-16 0,1.90345 0.718775,0.659718 -0.369037,0.251246 -0.00491078,0.0036644 -0.00457521,0.00407566 -0.00420532,0.00445633 -0.00380386,0.00480356 -0.00337386,0.00511475 -0.00291854,0.00538755 -0.00244132,0.00561992 -0.00194577,0.00581012 -0.00143563,0.00595672 -0.000914712,0.00605862 -0.000386931,0.00611505 0.000143754,0.00612559 0.00067336,0.00609017 0.00119791,0.00600904 0.00171348,0.00588282 0.00221618,0.00571245 0.00270226,0.00549922 0.00316805,0.00524471 0.00361007,0.00495085 0.00402501,0.00461984 0.00440973,0.00425416 0.00476137,0.00385655 0.00507727,0.00343 0.00535507,0.00297771 0.00559269,0.00250308 0.00578833,0.00200966 0.00594054,0.00150117 1.09256,0.150865 0.00616751,0.000577313 0.00619438,3.4485e-05 0.00617356,-0.000508609 0.00610522,-0.00104779 0.00598987,-0.0015789 0.00582842,-0.00209786 0.0056221,-0.00260067 0.00537251,-0.00308345 0.00508155,-0.00354251 0.00475148,-0.00397429 0.00438483,-0.00437548 0.00398442,-0.00474298 0.00355335,-0.00507398 0.00309492,-0.00536591 0.00261266,-0.00561654 0.00211029,-0.00582393 0.00159168,-0.00598649 0.00106082,-0.00610296 0.000521787,-0.00617246 -2.12611e-05,-0.00619444 -0.000564145,-0.00616873 -0.00110269,-0.00609554 -1.5099e-14,-6.66134e-14 -0.244814,-1.0745 -0.00161208,-0.00586714 -0.00212298,-0.0057022 -0.00261736,-0.00549287 -0.00309136,-0.00524077 -0.00354129,-0.00494787 -0.00396365,-0.00461645 -0.00435515,-0.00424909 -0.00471275,-0.00384866 -0.00503366,-0.00341825 -0.00531538,-0.00296124 -0.00555571,-0.00248117 -0.0057528,-0.00198178 -0.0059051,-0.00146697 -0.00601142,-0.000940737 -0.00607095,-0.000407178 -0.00608321,0.00012955 -0.00604811,0.00066527 -0.00596592,0.00119581 -0.00583729,0.00171704 -0.00566321,0.0022249 -0.00544505,0.00271545 -0.00518449,0.00318485 -0.00488357,0.00362945 -0.00454463,0.0040458 -0.00417031,0.00443066 -0.00376352,0.00478101 -0.00332743,0.00509415 -0.00286544,0.00536763 -0.217697,0.388012 -0.60598,-0.556191 z "/>
<path fill="rgb(0,91,140)" stroke="rgb(0,91,140)" d="M 6.8,0.4 l 0.0261467,0.00114159 0.0259477,0.00341608 0.0255513,0.00566458 0.0249603,0.00786996 0.0241794,0.0100155 0.0232145,0.0120847 0.0220729,0.014062 0.0207634,0.0159323 0.0192958,0.0176813 0.0176813,0.0192958 0.0159323,0.0207634 0.014062,0.0220729 0.0120847,0.0232145 0.0100155,0.0241794 0.00786996,0.0249603 0.00566458,0.0255513 0.00341608,0.0259477 0.00114159,0.0261467 0,0.7 -0.7,0 0,-1 0.4,0 z "/>
<path fill="rgb(0,91,140)" stroke="rgb(0,91,140)" d="M 5.4,7.1 l 0,-0.7 1,0 0,0.7 -1,0 z "/>
<path fill="rgb(0,91,140)" stroke="rgb(0,91,140)" d="M 5.54973,5.4 l 0.0760992,0 0,0.0178567 -0.0760992,-0.0178567 z M 6.04999,5.4 l -0.0758231,0.0178567 0,-0.0178567 0.0758231,0 z M 5.4,5.83382 l 0.341943,0.494107 0.00374511,0.00493413 0.00416319,0.00458687 0.00454922,0.0042043 0.00490023,0.00378936 0.00521352,0.00334525 0.00548668,0.00287539 0.0057176,0.00238339 0.00590451,0.00187305 0.00604596,0.00134829 0.00614087,0.000813147 0.00618851,0.000271746 0.00618851,-0.000271746 0.00614087,-0.000813147 0.00604596,-0.00134829 0.00590451,-0.00187305 0.0057176,-0.00238339 0.00548668,-0.00287539 0.00521352,-0.00334525 0.00490023,-0.00378936 0.00454922,-0.0042043 0.00416319,-0.00458687 0.00374511,-0.00493413 3.12444e-05,-4.51857e-05 3.12093e-05,-4.521e-05 3.11741e-05,-4.52343e-05 0.541853,-0.784932 0,0.85714 -1,0 0,-0.566179 z "/>
<path fill="rgb(0,91,140)" stroke="rgb(0,91,140)" d="M 5.62583,3.4 l 0,1 -0.225832,0 0,-1 0.225832,0 z M 5.97417,3.4 l 0.425829,0 0,1 -0.425829,0 0,-1 z "/>
<path fill="rgb(0,91,140)" stroke="rgb(0,91,140)" d="M 5.62583,2.4 l 0,1 -0.225832,0 0,-1 0.225832,0 z M 5.97417,2.4 l 0.425829,0 0,1 -0.425829,0 0,-1 z "/>
<path fill="rgb(0,91,140)" stroke="rgb(0,91,140)" d="M 5.62583,1.4 l 0,1 -0.225832,0 0,-1 0.225832,0 z M 5.97417,1.4 l 0.425829,0 0,1 -0.425829,0 0,-1 z "/>
<path fill="rgb(0,91,140)" stroke="rgb(0,91,140)" d="M 6.4,0.4 l 0,1 -0.425829,0 0,-0.258352 -0.348339,-4.44089e-16 0,0.258352 -0.225832,0 0,-1 1,0 z "/>
<path fill="rgb(0,91,140)" stroke="rgb(0,91,140)" d="M 4.4,7.1 l 0,-0.7 1,0 0,0.7 -1,0 z "/>
<path fill="rgb(0,91,140)" stroke="rgb(0,91,140)" d="M 4.4,5.47043 l 0.0341237,-0.0494319 0.00323239,-0.00515498 0.00276541,-0.00541984 0.00227689,-0.00564251 0.0014541,-0.00478055 0.662175,0 0.000998871,0.0041701 0.00193765,0.00581284 0.00243346,0.00562333 0.00291101,0.00539162 0.285691,0.412823 0,0.566179 -1,0 0,-0.92957 z "/>
<path fill="rgb(0,91,140)" stroke="rgb(0,91,140)" d="M 5.62583,4.4 l 0,1 -0.0760992,0 -0.149733,-0.0351348 0,-0.964865 0.225832,0 z M 6.04999,5.4 l -0.0758231,0 0,-1 0.425829,0 0,0.917572 -0.350006,0.0824278 z "/>
<path fill="rgb(0,91,140)" stroke="rgb(0,91,140)" d="M 1.4,0.4 l 0,1 -1,0 8.88178e-16,-0.7 0.00114159,-0.0261467 0.00341608,-0.0259477 0.00566458,-0.0255513 0.00786996,-0.0249603 0.0100155,-0.0241794 0.0120847,-0.0232145 0.014062,-0.0220729 0.0159323,-0.0207634 0.0176813,-0.0192958 0.0192958,-0.0176813 0.0207634,-0.0159323 0.0220729,-0.014062 0.0232145,-0.0120847 0.0241794,-0.0100155 0.0249603,-0.00786996 0.0255513,-0.00566458 0.0259477,-0.00341608 0.0261467,-0.00114159 0.7,0 z "/>
<path fill="rgb(0,91,140)" stroke="rgb(0,91,140)" d="M 5.4,5.36487 l -0.208808,-0.0489966 -0.00602029,-0.00114005 -0.00609636,-0.000614745 -0.00612669,-8.4822e-05 -0.00611105,0.000445737 -0.00604954,0.000972951 -0.00594264,0.00149286 -0.00579114,0.00200157 -0.00559618,0.00249526 -0.00535923,0.00297023 -0.00508206,0.0034229 -0.00476675,0.00384989 -0.00441567,0.00424799 -0.00403146,0.00461421 -0.00361699,0.0049458 -0.00317538,0.00524028 -0.00270994,0.00549543 -0.00222416,0.00570935 -0.0017217,0.00588042 -0.00120631,0.00600736 -0.00068187,0.00608922 -0.000152314,0.00612539 0.000378385,0.00611559 0.000906245,0.00605989 0.000428433,0.00178863 -0.662175,0 0.000316549,-0.0010407 0.00125063,-0.00595467 0.000720865,-0.00604173 0.00018549,-0.00608176 -0.000351328,-0.00607443 -0.000885411,-0.00601982 -0.0014126,-0.00591834 -0.00192879,-0.00577078 -0.00242997,-0.0055783 -0.00291223,-0.00534239 -0.00337181,-0.00506488 -0.00380515,-0.00474795 -0.00420886,-0.00439405 -0.00457981,-0.00400594 -0.0049151,-0.00358664 -0.00521212,-0.00313942 -0.00546856,-0.00266777 -0.00484432,-0.00185449 0,-0.916716 1,0 0,0.964865 z "/>
<path fill="rgb(0,91,140)" stroke="rgb(0,91,140)" d="M 4.4,3.4 l 1,0 0,1 -1,0 0,-1 z "/>
<path fill="rgb(0,91,140)" stroke="rgb(0,91,140)" d="M 0.4,1.4 l 1,0 0,1 -1,0 0,-1 z "/>
<path fill="rgb(0,91,140)" stroke="rgb(0,91,140)" d="M 4.4,2.4 l 1,0 0,1 -1,0 0,-1 z "/>
<path fill="rgb(0,91,140)" stroke="rgb(0,91,140)" d="M 4.4,1.4 l 1,0 0,1 -1,0 0,-1 z "/>
<path fill="rgb(0,91,140)" stroke="rgb(0,91,140)" d="M 4.4,0.4 l 1,0 0,1 -1,0 0,-1 z "/>
<path fill="rgb(0,91,140)" stroke="rgb(0,91,140)" d="M 3.4,6.4 l 1,0 0,0.7 -1,-8.88178e-16 0,-0.7 z "/>
<path fill="rgb(0,91,140)" stroke="rgb(0,91,140)" d="M 0.4,2.4 l 1,0 0,1 -1,0 0,-1 z "/>
<path fill="rgb(0,91,140)" stroke="rgb(0,91,140)" d="M 2.4,1.4 l 1,0 0,1 -1,0 0,-1 z "/>
<path fill="rgb(0,91,140)" stroke="rgb(0,91,140)" d="M 3.49973,5.4 l 0.0760992,0 0,0.0178567 -0.0760992,-0.0178567 z M 4.4,5.47043 l 0,0.92957 -1,0 0,-0.493929 0.291943,0.421857 0.00374511,0.00493413 0.00416319,0.00458687 0.00454922,0.0042043 0.00490023,0.00378936 0.00521352,0.00334525 0.00548668,0.00287539 0.0057176,0.00238339 0.00590451,0.00187305 0.00604596,0.00134829 0.00614087,0.000813147 0.00618851,0.000271746 0.00618851,-0.000271746 0.00614087,-0.000813147 0.00604596,-0.00134829 0.00590451,-0.00187305 0.0057176,-0.00238339 0.00548668,-0.00287539 0.00521352,-0.00334525 0.00490023,-0.00378936 0.00454922,-0.0042043 0.00416319,-0.00458687 0.00374511,-0.00493413 3.12444e-05,-4.51857e-05 3.12093e-05,-4.521e-05 3.11741e-05,-4.52343e-05 0.591853,-0.857362 z M 3.99999,5.4 l -0.0758231,0.0178567 0,-0.0178567 0.0758231,0 z "/>
<path fill="rgb(0,91,140)" stroke="rgb(0,91,140)" d="M 0.4,3.4 l 1,0 0,1 -1,0 4.44089e-16,-0.65 -4.44089e-16,-0.35 z "/>
<path fill="rgb(0,91,140)" stroke="rgb(0,91,140)" d="M 0.4,4.4 l 1,0 0,1 -1,0 0,-1 z "/>
<path fill="rgb(0,91,140)" stroke="rgb(0,91,140)" d="M 0.4,5.4 l 1,0 0,1 -1,0 0,-1 z "/>
<path fill="rgb(0,91,140)" stroke="rgb(0,91,140)" d="M 0.4,6.4 l 1,0 0,0.7 -0.7,0 -0.0261467,-0.00114159 -0.0259477,-0.00341608 -0.0255513,-0.00566458 -0.0249603,-0.00786996 -0.0241794,-0.0100155 -0.0232145,-0.0120847 -0.0220729,-0.014062 -0.0207634,-0.0159323 -0.0192958,-0.0176813 -0.0176813,-0.0192958 -0.0159323,-0.0207634 -0.014062,-0.0220729 -0.0120847,-0.0232145 -0.0100155,-0.0241794 -0.00786996,-0.0249603 -0.00566458,-0.0255513 -0.00341608,-0.0259477 -0.00114159,-0.0261467 0,-0.4 z "/>
<path fill="rgb(0,91,140)" stroke="rgb(0,91,140)" d="M 1.52583,1.4 l -0.125832,0 0,-1 1,0 0,1 -0.525829,0 0,-0.258352 -0.348339,-8.88178e-16 0,0.258352 z "/>
<path fill="rgb(0,91,140)" stroke="rgb(0,91,140)" d="M 1.87417,1.4 l 0.525829,0 0,1 -0.525829,0 0,-1 z M 1.52583,1.4 l 0,1 -0.125832,0 0,-1 0.125832,0 z "/>
<path fill="rgb(0,91,140)" stroke="rgb(0,91,140)" d="M 1.87417,2.4 l 0.525829,0 0,0.974621 -0.525829,-0.482625 0,-0.491996 z M 1.52583,2.4 l 0,0.645099 0.386672,0.354901 -0.512504,0 0,-1 0.125832,0 z "/>
<path fill="rgb(0,91,140)" stroke="rgb(0,91,140)" d="M 3.57583,4.4 l 0,1 -0.0760992,0 -0.099733,-0.0234023 0,-0.976598 0.175832,0 z M 3.92417,4.4 l 0.475829,0 0,0.916716 -0.000838116,-0.000320845 -0.00585207,-0.00166597 -0.00597614,-0.00114364 -0.00605369,-0.000612398 -0.00608411,-7.63917e-05 -0.00606716,0.000460209 -0.00600297,0.000993227 -0.00589205,0.00151851 -0.35724,0.0841313 -0.0758231,0 0,-1 z "/>
<path fill="rgb(0,91,140)" stroke="rgb(0,91,140)" d="M 3.57583,3.4 l 0,1 -0.175832,0 0,-1 0.175832,0 z M 3.92417,3.4 l 0.475829,0 0,1 -0.475829,0 0,-1 z "/>
<path fill="rgb(0,91,140)" stroke="rgb(0,91,140)" d="M 3.57583,2.4 l 0,1 -0.175832,0 0,-1 0.175832,0 z M 3.92417,2.4 l 0.475829,0 0,1 -0.475829,0 0,-1 z "/>
<path fill="rgb(0,91,140)" stroke="rgb(0,91,140)" d="M 3.57583,1.4 l 0,1 -0.175832,0 0,-1 0.175832,0 z M 3.92417,1.4 l 0.475829,0 0,1 -0.475829,0 0,-1 z "/>
<path fill="rgb(0,91,140)" stroke="rgb(0,91,140)" d="M 4.4,0.4 l 0,1 -0.475829,0 0,-0.258352 -0.348339,-4.44089e-16 0,0.258352 -0.175832,0 0,-1 1,0 z "/>
<path fill="rgb(0,91,140)" stroke="rgb(0,91,140)" d="M 2.4,6.4 l 1,0 0,0.7 -1,0 0,-0.7 z "/>
<path fill="rgb(0,91,140)" stroke="rgb(0,91,140)" d="M 3.05603,5.4 l 0.000998871,0.0041701 0.00193765,0.00581284 0.00243346,0.00562333 0.00291101,0.00539162 0.335691,0.485073 0,0.493929 -1,0 0,-1 0.656028,0 z "/>
<path fill="rgb(0,91,140)" stroke="rgb(0,91,140)" d="M 3.4,5.3766 l -0.258808,-0.0607291 -0.00602029,-0.00114005 -0.00609636,-0.000614745 -0.00612669,-8.4822e-05 -0.00611105,0.000445737 -0.00604954,0.000972951 -0.00594264,0.00149286 -0.00579114,0.00200157 -0.00559618,0.00249526 -0.00535923,0.00297023 -0.00508206,0.0034229 -0.00476675,0.00384989 -0.00441567,0.00424799 -0.00403146,0.00461421 -0.00361699,0.0049458 -0.00317538,0.00524028 -0.00270994,0.00549543 -0.00222416,0.00570935 -0.0017217,0.00588042 -0.00120631,0.00600736 -0.00068187,0.00608922 -0.000152314,0.00612539 0.000378385,0.00611559 0.000906245,0.00605989 0.000428433,0.00178863 -0.656028,0 0,-1 1,0 0,0.976598 z "/>
<path fill="rgb(0,91,140)" stroke="rgb(0,91,140)" d="M 2.90143,3.4 l 0.498573,0 0,1 -1,0 0,-0.247308 0.593592,0.0819659 0.00616751,0.000577313 0.00619438,3.4485e-05 0.00617356,-0.000508609 0.00610522,-0.00104779 0.00598987,-0.0015789 0.00582842,-0.00209786 0.0056221,-0.00260067 0.00537251,-0.00308345 0.00508155,-0.00354251 0.00475148,-0.00397429 0.00438483,-0.00437548 0.00398442,-0.00474298 0.00355335,-0.00507398 0.00309492,-0.00536591 0.00261266,-0.00561654 0.00211029,-0.00582393 0.00159168,-0.00598649 0.00106082,-0.00610296 0.000521787,-0.00617246 -2.12611e-05,-0.00619444 -0.000564145,-0.00616873 -0.00110269,-0.00609554 -1.5099e-14,-6.66134e-14 -0.170678,-0.749116 z M 2.50719,3.4 l -0.0270354,0.0481864 -0.0525,-0.0481864 0.0795354,0 z "/>
<path fill="rgb(0,91,140)" stroke="rgb(0,91,140)" d="M 2.4,2.4 l 1,0 0,1 -0.498573,0 -0.0741354,-0.325384 -0.00161208,-0.00586714 -0.00212298,-0.0057022 -0.00261736,-0.00549287 -0.00309136,-0.00524077 -0.00354129,-0.00494787 -0.00396365,-0.00461645 -0.00435515,-0.00424909 -0.00471275,-0.00384866 -0.00503366,-0.00341825 -0.00531538,-0.00296124 -0.00555571,-0.00248117 -0.0057528,-0.00198178 -0.0059051,-0.00146697 -0.00601142,-0.000940737 -0.00607095,-0.000407178 -0.00608321,0.00012955 -0.00604811,0.00066527 -0.00596592,0.00119581 -0.00583729,0.00171704 -0.00566321,0.0022249 -0.00544505,0.00271545 -0.00518449,0.00318485 -0.00488357,0.00362945 -0.00454463,0.0040458 -0.00417031,0.00443066 -0.00376352,0.00478101 -0.00332743,0.00509415 -0.00286544,0.00536763 -0.190661,0.339825 -0.0795354,0 -0.0276513,-0.0253794 0,-0.974621 z "/>
<path fill="rgb(0,91,140)" stroke="rgb(0,91,140)" d="M 1.9125,3.4 l 0.332103,0.304816 -0.369037,0.251246 -0.00491078,0.0036644 -0.00457521,0.00407566 -0.00420532,0.00445633 -0.00380386,0.00480356 -0.00337386,0.00511475 -0.00291854,0.00538755 -0.00244132,0.00561992 -0.00194577,0.00581012 -0.00143563,0.00595672 -0.000914712,0.00605862 -0.000386931,0.00611505 0.000143754,0.00612559 0.00067336,0.00609017 0.00119791,0.00600904 0.00171348,0.00588282 0.00221618,0.00571245 0.00270226,0.00549922 0.00316805,0.00524471 0.00361007,0.00495085 0.00402501,0.00461984 0.00440973,0.00425416 0.00476137,0.00385655 0.00507727,0.00343 0.00535507,0.00297771 0.00559269,0.00250308 0.00578833,0.00200966 0.00594054,0.00150117 0.498967,0.0688996 0,0.247308 -1,0 0,-1 0.512504,0 z "/>
<path fill="rgb(0,91,140)" stroke="rgb(0,91,140)" d="M 1.4,4.4 l 1,0 0,1 -1,0 0,-1 z "/>
<path fill="rgb(0,91,140)" stroke="rgb(0,91,140)" d="M 1.4,5.4 l 1,0 0,1 -1,0 0,-1 z "/>
<path fill="rgb(0,91,140)" stroke="rgb(0,91,140)" d="M 1.4,6.4 l 1,0 0,0.7 -1,0 0,-0.7 z "/>
<path fill="rgb(0,91,140)" stroke="rgb(0,91,140)" d="M 2.4,0.4 l 1,0 0,1 -1,0 0,-1 z "/>
<path fill="rgb(0,91,140)" stroke="rgb(0,91,140)" d="M 6.4,6.4 l 0.7,0 0,0.4 -0.00114159,0.0261467 -0.00341608,0.0259477 -0.00566458,0.0255513 -0.00786996,0.0249603 -0.0100155,0.0241794 -0.0120847,0.0232145 -0.014062,0.0220729 -0.0159323,0.0207634 -0.0176813,0.0192958 -0.0192958,0.0176813 -0.0207634,0.0159323 -0.0220729,0.014062 -0.0232145,0.0120847 -0.0241794,0.0100155 -0.0249603,0.00786996 -0.0255513,0.00566458 -0.0259477,0.00341608 -0.0261467,0.00114159 -0.4,0 0,-0.7 z "/>
<path fill="rgb(0,91,140)" stroke="rgb(0,91,140)" d="M 7.1,5.4 l -8.88178e-16,1 -0.7,0 0,-0.85714 0.0841237,-0.121862 0.00323239,-0.00515498 0.00276541,-0.00541984 0.00227689,-0.00564251 0.0014541,-0.00478055 0.606147,0 z "/>
<path fill="rgb(0,91,140)" stroke="rgb(0,91,140)" d="M 7.1,4.4 l 0,1 -0.606147,0 0.000316549,-0.0010407 0.00125063,-0.00595467 0.000720865,-0.00604173 0.00018549,-0.00608176 -0.000351328,-0.00607443 -0.000885411,-0.00601982 -0.0014126,-0.00591834 -0.00192879,-0.00577078 -0.00242997,-0.0055783 -0.00291223,-0.00534239 -0.00337181,-0.00506488 -0.00380515,-0.00474795 -0.00420886,-0.00439405 -0.00457981,-0.00400594 -0.0049151,-0.00358664 -0.00521212,-0.00313942 -0.00546856,-0.00266777 -0.00568244,-0.00217534 -0.00585207,-0.00166597 -0.00597614,-0.00114364 -0.00605369,-0.000612398 -0.00608411,-7.63917e-05 -0.00606716,0.000460209 -0.00600297,0.000993227 -0.00589205,0.00151851 -0.0072337,0.00170356 0,-0.917572 0.7,0 z "/>
<path fill="rgb(0,91,140)" stroke="rgb(0,91,140)" d="M 7.1,3.4 l 0,0.35 0,0.65 -0.7,0 0,-1 0.7,0 z "/>
<path fill="rgb(0,91,140)" stroke="rgb(0,91,140)" d="M 7.1,2.4 l 0,1 -0.7,0 0,-1 0.7,0 z "/>
<path fill="rgb(0,91,140)" stroke="rgb(0,91,140)" d="M 7.1,1.4 l 0,1 -0.7,0 0,-1 0.7,0 z "/>
<path fill="rgb(241,240,234)" stroke="rgb(241,240,234)" d="M 5.11431,5.421 l 0.627634,0.90693 0.00374511,0.00493413 0.00416319,0.00458687 0.00454922,0.0042043 0.00490023,0.00378936 0.00521352,0.00334525 0.00548668,0.00287539 0.0057176,0.00238339 0.00590451,0.00187305 0.00604596,0.00134829 0.00614087,0.000813147 0.00618851,0.000271746 0.00618851,-0.000271746 0.00614087,-0.000813147 0.00604596,-0.00134829 0.00590451,-0.00187305 0.0057176,-0.00238339 0.00548668,-0.00287539 0.00521352,-0.00334525 0.00490023,-0.00378936 0.00454922,-0.0042043 0.00416319,-0.00458687 0.00374511,-0.00493413 9.36278e-05,-0.00013563 0.625976,-0.906794 0.00323239,-0.00515498 0.00276541,-0.00541984 0.00227689,-0.00564251 0.00177065,-0.00582125 0.00125063,-0.00595467 0.000720865,-0.00604173 0.00018549,-0.00608176 -0.000351328,-0.00607443 -0.000885411,-0.00601982 -0.0014126,-0.00591834 -0.00192879,-0.00577078 -0.00242997,-0.0055783 -0.00291223,-0.00534239 -0.00337181,-0.00506488 -0.00380515,-0.00474795 -0.00420886,-0.00439405 -0.00457981,-0.00400594 -0.0049151,-0.00358664 -0.00521212,-0.00313942 -0.00546856,-0.00266777 -0.00568244,-0.00217534 -0.00585207,-0.00166597 -0.00597614,-0.00114364 -0.00605369,-0.000612398 -0.00608411,-7.63917e-05 -0.00606716,0.000460209 -0.00600297,0.000993227 -0.00589205,0.00151851 -0.433063,0.101988 0,-4.27621 -0.348339,-4.44089e-16 0,4.27621 -0.43464,-0.101988 -0.00602029,-0.00114005 -0.00609636,-0.000614745 -0.00612669,-8.4822e-05 -0.00611105,0.000445737 -0.00604954,0.000972951 -0.00594264,0.00149286 -0.00579114,0.00200157 -0.00559618,0.00249526 -0.00535923,0.00297023 -0.00508206,0.0034229 -0.00476675,0.00384989 -0.00441567,0.00424799 -0.00403146,0.00461421 -0.00361699,0.0049458 -0.00317538,0.00524028 -0.00270994,0.00549543 -0.00222416,0.00570935 -0.0017217,0.00588042 -0.00120631,0.00600736 -0.00068187,0.00608922 -0.000152314,0.00612539 0.000378385,0.00611559 0.000906245,0.00605989 0.0014273,0.00595872 0.00193765,0.00581284 0.00243346,0.00562333 0.00291101,0.00539162 z "/>
<path fill="rgb(241,240,234)" stroke="rgb(241,240,234)" d="M 5.85805,6.32793 l 9.36278e-05,-0.00013563 -3.11741e-05,4.52343e-05 -3.12093e-05,4.521e-05 -3.12444e-05,4.51857e-05 z "/>
<path fill="rgb(241,240,234)" stroke="rgb(241,240,234)" d="M 3.80805,6.32793 l 9.36278e-05,-0.00013563 -3.11741e-05,4.52343e-05 -3.12093e-05,4.521e-05 -3.12444e-05,4.51857e-05 z "/>
<path fill="rgb(241,240,234)" stroke="rgb(241,240,234)" d="M 3.57583,5.41786 l -0.43464,-0.101988 -0.00602029,-0.00114005 -0.00609636,-0.000614745 -0.00612669,-8.4822e-05 -0.00611105,0.000445737 -0.00604954,0.000972951 -0.00594264,0.00149286 -0.00579114,0.00200157 -0.00559618,0.00249526 -0.00535923,0.00297023 -0.00508206,0.0034229 -0.00476675,0.00384989 -0.00441567,0.00424799 -0.00403146,0.00461421 -0.00361699,0.0049458 -0.00317538,0.00524028 -0.00270994,0.00549543 -0.00222416,0.00570935 -0.0017217,0.00588042 -0.00120631,0.00600736 -0.00068187,0.00608922 -0.000152314,0.00612539 0.000378385,0.00611559 0.000906245,0.00605989 0.0014273,0.00595872 0.00193765,0.00581284 0.00243346,0.00562333 0.00291101,0.00539162 0.627634,0.90693 0.00374511,0.00493413 0.00416319,0.00458687 0.00454922,0.0042043 0.00490023,0.00378936 0.00521352,0.00334525 0.00548668,0.00287539 0.0057176,0.00238339 0.00590451,0.00187305 0.00604596,0.00134829 0.00614087,0.000813147 0.00618851,0.000271746 0.00618851,-0.000271746 0.00614087,-0.000813147 0.00604596,-0.00134829 0.00590451,-0.00187305 0.0057176,-0.00238339 0.00548668,-0.00287539 0.00521352,-0.00334525 0.00490023,-0.00378936 0.00454922,-0.0042043 0.00416319,-0.00458687 0.00374511,-0.00493413 9.36278e-05,-0.00013563 0.625976,-0.906794 0.00323239,-0.00515498 0.00276541,-0.00541984 0.00227689,-0.00564251 0.00177065,-0.00582125 0.00125063,-0.00595467 0.000720865,-0.00604173 0.00018549,-0.00608176 -0.000351328,-0.00607443 -0.000885411,-0.00601982 -0.0014126,-0.00591834 -0.00192879,-0.00577078 -0.00242997,-0.0055783 -0.00291223,-0.00534239 -0.00337181,-0.00506488 -0.00380515,-0.00474795 -0.00420886,-0.00439405 -0.00457981,-0.00400594 -0.0049151,-0.00358664 -0.00521212,-0.00313942 -0.00546856,-0.00266777 -0.00568244,-0.00217534 -0.00585207,-0.00166597 -0.00597614,-0.00114364 -0.00605369,-0.000612398 -0.00608411,-7.63917e-05 -0.00606716,0.000460209 -0.00600297,0.000993227 -0.00589205,0.00151851 -0.433063,0.101988 0,-4.27621 -0.348339,-4.44089e-16 0,4.27621 z "/>
<path fill="rgb(241,240,234)" stroke="rgb(241,240,234)" d="M 0.4,3.75 l -0.2,-4.44089e-16 4.44089e-16,-3.05 0.00190265,-0.0435779 0.00569347,-0.0432462 0.00944096,-0.0425854 0.0131166,-0.0416005 0.0166924,-0.0402991 0.0201412,-0.0386909 0.0234367,-0.0367882 0.0265538,-0.0346056 0.0294688,-0.0321596 0.0321596,-0.0294688 0.0346056,-0.0265538 0.0367882,-0.0234367 0.0386909,-0.0201412 0.0402991,-0.0166924 0.0416005,-0.0131166 0.0425854,-0.00944096 0.0432462,-0.00569347 0.0435779,-0.00190265 6.1,0 0.0435779,0.00190265 0.0432462,0.00569347 0.0425854,0.00944096 0.0416005,0.0131166 0.0402991,0.0166924 0.0386909,0.0201412 0.0367882,0.0234367 0.0346056,0.0265538 0.0321596,0.0294688 0.0294688,0.0321596 0.0265538,0.0346056 0.0234367,0.0367882 0.0201412,0.0386909 0.0166924,0.0402991 0.0131166,0.0416005 0.00944096,0.0425854 0.00569347,0.0432462 0.00190265,0.0435779 0,3.05 -0.2,4.44089e-16 0,-3.05 -0.00114159,-0.0261467 -0.00341608,-0.0259477 -0.00566458,-0.0255513 -0.00786996,-0.0249603 -0.0100155,-0.0241794 -0.0120847,-0.0232145 -0.014062,-0.0220729 -0.0159323,-0.0207634 -0.0176813,-0.0192958 -0.0192958,-0.0176813 -0.0207634,-0.0159323 -0.0220729,-0.014062 -0.0232145,-0.0120847 -0.0241794,-0.0100155 -0.0249603,-0.00786996 -0.0255513,-0.00566458 -0.0259477,-0.00341608 -0.0261467,-0.00114159 -6.1,0 -0.0261467,0.00114159 -0.0259477,0.00341608 -0.0255513,0.00566458 -0.0249603,0.00786996 -0.0241794,0.0100155 -0.0232145,0.0120847 -0.0220729,0.014062 -0.0207634,0.0159323 -0.0192958,0.0176813 -0.0176813,0.0192958 -0.0159323,0.0207634 -0.014062,0.0220729 -0.0120847,0.0232145 -0.0100155,0.0241794 -0.00786996,0.0249603 -0.00566458,0.0255513 -0.00341608,0.0259477 -0.00114159,0.0261467 -4.44089e-16,3.05 z "/>
<path fill="rgb(241,240,234)" stroke="rgb(241,240,234)" d="M 7.1,6.8 l 8.88178e-16,-3.05 0.2,-4.44089e-16 -8.88178e-16,3.05 -0.00190265,0.0435779 -0.00569347,0.0432462 -0.00944096,0.0425854 -0.0131166,0.0416005 -0.0166924,0.0402991 -0.0201412,0.0386909 -0.0234367,0.0367882 -0.0265538,0.0346056 -0.0294688,0.0321596 -0.0321596,0.0294688 -0.0346056,0.0265538 -0.0367882,0.0234367 -0.0386909,0.0201412 -0.0402991,0.0166924 -0.0416005,0.0131166 -0.0425854,0.00944096 -0.0432462,0.00569347 -0.0435779,0.00190265 -6.1,-8.88178e-16 -0.0435779,-0.00190265 -0.0432462,-0.00569347 -0.0425854,-0.00944096 -0.0416005,-0.0131166 -0.0402991,-0.0166924 -0.0386909,-0.0201412 -0.0367882,-0.0234367 -0.0346056,-0.0265538 -0.0321596,-0.0294688 -0.0294688,-0.0321596 -0.0265538,-0.0346056 -0.0234367,-0.0367882 -0.0201412,-0.0386909 -0.0166924,-0.0402991 -0.0131166,-0.0416005 -0.00944096,-0.0425854 -0.00569347,-0.0432462 -0.00190265,-0.0435779 4.44089e-16,-3.05 0.2,4.44089e-16 -4.44089e-16,3.05 0.00114159,0.0261467 0.00341608,0.0259477 0.00566458,0.0255513 0.00786996,0.0249603 0.0100155,0.0241794 0.0120847,0.0232145 0.014062,0.0220729 0.0159323,0.0207634 0.0176813,0.0192958 0.0192958,0.0176813 0.0207634,0.0159323 0.0220729,0.014062 0.0232145,0.0120847 0.0241794,0.0100155 0.0249603,0.00786996 0.0255513,0.00566458 0.0259477,0.00341608 0.0261467,0.00114159 6.1,8.88178e-16 0.0261467,-0.00114159 0.0259477,-0.00341608 0.0255513,-0.00566458 0.0249603,-0.00786996 0.0241794,-0.0100155 0.0232145,-0.0120847 0.0220729,-0.014062 0.0207634,-0.0159323 0.0192958,-0.0176813 0.0176813,-0.0192958 0.0159323,-0.0207634 0.014062,-0.0220729 0.0120847,-0.0232145 0.0100155,-0.0241794 0.00786996,-0.0249603 0.00566458,-0.0255513 0.00341608,-0.0259477 0.00114159,-0.0261467 z "/>
<path fill="rgb(0,91,140)" stroke="rgb(0,91,140)" d="M 0.2,3.75 l -0.2,0 4.44089e-16,-3.05 0.00266371,-0.061009 0.00797086,-0.0605447 0.0132173,-0.0596196 0.0183632,-0.0582408 0.0233694,-0.0564187 0.0281977,-0.0541672 0.0328114,-0.0515035 0.0371753,-0.0484478 0.0412564,-0.0450234 0.0450234,-0.0412564 0.0484478,-0.0371753 0.0515035,-0.0328114 0.0541672,-0.0281977 0.0564187,-0.0233694 0.0582408,-0.0183632 0.0596196,-0.0132173 0.0605447,-0.00797086 0.061009,-0.00266371 6.1,-8.88178e-16 0.061009,0.00266371 0.0605447,0.00797086 0.0596196,0.0132173 0.0582408,0.0183632 0.0564187,0.0233694 0.0541672,0.0281977 0.0515035,0.0328114 0.0484478,0.0371753 0.0450234,0.0412564 0.0412564,0.0450234 0.0371753,0.0484478 0.0328114,0.0515035 0.0281977,0.0541672 0.0233694,0.0564187 0.0183632,0.0582408 0.0132173,0.0596196 0.00797086,0.0605447 0.00266371,0.061009 -1.77636e-15,3.05 -0.2,-8.88178e-16 0,-3.05 -0.00190265,-0.0435779 -0.00569347,-0.0432462 -0.00944096,-0.0425854 -0.0131166,-0.0416005 -0.0166924,-0.0402991 -0.0201412,-0.0386909 -0.0234367,-0.0367882 -0.0265538,-0.0346056 -0.0294688,-0.0321596 -0.0321596,-0.0294688 -0.0346056,-0.0265538 -0.0367882,-0.0234367 -0.0386909,-0.0201412 -0.0402991,-0.0166924 -0.0416005,-0.0131166 -0.0425854,-0.00944096 -0.0432462,-0.00569347 -0.0435779,-0.00190265 -6.1,0 -0.0435779,0.00190265 -0.0432462,0.00569347 -0.0425854,0.00944096 -0.0416005,0.0131166 -0.0402991,0.0166924 -0.0386909,0.0201412 -0.0367882,0.0234367 -0.0346056,0.0265538 -0.0321596,0.0294688 -0.0294688,0.0321596 -0.0265538,0.0346056 -0.0234367,0.0367882 -0.0201412,0.0386909 -0.0166924,0.0402991 -0.0131166,0.0416005 -0.00944096,0.0425854 -0.00569347,0.0432462 -0.00190265,0.0435779 -4.44089e-16,3.05 z "/>
<path fill="rgb(0,91,140)" stroke="rgb(0,91,140)" d="M 6.8,7.3 l 0.0435779,-0.00190265 0.0432462,-0.00569347 0.0425854,-0.00944096 0.0416005,-0.0131166 0.0402991,-0.0166924 0.0386909,-0.0201412 0.0367882,-0.0234367 0.0346056,-0.0265538 0.0321596,-0.0294688 0.0294688,-0.0321596 0.0265538,-0.0346056 0.0234367,-0.0367882 0.0201412,-0.0386909 0.0166924,-0.0402991 0.0131166,-0.0416005 0.00944096,-0.0425854 0.00569347,-0.0432462 0.00190265,-0.0435779 8.88178e-16,-3.05 0.2,8.88178e-16 1.77636e-15,3.05 -0.00266371,0.061009 -0.00797086,0.0605447 -0.0132173,0.0596196 -0.0183632,0.0582408 -0.0233694,0.0564187 -0.0281977,0.0541672 -0.0328114,0.0515035 -0.0371753,0.0484478 -0.0412564,0.0450234 -0.0450234,0.0412564 -0.0484478,0.0371753 -0.0515035,0.0328114 -0.0541672,0.0281977 -0.0564187,0.0233694 -0.0582408,0.0183632 -0.0596196,0.0132173 -0.0605447,0.00797086 -0.061009,0.00266371 -6.1,-8.88178e-16 -0.061009,-0.00266371 -0.0605447,-0.00797086 -0.0596196,-0.0132173 -0.0582408,-0.0183632 -0.0564187,-0.0233694 -0.0541672,-0.0281977 -0.0515035,-0.0328114 -0.0484478,-0.0371753 -0.0450234,-0.0412564 -0.0412564,-0.0450234 -0.0371753,-0.0484478 -0.0328114,-0.0515035 -0.0281977,-0.0541672 -0.0233694,-0.0564187 -0.0183632,-0.0582408 -0.0132173,-0.0596196 -0.00797086,-0.0605447 -0.00266371,-0.061009 4.44089e-16,-3.05 0.2,0 -4.44089e-16,3.05 0.00190265,0.0435779 0.00569347,0.0432462 0.00944096,0.0425854 0.0131166,0.0416005 0.0166924,0.0402991 0.0201412,0.0386909 0.0234367,0.0367882 0.0265538,0.0346056 0.0294688,0.0321596 0.0321596,0.0294688 0.0346056,0.0265538 0.0367882,0.0234367 0.0386909,0.0201412 0.0402991,0.0166924 0.0416005,0.0131166 0.0425854,0.00944096 0.0432462,0.00569347 0.0435779,0.00190265 6.1,8.88178e-16 z "/>
</g></g></svg>
