<?xml version="1.0" encoding="UTF-8" standalone="no"?>
<!DOCTYPE svg PUBLIC "-//W3C//DTD SVG 1.1//EN" "http://www.w3.org/Graphics/SVG/1.1/DTD/svg11-flat.dtd"
[

]>
<svg xmlns="http://www.w3.org/2000/svg"  viewBox="-0.05625 -0.05625 4.6125 7.6125"><g fill="none" stroke="black" stroke-width="0.0125" transform="translate(0,7.5) scale(1, -1)">
<g id="Output" >
<path fill="rgb(0,91,140)" stroke="rgb(0,91,140)" d="M 0.7,0.4 l 1.55,-4.44089e-16 1.55,-4.44089e-16 0.0261467,0.00114159 0.0259477,0.00341608 0.0255513,0.00566458 0.0249603,0.00786996 0.0241794,0.0100155 0.0232145,0.0120847 0.0220729,0.014062 0.0207634,0.0159323 0.0192958,0.0176813 0.0176813,0.0192958 0.0159323,0.0207634 0.014062,0.0220729 0.0120847,0.0232145 0.0100155,0.0241794 0.00786996,0.0249603 0.00566458,0.0255513 0.00341608,0.0259477 0.00114159,0.0261467 0,6.1 -0.00114159,0.0261467 -0.00341608,0.0259477 -0.00566458,0.0255513 -0.00786996,0.0249603 -0.0100155,0.0241794 -0.0120847,0.0232145 -0.014062,0.0220729 -0.0159323,0.0207634 -0.0176813,0.0192958 -0.0192958,0.0176813 -0.0207634,0.0159323 -0.0220729,0.014062 -0.0232145,0.0120847 -0.0241794,0.0100155 -0.0249603,0.00786996 -0.0255513,0.00566458 -0.0259477,0.00341608 -0.0261467,0.00114159 -1.55,0 -1.55,0 -0.0261467,-0.00114159 -0.0259477,-0.00341608 -0.0255513,-0.00566458 -0.0249603,-0.00786996 -0.0241794,-0.0100155 -0.0232145,-0.0120847 -0.0220729,-0.014062 -0.0207634,-0.0159323 -0.0192958,-0.0176813 -0.0176813,-0.0192958 -0.0159323,-0.0207634 -0.014062,-0.0220729 -0.0120847,-0.0232145 -0.0100155,-0.0241794 -0.00786996,-0.0249603 -0.00566458,-0.0255513 -0.00341608,-0.0259477 -0.00114159,-0.0261467 -4.44089e-16,-6.1 0.00114159,-0.0261467 0.00341608,-0.0259477 0.00566458,-0.0255513 0.00786996,-0.0249603 0.0100155,-0.0241794 0.0120847,-0.0232145 0.014062,-0.0220729 0.0159323,-0.0207634 0.0176813,-0.0192958 0.0192958,-0.0176813 0.0207634,-0.0159323 0.0220729,-0.014062 0.0232145,-0.0120847 0.0241794,-0.0100155 0.0249603,-0.00786996 0.0255513,-0.00566458 0.0259477,-0.00341608 0.0261467,-0.00114159 z "/>
<path fill="rgb(0,91,140)" stroke="rgb(0,91,140)" d="M 3.8,7.5 l -1.55,0 -4.44089e-16,-0.2 1.55,0 0.0435779,-0.00190265 0.0432462,-0.00569347 0.0425854,-0.00944096 0.0416005,-0.0131166 0.0402991,-0.0166924 0.0386909,-0.0201412 0.0367882,-0.0234367 0.0346056,-0.0265538 0.0321596,-0.0294688 0.0294688,-0.0321596 0.0265538,-0.0346056 0.0234367,-0.0367882 0.0201412,-0.0386909 0.0166924,-0.0402991 0.0131166,-0.0416005 0.00944096,-0.0425854 0.00569347,-0.0432462 0.00190265,-0.0435779 0,-6.1 -0.00190265,-0.0435779 -0.00569347,-0.0432462 -0.00944096,-0.0425854 -0.0131166,-0.0416005 -0.0166924,-0.0402991 -0.0201412,-0.0386909 -0.0234367,-0.0367882 -0.0265538,-0.0346056 -0.0294688,-0.0321596 -0.0321596,-0.0294688 -0.0346056,-0.0265538 -0.0367882,-0.0234367 -0.0386909,-0.0201412 -0.0402991,-0.0166924 -0.0416005,-0.0131166 -0.0425854,-0.00944096 -0.0432462,-0.00569347 -0.0435779,-0.00190265 -1.55,4.44089e-16 0,-0.2 1.55,-4.44089e-16 0.061009,0.00266371 0.0605447,0.00797086 0.0596196,0.0132173 0.0582408,0.0183632 0.0564187,0.0233694 0.0541672,0.0281977 0.0515035,0.0328114 0.0484478,0.0371753 0.0450234,0.0412564 0.0412564,0.0450234 0.0371753,0.0484478 0.0328114,0.0515035 0.0281977,0.0541672 0.0233694,0.0564187 0.0183632,0.0582408 0.0132173,0.0596196 0.00797086,0.0605447 0.00266371,0.061009 8.88178e-16,6.1 -0.00266371,0.061009 -0.00797086,0.0605447 -0.0132173,0.0596196 -0.0183632,0.0582408 -0.0233694,0.0564187 -0.0281977,0.0541672 -0.0328114,0.0515035 -0.0371753,0.0484478 -0.0412564,0.0450234 -0.0450234,0.0412564 -0.0484478,0.0371753 -0.0515035,0.0328114 -0.0541672,0.0281977 -0.0564187,0.0233694 -0.0582408,0.0183632 -0.0596196,0.0132173 -0.0605447,0.00797086 -0.061009,0.00266371 z "/>
<path fill="rgb(0,91,140)" stroke="rgb(0,91,140)" d="M 0,6.8 l 0,-6.1 0.00266371,-0.061009 0.00797086,-0.0605447 0.0132173,-0.0596196 0.0183632,-0.0582408 0.0233694,-0.0564187 0.0281977,-0.0541672 0.0328114,-0.0515035 0.0371753,-0.0484478 0.0412564,-0.0450234 0.0450234,-0.0412564 0.0484478,-0.0371753 0.0515035,-0.0328114 0.0541672,-0.0281977 0.0564187,-0.0233694 0.0582408,-0.0183632 0.0596196,-0.0132173 0.0605447,-0.00797086 0.061009,-0.00266371 1.55,-8.88178e-16 0,0.2 -1.55,4.44089e-16 -0.0435779,0.00190265 -0.0432462,0.00569347 -0.0425854,0.00944096 -0.0416005,0.0131166 -0.0402991,0.0166924 -0.0386909,0.0201412 -0.0367882,0.0234367 -0.0346056,0.0265538 -0.0321596,0.0294688 -0.0294688,0.0321596 -0.0265538,0.0346056 -0.0234367,0.0367882 -0.0201412,0.0386909 -0.0166924,0.0402991 -0.0131166,0.0416005 -0.00944096,0.0425854 -0.00569347,0.0432462 -0.00190265,0.0435779 0,6.1 0.00190265,0.0435779 0.00569347,0.0432462 0.00944096,0.0425854 0.0131166,0.0416005 0.0166924,0.0402991 0.0201412,0.0386909 0.0234367,0.0367882 0.0265538,0.0346056 0.0294688,0.0321596 0.0321596,0.0294688 0.0346056,0.0265538 0.0367882,0.0234367 0.0386909,0.0201412 0.0402991,0.0166924 0.0416005,0.0131166 0.0425854,0.00944096 0.0432462,0.00569347 0.0435779,0.00190265 1.55,0 4.44089e-16,0.2 -1.55,0 -0.061009,-0.00266371 -0.0605447,-0.00797086 -0.0596196,-0.0132173 -0.0582408,-0.0183632 -0.0564187,-0.0233694 -0.0541672,-0.0281977 -0.0515035,-0.0328114 -0.0484478,-0.0371753 -0.0450234,-0.0412564 -0.0412564,-0.0450234 -0.0371753,-0.0484478 -0.0328114,-0.0515035 -0.0281977,-0.0541672 -0.0233694,-0.0564187 -0.0183632,-0.0582408 -0.0132173,-0.0596196 -0.00797086,-0.0605447 -0.00266371,-0.061009 z "/>
<path fill="rgb(241,240,234)" stroke="rgb(241,240,234)" d="M 2.25,0.4 l 0,-0.2 1.55,-4.44089e-16 0.0435779,0.00190265 0.0432462,0.00569347 0.0425854,0.00944096 0.0416005,0.0131166 0.0402991,0.0166924 0.0386909,0.0201412 0.0367882,0.0234367 0.0346056,0.0265538 0.0321596,0.0294688 0.0294688,0.0321596 0.0265538,0.0346056 0.0234367,0.0367882 0.0201412,0.0386909 0.0166924,0.0402991 0.0131166,0.0416005 0.00944096,0.0425854 0.00569347,0.0432462 0.00190265,0.0435779 0,6.1 -0.00190265,0.0435779 -0.00569347,0.0432462 -0.00944096,0.0425854 -0.0131166,0.0416005 -0.0166924,0.0402991 -0.0201412,0.0386909 -0.0234367,0.0367882 -0.0265538,0.0346056 -0.0294688,0.0321596 -0.0321596,0.0294688 -0.0346056,0.0265538 -0.0367882,0.0234367 -0.0386909,0.0201412 -0.0402991,0.0166924 -0.0416005,0.0131166 -0.0425854,0.00944096 -0.0432462,0.00569347 -0.0435779,0.00190265 -1.55,0 0,-0.2 1.55,0 0.0261467,-0.00114159 0.0259477,-0.00341608 0.0255513,-0.00566458 0.0249603,-0.00786996 0.0241794,-0.0100155 0.0232145,-0.0120847 0.0220729,-0.014062 0.0207634,-0.0159323 0.0192958,-0.0176813 0.0176813,-0.0192958 0.0159323,-0.0207634 0.014062,-0.0220729 0.0120847,-0.0232145 0.0100155,-0.0241794 0.00786996,-0.0249603 0.00566458,-0.0255513 0.00341608,-0.0259477 0.00114159,-0.0261467 0,-6.1 -0.00114159,-0.0261467 -0.00341608,-0.0259477 -0.00566458,-0.0255513 -0.00786996,-0.0249603 -0.0100155,-0.0241794 -0.0120847,-0.0232145 -0.014062,-0.0220729 -0.0159323,-0.0207634 -0.0176813,-0.0192958 -0.0192958,-0.0176813 -0.0207634,-0.0159323 -0.0220729,-0.014062 -0.0232145,-0.0120847 -0.0241794,-0.0100155 -0.0249603,-0.00786996 -0.0255513,-0.00566458 -0.0259477,-0.00341608 -0.0261467,-0.00114159 -1.55,4.44089e-16 z "/>
<path fill="rgb(241,240,234)" stroke="rgb(241,240,234)" d="M 0.7,0.4 l -0.0261467,0.00114159 -0.0259477,0.00341608 -0.0255513,0.00566458 -0.0249603,0.00786996 -0.0241794,0.0100155 -0.0232145,0.0120847 -0.0220729,0.014062 -0.0207634,0.0159323 -0.0192958,0.0176813 -0.0176813,0.0192958 -0.0159323,0.0207634 -0.014062,0.0220729 -0.0120847,0.0232145 -0.0100155,0.0241794 -0.00786996,0.0249603 -0.00566458,0.0255513 -0.00341608,0.0259477 -0.00114159,0.0261467 4.44089e-16,6.1 0.00114159,0.0261467 0.00341608,0.0259477 0.00566458,0.0255513 0.00786996,0.0249603 0.0100155,0.0241794 0.0120847,0.0232145 0.014062,0.0220729 0.0159323,0.0207634 0.0176813,0.0192958 0.0192958,0.0176813 0.0207634,0.0159323 0.0220729,0.014062 0.0232145,0.0120847 0.0241794,0.0100155 0.0249603,0.00786996 0.0255513,0.00566458 0.0259477,0.00341608 0.0261467,0.00114159 1.55,0 0,0.2 -1.55,0 -0.0435779,-0.00190265 -0.0432462,-0.00569347 -0.0425854,-0.00944096 -0.0416005,-0.0131166 -0.0402991,-0.0166924 -0.0386909,-0.0201412 -0.0367882,-0.0234367 -0.0346056,-0.0265538 -0.0321596,-0.0294688 -0.0294688,-0.0321596 -0.0265538,-0.0346056 -0.0234367,-0.0367882 -0.0201412,-0.0386909 -0.0166924,-0.0402991 -0.0131166,-0.0416005 -0.00944096,-0.0425854 -0.00569347,-0.0432462 -0.00190265,-0.0435779 0,-6.1 0.00190265,-0.0435779 0.00569347,-0.0432462 0.00944096,-0.0425854 0.0131166,-0.0416005 0.0166924,-0.0402991 0.0201412,-0.0386909 0.0234367,-0.0367882 0.0265538,-0.0346056 0.0294688,-0.0321596 0.0321596,-0.0294688 0.0346056,-0.0265538 0.0367882,-0.0234367 0.0386909,-0.0201412 0.0402991,-0.0166924 0.0416005,-0.0131166 0.0425854,-0.00944096 0.0432462,-0.00569347 0.0435779,-0.00190265 1.55,-4.44089e-16 0,0.2 -1.55,4.44089e-16 z "/>
<path fill="rgb(241,240,234)" stroke="rgb(241,240,234)" d="M 3.81813,1.29017 l -0.129173,0 0,0.754489 0.129173,0.0587151 0,-0.813204 z "/>
<path fill="rgb(241,240,234)" stroke="rgb(241,240,234)" d="M 3.35135,1.88833 l -0.0469721,-0.00513757 -0.0425684,-0.0168806 -0.0396327,-0.0278897 -0.0344951,-0.0396327 -0.011743,-0.0161466 -0.023486,-0.0440363 -0.0176145,-0.047706 -0.0102751,-0.0528436 -0.00293575,-0.0557793 0,-0.0212842 0.00587151,-0.0543114 0.0132109,-0.0506417 0.0198163,-0.0469721 0.190824,0.00880726 -0.0388987,0.0095412 -0.0344951,0.0366969 -0.00733938,0.012477 -0.0154127,0.047706 -0.00513757,0.0579811 0.000733938,0.0168806 0.00807332,0.0543114 0.0190824,0.0447702 0.0300915,0.0337612 0.0433024,0.0132109 0.189356,0.0110091 -0.0271557,0.0425684 -0.0344951,0.0381648 -0.0396327,0.0286236 -0.0425684,0.0176145 -0.0455042,0.00513757 z "/>
<path fill="rgb(241,240,234)" stroke="rgb(241,240,234)" d="M 3.5407,1.75622 l -0.189356,-0.0110091 0.035963,-0.0095412 0.035229,-0.035963 0.00587151,-0.011743 0.0154127,-0.047706 0.00513757,-0.0579811 -0.000733938,-0.0183485 -0.00807332,-0.0543114 -0.0176145,-0.0455042 -0.0286236,-0.0330272 -0.0425684,-0.0132109 -0.190824,-0.00880726 0.0271557,-0.0425684 0.0344951,-0.0396327 0.0388987,-0.0278897 0.0433024,-0.0168806 0.0469721,-0.00587151 0.0440363,0.00587151 0.0425684,0.0161466 0.0396327,0.0286236 0.035963,0.0396327 0.0110091,0.0154127 0.0249539,0.0440363 0.0176145,0.047706 0.0102751,0.0521096 0.00366969,0.0565133 -0.000733938,0.0227521 -0.00660544,0.0543114 -0.0132109,0.0506417 -0.0198163,0.0462381 z "/>
<path fill="rgb(241,240,234)" stroke="rgb(241,240,234)" d="M 2.80603,1.88833 l -0.0469721,-0.00513757 -0.0433024,-0.0168806 -0.0388987,-0.0278897 -0.0344951,-0.0396327 -0.011743,-0.0161466 -0.023486,-0.0440363 -0.0176145,-0.047706 -0.0102751,-0.0528436 -0.00293575,-0.0557793 0,-0.0212842 0.00587151,-0.0543114 0.0132109,-0.0506417 0.0198163,-0.0469721 0.190824,0.00880726 -0.0388987,0.0095412 -0.0344951,0.0366969 -0.00733938,0.012477 -0.0154127,0.047706 -0.00513757,0.0579811 0.000733938,0.0168806 0.00807332,0.0543114 0.0190824,0.0447702 0.0300915,0.0337612 0.0433024,0.0132109 0.189356,0.0110091 -0.0271557,0.0425684 -0.0344951,0.0381648 -0.0396327,0.0286236 -0.0425684,0.0176145 -0.0455042,0.00513757 z "/>
<path fill="rgb(241,240,234)" stroke="rgb(241,240,234)" d="M 2.99539,1.75622 l -0.189356,-0.0110091 0.035963,-0.0095412 0.035229,-0.035963 0.00587151,-0.011743 0.0154127,-0.047706 0.00440363,-0.0579811 0,-0.0183485 -0.00807332,-0.0543114 -0.0176145,-0.0455042 -0.0286236,-0.0330272 -0.0425684,-0.0132109 -0.190824,-0.00880726 0.0271557,-0.0425684 0.0344951,-0.0396327 0.0388987,-0.0278897 0.0433024,-0.0168806 0.0469721,-0.00587151 0.0440363,0.00587151 0.0425684,0.0161466 0.0396327,0.0286236 0.035963,0.0396327 0.0110091,0.0154127 0.0249539,0.0440363 0.0168806,0.047706 0.0110091,0.0521096 0.00366969,0.0565133 -0.000733938,0.0227521 -0.00660544,0.0543114 -0.0132109,0.0506417 -0.0198163,0.0462381 z "/>
<path fill="rgb(241,240,234)" stroke="rgb(241,240,234)" d="M 2.27906,1.88246 l -0.0139448,0 -0.0447702,-0.0110091 -0.00587151,-0.00366969 -0.0425684,-0.035229 0.230457,-0.00880726 -0.0381648,0.0330272 -0.0403666,0.0198163 -0.0447702,0.00587151 z "/>
<path fill="rgb(241,240,234)" stroke="rgb(241,240,234)" d="M 2.17191,1.87438 l -0.128439,0 0,-0.822745 0.128439,0.0535775 0,0.227521 0.255411,0.0366969 0.00733938,0.011743 -0.179815,0.0366969 -0.0440363,0.012477 -0.00587151,0.00587151 -0.0330272,0.0455042 0,0.190824 0.011743,0.0256878 0.0315593,0.0366969 0.0396327,0.012477 0.198163,0.00146788 -0.0256878,0.0440363 -0.0249539,0.0308254 -0.230457,0.00880726 0,0.0418345 z "/>
<path fill="rgb(241,240,234)" stroke="rgb(241,240,234)" d="M 2.45301,1.74888 l -0.198163,-0.00146788 0.0418345,-0.0110091 0.035963,-0.0366969 0.00880726,-0.0146788 0.0176145,-0.047706 0.00587151,-0.0550454 0,-0.0190824 -0.0102751,-0.0521096 -0.0220181,-0.0455042 -0.0344951,-0.035963 -0.0433024,-0.011743 0.179815,-0.0366969 0.02422,0.0455042 0.0176145,0.0484399 0.0102751,0.0513757 0.00293575,0.0557793 0,0.0139448 -0.00513757,0.0543114 -0.012477,0.0506417 -0.0190824,0.047706 z "/>
<path fill="rgb(241,240,234)" stroke="rgb(241,240,234)" d="M 2.42732,1.36943 l -0.255411,-0.0366969 0.0139448,-0.012477 0.0344951,-0.0286236 0.00880726,-0.00440363 0.0499078,-0.00733938 0.0322933,0.00293575 0.0418345,0.0161466 0.0388987,0.0286236 0.035229,0.0418345 z "/>
<path fill="rgb(241,240,234)" stroke="rgb(241,240,234)" d="M 1.86292,1.88246 l -0.0183485,-0.000733938 -0.0440363,-0.0161466 -0.0396327,-0.0330272 0.0932102,-0.0873387 0.0315593,-0.00513757 0.0366969,-0.0300915 0.0411005,0.138714 -0.00880726,0.00660544 -0.0425684,0.0205503 -0.0491739,0.00660544 z "/>
<path fill="rgb(241,240,234)" stroke="rgb(241,240,234)" d="M 1.7609,1.87438 l -0.128439,0 0,-0.584215 0.128439,0 0,0.342749 0.00513757,0.0425684 0.023486,0.0396327 0.0198163,0.0168806 0.0447702,0.0132109 -0.0932102,0.0873387 0,0.0418345 z "/>
<path fill="rgb(241,240,234)" stroke="rgb(241,240,234)" d="M 1.30292,1.88833 l -0.00733938,0 -0.0455042,-0.00440363 -0.0455042,-0.0110091 -0.0469721,-0.0183485 -0.0469721,-0.0256878 0.0535775,-0.123302 0.0388987,0.0227521 0.0455042,0.0161466 0.0469721,0.00513757 0.187888,0.0418345 -0.0227521,0.035229 -0.0293575,0.0271557 -0.035963,0.0190824 -0.0433024,0.011743 -0.0491739,0.00366969 z "/>
<path fill="rgb(241,240,234)" stroke="rgb(241,240,234)" d="M 1.48347,1.79145 l -0.187888,-0.0418345 0.011743,0 0.0425684,-0.0139448 0.0278897,-0.0315593 0.0132109,-0.0499078 0.121834,-0.0102751 -0.00293575,0.0543114 -0.0095412,0.0506417 -0.0168806,0.0425684 z "/>
<path fill="rgb(241,240,234)" stroke="rgb(241,240,234)" d="M 1.27357,1.67549 l -0.00440363,0 -0.0521096,-0.00513757 -0.0455042,-0.0139448 -0.0388987,-0.023486 -0.0095412,-0.00807332 -0.0286236,-0.0381648 0.184952,-0.0300915 0.0161466,-0.000733938 0.0462381,-0.00880726 0.0491739,-0.0176145 0,-0.0895405 -0.02422,-0.0110091 -0.0484399,-0.0161466 -0.0418345,-0.00587151 -0.176879,-0.0440363 0.0300915,-0.035963 0.261282,-0.0110091 0,-0.0256878 0.121834,0 0,0.353758 -0.121834,0.0102751 -0.0212842,0.00733938 -0.047706,0.0102751 -0.0484399,0.00366969 z "/>
<path fill="rgb(241,240,234)" stroke="rgb(241,240,234)" d="M 1.09449,1.58668 l -0.0176145,-0.0469721 -0.00587151,-0.0557793 0.000733938,-0.0212842 0.00880726,-0.0543114 0.0190824,-0.0455042 0.176879,0.0440363 -0.0249539,0.00293575 -0.0411005,0.0205503 -0.00660544,0.00733938 -0.0176145,0.0462381 0.000733938,0.00807332 0.0249539,0.0433024 0.0183485,0.011743 0.0491739,0.0095412 -0.184952,0.0300915 z "/>
<path fill="rgb(241,240,234)" stroke="rgb(241,240,234)" d="M 1.12971,1.32687 l 0.035229,-0.0249539 0.0447702,-0.0168806 0.0513757,-0.00513757 0.0396327,0.00293575 0.0469721,0.011743 0.0433024,0.0212842 -0.261282,0.0110091 z "/>
<path fill="rgb(241,240,234)" stroke="rgb(241,240,234)" d="M 0.822194,1.88833 l -0.0132109,0 -0.047706,-0.00733938 -0.0433024,-0.0168806 -0.0396327,-0.0264218 -0.035229,-0.0366969 -0.0146788,-0.0198163 -0.0249539,-0.0433024 -0.0176145,-0.047706 -0.0102751,-0.0521096 -0.00366969,-0.0557793 0.000733938,-0.0293575 0.00733938,-0.0543114 0.0139448,-0.0499078 0.0212842,-0.0455042 0.209172,0.0095412 -0.011743,0.000733938 -0.0447702,0.0139448 -0.0366969,0.0330272 -0.011743,0.0183485 -0.0176145,0.0469721 -0.00660544,0.0565133 0.00146788,0.0264218 0.0110091,0.0521096 0.023486,0.0425684 0.00807332,0.00880726 0.0381648,0.0286236 0.0469721,0.00880726 0.192292,0.0293575 -0.0271557,0.0322933 -0.0366969,0.0337612 -0.0403666,0.02422 -0.0433024,0.0146788 -0.0469721,0.00440363 z "/>
<path fill="rgb(241,240,234)" stroke="rgb(241,240,234)" d="M 1.01669,1.77897 l -0.192292,-0.0293575 0.00660544,0 0.0418345,-0.011743 0.0344951,-0.0300915 0.0271557,-0.047706 0.0822011,0.118898 z "/>
<path fill="rgb(241,240,234)" stroke="rgb(241,240,234)" d="M 0.927147,1.48613 l -0.023486,-0.0337612 -0.0374309,-0.0293575 -0.0418345,-0.0102751 -0.209172,-0.0095412 0.0278897,-0.0403666 0.00807332,-0.0095412 0.0366969,-0.0337612 0.0411005,-0.02422 0.0447702,-0.0139448 0.0484399,-0.00513757 0.035963,0.00293575 0.0447702,0.012477 0.0403666,0.0220181 0.0381648,0.0315593 0.035229,0.0411005 -0.0895405,0.0998156 z "/>
<path fill="rgb(241,240,234)" stroke="rgb(241,240,234)" d="M 2.55796,6.76755 l -1.46788,0 0,-3.50015 0.573206,0 0,1.37246 0.894671,0 0.0748617,0.00220181 0.0822011,0.00587151 0.0777975,0.0102751 0.0741278,0.0154127 0.0697241,0.0190824 0.0660544,0.02422 0.0616508,0.0278897 0.0579811,0.0330272 0.0506417,0.0337612 0.0609169,0.0484399 0.0565133,0.0521096 0.0528436,0.0565133 0.0484399,0.0609169 0.0440363,0.0660544 0.0403666,0.0697241 0.0278897,0.0579811 -1.84072,0.0440363 0,0.872653 0.917423,0 0.934303,0.0366969 -0.0330272,0.0660544 -0.0374309,0.0631187 -0.0425684,0.0601829 -0.0469721,0.0565133 -0.0521096,0.0543114 -0.0565133,0.0506417 -0.0616508,0.047706 -0.0667884,0.0440363 -0.0521096,0.0300915 -0.0645866,0.0315593 -0.0675223,0.0264218 -0.0697241,0.0220181 -0.0726599,0.0161466 -0.0748617,0.012477 -0.0777975,0.00733938 -0.0807332,0.00220181 z "/>
<path fill="rgb(241,240,234)" stroke="rgb(241,240,234)" d="M 3.51501,6.17673 l -0.934303,-0.0366969 0.0755956,-0.00366969 0.0770635,-0.0139448 0.0689902,-0.023486 0.0609169,-0.0330272 0.0528436,-0.0433024 0.0286236,-0.0315593 0.0440363,-0.0631187 0.0308254,-0.0704581 0.0183485,-0.0770635 0.00660544,-0.0844029 -0.00146788,-0.035963 -0.011743,-0.0822011 -0.0256878,-0.0733938 -0.0381648,-0.0638526 -0.0513757,-0.0557793 -0.0499078,-0.0381648 -0.0623848,-0.0344951 -0.0682563,-0.0249539 -0.0748617,-0.0146788 -0.0799993,-0.00513757 -0.917423,0 1.84072,-0.0440363 0.0322933,0.0763296 0.0256878,0.0777975 0.0205503,0.0785314 0.0146788,0.0792653 0.00880726,0.0799993 0.00293575,0.0807332 0,0.0198163 -0.00366969,0.0851368 -0.00880726,0.0814672 -0.0132109,0.0777975 -0.0176145,0.0755956 -0.023486,0.071926 -0.0271557,0.0689902 z "/>
</g></g></svg>
