<?xml version="1.0" encoding="UTF-8" standalone="no"?>
<!DOCTYPE svg PUBLIC "-//W3C//DTD SVG 1.1//EN" "http://www.w3.org/Graphics/SVG/1.1/DTD/svg11-flat.dtd"
[

]>
<svg xmlns="http://www.w3.org/2000/svg"  viewBox="-0.075 -0.075 15.65 4.65"><g fill="none" stroke="black" stroke-width="0.0125" transform="translate(0,4.5) scale(1, -1)">
<g id="Output" >
<path fill="rgb(0,91,140)" stroke="rgb(0,91,140)" d="M 0.7,0.4 l 7.05,4.44089e-16 7.05,-4.44089e-16 0.0261467,0.00114159 0.0259477,0.00341608 0.0255513,0.00566458 0.0249603,0.00786996 0.0241794,0.0100155 0.0232145,0.0120847 0.0220729,0.014062 0.0207634,0.0159323 0.0192958,0.0176813 0.0176813,0.0192958 0.0159323,0.0207634 0.014062,0.0220729 0.0120847,0.0232145 0.0100155,0.0241794 0.00786996,0.0249603 0.00566458,0.0255513 0.00341608,0.0259477 0.00114159,0.0261467 0,2.70881 0,0.210916 0,0.180275 -0.00114159,0.0261467 -0.00341608,0.0259477 -0.00566458,0.0255513 -0.00786996,0.0249603 -0.0100155,0.0241794 -0.0120847,0.0232145 -0.014062,0.0220729 -0.0159323,0.0207634 -0.0176813,0.0192958 -0.0192958,0.0176813 -0.0207634,0.0159323 -0.0220729,0.014062 -0.0232145,0.0120847 -0.0241794,0.0100155 -0.0249603,0.00786996 -0.0255513,0.00566458 -0.0259477,0.00341608 -0.0261467,0.00114159 -7.05,-8.88178e-16 -7.05,0 -0.0261467,-0.00114159 -0.0259477,-0.00341608 -0.0255513,-0.00566458 -0.0249603,-0.00786996 -0.0241794,-0.0100155 -0.0232145,-0.0120847 -0.0220729,-0.014062 -0.0207634,-0.0159323 -0.0192958,-0.0176813 -0.0176813,-0.0192958 -0.0159323,-0.0207634 -0.014062,-0.0220729 -0.0120847,-0.0232145 -0.0100155,-0.0241794 -0.00786996,-0.0249603 -0.00566458,-0.0255513 -0.00341608,-0.0259477 -0.00114159,-0.0261467 2.66454e-15,-2.70881 1.77636e-15,-0.210916 0,-0.180275 0.00114159,-0.0261467 0.00341608,-0.0259477 0.00566458,-0.0255513 0.00786996,-0.0249603 0.0100155,-0.0241794 0.0120847,-0.0232145 0.014062,-0.0220729 0.0159323,-0.0207634 0.0176813,-0.0192958 0.0192958,-0.0176813 0.0207634,-0.0159323 0.0220729,-0.014062 0.0232145,-0.0120847 0.0241794,-0.0100155 0.0249603,-0.00786996 0.0255513,-0.00566458 0.0259477,-0.00341608 0.0261467,-0.00114159 z "/>
<path fill="rgb(0,91,140)" stroke="rgb(0,91,140)" d="M 7.75,4.3 l 7.05,0 0.0435779,-0.00190265 0.0432462,-0.00569347 0.0425854,-0.00944096 0.0416005,-0.0131166 0.0402991,-0.0166924 0.0386909,-0.0201412 0.0367882,-0.0234367 0.0346056,-0.0265538 0.0321596,-0.0294688 0.0294688,-0.0321596 0.0265538,-0.0346056 0.0234367,-0.0367882 0.0201412,-0.0386909 0.0166924,-0.0402991 0.0131166,-0.0416005 0.00944096,-0.0425854 0.00569347,-0.0432462 0.00190265,-0.0435779 0,-3.1 -0.00190265,-0.0435779 -0.00569347,-0.0432462 -0.00944096,-0.0425854 -0.0131166,-0.0416005 -0.0166924,-0.0402991 -0.0201412,-0.0386909 -0.0234367,-0.0367882 -0.0265538,-0.0346056 -0.0294688,-0.0321596 -0.0321596,-0.0294688 -0.0346056,-0.0265538 -0.0367882,-0.0234367 -0.0386909,-0.0201412 -0.0402991,-0.0166924 -0.0416005,-0.0131166 -0.0425854,-0.00944096 -0.0432462,-0.00569347 -0.0435779,-0.00190265 -7.05,0 0,-0.2 7.05,0 0.061009,0.00266371 0.0605447,0.00797086 0.0596196,0.0132173 0.0582408,0.0183632 0.0564187,0.0233694 0.0541672,0.0281977 0.0515035,0.0328114 0.0484478,0.0371753 0.0450234,0.0412564 0.0412564,0.0450234 0.0371753,0.0484478 0.0328114,0.0515035 0.0281977,0.0541672 0.0233694,0.0564187 0.0183632,0.0582408 0.0132173,0.0596196 0.00797086,0.0605447 0.00266371,0.061009 0,3.1 -0.00266371,0.061009 -0.00797086,0.0605447 -0.0132173,0.0596196 -0.0183632,0.0582408 -0.0233694,0.0564187 -0.0281977,0.0541672 -0.0328114,0.0515035 -0.0371753,0.0484478 -0.0412564,0.0450234 -0.0450234,0.0412564 -0.0484478,0.0371753 -0.0515035,0.0328114 -0.0541672,0.0281977 -0.0564187,0.0233694 -0.0582408,0.0183632 -0.0596196,0.0132173 -0.0605447,0.00797086 -0.061009,0.00266371 -7.05,0 0,-0.2 z "/>
<path fill="rgb(0,91,140)" stroke="rgb(0,91,140)" d="M 7.75,4.3 l 0,0.2 -7.05,0 -0.061009,-0.00266371 -0.0605447,-0.00797086 -0.0596196,-0.0132173 -0.0582408,-0.0183632 -0.0564187,-0.0233694 -0.0541672,-0.0281977 -0.0515035,-0.0328114 -0.0484478,-0.0371753 -0.0450234,-0.0412564 -0.0412564,-0.0450234 -0.0371753,-0.0484478 -0.0328114,-0.0515035 -0.0281977,-0.0541672 -0.0233694,-0.0564187 -0.0183632,-0.0582408 -0.0132173,-0.0596196 -0.00797086,-0.0605447 -0.00266371,-0.061009 8.88178e-16,-3.1 0.00266371,-0.061009 0.00797086,-0.0605447 0.0132173,-0.0596196 0.0183632,-0.0582408 0.0233694,-0.0564187 0.0281977,-0.0541672 0.0328114,-0.0515035 0.0371753,-0.0484478 0.0412564,-0.0450234 0.0450234,-0.0412564 0.0484478,-0.0371753 0.0515035,-0.0328114 0.0541672,-0.0281977 0.0564187,-0.0233694 0.0582408,-0.0183632 0.0596196,-0.0132173 0.0605447,-0.00797086 0.061009,-0.00266371 7.05,0 0,0.2 -7.05,0 -0.0435779,0.00190265 -0.0432462,0.00569347 -0.0425854,0.00944096 -0.0416005,0.0131166 -0.0402991,0.0166924 -0.0386909,0.0201412 -0.0367882,0.0234367 -0.0346056,0.0265538 -0.0321596,0.0294688 -0.0294688,0.0321596 -0.0265538,0.0346056 -0.0234367,0.0367882 -0.0201412,0.0386909 -0.0166924,0.0402991 -0.0131166,0.0416005 -0.00944096,0.0425854 -0.00569347,0.0432462 -0.00190265,0.0435779 -8.88178e-16,3.1 0.00190265,0.0435779 0.00569347,0.0432462 0.00944096,0.0425854 0.0131166,0.0416005 0.0166924,0.0402991 0.0201412,0.0386909 0.0234367,0.0367882 0.0265538,0.0346056 0.0294688,0.0321596 0.0321596,0.0294688 0.0346056,0.0265538 0.0367882,0.0234367 0.0386909,0.0201412 0.0402991,0.0166924 0.0416005,0.0131166 0.0425854,0.00944096 0.0432462,0.00569347 0.0435779,0.00190265 7.05,8.88178e-16 z "/>
<path fill="rgb(241,240,234)" stroke="rgb(241,240,234)" d="M 7.75,4.3 l 0,-0.2 7.05,8.88178e-16 0.0261467,-0.00114159 0.0259477,-0.00341608 0.0255513,-0.00566458 0.0249603,-0.00786996 0.0241794,-0.0100155 0.0232145,-0.0120847 0.0220729,-0.014062 0.0207634,-0.0159323 0.0192958,-0.0176813 0.0176813,-0.0192958 0.0159323,-0.0207634 0.014062,-0.0220729 0.0120847,-0.0232145 0.0100155,-0.0241794 0.00786996,-0.0249603 0.00566458,-0.0255513 0.00341608,-0.0259477 0.00114159,-0.0261467 0,-0.180275 0,-0.210916 0,-2.70881 -0.00114159,-0.0261467 -0.00341608,-0.0259477 -0.00566458,-0.0255513 -0.00786996,-0.0249603 -0.0100155,-0.0241794 -0.0120847,-0.0232145 -0.014062,-0.0220729 -0.0159323,-0.0207634 -0.0176813,-0.0192958 -0.0192958,-0.0176813 -0.0207634,-0.0159323 -0.0220729,-0.014062 -0.0232145,-0.0120847 -0.0241794,-0.0100155 -0.0249603,-0.00786996 -0.0255513,-0.00566458 -0.0259477,-0.00341608 -0.0261467,-0.00114159 -7.05,4.44089e-16 0,-0.2 7.05,0 0.0435779,0.00190265 0.0432462,0.00569347 0.0425854,0.00944096 0.0416005,0.0131166 0.0402991,0.0166924 0.0386909,0.0201412 0.0367882,0.0234367 0.0346056,0.0265538 0.0321596,0.0294688 0.0294688,0.0321596 0.0265538,0.0346056 0.0234367,0.0367882 0.0201412,0.0386909 0.0166924,0.0402991 0.0131166,0.0416005 0.00944096,0.0425854 0.00569347,0.0432462 0.00190265,0.0435779 0,3.1 -0.00190265,0.0435779 -0.00569347,0.0432462 -0.00944096,0.0425854 -0.0131166,0.0416005 -0.0166924,0.0402991 -0.0201412,0.0386909 -0.0234367,0.0367882 -0.0265538,0.0346056 -0.0294688,0.0321596 -0.0321596,0.0294688 -0.0346056,0.0265538 -0.0367882,0.0234367 -0.0386909,0.0201412 -0.0402991,0.0166924 -0.0416005,0.0131166 -0.0425854,0.00944096 -0.0432462,0.00569347 -0.0435779,0.00190265 -7.05,0 z "/>
<path fill="rgb(241,240,234)" stroke="rgb(241,240,234)" d="M 7.75,4.3 l -7.05,-8.88178e-16 -0.0435779,-0.00190265 -0.0432462,-0.00569347 -0.0425854,-0.00944096 -0.0416005,-0.0131166 -0.0402991,-0.0166924 -0.0386909,-0.0201412 -0.0367882,-0.0234367 -0.0346056,-0.0265538 -0.0321596,-0.0294688 -0.0294688,-0.0321596 -0.0265538,-0.0346056 -0.0234367,-0.0367882 -0.0201412,-0.0386909 -0.0166924,-0.0402991 -0.0131166,-0.0416005 -0.00944096,-0.0425854 -0.00569347,-0.0432462 -0.00190265,-0.0435779 8.88178e-16,-3.1 0.00190265,-0.0435779 0.00569347,-0.0432462 0.00944096,-0.0425854 0.0131166,-0.0416005 0.0166924,-0.0402991 0.0201412,-0.0386909 0.0234367,-0.0367882 0.0265538,-0.0346056 0.0294688,-0.0321596 0.0321596,-0.0294688 0.0346056,-0.0265538 0.0367882,-0.0234367 0.0386909,-0.0201412 0.0402991,-0.0166924 0.0416005,-0.0131166 0.0425854,-0.00944096 0.0432462,-0.00569347 0.0435779,-0.00190265 7.05,0 0,0.2 -7.05,-4.44089e-16 -0.0261467,0.00114159 -0.0259477,0.00341608 -0.0255513,0.00566458 -0.0249603,0.00786996 -0.0241794,0.0100155 -0.0232145,0.0120847 -0.0220729,0.014062 -0.0207634,0.0159323 -0.0192958,0.0176813 -0.0176813,0.0192958 -0.0159323,0.0207634 -0.014062,0.0220729 -0.0120847,0.0232145 -0.0100155,0.0241794 -0.00786996,0.0249603 -0.00566458,0.0255513 -0.00341608,0.0259477 -0.00114159,0.0261467 0,0.180275 -1.77636e-15,0.210916 -2.66454e-15,2.70881 0.00114159,0.0261467 0.00341608,0.0259477 0.00566458,0.0255513 0.00786996,0.0249603 0.0100155,0.0241794 0.0120847,0.0232145 0.014062,0.0220729 0.0159323,0.0207634 0.0176813,0.0192958 0.0192958,0.0176813 0.0207634,0.0159323 0.0220729,0.014062 0.0232145,0.0120847 0.0241794,0.0100155 0.0249603,0.00786996 0.0255513,0.00566458 0.0259477,0.00341608 0.0261467,0.00114159 7.05,0 0,0.2 z "/>
<path fill="rgb(241,240,234)" stroke="rgb(241,240,234)" d="M 13.0795,2.69656 l -0.0407646,-0.00203823 -0.0519749,-0.00764336 -0.0499366,-0.013758 -0.0478984,-0.0198727 -0.0458602,-0.0259874 -0.0443315,-0.0321021 -0.0417837,-0.0377072 0.651724,-0.00560513 -0.0392359,0.0382168 -0.0422933,0.0326117 -0.0443315,0.026497 -0.0468793,0.0203823 -0.0499366,0.0147772 -0.0519749,0.00917203 -0.0545226,0.00305734 z "/>
<path fill="rgb(241,240,234)" stroke="rgb(241,240,234)" d="M 13.8188,2.69656 l -0.00611469,0 -0.0489175,-0.00305734 -0.0494271,-0.00764336 -0.0489175,-0.0127389 -0.0489175,-0.017325 -0.0494271,-0.021911 -0.0489175,-0.0270065 -0.0489175,-0.0315926 -0.0494271,-0.0361786 0.777585,-0.00866248 -0.0382168,0.0397455 -0.0382168,0.0326117 -0.0428028,0.0285352 -0.0458602,0.0234396 -0.0489175,0.0183441 -0.0519749,0.0127389 -0.0550322,0.00764336 -0.05758,0.00305734 z "/>
<path fill="rgb(241,240,234)" stroke="rgb(241,240,234)" d="M 12.7569,2.66496 l -0.32255,0 0,-1.31466 0.32255,0 0,0.789814 0.000509557,0.0234396 0.00968159,0.0535035 0.0198727,0.048408 0.0300639,0.0428028 0.00968159,0.0101911 0.0407646,0.0305734 0.048408,0.0183441 0.0560513,0.00611469 1.30192,0.0214014 -0.0193632,0.0478984 -0.0254779,0.0453506 -0.0315926,0.0422933 -0.777585,0.00866248 -0.0112103,0.0127389 -0.651724,0.00560513 0,0.107517 z "/>
<path fill="rgb(241,240,234)" stroke="rgb(241,240,234)" d="M 14.2739,2.3949 l -1.30192,-0.0214014 0.776056,0 0.0270065,-0.00101911 0.0545226,-0.0101911 0.0458602,-0.021911 0.0377072,-0.0321021 0.0168154,-0.021911 0.0239492,-0.0453506 0.0147772,-0.0509557 0.00458602,-0.05758 0,-0.782171 0.32255,0 0,0.902426 -0.00152867,0.0377072 -0.0071338,0.0535035 -0.0132485,0.0509557 z "/>
<path fill="rgb(241,240,234)" stroke="rgb(241,240,234)" d="M 12.972,2.3735 l 0.0275161,-0.00152867 0.0514653,-0.0112103 0.0473888,-0.021911 0.0438219,-0.0336308 0.0203823,-0.0224205 0.026497,-0.0438219 0.0157963,-0.0499366 0.00560513,-0.0565609 0,-0.782171 0.309301,0 0,0.79491 0.000509557,0.0188536 0.0107007,0.0514653 0.0224205,0.0468793 0.0346499,0.0428028 0.0142676,0.013758 0.0443315,0.0300639 0.048408,0.0183441 0.052994,0.00611469 -0.776056,0 z "/>
<path fill="rgb(241,240,234)" stroke="rgb(241,240,234)" d="M 11.6109,2.69656 l -0.0142676,-0.000509557 -0.0504462,-0.00203823 -0.0509557,-0.00560513 -0.0509557,-0.00866248 -0.0514653,-0.0117198 -0.0514653,-0.0147772 -0.0524844,-0.0183441 -0.0519749,-0.0208919 -0.052994,-0.0239492 -0.052994,-0.0275161 0.134014,-0.278218 0.0203823,0.0127389 0.0489175,0.026497 0.0499366,0.021911 0.0509557,0.0168154 0.0514653,0.0122294 0.0524844,0.0071338 0.0535035,0.00254779 0.505991,0.0147772 -0.0178345,0.0443315 -0.0203823,0.040255 -0.0244588,0.0366881 -0.0275161,0.0336308 -0.0305734,0.0300639 -0.0341403,0.0259874 -0.0377072,0.0229301 -0.0407646,0.0193632 -0.0438219,0.0157963 -0.0478984,0.0127389 -0.0509557,0.00866248 -0.0540131,0.00509557 -0.05758,0.00203823 z "/>
<path fill="rgb(241,240,234)" stroke="rgb(241,240,234)" d="M 12.0986,2.39898 l -0.505991,-0.0147772 0.0117198,0 0.0545226,-0.00611469 0.0473888,-0.0142676 0.0397455,-0.0224205 0.0321021,-0.0305734 0.0254779,-0.0387264 0.017325,-0.0473888 0.0101911,-0.0555418 -0.559494,-0.000509557 -0.0443315,-0.0214014 -0.0412741,-0.0254779 -0.0117198,-0.00917203 -0.0377072,-0.0341403 -0.0321021,-0.0382168 -0.026497,-0.0428028 -0.0203823,-0.0463697 0.495799,-0.00254779 0.0122294,0 0.0499366,-0.0035669 0.0519749,-0.00764336 0.052994,-0.0117198 0.0545226,-0.0168154 0.0560513,-0.0203823 0,-0.202294 -0.0275161,-0.0117198 -0.0585991,-0.0224205 -0.0550322,-0.0168154 -0.0514653,-0.0127389 -0.048408,-0.0071338 -0.0448411,-0.00254779 -0.482041,-0.0198727 0.0208919,-0.0463697 0.0259874,-0.0422933 0.0315926,-0.0382168 0.0366881,-0.0341403 0.0214014,-0.0168154 0.631342,-0.0071338 0,-0.05758 0.304206,0 0,0.79491 -0.00101911,0.0428028 -0.0035669,0.0580895 -0.00764336,0.0545226 -0.0107007,0.0509557 -0.013758,0.0473888 z "/>
<path fill="rgb(241,240,234)" stroke="rgb(241,240,234)" d="M 11.5375,2.21604 l -0.052994,-0.00152867 -0.0585991,-0.00509557 -0.0550322,-0.00968159 -0.0514653,-0.0132485 -0.0478984,-0.0178345 0.559494,0.000509557 -0.0244588,0.00764336 -0.0524844,0.0142676 -0.052994,0.0107007 -0.0540131,0.00815292 -0.0545226,0.00458602 -0.0550322,0.00152867 z "/>
<path fill="rgb(241,240,234)" stroke="rgb(241,240,234)" d="M 11.0575,1.95108 l -0.0142676,-0.0509557 -0.00866248,-0.0550322 -0.00305734,-0.0591087 0.000509557,-0.0295543 0.00509557,-0.0585991 0.0107007,-0.0545226 0.0152867,-0.0504462 0.482041,0.0198727 -0.0188536,0.000509557 -0.0565609,0.00764336 -0.0489175,0.017325 -0.0407646,0.0270065 -0.0249683,0.0259874 -0.026497,0.0448411 -0.00866248,0.0499366 0.00305734,0.0295543 0.0203823,0.0463697 0.0392359,0.0392359 0.0132485,0.00917203 0.0443315,0.0214014 0.0524844,0.0127389 0.0606373,0.00407646 -0.495799,0.00254779 z "/>
<path fill="rgb(241,240,234)" stroke="rgb(241,240,234)" d="M 11.1997,1.41502 l 0.0428028,-0.0270065 0.0458602,-0.021911 0.0494271,-0.017325 0.052994,-0.0122294 0.0560513,-0.0071338 0.0591087,-0.00254779 0.0142676,0 0.0560513,0.00305734 0.0540131,0.0071338 0.0524844,0.0117198 0.0509557,0.0157963 0.0494271,0.0193632 0.0478984,0.0239492 -0.631342,0.0071338 z "/>
<path fill="rgb(241,240,234)" stroke="rgb(241,240,234)" d="M 10.2815,2.69656 l -0.013758,-0.000509557 -0.0509557,-0.00203823 -0.0504462,-0.00560513 -0.0514653,-0.00866248 -0.0514653,-0.0117198 -0.0514653,-0.0147772 -0.0519749,-0.0183441 -0.0524844,-0.0208919 -0.052994,-0.0239492 -0.0524844,-0.0275161 0.133504,-0.278218 0.0203823,0.0127389 0.0494271,0.026497 0.0494271,0.021911 0.0509557,0.0168154 0.0514653,0.0122294 0.0524844,0.0071338 0.0535035,0.00254779 0.505991,0.0147772 -0.017325,0.0443315 -0.0208919,0.040255 -0.0239492,0.0366881 -0.0275161,0.0336308 -0.031083,0.0300639 -0.0341403,0.0259874 -0.0371977,0.0229301 -0.0412741,0.0193632 -0.0438219,0.0157963 -0.0478984,0.0127389 -0.0504462,0.00866248 -0.0545226,0.00509557 -0.05758,0.00203823 z "/>
<path fill="rgb(241,240,234)" stroke="rgb(241,240,234)" d="M 10.7691,2.39898 l -0.505991,-0.0147772 0.0117198,0 0.0545226,-0.00611469 0.0473888,-0.0142676 0.0397455,-0.0224205 0.0326117,-0.0305734 0.0249683,-0.0387264 0.017325,-0.0473888 0.0101911,-0.0555418 -0.559494,-0.000509557 -0.0443315,-0.0214014 -0.0407646,-0.0254779 -0.0122294,-0.00917203 -0.0377072,-0.0341403 -0.0321021,-0.0382168 -0.026497,-0.0428028 -0.0203823,-0.0463697 0.495799,-0.00254779 0.0122294,0 0.0504462,-0.0035669 0.0514653,-0.00764336 0.052994,-0.0117198 0.0545226,-0.0168154 0.0560513,-0.0203823 0,-0.202294 -0.0275161,-0.0117198 -0.0585991,-0.0224205 -0.0545226,-0.0168154 -0.0519749,-0.0127389 -0.0478984,-0.0071338 -0.0448411,-0.00254779 -0.482551,-0.0198727 0.0208919,-0.0463697 0.026497,-0.0422933 0.031083,-0.0382168 0.0366881,-0.0341403 0.0214014,-0.0168154 0.631342,-0.0071338 0,-0.05758 0.304206,0 0,0.79491 -0.000509557,0.0428028 -0.00407646,0.0580895 -0.00764336,0.0545226 -0.0107007,0.0509557 -0.013758,0.0473888 z "/>
<path fill="rgb(241,240,234)" stroke="rgb(241,240,234)" d="M 10.2081,2.21604 l -0.0524844,-0.00152867 -0.0591087,-0.00509557 -0.0550322,-0.00968159 -0.0514653,-0.0132485 -0.0478984,-0.0178345 0.559494,0.000509557 -0.0244588,0.00764336 -0.0524844,0.0142676 -0.052994,0.0107007 -0.0540131,0.00815292 -0.0545226,0.00458602 -0.0550322,0.00152867 z "/>
<path fill="rgb(241,240,234)" stroke="rgb(241,240,234)" d="M 9.72811,1.95108 l -0.0142676,-0.0509557 -0.00866248,-0.0550322 -0.00305734,-0.0591087 0.000509557,-0.0295543 0.00509557,-0.0585991 0.0107007,-0.0545226 0.0152867,-0.0504462 0.482551,0.0198727 -0.0188536,0.000509557 -0.0570704,0.00764336 -0.0489175,0.017325 -0.0407646,0.0270065 -0.0249683,0.0259874 -0.026497,0.0448411 -0.00866248,0.0499366 0.00305734,0.0295543 0.0203823,0.0463697 0.0397455,0.0392359 0.0132485,0.00917203 0.0443315,0.0214014 0.0519749,0.0127389 0.0606373,0.00407646 -0.495799,0.00254779 z "/>
<path fill="rgb(241,240,234)" stroke="rgb(241,240,234)" d="M 9.87028,1.41502 l 0.0428028,-0.0270065 0.0463697,-0.021911 0.0494271,-0.017325 0.0524844,-0.0122294 0.0560513,-0.0071338 0.0591087,-0.00254779 0.0142676,0 0.0560513,0.00305734 0.0540131,0.0071338 0.0524844,0.0117198 0.0514653,0.0157963 0.0494271,0.0193632 0.0473888,0.0239492 -0.631342,0.0071338 z "/>
<path fill="rgb(241,240,234)" stroke="rgb(241,240,234)" d="M 8.98874,2.6884 l -0.0305734,-0.00101911 -0.0555418,-0.00611469 -0.0519749,-0.0122294 -0.048408,-0.0188536 -0.0448411,-0.0249683 -0.0407646,-0.0305734 -0.0371977,-0.0371977 0.694017,-0.0254779 -0.0382168,0.0382168 -0.0392359,0.031083 -0.0428028,0.026497 -0.0463697,0.021911 -0.0499366,0.0168154 -0.0524844,0.0122294 -0.0560513,0.0071338 -0.0596182,0.00254779 z "/>
<path fill="rgb(241,240,234)" stroke="rgb(241,240,234)" d="M 8.67944,2.66496 l -0.32255,0 0,-1.31466 0.32255,0 0,0.789814 0.00152867,0.0270065 0.0112103,0.0509557 0.0224205,0.0478984 0.0331212,0.0448411 0.0198727,0.0193632 0.0428028,0.0300639 0.048408,0.0178345 0.0540131,0.00611469 0.536564,0.013758 -0.0188536,0.0478984 -0.0254779,0.0448411 -0.0315926,0.0412741 -0.694017,0.0254779 0,0.107517 z "/>
<path fill="rgb(241,240,234)" stroke="rgb(241,240,234)" d="M 9.44938,2.39796 l -0.536564,-0.013758 0.0331212,-0.00152867 0.052994,-0.0112103 0.0468793,-0.0214014 0.040255,-0.0315926 0.0224205,-0.026497 0.0254779,-0.0443315 0.0152867,-0.0504462 0.00509557,-0.0570704 0,-0.789814 0.314397,0 0,0.915675 -0.000509557,0.0259874 -0.00611469,0.0545226 -0.0127389,0.0514653 z "/>
<path fill="rgb(241,240,234)" stroke="rgb(241,240,234)" d="M 7.58338,2.6884 l -0.0127389,0 -0.062166,-0.00254779 -0.0585991,-0.00662425 -0.0545226,-0.00968159 -0.0509557,-0.0142676 -0.0473888,-0.017325 -0.0433124,-0.0214014 -0.0397455,-0.0249683 -0.0412741,-0.0341403 -0.0351595,-0.0387264 -0.0275161,-0.0428028 -0.0193632,-0.0468793 0.500895,-0.0499366 0.0249683,-0.000509557 0.052994,-0.00407646 0.0524844,-0.00764336 0.0519749,-0.0112103 0.0514653,-0.0152867 0.0509557,-0.0193632 0.0504462,-0.0229301 0.0499366,-0.0270065 0.118217,0.286371 -0.0417837,0.0208919 -0.0514653,0.0229301 -0.0509557,0.0203823 -0.0519749,0.0178345 -0.0514653,0.0147772 -0.0524844,0.0122294 -0.0524844,0.00968159 -0.0524844,0.00662425 -0.052994,0.00407646 -0.0535035,0.00152867 z "/>
<path fill="rgb(241,240,234)" stroke="rgb(241,240,234)" d="M 7.09064,2.42904 l -0.0117198,-0.0509557 -0.00407646,-0.0545226 0.000509557,-0.0203823 0.00611469,-0.052994 0.0132485,-0.0499366 0.0203823,-0.0468793 0.0275161,-0.0433124 0.0346499,-0.040255 0.0417837,-0.0371977 0.0178345,-0.0132485 0.0346499,-0.0214014 0.040255,-0.0214014 0.0463697,-0.0214014 0.0514653,-0.0203823 0.05758,-0.0203823 0.0631851,-0.0198727 0.0687902,-0.0193632 0.0631851,-0.0178345 0.0580895,-0.017325 0.0203823,-0.00662425 0.0397455,-0.0229301 0.0331212,-0.0371977 0.0112103,-0.0448411 -0.00203823,-0.0157963 -0.0152867,-0.0275161 -0.0305734,-0.0214014 -0.0463697,-0.0152867 -0.0616564,-0.00917203 -0.0774527,-0.00305734 0.534016,-0.031083 0.0101911,0.052994 0.0035669,0.0570704 -0.00152867,0.035669 -0.00560513,0.0438219 -0.0112103,0.0417837 -0.0152867,0.0397455 -0.0203823,0.0371977 -0.0249683,0.0351595 -0.0295543,0.0326117 -0.0341403,0.031083 -0.0392359,0.0280257 -0.0438219,0.026497 -0.0489175,0.0239492 -0.0535035,0.0214014 -0.0580895,0.0193632 -0.0626756,0.017325 -0.0672616,0.0147772 -0.0382168,0.00815292 -0.0636947,0.0157963 -0.0489175,0.0147772 -0.0331212,0.013758 -0.0295543,0.0249683 -0.0147772,0.048408 0.00509557,0.0270065 0.0224205,0.0275161 0.0392359,0.0193632 0.0560513,0.0117198 0.0738858,0.00407646 -0.500895,0.0499366 z "/>
<path fill="rgb(241,240,234)" stroke="rgb(241,240,234)" d="M 7.16147,1.7284 l -0.118217,-0.283823 0.0295543,-0.013758 0.0463697,-0.0198727 0.0478984,-0.017325 0.0499366,-0.0157963 0.0509557,-0.013758 0.0519749,-0.0112103 0.0540131,-0.00968159 0.0555418,-0.0071338 0.0570704,-0.00509557 0.0580895,-0.00305734 0.0601278,-0.00101911 0.0453506,0.000509557 0.0616564,0.00458602 0.05758,0.00764336 0.0535035,0.0107007 0.0504462,0.0147772 0.0458602,0.0178345 0.0428028,0.0214014 0.0387264,0.0249683 0.0117198,0.00866248 0.0387264,0.0351595 0.0321021,0.0397455 0.0244588,0.0438219 0.0178345,0.048408 -0.534016,0.031083 -0.0300639,0.00101911 -0.048408,0.00458602 -0.052994,0.00815292 -0.05758,0.0122294 -0.0626756,0.0163058 -0.0224205,0.00560513 -0.0565609,0.0152867 -0.0519749,0.0147772 -0.0473888,0.0142676 z "/>
<path fill="rgb(241,240,234)" stroke="rgb(241,240,234)" d="M 6.66567,3.17911 l -0.327645,-0.118217 0,-0.404079 -0.215033,0 0,-0.301658 0.215033,0 0,-0.632361 0.00203823,-0.0519749 0.00662425,-0.0580895 0.463188,0.0290448 -0.0285352,0.00203823 -0.0412741,0.0132485 -0.0326117,0.0259874 -0.0229301,0.0387264 -0.013758,0.0504462 -0.00509557,0.0636947 0,0.519239 0.270065,0 0,0.301658 -0.270065,0 0,0.522296 z "/>
<path fill="rgb(241,240,234)" stroke="rgb(241,240,234)" d="M 6.95714,1.71005 l -0.00458602,-0.00407646 -0.048408,-0.035669 -0.0478984,-0.0214014 -0.0463697,-0.0071338 -0.463188,-0.0290448 0.0117198,-0.052994 0.017325,-0.0489175 0.021911,-0.0443315 0.0270065,-0.040255 0.00611469,-0.0071338 0.035669,-0.0361786 0.0417837,-0.0280257 0.0468793,-0.0198727 0.052994,-0.0122294 0.05758,-0.00407646 0.0305734,0.00152867 0.0504462,0.0071338 0.0514653,0.0132485 0.0524844,0.0203823 0.0540131,0.0259874 0.0524844,0.323059 z "/>
<path fill="rgb(241,240,234)" stroke="rgb(241,240,234)" d="M 5.44426,2.69656 l -0.0142676,-0.000509557 -0.0504462,-0.00203823 -0.0509557,-0.00560513 -0.0509557,-0.00866248 -0.0514653,-0.0117198 -0.0519749,-0.0147772 -0.0519749,-0.0183441 -0.0524844,-0.0208919 -0.0524844,-0.0239492 -0.052994,-0.0275161 0.133504,-0.278218 0.0208919,0.0127389 0.0489175,0.026497 0.0499366,0.021911 0.0504462,0.0168154 0.0519749,0.0122294 0.0524844,0.0071338 0.0535035,0.00254779 0.505481,0.0147772 -0.017325,0.0443315 -0.0208919,0.040255 -0.0239492,0.0366881 -0.0275161,0.0336308 -0.0305734,0.0300639 -0.0341403,0.0259874 -0.0377072,0.0229301 -0.0407646,0.0193632 -0.0443315,0.0157963 -0.0473888,0.0127389 -0.0509557,0.00866248 -0.0540131,0.00509557 -0.05758,0.00203823 z "/>
<path fill="rgb(241,240,234)" stroke="rgb(241,240,234)" d="M 5.9314,2.39898 l -0.505481,-0.0147772 0.0117198,0 0.0545226,-0.00611469 0.0468793,-0.0142676 0.0397455,-0.0224205 0.0326117,-0.0305734 0.0249683,-0.0387264 0.0178345,-0.0473888 0.0101911,-0.0555418 -0.560004,-0.000509557 -0.0443315,-0.0214014 -0.0407646,-0.0254779 -0.0117198,-0.00917203 -0.0382168,-0.0341403 -0.0321021,-0.0382168 -0.0259874,-0.0428028 -0.0203823,-0.0463697 0.49529,-0.00254779 0.0127389,0 0.0499366,-0.0035669 0.0514653,-0.00764336 0.052994,-0.0117198 0.0550322,-0.0168154 0.0560513,-0.0203823 0,-0.202294 -0.0280257,-0.0117198 -0.0580895,-0.0224205 -0.0550322,-0.0168154 -0.0514653,-0.0127389 -0.048408,-0.0071338 -0.0448411,-0.00254779 -0.482041,-0.0198727 0.0208919,-0.0463697 0.0259874,-0.0422933 0.0315926,-0.0382168 0.0366881,-0.0341403 0.0214014,-0.0168154 0.631342,-0.0071338 0,-0.05758 0.304206,0 0,0.79491 -0.00101911,0.0428028 -0.00407646,0.0580895 -0.0071338,0.0545226 -0.0107007,0.0509557 -0.0142676,0.0473888 z "/>
<path fill="rgb(241,240,234)" stroke="rgb(241,240,234)" d="M 5.37088,2.21604 l -0.052994,-0.00152867 -0.0585991,-0.00509557 -0.0550322,-0.00968159 -0.0519749,-0.0132485 -0.0478984,-0.0178345 0.560004,0.000509557 -0.0244588,0.00764336 -0.0524844,0.0142676 -0.0535035,0.0107007 -0.0535035,0.00815292 -0.0545226,0.00458602 -0.0550322,0.00152867 z "/>
<path fill="rgb(241,240,234)" stroke="rgb(241,240,234)" d="M 4.89088,1.95108 l -0.0147772,-0.0509557 -0.00866248,-0.0550322 -0.00305734,-0.0591087 0.00101911,-0.0295543 0.00509557,-0.0585991 0.0101911,-0.0545226 0.0157963,-0.0504462 0.482041,0.0198727 -0.0188536,0.000509557 -0.0570704,0.00764336 -0.0489175,0.017325 -0.040255,0.0270065 -0.0254779,0.0259874 -0.0259874,0.0448411 -0.00917203,0.0499366 0.0035669,0.0295543 0.0203823,0.0463697 0.0392359,0.0392359 0.0132485,0.00917203 0.0443315,0.0214014 0.0524844,0.0127389 0.0601278,0.00407646 -0.49529,0.00254779 z "/>
<path fill="rgb(241,240,234)" stroke="rgb(241,240,234)" d="M 5.03305,1.41502 l 0.0428028,-0.0270065 0.0458602,-0.021911 0.0494271,-0.017325 0.0524844,-0.0122294 0.0560513,-0.0071338 0.0596182,-0.00254779 0.0142676,0 0.0555418,0.00305734 0.0545226,0.0071338 0.0524844,0.0117198 0.0509557,0.0157963 0.0494271,0.0193632 0.0478984,0.0239492 -0.631342,0.0071338 z "/>
<path fill="rgb(241,240,234)" stroke="rgb(241,240,234)" d="M 4.11482,2.69656 l -0.0142676,-0.000509557 -0.0504462,-0.00203823 -0.0509557,-0.00560513 -0.0509557,-0.00866248 -0.0514653,-0.0117198 -0.0519749,-0.0147772 -0.0519749,-0.0183441 -0.0524844,-0.0208919 -0.0524844,-0.0239492 -0.052994,-0.0275161 0.134014,-0.278218 0.0203823,0.0127389 0.0489175,0.026497 0.0499366,0.021911 0.0509557,0.0168154 0.0514653,0.0122294 0.0524844,0.0071338 0.0535035,0.00254779 0.505481,0.0147772 -0.017325,0.0443315 -0.0208919,0.040255 -0.0239492,0.0366881 -0.0275161,0.0336308 -0.0305734,0.0300639 -0.0341403,0.0259874 -0.0377072,0.0229301 -0.0407646,0.0193632 -0.0443315,0.0157963 -0.0473888,0.0127389 -0.0509557,0.00866248 -0.0540131,0.00509557 -0.05758,0.00203823 z "/>
<path fill="rgb(241,240,234)" stroke="rgb(241,240,234)" d="M 4.60196,2.39898 l -0.505481,-0.0147772 0.0117198,0 0.0545226,-0.00611469 0.0473888,-0.0142676 0.0397455,-0.0224205 0.0321021,-0.0305734 0.0249683,-0.0387264 0.0178345,-0.0473888 0.0101911,-0.0555418 -0.560004,-0.000509557 -0.0443315,-0.0214014 -0.0407646,-0.0254779 -0.0117198,-0.00917203 -0.0382168,-0.0341403 -0.0315926,-0.0382168 -0.026497,-0.0428028 -0.0203823,-0.0463697 0.495799,-0.00254779 0.0122294,0 0.0499366,-0.0035669 0.0514653,-0.00764336 0.0535035,-0.0117198 0.0545226,-0.0168154 0.0560513,-0.0203823 0,-0.202294 -0.0280257,-0.0117198 -0.0580895,-0.0224205 -0.0550322,-0.0168154 -0.0514653,-0.0127389 -0.048408,-0.0071338 -0.0448411,-0.00254779 -0.482041,-0.0198727 0.0208919,-0.0463697 0.0259874,-0.0422933 0.0315926,-0.0382168 0.0366881,-0.0341403 0.0214014,-0.0168154 0.631342,-0.0071338 0,-0.05758 0.304206,0 0,0.79491 -0.00101911,0.0428028 -0.00407646,0.0580895 -0.0071338,0.0545226 -0.0107007,0.0509557 -0.0142676,0.0473888 z "/>
<path fill="rgb(241,240,234)" stroke="rgb(241,240,234)" d="M 4.04145,2.21604 l -0.052994,-0.00152867 -0.0585991,-0.00509557 -0.0550322,-0.00968159 -0.0514653,-0.0132485 -0.048408,-0.0178345 0.560004,0.000509557 -0.0244588,0.00764336 -0.0524844,0.0142676 -0.052994,0.0107007 -0.0540131,0.00815292 -0.0545226,0.00458602 -0.0550322,0.00152867 z "/>
<path fill="rgb(241,240,234)" stroke="rgb(241,240,234)" d="M 3.56145,1.95108 l -0.0147772,-0.0509557 -0.00866248,-0.0550322 -0.00254779,-0.0591087 0.000509557,-0.0295543 0.00509557,-0.0585991 0.0101911,-0.0545226 0.0157963,-0.0504462 0.482041,0.0198727 -0.0188536,0.000509557 -0.0570704,0.00764336 -0.048408,0.017325 -0.0407646,0.0270065 -0.0249683,0.0259874 -0.026497,0.0448411 -0.00866248,0.0499366 0.00305734,0.0295543 0.0203823,0.0463697 0.0392359,0.0392359 0.0132485,0.00917203 0.0443315,0.0214014 0.0524844,0.0127389 0.0606373,0.00407646 -0.495799,0.00254779 z "/>
<path fill="rgb(241,240,234)" stroke="rgb(241,240,234)" d="M 3.70361,1.41502 l 0.0428028,-0.0270065 0.0458602,-0.021911 0.0494271,-0.017325 0.052994,-0.0122294 0.0560513,-0.0071338 0.0591087,-0.00254779 0.0142676,0 0.0555418,0.00305734 0.0545226,0.0071338 0.0524844,0.0117198 0.0509557,0.0157963 0.0494271,0.0193632 0.0478984,0.0239492 -0.631342,0.0071338 z "/>
<path fill="rgb(241,240,234)" stroke="rgb(241,240,234)" d="M 3.28883,1.35031 l -0.32255,0 0,1.69785 0.32255,0.130956 0,-1.8288 z "/>
<path fill="rgb(241,240,234)" stroke="rgb(241,240,234)" d="M 2.13519,3.15006 l -0.839241,0 0,-1.79976 0.327645,0 0,0.705737 0.511596,0 0.00968159,0 0.0616564,0.00254779 0.05758,0.00611469 0.0540131,0.0101911 0.0504462,0.013758 0.0463697,0.017325 0.0428028,0.0208919 0.0142676,0.00866248 0.0453506,0.0305734 0.0412741,0.0346499 0.0377072,0.0382168 0.0336308,0.0417837 0.0295543,0.0458602 0.00815292,0.0142676 -1.04408,0.0382168 0,0.448411 0.524844,0 0.527392,0.0300639 -0.0254779,0.0428028 -0.0300639,0.0397455 -0.0341403,0.0377072 -0.0392359,0.0346499 -0.0438219,0.0321021 -0.0478984,0.0295543 -0.00611469,0.00305734 -0.0458602,0.0224205 -0.0489175,0.0183441 -0.0509557,0.0142676 -0.0535035,0.00968159 -0.0560513,0.00611469 -0.0585991,0.00203823 z "/>
<path fill="rgb(241,240,234)" stroke="rgb(241,240,234)" d="M 2.67583,2.85758 l -0.527392,-0.0300639 0.0504462,-0.00254779 0.0545226,-0.0112103 0.0468793,-0.0193632 0.0392359,-0.0270065 0.0214014,-0.0214014 0.0290448,-0.0433124 0.017325,-0.0489175 0.00560513,-0.0545226 -0.00101911,-0.0259874 -0.0117198,-0.0519749 -0.0239492,-0.0448411 -0.0366881,-0.0371977 -0.0336308,-0.0229301 -0.0473888,-0.0208919 -0.0524844,-0.0122294 -0.05758,-0.00407646 -0.524844,0 1.04408,-0.0382168 0.0244588,0.0499366 0.0188536,0.0509557 0.013758,0.0519749 0.00815292,0.0524844 0.00254779,0.052994 0,0.0071338 -0.00254779,0.0555418 -0.00764336,0.052994 -0.0117198,0.0499366 -0.0163058,0.0478984 -0.0214014,0.0448411 z "/>
</g></g></svg>
