<?xml version="1.0" encoding="UTF-8" standalone="no"?>
<!DOCTYPE svg PUBLIC "-//W3C//DTD SVG 1.1//EN" "http://www.w3.org/Graphics/SVG/1.1/DTD/svg11-flat.dtd"
[

]>
<svg xmlns="http://www.w3.org/2000/svg"  viewBox="-0.112544 -0.112544 9.22863 12.226"><g fill="none" stroke="black" stroke-width="0.0125" transform="translate(0,12.0009) scale(1, -1)">
<g id="Output" >
<path fill="rgb(200,225,100)" stroke="rgb(200,225,100)" d="M 8.90354,11.7509 l -0.000570795,0.0130734 -0.00170804,0.0129739 -0.00283229,0.0127756 -0.00393498,0.0124802 -0.00500773,0.0120897 -0.00604236,0.0116073 -0.007031,0.0110365 -0.00796614,0.0103817 -0.00884065,0.00964788 -0.00964788,0.00884065 -0.0103817,0.00796614 -0.0110365,0.007031 -0.0116073,0.00604236 -0.0120897,0.00500773 -0.0124802,0.00393498 -0.0127756,0.00283229 -0.0129739,0.00170804 -0.0130734,0.000570795 -8.50354,0 -0.0130734,-0.000570795 -0.0129739,-0.00170804 -0.0127756,-0.00283229 -0.0124802,-0.00393498 -0.0120897,-0.00500773 -0.0116073,-0.00604236 -0.0110365,-0.007031 -0.0103817,-0.00796614 -0.00964788,-0.00884065 -0.00884065,-0.00964788 -0.00796614,-0.0103817 -0.007031,-0.0110365 -0.00604236,-0.0116073 -0.00500773,-0.0120897 -0.00393498,-0.0124802 -0.00283229,-0.0127756 -0.00170804,-0.0129739 -0.000570795,-0.0130734 0,-4.25089 0.651769,8.88178e-16 -8.88178e-16,1.5533 2.1967,2.1967 3.1066,0 2.1967,-2.1967 -1.77636e-15,-1.5533 0.651769,2.66454e-15 0,4.25089 z "/>
<path fill="rgb(200,225,100)" stroke="rgb(200,225,100)" d="M 7.1,0.1 l 0,0.637412 -0.0180741,-0.0235546 -0.0427866,-0.0466933 -0.0466933,-0.0427866 -0.0502447,-0.0385542 -0.0534138,-0.0340283 -0.0561763,-0.0292435 -0.0585112,-0.0242362 -0.0604009,-0.0190443 -0.0618309,-0.0137076 -0.0627903,-0.0082665 -0.0632718,-0.00276251 -0.425806,0 0,-0.354534 1,0 z "/>
<path fill="rgb(200,225,100)" stroke="rgb(200,225,100)" d="M 7.1,4.79493 l 0,-0.69493 1,0 0,1 -0.69493,0 -0.30507,-0.30507 z "/>
<path fill="rgb(200,225,100)" stroke="rgb(200,225,100)" d="M 5.1,3.75 l 0,-0.65 1,0 0,0.69493 -0.0449302,-0.0449302 -0.95507,0 z "/>
<path fill="rgb(200,225,100)" stroke="rgb(200,225,100)" d="M 5.1,2.95453 l 1,8.88178e-16 0,0.145466 -1,0 0,-0.145466 z "/>
<path fill="rgb(200,225,100)" stroke="rgb(200,225,100)" d="M 6.1,0.1 l 0,0.354534 -1,-8.88178e-16 0,-0.354534 1,0 z "/>
<path fill="rgb(200,225,100)" stroke="rgb(200,225,100)" d="M 1.1,3.1 l 1,0 0,1 -1,0 0,-1 z "/>
<path fill="rgb(200,225,100)" stroke="rgb(200,225,100)" d="M 7.1,3.1 l 1,0 0,1 -1,0 0,-1 z "/>
<path fill="rgb(200,225,100)" stroke="rgb(200,225,100)" d="M 2.59847,4.1 l -0.498468,0.498468 0,-0.498468 0.498468,0 z "/>
<path fill="rgb(200,225,100)" stroke="rgb(200,225,100)" d="M 4.1,3.75 l 0,-0.65 1,0 0,0.65 -1,4.44089e-16 z "/>
<path fill="rgb(200,225,100)" stroke="rgb(200,225,100)" d="M 4.1,2.95453 l 1,0 0,0.145466 -1,0 0,-0.145466 z "/>
<path fill="rgb(200,225,100)" stroke="rgb(200,225,100)" d="M 5.1,0.1 l 0,0.354534 -1,0 0,-0.354534 1,0 z "/>
<path fill="rgb(200,225,100)" stroke="rgb(200,225,100)" d="M 3.1,3.75 l 0,-0.65 1,0 0,0.65 -1,4.44089e-16 z "/>
<path fill="rgb(200,225,100)" stroke="rgb(200,225,100)" d="M 3.1,2.95453 l 1,0 0,0.145466 -1,0 0,-0.145466 z "/>
<path fill="rgb(200,225,100)" stroke="rgb(200,225,100)" d="M 4.1,0.1 l 0,0.354534 -1,0 0,-0.354534 1,0 z "/>
<path fill="rgb(200,225,100)" stroke="rgb(200,225,100)" d="M 7.1,2.67166 l 0.02048,-0.0266901 0.0340283,-0.0534138 0.0292435,-0.0561763 0.0242362,-0.0585112 0.0190443,-0.0604009 0.0137076,-0.0618309 0.0082665,-0.0627903 0.00276251,-0.0632718 0,-0.128571 0.848231,0 0,1 -1,0 0,-0.428343 z "/>
<path fill="rgb(200,225,100)" stroke="rgb(200,225,100)" d="M 2.59847,4.1 l -0.498468,0 0,-1 1,0 0,0.65 -0.151532,0 -0.35,0.35 z "/>
<path fill="rgb(200,225,100)" stroke="rgb(200,225,100)" d="M 7.24674,1.1 l 0.853261,0 0,1 -0.848231,0 0,-0.919503 -0.00276251,-0.0632718 -0.00226778,-0.0172255 z "/>
<path fill="rgb(200,225,100)" stroke="rgb(200,225,100)" d="M 8.1,0.1 l 0,1 -0.853261,0 -0.00599872,-0.0455648 -0.0137076,-0.0618309 -0.0190443,-0.0604009 -0.0242362,-0.0585112 -0.0292435,-0.0561763 -0.0340283,-0.0534138 -0.02048,-0.0266901 0,-0.637412 1,0 z "/>
<path fill="rgb(200,225,100)" stroke="rgb(200,225,100)" d="M 6.40507,4.1 l 0.69493,0 0,0.69493 -0.69493,-0.69493 z "/>
<path fill="rgb(200,225,100)" stroke="rgb(200,225,100)" d="M 6.1,3.79493 l 0,-0.69493 1,0 0,1 -0.69493,0 -0.30507,-0.30507 z "/>
<path fill="rgb(200,225,100)" stroke="rgb(200,225,100)" d="M 6.1,2.95453 l 0.425806,0 0.0632718,-0.00276251 0.0627903,-0.0082665 0.0618309,-0.0137076 0.0604009,-0.0190443 0.0585112,-0.0242362 0.0561763,-0.0292435 0.0534138,-0.0340283 0.0502447,-0.0385542 0.0466933,-0.0427866 0.0427866,-0.0466933 0.0180741,-0.0235546 0,0.428343 -1,0 0,-0.145466 z "/>
<path fill="rgb(200,225,100)" stroke="rgb(200,225,100)" d="M 2.1,2.84788 l 0.0147504,0.00939707 0.0561763,0.0292435 0.0585112,0.0242362 0.0604009,0.0190443 0.0618309,0.0137076 0.0627903,0.0082665 0.0632718,0.00276251 0.622268,0 0,0.145466 -1,0 0,-0.252123 z "/>
<path fill="rgb(200,225,100)" stroke="rgb(200,225,100)" d="M 3.1,0.1 l 0,0.354534 -0.622268,0 -0.0632718,0.00276251 -0.0627903,0.0082665 -0.0618309,0.0137076 -0.0604009,0.0190443 -0.0585112,0.0242362 -0.0561763,0.0292435 -0.0147504,0.00939707 0,-0.461192 1,0 z "/>
<path fill="rgb(200,225,100)" stroke="rgb(200,225,100)" d="M 1.59847,5.1 l -0.498468,0.498468 0,-0.498468 0.498468,0 z "/>
<path fill="rgb(200,225,100)" stroke="rgb(200,225,100)" d="M 1.59847,5.1 l -0.498468,0 0,-1 1,0 0,0.498468 -0.501532,0.501532 z "/>
<path fill="rgb(200,225,100)" stroke="rgb(200,225,100)" d="M 1.1,0.1 l 0,1 -1,0 0,-0.85 0.000570795,-0.0130734 0.00170804,-0.0129739 0.00283229,-0.0127756 0.00393498,-0.0124802 0.00500773,-0.0120897 0.00604236,-0.0116073 0.007031,-0.0110365 0.00796614,-0.0103817 0.00884065,-0.00964788 0.00964788,-0.00884065 0.0103817,-0.00796614 0.0110365,-0.007031 0.0116073,-0.00604236 0.0120897,-0.00500773 0.0124802,-0.00393498 0.0127756,-0.00283229 0.0129739,-0.00170804 0.0130734,-0.000570795 0.85,0 z "/>
<path fill="rgb(200,225,100)" stroke="rgb(200,225,100)" d="M 0.1,1.1 l 1,0 0,1 -1,0 0,-1 z "/>
<path fill="rgb(200,225,100)" stroke="rgb(200,225,100)" d="M 0.1,2.1 l 1,0 0,1 -1,0 0,-1 z "/>
<path fill="rgb(200,225,100)" stroke="rgb(200,225,100)" d="M 0.1,3.1 l 1,0 0,1 -1,0 0,-1 z "/>
<path fill="rgb(200,225,100)" stroke="rgb(200,225,100)" d="M 0.1,4.1 l 1,0 0,1 -1,0 0,-1 z "/>
<path fill="rgb(200,225,100)" stroke="rgb(200,225,100)" d="M 0.1,5.1 l 1,0 0,0.498468 -0.348231,0.348231 0,0.153301 -0.651769,0 0,-1 z "/>
<path fill="rgb(200,225,100)" stroke="rgb(200,225,100)" d="M 0.751769,6.1 l 1.33227e-15,1 -0.651769,0 0,-1 0.651769,0 z "/>
<path fill="rgb(200,225,100)" stroke="rgb(200,225,100)" d="M 0.1,7.1 l 0.651769,0 4.44089e-16,0.4 -0.651769,-8.88178e-16 0,-0.4 z "/>
<path fill="rgb(200,225,100)" stroke="rgb(200,225,100)" d="M 1.7568,1.1 l -0.656799,0 0,-1 1,0 0,0.461192 -0.0386633,0.0246313 -0.0502447,0.0385542 -0.0466933,0.0427866 -0.0427866,0.0466933 -0.0385542,0.0502447 -0.0340283,0.0534138 -0.0292435,0.0561763 -0.0242362,0.0585112 -0.0190443,0.0604009 -0.0137076,0.0618309 -0.00599872,0.0455648 z "/>
<path fill="rgb(200,225,100)" stroke="rgb(200,225,100)" d="M 1.7568,1.1 l -0.00226778,0.0172255 -0.00276251,0.0632718 -8.88178e-16,0.919503 -0.651769,0 0,-1 0.656799,0 z "/>
<path fill="rgb(200,225,100)" stroke="rgb(200,225,100)" d="M 1.75177,2.1 l 0,0.128571 0.00276251,0.0632718 0.0082665,0.0627903 0.0137076,0.0618309 0.0190443,0.0604009 0.0242362,0.0585112 0.0292435,0.0561763 0.0340283,0.0534138 0.0385542,0.0502447 0.0427866,0.0466933 0.0466933,0.0427866 0.0502447,0.0385542 0.0386633,0.0246313 0,0.252123 -1,0 0,-1 0.651769,0 z "/>
<path fill="rgb(200,225,100)" stroke="rgb(200,225,100)" d="M 8.25177,7.1 l 0.651769,0 0,0.4 -0.651769,-2.66454e-15 0,-0.4 z "/>
<path fill="rgb(200,225,100)" stroke="rgb(200,225,100)" d="M 8.90354,6.1 l 0,1 -0.651769,0 0,-1 0.651769,0 z "/>
<path fill="rgb(200,225,100)" stroke="rgb(200,225,100)" d="M 8.90354,5.1 l 0,1 -0.651769,0 0,-0.153301 -0.151769,-0.151769 0,-0.69493 0.803538,0 z "/>
<path fill="rgb(200,225,100)" stroke="rgb(200,225,100)" d="M 8.90354,4.1 l 0,1 -0.803538,0 0,-1 0.803538,0 z "/>
<path fill="rgb(200,225,100)" stroke="rgb(200,225,100)" d="M 8.90354,3.1 l 0,1 -0.803538,0 0,-1 0.803538,0 z "/>
<path fill="rgb(200,225,100)" stroke="rgb(200,225,100)" d="M 8.90354,2.1 l 0,1 -0.803538,0 0,-1 0.803538,0 z "/>
<path fill="rgb(200,225,100)" stroke="rgb(200,225,100)" d="M 8.90354,1.1 l 0,1 -0.803538,0 0,-1 0.803538,0 z "/>
<path fill="rgb(200,225,100)" stroke="rgb(200,225,100)" d="M 8.1,1.1 l 0,-1 0.653538,8.88178e-16 0.0130734,0.000570795 0.0129739,0.00170804 0.0127756,0.00283229 0.0124802,0.00393498 0.0120897,0.00500773 0.0116073,0.00604236 0.0110365,0.007031 0.0103817,0.00796614 0.00964788,0.00884065 0.00884065,0.00964788 0.00796614,0.0103817 0.007031,0.0110365 0.00604236,0.0116073 0.00500773,0.0120897 0.00393498,0.0124802 0.00283229,0.0127756 0.00170804,0.0129739 0.000570795,0.0130734 0,0.85 -0.803538,0 z "/>
<path fill="rgb(200,225,100)" stroke="rgb(200,225,100)" d="M 7.40507,5.1 l 0.69493,0 0,0.69493 -0.69493,-0.69493 z "/>
<path fill="rgb(241,240,234)" stroke="rgb(241,240,234)" d="M 2.47773,2.95453 l -0.0632718,-0.00276251 -0.0627903,-0.0082665 -0.0618309,-0.0137076 -0.0604009,-0.0190443 -0.0585112,-0.0242362 -0.0561763,-0.0292435 -0.0534138,-0.0340283 -0.0502447,-0.0385542 -0.0466933,-0.0427866 -0.0427866,-0.0466933 -0.0385542,-0.0502447 -0.0340283,-0.0534138 -0.0292435,-0.0561763 -0.0242362,-0.0585112 -0.0190443,-0.0604009 -0.0137076,-0.0618309 -0.0082665,-0.0627903 -0.00276251,-0.0632718 8.88178e-16,-1.04807 0.00276251,-0.0632718 0.0082665,-0.0627903 0.0137076,-0.0618309 0.0190443,-0.0604009 0.0242362,-0.0585112 0.0292435,-0.0561763 0.0340283,-0.0534138 0.0385542,-0.0502447 0.0427866,-0.0466933 0.0466933,-0.0427866 0.0502447,-0.0385542 0.0534138,-0.0340283 0.0561763,-0.0292435 0.0585112,-0.0242362 0.0604009,-0.0190443 0.0618309,-0.0137076 0.0627903,-0.0082665 0.0632718,-0.00276251 4.04807,8.88178e-16 0.0632718,0.00276251 0.0627903,0.0082665 0.0618309,0.0137076 0.0604009,0.0190443 0.0585112,0.0242362 0.0561763,0.0292435 0.0534138,0.0340283 0.0502447,0.0385542 0.0466933,0.0427866 0.0427866,0.0466933 0.0385542,0.0502447 0.0340283,0.0534138 0.0292435,0.0561763 0.0242362,0.0585112 0.0190443,0.0604009 0.0137076,0.0618309 0.0082665,0.0627903 0.00276251,0.0632718 0,1.04807 -0.00276251,0.0632718 -0.0082665,0.0627903 -0.0137076,0.0618309 -0.0190443,0.0604009 -0.0242362,0.0585112 -0.0292435,0.0561763 -0.0340283,0.0534138 -0.0385542,0.0502447 -0.0427866,0.0466933 -0.0466933,0.0427866 -0.0502447,0.0385542 -0.0534138,0.0340283 -0.0561763,0.0292435 -0.0585112,0.0242362 -0.0604009,0.0190443 -0.0618309,0.0137076 -0.0627903,0.0082665 -0.0632718,0.00276251 -4.04807,-8.88178e-16 z "/>
<path fill="rgb(241,240,234)" stroke="rgb(241,240,234)" d="M 7.85177,7.5 l 0.2,0 0,1.47046 -2.07954,2.07954 -2.94092,1.77636e-15 -2.07954,-2.07954 -1.77636e-15,-1.47046 0.2,-8.88178e-16 -4.44089e-16,1.38762 1.96238,1.96238 2.77523,0 1.96238,-1.96238 0,-1.38762 z "/>
<path fill="rgb(241,240,234)" stroke="rgb(241,240,234)" d="M 7.85177,7.5 l -8.88178e-16,-1.38762 -1.96238,-1.96238 -2.77523,2.66454e-15 -1.96238,1.96238 1.77636e-15,1.38762 -0.2,8.88178e-16 0,-1.47046 2.07954,-2.07954 2.94092,-1.77636e-15 2.07954,2.07954 0,1.47046 -0.2,0 z "/>
<path fill="rgb(42,41,42)" stroke="rgb(42,41,42)" d="M 8.90354,7.5 l 0.1,0 0,-7.25 -0.000951325,-0.0217889 -0.00284674,-0.0216231 -0.00472048,-0.0212927 -0.0065583,-0.0208003 -0.00834621,-0.0201495 -0.0100706,-0.0193454 -0.0117183,-0.0183941 -0.0132769,-0.0173028 -0.0147344,-0.0160798 -0.0160798,-0.0147344 -0.0173028,-0.0132769 -0.0183941,-0.0117183 -0.0193454,-0.0100706 -0.0201495,-0.00834621 -0.0208003,-0.0065583 -0.0212927,-0.00472048 -0.0216231,-0.00284674 -0.0217889,-0.000951325 -8.50354,0 -0.0217889,0.000951325 -0.0216231,0.00284674 -0.0212927,0.00472048 -0.0208003,0.0065583 -0.0201495,0.00834621 -0.0193454,0.0100706 -0.0183941,0.0117183 -0.0173028,0.0132769 -0.0160798,0.0147344 -0.0147344,0.0160798 -0.0132769,0.0173028 -0.0117183,0.0183941 -0.0100706,0.0193454 -0.00834621,0.0201495 -0.0065583,0.0208003 -0.00472048,0.0212927 -0.00284674,0.0216231 -0.000951325,0.0217889 0,7.25 0.1,0 0,-7.25 0.000570795,-0.0130734 0.00170804,-0.0129739 0.00283229,-0.0127756 0.00393498,-0.0124802 0.00500773,-0.0120897 0.00604236,-0.0116073 0.007031,-0.0110365 0.00796614,-0.0103817 0.00884065,-0.00964788 0.00964788,-0.00884065 0.0103817,-0.00796614 0.0110365,-0.007031 0.0116073,-0.00604236 0.0120897,-0.00500773 0.0124802,-0.00393498 0.0127756,-0.00283229 0.0129739,-0.00170804 0.0130734,-0.000570795 8.50354,8.88178e-16 0.0130734,0.000570795 0.0129739,0.00170804 0.0127756,0.00283229 0.0124802,0.00393498 0.0120897,0.00500773 0.0116073,0.00604236 0.0110365,0.007031 0.0103817,0.00796614 0.00964788,0.00884065 0.00884065,0.00964788 0.00796614,0.0103817 0.007031,0.0110365 0.00604236,0.0116073 0.00500773,0.0120897 0.00393498,0.0124802 0.00283229,0.0127756 0.00170804,0.0129739 0.000570795,0.0130734 0,7.25 z "/>
<path fill="rgb(42,41,42)" stroke="rgb(42,41,42)" d="M 8.90354,11.7509 l 0,-4.25089 0.1,0 0,4.25089 -0.000951325,0.0217889 -0.00284674,0.0216231 -0.00472048,0.0212927 -0.0065583,0.0208003 -0.00834621,0.0201495 -0.0100706,0.0193454 -0.0117183,0.0183941 -0.0132769,0.0173028 -0.0147344,0.0160798 -0.0160798,0.0147344 -0.0173028,0.0132769 -0.0183941,0.0117183 -0.0193454,0.0100706 -0.0201495,0.00834621 -0.0208003,0.0065583 -0.0212927,0.00472048 -0.0216231,0.00284674 -0.0217889,0.000951325 -8.50354,0 -0.0217889,-0.000951325 -0.0216231,-0.00284674 -0.0212927,-0.00472048 -0.0208003,-0.0065583 -0.0201495,-0.00834621 -0.0193454,-0.0100706 -0.0183941,-0.0117183 -0.0173028,-0.0132769 -0.0160798,-0.0147344 -0.0147344,-0.0160798 -0.0132769,-0.0173028 -0.0117183,-0.0183941 -0.0100706,-0.0193454 -0.00834621,-0.0201495 -0.0065583,-0.0208003 -0.00472048,-0.0212927 -0.00284674,-0.0216231 -0.000951325,-0.0217889 0,-4.25089 0.1,0 0,4.25089 0.000570795,0.0130734 0.00170804,0.0129739 0.00283229,0.0127756 0.00393498,0.0124802 0.00500773,0.0120897 0.00604236,0.0116073 0.007031,0.0110365 0.00796614,0.0103817 0.00884065,0.00964788 0.00964788,0.00884065 0.0103817,0.00796614 0.0110365,0.007031 0.0116073,0.00604236 0.0120897,0.00500773 0.0124802,0.00393498 0.0127756,0.00283229 0.0129739,0.00170804 0.0130734,0.000570795 8.50354,0 0.0130734,-0.000570795 0.0129739,-0.00170804 0.0127756,-0.00283229 0.0124802,-0.00393498 0.0120897,-0.00500773 0.0116073,-0.00604236 0.0110365,-0.007031 0.0103817,-0.00796614 0.00964788,-0.00884065 0.00884065,-0.00964788 0.00796614,-0.0103817 0.007031,-0.0110365 0.00604236,-0.0116073 0.00500773,-0.0120897 0.00393498,-0.0124802 0.00283229,-0.0127756 0.00170804,-0.0129739 0.000570795,-0.0130734 z "/>
<path fill="rgb(187,30,16)" stroke="rgb(187,30,16)" d="M 7.85177,7.5 l -6.7,2.66454e-15 -1.77636e-15,-1.38762 1.96238,-1.96238 2.77523,-2.66454e-15 1.96238,1.96238 8.88178e-16,1.38762 z "/>
<path fill="rgb(187,30,16)" stroke="rgb(187,30,16)" d="M 8.05177,6.02954 l -2.07954,-2.07954 -2.94092,1.77636e-15 -2.07954,2.07954 0,1.47046 -0.2,0 -1.77636e-15,-1.5533 2.1967,-2.1967 3.1066,-8.88178e-16 2.1967,2.1967 0,1.5533 -0.2,0 0,-1.47046 z "/>
<path fill="rgb(187,30,16)" stroke="rgb(187,30,16)" d="M 8.25177,9.0533 l -2.1967,2.1967 -3.1066,0 -2.1967,-2.1967 8.88178e-16,-1.5533 0.2,0 1.77636e-15,1.47046 2.07954,2.07954 2.94092,-1.77636e-15 2.07954,-2.07954 0,-1.47046 0.2,0 1.77636e-15,1.5533 z "/>
<path fill="rgb(187,30,16)" stroke="rgb(187,30,16)" d="M 7.85177,7.5 l 0,1.38762 -1.96238,1.96238 -2.77523,0 -1.96238,-1.96238 4.44089e-16,-1.38762 6.7,-2.66454e-15 z "/>
<path fill="rgb(241,240,234)" stroke="rgb(241,240,234)" d="M 7.08505,8.5015 l -0.79167,0 0,-2.00033 0.308207,0 0,0.784116 0.483463,0 0.0105757,0 0.111801,0.00906493 0.0982034,0.0271948 0.084606,0.042303 0.0559004,0.0438138 0.0740302,0.0800735 0.0604328,0.0982034 -0.979012,0.0574112 0,0.498571 0.495549,0 0.498571,0.0347489 -0.0528787,0.0906493 -0.0694978,0.0800735 -0.0861168,0.0694978 -0.00604328,0.00302164 -0.0891384,0.0453246 -0.0982034,0.0271948 -0.108779,0.00906493 z "/>
<path fill="rgb(241,240,234)" stroke="rgb(241,240,234)" d="M 7.59571,8.17667 l -0.498571,-0.0347489 0.0997142,-0.0151082 0.0815843,-0.0513679 0.0468355,-0.0725194 0.0226623,-0.114822 -0.0120866,-0.0861168 -0.0574112,-0.0906493 -0.0770519,-0.0483463 -0.104247,-0.0196407 -0.495549,0 0.979012,-0.0574112 0.0302164,0.0725194 0.0317272,0.113312 0.00906493,0.116333 -0.00151082,0.0710086 -0.0196407,0.114822 -0.0347489,0.102736 z "/>
<path fill="rgb(241,240,234)" stroke="rgb(241,240,234)" d="M 5.19501,8.53323 l -0.104247,-0.00755411 -0.0997142,-0.0226623 -0.0936709,-0.0377705 -0.084606,-0.0528787 -0.0755411,-0.0694978 -0.0694978,-0.084606 -0.0392813,-0.0619437 0.566558,-0.0196407 0.0543896,-0.00302164 0.0951817,-0.0287056 0.0815843,-0.058922 0.0664761,-0.0861168 0.0151082,-0.0287056 0.0392813,-0.0951817 0.0271948,-0.108779 0.016619,-0.125398 0.00604328,-0.137485 -0.00453246,-0.12842 -0.0151082,-0.123887 -0.025684,-0.11029 -0.0362597,-0.0951817 -0.0574112,-0.0966925 -0.0725194,-0.0694978 -0.0876276,-0.042303 -0.102736,-0.0135974 0.55145,-0.00604328 0.0468355,0.0951817 0.0377705,0.102736 0.0302164,0.111801 0.0211515,0.119355 0.0120866,0.126909 0.00453246,0.135974 -0.00151082,0.0876276 -0.0105757,0.12842 -0.0181299,0.122377 -0.0287056,0.113312 -0.0362597,0.104247 -0.0438138,0.0982034 -0.0543896,0.0891384 -0.0574112,0.0740302 -0.0755411,0.0740302 -0.0830952,0.0574112 -0.0906493,0.0407922 -0.0982034,0.0241731 -0.105757,0.00906493 z "/>
<path fill="rgb(241,240,234)" stroke="rgb(241,240,234)" d="M 4.62845,8.19631 l -0.0468355,-0.0921601 -0.0362597,-0.101225 -0.0302164,-0.11029 -0.0211515,-0.120866 -0.0120866,-0.12842 -0.00453246,-0.138996 0,-0.0332381 0.00755411,-0.129931 0.0151082,-0.122377 0.0241731,-0.116333 0.0317272,-0.108779 0.042303,-0.102736 0.0498571,-0.0951817 0.0287056,-0.0453246 0.0679869,-0.0876276 0.0755411,-0.0710086 0.0815843,-0.0543896 0.0906493,-0.0392813 0.0982034,-0.0241731 0.104247,-0.00755411 0.0966925,0.00604328 0.0966925,0.0241731 0.0906493,0.0392813 0.084606,0.0559004 0.0755411,0.0740302 0.0694978,0.0891384 0.0377705,0.0634545 -0.55145,0.00604328 -0.0543896,0.00453246 -0.0951817,0.0302164 -0.0815843,0.058922 -0.0679869,0.0876276 -0.0181299,0.0317272 -0.0392813,0.0951817 -0.0287056,0.108779 -0.016619,0.123887 -0.00604328,0.138996 0,0.0483463 0.0105757,0.132952 0.0211515,0.119355 0.0332381,0.104247 0.0438138,0.0906493 0.0332381,0.0483463 0.0755411,0.0725194 0.0876276,0.042303 0.102736,0.0135974 -0.566558,0.0196407 z "/>
<path fill="rgb(241,240,234)" stroke="rgb(241,240,234)" d="M 4.2447,8.5015 l -1.27513,0 0,-0.353532 0.487995,0 0,-1.64679 0.297632,0 0,1.64679 0.489506,0 0,0.353532 z "/>
<path fill="rgb(241,240,234)" stroke="rgb(241,240,234)" d="M 2.07517,8.52114 l -0.0498571,-0.00151082 -0.108779,-0.0135974 -0.0982034,-0.0302164 -0.0876276,-0.0453246 -0.0755411,-0.0604328 -0.0664761,-0.0785627 -0.0528787,-0.0951817 0.539363,-0.0271948 0.0543896,-0.00302164 0.101225,-0.0196407 0.0921601,-0.0377705 0.0830952,-0.058922 0.0755411,-0.0770519 0.225112,0.240221 -0.0740302,0.0815843 -0.0800735,0.0694978 -0.0861168,0.0559004 -0.0891384,0.0453246 -0.0951817,0.0302164 -0.101225,0.0196407 -0.105757,0.00604328 z "/>
<path fill="rgb(241,240,234)" stroke="rgb(241,240,234)" d="M 1.5358,8.19631 l -0.0317272,-0.108779 -0.0105757,-0.119355 0,-0.0135974 0.0135974,-0.119355 0.0347489,-0.108779 0.058922,-0.0966925 0.0362597,-0.0392813 0.0740302,-0.0559004 0.0982034,-0.0513679 0.122377,-0.0468355 0.084606,-0.0317272 0.0785627,-0.0196407 0.0755411,-0.0271948 0.0120866,-0.00453246 0.135974,-0.0498571 0.0543896,-0.0241731 0.00604328,-0.00302164 0.0770519,-0.0740302 0.025684,-0.104247 0,-0.00151082 -0.025684,-0.102736 -0.0785627,-0.0815843 -0.0559004,-0.0332381 -0.0966925,-0.0302164 -0.111801,-0.00906493 -0.62548,-0.0649653 0.0770519,-0.0785627 0.0815843,-0.0649653 0.0861168,-0.0543896 0.0891384,-0.042303 0.0951817,-0.0302164 0.0982034,-0.0181299 0.102736,-0.00604328 0.0438138,0.00151082 0.104247,0.0120866 0.0982034,0.0271948 0.0936709,0.0392813 0.0891384,0.0543896 0.0815843,0.0694978 0.0679869,0.0830952 0.0483463,0.0936709 0.0302164,0.105757 0.00906493,0.117844 -0.00302164,0.0740302 -0.0226623,0.116333 -0.0407922,0.107268 -0.025684,0.0453246 -0.0679869,0.0891384 -0.0830952,0.0664761 -0.0498571,0.025684 -0.0785627,0.0347489 -0.0966925,0.0347489 -0.114822,0.0347489 -0.132952,0.0362597 -0.025684,0.00755411 -0.114822,0.0407922 -0.0694978,0.0392813 -0.0226623,0.0226623 -0.0317272,0.108779 0.0151082,0.0815843 0.0498571,0.0664761 0.0861168,0.0392813 0.120866,0.0135974 -0.539363,0.0271948 z "/>
<path fill="rgb(241,240,234)" stroke="rgb(241,240,234)" d="M 1.65667,7.09039 l -0.241731,-0.225112 0.0725194,-0.0906493 0.62548,0.0649653 -0.0226623,0 -0.101225,0.0135974 -0.0936709,0.0317272 -0.0861168,0.0498571 -0.0800735,0.0679869 -0.0725194,0.0876276 z "/>
</g></g></svg>
