<?xml version="1.0" encoding="UTF-8" standalone="no"?>
<!DOCTYPE svg PUBLIC "-//W3C//DTD SVG 1.1//EN" "http://www.w3.org/Graphics/SVG/1.1/DTD/svg11-flat.dtd"
[

]>
<svg xmlns="http://www.w3.org/2000/svg"  viewBox="-0.125044 -0.125044 10.2536 12.7519"><g fill="none" stroke="black" stroke-width="0.0125" transform="translate(0,12.5018) scale(1, -1)">
<g id="Output" >
<path fill="rgb(241,240,234)" stroke="rgb(241,240,234)" d="M 4.49411,6.25089 l -1.43886,-1.7982 0.0611732,-0.0640384 0.0632789,-0.0619586 0.0653139,-0.0598095 1.58754,1.98401 -0.338443,0 z "/>
<path fill="rgb(241,240,234)" stroke="rgb(241,240,234)" d="M 3.67424,3.95738 l 1.83519,2.29351 -0.338443,0 -1.71965,-2.14911 0.0726775,-0.0506069 0.0743279,-0.0481502 0.0758953,-0.0456396 z "/>
<path fill="rgb(241,240,234)" stroke="rgb(241,240,234)" d="M 7.65177,6.25089 l -1.80389,0 -1.93365,-2.41656 0.213293,-0.0850796 0.219857,-0.0662947 0.224771,-0.047012 0.227997,-0.0273763 0.229511,-0.00753498 0.229302,0.0123629 0.227371,0.0321679 0.223732,0.0517314 0.218414,0.0709065 0.211455,0.0895491 0.202909,0.107519 0.192838,0.124682 0.18132,0.140909 0.168441,0.156077 0.154296,0.170074 0.138993,0.182793 0.122646,0.19414 0.105378,0.204029 0.0873192,0.212386 0.0686044,0.219148 0.0493744,0.224264 0.0297738,0.227697 0.00994949,0.229419 z "/>
<path fill="rgb(241,240,234)" stroke="rgb(241,240,234)" d="M 2.35177,6.25089 l 0.0112067,-0.243455 0.0335254,-0.241395 0.0555605,-0.237295 0.0771257,-0.231187 0.0980386,-0.223124 0.118122,-0.213173 0.137207,-0.20142 1.27311,1.59105 -1.80389,0 z "/>
<path fill="rgb(241,240,234)" stroke="rgb(241,240,234)" d="M 7.65177,6.25089 l -0.0112067,0.243455 -0.0335254,0.241395 -0.0555605,0.237295 -0.0771257,0.231187 -0.0980386,0.223124 -0.118122,0.213173 -0.137207,0.20142 -1.27311,-1.59105 1.80389,0 z "/>
<path fill="rgb(241,240,234)" stroke="rgb(241,240,234)" d="M 2.35177,6.25089 l 1.80389,0 1.93365,2.41656 -0.213293,0.0850796 -0.219857,0.0662947 -0.224771,0.047012 -0.227997,0.0273763 -0.229511,0.00753498 -0.229302,-0.0123629 -0.227371,-0.0321679 -0.223732,-0.0517314 -0.218414,-0.0709065 -0.211455,-0.0895491 -0.202909,-0.107519 -0.192838,-0.124682 -0.18132,-0.140909 -0.168441,-0.156077 -0.154296,-0.170074 -0.138993,-0.182793 -0.122646,-0.19414 -0.105378,-0.204029 -0.0873192,-0.212386 -0.0686044,-0.219148 -0.0493744,-0.224264 -0.0297738,-0.227697 -0.00994949,-0.229419 z "/>
<path fill="rgb(241,240,234)" stroke="rgb(241,240,234)" d="M 5.50943,6.25089 l 1.43886,1.7982 -0.0611732,0.0640384 -0.0632789,0.0619586 -0.0653139,0.0598095 -1.58754,-1.98401 0.338443,0 z "/>
<path fill="rgb(241,240,234)" stroke="rgb(241,240,234)" d="M 6.3293,8.54439 l -1.83519,-2.29351 0.338443,0 1.71965,2.14911 -0.0726775,0.0506069 -0.0743279,0.0481502 -0.0758953,0.0456396 z "/>
<path fill="rgb(241,240,234)" stroke="rgb(241,240,234)" d="M 8.35177,6.25089 l -0.0132606,-0.297776 -0.0396769,-0.295418 -0.0657791,-0.290722 -0.0913605,-0.283724 -0.116219,-0.27448 -0.140157,-0.263063 -0.162985,-0.249564 -0.184523,-0.234088 -0.204601,-0.21676 -0.223058,-0.197715 -0.23975,-0.177105 -0.254543,-0.155093 -0.267322,-0.131854 -0.277984,-0.10757 -0.286445,-0.0824346 -0.292639,-0.0566467 -0.296516,-0.0304103 -0.298045,-0.00393315 -0.297215,0.0225751 -0.294032,0.0489047 -0.288521,0.074847 -0.280726,0.100197 -0.270708,0.124753 -0.127313,-0.159108 0.274772,-0.130963 0.284981,-0.106943 0.293094,-0.0821376 0.299053,-0.0567281 0.302813,-0.0309016 0.304347,-0.00484787 0.303644,0.0212415 0.300708,0.0471747 0.295562,0.0727611 0.288242,0.0978125 0.278804,0.122145 0.267315,0.145579 0.253862,0.167943 0.238542,0.189073 0.221469,0.208812 0.202767,0.227016 0.182574,0.243552 0.16104,0.258296 0.138321,0.271142 0.114586,0.281995 0.0900078,0.290774 0.0647681,0.297416 0.0390523,0.301871 0.0130494,0.304106 -0.2,0 z "/>
<path fill="rgb(241,240,234)" stroke="rgb(241,240,234)" d="M 3.10719,3.24871 l 0.125789,0.157203 -0.074436,0.0476517 -0.073153,0.0495987 -0.0718191,0.0515113 -0.125047,-0.156276 0.0716393,-0.0517054 0.0729038,-0.0499066 0.0741231,-0.0480769 z "/>
<path fill="rgb(241,240,234)" stroke="rgb(241,240,234)" d="M 2.48819,3.74402 l 0.0631625,-0.0617748 0.0646802,-0.0601839 0.0661579,-0.0585556 0.125047,0.156276 -0.066008,0.0587737 -0.0644345,0.0604945 -0.0628162,0.0621733 -0.125789,-0.157203 z "/>
<path fill="rgb(241,240,234)" stroke="rgb(241,240,234)" d="M 1.45177,6.25089 l 0.0139232,-0.314103 0.0416603,-0.311639 0.0690706,-0.306731 0.0959391,-0.299416 0.122055,-0.289753 0.147214,-0.277818 0.171218,-0.263702 0.193878,-0.247519 0.127313,0.159108 -0.177586,0.231744 -0.156734,0.246326 -0.134691,0.259037 -0.111625,0.269781 -0.087711,0.278476 -0.0631309,0.285055 -0.0380714,0.289469 -0.0127227,0.291685 -0.2,0 z "/>
<path fill="rgb(241,240,234)" stroke="rgb(241,240,234)" d="M 1.45177,6.25089 l 0.2,0 0.0132606,0.297776 0.0396769,0.295418 0.0657791,0.290722 0.0913605,0.283724 0.116219,0.27448 0.140157,0.263063 0.162985,0.249564 0.184523,0.234088 0.204601,0.21676 0.223058,0.197715 0.23975,0.177105 0.254543,0.155093 0.267322,0.131854 0.277984,0.10757 0.286445,0.0824346 0.292639,0.0566467 0.296516,0.0304103 0.298045,0.00393315 0.297215,-0.0225751 0.294032,-0.0489047 0.288521,-0.074847 0.280726,-0.100197 0.270708,-0.124753 0.127313,0.159108 -0.274772,0.130963 -0.284981,0.106943 -0.293094,0.0821376 -0.299053,0.0567281 -0.302813,0.0309016 -0.304347,0.00484787 -0.303644,-0.0212415 -0.300708,-0.0471747 -0.295562,-0.0727611 -0.288242,-0.0978125 -0.278804,-0.122145 -0.267315,-0.145579 -0.253862,-0.167943 -0.238542,-0.189073 -0.221469,-0.208812 -0.202767,-0.227016 -0.182574,-0.243552 -0.16104,-0.258296 -0.138321,-0.271142 -0.114586,-0.281995 -0.0900078,-0.290774 -0.0647681,-0.297416 -0.0390523,-0.301871 -0.0130494,-0.304106 z "/>
<path fill="rgb(241,240,234)" stroke="rgb(241,240,234)" d="M 6.89635,9.25306 l -0.125789,-0.157203 0.074436,-0.0476517 0.073153,-0.0495987 0.0718191,-0.0515113 0.125047,0.156276 -0.0716393,0.0517054 -0.0729038,0.0499066 -0.0741231,0.0480769 z "/>
<path fill="rgb(241,240,234)" stroke="rgb(241,240,234)" d="M 7.51535,8.75776 l -0.0631625,0.0617748 -0.0646802,0.0601839 -0.0661579,0.0585556 -0.125047,-0.156276 0.066008,-0.0587737 0.0644345,-0.0604945 0.0628162,-0.0621733 0.125789,0.157203 z "/>
<path fill="rgb(241,240,234)" stroke="rgb(241,240,234)" d="M 8.35177,6.25089 l 0.2,0 -0.0139232,0.314103 -0.0416603,0.311639 -0.0690706,0.306731 -0.0959391,0.299416 -0.122055,0.289753 -0.147214,0.277818 -0.171218,0.263702 -0.193878,0.247519 -0.127313,-0.159108 0.177586,-0.231744 0.156734,-0.246326 0.134691,-0.259037 0.111625,-0.269781 0.087711,-0.278476 0.0631309,-0.285055 0.0380714,-0.289469 0.0127227,-0.291685 z "/>
<path fill="rgb(142,146,145)" stroke="rgb(142,146,145)" d="M 2.55715,3.40724 l 0.125037,0.156263 -0.0661579,0.0585556 -0.0646802,0.0601839 -0.0631625,0.0617748 -0.125699,-0.157091 0.0634707,-0.0614186 0.0648995,-0.0599067 0.0662924,-0.0583617 z "/>
<path fill="rgb(142,146,145)" stroke="rgb(142,146,145)" d="M 8.55177,6.25089 l -0.0130494,-0.304106 -0.0390523,-0.301871 -0.0647681,-0.297416 -0.0900078,-0.290774 -0.114586,-0.281995 -0.138321,-0.271142 -0.16104,-0.258296 -0.182574,-0.243552 -0.202767,-0.227016 -0.221469,-0.208812 -0.238542,-0.189073 -0.253862,-0.167943 -0.267315,-0.145579 -0.278804,-0.122145 -0.288242,-0.0978125 -0.295562,-0.0727611 -0.300708,-0.0471747 -0.303644,-0.0212415 -0.304347,0.00484787 -0.302813,0.0309016 -0.299053,0.0567281 -0.293094,0.0821376 -0.284981,0.106943 -0.274772,0.130963 -0.127055,-0.158786 0.290286,-0.141894 0.301423,-0.116379 0.310323,-0.0899994 0.316918,-0.062952 0.321161,-0.0354371 0.323019,-0.00765917 0.32248,0.0201756 0.319546,0.0478606 0.31424,0.0751903 0.306601,0.101962 0.296685,0.127976 0.284567,0.153041 0.270337,0.176969 0.2541,0.199583 0.235976,0.220716 0.2161,0.24021 0.19462,0.257921 0.171695,0.273717 0.147495,0.287481 0.122201,0.299111 0.0959987,0.30852 0.0690841,0.315638 0.0416567,0.320414 0.01392,0.32281 -0.2,0 z "/>
<path fill="rgb(142,146,145)" stroke="rgb(142,146,145)" d="M 2.98149,3.09162 l 0.125699,0.157091 -0.0741231,0.0480769 -0.0729038,0.0499066 -0.0716393,0.0517054 -0.125037,-0.156263 0.0714795,-0.0518791 0.0726815,-0.0501813 0.0738431,-0.0484557 z "/>
<path fill="rgb(142,146,145)" stroke="rgb(142,146,145)" d="M 1.45177,6.25089 l -0.2,0 0.0151291,-0.336511 0.0452652,-0.333795 0.0750361,-0.328387 0.104202,-0.320328 0.132526,-0.309685 0.159782,-0.296544 0.185748,-0.281009 0.210215,-0.263207 0.127055,0.158786 -0.193878,0.247519 -0.171218,0.263702 -0.147214,0.277818 -0.122055,0.289753 -0.0959391,0.299416 -0.0690706,0.306731 -0.0416603,0.311639 -0.0139232,0.314103 z "/>
<path fill="rgb(142,146,145)" stroke="rgb(142,146,145)" d="M 8.55177,6.25089 l 0.2,0 -0.0151291,0.336511 -0.0452652,0.333795 -0.0750361,0.328387 -0.104202,0.320328 -0.132526,0.309685 -0.159782,0.296544 -0.185748,0.281009 -0.210215,0.263207 -0.127055,-0.158786 0.193878,-0.247519 0.171218,-0.263702 0.147214,-0.277818 0.122055,-0.289753 0.0959391,-0.299416 0.0690706,-0.306731 0.0416603,-0.311639 0.0139232,-0.314103 z "/>
<path fill="rgb(142,146,145)" stroke="rgb(142,146,145)" d="M 7.64105,8.91485 l -0.0634707,0.0614186 -0.0648995,0.0599067 -0.0662924,0.0583617 -0.125037,-0.156263 0.0661579,-0.0585556 0.0646802,-0.0601839 0.0631625,-0.0617748 0.125699,0.157091 z "/>
<path fill="rgb(142,146,145)" stroke="rgb(142,146,145)" d="M 1.45177,6.25089 l 0.0130494,0.304106 0.0390523,0.301871 0.0647681,0.297416 0.0900078,0.290774 0.114586,0.281995 0.138321,0.271142 0.16104,0.258296 0.182574,0.243552 0.202767,0.227016 0.221469,0.208812 0.238542,0.189073 0.253862,0.167943 0.267315,0.145579 0.278804,0.122145 0.288242,0.0978125 0.295562,0.0727611 0.300708,0.0471747 0.303644,0.0212415 0.304347,-0.00484787 0.302813,-0.0309016 0.299053,-0.0567281 0.293094,-0.0821376 0.284981,-0.106943 0.274772,-0.130963 0.127055,0.158786 -0.290286,0.141894 -0.301423,0.116379 -0.310323,0.0899994 -0.316918,0.062952 -0.321161,0.0354371 -0.323019,0.00765917 -0.32248,-0.0201756 -0.319546,-0.0478606 -0.31424,-0.0751903 -0.306601,-0.101962 -0.296685,-0.127976 -0.284567,-0.153041 -0.270337,-0.176969 -0.2541,-0.199583 -0.235976,-0.220716 -0.2161,-0.24021 -0.19462,-0.257921 -0.171695,-0.273717 -0.147495,-0.287481 -0.122201,-0.299111 -0.0959987,-0.30852 -0.0690841,-0.315638 -0.0416567,-0.320414 -0.01392,-0.32281 0.2,0 z "/>
<path fill="rgb(142,146,145)" stroke="rgb(142,146,145)" d="M 7.02205,9.41015 l -0.125699,-0.157091 0.0741231,-0.0480769 0.0729038,-0.0499066 0.0716393,-0.0517054 0.125037,0.156263 -0.0714795,0.0518791 -0.0726815,0.0501813 -0.0738431,0.0484557 z "/>
<path fill="rgb(142,146,145)" stroke="rgb(142,146,145)" d="M 3.23297,3.40592 l 0.441266,0.551466 -0.0758953,0.0456396 -0.0743279,0.0481502 -0.0726775,0.0506069 -0.437774,-0.547101 0.0718191,-0.0515113 0.073153,-0.0495987 0.074436,-0.0476517 z "/>
<path fill="rgb(142,146,145)" stroke="rgb(142,146,145)" d="M 2.61397,3.90122 l 0.0628162,-0.0621733 0.0644345,-0.0604945 0.066008,-0.0587737 0.437774,0.547101 -0.0653139,0.0598095 -0.0632789,0.0619586 -0.0611732,0.0640384 -0.441266,-0.551466 z "/>
<path fill="rgb(142,146,145)" stroke="rgb(142,146,145)" d="M 7.65177,6.25089 l -0.00994949,-0.229419 -0.0297738,-0.227697 -0.0493744,-0.224264 -0.0686044,-0.219148 -0.0873192,-0.212386 -0.105378,-0.204029 -0.122646,-0.19414 -0.138993,-0.182793 -0.154296,-0.170074 -0.168441,-0.156077 -0.18132,-0.140909 -0.192838,-0.124682 -0.202909,-0.107519 -0.211455,-0.0895491 -0.218414,-0.0709065 -0.223732,-0.0517314 -0.227371,-0.0321679 -0.229302,-0.0123629 -0.229511,0.00753498 -0.227997,0.0273763 -0.224771,0.047012 -0.219857,0.0662947 -0.213293,0.0850796 -0.448515,-0.560526 0.270708,-0.124753 0.280726,-0.100197 0.288521,-0.074847 0.294032,-0.0489047 0.297215,-0.0225751 0.298045,0.00393315 0.296516,0.0304103 0.292639,0.0566467 0.286445,0.0824346 0.277984,0.10757 0.267322,0.131854 0.254543,0.155093 0.23975,0.177105 0.223058,0.197715 0.204601,0.21676 0.184523,0.234088 0.162985,0.249564 0.140157,0.263063 0.116219,0.27448 0.0913605,0.283724 0.0657791,0.290722 0.0396769,0.295418 0.0132606,0.297776 -0.7,0 z "/>
<path fill="rgb(142,146,145)" stroke="rgb(142,146,145)" d="M 2.35177,6.25089 l -0.7,0 0.0127227,-0.291685 0.0380714,-0.289469 0.0631309,-0.285055 0.087711,-0.278476 0.111625,-0.269781 0.134691,-0.259037 0.156734,-0.246326 0.177586,-0.231744 0.448515,0.560526 -0.137207,0.20142 -0.118122,0.213173 -0.0980386,0.223124 -0.0771257,0.231187 -0.0555605,0.237295 -0.0335254,0.241395 -0.0112067,0.243455 z "/>
<path fill="rgb(142,146,145)" stroke="rgb(142,146,145)" d="M 7.38956,8.60056 l -0.0628162,0.0621733 -0.0644345,0.0604945 -0.066008,0.0587737 -0.437774,-0.547101 0.0653139,-0.0598095 0.0632789,-0.0619586 0.0611732,-0.0640384 0.441266,0.551466 z "/>
<path fill="rgb(142,146,145)" stroke="rgb(142,146,145)" d="M 6.77056,9.09586 l -0.441266,-0.551466 0.0758953,-0.0456396 0.0743279,-0.0481502 0.0726775,-0.0506069 0.437774,0.547101 -0.0718191,0.0515113 -0.073153,0.0495987 -0.074436,0.0476517 z "/>
<path fill="rgb(142,146,145)" stroke="rgb(142,146,145)" d="M 7.65177,6.25089 l 0.7,0 -0.0127227,0.291685 -0.0380714,0.289469 -0.0631309,0.285055 -0.087711,0.278476 -0.111625,0.269781 -0.134691,0.259037 -0.156734,0.246326 -0.177586,0.231744 -0.448515,-0.560526 0.137207,-0.20142 0.118122,-0.213173 0.0980386,-0.223124 0.0771257,-0.231187 0.0555605,-0.237295 0.0335254,-0.241395 0.0112067,-0.243455 z "/>
<path fill="rgb(142,146,145)" stroke="rgb(142,146,145)" d="M 2.35177,6.25089 l 0.00994949,0.229419 0.0297738,0.227697 0.0493744,0.224264 0.0686044,0.219148 0.0873192,0.212386 0.105378,0.204029 0.122646,0.19414 0.138993,0.182793 0.154296,0.170074 0.168441,0.156077 0.18132,0.140909 0.192838,0.124682 0.202909,0.107519 0.211455,0.0895491 0.218414,0.0709065 0.223732,0.0517314 0.227371,0.0321679 0.229302,0.0123629 0.229511,-0.00753498 0.227997,-0.0273763 0.224771,-0.047012 0.219857,-0.0662947 0.213293,-0.0850796 0.448515,0.560526 -0.270708,0.124753 -0.280726,0.100197 -0.288521,0.074847 -0.294032,0.0489047 -0.297215,0.0225751 -0.298045,-0.00393315 -0.296516,-0.0304103 -0.292639,-0.0566467 -0.286445,-0.0824346 -0.277984,-0.10757 -0.267322,-0.131854 -0.254543,-0.155093 -0.23975,-0.177105 -0.223058,-0.197715 -0.204601,-0.21676 -0.184523,-0.234088 -0.162985,-0.249564 -0.140157,-0.263063 -0.116219,-0.27448 -0.0913605,-0.283724 -0.0657791,-0.290722 -0.0396769,-0.295418 -0.0132606,-0.297776 0.7,0 z "/>
<path fill="rgb(241,240,234)" stroke="rgb(241,240,234)" d="M 10.0035,6.25089 l -0.229744,0 0,-5.49085 -0.00199778,-0.0457568 -0.00597815,-0.0454085 -0.00991301,-0.0447147 -0.0137724,-0.0436806 -0.017527,-0.042314 -0.0211483,-0.0406254 -0.0246085,-0.0386276 -0.0278815,-0.0363359 -0.0309423,-0.0337676 -0.0337676,-0.0309423 -0.0363359,-0.0278815 -0.0386276,-0.0246085 -0.0406254,-0.0211483 -0.042314,-0.017527 -0.0436806,-0.0137724 -0.0447147,-0.00991301 -0.0454085,-0.00597815 -0.0457568,-0.00199778 -8.47818,-7.99361e-15 -0.0457568,0.00199778 -0.0454085,0.00597815 -0.0447147,0.00991301 -0.0436806,0.0137724 -0.042314,0.017527 -0.0406254,0.0211483 -0.0386276,0.0246085 -0.0363359,0.0278815 -0.0337676,0.0309423 -0.0309423,0.0337676 -0.0278815,0.0363359 -0.0246085,0.0386276 -0.0211483,0.0406254 -0.017527,0.042314 -0.0137724,0.0436806 -0.00991301,0.0447147 -0.00597815,0.0454085 -0.00199778,0.0457568 0,5.49085 -0.245616,1.77636e-15 0,-6.25089 10.0035,1.77636e-15 -1.77636e-15,6.25089 z "/>
<path fill="rgb(241,240,234)" stroke="rgb(241,240,234)" d="M 10.0035,6.25089 l -1.77636e-15,6.25089 -10.0035,0 0,-6.25089 0.245616,-1.77636e-15 0,5.48553 0.00199778,0.0457568 0.00597815,0.0454085 0.00991301,0.0447147 0.0137724,0.0436806 0.017527,0.042314 0.0211483,0.0406254 0.0246085,0.0386276 0.0278815,0.0363359 0.0309423,0.0337676 0.0337676,0.0309423 0.0363359,0.0278815 0.0386276,0.0246085 0.0406254,0.0211483 0.042314,0.017527 0.0436806,0.0137724 0.0447147,0.00991301 0.0454085,0.00597815 0.0457568,0.00199778 8.47818,1.06581e-14 0.0457568,-0.00199778 0.0454085,-0.00597815 0.0447147,-0.00991301 0.0436806,-0.0137724 0.042314,-0.017527 0.0406254,-0.0211483 0.0386276,-0.0246085 0.0363359,-0.0278815 0.0337676,-0.0309423 0.0309423,-0.0337676 0.0278815,-0.0363359 0.0246085,-0.0386276 0.0211483,-0.0406254 0.017527,-0.042314 0.0137724,-0.0436806 0.00991301,-0.0447147 0.00597815,-0.0454085 0.00199778,-0.0457568 1.77636e-15,-5.48553 0.229744,0 z "/>
<path fill="rgb(241,240,234)" stroke="rgb(241,240,234)" d="M 0.508116,6.25089 l 0,-4.55847 1.67156,2.089 -0.210215,0.263207 -0.185748,0.281009 -0.159782,0.296544 -0.132526,0.309685 -0.104202,0.320328 -0.0750361,0.328387 -0.0452652,0.333795 -0.0151291,0.336511 -0.743653,0 z "/>
<path fill="rgb(241,240,234)" stroke="rgb(241,240,234)" d="M 0.508116,1.26946 l 0,-0.422964 2.04903,2.56075 -0.0662924,0.0583617 -0.0648995,0.0599067 -0.0634707,0.0614186 -1.85437,-2.31747 z "/>
<path fill="rgb(241,240,234)" stroke="rgb(241,240,234)" d="M 0.905782,0.497542 l 2.0757,2.59408 -0.0738431,0.0484557 -0.0726815,0.0501813 -0.0714795,0.0518791 -2.15271,-2.69032 0.0175566,-0.0123701 0.0185091,-0.0108935 0.0193377,-0.00934393 0.0200368,-0.00773184 0.0206018,-0.00606799 0.0210289,-0.00436353 0.0213152,-0.00262986 0.0214588,-0.000878579 0.135165,1.77636e-15 z "/>
<path fill="rgb(241,240,234)" stroke="rgb(241,240,234)" d="M 9.51129,6.25089 l -0.759525,0 -0.01392,-0.32281 -0.0416567,-0.320414 -0.0690841,-0.315638 -0.0959987,-0.30852 -0.122201,-0.299111 -0.147495,-0.287481 -0.171695,-0.273717 -0.19462,-0.257921 -0.2161,-0.24021 -0.235976,-0.220716 -0.2541,-0.199583 -0.270337,-0.176969 -0.284567,-0.153041 -0.296685,-0.127976 -0.306601,-0.101962 -0.31424,-0.0751903 -0.319546,-0.0478606 -0.32248,-0.0201756 -0.323019,0.00765917 -0.321161,0.0354371 -0.316918,0.062952 -0.310323,0.0899994 -0.301423,0.116379 -0.290286,0.141894 -1.96711,-2.45837 8.00457,9.76996e-15 0.0228784,0.000998892 0.0227043,0.00298907 0.0223574,0.00495651 0.0218403,0.00688622 0.021157,0.00876352 0.0203127,0.0105741 0.0193138,0.0123043 0.0181679,0.0139407 0.0168838,0.0154711 0.0154711,0.0168838 0.0139407,0.0181679 0.0123043,0.0193138 0.0105741,0.0203127 0.00876352,0.021157 0.00688622,0.0218403 0.00495651,0.0223574 0.00298907,0.0227043 0.000998892,0.0228784 0,5.49085 z "/>
<path fill="rgb(241,240,234)" stroke="rgb(241,240,234)" d="M 9.51129,10.8292 l -1.68743,-2.10884 0.210215,-0.263207 0.185748,-0.281009 0.159782,-0.296544 0.132526,-0.309685 0.104202,-0.320328 0.0750361,-0.328387 0.0452652,-0.333795 0.0151291,-0.336511 0.759525,0 0,4.57831 z "/>
<path fill="rgb(241,240,234)" stroke="rgb(241,240,234)" d="M 0.508116,6.25089 l 0.743653,0 0.01392,0.32281 0.0416567,0.320414 0.0690841,0.315638 0.0959987,0.30852 0.122201,0.299111 0.147495,0.287481 0.171695,0.273717 0.19462,0.257921 0.2161,0.24021 0.235976,0.220716 0.2541,0.199583 0.270337,0.176969 0.284567,0.153041 0.296685,0.127976 0.306601,0.101962 0.31424,0.0751903 0.319546,0.0478606 0.32248,0.0201756 0.323019,-0.00765917 0.321161,-0.0354371 0.316918,-0.062952 0.310323,-0.0899994 0.301423,-0.116379 0.290286,-0.141894 1.96286,2.45305 -7.98444,-8.88178e-15 -0.0228784,-0.000998892 -0.0227043,-0.00298907 -0.0223574,-0.00495651 -0.0218403,-0.00688622 -0.021157,-0.00876352 -0.0203127,-0.0105741 -0.0193138,-0.0123043 -0.0181679,-0.0139407 -0.0168838,-0.0154711 -0.0154711,-0.0168838 -0.0139407,-0.0181679 -0.0123043,-0.0193138 -0.0105741,-0.0203127 -0.00876352,-0.021157 -0.00688622,-0.0218403 -0.00495651,-0.0223574 -0.00298907,-0.0227043 -0.000998892,-0.0228784 0,-5.48553 z "/>
<path fill="rgb(241,240,234)" stroke="rgb(241,240,234)" d="M 9.51129,11.2522 l 0,0.422964 -2.0649,-2.58059 0.0662924,-0.0583617 0.0648995,-0.0599067 0.0634707,-0.0614186 1.87024,2.33731 z "/>
<path fill="rgb(241,240,234)" stroke="rgb(241,240,234)" d="M 9.39587,11.9538 l -0.0189819,0.0116974 -0.0199061,0.0100443 -0.0206867,0.00831879 -0.021318,0.00653324 -0.0217955,0.00470057 -0.0221158,0.00283397 -0.0222765,0.000946935 -0.155294,0 -2.07145,-2.58876 0.0738431,-0.0484557 0.0726815,-0.0501813 0.0714795,-0.0518791 2.15582,2.6942 z "/>
<path fill="rgb(42,41,42)" stroke="rgb(42,41,42)" d="M 6.92267,11.4646 l -0.730518,0 0,-0.999323 0.74633,0 0,0.178676 -0.564491,0 0,0.273549 0.298848,0 0,0.181839 -0.298848,0 0,0.186583 0.548679,0 0,0.178676 z "/>
<path fill="rgb(42,41,42)" stroke="rgb(42,41,42)" d="M 5.93284,11.4646 l -0.172352,0 0,-0.659364 0.0189745,-0.33996 0.153377,0 0,0.999323 z "/>
<path fill="rgb(42,41,42)" stroke="rgb(42,41,42)" d="M 5.30193,11.4646 l 0,-0.311498 0.477525,-0.687825 -0.0189745,0.33996 -0.45855,0.659364 z "/>
<path fill="rgb(42,41,42)" stroke="rgb(42,41,42)" d="M 5.30193,11.4646 l -0.173933,0 0,-0.999323 0.173933,0 0,0.687825 0,0.311498 z "/>
<path fill="rgb(42,41,42)" stroke="rgb(42,41,42)" d="M 4.48287,11.4804 l -0.0110685,0 -0.0901288,-0.00948725 -0.0790604,-0.0252993 -0.0711543,-0.0426926 -0.0600859,-0.0585047 -0.0284617,-0.0395302 0.33996,-0.00158121 0.0363678,-0.00316242 0.0774792,-0.0268805 0.0600859,-0.0585047 0.0332054,-0.0664107 0.0205557,-0.083804 0.00790604,-0.0980349 -0.00316242,-0.0695731 -0.0158121,-0.0869664 -0.0300429,-0.0727356 -0.0363678,-0.0521799 -0.0664107,-0.0426926 -0.083804,-0.0158121 -0.322566,-0.0142309 0.0237181,-0.0316242 0.0600859,-0.0585047 0.0711543,-0.0411114 0.0790604,-0.0252993 0.0885476,-0.00790604 0.00632483,0 0.0869664,0.00948725 0.0774792,0.0284617 0.0695731,0.0442738 0.0600859,0.0616671 0.0284617,0.0411114 0.0363678,0.0711543 0.0268805,0.0806416 0.0158121,0.0885476 0.00474362,0.0964537 -0.00158121,0.0569235 -0.0110685,0.09171 -0.0237181,0.0822228 -0.0332054,0.0743168 -0.0442738,0.0664107 -0.00158121,0.00158121 -0.0600859,0.0600859 -0.0695731,0.0442738 -0.0790604,0.0252993 -0.0885476,0.00790604 z "/>
<path fill="rgb(42,41,42)" stroke="rgb(42,41,42)" d="M 4.14291,11.3049 l -0.0363678,-0.0695731 -0.0252993,-0.0806416 -0.0158121,-0.0885476 -0.00632483,-0.0996161 0.00158121,-0.0284617 0.00790604,-0.0932913 0.0205557,-0.083804 0.0300429,-0.0774792 0.0411114,-0.0711543 0.322566,0.0142309 -0.0395302,0.00316242 -0.075898,0.0284617 -0.0616671,0.0585047 0,0.00158121 -0.0347866,0.0679919 -0.0221369,0.0822228 -0.00632483,0.0980349 0.00632483,0.0964537 0.0221369,0.083804 0.0347866,0.0679919 0.0237181,0.0284617 0.0679919,0.0442738 0.0853852,0.0158121 -0.33996,0.00158121 z "/>
<path fill="rgb(42,41,42)" stroke="rgb(42,41,42)" d="M 3.8915,11.4646 l -0.752655,0 0,-0.175514 0.536029,0 -0.567654,-0.621415 0,-0.202395 0.784279,0 0,0.178676 -0.56291,0 0.56291,0.616671 0,0.203976 z "/>
<path fill="rgb(142,146,145)" stroke="rgb(142,146,145)" d="M 6.29019,7.54158 l -0.0142309,0 -0.140727,-0.00948725 -0.13124,-0.0252993 -0.121753,-0.0395302 -0.112266,-0.0569235 -0.102779,-0.0711543 -0.0948725,-0.0885476 -0.083804,-0.102779 -0.00316242,-0.00316242 -0.0664107,-0.10436 -0.0553423,-0.110685 -0.045855,-0.118591 -0.0347866,-0.128078 -0.0252993,-0.134403 -0.0158121,-0.142309 -0.00474362,-0.150215 0,-0.00790604 0.00474362,-0.150215 0.0158121,-0.142309 0.0252993,-0.134403 0.0363678,-0.126497 0.0442738,-0.120172 0.0553423,-0.110685 0.0664107,-0.10436 0.0126497,-0.0189745 0.083804,-0.101197 0.0948725,-0.0853852 0.102779,-0.0711543 0.113847,-0.0537611 0.121753,-0.0395302 0.132821,-0.0237181 0.142309,-0.00790604 0.0332054,0 0.139146,0.0126497 0.128078,0.0268805 0.120172,0.0426926 0.110685,0.0585047 0.101197,0.0743168 0.0901288,0.09171 0.0822228,0.105941 -0.804835,0.0363678 -0.132821,0.0126497 -0.120172,0.0411114 -0.10436,0.0695731 -0.0869664,0.0980349 -0.0569235,0.0948725 -0.045855,0.112266 -0.0316242,0.128078 -0.0205557,0.142309 -0.00632483,0.15654 0.00158121,0.0490174 0.0110685,0.14389 0.0268805,0.132821 0.0411114,0.121753 0.0537611,0.110685 0.0316242,0.0490174 0.0885476,0.0996161 0.102779,0.0711543 0.115428,0.0426926 0.132821,0.0142309 0.800091,0.0442738 -0.0110685,0.0158121 -0.083804,0.102779 -0.0932913,0.0853852 -0.102779,0.0711543 -0.113847,0.0553423 -0.121753,0.037949 -0.132821,0.0237181 -0.140727,0.00790604 z "/>
<path fill="rgb(142,146,145)" stroke="rgb(142,146,145)" d="M 7.09028,7.14153 l -0.800091,-0.0442738 0.126497,-0.0126497 0.121753,-0.0411114 0.10436,-0.0695731 0.0869664,-0.0996161 0.0505986,-0.0822228 0.045855,-0.110685 0.0332054,-0.128078 0.0205557,-0.140727 0.00632483,-0.153377 -0.00474362,-0.129659 -0.0189745,-0.140727 -0.0316242,-0.129659 -0.045855,-0.115428 -0.0585047,-0.10436 -0.083804,-0.0996161 -0.101197,-0.0743168 -0.118591,-0.0442738 -0.132821,-0.0142309 0.804835,-0.0363678 0.0632483,0.10436 0.0537611,0.112266 0.0442738,0.120172 0.0347866,0.126497 0.0237181,0.135984 0.0142309,0.142309 0.00632483,0.150215 -0.00474362,0.135984 -0.0142309,0.142309 -0.0252993,0.135984 -0.0347866,0.126497 -0.0442738,0.120172 -0.0553423,0.112266 -0.0664107,0.105941 z "/>
<path fill="rgb(142,146,145)" stroke="rgb(142,146,145)" d="M 4.54928,7.50205 l -1.66817,0 -0.075898,-1.17326 0.928169,-0.0221369 0.0268805,0 0.154958,-0.0142309 0.124915,-0.0332054 0.0932913,-0.0553423 0.0885476,-0.0932913 0.0537611,-0.113847 0.0173933,-0.134403 -0.0158121,-0.126497 -0.0521799,-0.113847 -0.09171,-0.09171 -0.0490174,-0.0316242 -0.112266,-0.0474362 -0.132821,-0.0284617 -0.153377,-0.00948725 0.901288,-0.0442738 0.0664107,0.109103 0.045855,0.120172 0.0284617,0.126497 0.00948725,0.137565 -0.00158121,0.0664107 -0.0173933,0.132821 -0.0363678,0.124915 -0.0553423,0.115428 -0.0727356,0.107522 -0.0932913,0.0980349 -0.075898,0.0632483 -0.105941,0.0679919 -0.117009,0.0537611 -0.883895,0.0110685 0.0252993,0.357353 1.23492,0 0.0110685,0.441157 z "/>
<path fill="rgb(142,146,145)" stroke="rgb(142,146,145)" d="M 3.75868,6.76204 l -0.0664107,-0.00158121 -0.126497,-0.00948725 -0.139146,-0.0189745 -0.148634,-0.0284617 0.883895,-0.0110685 -0.124915,0.0395302 -0.134403,0.0221369 -0.14389,0.00790604 z "/>
<path fill="rgb(142,146,145)" stroke="rgb(142,146,145)" d="M 2.80521,6.32879 l 0.447482,-0.117009 0.083804,0.0300429 0.132821,0.0363678 0.13124,0.0205557 0.132821,0.00790604 -0.928169,0.0221369 z "/>
<path fill="rgb(142,146,145)" stroke="rgb(142,146,145)" d="M 2.96175,5.61408 l -0.237181,-0.374746 0.0664107,-0.0395302 0.124915,-0.0648295 0.124915,-0.0537611 0.126497,-0.0442738 0.128078,-0.0347866 0.128078,-0.0237181 0.13124,-0.0158121 0.13124,-0.00474362 0.0205557,0 0.145471,0.00948725 0.137565,0.0221369 0.126497,0.0347866 0.118591,0.0505986 0.109103,0.0616671 0.0996161,0.0774792 0.0585047,0.0537611 0.0853852,0.101197 -0.901288,0.0442738 -0.0901288,0.00316242 -0.134403,0.0142309 -0.129659,0.0268805 -0.126497,0.0395302 -0.124915,0.0521799 -0.118591,0.0648295 z "/>
<path fill="rgb(42,41,42)" stroke="rgb(42,41,42)" d="M 7.11502,9.10338 l -0.125047,-0.156276 0.0702175,-0.0532184 0.0687936,-0.0550466 0.0673222,-0.0568367 0.125047,0.156276 -0.0674047,0.0567354 -0.0687919,0.0550452 -0.0701367,0.0533211 z "/>
<path fill="rgb(42,41,42)" stroke="rgb(42,41,42)" d="M 6.5522,8.4 l -1.71965,-2.14911 0.338443,0 1.58754,1.98401 -0.0669347,0.0573113 -0.0688031,0.0550542 -0.0705955,0.0527362 z "/>
<path fill="rgb(42,41,42)" stroke="rgb(42,41,42)" d="M 2.80723,3.71978 l 0.0673222,-0.0568367 0.0687936,-0.0550466 0.0702175,-0.0532184 0.437774,0.547101 -0.0705955,0.0527362 -0.0688031,0.0550542 -0.0669347,0.0573113 -0.437774,-0.547101 z "/>
<path fill="rgb(42,41,42)" stroke="rgb(42,41,42)" d="M 6.98997,8.9471 l -0.437774,-0.547101 0.0705955,-0.0527362 0.0688031,-0.0550542 0.0669347,-0.0573113 0.437774,0.547101 -0.0673222,0.0568367 -0.0687936,0.0550466 -0.0702175,0.0532184 z "/>
<path fill="rgb(42,41,42)" stroke="rgb(42,41,42)" d="M 9.39587,11.9538 l 0.0186884,-0.0138888 0.0173841,-0.0154902 0.0159431,-0.0169698 0.0143766,-0.0183158 0.012697,-0.0195177 0.0109175,-0.0205661 0.00905205,-0.0214526 0.00711543,-0.0221704 0.00512282,-0.0227137 0.0030899,-0.0230783 0.00103268,-0.0232613 0,-0.0612952 -2.0649,-2.58059 -0.0674784,0.0566448 -0.0687904,0.055044 -0.0700646,0.0534128 2.15582,2.6942 z "/>
<path fill="rgb(42,41,42)" stroke="rgb(42,41,42)" d="M 7.24006,9.25964 l -0.125037,-0.156263 0.0701367,-0.0533211 0.0687919,-0.0550452 0.0674047,-0.0567354 0.125037,0.156263 -0.0674784,0.0566448 -0.0687904,0.055044 -0.0700646,0.0534128 z "/>
<path fill="rgb(42,41,42)" stroke="rgb(42,41,42)" d="M 2.55715,3.40724 l 0.0674784,-0.0566448 0.0687904,-0.055044 0.0700646,-0.0534128 -2.15271,-2.69032 -0.0183778,0.0154957 -0.0168832,0.0171119 -0.015247,0.0185847 -0.0134829,0.0199015 -0.0116058,0.0210515 -0.00963136,0.0220249 -0.00757613,0.0228137 -0.00545736,0.0234111 -0.00329283,0.0238121 -0.00110069,0.0240135 0,0.0864512 2.04903,2.56075 z "/>
<path fill="rgb(42,41,42)" stroke="rgb(42,41,42)" d="M 4.83255,6.25089 l -1.58754,-1.98401 0.0669347,-0.0573113 0.0688031,-0.0550542 0.0705955,-0.0527362 1.71965,2.14911 -0.338443,0 z "/>
<path fill="rgb(42,41,42)" stroke="rgb(42,41,42)" d="M 2.55715,3.40724 l 0.0674784,-0.0566448 0.0687904,-0.055044 0.0700646,-0.0534128 0.125037,0.156263 -0.0701367,0.0533211 -0.0687919,0.0550452 -0.0674047,0.0567354 -0.125037,-0.156263 z "/>
<path fill="rgb(42,41,42)" stroke="rgb(42,41,42)" d="M 2.68219,3.56351 l 0.0674047,-0.0567354 0.0687919,-0.0550452 0.0701367,-0.0533211 0.125047,0.156276 -0.0702175,0.0532184 -0.0687936,0.0550466 -0.0673222,0.0568367 -0.125047,-0.156276 z "/>
<path fill="rgb(42,41,42)" stroke="rgb(42,41,42)" d="M 9.51129,10.8292 l -1.68743,-2.10884 -0.0593938,0.0662715 -0.0609496,0.0648435 -0.0624712,0.0633789 1.87024,2.33731 0,-0.422964 z "/>
<path fill="rgb(42,41,42)" stroke="rgb(42,41,42)" d="M 7.5695,8.40246 l -0.058212,0.0676212 -0.0599922,0.0660469 -0.0617299,0.0644257 -0.441266,-0.551466 0.0598945,-0.0670839 0.0575838,-0.0690775 0.0552067,-0.0709916 0.448515,0.560526 z "/>
<path fill="rgb(42,41,42)" stroke="rgb(42,41,42)" d="M 7.82387,8.72036 l -0.0593938,0.0662715 -0.0609496,0.0648435 -0.0624712,0.0633789 -0.125699,-0.157091 0.0621213,-0.0638711 0.0604988,-0.06541 0.0588382,-0.0669077 0.127055,0.158786 z "/>
<path fill="rgb(42,41,42)" stroke="rgb(42,41,42)" d="M 5.84788,6.25089 l 1.27311,1.59105 -0.0552067,0.0709916 -0.0575838,0.0690775 -0.0598945,0.0670839 -1.43886,-1.7982 0.338443,0 z "/>
<path fill="rgb(42,41,42)" stroke="rgb(42,41,42)" d="M 2.98149,3.09162 l 0.0755365,-0.0470506 0.0766318,-0.0452449 0.0776838,-0.0434138 0.127055,0.158786 -0.0781827,0.0427322 -0.0770856,0.0446809 -0.07594,0.0466014 -0.125699,-0.157091 z "/>
<path fill="rgb(42,41,42)" stroke="rgb(42,41,42)" d="M 7.69681,8.56157 l -0.0588382,0.0669077 -0.0604988,0.06541 -0.0621213,0.0638711 -0.125789,-0.157203 0.0617299,-0.0644257 0.0599922,-0.0660469 0.058212,-0.0676212 0.127313,0.159108 z "/>
<path fill="rgb(42,41,42)" stroke="rgb(42,41,42)" d="M 3.33839,3.1147 l 0.127313,0.159108 -0.0787414,0.0419647 -0.0775959,0.0440469 -0.0763953,0.0460978 -0.125789,-0.157203 0.07594,-0.0466014 0.0770856,-0.0446809 0.0781827,-0.0427322 z "/>
<path fill="rgb(42,41,42)" stroke="rgb(42,41,42)" d="M 3.91422,3.83433 l 1.93365,2.41656 -0.338443,0 -1.83519,-2.29351 0.0785862,-0.0437242 0.0800246,-0.0410325 0.0813708,-0.0382935 z "/>
<path fill="rgb(42,41,42)" stroke="rgb(42,41,42)" d="M 3.46571,3.27381 l 0.448515,0.560526 -0.0813708,0.0382935 -0.0800246,0.0410325 -0.0785862,0.0437242 -0.441266,-0.551466 0.0763953,-0.0460978 0.0775959,-0.0440469 0.0787414,-0.0419647 z "/>
<path fill="rgb(42,41,42)" stroke="rgb(42,41,42)" d="M 0.905782,0.497542 l 2.0757,2.59408 0.0755365,-0.0470506 0.0766318,-0.0452449 0.0776838,-0.0434138 -1.96711,-2.45837 -0.338443,2.66454e-15 z "/>
<path fill="rgb(42,41,42)" stroke="rgb(42,41,42)" d="M 6.66514,9.38708 l -0.127313,-0.159108 0.0787414,-0.0419647 0.0775959,-0.0440469 0.0763953,-0.0460978 0.125789,0.157203 -0.07594,0.0466014 -0.0770856,0.0446809 -0.0781827,0.0427322 z "/>
<path fill="rgb(42,41,42)" stroke="rgb(42,41,42)" d="M 0.508116,1.26946 l 1.85437,2.31747 -0.0624712,0.0633789 -0.0609496,0.0648435 -0.0593938,0.0662715 -1.67156,-2.089 0,-0.422964 z "/>
<path fill="rgb(42,41,42)" stroke="rgb(42,41,42)" d="M 8.75506,11.9989 l -1.96286,-2.45305 0.0776838,-0.0434138 0.0766318,-0.0452449 0.0755365,-0.0470506 2.07145,2.58876 -0.338443,0 z "/>
<path fill="rgb(42,41,42)" stroke="rgb(42,41,42)" d="M 6.08932,8.66745 l -1.93365,-2.41656 0.338443,0 1.83519,2.29351 -0.0785862,0.0437242 -0.0800246,0.0410325 -0.0813708,0.0382935 z "/>
<path fill="rgb(42,41,42)" stroke="rgb(42,41,42)" d="M 4.15566,6.25089 l -1.27311,-1.59105 0.0552067,-0.0709916 0.0575838,-0.0690775 0.0598945,-0.0670839 1.43886,1.7982 -0.338443,0 z "/>
<path fill="rgb(42,41,42)" stroke="rgb(42,41,42)" d="M 6.7922,9.54586 l -0.127055,-0.158786 0.0781827,-0.0427322 0.0770856,-0.0446809 0.07594,-0.0466014 0.125699,0.157091 -0.0755365,0.0470506 -0.0766318,0.0452449 -0.0776838,0.0434138 z "/>
<path fill="rgb(42,41,42)" stroke="rgb(42,41,42)" d="M 2.17967,3.78142 l 0.0593938,-0.0662715 0.0609496,-0.0648435 0.0624712,-0.0633789 0.125699,0.157091 -0.0621213,0.0638711 -0.0604988,0.06541 -0.0588382,0.0669077 -0.127055,-0.158786 z "/>
<path fill="rgb(42,41,42)" stroke="rgb(42,41,42)" d="M 2.30673,3.94021 l 0.0588382,-0.0669077 0.0604988,-0.06541 0.0621213,-0.0638711 0.125789,0.157203 -0.0617299,0.0644257 -0.0599922,0.0660469 -0.058212,0.0676212 -0.127313,-0.159108 z "/>
<path fill="rgb(42,41,42)" stroke="rgb(42,41,42)" d="M 6.53783,9.22797 l -0.448515,-0.560526 0.0813708,-0.0382935 0.0800246,-0.0410325 0.0785862,-0.0437242 0.441266,0.551466 -0.0763953,0.0460978 -0.0775959,0.0440469 -0.0787414,0.0419647 z "/>
<path fill="rgb(42,41,42)" stroke="rgb(42,41,42)" d="M 2.43404,4.09932 l 0.058212,-0.0676212 0.0599922,-0.0660469 0.0617299,-0.0644257 0.441266,0.551466 -0.0598945,0.0670839 -0.0575838,0.0690775 -0.0552067,0.0709916 -0.448515,-0.560526 z "/>
<path fill="rgb(42,41,42)" stroke="rgb(42,41,42)" d="M 9.51129,10.8292 l 0,-4.57831 0.2625,0 -1.77636e-15,5.48553 -0.00199778,0.0457568 -0.00597815,0.0454085 -0.00991301,0.0447147 -0.0137724,0.0436806 -0.017527,0.042314 -0.0211483,0.0406254 -0.0246085,0.0386276 -0.0278815,0.0363359 -0.0309423,0.0337676 -0.0337676,0.0309423 -0.0363359,0.0278815 -0.0386276,0.0246085 -0.0406254,0.0211483 -0.042314,0.017527 -0.0436806,0.0137724 -0.0447147,0.00991301 -0.0454085,0.00597815 -0.0457568,0.00199778 -8.47818,-1.06581e-14 -0.0457568,-0.00199778 -0.0454085,-0.00597815 -0.0447147,-0.00991301 -0.0436806,-0.0137724 -0.042314,-0.017527 -0.0406254,-0.0211483 -0.0386276,-0.0246085 -0.0363359,-0.0278815 -0.0337676,-0.0309423 -0.0309423,-0.0337676 -0.0278815,-0.0363359 -0.0246085,-0.0386276 -0.0211483,-0.0406254 -0.017527,-0.042314 -0.0137724,-0.0436806 -0.00991301,-0.0447147 -0.00597815,-0.0454085 -0.00199778,-0.0457568 0,-5.48553 0.2625,8.88178e-16 0,5.48553 0.000998892,0.0228784 0.00298907,0.0227043 0.00495651,0.0223574 0.00688622,0.0218403 0.00876352,0.021157 0.0105741,0.0203127 0.0123043,0.0193138 0.0139407,0.0181679 0.0154711,0.0168838 0.0168838,0.0154711 0.0181679,0.0139407 0.0193138,0.0123043 0.0203127,0.0105741 0.021157,0.00876352 0.0218403,0.00688622 0.0223574,0.00495651 0.0227043,0.00298907 0.0228784,0.000998892 7.98444,8.88178e-15 0.338443,0 0.155294,0 0.0222765,-0.000946935 0.0221158,-0.00283397 0.0217955,-0.00470057 0.021318,-0.00653324 0.0206867,-0.00831879 0.0199061,-0.0100443 0.0189819,-0.0116974 0.0186884,-0.0138888 0.0173841,-0.0154902 0.0159431,-0.0169698 0.0143766,-0.0183158 0.012697,-0.0195177 0.0109175,-0.0205661 0.00905205,-0.0214526 0.00711543,-0.0221704 0.00512282,-0.0227137 0.0030899,-0.0230783 0.00103268,-0.0232613 0,-0.0612952 0,-0.422964 0,-0.422964 z "/>
<path fill="rgb(42,41,42)" stroke="rgb(42,41,42)" d="M 0.508116,1.26946 l 0,0.422964 0,4.55847 -0.2625,-8.88178e-16 0,-5.49085 0.00199778,-0.0457568 0.00597815,-0.0454085 0.00991301,-0.0447147 0.0137724,-0.0436806 0.017527,-0.042314 0.0211483,-0.0406254 0.0246085,-0.0386276 0.0278815,-0.0363359 0.0309423,-0.0337676 0.0337676,-0.0309423 0.0363359,-0.0278815 0.0386276,-0.0246085 0.0406254,-0.0211483 0.042314,-0.017527 0.0436806,-0.0137724 0.0447147,-0.00991301 0.0454085,-0.00597815 0.0457568,-0.00199778 8.47818,7.99361e-15 0.0457568,0.00199778 0.0454085,0.00597815 0.0447147,0.00991301 0.0436806,0.0137724 0.042314,0.017527 0.0406254,0.0211483 0.0386276,0.0246085 0.0363359,0.0278815 0.0337676,0.0309423 0.0309423,0.0337676 0.0278815,0.0363359 0.0246085,0.0386276 0.0211483,0.0406254 0.017527,0.042314 0.0137724,0.0436806 0.00991301,0.0447147 0.00597815,0.0454085 0.00199778,0.0457568 0,5.49085 -0.2625,0 0,-5.49085 -0.000998892,-0.0228784 -0.00298907,-0.0227043 -0.00495651,-0.0223574 -0.00688622,-0.0218403 -0.00876352,-0.021157 -0.0105741,-0.0203127 -0.0123043,-0.0193138 -0.0139407,-0.0181679 -0.0154711,-0.0168838 -0.0168838,-0.0154711 -0.0181679,-0.0139407 -0.0193138,-0.0123043 -0.0203127,-0.0105741 -0.021157,-0.00876352 -0.0218403,-0.00688622 -0.0223574,-0.00495651 -0.0227043,-0.00298907 -0.0228784,-0.000998892 -8.00457,-9.76996e-15 -0.338443,2.66454e-15 -0.135165,-1.77636e-15 -0.0214588,0.000878579 -0.0213152,0.00262986 -0.0210289,0.00436353 -0.0206018,0.00606799 -0.0200368,0.00773184 -0.0193377,0.00934393 -0.0185091,0.0108935 -0.0175566,0.0123701 -0.0183778,0.0154957 -0.0168832,0.0171119 -0.015247,0.0185847 -0.0134829,0.0199015 -0.0116058,0.0210515 -0.00963136,0.0220249 -0.00757613,0.0228137 -0.00545736,0.0234111 -0.00329283,0.0238121 -0.00110069,0.0240135 0,0.0864512 0,0.422964 z "/>
</g></g></svg>
