<?xml version="1.0" encoding="UTF-8" standalone="no"?>
<!DOCTYPE svg PUBLIC "-//W3C//DTD SVG 1.1//EN" "http://www.w3.org/Graphics/SVG/1.1/DTD/svg11-flat.dtd"
[

]>
<svg xmlns="http://www.w3.org/2000/svg"  viewBox="-0.05625 -0.05625 4.6125 7.6125"><g fill="none" stroke="black" stroke-width="0.0125" transform="translate(0,7.5) scale(1, -1)">
<g id="Output" >
<path fill="rgb(241,240,234)" stroke="rgb(241,240,234)" d="M 2.40092,0.620386 l 0.0023938,0.000104516 0.00237558,0.000312751 0.00233928,0.000518606 0.00228518,0.000720515 0.00221369,0.00091694 0.00212535,0.00110639 0.00202083,0.00128741 0.00190094,0.00145864 0.00176657,0.00161877 0.00161877,0.00176657 0.00145864,0.00190094 0.00128741,0.00202083 0.00110639,0.00212535 0.00091694,0.00221369 0.000720515,0.00228518 0.000518606,0.00233928 0.000312751,0.00237558 0.000104516,0.0023938 2.26002e-10,0.972534 -0.173144,0 0,-1 0.145678,0 z "/>
<path fill="rgb(241,240,234)" stroke="rgb(241,240,234)" d="M 2.25524,1.62039 l 0.173144,0 9.37388e-11,0.403378 -0.000104516,0.0023938 -0.000312751,0.00237558 -0.000518606,0.00233928 -0.000720515,0.00228518 -0.00091694,0.00221369 -0.00110639,0.00212535 -0.00128741,0.00202083 -0.00145864,0.00190094 -0.00161877,0.00176657 -0.00176657,0.00161877 -0.00190094,0.00145864 -0.00202083,0.00128741 -0.00212535,0.00110639 -0.00221369,0.00091694 -0.00228518,0.000720515 -0.00233928,0.000518606 -0.00237558,0.000312751 -0.0023938,0.000104516 -0.145678,4.16551e-11 0,-0.430844 z "/>
<path fill="rgb(241,240,234)" stroke="rgb(241,240,234)" d="M 1.25524,1.62039 l 0.462616,0 0.176238,0.337044 0.000501412,0.000861355 0.00057741,0.000812369 0.000648655,0.000756698 0.000714562,0.0006948 0.000774588,0.000627183 0.00082824,0.000554404 0.000875075,0.000477063 0.000914708,0.000395796 0.000946814,0.000311271 0.000971127,0.000224185 0.000987447,0.000135253 0.000995641,4.52084e-05 0.284362,0 0.00095061,-4.12039e-05 0.00094348,-0.000123303 0.000929272,-0.000204477 0.000908094,-0.000284117 0.000880105,-0.000361626 0.000845514,-0.000436422 0.00080458,-0.000507945 0.000757612,-0.000575658 0.000704961,-0.000639053 0.000647021,-0.000697654 0.000584229,-0.000751022 0.000517054,-0.000798757 0.000446001,-0.0008405 0.000371603,-0.000875939 0.000294417,-0.000904807 0.000215022,-0.000926889 0.000134015,-0.000942018 5.20027e-05,-0.000950081 -3.03998e-05,-0.000951017 -0.000112574,-0.00094482 -0.000193904,-0.000931536 -0.00027378,-0.000911264 -0.000351602,-0.000884157 -0.000426787,-0.000850418 -0.00049877,-0.0008103 -0.000567012,-0.000764104 -0.263765,-0.32503 0.322282,0 0,0.430844 -0.972534,2.78088e-10 -0.0023938,-0.000104515 -0.00237558,-0.000312751 -0.00233928,-0.000518606 -0.00228518,-0.000720515 -0.00221369,-0.00091694 -0.00212535,-0.00110639 -0.00202083,-0.00128741 -0.00190094,-0.00145864 -0.00176657,-0.00161877 -0.00161877,-0.00176657 -0.00145864,-0.00190094 -0.00128741,-0.00202083 -0.00110639,-0.00212535 -0.00091694,-0.00221369 -0.000720515,-0.00228518 -0.000518606,-0.00233928 -0.000312751,-0.00237558 -0.000104516,-0.0023938 -9.37397e-11,-0.403378 z "/>
<path fill="rgb(241,240,234)" stroke="rgb(241,240,234)" d="M 1.71786,1.62039 l -0.462616,0 -2.26005e-10,-0.972534 0.000104516,-0.0023938 0.000312751,-0.00237558 0.000518606,-0.00233928 0.000720515,-0.00228518 0.00091694,-0.00221369 0.00110639,-0.00212535 0.00128741,-0.00202083 0.00145864,-0.00190094 0.00161877,-0.00176657 0.00176657,-0.00161877 0.00190094,-0.00145864 0.00202083,-0.00128741 0.00212535,-0.00110639 0.00221369,-0.00091694 0.00228518,-0.000720515 0.00233928,-0.000518606 0.00237558,-0.000312751 0.0023938,-0.000104516 0.972534,0 0,1 -0.322282,0 -0.0537698,-0.0662591 -0.000579491,-0.000782578 -0.000507918,-0.000830817 -0.000432356,-0.000872529 -0.000353397,-0.000907386 -0.000271661,-0.000935114 -0.000187791,-0.000955496 -0.000102446,-0.000968371 -1.62959e-05,-0.000973639 6.99821e-05,-0.000971257 0.00015571,-0.000961245 0.000240215,-0.000943681 0.000322833,-0.000918704 0.000402915,-0.000886509 0.000479831,-0.000847349 0.000552977,-0.000801532 0.000621779,-0.000749419 0.000685697,-0.000691417 0.000744227,-0.000627984 0.00079691,-0.000559617 0.000843333,-0.000486854 0.000883131,-0.000410266 0.00091599,-0.000330455 0.000941653,-0.000248047 0.000959918,-0.000163691 0.000970642,-7.8049e-05 0.00097374,8.20628e-06 0.000969189,9.43971e-05 0.000957023,0.000179846 0.2398,0.05617 0.000926339,0.000175433 0.000937969,9.53657e-05 0.000942692,1.45955e-05 0.000940472,-6.6282e-05 0.000931326,-0.000146672 0.000915321,-0.000225981 0.000892576,-0.000303626 0.000863257,-0.000379035 0.000827581,-0.000451653 0.00078581,-0.000520944 0.000738252,-0.000586399 0.000685258,-0.000647536 0.000627216,-0.000703903 0.000564556,-0.000755087 0.000497738,-0.00080071 0.000427254,-0.000840437 0.000353624,-0.000873974 0.00027739,-0.000901074 0.000199113,-0.000921539 0.000119369,-0.000935217 3.87469e-05,-0.000942008 -4.2161e-05,-0.000941861 -0.000122758,-0.000934778 -0.000202452,-0.000920811 -0.000280654,-0.000900063 -0.00035679,-0.000872686 -0.000430298,-0.000838883 -0.000500637,-0.000798901 -0.000567289,-0.000753036 -0.517712,-0.629125 -0.000585159,-0.000779085 -0.000513829,-0.000827867 -0.000438458,-0.000870137 -0.000359638,-0.000905563 -0.000277989,-0.000933866 -0.000194154,-0.000954824 -0.000108791,-0.000968271 -2.25728e-05,-0.000974102 6.3823e-05,-0.000972271 0.000149717,-0.000962792 0.000234433,-0.000945741 0.000317305,-0.00092125 0.000397682,-0.000889513 0.00047493,-0.000850779 0.000548443,-0.000805354 0.000617641,-0.000753594 0.000681982,-0.000695906 0.000740958,-0.000632744 0.000794106,-0.000564605 0.000841008,-0.000492026 0.000881295,-0.000415576 0.00091465,-0.000335857 0.00094081,-0.000253497 0.00095957,-0.000169143 0.169472,-0.0221766 0.000937229,-0.000164198 0.000919507,-0.000244678 0.000894887,-0.000323323 0.000863554,-0.000399542 0.000825745,-0.000472764 0.000781741,-0.00054244 0.000731873,-0.000608048 0.000676516,-0.000669094 0.000616084,-0.000725121 0.000551031,-0.00077571 0.000481844,-0.000820479 0.000409043,-0.000859095 0.000333174,-0.000891266 0.000254806,-0.000916752 0.000174527,-0.000935361 9.29384e-05,-0.000946954 1.06528e-05,-0.000951444 -7.17128e-05,-0.000948798 -0.00015354,-0.000939034 -0.000234216,-0.000922227 -0.000313135,-0.000898502 -0.000389706,-0.000868038 -0.000463353,-0.000831062 -0.000533524,-0.000787853 -0.000599694,-0.000738734 -0.000661365,-0.000684073 -0.000718075,-0.000624282 -0.000769399,-0.000559808 -0.000814952,-0.000491134 -0.000854392,-0.000418777 -0.000887423,-0.000343278 -0.313786,-0.106002 -0.00090313,-0.000262598 -0.000922281,-0.00018439 -0.000934673,-0.000104831 -0.000940214,-2.4503e-05 -0.000938864,5.60043e-05 -0.000930633,0.000136101 -0.000915582,0.000215201 -0.000893821,0.000292723 -0.000865508,0.0003681 -0.000830853,0.000440779 -0.000790108,0.000510227 -0.000743572,0.000575936 -0.000691587,0.000637424 -0.000634533,0.000694241 -0.000572829,0.000745969 -0.000506926,0.00079223 -0.000437308,0.000832685 -0.000364485,0.000867037 -0.000288991,0.000895034 -0.000211378,0.000916472 -0.000132217,0.000931193 -0.0324808,0.32961 -5.2219e-05,0.00095007 3.01835e-05,0.000951025 0.00011236,0.000944847 0.000193693,0.000931581 0.000273573,0.000911327 0.000351402,0.000884238 0.000426594,0.000850516 0.000498587,0.000810414 0.00056684,0.000764234 0.000630841,0.00071232 0.000690109,0.000655064 0.000744202,0.000592894 0.000792712,0.000526277 0.000835276,0.000455712 0.000871575,0.000381729 0.000901336,0.000304883 0.000924336,0.000225749 0.000940403,0.000144923 0.000949416,6.3009e-05 0.000951307,-1.93774e-05 0.000946062,-0.000101618 0.000933721,-0.000183097 0.000914377,-0.000263203 0.000888173,-0.000341334 0.000855307,-0.000416904 0.000816026,-0.000489348 0.000770624,-0.000558121 0.000719441,-0.000622707 0.000662862,-0.000682623 0.00060131,-0.000737418 0.000535249,-0.000786682 0.0875911,-0.141551 0.000537781,-0.000790076 0.000604412,-0.000740348 0.000666469,-0.000685016 0.000723483,-0.000624501 0.000775021,-0.000559259 0.000820694,-0.000489785 0.000860157,-0.000416604 0.000893109,-0.000340271 0.000919303,-0.000261362 0.00093854,-0.000180476 0.000950674,-9.82236e-05 0.000955613,-1.52279e-05 0.000953321,6.7883e-05 0.000943814,0.00015048 0.000927164,0.000231939 0.000903498,0.000311642 0.000872994,0.000388986 0.000835883,0.000463387 0.000792447,0.000534281 0.000743014,0.000601132 0.000687957,0.000663433 0.000627694,0.000720714 0.000562681,0.00077254 0.00049341,0.00081852 0.203373,0.373184 0.000426708,0.000872759 0.000347939,0.000907043 0.00026645,0.000934233 0.000182878,0.000954119 9.78752e-05,0.000966545 1.21073e-05,0.000971412 -7.37552e-05,0.000968684 -0.000159041,0.000958381 -0.000243083,0.000940584 -0.000325225,0.000915433 -0.000404823,0.000883123 -0.000481256,0.000843908 -0.000553926,0.000798094 -0.000622264,0.000746039 -0.000685737,0.000688151 -0.000743848,0.000624883 -0.000796142,0.000556727 -0.000842211,0.000484219 -0.000881695,0.000407924 -0.000914284,0.00032844 -0.000939724,0.000246387 -0.000957816,0.000162408 -0.000968418,7.71592e-05 -0.000971449,-8.69317e-06 -0.000966883,-9.44776e-05 -0.000954756,-0.000179523 -0.171602,-0.0401954 -0.000947571,-0.000178496 -0.000959572,-9.47234e-05 -0.000964182,-1.02208e-05 -0.000961365,7.43606e-05 -0.000951142,0.000158369 -0.000933592,0.000241158 -0.000908851,0.000322089 -0.000877109,0.000400539 -0.000838611,0.000475903 -0.000793652,0.000547602 -0.00074258,0.000615082 -0.000685788,0.000677824 -0.000623714,0.000735345 -0.000556834,0.000787202 -0.000485666,0.000832995 -0.000410756,0.000872371 -0.000332682,0.000905027 -0.000252046,0.000930712 -0.000169468,0.000949227 -8.55846e-05,0.000960431 -1.04191e-06,0.000964236 8.35088e-05,0.000960613 0.000167416,0.000949591 0.000250034,0.000931254 0.000330726,0.000905744 0.00040887,0.000873257 0.142417,0.272364 z "/>
<path fill="rgb(241,240,234)" stroke="rgb(241,240,234)" d="M 3.03153,1.69483 l -0.0830964,-1.59872e-10 -3.19744e-10,-0.0934994 -0.292722,-3.19743e-10 -0.00274243,-0.000119737 -0.00272156,-0.0003583 -0.00267998,-0.000594136 -0.002618,-0.000825451 -0.00253609,-0.00105048 -0.00243488,-0.00126752 -0.00231515,-0.00147491 -0.00217779,-0.00167108 -0.00202386,-0.00185452 -0.00185452,-0.00202386 -0.00167108,-0.00217779 -0.00147491,-0.00231515 -0.00126752,-0.00243488 -0.00105048,-0.00253609 -0.000825451,-0.002618 -0.000594136,-0.00267998 -0.0003583,-0.00272156 -0.000119737,-0.00274243 0.000119737,-0.00274243 0.0003583,-0.00272156 0.000594136,-0.00267998 0.000825451,-0.002618 0.00105048,-0.00253609 0.00126752,-0.00243488 0.00147491,-0.00231515 0.00167108,-0.00217779 0.00185452,-0.00202386 0.00202386,-0.00185452 0.00217779,-0.00167108 0.00231515,-0.00147491 0.00243488,-0.00126752 0.00253609,-0.00105048 0.002618,-0.000825451 0.00267998,-0.000594136 0.00272156,-0.0003583 0.00274243,-0.000119737 0.292722,0 -3.19744e-10,-0.247107 -0.292722,6.39487e-10 -0.00274243,-0.000119737 -0.00272156,-0.0003583 -0.00267998,-0.000594136 -0.002618,-0.000825451 -0.00253609,-0.00105048 -0.00243488,-0.00126752 -0.00231515,-0.00147491 -0.00217779,-0.00167108 -0.00202386,-0.00185452 -0.00185452,-0.00202386 -0.00167108,-0.00217779 -0.00147491,-0.00231515 -0.00126752,-0.00243488 -0.00105048,-0.00253609 -0.000825451,-0.002618 -0.000594136,-0.00267998 -0.0003583,-0.00272156 -0.000119737,-0.00274243 0.000119737,-0.00274243 0.0003583,-0.00272156 0.000594136,-0.00267998 0.000825451,-0.002618 0.00105048,-0.00253609 0.00126752,-0.00243488 0.00147491,-0.00231515 0.00167108,-0.00217779 0.00185452,-0.00202386 0.00202386,-0.00185452 0.00217779,-0.00167108 0.00231515,-0.00147491 0.00243488,-0.00126752 0.00253609,-0.00105048 0.002618,-0.000825451 0.00267998,-0.000594136 0.00272156,-0.0003583 0.00274243,-0.000119737 0.292722,0 -3.19744e-10,-0.0934994 0.0830964,0 9.59229e-10,0.559969 z "/>
<path fill="rgb(241,240,234)" stroke="rgb(241,240,234)" d="M 3.43072,1.37323 l 0.092805,-1.59872e-10 0.0157217,-0.00181085 0.0155069,-0.00316005 0.0151766,-0.00448569 0.0147332,-0.00577791 0.01418,-0.00702708 0.0135211,-0.00822387 0.0127614,-0.00935937 0.0119066,-0.0104251 0.0109631,-0.0114132 0.00993793,-0.0123162 0.00883866,-0.0131274 0.00767353,-0.0138408 0.00645121,-0.0144511 0.00518082,-0.0149536 0.00387181,-0.0153447 0.00253395,-0.0156215 0.00117721,-0.0157818 -0.000188309,-0.0158245 -0.00155242,-0.0157493 -3.19744e-10,-0.52928 0.0832325,0 3.19744e-10,0.523937 0.00169788,0.02278 -0.00025877,0.0228417 -0.00221352,0.0227357 -0.00415201,0.0224627 -0.00606,0.0220247 -0.0079235,0.021425 -0.0097288,0.0206679 -0.0114626,0.019759 -0.0131123,0.0187051 -0.0146657,0.0175137 -0.0161113,0.0161937 -0.0174387,0.0147548 -0.0186379,0.0132075 -0.0197003,0.0115633 -0.020618,0.00983407 -0.0213843,0.00803266 -0.0219935,0.00617225 -0.0224412,0.00426651 -0.0227241,0.00232944 -0.0955037,3.19743e-10 0,0.111005 -0.350309,0.127363 -3.19744e-10,-0.559969 0.350309,0.127363 3.19744e-10,0.111005 z "/>
<path fill="rgb(241,240,234)" stroke="rgb(241,240,234)" d="M 2.25482,2.20858 l 0.071579,-1.19722e-11 0.00962817,0.00042271 0.00955408,0.00126488 0.00940647,0.00209731 0.00918647,0.0029136 0.00889578,0.00370748 0.00853664,0.00447282 0.00811181,0.00520374 0.00762455,0.00589462 0.00707862,0.00654014 0.00647822,0.00713534 0.00582797,0.00767562 0.00513287,0.00815684 0.00439827,0.00857529 0.00362983,0.00892775 0.00283345,0.00921151 0.00201527,0.00942439 0.00118158,0.00956474 0.000338804,0.00963149 -0.00586017,0.672554 -0.000496391,0.00951825 -0.0013195,0.00943941 -0.00213268,0.00928952 -0.00292981,0.00906971 -0.00370489,0.00878164 -0.00445209,0.00842748 -0.00516577,0.00800989 -0.00584058,0.00753201 -0.00647142,0.00699744 -0.00705356,0.00641021 -0.00758261,0.00577473 -0.00805459,0.00509578 -0.00846595,0.00437849 -0.00881359,0.00362824 -0.0090949,0.00285068 -0.00930775,0.00205166 -0.00945055,0.00123721 -0.00952221,0.00041344 -0.0657188,1.09917e-11 0,-0.122453 0.00503019,-9.65006e-13 0.00419206,-0.000180996 0.00416086,-0.000541642 0.00409869,-0.000898256 0.00400602,-0.00124819 0.00388353,-0.00158882 0.00373213,-0.00191764 0.00355296,-0.00223218 0.00334734,-0.00253011 0.00311681,-0.0028092 0.00286309,-0.00306739 0.00258805,-0.00330275 0.00229375,-0.00351352 0.00198238,-0.00369815 0.00165625,-0.00385525 0.0013178,-0.00398366 0.000969541,-0.00408242 0.000614064,-0.00415079 0.000254017,-0.00418827 0.00479321,-0.550102 -0.000114493,-0.00428852 -0.000491953,-0.00426175 -0.000865585,-0.00420182 -0.00123248,-0.0041092 -0.00158979,-0.00398461 -0.00193473,-0.00382902 -0.00226462,-0.00364363 -0.00257689,-0.0034299 -0.0028691,-0.00318948 -0.003139,-0.00292425 -0.00338447,-0.00263626 -0.00360362,-0.00232777 -0.00379472,-0.00200116 -0.0039563,-0.00165898 -0.0040871,-0.0013039 -0.0041861,-0.000938671 -0.00425253,-0.00056614 -0.00428588,-0.000189204 -0.0098234,3.76899e-12 0,-0.122453 z "/>
<path fill="rgb(241,240,234)" stroke="rgb(241,240,234)" d="M 2.25482,2.97841 l 0,0.122453 -0.890137,1.4888e-10 -0.00962817,-0.00042271 -0.00955408,-0.00126488 -0.00940647,-0.00209731 -0.00918647,-0.0029136 -0.00889578,-0.00370748 -0.00853664,-0.00447282 -0.00811181,-0.00520374 -0.00762455,-0.00589462 -0.00707862,-0.00654014 -0.00647822,-0.00713534 -0.00582797,-0.00767562 -0.00513287,-0.00815684 -0.00439827,-0.00857529 -0.00362983,-0.00892775 -0.00283345,-0.00921151 -0.00201527,-0.00942439 -0.00118158,-0.00956474 -0.000338804,-0.00963149 0.00586017,-0.672554 0.000496391,-0.00951825 0.0013195,-0.00943941 0.00213268,-0.00928952 0.00292981,-0.00906971 0.00370489,-0.00878164 0.00445209,-0.00842748 0.00516577,-0.00800989 0.00584058,-0.00753201 0.00647142,-0.00699744 0.00705356,-0.00641021 0.00758261,-0.00577473 0.00805459,-0.00509578 0.00846595,-0.00437849 0.00881359,-0.00362824 0.0090949,-0.00285068 0.00930775,-0.00205166 0.00945055,-0.00123721 0.00952221,-0.00041344 0.884277,-1.479e-10 0,0.122453 -0.823588,3.15975e-10 -0.00419206,0.000180996 -0.00416086,0.000541642 -0.00409869,0.000898256 -0.00400602,0.00124819 -0.00388353,0.00158882 -0.00373213,0.00191764 -0.00355296,0.00223218 -0.00334734,0.00253011 -0.00311681,0.0028092 -0.00286309,0.00306739 -0.00258805,0.00330275 -0.00229375,0.00351352 -0.00198238,0.00369815 -0.00165625,0.00385525 -0.0013178,0.00398366 -0.000969541,0.00408242 -0.000614064,0.00415079 -0.000254017,0.00418827 -0.00479321,0.550102 0.000114493,0.00428852 0.000491952,0.00426175 0.000865585,0.00420182 0.00123248,0.0041092 0.00158979,0.00398461 0.00193473,0.00382902 0.00226462,0.00364363 0.00257689,0.0034299 0.0028691,0.00318948 0.003139,0.00292425 0.00338447,0.00263626 0.00360362,0.00232777 0.00379472,0.00200116 0.0039563,0.00165898 0.0040871,0.0013039 0.0041861,0.000938671 0.00425253,0.00056614 0.00428588,0.000189204 0.828381,-1.58907e-10 z "/>
<path fill="rgb(0,91,140)" stroke="rgb(0,91,140)" d="M 2.4,3.4 l 1,0 0,1 -1,0 0,-1 z "/>
<path fill="rgb(0,91,140)" stroke="rgb(0,91,140)" d="M 2.4,4.4 l 1,0 0,1 -1,0 0,-1 z "/>
<path fill="rgb(0,91,140)" stroke="rgb(0,91,140)" d="M 2.4,5.4 l 1,0 0,1 -1,0 0,-1 z "/>
<path fill="rgb(0,91,140)" stroke="rgb(0,91,140)" d="M 2.4,7.1 l 0,-0.7 1,0 0,0.7 -1,0 z "/>
<path fill="rgb(0,91,140)" stroke="rgb(0,91,140)" d="M 3.8,0.4 l 0.0261467,0.00114159 0.0259477,0.00341608 0.0255513,0.00566458 0.0249603,0.00786996 0.0241794,0.0100155 0.0232145,0.0120847 0.0220729,0.014062 0.0207634,0.0159323 0.0192958,0.0176813 0.0176813,0.0192958 0.0159323,0.0207634 0.014062,0.0220729 0.0120847,0.0232145 0.0100155,0.0241794 0.00786996,0.0249603 0.00566458,0.0255513 0.00341608,0.0259477 0.00114159,0.0261467 0,0.7 -0.425032,0 0.0161916,-0.0136996 0.0161113,-0.0161937 0.0146657,-0.0175137 0.0131123,-0.0187051 0.0114626,-0.019759 0.0097288,-0.0206679 0.0079235,-0.021425 0.00606,-0.0220247 0.00415201,-0.0224627 0.00221352,-0.0227357 0.00025877,-0.0228417 -0.00169788,-0.02278 -3.19744e-10,-0.523937 -0.0832325,0 3.19744e-10,0.52928 0.00155242,0.0157493 0.000188309,0.0158245 -0.00117721,0.0157818 -0.00253395,0.0156215 -0.00387181,0.0153447 -0.00518082,0.0149536 -0.00645121,0.0144511 -0.00767353,0.0138408 -0.00883866,0.0131274 -0.00993793,0.0123162 -0.0109631,0.0114132 -0.0119066,0.0104251 -0.0127614,0.00935937 -0.0135211,0.00822387 -0.01418,0.00702708 -0.0147332,0.00577791 -0.0151766,0.00448569 -0.0155069,0.00316005 -0.0157217,0.00181085 -0.092805,1.59872e-10 -3.19744e-10,-0.111005 -0.0307173,-0.011168 0,-0.851055 0.4,0 z "/>
<path fill="rgb(0,91,140)" stroke="rgb(0,91,140)" d="M 4.1,1.4 l 0,1 -0.7,0 0,-0.821366 0.0307173,-0.011168 0,-0.111005 0.0955037,-3.19743e-10 0.0227241,-0.00232944 0.0224412,-0.00426651 0.0219935,-0.00617225 0.0213843,-0.00803266 0.020618,-0.00983407 0.0197003,-0.0115633 0.0186379,-0.0132075 0.00124711,-0.00105518 0.425032,0 z "/>
<path fill="rgb(0,91,140)" stroke="rgb(0,91,140)" d="M 4.1,3.4 l 0,1 -0.7,0 0,-1 0.7,0 z "/>
<path fill="rgb(0,91,140)" stroke="rgb(0,91,140)" d="M 4.1,2.4 l 0,1 -0.7,0 0,-1 0.7,0 z "/>
<path fill="rgb(0,91,140)" stroke="rgb(0,91,140)" d="M 4.1,4.4 l 0,1 -0.7,0 0,-1 0.7,0 z "/>
<path fill="rgb(0,91,140)" stroke="rgb(0,91,140)" d="M 4.1,5.4 l 0,1 -0.7,0 0,-1 0.7,0 z "/>
<path fill="rgb(0,91,140)" stroke="rgb(0,91,140)" d="M 3.4,6.4 l 0.7,0 0,0.4 -0.00114159,0.0261467 -0.00341608,0.0259477 -0.00566458,0.0255513 -0.00786996,0.0249603 -0.0100155,0.0241794 -0.0120847,0.0232145 -0.014062,0.0220729 -0.0159323,0.0207634 -0.0176813,0.0192958 -0.0192958,0.0176813 -0.0207634,0.0159323 -0.0220729,0.014062 -0.0232145,0.0120847 -0.0241794,0.0100155 -0.0249603,0.00786996 -0.0255513,0.00566458 -0.0259477,0.00341608 -0.0261467,0.00114159 -0.4,0 0,-0.7 z "/>
<path fill="rgb(0,91,140)" stroke="rgb(0,91,140)" d="M 0.4,3.4 l 1,0 0,1 -1,0 0,-1 z "/>
<path fill="rgb(0,91,140)" stroke="rgb(0,91,140)" d="M 0.4,4.4 l 1,0 0,1 -1,0 0,-1 z "/>
<path fill="rgb(0,91,140)" stroke="rgb(0,91,140)" d="M 0.4,6.4 l 1,0 0,0.7 -0.7,0 -0.0261467,-0.00114159 -0.0259477,-0.00341608 -0.0255513,-0.00566458 -0.0249603,-0.00786996 -0.0241794,-0.0100155 -0.0232145,-0.0120847 -0.0220729,-0.014062 -0.0207634,-0.0159323 -0.0192958,-0.0176813 -0.0176813,-0.0192958 -0.0159323,-0.0207634 -0.014062,-0.0220729 -0.0120847,-0.0232145 -0.0100155,-0.0241794 -0.00786996,-0.0249603 -0.00566458,-0.0255513 -0.00341608,-0.0259477 -0.00114159,-0.0261467 -4.44089e-16,-0.4 z "/>
<path fill="rgb(0,91,140)" stroke="rgb(0,91,140)" d="M 2.4,0.4 l 0,0.220386 -1,0 0,-0.220386 0.618515,4.44089e-16 0.231485,0 0.15,-4.44089e-16 z "/>
<path fill="rgb(0,91,140)" stroke="rgb(0,91,140)" d="M 2.4,2.05123 l 0,0.185789 -0.0026597,-0.00245737 -0.00762455,-0.00589462 -0.00811181,-0.00520374 -0.00853664,-0.00447282 -0.00889578,-0.00370748 -0.00918647,-0.0029136 -0.00940647,-0.00209731 -0.00955408,-0.00126488 -0.00962817,-0.00042271 -0.926396,1.54945e-10 0,-0.157355 1,-2.85941e-10 z "/>
<path fill="rgb(0,91,140)" stroke="rgb(0,91,140)" d="M 2.4,3.06673 l 0,0.333266 -1,0 0,-0.299135 0.920536,-1.53964e-10 0.00952221,-0.00041344 0.00945055,-0.00123721 0.00930775,-0.00205166 0.0090949,-0.00285068 0.00881359,-0.00362824 0.00846595,-0.00437849 0.00805459,-0.00509578 0.00758261,-0.00577473 0.00705356,-0.00641021 0.00211813,-0.00229029 z "/>
<path fill="rgb(0,91,140)" stroke="rgb(0,91,140)" d="M 0.4,5.4 l 1,0 0,1 -1,0 0,-1 z "/>
<path fill="rgb(0,91,140)" stroke="rgb(0,91,140)" d="M 1.4,3.4 l 1,0 0,1 -1,0 0,-1 z "/>
<path fill="rgb(0,91,140)" stroke="rgb(0,91,140)" d="M 1.4,4.4 l 1,0 0,1 -1,0 0,-1 z "/>
<path fill="rgb(0,91,140)" stroke="rgb(0,91,140)" d="M 1.4,5.4 l 1,0 0,1 -1,0 0,-1 z "/>
<path fill="rgb(0,91,140)" stroke="rgb(0,91,140)" d="M 1.4,6.4 l 1,0 0,0.7 -0.15,0 -0.85,0 0,-0.7 z "/>
<path fill="rgb(0,91,140)" stroke="rgb(0,91,140)" d="M 2.94843,1.4 l -0.520043,0 -1.74788e-10,-0.752148 -0.000104516,-0.0023938 -0.000312751,-0.00237558 -0.000518606,-0.00233928 -0.000720515,-0.00228518 -0.00091694,-0.00221369 -0.00110639,-0.00212535 -0.00128741,-0.00202083 -0.00145864,-0.00190094 -0.00161877,-0.00176657 -0.00176657,-0.00161877 -0.00190094,-0.00145864 -0.00202083,-0.00128741 -0.00212535,-0.00110639 -0.00221369,-0.00091694 -0.00228518,-0.000720515 -0.00233928,-0.000518606 -0.00237558,-0.000312751 -0.0023938,-0.000104516 -0.000922763,0 0,-0.220386 0.121711,8.88178e-16 0.878289,-8.88178e-16 0,0.851055 -0.319592,-0.116195 1.51396e-10,0.26514 -0.0488798,0 -4.54186e-10,-0.26514 -0.0830964,0 3.19744e-10,0.0934994 -0.292722,0 -0.00274243,0.000119737 -0.00272156,0.0003583 -0.00267998,0.000594136 -0.002618,0.000825451 -0.00253609,0.00105048 -0.00243488,0.00126752 -0.00231515,0.00147491 -0.00217779,0.00167108 -0.00202386,0.00185452 -0.00185452,0.00202386 -0.00167108,0.00217779 -0.00147491,0.00231515 -0.00126752,0.00243488 -0.00105048,0.00253609 -0.000825451,0.002618 -0.000594136,0.00267998 -0.0003583,0.00272156 -0.000119737,0.00274243 0.000119737,0.00274243 0.0003583,0.00272156 0.000594136,0.00267998 0.000825451,0.002618 0.00105048,0.00253609 0.00126752,0.00243488 0.00147491,0.00231515 0.00167108,0.00217779 0.00185452,0.00202386 0.00202386,0.00185452 0.00217779,0.00167108 0.00231515,0.00147491 0.00243488,0.00126752 0.00253609,0.00105048 0.002618,0.000825451 0.00267998,0.000594136 0.00272156,0.0003583 0.00274243,0.000119737 0.292722,-6.39487e-10 1.40664e-10,0.108709 z "/>
<path fill="rgb(0,91,140)" stroke="rgb(0,91,140)" d="M 1.25524,1.4 l -0.855245,0 0,-0.7 0.00114159,-0.0261467 0.00341608,-0.0259477 0.00566458,-0.0255513 0.00786996,-0.0249603 0.0100155,-0.0241794 0.0120847,-0.0232145 0.014062,-0.0220729 0.0159323,-0.0207634 0.0176813,-0.0192958 0.0192958,-0.0176813 0.0207634,-0.0159323 0.0220729,-0.014062 0.0232145,-0.0120847 0.0241794,-0.0100155 0.0249603,-0.00786996 0.0255513,-0.00566458 0.0259477,-0.00341608 0.0261467,-0.00114159 0.7,-8.88178e-16 0,0.220386 -0.117289,0 -0.0023938,0.000104516 -0.00237558,0.000312751 -0.00233928,0.000518606 -0.00228518,0.000720515 -0.00221369,0.00091694 -0.00212535,0.00110639 -0.00202083,0.00128741 -0.00190094,0.00145864 -0.00176657,0.00161877 -0.00161877,0.00176657 -0.00145864,0.00190094 -0.00128741,0.00202083 -0.00110639,0.00212535 -0.00091694,0.00221369 -0.000720515,0.00228518 -0.000518606,0.00233928 -0.000312751,0.00237558 -0.000104516,0.0023938 1.7479e-10,0.752148 z "/>
<path fill="rgb(0,91,140)" stroke="rgb(0,91,140)" d="M 1.25996,2.4 l -0.859963,0 0,-1 0.855245,0 1.44955e-10,0.623764 0.000104516,0.0023938 0.000312751,0.00237558 0.000518606,0.00233928 0.000720515,0.00228518 0.00091694,0.00221369 0.00110639,0.00212535 0.00128741,0.00202083 0.00145864,0.00190094 0.00161877,0.00176657 0.00176657,0.00161877 0.00190094,0.00145864 0.00202083,0.00128741 0.00212535,0.00110639 0.00221369,0.00091694 0.00228518,0.000720515 0.00233928,0.000518606 0.00237558,0.000312751 0.0023938,0.000104515 0.117289,-3.35381e-11 0,0.157355 -0.0294595,4.92717e-12 -0.00952221,0.00041344 -0.00945055,0.00123721 -0.00930775,0.00205166 -0.0090949,0.00285068 -0.00881359,0.00362824 -0.00846595,0.00437849 -0.00805459,0.00509578 -0.00758261,0.00577473 -0.00705356,0.00641021 -0.00647142,0.00699744 -0.00584058,0.00753201 -0.00516577,0.00800989 -0.00445209,0.00842748 -0.00370489,0.00878164 -0.00292981,0.00906971 -0.00213268,0.00928952 -0.0013195,0.00943941 -0.000496391,0.00951825 -0.000718932,0.0825097 z "/>
<path fill="rgb(0,91,140)" stroke="rgb(0,91,140)" d="M 1.25996,2.4 l -0.00514124,0.590045 0.000338804,0.00963149 0.00118158,0.00956474 0.00201527,0.00942439 0.00283345,0.00921151 0.00362983,0.00892775 0.00439827,0.00857529 0.00513287,0.00815684 0.00582797,0.00767562 0.00647822,0.00713534 0.00707862,0.00654014 0.00762455,0.00589462 0.00811181,0.00520374 0.00853664,0.00447282 0.00889578,0.00370748 0.00918647,0.0029136 0.00940647,0.00209731 0.00955408,0.00126488 0.00962817,0.00042271 0.0353196,-5.90727e-12 0,0.299135 -1,0 0,-1 0.859963,0 z "/>
<path fill="rgb(0,91,140)" stroke="rgb(0,91,140)" d="M 2.4,2.23702 l 0,-0.185789 0.000922763,-2.63789e-13 0.0023938,-0.000104516 0.00237558,-0.000312751 0.00233928,-0.000518606 0.00228518,-0.000720515 0.00221369,-0.00091694 0.00212535,-0.00110639 0.00202083,-0.00128741 0.00190094,-0.00145864 0.00176657,-0.00161877 0.00161877,-0.00176657 0.00145864,-0.00190094 0.00128741,-0.00202083 0.00110639,-0.00212535 0.00091694,-0.00221369 0.000720515,-0.00228518 0.000518606,-0.00233928 0.000312751,-0.00237558 0.000104516,-0.0023938 -1.44953e-10,-0.623764 0.520043,0 1.7908e-10,0.138398 -0.292722,0 -0.00274243,0.000119737 -0.00272156,0.0003583 -0.00267998,0.000594136 -0.002618,0.000825451 -0.00253609,0.00105048 -0.00243488,0.00126752 -0.00231515,0.00147491 -0.00217779,0.00167108 -0.00202386,0.00185452 -0.00185452,0.00202386 -0.00167108,0.00217779 -0.00147491,0.00231515 -0.00126752,0.00243488 -0.00105048,0.00253609 -0.000825451,0.002618 -0.000594136,0.00267998 -0.0003583,0.00272156 -0.000119737,0.00274243 0.000119737,0.00274243 0.0003583,0.00272156 0.000594136,0.00267998 0.000825451,0.002618 0.00105048,0.00253609 0.00126752,0.00243488 0.00147491,0.00231515 0.00167108,0.00217779 0.00185452,0.00202386 0.00202386,0.00185452 0.00217779,0.00167108 0.00231515,0.00147491 0.00243488,0.00126752 0.00253609,0.00105048 0.002618,0.000825451 0.00267998,0.000594136 0.00272156,0.0003583 0.00274243,0.000119737 0.292722,3.19743e-10 3.19744e-10,0.0934994 0.0830964,1.59872e-10 -5.05044e-10,-0.294829 0.0488798,0 1.68348e-10,0.294829 0.319592,-0.116195 0,0.821366 -0.964447,0 0.000702251,-0.0805952 -0.000338804,-0.00963149 -0.00118158,-0.00956474 -0.00201527,-0.00942439 -0.00283345,-0.00921151 -0.00362983,-0.00892775 -0.00439827,-0.00857529 -0.00513287,-0.00815684 -0.00582797,-0.00767562 -0.00647822,-0.00713534 -0.00441892,-0.00408277 z "/>
<path fill="rgb(0,91,140)" stroke="rgb(0,91,140)" d="M 1.3826,2.37883 l 0.000254017,-0.00418827 0.000614064,-0.00415079 0.000969541,-0.00408242 0.0013178,-0.00398366 0.00165625,-0.00385525 0.00198238,-0.00369815 0.00229375,-0.00351352 0.00258805,-0.00330275 0.00286309,-0.00306739 0.00311681,-0.0028092 0.00334734,-0.00253011 0.00355296,-0.00223218 0.00373213,-0.00191764 0.00388353,-0.00158882 0.00400602,-0.00124819 0.00409869,-0.000898256 0.00416086,-0.000541642 0.00419206,-0.000180996 0.833412,-3.19744e-10 0.00428588,0.000189204 0.00425253,0.00056614 0.0041861,0.000938671 0.0040871,0.0013039 0.0039563,0.00165898 0.00379472,0.00200116 0.00360362,0.00232777 0.00338447,0.00263626 0.003139,0.00292425 0.0028691,0.00318948 0.00257689,0.0034299 0.00226462,0.00364363 0.00193473,0.00382902 0.00158979,0.00398461 0.00123248,0.0041092 0.000865585,0.00420182 0.000491953,0.00426175 0.000114493,0.00428852 -0.00479321,0.550102 -0.000254017,0.00418827 -0.000614064,0.00415079 -0.000969541,0.00408242 -0.0013178,0.00398366 -0.00165625,0.00385525 -0.00198238,0.00369815 -0.00229375,0.00351352 -0.00258805,0.00330275 -0.00286309,0.00306739 -0.00311681,0.0028092 -0.00334734,0.00253011 -0.00355296,0.00223218 -0.00373213,0.00191764 -0.00388353,0.00158882 -0.00400602,0.00124819 -0.00409869,0.000898256 -0.00416086,0.000541642 -0.00419206,0.000180996 -0.833412,1.59872e-10 -0.00428588,-0.000189204 -0.00425253,-0.00056614 -0.0041861,-0.000938671 -0.0040871,-0.0013039 -0.0039563,-0.00165898 -0.00379472,-0.00200116 -0.00360362,-0.00232777 -0.00338447,-0.00263626 -0.003139,-0.00292425 -0.0028691,-0.00318948 -0.00257689,-0.0034299 -0.00226462,-0.00364363 -0.00193473,-0.00382902 -0.00158979,-0.00398461 -0.00123248,-0.0041092 -0.000865585,-0.00420182 -0.000491952,-0.00426175 -0.000114493,-0.00428852 0.00479321,-0.550102 z "/>
<path fill="rgb(0,91,140)" stroke="rgb(0,91,140)" d="M 2.4,3.06673 l 0.0043533,-0.00470715 0.00584058,-0.00753201 0.00516577,-0.00800989 0.00445209,-0.00842748 0.00370489,-0.00878164 0.00292981,-0.00906971 0.00213268,-0.00928952 0.0013195,-0.00943941 0.000496391,-0.00951825 0.00515792,-0.591959 0.964447,0 0,1 -1,0 0,-0.333266 z "/>
<path fill="rgb(0,91,140)" stroke="rgb(0,91,140)" d="M 1.8941,1.95743 l -0.318655,-0.609408 -0.00040887,-0.000873257 -0.000330726,-0.000905744 -0.000250034,-0.000931254 -0.000167416,-0.000949591 -8.35088e-05,-0.000960613 1.04191e-06,-0.000964236 8.55846e-05,-0.000960431 0.000169468,-0.000949227 0.000252046,-0.000930712 0.000332682,-0.000905027 0.000410756,-0.000872371 0.000485666,-0.000832995 0.000556834,-0.000787202 0.000623714,-0.000735345 0.000685788,-0.000677824 0.00074258,-0.000615082 0.000793652,-0.000547602 0.000838611,-0.000475903 0.000877109,-0.000400539 0.000908851,-0.000322089 0.000933592,-0.000241158 0.000951142,-0.000158369 0.000961365,-7.43606e-05 0.000964182,1.02208e-05 0.000959572,9.47234e-05 0.000947571,0.000178496 0.171602,0.0401954 0.000954756,0.000179523 0.000966883,9.44776e-05 0.000971449,8.69317e-06 0.000968418,-7.71592e-05 0.000957816,-0.000162408 0.000939724,-0.000246387 0.000914284,-0.00032844 0.000881695,-0.000407924 0.000842211,-0.000484219 0.000796142,-0.000556727 0.000743848,-0.000624883 0.000685737,-0.000688151 0.000622264,-0.000746039 0.000553926,-0.000798094 0.000481256,-0.000843908 0.000404823,-0.000883123 0.000325225,-0.000915433 0.000243083,-0.000940584 0.000159041,-0.000958381 7.37552e-05,-0.000968684 -1.21073e-05,-0.000971412 -9.78752e-05,-0.000966545 -0.000182878,-0.000954119 -0.00026645,-0.000934233 -0.000347939,-0.000907043 -0.000426708,-0.000872759 -0.203373,-0.373184 -0.00049341,-0.00081852 -0.000562681,-0.00077254 -0.000627694,-0.000720714 -0.000687957,-0.000663433 -0.000743014,-0.000601132 -0.000792447,-0.000534281 -0.000835883,-0.000463387 -0.000872994,-0.000388986 -0.000903498,-0.000311642 -0.000927164,-0.000231939 -0.000943814,-0.00015048 -0.000953321,-6.7883e-05 -0.000955613,1.52279e-05 -0.000950674,9.82236e-05 -0.00093854,0.000180476 -0.000919303,0.000261362 -0.000893109,0.000340271 -0.000860157,0.000416604 -0.000820694,0.000489785 -0.000775021,0.000559259 -0.000723483,0.000624501 -0.000666469,0.000685016 -0.000604412,0.000740348 -0.000537781,0.000790076 -0.0875911,0.141551 -0.000535249,0.000786682 -0.00060131,0.000737418 -0.000662862,0.000682623 -0.000719441,0.000622707 -0.000770624,0.000558121 -0.000816026,0.000489348 -0.000855307,0.000416904 -0.000888173,0.000341334 -0.000914377,0.000263203 -0.000933721,0.000183097 -0.000946062,0.000101618 -0.000951307,1.93774e-05 -0.000949416,-6.3009e-05 -0.000940403,-0.000144923 -0.000924336,-0.000225749 -0.000901336,-0.000304883 -0.000871575,-0.000381729 -0.000835276,-0.000455712 -0.000792712,-0.000526277 -0.000744202,-0.000592894 -0.000690109,-0.000655064 -0.000630841,-0.00071232 -0.00056684,-0.000764234 -0.000498587,-0.000810414 -0.000426594,-0.000850516 -0.000351402,-0.000884238 -0.000273573,-0.000911327 -0.000193693,-0.000931581 -0.00011236,-0.000944847 -3.01835e-05,-0.000951025 5.2219e-05,-0.00095007 0.0324808,-0.32961 0.000132217,-0.000931193 0.000211378,-0.000916472 0.000288991,-0.000895034 0.000364485,-0.000867037 0.000437308,-0.000832685 0.000506926,-0.00079223 0.000572829,-0.000745969 0.000634533,-0.000694241 0.000691587,-0.000637424 0.000743572,-0.000575936 0.000790108,-0.000510227 0.000830853,-0.000440779 0.000865508,-0.0003681 0.000893821,-0.000292723 0.000915582,-0.000215201 0.000930633,-0.000136101 0.000938864,-5.60043e-05 0.000940214,2.4503e-05 0.000934673,0.000104831 0.000922281,0.00018439 0.00090313,0.000262598 0.313786,0.106002 0.000887423,0.000343278 0.000854392,0.000418777 0.000814952,0.000491134 0.000769399,0.000559808 0.000718075,0.000624282 0.000661365,0.000684073 0.000599694,0.000738734 0.000533524,0.000787853 0.000463353,0.000831062 0.000389706,0.000868038 0.000313135,0.000898502 0.000234216,0.000922227 0.00015354,0.000939034 7.17128e-05,0.000948798 -1.06528e-05,0.000951444 -9.29384e-05,0.000946954 -0.000174527,0.000935361 -0.000254806,0.000916752 -0.000333174,0.000891266 -0.000409043,0.000859095 -0.000481844,0.000820479 -0.000551031,0.00077571 -0.000616084,0.000725121 -0.000676516,0.000669094 -0.000731873,0.000608048 -0.000781741,0.00054244 -0.000825745,0.000472764 -0.000863554,0.000399542 -0.000894887,0.000323323 -0.000919507,0.000244678 -0.000937229,0.000164198 -0.169472,0.0221766 -0.00095957,0.000169143 -0.00094081,0.000253497 -0.00091465,0.000335857 -0.000881295,0.000415576 -0.000841008,0.000492026 -0.000794106,0.000564605 -0.000740958,0.000632744 -0.000681982,0.000695906 -0.000617641,0.000753594 -0.000548443,0.000805354 -0.00047493,0.000850779 -0.000397682,0.000889513 -0.000317305,0.00092125 -0.000234433,0.000945741 -0.000149717,0.000962792 -6.3823e-05,0.000972271 2.25728e-05,0.000974102 0.000108791,0.000968271 0.000194154,0.000954824 0.000277989,0.000933866 0.000359638,0.000905563 0.000438458,0.000870137 0.000513829,0.000827867 0.000585159,0.000779085 0.517712,0.629125 0.000567289,0.000753036 0.000500637,0.000798901 0.000430298,0.000838883 0.00035679,0.000872686 0.000280654,0.000900063 0.000202452,0.000920811 0.000122758,0.000934778 4.2161e-05,0.000941861 -3.87469e-05,0.000942008 -0.000119369,0.000935217 -0.000199113,0.000921539 -0.00027739,0.000901074 -0.000353624,0.000873974 -0.000427254,0.000840437 -0.000497738,0.00080071 -0.000564556,0.000755087 -0.000627216,0.000703903 -0.000685258,0.000647536 -0.000738252,0.000586399 -0.00078581,0.000520944 -0.000827581,0.000451653 -0.000863257,0.000379035 -0.000892576,0.000303626 -0.000915321,0.000225981 -0.000931326,0.000146672 -0.000940472,6.6282e-05 -0.000942692,-1.45955e-05 -0.000937969,-9.53657e-05 -0.000926339,-0.000175433 -0.2398,-0.05617 -0.000957023,-0.000179846 -0.000969189,-9.43971e-05 -0.00097374,-8.20628e-06 -0.000970642,7.8049e-05 -0.000959918,0.000163691 -0.000941653,0.000248047 -0.00091599,0.000330455 -0.000883131,0.000410266 -0.000843333,0.000486854 -0.00079691,0.000559617 -0.000744227,0.000627984 -0.000685697,0.000691417 -0.000621779,0.000749419 -0.000552977,0.000801532 -0.000479831,0.000847349 -0.000402915,0.000886509 -0.000322833,0.000918704 -0.000240215,0.000943681 -0.00015571,0.000961245 -6.99821e-05,0.000971257 1.62959e-05,0.000973639 0.000102446,0.000968371 0.000187791,0.000955496 0.000271661,0.000935114 0.000353397,0.000907386 0.000432356,0.000872529 0.000507918,0.000830817 0.000579491,0.000782578 0.317534,0.391289 0.000567012,0.000764104 0.00049877,0.0008103 0.000426787,0.000850418 0.000351602,0.000884157 0.00027378,0.000911264 0.000193904,0.000931536 0.000112574,0.00094482 3.03998e-05,0.000951017 -5.20027e-05,0.000950081 -0.000134015,0.000942018 -0.000215022,0.000926889 -0.000294417,0.000904807 -0.000371603,0.000875939 -0.000446001,0.0008405 -0.000517054,0.000798757 -0.000584229,0.000751022 -0.000647021,0.000697654 -0.000704961,0.000639053 -0.000757612,0.000575658 -0.00080458,0.000507945 -0.000845514,0.000436422 -0.000880105,0.000361626 -0.000908094,0.000284117 -0.000929272,0.000204477 -0.00094348,0.000123303 -0.00095061,4.12039e-05 -0.284362,0 -0.000995641,-4.52084e-05 -0.000987447,-0.000135253 -0.000971127,-0.000224185 -0.000946814,-0.000311271 -0.000914708,-0.000395796 -0.000875075,-0.000477063 -0.00082824,-0.000554404 -0.000774588,-0.000627183 -0.000714562,-0.0006948 -0.000648655,-0.000756698 -0.00057741,-0.000812369 -0.000501412,-0.000861355 z "/>
<path fill="rgb(0,91,140)" stroke="rgb(0,91,140)" d="M 3.8,7.5 l -1.55,0 -4.44089e-16,-0.2 1.55,0 0.0435779,-0.00190265 0.0432462,-0.00569347 0.0425854,-0.00944096 0.0416005,-0.0131166 0.0402991,-0.0166924 0.0386909,-0.0201412 0.0367882,-0.0234367 0.0346056,-0.0265538 0.0321596,-0.0294688 0.0294688,-0.0321596 0.0265538,-0.0346056 0.0234367,-0.0367882 0.0201412,-0.0386909 0.0166924,-0.0402991 0.0131166,-0.0416005 0.00944096,-0.0425854 0.00569347,-0.0432462 0.00190265,-0.0435779 0,-6.1 -0.00190265,-0.0435779 -0.00569347,-0.0432462 -0.00944096,-0.0425854 -0.0131166,-0.0416005 -0.0166924,-0.0402991 -0.0201412,-0.0386909 -0.0234367,-0.0367882 -0.0265538,-0.0346056 -0.0294688,-0.0321596 -0.0321596,-0.0294688 -0.0346056,-0.0265538 -0.0367882,-0.0234367 -0.0386909,-0.0201412 -0.0402991,-0.0166924 -0.0416005,-0.0131166 -0.0425854,-0.00944096 -0.0432462,-0.00569347 -0.0435779,-0.00190265 -1.55,4.44089e-16 0,-0.2 1.55,-4.44089e-16 0.061009,0.00266371 0.0605447,0.00797086 0.0596196,0.0132173 0.0582408,0.0183632 0.0564187,0.0233694 0.0541672,0.0281977 0.0515035,0.0328114 0.0484478,0.0371753 0.0450234,0.0412564 0.0412564,0.0450234 0.0371753,0.0484478 0.0328114,0.0515035 0.0281977,0.0541672 0.0233694,0.0564187 0.0183632,0.0582408 0.0132173,0.0596196 0.00797086,0.0605447 0.00266371,0.061009 8.88178e-16,6.1 -0.00266371,0.061009 -0.00797086,0.0605447 -0.0132173,0.0596196 -0.0183632,0.0582408 -0.0233694,0.0564187 -0.0281977,0.0541672 -0.0328114,0.0515035 -0.0371753,0.0484478 -0.0412564,0.0450234 -0.0450234,0.0412564 -0.0484478,0.0371753 -0.0515035,0.0328114 -0.0541672,0.0281977 -0.0564187,0.0233694 -0.0582408,0.0183632 -0.0596196,0.0132173 -0.0605447,0.00797086 -0.061009,0.00266371 z "/>
<path fill="rgb(0,91,140)" stroke="rgb(0,91,140)" d="M 0,6.8 l 0,-6.1 0.00266371,-0.061009 0.00797086,-0.0605447 0.0132173,-0.0596196 0.0183632,-0.0582408 0.0233694,-0.0564187 0.0281977,-0.0541672 0.0328114,-0.0515035 0.0371753,-0.0484478 0.0412564,-0.0450234 0.0450234,-0.0412564 0.0484478,-0.0371753 0.0515035,-0.0328114 0.0541672,-0.0281977 0.0564187,-0.0233694 0.0582408,-0.0183632 0.0596196,-0.0132173 0.0605447,-0.00797086 0.061009,-0.00266371 1.55,-8.88178e-16 0,0.2 -1.55,4.44089e-16 -0.0435779,0.00190265 -0.0432462,0.00569347 -0.0425854,0.00944096 -0.0416005,0.0131166 -0.0402991,0.0166924 -0.0386909,0.0201412 -0.0367882,0.0234367 -0.0346056,0.0265538 -0.0321596,0.0294688 -0.0294688,0.0321596 -0.0265538,0.0346056 -0.0234367,0.0367882 -0.0201412,0.0386909 -0.0166924,0.0402991 -0.0131166,0.0416005 -0.00944096,0.0425854 -0.00569347,0.0432462 -0.00190265,0.0435779 0,6.1 0.00190265,0.0435779 0.00569347,0.0432462 0.00944096,0.0425854 0.0131166,0.0416005 0.0166924,0.0402991 0.0201412,0.0386909 0.0234367,0.0367882 0.0265538,0.0346056 0.0294688,0.0321596 0.0321596,0.0294688 0.0346056,0.0265538 0.0367882,0.0234367 0.0386909,0.0201412 0.0402991,0.0166924 0.0416005,0.0131166 0.0425854,0.00944096 0.0432462,0.00569347 0.0435779,0.00190265 1.55,0 4.44089e-16,0.2 -1.55,0 -0.061009,-0.00266371 -0.0605447,-0.00797086 -0.0596196,-0.0132173 -0.0582408,-0.0183632 -0.0564187,-0.0233694 -0.0541672,-0.0281977 -0.0515035,-0.0328114 -0.0484478,-0.0371753 -0.0450234,-0.0412564 -0.0412564,-0.0450234 -0.0371753,-0.0484478 -0.0328114,-0.0515035 -0.0281977,-0.0541672 -0.0233694,-0.0564187 -0.0183632,-0.0582408 -0.0132173,-0.0596196 -0.00797086,-0.0605447 -0.00266371,-0.061009 z "/>
<path fill="rgb(241,240,234)" stroke="rgb(241,240,234)" d="M 2.25,0.4 l 0,-0.2 1.55,-4.44089e-16 0.0435779,0.00190265 0.0432462,0.00569347 0.0425854,0.00944096 0.0416005,0.0131166 0.0402991,0.0166924 0.0386909,0.0201412 0.0367882,0.0234367 0.0346056,0.0265538 0.0321596,0.0294688 0.0294688,0.0321596 0.0265538,0.0346056 0.0234367,0.0367882 0.0201412,0.0386909 0.0166924,0.0402991 0.0131166,0.0416005 0.00944096,0.0425854 0.00569347,0.0432462 0.00190265,0.0435779 0,6.1 -0.00190265,0.0435779 -0.00569347,0.0432462 -0.00944096,0.0425854 -0.0131166,0.0416005 -0.0166924,0.0402991 -0.0201412,0.0386909 -0.0234367,0.0367882 -0.0265538,0.0346056 -0.0294688,0.0321596 -0.0321596,0.0294688 -0.0346056,0.0265538 -0.0367882,0.0234367 -0.0386909,0.0201412 -0.0402991,0.0166924 -0.0416005,0.0131166 -0.0425854,0.00944096 -0.0432462,0.00569347 -0.0435779,0.00190265 -1.55,0 0,-0.2 1.55,0 0.0261467,-0.00114159 0.0259477,-0.00341608 0.0255513,-0.00566458 0.0249603,-0.00786996 0.0241794,-0.0100155 0.0232145,-0.0120847 0.0220729,-0.014062 0.0207634,-0.0159323 0.0192958,-0.0176813 0.0176813,-0.0192958 0.0159323,-0.0207634 0.014062,-0.0220729 0.0120847,-0.0232145 0.0100155,-0.0241794 0.00786996,-0.0249603 0.00566458,-0.0255513 0.00341608,-0.0259477 0.00114159,-0.0261467 0,-6.1 -0.00114159,-0.0261467 -0.00341608,-0.0259477 -0.00566458,-0.0255513 -0.00786996,-0.0249603 -0.0100155,-0.0241794 -0.0120847,-0.0232145 -0.014062,-0.0220729 -0.0159323,-0.0207634 -0.0176813,-0.0192958 -0.0192958,-0.0176813 -0.0207634,-0.0159323 -0.0220729,-0.014062 -0.0232145,-0.0120847 -0.0241794,-0.0100155 -0.0249603,-0.00786996 -0.0255513,-0.00566458 -0.0259477,-0.00341608 -0.0261467,-0.00114159 -1.27829,8.88178e-16 -0.271711,-4.44089e-16 z "/>
<path fill="rgb(241,240,234)" stroke="rgb(241,240,234)" d="M 0.7,0.4 l -0.0261467,0.00114159 -0.0259477,0.00341608 -0.0255513,0.00566458 -0.0249603,0.00786996 -0.0241794,0.0100155 -0.0232145,0.0120847 -0.0220729,0.014062 -0.0207634,0.0159323 -0.0192958,0.0176813 -0.0176813,0.0192958 -0.0159323,0.0207634 -0.014062,0.0220729 -0.0120847,0.0232145 -0.0100155,0.0241794 -0.00786996,0.0249603 -0.00566458,0.0255513 -0.00341608,0.0259477 -0.00114159,0.0261467 4.44089e-16,6.1 0.00114159,0.0261467 0.00341608,0.0259477 0.00566458,0.0255513 0.00786996,0.0249603 0.0100155,0.0241794 0.0120847,0.0232145 0.014062,0.0220729 0.0159323,0.0207634 0.0176813,0.0192958 0.0192958,0.0176813 0.0207634,0.0159323 0.0220729,0.014062 0.0232145,0.0120847 0.0241794,0.0100155 0.0249603,0.00786996 0.0255513,0.00566458 0.0259477,0.00341608 0.0261467,0.00114159 1.55,0 0,0.2 -1.55,0 -0.0435779,-0.00190265 -0.0432462,-0.00569347 -0.0425854,-0.00944096 -0.0416005,-0.0131166 -0.0402991,-0.0166924 -0.0386909,-0.0201412 -0.0367882,-0.0234367 -0.0346056,-0.0265538 -0.0321596,-0.0294688 -0.0294688,-0.0321596 -0.0265538,-0.0346056 -0.0234367,-0.0367882 -0.0201412,-0.0386909 -0.0166924,-0.0402991 -0.0131166,-0.0416005 -0.00944096,-0.0425854 -0.00569347,-0.0432462 -0.00190265,-0.0435779 0,-6.1 0.00190265,-0.0435779 0.00569347,-0.0432462 0.00944096,-0.0425854 0.0131166,-0.0416005 0.0166924,-0.0402991 0.0201412,-0.0386909 0.0234367,-0.0367882 0.0265538,-0.0346056 0.0294688,-0.0321596 0.0321596,-0.0294688 0.0346056,-0.0265538 0.0367882,-0.0234367 0.0386909,-0.0201412 0.0402991,-0.0166924 0.0416005,-0.0131166 0.0425854,-0.00944096 0.0432462,-0.00569347 0.0435779,-0.00190265 1.55,-4.44089e-16 0,0.2 -0.231485,0 -1.31852,4.44089e-16 z "/>
<path fill="rgb(241,240,234)" stroke="rgb(241,240,234)" d="M 2.55815,6.76802 l -1.46801,0 0,-3.50047 0.573038,0 0,1.3725 0.89497,0 0.091214,0.00321932 0.109457,0.0107311 0.101945,0.0182428 0.0944333,0.0268276 0.0879947,0.0354125 0.0794098,0.0439973 0.0847754,0.0590208 0.0783367,0.0697519 0.070825,0.0783367 0.0633132,0.0858485 0.0558015,0.0944333 0.0472167,0.0997988 -1.85969,0.00214621 0,0.872435 0.917505,0 0.938968,0.0257545 -0.0439973,0.0890678 -0.0536553,0.0847754 -0.0622401,0.0783367 -0.0718981,0.0729712 -0.0804829,0.0676057 -0.0890678,0.061167 -0.0643863,0.0364856 -0.0890678,0.0397049 -0.0944333,0.0311201 -0.0987257,0.0225352 -0.104091,0.0139504 -0.109457,0.00429242 z "/>
<path fill="rgb(241,240,234)" stroke="rgb(241,240,234)" d="M 3.51965,6.16601 l -0.938968,-0.0257545 0.0686788,-0.00321932 0.104091,-0.0193159 0.0890678,-0.0386318 0.0740443,-0.0558015 0.0246814,-0.0268276 0.0568746,-0.0869216 0.0354125,-0.0997988 0.0107311,-0.113749 0,-0.0279007 -0.0182428,-0.111603 -0.0429242,-0.0933602 -0.0665326,-0.0783367 -0.0450704,-0.0343394 -0.0858485,-0.0461435 -0.0965795,-0.0268276 -0.108384,-0.00965795 -0.917505,0 1.85969,-0.00214621 0.0375587,0.105164 0.0268276,0.107311 0.0160966,0.108384 0.00536553,0.109457 -0.00107311,0.0525822 -0.00858485,0.112676 -0.0171697,0.107311 -0.0268276,0.100872 -0.0354125,0.0965795 z "/>
</g></g></svg>
